<?xml version="1.0" encoding="utf-8"?>
<!-- Generator: Adobe Illustrator 25.0.0, SVG Export Plug-In . SVG Version: 6.00 Build 0)  -->
<svg version="1.1" id="Ebene_1" xmlns="http://www.w3.org/2000/svg" xmlns:xlink="http://www.w3.org/1999/xlink" x="0px" y="0px"
	 viewBox="0 0 1920 1080" style="enable-background:new 0 0 1920 1080;" xml:space="preserve">
<style type="text/css">
	.st0{fill:#FFFFFF;}
</style>
<g>
	<path class="st0" d="M70.5,225.7c304.6,0,608.3,0,913,0c0,2.1,0,4,0,5.9c0,18.3,0,36.7,0,55c0.2,116.2,0.4,232.3,0.5,348.5
		c0,46.7-0.1,93.3-0.2,140c0,8.2-0.9,9.1-9.2,9.1c-3.7,0-7.3,0-11,0c-84.7,0.1-169.3,0.2-254,0.3c-22,0-44,0.2-66,0.3
		c-1.5,0-2.9,0.1-5,0.2c1,2.6,1.5,4.8,2.7,6.8c8.9,15.2,17.3,30.8,27.2,45.4c7.4,10.8,17.7,19.5,25.3,30.2
		c7.4,10.3,16.3,12.5,28.5,12.4c84.5-0.6,169-0.3,253.5-0.3c2.3,0,4.6,0,7.3,0c0,6.5,0,12.6,0,19.1c-303.8,0-607.6,0-911.8,0
		c0-6.2,0-12.5,0-19.4c1.8,0,3.6,0,5.3,0c33,0,66,0,99,0c52.3,0.1,104.7,0.2,157,0.3c7,0,14,0.3,21,0.3c5.3,0,10.2-1.1,14.1-5.1
		c18.4-18.7,36.3-37.7,50.1-60.1c5.9-9.5,11.1-19.3,16.9-29.3c-1.3-0.2-2.5-0.3-3.7-0.4c-1.3-0.1-2.7,0-4,0
		c-102.5-0.1-205-0.2-307.5-0.3c-14.2,0-28.3-0.3-42.5-0.2c-4.5,0-6.1-1.5-6.1-6.1c-0.2-98.5-0.6-197-0.7-295.4
		c-0.1-83.2,0.2-166.3,0.3-249.5C70.5,230.9,70.5,228.6,70.5,225.7z M607.1,334.1c1.4,0,2.7-0.3,3.7,0c11.5,4,23,7.9,34.3,12.3
		c3.3,1.3,6.8,3.5,8.8,6.3c8.2,11.4,19.7,18.2,31.7,24.4c14.6,7.6,29.7,14.3,44.2,22.1c13.1,7.1,26.2,14.6,38.4,23.1
		c9.4,6.6,17.6,14.9,26.2,22.6c7.3,6.6,14.5,13.3,21.3,20.4c6.6,6.9,12.7,14.4,19,21.6c-0.3,0.5-0.6,0.9-0.9,1.4
		c-12.3-3.2-24.5-6.4-36.9-9.6c38.3,18.4,72,42.6,101.9,72.1c-0.2,0.4-0.4,0.7-0.6,1.1c-18.1-3.2-36.1-6.5-54.2-9.7
		c29.8,28.4,64.7,50.5,91.5,81.8c-0.3,0.5-0.5,1.1-0.8,1.6c-15.1-4.3-30.2-8.7-45.2-13c-0.3,0.4-0.6,0.8-0.9,1.2
		c23.2,23.1,42.9,48.9,59.5,77.2c0.7-1.7,0.7-3.1,0.7-4.5c0.1-143.2,0.1-286.3,0.2-429.5c0-7.3-0.8-8.1-7.9-8.1
		c-46.5-0.2-93-0.5-139.5-0.5c-230.3,0-460.6,0-691,0c-2.1,0-4.2,0.3-6.4,0.4c0,150.4,0,300.5,0,450.9c2.2,0,4,0,5.8,0
		c112.5,0.1,225,0.1,337.5,0.2c47.3,0,94.7,0,142,0.3c5.3,0,10.7,1.9,15.9,3.5c4.7,1.5,9.1,3.9,13.6,6c2.7,1.2,5.5,2.4,8,4
		c27.4,16.8,54.8,33.6,82.2,50.4c1.6,1,3.3,1.9,5,2.8c-0.8-2.2-2-3.7-3.3-5.1c-13.6-13.2-26.7-27.1-41-39.4
		c-38.6-33.3-82.5-58.3-128.7-79.4c-8.3-3.8-16.6-7.7-24.8-11.7c-7.7-3.7-15.3-7.6-23-11.5c0.9,5.3,2,10.4,5,14.2
		c3,3.9,7.6,6.7,11.8,9.5c4,2.6,8.5,4.4,12.8,6.5c-0.2,0.4-0.4,0.7-0.6,1.1c-25.9-8.4-47.4-23.9-68.7-41.3c5.3-1.3,9.6-2,13.6-3.5
		c4-1.5,7.5-4,11.4-5.8c1.5-0.7,3.9-1.1,5.2-0.4c14.8,7.3,32.8,6.1,45.9,18c-1.1-1.9-2.3-3.8-4-5c-3-2.2-4.2-7.9-9.9-5.4
		c-0.4,0.2-1.5-1.3-2.5-2.2c20.7-5.3,23.2-6.5,28.8-14c-2.7-1.9-5.2-3.9-8-5.6c-3.2-2.1-4.9-4.7-3.5-8.6c2.2,0.3,4.1,0.6,7.1,1
		c-2-4.3-3.4-8-5.4-11.3c-3.5-5.9-2.3-9.3,4.4-10.9c3.3-0.8,6.7-1.3,9.9-1.8c-0.1-8.2-5.9-10.3-11.7-11c-11.4-1.3-22.9-2.1-34.3-2.3
		c-24.8-0.5-49.2-2.6-72.7-11.1c-19.1-6.9-38.9-10.6-59.3-9c-4.7,0.4-9.3,1.1-15.5,1.9c5.2,4.9,9.1,8.6,13.7,12.9
		c-2.3,0.5-3.9,0.9-5.4,1.1c-9.9,1.5-19.8,2.6-29.6,4.7c-27.2,5.8-54.3,11.8-81.4,18c-4.7,1.1-9.1,3.3-13.6,5
		c0.1,0.4,0.3,0.9,0.4,1.3c1.6,0,3.2,0.1,4.8,0c16.1-0.8,24.6,9.6,20.1,25c-0.5,1.9-2.8,4.3-4.6,4.6c-13.6,2.3-27,2.5-38.8-6
		c-11-7.9-10.3-21.8,1.3-28.7c13.3-7.9,26.4-16.2,39.9-23.8c21.2-11.8,41.7-24.8,64.9-32.7c4-1.4,5.2-4.4,5-8.7
		c-0.4-10.3-1-20.6-0.3-30.8c0.6-8.8,0.4-18.2,6.7-25.6c5.7-6.7,11-14,17.7-19.6c20.7-17.3,41.6-34.4,68.8-40
		c-2.4-10.8-4.9-21.5-7-32.2c-1.6-7.8-3-15.7-3.9-23.6c-1-9,1.9-11.5,11-9.8c2.1,0.4,4.3,0.8,6.2,1.7c15.5,7.6,31,15.3,46.4,22.9
		c2.1,1.1,4.1,2.3,6.7,3.7c0-12.8-0.5-24.6,0.2-36.4c0.4-7.2,2.3-14.4,3.9-21.5c0.3-1.3,2.8-3.1,4-3c3.6,0.4,7.3,1.3,10.5,2.8
		c27.9,13.5,55.1,28.2,81,45.3c7.8,5.2,15.9,8.1,25.2,7.8c0.5,0,0.9-0.1,1.5-0.1C607.9,336.3,607.5,335.3,607.1,334.1z M719,619.2
		c-0.3,0.5-0.5,1-0.8,1.5c-24.8-6.2-49.5-12.5-74.1-18.7c8.9,6.3,18.1,12.6,26.9,19.3c3.1,2.4,5.3,5.9,7.9,8.9
		c-0.3,0.4-0.6,0.8-0.9,1.1c-13.2,0-26.5,0-39.7,0c32.5,22.9,68.2,39.6,103.5,57.3c-7.9-17.4-18.9-33.2-23.3-52.9
		c20.9,4.9,40.9,9.5,62.4,14.5c-34.9-35.8-68.8-70.4-103.3-105.8c38.3,5,75.6,9.9,113,14.8c0.1-0.4,0.2-0.7,0.2-1.1
		c-35.8-24.7-71.6-49.5-108.4-74.9c18.2-2.2,35-4.2,51.8-6.2c0-0.5,0-1,0.1-1.6c-30.2-12.3-62.2-16.1-95.7-19.2
		c14.1,20.2,32.2,34.5,49.3,51.5c-19.4-1.4-37.6-2.8-55.7-4.1c-0.3,0.6-0.6,1.1-0.9,1.7c15.5,17.5,30.9,35,47,53.2
		c-8.5-0.7-16.2-1.3-23.9-2C677.6,576.2,699.7,596.3,719,619.2z M576.8,417.4c0-15.1,0.3-29.4-0.2-43.7c-0.1-3.8-2.2-7.8-4.2-11.2
		c-2.4-3.9-5.6-7.4-8.5-11c-3.3-4.1-6.2-8.8-10.1-12.2c-9.8-8.4-19.9-16.7-30.4-24.2c-8.8-6.3-18.3-11.5-28-17.5
		c0.9,7.8,2.1,14.5,2.4,21.3c1,19.1,1.6,38.2,2.4,57.3c0.2,4.8,0.4,9.7,1.2,14.4c0.2,1.4,2,2.7,3.4,3.5c0.5,0.2,2.8-1.4,2.9-2.3
		c0.6-5.7,3.6-4.6,7.3-3.1c19.2,7.8,38.5,15.6,58.7,23.7c-2,1.3-2.7,1.8-3.9,2.5C572.2,415.8,574.2,416.5,576.8,417.4z M439.4,458.1
		c-0.9-1-1.2-1.6-1.6-1.7c-1.1-0.4-2.2-0.8-3.4-0.9c-12.4-1.2-24.8-2.5-37.2-3.4c-17.3-1.3-29.6,9.5-42.5,18.4
		c-1.8,1.3-1.6,6.3-1.3,9.5c0.1,1.1,3.7,3,5.1,2.6c5.9-1.9,11.6-4.6,17.4-7c2.2-0.9,4.3-2.5,6.6-2.8c13.1-1.8,26.3-3.3,40.4-5
		c-3.8-1.8-6.9-3.3-10-4.8c4.4-1.8,8.7-2.3,12.9-2.9C430.2,459.4,434.5,458.7,439.4,458.1z M404.4,493.1c-0.4,0.1-0.7,0.1-1.1,0.2
		c-0.6,1.6-1.9,3.3-1.6,4.6c0.3,1.3,2.3,2.7,3.7,3c9,1.8,17.5,0.2,25-5.3c6.5-4.7,9.8-11,8.8-19.3c-0.4-3.4-2.2-4.5-5.4-4
		c-3.1,0.5-6.2,0.8-9.4,1c-6.3,0.6-12.6,0.9-18.8,1.6c-4.1,0.4-5.9,2.7-4.6,6.9C402.2,485.4,403.3,489.3,404.4,493.1z M467.6,368.9
		c-4.8-10.1-23.2-27.5-33.3-31.6c2.1,8.9,3.9,17.4,6.1,25.9c0.7,2.8,2,5.7,5.9,5.7C453.2,368.8,460.1,368.9,467.6,368.9z
		 M334.5,457.6c-2.2,7.3-0.9,12.6,2.9,14.3c3.9,1.7,9.5-0.3,12.3-4.6C343,467,337.8,464.5,334.5,457.6z"/>
	<path class="st0" d="M1237.5,808.4c-7.4,19-14.5,36.9-21.6,54.9c-3.2,8.2-6.7,16.3-9.9,24.5c-1.8,4.7-4.6,7.4-9.9,7.5
		c-16,0-32,0.3-47.9,0.4c-4.2,0-7.5-1.6-9.5-5.9c-23.5-50.5-46.9-101.1-70.9-151.4c-6.8-14.2-5.7-28.8-5.4-43.5
		c0.4-21.6,1.2-43.3,1.7-64.9c0.2-8.9,0.3-9.3,9.3-9.1c20.8,0.5,41.6,1.4,62.4,1.9c4.1,0.1,4.6,2.3,4.5,5.5
		c-0.7,19-1.3,37.9-1.9,56.9c-0.3,11.5-1.1,23-0.6,34.5c0.3,5.8,2.5,11.7,4.9,17.1c8.6,19.3,17.7,38.3,26.7,57.5
		c1.1,2.4,2.8,4.4,4.6,7.3c1.2-2,2.2-3.2,2.7-4.6c7.8-23.7,17.2-47,22.6-71.2c3.6-16.1,1.5-33.5,1.6-50.3
		c0.1-15.2-0.3-30.3-0.8-45.5c-0.1-4.6,1.5-6.9,6.2-6.9c20,0,39.9,0,59.9,0.1c0.8,0,1.7,0.2,2.5,0.3c8.5,1.5,8.7,1.8,8.5,10.6
		c-0.6,25.6-1.4,51.3-1.4,76.9c0,7.9,1.1,16,3.5,23.5c6.5,20.1,13.9,39.9,21,59.8c0.7,2,1.8,3.9,3.2,6.8c1.9-2.8,3.6-4.8,4.6-7
		c9.4-21.5,18.9-42.9,28-64.5c4.5-10.7,1.9-22.1,1.7-33.1c-0.5-22.3-1.6-44.6-2.4-66.9c-0.2-6.1,0.3-6.3,6.5-6.5
		c21.5-0.6,42.9-1.4,64.4-2c5.6-0.2,6.7,0.9,6.9,6.6c0.8,30,1.5,59.9,2.1,89.9c0,2.4-0.5,5-1.5,7.2
		c-25.1,54.2-50.4,108.3-75.5,162.5c-2.2,4.8-4.7,8.7-10.8,8.7c-15.5-0.1-31,0-46.4,0c-6.6,0-10.4-3.4-12.8-9.6
		c-9.1-23.8-18.5-47.4-27.8-71.1C1239.4,813,1238.6,811.2,1237.5,808.4z"/>
	<path class="st0" d="M1237.9,311.9c-11.7,1-21.9,1.9-32.2,2.6c-9.3,0.6-18.6,1-27.9,1.3c-6,0.2-6.6-0.7-5.4-6.7
		c0.8-4.2,2-8.4,2.6-12.7c1.8-12.5,3.3-25,5-37.5c0.2-1.2,0.3-2.3,0.5-3.5c1.4-6.5,2.1-6.9,8.8-6.2c42.7,4.2,85.4,5.2,128.1,2.1
		c17.6-1.3,35.2-2.4,52.8-3.8c4.4-0.3,6.3,0.9,6.1,5.7c-0.6,17.5-1.2,34.9,1.6,52.3c1.2,7.6-0.5,8.6-8.2,8.2
		c-17.9-1-35.9-1.9-55.1-2.9c0,7.3-0.1,14.4,0,21.5c0.5,40.6,0.9,81.2,1.5,121.8c0.3,21,0.9,41.9,1.5,62.9c0.1,4.2-1.2,6.5-5.7,6.9
		c-23.3,2.2-46.5,2.3-69.8,0.2c-5.7-0.5-7.3-2.2-7.1-8c0.8-28.4,2.1-56.9,2.5-85.3c0.5-32.9,0.4-65.9,0.5-98.8
		C1237.9,325.4,1237.9,319,1237.9,311.9z"/>
	<path class="st0" d="M1433.2,797.3c0.9-26.5,8.3-50.5,26.9-70.1c12.8-13.5,28.4-21.8,46.5-25.4c21.3-4.3,42.6-4,63,3.7
		c36.1,13.7,55.7,40.8,60.2,78.8c2.9,23.8,0.1,47-12.2,68.1c-15.8,27.2-39.8,42.2-71,45.7c-22.7,2.6-44.7,0.3-64.9-11
		c-28.8-16.2-44.6-41-48-73.9c-0.3-3-0.6-6-0.7-9C1433.1,801.9,1433.2,799.6,1433.2,797.3z M1531.2,759.8c-9.2-0.2-17.5,4-24.1,11.8
		c-10.7,12.8-12.8,32.7-4.8,47.3c6.5,11.9,16.3,19.3,30.4,19c14.1-0.3,23.8-7.8,29.5-20.2c6.4-13.9,5.9-27.8-1.9-41.1
		C1554.2,766,1545.1,759.8,1531.2,759.8z"/>
	<path class="st0" d="M1769,711.4c0-9.9-0.3-19.2,0.1-28.5c0.3-7.3,1-14.6,2.4-21.8c4.3-21.9,19.4-34.6,38.7-43.1
		c17.8-7.9,36.8-10,56.1-10c3.3,0,4.7,1.6,5.3,4.7c2.6,14.1,5.3,28.1,8.1,42.2c0.9,4.6-0.5,7.5-5.3,8.4c-5.6,1-11.1,2.1-16.7,2.8
		c-9.3,1.2-14.6,6.3-16.3,15.5c-1.7,9.4-2,18.8-0.5,27.7c10.9,0,21.4,0,31.9,0c7.8,0,8.2,0.4,8.3,8.1c0.2,16.3,0.4,32.6,0.5,49
		c0,6.6-1.3,7.8-8,7.6c-8.5-0.2-17-0.6-25.4-0.9c-1.4,0-2.9,0-4.2,0c0,8-0.2,15.6,0,23.2c1,30.6,2.1,61.2,3.3,91.8
		c0.2,5.2-1.7,7.6-6.7,7.6c-19.3,0-38.6,0.2-57.9-0.3c-8-0.2-9.7-2.8-9.7-10.8c0-34.2,0-68.3,0-102.5c0-6.8-1.4-8.2-8.2-8.2
		c-0.3,0-0.7,0-1,0c-13.8,0.3-12.9,2.2-13.8-13c-0.7-12.3-0.8-24.6-1.1-36.9c-0.2-8.5,2.6-11.3,11.2-11.9
		C1763.3,711.9,1766.4,711.6,1769,711.4z"/>
	<path class="st0" d="M1071.4,385.4c0-19,0.2-38-0.1-56.9c-0.3-24.3-1-48.6-1.6-72.9c-0.1-4.4,1.7-5.9,5.9-5.8
		c14.6,0.4,29.3,0.9,43.9,1c8.1,0,16.3-0.7,24.5-0.9c7.7-0.2,8.7,0.9,8.4,8.5c-1.1,26.4-3,52.9-3.2,79.3
		c-0.4,46.1,0.3,92.2,0.6,138.3c0.1,13.8,0.2,27.7,0.4,41.5c0.1,3.8-1.2,5.9-5.3,6.3c-23.3,2.2-46.5,2.4-69.8,0.3
		c-6.9-0.6-8.1-2.7-7.8-9.4c1.4-31.9,2.9-63.9,4.1-95.8C1071.8,407.8,1071.5,396.6,1071.4,385.4
		C1071.5,385.4,1071.5,385.4,1071.4,385.4z"/>
	<path class="st0" d="M1724.9,757.5c0.7,41.8,1.2,83.6,2,125.4c0.2,11.6,0,12.6-11.4,12.9c-16.3,0.5-32.6,0.4-48.9,0.1
		c-10.1-0.2-11.2-1.9-11.2-12.1c0.2-58.1,0.3-116.3,0.7-174.4c0.2-27.7-1.1-55.2-4.8-82.7c-0.6-4.2,1-6.4,5.3-6.4c23,0,46,0,69,0
		c3.8,0,5.3,1.8,5.2,5.6c-1.6,31.9-3.2,63.8-4.5,95.8c-0.5,12-0.1,24-0.1,36C1725.8,757.5,1725.4,757.5,1724.9,757.5z"/>
	<path class="st0" d="M444.7,608.1c-12.5,1.9-25,3.9-37.5,5.6c-20.2,2.7-38.9,10.1-57.8,16.8c-14.7,5.2-29.5,9.3-45.1,10.1
		c-2.4,0.1-5.4-0.5-7.3-2c-8.9-6.7-17.5-13.7-26.2-20.6c-0.6-0.5-1.5-0.8-2.2-1.2c0.2-0.5,0.4-1,0.6-1.4c5.2-0.6,10.3-1.2,15.5-1.8
		c26.5-3.2,51.6-11.3,76.4-20.7c11-4.1,22.4-7.3,33.9-9.8c8.3-1.8,16.8,0.4,23.9,5c9.1,5.8,17.6,12.4,26.4,18.7
		C445,607.2,444.9,607.7,444.7,608.1z"/>
	<path class="st0" d="M410.5,475.3c6.5,0.3,13.1,0.6,20,1c-0.3,2.7-0.5,5-0.7,7.3c-1.7-1.3-3.2-2.4-4.7-3.5
		c-0.6,1.8-1.1,3.6-1.8,5.7c-0.9-0.6-3-1.2-3.1-2.1c-0.8-5.9-4.6-7.4-10.2-6.7C410.2,476.5,410.3,475.9,410.5,475.3z"/>
</g>
</svg>
