<?xml version="1.0" encoding="utf-8"?>
<!-- Generator: Adobe Illustrator 25.0.0, SVG Export Plug-In . SVG Version: 6.00 Build 0)  -->
<svg version="1.1" id="Ebene_1" xmlns="http://www.w3.org/2000/svg" xmlns:xlink="http://www.w3.org/1999/xlink" x="0px" y="0px"
	 viewBox="0 0 1920 1080" style="enable-background:new 0 0 1920 1080;" xml:space="preserve">
<style type="text/css">
	.st0{fill:#FFFFFF;}
</style>
<g>
	<g>
		<path class="st0" d="M512.6,1080c-170.8,0-341.6,0-512.6,0C0,720.7,0,361.5,0,2.2c2-0.1,4-0.4,6.1-0.4c636,0,1271.9,0,1907.9,0
			c2,0,4,0.3,6.1,0.4c0,359.3,0,718.5,0,1077.8c-178.3,0-356.7,0-535,0c-0.7,0-1.4,0-2,0c-9.2,0-18.3,0-27.5,0
			c-7.3-7.2-13.2-7.2-20.4,0c-8.8,0-17.7,0-26.5,0c-0.7,0-1.4,0-2,0c-46.5,0-93.1,0-139.6,0c-0.6-8-4.8-13-9.5-17.8
			c-7-7.1-15-2.9-22.6-3.1c-0.8,0-1.7,2.9-2.6,4.5c-2.6,0.6-5.1,1.3-8.5,2.1c0.6,1.8,1.2,3.7,1.7,5.6c1.2,2.9,2.5,5.8,3.7,8.7
			c-52.3,0-104.6,0-156.9,0c-0.1-3.5,0.3-7.2-0.3-10.6c-0.4-2.1-2-5.1-3.4-5.3c-1.7-0.3-4.6,1.3-5.3,3c-1.6,3.9-2.2,8.5-3.2,12.9
			c-6.5,0-12.9,0-19.4,0c-3-3.3-3.3-7.5-3.3-12.2c0-7.3-2.9-9.5-8-6.5c-0.7,0.4-1.4,1-2.2,1.1c-2.6,0.1-5.3,0-7.9-0.2
			c-0.8,0-1.6-0.3-2.3-0.6c-4.7-2.1-6.6-0.8-6.9,5.3c-0.1,2.7,0.1,5.4,0.2,8.1c-0.8,1.7-1.5,3.4-2.3,5.1c-43.5,0-87,0-130.4,0
			c-4.6-5-9.1-10-13.7-15c-2.4-0.8-4.8-2.3-7.3-2.3c-11.2-0.3-22.3-0.6-33.5,0.1c-3.7,0.2-7.3,3.2-10.9,5c-3,4.1-6.1,8.2-9.1,12.3
			c-47.9,0-95.8,0-143.7,0c-2.6-11.5-13-23.4-20.4-23.4C524.8,1056.7,516.2,1064.3,512.6,1080z M1111.9,582.1
			c-0.7,1.6-1.5,3.2-2.8,6.1c4-2.3,6.6-3.7,9.1-5.2c2.1-1.3,4-2.8,6-4.2c5.4-3.6,10.7-7.3,16.1-10.9c5.2-3.6,8.8-8.6,10.4-16
			c0.5-2.5,2.8-4.5,4.6-7.3c0.7,2.4,1,3.6,1.6,5.7c0.3-3,0.5-4.8,0.8-6.8c3.4,3.2,7.2,4.4,8.8-0.5c2-6.2,4.3-5.1,8.1-3.4
			c2.8,1.3,6.1,1.3,6.6-4.8c-4.6,0-9,0-12.2,0c-2.1-3.1-3.2-6.2-5-7c-1.8-0.8-4.2,0.7-7,1.2c0-7,0-13.8,0-20.7c-0.3,0-0.7,0-1,0
			c0,6.2,0,12.4,0,17.6c-4.1,0-7.7,0-10.6,0c-2.2-5.6-4.6-11.3-6.9-17.2c-1.1,0.3-2.2,0.7-3.3,1c-5.6-1.9-10.1,0.4-14.1,5
			c-1,3.5-2.7,6.9-3,10.5c-0.5,5.6-0.1,11.3-0.1,16.9c-0.5-0.5-1-1.1-1.5-1.6c-2.6,1.2-5.1,2.4-7.7,3.5c0,2.7,0,5.4,0,8.2
			c1.1,2.9,1.7,6.8,3.6,8.5c3.9,3.5,3.7,7.6,2.9,12.4C1114.1,576,1113,579.1,1111.9,582.1z M1135.4,781.1c-9.2-4.7-17.7-3.3-25.7,4
			c-19.3,15.4-15.9,49.1-1.1,61.2c9.9,9.4,23.8,9.9,32.8,1.3c13.7-9.7,18.1-30.4,10.5-50.1c2.6-2.7,3.7-5.9,2.1-10.1
			c-5.2,3.1-5.1,2.8-10-1.2c-2.7-2.2-5.9-3.5-8.9-5.3L1135.4,781.1z M1361.6,812.4l-0.1-0.1c5.3,4.4,4.5,11.3,5.3,17.7
			c0-16.6,0-33.2,0-49.8c-0.9,0.5-2,1.1-3,1.7c-1.7,3-3.4,5.9-5.2,8.9c-0.4,1.6-0.7,3.2-1.1,5c3.1,0.2,5.5,0.3,8,0.5
			c0,3.3,0,5.9,0,8.4c-1.8,0.4-3.2,0.6-5.1,1C1360.8,808.1,1361.2,810.3,1361.6,812.4z M1337.2,577.9c1.9,2.6,4.1,4,6.6,1.4
			c3-3.2,1.1-6.3-0.6-9.3c-0.7-0.9-1.4-1.8-2.6-3.3c8.4,0,16,0,24.1,0c-1.8,3.9-6.7,6.1-3.1,11.2c1.9,2.6,4.1,4,6.6,1.4
			c3-3.2,1.1-6.3-0.6-9.3c-2.4-2.2-3.6-3.6,0.6-5.2c3.1-1.2,5.9-4,8.8-6.1c-0.5-1.8-0.5-4.6-1.5-5.2c-2.8-1.8-5.9-2.8-8.9-4.1
			c-1.1-1.6-2.1-3.2-3.2-4.8c-0.1-0.3-0.2-0.6-0.4-0.8c-5.5-9.1-12.7-14.4-21.9-13.7c-6.2,0.5-12.3,1.4-18.4-0.3
			c-1.3-1.7-2.5-3.4-3.8-5c-1.1,1.3-2.2,2.5-3.2,3.8c1.2,1.5,2.4,2.9,3.5,4.4c-0.5,4.1-1.1,8.3-1.6,12.4c-1.7,4.3-3.3,8.5-5,12.8
			c-2.1,4.5-1.5,7.9,3.3,9.4c-2.7,3.3-6.4,5.5-3.2,10.5c1.9,2.6,4.1,4,6.6,1.4c3-3.2,1.1-6.3-0.6-9.3c-0.7-0.9-1.4-1.8-2.6-3.3
			c8.4,0,15.9,0,24.1,0C1338.4,570.6,1333.5,572.8,1337.2,577.9z M760.2,510.3c-1.7-1.7-3.4-3.5-5.1-5c-1.3-1.1-3.5-3.1-4-2.6
			c-1.3,1.2-2.4,3.5-2.8,5.6c-1.7,10.2,1.2,17.5,8.9,22.9c3.4,0.7,6.7,1.5,10.5,2.3c0,4.1,0,8.3,0,12.6c0.5-2.5,0.2-5.1,0.6-7.5
			c0.5-3,1.5-5.8,2.3-8.7c9.9-10.2,10.6-20.1,2.1-31.3c-3.1-1.8-6.2-3.6-10.3-6c0,6.4,0.1,10.8-0.1,15.1
			C762.1,508.5,760.9,509.3,760.2,510.3z M718.7,512.2c-0.5-2-1.2-4-1.4-6c-0.2-4-0.1-8-0.1-13.6c-3.2,1.8-5.1,3-7,4.1
			c-1.5,1.1-3.4,1.8-4.6,3.3c-7,9.5-4.7,23.3,5.1,31.1c0.8,6.4,1.7,12.7,2.4,18.2c0-4.7,0-10.5,0-14c5.5-3,10.1-5.4,14.6-7.9
			c4.1-6.3,6.5-13.1,3.7-21.3c-1.3-3.6-3.2-4.7-5.8-1.8C723.4,506.8,721.1,509.5,718.7,512.2z M500.5,571.4l-0.2-0.2
			c2.4,1.5,4.8,4.1,7.3,4.2c19.6,0.4,39.3,0.5,58.9,0.2c7.9-0.2,12-9.5,8.9-18.4c-1.6-4.6-6.4-7.9-10.4-6.9
			c-3.6,0.9-5.9,3.4-6.2,8.5c1.5,0,2.7-0.2,3.9,0c1.9,0.3,5.2-1.4,4.7,3.1c-0.1,1.3-3.1,3-4.8,3c-14.9,0.2-29.8,0.2-44.7,0.1
			c-2.1,0-4.3-0.8-6.4-1.3c0,0,0.2,0.2,0.2,0.2c-0.5-6.3-1-12.6-1.5-19.6c3.4,0.2,7.1-0.7,7.8,0.7c1.5,3,1.5,7.1,2.2,11
			c3.4,0,6.9,0,10.6,0c-0.5-6.1-3.7-7.1-7.6-7.3c-0.9,0-1.7-1.3-2.5-2c0.8-0.8,1.6-2.2,2.4-2.2c6-0.2,12.1-0.1,18.3-0.1
			c0.2,4.4,0.4,7.9,0.6,11.6c3.8,0,7.3,0,10.8,0c-1-5.4-2.1-6.5-5.8-7.3c-1.4-0.3-2.7-1.4-4-2.1c1.5-0.8,3-2.2,4.5-2.2
			c7.3-0.2,14.6,0,21.9-0.2c2.2-0.1,4.4-1.2,6.6-1.9c0.3-0.3,0.5-0.6,0.8-1c0-2.6,0-5.2,0-7.8c-0.6-2.2-0.8-4.6-1.7-6.5
			c-6-12.7-14.4-21.4-26.8-22.9c-2.3-0.3-4.5-0.7-6.8-1c-0.4,5.4-4,3.1-6.3,3.8c-5.9,2-11.8,3.8-17.8,5.7c-1.9,1.3-3.7,2.5-5.6,3.8
			c-7.2,5.1-11.3,13.1-13.6,22.7c-0.2,9.1-0.6,18.2-0.5,27.3C497.9,568.1,499.6,569.7,500.5,571.4z M902.3,562.6
			c8.7,15.6,22.7,18.7,33.3,7.2c2.5-2.7,4.1-6.5,6.1-9.8c1.6,2.1,3.3,4.2,4.8,6.4c5.9,8.5,13.4,11.8,22.1,9.3
			c8.5-2.4,13.5-9.8,15.8-20c0.4-1.9,0.8-3.9,1.3-6.7c-5.3,0-10,0-15.3,0c0-3.3,0.2-6-0.1-8.6c-0.2-1.9-0.6-4.8-1.5-5.3
			c-1.2-0.6-3.2,0.5-4.5,1.5c-3.9,3.2-7.6,6.9-11.5,10.2c-1.2,1.1-2.8,1.5-4.2,2.3c4.1-11.2,8.8-21.1,13.4-31
			c2.3-4.9,2.7-9.9-0.2-14.7c-2.7-4.6-6.4-6-11.1-5.6c-6.1,0.5-12.2-0.1-18.4-0.2c-12.2,5.1-13.8,9.9-7.6,24
			c3.8,8.6,7.8,17,11.7,25.5c-1.6,0-3.5,0.7-4.7-0.2c-4.1-3.2-7.9-7.1-11.9-10.5c-1.3-1.1-3.4-2.2-4.5-1.6c-1,0.5-1.4,3.4-1.6,5.3
			c-0.3,2.8-0.1,5.6-0.1,9.1c-5.5,0-10.1,0-16.1,0C899.6,554.5,900.9,558.6,902.3,562.6z M1316.3,854.9c4.4,0.4,8.9,0.9,13.3,1.3
			c0.3-0.9,0.6-1.9,0.9-2.8c-2.5-2.5-5-5-7.5-7.4c3.5-4.6,5.4-4.7,9.1-0.5c2.6,2.9,4.8,7.5,9.1,3.3c0,0-0.2,0.2-0.2,0.2
			c2.8-3.1,5.5-6.3,8.3-9.4c-0.2-0.8-0.4-1.6-0.6-2.4c-3,0.2-6.1,0.4-10.3,0.6c-2.4-1.9-3.8-5.1-3-11c0.8-6.3,1-12.5,4.9-17.5
			c0.8-1,0.6-3.4,0.8-5.4c-1.9-0.3-3.4-0.6-4.8-0.8c0-3,0-5.6,0-8.2c2.7-0.2,5-0.4,8.9-0.8c-1.6-4.7-2.9-8.4-4.2-12.1l0.2,0.2
			c-0.4-0.7-0.6-1.6-1.1-1.9c-5.9-3.4-12-3.3-17.7-0.1c-5.4,2.9-8,8.8-7.9,16.1c0,7.2,0,14.4,0,22.4c-2.7-0.6-4.6-1-6.4-1.3
			c0,1.3,0,2.5,0,3.3c1.9-0.3,4-0.7,6.4-1.1c0,4.6,0,8.3,0,12c0,3.1-0.1,6.2,0.2,9.3C1315.1,845.8,1315.8,850.4,1316.3,854.9z
			 M536.1,800c-1,3.5-2.1,7-3.4,11.2c-5,0-10.4-0.2-15.8,0.1c-5.7,0.3-11.6,7.6-11.3,13.5c0.4,7.6,6.2,14.2,12.2,14.1
			c5.2-0.1,10.4,0,16.3,0c0,7.2,0,13.5,0,19.5c11.8,0,22.9,0,34.4,0c0-17.6,0-34.6,0-52.3c4.4,0,8.4,0,12.4,0c0.3-0.6,0.7-1.2,1-1.8
			c-1.7-2.3-3.4-4.5-5.2-6.8c-0.6-0.4-1.1-1.2-1.7-1.2c-11.4-0.1-22.9-0.3-34.3,0C539.2,796.4,537.7,798.7,536.1,800z M740.8,787.1
			c0.3,0.7,0.5,1.5,0.9,2.2c1,1.7,2,3.3,3.1,4.9c-1.6,0.6-3.2,1.8-4.8,1.8c-8,0.2-16-0.1-23.9,0c-10.6,0.2-18.1,9-18.2,21.2
			c-0.1,12,7.3,21.2,17.6,21.5c9.4,0.3,18.9,0.4,28.3-0.1c3.1-0.2,6.2-2.3,9.3-3.5c6-3.9,8.7-10.4,8.4-18.4
			c-0.4-9.3-4.6-15.8-11.8-19.1c-3.2-1.3-5.6-3.1-2.8-7.7c2.3-2,4.7-4.6,2.5-8c-1.1-1.7-4.7-3.2-5.8-2.3
			C742.1,780.9,741.7,784.5,740.8,787.1z M451.4,87.5c-0.1,0.7-0.3,1.6-0.2,2.3c1.8,13.4,3.5,26.8,5.6,40.2c0.2,1.6,2.1,3.6,3.5,4
			c2.4,0.6,5.1,0.9,6.2-3.3c1.4-5.5,3.1-10.8,4.6-16.2c2.5,4.6,4.1,9.2,5.1,13.9c1,4.8,3.2,6.1,7,5.9c3.9-0.3,3.5-3.8,3.9-6.7
			c1.2-8,2.2-16.1,3.3-24.1c0.7-5.3,1.4-10.6,2.2-15.8c-8.6-2.3-9.1-1.9-10.3,7.3c-0.8,5.8-1.6,11.7-2.4,17.5c-2-3.6-2.7-7.5-4.1-11
			c-0.7-1.7-2.7-3.7-4.1-3.7c-1.4,0-3.4,2.1-4.1,3.8c-1.4,3.5-2.1,7.4-3.2,11.4c-0.5-0.7-0.8-1-0.9-1.3c-0.8-5.5-1.6-11.1-2.4-16.7
			C459.8,85.7,459.5,85.4,451.4,87.5z M564.3,133.4c7.4,1.5,7.3,1.4,10.7-5.4c0.6-1.3,2.3-2.3,3.6-2.4c3-0.3,6.1-0.4,9.1,0
			c1.4,0.2,3.1,1.6,3.7,3c2.8,6.1,4.2,6.8,10.4,4.2c-0.1-0.6,0-1.2-0.2-1.8c-3.9-13.2-7.9-26.3-11.5-39.6c-1.3-4.9-3.8-4.9-7-5
			c-3.3,0-5.7,0.2-7,5c-3.4,12.5-7.3,24.8-10.9,37.2C564.7,130.2,564.6,131.8,564.3,133.4z M803.3,102.7c4.2-0.5,8.6,2.3,10.9-4.9
			c0.4-1.3,4.6-2.2,6-1.2c1.2,0.9,1.8,5.2,1.1,7.3c-0.9,2.7-3.2,4.8-5,6.9c-3.6,4.1-7.4,8-11.2,11.8c-3,3.1-3.5,6.8-2,11
			c0.5,0.2,0.8,0.3,1.2,0.3c7.5,0,14.9,0.1,22.4,0.1c7,0,7.3-0.5,5.5-10.3c-4.4,0-8.9,0-14.8,0c4.4-4.9,7.7-8.4,10.8-12.2
			c4.8-6,5.4-14.2,1.7-19.8c-3.3-5.1-11.2-7.3-17.5-4.8C806.8,89.1,803.9,93.9,803.3,102.7z M844.9,112.9c3.2,0.4,6.3,0.4,9.2,1.2
			c1.3,0.4,3.1,2.5,3.2,3.9c0.1,1.9-1,5.4-1.9,5.6c-2.8,0.7-6.8,1.5-8.4-0.4c-3.7-4.3-7.2-2.9-11.2-2.4c0.1,6.1,2.7,10.1,6.5,11.2
			c4.9,1.5,10.4,2.2,15.4,1.4c6.1-1,9.8-7.2,9.8-13.9c0-6.9-2.7-10.6-9.5-13.2c-0.4-0.1-0.7-0.6-1-0.9c8.7-11.8,8.7-11.8,7.8-18.8
			c-8.1,0-16.4-0.1-24.6,0.2c-0.8,0-2.3,3.2-2.2,4.9c0,1.6,1.6,4.3,2.6,4.4c4.1,0.5,8.3,0.2,12.7,0.2
			C850.8,102.7,843.1,103.5,844.9,112.9z M913.2,853.4c19.8,0,39,0,58.7,0c0-15,0-29.6,0-43.4c2.8-2.2,5-3.9,7.3-5.6
			c-0.1-0.3-0.3-0.5-0.4-0.8c-1.9,1.4-3.9,2.7-6.7,4.7c0-9.8,0-18.2,0-26.8c-20,0-39.4,0-58.9,0
			C913.2,805.6,913.2,829.2,913.2,853.4z M707.7,134.4c3-0.5,5.4-0.9,7.9-1.2c1.2-0.2,2.6-0.7,3.7-0.1c8.4,4.4,15.7-0.5,16.8-11.5
			c0.4-3.7,0.3-7.6-0.1-11.2c-1.3-9.5-7.7-14.1-15.1-11.2c-1.2,0.5-2.4,1.3-4.3,2.3c0-5.4,0-10,0-14.9c-3.2,0-5.8,0-8.7,0
			C707.7,102.4,707.7,117.7,707.7,134.4z M534.7,101.1c0-5.2,0-9.7,0-14.5c-3.1,0-5.7,0-8.6,0c0,15.9,0,31.4,0,47.7
			c2.9-0.4,5.3-0.7,7.7-1c1.2-0.1,2.6-0.8,3.5-0.3c7,3.7,13.5,1,16.1-7c3.5-10.7,0.4-24.2-6.2-26.8c-1.9-0.7-4-0.8-6-0.5
			C539.2,99,537.4,100.1,534.7,101.1z M902.1,97.8c0,17.6,0,33,0,48.6c3,0,5.6,0,8.7,0c0-5.1,0-9.8,0-14.8
			c13.2,6.6,20,0.8,19.8-16.3c0-1,0-2.1-0.1-3.1c-1-11.8-8.6-17-17.2-11.9c-0.8,0.5-1.9,1.2-2.6,0.9
			C908,100.4,905.4,99.2,902.1,97.8z M943.4,131.2c6,4,11.5,5.4,16.4-0.7c4.5-5.5,4.7-20.6,0.7-27.2c-3.5-5.8-9.3-6.4-16.8-3.4
			c-3-0.4-5.9-0.8-9-1.2c0,16.6,0,32,0,47.5c3,0,5.6,0,8.7,0C943.4,141.2,943.4,136.5,943.4,131.2z M613.1,131.5
			c7.3,4,12,3.8,15.6-0.1c4.7-5.1,5.7-20.3,1.8-27.6c-3.4-6.3-9.9-7.1-17-3.8c-2.9-0.5-5.9-0.9-9-1.4c0,16.7,0,32.2,0,47.6
			c3,0,5.6,0,8.7,0C613.1,141.2,613.1,136.7,613.1,131.5z M645.7,131.4c6,3.7,11.3,5.1,16.1-0.6c4.5-5.3,5-20.3,1.1-27.1
			c-3.5-6.1-9.5-6.8-17.1-3.6c-2.9-0.4-5.8-0.9-9.2-1.4c0,15.5,0,29.7,0,43.8c0,1.2,0.2,2.4,0.3,3.9c2.9,0,5.5,0,8.8,0
			C645.7,141.4,645.7,136.7,645.7,131.4z M886.6,132.7c4.3,0.7,7.3,1.1,10.8,1.7c0-8.6,0.2-15.9-0.1-23.1
			c-0.3-7.5-3.5-11.4-9.4-12.5c-8.1-1.5-13.7,1.2-16,8c-0.2,0.5,0.1,1.2,0.3,3.3c3.3-1.3,6.4-2.1,9.2-3.7c3.6-2,5.6-0.9,6.7,4.7
			c-4.2,1.3-8.5,2.3-12.7,4c-3.9,1.6-6.3,5.1-5.6,10.5c0.7,5.2,3.7,8.3,7.7,8.5C881,134.3,884.4,133.1,886.6,132.7z M521.5,119.1
			c1.2-11.7-3.1-19.3-11.1-20.5c-9.5-1.4-15.5,4.2-16.5,15.2c-1,12,3.4,19.5,12,20.6c8.4,1,14.2-2.9,14.8-11.4
			c-3.8,1.3-7.3,2.2-10.6,3.7c-4.1,1.8-6.7-1-6.2-7.6C509.8,119.1,515.7,119.1,521.5,119.1z M752.7,118.9c-0.8-0.7-1.2-0.9-1.3-1.2
			c-1.3-3.9-2.6-7.7-3.8-11.6c-2.7-8.2-2.7-8.2-10.8-6.3c2.3,6.8,4.3,13.7,6.9,20.1c3.2,7.7,4.5,15.1,0.4,22.8
			c-0.5,0.9-0.4,2.3-0.5,3.4c7.5,1.1,7.5,1.1,10.4-6.9c3.8-10.9,7.7-21.9,11.5-32.8c0.8-2.2,1.4-4.4,2.1-6.7
			c-6.1-2.4-9.3-0.3-10.8,6.6C755.9,110.6,754.1,114.5,752.7,118.9z M966.6,123.4c-0.4,1-0.8,2-1.2,3c1.8,2.1,3.5,5.4,5.6,6.1
			c4.3,1.3,9,1.9,13.4,1.3c4.2-0.5,7.8-3.7,7.9-9.7c0.1-6-3-8.9-7.4-10.3c-2.6-0.8-5.3-1.5-7.8-2.6c-0.7-0.3-1.8-2.1-1.6-2.7
			c0.3-1.2,1.5-2.7,2.3-2.7c1.6,0,3.1,1.2,4.7,1.6c2.7,0.7,5.5,1.2,8.9,1.9c-2.9-9.5-10.9-13.1-18.5-9.7c-3.7,1.7-6.6,4.7-6.5,10.1
			c0.1,5.2,2.9,7.8,6.5,9.3c2.6,1.1,5.3,1.6,7.8,2.8c0.9,0.4,1.9,2.2,1.8,3.2c-0.1,1-1.5,2.5-2.4,2.6c-1.4,0.2-2.9-0.5-4.4-1
			C972.8,125.4,969.7,124.4,966.6,123.4z M693.5,109.6c-2.4-10-11.1-13.8-18.7-10c-3.5,1.8-6.1,4.6-6.2,9.7c0,5.2,2.7,7.9,6.3,9.4
			c2.6,1.1,5.3,1.6,7.8,2.8c0.9,0.4,2.2,2.5,2,3c-0.5,1.3-1.7,2.8-2.7,2.9c-1.4,0.2-2.9-0.8-4.3-1.2c-3-0.9-6.1-1.7-10.5-2.9
			c1.2,3.5,1.4,4.9,2.1,6c4.4,6.9,18.5,7.4,23.2,0.9c3.3-4.5,2.5-11.5-2-14.4c-2.5-1.6-5.5-1.9-8.2-3.2c-1.6-0.8-3.2-2.1-4.6-3.4
			c-0.2-0.1,0.7-2.8,1.1-2.9c1.7-0.1,3.5,0.2,5.2,0.6C686.9,107.5,689.7,108.4,693.5,109.6z M788.6,100.1c0,10.8,0.1,20.2-0.1,29.6
			c-0.1,4.5,2,4.4,4.6,4.4c2.6,0,5.1,0.5,5-4.5c-0.2-12.8-0.1-25.5,0-38.3c0-3.5-1-4.7-3.8-4.8c-8.8-0.3-12.6,9.1-19.2,13.8
			c1.8,2.9,3.1,5,4.6,7.3C782.6,105.2,785.2,103,788.6,100.1z M750,570c3-0.9,5-1.4,6.9-2c1.4-5.6-0.6-10.1-3.7-13.4
			c-3.5-3.6-7.7-6.3-12.3-10c0.3-1.1,1-3.6,1.7-6.1c-0.4-0.4-0.8-0.8-1.2-1.2c-0.8,1.4-2.5,3.2-2.2,4.1c1.6,4.6-0.5,5.1-3.4,6
			c-8.6,2.6-13.8,11-13,20.8c1.8,0.3,3.7,0.6,6,0.9c-2,2.9-3.6,5.2-5.2,7.5c4.1-3.7,6.8-9.6,13-8.1C741.5,569.9,747,566.1,750,570z
			 M1158.4,804.4c3,5.9,5.6,11.3,8.3,16.5c2.6,5.1,5.3,10.1,7.9,15.2c1.9,3.7,3.7,3.6,6,0.6c3.8-4.9,5.1-10.7,4.6-17.2
			c-0.7-8.2-4.2-14-10.3-17.2C1169.3,799.4,1163.8,798.9,1158.4,804.4z M499.9,387.2c0-8.2,0.1-16.3-0.1-24.4c0-1.2-1.6-2.3-2.5-3.5
			c-0.7,1.1-1.7,2.2-2,3.5c-0.4,1.6-0.3,3.5-0.4,5.6c-1.2-0.6-2.1-1.4-2.8-1.2c-2.3,0.6-6.1,0.8-6.6,2.4c-1.3,4.2-1.7,9.1-1.2,13.5
			c0.2,1.9,3.5,4.2,5.7,4.7C493,388.4,496.1,387.5,499.9,387.2z M453.5,359.8c-0.5,0.4-1,0.8-1.5,1.2c2.1,7.9,4.1,15.8,6.4,23.6
			c0.4,1.4,2.3,2.8,3.6,3c1.1,0.2,3.2-1,3.5-2.2c2.4-8.1,4.5-16.4,6.7-24.8c-4.6-0.6-4.6-0.6-5.7,3.2c-1.4,4.9-2.7,9.9-4.1,15.1
			C457.9,373.2,460.9,362.4,453.5,359.8z M518.7,383.3c-0.2-0.6-0.3-1.2-0.5-1.8c-1.8,0.8-3.7,2.2-5.6,2.2c-1.5,0-3.1-1.6-4.6-2.5
			c0.2-0.6,0.4-1.2,0.6-1.8c3.6-0.2,7.2-0.4,10.7-0.6c-0.2-7.8-2.2-11.3-6.7-12c-4.1-0.6-7.3,1.2-8.9,6.3
			c-1.6,5.4-0.1,11.5,3.3,13.8C511,389.4,515.6,388,518.7,383.3z M539.1,377.4c0-6.9-3.1-10.9-8.3-10.8c-5.2,0.1-8.2,4-8.2,10.9
			c0,7.2,2.7,10.5,8.3,10.5C536.5,387.9,539.2,384.5,539.1,377.4z M582.4,377.7c0.1-6.9-2.9-11-8-11.1c-5.2-0.1-8.5,4-8.6,10.6
			c-0.1,7,2.7,10.7,8.1,10.8C579.7,388.1,582.4,384.8,582.4,377.7z M602,377.5c0-6.9-3.1-10.9-8.3-10.9c-5.1,0-8.4,4.2-8.4,10.8
			c0,7,2.8,10.6,8.3,10.6C599.3,388,602,384.5,602,377.5z M559.8,387.2c0-7.3,0-14.5,0-21.7c1.4-0.1,2.4,0.1,3.1-0.3
			c1.2-0.8,2.3-1.9,3.4-2.9c-1.2-0.8-2.3-2-3.5-2.2c-2.7-0.3-5.4-0.4-8.1,0c-2.2,0.3-4.4,1.3-6.6,2c1.9,1.6,3.7,3.2,6.6,5.5
			c0,4.1,0.1,9.9,0,15.7C554.4,387.5,555.9,388.6,559.8,387.2z M624,381.8c-0.2,0.7-0.4,1.4-0.5,2.1c-3.1-0.5-6.1-0.9-10-1.5
			c2.7,6,6.4,6.2,9.8,5.2c2.1-0.6,3.7-3.4,5.5-5.2c-1.5-2.2-2.7-4.8-4.5-6.4c-1.6-1.4-3.8-1.8-5.7-2.6c0.1-0.8,0.3-1.7,0.4-2.5
			c2.9,0.4,5.8,0.9,8.7,1.3c0.1-0.6,0.3-1.2,0.4-1.7c-1.3-1.1-2.5-2.4-4-3.1c-3.9-1.9-8.7-0.1-9.6,3.8c-1.3,5.8,2.2,6.9,5.6,8.1
			C621.6,379.7,622.8,381,624,381.8z M608.7,388.5c0.6-0.6,1.2-1.1,1.8-1.7c0-7.9,0.1-15.9-0.1-23.8c0-1.3-1.5-2.5-2.3-3.8
			c-0.8,1.3-2.2,2.6-2.2,3.9c-0.2,6.9-0.3,13.8,0,20.7C605.9,385.5,607.7,387,608.7,388.5z M771.9,839.7c-0.2,3.5-0.8,5.8-0.5,8
			c0.5,3.1,1.1,6.5,2.7,8.8c0.7,1,4.5,0.2,5.6-1.2c1.1-1.5,1.6-6.2,0.7-7c-1.8-1.7-4.6-1.8-6.9-2.5c-0.3-0.1-0.6-0.1-1-0.3
			C772.4,844,772.2,842.5,771.9,839.7z M474.9,386.8c0.6,0.6,1.1,1.1,1.7,1.7c1-1.5,2.8-2.9,2.9-4.6c0.4-4.1,0.4-8.3,0-12.5
			c-0.1-1.5-1.6-2.8-2.5-4.1c-0.7,1.3-2,2.6-2.1,3.9C474.8,376.4,474.9,381.6,474.9,386.8z M527.7,777.5c0,3.8-0.4,7.3,0.1,10.7
			c0.5,3.4,1.7,6.6,3.1,11.8c1.4-8.5,2.5-15.4,3.7-22.6C531.4,777.5,529.8,777.5,527.7,777.5z M459.3,185.4
			c-6.6-3.5-6.6-3.5-6.3-7.1c2-0.3,4-0.7,6.1-1c0-0.4,0-0.8,0-1.2c-2-0.3-4.1-0.5-6.4-0.8c0-1.1-0.3-2.8-0.1-3
			c2.2-1.2,4.5-2.1,6.8-3c0-0.2-0.1-0.5-0.1-0.7c-2.7,0-5.4,0-8.3,0c0,5.7,0,11.2,0,16.9C454,185.4,456.7,185.4,459.3,185.4z
			 M565.3,174.6c1.6,10.5,1.6,10.5,5.1,10.1c-3.7-3.7-3.8-8.1-0.7-10.6c-1-1.9-2-3.7-3.2-6.2c-0.3,8.6-6,3.5-8.4,5.8
			c0,4,0,7.6,0,11.3C560,180.7,557.4,172.4,565.3,174.6z M554.5,179.2c0.3-0.5,0.6-1,0.8-1.5c-1.5-1.6-2.9-4.4-4.5-4.6
			c-1.5-0.2-4.5,2.1-4.7,3.7c-0.3,2.6,0.6,6.1,2,8c0.8,1.1,3.8-0.2,5.8-0.4c0-0.7,0-1.4,0-2.1c-2.6,1.1-5.7,4-6.4-2.4
			C550,179.7,552.2,179.4,554.5,179.2z M742.8,928.5c-3.5,1.5-5.9,1.7-6.7,3.1c-2.3,4.3-3.1,9.4,3.1,8.1
			C740.7,939.5,741.3,933.3,742.8,928.5z M962.8,905.9c-3.5,1.5-5.9,1.7-6.6,3.1c-2.2,4.3-3,9.4,3.2,8.1
			C960.8,916.8,961.5,910.7,962.8,905.9z M1193.1,625.8c-3.4,1.5-5.9,1.7-6.6,3.2c-2.2,4.4-2.9,9.5,3.3,8
			C1191.2,636.7,1191.8,630.5,1193.1,625.8z M605.7,182.5c0.1-0.8,0.3-1.7,0.4-2.5c2.3-0.3,4.5-0.5,6.8-0.8c0.3-0.6,0.6-1.2,0.9-1.8
			c-1.7-1.5-3.3-4-5.1-4.3c-1.3-0.2-4.1,2.3-4.2,3.7c-0.2,2.7,0.6,6.1,2.1,8.1c0.8,1.1,3.7-0.2,5.7-0.5c-0.1-0.2-0.2-0.5-0.3-0.7
			C609.9,183.3,607.8,182.9,605.7,182.5z M623.3,186.3c0.5-0.7,1.1-1.3,1.6-2c-1.1-3.8-2-7.7-3.5-11.2c-0.3-0.6-3.1,0.5-5.8,0.9
			c3.3,0.6,5,1,6.7,1.3c-2.8,3-4.8,5.1-6.9,7.3C618.1,183.9,620.7,185.1,623.3,186.3z M636.2,182.2c0.2-0.8,0.3-1.6,0.5-2.4
			c2.3-0.2,4.5-0.4,6.8-0.7c0.3-0.7,0.5-1.4,0.8-2.1c-1.8-1.4-3.5-3.8-5.4-4c-1.3-0.2-3.9,2.5-4,4c-0.1,2.7,0.9,6,2.3,7.9
			c0.7,1,3.6-0.4,5.9-0.8C640.3,183.3,638.2,182.8,636.2,182.2z M471.2,168.6c-0.3,0-0.6-0.1-0.9-0.1c-0.3,1.5-0.6,3-0.5,2.7
			c-3,1.8-5.8,2.4-6.6,4.3c-0.9,2.2-0.8,6.8,0.3,7.9c1.9,1.8,5.1,1.6,7.7,2.3C471.2,179.1,471.2,173.8,471.2,168.6z M593.7,182
			c-2.7,0.2-5.2,0.4-7.7,0.6c-0.1-3.7-0.1-7.5-0.2-11.2c2.6,0,5.1,0,7.9,0c-0.9-2.7-3.5-4.5-6.2-3c-2,1.1-3.8,4.4-4.3,7.1
			c-0.7,3.8-0.4,8.4,3.5,9.8C589.7,186.4,592.6,185.8,593.7,182z M674.2,180.1c-1.6-6.4-4.1-10.5-9.5-11.4
			C665,176,668.6,180.5,674.2,180.1z M508.3,171.6c-1.1-3.8-4.5-5-7-3.1c-2,1.6-3.2,5.8-3.6,9.1c-0.5,3.6,0.6,7.2,4.2,7.9
			c3,0.6,5.5-0.2,6.2-3.3c-2.7,0-5.3,0-7.8,0c0.1-3.7,0.1-7.5,0.2-11.2C503.1,171.3,505.6,171.4,508.3,171.6z M929.4,907.8
			c0,5.3,0,8.4,0,11.1c3.7-1.1,8.2-1.9,5.9-8.4C934.7,909,931.7,908.8,929.4,907.8z M1404.4,632.8c2.5,2.4,3.8,4.7,5.2,4.7
			c1.1,0,3.2-2.8,3.1-4.2c-0.1-1.9-1.9-3.6-3-5.4C1408.4,629.2,1407,630.5,1404.4,632.8z M1139.5,633.4c2.6,2.1,4.1,4.3,5.4,4.1
			c1.2-0.1,3-3,2.9-4.4c-0.2-1.9-2.1-3.5-3.2-5.2C1143.2,629.3,1141.9,630.7,1139.5,633.4z M773.7,627.3c-0.6,0-1.3-0.1-1.9-0.1
			c-0.8,1.9-2.3,3.8-2.2,5.7c0,1.7,1.7,3.3,2.7,4.9c1.3-1.5,3.3-2.9,3.6-4.6C776,631.5,774.5,629.3,773.7,627.3z M596.2,907.4
			c-0.6,0-1.3,0-1.9,0c-0.7,1.9-2.1,3.9-2,5.8c0.1,1.6,1.8,3.1,2.9,4.7c1.2-1.6,3.2-3.1,3.4-4.8C598.6,911.4,597,909.3,596.2,907.4z
			 M742,912.9c2.5,2.4,3.8,4.7,5.1,4.7c1.1,0,3.2-2.8,3.1-4.2c-0.1-1.9-1.9-3.6-2.9-5.5C746,909.3,744.6,910.6,742,912.9z
			 M918.6,912.8c2.1,2.3,3.5,5.1,4.6,4.9c1.4-0.3,3.4-2.9,3.3-4.5c0-1.7-1.8-4-3.3-4.8C922.6,907.9,920.8,910.6,918.6,912.8z
			 M1157.8,632.4c2.4,2.6,3.9,5.3,4.9,5.1c1.4-0.3,3.2-2.8,3.3-4.6c0.1-1.5-1.7-4.5-2.8-4.6C1162,628.1,1160.4,630.3,1157.8,632.4z
			 M508.7,178.9c3.3,3.2,4.9,6,7,6.5c3.4,0.9,4.7-2.5,4.7-6.2c0.1-3.7-1.2-7.1-4.6-6.4C513.8,173.3,512,175.9,508.7,178.9z
			 M1142.8,499.8c0.6-1.7,1.9-4.4,2.5-7.4c0.3-1.5-0.3-3.8-1.1-4.8c-0.6-0.7-2.9-0.3-3.5,0.7c-0.7,1.1-0.8,3.3-0.4,4.8
			C1141,495.8,1142.2,498.3,1142.8,499.8z M502,820.4c0.9-15.5-2.2-15.8,13.1-15.6c1.2,0,2.4,0,3.6,0c3,0,6,0,8.9,0
			c0-0.4,0-0.8-0.1-1.2c-4.9,0-9.8,0-14.6,0c-11.7,0-12,0.4-11.4,14.7C501.4,818.8,501.6,819.1,502,820.4z M523.6,185
			c0.4,0,0.9,0,1.3,0c0-2.1-0.4-4.3,0.1-6.2c0.4-1.7,1.7-3,2.7-4.4c1,1.5,2.4,2.9,3,4.7c0.6,1.8,0.3,3.9,0.4,5.9
			c0.5-0.1,1-0.1,1.6-0.2c-0.5-3.7-0.3-8-1.9-10.8c-0.9-1.6-4.7-0.7-7.1-0.9C523.6,177.8,523.6,181.4,523.6,185z M633,185.4
			c-4.2-4.3-4.4-8.7-1.2-11.2c-1.1-2-2.1-3.9-3.2-6C626.2,177.4,627.7,184.3,633,185.4z M538.3,185.5c0.5,0.1,1.1,0.1,1.6,0.2
			c1.3-4,2.6-7.9,3.8-11.9c-0.4-0.2-0.7-0.4-1.1-0.6c-1.1,2.8-2.2,5.6-3.5,9.1c-1.4-3.7-2.4-6.4-3.4-9.1c-0.3,0.2-0.7,0.4-1,0.6
			C535.8,177.6,537,181.6,538.3,185.5z M1169.2,851c-1.4-2.8-2.5-5.2-4-8.2c-1.4,3-2.4,5.3-3.7,8.2
			C1164.3,851,1166.4,851,1169.2,851z M1170.8,850.9c2.4,0,4.5,0,7.4,0c-1.7-3.2-2.9-5.7-4.4-8.4
			C1172.6,845.7,1171.8,848.1,1170.8,850.9z M1313.2,905.3c0,4.3,0,7.8,0,11.3c-0.8-1.2-1.6-2.4-2.4-3.6c1.8-1.3,3.6-2.6,5.4-3.8
			c0.4,0.7,0.7,1.4,1.1,2.1c-1-0.8-2-1.6-3-2.4c1.2-1.2,2.5-2.3,3.7-3.5C1316.6,905.3,1315,905.3,1313.2,905.3z M721.9,928.8
			c-0.3,0.2-0.6,0.3-0.9,0.5c1.2,3.8,2.3,7.5,3.5,11.3c0.4-0.1,0.9-0.1,1.3-0.2c1-3.7,2-7.5,3.1-11.2c-0.3-0.1-0.6-0.2-0.8-0.4
			c-0.9,2.7-1.8,5.5-3,9C723.8,934.2,722.8,931.5,721.9,928.8z M1172.4,626.1c-0.3,0.1-0.6,0.3-0.9,0.4c1.1,3.8,2.3,7.6,3.4,11.4
			c0.4,0,0.8-0.1,1.2-0.1c1.1-3.8,2.1-7.6,3.2-11.3c-0.3-0.1-0.5-0.2-0.8-0.4c-0.9,2.7-1.9,5.5-3.1,9
			C1174.3,631.6,1173.3,628.8,1172.4,626.1z M541.4,629.7c-0.1-0.6-0.3-1.2-0.4-1.8c1.3-0.8,2.6-1.7,5-3.1c-2.6,0.2-4.2,0.4-5.6,0.5
			c0,4.5,0,8.4,0,12.1c2.1,0,3.8,0,5.4,0c-1.5-1-3-1.9-4.4-2.8c1.3-1.4,2.6-2.8,3.7-4C544.2,630.4,542.8,630.1,541.4,629.7z
			 M944.3,917.7c0.5,0.1,1,0.2,1.4,0.2c1.1-3.8,2.2-7.5,3.3-11.3c-0.3-0.1-0.6-0.3-0.8-0.4c-0.9,2.7-1.8,5.5-3,8.9
			c-1.2-3.4-2.2-6.1-3.1-8.8c-0.3,0.1-0.5,0.3-0.8,0.4C942.3,910.4,943.3,914.1,944.3,917.7z M484.8,185.2
			c-3.4-4.8-3.4-8.6-0.5-11.4c-1-1.8-2-3.6-3-5.4C479.1,177.3,480.5,184.2,484.8,185.2z M905.8,906c-2.4,3.1-2.6,7.3,0.2,10.8
			c1,1.2,3.9,0.2,6,0.1c-1.9-1.3-5-0.7-5.1-1.2C906.1,912.6,906.1,909.3,905.8,906z M775.7,916.6c0.5-4.1,1.1-8.2,1.6-12.1
			C774.2,906.7,774.2,906.7,775.7,916.6z"/>
		<path d="M1920,2.2c-2-0.1-4-0.4-6.1-0.4c-636,0-1271.9,0-1907.9,0C4,1.8,2,2.1,0,2.2c0-18,0-36,0-54c640,0,1280,0,1920,0
			C1920-33.8,1920-15.8,1920,2.2z M92.4-20.2c0.4-0.3,0.9-0.7,1.3-1c0-3.7,0.7-7.8-0.2-11.1C92.7-35,90-38.6,88-38.7
			c-2-0.1-4.8,3.1-6,5.7c-1,2.2-0.5,5.7-0.3,8.6c0.1,1.3,1.1,2.4,1.7,3.6c0.7-0.9,1.3-1.9,2-2.8c0.8-1,1.6-1.9,2.5-2.9
			c0.8,1.1,1.5,2.1,2.3,3.2C90.9-22.2,91.7-21.2,92.4-20.2z M447.1-21.8c2.3-0.7,6.9-1.1,5.8-6.2c-0.8-3.8-4.3-8.6-7.2-9.4
			c-5-1.4-4.3,4.6-4.4,8.6C441.1-24.4,442.2-21.4,447.1-21.8z M100.2-26.1c4.1-0.4,7.4-1.7,6.8-7.7c-0.5-4.4-4.4-6-11-4.2
			c0,4.8-0.1,9.7,0.1,14.7c0,0.9,0.9,1.8,1.4,2.7c0.8-0.8,1.7-1.5,2.2-2.5C100.1-23.9,100-25.1,100.2-26.1z M113.5-26.2
			c2.9-0.7,6.9-1.1,6.1-7.5c-0.6-4.9-3.7-6.2-10.5-4.6c0,5.7,0,11.4,0,17.2c0.4,0.3,0.9,0.5,1.3,0.8C111.4-22,112.4-23.8,113.5-26.2
			z M131.2-33.8c0.3-0.8,0.6-1.7,0.9-2.5c-2.2-0.9-4.5-2.6-6.7-2.5c-1.5,0.1-3.7,2.6-4,4.5c-1.4,7,4.8,5.1,8.2,9.5
			c-3.6-0.5-5.8-0.9-8.1-1.2c-0.2,0.7-0.5,1.3-0.7,2c2,1.2,3.9,3.3,5.9,3.3c1.7,0,4.4-1.8,5.1-3.7c2.9-7.8-5-5.8-7.3-10.8
			C127.3-34.6,129.2-34.2,131.2-33.8z M64.2-24.7c1-4,2.2-7.7,2.6-11.4c0.1-0.8-3.3-2.9-4.9-2.8c-1.8,0.2-3.4,2.4-5.1,3.7
			c0.3,0.6,0.6,1.3,0.9,1.9c1.8-0.5,3.6-1,5.3-1.5c0.3,0.4,0.6,0.8,0.9,1.1c-2.5,3.9-4.9,7.8-7.4,11.7c0.3,0.6,0.7,1.1,1,1.7
			c3.4-0.4,6.8-0.7,10.3-1.1c0-0.7-0.1-1.5-0.1-2.2C66.3-24.1,64.9-24.5,64.2-24.7z M68.8-26.5c1.6,6.2,4.6,6.8,7.9,5.4
			c3.2-1.3,4-4.1,2.3-7.9c-0.3-0.7-0.6-2-0.3-2.6c1.7-4.2,0.1-6.3-3-7.4c-3-1-4.9,0.5-6.1,5c2-0.2,3.9-0.5,5.8-0.7
			c0.1,0.5,0.2,0.9,0.3,1.4c-1.3,0.8-2.6,1.6-4.3,2.7c2.4,2.2,3.6,3.3,4.8,4.4c-0.2,0.5-0.3,1-0.5,1.5
			C73.8-25.2,71.8-25.7,68.8-26.5z M51.2-38.5c0,5.8,0,11.6,0,17.4c0.7,0.3,1.4,0.5,2.1,0.8c3-3.4,1-8.9,1.4-13.3
			C55-36.3,55.6-40,51.2-38.5z M209.6-23.9c0-5.7,0-8.7,0-12.4c-2.4,2.8-7.7,1.7-5.8,8C204.3-26.6,206.9-25.8,209.6-23.9z
			 M28.5-18.1c1.6-2.4,3.7-4.3,3.6-5.6c-0.2-1.9-2.2-3.4-3.5-5c-1.3,1.6-3.3,3.1-3.6,4.9C24.8-22.5,26.9-20.6,28.5-18.1z M43.6-36.5
			c-2-2.1-3.4-4.5-4.7-4.4c-1.3,0.1-3.5,2.5-3.5,4c-0.1,1.5,1.9,4.1,3.2,4.3C39.9-32.3,41.4-34.6,43.6-36.5z M331.9-36.7
			c-0.4,0.1-0.9,0.1-1.3,0.2c-1.1,3.3-2.2,6.6-3.1,9.5c2.7,0,5.1,0,7.6,0C334.1-30.1,333-33.4,331.9-36.7z M764.4-24.5
			c0.6-1.4,0.7-1.6,0.8-1.8c-1.2-0.5-2.4-1.1-4.8-2.1c2.8-0.7,4.3-1.1,5.8-1.5c0.1-0.6,0.2-1.1,0.4-1.7c-1.4-0.8-2.8-1.6-4.2-2.4
			c-0.7,1.9-2.2,4-1.9,5.6C760.8-26.9,763-25.9,764.4-24.5z M473.4-36.3c0,3.5,0,7,0,10.5c3.7,0.5,6.8,1.3,6.9-5.1
			C480.4-37.4,477.3-37.1,473.4-36.3z"/>
		<path class="st0" d="M512.6,1080c3.6-15.7,12.2-23.3,26.5-23.4c7.4,0,17.8,11.9,20.4,23.4c-6.5,0-12.9,0-19.4,0
			c0.2-0.3,0.3-0.9,0.5-1c2.6-0.9,3.3-3,1.9-5.5c-0.7-1.2-2.4-1.5-3.7-2.2c-0.5,1.9-1,3.9-1.4,5.8c-0.1,0.5,0,1,0,1.4
			c-2,0.5-3.7,1-5.5,1.5C525.5,1080,519.1,1080,512.6,1080z"/>
		<path class="st0" d="M1129.2,1080c-1.2-2.9-2.5-5.8-3.7-8.7c-0.1-1.6-0.2-3.1-0.3-5.9c9.6,0.7,18.8,1.4,27.9,2
			c2.6,4.2,5.1,8.3,7.7,12.5C1150.2,1080,1139.7,1080,1129.2,1080z"/>
		<path class="st0" d="M703.2,1080c3-4.1,6.1-8.2,9.1-12.3c8.7-5.5,17.9-4.1,27.1-3.8c1,9.1,1,9-5.7,9.2c-6.3,0.2-12.9-1.1-18.4,4.4
			c-0.3,0.8-0.6,1.6-0.9,2.5C710.7,1080,706.9,1080,703.2,1080z"/>
		<path class="st0" d="M763.9,1065c4.6,5,9.1,10,13.7,15c-3.4,0-6.8,0-10.2,0c-7.4-9.6-17.4-5.8-26.4-7.4c0-3.1,0-5.7,0-9.5
			C748.8,1063.8,756.4,1064.4,763.9,1065z"/>
		<path class="st0" d="M1160.8,1080c-2.6-4.2-5.1-8.3-7.7-12.5c-3.2-0.9-6.4-1.9-9.6-2.5c-3.7-0.7-7.5-0.9-11.2-1.4
			c0.9-1.6,1.8-4.5,2.6-4.5c7.6,0.3,15.6-3.9,22.6,3.1c4.7,4.7,8.9,9.7,9.5,17.8C1164.8,1080,1162.8,1080,1160.8,1080z"/>
		<path class="st0" d="M714.4,1080c0.3-0.8,0.6-1.6,0.9-2.5c2.9-1,5.8-2.7,8.7-2.8c10.8-0.3,21.7-0.4,32.5,0.2c3,0.2,5.9,3.3,8.8,5
			C748.4,1080,731.4,1080,714.4,1080z"/>
		<path class="st0" d="M908,1080c0.8-1.7,1.5-3.4,2.3-5.1c0.9-0.4,1.8-0.8,2.8-1.2c1.9-0.7,3.8-1.3,5.7-2c7.4-2.4,16.1,1.2,19.8,8.2
			C928.4,1080,918.2,1080,908,1080z"/>
		<path d="M765.4,1080c-2.9-1.7-5.8-4.8-8.8-5c-10.8-0.7-21.7-0.5-32.5-0.2c-2.9,0.1-5.8,1.8-8.7,2.8c5.5-5.5,12.1-4.3,18.4-4.4
			c6.7-0.2,6.7-0.1,5.7-9.2c-9.1-0.3-18.4-1.8-27.1,3.8c3.6-1.7,7.2-4.8,10.9-5c11.1-0.7,22.3-0.4,33.5-0.1c2.4,0.1,4.8,1.5,7.3,2.3
			c-7.5-0.6-15.1-1.2-22.9-1.8c0,3.7,0,6.4,0,9.5c9,1.5,19-2.2,26.4,7.4C766.7,1080,766,1080,765.4,1080z"/>
		<path d="M960,1080c1-4.3,1.6-8.9,3.2-12.9c0.7-1.8,3.6-3.3,5.3-3c1.3,0.2,3,3.2,3.4,5.3c0.6,3.4,0.3,7,0.3,10.6
			C968.2,1080,964.1,1080,960,1080z"/>
		<path d="M938.6,1080c-3.7-7-12.4-10.7-19.8-8.2c-1.9,0.6-3.8,1.3-5.7,2c7.5-6.2,15.2-4,22.8,0c1.7-10.7,0.1-13.5-6.5-12.5
			c5-3,7.9-0.8,8,6.5c0,4.7,0.3,8.9,3.3,12.2C940,1080,939.3,1080,938.6,1080z"/>
		<path d="M532,1080c1.7-0.5,3.5-0.9,5.5-1.5c0-0.3-0.1-0.9,0-1.4c0.4-2,0.9-3.9,1.4-5.8c1.3,0.7,3,1,3.7,2.2
			c1.4,2.5,0.7,4.7-1.9,5.5c-0.2,0.1-0.3,0.6-0.5,1C537.4,1080,534.7,1080,532,1080z"/>
		<path class="st0" d="M1353.4,1080c-5.4,0-10.9,0-16.3,0C1342.3,1074.5,1348,1074.5,1353.4,1080z"/>
		<path d="M1353.4,1080c-5.4-5.5-11.1-5.5-16.3,0c-0.7,0-1.4,0-2,0c7.2-7.2,13.1-7.2,20.4,0C1354.7,1080,1354.1,1080,1353.4,1080z"
			/>
		<path d="M1306.5,1080c0.7,0,1.4,0,2,0C1307.9,1080,1307.2,1080,1306.5,1080z"/>
		<path d="M1382.9,1080c0.7,0,1.4,0,2,0C1384.3,1080,1383.6,1080,1382.9,1080z"/>
		<path class="st0" d="M1151.9,797.5c7.6,19.7,3.2,40.4-10.5,50.1c-11.1,6.9-22,6.3-32.8-1.3c-14.8-12.1-18.2-45.8,1.1-61.2
			c8.1-5.2,16.7-6.9,25.7-4l-0.2-0.1C1140.8,786.5,1146.3,792,1151.9,797.5z"/>
		<path d="M753.1,835.1c-3.1,1.2-6.2,3.4-9.3,3.5c-9.4,0.5-18.9,0.4-28.3,0.1c-10.3-0.3-17.7-9.5-17.6-21.5
			c0.1-12.2,7.6-21,18.2-21.2c8-0.1,16,0.1,23.9,0c1.6,0,3.2-1.2,4.8-1.8c-1-1.6-2.1-3.2-3.1-4.9c-0.4-0.6-0.6-1.4-0.9-2.2
			c2,0.9,4.1,1.8,6.1,2.7c-2.8,4.6-0.4,6.4,2.8,7.7c-6.2,0-12.4,0-18.9,0c0,13.4,0,26.4,0,41.1C738.6,837.4,745.8,836.2,753.1,835.1
			z"/>
		<path d="M451.4,87.5c8-2.1,8.4-1.8,9.7,7.6c0.8,5.6,1.6,11.1,2.4,16.7c0,0.3,0.4,0.6,0.9,1.3c1.1-4,1.8-7.9,3.2-11.4
			c0.7-1.8,2.7-3.8,4.1-3.8c1.4,0,3.4,2,4.1,3.7c1.4,3.5,2.1,7.4,4.1,11c0.8-5.8,1.6-11.7,2.4-17.5c1.3-9.3,1.7-9.7,10.3-7.3
			c-0.7,5.2-1.4,10.5-2.2,15.8c-1.1,8-2.1,16.1-3.3,24.1c-0.4,2.9,0,6.4-3.9,6.7c-3.8,0.3-6-1.1-7-5.9c-1-4.7-2.6-9.3-5.1-13.9
			c-1.6,5.4-3.2,10.7-4.6,16.2c-1.1,4.2-3.8,3.9-6.2,3.3c-1.4-0.4-3.2-2.4-3.5-4c-2.1-13.3-3.8-26.8-5.6-40.2
			C451.2,89.1,451.4,88.2,451.4,87.5z"/>
		<path class="st0" d="M936.5,547.2c-3.9-8.5-8-16.9-11.7-25.5c-6.2-14.1-4.5-18.9,7.6-24c-0.4,2.2-0.9,4.4-1.3,6.7
			c-0.2,0.1-0.4,0.3-0.5,0.5c-4.3,3.4-3.8,7.7-1.6,12.4c3.8,8.3,7.6,16.7,11.5,25c1.3,5,3,9.4,8.5,7.9c1-0.3,2.4,1,3.5,1.9
			c4.3,3.7,8.4,7.6,12.8,11.2c3.6,2.9,5,1.9,5.3-3.5c0-1,0.1-2.1,0-3.1c-0.6-5.3,1.3-7.3,5.4-6.7c1.3,0.2,2.7,0.2,4.1,0
			c3.6-0.5,5,1.4,4.5,5.8c-2.3,10.2-7.3,17.5-15.8,20c-8.7,2.5-16.2-0.8-22.1-9.3c-1.5-2.2-3.2-4.3-4.8-6.4
			c-0.9-2.9-1.8-5.8-2.6-8.7C938.2,549.9,937.4,548.5,936.5,547.2z"/>
		<path class="st0" d="M753.1,835.1c-7.3,1.2-14.5,2.3-22.2,3.5c0-14.7,0-27.7,0-41.1c6.4,0,12.7,0,18.9,0
			c7.2,3.4,11.4,9.8,11.8,19.1C761.8,824.6,759.1,831.2,753.1,835.1z M754,824c0.2-1.2,0.4-2.4,0.6-3.6c-2.4-1.2-4.7-2.4-7.1-3.6
			c-0.3,2.2-0.6,4.4-0.9,6.6C749,823.6,751.5,823.8,754,824z"/>
		<path d="M576.8,797.4c1.7,2.3,3.4,4.5,5.2,6.8c-0.3,0.6-0.7,1.2-1,1.8c-4,0-8,0-12.4,0c0,17.6,0,34.7,0,52.3
			c-11.5,0-22.6,0-34.4,0c0-6,0-12.3,0-19.5c-5.9,0-11.1-0.1-16.3,0c-6,0.1-11.9-6.5-12.2-14.1c-0.3-5.9,5.6-13.2,11.3-13.5
			c5.4-0.3,10.8-0.1,15.8-0.1c1.3-4.2,2.3-7.7,3.4-11.2l-0.1-0.2c-0.4,3.5-0.9,7.1-1.3,10c9.6,2,18.4,3.9,27.2,5.8
			c-2,0.5-4,0.4-5.9,0.7c-0.4,0.1-0.7,1.9-1,2.9c-1.4-1.5-2.7-3-4.2-4.3c-4.1-3.6-8.2-3.3-12.1,0.4c-3.7,3.5-4.8,9.3-2.9,14.5
			c2.7,7.4,8.1,9.2,15.7,5.2c-4.4,6.7-10.9,2.5-16.2,4.2c0,6.2,0,12.2,0,18.5c9.3,0,18.3-0.2,27.2,0.1c3.9,0.1,5.3-1.1,5.2-6.2
			c-0.3-14.6-0.2-29.2,0-43.8c0-2.6,1.3-5.2,2-7.8l-0.1-0.1c-0.3,1.5-0.5,3.1-0.8,4.6c3.9,0,7.4,0,12.1,0c-1.7-3-2.9-5.1-4.1-7.1
			L576.8,797.4z"/>
		<path d="M931.1,504.4c0.4-2.2,0.9-4.4,1.3-6.7c6.1,0.1,12.3,0.8,18.4,0.2c4.7-0.4,8.3,1,11.1,5.6c2.8,4.8,2.5,9.8,0.2,14.7
			c-4.6,9.9-9.3,19.8-13.4,31c1.4-0.8,2.9-1.2,4.2-2.3c3.9-3.3,7.6-7,11.5-10.2c1.3-1.1,3.4-2.1,4.5-1.5c0.9,0.5,1.4,3.4,1.5,5.3
			c0.3,2.6,0.1,5.3,0.1,8.6c5.3,0,9.9,0,15.3,0c-0.6,2.8-1,4.7-1.3,6.7c0.5-4.3-0.9-6.2-4.5-5.8c-1.3,0.2-2.7,0.2-4.1,0
			c-4.1-0.6-6.1,1.4-5.4,6.7c0.1,1,0.1,2.1,0,3.1c-0.3,5.4-1.7,6.5-5.3,3.5c-4.4-3.6-8.5-7.5-12.8-11.2c-1-0.9-2.5-2.2-3.5-1.9
			c-5.5,1.5-7.1-2.9-8.5-7.9c1-0.2,2.6,0,3-0.8c4.5-9.1,8.9-18.1,13-27.5c0.9-2-0.1-5.2-0.2-9.4c-4.1,3.8-6.7,6.3-9.1,8.6
			c0.1,0.6,0.1,0.8,0.1,1c0.1,2.2,0.2,4.3,0.3,6.5c-1.4-1.2-2.6-2.6-4.1-3.4c-1.3-0.6-2.8-0.6-4.2-0.4c-0.7,0.1-1.4,1-2.7,2.2
			c0.5-3.1,0.8-5,1.1-7c5.9,0.7,11.5,0.2,14.8-7.9c-2.2-0.3-4.5-0.2-6.4,0.8c-1.7,1-3.2,4.6-4.4,4.3c-1.8-0.4-3.3-3.2-5.9-6
			C935,503.6,933.1,504,931.1,504.4z M948.7,502c-4.6-4.4-9-4.5-14.1,0C939.8,502,944.2,502,948.7,502z"/>
		<path d="M1135.2,509.7c1.1-0.3,2.2-0.7,3.3-1c2.4,5.9,4.7,11.7,6.9,17.2c2.9,0,6.5,0,10.6,0c0-5.2,0-11.4,0-17.6c0.3,0,0.7,0,1,0
			c0,6.9,0,13.7,0,20.7c2.7-0.6,5.2-2.1,7-1.2c1.8,0.8,2.9,3.9,5,7c3.2,0,7.6,0,12.2,0c-0.5,6.1-3.8,6.1-6.6,4.8
			c-3.8-1.7-6.1-2.8-8.1,3.4c-1.6,4.9-5.5,3.6-8.8,0.5c-0.2,2-0.4,3.8-0.8,6.8c-0.6-2.1-0.9-3.2-1.6-5.7c-1.8,2.8-4,4.7-4.6,7.3
			c-1.6,7.4-5.2,12.4-10.4,16c0.8-2.5,1.4-4.3-1-6.7c-3.7-3.5-6.9-8-10.1-12.3c-2.2-2.8-3.1-6.1-0.5-9.3c2.7-3.3,5.2-1.7,7.5,1
			c2.2,2.6,4.4,5.2,7.2,8.5c0-6.7-0.4-12,0.1-17.1C1144.3,522.3,1141.9,514.8,1135.2,509.7z"/>
		<path class="st0" d="M498.4,539.1c2.3-9.6,6.4-17.6,13.6-22.7c1.9,4.2,3.9,8.4,5.5,12.8c0.9,2.4,1,5.2,1.4,7.8
			c-2.8,2.6-5.7,5.3-9.9,9.1c0.7,4.7,1.7,11.2,2.7,17.7c0,0-0.2-0.2-0.2-0.2c2.1,0.9,4.2,2.4,6.3,2.5c7.9,0.3,15.9,0.1,23.9,0.1
			c0,3,0,5.3,0,8.2c-10.5,0-20.7,0.3-30.9-0.1c-3.5-0.1-7-2-10.5-3.1c0,0,0.2,0.2,0.2,0.2c-0.7-4.2-1.8-8.3-2-12.5
			C498.1,552.4,498.4,545.7,498.4,539.1z"/>
		<path d="M564.3,133.4c0.3-1.6,0.5-3.2,0.9-4.7c3.6-12.4,7.5-24.7,10.9-37.2c1.3-4.8,3.8-5,7-5c3.2,0,5.7,0.1,7,5
			c3.6,13.3,7.6,26.4,11.5,39.6c0.2,0.6,0.1,1.2,0.2,1.8c-6.2,2.6-7.6,1.9-10.4-4.2c-0.7-1.4-2.4-2.8-3.7-3c-3-0.4-6.1-0.4-9.1,0
			c-1.3,0.1-2.9,1.1-3.6,2.4C571.6,134.8,571.7,134.9,564.3,133.4z M588.4,116.1c-1.7-5.9-3.3-11.2-4.8-16.5c-0.4,0-0.7,0-1.1,0
			c-1.5,5.3-3,10.7-4.7,16.5C581.6,116.1,584.6,116.1,588.4,116.1z"/>
		<path d="M803.3,102.7c0.6-8.8,3.6-13.6,9.2-15.9c6.2-2.5,14.1-0.3,17.5,4.8c3.7,5.7,3.1,13.9-1.7,19.8c-3.1,3.8-6.5,7.3-10.8,12.2
			c5.9,0,10.5,0,14.8,0c1.8,9.8,1.5,10.3-5.5,10.3c-7.5,0-14.9,0-22.4-0.1c-0.3,0-0.7-0.2-1.2-0.3c-1.6-4.2-1.1-7.9,2-11
			c3.8-3.9,7.5-7.8,11.2-11.8c1.9-2.1,4.1-4.2,5-6.9c0.7-2.1,0.1-6.4-1.1-7.3c-1.4-1-5.6-0.1-6,1.2
			C811.9,105.1,807.5,102.2,803.3,102.7z"/>
		<path class="st0" d="M1312.6,558c1.7-4.3,3.3-8.5,5-12.8c1.1-1.2,2.1-2.5,3.5-4c3.7,5.5,10.6,5.3,12.9,12.7
			c2.6,0.6,5.8,2.5,7.6,1.3c1.9-1.2,3.7-5.9,3.2-8.5c-0.9-5-4.7-6.5-8.8-5.6c-1.9-2.1-3.8-4.1-5.6-6.2c0.3-0.8,0.6-1.7,1-2.5
			c3.7-0.4,7.5-1,11.2-1.1c0.8,0,1.9,1.4,2.3,2.5c3,9,6,10.2,12.9,5.3c1.8,1.6,3.6,3.1,5.3,4.7c0.1,0.3,0.3,0.5,0.4,0.8
			c-0.9,1.3-1.7,2.9-2.8,3.9c-2.4,2-4.9,3.7-7.4,5.6c-0.3,1.6-0.6,3.1-1,4.7c1.7,1.8,3.4,3.7,5.4,5.9c-15.2,0-30,0-45.1,0
			C1312.6,562.1,1312.6,560,1312.6,558z"/>
		<path class="st0" d="M1135.2,509.7c6.7,5.2,9.1,12.6,8.3,22.2c-0.4,5.2-0.1,10.4-0.1,17.1c-2.8-3.3-5-5.9-7.2-8.5
			c-2.3-2.7-4.8-4.3-7.5-1c-2.6,3.2-1.7,6.5,0.5,9.3c3.3,4.2,6.4,8.7,10.1,12.3c2.4,2.3,1.8,4.2,1,6.7c-5.4,3.6-10.7,7.3-16.1,10.9
			c-1.1,0-2.1,0-3.2,0c-0.1-0.7-0.3-1.4-0.4-2.1c-0.8-3.3-4.4-5.9-2.1-10.3c1.7,1.3,3.2,2.5,4.7,3.6c2.9,2.5,5.8,3.9,8.4-0.3
			c2.5-4.1,0.5-7.1-2-10.1c-3.6-4.3-7-8.9-10.5-13.3c-0.1-10.6-1.9-21.4,2.1-31.6C1125.1,510,1129.6,507.7,1135.2,509.7z
			 M1123.2,524.8c8.2,6.2,10.5,6.1,15.5-0.9c-0.9-1.3-1.8-2.7-2.8-4.1c-4.7-3.1-8.9-1.8-12.7,2.2
			C1122.8,522.4,1123.1,523.9,1123.2,524.8z"/>
		<path d="M844.9,112.9c-1.9-9.3,5.8-10.2,8.3-16.5c-4.4,0-8.6,0.3-12.7-0.2c-1-0.1-2.6-2.8-2.6-4.4c0-1.7,1.4-4.8,2.2-4.9
			c8.2-0.4,16.5-0.2,24.6-0.2c0.9,7,0.9,7-7.8,18.8c0.4,0.3,0.6,0.8,1,0.9c6.9,2.6,9.6,6.3,9.5,13.2c0,6.7-3.7,12.9-9.8,13.9
			c-5,0.8-10.4,0.1-15.4-1.4c-3.8-1.1-6.5-5.2-6.5-11.2c4-0.5,7.5-1.9,11.2,2.4c1.6,1.8,5.6,1,8.4,0.4c1-0.2,2.1-3.7,1.9-5.6
			c-0.1-1.5-1.9-3.5-3.2-3.9C851.2,113.2,848.1,113.2,844.9,112.9z"/>
		<path d="M913.2,853.4c0-24.1,0-47.8,0-71.9c19.5,0,38.9,0,58.9,0c0,8.6,0,17,0,26.8c2.9-2,4.8-3.4,6.7-4.7
			c0.1,0.3,0.3,0.5,0.4,0.8c-2.2,1.7-4.4,3.4-7.3,5.6c0,13.8,0,28.4,0,43.4C952.3,853.4,933,853.4,913.2,853.4z M957.1,822.3
			c-0.7,1.1-1.3,2.2-2.1,3.4c1,0.4,1.7,0.7,2.7,1.2c-6.6,1.5-4.9,3.4-0.2,5.2c-0.9,0.3-1.7,0.6-3.1,1.1c5.6,5.3,11,2.6,16.4,2.9
			c0-4.9,0-9,0-13.5c-4.9,0-9.4,0-13.9,0c4.6-0.7,9.1-1.4,13.8-2.1c0-12.7,0-25.3,0-37.8c-5.5-1.4-9.1-0.5-11.6,6.4
			c-2.9,8.1-6.6,7.6-10.4-0.2c-0.7-1.4-1.2-3-1.9-4.4c-1.7-3.3-6.3-3.3-8-0.1c-0.8,1.6-1.4,3.3-2.2,4.9c-4,7.5-7,7.8-10.1-0.1
			c-2.8-7.1-6.6-8.4-12.3-6.4c0,12.6,0,25.2,0,37.6c5.8,2.5,12.6-2.7,17.6,5c-1.5,0.6-2.5,0.9-3.7,1.4c1.6,0.6,2.9,1,4.2,1.5
			c0,0.5,0.1,1,0.1,1.5c-1.4,0.8-2.8,1.5-4.3,2.3c1,0.3,1.7,0.6,2.5,0.9c0,0.7,0,1.5,0,2.2c-5.5,0.5-11,1.1-16.4,1.6
			c0,5.4,0,10.5,0,15.4c19,0,37.6,0,56.3,0c0-5.1,0-9.7,0-14.8c-4.2,0-8.1,0.9-11.6-0.3c-2.4-0.8-5.1-4-6.1-6.9
			C952,826.8,953.5,823.2,957.1,822.3z"/>
		<path d="M707.7,134.4c0-16.7,0-32,0-47.8c2.9,0,5.5,0,8.7,0c0,4.8,0,9.5,0,14.9c1.9-1,3.1-1.8,4.3-2.3c7.4-2.9,13.9,1.7,15.1,11.2
			c0.5,3.7,0.5,7.5,0.1,11.2c-1.1,11.1-8.4,15.9-16.8,11.5c-1-0.5-2.4,0-3.7,0.1C713.2,133.5,710.7,134,707.7,134.4z M727,116.8
			c0-4.9-0.3-9.4-4.9-9.6c-4.8-0.2-5.6,4.2-5.5,9c0.1,4.5,0,9.2,5.2,9.2C727.1,125.6,726.7,120.7,727,116.8z"/>
		<path d="M534.7,101.1c2.7-1,4.6-2.1,6.5-2.4c2-0.3,4.1-0.2,6,0.5c6.6,2.6,9.7,16.1,6.2,26.8c-2.6,8-9.1,10.7-16.1,7
			c-1-0.5-2.3,0.2-3.5,0.3c-2.4,0.3-4.9,0.6-7.7,1c0-16.3,0-31.8,0-47.7c2.8,0,5.5,0,8.6,0C534.7,91.3,534.7,95.8,534.7,101.1z
			 M545.3,116.3c-0.1-4.5-0.5-9-5.1-9c-4.9,0-5.4,4.5-5.3,9.2c0.1,4.6,0.2,9.1,5.3,9C545.5,125.4,545,120.4,545.3,116.3z"/>
		<path d="M902.1,97.8c3.3,1.4,5.9,2.6,8.5,3.4c0.8,0.2,1.8-0.5,2.6-0.9c8.7-5.1,16.3,0.1,17.2,11.9c0.1,1,0.1,2.1,0.1,3.1
			c0.2,17.1-6.5,22.9-19.8,16.3c0,5,0,9.7,0,14.8c-3.1,0-5.8,0-8.7,0C902.1,130.7,902.1,115.4,902.1,97.8z M921.3,116.7
			c-0.1-4.8-0.4-9.1-5-9.5c-3.8-0.4-5.5,2.8-5.4,9.7c0,4.5,0.4,8.6,5.2,8.6C921.4,125.6,921.1,120.7,921.3,116.7z"/>
		<path d="M943.4,131.2c0,5.3,0,10.1,0,15.2c-3.1,0-5.7,0-8.7,0c0-15.6,0-30.9,0-47.5c3.1,0.4,6.1,0.8,9,1.2
			c7.5-3,13.3-2.4,16.8,3.4c4,6.6,3.8,21.7-0.7,27.2C954.9,136.6,949.5,135.2,943.4,131.2z M943.5,114.9c0.1,5.7-0.2,10.5,5,10.6
			c5.3,0.2,5.3-4.5,5.3-9c0.1-4.6-0.3-9.3-5.3-9.2C944.1,107.3,943.4,111.6,943.5,114.9z"/>
		<path d="M613.1,131.5c0,5.2,0,9.7,0,14.7c-3.1,0-5.7,0-8.7,0c0-15.4,0-30.9,0-47.6c3.2,0.5,6.1,1,9,1.4c7.2-3.3,13.6-2.5,17,3.8
			c3.9,7.2,3,22.4-1.8,27.6C625.2,135.3,620.5,135.5,613.1,131.5z M613.2,116.6c-0.1,4.7,0.4,9,5.5,8.9c4.9-0.2,4.8-4.7,4.9-8.9
			c0.1-4.6-0.3-9.4-5.2-9.3C613.4,107.3,613.1,112,613.2,116.6z"/>
		<path d="M645.7,131.4c0,5.3,0,10,0,15c-3.2,0-5.8,0-8.8,0c-0.1-1.5-0.3-2.7-0.3-3.9c0-14.2,0-28.4,0-43.8c3.4,0.5,6.3,0.9,9.2,1.4
			c7.6-3.2,13.7-2.5,17.1,3.6c3.9,6.8,3.4,21.8-1.1,27.1C657.1,136.5,651.7,135.1,645.7,131.4z M656.2,117c0-5.1-0.4-9.8-5.3-9.7
			c-4.9,0.1-5.1,4.9-5.1,9.5c0,4.4,0.2,8.6,5,8.8C656.1,125.7,656,120.9,656.2,117z"/>
		<path class="st0" d="M548.4,504.1c12.3,1.6,20.7,10.3,26.8,22.9c0.9,1.9,1.2,4.3,1.7,6.5c-0.9,0.8-1.7,2.3-2.6,2.3
			c-5.5,0.2-11.1,0.1-15.8,0.1c0.7,0.2,2.4,0.8,4.1,0.9c3.7,0.2,7.4,0.2,11.1,0c2.8-0.2,3.7,1.3,3.2,4.4c-0.3,0.3-0.5,0.6-0.8,1
			c-11,0-22.1,0-33.5,0c0-12.2,0-23.8,0-35.5c0-1,0.2-2,0.4-3.6C544.8,503.5,546.6,503.8,548.4,504.1z M564.7,523.5
			c5.2-6.9-2.1-5.8-3.5-8.4c-5.5-3.5-10-1.2-14,3.7c-1.1,5.5,3,5.3,5.2,7.2C556.9,528.8,561,527.9,564.7,523.5z"/>
		<path d="M548.4,504.1c-1.8-0.3-3.5-0.6-5.5-0.9c-0.2,1.6-0.4,2.6-0.4,3.6c0,11.6,0,23.3,0,35.5c11.5,0,22.5,0,33.5,0
			c-2.2,0.7-4.4,1.8-6.6,1.9c-7.3,0.2-14.6,0-21.9,0.2c-1.5,0-3,1.4-4.5,2.2c1.3,0.7,2.6,1.8,4,2.1c3.7,0.8,4.8,1.9,5.8,7.3
			c-3.5,0-7,0-10.8,0c-0.2-3.7-0.4-7.2-0.6-11.6c-6.2,0-12.2-0.1-18.3,0.1c-0.8,0-1.6,1.5-2.4,2.2c0.8,0.7,1.7,1.9,2.5,2
			c3.9,0.2,7,1.2,7.6,7.3c-3.7,0-7.2,0-10.6,0c-0.6-3.9-0.6-8-2.2-11c-0.7-1.4-4.4-0.5-7.8-0.7c0.5,7,1,13.3,1.5,19.6
			c-1-6.5-2-13-2.7-17.7c4.2-3.9,7-6.5,9.9-9.1c-0.6,1.8-1.2,3.6-2.1,6c2.8,0,5.2-0.2,7.5,0.1c4.7,0.6,7.8-1.9,9.7-7
			c2-5.2-0.9-8.5-3.2-12.1c-2.6-3.9-4.8-8.1-7.7-13c-1.1,0.3-3.3,1-5.6,1.7c5.9-1.9,11.9-3.7,17.8-5.7c2.3-0.8,5.8,1.5,6.3-3.8
			C543.8,503.4,546.1,503.8,548.4,504.1z"/>
		<path d="M1341,782.2c1.3,3.7,2.5,7.4,4.2,12.1c-3.9,0.3-6.2,0.5-8.9,0.8c0,2.6,0,5.2,0,8.2c1.4,0.2,2.8,0.5,4.8,0.8
			c-0.3,2,0,4.4-0.8,5.4c-3.9,5-4,11.1-4.9,17.5c-0.8,5.9,0.5,9.1,3,11c4.2-0.3,7.2-0.5,10.3-0.6c0.2,0.8,0.4,1.6,0.6,2.4
			c-2.8,3.1-5.5,6.3-8.3,9.4c1.2-7.9-3.8-10.7-7.7-14.4c0.8-9.8,1.6-19.5,2.3-29.3c-7.6,0-13.8,0-19.9,0c0,8,0,15.5,0,23.2
			c8.7-0.2,6.2,8.3,7.6,16c3.8-3.8,7-6.9,10.1-10c-1.1,2.2-2.2,4.5-3.4,6.9c3.3,3.8,5.5,9.6,11.2,7.5c-4.3,4.2-6.6-0.4-9.1-3.3
			c-3.7-4.2-5.5-4.1-9.1,0.5c2.5,2.4,5,4.9,7.5,7.4c-0.3,0.9-0.6,1.9-0.9,2.8c-4.4-0.4-8.9-0.9-13.3-1.3c3.5,0.6,5-1.8,5.2-5.6
			c0.3-4.3,0.3-8.7,0.2-13c-0.2-6.2-2.5-7.6-7.2-4.5c0-3.7,0-7.5,0-12c-2.5,0.4-4.5,0.7-6.4,1.1c0-0.9,0-2.1,0-3.3
			c1.7,0.4,3.7,0.8,6.4,1.3c0-7.9,0-15.2,0-22.4c0-7.4,2.6-13.2,7.9-16.1c5.7-3.1,11.8-3.3,17.7,0.1c0.5,0.3,0.8,1.3,1.1,1.9
			c-1.6-0.8-3.2-1.6-4.9-2.5c0,4.9,0,9.2,0,13.3c2.4,0,4.3,0,7.4,0C1342.7,789.1,1341.9,785.6,1341,782.2z M1332.1,794.8
			c-6.2-5.9-9.8-5.8-14.5,0.3C1322.9,801.1,1326.6,801.1,1332.1,794.8z"/>
		<path class="st0" d="M939.1,551.2c0.9,2.9,1.8,5.8,2.6,8.7c-2,3.3-3.7,7.1-6.1,9.8c-10.5,11.6-24.6,8.4-33.3-7.2
			c-0.9-3.9-1.8-7.8-2.7-11.9c1.7-0.4,2.5-0.7,3.3-0.7c3.3,0.2,7.2-0.6,9.8,1.1c1.4,0.9,0.9,6.4,1.2,9.8c0.4,4.9,2.3,4.9,5.1,2.5
			c3.8-3.4,8-6.3,11.5-10.2C933.3,550.1,935.8,549.5,939.1,551.2z"/>
		<path d="M886.6,132.7c-2.2,0.4-5.6,1.6-9,1.4c-4.1-0.2-7-3.3-7.7-8.5c-0.7-5.4,1.7-8.9,5.6-10.5c4.1-1.7,8.4-2.7,12.7-4
			c-1.1-5.7-3.1-6.8-6.7-4.7c-2.8,1.6-6,2.4-9.2,3.7c-0.2-2.1-0.5-2.8-0.3-3.3c2.3-6.7,7.9-9.5,16-8c5.9,1.1,9.1,5,9.4,12.5
			c0.3,7.3,0.1,14.6,0.1,23.1C893.9,133.9,891,133.4,886.6,132.7z M889.1,117.9c-3.1,0.6-4.7,0.5-6,1.3c-1.7,1-3.1,2.5-4.5,4.1
			c-0.2,0.2,1,3.1,1.6,3.1c2,0.1,4.4,0.1,6-1.1C887.6,124.2,887.9,121.2,889.1,117.9z"/>
		<path d="M521.5,119.1c-5.8,0-11.7,0-17.5,0c-0.5,6.6,2.1,9.4,6.2,7.6c3.3-1.5,6.8-2.4,10.6-3.7c-0.6,8.5-6.4,12.5-14.8,11.4
			c-8.7-1.1-13.1-8.6-12-20.6c1-10.9,7-16.5,16.5-15.2C518.5,99.8,522.8,107.4,521.5,119.1z M512.5,112.5c0.2-4.5-1.4-7.1-4.6-7
			c-3.2,0.1-4.7,2.7-4.3,7C506.4,112.5,509.3,112.5,512.5,112.5z"/>
		<path d="M500.3,571.1c3.5,1.1,7,2.9,10.5,3.1c10.2,0.4,20.3,0.1,30.9,0.1c0-2.8,0-5.2,0-8.2c-8,0-16,0.2-23.9-0.1
			c-2.1-0.1-4.2-1.6-6.3-2.5c2.1,0.4,4.3,1.3,6.4,1.3c14.9,0.1,29.8,0.2,44.7-0.1c1.7,0,4.6-1.8,4.8-3c0.5-4.5-2.8-2.8-4.7-3.1
			c-1.2-0.2-2.4,0-3.9,0c0.3-5.2,2.6-7.7,6.2-8.5c4-1,8.8,2.3,10.4,6.9c3.1,8.9-1.1,18.3-8.9,18.4c-19.6,0.4-39.3,0.2-58.9-0.2
			C505.1,575.3,502.7,572.6,500.3,571.1z"/>
		<path d="M752.7,118.9c1.5-4.4,3.2-8.4,4.1-12.6c1.5-6.9,4.7-9,10.8-6.6c-0.7,2.3-1.4,4.5-2.1,6.7c-3.8,10.9-7.7,21.9-11.5,32.8
			c-2.8,8-2.8,8-10.4,6.9c0.2-1.2,0.1-2.5,0.5-3.4c4.1-7.8,2.8-15.1-0.4-22.8c-2.6-6.4-4.6-13.3-6.9-20.1c8.1-1.9,8.1-1.9,10.8,6.3
			c1.3,3.9,2.5,7.8,3.8,11.6C751.5,118.1,751.9,118.2,752.7,118.9z"/>
		<path d="M966.6,123.4c3.1,1,6.2,2,9.2,2.9c1.4,0.4,3,1.2,4.4,1c0.9-0.1,2.2-1.6,2.4-2.6c0.1-0.9-0.9-2.7-1.8-3.2
			c-2.5-1.2-5.2-1.7-7.8-2.8c-3.6-1.5-6.5-4.1-6.5-9.3c-0.1-5.4,2.8-8.4,6.5-10.1c7.6-3.5,15.6,0.2,18.5,9.7
			c-3.4-0.7-6.2-1.2-8.9-1.9c-1.6-0.4-3.2-1.5-4.7-1.6c-0.8,0-1.9,1.6-2.3,2.7c-0.2,0.6,0.8,2.4,1.6,2.7c2.5,1.1,5.2,1.8,7.8,2.6
			c4.3,1.4,7.5,4.3,7.4,10.3c-0.1,6.1-3.7,9.2-7.9,9.7c-4.4,0.5-9.1-0.1-13.4-1.3c-2.1-0.6-3.7-4-5.6-6.1
			C965.8,125.4,966.2,124.4,966.6,123.4z"/>
		<path d="M693.5,109.6c-3.8-1.1-6.6-2.1-9.4-2.8c-1.7-0.4-3.5-0.7-5.2-0.6c-0.4,0-1.3,2.7-1.1,2.9c1.4,1.3,2.9,2.6,4.6,3.4
			c2.7,1.2,5.7,1.6,8.2,3.2c4.5,2.9,5.3,9.9,2,14.4c-4.7,6.5-18.9,6-23.2-0.9c-0.7-1-0.9-2.5-2.1-6c4.4,1.2,7.4,2.1,10.5,2.9
			c1.5,0.4,2.9,1.4,4.3,1.2c1-0.2,2.2-1.7,2.7-2.9c0.2-0.5-1.1-2.6-2-3c-2.5-1.2-5.2-1.7-7.8-2.8c-3.6-1.5-6.4-4.2-6.3-9.4
			c0-5.1,2.7-8,6.2-9.7C682.4,95.8,691,99.6,693.5,109.6z"/>
		<path d="M788.6,100.1c-3.4,2.9-6,5.1-8.9,7.5c-1.5-2.3-2.8-4.4-4.6-7.3c6.6-4.7,10.4-14.1,19.2-13.8c2.9,0.1,3.9,1.3,3.8,4.8
			c-0.1,12.8-0.2,25.5,0,38.3c0.1,5-2.4,4.5-5,4.5c-2.6,0-4.7,0.1-4.6-4.4C788.8,120.4,788.6,110.9,788.6,100.1z"/>
		<path d="M750,570c-3-3.9-8.6-0.2-13.5-1.4c-6.2-1.6-8.9,4.4-13,8.1c1.6-2.3,3.2-4.6,5.2-7.5c-2.3-0.3-4.2-0.6-6-0.9
			c-0.8-9.9,4.4-18.3,13-20.8c2.9-0.9,5-1.4,3.4-6c-0.3-0.8,1.4-2.7,2.2-4.1c0.4,0.4,0.8,0.8,1.2,1.2c-0.7,2.5-1.4,4.9-1.7,6.1
			c4.6,3.7,8.8,6.4,12.3,10c3.2,3.3,5.1,7.8,3.7,13.4C755,568.6,753.1,569.2,750,570z M740.3,551.9c-3.1,1.6-7.1,3.6-11.5,5.9
			c7.9,9.9,14.8,9.8,21.4,0.7c-0.9-0.9-1.7-1.7-1.6-1.6c-2.4,1.6-4.2,2.7-6,3.9C742,558.4,741.4,556,740.3,551.9z"/>
		<path d="M1158.4,804.4c5.4-5.4,11-5,16.5-2.1c6,3.2,9.6,9,10.3,17.2c0.5,6.5-0.8,12.4-4.6,17.2c-2.3,3-4.2,3.1-6-0.6
			c-2.6-5.1-5.3-10.1-7.9-15.2C1164,815.6,1161.3,810.3,1158.4,804.4z M1180.6,822.5c1.1-9.5-1.3-13.7-8.1-15.1
			C1171.5,816.1,1173.5,820.1,1180.6,822.5z"/>
		<path class="st0" d="M517.6,512.6c2.3-0.7,4.5-1.4,5.6-1.7c2.9,4.9,5.1,9.1,7.7,13c2.4,3.6,5.2,6.9,3.2,12.1c-1.9,5.1-5,7.6-9.7,7
			c-2.3-0.3-4.7-0.1-7.5-0.1c0.8-2.4,1.4-4.2,2.1-6c-0.4-2.6-0.5-5.5-1.4-7.8c-1.6-4.4-3.7-8.5-5.5-12.8
			C513.8,515.1,515.7,513.9,517.6,512.6z"/>
		<path class="st0" d="M710.9,531c-9.8-7.8-12.2-21.6-5.1-31.1c1.1-1.5,3-2.2,4.6-3.3c1.9-0.4,3.7-0.8,5.8-1.2c0,12.4,0,23.9,0,35.6
			C714.1,531,712.5,531,710.9,531z"/>
		<path class="st0" d="M772.6,498.4c8.5,11.3,7.9,21.1-2.1,31.3c-2.2,0.6-4.5,1.2-7.1,1.9c0-12.4,0-24.1,0-37.1
			C766.8,496,769.7,497.2,772.6,498.4z"/>
		<path d="M939.1,551.2c-3.2-1.7-5.8-1.2-8.6,2c-3.4,3.9-7.6,6.8-11.5,10.2c-2.8,2.4-4.7,2.4-5.1-2.5c-0.3-3.4,0.2-8.9-1.2-9.8
			c-2.7-1.8-6.5-1-9.8-1.1c-0.8,0-1.6,0.3-3.3,0.7c0.9,4.2,1.8,8,2.7,11.9c-1.4-4-2.7-8-4.5-13.3c5.9,0,10.5,0,16.1,0
			c0-3.5-0.2-6.4,0.1-9.1c0.2-1.9,0.6-4.8,1.6-5.3c1.1-0.6,3.2,0.5,4.5,1.6c4,3.4,7.8,7.3,11.9,10.5c1.1,0.9,3.1,0.2,4.7,0.2
			C937.4,548.5,938.2,549.9,939.1,551.2z"/>
		<path class="st0" d="M1119,546.3c3.5,4.5,6.9,9,10.5,13.3c2.5,3,4.5,6,2,10.1c-2.6,4.2-5.5,2.8-8.4,0.3
			c-4.8-5.9-9.6-11.9-14.4-17.8c0-2.7,0-5.4,0-8.2C1112.8,540,1115.8,543.7,1119,546.3z"/>
		<path d="M1363.1,543.7c-1.8-1.5-3.5-3.1-5.3-4.7c-6.9,4.9-9.8,3.7-12.9-5.3c-0.4-1.1-1.5-2.5-2.3-2.5c-3.7,0.1-7.5,0.7-11.2,1.1
			c-0.3,0.8-0.6,1.7-1,2.5c1.9,2.1,3.8,4.1,5.6,6.2c0.6,1.7,1.3,3.3,1.9,5c-1.2,0.5-3.1,1.3-5.2,2.3c0.5,2,0.9,3.7,1.3,5.4
			c-2.4-7.3-9.3-7.2-12.9-12.7c-1.3,1.5-2.4,2.8-3.5,4c0.5-4.1,1.1-8.3,1.6-12.4c1.2-1,2.3-2.1,3.5-3.1c6.1,1.8,12.3,0.8,18.4,0.3
			C1350.5,529.3,1357.7,534.6,1363.1,543.7z"/>
		<path class="st0" d="M718.7,512.2c2.4-2.7,4.7-5.3,7.1-8c2.6-2.9,4.5-1.9,5.8,1.8c2.8,8.1,0.4,15-3.7,21.3
			c-3.3,1.6-6.5,3.2-11.4,5.6C717.4,524.5,718,518.3,718.7,512.2z"/>
		<path class="st0" d="M757.2,531c-7.6-5.4-10.6-12.7-8.9-22.9c0.3-2.1,1.4-4.3,2.8-5.6c0.5-0.5,2.7,1.5,4,2.6
			c1.8,1.5,3.4,3.3,5.1,5c1,6.7,1.9,13.5,3,20.8C760.1,531,758.7,531,757.2,531z"/>
		<path d="M499.9,387.2c-3.8,0.3-6.9,1.2-9.8,0.6c-2.1-0.5-5.4-2.7-5.7-4.7c-0.5-4.4-0.1-9.4,1.2-13.5c0.5-1.6,4.3-1.9,6.6-2.4
			c0.7-0.2,1.5,0.6,2.8,1.2c0.1-2.1,0-3.9,0.4-5.6c0.3-1.3,1.3-2.3,2-3.5c0.9,1.2,2.4,2.3,2.5,3.5C500,370.9,499.9,379,499.9,387.2z
			 M496.9,377.4c-2.3-2.6-3.8-4.3-5.3-6c-1.1,1.9-3.3,3.9-3.2,5.7c0.1,2.2,2.1,4.2,3.3,6.3C493.1,381.8,494.5,380.2,496.9,377.4z"/>
		<path class="st0" d="M929.4,1061.3c6.7-1,8.2,1.8,6.5,12.5c-7.6-4-15.2-6.2-22.8,0c-0.9,0.4-1.8,0.8-2.8,1.2
			c-0.1-2.7-0.3-5.4-0.2-8.1c0.3-6.1,2.2-7.4,6.9-5.3c0.7,0.3,1.5,0.6,2.3,0.6c2.6,0.1,5.3,0.2,7.9,0.2
			C928,1062.3,928.7,1061.7,929.4,1061.3z"/>
		<path d="M453.5,359.8c7.4,2.6,4.5,13.4,9,19.1c1.4-5.1,2.7-10.1,4.1-15.1c1.1-3.8,1.1-3.7,5.7-3.2c-2.2,8.4-4.3,16.6-6.7,24.8
			c-0.3,1.2-2.4,2.4-3.5,2.2c-1.3-0.2-3.2-1.6-3.6-3c-2.3-7.8-4.3-15.7-6.4-23.6C452.5,360.6,453,360.2,453.5,359.8z"/>
		<path d="M518.7,383.3c-3.1,4.7-7.7,6.1-11.5,3.5c-3.5-2.3-5-8.4-3.3-13.8c1.5-5.1,4.8-6.9,8.9-6.3c4.5,0.6,6.4,4.2,6.7,12
			c-3.6,0.2-7.2,0.4-10.7,0.6c-0.2,0.6-0.4,1.2-0.6,1.8c1.5,0.9,3.1,2.5,4.6,2.5c1.9,0,3.7-1.4,5.6-2.2
			C518.4,382.1,518.6,382.7,518.7,383.3z"/>
		<path class="st0" d="M1352.3,558.7c0.3-1.6,0.6-3.1,1-4.7c0.7,0.8,1.2,1.8,2,2.4c1.6,1.1,3.4,1.9,5.1,2.8c0.3-2.3,0.6-4.5,0.7-6.8
			c0-0.6-0.7-1.3-1.7-3c3,0,5.1,0,7.2,0c3,1.3,6.1,2.2,8.9,4.1c1,0.6,1,3.4,1.5,5.2C1368.8,565.7,1360.6,566.1,1352.3,558.7z"/>
		<path d="M539.1,377.4c0,7.1-2.6,10.6-8.2,10.6c-5.6,0-8.3-3.3-8.3-10.5c0-6.9,3-10.9,8.2-10.9C536,366.5,539.1,370.5,539.1,377.4z
			 M535.8,377.8c-2-3-3.2-6.2-4.7-6.5c-3.5-0.7-4,3.3-3.6,6.3c0.4,2.3,2.1,4.3,3.2,6.4C532.2,382.2,533.7,380.5,535.8,377.8z"/>
		<path d="M582.4,377.7c-0.1,7.1-2.8,10.4-8.5,10.3c-5.4-0.1-8.2-3.8-8.1-10.8c0.1-6.6,3.4-10.7,8.6-10.6
			C579.6,366.7,582.5,370.7,582.4,377.7z M579.3,377.3c-2.1-2.8-3.6-4.6-5-6.4c-1.2,2.1-3,4-3.4,6.3c-0.6,3.1,0,7,3.4,6.5
			C575.9,383.5,577.1,380.2,579.3,377.3z"/>
		<path d="M602,377.5c0,7.1-2.8,10.6-8.3,10.6c-5.5,0-8.3-3.6-8.3-10.6c0-6.6,3.3-10.8,8.4-10.8C598.9,366.5,602,370.6,602,377.5z
			 M598.8,377.5c-2.1-2.8-3.5-4.7-4.9-6.5c-1.2,2-3.5,4.1-3.4,6.1c0.1,2.4,2.1,4.6,3.3,6.9C595.2,382.2,596.6,380.3,598.8,377.5z"/>
		<path d="M559.8,387.2c-3.9,1.4-5.3,0.3-5.2-3.9c0.2-5.8,0-11.6,0-15.7c-2.8-2.4-4.7-3.9-6.6-5.5c2.2-0.7,4.4-1.7,6.6-2
			c2.7-0.4,5.4-0.3,8.1,0c1.2,0.1,2.3,1.4,3.5,2.2c-1.1,1-2.2,2.1-3.4,2.9c-0.7,0.4-1.7,0.2-3.1,0.3
			C559.8,372.7,559.8,379.9,559.8,387.2z"/>
		<path d="M1352.3,558.7c8.2,7.4,16.5,7.1,24.7,0c-2.9,2.1-5.6,5-8.8,6.1c-4.3,1.6-3,3-0.6,5.2c-0.8,1.9-1.6,3.9-2.5,6.2
			c-0.4-1.7-0.8-3.5-1.2-5.3c-0.5,0-1,0-1.5-0.1c-0.3,2.3-0.5,4.7-0.8,7c-3.6-5.1,1.2-7.3,3.1-11.2c-8.2,0-15.7,0-24.1,0
			c1.2,1.5,1.9,2.4,2.6,3.3c-0.8,1.9-1.6,3.9-2.5,6.2c-0.4-1.7-0.8-3.5-1.2-5.3c-0.5,0-1,0-1.5-0.1c-0.3,2.3-0.5,4.7-0.8,7
			c-3.6-5.1,1.2-7.3,3.1-11.2c-8.2,0-15.7,0-24.1,0c1.2,1.5,1.9,2.4,2.6,3.3c-0.8,1.9-1.6,3.9-2.5,6.2c-0.4-1.7-0.8-3.5-1.2-5.3
			c-0.5,0-1,0-1.5-0.1c-0.3,2.3-0.5,4.7-0.8,7c-3.2-5,0.5-7.3,3.2-10.5c-4.8-1.5-5.3-4.9-3.3-9.4c0,2.1,0,4.1,0,6.6
			c15.2,0,29.9,0,45.1,0C1355.7,562.3,1354,560.5,1352.3,558.7z"/>
		<path d="M624,381.8c-1.3-0.9-2.5-2.1-3.8-2.6c-3.4-1.2-6.9-2.3-5.6-8.1c0.8-3.9,5.7-5.7,9.6-3.8c1.4,0.7,2.6,2.1,4,3.1
			c-0.1,0.6-0.3,1.2-0.4,1.7c-2.9-0.4-5.8-0.9-8.7-1.3c-0.1,0.8-0.3,1.7-0.4,2.5c1.9,0.8,4.1,1.2,5.7,2.6c1.8,1.6,3,4.2,4.5,6.4
			c-1.8,1.8-3.5,4.6-5.5,5.2c-3.4,1-7.1,0.8-9.8-5.2c3.9,0.6,6.9,1,10,1.5C623.7,383.3,623.9,382.5,624,381.8z"/>
		<path class="st0" d="M1314.5,831.9c4.7-3,7-1.7,7.2,4.5c0.2,4.3,0.1,8.7-0.2,13c-0.2,3.8-1.8,6.2-5.2,5.6
			c-0.6-4.6-1.2-9.1-1.6-13.7C1314.4,838.1,1314.6,835,1314.5,831.9z"/>
		<path d="M608.7,388.5c-1-1.6-2.8-3-2.8-4.7c-0.3-6.9-0.3-13.8,0-20.7c0-1.3,1.5-2.6,2.2-3.9c0.8,1.3,2.2,2.5,2.3,3.8
			c0.2,7.9,0.1,15.9,0.1,23.8C609.9,387.4,609.3,388,608.7,388.5z"/>
		<path d="M771.9,839.7c0.3,2.7,0.4,4.3,0.6,5.8c0.5,0.1,0.8,0.2,1,0.3c2.4,0.7,5.2,0.8,6.9,2.5c0.8,0.8,0.4,5.5-0.7,7
			c-1.1,1.5-4.9,2.2-5.6,1.2c-1.6-2.3-2.2-5.7-2.7-8.8C771.1,845.6,771.7,843.2,771.9,839.7z"/>
		<path d="M474.9,386.8c0-5.2-0.1-10.4,0.1-15.6c0.1-1.4,1.3-2.6,2.1-3.9c0.9,1.4,2.4,2.7,2.5,4.1c0.3,4.1,0.4,8.4,0,12.5
			c-0.2,1.7-1.9,3.1-2.9,4.6C476.1,388,475.5,387.4,474.9,386.8z"/>
		<path d="M527.7,777.5c2.1,0,3.7,0,6.9,0c-1.2,7.2-2.3,14-3.7,22.6c-1.4-5.2-2.7-8.5-3.1-11.8C527.4,784.8,527.7,781.3,527.7,777.5
			z"/>
		<path d="M718.7,512.2c-0.7,6.2-1.3,12.4-2.2,20.6c4.9-2.4,8.1-4,11.4-5.6c-4.5,2.5-9.1,4.9-14.6,7.9c0,3.6,0,9.3,0,14
			c-0.7-5.5-1.6-11.8-2.4-18.2c1.6,0,3.3,0,5.2,0c0-11.7,0-23.2,0-35.6c-2.1,0.5-4,0.8-5.8,1.2c1.9-1.1,3.8-2.2,7-4.1
			c0,5.6-0.2,9.6,0.1,13.6C717.5,508.2,718.2,510.2,718.7,512.2z"/>
		<path d="M757.2,531c1.5,0,3,0,6,0c-1-7.3-2-14-3-20.8c0.7-0.9,1.9-1.8,2-2.8c0.2-4.3,0.1-8.6,0.1-15.1c4.2,2.4,7.3,4.2,10.3,6
			c-2.9-1.2-5.8-2.4-9.2-3.8c0,12.9,0,24.7,0,37.1c2.6-0.7,4.9-1.3,7.1-1.9c-0.8,2.9-1.9,5.7-2.3,8.7c-0.4,2.4-0.1,5-0.6,7.5
			c0-4.3,0-8.5,0-12.6C763.9,532.5,760.5,531.8,757.2,531z"/>
		<path d="M1363.7,781.9c1.1-0.6,2.1-1.2,3-1.7c0,16.6,0,33.2,0,49.8c-0.7-6.5,0.1-13.4-5.3-17.7c1,1,2.1,2.1,3.4,3.4
			c1.8-8.9,1.3-9.9-3.7-8.7c0.1,1.8,0.3,3.6,0.4,5.5c-0.4-2.1-0.8-4.3-1.2-6.7c1.9-0.4,3.3-0.7,5.1-1c0-2.6,0-5.2,0-8.4
			c-2.5-0.1-5-0.3-8-0.5c0.4-1.7,0.7-3.4,1.1-5c-0.2,8.7,4.5,2.5,6.7,4c0.5-0.4,1-0.7,1.4-1.1
			C1365.7,789.8,1364.7,785.8,1363.7,781.9z"/>
		<path d="M459.3,185.4c-2.7,0-5.3,0-8.3,0c0-5.7,0-11.2,0-16.9c2.9,0,5.6,0,8.3,0c0,0.2,0.1,0.5,0.1,0.7c-2.3,1-4.6,1.8-6.8,3
			c-0.3,0.1,0,1.9,0.1,3c2.4,0.3,4.4,0.6,6.4,0.8c0,0.4,0,0.8,0,1.2c-2,0.3-4.1,0.7-6.1,1C452.8,181.9,452.8,181.9,459.3,185.4z"/>
		<path class="st0" d="M747,789.8c-2-0.9-4.1-1.8-6.1-2.7c0.9-2.6,1.2-6.2,2.8-7.6c1-0.9,4.7,0.6,5.8,2.3
			C751.7,785.3,749.3,787.8,747,789.8z"/>
		<path d="M1366.7,549.4c-2.1,0-4.2,0-7.2,0c1,1.7,1.7,2.4,1.7,3c-0.1,2.3-0.5,4.6-0.7,6.8c-1.7-0.9-3.5-1.8-5.1-2.8
			c-0.8-0.5-1.3-1.6-2-2.4c2.5-1.8,5-3.5,7.4-5.6c1.1-1,1.9-2.6,2.8-3.9C1364.6,546.1,1365.6,547.7,1366.7,549.4z"/>
		<path d="M565.3,174.6c-7.9-2.2-5.3,6.1-7.3,10.4c0-3.6,0-7.3,0-11.3c2.4-2.4,8.2,2.7,8.4-5.8c1.3,2.5,2.3,4.3,3.2,6.2
			c-3.1,2.5-3,6.9,0.7,10.6C567,185.1,567,185.1,565.3,174.6z"/>
		<path d="M554.5,179.2c-2.3,0.2-4.5,0.5-6.9,0.7c0.7,6.4,3.8,3.6,6.4,2.4c0,0.7,0,1.4,0,2.1c-2,0.2-4.9,1.5-5.8,0.4
			c-1.4-1.9-2.3-5.4-2-8c0.2-1.6,3.1-3.9,4.7-3.7c1.6,0.2,3,3,4.5,4.6C555.1,178.2,554.8,178.7,554.5,179.2z"/>
		<path d="M742.8,928.5c-1.4,4.8-2.1,10.9-3.5,11.2c-6.2,1.3-5.4-3.8-3.1-8.1C736.9,930.2,739.3,930.1,742.8,928.5z"/>
		<path d="M962.8,905.9c-1.4,4.8-2,10.9-3.5,11.2c-6.2,1.3-5.4-3.7-3.2-8.1C957,907.6,959.4,907.5,962.8,905.9z"/>
		<path d="M1193.1,625.8c-1.3,4.7-1.9,10.8-3.3,11.2c-6.2,1.5-5.5-3.6-3.3-8C1187.2,627.5,1189.7,627.4,1193.1,625.8z"/>
		<path d="M605.7,182.5c2.1,0.4,4.2,0.8,6.3,1.2c0.1,0.2,0.2,0.5,0.3,0.7c-2,0.2-4.9,1.5-5.7,0.5c-1.4-1.9-2.2-5.4-2.1-8.1
			c0.1-1.5,2.9-4,4.2-3.7c1.8,0.3,3.4,2.8,5.1,4.3c-0.3,0.6-0.6,1.2-0.9,1.8c-2.3,0.3-4.5,0.5-6.8,0.8
			C605.9,180.8,605.8,181.6,605.7,182.5z"/>
		<path d="M623.3,186.3c-2.6-1.2-5.2-2.4-7.8-3.6c2-2.2,4.1-4.3,6.9-7.3c-1.7-0.3-3.4-0.7-6.7-1.3c2.8-0.5,5.6-1.5,5.8-0.9
			c1.5,3.5,2.4,7.4,3.5,11.2C624.3,185,623.8,185.6,623.3,186.3z"/>
		<path d="M636.2,182.2c2,0.6,4,1.1,7,1.9c-2.3,0.4-5.1,1.8-5.9,0.8c-1.5-2-2.4-5.3-2.3-7.9c0-1.5,2.7-4.2,4-4
			c1.9,0.3,3.6,2.6,5.4,4c-0.3,0.7-0.5,1.4-0.8,2.1c-2.3,0.2-4.5,0.4-6.8,0.7C636.6,180.6,636.4,181.4,636.2,182.2z"/>
		<path class="st0" d="M1363.7,781.9c1,3.9,2,7.9,2.9,11.8c-0.5,0.4-1,0.7-1.4,1.1c-2.2-1.5-6.8,4.7-6.7-4
			C1360.3,787.8,1362,784.8,1363.7,781.9z"/>
		<path d="M1108.7,552.2c4.8,5.9,9.6,11.9,14.4,17.8c-1.5-1.2-3-2.3-4.7-3.6c-2.3,4.4,1.3,6.9,2.1,10.3c-1.8-1.2-3.6-2.4-5.4-3.7
			c0.8-4.7,1-8.9-2.9-12.4C1110.4,559,1109.9,555.1,1108.7,552.2z"/>
		<path d="M471.2,168.6c0,5.2,0,10.5,0,17.1c-2.6-0.7-5.8-0.5-7.7-2.3c-1.2-1.1-1.2-5.8-0.3-7.9c0.8-1.9,3.6-2.5,6.6-4.3
			c-0.1,0.3,0.2-1.2,0.5-2.7C470.6,168.5,470.9,168.6,471.2,168.6z M466.1,184.5c0.6,0,1.1,0,1.7,0c0.7-1.8,2-3.7,1.8-5.4
			c-0.2-1.7-1.8-3.1-2.8-4.7c-1,1.6-2.6,3.1-2.7,4.8C464,180.9,465.4,182.7,466.1,184.5z"/>
		<path d="M593.7,182c-1.1,3.8-4.1,4.4-7.1,3.3c-3.9-1.5-4.2-6-3.5-9.8c0.5-2.7,2.4-6,4.3-7.1c2.7-1.5,5.3,0.3,6.2,3
			c-2.7,0-5.3,0-7.9,0c0.1,3.7,0.1,7.5,0.2,11.2C588.5,182.4,591,182.2,593.7,182z"/>
		<path d="M1151.9,797.5c-5.6-5.5-11.2-11-16.7-16.5c3,1.7,6.2,3,8.9,5.3c4.8,4,4.7,4.2,10,1.2
			C1155.6,791.6,1154.5,794.7,1151.9,797.5z"/>
		<path d="M674.2,180.1c-5.6,0.4-9.2-4.1-9.5-11.4C670.1,169.7,672.6,173.7,674.2,180.1z"/>
		<path class="st0" d="M1337.2,577.9c0.3-2.3,0.5-4.7,0.8-7c0.5,0,1,0,1.5,0.1c0.4,1.8,0.8,3.6,1.2,5.3c0.9-2.3,1.7-4.3,2.5-6.2
			c1.7,3,3.6,6,0.6,9.3C1341.3,581.9,1339.1,580.5,1337.2,577.9z"/>
		<path class="st0" d="M1361.7,577.9c0.3-2.3,0.5-4.7,0.8-7c0.5,0,1,0,1.5,0.1c0.4,1.8,0.8,3.6,1.2,5.3c0.9-2.3,1.7-4.3,2.5-6.2
			c1.7,3,3.6,6,0.6,9.3C1365.8,581.9,1363.5,580.5,1361.7,577.9z"/>
		<path class="st0" d="M1312.7,577.9c0.3-2.3,0.5-4.7,0.8-7c0.5,0,1,0,1.5,0.1c0.4,1.8,0.8,3.6,1.2,5.3c0.9-2.3,1.7-4.3,2.5-6.2
			c1.7,3,3.6,6,0.6,9.3C1316.9,581.9,1314.6,580.5,1312.7,577.9z"/>
		<path d="M508.3,171.6c-2.7-0.2-5.2-0.4-7.7-0.5c-0.1,3.7-0.1,7.5-0.2,11.2c2.6,0,5.1,0,7.8,0c-0.7,3-3.3,3.8-6.2,3.3
			c-3.6-0.7-4.8-4.3-4.2-7.9c0.5-3.3,1.6-7.5,3.6-9.1C503.8,166.6,507.2,167.8,508.3,171.6z"/>
		<path class="st0" d="M1115.2,573c1.8,1.2,3.6,2.4,5.4,3.7c0.1,0.7,0.3,1.4,0.4,2.1c-2.5,1.8-5,3.7-7.5,5.4c-0.2,0.1-1-1.4-1.6-2.1
			C1113,579.1,1114.1,576,1115.2,573z"/>
		<path d="M929.4,907.8c2.3,1,5.3,1.2,5.9,2.8c2.3,6.5-2.2,7.3-5.9,8.4C929.4,916.1,929.4,913.1,929.4,907.8z"/>
		<path d="M1404.4,632.8c2.5-2.4,3.9-3.6,5.3-4.9c1.1,1.8,2.8,3.5,3,5.4c0.1,1.4-2,4.2-3.1,4.2
			C1408.3,637.5,1406.9,635.2,1404.4,632.8z"/>
		<path d="M1139.5,633.4c2.4-2.6,3.7-4,5.1-5.5c1.1,1.7,3,3.3,3.2,5.2c0.1,1.4-1.7,4.3-2.9,4.4
			C1143.6,637.7,1142.1,635.5,1139.5,633.4z"/>
		<path d="M536.1,800c1.6-1.3,3.1-3.6,4.7-3.7c11.4-0.3,22.9-0.1,34.3,0c0.6,0,1.1,0.8,1.7,1.2c0,0,0.1-0.2,0.1-0.2
			c-2.4,0.8-4.8,1.7-7.2,2.5c0,0,0.1,0.1,0.1,0.1c-0.8-0.9-1.5-2.5-2.3-2.5c-6.9-0.2-13.9-0.4-20.8,0c-3.6,0.2-7.1,1.6-10.6,2.4
			C536,799.8,536.1,800,536.1,800z"/>
		<path d="M773.7,627.3c0.8,2,2.3,4.1,2.1,5.9c-0.2,1.7-2.3,3.1-3.6,4.6c-1-1.6-2.6-3.2-2.7-4.9c0-1.9,1.4-3.8,2.2-5.7
			C772.4,627.3,773,627.3,773.7,627.3z"/>
		<path d="M596.2,907.4c0.8,1.9,2.5,4,2.3,5.7c-0.2,1.8-2.2,3.2-3.4,4.8c-1-1.6-2.8-3.1-2.9-4.7c-0.1-1.9,1.3-3.9,2-5.8
			C594.9,907.4,595.5,907.4,596.2,907.4z"/>
		<path d="M742,912.9c2.5-2.3,3.9-3.6,5.3-4.9c1.1,1.8,2.8,3.6,2.9,5.5c0.1,1.4-2,4.2-3.1,4.2C745.8,917.6,744.5,915.4,742,912.9z"
			/>
		<path d="M918.6,912.8c2.2-2.2,4-4.8,4.6-4.5c1.5,0.8,3.3,3.1,3.3,4.8c0,1.6-2,4.2-3.3,4.5C922.2,917.8,920.7,915.1,918.6,912.8z"
			/>
		<path d="M1157.8,632.4c2.6-2.2,4.2-4.4,5.4-4.2c1.2,0.2,3,3.1,2.8,4.6c-0.2,1.8-2,4.3-3.3,4.6
			C1161.7,637.8,1160.2,635,1157.8,632.4z"/>
		<path d="M1108.7,846.3c10.7,7.6,21.7,8.2,32.8,1.3C1132.4,856.3,1118.6,855.7,1108.7,846.3z"/>
		<path d="M508.7,178.9c3.4-3,5.1-5.6,7.2-6c3.4-0.7,4.6,2.7,4.6,6.4c-0.1,3.6-1.4,7.1-4.7,6.2C513.6,184.9,512,182.1,508.7,178.9z
			 M520.1,179.4c-2-2.3-3.1-3.7-4.3-5c-1,1.5-2.9,3-2.9,4.5c0,1.7,1.6,3.4,2.6,5.1C516.8,182.8,518,181.5,520.1,179.4z"/>
		<path d="M1142.8,499.8c-0.6-1.5-1.8-4-2.5-6.8c-0.4-1.5-0.3-3.7,0.4-4.8c0.6-0.9,3-1.3,3.5-0.7c0.9,1,1.4,3.4,1.1,4.8
			C1144.7,495.4,1143.4,498.1,1142.8,499.8z"/>
		<path d="M502,820.4c-0.3-1.3-0.5-1.7-0.5-2c-0.5-14.4-0.3-14.7,11.4-14.7c4.9,0,9.8,0,14.6,0c0,0.4,0,0.8,0.1,1.2c-3,0-6,0-8.9,0
			c-1.2,0-2.4,0-3.6,0C499.8,804.6,502.9,805,502,820.4z"/>
		<path d="M1119,546.3c-3.2-2.6-6.2-6.3-10.3-2.2c2.6-1.2,5.1-2.4,7.7-3.5c0.5,0.5,1,1.1,1.5,1.6c0-5.6-0.4-11.3,0.1-16.9
			c0.3-3.6,2-7,3-10.5C1117.1,524.9,1118.9,535.7,1119,546.3z"/>
		<path class="st0" d="M1322.8,529.7c-1.2,1-2.3,2.1-3.5,3.1c-1.2-1.5-2.4-2.9-3.5-4.4c1.1-1.3,2.2-2.5,3.2-3.8
			C1320.2,526.3,1321.5,528,1322.8,529.7z"/>
		<path d="M523.6,185c0-3.6,0-7.2,0-11.9c2.3,0.2,6.1-0.7,7.1,0.9c1.6,2.8,1.4,7.1,1.9,10.8c-0.5,0.1-1,0.1-1.6,0.2
			c-0.1-2,0.2-4.1-0.4-5.9c-0.6-1.8-2-3.1-3-4.7c-0.9,1.5-2.3,2.8-2.7,4.4c-0.5,1.9-0.1,4.1-0.1,6.2C524.5,185,524,185,523.6,185z"
			/>
		<path d="M1132.2,1063.6c3.8,0.4,7.5,0.7,11.2,1.4c3.2,0.6,6.4,1.7,9.6,2.5c-9.2-0.7-18.3-1.3-27.9-2c0.2,2.7,0.3,4.3,0.3,5.9
			c-0.6-1.9-1.2-3.8-1.7-5.6C1127.1,1064.9,1129.7,1064.3,1132.2,1063.6z"/>
		<path d="M633,185.4c-5.3-1.1-6.8-8-4.4-17.2c1.1,2.1,2.1,4,3.2,6C628.7,176.7,628.8,181.1,633,185.4z"/>
		<path d="M1135.4,781.1c-9-2.9-17.5-1.3-25.7,4C1117.7,777.8,1126.2,776.4,1135.4,781.1z"/>
		<path d="M576.8,541.3c0.5-3.2-0.4-4.6-3.2-4.4c-3.7,0.2-7.4,0.2-11.1,0c-1.7-0.1-3.4-0.7-4.1-0.9c4.8,0,10.3,0.1,15.8-0.1
			c0.9,0,1.7-1.5,2.6-2.3C576.8,536.1,576.8,538.7,576.8,541.3z"/>
		<path d="M538.3,185.5c-1.2-3.9-2.5-7.8-3.7-11.8c0.3-0.2,0.7-0.4,1-0.6c1,2.7,2,5.4,3.4,9.1c1.4-3.5,2.5-6.3,3.5-9.1
			c0.4,0.2,0.7,0.4,1.1,0.6c-1.3,4-2.6,7.9-3.8,11.9C539.3,185.6,538.8,185.5,538.3,185.5z"/>
		<path d="M1169.2,851c-2.8,0-4.9,0-7.7,0c1.3-2.9,2.3-5.2,3.7-8.2C1166.7,845.8,1167.8,848.2,1169.2,851z"/>
		<path d="M1170.8,850.9c1-2.8,1.9-5.2,3-8.4c1.4,2.8,2.7,5.2,4.4,8.4C1175.2,850.9,1173.2,850.9,1170.8,850.9z"/>
		<path d="M1313.2,905.3c1.8,0,3.4,0,4.9,0c-1.3,1.2-2.5,2.4-3.7,3.5c1,0.8,2,1.6,3,2.4c-0.4-0.7-0.7-1.4-1.1-2.1
			c-1.8,1.3-3.6,2.6-5.4,3.8c0.8,1.2,1.6,2.4,2.4,3.6C1313.2,913.1,1313.2,909.6,1313.2,905.3z"/>
		<path d="M498.4,539.1c0,6.6-0.3,13.2,0.1,19.8c0.2,4.2,1.3,8.3,2,12.5c-0.9-1.7-2.6-3.3-2.6-5
			C497.8,557.3,498.2,548.2,498.4,539.1z"/>
		<path d="M721.9,928.8c0.9,2.7,1.8,5.5,3,9c1.2-3.5,2.1-6.3,3-9c0.3,0.1,0.6,0.2,0.8,0.4c-1,3.7-2,7.5-3.1,11.2
			c-0.4,0.1-0.9,0.1-1.3,0.2c-1.2-3.8-2.3-7.5-3.5-11.3C721.3,929.1,721.6,928.9,721.9,928.8z"/>
		<path d="M1172.4,626.1c0.9,2.8,1.9,5.5,3,9c1.2-3.5,2.1-6.3,3.1-9c0.3,0.1,0.5,0.2,0.8,0.4c-1.1,3.8-2.1,7.6-3.2,11.3
			c-0.4,0-0.8,0.1-1.2,0.1c-1.1-3.8-2.3-7.6-3.4-11.4C1171.8,626.4,1172.1,626.2,1172.4,626.1z"/>
		<path d="M541.4,629.7c1.4,0.3,2.8,0.7,3.6,0.8c-1.1,1.2-2.4,2.6-3.7,4c1.5,0.9,2.9,1.8,4.4,2.8c-1.6,0-3.4,0-5.4,0
			c0-3.7,0-7.6,0-12.1c1.5-0.1,3-0.3,5.6-0.5c-2.3,1.5-3.7,2.3-5,3.1C541.1,628.5,541.3,629.1,541.4,629.7z"/>
		<path d="M944.3,917.7c-1-3.6-2-7.3-3-10.9c0.3-0.1,0.5-0.3,0.8-0.4c1,2.7,1.9,5.5,3.1,8.8c1.2-3.5,2.1-6.2,3-8.9
			c0.3,0.1,0.6,0.3,0.8,0.4c-1.1,3.8-2.2,7.5-3.3,11.3C945.2,917.9,944.8,917.8,944.3,917.7z"/>
		<path d="M484.8,185.2c-4.2-1-5.7-7.9-3.4-16.8c1,1.8,2,3.6,3,5.4C481.3,176.5,481.4,180.4,484.8,185.2z"/>
		<path d="M905.8,906c0.3,3.3,0.4,6.6,1.1,9.7c0.1,0.5,3.2-0.1,5.1,1.2c-2,0-4.9,1.1-6-0.1C903.2,913.3,903.4,909.1,905.8,906z"/>
		<path d="M1111.9,582.1c0.5,0.7,1.4,2.2,1.6,2.1c2.6-1.7,5-3.6,7.5-5.4c1.1,0,2.1,0,3.2,0c-2,1.4-4,2.9-6,4.2
			c-2.5,1.6-5.2,3-9.1,5.2C1110.4,585.2,1111.2,583.7,1111.9,582.1z"/>
		<path d="M775.7,916.6c-1.5-9.9-1.5-9.9,1.6-12.1C776.7,908.4,776.2,912.5,775.7,916.6z"/>
		<path class="st0" d="M92.4-20.2c-0.7-1-1.4-2-2.2-3c-0.8-1.1-1.5-2.1-2.3-3.2c-0.8,1-1.7,1.9-2.5,2.9c-0.7,0.9-1.4,1.9-2,2.8
			c-0.6-1.2-1.6-2.4-1.7-3.6C81.5-27.2,81-30.7,82-33c1.2-2.6,4-5.8,6-5.7c2,0.1,4.7,3.7,5.4,6.4c0.9,3.3,0.2,7.4,0.2,11.1
			C93.3-20.8,92.8-20.5,92.4-20.2z"/>
		<path d="M447.1-21.8c-5,0.5-6-2.6-5.8-7c0.1-4-0.6-10.1,4.4-8.6c3,0.9,6.4,5.6,7.2,9.4C454-23,449.5-22.6,447.1-21.8z"/>
		<path class="st0" d="M100.2-26.1c-0.1,1.1,0,2.2-0.4,3c-0.5,1-1.5,1.7-2.2,2.5c-0.5-0.9-1.4-1.8-1.4-2.7C95.9-28.3,96-33.3,96-38
			c6.6-1.8,10.5-0.2,11,4.2C107.6-27.9,104.3-26.5,100.2-26.1z"/>
		<path class="st0" d="M113.5-26.2c-1.2,2.3-2.1,4.1-3,6c-0.4-0.3-0.9-0.5-1.3-0.8c0-5.7,0-11.5,0-17.2c6.8-1.6,9.9-0.3,10.5,4.6
			C120.4-27.3,116.5-26.8,113.5-26.2z"/>
		<path class="st0" d="M131.2-33.8c-1.9-0.4-3.8-0.8-6.7-1.4c2.2,5,10.2,3,7.3,10.8c-0.7,1.9-3.3,3.7-5.1,3.7c-2,0-3.9-2.1-5.9-3.3
			c0.2-0.7,0.5-1.3,0.7-2c2.2,0.3,4.4,0.7,8.1,1.2c-3.4-4.4-9.6-2.5-8.2-9.5c0.4-1.9,2.6-4.4,4-4.5c2.2-0.2,4.4,1.5,6.7,2.5
			C131.8-35.5,131.5-34.7,131.2-33.8z"/>
		<path class="st0" d="M64.2-24.7c0.7,0.2,2.1,0.6,3.5,1c0,0.7,0.1,1.5,0.1,2.2c-3.4,0.4-6.8,0.7-10.3,1.1c-0.3-0.6-0.7-1.1-1-1.7
			c2.5-3.9,4.9-7.8,7.4-11.7c-0.3-0.4-0.6-0.8-0.9-1.1c-1.8,0.5-3.6,1-5.3,1.5c-0.3-0.6-0.6-1.3-0.9-1.9c1.7-1.3,3.3-3.5,5.1-3.7
			c1.7-0.2,5,2,4.9,2.8C66.4-32.4,65.2-28.8,64.2-24.7z"/>
		<path class="st0" d="M68.8-26.5c2.9,0.8,4.9,1.3,6.9,1.8c0.2-0.5,0.3-1,0.5-1.5c-1.2-1.1-2.4-2.2-4.8-4.4c1.7-1.1,3-1.9,4.3-2.7
			c-0.1-0.5-0.2-0.9-0.3-1.4c-1.9,0.2-3.8,0.4-5.8,0.7c1.3-4.4,3.1-6,6.1-5c3.1,1,4.7,3.2,3,7.4c-0.3,0.7,0,1.9,0.3,2.6
			c1.7,3.8,0.9,6.6-2.3,7.9C73.4-19.7,70.4-20.2,68.8-26.5z"/>
		<path class="st0" d="M51.2-38.5c4.4-1.5,3.8,2.2,3.6,4.9c-0.4,4.4,1.6,9.9-1.4,13.3c-0.7-0.3-1.4-0.5-2.1-0.8
			C51.2-26.9,51.2-32.7,51.2-38.5z"/>
		<path class="st0" d="M209.6-23.9c-2.7-1.9-5.3-2.7-5.8-4.4c-1.8-6.2,3.4-5.2,5.8-8C209.6-32.6,209.6-29.6,209.6-23.9z"/>
		<path class="st0" d="M28.5-18.1c-1.6-2.5-3.7-4.4-3.4-5.7c0.3-1.9,2.3-3.3,3.6-4.9c1.2,1.7,3.2,3.2,3.5,5
			C32.2-22.4,30.1-20.6,28.5-18.1z"/>
		<path class="st0" d="M43.6-36.5c-2.2,1.8-3.7,4.1-5,3.9c-1.3-0.2-3.3-2.9-3.2-4.3c0.1-1.5,2.2-3.9,3.5-4
			C40.2-40.9,41.5-38.5,43.6-36.5z"/>
		<path class="st0" d="M331.9-36.7c1.1,3.3,2.2,6.6,3.2,9.7c-2.5,0-4.9,0-7.6,0c0.9-2.9,2-6.2,3.1-9.5
			C331-36.6,331.4-36.7,331.9-36.7z"/>
		<path class="st0" d="M764.4-24.5c-1.5-1.4-3.6-2.4-3.9-3.9c-0.3-1.6,1.2-3.7,1.9-5.6c1.4,0.8,2.8,1.6,4.2,2.4
			c-0.1,0.6-0.2,1.1-0.4,1.7c-1.5,0.4-3,0.8-5.8,1.5c2.3,1,3.6,1.5,4.8,2.1C765.1-26.1,765-25.9,764.4-24.5z"/>
		<path class="st0" d="M473.4-36.3c3.9-0.8,7-1.2,6.9,5.5c-0.1,6.4-3.2,5.6-6.9,5.1C473.4-29.3,473.4-32.8,473.4-36.3z M474.6-35
			c0,2.6,0,5.2,0,7.8c0.4,0.4,0.9,0.8,1.3,1.2c1-1.6,2.7-2.9,3-4.7C479.5-34.3,478.2-36.4,474.6-35z"/>
		<path class="st0" d="M937.5,512.1c-0.3,1.9-0.6,3.9-1.1,7c1.4-1.1,2-2.1,2.7-2.2c1.4-0.1,2.9-0.2,4.2,0.4c1.5,0.7,2.8,2.2,4.1,3.4
			c-0.1-2.2-0.2-4.3-0.3-6.5c0-0.2,0-0.4-0.1-1c2.5-2.3,5.1-4.8,9.1-8.6c0.2,4.1,1.1,7.3,0.2,9.4c-4,9.4-8.5,18.4-13,27.5
			c-0.4,0.7-2,0.5-3,0.8c-3.8-8.3-7.6-16.7-11.5-25c-2.2-4.7-2.7-9,1.6-12.4C932.9,507.3,935.2,509.7,937.5,512.1z"/>
		<path class="st0" d="M937.5,512.1c-2.3-2.4-4.6-4.9-7-7.3c0.2-0.2,0.3-0.3,0.5-0.5c2-0.4,3.9-0.8,4.5-0.9c2.6,2.8,4,5.5,5.9,6
			c1.2,0.3,2.7-3.4,4.4-4.3c1.9-1.1,4.2-1.1,6.4-0.8C949,512.4,943.5,512.9,937.5,512.1z"/>
		<path d="M754,824c-2.5-0.2-5-0.4-7.4-0.6c0.3-2.2,0.6-4.4,0.9-6.6c2.4,1.2,4.7,2.4,7.1,3.6C754.4,821.6,754.2,822.8,754,824z"/>
		<path class="st0" d="M536,799.8c3.5-0.8,7.1-2.2,10.6-2.4c6.9-0.4,13.9-0.2,20.8,0c0.8,0,1.5,1.7,2.3,2.5c-0.7,2.6-2,5.2-2,7.8
			c-0.2,14.6-0.2,29.2,0,43.8c0.1,5.1-1.3,6.4-5.2,6.2c-8.9-0.3-17.9-0.1-27.2-0.1c0-6.3,0-12.2,0-18.5c5.3-1.7,11.8,2.5,16.2-4.2
			c4.6-4.1,4.6-9.8,3.5-15.8c0.3-1,0.6-2.8,1-2.9c2-0.3,4-0.1,5.9-0.7c-8.8-1.9-17.6-3.7-27.2-5.8
			C535.1,806.9,535.6,803.3,536,799.8z"/>
		<path class="st0" d="M555,819.2c1.1,6,1.1,11.7-3.5,15.8c-7.6,4-13,2.1-15.7-5.2c-1.9-5.2-0.8-11,2.9-14.5c3.9-3.7,8-4,12.1-0.4
			C552.3,816.1,553.6,817.7,555,819.2z"/>
		<path class="st0" d="M569.6,799.8c2.4-0.8,4.8-1.7,7.2-2.5c1.2,2,2.3,4.1,4.1,7.1c-4.6,0-8.2,0-12.1,0
			C569.1,802.9,569.4,801.4,569.6,799.8z"/>
		<path class="st0" d="M948.7,502c-4.4,0-8.9,0-14.1,0C939.6,497.4,944.1,497.5,948.7,502z"/>
		<path class="st0" d="M588.4,116.1c-3.8,0-6.8,0-10.6,0c1.7-5.9,3.2-11.2,4.7-16.5c0.4,0,0.7,0,1.1,0
			C585.2,104.9,586.7,110.2,588.4,116.1z"/>
		<path class="st0" d="M1334.1,553.8c-0.4-1.7-0.8-3.5-1.3-5.4c2.2-0.9,4-1.7,5.2-2.3c-0.6-1.6-1.3-3.3-1.9-5c4.1-1,7.9,0.5,8.8,5.6
			c0.5,2.5-1.4,7.2-3.2,8.5C1339.9,556.3,1336.7,554.4,1334.1,553.8z"/>
		<path class="st0" d="M1135.9,519.8c0.9,1.4,1.9,2.8,2.8,4.1c-5,7-7.2,7.1-15.5,0.9c1.2-1.7,2.4-3.5,3.5-5c1.6,2.4,2.7,4.1,3.8,5.8
			c1.2-1.8,2.3-3.6,3.6-5.3C1134.4,519.9,1135.2,520,1135.9,519.8z"/>
		<path d="M1135.9,519.8c-0.6,0.2-1.5,0.1-1.9,0.6c-1.3,1.6-2.4,3.5-3.6,5.3c-1.1-1.7-2.2-3.4-3.8-5.8c-1,1.5-2.3,3.3-3.5,5
			c0-1-0.4-2.4,0-2.8C1127,517.9,1131.2,516.7,1135.9,519.8z"/>
		<path class="st0" d="M957.1,822.3c-3.6,0.9-5.1,4.5-4,7.9c1,2.9,3.6,6.1,6.1,6.9c3.5,1.2,7.4,0.3,11.6,0.3c0,5,0,9.7,0,14.8
			c-18.7,0-37.3,0-56.3,0c0-4.9,0-10,0-15.4c5.3-0.5,10.9-1.1,16.4-1.6c0-0.7,0-1.5,0-2.2c-0.7-0.3-1.5-0.5-2.5-0.9
			c1.5-0.8,2.9-1.5,4.3-2.3c0-0.5-0.1-1-0.1-1.5c-1.3-0.5-2.6-0.9-4.2-1.5c1.2-0.5,2.2-0.8,3.7-1.4c-5-7.7-11.9-2.4-17.6-5
			c0-12.4,0-25.1,0-37.6c5.7-2,9.5-0.7,12.3,6.4c3.1,7.9,6.1,7.6,10.1,0.1c0.8-1.6,1.4-3.3,2.2-4.9c1.7-3.2,6.3-3.2,8,0.1
			c0.7,1.4,1.2,3,1.9,4.4c3.8,7.8,7.5,8.3,10.4,0.2c2.5-7,6.1-7.9,11.6-6.4c0,12.5,0,25.1,0,37.8c-4.7,0.7-9.3,1.4-13.8,2.1
			L957.1,822.3z M939.7,846.8c1.8-0.1,3.7-0.2,5.5-0.3c5.9-6.5-2.9-9.7-2.2-15.1c-1.2,2.1-1.6,4.8-2.9,6.3
			C937.4,840.8,938,843.6,939.7,846.8z M929.4,810.2c0.7,2.1,0.9,4.9,2.2,6.2c7.4,7.2,16.6,6.9,23.8-0.4c2.4-2.4,2.7-5,0.1-7.1
			c-2.5-2.1-5.4-3.5-8.1-5.3C940.1,800.8,934.3,803.7,929.4,810.2z"/>
		<path class="st0" d="M956.9,822.5c4.5,0,9.1,0,13.9,0c0,4.6,0,8.6,0,13.5c-5.4-0.4-10.8,2.3-16.4-2.9c1.4-0.5,2.1-0.7,3.1-1.1
			c-4.6-1.8-6.4-3.7,0.2-5.2c-1-0.5-1.8-0.8-2.7-1.2c0.7-1.2,1.4-2.3,2.1-3.4C957.1,822.3,956.9,822.5,956.9,822.5z"/>
		<path class="st0" d="M727,116.8c-0.2,3.9,0.1,8.8-5.2,8.7c-5.2-0.1-5.1-4.7-5.2-9.2c-0.1-4.8,0.7-9.2,5.5-9
			C726.6,107.4,726.9,111.9,727,116.8z"/>
		<path class="st0" d="M545.3,116.3c-0.3,4.1,0.2,9.1-5.1,9.3c-5.2,0.1-5.3-4.5-5.3-9c-0.1-4.7,0.4-9.2,5.3-9.2
			C544.8,107.3,545.2,111.7,545.3,116.3z"/>
		<path class="st0" d="M921.3,116.7c-0.2,4,0.1,8.8-5.2,8.8c-4.8,0-5.2-4.1-5.2-8.6c0-6.9,1.7-10.1,5.4-9.7
			C921,107.7,921.3,111.9,921.3,116.7z"/>
		<path class="st0" d="M943.5,114.9c-0.1-3.3,0.6-7.6,5.1-7.6c4.9-0.1,5.3,4.6,5.3,9.2c-0.1,4.5-0.1,9.2-5.3,9
			C943.3,125.3,943.6,120.6,943.5,114.9z"/>
		<path class="st0" d="M613.2,116.6c-0.1-4.6,0.2-9.4,5.2-9.4c4.9,0,5.3,4.7,5.2,9.3c-0.1,4.2,0.1,8.8-4.9,8.9
			C613.5,125.7,613.1,121.4,613.2,116.6z"/>
		<path class="st0" d="M656.2,117c-0.2,4-0.1,8.7-5.3,8.6c-4.8-0.2-5-4.4-5-8.8c0-4.6,0.2-9.4,5.1-9.5
			C655.8,107.1,656.1,111.9,656.2,117z"/>
		<path d="M547.2,518.8c4-4.9,8.5-7.2,14-3.7c-1-0.1-1.9-0.1-3-0.2c0.2,3.9,0.4,7.5,0.6,11.5c2.3-1.1,4.2-2,6-2.9
			c-3.6,4.4-7.7,5.3-12.3,2.5c0.7-0.7,2-1.4,2.1-2.2c0.3-2.9,0.1-5.8,0.1-9.4C551.9,516,549.5,517.4,547.2,518.8z"/>
		<path class="st0" d="M564.7,523.5c-1.8,0.9-3.7,1.8-6,2.9c-0.2-4.1-0.4-7.6-0.6-11.5c1.1,0.1,2.1,0.1,3,0.2
			C562.6,517.7,569.9,516.6,564.7,523.5z"/>
		<path class="st0" d="M547.2,518.8c2.4-1.4,4.7-2.8,7.4-4.4c0,3.6,0.2,6.5-0.1,9.4c-0.1,0.8-1.4,1.5-2.1,2.2
			C550.1,524.1,546.1,524.3,547.2,518.8z"/>
		<path class="st0" d="M1333.4,834.5c-3.1,3.1-6.3,6.2-10.1,10c-1.4-7.7,1.1-16.2-7.6-16c0-7.7,0-15.2,0-23.2c6.1,0,12.3,0,19.9,0
			c-0.8,9.8-1.6,19.5-2.3,29.3L1333.4,834.5z"/>
		<path class="st0" d="M1332.1,794.8c-5.5,6.3-9.3,6.2-14.5,0.3C1322.3,789,1325.9,788.9,1332.1,794.8z"/>
		<path class="st0" d="M1333.3,834.7c3.9,3.7,8.9,6.6,7.7,14.4c0,0,0.2-0.2,0.2-0.2c-5.8,2.1-7.9-3.7-11.2-7.5
			c1.2-2.4,2.3-4.6,3.4-6.9C1333.4,834.5,1333.3,834.7,1333.3,834.7z"/>
		<path class="st0" d="M1341,782.2c0.8,3.4,1.7,6.8,2.7,11c-3,0-5,0-7.4,0c0-4.1,0-8.4,0-13.3c1.7,0.9,3.3,1.7,4.9,2.5
			C1341.2,782.4,1341,782.2,1341,782.2z"/>
		<path class="st0" d="M889.1,117.9c-1.2,3.4-1.5,6.3-2.8,7.3c-1.6,1.3-4,1.2-6,1.1c-0.6,0-1.8-2.9-1.6-3.1c1.3-1.6,2.8-3.1,4.5-4.1
			C884.4,118.4,886.1,118.5,889.1,117.9z"/>
		<path class="st0" d="M512.5,112.5c-3.2,0-6,0-8.9,0c-0.4-4.3,1.2-6.9,4.3-7C511.1,105.4,512.7,108,512.5,112.5z"/>
		<path class="st0" d="M740.3,551.9c1,4.1,1.6,6.5,2.2,8.9c1.8-1.2,3.6-2.3,6-3.9c-0.1-0.1,0.7,0.7,1.6,1.6
			c-6.6,9.1-13.5,9.1-21.4-0.7C733.2,555.5,737.2,553.5,740.3,551.9z"/>
		<path class="st0" d="M1180.6,822.5c-7.1-2.4-9.2-6.5-8.1-15.1C1179.4,808.9,1181.7,813,1180.6,822.5z"/>
		<path class="st0" d="M496.9,377.4c-2.4,2.8-3.8,4.4-5.1,6c-1.2-2.1-3.2-4.1-3.3-6.3c-0.1-1.8,2-3.8,3.2-5.7
			C493.1,373.1,494.6,374.8,496.9,377.4z"/>
		<path class="st0" d="M535.8,377.8c-2.2,2.7-3.6,4.4-5,6.2c-1.1-2.1-2.9-4.1-3.2-6.4c-0.5-3,0-7,3.6-6.3
			C532.7,371.6,533.8,374.8,535.8,377.8z"/>
		<path class="st0" d="M579.3,377.3c-2.1,2.9-3.4,6.2-4.9,6.4c-3.4,0.5-4-3.4-3.4-6.5c0.4-2.3,2.2-4.2,3.4-6.3
			C575.7,372.8,577.1,374.6,579.3,377.3z"/>
		<path class="st0" d="M598.8,377.5c-2.2,2.9-3.6,4.7-5,6.5c-1.2-2.3-3.3-4.6-3.3-6.9c-0.1-2,2.2-4.1,3.4-6.1
			C595.3,372.8,596.6,374.6,598.8,377.5z"/>
		<path class="st0" d="M1361.6,812.4c-0.1-1.8-0.3-3.7-0.4-5.5c5-1.2,5.5-0.2,3.7,8.7c-1.3-1.3-2.4-2.4-3.4-3.4
			C1361.5,812.2,1361.6,812.4,1361.6,812.4z"/>
		<path class="st0" d="M466.1,184.5c-0.7-1.8-2.1-3.6-2-5.3c0.1-1.7,1.8-3.2,2.7-4.8c1,1.6,2.6,3,2.8,4.7c0.2,1.7-1.2,3.6-1.8,5.4
			C467.3,184.5,466.7,184.5,466.1,184.5z"/>
		<path class="st0" d="M520.1,179.4c-2.1,2.1-3.4,3.4-4.6,4.6c-0.9-1.7-2.6-3.4-2.6-5.1c0-1.5,1.9-3,2.9-4.5
			C517,175.7,518.2,177.1,520.1,179.4z"/>
		<path d="M474.6-35c3.6-1.4,4.9,0.7,4.3,4.3c-0.3,1.7-2,3.1-3,4.7c-0.4-0.4-0.9-0.8-1.3-1.2C474.6-29.8,474.6-32.5,474.6-35z"/>
		<path class="st0" d="M947.3,803.7c2.7,1.7,5.5,3.2,8.1,5.3c2.6,2.1,2.4,4.7-0.1,7.1c-7.2,7.2-16.4,7.6-23.8,0.4
			c-1.3-1.2-1.5-4.1-2.2-6.2c2.9-2,5.7-4,8.6-6c0.4,1.2,0.7,1.6,0.7,1.9c-0.6,4.1,0.1,7.6,4.1,7.2c3.4-0.3,4.3-3.4,3.3-7.4
			C945.9,805.4,946.9,804.4,947.3,803.7z"/>
		<path d="M947.3,803.7c-0.5,0.8-1.5,1.7-1.3,2.3c1.1,4,0.1,7-3.3,7.4c-4,0.4-4.6-3.1-4.1-7.2c0-0.3-0.2-0.7-0.7-1.9
			c-2.9,2-5.8,4-8.6,6C934.3,803.7,940.1,800.8,947.3,803.7z"/>
		<path class="st0" d="M945.2,846.4c-1.8,0.1-3.7,0.2-5.5,0.3c0.6-3.5,1.3-7,1.9-10.5c0.9,0.1,1.8,0.1,2.6,0.2
			C944.5,839.8,944.8,843.1,945.2,846.4z"/>
		<path d="M945.2,846.4c-0.3-3.3-0.6-6.6-1-10c-0.9-0.1-1.8-0.1-2.6-0.2c-0.6,3.5-1.3,7-1.9,10.5c-1.7-3.2-2.3-6,0.4-9.1
			c1.3-1.5,1.7-4.2,2.9-6.3C942.3,836.8,951.1,839.9,945.2,846.4z"/>
	</g>
</g>
</svg>
