<svg xmlns="http://www.w3.org/2000/svg" xml:space="preserve" id="Ebene_1" x="0" y="0" viewBox="0 0 1920 1080"><style>.st0{fill:#fff}</style><path d="M512.6 1080H0V2.2c2-.1 4-.4 6.1-.4H1914c2 0 4 .3 6.1.4V1080h-564.5c-7.3-7.2-13.2-7.2-20.4 0h-168.1c-.6-8-4.8-13-9.5-17.8-7-7.1-15-2.9-22.6-3.1-.8 0-1.7 2.9-2.6 4.5-2.6.6-5.1 1.3-8.5 2.1.6 1.8 1.2 3.7 1.7 5.6 1.2 2.9 2.5 5.8 3.7 8.7H972.4c-.1-3.5.3-7.2-.3-10.6-.4-2.1-2-5.1-3.4-5.3-1.7-.3-4.6 1.3-5.3 3-1.6 3.9-2.2 8.5-3.2 12.9h-19.4c-3-3.3-3.3-7.5-3.3-12.2 0-7.3-2.9-9.5-8-6.5-.7.4-1.4 1-2.2 1.1-2.6.1-5.3 0-7.9-.2-.8 0-1.6-.3-2.3-.6-4.7-2.1-6.6-.8-6.9 5.3-.1 2.7.1 5.4.2 8.1-.8 1.7-1.5 3.4-2.3 5.1H777.7c-4.6-5-9.1-10-13.7-15-2.4-.8-4.8-2.3-7.3-2.3-11.2-.3-22.3-.6-33.5.1-3.7.2-7.3 3.2-10.9 5-3 4.1-6.1 8.2-9.1 12.3H559.5c-2.6-11.5-13-23.4-20.4-23.4-14.3-.1-22.9 7.5-26.5 23.2m599.3-497.9c-.7 1.6-1.5 3.2-2.8 6.1 4-2.3 6.6-3.7 9.1-5.2 2.1-1.3 4-2.8 6-4.2 5.4-3.6 10.7-7.3 16.1-10.9 5.2-3.6 8.8-8.6 10.4-16 .5-2.5 2.8-4.5 4.6-7.3.7 2.4 1 3.6 1.6 5.7.3-3 .5-4.8.8-6.8 3.4 3.2 7.2 4.4 8.8-.5 2-6.2 4.3-5.1 8.1-3.4 2.8 1.3 6.1 1.3 6.6-4.8H1169c-2.1-3.1-3.2-6.2-5-7s-4.2.7-7 1.2v-20.7h-1v17.6h-10.6c-2.2-5.6-4.6-11.3-6.9-17.2-1.1.3-2.2.7-3.3 1-5.6-1.9-10.1.4-14.1 5-1 3.5-2.7 6.9-3 10.5-.5 5.6-.1 11.3-.1 16.9-.5-.5-1-1.1-1.5-1.6-2.6 1.2-5.1 2.4-7.7 3.5v8.2c1.1 2.9 1.7 6.8 3.6 8.5 3.9 3.5 3.7 7.6 2.9 12.4-1.2 2.9-2.3 6-3.4 9m23.5 199c-9.2-4.7-17.7-3.3-25.7 4-19.3 15.4-15.9 49.1-1.1 61.2 9.9 9.4 23.8 9.9 32.8 1.3 13.7-9.7 18.1-30.4 10.5-50.1 2.6-2.7 3.7-5.9 2.1-10.1-5.2 3.1-5.1 2.8-10-1.2-2.7-2.2-5.9-3.5-8.9-5.3zm226.2 31.3-.1-.1c5.3 4.4 4.5 11.3 5.3 17.7v-49.8c-.9.5-2 1.1-3 1.7-1.7 3-3.4 5.9-5.2 8.9-.4 1.6-.7 3.2-1.1 5 3.1.2 5.5.3 8 .5v8.4c-1.8.4-3.2.6-5.1 1 .4 2.4.8 4.6 1.2 6.7m-24.4-234.5c1.9 2.6 4.1 4 6.6 1.4 3-3.2 1.1-6.3-.6-9.3-.7-.9-1.4-1.8-2.6-3.3h24.1c-1.8 3.9-6.7 6.1-3.1 11.2 1.9 2.6 4.1 4 6.6 1.4 3-3.2 1.1-6.3-.6-9.3-2.4-2.2-3.6-3.6.6-5.2 3.1-1.2 5.9-4 8.8-6.1-.5-1.8-.5-4.6-1.5-5.2-2.8-1.8-5.9-2.8-8.9-4.1-1.1-1.6-2.1-3.2-3.2-4.8-.1-.3-.2-.6-.4-.8-5.5-9.1-12.7-14.4-21.9-13.7-6.2.5-12.3 1.4-18.4-.3-1.3-1.7-2.5-3.4-3.8-5-1.1 1.3-2.2 2.5-3.2 3.8 1.2 1.5 2.4 2.9 3.5 4.4-.5 4.1-1.1 8.3-1.6 12.4-1.7 4.3-3.3 8.5-5 12.8-2.1 4.5-1.5 7.9 3.3 9.4-2.7 3.3-6.4 5.5-3.2 10.5 1.9 2.6 4.1 4 6.6 1.4 3-3.2 1.1-6.3-.6-9.3-.7-.9-1.4-1.8-2.6-3.3h24.1c-1.8 3.7-6.7 5.9-3 11m-577-67.6c-1.7-1.7-3.4-3.5-5.1-5-1.3-1.1-3.5-3.1-4-2.6-1.3 1.2-2.4 3.5-2.8 5.6-1.7 10.2 1.2 17.5 8.9 22.9 3.4.7 6.7 1.5 10.5 2.3v12.6c.5-2.5.2-5.1.6-7.5.5-3 1.5-5.8 2.3-8.7 9.9-10.2 10.6-20.1 2.1-31.3-3.1-1.8-6.2-3.6-10.3-6 0 6.4.1 10.8-.1 15.1-.2.8-1.4 1.6-2.1 2.6m-41.5 1.9c-.5-2-1.2-4-1.4-6-.2-4-.1-8-.1-13.6-3.2 1.8-5.1 3-7 4.1-1.5 1.1-3.4 1.8-4.6 3.3-7 9.5-4.7 23.3 5.1 31.1.8 6.4 1.7 12.7 2.4 18.2v-14c5.5-3 10.1-5.4 14.6-7.9 4.1-6.3 6.5-13.1 3.7-21.3-1.3-3.6-3.2-4.7-5.8-1.8-2.2 2.5-4.5 5.2-6.9 7.9m-218.2 59.2-.2-.2c2.4 1.5 4.8 4.1 7.3 4.2 19.6.4 39.3.5 58.9.2 7.9-.2 12-9.5 8.9-18.4-1.6-4.6-6.4-7.9-10.4-6.9-3.6.9-5.9 3.4-6.2 8.5 1.5 0 2.7-.2 3.9 0 1.9.3 5.2-1.4 4.7 3.1-.1 1.3-3.1 3-4.8 3-14.9.2-29.8.2-44.7.1-2.1 0-4.3-.8-6.4-1.3l.2.2c-.5-6.3-1-12.6-1.5-19.6 3.4.2 7.1-.7 7.8.7 1.5 3 1.5 7.1 2.2 11h10.6c-.5-6.1-3.7-7.1-7.6-7.3-.9 0-1.7-1.3-2.5-2 .8-.8 1.6-2.2 2.4-2.2 6-.2 12.1-.1 18.3-.1.2 4.4.4 7.9.6 11.6h10.8c-1-5.4-2.1-6.5-5.8-7.3-1.4-.3-2.7-1.4-4-2.1 1.5-.8 3-2.2 4.5-2.2 7.3-.2 14.6 0 21.9-.2 2.2-.1 4.4-1.2 6.6-1.9.3-.3.5-.6.8-1v-7.8c-.6-2.2-.8-4.6-1.7-6.5-6-12.7-14.4-21.4-26.8-22.9-2.3-.3-4.5-.7-6.8-1-.4 5.4-4 3.1-6.3 3.8-5.9 2-11.8 3.8-17.8 5.7-1.9 1.3-3.7 2.5-5.6 3.8-7.2 5.1-11.3 13.1-13.6 22.7-.2 9.1-.6 18.2-.5 27.3.2 1.7 1.9 3.3 2.8 5m401.8-8.8c8.7 15.6 22.7 18.7 33.3 7.2 2.5-2.7 4.1-6.5 6.1-9.8 1.6 2.1 3.3 4.2 4.8 6.4 5.9 8.5 13.4 11.8 22.1 9.3 8.5-2.4 13.5-9.8 15.8-20 .4-1.9.8-3.9 1.3-6.7h-15.3c0-3.3.2-6-.1-8.6-.2-1.9-.6-4.8-1.5-5.3-1.2-.6-3.2.5-4.5 1.5-3.9 3.2-7.6 6.9-11.5 10.2-1.2 1.1-2.8 1.5-4.2 2.3 4.1-11.2 8.8-21.1 13.4-31 2.3-4.9 2.7-9.9-.2-14.7-2.7-4.6-6.4-6-11.1-5.6-6.1.5-12.2-.1-18.4-.2-12.2 5.1-13.8 9.9-7.6 24 3.8 8.6 7.8 17 11.7 25.5-1.6 0-3.5.7-4.7-.2-4.1-3.2-7.9-7.1-11.9-10.5-1.3-1.1-3.4-2.2-4.5-1.6-1 .5-1.4 3.4-1.6 5.3-.3 2.8-.1 5.6-.1 9.1h-16.1c2.1 5.3 3.4 9.4 4.8 13.4m414 292.3c4.4.4 8.9.9 13.3 1.3.3-.9.6-1.9.9-2.8-2.5-2.5-5-5-7.5-7.4 3.5-4.6 5.4-4.7 9.1-.5 2.6 2.9 4.8 7.5 9.1 3.3l-.2.2c2.8-3.1 5.5-6.3 8.3-9.4l-.6-2.4c-3 .2-6.1.4-10.3.6-2.4-1.9-3.8-5.1-3-11 .8-6.3 1-12.5 4.9-17.5.8-1 .6-3.4.8-5.4-1.9-.3-3.4-.6-4.8-.8v-8.2c2.7-.2 5-.4 8.9-.8-1.6-4.7-2.9-8.4-4.2-12.1l.2.2c-.4-.7-.6-1.6-1.1-1.9-5.9-3.4-12-3.3-17.7-.1-5.4 2.9-8 8.8-7.9 16.1v22.4c-2.7-.6-4.6-1-6.4-1.3v3.3c1.9-.3 4-.7 6.4-1.1v12c0 3.1-.1 6.2.2 9.3.4 4.9 1.1 9.5 1.6 14M536.1 800c-1 3.5-2.1 7-3.4 11.2-5 0-10.4-.2-15.8.1-5.7.3-11.6 7.6-11.3 13.5.4 7.6 6.2 14.2 12.2 14.1 5.2-.1 10.4 0 16.3 0v19.5h34.4v-52.3h12.4c.3-.6.7-1.2 1-1.8-1.7-2.3-3.4-4.5-5.2-6.8-.6-.4-1.1-1.2-1.7-1.2-11.4-.1-22.9-.3-34.3 0-1.5.1-3 2.4-4.6 3.7m204.7-12.9c.3.7.5 1.5.9 2.2 1 1.7 2 3.3 3.1 4.9-1.6.6-3.2 1.8-4.8 1.8-8 .2-16-.1-23.9 0-10.6.2-18.1 9-18.2 21.2-.1 12 7.3 21.2 17.6 21.5 9.4.3 18.9.4 28.3-.1 3.1-.2 6.2-2.3 9.3-3.5 6-3.9 8.7-10.4 8.4-18.4-.4-9.3-4.6-15.8-11.8-19.1-3.2-1.3-5.6-3.1-2.8-7.7 2.3-2 4.7-4.6 2.5-8-1.1-1.7-4.7-3.2-5.8-2.3-1.5 1.3-1.9 4.9-2.8 7.5M451.4 87.5c-.1.7-.3 1.6-.2 2.3 1.8 13.4 3.5 26.8 5.6 40.2.2 1.6 2.1 3.6 3.5 4 2.4.6 5.1.9 6.2-3.3 1.4-5.5 3.1-10.8 4.6-16.2 2.5 4.6 4.1 9.2 5.1 13.9 1 4.8 3.2 6.1 7 5.9 3.9-.3 3.5-3.8 3.9-6.7 1.2-8 2.2-16.1 3.3-24.1.7-5.3 1.4-10.6 2.2-15.8-8.6-2.3-9.1-1.9-10.3 7.3-.8 5.8-1.6 11.7-2.4 17.5-2-3.6-2.7-7.5-4.1-11-.7-1.7-2.7-3.7-4.1-3.7s-3.4 2.1-4.1 3.8c-1.4 3.5-2.1 7.4-3.2 11.4-.5-.7-.8-1-.9-1.3-.8-5.5-1.6-11.1-2.4-16.7-1.3-9.3-1.6-9.6-9.7-7.5m112.9 45.9c7.4 1.5 7.3 1.4 10.7-5.4.6-1.3 2.3-2.3 3.6-2.4 3-.3 6.1-.4 9.1 0 1.4.2 3.1 1.6 3.7 3 2.8 6.1 4.2 6.8 10.4 4.2-.1-.6 0-1.2-.2-1.8-3.9-13.2-7.9-26.3-11.5-39.6-1.3-4.9-3.8-4.9-7-5-3.3 0-5.7.2-7 5-3.4 12.5-7.3 24.8-10.9 37.2-.5 1.6-.6 3.2-.9 4.8m239-30.7c4.2-.5 8.6 2.3 10.9-4.9.4-1.3 4.6-2.2 6-1.2 1.2.9 1.8 5.2 1.1 7.3-.9 2.7-3.2 4.8-5 6.9-3.6 4.1-7.4 8-11.2 11.8-3 3.1-3.5 6.8-2 11 .5.2.8.3 1.2.3 7.5 0 14.9.1 22.4.1 7 0 7.3-.5 5.5-10.3h-14.8c4.4-4.9 7.7-8.4 10.8-12.2 4.8-6 5.4-14.2 1.7-19.8-3.3-5.1-11.2-7.3-17.5-4.8-5.6 2.2-8.5 7-9.1 15.8m41.6 10.2c3.2.4 6.3.4 9.2 1.2 1.3.4 3.1 2.5 3.2 3.9.1 1.9-1 5.4-1.9 5.6-2.8.7-6.8 1.5-8.4-.4-3.7-4.3-7.2-2.9-11.2-2.4.1 6.1 2.7 10.1 6.5 11.2 4.9 1.5 10.4 2.2 15.4 1.4 6.1-1 9.8-7.2 9.8-13.9 0-6.9-2.7-10.6-9.5-13.2-.4-.1-.7-.6-1-.9 8.7-11.8 8.7-11.8 7.8-18.8-8.1 0-16.4-.1-24.6.2-.8 0-2.3 3.2-2.2 4.9 0 1.6 1.6 4.3 2.6 4.4 4.1.5 8.3.2 12.7.2-2.5 6.4-10.2 7.2-8.4 16.6m68.3 740.5h58.7V810c2.8-2.2 5-3.9 7.3-5.6-.1-.3-.3-.5-.4-.8-1.9 1.4-3.9 2.7-6.7 4.7v-26.8h-58.9zm-205.5-719c3-.5 5.4-.9 7.9-1.2 1.2-.2 2.6-.7 3.7-.1 8.4 4.4 15.7-.5 16.8-11.5.4-3.7.3-7.6-.1-11.2-1.3-9.5-7.7-14.1-15.1-11.2-1.2.5-2.4 1.3-4.3 2.3V86.6h-8.7c-.2 15.8-.2 31.1-.2 47.8m-173-33.3V86.6h-8.6v47.7c2.9-.4 5.3-.7 7.7-1 1.2-.1 2.6-.8 3.5-.3 7 3.7 13.5 1 16.1-7 3.5-10.7.4-24.2-6.2-26.8-1.9-.7-4-.8-6-.5s-3.8 1.4-6.5 2.4m367.4-3.3v48.6h8.7v-14.8c13.2 6.6 20 .8 19.8-16.3 0-1 0-2.1-.1-3.1-1-11.8-8.6-17-17.2-11.9-.8.5-1.9 1.2-2.6.9-2.7-.8-5.3-2-8.6-3.4m41.3 33.4c6 4 11.5 5.4 16.4-.7 4.5-5.5 4.7-20.6.7-27.2-3.5-5.8-9.3-6.4-16.8-3.4-3-.4-5.9-.8-9-1.2v47.5h8.7zm-330.3.3c7.3 4 12 3.8 15.6-.1 4.7-5.1 5.7-20.3 1.8-27.6-3.4-6.3-9.9-7.1-17-3.8-2.9-.5-5.9-.9-9-1.4v47.6h8.7c-.1-5-.1-9.5-.1-14.7m32.6-.1c6 3.7 11.3 5.1 16.1-.6 4.5-5.3 5-20.3 1.1-27.1-3.5-6.1-9.5-6.8-17.1-3.6-2.9-.4-5.8-.9-9.2-1.4v43.8c0 1.2.2 2.4.3 3.9h8.8zm240.9 1.3c4.3.7 7.3 1.1 10.8 1.7 0-8.6.2-15.9-.1-23.1-.3-7.5-3.5-11.4-9.4-12.5-8.1-1.5-13.7 1.2-16 8-.2.5.1 1.2.3 3.3 3.3-1.3 6.4-2.1 9.2-3.7 3.6-2 5.6-.9 6.7 4.7-4.2 1.3-8.5 2.3-12.7 4-3.9 1.6-6.3 5.1-5.6 10.5.7 5.2 3.7 8.3 7.7 8.5 3.5.2 6.9-1 9.1-1.4m-365.1-13.6c1.2-11.7-3.1-19.3-11.1-20.5-9.5-1.4-15.5 4.2-16.5 15.2-1 12 3.4 19.5 12 20.6 8.4 1 14.2-2.9 14.8-11.4-3.8 1.3-7.3 2.2-10.6 3.7-4.1 1.8-6.7-1-6.2-7.6zm231.2-.2c-.8-.7-1.2-.9-1.3-1.2-1.3-3.9-2.6-7.7-3.8-11.6-2.7-8.2-2.7-8.2-10.8-6.3 2.3 6.8 4.3 13.7 6.9 20.1 3.2 7.7 4.5 15.1.4 22.8-.5.9-.4 2.3-.5 3.4 7.5 1.1 7.5 1.1 10.4-6.9 3.8-10.9 7.7-21.9 11.5-32.8.8-2.2 1.4-4.4 2.1-6.7-6.1-2.4-9.3-.3-10.8 6.6-.9 4.3-2.7 8.2-4.1 12.6m213.9 4.5-1.2 3c1.8 2.1 3.5 5.4 5.6 6.1 4.3 1.3 9 1.9 13.4 1.3 4.2-.5 7.8-3.7 7.9-9.7s-3-8.9-7.4-10.3c-2.6-.8-5.3-1.5-7.8-2.6-.7-.3-1.8-2.1-1.6-2.7.3-1.2 1.5-2.7 2.3-2.7 1.6 0 3.1 1.2 4.7 1.6 2.7.7 5.5 1.2 8.9 1.9-2.9-9.5-10.9-13.1-18.5-9.7-3.7 1.7-6.6 4.7-6.5 10.1.1 5.2 2.9 7.8 6.5 9.3 2.6 1.1 5.3 1.6 7.8 2.8.9.4 1.9 2.2 1.8 3.2s-1.5 2.5-2.4 2.6c-1.4.2-2.9-.5-4.4-1-2.9-1.2-6-2.2-9.1-3.2m-273.1-13.8c-2.4-10-11.1-13.8-18.7-10-3.5 1.8-6.1 4.6-6.2 9.7 0 5.2 2.7 7.9 6.3 9.4 2.6 1.1 5.3 1.6 7.8 2.8.9.4 2.2 2.5 2 3-.5 1.3-1.7 2.8-2.7 2.9-1.4.2-2.9-.8-4.3-1.2-3-.9-6.1-1.7-10.5-2.9 1.2 3.5 1.4 4.9 2.1 6 4.4 6.9 18.5 7.4 23.2.9 3.3-4.5 2.5-11.5-2-14.4-2.5-1.6-5.5-1.9-8.2-3.2-1.6-.8-3.2-2.1-4.6-3.4-.2-.1.7-2.8 1.1-2.9 1.7-.1 3.5.2 5.2.6 2.9.6 5.7 1.5 9.5 2.7m95.1-9.5c0 10.8.1 20.2-.1 29.6-.1 4.5 2 4.4 4.6 4.4s5.1.5 5-4.5c-.2-12.8-.1-25.5 0-38.3 0-3.5-1-4.7-3.8-4.8-8.8-.3-12.6 9.1-19.2 13.8 1.8 2.9 3.1 5 4.6 7.3 2.9-2.4 5.5-4.6 8.9-7.5M750 570c3-.9 5-1.4 6.9-2 1.4-5.6-.6-10.1-3.7-13.4-3.5-3.6-7.7-6.3-12.3-10 .3-1.1 1-3.6 1.7-6.1l-1.2-1.2c-.8 1.4-2.5 3.2-2.2 4.1 1.6 4.6-.5 5.1-3.4 6-8.6 2.6-13.8 11-13 20.8 1.8.3 3.7.6 6 .9-2 2.9-3.6 5.2-5.2 7.5 4.1-3.7 6.8-9.6 13-8.1 4.9 1.4 10.4-2.4 13.4 1.5m408.4 234.4c3 5.9 5.6 11.3 8.3 16.5 2.6 5.1 5.3 10.1 7.9 15.2 1.9 3.7 3.7 3.6 6 .6 3.8-4.9 5.1-10.7 4.6-17.2-.7-8.2-4.2-14-10.3-17.2-5.6-2.9-11.1-3.4-16.5 2.1M499.9 387.2c0-8.2.1-16.3-.1-24.4 0-1.2-1.6-2.3-2.5-3.5-.7 1.1-1.7 2.2-2 3.5-.4 1.6-.3 3.5-.4 5.6-1.2-.6-2.1-1.4-2.8-1.2-2.3.6-6.1.8-6.6 2.4-1.3 4.2-1.7 9.1-1.2 13.5.2 1.9 3.5 4.2 5.7 4.7 3 .6 6.1-.3 9.9-.6m-46.4-27.4L452 361c2.1 7.9 4.1 15.8 6.4 23.6.4 1.4 2.3 2.8 3.6 3 1.1.2 3.2-1 3.5-2.2 2.4-8.1 4.5-16.4 6.7-24.8-4.6-.6-4.6-.6-5.7 3.2-1.4 4.9-2.7 9.9-4.1 15.1-4.5-5.7-1.5-16.5-8.9-19.1m65.2 23.5c-.2-.6-.3-1.2-.5-1.8-1.8.8-3.7 2.2-5.6 2.2-1.5 0-3.1-1.6-4.6-2.5l.6-1.8c3.6-.2 7.2-.4 10.7-.6-.2-7.8-2.2-11.3-6.7-12-4.1-.6-7.3 1.2-8.9 6.3-1.6 5.4-.1 11.5 3.3 13.8 4 2.5 8.6 1.1 11.7-3.6m20.4-5.9c0-6.9-3.1-10.9-8.3-10.8s-8.2 4-8.2 10.9c0 7.2 2.7 10.5 8.3 10.5 5.6-.1 8.3-3.5 8.2-10.6m43.3.3c.1-6.9-2.9-11-8-11.1-5.2-.1-8.5 4-8.6 10.6-.1 7 2.7 10.7 8.1 10.8 5.8.1 8.5-3.2 8.5-10.3m19.6-.2c0-6.9-3.1-10.9-8.3-10.9-5.1 0-8.4 4.2-8.4 10.8 0 7 2.8 10.6 8.3 10.6 5.7 0 8.4-3.5 8.4-10.5m-42.2 9.7v-21.7c1.4-.1 2.4.1 3.1-.3 1.2-.8 2.3-1.9 3.4-2.9-1.2-.8-2.3-2-3.5-2.2-2.7-.3-5.4-.4-8.1 0-2.2.3-4.4 1.3-6.6 2 1.9 1.6 3.7 3.2 6.6 5.5 0 4.1.1 9.9 0 15.7-.3 4.2 1.2 5.3 5.1 3.9m64.2-5.4c-.2.7-.4 1.4-.5 2.1-3.1-.5-6.1-.9-10-1.5 2.7 6 6.4 6.2 9.8 5.2 2.1-.6 3.7-3.4 5.5-5.2-1.5-2.2-2.7-4.8-4.5-6.4-1.6-1.4-3.8-1.8-5.7-2.6.1-.8.3-1.7.4-2.5 2.9.4 5.8.9 8.7 1.3.1-.6.3-1.2.4-1.7-1.3-1.1-2.5-2.4-4-3.1-3.9-1.9-8.7-.1-9.6 3.8-1.3 5.8 2.2 6.9 5.6 8.1 1.5.4 2.7 1.7 3.9 2.5m-15.3 6.7c.6-.6 1.2-1.1 1.8-1.7 0-7.9.1-15.9-.1-23.8 0-1.3-1.5-2.5-2.3-3.8-.8 1.3-2.2 2.6-2.2 3.9-.2 6.9-.3 13.8 0 20.7 0 1.7 1.8 3.2 2.8 4.7m163.2 451.2c-.2 3.5-.8 5.8-.5 8 .5 3.1 1.1 6.5 2.7 8.8.7 1 4.5.2 5.6-1.2 1.1-1.5 1.6-6.2.7-7-1.8-1.7-4.6-1.8-6.9-2.5-.3-.1-.6-.1-1-.3-.1-1.5-.3-3-.6-5.8m-297-452.9 1.7 1.7c1-1.5 2.8-2.9 2.9-4.6.4-4.1.4-8.3 0-12.5-.1-1.5-1.6-2.8-2.5-4.1-.7 1.3-2 2.6-2.1 3.9-.1 5.2 0 10.4 0 15.6m52.8 390.7c0 3.8-.4 7.3.1 10.7s1.7 6.6 3.1 11.8c1.4-8.5 2.5-15.4 3.7-22.6-3.2.1-4.8.1-6.9.1m-68.4-592.1c-6.6-3.5-6.6-3.5-6.3-7.1 2-.3 4-.7 6.1-1v-1.2c-2-.3-4.1-.5-6.4-.8 0-1.1-.3-2.8-.1-3 2.2-1.2 4.5-2.1 6.8-3 0-.2-.1-.5-.1-.7H451v16.9c3-.1 5.7-.1 8.3-.1m106-10.8c1.6 10.5 1.6 10.5 5.1 10.1-3.7-3.7-3.8-8.1-.7-10.6-1-1.9-2-3.7-3.2-6.2-.3 8.6-6 3.5-8.4 5.8V185c1.9-4.3-.7-12.6 7.2-10.4m-10.8 4.6c.3-.5.6-1 .8-1.5-1.5-1.6-2.9-4.4-4.5-4.6-1.5-.2-4.5 2.1-4.7 3.7-.3 2.6.6 6.1 2 8 .8 1.1 3.8-.2 5.8-.4v-2.1c-2.6 1.1-5.7 4-6.4-2.4 2.5-.2 4.7-.5 7-.7m188.3 749.3c-3.5 1.5-5.9 1.7-6.7 3.1-2.3 4.3-3.1 9.4 3.1 8.1 1.5-.2 2.1-6.4 3.6-11.2m220-22.6c-3.5 1.5-5.9 1.7-6.6 3.1-2.2 4.3-3 9.4 3.2 8.1 1.4-.3 2.1-6.4 3.4-11.2m230.3-280.1c-3.4 1.5-5.9 1.7-6.6 3.2-2.2 4.4-2.9 9.5 3.3 8 1.4-.3 2-6.5 3.3-11.2M605.7 182.5c.1-.8.3-1.7.4-2.5 2.3-.3 4.5-.5 6.8-.8l.9-1.8c-1.7-1.5-3.3-4-5.1-4.3-1.3-.2-4.1 2.3-4.2 3.7-.2 2.7.6 6.1 2.1 8.1.8 1.1 3.7-.2 5.7-.5-.1-.2-.2-.5-.3-.7zm17.6 3.8c.5-.7 1.1-1.3 1.6-2-1.1-3.8-2-7.7-3.5-11.2-.3-.6-3.1.5-5.8.9 3.3.6 5 1 6.7 1.3-2.8 3-4.8 5.1-6.9 7.3 2.7 1.3 5.3 2.5 7.9 3.7m12.9-4.1c.2-.8.3-1.6.5-2.4 2.3-.2 4.5-.4 6.8-.7.3-.7.5-1.4.8-2.1-1.8-1.4-3.5-3.8-5.4-4-1.3-.2-3.9 2.5-4 4-.1 2.7.9 6 2.3 7.9.7 1 3.6-.4 5.9-.8-2.8-.8-4.9-1.3-6.9-1.9m-165-13.6c-.3 0-.6-.1-.9-.1-.3 1.5-.6 3-.5 2.7-3 1.8-5.8 2.4-6.6 4.3-.9 2.2-.8 6.8.3 7.9 1.9 1.8 5.1 1.6 7.7 2.3zM593.7 182c-2.7.2-5.2.4-7.7.6-.1-3.7-.1-7.5-.2-11.2h7.9c-.9-2.7-3.5-4.5-6.2-3-2 1.1-3.8 4.4-4.3 7.1-.7 3.8-.4 8.4 3.5 9.8 3 1.1 5.9.5 7-3.3m80.5-1.9c-1.6-6.4-4.1-10.5-9.5-11.4.3 7.3 3.9 11.8 9.5 11.4m-165.9-8.5c-1.1-3.8-4.5-5-7-3.1-2 1.6-3.2 5.8-3.6 9.1-.5 3.6.6 7.2 4.2 7.9 3 .6 5.5-.2 6.2-3.3h-7.8c.1-3.7.1-7.5.2-11.2 2.6.3 5.1.4 7.8.6m421.1 736.2v11.1c3.7-1.1 8.2-1.9 5.9-8.4-.6-1.5-3.6-1.7-5.9-2.7m475-275c2.5 2.4 3.8 4.7 5.2 4.7 1.1 0 3.2-2.8 3.1-4.2-.1-1.9-1.9-3.6-3-5.4-1.3 1.3-2.7 2.6-5.3 4.9m-264.9.6c2.6 2.1 4.1 4.3 5.4 4.1 1.2-.1 3-3 2.9-4.4-.2-1.9-2.1-3.5-3.2-5.2-1.4 1.4-2.7 2.8-5.1 5.5m-365.8-6.1c-.6 0-1.3-.1-1.9-.1-.8 1.9-2.3 3.8-2.2 5.7 0 1.7 1.7 3.3 2.7 4.9 1.3-1.5 3.3-2.9 3.6-4.6.1-1.7-1.4-3.9-2.2-5.9M596.2 907.4h-1.9c-.7 1.9-2.1 3.9-2 5.8.1 1.6 1.8 3.1 2.9 4.7 1.2-1.6 3.2-3.1 3.4-4.8 0-1.7-1.6-3.8-2.4-5.7m145.8 5.5c2.5 2.4 3.8 4.7 5.1 4.7 1.1 0 3.2-2.8 3.1-4.2-.1-1.9-1.9-3.6-2.9-5.5-1.3 1.4-2.7 2.7-5.3 5m176.6-.1c2.1 2.3 3.5 5.1 4.6 4.9 1.4-.3 3.4-2.9 3.3-4.5 0-1.7-1.8-4-3.3-4.8-.6-.5-2.4 2.2-4.6 4.4m239.2-280.4c2.4 2.6 3.9 5.3 4.9 5.1 1.4-.3 3.2-2.8 3.3-4.6.1-1.5-1.7-4.5-2.8-4.6-1.2-.2-2.8 2-5.4 4.1M508.7 178.9c3.3 3.2 4.9 6 7 6.5 3.4.9 4.7-2.5 4.7-6.2.1-3.7-1.2-7.1-4.6-6.4-2 .5-3.8 3.1-7.1 6.1m634.1 320.9c.6-1.7 1.9-4.4 2.5-7.4.3-1.5-.3-3.8-1.1-4.8-.6-.7-2.9-.3-3.5.7-.7 1.1-.8 3.3-.4 4.8.7 2.7 1.9 5.2 2.5 6.7M502 820.4c.9-15.5-2.2-15.8 13.1-15.6h12.5c0-.4 0-.8-.1-1.2h-14.6c-11.7 0-12 .4-11.4 14.7-.1.5.1.8.5 2.1M523.6 185h1.3c0-2.1-.4-4.3.1-6.2.4-1.7 1.7-3 2.7-4.4 1 1.5 2.4 2.9 3 4.7s.3 3.9.4 5.9c.5-.1 1-.1 1.6-.2-.5-3.7-.3-8-1.9-10.8-.9-1.6-4.7-.7-7.1-.9-.1 4.7-.1 8.3-.1 11.9m109.4.4c-4.2-4.3-4.4-8.7-1.2-11.2-1.1-2-2.1-3.9-3.2-6-2.4 9.2-.9 16.1 4.4 17.2m-94.7.1c.5.1 1.1.1 1.6.2 1.3-4 2.6-7.9 3.8-11.9-.4-.2-.7-.4-1.1-.6-1.1 2.8-2.2 5.6-3.5 9.1-1.4-3.7-2.4-6.4-3.4-9.1-.3.2-.7.4-1 .6 1.1 3.8 2.3 7.8 3.6 11.7M1169.2 851c-1.4-2.8-2.5-5.2-4-8.2-1.4 3-2.4 5.3-3.7 8.2zm1.6-.1h7.4c-1.7-3.2-2.9-5.7-4.4-8.4-1.2 3.2-2 5.6-3 8.4m142.4 54.4v11.3l-2.4-3.6c1.8-1.3 3.6-2.6 5.4-3.8.4.7.7 1.4 1.1 2.1l-3-2.4c1.2-1.2 2.5-2.3 3.7-3.5-1.4-.1-3-.1-4.8-.1m-591.3 23.5c-.3.2-.6.3-.9.5 1.2 3.8 2.3 7.5 3.5 11.3.4-.1.9-.1 1.3-.2 1-3.7 2-7.5 3.1-11.2-.3-.1-.6-.2-.8-.4-.9 2.7-1.8 5.5-3 9-1.3-3.6-2.3-6.3-3.2-9m450.5-302.7c-.3.1-.6.3-.9.4 1.1 3.8 2.3 7.6 3.4 11.4.4 0 .8-.1 1.2-.1 1.1-3.8 2.1-7.6 3.2-11.3-.3-.1-.5-.2-.8-.4-.9 2.7-1.9 5.5-3.1 9-1.1-3.5-2.1-6.3-3-9m-631 3.6c-.1-.6-.3-1.2-.4-1.8 1.3-.8 2.6-1.7 5-3.1-2.6.2-4.2.4-5.6.5v12.1h5.4c-1.5-1-3-1.9-4.4-2.8 1.3-1.4 2.6-2.8 3.7-4-.9-.2-2.3-.5-3.7-.9m402.9 288c.5.1 1 .2 1.4.2 1.1-3.8 2.2-7.5 3.3-11.3-.3-.1-.6-.3-.8-.4-.9 2.7-1.8 5.5-3 8.9-1.2-3.4-2.2-6.1-3.1-8.8-.3.1-.5.3-.8.4 1 3.7 2 7.4 3 11M484.8 185.2c-3.4-4.8-3.4-8.6-.5-11.4l-3-5.4c-2.2 8.9-.8 15.8 3.5 16.8m421 720.8c-2.4 3.1-2.6 7.3.2 10.8 1 1.2 3.9.2 6 .1-1.9-1.3-5-.7-5.1-1.2-.8-3.1-.8-6.4-1.1-9.7m-130.1 10.6c.5-4.1 1.1-8.2 1.6-12.1-3.1 2.2-3.1 2.2-1.6 12.1" class="st0"/><path d="M1920 2.2c-2-.1-4-.4-6.1-.4H6c-2 0-4 .3-6 .4v-54h1920zM92.4-20.2c.4-.3.9-.7 1.3-1 0-3.7.7-7.8-.2-11.1-.8-2.7-3.5-6.3-5.5-6.4s-4.8 3.1-6 5.7c-1 2.2-.5 5.7-.3 8.6.1 1.3 1.1 2.4 1.7 3.6.7-.9 1.3-1.9 2-2.8.8-1 1.6-1.9 2.5-2.9.8 1.1 1.5 2.1 2.3 3.2.7 1.1 1.5 2.1 2.2 3.1m354.7-1.6c2.3-.7 6.9-1.1 5.8-6.2-.8-3.8-4.3-8.6-7.2-9.4-5-1.4-4.3 4.6-4.4 8.6-.2 4.4.9 7.4 5.8 7m-346.9-4.3c4.1-.4 7.4-1.7 6.8-7.7-.5-4.4-4.4-6-11-4.2 0 4.8-.1 9.7.1 14.7 0 .9.9 1.8 1.4 2.7.8-.8 1.7-1.5 2.2-2.5.4-.8.3-2 .5-3m13.3-.1c2.9-.7 6.9-1.1 6.1-7.5-.6-4.9-3.7-6.2-10.5-4.6v17.2c.4.3.9.5 1.3.8 1-1.7 2-3.5 3.1-5.9m17.7-7.6c.3-.8.6-1.7.9-2.5-2.2-.9-4.5-2.6-6.7-2.5-1.5.1-3.7 2.6-4 4.5-1.4 7 4.8 5.1 8.2 9.5-3.6-.5-5.8-.9-8.1-1.2-.2.7-.5 1.3-.7 2 2 1.2 3.9 3.3 5.9 3.3 1.7 0 4.4-1.8 5.1-3.7 2.9-7.8-5-5.8-7.3-10.8 2.8.6 4.7 1 6.7 1.4m-67 9.1c1-4 2.2-7.7 2.6-11.4.1-.8-3.3-2.9-4.9-2.8-1.8.2-3.4 2.4-5.1 3.7.3.6.6 1.3.9 1.9 1.8-.5 3.6-1 5.3-1.5.3.4.6.8.9 1.1-2.5 3.9-4.9 7.8-7.4 11.7.3.6.7 1.1 1 1.7 3.4-.4 6.8-.7 10.3-1.1 0-.7-.1-1.5-.1-2.2-1.4-.5-2.8-.9-3.5-1.1m4.6-1.8c1.6 6.2 4.6 6.8 7.9 5.4 3.2-1.3 4-4.1 2.3-7.9-.3-.7-.6-2-.3-2.6 1.7-4.2.1-6.3-3-7.4-3-1-4.9.5-6.1 5 2-.2 3.9-.5 5.8-.7.1.5.2.9.3 1.4-1.3.8-2.6 1.6-4.3 2.7l4.8 4.4c-.2.5-.3 1-.5 1.5-1.9-.5-3.9-1-6.9-1.8m-17.6-12v17.4c.7.3 1.4.5 2.1.8 3-3.4 1-8.9 1.4-13.3.3-2.7.9-6.4-3.5-4.9m158.4 14.6v-12.4c-2.4 2.8-7.7 1.7-5.8 8 .5 1.7 3.1 2.5 5.8 4.4M28.5-18.1c1.6-2.4 3.7-4.3 3.6-5.6-.2-1.9-2.2-3.4-3.5-5-1.3 1.6-3.3 3.1-3.6 4.9-.2 1.3 1.9 3.2 3.5 5.7m15.1-18.4c-2-2.1-3.4-4.5-4.7-4.4s-3.5 2.5-3.5 4c-.1 1.5 1.9 4.1 3.2 4.3 1.3.3 2.8-2 5-3.9m288.3-.2c-.4.1-.9.1-1.3.2-1.1 3.3-2.2 6.6-3.1 9.5h7.6c-1-3.1-2.1-6.4-3.2-9.7m432.5 12.2c.6-1.4.7-1.6.8-1.8-1.2-.5-2.4-1.1-4.8-2.1 2.8-.7 4.3-1.1 5.8-1.5.1-.6.2-1.1.4-1.7l-4.2-2.4c-.7 1.9-2.2 4-1.9 5.6.3 1.5 2.5 2.5 3.9 3.9m-291-11.8v10.5c3.7.5 6.8 1.3 6.9-5.1.1-6.5-3-6.2-6.9-5.4"/><path d="M512.6 1080c3.6-15.7 12.2-23.3 26.5-23.4 7.4 0 17.8 11.9 20.4 23.4h-19.4c.2-.3.3-.9.5-1 2.6-.9 3.3-3 1.9-5.5-.7-1.2-2.4-1.5-3.7-2.2-.5 1.9-1 3.9-1.4 5.8-.1.5 0 1 0 1.4-2 .5-3.7 1-5.5 1.5zm616.6 0c-1.2-2.9-2.5-5.8-3.7-8.7-.1-1.6-.2-3.1-.3-5.9 9.6.7 18.8 1.4 27.9 2 2.6 4.2 5.1 8.3 7.7 12.5-10.6.1-21.1.1-31.6.1m-426 0c3-4.1 6.1-8.2 9.1-12.3 8.7-5.5 17.9-4.1 27.1-3.8 1 9.1 1 9-5.7 9.2-6.3.2-12.9-1.1-18.4 4.4-.3.8-.6 1.6-.9 2.5zm60.7-15c4.6 5 9.1 10 13.7 15h-10.2c-7.4-9.6-17.4-5.8-26.4-7.4v-9.5c7.8.7 15.4 1.3 22.9 1.9" class="st0"/><path d="M1160.8 1080c-2.6-4.2-5.1-8.3-7.7-12.5-3.2-.9-6.4-1.9-9.6-2.5-3.7-.7-7.5-.9-11.2-1.4.9-1.6 1.8-4.5 2.6-4.5 7.6.3 15.6-3.9 22.6 3.1 4.7 4.7 8.9 9.7 9.5 17.8zm-446.4 0c.3-.8.6-1.6.9-2.5 2.9-1 5.8-2.7 8.7-2.8 10.8-.3 21.7-.4 32.5.2 3 .2 5.9 3.3 8.8 5-16.9.1-33.9.1-50.9.1m193.6 0c.8-1.7 1.5-3.4 2.3-5.1.9-.4 1.8-.8 2.8-1.2 1.9-.7 3.8-1.3 5.7-2 7.4-2.4 16.1 1.2 19.8 8.2-10.2.1-20.4.1-30.6.1" class="st0"/><path d="M765.4 1080c-2.9-1.7-5.8-4.8-8.8-5-10.8-.7-21.7-.5-32.5-.2-2.9.1-5.8 1.8-8.7 2.8 5.5-5.5 12.1-4.3 18.4-4.4 6.7-.2 6.7-.1 5.7-9.2-9.1-.3-18.4-1.8-27.1 3.8 3.6-1.7 7.2-4.8 10.9-5 11.1-.7 22.3-.4 33.5-.1 2.4.1 4.8 1.5 7.3 2.3-7.5-.6-15.1-1.2-22.9-1.8v9.5c9 1.5 19-2.2 26.4 7.4-.9-.1-1.6-.1-2.2-.1m194.6 0c1-4.3 1.6-8.9 3.2-12.9.7-1.8 3.6-3.3 5.3-3 1.3.2 3 3.2 3.4 5.3.6 3.4.3 7 .3 10.6zm-21.4 0c-3.7-7-12.4-10.7-19.8-8.2-1.9.6-3.8 1.3-5.7 2 7.5-6.2 15.2-4 22.8 0 1.7-10.7.1-13.5-6.5-12.5 5-3 7.9-.8 8 6.5 0 4.7.3 8.9 3.3 12.2zm-406.6 0c1.7-.5 3.5-.9 5.5-1.5 0-.3-.1-.9 0-1.4.4-2 .9-3.9 1.4-5.8 1.3.7 3 1 3.7 2.2 1.4 2.5.7 4.7-1.9 5.5-.2.1-.3.6-.5 1z"/><path d="M1353.4 1080h-16.3c5.2-5.5 10.9-5.5 16.3 0" class="st0"/><path d="M1353.4 1080c-5.4-5.5-11.1-5.5-16.3 0h-2c7.2-7.2 13.1-7.2 20.4 0zm-46.9 0h2zm76.4 0h2z"/><path d="M1151.9 797.5c7.6 19.7 3.2 40.4-10.5 50.1-11.1 6.9-22 6.3-32.8-1.3-14.8-12.1-18.2-45.8 1.1-61.2 8.1-5.2 16.7-6.9 25.7-4l-.2-.1c5.6 5.5 11.1 11 16.7 16.5" class="st0"/><path d="M753.1 835.1c-3.1 1.2-6.2 3.4-9.3 3.5-9.4.5-18.9.4-28.3.1-10.3-.3-17.7-9.5-17.6-21.5.1-12.2 7.6-21 18.2-21.2 8-.1 16 .1 23.9 0 1.6 0 3.2-1.2 4.8-1.8-1-1.6-2.1-3.2-3.1-4.9-.4-.6-.6-1.4-.9-2.2 2 .9 4.1 1.8 6.1 2.7-2.8 4.6-.4 6.4 2.8 7.7h-18.9v41.1c7.8-1.2 15-2.4 22.3-3.5M451.4 87.5c8-2.1 8.4-1.8 9.7 7.6.8 5.6 1.6 11.1 2.4 16.7 0 .3.4.6.9 1.3 1.1-4 1.8-7.9 3.2-11.4.7-1.8 2.7-3.8 4.1-3.8s3.4 2 4.1 3.7c1.4 3.5 2.1 7.4 4.1 11 .8-5.8 1.6-11.7 2.4-17.5 1.3-9.3 1.7-9.7 10.3-7.3-.7 5.2-1.4 10.5-2.2 15.8-1.1 8-2.1 16.1-3.3 24.1-.4 2.9 0 6.4-3.9 6.7-3.8.3-6-1.1-7-5.9-1-4.7-2.6-9.3-5.1-13.9-1.6 5.4-3.2 10.7-4.6 16.2-1.1 4.2-3.8 3.9-6.2 3.3-1.4-.4-3.2-2.4-3.5-4-2.1-13.3-3.8-26.8-5.6-40.2 0-.8.2-1.7.2-2.4"/><path d="M936.5 547.2c-3.9-8.5-8-16.9-11.7-25.5-6.2-14.1-4.5-18.9 7.6-24-.4 2.2-.9 4.4-1.3 6.7-.2.1-.4.3-.5.5-4.3 3.4-3.8 7.7-1.6 12.4 3.8 8.3 7.6 16.7 11.5 25 1.3 5 3 9.4 8.5 7.9 1-.3 2.4 1 3.5 1.9 4.3 3.7 8.4 7.6 12.8 11.2 3.6 2.9 5 1.9 5.3-3.5 0-1 .1-2.1 0-3.1-.6-5.3 1.3-7.3 5.4-6.7 1.3.2 2.7.2 4.1 0 3.6-.5 5 1.4 4.5 5.8-2.3 10.2-7.3 17.5-15.8 20-8.7 2.5-16.2-.8-22.1-9.3-1.5-2.2-3.2-4.3-4.8-6.4-.9-2.9-1.8-5.8-2.6-8.7-1.1-1.5-1.9-2.9-2.8-4.2M753.1 835.1c-7.3 1.2-14.5 2.3-22.2 3.5v-41.1h18.9c7.2 3.4 11.4 9.8 11.8 19.1.2 8-2.5 14.6-8.5 18.5m.9-11.1.6-3.6c-2.4-1.2-4.7-2.4-7.1-3.6l-.9 6.6c2.4.2 4.9.4 7.4.6" class="st0"/><path d="M576.8 797.4c1.7 2.3 3.4 4.5 5.2 6.8-.3.6-.7 1.2-1 1.8h-12.4v52.3h-34.4v-19.5c-5.9 0-11.1-.1-16.3 0-6 .1-11.9-6.5-12.2-14.1-.3-5.9 5.6-13.2 11.3-13.5 5.4-.3 10.8-.1 15.8-.1 1.3-4.2 2.3-7.7 3.4-11.2l-.1-.2c-.4 3.5-.9 7.1-1.3 10 9.6 2 18.4 3.9 27.2 5.8-2 .5-4 .4-5.9.7-.4.1-.7 1.9-1 2.9-1.4-1.5-2.7-3-4.2-4.3-4.1-3.6-8.2-3.3-12.1.4-3.7 3.5-4.8 9.3-2.9 14.5 2.7 7.4 8.1 9.2 15.7 5.2-4.4 6.7-10.9 2.5-16.2 4.2v18.5c9.3 0 18.3-.2 27.2.1 3.9.1 5.3-1.1 5.2-6.2-.3-14.6-.2-29.2 0-43.8 0-2.6 1.3-5.2 2-7.8l-.1-.1c-.3 1.5-.5 3.1-.8 4.6H581c-1.7-3-2.9-5.1-4.1-7.1zm354.3-293c.4-2.2.9-4.4 1.3-6.7 6.1.1 12.3.8 18.4.2 4.7-.4 8.3 1 11.1 5.6 2.8 4.8 2.5 9.8.2 14.7-4.6 9.9-9.3 19.8-13.4 31 1.4-.8 2.9-1.2 4.2-2.3 3.9-3.3 7.6-7 11.5-10.2 1.3-1.1 3.4-2.1 4.5-1.5.9.5 1.4 3.4 1.5 5.3.3 2.6.1 5.3.1 8.6h15.3c-.6 2.8-1 4.7-1.3 6.7.5-4.3-.9-6.2-4.5-5.8-1.3.2-2.7.2-4.1 0-4.1-.6-6.1 1.4-5.4 6.7.1 1 .1 2.1 0 3.1-.3 5.4-1.7 6.5-5.3 3.5-4.4-3.6-8.5-7.5-12.8-11.2-1-.9-2.5-2.2-3.5-1.9-5.5 1.5-7.1-2.9-8.5-7.9 1-.2 2.6 0 3-.8 4.5-9.1 8.9-18.1 13-27.5.9-2-.1-5.2-.2-9.4-4.1 3.8-6.7 6.3-9.1 8.6.1.6.1.8.1 1 .1 2.2.2 4.3.3 6.5-1.4-1.2-2.6-2.6-4.1-3.4-1.3-.6-2.8-.6-4.2-.4-.7.1-1.4 1-2.7 2.2.5-3.1.8-5 1.1-7 5.9.7 11.5.2 14.8-7.9-2.2-.3-4.5-.2-6.4.8-1.7 1-3.2 4.6-4.4 4.3-1.8-.4-3.3-3.2-5.9-6-.7.3-2.6.7-4.6 1.1m17.6-2.4c-4.6-4.4-9-4.5-14.1 0zm186.5 7.7c1.1-.3 2.2-.7 3.3-1 2.4 5.9 4.7 11.7 6.9 17.2h10.6v-17.6h1V529c2.7-.6 5.2-2.1 7-1.2 1.8.8 2.9 3.9 5 7h12.2c-.5 6.1-3.8 6.1-6.6 4.8-3.8-1.7-6.1-2.8-8.1 3.4-1.6 4.9-5.5 3.6-8.8.5-.2 2-.4 3.8-.8 6.8-.6-2.1-.9-3.2-1.6-5.7-1.8 2.8-4 4.7-4.6 7.3-1.6 7.4-5.2 12.4-10.4 16 .8-2.5 1.4-4.3-1-6.7-3.7-3.5-6.9-8-10.1-12.3-2.2-2.8-3.1-6.1-.5-9.3 2.7-3.3 5.2-1.7 7.5 1 2.2 2.6 4.4 5.2 7.2 8.5 0-6.7-.4-12 .1-17.1.8-9.7-1.6-17.2-8.3-22.3"/><path d="M498.4 539.1c2.3-9.6 6.4-17.6 13.6-22.7 1.9 4.2 3.9 8.4 5.5 12.8.9 2.4 1 5.2 1.4 7.8-2.8 2.6-5.7 5.3-9.9 9.1.7 4.7 1.7 11.2 2.7 17.7l-.2-.2c2.1.9 4.2 2.4 6.3 2.5 7.9.3 15.9.1 23.9.1v8.2c-10.5 0-20.7.3-30.9-.1-3.5-.1-7-2-10.5-3.1l.2.2c-.7-4.2-1.8-8.3-2-12.5-.4-6.5-.1-13.2-.1-19.8" class="st0"/><path d="M564.3 133.4c.3-1.6.5-3.2.9-4.7 3.6-12.4 7.5-24.7 10.9-37.2 1.3-4.8 3.8-5 7-5s5.7.1 7 5c3.6 13.3 7.6 26.4 11.5 39.6.2.6.1 1.2.2 1.8-6.2 2.6-7.6 1.9-10.4-4.2-.7-1.4-2.4-2.8-3.7-3-3-.4-6.1-.4-9.1 0-1.3.1-2.9 1.1-3.6 2.4-3.4 6.7-3.3 6.8-10.7 5.3m24.1-17.3c-1.7-5.9-3.3-11.2-4.8-16.5h-1.1c-1.5 5.3-3 10.7-4.7 16.5zm214.9-13.4c.6-8.8 3.6-13.6 9.2-15.9 6.2-2.5 14.1-.3 17.5 4.8 3.7 5.7 3.1 13.9-1.7 19.8-3.1 3.8-6.5 7.3-10.8 12.2h14.8c1.8 9.8 1.5 10.3-5.5 10.3-7.5 0-14.9 0-22.4-.1-.3 0-.7-.2-1.2-.3-1.6-4.2-1.1-7.9 2-11 3.8-3.9 7.5-7.8 11.2-11.8 1.9-2.1 4.1-4.2 5-6.9.7-2.1.1-6.4-1.1-7.3-1.4-1-5.6-.1-6 1.2-2.4 7.4-6.8 4.5-11 5"/><path d="M1312.6 558c1.7-4.3 3.3-8.5 5-12.8 1.1-1.2 2.1-2.5 3.5-4 3.7 5.5 10.6 5.3 12.9 12.7 2.6.6 5.8 2.5 7.6 1.3 1.9-1.2 3.7-5.9 3.2-8.5-.9-5-4.7-6.5-8.8-5.6-1.9-2.1-3.8-4.1-5.6-6.2.3-.8.6-1.7 1-2.5 3.7-.4 7.5-1 11.2-1.1.8 0 1.9 1.4 2.3 2.5 3 9 6 10.2 12.9 5.3 1.8 1.6 3.6 3.1 5.3 4.7.1.3.3.5.4.8-.9 1.3-1.7 2.9-2.8 3.9-2.4 2-4.9 3.7-7.4 5.6-.3 1.6-.6 3.1-1 4.7 1.7 1.8 3.4 3.7 5.4 5.9h-45.1zm-177.4-48.3c6.7 5.2 9.1 12.6 8.3 22.2-.4 5.2-.1 10.4-.1 17.1-2.8-3.3-5-5.9-7.2-8.5-2.3-2.7-4.8-4.3-7.5-1-2.6 3.2-1.7 6.5.5 9.3 3.3 4.2 6.4 8.7 10.1 12.3 2.4 2.3 1.8 4.2 1 6.7-5.4 3.6-10.7 7.3-16.1 10.9h-3.2c-.1-.7-.3-1.4-.4-2.1-.8-3.3-4.4-5.9-2.1-10.3 1.7 1.3 3.2 2.5 4.7 3.6 2.9 2.5 5.8 3.9 8.4-.3 2.5-4.1.5-7.1-2-10.1-3.6-4.3-7-8.9-10.5-13.3-.1-10.6-1.9-21.4 2.1-31.6 3.9-4.6 8.4-6.9 14-4.9m-12 15.1c8.2 6.2 10.5 6.1 15.5-.9-.9-1.3-1.8-2.7-2.8-4.1-4.7-3.1-8.9-1.8-12.7 2.2-.4.4-.1 1.9 0 2.8" class="st0"/><path d="M844.9 112.9c-1.9-9.3 5.8-10.2 8.3-16.5-4.4 0-8.6.3-12.7-.2-1-.1-2.6-2.8-2.6-4.4 0-1.7 1.4-4.8 2.2-4.9 8.2-.4 16.5-.2 24.6-.2.9 7 .9 7-7.8 18.8.4.3.6.8 1 .9 6.9 2.6 9.6 6.3 9.5 13.2 0 6.7-3.7 12.9-9.8 13.9-5 .8-10.4.1-15.4-1.4-3.8-1.1-6.5-5.2-6.5-11.2 4-.5 7.5-1.9 11.2 2.4 1.6 1.8 5.6 1 8.4.4 1-.2 2.1-3.7 1.9-5.6-.1-1.5-1.9-3.5-3.2-3.9-2.8-1-5.9-1-9.1-1.3m68.3 740.5v-71.9h58.9v26.8c2.9-2 4.8-3.4 6.7-4.7.1.3.3.5.4.8-2.2 1.7-4.4 3.4-7.3 5.6v43.4zm43.9-31.1c-.7 1.1-1.3 2.2-2.1 3.4 1 .4 1.7.7 2.7 1.2-6.6 1.5-4.9 3.4-.2 5.2-.9.3-1.7.6-3.1 1.1 5.6 5.3 11 2.6 16.4 2.9v-13.5h-13.9c4.6-.7 9.1-1.4 13.8-2.1v-37.8c-5.5-1.4-9.1-.5-11.6 6.4-2.9 8.1-6.6 7.6-10.4-.2-.7-1.4-1.2-3-1.9-4.4-1.7-3.3-6.3-3.3-8-.1-.8 1.6-1.4 3.3-2.2 4.9-4 7.5-7 7.8-10.1-.1-2.8-7.1-6.6-8.4-12.3-6.4v37.6c5.8 2.5 12.6-2.7 17.6 5-1.5.6-2.5.9-3.7 1.4 1.6.6 2.9 1 4.2 1.5 0 .5.1 1 .1 1.5-1.4.8-2.8 1.5-4.3 2.3 1 .3 1.7.6 2.5.9v2.2c-5.5.5-11 1.1-16.4 1.6v15.4h56.3v-14.8c-4.2 0-8.1.9-11.6-.3-2.4-.8-5.1-4-6.1-6.9-.8-3.4.7-7 4.3-7.9M707.7 134.4V86.6h8.7v14.9c1.9-1 3.1-1.8 4.3-2.3 7.4-2.9 13.9 1.7 15.1 11.2.5 3.7.5 7.5.1 11.2-1.1 11.1-8.4 15.9-16.8 11.5-1-.5-2.4 0-3.7.1-2.2.3-4.7.8-7.7 1.2m19.3-17.6c0-4.9-.3-9.4-4.9-9.6-4.8-.2-5.6 4.2-5.5 9 .1 4.5 0 9.2 5.2 9.2 5.3.2 4.9-4.7 5.2-8.6m-192.3-15.7c2.7-1 4.6-2.1 6.5-2.4 2-.3 4.1-.2 6 .5 6.6 2.6 9.7 16.1 6.2 26.8-2.6 8-9.1 10.7-16.1 7-1-.5-2.3.2-3.5.3-2.4.3-4.9.6-7.7 1V86.6h8.6zm10.6 15.2c-.1-4.5-.5-9-5.1-9-4.9 0-5.4 4.5-5.3 9.2.1 4.6.2 9.1 5.3 9 5.3-.1 4.8-5.1 5.1-9.2m356.8-18.5c3.3 1.4 5.9 2.6 8.5 3.4.8.2 1.8-.5 2.6-.9 8.7-5.1 16.3.1 17.2 11.9.1 1 .1 2.1.1 3.1.2 17.1-6.5 22.9-19.8 16.3v14.8H902c.1-15.7.1-31 .1-48.6m19.2 18.9c-.1-4.8-.4-9.1-5-9.5-3.8-.4-5.5 2.8-5.4 9.7 0 4.5.4 8.6 5.2 8.6 5.3.1 5-4.8 5.2-8.8m22.1 14.5v15.2h-8.7V98.9q4.65.6 9 1.2c7.5-3 13.3-2.4 16.8 3.4 4 6.6 3.8 21.7-.7 27.2-4.9 5.9-10.3 4.5-16.4.5m.1-16.3c.1 5.7-.2 10.5 5 10.6 5.3.2 5.3-4.5 5.3-9 .1-4.6-.3-9.3-5.3-9.2-4.4 0-5.1 4.3-5 7.6m-330.4 16.6v14.7h-8.7V98.6c3.2.5 6.1 1 9 1.4 7.2-3.3 13.6-2.5 17 3.8 3.9 7.2 3 22.4-1.8 27.6-3.4 3.9-8.1 4.1-15.5.1m.1-14.9c-.1 4.7.4 9 5.5 8.9 4.9-.2 4.8-4.7 4.9-8.9.1-4.6-.3-9.4-5.2-9.3-5 0-5.3 4.7-5.2 9.3m32.5 14.8v15h-8.8c-.1-1.5-.3-2.7-.3-3.9V98.7c3.4.5 6.3.9 9.2 1.4 7.6-3.2 13.7-2.5 17.1 3.6 3.9 6.8 3.4 21.8-1.1 27.1-4.7 5.7-10.1 4.3-16.1.6m10.5-14.4c0-5.1-.4-9.8-5.3-9.7s-5.1 4.9-5.1 9.5c0 4.4.2 8.6 5 8.8 5.3.1 5.2-4.7 5.4-8.6"/><path d="M548.4 504.1c12.3 1.6 20.7 10.3 26.8 22.9.9 1.9 1.2 4.3 1.7 6.5-.9.8-1.7 2.3-2.6 2.3-5.5.2-11.1.1-15.8.1.7.2 2.4.8 4.1.9q5.55.3 11.1 0c2.8-.2 3.7 1.3 3.2 4.4-.3.3-.5.6-.8 1h-33.5v-35.5c0-1 .2-2 .4-3.6 1.8.4 3.6.7 5.4 1m16.3 19.4c5.2-6.9-2.1-5.8-3.5-8.4-5.5-3.5-10-1.2-14 3.7-1.1 5.5 3 5.3 5.2 7.2 4.5 2.8 8.6 1.9 12.3-2.5" class="st0"/><path d="M548.4 504.1c-1.8-.3-3.5-.6-5.5-.9-.2 1.6-.4 2.6-.4 3.6v35.5H576c-2.2.7-4.4 1.8-6.6 1.9-7.3.2-14.6 0-21.9.2-1.5 0-3 1.4-4.5 2.2 1.3.7 2.6 1.8 4 2.1 3.7.8 4.8 1.9 5.8 7.3H542c-.2-3.7-.4-7.2-.6-11.6-6.2 0-12.2-.1-18.3.1-.8 0-1.6 1.5-2.4 2.2.8.7 1.7 1.9 2.5 2 3.9.2 7 1.2 7.6 7.3h-10.6c-.6-3.9-.6-8-2.2-11-.7-1.4-4.4-.5-7.8-.7.5 7 1 13.3 1.5 19.6-1-6.5-2-13-2.7-17.7 4.2-3.9 7-6.5 9.9-9.1-.6 1.8-1.2 3.6-2.1 6 2.8 0 5.2-.2 7.5.1 4.7.6 7.8-1.9 9.7-7 2-5.2-.9-8.5-3.2-12.1-2.6-3.9-4.8-8.1-7.7-13-1.1.3-3.3 1-5.6 1.7 5.9-1.9 11.9-3.7 17.8-5.7 2.3-.8 5.8 1.5 6.3-3.8 2.2.1 4.5.5 6.8.8M1341 782.2c1.3 3.7 2.5 7.4 4.2 12.1-3.9.3-6.2.5-8.9.8v8.2c1.4.2 2.8.5 4.8.8-.3 2 0 4.4-.8 5.4-3.9 5-4 11.1-4.9 17.5-.8 5.9.5 9.1 3 11 4.2-.3 7.2-.5 10.3-.6l.6 2.4c-2.8 3.1-5.5 6.3-8.3 9.4 1.2-7.9-3.8-10.7-7.7-14.4.8-9.8 1.6-19.5 2.3-29.3h-19.9v23.2c8.7-.2 6.2 8.3 7.6 16 3.8-3.8 7-6.9 10.1-10-1.1 2.2-2.2 4.5-3.4 6.9 3.3 3.8 5.5 9.6 11.2 7.5-4.3 4.2-6.6-.4-9.1-3.3-3.7-4.2-5.5-4.1-9.1.5 2.5 2.4 5 4.9 7.5 7.4-.3.9-.6 1.9-.9 2.8-4.4-.4-8.9-.9-13.3-1.3 3.5.6 5-1.8 5.2-5.6.3-4.3.3-8.7.2-13-.2-6.2-2.5-7.6-7.2-4.5v-12c-2.5.4-4.5.7-6.4 1.1v-3.3c1.7.4 3.7.8 6.4 1.3v-22.4c0-7.4 2.6-13.2 7.9-16.1 5.7-3.1 11.8-3.3 17.7.1.5.3.8 1.3 1.1 1.9-1.6-.8-3.2-1.6-4.9-2.5v13.3h7.4c-1-4.4-1.8-7.9-2.7-11.3m-8.9 12.6c-6.2-5.9-9.8-5.8-14.5.3 5.3 6 9 6 14.5-.3"/><path d="M939.1 551.2c.9 2.9 1.8 5.8 2.6 8.7-2 3.3-3.7 7.1-6.1 9.8-10.5 11.6-24.6 8.4-33.3-7.2-.9-3.9-1.8-7.8-2.7-11.9 1.7-.4 2.5-.7 3.3-.7 3.3.2 7.2-.6 9.8 1.1 1.4.9.9 6.4 1.2 9.8.4 4.9 2.3 4.9 5.1 2.5 3.8-3.4 8-6.3 11.5-10.2 2.8-3 5.3-3.6 8.6-1.9" class="st0"/><path d="M886.6 132.7c-2.2.4-5.6 1.6-9 1.4-4.1-.2-7-3.3-7.7-8.5-.7-5.4 1.7-8.9 5.6-10.5 4.1-1.7 8.4-2.7 12.7-4-1.1-5.7-3.1-6.8-6.7-4.7-2.8 1.6-6 2.4-9.2 3.7-.2-2.1-.5-2.8-.3-3.3 2.3-6.7 7.9-9.5 16-8 5.9 1.1 9.1 5 9.4 12.5.3 7.3.1 14.6.1 23.1-3.6-.5-6.5-1-10.9-1.7m2.5-14.8c-3.1.6-4.7.5-6 1.3-1.7 1-3.1 2.5-4.5 4.1-.2.2 1 3.1 1.6 3.1 2 .1 4.4.1 6-1.1 1.4-1.1 1.7-4.1 2.9-7.4m-367.6 1.2H504c-.5 6.6 2.1 9.4 6.2 7.6 3.3-1.5 6.8-2.4 10.6-3.7-.6 8.5-6.4 12.5-14.8 11.4-8.7-1.1-13.1-8.6-12-20.6 1-10.9 7-16.5 16.5-15.2 8 1.2 12.3 8.8 11 20.5m-9-6.6c.2-4.5-1.4-7.1-4.6-7s-4.7 2.7-4.3 7zm-12.2 458.6c3.5 1.1 7 2.9 10.5 3.1 10.2.4 20.3.1 30.9.1v-8.2c-8 0-16 .2-23.9-.1-2.1-.1-4.2-1.6-6.3-2.5 2.1.4 4.3 1.3 6.4 1.3 14.9.1 29.8.2 44.7-.1 1.7 0 4.6-1.8 4.8-3 .5-4.5-2.8-2.8-4.7-3.1-1.2-.2-2.4 0-3.9 0 .3-5.2 2.6-7.7 6.2-8.5 4-1 8.8 2.3 10.4 6.9 3.1 8.9-1.1 18.3-8.9 18.4-19.6.4-39.3.2-58.9-.2-2.5.1-4.9-2.6-7.3-4.1m252.4-452.2c1.5-4.4 3.2-8.4 4.1-12.6 1.5-6.9 4.7-9 10.8-6.6-.7 2.3-1.4 4.5-2.1 6.7-3.8 10.9-7.7 21.9-11.5 32.8-2.8 8-2.8 8-10.4 6.9.2-1.2.1-2.5.5-3.4 4.1-7.8 2.8-15.1-.4-22.8-2.6-6.4-4.6-13.3-6.9-20.1 8.1-1.9 8.1-1.9 10.8 6.3 1.3 3.9 2.5 7.8 3.8 11.6.1.4.5.5 1.3 1.2m213.9 4.5c3.1 1 6.2 2 9.2 2.9 1.4.4 3 1.2 4.4 1 .9-.1 2.2-1.6 2.4-2.6.1-.9-.9-2.7-1.8-3.2-2.5-1.2-5.2-1.7-7.8-2.8-3.6-1.5-6.5-4.1-6.5-9.3-.1-5.4 2.8-8.4 6.5-10.1 7.6-3.5 15.6.2 18.5 9.7-3.4-.7-6.2-1.2-8.9-1.9-1.6-.4-3.2-1.5-4.7-1.6-.8 0-1.9 1.6-2.3 2.7-.2.6.8 2.4 1.6 2.7 2.5 1.1 5.2 1.8 7.8 2.6 4.3 1.4 7.5 4.3 7.4 10.3-.1 6.1-3.7 9.2-7.9 9.7-4.4.5-9.1-.1-13.4-1.3-2.1-.6-3.7-4-5.6-6.1.3-.7.7-1.7 1.1-2.7m-273.1-13.8c-3.8-1.1-6.6-2.1-9.4-2.8-1.7-.4-3.5-.7-5.2-.6-.4 0-1.3 2.7-1.1 2.9 1.4 1.3 2.9 2.6 4.6 3.4 2.7 1.2 5.7 1.6 8.2 3.2 4.5 2.9 5.3 9.9 2 14.4-4.7 6.5-18.9 6-23.2-.9-.7-1-.9-2.5-2.1-6 4.4 1.2 7.4 2.1 10.5 2.9 1.5.4 2.9 1.4 4.3 1.2 1-.2 2.2-1.7 2.7-2.9.2-.5-1.1-2.6-2-3-2.5-1.2-5.2-1.7-7.8-2.8-3.6-1.5-6.4-4.2-6.3-9.4 0-5.1 2.7-8 6.2-9.7 7.5-3.7 16.1.1 18.6 10.1m95.1-9.5c-3.4 2.9-6 5.1-8.9 7.5-1.5-2.3-2.8-4.4-4.6-7.3 6.6-4.7 10.4-14.1 19.2-13.8 2.9.1 3.9 1.3 3.8 4.8-.1 12.8-.2 25.5 0 38.3.1 5-2.4 4.5-5 4.5s-4.7.1-4.6-4.4c.3-9.3.1-18.8.1-29.6M750 570c-3-3.9-8.6-.2-13.5-1.4-6.2-1.6-8.9 4.4-13 8.1 1.6-2.3 3.2-4.6 5.2-7.5-2.3-.3-4.2-.6-6-.9-.8-9.9 4.4-18.3 13-20.8 2.9-.9 5-1.4 3.4-6-.3-.8 1.4-2.7 2.2-4.1l1.2 1.2c-.7 2.5-1.4 4.9-1.7 6.1 4.6 3.7 8.8 6.4 12.3 10 3.2 3.3 5.1 7.8 3.7 13.4-1.8.5-3.7 1.1-6.8 1.9m-9.7-18.1c-3.1 1.6-7.1 3.6-11.5 5.9 7.9 9.9 14.8 9.8 21.4.7l-1.6-1.6c-2.4 1.6-4.2 2.7-6 3.9-.6-2.4-1.2-4.8-2.3-8.9m418.1 252.5c5.4-5.4 11-5 16.5-2.1 6 3.2 9.6 9 10.3 17.2.5 6.5-.8 12.4-4.6 17.2-2.3 3-4.2 3.1-6-.6-2.6-5.1-5.3-10.1-7.9-15.2-2.7-5.3-5.4-10.6-8.3-16.5m22.2 18.1c1.1-9.5-1.3-13.7-8.1-15.1-1 8.7 1 12.7 8.1 15.1"/><path d="M517.6 512.6c2.3-.7 4.5-1.4 5.6-1.7 2.9 4.9 5.1 9.1 7.7 13 2.4 3.6 5.2 6.9 3.2 12.1-1.9 5.1-5 7.6-9.7 7-2.3-.3-4.7-.1-7.5-.1.8-2.4 1.4-4.2 2.1-6-.4-2.6-.5-5.5-1.4-7.8-1.6-4.4-3.7-8.5-5.5-12.8 1.7-1.2 3.6-2.4 5.5-3.7M710.9 531c-9.8-7.8-12.2-21.6-5.1-31.1 1.1-1.5 3-2.2 4.6-3.3 1.9-.4 3.7-.8 5.8-1.2V531zm61.7-32.6c8.5 11.3 7.9 21.1-2.1 31.3-2.2.6-4.5 1.2-7.1 1.9v-37.1c3.4 1.5 6.3 2.7 9.2 3.9" class="st0"/><path d="M939.1 551.2c-3.2-1.7-5.8-1.2-8.6 2-3.4 3.9-7.6 6.8-11.5 10.2-2.8 2.4-4.7 2.4-5.1-2.5-.3-3.4.2-8.9-1.2-9.8-2.7-1.8-6.5-1-9.8-1.1-.8 0-1.6.3-3.3.7.9 4.2 1.8 8 2.7 11.9-1.4-4-2.7-8-4.5-13.3h16.1c0-3.5-.2-6.4.1-9.1.2-1.9.6-4.8 1.6-5.3 1.1-.6 3.2.5 4.5 1.6 4 3.4 7.8 7.3 11.9 10.5 1.1.9 3.1.2 4.7.2.7 1.3 1.5 2.7 2.4 4"/><path d="M1119 546.3c3.5 4.5 6.9 9 10.5 13.3 2.5 3 4.5 6 2 10.1-2.6 4.2-5.5 2.8-8.4.3-4.8-5.9-9.6-11.9-14.4-17.8V544c4.1-4 7.1-.3 10.3 2.3" class="st0"/><path d="M1363.1 543.7c-1.8-1.5-3.5-3.1-5.3-4.7-6.9 4.9-9.8 3.7-12.9-5.3-.4-1.1-1.5-2.5-2.3-2.5-3.7.1-7.5.7-11.2 1.1-.3.8-.6 1.7-1 2.5 1.9 2.1 3.8 4.1 5.6 6.2.6 1.7 1.3 3.3 1.9 5-1.2.5-3.1 1.3-5.2 2.3.5 2 .9 3.7 1.3 5.4-2.4-7.3-9.3-7.2-12.9-12.7-1.3 1.5-2.4 2.8-3.5 4 .5-4.1 1.1-8.3 1.6-12.4 1.2-1 2.3-2.1 3.5-3.1 6.1 1.8 12.3.8 18.4.3 9.4-.5 16.6 4.8 22 13.9"/><path d="M718.7 512.2c2.4-2.7 4.7-5.3 7.1-8 2.6-2.9 4.5-1.9 5.8 1.8 2.8 8.1.4 15-3.7 21.3-3.3 1.6-6.5 3.2-11.4 5.6.9-8.4 1.5-14.6 2.2-20.7m38.5 18.8c-7.6-5.4-10.6-12.7-8.9-22.9.3-2.1 1.4-4.3 2.8-5.6.5-.5 2.7 1.5 4 2.6 1.8 1.5 3.4 3.3 5.1 5 1 6.7 1.9 13.5 3 20.8-3.1.1-4.5.1-6 .1" class="st0"/><path d="M499.9 387.2c-3.8.3-6.9 1.2-9.8.6-2.1-.5-5.4-2.7-5.7-4.7-.5-4.4-.1-9.4 1.2-13.5.5-1.6 4.3-1.9 6.6-2.4.7-.2 1.5.6 2.8 1.2.1-2.1 0-3.9.4-5.6.3-1.3 1.3-2.3 2-3.5.9 1.2 2.4 2.3 2.5 3.5.1 8.1 0 16.2 0 24.4m-3-9.8c-2.3-2.6-3.8-4.3-5.3-6-1.1 1.9-3.3 3.9-3.2 5.7.1 2.2 2.1 4.2 3.3 6.3 1.4-1.6 2.8-3.2 5.2-6"/><path d="M929.4 1061.3c6.7-1 8.2 1.8 6.5 12.5-7.6-4-15.2-6.2-22.8 0-.9.4-1.8.8-2.8 1.2-.1-2.7-.3-5.4-.2-8.1.3-6.1 2.2-7.4 6.9-5.3.7.3 1.5.6 2.3.6 2.6.1 5.3.2 7.9.2.8-.1 1.5-.7 2.2-1.1" class="st0"/><path d="M453.5 359.8c7.4 2.6 4.5 13.4 9 19.1 1.4-5.1 2.7-10.1 4.1-15.1 1.1-3.8 1.1-3.7 5.7-3.2-2.2 8.4-4.3 16.6-6.7 24.8-.3 1.2-2.4 2.4-3.5 2.2-1.3-.2-3.2-1.6-3.6-3-2.3-7.8-4.3-15.7-6.4-23.6.4-.4.9-.8 1.4-1.2m65.2 23.5c-3.1 4.7-7.7 6.1-11.5 3.5-3.5-2.3-5-8.4-3.3-13.8 1.5-5.1 4.8-6.9 8.9-6.3 4.5.6 6.4 4.2 6.7 12-3.6.2-7.2.4-10.7.6l-.6 1.8c1.5.9 3.1 2.5 4.6 2.5 1.9 0 3.7-1.4 5.6-2.2 0 .7.2 1.3.3 1.9"/><path d="M1352.3 558.7c.3-1.6.6-3.1 1-4.7.7.8 1.2 1.8 2 2.4 1.6 1.1 3.4 1.9 5.1 2.8.3-2.3.6-4.5.7-6.8 0-.6-.7-1.3-1.7-3h7.2c3 1.3 6.1 2.2 8.9 4.1 1 .6 1 3.4 1.5 5.2-8.2 7-16.4 7.4-24.7 0" class="st0"/><path d="M539.1 377.4c0 7.1-2.6 10.6-8.2 10.6s-8.3-3.3-8.3-10.5c0-6.9 3-10.9 8.2-10.9 5.2-.1 8.3 3.9 8.3 10.8m-3.3.4c-2-3-3.2-6.2-4.7-6.5-3.5-.7-4 3.3-3.6 6.3.4 2.3 2.1 4.3 3.2 6.4 1.5-1.8 3-3.5 5.1-6.2m46.6-.1c-.1 7.1-2.8 10.4-8.5 10.3-5.4-.1-8.2-3.8-8.1-10.8.1-6.6 3.4-10.7 8.6-10.6s8.1 4.1 8 11.1m-3.1-.4c-2.1-2.8-3.6-4.6-5-6.4-1.2 2.1-3 4-3.4 6.3-.6 3.1 0 7 3.4 6.5 1.6-.2 2.8-3.5 5-6.4m22.7.2c0 7.1-2.8 10.6-8.3 10.6s-8.3-3.6-8.3-10.6c0-6.6 3.3-10.8 8.4-10.8 5.1-.2 8.2 3.9 8.2 10.8m-3.2 0c-2.1-2.8-3.5-4.7-4.9-6.5-1.2 2-3.5 4.1-3.4 6.1.1 2.4 2.1 4.6 3.3 6.9 1.4-1.8 2.8-3.7 5-6.5m-39 9.7c-3.9 1.4-5.3.3-5.2-3.9.2-5.8 0-11.6 0-15.7-2.8-2.4-4.7-3.9-6.6-5.5 2.2-.7 4.4-1.7 6.6-2 2.7-.4 5.4-.3 8.1 0 1.2.1 2.3 1.4 3.5 2.2-1.1 1-2.2 2.1-3.4 2.9-.7.4-1.7.2-3.1.3.1 7.2.1 14.4.1 21.7m792.5 171.5c8.2 7.4 16.5 7.1 24.7 0-2.9 2.1-5.6 5-8.8 6.1-4.3 1.6-3 3-.6 5.2-.8 1.9-1.6 3.9-2.5 6.2-.4-1.7-.8-3.5-1.2-5.3-.5 0-1 0-1.5-.1-.3 2.3-.5 4.7-.8 7-3.6-5.1 1.2-7.3 3.1-11.2h-24.1c1.2 1.5 1.9 2.4 2.6 3.3-.8 1.9-1.6 3.9-2.5 6.2-.4-1.7-.8-3.5-1.2-5.3-.5 0-1 0-1.5-.1-.3 2.3-.5 4.7-.8 7-3.6-5.1 1.2-7.3 3.1-11.2h-24.1c1.2 1.5 1.9 2.4 2.6 3.3-.8 1.9-1.6 3.9-2.5 6.2-.4-1.7-.8-3.5-1.2-5.3-.5 0-1 0-1.5-.1-.3 2.3-.5 4.7-.8 7-3.2-5 .5-7.3 3.2-10.5-4.8-1.5-5.3-4.9-3.3-9.4v6.6h45.1c-2.1-2-3.8-3.8-5.5-5.6M624 381.8c-1.3-.9-2.5-2.1-3.8-2.6-3.4-1.2-6.9-2.3-5.6-8.1.8-3.9 5.7-5.7 9.6-3.8 1.4.7 2.6 2.1 4 3.1-.1.6-.3 1.2-.4 1.7-2.9-.4-5.8-.9-8.7-1.3-.1.8-.3 1.7-.4 2.5 1.9.8 4.1 1.2 5.7 2.6 1.8 1.6 3 4.2 4.5 6.4-1.8 1.8-3.5 4.6-5.5 5.2-3.4 1-7.1.8-9.8-5.2 3.9.6 6.9 1 10 1.5.1-.5.3-1.3.4-2"/><path d="M1314.5 831.9c4.7-3 7-1.7 7.2 4.5.2 4.3.1 8.7-.2 13-.2 3.8-1.8 6.2-5.2 5.6-.6-4.6-1.2-9.1-1.6-13.7-.3-3.2-.1-6.3-.2-9.4" class="st0"/><path d="M608.7 388.5c-1-1.6-2.8-3-2.8-4.7q-.45-10.35 0-20.7c0-1.3 1.5-2.6 2.2-3.9.8 1.3 2.2 2.5 2.3 3.8.2 7.9.1 15.9.1 23.8-.6.6-1.2 1.2-1.8 1.7m163.2 451.2c.3 2.7.4 4.3.6 5.8.5.1.8.2 1 .3 2.4.7 5.2.8 6.9 2.5.8.8.4 5.5-.7 7s-4.9 2.2-5.6 1.2c-1.6-2.3-2.2-5.7-2.7-8.8-.3-2.1.3-4.5.5-8m-297-452.9c0-5.2-.1-10.4.1-15.6.1-1.4 1.3-2.6 2.1-3.9.9 1.4 2.4 2.7 2.5 4.1.3 4.1.4 8.4 0 12.5-.2 1.7-1.9 3.1-2.9 4.6-.6-.5-1.2-1.1-1.8-1.7m52.8 390.7h6.9c-1.2 7.2-2.3 14-3.7 22.6-1.4-5.2-2.7-8.5-3.1-11.8-.4-3.5-.1-7-.1-10.8m191-265.3c-.7 6.2-1.3 12.4-2.2 20.6 4.9-2.4 8.1-4 11.4-5.6-4.5 2.5-9.1 4.9-14.6 7.9v14c-.7-5.5-1.6-11.8-2.4-18.2h5.2v-35.6c-2.1.5-4 .8-5.8 1.2 1.9-1.1 3.8-2.2 7-4.1 0 5.6-.2 9.6.1 13.6.1 2.2.8 4.2 1.3 6.2m38.5 18.8h6c-1-7.3-2-14-3-20.8.7-.9 1.9-1.8 2-2.8.2-4.3.1-8.6.1-15.1 4.2 2.4 7.3 4.2 10.3 6-2.9-1.2-5.8-2.4-9.2-3.8v37.1c2.6-.7 4.9-1.3 7.1-1.9-.8 2.9-1.9 5.7-2.3 8.7-.4 2.4-.1 5-.6 7.5v-12.6c-3.7-.8-7.1-1.5-10.4-2.3m606.5 250.9c1.1-.6 2.1-1.2 3-1.7V830c-.7-6.5.1-13.4-5.3-17.7l3.4 3.4c1.8-8.9 1.3-9.9-3.7-8.7.1 1.8.3 3.6.4 5.5-.4-2.1-.8-4.3-1.2-6.7 1.9-.4 3.3-.7 5.1-1v-8.4c-2.5-.1-5-.3-8-.5.4-1.7.7-3.4 1.1-5-.2 8.7 4.5 2.5 6.7 4 .5-.4 1-.7 1.4-1.1-.9-4-1.9-8-2.9-11.9M459.3 185.4H451v-16.9h8.3c0 .2.1.5.1.7-2.3 1-4.6 1.8-6.8 3-.3.1 0 1.9.1 3 2.4.3 4.4.6 6.4.8v1.2c-2 .3-4.1.7-6.1 1-.2 3.7-.2 3.7 6.3 7.2"/><path d="M747 789.8c-2-.9-4.1-1.8-6.1-2.7.9-2.6 1.2-6.2 2.8-7.6 1-.9 4.7.6 5.8 2.3 2.2 3.5-.2 6-2.5 8" class="st0"/><path d="M1366.7 549.4h-7.2c1 1.7 1.7 2.4 1.7 3-.1 2.3-.5 4.6-.7 6.8-1.7-.9-3.5-1.8-5.1-2.8-.8-.5-1.3-1.6-2-2.4 2.5-1.8 5-3.5 7.4-5.6 1.1-1 1.9-2.6 2.8-3.9 1 1.6 2 3.2 3.1 4.9M565.3 174.6c-7.9-2.2-5.3 6.1-7.3 10.4v-11.3c2.4-2.4 8.2 2.7 8.4-5.8 1.3 2.5 2.3 4.3 3.2 6.2-3.1 2.5-3 6.9.7 10.6-3.3.4-3.3.4-5-10.1m-10.8 4.6c-2.3.2-4.5.5-6.9.7.7 6.4 3.8 3.6 6.4 2.4v2.1c-2 .2-4.9 1.5-5.8.4-1.4-1.9-2.3-5.4-2-8 .2-1.6 3.1-3.9 4.7-3.7s3 3 4.5 4.6zm188.3 749.3c-1.4 4.8-2.1 10.9-3.5 11.2-6.2 1.3-5.4-3.8-3.1-8.1.7-1.4 3.1-1.5 6.6-3.1m220-22.6c-1.4 4.8-2 10.9-3.5 11.2-6.2 1.3-5.4-3.7-3.2-8.1.9-1.4 3.3-1.5 6.7-3.1m230.3-280.1c-1.3 4.7-1.9 10.8-3.3 11.2-6.2 1.5-5.5-3.6-3.3-8 .7-1.5 3.2-1.6 6.6-3.2M605.7 182.5l6.3 1.2c.1.2.2.5.3.7-2 .2-4.9 1.5-5.7.5-1.4-1.9-2.2-5.4-2.1-8.1.1-1.5 2.9-4 4.2-3.7 1.8.3 3.4 2.8 5.1 4.3l-.9 1.8c-2.3.3-4.5.5-6.8.8-.2.8-.3 1.6-.4 2.5m17.6 3.8-7.8-3.6c2-2.2 4.1-4.3 6.9-7.3-1.7-.3-3.4-.7-6.7-1.3 2.8-.5 5.6-1.5 5.8-.9 1.5 3.5 2.4 7.4 3.5 11.2-.7.6-1.2 1.2-1.7 1.9m12.9-4.1c2 .6 4 1.1 7 1.9-2.3.4-5.1 1.8-5.9.8-1.5-2-2.4-5.3-2.3-7.9 0-1.5 2.7-4.2 4-4 1.9.3 3.6 2.6 5.4 4-.3.7-.5 1.4-.8 2.1-2.3.2-4.5.4-6.8.7z"/><path d="M1363.7 781.9c1 3.9 2 7.9 2.9 11.8-.5.4-1 .7-1.4 1.1-2.2-1.5-6.8 4.7-6.7-4 1.8-3 3.5-6 5.2-8.9" class="st0"/><path d="M1108.7 552.2c4.8 5.9 9.6 11.9 14.4 17.8-1.5-1.2-3-2.3-4.7-3.6-2.3 4.4 1.3 6.9 2.1 10.3-1.8-1.2-3.6-2.4-5.4-3.7.8-4.7 1-8.9-2.9-12.4-1.8-1.6-2.3-5.5-3.5-8.4M471.2 168.6v17.1c-2.6-.7-5.8-.5-7.7-2.3-1.2-1.1-1.2-5.8-.3-7.9.8-1.9 3.6-2.5 6.6-4.3-.1.3.2-1.2.5-2.7.3 0 .6.1.9.1m-5.1 15.9h1.7c.7-1.8 2-3.7 1.8-5.4s-1.8-3.1-2.8-4.7c-1 1.6-2.6 3.1-2.7 4.8s1.3 3.5 2 5.3m127.6-2.5c-1.1 3.8-4.1 4.4-7.1 3.3-3.9-1.5-4.2-6-3.5-9.8.5-2.7 2.4-6 4.3-7.1 2.7-1.5 5.3.3 6.2 3h-7.9c.1 3.7.1 7.5.2 11.2 2.6-.2 5.1-.4 7.8-.6m558.2 615.5c-5.6-5.5-11.2-11-16.7-16.5 3 1.7 6.2 3 8.9 5.3 4.8 4 4.7 4.2 10 1.2 1.5 4.1.4 7.2-2.2 10M674.2 180.1c-5.6.4-9.2-4.1-9.5-11.4 5.4 1 7.9 5 9.5 11.4"/><path d="M1337.2 577.9c.3-2.3.5-4.7.8-7 .5 0 1 0 1.5.1.4 1.8.8 3.6 1.2 5.3.9-2.3 1.7-4.3 2.5-6.2 1.7 3 3.6 6 .6 9.3-2.5 2.5-4.7 1.1-6.6-1.5m24.5 0c.3-2.3.5-4.7.8-7 .5 0 1 0 1.5.1.4 1.8.8 3.6 1.2 5.3.9-2.3 1.7-4.3 2.5-6.2 1.7 3 3.6 6 .6 9.3-2.5 2.5-4.8 1.1-6.6-1.5m-49 0c.3-2.3.5-4.7.8-7 .5 0 1 0 1.5.1.4 1.8.8 3.6 1.2 5.3.9-2.3 1.7-4.3 2.5-6.2 1.7 3 3.6 6 .6 9.3-2.4 2.5-4.7 1.1-6.6-1.5" class="st0"/><path d="M508.3 171.6c-2.7-.2-5.2-.4-7.7-.5-.1 3.7-.1 7.5-.2 11.2h7.8c-.7 3-3.3 3.8-6.2 3.3-3.6-.7-4.8-4.3-4.2-7.9.5-3.3 1.6-7.5 3.6-9.1 2.4-2 5.8-.8 6.9 3"/><path d="M1115.2 573c1.8 1.2 3.6 2.4 5.4 3.7.1.7.3 1.4.4 2.1-2.5 1.8-5 3.7-7.5 5.4-.2.1-1-1.4-1.6-2.1 1.1-3 2.2-6.1 3.3-9.1" class="st0"/><path d="M929.4 907.8c2.3 1 5.3 1.2 5.9 2.8 2.3 6.5-2.2 7.3-5.9 8.4zm475-275c2.5-2.4 3.9-3.6 5.3-4.9 1.1 1.8 2.8 3.5 3 5.4.1 1.4-2 4.2-3.1 4.2-1.3 0-2.7-2.3-5.2-4.7m-264.9.6c2.4-2.6 3.7-4 5.1-5.5 1.1 1.7 3 3.3 3.2 5.2.1 1.4-1.7 4.3-2.9 4.4-1.3.2-2.8-2-5.4-4.1M536.1 800c1.6-1.3 3.1-3.6 4.7-3.7 11.4-.3 22.9-.1 34.3 0 .6 0 1.1.8 1.7 1.2l.1-.2c-2.4.8-4.8 1.7-7.2 2.5l.1.1c-.8-.9-1.5-2.5-2.3-2.5-6.9-.2-13.9-.4-20.8 0-3.6.2-7.1 1.6-10.6 2.4-.1 0 0 .2 0 .2m237.6-172.7c.8 2 2.3 4.1 2.1 5.9-.2 1.7-2.3 3.1-3.6 4.6-1-1.6-2.6-3.2-2.7-4.9 0-1.9 1.4-3.8 2.2-5.7.7.1 1.3.1 2 .1M596.2 907.4c.8 1.9 2.5 4 2.3 5.7-.2 1.8-2.2 3.2-3.4 4.8-1-1.6-2.8-3.1-2.9-4.7-.1-1.9 1.3-3.9 2-5.8zm145.8 5.5c2.5-2.3 3.9-3.6 5.3-4.9 1.1 1.8 2.8 3.6 2.9 5.5.1 1.4-2 4.2-3.1 4.2-1.3-.1-2.6-2.3-5.1-4.8m176.6-.1c2.2-2.2 4-4.8 4.6-4.5 1.5.8 3.3 3.1 3.3 4.8 0 1.6-2 4.2-3.3 4.5-1 .2-2.5-2.5-4.6-4.8m239.2-280.4c2.6-2.2 4.2-4.4 5.4-4.2s3 3.1 2.8 4.6c-.2 1.8-2 4.3-3.3 4.6-1 .4-2.5-2.4-4.9-5m-49.1 213.9c10.7 7.6 21.7 8.2 32.8 1.3-9.1 8.7-22.9 8.1-32.8-1.3m-600-667.4c3.4-3 5.1-5.6 7.2-6 3.4-.7 4.6 2.7 4.6 6.4-.1 3.6-1.4 7.1-4.7 6.2-2.2-.6-3.8-3.4-7.1-6.6m11.4.5c-2-2.3-3.1-3.7-4.3-5-1 1.5-2.9 3-2.9 4.5 0 1.7 1.6 3.4 2.6 5.1 1.3-1.2 2.5-2.5 4.6-4.6m622.7 320.4c-.6-1.5-1.8-4-2.5-6.8-.4-1.5-.3-3.7.4-4.8.6-.9 3-1.3 3.5-.7.9 1 1.4 3.4 1.1 4.8-.6 3.1-1.9 5.8-2.5 7.5M502 820.4c-.3-1.3-.5-1.7-.5-2-.5-14.4-.3-14.7 11.4-14.7h14.6c0 .4 0 .8.1 1.2h-12.5c-15.3-.3-12.2.1-13.1 15.5m617-274.1c-3.2-2.6-6.2-6.3-10.3-2.2 2.6-1.2 5.1-2.4 7.7-3.5.5.5 1 1.1 1.5 1.6 0-5.6-.4-11.3.1-16.9.3-3.6 2-7 3-10.5-3.9 10.1-2.1 20.9-2 31.5"/><path d="M1322.8 529.7c-1.2 1-2.3 2.1-3.5 3.1-1.2-1.5-2.4-2.9-3.5-4.4 1.1-1.3 2.2-2.5 3.2-3.8 1.2 1.7 2.5 3.4 3.8 5.1" class="st0"/><path d="M523.6 185v-11.9c2.3.2 6.1-.7 7.1.9 1.6 2.8 1.4 7.1 1.9 10.8-.5.1-1 .1-1.6.2-.1-2 .2-4.1-.4-5.9s-2-3.1-3-4.7c-.9 1.5-2.3 2.8-2.7 4.4-.5 1.9-.1 4.1-.1 6.2zm608.6 878.6c3.8.4 7.5.7 11.2 1.4 3.2.6 6.4 1.7 9.6 2.5-9.2-.7-18.3-1.3-27.9-2 .2 2.7.3 4.3.3 5.9-.6-1.9-1.2-3.8-1.7-5.6 3.4-.9 6-1.5 8.5-2.2M633 185.4c-5.3-1.1-6.8-8-4.4-17.2 1.1 2.1 2.1 4 3.2 6-3.1 2.5-3 6.9 1.2 11.2m502.4 595.7c-9-2.9-17.5-1.3-25.7 4 8-7.3 16.5-8.7 25.7-4M576.8 541.3c.5-3.2-.4-4.6-3.2-4.4q-5.55.3-11.1 0c-1.7-.1-3.4-.7-4.1-.9 4.8 0 10.3.1 15.8-.1.9 0 1.7-1.5 2.6-2.3zm-38.5-355.8c-1.2-3.9-2.5-7.8-3.7-11.8.3-.2.7-.4 1-.6 1 2.7 2 5.4 3.4 9.1 1.4-3.5 2.5-6.3 3.5-9.1.4.2.7.4 1.1.6-1.3 4-2.6 7.9-3.8 11.9-.5 0-1-.1-1.5-.1M1169.2 851h-7.7c1.3-2.9 2.3-5.2 3.7-8.2 1.5 3 2.6 5.4 4 8.2m1.6-.1c1-2.8 1.9-5.2 3-8.4 1.4 2.8 2.7 5.2 4.4 8.4zm142.4 54.4h4.9c-1.3 1.2-2.5 2.4-3.7 3.5l3 2.4c-.4-.7-.7-1.4-1.1-2.1-1.8 1.3-3.6 2.6-5.4 3.8l2.4 3.6c-.1-3.4-.1-6.9-.1-11.2M498.4 539.1c0 6.6-.3 13.2.1 19.8.2 4.2 1.3 8.3 2 12.5-.9-1.7-2.6-3.3-2.6-5-.1-9.1.3-18.2.5-27.3m223.5 389.7c.9 2.7 1.8 5.5 3 9 1.2-3.5 2.1-6.3 3-9 .3.1.6.2.8.4-1 3.7-2 7.5-3.1 11.2-.4.1-.9.1-1.3.2-1.2-3.8-2.3-7.5-3.5-11.3.5-.2.8-.4 1.1-.5m450.5-302.7c.9 2.8 1.9 5.5 3 9 1.2-3.5 2.1-6.3 3.1-9 .3.1.5.2.8.4-1.1 3.8-2.1 7.6-3.2 11.3-.4 0-.8.1-1.2.1-1.1-3.8-2.3-7.6-3.4-11.4.3-.1.6-.3.9-.4m-631 3.6c1.4.3 2.8.7 3.6.8-1.1 1.2-2.4 2.6-3.7 4 1.5.9 2.9 1.8 4.4 2.8h-5.4v-12.1c1.5-.1 3-.3 5.6-.5-2.3 1.5-3.7 2.3-5 3.1.2.7.4 1.3.5 1.9m402.9 288c-1-3.6-2-7.3-3-10.9.3-.1.5-.3.8-.4 1 2.7 1.9 5.5 3.1 8.8 1.2-3.5 2.1-6.2 3-8.9.3.1.6.3.8.4-1.1 3.8-2.2 7.5-3.3 11.3-.5-.1-.9-.2-1.4-.3M484.8 185.2c-4.2-1-5.7-7.9-3.4-16.8l3 5.4c-3.1 2.7-3 6.6.4 11.4m421 720.8c.3 3.3.4 6.6 1.1 9.7.1.5 3.2-.1 5.1 1.2-2 0-4.9 1.1-6-.1-2.8-3.5-2.6-7.7-.2-10.8m206.1-323.9c.5.7 1.4 2.2 1.6 2.1 2.6-1.7 5-3.6 7.5-5.4h3.2c-2 1.4-4 2.9-6 4.2-2.5 1.6-5.2 3-9.1 5.2 1.3-3 2.1-4.5 2.8-6.1M775.7 916.6c-1.5-9.9-1.5-9.9 1.6-12.1-.6 3.9-1.1 8-1.6 12.1"/><path d="M92.4-20.2c-.7-1-1.4-2-2.2-3-.8-1.1-1.5-2.1-2.3-3.2-.8 1-1.7 1.9-2.5 2.9-.7.9-1.4 1.9-2 2.8-.6-1.2-1.6-2.4-1.7-3.6-.2-2.9-.7-6.4.3-8.7 1.2-2.6 4-5.8 6-5.7s4.7 3.7 5.4 6.4c.9 3.3.2 7.4.2 11.1-.3.4-.8.7-1.2 1" class="st0"/><path d="M447.1-21.8c-5 .5-6-2.6-5.8-7 .1-4-.6-10.1 4.4-8.6 3 .9 6.4 5.6 7.2 9.4 1.1 5-3.4 5.4-5.8 6.2"/><path d="M100.2-26.1c-.1 1.1 0 2.2-.4 3-.5 1-1.5 1.7-2.2 2.5-.5-.9-1.4-1.8-1.4-2.7-.3-5-.2-10-.2-14.7 6.6-1.8 10.5-.2 11 4.2.6 5.9-2.7 7.3-6.8 7.7m13.3-.1c-1.2 2.3-2.1 4.1-3 6-.4-.3-.9-.5-1.3-.8v-17.2c6.8-1.6 9.9-.3 10.5 4.6.7 6.3-3.2 6.8-6.2 7.4m17.7-7.6c-1.9-.4-3.8-.8-6.7-1.4 2.2 5 10.2 3 7.3 10.8-.7 1.9-3.3 3.7-5.1 3.7-2 0-3.9-2.1-5.9-3.3.2-.7.5-1.3.7-2 2.2.3 4.4.7 8.1 1.2-3.4-4.4-9.6-2.5-8.2-9.5.4-1.9 2.6-4.4 4-4.5 2.2-.2 4.4 1.5 6.7 2.5-.3.8-.6 1.6-.9 2.5m-67 9.1 3.5 1c0 .7.1 1.5.1 2.2-3.4.4-6.8.7-10.3 1.1-.3-.6-.7-1.1-1-1.7 2.5-3.9 4.9-7.8 7.4-11.7-.3-.4-.6-.8-.9-1.1-1.8.5-3.6 1-5.3 1.5-.3-.6-.6-1.3-.9-1.9 1.7-1.3 3.3-3.5 5.1-3.7 1.7-.2 5 2 4.9 2.8-.4 3.8-1.6 7.4-2.6 11.5m4.6-1.8c2.9.8 4.9 1.3 6.9 1.8.2-.5.3-1 .5-1.5l-4.8-4.4c1.7-1.1 3-1.9 4.3-2.7-.1-.5-.2-.9-.3-1.4-1.9.2-3.8.4-5.8.7 1.3-4.4 3.1-6 6.1-5 3.1 1 4.7 3.2 3 7.4-.3.7 0 1.9.3 2.6 1.7 3.8.9 6.6-2.3 7.9-3.3 1.4-6.3.9-7.9-5.4m-17.6-12c4.4-1.5 3.8 2.2 3.6 4.9-.4 4.4 1.6 9.9-1.4 13.3-.7-.3-1.4-.5-2.1-.8-.1-5.8-.1-11.6-.1-17.4m158.4 14.6c-2.7-1.9-5.3-2.7-5.8-4.4-1.8-6.2 3.4-5.2 5.8-8zM28.5-18.1c-1.6-2.5-3.7-4.4-3.4-5.7.3-1.9 2.3-3.3 3.6-4.9 1.2 1.7 3.2 3.2 3.5 5 0 1.3-2.1 3.1-3.7 5.6m15.1-18.4c-2.2 1.8-3.7 4.1-5 3.9s-3.3-2.9-3.2-4.3c.1-1.5 2.2-3.9 3.5-4 1.3 0 2.6 2.4 4.7 4.4m288.3-.2c1.1 3.3 2.2 6.6 3.2 9.7h-7.6c.9-2.9 2-6.2 3.1-9.5.4-.1.8-.2 1.3-.2m432.5 12.2c-1.5-1.4-3.6-2.4-3.9-3.9-.3-1.6 1.2-3.7 1.9-5.6l4.2 2.4c-.1.6-.2 1.1-.4 1.7-1.5.4-3 .8-5.8 1.5 2.3 1 3.6 1.5 4.8 2.1-.1.2-.2.4-.8 1.8m-291-11.8c3.9-.8 7-1.2 6.9 5.5-.1 6.4-3.2 5.6-6.9 5.1zm1.2 1.3v7.8c.4.4.9.8 1.3 1.2 1-1.6 2.7-2.9 3-4.7.6-3.6-.7-5.7-4.3-4.3m462.9 547.1c-.3 1.9-.6 3.9-1.1 7 1.4-1.1 2-2.1 2.7-2.2 1.4-.1 2.9-.2 4.2.4 1.5.7 2.8 2.2 4.1 3.4-.1-2.2-.2-4.3-.3-6.5 0-.2 0-.4-.1-1 2.5-2.3 5.1-4.8 9.1-8.6.2 4.1 1.1 7.3.2 9.4-4 9.4-8.5 18.4-13 27.5-.4.7-2 .5-3 .8-3.8-8.3-7.6-16.7-11.5-25-2.2-4.7-2.7-9 1.6-12.4 2.5 2.4 4.8 4.8 7.1 7.2" class="st0"/><path d="M937.5 512.1c-2.3-2.4-4.6-4.9-7-7.3l.5-.5c2-.4 3.9-.8 4.5-.9 2.6 2.8 4 5.5 5.9 6 1.2.3 2.7-3.4 4.4-4.3 1.9-1.1 4.2-1.1 6.4-.8-3.2 8.1-8.7 8.6-14.7 7.8" class="st0"/><path d="M754 824c-2.5-.2-5-.4-7.4-.6l.9-6.6c2.4 1.2 4.7 2.4 7.1 3.6z"/><path d="M536 799.8c3.5-.8 7.1-2.2 10.6-2.4 6.9-.4 13.9-.2 20.8 0 .8 0 1.5 1.7 2.3 2.5-.7 2.6-2 5.2-2 7.8q-.3 21.9 0 43.8c.1 5.1-1.3 6.4-5.2 6.2-8.9-.3-17.9-.1-27.2-.1v-18.5c5.3-1.7 11.8 2.5 16.2-4.2 4.6-4.1 4.6-9.8 3.5-15.8.3-1 .6-2.8 1-2.9 2-.3 4-.1 5.9-.7-8.8-1.9-17.6-3.7-27.2-5.8.4-2.8.9-6.4 1.3-9.9" class="st0"/><path d="M555 819.2c1.1 6 1.1 11.7-3.5 15.8-7.6 4-13 2.1-15.7-5.2-1.9-5.2-.8-11 2.9-14.5 3.9-3.7 8-4 12.1-.4 1.5 1.2 2.8 2.8 4.2 4.3m14.6-19.4c2.4-.8 4.8-1.7 7.2-2.5 1.2 2 2.3 4.1 4.1 7.1h-12.1c.3-1.5.6-3 .8-4.6M948.7 502h-14.1c5-4.6 9.5-4.5 14.1 0M588.4 116.1h-10.6c1.7-5.9 3.2-11.2 4.7-16.5h1.1c1.6 5.3 3.1 10.6 4.8 16.5m745.7 437.7c-.4-1.7-.8-3.5-1.3-5.4 2.2-.9 4-1.7 5.2-2.3-.6-1.6-1.3-3.3-1.9-5 4.1-1 7.9.5 8.8 5.6.5 2.5-1.4 7.2-3.2 8.5-1.8 1.1-5-.8-7.6-1.4m-198.2-34c.9 1.4 1.9 2.8 2.8 4.1-5 7-7.2 7.1-15.5.9 1.2-1.7 2.4-3.5 3.5-5 1.6 2.4 2.7 4.1 3.8 5.8 1.2-1.8 2.3-3.6 3.6-5.3.3-.4 1.1-.3 1.8-.5" class="st0"/><path d="M1135.9 519.8c-.6.2-1.5.1-1.9.6-1.3 1.6-2.4 3.5-3.6 5.3-1.1-1.7-2.2-3.4-3.8-5.8-1 1.5-2.3 3.3-3.5 5 0-1-.4-2.4 0-2.8 3.9-4.2 8.1-5.4 12.8-2.3"/><path d="M957.1 822.3c-3.6.9-5.1 4.5-4 7.9 1 2.9 3.6 6.1 6.1 6.9 3.5 1.2 7.4.3 11.6.3v14.8h-56.3v-15.4c5.3-.5 10.9-1.1 16.4-1.6V833c-.7-.3-1.5-.5-2.5-.9 1.5-.8 2.9-1.5 4.3-2.3 0-.5-.1-1-.1-1.5-1.3-.5-2.6-.9-4.2-1.5 1.2-.5 2.2-.8 3.7-1.4-5-7.7-11.9-2.4-17.6-5v-37.6c5.7-2 9.5-.7 12.3 6.4 3.1 7.9 6.1 7.6 10.1.1.8-1.6 1.4-3.3 2.2-4.9 1.7-3.2 6.3-3.2 8 .1.7 1.4 1.2 3 1.9 4.4 3.8 7.8 7.5 8.3 10.4.2 2.5-7 6.1-7.9 11.6-6.4v37.8q-7.05 1.05-13.8 2.1zm-17.4 24.5c1.8-.1 3.7-.2 5.5-.3 5.9-6.5-2.9-9.7-2.2-15.1-1.2 2.1-1.6 4.8-2.9 6.3-2.7 3.1-2.1 5.9-.4 9.1m-10.3-36.6c.7 2.1.9 4.9 2.2 6.2 7.4 7.2 16.6 6.9 23.8-.4 2.4-2.4 2.7-5 .1-7.1-2.5-2.1-5.4-3.5-8.1-5.3-7.3-2.8-13.1.1-18 6.6" class="st0"/><path d="M956.9 822.5h13.9V836c-5.4-.4-10.8 2.3-16.4-2.9 1.4-.5 2.1-.7 3.1-1.1-4.6-1.8-6.4-3.7.2-5.2-1-.5-1.8-.8-2.7-1.2.7-1.2 1.4-2.3 2.1-3.4 0 .1-.2.3-.2.3M727 116.8c-.2 3.9.1 8.8-5.2 8.7-5.2-.1-5.1-4.7-5.2-9.2-.1-4.8.7-9.2 5.5-9 4.5.1 4.8 4.6 4.9 9.5m-181.7-.5c-.3 4.1.2 9.1-5.1 9.3-5.2.1-5.3-4.5-5.3-9-.1-4.7.4-9.2 5.3-9.2 4.6-.1 5 4.3 5.1 8.9m376 .4c-.2 4 .1 8.8-5.2 8.8-4.8 0-5.2-4.1-5.2-8.6 0-6.9 1.7-10.1 5.4-9.7 4.7.5 5 4.7 5 9.5m22.2-1.8c-.1-3.3.6-7.6 5.1-7.6 4.9-.1 5.3 4.6 5.3 9.2-.1 4.5-.1 9.2-5.3 9-5.3-.2-5-4.9-5.1-10.6m-330.3 1.7c-.1-4.6.2-9.4 5.2-9.4 4.9 0 5.3 4.7 5.2 9.3-.1 4.2.1 8.8-4.9 8.9-5.2.3-5.6-4-5.5-8.8m43 .4c-.2 4-.1 8.7-5.3 8.6-4.8-.2-5-4.4-5-8.8 0-4.6.2-9.4 5.1-9.5 4.8-.2 5.1 4.6 5.2 9.7" class="st0"/><path d="M547.2 518.8c4-4.9 8.5-7.2 14-3.7-1-.1-1.9-.1-3-.2.2 3.9.4 7.5.6 11.5 2.3-1.1 4.2-2 6-2.9-3.6 4.4-7.7 5.3-12.3 2.5.7-.7 2-1.4 2.1-2.2.3-2.9.1-5.8.1-9.4-2.8 1.6-5.2 3-7.5 4.4"/><path d="M564.7 523.5c-1.8.9-3.7 1.8-6 2.9-.2-4.1-.4-7.6-.6-11.5 1.1.1 2.1.1 3 .2 1.5 2.6 8.8 1.5 3.6 8.4m-17.5-4.7c2.4-1.4 4.7-2.8 7.4-4.4 0 3.6.2 6.5-.1 9.4-.1.8-1.4 1.5-2.1 2.2-2.3-1.9-6.3-1.7-5.2-7.2m786.2 315.7c-3.1 3.1-6.3 6.2-10.1 10-1.4-7.7 1.1-16.2-7.6-16v-23.2h19.9c-.8 9.8-1.6 19.5-2.3 29.3zm-1.3-39.7c-5.5 6.3-9.3 6.2-14.5.3 4.7-6.1 8.3-6.2 14.5-.3m1.2 39.9c3.9 3.7 8.9 6.6 7.7 14.4l.2-.2c-5.8 2.1-7.9-3.7-11.2-7.5 1.2-2.4 2.3-4.6 3.4-6.9zm7.7-52.5c.8 3.4 1.7 6.8 2.7 11h-7.4v-13.3c1.7.9 3.3 1.7 4.9 2.5zM889.1 117.9c-1.2 3.4-1.5 6.3-2.8 7.3-1.6 1.3-4 1.2-6 1.1-.6 0-1.8-2.9-1.6-3.1 1.3-1.6 2.8-3.1 4.5-4.1 1.2-.7 2.9-.6 5.9-1.2m-376.6-5.4h-8.9c-.4-4.3 1.2-6.9 4.3-7 3.2-.1 4.8 2.5 4.6 7m227.8 439.4c1 4.1 1.6 6.5 2.2 8.9 1.8-1.2 3.6-2.3 6-3.9l1.6 1.6c-6.6 9.1-13.5 9.1-21.4-.7 4.5-2.3 8.5-4.3 11.6-5.9m440.3 270.6c-7.1-2.4-9.2-6.5-8.1-15.1 6.9 1.5 9.2 5.6 8.1 15.1M496.9 377.4c-2.4 2.8-3.8 4.4-5.1 6-1.2-2.1-3.2-4.1-3.3-6.3-.1-1.8 2-3.8 3.2-5.7 1.4 1.7 2.9 3.4 5.2 6m38.9.4c-2.2 2.7-3.6 4.4-5 6.2-1.1-2.1-2.9-4.1-3.2-6.4-.5-3 0-7 3.6-6.3 1.5.3 2.6 3.5 4.6 6.5m43.5-.5c-2.1 2.9-3.4 6.2-4.9 6.4-3.4.5-4-3.4-3.4-6.5.4-2.3 2.2-4.2 3.4-6.3 1.3 1.9 2.7 3.7 4.9 6.4m19.5.2c-2.2 2.9-3.6 4.7-5 6.5-1.2-2.3-3.3-4.6-3.3-6.9-.1-2 2.2-4.1 3.4-6.1 1.4 1.8 2.7 3.6 4.9 6.5m762.8 434.9c-.1-1.8-.3-3.7-.4-5.5 5-1.2 5.5-.2 3.7 8.7l-3.4-3.4zM466.1 184.5c-.7-1.8-2.1-3.6-2-5.3s1.8-3.2 2.7-4.8c1 1.6 2.6 3 2.8 4.7s-1.2 3.6-1.8 5.4zm54-5.1-4.6 4.6c-.9-1.7-2.6-3.4-2.6-5.1 0-1.5 1.9-3 2.9-4.5 1.2 1.3 2.4 2.7 4.3 5" class="st0"/><path d="M474.6-35c3.6-1.4 4.9.7 4.3 4.3-.3 1.7-2 3.1-3 4.7-.4-.4-.9-.8-1.3-1.2z"/><path d="M947.3 803.7c2.7 1.7 5.5 3.2 8.1 5.3s2.4 4.7-.1 7.1c-7.2 7.2-16.4 7.6-23.8.4-1.3-1.2-1.5-4.1-2.2-6.2 2.9-2 5.7-4 8.6-6 .4 1.2.7 1.6.7 1.9-.6 4.1.1 7.6 4.1 7.2 3.4-.3 4.3-3.4 3.3-7.4-.1-.6.9-1.6 1.3-2.3" class="st0"/><path d="M947.3 803.7c-.5.8-1.5 1.7-1.3 2.3 1.1 4 .1 7-3.3 7.4-4 .4-4.6-3.1-4.1-7.2 0-.3-.2-.7-.7-1.9-2.9 2-5.8 4-8.6 6 5-6.6 10.8-9.5 18-6.6"/><path d="M945.2 846.4c-1.8.1-3.7.2-5.5.3.6-3.5 1.3-7 1.9-10.5.9.1 1.8.1 2.6.2.3 3.4.6 6.7 1 10" class="st0"/><path d="M945.2 846.4c-.3-3.3-.6-6.6-1-10-.9-.1-1.8-.1-2.6-.2-.6 3.5-1.3 7-1.9 10.5-1.7-3.2-2.3-6 .4-9.1 1.3-1.5 1.7-4.2 2.9-6.3-.7 5.5 8.1 8.6 2.2 15.1"/></svg>