<?xml version="1.0" encoding="utf-8"?>
<!-- Generator: Adobe Illustrator 25.0.0, SVG Export Plug-In . SVG Version: 6.00 Build 0)  -->
<svg version="1.1" id="Ebene_1" xmlns="http://www.w3.org/2000/svg" xmlns:xlink="http://www.w3.org/1999/xlink" x="0px" y="0px"
	 viewBox="0 0 1920 1080" style="enable-background:new 0 0 1920 1080;" xml:space="preserve">
<style type="text/css">
	.st0{fill:#FEFEFE;}
	.st1{fill:#5D5D5D;}
	.st2{fill:#5C5C5C;}
	.st3{fill:#5E5E5E;}
	.st4{fill:#444344;}
	.st5{fill:#424244;}
	.st6{fill:#434243;}
	.st7{fill:#454445;}
	.st8{fill:#454547;}
	.st9{fill:#454344;}
	.st10{fill:#444343;}
	.st11{fill:#454242;}
	.st12{fill:#BAA176;}
	.st13{fill:#4B4A4B;}
	.st14{fill:#494849;}
	.st15{fill:#404348;}
	.st16{fill:#222222;}
	.st17{fill:#666666;}
	.st18{fill:#606060;}
	.st19{fill:#6D6D6D;}
	.st20{fill:#DBCD00;}
	.st21{fill:#B7B4B8;}
	.st22{fill:#F3F3F3;}
	.st23{fill:#FCFCFC;}
	.st24{fill:#FDFDFD;}
	.st25{fill:#FBFBFB;}
	.st26{fill:#F8F8F8;}
	.st27{fill:#FDFEFD;}
	.st28{fill:#FBF0C3;}
</style>
<g>
	<g>
		<path class="st0" d="M0,1080C0,719.7,0,359.9,0,0c640,0,1280,0,1920,0c0,360,0,720,0,1080C1280,1080,640.1,1080,0,1080z
			 M1466.4,539.9c-0.5,0.1-1.1,0.2-1.6,0.3C1465.3,540.1,1465.9,540,1466.4,539.9l0.2-0.2L1466.4,539.9z M1588.4,98.2
			c1.8-2.1,3.7-4.1,6-6.6c0,0,1,0.5,2.3,1.2c0-2.7,0-5.1,0-7.1c-2.7,0.4-5.2,0.7-8.4,1.1c0,3.7,0,7.4,0,11.2
			c-0.6,0.5-1.2,0.9-1.7,1.4c0.3,0.3,0.5,0.7,0.8,1C1587.6,99.7,1587.9,99,1588.4,98.2z M531.8,623.2c0-2.3,0.1-4.5,0.1-6.8
			c0.3-0.1,0.5-0.1,0.8-0.2c-0.1,0-0.2-0.2-0.3-0.1c-0.2,0.1-0.3,0.3-0.4,0.4c-7,1.3-14.1,2.6-21.4,3.9c0,2.3,0,4.9,0,8.9
			c5.3-2.8,9.8-5.6,14.6-7.7c1.2-0.5,2.9,1,4.5,1.6c-2.4,12.3-11.8,14.9-19.5,19.8C521.5,643,529.9,635,531.8,623.2z M1381.4,105
			c1.8-4.4,3.5-8.8,5.4-13.2c-0.6-0.7-2.1-1.9-3.2-3.4s-1.9-3.3-2.8-5.1c-2.1,2.4-4.1,4.5-5.9,6.6c-2.8-0.5-5.7-1.1-8.7-1.6
			c1.6,3.5,3.8,6.2,4.2,9.3C1371.3,107.3,1373.9,109.2,1381.4,105z M1247.1,445.9c2.7,2,5.5,3.9,9.3,6.7c0,12.4,0,26.4,0,40
			c7.2,0,13.6,0,20.4,0c0-14.4,0-28.2,0-42.3c6.2,0,11.9,0,18.6,0c0,9.2-0.5,18.1,0.1,26.8c0.7,9.7,5.7,16.2,13.2,17.4
			c5.4,0.8,10.9,0.2,16.3,0.2c0-7.6,0-12.7,0-17.8c-10.4-0.9-11.7-4.9-9.1-26.7c3-0.2,6.1-0.4,9.1-0.7c0-5.7,0-10.8,0-16
			c-3.4-0.2-6.6-0.5-10.2-0.7c0-6.2,0-11.9,0-19.5c-6.9,8.2-21.9-0.5-20.1,19.6c-6.1,0-11.8,0-17.6,0c-0.7-10.4,0.7-11.7,11.8-11.1
			c0-4.2,0.5-8.4-0.2-12.4c-0.4-2.2-2.3-5.6-3.8-5.8c-19.3-3-30.5,9.3-28.9,27.1c0.1,0.7-0.4,1.5-0.6,2.2c-2.5,0.3-4.9,0.7-7.4,1
			c-0.3,4.3-0.5,8.1-0.8,11.9c-0.6-3.5-1.3-6.9-1.8-10.4c-2.8-17.4-10.4-26.7-22.5-27.2c-14.7-0.6-24.4,7.7-27.1,25.6
			c-1.7,11-1.9,22.7-0.8,33.8c1.6,17.4,10.3,26.8,23,27.3c14.5,0.6,23.3-7.5,26.7-25.2C1245.9,462,1246.2,453.9,1247.1,445.9z
			 M272.8,352.2c1.7,1.9,3.4,3.8,6.7,7.4c-2.8-7.2-5.4-11.9-6.6-17c-0.6-2.6,0.4-8.1,1.8-8.8c13.1-6.5,26.2-12.8,39.7-18.1
			c12.4-4.9,25.3-7.4,37.5-12.8c23.2-10.3,30.6-7.1,38.9,21.5c9.3,32.1,17.9,64.4,26.7,96.7c4.5,16.4,3.7,32.2-4.4,46.9
			c-1,1.9-1.6,4.2-2.3,6.3c0.7,0.5,1.5,1,2.2,1.5c2.6-6,6.3-11.7,7.8-18.1c4.1-16.8,2-33.9-1.9-50.1c-8.1-33.4-16.8-66.6-26.1-99.5
			c-5-17.6-18.9-25-33.5-19.4c-8.8,3.4-8.8,3.4-11.8-7.1c-0.3-1-0.6-2.1-0.9-3.1c-6-19.3-14-36.9-29.3-47.3
			c-16.2-11-32.9-10.3-49.2-0.2c-5.1,3.2-8.4,8.6-5.9,17.7c1.6-2.2,2.7-3.2,3.3-4.5c4.2-9.4,10.9-14.8,19.2-14.5
			c8.3,0.3,17.6,1.1,24.6,5.9c17,11.5,27.6,30.5,33.8,53c2.1,7.6-1.7,14.7-8.4,15.8c-5.9,1-4.8-5.9-5.9-9.7
			c-1.9-6.5-3.4-13.2-5.3-19.7c-0.4-1.5-1.4-2.7-2.1-4c0.6,9.8,2.8,18.8,4.1,28c0.4,2.9-1.4,8.4-3.1,9.1
			c-10.5,4.2-21.3,8.1-32.2,10.7c-14.2,3.3-14.1,2.7-17-14.5c-2.3-13.5-5.2-26.8-7.8-40.3c-0.6,0.1-1.1,0.3-1.7,0.4
			c0,1.9-0.3,3.8,0,5.6c2.5,13.8,5.1,27.6,7.7,41.3c1.2,6.3,2.6,12.2-3.8,16.1c-1.9,1.2-3.8,5.6-3.6,8.3c0.4,8.1,0.9,16.6,3.2,24.1
			c2.4,7.9,7.2,14.6,10.7,22c4.1,8.5,2.5,15.5-5.2,18.5c-21.4,8.4-31.1,3.9-37.7-18c-4.8-16.1-8.2-32.8-11.8-49.4
			c-3.1-14.2-5.6-28.6-8.4-42.9c-1.2,4.4-1.2,8.6-0.5,12.6c5.9,30.4,11.7,60.8,17.8,91.2c1.6,7.9,2.8,15.3-3.6,20.9
			c-4.6-4-13.2,0.8-15.1,8.4c-5.4-2.3-11.7-3-15.9-7.2c-4.8-4.9-8.6-12.3-10.9-19.6c-9.5-30.1-18.4-60.5-27.5-90.8
			c-0.4-1.2-1-2.3-1.5-3.5c-0.5,0.1-1.1,0.1-1.6,0.2c0,3.6-0.7,7.6,0.1,10.9c2.9,11.6,6.3,23,9.7,34.4c7,22.7,14.7,45.1,21.1,68.1
			c3.1,11.2-0.9,19-9.9,23.9c-9.3,5.1-16.3,3.4-22-6.2c-14.4-24.7-26.9-50.5-32.2-80.8c-1.4,0.8-2.6,1.5-4.3,2.4
			c0.3-7.9,0.5-14.9,0.8-22.8c-10.2,10.7-10.8,29.1-2,43.7c1.2-2.3,2.3-4.5,3.7-7.3c0.6,4.9,1.1,8.9,1.6,12.9c-1.5-1.7-3-3.3-4.5-5
			c-0.9,2.5-1.8,4.9-2.7,7.4c0.7,0.8,1.5,1.6,2.2,2.4c-0.5-0.9-1-1.8-2.3-4.3c-0.6,8.8-1.4,15.6-1.3,22.5c0.1,2.8,1.7,6.2,3.4,8.3
			c3.2,3.9,7.1,7.1,10.7,10.6c0.8-6.4-1-11.6-6.3-15.1c-1.7-1.2-2.6-4-3.9-6.1c0.6-0.7,1.3-1.5,1.9-2.2c8.4,2.1,13.2,10.1,17.5,18.3
			c3.8,7.1,7.2,14.8,10.9,22c4.4,8.3,10.8,11.8,18.6,10.2c13.1-2.7,23.3-9.7,25.1-28.6c7.9,8.9,16.6,12.6,26.5,12.3
			c5-0.2,7.4,2.5,7.5,8.8c0.1,9.7,0.7,19.4,1.1,29.1c0.9,8.6,1.7,17.1,2.6,25.7c0.6-0.1,1.2-0.2,1.8-0.4c-0.8-8.4-1.5-16.9-2.3-25.3
			c-1.1-15.4,3.2-31.2-1.9-46.7c6.2-6.8,11.4-16.5,22.2-11.4c2.3,1.1,5.4-0.1,8-0.3c2.7-0.2,5.6-0.3,10.5-0.6
			c-4.7,6.3-7.9,10.7-11.1,15.1c-13.4,18-20.8,38.9-18.8,63.6c0.6,7.8,2.6,15.3,4.1,23c0.9-0.1,1.8-0.1,2.7-0.2
			c-8.9-50.7,11.4-84.9,41.4-112.8c-6.2-4.5-1.8-8.7-1.6-10.6c18,2.3,35.4,4.5,52.4,6.7c1.1,8.8,3,18.2,3.4,27.8
			c0.5,11.1,6.5,16.7,12.8,22s12.7,11.2,22.1,9.7c-8.8-6.9-16.7-13-24.5-19.1c0.3-0.8,0.7-1.6,1-2.4c1.8,0,3.6,0,6.3,0
			c-3.4-5.3-6.4-9.8-9.3-14.3c4.5,1.6,8.9,3.9,13.5,4.7c4.5,0.8,9.1,0.2,15,0.2c-10.1-3-18.5-5.6-26.8-8.1c-0.4,0.8-0.9,2-1.5,3.3
			c-2.2-6.8-4.6-13.6-7.2-21.5c16.6-1.8,29.1-8.9,39.6-20.6c-0.3-0.7-0.5-1.4-0.8-2.1c-11.4,5.9-23,11.9-34.4,17.8
			c-0.4-1.1-0.8-2.2-1.2-3.3c4.5-2.9,9.2-5.4,13.4-8.8c4.5-3.7,8.9-7.7,12.3-12.7c2.9-4.4,4.3-10.5,6.3-15.8
			c-0.6-0.4-1.2-0.8-1.7-1.1c-2,3.4-4.1,6.7-6.6,10.9c-0.7-4.3-1.1-7.5-1.6-10.8c-2.1,1.8-3,3.6-3.3,5.6
			c-1.9,14.5-9.9,21.8-20.4,25.8c-14.6,5.7-29.3,5.3-43.9,0.3c-13.6-4.6-24-13.6-28.3-31.2C271.9,353.4,272.4,352.8,272.8,352.2z
			 M1630.6,708.2c-2.7,15.4-5.5,30.8-8,46.2c-0.6,3.9-0.7,7.9-1,11.9c1,0.2,2,0.3,3,0.5c5.1-19,5.9-39,8.3-58.6c2.1-1,4.3-3.1,6.3-3
			c19.3,1.4,38.7,3.1,57.9,4.7c9.7,0.8,19.5,1.7,29.5,2.5c-2.6,29-5.1,56.4-7.6,83.8c0.6,0.1,1.2,0.2,1.9,0.3c0.5-4,1-7.9,1.5-11.9
			c2.6-21.7,5.3-43.3,7.9-65c0.7-5.5,1.8-10.4,8.9-10.2c0.3,6.5,0.9,13,0.9,19.5c0.1,48.6-0.1,97.1,0.1,145.7c0,9,1.5,18.1,2.3,27.1
			c0.6-0.1,1.2-0.1,1.8-0.2c0.2-2.1,0.5-4.2,0.5-6.3c0.6-41.6,1.1-83.3,1.9-124.9c0.4-18.6,1.2-37.1,2.7-55.6
			c0.3-4.2,3.3-9.3,6.4-11.6c8.1-6.4,13.8-15.6,15.3-26.4c4.7-33,8.2-66.3,11.7-99.6c0.9-8.1-2.2-13.9-9.2-15.7
			c-3.2-0.9-6.4-2.4-9.6-3.8c0.1-1.9,0-3.3,0.2-4.6c3.6-21.7,8.9-42.2,23.9-57c12.4-12.3,19.2-29.1,22.7-48.1
			c2.9-16.5,6-33,8.9-49.5c5.5-30.6,7.7-62.2,19.2-90.7c6.1-15.1,1.4-26.9-6.2-38.5c1.5,6.7,2.9,13.3,4.6,20.6
			c-5.3,0.6-4.8-4.5-6.3-6.3c-5.9-6.8-3.3-12.5-0.6-18.3c3.9-8.3,3.2-16-0.7-23.5c-6.6-12.7-16.4-19.2-28.3-19.6
			c-7.4-0.3-9.1-3.5-8.7-12c1-22.3-11.9-39.3-30.2-38.2c-8.1,0.5-16.1,5-24.7,7.9c2.9-18.5-4.1-31.7-18.4-39
			c-14.4-7.4-27.2-4.4-37.5,11.5c-0.7-1.8-1.2-2.5-1.3-3.2c-2.3-24.3-20.6-42.5-40.5-40.5c-6.6,0.7-11.9,3.9-16.3,10.3
			c-16.1,23.6-27.5,50.4-32.4,80.4c-5.4,33.2-15.2,62.9-34.8,87.4c-8.9,11-12.2,25.4-9,40.8c2.2,11.2,4.9,22.6,8.8,33.1
			c14,37.4,24.2,76.3,32.5,116.1c3.6,17.6,5.1,35,0.4,52.5c-1.3,4.8-3.3,11.4-6.4,13c-9,4.5-14.5,11.5-15.9,23.8
			c-4.2-1.7-7.7-4.2-11.2-4.3c-22.2-1.1-43.4,4-63.4,16.4c-2.6,1.6-5.7,2.1-8.6,3c-0.3-3.5-1-7-0.7-10.3c1-9.7,0.2-18.3-7-24.3
			c-1.6-0.9-3.2-1.9-4.9-2.8c-0.1,0.2-0.2,0.4-0.3,0.7c1.3,1.2,2.6,2.3,3.9,3.5c6.7,11.9,7.1,25.8-0.5,33.2c-5.1,5-6.2,9.9-5.2,15.3
			c11,7.8,21.4,15,32.8,23c-0.8-7-1.3-12.1-2-18.2c8.7,6.1,11.4,16.5,7.5,24.5c-3,6.1-6.4,6.1-15.2-0.5c-7.6-5.7-15-11.8-22.5-17.7
			c-0.5,0.4-1,0.8-1.5,1.2c1.2,3.1,1.8,7.6,3.8,9.2c7.6,5.9,15.6,10.9,23.5,16.1c5.2,3.4,9.4,1.6,13.3-3.4
			c9.1-11.9,21.9-12.6,33.6-16.9c2.3,7.6-0.8,10.1-5.1,11.8c-9.1,3.7-18.3,7.3-27.4,10.9c0.1,0.7,0.3,1.4,0.4,2.1
			c8.1-2.1,16.2-4.5,24.3-6.2c2.7-0.6,6.2-0.4,8.6,1.2c3.8,2.6,6.8,7.2,10.5,9.8s5.3,5.1,4.1,10.4c-0.8,3.6-1.4,8.3-0.2,11.3
			c4.5,10.8,3.1,21.7,1.1,32.5c-7.5,40-15.2,79.9-22.8,119.8c-2.6,13.6-5.3,27.3-7.9,40.9c2.9-3.6,4.9-7.6,6-12
			c8.6-33.2,17.5-66.4,25.5-99.8c4.3-17.8,7.2-36.1,10.8-54.1c0.9-4.4,2.1-7.5,7-5.7c14.7,5.3,29.6,9.9,44.3,15.2
			C1625,702.8,1627.6,706,1630.6,708.2z M210.6,617.9c-0.1-0.7-0.2-1.5-0.4-2.2c-1.4,0-2.8-0.3-4.3,0c-15,3.1-21.5-0.8-26.5-18.4
			c-3.3-11.7-5.4-24-7.4-36.2c-2.2-13.4-3.7-27-5.6-40.5c-0.5,0.1-1.1,0.2-1.6,0.3c1.3,18.8,2.5,37.6,3.9,58.1
			c-8.2-12.7-14.5-24.4-17.2-38.9c-6.5-34.3-13.3-68.5-20.1-102.7c-0.6-3.1-1.9-6-2.9-8.9c-0.5,0.2-1.1,0.5-1.6,0.7
			c5,33.3,10,66.5,14.9,99.8c2.9,20.6,10.4,37.6,22.4,52.8c8.6,11,14.9,25,21.6,38.1c4.2,8.3,1.3,18.8-5.3,19.4
			c-9,0.8-10.4,7.3-9.7,15.8c2.6,32.8,5,65.7,8.6,98.4c2,18.1,10.5,31.5,26,35c8.3,1.9,12.3,8.1,13.7,17c2.3,14.4,4.9,28.9,5.6,43.5
			c2.8,56.9,8.2,113.3,18,169c1,5.7,2,11.4,3.5,19.3c4.8-7.8,3-14.1,2.3-20c-3.7-32.4-8.4-64.6-11.4-97.1
			c-3.4-36.1-5.5-72.3-8.5-108.5c-1.4-17.1-1.2-17.9,13-17.9c30.5,0,60.9-1,90.8-8.6c5.5-1.4,7.9,1.2,9.9,7.5
			c8.4,25.7,17.3,51.1,26,76.6c0.8,2.5,2,4.7,3.1,7.1c0.3-0.2,0.5-0.4,0.8-0.7c-9-30.8-18.1-61.6-27.2-92.9
			c11.5-4.6,21.4-8.8,31.3-12.2c1.3-0.5,4.4,2.2,5.1,4.2c12.1,35.5,22.9,71.7,36.2,106.5c11.4,30,25.6,58.5,38.7,87.6
			c1.4,3.2,3.9,5.7,5.9,8.5c0.6-0.6,1.1-1.1,1.7-1.7c-3.9-9.6-7.7-19.2-11.8-28.7c-23.5-53.8-44.3-109.1-59.3-167.4
			c-4.8-18.6-2.3-23.8,11.3-33.7c6-4.3,11.5-10.6,15.7-17.5c7.3-12,14.3-24.5,19.5-37.9c5.4-13.6,14.3-20.9,24.6-26.8
			c5.1-2.9,10.2-5.8,15.6-7.9c9.3-3.6,18.8-6.6,28.2-9.9c-0.1-0.5-0.1-1-0.2-1.5c-7.5,0.9-15,1.9-22.6,2.9c-0.1-2.7-0.3-5.2-0.4-7.9
			c-22.6,18.5-44.6,36.6-66.8,54.8c-1.2-6.2-1.8-11.1-3-15.8c-2-7.9-0.1-16,5.7-20.2c1.8-1.3,4.6-0.6,6.8-0.8
			c-0.4,2.5-0.4,5.1-1.2,7.4c-1.3,3.8-3.1,7.4-4.7,11c0.7,0.8,1.5,1.6,2.2,2.4c19.8-17.8,39.8-35.7,59.6-53.5
			c-0.5-1.3-1.1-2.6-1.6-3.9c-2.4,1-5.1,1.5-7.3,3.1c-2.3,1.7-3.8,4.9-6.2,6.4c-2.4,1.6-5.4,1.9-8,2.7c1.2-3.5,1.7-8.6,3.8-10
			c5.3-3.5,11.2-5.2,16.8-7.7c1.4-0.6,2.6-1.9,3.8-2.9c-1.4-0.7-3-2.4-4.3-2c-3.9,1.1-7.8,2.6-11.5,4.5c-3.4,1.7-6.8,4-10.1,6
			c-0.5-0.7-1-1.4-1.5-2.2c1.9-2.3,3.5-5.6,5.9-6.6c5.7-2.6,11.6-4.1,17.5-6.3c1.6-0.6,3-2.3,4.5-3.6c-0.3-0.8-0.6-1.7-0.9-2.5
			c-4.7,1.4-9.4,2.6-14.1,4.3c-17.6,6.7-19.2,10.8-13.2,31.9c0.5,1.9-0.7,4.7-1.2,7c-2.1-0.6-5.2-0.4-6.4-2
			c-8.5-11.9-4.1-37.6,7.8-43.7c7.4-3.9,15.4-5.9,23.2-8.8c1.6-0.6,3.1-1.7,4.8-2.5c-0.2-0.8-0.5-1.7-0.7-2.5
			c-8,2.4-16.1,4.3-23.9,7.2c-16.8,6.1-20.5,13.3-18.7,34.6c1.1,13.4-0.6,15.5-10.8,11.3c-8.9-3.6-16.6-1.4-23,6.5
			c-4.6,5.7-8.3,12.4-12.4,18.6c-1.2,1.9-2.6,3.7-4.6,6.6c-1.3-9.2-2-16.7-3.5-23.8c-2.8-12.5-9.6-19.8-18-18.8
			c-7.5,0.9-10.4-3.6-10.3-11.1c0.2-12.9,0.4-26.1,2.3-38.8c5-33.3,20.1-60.1,37.6-85.2c2.4-3.5,4.7-7.2,7-10.9
			c-0.5-0.6-1.1-1.1-1.6-1.7c-1.8,1.9-3.9,3.5-5.5,5.8c-9.3,14.2-18.4,28.7-27.7,42.9c-15.8,24.3-21.5,52-18.7,82.6
			c1.3,14.8,2.1,29.7,3.2,45.7c-11.4,3-22.8,6-36.1,9.4c-0.6-15.2-1.1-28.8-1.7-42.2c-6.2,1.4-8.3,4.4-7.4,13.5
			c0.6,6.6,1.6,13.2,3,19.6c1.7,7.9-1.2,10.8-7,11.5c-17,2-34.1,4.2-51.1,5.9c-11.7,1.2-16.3-2.4-21.1-15.6
			c-2.8-8-5.6-16.1-8.4-24.1c-0.6,0.3-1.1,0.5-1.7,0.8c3.4,12.4,6.9,24.9,10.6,38.6c-10.2-1.3-19.7-2.5-29.4-4
			c-1-0.1-2.3-1.8-2.5-3.1c-3-13.7-6-27.5-8.9-41.3C198.9,621.9,204.8,619.9,210.6,617.9z M593.9,553.2c1.1,3.6,2,6.4,2.9,9.2
			c5.3,15.9,10.6,31.8,15.9,47.7c2.6,7.9-1.1,14.7-8,14.7c-2.4,0-4.8-0.7-7.3-1.1c0,6,0,11.7,0,17.3c18.7,6,29.2-0.5,35.7-22.5
			c4.9-16.1,9.2-32.5,13.9-48.7c0.7-2.3,1.6-4.6,2.4-6.9c0.5,0.1,0.9,0.3,1.4,0.4c3.6,16.5,7.2,33,10.7,49.3c7.5,0,14.4,0,21.2,0
			c1.9-10.8,3.8-21.1,5.8-31.4c0.4,0.1,0.9,0.2,1.3,0.3c1.7,10.4,3.4,20.9,5.3,31.4c7.3,0,14,0,21.2,0c4.5-19.7,8.9-39.4,13.5-59.3
			c-6.5,0-12.2,0-18.2,0c-1.3,11.2-2.5,21.9-3.7,32.7c-0.6,0-1.1,0-1.7,0.1c-1.7-10.9-3.5-21.8-5.3-32.9c-6.5,0-12.8,0-19.3,0
			c-2.1,11.6-4.3,23.1-6.4,34.6c-0.5-0.2-1.1-0.3-1.6-0.5c-1.4-11.4-2.8-22.8-4.3-34.4c-11,0-21.4,0.3-31.7-0.1
			c-4.6-0.2-6.2,1.7-7.1,7.1c-1.4,9-3.6,17.7-5.5,26.6c-0.6-0.1-1.2-0.2-1.8-0.2c-1.9-9.3-3.6-18.7-6-27.8c-0.6-2.3-3.2-5-5.1-5.2
			C606.5,552.8,600.6,553.2,593.9,553.2z M921.3,673.2c0-6.4,0-12.1,0-18.4c-7.2,2.5-13.6,4.7-19.7,6.9c-0.2,4.3-0.4,7.7-0.5,11.1
			c-6.4,0-12.2,0-17.9,0c0.1-10.5,1.3-11.6,12.2-10.9c0-4.4,0.3-8.9-0.1-13.2c-0.2-1.9-1.9-4.7-3.1-5c-17.7-3.1-31,7.3-29.5,27
			c0.1,0.7-0.4,1.4-0.6,2.2c-2.5,0.3-4.9,0.6-7.1,0.9c0,5.7,0,10.8,0,15.8c2.8,0.4,5.2,0.7,8,1c0,14.4,0,28.1,0,42.3
			c6.9,0,13.3,0,20.4,0c0-14.3,0-28.3,0-42.6c6.5,0,12.3,0,18.4,0c0,4.5,0,8.6,0,12.8c0,4.4-0.1,8.9,0.3,13.3
			c0.7,10,5.5,16.9,13.4,18.2c5.4,0.8,10.8,0.2,16.2,0.2c0-7.6,0-12.7,0-17.8c-9.2-0.7-9.5-1.2-9.6-11.7c0-4.9,0-9.8,0-14.9
			c3.7-0.3,6.8-0.6,9.5-0.8c0-5.9,0-11,0-16.4C927.9,673.2,925.2,673.2,921.3,673.2z M958.7,492.9c0-11.5-0.1-22,0-32.5
			c0-4.9,0.6-10.2,5.8-10.3c5.6-0.1,5.3,5.6,5.3,10.3c0.1,10.7,0,21.5,0,32.4c7.2,0,13.6,0,20.1,0c0-14.8,0.6-29.3-0.2-43.6
			c-0.8-14.2-10.6-21.3-21.5-16.3c-3.8,1.8-7.1,5.2-10.8,8.1c-3.1-6.3-8-10.7-14.4-9.2c-5.5,1.3-10.5,4.8-15.5,7.3
			c-0.1-1.1-0.5-3.4-0.8-5.6c-6.8,0-13.1,0-19.6,0c0,19.9,0,39.6,0,59.3c6.7,0,13.2,0,20.2,0c0-3.2,0-5.9,0-8.6
			c0-8.9-0.4-17.8,0.4-26.6c0.2-2.8,3.6-5.1,5.6-7.6c1.7,2.5,3.8,4.7,4.9,7.6c0.8,2.4,0.2,5.5,0.2,8.2c0,9,0,18.1,0,27.2
			C945.5,492.9,951.7,492.9,958.7,492.9z M1214,553.6c-7,0-13.5,0-20.5,0c4.4,20.2,8.6,39.9,12.8,59.3c7.6,0,14.3,0,21.2,0
			c1.8-10.1,3.6-19.9,5.5-29.6c0.6,0,1.2,0,1.8,0c1.7,9.8,3.3,19.6,5.2,30c6.1,0,11.9,0.3,17.7-0.2c1.5-0.1,3.7-2.1,4.2-3.8
			c4.4-18.3,8.5-36.8,12.8-55.7c-6.3,0-12.1,0-18.2,0c-1.3,11.8-2.6,23.5-3.9,35.3c-0.4,0-0.7,0-1.1,0c-1.9-11.8-3.8-23.6-5.7-35.2
			c-6.9,0-13.2,0-19.3,0c-2.2,11.7-4.3,23-6.4,34.2c-0.5-0.1-1.1-0.1-1.6-0.2C1216.8,576.6,1215.4,565.4,1214,553.6z M856.9,466.4
			c-0.6-0.1-1.2-0.1-1.8-0.2c-1.7-10.8-3.4-21.6-5.2-32.5c-6.7,0-13.1,0-19.4,0c-2.2,11.8-4.3,23-6.4,34.3c-0.5-0.1-1.1-0.2-1.6-0.3
			c-1.4-11.3-2.7-22.7-4.2-34.2c-7,0-13.5,0-20.4,0c4.4,20.2,8.6,39.9,12.8,59.1c7.6,0,14.5,0,21.3,0c2-10.8,3.8-21.1,5.8-31.3
			c0.4,0.1,0.9,0.2,1.3,0.3c1.7,10.4,3.4,20.9,5.2,31.2c7.4,0,14.1,0,21.3,0c4.5-19.7,8.9-39.4,13.5-59.3c-6.5,0-12.2,0-18.2,0
			C859.4,444.8,858.1,455.6,856.9,466.4z M1132.5,673.6c-6.6-0.4-12.7-2.3-18.2-0.8c-11.2,3.1-16.7,16.3-16.5,34.1
			c0.4,24,18,36.3,32.8,22.7c7.1,7.2,14.8,2,22.2,3.9c0-30,0-59,0-88.2c-6.8,0-13.2,0-20.3,0c0,5.3,0,10.3,0,15.2
			S1132.5,670.3,1132.5,673.6z M1072.6,675.7c-4.4-1.6-7.9-3.6-11.5-4c-10.9-1.1-19.8,8.1-22.5,22.3c-3.3,18.3,1.2,34.8,12.1,38.9
			c4.9,1.8,10.7-0.1,16.1-0.9c1.8-0.3,3.3-2.3,3.6-2.5c7.7,6.7,15.1,2.3,22.5,4c0-3.4,0-5.8,0-8.3c0-26.5,0-53,0-80
			c-7,0-13.4,0-20.2,0C1072.6,655.6,1072.6,665.5,1072.6,675.7z M507.7,608.5c17,15.3,31.5-0.4,33.6-16.8c0.8-5.9,0.7-12.2,0.3-18.2
			c-0.7-9-3.7-16.7-11-20.2c-7.5-3.6-14.6-2.3-20.7,4.7c-0.4,0.5-1.1,0.7-1.8,1.1c-0.3-2-0.6-3.8-0.8-5.3c-6.7,0-13.2,0-19.4,0
			c0,29.5,0,58.5,0,87.2c6.9,0,13.4,0,19.8,0C507.7,630.1,507.7,619.8,507.7,608.5z M1081.1,525.2c0,29.7,0,58.7,0,87.5
			c6.9,0,13.4,0,19.9,0c0-11.1,0-21.7,0-32.2c0-4.9,0.3-10.3,5.6-10.3c5.5,0,5.3,5.6,5.3,10.4c0,10.7,0,21.5,0,32.3c7,0,13.2,0,19,0
			c0-15.6,1.1-31-0.3-45.9c-1.4-14.7-14.3-20.1-24.4-11.7c-1.5,1.3-3,2.7-5.5,4.8c0-12.5,0-23.5,0-34.7
			C1094,525.2,1087.8,525.2,1081.1,525.2z M705.5,492.9c0-4,0-7.6,0-11.1c0-8.1-0.5-16.2,0.3-24.1c0.3-2.8,3.5-5.1,5.5-7.7
			c1.7,2.5,3.8,4.8,4.9,7.6c0.8,2.4,0.2,5.5,0.2,8.2c0,9,0,18.1,0,26.8c7.2,0,13.4,0,19.8,0c0-13.3,0-26.1,0-38.8
			c0-2.2-0.4-4.4-0.8-6.6c-2.6-14.6-14.3-20.5-24.5-12.3c-1.6,1.3-3.1,2.8-5.7,5.1c0-12.5,0-23.7,0-34.5c-7.2,0-13.6,0-19.8,0
			c0,29.4,0,58.2,0,87.4C691.9,492.9,698.2,492.9,705.5,492.9z M631.5,469.5c0,5.9-0.2,11.1,0.1,16.4c0.1,2,1.3,5.1,2.5,5.6
			c12.4,5,24.8,6,36.7-1.8c13.1-8.7,14-30,1.9-40.8c-4.5-4-10-6.1-14.8-9.7c-2.1-1.7-3.3-5.1-5-7.8c2.4-1.6,5-4.7,7.2-4.5
			c5.7,0.6,11.1,2.9,17.2,4.6c0-5.1,0.2-10.5-0.1-16c-0.1-1.7-1.4-4.4-2.5-4.7c-11.3-3.4-22.7-4.9-33.4,2.4
			c-13.8,9.4-14.5,31.9-1.4,42.6c3.5,2.9,7.9,4.1,11.3,7c2.6,2.2,4.4,6,6.5,9.1c-3.3,1.5-6.8,4.7-9.8,4.2
			C642.5,475.2,637.4,472,631.5,469.5z M1300.1,641c18.6,6.1,29-0.1,35.6-21.6c3.3-10.6,6.2-21.4,9.2-32.1
			c3.1-11.1,6.3-22.2,9.5-33.6c-7,0-13.3,0-19.6,0c-2.4,11.3-4.7,22.2-7,33.1c-0.6-0.1-1.2-0.2-1.8-0.3c-0.8-3.7-1.5-7.4-2.3-11
			c-4.9-23.6-4.9-23.6-25-22.1c-0.4,0-0.8,0.4-1.5,0.7c0.4,1.5,0.7,3.1,1.2,4.6c5.6,16.9,11.2,33.8,16.8,50.8c3,9.2-1,16.1-9.1,15.4
			c-1.9-0.2-3.8-0.8-6.1-1.2C1300.1,629.5,1300.1,635,1300.1,641z M804.6,673.9c3.9-1.9,7.2-3.9,10.6-4.9c4.4-1.2,9.4-2.4,12.1,3.6
			c2.7,6-0.4,10.6-3.9,14.4c-4.9,5.3-10.2,10.1-14.9,15.6c-7.1,8.3-8.4,18.9-7.3,30.1c16.3,0,31.9,0,47.4,0c0-6.8,0-13,0-19.8
			c-8.7,0-16.9,0-25.1,0c2.2-4.4,5.2-7,8-9.8c4.1-3.9,8.6-7.3,11.9-12c10.9-15.6,4.5-38.7-11.8-42.3c-9-2-18.7-1.3-25.7,5.8
			C803,657.3,804.9,666.9,804.6,673.9z M1446.1,553.5c0,3.6,0,6.3,0,9.1c0,8.6,0.5,17.3-0.3,25.7c-0.3,3-3.7,5.5-5.8,8.2
			c-1.6-2.8-3.7-5.4-4.8-8.5c-0.8-2.4-0.2-5.5-0.2-8.2c0-8.8,0-17.5,0-26.3c-7.3,0-13.6,0-20.1,0c0,14.9-0.7,29.6,0.2,44.1
			c0.9,14,10.8,20.8,21.8,16.2c2.9-1.2,5.6-3.3,6.9-4.1c7.7,6.7,15.2,2.2,22.3,3.7c0-20.5,0-40.1,0-59.8
			C1459.3,553.5,1453.2,553.5,1446.1,553.5z M768.6,494.9c16.7,0,26.5-10,28.5-28.8c1.6-16.8-6.5-30-21-34
			c-20.3-5.6-36.5,9.8-35.3,33.6C741.5,484,752,494.9,768.6,494.9z M1164.3,614.9c13.1,0,22.2-6.6,26.1-18.7
			c4.2-12.7,2.1-27-5.1-35.5c-8.2-9.7-23.7-12.3-35.4-5.8c-9.4,5.2-14.3,15.5-14,29.5C1136.4,603.6,1146.9,615,1164.3,614.9z
			 M1381.8,614.9c16.8,0,26.6-10,28.3-29c1.5-17.1-6.6-30.7-21.2-33.7c-19.6-4.1-37,8-34.9,35.1
			C1355.2,604.6,1365.6,614.9,1381.8,614.9z M707,732.9c6.4,0,12.2,0,17.6,0c0-14.5,0.5-28.6-0.2-42.6c-0.5-9.5-5.5-16.6-13.4-17.1
			c-8.8-0.6-17.7,0.9-26.5,2c-1.1,0.1-2.7,2.8-2.9,4.5c-0.4,4-0.1,8.1-0.1,12.4c19.7-7.5,21.5-7.4,24.5,0.6
			c-6.6,1.7-13.3,2.9-19.6,5.4c-6.8,2.7-9.6,9.7-9.5,18.3c0.1,7.4,2.1,13.8,8,16.9c6.3,3.4,12.4,2.4,17.6-3.3
			c1.1-1.2,1.7-3.1,2.5-4.7c0.4,0.4,0.9,0.7,1.3,1.1C706.6,728.4,706.8,730.5,707,732.9z M1119.5,492.9c0-13.2,0.4-25.4-0.1-37.5
			c-0.6-14.8-6.9-22.6-18.5-23.6c-4.5-0.4-9,0-13.5,1c-12.6,2.8-12.6,3-11.5,18.4c0,0.2,0.2,0.4,0.3,0.6c20.3-7,20.8-7,24.1,0.7
			c-6.7,1.9-13.7,3.1-20.2,5.8c-6.5,2.7-9,9.6-9,17.8c0,7.4,2,13.8,7.9,17c6.3,3.4,12.4,2.5,17.6-3.1c1.1-1.2,1.8-3,3.6-6.2
			c0.5,4.7,0.7,6.9,0.9,9.1C1107.3,492.9,1113.2,492.9,1119.5,492.9z M549.2,572.2c8.5-2.7,16.6-10.5,26.3,0.3
			c-7.1,1.6-12.7,2.4-17.9,4c-8.4,2.6-12.5,8.3-13.2,17.5c-0.6,9.1,2.3,16.2,8,19.4c6.8,3.8,13.3,1.9,19.5-5.8
			c0.4-0.5,1-0.9,1.7-1.5c0.3,2.6,0.6,4.9,0.9,6.8c6.4,0,12.2,0,18,0c0-13.4,0.6-26.5-0.2-39.4c-0.8-13.5-7-20.4-17.9-21.6
			c-4.5-0.5-9.1-0.3-13.5,0.8C546.3,556.1,548.9,554.2,549.2,572.2z M1016,692.1c-8.3,2.2-14.9,3.3-21.2,5.7
			c-6.9,2.6-9.9,9.4-10,17.9c-0.1,7.3,1.8,13.9,7.5,17.3c6.2,3.6,12.3,2.8,17.7-2.5c1.2-1.1,2.2-2.5,3.6-4.1c0.6,2.6,1,4.7,1.4,6.4
			c6.4,0,12.2,0,18,0c0-12.7,0.3-24.9-0.1-37c-0.4-14.8-6.9-23.1-18.8-24c-4.5-0.3-9,0-13.4,1.1c-13.3,3.4-11.2-0.1-11.1,17.9
			c0,0.5,0.4,0.9,0.6,1.5C998.2,689.1,1006.1,682.1,1016,692.1z M759.5,572.8c-2.6,0.7-5.2,1.4-7.8,2c-2.6,0.6-5.4,0.8-7.9,1.6
			c-8.8,2.8-13,8.2-13.5,17.9c-0.4,8,1.4,14.9,7.7,18.8c6.4,4,13.4,2,19.6-5.2c0.4-0.5,1-0.8,1.9-1.4c0.3,2.4,0.5,4.4,0.7,6.1
			c6.6,0,12.5,0,18.4,0c0-12.8,0.3-25-0.1-37.2c-0.4-14.2-6.4-22.1-17.7-23.5c-4.7-0.6-9.5-0.3-14.1,0.9c-14,3.5-11.6,0.5-11.5,18.3
			c0,0.4,0.5,0.9,0.6,1.2C743.7,569.1,751.4,562.1,759.5,572.8z M1207.8,710c0.5-13.3,0.4-25.4-9.1-33.5c-8.2-6.9-21.4-6.6-30.1,0.7
			c-8.4,7-12.4,20.8-9.9,34.8c2.1,12.5,8.7,20.2,19.9,22.5c3.7,0.8,7.7,0.6,11.4,0.4c12.5-0.7,14.1-3.1,12.8-18.4
			c0-0.2-0.2-0.4-0.5-0.9c-8.4,2-17.3,6.5-25.5-5.6C1188.2,710,1197.6,710,1207.8,710z M1015.4,472.4c0.1-0.9,0.2-1.8,0.4-2.7
			c9.6,0,19.1,0,28.7,0c1.5-15.5-1.2-26.1-7.8-32.4c-8.1-7.6-21.3-7.9-30.5-0.7c-8.7,6.8-13,20.7-10.7,35.2
			c1.8,12.2,9.4,20.7,20.7,22.7c3.3,0.6,6.8,0.4,10.1,0.3c13.6-0.5,14.7-2.2,13.4-19.4C1031.1,477.5,1022.3,482.2,1015.4,472.4z
			 M790.6,732.9c0-28.3,0-56.1,0-84c-13.8-4.2-22.7,10.7-34.6,11.2c0,6.7,0,12.2,0,18.6c5-1.4,9.5-2.7,14.6-4.2
			c0,19.4,0,38.7,0,58.3C777.6,732.9,784,732.9,790.6,732.9z M1150,419.8c0,6.4,0,12.1,0,18.8c5.1-1.3,9.6-2.6,15-4
			c0,19.9,0,39.2,0,58.3c6.9,0,13.2,0,19.6,0c0-28.2,0-56.1,0-83.9C1171,404.1,1162.2,419.9,1150,419.8z M1223.9,944
			c-166,0-331.2,0-496.2,0c0,25.7,0,50.6,0,75.5c165.8,0,330.9,0,496.2,0C1223.9,993.9,1223.9,969,1223.9,944z M813.5,525.1
			c0,29.9,0,58.9,0,87.6c7,0,13.4,0,19.6,0c0-29.6,0-58.5,0-87.6C826.2,525.1,819.9,525.1,813.5,525.1z M1035.6,595.8
			c0,4.7-0.2,8.8,0.1,12.9c0.1,1.5,1.2,4,2.2,4.2c9.7,2.5,19.6,4,29-1.9c6-3.7,8.7-9.9,8.6-18.3c-0.1-8.1-3.7-12.7-9.3-15.7
			c-2-1.1-4.5-1.4-6.3-2.8c-1.7-1.2-2.8-3.5-4.3-5.3c2-0.8,4.1-2.4,6-2.2c3.4,0.3,6.8,1.6,10.3,2.5c0-5.4,0-10.4,0-15.5
			c-9.3-3-18.3-3.9-27.1,1c-6.2,3.4-9.3,9.3-9.2,17.7c0,7.9,3.3,12.9,9.1,15.8c2.2,1.2,4.8,1.9,6.9,3.3c1.7,1.2,3.1,3.3,4.7,4.9
			c-2,1.1-4.3,3.3-6.2,3.1C1045.4,599.1,1040.9,597.3,1035.6,595.8z M916.1,612.9c0-27.7,0-55,0-82.4c-7,0-13.6,0-20.1,0
			c0,27.9,0,55.2,0,82.4C902.9,612.9,909.4,612.9,916.1,612.9z M805.5,613c0-29.7,0-58.6,0-87.6c-6.8,0-13.2,0-19.5,0
			c0,29.5,0,58.4,0,87.6C792.5,613,798.7,613,805.5,613z M976,613c0-29.7,0-58.6,0-87.6c-6.8,0-13.2,0-19.5,0c0,29.5,0,58.4,0,87.6
			C963.1,613,969.3,613,976,613z M984.4,525.2c0,29.7,0,58.6,0,87.6c6.8,0,13.2,0,19.6,0c0-29.5,0-58.4,0-87.6
			C997.4,525.2,991.1,525.2,984.4,525.2z M979.9,733c0-29.8,0-58.7,0-87.6c-6.8,0-13.3,0-19.5,0c0,29.5,0,58.4,0,87.6
			C967,733,973.3,733,979.9,733z M1234.3,677c-6.5-7.5-14.4-2.1-21.5-3.7c0,20.6,0,40.1,0,60c3.6,0,6.8,0,9.9,0c3.2,0,6.6,0,10.2,0
			c0-8.4,0-15.6,0-22.7c0-16.8,2.5-19.7,16.2-18.3c0-6.6,0-13.2,0-22.3C1243.5,672.6,1238.9,674.8,1234.3,677z M968,89.6
			c2.9,0,5.4,0,7.8,0c2.1-3.4,6-7.1,7.5-6c4.9,3.5,2.1,8.7-0.4,12.6c-3.6,5.6-8.1,10.5-11.7,16.1c-1.5,2.3-2,5.7-3.2,9.4
			c10,0,18.3,0,26.6,0c0.5-1.9,1-3.7,1.4-5.2c1.6,2,2.9,3.7,4.3,5.4c0.6-2.3,1.5-4.5,1.9-6.8c0.7-4.8-2-11,4.7-13.5
			c-2-2-3.3-3.4-5.5-5.4c1.8-1.3,3.1-1.9,4.2-3.1c0.7-0.8,1.1-2.2,1.1-3.3c0-0.5-1.5-1.6-2-1.3c-2,0.8-4.9,1.4-5.8,3.2
			c-1.7,3.3-3,7.5-3,11.3c-0.1,3.7,1.6,7.4,2.5,11.4c-6.6,0-11.6,0-18.1,0c4.5-6.6,8.5-11.7,11.7-17.5c4.5-7.9,2.9-16.9-2.9-20.8
			C979.6,70,970.1,75.9,968,89.6z M975.9,53.5c-8.6-3.2-13,0.3-16.4,9.5c-6.9,18-14.9,35.4-22.4,53c-0.8,1.8-1.2,3.8-1.8,5.7
			c0.3,0.7,0.7,1.4,1,2.1c4.1-1.7,10.2-2,11.8-5.4C957.9,97.3,966.7,75.4,975.9,53.5z M219.8,599.6c3,0.6,6.1,1.3,9.1,1.8
			c18.3,3.2,36.6,6.2,54.9,9.7c12.3,2.3,24.3,2.3,36.1-3c3.6-1.7,7-4.4,10.5-6.6C293,605.8,256.5,598,219.8,599.6z M861.1,597
			c-6.5,0-12.5,0-18.4,0c-1.6,9.9-3.1,19.3-4.7,29.2c5.8,0,11,0,16.5,0C856.6,616.3,858.8,606.8,861.1,597z M206.3,274.7
			c0.5-0.8,1.1-1.5,1.6-2.3c-3.9-3.5-7.6-8.4-12.1-10.2c-12.7-5.1-34.1,8.5-38.9,23.8c-0.7,2.5,0.1,5.7,0.3,8.6
			C164.5,275.9,185.6,267.1,206.3,274.7z M211.1,275.7c8-25.9,24.6-32,45.6-29.7c-8.8-9.6-25.1-9.1-36.5-0.4
			C211.6,252.1,207.7,263.5,211.1,275.7z M1461.6,538.7c0.2-0.8,0.4-1.6,0.5-2.5c-13.4-5.1-26.7-10.3-40.2-15.1
			c-1.1-0.4-3.4,1.3-3.9,2.8c-2.9,8.1,0.3,15.5,7.4,18.1c2.8,1,5.4,3.1,8.2,3.9c7,2,14,3.6,21.1,5.4c0.2-0.9,0.3-1.9,0.5-2.8
			c-6-1.8-11.9-3.8-18-5.4c-7.1-1.9-14.5-3-13.4-16.2C1436.4,530.9,1449,534.8,1461.6,538.7z M1263.4,735c6.9-0.1,11.2-5,10.9-12.2
			c-0.2-7-4.9-11.4-11.8-11.2c-6.5,0.2-10.9,5-10.8,11.7C1251.8,730.2,1256.7,735.1,1263.4,735z M242.3,574.8
			c0.5,0.1,1.1,0.2,1.6,0.2c0.8-3.4,2.6-7,2.2-10.2c-1-8.1-2.1-16.5-4.7-24c-6-17.9-14.3-34.2-24.6-49
			C226.4,519.1,243.3,542.7,242.3,574.8z M932.1,528.5c-1.9,8.4-3.7,16.2-6.1,26.2c5.4-1.7,10.8-1.3,13.2-4.5
			c4.4-6,6.8-14,10.3-21.7C943.3,528.5,937.9,528.5,932.1,528.5z M952.8,121.7c4.4,0,8.2,0,10.2,0c4.9-9.6,9.1-18.1,13.5-26.8
			c-8.4-3-13.6-0.7-16.4,9C958.4,109.8,955.5,115.1,952.8,121.7z M1420.1,509.1c0.9-0.7,3.1-1.8,4.4-3.7c2.3-3.7,4.2-7.8,6.1-11.9
			c2.3-5,3.3-9.5-2-13.1c-5-3.4-8.6-2-11.4,3.5c-2,3.9-3.9,8-5.4,12.4C1409,504.7,1411.5,509.1,1420.1,509.1z M320,584.6
			c-22.1,0.3-38.3-13.8-53.4-33.8C270.1,570.9,302.3,590.7,320,584.6z M993.5,52.8c-12.7-1.2-12.8-1.2-18.3,17.6
			C986.7,73.6,990.9,64.9,993.5,52.8z M153.9,298.9c-9.1-2.3-25.8,13.4-29.7,30.1C134.2,319,144.1,308.9,153.9,298.9z M296.4,358
			c14.3-2.1,23.5-8.9,25-17.9c1.3-7.6-1.3-16.4-6.2-19.6c0.7,8,6.8,16.4-0.1,23.2C310,349.1,303.6,352.7,296.4,358z M1019.4,120.7
			c-5.1-6.9-6.8-13.3-0.8-19.8c-1.2-1.4-2.3-2.6-3.3-3.8c-1.3-1.6-2.6-3.2-3.8-4.8c-1.3,3.4-3.3,6.7-3.5,10.2c-0.2,3.4,2,7,2.2,10.6
			C1010.3,119.8,1012.6,122.8,1019.4,120.7z M1411,103.1c0-7.7,0-13.1,0-18.5c-0.3,0-0.6,0-0.9,0c-0.2,3.2-0.4,6.3-0.6,10.6
			c-3.1-4.7-5.7-8.6-9.3-14.1c0,8.6,0,14.4,0,20.2c0.3,0,0.7,0.1,1,0.1c0.5-3.4,1-6.8,1.7-11.6C1405.8,94.4,1407.8,97.8,1411,103.1z
			 M302.8,241.6c-0.6,0.2-1.3,0.4-1.9,0.6c0.3,5.8,0.5,11.7,0.8,17.5c0.6,0.1,1.2,0.1,1.7,0.2c1.3-2.3,2.5-4.7,3.8-7.1
			c3.6,2.6,6.9,4.9,10,7.2c0.4-0.7,0.7-1.3,1.1-2C313.2,252.5,307.9,247.1,302.8,241.6z M137.9,332.5c-12.1,4.8-13.6,19.4-3.5,33.8
			C129,353.9,130,342.7,137.9,332.5z M254.4,284.1c5.9-3.2,7.1-18.5,1.2-30C255.2,264.7,254.9,274.3,254.4,284.1z M153.4,493.4
			c0.7-0.4,1.3-0.8,2-1.1c-1.6-10.8-4.5-20.9-10.3-29.3c-0.7,0.4-1.3,0.8-2,1.1C146.6,473.9,150,483.6,153.4,493.4z M1456.1,83.1
			c-0.7,0-1.3,0-2,0.1c-1.7,5.3-3.4,10.7-4.6,14.1c4.3,0.7,8,1.4,11.8,2C1459.8,94.8,1458,88.9,1456.1,83.1z M176.5,324.5
			c9,2.9,19.1-2.7,22.2-11.4C191.4,316.9,184.6,320.3,176.5,324.5z M160,378c-6.6,1-13.4,1.9-20.2,2.9
			C145.7,388.1,154.4,386.7,160,378z M243.9,284.2c-3.6,1.7-7.1,3.2-11,5c4.6,4.5,7.8,9.9,13.1,4.1
			C245.4,290.6,244.8,287.8,243.9,284.2z M1531.8,100.9c-2.3-1.5-4.3-2.8-6.2-4c0.2-0.5,0.4-1.1,0.6-1.6c2.1-0.2,4.4-0.4,6.5-0.6
			c0.3-0.8,0.6-1.6,0.9-2.4c-2-1.4-5-4.5-5.9-3.8c-2,1.6-4.2,5.3-4.1,7.8C1524.2,102.2,1527.9,102.4,1531.8,100.9z M253.6,398.7
			c10.4,2.8,16.9,0.9,19.7-6C266.8,394.7,261,396.5,253.6,398.7z M244.5,265.6c-0.2-0.8-0.4-1.6-0.6-2.4c-5.7-0.1-11.4-0.3-14.8,8.4
			C234.2,269.6,239.4,267.6,244.5,265.6z M1463.3,88.1c-0.5,0.3-0.9,0.5-1.4,0.8c1.4,4.3,2.8,8.5,5,15c2.2-6.4,3.7-10.6,5.2-14.8
			c-0.5-0.3-1-0.6-1.6-0.9c-1.1,2.7-2.2,5.4-3.5,8.6C1465.5,93.5,1464.4,90.8,1463.3,88.1z M222.8,403.6
			c-5.5-3.4-12.2,0.6-16.5,10.4C212.2,410.2,217.3,407,222.8,403.6z M166,306.5c-1,0.4-1.9,0.9-2.9,1.3c2.3,6,4.6,12.1,6.9,18.1
			c0.8-0.4,1.5-0.9,2.3-1.3C170.1,318.6,168,312.5,166,306.5z M293.3,260.9c-0.2-1.3-0.4-2.5-0.7-3.8c-4.8,1.6-9.5,3.2-14.3,4.8
			c0.2,1,0.4,1.9,0.6,2.9C283.6,263.6,288.4,262.3,293.3,260.9z M232.9,424.2c-0.6,0.7-1.2,1.5-1.8,2.2c3.8,5.1,7.8,10.2,11.6,15.4
			c0.6-0.7,1.2-1.5,1.9-2.2C240.7,434.5,236.9,429.3,232.9,424.2z M1581.2,84.8c-0.4-0.5-0.8-1.1-1.2-1.6c-1.3,3.4-3.4,6.9-3.5,10.3
			c0,2.5,2.8,5.1,4.8,8.2C1581.2,94.8,1581.2,89.8,1581.2,84.8z"/>
		<path class="st1" d="M1476.1,546.3c7.2,6,8,14.6,7,24.3c-0.3,3.4,0.4,6.9,0.7,10.3c2.8-1,6-1.4,8.6-3
			c19.9-12.4,41.2-17.5,63.4-16.4c3.5,0.2,7.1,2.7,11.2,4.3c1.5-12.3,6.9-19.3,15.9-23.8c3.1-1.5,5.2-8.2,6.4-13
			c4.7-17.4,3.3-34.9-0.4-52.5c-8.3-39.8-18.5-78.7-32.5-116.1c-3.9-10.5-6.5-21.8-8.8-33.1c-3.1-15.4,0.1-29.8,9-40.8
			c19.7-24.5,29.5-54.2,34.8-87.4c4.9-30.1,16.3-56.8,32.4-80.4c4.4-6.4,9.8-9.6,16.3-10.3c19.9-2.1,38.1,16.2,40.5,40.5
			c0.1,0.7,0.5,1.4,1.3,3.2c10.2-15.9,23.1-18.9,37.5-11.5c14.4,7.4,21.4,20.6,18.4,39c8.6-2.9,16.6-7.4,24.7-7.9
			c18.2-1.1,31.2,15.9,30.2,38.2c-0.4,8.5,1.3,11.7,8.7,12c11.8,0.4,21.8,6.9,28.3,19.6c3.8,7.5,4.6,15.2,0.7,23.5
			c-2.7,5.8-5.3,11.5,0.6,18.3c1.5,1.8,1,6.9,6.3,6.3c-1.6-7.3-3.1-14-4.6-20.6c7.6,11.6,12.3,23.4,6.2,38.5
			c-11.5,28.5-13.8,60.1-19.2,90.7c-2.9,16.5-6,33-8.9,49.5c-3.4,19-10.3,35.8-22.7,48.1c-15,14.8-20.3,35.3-23.9,57
			c-0.2,1.3-0.1,2.7-0.2,4.6c3.3,1.3,6.4,2.9,9.6,3.8c7,1.9,10.1,7.7,9.2,15.7c-3.6,33.3-7.1,66.5-11.7,99.6
			c-1.5,10.8-7.1,20-15.3,26.4c-2.9,2.4-6,7.4-6.4,11.6c-1.4,18.5-2.3,37-2.7,55.6c-0.9,41.6-1.3,83.3-1.9,124.9
			c0,2.1-0.4,4.2-0.5,6.3c-0.6,0.1-1.2,0.1-1.8,0.2c-0.8-9-2.3-18.1-2.3-27.1c-0.2-48.6-0.1-97.1-0.1-145.7c0-6.5-0.6-13-0.9-19.5
			c-7.1-0.2-8.2,4.8-8.9,10.2c-2.6,21.7-5.3,43.3-7.9,65c-0.5,4-1,7.9-1.5,11.9c-0.6-0.1-1.2-0.2-1.9-0.3c2.4-27.4,5-54.8,7.6-83.8
			c-9.9-0.8-19.7-1.7-29.5-2.5c-19.3-1.6-38.6-3.3-57.9-4.7c-2-0.1-4.2,1.9-6.3,3c-0.7,0-1.5,0-2.2,0c-2.9-2.3-5.6-5.5-8.7-6.6
			c-14.7-5.3-29.6-9.9-44.3-15.2c-4.9-1.8-6.1,1.3-7,5.7c-3.6,18-6.5,36.3-10.8,54.1c-8.1,33.4-16.9,66.6-25.5,99.8
			c-1.1,4.3-3,8.4-6,12c2.6-13.6,5.3-27.2,7.9-40.9c7.6-39.9,15.3-79.9,22.8-119.8c2-10.8,3.3-21.7-1.1-32.5
			c-1.2-3-0.6-7.7,0.2-11.3c1.2-5.4-0.3-7.9-4.1-10.4c-3.8-2.6-6.8-7.2-10.5-9.8c-2.3-1.6-5.8-1.8-8.6-1.2
			c-8.2,1.7-16.2,4.1-24.3,6.2c-0.1-0.7-0.3-1.4-0.4-2.1c9.1-3.6,18.3-7.3,27.4-10.9c4.3-1.7,7.4-4.2,5.1-11.8
			c-11.7,4.2-24.4,5-33.6,16.9c-3.8,5-8.1,6.8-13.3,3.4c-7.9-5.2-15.9-10.2-23.5-16.1c-2-1.6-2.6-6-3.8-9.2c0.5-0.4,1-0.8,1.5-1.2
			c7.5,5.9,14.9,12,22.5,17.7c8.8,6.6,12.2,6.6,15.2,0.5c3.9-7.9,1.2-18.4-7.5-24.5c0.7,6.1,1.2,11.2,2,18.2
			c-11.4-8-21.8-15.3-32.8-23c-0.9-5.4,0.1-10.4,5.2-15.3c7.6-7.3,7.1-21.2,0.5-33.2C1475.2,547.2,1475.6,546.8,1476.1,546.3z
			 M1819,287.4c-0.5,0.8-1,1.7-1.5,2.5c-2,2.2-4.2,4.3-6.2,6.5c0.5-5.3,2.6-9.4,3.1-13.8c0.5-4.2-0.9-8.7-1.4-13.3
			c-4.9-2.6-10.1-5.5-15.4-8.4c3.9-4.5,7.4-9.4,9.1-0.2c0.2,0.8,1.4,2,2,1.9c4.7-0.6,10.2,0.1,13.7-2.8c4.5-3.8,3.3-11.5-0.2-15.5
			c-4.7-5.2-10.3-9.7-16.2-12.5c-11.6-5.5-15.4-2.9-20.4,11.3c-6.8,19-13.6,38-20.3,57c-3.2,9.3-6.5,18.7-9.3,27.1
			c2.6,2.7,4.9,4,5.9,6.2c6.5,14.2,23,15.7,30.7,2.8c4.3-7.1,9.3-13.6,13.6-20.7c4.6-7.5,8.5-15.5,12.8-23.3c0.3-1.2,0.7-2.5,1-3.7
			c0.2-0.9,0.4-1.7,0.7-2.6C1820.2,286.3,1819.6,286.8,1819,287.4z M1713.6,285.8c-10.7,6.3-21.6,12.6-32.2,18.8
			c11.5,12,22.8,9.5,29.7-7.2c1.4-3.4,2.1-7.1,3.2-10.7c0.2-0.3,0.5-0.7,0.7-1C1714.5,285.7,1714,285.7,1713.6,285.8z M1651.7,224.9
			c5.4,1.6,6.5-3.1,7.5-7.7c3.4-16.1,6.8-32.2,10.1-48.3c0.2-1.1-0.1-2.4-0.2-4c-1.1,0.6-1.6,1.1-2.2,1.3c-1.7,0.4-3.4,0.6-5.2,0.8
			c1.1-1.5,2.1-3.4,3.4-4.6c5.6-5.2,8.9-11.9,8.4-20.6c-0.6-9.4-5-15.9-12.1-19.4c-16.1-8.2-31.6-3.3-42.2,13.7
			c-3.2,5.2-6.8,10.8-8.5,16.9c-9.4,33.3-18.3,66.9-27.3,100.4c11.1-7.3,16.4-19.2,20.6-31.9c4.1-12.2,7.2-24.9,10.6-37.3
			c0.6,0.2,1.2,0.4,1.8,0.6c-2.9,14.4-5.8,28.7-9,44.7c14.3-0.9,28.3-1.8,42.1-2.8c0.8-0.1,1.6-1.3,2.3-1.9L1651.7,224.9z
			 M1768.3,268.1l0.1,0.2c3.9-10.3,8-20.5,12.1-31.1c-6-0.6-11.6-1.1-17.2-1.7c0-0.8-0.1-1.5-0.1-2.3c4.3-1.3,8.7-2.1,12.9-3.8
			c8.6-3.5,10.4-12.2,4.6-20.6c-1.8-2.6-3.7-5.1-5.6-7.6c0.3-0.5,0.6-0.9,0.9-1.4c3.6,2.8,7.3,5.7,11.2,8.8c1.6-9.3-1-15.7-6.3-20.3
			c-9-7.9-19.4-11.3-30.1-7.7c-8.5,2.9-16.5,7.4-16.9,21.7c-0.4,17.7-2.1,35.3-3.5,52.9c-0.4,4.5-1.5,9-3.1,13.1
			c-3.3,8.7-8,16.7-10.5,25.7c-5.2,18-1.2,26.5,13.7,32.4c2.3,0.9,4.9,1.6,7.3,1.7c5.8,0.2,11-1.9,13.8-8.4
			c7.4-17.4,14.4-35,21.6-52.5c0.3-1.1,0.6-2.3,0.9-3.4c-0.4-0.4-0.9-0.8-1.3-1.2c-0.3,0.9-0.7,1.9-1,2.8
			C1770.5,266.3,1769.4,267.2,1768.3,268.1z M1582.1,609c5-2.7,9.8-5.3,14.8-8c0.4,1.1,0.8,2.2,1.1,3.3c-7.5,3.9-14.9,10.2-22.6,11
			c-7.9,0.8-16.2-3.8-24.4-6.1c-2.6,20.3,0.5,25.5,16.1,27.2c8.5,0.9,16.5-0.9,24.3-5.5c2.8-1.7,6.3-1.8,9.5-2.6
			c0.2,1.2,0.4,2.4,0.6,3.6c-9,3.1-17.9,6.2-26.9,9.4c-1.8,0.7-4.2,1.4-5.1,3.1c-5.9,11.4-1.8,24.8,8.7,28.8
			c38.9,14.6,78.6,24.9,119.3,27.1c16,0.9,31.9,0.7,47.6-4.9c10.1-3.7,15.4-10.9,16.6-24c1.9-21.5,4.4-42.9,6.7-64.4
			c0.6-5.5,1.3-10.9,2-16.5c-33.4,13.3-66.3,9.5-99,6.1c-32.7-3.5-65.3-7.4-95.8-26.8c-0.7,7.7-1.5,14.5-1.8,21.3
			c-0.1,1.4,1.7,3.9,2.9,4.3c6.2,1.9,6.5,5.8,3.3,11.5c-0.5,0.8-1,1.6-1.6,2.3C1579.7,609.2,1580.9,609.1,1582.1,609z M1673.2,442.5
			c-4.3,6-7.4,11.7-11.5,15.7c-4.1,3.9-9.3,6.1-14,9.1c-0.4-0.8-0.9-1.6-1.3-2.4c13.8-4.8,18.9-21.2,29.5-31
			c8.1-7.5,14.4-19.2,19.1-30.6c7.8-18.5,10-39,8.8-59.9c-1-18.1-3.5-21.2-17.9-25.4c-3.9-1.2-5.8,0-7.2,4.5
			c-1.4,4.7-3.2,9.2-4.9,13.8c-0.5-0.3-1.1-0.5-1.6-0.8c0.9-5.6,2.6-11.2,2.6-16.8c0-4.6,4.2-15.4-6.7-10.4c-0.3,0.1-0.9-0.1-1-0.4
			c-4.1-8.6-7.6-1.5-10.8,0.9c-2.7,1.9-5.1,4.7-7.2,7.6c-8.7,12.4-17.1,25-25.7,37.5c-3.5,5.1-6.5,11.3-13.3,11.1
			c0.3-2.6,0.6-4.4,0.8-6.4c-5.8,2-10.9,3.7-16,5.5c-0.2-0.7-0.4-1.3-0.6-2c9.5-6,20.5-9.7,26.8-23.9c-10.7-0.3-20.6,8.8-30.7-0.5
			c8.1-1.6,15.2-2.4,22.1-4.5c6.5-2,12.8-5.2,19.1-7.9c-0.2-0.8-0.3-1.6-0.5-2.4c-6.5,0.5-13.3,9-20.5-1.6c3.5-0.4,6.2-0.3,8.7-1.2
			c6.2-2.2,12.6-4.2,18.3-7.5c2.3-1.3,4.2-5.7,4.8-9.1c0.2-1.2-3.6-3.8-5.9-5.3c-4.9-3.2-9.4-6.4-6.8-15.9c4.1,4,5.7,12.5,12.5,8.9
			c-2-6.4-3.9-12.9-6-19.3c0.8-0.7,1.6-1.4,2.4-2.1c2.3,2.8,5.9,5.2,6.8,8.6c1.9,7.3,6.1,10.3,11.3,11.3c19.2,3.9,37.5-1,53.6-14
			c14.7-11.8,17.4-33.8,7.3-49c-0.8,1.5-1.7,3-2.9,5.2c-0.6-7.8-3.9-10-9-8.6c-9.2,2.5-18.4,5.1-27.5,8.1c-6.9,2.3-7.7,5.7-2.8,12
			c3.2,4.1,7.3,7.2,11.8,11.6c-7.4-0.4-11.5-5-14.7-10.9c-6.4-12.2-6.9-12.3-18.8-10c-8.6,1.6-17.5,3.7-25.9,2.1
			c-9.4-1.7-16.7,0.4-23.7,7.8c-12.6,13.5-25.3,26.7-37.9,40.3c-8.6,9.3-12.7,21.7-10.5,35.2c2.5,16.2,6.1,32.4,10.7,47.9
			c7,23.4,15.5,46,23.1,69.1c4.7,14.1,8.6,28.5,13.3,42.6c2.5,7.7,2.8,14.7,1.2,23.2c-3.8,20.2-6.2,40.8-8.8,61.3
			c-0.3,2.4,1.5,7.1,3,7.6c15.2,5,30.5,9.4,46.3,14.2c0.9-4.3,1.5-7.2,2.1-10.1c2.5-11.5,4.7-23.1,7.9-34.3c2.6-9,5.8-8.9,10.6-1.5
			c-1.3,2.1-3.3,3.9-3.8,6.2c-2.4,11.2-4.6,22.6-6.6,33.9c-1,5.9,2,8.2,6.1,8.6c13.1,1.2,26,2.1,39.1,3.1c3.6,0.3,5.9-1.4,6.6-6.3
			c0.6-4.5,1.9-8.9,2.9-13.3c0.8,4.2,0.4,8-0.3,11.7c-1,5.3,0.5,8,5,7.9c4.3-0.1,8.5-0.4,12.9-0.7c9.1-0.6,10.8-2.5,11.9-13.7
			c1.7-16.2,3.1-32.5,5.2-48.6c0.6-4.4,3-8.4,4.7-12.5c0.9,0.3,1.8,0.6,2.6,1c0,3.1,0.3,6.2,0,9.2c-2,18.1-4.4,36.1-6.4,54.2
			c-0.3,2.8,0.7,5.9,1.1,8.8c0.7,0,1.5,0.1,2.2,0.1c0.5-2.1,1.1-4.1,1.6-6.2c3.9-17,8.3-34,11.7-51.2c4.4-21.7,12.3-39.5,28.3-52.2
			c7-5.5,13.6-16.2,15.6-26c6.1-29.5,10-59.7,14.4-89.7c0.6-4.2-0.8-8.9-1.2-13.4c-0.9-0.1-1.8-0.1-2.7-0.2
			c8.8-12.4,12.4-26.5,10.6-42.5c-0.3-2.3-1-4.5-1.6-6.8c-1.8,0.8-4.1,1-5.3,2.5c-6.9,8.7-10.8,19.3-14.1,30.8
			c3.8,1.2,7.1,2.2,10.2,3.2c0,0.8-0.1,1.6-0.1,2.3c-2.5,0.7-5.1,1.1-7.5,2.2c-3.8,1.8-8.7,2.8-11.2,6.3c-9.5,12.8-37.2,7.5-44.9-4
			c-0.8-1.3-1.4-2.9-2.2-4.1c-1.4-2-3-3.9-4.6-5.8c-1.4,3.1-3.9,6.3-3.9,9.4c0.1,4.5,1.8,9.1,3.3,13.3c4.8,12.5,9.9,24.9,14.8,37.4
			c1,2.5,1.6,5.3,2.4,7.9c-0.6,0.4-1.3,0.7-1.9,1.1c-6.4-14.5-12.5-29.2-19.3-43.4c-4.7-9.7-9.9-19.1-15.9-27.7
			c-3.7-5.4-8.1-3.4-9.1,3.7c-0.9,6.2-1.2,12.7-0.9,19c0.5,12.8,1.6,25.6,2.5,38.3c-0.4,0-0.8,0.1-1.1,0.1
			c-2.2-9.8-4.5-19.5-7.2-31.7c-3.7,22.6-6.4,43.8-17.7,61.1c14.2-4.1,28.1-7.5,40-18.3c-2.6,0-5.3,0-7.8,0c-2.7,0-5.6,0-9.5,0
			c24.1-9.5,27-10,30.8-4.9c-1.1,0.8-2.1,1.7-2.5,1.9c6.8,13.8,13.5,27.3,20.2,40.8c-0.7,0.5-1.3,1-2,1.5
			c-5.3-9.5-10.6-19-15.8-28.6c-3-5.7-6.4-6.2-11.4-3.4c-9.8,5.4-19.9,10.2-30.1,14.6c-9.2,3.9-18.6,7-23.4,19.1
			c-0.4,1.1-1.8,1.5-2.6,2.3C1676.2,446.5,1675.2,445.2,1673.2,442.5z M1688.4,220.1c13-1.9,25.7-12.8,38.1,3.7
			c0.7-8.9,1.3-15.6,1.8-22.7c-12.6,1.1-23.7,0.1-33.8-7.3c2.6,0,5.1,1.1,7.6,1.9c7.7,2.3,15.8,3.7,21.5-4.4
			c5.8-8.4,8.2-19,6.9-30.3c-0.3-2.3-1.2-5.1-2.6-6.4c-8.5-7.9-18.4-13.4-28.8-10.1c-7.2,2.3-14.9,8.2-19.4,15.3
			c-5.1,7.9-7.2,18.9-9.8,28.8c-1.9,7.3-3.4,15-3.7,22.6c-0.3,8.1,3.6,11.3,11.3,11.6c6,0.3,6.7-4.8,7.3-10.4
			c0.5-5.1,1.6-10,2.4-15.1c0.4,0.1,0.9,0.3,1.3,0.4C1688.4,204.8,1688.4,212,1688.4,220.1z M1502.9,596.1c3.2,4.7,6.9,8.4,8.7,13.1
			c2.4,6.5,6,5.9,10.4,5.2c13.3-2.3,22.5-13,32-22.9c0.9-1,1.4-3.5,1.1-5.1c-1-5.9-3.9-8.3-8.9-6.7c-13,4.4-26,8.7-39,13.2
			C1505.8,593.4,1504.7,594.8,1502.9,596.1z M1570.6,598.5c0.1-19.3-7.9-32.6-19.8-32.9c-8.3-0.2-16.8,2.6-25,5.2
			c-2.4,0.8-4.1,5.5-6,8.4c2.8,0.6,5.9,2.1,8.6,1.5c6.2-1.3,12.3-3.7,18.4-5.4c5.8-1.6,9.7,1.4,11.4,8.3c1.1,4.5,1.4,9.4,2.9,13.6
			c1.1,2.9,3.5,5.1,5.5,7.5C1568.3,602.3,1570,599.5,1570.6,598.5z M1493.8,606.8c0.1-12,4.8-18.5,14.8-19c2.2-0.1,4.7-2.2,6.4-4.2
			c1-1.2,1.4-4.1,1-5.8c-0.3-1.2-2.5-2.8-3.6-2.6c-9.2,1.9-18.2,4.7-24,14.9C1484.3,597.4,1486.1,603.2,1493.8,606.8z M1472.2,590.1
			c3.7,3.8,7,7.8,11.3,3.2c0.8-0.9-0.4-6.4-1.9-8.1C1477.3,580.2,1475.1,585.4,1472.2,590.1z M1585.6,550.4
			c-0.6-0.6-1.3-1.2-1.9-1.7c-1.8,2.6-4.3,4.9-5.4,8c-0.5,1.5,1.5,4.3,2.3,6.5c1.2-1.4,3-2.5,3.6-4.2
			C1585.1,556.4,1585.2,553.3,1585.6,550.4z M1758,589.5c7.1-0.4,12.4-3.6,13.3-8.4c0.6-2.8-0.4-6.1-0.7-9.2c-0.6,0-1.2,0-1.9,0
			C1769.7,581.2,1766.1,586.5,1758,589.5z M1577.2,611.1c0-0.4-0.1-0.8-0.1-1.2c-1,0.2-1.9,0.4-2.9,0.5c0,0.3,0.1,0.6,0.1,1
			C1575.3,611.3,1576.3,611.2,1577.2,611.1z"/>
		<path class="st2" d="M210.6,617.9c-5.9,2-11.6,4.1-17,5.9c2.9,13.8,5.9,27.5,8.9,41.3c0.3,1.3,1.6,3,2.5,3.1
			c9.5,1.5,19.1,2.6,29.4,4c-3.7-13.8-7.2-26.2-10.6-38.6c0.6-0.3,1.1-0.5,1.7-0.8c2.7,8,5.5,16.1,8.4,24.1
			c4.8,13.2,9.3,16.8,21.1,15.6c17.1-1.7,34.1-3.9,51.1-5.9c5.8-0.7,8.7-3.6,7-11.5c-1.4-6.4-2.3-13-3-19.6
			c-0.9-9.1,1.2-12.1,7.4-13.5c0.5,13.4,1.1,27,1.7,42.2c13.3-3.5,24.6-6.4,36.1-9.4c-1.1-15.9-2-30.8-3.2-45.7
			c-2.6-30.7,2.9-58.3,18.7-82.6c9.3-14.3,18.4-28.7,27.7-42.9c1.5-2.3,3.6-3.9,5.5-5.8c0.5,0.6,1.1,1.1,1.6,1.7
			c-2.3,3.6-4.5,7.4-7,10.9c-17.5,25.1-32.6,51.9-37.6,85.2c-1.9,12.7-2.1,25.8-2.3,38.8c-0.1,7.6,2.8,12.1,10.3,11.1
			c8.5-1.1,15.2,6.3,18,18.8c1.6,7.1,2.2,14.6,3.5,23.8c1.9-2.8,3.3-4.7,4.6-6.6c4.2-6.2,7.9-12.9,12.4-18.6c6.4-8,14-10.2,23-6.5
			c10.2,4.1,11.9,2.1,10.8-11.3c-1.7-21.4,1.9-28.5,18.7-34.6c7.9-2.9,16-4.8,23.9-7.2c0.2,0.8,0.5,1.7,0.7,2.5
			c-1.5,0.9-3,1.9-4.8,2.5c-7.7,3-15.8,5-23.2,8.8c-11.8,6.2-16.3,31.8-7.8,43.7c1.2,1.7,4.2,1.4,6.4,2c0.4-2.4,1.7-5.1,1.2-7
			c-6-21.2-4.5-25.3,13.2-31.9c4.7-1.7,9.4-2.9,14.1-4.3c0.3,0.8,0.6,1.7,0.9,2.5c-1.5,1.2-2.8,2.9-4.5,3.6
			c-5.8,2.2-11.8,3.7-17.5,6.3c-2.3,1.1-3.9,4.4-5.9,6.6c0.5,0.7,1,1.4,1.5,2.2c3.3-2,6.7-4.3,10.1-6c3.7-1.8,7.6-3.4,11.5-4.5
			c1.2-0.3,2.8,1.3,4.3,2c-1.3,1-2.5,2.2-3.8,2.9c-5.7,2.6-11.6,4.3-16.8,7.7c-2.1,1.4-2.6,6.6-3.8,10c2.7-0.9,5.7-1.2,8-2.7
			s3.8-4.7,6.2-6.4c2.1-1.6,4.9-2.1,7.3-3.1c0.5,1.3,1.1,2.6,1.6,3.9c-19.8,17.8-39.8,35.7-59.6,53.5c-0.7-0.8-1.5-1.6-2.2-2.4
			c1.6-3.7,3.3-7.2,4.7-11c0.8-2.3,0.8-4.9,1.2-7.4c-2.3,0.2-5.1-0.4-6.8,0.8c-5.8,4.1-7.7,12.3-5.7,20.2c1.2,4.7,1.8,9.6,3,15.8
			c22.3-18.3,44.3-36.3,66.8-54.8c0.1,2.7,0.3,5.2,0.4,7.9c7.6-1,15.1-1.9,22.6-2.9c0.1,0.5,0.1,1,0.2,1.5
			c-9.4,3.3-18.9,6.3-28.2,9.9c-5.4,2.1-10.5,5-15.6,7.9c-10.3,5.9-19.2,13.2-24.6,26.8c-5.3,13.4-12.4,25.9-19.5,37.9
			c-4.2,6.9-9.7,13.1-15.7,17.5c-13.7,9.8-16.1,15.1-11.3,33.7c15.1,58.3,35.7,113.6,59.3,167.4c4.2,9.4,7.9,19.1,11.8,28.7
			c-0.6,0.6-1.1,1.1-1.7,1.7c-2-2.8-4.5-5.3-5.9-8.5c-13.1-29.1-27.2-57.5-38.7-87.6c-13.3-34.8-24.1-71-36.2-106.5
			c-0.7-2-3.7-4.7-5.1-4.2c-9.9,3.4-19.6,7.6-31.3,12.2c9.2,31.3,18.2,62.1,27.2,92.9c-0.3,0.2-0.5,0.4-0.8,0.7
			c-1-2.4-2.2-4.6-3.1-7.1c-8.8-25.5-17.6-50.9-26-76.6c-2-6.3-4.5-8.9-9.9-7.5c-30,7.6-60.4,8.5-90.8,8.6c-14.2,0-14.4,0.9-13,17.9
			c3,36.1,5.1,72.4,8.5,108.5c3.1,32.5,7.7,64.7,11.4,97.1c0.7,5.9,2.4,12.2-2.3,20c-1.4-7.9-2.5-13.6-3.5-19.3
			c-9.8-55.7-15.2-112.1-18-169c-0.7-14.6-3.2-29.1-5.6-43.5c-1.4-8.9-5.5-15.1-13.7-17c-15.5-3.6-24-17-26-35
			c-3.6-32.7-6-65.6-8.6-98.4c-0.7-8.5,0.7-15,9.7-15.8c6.6-0.6,9.5-11.1,5.3-19.4c-6.7-13.1-12.9-27.1-21.6-38.1
			c-11.9-15.2-19.4-32.3-22.4-52.8c-4.9-33.3-9.9-66.5-14.9-99.8c0.5-0.2,1.1-0.5,1.6-0.7c1,3,2.3,5.8,2.9,8.9
			c6.8,34.2,13.6,68.4,20.1,102.7c2.7,14.5,9,26.2,17.2,38.9c-1.4-20.5-2.7-39.3-3.9-58.1c0.5-0.1,1.1-0.2,1.6-0.3
			c1.8,13.5,3.3,27.1,5.6,40.5c2,12.2,4.1,24.5,7.4,36.2c5.1,17.6,11.6,21.5,26.5,18.4c1.4-0.3,2.8,0,4.3,0
			C210.3,616.4,210.4,617.1,210.6,617.9z M383.4,680.3c0.4-0.6,0.7-1.2,1.1-1.8c-0.7,0.2-1.4,0.4-2.1,0.5c-0.4,0.5-0.8,1-1.2,1.5
			c-3.5,2.6-3.5-0.2-3.6-3.4c-0.2-7.5-0.5-15.1-0.8-23.6c-31.7,19.7-64.8,22.4-97.7,25c-33.1,2.7-66.4,6.1-99.4-8.3
			c0.7,8.2,1.3,15.6,2,22.9c2.1,21.4,4.2,42.9,6.7,64.3c1.2,10.7,6.8,17.4,15.5,19.3c9.1,1.9,18.2,4.2,27.3,4.6
			c34.6,1.7,68.9-3.2,102.8-10.7c14.4-3.1,28.5-8.1,42.4-13.4c7.3-2.8,9.8-9.3,8.8-17.3c-1.1-8.8-5.2-13.5-12.6-14.8
			c-1.7-0.3-3.5-0.5-5.3-0.8c2.5-2,5.3-2.8,8-2.8c7-0.2,14,0.7,20.9-0.2c11-1.3,17.3-15.1,12.3-27.1c-1-2.5-5.6-3.5-8.6-3.8
			c-3.9-0.3-8,1.3-11.9,1.2c-4.7-0.2-7.1-3.3-5.4-9.5C382.7,681.6,383.1,680.9,383.4,680.3z M423.1,636.5c-5.1,3.5-9.9,5.1-12.6,8.9
			c-6.8,9.9-12.8,20.6-18.5,31.4c-1.2,2.3-0.4,6.3-0.5,9.5c2.5-1.5,5.9-2.3,7.5-4.7c4.5-6.9,8-14.7,12.3-21.8
			c5.2-8.7,13.7-12.8,21.4-3.4c1.1,1.4,3.9,0.8,5.9,1.2c0-2.8,1-6.9-0.1-8C433.7,644.7,428.5,640.9,423.1,636.5z M435.8,686.7
			c-14.2,3.6-16.2,6.5-17.8,21c-0.5,4.8-1.6,10.5-4.2,13.7c-4.9,6.2-11,11-16.7,16.4c2,3.5,4.3,3.6,9.7-1.7
			C420.2,723.5,426.3,704.7,435.8,686.7z M364.9,630.1c-0.8,0.8-1.5,1.7-2.3,2.5c0.4,4,0.4,8.2,1.1,12.1c1.2,6.2,4.7,7.4,8,2.6
			c1.5-2.1,2.6-7,1.7-8.7C371.3,635.1,367.8,632.8,364.9,630.1z"/>
		<path class="st3" d="M227.6,471.5c-0.4-9.7-0.9-19.4-1.1-29.1c-0.1-6.3-2.4-9-7.5-8.8c-9.8,0.3-18.5-3.5-26.5-12.3
			c-1.8,18.9-12.2,26-25.1,28.6c-7.8,1.6-14.3-1.8-18.6-10.2c-3.7-7.2-7.1-14.8-10.9-22c-4.5-8.2-9.2-16.2-17.5-18.3
			c-0.6,0.7-1.3,1.5-1.9,2.2c1.3,2.1,2.2,4.9,3.9,6.1c5.3,3.6,7.1,8.7,6.3,15.1c-3.6-3.5-7.5-6.7-10.7-10.6
			c-1.7-2.1-3.3-5.4-3.4-8.3c-0.1-6.8,0.7-13.7,1.3-22.5c1.3,2.4,1.8,3.3,2.3,4.3c-0.7-0.8-1.5-1.6-2.2-2.4c0.9-2.5,1.8-4.9,2.7-7.4
			c1.5,1.7,3,3.3,4.5,5c-0.5-4-1-8-1.6-12.9c-1.4,2.8-2.5,5-3.7,7.3c-8.8-14.5-8.2-33,2-43.7c-0.3,7.9-0.5,14.9-0.8,22.8
			c1.7-1,2.9-1.7,4.3-2.4c5.3,30.3,17.7,56.2,32.2,80.8c5.7,9.6,12.7,11.4,22,6.2c8.9-4.9,13.1-12.6,9.9-23.9
			c-6.4-23-14.1-45.4-21.1-68.1c-3.4-11.4-6.8-22.8-9.7-34.4c-0.8-3.3-0.1-7.2-0.1-10.9c0.5-0.1,1.1-0.1,1.6-0.2
			c0.5,1.2,1.2,2.3,1.5,3.5c9.1,30.3,17.9,60.8,27.5,90.8c2.3,7.3,6.2,14.6,10.9,19.6c4.1,4.2,10.4,4.9,15.9,7.2
			c5.1-2.8,10-5.6,15.1-8.4c6.5-5.6,5.3-13,3.6-20.9c-6.1-30.4-12.1-60.8-17.8-91.2c-0.7-3.9-0.7-8.1,0.5-12.6
			c2.7,14.3,5.3,28.7,8.4,42.9c3.6,16.6,7,33.3,11.8,49.4c6.6,21.9,16.3,26.4,37.7,18c7.7-3,9.2-10,5.2-18.5
			c-3.5-7.4-8.3-14.1-10.7-22c-2.3-7.5-2.8-16-3.2-24.1c-0.1-2.8,1.7-7.2,3.6-8.3c6.5-3.9,5.1-9.7,3.8-16.1
			c-2.6-13.7-5.2-27.5-7.7-41.3c-0.3-1.8,0-3.7,0-5.6c0.6-0.1,1.1-0.3,1.7-0.4c2.6,13.4,5.5,26.8,7.8,40.3
			c2.9,17.2,2.8,17.9,17,14.5c10.9-2.6,21.6-6.5,32.2-10.7c1.7-0.7,3.4-6.2,3.1-9.1c-1.2-9.2-3.4-18.2-4.1-28c0.7,1.3,1.7,2.5,2.1,4
			c1.8,6.5,3.3,13.2,5.3,19.7c1.1,3.9,0,10.7,5.9,9.7c6.7-1.1,10.5-8.2,8.4-15.8c-6.2-22.5-16.8-41.5-33.8-53
			c-7-4.7-16.3-5.6-24.6-5.9c-8.2-0.3-15.1,5.1-19.2,14.5c-0.6,1.4-1.7,2.4-3.3,4.5c-2.5-9.2,0.8-14.6,5.9-17.7
			c16.3-10.2,33-10.8,49.2,0.2c15.3,10.4,23.3,28,29.3,47.3c0.3,1,0.6,2.1,0.9,3.1c2.9,10.5,2.9,10.5,11.8,7.1
			c14.6-5.6,28.7,1.8,33.5,19.4c9.2,33,18,66.1,26.1,99.5c3.9,16.2,6,33.3,1.9,50.1c-1.5,6.4-5.2,12.1-7.8,18.1
			c-0.7-0.5-1.5-1-2.2-1.5c0.8-2.1,1.3-4.4,2.3-6.3c8.1-14.7,8.8-30.5,4.4-46.9c-8.8-32.3-17.4-64.6-26.7-96.7
			c-8.3-28.6-15.7-31.9-38.9-21.5c-12.2,5.4-25.1,8-37.5,12.8c-13.5,5.3-26.6,11.6-39.7,18.1c-1.4,0.7-2.5,6.2-1.8,8.8
			c1.2,5.2,3.7,9.9,6.6,17c-3.2-3.6-5-5.5-6.7-7.4c-0.5-0.1-1.1-0.3-1.6-0.4c0.1,0.7,0.2,1.5,0.3,2.2c4.2,17.6,14.7,26.5,28.3,31.2
			c14.7,5,29.4,5.4,43.9-0.3c10.4-4.1,18.5-11.3,20.4-25.8c0.3-2,1.2-3.8,3.3-5.6c0.5,3.2,1,6.5,1.6,10.8c2.5-4.1,4.6-7.5,6.6-10.9
			c0.6,0.4,1.2,0.8,1.7,1.1c-2,5.3-3.3,11.4-6.3,15.8c-3.3,5-7.8,9-12.3,12.7c-4.2,3.5-8.9,5.9-13.4,8.8c0.4,1.1,0.8,2.2,1.2,3.3
			c11.4-5.9,23-11.9,34.4-17.8c0.3,0.7,0.5,1.4,0.8,2.1c-10.5,11.7-23,18.7-39.6,20.6c2.6,7.9,5,14.7,7.2,21.5l-0.1-0.1
			c2.9,4.5,5.8,8.9,9.3,14.3c-2.7,0-4.5,0-6.3,0c-0.3,0.8-0.7,1.6-1,2.4c7.9,6.1,15.7,12.3,24.5,19.1c-9.4,1.5-15.8-4.5-22.1-9.7
			c-6.3-5.3-12.3-10.9-12.8-22c-0.4-9.5-2.3-18.9-3.4-27.8c-16.9-2.2-34.3-4.4-52.4-6.7c-0.2,1.9-4.6,6.1,1.6,10.6
			c-30,27.9-50.3,62.1-41.4,112.8c-0.9,0.1-1.8,0.1-2.7,0.2c-1.4-7.7-3.4-15.2-4.1-23c-1.9-24.7,5.5-45.6,18.8-63.6
			c3.2-4.4,6.5-8.8,11.1-15.1c-5,0.3-7.7,0.5-10.5,0.6c-2.7,0.2-5.8,1.4-8,0.3c-10.7-5.1-16,4.6-22.2,11.4
			c5.2,15.5,0.8,31.3,1.9,46.7C229.1,471.5,228.4,471.5,227.6,471.5z M119.9,392.2c0.7,0.2,1.4,0.5,2.2,0.7
			c-0.1-0.7-0.3-1.4-0.4-2.2c-0.7-1-1.3-2.1-2-3.1c-0.3,0.2-0.7,0.5-1,0.7C119.1,389.7,119.5,390.9,119.9,392.2z"/>
		<path class="st4" d="M593.9,553.2c6.7,0,12.5-0.4,18.2,0.2c1.9,0.2,4.6,3,5.1,5.2c2.3,9.1,4.1,18.5,6,27.8
			c0.6,0.1,1.2,0.2,1.8,0.2c1.8-8.8,4.1-17.6,5.5-26.6c0.8-5.4,2.5-7.3,7.1-7.1c10.3,0.4,20.8,0.1,31.7,0.1
			c1.4,11.6,2.8,23,4.3,34.4c0.5,0.2,1.1,0.3,1.6,0.5c2.1-11.5,4.3-22.9,6.4-34.6c6.6,0,12.9,0,19.3,0c1.8,11.1,3.5,22,5.3,32.9
			c0.6,0,1.1,0,1.7-0.1c1.2-10.8,2.5-21.5,3.7-32.7c6,0,11.7,0,18.2,0c-4.6,19.9-9,39.6-13.5,59.3c-7.2,0-13.9,0-21.2,0
			c-1.7-10.5-3.4-20.9-5.3-31.4c-0.4-0.1-0.9-0.2-1.3-0.3c-1.9,10.3-3.7,20.6-5.8,31.4c-6.9,0-13.8,0-21.2,0
			c-3.5-16.3-7.2-32.8-10.7-49.3c-0.5-0.1-0.9-0.3-1.4-0.4c-0.8,2.3-1.8,4.5-2.4,6.9c-4.7,16.2-9,32.5-13.9,48.7
			c-6.6,22-17,28.5-35.7,22.5c0-5.6,0-11.3,0-17.3c2.5,0.4,4.9,1.1,7.3,1.1c6.9,0,10.6-6.7,8-14.7c-5.2-16-10.6-31.8-15.9-47.7
			C595.9,559.7,595.1,556.9,593.9,553.2z"/>
		<path class="st4" d="M1247.1,445.7c0.2-3.8,0.5-7.6,0.8-11.9c2.5-0.4,5-0.7,7.4-1c0.2-0.7,0.7-1.5,0.6-2.2
			c-1.6-17.7,9.5-30,28.9-27.1c1.5,0.2,3.5,3.6,3.8,5.8c0.6,4,0.2,8.2,0.2,12.4c-11.1-0.6-12.6,0.7-11.8,11.1c5.8,0,11.5,0,17.6,0
			c-1.8-20.1,13.1-11.3,20.1-19.6c0,7.6,0,13.2,0,19.5c3.6,0.3,6.8,0.5,10.2,0.7c0,5.3,0,10.4,0,16c-3.1,0.2-6.2,0.4-9.1,0.7
			c-2.6,21.8-1.3,25.8,9.1,26.7c0,5,0,10.2,0,17.8c-5.4,0-10.9,0.7-16.3-0.2c-7.5-1.2-12.5-7.6-13.2-17.4
			c-0.6-8.7-0.1-17.6-0.1-26.8c-6.7,0-12.5,0-18.6,0c0,14.1,0,27.8,0,42.3c-6.9,0-13.3,0-20.4,0c0-13.6,0-27.6,0-40
			c-3.8-2.8-6.6-4.7-9.3-6.7C1247.1,445.9,1247.1,445.7,1247.1,445.7z"/>
		<path class="st5" d="M921.3,673.2c3.9,0,6.6,0,9.7,0c0,5.4,0,10.5,0,16.4c-2.7,0.2-5.8,0.5-9.5,0.8c0,5.1,0,10,0,14.9
			c0,10.5,0.4,11,9.6,11.7c0,5.1,0,10.2,0,17.8c-5.4,0-10.8,0.7-16.2-0.2c-7.8-1.2-12.6-8.2-13.4-18.2c-0.3-4.4-0.2-8.9-0.3-13.3
			c0-4.1,0-8.3,0-12.8c-6.2,0-11.9,0-18.4,0c0,14.2,0,28.2,0,42.6c-7.1,0-13.5,0-20.4,0c0-14.2,0-28,0-42.3c-2.7-0.3-5.1-0.7-8-1
			c0-5,0-10.1,0-15.8c2.2-0.3,4.6-0.6,7.1-0.9c0.2-0.7,0.7-1.5,0.6-2.2c-1.5-19.8,11.7-30.2,29.5-27c1.3,0.2,2.9,3.1,3.1,5
			c0.5,4.3,0.1,8.8,0.1,13.2c-10.8-0.7-12.1,0.5-12.2,10.9c5.8,0,11.5,0,17.9,0c0.2-3.4,0.3-6.8,0.5-11.1c6.2-2.2,12.6-4.4,19.7-6.9
			C921.3,661.1,921.3,666.7,921.3,673.2z"/>
		<path class="st6" d="M958.7,492.9c-7,0-13.2,0-20.4,0c0-9.1,0-18.1,0-27.2c0-2.8,0.6-5.9-0.2-8.2c-1-2.9-3.2-5.1-4.9-7.6
			c-1.9,2.5-5.4,4.9-5.6,7.6c-0.7,8.8-0.3,17.7-0.4,26.6c0,2.7,0,5.4,0,8.6c-7,0-13.5,0-20.2,0c0-19.7,0-39.4,0-59.3
			c6.6,0,12.9,0,19.6,0c0.3,2.2,0.6,4.5,0.8,5.6c5.1-2.5,10.1-6,15.5-7.3c6.3-1.5,11.2,2.9,14.4,9.2c3.7-2.9,7.1-6.3,10.8-8.1
			c10.8-5,20.7,2.1,21.5,16.3c0.8,14.3,0.2,28.8,0.2,43.6c-6.5,0-13,0-20.1,0c0-10.9,0.1-21.7,0-32.4c0-4.7,0.3-10.4-5.3-10.3
			c-5.1,0.1-5.7,5.4-5.8,10.3C958.6,470.9,958.7,481.5,958.7,492.9z"/>
		<path class="st7" d="M1214,553.6c1.4,11.8,2.8,23,4.2,34.1c0.5,0.1,1.1,0.1,1.6,0.2c2.1-11.3,4.2-22.5,6.4-34.2
			c6.3,0,12.5,0,19.3,0c1.8,11.5,3.7,23.4,5.7,35.2c0.4,0,0.7,0,1.1,0c1.3-11.8,2.6-23.5,3.9-35.3c6.3,0,12.1,0,18.2,0
			c-4.3,18.9-8.4,37.4-12.8,55.7c-0.4,1.7-2.6,3.7-4.2,3.8c-5.8,0.4-11.6,0.2-17.7,0.2c-1.8-10.4-3.4-20.2-5.2-30
			c-0.6,0-1.2,0-1.8,0c-1.8,9.8-3.6,19.6-5.5,29.6c-6.9,0-13.6,0-21.2,0c-4.2-19.4-8.4-39.1-12.8-59.3
			C1200.5,553.6,1207,553.6,1214,553.6z"/>
		<path class="st7" d="M856.9,466.4c1.2-10.8,2.4-21.5,3.7-32.7c6.1,0,11.7,0,18.2,0c-4.6,19.9-9,39.5-13.5,59.3
			c-7.2,0-13.9,0-21.3,0c-1.7-10.4-3.4-20.8-5.2-31.2c-0.4-0.1-0.9-0.2-1.3-0.3c-1.9,10.2-3.7,20.5-5.8,31.3c-6.8,0-13.7,0-21.3,0
			c-4.2-19.3-8.4-39-12.8-59.1c7,0,13.4,0,20.4,0c1.4,11.5,2.8,22.8,4.2,34.2c0.5,0.1,1.1,0.2,1.6,0.3c2.1-11.3,4.2-22.6,6.4-34.3
			c6.4,0,12.8,0,19.4,0c1.7,10.9,3.4,21.7,5.2,32.5C855.7,466.2,856.3,466.3,856.9,466.4z"/>
		<path class="st8" d="M1132.5,673.6c0-3.4,0-8.3,0-13.1c0-4.9,0-9.9,0-15.2c7.1,0,13.5,0,20.3,0c0,29.2,0,58.2,0,88.2
			c-7.4-1.9-15.1,3.3-22.2-3.9c-14.8,13.7-32.4,1.3-32.8-22.7c-0.3-17.8,5.3-31,16.5-34.1C1119.8,671.3,1125.9,673.2,1132.5,673.6z
			 M1133.2,701.8c-0.5-4.9-0.8-11.8-7.2-11.6c-6.5,0.2-7.4,7-7.5,13.3c-0.1,6,0.4,12.1,6.7,13
			C1129.9,717.2,1133.1,711.4,1133.2,701.8z"/>
		<path class="st4" d="M1247.1,445.7l-0.1,0.2c-0.8,7.9-1.1,16-2.6,23.8c-3.3,17.7-12.3,25.8-26.7,25.2c-12.6-0.5-21.4-9.9-23-27.3
			c-1-11.1-0.8-22.9,0.8-33.8c2.7-17.9,12.6-26.2,27.1-25.6c12.1,0.5,19.6,9.8,22.5,27.2C1245.9,438.8,1246.5,442.3,1247.1,445.7z
			 M1226.3,451.7c-0.6-6.7-0.8-12.9-1.9-18.7c-0.4-2.4-2.9-4.2-4.5-6.3c-1.4,1.9-4.1,3.7-4.2,5.7c-0.4,12.9-0.5,25.8-0.2,38.6
			c0,1.9,2.7,3.7,4.2,5.5c1.4-1.9,3.7-3.5,4.2-5.7C1225.2,464.3,1225.6,457.7,1226.3,451.7z"/>
		<path class="st6" d="M1072.6,675.7c0-10.3,0-20.2,0-30.4c6.8,0,13.2,0,20.2,0c0,26.9,0,53.4,0,80c0,2.4,0,4.9,0,8.3
			c-7.4-1.7-14.8,2.6-22.5-4c-0.2,0.2-1.8,2.2-3.6,2.5c-5.4,0.8-11.2,2.7-16.1,0.9c-10.8-4-15.4-20.5-12.1-38.9
			c2.6-14.2,11.5-23.4,22.5-22.3C1064.7,672.1,1068.2,674.2,1072.6,675.7z M1072.9,703.7c-0.3-3.1,0.1-5.9-0.9-7.3
			c-1.9-2.6-6.1-6.6-6.6-6.1c-2.7,2.8-5.8,6.6-6.7,10.7c-1.3,5.5-1.1,12.3,4.3,14.7c2,0.9,6-1.3,7.8-3.6
			C1072.4,710.2,1072.4,706.1,1072.9,703.7z"/>
		<path class="st6" d="M507.7,608.5c0,11.3,0,21.5,0,32.4c-6.6,0-13,0-19.8,0c0-28.7,0-57.7,0-87.2c6.3,0,12.8,0,19.4,0
			c0.2,1.5,0.5,3.3,0.8,5.3c0.7-0.4,1.4-0.6,1.8-1.1c6.1-7,13.1-8.3,20.7-4.7c7.4,3.5,10.4,11.2,11,20.2c0.4,6,0.5,12.2-0.3,18.2
			C539.3,608.1,524.8,623.9,507.7,608.5z M506.7,584.6c1,3,1.7,7.5,3.7,10.1c3,3.9,6.6,2.2,9.1-1.9c3.3-5.5,2.5-18.2-1.3-21.4
			c-4.1-3.3-7.4-1.5-9.5,3.3C507.7,577.3,507.5,580.5,506.7,584.6z"/>
		<path class="st9" d="M1081.1,525.2c6.7,0,13,0,19.6,0c0,11.3,0,22.3,0,34.7c2.4-2.1,3.8-3.5,5.5-4.8c10.1-8.3,23-3,24.4,11.7
			c1.5,14.9,0.3,30.3,0.3,45.9c-5.8,0-11.9,0-19,0c0-10.8,0-21.6,0-32.3c0-4.8,0.1-10.4-5.3-10.4c-5.2,0-5.6,5.4-5.6,10.3
			c-0.1,10.5,0,21.1,0,32.2c-6.7,0-13.1,0-19.9,0C1081.1,583.9,1081.1,554.9,1081.1,525.2z"/>
		<path class="st6" d="M705.5,492.9c-7.3,0-13.5,0-20.1,0c0-29.2,0-57.9,0-87.4c6.3,0,12.7,0,19.8,0c0,10.9,0,22,0,34.5
			c2.5-2.3,4.1-3.8,5.7-5.1c10.2-8.1,21.9-2.2,24.5,12.3c0.4,2.2,0.8,4.4,0.8,6.6c0.1,12.7,0,25.5,0,38.8c-6.5,0-12.7,0-19.8,0
			c0-8.7,0-17.8,0-26.8c0-2.8,0.6-5.9-0.2-8.2c-1-2.9-3.2-5.1-4.9-7.6c-1.9,2.5-5.3,4.9-5.5,7.7c-0.8,7.9-0.3,16.1-0.3,24.1
			C705.4,485.3,705.5,488.8,705.5,492.9z"/>
		<path class="st9" d="M631.5,469.5c5.9,2.5,11,5.6,16.4,6.5c3,0.5,6.6-2.7,9.8-4.2c-2.1-3.1-3.8-6.9-6.5-9.1
			c-3.4-2.9-7.9-4.1-11.3-7c-13.1-10.7-12.4-33.2,1.4-42.6c10.7-7.3,22.2-5.8,33.4-2.4c1.1,0.3,2.4,3,2.5,4.7
			c0.3,5.4,0.1,10.9,0.1,16c-6.1-1.7-11.6-3.9-17.2-4.6c-2.2-0.3-4.8,2.9-7.2,4.5c1.6,2.6,2.8,6.1,5,7.8c4.7,3.7,10.3,5.8,14.8,9.7
			c12.1,10.7,11.1,32.1-1.9,40.8c-11.7,7.8-24.3,6.8-36.7,1.8c-1.2-0.5-2.4-3.6-2.5-5.6C631.3,480.7,631.5,475.4,631.5,469.5z"/>
		<path class="st4" d="M1300.1,641c0-6,0-11.5,0-17.4c2.2,0.5,4.2,1.1,6.1,1.2c8,0.7,12.1-6.2,9.1-15.4
			c-5.6-16.9-11.2-33.9-16.8-50.8c-0.5-1.5-0.8-3.1-1.2-4.6c0.7-0.3,1.1-0.7,1.5-0.7c20.2-1.5,20.2-1.5,25,22.1
			c0.8,3.7,1.5,7.4,2.3,11c0.6,0.1,1.2,0.2,1.8,0.3c2.3-10.9,4.7-21.9,7-33.1c6.4,0,12.7,0,19.6,0c-3.2,11.4-6.4,22.5-9.5,33.6
			c-3,10.7-5.9,21.5-9.2,32.1C1329,640.9,1318.7,647.1,1300.1,641z"/>
		<path class="st10" d="M804.6,673.9c0.3-7-1.5-16.6,1.3-19.3c7.1-7.1,16.7-7.8,25.7-5.8c16.3,3.7,22.8,26.8,11.8,42.3
			c-3.3,4.7-7.9,8.1-11.9,12c-2.8,2.8-5.8,5.4-8,9.8c8.2,0,16.4,0,25.1,0c0,6.8,0,13,0,19.8c-15.5,0-31.1,0-47.4,0
			c-1.1-11.2,0.2-21.8,7.3-30.1c4.7-5.5,10-10.3,14.9-15.6c3.4-3.8,6.7-8.4,3.9-14.4c-2.7-6-7.7-4.8-12.1-3.6
			C811.7,670,808.5,672,804.6,673.9z"/>
		<path class="st5" d="M1446.1,553.5c7.1,0,13.3,0,19.9,0c0,19.8,0,39.3,0,59.8c-7-1.5-14.6,3-22.3-3.7c-1.3,0.8-3.9,2.9-6.9,4.1
			c-10.9,4.6-20.9-2.2-21.8-16.2c-0.9-14.5-0.2-29.2-0.2-44.1c6.5,0,12.8,0,20.1,0c0,8.8,0,17.6,0,26.3c0,2.8-0.6,5.9,0.2,8.2
			c1,3.1,3.1,5.7,4.8,8.5c2-2.7,5.5-5.3,5.8-8.2c0.8-8.5,0.3-17.2,0.3-25.7C1446.1,559.8,1446.1,557.1,1446.1,553.5z"/>
		<path class="st10" d="M768.6,494.9c-16.6,0-27.1-11-27.9-29.2c-1.1-23.7,15.2-39.1,35.3-33.6c14.5,4,22.6,17.2,21,34
			C795.1,485,785.3,494.9,768.6,494.9z M776.3,462.6c-0.1-5.1-0.1-11.6-6.8-12.7c-5-0.8-8.1,4-8.3,12.2c-0.2,8.6,2.5,14.1,7.3,14.4
			C773.3,476.9,776,472.4,776.3,462.6z"/>
		<path class="st10" d="M1164.3,614.9c-17.3,0-27.8-11.3-28.3-30.4c-0.3-14,4.6-24.3,14-29.5c11.7-6.5,27.1-3.9,35.4,5.8
			c7.2,8.5,9.2,22.8,5.1,35.5C1186.4,608.4,1177.3,614.9,1164.3,614.9z M1171.6,583c0.1-8.5-2.4-13.1-7.4-13.1
			c-4.9,0-7.7,4.7-7.7,13c0,8.7,2.9,14.2,7.9,13.6C1171.2,595.8,1171.2,589.2,1171.6,583z"/>
		<path class="st10" d="M1381.8,614.9c-16.2,0-26.4-10.4-27.8-27.7c-2.1-27,15.2-39.1,34.9-35.1c14.7,3,22.7,16.6,21.2,33.7
			C1408.4,604.9,1398.6,614.9,1381.8,614.9z M1389.5,583.3c0.1-8.6-2.3-13.2-7.2-13.4c-5-0.2-7.8,4.4-7.9,12.7
			c-0.1,8.8,2.7,14.3,7.7,13.9C1388.7,595.9,1389.2,589.6,1389.5,583.3z"/>
		<path class="st7" d="M707,732.9c-0.2-2.4-0.4-4.4-0.6-6.5c-0.4-0.4-0.9-0.7-1.3-1.1c-0.8,1.6-1.4,3.5-2.5,4.7
			c-5.3,5.7-11.3,6.6-17.6,3.3c-5.9-3.1-7.9-9.5-8-16.9c-0.1-8.6,2.7-15.5,9.5-18.3c6.4-2.6,13.1-3.7,19.6-5.4
			c-3-7.9-4.8-8-24.5-0.6c0-4.3-0.3-8.4,0.1-12.4c0.2-1.7,1.8-4.4,2.9-4.5c8.8-1,17.7-2.5,26.5-2c7.9,0.5,12.9,7.6,13.4,17.1
			c0.7,14,0.2,28.1,0.2,42.6C719.3,732.9,713.4,732.9,707,732.9z M706.6,706c-0.7-0.9-1.4-1.8-2-2.8c-3.2,3.2-6.5,6.4-9.7,9.6
			c1.9,1.8,3.9,5.4,5.6,5.1C705.9,717,707.1,711.8,706.6,706z"/>
		<path class="st7" d="M1119.5,492.9c-6.3,0-12.1,0-18.2,0c-0.2-2.2-0.5-4.4-0.9-9.1c-1.8,3.2-2.5,5-3.6,6.2
			c-5.3,5.6-11.3,6.5-17.6,3.1c-5.9-3.2-7.8-9.6-7.9-17c0-8.2,2.5-15.1,9-17.8c6.5-2.7,13.5-4,20.2-5.8c-3.2-7.7-3.7-7.7-24.1-0.7
			c-0.1-0.2-0.3-0.4-0.3-0.6c-1-15.4-1-15.6,11.5-18.4c4.4-1,9-1.4,13.5-1c11.6,1,17.9,8.8,18.5,23.6
			C1119.9,467.5,1119.5,479.7,1119.5,492.9z M1098.8,463.3c-3.3,3.1-6.7,6.2-10,9.3c1.8,1.9,3.8,5.6,5.5,5.4
			C1099.7,477.2,1101.1,472,1098.8,463.3z"/>
		<path class="st7" d="M549.2,572.2c-0.3-18-2.8-16,11.8-19.6c4.4-1,9-1.3,13.5-0.8c10.9,1.2,17.1,8.2,17.9,21.6
			c0.8,12.9,0.2,25.9,0.2,39.4c-5.9,0-11.7,0-18,0c-0.2-1.9-0.5-4.2-0.9-6.8c-0.7,0.6-1.3,1-1.7,1.5c-6.3,7.7-12.8,9.6-19.5,5.8
			c-5.7-3.2-8.6-10.3-8-19.4c0.6-9.2,4.7-14.9,13.2-17.5c5.4-1.6,10.8-2.5,17.9-4C565.8,561.7,557.7,569.5,549.2,572.2z M574,586
			c-0.7-0.9-1.4-1.8-2.1-2.8c-3.2,3.2-6.5,6.4-9.6,9.6c1.9,1.8,4.1,5.3,5.7,5C573.3,596.9,574.4,591.8,574,586z"/>
		<path class="st9" d="M1016,692.1c-9.9-10-17.8-3-25.7,0.1c-0.2-0.5-0.6-1-0.6-1.5c0-18-2-14.4,11.1-17.9c4.4-1.1,8.9-1.4,13.4-1.1
			c11.9,0.9,18.4,9.1,18.8,24c0.3,12.2,0.1,24.3,0.1,37c-5.9,0-11.6,0-18,0c-0.4-1.6-0.8-3.8-1.4-6.4c-1.4,1.6-2.4,3-3.6,4.1
			c-5.5,5.3-11.5,6.1-17.7,2.5c-5.8-3.4-7.6-10.1-7.5-17.3c0.1-8.4,3.1-15.3,10-17.9C1001.1,695.4,1007.7,694.3,1016,692.1z
			 M1014.1,703.7c-4.1,4.2-11.2-0.1-10.8,9.6c0.1,1.7,3.8,5,5.5,4.6C1014,716.6,1014.9,711.4,1014.1,703.7z"/>
		<path class="st9" d="M759.5,572.8c-8.1-10.6-15.8-3.7-23.7-0.5c-0.2-0.3-0.6-0.7-0.6-1.2c-0.1-17.8-2.5-14.8,11.5-18.3
			c4.6-1.1,9.4-1.4,14.1-0.9c11.3,1.4,17.3,9.4,17.7,23.5c0.3,12.2,0.1,24.4,0.1,37.2c-5.9,0-11.8,0-18.4,0
			c-0.2-1.7-0.4-3.7-0.7-6.1c-0.9,0.6-1.5,0.9-1.9,1.4c-6.3,7.2-13.3,9.2-19.6,5.2c-6.2-3.9-8.1-10.9-7.7-18.8
			c0.5-9.8,4.7-15.2,13.5-17.9c2.6-0.8,5.3-1,7.9-1.6C754.3,574.2,757,573.4,759.5,572.8z M758,583.4c-3.2,3-6.5,6.1-9.7,9.1
			c1.7,1.9,3.6,5.6,5.3,5.4C759,597.3,760.2,592.1,758,583.4z"/>
		<path class="st4" d="M1207.8,710c-10.2,0-19.6,0-30.9,0c8.2,12.2,17.2,7.6,25.5,5.6c0.2,0.4,0.4,0.6,0.5,0.9
			c1.2,15.2-0.4,17.7-12.8,18.4c-3.8,0.2-7.7,0.4-11.4-0.4c-11.2-2.3-17.8-10-19.9-22.5c-2.3-14,1.6-27.8,9.9-34.8
			c8.6-7.2,21.9-7.6,30.1-0.7C1208.2,684.6,1208.3,696.7,1207.8,710z M1177,693.6c0.5,0.9,0.9,1.8,1.4,2.7c3.7,0,7.4,0,11.1,0
			c0.5-0.7,0.9-1.3,1.4-2c-2.2-2.6-4.5-7.1-6.6-7.1C1181.9,687.1,1179.4,691.3,1177,693.6z"/>
		<path class="st4" d="M1015.4,472.4c6.9,9.9,15.7,5.2,24.1,3.1c1.4,17.2,0.3,18.9-13.4,19.4c-3.3,0.1-6.8,0.3-10.1-0.3
			c-11.2-2-18.7-10.5-20.7-22.7c-2.2-14.6,2-28.5,10.7-35.2c9.2-7.2,22.4-6.9,30.5,0.7c6.7,6.2,9.3,16.9,7.8,32.4
			c-9.5,0-19,0-28.7,0C1015.6,470.6,1015.5,471.5,1015.4,472.4z M1026.2,456.3c0.6-5.4-0.8-9.9-5.2-9.3c-2.5,0.4-4.8,4.9-7.1,7.5
			c0.5,0.6,1,1.2,1.4,1.8C1019,456.3,1022.6,456.3,1026.2,456.3z"/>
		<path class="st11" d="M790.6,732.9c-6.6,0-13,0-20.1,0c0-19.6,0-38.9,0-58.3c-5.2,1.5-9.6,2.8-14.6,4.2c0-6.4,0-11.9,0-18.6
			c11.9-0.5,20.9-15.4,34.6-11.2C790.6,676.7,790.6,704.6,790.6,732.9z"/>
		<path class="st11" d="M1150,419.8c12.4,0.1,21.1-15.7,34.7-10.8c0,27.8,0,55.7,0,83.9c-6.5,0-12.8,0-19.6,0c0-19.1,0-38.4,0-58.3
			c-5.4,1.4-10,2.7-15,4C1150,431.9,1150,426.1,1150,419.8z"/>
		<path class="st12" d="M1223.9,944c0,25.1,0,50,0,75.5c-165.3,0-330.4,0-496.2,0c0-25,0-49.8,0-75.5
			C892.7,944,1057.9,944,1223.9,944z M1111.2,945.5c-127.8,0-255.1,0-382.2,0c0,24.6,0,48.6,0,72.5c127.7,0,254.8,0,382.2,0
			C1111.2,993.7,1111.2,969.9,1111.2,945.5z M1113.4,1017.5c36.7,0,72.8,0,108.7,0c0-24.4,0-48.2,0-71.8c-36.5,0-72.4,0-108.7,0
			C1113.4,969.8,1113.4,993.3,1113.4,1017.5z"/>
		<path class="st13" d="M813.5,525.1c6.6,0,12.9,0,19.6,0c0,29,0,58,0,87.6c-6.3,0-12.7,0-19.6,0C813.5,584,813.5,555,813.5,525.1z"
			/>
		<path class="st4" d="M1035.6,595.8c5.3,1.5,9.8,3.3,14.4,3.9c1.9,0.3,4.2-2,6.2-3.1c-1.5-1.7-2.9-3.7-4.7-4.9
			c-2.1-1.5-4.6-2.2-6.9-3.3c-5.8-2.9-9-7.9-9.1-15.8c0-8.4,3-14.3,9.2-17.7c8.8-4.9,17.8-4,27.1-1c0,5.2,0,10.1,0,15.5
			c-3.5-0.9-6.9-2.3-10.3-2.5c-1.9-0.2-3.9,1.4-6,2.2c1.4,1.8,2.6,4,4.3,5.3c1.9,1.4,4.3,1.7,6.3,2.8c5.6,3,9.2,7.6,9.3,15.7
			c0.1,8.4-2.7,14.6-8.6,18.3c-9.3,5.8-19.2,4.3-29,1.9c-1-0.2-2.1-2.7-2.2-4.2C1035.4,604.6,1035.6,600.5,1035.6,595.8z"/>
		<path class="st14" d="M916.1,612.9c-6.7,0-13.2,0-20.1,0c0-27.3,0-54.5,0-82.4c6.6,0,13.2,0,20.1,0
			C916.1,557.9,916.1,585.1,916.1,612.9z"/>
		<path class="st11" d="M805.5,613c-6.7,0-13,0-19.5,0c0-29.2,0-58.1,0-87.6c6.4,0,12.8,0,19.5,0C805.5,554.4,805.5,583.3,805.5,613
			z"/>
		<path class="st11" d="M976,613c-6.7,0-13,0-19.5,0c0-29.2,0-58.1,0-87.6c6.4,0,12.8,0,19.5,0C976,554.4,976,583.3,976,613z"/>
		<path class="st15" d="M984.4,525.2c6.7,0,13,0,19.6,0c0,29.2,0,58.1,0,87.6c-6.4,0-12.8,0-19.6,0
			C984.4,583.8,984.4,554.8,984.4,525.2z"/>
		<path class="st6" d="M979.9,733c-6.7,0-12.9,0-19.5,0c0-29.2,0-58.1,0-87.6c6.3,0,12.8,0,19.5,0
			C979.9,674.3,979.9,703.3,979.9,733z"/>
		<path class="st14" d="M1234.3,677c4.6-2.1,9.2-4.3,14.9-7c0,9.1,0,15.7,0,22.3c-13.7-1.3-16.1,1.5-16.2,18.3c0,7.2,0,14.4,0,22.7
			c-3.6,0-6.9,0-10.2,0c-3.1,0-6.3,0-9.9,0c0-19.9,0-39.4,0-60C1219.9,674.9,1227.8,669.5,1234.3,677z"/>
		<path class="st16" d="M968,89.6c2.1-13.7,11.6-19.6,20.9-13.6c5.9,3.8,7.4,12.9,2.9,20.8c-3.2,5.8-7.3,10.9-11.7,17.5
			c6.5,0,11.5,0,18.1,0c-1-4-2.6-7.8-2.5-11.4c0.1-3.9,1.4-8,3-11.3c0.9-1.9,3.7-2.4,5.8-3.2c0.6-0.2,2,0.9,2,1.3
			c0,1.1-0.4,2.6-1.1,3.3c-1,1.1-2.3,1.8-4.2,3.1c2.1,2.1,3.4,3.5,5.5,5.4c-6.8,2.5-4.1,8.7-4.7,13.5c-0.3,2.3-1.2,4.5-1.9,6.8
			c-1.3-1.7-2.6-3.3-4.3-5.4c-0.4,1.5-0.9,3.4-1.4,5.2c-8.3,0-16.7,0-26.6,0c1.2-3.7,1.7-7.1,3.2-9.4c3.6-5.6,8-10.5,11.7-16.1
			c2.5-3.9,5.3-9,0.4-12.6c-1.5-1.1-5.4,2.7-7.5,6C973.3,89.6,970.8,89.6,968,89.6z"/>
		<path class="st16" d="M975.9,53.5c-9.3,22-18,43.8-27.8,64.9c-1.6,3.5-7.8,3.7-11.8,5.4c-0.3-0.7-0.7-1.4-1-2.1
			c0.6-1.9,1.1-3.9,1.8-5.7c7.5-17.6,15.6-35,22.4-53C962.9,53.8,967.3,50.2,975.9,53.5z"/>
		<path class="st17" d="M219.8,599.6c36.8-1.6,73.2,6.2,110.5,2c-3.5,2.2-6.9,4.9-10.5,6.6c-11.7,5.3-23.8,5.3-36.1,3
			c-18.2-3.5-36.6-6.5-54.9-9.7C225.8,600.9,222.8,600.2,219.8,599.6z"/>
		<path class="st7" d="M861.1,597c-2.2,9.8-4.5,19.3-6.7,29.2c-5.5,0-10.7,0-16.5,0c1.6-9.9,3.1-19.3,4.7-29.2
			C848.6,597,854.6,597,861.1,597z"/>
		<path class="st3" d="M206.3,274.7c-20.7-7.6-41.7,1.2-49,19.9c-0.1-2.9-1-6.1-0.3-8.6c4.7-15.4,26.2-28.9,38.9-23.8
			c4.5,1.8,8.1,6.7,12.1,10.2C207.3,273.1,206.8,273.9,206.3,274.7z"/>
		<path class="st18" d="M211.1,275.7c-3.4-12.2,0.6-23.6,9.1-30.2c11.2-8.7,27.6-9.1,36.5,0.4C235.7,243.6,219,249.7,211.1,275.7z"
			/>
		<path class="st18" d="M1461.6,538.7c-12.7-3.9-25.2-7.8-38-11.7c-1.1,13.2,6.3,14.3,13.4,16.2c6.1,1.6,12.1,3.6,18,5.4
			c-0.2,0.9-0.3,1.9-0.5,2.8c-7-1.8-14.1-3.4-21.1-5.4c-2.8-0.8-5.4-2.9-8.2-3.9c-7.1-2.6-10.3-10-7.4-18.1c0.5-1.4,2.9-3.1,3.9-2.8
			c13.5,4.8,26.8,10,40.2,15.1C1462,537.1,1461.8,537.9,1461.6,538.7z"/>
		<path class="st8" d="M1263.4,735c-6.7,0.1-11.5-4.8-11.6-11.7c-0.1-6.7,4.4-11.5,10.8-11.7c7-0.2,11.6,4.1,11.8,11.2
			C1274.6,730,1270.3,734.8,1263.4,735z"/>
		<path class="st18" d="M242.3,574.8c1-32.1-16-55.7-25.3-82.9c10.3,14.8,18.6,31.1,24.6,49c2.5,7.5,3.6,15.9,4.7,24
			c0.4,3.2-1.4,6.8-2.2,10.2C243.4,574.9,242.9,574.9,242.3,574.8z"/>
		<path class="st7" d="M932.1,528.5c5.9,0,11.2,0,17.4,0c-3.5,7.8-6,15.8-10.3,21.7c-2.3,3.2-7.8,2.8-13.2,4.5
			C928.3,544.7,930.1,536.9,932.1,528.5z"/>
		<path class="st17" d="M952.8,121.7c2.7-6.5,5.6-11.9,7.4-17.8c2.8-9.7,8.1-12,16.4-9c-4.4,8.7-8.6,17.1-13.5,26.8
			C961,121.7,957.2,121.7,952.8,121.7z"/>
		<path class="st18" d="M1420.1,509.1c-8.5,0-11.1-4.4-8.4-12.8c1.4-4.3,3.3-8.4,5.4-12.4c2.8-5.5,6.4-6.9,11.4-3.5
			c5.4,3.6,4.3,8.1,2,13.1c-1.9,4.1-3.7,8.2-6.1,11.9C1423.2,507.3,1421,508.4,1420.1,509.1z M1413.1,503.8c8.5,1.2,13.2-2,13.1-8.5
			c0-2.3-1.4-5.6-2.9-6.6c-1.1-0.7-4.3,1-5.3,2.8C1416,494.9,1414.9,499.1,1413.1,503.8z"/>
		<path class="st19" d="M320,584.6c-17.7,6.1-49.9-13.7-53.4-33.8C281.7,570.7,297.9,584.9,320,584.6z"/>
		<path class="st17" d="M1630.6,708.2c0.7,0,1.5,0,2.2,0c-2.4,19.6-3.2,39.7-8.3,58.6c-1-0.2-2-0.3-3-0.5c0.3-4,0.4-8,1-11.9
			C1625.1,739,1627.8,723.6,1630.6,708.2z"/>
		<path class="st17" d="M993.5,52.8c-2.6,12.1-6.9,20.8-18.3,17.6C980.9,51.7,980.9,51.6,993.5,52.8z"/>
		<path class="st3" d="M153.9,298.9c-9.8,10-19.7,20.1-29.7,30.1C128.1,312.3,144.9,296.6,153.9,298.9z"/>
		<path class="st17" d="M296.4,358c7.1-5.3,13.5-9,18.8-14.2c6.9-6.9,0.8-15.2,0.1-23.2c4.9,3.2,7.5,12,6.2,19.6
			C319.9,349.1,310.7,355.9,296.4,358z"/>
		<path class="st16" d="M1019.4,120.7c-6.9,2-9-1-9.4-7.6c-0.2-3.6-2.4-7.2-2.2-10.6c0.2-3.5,2.3-6.8,3.5-10.2
			c1.3,1.6,2.5,3.2,3.8,4.8c1,1.3,2.1,2.4,3.3,3.8C1012.6,107.5,1014.3,113.9,1019.4,120.7z"/>
		<path class="st11" d="M1381.4,105c-7.5,4.2-10,2.3-11.2-7.4c-0.4-3.1-2.5-5.9-4.2-9.3c3,0.6,5.9,1.1,8.7,1.6
			c-0.4,0.9-1.4,2.2-1.3,2.5C1376,96.7,1378.7,100.8,1381.4,105z"/>
		<path class="st19" d="M1411,103.1c-3.2-5.3-5.4-8.7-8.2-13.4c-0.7,4.9-1.2,8.2-1.7,11.6c-0.3,0-0.7-0.1-1-0.1c0-5.8,0-11.7,0-20.2
			c3.6,5.5,6.3,9.4,9.3,14.1c0.3-4.2,0.5-7.4,0.6-10.6c0.3,0,0.6,0,0.9,0C1411,90,1411,95.4,1411,103.1z"/>
		<path class="st19" d="M302.8,241.6c5.2,5.5,10.4,10.9,15.6,16.4c-0.4,0.7-0.7,1.3-1.1,2c-3.2-2.3-6.4-4.6-10-7.2
			c-1.3,2.4-2.6,4.8-3.8,7.1c-0.6-0.1-1.2-0.1-1.7-0.2c-0.3-5.8-0.5-11.7-0.8-17.5C301.5,242,302.2,241.8,302.8,241.6z"/>
		<path class="st17" d="M137.9,332.5c-7.9,10.2-8.9,21.5-3.5,33.8C124.4,351.9,125.9,337.3,137.9,332.5z"/>
		<path class="st19" d="M254.4,284.1c0.4-9.9,0.8-19.4,1.2-30C261.5,265.7,260.3,280.9,254.4,284.1z"/>
		<path class="st17" d="M153.4,493.4c-3.4-9.8-6.9-19.5-10.3-29.3c0.7-0.4,1.3-0.8,2-1.1c5.9,8.3,8.6,18.5,10.3,29.3
			C154.8,492.6,154.1,493,153.4,493.4z"/>
		<path class="st19" d="M1456.1,83.1c1.9,5.9,3.8,11.7,5.3,16.2c-3.8-0.7-7.6-1.3-11.8-2c1.1-3.4,2.8-8.8,4.6-14.1
			C1454.8,83.1,1455.4,83.1,1456.1,83.1z"/>
		<path class="st18" d="M529.7,623.2c-1.5-0.6-3.3-2.1-4.5-1.6c-4.8,2.1-9.3,4.9-14.6,7.7c0-4,0-6.6,0-8.9
			c7.3-1.3,14.4-2.6,21.4-3.9l-0.1-0.1c0,2.3-0.1,4.5-0.1,6.8C531.1,623.2,530.4,623.2,529.7,623.2z"/>
		<path class="st20" d="M1381.4,105c-2.6-4.2-5.4-8.3-7.9-12.6c-0.2-0.3,0.8-1.6,1.3-2.5c1.8-2.1,3.7-4.2,5.9-6.6
			c1,1.8,1.7,3.6,2.8,5.1c1.1,1.6,2.6,2.8,3.2,3.4C1384.9,96.2,1383.2,100.6,1381.4,105z"/>
		<path class="st19" d="M176.5,324.5c8.1-4.2,14.9-7.7,22.2-11.4C195.5,321.8,185.4,327.5,176.5,324.5z"/>
		<path class="st17" d="M160,378c-5.6,8.8-14.2,10.1-20.2,2.9C146.6,379.9,153.3,378.9,160,378z"/>
		<path class="st19" d="M349.4,421.1l0.1,0.1c0.6-1.3,1.2-2.5,1.5-3.3c8.3,2.5,16.7,5,26.8,8.1c-5.9,0-10.5,0.6-15-0.2
			C358.3,425,353.8,422.7,349.4,421.1z"/>
		<path class="st17" d="M243.9,284.2c0.8,3.7,1.5,6.4,2.1,9.1c-5.3,5.8-8.6,0.4-13.1-4.1C236.9,287.4,240.2,285.9,243.9,284.2z"/>
		<path class="st19" d="M529.7,623.2c0.7,0,1.4,0,2.1,0c-2,11.8-10.3,19.8-21.7,19.8C517.9,638.1,527.3,635.6,529.7,623.2z"/>
		<path class="st19" d="M1531.8,100.9c-3.9,1.5-7.6,1.3-8-4.6c-0.2-2.6,2-6.2,4.1-7.8c0.9-0.7,3.8,2.4,5.9,3.8
			c-0.3,0.8-0.6,1.6-0.9,2.4c-2.1,0.2-4.4,0.4-6.5,0.6c-0.2,0.5-0.4,1.1-0.6,1.6C1527.6,98.1,1529.4,99.3,1531.8,100.9z"/>
		<path class="st17" d="M253.6,398.7c7.4-2.2,13.3-4,19.7-6C270.5,399.6,264,401.6,253.6,398.7z"/>
		<path class="st21" d="M228.8,414.4c-5.1,2.8-10,5.6-15.1,8.4C215.6,415.2,224.2,410.4,228.8,414.4z"/>
		<path class="st17" d="M244.5,265.6c-5.2,2-10.3,4-15.4,6c3.3-8.7,9.1-8.5,14.8-8.4C244.1,264,244.3,264.8,244.5,265.6z"/>
		<path class="st19" d="M1463.3,88.1c1.1,2.7,2.2,5.4,3.6,8.7c1.3-3.2,2.4-5.9,3.5-8.6c0.5,0.3,1,0.6,1.6,0.9
			c-1.4,4.2-2.9,8.4-5.2,14.8c-2.1-6.5-3.5-10.8-5-15C1462.4,88.7,1462.8,88.4,1463.3,88.1z"/>
		<path class="st17" d="M222.8,403.6c-5.4,3.4-10.5,6.6-16.5,10.4C210.5,404.2,217.2,400.2,222.8,403.6z"/>
		<path class="st19" d="M227.6,471.5c0.7,0,1.4,0,2.1,0c0.8,8.4,1.5,16.9,2.3,25.3c-0.6,0.1-1.2,0.2-1.8,0.4
			C229.4,488.7,228.6,480.1,227.6,471.5z"/>
		<path class="st22" d="M1588.3,98.1c0-3.8,0-7.6,0-11.2c3.2-0.4,5.7-0.7,8.4-1.1c0,2,0,4.4,0,7.1c-1.3-0.7-2.3-1.2-2.3-1.2
			c-2.2,2.5-4.1,4.5-6,6.6C1588.4,98.2,1588.3,98.1,1588.3,98.1z"/>
		<path class="st19" d="M166,306.5c2.1,6.1,4.2,12.1,6.3,18.2c-0.8,0.4-1.5,0.9-2.3,1.3c-2.3-6.1-4.6-12.1-6.9-18.1
			C163.9,307.4,165,306.9,166,306.5z"/>
		<path class="st19" d="M293.3,260.9c-4.8,1.3-9.6,2.6-14.4,3.9c-0.2-1-0.4-1.9-0.6-2.9c4.8-1.6,9.5-3.2,14.3-4.8
			C292.8,258.4,293,259.7,293.3,260.9z"/>
		<path class="st17" d="M232.9,424.2c3.9,5.1,7.8,10.3,11.7,15.4c-0.6,0.7-1.2,1.5-1.9,2.2c-3.8-5.1-7.8-10.2-11.6-15.4
			C231.7,425.7,232.3,424.9,232.9,424.2z"/>
		<path class="st22" d="M1581.2,84.8c0,5,0,10,0,16.9c-1.9-3.1-4.8-5.7-4.8-8.2c0-3.5,2.2-6.9,3.5-10.3
			C1580.4,83.8,1580.8,84.3,1581.2,84.8z"/>
		<path class="st1" d="M1474.8,547.7c-1.3-1.2-2.6-2.3-3.9-3.5c0.1-0.2,0.2-0.4,0.3-0.7c1.6,0.9,3.2,1.9,4.9,2.8
			C1475.6,546.8,1475.2,547.2,1474.8,547.7z"/>
		<path class="st1" d="M1466.4,539.9c-0.6,0.1-1.1,0.1-1.7,0.2C1465.3,540.1,1465.8,540,1466.4,539.9L1466.4,539.9z"/>
		<path class="st22" d="M1588.4,98.2c-0.4,0.7-0.7,1.5-1.1,2.2c-0.3-0.3-0.5-0.7-0.8-1c0.6-0.5,1.2-0.9,1.7-1.4
			C1588.3,98.1,1588.4,98.2,1588.4,98.2z"/>
		<path class="st18" d="M532.1,616.5c0.1-0.1,0.3-0.3,0.4-0.4c0.1,0,0.2,0.1,0.3,0.1c-0.3,0.1-0.5,0.1-0.8,0.2
			C532.1,616.4,532.1,616.5,532.1,616.5z"/>
		<path class="st1" d="M1466.4,539.9l0.2-0.2C1466.6,539.7,1466.4,539.9,1466.4,539.9L1466.4,539.9z"/>
		<path class="st23" d="M1673.2,442.5c2,2.8,2.8,4,3.9,5.4c0.9-0.7,2.2-1.2,2.6-2.3c4.8-12.1,14.2-15.2,23.4-19.1
			c10.1-4.4,20.3-9.1,30.1-14.6c5.1-2.8,8.4-2.3,11.4,3.4c5.2,9.6,10.5,19.1,15.8,28.6c0.7-0.5,1.3-1,2-1.5
			c-6.7-13.5-13.4-27-20.2-40.8c0.4-0.3,1.4-1.1,2.5-1.9c-3.7-5-6.7-4.6-30.8,4.9c3.9,0,6.7,0,9.5,0c2.6,0,5.3,0,7.8,0
			c-11.8,10.8-25.8,14.2-40,18.3c11.3-17.4,13.9-38.5,17.7-61.1c2.7,12.1,5,21.9,7.2,31.7c0.4,0,0.8-0.1,1.1-0.1
			c-0.9-12.8-2-25.5-2.5-38.3c-0.3-6.3,0-12.8,0.9-19c1-7.1,5.4-9.1,9.1-3.7c6,8.6,11.1,18,15.9,27.7c6.9,14.2,13,28.9,19.3,43.4
			c0.6-0.4,1.3-0.7,1.9-1.1c-0.8-2.7-1.4-5.4-2.4-7.9c-5-12.5-10-24.8-14.8-37.4c-1.6-4.2-3.2-8.8-3.3-13.3
			c-0.1-3.1,2.5-6.2,3.9-9.4c1.5,1.9,3.1,3.8,4.6,5.8c0.9,1.2,1.4,2.9,2.2,4.1c7.7,11.4,35.3,16.8,44.9,4c2.5-3.4,7.4-4.5,11.2-6.3
			c2.4-1.1,5-1.5,7.5-2.2c0-0.8,0.1-1.6,0.1-2.3c-3.2-1-6.4-2-10.2-3.2c3.2-11.5,7.2-22.1,14.1-30.8c1.2-1.5,3.4-1.7,5.3-2.5
			c0.5,2.3,1.3,4.5,1.6,6.8c1.8,16-1.8,30.1-10.6,42.5c0.9,0.1,1.8,0.1,2.7,0.2c0.5,4.5,1.8,9.2,1.2,13.4
			c-4.4,30-8.3,60.2-14.4,89.7c-2,9.8-8.6,20.4-15.6,26c-16.1,12.7-24,30.5-28.3,52.2c-3.4,17.2-7.8,34.1-11.7,51.2
			c-0.5,2.1-1.1,4.1-1.6,6.2c-0.7,0-1.5-0.1-2.2-0.1c-0.4-2.9-1.4-6-1.1-8.8c2-18.1,4.3-36.2,6.4-54.2c0.3-3,0-6.1,0-9.2
			c-0.9-0.3-1.8-0.6-2.6-1c-1.6,4.2-4.2,8.2-4.7,12.5c-2.1,16.1-3.5,32.4-5.2,48.6c-1.2,11.2-2.8,13-11.9,13.7
			c-4.3,0.3-8.5,0.5-12.9,0.7c-4.5,0.1-6-2.6-5-7.9c0.7-3.7,1.1-7.5,0.3-11.7c-1,4.4-2.3,8.8-2.9,13.3c-0.6,4.9-2.9,6.6-6.6,6.3
			c-13.1-1-26.1-1.9-39.1-3.1c-4.1-0.4-7.1-2.7-6.1-8.6c2-11.4,4.2-22.7,6.6-33.9c0.5-2.3,2.4-4.1,3.8-6.2c-4.9-7.4-8-7.4-10.6,1.5
			c-3.2,11.2-5.4,22.8-7.9,34.3c-0.6,2.9-1.2,5.8-2.1,10.1c-15.8-4.7-31.1-9.1-46.3-14.2c-1.5-0.5-3.3-5.2-3-7.6
			c2.5-20.5,5-41.1,8.8-61.3c1.6-8.5,1.4-15.5-1.2-23.2c-4.7-14.1-8.6-28.5-13.3-42.6c-7.6-23.1-16.1-45.8-23.1-69.1
			c-4.7-15.5-8.2-31.7-10.7-47.9c-2.1-13.5,1.9-25.9,10.5-35.2c12.6-13.6,25.2-26.8,37.9-40.3c6.9-7.4,14.2-9.5,23.7-7.8
			c8.4,1.6,17.3-0.5,25.9-2.1c11.9-2.2,12.6-2.2,18.8,10c3,5.9,7.2,10.5,14.7,10.9c-4.6-4.4-8.7-7.5-11.8-11.6
			c-4.9-6.3-4.1-9.7,2.8-12c9.1-3,18.3-5.6,27.5-8.1c5.1-1.4,8.4,0.8,9,8.6c1.2-2.2,2.1-3.7,2.9-5.2c10.1,15.2,7.4,37.2-7.3,49
			c-16.1,13-34.2,18-53.6,14c-5.3-1.1-9.5-4-11.3-11.3c-0.9-3.4-4.5-5.7-6.8-8.6c-0.8,0.7-1.6,1.4-2.4,2.1c2,6.4,3.9,12.9,6,19.3
			c-6.8,3.6-8.3-4.9-12.5-8.9c-2.6,9.4,1.9,12.7,6.8,15.9c2.2,1.5,6.2,4.1,5.9,5.3c-0.6,3.4-2.4,7.7-4.8,9.1
			c-5.8,3.3-12.2,5.3-18.3,7.5c-2.4,0.9-5.2,0.7-8.7,1.2c7.2,10.6,14,2.2,20.5,1.6c0.2,0.8,0.3,1.6,0.5,2.4
			c-6.4,2.7-12.7,6-19.1,7.9c-6.9,2.1-14,2.9-22.1,4.5c10.1,9.2,19.9,0.2,30.7,0.5c-6.4,14.2-17.3,17.8-26.8,23.9
			c0.2,0.7,0.4,1.3,0.6,2c5.2-1.8,10.2-3.5,16-5.5c-0.3,2-0.5,3.9-0.8,6.4c6.7,0.2,9.7-6,13.3-11.1c8.6-12.4,17.1-25.1,25.7-37.5
			c2-2.9,4.5-5.7,7.2-7.6c3.3-2.3,6.8-9.5,10.8-0.9c0.1,0.3,0.8,0.5,1,0.4c10.8-5,6.7,5.8,6.7,10.4c0,5.6-1.6,11.2-2.6,16.8
			c0.5,0.3,1.1,0.5,1.6,0.8c1.6-4.6,3.5-9.1,4.9-13.8c1.3-4.5,3.1-5.6,7.2-4.5c14.4,4.2,16.9,7.3,17.9,25.4
			c1.1,20.9-1.1,41.4-8.8,59.9c-4.8,11.3-11,23.1-19.1,30.6c-10.4,9.7-15.7,26.1-29.5,31c0.4,0.8,0.9,1.6,1.3,2.4
			c4.7-3,9.9-5.2,14-9.1C1665.8,454.1,1669,448.4,1673.2,442.5z M1703.5,480.2c-11.2-6.5-19-6.1-35.4-0.6c-9.1,3-18.2,6-27.4,8.7
			c-6.9,2-12.8-0.3-17.6-7.1c-3.3-4.7-7.2-8.8-10.8-13.1c-0.5,0.4-1.1,0.8-1.6,1.3c1.7,6.7,3.5,13.4,5.4,20.4
			c-2.7,0.3-5.1,0.5-9,0.8c8.2,9.8,16.9,12.2,26.5,12.7c-1.4-2-2.7-4-4.2-6C1654.2,491.6,1678.8,485.9,1703.5,480.2z M1642.6,508
			c-0.1,1.5-0.2,3-0.4,4.5c3.7,1.3,7.4,3.5,11.1,3.8c11.9,0.8,23.9,2.1,35.8,1.1c15.3-1.3,29.1,1.1,41.1,13.7
			c2.4,2.5,5.7,3.9,8.5,5.8c-5.4-7.8-11.2-14.3-17.7-19.8c-3.5-2.9-8-5.5-12.1-5.7c-11.9-0.5-23.9,0.9-35.8,0.4
			c-8-0.3-15.9-2.6-23.8-3.8C1647.2,507.7,1644.9,508,1642.6,508z M1722.3,500.5c5,9.1,17.5,16.4,25,14.2c8.1-2.5,20.8-21,22.5-34.5
			c-7.6,7.3-13.7,16.4-21.4,19.6C1740.6,503,1731,500.5,1722.3,500.5z M1811.4,371c-0.5-0.3-1.1-0.5-1.6-0.8
			c-4.6,13.7-9.2,27.3-13.4,41.1c-0.7,2.2,1.1,5.6,1.7,8.4c1.9-1.8,5.1-3.2,5.5-5.5C1806.6,400,1808.9,385.5,1811.4,371z
			 M1631.8,270.4c6.4-9.6,6.1-19-1.2-28.8C1631,252.1,1631.4,260.5,1631.8,270.4z M1612.7,241.1c-4.3,7.8-1.6,21.4,5.9,29
			C1616.4,259.8,1614.6,250.8,1612.7,241.1z M1690.2,253.7c13.5,4.6,25.8-2,24.5-14.4C1709.7,252.9,1699.3,250,1690.2,253.7z
			 M1561.3,310.4c2,10.3,5.6,13.3,10.5,9.7C1568.6,317.1,1565.5,314.2,1561.3,310.4z M1762.7,445.5c-0.1-0.2-0.3-0.4-0.4-0.6
			c-0.1,0.2-0.3,0.4-0.4,0.6c0.2,0.2,0.4,0.4,0.6,0.6C1762.5,445.9,1762.6,445.7,1762.7,445.5z"/>
		<path class="st24" d="M1580.2,607c3.1-5.7,2.8-9.7-3.3-11.5c-1.2-0.4-3-2.9-2.9-4.3c0.3-6.8,1.1-13.6,1.8-21.3
			c30.4,19.4,63.1,23.4,95.8,26.8c32.7,3.5,65.6,7.3,99-6.1c-0.7,5.5-1.5,11-2,16.5c-2.3,21.5-4.8,42.9-6.7,64.4
			c-1.1,13-6.5,20.3-16.6,24c-15.7,5.7-31.6,5.8-47.6,4.9c-40.7-2.2-80.4-12.5-119.3-27.1c-10.5-4-14.6-17.3-8.7-28.8
			c0.8-1.7,3.2-2.5,5.1-3.1c8.9-3.2,17.9-6.3,26.9-9.4c-0.2-1.2-0.4-2.4-0.6-3.6c-3.1,0.8-6.7,0.9-9.5,2.6
			c-7.8,4.6-15.7,6.4-24.3,5.5c-15.6-1.7-18.7-7-16.1-27.2c8.1,2.2,16.4,6.9,24.4,6.1c7.7-0.8,15.1-7.1,22.6-11
			c-0.4-1.1-0.8-2.2-1.1-3.3c-5,2.7-9.8,5.3-14.8,8C1581.4,608.3,1580.8,607.7,1580.2,607z"/>
		<path class="st23" d="M1773,267.2c-7.2,17.5-14.2,35.2-21.6,52.5c-2.7,6.5-8.1,8.6-13.8,8.4c-2.4-0.1-5-0.8-7.3-1.7
			c-14.9-5.8-18.8-14.4-13.7-32.4c2.6-9,7.2-17,10.5-25.7c1.5-4.1,2.7-8.7,3.1-13.1c1.4-17.6,3.1-35.3,3.5-52.9
			c0.3-14.3,8.4-18.8,16.9-21.7c10.6-3.6,21.1-0.2,30.1,7.7c5.3,4.6,7.9,11.1,6.3,20.3c-3.9-3.1-7.6-6-11.2-8.8
			c-0.3,0.5-0.6,0.9-0.9,1.4c1.8,2.5,3.7,5,5.6,7.6c5.9,8.4,3.9,17.1-4.6,20.6c-4.2,1.7-8.6,2.6-12.9,3.8c0,0.8,0.1,1.5,0.1,2.3
			c5.6,0.5,11.2,1.1,17.2,1.7c-4.2,10.6-8.1,20.9-12.1,31.1c-0.2,0.3-0.4,0.6-0.7,0.9c0.2-0.4,0.4-0.7,0.5-1.1
			c1.1-0.9,2.1-1.9,3.2-2.8C1772.1,265.9,1772.6,266.5,1773,267.2z M1775.4,221.4c-4.3-1.7-8.6-3.4-14-5.5
			C1764.1,225.3,1767.2,226.6,1775.4,221.4z M1724.3,288.9c4.8,3.4,9.1,6.6,14.7,10.6C1735.7,290.5,1731.7,288,1724.3,288.9z"/>
		<path class="st25" d="M1651.8,224.7c-0.8,0.7-1.5,1.9-2.3,1.9c-13.9,1-27.7,1.9-42.1,2.8c3.2-16,6.2-30.4,9-44.7
			c-0.6-0.2-1.2-0.4-1.8-0.6c-3.5,12.5-6.7,25.1-10.6,37.3c-4.2,12.6-9.5,24.5-20.6,31.9c9.1-33.5,17.9-67.1,27.3-100.4
			c1.7-6.1,5.2-11.7,8.5-16.9c10.6-17,26.1-21.9,42.2-13.7c7.1,3.6,11.4,10,12.1,19.4c0.5,8.7-2.7,15.4-8.4,20.6
			c-1.3,1.2-2.3,3-3.4,4.6c1.7-0.3,3.4-0.5,5.2-0.8c0.6-0.1,1.2-0.7,2.2-1.3c0.1,1.6,0.4,2.9,0.2,4c-3.3,16.1-6.7,32.2-10.1,48.3
			c-1,4.6-2.1,9.3-7.5,7.7c-0.5-3.2-0.1-7.6-1.7-9.4c-5.1-6-11.3-8.3-17.2-5.7c5.5,4.7,11.2,9.7,17.1,14.6
			C1650.4,224.8,1651.1,224.6,1651.8,224.7z M1665.9,156.7c0.1-0.8,0.1-1.6,0.2-2.4c-9-1.6-18-3.3-27.4-5
			c1.4,10.2,5.5,14.8,14.3,16.4c-2.2-3.5-3.8-6-5.8-9C1653.7,156.7,1659.8,156.7,1665.9,156.7z M1650.8,128.3
			c-0.3,0.7-0.6,1.5-1,2.2c4.9,4.2,9.7,8.5,14.6,12.7c0.5-1,1.1-2.1,1.6-3.1C1661.1,136.2,1656,132.3,1650.8,128.3z"/>
		<path class="st25" d="M1819,292.2c-4.3,7.8-8.2,15.8-12.8,23.3c-4.3,7.1-9.3,13.6-13.6,20.7c-7.7,12.8-24.3,11.3-30.7-2.8
			c-1-2.2-3.2-3.5-5.9-6.2c2.8-8.4,6.1-17.8,9.3-27.1c6.7-19,13.5-38,20.3-57c5.1-14.2,8.8-16.8,20.4-11.3
			c5.9,2.8,11.5,7.3,16.2,12.5c3.5,4,4.8,11.7,0.2,15.5c-3.4,2.9-9,2.2-13.7,2.8c-0.6,0.1-1.8-1.1-2-1.9c-1.8-9.2-5.3-4.3-9.1,0.2
			c5.3,2.9,10.6,5.8,15.4,8.4c0.6,4.6,1.9,9.1,1.4,13.3c-0.5,4.4-2.6,8.5-3.1,13.8c2-2.2,4.2-4.3,6.2-6.5
			C1818,290.7,1818.5,291.4,1819,292.2z M1777,319.8c5.4,3,10.7,5.9,16.1,8.9C1790,319.4,1783.4,319.6,1777,319.8z M1771.6,332.7
			c2.2,8.1,6.8,9.7,12.8,6.8C1780.2,337.3,1775.9,335,1771.6,332.7z"/>
		<path class="st25" d="M1688.4,220.1c0-8.2,0-15.3,0-22.4c-0.4-0.1-0.9-0.3-1.3-0.4c-0.8,5-1.8,10-2.4,15.1
			c-0.6,5.6-1.3,10.6-7.3,10.4c-7.7-0.3-11.6-3.5-11.3-11.6c0.3-7.6,1.8-15.3,3.7-22.6c2.6-9.9,4.8-20.9,9.8-28.8
			c4.6-7.1,12.3-12.9,19.4-15.3c10.3-3.4,20.3,2.2,28.8,10.1c1.4,1.3,2.4,4.1,2.6,6.4c1.4,11.3-1.1,21.9-6.9,30.3
			c-5.6,8.1-13.8,6.7-21.5,4.4c-2.5-0.7-5-1.9-7.6-1.9c10.1,7.3,21.3,8.3,33.8,7.3c-0.6,7.1-1.1,13.8-1.8,22.7
			C1714,207.3,1701.4,218.3,1688.4,220.1z"/>
		<path class="st25" d="M1502.9,596.1c1.8-1.4,2.9-2.7,4.4-3.2c13-4.5,26-8.8,39-13.2c5-1.7,7.9,0.8,8.9,6.7
			c0.3,1.6-0.2,4.2-1.1,5.1c-9.5,9.9-18.7,20.7-32,22.9c-4.5,0.8-8,1.4-10.4-5.2C1509.8,604.5,1506.1,600.8,1502.9,596.1z"/>
		<path class="st26" d="M1570.6,598.5c-0.6,1-2.3,3.7-4.1,6.5c-1.9-2.5-4.4-4.6-5.5-7.5c-1.5-4.2-1.8-9.1-2.9-13.6
			c-1.7-6.9-5.7-9.9-11.4-8.3c-6.2,1.7-12.2,4.1-18.4,5.4c-2.7,0.6-5.8-1-8.6-1.5c2-2.9,3.5-7.7,6-8.4c8.2-2.6,16.7-5.4,25-5.2
			C1562.7,565.9,1570.7,579.2,1570.6,598.5z"/>
		<path class="st26" d="M1714.3,286.7c-1,3.6-1.8,7.3-3.2,10.7c-6.9,16.7-18.1,19.2-29.7,7.2c10.6-6.2,21.4-12.5,32.2-18.8
			C1713.8,286.1,1714,286.4,1714.3,286.7z"/>
		<path class="st22" d="M1493.8,606.8c-7.7-3.7-9.5-9.4-5.4-16.7c5.7-10.2,14.8-13.1,24-14.9c1.1-0.2,3.3,1.3,3.6,2.6
			c0.4,1.7,0,4.7-1,5.8c-1.7,2-4.2,4.1-6.4,4.2C1498.5,588.3,1494,594.8,1493.8,606.8z"/>
		<path class="st22" d="M1472.2,590.1c2.9-4.7,5-9.9,9.4-5c1.5,1.7,2.6,7.3,1.9,8.1C1479.3,597.9,1476.1,593.9,1472.2,590.1z"/>
		<path class="st22" d="M1585.6,550.4c-0.4,2.9-0.4,6-1.3,8.6c-0.6,1.7-2.4,2.8-3.6,4.2c-0.9-2.2-2.9-5.1-2.3-6.5
			c1.1-3,3.5-5.4,5.4-8C1584.3,549.3,1584.9,549.9,1585.6,550.4z"/>
		<path class="st22" d="M1758,589.5c8-3,11.7-8.3,10.7-17.6c0.6,0,1.2,0,1.9,0c0.3,3.1,1.3,6.4,0.7,9.2
			C1770.3,585.8,1765.1,589.1,1758,589.5z"/>
		<path class="st24" d="M1577.2,611.1c-1,0.1-1.9,0.2-2.9,0.3c0-0.3-0.1-0.6-0.1-1c1-0.2,1.9-0.4,2.9-0.5
			C1577.2,610.3,1577.2,610.7,1577.2,611.1z"/>
		<path class="st23" d="M1771.5,265.3c0.3-0.9,0.7-1.9,1-2.8c0.4,0.4,0.9,0.8,1.3,1.2c-0.3,1.1-0.6,2.3-0.9,3.4
			C1772.6,266.5,1772.1,265.9,1771.5,265.3z"/>
		<path class="st24" d="M1582.1,609c-1.1,0.1-2.3,0.3-3.4,0.4c0.5-0.8,1-1.6,1.6-2.3C1580.8,607.7,1581.4,608.3,1582.1,609z"/>
		<path class="st25" d="M1820.1,288.5c-0.3,1.2-0.7,2.5-1,3.7c-0.5-0.8-1-1.5-1.5-2.3c0.5-0.8,1-1.7,1.5-2.5
			C1819.3,287.7,1819.7,288.1,1820.1,288.5z"/>
		<path class="st25" d="M1819,287.4c0.5-0.5,1.1-1,1.6-1.5c-0.2,0.9-0.4,1.7-0.7,2.6C1819.7,288.1,1819.3,287.7,1819,287.4z"/>
		<path class="st26" d="M1713.6,285.8c0.5,0,1,0,1.4-0.1c-0.2,0.3-0.5,0.7-0.7,1C1714,286.4,1713.8,286.1,1713.6,285.8z"/>
		<path class="st24" d="M382.4,682.3c-1.7,6.2,0.7,9.3,5.4,9.5c3.9,0.2,8-1.5,11.9-1.2c3,0.2,7.6,1.3,8.6,3.8
			c5.1,12.1-1.1,25.8-12.3,27.1c-6.9,0.8-14,0-20.9,0.2c-2.7,0.1-5.5,0.8-8,2.8c1.7,0.3,3.5,0.5,5.3,0.8c7.5,1.3,11.4,6,12.6,14.8
			c1,8-1.4,14.5-8.8,17.3c-14,5.3-28.1,10.3-42.4,13.4c-33.9,7.5-68.3,12.3-102.8,10.7c-9.1-0.4-18.3-2.7-27.3-4.6
			c-8.7-1.8-14.3-8.6-15.5-19.3c-2.5-21.4-4.6-42.8-6.7-64.3c-0.7-7.4-1.3-14.8-2-22.9c33.1,14.4,66.3,10.9,99.4,8.3
			c32.9-2.6,66-5.3,97.7-25c0.3,8.5,0.6,16.1,0.8,23.6c0.1,3.1,0.1,6,3.6,3.4C381.5,681.1,382,681.7,382.4,682.3z"/>
		<path class="st26" d="M423.1,636.5c5.4,4.4,10.6,8.3,15.3,13c1.1,1.1,0.1,5.3,0.1,8c-2-0.3-4.8,0.2-5.9-1.2
			c-7.6-9.5-16.1-5.3-21.4,3.4c-4.3,7.1-7.8,14.9-12.3,21.8c-1.6,2.5-5,3.2-7.5,4.7c0.1-3.2-0.7-7.2,0.5-9.5
			c5.8-10.8,11.8-21.5,18.5-31.4C413.2,641.5,418,640,423.1,636.5z"/>
		<path class="st22" d="M435.8,686.7c-9.5,18-15.7,36.8-29,49.5c-5.5,5.3-7.7,5.2-9.7,1.7c5.8-5.5,11.8-10.2,16.7-16.4
			c2.5-3.2,3.5-8.9,4.2-13.7C419.6,693.3,421.7,690.3,435.8,686.7z"/>
		<path class="st22" d="M364.9,630.1c2.9,2.8,6.5,5,8.5,8.5c0.9,1.6-0.3,6.5-1.7,8.7c-3.3,4.8-6.8,3.6-8-2.6
			c-0.7-3.9-0.8-8.1-1.1-12.1C363.2,631.8,364.1,630.9,364.9,630.1z"/>
		<path class="st24" d="M382.4,679c0.7-0.2,1.4-0.4,2.1-0.5c-0.4,0.6-0.7,1.2-1.1,1.8C383.1,679.8,382.7,679.4,382.4,679z"/>
		<path class="st24" d="M381.1,680.5c0.4-0.5,0.8-1,1.2-1.5c0.4,0.4,0.7,0.8,1.1,1.2c-0.4,0.7-0.7,1.4-1.1,2
			C382,681.7,381.5,681.1,381.1,680.5z"/>
		<path class="st0" d="M119.9,392.2c-0.4-1.3-0.8-2.6-1.3-3.8c0.3-0.2,0.7-0.5,1-0.7c0.7,1,1.3,2.1,2,3.1
			C121.1,391.3,120.5,391.7,119.9,392.2z"/>
		<path class="st0" d="M271.5,354c-0.1-0.7-0.2-1.5-0.3-2.2c0.5,0.1,1.1,0.3,1.6,0.4C272.4,352.8,271.9,353.4,271.5,354z"/>
		<path class="st0" d="M121.7,390.8c0.1,0.7,0.3,1.4,0.4,2.2c-0.7-0.2-1.4-0.5-2.2-0.7C120.5,391.7,121.1,391.3,121.7,390.8z"/>
		<path class="st22" d="M1133.2,701.8c-0.1,9.6-3.2,15.4-7.9,14.7c-6.3-0.9-6.9-7.1-6.7-13c0.1-6.3,1-13.1,7.5-13.3
			C1132.4,690,1132.7,696.9,1133.2,701.8z"/>
		<path class="st26" d="M1226.3,451.7c-0.7,6-1.1,12.6-2.3,19c-0.4,2.2-2.7,3.8-4.2,5.7c-1.4-1.8-4.2-3.6-4.2-5.5
			c-0.3-12.9-0.3-25.8,0.2-38.6c0.1-2,2.7-3.8,4.2-5.7c1.5,2.1,3.9,3.9,4.5,6.3C1225.5,438.8,1225.7,445,1226.3,451.7z"/>
		<path class="st26" d="M1072.9,703.7c-0.5,2.4-0.5,6.5-2.1,8.4c-1.8,2.3-5.7,4.5-7.8,3.6c-5.5-2.4-5.6-9.3-4.3-14.7
			c0.9-4.1,3.8-7.8,6.7-10.7c0.5-0.6,4.8,3.5,6.6,6.1C1073,697.8,1072.6,700.6,1072.9,703.7z"/>
		<path class="st22" d="M506.7,584.6c0.8-4.1,0.9-7.3,2-9.8c2.1-4.8,5.4-6.6,9.5-3.3c3.8,3.2,4.7,15.9,1.3,21.4
			c-2.5,4.1-6.1,5.8-9.1,1.9C508.5,592,507.8,587.6,506.7,584.6z"/>
		<path class="st26" d="M776.3,462.6c-0.3,9.8-3,14.3-7.8,13.9c-4.8-0.3-7.6-5.9-7.3-14.4c0.2-8.2,3.3-13,8.3-12.2
			C776.2,451.1,776.2,457.5,776.3,462.6z"/>
		<path class="st26" d="M1171.7,583c-0.4,6.1-0.5,12.7-7.3,13.5c-5,0.5-7.9-4.9-7.9-13.6c0-8.3,2.8-13,7.7-13
			C1169.2,570,1171.8,574.5,1171.7,583z"/>
		<path class="st26" d="M1389.5,583.3c-0.3,6.3-0.8,12.6-7.5,13.2c-5,0.4-7.7-5-7.7-13.9c0.1-8.3,2.9-12.9,7.9-12.7
			S1389.6,574.7,1389.5,583.3z"/>
		<path class="st22" d="M706.6,706c0.4,5.8-0.8,11-6.2,11.9c-1.6,0.3-3.7-3.3-5.6-5.1c3.2-3.2,6.5-6.4,9.7-9.6
			C705.3,704.2,705.9,705.1,706.6,706z"/>
		<path class="st22" d="M1098.8,463.3c2.2,8.8,0.9,13.9-4.6,14.6c-1.6,0.2-3.6-3.5-5.5-5.4C1092.3,469.4,1095.5,466.4,1098.8,463.3z
			"/>
		<path class="st22" d="M574,586c0.4,5.8-0.7,10.9-6.2,11.9c-1.6,0.3-3.7-3.2-5.7-5c3.2-3.2,6.5-6.4,9.6-9.6
			C572.6,584.1,573.3,585.1,574,586z"/>
		<path class="st22" d="M1014.1,703.7c0.8,7.7,0,12.9-5.4,14.2c-1.6,0.4-5.4-2.9-5.5-4.6C1002.8,703.6,1010,707.9,1014.1,703.7z"/>
		<path class="st22" d="M758,583.4c2.3,8.7,1,13.9-4.5,14.6c-1.6,0.2-3.4-3.5-5.3-5.4C751.5,589.5,754.7,586.4,758,583.4z"/>
		<path class="st22" d="M1177,693.6c2.4-2.3,4.9-6.5,7.4-6.5c2.2,0,4.5,4.6,6.6,7.1c-0.5,0.7-0.9,1.3-1.4,2c-3.7,0-7.4,0-11.1,0
			C1177.9,695.4,1177.4,694.5,1177,693.6z"/>
		<path class="st26" d="M1026.2,456.3c-3.6,0-7.2,0-10.7,0c-0.5-0.6-1-1.2-1.4-1.8c2.3-2.6,4.5-7.1,7.1-7.5
			C1025.4,446.4,1026.8,450.9,1026.2,456.3z"/>
		<path class="st27" d="M1111.2,945.5c0,24.4,0,48.2,0,72.5c-127.4,0-254.5,0-382.2,0c0-23.9,0-47.9,0-72.5
			C856.1,945.5,983.4,945.5,1111.2,945.5z M866.5,981.6c1.8,5.1,3.6,10.1,6.1,16.7c1.8-4,3-6.6,4.7-10c0.7,1.9,1.1,3.1,1.5,4.3
			c0.5,1.4,1.1,2.8,1.6,4.1c0.6,0.1,1.3,0.3,1.9,0.4c1.5-5.4,2.9-10.8,4.5-16.2c-0.7-0.4-1.3-0.7-2-1.1c-1.1,2.5-2.1,5.1-3.4,8.1
			c-1.3-3-2.4-5.5-4.1-9.2c-1.9,4.4-3.1,7.3-4.4,10.2C870.5,986.2,873.2,977.9,866.5,981.6c-1-0.3-2.2-1.2-3.1-0.9
			c-2.9,0.9-7,1.4-8.3,3.8c-1.2,2.3-0.6,8.4,1,10.3c1.8,2,5.9,1.1,8.9,1.5c0-0.7,0-1.4,0.1-2.1c-2.5-0.7-5-1.5-7.5-2.2
			c0.1-0.6,0.2-1.2,0.3-1.7c2.6-0.3,5.2-0.6,8.1-1C866.2,986.4,866.4,984,866.5,981.6z M951.6,996.5c0.9-0.1,1.8-0.2,2.8-0.4
			c0-3.1,0.5-6.4-0.2-9.3c-0.6-2.5-2.2-6.3-3.8-6.6c-5.1-0.8-10.3-0.3-15.1-0.3c0,6.3,0,11.3,0,16.3c0.5,0,1,0.1,1.5,0.1
			c0.9-4.4,1.8-8.9,2.7-13.3c0.7,0.2,1.5,0.4,2.2,0.6c0.5,4.3,1.1,8.6,1.6,12.9c0.5,0,1,0,1.5-0.1c0.9-4.5,1.9-9,2.8-13.4
			c0.7,0.2,1.5,0.4,2.2,0.5C950.6,987.9,951.1,992.2,951.6,996.5z M769.1,975.7c-0.8,0.1-1.6,0.3-2.4,0.4c0.5,6.1,0.8,12.3,1.7,18.4
			c0.2,1.1,3,1.6,6.1,3.1c-1.1-2.6-1.4-3.3-1.6-3.9c-0.8-2.2-2.3-4.5-2.2-6.7c0.1-1.6,2.2-3.1,3.5-4.6c1,1.9,2.5,3.6,2.8,5.6
			c0.9,8.8,0.8,8.8,6.3,7.2c-5.4-4.6-4.4-9.5-1.5-12.8c-1.4-2.3-2.6-4.3-3.8-6.3C774.6,981.7,772.9,981.7,769.1,975.7z M983,981.1
			c0,5.4,0,10.3,0,15.2c1.9-1.8,2-3.6,2.5-5.3c0.9-3,1.8-8.4,3-8.5c4.8-0.5,3.8,4.6,3.8,8.3c0,5.3,1.9,6.9,6.7,4.8
			c-5.6-4.8-5.2-9.7-1.9-13.4c-1.4-1.9-2.7-3.8-3.3-4.6C990.3,978.8,986.5,979.9,983,981.1z M1039.4,988.5c-2.7-3.7-4.4-7.7-6.4-8.1
			c-2.1-0.5-6.2,1.7-6.9,4c-0.9,2.9-0.3,8.2,1.4,10.2c1.7,2,5.6,1.3,8.4,1.8c0.1-0.7,0.2-1.4,0.2-2.2c-2.2-0.7-4.6-1.3-6.8-2
			c0.1-0.6,0.2-1.2,0.3-1.7C1032.1,990,1034.7,989.5,1039.4,988.5z M788.8,996.7c6,0.8,9.8-1.5,9.7-9.2c-0.1-6.7-3.1-8-12.5-6.3
			c0,7.8,0,15.4,0,23.1c0.4,0,0.8,0,1.2,0.1C787.6,1002.1,788.2,999.8,788.8,996.7z M977.4,997.8c0.9-1.1,1.8-2.2,2.8-3.2
			c-1.5-4.8-2.7-9.9-4.9-14.3c-0.4-0.8-4.4,0.9-6.7,1.5c0.2,0.6,0.3,1.2,0.5,1.9c2.1,0.2,4.2,0.3,5.4,0.4c-2.6,3.2-5,6.1-7.3,9
			C970.6,994.7,974,996.3,977.4,997.8z M752.3,995.9c0.5,0,1,0.1,1.5,0.1c0.2-2.3,0-4.7,0.7-6.7c0.8-2.2,2.3-3.9,3.6-5.8
			c0.9,1.9,2.1,3.7,2.7,5.8c0.6,2.2,0.6,4.6,0.8,7c3.6-13.7,2.1-16.7-6.8-15.9c-0.5-2.7-0.9-5.3-1.4-8c-0.4,0.1-0.8,0.2-1.2,0.3
			C752.3,980.3,752.3,988.1,752.3,995.9z M932.8,986.4c-2.5-2.2-4.9-5.5-7.6-6.2c-4.5-1.1-7.1,2.2-7.2,8.1c0,5.3,1.9,8.3,6.4,8.5
			C928.9,996.9,931.3,994,932.8,986.4z M840,996c0.6,0,1.2,0,1.8,0c0.2-2.3,0-4.8,0.6-6.8c0.7-2.2,2.3-3.9,3.6-5.8
			c0.9,1.9,2.1,3.7,2.7,5.7c0.6,2.2,0.5,4.7,0.8,7c4.1-14.6,2.1-17.1-10.1-14.8C839.7,986.2,839.9,991.1,840,996z M809,982.4
			c-0.2-1-0.4-1.9-0.6-2.9c-2.5,1.1-5.1,2.2-7.7,3.3c1.5,3.3,3.1,6.7,4.8,10.2c-1,0.3-2.8,0.9-4.7,1.6c0.2,0.8,0.3,1.7,0.5,2.5
			c2.6-0.9,5.3-1.8,7.8-2.7c-1.3-3.4-2.6-6.9-3.9-10.4C806.2,983.5,807.6,982.9,809,982.4z M888.7,994.3c0.2,1,0.3,1.9,0.5,2.9
			c2.6-1.1,5.3-2.1,7.9-3.2c-1.6-3.4-3.1-6.8-4.8-10.2c1.1-0.4,2.7-1,4.5-1.5c-0.2-0.9-0.3-1.7-0.5-2.6c-2.5,1-5.2,1.9-7.7,2.9
			c1.3,3.3,2.5,6.5,3.9,10.2C891.7,993.1,890.2,993.7,888.7,994.3z M827.3,974.6c-0.8-0.4-1.6-0.8-2.4-1.2c-3,8.5-6.2,17.1-9.2,25.6
			c0.9,0.5,1.8,0.9,2.7,1.4C821.4,991.7,824.3,983.1,827.3,974.6z M914.9,981.2c0-0.7,0-1.4,0-2.1c-2.9,1.7-6.7,2.6-8.6,5.4
			c-1.2,1.8-0.9,7.6,0.5,9.3c1.9,2.2,5.6,2.1,9.6,3.4c-3.8-4.1-6-6.5-8.1-8.8C910.6,986,912.8,983.6,914.9,981.2z M966.8,974.8
			c-0.8-0.5-1.6-1-2.5-1.5c-2.9,8.6-5.9,17.3-8.8,25.9c0.8,0.4,1.5,0.8,2.3,1.2C960.8,991.8,963.7,983.3,966.8,974.8z M826.7,998.9
			c0.8,0.5,1.6,1,2.4,1.5c2.9-8.6,5.9-17.3,8.8-25.9c-0.8-0.4-1.5-0.8-2.3-1.3C832.8,981.8,829.8,990.4,826.7,998.9z M1015.5,980.8
			c0.1-0.5,0.1-1,0.2-1.5c-2.7,1.4-6.6,2-8,4.5c-1.3,2.4-1,7.8,0.4,10.2c1.3,2.1,5.2,1.9,7.9,2.7c-0.1-0.5-0.2-0.9-0.2-1.4
			c-2.2-2.1-4.5-4.3-6.6-6.4C1011.2,986.2,1013.4,983.5,1015.5,980.8z M1020.4,995.8c0.4,0,0.8-0.1,1.2-0.1c0-7.8,0-15.5,0-23.3
			c-0.4,0-0.8,0.1-1.2,0.1C1020.4,980.3,1020.4,988,1020.4,995.8z"/>
		<path class="st28" d="M1113.4,1017.5c0-24.2,0-47.7,0-71.8c36.3,0,72.2,0,108.7,0c0,23.6,0,47.4,0,71.8
			C1186.1,1017.5,1150.1,1017.5,1113.4,1017.5z"/>
		<path class="st22" d="M1413.1,503.8c1.8-4.6,2.9-8.8,5-12.3c1-1.7,4.1-3.5,5.3-2.8c1.5,0.9,2.8,4.2,2.9,6.6
			C1426.2,501.7,1421.6,504.9,1413.1,503.8z"/>
		<path class="st3" d="M1703.5,480.2c-24.6,5.7-49.2,11.3-74.1,17.1c1.4,2.1,2.8,4.1,4.2,6c-9.6-0.6-18.3-3-26.5-12.7
			c3.9-0.4,6.3-0.6,9-0.8c-1.8-7.1-3.6-13.8-5.4-20.4c0.5-0.4,1.1-0.8,1.6-1.3c3.6,4.4,7.5,8.5,10.8,13.1c4.9,6.8,10.6,9.1,17.6,7.1
			c9.2-2.7,18.3-5.7,27.4-8.7C1684.4,474.2,1692.3,473.8,1703.5,480.2z"/>
		<path class="st17" d="M1642.6,508c2.2,0,4.6-0.3,6.8,0.1c7.9,1.2,15.8,3.5,23.8,3.8c11.9,0.5,23.9-0.9,35.8-0.4
			c4.2,0.2,8.6,2.8,12.1,5.7c6.5,5.4,12.4,12,17.7,19.8c-2.8-1.9-6.1-3.3-8.5-5.8c-11.9-12.6-25.8-15.1-41.1-13.7
			c-11.8,1-23.9-0.2-35.8-1.1c-3.7-0.3-7.5-2.5-11.1-3.8C1642.4,511,1642.5,509.5,1642.6,508z"/>
		<path class="st2" d="M1722.3,500.5c8.7,0,18.2,2.5,26.1-0.7c7.7-3.2,13.8-12.3,21.4-19.6c-1.6,13.4-14.3,32-22.5,34.5
			C1739.8,516.9,1727.3,509.6,1722.3,500.5z"/>
		<path class="st3" d="M1811.4,371c-2.5,14.4-4.9,28.9-7.8,43.2c-0.5,2.3-3.5,3.7-5.5,5.5c-0.6-2.8-2.4-6.2-1.7-8.4
			c4.2-13.8,8.9-27.4,13.4-41.1C1810.4,370.5,1810.9,370.8,1811.4,371z"/>
		<path class="st19" d="M1631.8,270.4c-0.4-9.9-0.8-18.3-1.2-28.8C1637.9,251.4,1638.2,260.8,1631.8,270.4z"/>
		<path class="st17" d="M1612.7,241.1c1.9,9.8,3.7,18.7,5.9,29C1611,262.4,1608.4,248.8,1612.7,241.1z"/>
		<path class="st18" d="M1690.2,253.7c9.1-3.6,19.4-0.8,24.5-14.4C1716.1,251.7,1703.7,258.3,1690.2,253.7z"/>
		<path class="st19" d="M1561.3,310.4c4.2,3.8,7.3,6.7,10.5,9.7C1566.9,323.7,1563.3,320.7,1561.3,310.4z"/>
		<path class="st1" d="M1762.7,445.5c-0.1,0.2-0.1,0.4-0.2,0.6c-0.2-0.2-0.4-0.4-0.6-0.6c0.1-0.2,0.3-0.4,0.4-0.6
			C1762.4,445.2,1762.5,445.3,1762.7,445.5z"/>
		<path class="st18" d="M1775.4,221.4c-8.2,5.1-11.3,3.9-14-5.5C1766.9,218.1,1771.1,219.7,1775.4,221.4z"/>
		<path class="st17" d="M1724.3,288.9c7.6-0.9,11.4,1.6,14.7,10.6C1733.4,295.4,1729,292.3,1724.3,288.9z"/>
		<path class="st1" d="M1768.3,268.1c-0.2,0.4-0.4,0.7-0.5,1.1c0.2-0.3,0.4-0.6,0.7-0.9C1768.4,268.3,1768.3,268.1,1768.3,268.1z"/>
		<path class="st17" d="M1665.9,156.7c-6.1,0-12.2,0-18.7,0c1.9,3,3.5,5.6,5.8,9c-8.8-1.6-12.9-6.2-14.3-16.4
			c9.4,1.7,18.4,3.3,27.4,5C1666,155.1,1665.9,155.9,1665.9,156.7z"/>
		<path class="st17" d="M1651.8,224.7c-0.6-0.1-1.4,0-1.9-0.4c-5.8-4.9-11.5-9.9-17.1-14.6c5.9-2.6,12.1-0.2,17.2,5.7
			c1.6,1.8,1.2,6.2,1.7,9.4C1651.7,224.9,1651.8,224.7,1651.8,224.7z"/>
		<path class="st19" d="M1650.8,128.3c5.1,3.9,10.1,7.9,15.2,11.8c-0.5,1-1.1,2.1-1.6,3.1c-4.9-4.2-9.7-8.5-14.6-12.7
			C1650.2,129.8,1650.5,129.1,1650.8,128.3z"/>
		<path class="st19" d="M1777,319.8c6.3-0.2,12.9-0.5,16.1,8.9C1787.7,325.8,1782.4,322.8,1777,319.8z"/>
		<path class="st17" d="M1771.6,332.7c4.3,2.3,8.5,4.6,12.8,6.8C1778.4,342.4,1773.9,340.8,1771.6,332.7z"/>
		<path class="st21" d="M951.6,996.5c-0.5-4.3-1-8.6-1.5-12.9c-0.7-0.2-1.5-0.4-2.2-0.5c-0.9,4.5-1.9,9-2.8,13.4c-0.5,0-1,0-1.5,0.1
			c-0.5-4.3-1.1-8.6-1.6-12.9c-0.7-0.2-1.5-0.4-2.2-0.6c-0.9,4.4-1.8,8.9-2.7,13.3c-0.5,0-1-0.1-1.5-0.1c0-5,0-10,0-16.3
			c4.9,0,10-0.5,15.1,0.3c1.5,0.2,3.2,4,3.8,6.6c0.7,2.9,0.2,6.2,0.2,9.3C953.5,996.3,952.6,996.4,951.6,996.5z"/>
		<path class="st21" d="M866.6,981.7c6.6-3.7,3.8,4.6,6.3,7.2c1.2-2.9,2.5-5.8,4.4-10.2c1.6,3.7,2.7,6.2,4.1,9.2
			c1.3-3,2.3-5.5,3.4-8.1c0.7,0.4,1.3,0.7,2,1.1c-1.5,5.4-2.9,10.8-4.5,16.2c-0.6-0.1-1.3-0.3-1.9-0.4c-0.5-1.4-1.1-2.7-1.6-4.1
			c-0.4-1.2-0.8-2.4-1.5-4.3c-1.6,3.4-2.8,6-4.7,10C870.2,991.7,868.4,986.7,866.6,981.7L866.6,981.7z"/>
		<path class="st21" d="M769.1,975.7c3.7,6,5.4,6,8.7,0.5c1.2,1.9,2.4,4,3.8,6.3c-2.8,3.3-3.8,8.2,1.5,12.8
			c-5.5,1.6-5.4,1.6-6.3-7.2c-0.2-2-1.8-3.7-2.8-5.6c-1.2,1.5-3.4,3-3.5,4.6c-0.1,2.2,1.4,4.5,2.2,6.7c0.2,0.7,0.5,1.3,1.6,3.9
			c-3-1.5-5.9-2-6.1-3.1c-0.9-6-1.2-12.2-1.7-18.4C767.5,976,768.3,975.8,769.1,975.7z"/>
		<path class="st21" d="M983,981.1c3.6-1.1,7.3-2.3,10.7-3.4c0.6,0.8,2,2.7,3.3,4.6c-3.2,3.6-3.6,8.6,1.9,13.4
			c-4.8,2.1-6.7,0.5-6.7-4.8c0-3.7,0.9-8.8-3.8-8.3c-1.2,0.1-2.1,5.5-3,8.5c-0.5,1.7-0.6,3.5-2.5,5.3C983,991.4,983,986.4,983,981.1
			z"/>
		<path class="st21" d="M1039.4,988.5c-4.8,1-7.3,1.5-9.8,2c-0.1,0.6-0.2,1.2-0.3,1.7c2.2,0.7,4.6,1.3,6.8,2
			c-0.1,0.7-0.2,1.4-0.2,2.2c-2.9-0.5-6.8,0.2-8.4-1.8c-1.7-2-2.3-7.3-1.4-10.2c0.7-2.3,4.8-4.5,6.9-4
			C1035.1,980.8,1036.7,984.8,1039.4,988.5z"/>
		<path class="st21" d="M788.8,996.7c-0.6,3.1-1.1,5.4-1.5,7.6c-0.4,0-0.8,0-1.2-0.1c0-7.7,0-15.3,0-23.1c9.3-1.7,12.4-0.4,12.5,6.3
			C798.6,995.2,794.7,997.6,788.8,996.7z M792.3,981.1c-2,3.1-4.1,4.9-3.9,6.4c0.2,2.1,2,3.9,3.1,5.9c1.4-1.7,3.4-3.2,3.9-5.2
			C795.6,986.7,793.8,984.5,792.3,981.1z"/>
		<path class="st21" d="M977.4,997.8c-3.3-1.6-6.8-3.2-10.1-4.8c2.3-2.9,4.7-5.8,7.3-9c-1.2-0.1-3.3-0.3-5.4-0.4
			c-0.2-0.6-0.3-1.2-0.5-1.9c2.3-0.6,6.3-2.3,6.7-1.5c2.1,4.4,3.3,9.5,4.9,14.3C979.2,995.7,978.3,996.8,977.4,997.8z"/>
		<path class="st21" d="M866.5,981.6c-0.2,2.4-0.3,4.8-0.5,7.6c-2.9,0.4-5.5,0.7-8.1,1c-0.1,0.6-0.2,1.2-0.3,1.7
			c2.5,0.7,5,1.5,7.5,2.2c0,0.7,0,1.4-0.1,2.1c-3-0.4-7.1,0.6-8.9-1.5c-1.7-1.9-2.3-7.9-1-10.3c1.3-2.5,5.4-2.9,8.3-3.8
			C864.4,980.4,865.5,981.3,866.5,981.6L866.5,981.6z"/>
		<path class="st21" d="M752.3,995.9c0-7.8,0-15.6,0-23.3c0.4-0.1,0.8-0.2,1.2-0.3c0.5,2.7,0.9,5.3,1.4,8c8.8-0.8,10.4,2.2,6.8,15.9
			c-0.2-2.3-0.2-4.8-0.8-7c-0.6-2.1-1.8-3.9-2.7-5.8c-1.2,1.9-2.8,3.7-3.6,5.8c-0.7,2-0.5,4.4-0.7,6.7
			C753.3,995.9,752.8,995.9,752.3,995.9z"/>
		<path class="st21" d="M932.8,986.4c-1.4,7.7-3.8,10.6-8.4,10.4c-4.5-0.2-6.4-3.2-6.4-8.5c0-5.8,2.7-9.2,7.2-8.1
			C927.9,980.9,930.2,984.2,932.8,986.4z M930.7,988.7c-2.8-2.6-4.4-5-6-5.1c-1.3-0.1-3.8,2.8-3.7,4.1c0.2,2.1,1.9,5,3.4,5.5
			C925.8,993.5,927.7,991,930.7,988.7z"/>
		<path class="st21" d="M840,996c-0.2-4.9-0.4-9.7-0.5-14.6c12.3-2.4,14.2,0.2,10.1,14.8c-0.2-2.3-0.2-4.8-0.8-7
			c-0.5-2.1-1.8-3.8-2.7-5.7c-1.2,1.9-2.8,3.6-3.6,5.8c-0.7,2-0.5,4.5-0.6,6.8C841.2,996,840.6,996,840,996z"/>
		<path class="st21" d="M809,982.4c-1.4,0.5-2.8,1.1-3.8,1.4c1.3,3.5,2.6,7,3.9,10.4c-2.6,0.9-5.3,1.8-7.8,2.7
			c-0.2-0.8-0.3-1.7-0.5-2.5c1.8-0.6,3.6-1.2,4.7-1.6c-1.6-3.5-3.1-6.8-4.8-10.2c2.5-1.1,5.1-2.2,7.7-3.3
			C808.6,980.5,808.8,981.4,809,982.4z"/>
		<path class="st21" d="M888.7,994.3c1.5-0.6,3.1-1.2,3.9-1.5c-1.4-3.7-2.7-7-3.9-10.2c2.5-1,5.2-1.9,7.7-2.9
			c0.2,0.9,0.3,1.7,0.5,2.6c-1.7,0.6-3.4,1.2-4.5,1.5c1.6,3.4,3.1,6.8,4.8,10.2c-2.6,1.1-5.3,2.1-7.9,3.2
			C889,996.2,888.8,995.3,888.7,994.3z"/>
		<path class="st21" d="M827.3,974.6c-2.9,8.6-6,17.2-8.9,25.8c-0.9-0.5-1.8-0.9-2.7-1.4c3-8.5,6.2-17.1,9.2-25.6
			C825.7,973.8,826.5,974.2,827.3,974.6z"/>
		<path class="st21" d="M914.9,981.2c-2.2,2.4-4.4,4.8-6.6,7.1c2.1,2.3,4.4,4.7,8.1,8.8c-4.2-1.3-7.8-1.2-9.6-3.4
			c-1.4-1.7-1.7-7.5-0.5-9.3c1.9-2.8,5.6-3.7,8.6-5.4C914.9,979.8,914.9,980.5,914.9,981.2z"/>
		<path class="st21" d="M966.8,974.8c-3,8.5-6.1,17.1-9,25.6c-0.8-0.4-1.5-0.8-2.3-1.2c2.9-8.6,5.9-17.3,8.8-25.9
			C965.2,973.8,966,974.3,966.8,974.8z"/>
		<path class="st21" d="M826.7,998.9c3-8.6,6-17.1,9-25.7c0.8,0.4,1.5,0.8,2.3,1.3c-2.9,8.6-5.9,17.3-8.8,25.9
			C828.4,999.9,827.5,999.4,826.7,998.9z"/>
		<path class="st21" d="M1015.5,980.8c-2.1,2.7-4.3,5.4-6.4,8.2c2.2,2.1,4.5,4.3,6.6,6.4c0.1,0.5,0.2,0.9,0.2,1.4
			c-2.7-0.8-6.6-0.6-7.9-2.7c-1.4-2.4-1.7-7.8-0.4-10.2c1.4-2.6,5.2-3.1,8-4.5C1015.7,979.8,1015.6,980.3,1015.5,980.8z"/>
		<path class="st21" d="M1020.4,995.8c0-7.8,0-15.5,0-23.3c0.4,0,0.8-0.1,1.2-0.1c0,7.8,0,15.5,0,23.3
			C1021.2,995.7,1020.8,995.8,1020.4,995.8z"/>
		<path class="st26" d="M792.3,981.1c1.6,3.4,3.4,5.6,3.1,7.1c-0.4,2-2.5,3.5-3.9,5.2c-1.1-1.9-3-3.8-3.1-5.9
			C788.2,986,790.3,984.2,792.3,981.1z"/>
		<path class="st23" d="M930.7,988.7c-3,2.3-5,4.8-6.3,4.4c-1.5-0.4-3.2-3.4-3.4-5.5c-0.1-1.2,2.4-4.1,3.7-4.1
			C926.4,983.7,927.8,986.1,930.7,988.7z"/>
	</g>
</g>
</svg>
