<svg xmlns="http://www.w3.org/2000/svg" xml:space="preserve" id="Ebene_1" x="0" y="0" viewBox="0 0 1920 1080"><style>.st0{fill:#fefefe}.st1{fill:#5d5d5d}.st2{fill:#5c5c5c}.st3{fill:#5e5e5e}.st4{fill:#444344}.st5{fill:#424244}.st6{fill:#434243}.st7{fill:#454445}.st8{fill:#454547}.st9{fill:#454344}.st10{fill:#444343}.st11{fill:#454242}.st14{fill:#494849}.st16{fill:#222}.st17{fill:#666}.st18{fill:#606060}.st19{fill:#6d6d6d}.st21{fill:#b7b4b8}.st22{fill:#f3f3f3}.st23{fill:#fcfcfc}.st24{fill:#fdfdfd}.st25{fill:#fbfbfb}.st26{fill:#f8f8f8}</style><path d="M0 1080V0h1920v1080zm1466.4-540.1c-.5.1-1.1.2-1.6.3.5-.1 1.1-.2 1.6-.3l.2-.2zm122-441.7c1.8-2.1 3.7-4.1 6-6.6 0 0 1 .5 2.3 1.2v-7.1c-2.7.4-5.2.7-8.4 1.1V98c-.6.5-1.2.9-1.7 1.4.3.3.5.7.8 1 .2-.7.5-1.4 1-2.2m-1056.6 525c0-2.3.1-4.5.1-6.8.3-.1.5-.1.8-.2-.1 0-.2-.2-.3-.1-.2.1-.3.3-.4.4-7 1.3-14.1 2.6-21.4 3.9v8.9c5.3-2.8 9.8-5.6 14.6-7.7 1.2-.5 2.9 1 4.5 1.6-2.4 12.3-11.8 14.9-19.5 19.8 11.3 0 19.7-8 21.6-19.8M1381.4 105c1.8-4.4 3.5-8.8 5.4-13.2-.6-.7-2.1-1.9-3.2-3.4s-1.9-3.3-2.8-5.1c-2.1 2.4-4.1 4.5-5.9 6.6-2.8-.5-5.7-1.1-8.7-1.6 1.6 3.5 3.8 6.2 4.2 9.3.9 9.7 3.5 11.6 11 7.4m-134.3 340.9c2.7 2 5.5 3.9 9.3 6.7v40h20.4v-42.3h18.6c0 9.2-.5 18.1.1 26.8.7 9.7 5.7 16.2 13.2 17.4 5.4.8 10.9.2 16.3.2v-17.8c-10.4-.9-11.7-4.9-9.1-26.7 3-.2 6.1-.4 9.1-.7v-16c-3.4-.2-6.6-.5-10.2-.7v-19.5c-6.9 8.2-21.9-.5-20.1 19.6h-17.6c-.7-10.4.7-11.7 11.8-11.1 0-4.2.5-8.4-.2-12.4-.4-2.2-2.3-5.6-3.8-5.8-19.3-3-30.5 9.3-28.9 27.1.1.7-.4 1.5-.6 2.2-2.5.3-4.9.7-7.4 1-.3 4.3-.5 8.1-.8 11.9-.6-3.5-1.3-6.9-1.8-10.4-2.8-17.4-10.4-26.7-22.5-27.2-14.7-.6-24.4 7.7-27.1 25.6-1.7 11-1.9 22.7-.8 33.8 1.6 17.4 10.3 26.8 23 27.3 14.5.6 23.3-7.5 26.7-25.2 1.2-7.7 1.5-15.8 2.4-23.8m-974.3-93.7c1.7 1.9 3.4 3.8 6.7 7.4-2.8-7.2-5.4-11.9-6.6-17-.6-2.6.4-8.1 1.8-8.8 13.1-6.5 26.2-12.8 39.7-18.1 12.4-4.9 25.3-7.4 37.5-12.8 23.2-10.3 30.6-7.1 38.9 21.5 9.3 32.1 17.9 64.4 26.7 96.7 4.5 16.4 3.7 32.2-4.4 46.9-1 1.9-1.6 4.2-2.3 6.3.7.5 1.5 1 2.2 1.5 2.6-6 6.3-11.7 7.8-18.1 4.1-16.8 2-33.9-1.9-50.1-8.1-33.4-16.8-66.6-26.1-99.5-5-17.6-18.9-25-33.5-19.4-8.8 3.4-8.8 3.4-11.8-7.1-.3-1-.6-2.1-.9-3.1-6-19.3-14-36.9-29.3-47.3-16.2-11-32.9-10.3-49.2-.2-5.1 3.2-8.4 8.6-5.9 17.7 1.6-2.2 2.7-3.2 3.3-4.5 4.2-9.4 10.9-14.8 19.2-14.5s17.6 1.1 24.6 5.9c17 11.5 27.6 30.5 33.8 53 2.1 7.6-1.7 14.7-8.4 15.8-5.9 1-4.8-5.9-5.9-9.7-1.9-6.5-3.4-13.2-5.3-19.7-.4-1.5-1.4-2.7-2.1-4 .6 9.8 2.8 18.8 4.1 28 .4 2.9-1.4 8.4-3.1 9.1-10.5 4.2-21.3 8.1-32.2 10.7-14.2 3.3-14.1 2.7-17-14.5-2.3-13.5-5.2-26.8-7.8-40.3-.6.1-1.1.3-1.7.4 0 1.9-.3 3.8 0 5.6 2.5 13.8 5.1 27.6 7.7 41.3 1.2 6.3 2.6 12.2-3.8 16.1-1.9 1.2-3.8 5.6-3.6 8.3.4 8.1.9 16.6 3.2 24.1 2.4 7.9 7.2 14.6 10.7 22 4.1 8.5 2.5 15.5-5.2 18.5-21.4 8.4-31.1 3.9-37.7-18-4.8-16.1-8.2-32.8-11.8-49.4-3.1-14.2-5.6-28.6-8.4-42.9-1.2 4.4-1.2 8.6-.5 12.6 5.9 30.4 11.7 60.8 17.8 91.2 1.6 7.9 2.8 15.3-3.6 20.9-4.6-4-13.2.8-15.1 8.4-5.4-2.3-11.7-3-15.9-7.2-4.8-4.9-8.6-12.3-10.9-19.6-9.5-30.1-18.4-60.5-27.5-90.8-.4-1.2-1-2.3-1.5-3.5-.5.1-1.1.1-1.6.2 0 3.6-.7 7.6.1 10.9 2.9 11.6 6.3 23 9.7 34.4 7 22.7 14.7 45.1 21.1 68.1 3.1 11.2-.9 19-9.9 23.9-9.3 5.1-16.3 3.4-22-6.2-14.4-24.7-26.9-50.5-32.2-80.8-1.4.8-2.6 1.5-4.3 2.4.3-7.9.5-14.9.8-22.8-10.2 10.7-10.8 29.1-2 43.7 1.2-2.3 2.3-4.5 3.7-7.3.6 4.9 1.1 8.9 1.6 12.9-1.5-1.7-3-3.3-4.5-5-.9 2.5-1.8 4.9-2.7 7.4.7.8 1.5 1.6 2.2 2.4-.5-.9-1-1.8-2.3-4.3-.6 8.8-1.4 15.6-1.3 22.5.1 2.8 1.7 6.2 3.4 8.3 3.2 3.9 7.1 7.1 10.7 10.6.8-6.4-1-11.6-6.3-15.1-1.7-1.2-2.6-4-3.9-6.1.6-.7 1.3-1.5 1.9-2.2 8.4 2.1 13.2 10.1 17.5 18.3 3.8 7.1 7.2 14.8 10.9 22 4.4 8.3 10.8 11.8 18.6 10.2 13.1-2.7 23.3-9.7 25.1-28.6 7.9 8.9 16.6 12.6 26.5 12.3 5-.2 7.4 2.5 7.5 8.8.1 9.7.7 19.4 1.1 29.1.9 8.6 1.7 17.1 2.6 25.7.6-.1 1.2-.2 1.8-.4-.8-8.4-1.5-16.9-2.3-25.3-1.1-15.4 3.2-31.2-1.9-46.7 6.2-6.8 11.4-16.5 22.2-11.4 2.3 1.1 5.4-.1 8-.3 2.7-.2 5.6-.3 10.5-.6-4.7 6.3-7.9 10.7-11.1 15.1-13.4 18-20.8 38.9-18.8 63.6.6 7.8 2.6 15.3 4.1 23 .9-.1 1.8-.1 2.7-.2-8.9-50.7 11.4-84.9 41.4-112.8-6.2-4.5-1.8-8.7-1.6-10.6 18 2.3 35.4 4.5 52.4 6.7 1.1 8.8 3 18.2 3.4 27.8.5 11.1 6.5 16.7 12.8 22s12.7 11.2 22.1 9.7c-8.8-6.9-16.7-13-24.5-19.1.3-.8.7-1.6 1-2.4h6.3c-3.4-5.3-6.4-9.8-9.3-14.3 4.5 1.6 8.9 3.9 13.5 4.7 4.5.8 9.1.2 15 .2-10.1-3-18.5-5.6-26.8-8.1-.4.8-.9 2-1.5 3.3-2.2-6.8-4.6-13.6-7.2-21.5 16.6-1.8 29.1-8.9 39.6-20.6-.3-.7-.5-1.4-.8-2.1-11.4 5.9-23 11.9-34.4 17.8l-1.2-3.3c4.5-2.9 9.2-5.4 13.4-8.8 4.5-3.7 8.9-7.7 12.3-12.7 2.9-4.4 4.3-10.5 6.3-15.8-.6-.4-1.2-.8-1.7-1.1-2 3.4-4.1 6.7-6.6 10.9-.7-4.3-1.1-7.5-1.6-10.8-2.1 1.8-3 3.6-3.3 5.6-1.9 14.5-9.9 21.8-20.4 25.8-14.6 5.7-29.3 5.3-43.9.3-13.6-4.6-24-13.6-28.3-31.2.7-.7 1.2-1.3 1.6-1.9m1357.8 356c-2.7 15.4-5.5 30.8-8 46.2-.6 3.9-.7 7.9-1 11.9 1 .2 2 .3 3 .5 5.1-19 5.9-39 8.3-58.6 2.1-1 4.3-3.1 6.3-3 19.3 1.4 38.7 3.1 57.9 4.7 9.7.8 19.5 1.7 29.5 2.5-2.6 29-5.1 56.4-7.6 83.8.6.1 1.2.2 1.9.3.5-4 1-7.9 1.5-11.9 2.6-21.7 5.3-43.3 7.9-65 .7-5.5 1.8-10.4 8.9-10.2.3 6.5.9 13 .9 19.5.1 48.6-.1 97.1.1 145.7 0 9 1.5 18.1 2.3 27.1.6-.1 1.2-.1 1.8-.2.2-2.1.5-4.2.5-6.3.6-41.6 1.1-83.3 1.9-124.9.4-18.6 1.2-37.1 2.7-55.6.3-4.2 3.3-9.3 6.4-11.6 8.1-6.4 13.8-15.6 15.3-26.4 4.7-33 8.2-66.3 11.7-99.6.9-8.1-2.2-13.9-9.2-15.7-3.2-.9-6.4-2.4-9.6-3.8.1-1.9 0-3.3.2-4.6 3.6-21.7 8.9-42.2 23.9-57 12.4-12.3 19.2-29.1 22.7-48.1 2.9-16.5 6-33 8.9-49.5 5.5-30.6 7.7-62.2 19.2-90.7 6.1-15.1 1.4-26.9-6.2-38.5 1.5 6.7 2.9 13.3 4.6 20.6-5.3.6-4.8-4.5-6.3-6.3-5.9-6.8-3.3-12.5-.6-18.3 3.9-8.3 3.2-16-.7-23.5-6.6-12.7-16.4-19.2-28.3-19.6-7.4-.3-9.1-3.5-8.7-12 1-22.3-11.9-39.3-30.2-38.2-8.1.5-16.1 5-24.7 7.9 2.9-18.5-4.1-31.7-18.4-39-14.4-7.4-27.2-4.4-37.5 11.5-.7-1.8-1.2-2.5-1.3-3.2-2.3-24.3-20.6-42.5-40.5-40.5-6.6.7-11.9 3.9-16.3 10.3-16.1 23.6-27.5 50.4-32.4 80.4-5.4 33.2-15.2 62.9-34.8 87.4-8.9 11-12.2 25.4-9 40.8 2.2 11.2 4.9 22.6 8.8 33.1 14 37.4 24.2 76.3 32.5 116.1 3.6 17.6 5.1 35 .4 52.5-1.3 4.8-3.3 11.4-6.4 13-9 4.5-14.5 11.5-15.9 23.8-4.2-1.7-7.7-4.2-11.2-4.3-22.2-1.1-43.4 4-63.4 16.4-2.6 1.6-5.7 2.1-8.6 3-.3-3.5-1-7-.7-10.3 1-9.7.2-18.3-7-24.3-1.6-.9-3.2-1.9-4.9-2.8-.1.2-.2.4-.3.7 1.3 1.2 2.6 2.3 3.9 3.5 6.7 11.9 7.1 25.8-.5 33.2-5.1 5-6.2 9.9-5.2 15.3 11 7.8 21.4 15 32.8 23-.8-7-1.3-12.1-2-18.2 8.7 6.1 11.4 16.5 7.5 24.5-3 6.1-6.4 6.1-15.2-.5-7.6-5.7-15-11.8-22.5-17.7l-1.5 1.2c1.2 3.1 1.8 7.6 3.8 9.2 7.6 5.9 15.6 10.9 23.5 16.1 5.2 3.4 9.4 1.6 13.3-3.4 9.1-11.9 21.9-12.6 33.6-16.9 2.3 7.6-.8 10.1-5.1 11.8-9.1 3.7-18.3 7.3-27.4 10.9.1.7.3 1.4.4 2.1 8.1-2.1 16.2-4.5 24.3-6.2 2.7-.6 6.2-.4 8.6 1.2 3.8 2.6 6.8 7.2 10.5 9.8s5.3 5.1 4.1 10.4c-.8 3.6-1.4 8.3-.2 11.3 4.5 10.8 3.1 21.7 1.1 32.5-7.5 40-15.2 79.9-22.8 119.8-2.6 13.6-5.3 27.3-7.9 40.9q4.35-5.4 6-12c8.6-33.2 17.5-66.4 25.5-99.8 4.3-17.8 7.2-36.1 10.8-54.1.9-4.4 2.1-7.5 7-5.7 14.7 5.3 29.6 9.9 44.3 15.2 3.4 1 6 4.2 9 6.4m-1420-90.3c-.1-.7-.2-1.5-.4-2.2-1.4 0-2.8-.3-4.3 0-15 3.1-21.5-.8-26.5-18.4-3.3-11.7-5.4-24-7.4-36.2-2.2-13.4-3.7-27-5.6-40.5-.5.1-1.1.2-1.6.3 1.3 18.8 2.5 37.6 3.9 58.1-8.2-12.7-14.5-24.4-17.2-38.9-6.5-34.3-13.3-68.5-20.1-102.7-.6-3.1-1.9-6-2.9-8.9-.5.2-1.1.5-1.6.7 5 33.3 10 66.5 14.9 99.8 2.9 20.6 10.4 37.6 22.4 52.8 8.6 11 14.9 25 21.6 38.1 4.2 8.3 1.3 18.8-5.3 19.4-9 .8-10.4 7.3-9.7 15.8 2.6 32.8 5 65.7 8.6 98.4 2 18.1 10.5 31.5 26 35 8.3 1.9 12.3 8.1 13.7 17 2.3 14.4 4.9 28.9 5.6 43.5 2.8 56.9 8.2 113.3 18 169 1 5.7 2 11.4 3.5 19.3 4.8-7.8 3-14.1 2.3-20-3.7-32.4-8.4-64.6-11.4-97.1-3.4-36.1-5.5-72.3-8.5-108.5-1.4-17.1-1.2-17.9 13-17.9 30.5 0 60.9-1 90.8-8.6 5.5-1.4 7.9 1.2 9.9 7.5 8.4 25.7 17.3 51.1 26 76.6.8 2.5 2 4.7 3.1 7.1.3-.2.5-.4.8-.7-9-30.8-18.1-61.6-27.2-92.9 11.5-4.6 21.4-8.8 31.3-12.2 1.3-.5 4.4 2.2 5.1 4.2 12.1 35.5 22.9 71.7 36.2 106.5 11.4 30 25.6 58.5 38.7 87.6 1.4 3.2 3.9 5.7 5.9 8.5l1.7-1.7c-3.9-9.6-7.7-19.2-11.8-28.7-23.5-53.8-44.3-109.1-59.3-167.4-4.8-18.6-2.3-23.8 11.3-33.7 6-4.3 11.5-10.6 15.7-17.5 7.3-12 14.3-24.5 19.5-37.9 5.4-13.6 14.3-20.9 24.6-26.8 5.1-2.9 10.2-5.8 15.6-7.9 9.3-3.6 18.8-6.6 28.2-9.9-.1-.5-.1-1-.2-1.5-7.5.9-15 1.9-22.6 2.9-.1-2.7-.3-5.2-.4-7.9-22.6 18.5-44.6 36.6-66.8 54.8-1.2-6.2-1.8-11.1-3-15.8-2-7.9-.1-16 5.7-20.2 1.8-1.3 4.6-.6 6.8-.8-.4 2.5-.4 5.1-1.2 7.4-1.3 3.8-3.1 7.4-4.7 11 .7.8 1.5 1.6 2.2 2.4 19.8-17.8 39.8-35.7 59.6-53.5-.5-1.3-1.1-2.6-1.6-3.9-2.4 1-5.1 1.5-7.3 3.1-2.3 1.7-3.8 4.9-6.2 6.4-2.4 1.6-5.4 1.9-8 2.7 1.2-3.5 1.7-8.6 3.8-10 5.3-3.5 11.2-5.2 16.8-7.7 1.4-.6 2.6-1.9 3.8-2.9-1.4-.7-3-2.4-4.3-2-3.9 1.1-7.8 2.6-11.5 4.5-3.4 1.7-6.8 4-10.1 6-.5-.7-1-1.4-1.5-2.2 1.9-2.3 3.5-5.6 5.9-6.6 5.7-2.6 11.6-4.1 17.5-6.3 1.6-.6 3-2.3 4.5-3.6-.3-.8-.6-1.7-.9-2.5-4.7 1.4-9.4 2.6-14.1 4.3-17.6 6.7-19.2 10.8-13.2 31.9.5 1.9-.7 4.7-1.2 7-2.1-.6-5.2-.4-6.4-2-8.5-11.9-4.1-37.6 7.8-43.7 7.4-3.9 15.4-5.9 23.2-8.8 1.6-.6 3.1-1.7 4.8-2.5-.2-.8-.5-1.7-.7-2.5-8 2.4-16.1 4.3-23.9 7.2-16.8 6.1-20.5 13.3-18.7 34.6 1.1 13.4-.6 15.5-10.8 11.3-8.9-3.6-16.6-1.4-23 6.5-4.6 5.7-8.3 12.4-12.4 18.6-1.2 1.9-2.6 3.7-4.6 6.6-1.3-9.2-2-16.7-3.5-23.8-2.8-12.5-9.6-19.8-18-18.8-7.5.9-10.4-3.6-10.3-11.1.2-12.9.4-26.1 2.3-38.8 5-33.3 20.1-60.1 37.6-85.2 2.4-3.5 4.7-7.2 7-10.9-.5-.6-1.1-1.1-1.6-1.7-1.8 1.9-3.9 3.5-5.5 5.8-9.3 14.2-18.4 28.7-27.7 42.9-15.8 24.3-21.5 52-18.7 82.6 1.3 14.8 2.1 29.7 3.2 45.7-11.4 3-22.8 6-36.1 9.4-.6-15.2-1.1-28.8-1.7-42.2-6.2 1.4-8.3 4.4-7.4 13.5.6 6.6 1.6 13.2 3 19.6 1.7 7.9-1.2 10.8-7 11.5-17 2-34.1 4.2-51.1 5.9-11.7 1.2-16.3-2.4-21.1-15.6-2.8-8-5.6-16.1-8.4-24.1-.6.3-1.1.5-1.7.8 3.4 12.4 6.9 24.9 10.6 38.6-10.2-1.3-19.7-2.5-29.4-4-1-.1-2.3-1.8-2.5-3.1-3-13.7-6-27.5-8.9-41.3 5-2 10.9-4 16.7-6m383.3-64.7c1.1 3.6 2 6.4 2.9 9.2l15.9 47.7c2.6 7.9-1.1 14.7-8 14.7-2.4 0-4.8-.7-7.3-1.1V641c18.7 6 29.2-.5 35.7-22.5 4.9-16.1 9.2-32.5 13.9-48.7.7-2.3 1.6-4.6 2.4-6.9.5.1.9.3 1.4.4 3.6 16.5 7.2 33 10.7 49.3h21.2c1.9-10.8 3.8-21.1 5.8-31.4.4.1.9.2 1.3.3 1.7 10.4 3.4 20.9 5.3 31.4h21.2c4.5-19.7 8.9-39.4 13.5-59.3h-18.2c-1.3 11.2-2.5 21.9-3.7 32.7-.6 0-1.1 0-1.7.1-1.7-10.9-3.5-21.8-5.3-32.9h-19.3c-2.1 11.6-4.3 23.1-6.4 34.6-.5-.2-1.1-.3-1.6-.5-1.4-11.4-2.8-22.8-4.3-34.4-11 0-21.4.3-31.7-.1-4.6-.2-6.2 1.7-7.1 7.1-1.4 9-3.6 17.7-5.5 26.6-.6-.1-1.2-.2-1.8-.2-1.9-9.3-3.6-18.7-6-27.8-.6-2.3-3.2-5-5.1-5.2-5.6-.8-11.5-.4-18.2-.4m327.4 120v-18.4c-7.2 2.5-13.6 4.7-19.7 6.9-.2 4.3-.4 7.7-.5 11.1h-17.9c.1-10.5 1.3-11.6 12.2-10.9 0-4.4.3-8.9-.1-13.2-.2-1.9-1.9-4.7-3.1-5-17.7-3.1-31 7.3-29.5 27 .1.7-.4 1.4-.6 2.2-2.5.3-4.9.6-7.1.9v15.8c2.8.4 5.2.7 8 1v42.3h20.4v-42.6h18.4v12.8c0 4.4-.1 8.9.3 13.3.7 10 5.5 16.9 13.4 18.2 5.4.8 10.8.2 16.2.2V717c-9.2-.7-9.5-1.2-9.6-11.7v-14.9c3.7-.3 6.8-.6 9.5-.8v-16.4zm37.4-180.3c0-11.5-.1-22 0-32.5 0-4.9.6-10.2 5.8-10.3 5.6-.1 5.3 5.6 5.3 10.3.1 10.7 0 21.5 0 32.4h20.1c0-14.8.6-29.3-.2-43.6-.8-14.2-10.6-21.3-21.5-16.3-3.8 1.8-7.1 5.2-10.8 8.1-3.1-6.3-8-10.7-14.4-9.2-5.5 1.3-10.5 4.8-15.5 7.3-.1-1.1-.5-3.4-.8-5.6h-19.6v59.3h20.2v-8.6c0-8.9-.4-17.8.4-26.6.2-2.8 3.6-5.1 5.6-7.6 1.7 2.5 3.8 4.7 4.9 7.6.8 2.4.2 5.5.2 8.2V493c7.1-.1 13.3-.1 20.3-.1m255.3 60.7h-20.5c4.4 20.2 8.6 39.9 12.8 59.3h21.2c1.8-10.1 3.6-19.9 5.5-29.6h1.8c1.7 9.8 3.3 19.6 5.2 30 6.1 0 11.9.3 17.7-.2 1.5-.1 3.7-2.1 4.2-3.8 4.4-18.3 8.5-36.8 12.8-55.7h-18.2c-1.3 11.8-2.6 23.5-3.9 35.3h-1.1c-1.9-11.8-3.8-23.6-5.7-35.2h-19.3c-2.2 11.7-4.3 23-6.4 34.2-.5-.1-1.1-.1-1.6-.2-1.7-11.1-3.1-22.3-4.5-34.1m-357.1-87.2c-.6-.1-1.2-.1-1.8-.2-1.7-10.8-3.4-21.6-5.2-32.5h-19.4c-2.2 11.8-4.3 23-6.4 34.3-.5-.1-1.1-.2-1.6-.3-1.4-11.3-2.7-22.7-4.2-34.2h-20.4c4.4 20.2 8.6 39.9 12.8 59.1H832c2-10.8 3.8-21.1 5.8-31.3.4.1.9.2 1.3.3 1.7 10.4 3.4 20.9 5.2 31.2h21.3c4.5-19.7 8.9-39.4 13.5-59.3h-18.2c-1.5 11.3-2.8 22.1-4 32.9m275.6 207.2c-6.6-.4-12.7-2.3-18.2-.8-11.2 3.1-16.7 16.3-16.5 34.1.4 24 18 36.3 32.8 22.7 7.1 7.2 14.8 2 22.2 3.9v-88.2h-20.3zm-59.9 2.1c-4.4-1.6-7.9-3.6-11.5-4-10.9-1.1-19.8 8.1-22.5 22.3-3.3 18.3 1.2 34.8 12.1 38.9 4.9 1.8 10.7-.1 16.1-.9 1.8-.3 3.3-2.3 3.6-2.5 7.7 6.7 15.1 2.3 22.5 4v-88.3h-20.2c-.1 10.4-.1 20.3-.1 30.5m-564.9-67.2c17 15.3 31.5-.4 33.6-16.8.8-5.9.7-12.2.3-18.2-.7-9-3.7-16.7-11-20.2-7.5-3.6-14.6-2.3-20.7 4.7-.4.5-1.1.7-1.8 1.1-.3-2-.6-3.8-.8-5.3h-19.4V641h19.8zm573.4-83.3v87.5h19.9v-32.2c0-4.9.3-10.3 5.6-10.3 5.5 0 5.3 5.6 5.3 10.4v32.3h19c0-15.6 1.1-31-.3-45.9-1.4-14.7-14.3-20.1-24.4-11.7-1.5 1.3-3 2.7-5.5 4.8v-34.7c-6.7-.2-12.9-.2-19.6-.2m-375.6-32.3v-11.1c0-8.1-.5-16.2.3-24.1.3-2.8 3.5-5.1 5.5-7.7 1.7 2.5 3.8 4.8 4.9 7.6.8 2.4.2 5.5.2 8.2v26.8h19.8v-38.8c0-2.2-.4-4.4-.8-6.6-2.6-14.6-14.3-20.5-24.5-12.3-1.6 1.3-3.1 2.8-5.7 5.1v-34.5h-19.8v87.4zm-74-23.4c0 5.9-.2 11.1.1 16.4.1 2 1.3 5.1 2.5 5.6 12.4 5 24.8 6 36.7-1.8 13.1-8.7 14-30 1.9-40.8-4.5-4-10-6.1-14.8-9.7-2.1-1.7-3.3-5.1-5-7.8 2.4-1.6 5-4.7 7.2-4.5 5.7.6 11.1 2.9 17.2 4.6 0-5.1.2-10.5-.1-16-.1-1.7-1.4-4.4-2.5-4.7-11.3-3.4-22.7-4.9-33.4 2.4-13.8 9.4-14.5 31.9-1.4 42.6 3.5 2.9 7.9 4.1 11.3 7 2.6 2.2 4.4 6 6.5 9.1-3.3 1.5-6.8 4.7-9.8 4.2-5.4-.9-10.5-4.1-16.4-6.6M1300.1 641c18.6 6.1 29-.1 35.6-21.6 3.3-10.6 6.2-21.4 9.2-32.1 3.1-11.1 6.3-22.2 9.5-33.6h-19.6c-2.4 11.3-4.7 22.2-7 33.1l-1.8-.3c-.8-3.7-1.5-7.4-2.3-11-4.9-23.6-4.9-23.6-25-22.1-.4 0-.8.4-1.5.7.4 1.5.7 3.1 1.2 4.6 5.6 16.9 11.2 33.8 16.8 50.8 3 9.2-1 16.1-9.1 15.4-1.9-.2-3.8-.8-6.1-1.2.1 5.8.1 11.3.1 17.3m-495.5 32.9c3.9-1.9 7.2-3.9 10.6-4.9 4.4-1.2 9.4-2.4 12.1 3.6s-.4 10.6-3.9 14.4c-4.9 5.3-10.2 10.1-14.9 15.6-7.1 8.3-8.4 18.9-7.3 30.1h47.4v-19.8h-25.1c2.2-4.4 5.2-7 8-9.8 4.1-3.9 8.6-7.3 11.9-12 10.9-15.6 4.5-38.7-11.8-42.3-9-2-18.7-1.3-25.7 5.8-2.9 2.7-1 12.3-1.3 19.3m641.5-120.4v9.1c0 8.6.5 17.3-.3 25.7-.3 3-3.7 5.5-5.8 8.2-1.6-2.8-3.7-5.4-4.8-8.5-.8-2.4-.2-5.5-.2-8.2v-26.3h-20.1c0 14.9-.7 29.6.2 44.1.9 14 10.8 20.8 21.8 16.2 2.9-1.2 5.6-3.3 6.9-4.1 7.7 6.7 15.2 2.2 22.3 3.7v-59.8c-6.8-.1-12.9-.1-20-.1m-677.5-58.6c16.7 0 26.5-10 28.5-28.8 1.6-16.8-6.5-30-21-34-20.3-5.6-36.5 9.8-35.3 33.6.7 18.3 11.2 29.2 27.8 29.2m395.7 120c13.1 0 22.2-6.6 26.1-18.7 4.2-12.7 2.1-27-5.1-35.5-8.2-9.7-23.7-12.3-35.4-5.8-9.4 5.2-14.3 15.5-14 29.5.5 19.2 11 30.6 28.4 30.5m217.5 0c16.8 0 26.6-10 28.3-29 1.5-17.1-6.6-30.7-21.2-33.7-19.6-4.1-37 8-34.9 35.1 1.2 17.3 11.6 27.6 27.8 27.6M707 732.9h17.6c0-14.5.5-28.6-.2-42.6-.5-9.5-5.5-16.6-13.4-17.1-8.8-.6-17.7.9-26.5 2-1.1.1-2.7 2.8-2.9 4.5-.4 4-.1 8.1-.1 12.4 19.7-7.5 21.5-7.4 24.5.6-6.6 1.7-13.3 2.9-19.6 5.4-6.8 2.7-9.6 9.7-9.5 18.3.1 7.4 2.1 13.8 8 16.9 6.3 3.4 12.4 2.4 17.6-3.3 1.1-1.2 1.7-3.1 2.5-4.7.4.4.9.7 1.3 1.1.3 2 .5 4.1.7 6.5m412.5-240c0-13.2.4-25.4-.1-37.5-.6-14.8-6.9-22.6-18.5-23.6-4.5-.4-9 0-13.5 1-12.6 2.8-12.6 3-11.5 18.4 0 .2.2.4.3.6 20.3-7 20.8-7 24.1.7-6.7 1.9-13.7 3.1-20.2 5.8s-9 9.6-9 17.8c0 7.4 2 13.8 7.9 17 6.3 3.4 12.4 2.5 17.6-3.1 1.1-1.2 1.8-3 3.6-6.2.5 4.7.7 6.9.9 9.1zm-570.3 79.3c8.5-2.7 16.6-10.5 26.3.3-7.1 1.6-12.7 2.4-17.9 4-8.4 2.6-12.5 8.3-13.2 17.5-.6 9.1 2.3 16.2 8 19.4 6.8 3.8 13.3 1.9 19.5-5.8.4-.5 1-.9 1.7-1.5.3 2.6.6 4.9.9 6.8h18c0-13.4.6-26.5-.2-39.4-.8-13.5-7-20.4-17.9-21.6-4.5-.5-9.1-.3-13.5.8-14.6 3.4-12 1.5-11.7 19.5M1016 692.1c-8.3 2.2-14.9 3.3-21.2 5.7-6.9 2.6-9.9 9.4-10 17.9-.1 7.3 1.8 13.9 7.5 17.3 6.2 3.6 12.3 2.8 17.7-2.5 1.2-1.1 2.2-2.5 3.6-4.1.6 2.6 1 4.7 1.4 6.4h18c0-12.7.3-24.9-.1-37-.4-14.8-6.9-23.1-18.8-24-4.5-.3-9 0-13.4 1.1-13.3 3.4-11.2-.1-11.1 17.9 0 .5.4.9.6 1.5 8-3.2 15.9-10.2 25.8-.2M759.5 572.8c-2.6.7-5.2 1.4-7.8 2s-5.4.8-7.9 1.6c-8.8 2.8-13 8.2-13.5 17.9-.4 8 1.4 14.9 7.7 18.8 6.4 4 13.4 2 19.6-5.2.4-.5 1-.8 1.9-1.4.3 2.4.5 4.4.7 6.1h18.4c0-12.8.3-25-.1-37.2-.4-14.2-6.4-22.1-17.7-23.5-4.7-.6-9.5-.3-14.1.9-14 3.5-11.6.5-11.5 18.3 0 .4.5.9.6 1.2 7.9-3.2 15.6-10.2 23.7.5M1207.8 710c.5-13.3.4-25.4-9.1-33.5-8.2-6.9-21.4-6.6-30.1.7-8.4 7-12.4 20.8-9.9 34.8 2.1 12.5 8.7 20.2 19.9 22.5 3.7.8 7.7.6 11.4.4 12.5-.7 14.1-3.1 12.8-18.4 0-.2-.2-.4-.5-.9-8.4 2-17.3 6.5-25.5-5.6zm-192.4-237.6c.1-.9.2-1.8.4-2.7h28.7c1.5-15.5-1.2-26.1-7.8-32.4-8.1-7.6-21.3-7.9-30.5-.7-8.7 6.8-13 20.7-10.7 35.2 1.8 12.2 9.4 20.7 20.7 22.7 3.3.6 6.8.4 10.1.3 13.6-.5 14.7-2.2 13.4-19.4-8.6 2.1-17.4 6.8-24.3-3M790.6 732.9v-84c-13.8-4.2-22.7 10.7-34.6 11.2v18.6c5-1.4 9.5-2.7 14.6-4.2v58.3c7 .1 13.4.1 20 .1M1150 419.8v18.8c5.1-1.3 9.6-2.6 15-4v58.3h19.6V409c-13.6-4.9-22.4 10.9-34.6 10.8m73.9 524.2H727.7v75.5h496.2zM813.5 525.1v87.6h19.6v-87.6zm222.1 70.7c0 4.7-.2 8.8.1 12.9.1 1.5 1.2 4 2.2 4.2 9.7 2.5 19.6 4 29-1.9 6-3.7 8.7-9.9 8.6-18.3-.1-8.1-3.7-12.7-9.3-15.7-2-1.1-4.5-1.4-6.3-2.8-1.7-1.2-2.8-3.5-4.3-5.3 2-.8 4.1-2.4 6-2.2 3.4.3 6.8 1.6 10.3 2.5v-15.5c-9.3-3-18.3-3.9-27.1 1-6.2 3.4-9.3 9.3-9.2 17.7 0 7.9 3.3 12.9 9.1 15.8 2.2 1.2 4.8 1.9 6.9 3.3 1.7 1.2 3.1 3.3 4.7 4.9-2 1.1-4.3 3.3-6.2 3.1-4.7-.4-9.2-2.2-14.5-3.7m-119.5 17.1v-82.4H896v82.4zm-110.6.1v-87.6H786V613zm170.5 0v-87.6h-19.5V613zm8.4-87.8v87.6h19.6v-87.6zM979.9 733v-87.6h-19.5V733zm254.4-56c-6.5-7.5-14.4-2.1-21.5-3.7v60h20.1v-22.7c0-16.8 2.5-19.7 16.2-18.3V670c-5.6 2.6-10.2 4.8-14.8 7M968 89.6h7.8c2.1-3.4 6-7.1 7.5-6 4.9 3.5 2.1 8.7-.4 12.6-3.6 5.6-8.1 10.5-11.7 16.1-1.5 2.3-2 5.7-3.2 9.4h26.6c.5-1.9 1-3.7 1.4-5.2 1.6 2 2.9 3.7 4.3 5.4.6-2.3 1.5-4.5 1.9-6.8.7-4.8-2-11 4.7-13.5-2-2-3.3-3.4-5.5-5.4 1.8-1.3 3.1-1.9 4.2-3.1.7-.8 1.1-2.2 1.1-3.3 0-.5-1.5-1.6-2-1.3-2 .8-4.9 1.4-5.8 3.2-1.7 3.3-3 7.5-3 11.3-.1 3.7 1.6 7.4 2.5 11.4h-18.1c4.5-6.6 8.5-11.7 11.7-17.5 4.5-7.9 2.9-16.9-2.9-20.8-9.5-6.1-19-.2-21.1 13.5m7.9-36.1c-8.6-3.2-13 .3-16.4 9.5-6.9 18-14.9 35.4-22.4 53-.8 1.8-1.2 3.8-1.8 5.7.3.7.7 1.4 1 2.1 4.1-1.7 10.2-2 11.8-5.4 9.8-21.1 18.6-43 27.8-64.9M219.8 599.6c3 .6 6.1 1.3 9.1 1.8 18.3 3.2 36.6 6.2 54.9 9.7 12.3 2.3 24.3 2.3 36.1-3 3.6-1.7 7-4.4 10.5-6.6-37.4 4.3-73.9-3.5-110.6-1.9m641.3-2.6h-18.4c-1.6 9.9-3.1 19.3-4.7 29.2h16.5c2.1-9.9 4.3-19.4 6.6-29.2M206.3 274.7c.5-.8 1.1-1.5 1.6-2.3-3.9-3.5-7.6-8.4-12.1-10.2-12.7-5.1-34.1 8.5-38.9 23.8-.7 2.5.1 5.7.3 8.6 7.3-18.7 28.4-27.5 49.1-19.9m4.8 1c8-25.9 24.6-32 45.6-29.7-8.8-9.6-25.1-9.1-36.5-.4-8.6 6.5-12.5 17.9-9.1 30.1m1250.5 263c.2-.8.4-1.6.5-2.5-13.4-5.1-26.7-10.3-40.2-15.1-1.1-.4-3.4 1.3-3.9 2.8-2.9 8.1.3 15.5 7.4 18.1 2.8 1 5.4 3.1 8.2 3.9 7 2 14 3.6 21.1 5.4.2-.9.3-1.9.5-2.8-6-1.8-11.9-3.8-18-5.4-7.1-1.9-14.5-3-13.4-16.2 12.6 4 25.2 7.9 37.8 11.8M1263.4 735c6.9-.1 11.2-5 10.9-12.2-.2-7-4.9-11.4-11.8-11.2-6.5.2-10.9 5-10.8 11.7.1 6.9 5 11.8 11.7 11.7M242.3 574.8c.5.1 1.1.2 1.6.2.8-3.4 2.6-7 2.2-10.2-1-8.1-2.1-16.5-4.7-24-6-17.9-14.3-34.2-24.6-49 9.6 27.3 26.5 50.9 25.5 83m689.8-46.3c-1.9 8.4-3.7 16.2-6.1 26.2 5.4-1.7 10.8-1.3 13.2-4.5 4.4-6 6.8-14 10.3-21.7zm20.7-406.8H963c4.9-9.6 9.1-18.1 13.5-26.8-8.4-3-13.6-.7-16.4 9-1.7 5.9-4.6 11.2-7.3 17.8m467.3 387.4c.9-.7 3.1-1.8 4.4-3.7 2.3-3.7 4.2-7.8 6.1-11.9 2.3-5 3.3-9.5-2-13.1-5-3.4-8.6-2-11.4 3.5-2 3.9-3.9 8-5.4 12.4-2.8 8.4-.3 12.8 8.3 12.8M320 584.6c-22.1.3-38.3-13.8-53.4-33.8 3.5 20.1 35.7 39.9 53.4 33.8M993.5 52.8c-12.7-1.2-12.8-1.2-18.3 17.6 11.5 3.2 15.7-5.5 18.3-17.6M153.9 298.9c-9.1-2.3-25.8 13.4-29.7 30.1 10-10 19.9-20.1 29.7-30.1M296.4 358c14.3-2.1 23.5-8.9 25-17.9 1.3-7.6-1.3-16.4-6.2-19.6.7 8 6.8 16.4-.1 23.2-5.1 5.4-11.5 9-18.7 14.3m723-237.3c-5.1-6.9-6.8-13.3-.8-19.8-1.2-1.4-2.3-2.6-3.3-3.8-1.3-1.6-2.6-3.2-3.8-4.8-1.3 3.4-3.3 6.7-3.5 10.2-.2 3.4 2 7 2.2 10.6.1 6.7 2.4 9.7 9.2 7.6m391.6-17.6V84.6h-.9c-.2 3.2-.4 6.3-.6 10.6-3.1-4.7-5.7-8.6-9.3-14.1v20.2c.3 0 .7.1 1 .1.5-3.4 1-6.8 1.7-11.6 2.9 4.6 4.9 8 8.1 13.3M302.8 241.6c-.6.2-1.3.4-1.9.6.3 5.8.5 11.7.8 17.5.6.1 1.2.1 1.7.2 1.3-2.3 2.5-4.7 3.8-7.1 3.6 2.6 6.9 4.9 10 7.2.4-.7.7-1.3 1.1-2-5.1-5.5-10.4-10.9-15.5-16.4m-164.9 90.9c-12.1 4.8-13.6 19.4-3.5 33.8-5.4-12.4-4.4-23.6 3.5-33.8m116.5-48.4c5.9-3.2 7.1-18.5 1.2-30-.4 10.6-.7 20.2-1.2 30m-101 209.3c.7-.4 1.3-.8 2-1.1-1.6-10.8-4.5-20.9-10.3-29.3-.7.4-1.3.8-2 1.1 3.5 9.8 6.9 19.5 10.3 29.3M1456.1 83.1c-.7 0-1.3 0-2 .1-1.7 5.3-3.4 10.7-4.6 14.1 4.3.7 8 1.4 11.8 2-1.5-4.5-3.3-10.4-5.2-16.2M176.5 324.5c9 2.9 19.1-2.7 22.2-11.4-7.3 3.8-14.1 7.2-22.2 11.4M160 378c-6.6 1-13.4 1.9-20.2 2.9 5.9 7.2 14.6 5.8 20.2-2.9m83.9-93.8c-3.6 1.7-7.1 3.2-11 5 4.6 4.5 7.8 9.9 13.1 4.1-.6-2.7-1.2-5.5-2.1-9.1m1287.9-183.3c-2.3-1.5-4.3-2.8-6.2-4 .2-.5.4-1.1.6-1.6 2.1-.2 4.4-.4 6.5-.6l.9-2.4c-2-1.4-5-4.5-5.9-3.8-2 1.6-4.2 5.3-4.1 7.8.6 5.9 4.3 6.1 8.2 4.6M253.6 398.7c10.4 2.8 16.9.9 19.7-6-6.5 2-12.3 3.8-19.7 6m-9.1-133.1-.6-2.4c-5.7-.1-11.4-.3-14.8 8.4 5.1-2 10.3-4 15.4-6M1463.3 88.1c-.5.3-.9.5-1.4.8 1.4 4.3 2.8 8.5 5 15 2.2-6.4 3.7-10.6 5.2-14.8-.5-.3-1-.6-1.6-.9-1.1 2.7-2.2 5.4-3.5 8.6-1.5-3.3-2.6-6-3.7-8.7M222.8 403.6c-5.5-3.4-12.2.6-16.5 10.4 5.9-3.8 11-7 16.5-10.4M166 306.5c-1 .4-1.9.9-2.9 1.3 2.3 6 4.6 12.1 6.9 18.1.8-.4 1.5-.9 2.3-1.3-2.2-6-4.3-12.1-6.3-18.1m127.3-45.6c-.2-1.3-.4-2.5-.7-3.8-4.8 1.6-9.5 3.2-14.3 4.8.2 1 .4 1.9.6 2.9q7.05-1.8 14.4-3.9m-60.4 163.3c-.6.7-1.2 1.5-1.8 2.2 3.8 5.1 7.8 10.2 11.6 15.4.6-.7 1.2-1.5 1.9-2.2-3.9-5.1-7.7-10.3-11.7-15.4M1581.2 84.8c-.4-.5-.8-1.1-1.2-1.6-1.3 3.4-3.4 6.9-3.5 10.3 0 2.5 2.8 5.1 4.8 8.2-.1-6.9-.1-11.9-.1-16.9" class="st0"/><path d="M1476.1 546.3c7.2 6 8 14.6 7 24.3-.3 3.4.4 6.9.7 10.3 2.8-1 6-1.4 8.6-3 19.9-12.4 41.2-17.5 63.4-16.4 3.5.2 7.1 2.7 11.2 4.3 1.5-12.3 6.9-19.3 15.9-23.8 3.1-1.5 5.2-8.2 6.4-13 4.7-17.4 3.3-34.9-.4-52.5-8.3-39.8-18.5-78.7-32.5-116.1-3.9-10.5-6.5-21.8-8.8-33.1-3.1-15.4.1-29.8 9-40.8 19.7-24.5 29.5-54.2 34.8-87.4 4.9-30.1 16.3-56.8 32.4-80.4 4.4-6.4 9.8-9.6 16.3-10.3 19.9-2.1 38.1 16.2 40.5 40.5.1.7.5 1.4 1.3 3.2 10.2-15.9 23.1-18.9 37.5-11.5s21.4 20.6 18.4 39c8.6-2.9 16.6-7.4 24.7-7.9 18.2-1.1 31.2 15.9 30.2 38.2-.4 8.5 1.3 11.7 8.7 12 11.8.4 21.8 6.9 28.3 19.6 3.8 7.5 4.6 15.2.7 23.5-2.7 5.8-5.3 11.5.6 18.3 1.5 1.8 1 6.9 6.3 6.3-1.6-7.3-3.1-14-4.6-20.6 7.6 11.6 12.3 23.4 6.2 38.5-11.5 28.5-13.8 60.1-19.2 90.7-2.9 16.5-6 33-8.9 49.5-3.4 19-10.3 35.8-22.7 48.1-15 14.8-20.3 35.3-23.9 57-.2 1.3-.1 2.7-.2 4.6 3.3 1.3 6.4 2.9 9.6 3.8 7 1.9 10.1 7.7 9.2 15.7-3.6 33.3-7.1 66.5-11.7 99.6-1.5 10.8-7.1 20-15.3 26.4-2.9 2.4-6 7.4-6.4 11.6-1.4 18.5-2.3 37-2.7 55.6-.9 41.6-1.3 83.3-1.9 124.9 0 2.1-.4 4.2-.5 6.3-.6.1-1.2.1-1.8.2-.8-9-2.3-18.1-2.3-27.1-.2-48.6-.1-97.1-.1-145.7 0-6.5-.6-13-.9-19.5-7.1-.2-8.2 4.8-8.9 10.2-2.6 21.7-5.3 43.3-7.9 65-.5 4-1 7.9-1.5 11.9-.6-.1-1.2-.2-1.9-.3 2.4-27.4 5-54.8 7.6-83.8-9.9-.8-19.7-1.7-29.5-2.5-19.3-1.6-38.6-3.3-57.9-4.7-2-.1-4.2 1.9-6.3 3h-2.2c-2.9-2.3-5.6-5.5-8.7-6.6-14.7-5.3-29.6-9.9-44.3-15.2-4.9-1.8-6.1 1.3-7 5.7-3.6 18-6.5 36.3-10.8 54.1-8.1 33.4-16.9 66.6-25.5 99.8-1.1 4.3-3 8.4-6 12 2.6-13.6 5.3-27.2 7.9-40.9 7.6-39.9 15.3-79.9 22.8-119.8 2-10.8 3.3-21.7-1.1-32.5-1.2-3-.6-7.7.2-11.3 1.2-5.4-.3-7.9-4.1-10.4-3.8-2.6-6.8-7.2-10.5-9.8-2.3-1.6-5.8-1.8-8.6-1.2-8.2 1.7-16.2 4.1-24.3 6.2-.1-.7-.3-1.4-.4-2.1 9.1-3.6 18.3-7.3 27.4-10.9 4.3-1.7 7.4-4.2 5.1-11.8-11.7 4.2-24.4 5-33.6 16.9-3.8 5-8.1 6.8-13.3 3.4-7.9-5.2-15.9-10.2-23.5-16.1-2-1.6-2.6-6-3.8-9.2l1.5-1.2c7.5 5.9 14.9 12 22.5 17.7 8.8 6.6 12.2 6.6 15.2.5 3.9-7.9 1.2-18.4-7.5-24.5.7 6.1 1.2 11.2 2 18.2-11.4-8-21.8-15.3-32.8-23-.9-5.4.1-10.4 5.2-15.3 7.6-7.3 7.1-21.2.5-33.2 0-.3.4-.7.9-1.2M1819 287.4c-.5.8-1 1.7-1.5 2.5-2 2.2-4.2 4.3-6.2 6.5.5-5.3 2.6-9.4 3.1-13.8.5-4.2-.9-8.7-1.4-13.3-4.9-2.6-10.1-5.5-15.4-8.4 3.9-4.5 7.4-9.4 9.1-.2.2.8 1.4 2 2 1.9 4.7-.6 10.2.1 13.7-2.8 4.5-3.8 3.3-11.5-.2-15.5-4.7-5.2-10.3-9.7-16.2-12.5-11.6-5.5-15.4-2.9-20.4 11.3-6.8 19-13.6 38-20.3 57-3.2 9.3-6.5 18.7-9.3 27.1 2.6 2.7 4.9 4 5.9 6.2 6.5 14.2 23 15.7 30.7 2.8 4.3-7.1 9.3-13.6 13.6-20.7 4.6-7.5 8.5-15.5 12.8-23.3.3-1.2.7-2.5 1-3.7.2-.9.4-1.7.7-2.6-.5.4-1.1.9-1.7 1.5m-105.4-1.6c-10.7 6.3-21.6 12.6-32.2 18.8 11.5 12 22.8 9.5 29.7-7.2 1.4-3.4 2.1-7.1 3.2-10.7.2-.3.5-.7.7-1-.5 0-1 0-1.4.1m-61.9-60.9c5.4 1.6 6.5-3.1 7.5-7.7 3.4-16.1 6.8-32.2 10.1-48.3.2-1.1-.1-2.4-.2-4-1.1.6-1.6 1.1-2.2 1.3-1.7.4-3.4.6-5.2.8 1.1-1.5 2.1-3.4 3.4-4.6 5.6-5.2 8.9-11.9 8.4-20.6-.6-9.4-5-15.9-12.1-19.4-16.1-8.2-31.6-3.3-42.2 13.7-3.2 5.2-6.8 10.8-8.5 16.9-9.4 33.3-18.3 66.9-27.3 100.4 11.1-7.3 16.4-19.2 20.6-31.9 4.1-12.2 7.2-24.9 10.6-37.3l1.8.6c-2.9 14.4-5.8 28.7-9 44.7 14.3-.9 28.3-1.8 42.1-2.8.8-.1 1.6-1.3 2.3-1.9zm116.6 43.2.1.2c3.9-10.3 8-20.5 12.1-31.1-6-.6-11.6-1.1-17.2-1.7 0-.8-.1-1.5-.1-2.3 4.3-1.3 8.7-2.1 12.9-3.8 8.6-3.5 10.4-12.2 4.6-20.6-1.8-2.6-3.7-5.1-5.6-7.6.3-.5.6-.9.9-1.4 3.6 2.8 7.3 5.7 11.2 8.8 1.6-9.3-1-15.7-6.3-20.3-9-7.9-19.4-11.3-30.1-7.7-8.5 2.9-16.5 7.4-16.9 21.7-.4 17.7-2.1 35.3-3.5 52.9-.4 4.5-1.5 9-3.1 13.1-3.3 8.7-8 16.7-10.5 25.7-5.2 18-1.2 26.5 13.7 32.4 2.3.9 4.9 1.6 7.3 1.7 5.8.2 11-1.9 13.8-8.4 7.4-17.4 14.4-35 21.6-52.5.3-1.1.6-2.3.9-3.4-.4-.4-.9-.8-1.3-1.2-.3.9-.7 1.9-1 2.8-1.3.9-2.4 1.8-3.5 2.7M1582.1 609c5-2.7 9.8-5.3 14.8-8 .4 1.1.8 2.2 1.1 3.3-7.5 3.9-14.9 10.2-22.6 11-7.9.8-16.2-3.8-24.4-6.1-2.6 20.3.5 25.5 16.1 27.2 8.5.9 16.5-.9 24.3-5.5 2.8-1.7 6.3-1.8 9.5-2.6l.6 3.6c-9 3.1-17.9 6.2-26.9 9.4-1.8.7-4.2 1.4-5.1 3.1-5.9 11.4-1.8 24.8 8.7 28.8 38.9 14.6 78.6 24.9 119.3 27.1 16 .9 31.9.7 47.6-4.9 10.1-3.7 15.4-10.9 16.6-24 1.9-21.5 4.4-42.9 6.7-64.4.6-5.5 1.3-10.9 2-16.5-33.4 13.3-66.3 9.5-99 6.1-32.7-3.5-65.3-7.4-95.8-26.8-.7 7.7-1.5 14.5-1.8 21.3-.1 1.4 1.7 3.9 2.9 4.3 6.2 1.9 6.5 5.8 3.3 11.5-.5.8-1 1.6-1.6 2.3 1.3 0 2.5-.1 3.7-.2m91.1-166.5c-4.3 6-7.4 11.7-11.5 15.7-4.1 3.9-9.3 6.1-14 9.1-.4-.8-.9-1.6-1.3-2.4 13.8-4.8 18.9-21.2 29.5-31 8.1-7.5 14.4-19.2 19.1-30.6 7.8-18.5 10-39 8.8-59.9-1-18.1-3.5-21.2-17.9-25.4-3.9-1.2-5.8 0-7.2 4.5-1.4 4.7-3.2 9.2-4.9 13.8-.5-.3-1.1-.5-1.6-.8.9-5.6 2.6-11.2 2.6-16.8 0-4.6 4.2-15.4-6.7-10.4-.3.1-.9-.1-1-.4-4.1-8.6-7.6-1.5-10.8.9-2.7 1.9-5.1 4.7-7.2 7.6-8.7 12.4-17.1 25-25.7 37.5-3.5 5.1-6.5 11.3-13.3 11.1.3-2.6.6-4.4.8-6.4-5.8 2-10.9 3.7-16 5.5-.2-.7-.4-1.3-.6-2 9.5-6 20.5-9.7 26.8-23.9-10.7-.3-20.6 8.8-30.7-.5 8.1-1.6 15.2-2.4 22.1-4.5 6.5-2 12.8-5.2 19.1-7.9-.2-.8-.3-1.6-.5-2.4-6.5.5-13.3 9-20.5-1.6 3.5-.4 6.2-.3 8.7-1.2 6.2-2.2 12.6-4.2 18.3-7.5 2.3-1.3 4.2-5.7 4.8-9.1.2-1.2-3.6-3.8-5.9-5.3-4.9-3.2-9.4-6.4-6.8-15.9 4.1 4 5.7 12.5 12.5 8.9-2-6.4-3.9-12.9-6-19.3l2.4-2.1c2.3 2.8 5.9 5.2 6.8 8.6 1.9 7.3 6.1 10.3 11.3 11.3 19.2 3.9 37.5-1 53.6-14 14.7-11.8 17.4-33.8 7.3-49-.8 1.5-1.7 3-2.9 5.2-.6-7.8-3.9-10-9-8.6-9.2 2.5-18.4 5.1-27.5 8.1-6.9 2.3-7.7 5.7-2.8 12 3.2 4.1 7.3 7.2 11.8 11.6-7.4-.4-11.5-5-14.7-10.9-6.4-12.2-6.9-12.3-18.8-10-8.6 1.6-17.5 3.7-25.9 2.1-9.4-1.7-16.7.4-23.7 7.8-12.6 13.5-25.3 26.7-37.9 40.3-8.6 9.3-12.7 21.7-10.5 35.2 2.5 16.2 6.1 32.4 10.7 47.9 7 23.4 15.5 46 23.1 69.1 4.7 14.1 8.6 28.5 13.3 42.6 2.5 7.7 2.8 14.7 1.2 23.2-3.8 20.2-6.2 40.8-8.8 61.3-.3 2.4 1.5 7.1 3 7.6 15.2 5 30.5 9.4 46.3 14.2.9-4.3 1.5-7.2 2.1-10.1 2.5-11.5 4.7-23.1 7.9-34.3 2.6-9 5.8-8.9 10.6-1.5-1.3 2.1-3.3 3.9-3.8 6.2-2.4 11.2-4.6 22.6-6.6 33.9-1 5.9 2 8.2 6.1 8.6 13.1 1.2 26 2.1 39.1 3.1 3.6.3 5.9-1.4 6.6-6.3.6-4.5 1.9-8.9 2.9-13.3.8 4.2.4 8-.3 11.7-1 5.3.5 8 5 7.9 4.3-.1 8.5-.4 12.9-.7 9.1-.6 10.8-2.5 11.9-13.7 1.7-16.2 3.1-32.5 5.2-48.6.6-4.4 3-8.4 4.7-12.5.9.3 1.8.6 2.6 1 0 3.1.3 6.2 0 9.2-2 18.1-4.4 36.1-6.4 54.2-.3 2.8.7 5.9 1.1 8.8.7 0 1.5.1 2.2.1.5-2.1 1.1-4.1 1.6-6.2 3.9-17 8.3-34 11.7-51.2 4.4-21.7 12.3-39.5 28.3-52.2 7-5.5 13.6-16.2 15.6-26 6.1-29.5 10-59.7 14.4-89.7.6-4.2-.8-8.9-1.2-13.4-.9-.1-1.8-.1-2.7-.2 8.8-12.4 12.4-26.5 10.6-42.5-.3-2.3-1-4.5-1.6-6.8-1.8.8-4.1 1-5.3 2.5-6.9 8.7-10.8 19.3-14.1 30.8 3.8 1.2 7.1 2.2 10.2 3.2 0 .8-.1 1.6-.1 2.3-2.5.7-5.1 1.1-7.5 2.2-3.8 1.8-8.7 2.8-11.2 6.3-9.5 12.8-37.2 7.5-44.9-4-.8-1.3-1.4-2.9-2.2-4.1-1.4-2-3-3.9-4.6-5.8-1.4 3.1-3.9 6.3-3.9 9.4.1 4.5 1.8 9.1 3.3 13.3 4.8 12.5 9.9 24.9 14.8 37.4 1 2.5 1.6 5.3 2.4 7.9-.6.4-1.3.7-1.9 1.1-6.4-14.5-12.5-29.2-19.3-43.4-4.7-9.7-9.9-19.1-15.9-27.7-3.7-5.4-8.1-3.4-9.1 3.7-.9 6.2-1.2 12.7-.9 19 .5 12.8 1.6 25.6 2.5 38.3-.4 0-.8.1-1.1.1-2.2-9.8-4.5-19.5-7.2-31.7-3.7 22.6-6.4 43.8-17.7 61.1 14.2-4.1 28.1-7.5 40-18.3H1714c24.1-9.5 27-10 30.8-4.9-1.1.8-2.1 1.7-2.5 1.9 6.8 13.8 13.5 27.3 20.2 40.8-.7.5-1.3 1-2 1.5-5.3-9.5-10.6-19-15.8-28.6-3-5.7-6.4-6.2-11.4-3.4-9.8 5.4-19.9 10.2-30.1 14.6-9.2 3.9-18.6 7-23.4 19.1-.4 1.1-1.8 1.5-2.6 2.3-1-1.3-2-2.6-4-5.3m15.2-222.4c13-1.9 25.7-12.8 38.1 3.7.7-8.9 1.3-15.6 1.8-22.7-12.6 1.1-23.7.1-33.8-7.3 2.6 0 5.1 1.1 7.6 1.9 7.7 2.3 15.8 3.7 21.5-4.4 5.8-8.4 8.2-19 6.9-30.3-.3-2.3-1.2-5.1-2.6-6.4-8.5-7.9-18.4-13.4-28.8-10.1-7.2 2.3-14.9 8.2-19.4 15.3-5.1 7.9-7.2 18.9-9.8 28.8-1.9 7.3-3.4 15-3.7 22.6-.3 8.1 3.6 11.3 11.3 11.6 6 .3 6.7-4.8 7.3-10.4.5-5.1 1.6-10 2.4-15.1.4.1.9.3 1.3.4-.1 7.1-.1 14.3-.1 22.4m-185.5 376c3.2 4.7 6.9 8.4 8.7 13.1 2.4 6.5 6 5.9 10.4 5.2 13.3-2.3 22.5-13 32-22.9.9-1 1.4-3.5 1.1-5.1-1-5.9-3.9-8.3-8.9-6.7-13 4.4-26 8.7-39 13.2-1.4.5-2.5 1.9-4.3 3.2m67.7 2.4c.1-19.3-7.9-32.6-19.8-32.9-8.3-.2-16.8 2.6-25 5.2-2.4.8-4.1 5.5-6 8.4 2.8.6 5.9 2.1 8.6 1.5 6.2-1.3 12.3-3.7 18.4-5.4 5.8-1.6 9.7 1.4 11.4 8.3 1.1 4.5 1.4 9.4 2.9 13.6 1.1 2.9 3.5 5.1 5.5 7.5 1.7-2.4 3.4-5.2 4-6.2m-76.8 8.3c.1-12 4.8-18.5 14.8-19 2.2-.1 4.7-2.2 6.4-4.2 1-1.2 1.4-4.1 1-5.8-.3-1.2-2.5-2.8-3.6-2.6-9.2 1.9-18.2 4.7-24 14.9-4.1 7.3-2.3 13.1 5.4 16.7m-21.6-16.7c3.7 3.8 7 7.8 11.3 3.2.8-.9-.4-6.4-1.9-8.1-4.3-5-6.5.2-9.4 4.9m113.4-39.7c-.6-.6-1.3-1.2-1.9-1.7-1.8 2.6-4.3 4.9-5.4 8-.5 1.5 1.5 4.3 2.3 6.5 1.2-1.4 3-2.5 3.6-4.2.9-2.6 1-5.7 1.4-8.6m172.4 39.1c7.1-.4 12.4-3.6 13.3-8.4.6-2.8-.4-6.1-.7-9.2h-1.9c1 9.3-2.6 14.6-10.7 17.6m-180.8 21.6c0-.4-.1-.8-.1-1.2-1 .2-1.9.4-2.9.5 0 .3.1.6.1 1 1-.1 2-.2 2.9-.3" class="st1"/><path d="M210.6 617.9c-5.9 2-11.6 4.1-17 5.9 2.9 13.8 5.9 27.5 8.9 41.3.3 1.3 1.6 3 2.5 3.1 9.5 1.5 19.1 2.6 29.4 4-3.7-13.8-7.2-26.2-10.6-38.6.6-.3 1.1-.5 1.7-.8 2.7 8 5.5 16.1 8.4 24.1 4.8 13.2 9.3 16.8 21.1 15.6 17.1-1.7 34.1-3.9 51.1-5.9 5.8-.7 8.7-3.6 7-11.5-1.4-6.4-2.3-13-3-19.6-.9-9.1 1.2-12.1 7.4-13.5.5 13.4 1.1 27 1.7 42.2 13.3-3.5 24.6-6.4 36.1-9.4-1.1-15.9-2-30.8-3.2-45.7-2.6-30.7 2.9-58.3 18.7-82.6 9.3-14.3 18.4-28.7 27.7-42.9 1.5-2.3 3.6-3.9 5.5-5.8.5.6 1.1 1.1 1.6 1.7-2.3 3.6-4.5 7.4-7 10.9-17.5 25.1-32.6 51.9-37.6 85.2-1.9 12.7-2.1 25.8-2.3 38.8-.1 7.6 2.8 12.1 10.3 11.1 8.5-1.1 15.2 6.3 18 18.8 1.6 7.1 2.2 14.6 3.5 23.8 1.9-2.8 3.3-4.7 4.6-6.6 4.2-6.2 7.9-12.9 12.4-18.6 6.4-8 14-10.2 23-6.5 10.2 4.1 11.9 2.1 10.8-11.3-1.7-21.4 1.9-28.5 18.7-34.6 7.9-2.9 16-4.8 23.9-7.2.2.8.5 1.7.7 2.5-1.5.9-3 1.9-4.8 2.5-7.7 3-15.8 5-23.2 8.8-11.8 6.2-16.3 31.8-7.8 43.7 1.2 1.7 4.2 1.4 6.4 2 .4-2.4 1.7-5.1 1.2-7-6-21.2-4.5-25.3 13.2-31.9 4.7-1.7 9.4-2.9 14.1-4.3.3.8.6 1.7.9 2.5-1.5 1.2-2.8 2.9-4.5 3.6-5.8 2.2-11.8 3.7-17.5 6.3-2.3 1.1-3.9 4.4-5.9 6.6.5.7 1 1.4 1.5 2.2 3.3-2 6.7-4.3 10.1-6 3.7-1.8 7.6-3.4 11.5-4.5 1.2-.3 2.8 1.3 4.3 2-1.3 1-2.5 2.2-3.8 2.9-5.7 2.6-11.6 4.3-16.8 7.7-2.1 1.4-2.6 6.6-3.8 10 2.7-.9 5.7-1.2 8-2.7s3.8-4.7 6.2-6.4c2.1-1.6 4.9-2.1 7.3-3.1.5 1.3 1.1 2.6 1.6 3.9-19.8 17.8-39.8 35.7-59.6 53.5-.7-.8-1.5-1.6-2.2-2.4 1.6-3.7 3.3-7.2 4.7-11 .8-2.3.8-4.9 1.2-7.4-2.3.2-5.1-.4-6.8.8-5.8 4.1-7.7 12.3-5.7 20.2 1.2 4.7 1.8 9.6 3 15.8 22.3-18.3 44.3-36.3 66.8-54.8.1 2.7.3 5.2.4 7.9 7.6-1 15.1-1.9 22.6-2.9.1.5.1 1 .2 1.5-9.4 3.3-18.9 6.3-28.2 9.9-5.4 2.1-10.5 5-15.6 7.9-10.3 5.9-19.2 13.2-24.6 26.8-5.3 13.4-12.4 25.9-19.5 37.9-4.2 6.9-9.7 13.1-15.7 17.5-13.7 9.8-16.1 15.1-11.3 33.7 15.1 58.3 35.7 113.6 59.3 167.4 4.2 9.4 7.9 19.1 11.8 28.7l-1.7 1.7c-2-2.8-4.5-5.3-5.9-8.5-13.1-29.1-27.2-57.5-38.7-87.6-13.3-34.8-24.1-71-36.2-106.5-.7-2-3.7-4.7-5.1-4.2-9.9 3.4-19.6 7.6-31.3 12.2 9.2 31.3 18.2 62.1 27.2 92.9-.3.2-.5.4-.8.7-1-2.4-2.2-4.6-3.1-7.1-8.8-25.5-17.6-50.9-26-76.6-2-6.3-4.5-8.9-9.9-7.5-30 7.6-60.4 8.5-90.8 8.6-14.2 0-14.4.9-13 17.9 3 36.1 5.1 72.4 8.5 108.5 3.1 32.5 7.7 64.7 11.4 97.1.7 5.9 2.4 12.2-2.3 20-1.4-7.9-2.5-13.6-3.5-19.3-9.8-55.7-15.2-112.1-18-169-.7-14.6-3.2-29.1-5.6-43.5-1.4-8.9-5.5-15.1-13.7-17-15.5-3.6-24-17-26-35-3.6-32.7-6-65.6-8.6-98.4-.7-8.5.7-15 9.7-15.8 6.6-.6 9.5-11.1 5.3-19.4-6.7-13.1-12.9-27.1-21.6-38.1-11.9-15.2-19.4-32.3-22.4-52.8-4.9-33.3-9.9-66.5-14.9-99.8.5-.2 1.1-.5 1.6-.7 1 3 2.3 5.8 2.9 8.9 6.8 34.2 13.6 68.4 20.1 102.7 2.7 14.5 9 26.2 17.2 38.9-1.4-20.5-2.7-39.3-3.9-58.1.5-.1 1.1-.2 1.6-.3 1.8 13.5 3.3 27.1 5.6 40.5 2 12.2 4.1 24.5 7.4 36.2 5.1 17.6 11.6 21.5 26.5 18.4 1.4-.3 2.8 0 4.3 0 .4.8.5 1.5.7 2.3m172.8 62.4c.4-.6.7-1.2 1.1-1.8-.7.2-1.4.4-2.1.5l-1.2 1.5c-3.5 2.6-3.5-.2-3.6-3.4-.2-7.5-.5-15.1-.8-23.6-31.7 19.7-64.8 22.4-97.7 25-33.1 2.7-66.4 6.1-99.4-8.3.7 8.2 1.3 15.6 2 22.9 2.1 21.4 4.2 42.9 6.7 64.3 1.2 10.7 6.8 17.4 15.5 19.3 9.1 1.9 18.2 4.2 27.3 4.6 34.6 1.7 68.9-3.2 102.8-10.7 14.4-3.1 28.5-8.1 42.4-13.4 7.3-2.8 9.8-9.3 8.8-17.3-1.1-8.8-5.2-13.5-12.6-14.8-1.7-.3-3.5-.5-5.3-.8 2.5-2 5.3-2.8 8-2.8 7-.2 14 .7 20.9-.2 11-1.3 17.3-15.1 12.3-27.1-1-2.5-5.6-3.5-8.6-3.8-3.9-.3-8 1.3-11.9 1.2-4.7-.2-7.1-3.3-5.4-9.5.1-.5.5-1.2.8-1.8m39.7-43.8c-5.1 3.5-9.9 5.1-12.6 8.9-6.8 9.9-12.8 20.6-18.5 31.4-1.2 2.3-.4 6.3-.5 9.5 2.5-1.5 5.9-2.3 7.5-4.7 4.5-6.9 8-14.7 12.3-21.8 5.2-8.7 13.7-12.8 21.4-3.4 1.1 1.4 3.9.8 5.9 1.2 0-2.8 1-6.9-.1-8-4.8-4.9-10-8.7-15.4-13.1m12.7 50.2c-14.2 3.6-16.2 6.5-17.8 21-.5 4.8-1.6 10.5-4.2 13.7-4.9 6.2-11 11-16.7 16.4 2 3.5 4.3 3.6 9.7-1.7 13.4-12.6 19.5-31.4 29-49.4m-70.9-56.6c-.8.8-1.5 1.7-2.3 2.5.4 4 .4 8.2 1.1 12.1 1.2 6.2 4.7 7.4 8 2.6 1.5-2.1 2.6-7 1.7-8.7-2.1-3.5-5.6-5.8-8.5-8.5" class="st2"/><path d="M227.6 471.5c-.4-9.7-.9-19.4-1.1-29.1-.1-6.3-2.4-9-7.5-8.8-9.8.3-18.5-3.5-26.5-12.3-1.8 18.9-12.2 26-25.1 28.6-7.8 1.6-14.3-1.8-18.6-10.2-3.7-7.2-7.1-14.8-10.9-22-4.5-8.2-9.2-16.2-17.5-18.3-.6.7-1.3 1.5-1.9 2.2 1.3 2.1 2.2 4.9 3.9 6.1 5.3 3.6 7.1 8.7 6.3 15.1-3.6-3.5-7.5-6.7-10.7-10.6-1.7-2.1-3.3-5.4-3.4-8.3-.1-6.8.7-13.7 1.3-22.5 1.3 2.4 1.8 3.3 2.3 4.3-.7-.8-1.5-1.6-2.2-2.4.9-2.5 1.8-4.9 2.7-7.4 1.5 1.7 3 3.3 4.5 5-.5-4-1-8-1.6-12.9-1.4 2.8-2.5 5-3.7 7.3-8.8-14.5-8.2-33 2-43.7-.3 7.9-.5 14.9-.8 22.8 1.7-1 2.9-1.7 4.3-2.4 5.3 30.3 17.7 56.2 32.2 80.8 5.7 9.6 12.7 11.4 22 6.2 8.9-4.9 13.1-12.6 9.9-23.9-6.4-23-14.1-45.4-21.1-68.1-3.4-11.4-6.8-22.8-9.7-34.4-.8-3.3-.1-7.2-.1-10.9.5-.1 1.1-.1 1.6-.2.5 1.2 1.2 2.3 1.5 3.5 9.1 30.3 17.9 60.8 27.5 90.8 2.3 7.3 6.2 14.6 10.9 19.6 4.1 4.2 10.4 4.9 15.9 7.2 5.1-2.8 10-5.6 15.1-8.4 6.5-5.6 5.3-13 3.6-20.9-6.1-30.4-12.1-60.8-17.8-91.2-.7-3.9-.7-8.1.5-12.6 2.7 14.3 5.3 28.7 8.4 42.9 3.6 16.6 7 33.3 11.8 49.4 6.6 21.9 16.3 26.4 37.7 18 7.7-3 9.2-10 5.2-18.5-3.5-7.4-8.3-14.1-10.7-22-2.3-7.5-2.8-16-3.2-24.1-.1-2.8 1.7-7.2 3.6-8.3 6.5-3.9 5.1-9.7 3.8-16.1-2.6-13.7-5.2-27.5-7.7-41.3-.3-1.8 0-3.7 0-5.6.6-.1 1.1-.3 1.7-.4 2.6 13.4 5.5 26.8 7.8 40.3 2.9 17.2 2.8 17.9 17 14.5 10.9-2.6 21.6-6.5 32.2-10.7 1.7-.7 3.4-6.2 3.1-9.1-1.2-9.2-3.4-18.2-4.1-28 .7 1.3 1.7 2.5 2.1 4 1.8 6.5 3.3 13.2 5.3 19.7 1.1 3.9 0 10.7 5.9 9.7 6.7-1.1 10.5-8.2 8.4-15.8-6.2-22.5-16.8-41.5-33.8-53-7-4.7-16.3-5.6-24.6-5.9-8.2-.3-15.1 5.1-19.2 14.5-.6 1.4-1.7 2.4-3.3 4.5-2.5-9.2.8-14.6 5.9-17.7 16.3-10.2 33-10.8 49.2.2 15.3 10.4 23.3 28 29.3 47.3.3 1 .6 2.1.9 3.1 2.9 10.5 2.9 10.5 11.8 7.1 14.6-5.6 28.7 1.8 33.5 19.4 9.2 33 18 66.1 26.1 99.5 3.9 16.2 6 33.3 1.9 50.1-1.5 6.4-5.2 12.1-7.8 18.1-.7-.5-1.5-1-2.2-1.5.8-2.1 1.3-4.4 2.3-6.3 8.1-14.7 8.8-30.5 4.4-46.9-8.8-32.3-17.4-64.6-26.7-96.7-8.3-28.6-15.7-31.9-38.9-21.5-12.2 5.4-25.1 8-37.5 12.8-13.5 5.3-26.6 11.6-39.7 18.1-1.4.7-2.5 6.2-1.8 8.8 1.2 5.2 3.7 9.9 6.6 17-3.2-3.6-5-5.5-6.7-7.4-.5-.1-1.1-.3-1.6-.4.1.7.2 1.5.3 2.2 4.2 17.6 14.7 26.5 28.3 31.2 14.7 5 29.4 5.4 43.9-.3 10.4-4.1 18.5-11.3 20.4-25.8.3-2 1.2-3.8 3.3-5.6.5 3.2 1 6.5 1.6 10.8 2.5-4.1 4.6-7.5 6.6-10.9.6.4 1.2.8 1.7 1.1-2 5.3-3.3 11.4-6.3 15.8-3.3 5-7.8 9-12.3 12.7-4.2 3.5-8.9 5.9-13.4 8.8l1.2 3.3c11.4-5.9 23-11.9 34.4-17.8.3.7.5 1.4.8 2.1-10.5 11.7-23 18.7-39.6 20.6 2.6 7.9 5 14.7 7.2 21.5l-.1-.1c2.9 4.5 5.8 8.9 9.3 14.3h-6.3c-.3.8-.7 1.6-1 2.4 7.9 6.1 15.7 12.3 24.5 19.1-9.4 1.5-15.8-4.5-22.1-9.7-6.3-5.3-12.3-10.9-12.8-22-.4-9.5-2.3-18.9-3.4-27.8-16.9-2.2-34.3-4.4-52.4-6.7-.2 1.9-4.6 6.1 1.6 10.6-30 27.9-50.3 62.1-41.4 112.8-.9.1-1.8.1-2.7.2-1.4-7.7-3.4-15.2-4.1-23-1.9-24.7 5.5-45.6 18.8-63.6 3.2-4.4 6.5-8.8 11.1-15.1-5 .3-7.7.5-10.5.6-2.7.2-5.8 1.4-8 .3-10.7-5.1-16 4.6-22.2 11.4 5.2 15.5.8 31.3 1.9 46.7-1 .1-1.7.1-2.5.1m-107.7-79.3c.7.2 1.4.5 2.2.7-.1-.7-.3-1.4-.4-2.2-.7-1-1.3-2.1-2-3.1-.3.2-.7.5-1 .7.4 1.4.8 2.6 1.2 3.9" class="st3"/><path d="M593.9 553.2c6.7 0 12.5-.4 18.2.2 1.9.2 4.6 3 5.1 5.2 2.3 9.1 4.1 18.5 6 27.8.6.1 1.2.2 1.8.2 1.8-8.8 4.1-17.6 5.5-26.6.8-5.4 2.5-7.3 7.1-7.1 10.3.4 20.8.1 31.7.1 1.4 11.6 2.8 23 4.3 34.4.5.2 1.1.3 1.6.5 2.1-11.5 4.3-22.9 6.4-34.6h19.3c1.8 11.1 3.5 22 5.3 32.9.6 0 1.1 0 1.7-.1 1.2-10.8 2.5-21.5 3.7-32.7h18.2c-4.6 19.9-9 39.6-13.5 59.3h-21.2c-1.7-10.5-3.4-20.9-5.3-31.4-.4-.1-.9-.2-1.3-.3-1.9 10.3-3.7 20.6-5.8 31.4h-21.2c-3.5-16.3-7.2-32.8-10.7-49.3-.5-.1-.9-.3-1.4-.4-.8 2.3-1.8 4.5-2.4 6.9-4.7 16.2-9 32.5-13.9 48.7-6.6 22-17 28.5-35.7 22.5v-17.3c2.5.4 4.9 1.1 7.3 1.1 6.9 0 10.6-6.7 8-14.7-5.2-16-10.6-31.8-15.9-47.7-.9-2.5-1.7-5.3-2.9-9m653.2-107.5c.2-3.8.5-7.6.8-11.9 2.5-.4 5-.7 7.4-1 .2-.7.7-1.5.6-2.2-1.6-17.7 9.5-30 28.9-27.1 1.5.2 3.5 3.6 3.8 5.8.6 4 .2 8.2.2 12.4-11.1-.6-12.6.7-11.8 11.1h17.6c-1.8-20.1 13.1-11.3 20.1-19.6v19.5c3.6.3 6.8.5 10.2.7v16c-3.1.2-6.2.4-9.1.7-2.6 21.8-1.3 25.8 9.1 26.7v17.8c-5.4 0-10.9.7-16.3-.2-7.5-1.2-12.5-7.6-13.2-17.4-.6-8.7-.1-17.6-.1-26.8h-18.6v42.3h-20.4v-40c-3.8-2.8-6.6-4.7-9.3-6.7.1.1.1-.1.1-.1" class="st4"/><path d="M921.3 673.2h9.7v16.4c-2.7.2-5.8.5-9.5.8v14.9c0 10.5.4 11 9.6 11.7v17.8c-5.4 0-10.8.7-16.2-.2-7.8-1.2-12.6-8.2-13.4-18.2-.3-4.4-.2-8.9-.3-13.3v-12.8h-18.4v42.6h-20.4v-42.3c-2.7-.3-5.1-.7-8-1v-15.8c2.2-.3 4.6-.6 7.1-.9.2-.7.7-1.5.6-2.2-1.5-19.8 11.7-30.2 29.5-27 1.3.2 2.9 3.1 3.1 5 .5 4.3.1 8.8.1 13.2-10.8-.7-12.1.5-12.2 10.9h17.9c.2-3.4.3-6.8.5-11.1 6.2-2.2 12.6-4.4 19.7-6.9.6 6.3.6 11.9.6 18.4" class="st5"/><path d="M958.7 492.9h-20.4v-27.2c0-2.8.6-5.9-.2-8.2-1-2.9-3.2-5.1-4.9-7.6-1.9 2.5-5.4 4.9-5.6 7.6-.7 8.8-.3 17.7-.4 26.6v8.6H907v-59.3h19.6c.3 2.2.6 4.5.8 5.6 5.1-2.5 10.1-6 15.5-7.3 6.3-1.5 11.2 2.9 14.4 9.2 3.7-2.9 7.1-6.3 10.8-8.1 10.8-5 20.7 2.1 21.5 16.3.8 14.3.2 28.8.2 43.6h-20.1c0-10.9.1-21.7 0-32.4 0-4.7.3-10.4-5.3-10.3-5.1.1-5.7 5.4-5.8 10.3 0 10.6.1 21.2.1 32.6" class="st6"/><path d="M1214 553.6c1.4 11.8 2.8 23 4.2 34.1.5.1 1.1.1 1.6.2 2.1-11.3 4.2-22.5 6.4-34.2h19.3c1.8 11.5 3.7 23.4 5.7 35.2h1.1c1.3-11.8 2.6-23.5 3.9-35.3h18.2c-4.3 18.9-8.4 37.4-12.8 55.7-.4 1.7-2.6 3.7-4.2 3.8-5.8.4-11.6.2-17.7.2-1.8-10.4-3.4-20.2-5.2-30h-1.8c-1.8 9.8-3.6 19.6-5.5 29.6H1206c-4.2-19.4-8.4-39.1-12.8-59.3zm-357.1-87.2c1.2-10.8 2.4-21.5 3.7-32.7h18.2c-4.6 19.9-9 39.5-13.5 59.3H844c-1.7-10.4-3.4-20.8-5.2-31.2-.4-.1-.9-.2-1.3-.3-1.9 10.2-3.7 20.5-5.8 31.3h-21.3c-4.2-19.3-8.4-39-12.8-59.1H818c1.4 11.5 2.8 22.8 4.2 34.2.5.1 1.1.2 1.6.3 2.1-11.3 4.2-22.6 6.4-34.3h19.4c1.7 10.9 3.4 21.7 5.2 32.5.9-.2 1.5-.1 2.1 0" class="st7"/><path d="M1132.5 673.6v-28.3h20.3v88.2c-7.4-1.9-15.1 3.3-22.2-3.9-14.8 13.7-32.4 1.3-32.8-22.7-.3-17.8 5.3-31 16.5-34.1 5.5-1.5 11.6.4 18.2.8m.7 28.2c-.5-4.9-.8-11.8-7.2-11.6-6.5.2-7.4 7-7.5 13.3-.1 6 .4 12.1 6.7 13 4.7.7 7.9-5.1 8-14.7" class="st8"/><path d="m1247.1 445.7-.1.2c-.8 7.9-1.1 16-2.6 23.8-3.3 17.7-12.3 25.8-26.7 25.2-12.6-.5-21.4-9.9-23-27.3-1-11.1-.8-22.9.8-33.8 2.7-17.9 12.6-26.2 27.1-25.6 12.1.5 19.6 9.8 22.5 27.2.8 3.4 1.4 6.9 2 10.3m-20.8 6c-.6-6.7-.8-12.9-1.9-18.7-.4-2.4-2.9-4.2-4.5-6.3-1.4 1.9-4.1 3.7-4.2 5.7-.4 12.9-.5 25.8-.2 38.6 0 1.9 2.7 3.7 4.2 5.5 1.4-1.9 3.7-3.5 4.2-5.7 1.3-6.5 1.7-13.1 2.4-19.1" class="st4"/><path d="M1072.6 675.7v-30.4h20.2v88.3c-7.4-1.7-14.8 2.6-22.5-4-.2.2-1.8 2.2-3.6 2.5-5.4.8-11.2 2.7-16.1.9-10.8-4-15.4-20.5-12.1-38.9 2.6-14.2 11.5-23.4 22.5-22.3 3.7.3 7.2 2.4 11.6 3.9m.3 28c-.3-3.1.1-5.9-.9-7.3-1.9-2.6-6.1-6.6-6.6-6.1-2.7 2.8-5.8 6.6-6.7 10.7-1.3 5.5-1.1 12.3 4.3 14.7 2 .9 6-1.3 7.8-3.6 1.6-1.9 1.6-6 2.1-8.4m-565.2-95.2v32.4h-19.8v-87.2h19.4c.2 1.5.5 3.3.8 5.3.7-.4 1.4-.6 1.8-1.1 6.1-7 13.1-8.3 20.7-4.7 7.4 3.5 10.4 11.2 11 20.2.4 6 .5 12.2-.3 18.2-2 16.5-16.5 32.3-33.6 16.9m-1-23.9c1 3 1.7 7.5 3.7 10.1 3 3.9 6.6 2.2 9.1-1.9 3.3-5.5 2.5-18.2-1.3-21.4-4.1-3.3-7.4-1.5-9.5 3.3-1 2.6-1.2 5.8-2 9.9" class="st6"/><path d="M1081.1 525.2h19.6v34.7c2.4-2.1 3.8-3.5 5.5-4.8 10.1-8.3 23-3 24.4 11.7 1.5 14.9.3 30.3.3 45.9h-19v-32.3c0-4.8.1-10.4-5.3-10.4-5.2 0-5.6 5.4-5.6 10.3-.1 10.5 0 21.1 0 32.2h-19.9z" class="st9"/><path d="M705.5 492.9h-20.1v-87.4h19.8V440c2.5-2.3 4.1-3.8 5.7-5.1 10.2-8.1 21.9-2.2 24.5 12.3.4 2.2.8 4.4.8 6.6.1 12.7 0 25.5 0 38.8h-19.8v-26.8c0-2.8.6-5.9-.2-8.2-1-2.9-3.2-5.1-4.9-7.6-1.9 2.5-5.3 4.9-5.5 7.7-.8 7.9-.3 16.1-.3 24.1-.1 3.5 0 7 0 11.1" class="st6"/><path d="M631.5 469.5c5.9 2.5 11 5.6 16.4 6.5 3 .5 6.6-2.7 9.8-4.2-2.1-3.1-3.8-6.9-6.5-9.1-3.4-2.9-7.9-4.1-11.3-7-13.1-10.7-12.4-33.2 1.4-42.6 10.7-7.3 22.2-5.8 33.4-2.4 1.1.3 2.4 3 2.5 4.7.3 5.4.1 10.9.1 16-6.1-1.7-11.6-3.9-17.2-4.6-2.2-.3-4.8 2.9-7.2 4.5 1.6 2.6 2.8 6.1 5 7.8 4.7 3.7 10.3 5.8 14.8 9.7 12.1 10.7 11.1 32.1-1.9 40.8-11.7 7.8-24.3 6.8-36.7 1.8-1.2-.5-2.4-3.6-2.5-5.6-.3-5.1-.1-10.4-.1-16.3" class="st9"/><path d="M1300.1 641v-17.4c2.2.5 4.2 1.1 6.1 1.2 8 .7 12.1-6.2 9.1-15.4-5.6-16.9-11.2-33.9-16.8-50.8-.5-1.5-.8-3.1-1.2-4.6.7-.3 1.1-.7 1.5-.7 20.2-1.5 20.2-1.5 25 22.1.8 3.7 1.5 7.4 2.3 11l1.8.3c2.3-10.9 4.7-21.9 7-33.1h19.6c-3.2 11.4-6.4 22.5-9.5 33.6-3 10.7-5.9 21.5-9.2 32.1-6.8 21.6-17.1 27.8-35.7 21.7" class="st4"/><path d="M804.6 673.9c.3-7-1.5-16.6 1.3-19.3 7.1-7.1 16.7-7.8 25.7-5.8 16.3 3.7 22.8 26.8 11.8 42.3-3.3 4.7-7.9 8.1-11.9 12-2.8 2.8-5.8 5.4-8 9.8h25.1v19.8h-47.4c-1.1-11.2.2-21.8 7.3-30.1 4.7-5.5 10-10.3 14.9-15.6 3.4-3.8 6.7-8.4 3.9-14.4-2.7-6-7.7-4.8-12.1-3.6-3.5 1-6.7 3-10.6 4.9" class="st10"/><path d="M1446.1 553.5h19.9v59.8c-7-1.5-14.6 3-22.3-3.7-1.3.8-3.9 2.9-6.9 4.1-10.9 4.6-20.9-2.2-21.8-16.2-.9-14.5-.2-29.2-.2-44.1h20.1v26.3c0 2.8-.6 5.9.2 8.2 1 3.1 3.1 5.7 4.8 8.5 2-2.7 5.5-5.3 5.8-8.2.8-8.5.3-17.2.3-25.7.1-2.7.1-5.4.1-9" class="st5"/><path d="M768.6 494.9c-16.6 0-27.1-11-27.9-29.2-1.1-23.7 15.2-39.1 35.3-33.6 14.5 4 22.6 17.2 21 34-1.9 18.9-11.7 28.8-28.4 28.8m7.7-32.3c-.1-5.1-.1-11.6-6.8-12.7-5-.8-8.1 4-8.3 12.2-.2 8.6 2.5 14.1 7.3 14.4 4.8.4 7.5-4.1 7.8-13.9m388 152.3c-17.3 0-27.8-11.3-28.3-30.4-.3-14 4.6-24.3 14-29.5 11.7-6.5 27.1-3.9 35.4 5.8 7.2 8.5 9.2 22.8 5.1 35.5-4.1 12.1-13.2 18.6-26.2 18.6m7.3-31.9c.1-8.5-2.4-13.1-7.4-13.1-4.9 0-7.7 4.7-7.7 13 0 8.7 2.9 14.2 7.9 13.6 6.8-.7 6.8-7.3 7.2-13.5m210.2 31.9c-16.2 0-26.4-10.4-27.8-27.7-2.1-27 15.2-39.1 34.9-35.1 14.7 3 22.7 16.6 21.2 33.7-1.7 19.1-11.5 29.1-28.3 29.1m7.7-31.6c.1-8.6-2.3-13.2-7.2-13.4-5-.2-7.8 4.4-7.9 12.7-.1 8.8 2.7 14.3 7.7 13.9 6.6-.6 7.1-6.9 7.4-13.2" class="st10"/><path d="M707 732.9c-.2-2.4-.4-4.4-.6-6.5-.4-.4-.9-.7-1.3-1.1-.8 1.6-1.4 3.5-2.5 4.7-5.3 5.7-11.3 6.6-17.6 3.3-5.9-3.1-7.9-9.5-8-16.9-.1-8.6 2.7-15.5 9.5-18.3 6.4-2.6 13.1-3.7 19.6-5.4-3-7.9-4.8-8-24.5-.6 0-4.3-.3-8.4.1-12.4.2-1.7 1.8-4.4 2.9-4.5 8.8-1 17.7-2.5 26.5-2 7.9.5 12.9 7.6 13.4 17.1.7 14 .2 28.1.2 42.6zm-.4-26.9c-.7-.9-1.4-1.8-2-2.8-3.2 3.2-6.5 6.4-9.7 9.6 1.9 1.8 3.9 5.4 5.6 5.1 5.4-.9 6.6-6.1 6.1-11.9m412.9-213.1h-18.2c-.2-2.2-.5-4.4-.9-9.1-1.8 3.2-2.5 5-3.6 6.2-5.3 5.6-11.3 6.5-17.6 3.1-5.9-3.2-7.8-9.6-7.9-17 0-8.2 2.5-15.1 9-17.8s13.5-4 20.2-5.8c-3.2-7.7-3.7-7.7-24.1-.7-.1-.2-.3-.4-.3-.6-1-15.4-1-15.6 11.5-18.4 4.4-1 9-1.4 13.5-1 11.6 1 17.9 8.8 18.5 23.6.3 12.1-.1 24.3-.1 37.5m-20.7-29.6c-3.3 3.1-6.7 6.2-10 9.3 1.8 1.9 3.8 5.6 5.5 5.4 5.4-.8 6.8-6 4.5-14.7M549.2 572.2c-.3-18-2.8-16 11.8-19.6 4.4-1 9-1.3 13.5-.8 10.9 1.2 17.1 8.2 17.9 21.6.8 12.9.2 25.9.2 39.4h-18c-.2-1.9-.5-4.2-.9-6.8-.7.6-1.3 1-1.7 1.5-6.3 7.7-12.8 9.6-19.5 5.8-5.7-3.2-8.6-10.3-8-19.4.6-9.2 4.7-14.9 13.2-17.5 5.4-1.6 10.8-2.5 17.9-4-9.8-10.7-17.9-2.9-26.4-.2M574 586c-.7-.9-1.4-1.8-2.1-2.8-3.2 3.2-6.5 6.4-9.6 9.6 1.9 1.8 4.1 5.3 5.7 5 5.3-.9 6.4-6 6-11.8" class="st7"/><path d="M1016 692.1c-9.9-10-17.8-3-25.7.1-.2-.5-.6-1-.6-1.5 0-18-2-14.4 11.1-17.9 4.4-1.1 8.9-1.4 13.4-1.1 11.9.9 18.4 9.1 18.8 24 .3 12.2.1 24.3.1 37h-18c-.4-1.6-.8-3.8-1.4-6.4-1.4 1.6-2.4 3-3.6 4.1-5.5 5.3-11.5 6.1-17.7 2.5-5.8-3.4-7.6-10.1-7.5-17.3.1-8.4 3.1-15.3 10-17.9 6.2-2.3 12.8-3.4 21.1-5.6m-1.9 11.6c-4.1 4.2-11.2-.1-10.8 9.6.1 1.7 3.8 5 5.5 4.6 5.2-1.3 6.1-6.5 5.3-14.2M759.5 572.8c-8.1-10.6-15.8-3.7-23.7-.5-.2-.3-.6-.7-.6-1.2-.1-17.8-2.5-14.8 11.5-18.3 4.6-1.1 9.4-1.4 14.1-.9 11.3 1.4 17.3 9.4 17.7 23.5.3 12.2.1 24.4.1 37.2h-18.4c-.2-1.7-.4-3.7-.7-6.1-.9.6-1.5.9-1.9 1.4-6.3 7.2-13.3 9.2-19.6 5.2-6.2-3.9-8.1-10.9-7.7-18.8.5-9.8 4.7-15.2 13.5-17.9 2.6-.8 5.3-1 7.9-1.6s5.3-1.4 7.8-2m-1.5 10.6c-3.2 3-6.5 6.1-9.7 9.1 1.7 1.9 3.6 5.6 5.3 5.4 5.4-.6 6.6-5.8 4.4-14.5" class="st9"/><path d="M1207.8 710h-30.9c8.2 12.2 17.2 7.6 25.5 5.6.2.4.4.6.5.9 1.2 15.2-.4 17.7-12.8 18.4-3.8.2-7.7.4-11.4-.4-11.2-2.3-17.8-10-19.9-22.5-2.3-14 1.6-27.8 9.9-34.8 8.6-7.2 21.9-7.6 30.1-.7 9.4 8.1 9.5 20.2 9 33.5m-30.8-16.4c.5.9.9 1.8 1.4 2.7h11.1c.5-.7.9-1.3 1.4-2-2.2-2.6-4.5-7.1-6.6-7.1-2.4-.1-4.9 4.1-7.3 6.4m-161.6-221.2c6.9 9.9 15.7 5.2 24.1 3.1 1.4 17.2.3 18.9-13.4 19.4-3.3.1-6.8.3-10.1-.3-11.2-2-18.7-10.5-20.7-22.7-2.2-14.6 2-28.5 10.7-35.2 9.2-7.2 22.4-6.9 30.5.7 6.7 6.2 9.3 16.9 7.8 32.4h-28.7c0 .8-.1 1.7-.2 2.6m10.8-16.1c.6-5.4-.8-9.9-5.2-9.3-2.5.4-4.8 4.9-7.1 7.5.5.6 1 1.2 1.4 1.8z" class="st4"/><path d="M790.6 732.9h-20.1v-58.3c-5.2 1.5-9.6 2.8-14.6 4.2v-18.6c11.9-.5 20.9-15.4 34.6-11.2.1 27.7.1 55.6.1 83.9M1150 419.8c12.4.1 21.1-15.7 34.7-10.8v83.9h-19.6v-58.3c-5.4 1.4-10 2.7-15 4-.1-6.7-.1-12.5-.1-18.8" class="st11"/><path d="M1223.9 944v75.5H727.7V944zm-112.7 1.5H729v72.5h382.2zm2.2 72h108.7v-71.8h-108.7z" style="fill:#baa176"/><path d="M813.5 525.1h19.6v87.6h-19.6z" style="fill:#4b4a4b"/><path d="M1035.6 595.8c5.3 1.5 9.8 3.3 14.4 3.9 1.9.3 4.2-2 6.2-3.1-1.5-1.7-2.9-3.7-4.7-4.9-2.1-1.5-4.6-2.2-6.9-3.3-5.8-2.9-9-7.9-9.1-15.8 0-8.4 3-14.3 9.2-17.7 8.8-4.9 17.8-4 27.1-1v15.5c-3.5-.9-6.9-2.3-10.3-2.5-1.9-.2-3.9 1.4-6 2.2 1.4 1.8 2.6 4 4.3 5.3 1.9 1.4 4.3 1.7 6.3 2.8 5.6 3 9.2 7.6 9.3 15.7.1 8.4-2.7 14.6-8.6 18.3-9.3 5.8-19.2 4.3-29 1.9-1-.2-2.1-2.7-2.2-4.2-.2-4.3 0-8.4 0-13.1" class="st4"/><path d="M916.1 612.9H896v-82.4h20.1z" class="st14"/><path d="M805.5 613H786v-87.6h19.5zm170.5 0h-19.5v-87.6H976z" class="st11"/><path d="M984.4 525.2h19.6v87.6h-19.6z" style="fill:#404348"/><path d="M979.9 733h-19.5v-87.6h19.5z" class="st6"/><path d="M1234.3 677c4.6-2.1 9.2-4.3 14.9-7v22.3c-13.7-1.3-16.1 1.5-16.2 18.3v22.7h-20.1v-60c7 1.6 14.9-3.8 21.4 3.7" class="st14"/><path d="M968 89.6c2.1-13.7 11.6-19.6 20.9-13.6 5.9 3.8 7.4 12.9 2.9 20.8-3.2 5.8-7.3 10.9-11.7 17.5h18.1c-1-4-2.6-7.8-2.5-11.4.1-3.9 1.4-8 3-11.3.9-1.9 3.7-2.4 5.8-3.2.6-.2 2 .9 2 1.3 0 1.1-.4 2.6-1.1 3.3-1 1.1-2.3 1.8-4.2 3.1 2.1 2.1 3.4 3.5 5.5 5.4-6.8 2.5-4.1 8.7-4.7 13.5-.3 2.3-1.2 4.5-1.9 6.8-1.3-1.7-2.6-3.3-4.3-5.4-.4 1.5-.9 3.4-1.4 5.2h-26.6c1.2-3.7 1.7-7.1 3.2-9.4 3.6-5.6 8-10.5 11.7-16.1 2.5-3.9 5.3-9 .4-12.6-1.5-1.1-5.4 2.7-7.5 6-2.3.1-4.8.1-7.6.1m7.9-36.1c-9.3 22-18 43.8-27.8 64.9-1.6 3.5-7.8 3.7-11.8 5.4-.3-.7-.7-1.4-1-2.1.6-1.9 1.1-3.9 1.8-5.7 7.5-17.6 15.6-35 22.4-53 3.4-9.2 7.8-12.8 16.4-9.5" class="st16"/><path d="M219.8 599.6c36.8-1.6 73.2 6.2 110.5 2-3.5 2.2-6.9 4.9-10.5 6.6-11.7 5.3-23.8 5.3-36.1 3-18.2-3.5-36.6-6.5-54.9-9.7-3-.6-6-1.3-9-1.9" class="st17"/><path d="M861.1 597c-2.2 9.8-4.5 19.3-6.7 29.2h-16.5c1.6-9.9 3.1-19.3 4.7-29.2z" class="st7"/><path d="M206.3 274.7c-20.7-7.6-41.7 1.2-49 19.9-.1-2.9-1-6.1-.3-8.6 4.7-15.4 26.2-28.9 38.9-23.8 4.5 1.8 8.1 6.7 12.1 10.2-.7.7-1.2 1.5-1.7 2.3" class="st3"/><path d="M211.1 275.7c-3.4-12.2.6-23.6 9.1-30.2 11.2-8.7 27.6-9.1 36.5.4-21-2.3-37.7 3.8-45.6 29.8m1250.5 263c-12.7-3.9-25.2-7.8-38-11.7-1.1 13.2 6.3 14.3 13.4 16.2 6.1 1.6 12.1 3.6 18 5.4-.2.9-.3 1.9-.5 2.8-7-1.8-14.1-3.4-21.1-5.4-2.8-.8-5.4-2.9-8.2-3.9-7.1-2.6-10.3-10-7.4-18.1.5-1.4 2.9-3.1 3.9-2.8 13.5 4.8 26.8 10 40.2 15.1.1.8-.1 1.6-.3 2.4" class="st18"/><path d="M1263.4 735c-6.7.1-11.5-4.8-11.6-11.7-.1-6.7 4.4-11.5 10.8-11.7 7-.2 11.6 4.1 11.8 11.2.2 7.2-4.1 12-11 12.2" class="st8"/><path d="M242.3 574.8c1-32.1-16-55.7-25.3-82.9 10.3 14.8 18.6 31.1 24.6 49 2.5 7.5 3.6 15.9 4.7 24 .4 3.2-1.4 6.8-2.2 10.2-.7-.2-1.2-.2-1.8-.3" class="st18"/><path d="M932.1 528.5h17.4c-3.5 7.8-6 15.8-10.3 21.7-2.3 3.2-7.8 2.8-13.2 4.5 2.3-10 4.1-17.8 6.1-26.2" class="st7"/><path d="M952.8 121.7c2.7-6.5 5.6-11.9 7.4-17.8 2.8-9.7 8.1-12 16.4-9-4.4 8.7-8.6 17.1-13.5 26.8z" class="st17"/><path d="M1420.1 509.1c-8.5 0-11.1-4.4-8.4-12.8 1.4-4.3 3.3-8.4 5.4-12.4 2.8-5.5 6.4-6.9 11.4-3.5 5.4 3.6 4.3 8.1 2 13.1-1.9 4.1-3.7 8.2-6.1 11.9-1.2 1.9-3.4 3-4.3 3.7m-7-5.3c8.5 1.2 13.2-2 13.1-8.5 0-2.3-1.4-5.6-2.9-6.6-1.1-.7-4.3 1-5.3 2.8-2 3.4-3.1 7.6-4.9 12.3" class="st18"/><path d="M320 584.6c-17.7 6.1-49.9-13.7-53.4-33.8 15.1 19.9 31.3 34.1 53.4 33.8" class="st19"/><path d="M1630.6 708.2h2.2c-2.4 19.6-3.2 39.7-8.3 58.6-1-.2-2-.3-3-.5.3-4 .4-8 1-11.9q3.9-23.1 8.1-46.2M993.5 52.8c-2.6 12.1-6.9 20.8-18.3 17.6 5.7-18.7 5.7-18.8 18.3-17.6" class="st17"/><path d="M153.9 298.9c-9.8 10-19.7 20.1-29.7 30.1 3.9-16.7 20.7-32.4 29.7-30.1" class="st3"/><path d="M296.4 358c7.1-5.3 13.5-9 18.8-14.2 6.9-6.9.8-15.2.1-23.2 4.9 3.2 7.5 12 6.2 19.6-1.6 8.9-10.8 15.7-25.1 17.8" class="st17"/><path d="M1019.4 120.7c-6.9 2-9-1-9.4-7.6-.2-3.6-2.4-7.2-2.2-10.6.2-3.5 2.3-6.8 3.5-10.2 1.3 1.6 2.5 3.2 3.8 4.8 1 1.3 2.1 2.4 3.3 3.8-5.8 6.6-4.1 13 1 19.8" class="st16"/><path d="M1381.4 105c-7.5 4.2-10 2.3-11.2-7.4-.4-3.1-2.5-5.9-4.2-9.3 3 .6 5.9 1.1 8.7 1.6-.4.9-1.4 2.2-1.3 2.5 2.6 4.3 5.3 8.4 8 12.6" class="st11"/><path d="M1411 103.1c-3.2-5.3-5.4-8.7-8.2-13.4-.7 4.9-1.2 8.2-1.7 11.6-.3 0-.7-.1-1-.1V81c3.6 5.5 6.3 9.4 9.3 14.1.3-4.2.5-7.4.6-10.6h.9c.1 5.5.1 10.9.1 18.6M302.8 241.6c5.2 5.5 10.4 10.9 15.6 16.4-.4.7-.7 1.3-1.1 2-3.2-2.3-6.4-4.6-10-7.2-1.3 2.4-2.6 4.8-3.8 7.1-.6-.1-1.2-.1-1.7-.2-.3-5.8-.5-11.7-.8-17.5.5-.2 1.2-.4 1.8-.6" class="st19"/><path d="M137.9 332.5c-7.9 10.2-8.9 21.5-3.5 33.8-10-14.4-8.5-29 3.5-33.8" class="st17"/><path d="M254.4 284.1c.4-9.9.8-19.4 1.2-30 5.9 11.6 4.7 26.8-1.2 30" class="st19"/><path d="M153.4 493.4c-3.4-9.8-6.9-19.5-10.3-29.3.7-.4 1.3-.8 2-1.1 5.9 8.3 8.6 18.5 10.3 29.3-.6.3-1.3.7-2 1.1" class="st17"/><path d="M1456.1 83.1c1.9 5.9 3.8 11.7 5.3 16.2-3.8-.7-7.6-1.3-11.8-2 1.1-3.4 2.8-8.8 4.6-14.1.6-.1 1.2-.1 1.9-.1" class="st19"/><path d="M529.7 623.2c-1.5-.6-3.3-2.1-4.5-1.6-4.8 2.1-9.3 4.9-14.6 7.7v-8.9c7.3-1.3 14.4-2.6 21.4-3.9l-.1-.1c0 2.3-.1 4.5-.1 6.8z" class="st18"/><path d="M1381.4 105c-2.6-4.2-5.4-8.3-7.9-12.6-.2-.3.8-1.6 1.3-2.5 1.8-2.1 3.7-4.2 5.9-6.6 1 1.8 1.7 3.6 2.8 5.1 1.1 1.6 2.6 2.8 3.2 3.4-1.8 4.4-3.5 8.8-5.3 13.2" style="fill:#dbcd00"/><path d="M176.5 324.5c8.1-4.2 14.9-7.7 22.2-11.4-3.2 8.7-13.3 14.4-22.2 11.4" class="st19"/><path d="M160 378c-5.6 8.8-14.2 10.1-20.2 2.9 6.8-1 13.5-2 20.2-2.9" class="st17"/><path d="m349.4 421.1.1.1c.6-1.3 1.2-2.5 1.5-3.3 8.3 2.5 16.7 5 26.8 8.1-5.9 0-10.5.6-15-.2s-9-3.1-13.4-4.7" class="st19"/><path d="M243.9 284.2c.8 3.7 1.5 6.4 2.1 9.1-5.3 5.8-8.6.4-13.1-4.1 4-1.8 7.3-3.3 11-5" class="st17"/><path d="M529.7 623.2h2.1c-2 11.8-10.3 19.8-21.7 19.8 7.8-4.9 17.2-7.4 19.6-19.8m1002.1-522.3c-3.9 1.5-7.6 1.3-8-4.6-.2-2.6 2-6.2 4.1-7.8.9-.7 3.8 2.4 5.9 3.8l-.9 2.4c-2.1.2-4.4.4-6.5.6-.2.5-.4 1.1-.6 1.6z" class="st19"/><path d="M253.6 398.7c7.4-2.2 13.3-4 19.7-6-2.8 6.9-9.3 8.9-19.7 6" class="st17"/><path d="M228.8 414.4c-5.1 2.8-10 5.6-15.1 8.4 1.9-7.6 10.5-12.4 15.1-8.4" class="st21"/><path d="M244.5 265.6c-5.2 2-10.3 4-15.4 6 3.3-8.7 9.1-8.5 14.8-8.4z" class="st17"/><path d="M1463.3 88.1c1.1 2.7 2.2 5.4 3.6 8.7 1.3-3.2 2.4-5.9 3.5-8.6.5.3 1 .6 1.6.9-1.4 4.2-2.9 8.4-5.2 14.8-2.1-6.5-3.5-10.8-5-15 .6-.2 1-.5 1.5-.8" class="st19"/><path d="M222.8 403.6c-5.4 3.4-10.5 6.6-16.5 10.4 4.2-9.8 10.9-13.8 16.5-10.4" class="st17"/><path d="M227.6 471.5h2.1c.8 8.4 1.5 16.9 2.3 25.3-.6.1-1.2.2-1.8.4-.8-8.5-1.6-17.1-2.6-25.7" class="st19"/><path d="M1588.3 98.1V86.9c3.2-.4 5.7-.7 8.4-1.1v7.1c-1.3-.7-2.3-1.2-2.3-1.2-2.2 2.5-4.1 4.5-6 6.6 0-.1-.1-.2-.1-.2" class="st22"/><path d="M166 306.5c2.1 6.1 4.2 12.1 6.3 18.2-.8.4-1.5.9-2.3 1.3-2.3-6.1-4.6-12.1-6.9-18.1.8-.5 1.9-1 2.9-1.4m127.3-45.6-14.4 3.9c-.2-1-.4-1.9-.6-2.9 4.8-1.6 9.5-3.2 14.3-4.8.2 1.3.4 2.6.7 3.8" class="st19"/><path d="M232.9 424.2c3.9 5.1 7.8 10.3 11.7 15.4-.6.7-1.2 1.5-1.9 2.2-3.8-5.1-7.8-10.2-11.6-15.4.6-.7 1.2-1.5 1.8-2.2" class="st17"/><path d="M1581.2 84.8v16.9c-1.9-3.1-4.8-5.7-4.8-8.2 0-3.5 2.2-6.9 3.5-10.3.5.6.9 1.1 1.3 1.6" class="st22"/><path d="M1474.8 547.7c-1.3-1.2-2.6-2.3-3.9-3.5.1-.2.2-.4.3-.7 1.6.9 3.2 1.9 4.9 2.8-.5.5-.9.9-1.3 1.4m-8.4-7.8c-.6.1-1.1.1-1.7.2.6 0 1.1-.1 1.7-.2" class="st1"/><path d="M1588.4 98.2c-.4.7-.7 1.5-1.1 2.2-.3-.3-.5-.7-.8-1 .6-.5 1.2-.9 1.7-1.4z" class="st22"/><path d="m532.1 616.5.4-.4c.1 0 .2.1.3.1-.3.1-.5.1-.8.2.1 0 .1.1.1.1" class="st18"/><path d="m1466.4 539.9.2-.2z" class="st1"/><path d="M1673.2 442.5c2 2.8 2.8 4 3.9 5.4.9-.7 2.2-1.2 2.6-2.3 4.8-12.1 14.2-15.2 23.4-19.1 10.1-4.4 20.3-9.1 30.1-14.6 5.1-2.8 8.4-2.3 11.4 3.4 5.2 9.6 10.5 19.1 15.8 28.6.7-.5 1.3-1 2-1.5-6.7-13.5-13.4-27-20.2-40.8.4-.3 1.4-1.1 2.5-1.9-3.7-5-6.7-4.6-30.8 4.9h17.3c-11.8 10.8-25.8 14.2-40 18.3 11.3-17.4 13.9-38.5 17.7-61.1 2.7 12.1 5 21.9 7.2 31.7.4 0 .8-.1 1.1-.1-.9-12.8-2-25.5-2.5-38.3-.3-6.3 0-12.8.9-19 1-7.1 5.4-9.1 9.1-3.7 6 8.6 11.1 18 15.9 27.7 6.9 14.2 13 28.9 19.3 43.4.6-.4 1.3-.7 1.9-1.1-.8-2.7-1.4-5.4-2.4-7.9-5-12.5-10-24.8-14.8-37.4-1.6-4.2-3.2-8.8-3.3-13.3-.1-3.1 2.5-6.2 3.9-9.4 1.5 1.9 3.1 3.8 4.6 5.8.9 1.2 1.4 2.9 2.2 4.1 7.7 11.4 35.3 16.8 44.9 4 2.5-3.4 7.4-4.5 11.2-6.3 2.4-1.1 5-1.5 7.5-2.2 0-.8.1-1.6.1-2.3-3.2-1-6.4-2-10.2-3.2 3.2-11.5 7.2-22.1 14.1-30.8 1.2-1.5 3.4-1.7 5.3-2.5.5 2.3 1.3 4.5 1.6 6.8 1.8 16-1.8 30.1-10.6 42.5.9.1 1.8.1 2.7.2.5 4.5 1.8 9.2 1.2 13.4-4.4 30-8.3 60.2-14.4 89.7-2 9.8-8.6 20.4-15.6 26-16.1 12.7-24 30.5-28.3 52.2-3.4 17.2-7.8 34.1-11.7 51.2-.5 2.1-1.1 4.1-1.6 6.2-.7 0-1.5-.1-2.2-.1-.4-2.9-1.4-6-1.1-8.8 2-18.1 4.3-36.2 6.4-54.2.3-3 0-6.1 0-9.2-.9-.3-1.8-.6-2.6-1-1.6 4.2-4.2 8.2-4.7 12.5-2.1 16.1-3.5 32.4-5.2 48.6-1.2 11.2-2.8 13-11.9 13.7-4.3.3-8.5.5-12.9.7-4.5.1-6-2.6-5-7.9.7-3.7 1.1-7.5.3-11.7-1 4.4-2.3 8.8-2.9 13.3-.6 4.9-2.9 6.6-6.6 6.3-13.1-1-26.1-1.9-39.1-3.1-4.1-.4-7.1-2.7-6.1-8.6q3-17.1 6.6-33.9c.5-2.3 2.4-4.1 3.8-6.2-4.9-7.4-8-7.4-10.6 1.5-3.2 11.2-5.4 22.8-7.9 34.3-.6 2.9-1.2 5.8-2.1 10.1-15.8-4.7-31.1-9.1-46.3-14.2-1.5-.5-3.3-5.2-3-7.6 2.5-20.5 5-41.1 8.8-61.3 1.6-8.5 1.4-15.5-1.2-23.2-4.7-14.1-8.6-28.5-13.3-42.6-7.6-23.1-16.1-45.8-23.1-69.1-4.7-15.5-8.2-31.7-10.7-47.9-2.1-13.5 1.9-25.9 10.5-35.2 12.6-13.6 25.2-26.8 37.9-40.3 6.9-7.4 14.2-9.5 23.7-7.8 8.4 1.6 17.3-.5 25.9-2.1 11.9-2.2 12.6-2.2 18.8 10 3 5.9 7.2 10.5 14.7 10.9-4.6-4.4-8.7-7.5-11.8-11.6-4.9-6.3-4.1-9.7 2.8-12 9.1-3 18.3-5.6 27.5-8.1 5.1-1.4 8.4.8 9 8.6 1.2-2.2 2.1-3.7 2.9-5.2 10.1 15.2 7.4 37.2-7.3 49-16.1 13-34.2 18-53.6 14-5.3-1.1-9.5-4-11.3-11.3-.9-3.4-4.5-5.7-6.8-8.6l-2.4 2.1c2 6.4 3.9 12.9 6 19.3-6.8 3.6-8.3-4.9-12.5-8.9-2.6 9.4 1.9 12.7 6.8 15.9 2.2 1.5 6.2 4.1 5.9 5.3-.6 3.4-2.4 7.7-4.8 9.1-5.8 3.3-12.2 5.3-18.3 7.5-2.4.9-5.2.7-8.7 1.2 7.2 10.6 14 2.2 20.5 1.6.2.8.3 1.6.5 2.4-6.4 2.7-12.7 6-19.1 7.9-6.9 2.1-14 2.9-22.1 4.5 10.1 9.2 19.9.2 30.7.5-6.4 14.2-17.3 17.8-26.8 23.9.2.7.4 1.3.6 2 5.2-1.8 10.2-3.5 16-5.5-.3 2-.5 3.9-.8 6.4 6.7.2 9.7-6 13.3-11.1 8.6-12.4 17.1-25.1 25.7-37.5 2-2.9 4.5-5.7 7.2-7.6 3.3-2.3 6.8-9.5 10.8-.9.1.3.8.5 1 .4 10.8-5 6.7 5.8 6.7 10.4 0 5.6-1.6 11.2-2.6 16.8.5.3 1.1.5 1.6.8 1.6-4.6 3.5-9.1 4.9-13.8 1.3-4.5 3.1-5.6 7.2-4.5 14.4 4.2 16.9 7.3 17.9 25.4 1.1 20.9-1.1 41.4-8.8 59.9-4.8 11.3-11 23.1-19.1 30.6-10.4 9.7-15.7 26.1-29.5 31 .4.8.9 1.6 1.3 2.4 4.7-3 9.9-5.2 14-9.1 4.2-4.2 7.4-9.9 11.6-15.8m30.3 37.7c-11.2-6.5-19-6.1-35.4-.6-9.1 3-18.2 6-27.4 8.7-6.9 2-12.8-.3-17.6-7.1-3.3-4.7-7.2-8.8-10.8-13.1-.5.4-1.1.8-1.6 1.3 1.7 6.7 3.5 13.4 5.4 20.4-2.7.3-5.1.5-9 .8 8.2 9.8 16.9 12.2 26.5 12.7-1.4-2-2.7-4-4.2-6 24.8-5.7 49.4-11.4 74.1-17.1m-60.9 27.8c-.1 1.5-.2 3-.4 4.5 3.7 1.3 7.4 3.5 11.1 3.8 11.9.8 23.9 2.1 35.8 1.1 15.3-1.3 29.1 1.1 41.1 13.7 2.4 2.5 5.7 3.9 8.5 5.8-5.4-7.8-11.2-14.3-17.7-19.8-3.5-2.9-8-5.5-12.1-5.7-11.9-.5-23.9.9-35.8.4-8-.3-15.9-2.6-23.8-3.8-2.1-.3-4.4 0-6.7 0m79.7-7.5c5 9.1 17.5 16.4 25 14.2 8.1-2.5 20.8-21 22.5-34.5-7.6 7.3-13.7 16.4-21.4 19.6-7.8 3.2-17.4.7-26.1.7m89.1-129.5c-.5-.3-1.1-.5-1.6-.8-4.6 13.7-9.2 27.3-13.4 41.1-.7 2.2 1.1 5.6 1.7 8.4 1.9-1.8 5.1-3.2 5.5-5.5 3-14.2 5.3-28.7 7.8-43.2m-179.6-100.6c6.4-9.6 6.1-19-1.2-28.8.4 10.5.8 18.9 1.2 28.8m-19.1-29.3c-4.3 7.8-1.6 21.4 5.9 29-2.2-10.3-4-19.3-5.9-29m77.5 12.6c13.5 4.6 25.8-2 24.5-14.4-5 13.6-15.4 10.7-24.5 14.4m-128.9 56.7c2 10.3 5.6 13.3 10.5 9.7-3.2-3-6.3-5.9-10.5-9.7m201.4 135.1c-.1-.2-.3-.4-.4-.6-.1.2-.3.4-.4.6l.6.6c0-.2.1-.4.2-.6" class="st23"/><path d="M1580.2 607c3.1-5.7 2.8-9.7-3.3-11.5-1.2-.4-3-2.9-2.9-4.3.3-6.8 1.1-13.6 1.8-21.3 30.4 19.4 63.1 23.4 95.8 26.8 32.7 3.5 65.6 7.3 99-6.1-.7 5.5-1.5 11-2 16.5-2.3 21.5-4.8 42.9-6.7 64.4-1.1 13-6.5 20.3-16.6 24-15.7 5.7-31.6 5.8-47.6 4.9-40.7-2.2-80.4-12.5-119.3-27.1-10.5-4-14.6-17.3-8.7-28.8.8-1.7 3.2-2.5 5.1-3.1 8.9-3.2 17.9-6.3 26.9-9.4l-.6-3.6c-3.1.8-6.7.9-9.5 2.6-7.8 4.6-15.7 6.4-24.3 5.5-15.6-1.7-18.7-7-16.1-27.2 8.1 2.2 16.4 6.9 24.4 6.1 7.7-.8 15.1-7.1 22.6-11-.4-1.1-.8-2.2-1.1-3.3-5 2.7-9.8 5.3-14.8 8-.9-.8-1.5-1.4-2.1-2.1" class="st24"/><path d="M1773 267.2c-7.2 17.5-14.2 35.2-21.6 52.5-2.7 6.5-8.1 8.6-13.8 8.4-2.4-.1-5-.8-7.3-1.7-14.9-5.8-18.8-14.4-13.7-32.4 2.6-9 7.2-17 10.5-25.7 1.5-4.1 2.7-8.7 3.1-13.1 1.4-17.6 3.1-35.3 3.5-52.9.3-14.3 8.4-18.8 16.9-21.7 10.6-3.6 21.1-.2 30.1 7.7 5.3 4.6 7.9 11.1 6.3 20.3-3.9-3.1-7.6-6-11.2-8.8-.3.5-.6.9-.9 1.4 1.8 2.5 3.7 5 5.6 7.6 5.9 8.4 3.9 17.1-4.6 20.6-4.2 1.7-8.6 2.6-12.9 3.8 0 .8.1 1.5.1 2.3 5.6.5 11.2 1.1 17.2 1.7-4.2 10.6-8.1 20.9-12.1 31.1-.2.3-.4.6-.7.9.2-.4.4-.7.5-1.1 1.1-.9 2.1-1.9 3.2-2.8.9.6 1.4 1.2 1.8 1.9m2.4-45.8c-4.3-1.7-8.6-3.4-14-5.5 2.7 9.4 5.8 10.7 14 5.5m-51.1 67.5c4.8 3.4 9.1 6.6 14.7 10.6-3.3-9-7.3-11.5-14.7-10.6" class="st23"/><path d="M1651.8 224.7c-.8.7-1.5 1.9-2.3 1.9-13.9 1-27.7 1.9-42.1 2.8 3.2-16 6.2-30.4 9-44.7l-1.8-.6c-3.5 12.5-6.7 25.1-10.6 37.3-4.2 12.6-9.5 24.5-20.6 31.9 9.1-33.5 17.9-67.1 27.3-100.4 1.7-6.1 5.2-11.7 8.5-16.9 10.6-17 26.1-21.9 42.2-13.7 7.1 3.6 11.4 10 12.1 19.4.5 8.7-2.7 15.4-8.4 20.6-1.3 1.2-2.3 3-3.4 4.6 1.7-.3 3.4-.5 5.2-.8.6-.1 1.2-.7 2.2-1.3.1 1.6.4 2.9.2 4-3.3 16.1-6.7 32.2-10.1 48.3-1 4.6-2.1 9.3-7.5 7.7-.5-3.2-.1-7.6-1.7-9.4-5.1-6-11.3-8.3-17.2-5.7 5.5 4.7 11.2 9.7 17.1 14.6.5.5 1.2.3 1.9.4m14.1-68c.1-.8.1-1.6.2-2.4-9-1.6-18-3.3-27.4-5 1.4 10.2 5.5 14.8 14.3 16.4-2.2-3.5-3.8-6-5.8-9zm-15.1-28.4c-.3.7-.6 1.5-1 2.2 4.9 4.2 9.7 8.5 14.6 12.7.5-1 1.1-2.1 1.6-3.1-4.9-3.9-10-7.8-15.2-11.8M1819 292.2c-4.3 7.8-8.2 15.8-12.8 23.3-4.3 7.1-9.3 13.6-13.6 20.7-7.7 12.8-24.3 11.3-30.7-2.8-1-2.2-3.2-3.5-5.9-6.2 2.8-8.4 6.1-17.8 9.3-27.1 6.7-19 13.5-38 20.3-57 5.1-14.2 8.8-16.8 20.4-11.3 5.9 2.8 11.5 7.3 16.2 12.5 3.5 4 4.8 11.7.2 15.5-3.4 2.9-9 2.2-13.7 2.8-.6.1-1.8-1.1-2-1.9-1.8-9.2-5.3-4.3-9.1.2 5.3 2.9 10.6 5.8 15.4 8.4.6 4.6 1.9 9.1 1.4 13.3-.5 4.4-2.6 8.5-3.1 13.8 2-2.2 4.2-4.3 6.2-6.5.5.8 1 1.5 1.5 2.3m-42 27.6c5.4 3 10.7 5.9 16.1 8.9-3.1-9.3-9.7-9.1-16.1-8.9m-5.4 12.9c2.2 8.1 6.8 9.7 12.8 6.8-4.2-2.2-8.5-4.5-12.8-6.8m-83.2-112.6v-22.4c-.4-.1-.9-.3-1.3-.4-.8 5-1.8 10-2.4 15.1-.6 5.6-1.3 10.6-7.3 10.4-7.7-.3-11.6-3.5-11.3-11.6.3-7.6 1.8-15.3 3.7-22.6 2.6-9.9 4.8-20.9 9.8-28.8 4.6-7.1 12.3-12.9 19.4-15.3 10.3-3.4 20.3 2.2 28.8 10.1 1.4 1.3 2.4 4.1 2.6 6.4 1.4 11.3-1.1 21.9-6.9 30.3-5.6 8.1-13.8 6.7-21.5 4.4-2.5-.7-5-1.9-7.6-1.9 10.1 7.3 21.3 8.3 33.8 7.3-.6 7.1-1.1 13.8-1.8 22.7-12.4-16.5-25-5.5-38-3.7m-185.5 376c1.8-1.4 2.9-2.7 4.4-3.2 13-4.5 26-8.8 39-13.2 5-1.7 7.9.8 8.9 6.7.3 1.6-.2 4.2-1.1 5.1-9.5 9.9-18.7 20.7-32 22.9-4.5.8-8 1.4-10.4-5.2-1.9-4.7-5.6-8.4-8.8-13.1" class="st25"/><path d="M1570.6 598.5c-.6 1-2.3 3.7-4.1 6.5-1.9-2.5-4.4-4.6-5.5-7.5-1.5-4.2-1.8-9.1-2.9-13.6-1.7-6.9-5.7-9.9-11.4-8.3-6.2 1.7-12.2 4.1-18.4 5.4-2.7.6-5.8-1-8.6-1.5 2-2.9 3.5-7.7 6-8.4 8.2-2.6 16.7-5.4 25-5.2 12 0 20 13.3 19.9 32.6m143.7-311.8c-1 3.6-1.8 7.3-3.2 10.7-6.9 16.7-18.1 19.2-29.7 7.2 10.6-6.2 21.4-12.5 32.2-18.8.2.3.4.6.7.9" class="st26"/><path d="M1493.8 606.8c-7.7-3.7-9.5-9.4-5.4-16.7 5.7-10.2 14.8-13.1 24-14.9 1.1-.2 3.3 1.3 3.6 2.6.4 1.7 0 4.7-1 5.8-1.7 2-4.2 4.1-6.4 4.2-10.1.5-14.6 7-14.8 19m-21.6-16.7c2.9-4.7 5-9.9 9.4-5 1.5 1.7 2.6 7.3 1.9 8.1-4.2 4.7-7.4.7-11.3-3.1m113.4-39.7c-.4 2.9-.4 6-1.3 8.6-.6 1.7-2.4 2.8-3.6 4.2-.9-2.2-2.9-5.1-2.3-6.5 1.1-3 3.5-5.4 5.4-8 .5.6 1.1 1.2 1.8 1.7m172.4 39.1c8-3 11.7-8.3 10.7-17.6h1.9c.3 3.1 1.3 6.4.7 9.2-1 4.7-6.2 8-13.3 8.4" class="st22"/><path d="M1577.2 611.1c-1 .1-1.9.2-2.9.3 0-.3-.1-.6-.1-1 1-.2 1.9-.4 2.9-.5.1.4.1.8.1 1.2" class="st24"/><path d="M1771.5 265.3c.3-.9.7-1.9 1-2.8.4.4.9.8 1.3 1.2-.3 1.1-.6 2.3-.9 3.4-.3-.6-.8-1.2-1.4-1.8" class="st23"/><path d="M1582.1 609c-1.1.1-2.3.3-3.4.4.5-.8 1-1.6 1.6-2.3.5.6 1.1 1.2 1.8 1.9" class="st24"/><path d="M1820.1 288.5c-.3 1.2-.7 2.5-1 3.7-.5-.8-1-1.5-1.5-2.3.5-.8 1-1.7 1.5-2.5.2.3.6.7 1 1.1" class="st25"/><path d="M1819 287.4c.5-.5 1.1-1 1.6-1.5-.2.9-.4 1.7-.7 2.6-.2-.4-.6-.8-.9-1.1" class="st25"/><path d="M1713.6 285.8c.5 0 1 0 1.4-.1-.2.3-.5.7-.7 1-.3-.3-.5-.6-.7-.9" class="st26"/><path d="M382.4 682.3c-1.7 6.2.7 9.3 5.4 9.5 3.9.2 8-1.5 11.9-1.2 3 .2 7.6 1.3 8.6 3.8 5.1 12.1-1.1 25.8-12.3 27.1-6.9.8-14 0-20.9.2-2.7.1-5.5.8-8 2.8 1.7.3 3.5.5 5.3.8 7.5 1.3 11.4 6 12.6 14.8 1 8-1.4 14.5-8.8 17.3-14 5.3-28.1 10.3-42.4 13.4-33.9 7.5-68.3 12.3-102.8 10.7-9.1-.4-18.3-2.7-27.3-4.6-8.7-1.8-14.3-8.6-15.5-19.3-2.5-21.4-4.6-42.8-6.7-64.3-.7-7.4-1.3-14.8-2-22.9 33.1 14.4 66.3 10.9 99.4 8.3 32.9-2.6 66-5.3 97.7-25 .3 8.5.6 16.1.8 23.6.1 3.1.1 6 3.6 3.4.5.4 1 1 1.4 1.6" class="st24"/><path d="M423.1 636.5c5.4 4.4 10.6 8.3 15.3 13 1.1 1.1.1 5.3.1 8-2-.3-4.8.2-5.9-1.2-7.6-9.5-16.1-5.3-21.4 3.4-4.3 7.1-7.8 14.9-12.3 21.8-1.6 2.5-5 3.2-7.5 4.7.1-3.2-.7-7.2.5-9.5 5.8-10.8 11.8-21.5 18.5-31.4 2.8-3.8 7.6-5.3 12.7-8.8" class="st26"/><path d="M435.8 686.7c-9.5 18-15.7 36.8-29 49.5-5.5 5.3-7.7 5.2-9.7 1.7 5.8-5.5 11.8-10.2 16.7-16.4 2.5-3.2 3.5-8.9 4.2-13.7 1.6-14.5 3.7-17.5 17.8-21.1m-70.9-56.6c2.9 2.8 6.5 5 8.5 8.5.9 1.6-.3 6.5-1.7 8.7-3.3 4.8-6.8 3.6-8-2.6-.7-3.9-.8-8.1-1.1-12.1.6-.8 1.5-1.7 2.3-2.5" class="st22"/><path d="M382.4 679c.7-.2 1.4-.4 2.1-.5-.4.6-.7 1.2-1.1 1.8-.3-.5-.7-.9-1-1.3" class="st24"/><path d="m381.1 680.5 1.2-1.5c.4.4.7.8 1.1 1.2-.4.7-.7 1.4-1.1 2-.3-.5-.8-1.1-1.2-1.7" class="st24"/><path d="M119.9 392.2c-.4-1.3-.8-2.6-1.3-3.8.3-.2.7-.5 1-.7.7 1 1.3 2.1 2 3.1-.5.5-1.1.9-1.7 1.4M271.5 354c-.1-.7-.2-1.5-.3-2.2.5.1 1.1.3 1.6.4-.4.6-.9 1.2-1.3 1.8m-149.8 36.8c.1.7.3 1.4.4 2.2-.7-.2-1.4-.5-2.2-.7.6-.6 1.2-1 1.8-1.5" class="st0"/><path d="M1133.2 701.8c-.1 9.6-3.2 15.4-7.9 14.7-6.3-.9-6.9-7.1-6.7-13 .1-6.3 1-13.1 7.5-13.3 6.3-.2 6.6 6.7 7.1 11.6" class="st22"/><path d="M1226.3 451.7c-.7 6-1.1 12.6-2.3 19-.4 2.2-2.7 3.8-4.2 5.7-1.4-1.8-4.2-3.6-4.2-5.5-.3-12.9-.3-25.8.2-38.6.1-2 2.7-3.8 4.2-5.7 1.5 2.1 3.9 3.9 4.5 6.3 1 5.9 1.2 12.1 1.8 18.8m-153.4 252c-.5 2.4-.5 6.5-2.1 8.4-1.8 2.3-5.7 4.5-7.8 3.6-5.5-2.4-5.6-9.3-4.3-14.7.9-4.1 3.8-7.8 6.7-10.7.5-.6 4.8 3.5 6.6 6.1 1 1.4.6 4.2.9 7.3" class="st26"/><path d="M506.7 584.6c.8-4.1.9-7.3 2-9.8 2.1-4.8 5.4-6.6 9.5-3.3 3.8 3.2 4.7 15.9 1.3 21.4-2.5 4.1-6.1 5.8-9.1 1.9-1.9-2.8-2.6-7.2-3.7-10.2" class="st22"/><path d="M776.3 462.6c-.3 9.8-3 14.3-7.8 13.9-4.8-.3-7.6-5.9-7.3-14.4.2-8.2 3.3-13 8.3-12.2 6.7 1.2 6.7 7.6 6.8 12.7M1171.7 583c-.4 6.1-.5 12.7-7.3 13.5-5 .5-7.9-4.9-7.9-13.6 0-8.3 2.8-13 7.7-13 5 .1 7.6 4.6 7.5 13.1m217.8.3c-.3 6.3-.8 12.6-7.5 13.2-5 .4-7.7-5-7.7-13.9.1-8.3 2.9-12.9 7.9-12.7s7.4 4.8 7.3 13.4" class="st26"/><path d="M706.6 706c.4 5.8-.8 11-6.2 11.9-1.6.3-3.7-3.3-5.6-5.1 3.2-3.2 6.5-6.4 9.7-9.6.8 1 1.4 1.9 2.1 2.8m392.2-242.7c2.2 8.8.9 13.9-4.6 14.6-1.6.2-3.6-3.5-5.5-5.4 3.6-3.1 6.8-6.1 10.1-9.2M574 586c.4 5.8-.7 10.9-6.2 11.9-1.6.3-3.7-3.2-5.7-5 3.2-3.2 6.5-6.4 9.6-9.6.9.8 1.6 1.8 2.3 2.7m440.1 117.7c.8 7.7 0 12.9-5.4 14.2-1.6.4-5.4-2.9-5.5-4.6-.4-9.7 6.8-5.4 10.9-9.6M758 583.4c2.3 8.7 1 13.9-4.5 14.6-1.6.2-3.4-3.5-5.3-5.4 3.3-3.1 6.5-6.2 9.8-9.2m419 110.2c2.4-2.3 4.9-6.5 7.4-6.5 2.2 0 4.5 4.6 6.6 7.1-.5.7-.9 1.3-1.4 2h-11.1c-.6-.8-1.1-1.7-1.5-2.6" class="st22"/><path d="M1026.2 456.3h-10.7c-.5-.6-1-1.2-1.4-1.8 2.3-2.6 4.5-7.1 7.1-7.5 4.2-.6 5.6 3.9 5 9.3" class="st26"/><path d="M1111.2 945.5v72.5H729v-72.5zm-244.7 36.1c1.8 5.1 3.6 10.1 6.1 16.7 1.8-4 3-6.6 4.7-10 .7 1.9 1.1 3.1 1.5 4.3.5 1.4 1.1 2.8 1.6 4.1.6.1 1.3.3 1.9.4 1.5-5.4 2.9-10.8 4.5-16.2-.7-.4-1.3-.7-2-1.1-1.1 2.5-2.1 5.1-3.4 8.1-1.3-3-2.4-5.5-4.1-9.2-1.9 4.4-3.1 7.3-4.4 10.2-2.4-2.7.3-11-6.4-7.3-1-.3-2.2-1.2-3.1-.9-2.9.9-7 1.4-8.3 3.8-1.2 2.3-.6 8.4 1 10.3 1.8 2 5.9 1.1 8.9 1.5 0-.7 0-1.4.1-2.1-2.5-.7-5-1.5-7.5-2.2.1-.6.2-1.2.3-1.7 2.6-.3 5.2-.6 8.1-1 .2-2.9.4-5.3.5-7.7m85.1 14.9c.9-.1 1.8-.2 2.8-.4 0-3.1.5-6.4-.2-9.3-.6-2.5-2.2-6.3-3.8-6.6-5.1-.8-10.3-.3-15.1-.3v16.3c.5 0 1 .1 1.5.1.9-4.4 1.8-8.9 2.7-13.3.7.2 1.5.4 2.2.6.5 4.3 1.1 8.6 1.6 12.9.5 0 1 0 1.5-.1.9-4.5 1.9-9 2.8-13.4.7.2 1.5.4 2.2.5.8 4.4 1.3 8.7 1.8 13m-182.5-20.8c-.8.1-1.6.3-2.4.4.5 6.1.8 12.3 1.7 18.4.2 1.1 3 1.6 6.1 3.1-1.1-2.6-1.4-3.3-1.6-3.9-.8-2.2-2.3-4.5-2.2-6.7.1-1.6 2.2-3.1 3.5-4.6 1 1.9 2.5 3.6 2.8 5.6.9 8.8.8 8.8 6.3 7.2-5.4-4.6-4.4-9.5-1.5-12.8-1.4-2.3-2.6-4.3-3.8-6.3-3.4 5.6-5.1 5.6-8.9-.4m213.9 5.4v15.2c1.9-1.8 2-3.6 2.5-5.3.9-3 1.8-8.4 3-8.5 4.8-.5 3.8 4.6 3.8 8.3 0 5.3 1.9 6.9 6.7 4.8-5.6-4.8-5.2-9.7-1.9-13.4-1.4-1.9-2.7-3.8-3.3-4.6-3.5 1.2-7.3 2.3-10.8 3.5m56.4 7.4c-2.7-3.7-4.4-7.7-6.4-8.1-2.1-.5-6.2 1.7-6.9 4-.9 2.9-.3 8.2 1.4 10.2s5.6 1.3 8.4 1.8c.1-.7.2-1.4.2-2.2-2.2-.7-4.6-1.3-6.8-2 .1-.6.2-1.2.3-1.7 2.5-.5 5.1-1 9.8-2m-250.6 8.2c6 .8 9.8-1.5 9.7-9.2-.1-6.7-3.1-8-12.5-6.3v23.1c.4 0 .8 0 1.2.1.4-2.3 1-4.6 1.6-7.7m188.6 1.1c.9-1.1 1.8-2.2 2.8-3.2-1.5-4.8-2.7-9.9-4.9-14.3-.4-.8-4.4.9-6.7 1.5.2.6.3 1.2.5 1.9 2.1.2 4.2.3 5.4.4-2.6 3.2-5 6.1-7.3 9 3.4 1.6 6.8 3.2 10.2 4.7m-225.1-1.9c.5 0 1 .1 1.5.1.2-2.3 0-4.7.7-6.7.8-2.2 2.3-3.9 3.6-5.8.9 1.9 2.1 3.7 2.7 5.8.6 2.2.6 4.6.8 7 3.6-13.7 2.1-16.7-6.8-15.9-.5-2.7-.9-5.3-1.4-8l-1.2.3c.1 7.6.1 15.4.1 23.2m180.5-9.5c-2.5-2.2-4.9-5.5-7.6-6.2-4.5-1.1-7.1 2.2-7.2 8.1 0 5.3 1.9 8.3 6.4 8.5 4.5.1 6.9-2.8 8.4-10.4M840 996h1.8c.2-2.3 0-4.8.6-6.8.7-2.2 2.3-3.9 3.6-5.8.9 1.9 2.1 3.7 2.7 5.7.6 2.2.5 4.7.8 7 4.1-14.6 2.1-17.1-10.1-14.8q.45 7.35.6 14.7m-31-13.6c-.2-1-.4-1.9-.6-2.9-2.5 1.1-5.1 2.2-7.7 3.3q2.25 4.95 4.8 10.2c-1 .3-2.8.9-4.7 1.6.2.8.3 1.7.5 2.5 2.6-.9 5.3-1.8 7.8-2.7-1.3-3.4-2.6-6.9-3.9-10.4 1-.5 2.4-1.1 3.8-1.6m79.7 11.9c.2 1 .3 1.9.5 2.9 2.6-1.1 5.3-2.1 7.9-3.2-1.6-3.4-3.1-6.8-4.8-10.2 1.1-.4 2.7-1 4.5-1.5-.2-.9-.3-1.7-.5-2.6-2.5 1-5.2 1.9-7.7 2.9 1.3 3.3 2.5 6.5 3.9 10.2-.8.3-2.3.9-3.8 1.5m-61.4-19.7-2.4-1.2c-3 8.5-6.2 17.1-9.2 25.6.9.5 1.8.9 2.7 1.4 3-8.7 5.9-17.3 8.9-25.8m87.6 6.6v-2.1c-2.9 1.7-6.7 2.6-8.6 5.4-1.2 1.8-.9 7.6.5 9.3 1.9 2.2 5.6 2.1 9.6 3.4-3.8-4.1-6-6.5-8.1-8.8q3.45-3.6 6.6-7.2m51.9-6.4c-.8-.5-1.6-1-2.5-1.5-2.9 8.6-5.9 17.3-8.8 25.9.8.4 1.5.8 2.3 1.2 3-8.6 5.9-17.1 9-25.6m-140.1 24.1 2.4 1.5c2.9-8.6 5.9-17.3 8.8-25.9-.8-.4-1.5-.8-2.3-1.3-2.8 8.6-5.8 17.2-8.9 25.7m188.8-18.1c.1-.5.1-1 .2-1.5-2.7 1.4-6.6 2-8 4.5-1.3 2.4-1 7.8.4 10.2 1.3 2.1 5.2 1.9 7.9 2.7-.1-.5-.2-.9-.2-1.4-2.2-2.1-4.5-4.3-6.6-6.4 2-2.7 4.2-5.4 6.3-8.1m4.9 15c.4 0 .8-.1 1.2-.1v-23.3c-.4 0-.8.1-1.2.1z" style="fill:#fdfefd"/><path d="M1113.4 1017.5v-71.8h108.7v71.8z" style="fill:#fbf0c3"/><path d="M1413.1 503.8c1.8-4.6 2.9-8.8 5-12.3 1-1.7 4.1-3.5 5.3-2.8 1.5.9 2.8 4.2 2.9 6.6-.1 6.4-4.7 9.6-13.2 8.5" class="st22"/><path d="M1703.5 480.2c-24.6 5.7-49.2 11.3-74.1 17.1q2.1 3.15 4.2 6c-9.6-.6-18.3-3-26.5-12.7 3.9-.4 6.3-.6 9-.8-1.8-7.1-3.6-13.8-5.4-20.4.5-.4 1.1-.8 1.6-1.3 3.6 4.4 7.5 8.5 10.8 13.1 4.9 6.8 10.6 9.1 17.6 7.1 9.2-2.7 18.3-5.7 27.4-8.7 16.3-5.4 24.2-5.8 35.4.6" class="st3"/><path d="M1642.6 508c2.2 0 4.6-.3 6.8.1 7.9 1.2 15.8 3.5 23.8 3.8 11.9.5 23.9-.9 35.8-.4 4.2.2 8.6 2.8 12.1 5.7q9.75 8.1 17.7 19.8c-2.8-1.9-6.1-3.3-8.5-5.8-11.9-12.6-25.8-15.1-41.1-13.7-11.8 1-23.9-.2-35.8-1.1-3.7-.3-7.5-2.5-11.1-3.8.1-1.6.2-3.1.3-4.6" class="st17"/><path d="M1722.3 500.5c8.7 0 18.2 2.5 26.1-.7 7.7-3.2 13.8-12.3 21.4-19.6-1.6 13.4-14.3 32-22.5 34.5-7.5 2.2-20-5.1-25-14.2" class="st2"/><path d="M1811.4 371c-2.5 14.4-4.9 28.9-7.8 43.2-.5 2.3-3.5 3.7-5.5 5.5-.6-2.8-2.4-6.2-1.7-8.4 4.2-13.8 8.9-27.4 13.4-41.1.6.3 1.1.6 1.6.8" class="st3"/><path d="M1631.8 270.4c-.4-9.9-.8-18.3-1.2-28.8 7.3 9.8 7.6 19.2 1.2 28.8" class="st19"/><path d="M1612.7 241.1c1.9 9.8 3.7 18.7 5.9 29-7.6-7.7-10.2-21.3-5.9-29" class="st17"/><path d="M1690.2 253.7c9.1-3.6 19.4-.8 24.5-14.4 1.4 12.4-11 19-24.5 14.4" class="st18"/><path d="M1561.3 310.4c4.2 3.8 7.3 6.7 10.5 9.7-4.9 3.6-8.5.6-10.5-9.7" class="st19"/><path d="M1762.7 445.5c-.1.2-.1.4-.2.6l-.6-.6c.1-.2.3-.4.4-.6.1.3.2.4.4.6" class="st1"/><path d="M1775.4 221.4c-8.2 5.1-11.3 3.9-14-5.5 5.5 2.2 9.7 3.8 14 5.5" class="st18"/><path d="M1724.3 288.9c7.6-.9 11.4 1.6 14.7 10.6-5.6-4.1-10-7.2-14.7-10.6" class="st17"/><path d="M1768.3 268.1c-.2.4-.4.7-.5 1.1.2-.3.4-.6.7-.9-.1 0-.2-.2-.2-.2" class="st1"/><path d="M1665.9 156.7h-18.7c1.9 3 3.5 5.6 5.8 9-8.8-1.6-12.9-6.2-14.3-16.4 9.4 1.7 18.4 3.3 27.4 5-.1.8-.2 1.6-.2 2.4m-14.1 68c-.6-.1-1.4 0-1.9-.4-5.8-4.9-11.5-9.9-17.1-14.6 5.9-2.6 12.1-.2 17.2 5.7 1.6 1.8 1.2 6.2 1.7 9.4 0 .1.1-.1.1-.1" class="st17"/><path d="M1650.8 128.3c5.1 3.9 10.1 7.9 15.2 11.8-.5 1-1.1 2.1-1.6 3.1-4.9-4.2-9.7-8.5-14.6-12.7.4-.7.7-1.4 1-2.2M1777 319.8c6.3-.2 12.9-.5 16.1 8.9-5.4-2.9-10.7-5.9-16.1-8.9" class="st19"/><path d="M1771.6 332.7c4.3 2.3 8.5 4.6 12.8 6.8-6 2.9-10.5 1.3-12.8-6.8" class="st17"/><path d="m951.6 996.5-1.5-12.9c-.7-.2-1.5-.4-2.2-.5-.9 4.5-1.9 9-2.8 13.4-.5 0-1 0-1.5.1-.5-4.3-1.1-8.6-1.6-12.9-.7-.2-1.5-.4-2.2-.6-.9 4.4-1.8 8.9-2.7 13.3-.5 0-1-.1-1.5-.1V980c4.9 0 10-.5 15.1.3 1.5.2 3.2 4 3.8 6.6.7 2.9.2 6.2.2 9.3-1.2.1-2.1.2-3.1.3m-85-14.8c6.6-3.7 3.8 4.6 6.3 7.2 1.2-2.9 2.5-5.8 4.4-10.2 1.6 3.7 2.7 6.2 4.1 9.2 1.3-3 2.3-5.5 3.4-8.1.7.4 1.3.7 2 1.1-1.5 5.4-2.9 10.8-4.5 16.2-.6-.1-1.3-.3-1.9-.4-.5-1.4-1.1-2.7-1.6-4.1-.4-1.2-.8-2.4-1.5-4.3-1.6 3.4-2.8 6-4.7 10-2.4-6.6-4.2-11.6-6-16.6m-97.5-6c3.7 6 5.4 6 8.7.5 1.2 1.9 2.4 4 3.8 6.3-2.8 3.3-3.8 8.2 1.5 12.8-5.5 1.6-5.4 1.6-6.3-7.2-.2-2-1.8-3.7-2.8-5.6-1.2 1.5-3.4 3-3.5 4.6-.1 2.2 1.4 4.5 2.2 6.7.2.7.5 1.3 1.6 3.9-3-1.5-5.9-2-6.1-3.1-.9-6-1.2-12.2-1.7-18.4 1-.2 1.8-.4 2.6-.5m213.9 5.4c3.6-1.1 7.3-2.3 10.7-3.4.6.8 2 2.7 3.3 4.6-3.2 3.6-3.6 8.6 1.9 13.4-4.8 2.1-6.7.5-6.7-4.8 0-3.7.9-8.8-3.8-8.3-1.2.1-2.1 5.5-3 8.5-.5 1.7-.6 3.5-2.5 5.3.1-5 .1-10 .1-15.3m56.4 7.4c-4.8 1-7.3 1.5-9.8 2-.1.6-.2 1.2-.3 1.7 2.2.7 4.6 1.3 6.8 2-.1.7-.2 1.4-.2 2.2-2.9-.5-6.8.2-8.4-1.8-1.7-2-2.3-7.3-1.4-10.2.7-2.3 4.8-4.5 6.9-4 2.1.4 3.7 4.4 6.4 8.1m-250.6 8.2c-.6 3.1-1.1 5.4-1.5 7.6-.4 0-.8 0-1.2-.1v-23.1c9.3-1.7 12.4-.4 12.5 6.3 0 7.8-3.9 10.2-9.8 9.3m3.5-15.6c-2 3.1-4.1 4.9-3.9 6.4.2 2.1 2 3.9 3.1 5.9 1.4-1.7 3.4-3.2 3.9-5.2.2-1.5-1.6-3.7-3.1-7.1m185.1 16.7c-3.3-1.6-6.8-3.2-10.1-4.8 2.3-2.9 4.7-5.8 7.3-9-1.2-.1-3.3-.3-5.4-.4-.2-.6-.3-1.2-.5-1.9 2.3-.6 6.3-2.3 6.7-1.5 2.1 4.4 3.3 9.5 4.9 14.3-1.1 1.2-2 2.3-2.9 3.3m-110.9-16.2c-.2 2.4-.3 4.8-.5 7.6-2.9.4-5.5.7-8.1 1-.1.6-.2 1.2-.3 1.7 2.5.7 5 1.5 7.5 2.2 0 .7 0 1.4-.1 2.1-3-.4-7.1.6-8.9-1.5-1.7-1.9-2.3-7.9-1-10.3 1.3-2.5 5.4-2.9 8.3-3.8 1-.2 2.1.7 3.1 1m-114.2 14.3v-23.3l1.2-.3c.5 2.7.9 5.3 1.4 8 8.8-.8 10.4 2.2 6.8 15.9-.2-2.3-.2-4.8-.8-7-.6-2.1-1.8-3.9-2.7-5.8-1.2 1.9-2.8 3.7-3.6 5.8-.7 2-.5 4.4-.7 6.7zm180.5-9.5c-1.4 7.7-3.8 10.6-8.4 10.4-4.5-.2-6.4-3.2-6.4-8.5 0-5.8 2.7-9.2 7.2-8.1 2.7.7 5 4 7.6 6.2m-2.1 2.3c-2.8-2.6-4.4-5-6-5.1-1.3-.1-3.8 2.8-3.7 4.1.2 2.1 1.9 5 3.4 5.5 1.4.3 3.3-2.2 6.3-4.5M840 996c-.2-4.9-.4-9.7-.5-14.6 12.3-2.4 14.2.2 10.1 14.8-.2-2.3-.2-4.8-.8-7-.5-2.1-1.8-3.8-2.7-5.7-1.2 1.9-2.8 3.6-3.6 5.8-.7 2-.5 4.5-.6 6.8-.7-.1-1.3-.1-1.9-.1m-31-13.6c-1.4.5-2.8 1.1-3.8 1.4 1.3 3.5 2.6 7 3.9 10.4-2.6.9-5.3 1.8-7.8 2.7-.2-.8-.3-1.7-.5-2.5 1.8-.6 3.6-1.2 4.7-1.6-1.6-3.5-3.1-6.8-4.8-10.2 2.5-1.1 5.1-2.2 7.7-3.3.2 1.2.4 2.1.6 3.1m79.7 11.9c1.5-.6 3.1-1.2 3.9-1.5-1.4-3.7-2.7-7-3.9-10.2 2.5-1 5.2-1.9 7.7-2.9.2.9.3 1.7.5 2.6-1.7.6-3.4 1.2-4.5 1.5 1.6 3.4 3.1 6.8 4.8 10.2-2.6 1.1-5.3 2.1-7.9 3.2-.3-1-.5-1.9-.6-2.9m-61.4-19.7c-2.9 8.6-6 17.2-8.9 25.8-.9-.5-1.8-.9-2.7-1.4 3-8.5 6.2-17.1 9.2-25.6zm87.6 6.6c-2.2 2.4-4.4 4.8-6.6 7.1 2.1 2.3 4.4 4.7 8.1 8.8-4.2-1.3-7.8-1.2-9.6-3.4-1.4-1.7-1.7-7.5-.5-9.3 1.9-2.8 5.6-3.7 8.6-5.4zm51.9-6.4c-3 8.5-6.1 17.1-9 25.6-.8-.4-1.5-.8-2.3-1.2 2.9-8.6 5.9-17.3 8.8-25.9.9.5 1.7 1 2.5 1.5m-140.1 24.1c3-8.6 6-17.1 9-25.7.8.4 1.5.8 2.3 1.3-2.9 8.6-5.9 17.3-8.8 25.9-.8-.5-1.7-1-2.5-1.5m188.8-18.1c-2.1 2.7-4.3 5.4-6.4 8.2 2.2 2.1 4.5 4.3 6.6 6.4.1.5.2.9.2 1.4-2.7-.8-6.6-.6-7.9-2.7-1.4-2.4-1.7-7.8-.4-10.2 1.4-2.6 5.2-3.1 8-4.5.1.4 0 .9-.1 1.4m4.9 15v-23.3c.4 0 .8-.1 1.2-.1v23.3c-.4 0-.8.1-1.2.1" class="st21"/><path d="M792.3 981.1c1.6 3.4 3.4 5.6 3.1 7.1-.4 2-2.5 3.5-3.9 5.2-1.1-1.9-3-3.8-3.1-5.9-.2-1.5 1.9-3.3 3.9-6.4" class="st26"/><path d="M930.7 988.7c-3 2.3-5 4.8-6.3 4.4-1.5-.4-3.2-3.4-3.4-5.5-.1-1.2 2.4-4.1 3.7-4.1 1.7.2 3.1 2.6 6 5.2" class="st23"/></svg>