<?xml version="1.0" encoding="utf-8"?>
<!-- Generator: Adobe Illustrator 25.0.0, SVG Export Plug-In . SVG Version: 6.00 Build 0)  -->
<svg version="1.1" id="Ebene_1" xmlns="http://www.w3.org/2000/svg" xmlns:xlink="http://www.w3.org/1999/xlink" x="0px" y="0px"
	 viewBox="0 0 1920 1080" style="enable-background:new 0 0 1920 1080;" xml:space="preserve">
<style type="text/css">
	.st0{fill:#FEFEFE;}
	.st1{fill:#5D5D5D;}
	.st2{fill:#5C5C5C;}
	.st3{fill:#5E5E5E;}
	.st4{fill:#444344;}
	.st5{fill:#424244;}
	.st6{fill:#434243;}
	.st7{fill:#454445;}
	.st8{fill:#454547;}
	.st9{fill:#454344;}
	.st10{fill:#444343;}
	.st11{fill:#454242;}
	.st12{fill:#BAA176;}
	.st13{fill:#4B4A4B;}
	.st14{fill:#494849;}
	.st15{fill:#404348;}
	.st16{fill:#222222;}
	.st17{fill:#666666;}
	.st18{fill:#606060;}
	.st19{fill:#6D6D6D;}
	.st20{fill:#DBCD00;}
	.st21{fill:#B7B4B8;}
	.st22{fill:#F3F3F3;}
	.st23{fill:#FCFCFC;}
	.st24{fill:#FDFDFD;}
	.st25{fill:#FBFBFB;}
	.st26{fill:#F8F8F8;}
	.st27{fill:#FDFEFD;}
	.st28{fill:#FBF0C3;}
</style>
<g>
	<g>
		<path class="st0" d="M24,1080c0-360.3,0-720.1,0-1080c632,0,1264,0,1896,0c0,360,0,720,0,1080C1288,1080,656.1,1080,24,1080z
			 M1472.1,539.9c-0.5,0.1-1.1,0.2-1.6,0.3C1471,540.1,1471.6,540,1472.1,539.9l0.2-0.2L1472.1,539.9z M1592.5,98.2
			c1.8-2.1,3.7-4.1,5.9-6.6c0,0,1,0.5,2.3,1.2c0-2.7,0-5.1,0-7.1c-2.7,0.4-5.1,0.7-8.3,1.1c0,3.7,0,7.4,0,11.2
			c-0.6,0.5-1.2,0.9-1.7,1.4c0.3,0.3,0.5,0.7,0.8,1C1591.8,99.7,1592.1,99,1592.5,98.2z M549.2,623.2c0-2.3,0.1-4.5,0.1-6.8
			c0.3-0.1,0.5-0.1,0.8-0.2c-0.1,0-0.2-0.2-0.3-0.1c-0.2,0.1-0.3,0.3-0.4,0.4c-6.9,1.3-13.9,2.6-21.1,3.9c0,2.3,0,4.9,0,8.9
			c5.2-2.8,9.7-5.6,14.4-7.7c1.2-0.5,2.9,1,4.4,1.6c-2.4,12.3-11.7,14.9-19.3,19.8C539,643,547.3,635,549.2,623.2z M1388.1,105
			c1.8-4.4,3.5-8.8,5.3-13.2c-0.6-0.7-2.1-1.9-3.2-3.4c-1.1-1.5-1.9-3.3-2.8-5.1c-2.1,2.4-4,4.5-5.8,6.6c-2.8-0.5-5.6-1.1-8.6-1.6
			c1.6,3.5,3.8,6.2,4.1,9.3C1378.2,107.3,1380.7,109.2,1388.1,105z M1255.5,445.9c2.7,2,5.4,3.9,9.2,6.7c0,12.4,0,26.4,0,40
			c7.1,0,13.4,0,20.1,0c0-14.4,0-28.2,0-42.3c6.1,0,11.8,0,18.4,0c0,9.2-0.5,18.1,0.1,26.8c0.7,9.7,5.6,16.2,13,17.4
			c5.3,0.8,10.8,0.2,16.1,0.2c0-7.6,0-12.7,0-17.8c-10.3-0.9-11.6-4.9-9-26.7c3-0.2,6-0.4,9-0.7c0-5.7,0-10.8,0-16
			c-3.4-0.2-6.5-0.5-10.1-0.7c0-6.2,0-11.9,0-19.5c-6.8,8.2-21.6-0.5-19.8,19.6c-6,0-11.7,0-17.4,0c-0.7-10.4,0.7-11.7,11.7-11.1
			c0-4.2,0.5-8.4-0.2-12.4c-0.4-2.2-2.3-5.6-3.8-5.8c-19.1-3-30.1,9.3-28.5,27.1c0.1,0.7-0.4,1.5-0.6,2.2c-2.5,0.3-4.8,0.7-7.3,1
			c-0.3,4.3-0.5,8.1-0.8,11.9c-0.6-3.5-1.3-6.9-1.8-10.4c-2.8-17.4-10.3-26.7-22.2-27.2c-14.5-0.6-24.1,7.7-26.8,25.6
			c-1.7,11-1.9,22.7-0.8,33.8c1.6,17.4,10.2,26.8,22.7,27.3c14.3,0.6,23-7.5,26.4-25.2C1254.3,462,1254.6,453.9,1255.5,445.9z
			 M293.4,352.2c1.7,1.9,3.4,3.8,6.6,7.4c-2.8-7.2-5.3-11.9-6.5-17c-0.6-2.6,0.4-8.1,1.8-8.8c12.9-6.5,25.9-12.8,39.2-18.1
			c12.2-4.9,25-7.4,37-12.8c22.9-10.3,30.2-7.1,38.4,21.5c9.2,32.1,17.7,64.4,26.4,96.7c4.4,16.4,3.7,32.2-4.3,46.9
			c-1,1.9-1.6,4.2-2.3,6.3c0.7,0.5,1.5,1,2.2,1.5c2.6-6,6.2-11.7,7.7-18.1c4-16.8,2-33.9-1.9-50.1c-8-33.4-16.6-66.6-25.8-99.5
			c-4.9-17.6-18.7-25-33.1-19.4c-8.7,3.4-8.7,3.4-11.7-7.1c-0.3-1-0.6-2.1-0.9-3.1c-5.9-19.3-13.8-36.9-28.9-47.3
			c-16-11-32.5-10.3-48.6-0.2c-5,3.2-8.3,8.6-5.8,17.7c1.6-2.2,2.7-3.2,3.3-4.5c4.1-9.4,10.8-14.8,19-14.5
			c8.2,0.3,17.4,1.1,24.3,5.9c16.8,11.5,27.3,30.5,33.4,53c2.1,7.6-1.7,14.7-8.3,15.8c-5.8,1-4.7-5.9-5.8-9.7
			c-1.9-6.5-3.4-13.2-5.2-19.7c-0.4-1.5-1.4-2.7-2.1-4c0.6,9.8,2.8,18.8,4,28c0.4,2.9-1.4,8.4-3.1,9.1c-10.4,4.2-21,8.1-31.8,10.7
			c-14,3.3-13.9,2.7-16.8-14.5c-2.3-13.5-5.1-26.8-7.7-40.3c-0.6,0.1-1.1,0.3-1.7,0.4c0,1.9-0.3,3.8,0,5.6c2.5,13.8,5,27.6,7.6,41.3
			c1.2,6.3,2.6,12.2-3.8,16.1c-1.9,1.2-3.8,5.6-3.6,8.3c0.4,8.1,0.9,16.6,3.2,24.1c2.4,7.9,7.1,14.6,10.6,22
			c4,8.5,2.5,15.5-5.1,18.5c-21.1,8.4-30.7,3.9-37.2-18c-4.7-16.1-8.1-32.8-11.7-49.4c-3.1-14.2-5.5-28.6-8.3-42.9
			c-1.2,4.4-1.2,8.6-0.5,12.6c5.8,30.4,11.6,60.8,17.6,91.2c1.6,7.9,2.8,15.3-3.6,20.9c-4.5-4-13,0.8-14.9,8.4
			c-5.3-2.3-11.6-3-15.7-7.2c-4.7-4.9-8.5-12.3-10.8-19.6c-9.4-30.1-18.2-60.5-27.2-90.8c-0.4-1.2-1-2.3-1.5-3.5
			c-0.5,0.1-1.1,0.1-1.6,0.2c0,3.6-0.7,7.6,0.1,10.9c2.9,11.6,6.2,23,9.6,34.4c6.9,22.7,14.5,45.1,20.8,68.1
			c3.1,11.2-0.9,19-9.8,23.9c-9.2,5.1-16.1,3.4-21.7-6.2c-14.2-24.7-26.6-50.5-31.8-80.8c-1.4,0.8-2.6,1.5-4.2,2.4
			c0.3-7.9,0.5-14.9,0.8-22.8c-10.1,10.7-10.7,29.1-2,43.7c1.2-2.3,2.3-4.5,3.7-7.3c0.6,4.9,1.1,8.9,1.6,12.9c-1.5-1.7-3-3.3-4.4-5
			c-0.9,2.5-1.8,4.9-2.7,7.4c0.7,0.8,1.5,1.6,2.2,2.4c-0.5-0.9-1-1.8-2.3-4.3c-0.6,8.8-1.4,15.6-1.3,22.5c0.1,2.8,1.7,6.2,3.4,8.3
			c3.2,3.9,7,7.1,10.6,10.6c0.8-6.4-1-11.6-6.2-15.1c-1.7-1.2-2.6-4-3.9-6.1c0.6-0.7,1.3-1.5,1.9-2.2c8.3,2.1,13,10.1,17.3,18.3
			c3.8,7.1,7.1,14.8,10.8,22c4.3,8.3,10.7,11.8,18.4,10.2c12.9-2.7,23-9.7,24.8-28.6c7.8,8.9,16.4,12.6,26.2,12.3
			c4.9-0.2,7.3,2.5,7.4,8.8c0.1,9.7,0.7,19.4,1.1,29.1c0.9,8.6,1.7,17.1,2.6,25.7c0.6-0.1,1.2-0.2,1.8-0.4
			c-0.8-8.4-1.5-16.9-2.3-25.3c-1.1-15.4,3.2-31.2-1.9-46.7c6.1-6.8,11.3-16.5,21.9-11.4c2.3,1.1,5.3-0.1,7.9-0.3
			c2.7-0.2,5.5-0.3,10.4-0.6c-4.6,6.3-7.8,10.7-11,15.1c-13.2,18-20.5,38.9-18.6,63.6c0.6,7.8,2.6,15.3,4,23
			c0.9-0.1,1.8-0.1,2.7-0.2c-8.8-50.7,11.3-84.9,40.9-112.8c-6.1-4.5-1.8-8.7-1.6-10.6c17.8,2.3,35,4.5,51.7,6.7
			c1.1,8.8,3,18.2,3.4,27.8c0.5,11.1,6.4,16.7,12.6,22c6.2,5.3,12.5,11.2,21.8,9.7c-8.7-6.9-16.5-13-24.2-19.1
			c0.3-0.8,0.7-1.6,1-2.4c1.8,0,3.6,0,6.2,0c-3.4-5.3-6.3-9.8-9.2-14.3c4.4,1.6,8.8,3.9,13.3,4.7c4.4,0.8,9,0.2,14.8,0.2
			c-10-3-18.3-5.6-26.5-8.1c-0.4,0.8-0.9,2-1.5,3.3c-2.2-6.8-4.5-13.6-7.1-21.5c16.4-1.8,28.7-8.9,39.1-20.6
			c-0.3-0.7-0.5-1.4-0.8-2.1c-11.3,5.9-22.7,11.9-34,17.8c-0.4-1.1-0.8-2.2-1.2-3.3c4.4-2.9,9.1-5.4,13.2-8.8
			c4.4-3.7,8.8-7.7,12.1-12.7c2.9-4.4,4.2-10.5,6.2-15.8c-0.6-0.4-1.2-0.8-1.7-1.1c-2,3.4-4,6.7-6.5,10.9c-0.7-4.3-1.1-7.5-1.6-10.8
			c-2.1,1.8-3,3.6-3.3,5.6c-1.9,14.5-9.8,21.8-20.1,25.8c-14.4,5.7-28.9,5.3-43.4,0.3c-13.4-4.6-23.7-13.6-27.9-31.2
			C292.5,353.4,293,352.8,293.4,352.2z M1634.2,708.2c-2.7,15.4-5.4,30.8-7.9,46.2c-0.6,3.9-0.7,7.9-1,11.9c1,0.2,2,0.3,3,0.5
			c5-19,5.8-39,8.2-58.6c2.1-1,4.2-3.1,6.2-3c19.1,1.4,38.2,3.1,57.2,4.7c9.6,0.8,19.3,1.7,29.1,2.5c-2.6,29-5,56.4-7.5,83.8
			c0.6,0.1,1.2,0.2,1.9,0.3c0.5-4,1-7.9,1.5-11.9c2.6-21.7,5.2-43.3,7.8-65c0.7-5.5,1.8-10.4,8.8-10.2c0.3,6.5,0.9,13,0.9,19.5
			c0.1,48.6-0.1,97.1,0.1,145.7c0,9,1.5,18.1,2.3,27.1c0.6-0.1,1.2-0.1,1.8-0.2c0.2-2.1,0.5-4.2,0.5-6.3
			c0.6-41.6,1.1-83.3,1.9-124.9c0.4-18.6,1.2-37.1,2.7-55.6c0.3-4.2,3.3-9.3,6.3-11.6c8-6.4,13.6-15.6,15.1-26.4
			c4.6-33,8.1-66.3,11.6-99.6c0.9-8.1-2.2-13.9-9.1-15.7c-3.2-0.9-6.3-2.4-9.5-3.8c0.1-1.9,0-3.3,0.2-4.6c3.6-21.7,8.8-42.2,23.6-57
			c12.2-12.3,19-29.1,22.4-48.1c2.9-16.5,5.9-33,8.8-49.5c5.4-30.6,7.6-62.2,19-90.7c6-15.1,1.4-26.9-6.1-38.5
			c1.5,6.7,2.9,13.3,4.5,20.6c-5.2,0.6-4.7-4.5-6.2-6.3c-5.8-6.8-3.3-12.5-0.6-18.3c3.9-8.3,3.2-16-0.7-23.5
			c-6.5-12.7-16.2-19.2-27.9-19.6c-7.3-0.3-9-3.5-8.6-12c1-22.3-11.8-39.3-29.8-38.2c-8,0.5-15.9,5-24.4,7.9
			c2.9-18.5-4-31.7-18.2-39c-14.2-7.4-26.9-4.4-37,11.5c-0.7-1.8-1.2-2.5-1.3-3.2c-2.3-24.3-20.3-42.5-40-40.5
			c-6.5,0.7-11.8,3.9-16.1,10.3c-15.9,23.6-27.2,50.4-32,80.4c-5.3,33.2-15,62.9-34.4,87.4c-8.8,11-12,25.4-8.9,40.8
			c2.2,11.2,4.8,22.6,8.7,33.1c13.8,37.4,23.9,76.3,32.1,116.1c3.6,17.6,5,35,0.4,52.5c-1.3,4.8-3.3,11.4-6.3,13
			c-8.9,4.5-14.3,11.5-15.7,23.8c-4.1-1.7-7.6-4.2-11.1-4.3c-21.9-1.1-42.9,4-62.6,16.4c-2.6,1.6-5.6,2.1-8.5,3
			c-0.3-3.5-1-7-0.7-10.3c1-9.7,0.2-18.3-6.9-24.3c-1.6-0.9-3.2-1.9-4.8-2.8c-0.1,0.2-0.2,0.4-0.3,0.7c1.3,1.2,2.6,2.3,3.9,3.5
			c6.6,11.9,7,25.8-0.5,33.2c-5,5-6.1,9.9-5.1,15.3c10.9,7.8,21.1,15,32.4,23c-0.8-7-1.3-12.1-2-18.2c8.6,6.1,11.3,16.5,7.4,24.5
			c-3,6.1-6.3,6.1-15-0.5c-7.5-5.7-14.8-11.8-22.2-17.7c-0.5,0.4-1,0.8-1.5,1.2c1.2,3.1,1.8,7.6,3.8,9.2
			c7.5,5.9,15.4,10.9,23.2,16.1c5.1,3.4,9.3,1.6,13.1-3.4c9-11.9,21.6-12.6,33.2-16.9c2.3,7.6-0.8,10.1-5,11.8
			c-9,3.7-18.1,7.3-27.1,10.9c0.1,0.7,0.3,1.4,0.4,2.1c8-2.1,16-4.5,24-6.2c2.7-0.6,6.1-0.4,8.5,1.2c3.8,2.6,6.7,7.2,10.4,9.8
			c3.7,2.6,5.2,5.1,4,10.4c-0.8,3.6-1.4,8.3-0.2,11.3c4.4,10.8,3.1,21.7,1.1,32.5c-7.4,40-15,79.9-22.5,119.8
			c-2.6,13.6-5.2,27.3-7.8,40.9c2.9-3.6,4.8-7.6,5.9-12c8.5-33.2,17.3-66.4,25.2-99.8c4.2-17.8,7.1-36.1,10.7-54.1
			c0.9-4.4,2.1-7.5,6.9-5.7c14.5,5.3,29.2,9.9,43.7,15.2C1628.7,702.8,1631.3,706,1634.2,708.2z M232,617.9
			c-0.1-0.7-0.2-1.5-0.4-2.2c-1.4,0-2.8-0.3-4.2,0c-14.8,3.1-21.2-0.8-26.2-18.4c-3.3-11.7-5.3-24-7.3-36.2
			c-2.2-13.4-3.7-27-5.5-40.5c-0.5,0.1-1.1,0.2-1.6,0.3c1.3,18.8,2.5,37.6,3.9,58.1c-8.1-12.7-14.3-24.4-17-38.9
			c-6.4-34.3-13.1-68.5-19.8-102.7c-0.6-3.1-1.9-6-2.9-8.9c-0.5,0.2-1.1,0.5-1.6,0.7c4.9,33.3,9.9,66.5,14.7,99.8
			c2.9,20.6,10.3,37.6,22.1,52.8c8.5,11,14.7,25,21.3,38.1c4.1,8.3,1.3,18.8-5.2,19.4c-8.9,0.8-10.3,7.3-9.6,15.8
			c2.6,32.8,4.9,65.7,8.5,98.4c2,18.1,10.4,31.5,25.7,35c8.2,1.9,12.1,8.1,13.5,17c2.3,14.4,4.8,28.9,5.5,43.5
			c2.8,56.9,8.1,113.3,17.8,169c1,5.7,2,11.4,3.5,19.3c4.7-7.8,3-14.1,2.3-20c-3.7-32.4-8.3-64.6-11.3-97.1
			c-3.4-36.1-5.4-72.3-8.4-108.5c-1.4-17.1-1.2-17.9,12.8-17.9c30.1,0,60.1-1,89.7-8.6c5.4-1.4,7.8,1.2,9.8,7.5
			c8.3,25.7,17.1,51.1,25.7,76.6c0.8,2.5,2,4.7,3.1,7.1c0.3-0.2,0.5-0.4,0.8-0.7c-8.9-30.8-17.9-61.6-26.9-92.9
			c11.4-4.6,21.1-8.8,30.9-12.2c1.3-0.5,4.3,2.2,5,4.2c11.9,35.5,22.6,71.7,35.7,106.5c11.3,30,25.3,58.5,38.2,87.6
			c1.4,3.2,3.9,5.7,5.8,8.5c0.6-0.6,1.1-1.1,1.7-1.7c-3.9-9.6-7.6-19.2-11.7-28.7c-23.2-53.8-43.7-109.1-58.6-167.4
			c-4.7-18.6-2.3-23.8,11.2-33.7c5.9-4.3,11.4-10.6,15.5-17.5c7.2-12,14.1-24.5,19.3-37.9c5.3-13.6,14.1-20.9,24.3-26.8
			c5-2.9,10.1-5.8,15.4-7.9c9.2-3.6,18.6-6.6,27.8-9.9c-0.1-0.5-0.1-1-0.2-1.5c-7.4,0.9-14.8,1.9-22.3,2.9c-0.1-2.7-0.3-5.2-0.4-7.9
			c-22.3,18.5-44,36.6-66,54.8c-1.2-6.2-1.8-11.1-3-15.8c-2-7.9-0.1-16,5.6-20.2c1.8-1.3,4.5-0.6,6.7-0.8c-0.4,2.5-0.4,5.1-1.2,7.4
			c-1.3,3.8-3.1,7.4-4.6,11c0.7,0.8,1.5,1.6,2.2,2.4c19.6-17.8,39.3-35.7,58.9-53.5c-0.5-1.3-1.1-2.6-1.6-3.9c-2.4,1-5,1.5-7.2,3.1
			c-2.3,1.7-3.8,4.9-6.1,6.4c-2.4,1.6-5.3,1.9-7.9,2.7c1.2-3.5,1.7-8.6,3.8-10c5.2-3.5,11.1-5.2,16.6-7.7c1.4-0.6,2.6-1.9,3.8-2.9
			c-1.4-0.7-3-2.4-4.2-2c-3.9,1.1-7.7,2.6-11.4,4.5c-3.4,1.7-6.7,4-10,6c-0.5-0.7-1-1.4-1.5-2.2c1.9-2.3,3.5-5.6,5.8-6.6
			c5.6-2.6,11.5-4.1,17.3-6.3c1.6-0.6,3-2.3,4.4-3.6c-0.3-0.8-0.6-1.7-0.9-2.5c-4.6,1.4-9.3,2.6-13.9,4.3c-17.4,6.7-19,10.8-13,31.9
			c0.5,1.9-0.7,4.7-1.2,7c-2.1-0.6-5.1-0.4-6.3-2c-8.4-11.9-4-37.6,7.7-43.7c7.3-3.9,15.2-5.9,22.9-8.8c1.6-0.6,3.1-1.7,4.7-2.5
			c-0.2-0.8-0.5-1.7-0.7-2.5c-7.9,2.4-15.9,4.3-23.6,7.2c-16.6,6.1-20.2,13.3-18.5,34.6c1.1,13.4-0.6,15.5-10.7,11.3
			c-8.8-3.6-16.4-1.4-22.7,6.5c-4.5,5.7-8.2,12.4-12.2,18.6c-1.2,1.9-2.6,3.7-4.5,6.6c-1.3-9.2-2-16.7-3.5-23.8
			c-2.8-12.5-9.5-19.8-17.8-18.8c-7.4,0.9-10.3-3.6-10.2-11.1c0.2-12.9,0.4-26.1,2.3-38.8c4.9-33.3,19.8-60.1,37.1-85.2
			c2.4-3.5,4.6-7.2,6.9-10.9c-0.5-0.6-1.1-1.1-1.6-1.7c-1.8,1.9-3.9,3.5-5.4,5.8c-9.2,14.2-18.2,28.7-27.4,42.9
			c-15.6,24.3-21.2,52-18.5,82.6c1.3,14.8,2.1,29.7,3.2,45.7c-11.3,3-22.5,6-35.6,9.4c-0.6-15.2-1.1-28.8-1.7-42.2
			c-6.1,1.4-8.2,4.4-7.3,13.5c0.6,6.6,1.6,13.2,3,19.6c1.7,7.9-1.2,10.8-6.9,11.5c-16.8,2-33.7,4.2-50.5,5.9
			c-11.6,1.2-16.1-2.4-20.8-15.6c-2.8-8-5.5-16.1-8.3-24.1c-0.6,0.3-1.1,0.5-1.7,0.8c3.4,12.4,6.8,24.9,10.5,38.6
			c-10.1-1.3-19.5-2.5-29-4c-1-0.1-2.3-1.8-2.5-3.1c-3-13.7-5.9-27.5-8.8-41.3C220.4,621.9,226.2,619.9,232,617.9z M610.5,553.2
			c1.1,3.6,2,6.4,2.9,9.2c5.2,15.9,10.5,31.8,15.7,47.7c2.6,7.9-1.1,14.7-7.9,14.7c-2.4,0-4.7-0.7-7.2-1.1c0,6,0,11.7,0,17.3
			c18.5,6,28.8-0.5,35.3-22.5c4.8-16.1,9.1-32.5,13.7-48.7c0.7-2.3,1.6-4.6,2.4-6.9c0.5,0.1,0.9,0.3,1.4,0.4
			c3.6,16.5,7.1,33,10.6,49.3c7.4,0,14.2,0,20.9,0c1.9-10.8,3.8-21.1,5.7-31.4c0.4,0.1,0.9,0.2,1.3,0.3c1.7,10.4,3.4,20.9,5.2,31.4
			c7.2,0,13.8,0,20.9,0c4.4-19.7,8.8-39.4,13.3-59.3c-6.4,0-12,0-18,0c-1.3,11.2-2.5,21.9-3.7,32.7c-0.6,0-1.1,0-1.7,0.1
			c-1.7-10.9-3.5-21.8-5.2-32.9c-6.4,0-12.6,0-19.1,0c-2.1,11.6-4.2,23.1-6.3,34.6c-0.5-0.2-1.1-0.3-1.6-0.5
			c-1.4-11.4-2.8-22.8-4.2-34.4c-10.9,0-21.1,0.3-31.3-0.1c-4.5-0.2-6.1,1.7-7,7.1c-1.4,9-3.6,17.7-5.4,26.6
			c-0.6-0.1-1.2-0.2-1.8-0.2c-1.9-9.3-3.6-18.7-5.9-27.8c-0.6-2.3-3.2-5-5-5.2C622.9,552.8,617.1,553.2,610.5,553.2z M933.8,673.2
			c0-6.4,0-12.1,0-18.4c-7.1,2.5-13.4,4.7-19.5,6.9c-0.2,4.3-0.4,7.7-0.5,11.1c-6.3,0-12,0-17.7,0c0.1-10.5,1.3-11.6,12-10.9
			c0-4.4,0.3-8.9-0.1-13.2c-0.2-1.9-1.9-4.7-3.1-5c-17.5-3.1-30.6,7.3-29.1,27c0.1,0.7-0.4,1.4-0.6,2.2c-2.5,0.3-4.8,0.6-7,0.9
			c0,5.7,0,10.8,0,15.8c2.8,0.4,5.1,0.7,7.9,1c0,14.4,0,28.1,0,42.3c6.8,0,13.1,0,20.1,0c0-14.3,0-28.3,0-42.6c6.4,0,12.1,0,18.2,0
			c0,4.5,0,8.6,0,12.8c0,4.4-0.1,8.9,0.3,13.3c0.7,10,5.4,16.9,13.2,18.2c5.3,0.8,10.7,0.2,16,0.2c0-7.6,0-12.7,0-17.8
			c-9.1-0.7-9.4-1.2-9.5-11.7c0-4.9,0-9.8,0-14.9c3.7-0.3,6.7-0.6,9.4-0.8c0-5.9,0-11,0-16.4C940.3,673.2,937.6,673.2,933.8,673.2z
			 M970.7,492.9c0-11.5-0.1-22,0-32.5c0-4.9,0.6-10.2,5.7-10.3c5.5-0.1,5.2,5.6,5.2,10.3c0.1,10.7,0,21.5,0,32.4
			c7.1,0,13.4,0,19.8,0c0-14.8,0.6-29.3-0.2-43.6c-0.8-14.2-10.5-21.3-21.2-16.3c-3.8,1.8-7,5.2-10.7,8.1
			c-3.1-6.3-7.9-10.7-14.2-9.2c-5.4,1.3-10.4,4.8-15.3,7.3c-0.1-1.1-0.5-3.4-0.8-5.6c-6.7,0-12.9,0-19.4,0c0,19.9,0,39.6,0,59.3
			c6.6,0,13,0,19.9,0c0-3.2,0-5.9,0-8.6c0-8.9-0.4-17.8,0.4-26.6c0.2-2.8,3.6-5.1,5.5-7.6c1.7,2.5,3.8,4.7,4.8,7.6
			c0.8,2.4,0.2,5.5,0.2,8.2c0,9,0,18.1,0,27.2C957.7,492.9,963.8,492.9,970.7,492.9z M1222.8,553.6c-6.9,0-13.3,0-20.2,0
			c4.3,20.2,8.5,39.9,12.6,59.3c7.5,0,14.1,0,20.9,0c1.8-10.1,3.6-19.9,5.4-29.6c0.6,0,1.2,0,1.8,0c1.7,9.8,3.3,19.6,5.1,30
			c6,0,11.8,0.3,17.5-0.2c1.5-0.1,3.7-2.1,4.1-3.8c4.3-18.3,8.4-36.8,12.6-55.7c-6.2,0-11.9,0-18,0c-1.3,11.8-2.6,23.5-3.9,35.3
			c-0.4,0-0.7,0-1.1,0c-1.9-11.8-3.8-23.6-5.6-35.2c-6.8,0-13,0-19.1,0c-2.2,11.7-4.2,23-6.3,34.2c-0.5-0.1-1.1-0.1-1.6-0.2
			C1225.6,576.6,1224.2,565.4,1222.8,553.6z M870.2,466.4c-0.6-0.1-1.2-0.1-1.8-0.2c-1.7-10.8-3.4-21.6-5.1-32.5
			c-6.6,0-12.9,0-19.2,0c-2.2,11.8-4.2,23-6.3,34.3c-0.5-0.1-1.1-0.2-1.6-0.3c-1.4-11.3-2.7-22.7-4.1-34.2c-6.9,0-13.3,0-20.1,0
			c4.3,20.2,8.5,39.9,12.6,59.1c7.5,0,14.3,0,21,0c2-10.8,3.8-21.1,5.7-31.3c0.4,0.1,0.9,0.2,1.3,0.3c1.7,10.4,3.4,20.9,5.1,31.2
			c7.3,0,13.9,0,21,0c4.4-19.7,8.8-39.4,13.3-59.3c-6.4,0-12,0-18,0C872.7,444.8,871.4,455.6,870.2,466.4z M1142.3,673.6
			c-6.5-0.4-12.5-2.3-18-0.8c-11.1,3.1-16.5,16.3-16.3,34.1c0.4,24,17.8,36.3,32.4,22.7c7,7.2,14.6,2,21.9,3.9c0-30,0-59,0-88.2
			c-6.7,0-13,0-20,0c0,5.3,0,10.3,0,15.2C1142.3,665.4,1142.3,670.3,1142.3,673.6z M1083.2,675.7c-4.3-1.6-7.8-3.6-11.4-4
			c-10.8-1.1-19.6,8.1-22.2,22.3c-3.3,18.3,1.2,34.8,11.9,38.9c4.8,1.8,10.6-0.1,15.9-0.9c1.8-0.3,3.3-2.3,3.6-2.5
			c7.6,6.7,14.9,2.3,22.2,4c0-3.4,0-5.8,0-8.3c0-26.5,0-53,0-80c-6.9,0-13.2,0-19.9,0C1083.2,655.6,1083.2,665.5,1083.2,675.7z
			 M525.4,608.5c16.8,15.3,31.1-0.4,33.2-16.8c0.8-5.9,0.7-12.2,0.3-18.2c-0.7-9-3.7-16.7-10.9-20.2c-7.4-3.6-14.4-2.3-20.4,4.7
			c-0.4,0.5-1.1,0.7-1.8,1.1c-0.3-2-0.6-3.8-0.8-5.3c-6.6,0-13,0-19.2,0c0,29.5,0,58.5,0,87.2c6.8,0,13.2,0,19.6,0
			C525.4,630.1,525.4,619.8,525.4,608.5z M1091.6,525.2c0,29.7,0,58.7,0,87.5c6.8,0,13.2,0,19.7,0c0-11.1,0-21.7,0-32.2
			c0-4.9,0.3-10.3,5.5-10.3c5.4,0,5.2,5.6,5.2,10.4c0,10.7,0,21.5,0,32.3c6.9,0,13,0,18.8,0c0-15.6,1.1-31-0.3-45.9
			c-1.4-14.7-14.1-20.1-24.1-11.7c-1.5,1.3-3,2.7-5.4,4.8c0-12.5,0-23.5,0-34.7C1104.3,525.2,1098.2,525.2,1091.6,525.2z
			 M720.7,492.9c0-4,0-7.6,0-11.1c0-8.1-0.5-16.2,0.3-24.1c0.3-2.8,3.5-5.1,5.4-7.7c1.7,2.5,3.8,4.8,4.8,7.6
			c0.8,2.4,0.2,5.5,0.2,8.2c0,9,0,18.1,0,26.8c7.1,0,13.2,0,19.6,0c0-13.3,0-26.1,0-38.8c0-2.2-0.4-4.4-0.8-6.6
			c-2.6-14.6-14.1-20.5-24.2-12.3c-1.6,1.3-3.1,2.8-5.6,5.1c0-12.5,0-23.7,0-34.5c-7.1,0-13.4,0-19.6,0c0,29.4,0,58.2,0,87.4
			C707.3,492.9,713.5,492.9,720.7,492.9z M647.6,469.5c0,5.9-0.2,11.1,0.1,16.4c0.1,2,1.3,5.1,2.5,5.6c12.2,5,24.5,6,36.2-1.8
			c12.9-8.7,13.8-30,1.9-40.8c-4.4-4-9.9-6.1-14.6-9.7c-2.1-1.7-3.3-5.1-4.9-7.8c2.4-1.6,4.9-4.7,7.1-4.5c5.6,0.6,11,2.9,17,4.6
			c0-5.1,0.2-10.5-0.1-16c-0.1-1.7-1.4-4.4-2.5-4.7c-11.2-3.4-22.4-4.9-33,2.4c-13.6,9.4-14.3,31.9-1.4,42.6c3.5,2.9,7.8,4.1,11.2,7
			c2.6,2.2,4.3,6,6.4,9.1c-3.3,1.5-6.7,4.7-9.7,4.2C658.5,475.2,653.4,472,647.6,469.5z M1307.8,641c18.4,6.1,28.6-0.1,35.2-21.6
			c3.3-10.6,6.1-21.4,9.1-32.1c3.1-11.1,6.2-22.2,9.4-33.6c-6.9,0-13.1,0-19.4,0c-2.4,11.3-4.6,22.2-6.9,33.1
			c-0.6-0.1-1.2-0.2-1.8-0.3c-0.8-3.7-1.5-7.4-2.3-11c-4.8-23.6-4.8-23.6-24.7-22.1c-0.4,0-0.8,0.4-1.5,0.7c0.4,1.5,0.7,3.1,1.2,4.6
			c5.5,16.9,11.1,33.8,16.6,50.8c3,9.2-1,16.1-9,15.4c-1.9-0.2-3.8-0.8-6-1.2C1307.8,629.5,1307.8,635,1307.8,641z M818.5,673.9
			c3.9-1.9,7.1-3.9,10.5-4.9c4.3-1.2,9.3-2.4,11.9,3.6c2.7,6-0.4,10.6-3.9,14.4c-4.8,5.3-10.1,10.1-14.7,15.6
			c-7,8.3-8.3,18.9-7.2,30.1c16.1,0,31.5,0,46.8,0c0-6.8,0-13,0-19.8c-8.6,0-16.7,0-24.8,0c2.2-4.4,5.1-7,7.9-9.8
			c4-3.9,8.5-7.3,11.8-12c10.8-15.6,4.4-38.7-11.7-42.3c-8.9-2-18.5-1.3-25.4,5.8C817,657.3,818.8,666.9,818.5,673.9z M1452,553.5
			c0,3.6,0,6.3,0,9.1c0,8.6,0.5,17.3-0.3,25.7c-0.3,3-3.7,5.5-5.7,8.2c-1.6-2.8-3.7-5.4-4.7-8.5c-0.8-2.4-0.2-5.5-0.2-8.2
			c0-8.8,0-17.5,0-26.3c-7.2,0-13.4,0-19.8,0c0,14.9-0.7,29.6,0.2,44.1c0.9,14,10.7,20.8,21.5,16.2c2.9-1.2,5.5-3.3,6.8-4.1
			c7.6,6.7,15,2.2,22,3.7c0-20.5,0-40.1,0-59.8C1465.1,553.5,1459,553.5,1452,553.5z M783,494.9c16.5,0,26.2-10,28.1-28.8
			c1.6-16.8-6.4-30-20.7-34c-20-5.6-36,9.8-34.9,33.6C756.2,484,766.6,494.9,783,494.9z M1173.7,614.9c12.9,0,21.9-6.6,25.8-18.7
			c4.1-12.7,2.1-27-5-35.5c-8.1-9.7-23.4-12.3-35-5.8c-9.3,5.2-14.1,15.5-13.8,29.5C1146.2,603.6,1156.6,615,1173.7,614.9z
			 M1388.5,614.9c16.6,0,26.3-10,27.9-29c1.5-17.1-6.5-30.7-20.9-33.7c-19.4-4.1-36.5,8-34.5,35.1
			C1362.3,604.6,1372.5,614.9,1388.5,614.9z M722.2,732.9c6.3,0,12,0,17.4,0c0-14.5,0.5-28.6-0.2-42.6c-0.5-9.5-5.4-16.6-13.2-17.1
			c-8.7-0.6-17.5,0.9-26.2,2c-1.1,0.1-2.7,2.8-2.9,4.5c-0.4,4-0.1,8.1-0.1,12.4c19.5-7.5,21.2-7.4,24.2,0.6
			c-6.5,1.7-13.1,2.9-19.4,5.4c-6.7,2.7-9.5,9.7-9.4,18.3c0.1,7.4,2.1,13.8,7.9,16.9c6.2,3.4,12.2,2.4,17.4-3.3
			c1.1-1.2,1.7-3.1,2.5-4.7c0.4,0.4,0.9,0.7,1.3,1.1C721.8,728.4,722,730.5,722.2,732.9z M1129.5,492.9c0-13.2,0.4-25.4-0.1-37.5
			c-0.6-14.8-6.8-22.6-18.3-23.6c-4.4-0.4-8.9,0-13.3,1c-12.4,2.8-12.4,3-11.4,18.4c0,0.2,0.2,0.4,0.3,0.6c20-7,20.5-7,23.8,0.7
			c-6.6,1.9-13.5,3.1-19.9,5.8c-6.4,2.7-8.9,9.6-8.9,17.8c0,7.4,2,13.8,7.8,17c6.2,3.4,12.2,2.5,17.4-3.1c1.1-1.2,1.8-3,3.6-6.2
			c0.5,4.7,0.7,6.9,0.9,9.1C1117.5,492.9,1123.3,492.9,1129.5,492.9z M566.3,572.2c8.4-2.7,16.4-10.5,26,0.3c-7,1.6-12.5,2.4-17.7,4
			c-8.3,2.6-12.3,8.3-13,17.5c-0.6,9.1,2.3,16.2,7.9,19.4c6.7,3.8,13.1,1.9,19.3-5.8c0.4-0.5,1-0.9,1.7-1.5c0.3,2.6,0.6,4.9,0.9,6.8
			c6.3,0,12,0,17.8,0c0-13.4,0.6-26.5-0.2-39.4c-0.8-13.5-6.9-20.4-17.7-21.6c-4.4-0.5-9-0.3-13.3,0.8
			C563.5,556.1,566,554.2,566.3,572.2z M1027.3,692.1c-8.2,2.2-14.7,3.3-20.9,5.7c-6.8,2.6-9.8,9.4-9.9,17.9
			c-0.1,7.3,1.8,13.9,7.4,17.3c6.1,3.6,12.1,2.8,17.5-2.5c1.2-1.1,2.2-2.5,3.6-4.1c0.6,2.6,1,4.7,1.4,6.4c6.3,0,12,0,17.8,0
			c0-12.7,0.3-24.9-0.1-37c-0.4-14.8-6.8-23.1-18.6-24c-4.4-0.3-8.9,0-13.2,1.1c-13.1,3.4-11.1-0.1-11,17.9c0,0.5,0.4,0.9,0.6,1.5
			C1009.7,689.1,1017.5,682.1,1027.3,692.1z M774,572.8c-2.6,0.7-5.1,1.4-7.7,2c-2.6,0.6-5.3,0.8-7.8,1.6
			c-8.7,2.8-12.8,8.2-13.3,17.9c-0.4,8,1.4,14.9,7.6,18.8c6.3,4,13.2,2,19.4-5.2c0.4-0.5,1-0.8,1.9-1.4c0.3,2.4,0.5,4.4,0.7,6.1
			c6.5,0,12.3,0,18.2,0c0-12.8,0.3-25-0.1-37.2c-0.4-14.2-6.3-22.1-17.5-23.5c-4.6-0.6-9.4-0.3-13.9,0.9
			c-13.8,3.5-11.5,0.5-11.4,18.3c0,0.4,0.5,0.9,0.6,1.2C758.4,569.1,766,562.1,774,572.8z M1216.7,710c0.5-13.3,0.4-25.4-9-33.5
			c-8.1-6.9-21.1-6.6-29.7,0.7c-8.3,7-12.2,20.8-9.8,34.8c2.1,12.5,8.6,20.2,19.7,22.5c3.7,0.8,7.6,0.6,11.3,0.4
			c12.3-0.7,13.9-3.1,12.6-18.4c0-0.2-0.2-0.4-0.5-0.9c-8.3,2-17.1,6.5-25.2-5.6C1197.3,710,1206.6,710,1216.7,710z M1026.7,472.4
			c0.1-0.9,0.2-1.8,0.4-2.7c9.5,0,18.9,0,28.3,0c1.5-15.5-1.2-26.1-7.7-32.4c-8-7.6-21-7.9-30.1-0.7c-8.6,6.8-12.8,20.7-10.6,35.2
			c1.8,12.2,9.3,20.7,20.4,22.7c3.3,0.6,6.7,0.4,10,0.3c13.4-0.5,14.5-2.2,13.2-19.4C1042.2,477.5,1033.5,482.2,1026.7,472.4z
			 M804.7,732.9c0-28.3,0-56.1,0-84c-13.6-4.2-22.4,10.7-34.2,11.2c0,6.7,0,12.2,0,18.6c4.9-1.4,9.4-2.7,14.4-4.2
			c0,19.4,0,38.7,0,58.3C791.9,732.9,798.2,732.9,804.7,732.9z M1159.6,419.8c0,6.4,0,12.1,0,18.8c5-1.3,9.5-2.6,14.8-4
			c0,19.9,0,39.2,0,58.3c6.8,0,13,0,19.4,0c0-28.2,0-56.1,0-83.9C1180.4,404.1,1171.7,419.9,1159.6,419.8z M1232.6,944
			c-163.9,0-327.1,0-490,0c0,25.7,0,50.6,0,75.5c163.7,0,326.8,0,490,0C1232.6,993.9,1232.6,969,1232.6,944z M827.3,525.1
			c0,29.9,0,58.9,0,87.6c6.9,0,13.2,0,19.4,0c0-29.6,0-58.5,0-87.6C839.9,525.1,833.7,525.1,827.3,525.1z M1046.7,595.8
			c0,4.7-0.2,8.8,0.1,12.9c0.1,1.5,1.2,4,2.2,4.2c9.6,2.5,19.4,4,28.6-1.9c5.9-3.7,8.6-9.9,8.5-18.3c-0.1-8.1-3.7-12.7-9.2-15.7
			c-2-1.1-4.4-1.4-6.2-2.8c-1.7-1.2-2.8-3.5-4.2-5.3c2-0.8,4-2.4,5.9-2.2c3.4,0.3,6.7,1.6,10.2,2.5c0-5.4,0-10.4,0-15.5
			c-9.2-3-18.1-3.9-26.8,1c-6.1,3.4-9.2,9.3-9.1,17.7c0,7.9,3.3,12.9,9,15.8c2.2,1.2,4.7,1.9,6.8,3.3c1.7,1.2,3.1,3.3,4.6,4.9
			c-2,1.1-4.2,3.3-6.1,3.1C1056.3,599.1,1051.9,597.3,1046.7,595.8z M928.6,612.9c0-27.7,0-55,0-82.4c-6.9,0-13.4,0-19.8,0
			c0,27.9,0,55.2,0,82.4C915.6,612.9,922,612.9,928.6,612.9z M819.4,613c0-29.7,0-58.6,0-87.6c-6.7,0-13,0-19.3,0
			c0,29.5,0,58.4,0,87.6C806.6,613,812.7,613,819.4,613z M987.8,613c0-29.7,0-58.6,0-87.6c-6.7,0-13,0-19.3,0c0,29.5,0,58.4,0,87.6
			C975.1,613,981.2,613,987.8,613z M996.1,525.2c0,29.7,0,58.6,0,87.6c6.7,0,13,0,19.4,0c0-29.5,0-58.4,0-87.6
			C1008.9,525.2,1002.7,525.2,996.1,525.2z M991.7,733c0-29.8,0-58.7,0-87.6c-6.7,0-13.1,0-19.3,0c0,29.5,0,58.4,0,87.6
			C978.9,733,985.1,733,991.7,733z M1242.9,677c-6.4-7.5-14.2-2.1-21.2-3.7c0,20.6,0,40.1,0,60c3.6,0,6.7,0,9.8,0
			c3.2,0,6.5,0,10.1,0c0-8.4,0-15.6,0-22.7c0-16.8,2.5-19.7,16-18.3c0-6.6,0-13.2,0-22.3C1252,672.6,1247.4,674.8,1242.9,677z
			 M979.9,89.6c2.9,0,5.3,0,7.7,0c2.1-3.4,5.9-7.1,7.4-6c4.8,3.5,2.1,8.7-0.4,12.6c-3.6,5.6-8,10.5-11.6,16.1
			c-1.5,2.3-2,5.7-3.2,9.4c9.9,0,18.1,0,26.3,0c0.5-1.9,1-3.7,1.4-5.2c1.6,2,2.9,3.7,4.2,5.4c0.6-2.3,1.5-4.5,1.9-6.8
			c0.7-4.8-2-11,4.6-13.5c-2-2-3.3-3.4-5.4-5.4c1.8-1.3,3.1-1.9,4.1-3.1c0.7-0.8,1.1-2.2,1.1-3.3c0-0.5-1.5-1.6-2-1.3
			c-2,0.8-4.8,1.4-5.7,3.2c-1.7,3.3-3,7.5-3,11.3c-0.1,3.7,1.6,7.4,2.5,11.4c-6.5,0-11.5,0-17.9,0c4.4-6.6,8.4-11.7,11.6-17.5
			c4.4-7.9,2.9-16.9-2.9-20.8C991.4,70,982,75.9,979.9,89.6z M987.7,53.5c-8.5-3.2-12.8,0.3-16.2,9.5c-6.8,18-14.7,35.4-22.1,53
			c-0.8,1.8-1.2,3.8-1.8,5.7c0.3,0.7,0.7,1.4,1,2.1c4-1.7,10.1-2,11.7-5.4C969.9,97.3,978.6,75.4,987.7,53.5z M241.1,599.6
			c3,0.6,6,1.3,9,1.8c18.1,3.2,36.1,6.2,54.2,9.7c12.1,2.3,24,2.3,35.6-3c3.6-1.7,6.9-4.4,10.4-6.6
			C313.3,605.8,277.3,598,241.1,599.6z M874.3,597c-6.4,0-12.3,0-18.2,0c-1.6,9.9-3.1,19.3-4.6,29.2c5.7,0,10.9,0,16.3,0
			C869.9,616.3,872.1,606.8,874.3,597z M227.7,274.7c0.5-0.8,1.1-1.5,1.6-2.3c-3.9-3.5-7.5-8.4-11.9-10.2
			c-12.5-5.1-33.7,8.5-38.4,23.8c-0.7,2.5,0.1,5.7,0.3,8.6C186.4,275.9,207.3,267.1,227.7,274.7z M232.5,275.7
			c7.9-25.9,24.3-32,45-29.7c-8.7-9.6-24.8-9.1-36-0.4C233,252.1,229.1,263.5,232.5,275.7z M1467.3,538.7c0.2-0.8,0.4-1.6,0.5-2.5
			c-13.2-5.1-26.4-10.3-39.7-15.1c-1.1-0.4-3.4,1.3-3.9,2.8c-2.9,8.1,0.3,15.5,7.3,18.1c2.8,1,5.3,3.1,8.1,3.9
			c6.9,2,13.8,3.6,20.8,5.4c0.2-0.9,0.3-1.9,0.5-2.8c-5.9-1.8-11.8-3.8-17.8-5.4c-7-1.9-14.3-3-13.2-16.2
			C1442.4,530.9,1454.9,534.8,1467.3,538.7z M1271.6,735c6.8-0.1,11.1-5,10.8-12.2c-0.2-7-4.8-11.4-11.7-11.2
			c-6.4,0.2-10.8,5-10.7,11.7C1260.2,730.2,1265,735.1,1271.6,735z M263.3,574.8c0.5,0.1,1.1,0.2,1.6,0.2c0.8-3.4,2.6-7,2.2-10.2
			c-1-8.1-2.1-16.5-4.6-24c-5.9-17.9-14.1-34.2-24.3-49C247.6,519.1,264.3,542.7,263.3,574.8z M944.4,528.5
			c-1.9,8.4-3.7,16.2-6,26.2c5.3-1.7,10.7-1.3,13-4.5c4.3-6,6.7-14,10.2-21.7C955.5,528.5,950.2,528.5,944.4,528.5z M964.9,121.7
			c4.3,0,8.1,0,10.1,0c4.8-9.6,9-18.1,13.3-26.8c-8.3-3-13.4-0.7-16.2,9C970.4,109.8,967.6,115.1,964.9,121.7z M1426.3,509.1
			c0.9-0.7,3.1-1.8,4.3-3.7c2.3-3.7,4.1-7.8,6-11.9c2.3-5,3.3-9.5-2-13.1c-4.9-3.4-8.5-2-11.3,3.5c-2,3.9-3.9,8-5.3,12.4
			C1415.4,504.7,1417.9,509.1,1426.3,509.1z M340,584.6c-21.8,0.3-37.8-13.8-52.7-33.8C290.7,570.9,322.5,590.7,340,584.6z
			 M1005.1,52.8c-12.5-1.2-12.6-1.2-18.1,17.6C998.4,73.6,1002.5,64.9,1005.1,52.8z M176,298.9c-9-2.3-25.5,13.4-29.3,30.1
			C156.5,319,166.3,308.9,176,298.9z M316.7,358c14.1-2.1,23.2-8.9,24.7-17.9c1.3-7.6-1.3-16.4-6.1-19.6c0.7,8,6.7,16.4-0.1,23.2
			C330.1,349.1,323.8,352.7,316.7,358z M1030.7,120.7c-5-6.9-6.7-13.3-0.8-19.8c-1.2-1.4-2.3-2.6-3.3-3.8c-1.3-1.6-2.6-3.2-3.8-4.8
			c-1.3,3.4-3.3,6.7-3.5,10.2c-0.2,3.4,2,7,2.2,10.6C1021.7,119.8,1023.9,122.8,1030.7,120.7z M1417.4,103.1c0-7.7,0-13.1,0-18.5
			c-0.3,0-0.6,0-0.9,0c-0.2,3.2-0.4,6.3-0.6,10.6c-3.1-4.7-5.6-8.6-9.2-14.1c0,8.6,0,14.4,0,20.2c0.3,0,0.7,0.1,1,0.1
			c0.5-3.4,1-6.8,1.7-11.6C1412.2,94.4,1414.2,97.8,1417.4,103.1z M323,241.6c-0.6,0.2-1.3,0.4-1.9,0.6c0.3,5.8,0.5,11.7,0.8,17.5
			c0.6,0.1,1.2,0.1,1.7,0.2c1.3-2.3,2.5-4.7,3.8-7.1c3.6,2.6,6.8,4.9,9.9,7.2c0.4-0.7,0.7-1.3,1.1-2
			C333.3,252.5,328.1,247.1,323,241.6z M160.2,332.5c-11.9,4.8-13.4,19.4-3.5,33.8C151.4,353.9,152.4,342.7,160.2,332.5z
			 M275.2,284.1c5.8-3.2,7-18.5,1.2-30C276,264.7,275.7,274.3,275.2,284.1z M175.5,493.4c0.7-0.4,1.3-0.8,2-1.1
			c-1.6-10.8-4.4-20.9-10.2-29.3c-0.7,0.4-1.3,0.8-2,1.1C168.8,473.9,172.1,483.6,175.5,493.4z M1461.9,83.1c-0.7,0-1.3,0-2,0.1
			c-1.7,5.3-3.4,10.7-4.5,14.1c4.2,0.7,7.9,1.4,11.7,2C1465.6,94.8,1463.8,88.9,1461.9,83.1z M198.3,324.5
			c8.9,2.9,18.9-2.7,21.9-11.4C213,316.9,206.3,320.3,198.3,324.5z M182,378c-6.5,1-13.2,1.9-19.9,2.9
			C167.9,388.1,176.5,386.7,182,378z M264.9,284.2c-3.6,1.7-7,3.2-10.9,5c4.5,4.5,7.7,9.9,12.9,4.1
			C266.3,290.6,265.7,287.8,264.9,284.2z M1536.7,100.9c-2.3-1.5-4.2-2.8-6.1-4c0.2-0.5,0.4-1.1,0.6-1.6c2.1-0.2,4.3-0.4,6.4-0.6
			c0.3-0.8,0.6-1.6,0.9-2.4c-2-1.4-4.9-4.5-5.8-3.8c-2,1.6-4.1,5.3-4,7.8C1529.1,102.2,1532.8,102.4,1536.7,100.9z M274.4,398.7
			c10.3,2.8,16.7,0.9,19.5-6C287.5,394.7,281.7,396.5,274.4,398.7z M265.4,265.6c-0.2-0.8-0.4-1.6-0.6-2.4
			c-5.6-0.1-11.3-0.3-14.6,8.4C255.3,269.6,260.4,267.6,265.4,265.6z M1469,88.1c-0.5,0.3-0.9,0.5-1.4,0.8c1.4,4.3,2.8,8.5,4.9,15
			c2.2-6.4,3.7-10.6,5.1-14.8c-0.5-0.3-1-0.6-1.6-0.9c-1.1,2.7-2.2,5.4-3.5,8.6C1471.2,93.5,1470.1,90.8,1469,88.1z M244,403.6
			c-5.4-3.4-12,0.6-16.3,10.4C233.5,410.2,238.6,407,244,403.6z M187.9,306.5c-1,0.4-1.9,0.9-2.9,1.3c2.3,6,4.5,12.1,6.8,18.1
			c0.8-0.4,1.5-0.9,2.3-1.3C192,318.6,189.9,312.5,187.9,306.5z M313.6,260.9c-0.2-1.3-0.4-2.5-0.7-3.8c-4.7,1.6-9.4,3.2-14.1,4.8
			c0.2,1,0.4,1.9,0.6,2.9C304.1,263.6,308.8,262.3,313.6,260.9z M254,424.2c-0.6,0.7-1.2,1.5-1.8,2.2c3.8,5.1,7.7,10.2,11.5,15.4
			c0.6-0.7,1.2-1.5,1.9-2.2C261.7,434.5,257.9,429.3,254,424.2z M1585.4,84.8c-0.4-0.5-0.8-1.1-1.2-1.6c-1.3,3.4-3.4,6.9-3.5,10.3
			c0,2.5,2.8,5.1,4.7,8.2C1585.4,94.8,1585.4,89.8,1585.4,84.8z"/>
		<path class="st1" d="M1481.6,546.3c7.1,6,7.9,14.6,6.9,24.3c-0.3,3.4,0.4,6.9,0.7,10.3c2.8-1,5.9-1.4,8.5-3
			c19.7-12.4,40.7-17.5,62.6-16.4c3.5,0.2,7,2.7,11.1,4.3c1.5-12.3,6.8-19.3,15.7-23.8c3.1-1.5,5.1-8.2,6.3-13
			c4.6-17.4,3.3-34.9-0.4-52.5c-8.2-39.8-18.3-78.7-32.1-116.1c-3.9-10.5-6.4-21.8-8.7-33.1c-3.1-15.4,0.1-29.8,8.9-40.8
			c19.5-24.5,29.1-54.2,34.4-87.4c4.8-30.1,16.1-56.8,32-80.4c4.3-6.4,9.7-9.6,16.1-10.3c19.7-2.1,37.6,16.2,40,40.5
			c0.1,0.7,0.5,1.4,1.3,3.2c10.1-15.9,22.8-18.9,37-11.5c14.2,7.4,21.1,20.6,18.2,39c8.5-2.9,16.4-7.4,24.4-7.9
			c18-1.1,30.8,15.9,29.8,38.2c-0.4,8.5,1.3,11.7,8.6,12c11.7,0.4,21.5,6.9,27.9,19.6c3.8,7.5,4.5,15.2,0.7,23.5
			c-2.7,5.8-5.2,11.5,0.6,18.3c1.5,1.8,1,6.9,6.2,6.3c-1.6-7.3-3.1-14-4.5-20.6c7.5,11.6,12.1,23.4,6.1,38.5
			c-11.4,28.5-13.6,60.1-19,90.7c-2.9,16.5-5.9,33-8.8,49.5c-3.4,19-10.2,35.8-22.4,48.1c-14.8,14.8-20,35.3-23.6,57
			c-0.2,1.3-0.1,2.7-0.2,4.6c3.3,1.3,6.3,2.9,9.5,3.8c6.9,1.9,10,7.7,9.1,15.7c-3.6,33.3-7,66.5-11.6,99.6c-1.5,10.8-7,20-15.1,26.4
			c-2.9,2.4-5.9,7.4-6.3,11.6c-1.4,18.5-2.3,37-2.7,55.6c-0.9,41.6-1.3,83.3-1.9,124.9c0,2.1-0.4,4.2-0.5,6.3
			c-0.6,0.1-1.2,0.1-1.8,0.2c-0.8-9-2.3-18.1-2.3-27.1c-0.2-48.6-0.1-97.1-0.1-145.7c0-6.5-0.6-13-0.9-19.5c-7-0.2-8.1,4.8-8.8,10.2
			c-2.6,21.7-5.2,43.3-7.8,65c-0.5,4-1,7.9-1.5,11.9c-0.6-0.1-1.2-0.2-1.9-0.3c2.4-27.4,4.9-54.8,7.5-83.8
			c-9.8-0.8-19.5-1.7-29.1-2.5c-19.1-1.6-38.1-3.3-57.2-4.7c-2-0.1-4.1,1.9-6.2,3c-0.7,0-1.5,0-2.2,0c-2.9-2.3-5.5-5.5-8.6-6.6
			c-14.5-5.3-29.2-9.9-43.7-15.2c-4.8-1.8-6,1.3-6.9,5.7c-3.6,18-6.4,36.3-10.7,54.1c-8,33.4-16.7,66.6-25.2,99.8
			c-1.1,4.3-3,8.4-5.9,12c2.6-13.6,5.2-27.2,7.8-40.9c7.5-39.9,15.1-79.9,22.5-119.8c2-10.8,3.3-21.7-1.1-32.5
			c-1.2-3-0.6-7.7,0.2-11.3c1.2-5.4-0.3-7.9-4-10.4c-3.8-2.6-6.7-7.2-10.4-9.8c-2.3-1.6-5.7-1.8-8.5-1.2c-8.1,1.7-16,4.1-24,6.2
			c-0.1-0.7-0.3-1.4-0.4-2.1c9-3.6,18.1-7.3,27.1-10.9c4.2-1.7,7.3-4.2,5-11.8c-11.6,4.2-24.1,5-33.2,16.9c-3.8,5-8,6.8-13.1,3.4
			c-7.8-5.2-15.7-10.2-23.2-16.1c-2-1.6-2.6-6-3.8-9.2c0.5-0.4,1-0.8,1.5-1.2c7.4,5.9,14.7,12,22.2,17.7c8.7,6.6,12,6.6,15,0.5
			c3.9-7.9,1.2-18.4-7.4-24.5c0.7,6.1,1.2,11.2,2,18.2c-11.3-8-21.5-15.3-32.4-23c-0.9-5.4,0.1-10.4,5.1-15.3
			c7.5-7.3,7-21.2,0.5-33.2C1480.8,547.2,1481.2,546.8,1481.6,546.3z M1820.3,287.4c-0.5,0.8-1,1.7-1.5,2.5c-2,2.2-4.1,4.3-6.1,6.5
			c0.5-5.3,2.6-9.4,3.1-13.8c0.5-4.2-0.9-8.7-1.4-13.3c-4.8-2.6-10-5.5-15.2-8.4c3.9-4.5,7.3-9.4,9-0.2c0.2,0.8,1.4,2,2,1.9
			c4.6-0.6,10.1,0.1,13.5-2.8c4.4-3.8,3.3-11.5-0.2-15.5c-4.6-5.2-10.2-9.7-16-12.5c-11.5-5.5-15.2-2.9-20.1,11.3
			c-6.7,19-13.4,38-20,57c-3.2,9.3-6.4,18.7-9.2,27.1c2.6,2.7,4.8,4,5.8,6.2c6.4,14.2,22.7,15.7,30.3,2.8
			c4.2-7.1,9.2-13.6,13.4-20.7c4.5-7.5,8.4-15.5,12.6-23.3c0.3-1.2,0.7-2.5,1-3.7c0.2-0.9,0.4-1.7,0.7-2.6
			C1821.4,286.3,1820.9,286.8,1820.3,287.4z M1716.2,285.8c-10.6,6.3-21.3,12.6-31.8,18.8c11.4,12,22.5,9.5,29.3-7.2
			c1.4-3.4,2.1-7.1,3.2-10.7c0.2-0.3,0.5-0.7,0.7-1C1717.1,285.7,1716.6,285.7,1716.2,285.8z M1655.1,224.9c5.3,1.6,6.4-3.1,7.4-7.7
			c3.4-16.1,6.7-32.2,10-48.3c0.2-1.1-0.1-2.4-0.2-4c-1.1,0.6-1.6,1.1-2.2,1.3c-1.7,0.4-3.4,0.6-5.1,0.8c1.1-1.5,2.1-3.4,3.4-4.6
			c5.5-5.2,8.8-11.9,8.3-20.6c-0.6-9.4-4.9-15.9-11.9-19.4c-15.9-8.2-31.2-3.3-41.7,13.7c-3.2,5.2-6.7,10.8-8.4,16.9
			c-9.3,33.3-18.1,66.9-27,100.4c11-7.3,16.2-19.2,20.3-31.9c4-12.2,7.1-24.9,10.5-37.3c0.6,0.2,1.2,0.4,1.8,0.6
			c-2.9,14.4-5.7,28.7-8.9,44.7c14.1-0.9,27.9-1.8,41.6-2.8c0.8-0.1,1.6-1.3,2.3-1.9L1655.1,224.9z M1770.2,268.1l0.1,0.2
			c3.9-10.3,7.9-20.5,11.9-31.1c-5.9-0.6-11.5-1.1-17-1.7c0-0.8-0.1-1.5-0.1-2.3c4.2-1.3,8.6-2.1,12.7-3.8
			c8.5-3.5,10.3-12.2,4.5-20.6c-1.8-2.6-3.7-5.1-5.5-7.6c0.3-0.5,0.6-0.9,0.9-1.4c3.6,2.8,7.2,5.7,11.1,8.8c1.6-9.3-1-15.7-6.2-20.3
			c-8.9-7.9-19.2-11.3-29.7-7.7c-8.4,2.9-16.3,7.4-16.7,21.7c-0.4,17.7-2.1,35.3-3.5,52.9c-0.4,4.5-1.5,9-3.1,13.1
			c-3.3,8.7-7.9,16.7-10.4,25.7c-5.1,18-1.2,26.5,13.5,32.4c2.3,0.9,4.8,1.6,7.2,1.7c5.7,0.2,10.9-1.9,13.6-8.4
			c7.3-17.4,14.2-35,21.3-52.5c0.3-1.1,0.6-2.3,0.9-3.4c-0.4-0.4-0.9-0.8-1.3-1.2c-0.3,0.9-0.7,1.9-1,2.8
			C1772.4,266.3,1771.3,267.2,1770.2,268.1z M1586.3,609c4.9-2.7,9.7-5.3,14.6-8c0.4,1.1,0.8,2.2,1.1,3.3
			c-7.4,3.9-14.7,10.2-22.3,11c-7.8,0.8-16-3.8-24.1-6.1c-2.6,20.3,0.5,25.5,15.9,27.2c8.4,0.9,16.3-0.9,24-5.5
			c2.8-1.7,6.2-1.8,9.4-2.6c0.2,1.2,0.4,2.4,0.6,3.6c-8.9,3.1-17.7,6.2-26.6,9.4c-1.8,0.7-4.1,1.4-5,3.1
			c-5.8,11.4-1.8,24.8,8.6,28.8c38.4,14.6,77.6,24.9,117.8,27.1c15.8,0.9,31.5,0.7,47-4.9c10-3.7,15.2-10.9,16.4-24
			c1.9-21.5,4.3-42.9,6.6-64.4c0.6-5.5,1.3-10.9,2-16.5c-33,13.3-65.5,9.5-97.8,6.1c-32.3-3.5-64.5-7.4-94.6-26.8
			c-0.7,7.7-1.5,14.5-1.8,21.3c-0.1,1.4,1.7,3.9,2.9,4.3c6.1,1.9,6.4,5.8,3.3,11.5c-0.5,0.8-1,1.6-1.6,2.3
			C1584,609.2,1585.1,609.1,1586.3,609z M1676.3,442.5c-4.2,6-7.3,11.7-11.4,15.7c-4,3.9-9.2,6.1-13.8,9.1c-0.4-0.8-0.9-1.6-1.3-2.4
			c13.6-4.8,18.7-21.2,29.1-31c8-7.5,14.2-19.2,18.9-30.6c7.7-18.5,9.9-39,8.7-59.9c-1-18.1-3.5-21.2-17.7-25.4
			c-3.9-1.2-5.7,0-7.1,4.5c-1.4,4.7-3.2,9.2-4.8,13.8c-0.5-0.3-1.1-0.5-1.6-0.8c0.9-5.6,2.6-11.2,2.6-16.8c0-4.6,4.1-15.4-6.6-10.4
			c-0.3,0.1-0.9-0.1-1-0.4c-4-8.6-7.5-1.5-10.7,0.9c-2.7,1.9-5,4.7-7.1,7.6c-8.6,12.4-16.9,25-25.4,37.5
			c-3.5,5.1-6.4,11.3-13.1,11.1c0.3-2.6,0.6-4.4,0.8-6.4c-5.7,2-10.8,3.7-15.8,5.5c-0.2-0.7-0.4-1.3-0.6-2c9.4-6,20.2-9.7,26.5-23.9
			c-10.6-0.3-20.3,8.8-30.3-0.5c8-1.6,15-2.4,21.8-4.5c6.4-2,12.6-5.2,18.9-7.9c-0.2-0.8-0.3-1.6-0.5-2.4c-6.4,0.5-13.1,9-20.2-1.6
			c3.5-0.4,6.1-0.3,8.6-1.2c6.1-2.2,12.4-4.2,18.1-7.5c2.3-1.3,4.1-5.7,4.7-9.1c0.2-1.2-3.6-3.8-5.8-5.3c-4.8-3.2-9.3-6.4-6.7-15.9
			c4,4,5.6,12.5,12.3,8.9c-2-6.4-3.9-12.9-5.9-19.3c0.8-0.7,1.6-1.4,2.4-2.1c2.3,2.8,5.8,5.2,6.7,8.6c1.9,7.3,6,10.3,11.2,11.3
			c19,3.9,37-1,52.9-14c14.5-11.8,17.2-33.8,7.2-49c-0.8,1.5-1.7,3-2.9,5.2c-0.6-7.8-3.9-10-8.9-8.6c-9.1,2.5-18.2,5.1-27.2,8.1
			c-6.8,2.3-7.6,5.7-2.8,12c3.2,4.1,7.2,7.2,11.7,11.6c-7.3-0.4-11.4-5-14.5-10.9c-6.3-12.2-6.8-12.3-18.6-10
			c-8.5,1.6-17.3,3.7-25.6,2.1c-9.3-1.7-16.5,0.4-23.4,7.8c-12.4,13.5-25,26.7-37.4,40.3c-8.5,9.3-12.5,21.7-10.4,35.2
			c2.5,16.2,6,32.4,10.6,47.9c6.9,23.4,15.3,46,22.8,69.1c4.6,14.1,8.5,28.5,13.1,42.6c2.5,7.7,2.8,14.7,1.2,23.2
			c-3.8,20.2-6.1,40.8-8.7,61.3c-0.3,2.4,1.5,7.1,3,7.6c15,5,30.1,9.4,45.7,14.2c0.9-4.3,1.5-7.2,2.1-10.1
			c2.5-11.5,4.6-23.1,7.8-34.3c2.6-9,5.7-8.9,10.5-1.5c-1.3,2.1-3.3,3.9-3.8,6.2c-2.4,11.2-4.5,22.6-6.5,33.9c-1,5.9,2,8.2,6,8.6
			c12.9,1.2,25.7,2.1,38.6,3.1c3.6,0.3,5.8-1.4,6.5-6.3c0.6-4.5,1.9-8.9,2.9-13.3c0.8,4.2,0.4,8-0.3,11.7c-1,5.3,0.5,8,4.9,7.9
			c4.2-0.1,8.4-0.4,12.7-0.7c9-0.6,10.7-2.5,11.8-13.7c1.7-16.2,3.1-32.5,5.1-48.6c0.6-4.4,3-8.4,4.6-12.5c0.9,0.3,1.8,0.6,2.6,1
			c0,3.1,0.3,6.2,0,9.2c-2,18.1-4.3,36.1-6.3,54.2c-0.3,2.8,0.7,5.9,1.1,8.8c0.7,0,1.5,0.1,2.2,0.1c0.5-2.1,1.1-4.1,1.6-6.2
			c3.9-17,8.2-34,11.6-51.2c4.3-21.7,12.1-39.5,27.9-52.2c6.9-5.5,13.4-16.2,15.4-26c6-29.5,9.9-59.7,14.2-89.7
			c0.6-4.2-0.8-8.9-1.2-13.4c-0.9-0.1-1.8-0.1-2.7-0.2c8.7-12.4,12.2-26.5,10.5-42.5c-0.3-2.3-1-4.5-1.6-6.8c-1.8,0.8-4,1-5.2,2.5
			c-6.8,8.7-10.7,19.3-13.9,30.8c3.8,1.2,7,2.2,10.1,3.2c0,0.8-0.1,1.6-0.1,2.3c-2.5,0.7-5,1.1-7.4,2.2c-3.8,1.8-8.6,2.8-11.1,6.3
			c-9.4,12.8-36.7,7.5-44.3-4c-0.8-1.3-1.4-2.9-2.2-4.1c-1.4-2-3-3.9-4.5-5.8c-1.4,3.1-3.9,6.3-3.9,9.4c0.1,4.5,1.8,9.1,3.3,13.3
			c4.7,12.5,9.8,24.9,14.6,37.4c1,2.5,1.6,5.3,2.4,7.9c-0.6,0.4-1.3,0.7-1.9,1.1c-6.3-14.5-12.3-29.2-19.1-43.4
			c-4.6-9.7-9.8-19.1-15.7-27.7c-3.7-5.4-8-3.4-9,3.7c-0.9,6.2-1.2,12.7-0.9,19c0.5,12.8,1.6,25.6,2.5,38.3c-0.4,0-0.8,0.1-1.1,0.1
			c-2.2-9.8-4.4-19.5-7.1-31.7c-3.7,22.6-6.3,43.8-17.5,61.1c14-4.1,27.7-7.5,39.5-18.3c-2.6,0-5.2,0-7.7,0c-2.7,0-5.5,0-9.4,0
			c23.8-9.5,26.7-10,30.4-4.9c-1.1,0.8-2.1,1.7-2.5,1.9c6.7,13.8,13.3,27.3,19.9,40.8c-0.7,0.5-1.3,1-2,1.5
			c-5.2-9.5-10.5-19-15.6-28.6c-3-5.7-6.3-6.2-11.3-3.4c-9.7,5.4-19.7,10.2-29.7,14.6c-9.1,3.9-18.4,7-23.1,19.1
			c-0.4,1.1-1.8,1.5-2.6,2.3C1679.2,446.5,1678.3,445.2,1676.3,442.5z M1691.3,220.1c12.8-1.9,25.4-12.8,37.6,3.7
			c0.7-8.9,1.3-15.6,1.8-22.7c-12.4,1.1-23.4,0.1-33.4-7.3c2.6,0,5,1.1,7.5,1.9c7.6,2.3,15.6,3.7,21.2-4.4c5.7-8.4,8.1-19,6.8-30.3
			c-0.3-2.3-1.2-5.1-2.6-6.4c-8.4-7.9-18.2-13.4-28.4-10.1c-7.1,2.3-14.7,8.2-19.2,15.3c-5,7.9-7.1,18.9-9.7,28.8
			c-1.9,7.3-3.4,15-3.7,22.6c-0.3,8.1,3.6,11.3,11.2,11.6c5.9,0.3,6.6-4.8,7.2-10.4c0.5-5.1,1.6-10,2.4-15.1
			c0.4,0.1,0.9,0.3,1.3,0.4C1691.3,204.8,1691.3,212,1691.3,220.1z M1508.1,596.1c3.2,4.7,6.8,8.4,8.6,13.1
			c2.4,6.5,5.9,5.9,10.3,5.2c13.1-2.3,22.2-13,31.6-22.9c0.9-1,1.4-3.5,1.1-5.1c-1-5.9-3.9-8.3-8.8-6.7
			c-12.8,4.4-25.7,8.7-38.5,13.2C1511,593.4,1509.9,594.8,1508.1,596.1z M1575,598.5c0.1-19.3-7.8-32.6-19.6-32.9
			c-8.2-0.2-16.6,2.6-24.7,5.2c-2.4,0.8-4,5.5-5.9,8.4c2.8,0.6,5.8,2.1,8.5,1.5c6.1-1.3,12.1-3.7,18.2-5.4c5.7-1.6,9.6,1.4,11.3,8.3
			c1.1,4.5,1.4,9.4,2.9,13.6c1.1,2.9,3.5,5.1,5.4,7.5C1572.7,602.3,1574.4,599.5,1575,598.5z M1499.1,606.8c0.1-12,4.7-18.5,14.6-19
			c2.2-0.1,4.6-2.2,6.3-4.2c1-1.2,1.4-4.1,1-5.8c-0.3-1.2-2.5-2.8-3.6-2.6c-9.1,1.9-18,4.7-23.7,14.9
			C1489.7,597.4,1491.5,603.2,1499.1,606.8z M1477.8,590.1c3.7,3.8,6.9,7.8,11.2,3.2c0.8-0.9-0.4-6.4-1.9-8.1
			C1482.8,580.2,1480.7,585.4,1477.8,590.1z M1589.8,550.4c-0.6-0.6-1.3-1.2-1.9-1.7c-1.8,2.6-4.2,4.9-5.3,8
			c-0.5,1.5,1.5,4.3,2.3,6.5c1.2-1.4,3-2.5,3.6-4.2C1589.3,556.4,1589.4,553.3,1589.8,550.4z M1760,589.5c7-0.4,12.2-3.6,13.1-8.4
			c0.6-2.8-0.4-6.1-0.7-9.2c-0.6,0-1.2,0-1.9,0C1771.6,581.2,1768,586.5,1760,589.5z M1581.5,611.1c0-0.4-0.1-0.8-0.1-1.2
			c-1,0.2-1.9,0.4-2.9,0.5c0,0.3,0.1,0.6,0.1,1C1579.6,611.3,1580.6,611.2,1581.5,611.1z"/>
		<path class="st2" d="M232,617.9c-5.8,2-11.5,4.1-16.8,5.9c2.9,13.8,5.8,27.5,8.8,41.3c0.3,1.3,1.6,3,2.5,3.1
			c9.4,1.5,18.9,2.6,29,4c-3.7-13.8-7.1-26.2-10.5-38.6c0.6-0.3,1.1-0.5,1.7-0.8c2.7,8,5.4,16.1,8.3,24.1
			c4.7,13.2,9.2,16.8,20.8,15.6c16.9-1.7,33.7-3.9,50.5-5.9c5.7-0.7,8.6-3.6,6.9-11.5c-1.4-6.4-2.3-13-3-19.6
			c-0.9-9.1,1.2-12.1,7.3-13.5c0.5,13.4,1.1,27,1.7,42.2c13.1-3.5,24.3-6.4,35.6-9.4c-1.1-15.9-2-30.8-3.2-45.7
			c-2.6-30.7,2.9-58.3,18.5-82.6c9.2-14.3,18.2-28.7,27.4-42.9c1.5-2.3,3.6-3.9,5.4-5.8c0.5,0.6,1.1,1.1,1.6,1.7
			c-2.3,3.6-4.4,7.4-6.9,10.9c-17.3,25.1-32.2,51.9-37.1,85.2c-1.9,12.7-2.1,25.8-2.3,38.8c-0.1,7.6,2.8,12.1,10.2,11.1
			c8.4-1.1,15,6.3,17.8,18.8c1.6,7.1,2.2,14.6,3.5,23.8c1.9-2.8,3.3-4.7,4.5-6.6c4.1-6.2,7.8-12.9,12.2-18.6
			c6.3-8,13.8-10.2,22.7-6.5c10.1,4.1,11.8,2.1,10.7-11.3c-1.7-21.4,1.9-28.5,18.5-34.6c7.8-2.9,15.8-4.8,23.6-7.2
			c0.2,0.8,0.5,1.7,0.7,2.5c-1.5,0.9-3,1.9-4.7,2.5c-7.6,3-15.6,5-22.9,8.8c-11.7,6.2-16.1,31.8-7.7,43.7c1.2,1.7,4.1,1.4,6.3,2
			c0.4-2.4,1.7-5.1,1.2-7c-5.9-21.2-4.4-25.3,13-31.9c4.6-1.7,9.3-2.9,13.9-4.3c0.3,0.8,0.6,1.7,0.9,2.5c-1.5,1.2-2.8,2.9-4.4,3.6
			c-5.7,2.2-11.7,3.7-17.3,6.3c-2.3,1.1-3.9,4.4-5.8,6.6c0.5,0.7,1,1.4,1.5,2.2c3.3-2,6.6-4.3,10-6c3.7-1.8,7.5-3.4,11.4-4.5
			c1.2-0.3,2.8,1.3,4.2,2c-1.3,1-2.5,2.2-3.8,2.9c-5.6,2.6-11.5,4.3-16.6,7.7c-2.1,1.4-2.6,6.6-3.8,10c2.7-0.9,5.6-1.2,7.9-2.7
			c2.3-1.5,3.8-4.7,6.1-6.4c2.1-1.6,4.8-2.1,7.2-3.1c0.5,1.3,1.1,2.6,1.6,3.9c-19.6,17.8-39.3,35.7-58.9,53.5
			c-0.7-0.8-1.5-1.6-2.2-2.4c1.6-3.7,3.3-7.2,4.6-11c0.8-2.3,0.8-4.9,1.2-7.4c-2.3,0.2-5-0.4-6.7,0.8c-5.7,4.1-7.6,12.3-5.6,20.2
			c1.2,4.7,1.8,9.6,3,15.8c22-18.3,43.7-36.3,66-54.8c0.1,2.7,0.3,5.2,0.4,7.9c7.5-1,14.9-1.9,22.3-2.9c0.1,0.5,0.1,1,0.2,1.5
			c-9.3,3.3-18.7,6.3-27.8,9.9c-5.3,2.1-10.4,5-15.4,7.9c-10.2,5.9-19,13.2-24.3,26.8c-5.2,13.4-12.2,25.9-19.3,37.9
			c-4.1,6.9-9.6,13.1-15.5,17.5c-13.5,9.8-15.9,15.1-11.2,33.7c14.9,58.3,35.3,113.6,58.6,167.4c4.1,9.4,7.8,19.1,11.7,28.7
			c-0.6,0.6-1.1,1.1-1.7,1.7c-2-2.8-4.4-5.3-5.8-8.5c-12.9-29.1-26.9-57.5-38.2-87.6c-13.1-34.8-23.8-71-35.7-106.5
			c-0.7-2-3.7-4.7-5-4.2c-9.8,3.4-19.4,7.6-30.9,12.2c9.1,31.3,18,62.1,26.9,92.9c-0.3,0.2-0.5,0.4-0.8,0.7c-1-2.4-2.2-4.6-3.1-7.1
			c-8.7-25.5-17.4-50.9-25.7-76.6c-2-6.3-4.4-8.9-9.8-7.5c-29.6,7.6-59.6,8.5-89.7,8.6c-14,0-14.2,0.9-12.8,17.9
			c3,36.1,5,72.4,8.4,108.5c3.1,32.5,7.6,64.7,11.3,97.1c0.7,5.9,2.4,12.2-2.3,20c-1.4-7.9-2.5-13.6-3.5-19.3
			c-9.7-55.7-15-112.1-17.8-169c-0.7-14.6-3.2-29.1-5.5-43.5c-1.4-8.9-5.4-15.1-13.5-17c-15.3-3.6-23.7-17-25.7-35
			c-3.6-32.7-5.9-65.6-8.5-98.4c-0.7-8.5,0.7-15,9.6-15.8c6.5-0.6,9.4-11.1,5.2-19.4c-6.6-13.1-12.7-27.1-21.3-38.1
			c-11.8-15.2-19.2-32.3-22.1-52.8c-4.8-33.3-9.8-66.5-14.7-99.8c0.5-0.2,1.1-0.5,1.6-0.7c1,3,2.3,5.8,2.9,8.9
			c6.7,34.2,13.4,68.4,19.8,102.7c2.7,14.5,8.9,26.2,17,38.9c-1.4-20.5-2.7-39.3-3.9-58.1c0.5-0.1,1.1-0.2,1.6-0.3
			c1.8,13.5,3.3,27.1,5.5,40.5c2,12.2,4,24.5,7.3,36.2c5,17.6,11.5,21.5,26.2,18.4c1.4-0.3,2.8,0,4.2,0
			C231.7,616.4,231.8,617.1,232,617.9z M402.6,680.3c0.4-0.6,0.7-1.2,1.1-1.8c-0.7,0.2-1.4,0.4-2.1,0.5c-0.4,0.5-0.8,1-1.2,1.5
			c-3.5,2.6-3.5-0.2-3.6-3.4c-0.2-7.5-0.5-15.1-0.8-23.6c-31.3,19.7-64,22.4-96.5,25c-32.7,2.7-65.6,6.1-98.2-8.3
			c0.7,8.2,1.3,15.6,2,22.9c2.1,21.4,4.1,42.9,6.6,64.3c1.2,10.7,6.7,17.4,15.3,19.3c9,1.9,18,4.2,27,4.6
			c34.2,1.7,68-3.2,101.5-10.7c14.2-3.1,28.1-8.1,41.9-13.4c7.2-2.8,9.7-9.3,8.7-17.3c-1.1-8.8-5.1-13.5-12.4-14.8
			c-1.7-0.3-3.5-0.5-5.2-0.8c2.5-2,5.2-2.8,7.9-2.8c6.9-0.2,13.8,0.7,20.6-0.2c10.9-1.3,17.1-15.1,12.1-27.1c-1-2.5-5.5-3.5-8.5-3.8
			c-3.9-0.3-7.9,1.3-11.8,1.2c-4.6-0.2-7-3.3-5.3-9.5C401.9,681.6,402.3,680.9,402.6,680.3z M441.8,636.5c-5,3.5-9.8,5.1-12.4,8.9
			c-6.7,9.9-12.6,20.6-18.3,31.4c-1.2,2.3-0.4,6.3-0.5,9.5c2.5-1.5,5.8-2.3,7.4-4.7c4.4-6.9,7.9-14.7,12.1-21.8
			c5.1-8.7,13.5-12.8,21.1-3.4c1.1,1.4,3.9,0.8,5.8,1.2c0-2.8,1-6.9-0.1-8C452.3,644.7,447.1,640.9,441.8,636.5z M454.4,686.7
			c-14,3.6-16,6.5-17.6,21c-0.5,4.8-1.6,10.5-4.1,13.7c-4.8,6.2-10.9,11-16.5,16.4c2,3.5,4.2,3.6,9.6-1.7
			C438.9,723.5,445,704.7,454.4,686.7z M384.3,630.1c-0.8,0.8-1.5,1.7-2.3,2.5c0.4,4,0.4,8.2,1.1,12.1c1.2,6.2,4.6,7.4,7.9,2.6
			c1.5-2.1,2.6-7,1.7-8.7C390.7,635.1,387.2,632.8,384.3,630.1z"/>
		<path class="st3" d="M248.8,471.5c-0.4-9.7-0.9-19.4-1.1-29.1c-0.1-6.3-2.4-9-7.4-8.8c-9.7,0.3-18.3-3.5-26.2-12.3
			c-1.8,18.9-12,26-24.8,28.6c-7.7,1.6-14.1-1.8-18.4-10.2c-3.7-7.2-7-14.8-10.8-22c-4.4-8.2-9.1-16.2-17.3-18.3
			c-0.6,0.7-1.3,1.5-1.9,2.2c1.3,2.1,2.2,4.9,3.9,6.1c5.2,3.6,7,8.7,6.2,15.1c-3.6-3.5-7.4-6.7-10.6-10.6c-1.7-2.1-3.3-5.4-3.4-8.3
			c-0.1-6.8,0.7-13.7,1.3-22.5c1.3,2.4,1.8,3.3,2.3,4.3c-0.7-0.8-1.5-1.6-2.2-2.4c0.9-2.5,1.8-4.9,2.7-7.4c1.5,1.7,3,3.3,4.4,5
			c-0.5-4-1-8-1.6-12.9c-1.4,2.8-2.5,5-3.7,7.3c-8.7-14.5-8.1-33,2-43.7c-0.3,7.9-0.5,14.9-0.8,22.8c1.7-1,2.9-1.7,4.2-2.4
			c5.2,30.3,17.5,56.2,31.8,80.8c5.6,9.6,12.5,11.4,21.7,6.2c8.8-4.9,12.9-12.6,9.8-23.9c-6.3-23-13.9-45.4-20.8-68.1
			c-3.4-11.4-6.7-22.8-9.6-34.4c-0.8-3.3-0.1-7.2-0.1-10.9c0.5-0.1,1.1-0.1,1.6-0.2c0.5,1.2,1.2,2.3,1.5,3.5
			c9,30.3,17.7,60.8,27.2,90.8c2.3,7.3,6.1,14.6,10.8,19.6c4,4.2,10.3,4.9,15.7,7.2c5-2.8,9.9-5.6,14.9-8.4c6.4-5.6,5.2-13,3.6-20.9
			c-6-30.4-11.9-60.8-17.6-91.2c-0.7-3.9-0.7-8.1,0.5-12.6c2.7,14.3,5.2,28.7,8.3,42.9c3.6,16.6,6.9,33.3,11.7,49.4
			c6.5,21.9,16.1,26.4,37.2,18c7.6-3,9.1-10,5.1-18.5c-3.5-7.4-8.2-14.1-10.6-22c-2.3-7.5-2.8-16-3.2-24.1c-0.1-2.8,1.7-7.2,3.6-8.3
			c6.4-3.9,5-9.7,3.8-16.1c-2.6-13.7-5.1-27.5-7.6-41.3c-0.3-1.8,0-3.7,0-5.6c0.6-0.1,1.1-0.3,1.7-0.4c2.6,13.4,5.4,26.8,7.7,40.3
			c2.9,17.2,2.8,17.9,16.8,14.5c10.8-2.6,21.3-6.5,31.8-10.7c1.7-0.7,3.4-6.2,3.1-9.1c-1.2-9.2-3.4-18.2-4-28c0.7,1.3,1.7,2.5,2.1,4
			c1.8,6.5,3.3,13.2,5.2,19.7c1.1,3.9,0,10.7,5.8,9.7c6.6-1.1,10.4-8.2,8.3-15.8c-6.1-22.5-16.6-41.5-33.4-53
			c-6.9-4.7-16.1-5.6-24.3-5.9c-8.1-0.3-14.9,5.1-19,14.5c-0.6,1.4-1.7,2.4-3.3,4.5c-2.5-9.2,0.8-14.6,5.8-17.7
			c16.1-10.2,32.6-10.8,48.6,0.2c15.1,10.4,23,28,28.9,47.3c0.3,1,0.6,2.1,0.9,3.1c2.9,10.5,2.9,10.5,11.7,7.1
			c14.4-5.6,28.3,1.8,33.1,19.4c9.1,33,17.8,66.1,25.8,99.5c3.9,16.2,5.9,33.3,1.9,50.1c-1.5,6.4-5.1,12.1-7.7,18.1
			c-0.7-0.5-1.5-1-2.2-1.5c0.8-2.1,1.3-4.4,2.3-6.3c8-14.7,8.7-30.5,4.3-46.9c-8.7-32.3-17.2-64.6-26.4-96.7
			c-8.2-28.6-15.5-31.9-38.4-21.5c-12,5.4-24.8,8-37,12.8c-13.3,5.3-26.3,11.6-39.2,18.1c-1.4,0.7-2.5,6.2-1.8,8.8
			c1.2,5.2,3.7,9.9,6.5,17c-3.2-3.6-4.9-5.5-6.6-7.4c-0.5-0.1-1.1-0.3-1.6-0.4c0.1,0.7,0.2,1.5,0.3,2.2
			c4.1,17.6,14.5,26.5,27.9,31.2c14.5,5,29,5.4,43.4-0.3c10.3-4.1,18.3-11.3,20.1-25.8c0.3-2,1.2-3.8,3.3-5.6
			c0.5,3.2,1,6.5,1.6,10.8c2.5-4.1,4.5-7.5,6.5-10.9c0.6,0.4,1.2,0.8,1.7,1.1c-2,5.3-3.3,11.4-6.2,15.8c-3.3,5-7.7,9-12.1,12.7
			c-4.1,3.5-8.8,5.9-13.2,8.8c0.4,1.1,0.8,2.2,1.2,3.3c11.3-5.9,22.7-11.9,34-17.8c0.3,0.7,0.5,1.4,0.8,2.1
			c-10.4,11.7-22.7,18.7-39.1,20.6c2.6,7.9,4.9,14.7,7.1,21.5c0,0-0.1-0.1-0.1-0.1c2.9,4.5,5.7,8.9,9.2,14.3c-2.7,0-4.4,0-6.2,0
			c-0.3,0.8-0.7,1.6-1,2.4c7.8,6.1,15.5,12.3,24.2,19.1c-9.3,1.5-15.6-4.5-21.8-9.7c-6.2-5.3-12.1-10.9-12.6-22
			c-0.4-9.5-2.3-18.9-3.4-27.8c-16.7-2.2-33.9-4.4-51.7-6.7c-0.2,1.9-4.5,6.1,1.6,10.6c-29.6,27.9-49.7,62.1-40.9,112.8
			c-0.9,0.1-1.8,0.1-2.7,0.2c-1.4-7.7-3.4-15.2-4-23c-1.9-24.7,5.4-45.6,18.6-63.6c3.2-4.4,6.4-8.8,11-15.1
			c-4.9,0.3-7.6,0.5-10.4,0.6c-2.7,0.2-5.7,1.4-7.9,0.3c-10.6-5.1-15.8,4.6-21.9,11.4c5.1,15.5,0.8,31.3,1.9,46.7
			C250.2,471.5,249.5,471.5,248.8,471.5z M142.4,392.2c0.7,0.2,1.4,0.5,2.2,0.7c-0.1-0.7-0.3-1.4-0.4-2.2c-0.7-1-1.3-2.1-2-3.1
			c-0.3,0.2-0.7,0.5-1,0.7C141.6,389.7,142,390.9,142.4,392.2z"/>
		<path class="st4" d="M610.5,553.2c6.6,0,12.3-0.4,18,0.2c1.9,0.2,4.5,3,5,5.2c2.3,9.1,4,18.5,5.9,27.8c0.6,0.1,1.2,0.2,1.8,0.2
			c1.8-8.8,4-17.6,5.4-26.6c0.8-5.4,2.5-7.3,7-7.1c10.2,0.4,20.5,0.1,31.3,0.1c1.4,11.6,2.8,23,4.2,34.4c0.5,0.2,1.1,0.3,1.6,0.5
			c2.1-11.5,4.2-22.9,6.3-34.6c6.5,0,12.7,0,19.1,0c1.8,11.1,3.5,22,5.2,32.9c0.6,0,1.1,0,1.7-0.1c1.2-10.8,2.5-21.5,3.7-32.7
			c5.9,0,11.6,0,18,0c-4.5,19.9-8.9,39.6-13.3,59.3c-7.1,0-13.7,0-20.9,0c-1.7-10.5-3.4-20.9-5.2-31.4c-0.4-0.1-0.9-0.2-1.3-0.3
			c-1.9,10.3-3.7,20.6-5.7,31.4c-6.8,0-13.6,0-20.9,0c-3.5-16.3-7.1-32.8-10.6-49.3c-0.5-0.1-0.9-0.3-1.4-0.4
			c-0.8,2.3-1.8,4.5-2.4,6.9c-4.6,16.2-8.9,32.5-13.7,48.7c-6.5,22-16.8,28.5-35.3,22.5c0-5.6,0-11.3,0-17.3
			c2.5,0.4,4.8,1.1,7.2,1.1c6.8,0,10.5-6.7,7.9-14.7c-5.1-16-10.5-31.8-15.7-47.7C612.5,559.7,611.7,556.9,610.5,553.2z"/>
		<path class="st4" d="M1255.5,445.7c0.2-3.8,0.5-7.6,0.8-11.9c2.5-0.4,4.9-0.7,7.3-1c0.2-0.7,0.7-1.5,0.6-2.2
			c-1.6-17.7,9.4-30,28.5-27.1c1.5,0.2,3.5,3.6,3.8,5.8c0.6,4,0.2,8.2,0.2,12.4c-11-0.6-12.4,0.7-11.7,11.1c5.7,0,11.4,0,17.4,0
			c-1.8-20.1,12.9-11.3,19.8-19.6c0,7.6,0,13.2,0,19.5c3.6,0.3,6.7,0.5,10.1,0.7c0,5.3,0,10.4,0,16c-3.1,0.2-6.1,0.4-9,0.7
			c-2.6,21.8-1.3,25.8,9,26.7c0,5,0,10.2,0,17.8c-5.3,0-10.8,0.7-16.1-0.2c-7.4-1.2-12.3-7.6-13-17.4c-0.6-8.7-0.1-17.6-0.1-26.8
			c-6.6,0-12.3,0-18.4,0c0,14.1,0,27.8,0,42.3c-6.8,0-13.1,0-20.1,0c0-13.6,0-27.6,0-40c-3.8-2.8-6.5-4.7-9.2-6.7
			C1255.5,445.9,1255.5,445.7,1255.5,445.7z"/>
		<path class="st5" d="M933.8,673.2c3.9,0,6.5,0,9.6,0c0,5.4,0,10.5,0,16.4c-2.7,0.2-5.7,0.5-9.4,0.8c0,5.1,0,10,0,14.9
			c0,10.5,0.4,11,9.5,11.7c0,5.1,0,10.2,0,17.8c-5.3,0-10.7,0.7-16-0.2c-7.7-1.2-12.4-8.2-13.2-18.2c-0.3-4.4-0.2-8.9-0.3-13.3
			c0-4.1,0-8.3,0-12.8c-6.1,0-11.8,0-18.2,0c0,14.2,0,28.2,0,42.6c-7,0-13.3,0-20.1,0c0-14.2,0-28,0-42.3c-2.7-0.3-5-0.7-7.9-1
			c0-5,0-10.1,0-15.8c2.2-0.3,4.5-0.6,7-0.9c0.2-0.7,0.7-1.5,0.6-2.2c-1.5-19.8,11.6-30.2,29.1-27c1.3,0.2,2.9,3.1,3.1,5
			c0.5,4.3,0.1,8.8,0.1,13.2c-10.7-0.7-11.9,0.5-12,10.9c5.7,0,11.4,0,17.7,0c0.2-3.4,0.3-6.8,0.5-11.1c6.1-2.2,12.4-4.4,19.5-6.9
			C933.8,661.1,933.8,666.7,933.8,673.2z"/>
		<path class="st6" d="M970.7,492.9c-6.9,0-13,0-20.1,0c0-9.1,0-18.1,0-27.2c0-2.8,0.6-5.9-0.2-8.2c-1-2.9-3.2-5.1-4.8-7.6
			c-1.9,2.5-5.3,4.9-5.5,7.6c-0.7,8.8-0.3,17.7-0.4,26.6c0,2.7,0,5.4,0,8.6c-6.9,0-13.3,0-19.9,0c0-19.7,0-39.4,0-59.3
			c6.5,0,12.7,0,19.4,0c0.3,2.2,0.6,4.5,0.8,5.6c5-2.5,10-6,15.3-7.3c6.2-1.5,11.1,2.9,14.2,9.2c3.7-2.9,7-6.3,10.7-8.1
			c10.7-5,20.4,2.1,21.2,16.3c0.8,14.3,0.2,28.8,0.2,43.6c-6.4,0-12.8,0-19.8,0c0-10.9,0.1-21.7,0-32.4c0-4.7,0.3-10.4-5.2-10.3
			c-5,0.1-5.6,5.4-5.7,10.3C970.6,470.9,970.7,481.5,970.7,492.9z"/>
		<path class="st7" d="M1222.8,553.6c1.4,11.8,2.8,23,4.1,34.1c0.5,0.1,1.1,0.1,1.6,0.2c2.1-11.3,4.1-22.5,6.3-34.2
			c6.2,0,12.3,0,19.1,0c1.8,11.5,3.7,23.4,5.6,35.2c0.4,0,0.7,0,1.1,0c1.3-11.8,2.6-23.5,3.9-35.3c6.2,0,11.9,0,18,0
			c-4.2,18.9-8.3,37.4-12.6,55.7c-0.4,1.7-2.6,3.7-4.1,3.8c-5.7,0.4-11.5,0.2-17.5,0.2c-1.8-10.4-3.4-20.2-5.1-30
			c-0.6,0-1.2,0-1.8,0c-1.8,9.8-3.6,19.6-5.4,29.6c-6.8,0-13.4,0-20.9,0c-4.1-19.4-8.3-39.1-12.6-59.3
			C1209.5,553.6,1215.9,553.6,1222.8,553.6z"/>
		<path class="st7" d="M870.2,466.4c1.2-10.8,2.4-21.5,3.7-32.7c6,0,11.6,0,18,0c-4.5,19.9-8.9,39.5-13.3,59.3c-7.1,0-13.7,0-21,0
			c-1.7-10.4-3.4-20.8-5.1-31.2c-0.4-0.1-0.9-0.2-1.3-0.3c-1.9,10.2-3.7,20.5-5.7,31.3c-6.7,0-13.5,0-21,0
			c-4.1-19.3-8.3-39-12.6-59.1c6.9,0,13.2,0,20.1,0c1.4,11.5,2.8,22.8,4.1,34.2c0.5,0.1,1.1,0.2,1.6,0.3c2.1-11.3,4.1-22.6,6.3-34.3
			c6.3,0,12.6,0,19.2,0c1.7,10.9,3.4,21.7,5.1,32.5C869,466.2,869.6,466.3,870.2,466.4z"/>
		<path class="st8" d="M1142.3,673.6c0-3.4,0-8.3,0-13.1c0-4.9,0-9.9,0-15.2c7,0,13.3,0,20,0c0,29.2,0,58.2,0,88.2
			c-7.3-1.9-14.9,3.3-21.9-3.9c-14.6,13.7-32,1.3-32.4-22.7c-0.3-17.8,5.2-31,16.3-34.1C1129.8,671.3,1135.8,673.2,1142.3,673.6z
			 M1143,701.8c-0.5-4.9-0.8-11.8-7.1-11.6c-6.4,0.2-7.3,7-7.4,13.3c-0.1,6,0.4,12.1,6.6,13C1139.8,717.2,1142.9,711.4,1143,701.8z"
			/>
		<path class="st4" d="M1255.5,445.7c0,0-0.1,0.2-0.1,0.2c-0.8,7.9-1.1,16-2.6,23.8c-3.3,17.7-12.1,25.8-26.4,25.2
			c-12.4-0.5-21.1-9.9-22.7-27.3c-1-11.1-0.8-22.9,0.8-33.8c2.7-17.9,12.4-26.2,26.8-25.6c11.9,0.5,19.4,9.8,22.2,27.2
			C1254.3,438.8,1254.9,442.3,1255.5,445.7z M1235,451.7c-0.6-6.7-0.8-12.9-1.9-18.7c-0.4-2.4-2.9-4.2-4.4-6.3
			c-1.4,1.9-4,3.7-4.1,5.7c-0.4,12.9-0.5,25.8-0.2,38.6c0,1.9,2.7,3.7,4.1,5.5c1.4-1.9,3.7-3.5,4.1-5.7
			C1233.9,464.3,1234.3,457.7,1235,451.7z"/>
		<path class="st6" d="M1083.2,675.7c0-10.3,0-20.2,0-30.4c6.7,0,13,0,19.9,0c0,26.9,0,53.4,0,80c0,2.4,0,4.9,0,8.3
			c-7.3-1.7-14.6,2.6-22.2-4c-0.2,0.2-1.8,2.2-3.6,2.5c-5.3,0.8-11.1,2.7-15.9,0.9c-10.7-4-15.2-20.5-11.9-38.9
			c2.6-14.2,11.4-23.4,22.2-22.3C1075.4,672.1,1078.8,674.2,1083.2,675.7z M1083.5,703.7c-0.3-3.1,0.1-5.9-0.9-7.3
			c-1.9-2.6-6-6.6-6.5-6.1c-2.7,2.8-5.7,6.6-6.6,10.7c-1.3,5.5-1.1,12.3,4.2,14.7c2,0.9,5.9-1.3,7.7-3.6
			C1083,710.2,1083,706.1,1083.5,703.7z"/>
		<path class="st6" d="M525.4,608.5c0,11.3,0,21.5,0,32.4c-6.5,0-12.8,0-19.6,0c0-28.7,0-57.7,0-87.2c6.2,0,12.6,0,19.2,0
			c0.2,1.5,0.5,3.3,0.8,5.3c0.7-0.4,1.4-0.6,1.8-1.1c6-7,12.9-8.3,20.4-4.7c7.3,3.5,10.3,11.2,10.9,20.2c0.4,6,0.5,12.2-0.3,18.2
			C556.6,608.1,542.2,623.9,525.4,608.5z M524.4,584.6c1,3,1.7,7.5,3.7,10.1c3,3.9,6.5,2.2,9-1.9c3.3-5.5,2.5-18.2-1.3-21.4
			c-4-3.3-7.3-1.5-9.4,3.3C525.4,577.3,525.2,580.5,524.4,584.6z"/>
		<path class="st9" d="M1091.6,525.2c6.6,0,12.8,0,19.4,0c0,11.3,0,22.3,0,34.7c2.4-2.1,3.8-3.5,5.4-4.8c10-8.3,22.7-3,24.1,11.7
			c1.5,14.9,0.3,30.3,0.3,45.9c-5.7,0-11.8,0-18.8,0c0-10.8,0-21.6,0-32.3c0-4.8,0.1-10.4-5.2-10.4c-5.1,0-5.5,5.4-5.5,10.3
			c-0.1,10.5,0,21.1,0,32.2c-6.6,0-12.9,0-19.7,0C1091.6,583.9,1091.6,554.9,1091.6,525.2z"/>
		<path class="st6" d="M720.7,492.9c-7.2,0-13.3,0-19.8,0c0-29.2,0-57.9,0-87.4c6.2,0,12.5,0,19.6,0c0,10.9,0,22,0,34.5
			c2.5-2.3,4-3.8,5.6-5.1c10.1-8.1,21.6-2.2,24.2,12.3c0.4,2.2,0.8,4.4,0.8,6.6c0.1,12.7,0,25.5,0,38.8c-6.4,0-12.5,0-19.6,0
			c0-8.7,0-17.8,0-26.8c0-2.8,0.6-5.9-0.2-8.2c-1-2.9-3.2-5.1-4.8-7.6c-1.9,2.5-5.2,4.9-5.4,7.7c-0.8,7.9-0.3,16.1-0.3,24.1
			C720.6,485.3,720.7,488.8,720.7,492.9z"/>
		<path class="st9" d="M647.6,469.5c5.8,2.5,10.9,5.6,16.2,6.5c3,0.5,6.5-2.7,9.7-4.2c-2.1-3.1-3.8-6.9-6.4-9.1
			c-3.4-2.9-7.8-4.1-11.2-7c-12.9-10.7-12.2-33.2,1.4-42.6c10.6-7.3,21.9-5.8,33-2.4c1.1,0.3,2.4,3,2.5,4.7c0.3,5.4,0.1,10.9,0.1,16
			c-6-1.7-11.5-3.9-17-4.6c-2.2-0.3-4.7,2.9-7.1,4.5c1.6,2.6,2.8,6.1,4.9,7.8c4.6,3.7,10.2,5.8,14.6,9.7c11.9,10.7,11,32.1-1.9,40.8
			c-11.6,7.8-24,6.8-36.2,1.8c-1.2-0.5-2.4-3.6-2.5-5.6C647.4,480.7,647.6,475.4,647.6,469.5z"/>
		<path class="st4" d="M1307.8,641c0-6,0-11.5,0-17.4c2.2,0.5,4.1,1.1,6,1.2c7.9,0.7,11.9-6.2,9-15.4c-5.5-16.9-11.1-33.9-16.6-50.8
			c-0.5-1.5-0.8-3.1-1.2-4.6c0.7-0.3,1.1-0.7,1.5-0.7c19.9-1.5,19.9-1.5,24.7,22.1c0.8,3.7,1.5,7.4,2.3,11c0.6,0.1,1.2,0.2,1.8,0.3
			c2.3-10.9,4.6-21.9,6.9-33.1c6.3,0,12.5,0,19.4,0c-3.2,11.4-6.3,22.5-9.4,33.6c-3,10.7-5.8,21.5-9.1,32.1
			C1336.4,640.9,1326.2,647.1,1307.8,641z"/>
		<path class="st10" d="M818.5,673.9c0.3-7-1.5-16.6,1.3-19.3c7-7.1,16.5-7.8,25.4-5.8c16.1,3.7,22.5,26.8,11.7,42.3
			c-3.3,4.7-7.8,8.1-11.8,12c-2.8,2.8-5.7,5.4-7.9,9.8c8.1,0,16.2,0,24.8,0c0,6.8,0,13,0,19.8c-15.3,0-30.7,0-46.8,0
			c-1.1-11.2,0.2-21.8,7.2-30.1c4.6-5.5,9.9-10.3,14.7-15.6c3.4-3.8,6.6-8.4,3.9-14.4c-2.7-6-7.6-4.8-11.9-3.6
			C825.6,670,822.4,672,818.5,673.9z"/>
		<path class="st5" d="M1452,553.5c7,0,13.1,0,19.7,0c0,19.8,0,39.3,0,59.8c-6.9-1.5-14.4,3-22-3.7c-1.3,0.8-3.9,2.9-6.8,4.1
			c-10.8,4.6-20.6-2.2-21.5-16.2c-0.9-14.5-0.2-29.2-0.2-44.1c6.4,0,12.6,0,19.8,0c0,8.8,0,17.6,0,26.3c0,2.8-0.6,5.9,0.2,8.2
			c1,3.1,3.1,5.7,4.7,8.5c2-2.7,5.4-5.3,5.7-8.2c0.8-8.5,0.3-17.2,0.3-25.7C1452,559.8,1452,557.1,1452,553.5z"/>
		<path class="st10" d="M783,494.9c-16.4,0-26.8-11-27.6-29.2c-1.1-23.7,15-39.1,34.9-33.6c14.3,4,22.3,17.2,20.7,34
			C809.2,485,799.5,494.9,783,494.9z M790.6,462.6c-0.1-5.1-0.1-11.6-6.7-12.7c-4.9-0.8-8,4-8.2,12.2c-0.2,8.6,2.5,14.1,7.2,14.4
			C787.6,476.9,790.3,472.4,790.6,462.6z"/>
		<path class="st10" d="M1173.7,614.9c-17.1,0-27.5-11.3-27.9-30.4c-0.3-14,4.5-24.3,13.8-29.5c11.6-6.5,26.8-3.9,35,5.8
			c7.1,8.5,9.1,22.8,5,35.5C1195.6,608.4,1186.6,614.9,1173.7,614.9z M1181,583c0.1-8.5-2.4-13.1-7.3-13.1c-4.8,0-7.6,4.7-7.6,13
			c0,8.7,2.9,14.2,7.8,13.6C1180.6,595.8,1180.6,589.2,1181,583z"/>
		<path class="st10" d="M1388.5,614.9c-16,0-26.1-10.4-27.5-27.7c-2.1-27,15-39.1,34.5-35.1c14.5,3,22.4,16.6,20.9,33.7
			C1414.8,604.9,1405.1,614.9,1388.5,614.9z M1396.1,583.3c0.1-8.6-2.3-13.2-7.1-13.4c-4.9-0.2-7.7,4.4-7.8,12.7
			c-0.1,8.8,2.7,14.3,7.6,13.9C1395.3,595.9,1395.8,589.6,1396.1,583.3z"/>
		<path class="st7" d="M722.2,732.9c-0.2-2.4-0.4-4.4-0.6-6.5c-0.4-0.4-0.9-0.7-1.3-1.1c-0.8,1.6-1.4,3.5-2.5,4.7
			c-5.2,5.7-11.2,6.6-17.4,3.3c-5.8-3.1-7.8-9.5-7.9-16.9c-0.1-8.6,2.7-15.5,9.4-18.3c6.3-2.6,12.9-3.7,19.4-5.4
			c-3-7.9-4.7-8-24.2-0.6c0-4.3-0.3-8.4,0.1-12.4c0.2-1.7,1.8-4.4,2.9-4.5c8.7-1,17.5-2.5,26.2-2c7.8,0.5,12.7,7.6,13.2,17.1
			c0.7,14,0.2,28.1,0.2,42.6C734.3,732.9,728.5,732.9,722.2,732.9z M721.8,706c-0.7-0.9-1.4-1.8-2-2.8c-3.2,3.2-6.4,6.4-9.6,9.6
			c1.9,1.8,3.9,5.4,5.5,5.1C721.1,717,722.3,711.8,721.8,706z"/>
		<path class="st7" d="M1129.5,492.9c-6.2,0-11.9,0-18,0c-0.2-2.2-0.5-4.4-0.9-9.1c-1.8,3.2-2.5,5-3.6,6.2
			c-5.2,5.6-11.2,6.5-17.4,3.1c-5.8-3.2-7.7-9.6-7.8-17c0-8.2,2.5-15.1,8.9-17.8c6.4-2.7,13.3-4,19.9-5.8c-3.2-7.7-3.7-7.7-23.8-0.7
			c-0.1-0.2-0.3-0.4-0.3-0.6c-1-15.4-1-15.6,11.4-18.4c4.3-1,8.9-1.4,13.3-1c11.5,1,17.7,8.8,18.3,23.6
			C1129.9,467.5,1129.5,479.7,1129.5,492.9z M1109.1,463.3c-3.3,3.1-6.6,6.2-9.9,9.3c1.8,1.9,3.8,5.6,5.4,5.4
			C1110,477.2,1111.3,472,1109.1,463.3z"/>
		<path class="st7" d="M566.3,572.2c-0.3-18-2.8-16,11.7-19.6c4.3-1,8.9-1.3,13.3-0.8c10.8,1.2,16.9,8.2,17.7,21.6
			c0.8,12.9,0.2,25.9,0.2,39.4c-5.8,0-11.6,0-17.8,0c-0.2-1.9-0.5-4.2-0.9-6.8c-0.7,0.6-1.3,1-1.7,1.5c-6.2,7.7-12.6,9.6-19.3,5.8
			c-5.6-3.2-8.5-10.3-7.9-19.4c0.6-9.2,4.6-14.9,13-17.5c5.3-1.6,10.7-2.5,17.7-4C582.7,561.7,574.7,569.5,566.3,572.2z M590.8,586
			c-0.7-0.9-1.4-1.8-2.1-2.8c-3.2,3.2-6.4,6.4-9.5,9.6c1.9,1.8,4,5.3,5.6,5C590.1,596.9,591.2,591.8,590.8,586z"/>
		<path class="st9" d="M1027.3,692.1c-9.8-10-17.6-3-25.4,0.1c-0.2-0.5-0.6-1-0.6-1.5c0-18-2-14.4,11-17.9c4.3-1.1,8.8-1.4,13.2-1.1
			c11.8,0.9,18.2,9.1,18.6,24c0.3,12.2,0.1,24.3,0.1,37c-5.8,0-11.5,0-17.8,0c-0.4-1.6-0.8-3.8-1.4-6.4c-1.4,1.6-2.4,3-3.6,4.1
			c-5.4,5.3-11.4,6.1-17.5,2.5c-5.7-3.4-7.5-10.1-7.4-17.3c0.1-8.4,3.1-15.3,9.9-17.9C1012.6,695.4,1019.1,694.3,1027.3,692.1z
			 M1025.4,703.7c-4,4.2-11.1-0.1-10.7,9.6c0.1,1.7,3.8,5,5.4,4.6C1025.3,716.6,1026.2,711.4,1025.4,703.7z"/>
		<path class="st9" d="M774,572.8c-8-10.6-15.6-3.7-23.4-0.5c-0.2-0.3-0.6-0.7-0.6-1.2c-0.1-17.8-2.5-14.8,11.4-18.3
			c4.5-1.1,9.3-1.4,13.9-0.9c11.2,1.4,17.1,9.4,17.5,23.5c0.3,12.2,0.1,24.4,0.1,37.2c-5.8,0-11.7,0-18.2,0
			c-0.2-1.7-0.4-3.7-0.7-6.1c-0.9,0.6-1.5,0.9-1.9,1.4c-6.2,7.2-13.1,9.2-19.4,5.2c-6.1-3.9-8-10.9-7.6-18.8
			c0.5-9.8,4.6-15.2,13.3-17.9c2.6-0.8,5.2-1,7.8-1.6C768.9,574.2,771.5,573.4,774,572.8z M772.5,583.4c-3.2,3-6.4,6.1-9.6,9.1
			c1.7,1.9,3.6,5.6,5.2,5.4C773.5,597.3,774.7,592.1,772.5,583.4z"/>
		<path class="st4" d="M1216.7,710c-10.1,0-19.4,0-30.5,0c8.1,12.2,17,7.6,25.2,5.6c0.2,0.4,0.4,0.6,0.5,0.9
			c1.2,15.2-0.4,17.7-12.6,18.4c-3.8,0.2-7.6,0.4-11.3-0.4c-11.1-2.3-17.6-10-19.7-22.5c-2.3-14,1.6-27.8,9.8-34.8
			c8.5-7.2,21.6-7.6,29.7-0.7C1217.1,684.6,1217.2,696.7,1216.7,710z M1186.3,693.6c0.5,0.9,0.9,1.8,1.4,2.7c3.7,0,7.3,0,11,0
			c0.5-0.7,0.9-1.3,1.4-2c-2.2-2.6-4.4-7.1-6.5-7.1C1191.1,687.1,1188.7,691.3,1186.3,693.6z"/>
		<path class="st4" d="M1026.7,472.4c6.8,9.9,15.5,5.2,23.8,3.1c1.4,17.2,0.3,18.9-13.2,19.4c-3.3,0.1-6.7,0.3-10-0.3
			c-11.1-2-18.5-10.5-20.4-22.7c-2.2-14.6,2-28.5,10.6-35.2c9.1-7.2,22.1-6.9,30.1,0.7c6.6,6.2,9.2,16.9,7.7,32.4
			c-9.4,0-18.8,0-28.3,0C1026.9,470.6,1026.8,471.5,1026.7,472.4z M1037.4,456.3c0.6-5.4-0.8-9.9-5.1-9.3c-2.5,0.4-4.7,4.9-7,7.5
			c0.5,0.6,1,1.2,1.4,1.8C1030.3,456.3,1033.8,456.3,1037.4,456.3z"/>
		<path class="st11" d="M804.7,732.9c-6.5,0-12.8,0-19.8,0c0-19.6,0-38.9,0-58.3c-5.1,1.5-9.5,2.8-14.4,4.2c0-6.4,0-11.9,0-18.6
			c11.8-0.5,20.6-15.4,34.2-11.2C804.7,676.7,804.7,704.6,804.7,732.9z"/>
		<path class="st11" d="M1159.6,419.8c12.2,0.1,20.8-15.7,34.3-10.8c0,27.8,0,55.7,0,83.9c-6.4,0-12.6,0-19.4,0
			c0-19.1,0-38.4,0-58.3c-5.3,1.4-9.9,2.7-14.8,4C1159.6,431.9,1159.6,426.1,1159.6,419.8z"/>
		<path class="st12" d="M1232.6,944c0,25.1,0,50,0,75.5c-163.2,0-326.3,0-490,0c0-25,0-49.8,0-75.5C905.5,944,1068.7,944,1232.6,944
			z M1121.3,945.5c-126.2,0-251.9,0-377.4,0c0,24.6,0,48.6,0,72.5c126.1,0,251.6,0,377.4,0C1121.3,993.7,1121.3,969.9,1121.3,945.5z
			 M1123.5,1017.5c36.2,0,71.9,0,107.3,0c0-24.4,0-48.2,0-71.8c-36,0-71.5,0-107.3,0C1123.5,969.8,1123.5,993.3,1123.5,1017.5z"/>
		<path class="st13" d="M827.3,525.1c6.5,0,12.7,0,19.4,0c0,29,0,58,0,87.6c-6.2,0-12.5,0-19.4,0C827.3,584,827.3,555,827.3,525.1z"
			/>
		<path class="st4" d="M1046.7,595.8c5.2,1.5,9.7,3.3,14.2,3.9c1.9,0.3,4.1-2,6.1-3.1c-1.5-1.7-2.9-3.7-4.6-4.9
			c-2.1-1.5-4.5-2.2-6.8-3.3c-5.7-2.9-8.9-7.9-9-15.8c0-8.4,3-14.3,9.1-17.7c8.7-4.9,17.6-4,26.8-1c0,5.2,0,10.1,0,15.5
			c-3.5-0.9-6.8-2.3-10.2-2.5c-1.9-0.2-3.9,1.4-5.9,2.2c1.4,1.8,2.6,4,4.2,5.3c1.9,1.4,4.2,1.7,6.2,2.8c5.5,3,9.1,7.6,9.2,15.7
			c0.1,8.4-2.7,14.6-8.5,18.3c-9.2,5.8-19,4.3-28.6,1.9c-1-0.2-2.1-2.7-2.2-4.2C1046.5,604.6,1046.7,600.5,1046.7,595.8z"/>
		<path class="st14" d="M928.6,612.9c-6.6,0-13,0-19.8,0c0-27.3,0-54.5,0-82.4c6.5,0,13,0,19.8,0
			C928.6,557.9,928.6,585.1,928.6,612.9z"/>
		<path class="st11" d="M819.4,613c-6.6,0-12.8,0-19.3,0c0-29.2,0-58.1,0-87.6c6.3,0,12.6,0,19.3,0
			C819.4,554.4,819.4,583.3,819.4,613z"/>
		<path class="st11" d="M987.8,613c-6.6,0-12.8,0-19.3,0c0-29.2,0-58.1,0-87.6c6.3,0,12.6,0,19.3,0
			C987.8,554.4,987.8,583.3,987.8,613z"/>
		<path class="st15" d="M996.1,525.2c6.6,0,12.8,0,19.4,0c0,29.2,0,58.1,0,87.6c-6.3,0-12.6,0-19.4,0
			C996.1,583.8,996.1,554.8,996.1,525.2z"/>
		<path class="st6" d="M991.7,733c-6.6,0-12.7,0-19.3,0c0-29.2,0-58.1,0-87.6c6.2,0,12.6,0,19.3,0
			C991.7,674.3,991.7,703.3,991.7,733z"/>
		<path class="st14" d="M1242.9,677c4.5-2.1,9.1-4.3,14.7-7c0,9.1,0,15.7,0,22.3c-13.5-1.3-15.9,1.5-16,18.3c0,7.2,0,14.4,0,22.7
			c-3.6,0-6.8,0-10.1,0c-3.1,0-6.2,0-9.8,0c0-19.9,0-39.4,0-60C1228.7,674.9,1236.5,669.5,1242.9,677z"/>
		<path class="st16" d="M979.9,89.6C982,75.9,991.4,70,1000.5,76c5.8,3.8,7.3,12.9,2.9,20.8c-3.2,5.8-7.2,10.9-11.6,17.5
			c6.4,0,11.4,0,17.9,0c-1-4-2.6-7.8-2.5-11.4c0.1-3.9,1.4-8,3-11.3c0.9-1.9,3.7-2.4,5.7-3.2c0.6-0.2,2,0.9,2,1.3
			c0,1.1-0.4,2.6-1.1,3.3c-1,1.1-2.3,1.8-4.1,3.1c2.1,2.1,3.4,3.5,5.4,5.4c-6.7,2.5-4,8.7-4.6,13.5c-0.3,2.3-1.2,4.5-1.9,6.8
			c-1.3-1.7-2.6-3.3-4.2-5.4c-0.4,1.5-0.9,3.4-1.4,5.2c-8.2,0-16.5,0-26.3,0c1.2-3.7,1.7-7.1,3.2-9.4c3.6-5.6,7.9-10.5,11.6-16.1
			c2.5-3.9,5.2-9,0.4-12.6c-1.5-1.1-5.3,2.7-7.4,6C985.1,89.6,982.7,89.6,979.9,89.6z"/>
		<path class="st16" d="M987.7,53.5c-9.2,22-17.8,43.8-27.5,64.9c-1.6,3.5-7.7,3.7-11.7,5.4c-0.3-0.7-0.7-1.4-1-2.1
			c0.6-1.9,1.1-3.9,1.8-5.7c7.4-17.6,15.4-35,22.1-53C974.9,53.8,979.2,50.2,987.7,53.5z"/>
		<path class="st17" d="M241.1,599.6c36.3-1.6,72.3,6.2,109.1,2c-3.5,2.2-6.8,4.9-10.4,6.6c-11.6,5.3-23.5,5.3-35.6,3
			c-18-3.5-36.1-6.5-54.2-9.7C247,600.9,244,600.2,241.1,599.6z"/>
		<path class="st7" d="M874.3,597c-2.2,9.8-4.4,19.3-6.6,29.2c-5.4,0-10.6,0-16.3,0c1.6-9.9,3.1-19.3,4.6-29.2
			C862,597,867.9,597,874.3,597z"/>
		<path class="st3" d="M227.7,274.7c-20.4-7.6-41.2,1.2-48.4,19.9c-0.1-2.9-1-6.1-0.3-8.6c4.6-15.4,25.9-28.9,38.4-23.8
			c4.4,1.8,8,6.7,11.9,10.2C228.7,273.1,228.2,273.9,227.7,274.7z"/>
		<path class="st18" d="M232.5,275.7c-3.4-12.2,0.6-23.6,9-30.2c11.1-8.7,27.3-9.1,36,0.4C256.8,243.6,240.3,249.7,232.5,275.7z"/>
		<path class="st18" d="M1467.3,538.7c-12.5-3.9-24.9-7.8-37.5-11.7c-1.1,13.2,6.2,14.3,13.2,16.2c6,1.6,11.9,3.6,17.8,5.4
			c-0.2,0.9-0.3,1.9-0.5,2.8c-6.9-1.8-13.9-3.4-20.8-5.4c-2.8-0.8-5.3-2.9-8.1-3.9c-7-2.6-10.2-10-7.3-18.1c0.5-1.4,2.9-3.1,3.9-2.8
			c13.3,4.8,26.5,10,39.7,15.1C1467.7,537.1,1467.5,537.9,1467.3,538.7z"/>
		<path class="st8" d="M1271.6,735c-6.6,0.1-11.4-4.8-11.5-11.7c-0.1-6.7,4.3-11.5,10.7-11.7c6.9-0.2,11.5,4.1,11.7,11.2
			C1282.7,730,1278.4,734.8,1271.6,735z"/>
		<path class="st18" d="M263.3,574.8c1-32.1-15.8-55.7-25-82.9c10.2,14.8,18.4,31.1,24.3,49c2.5,7.5,3.6,15.9,4.6,24
			c0.4,3.2-1.4,6.8-2.2,10.2C264.4,574.9,263.9,574.9,263.3,574.8z"/>
		<path class="st7" d="M944.4,528.5c5.8,0,11.1,0,17.2,0c-3.5,7.8-5.9,15.8-10.2,21.7c-2.3,3.2-7.7,2.8-13,4.5
			C940.7,544.7,942.5,536.9,944.4,528.5z"/>
		<path class="st17" d="M964.9,121.7c2.7-6.5,5.5-11.9,7.3-17.8c2.8-9.7,8-12,16.2-9c-4.3,8.7-8.5,17.1-13.3,26.8
			C973,121.7,969.2,121.7,964.9,121.7z"/>
		<path class="st18" d="M1426.3,509.1c-8.4,0-11-4.4-8.3-12.8c1.4-4.3,3.3-8.4,5.3-12.4c2.8-5.5,6.3-6.9,11.3-3.5
			c5.3,3.6,4.2,8.1,2,13.1c-1.9,4.1-3.7,8.2-6,11.9C1429.4,507.3,1427.2,508.4,1426.3,509.1z M1419.4,503.8c8.4,1.2,13-2,12.9-8.5
			c0-2.3-1.4-5.6-2.9-6.6c-1.1-0.7-4.2,1-5.2,2.8C1422.3,494.9,1421.2,499.1,1419.4,503.8z"/>
		<path class="st19" d="M340,584.6c-17.5,6.1-49.3-13.7-52.7-33.8C302.2,570.7,318.2,584.9,340,584.6z"/>
		<path class="st17" d="M1634.2,708.2c0.7,0,1.5,0,2.2,0c-2.4,19.6-3.2,39.7-8.2,58.6c-1-0.2-2-0.3-3-0.5c0.3-4,0.4-8,1-11.9
			C1628.8,739,1631.5,723.6,1634.2,708.2z"/>
		<path class="st17" d="M1005.1,52.8c-2.6,12.1-6.8,20.8-18.1,17.6C992.6,51.7,992.6,51.6,1005.1,52.8z"/>
		<path class="st3" d="M176,298.9c-9.7,10-19.5,20.1-29.3,30.1C150.5,312.3,167.1,296.6,176,298.9z"/>
		<path class="st17" d="M316.7,358c7-5.3,13.3-9,18.6-14.2c6.8-6.9,0.8-15.2,0.1-23.2c4.8,3.2,7.4,12,6.1,19.6
			C339.9,349.1,330.8,355.9,316.7,358z"/>
		<path class="st16" d="M1030.7,120.7c-6.8,2-8.9-1-9.3-7.6c-0.2-3.6-2.4-7.2-2.2-10.6c0.2-3.5,2.3-6.8,3.5-10.2
			c1.3,1.6,2.5,3.2,3.8,4.8c1,1.3,2.1,2.4,3.3,3.8C1023.9,107.5,1025.6,113.9,1030.7,120.7z"/>
		<path class="st11" d="M1388.1,105c-7.4,4.2-9.9,2.3-11.1-7.4c-0.4-3.1-2.5-5.9-4.1-9.3c3,0.6,5.8,1.1,8.6,1.6
			c-0.4,0.9-1.4,2.2-1.3,2.5C1382.8,96.7,1385.5,100.8,1388.1,105z"/>
		<path class="st19" d="M1417.4,103.1c-3.2-5.3-5.3-8.7-8.1-13.4c-0.7,4.9-1.2,8.2-1.7,11.6c-0.3,0-0.7-0.1-1-0.1
			c0-5.8,0-11.7,0-20.2c3.6,5.5,6.2,9.4,9.2,14.1c0.3-4.2,0.5-7.4,0.6-10.6c0.3,0,0.6,0,0.9,0C1417.4,90,1417.4,95.4,1417.4,103.1z"
			/>
		<path class="st19" d="M323,241.6c5.1,5.5,10.3,10.9,15.4,16.4c-0.4,0.7-0.7,1.3-1.1,2c-3.2-2.3-6.3-4.6-9.9-7.2
			c-1.3,2.4-2.6,4.8-3.8,7.1c-0.6-0.1-1.2-0.1-1.7-0.2c-0.3-5.8-0.5-11.7-0.8-17.5C321.7,242,322.4,241.8,323,241.6z"/>
		<path class="st17" d="M160.2,332.5c-7.8,10.2-8.8,21.5-3.5,33.8C146.8,351.9,148.3,337.3,160.2,332.5z"/>
		<path class="st19" d="M275.2,284.1c0.4-9.9,0.8-19.4,1.2-30C282.2,265.7,281,280.9,275.2,284.1z"/>
		<path class="st17" d="M175.5,493.4c-3.4-9.8-6.8-19.5-10.2-29.3c0.7-0.4,1.3-0.8,2-1.1c5.8,8.3,8.5,18.5,10.2,29.3
			C176.9,492.6,176.2,493,175.5,493.4z"/>
		<path class="st19" d="M1461.9,83.1c1.9,5.9,3.8,11.7,5.2,16.2c-3.8-0.7-7.5-1.3-11.7-2c1.1-3.4,2.8-8.8,4.5-14.1
			C1460.6,83.1,1461.2,83.1,1461.9,83.1z"/>
		<path class="st18" d="M547.1,623.2c-1.5-0.6-3.3-2.1-4.4-1.6c-4.7,2.1-9.2,4.9-14.4,7.7c0-4,0-6.6,0-8.9
			c7.2-1.3,14.2-2.6,21.1-3.9l-0.1-0.1c0,2.3-0.1,4.5-0.1,6.8C548.5,623.2,547.8,623.2,547.1,623.2z"/>
		<path class="st20" d="M1388.1,105c-2.6-4.2-5.3-8.3-7.8-12.6c-0.2-0.3,0.8-1.6,1.3-2.5c1.8-2.1,3.7-4.2,5.8-6.6
			c1,1.8,1.7,3.6,2.8,5.1c1.1,1.6,2.6,2.8,3.2,3.4C1391.6,96.2,1389.9,100.6,1388.1,105z"/>
		<path class="st19" d="M198.3,324.5c8-4.2,14.7-7.7,21.9-11.4C217.1,321.8,207.1,327.5,198.3,324.5z"/>
		<path class="st17" d="M182,378c-5.5,8.8-14,10.1-19.9,2.9C168.8,379.9,175.4,378.9,182,378z"/>
		<path class="st19" d="M369,421.1c0,0,0.1,0.1,0.1,0.1c0.6-1.3,1.2-2.5,1.5-3.3c8.2,2.5,16.5,5,26.5,8.1c-5.8,0-10.4,0.6-14.8-0.2
			C377.8,425,373.4,422.7,369,421.1z"/>
		<path class="st17" d="M264.9,284.2c0.8,3.7,1.5,6.4,2.1,9.1c-5.2,5.8-8.5,0.4-12.9-4.1C257.9,287.4,261.2,285.9,264.9,284.2z"/>
		<path class="st19" d="M547.1,623.2c0.7,0,1.4,0,2.1,0c-2,11.8-10.2,19.8-21.4,19.8C535.4,638.1,544.7,635.6,547.1,623.2z"/>
		<path class="st19" d="M1536.7,100.9c-3.9,1.5-7.5,1.3-7.9-4.6c-0.2-2.6,2-6.2,4-7.8c0.9-0.7,3.8,2.4,5.8,3.8
			c-0.3,0.8-0.6,1.6-0.9,2.4c-2.1,0.2-4.3,0.4-6.4,0.6c-0.2,0.5-0.4,1.1-0.6,1.6C1532.5,98.1,1534.3,99.3,1536.7,100.9z"/>
		<path class="st17" d="M274.4,398.7c7.3-2.2,13.1-4,19.5-6C291.1,399.6,284.7,401.6,274.4,398.7z"/>
		<path class="st21" d="M249.9,414.4c-5,2.8-9.9,5.6-14.9,8.4C236.9,415.2,245.4,410.4,249.9,414.4z"/>
		<path class="st17" d="M265.4,265.6c-5.1,2-10.2,4-15.2,6c3.3-8.7,9-8.5,14.6-8.4C265,264,265.2,264.8,265.4,265.6z"/>
		<path class="st19" d="M1469,88.1c1.1,2.7,2.2,5.4,3.6,8.7c1.3-3.2,2.4-5.9,3.5-8.6c0.5,0.3,1,0.6,1.6,0.9
			c-1.4,4.2-2.9,8.4-5.1,14.8c-2.1-6.5-3.5-10.8-4.9-15C1468.1,88.7,1468.5,88.4,1469,88.1z"/>
		<path class="st17" d="M244,403.6c-5.3,3.4-10.4,6.6-16.3,10.4C231.9,404.2,238.5,400.2,244,403.6z"/>
		<path class="st19" d="M248.8,471.5c0.7,0,1.4,0,2.1,0c0.8,8.4,1.5,16.9,2.3,25.3c-0.6,0.1-1.2,0.2-1.8,0.4
			C250.5,488.7,249.7,480.1,248.8,471.5z"/>
		<path class="st22" d="M1592.4,98.1c0-3.8,0-7.6,0-11.2c3.2-0.4,5.6-0.7,8.3-1.1c0,2,0,4.4,0,7.1c-1.3-0.7-2.3-1.2-2.3-1.2
			c-2.2,2.5-4,4.5-5.9,6.6C1592.5,98.2,1592.4,98.1,1592.4,98.1z"/>
		<path class="st19" d="M187.9,306.5c2.1,6.1,4.1,12.1,6.2,18.2c-0.8,0.4-1.5,0.9-2.3,1.3c-2.3-6.1-4.5-12.1-6.8-18.1
			C185.9,307.4,186.9,306.9,187.9,306.5z"/>
		<path class="st19" d="M313.6,260.9c-4.7,1.3-9.5,2.6-14.2,3.9c-0.2-1-0.4-1.9-0.6-2.9c4.7-1.6,9.4-3.2,14.1-4.8
			C313.1,258.4,313.3,259.7,313.6,260.9z"/>
		<path class="st17" d="M254,424.2c3.9,5.1,7.7,10.3,11.6,15.4c-0.6,0.7-1.2,1.5-1.9,2.2c-3.8-5.1-7.7-10.2-11.5-15.4
			C252.8,425.7,253.4,424.9,254,424.2z"/>
		<path class="st22" d="M1585.4,84.8c0,5,0,10,0,16.9c-1.9-3.1-4.7-5.7-4.7-8.2c0-3.5,2.2-6.9,3.5-10.3
			C1584.6,83.8,1585,84.3,1585.4,84.8z"/>
		<path class="st1" d="M1480.4,547.7c-1.3-1.2-2.6-2.3-3.9-3.5c0.1-0.2,0.2-0.4,0.3-0.7c1.6,0.9,3.2,1.9,4.8,2.8
			C1481.2,546.8,1480.8,547.2,1480.4,547.7z"/>
		<path class="st1" d="M1472.1,539.9c-0.6,0.1-1.1,0.1-1.7,0.2C1471,540.1,1471.5,540,1472.1,539.9L1472.1,539.9z"/>
		<path class="st22" d="M1592.5,98.2c-0.4,0.7-0.7,1.5-1.1,2.2c-0.3-0.3-0.5-0.7-0.8-1c0.6-0.5,1.2-0.9,1.7-1.4
			C1592.4,98.1,1592.5,98.2,1592.5,98.2z"/>
		<path class="st18" d="M549.4,616.5c0.1-0.1,0.3-0.3,0.4-0.4c0.1,0,0.2,0.1,0.3,0.1c-0.3,0.1-0.5,0.1-0.8,0.2
			C549.4,616.4,549.4,616.5,549.4,616.5z"/>
		<path class="st1" d="M1472.1,539.9l0.2-0.2C1472.3,539.7,1472.1,539.9,1472.1,539.9C1472.1,539.9,1472.1,539.9,1472.1,539.9z"/>
		<path class="st23" d="M1676.3,442.5c2,2.8,2.8,4,3.9,5.4c0.9-0.7,2.2-1.2,2.6-2.3c4.7-12.1,14-15.2,23.1-19.1
			c10-4.4,20-9.1,29.7-14.6c5-2.8,8.3-2.3,11.3,3.4c5.1,9.6,10.4,19.1,15.6,28.6c0.7-0.5,1.3-1,2-1.5c-6.6-13.5-13.2-27-19.9-40.8
			c0.4-0.3,1.4-1.1,2.5-1.9c-3.7-5-6.6-4.6-30.4,4.9c3.9,0,6.6,0,9.4,0c2.6,0,5.2,0,7.7,0c-11.7,10.8-25.5,14.2-39.5,18.3
			c11.2-17.4,13.7-38.5,17.5-61.1c2.7,12.1,4.9,21.9,7.1,31.7c0.4,0,0.8-0.1,1.1-0.1c-0.9-12.8-2-25.5-2.5-38.3
			c-0.3-6.3,0-12.8,0.9-19c1-7.1,5.3-9.1,9-3.7c5.9,8.6,11,18,15.7,27.7c6.8,14.2,12.8,28.9,19.1,43.4c0.6-0.4,1.3-0.7,1.9-1.1
			c-0.8-2.7-1.4-5.4-2.4-7.9c-4.9-12.5-9.9-24.8-14.6-37.4c-1.6-4.2-3.2-8.8-3.3-13.3c-0.1-3.1,2.5-6.2,3.9-9.4
			c1.5,1.9,3.1,3.8,4.5,5.8c0.9,1.2,1.4,2.9,2.2,4.1c7.6,11.4,34.9,16.8,44.3,4c2.5-3.4,7.3-4.5,11.1-6.3c2.4-1.1,4.9-1.5,7.4-2.2
			c0-0.8,0.1-1.6,0.1-2.3c-3.2-1-6.3-2-10.1-3.2c3.2-11.5,7.1-22.1,13.9-30.8c1.2-1.5,3.4-1.7,5.2-2.5c0.5,2.3,1.3,4.5,1.6,6.8
			c1.8,16-1.8,30.1-10.5,42.5c0.9,0.1,1.8,0.1,2.7,0.2c0.5,4.5,1.8,9.2,1.2,13.4c-4.3,30-8.2,60.2-14.2,89.7
			c-2,9.8-8.5,20.4-15.4,26c-15.9,12.7-23.7,30.5-27.9,52.2c-3.4,17.2-7.7,34.1-11.6,51.2c-0.5,2.1-1.1,4.1-1.6,6.2
			c-0.7,0-1.5-0.1-2.2-0.1c-0.4-2.9-1.4-6-1.1-8.8c2-18.1,4.2-36.2,6.3-54.2c0.3-3,0-6.1,0-9.2c-0.9-0.3-1.8-0.6-2.6-1
			c-1.6,4.2-4.1,8.2-4.6,12.5c-2.1,16.1-3.5,32.4-5.1,48.6c-1.2,11.2-2.8,13-11.8,13.7c-4.2,0.3-8.4,0.5-12.7,0.7
			c-4.4,0.1-5.9-2.6-4.9-7.9c0.7-3.7,1.1-7.5,0.3-11.7c-1,4.4-2.3,8.8-2.9,13.3c-0.6,4.9-2.9,6.6-6.5,6.3c-12.9-1-25.8-1.9-38.6-3.1
			c-4-0.4-7-2.7-6-8.6c2-11.4,4.1-22.7,6.5-33.9c0.5-2.3,2.4-4.1,3.8-6.2c-4.8-7.4-7.9-7.4-10.5,1.5c-3.2,11.2-5.3,22.8-7.8,34.3
			c-0.6,2.9-1.2,5.8-2.1,10.1c-15.6-4.7-30.7-9.1-45.7-14.2c-1.5-0.5-3.3-5.2-3-7.6c2.5-20.5,4.9-41.1,8.7-61.3
			c1.6-8.5,1.4-15.5-1.2-23.2c-4.6-14.1-8.5-28.5-13.1-42.6c-7.5-23.1-15.9-45.8-22.8-69.1c-4.6-15.5-8.1-31.7-10.6-47.9
			c-2.1-13.5,1.9-25.9,10.4-35.2c12.4-13.6,24.9-26.8,37.4-40.3c6.8-7.4,14-9.5,23.4-7.8c8.3,1.6,17.1-0.5,25.6-2.1
			c11.8-2.2,12.4-2.2,18.6,10c3,5.9,7.1,10.5,14.5,10.9c-4.5-4.4-8.6-7.5-11.7-11.6c-4.8-6.3-4-9.7,2.8-12c9-3,18.1-5.6,27.2-8.1
			c5-1.4,8.3,0.8,8.9,8.6c1.2-2.2,2.1-3.7,2.9-5.2c10,15.2,7.3,37.2-7.2,49c-15.9,13-33.8,18-52.9,14c-5.2-1.1-9.4-4-11.2-11.3
			c-0.9-3.4-4.4-5.7-6.7-8.6c-0.8,0.7-1.6,1.4-2.4,2.1c2,6.4,3.9,12.9,5.9,19.3c-6.7,3.6-8.2-4.9-12.3-8.9
			c-2.6,9.4,1.9,12.7,6.7,15.9c2.2,1.5,6.1,4.1,5.8,5.3c-0.6,3.4-2.4,7.7-4.7,9.1c-5.7,3.3-12,5.3-18.1,7.5
			c-2.4,0.9-5.1,0.7-8.6,1.2c7.1,10.6,13.8,2.2,20.2,1.6c0.2,0.8,0.3,1.6,0.5,2.4c-6.3,2.7-12.5,6-18.9,7.9
			c-6.8,2.1-13.8,2.9-21.8,4.5c10,9.2,19.7,0.2,30.3,0.5c-6.3,14.2-17.1,17.8-26.5,23.9c0.2,0.7,0.4,1.3,0.6,2
			c5.1-1.8,10.1-3.5,15.8-5.5c-0.3,2-0.5,3.9-0.8,6.4c6.6,0.2,9.6-6,13.1-11.1c8.5-12.4,16.9-25.1,25.4-37.5c2-2.9,4.4-5.7,7.1-7.6
			c3.3-2.3,6.7-9.5,10.7-0.9c0.1,0.3,0.8,0.5,1,0.4c10.7-5,6.6,5.8,6.6,10.4c0,5.6-1.6,11.2-2.6,16.8c0.5,0.3,1.1,0.5,1.6,0.8
			c1.6-4.6,3.5-9.1,4.8-13.8c1.3-4.5,3.1-5.6,7.1-4.5c14.2,4.2,16.7,7.3,17.7,25.4c1.1,20.9-1.1,41.4-8.7,59.9
			c-4.7,11.3-10.9,23.1-18.9,30.6c-10.3,9.7-15.5,26.1-29.1,31c0.4,0.8,0.9,1.6,1.3,2.4c4.6-3,9.8-5.2,13.8-9.1
			C1669,454.1,1672.1,448.4,1676.3,442.5z M1706.2,480.2c-11.1-6.5-18.8-6.1-35-0.6c-9,3-18,6-27.1,8.7c-6.8,2-12.6-0.3-17.4-7.1
			c-3.3-4.7-7.1-8.8-10.7-13.1c-0.5,0.4-1.1,0.8-1.6,1.3c1.7,6.7,3.5,13.4,5.3,20.4c-2.7,0.3-5,0.5-8.9,0.8
			c8.1,9.8,16.7,12.2,26.2,12.7c-1.4-2-2.7-4-4.1-6C1657.5,491.6,1681.8,485.9,1706.2,480.2z M1646.1,508c-0.1,1.5-0.2,3-0.4,4.5
			c3.7,1.3,7.3,3.5,11,3.8c11.8,0.8,23.6,2.1,35.4,1.1c15.1-1.3,28.7,1.1,40.6,13.7c2.4,2.5,5.6,3.9,8.4,5.8
			c-5.3-7.8-11.1-14.3-17.5-19.8c-3.5-2.9-7.9-5.5-11.9-5.7c-11.8-0.5-23.6,0.9-35.4,0.4c-7.9-0.3-15.7-2.6-23.5-3.8
			C1650.6,507.7,1648.3,508,1646.1,508z M1724.8,500.5c4.9,9.1,17.3,16.4,24.7,14.2c8-2.5,20.5-21,22.2-34.5
			c-7.5,7.3-13.5,16.4-21.1,19.6C1742.8,503,1733.4,500.5,1724.8,500.5z M1812.8,371c-0.5-0.3-1.1-0.5-1.6-0.8
			c-4.5,13.7-9.1,27.3-13.2,41.1c-0.7,2.2,1.1,5.6,1.7,8.4c1.9-1.8,5-3.2,5.4-5.5C1808,400,1810.3,385.5,1812.8,371z M1635.4,270.4
			c6.3-9.6,6-19-1.2-28.8C1634.6,252.1,1635,260.5,1635.4,270.4z M1616.5,241.1c-4.2,7.8-1.6,21.4,5.8,29
			C1620.2,259.8,1618.4,250.8,1616.5,241.1z M1693.1,253.7c13.3,4.6,25.5-2,24.2-14.4C1712.3,252.9,1702.1,250,1693.1,253.7z
			 M1565.8,310.4c2,10.3,5.5,13.3,10.4,9.7C1573,317.1,1569.9,314.2,1565.8,310.4z M1764.7,445.5c-0.1-0.2-0.3-0.4-0.4-0.6
			c-0.1,0.2-0.3,0.4-0.4,0.6c0.2,0.2,0.4,0.4,0.6,0.6C1764.5,445.9,1764.6,445.7,1764.7,445.5z"/>
		<path class="st24" d="M1584.4,607c3.1-5.7,2.8-9.7-3.3-11.5c-1.2-0.4-3-2.9-2.9-4.3c0.3-6.8,1.1-13.6,1.8-21.3
			c30,19.4,62.3,23.4,94.6,26.8c32.3,3.5,64.8,7.3,97.8-6.1c-0.7,5.5-1.5,11-2,16.5c-2.3,21.5-4.7,42.9-6.6,64.4
			c-1.1,13-6.4,20.3-16.4,24c-15.5,5.7-31.2,5.8-47,4.9c-40.2-2.2-79.4-12.5-117.8-27.1c-10.4-4-14.4-17.3-8.6-28.8
			c0.8-1.7,3.2-2.5,5-3.1c8.8-3.2,17.7-6.3,26.6-9.4c-0.2-1.2-0.4-2.4-0.6-3.6c-3.1,0.8-6.6,0.9-9.4,2.6c-7.7,4.6-15.5,6.4-24,5.5
			c-15.4-1.7-18.5-7-15.9-27.2c8,2.2,16.2,6.9,24.1,6.1c7.6-0.8,14.9-7.1,22.3-11c-0.4-1.1-0.8-2.2-1.1-3.3c-4.9,2.7-9.7,5.3-14.6,8
			C1585.6,608.3,1585,607.7,1584.4,607z"/>
		<path class="st23" d="M1774.8,267.2c-7.1,17.5-14,35.2-21.3,52.5c-2.7,6.5-8,8.6-13.6,8.4c-2.4-0.1-4.9-0.8-7.2-1.7
			c-14.7-5.8-18.6-14.4-13.5-32.4c2.6-9,7.1-17,10.4-25.7c1.5-4.1,2.7-8.7,3.1-13.1c1.4-17.6,3.1-35.3,3.5-52.9
			c0.3-14.3,8.3-18.8,16.7-21.7c10.5-3.6,20.8-0.2,29.7,7.7c5.2,4.6,7.8,11.1,6.2,20.3c-3.9-3.1-7.5-6-11.1-8.8
			c-0.3,0.5-0.6,0.9-0.9,1.4c1.8,2.5,3.7,5,5.5,7.6c5.8,8.4,3.9,17.1-4.5,20.6c-4.1,1.7-8.5,2.6-12.7,3.8c0,0.8,0.1,1.5,0.1,2.3
			c5.5,0.5,11.1,1.1,17,1.7c-4.1,10.6-8,20.9-11.9,31.1c-0.2,0.3-0.4,0.6-0.7,0.9c0.2-0.4,0.4-0.7,0.5-1.1c1.1-0.9,2.1-1.9,3.2-2.8
			C1773.9,265.9,1774.4,266.5,1774.8,267.2z M1777.2,221.4c-4.2-1.7-8.5-3.4-13.8-5.5C1766,225.3,1769.1,226.6,1777.2,221.4z
			 M1726.7,288.9c4.7,3.4,9,6.6,14.5,10.6C1738,290.5,1734.1,288,1726.7,288.9z"/>
		<path class="st25" d="M1655.2,224.7c-0.8,0.7-1.5,1.9-2.3,1.9c-13.7,1-27.4,1.9-41.6,2.8c3.2-16,6.1-30.4,8.9-44.7
			c-0.6-0.2-1.2-0.4-1.8-0.6c-3.5,12.5-6.6,25.1-10.5,37.3c-4.1,12.6-9.4,24.5-20.3,31.9c9-33.5,17.7-67.1,27-100.4
			c1.7-6.1,5.1-11.7,8.4-16.9c10.5-17,25.8-21.9,41.7-13.7c7,3.6,11.3,10,11.9,19.4c0.5,8.7-2.7,15.4-8.3,20.6
			c-1.3,1.2-2.3,3-3.4,4.6c1.7-0.3,3.4-0.5,5.1-0.8c0.6-0.1,1.2-0.7,2.2-1.3c0.1,1.6,0.4,2.9,0.2,4c-3.3,16.1-6.6,32.2-10,48.3
			c-1,4.6-2.1,9.3-7.4,7.7c-0.5-3.2-0.1-7.6-1.7-9.4c-5-6-11.2-8.3-17-5.7c5.4,4.7,11.1,9.7,16.9,14.6
			C1653.8,224.8,1654.5,224.6,1655.2,224.7z M1669.1,156.7c0.1-0.8,0.1-1.6,0.2-2.4c-8.9-1.6-17.8-3.3-27.1-5
			c1.4,10.2,5.4,14.8,14.1,16.4c-2.2-3.5-3.8-6-5.7-9C1657,156.7,1663.1,156.7,1669.1,156.7z M1654.2,128.3c-0.3,0.7-0.6,1.5-1,2.2
			c4.8,4.2,9.6,8.5,14.4,12.7c0.5-1,1.1-2.1,1.6-3.1C1664.3,136.2,1659.3,132.3,1654.2,128.3z"/>
		<path class="st25" d="M1820.3,292.2c-4.2,7.8-8.1,15.8-12.6,23.3c-4.2,7.1-9.2,13.6-13.4,20.7c-7.6,12.8-24,11.3-30.3-2.8
			c-1-2.2-3.2-3.5-5.8-6.2c2.8-8.4,6-17.8,9.2-27.1c6.6-19,13.3-38,20-57c5-14.2,8.7-16.8,20.1-11.3c5.8,2.8,11.4,7.3,16,12.5
			c3.5,4,4.7,11.7,0.2,15.5c-3.4,2.9-8.9,2.2-13.5,2.8c-0.6,0.1-1.8-1.1-2-1.9c-1.8-9.2-5.2-4.3-9,0.2c5.2,2.9,10.5,5.8,15.2,8.4
			c0.6,4.6,1.9,9.1,1.4,13.3c-0.5,4.4-2.6,8.5-3.1,13.8c2-2.2,4.1-4.3,6.1-6.5C1819.3,290.7,1819.8,291.4,1820.3,292.2z
			 M1778.8,319.8c5.3,3,10.6,5.9,15.9,8.9C1791.6,319.4,1785.1,319.6,1778.8,319.8z M1773.5,332.7c2.2,8.1,6.7,9.7,12.6,6.8
			C1781.9,337.3,1777.7,335,1773.5,332.7z"/>
		<path class="st25" d="M1691.3,220.1c0-8.2,0-15.3,0-22.4c-0.4-0.1-0.9-0.3-1.3-0.4c-0.8,5-1.8,10-2.4,15.1
			c-0.6,5.6-1.3,10.6-7.2,10.4c-7.6-0.3-11.5-3.5-11.2-11.6c0.3-7.6,1.8-15.3,3.7-22.6c2.6-9.9,4.7-20.9,9.7-28.8
			c4.5-7.1,12.1-12.9,19.2-15.3c10.2-3.4,20,2.2,28.4,10.1c1.4,1.3,2.4,4.1,2.6,6.4c1.4,11.3-1.1,21.9-6.8,30.3
			c-5.5,8.1-13.6,6.7-21.2,4.4c-2.5-0.7-4.9-1.9-7.5-1.9c10,7.3,21,8.3,33.4,7.3c-0.6,7.1-1.1,13.8-1.8,22.7
			C1716.6,207.3,1704.1,218.3,1691.3,220.1z"/>
		<path class="st25" d="M1508.1,596.1c1.8-1.4,2.9-2.7,4.3-3.2c12.8-4.5,25.7-8.8,38.5-13.2c4.9-1.7,7.8,0.8,8.8,6.7
			c0.3,1.6-0.2,4.2-1.1,5.1c-9.4,9.9-18.5,20.7-31.6,22.9c-4.4,0.8-7.9,1.4-10.3-5.2C1514.9,604.5,1511.3,600.8,1508.1,596.1z"/>
		<path class="st26" d="M1575,598.5c-0.6,1-2.3,3.7-4,6.5c-1.9-2.5-4.3-4.6-5.4-7.5c-1.5-4.2-1.8-9.1-2.9-13.6
			c-1.7-6.9-5.6-9.9-11.3-8.3c-6.1,1.7-12,4.1-18.2,5.4c-2.7,0.6-5.7-1-8.5-1.5c2-2.9,3.5-7.7,5.9-8.4c8.1-2.6,16.5-5.4,24.7-5.2
			C1567.2,565.9,1575.1,579.2,1575,598.5z"/>
		<path class="st26" d="M1716.9,286.7c-1,3.6-1.8,7.3-3.2,10.7c-6.8,16.7-17.9,19.2-29.3,7.2c10.5-6.2,21.1-12.5,31.8-18.8
			C1716.4,286.1,1716.6,286.4,1716.9,286.7z"/>
		<path class="st22" d="M1499.1,606.8c-7.6-3.7-9.4-9.4-5.3-16.7c5.6-10.2,14.6-13.1,23.7-14.9c1.1-0.2,3.3,1.3,3.6,2.6
			c0.4,1.7,0,4.7-1,5.8c-1.7,2-4.1,4.1-6.3,4.2C1503.8,588.3,1499.3,594.8,1499.1,606.8z"/>
		<path class="st22" d="M1477.8,590.1c2.9-4.7,4.9-9.9,9.3-5c1.5,1.7,2.6,7.3,1.9,8.1C1484.8,597.9,1481.6,593.9,1477.8,590.1z"/>
		<path class="st22" d="M1589.8,550.4c-0.4,2.9-0.4,6-1.3,8.6c-0.6,1.7-2.4,2.8-3.6,4.2c-0.9-2.2-2.9-5.1-2.3-6.5
			c1.1-3,3.5-5.4,5.3-8C1588.5,549.3,1589.1,549.9,1589.8,550.4z"/>
		<path class="st22" d="M1760,589.5c7.9-3,11.6-8.3,10.6-17.6c0.6,0,1.2,0,1.9,0c0.3,3.1,1.3,6.4,0.7,9.2
			C1772.2,585.8,1767,589.1,1760,589.5z"/>
		<path class="st24" d="M1581.5,611.1c-1,0.1-1.9,0.2-2.9,0.3c0-0.3-0.1-0.6-0.1-1c1-0.2,1.9-0.4,2.9-0.5
			C1581.5,610.3,1581.5,610.7,1581.5,611.1z"/>
		<path class="st23" d="M1773.4,265.3c0.3-0.9,0.7-1.9,1-2.8c0.4,0.4,0.9,0.8,1.3,1.2c-0.3,1.1-0.6,2.3-0.9,3.4
			C1774.4,266.5,1773.9,265.9,1773.4,265.3z"/>
		<path class="st24" d="M1586.3,609c-1.1,0.1-2.3,0.3-3.4,0.4c0.5-0.8,1-1.6,1.6-2.3C1585,607.7,1585.6,608.3,1586.3,609z"/>
		<path class="st25" d="M1821.3,288.5c-0.3,1.2-0.7,2.5-1,3.7c-0.5-0.8-1-1.5-1.5-2.3c0.5-0.8,1-1.7,1.5-2.5
			C1820.6,287.7,1821,288.1,1821.3,288.5z"/>
		<path class="st25" d="M1820.3,287.4c0.5-0.5,1.1-1,1.6-1.5c-0.2,0.9-0.4,1.7-0.7,2.6C1821,288.1,1820.6,287.7,1820.3,287.4z"/>
		<path class="st26" d="M1716.2,285.8c0.5,0,1,0,1.4-0.1c-0.2,0.3-0.5,0.7-0.7,1C1716.6,286.4,1716.4,286.1,1716.2,285.8z"/>
		<path class="st24" d="M401.6,682.3c-1.7,6.2,0.7,9.3,5.3,9.5c3.9,0.2,7.9-1.5,11.8-1.2c3,0.2,7.5,1.3,8.5,3.8
			c5,12.1-1.1,25.8-12.1,27.1c-6.8,0.8-13.8,0-20.6,0.2c-2.7,0.1-5.4,0.8-7.9,2.8c1.7,0.3,3.5,0.5,5.2,0.8c7.4,1.3,11.3,6,12.4,14.8
			c1,8-1.4,14.5-8.7,17.3c-13.8,5.3-27.7,10.3-41.9,13.4c-33.5,7.5-67.4,12.3-101.5,10.7c-9-0.4-18.1-2.7-27-4.6
			c-8.6-1.8-14.1-8.6-15.3-19.3c-2.5-21.4-4.5-42.8-6.6-64.3c-0.7-7.4-1.3-14.8-2-22.9c32.7,14.4,65.5,10.9,98.2,8.3
			c32.5-2.6,65.2-5.3,96.5-25c0.3,8.5,0.6,16.1,0.8,23.6c0.1,3.1,0.1,6,3.6,3.4C400.7,681.1,401.2,681.7,401.6,682.3z"/>
		<path class="st26" d="M441.8,636.5c5.3,4.4,10.5,8.3,15.1,13c1.1,1.1,0.1,5.3,0.1,8c-2-0.3-4.7,0.2-5.8-1.2
			c-7.5-9.5-15.9-5.3-21.1,3.4c-4.2,7.1-7.7,14.9-12.1,21.8c-1.6,2.5-4.9,3.2-7.4,4.7c0.1-3.2-0.7-7.2,0.5-9.5
			c5.7-10.8,11.7-21.5,18.3-31.4C432,641.5,436.8,640,441.8,636.5z"/>
		<path class="st22" d="M454.4,686.7c-9.4,18-15.5,36.8-28.6,49.5c-5.4,5.3-7.6,5.2-9.6,1.7c5.7-5.5,11.7-10.2,16.5-16.4
			c2.5-3.2,3.5-8.9,4.1-13.7C438.4,693.3,440.4,690.3,454.4,686.7z"/>
		<path class="st22" d="M384.3,630.1c2.9,2.8,6.4,5,8.4,8.5c0.9,1.6-0.3,6.5-1.7,8.7c-3.3,4.8-6.7,3.6-7.9-2.6
			c-0.7-3.9-0.8-8.1-1.1-12.1C382.7,631.8,383.5,630.9,384.3,630.1z"/>
		<path class="st24" d="M401.6,679c0.7-0.2,1.4-0.4,2.1-0.5c-0.4,0.6-0.7,1.2-1.1,1.8C402.3,679.8,401.9,679.4,401.6,679z"/>
		<path class="st24" d="M400.3,680.5c0.4-0.5,0.8-1,1.2-1.5c0.4,0.4,0.7,0.8,1.1,1.2c-0.4,0.7-0.7,1.4-1.1,2
			C401.2,681.7,400.7,681.1,400.3,680.5z"/>
		<path class="st0" d="M142.4,392.2c-0.4-1.3-0.8-2.6-1.3-3.8c0.3-0.2,0.7-0.5,1-0.7c0.7,1,1.3,2.1,2,3.1
			C143.6,391.3,143,391.7,142.4,392.2z"/>
		<path class="st0" d="M292.1,354c-0.1-0.7-0.2-1.5-0.3-2.2c0.5,0.1,1.1,0.3,1.6,0.4C293,352.8,292.5,353.4,292.1,354z"/>
		<path class="st0" d="M144.2,390.8c0.1,0.7,0.3,1.4,0.4,2.2c-0.7-0.2-1.4-0.5-2.2-0.7C143,391.7,143.6,391.3,144.2,390.8z"/>
		<path class="st22" d="M1143,701.8c-0.1,9.6-3.2,15.4-7.8,14.7c-6.2-0.9-6.8-7.1-6.6-13c0.1-6.3,1-13.1,7.4-13.3
			C1142.2,690,1142.5,696.9,1143,701.8z"/>
		<path class="st26" d="M1235,451.7c-0.7,6-1.1,12.6-2.3,19c-0.4,2.2-2.7,3.8-4.1,5.7c-1.4-1.8-4.1-3.6-4.1-5.5
			c-0.3-12.9-0.3-25.8,0.2-38.6c0.1-2,2.7-3.8,4.1-5.7c1.5,2.1,3.9,3.9,4.4,6.3C1234.2,438.8,1234.4,445,1235,451.7z"/>
		<path class="st26" d="M1083.5,703.7c-0.5,2.4-0.5,6.5-2.1,8.4c-1.8,2.3-5.6,4.5-7.7,3.6c-5.4-2.4-5.5-9.3-4.2-14.7
			c0.9-4.1,3.8-7.8,6.6-10.7c0.5-0.6,4.7,3.5,6.5,6.1C1083.6,697.8,1083.2,700.6,1083.5,703.7z"/>
		<path class="st22" d="M524.4,584.6c0.8-4.1,0.9-7.3,2-9.8c2.1-4.8,5.3-6.6,9.4-3.3c3.8,3.2,4.6,15.9,1.3,21.4
			c-2.5,4.1-6,5.8-9,1.9C526.1,592,525.5,587.6,524.4,584.6z"/>
		<path class="st26" d="M790.6,462.6c-0.3,9.8-3,14.3-7.7,13.9c-4.7-0.3-7.5-5.9-7.2-14.4c0.2-8.2,3.3-13,8.2-12.2
			C790.5,451.1,790.5,457.5,790.6,462.6z"/>
		<path class="st26" d="M1181.1,583c-0.4,6.1-0.5,12.7-7.2,13.5c-4.9,0.5-7.8-4.9-7.8-13.6c0-8.3,2.8-13,7.6-13
			C1178.6,570,1181.2,574.5,1181.1,583z"/>
		<path class="st26" d="M1396.1,583.3c-0.3,6.3-0.8,12.6-7.4,13.2c-4.9,0.4-7.6-5-7.6-13.9c0.1-8.3,2.9-12.9,7.8-12.7
			C1393.8,570.1,1396.2,574.7,1396.1,583.3z"/>
		<path class="st22" d="M721.8,706c0.4,5.8-0.8,11-6.1,11.9c-1.6,0.3-3.7-3.3-5.5-5.1c3.2-3.2,6.4-6.4,9.6-9.6
			C720.5,704.2,721.1,705.1,721.8,706z"/>
		<path class="st22" d="M1109.1,463.3c2.2,8.8,0.9,13.9-4.5,14.6c-1.6,0.2-3.6-3.5-5.4-5.4C1102.6,469.4,1105.8,466.4,1109.1,463.3z
			"/>
		<path class="st22" d="M590.8,586c0.4,5.8-0.7,10.9-6.1,11.9c-1.6,0.3-3.7-3.2-5.6-5c3.2-3.2,6.4-6.4,9.5-9.6
			C589.4,584.1,590.1,585.1,590.8,586z"/>
		<path class="st22" d="M1025.4,703.7c0.8,7.7,0,12.9-5.3,14.2c-1.6,0.4-5.3-2.9-5.4-4.6C1014.3,703.6,1021.4,707.9,1025.4,703.7z"
			/>
		<path class="st22" d="M772.5,583.4c2.3,8.7,1,13.9-4.4,14.6c-1.6,0.2-3.4-3.5-5.2-5.4C766.1,589.5,769.3,586.4,772.5,583.4z"/>
		<path class="st22" d="M1186.3,693.6c2.4-2.3,4.8-6.5,7.3-6.5c2.2,0,4.4,4.6,6.5,7.1c-0.5,0.7-0.9,1.3-1.4,2c-3.7,0-7.3,0-11,0
			C1187.2,695.4,1186.7,694.5,1186.3,693.6z"/>
		<path class="st26" d="M1037.4,456.3c-3.6,0-7.1,0-10.6,0c-0.5-0.6-1-1.2-1.4-1.8c2.3-2.6,4.4-7.1,7-7.5
			C1036.6,446.4,1038,450.9,1037.4,456.3z"/>
		<path class="st27" d="M1121.3,945.5c0,24.4,0,48.2,0,72.5c-125.8,0-251.3,0-377.4,0c0-23.9,0-47.9,0-72.5
			C869.4,945.5,995.1,945.5,1121.3,945.5z M879.7,981.6c1.8,5.1,3.6,10.1,6,16.7c1.8-4,3-6.6,4.6-10c0.7,1.9,1.1,3.1,1.5,4.3
			c0.5,1.4,1.1,2.8,1.6,4.1c0.6,0.1,1.3,0.3,1.9,0.4c1.5-5.4,2.9-10.8,4.4-16.2c-0.7-0.4-1.3-0.7-2-1.1c-1.1,2.5-2.1,5.1-3.4,8.1
			c-1.3-3-2.4-5.5-4-9.2c-1.9,4.4-3.1,7.3-4.3,10.2C883.6,986.2,886.3,977.9,879.7,981.6c-1-0.3-2.2-1.2-3.1-0.9
			c-2.9,0.9-6.9,1.4-8.2,3.8c-1.2,2.3-0.6,8.4,1,10.3c1.8,2,5.8,1.1,8.8,1.5c0-0.7,0-1.4,0.1-2.1c-2.5-0.7-4.9-1.5-7.4-2.2
			c0.1-0.6,0.2-1.2,0.3-1.7c2.6-0.3,5.1-0.6,8-1C879.4,986.4,879.6,984,879.7,981.6z M963.7,996.5c0.9-0.1,1.8-0.2,2.8-0.4
			c0-3.1,0.5-6.4-0.2-9.3c-0.6-2.5-2.2-6.3-3.8-6.6c-5-0.8-10.2-0.3-14.9-0.3c0,6.3,0,11.3,0,16.3c0.5,0,1,0.1,1.5,0.1
			c0.9-4.4,1.8-8.9,2.7-13.3c0.7,0.2,1.5,0.4,2.2,0.6c0.5,4.3,1.1,8.6,1.6,12.9c0.5,0,1,0,1.5-0.1c0.9-4.5,1.9-9,2.8-13.4
			c0.7,0.2,1.5,0.4,2.2,0.5C962.7,987.9,963.2,992.2,963.7,996.5z M783.5,975.7c-0.8,0.1-1.6,0.3-2.4,0.4c0.5,6.1,0.8,12.3,1.7,18.4
			c0.2,1.1,3,1.6,6,3.1c-1.1-2.6-1.4-3.3-1.6-3.9c-0.8-2.2-2.3-4.5-2.2-6.7c0.1-1.6,2.2-3.1,3.5-4.6c1,1.9,2.5,3.6,2.8,5.6
			c0.9,8.8,0.8,8.8,6.2,7.2c-5.3-4.6-4.3-9.5-1.5-12.8c-1.4-2.3-2.6-4.3-3.8-6.3C788.9,981.7,787.2,981.7,783.5,975.7z M994.7,981.1
			c0,5.4,0,10.3,0,15.2c1.9-1.8,2-3.6,2.5-5.3c0.9-3,1.8-8.4,3-8.5c4.7-0.5,3.8,4.6,3.8,8.3c0,5.3,1.9,6.9,6.6,4.8
			c-5.5-4.8-5.1-9.7-1.9-13.4c-1.4-1.9-2.7-3.8-3.3-4.6C1001.9,978.8,998.2,979.9,994.7,981.1z M1050.4,988.5
			c-2.7-3.7-4.3-7.7-6.3-8.1c-2.1-0.5-6.1,1.7-6.8,4c-0.9,2.9-0.3,8.2,1.4,10.2c1.7,2,5.5,1.3,8.3,1.8c0.1-0.7,0.2-1.4,0.2-2.2
			c-2.2-0.7-4.5-1.3-6.7-2c0.1-0.6,0.2-1.2,0.3-1.7C1043.2,990,1045.8,989.5,1050.4,988.5z M802.9,996.7c5.9,0.8,9.7-1.5,9.6-9.2
			c-0.1-6.7-3.1-8-12.3-6.3c0,7.8,0,15.4,0,23.1c0.4,0,0.8,0,1.2,0.1C801.8,1002.1,802.3,999.8,802.9,996.7z M989.2,997.8
			c0.9-1.1,1.8-2.2,2.8-3.2c-1.5-4.8-2.7-9.9-4.8-14.3c-0.4-0.8-4.3,0.9-6.6,1.5c0.2,0.6,0.3,1.2,0.5,1.9c2.1,0.2,4.1,0.3,5.3,0.4
			c-2.6,3.2-4.9,6.1-7.2,9C982.5,994.7,985.8,996.3,989.2,997.8z M766.9,995.9c0.5,0,1,0.1,1.5,0.1c0.2-2.3,0-4.7,0.7-6.7
			c0.8-2.2,2.3-3.9,3.6-5.8c0.9,1.9,2.1,3.7,2.7,5.8c0.6,2.2,0.6,4.6,0.8,7c3.6-13.7,2.1-16.7-6.7-15.9c-0.5-2.7-0.9-5.3-1.4-8
			c-0.4,0.1-0.8,0.2-1.2,0.3C766.9,980.3,766.9,988.1,766.9,995.9z M945.1,986.4c-2.5-2.2-4.8-5.5-7.5-6.2c-4.4-1.1-7,2.2-7.1,8.1
			c0,5.3,1.9,8.3,6.3,8.5C941.3,996.9,943.7,994,945.1,986.4z M853.5,996c0.6,0,1.2,0,1.8,0c0.2-2.3,0-4.8,0.6-6.8
			c0.7-2.2,2.3-3.9,3.6-5.8c0.9,1.9,2.1,3.7,2.7,5.7c0.6,2.2,0.5,4.7,0.8,7c4-14.6,2.1-17.1-10-14.8
			C853.2,986.2,853.4,991.1,853.5,996z M822.9,982.4c-0.2-1-0.4-1.9-0.6-2.9c-2.5,1.1-5,2.2-7.6,3.3c1.5,3.3,3.1,6.7,4.7,10.2
			c-1,0.3-2.8,0.9-4.6,1.6c0.2,0.8,0.3,1.7,0.5,2.5c2.6-0.9,5.2-1.8,7.7-2.7c-1.3-3.4-2.6-6.9-3.9-10.4
			C820.1,983.5,821.5,982.9,822.9,982.4z M901.6,994.3c0.2,1,0.3,1.9,0.5,2.9c2.6-1.1,5.2-2.1,7.8-3.2c-1.6-3.4-3.1-6.8-4.7-10.2
			c1.1-0.4,2.7-1,4.4-1.5c-0.2-0.9-0.3-1.7-0.5-2.6c-2.5,1-5.1,1.9-7.6,2.9c1.3,3.3,2.5,6.5,3.9,10.2
			C904.6,993.1,903.1,993.7,901.6,994.3z M841,974.6c-0.8-0.4-1.6-0.8-2.4-1.2c-3,8.5-6.1,17.1-9.1,25.6c0.9,0.5,1.8,0.9,2.7,1.4
			C835.1,991.7,838,983.1,841,974.6z M927.5,981.2c0-0.7,0-1.4,0-2.1c-2.9,1.7-6.6,2.6-8.5,5.4c-1.2,1.8-0.9,7.6,0.5,9.3
			c1.9,2.2,5.5,2.1,9.5,3.4c-3.8-4.1-5.9-6.5-8-8.8C923.2,986,925.4,983.6,927.5,981.2z M978.7,974.8c-0.8-0.5-1.6-1-2.5-1.5
			c-2.9,8.6-5.8,17.3-8.7,25.9c0.8,0.4,1.5,0.8,2.3,1.2C972.8,991.8,975.7,983.3,978.7,974.8z M840.4,998.9c0.8,0.5,1.6,1,2.4,1.5
			c2.9-8.6,5.8-17.3,8.7-25.9c-0.8-0.4-1.5-0.8-2.3-1.3C846.4,981.8,843.4,990.4,840.4,998.9z M1026.8,980.8c0.1-0.5,0.1-1,0.2-1.5
			c-2.7,1.4-6.5,2-7.9,4.5c-1.3,2.4-1,7.8,0.4,10.2c1.3,2.1,5.1,1.9,7.8,2.7c-0.1-0.5-0.2-0.9-0.2-1.4c-2.2-2.1-4.4-4.3-6.5-6.4
			C1022.6,986.2,1024.7,983.5,1026.8,980.8z M1031.6,995.8c0.4,0,0.8-0.1,1.2-0.1c0-7.8,0-15.5,0-23.3c-0.4,0-0.8,0.1-1.2,0.1
			C1031.6,980.3,1031.6,988,1031.6,995.8z"/>
		<path class="st28" d="M1123.5,1017.5c0-24.2,0-47.7,0-71.8c35.8,0,71.3,0,107.3,0c0,23.6,0,47.4,0,71.8
			C1195.3,1017.5,1159.7,1017.5,1123.5,1017.5z"/>
		<path class="st22" d="M1419.4,503.8c1.8-4.6,2.9-8.8,4.9-12.3c1-1.7,4-3.5,5.2-2.8c1.5,0.9,2.8,4.2,2.9,6.6
			C1432.4,501.7,1427.8,504.9,1419.4,503.8z"/>
		<path class="st3" d="M1706.2,480.2c-24.3,5.7-48.6,11.3-73.2,17.1c1.4,2.1,2.8,4.1,4.1,6c-9.5-0.6-18.1-3-26.2-12.7
			c3.9-0.4,6.2-0.6,8.9-0.8c-1.8-7.1-3.6-13.8-5.3-20.4c0.5-0.4,1.1-0.8,1.6-1.3c3.6,4.4,7.4,8.5,10.7,13.1
			c4.8,6.8,10.5,9.1,17.4,7.1c9.1-2.7,18.1-5.7,27.1-8.7C1687.3,474.2,1695.1,473.8,1706.2,480.2z"/>
		<path class="st17" d="M1646.1,508c2.2,0,4.5-0.3,6.7,0.1c7.8,1.2,15.6,3.5,23.5,3.8c11.8,0.5,23.6-0.9,35.4-0.4
			c4.1,0.2,8.5,2.8,11.9,5.7c6.4,5.4,12.2,12,17.5,19.8c-2.8-1.9-6-3.3-8.4-5.8c-11.8-12.6-25.5-15.1-40.6-13.7
			c-11.7,1-23.6-0.2-35.4-1.1c-3.7-0.3-7.4-2.5-11-3.8C1645.9,511,1646,509.5,1646.1,508z"/>
		<path class="st2" d="M1724.8,500.5c8.6,0,18,2.5,25.8-0.7c7.6-3.2,13.6-12.3,21.1-19.6c-1.6,13.4-14.1,32-22.2,34.5
			C1742.1,516.9,1729.7,509.6,1724.8,500.5z"/>
		<path class="st3" d="M1812.8,371c-2.5,14.4-4.8,28.9-7.7,43.2c-0.5,2.3-3.5,3.7-5.4,5.5c-0.6-2.8-2.4-6.2-1.7-8.4
			c4.1-13.8,8.8-27.4,13.2-41.1C1811.8,370.5,1812.3,370.8,1812.8,371z"/>
		<path class="st19" d="M1635.4,270.4c-0.4-9.9-0.8-18.3-1.2-28.8C1641.4,251.4,1641.7,260.8,1635.4,270.4z"/>
		<path class="st17" d="M1616.5,241.1c1.9,9.8,3.7,18.7,5.8,29C1614.9,262.4,1612.3,248.8,1616.5,241.1z"/>
		<path class="st18" d="M1693.1,253.7c9-3.6,19.2-0.8,24.2-14.4C1718.6,251.7,1706.4,258.3,1693.1,253.7z"/>
		<path class="st19" d="M1565.8,310.4c4.1,3.8,7.2,6.7,10.4,9.7C1571.3,323.7,1567.8,320.7,1565.8,310.4z"/>
		<path class="st1" d="M1764.7,445.5c-0.1,0.2-0.1,0.4-0.2,0.6c-0.2-0.2-0.4-0.4-0.6-0.6c0.1-0.2,0.3-0.4,0.4-0.6
			C1764.4,445.2,1764.5,445.3,1764.7,445.5z"/>
		<path class="st18" d="M1777.2,221.4c-8.1,5.1-11.2,3.9-13.8-5.5C1768.8,218.1,1773,219.7,1777.2,221.4z"/>
		<path class="st17" d="M1726.7,288.9c7.5-0.9,11.3,1.6,14.5,10.6C1735.7,295.4,1731.4,292.3,1726.7,288.9z"/>
		<path class="st1" d="M1770.2,268.1c-0.2,0.4-0.4,0.7-0.5,1.1c0.2-0.3,0.4-0.6,0.7-0.9C1770.3,268.3,1770.2,268.1,1770.2,268.1z"/>
		<path class="st17" d="M1669.1,156.7c-6,0-12,0-18.5,0c1.9,3,3.5,5.6,5.7,9c-8.7-1.6-12.7-6.2-14.1-16.4c9.3,1.7,18.2,3.3,27.1,5
			C1669.2,155.1,1669.1,155.9,1669.1,156.7z"/>
		<path class="st17" d="M1655.2,224.7c-0.6-0.1-1.4,0-1.9-0.4c-5.7-4.9-11.4-9.9-16.9-14.6c5.8-2.6,11.9-0.2,17,5.7
			c1.6,1.8,1.2,6.2,1.7,9.4C1655.1,224.9,1655.2,224.7,1655.2,224.7z"/>
		<path class="st19" d="M1654.2,128.3c5,3.9,10,7.9,15,11.8c-0.5,1-1.1,2.1-1.6,3.1c-4.8-4.2-9.6-8.5-14.4-12.7
			C1653.6,129.8,1653.9,129.1,1654.2,128.3z"/>
		<path class="st19" d="M1778.8,319.8c6.2-0.2,12.7-0.5,15.9,8.9C1789.4,325.8,1784.1,322.8,1778.8,319.8z"/>
		<path class="st17" d="M1773.5,332.7c4.2,2.3,8.4,4.6,12.6,6.8C1780.2,342.4,1775.7,340.8,1773.5,332.7z"/>
		<path class="st21" d="M963.7,996.5c-0.5-4.3-1-8.6-1.5-12.9c-0.7-0.2-1.5-0.4-2.2-0.5c-0.9,4.5-1.9,9-2.8,13.4c-0.5,0-1,0-1.5,0.1
			c-0.5-4.3-1.1-8.6-1.6-12.9c-0.7-0.2-1.5-0.4-2.2-0.6c-0.9,4.4-1.8,8.9-2.7,13.3c-0.5,0-1-0.1-1.5-0.1c0-5,0-10,0-16.3
			c4.8,0,9.9-0.5,14.9,0.3c1.5,0.2,3.2,4,3.8,6.6c0.7,2.9,0.2,6.2,0.2,9.3C965.6,996.3,964.7,996.4,963.7,996.5z"/>
		<path class="st21" d="M879.8,981.7c6.5-3.7,3.8,4.6,6.2,7.2c1.2-2.9,2.5-5.8,4.3-10.2c1.6,3.7,2.7,6.2,4,9.2
			c1.3-3,2.3-5.5,3.4-8.1c0.7,0.4,1.3,0.7,2,1.1c-1.5,5.4-2.9,10.8-4.4,16.2c-0.6-0.1-1.3-0.3-1.9-0.4c-0.5-1.4-1.1-2.7-1.6-4.1
			c-0.4-1.2-0.8-2.4-1.5-4.3c-1.6,3.4-2.8,6-4.6,10C883.3,991.7,881.5,986.7,879.8,981.7L879.8,981.7z"/>
		<path class="st21" d="M783.5,975.7c3.7,6,5.3,6,8.6,0.5c1.2,1.9,2.4,4,3.8,6.3c-2.8,3.3-3.8,8.2,1.5,12.8
			c-5.4,1.6-5.3,1.6-6.2-7.2c-0.2-2-1.8-3.7-2.8-5.6c-1.2,1.5-3.4,3-3.5,4.6c-0.1,2.2,1.4,4.5,2.2,6.7c0.2,0.7,0.5,1.3,1.6,3.9
			c-3-1.5-5.8-2-6-3.1c-0.9-6-1.2-12.2-1.7-18.4C781.9,976,782.7,975.8,783.5,975.7z"/>
		<path class="st21" d="M994.7,981.1c3.6-1.1,7.2-2.3,10.6-3.4c0.6,0.8,2,2.7,3.3,4.6c-3.2,3.6-3.6,8.6,1.9,13.4
			c-4.7,2.1-6.6,0.5-6.6-4.8c0-3.7,0.9-8.8-3.8-8.3c-1.2,0.1-2.1,5.5-3,8.5c-0.5,1.7-0.6,3.5-2.5,5.3
			C994.7,991.4,994.7,986.4,994.7,981.1z"/>
		<path class="st21" d="M1050.4,988.5c-4.7,1-7.2,1.5-9.7,2c-0.1,0.6-0.2,1.2-0.3,1.7c2.2,0.7,4.5,1.3,6.7,2
			c-0.1,0.7-0.2,1.4-0.2,2.2c-2.9-0.5-6.7,0.2-8.3-1.8c-1.7-2-2.3-7.3-1.4-10.2c0.7-2.3,4.7-4.5,6.8-4
			C1046.2,980.8,1047.7,984.8,1050.4,988.5z"/>
		<path class="st21" d="M802.9,996.7c-0.6,3.1-1.1,5.4-1.5,7.6c-0.4,0-0.8,0-1.2-0.1c0-7.7,0-15.3,0-23.1c9.2-1.7,12.2-0.4,12.3,6.3
			C812.6,995.2,808.8,997.6,802.9,996.7z M806.4,981.1c-2,3.1-4,4.9-3.9,6.4c0.2,2.1,2,3.9,3.1,5.9c1.4-1.7,3.4-3.2,3.9-5.2
			C809.7,986.7,807.9,984.5,806.4,981.1z"/>
		<path class="st21" d="M989.2,997.8c-3.3-1.6-6.7-3.2-10-4.8c2.3-2.9,4.6-5.8,7.2-9c-1.2-0.1-3.3-0.3-5.3-0.4
			c-0.2-0.6-0.3-1.2-0.5-1.9c2.3-0.6,6.2-2.3,6.6-1.5c2.1,4.4,3.3,9.5,4.8,14.3C991,995.7,990.1,996.8,989.2,997.8z"/>
		<path class="st21" d="M879.7,981.6c-0.2,2.4-0.3,4.8-0.5,7.6c-2.9,0.4-5.4,0.7-8,1c-0.1,0.6-0.2,1.2-0.3,1.7
			c2.5,0.7,4.9,1.5,7.4,2.2c0,0.7,0,1.4-0.1,2.1c-3-0.4-7,0.6-8.8-1.5c-1.7-1.9-2.3-7.9-1-10.3c1.3-2.5,5.3-2.9,8.2-3.8
			C877.6,980.4,878.7,981.3,879.7,981.6L879.7,981.6z"/>
		<path class="st21" d="M766.9,995.9c0-7.8,0-15.6,0-23.3c0.4-0.1,0.8-0.2,1.2-0.3c0.5,2.7,0.9,5.3,1.4,8c8.7-0.8,10.3,2.2,6.7,15.9
			c-0.2-2.3-0.2-4.8-0.8-7c-0.6-2.1-1.8-3.9-2.7-5.8c-1.2,1.9-2.8,3.7-3.6,5.8c-0.7,2-0.5,4.4-0.7,6.7
			C767.9,995.9,767.4,995.9,766.9,995.9z"/>
		<path class="st21" d="M945.1,986.4c-1.4,7.7-3.8,10.6-8.3,10.4c-4.4-0.2-6.3-3.2-6.3-8.5c0-5.8,2.7-9.2,7.1-8.1
			C940.3,980.9,942.6,984.2,945.1,986.4z M943.1,988.7c-2.8-2.6-4.3-5-5.9-5.1c-1.3-0.1-3.8,2.8-3.7,4.1c0.2,2.1,1.9,5,3.4,5.5
			C938.2,993.5,940.1,991,943.1,988.7z"/>
		<path class="st21" d="M853.5,996c-0.2-4.9-0.4-9.7-0.5-14.6c12.1-2.4,14,0.2,10,14.8c-0.2-2.3-0.2-4.8-0.8-7
			c-0.5-2.1-1.8-3.8-2.7-5.7c-1.2,1.9-2.8,3.6-3.6,5.8c-0.7,2-0.5,4.5-0.6,6.8C854.7,996,854.1,996,853.5,996z"/>
		<path class="st21" d="M822.9,982.4c-1.4,0.5-2.8,1.1-3.8,1.4c1.3,3.5,2.6,7,3.9,10.4c-2.6,0.9-5.2,1.8-7.7,2.7
			c-0.2-0.8-0.3-1.7-0.5-2.5c1.8-0.6,3.6-1.2,4.6-1.6c-1.6-3.5-3.1-6.8-4.7-10.2c2.5-1.1,5-2.2,7.6-3.3
			C822.5,980.5,822.7,981.4,822.9,982.4z"/>
		<path class="st21" d="M901.6,994.3c1.5-0.6,3.1-1.2,3.9-1.5c-1.4-3.7-2.7-7-3.9-10.2c2.5-1,5.1-1.9,7.6-2.9
			c0.2,0.9,0.3,1.7,0.5,2.6c-1.7,0.6-3.4,1.2-4.4,1.5c1.6,3.4,3.1,6.8,4.7,10.2c-2.6,1.1-5.2,2.1-7.8,3.2
			C901.9,996.2,901.7,995.3,901.6,994.3z"/>
		<path class="st21" d="M841,974.6c-2.9,8.6-5.9,17.2-8.8,25.8c-0.9-0.5-1.8-0.9-2.7-1.4c3-8.5,6.1-17.1,9.1-25.6
			C839.4,973.8,840.2,974.2,841,974.6z"/>
		<path class="st21" d="M927.5,981.2c-2.2,2.4-4.3,4.8-6.5,7.1c2.1,2.3,4.3,4.7,8,8.8c-4.1-1.3-7.7-1.2-9.5-3.4
			c-1.4-1.7-1.7-7.5-0.5-9.3c1.9-2.8,5.5-3.7,8.5-5.4C927.5,979.8,927.5,980.5,927.5,981.2z"/>
		<path class="st21" d="M978.7,974.8c-3,8.5-6,17.1-8.9,25.6c-0.8-0.4-1.5-0.8-2.3-1.2c2.9-8.6,5.8-17.3,8.7-25.9
			C977.1,973.8,977.9,974.3,978.7,974.8z"/>
		<path class="st21" d="M840.4,998.9c3-8.6,5.9-17.1,8.9-25.7c0.8,0.4,1.5,0.8,2.3,1.3c-2.9,8.6-5.8,17.3-8.7,25.9
			C842,999.9,841.2,999.4,840.4,998.9z"/>
		<path class="st21" d="M1026.8,980.8c-2.1,2.7-4.2,5.4-6.3,8.2c2.2,2.1,4.4,4.3,6.5,6.4c0.1,0.5,0.2,0.9,0.2,1.4
			c-2.7-0.8-6.5-0.6-7.8-2.7c-1.4-2.4-1.7-7.8-0.4-10.2c1.4-2.6,5.1-3.1,7.9-4.5C1027,979.8,1026.9,980.3,1026.8,980.8z"/>
		<path class="st21" d="M1031.6,995.8c0-7.8,0-15.5,0-23.3c0.4,0,0.8-0.1,1.2-0.1c0,7.8,0,15.5,0,23.3
			C1032.4,995.7,1032,995.8,1031.6,995.8z"/>
		<path class="st26" d="M806.4,981.1c1.6,3.4,3.4,5.6,3.1,7.1c-0.4,2-2.5,3.5-3.9,5.2c-1.1-1.9-3-3.8-3.1-5.9
			C802.3,986,804.4,984.2,806.4,981.1z"/>
		<path class="st23" d="M943.1,988.7c-3,2.3-4.9,4.8-6.2,4.4c-1.5-0.4-3.2-3.4-3.4-5.5c-0.1-1.2,2.4-4.1,3.7-4.1
			C938.8,983.7,940.2,986.1,943.1,988.7z"/>
	</g>
</g>
</svg>
