<svg xmlns="http://www.w3.org/2000/svg" xml:space="preserve" id="Ebene_1" x="0" y="0" viewBox="0 0 1920 1080"><style>.st0{fill:#f9fafb}.st2{fill:#fdfdfd}.st5{fill:#393254}.st7{fill:#38365c}.st9{fill:#403a5f}.st10{fill:#554e6c}.st11{fill:#3f355a}.st12{fill:#443e61}.st13{fill:#474366}.st14{fill:#3e3c62}.st15{fill:#2a2d59}.st16{fill:#3b3a62}.st17{fill:#413d63}.st18{fill:#37325b}.st19{fill:#4e4361}.st20{fill:#434068}.st21{fill:#372a50}.st22{fill:#535170}.st23{fill:#342756}.st24{fill:#45274b}.st26{fill:#eaeeec}.st28{fill:#f0f9f7}.st29{fill:#e4e8e8}</style><path d="M-50.6 1080V0H1920v1080zm1162.2-238.7c1.6 1.4 3 3.3 4.7 4.2 3.7 1.9 7.9 5.2 11.4 4.4 2.3-.5 5.4-7.1 5.3-11 0-3.8-3.3-10.3-5.6-10.7-3.5-.6-7.6 2.8-11.3 4.8-1.6.9-3 2.6-4.5 3.9-.7-8.8-5.5-11.2-10.6-9.1-3 1.2-6.6 6.9-6.7 10.7-.1 3.9 3 10.3 5.8 11.6 5.2 2.3 10.7.9 11.5-8.8m-70.4-482.1c1.6 1.4 3 3.3 4.7 4.2 3.7 1.9 7.9 5.2 11.4 4.4 2.3-.5 5.4-7.1 5.3-11 0-3.8-3.3-10.3-5.6-10.7-3.5-.6-7.6 2.8-11.3 4.8-1.6.9-3 2.6-4.5 3.9-.7-8.8-5.5-11.2-10.6-9.1-3 1.2-6.6 6.9-6.7 10.7-.1 3.9 3 10.3 5.8 11.6 5.1 2.4 10.7.9 11.5-8.8m-656.8-9.5c.8 3.3 2 6.6 2.3 10 .7 9.6 1.6 10.3 8.8 6.5-5.8-6.5-5.6-12.3.2-18.6-2.2-3.1-4.4-6.2-6.8-9.6-1.5 2.7-3 5.1-4.4 7.6-4.7 1.4-9.3 2.8-14.8 4.5-.7-.8-2.5-3.1-4.3-5.2-2.3 2.2-4 4-5.8 5.7-3.3-1.8-7.2-5.9-9.7-4.7-2.9 1.4-6.4 7.3-6.4 11.3 0 3.8 3.6 9.2 6.6 11 2.2 1.3 6-2 9.1-3.3-.3-.9-.6-1.7-.9-2.6h-9.6v-2.6c3.6-.3 7.1-.6 11.2-.9-.2-3-.4-5.5-.5-8.1 2 .7 5.9 1.4 5.9 2 0 5-.8 10-1.4 16.4 2.5-2.3 5-4.6 7.3-6.7 2.4 2.2 4.9 4.5 6.1 5.5.4-6.6.6-12.4 1.3-18.1 0-.4 3.8 0 5.8-.1m600.7 492c2.8 3 5.3 7.2 8.5 8.7 1.9.9 5-2.2 7.5-3.5-.3-.9-.6-1.9-.8-2.8h-9.9c0-.8.1-1.6.1-2.3 3.8-.4 7.7-.7 11.5-1.1.5-1 1-2.1 1.6-3.1-2.8-3.4-5.1-8.5-8.4-9.9-4.9-2.1-9 1.2-10 8.8l-2.4 1.2c-3.3-12.7-10.6-11.1-19.1-8.6.4 7.1.8 14.4 1.2 21.7 1.2-.1 2.3-.2 3.5-.3.2-3.3-.1-6.7.6-9.7.8-3 2.7-5.6 4.1-8.4 1.1 2.7 2.7 5.2 3.4 8 .8 3.4 1 7.1 1.6 12.2 3.3-5.1 5.1-8 7-10.9m-61.8-242.8c.3.7.7 1.3.8 2 2.2 10.2 8.4 11.4 13.7 7.3 2.7-2.1 4.6-11 3.4-15.4-2.2-8.6-8.2-8.1-13.9-4.6-1.2.7-2.7.4-4.1.5-.6-.6-1.6-1.1-1.7-1.8-1.7-11.1-7.8-11.5-14.2-9.4-5.3 1.7-7.7 14.8-5.1 24.5 2.3 8.5 7.9 9.4 13 7.1 3.3-1.4 5.5-6.7 8.1-10.2m29.9-235c4.7 2 9.5 4 16.5 7-5.6 1.6-9.3 2.7-13 3.7 15.3 5.6 15.8 5.1 15.8-14.4v-13.9c-3-.3-5.2-.5-7.4-.8-8.5-1-11 2.2-11.1 13.5 0 1.7-.4 3.4-.7 5.1-1.2-3.2-3.1-6.2-3.4-9.5-.4-6.7-2.8-9-7.7-9.7-8.8-1.3-4.2 9.3-7.1 13.2-1 1.4-.8 6 .2 8 2.5 4.7 14.5 2.9 17.9-2.2M1147.8 161l-6.3 1.5c-.2 1.3-.4 2.7-.6 4 4 2 8.1 5.8 12 5.4 3.4-.4 6.5-5.5 9.7-8.6-2.5-3.5-4.8-7.3-7.7-10.3-1.7-1.8-4.3-2.3-6.5-3.3l.6-2.7c4 .6 7.9 1.1 11.9 1.7.2-1.7.5-3.5.7-5.2-4.4-1.2-8.9-3.6-13.2-3.2-2.2.2-6.2 6.2-5.8 8.1.9 4 4.3 7 6.6 10.4-.3.7-.8 1.5-1.4 2.2m-170-16.5c6.2 1.3 8.2 5.8 8 14.1-.4 13.1 2.2 15 12.1 11-7.6-17.9-7.6-17.9 0-25.1-2.1-4.3-3.8-8.9-6.3-12.5-.8-1.2-4.4-.8-5.5.6-3.1 3.5-5.5 8-8.2 12-11-8-14.6-7.5-22.1 6.2 4.5-1.9 6.6-3.5 8.8-3.6s4.4 1.2 6.7 1.9c-.2 1.1-.5 2.2-.7 3.3-2.9.2-6.3-.9-8.6.8-2.6 2-5.4 6.1-5.7 9.7-.2 2.6 3.3 8.1 5.5 8.3 6.3.7 12.8-.5 17.6-.8-.7-9.4-1.2-17.6-1.6-25.9m870 374.6c-1.9-14.4-5.7-18.5-17.3-18.5h-507c-12.5 0-16.2 3.9-18.2 18.5-1.2 3.8-3.3 7.5-3.4 11.3-.2 44.8-.2 89.5-.2 134.3 0 22.9 5.8 30.5 23.1 30.5h505.9c13 0 20.3-8.7 20.4-24.7.1-47.5.1-95-.1-142.4.2-3-2-6-3.2-9m-542.4-241c-1.2 3.8-3.3 7.5-3.4 11.3-.2 44.8-.2 89.5-.2 134.3 0 22.9 5.8 30.5 23.1 30.5h505.9c13 0 20.3-8.7 20.4-24.7.1-47.5.1-95-.1-142.4 0-3-2.2-6-3.4-9-1.9-14.4-5.7-18.5-17.3-18.5h-506.9c-12.4 0-16.1 3.8-18.1 18.5m-1165.8 1.7c-.9 0-1.8-.1-2.7-.1-.3 1.7-.8 3.4-.8 5.2 0 48.6-.2 97.3 0 145.9.1 14.7 7.7 23.5 19.5 23.5 169.6.1 339.1.1 508.7 0 12.1 0 19.3-9.2 19.3-24.9q.15-71.25 0-142.5c0-2.5-.7-4.9-1.1-7.4-.8.1-1.6.2-2.4.4v141c0 18.5-4.3 24.2-18.3 24.2H157.5c-13.5 0-18.1-5.8-18.1-23.3V292.1c.2-4.2.2-8.3.2-12.3m582.9-.1h-2.8c-.2 1.4-.7 2.9-.7 4.3 0 49-.2 98.1 0 147.1.1 14.6 7.7 23.1 19.8 23.1h507.8c13.1 0 19.9-9.1 19.9-26.5.1-46.3 0-92.7 0-139 0-3.1-.5-6.2-.8-9.3-.8.1-1.5.1-2.3.2-.1 3.9-.4 7.9-.4 11.8v130.9c0 16.3-4.7 22.6-16.8 22.6H739.3c-12.1 0-16.8-6.3-16.8-22.6zm544.2 482.1h-3.5v142.1c0 17-4.6 23.1-17.3 23.1h-506c-12.7 0-17.3-6.1-17.3-23.2V772.9c0-3.8-.4-7.6-.6-11.4-2.3 1.8-2.8 3.5-2.8 5.2-.1 48.6-.2 97.3 0 145.9.1 15.2 7.6 23.6 20.3 23.6h506.9c13.6 0 20.3-9 20.3-27.1zM139.2 520.7h-2c-.3 2.3-1 4.7-1 7-.1 47.9-.2 95.7 0 143.6.1 15.3 7.5 24 20 24H664c12.7 0 19.8-9.1 19.8-25.5q.15-70.65 0-141.3c0-2.6-.6-5.3-1-7.9-.8.1-1.7.2-2.5.3v141.6c0 17.7-4.4 23.6-17.9 23.6H157.3c-13.2 0-17.6-6-17.6-23.9V532.5c-.1-4-.4-7.9-.5-11.8m1126.7-.1h-2.3c-.2 3.9-.4 7.8-.4 11.8v129.7c0 17.9-4.4 23.9-17.6 23.9H740.5c-13.4 0-17.8-5.9-17.8-23.6V531.5c0-3.7-.5-7.4-.8-11-2.2 2.5-2.7 4.6-2.7 6.8 0 47.9-.1 95.7 0 143.6.1 15.5 7.4 24.3 19.8 24.3h507.8c13.2 0 20-9 20-26.4.1-46.3 0-92.7 0-139-.2-3-.6-6.1-.9-9.2m-219.4-347.1c-1.6 1-3.1 2.2-4.8 2.9-3.5 1.5-7.1 2.7-10.6 4 3.9 1.2 7.7 2.6 11.6 3.6 1.4.4 3.3.7 4.3-.2 2.1-2 5.1-4.7 5.2-7.2.6-11.8.2-23.6.2-35.6-10.3 1.5-23.8-8.6-25 14.7-.6 11.6 4.3 15.4 19.1 17.8M848.4 850.6c.8-.1 1.6-.1 2.3-.2v-32.1c-14-2.8-5.6 17.9-13.3 22-1.4-7.1-2.8-14.4-4.3-22h-7.5v31.9c.6 0 1.3.1 1.9.1.5-6.2.9-12.3 1.4-18.5 3.6 6.2 4.2 15.3 7.6 17.7 7.5 5.4 5.2-8.5 10-12 .3 2.9.5 5 .8 7.1.3 2.2.7 4.1 1.1 6m103.1-696.2c-1.8 1.7-3.6 3.5-5.6 5-2.5 1.9-5.4 5-7.8 4.6-1.9-.3-4.1-4.8-4.8-8-.8-3.9-.9-8.6 0-12.5.7-3.2 2.9-7.8 4.8-8.2 2.4-.4 5.3 2.7 7.8 4.5 2 1.4 3.9 3.1 7 5.7-2-15.7-4.7-18.7-14.1-18.2-8 .4-11.8 5.7-12.3 16.9-.1 3.5 0 6.9 0 10.4.1 10.4 3.6 16.9 11.8 17.7 8.2.7 13.7-3.3 13.2-17.9m181 5.6c6.6-4.2 7.1-10.9 1.8-16.9-4.9-5.5-12.3-5-16.6 1.2-4.2 6.1-3.8 18.7.8 24.2 5.3 6.3 12.3 5 18.4-3.8-1.5-1.5-2.9-3-4.4-4.7m-107.8-3.8c-.5-10.5-4.5-17.7-11.8-16.5-4.1.7-9.2 6.4-11.1 11.6-2.7 7.4-.5 15.7 5.7 19.3 5.8 3.5 11.8 2.8 16.2-6.4-2.5-1.2-4.4-2.2-6.7-3.3 2.6-1.6 4.9-3 7.7-4.7m45.4 16.2c7.6-.2 12.3-6.8 12.1-17-.2-9.7-5.7-16.7-12.9-16.3s-12.4 7.8-12.2 17.4c.1 9.9 5.2 16.1 13 15.9m-236.4-36v35.3c2.3-.3 4.9-.3 4.9-.7.9-11.5 1.5-23.1 2-32.3 3.9-3.3 6.7-5.7 9.4-8-.5-1.1-.9-2.2-1.4-3.3-7 0-13.9-.2-20.9.2-1.4.1-2.7 2.5-4.1 3.8 1.1 1.3 2.1 3.2 3.5 3.9 1.6.8 3.4.6 6.6 1.1m38.5 19.9c.1-9.5-5.3-17-12.4-17.1-7.3-.2-12.6 6.7-12.7 16.5-.1 10.2 4.5 16.6 12.2 16.8 7.6.1 12.7-6.4 12.9-16.2m15.2-17.2c-7.3.3-12.3 7.4-12.2 17.3.1 10 5.1 16.2 12.8 16 7.5-.2 12.4-6.9 12.3-16.9-.1-9.5-5.9-16.7-12.9-16.4m39.1 229.7c1.2-.2 2.4-.4 3.5-.6 0-5.5.6-11.2-.2-16.5-.4-2.5-3.2-6-5.1-6.3-6.5-.8-13.2-.3-20.9-.3 1.8 9.1-1.4 17.1 4.1 26.4 1.3-9.2 2.1-15.5 3-21.7 1.1.1 2.1.2 3.2.3.6 6.2 1.3 12.4 1.9 18.6.8 0 1.6 0 2.3.1l3.3-19.2c1 .2 2 .3 3 .5.6 6.3 1.3 12.5 1.9 18.7M320.9 586.3c-.3-7.7-1.9-9.8-8.9-9.5-7.1.3-9.9 5.7-9.6 17.8.3 9.1 2.4 15.7 10.7 15.2 6-.3 8.4-4.1 8.8-10.7-5 1.5-9 2.6-13 3.8-.2-6.2-.3-12.4-.5-18.6 4.2.8 8.4 1.4 12.5 2m97 31.5v-30.7c-15.2.2-16.7.7-17.5 7.6-1.7 13.7 5.9 15.4 14.7 15.3-.4 1-.8 1.9-1.2 2.9-3.5.8-7.1 1.6-10.6 2.4l.3 2.4c4.5.1 9.1.1 14.3.1m-58.6-31.2c-9.7-.5-13.2 2.9-12.9 12 .3 10 3.9 11.9 17.8 9.7v-31c-.7-.2-1.4-.4-2.2-.6-.8 3-1.7 6.1-2.7 9.9m601.1 263.2c-.6-5.3-.8-10.3-1.9-15-.7-2.8-2.6-6.4-4.6-7.1-2.5-.8-6-.1-8 1.9-1.4 1.4-.8 6-1.2 9.2-.4 2.8-1.9 6.6-1.1 8 1.4 2.2 4.2 3.5 6.5 3.8 3.7.4 7.3-.5 10.3-.8m-39.7-5.5h-10.9v-2.5c3.8-.3 7.6-.6 11.8-1 .4-7.8-1.6-13.7-7.2-13.1-3.4.4-8.2 4.7-9.3 8.7-.9 3.5 1.5 11 4.2 13.1 3.4 2.8 8.9 3.5 11.4-5.2m72.9-485.4c.6-8.2-1.4-14.2-7.2-13.3-3.4.5-8.2 4.9-9.2 8.9-.9 3.5 1.7 10.9 4.4 13.1 3.5 2.8 8.8 3 11.6-5.4h-11.1v-2.4c3.5-.3 7.2-.6 11.5-.9m93.3-188.5c.7.6 1.4 1.2 2.2 1.8 1.2-2.6 3.2-5.1 3.6-7.9.9-6.9-2.4-16.4 7.2-17.2.5 0 1.4-3 1.1-3.7-.6-1.3-2-2.7-3.1-2.7-3.5-.1-7 .4-10.9.7-.1 9.9-.1 19.5-.1 29m-43 657.2c-1-.1-2-.2-3-.2-.3 3.1-.1 6.4-.9 9.2-1 3.3-2.8 6.2-4.3 9.2-1.1-3-2.5-5.8-3.4-8.9s-1.2-6.4-1.8-9.7c-5.6 20.3-3 23.9 13.4 22.2zM380.1 585.1v24.5c1 0 1.9.1 2.9.1.2-4.1-.1-8.4.7-12.3.5-2.4 2.6-4.2 4-6.2 1.3 2.1 3.1 4 3.6 6.3.8 3.9.7 8.1 1 12.2 1.2-.1 2.4-.2 3.7-.3-.3-6.2 1.1-14.7-1.4-18-3.2-4.3-9.6-4.4-14.5-6.3m779.7 249c.2-1.3.5-2.6.7-3.9-3.6-.9-7.2-2.5-10.8-2.1-.9.1-1.5 6.5-2 10.1-.2 1.6-.3 3.5.1 5 .6 2.5 1.9 6.9 2.5 6.8 3.7-.7 7.2-2.4 10.9-3.7-1-2.8-1.4-6.3-3-8.3-1.7-2-4.4-2.6-6.7-3.7.2-.8.5-1.6.7-2.4 2.4.8 5 1.5 7.6 2.2m-68.8-482c-2-3-2.9-5.7-4.1-6-2.7-.6-7.6-1.1-8.1.4-1.3 3.8.6 9.6-1 12.9-3.6 7.5 0 9.3 3.9 9 3.1-.2 6.1-3.5 9.2-5.4-2.2-2.9-4.3-5.8-6.6-8.5-.9-1.1-2.3-1.5-3.4-2.3.1-.6.3-1.3.4-1.9 2.7.5 5.5 1 9.7 1.8M910.6 128.4c-.7-.7-1.4-1.3-2.1-2-1.4 2.3-4 4.5-4.1 7-.5 10.7-.5 21.6 0 32.3.1 2.4 2.7 4.6 4.1 7 .7-.7 1.4-1.3 2.1-2zM333.7 609.9c6.7.1 9.8-4.5 9.8-12s-3.3-11.9-9.4-11.9c-6.1.1-9.2 4.6-9.2 12.1.1 7.6 3.2 12.2 8.8 11.8m712.9.1c7.4-.2 10.4-4.9 10.2-12.4s-3.6-11.7-9.7-11.5c-6.2.3-9.1 5-8.9 12.5.1 7.5 3.4 11.9 8.4 11.4M434.4 368.8c6.5.2 9.8-4.1 9.8-11.9s-3.4-11.9-9.5-11.9c-5.8.1-8.8 4.3-8.9 11.5-.2 7.6 2.5 12.5 8.6 12.3m57.7-16.8.6-3.9c-3.6-.8-7.2-1.6-10.9-2.4-.3 3.8-.5 7.6-.8 11.5-.1 1.1-.2 2.3-.1 3.4.1 2.4.3 4.8.5 7.2l11.4-2.1c-.7-3.2-.9-7.1-2.4-9.4-1.5-2.2-4.4-2.8-6.8-4.1.2-.7.4-1.4.6-2.2 2.7.7 5.3 1.3 7.9 2m-33.4 234.1c-6.8 0-10.1 4.3-10 12 0 7 2.6 11.5 8.6 11.7 6.1.2 9.6-3.4 9.8-11.3.1-7.7-3-12.2-8.4-12.4m56.2 7c.2-1.5.5-3.1.7-4.6-3.8-.4-7.5-.9-11.3-1.3 0 3.8.1 7.6 0 11.4 0 1.1-.8 2.1-.8 3.2 0 2.2.3 4.4.5 6.6 4-.6 8-1.3 11.9-1.9-.6-3-.4-6.8-1.8-8.7-1.8-2.4-4.9-3.1-7.4-4.6l.6-2.1c2.5.7 5 1.3 7.6 2m547.7 241c.2-1.3.5-2.6.7-3.8-3.6-.8-7.1-1.7-10.7-2.5-.4 3.8-.8 7.5-1.1 11.3-.1 1.1.5 3.1.2 3.3-5.6 3.7-.9 7.5.8 7.5 3.9-.1 7.7-2.3 11.5-3.6-1.3-3-2.2-6.5-4-8.8-1.4-1.7-3.9-1.9-5.9-2.8.2-.9.5-1.8.7-2.7 2.7.7 5.2 1.4 7.8 2.1m-98.6-248c-5.9.1-9.1 4.1-9.1 12.1 0 7.2 2.7 11.4 8.5 11.6 6.1.3 9.5-3.4 9.7-11.3.2-7.8-2.8-12.3-9.1-12.4m52.4 11.8c.3 6.9 2.5 11.8 8.9 11.9 5.6.1 9-3.1 9.4-10.5.4-7.6-2-12.7-8.3-13.2-5.9-.4-9.3 3.3-10 11.8M869.9 834.3c.1-.6.2-1.2.3-1.9 2.9.4 5.9.8 9.5 1.3-.9-2.1-1.1-3.5-1.7-4-7.1-6.2-8.9-2.7-11.5 11.9-1.2 7 .4 8.8 3.8 8.7 3.2 0 6.4-2.9 9.6-4.6-1.9-3.1-3.7-6.4-5.8-9.1-1-1.2-2.8-1.5-4.2-2.3m154.1 5c-.3-7.7-3-12.1-9.2-12.1-5.6 0-8.8 3.6-9 11-.2 7.7 2.2 12.4 8.6 12.6 6.2.2 9.2-3.6 9.6-11.5m-123.2-4c-1.5-8-6.5-10.2-11-7.4-3 1.8-6 8.3-6.2 12.9-.4 7 3.8 11.3 9.4 9.8 2.9-.8 5.5-4.2 8.2-6.4-.5-.5-1-.9-1.5-1.4-3.5.4-7 .8-10.6 1.2 0-3.2 0-6.5-.1-9.7 3.4.3 6.9.6 11.8 1m-453.3-479c.1 7.4 2.2 12.3 8.7 12.5 6.1.2 9.4-3.5 9.6-11.4.1-7.2-2.4-11.7-8.2-12.1-6-.6-9.5 2.8-10.1 11m635.1 236.8c.4-1.3.7-2.6 1.1-3.9-3.6-.8-7.2-2.5-10.7-2-1 .1-1.6 6.4-2.2 9.9-.2 1.3 0 2.9.3 4.2.9 2.9 2.4 8.2 3 8 3.5-.9 6.9-3.1 10.3-4.9-1.8-2.9-3.4-6-5.5-8.5-1.2-1.4-3.1-1.7-4.7-2.5.2-.7.3-1.5.5-2.2 2.7.5 5.3 1.2 7.9 1.9M489 597.9c-.5-8.2-3.7-12.1-9.8-11.7-6.3.4-8.8 5.3-8.5 13 .3 7.4 3.5 10.8 9.2 10.7 6.3-.2 8.8-4.8 9.1-12m-50.7 11.3c1.2.2 2.4.4 3.6.5.4-9.1.7-18.1 1.1-26.7 2.7-1 4.9-1.8 7.1-2.6-.1-.8-.2-1.5-.3-2.3h-19c-.1.7-.2 1.4-.2 2.1 2.2 1 4.5 2 7.7 3.5zm648.5 215.3c3.3-1.3 5.7-2.2 8-3.2-.2-.7-.3-1.5-.5-2.2h-18.9l-.3 2.1c2.4 1.2 4.8 2.3 6.7 3.3.7 9.4 1.3 17.9 1.9 26.4 1.1-.2 2.1-.5 3.2-.7-.1-8.4-.1-16.8-.1-25.7M325.2 337.1c-.2.5-.3 1-.5 1.5 2.5 1.4 4.9 2.8 8.9 5.1v24.9c1-.1 1.9-.1 2.9-.2v-26.1c3.5-1.2 5.7-2.1 8-2.9-.1-.8-.2-1.6-.2-2.4-6.5.1-12.8.1-19.1.1m90.1 5.8v25.6c1.1.1 2.2.1 3.3.2.3-8.8.6-17.7.9-26.3 2.7-1.3 5-2.4 7.3-3.4-.2-.6-.4-1.2-.5-1.8h-18.8c-.1.7-.1 1.4-.2 2.1 2.2.9 4.4 1.9 8 3.6m583.9 235c-.2.6-.4 1.1-.5 1.7 2.4 1.3 4.9 2.7 8.3 4.5v25.3c.9 0 1.8.1 2.7.1.3-8.7.6-17.4.9-26 2.7-1.2 5.1-2.4 7.5-3.5-.1-.7-.2-1.4-.3-2-6.2-.1-12.4-.1-18.6-.1m-20.9 31.5c1.2 0 2.3.1 3.5.1 0-4.2-.8-8.7.2-12.5.9-3.5 3.7-6.2 6-10h-9.8c.1 7.7.1 15.1.1 22.4m37.5-266.4c3.8-1.9 6.1-3.1 8.4-4.2-.2-.5-.3-1.1-.5-1.6h-18c-.1.7-.2 1.4-.3 2 2.4 1.2 4.8 2.3 8.1 3.9v25.2h2.2c.1-8.4.1-16.8.1-25.3M950 610.2v-36c-5 11.3-4.6 29.7 0 36m-20.6 208.1c-6 8.7-5.2 28.3 0 32.1zM899.6 333c-6.1 11.4-5.4 31.3 0 35.5zm212.6-177.1c-1.9-5.9-3.3-10.6-4.8-15.2-1 4.9-2.8 9.8-2.8 14.7 0 5.4 1.6 10.7 2.5 16.1 1.7-5.2 3.4-10.3 5.1-15.6M858 850.6c1.2-.2 2.4-.3 3.6-.5-.3-7.6-.5-15.1-.8-22.7-.9.1-1.9.2-2.8.3zM496.7 577.4h-2v31.8c.7 0 1.4 0 2-.1zm567 0c-.6 0-1.2.1-1.8.1v31.8c.6-.1 1.2-.1 1.8-.2zM935.8 850.2c.7 0 1.4-.1 2.1-.1v-31.8c-.7 0-1.4.1-2.1.1zM473.4 336.4c-.7 0-1.4 0-2.1.1v31.8c.7 0 1.4-.1 2.1-.1zm667.6 482c-.7 0-1.4 0-2 .1v31.8c.7 0 1.4 0 2-.1zm-72.6-450.2c.6 0 1.3-.1 1.9-.1v-31.8c-.6.1-1.3.1-1.9.2z" class="st0"/><path d="M1305.4 278.1c2-14.7 5.7-18.5 18.2-18.5h506.9c11.6 0 15.4 4.1 17.3 18.5v143.6c0 17.1-4.5 23.2-17.3 23.2h-507.9c-12.7 0-17.2-6.1-17.3-23.2.1-47.8.1-95.7.1-143.6m229 69c4-1.9 4.1-2.6.1-8.8-2.2-.7-4.4-1.3-4.8-1.4 1.4 2.9 3 6.5 4.7 10.2m72.1 7.6c-.7-8.8-5.6-11.2-10.6-9.1-3 1.2-6.6 6.9-6.7 10.8-.2 3.9 3 10.3 5.8 11.6 5.1 2.3 10.7 1 11.5-8.7 1.5 1.2 2.8 2.8 4.4 3.7 3.7 2 7.8 5.5 11.3 4.9 2.4-.4 5.6-7 5.7-10.8 0-3.9-3.1-10.5-5.5-11-3.6-.7-7.7 2.7-11.4 4.7-1.6.9-3 2.6-4.5 3.9m-65.1 3-6.9-5.4c-3.5-2.1-7-4.2-10.9-6.6 1.7-3.4 2.9-5.6 4.6-9.1-2.2-.2-3.8-.8-4.2-.2-1.6 2.8-4.7 7.5-4.1 8.6 2.1 3.9 5.4 6.6 8.4 9.7 1.5 1.6 3.2 2.8 4.5 4.6.3.4-.8 3.6-1.3 3.6-2.2.1-5.2.7-6.4-.9-5.1-7-9.5-6.9-14.7-.1-1.2 1.5-6.6.4-6.6 0-.5-6.2-2.2-13.8-.2-18.3 3-6.5 6.8-1.8 9.2 3.3.4.8 2 .6 4 1.1-.7-7.9-2.9-11.9-8.7-12.2-5.7-.3-10.2 2-10.7 10.1s-2.5 18.2 5.3 22.2c6.3 3.2 12.3 1 14.6-9.3 5.8 10.5 5.8 10.5 15.3 9.4 2.9-2.1 5.9-4.1 8.8-6.2 2.6 8.9 8.3 7.6 13.3 5.9 2-.7 5-7.3 4.5-8.2-2.4-4-5.7-7-8.8-10.2-1.6-1.7-3.3-3.2-4.9-4.7.5-1.4 1.1-2.8 1.6-4.2 3.8 2.2 7.5 4.4 11.8 6.9.2-7.9-2.6-12.4-8.2-11.3-3.3.7-6.3 4.6-9.4 7.1 2.6 3.8 5.1 7.8 8 11.2 1.7 1.9 4.1 2.8 6.2 4.1-.4 1.5-.7 3.1-1.1 4.6-2.9-.8-5.9-1.4-8.7-2.5-1.5-.6-2.9-2-4.3-3m113.1-5.6c.3-1.4.6-2.9.9-4.3-3.8-.6-7.6-1.8-11.3-1.4-.6.1-.9 6.8-1.3 10.5-.1 1.1.7 2.6.4 3.2-3.9 6.3 0 8.5 3.3 8.4 3.2-.1 6.4-3 9.6-4.6-2-3.1-3.8-6.3-6-9.1-1-1.3-2.6-1.8-3.9-2.7.2-.6.3-1.1.5-1.7 2.5.4 5.2 1.1 7.8 1.7m-75.4-9.7v26.1c.9-.1 1.8-.1 2.6-.2v-25.9c3.4-1.4 5.6-2.3 7.7-3.2-.1-.5-.2-1-.4-1.5h-18.4v2.2c2.2.6 4.4 1.3 8.5 2.5m54.3 25.8h2.1v-31.9c-.7 0-1.4.1-2.1.1z" style="fill:#fefefe"/><path d="M1305.4 519.1c2-14.7 5.7-18.5 18.2-18.5h507c11.6 0 15.4 4.1 17.3 18.5v143.6c0 17.1-4.5 23.2-17.3 23.2h-507.9c-12.7 0-17.2-6.1-17.3-23.2zm413.3 81.8c-4.4 2.5-3.2 6.2 0 7.6 3 1.3 6.8.8 10-.2 1.1-.3 2.7-5.8 2.3-6.3-2.4-2.8-5.4-4.8-8.2-7.1.8-1 1.5-2 2.3-2.9 1.5.4 3 .7 5.6 1.4-3.5-9.2-8.3-8.7-12.4-5.2-1.1.9.7 7.7 1.1 11.8-.2.3-.4.6-.7.9m-201.9 7c1.1 0 2.2 0 3.4.1 0-9.7 0-19.5-.1-29.2h-3.2v27.1c-1.2.2-2.5.5-3.7.7-.7-3.6-1-7.5-2.2-10.8-1.2-3.4-3.1-8.4-5.2-8.9-3-.7-6.5 1.9-9.8 3.1.2.9.4 1.9.6 2.8 3.2-.3 6.3-.7 9.5-1 .1 1 .2 2 .2 2.9-.9.3-1.9.8-2.8.8-4.5 0-9.1 1.2-7.8 8.4.5 2.6 5.5 5 8.6 5.4 4 .5 8.3-.9 12.5-1.4m38.1-13.9 2.4 15.9c.9-.2 1.8-.5 2.7-.7v-31.6h-7.7c-1.5 7.4-2.9 14.1-4.3 20.9h-1.7c-1.4-6.8-2.7-13.6-4.2-20.9h-7.1v32.1c.7.1 1.3.2 2 .3.9-4.1 1.7-8.3 3-14.7 1.7 6.1 2.8 9.9 3.8 13.7 11.6 4.7 6.4-11.4 11.1-15m-131.5 3c-1.1 11 3.3 14.1 9 12.4 3.1-.9 7.4-4.6 8-8 1.3-7.8-3.8-9.7-8.7-11.2-1.9-.6-3.5-2.8-5.2-4.3.5-1.4 1.1-2.9 1.6-4.3 3.7 2.2 7.4 4.3 11.1 6.5-.1-9-.9-11.5-6.2-11-3.6.4-7.1 4.3-10.6 6.6 2.2 3.8 4.4 7.7 6.7 11.4.4.7 1.8.1 2.5.7 1.5 1.4 2.9 3.1 4 5 .2.3-1.1 3.2-1.8 3.2-1.9.2-4.2.3-5.8-.8-1.7-1.2-3-4-4.6-6.2m210.9 11.8c-.7-5.1-.8-9.7-2-13.6-1.1-3.4-3.3-8-5.5-8.5-2.9-.7-6.2 2.2-9.3 3.5.3.9.5 1.7.8 2.6 3.1-.2 6.2-.4 9.3-.7-1.3 3-2.9 2.6-3.9 3.5-2.5 2.3-4.7 5.1-7 7.7 2.6 2.1 5 5.3 7.8 6.1 3 .9 6.5-.3 9.8-.6m-52.5-9c-.6-8.7-2.7-14.9-9-13.3-3.2.8-7.8 5.7-8 9.2-.3 4.4 2.5 10.9 5.5 13.3 2.2 1.8 6.8-1.5 10.3-2.5-.2-1.1-.5-2.2-.7-3.4h-10c0-.8 0-1.6.1-2.4 3.5-.2 7.2-.5 11.8-.9m123 1.3v-5.7c-3.6-3.1-6.8-7.8-10.7-8.9-5.9-1.6-9.2 3.9-9.2 11.4-.1 7.5 2.9 13.2 9 11.6 3.9-1.1 7.2-5.5 10.9-8.4m-33.1 8.8c7.1 0 10.3-4.5 10.2-12s-3.3-11.9-9.4-11.9c-6.1.1-9.2 4.6-9.2 12.2.1 7.6 3.1 12.1 8.4 11.7m-208.2-8.8v-5.7c-3.6-3.1-6.8-7.8-10.7-8.9-5.9-1.6-9.2 3.9-9.2 11.4-.1 7.5 3 13.2 9 11.6 3.9-1.1 7.3-5.5 10.9-8.4m19.1 1.4c-4.4 0-8.1.2-11.8-.3-.4-.1-.7-7-.5-7 4-1 8-1.4 12.3-2-1.2-6.7-5.9-8.9-10.4-6.5-3 1.6-6.2 7.1-6.5 11.3-.3 3.6 2.7 9.8 5.4 11.1 4.6 2.3 10.1 1.7 11.5-6.6m116.6-18.4c-5.3 2.8-10.2 3.5-12.3 7.1-1.8 2.9-1.7 12.3-.1 13.4 4.7 3.4 10.5 4.2 15.2 5.9v-33.3c-.7.1-1.4.1-2.1.2-.4 3.2-.7 6.4-.7 6.7m57.7-.9c2.4-1 4.9-1.9 7.4-2.9-.1-.7-.2-1.3-.3-2h-18.7c-.1.7-.1 1.4-.2 2.1 2.2.9 4.5 1.9 6.8 2.8.3 8.9.6 17.6.9 26.3 1 0 2 .1 3 .1.4-8.7.7-17.3 1.1-26.4m54.1-7.8c-5 8.2-5.1 27.1 0 36.2z" class="st2"/><path d="M1305.4 278.1v143.6c0 17.1 4.5 23.2 17.3 23.2h507.9c12.7 0 17.2-6.1 17.3-23.2V278.1c1.2 3 3.4 6 3.4 9 .2 47.5.2 94.9.1 142.4 0 16-7.4 24.7-20.4 24.7-49 .1-98 0-146.9 0h-359c-17.3 0-23.1-7.6-23.1-30.5 0-44.8-.1-89.5.2-134.3-.1-3.8 2-7.5 3.2-11.3" style="fill:#f3f4fa"/><path d="M1305.4 519.1v143.6c0 17.1 4.6 23.2 17.3 23.2h507.9c12.7 0 17.2-6.1 17.3-23.2V519.1c1.2 3 3.4 6 3.4 9 .2 47.5.2 94.9.1 142.4 0 16-7.4 24.7-20.4 24.7-48.4.1-96.8 0-145.2 0h-360.7c-17.3 0-23.1-7.6-23.1-30.5 0-44.8-.1-89.5.2-134.3-.1-3.7 2-7.5 3.2-11.3M139.6 279.8v141.9c0 17.5 4.5 23.3 18.1 23.3H662c14 0 18.3-5.7 18.3-24.2v-141c.8-.1 1.6-.2 2.4-.4.4 2.5 1.1 4.9 1.1 7.4q.15 71.25 0 142.5c0 15.7-7.2 24.9-19.3 24.9-169.6.1-339.1.1-508.7 0-11.9 0-19.5-8.8-19.5-23.5-.2-48.6-.1-97.3 0-145.9 0-1.7.5-3.4.8-5.2.7.1 1.6.1 2.5.2m582.9-.1v142.7c0 16.2 4.7 22.6 16.8 22.6h506.9c12.1 0 16.8-6.3 16.8-22.6V291.5c0-3.9.3-7.9.4-11.8.8-.1 1.5-.1 2.3-.2.3 3.1.8 6.2.8 9.3 0 46.3.1 92.7 0 139 0 17.4-6.8 26.5-19.9 26.5H738.8c-12.1 0-19.7-8.5-19.8-23.1-.2-49-.1-98.1 0-147.1 0-1.4.5-2.9.7-4.3 1-.1 1.9-.1 2.8-.1m544.2 482.1v147.4c0 18.2-6.7 27.1-20.3 27.1H739.5c-12.7 0-20.3-8.4-20.3-23.6-.2-48.6-.1-97.3 0-145.9 0-1.7.6-3.4 2.8-5.2.2 3.8.6 7.6.6 11.4v130.9c0 17 4.6 23.2 17.3 23.2h506c12.7 0 17.3-6.1 17.3-23.1V761.9c1.1-.1 2.3-.1 3.5-.1M139.2 520.7c.2 3.9.4 7.8.4 11.7v129.7c0 17.9 4.4 23.9 17.6 23.9h505.1c13.4 0 17.8-5.9 17.9-23.6V520.8c.8-.1 1.7-.2 2.5-.3.3 2.6 1 5.3 1 7.9q.15 70.65 0 141.3c0 16.4-7.1 25.5-19.8 25.5H156.1c-12.5 0-19.9-8.7-20-24-.2-47.9-.1-95.7 0-143.6 0-2.3.6-4.7 1-7 .7 0 1.4 0 2.1.1m1126.7-.1c.3 3.1.7 6.2.7 9.3 0 46.3.1 92.7 0 139 0 17.3-6.9 26.4-20 26.4H738.8c-12.4 0-19.7-8.9-19.8-24.3-.2-47.9-.1-95.7 0-143.6 0-2.2.4-4.4 2.7-6.8.3 3.7.8 7.4.8 11 .1 43.6 0 87.3 0 130.9 0 17.7 4.4 23.6 17.8 23.6h505.1c13.2 0 17.6-6 17.6-23.9V532.5c0-3.9.3-7.8.4-11.8 1-.1 1.7-.1 2.5-.1" style="fill:#f2f3fa"/><path d="M1046.5 173.5c-14.8-2.4-19.7-6.3-19.1-17.9 1.2-23.3 14.7-13.2 25-14.7 0 11.9.3 23.8-.2 35.6-.1 2.6-3.1 5.3-5.2 7.2-1 .9-2.9.6-4.3.2-3.9-1-7.7-2.4-11.6-3.6 3.5-1.3 7.1-2.5 10.6-4 1.7-.6 3.3-1.8 4.8-2.8m-8.2-7.7h3.4c1.6-3.4 4.7-7.1 4.5-10.2-.3-3.4-3.8-6.3-5.9-9.4-2.1 3.1-5.5 5.9-5.9 9.3-.5 3.1 2.4 6.9 3.9 10.3" class="st5"/><path d="M848.4 850.6c-.4-1.9-.8-3.9-1.1-5.8-.3-2.1-.5-4.1-.8-7.1-4.8 3.6-2.5 17.4-10 12-3.4-2.5-4-11.5-7.6-17.7-.5 6.2-.9 12.3-1.4 18.5-.6 0-1.3-.1-1.9-.1v-31.9h7.5c1.5 7.6 2.9 14.9 4.3 22 7.6-4.1-.8-24.9 13.3-22v32.1c-.8-.1-1.6 0-2.3 0m103.1-696.2c.4 14.6-5 18.6-13.2 17.8-8.3-.8-11.8-7.3-11.8-17.7 0-3.5-.1-6.9 0-10.4.5-11.2 4.3-16.4 12.3-16.9 9.4-.5 12.1 2.5 14.1 18.2-3.2-2.6-5-4.3-7-5.7-2.6-1.8-5.4-5-7.8-4.5-1.9.3-4.1 5-4.8 8.2-.8 3.9-.8 8.6 0 12.5.7 3.2 2.9 7.7 4.8 8 2.4.4 5.2-2.7 7.8-4.6 2-1.4 3.8-3.3 5.6-4.9m181 5.6c1.6 1.7 3 3.2 4.4 4.7-6 8.7-13.1 10-18.4 3.8-4.6-5.5-5-18.1-.8-24.2 4.3-6.2 11.7-6.8 16.6-1.2 5.3 6 4.8 12.7-1.8 16.9m-107.8-3.8c-2.8 1.7-5.1 3.1-7.7 4.7 2.3 1.1 4.2 2.1 6.7 3.3-4.4 9.2-10.4 9.9-16.2 6.4-6.1-3.6-8.4-11.9-5.7-19.3 1.9-5.2 7-11 11.1-11.6 7.4-1.2 11.3 6 11.8 16.5" style="fill:#32325a"/><path d="M977.8 144.5c.5 8.3 1 16.5 1.5 26-4.8.3-11.3 1.6-17.6.8-2.1-.2-5.7-5.7-5.5-8.3.3-3.5 3.1-7.7 5.7-9.7 2.2-1.7 5.7-.7 8.6-.8.2-1.1.5-2.2.7-3.3-2.2-.7-4.5-2-6.7-1.9s-4.3 1.7-8.8 3.6c7.5-13.7 11-14.2 22.1-6.2zm92.3 27.9c-7.7.2-12.8-6-13-15.9-.2-9.6 5-17 12.2-17.4s12.7 6.6 12.9 16.3c.1 10.2-4.6 16.8-12.1 17m8.8-15.8c-4.2-4.7-6.7-9.7-8.9-9.5s-5.7 5.3-5.9 8.5c-.2 2.9 3.2 8.1 5.5 8.6 2.1.5 4.9-3.8 9.3-7.6m-245.2-20.2c-3.1-.5-5-.3-6.5-1.1-1.3-.7-2.3-2.5-3.5-3.9 1.4-1.3 2.7-3.8 4.1-3.8 7-.4 13.9-.2 20.9-.2.5 1.1.9 2.2 1.4 3.3-2.7 2.3-5.5 4.6-9.4 8-.5 9.2-1.2 20.8-2 32.3 0 .4-2.6.4-4.9.7-.1-11.8-.1-23-.1-35.3" class="st7"/><path d="M872.2 156.3c-.1 9.9-5.3 16.3-12.9 16.1-7.7-.2-12.3-6.5-12.2-16.8.1-9.8 5.4-16.7 12.7-16.5 7.1.2 12.5 7.6 12.4 17.2m-14 10c1.2-.1 2.3-.2 3.5-.2 1.3-3.5 4-7.4 3.5-10.5-.5-3.4-3.9-6.1-6.1-9.1-2 3.3-5.3 6.4-5.6 9.9-.2 3 3 6.6 4.7 9.9m29.2-27.2c7.1-.3 12.8 6.9 12.9 16.4.2 10-4.7 16.7-12.3 16.9-7.8.2-12.7-6-12.8-16-.1-9.9 4.9-17 12.2-17.3m.7 2.9c-3.3 6.7-6.5 10.3-6.3 13.6s3.6 6.2 5.7 9.3c2.1-2.9 5.6-5.6 5.9-8.8.2-3.3-2.5-7.1-5.3-14.1" style="fill:#363459"/><path d="M1149.5 158.8c-2.3-3.4-5.7-6.4-6.6-10.4-.4-1.9 3.6-7.9 5.8-8.1 4.3-.4 8.8 2 13.2 3.2-.2 1.7-.5 3.5-.7 5.2-4-.6-7.9-1.1-11.9-1.7l-.6 2.7c2.2 1.1 4.8 1.5 6.5 3.3 2.8 3 5.1 6.8 7.7 10.3-3.2 3-6.3 8.2-9.7 8.6-3.9.4-8-3.4-12-5.4.2-1.3.4-2.7.6-4l6.3-1.5c2.5 1.5 4.9 3 7.4 4.4.3-1.4.6-2.8 1-4.2-2.6-.7-4.8-1.6-7-2.4" class="st7"/><path d="M977.8 144.5v.1c2.7-4.1 5.2-8.5 8.2-12 1.2-1.4 4.7-1.8 5.5-.6 2.5 3.6 4.2 8.2 6.3 12.5-7.6 7.2-7.6 7.2 0 25.1-9.9 3.9-12.5 2-12.1-11 .3-8.4-1.7-12.9-7.9-14.1" class="st9"/><path d="M926.5 368.8c-.7-6.2-1.3-12.4-2-18.6-1-.2-2-.3-3-.5l-3.3 19.2c-.8 0-1.6 0-2.3-.1-.6-6.2-1.3-12.4-1.9-18.6-1.1-.1-2.1-.2-3.2-.3-.9 6.2-1.7 12.5-3 21.7-5.5-9.4-2.3-17.3-4.1-26.4 7.7 0 14.3-.5 20.9.3 1.9.2 4.7 3.7 5.1 6.3.8 5.3.2 11 .2 16.5-1 .2-2.2.3-3.4.5" class="st10"/><path d="M320.9 586.3c-4-.6-8.3-1.3-12.5-1.9.2 6.2.3 12.4.5 18.6 4-1.2 8-2.4 13-3.8-.4 6.6-2.7 10.4-8.8 10.7-8.4.5-10.5-6.1-10.7-15.2-.3-12.1 2.5-17.5 9.6-17.8 6.9-.4 8.6 1.8 8.9 9.4" class="st11"/><path d="M417.9 617.8h-14.4l-.3-2.4c3.5-.8 7.1-1.6 10.6-2.4.4-1 .8-1.9 1.2-2.9-8.8.1-16.3-1.6-14.7-15.3.9-7 2.3-7.5 17.5-7.6.1 10.1.1 20.2.1 30.6m-1.7-19.4c-2.7-3.3-4.7-7.3-6-7-2.1.5-3.9 3.9-5.8 6.1 1.7 2.4 3.2 6 5.3 6.9 1.3.6 3.6-3.1 6.5-6" class="st5"/><path d="M953.4 364.2c.2-1.7.7-3.4.7-5.1.1-11.3 2.6-14.5 11.1-13.5 2.2.3 4.4.5 7.4.8v13.9c0 19.5-.5 20.1-15.8 14.4 3.7-1.1 7.5-2.1 13-3.7-7-3-11.8-5-16.5-7zm16.4-7.8c-3-2.9-4.9-6.2-6.5-5.9-1.8.3-4.7 4.4-4.4 6 .5 2.8 2.8 5.9 4.9 6.8 1 .4 3.2-3.6 6-6.9" class="st9"/><path d="M923.3 598.9c-2.6 3.6-4.8 8.9-8 10.3-5.1 2.3-10.7 1.4-13-7.1-2.6-9.7-.2-22.8 5.1-24.5 6.3-2.1 12.5-1.7 14.2 9.4.1.7 1.1 1.2 1.7 1.8-2.4-1.4-4.8-3.1-7.4-4-2.4-.9-5-.8-7.6-1.2 0 6.5-.1 13-.1 19.5 2.5-.3 5.1-.3 7.6-.9s5-1.9 7.5-2.9z" class="st12"/><path d="M359.3 586.6c1-3.8 1.9-6.8 2.7-9.9.7.2 1.4.4 2.2.6v31c-13.9 2.3-17.5.3-17.8-9.7-.3-9.1 3.2-12.5 12.9-12m2.9 10.9c-3-2.9-5.5-6.6-6.4-6.1-2 1.3-4.1 4.6-4.5 7.5-.2 1.5 3.1 5.4 4.8 5.4 1.7.1 3.4-3.5 6.1-6.8" class="st13"/><path d="M960.4 849.8c-3 .3-6.6 1.1-10.2.8-2.3-.2-5.2-1.6-6.5-3.8-.8-1.4.7-5.2 1.1-8 .4-3.2-.2-7.8 1.2-9.2 2-2 5.5-2.7 8-1.9 1.9.7 3.9 4.3 4.6 7.1 1 4.7 1.2 9.8 1.8 15m-6.5-13.7c-.1-1.2-.2-2.3-.3-3.5-2 .4-3.9.8-5.9 1.2.1.8.2 1.5.2 2.3zm-.7-472.2c-3.4 5.1-15.5 6.9-17.7 2.2-1-2-1.2-6.6-.2-8 2.9-3.9-1.7-14.5 7.1-13.2 4.9.7 7.2 3 7.7 9.7.2 3.3 2.2 6.3 3.4 9.5-.1.1-.3-.2-.3-.2m-14.4-12.2c.1.9.3 1.8.4 2.7l6-.9c-.2-1.2-.3-2.4-.5-3.6-2 .7-4 1.3-5.9 1.8" class="st14"/><path d="M359.4 350.7c.2 2.6.3 5.1.5 8.1-4.1.3-7.7.6-11.2.9v2.6h9.6c.3.9.6 1.7.9 2.6-3.1 1.3-6.9 4.6-9.1 3.3-3-1.8-6.6-7.1-6.6-11s3.4-9.9 6.4-11.3c2.5-1.2 6.4 3 9.7 4.7-.1 0-.2.1-.2.1" class="st7"/><path d="M920.7 844.3c-2.5 8.7-8 8-11.5 5.2-2.6-2.2-5.1-9.6-4.2-13.1 1.1-4 5.9-8.3 9.3-8.7 5.6-.6 7.6 5.4 7.2 13.1-4.2.4-8 .7-11.8 1v2.5z" class="st11"/><path d="M993.6 358.9c-4.3.3-7.9.5-11.6.8v2.4h11.1c-2.7 8.5-8.1 8.2-11.6 5.4-2.7-2.1-5.2-9.5-4.4-13.1 1-4 5.8-8.4 9.2-8.9 5.8-.7 7.9 5.2 7.3 13.4" class="st9"/><path d="M1086.9 170.4v-29c3.8-.3 7.3-.8 10.9-.7 1.1 0 2.5 1.4 3.1 2.7.3.7-.6 3.6-1.1 3.7-9.5.8-6.2 10.3-7.2 17.2-.4 2.8-2.3 5.3-3.6 7.9z" class="st15"/><path d="M985.1 836.4c1-7.6 5.1-10.9 10-8.8 3.3 1.4 5.6 6.5 8.4 9.9-.5 1-1 2.1-1.6 3.1-3.8.4-7.7.7-11.5 1.1 0 .8-.1 1.6-.1 2.3h9.9c.3.9.6 1.9.8 2.8-2.5 1.3-5.6 4.4-7.5 3.5-3.2-1.5-5.7-5.7-8.5-8.7.1-1.6.1-3.4.1-5.2" class="st16"/><path d="m359.4 350.7.1-.1c1.8-1.7 3.5-3.5 5.8-5.7 1.7 2.1 3.6 4.4 4.3 5.2 5.5-1.7 10.2-3.1 14.8-4.5v4.1c-2 0-5.8-.3-5.9.2-.8 5.7-.9 11.5-1.3 18.1-1.2-1.1-3.7-3.4-6.1-5.5-2.3 2.1-4.9 4.5-7.3 6.7.7-6.4 1.4-11.4 1.4-16.4 0-.8-3.8-1.4-5.8-2.1" class="st13"/><path d="M985.1 836.4v5.3c-1.9 2.9-3.8 5.8-7 10.8-.6-5.1-.8-8.8-1.6-12.2-.7-2.8-2.2-5.4-3.4-8-1.4 2.8-3.3 5.3-4.1 8.4-.8 3-.5 6.5-.6 9.7-1.2.1-2.3.2-3.5.3-.4-7.3-.8-14.6-1.2-21.7 8.5-2.5 15.8-4.1 19.1 8.6.8-.4 1.6-.8 2.3-1.2" class="st10"/><path d="M1043.9 827.6v21.8c-16.3 1.6-19-2-13.4-22.2.6 3.2.9 6.6 1.8 9.7s2.2 5.9 3.4 8.9c1.5-3 3.3-5.9 4.3-9.2.8-2.8.7-6.1.9-9.2 1 0 2 .1 3 .2M380.1 585.1c4.9 1.9 11.3 2 14.5 6.3 2.5 3.3 1.1 11.8 1.4 18-1.2.1-2.4.2-3.7.3-.3-4.1-.2-8.3-1-12.2-.5-2.4-2.4-4.2-3.6-6.3-1.4 2.1-3.5 3.8-4 6.2-.8 3.9-.5 8.2-.7 12.3-1 0-1.9-.1-2.9-.1z" class="st13"/><path d="M1159.8 834.1c-2.6-.7-5.1-1.4-7.7-2.1-.2.8-.5 1.6-.7 2.4 2.3 1.2 5 1.7 6.7 3.7 1.6 1.9 2.1 5.5 3 8.3-3.6 1.4-7.2 3.1-10.9 3.7-.6.1-1.9-4.3-2.5-6.8-.4-1.5-.3-3.4-.1-5 .5-3.6 1.1-10 2-10.1 3.5-.4 7.2 1.2 10.8 2.1-.1 1.2-.4 2.5-.6 3.8m-68.8-482c-4.2-.7-6.9-1.2-9.7-1.7-.1.6-.3 1.3-.4 1.9 1.1.7 2.5 1.2 3.4 2.3 2.3 2.7 4.4 5.6 6.6 8.5-3.1 1.9-6.1 5.2-9.2 5.4-3.9.3-7.4-1.5-3.9-9 1.5-3.3-.3-9.1 1-12.9.5-1.5 5.3-1 8.1-.4 1.2.1 2.1 2.8 4.1 5.9M910.6 128.4v42.3c-.7.7-1.4 1.3-2.1 2-1.4-2.3-4-4.5-4.1-7-.5-10.7-.5-21.6 0-32.3.1-2.4 2.7-4.6 4.1-7 .7.6 1.4 1.3 2.1 2" class="st12"/><path d="M333.7 609.9c-5.7.4-8.7-4.2-8.8-11.7s3.1-12.1 9.2-12.1c6.1-.1 9.4 4.4 9.4 11.9.1 7.4-3 12-9.8 11.9m-6.1-11.8c3.1 3.1 5 6.6 6.6 6.3 1.8-.3 4.4-4.1 4.3-6.3 0-2.3-2.6-6.1-4.3-6.5-1.5-.3-3.5 3.3-6.6 6.5m719 11.9c-5 .5-8.2-3.8-8.4-11.4-.2-7.5 2.7-12.2 8.9-12.5 6.1-.2 9.5 4 9.7 11.5.1 7.4-2.8 12.2-10.2 12.4m7.5-12.6c-3.2-2.8-5.4-6.2-6.9-5.8-1.7.5-4 4.5-4 6.8.1 2.2 2.9 5.8 4.6 5.9 1.6.1 3.4-3.5 6.3-6.9" class="st13"/><path d="M1041.2 354.8c1.5-1.3 2.9-3 4.5-3.9 3.7-2 7.7-5.5 11.3-4.8 2.3.4 5.6 6.9 5.6 10.7s-3 10.4-5.3 11c-3.5.8-7.6-2.4-11.4-4.4-1.7-.9-3.1-2.8-4.7-4.2zm5.6 2.3c3.2 3.2 5.4 6.9 6.7 6.4 2.1-.8 4.5-4.1 4.9-6.8.3-1.8-2.8-6.4-4.3-6.3-2 .2-4 3.5-7.3 6.7m64.8 479.8c1.5-1.3 2.9-3 4.5-3.9 3.7-2 7.7-5.5 11.3-4.8 2.3.4 5.6 6.9 5.6 10.7s-3 10.4-5.3 11c-3.5.8-7.6-2.4-11.4-4.4-1.7-.9-3.1-2.8-4.7-4.2zm19.9 2.5c-3.4-3.4-5.3-6.7-7.3-6.9-1.5-.1-4.7 4.3-4.4 6.1.4 2.7 2.8 6.1 4.8 6.9 1.3.6 3.6-3 6.9-6.1" class="st11"/><path d="M923.3 598.9v.3c0-3.5 0-7-.1-10.5 1.4-.1 2.9.2 4.1-.5 5.7-3.5 11.6-4.1 13.9 4.6 1.1 4.3-.8 13.3-3.4 15.4-5.3 4.1-11.5 2.9-13.7-7.3-.1-.7-.5-1.4-.8-2m10.2-11.1c-2.4 4.7-4.7 7.2-4.6 9.6.1 2.5 2.4 4.9 3.7 7.4 1.8-2.2 4.5-4.2 5.1-6.8.4-2.1-2-5.1-4.2-10.2m-499.1-219c-6 .2-8.8-4.7-8.6-12.3.1-7.1 3.1-11.4 8.9-11.5 6.1-.1 9.5 4.1 9.5 11.9s-3.3 12.1-9.8 11.9m1-1.7c2.1-5 4.2-7.9 3.9-10.2-.3-2.5-2.8-4.6-4.4-6.8-1.6 2.6-4 4.9-4.4 7.8-.2 1.9 2.3 4.6 4.9 9.2" class="st17"/><path d="M492.1 352c-2.6-.6-5.1-1.3-7.7-1.9-.2.7-.4 1.4-.6 2.2 2.3 1.3 5.2 1.8 6.8 4.1 1.5 2.3 1.7 6.2 2.4 9.4l-11.4 2.1c-.2-2.4-.4-4.8-.5-7.2-.1-1.1.1-2.2.1-3.4.2-3.8.5-7.6.8-11.5 3.6.8 7.2 1.6 10.9 2.4-.4 1.2-.6 2.5-.8 3.8m-8.9 6.9c-.4 1-.8 1.9-1.3 2.9 1.8.7 3.6 1.5 5.4 2.2.2-.7.4-1.5.6-2.2-1.6-.9-3.2-1.9-4.7-2.9" class="st16"/><path d="M458.7 586.1c5.4.3 8.6 4.7 8.4 12.5-.2 7.9-3.7 11.5-9.8 11.3-6-.2-8.5-4.7-8.6-11.7-.1-7.8 3.1-12.2 10-12.1m5.6 12c-2.9-3.1-5.2-7.1-6.2-6.6-2 1.1-4.2 4.3-4.6 7.2-.2 1.6 2.9 5.6 4.6 5.7 1.6.1 3.4-3.3 6.2-6.3" class="st17"/><path d="M514.9 593.1c-2.5-.6-5.1-1.3-7.6-1.9l-.6 2.1c2.5 1.5 5.6 2.2 7.4 4.6 1.4 1.8 1.3 5.7 1.8 8.7-4 .6-8 1.3-11.9 1.9-.2-2.2-.5-4.4-.5-6.6 0-1.1.7-2.1.8-3.2.1-3.8 0-7.6 0-11.4 3.8.4 7.5.9 11.3 1.3-.3 1.4-.5 2.9-.7 4.5m-4.7 12.2c.2-.8.5-1.5.7-2.3l-5.1-3c-.3.9-.6 1.8-.8 2.8 1.7.9 3.4 1.7 5.2 2.5m552.4 228.8c-2.6-.7-5.1-1.4-7.7-2.1-.2.9-.5 1.8-.7 2.7 2 .9 4.5 1 5.9 2.8 1.8 2.3 2.7 5.8 4 8.8-3.8 1.3-7.7 3.5-11.5 3.6-1.7 0-6.3-3.8-.8-7.5.3-.2-.3-2.2-.2-3.3.3-3.8.7-7.5 1.1-11.3 3.6.8 7.1 1.7 10.7 2.5-.4 1.2-.6 2.5-.8 3.8m-9.2 7c-.3.9-.5 1.8-.8 2.6 1.8.9 3.5 1.8 5.3 2.7.2-.8.5-1.6.7-2.5-1.8-.9-3.5-1.9-5.2-2.8" class="st16"/><path d="M964 586.1c6.3.2 9.3 4.6 9.1 12.4-.2 7.9-3.6 11.6-9.7 11.3-5.9-.2-8.5-4.4-8.5-11.6 0-8 3.2-12 9.1-12.1m-.1 21.8c2.4-4.4 5-7.1 4.8-9.1-.4-2.9-2.9-5.2-4.5-7.8-1.7 2.5-4.3 4.7-4.7 7.6-.4 2 2.1 4.8 4.4 9.3m52.5-10c.7-8.5 4.1-12.2 10-11.8 6.3.5 8.7 5.6 8.3 13.2-.4 7.4-3.8 10.6-9.4 10.5-6.4-.1-8.6-5-8.9-11.9m16.8.1c-3.8-3.4-5.9-6.6-8-6.5-1.5 0-4.1 4.3-4.1 6.7 0 2.2 2.7 6.3 4.2 6.4 2.1-.1 4.1-3.2 7.9-6.6" class="st11"/><path d="M869.9 834.3c1.4.8 3.2 1.1 4.3 2.4 2.2 2.8 3.9 6 5.8 9.1-3.2 1.6-6.4 4.5-9.6 4.6-3.4 0-5.1-1.8-3.8-8.7 2.6-14.7 4.4-18.1 11.5-11.9.6.5.8 1.9 1.7 4-3.6-.5-6.6-.9-9.5-1.3-.2.6-.3 1.2-.4 1.8m-.8 6.7c-.2 1.1-.5 2.2-.7 3.3 2.2.3 4.4.7 6.6.9 0 0 .2-1.2.3-2.6-2.1-.5-4.2-1.1-6.2-1.6" class="st12"/><path d="M1024 839.3c-.4 7.9-3.5 11.7-9.6 11.5-6.4-.2-8.8-4.9-8.6-12.6.2-7.4 3.4-11 9-11 6.2 0 9 4.4 9.2 12.1m-1.8-.1c-3.5-3.3-5.5-6.6-7.6-6.7-1.5-.1-4.6 4.5-4.4 6.3.4 2.7 2.9 6.1 5 6.8 1.4.5 3.6-3.2 7-6.4" class="st18"/><path d="M900.8 835.3c-4.8-.4-8.3-.7-11.8-1.1 0 3.2 0 6.5.1 9.7 3.5-.4 7-.8 10.6-1.2.5.5 1 .9 1.5 1.4-2.7 2.2-5.3 5.6-8.2 6.4-5.5 1.5-9.7-2.8-9.4-9.8.3-4.6 3.2-11 6.2-12.9 4.5-2.6 9.4-.5 11 7.5" class="st12"/><path d="M447.5 356.3c.6-8.2 4.1-11.6 10-11.1 5.8.5 8.3 5 8.2 12.1-.1 8-3.5 11.6-9.6 11.4-6.4-.1-8.5-5-8.6-12.4m16.4.4c-3.5-3.1-5.6-6.3-7.7-6.3-1.5 0-4.5 4.8-4.2 6.6.5 2.7 3.1 6 5.2 6.6 1.4.3 3.5-3.5 6.7-6.9" class="st18"/><path d="M1082.6 593.1c-2.6-.7-5.2-1.3-7.8-2-.2.7-.3 1.5-.5 2.2 1.6.8 3.5 1.1 4.7 2.5 2.1 2.5 3.7 5.6 5.5 8.5-3.4 1.8-6.8 4-10.3 4.9-.6.2-2.1-5.1-3-8-.4-1.3-.6-2.9-.3-4.2.6-3.5 1.2-9.8 2.2-9.9 3.5-.5 7.1 1.2 10.7 2-.5 1.4-.8 2.7-1.2 4m-9.2 6.7c-.3 1.1-.5 2.2-.8 3.3 2.3.6 4.5 1.3 6.8 1.9.2-1 .4-2 .5-3.1-2.1-.6-4.3-1.4-6.5-2.1" class="st12"/><path d="M489 597.9c-.3 7.3-2.7 11.9-9.1 12-5.7.1-8.9-3.3-9.2-10.7-.3-7.7 2.2-12.5 8.5-13 6-.4 9.2 3.4 9.8 11.7m-9.6 10c2.5-4.3 5.2-6.9 5-9-.3-2.9-2.8-5.3-4.4-8-1.7 2.4-4.3 4.6-4.9 7.4-.3 2.1 2.2 5.1 4.3 9.6" class="st11"/><path d="M1041.2 354.8v4.4c-.8 9.7-6.4 11.1-11.5 8.8-2.8-1.3-6-7.7-5.8-11.6.1-3.9 3.8-9.5 6.7-10.7 5.1-2.1 9.9.4 10.6 9.1M1033 367c2.1-4.6 4.6-7.7 4.2-9.7-.6-2.8-3.3-4.9-5.1-7.4-1.6 2.7-4 5.2-4.3 8.1-.2 2.1 2.6 4.7 5.2 9m78.6 469.9v4.4c-.8 9.7-6.4 11.1-11.5 8.8-2.8-1.3-6-7.7-5.8-11.6.1-3.9 3.8-9.5 6.7-10.7 5.1-2.2 10 .3 10.6 9.1m-8.3-8.2c-2.6 4.7-5.3 7.4-5.1 9.5.3 2.8 2.9 5.2 4.5 7.8 1.7-2.1 4.8-4 4.9-6.2.2-2.8-2.1-5.8-4.3-11.1" class="st18"/><path d="M438.3 609.2v-25.4c-3.2-1.5-5.5-2.5-7.7-3.5.1-.7.2-1.4.2-2.1h19c.1.8.2 1.5.3 2.3-2.2.8-4.4 1.6-7.1 2.6-.3 8.6-.7 17.7-1.1 26.7zm648.5 215.3v25.7c-1.1.2-2.1.5-3.2.7-.6-8.5-1.2-17-1.9-26.4-1.9-.9-4.3-2.1-6.7-3.3l.3-2.1h18.9c.2.7.3 1.5.5 2.2-2.3.9-4.6 1.8-7.9 3.2M325.2 337.1h19c.1.8.2 1.6.2 2.4-2.2.8-4.5 1.6-8 2.9v26.1c-1 .1-1.9.1-2.9.2v-24.9c-4-2.3-6.4-3.7-8.9-5.1.3-.6.4-1.1.6-1.6" class="st19"/><path d="M415.3 342.9c-3.7-1.6-5.8-2.6-8-3.6.1-.7.1-1.4.2-2.1h18.8c.2.6.4 1.2.5 1.8-2.3 1.1-4.6 2.2-7.3 3.4-.3 8.6-.6 17.4-.9 26.3-1.1-.1-2.2-.1-3.3-.2z" class="st20"/><path d="M999.2 577.9h18.6c.1.7.2 1.4.3 2-2.4 1.1-4.9 2.3-7.5 3.5-.3 8.6-.6 17.3-.9 26-.9 0-1.8-.1-2.7-.1V584c-3.4-1.8-5.8-3.2-8.3-4.5.1-.4.3-1 .5-1.6" class="st21"/><path d="M384.4 349.7v-4.1c1.4-2.5 2.9-5 4.4-7.6 2.4 3.3 4.6 6.4 6.8 9.6-5.7 6.3-5.9 12.1-.2 18.6-7.2 3.9-8.1 3.1-8.8-6.5-.2-3.4-1.4-6.6-2.2-10" class="st19"/><path d="M978.3 609.4V587h9.8c-2.4 3.7-5.1 6.4-6 10-1 3.8-.2 8.3-.2 12.5-1.3 0-2.4 0-3.6-.1" class="st18"/><path d="M1015.8 343v25.3h-2.2v-25.2c-3.4-1.6-5.8-2.8-8.1-3.9.1-.7.2-1.4.3-2h18c.2.5.3 1.1.5 1.6-2.4 1.1-4.6 2.2-8.5 4.2" class="st15"/><path d="M950 610.2c-4.7-6.2-5.1-24.7 0-36zm-20.6 208.1v32.1c-5.2-3.8-6-23.4 0-32.1" class="st22"/><path d="M899.6 333v35.5c-5.4-4.1-6.1-24.1 0-35.5" class="st19"/><path d="M1112.2 155.9c-1.8 5.3-3.5 10.4-5.2 15.6-.9-5.4-2.5-10.8-2.5-16.1 0-4.9 1.8-9.8 2.8-14.7 1.6 4.6 3.1 9.3 4.9 15.2" class="st21"/><path d="M858 850.6v-22.9c.9-.1 1.9-.2 2.8-.3.3 7.6.5 15.1.8 22.7-1.3.2-2.4.3-3.6.5" class="st22"/><path d="M496.7 577.4v31.8c-.7 0-1.4 0-2 .1v-31.8c.6-.1 1.3-.1 2-.1" class="st23"/><path d="M1063.7 577.4v31.8c-.6.1-1.2.1-1.8.2v-31.8c.6-.1 1.2-.2 1.8-.2" class="st24"/><path d="M935.8 850.2v-31.7c.7 0 1.4-.1 2.1-.1v31.8c-.7-.1-1.4 0-2.1 0M473.4 336.4v31.7c-.7 0-1.4.1-2.1.1v-31.8c.7.1 1.4 0 2.1 0" style="fill:#263573"/><path d="M1141 818.4v31.8c-.7 0-1.4 0-2 .1v-31.8c.7 0 1.4 0 2-.1" class="st23"/><path d="M1068.4 368.2v-31.7c.6-.1 1.3-.1 1.9-.2v31.8c-.6 0-1.2 0-1.9.1" class="st24"/><path d="M1532.6 368.1c-9.6 1.1-9.6 1.1-15.3-9.4-2.3 10.3-8.3 12.4-14.6 9.3-7.9-4-5.9-14-5.3-22.2.5-8.1 5-10.4 10.7-10.1 5.8.3 8 4.2 8.7 12.2-2-.5-3.6-.3-4-1.1-2.4-5.1-6.2-9.9-9.2-3.3-2.1 4.5-.4 12.2.2 18.3 0 .4 5.4 1.5 6.6 0 5.2-6.8 9.6-6.9 14.7.1 1.2 1.6 4.2 1.1 6.4.9.5 0 1.6-3.2 1.3-3.6-1.3-1.8-3-3-4.5-4.6-2.9-3.1-6.3-5.8-8.4-9.7-.6-1.1 2.4-5.9 4.1-8.6.4-.6 2 0 4.2.2-1.7 3.4-2.9 5.7-4.6 9.1 3.9 2.3 7.4 4.5 10.9 6.6-.7 5.4-1.3 10.7-1.9 15.9" class="st12"/><path d="M1541.4 357.7c1.5 1 2.8 2.4 4.4 3 2.8 1.1 5.8 1.7 8.7 2.5.4-1.5.7-3.1 1.1-4.6-2.1-1.3-4.5-2.2-6.2-4.1-2.9-3.4-5.4-7.4-8-11.2 3.1-2.5 6.1-6.4 9.4-7.1 5.6-1.2 8.4 3.3 8.2 11.3-4.3-2.5-8-4.7-11.8-6.9-.5 1.4-1.1 2.8-1.6 4.2 1.6 1.6 3.3 3.1 4.9 4.7 3.1 3.3 6.5 6.2 8.8 10.2.5.9-2.4 7.5-4.5 8.2-5 1.7-10.7 3-13.3-5.9-.1-1.5-.1-2.9-.1-4.3" class="st7"/><path d="m1654.5 352.1-7.8-1.8c-.2.6-.3 1.1-.5 1.7 1.3.9 2.9 1.4 3.9 2.7 2.2 2.8 4 6 6 9.1-3.2 1.7-6.4 4.6-9.6 4.6-3.2.1-7.2-2.1-3.3-8.4.3-.5-.5-2.1-.4-3.2.3-3.7.6-10.4 1.3-10.5 3.7-.4 7.5.8 11.3 1.4-.3 1.5-.6 2.9-.9 4.4" class="st12"/><path d="M1606.5 354.7c1.5-1.3 2.9-3 4.5-3.9 3.8-2 7.9-5.4 11.4-4.7 2.3.5 5.5 7.1 5.5 11 0 3.8-3.3 10.4-5.7 10.8-3.6.6-7.6-2.9-11.3-4.9-1.6-.9-3-2.4-4.4-3.7zm13.4-7.9c-2.8 4.5-5.5 7-5.3 9.1.2 2.8 2.7 5.3 4.2 8 1.8-1.9 4.8-3.7 5-5.8.2-2.9-1.9-6-3.9-11.3" class="st11"/><path d="M1606.5 354.7v4.6c-.9 9.7-6.4 11-11.5 8.7-2.8-1.3-6-7.7-5.8-11.6.1-3.9 3.8-9.5 6.7-10.8 5-2 9.9.4 10.6 9.1m-9.1 12.3c2.6-4.3 5.4-7 5.1-9-.4-2.9-2.9-5.4-4.5-8-1.7 2.5-4.4 4.7-4.9 7.5-.4 2 2.1 4.9 4.3 9.5" class="st18"/><path d="M1579.1 342.4c-4-1.2-6.2-1.9-8.4-2.5v-2.2h18.4c.1.5.2 1 .4 1.5-2.2.9-4.3 1.8-7.7 3.2v25.9c-.9.1-1.8.1-2.6.2-.1-8.5-.1-17-.1-26.1" class="st15"/><path d="M1633.4 368.2v-31.8c.7 0 1.4-.1 2.1-.1v31.9z" class="st23"/><path d="M1541.4 357.7c0 1.4.1 2.8.1 4.3-2.9 2.1-5.9 4.1-8.8 6.2.6-5.3 1.2-10.6 1.9-15.8 2.2 1.7 4.5 3.5 6.8 5.3" class="st14"/><path d="M1534.4 347.1c-1.7-3.7-3.3-7.3-4.6-10.3.3.1 2.5.8 4.8 1.4-.1 3-.2 6-.2 8.9" class="st12"/><path d="M1534.4 347.1c0-2.9.1-5.9.1-8.8 3.9 6.3 3.9 6.9-.1 8.8" class="st14"/><path d="M1554.8 594c-4.7 3.6.5 19.7-10.9 14.9-1.1-3.8-2.1-7.6-3.8-13.7-1.3 6.4-2.2 10.5-3 14.7-.7-.1-1.3-.2-2-.3v-32.1h7.1c1.5 7.3 2.8 14.1 4.2 20.9h1.7c1.4-6.8 2.8-13.5 4.3-20.9h7.7v31.6c-.9.2-1.8.5-2.7.7-.9-5.2-1.7-10.5-2.6-15.8" class="st20"/><path d="M1423.4 597c1.5 2.2 2.8 4.9 4.7 6.3 1.6 1.2 3.9 1.1 5.8.8.7-.1 2-2.9 1.8-3.2-1.1-1.9-2.5-3.6-4-5-.6-.6-2-.1-2.5-.7-2.4-3.7-4.5-7.6-6.7-11.4 3.5-2.3 6.9-6.2 10.6-6.6 5.3-.6 6.1 2 6.2 11-3.6-2.1-7.4-4.3-11.1-6.5-.5 1.4-1.1 2.9-1.6 4.3 1.7 1.5 3.3 3.7 5.2 4.3 4.8 1.5 10 3.4 8.7 11.2-.6 3.4-4.9 7.1-8 8-5.8 1.7-10.2-1.5-9.1-12.5" class="st17"/><path d="M1516.8 607.9c-4.2.6-8.5 2-12.6 1.4-3.1-.4-8.2-2.8-8.6-5.4-1.3-7.2 3.3-8.4 7.8-8.4.9 0 1.9-.5 2.8-.8-.1-1-.2-2-.2-2.9-3.2.3-6.3.7-9.5 1-.2-.9-.4-1.9-.6-2.8 3.3-1.2 6.8-3.9 9.8-3.1 2.1.5 3.9 5.5 5.2 8.9 1.2 3.3 1.5 7.2 2.2 10.8 1.2-.2 2.5-.5 3.7-.7v-27.1zm117.5.9c-3.3.3-6.8 1.6-9.9.7-2.8-.8-5.2-4-7.8-6.1 2.3-2.6 4.5-5.5 7-7.7 1-.9 2.6-.5 3.9-3.5-3.1.2-6.2.4-9.3.7-.3-.9-.5-1.7-.8-2.6 3.1-1.3 6.5-4.1 9.3-3.5 2.2.5 4.4 5.1 5.5 8.5 1.4 3.8 1.4 8.4 2.1 13.5m-52.5-9c-4.6.3-8.3.6-12 .9 0 .8 0 1.6-.1 2.4h10c.2 1.1.5 2.2.7 3.4-3.5 1-8.1 4.3-10.3 2.5-3-2.4-5.7-8.9-5.5-13.3.2-3.4 4.8-8.4 8-9.2 6.5-1.6 8.6 4.7 9.2 13.3" class="st16"/><path d="M1704.8 601.1c-3.6 2.9-7 7.3-10.9 8.4-6.1 1.6-9.1-4.1-9-11.6.1-7.6 3.4-13.1 9.2-11.4 3.9 1.1 7.2 5.8 10.7 8.9zm-4.2-2.8c-2.8-3.2-5.1-7.3-6.1-6.8-2.1 1-4.3 4.2-4.8 7-.3 1.6 2.7 5.7 4.5 5.9 1.6.2 3.5-3.2 6.4-6.1" class="st17"/><path d="M1671.7 609.9c-5.2.4-8.3-4.1-8.4-11.7s3.1-12.1 9.2-12.2 9.4 4.3 9.4 11.9c.1 7.5-3.1 12-10.2 12m7.5-11.1c-2.9-3.5-4.6-7.2-6.3-7.2-1.6 0-4.4 3.7-4.5 6s2.2 6.2 4 6.7c1.5.5 3.6-2.8 6.8-5.5" class="st13"/><path d="M1463.5 601.1c-3.6 2.9-7 7.3-10.9 8.4-6.1 1.6-9.1-4-9-11.6s3.3-13.1 9.2-11.4c3.9 1.1 7.2 5.8 10.7 8.9zm-10.9-13.3c-2.2 4.9-4.4 7.6-4.3 10 .1 2.5 2.6 4.7 4 7 1.7-2.4 4.4-4.5 4.8-7.2.4-2.1-2.1-4.9-4.5-9.8m30 14.7c-1.5 8.3-6.9 8.9-11.5 6.6-2.6-1.3-5.7-7.5-5.4-11.1.3-4.1 3.5-9.7 6.5-11.3 4.5-2.4 9.1-.2 10.4 6.5-4.3.6-8.3 1-12.3 2-.2 0 .1 7 .5 7 3.7.5 7.4.3 11.8.3" class="st17"/><path d="M1722.9 594.9c2.8 2.3 5.7 4.3 8.2 7.1.4.5-1.2 6-2.3 6.3-3.2.9-7 1.5-10 .2-3.2-1.4-4.4-5 0-7.6 2.2 1.5 4.5 3 6.7 4.5.3-1.2.7-2.5 1-3.7-2.3-.6-4.6-1.2-7-1.8-.5-4.1-2.2-10.9-1.1-11.8 4.1-3.5 8.9-4 12.4 5.2-2.7-.7-4.2-1-5.6-1.4-1.3-.1-2.6-.1-3.9-.2.5 1.1 1 2.2 1.6 3.2" class="st13"/><path d="M1599.2 584.1c0-.3.4-3.5.7-6.7.7-.1 1.4-.1 2.1-.2v33.3c-4.8-1.6-10.6-2.4-15.2-5.9-1.5-1.1-1.7-10.5.1-13.4 2.1-3.6 7-4.3 12.3-7.1m2.6 13.1c-3.9-3-6.4-6.5-8.1-5.9-1.9.7-4 4.9-4.2 7.8-.1 1.7 3.3 5.7 4.9 5.5 2.1-.2 3.9-3.6 7.4-7.4" class="st23"/><path d="M1656.9 583.2c-.4 9.1-.7 17.7-1 26.3-1 0-2-.1-3-.1-.3-8.7-.6-17.4-.9-26.3-2.3-1-4.6-1.9-6.8-2.8.1-.7.1-1.4.2-2.1h18.7c.1.7.2 1.3.3 2q-3.9 1.65-7.5 3" class="st21"/><path d="M1711 575.4v36.2c-5.1-9.1-5.1-28 0-36.2" class="st22"/><path d="M1516.8 607.9v-29.2h3.2c.1 9.7.1 19.5.1 29.2z" class="st23"/><path d="M1038.3 165.8c-1.4-3.4-4.3-7.2-3.9-10.3.4-3.4 3.8-6.2 5.9-9.3 2.1 3.1 5.6 6 5.9 9.4.3 3.1-2.8 6.7-4.5 10.2zm40.6-9.2c-4.4 3.9-7.2 8.1-9.4 7.7-2.3-.5-5.6-5.8-5.5-8.6.2-3.2 3.7-8.4 5.9-8.5 2.4-.3 4.8 4.6 9 9.4" class="st26"/><path d="M858.2 166.3c-1.7-3.3-4.8-6.8-4.6-9.9.3-3.5 3.6-6.6 5.6-9.9 2.1 3 5.5 5.7 6.1 9.1.5 3.1-2.2 7-3.5 10.5-1.3 0-2.5.1-3.6.2m29.9-24.3c2.8 7 5.6 10.8 5.3 14.2-.3 3.2-3.8 5.9-5.9 8.8-2-3.1-5.5-6.1-5.7-9.3-.2-3.4 2.9-7 6.3-13.7" style="fill:#e4ecf0"/><path d="M1149.5 158.8c2.2.9 4.5 1.7 6.7 2.6-.3 1.4-.6 2.8-1 4.2-2.5-1.5-4.9-3-7.4-4.4.6-.9 1.1-1.7 1.7-2.4" class="st0"/><path d="M416.2 598.4c-3 2.9-5.3 6.6-6.5 6.1-2.1-.9-3.6-4.5-5.3-6.9 1.9-2.2 3.6-5.6 5.8-6.1 1.3-.4 3.3 3.5 6 6.9" class="st26"/><path d="M969.8 356.4c-2.8 3.3-5 7.4-6 6.9-2.1-.9-4.4-4.1-4.9-6.8-.3-1.6 2.7-5.7 4.4-6 1.6-.3 3.5 3 6.5 5.9" class="st28"/><path d="M923.3 588.7c0 3.5 0 7 .1 10.5-2.5 1-4.9 2.2-7.5 2.9-2.5.6-5.1.6-7.6.9 0-6.5.1-13 .1-19.5 2.5.4 5.1.3 7.6 1.2s4.8 2.6 7.3 4" class="st0"/><path d="M362.2 597.5c-2.8 3.3-4.4 6.8-6.1 6.8s-5-3.9-4.8-5.4c.4-2.9 2.4-6.2 4.5-7.5.9-.5 3.5 3.2 6.4 6.1" class="st28"/><path d="M953.9 836.1h-6c-.1-.8-.2-1.5-.2-2.3 2-.4 3.9-.8 5.9-1.2.1 1.2.2 2.3.3 3.5m-15.1-484.4c2-.6 3.9-1.1 5.9-1.7.2 1.2.3 2.4.5 3.6l-6 .9c-.2-.9-.3-1.9-.4-2.8M327.6 598.1c3.1-3.2 5.1-6.8 6.6-6.5 1.8.4 4.3 4.1 4.3 6.5 0 2.2-2.6 6-4.3 6.3-1.6.3-3.5-3.2-6.6-6.3m726.5-.7c-2.9 3.4-4.7 7-6.3 6.9-1.7-.1-4.5-3.7-4.6-5.9-.1-2.4 2.2-6.3 4-6.8 1.5-.4 3.7 2.9 6.9 5.8" class="st0"/><path d="M1046.8 357.1c3.3-3.2 5.3-6.5 7.3-6.6 1.5-.1 4.6 4.5 4.3 6.3-.4 2.7-2.9 6-4.9 6.8-1.3.4-3.5-3.3-6.7-6.5m84.7 482.3c-3.3 3.1-5.6 6.7-6.9 6.2-2.1-.8-4.5-4.2-4.8-6.9-.2-1.8 2.9-6.3 4.4-6.1 2 .1 3.9 3.4 7.3 6.8" class="st26"/><path d="M933.5 587.8c2.2 5 4.6 8.1 4.2 10.1-.5 2.7-3.3 4.6-5.1 6.8-1.3-2.4-3.6-4.8-3.7-7.4-.1-2.2 2.2-4.7 4.6-9.5M435.4 367.1c-2.6-4.6-5.2-7.2-4.9-9.2.4-2.8 2.8-5.2 4.4-7.8 1.6 2.3 4.1 4.3 4.4 6.8.3 2.3-1.8 5.1-3.9 10.2" class="st28"/><path d="M483.2 358.9c1.6 1 3.1 1.9 4.7 2.9-.2.7-.4 1.5-.6 2.2-1.8-.7-3.6-1.5-5.4-2.2.4-.9.8-1.9 1.3-2.9" class="st0"/><path d="M464.3 598.1c-2.8 3-4.7 6.4-6.3 6.3-1.7-.1-4.8-4.1-4.6-5.7.4-2.8 2.6-6.1 4.6-7.2 1.1-.5 3.5 3.5 6.3 6.6" class="st28"/><path d="M510.2 605.3c-1.7-.8-3.5-1.7-5.2-2.5.3-.9.6-1.8.8-2.8l5.1 3c-.3.8-.5 1.6-.7 2.3m543.2 235.8c1.7.9 3.5 1.9 5.2 2.8-.2.8-.5 1.6-.7 2.5-1.8-.9-3.5-1.8-5.3-2.7.2-.9.5-1.8.8-2.6" class="st0"/><path d="M963.9 607.9c-2.3-4.5-4.8-7.3-4.5-9.3.5-2.8 3.1-5.1 4.7-7.6 1.6 2.6 4.1 4.9 4.5 7.8.4 2-2.2 4.7-4.7 9.1m69.3-9.9c-3.8 3.3-5.9 6.5-7.9 6.5-1.5 0-4.3-4.1-4.2-6.4 0-2.4 2.6-6.6 4.1-6.7 2.1.1 4.2 3.3 8 6.6" class="st26"/><path d="M869.1 841c2.1.5 4.2 1 6.2 1.6-.2 1.4-.3 2.6-.3 2.6-2.2-.2-4.4-.6-6.6-.9.2-1.1.4-2.2.7-3.3" class="st0"/><path d="M1022.2 839.2c-3.3 3.2-5.5 6.9-6.9 6.4-2.1-.7-4.6-4.1-5-6.8-.3-1.8 2.9-6.4 4.4-6.3 2 .1 4 3.4 7.5 6.7M463.9 356.7c-3.2 3.4-5.3 7.2-6.7 6.8-2.1-.6-4.7-3.9-5.2-6.6-.3-1.8 2.7-6.6 4.2-6.6 2.1.1 4.2 3.3 7.7 6.4" class="st29"/><path d="M1073.4 599.8c2.2.7 4.4 1.5 6.6 2.2-.2 1-.4 2-.5 3.1-2.3-.6-4.5-1.3-6.8-1.9.1-1.2.4-2.3.7-3.4" class="st0"/><path d="M479.4 607.9c-2.2-4.6-4.6-7.5-4.3-9.5.5-2.8 3.1-5 4.9-7.4 1.6 2.6 4.1 5.1 4.4 8 .3 2-2.4 4.6-5 8.9" class="st26"/><path d="M1033 367c-2.6-4.3-5.4-6.9-5.2-8.9.3-2.9 2.8-5.4 4.3-8.1 1.8 2.4 4.5 4.5 5.1 7.4.4 1.9-2.1 4.9-4.2 9.6m70.3 461.7c2.2 5.3 4.5 8.3 4.4 11.1-.1 2.2-3.1 4.1-4.9 6.2-1.6-2.6-4.2-5-4.5-7.8-.3-2.1 2.4-4.8 5-9.5" class="st29"/><path d="M1619.9 346.8c2 5.4 4 8.5 3.8 11.3-.2 2.1-3.2 3.9-5 5.8-1.5-2.6-4-5.2-4.2-8 0-2.1 2.7-4.6 5.4-9.1" class="st26"/><path d="M1597.4 367c-2.2-4.6-4.7-7.5-4.3-9.5.5-2.8 3.2-5 4.9-7.5 1.6 2.6 4.2 5.1 4.5 8 .3 1.9-2.5 4.6-5.1 9" class="st29"/><path d="M1700.6 598.3c-2.9 2.9-4.8 6.3-6.4 6.1-1.7-.2-4.7-4.2-4.5-5.9.4-2.8 2.7-6 4.8-7 1-.4 3.3 3.6 6.1 6.8" class="st28"/><path d="M1679.2 598.8c-3.2 2.7-5.4 6-6.9 5.5-1.7-.5-4.1-4.5-4-6.7.1-2.3 2.9-6 4.5-6 1.8 0 3.5 3.7 6.4 7.2" class="st0"/><path d="M1452.6 587.8c2.4 4.8 4.9 7.7 4.5 9.8-.4 2.7-3.1 4.8-4.8 7.2-1.4-2.3-3.8-4.6-4-7-.1-2.4 2.1-5.1 4.3-10" class="st28"/><path d="M1719.5 599.9c2.3.6 4.6 1.2 7 1.8-.3 1.2-.7 2.5-1 3.7-2.2-1.5-4.5-3-6.7-4.5.2-.3.4-.6.7-1m3.4-5c-.5-1-1.1-2.1-1.6-3.1 1.3.1 2.6.1 3.9.2-.8.9-1.6 1.9-2.3 2.9" class="st2"/><path d="M1601.8 597.2c-3.5 3.7-5.4 7.1-7.4 7.4-1.6.2-5-3.7-4.9-5.5.2-2.9 2.3-7 4.2-7.8 1.7-.6 4.2 2.9 8.1 5.9" class="st29"/></svg>