<?xml version="1.0" encoding="utf-8"?>
<!-- Generator: Adobe Illustrator 25.0.0, SVG Export Plug-In . SVG Version: 6.00 Build 0)  -->
<svg version="1.1" id="Ebene_1" xmlns="http://www.w3.org/2000/svg" xmlns:xlink="http://www.w3.org/1999/xlink" x="0px" y="0px"
	 viewBox="0 0 1920 1080" style="enable-background:new 0 0 1920 1080;" xml:space="preserve">
<style type="text/css">
	.st0{fill:#F9FAFB;}
	.st1{fill:#FEFEFE;}
	.st2{fill:#FDFDFD;}
	.st3{fill:#F3F4FA;}
	.st4{fill:#F2F3FA;}
	.st5{fill:#393254;}
	.st6{fill:#32325A;}
	.st7{fill:#38365C;}
	.st8{fill:#363459;}
	.st9{fill:#403A5F;}
	.st10{fill:#554E6C;}
	.st11{fill:#3F355A;}
	.st12{fill:#443E61;}
	.st13{fill:#474366;}
	.st14{fill:#3E3C62;}
	.st15{fill:#2A2D59;}
	.st16{fill:#3B3A62;}
	.st17{fill:#413D63;}
	.st18{fill:#37325B;}
	.st19{fill:#4E4361;}
	.st20{fill:#434068;}
	.st21{fill:#372A50;}
	.st22{fill:#535170;}
	.st23{fill:#342756;}
	.st24{fill:#45274B;}
	.st25{fill:#263573;}
	.st26{fill:#EAEEEC;}
	.st27{fill:#E4ECF0;}
	.st28{fill:#F0F9F7;}
	.st29{fill:#E4E8E8;}
</style>
<g>
	<path class="st0" d="M-50.6,1080c0-360,0-720,0-1080C606.3,0,1263.1,0,1920,0c0,360,0,720,0,1080C1263.1,1080,606.3,1080-50.6,1080
		z M1111.6,841.3c1.6,1.4,3,3.3,4.7,4.2c3.7,1.9,7.9,5.2,11.4,4.4c2.3-0.5,5.4-7.1,5.3-11c0-3.8-3.3-10.3-5.6-10.7
		c-3.5-0.6-7.6,2.8-11.3,4.8c-1.6,0.9-3,2.6-4.5,3.9c-0.7-8.8-5.5-11.2-10.6-9.1c-3,1.2-6.6,6.9-6.7,10.7c-0.1,3.9,3,10.3,5.8,11.6
		C1105.3,852.4,1110.8,851,1111.6,841.3z M1041.2,359.2c1.6,1.4,3,3.3,4.7,4.2c3.7,1.9,7.9,5.2,11.4,4.4c2.3-0.5,5.4-7.1,5.3-11
		c0-3.8-3.3-10.3-5.6-10.7c-3.5-0.6-7.6,2.8-11.3,4.8c-1.6,0.9-3,2.6-4.5,3.9c-0.7-8.8-5.5-11.2-10.6-9.1c-3,1.2-6.6,6.9-6.7,10.7
		c-0.1,3.9,3,10.3,5.8,11.6C1034.8,370.4,1040.4,368.9,1041.2,359.2z M384.4,349.7c0.8,3.3,2,6.6,2.3,10c0.7,9.6,1.6,10.3,8.8,6.5
		c-5.8-6.5-5.6-12.3,0.2-18.6c-2.2-3.1-4.4-6.2-6.8-9.6c-1.5,2.7-3,5.1-4.4,7.6c-4.7,1.4-9.3,2.8-14.8,4.5c-0.7-0.8-2.5-3.1-4.3-5.2
		c-2.3,2.2-4,4-5.8,5.7c-3.3-1.8-7.2-5.9-9.7-4.7c-2.9,1.4-6.4,7.3-6.4,11.3c0,3.8,3.6,9.2,6.6,11c2.2,1.3,6-2,9.1-3.3
		c-0.3-0.9-0.6-1.7-0.9-2.6c-3.2,0-6.4,0-9.6,0c0-0.9,0-1.7,0-2.6c3.6-0.3,7.1-0.6,11.2-0.9c-0.2-3-0.4-5.5-0.5-8.1
		c2,0.7,5.9,1.4,5.9,2c0,5-0.8,10-1.4,16.4c2.5-2.3,5-4.6,7.3-6.7c2.4,2.2,4.9,4.5,6.1,5.5c0.4-6.6,0.6-12.4,1.3-18.1
		C378.6,349.4,382.4,349.8,384.4,349.7z M985.1,841.7c2.8,3,5.3,7.2,8.5,8.7c1.9,0.9,5-2.2,7.5-3.5c-0.3-0.9-0.6-1.9-0.8-2.8
		c-3.3,0-6.6,0-9.9,0c0-0.8,0.1-1.6,0.1-2.3c3.8-0.4,7.7-0.7,11.5-1.1c0.5-1,1-2.1,1.6-3.1c-2.8-3.4-5.1-8.5-8.4-9.9
		c-4.9-2.1-9,1.2-10,8.8c-0.8,0.4-1.6,0.8-2.4,1.2c-3.3-12.7-10.6-11.1-19.1-8.6c0.4,7.1,0.8,14.4,1.2,21.7c1.2-0.1,2.3-0.2,3.5-0.3
		c0.2-3.3-0.1-6.7,0.6-9.7c0.8-3,2.7-5.6,4.1-8.4c1.1,2.7,2.7,5.2,3.4,8c0.8,3.4,1,7.1,1.6,12.2
		C981.4,847.5,983.2,844.6,985.1,841.7z M923.3,598.9c0.3,0.7,0.7,1.3,0.8,2c2.2,10.2,8.4,11.4,13.7,7.3c2.7-2.1,4.6-11,3.4-15.4
		c-2.2-8.6-8.2-8.1-13.9-4.6c-1.2,0.7-2.7,0.4-4.1,0.5c-0.6-0.6-1.6-1.1-1.7-1.8c-1.7-11.1-7.8-11.5-14.2-9.4
		c-5.3,1.7-7.7,14.8-5.1,24.5c2.3,8.5,7.9,9.4,13,7.1C918.5,607.7,920.7,602.4,923.3,598.9z M953.2,363.9c4.7,2,9.5,4,16.5,7
		c-5.6,1.6-9.3,2.7-13,3.7c15.3,5.6,15.8,5.1,15.8-14.4c0-4.5,0-9.1,0-13.9c-3-0.3-5.2-0.5-7.4-0.8c-8.5-1-11,2.2-11.1,13.5
		c0,1.7-0.4,3.4-0.7,5.1c-1.2-3.2-3.1-6.2-3.4-9.5c-0.4-6.7-2.8-9-7.7-9.7c-8.8-1.3-4.2,9.3-7.1,13.2c-1,1.4-0.8,6,0.2,8
		C937.8,370.8,949.8,369,953.2,363.9z M1147.8,161c-2.1,0.5-4.2,1-6.3,1.5c-0.2,1.3-0.4,2.7-0.6,4c4,2,8.1,5.8,12,5.4
		c3.4-0.4,6.5-5.5,9.7-8.6c-2.5-3.5-4.8-7.3-7.7-10.3c-1.7-1.8-4.3-2.3-6.5-3.3c0.2-0.9,0.4-1.8,0.6-2.7c4,0.6,7.9,1.1,11.9,1.7
		c0.2-1.7,0.5-3.5,0.7-5.2c-4.4-1.2-8.9-3.6-13.2-3.2c-2.2,0.2-6.2,6.2-5.8,8.1c0.9,4,4.3,7,6.6,10.4
		C1148.9,159.5,1148.4,160.3,1147.8,161z M977.8,144.5c6.2,1.3,8.2,5.8,8,14.1c-0.4,13.1,2.2,15,12.1,11c-7.6-17.9-7.6-17.9,0-25.1
		c-2.1-4.3-3.8-8.9-6.3-12.5c-0.8-1.2-4.4-0.8-5.5,0.6c-3.1,3.5-5.5,8-8.2,12c-11-8-14.6-7.5-22.1,6.2c4.5-1.9,6.6-3.5,8.8-3.6
		c2.2-0.1,4.4,1.2,6.7,1.9c-0.2,1.1-0.5,2.2-0.7,3.3c-2.9,0.2-6.3-0.9-8.6,0.8c-2.6,2-5.4,6.1-5.7,9.7c-0.2,2.6,3.3,8.1,5.5,8.3
		c6.3,0.7,12.8-0.5,17.6-0.8C978.7,161,978.2,152.8,977.8,144.5z M1847.8,519.1c-1.9-14.4-5.7-18.5-17.3-18.5c-61,0-122,0-183.1,0
		c-108,0-215.9,0-323.9,0c-12.5,0-16.2,3.9-18.2,18.5c-1.2,3.8-3.3,7.5-3.4,11.3c-0.2,44.8-0.2,89.5-0.2,134.3
		c0,22.9,5.8,30.5,23.1,30.5c120.2,0,240.5,0,360.7,0c48.4,0,96.8,0,145.2,0c13,0,20.3-8.7,20.4-24.7c0.1-47.5,0.1-95-0.1-142.4
		C1851.2,525.1,1849,522.1,1847.8,519.1z M1305.4,278.1c-1.2,3.8-3.3,7.5-3.4,11.3c-0.2,44.8-0.2,89.5-0.2,134.3
		c0,22.9,5.8,30.5,23.1,30.5c119.7,0,239.3,0,359,0c49,0,98,0,146.9,0c13,0,20.3-8.7,20.4-24.7c0.1-47.5,0.1-95-0.1-142.4
		c0-3-2.2-6-3.4-9c-1.9-14.4-5.7-18.5-17.3-18.5c-60.4,0-120.9,0-181.3,0c-108.5,0-217.1,0-325.6,0
		C1311.1,259.6,1307.4,263.4,1305.4,278.1z M139.6,279.8c-0.9,0-1.8-0.1-2.7-0.1c-0.3,1.7-0.8,3.4-0.8,5.2c0,48.6-0.2,97.3,0,145.9
		c0.1,14.7,7.7,23.5,19.5,23.5c169.6,0.1,339.1,0.1,508.7,0c12.1,0,19.3-9.2,19.3-24.9c0.1-47.5,0.1-95,0-142.5
		c0-2.5-0.7-4.9-1.1-7.4c-0.8,0.1-1.6,0.2-2.4,0.4c0,4.1,0,8.3,0,12.4c0,42.9,0,85.7,0,128.6c0,18.5-4.3,24.2-18.3,24.2
		c-168.1,0-336.2,0-504.3,0c-13.5,0-18.1-5.8-18.1-23.3c0-43.2,0-86.5,0-129.7C139.6,287.9,139.6,283.8,139.6,279.8z M722.5,279.7
		c-0.9,0-1.8,0-2.8,0c-0.2,1.4-0.7,2.9-0.7,4.3c0,49-0.2,98.1,0,147.1c0.1,14.6,7.7,23.1,19.8,23.1c169.3,0,338.5,0,507.8,0
		c13.1,0,19.9-9.1,19.9-26.5c0.1-46.3,0-92.7,0-139c0-3.1-0.5-6.2-0.8-9.3c-0.8,0.1-1.5,0.1-2.3,0.2c-0.1,3.9-0.4,7.9-0.4,11.8
		c0,43.6,0,87.3,0,130.9c0,16.3-4.7,22.6-16.8,22.6c-169,0-337.9,0-506.9,0c-12.1,0-16.8-6.3-16.8-22.6c0-43.6,0-87.3,0-130.9
		C722.5,287.6,722.5,283.6,722.5,279.7z M1266.7,761.8c-1.2,0-2.3,0-3.5,0c0,4.1,0,8.2,0,12.4c0,43.2,0,86.5,0,129.7
		c0,17-4.6,23.1-17.3,23.1c-168.7,0-337.4,0-506,0c-12.7,0-17.3-6.1-17.3-23.2c0-43.6,0-87.3,0-130.9c0-3.8-0.4-7.6-0.6-11.4
		c-2.3,1.8-2.8,3.5-2.8,5.2c-0.1,48.6-0.2,97.3,0,145.9c0.1,15.2,7.6,23.6,20.3,23.6c169,0,337.9,0,506.9,0c13.6,0,20.3-9,20.3-27.1
		c0-45.6,0-91.1,0-136.7C1266.7,768.9,1266.7,765.4,1266.7,761.8z M139.2,520.7c-0.7,0-1.4,0-2,0c-0.3,2.3-1,4.7-1,7
		c-0.1,47.9-0.2,95.7,0,143.6c0.1,15.3,7.5,24,20,24c169.3,0,338.5,0,507.8,0c12.7,0,19.8-9.1,19.8-25.5c0.1-47.1,0.1-94.2,0-141.3
		c0-2.6-0.6-5.3-1-7.9c-0.8,0.1-1.7,0.2-2.5,0.3c0,4,0,7.9,0,11.9c0,43.2,0,86.5,0,129.7c0,17.7-4.4,23.6-17.9,23.6
		c-168.4,0-336.8,0-505.1,0c-13.2,0-17.6-6-17.6-23.9c0-43.2,0-86.5,0-129.7C139.6,528.5,139.3,524.6,139.2,520.7z M1265.9,520.6
		c-0.8,0-1.5,0-2.3,0c-0.2,3.9-0.4,7.8-0.4,11.8c0,43.2,0,86.5,0,129.7c0,17.9-4.4,23.9-17.6,23.9c-168.4,0-336.8,0-505.1,0
		c-13.4,0-17.8-5.9-17.8-23.6c0-43.6,0-87.3,0-130.9c0-3.7-0.5-7.4-0.8-11c-2.2,2.5-2.7,4.6-2.7,6.8c0,47.9-0.1,95.7,0,143.6
		c0.1,15.5,7.4,24.3,19.8,24.3c169.3,0,338.5,0,507.8,0c13.2,0,20-9,20-26.4c0.1-46.3,0-92.7,0-139
		C1266.6,526.8,1266.2,523.7,1265.9,520.6z M1046.5,173.5c-1.6,1-3.1,2.2-4.8,2.9c-3.5,1.5-7.1,2.7-10.6,4c3.9,1.2,7.7,2.6,11.6,3.6
		c1.4,0.4,3.3,0.7,4.3-0.2c2.1-2,5.1-4.7,5.2-7.2c0.6-11.8,0.2-23.6,0.2-35.6c-10.3,1.5-23.8-8.6-25,14.7
		C1026.8,167.3,1031.7,171.1,1046.5,173.5z M848.4,850.6c0.8-0.1,1.6-0.1,2.3-0.2c0-10.4,0-20.9,0-32.1c-14-2.8-5.6,17.9-13.3,22
		c-1.4-7.1-2.8-14.4-4.3-22c-2.6,0-5.2,0-7.5,0c0,10.8,0,21.4,0,31.9c0.6,0,1.3,0.1,1.9,0.1c0.5-6.2,0.9-12.3,1.4-18.5
		c3.6,6.2,4.2,15.3,7.6,17.7c7.5,5.4,5.2-8.5,10-12c0.3,2.9,0.5,5,0.8,7.1C847.6,846.8,848,848.7,848.4,850.6z M951.5,154.4
		c-1.8,1.7-3.6,3.5-5.6,5c-2.5,1.9-5.4,5-7.8,4.6c-1.9-0.3-4.1-4.8-4.8-8c-0.8-3.9-0.9-8.6,0-12.5c0.7-3.2,2.9-7.8,4.8-8.2
		c2.4-0.4,5.3,2.7,7.8,4.5c2,1.4,3.9,3.1,7,5.7c-2-15.7-4.7-18.7-14.1-18.2c-8,0.4-11.8,5.7-12.3,16.9c-0.1,3.5,0,6.9,0,10.4
		c0.1,10.4,3.6,16.9,11.8,17.7C946.5,173,952,169,951.5,154.4z M1132.5,160c6.6-4.2,7.1-10.9,1.8-16.9c-4.9-5.5-12.3-5-16.6,1.2
		c-4.2,6.1-3.8,18.7,0.8,24.2c5.3,6.3,12.3,5,18.4-3.8C1135.4,163.2,1134,161.7,1132.5,160z M1024.7,156.2
		c-0.5-10.5-4.5-17.7-11.8-16.5c-4.1,0.7-9.2,6.4-11.1,11.6c-2.7,7.4-0.5,15.7,5.7,19.3c5.8,3.5,11.8,2.8,16.2-6.4
		c-2.5-1.2-4.4-2.2-6.7-3.3C1019.6,159.3,1021.9,157.9,1024.7,156.2z M1070.1,172.4c7.6-0.2,12.3-6.8,12.1-17
		c-0.2-9.7-5.7-16.7-12.9-16.3c-7.2,0.4-12.4,7.8-12.2,17.4C1057.2,166.4,1062.3,172.6,1070.1,172.4z M833.7,136.4
		c0,12.3,0,23.6,0,35.3c2.3-0.3,4.9-0.3,4.9-0.7c0.9-11.5,1.5-23.1,2-32.3c3.9-3.3,6.7-5.7,9.4-8c-0.5-1.1-0.9-2.2-1.4-3.3
		c-7,0-13.9-0.2-20.9,0.2c-1.4,0.1-2.7,2.5-4.1,3.8c1.1,1.3,2.1,3.2,3.5,3.9C828.7,136.1,830.5,135.9,833.7,136.4z M872.2,156.3
		c0.1-9.5-5.3-17-12.4-17.1c-7.3-0.2-12.6,6.7-12.7,16.5c-0.1,10.2,4.5,16.6,12.2,16.8C866.9,172.6,872,166.1,872.2,156.3z
		 M887.4,139.1c-7.3,0.3-12.3,7.4-12.2,17.3c0.1,10,5.1,16.2,12.8,16c7.5-0.2,12.4-6.9,12.3-16.9C900.2,146,894.4,138.8,887.4,139.1
		z M926.5,368.8c1.2-0.2,2.4-0.4,3.5-0.6c0-5.5,0.6-11.2-0.2-16.5c-0.4-2.5-3.2-6-5.1-6.3c-6.5-0.8-13.2-0.3-20.9-0.3
		c1.8,9.1-1.4,17.1,4.1,26.4c1.3-9.2,2.1-15.5,3-21.7c1.1,0.1,2.1,0.2,3.2,0.3c0.6,6.2,1.3,12.4,1.9,18.6c0.8,0,1.6,0,2.3,0.1
		c1.1-6.4,2.2-12.8,3.3-19.2c1,0.2,2,0.3,3,0.5C925.2,356.4,925.9,362.6,926.5,368.8z M320.9,586.3c-0.3-7.7-1.9-9.8-8.9-9.5
		c-7.1,0.3-9.9,5.7-9.6,17.8c0.3,9.1,2.4,15.7,10.7,15.2c6-0.3,8.4-4.1,8.8-10.7c-5,1.5-9,2.6-13,3.8c-0.2-6.2-0.3-12.4-0.5-18.6
		C312.6,585.1,316.8,585.7,320.9,586.3z M417.9,617.8c0-10.3,0-20.5,0-30.7c-15.2,0.2-16.7,0.7-17.5,7.6
		c-1.7,13.7,5.9,15.4,14.7,15.3c-0.4,1-0.8,1.9-1.2,2.9c-3.5,0.8-7.1,1.6-10.6,2.4c0.1,0.8,0.2,1.6,0.3,2.4
		C408.1,617.8,412.7,617.8,417.9,617.8z M359.3,586.6c-9.7-0.5-13.2,2.9-12.9,12c0.3,10,3.9,11.9,17.8,9.7c0-10.4,0-20.7,0-31
		c-0.7-0.2-1.4-0.4-2.2-0.6C361.2,579.7,360.3,582.8,359.3,586.6z M960.4,849.8c-0.6-5.3-0.8-10.3-1.9-15c-0.7-2.8-2.6-6.4-4.6-7.1
		c-2.5-0.8-6-0.1-8,1.9c-1.4,1.4-0.8,6-1.2,9.2c-0.4,2.8-1.9,6.6-1.1,8c1.4,2.2,4.2,3.5,6.5,3.8C953.8,851,957.4,850.1,960.4,849.8z
		 M920.7,844.3c-4,0-7.5,0-10.9,0c0-0.8,0-1.6,0-2.5c3.8-0.3,7.6-0.6,11.8-1c0.4-7.8-1.6-13.7-7.2-13.1c-3.4,0.4-8.2,4.7-9.3,8.7
		c-0.9,3.5,1.5,11,4.2,13.1C912.7,852.3,918.2,853,920.7,844.3z M993.6,358.9c0.6-8.2-1.4-14.2-7.2-13.3c-3.4,0.5-8.2,4.9-9.2,8.9
		c-0.9,3.5,1.7,10.9,4.4,13.1c3.5,2.8,8.8,3,11.6-5.4c-4.3,0-7.7,0-11.1,0c0-0.8,0-1.6,0-2.4C985.6,359.5,989.3,359.2,993.6,358.9z
		 M1086.9,170.4c0.7,0.6,1.4,1.2,2.2,1.8c1.2-2.6,3.2-5.1,3.6-7.9c0.9-6.9-2.4-16.4,7.2-17.2c0.5,0,1.4-3,1.1-3.7
		c-0.6-1.3-2-2.7-3.1-2.7c-3.5-0.1-7,0.4-10.9,0.7C1086.9,151.3,1086.9,160.9,1086.9,170.4z M1043.9,827.6c-1-0.1-2-0.2-3-0.2
		c-0.3,3.1-0.1,6.4-0.9,9.2c-1,3.3-2.8,6.2-4.3,9.2c-1.1-3-2.5-5.8-3.4-8.9c-0.9-3.1-1.2-6.4-1.8-9.7c-5.6,20.3-3,23.9,13.4,22.2
		C1043.9,842.1,1043.9,834.8,1043.9,827.6z M380.1,585.1c0,9.7,0,17.1,0,24.5c1,0,1.9,0.1,2.9,0.1c0.2-4.1-0.1-8.4,0.7-12.3
		c0.5-2.4,2.6-4.2,4-6.2c1.3,2.1,3.1,4,3.6,6.3c0.8,3.9,0.7,8.1,1,12.2c1.2-0.1,2.4-0.2,3.7-0.3c-0.3-6.2,1.1-14.7-1.4-18
		C391.4,587.1,385,587,380.1,585.1z M1159.8,834.1c0.2-1.3,0.5-2.6,0.7-3.9c-3.6-0.9-7.2-2.5-10.8-2.1c-0.9,0.1-1.5,6.5-2,10.1
		c-0.2,1.6-0.3,3.5,0.1,5c0.6,2.5,1.9,6.9,2.5,6.8c3.7-0.7,7.2-2.4,10.9-3.7c-1-2.8-1.4-6.3-3-8.3c-1.7-2-4.4-2.6-6.7-3.7
		c0.2-0.8,0.5-1.6,0.7-2.4C1154.6,832.7,1157.2,833.4,1159.8,834.1z M1091,352.1c-2-3-2.9-5.7-4.1-6c-2.7-0.6-7.6-1.1-8.1,0.4
		c-1.3,3.8,0.6,9.6-1,12.9c-3.6,7.5,0,9.3,3.9,9c3.1-0.2,6.1-3.5,9.2-5.4c-2.2-2.9-4.3-5.8-6.6-8.5c-0.9-1.1-2.3-1.5-3.4-2.3
		c0.1-0.6,0.3-1.3,0.4-1.9C1084,350.8,1086.8,351.3,1091,352.1z M910.6,128.4c-0.7-0.7-1.4-1.3-2.1-2c-1.4,2.3-4,4.5-4.1,7
		c-0.5,10.7-0.5,21.6,0,32.3c0.1,2.4,2.7,4.6,4.1,7c0.7-0.7,1.4-1.3,2.1-2C910.6,156.5,910.6,142.4,910.6,128.4z M333.7,609.9
		c6.7,0.1,9.8-4.5,9.8-12c0-7.5-3.3-11.9-9.4-11.9c-6.1,0.1-9.2,4.6-9.2,12.1C325,605.7,328.1,610.3,333.7,609.9z M1046.6,610
		c7.4-0.2,10.4-4.9,10.2-12.4c-0.2-7.5-3.6-11.7-9.7-11.5c-6.2,0.3-9.1,5-8.9,12.5C1038.3,606.1,1041.6,610.5,1046.6,610z
		 M434.4,368.8c6.5,0.2,9.8-4.1,9.8-11.9c0-7.8-3.4-11.9-9.5-11.9c-5.8,0.1-8.8,4.3-8.9,11.5C425.6,364.1,428.3,369,434.4,368.8z
		 M492.1,352c0.2-1.3,0.4-2.6,0.6-3.9c-3.6-0.8-7.2-1.6-10.9-2.4c-0.3,3.8-0.5,7.6-0.8,11.5c-0.1,1.1-0.2,2.3-0.1,3.4
		c0.1,2.4,0.3,4.8,0.5,7.2c3.8-0.7,7.6-1.4,11.4-2.1c-0.7-3.2-0.9-7.1-2.4-9.4c-1.5-2.2-4.4-2.8-6.8-4.1c0.2-0.7,0.4-1.4,0.6-2.2
		C486.9,350.7,489.5,351.3,492.1,352z M458.7,586.1c-6.8,0-10.1,4.3-10,12c0,7,2.6,11.5,8.6,11.7c6.1,0.2,9.6-3.4,9.8-11.3
		C467.2,590.8,464.1,586.3,458.7,586.1z M514.9,593.1c0.2-1.5,0.5-3.1,0.7-4.6c-3.8-0.4-7.5-0.9-11.3-1.3c0,3.8,0.1,7.6,0,11.4
		c0,1.1-0.8,2.1-0.8,3.2c0,2.2,0.3,4.4,0.5,6.6c4-0.6,8-1.3,11.9-1.9c-0.6-3-0.4-6.8-1.8-8.7c-1.8-2.4-4.9-3.1-7.4-4.6
		c0.2-0.7,0.4-1.4,0.6-2.1C509.8,591.8,512.3,592.4,514.9,593.1z M1062.6,834.1c0.2-1.3,0.5-2.6,0.7-3.8c-3.6-0.8-7.1-1.7-10.7-2.5
		c-0.4,3.8-0.8,7.5-1.1,11.3c-0.1,1.1,0.5,3.1,0.2,3.3c-5.6,3.7-0.9,7.5,0.8,7.5c3.9-0.1,7.7-2.3,11.5-3.6c-1.3-3-2.2-6.5-4-8.8
		c-1.4-1.7-3.9-1.9-5.9-2.8c0.2-0.9,0.5-1.8,0.7-2.7C1057.5,832.7,1060,833.4,1062.6,834.1z M964,586.1c-5.9,0.1-9.1,4.1-9.1,12.1
		c0,7.2,2.7,11.4,8.5,11.6c6.1,0.3,9.5-3.4,9.7-11.3C973.3,590.7,970.3,586.2,964,586.1z M1016.4,597.9c0.3,6.9,2.5,11.8,8.9,11.9
		c5.6,0.1,9-3.1,9.4-10.5c0.4-7.6-2-12.7-8.3-13.2C1020.5,585.7,1017.1,589.4,1016.4,597.9z M869.9,834.3c0.1-0.6,0.2-1.2,0.3-1.9
		c2.9,0.4,5.9,0.8,9.5,1.3c-0.9-2.1-1.1-3.5-1.7-4c-7.1-6.2-8.9-2.7-11.5,11.9c-1.2,7,0.4,8.8,3.8,8.7c3.2,0,6.4-2.9,9.6-4.6
		c-1.9-3.1-3.7-6.4-5.8-9.1C873.1,835.4,871.3,835.1,869.9,834.3z M1024,839.3c-0.3-7.7-3-12.1-9.2-12.1c-5.6,0-8.8,3.6-9,11
		c-0.2,7.7,2.2,12.4,8.6,12.6C1020.6,851,1023.6,847.2,1024,839.3z M900.8,835.3c-1.5-8-6.5-10.2-11-7.4c-3,1.8-6,8.3-6.2,12.9
		c-0.4,7,3.8,11.3,9.4,9.8c2.9-0.8,5.5-4.2,8.2-6.4c-0.5-0.5-1-0.9-1.5-1.4c-3.5,0.4-7,0.8-10.6,1.2c0-3.2,0-6.5-0.1-9.7
		C892.4,834.6,895.9,834.9,900.8,835.3z M447.5,356.3c0.1,7.4,2.2,12.3,8.7,12.5c6.1,0.2,9.4-3.5,9.6-11.4
		c0.1-7.2-2.4-11.7-8.2-12.1C451.6,344.7,448.1,348.1,447.5,356.3z M1082.6,593.1c0.4-1.3,0.7-2.6,1.1-3.9c-3.6-0.8-7.2-2.5-10.7-2
		c-1,0.1-1.6,6.4-2.2,9.9c-0.2,1.3,0,2.9,0.3,4.2c0.9,2.9,2.4,8.2,3,8c3.5-0.9,6.9-3.1,10.3-4.9c-1.8-2.9-3.4-6-5.5-8.5
		c-1.2-1.4-3.1-1.7-4.7-2.5c0.2-0.7,0.3-1.5,0.5-2.2C1077.4,591.7,1080,592.4,1082.6,593.1z M489,597.9c-0.5-8.2-3.7-12.1-9.8-11.7
		c-6.3,0.4-8.8,5.3-8.5,13c0.3,7.4,3.5,10.8,9.2,10.7C486.2,609.7,488.7,605.1,489,597.9z M438.3,609.2c1.2,0.2,2.4,0.4,3.6,0.5
		c0.4-9.1,0.7-18.1,1.1-26.7c2.7-1,4.9-1.8,7.1-2.6c-0.1-0.8-0.2-1.5-0.3-2.3c-6.3,0-12.6,0-19,0c-0.1,0.7-0.2,1.4-0.2,2.1
		c2.2,1,4.5,2,7.7,3.5C438.3,592.1,438.3,600.7,438.3,609.2z M1086.8,824.5c3.3-1.3,5.7-2.2,8-3.2c-0.2-0.7-0.3-1.5-0.5-2.2
		c-6.3,0-12.6,0-18.9,0c-0.1,0.7-0.2,1.4-0.3,2.1c2.4,1.2,4.8,2.3,6.7,3.3c0.7,9.4,1.3,17.9,1.9,26.4c1.1-0.2,2.1-0.5,3.2-0.7
		C1086.8,841.8,1086.8,833.4,1086.8,824.5z M325.2,337.1c-0.2,0.5-0.3,1-0.5,1.5c2.5,1.4,4.9,2.8,8.9,5.1c0,8.1,0,16.5,0,24.9
		c1-0.1,1.9-0.1,2.9-0.2c0-8.9,0-17.8,0-26.1c3.5-1.2,5.7-2.1,8-2.9c-0.1-0.8-0.2-1.6-0.2-2.4C337.8,337.1,331.5,337.1,325.2,337.1z
		 M415.3,342.9c0,8.9,0,17.2,0,25.6c1.1,0.1,2.2,0.1,3.3,0.2c0.3-8.8,0.6-17.7,0.9-26.3c2.7-1.3,5-2.4,7.3-3.4
		c-0.2-0.6-0.4-1.2-0.5-1.8c-6.3,0-12.5,0-18.8,0c-0.1,0.7-0.1,1.4-0.2,2.1C409.5,340.2,411.7,341.2,415.3,342.9z M999.2,577.9
		c-0.2,0.6-0.4,1.1-0.5,1.7c2.4,1.3,4.9,2.7,8.3,4.5c0,8.5,0,16.9,0,25.3c0.9,0,1.8,0.1,2.7,0.1c0.3-8.7,0.6-17.4,0.9-26
		c2.7-1.2,5.1-2.4,7.5-3.5c-0.1-0.7-0.2-1.4-0.3-2C1011.6,577.9,1005.4,577.9,999.2,577.9z M978.3,609.4c1.2,0,2.3,0.1,3.5,0.1
		c0-4.2-0.8-8.7,0.2-12.5c0.9-3.5,3.7-6.2,6-10c-3.8,0-6.9,0-9.8,0C978.3,594.7,978.3,602.1,978.3,609.4z M1015.8,343
		c3.8-1.9,6.1-3.1,8.4-4.2c-0.2-0.5-0.3-1.1-0.5-1.6c-6,0-12,0-18,0c-0.1,0.7-0.2,1.4-0.3,2c2.4,1.2,4.8,2.3,8.1,3.9
		c0,8.5,0,16.9,0,25.2c0.7,0,1.5,0,2.2,0C1015.8,359.9,1015.8,351.5,1015.8,343z M950,610.2c0-11.9,0-22.6,0-36
		C945,585.5,945.4,603.9,950,610.2z M929.4,818.3c-6,8.7-5.2,28.3,0,32.1C929.4,839.5,929.4,828.9,929.4,818.3z M899.6,333
		c-6.1,11.4-5.4,31.3,0,35.5C899.6,357.5,899.6,346.9,899.6,333z M1112.2,155.9c-1.9-5.9-3.3-10.6-4.8-15.2c-1,4.9-2.8,9.8-2.8,14.7
		c0,5.4,1.6,10.7,2.5,16.1C1108.8,166.3,1110.5,161.2,1112.2,155.9z M858,850.6c1.2-0.2,2.4-0.3,3.6-0.5c-0.3-7.6-0.5-15.1-0.8-22.7
		c-0.9,0.1-1.9,0.2-2.8,0.3C858,835.3,858,843,858,850.6z M496.7,577.4c-0.7,0-1.4,0-2,0c0,10.6,0,21.2,0,31.8c0.7,0,1.4,0,2-0.1
		C496.7,598.6,496.7,588,496.7,577.4z M1063.7,577.4c-0.6,0-1.2,0.1-1.8,0.1c0,10.6,0,21.2,0,31.8c0.6-0.1,1.2-0.1,1.8-0.2
		C1063.7,598.6,1063.7,588,1063.7,577.4z M935.8,850.2c0.7,0,1.4-0.1,2.1-0.1c0-10.6,0-21.2,0-31.8c-0.7,0-1.4,0.1-2.1,0.1
		C935.8,829.1,935.8,839.6,935.8,850.2z M473.4,336.4c-0.7,0-1.4,0-2.1,0.1c0,10.6,0,21.2,0,31.8c0.7,0,1.4-0.1,2.1-0.1
		C473.4,357.5,473.4,347,473.4,336.4z M1141,818.4c-0.7,0-1.4,0-2,0.1c0,10.6,0,21.2,0,31.8c0.7,0,1.4,0,2-0.1
		C1141,839.7,1141,829,1141,818.4z M1068.4,368.2c0.6,0,1.3-0.1,1.9-0.1c0-10.6,0-21.2,0-31.8c-0.6,0.1-1.3,0.1-1.9,0.2
		C1068.4,347,1068.4,357.6,1068.4,368.2z"/>
	<path class="st1" d="M1305.4,278.1c2-14.7,5.7-18.5,18.2-18.5c108.5,0,217.1,0,325.6,0c60.4,0,120.9,0,181.3,0
		c11.6,0,15.4,4.1,17.3,18.5c0,47.9,0,95.8,0,143.6c0,17.1-4.5,23.2-17.3,23.2c-169.3,0-338.6,0-507.9,0c-12.7,0-17.2-6.1-17.3-23.2
		C1305.4,373.9,1305.4,326,1305.4,278.1z M1534.4,347.1c4-1.9,4.1-2.6,0.1-8.8c-2.2-0.7-4.4-1.3-4.8-1.4
		C1531.1,339.8,1532.7,343.4,1534.4,347.1z M1606.5,354.7c-0.7-8.8-5.6-11.2-10.6-9.1c-3,1.2-6.6,6.9-6.7,10.8
		c-0.2,3.9,3,10.3,5.8,11.6c5.1,2.3,10.7,1,11.5-8.7c1.5,1.2,2.8,2.8,4.4,3.7c3.7,2,7.8,5.5,11.3,4.9c2.4-0.4,5.6-7,5.7-10.8
		c0-3.9-3.1-10.5-5.5-11c-3.6-0.7-7.7,2.7-11.4,4.7C1609.4,351.7,1608,353.4,1606.5,354.7z M1541.4,357.7c-2.3-1.8-4.6-3.6-6.9-5.4
		c-3.5-2.1-7-4.2-10.9-6.6c1.7-3.4,2.9-5.6,4.6-9.1c-2.2-0.2-3.8-0.8-4.2-0.2c-1.6,2.8-4.7,7.5-4.1,8.6c2.1,3.9,5.4,6.6,8.4,9.7
		c1.5,1.6,3.2,2.8,4.5,4.6c0.3,0.4-0.8,3.6-1.3,3.6c-2.2,0.1-5.2,0.7-6.4-0.9c-5.1-7-9.5-6.9-14.7-0.1c-1.2,1.5-6.6,0.4-6.6,0
		c-0.5-6.2-2.2-13.8-0.2-18.3c3-6.5,6.8-1.8,9.2,3.3c0.4,0.8,2,0.6,4,1.1c-0.7-7.9-2.9-11.9-8.7-12.2c-5.7-0.3-10.2,2-10.7,10.1
		c-0.5,8.1-2.5,18.2,5.3,22.2c6.3,3.2,12.3,1,14.6-9.3c5.8,10.5,5.8,10.5,15.3,9.4c2.9-2.1,5.9-4.1,8.8-6.2
		c2.6,8.9,8.3,7.6,13.3,5.9c2-0.7,5-7.3,4.5-8.2c-2.4-4-5.7-7-8.8-10.2c-1.6-1.7-3.3-3.2-4.9-4.7c0.5-1.4,1.1-2.8,1.6-4.2
		c3.8,2.2,7.5,4.4,11.8,6.9c0.2-7.9-2.6-12.4-8.2-11.3c-3.3,0.7-6.3,4.6-9.4,7.1c2.6,3.8,5.1,7.8,8,11.2c1.7,1.9,4.1,2.8,6.2,4.1
		c-0.4,1.5-0.7,3.1-1.1,4.6c-2.9-0.8-5.9-1.4-8.7-2.5C1544.2,360.1,1542.8,358.7,1541.4,357.7z M1654.5,352.1
		c0.3-1.4,0.6-2.9,0.9-4.3c-3.8-0.6-7.6-1.8-11.3-1.4c-0.6,0.1-0.9,6.8-1.3,10.5c-0.1,1.1,0.7,2.6,0.4,3.2c-3.9,6.3,0,8.5,3.3,8.4
		c3.2-0.1,6.4-3,9.6-4.6c-2-3.1-3.8-6.3-6-9.1c-1-1.3-2.6-1.8-3.9-2.7c0.2-0.6,0.3-1.1,0.5-1.7
		C1649.2,350.8,1651.9,351.5,1654.5,352.1z M1579.1,342.4c0,9.1,0,17.6,0,26.1c0.9-0.1,1.8-0.1,2.6-0.2c0-8.8,0-17.7,0-25.9
		c3.4-1.4,5.6-2.3,7.7-3.2c-0.1-0.5-0.2-1-0.4-1.5c-6.1,0-12.3,0-18.4,0c0,0.7,0,1.5,0,2.2C1572.8,340.5,1575,341.2,1579.1,342.4z
		 M1633.4,368.2c0.7,0,1.4,0,2.1,0c0-10.6,0-21.3,0-31.9c-0.7,0-1.4,0.1-2.1,0.1C1633.4,347,1633.4,357.6,1633.4,368.2z"/>
	<path class="st2" d="M1305.4,519.1c2-14.7,5.7-18.5,18.2-18.5c108,0,215.9,0,323.9,0c61,0,122,0,183.1,0c11.6,0,15.4,4.1,17.3,18.5
		c0,47.9,0,95.8,0,143.6c0,17.1-4.5,23.2-17.3,23.2c-169.3,0-338.6,0-507.9,0c-12.7,0-17.2-6.1-17.3-23.2
		C1305.4,614.9,1305.4,567,1305.4,519.1z M1718.7,600.9c-4.4,2.5-3.2,6.2,0,7.6c3,1.3,6.8,0.8,10-0.2c1.1-0.3,2.7-5.8,2.3-6.3
		c-2.4-2.8-5.4-4.8-8.2-7.1c0.8-1,1.5-2,2.3-2.9c1.5,0.4,3,0.7,5.6,1.4c-3.5-9.2-8.3-8.7-12.4-5.2c-1.1,0.9,0.7,7.7,1.1,11.8
		C1719.2,600.3,1719,600.6,1718.7,600.9z M1516.8,607.9c1.1,0,2.2,0,3.4,0.1c0-9.7,0-19.5-0.1-29.2c0,0-2.1,0-3.2,0
		c0,9,0,18.1,0,27.1c-1.2,0.2-2.5,0.5-3.7,0.7c-0.7-3.6-1-7.5-2.2-10.8c-1.2-3.4-3.1-8.4-5.2-8.9c-3-0.7-6.5,1.9-9.8,3.1
		c0.2,0.9,0.4,1.9,0.6,2.8c3.2-0.3,6.3-0.7,9.5-1c0.1,1,0.2,2,0.2,2.9c-0.9,0.3-1.9,0.8-2.8,0.8c-4.5,0-9.1,1.2-7.8,8.4
		c0.5,2.6,5.5,5,8.6,5.4C1508.3,609.8,1512.6,608.4,1516.8,607.9z M1554.9,594c0.8,5.3,1.6,10.6,2.4,15.9c0.9-0.2,1.8-0.5,2.7-0.7
		c0-10.5,0-21,0-31.6c-2.8,0-5.3,0-7.7,0c-1.5,7.4-2.9,14.1-4.3,20.9c-0.6,0-1.1,0-1.7,0c-1.4-6.8-2.7-13.6-4.2-20.9
		c-2.6,0-5.1,0-7.1,0c0,11,0,21.6,0,32.1c0.7,0.1,1.3,0.2,2,0.3c0.9-4.1,1.7-8.3,3-14.7c1.7,6.1,2.8,9.9,3.8,13.7
		C1555.4,613.7,1550.2,597.6,1554.9,594z M1423.4,597c-1.1,11,3.3,14.1,9,12.4c3.1-0.9,7.4-4.6,8-8c1.3-7.8-3.8-9.7-8.7-11.2
		c-1.9-0.6-3.5-2.8-5.2-4.3c0.5-1.4,1.1-2.9,1.6-4.3c3.7,2.2,7.4,4.3,11.1,6.5c-0.1-9-0.9-11.5-6.2-11c-3.6,0.4-7.1,4.3-10.6,6.6
		c2.2,3.8,4.4,7.7,6.7,11.4c0.4,0.7,1.8,0.1,2.5,0.7c1.5,1.4,2.9,3.1,4,5c0.2,0.3-1.1,3.2-1.8,3.2c-1.9,0.2-4.2,0.3-5.8-0.8
		C1426.3,602,1425,599.2,1423.4,597z M1634.3,608.8c-0.7-5.1-0.8-9.7-2-13.6c-1.1-3.4-3.3-8-5.5-8.5c-2.9-0.7-6.2,2.2-9.3,3.5
		c0.3,0.9,0.5,1.7,0.8,2.6c3.1-0.2,6.2-0.4,9.3-0.7c-1.3,3-2.9,2.6-3.9,3.5c-2.5,2.3-4.7,5.1-7,7.7c2.6,2.1,5,5.3,7.8,6.1
		C1627.5,610.3,1631,609.1,1634.3,608.8z M1581.8,599.8c-0.6-8.7-2.7-14.9-9-13.3c-3.2,0.8-7.8,5.7-8,9.2
		c-0.3,4.4,2.5,10.9,5.5,13.3c2.2,1.8,6.8-1.5,10.3-2.5c-0.2-1.1-0.5-2.2-0.7-3.4c-3.3,0-6.7,0-10,0c0-0.8,0-1.6,0.1-2.4
		C1573.5,600.5,1577.2,600.2,1581.8,599.8z M1704.8,601.1c0-1.9,0-3.8,0-5.7c-3.6-3.1-6.8-7.8-10.7-8.9c-5.9-1.6-9.2,3.9-9.2,11.4
		c-0.1,7.5,2.9,13.2,9,11.6C1697.8,608.4,1701.1,604,1704.8,601.1z M1671.7,609.9c7.1,0,10.3-4.5,10.2-12
		c-0.1-7.5-3.3-11.9-9.4-11.9c-6.1,0.1-9.2,4.6-9.2,12.2C1663.4,605.8,1666.4,610.3,1671.7,609.9z M1463.5,601.1c0-1.9,0-3.8,0-5.7
		c-3.6-3.1-6.8-7.8-10.7-8.9c-5.9-1.6-9.2,3.9-9.2,11.4c-0.1,7.5,3,13.2,9,11.6C1456.5,608.4,1459.9,604,1463.5,601.1z
		 M1482.6,602.5c-4.4,0-8.1,0.2-11.8-0.3c-0.4-0.1-0.7-7-0.5-7c4-1,8-1.4,12.3-2c-1.2-6.7-5.9-8.9-10.4-6.5c-3,1.6-6.2,7.1-6.5,11.3
		c-0.3,3.6,2.7,9.8,5.4,11.1C1475.7,611.4,1481.2,610.8,1482.6,602.5z M1599.2,584.1c-5.3,2.8-10.2,3.5-12.3,7.1
		c-1.8,2.9-1.7,12.3-0.1,13.4c4.7,3.4,10.5,4.2,15.2,5.9c0-12.7,0-23,0-33.3c-0.7,0.1-1.4,0.1-2.1,0.2
		C1599.5,580.6,1599.2,583.8,1599.2,584.1z M1656.9,583.2c2.4-1,4.9-1.9,7.4-2.9c-0.1-0.7-0.2-1.3-0.3-2c-6.2,0-12.5,0-18.7,0
		c-0.1,0.7-0.1,1.4-0.2,2.1c2.2,0.9,4.5,1.9,6.8,2.8c0.3,8.9,0.6,17.6,0.9,26.3c1,0,2,0.1,3,0.1
		C1656.2,600.9,1656.5,592.3,1656.9,583.2z M1711,575.4c-5,8.2-5.1,27.1,0,36.2C1711,598.9,1711,588.2,1711,575.4z"/>
	<path class="st3" d="M1305.4,278.1c0,47.9,0,95.8,0,143.6c0,17.1,4.5,23.2,17.3,23.2c169.3,0,338.6,0,507.9,0
		c12.7,0,17.2-6.1,17.3-23.2c0-47.9,0-95.8,0-143.6c1.2,3,3.4,6,3.4,9c0.2,47.5,0.2,94.9,0.1,142.4c0,16-7.4,24.7-20.4,24.7
		c-49,0.1-98,0-146.9,0c-119.7,0-239.3,0-359,0c-17.3,0-23.1-7.6-23.1-30.5c0-44.8-0.1-89.5,0.2-134.3
		C1302.1,285.6,1304.2,281.9,1305.4,278.1z"/>
	<path class="st4" d="M1305.4,519.1c0,47.9,0,95.8,0,143.6c0,17.1,4.6,23.2,17.3,23.2c169.3,0,338.6,0,507.9,0
		c12.7,0,17.2-6.1,17.3-23.2c0-47.9,0-95.8,0-143.6c1.2,3,3.4,6,3.4,9c0.2,47.5,0.2,94.9,0.1,142.4c0,16-7.4,24.7-20.4,24.7
		c-48.4,0.1-96.8,0-145.2,0c-120.2,0-240.5,0-360.7,0c-17.3,0-23.1-7.6-23.1-30.5c0-44.8-0.1-89.5,0.2-134.3
		C1302.1,526.7,1304.2,522.9,1305.4,519.1z"/>
	<path class="st4" d="M139.6,279.8c0,4.1,0,8.1,0,12.2c0,43.2,0,86.5,0,129.7c0,17.5,4.5,23.3,18.1,23.3c168.1,0,336.2,0,504.3,0
		c14,0,18.3-5.7,18.3-24.2c0-42.9,0-85.7,0-128.6c0-4.1,0-8.3,0-12.4c0.8-0.1,1.6-0.2,2.4-0.4c0.4,2.5,1.1,4.9,1.1,7.4
		c0.1,47.5,0.1,95,0,142.5c0,15.7-7.2,24.9-19.3,24.9c-169.6,0.1-339.1,0.1-508.7,0c-11.9,0-19.5-8.8-19.5-23.5
		c-0.2-48.6-0.1-97.3,0-145.9c0-1.7,0.5-3.4,0.8-5.2C137.8,279.7,138.7,279.7,139.6,279.8z"/>
	<path class="st4" d="M722.5,279.7c0,3.9,0,7.9,0,11.8c0,43.6,0,87.3,0,130.9c0,16.2,4.7,22.6,16.8,22.6c169,0,337.9,0,506.9,0
		c12.1,0,16.8-6.3,16.8-22.6c0-43.6,0-87.3,0-130.9c0-3.9,0.3-7.9,0.4-11.8c0.8-0.1,1.5-0.1,2.3-0.2c0.3,3.1,0.8,6.2,0.8,9.3
		c0,46.3,0.1,92.7,0,139c0,17.4-6.8,26.5-19.9,26.5c-169.3,0-338.5,0-507.8,0c-12.1,0-19.7-8.5-19.8-23.1c-0.2-49-0.1-98.1,0-147.1
		c0-1.4,0.5-2.9,0.7-4.3C720.7,279.7,721.6,279.7,722.5,279.7z"/>
	<path class="st4" d="M1266.7,761.8c0,3.6,0,7.1,0,10.7c0,45.6,0,91.1,0,136.7c0,18.2-6.7,27.1-20.3,27.1c-169,0-337.9,0-506.9,0
		c-12.7,0-20.3-8.4-20.3-23.6c-0.2-48.6-0.1-97.3,0-145.9c0-1.7,0.6-3.4,2.8-5.2c0.2,3.8,0.6,7.6,0.6,11.4c0,43.6,0,87.3,0,130.9
		c0,17,4.6,23.2,17.3,23.2c168.7,0,337.4,0,506,0c12.7,0,17.3-6.1,17.3-23.1c0-43.2,0-86.5,0-129.7c0-4.1,0-8.2,0-12.4
		C1264.3,761.8,1265.5,761.8,1266.7,761.8z"/>
	<path class="st4" d="M139.2,520.7c0.2,3.9,0.4,7.8,0.4,11.7c0,43.2,0,86.5,0,129.7c0,17.9,4.4,23.9,17.6,23.9
		c168.4,0,336.8,0,505.1,0c13.4,0,17.8-5.9,17.9-23.6c0-43.2,0-86.5,0-129.7c0-4,0-7.9,0-11.9c0.8-0.1,1.7-0.2,2.5-0.3
		c0.3,2.6,1,5.3,1,7.9c0.1,47.1,0.1,94.2,0,141.3c0,16.4-7.1,25.5-19.8,25.5c-169.3,0-338.5,0-507.8,0c-12.5,0-19.9-8.7-20-24
		c-0.2-47.9-0.1-95.7,0-143.6c0-2.3,0.6-4.7,1-7C137.8,520.6,138.5,520.6,139.2,520.7z"/>
	<path class="st4" d="M1265.9,520.6c0.3,3.1,0.7,6.2,0.7,9.3c0,46.3,0.1,92.7,0,139c0,17.3-6.9,26.4-20,26.4
		c-169.3,0-338.5,0-507.8,0c-12.4,0-19.7-8.9-19.8-24.3c-0.2-47.9-0.1-95.7,0-143.6c0-2.2,0.4-4.4,2.7-6.8c0.3,3.7,0.8,7.4,0.8,11
		c0.1,43.6,0,87.3,0,130.9c0,17.7,4.4,23.6,17.8,23.6c168.4,0,336.8,0,505.1,0c13.2,0,17.6-6,17.6-23.9c0-43.2,0-86.5,0-129.7
		c0-3.9,0.3-7.8,0.4-11.8C1264.4,520.6,1265.1,520.6,1265.9,520.6z"/>
	<path class="st5" d="M1046.5,173.5c-14.8-2.4-19.7-6.3-19.1-17.9c1.2-23.3,14.7-13.2,25-14.7c0,11.9,0.3,23.8-0.2,35.6
		c-0.1,2.6-3.1,5.3-5.2,7.2c-1,0.9-2.9,0.6-4.3,0.2c-3.9-1-7.7-2.4-11.6-3.6c3.5-1.3,7.1-2.5,10.6-4
		C1043.4,175.7,1045,174.5,1046.5,173.5z M1038.3,165.8c1.1,0,2.3,0,3.4,0c1.6-3.4,4.7-7.1,4.5-10.2c-0.3-3.4-3.8-6.3-5.9-9.4
		c-2.1,3.1-5.5,5.9-5.9,9.3C1033.9,158.6,1036.8,162.4,1038.3,165.8z"/>
	<path class="st6" d="M848.4,850.6c-0.4-1.9-0.8-3.9-1.1-5.8c-0.3-2.1-0.5-4.1-0.8-7.1c-4.8,3.6-2.5,17.4-10,12
		c-3.4-2.5-4-11.5-7.6-17.7c-0.5,6.2-0.9,12.3-1.4,18.5c-0.6,0-1.3-0.1-1.9-0.1c0-10.5,0-21.1,0-31.9c2.3,0,4.9,0,7.5,0
		c1.5,7.6,2.9,14.9,4.3,22c7.6-4.1-0.8-24.9,13.3-22c0,11.2,0,21.6,0,32.1C849.9,850.5,849.1,850.6,848.4,850.6z"/>
	<path class="st6" d="M951.5,154.4c0.4,14.6-5,18.6-13.2,17.8c-8.3-0.8-11.8-7.3-11.8-17.7c0-3.5-0.1-6.9,0-10.4
		c0.5-11.2,4.3-16.4,12.3-16.9c9.4-0.5,12.1,2.5,14.1,18.2c-3.2-2.6-5-4.3-7-5.7c-2.6-1.8-5.4-5-7.8-4.5c-1.9,0.3-4.1,5-4.8,8.2
		c-0.8,3.9-0.8,8.6,0,12.5c0.7,3.2,2.9,7.7,4.8,8c2.4,0.4,5.2-2.7,7.8-4.6C947.9,157.9,949.7,156,951.5,154.4z"/>
	<path class="st6" d="M1132.5,160c1.6,1.7,3,3.2,4.4,4.7c-6,8.7-13.1,10-18.4,3.8c-4.6-5.5-5-18.1-0.8-24.2
		c4.3-6.2,11.7-6.8,16.6-1.2C1139.6,149.1,1139.1,155.8,1132.5,160z"/>
	<path class="st6" d="M1024.7,156.2c-2.8,1.7-5.1,3.1-7.7,4.7c2.3,1.1,4.2,2.1,6.7,3.3c-4.4,9.2-10.4,9.9-16.2,6.4
		c-6.1-3.6-8.4-11.9-5.7-19.3c1.9-5.2,7-11,11.1-11.6C1020.3,138.5,1024.2,145.7,1024.7,156.2z"/>
	<path class="st7" d="M977.8,144.5c0.5,8.3,1,16.5,1.5,26c-4.8,0.3-11.3,1.6-17.6,0.8c-2.1-0.2-5.7-5.7-5.5-8.3
		c0.3-3.5,3.1-7.7,5.7-9.7c2.2-1.7,5.7-0.7,8.6-0.8c0.2-1.1,0.5-2.2,0.7-3.3c-2.2-0.7-4.5-2-6.7-1.9c-2.2,0.1-4.3,1.7-8.8,3.6
		c7.5-13.7,11-14.2,22.1-6.2C977.8,144.6,977.8,144.5,977.8,144.5z"/>
	<path class="st7" d="M1070.1,172.4c-7.7,0.2-12.8-6-13-15.9c-0.2-9.6,5-17,12.2-17.4c7.2-0.4,12.7,6.6,12.9,16.3
		C1082.3,165.6,1077.6,172.2,1070.1,172.4z M1078.9,156.6c-4.2-4.7-6.7-9.7-8.9-9.5c-2.2,0.2-5.7,5.3-5.9,8.5
		c-0.2,2.9,3.2,8.1,5.5,8.6C1071.7,164.7,1074.5,160.4,1078.9,156.6z"/>
	<path class="st7" d="M833.7,136.4c-3.1-0.5-5-0.3-6.5-1.1c-1.3-0.7-2.3-2.5-3.5-3.9c1.4-1.3,2.7-3.8,4.1-3.8
		c7-0.4,13.9-0.2,20.9-0.2c0.5,1.1,0.9,2.2,1.4,3.3c-2.7,2.3-5.5,4.6-9.4,8c-0.5,9.2-1.2,20.8-2,32.3c0,0.4-2.6,0.4-4.9,0.7
		C833.7,159.9,833.7,148.7,833.7,136.4z"/>
	<path class="st8" d="M872.2,156.3c-0.1,9.9-5.3,16.3-12.9,16.1c-7.7-0.2-12.3-6.5-12.2-16.8c0.1-9.8,5.4-16.7,12.7-16.5
		C866.9,139.3,872.3,146.7,872.2,156.3z M858.2,166.3c1.2-0.1,2.3-0.2,3.5-0.2c1.3-3.5,4-7.4,3.5-10.5c-0.5-3.4-3.9-6.1-6.1-9.1
		c-2,3.3-5.3,6.4-5.6,9.9C853.3,159.4,856.5,163,858.2,166.3z"/>
	<path class="st8" d="M887.4,139.1c7.1-0.3,12.8,6.9,12.9,16.4c0.2,10-4.7,16.7-12.3,16.9c-7.8,0.2-12.7-6-12.8-16
		C875.1,146.5,880.1,139.4,887.4,139.1z M888.1,142c-3.3,6.7-6.5,10.3-6.3,13.6c0.2,3.3,3.6,6.2,5.7,9.3c2.1-2.9,5.6-5.6,5.9-8.8
		C893.6,152.8,890.9,149,888.1,142z"/>
	<path class="st7" d="M1149.5,158.8c-2.3-3.4-5.7-6.4-6.6-10.4c-0.4-1.9,3.6-7.9,5.8-8.1c4.3-0.4,8.8,2,13.2,3.2
		c-0.2,1.7-0.5,3.5-0.7,5.2c-4-0.6-7.9-1.1-11.9-1.7c-0.2,0.9-0.4,1.8-0.6,2.7c2.2,1.1,4.8,1.5,6.5,3.3c2.8,3,5.1,6.8,7.7,10.3
		c-3.2,3-6.3,8.2-9.7,8.6c-3.9,0.4-8-3.4-12-5.4c0.2-1.3,0.4-2.7,0.6-4c2.1-0.5,4.2-1,6.3-1.5c2.5,1.5,4.9,3,7.4,4.4
		c0.3-1.4,0.6-2.8,1-4.2C1153.9,160.5,1151.7,159.6,1149.5,158.8z"/>
	<path class="st9" d="M977.8,144.5c0,0,0,0.1,0,0.1c2.7-4.1,5.2-8.5,8.2-12c1.2-1.4,4.7-1.8,5.5-0.6c2.5,3.6,4.2,8.2,6.3,12.5
		c-7.6,7.2-7.6,7.2,0,25.1c-9.9,3.9-12.5,2-12.1-11C986,150.2,984,145.7,977.8,144.5z"/>
	<path class="st10" d="M926.5,368.8c-0.7-6.2-1.3-12.4-2-18.6c-1-0.2-2-0.3-3-0.5c-1.1,6.4-2.2,12.8-3.3,19.2c-0.8,0-1.6,0-2.3-0.1
		c-0.6-6.2-1.3-12.4-1.9-18.6c-1.1-0.1-2.1-0.2-3.2-0.3c-0.9,6.2-1.7,12.5-3,21.7c-5.5-9.4-2.3-17.3-4.1-26.4
		c7.7,0,14.3-0.5,20.9,0.3c1.9,0.2,4.7,3.7,5.1,6.3c0.8,5.3,0.2,11,0.2,16.5C928.9,368.5,927.7,368.6,926.5,368.8z"/>
	<path class="st11" d="M320.9,586.3c-4-0.6-8.3-1.3-12.5-1.9c0.2,6.2,0.3,12.4,0.5,18.6c4-1.2,8-2.4,13-3.8
		c-0.4,6.6-2.7,10.4-8.8,10.7c-8.4,0.5-10.5-6.1-10.7-15.2c-0.3-12.1,2.5-17.5,9.6-17.8C318.9,576.5,320.6,578.7,320.9,586.3z"/>
	<path class="st5" d="M417.9,617.8c-5.2,0-9.8,0-14.4,0c-0.1-0.8-0.2-1.6-0.3-2.4c3.5-0.8,7.1-1.6,10.6-2.4c0.4-1,0.8-1.9,1.2-2.9
		c-8.8,0.1-16.3-1.6-14.7-15.3c0.9-7,2.3-7.5,17.5-7.6C417.9,597.3,417.9,607.4,417.9,617.8z M416.2,598.4c-2.7-3.3-4.7-7.3-6-7
		c-2.1,0.5-3.9,3.9-5.8,6.1c1.7,2.4,3.2,6,5.3,6.9C411,605,413.3,601.3,416.2,598.4z"/>
	<path class="st9" d="M953.4,364.2c0.2-1.7,0.7-3.4,0.7-5.1c0.1-11.3,2.6-14.5,11.1-13.5c2.2,0.3,4.4,0.5,7.4,0.8
		c0,4.8,0,9.3,0,13.9c0,19.5-0.5,20.1-15.8,14.4c3.7-1.1,7.5-2.1,13-3.7c-7-3-11.8-5-16.5-7L953.4,364.2z M969.8,356.4
		c-3-2.9-4.9-6.2-6.5-5.9c-1.8,0.3-4.7,4.4-4.4,6c0.5,2.8,2.8,5.9,4.9,6.8C964.8,363.7,967,359.7,969.8,356.4z"/>
	<path class="st12" d="M923.3,598.9c-2.6,3.6-4.8,8.9-8,10.3c-5.1,2.3-10.7,1.4-13-7.1c-2.6-9.7-0.2-22.8,5.1-24.5
		c6.3-2.1,12.5-1.7,14.2,9.4c0.1,0.7,1.1,1.2,1.7,1.8c0,0,0,0,0,0c-2.4-1.4-4.8-3.1-7.4-4c-2.4-0.9-5-0.8-7.6-1.2
		c0,6.5-0.1,13-0.1,19.5c2.5-0.3,5.1-0.3,7.6-0.9c2.5-0.6,5-1.9,7.5-2.9C923.3,599.2,923.3,598.9,923.3,598.9z"/>
	<path class="st13" d="M359.3,586.6c1-3.8,1.9-6.8,2.7-9.9c0.7,0.2,1.4,0.4,2.2,0.6c0,10.3,0,20.6,0,31c-13.9,2.3-17.5,0.3-17.8-9.7
		C346.1,589.5,349.6,586.1,359.3,586.6z M362.2,597.5c-3-2.9-5.5-6.6-6.4-6.1c-2,1.3-4.1,4.6-4.5,7.5c-0.2,1.5,3.1,5.4,4.8,5.4
		C357.8,604.4,359.5,600.8,362.2,597.5z"/>
	<path class="st14" d="M960.4,849.8c-3,0.3-6.6,1.1-10.2,0.8c-2.3-0.2-5.2-1.6-6.5-3.8c-0.8-1.4,0.7-5.2,1.1-8
		c0.4-3.2-0.2-7.8,1.2-9.2c2-2,5.5-2.7,8-1.9c1.9,0.7,3.9,4.3,4.6,7.1C959.6,839.5,959.8,844.6,960.4,849.8z M953.9,836.1
		c-0.1-1.2-0.2-2.3-0.3-3.5c-2,0.4-3.9,0.8-5.9,1.2c0.1,0.8,0.2,1.5,0.2,2.3C949.9,836.1,951.9,836.1,953.9,836.1z"/>
	<path class="st14" d="M953.2,363.9c-3.4,5.1-15.5,6.9-17.7,2.2c-1-2-1.2-6.6-0.2-8c2.9-3.9-1.7-14.5,7.1-13.2
		c4.9,0.7,7.2,3,7.7,9.7c0.2,3.3,2.2,6.3,3.4,9.5C953.4,364.2,953.2,363.9,953.2,363.9z M938.8,351.7c0.1,0.9,0.3,1.8,0.4,2.7
		c2-0.3,4-0.6,6-0.9c-0.2-1.2-0.3-2.4-0.5-3.6C942.7,350.6,940.7,351.2,938.8,351.7z"/>
	<path class="st7" d="M359.4,350.7c0.2,2.6,0.3,5.1,0.5,8.1c-4.1,0.3-7.7,0.6-11.2,0.9c0,0.9,0,1.7,0,2.6c3.2,0,6.4,0,9.6,0
		c0.3,0.9,0.6,1.7,0.9,2.6c-3.1,1.3-6.9,4.6-9.1,3.3c-3-1.8-6.6-7.1-6.6-11c0-3.9,3.4-9.9,6.4-11.3c2.5-1.2,6.4,3,9.7,4.7
		C359.5,350.6,359.4,350.7,359.4,350.7z"/>
	<path class="st11" d="M920.7,844.3c-2.5,8.7-8,8-11.5,5.2c-2.6-2.2-5.1-9.6-4.2-13.1c1.1-4,5.9-8.3,9.3-8.7
		c5.6-0.6,7.6,5.4,7.2,13.1c-4.2,0.4-8,0.7-11.8,1c0,0.8,0,1.6,0,2.5C913.2,844.3,916.7,844.3,920.7,844.3z"/>
	<path class="st9" d="M993.6,358.9c-4.3,0.3-7.9,0.5-11.6,0.8c0,0.8,0,1.6,0,2.4c3.4,0,6.8,0,11.1,0c-2.7,8.5-8.1,8.2-11.6,5.4
		c-2.7-2.1-5.2-9.5-4.4-13.1c1-4,5.8-8.4,9.2-8.9C992.1,344.8,994.2,350.7,993.6,358.9z"/>
	<path class="st15" d="M1086.9,170.4c0-9.6,0-19.1,0-29c3.8-0.3,7.3-0.8,10.9-0.7c1.1,0,2.5,1.4,3.1,2.7c0.3,0.7-0.6,3.6-1.1,3.7
		c-9.5,0.8-6.2,10.3-7.2,17.2c-0.4,2.8-2.3,5.3-3.6,7.9C1088.3,171.6,1087.6,171,1086.9,170.4z"/>
	<path class="st16" d="M985.1,836.4c1-7.6,5.1-10.9,10-8.8c3.3,1.4,5.6,6.5,8.4,9.9c-0.5,1-1,2.1-1.6,3.1c-3.8,0.4-7.7,0.7-11.5,1.1
		c0,0.8-0.1,1.6-0.1,2.3c3.3,0,6.6,0,9.9,0c0.3,0.9,0.6,1.9,0.8,2.8c-2.5,1.3-5.6,4.4-7.5,3.5c-3.2-1.5-5.7-5.7-8.5-8.7
		C985.1,840,985.1,838.2,985.1,836.4z"/>
	<path class="st13" d="M359.4,350.7c0,0,0.1-0.1,0.1-0.1c1.8-1.7,3.5-3.5,5.8-5.7c1.7,2.1,3.6,4.4,4.3,5.2
		c5.5-1.7,10.2-3.1,14.8-4.5c0,1.4,0,2.7,0,4.1c-2,0-5.8-0.3-5.9,0.2c-0.8,5.7-0.9,11.5-1.3,18.1c-1.2-1.1-3.7-3.4-6.1-5.5
		c-2.3,2.1-4.9,4.5-7.3,6.7c0.7-6.4,1.4-11.4,1.4-16.4C365.2,352,361.4,351.4,359.4,350.7z"/>
	<path class="st10" d="M985.1,836.4c0,1.8,0,3.5,0,5.3c-1.9,2.9-3.8,5.8-7,10.8c-0.6-5.1-0.8-8.8-1.6-12.2c-0.7-2.8-2.2-5.4-3.4-8
		c-1.4,2.8-3.3,5.3-4.1,8.4c-0.8,3-0.5,6.5-0.6,9.7c-1.2,0.1-2.3,0.2-3.5,0.3c-0.4-7.3-0.8-14.6-1.2-21.7c8.5-2.5,15.8-4.1,19.1,8.6
		C983.6,837.2,984.4,836.8,985.1,836.4z"/>
	<path class="st13" d="M1043.9,827.6c0,7.3,0,14.5,0,21.8c-16.3,1.6-19-2-13.4-22.2c0.6,3.2,0.9,6.6,1.8,9.7
		c0.9,3.1,2.2,5.9,3.4,8.9c1.5-3,3.3-5.9,4.3-9.2c0.8-2.8,0.7-6.1,0.9-9.2C1041.9,827.4,1042.9,827.5,1043.9,827.6z"/>
	<path class="st13" d="M380.1,585.1c4.9,1.9,11.3,2,14.5,6.3c2.5,3.3,1.1,11.8,1.4,18c-1.2,0.1-2.4,0.2-3.7,0.3
		c-0.3-4.1-0.2-8.3-1-12.2c-0.5-2.4-2.4-4.2-3.6-6.3c-1.4,2.1-3.5,3.8-4,6.2c-0.8,3.9-0.5,8.2-0.7,12.3c-1,0-1.9-0.1-2.9-0.1
		C380.1,602.2,380.1,594.8,380.1,585.1z"/>
	<path class="st12" d="M1159.8,834.1c-2.6-0.7-5.1-1.4-7.7-2.1c-0.2,0.8-0.5,1.6-0.7,2.4c2.3,1.2,5,1.7,6.7,3.7
		c1.6,1.9,2.1,5.5,3,8.3c-3.6,1.4-7.2,3.1-10.9,3.7c-0.6,0.1-1.9-4.3-2.5-6.8c-0.4-1.5-0.3-3.4-0.1-5c0.5-3.6,1.1-10,2-10.1
		c3.5-0.4,7.2,1.2,10.8,2.1C1160.3,831.5,1160,832.8,1159.8,834.1z"/>
	<path class="st12" d="M1091,352.1c-4.2-0.7-6.9-1.2-9.7-1.7c-0.1,0.6-0.3,1.3-0.4,1.9c1.1,0.7,2.5,1.2,3.4,2.3
		c2.3,2.7,4.4,5.6,6.6,8.5c-3.1,1.9-6.1,5.2-9.2,5.4c-3.9,0.3-7.4-1.5-3.9-9c1.5-3.3-0.3-9.1,1-12.9c0.5-1.5,5.3-1,8.1-0.4
		C1088.1,346.3,1089,349,1091,352.1z"/>
	<path class="st12" d="M910.6,128.4c0,14.1,0,28.2,0,42.3c-0.7,0.7-1.4,1.3-2.1,2c-1.4-2.3-4-4.5-4.1-7c-0.5-10.7-0.5-21.6,0-32.3
		c0.1-2.4,2.7-4.6,4.1-7C909.2,127,909.9,127.7,910.6,128.4z"/>
	<path class="st13" d="M333.7,609.9c-5.7,0.4-8.7-4.2-8.8-11.7c-0.1-7.5,3.1-12.1,9.2-12.1c6.1-0.1,9.4,4.4,9.4,11.9
		C343.6,605.4,340.5,610,333.7,609.9z M327.6,598.1c3.1,3.1,5,6.6,6.6,6.3c1.8-0.3,4.4-4.1,4.3-6.3c0-2.3-2.6-6.1-4.3-6.5
		C332.7,591.3,330.7,594.9,327.6,598.1z"/>
	<path class="st13" d="M1046.6,610c-5,0.5-8.2-3.8-8.4-11.4c-0.2-7.5,2.7-12.2,8.9-12.5c6.1-0.2,9.5,4,9.7,11.5
		C1056.9,605,1054,609.8,1046.6,610z M1054.1,597.4c-3.2-2.8-5.4-6.2-6.9-5.8c-1.7,0.5-4,4.5-4,6.8c0.1,2.2,2.9,5.8,4.6,5.9
		C1049.4,604.4,1051.2,600.8,1054.1,597.4z"/>
	<path class="st11" d="M1041.2,354.8c1.5-1.3,2.9-3,4.5-3.9c3.7-2,7.7-5.5,11.3-4.8c2.3,0.4,5.6,6.9,5.6,10.7c0,3.8-3,10.4-5.3,11
		c-3.5,0.8-7.6-2.4-11.4-4.4c-1.7-0.9-3.1-2.8-4.7-4.2C1041.2,357.8,1041.2,356.3,1041.2,354.8z M1046.8,357.1
		c3.2,3.2,5.4,6.9,6.7,6.4c2.1-0.8,4.5-4.1,4.9-6.8c0.3-1.8-2.8-6.4-4.3-6.3C1052.1,350.6,1050.1,353.9,1046.8,357.1z"/>
	<path class="st11" d="M1111.6,836.9c1.5-1.3,2.9-3,4.5-3.9c3.7-2,7.7-5.5,11.3-4.8c2.3,0.4,5.6,6.9,5.6,10.7c0,3.8-3,10.4-5.3,11
		c-3.5,0.8-7.6-2.4-11.4-4.4c-1.7-0.9-3.1-2.8-4.7-4.2C1111.6,839.8,1111.6,838.4,1111.6,836.9z M1131.5,839.4
		c-3.4-3.4-5.3-6.7-7.3-6.9c-1.5-0.1-4.7,4.3-4.4,6.1c0.4,2.7,2.8,6.1,4.8,6.9C1125.9,846.1,1128.2,842.5,1131.5,839.4z"/>
	<path class="st17" d="M923.3,598.9c0,0,0,0.3,0,0.3c0-3.5,0-7-0.1-10.5c0,0,0,0,0,0c1.4-0.1,2.9,0.2,4.1-0.5
		c5.7-3.5,11.6-4.1,13.9,4.6c1.1,4.3-0.8,13.3-3.4,15.4c-5.3,4.1-11.5,2.9-13.7-7.3C924,600.2,923.6,599.5,923.3,598.9z
		 M933.5,587.8c-2.4,4.7-4.7,7.2-4.6,9.6c0.1,2.5,2.4,4.9,3.7,7.4c1.8-2.2,4.5-4.2,5.1-6.8C938.1,595.9,935.7,592.9,933.5,587.8z"/>
	<path class="st17" d="M434.4,368.8c-6,0.2-8.8-4.7-8.6-12.3c0.1-7.1,3.1-11.4,8.9-11.5c6.1-0.1,9.5,4.1,9.5,11.9
		C444.2,364.7,440.9,369,434.4,368.8z M435.4,367.1c2.1-5,4.2-7.9,3.9-10.2c-0.3-2.5-2.8-4.6-4.4-6.8c-1.6,2.6-4,4.9-4.4,7.8
		C430.3,359.8,432.8,362.5,435.4,367.1z"/>
	<path class="st16" d="M492.1,352c-2.6-0.6-5.1-1.3-7.7-1.9c-0.2,0.7-0.4,1.4-0.6,2.2c2.3,1.3,5.2,1.8,6.8,4.1
		c1.5,2.3,1.7,6.2,2.4,9.4c-3.8,0.7-7.6,1.4-11.4,2.1c-0.2-2.4-0.4-4.8-0.5-7.2c-0.1-1.1,0.1-2.2,0.1-3.4c0.2-3.8,0.5-7.6,0.8-11.5
		c3.6,0.8,7.2,1.6,10.9,2.4C492.5,349.4,492.3,350.7,492.1,352z M483.2,358.9c-0.4,1-0.8,1.9-1.3,2.9c1.8,0.7,3.6,1.5,5.4,2.2
		c0.2-0.7,0.4-1.5,0.6-2.2C486.3,360.9,484.7,359.9,483.2,358.9z"/>
	<path class="st17" d="M458.7,586.1c5.4,0.3,8.6,4.7,8.4,12.5c-0.2,7.9-3.7,11.5-9.8,11.3c-6-0.2-8.5-4.7-8.6-11.7
		C448.6,590.4,451.8,586,458.7,586.1z M464.3,598.1c-2.9-3.1-5.2-7.1-6.2-6.6c-2,1.1-4.2,4.3-4.6,7.2c-0.2,1.6,2.9,5.6,4.6,5.7
		C459.7,604.5,461.5,601.1,464.3,598.1z"/>
	<path class="st16" d="M514.9,593.1c-2.5-0.6-5.1-1.3-7.6-1.9c-0.2,0.7-0.4,1.4-0.6,2.1c2.5,1.5,5.6,2.2,7.4,4.6
		c1.4,1.8,1.3,5.7,1.8,8.7c-4,0.6-8,1.3-11.9,1.9c-0.2-2.2-0.5-4.4-0.5-6.6c0-1.1,0.7-2.1,0.8-3.2c0.1-3.8,0-7.6,0-11.4
		c3.8,0.4,7.5,0.9,11.3,1.3C515.3,590,515.1,591.5,514.9,593.1z M510.2,605.3c0.2-0.8,0.5-1.5,0.7-2.3c-1.7-1-3.4-2-5.1-3
		c-0.3,0.9-0.6,1.8-0.8,2.8C506.7,603.7,508.4,604.5,510.2,605.3z"/>
	<path class="st16" d="M1062.6,834.1c-2.6-0.7-5.1-1.4-7.7-2.1c-0.2,0.9-0.5,1.8-0.7,2.7c2,0.9,4.5,1,5.9,2.8c1.8,2.3,2.7,5.8,4,8.8
		c-3.8,1.3-7.7,3.5-11.5,3.6c-1.7,0-6.3-3.8-0.8-7.5c0.3-0.2-0.3-2.2-0.2-3.3c0.3-3.8,0.7-7.5,1.1-11.3c3.6,0.8,7.1,1.7,10.7,2.5
		C1063,831.5,1062.8,832.8,1062.6,834.1z M1053.4,841.1c-0.3,0.9-0.5,1.8-0.8,2.6c1.8,0.9,3.5,1.8,5.3,2.7c0.2-0.8,0.5-1.6,0.7-2.5
		C1056.8,843,1055.1,842,1053.4,841.1z"/>
	<path class="st11" d="M964,586.1c6.3,0.2,9.3,4.6,9.1,12.4c-0.2,7.9-3.6,11.6-9.7,11.3c-5.9-0.2-8.5-4.4-8.5-11.6
		C954.9,590.2,958.1,586.2,964,586.1z M963.9,607.9c2.4-4.4,5-7.1,4.8-9.1c-0.4-2.9-2.9-5.2-4.5-7.8c-1.7,2.5-4.3,4.7-4.7,7.6
		C959.1,600.6,961.6,603.4,963.9,607.9z"/>
	<path class="st11" d="M1016.4,597.9c0.7-8.5,4.1-12.2,10-11.8c6.3,0.5,8.7,5.6,8.3,13.2c-0.4,7.4-3.8,10.6-9.4,10.5
		C1018.9,609.7,1016.7,604.8,1016.4,597.9z M1033.2,598c-3.8-3.4-5.9-6.6-8-6.5c-1.5,0-4.1,4.3-4.1,6.7c0,2.2,2.7,6.3,4.2,6.4
		C1027.4,604.5,1029.4,601.4,1033.2,598z"/>
	<path class="st12" d="M869.9,834.3c1.4,0.8,3.2,1.1,4.3,2.4c2.2,2.8,3.9,6,5.8,9.1c-3.2,1.6-6.4,4.5-9.6,4.6
		c-3.4,0-5.1-1.8-3.8-8.7c2.6-14.7,4.4-18.1,11.5-11.9c0.6,0.5,0.8,1.9,1.7,4c-3.6-0.5-6.6-0.9-9.5-1.3
		C870.1,833.1,870,833.7,869.9,834.3z M869.1,841c-0.2,1.1-0.5,2.2-0.7,3.3c2.2,0.3,4.4,0.7,6.6,0.9c0,0,0.2-1.2,0.3-2.6
		C873.2,842.1,871.1,841.5,869.1,841z"/>
	<path class="st18" d="M1024,839.3c-0.4,7.9-3.5,11.7-9.6,11.5c-6.4-0.2-8.8-4.9-8.6-12.6c0.2-7.4,3.4-11,9-11
		C1021,827.2,1023.8,831.6,1024,839.3z M1022.2,839.2c-3.5-3.3-5.5-6.6-7.6-6.7c-1.5-0.1-4.6,4.5-4.4,6.3c0.4,2.7,2.9,6.1,5,6.8
		C1016.6,846.1,1018.8,842.4,1022.2,839.2z"/>
	<path class="st12" d="M900.8,835.3c-4.8-0.4-8.3-0.7-11.8-1.1c0,3.2,0,6.5,0.1,9.7c3.5-0.4,7-0.8,10.6-1.2c0.5,0.5,1,0.9,1.5,1.4
		c-2.7,2.2-5.3,5.6-8.2,6.4c-5.5,1.5-9.7-2.8-9.4-9.8c0.3-4.6,3.2-11,6.2-12.9C894.3,825.2,899.2,827.3,900.8,835.3z"/>
	<path class="st18" d="M447.5,356.3c0.6-8.2,4.1-11.6,10-11.1c5.8,0.5,8.3,5,8.2,12.1c-0.1,8-3.5,11.6-9.6,11.4
		C449.7,368.6,447.6,363.7,447.5,356.3z M463.9,356.7c-3.5-3.1-5.6-6.3-7.7-6.3c-1.5,0-4.5,4.8-4.2,6.6c0.5,2.7,3.1,6,5.2,6.6
		C458.6,363.9,460.7,360.1,463.9,356.7z"/>
	<path class="st12" d="M1082.6,593.1c-2.6-0.7-5.2-1.3-7.8-2c-0.2,0.7-0.3,1.5-0.5,2.2c1.6,0.8,3.5,1.1,4.7,2.5
		c2.1,2.5,3.7,5.6,5.5,8.5c-3.4,1.8-6.8,4-10.3,4.9c-0.6,0.2-2.1-5.1-3-8c-0.4-1.3-0.6-2.9-0.3-4.2c0.6-3.5,1.2-9.8,2.2-9.9
		c3.5-0.5,7.1,1.2,10.7,2C1083.3,590.5,1083,591.8,1082.6,593.1z M1073.4,599.8c-0.3,1.1-0.5,2.2-0.8,3.3c2.3,0.6,4.5,1.3,6.8,1.9
		c0.2-1,0.4-2,0.5-3.1C1077.8,601.3,1075.6,600.5,1073.4,599.8z"/>
	<path class="st11" d="M489,597.9c-0.3,7.3-2.7,11.9-9.1,12c-5.7,0.1-8.9-3.3-9.2-10.7c-0.3-7.7,2.2-12.5,8.5-13
		C485.2,585.8,488.4,589.6,489,597.9z M479.4,607.9c2.5-4.3,5.2-6.9,5-9c-0.3-2.9-2.8-5.3-4.4-8c-1.7,2.4-4.3,4.6-4.9,7.4
		C474.8,600.4,477.3,603.4,479.4,607.9z"/>
	<path class="st18" d="M1041.2,354.8c0,1.5,0,2.9,0,4.4c-0.8,9.7-6.4,11.1-11.5,8.8c-2.8-1.3-6-7.7-5.8-11.6
		c0.1-3.9,3.8-9.5,6.7-10.7C1035.7,343.6,1040.5,346.1,1041.2,354.8z M1033,367c2.1-4.6,4.6-7.7,4.2-9.7c-0.6-2.8-3.3-4.9-5.1-7.4
		c-1.6,2.7-4,5.2-4.3,8.1C1027.6,360.1,1030.4,362.7,1033,367z"/>
	<path class="st18" d="M1111.6,836.9c0,1.5,0,2.9,0,4.4c-0.8,9.7-6.4,11.1-11.5,8.8c-2.8-1.3-6-7.7-5.8-11.6
		c0.1-3.9,3.8-9.5,6.7-10.7C1106.1,825.6,1111,828.1,1111.6,836.9z M1103.3,828.7c-2.6,4.7-5.3,7.4-5.1,9.5c0.3,2.8,2.9,5.2,4.5,7.8
		c1.7-2.1,4.8-4,4.9-6.2C1107.8,837,1105.5,834,1103.3,828.7z"/>
	<path class="st19" d="M438.3,609.2c0-8.6,0-17.1,0-25.4c-3.2-1.5-5.5-2.5-7.7-3.5c0.1-0.7,0.2-1.4,0.2-2.1c6.3,0,12.6,0,19,0
		c0.1,0.8,0.2,1.5,0.3,2.3c-2.2,0.8-4.4,1.6-7.1,2.6c-0.3,8.6-0.7,17.7-1.1,26.7C440.7,609.6,439.5,609.4,438.3,609.2z"/>
	<path class="st19" d="M1086.8,824.5c0,8.9,0,17.3,0,25.7c-1.1,0.2-2.1,0.5-3.2,0.7c-0.6-8.5-1.2-17-1.9-26.4
		c-1.9-0.9-4.3-2.1-6.7-3.3c0.1-0.7,0.2-1.4,0.3-2.1c6.3,0,12.6,0,18.9,0c0.2,0.7,0.3,1.5,0.5,2.2
		C1092.4,822.2,1090.1,823.1,1086.8,824.5z"/>
	<path class="st19" d="M325.2,337.1c6.3,0,12.6,0,19,0c0.1,0.8,0.2,1.6,0.2,2.4c-2.2,0.8-4.5,1.6-8,2.9c0,8.3,0,17.2,0,26.1
		c-1,0.1-1.9,0.1-2.9,0.2c0-8.4,0-16.8,0-24.9c-4-2.3-6.4-3.7-8.9-5.1C324.9,338.1,325,337.6,325.2,337.1z"/>
	<path class="st20" d="M415.3,342.9c-3.7-1.6-5.8-2.6-8-3.6c0.1-0.7,0.1-1.4,0.2-2.1c6.3,0,12.5,0,18.8,0c0.2,0.6,0.4,1.2,0.5,1.8
		c-2.3,1.1-4.6,2.2-7.3,3.4c-0.3,8.6-0.6,17.4-0.9,26.3c-1.1-0.1-2.2-0.1-3.3-0.2C415.3,360.1,415.3,351.7,415.3,342.9z"/>
	<path class="st21" d="M999.2,577.9c6.2,0,12.4,0,18.6,0c0.1,0.7,0.2,1.4,0.3,2c-2.4,1.1-4.9,2.3-7.5,3.5c-0.3,8.6-0.6,17.3-0.9,26
		c-0.9,0-1.8-0.1-2.7-0.1c0-8.4,0-16.8,0-25.3c-3.4-1.8-5.8-3.2-8.3-4.5C998.8,579.1,999,578.5,999.2,577.9z"/>
	<path class="st19" d="M384.4,349.7c0-1.4,0-2.7,0-4.1c1.4-2.5,2.9-5,4.4-7.6c2.4,3.3,4.6,6.4,6.8,9.6c-5.7,6.3-5.9,12.1-0.2,18.6
		c-7.2,3.9-8.1,3.1-8.8-6.5C386.4,356.3,385.2,353.1,384.4,349.7z"/>
	<path class="st18" d="M978.3,609.4c0-7.4,0-14.7,0-22.4c2.9,0,5.9,0,9.8,0c-2.4,3.7-5.1,6.4-6,10c-1,3.8-0.2,8.3-0.2,12.5
		C980.6,609.5,979.5,609.5,978.3,609.4z"/>
	<path class="st15" d="M1015.8,343c0,8.6,0,16.9,0,25.3c-0.7,0-1.5,0-2.2,0c0-8.3,0-16.7,0-25.2c-3.4-1.6-5.8-2.8-8.1-3.9
		c0.1-0.7,0.2-1.4,0.3-2c6,0,12,0,18,0c0.2,0.5,0.3,1.1,0.5,1.6C1021.9,339.9,1019.7,341,1015.8,343z"/>
	<path class="st22" d="M950,610.2c-4.7-6.2-5.1-24.7,0-36C950,587.6,950,598.3,950,610.2z"/>
	<path class="st22" d="M929.4,818.3c0,10.6,0,21.2,0,32.1C924.2,846.6,923.4,827,929.4,818.3z"/>
	<path class="st19" d="M899.6,333c0,13.9,0,24.5,0,35.5C894.2,364.4,893.5,344.4,899.6,333z"/>
	<path class="st21" d="M1112.2,155.9c-1.8,5.3-3.5,10.4-5.2,15.6c-0.9-5.4-2.5-10.8-2.5-16.1c0-4.9,1.8-9.8,2.8-14.7
		C1108.9,145.3,1110.4,150,1112.2,155.9z"/>
	<path class="st22" d="M858,850.6c0-7.6,0-15.3,0-22.9c0.9-0.1,1.9-0.2,2.8-0.3c0.3,7.6,0.5,15.1,0.8,22.7
		C860.3,850.3,859.2,850.4,858,850.6z"/>
	<path class="st23" d="M496.7,577.4c0,10.6,0,21.2,0,31.8c-0.7,0-1.4,0-2,0.1c0-10.6,0-21.2,0-31.8
		C495.3,577.4,496,577.4,496.7,577.4z"/>
	<path class="st24" d="M1063.7,577.4c0,10.6,0,21.2,0,31.8c-0.6,0.1-1.2,0.1-1.8,0.2c0-10.6,0-21.2,0-31.8
		C1062.5,577.5,1063.1,577.4,1063.7,577.4z"/>
	<path class="st25" d="M935.8,850.2c0-10.6,0-21.2,0-31.7c0.7,0,1.4-0.1,2.1-0.1c0,10.6,0,21.2,0,31.8
		C937.2,850.1,936.5,850.2,935.8,850.2z"/>
	<path class="st25" d="M473.4,336.4c0,10.6,0,21.1,0,31.7c-0.7,0-1.4,0.1-2.1,0.1c0-10.6,0-21.2,0-31.8
		C472,336.5,472.7,336.4,473.4,336.4z"/>
	<path class="st23" d="M1141,818.4c0,10.6,0,21.2,0,31.8c-0.7,0-1.4,0-2,0.1c0-10.6,0-21.2,0-31.8
		C1139.7,818.5,1140.4,818.5,1141,818.4z"/>
	<path class="st24" d="M1068.4,368.2c0-10.6,0-21.1,0-31.7c0.6-0.1,1.3-0.1,1.9-0.2c0,10.6,0,21.2,0,31.8
		C1069.7,368.1,1069.1,368.1,1068.4,368.2z"/>
	<path class="st12" d="M1532.6,368.1c-9.6,1.1-9.6,1.1-15.3-9.4c-2.3,10.3-8.3,12.4-14.6,9.3c-7.9-4-5.9-14-5.3-22.2
		c0.5-8.1,5-10.4,10.7-10.1c5.8,0.3,8,4.2,8.7,12.2c-2-0.5-3.6-0.3-4-1.1c-2.4-5.1-6.2-9.9-9.2-3.3c-2.1,4.5-0.4,12.2,0.2,18.3
		c0,0.4,5.4,1.5,6.6,0c5.2-6.8,9.6-6.9,14.7,0.1c1.2,1.6,4.2,1.1,6.4,0.9c0.5,0,1.6-3.2,1.3-3.6c-1.3-1.8-3-3-4.5-4.6
		c-2.9-3.1-6.3-5.8-8.4-9.7c-0.6-1.1,2.4-5.9,4.1-8.6c0.4-0.6,2,0,4.2,0.2c-1.7,3.4-2.9,5.7-4.6,9.1c3.9,2.3,7.4,4.5,10.9,6.6
		C1533.8,357.6,1533.2,362.9,1532.6,368.1z"/>
	<path class="st7" d="M1541.4,357.7c1.5,1,2.8,2.4,4.4,3c2.8,1.1,5.8,1.7,8.7,2.5c0.4-1.5,0.7-3.1,1.1-4.6c-2.1-1.3-4.5-2.2-6.2-4.1
		c-2.9-3.4-5.4-7.4-8-11.2c3.1-2.5,6.1-6.4,9.4-7.1c5.6-1.2,8.4,3.3,8.2,11.3c-4.3-2.5-8-4.7-11.8-6.9c-0.5,1.4-1.1,2.8-1.6,4.2
		c1.6,1.6,3.3,3.1,4.9,4.7c3.1,3.3,6.5,6.2,8.8,10.2c0.5,0.9-2.4,7.5-4.5,8.2c-5,1.7-10.7,3-13.3-5.9
		C1541.4,360.5,1541.4,359.1,1541.4,357.7z"/>
	<path class="st12" d="M1654.5,352.1c-2.6-0.6-5.2-1.2-7.8-1.8c-0.2,0.6-0.3,1.1-0.5,1.7c1.3,0.9,2.9,1.4,3.9,2.7c2.2,2.8,4,6,6,9.1
		c-3.2,1.7-6.4,4.6-9.6,4.6c-3.2,0.1-7.2-2.1-3.3-8.4c0.3-0.5-0.5-2.1-0.4-3.2c0.3-3.7,0.6-10.4,1.3-10.5c3.7-0.4,7.5,0.8,11.3,1.4
		C1655.1,349.2,1654.8,350.6,1654.5,352.1z"/>
	<path class="st11" d="M1606.5,354.7c1.5-1.3,2.9-3,4.5-3.9c3.8-2,7.9-5.4,11.4-4.7c2.3,0.5,5.5,7.1,5.5,11c0,3.8-3.3,10.4-5.7,10.8
		c-3.6,0.6-7.6-2.9-11.3-4.9c-1.6-0.9-3-2.4-4.4-3.7C1606.5,357.8,1606.5,356.3,1606.5,354.7z M1619.9,346.8c-2.8,4.5-5.5,7-5.3,9.1
		c0.2,2.8,2.7,5.3,4.2,8c1.8-1.9,4.8-3.7,5-5.8C1624,355.2,1621.9,352.1,1619.9,346.8z"/>
	<path class="st18" d="M1606.5,354.7c0,1.5,0,3.1,0,4.6c-0.9,9.7-6.4,11-11.5,8.7c-2.8-1.3-6-7.7-5.8-11.6c0.1-3.9,3.8-9.5,6.7-10.8
		C1600.9,343.6,1605.8,346,1606.5,354.7z M1597.4,367c2.6-4.3,5.4-7,5.1-9c-0.4-2.9-2.9-5.4-4.5-8c-1.7,2.5-4.4,4.7-4.9,7.5
		C1592.7,359.5,1595.2,362.4,1597.4,367z"/>
	<path class="st15" d="M1579.1,342.4c-4-1.2-6.2-1.9-8.4-2.5c0-0.7,0-1.5,0-2.2c6.1,0,12.3,0,18.4,0c0.1,0.5,0.2,1,0.4,1.5
		c-2.2,0.9-4.3,1.8-7.7,3.2c0,8.2,0,17,0,25.9c-0.9,0.1-1.8,0.1-2.6,0.2C1579.1,360,1579.1,351.5,1579.1,342.4z"/>
	<path class="st23" d="M1633.4,368.2c0-10.6,0-21.2,0-31.8c0.7,0,1.4-0.1,2.1-0.1c0,10.6,0,21.3,0,31.9
		C1634.8,368.2,1634.1,368.2,1633.4,368.2z"/>
	<path class="st14" d="M1541.4,357.7c0,1.4,0.1,2.8,0.1,4.3c-2.9,2.1-5.9,4.1-8.8,6.2c0.6-5.3,1.2-10.6,1.9-15.8
		C1536.8,354.1,1539.1,355.9,1541.4,357.7z"/>
	<path class="st12" d="M1534.4,347.1c-1.7-3.7-3.3-7.3-4.6-10.3c0.3,0.1,2.5,0.8,4.8,1.4C1534.5,341.2,1534.4,344.2,1534.4,347.1z"
		/>
	<path class="st14" d="M1534.4,347.1c0-2.9,0.1-5.9,0.1-8.8C1538.4,344.6,1538.4,345.2,1534.4,347.1z"/>
	<path class="st20" d="M1554.8,594c-4.7,3.6,0.5,19.7-10.9,14.9c-1.1-3.8-2.1-7.6-3.8-13.7c-1.3,6.4-2.2,10.5-3,14.7
		c-0.7-0.1-1.3-0.2-2-0.3c0-10.5,0-21.1,0-32.1c2,0,4.5,0,7.1,0c1.5,7.3,2.8,14.1,4.2,20.9c0.6,0,1.1,0,1.7,0
		c1.4-6.8,2.8-13.5,4.3-20.9c2.4,0,4.9,0,7.7,0c0,10.6,0,21.1,0,31.6c-0.9,0.2-1.8,0.5-2.7,0.7
		C1556.5,604.6,1555.7,599.3,1554.8,594z"/>
	<path class="st17" d="M1423.4,597c1.5,2.2,2.8,4.9,4.7,6.3c1.6,1.2,3.9,1.1,5.8,0.8c0.7-0.1,2-2.9,1.8-3.2c-1.1-1.9-2.5-3.6-4-5
		c-0.6-0.6-2-0.1-2.5-0.7c-2.4-3.7-4.5-7.6-6.7-11.4c3.5-2.3,6.9-6.2,10.6-6.6c5.3-0.6,6.1,2,6.2,11c-3.6-2.1-7.4-4.3-11.1-6.5
		c-0.5,1.4-1.1,2.9-1.6,4.3c1.7,1.5,3.3,3.7,5.2,4.3c4.8,1.5,10,3.4,8.7,11.2c-0.6,3.4-4.9,7.1-8,8
		C1426.7,611.2,1422.3,608,1423.4,597z"/>
	<path class="st16" d="M1516.8,607.9c-4.2,0.6-8.5,2-12.6,1.4c-3.1-0.4-8.2-2.8-8.6-5.4c-1.3-7.2,3.3-8.4,7.8-8.4
		c0.9,0,1.9-0.5,2.8-0.8c-0.1-1-0.2-2-0.2-2.9c-3.2,0.3-6.3,0.7-9.5,1c-0.2-0.9-0.4-1.9-0.6-2.8c3.3-1.2,6.8-3.9,9.8-3.1
		c2.1,0.5,3.9,5.5,5.2,8.9c1.2,3.3,1.5,7.2,2.2,10.8c1.2-0.2,2.5-0.5,3.7-0.7c0-9,0-18.1,0-27.1
		C1516.8,588.4,1516.8,598.1,1516.8,607.9z"/>
	<path class="st16" d="M1634.3,608.8c-3.3,0.3-6.8,1.6-9.9,0.7c-2.8-0.8-5.2-4-7.8-6.1c2.3-2.6,4.5-5.5,7-7.7c1-0.9,2.6-0.5,3.9-3.5
		c-3.1,0.2-6.2,0.4-9.3,0.7c-0.3-0.9-0.5-1.7-0.8-2.6c3.1-1.3,6.5-4.1,9.3-3.5c2.2,0.5,4.4,5.1,5.5,8.5
		C1633.6,599.1,1633.6,603.7,1634.3,608.8z"/>
	<path class="st16" d="M1581.8,599.8c-4.6,0.3-8.3,0.6-12,0.9c0,0.8,0,1.6-0.1,2.4c3.3,0,6.7,0,10,0c0.2,1.1,0.5,2.2,0.7,3.4
		c-3.5,1-8.1,4.3-10.3,2.5c-3-2.4-5.7-8.9-5.5-13.3c0.2-3.4,4.8-8.4,8-9.2C1579.1,584.9,1581.2,591.2,1581.8,599.8z"/>
	<path class="st17" d="M1704.8,601.1c-3.6,2.9-7,7.3-10.9,8.4c-6.1,1.6-9.1-4.1-9-11.6c0.1-7.6,3.4-13.1,9.2-11.4
		c3.9,1.1,7.2,5.8,10.7,8.9C1704.8,597.3,1704.8,599.2,1704.8,601.1z M1700.6,598.3c-2.8-3.2-5.1-7.3-6.1-6.8c-2.1,1-4.3,4.2-4.8,7
		c-0.3,1.6,2.7,5.7,4.5,5.9C1695.8,604.6,1697.7,601.2,1700.6,598.3z"/>
	<path class="st13" d="M1671.7,609.9c-5.2,0.4-8.3-4.1-8.4-11.7c-0.1-7.6,3.1-12.1,9.2-12.2c6.1-0.1,9.4,4.3,9.4,11.9
		C1682,605.4,1678.8,609.9,1671.7,609.9z M1679.2,598.8c-2.9-3.5-4.6-7.2-6.3-7.2c-1.6,0-4.4,3.7-4.5,6c-0.1,2.3,2.2,6.2,4,6.7
		C1673.9,604.8,1676,601.5,1679.2,598.8z"/>
	<path class="st17" d="M1463.5,601.1c-3.6,2.9-7,7.3-10.9,8.4c-6.1,1.6-9.1-4-9-11.6c0.1-7.6,3.3-13.1,9.2-11.4
		c3.9,1.1,7.2,5.8,10.7,8.9C1463.5,597.3,1463.5,599.2,1463.5,601.1z M1452.6,587.8c-2.2,4.9-4.4,7.6-4.3,10c0.1,2.5,2.6,4.7,4,7
		c1.7-2.4,4.4-4.5,4.8-7.2C1457.5,595.5,1455,592.7,1452.6,587.8z"/>
	<path class="st17" d="M1482.6,602.5c-1.5,8.3-6.9,8.9-11.5,6.6c-2.6-1.3-5.7-7.5-5.4-11.1c0.3-4.1,3.5-9.7,6.5-11.3
		c4.5-2.4,9.1-0.2,10.4,6.5c-4.3,0.6-8.3,1-12.3,2c-0.2,0,0.1,7,0.5,7C1474.5,602.7,1478.2,602.5,1482.6,602.5z"/>
	<path class="st13" d="M1722.9,594.9c2.8,2.3,5.7,4.3,8.2,7.1c0.4,0.5-1.2,6-2.3,6.3c-3.2,0.9-7,1.5-10,0.2c-3.2-1.4-4.4-5,0-7.6
		c2.2,1.5,4.5,3,6.7,4.5c0.3-1.2,0.7-2.5,1-3.7c-2.3-0.6-4.6-1.2-7-1.8c-0.5-4.1-2.2-10.9-1.1-11.8c4.1-3.5,8.9-4,12.4,5.2
		c-2.7-0.7-4.2-1-5.6-1.4c-1.3-0.1-2.6-0.1-3.9-0.2C1721.8,592.8,1722.3,593.9,1722.9,594.9z"/>
	<path class="st23" d="M1599.2,584.1c0-0.3,0.4-3.5,0.7-6.7c0.7-0.1,1.4-0.1,2.1-0.2c0,10.3,0,20.6,0,33.3
		c-4.8-1.6-10.6-2.4-15.2-5.9c-1.5-1.1-1.7-10.5,0.1-13.4C1589,587.6,1593.9,586.9,1599.2,584.1z M1601.8,597.2
		c-3.9-3-6.4-6.5-8.1-5.9c-1.9,0.7-4,4.9-4.2,7.8c-0.1,1.7,3.3,5.7,4.9,5.5C1596.5,604.4,1598.3,601,1601.8,597.2z"/>
	<path class="st21" d="M1656.9,583.2c-0.4,9.1-0.7,17.7-1,26.3c-1,0-2-0.1-3-0.1c-0.3-8.7-0.6-17.4-0.9-26.3c-2.3-1-4.6-1.9-6.8-2.8
		c0.1-0.7,0.1-1.4,0.2-2.1c6.2,0,12.5,0,18.7,0c0.1,0.7,0.2,1.3,0.3,2C1661.8,581.3,1659.3,582.3,1656.9,583.2z"/>
	<path class="st22" d="M1711,575.4c0,12.8,0,23.5,0,36.2C1705.9,602.5,1705.9,583.6,1711,575.4z"/>
	<path class="st23" d="M1516.8,607.9c0-9.7,0-19.4,0-29.2c1.1,0,3.2,0,3.2,0c0.1,9.7,0.1,19.5,0.1,29.2
		C1519,607.9,1517.9,607.9,1516.8,607.9z"/>
	<path class="st26" d="M1038.3,165.8c-1.4-3.4-4.3-7.2-3.9-10.3c0.4-3.4,3.8-6.2,5.9-9.3c2.1,3.1,5.6,6,5.9,9.4
		c0.3,3.1-2.8,6.7-4.5,10.2C1040.5,165.8,1039.4,165.8,1038.3,165.8z"/>
	<path class="st26" d="M1078.9,156.6c-4.4,3.9-7.2,8.1-9.4,7.7c-2.3-0.5-5.6-5.8-5.5-8.6c0.2-3.2,3.7-8.4,5.9-8.5
		C1072.3,146.9,1074.7,151.8,1078.9,156.6z"/>
	<path class="st27" d="M858.2,166.3c-1.7-3.3-4.8-6.8-4.6-9.9c0.3-3.5,3.6-6.6,5.6-9.9c2.1,3,5.5,5.7,6.1,9.1
		c0.5,3.1-2.2,7-3.5,10.5C860.5,166.1,859.3,166.2,858.2,166.3z"/>
	<path class="st27" d="M888.1,142c2.8,7,5.6,10.8,5.3,14.2c-0.3,3.2-3.8,5.9-5.9,8.8c-2-3.1-5.5-6.1-5.7-9.3
		C881.6,152.3,884.7,148.7,888.1,142z"/>
	<path class="st0" d="M1149.5,158.8c2.2,0.9,4.5,1.7,6.7,2.6c-0.3,1.4-0.6,2.8-1,4.2c-2.5-1.5-4.9-3-7.4-4.4
		C1148.4,160.3,1148.9,159.5,1149.5,158.8z"/>
	<path class="st26" d="M416.2,598.4c-3,2.9-5.3,6.6-6.5,6.1c-2.1-0.9-3.6-4.5-5.3-6.9c1.9-2.2,3.6-5.6,5.8-6.1
		C411.5,591.1,413.5,595,416.2,598.4z"/>
	<path class="st28" d="M969.8,356.4c-2.8,3.3-5,7.4-6,6.9c-2.1-0.9-4.4-4.1-4.9-6.8c-0.3-1.6,2.7-5.7,4.4-6
		C964.9,350.2,966.8,353.5,969.8,356.4z"/>
	<path class="st0" d="M923.3,588.7c0,3.5,0,7,0.1,10.5c-2.5,1-4.9,2.2-7.5,2.9c-2.5,0.6-5.1,0.6-7.6,0.9c0-6.5,0.1-13,0.1-19.5
		c2.5,0.4,5.1,0.3,7.6,1.2C918.5,585.6,920.8,587.3,923.3,588.7z"/>
	<path class="st28" d="M362.2,597.5c-2.8,3.3-4.4,6.8-6.1,6.8c-1.7,0-5-3.9-4.8-5.4c0.4-2.9,2.4-6.2,4.5-7.5
		C356.7,590.9,359.3,594.6,362.2,597.5z"/>
	<path class="st0" d="M953.9,836.1c-2,0-4,0-6,0c-0.1-0.8-0.2-1.5-0.2-2.3c2-0.4,3.9-0.8,5.9-1.2
		C953.7,833.8,953.8,834.9,953.9,836.1z"/>
	<path class="st0" d="M938.8,351.7c2-0.6,3.9-1.1,5.9-1.7c0.2,1.2,0.3,2.4,0.5,3.6c-2,0.3-4,0.6-6,0.9
		C939,353.6,938.9,352.6,938.8,351.7z"/>
	<path class="st0" d="M327.6,598.1c3.1-3.2,5.1-6.8,6.6-6.5c1.8,0.4,4.3,4.1,4.3,6.5c0,2.2-2.6,6-4.3,6.3
		C332.6,604.7,330.7,601.2,327.6,598.1z"/>
	<path class="st0" d="M1054.1,597.4c-2.9,3.4-4.7,7-6.3,6.9c-1.7-0.1-4.5-3.7-4.6-5.9c-0.1-2.4,2.2-6.3,4-6.8
		C1048.7,591.2,1050.9,594.5,1054.1,597.4z"/>
	<path class="st26" d="M1046.8,357.1c3.3-3.2,5.3-6.5,7.3-6.6c1.5-0.1,4.6,4.5,4.3,6.3c-0.4,2.7-2.9,6-4.9,6.8
		C1052.2,364,1050,360.3,1046.8,357.1z"/>
	<path class="st26" d="M1131.5,839.4c-3.3,3.1-5.6,6.7-6.9,6.2c-2.1-0.8-4.5-4.2-4.8-6.9c-0.2-1.8,2.9-6.3,4.4-6.1
		C1126.2,832.7,1128.1,836,1131.5,839.4z"/>
	<path class="st28" d="M933.5,587.8c2.2,5,4.6,8.1,4.2,10.1c-0.5,2.7-3.3,4.6-5.1,6.8c-1.3-2.4-3.6-4.8-3.7-7.4
		C928.8,595.1,931.1,592.6,933.5,587.8z"/>
	<path class="st28" d="M435.4,367.1c-2.6-4.6-5.2-7.2-4.9-9.2c0.4-2.8,2.8-5.2,4.4-7.8c1.6,2.3,4.1,4.3,4.4,6.8
		C439.6,359.2,437.5,362,435.4,367.1z"/>
	<path class="st0" d="M483.2,358.9c1.6,1,3.1,1.9,4.7,2.9c-0.2,0.7-0.4,1.5-0.6,2.2c-1.8-0.7-3.6-1.5-5.4-2.2
		C482.3,360.9,482.7,359.9,483.2,358.9z"/>
	<path class="st28" d="M464.3,598.1c-2.8,3-4.7,6.4-6.3,6.3c-1.7-0.1-4.8-4.1-4.6-5.7c0.4-2.8,2.6-6.1,4.6-7.2
		C459.1,591,461.5,595,464.3,598.1z"/>
	<path class="st0" d="M510.2,605.3c-1.7-0.8-3.5-1.7-5.2-2.5c0.3-0.9,0.6-1.8,0.8-2.8c1.7,1,3.4,2,5.1,3
		C510.6,603.8,510.4,604.6,510.2,605.3z"/>
	<path class="st0" d="M1053.4,841.1c1.7,0.9,3.5,1.9,5.2,2.8c-0.2,0.8-0.5,1.6-0.7,2.5c-1.8-0.9-3.5-1.8-5.3-2.7
		C1052.8,842.8,1053.1,841.9,1053.4,841.1z"/>
	<path class="st26" d="M963.9,607.9c-2.3-4.5-4.8-7.3-4.5-9.3c0.5-2.8,3.1-5.1,4.7-7.6c1.6,2.6,4.1,4.9,4.5,7.8
		C969,600.8,966.4,603.5,963.9,607.9z"/>
	<path class="st26" d="M1033.2,598c-3.8,3.3-5.9,6.5-7.9,6.5c-1.5,0-4.3-4.1-4.2-6.4c0-2.4,2.6-6.6,4.1-6.7
		C1027.3,591.5,1029.4,594.7,1033.2,598z"/>
	<path class="st0" d="M869.1,841c2.1,0.5,4.2,1,6.2,1.6c-0.2,1.4-0.3,2.6-0.3,2.6c-2.2-0.2-4.4-0.6-6.6-0.9
		C868.6,843.2,868.8,842.1,869.1,841z"/>
	<path class="st29" d="M1022.2,839.2c-3.3,3.2-5.5,6.9-6.9,6.4c-2.1-0.7-4.6-4.1-5-6.8c-0.3-1.8,2.9-6.4,4.4-6.3
		C1016.7,832.6,1018.7,835.9,1022.2,839.2z"/>
	<path class="st29" d="M463.9,356.7c-3.2,3.4-5.3,7.2-6.7,6.8c-2.1-0.6-4.7-3.9-5.2-6.6c-0.3-1.8,2.7-6.6,4.2-6.6
		C458.3,350.4,460.4,353.6,463.9,356.7z"/>
	<path class="st0" d="M1073.4,599.8c2.2,0.7,4.4,1.5,6.6,2.2c-0.2,1-0.4,2-0.5,3.1c-2.3-0.6-4.5-1.3-6.8-1.9
		C1072.8,602,1073.1,600.9,1073.4,599.8z"/>
	<path class="st26" d="M479.4,607.9c-2.2-4.6-4.6-7.5-4.3-9.5c0.5-2.8,3.1-5,4.9-7.4c1.6,2.6,4.1,5.1,4.4,8
		C484.7,601,482,603.6,479.4,607.9z"/>
	<path class="st29" d="M1033,367c-2.6-4.3-5.4-6.9-5.2-8.9c0.3-2.9,2.8-5.4,4.3-8.1c1.8,2.4,4.5,4.5,5.1,7.4
		C1037.6,359.3,1035.1,362.3,1033,367z"/>
	<path class="st29" d="M1103.3,828.7c2.2,5.3,4.5,8.3,4.4,11.1c-0.1,2.2-3.1,4.1-4.9,6.2c-1.6-2.6-4.2-5-4.5-7.8
		C1098,836.1,1100.7,833.4,1103.3,828.7z"/>
	<path class="st26" d="M1619.9,346.8c2,5.4,4,8.5,3.8,11.3c-0.2,2.1-3.2,3.9-5,5.8c-1.5-2.6-4-5.2-4.2-8
		C1614.5,353.8,1617.2,351.3,1619.9,346.8z"/>
	<path class="st29" d="M1597.4,367c-2.2-4.6-4.7-7.5-4.3-9.5c0.5-2.8,3.2-5,4.9-7.5c1.6,2.6,4.2,5.1,4.5,8
		C1602.8,359.9,1600,362.6,1597.4,367z"/>
	<path class="st28" d="M1700.6,598.3c-2.9,2.9-4.8,6.3-6.4,6.1c-1.7-0.2-4.7-4.2-4.5-5.9c0.4-2.8,2.7-6,4.8-7
		C1695.5,591.1,1697.8,595.1,1700.6,598.3z"/>
	<path class="st0" d="M1679.2,598.8c-3.2,2.7-5.4,6-6.9,5.5c-1.7-0.5-4.1-4.5-4-6.7c0.1-2.3,2.9-6,4.5-6
		C1674.6,591.6,1676.3,595.3,1679.2,598.8z"/>
	<path class="st28" d="M1452.6,587.8c2.4,4.8,4.9,7.7,4.5,9.8c-0.4,2.7-3.1,4.8-4.8,7.2c-1.4-2.3-3.8-4.6-4-7
		C1448.2,595.4,1450.4,592.7,1452.6,587.8z"/>
	<path class="st2" d="M1719.5,599.9c2.3,0.6,4.6,1.2,7,1.8c-0.3,1.2-0.7,2.5-1,3.7c-2.2-1.5-4.5-3-6.7-4.5
		C1719,600.6,1719.2,600.3,1719.5,599.9z"/>
	<path class="st2" d="M1722.9,594.9c-0.5-1-1.1-2.1-1.6-3.1c1.3,0.1,2.6,0.1,3.9,0.2C1724.4,592.9,1723.6,593.9,1722.9,594.9z"/>
	<path class="st29" d="M1601.8,597.2c-3.5,3.7-5.4,7.1-7.4,7.4c-1.6,0.2-5-3.7-4.9-5.5c0.2-2.9,2.3-7,4.2-7.8
		C1595.4,590.7,1597.9,594.2,1601.8,597.2z"/>
</g>
</svg>
