<?xml version="1.0" encoding="utf-8"?>
<!-- Generator: Adobe Illustrator 25.0.0, SVG Export Plug-In . SVG Version: 6.00 Build 0)  -->
<svg version="1.1" id="Ebene_1" xmlns="http://www.w3.org/2000/svg" xmlns:xlink="http://www.w3.org/1999/xlink" x="0px" y="0px"
	 viewBox="0 0 1920 1080" style="enable-background:new 0 0 1920 1080;" xml:space="preserve">
<style type="text/css">
	.st0{fill:#FEFEFE;}
	.st1{fill:#EEEDF2;}
	.st2{fill:#F3F3F3;}
	.st3{fill:#2F3645;}
	.st4{fill:#35353F;}
	.st5{fill:#303440;}
	.st6{fill:#2C3344;}
	.st7{fill:#303542;}
	.st8{fill:#333846;}
	.st9{fill:#3B3F49;}
	.st10{fill:#54505C;}
	.st11{fill:#475777;}
	.st12{fill:#62505C;}
	.st13{fill:#504651;}
	.st14{fill:#474A61;}
	.st15{fill:#4F5362;}
	.st16{fill:#705B58;}
	.st17{fill:#573B49;}
	.st18{fill:#5A596F;}
	.st19{fill:#E8EBE8;}
	.st20{fill:#E0E3F0;}
	.st21{fill:#D4DBF0;}
	.st22{fill:#E1E4F3;}
	.st23{fill:#DDE3F2;}
	.st24{fill:#727CF4;}
	.st25{fill:#8997F4;}
	.st26{fill:#FDFBF8;}
	.st27{fill:#E6E6F2;}
	.st28{fill:#737CF4;}
	.st29{fill:#C2D0F4;}
</style>
<g>
	<g>
		<path class="st0" d="M1920,1080c-640,0-1280,0-1920,0C0,720,0,360,0,0c640,0,1280,0,1920,0C1920,360,1920,720,1920,1080z
			 M961.4,238.5c5.5-7.7,4.8-12.4-2.4-16.3c-3.7,0.5-10.1,0-10.6,1.7c-1.5,4.3-2.1,10.7,0.2,13.8C950.2,240,956.9,238.4,961.4,238.5
			z M325.6,222.2c-3.7,0.5-10.1,0-10.6,1.7c-1.5,4.3-2.1,10.7,0.2,13.8c1.6,2.3,8.4,0.7,12.8,0.8
			C333.6,230.8,332.9,226.1,325.6,222.2z M467.5,224.1c-3.8-1.6-7.6-3.2-12.9-5.4c0.5,9.2,0.8,15.5,1.2,23.9c6.3-7-1.8-20,11.8-18.7
			c0.3,3.6,0,7.3,1,10.7c2.1,7.3,7.7,8.3,12.5,3.4c-2.6-0.9-5.6-2-8.5-3.1c0.2-0.7,0.4-1.3,0.6-2c3.9-0.4,7.7-0.7,11.6-1.1
			C483.8,218.9,479.4,217.1,467.5,224.1z M1346.5,222.9c1.5,3.5,3.9,6.9,4.5,10.6c0.9,5.5,1.9,9.3,6.6,7.3c0-6.9,0-12.7,0-18.6
			c0.7,0,1.4,0,2.1,0c-2.2-2.9-4.4-5.8-6.4-8.4c-2.4,3.3-4.6,6.3-6.7,9.3c-4.7-2.4-9.5-5.6-15,0.5c4.1,0.7,7.2,1.2,10.3,1.7
			c-5.3,3.3-14.1,2.1-10.8,11.2c1.2,3.1,9,3.7,15.4,6C1346.5,233.7,1346.5,228.3,1346.5,222.9z M1296.7,222.5
			c-3.8-1-7.6-1.9-11.4-2.8c0,7.9,0,14.4,0,20.8c4.1-6.5,0.4-16.8,11.4-18.4c1.2,4.3,2.3,8.7,3.5,13c-4.3-8.3,1.3-9.7,8.7-11
			c0.7,5.8,1.4,11.2,2.1,16.6c2.4-3.5,2-7.2,2.9-10.6c0.5-2.1,2.7-3.8,4.2-5.7c1,1.9,2.6,3.6,3,5.6c0.7,3.5,0.7,7.1,1,10.7
			c1-0.1,2.1-0.2,3.1-0.2c0-4.3,0.7-8.7-0.2-12.8c-0.6-2.8-3.5-7.1-5.4-7.1C1311.9,220.4,1304.3,221.7,1296.7,222.5z M183.8,1004.7
			c-0.7,0-1.3,0-2,0c0.3,6.7,0.3,13.5,1.3,20.1c0.3,2,3.1,4.6,5.2,5.2c5.1,1.4,10.5,2.5,15.7,2.3c6.4-0.2,12.7-1.9,19-2.9
			c2.6-0.4,5.7-1.6,7.7-0.6c9.5,4.7,18.6,5.9,28.1,0.1c1.7-1.1,5,1,7.6,1c8.8,0,17.7-0.4,26.5-0.5c3.5,0,7.1,0.3,10.6,0.3
			c8.4,0,16.9-0.1,25.3-0.3c2.6-0.1,5.7-1.5,7.7-0.5c9.5,4.7,18.6,5.9,28.1,0.1c1.7-1.1,5,1,7.6,1c8.8,0,17.7-0.5,26.5-0.5
			c3.8,0,7.6,0.6,11.4,0.9c6.8,0.6,14.9,4,20.2,1.4c14.4-7.1,29.5,7.6,43.1-2.8c0.5-0.4,2.4,1.4,3.6,1.4c9.2-0.2,18.4-0.8,27.6-0.9
			c3.8-0.1,7.6,0.9,11.4,0.9c7.9,0,15.8-0.2,23.7-0.4c3.8-0.1,7.6-0.5,11.4-0.1c3.5,0.4,7.4,3.4,10.2,2.4
			c13.2-4.4,26.2,0.6,39.2,0.2c2.8-0.1,5.6-1.5,8.5-1.8c3.7-0.4,7.7-1.4,11.1-0.4c9.1,2.9,17.7,4.2,26.7-0.8
			c2.7-1.5,6.9,0.3,10.5,0.4c18.5,0.8,37,1.5,55.4,2.2c0.6,0,1.1-0.9,1.7-1c4.3-0.3,8.5-0.4,12.8-0.6c8.3-0.3,16.5-0.6,24.8-0.9
			c3.5-0.1,7.1-0.5,10.6-0.1c4.5,0.6,9.5,3.9,13.1,2.6c11.7-4.1,22.9,0.6,34.2,0.2c4.1-0.1,8-2.1,12.1-2.8c3.2-0.5,6.5-0.9,9.7-0.4
			c6.1,0.8,12.9,4.6,18,2.8c9.9-3.6,19,0.3,28.1-0.2c14.2-0.8,28.1,1,42.2,0.6c2.2-0.1,4.4-1.4,6.6-1.5c4.6-0.3,9.2-0.2,13.7-0.2
			c7.4,0,14.8,0.1,22.2,0.1c4.6,0,9.2-0.1,13.7-0.2c7.6-0.1,15.2-0.3,22.9-0.5c2.1-0.1,4.5-0.9,6.4-0.3c10,3.6,19.6,4.6,29.5-0.7
			c2.5-1.3,6.4,0.4,9.6,0.4c8.4,0.1,16.9-0.1,25.3-0.1c3.5,0,7.1-0.3,10.6,0.2c4.5,0.6,9.2,3.6,13.2,2.6c11.3-2.9,22.2,0,33.2,0.1
			c4.3,0.1,8.7-2.2,13.1-2.8c3.1-0.4,6.4,0.4,9.6,0.4c8.8-0.1,17.7-0.4,26.5-0.5c3.5,0,7.5-0.8,10.5,0.5c9.4,4.1,17.8,1.9,27.4-0.5
			c8.7-2.1,18.7,1.6,28.1,2.7c0.5,0.1,1.2-0.8,1.8-0.8c4.2-0.3,8.5-0.6,12.8-0.8c8.3-0.3,16.5-0.5,24.8-0.7
			c3.5-0.1,7.6-1.5,10.5-0.2c9,4.2,17.3,4.4,26.4-0.1c2.9-1.5,7.5,0.7,11.3,0.9c6.7,0.4,13.5,0.7,20.2,0.8c4.2,0,8.5-0.5,12.8-0.7
			c8.3-0.3,16.5-0.5,24.8-0.8c3.5-0.1,7.6-1.5,10.5-0.1c9,4.1,17.3,4.4,26.4-0.1c2.9-1.5,7.5,0.8,11.3,0.9c7,0.2,14,0.1,20.9,0.1
			c3.7,0,7.7-1.2,11.1-0.2c9.1,2.8,17.7,4.2,26.7-0.9c2.6-1.5,6.9,0.4,10.5,0.5c8.2,0.1,16.3-0.1,24.5-0.1c4.1,0,8.1,0.5,12.2,0.7
			c6.7,0.3,13.5,0.6,20.2,0.7c4.3,0,8.5-0.5,12.8-0.6c8.3-0.3,16.5-0.5,24.8-0.8c3.2-0.1,7-1.7,9.6-0.5c9.6,4.7,18.6,1.1,28.2,0.7
			c13.4-0.6,26.9,1.7,40.8-0.1c11.7-1.6,23.9,1.3,35.8,1.3c1.5,0,3.5-5,4.5-7.9c0.7-2,0-4.4-0.1-6.7c-0.2-9.1-0.4-18.2-0.5-27.3
			c0-2.5,0.4-5.1,0.4-7.6c0.1-8.8,0.2-17.6,0.1-26.4c0-2.9-2-6.5-1-8.7c5.1-10.2,4.7-19.9,0.2-30.1c-1-2.2-0.1-5.2,0-7.9
			c0.1-8.7,0.3-17.4,0.3-26.1c0-3-0.4-5.9-0.3-8.9c0.1-9.4,0.3-18.7,0.4-28.1c0-3.2,0.1-6.5,0.1-9.7c0.2-8.1,0.4-16.3,0.4-24.4
			c0-3.2-2-7.2-0.8-9.6c4.9-9.9,4.1-19.3,0-29.2c-1-2.4,0.2-5.8,0.3-8.7c0.1-8.4,0.1-16.8,0.1-25.2c0-3-1.6-6.6-0.5-8.8
			c5.2-9.9,4.1-19.3,0.2-29.2c-1-2.5,0.1-5.8,0.1-8.8c0.1-8.4,0.2-16.8,0.2-25.2c0-3-1.7-6.6-0.6-8.7c5.3-9.9,4.1-19.3,0.3-29.1
			c-1-2.5-0.4-5.9,0.1-8.8c0.6-3.9,2.4-7.6,2.6-11.5c0.6-12-4-23.7-0.3-36.1c1.5-5.1-3.6-12-2.5-17.4c2.1-10.1-3-10.2-9.7-10.1
			c-12.1,0.1-24.3,0.3-36.4,0c-17.1-0.4-34.1-1.5-51.2-1.8c-6.6-0.1-13.1,1.8-19.7,1.7c-17.4-0.3-34.8-1.2-52.2-1.8
			c-1.6-0.1-3.3,0.6-4.9,0.6c-5.9,0.1-11.7,0.1-17.6,0c-5.3-0.1-10.6-0.6-15.9-0.5c-16.7,0.5-33.4,1.7-50.2,1.7
			c-16.7,0-33.4-1.2-50.2-1.9c-2-0.1-4,0.1-6,0.2c-16.7,0.6-33.4,1.7-50.2,1.7c-17.1,0-34.1-1.2-51.2-1.8c-1.7-0.1-3.3,0.2-5,0.2
			c-16.7,0.6-33.4,1.6-50.2,1.6c-17-0.1-34.1-1.2-51.1-1.8c-2-0.1-4,0.5-5.9,0.5c-6.2,0-12.4,0-18.6-0.1c-5-0.1-10-0.5-14.9-0.3
			c-16.4,0.5-32.8,1.7-49.1,1.7c-17.4,0-34.8-1.3-52.2-1.8c-2.9-0.1-5.9,1-8.8,1.1c-4.9,0.2-9.9,0.2-14.8,0
			c-6.3-0.2-12.6-1.2-18.8-1c-15.4,0.4-30.8,1.8-46.1,1.7c-17.1,0-34.1-1.2-51.2-1.9c-3-0.1-6,0-9,0.1c-15.4,0.6-30.8,1.8-46.1,1.8
			c-18.1-0.1-36.1-1.2-54.1-1.9c-2-0.1-4,0.1-6,0.2c-15.4,0.6-30.8,1.8-46.2,1.7c-18.4-0.1-36.8-1.2-55.1-1.9
			c-1.7-0.1-3.3,0.1-5,0.2c-15.4,0.6-30.8,1.7-46.2,1.6c-18.7-0.1-37.4-1.4-56.1-1.7c-5.9-0.1-11.8,1.6-17.7,1.6
			c-17.7-0.2-35.4-1.1-53.2-1.4c-5.6-0.1-11.1,1.5-16.7,1.4c-17.7-0.3-35.4-1.2-53.2-1.4c-5.6-0.1-11.1,1.5-16.7,1.5
			c-18.4-0.3-36.8-1.2-55.2-1.5c-5.6-0.1-11.1,1.6-16.7,1.5c-17.7-0.3-35.4-1.2-53.2-1.5c-5.6-0.1-11.1,1.6-16.7,1.5
			c-17.7-0.3-35.4-1.2-53.2-1.5c-5.6-0.1-11.1,1.4-16.7,1.5c-11.1,0.3-22.3-0.1-33.4,0.7c-2.1,0.1-5.6,4.1-5.7,6.4
			c-0.9,19.2-1.3,38.5-1.5,57.7c-0.1,7.1,1.6,14.2,1.5,21.3c-0.2,18.9-1.4,37.9-1.4,56.8c0,16.5,1.6,33.1,1.6,49.6
			c0,17.2-1.2,34.4-1.8,51.6c-0.1,2.7,0.1,5.5,0.2,8.2c0.6,15.8,1.7,31.7,1.6,47.5c-0.1,17.9-1.2,35.8-1.8,53.7
			c-0.1,1.7,0,3.4,0.1,5.1c0.6,16.5,1.5,33.1,1.8,49.6C184,970.4,183.8,987.6,183.8,1004.7z M951.3,493.7
			c238.4,0,476.7-0.1,715.1,0.2c9.7,0,12.2-2.8,12.1-12.6c-0.5-53.8-0.4-107.6,0-161.4c0.1-9-2.2-11.5-11.1-11.5
			c-477.4,0.2-954.8,0.2-1432.2,0c-9.3,0-11.7,2.7-11.6,12.1c0.4,53.1,0.2,106.3,0.2,159.4c0,13.9,0,13.9,13.4,13.9
			C475.2,493.7,713.2,493.7,951.3,493.7z M611.4,148.1c9.4,0,18.7,0.3,27.9-0.1c16.8-0.6,28.6-13,30-31c1.5-19.7-7.9-34.3-25.1-37
			c-10.6-1.7-21.6-1.3-32.8-1.9C611.4,102.2,611.4,124.7,611.4,148.1z M899.2,98.9c-13.4-5.3-21,1.2-29.7,11.3c0-13.2,0-22.6,0-35.1
			c-6.1,5-13.5,8.1-13.7,11.7c-1.1,20.3-0.5,40.7-0.5,60.9c5.5,0,9.7,0,13.9,0c0.5-7.9,1-15.3,1.4-22.7c0.9-0.1,1.9-0.1,2.8-0.2
			c3.1,5.9,6.6,11.7,9.3,17.9c4.2,9.4,11.4,4.3,18.6,5.3c-2.6-5.4-4.6-9.7-6.8-13.9C888.1,121.6,877.4,109,899.2,98.9z M721.2,147
			c0-11.1,0.2-22-0.1-32.9c-0.2-7.9-3.7-14-11.4-16.2c-10.9-3-21.3-1.9-31,5.4c1.6,3.7,2.9,6.7,4.3,9.7c19.2-6.1,20.8-5.9,23.2,4
			c-4.7,0-9.3-0.3-13.9,0.1c-10.1,0.8-16.6,8-16,17.1c0.6,9.1,8.2,15.8,18,15.3C702.8,149.1,711.5,148,721.2,147z M1006.9,147.7
			c0-12.3,0.6-24.2-0.2-36.1c-0.6-8.7-5.7-14.8-14.8-14.9c-9.5-0.1-19.1,0.8-28.8,1.3c0,16.6,0,33.1,0,49.5c4.8,0,9,0,13.8,0
			c0-9.1-0.1-17.6,0-26.1c0-5.6,1.4-11.4,8-10c3.1,0.7,6.9,6,7.3,9.5c1.1,8.6,0.3,17.5,0.3,26.6
			C997.8,147.7,1002,147.7,1006.9,147.7z M1117.1,127.7c2.2-17.3-3-27.6-14.6-30.7c-11.6-3.1-22.9,2.1-27.7,12.6
			c-5.7,12.7-2.1,29.7,7.7,36.2c10.4,6.8,22.9,4.5,32.2-6.4c-2.3-2.6-4.7-5.3-6.7-7.6c-12.7,7.2-18.8,5.8-20.3-4.1
			C1097.4,127.7,1107,127.7,1117.1,127.7z M951.7,122.5c-0.1-16.6-8.5-26.1-22.9-25.9c-13.9,0.2-22.3,10.3-22.2,26.8
			c0.2,16.1,9.3,26.6,23.1,26.3C943.4,149.4,951.8,139.1,951.7,122.5z M814,127.7c1.7-17.7-3.5-27.7-15-30.7
			c-12.1-3.1-23.5,2.4-28,13.7c-5.3,13.5-1.1,29.6,9.2,35.6c10.8,6.2,22.5,3.7,30.6-6.6c-2.2-2.5-4.3-5-6.4-7.4
			c-12.6,6.4-17.4,5.4-20.8-4.6c5.2,0,10,0,14.9,0C803.6,127.7,808.5,127.7,814,127.7z M1251.6,127.8c1.5-17.9-3.6-27.8-15.2-30.8
			c-12.2-3.1-23.5,2.5-27.9,13.8c-5.3,13.5-1.1,29.6,9.3,35.5c10.8,6.2,22.7,3.6,31.1-7.5c-2.3-2.2-4.6-4.5-6.8-6.7
			c-12.8,6.6-17.6,5.6-20.9-4.4C1231.4,127.8,1241.2,127.8,1251.6,127.8z M1015.5,98.2c5.9,16.7,11.8,33.2,18.2,51.3
			c5.9-1.6,14.6-1.4,16.1-4.7c6.8-15,11.5-31,17-46.7c-11.2-3.6-17.1,0-19.2,11.1c-1.1,5.6-3.7,10.9-6.6,19
			c-2.8-8.3-5.1-13.6-6.3-19.1C1032.5,99.1,1027.5,94.4,1015.5,98.2z M749.9,78.2c-16.4,0.6-13.8,16.6-20.9,24.2
			c-1.1,1.2-0.6,6.3,0.3,6.7c10.6,4.4,5.5,13.6,5.8,20.6c0.7,19,5.2,22.7,24,17.4c0.6-3.4,1.3-7,2-10.9c-3.8-0.2-7-0.5-11.2-0.7
			c0-4.1,0-7.8,0-11.4c0-4,0-8,0-12.2c3.9-0.7,7-1.2,9.8-1.7c0-4.6,0-8.5,0-12.4c-3.6-0.6-6.4-1.1-9.8-1.6
			C749.9,90.1,749.9,84.3,749.9,78.2z M1187.3,111.8c3.6-0.6,6.7-1.1,9.5-1.6c0-4.8,0-8.8,0-12.6c-3.6-0.6-6.5-1-10.2-1.6
			c0-6.3,0-12.2,0-18.9c-7.1,3.8-15.4,4.2-14.2,15.3c0.4,3.5-5.7,7.5-5.6,11.2c0.1,4.1,4.8,7.8,5.8,12.1c1.1,4.5,0.2,9.5,0.3,14.3
			c0,18.9,5.7,22.9,23.8,16.5c0.4-3.2,0.9-6.6,1.4-10.2c-3.7-0.5-7.2-0.9-10.7-1.3C1187.3,127.2,1187.3,120,1187.3,111.8z
			 M1278.4,147.7c0-7.5,0-14.6,0-21.7c0-14.9,2.4-16.8,16.2-13.4c3.7-12,2.5-15.7-5.7-15.9c-8.2-0.2-16.3,0.7-24.8,1.1
			c0,16.8,0,33.3,0,49.9C1269.1,147.7,1273.3,147.7,1278.4,147.7z M1160.5,112.5c1.1-6.4,5.5-14.2-5.3-15.6
			c-8.4-1.1-16.9-0.2-25.5-0.2c0,18.2,0,34.7,0,50.9c4.9,0,9.1,0,13.8,0c0-7.4,0-14.2,0-20.9
			C1143.6,111.3,1146.1,109.1,1160.5,112.5z M840.4,147.9c0-17.3,0-33.6,0-50.3c-4.7,0-8.9,0-13.2,0c0,17,0,33.6,0,50.3
			C831.9,147.9,835.8,147.9,840.4,147.9z M917.3,240.2c0.9,0.1,1.9,0.3,2.8,0.4c0.2-3.8,0.1-7.7,0.8-11.5c0.4-1.8,2.4-3.3,3.7-4.9
			c1.3,1.7,3.4,3.2,3.6,5c0.6,3.7,0.2,7.5,0.2,11.3c1.4-0.1,2.8-0.1,4.1-0.2c-0.4-5.7,0.7-12.3-1.8-16.8c-2.4-4.2-8.6-6.2-13.5-9.4
			C917.3,222.6,917.3,231.4,917.3,240.2z M737.2,244.8c0-5.1,0.8-11.5-0.4-17.5c-0.5-2.8-6-7.4-7.2-6.8c-3.5,1.7-8.2,5.5-8.3,8.7
			c-0.1,3.9,3.6,8.2,6.4,11.7C729.1,242.6,732.3,242.8,737.2,244.8z M1204.1,240.4c0.9,0,1.8,0,2.7-0.1c0.2-2.2,0.4-4.4,0.5-6.6
			c0.4-7.4,0.3-7.4,8.1-6.1c0.8,0.1,1.6-0.6,2.5-0.9c9.3-3,10-2.2,7.5,8.5c1.1-4,2.1-7.9,3.6-13.5c-8.3,0-16.5,0-24.9,0
			C1204.1,227.5,1204.1,234,1204.1,240.4z M519,235.4c4.8,6.5,11.7,8.6,15.8,3.2c10.4-13.5-8.6-11.9-11.4-20.9c4.4,0,8.1,0,11.8,0
			c-3.1-2.8-6.8-4.2-10.3-3.8c-1.8,0.2-5,4.1-4.6,5.2c0.9,2.8,3.5,5.1,5.6,7.5c2.3,2.7,4.8,5.3,7.2,8c-3.7-0.1-7.4-0.1-11.1-0.1
			C521.3,234.6,520.7,234.9,519,235.4z M887.4,225c0.2,0.9,0.4,1.8,0.7,2.7c-5.9,0.6-14.5-0.1-11.2,8.8c1.2,3.1,8.9,3.6,13.7,5.3
			c0.8-1.1,1.6-2.2,2.4-3.3c-1.6-5.9-2.7-12-5.2-17.5c-0.6-1.2-6.4,0.2-9.8,0.4c0.1,0.8,0.2,1.5,0.3,2.3
			C881.3,224.1,884.3,224.5,887.4,225z M743.1,223.3c4.4,0.8,7.5,1.4,9.2,1.7c-3.6,3.8-6.9,7.2-10.2,10.6c4.6,2.3,9.2,4.6,14.5,7.3
			C760.1,221.6,754.9,215.9,743.1,223.3z M297.1,227.3c4.1,5.4,7.2,9.6,10.3,13.8c-0.9-9.9-11.4-16.8-1.7-27.5
			c-5.8,5.4-14.3,6.8-16,15.1c1.7,2.1,3.4,4,4,4.7C294.1,232.6,295.4,230.3,297.1,227.3z M1428.1,232.3c0.8-0.8,1.7-1.6,2.5-2.4
			c-2.5-3.3-4.4-8-7.7-9.3c-2.4-0.9-8.7,2.4-9.2,4.7c-0.9,4.3,0.2,9.9,2.4,13.7c1.1,1.9,6.7,1.1,10.2,1.5c0-0.7,0.1-1.5,0.1-2.2
			c-3.3-1.1-6.6-2.2-9.8-3.2c0.2-0.7,0.4-1.5,0.6-2.2C1420.9,232.7,1424.5,232.5,1428.1,232.3z M452.6,231.8
			c-3.4-4.9-5.2-9.4-8.3-11.1c-1.9-1.1-8.2,1.5-8.8,3.5c-1.2,4.4-1.2,10.1,0.8,13.9c1.2,2.3,7.1,1.9,10.9,2.7
			c0.1-0.8,0.3-1.7,0.4-2.5c-3.3-1.1-6.7-2.2-10-3.3c0.2-0.7,0.3-1.3,0.5-2C441.9,232.7,445.7,232.4,452.6,231.8z M555.8,235.8
			c0.1-0.9,0.2-1.8,0.3-2.8c3.9-0.3,7.7-0.6,14.7-1.1c-3.7-5.1-5.5-9.9-8.7-11.2c-2.3-1-8.5,2-9.3,4.5c-1.3,3.9-0.7,9.7,1.5,13
			c1.6,2.3,7.1,1.8,10.9,2.6c0.1-0.9,0.3-1.8,0.4-2.7C562.2,237.3,559,236.5,555.8,235.8z M1552.4,232.1c0.8-1.1,1.6-2.2,2.5-3.3
			c-3.2-2.9-5.9-7.3-9.6-8.3c-2.2-0.6-7.8,3.6-8.2,6.3c-0.7,4,1,9.3,3.4,12.6c1.3,1.7,6.5,0.3,9.9,0.3c-0.2-0.6-0.3-1.1-0.5-1.7
			c-3.2-0.9-6.3-1.9-9.5-2.8c0.1-0.7,0.3-1.4,0.4-2.1C1544.7,232.8,1548.6,232.4,1552.4,232.1z M655,232.3c0.8-0.8,1.7-1.7,2.5-2.5
			c-2.6-3.2-4.6-8-7.9-9.2c-2.3-0.9-8.7,2.5-9.1,4.8c-0.8,4.3,0.3,9.9,2.6,13.7c1.1,1.9,6.6,1,10.2,1.3c0-0.7,0-1.5,0-2.2
			c-3.2-1-6.4-2.1-9.6-3.1c0.2-0.8,0.4-1.5,0.6-2.3C647.8,232.7,651.4,232.5,655,232.3z M688.4,231.8c-3.5-4.9-5.3-9.8-8.5-11.1
			c-2.3-1-8.5,1.9-9.3,4.4c-1.3,3.9-0.8,9.7,1.4,13c1.6,2.4,7.1,1.9,10.9,2.7c0.1-0.8,0.3-1.7,0.4-2.5c-3.3-1.1-6.7-2.1-10-3.2
			c0.2-0.7,0.3-1.4,0.5-2.1C677.7,232.7,681.5,232.4,688.4,231.8z M583.2,211.5c0,12,0,20.4,0,31.8c6.8-3.1,13.8-4.2,16.7-8.4
			c2.6-3.6,2.6-12.2,0-15.7C597,215.1,589.9,214.3,583.2,211.5z M1531.8,214.2c-4.1,2.4-7.6,4-10.6,6.2c-2,1.5-4.2,3.4-5.1,5.7
			c-4.1,10.4,2.1,15.9,15.7,13.7C1531.8,231.2,1531.8,222.5,1531.8,214.2z M1186.1,235.2c0.2-0.7,0.3-1.4,0.5-2.1
			c3.9-0.4,7.8-0.8,11.7-1.2c0.7-0.8,1.3-1.6,2-2.4c-2.9-3.2-5.4-7.4-9-9.1c-1.9-0.8-7.9,2.7-8.2,4.9c-0.7,4.5,0.3,10,2.5,13.9
			c1,1.8,6.6,0.8,10.2,1.1c0-0.7-0.1-1.5-0.1-2.2C1192.4,237.1,1189.3,236.2,1186.1,235.2z M828.2,232.3c0.8-0.9,1.6-1.8,2.4-2.6
			c-2.7-3.2-4.9-7.5-8.3-9.1c-2-0.9-8.1,2.2-8.5,4.3c-0.9,4.5-0.3,10.1,1.8,14c1.1,2,6.8,1.4,10.4,1.9c0.1-0.8,0.1-1.6,0.2-2.3
			c-3.1-1.1-6.2-2.1-9.3-3.2c0.2-0.8,0.4-1.6,0.7-2.3C821,232.7,824.6,232.5,828.2,232.3z M1150.1,231.6c-4.7-5.2-7.1-9.5-10.7-11.2
			c-1.9-0.9-8,2.6-8.3,4.7c-0.7,4.5,0.2,10,2.4,13.9c1,1.8,6.7,1,10.2,1.3c0-0.8,0-1.6,0-2.3c-3.1-0.9-6.3-1.9-9.4-2.8
			c0.1-0.7,0.3-1.4,0.4-2.1C1138.5,232.8,1142.4,232.4,1150.1,231.6z M1585,240.7c0.1-0.8,0.2-1.5,0.3-2.3c-3.1-1.1-6.3-2.1-9.4-3.2
			c0.2-0.7,0.4-1.4,0.7-2.1c3.8-0.4,7.7-0.8,14.7-1.5c-4.3-5.1-6.5-9.4-9.9-11c-2-0.9-8.1,2.2-8.5,4.3c-0.9,4.5-0.3,10.1,1.8,14
			C1575.8,240.8,1581.4,240.2,1585,240.7z M1046.5,231.9c0.7-0.8,1.3-1.6,2-2.5c-3-3.1-5.5-7.6-9.1-8.9c-2.1-0.7-7.9,3.2-8.5,5.9
			c-0.8,4,0.4,9.5,2.8,12.8c1.3,1.9,6.7,0.8,10.2,1c0-0.7-0.1-1.4-0.1-2.2c-3.1-1-6.3-2-9.4-2.9c0.2-0.7,0.3-1.4,0.5-2.1
			C1038.7,232.7,1042.6,232.3,1046.5,231.9z M394.6,231.6c-4.7-5.2-7.2-9.7-10.8-11c-2.1-0.8-8,3.1-8.6,5.8c-0.9,4,0.3,9.5,2.6,12.8
			c1.3,1.9,6.6,1,10.2,1.3c0-0.8,0-1.6,0-2.4c-3.1-1-6.2-2-9.3-3c0.2-0.7,0.3-1.4,0.5-2C383.1,232.7,387,232.3,394.6,231.6z
			 M1112.2,240.6c1.5-0.1,2.9-0.2,4.4-0.3c-0.7-5.9,0.1-12.6-2.5-17.4c-1.5-2.8-8.4-2.4-12.7-3.4c0,8,0,14.5,0,20.9
			c0.8,0.1,1.6,0.1,2.4,0.2c0.3-4.1,0.3-8.3,1.1-12.4c0.3-1.5,2.3-2.7,3.5-4c1.3,1.3,3.5,2.4,3.7,3.9
			C1112.5,232.3,1112.2,236.5,1112.2,240.6z M775.3,240.6c0.9-0.1,1.9-0.2,2.8-0.3c3.9-18.1,1.1-21.8-13.6-18.8c0,6.4,0,12.7,0,18.9
			c1,0,2,0.1,3,0.1c0-3.8-0.4-7.7,0.2-11.4c0.3-1.8,2.5-3.3,3.8-4.9c1.2,1.6,3.3,3.1,3.6,4.9C775.7,232.9,775.3,236.8,775.3,240.6z
			 M334.7,240.2c1.1,0.2,2.1,0.4,3.2,0.6c0.1-3.1-0.2-6.3,0.6-9.3c0.6-2.5,2.4-4.8,3.7-7.1c1.3,2.3,3.1,4.4,3.7,6.8
			c0.8,3,0.7,6.4,1,9.5c6.2-18.1,3.2-22.1-12.2-19.1C334.7,227.8,334.7,234,334.7,240.2z M1383.9,220.9c0,7.1,0,13.4,0,19.6
			c1,0,2,0,3,0.1c0-3.5-0.5-7.1,0.2-10.4c0.4-2.1,2.6-3.9,3.9-5.8c1.2,2,3,3.8,3.6,6c0.8,3.3,0.8,6.9,1.1,10.3
			C1401.2,222.4,1399.2,219.6,1383.9,220.9z M979.8,240.5c6.9-17.3,3.6-21.7-11.4-19.1c0,6.5,0,12.8,0,19.2c1.1,0,2.2,0.1,3.2,0.1
			c0-3.7-0.4-7.5,0.2-11.1c0.3-1.9,2.3-3.5,3.5-5.2c1.3,1.9,3.3,3.6,3.8,5.6C979.9,233.4,979.7,237,979.8,240.5z M502.6,240.7
			c1.1-0.1,2.2-0.2,3.3-0.3c-0.5-5.9,0.4-12.7-2.2-17.3c-1.6-2.8-8.7-2.2-14.4-3.3c0.4,8.4,0.7,14.6,1.1,20.8c0.9,0,1.8,0,2.7-0.1
			c0.3-2.1,0.2-4.4,0.8-6.4c1.1-3.4,2.8-6.5,4.2-9.8c1.2,3.1,2.6,6.1,3.5,9.2C502.2,235.8,502.3,238.3,502.6,240.7z M1443.9,240.5
			c0.9,0,1.8-0.1,2.8-0.1c0.2-3.6-0.1-7.3,0.7-10.6c0.5-2,2.8-3.6,4.3-5.4c1.1,1.8,2.7,3.5,3,5.4c0.6,3.6,0.5,7.3,0.6,10.9
			c7.2-16.7,3.6-21.7-11.5-19.4C1443.9,227.7,1443.9,234.1,1443.9,240.5z M821.6,85.1c5.9,3.7,9.3,7.7,12.3,7.3
			c2.9-0.4,7.5-5.3,7.3-7.9c-0.2-3-4.8-7.5-7.8-7.7C830.4,76.6,827.2,80.9,821.6,85.1z M620.7,242.7c1.9-20.8,0.1-23.7-11.9-21.1
			c3.3,1.7,6.1,3.2,6.7,3.5c-3.4,3.8-6.5,7.3-9.5,10.8C610.6,238.1,615.3,240.2,620.7,242.7z M1487.8,242.7
			c1.9-20.8,0.1-23.7-11.9-21.1c3.3,1.7,6.1,3.2,6.7,3.5c-3.4,3.8-6.5,7.3-9.5,10.8C1477.7,238.1,1482.4,240.2,1487.8,242.7z
			 M1283.9,230.5c-5.8-4.8-8.9-9.4-12.6-10.1c-6.5-1.1-9,4.3-9,10.4c0,6.3,2.7,11.4,9.3,9.8C1275.3,239.7,1278.2,235.3,1283.9,230.5
			z M1100.4,230.3c-6.2-4.9-9.4-9.4-13.1-9.9c-6.5-0.9-8.9,4.6-8.8,10.7c0.1,5.7,2.4,10.9,8.6,9.5
			C1091,239.7,1094.2,235.3,1100.4,230.3z M409.8,220.6c0.9,5.4,1.9,9.3,2.2,13.2c0.5,6,2.5,8.8,9,5.9c-7.2-6.2-6.6-12.1-0.5-17.3
			c-2.2-3.1-4.3-6-6.5-9.1C412.3,216.3,410.6,219.2,409.8,220.6z M1172.6,239.6c3.1-20.6,3.1-20.6-11.2-18.2c0,6.2,0,12.3,0,18.4
			c1.4-3.4,0.7-6.9,1.7-9.9c0.7-2.3,3.6-3.9,5.5-5.8c1.3,1.9,3.4,3.7,3.8,5.8C1173,233.1,1172.6,236.4,1172.6,239.6z M912.4,225.7
			c-4.2-7-9.9-7.9-12.5-3.1c-2.3,4.3-2.3,12.1,0.1,16.3c2.3,4.1,8.5,3.7,11.8-2.7c-11.6,1.4-13-0.5-8.8-11.9
			C905.6,224.7,908.3,225.1,912.4,225.7z M1495.2,221c0,6.3,0,12.5,0,18.7c1.3-3.2,0.6-6.5,1.5-9.2c0.8-2.4,3.3-4.2,5-6.2
			c1.5,2.1,3.7,3.9,4.3,6.2c0.9,2.9,0.5,6.2,0.7,9.4C1510.1,219.6,1510.1,219.6,1495.2,221z M691.4,239.5c0.6,0.1,1.3,0.2,1.9,0.3
			c0-3.3-0.7-6.9,0.2-9.8c0.7-2.3,3.6-3.9,5.5-5.8c1.3,1.9,3.4,3.7,3.8,5.8c0.7,3.1,0.2,6.5,0.2,9.8c3.1-20.8,3.1-20.8-11.7-18.3
			C691.4,227.5,691.4,233.5,691.4,239.5z M1021.2,239.8c3.6-20.2,3.6-20.2-11.5-18.9c0,6.2,0,12.5,0,18.7c1.3-3,0.7-6.3,1.5-9.1
			c0.8-2.4,3.2-4.2,5-6.3c1.5,2,3.7,3.9,4.4,6.2C1021.4,233.3,1021,236.7,1021.2,239.8z M854.9,239.6c3.1-20.6,3.1-20.6-11.2-18.2
			c0,6.2,0,12.3,0,18.4c1.4-3.4,0.7-6.9,1.7-9.9c0.7-2.3,3.6-3.9,5.5-5.8c1.3,1.9,3.4,3.7,3.8,5.8
			C855.4,233.1,854.9,236.4,854.9,239.6z M801.3,219.7c-7.4,0.5-11.8,0.8-16.2,1c0,0.8,0,1.7,0,2.5c2.4,0.7,4.8,1.4,7.3,2.2
			c-2.6,4.8-4.8,8.8-6.9,12.6c2.2,0.6,3.9,1.4,5.7,1.6c2.2,0.3,4.4,0.1,6.6,0.1c0-0.4,0-0.7,0.1-1.1c-2.3-0.8-4.5-1.5-7.4-2.5
			C793.8,230.9,796.7,226.6,801.3,219.7z M1604,223.9c-0.1-1-0.1-2.1-0.2-3.1c-3.6,0.4-8.9-0.6-10.5,1.4c-7.4,9.2,8.3,7.7,7.3,15.4
			c-3-0.4-5.6-0.7-8.3-1c0,1.1,0,2.2-0.1,3.4c3.8-0.2,9.7,1.1,11.2-1c6.4-8.8-5.1-8.9-8.3-14.4
			C1598.7,224.4,1601.3,224.2,1604,223.9z M1065.6,240.9c1.1,0.1,2.3,0.1,3.4,0.2c2-6.4,4-12.7,6.2-19.6c-3,3.6-5.4,6.5-8.1,9.7
			c-2.3-4.5-4.1-8-5.9-11.6c-0.9,0.4-1.7,0.8-2.6,1.2C1060.9,227.6,1063.3,234.3,1065.6,240.9z M1248,219.3c0.8-0.9,1.7-1.7,2.5-2.6
			c3.5-0.3,6.9-0.7,10.4-1c0-0.5-0.1-1-0.1-1.4c-5,0-10,0-14.5,0c0,9.2,0,17.7,0,26.2c0.7,0,1.3,0,2-0.1c0.3-3.6,0.7-7.3,1-11
			c2.6-0.7,5.1-1.3,7.6-1.9C1253.6,224.4,1250.8,221.8,1248,219.3z M872.8,213.5c-9.7,0.9-11.6,11-4.4,28.2
			C870,231.7,871.3,222.9,872.8,213.5z M992.7,213.7c-0.7,0-1.4,0-2.1,0c0,8.9,0,17.7,0,26.6c0.7,0,1.4,0,2.1,0
			C992.7,231.4,992.7,222.6,992.7,213.7z"/>
		<path class="st1" d="M183.8,1004.7c0-17.2,0.2-34.4-0.1-51.6c-0.3-16.5-1.2-33.1-1.8-49.6c-0.1-1.7-0.2-3.4-0.1-5.1
			c0.6-17.9,1.7-35.8,1.8-53.7c0.1-15.8-1-31.7-1.6-47.5c-0.1-2.7-0.3-5.5-0.2-8.2c0.6-17.2,1.8-34.4,1.8-51.6
			c0-16.5-1.6-33.1-1.6-49.6c0-18.9,1.2-37.9,1.4-56.8c0.1-7.1-1.6-14.2-1.5-21.3c0.2-19.2,0.6-38.5,1.5-57.7
			c0.1-2.3,3.6-6.3,5.7-6.4c11.1-0.7,22.3-0.3,33.4-0.7c5.6-0.2,11.1-1.6,16.7-1.5c17.7,0.3,35.4,1.2,53.2,1.5
			c5.6,0.1,11.1-1.6,16.7-1.5c17.7,0.3,35.4,1.2,53.2,1.5c5.6,0.1,11.1-1.6,16.7-1.5c18.4,0.3,36.8,1.2,55.2,1.5
			c5.6,0.1,11.1-1.5,16.7-1.5c17.7,0.3,35.4,1.2,53.2,1.4c5.6,0.1,11.1-1.5,16.7-1.4c17.7,0.3,35.4,1.2,53.2,1.4
			c5.9,0.1,11.8-1.7,17.7-1.6c18.7,0.4,37.4,1.6,56.1,1.7c15.4,0.1,30.8-1,46.2-1.6c1.7-0.1,3.3-0.3,5-0.2
			c18.4,0.6,36.8,1.8,55.1,1.9c15.4,0.1,30.8-1.1,46.2-1.7c2-0.1,4-0.2,6-0.2c18.1,0.6,36.1,1.8,54.1,1.9
			c15.4,0.1,30.8-1.2,46.1-1.8c3-0.1,6-0.2,9-0.1c17.1,0.6,34.1,1.8,51.2,1.9c15.4,0,30.8-1.4,46.1-1.7c6.3-0.2,12.5,0.8,18.8,1
			c4.9,0.2,9.9,0.2,14.8,0c3-0.1,5.9-1.2,8.8-1.1c17.4,0.5,34.8,1.7,52.2,1.8c16.4,0,32.8-1.2,49.1-1.7c5-0.2,10,0.3,14.9,0.3
			c6.2,0.1,12.4,0.1,18.6,0.1c2,0,4-0.6,5.9-0.5c17,0.6,34.1,1.8,51.1,1.8c16.7,0,33.4-1,50.2-1.6c1.7-0.1,3.3-0.3,5-0.2
			c17.1,0.6,34.1,1.8,51.2,1.8c16.7,0,33.4-1.1,50.2-1.7c2-0.1,4-0.3,6-0.2c16.7,0.6,33.4,1.8,50.2,1.9c16.7,0,33.4-1.2,50.2-1.7
			c5.3-0.2,10.6,0.4,15.9,0.5c5.9,0.1,11.7,0.1,17.6,0c1.6,0,3.3-0.7,4.9-0.6c17.4,0.6,34.8,1.5,52.2,1.8c6.6,0.1,13.2-1.8,19.7-1.7
			c17.1,0.3,34.1,1.4,51.2,1.8c12.1,0.3,24.3,0.1,36.4,0c6.7-0.1,11.8,0.1,9.7,10.1c-1.1,5.4,4,12.4,2.5,17.4
			c-3.7,12.4,1,24.1,0.3,36.1c-0.2,3.9-2,7.6-2.6,11.5c-0.5,2.9-1.1,6.2-0.1,8.8c3.8,9.9,5,19.3-0.3,29.1c-1.2,2.1,0.6,5.8,0.6,8.7
			c0,8.4-0.1,16.8-0.2,25.2c0,2.9-1.1,6.3-0.1,8.8c3.9,9.9,5,19.3-0.2,29.2c-1.2,2.2,0.4,5.8,0.5,8.8c0.1,8.4,0,16.8-0.1,25.2
			c0,2.9-1.3,6.3-0.3,8.7c4.1,9.9,4.9,19.3,0,29.2c-1.2,2.4,0.8,6.3,0.8,9.6c0,8.1-0.3,16.3-0.4,24.4c-0.1,3.2-0.1,6.5-0.1,9.7
			c-0.1,9.4-0.3,18.7-0.4,28.1c0,3,0.3,5.9,0.3,8.9c0,8.7-0.2,17.4-0.3,26.1c0,2.6-1,5.7,0,7.9c4.5,10.2,4.9,19.9-0.2,30.1
			c-1.1,2.1,0.9,5.7,1,8.7c0.1,8.8,0,17.6-0.1,26.4c0,2.5-0.4,5.1-0.4,7.6c0.1,9.1,0.3,18.2,0.5,27.3c0,2.2,0.7,4.7,0.1,6.7
			c-1,2.9-3,7.9-4.5,7.9c-12,0-24.1-2.9-35.8-1.3c-13.9,1.9-27.4-0.5-40.8,0.1c-9.5,0.4-18.5,4.1-28.2-0.7c-2.5-1.2-6.3,0.4-9.6,0.5
			c-8.3,0.3-16.5,0.5-24.8,0.8c-4.3,0.2-8.5,0.6-12.8,0.6c-6.7-0.1-13.5-0.4-20.2-0.7c-4.1-0.2-8.1-0.6-12.2-0.7
			c-8.2-0.1-16.3,0.1-24.5,0.1c-3.5,0-7.8-1.9-10.5-0.5c-9,5-17.6,3.6-26.7,0.9c-3.4-1-7.4,0.2-11.1,0.2c-7,0.1-14,0.1-20.9-0.1
			c-3.8-0.1-8.3-2.4-11.3-0.9c-9.1,4.5-17.4,4.2-26.4,0.1c-2.9-1.3-6.9,0-10.5,0.1c-8.3,0.3-16.5,0.5-24.8,0.8
			c-4.3,0.2-8.5,0.7-12.8,0.7c-6.7-0.1-13.5-0.4-20.2-0.8c-3.8-0.2-8.3-2.3-11.3-0.9c-9.1,4.5-17.4,4.2-26.4,0.1
			c-2.9-1.3-6.9,0.1-10.5,0.2c-8.3,0.2-16.5,0.4-24.8,0.7c-4.3,0.2-8.5,0.5-12.8,0.8c-0.6,0-1.2,0.9-1.8,0.8
			c-9.4-1.1-19.4-4.8-28.1-2.7c-9.6,2.3-18,4.5-27.4,0.5c-3.1-1.3-7-0.6-10.5-0.5c-8.8,0.1-17.7,0.4-26.5,0.5
			c-3.2,0-6.4-0.8-9.6-0.4c-4.4,0.6-8.7,2.9-13.1,2.8c-11.1-0.2-22-3-33.2-0.1c-3.9,1-8.7-1.9-13.2-2.6c-3.5-0.5-7.1-0.2-10.6-0.2
			c-8.4,0-16.9,0.1-25.3,0.1c-3.2,0-7.2-1.7-9.6-0.4c-9.9,5.4-19.6,4.3-29.5,0.7c-1.9-0.7-4.2,0.2-6.4,0.3
			c-7.6,0.2-15.2,0.3-22.9,0.5c-4.6,0.1-9.2,0.2-13.7,0.2c-7.4,0-14.8-0.1-22.2-0.1c-4.6,0-9.2-0.1-13.7,0.2
			c-2.2,0.1-4.4,1.5-6.6,1.5c-14,0.3-28-1.5-42.2-0.6c-9.1,0.5-18.1-3.4-28.1,0.2c-5,1.8-11.9-2-18-2.8c-3.2-0.4-6.5-0.1-9.7,0.4
			c-4.1,0.7-8.1,2.6-12.1,2.8c-11.4,0.4-22.6-4.3-34.2-0.2c-3.7,1.3-8.7-2-13.1-2.6c-3.5-0.5-7,0-10.6,0.1
			c-8.3,0.3-16.5,0.6-24.8,0.9c-4.3,0.2-8.5,0.3-12.8,0.6c-0.6,0-1.1,1-1.7,1c-18.5-0.7-37-1.4-55.4-2.2c-3.5-0.1-7.8-1.9-10.5-0.4
			c-9,4.9-17.6,3.6-26.7,0.8c-3.3-1.1-7.4,0-11.1,0.4c-2.9,0.3-5.6,1.7-8.5,1.8c-13,0.4-26-4.6-39.2-0.2c-2.8,0.9-6.7-2-10.2-2.4
			c-3.7-0.4-7.6,0-11.4,0.1c-7.9,0.1-15.8,0.4-23.7,0.4c-3.8,0-7.6-1-11.4-0.9c-9.2,0.2-18.4,0.7-27.6,0.9c-1.2,0-3-1.8-3.6-1.4
			c-13.7,10.4-28.7-4.3-43.1,2.8c-5.3,2.6-13.4-0.7-20.2-1.4c-3.8-0.3-7.6-1-11.4-0.9c-8.8,0-17.7,0.5-26.5,0.5
			c-2.6,0-5.9-2.1-7.6-1c-9.6,5.9-18.6,4.6-28.1-0.1c-2-1-5.1,0.5-7.7,0.5c-8.4,0.2-16.9,0.3-25.3,0.3c-3.5,0-7.1-0.4-10.6-0.3
			c-8.8,0.1-17.7,0.5-26.5,0.5c-2.6,0-5.9-2-7.6-1c-9.6,5.9-18.6,4.7-28.1-0.1c-2-1-5.1,0.2-7.7,0.6c-6.4,1-12.7,2.6-19,2.9
			c-5.2,0.2-10.6-0.9-15.7-2.3c-2.1-0.6-4.9-3.2-5.2-5.2c-1-6.6-0.9-13.4-1.3-20.1C182.5,1004.8,183.1,1004.8,183.8,1004.7z
			 M790.5,857.9c1.1,2.8,2.2,5.5,3.3,8.3c2.8-1.4,5.6-2.8,8.4-4.2c4.4,6.5,9.6,6.7,15.4,2.1c3.1,0.8,6.1,1.5,9.2,2.3
			c5.1-0.3,10.3-0.6,15.4-1c1.7,2.1,3.4,4.2,6.3,7.8c1.6-2.1,3.4-4.7,5.3-7.3c1.8,0,3.5,0,5.3,0c1.3,0,2.7,0.1,4,0.1
			c5.6,1.1,11.4,4.7,16.1-2c3.6,0.1,8.5-2.6,8.6,4.5c1.8-0.7,3.5-1.3,5.3-2c3.3-1.7,6.6-3.4,9.9-5c5.8,7.1,8.2,6.8,11.9-1.7
			c6.5,1.2,13.1,2.4,19.6,3.5c10,6.4,12.3,6.4,20.2-2.1c6.8,4.4,13.4,4.2,20.3,0.7c4.8,2,9.5,4.1,14.3,6.1c2,0.7,4.1,1.9,6.1,1.9
			c43,0.1,86.1,0.1,129.1,0c2.1,0,4.2-1.1,6.3-1.8c0.1-1,0.3-2.1,0.4-3.1c1.5,2,3.1,4,6,7.9c1.7-2,3.9-4.5,6-7
			c3.2,0,6.4-0.1,9.6-0.1c5.8,0.6,11.6,1.9,17.3,1.6c11.2-0.6,22.4-1.9,33.5-3.3c0.8-0.1,1.4-3,1.6-3.6c2.2,1.7,4.2,3.2,5.7,4.4
			c2.1-5.3,3.2-9.7,5.5-13.2c1.8-2.9,5.5-4.6,7.6-7.3c12.3-15.9,13.9-35.2,14.5-54.2c0.5-17-0.5-34.1-1.9-51.1
			c-1.7-20.4-9.7-37.1-28.3-47.4c-13.1-7.3-27.3-8.6-41.4-8.6c-110.8-0.3-221.6-0.4-332.4-0.1c-39.5,0.1-79,1.1-118.5,2
			c-20.3,0.5-39.7,15.7-46.5,35.8c-7.2,21.4-6.5,43.7-5.9,65.9c0.5,19.7,1.4,39.7,13.7,56.6c1.5,2,1.6,5.1,2.3,7.7
			c-4-0.4-8.1-0.8-12.1-1.1c-2.2,0.5-4.4,0.9-6.5,1.4c0.2,0.5,0.3,1,0.5,1.6c2.1,0.2,4.2,0.4,6.4,0.6c-0.1,0.7-0.2,1.5-0.3,2.2
			c-3.6,0.8-7.3,1.6-11.5,2.5c-0.6-3.4-1.1-6.6-2-12.2c-2.6,5.4-4.2,8.7-6.6,13.9c-3.4-5.1-6-8.9-9.5-14.1c0,6.7,0,11.9,0,19
			c1.8-2.8,2.8-5.4,3.6-5.4c3.6,0.2,7.2,1,10.8,1.8c5.7,1.4,11.4,3,17,4.5c6,0.1,12,0.2,18,0.3c4-2.7,8-5.4,11.9-8.1
			c0.8,2.3,1.6,4.5,2.4,6.8c0.6-0.9,1.3-1.8,1.9-2.7c4.6,1.3,9.3,2.6,13.9,3.9c7.3,0,14.6-0.1,21.9-0.1c2.5-2,5.1-4.1,7.6-6.1
			c1.9,1.8,3.8,3.7,5.7,5.5c10.2-0.4,20.4-0.8,30.6-1.2c1.3-1.4,2.6-2.9,3.9-4.3c0-0.5,0.1-1.1,0.2-1.6
			C788.4,858.1,789.4,858,790.5,857.9z M1239.6,857.9c-2.1-2.8-3.6-6.4-6.2-7.7c-1.6-0.8-6.5,1.2-7.1,3c-1.2,3.4-0.3,7.5-0.3,10.2
			C1230.6,861.5,1233.9,860.2,1239.6,857.9z"/>
		<path class="st2" d="M951.3,493.7c-238,0-476.1,0-714.1,0c-13.4,0-13.4,0-13.4-13.9c0-53.1,0.2-106.3-0.2-159.4
			c-0.1-9.4,2.3-12.1,11.6-12.1c477.4,0.2,954.8,0.2,1432.2,0c8.9,0,11.2,2.5,11.1,11.5c-0.4,53.8-0.4,107.6,0,161.4
			c0.1,9.8-2.4,12.6-12.1,12.6C1428,493.7,1189.6,493.7,951.3,493.7z"/>
		<path class="st3" d="M611.4,148.1c0-23.4,0-45.9,0-70c11.2,0.6,22.2,0.2,32.8,1.9c17.2,2.7,26.6,17.4,25.1,37
			c-1.4,18-13.2,30.4-30,31C630.1,148.4,620.9,148.1,611.4,148.1z M627.4,94.5c0,13.7,0,26.2,0,38.7c9.5,0.7,19.6,1.8,23-8.3
			c2.4-7.3,2.1-17-0.6-24.1C645.9,90.9,635.8,94.7,627.4,94.5z"/>
		<path class="st4" d="M899.2,98.9c-21.8,10.1-11,22.8-4.6,35.2c2.2,4.2,4.1,8.5,6.8,13.9c-7.2-1-14.4,4.1-18.6-5.3
			c-2.7-6.1-6.2-11.9-9.3-17.9c-0.9,0.1-1.9,0.1-2.8,0.2c-0.5,7.4-0.9,14.8-1.4,22.7c-4.2,0-8.4,0-13.9,0c0-20.2-0.6-40.6,0.5-60.9
			c0.2-3.5,7.5-6.7,13.7-11.7c0,12.5,0,21.9,0,35.1C878.2,100,885.8,93.6,899.2,98.9z"/>
		<path class="st5" d="M721.2,147c-9.8,1-18.4,2.1-27.1,2.6c-9.8,0.5-17.4-6.2-18-15.3c-0.6-9.2,5.9-16.3,16-17.1
			c4.6-0.4,9.2-0.1,13.9-0.1c-2.4-9.9-4-10.2-23.2-4c-1.3-3-2.6-6-4.3-9.7c9.7-7.4,20.1-8.5,31-5.4c7.7,2.1,11.2,8.3,11.4,16.2
			C721.5,125,721.2,135.9,721.2,147z M707.2,134.7c-0.1-1.5-0.3-2.9-0.4-4.4c-6.1-3.4-11.8-4.7-16.2,2.1c0.1,1.3,0.3,2.6,0.4,3.9
			C696.5,135.8,701.8,135.2,707.2,134.7z"/>
		<path class="st6" d="M1006.9,147.7c-4.9,0-9,0-14.3,0c0-9.1,0.7-18-0.3-26.6c-0.4-3.6-4.2-8.9-7.3-9.5c-6.6-1.5-7.9,4.4-8,10
			c-0.1,8.5,0,17,0,26.1c-4.8,0-9,0-13.8,0c0-16.4,0-32.9,0-49.5c9.7-0.5,19.3-1.3,28.8-1.3c9.1,0.1,14.2,6.1,14.8,14.9
			C1007.4,123.5,1006.9,135.4,1006.9,147.7z"/>
		<path class="st7" d="M1117.1,127.7c-10.1,0-19.7,0-29.3,0c1.5,9.9,7.6,11.3,20.3,4.1c2.1,2.3,4.4,5,6.7,7.6
			c-9.3,10.9-21.8,13.3-32.2,6.4c-9.8-6.5-13.5-23.5-7.7-36.2c4.7-10.5,16.1-15.7,27.7-12.6C1114.1,100.1,1119.3,110.4,1117.1,127.7
			z M1103.1,116.8c0.4-1,0.9-2.1,1.3-3.1c-3.1-1.6-6.2-4.4-9.3-4.3c-3,0.1-5.9,3.3-8.8,5.1c0.4,0.8,0.8,1.6,1.2,2.3
			C1092.7,116.8,1097.9,116.8,1103.1,116.8z"/>
		<path class="st5" d="M951.7,122.5c0.1,16.6-8.3,26.9-22,27.2c-13.7,0.3-22.9-10.2-23.1-26.3c-0.2-16.5,8.2-26.6,22.2-26.8
			C943.2,96.4,951.6,105.9,951.7,122.5z M940.9,122.6c-5.1-5-8.1-10.6-11.7-11c-7.5-0.8-8.1,6.1-8.2,12.1c0,6,2.2,11.9,8.5,10.8
			C933.2,133.8,936,128,940.9,122.6z"/>
		<path class="st7" d="M814,127.7c-5.5,0-10.5,0-15.4,0c-4.9,0-9.8,0-14.9,0c3.4,10,8.2,11,20.8,4.6c2.1,2.4,4.3,4.9,6.4,7.4
			c-8.1,10.3-19.8,12.9-30.6,6.6c-10.4-6-14.6-22.1-9.2-35.6c4.5-11.3,15.8-16.9,28-13.7C810.5,100,815.7,110,814,127.7z
			 M800.1,116.7c0.4-0.7,0.8-1.4,1.2-2.1c-2.8-1.9-5.7-5.2-8.5-5.2c-3.3,0-6.5,3-9.8,4.7c0.4,0.9,0.7,1.7,1.1,2.6
			C789.4,116.7,794.7,116.7,800.1,116.7z"/>
		<path class="st7" d="M1251.6,127.8c-10.4,0-20.3,0-30.3,0c3.2,10,8.1,11,20.9,4.4c2.2,2.2,4.5,4.5,6.8,6.7
			c-8.4,11.1-20.2,13.7-31.1,7.5c-10.4-6-14.6-22-9.3-35.5c4.4-11.3,15.7-16.9,27.9-13.8C1248,99.9,1253.2,109.9,1251.6,127.8z
			 M1237.6,116.7c0.4-0.7,0.8-1.5,1.2-2.2c-2.9-1.8-5.7-5.2-8.6-5.1c-3.3,0-6.5,3-9.7,4.8c0.4,0.8,0.7,1.7,1.1,2.5
			C1227,116.7,1232.3,116.7,1237.6,116.7z"/>
		<path class="st8" d="M1015.5,98.2c12-3.8,17,0.9,19.2,10.9c1.2,5.5,3.5,10.8,6.3,19.1c2.9-8.1,5.5-13.4,6.6-19
			c2.1-11.1,8-14.7,19.2-11.1c-5.5,15.7-10.2,31.6-17,46.7c-1.5,3.3-10.2,3.1-16.1,4.7C1027.3,131.4,1021.4,114.9,1015.5,98.2z"/>
		<path class="st4" d="M749.9,78.2c0,6.1,0,11.9,0,18c3.3,0.6,6.2,1,9.8,1.6c0,3.8,0,7.7,0,12.4c-2.8,0.5-5.9,1-9.8,1.7
			c0,4.2,0,8.2,0,12.2c0,3.7,0,7.3,0,11.4c4.2,0.3,7.4,0.5,11.2,0.7c-0.7,4-1.4,7.5-2,10.9c-18.8,5.3-23.2,1.6-24-17.4
			c-0.3-6.9,4.8-16.2-5.8-20.6c-0.9-0.4-1.4-5.5-0.3-6.7C736.1,94.8,733.5,78.8,749.9,78.2z"/>
		<path class="st5" d="M1187.3,111.8c0,8.2,0,15.4,0,23.3c3.5,0.4,6.9,0.9,10.7,1.3c-0.5,3.6-1,7-1.4,10.2
			c-18.1,6.4-23.8,2.4-23.8-16.5c0-4.8,0.8-9.8-0.3-14.3c-1-4.3-5.7-8.1-5.8-12.1c-0.1-3.7,6-7.7,5.6-11.2
			c-1.2-11.1,7.1-11.5,14.2-15.3c0,6.7,0,12.6,0,18.9c3.8,0.6,6.6,1.1,10.2,1.6c0,3.8,0,7.8,0,12.6
			C1194,110.7,1190.9,111.2,1187.3,111.8z"/>
		<path class="st9" d="M1278.4,147.7c-5.1,0-9.3,0-14.2,0c0-16.5,0-33,0-49.9c8.5-0.4,16.6-1.3,24.8-1.1c8.2,0.2,9.3,3.9,5.7,15.9
			c-13.8-3.4-16.2-1.4-16.2,13.4C1278.4,133.1,1278.4,140.2,1278.4,147.7z"/>
		<path class="st4" d="M1160.5,112.5c-14.3-3.4-16.9-1.2-17,14.1c0,6.8,0,13.6,0,20.9c-4.7,0-8.9,0-13.8,0c0-16.2,0-32.7,0-50.9
			c8.5,0,17.1-0.9,25.5,0.2C1165.9,98.3,1161.6,106.1,1160.5,112.5z"/>
		<path class="st6" d="M840.4,147.9c-4.6,0-8.5,0-13.2,0c0-16.7,0-33.3,0-50.3c4.3,0,8.5,0,13.2,0
			C840.4,114.3,840.4,130.6,840.4,147.9z"/>
		<path class="st10" d="M1296.7,222.5c7.6-0.8,15.2-2.1,22.8-2c1.9,0,4.7,4.3,5.4,7.1c0.9,4,0.2,8.5,0.2,12.8
			c-1,0.1-2.1,0.2-3.1,0.2c-0.3-3.6-0.3-7.2-1-10.7c-0.4-2-2-3.7-3-5.6c-1.4,1.9-3.6,3.6-4.2,5.7c-0.8,3.4-0.5,7-2.9,10.6
			c-0.7-5.4-1.4-10.8-2.1-16.6c-7.3,1.3-12.9,2.7-8.7,11c-1.2-4.3-2.3-8.7-3.5-13C1296.7,222.1,1296.7,222.5,1296.7,222.5z"/>
		<path class="st11" d="M917.3,240.2c0-8.8,0-17.6,0-26c5,3.2,11.2,5.2,13.5,9.4c2.5,4.5,1.3,11.1,1.8,16.8
			c-1.4,0.1-2.8,0.1-4.1,0.2c0-3.8,0.4-7.6-0.2-11.3c-0.3-1.8-2.4-3.3-3.6-5c-1.3,1.6-3.4,3.1-3.7,4.9c-0.7,3.7-0.6,7.6-0.8,11.5
			C919.2,240.5,918.3,240.4,917.3,240.2z"/>
		<path class="st12" d="M737.2,244.8c-4.9-1.9-8.1-2.2-9.5-3.9c-2.8-3.5-6.5-7.8-6.4-11.7c0.1-3.1,4.8-7,8.3-8.7
			c1.2-0.6,6.7,4,7.2,6.8C738,233.2,737.2,239.6,737.2,244.8z M735.3,231.4c-2.4-3.2-4-5.2-5.5-7.2c-1.7,2-4.6,3.9-4.7,6
			c-0.1,2.3,2.4,4.6,3.8,7C730.7,235.5,732.6,233.9,735.3,231.4z"/>
		<path class="st12" d="M1204.1,240.4c0-6.5,0-12.9,0-18.7c8.4,0,16.6,0,24.9,0c-1.5,5.6-2.5,9.6-3.6,13.5
			c2.5-10.7,1.8-11.5-7.5-8.5c-0.8,0.3-1.7,1-2.5,0.9c-7.8-1.3-7.8-1.3-8.1,6.1c-0.1,2.2-0.3,4.4-0.5,6.6
			C1206,240.4,1205.1,240.4,1204.1,240.4z"/>
		<path class="st13" d="M519,235.4c1.7-0.5,2.3-0.8,2.9-0.8c3.7,0,7.4,0.1,11.1,0.1c-2.4-2.7-4.9-5.3-7.2-8c-2-2.4-4.7-4.7-5.6-7.5
			c-0.4-1.2,2.8-5,4.6-5.2c3.5-0.4,7.1,1,10.3,3.8c-3.7,0-7.4,0-11.8,0c2.8,9,21.8,7.4,11.4,20.9C530.7,244,523.8,242,519,235.4z"/>
		<path class="st13" d="M887.4,225c-3-0.4-6.1-0.9-9.1-1.3c-0.1-0.8-0.2-1.5-0.3-2.3c3.4-0.2,9.2-1.6,9.8-0.4
			c2.6,5.4,3.6,11.6,5.2,17.5c-0.8,1.1-1.6,2.2-2.4,3.3c-4.8-1.7-12.5-2.2-13.7-5.3c-3.3-8.9,5.2-8.1,11.2-8.8
			C887.8,226.8,887.6,225.9,887.4,225z"/>
		<path class="st13" d="M743.1,223.3c11.8-7.4,17.1-1.7,13.5,19.6c-5.3-2.6-9.9-5-14.5-7.3c3.3-3.4,6.6-6.8,10.2-10.6
			C750.6,224.7,747.5,224.1,743.1,223.3z"/>
		<path class="st14" d="M1346.5,222.9c0,5.4,0,10.8,0,19.5c-6.4-2.3-14.3-2.8-15.4-6c-3.4-9.1,5.5-7.8,10.8-11.2
			c-3.1-0.5-6.2-1-10.3-1.7c5.4-6.2,10.2-2.9,15-0.5C1346.5,223.1,1346.5,222.9,1346.5,222.9z"/>
		<path class="st14" d="M297.1,227.3c-1.7,3-3,5.3-3.4,6.1c-0.5-0.6-2.2-2.6-4-4.7c1.7-8.3,10.2-9.7,16-15.1
			c-9.6,10.7,0.8,17.7,1.7,27.5C304.3,236.9,301.2,232.7,297.1,227.3z"/>
		<path class="st10" d="M1428.1,232.3c-3.6,0.2-7.2,0.4-10.8,0.6c-0.2,0.7-0.4,1.5-0.6,2.2c3.3,1.1,6.6,2.2,9.8,3.2
			c0,0.7-0.1,1.5-0.1,2.2c-3.5-0.4-9.1,0.4-10.2-1.5c-2.3-3.8-3.3-9.4-2.4-13.7c0.5-2.3,6.8-5.6,9.2-4.7c3.2,1.2,5.2,6,7.7,9.3
			C1429.8,230.7,1428.9,231.5,1428.1,232.3z"/>
		<path class="st10" d="M452.6,231.8c-6.8,0.6-10.7,0.9-14.5,1.3c-0.2,0.7-0.3,1.3-0.5,2c3.3,1.1,6.7,2.2,10,3.3
			c-0.1,0.8-0.3,1.7-0.4,2.5c-3.8-0.8-9.7-0.4-10.9-2.7c-2-3.8-2-9.6-0.8-13.9c0.5-2,6.8-4.6,8.8-3.5
			C447.4,222.4,449.2,226.9,452.6,231.8z"/>
		<path class="st10" d="M555.8,235.8c3.2,0.8,6.5,1.6,9.7,2.4c-0.1,0.9-0.3,1.8-0.4,2.7c-3.8-0.8-9.3-0.3-10.9-2.6
			c-2.2-3.3-2.7-9.1-1.5-13c0.8-2.5,7-5.4,9.3-4.5c3.2,1.3,5,6.1,8.7,11.2c-7,0.5-10.8,0.8-14.7,1.1
			C555.9,233.9,555.8,234.8,555.8,235.8z"/>
		<path class="st10" d="M1552.4,232.1c-3.8,0.3-7.7,0.7-11.5,1c-0.1,0.7-0.3,1.4-0.4,2.1c3.2,0.9,6.3,1.9,9.5,2.8
			c0.2,0.6,0.3,1.1,0.5,1.7c-3.4,0-8.7,1.4-9.9-0.3c-2.5-3.3-4.1-8.6-3.4-12.6c0.4-2.7,6-6.9,8.2-6.3c3.6,1,6.4,5.3,9.6,8.3
			C1554.1,229.9,1553.2,231,1552.4,232.1z"/>
		<path class="st10" d="M655,232.3c-3.6,0.2-7.2,0.3-10.8,0.5c-0.2,0.8-0.4,1.5-0.6,2.3c3.2,1,6.4,2.1,9.6,3.1c0,0.7,0,1.5,0,2.2
			c-3.5-0.4-9,0.6-10.2-1.3c-2.3-3.8-3.4-9.4-2.6-13.7c0.4-2.3,6.8-5.7,9.1-4.8c3.3,1.2,5.3,6,7.9,9.2
			C656.7,230.7,655.8,231.5,655,232.3z"/>
		<path class="st10" d="M688.4,231.8c-6.9,0.6-10.7,0.9-14.6,1.2c-0.2,0.7-0.3,1.4-0.5,2.1c3.3,1.1,6.7,2.1,10,3.2
			c-0.1,0.8-0.3,1.7-0.4,2.5c-3.8-0.8-9.3-0.3-10.9-2.7c-2.2-3.3-2.7-9.1-1.4-13c0.8-2.5,7-5.4,9.3-4.4
			C683.1,222.1,684.9,226.9,688.4,231.8z"/>
		<path class="st9" d="M583.2,211.5c6.7,2.8,13.7,3.7,16.7,7.7c2.6,3.5,2.5,12.1,0,15.7c-3,4.1-10,5.2-16.7,8.4
			C583.2,231.8,583.2,223.5,583.2,211.5z M586.5,216.4c0,7.2,0,13.5,0,19.8c8,2.4,12.2-1.1,12.4-8.6
			C599.2,220,595.4,215.6,586.5,216.4z"/>
		<path class="st15" d="M1531.8,214.2c0,8.3,0,17,0,25.6c-13.6,2.1-19.8-3.4-15.7-13.7c0.9-2.2,3.1-4.2,5.1-5.7
			C1524.2,218.2,1527.7,216.6,1531.8,214.2z M1532,234.8c-0.9-1.6-1.8-3.1-2.7-4.7c-1.6-2-3.3-4-4.9-5.9c-1.8,2.2-4.9,4.3-5.1,6.7
			c-0.2,2,2.6,5.6,4.7,6.1C1526.3,237.6,1529.3,235.6,1532,234.8z"/>
		<path class="st15" d="M1186.1,235.2c3.1,1,6.3,1.9,9.4,2.9c0,0.7,0.1,1.5,0.1,2.2c-3.5-0.3-9.1,0.7-10.2-1.1
			c-2.2-3.9-3.2-9.4-2.5-13.9c0.3-2.2,6.4-5.7,8.2-4.9c3.6,1.6,6.1,5.9,9,9.1c-0.7,0.8-1.3,1.6-2,2.4c-3.9,0.4-7.8,0.8-11.7,1.2
			C1186.5,233.8,1186.3,234.5,1186.1,235.2z"/>
		<path class="st15" d="M828.2,232.3c-3.6,0.2-7.2,0.4-10.8,0.6c-0.2,0.8-0.4,1.6-0.7,2.3c3.1,1.1,6.2,2.1,9.3,3.2
			c-0.1,0.8-0.1,1.6-0.2,2.3c-3.6-0.6-9.3,0.1-10.4-1.9c-2.1-3.9-2.7-9.5-1.8-14c0.4-2.1,6.5-5.2,8.5-4.3c3.4,1.5,5.6,5.9,8.3,9.1
			C829.7,230.5,828.9,231.4,828.2,232.3z"/>
		<path class="st15" d="M1150.1,231.6c-7.7,0.7-11.6,1.1-15.4,1.5c-0.1,0.7-0.3,1.4-0.4,2.1c3.1,0.9,6.3,1.9,9.4,2.8
			c0,0.8,0,1.6,0,2.3c-3.5-0.3-9.2,0.5-10.2-1.3c-2.2-3.9-3.1-9.4-2.4-13.9c0.3-2.2,6.4-5.6,8.3-4.7
			C1143,222.1,1145.4,226.4,1150.1,231.6z"/>
		<path class="st15" d="M1585,240.7c-3.6-0.6-9.3,0.1-10.4-1.9c-2.1-3.9-2.7-9.5-1.8-14c0.4-2.1,6.5-5.2,8.5-4.3
			c3.4,1.5,5.6,5.9,9.9,11c-7.1,0.7-10.9,1.1-14.7,1.5c-0.2,0.7-0.4,1.4-0.7,2.1c3.1,1.1,6.3,2.1,9.4,3.2
			C1585.2,239.2,1585.1,239.9,1585,240.7z"/>
		<path class="st15" d="M1046.5,231.9c-3.9,0.4-7.8,0.8-11.7,1.2c-0.2,0.7-0.3,1.4-0.5,2.1c3.1,1,6.3,2,9.4,2.9
			c0,0.7,0.1,1.4,0.1,2.2c-3.5-0.2-8.8,0.9-10.2-1c-2.4-3.3-3.6-8.8-2.8-12.8c0.6-2.7,6.4-6.6,8.5-5.9c3.6,1.3,6.1,5.8,9.1,8.9
			C1047.8,230.3,1047.2,231.1,1046.5,231.9z"/>
		<path class="st15" d="M467.5,224.1c11.8-7.1,16.3-5.2,17.3,7.8c-3.9,0.4-7.7,0.7-11.6,1.1c-0.2,0.7-0.4,1.3-0.6,2
			c3,1.1,5.9,2.1,8.5,3.1c-4.8,4.9-10.4,3.9-12.5-3.4c-1-3.4-0.7-7.1-1-10.7L467.5,224.1z"/>
		<path class="st15" d="M394.6,231.6c-7.7,0.7-11.6,1.1-15.5,1.5c-0.2,0.7-0.3,1.4-0.5,2c3.1,1,6.2,2,9.3,3c0,0.8,0,1.6,0,2.4
			c-3.5-0.4-8.8,0.6-10.2-1.3c-2.3-3.4-3.5-8.8-2.6-12.8c0.6-2.7,6.5-6.5,8.6-5.8C387.4,221.9,389.9,226.4,394.6,231.6z"/>
		<path class="st11" d="M1112.2,240.6c0-4.2,0.3-8.4-0.2-12.5c-0.2-1.4-2.4-2.6-3.7-3.9c-1.2,1.3-3.2,2.5-3.5,4
			c-0.8,4-0.8,8.2-1.1,12.4c-0.8-0.1-1.6-0.1-2.4-0.2c0-6.4,0-12.9,0-20.9c4.3,1,11.2,0.6,12.7,3.4c2.6,4.8,1.9,11.5,2.5,17.4
			C1115.2,240.4,1113.7,240.5,1112.2,240.6z"/>
		<path class="st12" d="M775.3,240.6c0-3.8,0.4-7.6-0.2-11.3c-0.3-1.8-2.3-3.3-3.6-4.9c-1.3,1.6-3.5,3.1-3.8,4.9
			c-0.6,3.7-0.2,7.6-0.2,11.4c-1,0-2-0.1-3-0.1c0-6.3,0-12.5,0-18.9c14.6-3,17.5,0.7,13.6,18.8C777.2,240.4,776.3,240.5,775.3,240.6
			z"/>
		<path class="st16" d="M334.7,240.2c0-6.2,0-12.4,0-18.7c15.4-3,18.4,1.1,12.2,19.1c-0.3-3.2-0.2-6.5-1-9.5
			c-0.7-2.4-2.4-4.5-3.7-6.8c-1.3,2.4-3.1,4.6-3.7,7.1c-0.7,3-0.4,6.2-0.6,9.3C336.8,240.6,335.8,240.4,334.7,240.2z"/>
		<path class="st12" d="M1383.9,220.9c15.3-1.3,17.3,1.5,11.8,19.7c-0.3-3.5-0.3-7-1.1-10.3c-0.5-2.2-2.3-4-3.6-6
			c-1.4,1.9-3.5,3.7-3.9,5.8c-0.7,3.3-0.2,6.9-0.2,10.4c-1,0-2,0-3-0.1C1383.9,234.3,1383.9,228,1383.9,220.9z"/>
		<path class="st16" d="M979.8,240.5c-0.2-3.5,0.1-7.1-0.6-10.5c-0.5-2.1-2.5-3.8-3.8-5.6c-1.2,1.7-3.2,3.3-3.5,5.2
			c-0.6,3.6-0.2,7.4-0.2,11.1c-1.1,0-2.2-0.1-3.2-0.1c0-6.4,0-12.7,0-19.2C983.5,218.7,986.7,223.1,979.8,240.5z"/>
		<path class="st12" d="M502.6,240.7c-0.3-2.4-0.4-4.9-1-7.2c-0.9-3.2-2.3-6.2-3.5-9.2c-1.4,3.2-3.1,6.4-4.2,9.8
			c-0.7,2-0.6,4.3-0.8,6.4c-0.9,0-1.8,0-2.7,0.1c-0.3-6.2-0.6-12.4-1.1-20.8c5.6,1.1,12.8,0.6,14.4,3.3c2.6,4.7,1.7,11.5,2.2,17.3
			C504.8,240.5,503.7,240.6,502.6,240.7z"/>
		<path class="st16" d="M1443.9,240.5c0-6.4,0-12.8,0-19.3c15.1-2.3,18.7,2.8,11.5,19.4c-0.2-3.6,0-7.3-0.6-10.9
			c-0.3-1.9-2-3.6-3-5.4c-1.5,1.8-3.8,3.4-4.3,5.4c-0.9,3.4-0.5,7.1-0.7,10.6C1445.7,240.4,1444.8,240.5,1443.9,240.5z"/>
		<path class="st4" d="M821.6,85.1c5.6-4.2,8.9-8.6,11.8-8.4c3,0.2,7.6,4.8,7.8,7.7c0.2,2.6-4.4,7.5-7.3,7.9
			C830.9,92.8,827.4,88.9,821.6,85.1z"/>
		<path class="st13" d="M620.7,242.7c-5.4-2.5-10.1-4.6-14.8-6.8c3.1-3.5,6.2-7,9.5-10.8c-0.6-0.3-3.4-1.8-6.7-3.5
			C620.7,219,622.5,221.8,620.7,242.7z"/>
		<path class="st13" d="M1487.8,242.7c-5.4-2.5-10.1-4.6-14.8-6.8c3.1-3.5,6.2-7,9.5-10.8c-0.6-0.3-3.4-1.8-6.7-3.5
			C1487.8,219,1489.6,221.8,1487.8,242.7z"/>
		<path class="st14" d="M1283.9,230.5c-5.6,4.9-8.6,9.3-12.3,10.2c-6.6,1.6-9.3-3.5-9.3-9.8c0-6.1,2.5-11.5,9-10.4
			C1275,221,1278.1,225.6,1283.9,230.5z M1278.2,230.5c-3.1-2.9-5-4.7-6.9-6.5c-1.7,2.3-4.5,4.5-4.7,6.9c-0.2,2,2.8,4.3,4.3,6.4
			C1272.9,235.4,1275,233.5,1278.2,230.5z"/>
		<path class="st14" d="M1100.4,230.3c-6.2,5-9.4,9.4-13.3,10.3c-6.2,1.4-8.5-3.8-8.6-9.5c-0.1-6.1,2.2-11.6,8.8-10.7
			C1090.9,220.9,1094.1,225.4,1100.4,230.3z M1094.3,230.5c-3.1-2.9-5-4.7-6.9-6.4c-1.7,2.3-4.5,4.5-4.7,6.9c-0.2,2,2.8,4.3,4.4,6.4
			C1089.1,235.4,1091.2,233.4,1094.3,230.5z"/>
		<path class="st12" d="M409.8,220.6c0.8-1.4,2.5-4.3,4.2-7.3c2.2,3.1,4.3,6,6.5,9.1c-6,5.2-6.7,11.1,0.5,17.3
			c-6.5,2.9-8.5,0.1-9-5.9C411.7,229.8,410.7,225.9,409.8,220.6z"/>
		<path class="st12" d="M1346.5,222.9c0,0,0.1,0.2,0,0.2c2.2-3,4.3-6,6.7-9.3c2,2.6,4.2,5.5,6.4,8.4c-0.7,0-1.4,0-2.1,0
			c0,5.8,0,11.7,0,18.6c-4.7,2-5.8-1.8-6.6-7.3C1350.3,229.8,1348,226.4,1346.5,222.9z"/>
		<path class="st17" d="M1172.6,239.6c0-3.2,0.5-6.6-0.2-9.6c-0.5-2.1-2.5-3.9-3.8-5.8c-1.9,1.9-4.8,3.5-5.5,5.8
			c-1,3-0.2,6.5-1.7,9.9c0-6.1,0-12.2,0-18.4C1175.7,219.1,1175.7,219.1,1172.6,239.6z"/>
		<path class="st15" d="M912.4,225.7c-4.1-0.6-6.7-1-9.3-1.4c-4.2,11.4-2.9,13.3,8.8,11.9c-3.3,6.4-9.5,6.8-11.8,2.7
			c-2.4-4.2-2.4-12-0.1-16.3C902.5,217.8,908.2,218.7,912.4,225.7z"/>
		<path class="st17" d="M1495.2,221c14.9-1.3,14.9-1.3,11.5,18.9c-0.2-3.1,0.2-6.4-0.7-9.4c-0.7-2.3-2.8-4.2-4.3-6.2
			c-1.7,2.1-4.3,3.9-5,6.2c-0.9,2.8-0.2,6-1.5,9.2C1495.2,233.5,1495.2,227.2,1495.2,221z"/>
		<path class="st17" d="M691.4,239.5c0-6,0-12,0-18c14.8-2.5,14.8-2.5,11.7,18.3c0-3.3,0.5-6.7-0.2-9.8c-0.4-2.1-2.5-3.9-3.8-5.8
			c-1.9,1.9-4.8,3.5-5.5,5.8c-1,3-0.2,6.5-0.2,9.8C692.7,239.7,692,239.6,691.4,239.5z"/>
		<path class="st17" d="M1021.2,239.8c-0.2-3.2,0.2-6.5-0.6-9.4c-0.7-2.3-2.9-4.1-4.4-6.2c-1.7,2.1-4.2,3.9-5,6.3
			c-0.9,2.8-0.2,6-1.5,9.1c0-6.2,0-12.4,0-18.7C1024.8,219.7,1024.8,219.7,1021.2,239.8z"/>
		<path class="st17" d="M854.9,239.6c0-3.2,0.5-6.6-0.2-9.6c-0.5-2.1-2.5-3.9-3.8-5.8c-1.9,1.9-4.8,3.5-5.5,5.8
			c-1,3-0.2,6.5-1.7,9.9c0-6.1,0-12.2,0-18.4C858,219.1,858,219.1,854.9,239.6z"/>
		<path class="st15" d="M801.3,219.7c-4.5,6.9-7.4,11.3-10.8,16.3c2.8,1,5.1,1.7,7.4,2.5c0,0.4,0,0.7-0.1,1.1
			c-2.2,0-4.4,0.2-6.6-0.1c-1.8-0.2-3.5-1-5.7-1.6c2.1-3.8,4.2-7.7,6.9-12.6c-2.6-0.8-4.9-1.5-7.3-2.2c0-0.8,0-1.7,0-2.5
			C789.5,220.4,793.9,220.2,801.3,219.7z"/>
		<path class="st14" d="M1604,223.9c-2.6,0.2-5.3,0.4-8.9,0.8c3.2,5.5,14.8,5.6,8.3,14.4c-1.5,2.1-7.4,0.7-11.2,1
			c0-1.1,0-2.2,0.1-3.4c2.6,0.3,5.3,0.6,8.3,1c1-7.7-14.7-6.3-7.3-15.4c1.7-2.1,6.9-1,10.5-1.4
			C1603.9,221.9,1603.9,222.9,1604,223.9z"/>
		<path class="st18" d="M1065.6,240.9c-2.4-6.7-4.7-13.3-7.1-20c0.9-0.4,1.7-0.8,2.6-1.2c1.8,3.6,3.6,7.1,5.9,11.6
			c2.7-3.2,5.1-6.2,8.1-9.7c-2.2,6.9-4.2,13.2-6.2,19.6C1067.9,241.1,1066.8,241,1065.6,240.9z"/>
		<path class="st13" d="M1248,219.3c2.8,2.6,5.6,5.2,8.9,8.2c-2.5,0.6-5,1.3-7.6,1.9c-0.3,3.7-0.7,7.4-1,11c-0.7,0-1.3,0-2,0.1
			c0-8.5,0-17,0-26.2c4.5,0,9.5,0,14.5,0c0,0.5,0.1,1,0.1,1.4c-3.5,0.3-6.9,0.7-10.4,1C1249.7,217.5,1248.9,218.4,1248,219.3z"/>
		<path class="st12" d="M872.8,213.5c-1.5,9.4-2.8,18.2-4.4,28.2C861.2,224.5,863.1,214.4,872.8,213.5z"/>
		<path class="st11" d="M1296.7,222.5c0,0,0.1-0.4,0.1-0.4c-11,1.6-7.3,11.9-11.4,18.4c0-6.5,0-13,0-20.8
			C1289,220.6,1292.8,221.5,1296.7,222.5z"/>
		<path class="st11" d="M467.7,224c-13.7-1.3-5.6,11.7-11.8,18.7c-0.4-8.4-0.7-14.7-1.2-23.9c5.3,2.2,9.1,3.8,12.9,5.4
			C467.5,224.1,467.7,224,467.7,224z"/>
		<path class="st13" d="M328,238.5c-4.5-0.1-11.2,1.5-12.8-0.8c-2.3-3.1-1.7-9.6-0.2-13.8c0.6-1.7,6.9-1.2,10.6-1.7
			c-0.7,0.9-1.3,1.8-2,2.7c-2.1,0.7-4.1,1.3-6.2,2c0,2.4,0,4.9-0.1,7.3c2.1,0.7,4.2,1.4,6.3,2.1c0.7-0.6,1.3-1.1,2-1.7
			c0.6-0.2,1.3-0.2,1.9-0.2C327.7,235.8,327.9,237.1,328,238.5z"/>
		<path class="st13" d="M961.4,238.5c-4.5-0.1-11.2,1.5-12.8-0.8c-2.3-3.1-1.7-9.6-0.2-13.8c0.6-1.7,6.9-1.2,10.6-1.7
			c-0.7,0.9-1.3,1.8-2,2.7c-2.1,0.7-4.1,1.3-6.2,2c0,2.4,0,4.9-0.1,7.3c2.1,0.7,4.2,1.4,6.3,2.1c0.7-0.6,1.3-1.1,2-1.7
			c0.6-0.2,1.3-0.2,1.9-0.2C961.1,235.8,961.2,237.1,961.4,238.5z"/>
		<ellipse class="st16" cx="991.7" cy="227" rx="1.5" ry="18.8"/>
		<path class="st19" d="M961.4,238.5c-0.2-1.4-0.3-2.7-0.5-4.1c-1.3-3.2-2.6-6.4-4-9.6c0.7-0.9,1.3-1.8,2-2.7
			C966.2,226.1,966.9,230.8,961.4,238.5z"/>
		<path class="st19" d="M328,238.5c-0.2-1.4-0.3-2.7-0.5-4.1c-1.3-3.2-2.6-6.4-4-9.6c0.7-0.9,1.3-1.8,2-2.7
			C332.9,226.1,333.6,230.8,328,238.5z"/>
		<path class="st20" d="M717.3,865.9c-4.6-1.3-9.3-2.6-13.9-3.9c-0.2-3-0.5-5.9-0.7-8.9c-0.5,0-1-0.1-1.5-0.1
			c-0.7,1.6-1.4,3.3-2,4.9c-4,2.7-8,5.4-11.9,8.1c0.1-0.7,0.1-1.4,0.2-2.1c-0.1-4.1-0.2-8.1-0.3-12.2c-2.5-0.2-5.1-0.4-7.6-0.5
			c-0.7-2.6-0.9-5.7-2.3-7.7c-12.3-16.9-13.1-36.9-13.7-56.6c-0.6-22.1-1.3-44.4,5.9-65.9c6.8-20.2,26.2-35.3,46.5-35.8
			c39.5-0.9,79-1.9,118.5-2c110.8-0.3,221.6-0.2,332.4,0.1c14.1,0,28.3,1.4,41.4,8.6c18.6,10.3,26.6,27,28.3,47.4
			c1.4,17,2.4,34.1,1.9,51.1c-0.5,19.1-2.2,38.3-14.5,54.2c-2.1,2.8-5.8,4.4-7.6,7.3c-2.3,3.6-3.4,7.9-5.5,13.2
			c-1.5-1.2-3.5-2.7-5.7-4.4c-0.2,0.6-0.8,3.5-1.6,3.6c-11.1,1.4-22.3,2.8-33.5,3.3c-5.7,0.3-11.6-1-17.3-1.6
			c-0.6-4.8-1.3-9.6-1.9-14.4c3.1-2,7.1-6.4,9.1-5.5c10.1,4.1,16.8-4.1,25.1-6.1c17.3-4.2,27.5-16.6,29.4-34.4
			c1.8-17.2,2.7-34.7,1.7-51.9c-0.5-8.6-5.9-16.9-9.2-25.4c-0.1-6.8-0.2-13.7-0.3-20.5c-0.2-12.2-2.2-14.3-14-14.3
			c-31.6-0.1-63.2,0-94.7,0c-2.9,0-5.8,0.4-9.6,0.7c0,40.7,0,80.7,0,120.6c-0.4-0.1-0.7-0.1-1.1,0c0-40,0-80,0-121.4
			c-5,0-8.9,0-12.8,0c-118.9,0-237.7,0.1-356.6-0.1c-25.9,0-22.1,0.5-23,22.6c-4,5.4-9.7,10.3-11.6,16.4
			c-7.5,24.3-4.3,49.4-2.9,74.2c1.2,22.1,17.2,33.8,32.9,44.4C720.7,855.8,719.8,859.9,717.3,865.9z"/>
		<path class="st21" d="M1207,728.2c3.2,8.4,8.7,16.8,9.2,25.4c1,17.2,0.1,34.7-1.7,51.9c-1.9,17.9-12.1,30.3-29.4,34.4
			c-8.3,2-15,10.3-25.1,6.1c-2-0.8-6,3.6-9.1,5.5c2.6-5.1,2.4-8.4-4.5-8.2c-11.2,0.2-22.5-0.2-33.7,0.1c-7.1,0.2-14.3,1.3-21.4,2
			c-0.6-0.6-1.2-1.2-1.8-1.8c-26.6-0.1-53.2-0.3-79.8-0.2c-2.4,0-4.8,1.6-7.1,2.5c-1.7-0.8-3.3-1.6-5-2.3c-3.9-0.1-7.8-0.2-11.7-0.2
			c-14,0-15.1,1.5-11.3,15.7c0.3,1,0.3,2,0.5,3c-6.8,3.5-13.4,3.7-20.3-0.7c-7.9,8.4-10.2,8.5-20.2,2.1c-6.5-1.2-13.1-2.4-19.6-3.5
			c-1.7-3.4-3.3-6.8-5-10.2c-2.5,2.4-4.9,4.9-7.4,7.3c-1.5-1.4-4.4-3-4.2-4.3c0.8-10.1-4.2-9.9-11-7.2c-3.9,0.3-7.9,0.1-11.8,0.9
			c-7.4,1.5-14.7,3.4-22,5.1c-3.4-0.6-6.8-1.1-10.2-1.7c-8.2-8-11.4-8-16.4,0.1c-2.4,0.1-4.9,0.3-7.3,0.4
			c-4.1-5.4-12.3-5.5-19.1-0.3c-2.4-0.1-4.8-0.2-7.3-0.3c-2,0.5-3.9,1.1-5.9,1.6l-0.6,0.5c-8.5-6.6-21.3-6.9-27.5-0.5
			c-8.8-4.6-11.5,0.5-12.5,8.3c-2.5,2-5.1,4.1-7.6,6.1c0-3.7-0.3-7.5,0.1-11.2c0.9-9-1.4-12.9-11.6-13.7
			c-20.1-1.6-36.6-11.9-38.5-35.1c-1.7-20.2-1-40.6-0.5-61c0.1-4.2,4.2-8.3,6.4-12.5c0.1,22.5,0.2,44.9,0.3,67.4
			c0.1,13.4,1,14.3,13.9,15.3c2.2,2.7,4,7,6.8,7.9c8,2.8,16.5,5.9,24.8,5.9c102.5,0.4,205,0.3,307.5,0.3c38.6,0,77.2,0.4,115.8-0.2
			c11-0.2,22.9-1,28.6-13.9c12.5-1.2,13.9-2.8,13.9-15.9C1206.9,775.5,1206.9,751.8,1207,728.2z"/>
		<path class="st22" d="M1002.6,846c2.4-0.9,4.7-2.5,7.1-2.5c26.6-0.1,53.2,0.1,79.8,0.2c-1.4,2-2.5,5.3-4.2,5.7
			c-6.9,1.6-7.7,6.9-5.7,11.6c1.2,2.9,6.2,4.1,11.8,7.6c0-10.2,0-16.6,0-23c7.1-0.7,14.2-1.8,21.4-2c11.2-0.3,22.5,0.1,33.7-0.1
			c6.9-0.1,7.1,3.1,4.5,8.2c0.6,4.8,1.3,9.6,1.9,14.4c-3.2,0-6.4,0.1-9.6,0.1c-0.1-3,0.5-6.3-0.5-9c-1-2.8-3.4-5-5.1-7.5
			c-2.8,2.3-6.4,4.1-8,7.1c-1,2,0.9,5.6,1.6,8.5c-0.1,1-0.3,2.1-0.4,3.1c-47.1,0-94.3-0.1-141.4-0.1c-4.8-2-9.5-4.1-14.3-6.1
			c-0.1-1-0.2-2-0.5-3c-3.8-14.2-2.7-15.7,11.3-15.7c3.9,0,7.8,0.2,11.7,0.2c-2.2,6.9-4.4,13.8-6.3,19.8c5.7,0,10.7,0,15.9,0
			C1005.9,858.7,1004.2,852.4,1002.6,846z M1038.7,867.4c2.3-6.1,3.7-9.9,5.1-13.6c0.7,0.2,1.4,0.5,2.1,0.7
			c0.7,3.6,1.4,7.2,2.2,10.8c0.9-0.2,1.9-0.3,2.8-0.5c-0.6-4.4-0.1-11.8-2-12.6c-5.9-2.3-12.7-2-19.1-2.7c0,6.5,0,11,0,15.4
			c0.6,0.1,1.1,0.1,1.7,0.2c0.9-3.7,1.9-7.3,2.8-11c0.6,0.1,1.3,0.2,1.9,0.3C1036.9,857.9,1037.6,861.4,1038.7,867.4z M1011.1,850.9
			c0.4,5.2,0.8,9.7,1.2,14.3c0.6-0.1,1.1-0.1,1.7-0.2c1-3.8,1.9-7.6,2.9-11.5c3.1,2.2,3.7,4.2,4.3,6.2c0.5,1.8,1.1,3.7,2.4,8
			C1026.2,850.7,1024.7,848.8,1011.1,850.9z M1113.3,865c0.6,0.2,1.2,0.3,1.7,0.5c1.1-3.9,2.2-7.8,3.4-11.7c0.9-0.1,1.7-0.2,2.6-0.2
			c1,3.9,1.9,7.8,2.9,11.6c0.9-0.1,1.8-0.3,2.7-0.4c-0.7-4.2-0.4-9.1-2.6-12.2c-1.6-2.3-6.4-2.2-10.7-3.5
			C1113.3,855.8,1113.3,860.4,1113.3,865z M1109,864.9c-0.4-5.2-0.8-9.7-1.1-14.1c-0.7,0-1.4,0.1-2.1,0.1c-0.7,4.2-1.4,8.4-2.2,12.7
			c-1,0-2-0.1-3-0.1c-0.9-4.1-1.7-8.3-2.8-13.5C1093,863,1095.8,866.9,1109,864.9z"/>
		<path class="st23" d="M695,732.3c-2.2,4.2-6.3,8.3-6.4,12.5c-0.5,20.3-1.2,40.8,0.5,61c1.9,23.2,18.4,33.5,38.5,35.1
			c10.2,0.8,12.5,4.7,11.6,13.7c-0.4,3.7-0.1,7.5-0.1,11.2c-7.3,0-14.6,0.1-21.9,0.1c2.5-6.1,3.3-10.2-3.9-15.1
			c-15.7-10.6-31.7-22.3-32.9-44.4c-1.3-24.8-4.6-49.9,2.9-74.2c1.9-6.1,7.6-11,11.6-16.4C695,721.4,695,726.8,695,732.3z"/>
		<path class="st20" d="M853.6,851.6c7.3-1.7,14.6-3.7,22-5.1c3.8-0.8,7.8-0.6,11.8-0.9c0,1.3-0.1,2.5-0.1,3.8
			c-0.3,1.8-0.7,3.6-1.1,5.9c-2.7-1.8-4.8-3.2-7.7-5.2c0.3,5.6,0.6,9.8,0.8,14c-4.7,6.6-10.5,3-16.1,2c0-4.1,0-8.3,0-12.4
			c-0.3,0-0.7,0-1,0c-1,4.1-2,8.2-3,12.3c-1.8,0-3.5,0-5.3,0C853.7,861.2,853.7,856.4,853.6,851.6z"/>
		<path class="st19" d="M759.3,851.4c6.3-6.4,19.1-6.1,27.5,0.5c0.2,2.1,0.3,4.1,0.5,6.2c-0.1,0.5-0.1,1.1-0.2,1.6
			c-1.3,1.4-2.6,2.9-3.9,4.3c-10.2,0.4-20.4,0.8-30.6,1.2c-3-9.6,6.5-2.6,8.3-8.3C760.7,856.2,760,853.8,759.3,851.4z"/>
		<path class="st14" d="M669.2,865.7c-5.7-1.5-11.3-3.1-17-4.5c-3.5-0.9-7.2-1.6-10.8-1.8c-0.8,0-1.8,2.6-3.6,5.4c0-7.1,0-12.3,0-19
			c3.5,5.2,6,9,9.5,14.1c2.5-5.1,4-8.4,6.6-13.9c0.9,5.6,1.4,8.8,2,12.2c4.2-0.9,7.8-1.7,11.5-2.5
			C668,859.1,668.6,862.4,669.2,865.7z"/>
		<path class="st18" d="M853.6,851.6c0.1,4.8,0.2,9.6,0.2,14.3c-1.9,2.6-3.7,5.1-5.3,7.3c-2.9-3.6-4.6-5.7-6.3-7.8
			c0.4-5.2,0.8-10.3,1.2-15.5C846.8,850.5,850.2,851.1,853.6,851.6z"/>
		<path class="st24" d="M989.2,868.2c47.1,0,94.3,0.1,141.4,0.1c-2.1,0.6-4.2,1.8-6.3,1.8c-43,0.1-86.1,0.1-129.1,0
			C993.3,870.1,991.3,868.9,989.2,868.2z"/>
		<path class="st20" d="M800.6,850.1c6.8-5.2,14.9-5.1,19.1,0.3c-0.7,4.6-1.4,9.1-2.1,13.7c-5.8,4.5-11,4.4-15.4-2.1
			c0.2-2.6,0.4-5.2,0.7-7.9c-0.5-0.8-0.9-1.6-1.4-2.5C801,851.2,800.7,850.7,800.6,850.1z"/>
		<path class="st18" d="M669.2,865.7c-0.6-3.3-1.2-6.6-1.8-9.9c0.1-0.7,0.2-1.5,0.3-2.2c-0.1-1.2-0.2-2.4-0.3-3.6
			c4,0.4,8.1,0.8,12.1,1.1c2.5,0.2,5.1,0.4,7.6,0.5c-3.7,4.1-4.4,8.2,0.3,12.2c-0.1,0.7-0.1,1.4-0.2,2.1
			C681.2,865.9,675.2,865.8,669.2,865.7z M671.6,863.2c1.3,0.4,2.6,0.7,3.9,1.1c0.3-3.2,0.6-6.5,0.9-9.7c-1.3-0.1-2.6-0.3-3.9-0.4
			C672.2,857.3,671.9,860.3,671.6,863.2z"/>
		<path class="st25" d="M1131.1,865.3c-0.6-2.9-2.6-6.6-1.6-8.5c1.6-3,5.2-4.8,8-7.1c1.8,2.5,4.2,4.7,5.1,7.5c0.9,2.7,0.4,6,0.5,9
			c-2.2,2.5-4.4,5.1-6,7C1134.2,869.3,1132.7,867.3,1131.1,865.3z"/>
		<path class="st20" d="M843.4,850c-0.4,5.2-0.8,10.3-1.2,15.5c-5.1,0.3-10.3,0.6-15.4,1c0.5-5.4,6.6-10.8,0.2-16.4
			C832,842,835.2,842,843.4,850z"/>
		<path class="st21" d="M879.2,864.1c-0.2-4.2-0.5-8.4-0.8-14c3,2,5,3.4,7.7,5.2c0.4-2.3,0.8-4.1,1.1-5.9c2.4-0.6,4.7-1.2,7.8-2
			c-0.7,7.2-1.4,13.3-2,19.3c-1.8,0.7-3.5,1.3-5.3,2C887.7,861.5,882.8,864.2,879.2,864.1z"/>
		<path class="st18" d="M827,850c6.4,5.5,0.3,10.9-0.2,16.4c-3.1-0.8-6.1-1.5-9.2-2.3c0.7-4.6,1.4-9.1,2.1-13.7
			C822.1,850.3,824.5,850.2,827,850z M821.3,860.4c0,0.7,0,1.4,0,2.2c1.3,0.2,2.5,0.5,3.8,0.4c0.3,0,0.4-1.4,0.6-2.2
			C824.2,860.6,822.8,860.5,821.3,860.4z"/>
		<path class="st15" d="M902.6,857c2.5-2.4,4.9-4.9,7.4-7.3c1.7,3.4,3.3,6.8,5,10.2c-3.7,8.4-6.1,8.8-11.9,1.7
			C902.9,860.1,902.7,858.6,902.6,857z M908.2,863.2c1-0.7,2-1.3,2.9-2c-1.3-0.1-2.7-0.3-4-0.4C907.5,861.6,907.8,862.4,908.2,863.2
			z"/>
		<path class="st12" d="M800.6,850.1c0.1,0.6,0.4,1.1,0.8,1.5c0.5,0.8,0.9,1.6,1.4,2.5c-0.2,2.6-0.4,5.2-0.7,7.9
			c-2.8,1.4-5.6,2.8-8.4,4.2c-1.1-2.8-2.2-5.5-3.3-8.3c0.3-2,0.6-4,0.9-6c0.7-0.7,1.3-1.3,2-2C795.8,849.9,798.2,850,800.6,850.1z"
			/>
		<path class="st15" d="M1239.6,857.9c-5.7,2.3-9,3.7-13.6,5.5c0-2.7-0.8-6.8,0.3-10.2c0.6-1.8,5.4-3.8,7.1-3
			C1236,851.4,1237.5,855,1239.6,857.9z"/>
		<path class="st18" d="M759.3,851.4c0.7,2.4,1.4,4.8,1.6,5.5c-1.7,5.7-11.3-1.3-8.3,8.3c-1.9-1.8-3.8-3.7-5.7-5.5
			C747.9,852,750.5,846.8,759.3,851.4z"/>
		<path class="st18" d="M902.6,857c0.1,1.5,0.3,3,0.4,4.6c-3.3,1.7-6.6,3.4-9.9,5c0.6-6.1,1.3-12.1,2-19.3c-3.1,0.8-5.5,1.4-7.8,2
			c0-1.3,0.1-2.5,0.1-3.8c6.8-2.8,11.8-3,11,7.2C898.2,854,901.1,855.6,902.6,857z"/>
		<path class="st23" d="M699.1,857.9c0.7-1.6,1.4-3.3,2-4.9c0.5,0,1,0.1,1.5,0.1c0.2,3,0.5,5.9,0.7,8.9c-0.6,0.9-1.3,1.8-1.9,2.7
			C700.7,862.4,699.9,860.2,699.1,857.9z"/>
		<path class="st14" d="M667.3,850c0.1,1.2,0.2,2.4,0.3,3.6c-2.1-0.2-4.2-0.4-6.4-0.6c-0.2-0.5-0.3-1-0.5-1.6
			C663,850.9,665.2,850.5,667.3,850z"/>
		<path class="st21" d="M859.1,866c1-4.1,2-8.2,3-12.3c0.3,0,0.7,0,1,0c0,4.1,0,8.3,0,12.4C861.7,866,860.4,866,859.1,866z"/>
		<path class="st21" d="M791.4,851.8c-0.3,2-0.6,4-0.9,6c-1,0.1-2.1,0.2-3.1,0.3c-0.2-2.1-0.3-4.1-0.5-6.2c0,0,0.6-0.5,0.6-0.5
			C788.7,851.6,790.1,851.7,791.4,851.8z"/>
		<path class="st21" d="M783.2,864.1c1.3-1.4,2.6-2.9,3.9-4.3C785.9,861.2,784.5,862.6,783.2,864.1z"/>
		<path class="st26" d="M627.4,94.5c8.4,0.2,18.5-3.6,22.3,6.3c2.7,7.2,3,16.9,0.6,24.1c-3.3,10.1-13.5,9-23,8.3
			C627.4,120.6,627.4,108.2,627.4,94.5z"/>
		<path class="st19" d="M707.2,134.7c-5.4,0.5-10.8,1.1-16.2,1.6c-0.1-1.3-0.3-2.6-0.4-3.9c4.4-6.8,10.1-5.5,16.2-2.1
			C706.9,131.8,707.1,133.2,707.2,134.7z"/>
		<path class="st19" d="M1103.1,116.8c-5.2,0-10.4,0-15.6,0c-0.4-0.8-0.8-1.6-1.2-2.3c2.9-1.8,5.8-5,8.8-5.1c3-0.1,6.2,2.8,9.3,4.3
			C1104,114.7,1103.6,115.7,1103.1,116.8z"/>
		<path class="st2" d="M940.9,122.6c-5,5.5-7.7,11.2-11.3,11.9c-6.3,1.1-8.5-4.8-8.5-10.8c0-6,0.7-12.9,8.2-12.1
			C932.8,111.9,935.9,117.5,940.9,122.6z"/>
		<path class="st19" d="M800.1,116.7c-5.3,0-10.7,0-16,0c-0.4-0.9-0.7-1.7-1.1-2.6c3.3-1.7,6.5-4.7,9.8-4.7c2.8,0,5.7,3.3,8.5,5.2
			C800.9,115.3,800.5,116,800.1,116.7z"/>
		<path class="st19" d="M1237.6,116.7c-5.3,0-10.7,0-16,0c-0.4-0.8-0.7-1.7-1.1-2.5c3.2-1.7,6.5-4.7,9.7-4.8c2.8,0,5.7,3.3,8.6,5.1
			C1238.4,115.2,1238,116,1237.6,116.7z"/>
		<path class="st2" d="M735.3,231.4c-2.7,2.4-4.6,4.1-6.4,5.7c-1.4-2.3-3.9-4.7-3.8-7c0.1-2.1,3-4,4.7-6
			C731.3,226.2,732.9,228.3,735.3,231.4z"/>
		<path class="st27" d="M586.5,216.4c8.9-0.8,12.7,3.6,12.4,11.2c-0.2,7.5-4.4,10.9-12.4,8.6C586.5,229.9,586.5,223.6,586.5,216.4z"
			/>
		<path class="st19" d="M1532,234.8c-2.7,0.9-5.7,2.9-8.1,2.3c-2.1-0.5-4.8-4.2-4.7-6.1c0.2-2.4,3.3-4.5,5.1-6.7
			c1.6,2,3.3,4,4.9,5.9C1530.2,231.6,1531.1,233.2,1532,234.8z"/>
		<path class="st19" d="M1278.2,230.5c-3.1,2.9-5.2,4.9-7.3,6.9c-1.6-2.2-4.5-4.4-4.3-6.4c0.2-2.4,3-4.6,4.7-6.9
			C1273.1,225.8,1275.1,227.6,1278.2,230.5z"/>
		<path class="st19" d="M1094.3,230.5c-3.1,3-5.2,4.9-7.3,6.9c-1.6-2.2-4.5-4.4-4.4-6.4c0.2-2.4,3-4.6,4.7-6.9
			C1089.3,225.8,1091.2,227.6,1094.3,230.5z"/>
		<path class="st0" d="M323.6,224.8c1.3,3.2,2.6,6.4,4,9.6c-0.6,0-1.3,0-1.9,0.2c-0.7,0.6-1.3,1.1-2,1.7c-2.1-0.7-4.2-1.4-6.3-2.1
			c0-2.4,0-4.9,0.1-7.3C319.5,226.2,321.6,225.5,323.6,224.8z"/>
		<path class="st19" d="M317.5,226.8c0,2.4,0,4.9-0.1,7.3C317.4,231.7,317.4,229.3,317.5,226.8z"/>
		<path class="st19" d="M323.7,236.3c0.7-0.6,1.3-1.1,2-1.7C325,235.2,324.3,235.7,323.7,236.3z"/>
		<path class="st0" d="M956.9,224.8c1.3,3.2,2.6,6.4,4,9.6c-0.6,0-1.3,0-1.9,0.2c-0.7,0.6-1.3,1.1-2,1.7c-2.1-0.7-4.2-1.4-6.3-2.1
			c0-2.4,0-4.9,0.1-7.3C952.8,226.2,954.9,225.5,956.9,224.8z"/>
		<path class="st19" d="M950.8,226.8c0,2.4,0,4.9-0.1,7.3C950.7,231.7,950.8,229.3,950.8,226.8z"/>
		<path class="st19" d="M957,236.3c0.7-0.6,1.3-1.1,2-1.7C958.3,235.2,957.7,235.7,957,236.3z"/>
		<path class="st28" d="M695,732.3c0-5.5,0-11,0-16.4c0.9-22.1-2.9-22.7,23-22.6c118.9,0.1,237.7,0.1,356.6,0.1c3.9,0,7.8,0,12.8,0
			c0,41.3,0,81.3,0,121.4c-102.8,0-205.5,0-308.3,0c-23.3,0-46.5,0.2-69.8,0.3c-13-0.9-13.9-1.9-13.9-15.3
			C695.2,777.2,695.1,754.8,695,732.3z M800.1,745.7c-2.1-3.5-4.8-8.1-7.5-12.7c-2.3,4.1-4.7,8.2-6.8,11.9
			c-4.9-11.1-4.9-11.1-10.4-10.5c1.2,6,2.1,12,3.7,17.8c1.3,4.5,3.6,8.7,5.5,13c2.2-4,4.4-8.1,6.7-12.1c0.2-0.4,0.8-0.6,1.8-1.3
			c1.3,3.7,2.2,7.2,3.8,10.4c0.7,1.4,2.9,2.6,4.5,2.7c1,0.1,2.8-1.9,3.1-3.2c2.1-9.4,3.8-18.8,5.7-28.3c-1.3-0.5-2.7-1-4-1.5
			C804.1,736.9,801.8,741.9,800.1,745.7z M721.2,750.8c0,3.1,0,6.2,0,9.2c0,13.4,0,13.5,13.6,13.4c25.6-0.2,22.3,3.5,22.4-24.9
			c0.1-12-10.2-20.5-24.2-20.4c-11.7,0.1-11.7,0.1-11.7,17.5C721.2,747.4,721.2,749.1,721.2,750.8z M911.8,765.3
			c4.7,0,8.3,0.9,11.1-0.2c4.8-1.9,11.6-4.2,13.2-8.1c2-5.1,2-14.5-1.2-17.5c-4.6-4.3-12.8-4.8-19.6-5.9c-0.5-0.1-2.9,7.8-3.3,12
			C911.4,751.5,911.8,757.7,911.8,765.3z M814.2,734.5c4.9,2.2,7.5,3.4,10,4.5c-3.9,2.2-7.5,4.2-11.1,6.2c0.4,0.9,0.8,1.9,1.2,2.8
			c3.4,0,6.8,0,10.2,0c-5.4,3.5-15.4,2.4-12,12.4c3.7,11,12.6,3.7,19.3,4.2C834.4,743.3,830.1,735.1,814.2,734.5z M1028.5,759
			c-0.2-0.5-0.3-1.1-0.5-1.6c3.8-0.4,7.7-0.8,12-1.3c1.4-7.6-0.9-13.5-7.7-14.4c-3.8-0.5-9.9,2.8-11.9,6.2
			c-3.3,5.8-2.5,12.9,4.2,16.9c5.1,3,9.7,2,14.7-4.2C1034.5,759.9,1031.5,759.4,1028.5,759z M884.3,758.7c0-0.4,0-0.8,0-1.2
			c1.7-0.3,3.5-0.3,5.2-0.8c2.3-0.7,6.2-1.4,6.5-2.7c0.5-2.6-0.1-6.3-1.7-8.5c-3.9-5.5-9.3-6.4-14.8-2.1c-5.4,4.2-6.4,14.6-1.4,19.3
			c5.3,5.1,10.8,5.2,17.1-2C890.7,759.9,887.5,759.3,884.3,758.7z M1002,756.1c2.2-7.9,0.2-14-7.1-14.4c-4-0.2-11.1,4.1-11.7,7.3
			c-0.9,4.9,1.5,11.9,4.9,15.6c3.4,3.5,9.4,2.3,14-4.2c-5.2-0.7-8.5-1.1-11.8-1.5c0-0.5,0-1,0-1.5C994,757,997.7,756.6,1002,756.1z
			 M962.3,765.7c-3.5-9.5,4.1-20.4-8.3-24.2c-3.1-1-7.5,2.1-11.3,3.4c0.4,0.9,0.8,1.7,1.3,2.6c3.3,0.2,6.7,0.3,10,0.5
			c-5.5,3.6-14.7,1.7-12.6,11.6C944,771.1,953.4,763.8,962.3,765.7z M846.3,747.9c1.2,0.4,2.5,0.8,3.7,1.2c1,5.4,1.9,10.9,2.9,16.3
			c0.9-0.2,1.8-0.5,2.7-0.7c5-17.3,2-23.5-11.6-24c-0.6-2.5-1.1-5-1.8-7.8c-5.9,5.1-7,21.5-1.7,34.7
			C842.9,759.6,844.6,753.7,846.3,747.9z M979,745.3c-2.7-4.9-4.6-8.6-6.9-12.8c-1.6,1.2-3.6,2.1-4.5,3.6c-5.3,9-0.1,17.9,1,26.8
			c0.2,1.3,6.1,1.8,9.4,2.7c0.5-0.9,0.9-1.7,1.4-2.6C972.8,756.9,972.4,750.8,979,745.3z M1045.9,765.2c1.5-0.1,3.1-0.3,4.6-0.4
			c0.2-3,0-6,0.7-8.9c0.6-2.6,2.2-5,3.4-7.4c1.4,2.5,3.2,4.9,4.2,7.7c1.1,2.9,1.4,6.2,2.1,9.2c0.9-0.2,1.7-0.5,2.6-0.7
			c5.2-24.9-3.4-27.4-18.9-20.2C1045.1,751.2,1045.5,758.2,1045.9,765.2z M868.8,766.4c0-12,0-22.3,0-33
			C861.6,738.4,861,759.2,868.8,766.4z M1014.7,754c0-1.4,0.4-2.9-0.1-4.1c-1.2-2.6-2.8-4.9-4.3-7.3c-1.2,2.4-2.9,4.6-3.3,7.1
			c-0.6,3.3-0.5,6.9,0,10.2c0.3,1.9,2,3.5,3.1,5.2c1.5-1.7,3.5-3.1,4.4-5.1C1015.3,758.4,1014.7,756,1014.7,754z"/>
		<path class="st24" d="M1207,728.2c-0.1,23.6-0.2,47.3-0.3,70.9c-0.1,13.1-1.5,14.7-13.9,15.9c-34.8-0.1-69.6-0.2-104.4-0.3
			c0-40,0-80,0-120.6c3.8-0.3,6.7-0.7,9.6-0.7c31.6,0,63.2-0.1,94.7,0c11.8,0,13.8,2.2,14,14.3
			C1206.8,714.5,1206.9,721.4,1207,728.2z M1148.8,764.4c5.4-5.9,9.8-10.6,14.2-15.4c-0.8-0.8-1.6-1.6-2.3-2.3
			c-3.9,3.5-7.7,7-11.9,10.7c-4.3-3.8-8.2-7.3-12.2-10.7c-0.7,0.8-1.4,1.6-2,2.4C1139,753.8,1143.4,758.5,1148.8,764.4z"/>
		<path class="st29" d="M1088.4,814.7c34.8,0.1,69.6,0.2,104.4,0.3c-5.7,12.9-17.7,13.7-28.6,13.9c-38.6,0.6-77.2,0.2-115.8,0.2
			c-102.5,0-205,0.1-307.5-0.3c-8.3,0-16.8-3.1-24.8-5.9c-2.8-1-4.6-5.2-6.8-7.9c23.3-0.1,46.5-0.3,69.8-0.3
			c102.8,0,205.5,0,308.3,0C1087.7,814.5,1088.1,814.5,1088.4,814.7z"/>
		<path class="st1" d="M687.4,863.9c-4.6-4-4-8-0.3-12.2C687.2,855.7,687.3,859.8,687.4,863.9z"/>
		<path class="st25" d="M1002.6,846c1.7,6.3,3.3,12.7,4.6,17.5c-5.2,0-10.2,0-15.9,0c1.9-6,4.1-12.9,6.3-19.8
			C999.2,844.5,1000.9,845.3,1002.6,846z"/>
		<path class="st28" d="M1091.3,845.5c0,6.4,0,12.8,0,23c-5.6-3.4-10.6-4.7-11.8-7.6c-2-4.7-1.2-10,5.7-11.6
			c1.7-0.4,2.8-3.7,4.2-5.7C1090.1,844.3,1090.7,844.9,1091.3,845.5z"/>
		<path class="st20" d="M791.4,851.8c-1.3-0.1-2.6-0.3-3.9-0.4c2-0.5,3.9-1.1,5.9-1.6C792.7,850.5,792,851.2,791.4,851.8z"/>
		<path class="st25" d="M1038.7,867.4c-1.2-5.9-1.9-9.4-2.6-12.9c-0.6-0.1-1.3-0.2-1.9-0.3c-0.9,3.7-1.9,7.3-2.8,11
			c-0.6-0.1-1.1-0.1-1.7-0.2c0-4.5,0-8.9,0-15.4c6.4,0.7,13.2,0.4,19.1,2.7c1.9,0.7,1.4,8.2,2,12.6c-0.9,0.2-1.9,0.3-2.8,0.5
			c-0.7-3.6-1.4-7.2-2.2-10.8c-0.7-0.2-1.4-0.5-2.1-0.7C1042.4,857.5,1041,861.3,1038.7,867.4z"/>
		<path class="st25" d="M1011.1,850.9c13.6-2.1,15.1-0.2,12.4,16.9c-1.3-4.3-1.8-6.2-2.4-8c-0.6-2-1.2-4.1-4.3-6.2
			c-1,3.8-1.9,7.6-2.9,11.5c-0.6,0.1-1.1,0.1-1.7,0.2C1011.9,860.6,1011.5,856.1,1011.1,850.9z"/>
		<path class="st25" d="M1113.3,865c0-4.6,0-9.2,0-16c4.3,1.2,9.1,1.2,10.7,3.5c2.2,3.1,1.8,8.1,2.6,12.2c-0.9,0.1-1.8,0.3-2.7,0.4
			c-1-3.9-1.9-7.8-2.9-11.6c-0.9,0.1-1.7,0.2-2.6,0.2c-1.1,3.9-2.2,7.8-3.4,11.7C1114.4,865.3,1113.9,865.1,1113.3,865z"/>
		<path class="st25" d="M1109,864.9c-13.2,2-16-1.9-11.2-14.9c1.1,5.2,1.9,9.3,2.8,13.5c1,0,2,0.1,3,0.1c0.7-4.2,1.4-8.4,2.2-12.7
			c0.7,0,1.4-0.1,2.1-0.1C1108.2,855.2,1108.6,859.7,1109,864.9z"/>
		<path class="st21" d="M802.8,854.1c-0.5-0.8-0.9-1.6-1.4-2.5C801.9,852.5,802.3,853.3,802.8,854.1z"/>
		<path class="st1" d="M671.6,863.2c0.3-3,0.6-6,0.9-9c1.3,0.1,2.6,0.3,3.9,0.4c-0.3,3.2-0.6,6.5-0.9,9.7
			C674.2,864,672.9,863.6,671.6,863.2z"/>
		<path class="st20" d="M821.3,860.4c1.5,0.1,2.9,0.2,4.4,0.3c-0.2,0.8-0.4,2.2-0.6,2.2c-1.2,0.1-2.5-0.2-3.8-0.4
			C821.3,861.8,821.3,861.1,821.3,860.4z"/>
		<path class="st1" d="M908.2,863.2c-0.3-0.8-0.7-1.6-1-2.4c1.3,0.1,2.7,0.3,4,0.4C910.1,861.9,909.1,862.6,908.2,863.2z"/>
		<path class="st1" d="M911.1,861.2c-1,0.7-2,1.3-2.9,2C909.1,862.6,910.1,861.9,911.1,861.2z"/>
		<path class="st27" d="M800.1,745.7c1.7-3.8,3.9-8.8,6.2-13.8c1.3,0.5,2.7,1,4,1.5c-1.9,9.4-3.6,18.9-5.7,28.3
			c-0.3,1.3-2.1,3.3-3.1,3.2c-1.6-0.1-3.7-1.3-4.5-2.7c-1.6-3.2-2.5-6.8-3.8-10.4c-1,0.7-1.6,0.9-1.8,1.3c-2.3,4-4.5,8.1-6.7,12.1
			c-1.9-4.3-4.2-8.5-5.5-13c-1.7-5.8-2.5-11.8-3.7-17.8c5.5-0.5,5.5-0.5,10.4,10.5c2.1-3.7,4.5-7.8,6.8-11.9
			C795.3,737.6,798.1,742.2,800.1,745.7z"/>
		<path class="st1" d="M721.2,750.8c0-1.7,0-3.4,0-5.1c0-17.3,0-17.3,11.7-17.5c14-0.1,24.3,8.3,24.2,20.4
			c-0.1,28.5,3.2,24.7-22.4,24.9c-13.5,0.1-13.5,0-13.6-13.4C721.2,757,721.2,753.9,721.2,750.8z M726.1,733c0,12.3,0,24,0,35.6
			c9.3,0,17.8,0,26.5,0c0-8.1,0-15.5,0-23c-4-0.7-7.4-1.3-10.9-1.9c-0.5-3.9-0.8-7.2-1.2-10.7C735.4,733,731,733,726.1,733z"/>
		<path class="st27" d="M911.8,765.3c0-7.7-0.4-13.8,0.1-19.8c0.4-4.3,2.8-12.1,3.3-12c6.8,1.1,15,1.6,19.6,5.9
			c3.2,3,3.3,12.4,1.2,17.5c-1.6,4-8.3,6.2-13.2,8.1C920.1,766.3,916.5,765.3,911.8,765.3z M919.7,739.1c0,7,0,13.2,0,19.3
			c7.3,1.6,10.8-1.2,11.4-8C931.8,742.7,928.1,739.2,919.7,739.1z"/>
		<path class="st27" d="M814.2,734.5c15.8,0.6,20.2,8.9,17.6,30.1c-6.7-0.5-15.7,6.8-19.3-4.2c-3.3-10,6.6-8.9,12-12.4
			c-3.4,0-6.8,0-10.2,0c-0.4-0.9-0.8-1.9-1.2-2.8c3.6-2,7.2-4,11.1-6.2C821.8,737.9,819.2,736.7,814.2,734.5z"/>
		<path class="st22" d="M1028.5,759c3,0.5,6,0.9,10.9,1.6c-5,6.2-9.7,7.2-14.7,4.2c-6.7-4-7.6-11.1-4.2-16.9c2-3.5,8.1-6.7,11.9-6.2
			c6.8,0.9,9.1,6.8,7.7,14.4c-4.3,0.5-8.2,0.9-12,1.3C1028.2,757.9,1028.3,758.4,1028.5,759z"/>
		<path class="st22" d="M884.3,758.7c3.2,0.6,6.4,1.2,10.9,2c-6.2,7.2-11.8,7-17.1,2c-4.9-4.7-4-15.1,1.4-19.3
			c5.5-4.2,10.8-3.4,14.8,2.1c1.6,2.2,2.3,5.9,1.7,8.5c-0.3,1.3-4.2,2-6.5,2.7c-1.7,0.5-3.5,0.6-5.2,0.8
			C884.3,757.9,884.3,758.3,884.3,758.7z"/>
		<path class="st27" d="M1002,756.1c-4.3,0.5-8,0.9-11.8,1.3c0,0.5,0,1,0,1.5c3.3,0.4,6.6,0.8,11.8,1.5c-4.6,6.5-10.6,7.8-14,4.2
			c-3.5-3.6-5.8-10.7-4.9-15.6c0.6-3.2,7.7-7.5,11.7-7.3C1002.2,742.1,1004.2,748.2,1002,756.1z"/>
		<path class="st27" d="M962.3,765.7c-9-1.9-18.3,5.4-20.9-6.2c-2.2-10,7.1-8.1,12.6-11.6c-3.3-0.2-6.7-0.3-10-0.5
			c-0.4-0.9-0.8-1.7-1.3-2.6c3.8-1.2,8.1-4.4,11.3-3.4C966.5,745.3,958.9,756.2,962.3,765.7z"/>
		<path class="st27" d="M846.3,747.9c-1.7,5.9-3.4,11.8-5.7,19.8c-5.4-13.2-4.2-29.5,1.7-34.7c0.6,2.8,1.2,5.3,1.8,7.8
			c13.6,0.5,16.6,6.7,11.6,24c-0.9,0.2-1.8,0.5-2.7,0.7c-1-5.4-1.9-10.9-2.9-16.3C848.8,748.7,847.5,748.3,846.3,747.9z"/>
		<path class="st27" d="M979,745.3c-6.7,5.5-6.2,11.6,0.4,17.6c-0.5,0.9-0.9,1.7-1.4,2.6c-3.3-0.9-9.2-1.4-9.4-2.7
			c-1.1-8.8-6.3-17.8-1-26.8c0.9-1.5,2.9-2.4,4.5-3.6C974.4,736.7,976.4,740.4,979,745.3z"/>
		<path class="st27" d="M1045.9,765.2c-0.4-7-0.8-14.1-1.2-20.8c15.5-7.2,24-4.7,18.9,20.2c-0.9,0.2-1.7,0.5-2.6,0.7
			c-0.7-3.1-1-6.3-2.1-9.2c-1-2.7-2.8-5.1-4.2-7.7c-1.2,2.5-2.8,4.8-3.4,7.4c-0.7,2.8-0.5,5.9-0.7,8.9
			C1049,765,1047.4,765.1,1045.9,765.2z"/>
		<path class="st22" d="M868.8,766.4c-7.8-7.2-7.1-28,0-33C868.8,744.1,868.8,754.4,868.8,766.4z"/>
		<path class="st27" d="M1014.7,754c0,2,0.6,4.4-0.2,6.1c-0.9,2-2.9,3.4-4.4,5.1c-1.1-1.7-2.8-3.4-3.1-5.2c-0.5-3.3-0.6-6.9,0-10.2
			c0.4-2.5,2.2-4.8,3.3-7.1c1.5,2.4,3.1,4.8,4.3,7.3C1015.2,751.1,1014.7,752.6,1014.7,754z"/>
		<path class="st22" d="M1148.8,764.4c-5.4-5.9-9.8-10.6-14.2-15.4c0.7-0.8,1.4-1.6,2-2.4c3.9,3.5,7.9,6.9,12.2,10.7
			c4.1-3.7,8-7.2,11.9-10.7c0.8,0.8,1.6,1.6,2.3,2.3C1158.6,753.7,1154.3,758.5,1148.8,764.4z"/>
		<path class="st24" d="M726.1,733c4.8,0,9.3,0,14.4,0c0.4,3.5,0.8,6.7,1.2,10.7c3.4,0.6,6.9,1.2,10.9,1.9c0,7.5,0,14.8,0,23
			c-8.7,0-17.2,0-26.5,0C726.1,757,726.1,745.3,726.1,733z M744.3,755.3c-0.9,2-1.8,4-2.6,6.1c-1.3-3.4-2.6-6.8-3.9-10.3
			c1.9,0.9,3.8,1.9,5.6,2.8c-3.5,1.5-7,2.9-10.6,4.4c0.6-1.1,1.2-2.3,1.7-3.4c2.2,2.6,4.3,5.1,6.5,7.7c-1.9-0.6-3.7-1.3-5.6-1.9
			C738.4,758.9,741.3,757.1,744.3,755.3z"/>
		<path class="st28" d="M919.7,739.1c8.4,0.1,12.1,3.6,11.4,11.3c-0.6,6.7-4.2,9.5-11.4,8C919.7,752.3,919.7,746.1,919.7,739.1z"/>
		<path class="st27" d="M744.3,755.3c-2.9,1.8-5.9,3.6-8.8,5.3c1.9,0.6,3.7,1.3,5.6,1.9c-2.2-2.6-4.3-5.1-6.5-7.7
			c-0.6,1.1-1.2,2.3-1.7,3.4c3.5-1.5,7-2.9,10.6-4.4c-1.9-0.9-3.8-1.9-5.6-2.8c1.3,3.4,2.6,6.8,3.9,10.3
			C742.5,759.4,743.4,757.4,744.3,755.3z"/>
	</g>
</g>
</svg>
