<svg xmlns="http://www.w3.org/2000/svg" xml:space="preserve" id="Ebene_1" x="0" y="0" viewBox="0 0 1920 1080"><style>.st0{fill:#fefefe}.st1{fill:#eeedf2}.st2{fill:#f3f3f3}.st4{fill:#35353f}.st5{fill:#303440}.st6{fill:#2c3344}.st7{fill:#303542}.st9{fill:#3b3f49}.st10{fill:#54505c}.st11{fill:#475777}.st12{fill:#62505c}.st13{fill:#504651}.st14{fill:#474a61}.st15{fill:#4f5362}.st16{fill:#705b58}.st17{fill:#573b49}.st18{fill:#5a596f}.st19{fill:#e8ebe8}.st20{fill:#e0e3f0}.st21{fill:#d4dbf0}.st22{fill:#e1e4f3}.st23{fill:#dde3f2}.st24{fill:#727cf4}.st25{fill:#8997f4}.st27{fill:#e6e6f2}.st28{fill:#737cf4}</style><path d="M1920 1080H0V0h1920zM961.4 238.5c5.5-7.7 4.8-12.4-2.4-16.3-3.7.5-10.1 0-10.6 1.7-1.5 4.3-2.1 10.7.2 13.8 1.6 2.3 8.3.7 12.8.8m-635.8-16.3c-3.7.5-10.1 0-10.6 1.7-1.5 4.3-2.1 10.7.2 13.8 1.6 2.3 8.4.7 12.8.8 5.6-7.7 4.9-12.4-2.4-16.3m141.9 1.9c-3.8-1.6-7.6-3.2-12.9-5.4.5 9.2.8 15.5 1.2 23.9 6.3-7-1.8-20 11.8-18.7.3 3.6 0 7.3 1 10.7 2.1 7.3 7.7 8.3 12.5 3.4-2.6-.9-5.6-2-8.5-3.1.2-.7.4-1.3.6-2 3.9-.4 7.7-.7 11.6-1.1-1-12.9-5.4-14.7-17.3-7.7m879-1.2c1.5 3.5 3.9 6.9 4.5 10.6.9 5.5 1.9 9.3 6.6 7.3v-18.6h2.1c-2.2-2.9-4.4-5.8-6.4-8.4-2.4 3.3-4.6 6.3-6.7 9.3-4.7-2.4-9.5-5.6-15 .5 4.1.7 7.2 1.2 10.3 1.7-5.3 3.3-14.1 2.1-10.8 11.2 1.2 3.1 9 3.7 15.4 6zm-49.8-.4c-3.8-1-7.6-1.9-11.4-2.8v20.8c4.1-6.5.4-16.8 11.4-18.4 1.2 4.3 2.3 8.7 3.5 13-4.3-8.3 1.3-9.7 8.7-11 .7 5.8 1.4 11.2 2.1 16.6 2.4-3.5 2-7.2 2.9-10.6.5-2.1 2.7-3.8 4.2-5.7 1 1.9 2.6 3.6 3 5.6.7 3.5.7 7.1 1 10.7 1-.1 2.1-.2 3.1-.2 0-4.3.7-8.7-.2-12.8-.6-2.8-3.5-7.1-5.4-7.1-7.7-.2-15.3 1.1-22.9 1.9M183.8 1004.7h-2c.3 6.7.3 13.5 1.3 20.1.3 2 3.1 4.6 5.2 5.2 5.1 1.4 10.5 2.5 15.7 2.3 6.4-.2 12.7-1.9 19-2.9 2.6-.4 5.7-1.6 7.7-.6 9.5 4.7 18.6 5.9 28.1.1 1.7-1.1 5 1 7.6 1 8.8 0 17.7-.4 26.5-.5 3.5 0 7.1.3 10.6.3 8.4 0 16.9-.1 25.3-.3 2.6-.1 5.7-1.5 7.7-.5 9.5 4.7 18.6 5.9 28.1.1 1.7-1.1 5 1 7.6 1 8.8 0 17.7-.5 26.5-.5 3.8 0 7.6.6 11.4.9 6.8.6 14.9 4 20.2 1.4 14.4-7.1 29.5 7.6 43.1-2.8.5-.4 2.4 1.4 3.6 1.4 9.2-.2 18.4-.8 27.6-.9 3.8-.1 7.6.9 11.4.9 7.9 0 15.8-.2 23.7-.4 3.8-.1 7.6-.5 11.4-.1 3.5.4 7.4 3.4 10.2 2.4 13.2-4.4 26.2.6 39.2.2 2.8-.1 5.6-1.5 8.5-1.8 3.7-.4 7.7-1.4 11.1-.4 9.1 2.9 17.7 4.2 26.7-.8 2.7-1.5 6.9.3 10.5.4 18.5.8 37 1.5 55.4 2.2.6 0 1.1-.9 1.7-1 4.3-.3 8.5-.4 12.8-.6 8.3-.3 16.5-.6 24.8-.9 3.5-.1 7.1-.5 10.6-.1 4.5.6 9.5 3.9 13.1 2.6 11.7-4.1 22.9.6 34.2.2 4.1-.1 8-2.1 12.1-2.8 3.2-.5 6.5-.9 9.7-.4 6.1.8 12.9 4.6 18 2.8 9.9-3.6 19 .3 28.1-.2 14.2-.8 28.1 1 42.2.6 2.2-.1 4.4-1.4 6.6-1.5 4.6-.3 9.2-.2 13.7-.2 7.4 0 14.8.1 22.2.1 4.6 0 9.2-.1 13.7-.2 7.6-.1 15.2-.3 22.9-.5 2.1-.1 4.5-.9 6.4-.3 10 3.6 19.6 4.6 29.5-.7 2.5-1.3 6.4.4 9.6.4 8.4.1 16.9-.1 25.3-.1 3.5 0 7.1-.3 10.6.2 4.5.6 9.2 3.6 13.2 2.6 11.3-2.9 22.2 0 33.2.1 4.3.1 8.7-2.2 13.1-2.8 3.1-.4 6.4.4 9.6.4 8.8-.1 17.7-.4 26.5-.5 3.5 0 7.5-.8 10.5.5 9.4 4.1 17.8 1.9 27.4-.5 8.7-2.1 18.7 1.6 28.1 2.7.5.1 1.2-.8 1.8-.8 4.2-.3 8.5-.6 12.8-.8 8.3-.3 16.5-.5 24.8-.7 3.5-.1 7.6-1.5 10.5-.2 9 4.2 17.3 4.4 26.4-.1 2.9-1.5 7.5.7 11.3.9 6.7.4 13.5.7 20.2.8 4.2 0 8.5-.5 12.8-.7 8.3-.3 16.5-.5 24.8-.8 3.5-.1 7.6-1.5 10.5-.1 9 4.1 17.3 4.4 26.4-.1 2.9-1.5 7.5.8 11.3.9 7 .2 14 .1 20.9.1 3.7 0 7.7-1.2 11.1-.2 9.1 2.8 17.7 4.2 26.7-.9 2.6-1.5 6.9.4 10.5.5 8.2.1 16.3-.1 24.5-.1 4.1 0 8.1.5 12.2.7 6.7.3 13.5.6 20.2.7 4.3 0 8.5-.5 12.8-.6 8.3-.3 16.5-.5 24.8-.8 3.2-.1 7-1.7 9.6-.5 9.6 4.7 18.6 1.1 28.2.7 13.4-.6 26.9 1.7 40.8-.1 11.7-1.6 23.9 1.3 35.8 1.3 1.5 0 3.5-5 4.5-7.9.7-2 0-4.4-.1-6.7-.2-9.1-.4-18.2-.5-27.3 0-2.5.4-5.1.4-7.6.1-8.8.2-17.6.1-26.4 0-2.9-2-6.5-1-8.7 5.1-10.2 4.7-19.9.2-30.1-1-2.2-.1-5.2 0-7.9.1-8.7.3-17.4.3-26.1 0-3-.4-5.9-.3-8.9.1-9.4.3-18.7.4-28.1 0-3.2.1-6.5.1-9.7.2-8.1.4-16.3.4-24.4 0-3.2-2-7.2-.8-9.6 4.9-9.9 4.1-19.3 0-29.2-1-2.4.2-5.8.3-8.7.1-8.4.1-16.8.1-25.2 0-3-1.6-6.6-.5-8.8 5.2-9.9 4.1-19.3.2-29.2-1-2.5.1-5.8.1-8.8.1-8.4.2-16.8.2-25.2 0-3-1.7-6.6-.6-8.7 5.3-9.9 4.1-19.3.3-29.1-1-2.5-.4-5.9.1-8.8.6-3.9 2.4-7.6 2.6-11.5.6-12-4-23.7-.3-36.1 1.5-5.1-3.6-12-2.5-17.4 2.1-10.1-3-10.2-9.7-10.1-12.1.1-24.3.3-36.4 0-17.1-.4-34.1-1.5-51.2-1.8-6.6-.1-13.1 1.8-19.7 1.7-17.4-.3-34.8-1.2-52.2-1.8-1.6-.1-3.3.6-4.9.6-5.9.1-11.7.1-17.6 0-5.3-.1-10.6-.6-15.9-.5-16.7.5-33.4 1.7-50.2 1.7-16.7 0-33.4-1.2-50.2-1.9-2-.1-4 .1-6 .2-16.7.6-33.4 1.7-50.2 1.7-17.1 0-34.1-1.2-51.2-1.8-1.7-.1-3.3.2-5 .2-16.7.6-33.4 1.6-50.2 1.6-17-.1-34.1-1.2-51.1-1.8-2-.1-4 .5-5.9.5-6.2 0-12.4 0-18.6-.1-5-.1-10-.5-14.9-.3-16.4.5-32.8 1.7-49.1 1.7-17.4 0-34.8-1.3-52.2-1.8-2.9-.1-5.9 1-8.8 1.1-4.9.2-9.9.2-14.8 0-6.3-.2-12.6-1.2-18.8-1-15.4.4-30.8 1.8-46.1 1.7-17.1 0-34.1-1.2-51.2-1.9-3-.1-6 0-9 .1-15.4.6-30.8 1.8-46.1 1.8-18.1-.1-36.1-1.2-54.1-1.9-2-.1-4 .1-6 .2-15.4.6-30.8 1.8-46.2 1.7-18.4-.1-36.8-1.2-55.1-1.9-1.7-.1-3.3.1-5 .2-15.4.6-30.8 1.7-46.2 1.6-18.7-.1-37.4-1.4-56.1-1.7-5.9-.1-11.8 1.6-17.7 1.6-17.7-.2-35.4-1.1-53.2-1.4-5.6-.1-11.1 1.5-16.7 1.4-17.7-.3-35.4-1.2-53.2-1.4-5.6-.1-11.1 1.5-16.7 1.5-18.4-.3-36.8-1.2-55.2-1.5-5.6-.1-11.1 1.6-16.7 1.5-17.7-.3-35.4-1.2-53.2-1.5-5.6-.1-11.1 1.6-16.7 1.5-17.7-.3-35.4-1.2-53.2-1.5-5.6-.1-11.1 1.4-16.7 1.5-11.1.3-22.3-.1-33.4.7-2.1.1-5.6 4.1-5.7 6.4-.9 19.2-1.3 38.5-1.5 57.7-.1 7.1 1.6 14.2 1.5 21.3-.2 18.9-1.4 37.9-1.4 56.8 0 16.5 1.6 33.1 1.6 49.6 0 17.2-1.2 34.4-1.8 51.6-.1 2.7.1 5.5.2 8.2.6 15.8 1.7 31.7 1.6 47.5-.1 17.9-1.2 35.8-1.8 53.7-.1 1.7 0 3.4.1 5.1.6 16.5 1.5 33.1 1.8 49.6.4 17.5.2 34.7.2 51.8m767.5-511c238.4 0 476.7-.1 715.1.2 9.7 0 12.2-2.8 12.1-12.6-.5-53.8-.4-107.6 0-161.4.1-9-2.2-11.5-11.1-11.5q-716.1.3-1432.2 0c-9.3 0-11.7 2.7-11.6 12.1.4 53.1.2 106.3.2 159.4 0 13.9 0 13.9 13.4 13.9 238-.1 476-.1 714.1-.1M611.4 148.1c9.4 0 18.7.3 27.9-.1 16.8-.6 28.6-13 30-31 1.5-19.7-7.9-34.3-25.1-37-10.6-1.7-21.6-1.3-32.8-1.9zm287.8-49.2c-13.4-5.3-21 1.2-29.7 11.3V75.1c-6.1 5-13.5 8.1-13.7 11.7-1.1 20.3-.5 40.7-.5 60.9h13.9c.5-7.9 1-15.3 1.4-22.7.9-.1 1.9-.1 2.8-.2 3.1 5.9 6.6 11.7 9.3 17.9 4.2 9.4 11.4 4.3 18.6 5.3-2.6-5.4-4.6-9.7-6.8-13.9-6.4-12.5-17.1-25.1 4.7-35.2m-178 48.1c0-11.1.2-22-.1-32.9-.2-7.9-3.7-14-11.4-16.2-10.9-3-21.3-1.9-31 5.4 1.6 3.7 2.9 6.7 4.3 9.7 19.2-6.1 20.8-5.9 23.2 4-4.7 0-9.3-.3-13.9.1-10.1.8-16.6 8-16 17.1s8.2 15.8 18 15.3c8.5-.4 17.2-1.5 26.9-2.5m285.7.7c0-12.3.6-24.2-.2-36.1-.6-8.7-5.7-14.8-14.8-14.9-9.5-.1-19.1.8-28.8 1.3v49.5h13.8c0-9.1-.1-17.6 0-26.1 0-5.6 1.4-11.4 8-10 3.1.7 6.9 6 7.3 9.5 1.1 8.6.3 17.5.3 26.6 5.3.2 9.5.2 14.4.2m110.2-20c2.2-17.3-3-27.6-14.6-30.7s-22.9 2.1-27.7 12.6c-5.7 12.7-2.1 29.7 7.7 36.2 10.4 6.8 22.9 4.5 32.2-6.4-2.3-2.6-4.7-5.3-6.7-7.6-12.7 7.2-18.8 5.8-20.3-4.1zm-165.4-5.2c-.1-16.6-8.5-26.1-22.9-25.9-13.9.2-22.3 10.3-22.2 26.8.2 16.1 9.3 26.6 23.1 26.3 13.7-.3 22.1-10.6 22-27.2M814 127.7c1.7-17.7-3.5-27.7-15-30.7-12.1-3.1-23.5 2.4-28 13.7-5.3 13.5-1.1 29.6 9.2 35.6 10.8 6.2 22.5 3.7 30.6-6.6-2.2-2.5-4.3-5-6.4-7.4-12.6 6.4-17.4 5.4-20.8-4.6zm437.6.1c1.5-17.9-3.6-27.8-15.2-30.8-12.2-3.1-23.5 2.5-27.9 13.8-5.3 13.5-1.1 29.6 9.3 35.5 10.8 6.2 22.7 3.6 31.1-7.5-2.3-2.2-4.6-4.5-6.8-6.7-12.8 6.6-17.6 5.6-20.9-4.4 10.2.1 20 .1 30.4.1m-236.1-29.6c5.9 16.7 11.8 33.2 18.2 51.3 5.9-1.6 14.6-1.4 16.1-4.7 6.8-15 11.5-31 17-46.7-11.2-3.6-17.1 0-19.2 11.1-1.1 5.6-3.7 10.9-6.6 19-2.8-8.3-5.1-13.6-6.3-19.1-2.2-10-7.2-14.7-19.2-10.9m-265.6-20c-16.4.6-13.8 16.6-20.9 24.2-1.1 1.2-.6 6.3.3 6.7 10.6 4.4 5.5 13.6 5.8 20.6.7 19 5.2 22.7 24 17.4.6-3.4 1.3-7 2-10.9-3.8-.2-7-.5-11.2-.7v-23.6c3.9-.7 7-1.2 9.8-1.7V97.8c-3.6-.6-6.4-1.1-9.8-1.6zm437.4 33.6c3.6-.6 6.7-1.1 9.5-1.6V97.6c-3.6-.6-6.5-1-10.2-1.6V77.1c-7.1 3.8-15.4 4.2-14.2 15.3.4 3.5-5.7 7.5-5.6 11.2.1 4.1 4.8 7.8 5.8 12.1 1.1 4.5.2 9.5.3 14.3 0 18.9 5.7 22.9 23.8 16.5.4-3.2.9-6.6 1.4-10.2-3.7-.5-7.2-.9-10.7-1.3-.1-7.8-.1-15-.1-23.2m91.1 35.9V126c0-14.9 2.4-16.8 16.2-13.4 3.7-12 2.5-15.7-5.7-15.9s-16.3.7-24.8 1.1v49.9zm-117.9-35.2c1.1-6.4 5.5-14.2-5.3-15.6-8.4-1.1-16.9-.2-25.5-.2v50.9h13.8v-20.9c.1-15.4 2.6-17.6 17-14.2m-320.1 35.4V97.6h-13.2v50.3zm76.9 92.3c.9.1 1.9.3 2.8.4.2-3.8.1-7.7.8-11.5.4-1.8 2.4-3.3 3.7-4.9 1.3 1.7 3.4 3.2 3.6 5 .6 3.7.2 7.5.2 11.3 1.4-.1 2.8-.1 4.1-.2-.4-5.7.7-12.3-1.8-16.8-2.4-4.2-8.6-6.2-13.5-9.4.1 8.5.1 17.3.1 26.1m-180.1 4.6c0-5.1.8-11.5-.4-17.5-.5-2.8-6-7.4-7.2-6.8-3.5 1.7-8.2 5.5-8.3 8.7-.1 3.9 3.6 8.2 6.4 11.7 1.4 1.7 4.6 1.9 9.5 3.9m466.9-4.4c.9 0 1.8 0 2.7-.1.2-2.2.4-4.4.5-6.6.4-7.4.3-7.4 8.1-6.1.8.1 1.6-.6 2.5-.9 9.3-3 10-2.2 7.5 8.5 1.1-4 2.1-7.9 3.6-13.5h-24.9zm-685.1-5c4.8 6.5 11.7 8.6 15.8 3.2 10.4-13.5-8.6-11.9-11.4-20.9h11.8c-3.1-2.8-6.8-4.2-10.3-3.8-1.8.2-5 4.1-4.6 5.2.9 2.8 3.5 5.1 5.6 7.5 2.3 2.7 4.8 5.3 7.2 8-3.7-.1-7.4-.1-11.1-.1-.7.1-1.3.4-3 .9M887.4 225c.2.9.4 1.8.7 2.7-5.9.6-14.5-.1-11.2 8.8 1.2 3.1 8.9 3.6 13.7 5.3l2.4-3.3c-1.6-5.9-2.7-12-5.2-17.5-.6-1.2-6.4.2-9.8.4.1.8.2 1.5.3 2.3 3 .4 6 .8 9.1 1.3m-144.3-1.7c4.4.8 7.5 1.4 9.2 1.7-3.6 3.8-6.9 7.2-10.2 10.6 4.6 2.3 9.2 4.6 14.5 7.3 3.5-21.3-1.7-27-13.5-19.6m-446 4c4.1 5.4 7.2 9.6 10.3 13.8-.9-9.9-11.4-16.8-1.7-27.5-5.8 5.4-14.3 6.8-16 15.1 1.7 2.1 3.4 4 4 4.7.4-.8 1.7-3.1 3.4-6.1m1131 5c.8-.8 1.7-1.6 2.5-2.4-2.5-3.3-4.4-8-7.7-9.3-2.4-.9-8.7 2.4-9.2 4.7-.9 4.3.2 9.9 2.4 13.7 1.1 1.9 6.7 1.1 10.2 1.5 0-.7.1-1.5.1-2.2-3.3-1.1-6.6-2.2-9.8-3.2.2-.7.4-1.5.6-2.2 3.7-.2 7.3-.4 10.9-.6m-975.5-.5c-3.4-4.9-5.2-9.4-8.3-11.1-1.9-1.1-8.2 1.5-8.8 3.5-1.2 4.4-1.2 10.1.8 13.9 1.2 2.3 7.1 1.9 10.9 2.7.1-.8.3-1.7.4-2.5-3.3-1.1-6.7-2.2-10-3.3.2-.7.3-1.3.5-2 3.8-.3 7.6-.6 14.5-1.2m103.2 4c.1-.9.2-1.8.3-2.8 3.9-.3 7.7-.6 14.7-1.1-3.7-5.1-5.5-9.9-8.7-11.2-2.3-1-8.5 2-9.3 4.5-1.3 3.9-.7 9.7 1.5 13 1.6 2.3 7.1 1.8 10.9 2.6.1-.9.3-1.8.4-2.7-3.4-.8-6.6-1.6-9.8-2.3m996.6-3.7c.8-1.1 1.6-2.2 2.5-3.3-3.2-2.9-5.9-7.3-9.6-8.3-2.2-.6-7.8 3.6-8.2 6.3-.7 4 1 9.3 3.4 12.6 1.3 1.7 6.5.3 9.9.3-.2-.6-.3-1.1-.5-1.7-3.2-.9-6.3-1.9-9.5-2.8.1-.7.3-1.4.4-2.1 3.9-.3 7.8-.7 11.6-1m-897.4.2 2.5-2.5c-2.6-3.2-4.6-8-7.9-9.2-2.3-.9-8.7 2.5-9.1 4.8-.8 4.3.3 9.9 2.6 13.7 1.1 1.9 6.6 1 10.2 1.3v-2.2c-3.2-1-6.4-2.1-9.6-3.1.2-.8.4-1.5.6-2.3 3.5-.1 7.1-.3 10.7-.5m33.4-.5c-3.5-4.9-5.3-9.8-8.5-11.1-2.3-1-8.5 1.9-9.3 4.4-1.3 3.9-.8 9.7 1.4 13 1.6 2.4 7.1 1.9 10.9 2.7.1-.8.3-1.7.4-2.5-3.3-1.1-6.7-2.1-10-3.2.2-.7.3-1.4.5-2.1 3.9-.3 7.7-.6 14.6-1.2m-105.2-20.3v31.8c6.8-3.1 13.8-4.2 16.7-8.4 2.6-3.6 2.6-12.2 0-15.7-2.9-4.1-10-4.9-16.7-7.7m948.6 2.7c-4.1 2.4-7.6 4-10.6 6.2-2 1.5-4.2 3.4-5.1 5.7-4.1 10.4 2.1 15.9 15.7 13.7zm-345.7 21c.2-.7.3-1.4.5-2.1l11.7-1.2c.7-.8 1.3-1.6 2-2.4-2.9-3.2-5.4-7.4-9-9.1-1.9-.8-7.9 2.7-8.2 4.9-.7 4.5.3 10 2.5 13.9 1 1.8 6.6.8 10.2 1.1 0-.7-.1-1.5-.1-2.2-3.3-1-6.4-1.9-9.6-2.9m-357.9-2.9c.8-.9 1.6-1.8 2.4-2.6-2.7-3.2-4.9-7.5-8.3-9.1-2-.9-8.1 2.2-8.5 4.3-.9 4.5-.3 10.1 1.8 14 1.1 2 6.8 1.4 10.4 1.9.1-.8.1-1.6.2-2.3-3.1-1.1-6.2-2.1-9.3-3.2.2-.8.4-1.6.7-2.3 3.4-.3 7-.5 10.6-.7m321.9-.7c-4.7-5.2-7.1-9.5-10.7-11.2-1.9-.9-8 2.6-8.3 4.7-.7 4.5.2 10 2.4 13.9 1 1.8 6.7 1 10.2 1.3V238c-3.1-.9-6.3-1.9-9.4-2.8.1-.7.3-1.4.4-2.1 3.8-.3 7.7-.7 15.4-1.5m434.9 9.1c.1-.8.2-1.5.3-2.3-3.1-1.1-6.3-2.1-9.4-3.2.2-.7.4-1.4.7-2.1 3.8-.4 7.7-.8 14.7-1.5-4.3-5.1-6.5-9.4-9.9-11-2-.9-8.1 2.2-8.5 4.3-.9 4.5-.3 10.1 1.8 14 1.1 1.9 6.7 1.3 10.3 1.8m-538.5-8.8c.7-.8 1.3-1.6 2-2.5-3-3.1-5.5-7.6-9.1-8.9-2.1-.7-7.9 3.2-8.5 5.9-.8 4 .4 9.5 2.8 12.8 1.3 1.9 6.7.8 10.2 1 0-.7-.1-1.4-.1-2.2-3.1-1-6.3-2-9.4-2.9.2-.7.3-1.4.5-2.1 3.8-.3 7.7-.7 11.6-1.1m-651.9-.3c-4.7-5.2-7.2-9.7-10.8-11-2.1-.8-8 3.1-8.6 5.8-.9 4 .3 9.5 2.6 12.8 1.3 1.9 6.6 1 10.2 1.3v-2.4l-9.3-3c.2-.7.3-1.4.5-2 3.9-.4 7.8-.8 15.4-1.5m717.6 9c1.5-.1 2.9-.2 4.4-.3-.7-5.9.1-12.6-2.5-17.4-1.5-2.8-8.4-2.4-12.7-3.4v20.9c.8.1 1.6.1 2.4.2.3-4.1.3-8.3 1.1-12.4.3-1.5 2.3-2.7 3.5-4 1.3 1.3 3.5 2.4 3.7 3.9.4 4.2.1 8.4.1 12.5m-336.9 0c.9-.1 1.9-.2 2.8-.3 3.9-18.1 1.1-21.8-13.6-18.8v18.9c1 0 2 .1 3 .1 0-3.8-.4-7.7.2-11.4.3-1.8 2.5-3.3 3.8-4.9 1.2 1.6 3.3 3.1 3.6 4.9.6 3.8.2 7.7.2 11.5m-440.6-.4c1.1.2 2.1.4 3.2.6.1-3.1-.2-6.3.6-9.3.6-2.5 2.4-4.8 3.7-7.1 1.3 2.3 3.1 4.4 3.7 6.8.8 3 .7 6.4 1 9.5 6.2-18.1 3.2-22.1-12.2-19.1zm1049.2-19.3v19.6c1 0 2 0 3 .1 0-3.5-.5-7.1.2-10.4.4-2.1 2.6-3.9 3.9-5.8 1.2 2 3 3.8 3.6 6 .8 3.3.8 6.9 1.1 10.3 5.5-18.3 3.5-21.1-11.8-19.8m-404.1 19.6c6.9-17.3 3.6-21.7-11.4-19.1v19.2c1.1 0 2.2.1 3.2.1 0-3.7-.4-7.5.2-11.1.3-1.9 2.3-3.5 3.5-5.2 1.3 1.9 3.3 3.6 3.8 5.6.8 3.4.6 7 .7 10.5m-477.2.2 3.3-.3c-.5-5.9.4-12.7-2.2-17.3-1.6-2.8-8.7-2.2-14.4-3.3.4 8.4.7 14.6 1.1 20.8.9 0 1.8 0 2.7-.1.3-2.1.2-4.4.8-6.4 1.1-3.4 2.8-6.5 4.2-9.8 1.2 3.1 2.6 6.1 3.5 9.2.6 2.3.7 4.8 1 7.2m941.3-.2c.9 0 1.8-.1 2.8-.1.2-3.6-.1-7.3.7-10.6.5-2 2.8-3.6 4.3-5.4 1.1 1.8 2.7 3.5 3 5.4.6 3.6.5 7.3.6 10.9 7.2-16.7 3.6-21.7-11.5-19.4.1 6.4.1 12.8.1 19.2M821.6 85.1c5.9 3.7 9.3 7.7 12.3 7.3 2.9-.4 7.5-5.3 7.3-7.9-.2-3-4.8-7.5-7.8-7.7s-6.2 4.1-11.8 8.3M620.7 242.7c1.9-20.8.1-23.7-11.9-21.1 3.3 1.7 6.1 3.2 6.7 3.5-3.4 3.8-6.5 7.3-9.5 10.8 4.6 2.2 9.3 4.3 14.7 6.8m867.1 0c1.9-20.8.1-23.7-11.9-21.1 3.3 1.7 6.1 3.2 6.7 3.5-3.4 3.8-6.5 7.3-9.5 10.8 4.6 2.2 9.3 4.3 14.7 6.8m-203.9-12.2c-5.8-4.8-8.9-9.4-12.6-10.1-6.5-1.1-9 4.3-9 10.4 0 6.3 2.7 11.4 9.3 9.8 3.7-.9 6.6-5.3 12.3-10.1m-183.5-.2c-6.2-4.9-9.4-9.4-13.1-9.9-6.5-.9-8.9 4.6-8.8 10.7.1 5.7 2.4 10.9 8.6 9.5 3.9-.9 7.1-5.3 13.3-10.3m-690.6-9.7c.9 5.4 1.9 9.3 2.2 13.2.5 6 2.5 8.8 9 5.9-7.2-6.2-6.6-12.1-.5-17.3-2.2-3.1-4.3-6-6.5-9.1-1.7 3-3.4 5.9-4.2 7.3m762.8 19c3.1-20.6 3.1-20.6-11.2-18.2v18.4c1.4-3.4.7-6.9 1.7-9.9.7-2.3 3.6-3.9 5.5-5.8 1.3 1.9 3.4 3.7 3.8 5.8.6 3.2.2 6.5.2 9.7m-260.2-13.9c-4.2-7-9.9-7.9-12.5-3.1-2.3 4.3-2.3 12.1.1 16.3 2.3 4.1 8.5 3.7 11.8-2.7-11.6 1.4-13-.5-8.8-11.9 2.6.4 5.3.8 9.4 1.4m582.8-4.7v18.7c1.3-3.2.6-6.5 1.5-9.2.8-2.4 3.3-4.2 5-6.2 1.5 2.1 3.7 3.9 4.3 6.2.9 2.9.5 6.2.7 9.4 3.4-20.3 3.4-20.3-11.5-18.9m-803.8 18.5c.6.1 1.3.2 1.9.3 0-3.3-.7-6.9.2-9.8.7-2.3 3.6-3.9 5.5-5.8 1.3 1.9 3.4 3.7 3.8 5.8.7 3.1.2 6.5.2 9.8 3.1-20.8 3.1-20.8-11.7-18.3.1 6 .1 12 .1 18m329.8.3c3.6-20.2 3.6-20.2-11.5-18.9v18.7c1.3-3 .7-6.3 1.5-9.1.8-2.4 3.2-4.2 5-6.3 1.5 2 3.7 3.9 4.4 6.2.8 2.9.4 6.3.6 9.4m-166.3-.2c3.1-20.6 3.1-20.6-11.2-18.2v18.4c1.4-3.4.7-6.9 1.7-9.9.7-2.3 3.6-3.9 5.5-5.8 1.3 1.9 3.4 3.7 3.8 5.8.7 3.2.2 6.5.2 9.7m-53.6-19.9c-7.4.5-11.8.8-16.2 1v2.5c2.4.7 4.8 1.4 7.3 2.2-2.6 4.8-4.8 8.8-6.9 12.6 2.2.6 3.9 1.4 5.7 1.6 2.2.3 4.4.1 6.6.1 0-.4 0-.7.1-1.1-2.3-.8-4.5-1.5-7.4-2.5 3.3-5.2 6.2-9.5 10.8-16.4m802.7 4.2c-.1-1-.1-2.1-.2-3.1-3.6.4-8.9-.6-10.5 1.4-7.4 9.2 8.3 7.7 7.3 15.4-3-.4-5.6-.7-8.3-1 0 1.1 0 2.2-.1 3.4 3.8-.2 9.7 1.1 11.2-1 6.4-8.8-5.1-8.9-8.3-14.4 3.6-.2 6.2-.4 8.9-.7m-538.4 17c1.1.1 2.3.1 3.4.2 2-6.4 4-12.7 6.2-19.6-3 3.6-5.4 6.5-8.1 9.7-2.3-4.5-4.1-8-5.9-11.6-.9.4-1.7.8-2.6 1.2 2.3 6.8 4.7 13.5 7 20.1m182.4-21.6c.8-.9 1.7-1.7 2.5-2.6 3.5-.3 6.9-.7 10.4-1 0-.5-.1-1-.1-1.4h-14.5v26.2c.7 0 1.3 0 2-.1.3-3.6.7-7.3 1-11 2.6-.7 5.1-1.3 7.6-1.9-3.3-3.1-6.1-5.7-8.9-8.2m-375.2-5.8c-9.7.9-11.6 11-4.4 28.2 1.6-10 2.9-18.8 4.4-28.2m119.9.2h-2.1v26.6h2.1z" class="st0"/><path d="M183.8 1004.7c0-17.2.2-34.4-.1-51.6-.3-16.5-1.2-33.1-1.8-49.6-.1-1.7-.2-3.4-.1-5.1.6-17.9 1.7-35.8 1.8-53.7.1-15.8-1-31.7-1.6-47.5-.1-2.7-.3-5.5-.2-8.2.6-17.2 1.8-34.4 1.8-51.6 0-16.5-1.6-33.1-1.6-49.6 0-18.9 1.2-37.9 1.4-56.8.1-7.1-1.6-14.2-1.5-21.3.2-19.2.6-38.5 1.5-57.7.1-2.3 3.6-6.3 5.7-6.4 11.1-.7 22.3-.3 33.4-.7 5.6-.2 11.1-1.6 16.7-1.5 17.7.3 35.4 1.2 53.2 1.5 5.6.1 11.1-1.6 16.7-1.5 17.7.3 35.4 1.2 53.2 1.5 5.6.1 11.1-1.6 16.7-1.5 18.4.3 36.8 1.2 55.2 1.5 5.6.1 11.1-1.5 16.7-1.5 17.7.3 35.4 1.2 53.2 1.4 5.6.1 11.1-1.5 16.7-1.4 17.7.3 35.4 1.2 53.2 1.4 5.9.1 11.8-1.7 17.7-1.6 18.7.4 37.4 1.6 56.1 1.7 15.4.1 30.8-1 46.2-1.6 1.7-.1 3.3-.3 5-.2 18.4.6 36.8 1.8 55.1 1.9 15.4.1 30.8-1.1 46.2-1.7 2-.1 4-.2 6-.2 18.1.6 36.1 1.8 54.1 1.9 15.4.1 30.8-1.2 46.1-1.8 3-.1 6-.2 9-.1 17.1.6 34.1 1.8 51.2 1.9 15.4 0 30.8-1.4 46.1-1.7 6.3-.2 12.5.8 18.8 1 4.9.2 9.9.2 14.8 0 3-.1 5.9-1.2 8.8-1.1 17.4.5 34.8 1.7 52.2 1.8 16.4 0 32.8-1.2 49.1-1.7 5-.2 10 .3 14.9.3 6.2.1 12.4.1 18.6.1 2 0 4-.6 5.9-.5 17 .6 34.1 1.8 51.1 1.8 16.7 0 33.4-1 50.2-1.6 1.7-.1 3.3-.3 5-.2 17.1.6 34.1 1.8 51.2 1.8 16.7 0 33.4-1.1 50.2-1.7 2-.1 4-.3 6-.2 16.7.6 33.4 1.8 50.2 1.9 16.7 0 33.4-1.2 50.2-1.7 5.3-.2 10.6.4 15.9.5 5.9.1 11.7.1 17.6 0 1.6 0 3.3-.7 4.9-.6 17.4.6 34.8 1.5 52.2 1.8 6.6.1 13.2-1.8 19.7-1.7 17.1.3 34.1 1.4 51.2 1.8 12.1.3 24.3.1 36.4 0 6.7-.1 11.8.1 9.7 10.1-1.1 5.4 4 12.4 2.5 17.4-3.7 12.4 1 24.1.3 36.1-.2 3.9-2 7.6-2.6 11.5-.5 2.9-1.1 6.2-.1 8.8 3.8 9.9 5 19.3-.3 29.1-1.2 2.1.6 5.8.6 8.7 0 8.4-.1 16.8-.2 25.2 0 2.9-1.1 6.3-.1 8.8 3.9 9.9 5 19.3-.2 29.2-1.2 2.2.4 5.8.5 8.8.1 8.4 0 16.8-.1 25.2 0 2.9-1.3 6.3-.3 8.7 4.1 9.9 4.9 19.3 0 29.2-1.2 2.4.8 6.3.8 9.6 0 8.1-.3 16.3-.4 24.4-.1 3.2-.1 6.5-.1 9.7-.1 9.4-.3 18.7-.4 28.1 0 3 .3 5.9.3 8.9 0 8.7-.2 17.4-.3 26.1 0 2.6-1 5.7 0 7.9 4.5 10.2 4.9 19.9-.2 30.1-1.1 2.1.9 5.7 1 8.7.1 8.8 0 17.6-.1 26.4 0 2.5-.4 5.1-.4 7.6.1 9.1.3 18.2.5 27.3 0 2.2.7 4.7.1 6.7-1 2.9-3 7.9-4.5 7.9-12 0-24.1-2.9-35.8-1.3-13.9 1.9-27.4-.5-40.8.1-9.5.4-18.5 4.1-28.2-.7-2.5-1.2-6.3.4-9.6.5-8.3.3-16.5.5-24.8.8-4.3.2-8.5.6-12.8.6-6.7-.1-13.5-.4-20.2-.7-4.1-.2-8.1-.6-12.2-.7-8.2-.1-16.3.1-24.5.1-3.5 0-7.8-1.9-10.5-.5-9 5-17.6 3.6-26.7.9-3.4-1-7.4.2-11.1.2-7 .1-14 .1-20.9-.1-3.8-.1-8.3-2.4-11.3-.9-9.1 4.5-17.4 4.2-26.4.1-2.9-1.3-6.9 0-10.5.1-8.3.3-16.5.5-24.8.8-4.3.2-8.5.7-12.8.7-6.7-.1-13.5-.4-20.2-.8-3.8-.2-8.3-2.3-11.3-.9-9.1 4.5-17.4 4.2-26.4.1-2.9-1.3-6.9.1-10.5.2-8.3.2-16.5.4-24.8.7-4.3.2-8.5.5-12.8.8-.6 0-1.2.9-1.8.8-9.4-1.1-19.4-4.8-28.1-2.7-9.6 2.3-18 4.5-27.4.5-3.1-1.3-7-.6-10.5-.5-8.8.1-17.7.4-26.5.5-3.2 0-6.4-.8-9.6-.4-4.4.6-8.7 2.9-13.1 2.8-11.1-.2-22-3-33.2-.1-3.9 1-8.7-1.9-13.2-2.6-3.5-.5-7.1-.2-10.6-.2-8.4 0-16.9.1-25.3.1-3.2 0-7.2-1.7-9.6-.4-9.9 5.4-19.6 4.3-29.5.7-1.9-.7-4.2.2-6.4.3-7.6.2-15.2.3-22.9.5-4.6.1-9.2.2-13.7.2-7.4 0-14.8-.1-22.2-.1-4.6 0-9.2-.1-13.7.2-2.2.1-4.4 1.5-6.6 1.5-14 .3-28-1.5-42.2-.6-9.1.5-18.1-3.4-28.1.2-5 1.8-11.9-2-18-2.8-3.2-.4-6.5-.1-9.7.4-4.1.7-8.1 2.6-12.1 2.8-11.4.4-22.6-4.3-34.2-.2-3.7 1.3-8.7-2-13.1-2.6-3.5-.5-7 0-10.6.1-8.3.3-16.5.6-24.8.9-4.3.2-8.5.3-12.8.6-.6 0-1.1 1-1.7 1-18.5-.7-37-1.4-55.4-2.2-3.5-.1-7.8-1.9-10.5-.4-9 4.9-17.6 3.6-26.7.8-3.3-1.1-7.4 0-11.1.4-2.9.3-5.6 1.7-8.5 1.8-13 .4-26-4.6-39.2-.2-2.8.9-6.7-2-10.2-2.4-3.7-.4-7.6 0-11.4.1-7.9.1-15.8.4-23.7.4-3.8 0-7.6-1-11.4-.9-9.2.2-18.4.7-27.6.9-1.2 0-3-1.8-3.6-1.4-13.7 10.4-28.7-4.3-43.1 2.8-5.3 2.6-13.4-.7-20.2-1.4-3.8-.3-7.6-1-11.4-.9-8.8 0-17.7.5-26.5.5-2.6 0-5.9-2.1-7.6-1-9.6 5.9-18.6 4.6-28.1-.1-2-1-5.1.5-7.7.5-8.4.2-16.9.3-25.3.3-3.5 0-7.1-.4-10.6-.3-8.8.1-17.7.5-26.5.5-2.6 0-5.9-2-7.6-1-9.6 5.9-18.6 4.7-28.1-.1-2-1-5.1.2-7.7.6-6.4 1-12.7 2.6-19 2.9-5.2.2-10.6-.9-15.7-2.3-2.1-.6-4.9-3.2-5.2-5.2-1-6.6-.9-13.4-1.3-20.1.6-.1 1.2-.1 1.9-.2m606.7-146.8c1.1 2.8 2.2 5.5 3.3 8.3l8.4-4.2c4.4 6.5 9.6 6.7 15.4 2.1 3.1.8 6.1 1.5 9.2 2.3 5.1-.3 10.3-.6 15.4-1 1.7 2.1 3.4 4.2 6.3 7.8 1.6-2.1 3.4-4.7 5.3-7.3h5.3c1.3 0 2.7.1 4 .1 5.6 1.1 11.4 4.7 16.1-2 3.6.1 8.5-2.6 8.6 4.5 1.8-.7 3.5-1.3 5.3-2 3.3-1.7 6.6-3.4 9.9-5 5.8 7.1 8.2 6.8 11.9-1.7 6.5 1.2 13.1 2.4 19.6 3.5 10 6.4 12.3 6.4 20.2-2.1 6.8 4.4 13.4 4.2 20.3.7 4.8 2 9.5 4.1 14.3 6.1 2 .7 4.1 1.9 6.1 1.9 43 .1 86.1.1 129.1 0 2.1 0 4.2-1.1 6.3-1.8.1-1 .3-2.1.4-3.1 1.5 2 3.1 4 6 7.9 1.7-2 3.9-4.5 6-7 3.2 0 6.4-.1 9.6-.1 5.8.6 11.6 1.9 17.3 1.6 11.2-.6 22.4-1.9 33.5-3.3.8-.1 1.4-3 1.6-3.6 2.2 1.7 4.2 3.2 5.7 4.4 2.1-5.3 3.2-9.7 5.5-13.2 1.8-2.9 5.5-4.6 7.6-7.3 12.3-15.9 13.9-35.2 14.5-54.2.5-17-.5-34.1-1.9-51.1-1.7-20.4-9.7-37.1-28.3-47.4-13.1-7.3-27.3-8.6-41.4-8.6-110.8-.3-221.6-.4-332.4-.1-39.5.1-79 1.1-118.5 2-20.3.5-39.7 15.7-46.5 35.8-7.2 21.4-6.5 43.7-5.9 65.9.5 19.7 1.4 39.7 13.7 56.6 1.5 2 1.6 5.1 2.3 7.7-4-.4-8.1-.8-12.1-1.1-2.2.5-4.4.9-6.5 1.4.2.5.3 1 .5 1.6 2.1.2 4.2.4 6.4.6-.1.7-.2 1.5-.3 2.2-3.6.8-7.3 1.6-11.5 2.5-.6-3.4-1.1-6.6-2-12.2-2.6 5.4-4.2 8.7-6.6 13.9-3.4-5.1-6-8.9-9.5-14.1v19c1.8-2.8 2.8-5.4 3.6-5.4 3.6.2 7.2 1 10.8 1.8 5.7 1.4 11.4 3 17 4.5l18 .3c4-2.7 8-5.4 11.9-8.1.8 2.3 1.6 4.5 2.4 6.8.6-.9 1.3-1.8 1.9-2.7 4.6 1.3 9.3 2.6 13.9 3.9 7.3 0 14.6-.1 21.9-.1 2.5-2 5.1-4.1 7.6-6.1 1.9 1.8 3.8 3.7 5.7 5.5l30.6-1.2c1.3-1.4 2.6-2.9 3.9-4.3 0-.5.1-1.1.2-1.6 1 0 2-.1 3.1-.2m449.1 0c-2.1-2.8-3.6-6.4-6.2-7.7-1.6-.8-6.5 1.2-7.1 3-1.2 3.4-.3 7.5-.3 10.2 4.6-1.9 7.9-3.2 13.6-5.5" class="st1"/><path d="M951.3 493.7H237.2c-13.4 0-13.4 0-13.4-13.9 0-53.1.2-106.3-.2-159.4-.1-9.4 2.3-12.1 11.6-12.1q716.1.3 1432.2 0c8.9 0 11.2 2.5 11.1 11.5q-.6 80.7 0 161.4c.1 9.8-2.4 12.6-12.1 12.6-238.4-.1-476.8-.1-715.1-.1" class="st2"/><path d="M611.4 148.1v-70c11.2.6 22.2.2 32.8 1.9 17.2 2.7 26.6 17.4 25.1 37-1.4 18-13.2 30.4-30 31-9.2.4-18.4.1-27.9.1m16-53.6v38.7c9.5.7 19.6 1.8 23-8.3 2.4-7.3 2.1-17-.6-24.1-3.9-9.9-14-6.1-22.4-6.3" style="fill:#2f3645"/><path d="M899.2 98.9c-21.8 10.1-11 22.8-4.6 35.2 2.2 4.2 4.1 8.5 6.8 13.9-7.2-1-14.4 4.1-18.6-5.3-2.7-6.1-6.2-11.9-9.3-17.9-.9.1-1.9.1-2.8.2-.5 7.4-.9 14.8-1.4 22.7h-13.9c0-20.2-.6-40.6.5-60.9.2-3.5 7.5-6.7 13.7-11.7v35.1c8.6-10.2 16.2-16.6 29.6-11.3" class="st4"/><path d="M721.2 147c-9.8 1-18.4 2.1-27.1 2.6-9.8.5-17.4-6.2-18-15.3-.6-9.2 5.9-16.3 16-17.1 4.6-.4 9.2-.1 13.9-.1-2.4-9.9-4-10.2-23.2-4-1.3-3-2.6-6-4.3-9.7 9.7-7.4 20.1-8.5 31-5.4 7.7 2.1 11.2 8.3 11.4 16.2.6 10.8.3 21.7.3 32.8m-14-12.3c-.1-1.5-.3-2.9-.4-4.4-6.1-3.4-11.8-4.7-16.2 2.1.1 1.3.3 2.6.4 3.9 5.5-.5 10.8-1.1 16.2-1.6" class="st5"/><path d="M1006.9 147.7h-14.3c0-9.1.7-18-.3-26.6-.4-3.6-4.2-8.9-7.3-9.5-6.6-1.5-7.9 4.4-8 10-.1 8.5 0 17 0 26.1h-13.8V98.2c9.7-.5 19.3-1.3 28.8-1.3 9.1.1 14.2 6.1 14.8 14.9.6 11.7.1 23.6.1 35.9" class="st6"/><path d="M1117.1 127.7h-29.3c1.5 9.9 7.6 11.3 20.3 4.1 2.1 2.3 4.4 5 6.7 7.6-9.3 10.9-21.8 13.3-32.2 6.4-9.8-6.5-13.5-23.5-7.7-36.2 4.7-10.5 16.1-15.7 27.7-12.6 11.5 3.1 16.7 13.4 14.5 30.7m-14-10.9c.4-1 .9-2.1 1.3-3.1-3.1-1.6-6.2-4.4-9.3-4.3-3 .1-5.9 3.3-8.8 5.1.4.8.8 1.6 1.2 2.3z" class="st7"/><path d="M951.7 122.5c.1 16.6-8.3 26.9-22 27.2s-22.9-10.2-23.1-26.3c-.2-16.5 8.2-26.6 22.2-26.8 14.4-.2 22.8 9.3 22.9 25.9m-10.8.1c-5.1-5-8.1-10.6-11.7-11-7.5-.8-8.1 6.1-8.2 12.1 0 6 2.2 11.9 8.5 10.8 3.7-.7 6.5-6.5 11.4-11.9" class="st5"/><path d="M814 127.7h-30.3c3.4 10 8.2 11 20.8 4.6 2.1 2.4 4.3 4.9 6.4 7.4-8.1 10.3-19.8 12.9-30.6 6.6-10.4-6-14.6-22.1-9.2-35.6 4.5-11.3 15.8-16.9 28-13.7 11.4 3 16.6 13 14.9 30.7m-13.9-11 1.2-2.1c-2.8-1.9-5.7-5.2-8.5-5.2-3.3 0-6.5 3-9.8 4.7.4.9.7 1.7 1.1 2.6zm451.5 11.1h-30.3c3.2 10 8.1 11 20.9 4.4 2.2 2.2 4.5 4.5 6.8 6.7-8.4 11.1-20.2 13.7-31.1 7.5-10.4-6-14.6-22-9.3-35.5 4.4-11.3 15.7-16.9 27.9-13.8 11.5 2.8 16.7 12.8 15.1 30.7m-14-11.1c.4-.7.8-1.5 1.2-2.2-2.9-1.8-5.7-5.2-8.6-5.1-3.3 0-6.5 3-9.7 4.8.4.8.7 1.7 1.1 2.5z" class="st7"/><path d="M1015.5 98.2c12-3.8 17 .9 19.2 10.9 1.2 5.5 3.5 10.8 6.3 19.1 2.9-8.1 5.5-13.4 6.6-19 2.1-11.1 8-14.7 19.2-11.1-5.5 15.7-10.2 31.6-17 46.7-1.5 3.3-10.2 3.1-16.1 4.7-6.4-18.1-12.3-34.6-18.2-51.3" style="fill:#333846"/><path d="M749.9 78.2v18c3.3.6 6.2 1 9.8 1.6v12.4c-2.8.5-5.9 1-9.8 1.7v23.6c4.2.3 7.4.5 11.2.7-.7 4-1.4 7.5-2 10.9-18.8 5.3-23.2 1.6-24-17.4-.3-6.9 4.8-16.2-5.8-20.6-.9-.4-1.4-5.5-.3-6.7 7.1-7.6 4.5-23.6 20.9-24.2" class="st4"/><path d="M1187.3 111.8v23.3c3.5.4 6.9.9 10.7 1.3-.5 3.6-1 7-1.4 10.2-18.1 6.4-23.8 2.4-23.8-16.5 0-4.8.8-9.8-.3-14.3-1-4.3-5.7-8.1-5.8-12.1-.1-3.7 6-7.7 5.6-11.2-1.2-11.1 7.1-11.5 14.2-15.3v18.9c3.8.6 6.6 1.1 10.2 1.6v12.6c-2.7.4-5.8.9-9.4 1.5" class="st5"/><path d="M1278.4 147.7h-14.2V97.8c8.5-.4 16.6-1.3 24.8-1.1s9.3 3.9 5.7 15.9c-13.8-3.4-16.2-1.4-16.2 13.4-.1 7.1-.1 14.2-.1 21.7" class="st9"/><path d="M1160.5 112.5c-14.3-3.4-16.9-1.2-17 14.1v20.9h-13.8V96.6c8.5 0 17.1-.9 25.5.2 10.7 1.5 6.4 9.3 5.3 15.7" class="st4"/><path d="M840.4 147.9h-13.2V97.6h13.2z" class="st6"/><path d="M1296.7 222.5c7.6-.8 15.2-2.1 22.8-2 1.9 0 4.7 4.3 5.4 7.1.9 4 .2 8.5.2 12.8-1 .1-2.1.2-3.1.2-.3-3.6-.3-7.2-1-10.7-.4-2-2-3.7-3-5.6-1.4 1.9-3.6 3.6-4.2 5.7-.8 3.4-.5 7-2.9 10.6-.7-5.4-1.4-10.8-2.1-16.6-7.3 1.3-12.9 2.7-8.7 11-1.2-4.3-2.3-8.7-3.5-13 .1.1.1.5.1.5" class="st10"/><path d="M917.3 240.2v-26c5 3.2 11.2 5.2 13.5 9.4 2.5 4.5 1.3 11.1 1.8 16.8-1.4.1-2.8.1-4.1.2 0-3.8.4-7.6-.2-11.3-.3-1.8-2.4-3.3-3.6-5-1.3 1.6-3.4 3.1-3.7 4.9-.7 3.7-.6 7.6-.8 11.5-1-.2-1.9-.3-2.9-.5" class="st11"/><path d="M737.2 244.8c-4.9-1.9-8.1-2.2-9.5-3.9-2.8-3.5-6.5-7.8-6.4-11.7.1-3.1 4.8-7 8.3-8.7 1.2-.6 6.7 4 7.2 6.8 1.2 5.9.4 12.3.4 17.5m-1.9-13.4c-2.4-3.2-4-5.2-5.5-7.2-1.7 2-4.6 3.9-4.7 6-.1 2.3 2.4 4.6 3.8 7 1.8-1.7 3.7-3.3 6.4-5.8m468.8 9v-18.7h24.9c-1.5 5.6-2.5 9.6-3.6 13.5 2.5-10.7 1.8-11.5-7.5-8.5-.8.3-1.7 1-2.5.9-7.8-1.3-7.8-1.3-8.1 6.1-.1 2.2-.3 4.4-.5 6.6-.8.1-1.7.1-2.7.1" class="st12"/><path d="M519 235.4c1.7-.5 2.3-.8 2.9-.8 3.7 0 7.4.1 11.1.1-2.4-2.7-4.9-5.3-7.2-8-2-2.4-4.7-4.7-5.6-7.5-.4-1.2 2.8-5 4.6-5.2 3.5-.4 7.1 1 10.3 3.8h-11.8c2.8 9 21.8 7.4 11.4 20.9-4 5.3-10.9 3.3-15.7-3.3M887.4 225c-3-.4-6.1-.9-9.1-1.3-.1-.8-.2-1.5-.3-2.3 3.4-.2 9.2-1.6 9.8-.4 2.6 5.4 3.6 11.6 5.2 17.5l-2.4 3.3c-4.8-1.7-12.5-2.2-13.7-5.3-3.3-8.9 5.2-8.1 11.2-8.8-.3-.9-.5-1.8-.7-2.7m-144.3-1.7c11.8-7.4 17.1-1.7 13.5 19.6-5.3-2.6-9.9-5-14.5-7.3 3.3-3.4 6.6-6.8 10.2-10.6-1.7-.3-4.8-.9-9.2-1.7" class="st13"/><path d="M1346.5 222.9v19.5c-6.4-2.3-14.3-2.8-15.4-6-3.4-9.1 5.5-7.8 10.8-11.2-3.1-.5-6.2-1-10.3-1.7 5.4-6.2 10.2-2.9 15-.5-.1.1-.1-.1-.1-.1m-1049.4 4.4c-1.7 3-3 5.3-3.4 6.1-.5-.6-2.2-2.6-4-4.7 1.7-8.3 10.2-9.7 16-15.1-9.6 10.7.8 17.7 1.7 27.5-3.1-4.2-6.2-8.4-10.3-13.8" class="st14"/><path d="m1428.1 232.3-10.8.6c-.2.7-.4 1.5-.6 2.2 3.3 1.1 6.6 2.2 9.8 3.2 0 .7-.1 1.5-.1 2.2-3.5-.4-9.1.4-10.2-1.5-2.3-3.8-3.3-9.4-2.4-13.7.5-2.3 6.8-5.6 9.2-4.7 3.2 1.2 5.2 6 7.7 9.3-.9.8-1.8 1.6-2.6 2.4m-975.5-.5c-6.8.6-10.7.9-14.5 1.3-.2.7-.3 1.3-.5 2 3.3 1.1 6.7 2.2 10 3.3-.1.8-.3 1.7-.4 2.5-3.8-.8-9.7-.4-10.9-2.7-2-3.8-2-9.6-.8-13.9.5-2 6.8-4.6 8.8-3.5 3.1 1.6 4.9 6.1 8.3 11m103.2 4c3.2.8 6.5 1.6 9.7 2.4-.1.9-.3 1.8-.4 2.7-3.8-.8-9.3-.3-10.9-2.6-2.2-3.3-2.7-9.1-1.5-13 .8-2.5 7-5.4 9.3-4.5 3.2 1.3 5 6.1 8.7 11.2-7 .5-10.8.8-14.7 1.1-.1.8-.2 1.7-.2 2.7m996.6-3.7c-3.8.3-7.7.7-11.5 1-.1.7-.3 1.4-.4 2.1 3.2.9 6.3 1.9 9.5 2.8.2.6.3 1.1.5 1.7-3.4 0-8.7 1.4-9.9-.3-2.5-3.3-4.1-8.6-3.4-12.6.4-2.7 6-6.9 8.2-6.3 3.6 1 6.4 5.3 9.6 8.3-.9 1.1-1.8 2.2-2.6 3.3m-897.4.2c-3.6.2-7.2.3-10.8.5-.2.8-.4 1.5-.6 2.3 3.2 1 6.4 2.1 9.6 3.1v2.2c-3.5-.4-9 .6-10.2-1.3-2.3-3.8-3.4-9.4-2.6-13.7.4-2.3 6.8-5.7 9.1-4.8 3.3 1.2 5.3 6 7.9 9.2-.7.9-1.6 1.7-2.4 2.5m33.4-.5c-6.9.6-10.7.9-14.6 1.2-.2.7-.3 1.4-.5 2.1 3.3 1.1 6.7 2.1 10 3.2-.1.8-.3 1.7-.4 2.5-3.8-.8-9.3-.3-10.9-2.7-2.2-3.3-2.7-9.1-1.4-13 .8-2.5 7-5.4 9.3-4.4 3.2 1.4 5 6.2 8.5 11.1" class="st10"/><path d="M583.2 211.5c6.7 2.8 13.7 3.7 16.7 7.7 2.6 3.5 2.5 12.1 0 15.7-3 4.1-10 5.2-16.7 8.4zm3.3 4.9v19.8c8 2.4 12.2-1.1 12.4-8.6.3-7.6-3.5-12-12.4-11.2" class="st9"/><path d="M1531.8 214.2v25.6c-13.6 2.1-19.8-3.4-15.7-13.7.9-2.2 3.1-4.2 5.1-5.7 3-2.2 6.5-3.8 10.6-6.2m.2 20.6c-.9-1.6-1.8-3.1-2.7-4.7-1.6-2-3.3-4-4.9-5.9-1.8 2.2-4.9 4.3-5.1 6.7-.2 2 2.6 5.6 4.7 6.1 2.3.6 5.3-1.4 8-2.2m-345.9.4c3.1 1 6.3 1.9 9.4 2.9 0 .7.1 1.5.1 2.2-3.5-.3-9.1.7-10.2-1.1-2.2-3.9-3.2-9.4-2.5-13.9.3-2.2 6.4-5.7 8.2-4.9 3.6 1.6 6.1 5.9 9 9.1-.7.8-1.3 1.6-2 2.4l-11.7 1.2c.1.7-.1 1.4-.3 2.1m-357.9-2.9-10.8.6c-.2.8-.4 1.6-.7 2.3 3.1 1.1 6.2 2.1 9.3 3.2-.1.8-.1 1.6-.2 2.3-3.6-.6-9.3.1-10.4-1.9-2.1-3.9-2.7-9.5-1.8-14 .4-2.1 6.5-5.2 8.5-4.3 3.4 1.5 5.6 5.9 8.3 9.1-.7.9-1.5 1.8-2.2 2.7m321.9-.7c-7.7.7-11.6 1.1-15.4 1.5-.1.7-.3 1.4-.4 2.1 3.1.9 6.3 1.9 9.4 2.8v2.3c-3.5-.3-9.2.5-10.2-1.3-2.2-3.9-3.1-9.4-2.4-13.9.3-2.2 6.4-5.6 8.3-4.7 3.6 1.7 6 6 10.7 11.2m434.9 9.1c-3.6-.6-9.3.1-10.4-1.9-2.1-3.9-2.7-9.5-1.8-14 .4-2.1 6.5-5.2 8.5-4.3 3.4 1.5 5.6 5.9 9.9 11-7.1.7-10.9 1.1-14.7 1.5-.2.7-.4 1.4-.7 2.1 3.1 1.1 6.3 2.1 9.4 3.2 0 .9-.1 1.6-.2 2.4m-538.5-8.8-11.7 1.2c-.2.7-.3 1.4-.5 2.1 3.1 1 6.3 2 9.4 2.9 0 .7.1 1.4.1 2.2-3.5-.2-8.8.9-10.2-1-2.4-3.3-3.6-8.8-2.8-12.8.6-2.7 6.4-6.6 8.5-5.9 3.6 1.3 6.1 5.8 9.1 8.9-.6.8-1.2 1.6-1.9 2.4m-579-7.8c11.8-7.1 16.3-5.2 17.3 7.8-3.9.4-7.7.7-11.6 1.1-.2.7-.4 1.3-.6 2 3 1.1 5.9 2.1 8.5 3.1-4.8 4.9-10.4 3.9-12.5-3.4-1-3.4-.7-7.1-1-10.7zm-72.9 7.5c-7.7.7-11.6 1.1-15.5 1.5-.2.7-.3 1.4-.5 2l9.3 3v2.4c-3.5-.4-8.8.6-10.2-1.3-2.3-3.4-3.5-8.8-2.6-12.8.6-2.7 6.5-6.5 8.6-5.8 3.7 1.3 6.2 5.8 10.9 11" class="st15"/><path d="M1112.2 240.6c0-4.2.3-8.4-.2-12.5-.2-1.4-2.4-2.6-3.7-3.9-1.2 1.3-3.2 2.5-3.5 4-.8 4-.8 8.2-1.1 12.4-.8-.1-1.6-.1-2.4-.2v-20.9c4.3 1 11.2.6 12.7 3.4 2.6 4.8 1.9 11.5 2.5 17.4-1.3.1-2.8.2-4.3.3" class="st11"/><path d="M775.3 240.6c0-3.8.4-7.6-.2-11.3-.3-1.8-2.3-3.3-3.6-4.9-1.3 1.6-3.5 3.1-3.8 4.9-.6 3.7-.2 7.6-.2 11.4-1 0-2-.1-3-.1v-18.9c14.6-3 17.5.7 13.6 18.8-.9-.1-1.8 0-2.8.1" class="st12"/><path d="M334.7 240.2v-18.7c15.4-3 18.4 1.1 12.2 19.1-.3-3.2-.2-6.5-1-9.5-.7-2.4-2.4-4.5-3.7-6.8-1.3 2.4-3.1 4.6-3.7 7.1-.7 3-.4 6.2-.6 9.3-1.1-.1-2.1-.3-3.2-.5" class="st16"/><path d="M1383.9 220.9c15.3-1.3 17.3 1.5 11.8 19.7-.3-3.5-.3-7-1.1-10.3-.5-2.2-2.3-4-3.6-6-1.4 1.9-3.5 3.7-3.9 5.8-.7 3.3-.2 6.9-.2 10.4-1 0-2 0-3-.1z" class="st12"/><path d="M979.8 240.5c-.2-3.5.1-7.1-.6-10.5-.5-2.1-2.5-3.8-3.8-5.6-1.2 1.7-3.2 3.3-3.5 5.2-.6 3.6-.2 7.4-.2 11.1-1.1 0-2.2-.1-3.2-.1v-19.2c15-2.7 18.2 1.7 11.3 19.1" class="st16"/><path d="M502.6 240.7c-.3-2.4-.4-4.9-1-7.2-.9-3.2-2.3-6.2-3.5-9.2-1.4 3.2-3.1 6.4-4.2 9.8-.7 2-.6 4.3-.8 6.4-.9 0-1.8 0-2.7.1-.3-6.2-.6-12.4-1.1-20.8 5.6 1.1 12.8.6 14.4 3.3 2.6 4.7 1.7 11.5 2.2 17.3z" class="st12"/><path d="M1443.9 240.5v-19.3c15.1-2.3 18.7 2.8 11.5 19.4-.2-3.6 0-7.3-.6-10.9-.3-1.9-2-3.6-3-5.4-1.5 1.8-3.8 3.4-4.3 5.4-.9 3.4-.5 7.1-.7 10.6-1.1.1-2 .2-2.9.2" class="st16"/><path d="M821.6 85.1c5.6-4.2 8.9-8.6 11.8-8.4 3 .2 7.6 4.8 7.8 7.7.2 2.6-4.4 7.5-7.3 7.9-3 .5-6.5-3.4-12.3-7.2" class="st4"/><path d="M620.7 242.7c-5.4-2.5-10.1-4.6-14.8-6.8 3.1-3.5 6.2-7 9.5-10.8-.6-.3-3.4-1.8-6.7-3.5 12-2.6 13.8.2 12 21.1m867.1 0c-5.4-2.5-10.1-4.6-14.8-6.8 3.1-3.5 6.2-7 9.5-10.8-.6-.3-3.4-1.8-6.7-3.5 12-2.6 13.8.2 12 21.1" class="st13"/><path d="M1283.9 230.5c-5.6 4.9-8.6 9.3-12.3 10.2-6.6 1.6-9.3-3.5-9.3-9.8 0-6.1 2.5-11.5 9-10.4 3.7.5 6.8 5.1 12.6 10m-5.7 0c-3.1-2.9-5-4.7-6.9-6.5-1.7 2.3-4.5 4.5-4.7 6.9-.2 2 2.8 4.3 4.3 6.4 2-1.9 4.1-3.8 7.3-6.8m-177.8-.2c-6.2 5-9.4 9.4-13.3 10.3-6.2 1.4-8.5-3.8-8.6-9.5-.1-6.1 2.2-11.6 8.8-10.7 3.6.5 6.8 5 13.1 9.9m-6.1.2c-3.1-2.9-5-4.7-6.9-6.4-1.7 2.3-4.5 4.5-4.7 6.9-.2 2 2.8 4.3 4.4 6.4 2-2 4.1-4 7.2-6.9" class="st14"/><path d="M409.8 220.6c.8-1.4 2.5-4.3 4.2-7.3 2.2 3.1 4.3 6 6.5 9.1-6 5.2-6.7 11.1.5 17.3-6.5 2.9-8.5.1-9-5.9-.3-4-1.3-7.9-2.2-13.2m936.7 2.3s.1.2 0 .2c2.2-3 4.3-6 6.7-9.3 2 2.6 4.2 5.5 6.4 8.4h-2.1v18.6c-4.7 2-5.8-1.8-6.6-7.3-.6-3.7-2.9-7.1-4.4-10.6" class="st12"/><path d="M1172.6 239.6c0-3.2.5-6.6-.2-9.6-.5-2.1-2.5-3.9-3.8-5.8-1.9 1.9-4.8 3.5-5.5 5.8-1 3-.2 6.5-1.7 9.9v-18.4c14.3-2.4 14.3-2.4 11.2 18.1" class="st17"/><path d="M912.4 225.7c-4.1-.6-6.7-1-9.3-1.4-4.2 11.4-2.9 13.3 8.8 11.9-3.3 6.4-9.5 6.8-11.8 2.7-2.4-4.2-2.4-12-.1-16.3 2.5-4.8 8.2-3.9 12.4 3.1" class="st15"/><path d="M1495.2 221c14.9-1.3 14.9-1.3 11.5 18.9-.2-3.1.2-6.4-.7-9.4-.7-2.3-2.8-4.2-4.3-6.2-1.7 2.1-4.3 3.9-5 6.2-.9 2.8-.2 6-1.5 9.2zm-803.8 18.5v-18c14.8-2.5 14.8-2.5 11.7 18.3 0-3.3.5-6.7-.2-9.8-.4-2.1-2.5-3.9-3.8-5.8-1.9 1.9-4.8 3.5-5.5 5.8-1 3-.2 6.5-.2 9.8-.7-.1-1.4-.2-2-.3m329.8.3c-.2-3.2.2-6.5-.6-9.4-.7-2.3-2.9-4.1-4.4-6.2-1.7 2.1-4.2 3.9-5 6.3-.9 2.8-.2 6-1.5 9.1v-18.7c15.1-1.2 15.1-1.2 11.5 18.9m-166.3-.2c0-3.2.5-6.6-.2-9.6-.5-2.1-2.5-3.9-3.8-5.8-1.9 1.9-4.8 3.5-5.5 5.8-1 3-.2 6.5-1.7 9.9v-18.4c14.3-2.4 14.3-2.4 11.2 18.1" class="st17"/><path d="M801.3 219.7c-4.5 6.9-7.4 11.3-10.8 16.3 2.8 1 5.1 1.7 7.4 2.5 0 .4 0 .7-.1 1.1-2.2 0-4.4.2-6.6-.1-1.8-.2-3.5-1-5.7-1.6 2.1-3.8 4.2-7.7 6.9-12.6-2.6-.8-4.9-1.5-7.3-2.2v-2.5c4.4-.2 8.8-.4 16.2-.9" class="st15"/><path d="M1604 223.9c-2.6.2-5.3.4-8.9.8 3.2 5.5 14.8 5.6 8.3 14.4-1.5 2.1-7.4.7-11.2 1 0-1.1 0-2.2.1-3.4 2.6.3 5.3.6 8.3 1 1-7.7-14.7-6.3-7.3-15.4 1.7-2.1 6.9-1 10.5-1.4.1 1 .1 2 .2 3" class="st14"/><path d="M1065.6 240.9c-2.4-6.7-4.7-13.3-7.1-20 .9-.4 1.7-.8 2.6-1.2 1.8 3.6 3.6 7.1 5.9 11.6 2.7-3.2 5.1-6.2 8.1-9.7-2.2 6.9-4.2 13.2-6.2 19.6q-1.5-.15-3.3-.3" class="st18"/><path d="M1248 219.3c2.8 2.6 5.6 5.2 8.9 8.2-2.5.6-5 1.3-7.6 1.9-.3 3.7-.7 7.4-1 11-.7 0-1.3 0-2 .1v-26.2h14.5c0 .5.1 1 .1 1.4-3.5.3-6.9.7-10.4 1-.8.8-1.6 1.7-2.5 2.6" class="st13"/><path d="M872.8 213.5c-1.5 9.4-2.8 18.2-4.4 28.2-7.2-17.2-5.3-27.3 4.4-28.2" class="st12"/><path d="m1296.7 222.5.1-.4c-11 1.6-7.3 11.9-11.4 18.4v-20.8c3.6.9 7.4 1.8 11.3 2.8m-829 1.5c-13.7-1.3-5.6 11.7-11.8 18.7-.4-8.4-.7-14.7-1.2-23.9 5.3 2.2 9.1 3.8 12.9 5.4-.1-.1.1-.2.1-.2" class="st11"/><path d="M328 238.5c-4.5-.1-11.2 1.5-12.8-.8-2.3-3.1-1.7-9.6-.2-13.8.6-1.7 6.9-1.2 10.6-1.7-.7.9-1.3 1.8-2 2.7-2.1.7-4.1 1.3-6.2 2 0 2.4 0 4.9-.1 7.3l6.3 2.1c.7-.6 1.3-1.1 2-1.7.6-.2 1.3-.2 1.9-.2.2 1.4.4 2.7.5 4.1m633.4 0c-4.5-.1-11.2 1.5-12.8-.8-2.3-3.1-1.7-9.6-.2-13.8.6-1.7 6.9-1.2 10.6-1.7-.7.9-1.3 1.8-2 2.7-2.1.7-4.1 1.3-6.2 2 0 2.4 0 4.9-.1 7.3l6.3 2.1c.7-.6 1.3-1.1 2-1.7.6-.2 1.3-.2 1.9-.2.2 1.4.3 2.7.5 4.1" class="st13"/><ellipse cx="991.7" cy="227" class="st16" rx="1.5" ry="18.8"/><path d="M961.4 238.5c-.2-1.4-.3-2.7-.5-4.1-1.3-3.2-2.6-6.4-4-9.6.7-.9 1.3-1.8 2-2.7 7.3 4 8 8.7 2.5 16.4m-633.4 0c-.2-1.4-.3-2.7-.5-4.1-1.3-3.2-2.6-6.4-4-9.6.7-.9 1.3-1.8 2-2.7 7.4 4 8.1 8.7 2.5 16.4" class="st19"/><path d="M717.3 865.9c-4.6-1.3-9.3-2.6-13.9-3.9-.2-3-.5-5.9-.7-8.9-.5 0-1-.1-1.5-.1-.7 1.6-1.4 3.3-2 4.9-4 2.7-8 5.4-11.9 8.1.1-.7.1-1.4.2-2.1l-.3-12.2c-2.5-.2-5.1-.4-7.6-.5-.7-2.6-.9-5.7-2.3-7.7-12.3-16.9-13.1-36.9-13.7-56.6-.6-22.1-1.3-44.4 5.9-65.9 6.8-20.2 26.2-35.3 46.5-35.8 39.5-.9 79-1.9 118.5-2 110.8-.3 221.6-.2 332.4.1 14.1 0 28.3 1.4 41.4 8.6 18.6 10.3 26.6 27 28.3 47.4 1.4 17 2.4 34.1 1.9 51.1-.5 19.1-2.2 38.3-14.5 54.2-2.1 2.8-5.8 4.4-7.6 7.3-2.3 3.6-3.4 7.9-5.5 13.2-1.5-1.2-3.5-2.7-5.7-4.4-.2.6-.8 3.5-1.6 3.6-11.1 1.4-22.3 2.8-33.5 3.3-5.7.3-11.6-1-17.3-1.6-.6-4.8-1.3-9.6-1.9-14.4 3.1-2 7.1-6.4 9.1-5.5 10.1 4.1 16.8-4.1 25.1-6.1 17.3-4.2 27.5-16.6 29.4-34.4 1.8-17.2 2.7-34.7 1.7-51.9-.5-8.6-5.9-16.9-9.2-25.4l-.3-20.5c-.2-12.2-2.2-14.3-14-14.3-31.6-.1-63.2 0-94.7 0-2.9 0-5.8.4-9.6.7v120.6c-.4-.1-.7-.1-1.1 0V693.4h-12.8c-118.9 0-237.7.1-356.6-.1-25.9 0-22.1.5-23 22.6-4 5.4-9.7 10.3-11.6 16.4-7.5 24.3-4.3 49.4-2.9 74.2 1.2 22.1 17.2 33.8 32.9 44.4 7.4 4.9 6.5 9 4 15" class="st20"/><path d="M1207 728.2c3.2 8.4 8.7 16.8 9.2 25.4 1 17.2.1 34.7-1.7 51.9-1.9 17.9-12.1 30.3-29.4 34.4-8.3 2-15 10.3-25.1 6.1-2-.8-6 3.6-9.1 5.5 2.6-5.1 2.4-8.4-4.5-8.2-11.2.2-22.5-.2-33.7.1-7.1.2-14.3 1.3-21.4 2l-1.8-1.8c-26.6-.1-53.2-.3-79.8-.2-2.4 0-4.8 1.6-7.1 2.5-1.7-.8-3.3-1.6-5-2.3-3.9-.1-7.8-.2-11.7-.2-14 0-15.1 1.5-11.3 15.7.3 1 .3 2 .5 3-6.8 3.5-13.4 3.7-20.3-.7-7.9 8.4-10.2 8.5-20.2 2.1-6.5-1.2-13.1-2.4-19.6-3.5-1.7-3.4-3.3-6.8-5-10.2-2.5 2.4-4.9 4.9-7.4 7.3-1.5-1.4-4.4-3-4.2-4.3.8-10.1-4.2-9.9-11-7.2-3.9.3-7.9.1-11.8.9-7.4 1.5-14.7 3.4-22 5.1-3.4-.6-6.8-1.1-10.2-1.7-8.2-8-11.4-8-16.4.1-2.4.1-4.9.3-7.3.4-4.1-5.4-12.3-5.5-19.1-.3-2.4-.1-4.8-.2-7.3-.3-2 .5-3.9 1.1-5.9 1.6l-.6.5c-8.5-6.6-21.3-6.9-27.5-.5-8.8-4.6-11.5.5-12.5 8.3-2.5 2-5.1 4.1-7.6 6.1 0-3.7-.3-7.5.1-11.2.9-9-1.4-12.9-11.6-13.7-20.1-1.6-36.6-11.9-38.5-35.1-1.7-20.2-1-40.6-.5-61 .1-4.2 4.2-8.3 6.4-12.5l.3 67.4c.1 13.4 1 14.3 13.9 15.3 2.2 2.7 4 7 6.8 7.9 8 2.8 16.5 5.9 24.8 5.9 102.5.4 205 .3 307.5.3 38.6 0 77.2.4 115.8-.2 11-.2 22.9-1 28.6-13.9 12.5-1.2 13.9-2.8 13.9-15.9.2-23.6.2-47.3.3-70.9" class="st21"/><path d="M1002.6 846c2.4-.9 4.7-2.5 7.1-2.5 26.6-.1 53.2.1 79.8.2-1.4 2-2.5 5.3-4.2 5.7-6.9 1.6-7.7 6.9-5.7 11.6 1.2 2.9 6.2 4.1 11.8 7.6v-23c7.1-.7 14.2-1.8 21.4-2 11.2-.3 22.5.1 33.7-.1 6.9-.1 7.1 3.1 4.5 8.2.6 4.8 1.3 9.6 1.9 14.4-3.2 0-6.4.1-9.6.1-.1-3 .5-6.3-.5-9-1-2.8-3.4-5-5.1-7.5-2.8 2.3-6.4 4.1-8 7.1-1 2 .9 5.6 1.6 8.5-.1 1-.3 2.1-.4 3.1-47.1 0-94.3-.1-141.4-.1-4.8-2-9.5-4.1-14.3-6.1-.1-1-.2-2-.5-3-3.8-14.2-2.7-15.7 11.3-15.7 3.9 0 7.8.2 11.7.2-2.2 6.9-4.4 13.8-6.3 19.8h15.9c-1.4-4.8-3.1-11.1-4.7-17.5m36.1 21.4c2.3-6.1 3.7-9.9 5.1-13.6.7.2 1.4.5 2.1.7.7 3.6 1.4 7.2 2.2 10.8.9-.2 1.9-.3 2.8-.5-.6-4.4-.1-11.8-2-12.6-5.9-2.3-12.7-2-19.1-2.7v15.4c.6.1 1.1.1 1.7.2.9-3.7 1.9-7.3 2.8-11 .6.1 1.3.2 1.9.3.7 3.5 1.4 7 2.5 13m-27.6-16.5c.4 5.2.8 9.7 1.2 14.3.6-.1 1.1-.1 1.7-.2 1-3.8 1.9-7.6 2.9-11.5 3.1 2.2 3.7 4.2 4.3 6.2.5 1.8 1.1 3.7 2.4 8 2.6-17 1.1-18.9-12.5-16.8m102.2 14.1c.6.2 1.2.3 1.7.5 1.1-3.9 2.2-7.8 3.4-11.7.9-.1 1.7-.2 2.6-.2 1 3.9 1.9 7.8 2.9 11.6.9-.1 1.8-.3 2.7-.4-.7-4.2-.4-9.1-2.6-12.2-1.6-2.3-6.4-2.2-10.7-3.5zm-4.3-.1c-.4-5.2-.8-9.7-1.1-14.1-.7 0-1.4.1-2.1.1-.7 4.2-1.4 8.4-2.2 12.7-1 0-2-.1-3-.1-.9-4.1-1.7-8.3-2.8-13.5-4.8 13-2 16.9 11.2 14.9" class="st22"/><path d="M695 732.3c-2.2 4.2-6.3 8.3-6.4 12.5-.5 20.3-1.2 40.8.5 61 1.9 23.2 18.4 33.5 38.5 35.1 10.2.8 12.5 4.7 11.6 13.7-.4 3.7-.1 7.5-.1 11.2-7.3 0-14.6.1-21.9.1 2.5-6.1 3.3-10.2-3.9-15.1-15.7-10.6-31.7-22.3-32.9-44.4-1.3-24.8-4.6-49.9 2.9-74.2 1.9-6.1 7.6-11 11.6-16.4.1 5.6.1 11 .1 16.5" class="st23"/><path d="M853.6 851.6c7.3-1.7 14.6-3.7 22-5.1 3.8-.8 7.8-.6 11.8-.9 0 1.3-.1 2.5-.1 3.8-.3 1.8-.7 3.6-1.1 5.9-2.7-1.8-4.8-3.2-7.7-5.2.3 5.6.6 9.8.8 14-4.7 6.6-10.5 3-16.1 2v-12.4h-1l-3 12.3h-5.3c-.2-4.8-.2-9.6-.3-14.4" class="st20"/><path d="M759.3 851.4c6.3-6.4 19.1-6.1 27.5.5.2 2.1.3 4.1.5 6.2-.1.5-.1 1.1-.2 1.6-1.3 1.4-2.6 2.9-3.9 4.3l-30.6 1.2c-3-9.6 6.5-2.6 8.3-8.3-.2-.7-.9-3.1-1.6-5.5" class="st19"/><path d="M669.2 865.7c-5.7-1.5-11.3-3.1-17-4.5-3.5-.9-7.2-1.6-10.8-1.8-.8 0-1.8 2.6-3.6 5.4v-19c3.5 5.2 6 9 9.5 14.1 2.5-5.1 4-8.4 6.6-13.9.9 5.6 1.4 8.8 2 12.2 4.2-.9 7.8-1.7 11.5-2.5.6 3.4 1.2 6.7 1.8 10" class="st14"/><path d="M853.6 851.6c.1 4.8.2 9.6.2 14.3-1.9 2.6-3.7 5.1-5.3 7.3-2.9-3.6-4.6-5.7-6.3-7.8.4-5.2.8-10.3 1.2-15.5 3.4.6 6.8 1.2 10.2 1.7" class="st18"/><path d="M989.2 868.2c47.1 0 94.3.1 141.4.1-2.1.6-4.2 1.8-6.3 1.8-43 .1-86.1.1-129.1 0-1.9 0-3.9-1.2-6-1.9" class="st24"/><path d="M800.6 850.1c6.8-5.2 14.9-5.1 19.1.3-.7 4.6-1.4 9.1-2.1 13.7-5.8 4.5-11 4.4-15.4-2.1.2-2.6.4-5.2.7-7.9-.5-.8-.9-1.6-1.4-2.5q-.75-.6-.9-1.5" class="st20"/><path d="m669.2 865.7-1.8-9.9c.1-.7.2-1.5.3-2.2l-.3-3.6c4 .4 8.1.8 12.1 1.1 2.5.2 5.1.4 7.6.5-3.7 4.1-4.4 8.2.3 12.2-.1.7-.1 1.4-.2 2.1-6 0-12-.1-18-.2m2.4-2.5c1.3.4 2.6.7 3.9 1.1.3-3.2.6-6.5.9-9.7-1.3-.1-2.6-.3-3.9-.4q-.45 4.65-.9 9" class="st18"/><path d="M1131.1 865.3c-.6-2.9-2.6-6.6-1.6-8.5 1.6-3 5.2-4.8 8-7.1 1.8 2.5 4.2 4.7 5.1 7.5.9 2.7.4 6 .5 9-2.2 2.5-4.4 5.1-6 7-2.9-3.9-4.4-5.9-6-7.9" class="st25"/><path d="M843.4 850c-.4 5.2-.8 10.3-1.2 15.5-5.1.3-10.3.6-15.4 1 .5-5.4 6.6-10.8.2-16.4 5-8.1 8.2-8.1 16.4-.1" class="st20"/><path d="M879.2 864.1c-.2-4.2-.5-8.4-.8-14 3 2 5 3.4 7.7 5.2.4-2.3.8-4.1 1.1-5.9 2.4-.6 4.7-1.2 7.8-2-.7 7.2-1.4 13.3-2 19.3-1.8.7-3.5 1.3-5.3 2 0-7.2-4.9-4.5-8.5-4.6" class="st21"/><path d="M827 850c6.4 5.5.3 10.9-.2 16.4-3.1-.8-6.1-1.5-9.2-2.3.7-4.6 1.4-9.1 2.1-13.7 2.4-.1 4.8-.2 7.3-.4m-5.7 10.4v2.2c1.3.2 2.5.5 3.8.4.3 0 .4-1.4.6-2.2-1.5-.2-2.9-.3-4.4-.4" class="st18"/><path d="M902.6 857c2.5-2.4 4.9-4.9 7.4-7.3 1.7 3.4 3.3 6.8 5 10.2-3.7 8.4-6.1 8.8-11.9 1.7-.2-1.5-.4-3-.5-4.6m5.6 6.2c1-.7 2-1.3 2.9-2-1.3-.1-2.7-.3-4-.4.4.8.7 1.6 1.1 2.4" class="st15"/><path d="M800.6 850.1c.1.6.4 1.1.8 1.5.5.8.9 1.6 1.4 2.5-.2 2.6-.4 5.2-.7 7.9l-8.4 4.2c-1.1-2.8-2.2-5.5-3.3-8.3l.9-6 2-2c2.5 0 4.9.1 7.3.2" class="st12"/><path d="M1239.6 857.9c-5.7 2.3-9 3.7-13.6 5.5 0-2.7-.8-6.8.3-10.2.6-1.8 5.4-3.8 7.1-3 2.6 1.2 4.1 4.8 6.2 7.7" class="st15"/><path d="M759.3 851.4c.7 2.4 1.4 4.8 1.6 5.5-1.7 5.7-11.3-1.3-8.3 8.3-1.9-1.8-3.8-3.7-5.7-5.5 1-7.7 3.6-12.9 12.4-8.3m143.3 5.6c.1 1.5.3 3 .4 4.6-3.3 1.7-6.6 3.4-9.9 5 .6-6.1 1.3-12.1 2-19.3-3.1.8-5.5 1.4-7.8 2 0-1.3.1-2.5.1-3.8 6.8-2.8 11.8-3 11 7.2-.2 1.3 2.7 2.9 4.2 4.3" class="st18"/><path d="M699.1 857.9c.7-1.6 1.4-3.3 2-4.9.5 0 1 .1 1.5.1.2 3 .5 5.9.7 8.9-.6.9-1.3 1.8-1.9 2.7-.7-2.3-1.5-4.5-2.3-6.8" class="st23"/><path d="m667.3 850 .3 3.6c-2.1-.2-4.2-.4-6.4-.6-.2-.5-.3-1-.5-1.6 2.3-.5 4.5-.9 6.6-1.4" class="st14"/><path d="m859.1 866 3-12.3h1v12.4c-1.4-.1-2.7-.1-4-.1m-67.7-14.2-.9 6c-1 .1-2.1.2-3.1.3-.2-2.1-.3-4.1-.5-6.2l.6-.5c1.2.2 2.6.3 3.9.4m-8.2 12.3c1.3-1.4 2.6-2.9 3.9-4.3-1.2 1.4-2.6 2.8-3.9 4.3" class="st21"/><path d="M627.4 94.5c8.4.2 18.5-3.6 22.3 6.3 2.7 7.2 3 16.9.6 24.1-3.3 10.1-13.5 9-23 8.3.1-12.6.1-25 .1-38.7" style="fill:#fdfbf8"/><path d="M707.2 134.7c-5.4.5-10.8 1.1-16.2 1.6-.1-1.3-.3-2.6-.4-3.9 4.4-6.8 10.1-5.5 16.2-2.1.1 1.5.3 2.9.4 4.4m395.9-17.9h-15.6c-.4-.8-.8-1.6-1.2-2.3 2.9-1.8 5.8-5 8.8-5.1s6.2 2.8 9.3 4.3c-.4 1-.8 2-1.3 3.1" class="st19"/><path d="M940.9 122.6c-5 5.5-7.7 11.2-11.3 11.9-6.3 1.1-8.5-4.8-8.5-10.8s.7-12.9 8.2-12.1c3.5.3 6.6 5.9 11.6 11" class="st2"/><path d="M800.1 116.7h-16c-.4-.9-.7-1.7-1.1-2.6 3.3-1.7 6.5-4.7 9.8-4.7 2.8 0 5.7 3.3 8.5 5.2zm437.5 0h-16c-.4-.8-.7-1.7-1.1-2.5 3.2-1.7 6.5-4.7 9.7-4.8 2.8 0 5.7 3.3 8.6 5.1-.4.7-.8 1.5-1.2 2.2" class="st19"/><path d="M735.3 231.4c-2.7 2.4-4.6 4.1-6.4 5.7-1.4-2.3-3.9-4.7-3.8-7 .1-2.1 3-4 4.7-6 1.5 2.1 3.1 4.2 5.5 7.3" class="st2"/><path d="M586.5 216.4c8.9-.8 12.7 3.6 12.4 11.2-.2 7.5-4.4 10.9-12.4 8.6z" class="st27"/><path d="M1532 234.8c-2.7.9-5.7 2.9-8.1 2.3-2.1-.5-4.8-4.2-4.7-6.1.2-2.4 3.3-4.5 5.1-6.7 1.6 2 3.3 4 4.9 5.9 1 1.4 1.9 3 2.8 4.6m-253.8-4.3c-3.1 2.9-5.2 4.9-7.3 6.9-1.6-2.2-4.5-4.4-4.3-6.4.2-2.4 3-4.6 4.7-6.9 1.8 1.7 3.8 3.5 6.9 6.4m-183.9 0c-3.1 3-5.2 4.9-7.3 6.9-1.6-2.2-4.5-4.4-4.4-6.4.2-2.4 3-4.6 4.7-6.9 2 1.7 3.9 3.5 7 6.4" class="st19"/><path d="M323.6 224.8c1.3 3.2 2.6 6.4 4 9.6-.6 0-1.3 0-1.9.2-.7.6-1.3 1.1-2 1.7l-6.3-2.1c0-2.4 0-4.9.1-7.3 2-.7 4.1-1.4 6.1-2.1" class="st0"/><path d="M317.5 226.8c0 2.4 0 4.9-.1 7.3 0-2.4 0-4.8.1-7.3m6.2 9.5c.7-.6 1.3-1.1 2-1.7-.7.6-1.4 1.1-2 1.7" class="st19"/><path d="M956.9 224.8c1.3 3.2 2.6 6.4 4 9.6-.6 0-1.3 0-1.9.2-.7.6-1.3 1.1-2 1.7l-6.3-2.1c0-2.4 0-4.9.1-7.3 2-.7 4.1-1.4 6.1-2.1" class="st0"/><path d="M950.8 226.8c0 2.4 0 4.9-.1 7.3 0-2.4.1-4.8.1-7.3m6.2 9.5c.7-.6 1.3-1.1 2-1.7-.7.6-1.3 1.1-2 1.7" class="st19"/><path d="M695 732.3v-16.4c.9-22.1-2.9-22.7 23-22.6 118.9.1 237.7.1 356.6.1h12.8v121.4H779.1c-23.3 0-46.5.2-69.8.3-13-.9-13.9-1.9-13.9-15.3-.2-22.6-.3-45-.4-67.5m105.1 13.4c-2.1-3.5-4.8-8.1-7.5-12.7-2.3 4.1-4.7 8.2-6.8 11.9-4.9-11.1-4.9-11.1-10.4-10.5 1.2 6 2.1 12 3.7 17.8 1.3 4.5 3.6 8.7 5.5 13 2.2-4 4.4-8.1 6.7-12.1.2-.4.8-.6 1.8-1.3 1.3 3.7 2.2 7.2 3.8 10.4.7 1.4 2.9 2.6 4.5 2.7 1 .1 2.8-1.9 3.1-3.2 2.1-9.4 3.8-18.8 5.7-28.3-1.3-.5-2.7-1-4-1.5-2.1 5-4.4 10-6.1 13.8m-78.9 5.1v9.2c0 13.4 0 13.5 13.6 13.4 25.6-.2 22.3 3.5 22.4-24.9.1-12-10.2-20.5-24.2-20.4-11.7.1-11.7.1-11.7 17.5-.1 1.8-.1 3.5-.1 5.2m190.6 14.5c4.7 0 8.3.9 11.1-.2 4.8-1.9 11.6-4.2 13.2-8.1 2-5.1 2-14.5-1.2-17.5-4.6-4.3-12.8-4.8-19.6-5.9-.5-.1-2.9 7.8-3.3 12-.6 5.9-.2 12.1-.2 19.7m-97.6-30.8c4.9 2.2 7.5 3.4 10 4.5-3.9 2.2-7.5 4.2-11.1 6.2.4.9.8 1.9 1.2 2.8h10.2c-5.4 3.5-15.4 2.4-12 12.4 3.7 11 12.6 3.7 19.3 4.2 2.6-21.3-1.7-29.5-17.6-30.1m214.3 24.5c-.2-.5-.3-1.1-.5-1.6 3.8-.4 7.7-.8 12-1.3 1.4-7.6-.9-13.5-7.7-14.4-3.8-.5-9.9 2.8-11.9 6.2-3.3 5.8-2.5 12.9 4.2 16.9 5.1 3 9.7 2 14.7-4.2-4.8-.7-7.8-1.2-10.8-1.6m-144.2-.3v-1.2c1.7-.3 3.5-.3 5.2-.8 2.3-.7 6.2-1.4 6.5-2.7.5-2.6-.1-6.3-1.7-8.5-3.9-5.5-9.3-6.4-14.8-2.1-5.4 4.2-6.4 14.6-1.4 19.3 5.3 5.1 10.8 5.2 17.1-2-4.5-.8-7.7-1.4-10.9-2m117.7-2.6c2.2-7.9.2-14-7.1-14.4-4-.2-11.1 4.1-11.7 7.3-.9 4.9 1.5 11.9 4.9 15.6 3.4 3.5 9.4 2.3 14-4.2-5.2-.7-8.5-1.1-11.8-1.5v-1.5c3.7-.4 7.4-.8 11.7-1.3m-39.7 9.6c-3.5-9.5 4.1-20.4-8.3-24.2-3.1-1-7.5 2.1-11.3 3.4.4.9.8 1.7 1.3 2.6 3.3.2 6.7.3 10 .5-5.5 3.6-14.7 1.7-12.6 11.6 2.6 11.5 12 4.2 20.9 6.1m-116-17.8c1.2.4 2.5.8 3.7 1.2 1 5.4 1.9 10.9 2.9 16.3.9-.2 1.8-.5 2.7-.7 5-17.3 2-23.5-11.6-24-.6-2.5-1.1-5-1.8-7.8-5.9 5.1-7 21.5-1.7 34.7 2.4-8 4.1-13.9 5.8-19.7m132.7-2.6c-2.7-4.9-4.6-8.6-6.9-12.8-1.6 1.2-3.6 2.1-4.5 3.6-5.3 9-.1 17.9 1 26.8.2 1.3 6.1 1.8 9.4 2.7.5-.9.9-1.7 1.4-2.6-6.6-6.1-7-12.2-.4-17.7m66.9 19.9c1.5-.1 3.1-.3 4.6-.4.2-3 0-6 .7-8.9.6-2.6 2.2-5 3.4-7.4 1.4 2.5 3.2 4.9 4.2 7.7 1.1 2.9 1.4 6.2 2.1 9.2.9-.2 1.7-.5 2.6-.7 5.2-24.9-3.4-27.4-18.9-20.2.5 6.7.9 13.7 1.3 20.7m-177.1 1.2v-33c-7.2 5-7.8 25.8 0 33m145.9-12.4c0-1.4.4-2.9-.1-4.1-1.2-2.6-2.8-4.9-4.3-7.3-1.2 2.4-2.9 4.6-3.3 7.1-.6 3.3-.5 6.9 0 10.2.3 1.9 2 3.5 3.1 5.2 1.5-1.7 3.5-3.1 4.4-5.1.8-1.6.2-4 .2-6" class="st28"/><path d="m1207 728.2-.3 70.9c-.1 13.1-1.5 14.7-13.9 15.9l-104.4-.3V694.1c3.8-.3 6.7-.7 9.6-.7 31.6 0 63.2-.1 94.7 0 11.8 0 13.8 2.2 14 14.3zm-58.2 36.2c5.4-5.9 9.8-10.6 14.2-15.4l-2.3-2.3c-3.9 3.5-7.7 7-11.9 10.7-4.3-3.8-8.2-7.3-12.2-10.7-.7.8-1.4 1.6-2 2.4 4.4 4.7 8.8 9.4 14.2 15.3" class="st24"/><path d="m1088.4 814.7 104.4.3c-5.7 12.9-17.7 13.7-28.6 13.9-38.6.6-77.2.2-115.8.2-102.5 0-205 .1-307.5-.3-8.3 0-16.8-3.1-24.8-5.9-2.8-1-4.6-5.2-6.8-7.9 23.3-.1 46.5-.3 69.8-.3h308.3c.3-.2.7-.2 1 0" style="fill:#c2d0f4"/><path d="M687.4 863.9c-4.6-4-4-8-.3-12.2.1 4 .2 8.1.3 12.2" class="st1"/><path d="M1002.6 846c1.7 6.3 3.3 12.7 4.6 17.5h-15.9c1.9-6 4.1-12.9 6.3-19.8 1.6.8 3.3 1.6 5 2.3" class="st25"/><path d="M1091.3 845.5v23c-5.6-3.4-10.6-4.7-11.8-7.6-2-4.7-1.2-10 5.7-11.6 1.7-.4 2.8-3.7 4.2-5.7z" class="st28"/><path d="M791.4 851.8c-1.3-.1-2.6-.3-3.9-.4 2-.5 3.9-1.1 5.9-1.6z" class="st20"/><path d="M1038.7 867.4c-1.2-5.9-1.9-9.4-2.6-12.9-.6-.1-1.3-.2-1.9-.3-.9 3.7-1.9 7.3-2.8 11-.6-.1-1.1-.1-1.7-.2v-15.4c6.4.7 13.2.4 19.1 2.7 1.9.7 1.4 8.2 2 12.6-.9.2-1.9.3-2.8.5-.7-3.6-1.4-7.2-2.2-10.8-.7-.2-1.4-.5-2.1-.7-1.3 3.6-2.7 7.4-5 13.5m-27.6-16.5c13.6-2.1 15.1-.2 12.4 16.9-1.3-4.3-1.8-6.2-2.4-8-.6-2-1.2-4.1-4.3-6.2-1 3.8-1.9 7.6-2.9 11.5-.6.1-1.1.1-1.7.2-.3-4.7-.7-9.2-1.1-14.4m102.2 14.1v-16c4.3 1.2 9.1 1.2 10.7 3.5 2.2 3.1 1.8 8.1 2.6 12.2-.9.1-1.8.3-2.7.4-1-3.9-1.9-7.8-2.9-11.6-.9.1-1.7.2-2.6.2-1.1 3.9-2.2 7.8-3.4 11.7-.6-.1-1.1-.3-1.7-.4m-4.3-.1c-13.2 2-16-1.9-11.2-14.9 1.1 5.2 1.9 9.3 2.8 13.5 1 0 2 .1 3 .1.7-4.2 1.4-8.4 2.2-12.7.7 0 1.4-.1 2.1-.1.3 4.4.7 8.9 1.1 14.1" class="st25"/><path d="M802.8 854.1c-.5-.8-.9-1.6-1.4-2.5.5.9.9 1.7 1.4 2.5" class="st21"/><path d="m671.6 863.2.9-9c1.3.1 2.6.3 3.9.4-.3 3.2-.6 6.5-.9 9.7-1.3-.3-2.6-.7-3.9-1.1" class="st1"/><path d="M821.3 860.4c1.5.1 2.9.2 4.4.3-.2.8-.4 2.2-.6 2.2-1.2.1-2.5-.2-3.8-.4z" class="st20"/><path d="M908.2 863.2c-.3-.8-.7-1.6-1-2.4 1.3.1 2.7.3 4 .4-1.1.7-2.1 1.4-3 2" class="st1"/><path d="M911.1 861.2c-1 .7-2 1.3-2.9 2 .9-.6 1.9-1.3 2.9-2" class="st1"/><path d="M800.1 745.7c1.7-3.8 3.9-8.8 6.2-13.8 1.3.5 2.7 1 4 1.5-1.9 9.4-3.6 18.9-5.7 28.3-.3 1.3-2.1 3.3-3.1 3.2-1.6-.1-3.7-1.3-4.5-2.7-1.6-3.2-2.5-6.8-3.8-10.4-1 .7-1.6.9-1.8 1.3-2.3 4-4.5 8.1-6.7 12.1-1.9-4.3-4.2-8.5-5.5-13-1.7-5.8-2.5-11.8-3.7-17.8 5.5-.5 5.5-.5 10.4 10.5 2.1-3.7 4.5-7.8 6.8-11.9 2.6 4.6 5.4 9.2 7.4 12.7" class="st27"/><path d="M721.2 750.8v-5.1c0-17.3 0-17.3 11.7-17.5 14-.1 24.3 8.3 24.2 20.4-.1 28.5 3.2 24.7-22.4 24.9-13.5.1-13.5 0-13.6-13.4.1-3.1.1-6.2.1-9.3m4.9-17.8v35.6h26.5v-23c-4-.7-7.4-1.3-10.9-1.9-.5-3.9-.8-7.2-1.2-10.7z" class="st1"/><path d="M911.8 765.3c0-7.7-.4-13.8.1-19.8.4-4.3 2.8-12.1 3.3-12 6.8 1.1 15 1.6 19.6 5.9 3.2 3 3.3 12.4 1.2 17.5-1.6 4-8.3 6.2-13.2 8.1-2.7 1.3-6.3.3-11 .3m7.9-26.2v19.3c7.3 1.6 10.8-1.2 11.4-8 .7-7.7-3-11.2-11.4-11.3m-105.5-4.6c15.8.6 20.2 8.9 17.6 30.1-6.7-.5-15.7 6.8-19.3-4.2-3.3-10 6.6-8.9 12-12.4h-10.2c-.4-.9-.8-1.9-1.2-2.8 3.6-2 7.2-4 11.1-6.2-2.4-1.1-5-2.3-10-4.5" class="st27"/><path d="M1028.5 759c3 .5 6 .9 10.9 1.6-5 6.2-9.7 7.2-14.7 4.2-6.7-4-7.6-11.1-4.2-16.9 2-3.5 8.1-6.7 11.9-6.2 6.8.9 9.1 6.8 7.7 14.4-4.3.5-8.2.9-12 1.3.1.5.2 1 .4 1.6m-144.2-.3c3.2.6 6.4 1.2 10.9 2-6.2 7.2-11.8 7-17.1 2-4.9-4.7-4-15.1 1.4-19.3 5.5-4.2 10.8-3.4 14.8 2.1 1.6 2.2 2.3 5.9 1.7 8.5-.3 1.3-4.2 2-6.5 2.7-1.7.5-3.5.6-5.2.8z" class="st22"/><path d="M1002 756.1c-4.3.5-8 .9-11.8 1.3v1.5c3.3.4 6.6.8 11.8 1.5-4.6 6.5-10.6 7.8-14 4.2-3.5-3.6-5.8-10.7-4.9-15.6.6-3.2 7.7-7.5 11.7-7.3 7.4.4 9.4 6.5 7.2 14.4m-39.7 9.6c-9-1.9-18.3 5.4-20.9-6.2-2.2-10 7.1-8.1 12.6-11.6-3.3-.2-6.7-.3-10-.5-.4-.9-.8-1.7-1.3-2.6 3.8-1.2 8.1-4.4 11.3-3.4 12.5 3.9 4.9 14.8 8.3 24.3m-116-17.8c-1.7 5.9-3.4 11.8-5.7 19.8-5.4-13.2-4.2-29.5 1.7-34.7.6 2.8 1.2 5.3 1.8 7.8 13.6.5 16.6 6.7 11.6 24-.9.2-1.8.5-2.7.7-1-5.4-1.9-10.9-2.9-16.3-1.3-.5-2.6-.9-3.8-1.3m132.7-2.6c-6.7 5.5-6.2 11.6.4 17.6-.5.9-.9 1.7-1.4 2.6-3.3-.9-9.2-1.4-9.4-2.7-1.1-8.8-6.3-17.8-1-26.8.9-1.5 2.9-2.4 4.5-3.6 2.3 4.3 4.3 8 6.9 12.9m66.9 19.9c-.4-7-.8-14.1-1.2-20.8 15.5-7.2 24-4.7 18.9 20.2-.9.2-1.7.5-2.6.7-.7-3.1-1-6.3-2.1-9.2-1-2.7-2.8-5.1-4.2-7.7-1.2 2.5-2.8 4.8-3.4 7.4-.7 2.8-.5 5.9-.7 8.9-1.6.3-3.2.4-4.7.5" class="st27"/><path d="M868.8 766.4c-7.8-7.2-7.1-28 0-33z" class="st22"/><path d="M1014.7 754c0 2 .6 4.4-.2 6.1-.9 2-2.9 3.4-4.4 5.1-1.1-1.7-2.8-3.4-3.1-5.2-.5-3.3-.6-6.9 0-10.2.4-2.5 2.2-4.8 3.3-7.1 1.5 2.4 3.1 4.8 4.3 7.3.6 1.1.1 2.6.1 4" class="st27"/><path d="M1148.8 764.4c-5.4-5.9-9.8-10.6-14.2-15.4.7-.8 1.4-1.6 2-2.4 3.9 3.5 7.9 6.9 12.2 10.7 4.1-3.7 8-7.2 11.9-10.7l2.3 2.3c-4.4 4.8-8.7 9.6-14.2 15.5" class="st22"/><path d="M726.1 733h14.4c.4 3.5.8 6.7 1.2 10.7 3.4.6 6.9 1.2 10.9 1.9v23h-26.5zm18.2 22.3c-.9 2-1.8 4-2.6 6.1-1.3-3.4-2.6-6.8-3.9-10.3 1.9.9 3.8 1.9 5.6 2.8-3.5 1.5-7 2.9-10.6 4.4.6-1.1 1.2-2.3 1.7-3.4 2.2 2.6 4.3 5.1 6.5 7.7-1.9-.6-3.7-1.3-5.6-1.9 3-1.8 5.9-3.6 8.9-5.4" class="st24"/><path d="M919.7 739.1c8.4.1 12.1 3.6 11.4 11.3-.6 6.7-4.2 9.5-11.4 8z" class="st28"/><path d="M744.3 755.3c-2.9 1.8-5.9 3.6-8.8 5.3 1.9.6 3.7 1.3 5.6 1.9-2.2-2.6-4.3-5.1-6.5-7.7-.6 1.1-1.2 2.3-1.7 3.4 3.5-1.5 7-2.9 10.6-4.4-1.9-.9-3.8-1.9-5.6-2.8 1.3 3.4 2.6 6.8 3.9 10.3.7-1.9 1.6-3.9 2.5-6" class="st27"/></svg>