<?xml version="1.0" encoding="UTF-8"?>
<svg id="Ebene_1" xmlns="http://www.w3.org/2000/svg" version="1.1" viewBox="0 0 1920 1080">
  <!-- Generator: Adobe Illustrator 30.1.0, SVG Export Plug-In . SVG Version: 2.1.1 Build 136)  -->
  <defs>
    <style>
      .st0 {
        fill: #0170c8;
      }

      .st1 {
        fill: #878388;
      }

      .st2 {
        fill: #f6f6f6;
      }

      .st3 {
        fill: #838186;
      }

      .st4 {
        fill: #e5e5e5;
      }

      .st5 {
        fill: #7c797c;
      }

      .st6 {
        fill: #2369b8;
      }

      .st7 {
        fill: #c4c4c4;
      }

      .st8 {
        fill: #818ea5;
      }

      .st9 {
        fill: #3e7ec1;
      }

      .st10 {
        fill: #fbfcfc;
      }

      .st11 {
        fill: #a89692;
      }

      .st12 {
        fill: #deeefd;
      }

      .st13 {
        fill: #af8a75;
      }

      .st14 {
        fill: #eee;
      }

      .st15 {
        fill: #1662b5;
      }

      .st16 {
        fill: #494346;
      }

      .st17 {
        fill: #888b97;
      }

      .st18 {
        fill: #7f7e81;
      }

      .st19 {
        fill: #948c91;
      }

      .st20 {
        fill: #fefefe;
      }

      .st21 {
        fill: #ededed;
      }

      .st22 {
        fill: #423e48;
      }

      .st23 {
        fill: #464a55;
      }

      .st24 {
        fill: #4a464f;
      }

      .st25 {
        fill: #5d4d45;
      }

      .st26 {
        fill: #5c5c5c;
      }
    </style>
  </defs>
  <path class="st20" d="M0,0h1920v1080H0V0ZM17.33,35.14c-2.14,1.87-5.69,5.32-6.67,9.25.22,17.24-1,37.25,1.33,53.63.92,2.07,3.3,5.36,5.33,7.4,74.21,4.18,149.24.74,224,1.85,2.93-1.97,6-6.21,8-11.1v-51.78c-1.43-4.04-4.52-8.51-8-11.1l-222.32.02c-1.12,0-1.93,1.37-1.68,1.83ZM260,44.38v51.78c1.18,3.04,4.4,11.1,8,11.1h253.33c3.08,0,6.16-6.71,8-11.1v-51.78c-1.18-2.99-4.45-11.1-8-11.1h-253.33c-2.93,0-6.39,7.06-8,11.1ZM540,44.38v62.88h360V33.29h-360v73.97h360V33.29h-360v11.1ZM910.67,44.38v51.78c1.18,3.04,4.4,11.1,8,11.1h212c3.07-2.51,5.68-6.04,8-11.1v-51.78c-1.18-2.99-4.45-11.1-8-11.1h-212c-2.93,0-6.39,7.06-8,11.1ZM1895.74,218.75l5.66,1.29-.91-79.33c-5.29,20.93,2.03,54.28-4.75,78.04ZM971.7,205.37c1.84-.99,4.33-4.8,4.33-7.02v-45.29c-.01-2.88-2.97-7-5.06-7h-32.62c-2.09,0-5.05,4.11-5.05,7.01v45.23c0,2.93,2.96,6.98,5.04,6.98l33.36.09ZM752,171.99h-1.33c-.83-1.13-3.94-2.35-5.33-1.85-2.51.91-6.69,3.39-9.66,5.29-.65-1.52-2.3-5.25-3.68-5.29-9.55-.22-11.53-7.54-16.48-2.48-.96.98-1.55,4.18-.9,5.57.77,1.66,3.19,3.71,4.61,5.47l5.27,6.53,1.04,4.48c.24,1.03,2.46.66,2.97-.13,1.18-1.87,2.52-3.74,3.48-4.61l3.14-2.87c.87-.8,2.49.78,4.44,2.61l1.61-12.33c1.48,4.16.71,5.4.2,11.11,3.01,2.08,7.87,1.18,10.61-.39,3.85,1.48,7.88,1.59,14.19,1.16l.2-17.61-3.77-1.27c-.68-.23-1.56,3.64-2.25,3.87l-8.36,2.74ZM804,175.68v3.7c-.29,2.69.12,5.64,2.67,5.55l20.91-.77.94-11.62c-3.97-.98-10.24-3.04-13.2-1.8-1.73.73-3.62,6.92-4.35,8.55l.6-7.49-4.91-7.22c-.91-.45-3.46,2.35-3.4,3.91.09,2.28.38,5.11.73,7.19ZM1028,171.99c-2.1-.96-5.2-1.65-7.74-1.79l-1.52-1.74c-1.79-2.05-6.27-2.63-9.01-1.46l-.3,17.62,9.23.39h1.33c.94,0,2.55-.25,2.59-1.33l.26-6.89c.17-4.56,1.74-3.64,2.54.13l-.08,6.91c-.01,1.04,1.47.82,2.5.84l2.25-.64c.63-.18-.4,4.52-.22,5.29,2.94.7,9.87-1.56,11.64-5.63,2.36-5.44,1.58-13.66-.29-19.57l-2.56,6.94c-3.82-.52-7.22-.19-10.64.94ZM1053.33,175.68c-.5-1.71-1.24-6.36-2.67-3.7l-2.68-1.92.09,14.9,2.46-1.12,3.76,1.5c1.14.45,3.41-2.4,3.03-4.11,3.82,5.29,9.23,4.02,15.27,1.98l1.01-11.99c.16-1.92-1.76-5.5-3.31-5.85-1.13-.26-2.74,3.43-3.85,3.9l-8.09,3.3c-1.75-1.02-2.51-1.6-2.92-.83l-2.11,3.94ZM1148,184.93c4.71-.14,9.36-.7,14.42-1.65l.14-10.72c-5.73-1.51-10.69-2.35-15.9-2.43-7.7-.12.06-9.94-14.06-4.1l2.84,1.65c.69.4,2.7,3.45,1.94,3.45l-4.75-.02.91,13.14,14.45.68ZM1190.9,170.04l-12.31,1.43,4.06,5.56-5.55,3.71c3.64,4.12,10.08,4.96,14.8,3.04l1.49,1.18c.8-1.3,1.29-6.57,1.34-9.39.02-1.25,3.22-3.1,3.35-1.89l.59,5.73c.2,1.94-.19,5.11.65,5.42s3.36.33,3.37-.88l.04-4.85c.02-2.04-.48-6.73-1.61-7.78-.9-.84-3.01-1.04-5.08-1.5l-2.7-5.23-2.43,5.46ZM776.92,184.48c1.05.06,4.71.01,4.81-1.21l.39-5.19c.03-2.49.05-5.96-.98-7.14s-4.78-.68-6.22-.16l-6.83,2.44-.05,10.76,8.88.51ZM801.43,173.07c-2.2,3.79-11.34-8.19-14.08-1.3-.95,2.4-.96,9.12-.02,11.54,2,5.16,9.67-2.29,13.19.13l.91-10.36ZM840.33,184.35l12.65.47,5.25-2.27c1.11-.48.87-8.2,0-9.24-4.25-5.05-20.08-2.54-28.63-1.03l-.25,11.71,7.48.76,1.74-12.51,1.76,12.11ZM1100,184.93c1.33.08,3.71.39,3.84-1.13l.81-9.67,1.13,10.29c.22-.11,1.4-.93,1.84-.79l2.64.79c.05-3.78.41-8.54,1.76-10.58l.07,11.29,3.45-3.6c.74-.77,2.91,2.48,3.81,2.95l10.74.29c.84-1.14.96-9.53-.66-11.73-3.22-4.37-10.17-2.99-14.78.8-4.25-4.74-10.96-4.68-16-2.18-1.08-1.08-6.41-2.81-7.17-.51-1,3.04-1.46,9.08-1.44,13.16l9.94.63ZM1175.49,179.84c-1.18-.47-5.56.42-5.85-1.59l-1.18-8.27-.57,14.45,7.6-4.58ZM1878.67,229.32l-1853.55,1.14c300.41,6.42,605.22-.05,907.68,3.24,5.33.06,7.37.76,11.68-1.23,5.51-1.48,15.31-2.66,19.63.55-.7-.52,835.4.58,914.55.17,1.65,0,5.19,1.8,6.59.58s3.46-5.21,4.43-7.49l-11.02,3.04ZM1896.99,245.93v795.23h4.35V245.93h-4.35ZM956,255.21h-2.67v785.96h2.67V255.21ZM136.95,330.81c.04-4.55.02-14.75-.28-19.82-.21-3.44-7.44-4.22-9.7-4.13l-.61-10.87c-.5-.56-4.68.72-4.67,2.24l.19,33.15c0,1.64,4.8,2.2,4.81.57l.02-6.41c.02-6.17-1.82-12.72,4.95-14.03l.56,21.01c.61.62,4.72-.23,4.73-1.73ZM300.17,320.52l10.25-.48c.13-9.15-3.45-13.41-9.79-13.4-4.43,0-6.65,5.14-9.26,11.86-.82-3.9-1.5-8.13-2.56-9.93s-5.11-1.4-8.06-1.56l-.99-9.64c-.24-2.32-5.8-1.82-6.46.08l.14,35.31,9.46-.21c1.85-.04,5.72,0,6.36-1.98l2.62-8.18c2.51,6.37,4.07,9.89,7.5,10.34,4.13.54,7.54-.71,10.13-5.11-1.83-.27-3.37-.43-4.61-.51l-5.07-.34c-1.13-.08-1.06-6.19.35-6.25ZM365.92,332.57l10.15.31-.2-36.99c-2.65.09-5.15-.34-5.15.89l-.02,4.81c0,1.81.12,5.22-.76,5.28l-3.11.19c-5.94.36-8.52,5.15-8.47,13.01.04,6.04,1.87,12.32,7.56,12.5ZM476.15,309.4c.58-.41-1.53-2.06-2.11-2.47l-2.57-1.79,6.05-6.65c-.67-1.49-5.45-3.43-7.24-2.49s-3.22,5.16-4.23,8.3l-1.55,4.81c-.26.8,1.91,3.58,1.93,4.42l.5,19.37c2.46-.26,4.42-.16,4.45-1.27l.09-4.44c.27-13.19-.75-13.95,4.67-17.78ZM57.23,331.2l.15-27.49,6.44-1.63c.59-.15,1.67-2.59,1.09-2.92-.38-.22-2.4-1.58-2.81-1.56l-18.92.61c2.41,5.85,4.97,4.16,8.94,5.38l.45,28.18c.15,1.05,4.65.86,4.66-.56ZM98.86,331.18l-3.25-7.19c-.9-2-.66-6.91.13-8.92,1.1-2.77,2.72-3.99,6.54-4.72l.85,20.19c.12,2.87,6.61,2.71,7.56,1.06-4.2-8.37-2.92-15.37-1.22-23.19.53-2.45-3.69-8.91-4.84-6.97-7.81,13.18-6.12-1.65-14.1,10.48l-3.56-4.63c-.68-.89-3.71.73-4.35,1.5,1.49,3.38,4.84,8.88,3.97,11.71s-2.55,7.1-3.87,10.66c-.01.93,4.24,2.42,5.08,1.06l2.97-4.83,3.74,5.41c.69,1,4.03-1.09,4.35-1.6ZM72.08,320.57l10.29-.58c.49-10.49-5.46-14.96-12.13-12.67-5.18,1.78-7.17,11.19-5.39,17.99,1.99,7.59,8.81,9.72,14.15,5.5.56-.44,1.92-1.97,2.39-2.48.31-.35-1.08-1.68-1.47-1.62l-2.33.36c-1.52.23-4.15.07-5.78-.26-1.1-.22-1.07-6.15.27-6.23ZM145.66,306.99h-4.24v25.89h4.24v-25.89ZM156.08,320.57l10.29-.58c.49-10.49-5.46-14.96-12.13-12.67-5.18,1.78-7.17,11.19-5.39,17.99,1.98,7.58,8.82,9.72,14.14,5.5.57-.45,1.93-1.97,2.4-2.48.31-.35-1.08-1.68-1.47-1.62l-2.33.36c-1.49.23-4.19.07-5.77-.26-1.09-.22-1.08-6.15.27-6.23ZM173.64,315.12c2.48-2.76,3.63-4.01,5.5-7l-11.02-1.25.37,23.6c.03,1.78,3.98,2.79,4.59,2.09l.56-17.44ZM195.15,325.49c-.55-.94-.81-4.52.09-4.62l4.77-.54c2.22-.25,4.62.05,5.07-1.65.36-1.36-.17-5.94-.9-7.32-2.02-3.8-8.98-6.27-12.42-2.99-5.87,5.6-5.06,19.25.76,23.68.33.25,11.52,4.08,11.7-5.32.09-4.59-5.57,4.74-9.08-1.24ZM212.33,306.99h-4.24v25.89h4.24v-25.89ZM226.82,330.62c.02,1.86,5.11,2.6,5.11.63l-.08-23.8-15.89-.58.13,25.57c1.13.4,4.63.68,4.67-.87l.19-6.02c.2-6.49-.74-14.08,5.63-13.37l.25,18.44ZM236.06,336.5c1.1,7.05,13.4,8.09,14.74.92,1.73-9.29.68-19.83.89-30l-10.67-.08c-3.34-.03-6.69,5.66-6.64,10.54.04,4.12.56,11.37,2.69,12.37,2.65,1.24,5.87,2.43,9.76,3.95-1.8,2.51-6.17,2.32-10.76,2.31ZM261.63,326.33l-1.23-5.46,11.99-1.28c-.43-11.63-6.14-13.89-11.66-12.2-5.82,1.79-7.16,9.13-5.65,18.63,1.16,7.29,10.67,8.05,14.35,5.69.8-.51,1.43-3.82,1.45-4.94.1-4.03-8.1,4.67-9.25-.44ZM322.94,331.53c.05,1.72,4.68,1.07,4.68-.64l-.04-21.23c-5.16-3.16-11.15-3.26-15.5-2.06l.41,22.91c.03,1.51,4.21,3.85,4.33,2.34l.55-7.24c.47-6.17-2.09-12.99,4.96-13.8l.61,19.73ZM357.62,321.91c.12-5.23-1.04-11.13-3.63-13.3-2.28-1.91-6.63-1.75-9.64-.73-5.44,1.83-6.47,9.82-5.43,16.32.96,6.02,5.14,9.24,9.71,8.77s8.81-3.38,8.98-11.06ZM385.63,326.33l-1.23-5.46,11.98-1.29c-.43-11.63-6.14-13.89-11.66-12.19-5.82,1.79-7.16,9.13-5.65,18.63,1.16,7.29,10.67,8.05,14.35,5.69.8-.51,1.42-3.82,1.46-4.94.13-4.04-8.11,4.67-9.26-.44ZM403.79,314.34c1.85-1.92,3.65-3.97,4.9-6.17l-11.37-1.49.05,25.93,4.27-.24c1.91-.11-1.18-14.58,2.14-18.03ZM425.47,320.57l10.25-.57c.49-10.5-5.47-14.97-12.14-12.68-5.18,1.78-7.17,11.19-5.39,17.99,1.99,7.59,8.8,9.72,14.15,5.49.54-.43,1.91-1.97,2.38-2.48.31-.35-1.08-1.68-1.47-1.62l-2.33.36c-1.44.23-4.3.06-5.75-.25-1.11-.24-1.1-6.16.3-6.24ZM442.29,306.99h-3.62v25.89h3.62v-25.89ZM457.23,316.91l.44,15.19c.85.73,4.37.82,4.51-.72l.57-6.16c.44-4.73-.07-17.39-3.6-17.55l-13.8-.62v25.8s6.6-.21,6.6-.21l.19-18.06c.01-1.2,2.88-3.42,3.43-2.61s1.63,3.51,1.67,4.94ZM493.21,307.03c-2.49.26-4.73.31-4.78,1.46l-.23,5.91c-.19,4.95-.6,11.08-2,14-6.34-1.36-2.57-20.59-4.59-20.87l-3.67-.51c-.87-.12-1.47,21.39.99,25.27l14.41.21-.13-25.48ZM497.39,336.5c1.1,7.06,13.4,8.1,14.74.93,1.73-9.29.68-19.83.89-30l-10.67-.08c-3.34-.03-6.68,5.66-6.64,10.54.03,4.12.59,11.31,2.68,12.36,2.54,1.27,6.01,2.48,9.75,3.91-1.79,2.58-6.15,2.35-10.75,2.34ZM522.97,326.33l-1.23-5.46,11.98-1.29c-.43-11.63-6.14-13.89-11.66-12.19-5.82,1.79-7.16,9.13-5.65,18.63,1.16,7.29,10.67,8.05,14.35,5.69.8-.51,1.43-3.82,1.45-4.94.08-4.02-8.1,4.67-9.25-.44ZM545.48,330.62c.02,1.86,5.11,2.6,5.11.63l-.08-23.8-15.89-.58.13,25.57c1.13.4,4.63.69,4.67-.88l.18-6.01c.2-6.49-.74-14.08,5.63-13.37l.25,18.44ZM322.54,443.32c5.69-.55,6.86-10.19,6.82-15.33-.05-6.39-1.67-13.93-6.81-15.93,3.18,11.26,3.88,19.93-.01,31.26ZM622.75,444.24c10.08-5.84,9.27-28.71-.24-31.69,5.79,11.65,4.11,20.68.24,31.69ZM54.67,436.44l4.63-.29c1.38-.09,1.94-4.24,2.7-6.99.36,1.45,1.72,7.44,3.11,7.32l9.08-.78c.89.04,1.75.36,1.76-.31l.09-6.53c.02-1.81.29-3.94.78-4.89s3.55-1.49,3.81-.38.66,3.84.69,5.22l.1,6.66c.02,1.15,1.87.58,2.86.57l10.84-.14.85-12.89c-.6-1.36-5.14-3.27-6.72-2.56-1.8.81-4.1,4.27-5.18,6.93l-.75-5.55c-.19-1.38-3.29-.74-5.25-.91l-3.39-6.65-2.09,7.96c-1.15-.64-4.93-2.98-6.38-1.91s-3.25,4.46-4.5,6.75l-.4-6.3c-.07-1.13-2.48-.66-3.36-.73-2.34-.17,2.32,16.13-3.39,14.47l-3.87-.15-1.44-3.79c2.69-4.44,4.67-8.22,7.68-14.52-6.05-.81-8.51-.87-13.19.48l8.1,2.27-8.52,17.2c3.74.32,8.76.64,11.38.47ZM134.67,436.44c1.68.14,5.2-.64,7.08-1.22l.63-10.26c.14-2.26-3.67-5.7-5.43-5.05-1.6.59-3.52,3.01-4.49,5.32l-1.17,1.99-1.26-5.78c.16.72-7.59-7.46-11.52-6.77-1.97.35-5.91,5.86-4.82,8.15,2.8,5.88,6.78,1.63,9.15,8.89,1.95,5.97-11.28-4.22-9.79-.06,2.76,8.71,9.64,5.01,12.81,1.83l3.24,3.22c.84.83,1.55-3.76,2.11-7.22.77,1.78,2.02,6.83,3.46,6.95ZM155.18,429.54c3.37-1.8,5.58-3.18,6.2-5.19s-.9-8.57-2.47-8.67l-9.66-.65.41,23.03,5.52-8.52ZM162.99,437.08c7.6-1.09,10.73-2.39,11.71-7.09.92-4.41-.62-12.66-3.56-13.48l-8.6-2.4.45,22.96ZM238.06,421.21l-11.27-.68c-1.33-.08-4.57,1.98-4.84,2.39l-2.55-8.91-3.36,9.22-4.29-9.85-4.25,10.84c-1.28-6.13-1.14-9.38-4.87-10.46.42,9.62,1.32,15.53,5.06,24.59l4.36-10.96,4.12,10.94c2.34-6.02,3.19-9.24,4.61-14.74l2.21,12.23c2.9,2.22,7.66.07,9.84-2.4.9,1.1,2.41,2.92,2.36,2.86l2.85-15.05ZM256.99,428.94c.45-.04,1.78-1.92,1.34-2.05l-2.52-.74c-1.44-.42-3.43-.72-3.55-1.93l-.42-4.49c-.14-1.48-1.43-5.91-1.33-4.92-3.62,4.43-5.83,5.92-9.72,7.26-1.37,1.77-.47,10.14,1.25,12.66s8.46,3.14,9.6.05c.48-1.31.36-5.44,1.19-5.5l4.16-.34ZM289.13,430.6c.08,3.61,2.28,6.57,4.93,6.43,2.26-.11,4.96-2.75,6.64-5.43.52,1.65,3.78,5.37,5.62,5.17l15.59-1.67c-1.25-3.55-3.08-6.36-2.44-7.84l3.17-7.36-5.75,2.13-8.19-1.47c-1.13-.2-3.93-.8-4.66.15-.91,1.19-2.23,3.78-3.4,5.99-.92-2.58-3.27-6.69-5.3-6.87-3.09-.27-7.51,2.54-6.01,7.37l-2.48-13.07c-2.61,3.08-4.46,5.08-7.56,7.08-1.87,1.2-3.51,7.01-2.81,9.74,1.03,4.04,3.76,5.91,6.89,6.12,2.73.18,4.94-2.51,5.77-6.45ZM368.79,436.37l.14-16.88c0-.98-.49-3.58-.82-4.44-.21-.55-.96-.39-1.2.18-4.07,9.76-6.24,2.5-7.8,8.43-.75,2.85-.53,8.75.75,10.73s5.84,2.41,8.94,1.99ZM391.03,432.69c.65,1.92,2.79,4.05,4.21,4.21,2.18.25,4.92-1.21,4.48-3.94l2.31-5.68,2.87,10.43,4.32-5.86,4.65,5.3,2.7-9.76c1.11,3.12,2.18,6.02,3.27,7.45s4.27,2.14,6.17,1.82c1.55-.26,1.72-5.4,1.61-7.72l3.49,8.85c2.61-4.57,2.84-11.96,1.57-16.95-.86-.28-3.25,2.27-4.12,3.8l-4.28-4.51c-1.33-1.4-4.91,1.62-6.49,2.46-.82-.41-3.09-2.78-3.39-1.65l-1.66,6.25-1.09-4.03c-.32-1.18-2.64-4.48-3.06-3.35l-2.57,6.88-1.94-5.96c-2.29,1.08-4.75,1.96-6.04,1.17-2.34-1.44-5.23-.95-7.12,1.76-1.32-2.8-2.77-7.63-4.74-8.15-2.44-.64-6.6-.46-8.93-.09l.48,22.61,4.82-7.91,6.21-4.21,2.29,6.78ZM450.73,432.69c1.81,6.32,9.2,4.28,12.89,2.17l1.32-14.52-3.46,2.45c-.72.51-2.03-.93-3.55-2-2.43-1.71-6.57-.92-7.26,2.71-.58-2.78-2.63-7.77-4.6-8.07-2.43-.37-6.39-.3-8.85-.1l.5,22.7,4.8-7.91,6.26-4.24,1.95,6.81ZM485.54,425.69l-2.02-10.15c-4.77,4.19-6.53,5.49-10.25,6.58l4.27,12.92.43-11.38c0-.12,2.07,0,2.03.81l-.22,5.08c-.14,3.21,1.38,7.38,4.21,7.04l1.56-10.91c.18,1.59.37,3.37.36,3.2l5.13.31c.88.05.86,3.78,1.33,6.01,12.96,6.02,9.67-8.32,16.68-11.77,2.17.15,4.3,1.16,1.56,2.67-2.59.73-6.68,5.71-4.86,7.93,2.19,2.68,6.88,2.66,10.24,2.46l-.11-13.48c.53.26,2.02-.57,2.12.2l.75,5.89.83,6.54c.2,1.6,3.36-.45,4.13-1.15l9.88,2.22,1.88-8.04.6,6.76c.09,1.06,2.46,1.17,2.8.25l1.66-4.53c1.35,3.51,4.22,5.95,7.13,5.36,2.51-.52,4.1-.83,5.22-.63l2.54.43c1.97.34-1.33-13.67,2.44-13.87l4.07,14.81c.84-4.51,1.18-10.88.1-15.42-.72-3.04-6.62-1.74-8.58-.13-3.64,3-5.37-4.11-8.45-1.73-1.34,1.04-3.2,3.27-4.59,4.99l-.66-3.81c-.18-1.03-2.68-2.15-2.93-1.15l-1.27,5.11c-1.34-2.36-3.58-5.46-5.34-5.46-1.85,0-5.57,3.4-5.77,5.87l-.71,8.98c-3.79-.85,1.17-9.21-1.12-18.74-5.33,3.5-6.8,4.57-10.07,5.31l-1.48-.5-5.82,2.67c-1.37-7.03-9.21-10.28-12.69-7.01-.71,1.52.28,9.33-1.18,9.36l-5.81.11ZM647.03,435.89c.77-.02,2.63,1.12,2.87.09l1.83-7.83,2.78,8.12,12.15-.3c-.3-7.56.35-9.5,3.51-14.96l-8.23.2c-1.32-.07-5.09-1.83-5.94-.46l-4.61,7.43-.25-9.32-4.37,8.49-.26-4.66c-.08-1.37-2.33-1.27-4.46-1.82-1.42-.36-2.95-3.31-4.69-6.51l.38,22.36,1.29-11.48c.05-.92,4.07-3.2,4.28-1.68.23,1.6.59,5.22.65,7.06l.17,4.87c.04,1.19,2.05.43,2.9.41ZM678.27,428.08c.27,3.73,1.27,7.61,3.33,9.07,1.6-3.93,1.72-12.25-.42-14.5l-8.61-9.03c-.76,2.78-1.5,10.01-1.07,13.29l1.44,11.05c2.83-3.79,3.11-6.59,3.43-11.42.54-5.06,1.83-4.16,1.9,1.53ZM611.18,422.95c1.65.88,5.11,4.27,4.28,6.15l-3.27,7.47,5.98-2.64,4.52,2.23c-1.02-4.69-2.68-7.35-1.99-8.97l3.22-7.58c-5.58,4.78-10.2,2.67-14.83-3.77l-4.24,5.79-10.25-1.88.21,22.9,10.2-8.44.75-10.86c1.19,6.69,1.92,10.72,4.23,15.48l1.18-15.88ZM801.98,427.98c.69,3.29.97,7.56,2.1,7.77s3.62.48,5.01.61c-1.24-2.79-2.76-5.99-2.66-8.2.08-1.85,1.47-5.02,2.6-7.65l-4.18-3.78-7.74,4.53.82,16.52c3.4-3.43,3.28-6.11,4.09-10.99.04-4.53.03-3.57-.01,1.2ZM102.69,421.59l2.29,15.94c3.26-3.16,3.92-10.67,2.28-14.18-1.22-2.62-5.01-3.2-9.91-3.81l.5,18.41,4.83-16.35ZM342.86,420.43l-.41,12.02c-.45.29-2.63.36-2.64-.55l-.06-4.81c-.02-1.52.32-4.89-.38-5.32l-3.36-2.06.07,17,12.05-.74,4.01-14.85-9.27-.67ZM592.84,433.57c1.66-1.57.43-12.42-1.52-12.66l-8.76-1.08.37,23.06,9.91-9.32ZM696.76,435.97l3.69,1.87c.72.36,3.55.63,3.56-.45,0-1.19-.14-3.72-.85-4.12l-2.51-1.43c-.78-4.34-1.44-9.42-3.27-10.88-1.6-1.27-7.25-1.62-7.67.88-.64,3.8-.49,11.03.68,15.54l2.16-9.87c.23-1.04,1.42-3.47,1.91-4.36,2.1-3.83.84,12.06,2.31,12.81ZM720,436.44l2.85-.95c2.22-.74.04-15.48,2.85-12.55l3.68,3.84.69,10.69,4.5-15.82,2.15,14.98c3.66-.4,5.47-12.92.8-15.4s-11.71-1.22-17.57.48c-.42-.2-1.58-1.18-1.69-.48l-.65,4.08-1.49,9.3-4.14-14.6c-1.23,5.25-1.37,10.18-1.38,16.48l9.41-.04ZM750.35,436.61c1.08.26,5.18-.29,5.18-1.77l-.02-6.58c0-2.82-.19-6.26-1.44-7.15-1.04-.74-4.41-.98-5.53-.53s-4.11,4.54-3.23,5.52l3.79,4.22-3.26,2.33c-.63.45.18,2.94.88,3.1l3.63.86ZM771.52,435.82c1.11-6.16,1.54-13.48-.89-14.94-5.62-3.37-10.2,3.12-11.05,9.9,3.39,5.08,7.62,7.02,11.95,5.04ZM789.11,431.64l1.55-9.13c1.74,7.78,1.19,10.16,4.2,15.47,1.69-6.25,1.51-13.69.04-17.61l-16.35-.38.53,17.75c5.26-4.05,2.53-7.87,4.74-15.19.63,1.27,1.43,5.05,1.62,8.1l.36,5.75c.05.74,2.46.25,2.58-.47l.74-4.31ZM163.83,474.99l1.62,4.83c.47,1.4,3.95-1.21,5.47-1.41,1.66,2.64,5.56,2.88,8.76,1.57l-.88-17.35-1.91,13.62-2.93,1.2c-2.88,1.18,2.86-9.33-3.3-11.42-1.37-.47-2.57-.91-4.09-.07l-3.42,1.9-1.62-11.06c-2.66,4.84-2.89,8.04-3.35,12.78-1.32-2.22-4.74-5.91-6.73-5.34-2.2.63-4.58,4.52-5.74,7.18-.16-5.63-2.15-10.89-5.89-11.53l-6.58-1.13.26,21.88c6.79,1.47,11.21-.32,12.38-7.21,1.22,4.43,2.83,8.06,5.56,8.39,2.39.29,4.74-2.57,6.68-6.22l1.9,3.63,3.8-4.25ZM242.67,480.82c3.99,0,7.6-.1,10.66-3.48,2,2.07,8.23,5.63,9.23,2.41l2.14-6.85.74,6.82c.13,1.17,3.67,1.77,3.68.57l.17-13.99c.01-.86-2.51-1.57-2.83-.83l-1.72,4.02c-.89-1.92-3.41-6.01-5.04-5.48-2.21.71-4.98,3.06-6.46,5.19-1.32-2.11-4.79-4.85-6.7-6.4-.98-.8-3.41-5.66-3.86-4.17l-1.96,6.51-2.84.17c-.93.05-.54,4.58-.54,6.14v4.63c0,.83-2.33,2.15-2.37,1.33l-.32-6.4c-.17-3.33-1.06-5.45-3.8-7.23l-.2,17.06h12.03ZM376,480.82c3.99,0,7.59-.11,10.66-3.48,2,2.06,8.24,5.61,9.24,2.41l2.14-6.89.74,6.84c.13,1.21,3.67,1.79,3.69.6l.16-13.99c0-.86-2.51-1.57-2.83-.82l-1.72,4.01c-.88-1.92-3.43-5.96-5.07-5.47-2.04.6-5.02,3.12-6.43,5.19-1.39-2.17-4.65-4.73-6.73-6.43-1.01-.82-3.39-5.64-3.84-4.14l-1.96,6.53-2.83.12c-.93.04-.54,4.67-.54,6.13v4.66c0,.84-2.34,2.14-2.38,1.3l-.32-6.34c-.17-3.45-1.02-5.57-3.81-7.26l-.19,17.04h12.03ZM220.19,482.85c2.64-7.4,2.5-9.79,3.31-14.98.66,5.97-.28,12,4.21,13.51l.91-15.23c.08-1.33-1.32-5.57-2.14-4.76l-3.58,3.56-11.14-.82.87,18.18,4.56-16.16,2.99,16.69ZM291.79,464.47l-5.23.31c-1.26.07-2.64,3.51-2.57,5.24l-3.86-4.84c-2.32-2.91-8.46,1.64-8,5.32l2.22,2.14c.51.49,1.63,1.93,1.1,2.38l-3.55,3.02c.86,1.7,5.25,3.87,7.18,3.06,1.71-.72,3.53-3.44,5.13-5.83.04,1.03.21,2.83.35,3.84.31,2.36,8.93,2.75,8.83.35l-.25-6.1,2.4-5.59,1.39,12.84,11.62-.54c.44-.02,2.58-2.02,2.15-2.15l-3.65-1.15c.49-2.97,2.72-8.08,5.14-8.62-.26,2.9-.08,8.12,1.05,10.31,1.34,2.59,6.72,2.98,8.71,1.6l.36-13.46c-3.47-2.1-7.14-1.72-10.24.2l-5.59-1.62c-2.57-.75-5.71-2.42-8.18-3.86-1.44.63-4.77,3.05-6.51,3.15ZM425.12,464.47l-5.22.31c-1.27.08-2.65,3.52-2.58,5.24l-3.86-4.84c-2.32-2.91-8.46,1.64-8,5.32l2.21,2.14c.52.5,1.66,1.94,1.14,2.37l-3.4,2.83c.5,2.13,5.03,4.16,7.03,3.24,1.71-.79,3.46-3.38,5.1-5.81.04,1.03.22,2.82.35,3.84.3,2.36,8.93,2.75,8.83.36l-.25-6.1,2.4-5.57,1.42,12.8,11.62-.51c.44-.02,2.57-2.03,2.14-2.16l-3.65-1.16c.49-2.97,2.72-8.07,5.14-8.62-.26,2.82-.09,8.11,1.03,10.29,1.35,2.61,6.6,2.85,8.53,1.68l.88-13.35c-2.22-2.24-7.51-1.99-10.57.03l-5.59-1.62c-2.55-.74-5.75-2.44-8.17-3.86-1.46.64-4.79,3.05-6.52,3.15ZM51.95,473.04l-.5,4.57c-.1.9-2.73.51-2.84-.38l-.48-4.09c-.29-2.42-.94-6.21-1.44-8.43-4.02,2.71-3.07,8.38-1.67,12.75,1.03,3.21,4.83,3.73,7.92,2.89l.86-15.49c-.84,2.13-1.55,5.4-1.86,8.17ZM63.43,470.38l1.85,11.43c1.95-4.78,1.98-12.55.44-16.05-1.2-2.73-8.39-2.01-8.92.96-.8,4.4-.3,10.27,2.01,15.6l1.5-10.62c.18-1.28,1.09-3.36,1.54-4.19.3-.56,1.47,2.19,1.58,2.88ZM82.67,480.9c1.15.69,4.37.29,5.51-.62s.77-5.12.78-6.96l3.47,8.4c2.26-2.4,2.75-11.75,2.11-15.3-.15-.83-2.4-1.73-2.72-1l-1.66,3.82c-2.11-2.05-4.19-4.05-5.5-5.18s-4.52,3.57-5.96,2.99l-6.53-2.62c-1.05-.42-4,3.51-3.44,4.8s1.51,2.98,2.92,5.46l-3.93,3.13c8.65,10.79,8.78-4.95,14.96,3.07ZM107.58,467.61c.12-3.36-7-3.77-8.67-1.32-1.86,2.73-2.05,9.78-.58,12.6s7.11,2.77,8.84.71l.41-11.99ZM120.19,470.75c.07-.83,1.45-3.97,1.56-3.2l.59,4.04c.63,4.36.27,7.17,3.62,10.44.94-5.91.9-13.33-.29-17.28l-16.46-.33.51,17.82c5.37-4.32,2.31-8.05,4.95-15.58l2.24,14.26c1.97,1.07,3.43-5.97,3.27-10.15ZM201.64,480.39l8.15-.15.56-12.7c.12-2.72-5.78-3.65-7.48-1.39l-2.8,3.72c-.84,1.12-2.6-2.54-3.54-5.5l-14.77.42-.02,16.99c2.58-2.04,3.8-3.11,3.48-3.18l1.16-11.59,3.93,15.93c1.28-4.95,1.52-6.45,1.85-9.31l.44-3.81c.11-.99,1.85-1.92,2.2-1.06s1.16,3.59,1.18,4.56l.15,6.52c.04,1.62,3.3.7,5.51.54ZM346.33,479.22c3.15,1.15,6.72,1.51,10.79,1.21l-.49-16.89c-3.19,3.86-3.09,5.99-3.36,9.6l-.3,4.09c-.05.69-1.52,1.6-1.58.91l-.47-4.95c-.43-4.5-1.11-7.72-3.83-9.5l-.77,13.88c-1.36.78-5.2.15-4.8-1.49l4.44-10.3-10.33-.88,4.69,4.27-4.94,10.9c3.96,1.16,7.99,1.32,10.96-.86ZM465.88,481.34c4.37-1.3,1.8-14.83.22-15.42-2.18-.81-5.69-1.44-8.95-1.92l.85,18.38,4.09-15.38c4.43.89-.55,15.63,3.78,14.33ZM941.49,1057.8l-916.16,1.86v5.55s916.16-1.86,916.16-1.86v-5.55ZM967.76,1057.81v5.55h919.07v-5.55h-919.07Z"/>
  <path class="st20" d="M163.83,474.99l2.75-9.03c3.16-.5,2.51,3.71,3.44,10.73l-6.19-1.69Z"/>
  <path class="st10" d="M892,33.29h8v11.1c-.05-.52-1.35,3.06-1.35,4.31v43.35c0,1.06,1.31,4.59,1.35,4.12v11.1h-8l-1.66-1.85h-340.67s-1.66,1.85-1.66,1.85h-8v-11.1c.05.52,1.35-3.06,1.35-4.31v-43.35c0-1.06-1.31-4.59-1.35-4.12v-11.1h8l1.66,1.85h340.67s1.66-1.85,1.66-1.85ZM576.15,53.63c0-1.14-.66-2.06-1.48-2.06s-1.48.92-1.48,2.06.66,2.06,1.48,2.06,1.48-.92,1.48-2.06ZM578.71,52.52c-.78.22,1.07,3.61,1.82,3.22l2.12-1.11c.51-.27-.24-3.15-.77-3l-3.17.89ZM615.27,79.25c4.3-7.39-4.79-10.68-7.2-13.71-.57-.72,1.21-3.57,1.89-3.06l2.39,1.77c.98.73,2.02,1.24,2.73,1.48s1.6-3.49.94-3.93l-2.51-1.68c-2.41-1.62-7.58-.84-9.18,3.63-2.45,6.89,8.63,8.36,7.85,10.93l-1.04,3.41c-.97,3.17-5.24-8.71-6.94-2.68.63,5.57,7.88,9.32,11.08,3.84ZM657.47,66.43c-2.11-1.1-6.1-1.67-7.98-.44-2.12,1.39-2.26,10.79-.7,13.23s6.23,1.85,8.68.63l2.6,1.54c5.11,3.03,1.04-13.17,3.19-12.96l3.01.29,1.34,14.17c2.92-5.66,2.2-12.23.88-16.72l-5.74-3.07c-.44-.24-.34-3.92-.82-3.92h-1.92s-2.53,7.26-2.53,7.26ZM694.67,64.73l-4.83-.02-1.73,14.94-2.52-15.65-3.11,14.85,10.69,2.65c.02-5.33.22-10.74,1.78-13.08l1.81,14.48c2.11-5.95,2.05-9.82,2.13-14.92l1.77-.09c.44-.02,1.12-2.31.7-2.42l-2.71-.74,3.95-5.07c-2.95-.97-6.8.62-7.95,5.07ZM732.7,82.36c4.31,4.81,4.23-14.77,2.11-16.35-13.88-10.38-.93-5.64-9.26-6.72l-.14,21.22c0,1.22,4.03,1.17,3.98-.05l-.21-5.24c-.09-2.25.85-5.82,2-7.86l1.52,15ZM794.76,77.86c4.2,2.53,8.87,6.14,11.87.9-3.03-2.49-3.05-3,.03-2.94l3.32,6.75c1.29-1.96,2.11-5.31,2.14-8.28l.04-4.62c0-1.08,1.74-1.09,2.5-1.25.33,3.65,3.27,5.17,6.88,8.59l-6.84-.62c.63,1.22,3.33,4.24,4.98,5.1,2.11,1.09,6.38-1.82,5.65-5.67,1.73,4.45,5.51,7.06,9.01,5.06l2.32-1.33c.52-.3-.45-1.94-1.1-3.18l1.69-8c2.86,5.44.5,11.47,2.52,11.99l4.21,1.08c.34.09.95.04,1.33,0l10.16-1c-2.24-1.59-3.63-2.32-5.89-3.45l5.78-11.96-10.04-.38h-1.33c-.62-1.24-3.36-4.85-4.23-3.57l-3.77,5.49c-1.48-1.29-5.25-2.28-7-1.69-1.95.65-3.67,6.3-3.67,9.09l-6.41-4.57,6.83.08c-2.59-8.81-8.08-3.98-11.08-1.06-.26-2.86-2.4-4.21-4.85-3.87-1.23.17-1.46,3.4-1.81,5.72-.83-2.34-4.46-6.83-6.61-5.62l-6.72,3.77-5.45-5.44c-1.19-1.19-3.95-4.38-4.99-3.66l-.19,20.68c1.94,3.08,9.89,2.32,10.72-2.14ZM584.38,74.13l-5.84-1.83,1.57,7.86c-2.07,1.25-4.2,1.21-5.56.02l1.35-7.5c-1.49.19-4.07.83-5.68,1.44l-2.3-8.04c-2.96,15.51,5.88,14.31,9.41,23.01,3.51-8.65,12.36-7.5,9.44-23.2l-2.39,8.23ZM627.1,79.14c1.68-1.93,1.16-11.01.18-13.59l-9.98-1,.05,21.88,3.24.6c-3.49-.64,7.64-9.18,6.52-7.88ZM630.67,81.37l2.61-.22.17-12.17,7.74.07c.57,0,1.85,1.6,1.34,1.78l-2.94,1.05c-1.3.46-3.76,3.14-3.87,5-.13,2.24,3.55,5.08,5.41,4.86l4.81-.57c.89-.11,2.37-16.57-1.94-16.08-3.85.44-9.1.47-13.32-.37-2.09,4.26-2.09,12.38,0,16.64ZM681.27,80.39l.26-6.83c.09-2.49-.66-8.35-2.3-8.79s-5.25.94-7.28,2.5c-2.32,3.43-.22,2.95,1.98,2.09l2.6-1.23c.51-.24,1.05,2.78.53,2.92l-2.81.78c-1.6.45-4.17,4.08-3.7,6.22,1.13,5.16,10.68,3.66,10.73,2.34ZM724.06,81.35c.04-4.85.11-11.43-1.09-15.42-.85-2.81-7.56-.18-8.73,1.87l-6.28-1.55.24,14.52,15.87.58ZM754.67,75.82c1.31,2.11,3.23,6.32,4.9,5.8l7.08-2.19c-1.65-2.96-2.06-3.1-1.8-3.76l1.66-4.31c.87-2.24-2.85-6.61-4.62-6.93-2.53-.46-5.22,1.93-7.22,5.85l-.57-3.82c-.15-1.01-2.54-1.79-3.38-1.78l-12.07.11c-.13,6.09-.02,11.58,1.56,17.2l2.55-15.09c.76,4.33,1.15,8.65,1.49,13.35-.05-.02,2.24.82,3.15,1.15,2.04.75-1.44-13.08,2.56-14.03l1.05,13.69c.48.21,3.6.61,3.61-.51l.06-4.72ZM781.91,63.24c-2.11,6.48-1.93,9.04-2.25,14.36h-3.18s-1.52-14.52-1.52-14.52c-2.4,6.4-1.89,11.26-.99,17.38l8.99.95-1.06-18.17ZM865.24,74c1.77.73,2.89,3.42,4.94,7.65l1.22-14.27c1.28,1.76,2.18,5.37,2.08,7.92l-.2,5.13c-.05,1.22,3.87,1.57,3.89.35.05-3.19-.03-10.29-.12-13.77-.05-2.04-5.56-3.46-6.71-2.2l-5.02,5.46-1.2-4.89c-.25-1.03-3.06-.89-4.57-.78-3.77.28-5.08,7.34-4.5,11.32.81,5.55,7.51,7.26,8.95,4.05.58-1.29,1.03-4.86,1.23-5.97Z"/>
  <path class="st10" d="M521.33,33.29c3.55,0,6.82,8.1,8,11.1-.05-.52-1.35,3.06-1.35,4.31v43.35c0,1.06,1.31,4.59,1.35,4.12-1.84,4.39-4.92,11.1-8,11.1.3.31-1.46-1.84-1.85-1.84h-249.63c-.39,0-2.15,2.15-1.85,1.84-3.6,0-6.82-8.05-8-11.1.05.52,1.35-3.06,1.35-4.31v-43.35c0-1.06-1.31-4.59-1.35-4.12,1.61-4.03,5.07-11.1,8-11.1-.3-.31,1.46,1.84,1.85,1.84h249.63c.39,0,2.15-2.15,1.85-1.84ZM308.21,90.02c1.56-13.9,2.84-28.35-2.86-35.65-4.95-6.34-15.06-4.82-18.14-2.93-1.23.76-1.88,5.41-1.89,7.35l-.13,23.06c-.02,3.55,2.36,9.19,5.13,9.05l17.9-.88ZM335.86,73.92c2.24-2.9,5.65-5.28,8.5-5.09l-7.97,9.31c3.83,3.72,7.12,3.56,11.61,3.07v-12.79c.36-.05,1.97-.71,2.04.01l.6,5.54.63,5.83c.17,1.54,3.52,1.51,4.41,1.27-1.89-5.28,1.35-22.29-2.26-20.34-1.82.98-4.34,3.86-5.42,5.5-7.26-4.91-8.68,2.9-11.92.51.52-5.25-7.62-12.13-12.05-6.38l.11,21.25,9-.86c1.62-.15,2.37-4.41,2.72-6.84ZM422.67,77.67c.37-.26,1.64-2.11,2.07-1.54l3.03,4.07c1.01,1.36,5.02,1.5,6.68.63,1.36-.71,2.16-15.06.43-15.37-1.4-.25-4.51-.6-6.13-.71-1.38-.09-1.87,4.46-2.45,7.35l-3.63-3.68c-1.29-1.31-2.97-2.81-4.97-4.55l-4.1-5.86-.29,23.37c3.31-.08,7.38-.78,9.37-3.71ZM465.59,66.75c-1.65-1.91-6.28-2.3-7.86-.27-1.73,2.22-2.47,8.84-1.24,11.29,1.68,3.33,6.93,4.66,8.07,2.91l2.11-12.25c2.3,5.51,1.05,13.64,3.31,12.95.99-.3,3.49-1.07,3-.92-.35-4.51-.57-8-.54-11.07l.07-6.29c.02-1.41-3.24-2.76-3.87-1.67l-3.06,5.32ZM366.53,66.6c-3.02-3.19-7.82-2.51-9.2.97-1.18,2.96-1.24,8.14.03,10.93,1.54,3.4,5.99,3.79,8.68,1.69l.48-13.59ZM389.06,81.67l.03-16.61-4.56,6.84c-.46-2.22-1.81-6.69-3.1-7.24-2.39-1.03-7.63,1.87-8.02,4.81-.46,3.49.33,9.48,2.37,10.95,2.39,1.72,7.11,1.19,7.75-1.32-2.66-2.48-1.25-2.86,1.26-4.92l4.28,7.5ZM441.1,74.99c-.1-2.35,1.57-5.97,3.2-9.75l-7.01-.51.15,15.98c.41.69,3.95,1.04,3.9-.18l-.24-5.54ZM450.62,81.84c1.33.21,5.24-3.74,4.35-5.07l-4-5.97,4.03-1.86c-1.43-6.61-8.67-5.8-9.69-.28-.45,2.43,3.01,6.14,5.26,8.41l-5.65-.18c0,1.44,3.76,4.65,5.69,4.95ZM482.44,80.73l18.04-.8,1.66-11.73.79,12.95,4.94-.61c.3-2.51.34-10.28-1.08-13.02-1.89-3.64-8.07-1-10.54.35-2.11-1.07-5.63-2.87-7.56-3.48-5.34-1.7-3.44,16.1-6.4,13.83l-2.29-.37,1.32-5.73c1.02-1.1,1.88-3.73,3.21-7.49l-10.51.89,4.65,4.3-4.65,11.29,8.4-.39Z"/>
  <path class="st12" d="M249.33,44.38c-.05-.52-1.35,3.06-1.35,4.31v43.35c0,1.06,1.31,4.59,1.35,4.12-2,4.89-5.07,9.13-8,11.1.25-.46-.56-1.83-1.68-1.83l-222.32-.02c-2.04-2.04-4.42-5.33-5.33-7.4v-50.42c0-.92-1.6-4.1-1.33-3.21.97-3.93,4.53-7.38,6.67-9.25l224-1.85c3.48,2.59,6.57,7.06,8,11.1ZM47.18,74.71l-3.35-7.92,7.4-10.38c-6.4-.28-11.52-.17-17.2.74l11.05,2.46c-.1.9-1.79,5.07-2.74,4.65l-3.92-1.75c.42,1.74,1.3,5.38.73,6.76l-2.22,5.37c2.21-1.56,3.91-3.78,5.07-3.69s2.76,2.01,5.18,3.77ZM84.58,62.68l3.79-3.15-14.24-.08,5.26,4.27,1.61,19.38c4.19-3.55-1.08-16.52,3.58-20.41ZM132,64.73c-.88.27-2.32.38-2.36,1.42l-.19,5.85-.16,4.54c-.04,1.24-2.74,1.15-3.29.81l-2.03-14.26c-1.09,6.81-1.01,11.13-.62,17.35l8.45.56c4.84.32,9.75.89,13.54-3.33,1.71,2,5.27,4.13,7.45,3.91,1.76-.18,3.32-5.04,3.95-7.51l1.55,7.8c2.3-5.43,2.27-10.42.78-16.59l-2.36,6.74-2.32-6.05c-.62-1.62-4.98-1.78-6.04-.58l-4.34,4.88-.03-2.85c-.03-3.65-4.09,1.26-8.46-8.77l-3.52,6.07ZM97.31,79.28l-.13-11.52c-.2-3.2-7.04-4.04-8.52-1.49-1.76,3.04-2.28,8.79-.64,12.41s6.61,3.21,9.29.6c.41.54,1.53,2.37,2.15,1.97l3.7-2.4,5.82,2.51-3.01-9.55c-.61-1.94,3.04-5.98,4.47-5.22l.18,13.46,1.58,1.05,1.77-.08c.51-.02,1.32-.21,2.1-.36s-1.03-2.55-1.41-2.98l.12-13.23c-4.13-10.18-4.13,7.87-15.9.57l1.67,9.11c.31,1.71-2.22,4.18-3.24,5.15ZM188.63,81.08l15.93-.06-4.33-4.62c-.88-.94,5.5-10.33,3.22-10.79-12.32-2.48-5.37,3.63-14.49-4.85l-2.82,6.26-6.47-2.13c-1.21-.4-3.81,3.32-3.87,5.11-.11,3.46.81,9.9,2.71,10.41s6.06.57,6.56.08c.47-4.59.93-7,2.22-12.32l1.34,12.92ZM171.53,81.49c1.58,0,4.28-5.43,3.25-6.42l-4.11-3.96,4.57-2.95c-3.49-4.92-7.82-4.38-12.05.21l7.72,9.08-6.09-.89c.83,3.09,3.22,4.92,6.69,4.92ZM214.15,67.19c-1.24-3.84-7.9-2.98-8.85.18-1.08,3.63-1.18,8.53.1,11.54,1.15,2.7,6.8,3.47,8.6,1.24.77-2.86,1.05-10.19.16-12.96ZM225.49,82.9c1.24-6.19,1.21-11.2.48-17.41l-8.69-.11c.02,6.29.35,12.6,1.25,16.94,1.52-7.31.95-10.6,3.95-15.92l3.01,16.5ZM62.17,89.87c-1.55-7.65-3.87-13.86-7.52-21.52-3.61,7.55-5.91,13.94-7.43,21.47,2.87-3.39,5.56-7.49,8.04-6.95,1.89.41,4.13,3.87,6.91,7Z"/>
  <path class="st10" d="M1130.67,33.29c3.55,0,6.82,8.1,8,11.1-.05-.52-1.35,3.06-1.35,4.31v43.35c0,1.06,1.31,4.59,1.35,4.12-2.32,5.06-4.93,8.59-8,11.1.65-.06-1.13-1.81-3.1-1.81h-205.8c-1.98,0-3.75,1.75-3.1,1.81-3.6,0-6.82-8.05-8-11.1.05.52,1.35-3.06,1.35-4.31v-43.35c0-1.06-1.31-4.59-1.35-4.12,1.61-4.03,5.07-11.1,8-11.1-.65.06,1.12,1.81,3.1,1.81h205.79c1.99,0,3.75-1.75,3.11-1.81ZM988.47,80.69l-4.75-18.74c-.31-1.22-2.32-3.26-3.1-3.16s-2.31,2.19-2.55,3.25l-4.54,19.8,8.34-4.61c2.1,2.82,4.11,4.55,6.6,3.47ZM1003.81,82.52c3.42-3.31.85-30.36-.61-23.37l-1.07,5.12c-1.69-6.28-9.02-6.89-12.81-3.8l.13,20.25c.39.65,3.72.92,3.75-.23s.43-4.92,1.16-5.45l7.82-5.66,1.63,13.15ZM1093.36,80.09l-.08-20.38-3.22-.69c-.55-.12-.33,3.66-.86,3.96l-5.9,3.36c-.87,2.26-1.27,11.15.39,13.59s8.4,1.73,9.67.15ZM961.52,69.67c-.83-3.07-4.27-6.77-5.88-7.32l3.05,7.38c.65,1.56-1.94,5.1-3.04,8.37,1.62-.11,6.61-5.63,5.86-8.43ZM1024.26,68.6c-.43,3.28-.12,9.18,1.5,11.15,1.81,2.21,7.07,2.08,8.53-.13.28-.42-1.26-2.25-1.57-2.62s-.14-.59.26-.91l2.43-1.93,4.31,7.54.16-13.72-3.25,2.31c-.36.25-1.22,2.27-1.35,1.75l-1.45-5.47c-.89-3.35-7.05-1.25-9.43.56-.46-.4-2.92-3.16-3.51-2.12l-3.01,5.36-.93-4.66c-.2-1-2.16-.7-4.04-.46l3.64,16.24c1.36.14,4.72-1.32,4.94-3.05.29-2.29.54-5.54.81-9.35-.57.13,1.33-.31,1.99-.46ZM1061.33,79.52c1.52,2.09,6.06,3.02,6.67-.26l.97-5.28c2.11.27,3.54,4,5.02,7.57l2.02-14.86,1.88,14.31c.38.23,3.36.71,3.41-.53l.19-4.82c.19-4.8-.38-10.58-3.09-10.93-4-.52-7.44-.23-6.39,5.55l-4.14-3.7c-1.98-1.77-4.6-2.42-6.43-.13-2.01,3.46-5.24-4.69-5.96-1.71l-1.36,5.63-2.22-5.01c-.5-1.13-3.47-.45-3.69.84l-.71,4.07c-.12.68-2.17-.08-2-.74l1.11-4.27c.06-.03-1.38.63-3.83,1.75l2.52,13.66c.14.74,3.16,1.4,3.33.67l1.3-5.37c.62,1.76,4.96,7.44,5.47,5.3l2.57-10.72c.83,3.63,1.79,6.83,3.35,8.98ZM1110.67,68.46l-1.46-3.02c-.39-.81-2.33,2.41-3.09,3.19-2.25-3.02-8.05-6.03-10.43-2.45-1.66,2.5-1.54,11.08-.11,13.79,1.07,2.03,6.57,2.23,7.74.35l7.35-11.86Z"/>
  <path class="st21" d="M1878.67,229.32v3.87c-79.16.41-915.26-.69-914.55-.17-4.32-3.21-14.11-2.03-19.63-.55-4.31,2-6.35,1.29-11.68,1.23-302.47-3.3-607.28,3.18-907.68-3.24l1853.55-1.14Z"/>
  <rect class="st21" x="967.76" y="1057.81" width="919.07" height="5.55"/>
  <rect class="st21" x="25.33" y="1058.73" width="916.16" height="5.55" transform="translate(-1.12 .51) rotate(-.06)"/>
  <path class="st2" d="M971.7,205.37l-33.36-.09c-2.08,0-5.04-4.05-5.04-6.98v-45.23c0-2.9,2.96-7.01,5.05-7.01h32.62c2.09,0,5.05,4.11,5.05,7v45.29c.01,2.22-2.47,6.03-4.32,7.02ZM959.47,171.86l-.56,3.58,4.77-6.5c1.35-1.84-3.18-7.29-4.41-8.12l-.33,5.19-14.61,1.34c.05,7.19,16.23-2.4,15.14,4.51ZM964.93,183.87c-5.72-4.07-8.97-1.71-14.99-1.85l.51-6.17-4.84,6.72c-1.34,1.86,3.24,6.98,4.47,7.98l.38-5.14,14.49-1.54Z"/>
  <rect class="st14" x="1896.99" y="245.93" width="4.35" height="795.23"/>
  <rect class="st14" x="953.33" y="255.21" width="2.67" height="785.96"/>
  <path class="st5" d="M300.17,320.52c-1.41.07-1.48,6.18-.35,6.25l5.07.34c1.24.08,2.78.25,4.61.51-2.59,4.4-6,5.65-10.13,5.11-3.44-.45-4.99-3.97-7.5-10.34l-2.62,8.18c-.64,1.99-4.51,1.94-6.36,1.98l-9.46.21-.14-35.31c.66-1.9,6.22-2.4,6.46-.08l.99,9.64c2.96.15,7-.24,8.06,1.56s1.74,6.03,2.56,9.93c2.6-6.72,4.83-11.85,9.26-11.86,6.35-.01,9.92,4.25,9.79,13.4l-10.25.48ZM286.97,317.61c.22-2.36-3.2-6.21-5.06-5.72-1.63.43-3.65,5.02-3.48,7.71.2,3.1,1.09,7.51,2.46,7.77,1.1.21,3.46-.23,4.49-.81s1.08-3.41,1.59-8.94Z"/>
  <polygon class="st4" points="892 33.29 890.34 35.14 549.66 35.14 548 33.29 892 33.29"/>
  <polygon class="st4" points="892 107.26 548 107.26 549.66 105.41 890.34 105.41 892 107.26"/>
  <path class="st5" d="M98.86,331.18c-.32.51-3.66,2.61-4.35,1.6l-3.74-5.41-2.97,4.83c-.84,1.36-5.09-.13-5.08-1.06,1.33-3.56,3.05-7.96,3.87-10.66s-2.48-8.33-3.97-11.71c.64-.77,3.67-2.39,4.35-1.5l3.56,4.63c7.97-12.13,6.29,2.7,14.1-10.48,1.15-1.94,5.38,4.52,4.84,6.97-1.7,7.82-2.98,14.82,1.22,23.19-.95,1.66-7.44,1.81-7.56-1.06l-.85-20.19c-3.82.73-5.44,1.95-6.54,4.72-.8,2.02-1.04,6.92-.13,8.92l3.25,7.19Z"/>
  <path class="st4" d="M521.33,33.29c.3-.31-1.46,1.84-1.85,1.84h-249.63c-.39,0-2.15-2.15-1.85-1.84h253.33Z"/>
  <path class="st4" d="M521.33,107.26h-253.33c-.3.31,1.46-1.84,1.85-1.84h249.63c.39,0,2.15,2.15,1.85,1.84Z"/>
  <path class="st19" d="M170.67,466.03l.26,12.39c-1.52.2-5,2.8-5.47,1.41l-1.62-4.83,6.19,1.69c-.94-7.02-.29-11.23-3.44-10.73,1.52-.84,2.71-.4,4.09.07Z"/>
  <path class="st19" d="M166.58,465.96l-2.75,9.03-3.8,4.25-1.9-3.63c-1.94,3.65-4.3,6.5-6.68,6.22-2.73-.33-4.34-3.96-5.56-8.39-1.16,6.89-5.59,8.68-12.38,7.21l-.26-21.88,6.58,1.13c3.73.64,5.73,5.9,5.89,11.53,1.15-2.66,3.54-6.55,5.74-7.18,1.99-.58,5.41,3.11,6.73,5.34.46-4.74.69-7.94,3.35-12.78l1.62,11.06,3.42-1.9ZM136.22,479.13c5.06-2.33,6.62-5.9,6.21-10.45-.36-3.97-3.08-6.3-6.43-6.7l.22,17.15Z"/>
  <path class="st18" d="M236.06,336.5c4.6.01,8.96.2,10.76-2.31-3.89-1.52-7.11-2.7-9.76-3.95-2.13-1-2.64-8.25-2.69-12.37-.05-4.87,3.3-10.56,6.64-10.54l10.67.08c-.21,10.17.84,20.71-.89,30-1.34,7.17-13.63,6.13-14.74-.92ZM246.01,312.91c-.39-1.5-4.45-1.15-4.92.3-1.38,4.24-2.18,8.84,0,13.4.64,1.34,4.32,1.8,4.84.36,1.25-3.43,1.05-10.34.07-14.06Z"/>
  <path class="st18" d="M497.39,336.5c4.6.02,8.96.24,10.75-2.34-3.74-1.43-7.21-2.64-9.75-3.91-2.1-1.05-2.65-8.23-2.68-12.36-.04-4.89,3.3-10.57,6.64-10.54l10.67.08c-.21,10.17.84,20.71-.89,30-1.34,7.17-13.63,6.13-14.74-.93ZM507.35,312.91c-.39-1.5-4.45-1.14-4.93.31-1.41,4.27-2.13,8.87.02,13.39.64,1.34,4.3,1.8,4.84.37,1.27-3.4,1.04-10.31.07-14.07Z"/>
  <path class="st0" d="M241.33,33.29l-224,1.85c-.25-.46.56-1.83,1.68-1.83l222.32-.02Z"/>
  <path class="st0" d="M241.33,107.26c-74.76-1.11-149.79,2.33-224-1.85l222.32.02c1.12,0,1.93,1.37,1.68,1.83Z"/>
  <path class="st19" d="M289.13,430.6l.84-2.32c.12-.35-.32-.65-.63-1.09-1.5-4.83,2.92-7.64,6.01-7.37,2.03.18,4.38,4.29,5.3,6.87,1.17-2.21,2.49-4.8,3.4-5.99.73-.95,3.53-.35,4.66-.15l8.19,1.47,5.75-2.13-3.17,7.36c-.64,1.48,1.19,4.29,2.44,7.84l-15.59,1.67c-1.84.2-5.09-3.52-5.62-5.17-1.68,2.69-4.38,5.32-6.64,5.43-2.66.13-4.85-2.82-4.93-6.43ZM312.78,423.78c-.55.47-2.02,2.33-2.76,1.92l-3.47-1.93c-.93-.51-2.13,3.32-2.43,4.61s.96,4.87,1.91,4.54l3.69-1.27,4.61-1.58c.94-.32-1.09-4.94-1.55-6.31Z"/>
  <path class="st4" d="M1130.67,33.29c.65.06-1.12,1.81-3.11,1.81h-205.79c-1.98,0-3.75-1.75-3.1-1.81h212Z"/>
  <path class="st4" d="M1130.67,107.26h-212c-.64-.06,1.12-1.81,3.1-1.81h205.8c1.97,0,3.74,1.76,3.1,1.81Z"/>
  <path class="st1" d="M553.43,421.71l-.57,14.17c-1.12-.19-2.71.12-5.22.63-2.9.6-5.78-1.85-7.13-5.36l-1.66,4.53c-.34.92-2.7.81-2.8-.25l-.6-6.76-1.88,8.04-9.88-2.22.71-8.98c.2-2.46,3.92-5.87,5.77-5.87s4,3.1,5.34,5.46l1.27-5.11c.25-1,2.75.12,2.93,1.15l.66,3.81c1.39-1.71,3.25-3.95,4.59-4.99,3.08-2.38,4.81,4.72,8.45,1.73ZM552.18,430.89c0-.65-.38-1.17-.85-1.17s-.85.53-.85,1.17.38,1.17.85,1.17.85-.53.85-1.17ZM528.52,431.54c.33.67,1.51,3.69,1.62,3.01l.5-2.89c.12-.67-2.39-.67-2.12-.12ZM544.49,431.64l1.52,3.06c.29.59,2.25-.47,2.06-1.17l-.7-2.67c-.17-.67-3.2.15-2.89.78Z"/>
  <path class="st3" d="M365.92,332.57c-5.69-.17-7.52-6.46-7.56-12.5-.05-7.86,2.53-12.65,8.47-13.01l3.11-.19c.88-.05.75-3.47.76-5.28l.02-4.81c0-1.23,2.5-.8,5.15-.89l.2,36.99-10.15-.31ZM369.88,312.95c-.6-1.35-3.98-.93-4.63.37-2.15,4.25-1.83,9.16.02,13.31.6,1.34,4.03,1.78,4.57.39,1.25-3.19,1.36-11.12.04-14.07Z"/>
  <path class="st24" d="M840.33,184.35l-1.76-12.11-1.74,12.51-7.48-.76.25-11.71c8.55-1.51,24.38-4.01,28.63,1.03.88,1.05,1.12,8.76,0,9.24l-5.25,2.27-12.65-.47Z"/>
  <path class="st3" d="M136.95,330.81c-.01,1.49-4.12,2.34-4.73,1.73l-.56-21.01c-6.77,1.32-4.93,7.86-4.95,14.03l-.02,6.41c0,1.63-4.8,1.07-4.81-.57l-.19-33.15c0-1.53,4.17-2.8,4.67-2.24l.61,10.87c2.25-.09,9.49.69,9.7,4.13.31,5.07.32,15.27.28,19.82Z"/>
  <path class="st5" d="M261.63,326.33c1.15,5.11,9.35-3.6,9.25.44-.03,1.12-.66,4.43-1.45,4.94-3.68,2.36-13.18,1.6-14.35-5.69-1.52-9.49-.18-16.84,5.65-18.63,5.52-1.69,11.23.56,11.66,12.2l-11.99,1.28,1.23,5.46Z"/>
  <path class="st5" d="M522.97,326.33c1.15,5.11,9.32-3.59,9.25.44-.02,1.12-.65,4.43-1.45,4.94-3.68,2.36-13.18,1.6-14.35-5.69-1.52-9.49-.18-16.84,5.65-18.63,5.52-1.7,11.23.57,11.66,12.19l-11.98,1.29,1.23,5.46Z"/>
  <path class="st5" d="M195.15,325.49c3.51,5.98,9.17-3.35,9.08,1.24-.18,9.4-11.37,5.57-11.7,5.32-5.83-4.43-6.63-18.08-.76-23.68,3.44-3.28,10.4-.81,12.42,2.99.73,1.37,1.26,5.96.9,7.32-.45,1.7-2.86,1.4-5.07,1.65l-4.77.54c-.9.1-.64,3.68-.09,4.62Z"/>
  <path class="st5" d="M385.63,326.33c1.15,5.11,9.38-3.61,9.26.44-.04,1.12-.66,4.42-1.46,4.94-3.67,2.37-13.18,1.6-14.35-5.69-1.52-9.5-.18-16.84,5.65-18.63,5.52-1.7,11.23.57,11.66,12.19l-11.98,1.29,1.23,5.46Z"/>
  <path class="st5" d="M156.08,320.57c-1.35.08-1.35,6.01-.27,6.23,1.58.32,4.29.49,5.77.26l2.33-.36c.4-.06,1.78,1.28,1.47,1.62-.47.52-1.83,2.03-2.4,2.48-5.32,4.23-12.16,2.09-14.14-5.5-1.78-6.8.22-16.21,5.39-17.99,6.67-2.29,12.62,2.18,12.13,12.67l-10.29.58Z"/>
  <path class="st5" d="M425.47,320.57c-1.4.08-1.4,6-.3,6.24,1.45.31,4.3.48,5.75.25l2.33-.36c.4-.06,1.78,1.28,1.47,1.62-.47.52-1.84,2.05-2.38,2.48-5.36,4.23-12.16,2.1-14.15-5.49-1.78-6.79.21-16.2,5.39-17.99,6.66-2.29,12.63,2.18,12.14,12.68l-10.25.57Z"/>
  <path class="st5" d="M72.08,320.57c-1.35.08-1.37,6.01-.27,6.23,1.64.33,4.26.49,5.78.26l2.33-.36c.4-.06,1.78,1.27,1.47,1.62-.47.52-1.83,2.04-2.39,2.48-5.34,4.22-12.16,2.09-14.15-5.5-1.78-6.79.21-16.2,5.39-17.99,6.67-2.29,12.62,2.18,12.13,12.67l-10.29.58Z"/>
  <path class="st5" d="M457.23,316.91c-.04-1.43-1.13-4.13-1.67-4.94s-3.41,1.41-3.43,2.61l-.19,18.06-6.61.21v-25.8s13.81.62,13.81.62c3.54.16,4.04,12.82,3.6,17.55l-.57,6.16c-.14,1.54-3.66,1.44-4.51.72l-.44-15.19Z"/>
  <path class="st18" d="M357.62,321.91c-.18,7.68-4.56,10.6-8.98,11.06s-8.75-2.75-9.71-8.77c-1.04-6.49-.01-14.48,5.43-16.32,3.01-1.02,7.36-1.18,9.64.73,2.59,2.17,3.75,8.07,3.63,13.3ZM352.32,318.74c.31-2.84-3.38-8.19-4.83-7.01-4.26,3.45-4.31,12.19-2.18,14.92,1.05,1.34,4.54,1.62,5.41.08.69-1.22,1.29-5.02,1.61-7.99Z"/>
  <path class="st3" d="M545.48,330.62l-.25-18.44c-6.37-.71-5.43,6.88-5.63,13.37l-.18,6.01c-.05,1.56-3.54,1.28-4.67.88l-.13-25.57,15.89.58.08,23.8c0,1.97-5.08,1.23-5.11-.63Z"/>
  <path class="st3" d="M226.82,330.62l-.25-18.44c-6.37-.71-5.43,6.88-5.63,13.37l-.19,6.02c-.05,1.55-3.54,1.27-4.67.87l-.13-25.57,15.89.58.08,23.8c0,1.97-5.08,1.23-5.11-.63Z"/>
  <path class="st3" d="M322.94,331.53l-.61-19.73c-7.05.81-4.5,7.63-4.96,13.8l-.55,7.24c-.11,1.51-4.3-.82-4.33-2.34l-.41-22.91c4.35-1.2,10.34-1.11,15.5,2.06l.04,21.23c0,1.71-4.63,2.36-4.68.64Z"/>
  <path class="st18" d="M493.21,307.03l.13,25.48-14.41-.21c-2.47-3.88-1.87-25.39-.99-25.27l3.67.51c2.02.28-1.75,19.51,4.59,20.87,1.4-2.92,1.81-9.05,2-14l.23-5.91c.04-1.16,2.29-1.2,4.78-1.46Z"/>
  <path class="st24" d="M806.67,184.93l-.14-4.37c-.03-.99-1.79-1.11-2.52-1.18v-3.7l3.46-.11-.8-10.98,4.91,7.22-.6,7.49c.73-1.63,2.62-7.82,4.35-8.55,2.96-1.25,9.24.82,13.2,1.8l-.94,11.62-20.91.77Z"/>
  <path class="st1" d="M647.03,435.89l-.26-8.54,4.37-8.49.25,9.32,4.61-7.43c.85-1.36,4.62.4,5.94.46l8.23-.2c-3.16,5.46-3.8,7.4-3.51,14.96l-12.15.3-2.78-8.12-1.83,7.83c-.24,1.02-2.1-.11-2.87-.09ZM660,431.82c0-.51-.3-.92-.67-.92s-.67.41-.67.92.3.92.67.92.67-.41.67-.92ZM664,431.82c0-.51-.3-.92-.67-.92s-.67.41-.67.92.3.92.67.92.67-.41.67-.92Z"/>
  <path class="st3" d="M57.23,331.2c0,1.42-4.51,1.6-4.66.56l-.45-28.18c-3.97-1.22-6.53.47-8.94-5.38l18.92-.61c.4-.01,2.42,1.34,2.81,1.56.58.34-.5,2.77-1.09,2.92l-6.44,1.63-.15,27.49Z"/>
  <path class="st17" d="M132.46,425.23c2.46,2.59,2.14-1.35,3.39.87-.04-.07-1.19,1.29-1.99,2.21l3.47,2.58c-.47.23-1.37.47-1.21.85l1.21,2.85-2.67,1.85c-1.44-.12-2.69-5.17-3.46-6.95-.55,3.46-1.27,8.05-2.11,7.22l-3.24-3.22c-3.18,3.17-10.05,6.87-12.81-1.83-1.5-4.16,11.73,6.03,9.79.06-2.37-7.26-6.35-3.01-9.15-8.89-1.09-2.29,2.85-7.81,4.82-8.15,3.94-.69,11.68,7.49,11.52,6.77l1.26,5.78,1.17-1.99ZM126.35,428.61c.12-3.57.33-6.01-.42-6.49l-2.59-1.66-3.92-2.51c-.63-.4-1.89,2.98-2.07,3.62l9,7.03Z"/>
  <path class="st19" d="M238.06,421.21l-2.85,15.05c.05.07-1.45-1.76-2.36-2.86-2.18,2.47-6.94,4.63-9.84,2.4l-2.21-12.23c-1.42,5.51-2.27,8.73-4.61,14.74l-4.12-10.94-4.36,10.96c-3.75-9.06-4.65-14.97-5.06-24.59,3.73,1.08,3.59,4.33,4.87,10.46l4.25-10.84,4.29,9.85,3.36-9.22,2.55,8.91c.27-.41,3.51-2.47,4.84-2.39l11.27.68ZM229.97,432.85c.52-2.56-.29-8.12-1.35-9s-4.49.77-4.52,2.56c-.04,2.21.34,5.29,1.01,6.81.54,1.21,4.58,1,4.86-.36Z"/>
  <path class="st19" d="M427.62,428.93l-2.95-7.04c.27-.71-.96,2.93-1.39,2.42l-2.34-2.86-1.58,6.94,4.64,2.5-2.67,1.85-1.49,2.09c-1.09-1.43-2.16-4.33-3.27-7.45l-2.7,9.76-4.65-5.3-4.32,5.86-2.87-10.43-2.31,5.68-1.07-1.18-1.63-8.42,1.01-1.46c1.29.8,3.75-.09,6.04-1.17l1.94,5.96,2.57-6.88c.42-1.13,2.74,2.17,3.06,3.35l1.09,4.03,1.66-6.25c.3-1.13,2.56,1.24,3.39,1.65,1.58-.84,5.16-3.86,6.49-2.46l4.28,4.51c.87-1.53,3.26-4.09,4.12-3.8,1.28,4.98,1.05,12.38-1.57,16.95l-3.49-8.85Z"/>
  <path class="st1" d="M74.19,435.7l-9.08.78c-1.39.12-2.75-5.87-3.11-7.32-.76,2.74-1.32,6.9-2.7,6.99l-4.63.29-.13-1.96c5.71,1.67,1.05-14.64,3.39-14.47.88.07,3.29-.41,3.36.73l.4,6.3c1.25-2.29,3.04-5.68,4.5-6.75s5.23,1.27,6.38,1.91l2.09-7.96c.13,7.14-.04,14.32-.48,21.45ZM69.33,431.82c0-.51-.3-.92-.67-.92s-.67.41-.67.92.3.92.67.92.67-.41.67-.92ZM73.33,431.82c0-.51-.3-.92-.67-.92s-.67.41-.67.92.3.92.67.92.67-.41.67-.92Z"/>
  <path class="st3" d="M476.15,309.4c-5.42,3.83-4.4,4.59-4.67,17.78l-.09,4.44c-.02,1.11-1.99,1.01-4.45,1.27l-.5-19.37c-.02-.83-2.19-3.62-1.93-4.42l1.55-4.81c1.01-3.13,2.5-7.4,4.23-8.3s6.57,1,7.24,2.49l-6.05,6.65,2.57,1.79c.58.4,2.68,2.06,2.11,2.47Z"/>
  <path class="st25" d="M1027.81,184.66l.19-12.68c3.41-1.12,6.81-1.46,10.64-.94l2.56-6.94c1.87,5.91,2.65,14.13.29,19.57-1.77,4.08-8.7,6.33-11.64,5.63-.18-.76.85-5.47.22-5.29l-2.25.64Z"/>
  <path class="st25" d="M732,170.14c1.04,4.65,1.03,10.16,0,14.81-.96.88-2.3,2.75-3.48,4.61-.51.8-2.73,1.17-2.97.13l-1.04-4.48-5.27-6.53c-1.42-1.76-3.84-3.81-4.61-5.47-.65-1.38-.06-4.59.9-5.57,4.95-5.06,6.93,2.26,16.48,2.48ZM725.62,172.68l-6.72-2.6c-.08.92-.14,3.48.39,3.68l3.15,1.17c1.32,4.27,2.61,3.47,3.19-2.25Z"/>
  <path class="st19" d="M202.87,466.16c.12,1.13-.22,2.51-1.01,5.04-.38,1.24,1.05,2.67,2.14,3.81v2.11c-.81-.61-2.7-2.05-2.63-.98l.27,4.25c-2.21.16-5.48,1.08-5.51-.54l-.15-6.52c-.02-.97-.82-3.69-1.18-4.56s-2.09.07-2.2,1.06l-.44,3.81c-.33,2.86-.57,4.35-1.85,9.31l-3.93-15.93-1.16,11.59c.32.07-.91,1.14-3.48,3.18l.02-16.99,14.77-.42c.93,2.96,2.69,6.62,3.54,5.5l2.8-3.72Z"/>
  <path class="st26" d="M1057.33,181.23l-1.33-1.85c-1.29.1-3.36-.52-4-1.85.38-.49,1.05-1.32,1.33-1.85l2.11-3.94c.42-.78,1.17-.19,2.92.83l8.09-3.3c1.11-.47,2.72-4.16,3.85-3.9,1.54.36,3.47,3.93,3.31,5.85l-1.01,11.99c-6.03,2.03-11.45,3.31-15.27-1.98ZM1068.04,177.27l-4.77-3.53c.02-.27-.49,4.69-.67,6.4-.38,3.64,6.01-2.44,5.44-2.87Z"/>
  <path class="st14" d="M1895.74,218.75c6.79-23.76-.54-57.1,4.75-78.04l.91,79.33-5.66-1.29Z"/>
  <path class="st17" d="M256.99,428.94l-4.16.34c-.83.07-.7,4.2-1.19,5.5-1.14,3.09-7.88,2.47-9.6-.05s-2.63-10.89-1.25-12.66c3.89-1.34,6.1-2.84,9.72-7.26-.09-1,1.19,3.43,1.33,4.92l.42,4.49c.11,1.2,2.11,1.51,3.55,1.93l2.52.74c.45.13-.89,2.01-1.34,2.05Z"/>
  <path class="st16" d="M1112.03,173.84h2.63c4.6-3.79,11.55-5.18,14.78-.8,1.62,2.2,1.5,10.59.66,11.73l-10.74-.29c-.9-.47-3.08-3.72-3.81-2.95l-3.45,3.6-.07-11.29Z"/>
  <path class="st23" d="M1146.67,170.14v1.85l-1.33,7.4,2.67,5.55-14.45-.68-.91-13.14,4.75.02c.76,0-1.25-3.05-1.94-3.45l-2.84-1.65c14.12-5.83,6.36,3.98,14.06,4.1Z"/>
  <path class="st1" d="M386.66,477.34l-.09-8.14c1.4-2.07,4.38-4.58,6.43-5.19,1.65-.49,4.19,3.55,5.07,5.47l1.72-4.01c.32-.75,2.84-.04,2.83.82l-.16,13.99c-.01,1.19-3.56.61-3.69-.6l-.74-6.84-2.14,6.89c-.99,3.2-7.24-.34-9.24-2.41ZM391.24,475.8c.35.68,1.5,3.82,1.52,3.12s1.1-2.78.59-2.85-2.4-.82-2.12-.27Z"/>
  <path class="st1" d="M253.33,477.34l-.09-8.14c1.47-2.13,4.25-4.48,6.46-5.19,1.63-.52,4.15,3.56,5.04,5.48l1.72-4.02c.32-.74,2.84-.03,2.83.83l-.17,13.99c-.01,1.19-3.55.6-3.68-.57l-.74-6.82-2.14,6.85c-1.01,3.23-7.24-.33-9.23-2.41ZM257.81,475.78c.55,1.21,1.52,3.81,1.65,3.14l.52-2.85c.12-.67-2.45-.89-2.17-.28Z"/>
  <path class="st24" d="M745.33,170.14c.2,1.67.99,3.39,1.78,3.11l3.56-1.26h1.33l2.17,5.11c.62,1.46-1.78,4.46-2.17,5.98-2.74,1.57-7.6,2.47-10.61.39.51-5.71,1.28-6.95-.2-11.11l-1.61,12.33c-1.95-1.83-3.57-3.41-4.44-2.61l-3.14,2.87c1.03-4.65,1.04-10.16,0-14.81,1.37.03,3.03,3.77,3.68,5.29,2.96-1.89,7.15-4.38,9.66-5.29Z"/>
  <path class="st17" d="M789.11,431.64l-.74,4.31c-.12.72-2.53,1.21-2.58.47l-.36-5.75c-.19-3.05-.99-6.84-1.62-8.1-2.21,7.32.52,11.14-4.74,15.19l-.53-17.75,16.35.38c1.48,3.91,1.65,11.35-.04,17.61-3-5.32-2.45-7.7-4.2-15.47l-1.55,9.13Z"/>
  <path class="st11" d="M312.06,466.8l.12,1.35c-2.42.55-4.65,5.65-5.14,8.62l3.65,1.15c.43.14-1.71,2.13-2.15,2.15l-11.62.54-1.39-12.84-2.4,5.59c-1.27-3.02-1.96-5.51-1.33-8.9,1.73-.1,5.07-2.52,6.51-3.15,2.47,1.44,5.61,3.11,8.18,3.86l5.59,1.62ZM306.25,468.92c-1.7-1.05-6.18-1.78-6.2-.17l-.15,9.38c2.85.6,7.9-5.88,6.35-9.21Z"/>
  <path class="st11" d="M445.4,466.8l.12,1.35c-2.42.55-4.65,5.65-5.14,8.62l3.65,1.16c.43.14-1.7,2.14-2.14,2.16l-11.62.51-1.42-12.8-2.4,5.57c-1.24-2.93-1.97-5.58-1.33-8.9,1.73-.1,5.06-2.51,6.52-3.15,2.41,1.42,5.62,3.12,8.17,3.86l5.59,1.62ZM439.58,468.91c-1.69-1.05-6.17-1.79-6.2-.13l-.15,9.34c2.85.61,7.9-5.87,6.35-9.21Z"/>
  <path class="st19" d="M120.19,470.75c.16,4.18-1.3,11.22-3.27,10.15l-2.24-14.26c-2.64,7.53.42,11.26-4.95,15.58l-.51-17.82,16.46.33c1.19,3.95,1.23,11.38.29,17.28-3.36-3.26-2.99-6.08-3.62-10.44l-.59-4.04c-.11-.77-1.49,2.37-1.56,3.2Z"/>
  <path class="st19" d="M611.18,422.95l-1.18,15.88c-2.31-4.76-3.04-8.79-4.23-15.48l-.75,10.86-10.2,8.44-.21-22.9,10.25,1.88,4.24-5.79c4.64,6.44,9.26,8.55,14.83,3.77l-3.22,7.58c-.69,1.62.97,4.28,1.99,8.97l-4.52-2.23-5.98,2.64,3.27-7.47c.82-1.88-2.63-5.27-4.28-6.15Z"/>
  <path class="st25" d="M1148,184.93l-2.67-5.55c.82.11,3.41-1.4,3-2.59l-1.67-4.81v-1.85c5.2.08,10.17.91,15.9,2.43l-.14,10.72c-5.06.95-9.71,1.51-14.42,1.65Z"/>
  <path class="st11" d="M220.19,482.85l-2.99-16.69-4.56,16.16-.87-18.18,11.14.82,3.58-3.56c.82-.81,2.22,3.43,2.14,4.76l-.91,15.23c-4.49-1.51-3.55-7.55-4.21-13.51-.81,5.19-.68,7.58-3.31,14.98Z"/>
  <path class="st17" d="M289.33,427.19c.31.45.76.75.63,1.09l-.84,2.32c-.83,3.94-3.03,6.63-5.77,6.45-3.13-.21-5.86-2.07-6.89-6.12-.69-2.72.94-8.53,2.81-9.74,3.11-2,4.95-3.99,7.56-7.08l2.48,13.07Z"/>
  <path class="st17" d="M720,436.44l-.06-14.73c5.86-1.7,12.8-3.01,17.57-.48s2.86,15-.8,15.4l-2.15-14.98-4.5,15.82-.69-10.69-3.68-3.84c-2.8-2.93-.62,11.81-2.85,12.55l-2.85.95Z"/>
  <path class="st17" d="M450.67,423.49c.46,2.22.17,6.76.07,9.2l-1.95-6.81-6.26,4.24-4.8,7.91-.5-22.7c2.45-.2,6.42-.27,8.85.1,1.97.3,4.02,5.28,4.6,8.07Z"/>
  <path class="st17" d="M390.91,423.65l.13,9.04-2.29-6.78-6.21,4.21-4.82,7.91-.48-22.61c2.33-.37,6.48-.56,8.93.09,1.96.52,3.42,5.35,4.74,8.15Z"/>
  <path class="st3" d="M511.04,420.57l-2,2.86c-7.01,3.45-3.72,17.79-16.68,11.77-.47-2.22-.45-5.96-1.33-6.01l-5.13-.31c.02.17-.18-1.61-.36-3.2l5.81-.11c1.47-.03.48-7.84,1.18-9.36,3.48-3.26,11.32-.02,12.69,7.01l5.82-2.67ZM494.75,434.74c4.19-.77,6.83-3.99,6.8-8.35-.05-6.71-1.55-10.09-6.92-8.21l.13,16.56Z"/>
  <path class="st1" d="M342.86,420.43l9.27.67-4.01,14.85-12.05.74-.07-17,3.36,2.06c.7.43.36,3.8.38,5.32l.06,4.81c.01.91,2.19.84,2.64.55l.41-12.02Z"/>
  <path class="st26" d="M752,183.08c.39-1.52,2.79-4.52,2.17-5.98l-2.17-5.11,8.36-2.74c.69-.23,1.57-4.1,2.25-3.87l3.77,1.27-.2,17.61c-6.31.42-10.34.31-14.19-1.16ZM761.89,176.88l-5.83-3.1.44,7.33c.08,1.27,2.74-1.59,5.39-4.23Z"/>
  <path class="st19" d="M592.84,433.57l-9.91,9.32-.37-23.06,8.76,1.08c1.95.24,3.18,11.1,1.52,12.66Z"/>
  <path class="st19" d="M88.95,473.32l-2.95-7.04c.28-.74-.96,2.92-1.38,2.4l-2.35-2.9-1.59,7,4.65,2.5c-.07,0-2.79.07-2.52.75l1.18,2.95-1.33,1.93c-6.18-8.02-6.31,7.72-14.96-3.07l3.93-3.13c-1.41-2.49-2.36-4.18-2.92-5.46s2.39-5.22,3.44-4.8l6.53,2.62c1.44.58,4.68-4.08,5.96-2.99s3.38,3.13,5.5,5.18l1.66-3.82c.32-.74,2.57.17,2.72,1,.64,3.55.15,12.91-2.11,15.3l-3.47-8.4ZM73.33,468.8c0-.51-.3-.92-.67-.92s-.67.41-.67.92.3.92.67.92.67-.41.67-.92ZM78.85,471.58c0-.65-.38-1.17-.85-1.17s-.85.53-.85,1.17.38,1.17.85,1.17.85-.53.85-1.17ZM74.85,477.12c0-.65-.38-1.17-.85-1.17s-.85.53-.85,1.17.38,1.17.85,1.17.85-.53.85-1.17Z"/>
  <path class="st17" d="M155.18,429.54l-5.52,8.52-.41-23.03,9.66.65c1.57.11,3.09,6.65,2.47,8.67s-2.83,3.39-6.2,5.19Z"/>
  <path class="st16" d="M776.92,184.48l-8.88-.51.05-10.76,6.83-2.44c1.44-.51,5.19-1.03,6.22.16s1.01,4.66.98,7.14l-.39,5.19c-.09,1.22-3.76,1.27-4.81,1.21Z"/>
  <path class="st25" d="M801.43,173.07l-.91,10.36c-3.52-2.42-11.18,5.03-13.19-.13-.94-2.41-.93-9.14.02-11.54,2.74-6.89,11.89,5.1,14.08,1.3ZM798.82,179.43c0-1.16-.68-2.09-1.51-2.09s-1.51.94-1.51,2.09.68,2.09,1.51,2.09,1.51-.94,1.51-2.09Z"/>
  <path class="st1" d="M376,480.82h-12.03s.19-17.03.19-17.03c2.79,1.69,3.64,3.81,3.81,7.26l.32,6.34c.04.84,2.39-.46,2.39-1.3v-4.66c0-1.46-.4-6.09.53-6.13l2.83-.12,1.96-6.53c-.72,3.76.07,8.2,3.11,10.09-2.97,1.59-3.74,6.53-3.11,12.1Z"/>
  <path class="st1" d="M242.67,480.82h-12.03s.2-17.05.2-17.05c2.75,1.78,3.64,3.91,3.8,7.23l.32,6.4c.04.82,2.38-.5,2.38-1.33v-4.63c0-1.55-.4-6.08.53-6.14l2.84-.17,1.96-6.51c-.75,3.72.21,8.23,3.06,10.07-2.82,1.67-3.69,6.52-3.06,12.12Z"/>
  <path class="st8" d="M386.57,469.2l.09,8.14c-3.07,3.37-6.67,3.48-10.66,3.48-.62-5.57.14-10.52,3.11-12.1-3.04-1.88-3.83-6.33-3.11-10.09.45-1.5,2.83,3.32,3.84,4.14,2.08,1.7,5.34,4.26,6.73,6.43Z"/>
  <path class="st8" d="M253.23,469.2l.09,8.14c-3.06,3.38-6.67,3.48-10.66,3.48-.64-5.6.24-10.45,3.06-12.12-2.85-1.85-3.81-6.35-3.06-10.07.45-1.49,2.88,3.37,3.86,4.17,1.91,1.55,5.39,4.3,6.7,6.4Z"/>
  <path class="st1" d="M173.64,315.12l-.56,17.44c-.61.7-4.56-.3-4.59-2.09l-.37-23.6,11.02,1.25c-1.86,2.99-3.02,4.25-5.5,7Z"/>
  <path class="st1" d="M403.79,314.34c-3.32,3.45-.23,17.92-2.14,18.03l-4.27.24-.05-25.93,11.37,1.49c-1.25,2.21-3.06,4.26-4.9,6.17Z"/>
  <path class="st13" d="M368.79,436.37c-3.1.42-7.65,0-8.94-1.99s-1.5-7.88-.75-10.73c1.56-5.93,3.74,1.33,7.8-8.43.24-.57.99-.72,1.2-.18.33.86.83,3.46.82,4.44l-.14,16.88Z"/>
  <path class="st19" d="M801.98,427.98c.04-4.77.05-5.73.01-1.2-.81,4.89-.68,7.56-4.09,10.99l-.82-16.52,7.74-4.53,4.18,3.78c-1.13,2.64-2.52,5.81-2.6,7.65-.09,2.21,1.43,5.41,2.66,8.2-1.39-.13-3.87-.4-5.01-.61s-1.41-4.48-2.1-7.77Z"/>
  <path class="st3" d="M84.27,436.03c-.22-2.23-.63-6.65-.21-8.67,1.08-2.66,3.38-6.12,5.18-6.93,1.58-.71,6.12,1.2,6.72,2.56l-.85,12.89-10.84.14ZM89.86,431.39c.39.8,1.83,3.77,1.57,3.17s1.12-2.8.61-2.88-2.45-.83-2.18-.29Z"/>
  <path class="st18" d="M678.27,428.08c-.07-5.7-1.37-6.59-1.9-1.53-.32,4.83-.6,7.63-3.43,11.42l-1.44-11.05c-.43-3.28.31-10.51,1.07-13.29l8.61,9.03c2.14,2.25,2.02,10.57.42,14.5-2.06-1.46-3.06-5.34-3.33-9.07Z"/>
  <path class="st1" d="M771.52,435.82c-4.33,1.98-8.56.03-11.95-5.04.86-6.78,5.43-13.27,11.05-9.9,2.43,1.46,2,8.78.89,14.94ZM765.83,431.16c.71,1.66,1.63,4.06,1.57,3.36s1.13-2.69.63-2.82-2.45-1.13-2.2-.54Z"/>
  <path class="st19" d="M162.99,437.08l-.45-22.96,8.6,2.4c2.93.82,4.48,9.07,3.56,13.48-.98,4.69-4.11,5.99-11.71,7.09ZM165.56,434.98c5.31-1.7,6.77-5.96,6.39-10.69-.32-3.92-3.24-6.64-6.6-6.68l.21,17.37Z"/>
  <path class="st1" d="M450.73,432.69c.11-2.43.39-6.98-.07-9.2.69-3.62,4.83-4.41,7.26-2.71,1.52,1.07,2.84,2.51,3.55,2l3.46-2.45-1.32,14.52c-3.69,2.11-11.08,4.15-12.89-2.17ZM453.29,424.05c-1.23,1.15-1.24,6.56-.2,8.02s3.52,2.82,3.95,1.25c.68-2.41,1.39-5.43,1.58-7.13s-4.31-3.1-5.33-2.15Z"/>
  <path class="st23" d="M1114.67,173.84h-2.63c-1.36,2.04-1.72,6.8-1.76,10.58l-2.64-.79c-.44-.13-1.62.68-1.84.79l-1.13-10.29-.81,9.67c-.13,1.51-2.51,1.21-3.84,1.13-.03-4.49-.43-9.11-1.33-13.28,5.04-2.5,11.75-2.55,16,2.18Z"/>
  <path class="st3" d="M312.19,468.15l-.12-1.35c3.1-1.91,6.77-2.29,10.24-.2l-.36,13.46c-1.99,1.38-7.37.99-8.71-1.6-1.13-2.19-1.31-7.41-1.05-10.31ZM316.52,475.88c.4.86,1.5,3.71,1.62,3.05l.51-2.88c.12-.68-2.42-.8-2.12-.17Z"/>
  <path class="st3" d="M445.52,468.15l-.12-1.35c3.06-2.03,8.35-2.28,10.57-.03l-.88,13.35c-1.93,1.16-7.19.93-8.53-1.68-1.12-2.18-1.29-7.47-1.03-10.29ZM449.82,475.51c.77,1.79,1.7,4.08,1.57,3.41s1.13-2.69.64-2.82-2.47-1.18-2.21-.58Z"/>
  <path class="st11" d="M485.54,425.69l-1.56,10.91c-2.84.34-4.35-3.83-4.21-7.04l.22-5.08c.04-.82-2.03-.93-2.03-.81l-.43,11.38-4.27-12.92c3.73-1.1,5.49-2.39,10.25-6.58l2.02,10.15Z"/>
  <path class="st3" d="M107.58,467.61l-.41,11.99c-1.73,2.07-7.43,2.01-8.84-.71s-1.28-9.87.58-12.6c1.66-2.45,8.78-2.04,8.67,1.32ZM101.86,475.92c.34.7,1.5,3.69,1.63,2.95l.49-2.83c.12-.68-2.4-.71-2.12-.12Z"/>
  <path class="st19" d="M417.32,470.02l.21,5.25c-1.65,2.43-3.39,5.02-5.1,5.81-2,.92-6.53-1.11-7.03-3.24l3.4-2.83c.52-.43-.62-1.87-1.14-2.37l-2.21-2.14c-.46-3.67,5.68-8.23,8-5.32l3.86,4.84ZM411.51,468.8c0-.65-.38-1.17-.85-1.17s-.85.53-.85,1.17.38,1.17.85,1.17.85-.53.85-1.17ZM416,472.5c0-.51-.3-.92-.67-.92s-.67.41-.67.92.3.92.67.92.67-.41.67-.92ZM412.18,477.12c0-.65-.38-1.17-.85-1.17s-.85.53-.85,1.17.38,1.17.85,1.17.85-.53.85-1.17Z"/>
  <path class="st19" d="M283.98,470.02l.21,5.25c-1.6,2.39-3.42,5.11-5.13,5.83-1.92.81-6.32-1.36-7.18-3.06l3.55-3.02c.53-.45-.59-1.9-1.1-2.38l-2.22-2.14c-.46-3.68,5.68-8.23,8-5.32l3.86,4.84ZM278.18,468.8c0-.65-.38-1.17-.85-1.17s-.85.53-.85,1.17.38,1.17.85,1.17.85-.53.85-1.17ZM282.67,472.5c0-.51-.3-.92-.67-.92s-.67.41-.67.92.3.92.67.92.67-.41.67-.92ZM278.85,477.12c0-.65-.38-1.17-.85-1.17s-.85.53-.85,1.17.38,1.17.85,1.17.85-.53.85-1.17Z"/>
  <path class="st11" d="M696.76,435.97c-1.48-.75-.21-16.64-2.31-12.81-.49.89-1.68,3.32-1.91,4.36l-2.16,9.87c-1.17-4.51-1.32-11.73-.68-15.54.42-2.5,6.07-2.15,7.67-.88,1.83,1.45,2.49,6.53,3.27,10.88l2.51,1.43c.71.41.86,2.93.85,4.12,0,1.08-2.84.82-3.56.45l-3.69-1.87Z"/>
  <path class="st25" d="M1098.67,171.65c.9,4.17,1.3,8.79,1.33,13.28l-9.94-.63c-.03-4.08.43-10.12,1.44-13.16.76-2.3,6.09-.57,7.17.51Z"/>
  <path class="st1" d="M346.33,479.22l-.02-1.65.77-13.88c2.73,1.78,3.41,5,3.83,9.5l.47,4.95c.07.68,1.53-.23,1.58-.91l.3-4.09c.27-3.61.17-5.75,3.36-9.6l.49,16.89c-4.07.3-7.64-.06-10.79-1.21Z"/>
  <path class="st19" d="M750.35,436.61l-3.63-.86c-.7-.17-1.5-2.65-.88-3.1l3.26-2.33-3.79-4.22c-.89-.98,2.14-5.08,3.23-5.52s4.49-.21,5.53.53c1.25.89,1.44,4.33,1.44,7.15l.02,6.58c0,1.48-4.1,2.02-5.18,1.77ZM751.51,424.42c0-.65-.38-1.17-.85-1.17s-.85.53-.85,1.17.38,1.17.85,1.17.85-.53.85-1.17ZM752.18,432.74c0-.65-.38-1.17-.85-1.17s-.85.53-.85,1.17.38,1.17.85,1.17.85-.53.85-1.17Z"/>
  <path class="st18" d="M49.22,430.54l-1.25,1.44c-.36.42.25,2.54.72,2.5s1.5-.17,1.97-.15l3.87.15.13,1.96c-2.63.16-7.64-.16-11.38-.47l8.52-17.2-8.1-2.27c4.68-1.36,7.14-1.3,13.19-.48-3.01,6.3-4.98,10.08-7.68,14.52Z"/>
  <path class="st1" d="M291.79,464.47c-.63,3.39.07,5.88,1.33,8.9l.25,6.1c.1,2.39-8.52,2.01-8.83-.35-.13-1.01-.31-2.81-.35-3.84l-.21-5.25c-.07-1.72,1.32-5.16,2.57-5.24l5.23-.31ZM287.21,476.08l1.51,3.06c.29.59,2.04-.52,2.01-1.24s-.33-2.15-.72-2.63-3.1.2-2.8.81Z"/>
  <path class="st1" d="M425.12,464.47c-.64,3.32.09,5.96,1.33,8.9l.25,6.1c.1,2.39-8.53,2-8.83-.36-.13-1.02-.3-2.81-.35-3.84l-.21-5.25c-.07-1.72,1.31-5.16,2.58-5.24l5.22-.31ZM420.51,476.15l1.53,2.94c.3.58,2.2-.45,2.04-1.12l-.69-2.76c-.17-.68-3.18.35-2.87.94Z"/>
  <path class="st26" d="M1190.9,170.04c.7,1.91.5,5.78.52,5.4l-5.47-1.66c-1.02-.31-.56,5.23-.5,6.68.13,3.13,6.34-2.74,6.39-.07l.06,3.39c-4.72,1.93-11.16,1.08-14.8-3.04l5.55-3.71-4.06-5.56,12.31-1.43Z"/>
  <path class="st17" d="M63.43,470.38c-.11-.69-1.28-3.44-1.58-2.88-.46.84-1.36,2.91-1.54,4.19l-1.5,10.62c-2.3-5.33-2.81-11.19-2.01-15.6.54-2.96,7.72-3.69,8.92-.96,1.54,3.5,1.51,11.27-.44,16.05l-1.85-11.43Z"/>
  <path class="st11" d="M465.88,481.34c-4.34,1.29.64-13.44-3.78-14.33l-4.09,15.38-.85-18.38c3.26.48,6.77,1.11,8.95,1.92,1.58.58,4.15,14.11-.22,15.42Z"/>
  <path class="st11" d="M102.69,421.59l-4.83,16.35-.5-18.41c4.9.61,8.69,1.19,9.91,3.81,1.64,3.51.98,11.03-2.28,14.18l-2.29-15.94Z"/>
  <path class="st17" d="M515.87,423.01l.11,13.48c-3.37.2-8.05.22-10.24-2.46-1.81-2.22,2.28-7.21,4.86-7.93,2.74-1.51.61-2.52-1.56-2.67l2-2.86,1.48.5c.89.6,2.41,1.49,3.35,1.95Z"/>
  <path class="st3" d="M201.64,480.39l-.27-4.25c-.07-1.07,1.82.38,2.63.98l1.67,1.26c.6.45,1.62-2.25.97-2.47l-2.64-.91c-1.08-1.14-2.52-2.58-2.14-3.81.78-2.53,1.13-3.91,1.01-5.04,1.7-2.26,7.6-1.34,7.48,1.39l-.56,12.7-8.15.15Z"/>
  <path class="st1" d="M719.94,421.71l.06,14.73-9.41.04c0-6.3.15-11.22,1.38-16.48l4.14,14.6,1.49-9.3.65-4.08c.11-.7,1.27.28,1.69.48Z"/>
  <path class="st11" d="M322.54,443.32c3.89-11.33,3.19-20,.01-31.26,5.14,2,6.76,9.54,6.81,15.93.04,5.13-1.13,14.78-6.82,15.33Z"/>
  <path class="st19" d="M346.31,477.57l.02,1.65c-2.97,2.18-7,2.02-10.96.86l4.94-10.9-4.69-4.27,10.33.88-4.44,10.3c-.4,1.64,3.44,2.27,4.8,1.49Z"/>
  <path class="st17" d="M622.75,444.24c3.87-11.01,5.56-20.04-.24-31.69,9.51,2.98,10.32,25.85.24,31.69Z"/>
  <path class="st11" d="M523.71,434.5c-.78.69-3.93,2.75-4.13,1.15l-.83-6.54-.75-5.89c-.1-.77-1.59.06-2.12-.2-.94-.46-2.46-1.35-3.35-1.95,3.27-.73,4.74-1.81,10.07-5.31,2.29,9.53-2.67,17.9,1.12,18.74Z"/>
  <path class="st4" d="M1018.75,168.46l1.52,1.74-.26,14.81h-1.33l-6.14-3.6c-.43-.06-.59-4.25.36-4.61l4.45-1.69c-3.3-1.61-4.29-1.79-6.32-4.89l7.73-1.75Z"/>
  <path class="st1" d="M134.67,436.44l2.67-1.85,1.49-1.06c.61-.43-.88-2.19-1.49-2.64l-3.47-2.58c.8-.92,1.95-2.29,1.99-2.21-1.25-2.22-.92,1.72-3.39-.87.97-2.31,2.89-4.73,4.49-5.32,1.75-.64,5.56,2.8,5.43,5.05l-.63,10.26c-1.88.58-5.4,1.36-7.08,1.22Z"/>
  <path class="st17" d="M552.86,435.88l.57-14.17c1.96-1.61,7.85-2.91,8.58.13,1.08,4.54.74,10.91-.1,15.42l-4.07-14.81c-3.77.2-.47,14.2-2.44,13.87l-2.54-.43Z"/>
  <rect class="st5" x="208.08" y="306.99" width="4.24" height="25.89"/>
  <rect class="st18" x="438.67" y="306.99" width="3.62" height="25.89"/>
  <rect class="st5" x="141.42" y="306.99" width="4.24" height="25.89"/>
  <path class="st19" d="M51.95,473.04c.3-2.78,1.02-6.04,1.86-8.17l-.86,15.49c-3.09.83-6.89.31-7.92-2.89-1.4-4.37-2.36-10.04,1.67-12.75.5,2.22,1.16,6,1.44,8.43l.48,4.09c.11.89,2.74,1.27,2.84.38l.5-4.57Z"/>
  <path class="st17" d="M170.92,478.41l-.26-12.39c6.16,2.09.42,12.6,3.3,11.42l2.93-1.2,1.91-13.62.88,17.35c-3.2,1.31-7.09,1.07-8.76-1.57Z"/>
  <path class="st22" d="M1193.39,184.96l-.06-20.37,2.7,5.23c2.07.46,4.18.66,5.08,1.5,1.12,1.05,1.62,5.74,1.61,7.78l-.04,4.85c0,1.21-2.53,1.19-3.37.88s-.45-3.48-.65-5.42l-.59-5.73c-.12-1.21-3.33.64-3.35,1.89-.05,2.82-.54,8.08-1.34,9.39Z"/>
  <path class="st13" d="M84.05,427.35c-.42,2.02,0,6.45.21,8.67-.98.01-2.84.59-2.86-.57l-.1-6.66c-.02-1.38-.42-4.11-.69-5.22s-3.32-.56-3.81.38-.75,3.08-.78,4.89l-.09,6.53c0,.67-.87.35-1.76.31.44-7.13.61-14.31.48-21.45l3.39,6.65c1.96.16,5.07-.47,5.25.91l.75,5.55Z"/>
  <path class="st13" d="M646.77,427.35l.26,8.54c-.85.02-2.86.78-2.9-.41l-.17-4.87c-.07-1.84-.43-5.46-.65-7.06s-4.24.77-4.28,1.68l-1.29,11.48-.38-22.36c1.74,3.2,3.27,6.14,4.69,6.51,2.13.54,4.38.45,4.46,1.82l.26,4.66Z"/>
  <path class="st26" d="M1028,171.99l-.19,12.68c-1.04-.02-2.51.19-2.5-.84l.08-6.91c-.8-3.77-2.37-4.69-2.54-.13l-.26,6.89c-.04,1.08-1.65,1.33-2.59,1.33l.26-14.81c2.54.14,5.64.83,7.74,1.79Z"/>
  <path class="st22" d="M1018.75,168.46l-7.73,1.75c2.02,3.1,3.02,3.28,6.32,4.89l-4.45,1.69c-.95.36-.79,4.55-.36,4.61l6.14,3.6-9.23-.39.3-17.62c2.74-1.16,7.22-.59,9.01,1.46Z"/>
  <path class="st1" d="M427.62,428.93c.1,2.32-.06,7.46-1.61,7.72-1.9.32-5.04-.34-6.17-1.82l1.49-2.09,2.1,1.63c.49.38,1.08-3.2.57-3.48l-4.64-2.5,1.58-6.94,2.34,2.86c.43.52,1.65-3.13,1.39-2.42l2.95,7.04Z"/>
  <path class="st1" d="M398.03,421.89l-1.01,1.46c-1.31.02-4.87.99-4.94,2.91s.93,5.81,1.85,8.23c.64,1.71,3.98-1.41,4.73-2.72l1.07,1.18c.44,2.73-2.3,4.19-4.48,3.94-1.42-.16-3.56-2.29-4.21-4.21l-.13-9.04c1.89-2.7,4.78-3.2,7.12-1.76Z"/>
  <path class="st0" d="M12,98.01c-2.33-16.38-1.11-36.39-1.33-53.63-.27-.89,1.33,2.29,1.33,3.21v50.42Z"/>
  <path class="st0" d="M249.33,96.16c-.04.47-1.36-3.06-1.36-4.12v-43.35c0-1.26,1.31-4.83,1.36-4.31v51.78Z"/>
  <path class="st4" d="M260,96.16v-51.78c.04-.47,1.36,3.06,1.36,4.12v43.35c0,1.26-1.31,4.83-1.36,4.31Z"/>
  <path class="st4" d="M529.33,96.16c-.04.47-1.36-3.06-1.36-4.12v-43.35c0-1.26,1.31-4.83,1.36-4.31v51.78Z"/>
  <path class="st4" d="M540,96.16v-62.88h360v73.97h-360v-62.88c.04-.47,1.36,3.06,1.36,4.12v43.35c0,1.26-1.31,4.83-1.36,4.31Z"/>
  <path class="st4" d="M900,96.16c-.04.47-1.36-3.06-1.36-4.12v-43.35c0-1.26,1.31-4.83,1.36-4.31v51.78Z"/>
  <path class="st4" d="M910.67,96.16v-51.78c.04-.47,1.36,3.06,1.36,4.12v43.35c0,1.26-1.31,4.83-1.36,4.31Z"/>
  <path class="st4" d="M1138.67,96.16c-.04.47-1.36-3.06-1.36-4.12v-43.35c0-1.26,1.31-4.83,1.36-4.31v51.78Z"/>
  <path class="st1" d="M88.95,473.32c0,1.84.36,6.05-.78,6.96s-4.35,1.31-5.51.62l1.33-1.93c.41-.29,2.1-3.28,1.33-3.7l-4.65-2.5,1.59-7,2.35,2.9c.42.52,1.66-3.14,1.38-2.4l2.95,7.04Z"/>
  <path class="st4" d="M1193.39,184.96l-1.49-1.18-.06-3.39c-.05-2.67-6.26,3.21-6.39.07-.06-1.44-.52-6.99.5-6.68l5.47,1.66c-.02.39.18-3.48-.52-5.4l2.43-5.46.06,20.37Z"/>
  <path class="st14" d="M1878.67,233.18v-3.87l11.02-3.04c-.97,2.28-3.04,6.28-4.43,7.49s-4.94-.59-6.59-.58Z"/>
  <path class="st4" d="M1050.67,171.99c.22,1.79.72,4.26,1.33,5.55s2.71,1.95,4,1.85c-.16.4-1.33,3.94-1.91,3.28l-3.03-3.42-.51,4.6-2.46,1.12-.09-14.9,2.68,1.92Z"/>
  <path class="st22" d="M806.67,164.59l.8,10.98-3.46.11c-.35-2.08-.65-4.91-.73-7.19-.06-1.56,2.49-4.36,3.4-3.91Z"/>
  <path class="st4" d="M1175.49,179.84l-7.6,4.58.57-14.45,1.18,8.27c.29,2.01,4.67,1.13,5.85,1.59Z"/>
  <path class="st24" d="M1056,179.38l1.33,1.85c.38,1.71-1.89,4.56-3.03,4.11l-3.76-1.5.51-4.6,3.03,3.42c.58.66,1.75-2.88,1.91-3.28Z"/>
  <path class="st26" d="M750.67,171.99l-3.56,1.26c-.78.28-1.58-1.44-1.78-3.11,1.39-.5,4.51.71,5.33,1.85Z"/>
  <path class="st24" d="M1053.33,175.68c-.28.53-.96,1.36-1.33,1.85-.62-1.29-1.11-3.76-1.33-5.55,1.43-2.66,2.17,1.99,2.67,3.7Z"/>
  <path class="st22" d="M806.67,184.93c-2.55.09-2.96-2.86-2.67-5.55.73.07,2.49.19,2.52,1.18l.14,4.37Z"/>
  <path class="st1" d="M50.67,434.33c-.47-.02-1.48.11-1.97.15s-1.08-2.08-.72-2.5l1.25-1.44,1.44,3.79Z"/>
  <path class="st23" d="M724.06,81.35l-15.87-.58-.24-14.52,6.28,1.55c1.18-2.05,7.88-4.68,8.73-1.87,1.2,3.99,1.13,10.57,1.09,15.42ZM718.33,72.28c.56-.11,2.39-2.72,1.86-2.96-.56-.25-1.57-.84-2.09-.62l-2.4,1.03c-.64.34-3.2,2.83-2.47,3.05.65.2.84.31,1.31.22l3.78-.72Z"/>
  <path class="st23" d="M630.67,81.37v-16.64c4.23.84,9.47.81,13.32.37,4.31-.49,2.83,15.97,1.94,16.08l-4.81.57c-1.86.22-5.54-2.62-5.41-4.86.11-1.87,2.56-4.54,3.87-5l2.94-1.05c.51-.18-.77-1.78-1.34-1.78l-7.74-.07-.17,12.17-2.61.22Z"/>
  <path class="st25" d="M627.1,79.14c1.12-1.3-10.01,7.24-6.52,7.88l-3.24-.6-.05-21.88,9.98,1c.99,2.58,1.5,11.66-.18,13.59Z"/>
  <path class="st26" d="M754.67,70.27v5.55l-.06,4.72c-.01,1.12-3.13.72-3.61.51l-1.05-13.69c-4.01.95-.52,14.78-2.56,14.03-.9-.33-3.2-1.17-3.15-1.15-.34-4.7-.73-9.02-1.49-13.35l-2.55,15.09c-1.58-5.63-1.69-11.11-1.56-17.2l12.07-.11c.84,0,3.23.78,3.38,1.78l.57,3.82Z"/>
  <path class="st23" d="M794.67,68.42c-1.96,1.1-1.91,8.22.09,9.43-.83,4.46-8.78,5.22-10.72,2.14l.19-20.68c1.04-.72,3.8,2.48,4.99,3.66l5.45,5.44Z"/>
  <path class="st22" d="M808,70.27c-.22,1.45-.92,4.06-1.33,5.55-3.08-.06-3.07.45-.03,2.94-3,5.24-7.67,1.62-11.87-.9-2.01-1.21-2.05-8.33-.09-9.43l6.72-3.77c2.15-1.21,5.78,3.28,6.61,5.62Z"/>
  <path class="st24" d="M615.27,79.25c-3.19,5.48-10.44,1.72-11.08-3.84,1.7-6.03,5.97,5.84,6.94,2.68l1.04-3.41c.78-2.57-10.3-4.04-7.85-10.93,1.59-4.47,6.76-5.25,9.18-3.63l2.51,1.68c.66.44-.24,4.17-.94,3.93s-1.75-.75-2.73-1.48l-2.39-1.77c-.68-.51-2.46,2.35-1.89,3.06,2.42,3.03,11.51,6.32,7.2,13.71Z"/>
  <path class="st26" d="M732.7,82.36l-1.52-15c-1.15,2.05-2.09,5.61-2,7.86l.21,5.24c.05,1.22-3.99,1.27-3.98.05l.14-21.22c8.33,1.08-4.62-3.66,9.26,6.72,2.12,1.59,2.21,21.16-2.11,16.35Z"/>
  <path class="st16" d="M754.67,75.82v-5.55c2-3.92,4.69-6.31,7.22-5.85,1.77.32,5.49,4.68,4.62,6.93l-1.66,4.31c-.25.66.15.8,1.8,3.76l-7.08,2.19c-1.67.52-3.59-3.69-4.9-5.8Z"/>
  <path class="st16" d="M836,66.58c.38.33,1,1.29,1.27,1.8l-1.69,8c.65,1.23,1.62,2.88,1.1,3.18l-2.32,1.33c-3.51,2-7.28-.6-9.01-5.06v-1.85c0-2.79,1.72-8.44,3.67-9.09,1.75-.58,5.52.41,7,1.69Z"/>
  <path class="st24" d="M570.23,74.13c.83,2.92,1.32,4.82,4.33,6.06,1.36,1.18,3.48,1.23,5.56-.02l4.27-6.03,2.39-8.23c2.93,15.7-5.92,14.55-9.44,23.2-3.52-8.7-12.37-7.51-9.41-23.01l2.3,8.04Z"/>
  <path class="st23" d="M681.27,80.39c-.05,1.33-9.6,2.83-10.73-2.34-.47-2.14,2.1-5.77,3.7-6.22l2.81-.78c.53-.15-.02-3.17-.53-2.92l-2.6,1.23c-2.2.86-4.3,1.34-1.98-2.09,2.03-1.56,5.59-2.95,7.28-2.5s2.39,6.3,2.3,8.79l-.26,6.83Z"/>
  <path class="st22" d="M865.33,70.27l-.09,3.73c-.21,1.11-.66,4.68-1.23,5.97-1.44,3.22-8.14,1.5-8.95-4.05-.58-3.98.73-11.04,4.5-11.32,1.51-.11,4.32-.25,4.57.78l1.2,4.89ZM861.66,77.04c-3.46-.47-3.66-.5-.58-.07,1.49.18,2.02.24.58.07Z"/>
  <path class="st26" d="M694.67,64.73h4l2.71.74c.43.12-.26,2.4-.7,2.42l-1.77.09c.11.07-1.74-1.08-2.32-1.45s-1.24,1.22-1.62,1.89c-1.56,2.34-1.76,7.75-1.78,13.08l-10.69-2.65,3.11-14.85,2.52,15.65,1.73-14.94,4.83.02Z"/>
  <path class="st26" d="M865.24,74l.09-3.73,5.02-5.46c1.16-1.26,6.66.16,6.71,2.2.09,3.48.17,10.57.12,13.77-.02,1.22-3.94.87-3.89-.35l.2-5.13c.1-2.55-.8-6.16-2.08-7.92l-1.22,14.27c-2.05-4.22-3.17-6.92-4.94-7.65Z"/>
  <path class="st23" d="M825.33,73.97v1.85c.73,3.84-3.54,6.76-5.65,5.67-1.65-.85-4.35-3.87-4.98-5.1l6.84.62c-3.61-3.42-6.55-4.94-6.88-8.59,3.01-2.93,8.5-7.75,11.08,1.06l-6.83-.08,6.41,4.57Z"/>
  <path class="st23" d="M660.07,81.39l-.07-22.22h1.92c.48,0,.38,3.68.82,3.92l5.74,3.07c1.33,4.5,2.04,11.07-.88,16.72l-1.34-14.17-3.01-.29c-2.15-.21,1.92,16-3.19,12.96Z"/>
  <path class="st24" d="M845.33,81.44c-.05-3.68,2-7.86,4.1-11.11l-4.1-5.68,10.04.38-5.78,11.96c2.27,1.13,3.66,1.86,5.89,3.45l-10.16,1Z"/>
  <path class="st23" d="M781.91,63.24l1.06,18.17-8.99-.95c-.9-6.11-1.41-10.98.99-17.38l1.52,14.53h3.18c.32-5.33.13-7.88,2.25-14.37Z"/>
  <path class="st4" d="M660.07,81.39l-2.6-1.54c-.66-.39-.12-4.14-.81-3.84l-4.18,1.81c-1.03.45-2.11-3.09-2.12-4.8s1.24-5.26,2.24-4.78l3.99,1.91c.67.32.85-3.26.88-3.74l2.53-7.25.07,22.22Z"/>
  <path class="st16" d="M657.47,66.43c-.03.48-.21,4.06-.88,3.74l-3.99-1.91c-1-.48-2.25,3.06-2.24,4.78s1.09,5.24,2.12,4.8l4.18-1.81c.69-.3.14,3.44.81,3.84-2.45,1.22-7.13,1.81-8.68-.63s-1.42-11.84.7-13.23c1.88-1.24,5.88-.67,7.98.44Z"/>
  <path class="st25" d="M844,64.65c-3.67,4.67-3.56,12.02,0,16.79l-4.21-1.08c-2.02-.52.34-6.55-2.52-11.99-.27-.51-.89-1.46-1.27-1.8l3.77-5.49c.88-1.28,3.61,2.33,4.23,3.57Z"/>
  <path class="st25" d="M814.67,68.42c-.76.16-2.49.17-2.5,1.25l-.04,4.62c-.03,2.97-.85,6.31-2.14,8.28l-3.32-6.75c.42-1.49,1.12-4.1,1.33-5.55.35-2.31.58-5.55,1.81-5.72,2.46-.34,4.6,1.01,4.85,3.87Z"/>
  <path class="st4" d="M845.33,81.44c-.38.04-.99.09-1.33,0-3.56-4.77-3.67-12.11,0-16.79h1.33l4.1,5.68c-2.11,3.25-4.16,7.43-4.1,11.11Z"/>
  <path class="st24" d="M698.9,67.97c-.09,5.1-.02,8.97-2.13,14.92l-1.81-14.48c.39-.67,1.06-2.26,1.62-1.89s2.44,1.52,2.32,1.45Z"/>
  <path class="st2" d="M574.55,80.19c-3.01-1.24-3.5-3.14-4.33-6.06,1.61-.61,4.19-1.25,5.68-1.44l-1.35,7.5Z"/>
  <polygon class="st2" points="584.38 74.13 580.11 80.16 578.54 72.3 584.38 74.13"/>
  <path class="st24" d="M698.67,64.73h-4c1.16-4.45,5-6.03,7.95-5.07l-3.95,5.07Z"/>
  <path class="st25" d="M630.67,81.37c-2.09-4.26-2.09-12.38,0-16.64v16.64Z"/>
  <path class="st2" d="M578.71,52.52l3.17-.89c.53-.15,1.28,2.73.77,3l-2.12,1.11c-.75.39-2.6-3-1.82-3.22Z"/>
  <ellipse class="st2" cx="574.67" cy="53.63" rx="1.48" ry="2.06"/>
  <path class="st26" d="M308.21,90.02l-17.9.88c-2.77.14-5.15-5.5-5.13-9.05l.13-23.06c.01-1.94.66-6.59,1.89-7.35,3.08-1.89,13.2-3.41,18.14,2.93,5.7,7.3,4.42,21.75,2.86,35.65ZM306.81,64.99c-3.39-.78-6.85-.67-7.14-2.49l-1.43-8.79-10.23-.31-.03,33.54,18.72-.04.11-21.91Z"/>
  <path class="st26" d="M482.44,80.73l-.14-2.51c2.97,2.27,1.06-15.53,6.4-13.83,1.93.61,5.45,2.41,7.56,3.48,2.47-1.35,8.64-4,10.54-.35,1.42,2.73,1.38,10.51,1.08,13.02l-4.94.61-.79-12.95-1.66,11.73-18.04.8ZM498.12,76.91c.58,1.61-.26-.72-.85-2.38-.17-.47-.26-.19-2.1,2.2-2.65-.16-2.5-.15,2.96.18Z"/>
  <path class="st24" d="M389.06,81.67l-4.28-7.5c-2.51,2.07-3.92,2.44-1.26,4.92-.63,2.51-5.36,3.04-7.75,1.32-2.04-1.47-2.83-7.46-2.37-10.95.39-2.94,5.62-5.84,8.02-4.81,1.28.55,2.63,5.02,3.1,7.24l4.56-6.84-.03,16.61Z"/>
  <path class="st22" d="M336.08,66.75l-.23,7.16c-.35,2.44-1.1,6.69-2.72,6.84l-9,.86-.11-21.25c4.43-5.75,12.57,1.13,12.05,6.38ZM328.29,78.93c6.67-2.34,5.08-7.44,5.09-11.47,0-2.29-2.41-4.62-5.27-5.19l.18,16.67Z"/>
  <path class="st25" d="M422.67,68.42v9.25c-1.98,2.94-6.06,3.63-9.37,3.71l.29-23.37,4.1,5.86c2,1.74,3.68,3.24,4.97,4.55Z"/>
  <path class="st22" d="M422.67,77.67v-9.25l3.63,3.68c.58-2.89,1.07-7.44,2.45-7.35,1.62.11,4.73.46,6.13.71,1.73.31.92,14.66-.43,15.37-1.66.87-5.67.73-6.68-.63l-3.03-4.07c-.42-.57-1.7,1.28-2.07,1.54ZM432.33,77.04c-3.46-.47-3.66-.5-.58-.07,1.49.18,2.02.24.58.07Z"/>
  <path class="st24" d="M348,66.24v14.97c-4.49.49-7.78.65-11.61-3.07l7.97-9.31c-2.85-.19-6.27,2.19-8.5,5.09l.23-7.16c3.24,2.38,4.66-5.42,11.92-.51Z"/>
  <path class="st22" d="M366.53,66.6l-.48,13.59c-2.69,2.1-7.14,1.71-8.68-1.69-1.27-2.79-1.21-7.97-.03-10.93,1.38-3.48,6.17-4.16,9.2-.97ZM363,77.04c-3.46-.47-3.66-.5-.58-.07,1.49.18,2.02.24.58.07Z"/>
  <path class="st24" d="M465.59,66.75c.31.36.87,1.18,1.08,1.68l-2.11,12.25c-1.14,1.75-6.39.42-8.07-2.91-1.24-2.45-.49-9.07,1.24-11.29,1.58-2.03,6.21-1.63,7.86.27Z"/>
  <path class="st26" d="M450.62,81.84c-1.93-.3-5.7-3.51-5.69-4.95l5.65.18c-2.25-2.27-5.71-5.98-5.26-8.41,1.02-5.51,8.26-6.33,9.69.28l-4.03,1.86,4,5.97c.89,1.33-3.02,5.28-4.35,5.07Z"/>
  <path class="st25" d="M348,68.42v-2.18c1.08-1.64,3.6-4.52,5.42-5.5,3.61-1.95.37,15.06,2.26,20.34-.89.24-4.25.27-4.41-1.27l-.63-5.83-.6-5.54c-.08-.72-1.68-.06-2.04-.01Z"/>
  <path class="st25" d="M466.67,68.42c-.21-.5-.77-1.32-1.08-1.68l3.06-5.32c.62-1.08,3.88.26,3.87,1.67l-.07,6.29c-.03,3.07.19,6.56.54,11.07.49-.15-2.01.62-3,.92-2.27.69-1.01-7.44-3.31-12.95Z"/>
  <path class="st16" d="M481.33,72.12l-2.74,2.95c-.49.53.8,2.67,1.41,2.77l2.29.37.14,2.51-8.4.39,4.65-11.29-4.65-4.3,10.51-.89c-1.33,3.76-2.19,6.38-3.21,7.49Z"/>
  <path class="st25" d="M441.1,74.99l.24,5.54c.05,1.23-3.49.87-3.9.18l-.15-15.98,7.01.51c-1.63,3.78-3.3,7.4-3.2,9.75Z"/>
  <path class="st26" d="M480.01,77.85c-.62-.1-1.9-2.24-1.41-2.77l2.74-2.95-1.32,5.73Z"/>
  <path class="st6" d="M144,70.27c-.66.68-2.21,3.23-1.55,4.02l2.88,3.38c-3.78,4.23-8.69,3.66-13.54,3.33l.2-16.28,3.52-6.07c4.37,10.03,8.42,5.12,8.46,8.77l.03,2.85Z"/>
  <path class="st15" d="M145.33,77.67l-2.88-3.38c-.67-.78.88-3.34,1.55-4.02l4.34-4.88c1.06-1.19,5.42-1.04,6.04.58l2.32,6.05,2.36-6.74c1.49,6.17,1.52,11.16-.78,16.59l-1.55-7.8c-.62,2.47-2.19,7.32-3.95,7.51-2.18.23-5.75-1.9-7.45-3.91ZM152.33,77.04c-3.46-.47-3.66-.5-.58-.07,1.49.18,2.02.24.58.07Z"/>
  <path class="st6" d="M188.63,81.08l-1.34-12.92c-1.3,5.32-1.75,7.72-2.22,12.32-.5.49-4.65.43-6.56-.08s-2.82-6.95-2.71-10.41c.06-1.79,2.65-5.51,3.87-5.11l6.47,2.13,2.82-6.26c9.12,8.48,2.17,2.37,14.49,4.85,2.28.46-4.1,9.85-3.22,10.79l4.33,4.62-15.93.06ZM199.68,69.49l-7.22-3.53c-.37,5.6-.36,9.12.76,13.98l6.46-10.46Z"/>
  <path class="st6" d="M114.79,64.44c-1.62,3.9-2.24,10.12-.12,13.23.39.43,2.18,2.83,1.41,2.98s-1.59.34-2.1.36l-1.77.08-.23-12.52c-.01-.65-1.1-1.75-1.53-1.98-1.43-.76-5.08,3.28-4.47,5.22l3.01,9.55-5.82-2.51-3.7,2.4c-.61.4-1.73-1.44-2.15-1.97,1.02-.98,3.55-3.45,3.24-5.15l-1.67-9.11c11.77,7.3,11.77-10.75,15.9-.57Z"/>
  <path class="st9" d="M47.18,74.71c-2.42-1.76-4.02-3.68-5.18-3.77s-2.87,2.13-5.07,3.69l2.22-5.37c.57-1.38-.31-5.03-.73-6.76l3.92,1.75c.96.43,2.64-3.75,2.74-4.65l-11.05-2.46c5.68-.91,10.8-1.02,17.2-.74l-7.4,10.38,3.35,7.92Z"/>
  <path class="st15" d="M97.31,79.28c-2.68,2.61-7.61,3.13-9.29-.6s-1.12-9.37.64-12.41c1.48-2.55,8.32-1.71,8.52,1.49l.13,11.52Z"/>
  <path class="st15" d="M214.15,67.19c.89,2.77.62,10.1-.16,12.96-1.8,2.23-7.45,1.46-8.6-1.24-1.28-3.01-1.18-7.9-.1-11.54.94-3.16,7.61-4.02,8.85-.18Z"/>
  <path class="st9" d="M62.17,89.87c-2.78-3.13-5.02-6.59-6.91-7-2.48-.54-5.17,3.55-8.04,6.95,1.51-7.53,3.82-13.92,7.43-21.47,3.66,7.66,5.98,13.87,7.52,21.52Z"/>
  <path class="st6" d="M171.53,81.49c-3.47,0-5.86-1.84-6.69-4.92l6.09.89-7.72-9.08c4.23-4.6,8.56-5.14,12.05-.21l-4.57,2.95,4.11,3.96c1.02.99-1.67,6.42-3.25,6.42Z"/>
  <path class="st15" d="M225.49,82.9l-3.01-16.5c-2.99,5.32-2.42,8.61-3.95,15.92-.89-4.35-1.22-10.66-1.25-16.94l8.69.11c.73,6.22.76,11.23-.48,17.41Z"/>
  <path class="st15" d="M132,64.73l-.2,16.28-8.45-.56c-.39-6.22-.47-10.54.62-17.35l2.03,14.26c.55.34,3.24.43,3.29-.81l.16-4.54.19-5.85c.03-1.05,1.48-1.15,2.36-1.42Z"/>
  <path class="st15" d="M84.58,62.68c-4.66,3.88.61,16.86-3.58,20.41l-1.61-19.38-5.26-4.27,14.24.08-3.79,3.15Z"/>
  <path class="st9" d="M112.21,81.08l-1.58-1.05-.18-13.46c.44.23,1.52,1.34,1.53,1.98l.23,12.52Z"/>
  <path class="st9" d="M114.67,77.67c-2.13-3.1-1.5-9.33.12-13.23l-.12,13.23Z"/>
  <path class="st24" d="M1061.43,66.44l4.37,2.11-5.79,5.19c1.26.57,6.49,1.44,7.3.97l.55-8.14,4.14,3.7-3.02,3.71-.97,5.28c-1.41-2.09-5.5-2.08-6.67.26-1.57-2.15-2.53-5.35-3.35-8.98l-2.57,10.72c-.51,2.14-4.86-3.54-5.47-5.3l-1.3,5.37c-.18.73-3.2.07-3.33-.67l-2.52-13.66c2.45-1.12,3.89-1.78,3.83-1.75l-1.11,4.27c-.17.66,1.88,1.43,2,.74l.71-4.07c.22-1.29,3.19-1.96,3.69-.84l2.22,5.01,1.36-5.63c.72-2.98,3.95,5.17,5.96,1.71Z"/>
  <path class="st26" d="M1003.81,82.52l-1.63-13.15-7.82,5.66c-.73.53-1.13,4.3-1.16,5.45s-3.35.88-3.75.23l-.13-20.25c3.79-3.09,11.13-2.47,12.81,3.8l1.07-5.12c1.46-6.99,4.03,20.05.61,23.37Z"/>
  <path class="st24" d="M1024.26,68.6l.13-1.49c2.38-1.81,8.54-3.91,9.43-.56l1.45,5.47c.14.53,1-1.49,1.35-1.75l3.25-2.31-.16,13.72-4.31-7.54-2.43,1.93c-.4.32-.57.55-.26.91s1.84,2.2,1.57,2.62c-1.46,2.21-6.72,2.34-8.53.13-1.62-1.98-1.93-7.87-1.5-11.15Z"/>
  <path class="st23" d="M1093.36,80.09c-1.27,1.58-8.05,2.22-9.67-.15s-1.26-11.33-.39-13.59l5.9-3.36c.54-.31.32-4.08.86-3.96l3.22.69.08,20.38Z"/>
  <path class="st26" d="M1110.67,68.46l-7.35,11.86c-1.17,1.89-6.66,1.68-7.74-.35-1.43-2.71-1.55-11.29.11-13.79,2.38-3.58,8.18-.58,10.43,2.45.76-.79,2.7-4,3.09-3.19l1.46,3.02Z"/>
  <path class="st16" d="M988.47,80.69c-2.5,1.08-4.5-.65-6.6-3.47l-8.34,4.61,4.54-19.8c.24-1.06,1.77-3.15,2.55-3.25s2.79,1.95,3.1,3.16l4.75,18.74Z"/>
  <path class="st26" d="M1068.98,73.98l3.02-3.71c-1.05-5.78,2.39-6.07,6.39-5.55,2.71.35,3.28,6.13,3.09,10.93l-.19,4.82c-.05,1.24-3.03.76-3.41.53l-1.88-14.31-2.02,14.86c-1.48-3.57-2.91-7.29-5.02-7.57Z"/>
  <path class="st16" d="M1024.39,67.11l-.13,1.49c-.66.15-2.56.59-1.99.46-.27,3.82-.52,7.07-.81,9.35-.22,1.74-3.57,3.19-4.94,3.05l-3.64-16.24c1.88-.24,3.84-.54,4.04.46l.93,4.66,3.01-5.36c.58-1.04,3.04,1.71,3.51,2.12Z"/>
  <path class="st5" d="M961.52,69.67c.75,2.79-4.24,8.31-5.86,8.43,1.09-3.27,3.68-6.81,3.04-8.37l-3.05-7.38c1.6.56,5.05,4.26,5.88,7.32Z"/>
  <path class="st22" d="M1067.86,66.58l-.55,8.14c-.81.48-6.04-.4-7.3-.97l5.79-5.19-4.37-2.11c1.83-2.29,4.45-1.64,6.43.13Z"/>
  <path class="st22" d="M1068,79.26c-.61,3.29-5.15,2.36-6.67.26,1.17-2.34,5.26-2.35,6.67-.26Z"/>
  <path class="st7" d="M959.47,171.86c1.09-6.91-15.09,2.68-15.14-4.51l14.61-1.34.33-5.19c1.23.83,5.76,6.28,4.41,8.12l-4.77,6.5.56-3.58Z"/>
  <path class="st7" d="M964.93,183.87l-14.49,1.54-.38,5.14c-1.23-.99-5.81-6.11-4.47-7.98l4.84-6.72-.51,6.17c6.02.14,9.28-2.22,14.99,1.85Z"/>
  <path class="st2" d="M286.97,317.61c-.51,5.53-.56,8.36-1.59,8.94s-3.39,1.02-4.49.81c-1.37-.26-2.27-4.67-2.46-7.77-.17-2.69,1.85-7.28,3.48-7.71,1.86-.48,5.27,3.36,5.06,5.72Z"/>
  <path class="st2" d="M136.22,479.13l-.22-17.15c3.35.41,6.06,2.74,6.43,6.7.42,4.55-1.15,8.12-6.21,10.45Z"/>
  <path class="st10" d="M246.01,312.91c.98,3.73,1.18,10.63-.07,14.06-.52,1.43-4.2.97-4.84-.36-2.19-4.56-1.38-9.17,0-13.4.47-1.45,4.53-1.79,4.92-.3Z"/>
  <path class="st10" d="M507.35,312.91c.96,3.76,1.19,10.67-.07,14.07-.53,1.43-4.2.97-4.84-.37-2.15-4.52-1.43-9.12-.02-13.39.48-1.45,4.54-1.81,4.93-.31Z"/>
  <path class="st20" d="M312.78,423.78c.46,1.37,2.49,5.98,1.55,6.31l-4.61,1.58-3.69,1.27c-.95.33-2.21-3.25-1.91-4.54s1.51-5.12,2.43-4.61l3.47,1.93c.74.41,2.2-1.46,2.76-1.92Z"/>
  <path class="st20" d="M544.49,431.64c-.31-.63,2.71-1.45,2.89-.78l.7,2.67c.18.7-1.77,1.76-2.06,1.17l-1.52-3.06Z"/>
  <path class="st20" d="M528.52,431.54c-.27-.55,2.24-.55,2.12.12l-.5,2.89c-.12.68-1.3-2.34-1.62-3.01Z"/>
  <ellipse class="st20" cx="551.33" cy="430.89" rx=".85" ry="1.17"/>
  <path class="st10" d="M369.88,312.95c1.32,2.95,1.21,10.88-.04,14.07-.55,1.39-3.97.96-4.57-.39-1.85-4.15-2.17-9.06-.02-13.31.66-1.3,4.03-1.73,4.63-.37Z"/>
  <path class="st2" d="M352.32,318.74c-.32,2.98-.92,6.77-1.61,7.99-.87,1.53-4.36,1.26-5.41-.08-2.13-2.73-2.08-11.47,2.18-14.92,1.45-1.18,5.14,4.17,4.83,7.01Z"/>
  <ellipse class="st20" cx="663.33" cy="431.82" rx=".67" ry=".92"/>
  <ellipse class="st20" cx="659.33" cy="431.82" rx=".67" ry=".92"/>
  <path class="st20" d="M126.35,428.61l-9-7.03c.18-.64,1.44-4.02,2.07-3.62l3.92,2.51,2.59,1.66c.75.48.53,2.91.42,6.49Z"/>
  <path class="st20" d="M137.33,434.59l-1.21-2.85c-.16-.39.74-.62,1.21-.85.61.45,2.1,2.21,1.49,2.64l-1.49,1.06Z"/>
  <path class="st14" d="M397.02,423.35l1.63,8.42c-.75,1.31-4.08,4.43-4.73,2.72-.91-2.42-1.92-6.3-1.85-8.23s3.63-2.9,4.94-2.91Z"/>
  <path class="st20" d="M424,430.89c.52.28-.08,3.86-.57,3.48l-2.1-1.63,2.67-1.85Z"/>
  <ellipse class="st20" cx="68.67" cy="431.82" rx=".67" ry=".92"/>
  <ellipse class="st20" cx="72.67" cy="431.82" rx=".67" ry=".92"/>
  <path class="st20" d="M725.62,172.68c-.58,5.71-1.87,6.52-3.19,2.25l-3.15-1.17c-.53-.2-.47-2.76-.39-3.68l6.72,2.6Z"/>
  <path class="st20" d="M204,477.12v-2.11l2.64.91c.65.22-.37,2.92-.97,2.47l-1.67-1.26Z"/>
  <path class="st20" d="M1068.04,177.27c.58.43-5.81,6.51-5.44,2.87.18-1.71.69-6.67.67-6.4l4.77,3.53Z"/>
  <path class="st20" d="M1145.33,179.38l1.33-7.4,1.67,4.81c.41,1.19-2.18,2.69-3,2.59Z"/>
  <path class="st20" d="M391.24,475.8c-.29-.56,1.62.19,2.12.27s-.57,2.13-.59,2.85-1.17-2.45-1.52-3.12Z"/>
  <path class="st20" d="M257.81,475.78c-.28-.61,2.29-.39,2.17.28l-.52,2.85c-.12.67-1.1-1.92-1.65-3.14Z"/>
  <path class="st20" d="M306.25,468.92c1.55,3.33-3.5,9.8-6.35,9.21l.15-9.38c.03-1.61,4.5-.88,6.2.17Z"/>
  <path class="st20" d="M439.58,468.91c1.55,3.34-3.5,9.82-6.35,9.21l.15-9.34c.03-1.65,4.51-.91,6.2.13Z"/>
  <path class="st12" d="M494.75,434.74l-.13-16.56c5.37-1.88,6.88,1.5,6.92,8.21.03,4.36-2.61,7.58-6.8,8.35Z"/>
  <path class="st20" d="M761.89,176.88c-2.66,2.64-5.32,5.5-5.39,4.23l-.44-7.33,5.83,3.1Z"/>
  <path class="st20" d="M85.33,475.27c.77.41-.92,3.4-1.33,3.7l-1.18-2.95c-.27-.68,2.44-.76,2.52-.75Z"/>
  <ellipse class="st20" cx="74" cy="477.12" rx=".85" ry="1.17"/>
  <ellipse class="st20" cx="78" cy="471.58" rx=".85" ry="1.17"/>
  <ellipse class="st20" cx="72.67" cy="468.8" rx=".67" ry=".92"/>
  <ellipse class="st20" cx="797.31" cy="179.43" rx="1.51" ry="2.09"/>
  <path class="st14" d="M229.97,432.85c-.27,1.36-4.32,1.58-4.86.36-.67-1.52-1.05-4.6-1.01-6.81.03-1.79,3.41-3.47,4.52-2.56s1.87,6.44,1.35,9Z"/>
  <path class="st20" d="M89.86,431.39c-.27-.54,1.68.21,2.18.29s-.87,2.28-.61,2.88-1.18-2.37-1.57-3.17Z"/>
  <path class="st20" d="M765.83,431.16c-.25-.58,1.71.42,2.2.54s-.69,2.12-.63,2.82-.86-1.7-1.57-3.36Z"/>
  <path class="st2" d="M165.56,434.98l-.21-17.37c3.36.04,6.28,2.75,6.6,6.68.38,4.73-1.08,8.99-6.39,10.69Z"/>
  <path class="st14" d="M453.29,424.05c1.02-.96,5.52.46,5.33,2.15s-.9,4.71-1.58,7.13c-.44,1.56-2.93.18-3.95-1.25s-1.03-6.88.2-8.02Z"/>
  <path class="st20" d="M316.52,475.88c-.29-.63,2.24-.51,2.12.17l-.51,2.88c-.12.66-1.22-2.18-1.62-3.05Z"/>
  <path class="st20" d="M449.82,475.51c-.26-.6,1.72.45,2.21.58s-.77,2.15-.64,2.82-.8-1.62-1.57-3.41Z"/>
  <path class="st20" d="M101.86,475.92c-.28-.59,2.24-.56,2.12.12l-.49,2.83c-.13.74-1.29-2.25-1.63-2.95Z"/>
  <ellipse class="st20" cx="411.33" cy="477.12" rx=".85" ry="1.17"/>
  <ellipse class="st20" cx="410.67" cy="468.8" rx=".85" ry="1.17"/>
  <ellipse class="st20" cx="415.33" cy="472.5" rx=".67" ry=".92"/>
  <ellipse class="st20" cx="278" cy="477.12" rx=".85" ry="1.17"/>
  <ellipse class="st20" cx="277.33" cy="468.8" rx=".85" ry="1.17"/>
  <ellipse class="st20" cx="282" cy="472.5" rx=".67" ry=".92"/>
  <ellipse class="st20" cx="750.67" cy="424.42" rx=".85" ry="1.17"/>
  <ellipse class="st20" cx="751.33" cy="432.74" rx=".85" ry="1.17"/>
  <path class="st20" d="M287.21,476.08c-.3-.61,2.41-1.29,2.8-.81s.69,1.91.72,2.63-1.71,1.83-2.01,1.24l-1.51-3.06Z"/>
  <path class="st20" d="M420.51,476.15c-.3-.59,2.71-1.62,2.87-.94l.69,2.76c.17.68-1.73,1.7-2.04,1.12l-1.53-2.94Z"/>
  <path class="st10" d="M718.33,72.28l-3.78.72c-.47.09-.65-.03-1.31-.22-.73-.22,1.83-2.71,2.47-3.05l2.4-1.03c.52-.22,1.53.37,2.09.62.53.23-1.3,2.85-1.86,2.96Z"/>
  <path class="st10" d="M861.66,77.04c1.44.17.91.1-.58-.07-3.08-.42-2.88-.4.58.07Z"/>
  <path class="st20" d="M306.81,64.99l-.11,21.91-18.72.04.03-33.54,10.23.31,1.43,8.79c.3,1.81,3.75,1.71,7.14,2.49Z"/>
  <path class="st10" d="M498.12,76.91c-5.45-.33-5.61-.34-2.96-.18,1.84-2.4,1.94-2.67,2.1-2.2.6,1.66,1.43,4,.85,2.38Z"/>
  <path class="st2" d="M328.29,78.93l-.18-16.67c2.86.58,5.28,2.9,5.27,5.19-.01,4.04,1.58,9.13-5.09,11.47Z"/>
  <path class="st10" d="M432.33,77.04c1.44.17.91.1-.58-.07-3.08-.42-2.88-.4.58.07Z"/>
  <path class="st10" d="M363,77.04c1.44.17.91.1-.58-.07-3.08-.42-2.88-.4.58.07Z"/>
  <path class="st12" d="M152.33,77.04c1.44.17.91.1-.58-.07-3.08-.42-2.88-.4.58.07Z"/>
  <path class="st12" d="M199.68,69.49l-6.46,10.46c-1.12-4.87-1.13-8.38-.76-13.98l7.22,3.53Z"/>
</svg>