<?xml version="1.0" encoding="utf-8"?>
<!-- Generator: Adobe Illustrator 25.0.0, SVG Export Plug-In . SVG Version: 6.00 Build 0)  -->
<svg version="1.1" id="Ebene_1" xmlns="http://www.w3.org/2000/svg" xmlns:xlink="http://www.w3.org/1999/xlink" x="0px" y="0px"
	 viewBox="0 0 1920 540" style="enable-background:new 0 0 1920 540;" xml:space="preserve">
<style type="text/css">
	.st0{fill:#80D2F8;}
	.st1{fill:#A40709;}
	.st2{fill:#CC2C2F;}
	.st3{fill:#D30B0D;}
	.st4{fill:#A7080A;}
	.st5{fill:#F7585C;}
	.st6{fill:#FA5358;}
	.st7{fill:#FBC637;}
	.st8{fill:#DF2324;}
	.st9{fill:#EDA81F;}
	.st10{fill:#EF484C;}
	.st11{fill:#E8950E;}
	.st12{fill:#E52F31;}
	.st13{fill:#B61214;}
	.st14{fill:#ED4245;}
	.st15{fill:#F2B328;}
	.st16{fill:#FBCE43;}
	.st17{fill:#DB1C1E;}
	.st18{fill:#DA1A1B;}
	.st19{fill:#F7BD30;}
	.st20{fill:#CF0B0C;}
	.st21{fill:#D27F0A;}
	.st22{fill:#E3292A;}
	.st23{fill:#CA4143;}
	.st24{fill:#E93535;}
	.st25{fill:#EE3D3E;}
	.st26{fill:#DA273C;}
	.st27{fill:#F8F3F0;}
	.st28{fill:#F9EEE9;}
	.st29{fill:#EB9E15;}
</style>
<rect x="-57.3" y="-209.2" class="st0" width="2034.7" height="1111.3"/>
<g>
	<path class="st1" d="M1894,463.9c-8.4,14.1-21.1,18.8-52.7,18.8c-216.7,0.1-433.5,0-650.2,0.1c-26,0-52.1,0.8-77.9-0.2
		c-23.8-1-42,2.8-58.6,11c-14.6,7.2-30.7,13.7-46.3,20.4c-30.1,12.9-48.8,12.8-79-0.3c-4.1-1.8-7.7-3.8-11.6-5.7
		c4.7,0.2,9.5,0.1,14,0.7c14.7,1.9,26.6,1.2,39.1-4.5c22.5-10.2,47.3-19,70.9-28.5c2.8-1.1,3.9-3.4,5.7-5.1
		c9.3-0.7,18.6-2.1,27.9-2.1c150.2-0.1,300.5-0.2,450.7,0c36.1,0.1,72.2,1.8,108.3,1.7c64.2-0.2,128.3-1.1,192.5-1.9
		c20.6-0.2,36-6.4,38.9-16.9c2.7-9.5,2.4-19.1,3.4-28.7c0.2-13.8,0.3-27.6,0.5-41.3c10.4-0.6,16.2,0.6,16.4,7
		c0.5,14.6,2.2,29.2,4,43.8c0.4,3.1,3.2,6.1,4.9,9.2c0.1,6.1,0.2,12.2,0.4,18.3C1894.8,460.9,1894.4,462.4,1894,463.9z"/>
	<path class="st2" d="M755.4,159.1c5,2.3,10.6,4.4,14.8,7.1c10.3,6.5,4.7,12.9-11.8,13.9c-4.7,0.3-9.6,0-14.3,0
		c-209.9,0-419.8,0-629.8,0c-29.1,0-31.8,1.3-31.9,15.8c0,40,0.1,80,0.1,119.9c0,3.8-0.7,7.5-1.2,11.3c-1.4,0-2.8-0.1-4.2-0.1
		c0-40.6,0.1-81.1-0.3-121.7c0-3.5-2.7-7.1-4.1-10.6c-0.5,0.2-1.5,0.5-1.4,0.5c0.4,0.5,1,0.9,1.6,1.4c0,3.5,0,7,0,10.5
		c-5.4,0-10.7,0.1-16.1,0.1c-0.3-9.8-0.7-19.5-1-29.3c2.9-12.8,22.9-12.1,40.2-12.1c163.8-0.2,327.6-0.1,491.4-0.1
		c43.1,0,86.1-0.3,129.2,0.1C731.9,166,744.9,164.8,755.4,159.1z"/>
	<path class="st3" d="M1869.1,422.5c-1,9.6-0.7,19.2-3.4,28.7c-3,10.5-18.3,16.6-38.9,16.9c-64.2,0.7-128.3,1.7-192.5,1.9
		c-36.1,0.1-72.2-1.7-108.3-1.7c-150.2-0.2-300.5-0.1-450.7,0c-9.3,0-18.6,1.4-27.9,2.1c-1.5-4.3-3-8.6-4.6-13
		c1.1-0.7,2.2-1.4,3.3-2c2,0.1,4.1,0.3,6.1,0.3c252.9,0,505.9,0,758.8-0.1c5.7,0,11.4-1.3,17.1-2c3.9-6,8.6-11.9,11.3-18
		c1.9-4.2,0.9-8.7,1.2-13C1850.1,422.5,1859.6,422.5,1869.1,422.5z"/>
	<path class="st4" d="M861.6,483.8c-8.8-0.4-17.6-1.1-26.4-1.1c-240,0-479.9-0.2-719.9,0.2c-27.1,0-47.9-3.6-63.2-14.8
		c2.9-1.4,5.8-2.8,8.6-4.3c4,0,8.1,0,12.1,0.1c0,0.7,0.1,1.3,0.2,2c1.4,1.3,2.7,2.6,4.1,4c22.4-0.6,44.9-1.8,67.3-1.7
		c51.9,0.3,103.7,1.7,155.6,1.7c60.1,0,120.1-1.6,180.2-1.7c113.6-0.3,227.2-0.1,340.8-0.1C834.6,473.3,848.1,478.6,861.6,483.8z"/>
	<path class="st5" d="M755.4,159.1c-10.6,5.7-23.5,6.9-38.7,6.8c-43-0.4-86.1-0.1-129.2-0.1c-163.8,0-327.6-0.1-491.4,0.1
		c-17.3,0-37.3-0.7-40.2,12.1c-6-0.9-12-1.8-19-2.8c-3.4,5.8-6.8,11.6-10.1,17.4c-0.6-5.5-2.1-11-1.5-16.4
		C27,159.7,45.4,151,78,150.9c96.6-0.1,193.1,0,289.7,0c118.5,0,236.9,0.1,355.4-0.1C737.6,150.8,748.3,152.7,755.4,159.1z"/>
	<path class="st2" d="M1840.1,180.5c-68.5-0.1-137-0.4-205.4-0.4c-139.7-0.1-279.5-0.2-419.2,0.2c-19.8,0.1-34.5-2.6-45.1-10.9
		c5.7-9.3,20-3.4,29.1-3.4c202.9-0.4,405.8-0.4,608.7-0.2c9.3,0,18.6,1.3,27.9,2C1837.4,172,1838.8,176.2,1840.1,180.5z"/>
	<path class="st6" d="M1836.1,167.8c-9.3-0.7-18.6-2-27.9-2c-202.9-0.1-405.8-0.2-608.7,0.2c-9.1,0-23.5-6-29.1,3.4
		c-4.6-4.5-9.2-8.9-13.8-13.4c8.8-1.7,17.6-4.8,26.5-4.8c210-0.3,420-0.3,630,0c12,0,24,3.1,36,4.8c0,1.1,0,2.2,0,3.3
		C1849,163.7,1849.3,168.3,1836.1,167.8z M1835.4,158.3c0-0.5-0.1-1-0.1-1.5c-220.8,0-441.5,0-662.3,0c0,0.5,0,1,0,1.5
		C1393.8,158.3,1614.6,158.3,1835.4,158.3z"/>
	<path class="st7" d="M993.6,18.8c19.9,5.3,39.7,10.6,59.6,15.9c-0.7,2.3-1.4,4.7-1.3,4.4c-16,3.2-31,6-45.5,9.3
		c-12.1,2.8-23.5,6.3-35.2,9.5c-3.4-4.2-6.8-8.5-10.2-12.7c-6.2-6-13.2-5.3-20.7-0.7c-5.4,2.4-10.7,4.7-16.1,7.1
		c-0.3,3.4-0.7,6.9-1,10.3c0.2,5.6,0.5,11.1,0.7,16.7c-26.7,8.3-53.4,16.6-80.1,24.8c-18.5,5.7-37,11.4-56.3,17.3
		c-3.1-6.3-5.2-10.7-7.4-15.2c1.4-6.1,3.2-12.2,4-18.3c1.4-10,11-13.2,30.7-9.3c0-2.3,0-4.5,0-6.6c1.5,0.7,2.9,1.4,4.4,2.1
		c8.2-3.2,16.2-6.6,24.6-9.6c10-3.5,20.3-6.9,30.6-10.1c3.9-1.2,8.6-1.8,12.4-3.1c11.8-4,23.4-8.3,37.4-13.2
		c0.4,0.7-0.8-1.3-2.5-4.1c10.8,0.4,19.8,0.8,28.7,1.1c0.1-0.7,0.3-1.4,0.4-2.2c-3.5-0.8-7.1-1.5-8.6-1.8
		C958.6,26.7,976.1,22.8,993.6,18.8z"/>
	<path class="st3" d="M73.1,466c-0.1-0.7-0.2-1.3-0.2-2c9.7-2.2,19.5-4.4,29.2-6.6c89-0.6,177.9-1.1,266.9-1.7
		c2.4,2,4.8,3.9,7.2,5.9c3.1-2,6.1-3.9,9.2-5.9c46.6,0,93.2,0,139.8,0c1.3,1.1,2.5,3.2,4,3.2c27.6,0.9,55.3,2.1,83,2.3
		c46,0.3,92,0,138.1,0c29.4,0,59.4,3.1,87.5-4.1c1.3,0.2,2.7,0.3,4,0.5c3.4,3.7,6.8,7.4,9.5,10.3c-10.5,0-20.3,0-30.1,0
		c-113.6,0-227.2-0.2-340.8,0.1c-60.1,0.2-120.1,1.7-180.2,1.7c-51.9,0-103.7-1.4-155.6-1.7c-22.4-0.1-44.8,1.1-67.3,1.7
		C75.8,468.6,74.4,467.3,73.1,466z"/>
	<path class="st8" d="M1075.4,332c-0.6,0.5-1.1,1.1-1.5,1.6c-2.2,2.7-4.5,5.3-6.7,8c0.9,0.2,1.7,0.4,2.6,0.6
		c1.8-0.8,3.7-1.7,5.5-2.5c0.3,2,0.6,4.1,0.8,6.1c-1.6,6.9-3.2,13.9-5,21.6c-5.1-3.9-9.1-6.9-14.1-10.6c-3.2,3.2-5.6,5.7-7.9,8
		c-3.5-1.4-5.8-2.4-8.7-3.6c-3.8,4.4-7,8-10.1,11.6c-1.8-3.6-3.7-7.2-5.7-11.1c-11.1,0-21.7,0-34.3,0c-1.8,12-3.6,23.5-5.3,35.1
		c-16.2,0.4-32.5,0.7-48.7,1.1c-2.7-2.2-8.2-4.6-7.7-6.6c6.2-23.4,13.2-46.8,20-70.2c0,11.2,8.8,15,29.1,11.9
		c5.8-0.9,10.2-3.9,15.3-5.9c0.6,5.5,0.3,11,16.9,10.4c15.8-0.6,10.6-6,11-10.3c10.1,1.1,20.1,2.2,30.8,3.4
		c-1.2-4.1-2.5-8.2-3.7-12.4c7.3-1.3,13.5-2.4,19.7-3.6c1.3,1.4,2.6,2.8,3.9,4.2c-0.3,1.4-0.6,2.8-1,4.2c0.3,1.4,0.6,2.7,0.8,4.1
		c0,0,1.9-0.1,1.9-0.1C1074.1,328.7,1074.8,330.3,1075.4,332z M1058.5,320.7c-0.9,0.1-1.9,0.1-2.8,0.2c0.4,1.4,0.9,2.8,1.3,4.2
		c0.8-0.1,1.6-0.1,2.4-0.2C1059.1,323.5,1058.8,322.1,1058.5,320.7z"/>
	<path class="st9" d="M832.3,171.7c-1-0.6-2.1-1.1-3.1-1.7c9.8-8,12.1,3.3,21.2,1.6c-6.8-11.5,12.5-13.2,26.9-17.1
		c4.2-1.1,8.9-2.1,12-3.8c16.3-9.1,35.8-14.9,65.4-14.4c-6.6-4.5-10.5-7-14.3-9.6c2.8,0,5.6,0,8.4,0.1c1.3-0.1,2.7-0.3,4-0.4
		c0,0,0.2-0.1,0.2-0.1c2.1-0.2,4.2-0.5,6.3-0.7c0.7-1.9,1.5-3.7,2.2-5.6c2.5,1.4,5.1,2.8,7.6,4.1c-0.5,0.9-1,1.8-1.5,2.7
		c0.5-0.9,1-1.8,1.5-2.7c3.7,0.7,7.4,1.5,11,2.2c-1.1-0.8-2.2-1.5-3.3-2.3c14.6-4.8,29.2-9.6,43.8-14.5c29.5-9.9,67.7-15.2,78.9-35
		c3.3-5.9-0.6-12.8-1.2-19.3c10.7,9.6,21.4,19.3,32.2,28.9c-18,4.6-5.3,12.9-9.3,19.2c-11.3,1.9-22.9,3.6-33.9,5.9
		c-42.8,9.2-71.8,30-118.5,35.9c-12.2-4.7-25.8-8-38.5-1.6c-11.4,5.7-8.1,12.6,1.2,18.7c-26.6,2.6-45.4,11.6-65.2,19.9
		c-4.5-0.6-9.1-1.2-13.6-1.8c0,0,0.3,0.6,0.3,0.6c-0.3-0.6-0.7-1.2-1-1.8c-0.8,0.5-1.7,0.9-2.5,1.4c-2.6-1-5.1-1.9-7.7-2.9
		c-0.9-0.6-1.9-1.3-2.8-1.9c0,0-0.9-0.2-0.9-0.2s0-0.5,0-0.5C836.1,174,834.2,172.9,832.3,171.7z"/>
	<path class="st10" d="M349,360.3c-1.2,1.5-2.3,2.9-3.5,4.4c-0.9,0.1-1.6,0-2.3-0.3c-0.9-1.3-1.8-2.7-2.7-4c0,0,0-0.1,0-0.1
		c1.3-7.5,2.6-15.1,3.8-22.6c0-10.3-0.1-20.7-0.1-31c-1.3-9.8-2.6-19.7-3.8-28.3c-11.7,2.3-19.4,3.9-27.2,5.4
		c-7,1.4-13.9,2.7-20.9,4.1c-3.8-16.5-8.2-18.7-37.6-16.6c0,13,0,26.4,0,39.7c-2.9-5.5-5.8-11-8.7-16.5c-1.8,0-3.7-0.1-5.5-0.1
		c-1.7,4.7-3.4,9.4-5.1,14.1c-0.9,0-1.8,0-2.7-0.1c0-5.6,0-11.3,0-17.3c-10.2,1.7-18.2,3.1-28.2,4.8c0,11.8,0,23.7,0,35.7
		c-1.2,9.7-2.3,19.4-3.5,29.1c-0.6-6.2-1.1-12.4-1.7-18.6c0-6.9,0-13.9,0.1-20.8c0-2,0-4.1,0-6.1c0-18,0-36,0-54
		c0.7-4.7,1.5-9.3,2.5-15.3c20.7,0,40.2,0,59.8,0c4.3,0,8.6,0,12.9,0.1c6.7,0.2,13.5,0.5,20.2,0.7c9.6,2.1,19.2,4.2,28.7,6.3
		c6.6,5,13.2,10.1,19.8,15.1c-0.4,0.6-0.1,1.1,0.9,1.5c1.3,9.2,3.5,18.3,3.9,27.5C349,317.9,348.8,339.1,349,360.3z"/>
	<path class="st11" d="M1121.1,103.4c4-6.3-8.8-14.6,9.3-19.2c0,0,0,0.2,0,0.2c1,2.1,2,4.3,3,6.4c1.4,12.5,2.8,25,4.1,37.4
		c-5.5,1-11.1,2-14.4,2.6c-21.8,14.1-40.5,30-66.3,41.9c-37.8,17.5-86.1,22.4-137.1,19.6c2.1-6.2,4.1-12.3,5.6-16.6
		c20.2-3.3,41.2-4.7,57.8-9.8c37.7-11.6,73.8-24.5,109.3-37.7c11.5-4.3,19.3-11.1,28.8-16.7C1121.2,108.9,1121.2,106.2,1121.1,103.4
		L1121.1,103.4z M975.8,174.5c-0.5-0.6-0.6-1.5-1.4-1.7c-0.8-0.2-2.2,0.4-3.4,0.6c0.5,0.6,0.6,1.5,1.4,1.7
		C973.2,175.2,974.6,174.7,975.8,174.5z"/>
	<path class="st12" d="M1724.1,300.4c-6.1,6.6-12.1,13.2-19.1,20.8c18.8,7.5,19.8,19.8,19.9,32.1c0,13.4,0,26.7,0,40.1
		c-1.3-11.8-2.4-23.6-3.8-35.4c-0.6-5.6-1.6-11.2-2.4-16.3c-15.2,2.2-27.7,4-42.5,6.1c-1.6,12.2-3.2,25.1-4.8,37.9
		c-0.9-0.3-1.8-0.5-2.8-0.7c-0.3-13.7-0.6-27.5-0.9-41.2c2.6-10.8-10.1-12.9-27.6-12.2c-0.7,2.7-1.5,5.3-2.2,8
		c-0.1,1.4-0.2,2.8-0.3,4.2c-9.7-0.3-19.3-0.7-31.3-1.1c0-7.9,0-15.6,0-23.4c-1.4,0-2.7,0-4.1,0.1c0,2.6,0,5.2,0,7.8
		c-6.2-0.7-12.4-1.5-18.6-2.2l-2,0.2c0-2.1,0-4.1,0-6.2c0.7-2.8,1.3-5.6,2-8.5c5.9-11,22.2-20.6,18.6-33c0-4.7,0-9.5,0-14.2
		c1.4,0,2.7,0,4.1,0.1c0,3.3,0,6.6,0,10c0,8.1-0.9,16.2,0.6,24.3c0.5,2.4,7.6,4.6,11.7,6.8c0.6,0.2,1.1,0.3,1.7,0.5
		c-0.6-0.2-1.1-0.3-1.7-0.5c0-0.7,0-1.4,0-2.1l0,0c5.3,0,10.7,0,16,0c5.5,1.2-12.2,7.3,5,6c14.2,0.8,25.8-0.8,31.4-8.3
		C1688.7,300.2,1706.4,300.3,1724.1,300.4z"/>
	<path class="st13" d="M77.2,327c1.4,0,2.8,0.1,4.2,0.1c0.4,42.1,0.8,84.1,1.2,126.2c-9.9-1.3-19.9-2.6-29.8-3.9
		c1.3-13.1,2.5-26.2,3.8-39.3c0-18-0.1-35.9-0.1-53.9c0-13.1,0-26.2,0-39.3c0-13.1,0.1-26.2,0.1-39.4c-1-12.4-2.1-24.8-3.1-37.2
		c0-9.7,0-19.3,0-29c1.2-1.4,2.4-2.7,3.7-4.1c5.4,0,10.7-0.1,16.1-0.1c0,36.4,0,72.8,0.3,109.3C73.3,319.9,75.8,323.4,77.2,327z"/>
	<path class="st14" d="M628,265c1.1-0.5,1.4-1.2,1-1.9c1.3-1.4,2.6-2.8,4-4.3c3.7-2.3,7.5-4.6,11.2-6.9c0.9-0.5,1.9-0.9,2.8-1.4
		c1.9-0.7,3.8-1.4,5.7-2.1c5.7-1.4,11.4-2.7,17.1-4.1c15.6,0,32.4-1.9,46.3,0.5c14.9,2.5,27,9.1,40.3,13.9c1,0.7,2,1.4,2.9,2.1
		c0,0-0.1-0.1-0.1-0.1c1.4,2.1,2.8,4.2,4.2,6.3c-0.4,0.7-0.2,1.3,0.6,1.9c-0.1,8.3-0.2,16.6-0.3,24.9c-13.7,0.1-27.5,0.2-41.2,0.3
		c-2.8,0-5.5,0-8.3,0c-1.2-0.2-2.4-0.4-3.6-0.4c-1.1-5.6-2.3-11.3-3.4-16.9c0,0,0.6-0.4,0.6-0.4c-4.7-2.6-9.3-5.3-13.9-7.9
		c-4.2,3.6-8.5,7.2-12.7,10.7c-0.8,2.8-1.6,5.5-2.5,8.3c-18.1,0-36.1,0-54.2,0c-0.2-4.8-0.5-9.7-0.7-14.5c0.8-0.5,1-1,0.4-1.5
		C625.5,269.5,626.7,267.3,628,265z"/>
	<path class="st15" d="M1098.2,55.3c0.6,6.5,4.6,13.4,1.2,19.3c-11.2,19.8-49.4,25.1-78.9,35c-14.5,4.9-29.2,9.6-43.8,14.5
		c1.1,0.8,2.2,1.5,3.3,2.3c-3.7-0.7-7.4-1.5-11-2.2l0,0c-2.5-1.4-5.1-2.8-7.6-4.1c2.4-11.1,4.8-22.2,7.2-33.2
		c2.9-2.7,5.8-5.5,8.6-8.2c15.7,4.4,26.3-0.1,37.8-4.8c10.7-4.4,23-7.9,34.7-11.7c12.6-4.2,25.3-8.3,38-12.4
		c0.9,0.3,1.1,0.8,0.8,1.3c3,1.5,6.1,3,9.1,4.5C1097.7,55.4,1098.2,55.3,1098.2,55.3z"/>
	<path class="st16" d="M993.6,18.8c-17.5,4-35,7.9-51.4,11.6c1.6,0.3,5.1,1.1,8.6,1.8c-0.1,0.7-0.3,1.4-0.4,2.2
		c-8.9-0.4-17.9-0.7-28.7-1.1c1.7,2.8,2.9,4.8,2.5,4.1c-13.9,5-25.5,9.2-37.4,13.2c-3.8,1.3-8.5,1.9-12.4,3.1
		c-10.3,3.3-20.7,6.6-30.6,10.1c-8.5,3-16.4,6.4-24.6,9.6c-1.5-0.7-2.9-1.4-4.4-2.1c0,2.1,0,4.3,0,6.6c-19.6-3.9-29.3-0.7-30.7,9.3
		c-0.8,6.1-2.6,12.2-4,18.3c-1.9,1.4-3.9,2.9-5.8,4.3C764.5,80.5,803.4,42,858.5,27C901.3,15.3,945.9,10.2,993.6,18.8z M811.8,62.9
		c-0.5,0.6-1,1.1-1.5,1.7c1.1,0.2,2.5,0.8,3.3,0.6c0.8-0.2,1-1.1,1.5-1.6C814,63.4,812.9,63.1,811.8,62.9z"/>
	<path class="st17" d="M201.1,360.4c1.2-9.7,2.3-19.4,3.5-29.1c4.1,0,8.2,0,12.3,0c0,2.7,0,5.5,0,8.2c0,2.8,0,5.5,0,8.3
		c1.3,9.7,2.7,19.3,4,29c1.8-4.9,1.6-13.4,5.9-14c23.7-3.4,11.8-12.5,14.7-19.1l0,0c1.4,0,2.7,0,4.1,0c0,1.4,0,2.8,0,4.1
		c4.1,9.7-2.8,18.3-15.6,28.3c10.6-4.5,16.6-7.1,22.7-9.6l1.2,0.2l1.3,0c3.8,2.4,7.5,4.9,11.3,7.3c4-0.4,8-0.8,12-1.2
		c4.3-3.5,8.7-7,13-10.5c1.3-0.7,2.5-1.4,3.8-2c15.1-0.1,30.1-0.1,45.2-0.2c0,0,0,0.1,0,0.1c0.9,1.3,1.8,2.7,2.7,4
		c0.6,0.3,1.4,0.4,2.3,0.3c-0.5,2.7-0.9,5.4-1.4,8.1c-9.6,6.8-19.2,13.6-28.8,20.5c-2.8,0.6-5.7,1.2-8.5,1.8
		c-1.1,0.2-2.1,0.5-3.2,0.7c0,0-0.3,0.1-0.3,0.1c-4.4,0.6-8.8,1.2-13.2,1.7c-9.3,0.1-18.7,0.3-28,0.4c-10.9,0-21.9,0-32.8,0
		c-2.8,0-5.5,0-8.3,0c-1.4,0-2.7,0-4.1,0c-5.4-0.2-10.7-0.4-16.1-0.6C200.9,385,201,372.7,201.1,360.4z M336,368.1
		c0.5-0.1,1.1-0.3,1.6-0.4c-0.5-0.2-0.9-0.5-1.4-0.5c-0.5,0-1.1,0.3-1.6,0.4C335,367.7,335.5,367.9,336,368.1z"/>
	<path class="st18" d="M710.1,399.6c-5.4,0.1-10.9,0.3-16.3,0.4c-5.5-0.1-11-0.2-16.5-0.4c-2.5-0.3-5.1-0.6-7.6-0.9
		c-11.2-3.8-22.3-7.6-33.5-11.5c0,0,0,0,0,0c-1.3-0.7-2.7-1.4-4-2.1c0,0,0,0,0,0c-2.5-4.4-5.1-8.9-7.6-13.3c0.2-1.8,0.4-3.6,0.6-5.5
		c4.2-1.9,8.1-5.2,12.7-5.5c12.7-0.8,25.8-0.5,38.7-0.5c0,0,1.3,0.2,1.3,0.2l1.4,0c0.3,2,0.6,4,0.9,6c-0.9,0.7-1.9,1.4-2.8,2
		c-0.3,0.3-0.6,0.6-0.9,0.9c0.3-0.3,0.7-0.6,1-0.8c1.1,0,2.2,0,3.3,0c4.2,2,10.6,6,12.2,5.6c6.7-1.8,11.9-5,17.7-7.6
		c10.8-2.1,10.8-2.1,4.9-14.2c17.6-2.4,35.8-5.8,50.1,3.6c0.6,1.4,1.3,2.8,1.9,4.3c-0.7,0-1.4,0-2.1-0.2c-1.6,5.6-3.3,11.3-4.9,17
		c-1.3,2.1-2.5,4.2-3.8,6.3c0,0-0.8,0.2-0.8,0.2c-2.3,1.9-4.7,3.8-7,5.7c-1,0.4-1.3,0.8-0.9,1.4
		C735.2,393.6,722.6,396.6,710.1,399.6z M757,357.4c-1.2-0.2-2-0.3-2.7-0.4c0.1,0.3,0.3,0.5,0.4,0.8
		C755.2,357.6,755.8,357.5,757,357.4z"/>
	<path class="st19" d="M774.2,109.8c1.9-1.4,3.9-2.9,5.8-4.3c2.2,4.5,4.4,8.9,7.4,15.2c19.3-5.9,37.8-11.6,56.3-17.3
		c26.7-8.3,53.4-16.5,80.1-24.8c1,5.6,2,11.1,2.9,16.7c0.2,2,0.4,4,0.6,6c0.1,1.4,0.1,2.8,0.2,4.2c-10.1,3.6-19.9,7.5-30.4,10.7
		c-24,7.4-49.5,13.8-72.1,22.2c-10.3,3.9-18.3,7.6-31.7,6.3C787.1,133.1,780.6,121.5,774.2,109.8z"/>
	<path class="st17" d="M471.8,389.3c-0.1-0.7-0.3-1.4-0.4-2.1c3.1-0.1,6.3-0.3,13.5-0.6c-9.7-5.5-17.1-9.7-24.6-14
		c-0.4-3.3-0.9-6.6-1.3-9.9c3.8-1.5,7.1-3.8,11.4-4.4c11.1-1.6,22.6-2.6,36.3-4.1c-1.9,3-4,6.6-6.2,10.1c-1.3-1.1-2.7-2.2-4-3.3
		c-0.8,0.4-1.7,0.8-2.5,1.3c2.2,0.7,4.3,1.4,6.5,2.1c3.9,1.4,7.8,2.7,11.8,4.1c1.7,1.8,3.5,3.6,5.2,5.4c6.7,0.3,13.4,0.6,20,0.9
		l0.2-0.1c1.3-0.7,2.6-1.5,3.9-2.2c0.5-0.6,1-1.3,1.5-1.9c5.6-5.5,11.1-10.9,19.2-18.9c8.4,0.5,22.7,1.4,36.9,2.3
		c-0.1,3.5-0.3,6.9-0.4,10.4c-1,3-2,6-2.9,9c-8.7,7.3-17.4,14.5-26,21.8c0,0,0.1-0.1,0.1-0.1c-8.1,1.4-16.2,2.9-24.3,4.3
		c-2.7,0.1-5.4,0.3-8.1,0.4c-8.2-0.1-16.4-0.2-24.6-0.3c-2.6-0.2-5.1-0.5-7.7-0.7c-5.9-1.1-11.8-2.2-17.7-3.2
		c-2.4-0.8-4.9-1.7-7.3-2.5C477.4,391.9,474.6,390.6,471.8,389.3z"/>
	<path class="st20" d="M821.1,468.1c9.8,0,19.6,0,30.1,0c-2.7-3-6.1-6.6-9.5-10.3c20.7,7.3,42.4,14,61.7,22.1
		c45.5,19.2,35.5,18,79-0.1c19.2-8,40.1-15,60.3-22.4c1.5,4.3,3,8.6,4.6,13c-1.9,1.7-2.9,4-5.7,5.1c-23.6,9.6-48.4,18.4-70.9,28.5
		c-12.5,5.6-24.4,6.4-39.1,4.5c-4.5-0.6-9.3-0.5-14-0.7c-18.7-8-37.3-16-56-24C848.1,478.6,834.6,473.3,821.1,468.1z"/>
	<path class="st15" d="M793.5,144.7c13.3,1.3,21.4-2.4,31.7-6.3c22.5-8.4,48.1-14.8,72.1-22.2c10.5-3.3,20.3-7.1,30.4-10.7
		c2.5,7.3-4.5,16.1,12.7,21.2c3.8,2.6,7.7,5.2,14.3,9.6c-29.6-0.5-49.1,5.3-65.4,14.4c-3,1.7-7.8,2.7-12,3.8
		c-14.3,3.8-33.6,5.5-26.9,17.1c-9.1,1.8-11.3-9.6-21.2-1.6C817.3,161.6,805.4,153.2,793.5,144.7z"/>
	<path class="st21" d="M919.7,192.5c51,2.8,99.3-2.2,137.1-19.6c25.8-11.9,44.4-27.8,66.3-41.9c3.3-0.6,8.8-1.6,14.4-2.6
		c-3.8,35.6-74.3,70.7-149.8,74.6c-44.4,2.3-85.7-1.7-122.3-15.1c-5.1-1.9-8.6-4.8-12.8-7.3c4.5,0.6,9.1,1.2,13.6,1.8
		C878.8,192.7,901.9,189,919.7,192.5z"/>
	<path class="st10" d="M1557,248.5c0.1,1.4,0.1,2.7,0.2,4.1c-0.7,6-1.4,12-2.2,18.8c-16.3,0-31.2-0.6-45.8,0.3
		c-6.1,0.4-11.5,3.8-17.2,5.8c-42.3-0.4-42.3-0.4-50.3-16.9c0,17.7,0,32.8,0,47.9c0,11.7-0.1,23.5-0.1,35.2c0,7.6-0.1,15.2-0.1,22.8
		c0,2.8-0.1,5.5-0.1,8.3c-0.1,20.9-0.1,20.7,40.3,20.9c20.9,0.1,41.8,1,62.7,1.5c-35.3,0-70.5,0-107.2,0c0-4.7,0-8.5,0-12.2
		c-0.2-44.1-0.3-88.3-0.5-132.4c0-1.4,0.1-2.7,0.1-4.1c3.5-0.8,7-2.3,10.4-2.3c36.4,0,72.8,0.3,109.3,0.5c0,0-0.3-0.1-0.3-0.1
		C1556,247.3,1556.2,247.9,1557,248.5z"/>
	<path class="st13" d="M1894.9,441.2c-1.7-3.1-4.5-6.1-4.9-9.2c-1.8-14.6-3.6-29.2-4-43.8c-0.2-6.4-6.1-7.6-16.4-7
		c-1.4-6.2-2.7-12.4-4.1-18.6c1.2-15.2,2.5-30.5,3.7-45.7c0-13.1,0.1-26.3,0.1-39.4c2.6-1.7,7.2-3.2,7.5-5c2-11.9,3.1-23.8,4.6-35.7
		c0.3-2.6,1.4-5.2,2.1-7.9c2.2,0.1,4.3,0.1,6.5,0.2c0,3.2,0,6.4,0,9.7c0,15.4-0.2,30.9,0.3,46.3c0.1,3.1,3.2,6.2,4.9,9.3
		C1895.1,343.2,1895,392.2,1894.9,441.2z"/>
	<path class="st10" d="M1606.2,273.3c0-3.3,0-6.6,0-10c-1.4,0-2.7,0-4.1-0.1c0,4.7,0,9.5,0,14.2c-4-4.7-8.1-9.4-10.3-12
		c-2.1,4.6-5.3,11.4-8.4,18.2c-0.7-10.4-1.3-20.7-2-31.1c5.4-2.4,10.7-4.8,16.1-7.2c4.4,0,8.9,0,13.3,0c10.7,0,21.3,0,32,0
		c5.7,0,11.5,0.1,17.2,0.1c6.7,0.3,13.5,0.6,20.2,0.9c19.1,4.2,38.5,8.1,41,20.7c-8.2,0.7-16.6,1-24.6,2.2
		c-8.9,1.3-17.4,3.4-26.1,5.1c-21.7-8.8-29.6-8-33,3.2c-15.3-0.3-1.3-5.2-4.6-7.7c-2.1-1.7-0.4-4.6-0.4-7c-1.6,0.1-3.1,0.1-4.7,0.2
		c-2.4,4.5-4.9,8.9-6.5,11.8C1615.2,274.2,1610.7,273.8,1606.2,273.3z"/>
	<path class="st14" d="M1405.1,254.7c0,0.7,0,1.4,0,2.1c-0.6,10.4-1.2,20.7-1.7,31.1c-2.9-0.8-5.8-1.5-9.7-2.5
		c-0.9,2.4-1.7,4.6-2.8,7.6c-9.5-6.5-32.8,8.3-33.1-10.6c-2.4,15.5-4.3,27.1-6.1,38.7c-0.2-11-0.4-21.9-0.6-32.9
		c-2.3-6.5-4.5-13-7.4-21.4c-6.3,5.9-10.3,9.6-13.8,12.9c-3.4-5-6.5-9.7-9.7-14.4c-0.4-1.4-0.7-2.8-1.1-4.1
		c8.4-4.4-4.2-14,15.2-15.6c3,0,6.1,0.1,9.1,0.1c14.1,0.2,28.3,0.9,42.4,0.4C1399.6,245.4,1406.3,247.5,1405.1,254.7z M1376.9,284
		c1-0.1,2-0.1,2.9-0.2c-0.4-1.4-0.8-2.9-1.3-4.3c-0.8,0.1-1.6,0.1-2.4,0.2C1376.4,281.1,1376.7,282.5,1376.9,284z"/>
	<path class="st14" d="M1058.9,270.2c0.4,2.4,0.9,4.8,1.3,7.2c-0.3,2.1-0.5,4.2-0.8,6.3c-14.1-2-28.2-4-43.3-6.2
		c-1.2,4.3-1.9,6.6-2.5,8.9c-1.7-2.6-3.4-5.2-5.8-8.9c-1.9,5.2-3.3,9.2-4.7,13.2c-0.6-3.7-1.2-7.3-1.9-11.9
		c-8.5,3.9-16.2,7.5-23.8,11l0,0c1.3-4.9,2.6-9.7,3.4-12.4c-7.3,0-13.6,0-19.8,0c0.9-6.2,1.9-12.5,2.8-18.7c0.4-0.7,0.8-1.5,1.2-2.2
		c1.1-0.3,2.1-0.6,3.2-0.9c-1-0.3-2.1-0.7-3.1-1c0,0,0,0,0,0c0.8-5.1,3.9-9.2,16.1-9.2c3,0,6,0,9,0c20.4,0.4,40.7,0.7,61.1,1.1
		c1.4,4.1,2.8,8.1,4.2,12.2C1056.5,262.6,1057.7,266.4,1058.9,270.2z"/>
	<path class="st22" d="M1441.7,343.7c0-11.7,0.1-23.5,0.1-35.2c12.1-1.9,27.8,4.1,37-4.3c12.3-0.2,23.9,8.6,36.8,0.8
		c9.6-0.3,19.2-0.6,28.8-0.9c1.3,0.4,2.6,0.8,3.9,1.1c0.3,8,0.6,16.1,0.9,24.1l-0.1,0c-10.9,0.2-21.9,0.3-32.8,0.5
		c-1.6,0.3-3.1,0.7-4.7,1c-10.2-0.9-20.8-2.1-16.9,6.4c-0.7,0.6-1.4,1.3-2.1,1.9c-0.9-0.1-1.8,0-2.6,0.2
		C1473.9,341,1457.8,342.4,1441.7,343.7z"/>
	<path class="st17" d="M915.9,376.9c-1.3,5.1-1.9,10.2-4.2,15.1c-1,2.1-5.4,3.9-8.3,5.8c-22.5-0.1-45.1-0.1-67.6-0.5
		c-14.5-0.3-28.9-1.2-43.4-1.8c6.6,0,13.2,0,15.6,0c-1.1-7.9-2.2-15.4-3.2-22.8c5.6-4.5,11.2-9.1,16.8-13.6c2.3,1.2,4.6,2.3,6.9,3.5
		c0.7,1.4,1.5,2.8,2.2,4.3c4.2-2.5,7.6-4.5,11-6.5l1.7,0c0,0,1.7,0,1.7,0c3,3.6,6,7.2,9,10.9c11.1,0,22.3,0,33.4,0
		C895.9,374.5,912.2,367.6,915.9,376.9z M827.2,393.8c-0.6,0.3-1.2,0.7-1.7,1c18.8,0,37.7,0,56.5,0c0-0.3,0-0.7,0-1
		C863.7,393.8,845.4,393.8,827.2,393.8z"/>
	<path class="st23" d="M1895.2,294.3c-1.7-3.1-4.8-6.2-4.9-9.3c-0.5-15.4-0.3-30.9-0.3-46.3c0-3.2,0-6.4,0-9.7
		c-2.2-0.1-4.3-0.1-6.5-0.2c-0.7,2.6-1.7,5.2-2.1,7.9c-1.5,11.9-2.6,23.8-4.6,35.7c-0.3,1.8-4.9,3.3-7.5,5c-1.3-2.7-2.7-5.5-4-8.2
		c1.3-16.6,2.5-33.2,3.8-49.8c0.1-18,0.2-36,0.3-54c8.9,6.9,25.1,13.7,25.6,20.8C1897.2,222.1,1895.5,258.2,1895.2,294.3z"/>
	<path class="st17" d="M1111.2,393.4c0-5.6-0.1-11.1-0.1-16.7c0-5.5,0.1-11,0.1-16.4l1.8,0c2.3-3.8,4.5-7.5,7.5-12.4
		c14.6,0,30,0,45.4,0c0,16.3,0,32.6,0,49.6c-19.1,0-36.1,0-53,0c0,0,0.1,0,0.1,0C1112.5,396.2,1111.8,394.8,1111.2,393.4z"/>
	<path class="st17" d="M1671.3,385.7c1.6-12.9,3.3-25.7,4.8-37.9c14.9-2.1,27.3-3.9,42.5-6.1c0.8,5,1.8,10.6,2.4,16.3
		c1.4,11.8,2.5,23.6,3.8,35.4c-2.6,1.5-5.1,3-7.7,4.5c-8.1-0.2-16.4-0.9-24.4-0.4C1673.5,398.8,1668.5,394.3,1671.3,385.7z"/>
	<path class="st19" d="M1087.8,49.7c-12.7,4.1-25.4,8.3-38,12.4c-11.6,3.8-23.9,7.3-34.7,11.7c-11.5,4.7-22.2,9.2-37.8,4.8
		c-2.2-5.5-4.4-11.1-6.6-16.6c0.1-1.4,0.2-2.7,0.3-4.1c11.7-3.2,23.1-6.7,35.2-9.5c14.5-3.3,29.5-6.1,45.5-9.3
		c-0.1,0.3,0.6-2,1.3-4.4C1064.7,39.7,1076.3,44.7,1087.8,49.7z"/>
	<path class="st12" d="M524.7,336c-16.6-8.4-33.1-16.9-49.7-25.3c22.9,0,15.5-11.8,25.6-16.7c2.7-1.4,5.4-2.7,8.1-4.1
		c1.4,0,2.8,0,4.1,0c1.5,0,3-0.1,4.6-0.1c1.3,1.3,2.7,2.6,4,3.9c1.3,0.8,2.5,1.6,3.8,2.4l0,0c1.3,0.7,2.5,1.4,3.8,2.1
		c3.4,1.7,6.9,3.4,10.3,5c-2.6,1.3-5.1,2.5-7.7,3.8c1.5,0.6,3.8,1.9,4.3,1.7c2.9-0.9,5.3-2.1,7.9-3.2c4.5,1.3,9,2.6,13.5,3.9
		c1.2,0.5,2.3,1,3.5,1.5c5.6,2.8,11.3,5.7,16.9,8.5c0,0-0.1,0-0.1-0.1c0.9,1.8,1.8,3.6,2.7,5.4c-21,5.5,9.5,7.2,2.1,12.4
		c-6-1.2-13.7-1.8-19.1-3.9C548.2,327.3,536.8,327.8,524.7,336z"/>
	<path class="st12" d="M1351.8,321c1.8-11.6,3.7-23.3,6.1-38.7c0.3,18.9,23.5,4.1,33.1,10.6c1.1-2.9,1.9-5.2,2.8-7.6
		c3.9,1,6.8,1.8,9.7,2.5c0.6,3.4,1.2,6.8,1.7,10.3c0,1.4,0,2.8,0,4.2c-0.6,10.4-1.2,20.7-1.8,31.1c-3.3-4-6.7-8-11.3-13.5
		c0,8.7,0,16.1,0,22.4c-3.8-4-6.4-11.5-12.4-12.3c-18.7-2.4-7.4,8-14.7,11.7c-1.2-4.8-2.2-9.1-3.8-15.3c-3.8,2.8-5.1,3.4-5.1,3.9
		c-0.3,10-0.5,20-0.6,30c-1.3,3.5-2.6,6.9-3.9,10.4c-0.6-0.7-1.1-1.4-1.7-2.2C1350.5,352.7,1351.1,336.8,1351.8,321z"/>
	<path class="st18" d="M385.4,398.1c-1.3-0.3-2.7-0.6-4-0.9c-0.7-0.5-1.5-1.1-2.2-1.6c0-11.7,0.1-23.4,0.1-35.1
		c3.4-1.4,6.8-2.8,10.2-4.3c13.5,0,27,0,40.5,0c1.2,2.1,2.3,4.1,3.5,6.2c0.4,11.1,0.8,22.1,1.3,33.2c0,0-0.7-0.4-0.7-0.4l-1.1,0.1
		c-14.5,0.7-29.1,1.4-43.6,2.2C388.1,397.6,386.7,397.9,385.4,398.1z"/>
	<path class="st24" d="M1013.5,286.4c0.7-2.3,1.3-4.6,2.5-8.9c15.1,2.2,29.2,4.2,43.3,6.2c0.3,1.1,0.5,2.2,0.8,3.3
		c0.9,2.4,1.8,4.8,2.7,7.1c0,0,1.5-0.2,1.5-0.2c0.2,0.7,0.4,1.4,0.6,2.1c0.8,2.1,1.5,4.1,2.3,6.2c0.2,4.2,0.4,8.3,0.5,12.5
		c-6.2,1.1-12.4,2.2-19.7,3.6c1.2,4.2,2.5,8.4,3.7,12.4c-10.7-1.2-20.7-2.3-30.8-3.4C1018.5,313.7,1016,300,1013.5,286.4z"/>
	<path class="st22" d="M845.1,360.3l-1.7,0c0,0-1.7,0-1.7,0c0-9.4,0-18.8,0-31.4c-16,4.6-26.5,7.6-37,10.6c0-3.4,0-6.7,0-10.1
		c-1.6,0-3.3,0-4.9,0.1c0,10.8,0,21.7,0,33.7c-3.6-3.4-5.8-5.4-7.9-7.3c-0.9-2-1.8-4-2.6-6c0-1.4,0-2.8,0-4.3
		c0.9-11.7,1.7-23.4,2.6-35.1c2.8-5.5,5.6-11,8.5-16.4c2.3,0,4.6,0,6.9,0c2.7,10.2,5.3,20.5,8,30.8c8.8-11.3-11.7-26.2,18.9-35.5
		c0,6.7,0,12.8,0,18.9c0.5,0,0.9,0,1.4,0c2-10.3,4.1-20.5,6.1-30.8c0,3.8-0.2,7.5,0.1,11.3c1.1,12.8,2.4,25.6,3.6,38.4
		C845.2,338.3,845.1,349.3,845.1,360.3z"/>
	<path class="st14" d="M517.4,289.8c-1.5,0-3,0.1-4.6,0.1c-1.5-3.6-3-7.2-4.8-11.3c-3.1,1.9-5.1,3.1-7.3,4.4
		c-4.9-2.9-9.5-5.6-17.2-10.1c-2.2,7.7-3.7,13.3-5.3,18.9c-0.9,0-1.8-0.1-2.7-0.1c0-5.4,0-10.7,0-15.5c-4.1,4.5-8.4,9.1-12.7,13.8
		c3.4-11.2,6.9-22.5,10.3-33.7c2.3-1.4,4.6-2.9,6.9-4.3c0.8,0.2,1.6,0.4,2.5,0.4c3.8,0.6,7.7,1.7,11.4,1.6
		c17.3-0.9,34.5-2.1,51.7-3.2c4.1,0,8.2,0,12.4,0c0,0.7,0,1.4,0,2.1c0,1.4,0,2.8,0,4.2c0,0.7,0,1.4,0,2.1
		c-9.7,1.3-20.1,2.2-20.9,8.8c-13.7-0.9-20.1,2.4-20.2,9.1C516.9,281.1,517.2,285.4,517.4,289.8z"/>
	<path class="st17" d="M1030.4,372.8c3.2-3.6,6.3-7.3,10.1-11.6c2.9,1.2,5.2,2.2,8.7,3.6c2.3-2.3,4.7-4.8,7.9-8
		c5,3.7,8.9,6.7,14.1,10.6c1.8-7.8,3.4-14.7,5-21.6c1.1,0.7,2.3,1.4,3.4,2.2c0.3,1.4,0.6,2.7,0.9,4.1c1.2,3,2.4,6,3.6,8.9
		c0.6,3.9,1.2,7.8,1.9,11.7c1.7,7.9,3.4,15.9,5.4,25.2c-16.1,0-30.1,0-44.1,0c-4.8-2.2-12.5-4-13.7-6.6
		C1030.7,385.3,1031.2,379,1030.4,372.8z"/>
	<path class="st24" d="M433.2,270.9c0,13.3-0.1,26.5-0.1,39.8c-17.8-0.7-35.6-1.4-53.5-2.2c-0.1-13.2-0.1-26.4-0.2-39.6
		C397.3,269.5,415.3,270.2,433.2,270.9z"/>
	<path class="st22" d="M1166,347.9c-15.4,0-30.8,0-45.4,0c-3,4.9-5.3,8.7-7.5,12.4c-0.6-6.9-1.2-13.8-1.8-20.7c0-3.5,0-7,0-10.4
		c0.6-6.2,1.2-12.4,1.9-18.6c17.6,0.7,35.3,1.4,52.9,2.1C1166,324.4,1166,336.2,1166,347.9z"/>
	<path class="st22" d="M1331.1,370.7c-0.3,1.9-0.5,3.8-0.8,5.7c-1.1,0.3-2.2,0.6-3.2,0.9c-0.1-3.1,1.3-6.5-0.8-9.2
		c-4.1-5.4-8-13.3-15.9-14.8c-12.1-2.2-29.5-4.7-40.4,3.5c-0.7-0.8-1.4-1.6-2.2-2.4c-0.5-1.6-0.9-3.2-1.4-4.8
		c-0.5-1.9-0.9-3.8-1.4-5.7c0,0,0,0,0,0c0.1-3.5,0.2-6.9,0.3-10.4c3.8-1.3,7.6-2.5,11.1-3.7c1.1,2.9,2.1,5.9,3.2,8.9
		c1.4,0,2.7-0.1,4.1-0.1c0.6-2.4,1.3-4.8,1.9-7.2c0,0,0.1,0,0.1,0c1.9,0.8,3.9,1.5,5,2c3.8-2.1,7.5-4.1,11.2-6.1
		c-0.8,1.7-1.6,3.3-2.5,5c1.3,0.2,2.5,0.4,3.8,0.6c1.1-1.9,2.1-3.7,3.2-5.6c1.3-3.5,2.6-6.9,3.9-10.4c-0.4-2.2-0.8-4.4-1.1-6.7
		l-0.4-0.2c4.7,4.8,9.4,9.5,13.4,13.6c0-2.8,0-6.7,0-8.4c8.1-2.3,12.1-3.4,16.2-4.5c0,5.5-0.1,11-0.1,16.5c-0.7,3.1-1.5,6.2-2.2,9.4
		c0.4,1.8,0.7,3.6,1.1,5.3c-0.4,2-0.9,4-1.3,6.1c-0.5,2.7-0.9,5.4-1.4,8.1C1333.3,360.9,1332.2,365.8,1331.1,370.7z"/>
	<path class="st25" d="M841.6,277.5c-2,10.3-4.1,20.5-6.1,30.8c-0.5,0-0.9,0-1.4,0c0-6.1,0-12.1,0-18.9
		c-30.5,9.3-10.1,24.1-18.9,35.5c-2.7-10.3-5.3-20.6-8-30.8c-2.3,0-4.6,0-6.9,0c-2.8,5.5-5.6,11-8.5,16.4
		c-0.8-12.4-1.7-24.8-2.5-37.2c0.9-0.7,1.7-1.4,2.6-2.2c1.4-1.1,3.7-2.1,4-3.3c3.5-10.6,10-11.1,30.9-8.3
		C850.4,262.9,838.7,271.3,841.6,277.5z"/>
	<path class="st26" d="M369,455.7c-89,0.6-177.9,1.1-266.9,1.7c-5.6-1.2-11.2-2.5-16.7-3.7c162.2-0.1,324.4-0.2,486.7-0.3
		c80.8,0,161.5,0,242.3,0.1c7.1,0,14.2,1.1,21.3,1.7c-103.5,0.2-207,0.3-310.5,0.5c-46.6,0-93.2,0-139.8,0
		C379.9,455.7,374.5,455.7,369,455.7z"/>
	<path class="st18" d="M1253.2,376.8c-0.4,5.6-0.9,11.2-1.3,16.8c-16.1,0.6-32.1,1.3-48.2,1.9c-0.1-11.7-0.2-23.5-0.4-35.2
		c12.6-7.9,29.8-3.2,44.9-4.1c1.1,4.1,2.3,8.3,3.4,12.4C1252.2,371.3,1252.7,374.1,1253.2,376.8z"/>
	<path class="st22" d="M379.3,360.4c0.1-17.3,0.2-34.6,0.3-51.9c17.8,0.7,35.6,1.4,53.5,2.2c0,8.3,0,16.6,0,24.8
		c-6.6,0.7-13.5,2.4-19.7,1.9c-23.4-1.9-26,4.7-23.9,13.7c0.4,1.7,0.1,3.4,0,5.1C386.1,357.6,382.7,359,379.3,360.4z"/>
	<path class="st25" d="M558.1,256.8c0-1.4,0-2.8,0-4.2c2.7-0.7,5.4-1.3,8-2l1-0.5c8,3.6,15.9,7.2,23.9,10.8c0.6,1.4,1.2,2.9,1.8,4.3
		c-0.3,0.8,0.2,1.4,1.4,1.8c0.8,4.9,1.6,9.8,2.4,14.6c0.1,1.4,0.3,2.8,0.4,4.2c-0.7,0.6-0.8,1.2-0.1,1.8c-2.1,0.9-4.1,1.9-6.2,2.8
		c-15.2-0.4-30.3-0.7-43.2-1c-3.9-8.2-7.1-15-10.3-21.9c0.9-6.6,11.2-7.6,20.9-8.8C558.1,258.1,558.1,257.4,558.1,256.8z"/>
	<path class="st10" d="M1869.2,165.3c-0.1,18-0.2,36-0.3,54c-9.5,2.8-19,5.6-28.4,8.4c-0.2-15.8-0.3-31.5-0.5-47.3
		c-1.3-4.2-2.7-8.5-4-12.7c13.2,0.6,12.9-4.1,13-8.6c2.5,0.1,5,0.1,7.5,0.2c0,0,0.4,0.1,0.4,0.1c1.3,0.6,2.7,1.2,4,1.8
		c1.7,0.6,3.4,1.1,5.1,1.7c0,0-0.3-0.1-0.3-0.1C1866.9,163.7,1868.1,164.5,1869.2,165.3z"/>
	<path class="st17" d="M1865.4,362.5c1.4,6.2,2.7,12.4,4.1,18.6c-0.2,13.8-0.3,27.6-0.5,41.3c-9.5,0-19,0-28.5,0
		c0-15.9-0.1-31.8-0.1-47.6c2.3-4.6,4.6-9.2,7.1-14.4C1854.1,361.2,1859.8,361.8,1865.4,362.5z"/>
	<path class="st18" d="M1351.5,370.7c1.3-3.5,2.6-6.9,3.9-10.4c5.7,5.2,11.3,10.4,15.6,14.3c1-2.2,1.9-6.3,4.8-10
		c1.3-1.7,6.2-2.7,9.5-4.1c2.4,1.8,6.2,3.4,6.7,5.3c1.1,3.5,0.3,7.2,0.3,11.6c4-6.4,7.5-11.8,10.9-17.1c0.1,11.1,0.2,22.1,0.4,33.2
		c-17.3,0.7-34.7,1.3-52,2c-0.6-6.2-1.2-12.5-1.7-18.7C1350.5,374.8,1351,372.7,1351.5,370.7z"/>
	<path class="st24" d="M1670.5,274.4c8.7-1.7,17.1-3.8,26.1-5.1c7.9-1.2,16.4-1.5,24.6-2.2c0.9,1.3,1.8,2.6,2.7,3.9
		c-1.7,0.8-3.5,1.7-5.2,2.5c2.1,0.7,4.2,1.3,6.2,2c-0.3,8.3-0.5,16.6-0.8,25c-17.7-0.1-35.5-0.2-53.2-0.3
		C1670.8,291.5,1670.7,283,1670.5,274.4z"/>
	<path class="st26" d="M1828,453.5c-5.7,0.7-11.4,2-17.1,2c-252.9,0.1-505.9,0.1-758.8,0.1c-2,0-4.1-0.2-6.1-0.3
		c6.6-0.6,13.1-1.7,19.7-1.7C1319.8,453.5,1573.9,453.5,1828,453.5z"/>
	<path class="st18" d="M1639.2,374.8c0,2.8,0,5.5,0,8.3c0,2.1,0,4.2,0,6.2c0,1.4,0,2.8,0.1,4.2c0,0-1.6-0.1-1.6-0.1
		c-13.2,0.9-26.3,1.9-39.5,2.8c-4.6,0-9.1,0-13.7,0l-0.3-0.3c0.2-0.3,0.8-0.7,0.6-0.9c-0.4-0.6-1.2-1-1.9-1.5
		c0.1-5.5,0.2-11,0.4-16.5c7.5-0.9,15-1.7,22.1-2.5c0.6-4.7,1.2-8.9,1.8-13.1c1.4,0,2.8-0.1,4.2-0.1c1.4,1.7,2.8,3.5,3.7,4.6
		c7.1-2.4,14.5-4.9,22-7.5C1637.9,363.8,1638.6,369.3,1639.2,374.8z"/>
	<path class="st20" d="M525.2,455.7c103.5-0.2,207-0.3,310.5-0.5c0.7,0.7,1.4,1.4,2,2.1c-28.1,7.2-58.1,4.1-87.5,4.1
		c-46,0-92.1,0.3-138.1,0c-27.7-0.2-55.3-1.4-83-2.3C527.7,458.9,526.5,456.9,525.2,455.7z"/>
	<path class="st12" d="M56.5,277.4c0,13.1-0.1,26.2-0.1,39.4c-4.1,1.5-8,3.1-12.2,4.6c-5.7,2-11.6,3.8-17.4,5.7
		c0.1-16.5,0.1-33,0.2-49.6C36.8,277.5,46.6,277.5,56.5,277.4z"/>
	<path class="st12" d="M1203.3,333.4c0-20,0.1-40,0.1-60.1c1.4,1.4,2.7,2.8,4.1,4.2c0,20.6,0,20.6,40.4,20.7
		c0.4,1.4,0.9,2.8,1.3,4.1c0.7,8.3,1.4,16.6,2.1,24.9c-11.8-0.4-23.6-0.8-34.7-1.1C1212.2,328.5,1207.8,330.9,1203.3,333.4z"/>
	<path class="st22" d="M623,327.1c0.5-4.8,1-9.6,1.5-14.5c12.1,0,24.2,0,36.4,0c-0.1,0.7-0.2,1.3-0.3,2c5.3-1.3,10.6-2.6,16-3.9
		c0.8,0.6,1.5,1.2,2.3,1.8c0.1,7.7,0.2,15.5,0.2,23.2c-0.9,2-1.8,4-2.7,6c-2.5-4.3-5-8.5-7.6-12.8c-0.9,0.1-1.8,0.2-2.8,0.3
		c-0.9,3.8-1.8,7.7-2.8,11.5c-13.8-0.4-26.3-0.7-38.8-1.1c-0.5-2.1-1-4.1-1.5-6.2C623,331.3,623,329.2,623,327.1z"/>
	<path class="st25" d="M1207.5,277.5c-1.4-1.4-2.7-2.8-4.1-4.2c-0.6-4.9-1.3-9.8-1.9-14.7c0,0,2,0.2,2,0.2c26.7-0.8,53.3-1.6,80-2.4
		c1,1.5,2,3.1,2.9,4.6c0,0-1.7-0.2-1.7-0.2c-3.8,4.8-7.5,9.7-11.3,14.5c-6.5-0.5-17.1-2.6-18.8-1.4
		C1240.8,283.7,1223.4,277.8,1207.5,277.5z"/>
	<path class="st24" d="M676.5,310.8c-5.3,1.3-10.6,2.6-16,3.9c0.1-0.7,0.2-1.3,0.3-2c-12.1,0-24.2,0-36.4,0
		c-0.5-6.2-1-12.4-1.5-18.6c0.5-2.1,1-4.1,1.5-6.2c18.1,0,36.1,0,54.2,0c0,3.5,0.1,7.1,0.1,10.6c0,1.2,0,2.4,0,3.6
		c0,2.8,0,5.7,0.1,8.5C678.1,310.5,677.3,310.6,676.5,310.8z"/>
	<path class="st22" d="M524.7,336c12.1-8.2,23.5-8.7,38.7-2.7c5.3,2.1,13.1,2.7,19.1,3.9c7.4-5.2-23.1-7-2.1-12.4
		c4.9,2.9,9.8,5.8,14.6,8.8c-0.4,0.7,0,1.4,1.1,1.9c0.6,0.8,1.2,1.5,1.9,2.3c0.7,2,1.5,4.1,2.2,6.1c-0.3,3.4-0.6,6.9-0.9,10.3
		c-14.2-0.9-28.5-1.7-36.9-2.3c-8.1,7.9-13.7,13.4-19.2,18.9C548.3,357.6,543.9,345.8,524.7,336z M554,335.5
		c-0.6-0.2-1.1-0.3-1.7-0.5C552.8,335.1,553.4,335.3,554,335.5c1,0.7,2,1.5,3,2.2C556,336.9,555,336.2,554,335.5z"/>
	<path class="st12" d="M1310.2,316.8c-1.3,3.5-2.6,6.9-3.9,10.4c-1.5,0-3,0-4.5,0c-3.7,2-7.4,4-11.2,6.1c-1.1-0.4-3.1-1.2-5-2
		c-0.5-0.9-1-1.8-1.6-2.7c-0.5,0.2-1,0.3-1.5,0.5c1,0.7,2,1.5,3,2.2c-0.6,2.4-1.3,4.8-1.9,7.2c-1.4,0-2.7,0.1-4.1,0.1
		c-1.1-3-2.2-6-3.2-8.9c-3.5,1.2-7.3,2.4-11.1,3.7c-1.3-2.3-2.6-4.5-3.9-6.8c-0.5-4-1-8-1.5-12c-0.9-3-1.7-6-2.6-9
		c-0.2-1.1-0.3-2.2-0.5-3.3c0.5-0.7,1-1.4,1.5-2.1c1.7-1.4,3.4-2.9,7.6-6.5c0,6.7,0,10.6,0,13c4.7-6.9,10.1-15,15.5-23.1
		c0-2.1,0-4.2,0-6.2c2.6,1.4,5.2,2.8,7.8,4.2c0.6,2.7,1.2,5.5,1.9,8.2c-1,0.4-1.9,0.7-2.9,1.1c1.1,0.2,2.2,0.3,3.4,0.5l-0.6,0.5
		c0,0,0.8-0.5,0.8-0.5c0.3,0.9,0.6,1.8,1,2.7c0,0,1.5-0.2,1.5-0.2c-0.1,6.9-0.5,13.9,0,20.8c0.1,1.7,3.1,3.3,4.8,4.9
		c2.2-1,4.4-2,6.6-3C1307.1,316.7,1308.7,316.8,1310.2,316.8z M1281.5,301c-1-0.3-2-0.6-3-0.9c0,2.8,0,5.6,0,8.5c0.7,0,1.4,0,2.1,0
		C1280.9,306.1,1281.2,303.6,1281.5,301z"/>
	<path class="st8" d="M1203.3,333.4c4.5-2.5,9-4.9,13.3-7.3c11.2,0.4,23,0.7,34.7,1.1c0.1,4.8,0.1,9.7,0.2,14.5c0,2,0,4,0,6
		c0,2.8,0.1,5.6,0.1,8.3c-1.1,0-2.3,0-3.4,0.1c-15.1,0.9-32.3-3.8-44.9,4.1c-0.7-7.6-1.4-15.2-2.1-22.9
		C1201.9,336.1,1202.6,334.7,1203.3,333.4z"/>
	<path class="st24" d="M1166,312.7c-17.6-0.7-35.3-1.4-52.9-2.1c-0.6-6.9-1.3-13.8-1.9-20.7c0.7-1.4,1.3-2.8,2-4.2
		c12.6,0,25.2,0,37,0c3.6-2.5,7.8-5.4,12.1-8.3c0.2,0.8,0.3,1.7,0.5,2.5C1163.8,290.9,1164.9,301.8,1166,312.7z"/>
	<path class="st10" d="M379.4,268.9c1.3-8,2.6-16,3.8-24c0,0,0.1-0.1,0.1-0.1c2,0.2,3.9,0.4,5.8,0.7c3,0,6,0.1,9,0.1
		c8.9-0.3,17.7-0.6,26.6-0.9c2.4,0.1,4.8,0.2,7.2,0.3c1,1.2,2,2.4,2.9,3.5c0,2.1,0.1,4.1,0.1,6.2c0,2.1,0.1,4.1,0.1,6.2
		c-0.6,3.3-1.3,6.7-1.9,10C415.3,270.2,397.3,269.5,379.4,268.9z"/>
	<path class="st17" d="M56.4,356.1c0,18,0.1,35.9,0.1,53.9c-9.8,0-19.6,0-29.4,0c-0.3-2.1-0.7-4.3-1-6.4c1.5-12.3,3.1-24.7,4.6-37.1
		c3.1-1.4,8.9-2.9,8.9-4.3C39.8,356,47.7,356,56.4,356.1z"/>
	<path class="st24" d="M1338.3,310.6c-4,1.1-8.1,2.3-16.2,4.5c0,1.7,0,5.6,0,8.4c-4-4.1-8.7-8.9-13.4-13.6c0.5-6.7,1-13.3,1.5-20
		l0,0c1.8-2.8,3.6-5.6,5.4-8.4c0.7-1.6,1.5-3.2,2.2-4.8c0-2.5-0.1-5-0.1-7.5c0.8-1.4,1.7-2.8,2.5-4.1c3.2,4.7,6.3,9.4,9.7,14.4
		c3.5-3.3,7.5-7,13.8-12.9c2.9,8.4,5.2,14.9,7.4,21.4c-2.6,1.4-6.9,2.6-7.6,4.1C1341.2,298.3,1340,304.5,1338.3,310.6z"/>
	<path class="st22" d="M1865.4,362.5c-5.6-0.7-11.3-1.3-17.8-2.1c-2.6,5.2-4.8,9.8-7.1,14.4c0-19.3,0-38.7,0-58c9.5,0,19.1,0,28.6,0
		C1867.9,332,1866.6,347.3,1865.4,362.5z"/>
	<path class="st24" d="M1869.1,316.8c-9.5,0-19.1,0-28.6,0c0-15.2,0-30.4,0-45.6c8.2-0.7,16.5-1.4,24.7-2.1c1.3,2.7,2.7,5.5,4,8.2
		C1869.2,290.5,1869.2,303.7,1869.1,316.8z"/>
	<path class="st25" d="M1865.2,269.2c-8.2,0.7-16.5,1.4-24.7,2.1c0-14.5,0-29,0-43.5c9.5-2.8,19-5.6,28.4-8.4
		C1867.7,236,1866.5,252.6,1865.2,269.2z"/>
	<path class="st25" d="M1162.3,277.4c-4.2,2.9-8.5,5.8-12.1,8.3c-11.9,0-24.5,0-37,0c-0.7-1.4-1.4-2.8-2-4.2c0-6.2,0-12.5,0.1-18.7
		c0-0.7,0.1-1.4,0.1-2c0,0,1.7,0.1,1.7,0.1c16.1-0.8,32.2-1.6,49.3-2.4C1162.3,265.2,1162.3,271.3,1162.3,277.4z"/>
	<path class="st8" d="M624.5,339.6c12.5,0.3,25,0.7,38.8,1.1c0.9-3.8,1.8-7.6,2.8-11.5c0.9-0.1,1.8-0.2,2.8-0.3
		c2.5,4.3,5,8.5,7.6,12.8c0,6.2,0,12.4,0,18.6c-12.9,0.1-26-0.3-38.7,0.5c-4.6,0.3-8.5,3.6-12.7,5.5c0,0-1.6,0.2-1.6,0.2
		c-0.2-3.5-0.4-7-0.6-10.5C623.4,350.6,624,345.1,624.5,339.6z"/>
	<path class="st22" d="M56.4,356.1c-8.7-0.1-16.5-0.1-16.8,6.1c-0.1,1.5-5.8,2.9-8.9,4.3c-1.5-1.4-3-2.7-4.6-4.1
		c0.3-11.8,0.5-23.6,0.8-35.4c5.8-1.9,11.7-3.8,17.4-5.7c4.2-1.5,8.1-3.1,12.2-4.6C56.4,329.9,56.4,343,56.4,356.1z"/>
	<path class="st25" d="M56.5,277.4c-9.8,0-19.6,0.1-29.5,0.1c0-11.8,0.1-23.5,0.1-35.3c8.7-0.7,17.5-1.4,26.2-2
		C54.4,252.6,55.4,265,56.5,277.4z"/>
	<path class="st12" d="M993.1,327.2c-5.1,2-9.5,5-15.3,5.9c-20.4,3.1-29.1-0.7-29.1-11.9c1.3-4.2,2.5-8.5,3.8-12.7
		c18.3,6.2,14.7-4.1,21.4-8.8c2.4,4,3.9,6.5,4.8,8.1c7.1-0.5,12.9-0.9,18.6-1.3C995.8,313.4,994.5,320.3,993.1,327.2z"/>
	<path class="st24" d="M997.2,306.5c-5.7,0.4-11.5,0.8-18.6,1.3c-0.9-1.5-2.4-4-4.8-8.1c-6.7,4.7-3.1,15-21.4,8.8
		c1.5-6.2,3-12.4,4.5-18.6c1.2-3.6,2.4-7.2,3.5-10.8c-0.6-0.6-0.5-1.1,0.4-1.6c6.2,0,12.5,0,19.8,0c-0.7,2.7-2.1,7.6-3.4,12.4
		c-0.5,0.9-1,1.8-1.5,2.7c0.5-0.9,1-1.8,1.5-2.7c7.7-3.5,15.4-7.1,23.8-11c0.7,4.5,1.3,8.2,1.9,11.9
		C1001.1,296,999.1,301.2,997.2,306.5z M967.8,285.3c-0.5,0-1,0-1.5,0c0,1,0,2,0,3.1c0.5,0,1,0,1.5,0
		C967.8,287.3,967.8,286.3,967.8,285.3z"/>
	<path class="st3" d="M27,410.1c9.8,0,19.6,0,29.4,0c-1.3,13.1-2.5,26.2-3.8,39.3c-7.9-1.4-15.7-2.7-23.6-4.1c-1-6.2-2-12.4-3-18.6
		C26.4,421.1,26.7,415.6,27,410.1z"/>
	<path class="st14" d="M841.6,277.5c-2.9-6.3,8.9-14.7-14.6-17.9c-20.9-2.9-27.5-2.3-30.9,8.3c-0.4,1.2-2.6,2.2-4,3.3
		c-0.9-1.4-1.8-2.8-2.6-4.2c0-2.8,0.1-5.7,0.1-8.5c0,0,0.9-0.7,0.9-0.7l-1-0.7c0-1.7-0.1-3.3-0.1-5c0.9-2,1.9-4,2.8-6
		c2.9-0.2,5.8-0.4,8.7-0.6c0,0,1.8,0.3,1.8,0.3l1.8-0.3c4.3,0,8.7,0,13,0c9.4,2.8,28.1-4.1,29.3,7.2c0,1.4,0,2.8-0.1,4.2
		c-0.5,23.5-1,46.9-1.5,70.4c-1.2-12.8-2.5-25.6-3.6-38.4C841.4,285.1,841.6,281.3,841.6,277.5z"/>
	<path class="st10" d="M57,207.2c-1.2,1.4-2.4,2.7-3.7,4.1c-8.8,0-17.5-0.1-26.2-0.1c-0.1-6.2-0.2-12.4-0.3-18.7
		c3.4-5.8,6.8-11.6,10.2-17.4c7,1,13,1.9,19,2.8C56.3,187.6,56.6,197.4,57,207.2z"/>
	<path class="st14" d="M27.1,211.2c8.7,0,17.5,0.1,26.2,0.1c0,9.7,0,19.3,0,29c-8.7,0.7-17.5,1.4-26.2,2
		C27.1,231.9,27.1,221.5,27.1,211.2z"/>
	<path class="st8" d="M389.5,356.2c0-1.7,0.3-3.4,0-5.1c-2.1-9,0.5-15.6,23.9-13.7c6.2,0.5,13.1-1.2,19.7-1.9
		c0.6,2.8,1.2,5.5,1.8,8.3c0,1.4,0,2.8,0,4.1c-0.4,2.7-0.8,5.4-1.3,8.1c-1.2,0-2.3,0-3.5,0.2C416.5,356.2,403,356.2,389.5,356.2z"/>
	<path class="st10" d="M1168,257.5c-1.8,7.5-3.5,15-5.3,22.5c-0.2-0.8-0.3-1.7-0.5-2.5c0-6.1,0-12.2,0-19c-17,0.8-33.1,1.6-49.3,2.4
		c-0.6-2.8-1.2-5.6-1.7-8.5c4.5-2.1,8.5-5.8,13.5-6.1c13.1-0.9,26.6-0.3,40.4-0.3c1.1,4,2,7.3,2.9,10.7
		C1168.1,256.7,1168,257.5,1168,257.5z M1152.2,253.3c1.4,0.7,2.8,1.4,4.3,2.1c3.3-0.6,6.7-1.2,10-1.9c-2.4-1.2-4.7-2.4-7.1-3.6
		C1157,251.1,1154.6,252.2,1152.2,253.3z"/>
	<path class="st20" d="M29.1,445.2c7.9,1.4,15.7,2.7,23.6,4.1c9.9,1.3,19.9,2.6,29.8,3.9c1.2-0.2,2.1-0.1,2.9,0.4
		c5.6,1.2,11.1,2.5,16.7,3.7c-9.7,2.2-19.5,4.4-29.2,6.6c-4.1,0-8.1,0-12.1-0.1c-8-1.4-16-2.8-24-4.2c-3-2.8-6.1-5.6-9.1-8.3
		C28.2,449.4,28.6,447.3,29.1,445.2z M44.3,453.5c1.7,1,3.3,2.1,5,3.1c0.4-0.2,0.9-0.4,1.3-0.7C48.5,455.2,46.4,454.4,44.3,453.5
		c-1.6-1.1-3.3-2.1-4.9-3.2c-0.4,0.2-0.9,0.4-1.3,0.7C40.1,451.9,42.2,452.7,44.3,453.5z"/>
	<path class="st18" d="M791.9,356c2.1,2,4.2,3.9,7.9,7.3c0-12.1,0-22.9,0-33.7c1.6,0,3.3,0,4.9-0.1c0,3.4,0,6.7,0,10.1
		c0,11,0,22.1,0,33.1c1.1,7.4,2.1,14.9,3.2,22.8c-2.4,0-9,0-15.6,0c-1-2.1-2.1-4.2-3.1-6.3c0.1-9.6,0.1-19.2,0.2-28.8
		c0-1.5,0-3,0-4.5C790.2,356.1,791.1,356.1,791.9,356z"/>
	<path class="st24" d="M1583.4,283.7c3.2-6.8,6.3-13.7,8.4-18.2c2.2,2.6,6.2,7.3,10.3,12c3.6,12.4-12.7,21.9-18.6,33
		c0,0-2,0.2-2,0.2c0-5.5,0.1-11.1,0.1-16.6C1582.1,290.6,1582.7,287.2,1583.4,283.7z"/>
	<path class="st22" d="M1583.6,354.1c-0.7-0.7-1.4-1.4-2.1-2.1c0-4.1,0-8.3,0-12.4c0-2.1,0-4.1,0-6.2c0.6-2.8,1.3-5.6,1.9-8.5
		c6.2,0.7,12.4,1.5,18.6,2.2C1605.6,337.8,1599.1,346.7,1583.6,354.1z"/>
	<path class="st10" d="M545.7,250.5c-17.2,1.1-34.4,2.4-51.7,3.2c-3.7,0.2-7.6-1-11.4-1.6c0.2-0.6,0.3-1.2,0.3-1.8
		c1.7-0.7,3.4-1.4,5.2-2.1c5.5-1.3,11.1-2.6,16.6-3.9c4-0.3,8.1-0.5,12.1-0.8c8.3,0,16.6,0,24.9,0c5.5,0.9,11,1.8,16.5,2.7
		C557.4,250.2,540.1,241.9,545.7,250.5z"/>
	<path class="st12" d="M1202.4,397.6c0.4-0.7,0.9-1.4,1.3-2.1c16.1-0.6,32.1-1.3,48.2-1.9c0,0,1.5-0.3,1.5-0.3
		c-0.5,1.4-1.1,2.7-1.6,4.1c-5.2,1.5-10.4,3.1-15.6,4.6c-2.8,0-5.5,0-8.3,0c-2.6-0.2-5.3-0.4-7.9-0.6c-2.8-0.5-5.7-1-8.5-1.5
		C1208.5,399.2,1205.5,398.4,1202.4,397.6z"/>
	<path class="st22" d="M1273.6,388.9c-0.6-4-1.1-8-1.7-12c-0.7-1.8-1.5-3.6-2.2-5.5c0.2-3.7,0.4-7.5,0.5-11.2
		c16.6,9.2,9.7,19.6,6.2,29.8C1275.5,389.7,1274.5,389.4,1273.6,388.9z"/>
	<path class="st10" d="M1495.3,360.3c-0.5,3.5-1,6.9-1.5,10.4c-1.2-2.7-2.4-5.4-3.6-8.1c-0.1-7.7-0.1-15.3-0.2-23
		c0.8-0.2,1.7-0.3,2.6-0.2c0.9,0.7,1.8,1.5,2.7,2.2c0,1.4,0,2.8-0.1,4.2C1495.2,350.7,1495.3,355.5,1495.3,360.3z"/>
	<path class="st5" d="M26.1,362.5c1.5,1.4,3,2.7,4.6,4.1c-1.5,12.4-3.1,24.7-4.6,37.1C26,390,26.1,376.2,26.1,362.5z"/>
	<path class="st10" d="M1289.2,281.6c-2.6-1.4-5.2-2.8-7.8-4.2c-1.3,0-2.7,0-4,0c-1.4-0.7-2.7-1.4-4.1-2.1
		c3.8-4.8,7.5-9.7,11.3-14.5c1,2.1,2,4.1,3,6.2c0.6,1.4,1.1,2.8,1.7,4.2c0.3,2.1,0.7,4.1,1,6.2c-0.5,0.7-0.4,1.4,0.3,2
		C1290.3,280.2,1289.7,280.9,1289.2,281.6z"/>
	<path class="st12" d="M463.1,381.1c-0.9-2.8-1.9-5.6-2.8-8.4c7.5,4.2,15,8.5,24.6,14c-7.2,0.3-10.4,0.4-13.5,0.6
		C468.7,385.2,465.9,383.1,463.1,381.1z"/>
	<path class="st22" d="M764.6,372.3c-1.4,1.6-2.9,3.1-4.3,4.7c1.6-5.7,3.3-11.3,4.9-17C765.1,364.2,764.8,368.2,764.6,372.3z"/>
	<path class="st27" d="M1051.1,246.6c-20.4-0.4-40.7-0.7-61.1-1.1C1010.4,245.9,1030.8,246.3,1051.1,246.6z"/>
	<path class="st3" d="M36.8,459.7c8,1.4,16,2.8,24,4.2c-2.9,1.4-5.8,2.8-8.6,4.3C47,465.4,41.9,462.6,36.8,459.7z"/>
	<path class="st10" d="M1552,304.6c-0.9,8.3-1.8,16.6-2.8,24.9c-0.3-8-0.6-16.1-0.9-24.1C1549.6,305.1,1550.8,304.9,1552,304.6z"/>
	<path class="st14" d="M681.5,343.7c-0.8,5.6-1.6,11.2-2.4,16.8c0,0-1.4,0-1.4,0s-1.3-0.2-1.3-0.2c0-6.2,0-12.4,0-18.6
		c0.9-2,1.8-4,2.7-6C679.8,338.4,680.7,341.1,681.5,343.7z"/>
	<path class="st27" d="M936.3,397.9c16.2-0.4,32.5-0.7,48.7-1.1C968.8,397.2,952.5,397.6,936.3,397.9z"/>
	<path class="st5" d="M29.1,445.2c-0.5,2.1-0.9,4.1-1.4,6.2c-0.5-8.3-1.1-16.5-1.6-24.8C27.1,432.8,28.1,439,29.1,445.2z"/>
	<path class="st25" d="M545.7,250.5c-5.6-8.6,11.7-0.3,12.5-4.3c3,1.3,6,2.6,9,3.8c0,0-1,0.5-1,0.5c-2.7,0-5.4,0-8.1,0
		C553.9,250.5,549.8,250.5,545.7,250.5z"/>
	<path class="st28" d="M229.3,397.8c10.9,0,21.9,0,32.8,0C251.1,397.8,240.2,397.8,229.3,397.8z"/>
	<path class="st27" d="M1111.2,360.3c0,5.5-0.1,11-0.1,16.4C1111.2,371.2,1111.2,365.8,1111.2,360.3z"/>
	<path class="st10" d="M1549.1,329.6c-1.5,0.6-3.1,1.1-4.6,1.7c-9.4-0.4-18.8-0.8-28.2-1.2C1527.3,329.9,1538.2,329.7,1549.1,329.6z
		"/>
	<path class="st27" d="M1642.7,245.5c-10.7,0-21.3,0-32,0C1621.4,245.4,1632.1,245.5,1642.7,245.5z"/>
	<path class="st27" d="M707.2,277.1c1.1,5.6,2.3,11.3,3.4,16.9C709.5,288.3,708.3,282.7,707.2,277.1z"/>
	<path class="st22" d="M599,372.6c-1,0.3-2.1,0.7-3.2,0.9c1-3,2-6,2.9-9c0.4,1.4,0.8,2.8,1.2,4.2C599.6,369.9,599.3,371.3,599,372.6
		z"/>
	<path class="st24" d="M1076.8,337.5c-0.5,0.7-1,1.4-1.4,2.2c-1.8,0.8-3.7,1.7-5.5,2.5c-0.9-0.2-1.7-0.4-2.6-0.6
		c2.2-2.7,4.5-5.3,6.7-8C1074.9,334.9,1075.8,336.2,1076.8,337.5z"/>
	<path class="st27" d="M424.8,244.6c-8.9,0.3-17.7,0.6-26.6,0.9C407.1,245.2,415.9,244.9,424.8,244.6z"/>
	<path class="st14" d="M956.8,281.6c1.2-0.8,2.5-1.7,3.7-2.5c-1.2,3.6-2.4,7.2-3.5,10.8C956.9,287.1,956.8,284.4,956.8,281.6z"/>
	<path class="st27" d="M504.7,244.3c-5.5,1.3-11.1,2.6-16.6,3.9C493.6,247,499.2,245.7,504.7,244.3z"/>
	<path class="st27" d="M669.8,244.5c-5.7,1.4-11.4,2.7-17.1,4.1C658.3,247.2,664,245.8,669.8,244.5z"/>
	<path class="st27" d="M1680.2,246.4c-6.7-0.3-13.5-0.6-20.2-0.9C1666.7,245.8,1673.4,246.1,1680.2,246.4z"/>
	<path class="st27" d="M763.4,267.2c-1.4-2.1-2.8-4.2-4.2-6.3C760.7,263,762,265.1,763.4,267.2z"/>
	<path class="st28" d="M295,246.3c-6.7-0.2-13.5-0.5-20.2-0.7C281.5,245.8,288.2,246.1,295,246.3z"/>
	<path class="st9" d="M1133.4,90.9c-1-2.1-2-4.3-3-6.4C1131.4,86.6,1132.4,88.7,1133.4,90.9z"/>
	<path class="st27" d="M1289.4,271.3c-0.6-1.4-1.1-2.8-1.7-4.2C1288.3,268.5,1288.8,269.9,1289.4,271.3z"/>
	<path class="st27" d="M632.9,258.9c-1.3,1.4-2.6,2.8-4,4.3C630.3,261.7,631.6,260.3,632.9,258.9z"/>
	<path class="st27" d="M789.3,345.8c0,1.4,0,2.8,0,4.3C789.3,348.6,789.3,347.2,789.3,345.8z"/>
	<path class="st27" d="M789.4,355.9c0,1.5,0,3,0,4.5C789.4,358.9,789.4,357.4,789.4,355.9z"/>
	<path class="st27" d="M792.1,246.1c-0.9,2-1.9,4-2.8,6C790.2,250.1,791.2,248.1,792.1,246.1z"/>
	<path class="st27" d="M1211.5,399.9c2.8,0.5,5.7,1,8.5,1.5C1217.2,400.9,1214.4,400.4,1211.5,399.9z"/>
	<path class="st27" d="M1084.1,361c-1.2-3-2.4-6-3.6-8.9C1081.7,355,1082.9,358,1084.1,361z"/>
	<path class="st10" d="M1724.9,275.4c-2.1-0.7-4.2-1.3-6.2-2c1.7-0.8,3.5-1.7,5.2-2.5C1724.2,272.5,1724.6,273.9,1724.9,275.4z"/>
	<path class="st9" d="M1097.7,55.4c-3-1.5-6.1-3-9.1-4.5C1091.6,52.5,1094.7,54,1097.7,55.4z"/>
	<path class="st27" d="M435.1,260.9c0-2.1-0.1-4.1-0.1-6.2C435,256.7,435.1,258.8,435.1,260.9z"/>
	<path class="st14" d="M1060.2,287c1.1,0.3,2.1,0.6,3.2,0.9c-0.2,2.1-0.3,4.2-0.5,6.3C1062,291.7,1061.1,289.4,1060.2,287z"/>
	<path class="st23" d="M1856.6,159.4c-2.5-0.1-5-0.1-7.5-0.2c0-1.1,0-2.2,0-3.3C1851.6,157.1,1854.1,158.2,1856.6,159.4z"/>
	<path class="st27" d="M748.7,389.2c2.3-1.9,4.7-3.8,7-5.7C753.3,385.4,751,387.3,748.7,389.2z"/>
	<path class="st10" d="M1598,397.4c-1.4,0.2-2.8,0.4-4.2,0.7c-2.7-0.1-5.5-0.2-8.2-0.2c-0.8-0.5-1.2-1.1-1-1.7c4.6,0,9.1,0,13.7,0
		C1598.1,396.6,1598,397,1598,397.4z"/>
	<path class="st27" d="M1581.5,318.9c0,2.1,0,4.1,0,6.2C1581.5,323,1581.5,321,1581.5,318.9z"/>
	<path class="st27" d="M628,265c-1.2,2.2-2.5,4.5-3.7,6.8C625.5,269.5,626.7,267.3,628,265z"/>
	<path class="st28" d="M199.5,314.8c0,2,0,4.1,0,6.1C199.5,318.9,199.5,316.8,199.5,314.8z"/>
	<path class="st28" d="M290.1,397.4c4.4-0.6,8.8-1.2,13.2-1.7C298.9,396.3,294.5,396.8,290.1,397.4z"/>
	<path class="st10" d="M430.1,356.2c1.2-0.1,2.3-0.2,3.5-0.2c0,2.1,0,4.3,0,6.4C432.4,360.3,431.2,358.2,430.1,356.2z"/>
	<path class="st23" d="M1894,463.9c0.4-1.5,0.8-2.9,1.2-4.4C1894.8,460.9,1894.4,462.4,1894,463.9z"/>
	<path class="st27" d="M1272.6,393.3c0.2,1.4,0.4,2.9,0.7,4.3C1273,396.2,1272.8,394.7,1272.6,393.3z"/>
	<path class="st28" d="M356.7,376.9c0.5-0.9,1-1.8,1.5-2.7C357.6,375.1,357.1,376,356.7,376.9C356.6,376.9,356.7,376.9,356.7,376.9z
		"/>
	<path class="st27" d="M434.8,347.9c0-1.4,0-2.8,0-4.1C434.9,345.1,434.8,346.5,434.8,347.9z"/>
	<path class="st27" d="M1256.8,393.5c0,1.4,0,2.8,0,4.1C1256.8,396.2,1256.8,394.8,1256.8,393.5z"/>
	<path class="st27" d="M1161.2,408.3c-0.5,0.1-1.3,0.3-1.5,0.2c-0.4-0.2-0.4-0.6-0.6-0.9c0.5-0.1,1.3-0.3,1.5-0.2
		C1161,407.7,1161,408,1161.2,408.3z"/>
	<path class="st27" d="M1075.4,332c-0.7-1.6-1.3-3.2-2-4.8C1074.1,328.7,1074.8,330.3,1075.4,332z"/>
	<path class="st15" d="M832.3,171.7c1.9,1.1,3.8,2.3,5.6,3.4C836.1,174,834.2,172.9,832.3,171.7z"/>
	<path class="st24" d="M1071.5,327.2c-0.3-1.4-0.6-2.7-0.8-4.1C1071,324.5,1071.2,325.9,1071.5,327.2z"/>
	<path class="st14" d="M678.8,302c0-1.2,0-2.4,0-3.6C678.8,299.7,678.8,300.8,678.8,302z"/>
	<path class="st10" d="M1555.8,395.6c0.7,0.6,0.9,1.2,0.6,1.9c-1.4,0-2.6,0.2-3.8,0.5c-0.1-0.4,0-0.8,0.5-1.2
		C1553.3,396,1554.2,395.6,1555.8,395.6z"/>
	<path class="st28" d="M216.9,397.8c1.4,0,2.7,0,4.1,0C219.6,397.8,218.3,397.8,216.9,397.8z"/>
	<path class="st27" d="M1111.3,260.8c0,0.7-0.1,1.4-0.1,2c-0.3-0.5-0.8-0.9-0.9-1.4C1110.2,261.2,1110.9,261,1111.3,260.8z"/>
	<path class="st14" d="M676.5,310.8c0.8-0.2,1.6-0.2,2.4-0.2c0,0.7-0.1,1.3-0.1,2C678,311.9,677.2,311.3,676.5,310.8z"/>
	<path class="st27" d="M1191,401.8c0.3-0.3,0.6-0.6,0.9-0.9C1191.7,401.2,1191.3,401.5,1191,401.8C1191,401.7,1191,401.8,1191,401.8
		z"/>
	<path class="st27" d="M389.2,245.4c-1.9-0.2-3.9-0.4-5.8-0.7C385.3,244.9,387.2,245.2,389.2,245.4z"/>
	<path class="st21" d="M849.4,180.7c0.8-0.5,1.7-0.9,2.5-1.4c0.3,0.6,0.7,1.2,1,1.8c0,0-1.9,0.2-1.9,0.2L849.4,180.7z"/>
	<path class="st27" d="M632.1,385.2c1.3,0.7,2.7,1.4,4,2.1C634.7,386.6,633.4,385.9,632.1,385.2z"/>
	<path class="st15" d="M838.9,175.9c0.9,0.6,1.9,1.3,2.8,1.9C840.8,177.2,839.8,176.5,838.9,175.9z"/>
	<path class="st23" d="M1865.8,162.9c0,0,0.3,0.1,0.3,0.1C1866.1,163,1865.8,162.9,1865.8,162.9z"/>
	<path class="st23" d="M1861,161.3c-1.3-0.6-2.7-1.2-4-1.8C1858.3,160.1,1859.6,160.7,1861,161.3z"/>
	<path class="st24" d="M1291.5,291.3c-1.1-0.2-2.2-0.3-3.4-0.5c1-0.4,1.9-0.7,2.9-1.1C1292.2,290.3,1292.3,290.8,1291.5,291.3z"/>
	<path class="st10" d="M1292.7,294.2c-0.3-0.9-0.7-1.8-1-2.7c0.5,0.6,1.1,1.2,1.5,1.8C1293.3,293.5,1292.9,293.8,1292.7,294.2z"/>
	<path class="st27" d="M647,250.6c-0.9,0.5-1.9,0.9-2.8,1.4C644.8,251.3,645.7,250.9,647,250.6z"/>
	<path class="st27" d="M1182.8,250.5c0.3-0.3,0.6-0.6,1-0.9C1183.5,250,1183.1,250.2,1182.8,250.5
		C1182.8,250.5,1182.8,250.5,1182.8,250.5z"/>
	<path class="st27" d="M759.4,261c-1-0.7-2-1.4-2.9-2.1C757.4,259.6,758.4,260.3,759.4,261z"/>
	<path class="st28" d="M303.6,395.6c1.1-0.2,2.1-0.5,3.2-0.7C306,395.4,304.9,395.6,303.6,395.6z"/>
	<path class="st10" d="M377.6,397.1c0.1-0.6,0.6-1.2,1.5-1.6c0.7,0.5,1.5,1.1,2.2,1.6c0,0-1.9,0.1-1.9,0.1L377.6,397.1z"/>
	<path class="st18" d="M77.2,327c-1.3-3.6-3.8-7.1-3.9-10.7c-0.3-36.4-0.2-72.8-0.3-109.3c0-3.5,0-7,0-10.5c0-0.6-0.1-1.3-0.2-1.9
		c1.4,3.5,4.1,7.1,4.1,10.6C77.2,245.9,77.2,286.4,77.2,327z"/>
	<path class="st13" d="M72.8,194.7c0.1,0.6,0.2,1.3,0.2,1.9c-0.6-0.4-1.2-0.9-1.6-1.4C71.4,195.2,72.3,194.9,72.8,194.7z"/>
	<path class="st20" d="M73.1,466c1.4,1.3,2.7,2.6,4.1,4C75.8,468.6,74.4,467.3,73.1,466z"/>
	<path class="st5" d="M1835.4,158.3c-220.8,0-441.6,0-662.4,0c0-0.5,0-1,0-1.5c220.8,0,441.5,0,662.3,0
		C1835.4,157.3,1835.4,157.8,1835.4,158.3z"/>
	<path class="st27" d="M971,57.9c-0.1,1.4-0.2,2.7-0.3,4.1c-0.7,8.3-1.4,16.5-2,24.8c-2.4,11.1-4.8,22.2-7.2,33.2
		c-0.7,1.9-1.5,3.7-2.2,5.6c-2.1,0.2-4.2,0.5-6.3,0.7c0,0-0.2,0.1-0.2,0.1c-1.3,0.1-2.7,0.3-4,0.4c-2.8,0-5.6,0-8.4-0.1
		c-17.2-5.1-10.2-13.9-12.7-21.2c-0.1-1.4-0.1-2.8-0.2-4.2c-0.2-2-0.4-4-0.6-6c-1-5.6-2-11.1-2.9-16.7c-0.2-5.6-0.5-11.1-0.7-16.7
		c0.3-3.4,0.7-6.9,1-10.3c5.4-2.4,10.7-4.7,16.1-7.1c6.9,0.2,13.8,0.4,20.7,0.7C964.3,49.4,967.7,53.7,971,57.9z"/>
	<path class="st16" d="M960.9,45.2c-6.9-0.2-13.8-0.4-20.7-0.7C947.7,39.9,954.7,39.2,960.9,45.2z"/>
	<path class="st16" d="M924.1,51.6c-0.3,3.4-0.7,6.9-1,10.3C923.5,58.5,923.8,55.1,924.1,51.6z"/>
	<path class="st20" d="M369,455.7c5.5,0,11,0,16.4,0c-3.1,2-6.1,3.9-9.2,5.9C373.8,459.7,371.4,457.7,369,455.7z"/>
	<path class="st24" d="M1058.5,320.7c0.3,1.4,0.6,2.8,0.9,4.2c-0.8,0.1-1.6,0.1-2.4,0.2c-0.4-1.4-0.9-2.8-1.3-4.2
		C1056.6,320.8,1057.5,320.8,1058.5,320.7z"/>
	<path class="st29" d="M919.7,192.5c-17.8-3.5-40.9,0.2-53.5-10.2c19.7-8.3,38.5-17.3,65.1-19.9c0,0,0.3,0.3,0.3,0.3
		c9.6,0,19.2,0.1,28.8,0.1c3.2-2.6,6.5-5.1,9.7-7.7c-0.2-2.7-0.3-5.5-0.5-8.2c-0.8-0.5-1.2-1-1-1.6c46.8-5.9,75.7-26.8,118.5-35.9
		c11-2.3,22.6-4,33.9-5.9c0,0,0.1,0,0.1,0c0,2.7,0,5.4,0.1,8.1c-9.5,5.6-17.3,12.4-28.8,16.7c-35.6,13.2-71.6,26.2-109.3,37.7
		c-16.6,5.1-37.5,6.5-57.8,9.8C923.9,180.2,921.8,186.3,919.7,192.5z"/>
	<path class="st27" d="M968.7,145.3c-0.2,0.6,0.2,1.2,1,1.6c0.2,2.7,0.3,5.5,0.5,8.2c-3.2,2.6-6.5,5.1-9.7,7.7
		c-9.6,0-19.2-0.1-28.8-0.1c0,0-0.3-0.3-0.3-0.3c-9.2-6.1-12.5-12.9-1.1-18.7C942.9,137.3,956.5,140.6,968.7,145.3z"/>
	<path class="st15" d="M969.1,124.2c-0.5,0.9-1,1.8-1.5,2.7C968.1,126,968.6,125.1,969.1,124.2C969.1,124.2,969.1,124.2,969.1,124.2
		z"/>
	<path class="st15" d="M948.7,126.8c1.3-0.1,2.7-0.3,4-0.4C951.4,126.5,950,126.6,948.7,126.8z"/>
	<path class="st15" d="M952.9,126.3c2.1-0.2,4.2-0.5,6.3-0.7C957.1,125.8,955,126.1,952.9,126.3z"/>
	<path class="st22" d="M254.7,310.8c-0.1,5.4-0.2,10.9-0.4,16.3c-2.9,6.9-5.8,13.9-8.7,20.8c0-1.4,0-2.8,0-4.1c0-4.7,0-9.4,0-14.2
		c-1.4,0-2.7,0-4.1,0.1c0,4.7,0,9.4,0,14.1l0,0c-2.7-1.5-5.1-3.2-8.2-4.4c-3.8-1.5-8.2-2.6-12.3-3.9c0-7.4,0-14.9,0-22.3
		c-1.4,0-2.7,0-4.1,0c0,6.1,0,12.1,0,18.2c-4.1,0-8.2,0-12.3,0c0-11.9,0-23.9,0-35.7c10-1.7,18-3,28.2-4.8c0,6,0,11.7,0,17.3
		c0.9,0,1.8,0,2.7,0.1c1.7-4.7,3.4-9.4,5.1-14.1c1.8,0,3.7,0.1,5.5,0.1C249,299.7,251.9,305.2,254.7,310.8z"/>
	<path class="st22" d="M292.2,343.6c0.1-11,0.2-22,0.4-33c13.7,1.4,33.6-5.2,36.4,4.9c3.9-2.3,9.6-5.7,15.2-9.1
		c0,10.3,0.1,20.7,0.1,31c-14.9,4.8-30.6,8-48.8,6.2C294.5,343.6,293.4,343.6,292.2,343.6z"/>
	<path class="st24" d="M344.2,306.5c-5.7,3.4-11.4,6.8-15.2,9.1c-2.8-10.1-22.6-3.5-36.4-4.9c-0.1-4.9-0.2-9.7-0.3-14.6
		c0.4-0.2,1.2-0.4,1.2-0.6c-0.2-0.5-0.7-1-1.1-1.4c0-2.1,0-4.2,0-6.4c7-1.4,14-2.7,20.9-4.1c7.8-1.5,15.5-3.1,27.2-5.4
		C341.6,286.8,342.9,296.7,344.2,306.5z"/>
	<path class="st8" d="M295.6,343.7c18.2,1.7,33.9-1.5,48.8-6.2c-1.3,7.5-2.6,15.1-3.8,22.6c-15.1,0.1-30.1,0.1-45.2,0.2
		C295.4,354.8,295.5,349.3,295.6,343.7z"/>
	<path class="st8" d="M343.3,364.3c-0.9-1.3-1.8-2.7-2.7-4C341.5,361.6,342.4,363,343.3,364.3z"/>
	<path class="st9" d="M1121.2,111.6c0-2.7,0-5.4-0.1-8.1C1121.2,106.2,1121.2,108.9,1121.2,111.6z"/>
	<path class="st29" d="M975.8,174.5c-1.2,0.2-2.6,0.8-3.4,0.6c-0.8-0.2-1-1.1-1.4-1.7c1.2-0.2,2.6-0.8,3.4-0.6
		C975.1,173,975.3,173.9,975.8,174.5z"/>
	<path class="st8" d="M1637.5,343.8c-0.1,4.8-0.2,9.7-0.2,14.5c-7.4,2.5-14.9,5.1-22,7.5c-0.9-1.1-2.3-2.8-3.7-4.6
		c-1.4,0-2.8,0.1-4.2,0.1c-0.6,4.2-1.1,8.4-1.8,13.1c-7.1,0.8-14.6,1.7-22.1,2.5c0-7.6,0.1-15.2,0.1-22.8
		c15.5-7.3,22-16.3,18.5-26.9c0-2.6,0-5.2,0-7.8c1.4,0,2.7,0,4.1-0.1c0,7.7,0,15.5,0,23.4C1618.1,343.1,1627.8,343.4,1637.5,343.8z"
		/>
	<path class="st24" d="M1637.5,277.5c0,6.2,0,12.5,0,18.7c-1,2-2,4.1-2.9,6.1c-5.3,0-10.7,0-16,0c-1.1-1.2-2.1-2.4-3.2-3.6
		c-0.9,0.3-1.8,0.6-2.7,0.9c1.9,0.9,3.9,1.8,5.8,2.7c0,0.7,0,1.4,0,2.1l0,0c-4.1-2.3-11.3-4.4-11.7-6.8c-1.5-8-0.6-16.2-0.6-24.3
		c4.5,0.5,9,0.9,15.1,1.6c1.6-2.9,4-7.4,6.5-11.8c1.6-0.1,3.1-0.1,4.7-0.2c0,2.4-1.7,5.3,0.4,7
		C1636.2,272.3,1622.2,277.3,1637.5,277.5z"/>
	<path class="st10" d="M1634.6,302.4c1-2,2-4.1,2.9-6.1c0.7,4.1,1.4,8.1,2.1,12.2C1622.4,309.7,1640.1,303.5,1634.6,302.4z"/>
	<path class="st5" d="M1640,331.5c-0.7,2.7-1.5,5.3-2.2,8C1638.5,336.9,1639.2,334.2,1640,331.5z"/>
	<path class="st24" d="M1618.5,304.4c0.6,0.2,1.1,0.3,1.7,0.5C1619.6,304.7,1619.1,304.6,1618.5,304.4
		C1618.5,304.4,1618.5,304.4,1618.5,304.4z"/>
	<path class="st7" d="M968.7,86.8c0.7-8.3,1.4-16.5,2-24.8c2.2,5.5,4.4,11.1,6.6,16.6C974.4,81.3,971.6,84.1,968.7,86.8z"/>
	<path class="st7" d="M811.8,62.9c1.1,0.2,2.3,0.5,3.4,0.7c-0.5,0.6-0.7,1.5-1.5,1.6c-0.8,0.2-2.2-0.4-3.3-0.6
		C810.8,64,811.3,63.5,811.8,62.9z"/>
	<path class="st8" d="M221,335.5c4.1,1.3,8.6,2.4,12.3,3.9c3.1,1.2,5.5,2.9,8.2,4.4c-2.9,6.6,9,15.7-14.7,19.1
		c-4.2,0.6-4,9.2-5.9,14C221,363.1,221,349.3,221,335.5z"/>
	<path class="st8" d="M245.7,347.9c2.9-6.9,5.8-13.9,8.7-20.8c0.2,10.1,0.4,20.2,0.5,30.3c0,1.3,0,2.5,0,3.8c0,0.8,0,1.7,0,2.5
		c-0.7,1-1.5,2-2.2,2.9c-6,2.6-12.1,5.1-22.7,9.6C242.8,366.2,249.8,357.6,245.7,347.9z"/>
	<path class="st2" d="M221,335.5c0,13.8,0,27.6,0,41.4c-1.3-9.7-2.7-19.3-4-29c0-2.8,0-5.5,0-8.3c0-2.7,0-5.5,0-8.2
		c0-6.1,0-12.1,0-18.2c1.4,0,2.7,0,4.1,0C221,320.6,221,328,221,335.5z"/>
	<path class="st10" d="M295.6,343.7c-0.1,5.5-0.2,11.1-0.3,16.6c-1.3,0.7-2.5,1.4-3.8,2c0.3-6.3,0.5-12.5,0.8-18.8
		C293.4,343.6,294.5,343.6,295.6,343.7z"/>
	<path class="st8" d="M241.6,343.7c0-4.7,0-9.4,0-14.1c1.4,0,2.7,0,4.1-0.1c0,4.7,0,9.4,0,14.2C244.3,343.8,242.9,343.7,241.6,343.7
		z"/>
	<path class="st22" d="M216.9,339.6c0,2.8,0,5.5,0,8.3C216.9,345.1,216.9,342.4,216.9,339.6z"/>
	<path class="st10" d="M266.5,374.1c4-0.4,8-0.8,12-1.2C274.5,373.3,270.5,373.7,266.5,374.1z"/>
	<path class="st8" d="M336,368.1c-0.5-0.2-0.9-0.4-1.4-0.6c0.5-0.1,1.1-0.4,1.6-0.4c0.5,0,0.9,0.4,1.4,0.5
		C337,367.8,336.5,367.9,336,368.1z"/>
	<path class="st10" d="M252.8,366.6c0.7-1,1.4-2,2.2-2.9c0.1,1,0.2,2.1,0.3,3.1c0,0-1.3,0-1.3,0L252.8,366.6z"/>
	<path class="st22" d="M710.5,366.6c0-5.7,0-11.5,0-18.7c16.6,0,31.9-0.5,47,0.4c3.2,0.2,5.3,5,7.9,7.7c-14.3-9.4-32.4-6-50.1-3.6
		C721.3,364.4,721.3,364.4,710.5,366.6z"/>
	<path class="st22" d="M757,357.4c-1.1,0.2-1.7,0.3-2.3,0.3c-0.1-0.3-0.3-0.5-0.4-0.8C755,357.1,755.7,357.2,757,357.4z"/>
	<path class="st8" d="M677.3,368.7c-0.3,0.3-0.7,0.6-1,0.8c0.3-0.3,0.6-0.6,0.9-0.9C677.2,368.6,677.3,368.7,677.3,368.7z"/>
	<path class="st14" d="M680,366.5c0.2,0.7,0.4,1.4,0.6,2.1c-1.1,0-2.2,0-3.3,0c0,0-0.1-0.1-0.2-0.1C678.1,367.9,679,367.2,680,366.5
		z"/>
	<path class="st7" d="M926.8,95.3c0.2,2,0.4,4,0.6,6C927.2,99.3,927,97.3,926.8,95.3z"/>
	<path class="st12" d="M459,362.8c-0.4-3.9-0.7-7.7-1.1-12c6.6-0.2,10.5-0.4,14.4-0.4c12.1,0,24.2,0,39.9,0c0,6.4,0,12.3,0,18.2
		c-3.9-1.4-7.8-2.7-11.8-4.1l0,0c2.2-3.5,4.3-7.1,6.2-10.1c-13.7,1.5-25.2,2.4-36.3,4.1C466.1,359,462.8,361.3,459,362.8z"/>
	<path class="st22" d="M517.5,374c6.7,0.3,13.4,0.6,20,0.9C530.8,374.6,524.1,374.3,517.5,374z"/>
	<path class="st12" d="M500.5,364.5c-2.2-0.7-4.3-1.4-6.5-2.1c0.8-0.4,1.7-0.8,2.5-1.3C497.8,362.2,499.2,363.3,500.5,364.5
		C500.5,364.4,500.5,364.5,500.5,364.5z"/>
	<path class="st22" d="M537.7,374.8c1.3-0.7,2.6-1.5,3.9-2.2C540.2,373.4,539,374.1,537.7,374.8z"/>
	<path class="st24" d="M462.9,289.9c4.3-4.7,8.6-9.3,12.7-13.8c0,4.7,0,10.1,0,15.5c0.9,0,1.8,0.1,2.7,0.1
		c1.6-5.6,3.1-11.2,5.3-18.9c7.7,4.5,12.3,7.3,17.2,10.1c2.1-1.3,4.2-2.5,7.3-4.4c1.7,4.1,3.2,7.7,4.8,11.3c-1.4,0-2.8,0-4.1,0
		c-2.7,1.4-5.4,2.7-8.1,4.1c-10,5-2.7,16.7-25.6,16.7c-2.9-3.7-5.8-7.5-8.6-11.2c-0.9-1.8-1.9-3.7-2.8-5.5
		C463.3,292.6,463.1,291.2,462.9,289.9z"/>
	<path class="st14" d="M463.5,294c0.9,1.8,1.9,3.7,2.8,5.5C465.4,297.7,464.5,295.9,463.5,294z"/>
	<path class="st18" d="M1555.8,395.6c-1.6,0-2.5,0.4-2.7,1.2c-2.8,0.1-5.7,0.3-8.5,0.4c-20.9-0.5-41.8-1.4-62.7-1.5
		c-40.4-0.2-40.4-0.1-40.3-20.9c0-2.8,0-5.5,0.1-8.3c16.2-1.3,32.4-2.6,48.6-3.9c1.2,2.7,2.4,5.4,3.6,8.1c0,0,0.9,0.5,0.9,0.5
		c1.4,0.3,2.9,0.6,4.3,0.9c16.6,0,33.2-0.1,49.8-0.1c2.7,0.2,5.4,0.4,8.1,0.7C1556.6,380.3,1556.2,388,1555.8,395.6z"/>
	<path class="st24" d="M1492.1,277.5c0.1,6.3,0.2,12.6,0.3,18.9c-4.5,2.6-9,5.2-13.6,7.8c-9.2,8.4-24.9,2.3-37,4.3
		c0-15.1,0-30.3,0-47.9C1449.9,277.2,1449.9,277.2,1492.1,277.5z"/>
	<path class="st8" d="M1490.2,362.6c-16.2,1.3-32.4,2.6-48.6,3.9c0-7.6,0.1-15.2,0.1-22.8c16.1-1.4,32.2-2.7,48.3-4.1
		C1490.1,347.3,1490.1,355,1490.2,362.6z"/>
	<path class="st12" d="M1376.9,284c-0.2-1.4-0.5-2.9-0.7-4.3c0.8-0.1,1.6-0.1,2.4-0.2c0.4,1.4,0.8,2.9,1.3,4.3
		C1378.9,283.9,1377.9,283.9,1376.9,284z"/>
	<path class="st10" d="M1478.8,304.3c4.5-2.6,9-5.2,13.6-7.8c-0.4,8.4,11.7,8.4,23.3,8.6C1502.7,312.9,1491.2,304.1,1478.8,304.3z"
		/>
	<path class="st8" d="M804.7,372.7c0-11,0-22.1,0-33.1c10.5-3,21-6,37-10.6c0,12.6,0,22,0,31.4c-3.4,2-6.8,4-11,6.5
		c-0.8-1.5-1.5-2.9-2.2-4.3c-2.3-1.2-4.6-2.3-6.9-3.5C815.9,363.6,810.3,368.2,804.7,372.7z"/>
	<path class="st18" d="M827.2,393.8c18.3,0,36.5,0,54.8,0c0,0.3,0,0.7,0,1c-18.8,0-37.7,0-56.5,0C826,394.5,826.6,394.2,827.2,393.8
		z"/>
	<path class="st24" d="M543.8,305.5c-2.6,1.1-5,2.4-7.9,3.2c-0.5,0.2-2.8-1.1-4.3-1.7c2.5-1.3,5.1-2.5,7.7-3.8c0,0-0.1,0.2-0.1,0.2
		c1.4,0.7,2.9,1.4,4.3,2L543.8,305.5z"/>
	<path class="st14" d="M500.6,294c2.7-1.4,5.4-2.7,8.1-4.1C506,291.2,503.3,292.6,500.6,294z"/>
	<path class="st14" d="M521.3,293.7c1.3,0.8,2.5,1.6,3.8,2.4C523.9,295.3,522.6,294.5,521.3,293.7z"/>
	<path class="st14" d="M525.1,296.1c1.3,0.7,2.5,1.4,3.8,2.1C527.7,297.5,526.4,296.8,525.1,296.1z"/>
	<path class="st8" d="M1403.3,333.4c0,9,0,18,0,27c-3.4,5.4-6.9,10.8-10.9,17.1c0-4.4,0.8-8.1-0.3-11.6c-0.6-1.9-4.4-3.5-6.7-5.3
		c-3.3,1.3-8.2,2.3-9.5,4.1c-2.8,3.7-3.8,7.8-4.8,10c-4.3-3.9-9.9-9.1-15.6-14.3c0.2-10,0.3-20,0.6-30c0-0.5,1.4-1.1,5.1-3.9
		c1.5,6.2,2.6,10.4,3.8,15.3c7.3-3.7-4-14.1,14.7-11.7c6,0.8,8.6,8.3,12.4,12.3c0-6.3,0-13.7,0-22.4
		C1396.6,325.4,1400,329.4,1403.3,333.4z"/>
	<path class="st10" d="M433,395.2c-14.5,0.7-29,1.4-43.6,2.2C403.9,396.6,418.5,395.9,433,395.2z"/>
	<path class="st10" d="M558.1,250.5c2.7,0,5.4,0,8.1,0c-2.7,0.7-5.4,1.3-8,2C558.1,251.9,558,251.2,558.1,250.5z"/>
	<path class="st10" d="M558.1,256.8c0,0.7,0,1.4,0,2.1C558.1,258.1,558.1,257.4,558.1,256.8z"/>
	<path class="st17" d="M1277.8,397.4c-0.4-2.4-0.9-4.9-1.3-7.3c3.5-10.2,10.4-20.6-6.2-29.8c0,0-1.5,0.1-1.5,0.1
		c0.4-1.2,0.8-2.4,1.2-3.6c10.9-8.2,28.3-5.8,40.4-3.5c7.9,1.5,11.8,9.4,15.9,14.8c2.1,2.7,0.6,6.1,0.8,9.2
		c-1.6,6.7-3.2,13.4-4.9,20.2C1307.4,397.4,1292.6,397.4,1277.8,397.4z"/>
	<path class="st24" d="M1338.9,335.4c-0.9,0.5-1.8,0.8-2.9,1.1c0.7-3.1,1.5-6.2,2.2-9.4c0.5,0.7,1,1.4,1.5,2.1
		C1339.4,331.3,1339.1,333.4,1338.9,335.4L1338.9,335.4z"/>
	<path class="st24" d="M1301.8,327.2c1.5,0,3,0,4.5,0c-1.1,1.9-2.1,3.7-3.2,5.6c-1.3-0.2-2.5-0.4-3.8-0.6
		C1300.2,330.5,1301,328.9,1301.8,327.2z"/>
	<path class="st24" d="M1305.5,316.7c1.2-2.2,2.4-4.4,3.6-6.5c0.4,2.2,0.8,4.4,1.1,6.7C1308.7,316.8,1307.1,316.7,1305.5,316.7z"/>
	<path class="st28" d="M1266.4,349.5c-0.5-1.9-0.9-3.8-1.4-5.7C1265.5,345.7,1265.9,347.6,1266.4,349.5z"/>
	<path class="st12" d="M1253.3,360.3c-0.5,2.8-1,5.5-1.5,8.3c-1.1-4.1-2.3-8.3-3.4-12.4c1.1,0,2.2-0.1,3.4-0.1
		C1252.2,357.5,1252.7,358.9,1253.3,360.3z"/>
	<path class="st14" d="M1351.5,397.5c-0.6-0.7-0.5-1.3,0.2-2c17.3-0.7,34.7-1.3,52-2c-3.4,1.4-6.6,3.8-10.1,3.9
		C1379.6,397.8,1365.5,397.5,1351.5,397.5z"/>
	<path class="st5" d="M1598,397.4c0-0.4,0.1-0.8,0.2-1.3c13.2-0.9,26.3-1.9,39.5-2.8c-3.1,1.5-6.1,4-9.5,4.2
		C1618.3,398,1608.1,397.5,1598,397.4z"/>
	<path class="st10" d="M1584.3,395.9c-0.7-0.5-1.5-1-2-1.5c-0.2-0.2,0.5-0.6,0.7-0.9c0.6,0.5,1.4,1,1.9,1.5
		C1585.1,395.2,1584.5,395.6,1584.3,395.9z"/>
	<path class="st24" d="M1273.3,275.3c1.4,0.7,2.7,1.4,4.1,2.1c1.3,2.1,2.7,4.2,4,6.2c-5.4,8.1-10.9,16.2-15.5,23.1c0-2.4,0-6.3,0-13
		c-4.3,3.6-5.9,5.1-7.6,6.5c-1.5-2-2.9-3.9-4.4-5.9c-2,1.3-4,2.6-6,3.8c-40.4,0-40.4,0-40.4-20.7c16,0.3,33.3,6.2,47.1-3.5
		C1256.2,272.8,1266.9,274.8,1273.3,275.3z"/>
	<path class="st10" d="M1203.4,258.8c-0.1-4.2-0.1-8.3-0.2-12.5c25.2,0,50.4,0,77.2,0c1,3.5,2,6.8,2.9,10.1
		C1256.7,257.2,1230,258,1203.4,258.8z"/>
	<path class="st12" d="M554,335.5c1,0.7,2,1.5,3,2.2C556,336.9,555,336.2,554,335.5L554,335.5z"/>
	<path class="st12" d="M553.9,335.5c-0.6-0.2-1.1-0.3-1.7-0.5C552.8,335.1,553.4,335.3,553.9,335.5
		C554,335.5,553.9,335.5,553.9,335.5z"/>
	<path class="st24" d="M1281.5,301c-0.3,2.6-0.6,5.1-0.9,7.7c-0.7,0-1.4,0-2.1,0c0-2.8,0-5.6,0-8.5
		C1279.5,300.4,1280.5,300.7,1281.5,301z"/>
	<path class="st28" d="M1259.9,314.6c-0.9-3-1.7-6-2.6-9C1258.2,308.7,1259,311.6,1259.9,314.6z"/>
	<path class="st25" d="M1281.5,283.7c-1.3-2.1-2.7-4.2-4-6.2c1.3,0,2.7,0,4,0C1281.4,279.5,1281.4,281.6,1281.5,283.7z"/>
	<path class="st22" d="M1285.5,331.3c-1-0.7-2-1.5-3-2.2c0.5-0.2,1-0.3,1.5-0.5C1284.6,329.5,1285.1,330.4,1285.5,331.3
		C1285.6,331.3,1285.5,331.3,1285.5,331.3z"/>
	<path class="st12" d="M1253.1,343.7c-0.5,1.4-1,2.7-1.5,4.1c0-2,0-4,0-6C1252.1,342.4,1252.6,343.1,1253.1,343.7z"/>
	<path class="st14" d="M1314.6,277.6c1-0.4,2-0.7,3.2-0.9c-0.7,1.6-1.5,3.2-2.2,4.8C1315.3,280.2,1315,278.9,1314.6,277.6z"/>
	<path class="st14" d="M967.8,285.3c0,1,0,2,0,3.1c-0.5,0-1,0-1.5,0c0-1,0-2,0-3.1C966.8,285.3,967.3,285.3,967.8,285.3z"/>
	<path class="st14" d="M977.3,289.9c-0.5,0.9-1,1.8-1.5,2.7C976.3,291.7,976.8,290.8,977.3,289.9
		C977.3,289.9,977.3,289.9,977.3,289.9z"/>
	<path class="st10" d="M1557,372.7c-2.7-0.2-5.4-0.4-8.1-0.7C1551.6,372.3,1554.3,372.5,1557,372.7z"/>
	<path class="st10" d="M1499.1,372.1c-1.4-0.3-2.9-0.6-4.3-0.9C1496.2,371.5,1497.6,371.8,1499.1,372.1z"/>
	<path class="st12" d="M543.5,305.5c-1.4-0.7-2.9-1.4-4.3-2C540.6,304.1,542,304.8,543.5,305.5z"/>
	<path class="st25" d="M1152.2,253.3c2.4-1.1,4.8-2.2,7.2-3.3c2.4,1.2,4.7,2.4,7.1,3.6c-3.3,0.6-6.7,1.2-10,1.9
		C1155,254.7,1153.6,254,1152.2,253.3z"/>
	<path class="st3" d="M44.3,453.5c-2.1-0.8-4.2-1.7-6.2-2.5c0.4-0.2,0.9-0.4,1.3-0.7C41,451.4,42.6,452.5,44.3,453.5
		C44.3,453.5,44.3,453.5,44.3,453.5z"/>
	<path class="st3" d="M44.3,453.5c2.1,0.8,4.2,1.7,6.2,2.5c-0.4,0.2-0.9,0.4-1.3,0.7C47.6,455.6,45.9,454.6,44.3,453.5
		C44.3,453.5,44.3,453.5,44.3,453.5z"/>
	<path class="st9" d="M931.7,162.7c9.6,0,19.2,0.1,28.8,0.1C950.9,162.8,941.3,162.7,931.7,162.7z"/>
	<path class="st9" d="M970.2,155.1c-0.2-2.7-0.3-5.5-0.5-8.2C969.9,149.7,970.1,152.4,970.2,155.1z"/>
	<path class="st10" d="M254.9,361.2c0-1.3,0-2.5,0-3.8C254.9,358.6,254.9,359.9,254.9,361.2z"/>
	<path class="st10" d="M292.4,294.1c0.4,0.5,0.9,0.9,1.1,1.4c0.1,0.1-0.8,0.4-1.2,0.6C292.3,295.4,292.4,294.7,292.4,294.1z"/>
	<path class="st12" d="M1618.5,302.3c-1.9-0.9-3.9-1.8-5.8-2.7c0.9-0.3,1.8-0.6,2.7-0.9C1616.4,299.9,1617.5,301.1,1618.5,302.3
		C1618.5,302.3,1618.5,302.3,1618.5,302.3z"/>
	<path class="st28" d="M1338.9,335.4c0.5,0.1,1,0.2,1.4,0.3c0.2,0.1,0.2,0.4,0.2,0.5C1340,336,1339.4,335.7,1338.9,335.4
		C1338.9,335.4,1338.9,335.4,1338.9,335.4z"/>
</g>
</svg>
