<?xml version="1.0" encoding="UTF-8"?>
<svg id="Ebene_1" xmlns="http://www.w3.org/2000/svg" version="1.1" viewBox="0 0 1920 1080">
  <!-- Generator: Adobe Illustrator 30.1.0, SVG Export Plug-In . SVG Version: 2.1.1 Build 136)  -->
  <defs>
    <style>
      .st0 {
        fill: #111;
      }

      .st1 {
        fill: #4f4f4f;
      }

      .st2 {
        fill: #302f30;
      }

      .st3 {
        fill: #838383;
      }

      .st4 {
        fill: #a7a7a7;
      }

      .st5 {
        fill: #e5e8e2;
      }

      .st6 {
        fill: #383838;
      }

      .st7 {
        fill: #dbdfd7;
      }

      .st8 {
        fill: #3fae5f;
      }

      .st9 {
        fill: #262626;
      }

      .st10 {
        fill: #c2d5d8;
      }

      .st11 {
        fill: #fdc45e;
      }

      .st12 {
        fill: #5f737c;
      }

      .st13 {
        fill: #548ab9;
      }

      .st14 {
        fill: #e5efed;
      }

      .st15 {
        fill: #ec6230;
      }

      .st16 {
        fill: #202020;
      }

      .st17 {
        fill: #faf5f3;
      }

      .st18 {
        fill: #312f31;
      }

      .st19 {
        fill: #323030;
      }

      .st20 {
        fill: #dfdfdf;
      }

      .st21 {
        fill: #747474;
      }

      .st22 {
        fill: #191919;
      }

      .st23 {
        fill: #12171d;
      }

      .st24 {
        fill: #447bba;
      }

      .st25 {
        fill: #cdd5d1;
      }

      .st26 {
        fill: #8b938f;
      }

      .st27 {
        fill: #d96d40;
      }

      .st28 {
        fill: #9d9d9d;
      }

      .st29 {
        fill: #dde2de;
      }
    </style>
  </defs>
  <path class="st0" d="M0,1080V0h1920v1080H0ZM988.68,228.12c-3.55.02-6.56,2.7-9.12,7.2-33.87-14.6-73.43-6.21-95.07,19.67-21.23,25.4-17.3,60.36,8.59,82.44s66.55,24.49,95.93,5.82c29.23-18.58,38.66-51.86,22.24-80.5,5.73-1.92,9.06-4.52,8.86-8.13-.14-2.64-5.12-6.23-8.35-6.5-22.43-1.84-9.95-20.1-23.09-20.02ZM722.6,413.24c5.25-2.71,9.44-8.46,9.34-13.48-.07-3.66-4.79-11.37-9.46-11.54l-20.61-.79v25.75s20.73.07,20.73.07ZM791.1,402.93l9.65-9.06-13.24,1.95-.33-7.42c-.06-1.37-5.73-.68-7.16-.14l-.22,23.1c-.01,1.28,5.24,2.68,6.02,1.7l2.98-3.72c3.1,2.88,9.77,4.93,12.15,3.43l-9.84-9.84ZM962.53,411.08c7.78-4.09,7.11-18.42-.35-21.64-6.33-2.73-15.22-1.76-22.58-1.74l.02,25.42c7.12-.08,16.59,1.29,22.92-2.04ZM1013.85,398.82c-2.26-5.7-12.11-6.6-17.58-3.21s-6.19,11.06-.99,15.28,16.01,3.61,18.57-2.5l3.58,4.91c1.09,1.49,6.9-2.55,6.64-4.26,1.98,1.57,7.02,4.42,10.21,4.23l4.03-.24c4.3-.25,12.51.08,18.34-.31,4.97-.33,9.25-7.95,9.48-11.61.26-4.11-3.78-12.48-9.39-12.88-6.9-.49-12.63-.45-18.25-.37-1.68,1.85-3.48,4.07-4.96,6.15-3.6.52-6.55,2.24-10.22,4.7l-.33-11.1-6.94.62c-.42,5.06-.76,8.26-2.2,10.57ZM1146.05,399.72l11.23,3.54c-.73,1.82-5.58,5.38-8.74,5.51-3.79.15-8.28-3.16-8.67-6.5-.59-5.04,1.93-9.34,6.92-10.03,3.14-.43,7.88,2.03,10.89,4.5l5.1-1.92c-1.56-4.24-7.12-7.36-13.26-7.65-7.9-.38-12.38,3.3-16.05,7.34l-11.61,1.24-.47-7.26c-.06-1-3.01-.73-7.17-.95l.03,25.78c3.59-.28,6.27-.26,6.76-1.02l1.89-2.93c3.33,2.61,8.1,4.36,11.44,3.61l-8.91-10.33,6.85-7.28c-.19,7.32,2,17.27,11.32,17.53l18.78.53.03-14.95-16.36,1.25ZM748.67,400.59c.18,2.39-1.95,7.34-3.98,9.84-5.34-3.39-6.15-7.35-5.38-14.23-.02-.5-1.74-1.36-5.42-2.78-.43,5.03-.85,11.41.34,15.93,2.83,5.9,15.73,5.75,19.26.05l.28-14.75c.02-1.06-5.6-.87-5.52.18l.43,5.77ZM766.06,397.05c1.34.37,3.96,1.51,5.17,2.34l3.98,2.74c.86.59,3.63-1.59,3.24-2.46s-1.86-3.21-2.86-3.92c-4.11-2.9-13.74-2.46-17.27,1.17-4.05,4.17-3.77,10.64,1.01,14.21,3.82,2.85,12.25,2.76,16.32.44.88-.5,3.3-3.4,2.53-3.91l-3.08-2.07c-1.85-1.24-8.74,7.46-10.29,3.84-4.62-10.72,1.48-12.31,1.26-12.38ZM808.49,411.16c6.28,1.95,13.35,2.32,21.56,1.99.01-5.23.45-11.11-1-15.26-2.35-6.66-15.68-4.78-19.09-.27l2.55,3.99-7.29,7.96c-.4.44-.85,1.65-.5,1.98s1.96,1.49,2,1.46,1.71-1.8,1.77-1.86ZM878.3,400.41c2.62-1.08-.16,13.74,13.02,13.07,3.73-.19,9.14-1.14,10.94-2.92s2.64-7.13,1.81-10.22c-1.01-3.79-7.42-6.45-11.88-6.62-3.51-.13-9.48,2.9-12.03,5.1l1.45-4.18c.36-1.03-6.69-1.05-7.13-.05l-4.71,10.72c-2.62-5.06-1.56-12.67-11.82-11.35l8.35,18.1c.77,1.68,7.45.81,8.02-.74l4-10.9ZM921.78,413.25l4.84-.6-.32-18.21-20.27-.55.4,19.29c3.45-.08,7.18.28,7.13-.77l-.19-4.21c-.16-3.61.48-9.85,3.22-11.02,8.31-.21,2.21,16.43,5.2,16.06ZM984.45,400.07c.25,2.99-.97,9.98-3.74,9.77-7.66.27-1.81-15.7-4.84-15.75l-6.04-.09c-.78,3.9-1.37,11.9,1.11,15.85,3.23,5.13,15.18,4.68,18.28-.38.3-3.89.42-11.29.37-14.82-.02-1.05-5.67-.88-5.58.17l.44,5.25ZM1082.93,400.59c.18,2.31-2.02,7.53-3.99,9.73-5.32-3.04-6.2-7.38-5.37-14.1-.07-.53-1.75-1.37-5.44-2.81-.43,5.05-.84,11.41.34,15.94,2.83,5.89,15.73,5.75,19.26.05l.28-14.75c.02-1.06-5.62-.86-5.53.19l.46,5.75ZM1100.29,397.05c1.36.39,4.01,1.51,5.13,2.29l4.01,2.79c.85.59,3.65-1.59,3.25-2.46s-1.86-3.2-2.77-3.85c-4.36-3.09-13.82-2.51-17.35,1.11-4.06,4.16-3.77,10.62,1,14.21,3.79,2.85,12.34,2.72,16.27.46.93-.53,3.34-3.43,2.58-3.95l-3.11-2.08c-1.79-1.19-8.69,7.45-10.24,3.87-4.69-10.84,1.56-12.29,1.23-12.39ZM1183.89,395.1c-7.26-2.65-14.9-1.26-17.67,2.93-2.47,3.74-2.2,8.68.89,12.25,2.76,3.19,10.31,3.84,16.18,2.27,6.88-1.83,7.46-14.95.6-17.45ZM351.94,604.84c-1.47,32.68-1.57,64.75-.32,98.84.55,14.85,19.5,31.73,38.32,31.73h1110.41c58.73,0,34.59-90.9,38.01-130.58l.98-11.39-.05-90.98c-.01-21.23-19.61-38.23-44.88-38.23H395.88c-25.25,0-44.87,16.99-44.88,38.24l-.04,90.97c0,3.4.55,7.33.98,11.41ZM944.18,818.33c18.13,0,29.17-13.7,28.74-26.21-.46-13.37-12.69-24.78-29.77-24.78h-291.24c-17.77,0-30.24,12.38-29.78,26.29.43,13.13,12.62,24.76,29.8,24.76l292.26-.06ZM1239.5,818.31c17.96,0,29.11-13.68,28.67-26.2-.47-13.36-12.76-24.78-29.72-24.78h-220.81c-17.65,0-30.18,12.38-29.72,26.29.43,13.11,12.69,24.77,29.74,24.76l221.84-.08ZM1137.21,882.15c18.28,0,29.23-13.72,28.8-26.22-.46-13.38-12.63-24.79-29.83-24.79h-383.96c-17.89,0-30.29,12.38-29.83,26.3.43,13.14,12.56,24.76,29.85,24.76l384.96-.05Z"/>
  <path class="st6" d="M1538.36,604.84c-.25.02-2.59,1.83-2.96,2.55-6.94,13.48-22.44,22.72-41.03,22.72H395.92c-18.55,0-34.13-9.33-41.03-22.68-.39-.76-2.69-2.56-2.95-2.58-.43-4.07-.98-8.01-.98-11.41l.04-90.97c0-21.25,19.63-38.24,44.88-38.24h1098.54c25.26,0,44.86,17,44.88,38.23l.05,90.98-.98,11.39ZM1483.03,500.62c-1.08-1.21-5.21-1.23-6.22.02-3.87,4.8-3.29,11.83-.81,13.94,1.4,1.19,6.05.87,7.78.08s3.81-8.92-.75-14.05ZM546.89,513.39l1.48-3.65c.25-.61-1.33-1.84-1.87-2.46l1.73-4.49c-2.7.11-7.21,3.45-6.96,5.31l1.93,14.38,3.69-9.09ZM406.34,522.03c-1.38-6.98-4.25-12.6-8.43-19.35l-10.03,16.61,2.72,2.63c2.76-3.07,5.76-6.28,7.37-5.24l8.37,5.35ZM426.47,515.72l10.53-.96c-.28-4.75-6.29-6.91-10.75-5.68-2.72.75-4.61,5.52-4.03,8.34s6.38,5.08,10.1,3.88c1.17-.38,3.37-1.48,4.12-1.88.5-.27-1.47-1.89-2.05-1.84l-2.74.25-4.72.4c-.64.05-.44-1.65-.45-2.51ZM441.86,512.67l8-1.78c-2.86-1.76-8.24-2.71-9.84-1.29-1.33,1.18-1.94,5.43-1.59,7.07l.98,4.58c.07.35,10.36,1.63,10.9-1.98.17-1.15-.56-3.7-1.81-4.15l-6.66-2.45ZM471.97,520.02c2.76-1.37,3.77-7,1.32-9.01s-6.6-2.16-12.57-2.32l-.13,17.98c5.05-3.29,6.04-3.99,11.37-6.64ZM507.23,508.5c-4.01,3.02-4.79,4.13-7.01,6.66l-5.85-6.81c.66,6.82,2.09,9.78,6.69,14.47l6.18-14.32ZM520.98,520.58l-.07-4.06c-.05-2.79-1.54-6.93-3.97-7.48s-8.73.76-7.99,2.28l6.49.53c.65.05.07.84-.44,1.26l-6.94,2.07c-1.33.4-.54,3.88.28,4.86,2.07,2.47,12.67,1.99,12.65.54ZM568.25,521.87c1.33.25,5.41-.01,5.49-1.07l.31-4.35c.15-2.05-2.08-7-4.36-7.44s-7.84.76-7.78,1.72l7.74,2.1-8.15,1.98c-1.49.36-1.56,5.51-.04,5.79l6.79,1.27ZM590.46,522.47l-.25-13.83c-5.7.28-10.37.6-12.56,1.88s-2.22,7.17-.41,8.69,4.48,2.2,9.4,4.31l-9.61.85c1.14.72,4.61,2.3,6.76,3,1.8.59,6.71-2.68,6.67-4.91ZM597.3,515.72l10.3-.92c-.13-5.09-6.25-6.81-10.51-5.72-2.87.74-4.5,5.38-3.93,8.38s6.17,4.97,10.02,3.86c1.06-.31,3.36-1.5,4.1-1.91.49-.27-1.48-1.88-2.06-1.83l-2.73.24-4.72.4c-.64.05-.44-1.65-.46-2.51ZM621.37,522.13l.36-12.69-12.04-.25c.09,5.36.39,9.65,1.14,12.88l5.2-12.04,5.34,12.09ZM1205.11,551.96v1.6h142.05v-1.6h-142.05ZM1186.83,562.58l5.27-4.11-5.27,4.11ZM410.47,580.55c-.03.71,3.98,3.69,4.65,2.55l3.85-6.56c-.74-.81,3.96,2.98,5.19,4.26s-2.52,4.3-3.58,7.45c1.27-.6,4.25-3.3,5.19-4.91,3.21-5.49-10.79-14.92-17.7-18.64-2.75-1.48-9.75,5.29-8.92,7.88l11.32,7.97ZM1186.54,565.52c0-.44-.42-.8-.93-.8s-.93.36-.93.8.42.8.93.8.93-.36.93-.8ZM993.22,588.29l-.22-21.67-25.2.07v21.67s25.41-.07,25.41-.07ZM1183.57,587.17l.06-19.52c-4.22,5.47-4.21,14.26-.06,19.52ZM571.95,585.45l-6.77-4.33c-1.36-.87,1.25-3.53,2.84-5.74-.75-.32-2.87-1.02-3.47-.47l-2.7,2.42-3.48-8.4-1.22,16.23,4.7-1.54,10.1,1.82ZM1112.26,583.87c-3.44.73.19,1.31,1.86,1.6,2.5-.1,6.47-.93,6.82-2.68.51-2.53.04-7.39-1.25-8.48-1.12,1.44-1.73,4.3-1.86,6.38-.49.79-2.69,2.63-2.79,1.75l-.63-5.65-8.7-6.88c-3.62,2.37-6.75,4.3-10.12,6.24-2.22,1.28-1.81,7.1.46,8.28s8.6,1.32,10.81.1l4.2-2.32c.51-.28.97,1.25,1.2,1.66ZM533.2,575.99c.29,2.49.84,6.46,2.32,8.21,1.82,2.14,9.83,1.1,10.38-1.01l-8.24-1.35,8.01-1.91c1.33-.32-1.27-5.01-2.62-5.04l-10-.22-.85-2.11c-.19-.48-1.87-1.99-2.12-1.53l-2.04,3.77c-1.6,1.81-3.61,3.29-2.67.94-1.9-2.45-3.88-5.56-4.56-4.68l-4.07,5.25-7.47-6.07,5.21,16.39,6.92-7.52,5.17,7.56c3.35-5.79,4.41-8,6.64-10.7ZM1024.88,583.87c4.58-.71,10.43,3.89,14.87-.19l-8.06-2.01,7.06-1.36c1.49-.29.89-3.26.22-4.45s-5.55-2.57-6.77-1.73l-7.56,5.17c-.1-1.81-.39-5.1-.73-6.78-.4-1.99-7-1.38-11.65-1.48l-.25,14.83,12.87-1.99ZM1211.06,575.09l6.95-2.66c-2.07-1.41-10.29-2.02-10.34.11l-.33,12.83c4.63-.18,7.95-.4,9.44-1.4s1.95-5.67.25-6.38l-5.97-2.5ZM1238.9,585.12c.47-5.2-.15-10.12-1.66-14.41-6.19,2.21-10.25,6.92-10.01,10.62l11.67,3.8ZM1406.12,576.02l10.18-3.86c-3.94-.81-9.57-1.09-12.63-.56l.38,14.09,10.29-7.04-8.22-2.63ZM1347.34,573.63l-10.35,6.32-10.59-6.48c3.84,4.68,6.02,6.66,10.47,10.76,4.77-4.25,7.65-6.9,10.47-10.6ZM594.05,583.52l-6.31-1.27c-.72-.14-.36-.78,0-1.04l6.44-1.83c1.08-.31-.25-2.75-.77-3.61-3.49-5.77-8.52,4.14-23.1.33l4.46,5.38c8.94-1.25,12.88,8.8,19.28,2.04ZM606.45,577.44l-2.19,4.38c-.3.61-3.04.29-3.12-.34l-.52-3.75-.35-2.81c-.07-.55-2.79-.55-2.92-.02l-.75,2.95c-.51,2,.72,6.37,2.77,7.12,1.71.62,6.7.75,7.65-.62s1.51-4.35,2.17-7.23c-2.63-3.17-4.26-3.86-2.74.32ZM622.82,587.81l1.22-13.72-13.17,1.24,1.08,13.79c.22,2.47,10.65,1.31,10.88-1.31ZM629.48,581.68l9.24-2.29c-1.91-4.36-6.54-6.14-10.24-4.91-2.84.94-3.6,6.96-1.88,9.36s8.8,1.97,10.93-.38l-8.05-1.78ZM1053.57,588.11l.94-13.99c-5.67.26-9.67.31-11.59,1.41s-2.18,6.99-.41,8.25,5.08,1.69,8.58,2.57l-8.37,2.02c1.95,2.7,10.7,2.02,10.85-.26ZM1076.62,573.86l-5.3,10.32-2.81-10.09c-3.33,1.61-3.73,9.28,1.15,11.04,3.26,1.17,8.25-1.66,8.44-3.95.24-2.91-.37-5.53-1.48-7.32ZM1085.97,576.21l4.07,9.13c1.5-1.16,2.07-7.23.86-9.51-1.06-2-10.3-2.43-10.13-.24l.84,10.71,4.36-10.09ZM1129.27,575.99l4.33,10.14c2.12-2.23,2.71-7.3,1.35-9.95-1.16-2.28-10.34-2.83-10.72-.38-.46,2.96,0,6.97,1.05,10.48l3.99-10.28ZM1150.15,587.68l1.24-13.59-13.17,1.22,1.06,13.84c.44,2.21,10.61,1.38,10.87-1.47ZM1268.24,582.27c.33,1.76,2.87,3.38,4.72,3.57,3.8.41,7.79-1.64,6.99-4.57-.95-3.5-1.59-5.7-2.75-6.73s-7.25-.74-7.63.66l-1.54,5.54-4.98-5.49c-1.23-1.35-6.57-.93-9.18-.48l.74,11.28,4.83-10.22,3.03,10.16,5.76-3.73ZM1288.37,576.22l4.08,9.12c1.47-1.15,1.94-7.2.77-9.5-1.02-2.01-10.23-2.47-10.07-.34l.83,10.83,4.39-10.11ZM1310.57,579.92c0-3.3-3.11-5.97-6.95-5.97s-6.95,2.67-6.95,5.97,3.11,5.97,6.95,5.97,6.95-2.67,6.95-5.97ZM1438.79,583.96c.19-3.13.19-8.36-1.67-8.89s-7.16-.82-8.06-.16l-2.14,9.01c1.34,1.7,11.71,2.82,11.88.04ZM1442.55,588.3c1.14,2.54,10.04,2.44,10.49.14,1-5.11,1.06-10.49.41-14.16-4.45-.11-9.81.14-11.1,1.76s-1.78,6.1-.07,7.39c1.42,1.08,4.75,1.88,8.04,2.87l-7.77,2ZM1461.38,581.83c3.49-1.07,7.85-2.22,7.52-4.15-.55-3.23-8.14-4.48-10.65-2.2-2.04,1.85-2.09,6.96.15,8.51,3.07,2.14,9.53,1.82,10.52-.77l-7.54-1.39ZM1477.78,576.19l4.1,9.15c1.43-1.24,1.86-7.16.72-9.46-1-2.01-10.2-2.5-10.03-.31l.83,10.76,4.39-10.14ZM1186.54,589.45c0-.44-.42-.8-.93-.8s-.93.36-.93.8.42.8.93.8.93-.36.93-.8ZM1191.47,596.38l-4.78-4.53,4.78,4.53ZM1205.11,601.42v1.6h142.05v-1.6h-142.05Z"/>
  <path class="st22" d="M1538.36,604.84c-3.42,39.68,20.72,130.58-38.01,130.58l-2.48-1.6H392.42s-2.48,1.6-2.48,1.6c-18.82,0-37.78-16.88-38.32-31.73-1.25-34.09-1.15-66.17.32-98.84.27.02,2.56,1.82,2.95,2.58,6.89,13.35,22.48,22.68,41.03,22.68h1098.45c18.59,0,34.09-9.24,41.03-22.72.37-.72,2.7-2.53,2.96-2.55ZM493.93,676.41h7.43l13.02-.94c3.52-.25,5.96-.29,9.31-.09l14.8-.58c1.49.44,4.25,1.24,5.73,1.49,12.02,2.06,15.56-5.55,23.58-.35l2.42-5.24c.52-1.13-2.03-3.03-3.41-2.85l-18.88,2.67,2.38,1.56c.61.4.89.64.51.92s-2.95,1.63-3.13,1.22l-2.14-4.89c-.49-1.11,2.46-3.32,3.05-3.02l8.86,1.92c-3.23-8.92-13.33-4.11-15.94-.95-4.22,5.12-3.65-.81-10.75-.05-.99.11-1.43,2.66-.46,2.68l4.46.11c0,.25.63,2.51-.09,2.6-1.08.13-3.83.43-5.15.5l-4.79.26c-.67.04-1.41-1.85-.88-2.22l3.71-2.61-7.05.87c-1.25.15-2.26-1.21-5.19-3.23l-1.85,6.87c-.52-4.94-5.81-8.99-12.01-9.19l-7.54-.23-4.78,3.41c-1.22.87-3.94-3.73-5.2-5.27l-9.15,9.45-10.27-4.6c0,2.92.97,7.44,1.81,9.54,14.65-6,1.59.24,27.6.24ZM708.6,669.88l.03,3.32-1.19,3.68,13.65-2.67-7.1-12.4-5.4,8.07ZM864.76,674.48c-3.47-2.8-5.18-6.97-6.6-11.85l-14.7,7.55c-1.07.55-2.28,3.6-2.58,5.13-.16.83,1.73.34,3.73.05,6.42,1.05,13.72.76,20.16-.88ZM906.03,676.4l-.18-15.14c-4.85,5.89-17.29,8.06-11.39,13.54,1.51,1.41,6.82,1.73,11.56,1.6ZM1059.09,675.97c-1.1-2.11-3.53-4.54-2.36-5.22l4.9-2.86-12.24-6.3-.35,14.81,10.05-.44ZM1079.89,667.01l-11.29,1.03-.1,6.98,11.65.93,2.38.46,13.88-.69c1.35-3.33-14.46-13.25-13.69-13.71-1.42.84-2.84,3.46-2.83,5ZM1156.91,676.27c-.17-2.53-1.25-6.61-2.97-7.98-4.71-3.74-13.46.77-16.84-2.59l-4.14-4.12-.43,14.9,24.38-.21ZM1236.67,670.01c-.18.65-.19,1.77,0,3.19-.84,2.32-.83,3.6,0,3.41l11.71-2.64-4.94-3.23c-1.36-.89-1.32-4.16-2.06-8.17l-4.71,7.44ZM456.71,675.78l-.33-11.47-14.46-.88v13.17s14.79-.81,14.79-.81ZM699.88,675.86c-1.79-1.73-4.64-3.84-3.73-4.77l3.67-3.73-4.63-2.48c.23.13-9.67,2.72-9.67,3.28l-.06,5.68c.94,3.73,2.45,3.66,2.8-.27l2.67-5.83,3.25,7.62c.51,1.19,5.38.63,5.7.49ZM792.88,676.1l6.48.09c1.89.03.77-5.14.88-6.75s-4.87-3.57-7.36-2.62c-13.58,5.22-19.88-8.29-27.55-2.33-2.29,1.78-2.61,7.47-.74,10.15,1.74,2.49,7.42,1.74,13.27.5,2.21-.26,1.64-3.91-.26-3.83l-6.19,2.79c-1.34.61-4.45-2.5-4.43-3.8s2.76-3.55,4.18-4.51c6.25,3.19,12.59,4.57,19.93,4.71.04-.02-2.39,1.16-3.01,1.46-.86.41-.97,2.13-.12,2.58l4.93,1.57ZM1185.25,676.08c-.98-2.37-1.91-4.97-2.02-6.53l-.38-5.35c-.08-1.06-4.29,1.22-5.5,1.42l-16.12,2.75c1.68,3.68,2.65,6.69,3.99,11.6,4.93-4.12,14.21-5.98,20.04-3.9ZM1226.42,675.04l-.07-9.73-16.93,2.24.13,9,16.87-1.51ZM584.91,671.61l-1.44,2.98c-.31.64,1.8,1.26,3.24,1.94l.06-6.51,7.44.29c1.77.07,3.07,4.37,4.65,5.51l16.77.42c.45-2.61,1.85-6.73,4.36-6.63,1.61.06,4.11,1.36,5.3,2.74,1.03,1.19.31.73-.08,6.16l7.26-6.72,2.84,4.61c1.63-.2,3.38-1.14,3.52-2.31l.7-5.81,2.31,8.84,3.74-7.16,1.13,6.6,10.54-2.3-3.32-2.47c-.46-.34.51-1.03,1.08-1.24l4.34-1.6c-9.07-1.82-17.51-2.37-26.16-1.11-14.88,2.17-19.6-1.93-46.42.57l-2.24.21-9.82-.82-.75,6.47c2.61.95,9.14.03,10.95-2.67ZM824.13,676.17c-5.07-4.2-6.12-5.19-7.98-8.99l-6.37-.39.37,9.71,13.97-.32ZM1000.11,679.84c5.44,3.6,9.69-.74,12.4-3.12,1.71-1.5,2.62-4.75,1.45-7.42-.93-2.13-7.44-2.86-10.3-2.65-2.57.19-6.08,3.12-7.17,6.95l9.55,3.58-5.93,2.67ZM1131.86,676.26c-1.3-5.71-1.22-8.44-2.76-8.74l-6.82-1.33-3.09,10.18,12.67-.11ZM406.65,692.35l.57,2.2c.23.88,3.98,1.39,5.05,1.13,8.19-1.98,17.48-9.27,14.37-17.62-2.01-5.39-12.84-9.33-18.33-7.33-6.37,2.32-11.12,5.39-11.37,9.55-.32,5.36,2.43,9.47,9.71,12.08ZM520.59,692.35c-4.6-.45-8.71,1.31-11.16,4.48l-2.14-1.36c.7-1.34,1.47-3.6.31-3.33-2.28.53-4.99,1.22-6.33,1.74-1.46.56-.87,3.37-.11,4.86l.2,2.34c.18,2.19,10.39-1.53,18.57.85l6.42-.74,1.64-4.34c.41-1.09,3.41-1.62,4.99-2.26l-4.06-.85c-3.81-.8-2.43-12.27-6.06-5.56l-2.26,4.18ZM593.83,701.65c-2.55-3.47-3.92-5.28-2.79-5.96l5.16-3.07-8.65.68-2.34-5.53c-1.97,2.12-3.85,5.47-5.75,5.5l-9.21.13c.2.91,3.53,4.05,4.84,3.48l7.5-3.26.45,7.73,10.8.29ZM680.42,701.51l14.03.49-.18-14.59c-11.56,9.78-8.4,3.65-16.86,10.28-.81.64,1.99,3.78,3.01,3.82ZM792.54,693.65c-18.71,4.54,1.11-2.3-23.8-.08-2.79.25-4.56,6.35-3.13,7.19,4.46-.1,8.87.89,12.18,2.01l-5.92.55c-.61.06-1.03,1.45-.56,1.77s3.05,1.6,3.66,1.6c2.8,0,6.54-3.99,8.68-7.38l9.23,1.02c1.75.81,6.06,2.36,7.89,1.53,2.14-.96,6.36-4.14,7.1-5.12l-11.84-7.39c-.57-.74-2.37-1.68-2.55-.88-.46,2.04-1.01,4.11-.96,5.18ZM840.11,693.98l-6.83-.22c-.73-.02-2.78-1.57-2.14-1.87l4.67-2.21-6.8-1.98c1.82.53-13.01,6.25-11.83,10.02,2.13,6.77,18.32,4.39,19.06,3.08l3.86-6.82ZM467.8,701.1c-.07-4.32-.23-7.16-1.31-8.05s-5.7-1.54-6.35-.39l-2.43,4.36c-.99-2.03-2.52-4.94-4-4.74-2.44.33-6.04,1.17-7.16.27l-4.63-3.74.48,14.32,6.2-5.24c1.86-1.57,15.26,7.37,19.2,3.2ZM548.11,702.25l14.47-.63c-1.85-1.69-3.22-2.49-2.79-3.04l2.02-2.58c.06-.8.34-4.29.22-2.8l-13.28-3.05-8.04,3.68c-1.49.68.14,6.15,1.29,7.4l5.38-7.16.74,8.18ZM714.65,702.7l-.48-14.38-3.67,6.59c-1.66-1.77-4.62-4.19-8.35-6.71l.18,14.3,4.33-4.83,8,5.03ZM756.21,701.13c4.09-.15,6.63.33,7.39-3.11.36-1.66-2.3-4.43-4.68-4.61-1.61-.12-3.01,3.72-4.23,4.69l-14.22,2.39,7.26-7.75c-6.61-.37-11.4-.96-16.44-2.49-2.64-.49-6.38,4.83-7.55,7.52l-8.53,2.92c3.61.74,7.45.94,9.23.11s3.11-4.7,4.56-7.05l1.1,8.32,26.1-.95ZM608.64,700.28c.18-3.03-.2-6.28-1.04-7.39-.64-.84-4.64-.74-5.38-.04l-6.72,6.35c2.26,2.62,12.95,4.36,13.15,1.08ZM642.16,704.39c3.26,1.52,4.92,2.29,6.23,2.16s4.68-2.5,4.75-3.67l.59-10.66c-7.02-.2-9.86.68-16.22,5.36l12.25,5.48-7.61,1.33ZM848.26,704.15c1.41,1.08,5.03,3.29,6.31,2.35l5.69-4.19c1.76-1.3,4.19-3.08,5.24-4.48s-2.54-4.7-4.46-5c-7.33-1.15-11.08-.93-16.73,5.18l11.6,5.06-7.65,1.08ZM905.94,701.96l7.54-1.05.07-4.68c0-.64,2.59-.44,2.55.19l-.28,5.12c.22.14,3.7-1.22,3.45-2.28l-1.25-5.25c-3.44.76-8.84-1.78-11.86-1.66l-18.11.7-15.54.6c-8.19.32,1.21,3.38-3.57,2.76,1,.13,3.8.29,4.75.12l5.57-.96c1.11-.19.78,3.62.92,5.47l11.47,1.5-7.65,1.37c.2.57,5.07,2.36,7.09,2.51,2.43.18,4.37-5.14,4.29-7.3l10.56,2.83Z"/>
  <path class="st19" d="M1137.21,882.15l-384.96.05c-17.29,0-29.42-11.62-29.85-24.76-.46-13.92,11.94-26.3,29.83-26.3h383.96c17.19,0,29.37,11.41,29.83,24.79.43,12.5-10.52,26.22-28.8,26.22ZM766.31,862.05c2.9-1.89,3.98-12.23.85-15.48-3.44-3.57-16.17-4.12-19.09-.23-3.13,4.17-1.77,13.18.19,15.87l18.06-.17ZM1008.16,863.63l-.29-15.95-5.11,5c-.94.92-4.85,1.36-6.06,2.08-2.32,1.39-2.18,8.04.3,9.21,2.12,1,9.28.98,11.16-.34ZM1084.41,861.78c2.38,3.58,8.86,4.13,14.34,1.26l-9.02-2.49,6.47-.98c1.13-.17,1.64-2.75,1.3-3.7-.46-1.26-3.16-2.19-6.08-2.71-2.17-.38-6.54,1.88-7,3.5l-4.84-1.77-9.8-6.88-.13,16.61c5.28.45,11.11-.52,14.77-2.84ZM809.65,864.88l-.57-11.77-5.76,8.15-2.11-10.54-12.05-.58.04,14.63c15.76,1.46,12.89-5.12,16.43-2.67l4.03,2.78ZM837.71,861.19c5.01-1.85,6.83-2.27,7.51-3.41s-2.4-4.24-3.93-4.33c-3.01-.18-9.11.49-9.25,2.52s.06,5.57.59,7.2,6.32,1.82,8.27,1.49l4.21-.72c14.76-2.51-17.18-2.03-7.41-2.74ZM867.4,861.19c5-1.8,7.01-2.21,7.52-3.41s-2.59-4.14-4.09-4.36c-2.8-.41-9.12.43-9.14,2.48-.02,1.89.25,5.57.64,7.24s6.38,1.81,8.37,1.47l4.13-.71c15.08-2.59-17.44-1.85-7.43-2.72ZM906.15,856.66c-.3,2.42.35,7.48,2.94,7.87,3.34.5,8.83-.69,10.25-1.96l-8.01-1.9,7.74-1.6c1.47-.3-.6-5.31-2.07-5.39-2.62-.15-6.89.72-8.75,1.48l-18.53-1.76c-1.57-.15-4.34,1.97-5.26,3.24-.87,1.2,1.9,2.32,5.06,4.06l-6.05,1.91c1.86.97,6.79,2.2,9.6,2.2,1.48,0,5.41-3.7,4.2-4.41l-5.92-3.47,14.82-.26ZM953.95,855.42l4.62,9.57c2.45-4.18,2.02-10.64-1.39-11.16s-8.41.57-11,1.22c-2.33-.46-6.9-1.44-9.68-1.45-2.6,0-3.1,6.61-2.26,8.82s6.29,1.94,9.8,1.96l7.81.05,2.1-9ZM974.15,858.54c-.28,3.42-.34,3.5-.23.07l-1.7-5.1c-.22-.64-3.21-.28-3.92,0-1.56.63-1.86,10.76,2.03,11.03,2.28.16,6.51-.04,8.39-.57s1.91-5.08,1.99-7.63c.03-1.01-1.81-3.42-2.96-3.17-.94.21-2.66.54-2.79,1.21l-.81,4.16ZM1049.13,864.64l9.53-.24c-.26-2.8-.7-7.16-1.12-9.4-.45-2.35-8.67-1.56-10.4-.98l2,4.24c-3.76,2.27-8.13,3.97-13.13,2.6l10.32-1.77c-1.79-2.95-4.74-5.97-7.53-6.04-4.96-.11-7.65,3.62-6.62,7.88.95,3.95,5.55,3.85,10.69,3.28l6.26.43ZM1119.75,861c4.89-1.53,7.25-1.99,7.73-3.18s-2.47-4.15-4.04-4.37c-3.59-.48-9.47,1.41-9.64,3.72-.24,3.31,1.57,7.8,4.64,7.66,3.45-.16,6.74-1.14,9.14-2.41l-7.82-1.43ZM1134.99,855.4l2.59,10.08c7.17-.96,4.63-7.58,2.86-10.28-1.33-2.04-7.44-1.94-11.62-1.43l1.05,12.09,5.13-10.45Z"/>
  <path class="st18" d="M944.18,818.33l-292.26.06c-17.18,0-29.36-11.63-29.8-24.76-.46-13.92,12-26.3,29.78-26.3h291.24c17.08,0,29.31,11.41,29.77,24.78.43,12.51-10.61,26.21-28.74,26.21ZM655.34,783.17l-1.39,1.85c-5.01-.21-7.47,4.6-7.34,8.53.18,5.62,2.59,8.73,9.11,10.33,3.79.93,7.54,2.66,11.79.23,8.2-4.69,9.35-17.52,1.97-23.32l-14.14,2.38ZM772.44,790.33l-4.74.27c-1.74.1.14-5.89-1.66-5.74l-4.67.38-.08,15.35,13.06-.09c-1.14-1.39-3.67-3.77-3.29-5.15l1.37-5.02ZM701.34,794.54l-9.09-4.19,10.14-1.15c-2.15-2.29-8.2-3.42-11.66-2.68-2.05.44-4.27,5.15-2.57,5.99l7.08,3.5c4.38,1.18,2.09,1.33-1.56,1.03l-5.15-.16c-.99-.03-1.56,2.1-.71,2.54s3.78,1.68,4.8,1.58l7.57-.78c1.58-.16,1.54-4.23,1.14-5.68ZM835.59,789.66l-7.75.69c-2.28.2-1.7,6.18-1.36,8.12s4.92,2.63,9.12,2.36l9.53-.61-.3-6.57c-.05-1.04,4.96-1.33,5.15-.27l.9,4.99c.23,1.26,2.32,1.85,6.31,2.72l-1.39-15.26-14.04,4.92-3.48,1.22c-.68.24-1.46-.9-2.68-2.31ZM878.12,799.17c2.48-1.32,5.45-.86,8.96.97,2.32,1.21,7.74-.77,9.79-2.51.88,1.63,4.5,4.07,6.57,3.55s5.28-1.81,6.95-2.61l-9.81-2.53v-1.6l9.59-2.51c-3.68-3.05-9.88-2.13-15.18-.87-.53-.42-2.83-2.19-2.99-1.38l-.99,5.24c-.82,3.92-2.25,3.83-3.14.02l-1.07-5.28c-.24-1.17-4.27,1.17-4.8,1.58-3.39-4.6-7.5-5.58-16.48-4.79l-.18,14.35c4.35.28,9.96-.13,12.77-1.64ZM717.28,795.19c0-3.35-3.16-6.07-7.07-6.07s-7.07,2.72-7.07,6.07,3.16,6.07,7.07,6.07,7.07-2.72,7.07-6.07ZM741.04,796.36c.02.88-3.99,1.24-3.93.29l.27-4.6c-1.03-1.34-4.9-3.07-3.47-.6-1.71,7.06.42,9.32,6.3,9.67,3.13.19,6.14-2.85,6.32-6.42.11-2.09.22-4.63-.94-4.92s-4.7-.49-4.68.55l.13,6.04ZM784.56,800.96c.81-4.28.8-8.01-.06-11.44-.81,4.28-.8,8.01.06,11.44ZM804.62,795.23c0-3.37-3.18-6.1-7.1-6.1s-7.1,2.73-7.1,6.1,3.18,6.1,7.1,6.1,7.1-2.73,7.1-6.1ZM941.35,800l.3-4.21c.12-1.61-1.21-6.43-3.06-6.14l-7.71,1.18,5.11,2.98-5.41,1.66c-1.11.34-.6,3.7-.14,4.63.63,1.27,10.81,1.24,10.91-.09Z"/>
  <path class="st2" d="M1239.5,818.31l-221.84.08c-17.05,0-29.31-11.65-29.74-24.76-.46-13.91,12.08-26.3,29.72-26.3h220.81c16.96,0,29.25,11.42,29.72,24.78.44,12.53-10.71,26.2-28.67,26.2ZM1019.42,796.04l4.77,8.5c7.16-4.19,11.45-7.06,14-13.66,1.22-3.14-2.76-8.86-5.87-10.05-4.36-1.67-11.14-.87-14.17,2.21s-3,8.86,1.26,12.99ZM1082.55,800.83l1.86-1.24h1.86c2.44,1.43,9.73,2.15,10.92-.15.53-1.02-.7-5.63.51-5.9l8.79-1.92-18.36-1.96-3.71,1.6-2.11.1-10.91-7.14.69,18.12,6.21-9.84.45,6.05c.09,1.24,1.76,1.91,3.81,2.28ZM1179.41,789.59l-9.5.72c-2.21.17-1.9,5.71-2.4,7.06l-3.93-3.2c-.79-.65,1.35-1.89,3.05-3.82-3.75-1.31-9.33-.9-12.57,2.09l6.35,4.69-3.86.77c-.73.15-1.18,2.4-.98,2.5l24.29.28c.74,0,2.24.13,2.94.18.52-.67,1.45-2.75,1.96-4.35l1.28-3.99c.36-1.14,3.55.93,3.95,1.99l2.66,7.03c1.39-3.33,1.6-8.46.31-10.26-5.04-2-7.71-3.17-9.97-6.43l-3.58,4.74ZM1069.82,789.05c-.72-.53-3.19-2.14-4.19-2.43-4.96-1.43-11.93.51-12.58,5.63-.39,3.09,2.15,7.98,5.97,8.64,4.74.82,11.97-.69,9.94-4.3-3.8.25-7.02.51-8.82.42s-2.22-4.84-.98-5.97c3.47-3.16,16.84,2.61,10.66-1.98ZM1130.98,790.91c-.1,1.67-.06,5.9.68,7.95,1.53,4.24,10.22,1.19,13.21-.53,1.26-.4,4.26,1.37,6.14,2.43l.53-9.02c-11.51,3.23-7.31-5.64-20.56-.83-.22-1.15,2.31-3.94,1.45-3.95l-4.41-.07c-2.83-.04-2.2,7.18-4.92,6.17l-3.5-5.95c-.63-1.07-4.95-.34-5.41-.03l8.98,15.68,7.82-11.85ZM1212.53,800.86l2.23-4.25,8.42,5.42-6.73,1.24c.82,2.43,11.29,3.49,11.97.45.89-3.95.88-9.26.98-13.96l-9.72.05c-1.95.01-3.26,3.05-4.3,4.46l-2.85-3.02c-2.63-2.78-7.93-1.5-13.08.77l5.42,1.29-9.05,4.8,16.7,2.75ZM1234.56,796.83l10.05-1.34c-.9-2.58-3.97-6.37-6.64-6.2-4.13.27-6.81,2.24-7.41,5.78-.4,2.35,2.96,6.49,6.36,5.97,2.14-.32,6.33-1.92,6.95-2.53l-9.3-1.69Z"/>
  <polygon class="st9" points="1500.35 735.42 389.94 735.42 392.42 733.82 1497.87 733.82 1500.35 735.42"/>
  <path class="st5" d="M1146.05,399.72l16.36-1.25-.03,14.95-18.78-.53c-9.32-.26-11.51-10.22-11.32-17.53l-6.85,7.28,8.91,10.33c-3.34.75-8.11-1-11.44-3.61l-1.89,2.93c-.49.76-3.17.73-6.76,1.02l-.03-25.78c4.16.22,7.1-.06,7.17.95l.47,7.26,11.61-1.24c3.68-4.04,8.15-7.72,16.05-7.34,6.14.29,11.69,3.41,13.26,7.65l-5.1,1.92c-3-2.48-7.75-4.94-10.89-4.5-4.99.69-7.51,5-6.92,10.03.39,3.35,4.89,6.65,8.67,6.5,3.16-.12,8.02-3.68,8.74-5.51l-11.23-3.54Z"/>
  <path class="st29" d="M962.53,411.08c-6.33,3.33-15.79,1.97-22.92,2.04l-.02-25.42c7.36-.02,16.25-.99,22.58,1.74,7.46,3.22,8.13,17.55.35,21.64ZM945.18,409.18c3.23,1.74,11.22.61,13.8-2.22,3.2-3.51,3.68-8.61.89-12.08s-8.84-4.45-14.74-3.96l.04,18.26Z"/>
  <path class="st14" d="M722.6,413.24l-20.72-.07v-25.75s20.61.79,20.61.79c4.67.18,9.38,7.89,9.46,11.54.1,5.03-4.09,10.77-9.34,13.48ZM707.82,410.45c11.04-.66,14.26-1.43,17.02-5.72,2.14-3.32.76-9.63-2.69-11.63s-9.82-2.47-14.72-2.17l.39,19.52Z"/>
  <path class="st14" d="M808.49,411.16c-.07.07-1.73,1.83-1.77,1.86s-1.66-1.13-2-1.46.1-1.54.5-1.98l7.29-7.96-2.55-3.99c3.42-4.51,16.75-6.39,19.09.27,1.46,4.14,1.02,10.02,1,15.26-8.21.33-15.28-.04-21.56-1.99ZM816.86,397.77c-1.03,1.34-2.25,4.3-1.24,4.29l5.54-.07c1.03-.01,1.32-2.59.74-3.32s-4.46-1.65-5.04-.9Z"/>
  <path class="st14" d="M1038.31,413.03l.19-25.17c5.61-.09,11.34-.12,18.25.37,5.6.4,9.64,8.76,9.39,12.88-.23,3.66-4.51,11.28-9.48,11.61-5.83.39-14.03.06-18.34.31ZM1042.07,410.44c11.03-.65,14.26-1.43,17.02-5.72,2.14-3.32.76-9.63-2.69-11.62s-9.8-2.47-14.73-2.17l.4,19.51Z"/>
  <path class="st5" d="M791.1,402.93l9.84,9.84c-2.38,1.5-9.05-.55-12.15-3.43l-2.98,3.72c-.78.98-6.04-.43-6.02-1.7l.22-23.1c1.43-.54,7.1-1.23,7.16.14l.33,7.42,13.24-1.95-9.65,9.06Z"/>
  <path class="st5" d="M1033.53,394.02l-7.01,9.91c4.4,3.98,6.67,6.14,7.75,9.34-3.19.19-8.23-2.66-10.21-4.23.27,1.7-5.55,5.74-6.64,4.26l-3.58-4.91v-1.6c.65-.58,2.32-1.81,2.06-2.59-.35-1.05-1.39-2.83-2.06-3.79-1.34-.75-1.35-.89,0-1.6,1.44-2.31,1.77-5.51,2.2-10.57l6.94-.62.33,11.1c3.67-2.46,6.61-4.19,10.22-4.7Z"/>
  <path class="st29" d="M921.78,413.25c-2.98.37,3.11-16.27-5.2-16.06-2.74,1.17-3.38,7.41-3.22,11.02l.19,4.21c.05,1.05-3.68.69-7.13.77l-.4-19.29,20.27.55.32,18.21-4.84.6Z"/>
  <path class="st29" d="M878.3,400.41l1.86-1.6c2.56-2.2,8.53-5.24,12.03-5.1,4.46.17,10.87,2.83,11.88,6.62.82,3.09-.01,8.45-1.81,10.22s-7.22,2.73-10.94,2.92c-13.18.68-10.39-14.15-13.02-13.07ZM899.14,403.6c0-3.28-3.09-5.93-6.91-5.93s-6.91,2.66-6.91,5.93,3.09,5.93,6.91,5.93,6.91-2.66,6.91-5.93Z"/>
  <path class="st29" d="M1183.89,395.1c6.86,2.51,6.29,15.62-.6,17.45-5.87,1.56-13.42.91-16.18-2.27-3.1-3.57-3.36-8.51-.89-12.25,2.77-4.19,10.42-5.58,17.67-2.93ZM1182.1,397.09c-5.8.11-9.62.97-11.1,3.56-1.13,1.99,0,6.13,1.57,7.86,1.34,1.49,8.16,2.11,9.07.34,1.31-2.55,1.09-7.15.46-11.77Z"/>
  <path class="st7" d="M984.45,400.07l-.44-5.25c-.09-1.05,5.56-1.22,5.58-.17.05,3.52-.06,10.93-.37,14.82-3.09,5.06-15.05,5.51-18.28.38-2.48-3.95-1.89-11.95-1.11-15.85l6.04.09c3.03.05-2.82,16.01,4.84,15.75,2.76.22,3.99-6.78,3.74-9.77Z"/>
  <path class="st7" d="M1100.29,397.05c.33.1-5.92,1.54-1.23,12.39,1.55,3.58,8.45-5.06,10.24-3.87l3.11,2.08c.77.51-1.64,3.41-2.58,3.95-3.93,2.26-12.48,2.39-16.27-.46-4.77-3.58-5.05-10.04-1-14.21,3.53-3.63,12.99-4.2,17.35-1.11.91.64,2.37,2.97,2.77,3.85s-2.4,3.05-3.25,2.46l-4.01-2.79c-1.12-.78-3.77-1.9-5.13-2.29Z"/>
  <path class="st7" d="M766.06,397.05c.23.06-5.88,1.66-1.26,12.38,1.56,3.62,8.44-5.08,10.29-3.84l3.08,2.07c.77.51-1.65,3.41-2.53,3.91-4.07,2.32-12.5,2.41-16.32-.44-4.78-3.57-5.06-10.03-1.01-14.21,3.53-3.63,13.16-4.07,17.27-1.17,1,.71,2.47,3.04,2.86,3.92s-2.38,3.05-3.24,2.46l-3.98-2.74c-1.2-.83-3.83-1.96-5.17-2.34Z"/>
  <path class="st7" d="M748.67,400.59l-.43-5.77c-.08-1.05,5.54-1.23,5.52-.18l-.28,14.75c-3.53,5.7-16.43,5.85-19.26-.05-1.19-4.53-.78-10.9-.34-15.93,3.67,1.43,5.39,2.28,5.42,2.78-.77,6.88.04,10.84,5.38,14.23,2.03-2.5,4.16-7.45,3.98-9.84Z"/>
  <path class="st29" d="M1013.85,398.82c-1.35.71-1.34.84,0,1.6-.21.51-2.28,2.43-2.96,1.83l-3.54-3.14c-1.32-1.17-4.98-2.58-6.08-1.33-3.48,3.96-3.64,8.76.96,12.12,3.54,2.58,8.95-9.71,11.63-3.1v1.6c-2.56,6.11-13.42,6.68-18.57,2.5s-4.72-11.74.99-15.28,15.32-2.49,17.58,3.21Z"/>
  <path class="st7" d="M1082.93,400.59l-.46-5.75c-.08-1.06,5.55-1.25,5.53-.19l-.28,14.75c-3.53,5.7-16.43,5.84-19.26-.05-1.18-4.53-.77-10.89-.34-15.94,3.69,1.44,5.37,2.28,5.44,2.81-.84,6.72.05,11.05,5.37,14.1,1.97-2.19,4.18-7.42,3.99-9.73Z"/>
  <path class="st7" d="M880.15,398.82l-1.86,1.6-4,10.9c-.57,1.54-7.25,2.41-8.02.74l-8.35-18.1c10.26-1.32,9.2,6.29,11.82,11.35l4.71-10.72c.44-1,7.49-.98,7.13.05l-1.45,4.18Z"/>
  <path class="st9" d="M1038.31,413.03l-4.03.24c-1.09-3.21-3.35-5.36-7.75-9.34l7.01-9.91c1.48-2.09,3.28-4.31,4.96-6.15l-.19,25.17Z"/>
  <path class="st20" d="M993.22,588.29l-25.41.07v-21.67s25.19-.07,25.19-.07l.22,21.67ZM986.81,577.53c0-3.03-2.86-5.49-6.4-5.49s-6.4,2.46-6.4,5.49,2.86,5.49,6.4,5.49,6.4-2.46,6.4-5.49Z"/>
  <path class="st7" d="M1117.83,580.68c.95-1.51,1.59-4.23,1.86-6.38,1.29,1.09,1.76,5.95,1.25,8.48-.35,1.75-4.32,2.58-6.82,2.68l-1.86-1.6c-.23-.41-.69-1.94-1.2-1.66l-4.2,2.32c-2.21,1.22-8.43,1.14-10.81-.1s-2.67-7-.46-8.28c3.37-1.95,6.49-3.87,10.12-6.24l8.7,6.88.63,5.65c.1.88,2.3-.97,2.79-1.75Z"/>
  <path class="st20" d="M533.05,574.68l.15,1.31c-2.23,2.7-3.29,4.91-6.64,10.7l-5.17-7.56-6.92,7.52-5.21-16.39,7.47,6.07,4.07-5.25c.68-.88,2.66,2.22,4.56,4.68-.94,2.35,1.07.87,2.67-.94l2.04-3.77c.25-.46,1.93,1.06,2.12,1.53l.85,2.11Z"/>
  <path class="st28" d="M590.46,522.47c.04,2.23-4.86,5.51-6.67,4.91-2.15-.71-5.62-2.29-6.76-3l9.61-.85c-4.92-2.11-7.59-2.79-9.4-4.31s-1.68-7.47.41-8.69,6.85-1.6,12.56-1.88l.25,13.83Z"/>
  <rect class="st1" x="1205.11" y="551.96" width="142.05" height="1.6"/>
  <rect class="st1" x="1205.11" y="601.42" width="142.05" height="1.6"/>
  <path class="st20" d="M622.82,587.81c-.23,2.62-10.65,3.78-10.88,1.31l-1.08-13.79,13.17-1.24-1.22,13.72Z"/>
  <path class="st20" d="M1150.15,587.68c-.26,2.85-10.43,3.68-10.87,1.47l-1.06-13.84,13.17-1.22-1.24,13.59Z"/>
  <path class="st28" d="M471.97,520.02c-5.33,2.65-6.32,3.35-11.37,6.64l.13-17.98c5.98.17,10.24.4,12.57,2.32s1.44,7.64-1.32,9.01Z"/>
  <path class="st14" d="M1024.63,579.3l.25,4.57-12.87,1.99.25-14.83c4.64.1,11.24-.51,11.65,1.48.34,1.68.63,4.98.73,6.78Z"/>
  <path class="st4" d="M406.34,522.03l-8.37-5.35c-1.62-1.03-4.62,2.17-7.37,5.24l-2.72-2.63,10.03-16.61c4.18,6.74,7.05,12.37,8.43,19.35Z"/>
  <path class="st20" d="M1053.57,588.11c-.15,2.28-8.91,2.95-10.85.26l8.37-2.02c-3.49-.88-6.81-1.32-8.58-2.57s-1.5-7.16.41-8.25,5.91-1.15,11.59-1.41l-.94,13.99Z"/>
  <path class="st21" d="M1442.55,588.3l7.77-2c-3.29-1-6.62-1.8-8.04-2.87-1.71-1.29-1.22-5.78.07-7.39s6.65-1.87,11.1-1.76c.65,3.67.59,9.05-.41,14.16-.45,2.3-9.35,2.4-10.49-.14Z"/>
  <path class="st17" d="M594.05,583.52c-6.4,6.76-10.34-3.29-19.28-2.04l-4.46-5.38c14.58,3.81,19.61-6.1,23.1-.33.52.86,1.85,3.3.77,3.61l-6.44,1.83c-.36.26-.72.9,0,1.04l6.31,1.27Z"/>
  <path class="st4" d="M520.98,520.58c.03,1.45-10.58,1.93-12.65-.54-.82-.98-1.61-4.46-.28-4.86l6.94-2.07c.51-.42,1.09-1.2.44-1.26l-6.49-.53c-.74-1.51,5.47-2.86,7.99-2.28s3.92,4.69,3.97,7.48l.07,4.06Z"/>
  <ellipse class="st25" cx="1303.62" cy="579.92" rx="6.95" ry="5.97"/>
  <path class="st25" d="M410.47,580.55c.94-.12,3.94.07,3.83-.75l-.57-4.26c-.39-2.95-.84-5.43-1.97-7.05-1.57-2.26-10.81-.95-9.25,2.64,1.11,2.55,4.99,6.2,7.96,9.42l-11.32-7.97c-.83-2.58,6.18-9.36,8.92-7.88,6.91,3.72,20.91,13.15,17.7,18.64-.94,1.61-3.91,4.31-5.19,4.91,1.06-3.15,4.82-6.17,3.58-7.45s-5.93-5.07-5.19-4.26l-3.85,6.56c-.67,1.14-4.68-1.84-4.65-2.55Z"/>
  <path class="st4" d="M568.25,521.87l-6.79-1.27c-1.51-.28-1.45-5.43.04-5.79l8.15-1.98-7.74-2.1c-.06-.96,5.51-2.16,7.78-1.72s4.5,5.39,4.36,7.44l-.31,4.35c-.08,1.06-4.15,1.32-5.49,1.07Z"/>
  <path class="st4" d="M597.3,515.72c.02.85-.18,2.56.46,2.51l4.72-.4,2.73-.24c.58-.05,2.56,1.56,2.06,1.83-.74.41-3.04,1.6-4.1,1.91-3.85,1.12-9.46-.95-10.02-3.86s1.05-7.64,3.93-8.38c4.26-1.1,10.38.63,10.51,5.72l-10.3.92Z"/>
  <path class="st4" d="M426.47,515.72c.01.86-.18,2.56.45,2.51l4.72-.4,2.74-.25c.58-.05,2.55,1.58,2.05,1.84-.75.4-2.95,1.51-4.12,1.88-3.72,1.2-9.51-.99-10.1-3.88s1.31-7.59,4.03-8.34c4.46-1.24,10.47.93,10.75,5.68l-10.53.96Z"/>
  <path class="st5" d="M1024.88,583.87l-.25-4.57,7.56-5.17c1.22-.84,6.1.54,6.77,1.73s1.27,4.16-.22,4.45l-7.06,1.36,8.06,2.01c-4.44,4.08-10.29-.52-14.87.19Z"/>
  <path class="st28" d="M441.86,512.67l6.66,2.45c1.24.46,1.98,3,1.81,4.15-.54,3.61-10.83,2.33-10.9,1.98l-.98-4.58c-.35-1.64.26-5.89,1.59-7.07,1.59-1.42,6.98-.47,9.84,1.29l-8,1.78Z"/>
  <path class="st20" d="M1211.06,575.09l5.97,2.5c1.7.71,1.24,5.38-.25,6.38s-4.81,1.22-9.44,1.4l.33-12.83c.06-2.13,8.27-1.52,10.34-.11l-6.95,2.66ZM1209.49,580.34c-1.06.26,1.85,2.93,2.48,2.25l2.68-2.89c.42-.45-3.84.32-5.16.64Z"/>
  <path class="st5" d="M533.2,575.99l-.15-1.31,10,.22c1.35.03,3.95,4.72,2.62,5.04l-8.01,1.91,8.24,1.35c-.55,2.1-8.56,3.15-10.38,1.01-1.48-1.74-2.03-5.72-2.32-8.21Z"/>
  <path class="st21" d="M1438.79,583.96c-.17,2.77-10.53,1.66-11.88-.04l2.14-9.01c.9-.66,6.2-.37,8.06.16s1.86,5.76,1.67,8.89Z"/>
  <path class="st5" d="M571.95,585.45l-10.1-1.82-4.7,1.54,1.22-16.23,3.48,8.4,2.7-2.42c.6-.54,2.72.16,3.47.47-1.59,2.21-4.2,4.87-2.84,5.74l6.77,4.33Z"/>
  <path class="st14" d="M1238.9,585.12l-11.67-3.8c-.24-3.69,3.82-8.4,10.01-10.62,1.51,4.29,2.13,9.21,1.66,14.41Z"/>
  <path class="st21" d="M1461.38,581.83l7.54,1.39c-.99,2.59-7.44,2.9-10.52.77-2.23-1.55-2.19-6.66-.15-8.51,2.51-2.28,10.1-1.02,10.65,2.2.33,1.94-4.03,3.09-7.52,4.15Z"/>
  <path class="st14" d="M1268.24,582.27l-.21-1.52,1.54-5.54c.39-1.39,6.47-1.68,7.63-.66s1.8,3.23,2.75,6.73c.8,2.93-3.2,4.97-6.99,4.57-1.85-.2-4.39-1.82-4.72-3.57Z"/>
  <path class="st25" d="M1129.27,575.99l-3.99,10.28c-1.05-3.5-1.51-7.51-1.05-10.48.38-2.45,9.55-1.89,10.72.38,1.36,2.65.77,7.73-1.35,9.95l-4.33-10.14Z"/>
  <path class="st28" d="M621.37,522.13l-5.34-12.09-5.2,12.04c-.75-3.23-1.05-7.53-1.14-12.88l12.04.25-.36,12.69Z"/>
  <path class="st20" d="M1268.03,580.75l.21,1.52-5.76,3.73-3.03-10.16-4.83,10.22-.74-11.28c2.6-.45,7.95-.87,9.18.48l4.98,5.49Z"/>
  <path class="st5" d="M629.48,581.68l8.05,1.78c-2.13,2.35-9.18,2.83-10.93.38s-.95-8.42,1.88-9.36c3.7-1.23,8.33.55,10.24,4.91l-9.24,2.29Z"/>
  <path class="st25" d="M606.45,577.44c-1.52-4.18.11-3.49,2.74-.32-.65,2.88-1.22,5.86-2.17,7.23s-5.94,1.24-7.65.62c-2.05-.75-3.28-5.11-2.77-7.12l.75-2.95c.13-.53,2.85-.53,2.92.02l.35,2.81.52,3.75c.09.63,2.82.95,3.12.34l2.19-4.38Z"/>
  <path class="st21" d="M1406.12,576.02l8.22,2.63-10.29,7.04-.38-14.09c3.06-.52,8.69-.25,12.63.56l-10.18,3.86Z"/>
  <path class="st20" d="M1076.62,573.86c1.12,1.79,1.72,4.4,1.48,7.32-.19,2.3-5.17,5.13-8.44,3.95-4.88-1.76-4.48-9.43-1.15-11.04l2.81,10.09,5.3-10.32Z"/>
  <path class="st25" d="M1347.34,573.63c-2.82,3.7-5.7,6.35-10.47,10.6-4.45-4.09-6.62-6.08-10.47-10.76l10.59,6.48,10.35-6.32Z"/>
  <path class="st4" d="M507.23,508.5l-6.18,14.32c-4.6-4.69-6.03-7.65-6.69-14.47l5.85,6.81c2.23-2.53,3.01-3.64,7.01-6.66Z"/>
  <path class="st5" d="M1288.37,576.22l-4.39,10.11-.83-10.83c-.16-2.13,9.05-1.67,10.07.34,1.17,2.3.7,8.35-.77,9.5l-4.08-9.12Z"/>
  <path class="st5" d="M1085.97,576.21l-4.36,10.09-.84-10.71c-.17-2.2,9.07-1.76,10.13.24,1.21,2.29.64,8.35-.86,9.51l-4.07-9.13Z"/>
  <path class="st4" d="M546.89,513.39l-3.69,9.09-1.93-14.38c-.25-1.86,4.26-5.2,6.96-5.31l-1.73,4.49c.54.62,2.12,1.85,1.87,2.46l-1.48,3.65Z"/>
  <path class="st21" d="M1477.78,576.19l-4.39,10.14-.83-10.76c-.17-2.19,9.03-1.71,10.03.31,1.15,2.3.72,8.22-.72,9.46l-4.1-9.15Z"/>
  <path class="st1" d="M1183.57,587.17c-4.15-5.26-4.16-14.05.06-19.52l-.06,19.52Z"/>
  <path class="st20" d="M1483.03,500.62c4.56,5.14,2.52,13.25.75,14.05s-6.38,1.1-7.78-.08c-2.48-2.11-3.06-9.14.81-13.94,1.01-1.25,5.14-1.24,6.22-.02ZM1482.05,501.53c-.65-1.15-4.89-.33-5.1.94l-.81,4.94c-.23,1.37-.64,6.1.97,6.13l5.64.12c1.13.02,2.15-7.1-.69-12.12Z"/>
  <path class="st20" d="M1117.83,580.68c.12-2.08.74-4.94,1.86-6.38-.26,2.15-.91,4.87-1.86,6.38Z"/>
  <path class="st20" d="M1114.12,585.47c-1.66-.28-5.3-.87-1.86-1.6l1.86,1.6Z"/>
  <path class="st1" d="M1191.47,596.38l-4.78-4.53,4.78,4.53Z"/>
  <ellipse class="st1" cx="1185.61" cy="565.52" rx=".93" ry=".8"/>
  <ellipse class="st1" cx="1185.61" cy="589.45" rx=".93" ry=".8"/>
  <path class="st1" d="M1186.83,562.58l5.27-4.11-5.27,4.11Z"/>
  <path class="st13" d="M906.15,692.35c.34.59,3.12,3.91,1.83,4.09l-5.61.75c-.83.11-2.83,2.35-2.03,2.46l3.51.49c.49.07,2.94-.86,3.45-1.07.41-.17.03.63-.29,1.16l-1.08,1.75-10.56-2.83c.08,2.16-1.86,7.48-4.29,7.3-2.01-.15-6.88-1.94-7.09-2.51l7.65-1.37-11.47-1.5c-.14-1.85.19-5.66-.92-5.47l-5.57.96c-.95.16-3.75,0-4.75-.12,4.78.62-4.62-2.44,3.57-2.76l15.54-.6,18.11-.7Z"/>
  <path class="st12" d="M633.19,667.85c1.07,2.58,1.77,5.64,2.13,8.55l-2.84-4.61-7.26,6.72c.39-5.44,1.12-4.97.08-6.16-1.19-1.38-3.7-2.68-5.3-2.74-2.51-.1-3.92,4.02-4.36,6.63l-16.77-.42c-1.58-1.13-2.88-5.44-4.65-5.51l-7.44-.29v-1.6c26.82-2.5,31.55,1.6,46.42-.57Z"/>
  <path class="st13" d="M756.21,701.13l-26.1.95-1.1-8.32c-1.45,2.35-2.79,6.21-4.56,7.05s-5.62.63-9.23-.11l8.53-2.92c1.17-2.69,4.9-8.01,7.55-7.52,5.04,1.53,9.83,2.12,16.44,2.49l-7.26,7.75,14.22-2.39c1.22-.97,2.62-4.81,4.23-4.69,2.38.18,5.04,2.95,4.68,4.61-.75,3.43-3.3,2.96-7.39,3.11ZM740.96,694.58c-3.57-.33-7.69-.68-7.57.35l.67,5.53,6.9-5.87Z"/>
  <path class="st3" d="M534.78,670.01c1.82.04,3.64,3.36,3.71,4.79l-14.8.58c-3.36-.2-5.79-.16-9.31.09l-13.02.94c-1.49-4.11-1.55-8.53.12-12.54,6.2.19,11.49,4.24,12.01,9.19l1.85-6.87c2.93,2.02,3.95,3.38,5.19,3.23l7.05-.87-3.71,2.61c-.53.37.21,2.26.88,2.22l4.79-.26c1.32-.07,4.07-.37,5.15-.5.72-.09.1-2.36.09-2.6Z"/>
  <path class="st12" d="M493.93,663.63v12.78c-26.02,0-12.96-6.24-27.6-.24-.84-2.1-1.81-6.63-1.81-9.54l10.27,4.6,9.15-9.45c1.26,1.54,3.98,6.14,5.2,5.27l4.78-3.41ZM491.84,674.87l.06-6.76-3.72,2.91c-.72.57,1.5,2.19,3.66,3.84Z"/>
  <path class="st26" d="M1156.91,676.27l-24.38.21.43-14.9,4.14,4.12c3.38,3.36,12.13-1.15,16.84,2.59,1.72,1.37,2.8,5.45,2.97,7.98ZM1148.06,675.13c3.41-2.78,3.82-4.28,2.36-4.95l-2.36,4.95Z"/>
  <path class="st13" d="M792.54,693.65l.35,6.68-9.23-1.02c-2.14,3.38-5.87,7.37-8.68,7.38-.61,0-3.17-1.26-3.66-1.6s-.05-1.72.56-1.77l5.92-.55c-3.31-1.12-7.72-2.11-12.18-2.01-1.43-.84.34-6.94,3.13-7.19,24.92-2.22,5.1,4.63,23.8.08Z"/>
  <path class="st21" d="M1185.25,676.08c-5.82-2.08-15.1-.22-20.04,3.9-1.34-4.92-2.31-7.93-3.99-11.6l16.12-2.75c1.21-.21,5.42-2.48,5.5-1.42l.38,5.35c.11,1.56,1.04,4.17,2.02,6.53Z"/>
  <path class="st13" d="M840.11,693.98l-3.86,6.82c-.74,1.31-16.93,3.68-19.06-3.08-1.18-3.77,13.65-9.49,11.83-10.02l6.8,1.98-4.67,2.21c-.65.31,1.41,1.85,2.14,1.87l6.83.22Z"/>
  <path class="st3" d="M544.22,676.3c-1.12-2.88-2.04-6-2.7-9.02,2.61-3.17,12.71-7.98,15.94.95l-8.86-1.92c-.59-.29-3.54,1.91-3.05,3.02l2.14,4.89c.18.4,2.76-.94,3.13-1.22s.1-.51-.51-.92l-2.38-1.56,18.88-2.67c1.37-.19,3.93,1.71,3.41,2.85l-2.42,5.24c-8.01-5.2-11.56,2.41-23.58.35Z"/>
  <path class="st24" d="M467.8,701.1c-3.95,4.18-17.35-4.77-19.2-3.2l-6.2,5.24-.48-14.32,4.63,3.74c1.12.9,4.72.06,7.16-.27,1.49-.2,3.01,2.7,4,4.74l2.43-4.36c.65-1.16,5.26-.5,6.35.39s1.24,3.73,1.31,8.05Z"/>
  <path class="st13" d="M848.26,704.15l7.65-1.08-11.6-5.06c5.65-6.11,9.41-6.33,16.73-5.18,1.92.3,5.5,3.63,4.46,5s-3.48,3.18-5.24,4.48l-5.69,4.19c-1.29.95-4.91-1.27-6.31-2.35Z"/>
  <path class="st26" d="M864.76,674.48c-6.43,1.63-13.74,1.93-20.16.88-2,.3-3.89.78-3.73-.05.3-1.53,1.52-4.58,2.58-5.13l14.7-7.55c1.42,4.87,3.13,9.05,6.6,11.85Z"/>
  <path class="st13" d="M548.11,702.25l-.74-8.18-5.38,7.16c-1.14-1.25-2.78-6.72-1.29-7.4l8.04-3.68,13.28,3.05c.12-1.49-.16,2-.22,2.8l-2.02,2.58c-.43.55.94,1.35,2.79,3.04l-14.47.63Z"/>
  <polygon class="st26" points="456.71 675.78 441.92 676.59 441.92 663.42 456.38 664.31 456.71 675.78"/>
  <path class="st26" d="M1000.11,679.84l5.93-2.67-9.55-3.58c1.09-3.83,4.6-6.76,7.17-6.95,2.86-.21,9.37.52,10.3,2.65,1.17,2.67.25,5.91-1.45,7.42-2.71,2.38-6.96,6.72-12.4,3.12Z"/>
  <path class="st21" d="M635.32,676.4c-.36-2.91-1.06-5.97-2.13-8.55,8.66-1.26,17.09-.72,26.16,1.11l-4.34,1.6c-.57.21-1.54.89-1.08,1.24l3.32,2.47-10.54,2.3-1.13-6.6-3.74,7.16-2.31-8.84-.7,5.81c-.14,1.17-1.89,2.11-3.52,2.31Z"/>
  <polygon class="st21" points="1226.42 675.04 1209.55 676.55 1209.42 667.55 1226.35 665.31 1226.42 675.04"/>
  <path class="st13" d="M680.42,701.51c-1.02-.04-3.82-3.18-3.01-3.82,8.47-6.63,5.3-.5,16.86-10.28l.18,14.59-14.03-.49Z"/>
  <path class="st13" d="M642.16,704.39l7.61-1.33-12.25-5.48c6.35-4.68,9.19-5.56,16.22-5.36l-.59,10.66c-.06,1.17-3.43,3.55-4.75,3.67s-2.97-.64-6.23-2.16Z"/>
  <path class="st24" d="M792.88,700.32l-.35-6.68c-.06-1.07.5-3.14.96-5.18.18-.8,1.98.14,2.55.88l11.84,7.39c-.74.98-4.96,4.16-7.1,5.12-1.83.83-6.14-.72-7.89-1.53Z"/>
  <path class="st24" d="M593.83,701.65l-10.8-.29-.45-7.73-7.5,3.26c-1.3.57-4.64-2.57-4.84-3.48l9.21-.13c1.9-.03,3.79-3.38,5.75-5.5l2.34,5.53,8.65-.68-5.16,3.07c-1.14.68.24,2.49,2.79,5.96Z"/>
  <path class="st26" d="M906.03,676.4c-4.75.14-10.05-.19-11.56-1.6-5.9-5.49,6.54-7.65,11.39-13.54l.18,15.14Z"/>
  <path class="st9" d="M519.92,701.92l1.41-3.14c-3.45.72-6.84,2.01-6.82.83s-.65-5.82.66-5.53l5.33,1.19c.52.12,1.18-.74.99-1.12l-.9-1.8,2.26-4.18c3.63-6.71,2.25,4.76,6.06,5.56l4.06.85c-1.57.65-4.57,1.17-4.99,2.26l-1.64,4.34-6.42.74Z"/>
  <path class="st13" d="M714.65,702.7l-8-5.03-4.33,4.83-.18-14.3c3.73,2.52,6.69,4.94,8.35,6.71l3.67-6.59.48,14.38Z"/>
  <path class="st3" d="M792.88,666.82c.2,3.14.33,6.43,0,9.28l-4.93-1.57c-.85-.45-.74-2.16.12-2.58.62-.3,3.05-1.47,3.01-1.46-7.34-.13-13.68-1.52-19.93-4.71-1.42.97-4.16,3.21-4.18,4.51s3.09,4.41,4.43,3.8l6.19-2.79c1.9-.08,2.47,3.56.26,3.83-5.84,1.23-11.52,1.99-13.27-.5-1.87-2.68-1.55-8.37.74-10.15,7.66-5.96,13.97,7.56,27.55,2.33Z"/>
  <path class="st21" d="M1059.09,675.97l-10.05.44.35-14.81,12.24,6.3-4.9,2.86c-1.16.68,1.26,3.1,2.36,5.22Z"/>
  <path class="st3" d="M1082.53,676.42l.19-14.4c-.77.46,15.04,10.38,13.69,13.71l-13.88.69Z"/>
  <path class="st3" d="M406.65,692.35c3.79,1.24,8.64,1.63,11.65-.31s6.19-7.44,6.42-11.23c.17-2.81-5.98-6.39-9.03-7.17-3.41-.87-10.84,1.02-15.08,3.47-3.74,2.42,1.19,12,6.04,15.25-7.28-2.6-10.03-6.72-9.71-12.08.25-4.15,5-7.23,11.37-9.55,5.5-2,16.33,1.94,18.33,7.33,3.11,8.35-6.18,15.65-14.37,17.62-1.08.26-4.83-.25-5.05-1.13l-.57-2.2Z"/>
  <path class="st18" d="M905.94,701.96l1.08-1.75c.32-.53.7-1.33.29-1.16-.51.21-2.96,1.14-3.45,1.07l-3.51-.49c-.8-.11,1.2-2.35,2.03-2.46l5.61-.75c1.29-.17-1.49-3.5-1.83-4.09,3.03-.12,8.42,2.42,11.86,1.66l1.25,5.25c.25,1.06-3.23,2.42-3.45,2.28l.28-5.12c.04-.64-2.54-.83-2.55-.19l-.07,4.68-7.54,1.05Z"/>
  <path class="st26" d="M699.88,675.86c-.31.14-5.19.7-5.7-.49l-3.25-7.62-2.67,5.83c-.35,3.93-1.86,4-2.8.27l.06-5.68c0-.56,9.91-3.16,9.67-3.28l4.63,2.48-3.67,3.73c-.91.93,1.94,3.04,3.73,4.77Z"/>
  <path class="st13" d="M608.64,700.28c-.2,3.28-10.89,1.54-13.15-1.08l6.72-6.35c.74-.7,4.75-.8,5.38.04.85,1.12,1.23,4.36,1.04,7.39Z"/>
  <path class="st26" d="M824.13,676.17l-13.97.32-.37-9.71,6.37.39c1.86,3.8,2.91,4.79,7.98,8.99Z"/>
  <path class="st26" d="M1131.86,676.26l-12.67.11,3.09-10.18,6.82,1.33c1.54.3,1.46,3.03,2.76,8.74Z"/>
  <path class="st28" d="M708.64,673.21l4.49-.68c.76-.11-.4-2.51-1.15-2.53l-3.37-.11,5.4-8.07,7.1,12.4-13.65,2.67,1.19-3.68Z"/>
  <path class="st13" d="M507.29,695.47h0l2.14,1.36c2.46-3.17,6.56-4.94,11.16-4.48l.9,1.8c.19.38-.47,1.24-.99,1.12l-5.33-1.19c-1.32-.29-.64,4.33-.66,5.53s3.36-.11,6.82-.83l-1.41,3.14c-8.18-2.38-18.38,1.33-18.57-.85l-.2-2.34,3.37,1.7c.84.43,2.87-2.49,2.14-2.23-2.65-1.53-4.87-3.11-5.39-4.32,1.34-.51,4.05-1.21,6.33-1.74,1.16-.27.38,2-.31,3.33Z"/>
  <path class="st28" d="M501.47,663.87c-1.66,4.02-1.61,8.44-.12,12.54h-7.43v-12.78l7.54.23Z"/>
  <path class="st3" d="M1079.89,667.01c0,.41-.02,1.82.02,1.88s-1.29.13-2.26.23l-3.8.37c-.96.09-.97,4.24,0,4.28l4.92.21s.78,1.1,1.38,1.97l-11.65-.93.1-6.98,11.29-1.03Z"/>
  <path class="st28" d="M1236.67,673.21l3.76-.73c.67-.13-.37-2.46-1.06-2.43s-1.79-.01-2.69-.04l4.71-7.44c.73,4.01.7,7.28,2.06,8.17l4.94,3.23-11.71,2.64c-.82.19-.84-1.09,0-3.41Z"/>
  <path class="st1" d="M584.53,668.63l.38,2.98c-1.81,2.7-8.34,3.63-10.95,2.67l.75-6.47,9.82.82Z"/>
  <path class="st26" d="M792.88,676.1c.33-2.85.2-6.14,0-9.28,2.49-.96,7.46,1.01,7.36,2.62s1.02,6.78-.88,6.75l-6.48-.09Z"/>
  <path class="st9" d="M1082.53,676.42l-2.38-.46c-.6-.87-1.39-2.01-1.38-1.97l-4.92-.21c-.97-.04-.96-4.19,0-4.28l3.8-.37c.98-.1,2.3-.16,2.26-.23s-.01-1.47-.02-1.88c-.02-1.54,1.41-4.15,2.83-5l-.19,14.4Z"/>
  <path class="st19" d="M541.52,667.28c.66,3.01,1.58,6.14,2.7,9.02-1.49-.26-4.24-1.05-5.73-1.49-.08-1.43-1.89-4.74-3.71-4.79l-4.46-.11c-.98-.02-.53-2.58.46-2.68,7.1-.76,6.53,5.17,10.75.05Z"/>
  <path class="st16" d="M1236.67,673.21c-.19-1.42-.18-2.54,0-3.19.9.03,1.99.07,2.69.04s1.74,2.3,1.06,2.43l-3.76.73Z"/>
  <path class="st16" d="M708.64,673.21l-.03-3.32,3.37.11c.76.03,1.91,2.42,1.15,2.53l-4.49.68Z"/>
  <path class="st19" d="M586.77,670.01l-.06,6.51c-1.45-.68-3.55-1.3-3.24-1.94l1.44-2.98-.38-2.98,2.24-.21v1.6Z"/>
  <path class="st18" d="M501.16,698.73c-.76-1.49-1.35-4.3.11-4.86.52,1.21,2.74,2.79,5.39,4.32.73-.26-1.3,2.66-2.14,2.23l-3.37-1.7Z"/>
  <path class="st25" d="M766.31,862.05l-18.06.17c-1.96-2.69-3.32-11.7-.19-15.87,2.92-3.89,15.65-3.34,19.09.23,3.13,3.25,2.06,13.59-.85,15.48ZM765.93,856.13c.38-1.62.55-6.89-.53-8.94-1.59-3.02-16.21-1.66-16,1.12.08,1.12.3,4.24.26,3.78,6.52.81,9.31,1.68,16.27,4.04Z"/>
  <path class="st7" d="M953.95,855.42l-2.1,9-7.81-.05c-3.51-.02-8.99.17-9.8-1.96s-.34-8.83,2.26-8.82c2.78,0,7.35.99,9.68,1.45,2.58-.65,7.7-1.71,11-1.22s3.84,6.97,1.39,11.16l-4.62-9.57ZM947.13,860.63c-3.66-.41-6.9-.39-9.54.04,3.66.41,6.9.39,9.54-.04Z"/>
  <path class="st5" d="M809.65,864.88l-4.03-2.78c-3.54-2.44-.67,4.13-16.43,2.67l-.04-14.63,12.05.58,2.11,10.54,5.76-8.15.57,11.77Z"/>
  <path class="st10" d="M1084.41,856.66c1.05.38,2.26,2.33,3.19,3.45.66.79-1.28,1.19-3.19,1.67-3.66,2.32-9.5,3.29-14.77,2.84l.13-16.61,9.8,6.88,4.84,1.77Z"/>
  <path class="st10" d="M1008.16,863.63c-1.88,1.32-9.04,1.35-11.16.34-2.47-1.17-2.61-7.82-.3-9.21,1.2-.72,5.11-1.16,6.06-2.08l5.11-5,.29,15.95Z"/>
  <path class="st7" d="M1049.13,858.26l3.43,4.04c.61.72-3.09,2.05-3.43,2.34l-6.26-.43c-5.15.57-9.74.67-10.69-3.28-1.03-4.26,1.66-8,6.62-7.88,2.79.06,5.74,3.09,7.53,6.04l-10.32,1.77c5,1.37,9.36-.33,13.13-2.6Z"/>
  <path class="st25" d="M908.23,855.15l-2.08,1.51-14.82.26,5.92,3.47c1.21.71-2.72,4.41-4.2,4.41-2.81,0-7.74-1.23-9.6-2.2l6.05-1.91c-3.16-1.74-5.93-2.86-5.06-4.06.92-1.26,3.69-3.39,5.26-3.24l18.53,1.76Z"/>
  <path class="st7" d="M867.4,861.19c-10.01.87,22.51.14,7.43,2.72l-4.13.71c-2,.34-7.98.2-8.37-1.47s-.65-5.35-.64-7.24c.02-2.06,6.34-2.89,9.14-2.48,1.5.22,4.61,3.16,4.09,4.36s-2.53,1.61-7.52,3.41Z"/>
  <path class="st7" d="M837.71,861.19c-9.78.71,22.17.23,7.41,2.74l-4.21.72c-1.96.33-7.74.14-8.27-1.49s-.73-5.17-.59-7.2,6.24-2.7,9.25-2.52c1.53.09,4.6,3.19,3.93,4.33s-2.49,1.56-7.51,3.41Z"/>
  <path class="st10" d="M974.15,858.54l.81-4.16c.13-.66,1.85-1,2.79-1.21,1.14-.25,2.99,2.16,2.96,3.17-.08,2.55-.11,7.09-1.99,7.63s-6.11.73-8.39.57c-3.89-.27-3.59-10.4-2.03-11.03.71-.28,3.71-.65,3.92,0l1.7,5.1c-.11,3.43-.05,3.35.23-.07Z"/>
  <path class="st7" d="M1119.75,861l7.82,1.43c-2.39,1.27-5.68,2.25-9.14,2.41-3.07.14-4.88-4.35-4.64-7.66.17-2.31,6.05-4.2,9.64-3.72,1.57.21,4.53,3.16,4.04,4.37s-2.84,1.66-7.73,3.18Z"/>
  <path class="st7" d="M906.15,856.66l2.08-1.51c1.87-.76,6.13-1.63,8.75-1.48,1.47.08,3.55,5.09,2.07,5.39l-7.74,1.6,8.01,1.9c-1.42,1.27-6.9,2.46-10.25,1.96-2.58-.39-3.24-5.44-2.94-7.87Z"/>
  <path class="st7" d="M1084.41,861.78c1.92-.47,3.85-.88,3.19-1.67-.94-1.12-2.14-3.07-3.19-3.45.46-1.62,4.83-3.88,7-3.5,2.92.52,5.62,1.45,6.08,2.71.35.94-.17,3.53-1.3,3.7l-6.47.98,9.02,2.49c-5.47,2.87-11.96,2.32-14.34-1.26Z"/>
  <path class="st10" d="M1134.99,855.4l-5.13,10.45-1.05-12.09c4.19-.51,10.29-.61,11.62,1.43,1.77,2.71,4.31,9.32-2.86,10.28l-2.59-10.08Z"/>
  <path class="st5" d="M1049.13,864.64c.34-.29,4.04-1.63,3.43-2.34l-3.43-4.04-2-4.24c1.74-.58,9.95-1.37,10.4.98s.86,6.6,1.12,9.4l-9.53.24Z"/>
  <path class="st27" d="M655.73,803.87c1.28-.29,4.86-.31,4.8-1.53l-.4-7.23c-.06-1.15,2.27-3.68,2.7-4.83s-2.39-2.98-3.63-3.56l3.68-3.04-7.53-.52,14.14-2.38c7.38,5.8,6.23,18.63-1.97,23.32-4.24,2.43-8,.7-11.79-.23Z"/>
  <path class="st29" d="M882.01,791.26c-.02.41.38,4.85-.87,4.57l-6.69-1.47,3.67,4.81c-2.81,1.5-8.42,1.92-12.77,1.64l.18-14.35c8.98-.79,13.08.19,16.48,4.79Z"/>
  <path class="st25" d="M835.59,800.83l-5.57-3.19c2.04.12,7.66-.19,7.43-1.6l-1.86-6.38c1.23,1.4,2.01,2.54,2.68,2.31l3.48-1.22,14.04-4.92,1.39,15.26c-3.99-.87-6.09-1.46-6.31-2.72l-.9-4.99c-.19-1.05-5.2-.77-5.15.27l.3,6.57-9.53.61Z"/>
  <path class="st5" d="M659.19,786.72c1.24.58,4.06,2.41,3.63,3.56s-2.77,3.68-2.7,4.83l.4,7.23c.07,1.23-3.51,1.24-4.8,1.53.85-3.32-3.14-7.06-6.79-8.25l-.73-3.67c2.59-1.07,5.86-1.86,5.84-3.09l-.09-3.85,1.39-1.85.95,3.24c.16.54,2.32.05,2.9.31Z"/>
  <path class="st7" d="M701.34,794.54c.4,1.46.44,5.52-1.14,5.68l-7.57.78c-1.01.1-3.96-1.13-4.8-1.58s-.28-2.58.71-2.54l5.15.16c3.64.3,5.94.14,1.56-1.03l-7.08-3.5c-1.7-.84.52-5.55,2.57-5.99,3.45-.74,9.5.39,11.66,2.68l-10.14,1.15,9.09,4.19Z"/>
  <path class="st7" d="M772.44,790.33l-1.37,5.02c-.38,1.38,2.15,3.75,3.29,5.15l-13.06.09.08-15.35,4.67-.38c1.8-.15-.08,5.84,1.66,5.74l4.74-.27Z"/>
  <path class="st7" d="M894.99,791.07c.65,1.41,3.8,3.85,5.59,3.38v1.6c-1.06-.27-2.93.93-3.71,1.6-2.04,1.74-7.47,3.72-9.79,2.51-3.51-1.84-6.48-2.3-8.96-.97l-3.67-4.81,6.69,1.47c1.25.27.85-4.16.87-4.57.53-.41,4.56-2.75,4.8-1.58l1.07,5.28c.89,3.81,2.32,3.9,3.14-.02l.99-5.24c.15-.81,2.46.96,2.99,1.38Z"/>
  <ellipse class="st25" cx="710.21" cy="795.19" rx="7.07" ry="6.07"/>
  <ellipse class="st25" cx="797.52" cy="795.23" rx="7.1" ry="6.1"/>
  <path class="st14" d="M941.35,800c-.1,1.34-10.27,1.37-10.91.09-.46-.93-.97-4.29.14-4.63l5.41-1.66-5.11-2.98,7.71-1.18c1.86-.28,3.18,4.53,3.06,6.14l-.3,4.21Z"/>
  <path class="st10" d="M741.04,796.36l-.13-6.04c-.02-1.04,3.52-.84,4.68-.55s1.05,2.83.94,4.92c-.18,3.57-3.19,6.61-6.32,6.42-5.88-.35-8.01-2.61-6.3-9.67-1.43-2.47,2.44-.74,3.47.6l-.27,4.6c-.06.96,3.95.6,3.93-.29Z"/>
  <path class="st7" d="M835.59,789.66l1.86,6.38c-2.54.07-6.28.63-7.43,1.6l5.57,3.19c-4.19.27-8.78-.44-9.12-2.36s-.91-7.92,1.36-8.12l7.75-.69Z"/>
  <path class="st25" d="M900.58,794.45c-1.79.47-4.94-1.97-5.59-3.38,5.3-1.26,11.5-2.18,15.18.87l-9.59,2.51Z"/>
  <path class="st25" d="M900.58,796.04l9.81,2.53c-1.67.8-4.95,2.1-6.95,2.61s-5.69-1.91-6.57-3.55c.79-.67,2.66-1.87,3.71-1.6Z"/>
  <path class="st7" d="M653.95,785.01l.09,3.85c.03,1.23-3.25,2.02-5.84,3.09l.73,3.67c3.64,1.19,7.63,4.93,6.79,8.25-6.53-1.6-8.94-4.71-9.11-10.33-.13-3.93,2.33-8.75,7.34-8.53Z"/>
  <path class="st24" d="M784.56,800.96c-.86-3.42-.87-7.15-.06-11.44.86,3.42.87,7.15.06,11.44Z"/>
  <path class="st7" d="M1212.53,800.86c-.89-3.2-1.11-6.64,0-9.61l2.85,3.02c1.04-1.42,2.35-4.45,4.3-4.46l9.72-.05c-.11,4.7-.09,10.01-.98,13.96-.68,3.03-11.16,1.98-11.97-.45l6.73-1.24-8.42-5.42-2.23,4.25Z"/>
  <path class="st25" d="M1179.41,789.59l1.38,2.01c.43.63-1.88.93-2.98.98l-5.24.25c-1.22.06-1.26,4.79-.04,4.85l5.16.25c.69.03,3.44-.18,3.24.29l-1.07,2.46-24.29-.28c-.21-.1.24-2.35.98-2.5l3.86-.77-6.35-4.69c3.24-2.99,8.82-3.4,12.57-2.09-1.7,1.93-3.84,3.17-3.05,3.82l3.93,3.2c.5-1.35.19-6.89,2.4-7.06l9.5-.72Z"/>
  <path class="st10" d="M1130.98,790.91c13.24-4.82,9.05,4.05,20.56.83l-.53,9.02c-1.88-1.06-4.88-2.83-6.14-2.43-2.99,1.72-11.68,4.77-13.21.53-.74-2.05-.78-6.28-.68-7.95Z"/>
  <path class="st7" d="M1069.82,789.05c6.18,4.59-7.19-1.18-10.66,1.98-1.24,1.13-.83,5.89.98,5.97s5.02-.17,8.82-.42c2.03,3.61-5.21,5.13-9.94,4.3-3.82-.66-6.36-5.55-5.97-8.64.65-5.12,7.62-7.05,12.58-5.63,1,.29,3.47,1.9,4.19,2.43Z"/>
  <path class="st25" d="M1130.98,790.91l-7.82,11.85-8.98-15.68c.46-.31,4.78-1.04,5.41.03l3.5,5.95c2.72,1.01,2.09-6.21,4.92-6.17l4.41.07c.87.01-1.67,2.8-1.45,3.95Z"/>
  <path class="st7" d="M1086.27,799.58l1.86-9.92,18.36,1.96-8.79,1.92c-1.21.26.02,4.87-.51,5.9-1.18,2.3-8.47,1.58-10.92.15Z"/>
  <path class="st25" d="M1212.53,791.26c-1.11,2.96-.89,6.41,0,9.61l-16.7-2.75,9.05-4.8-5.42-1.29c5.15-2.28,10.45-3.55,13.08-.77Z"/>
  <path class="st10" d="M1082.3,791.36l.25,9.47c-2.05-.38-3.72-1.04-3.81-2.28l-.45-6.05-6.21,9.84-.69-18.12,10.91,7.14Z"/>
  <path class="st7" d="M1234.56,796.83l9.3,1.69c-.63.61-4.81,2.21-6.95,2.53-3.39.51-6.76-3.62-6.36-5.97.61-3.55,3.29-5.51,7.41-5.78,2.67-.18,5.75,3.61,6.64,6.2l-10.05,1.34Z"/>
  <path class="st7" d="M1182.8,800.86l.19-16.01c2.26,3.26,4.94,4.43,9.97,6.43,1.28,1.8,1.08,6.93-.31,10.26l-2.66-7.03c-.4-1.06-3.59-3.13-3.95-1.99l-1.28,3.99c-.51,1.6-1.43,3.68-1.96,4.35Z"/>
  <path class="st1" d="M1182.8,800.86c-.71-.05-2.21-.17-2.94-.18l1.07-2.46c.2-.46-2.55-.25-3.24-.29l-5.16-.25c-1.22-.06-1.18-4.79.04-4.85l5.24-.25c1.1-.05,3.42-.35,2.98-.98l-1.38-2.01,3.58-4.74-.19,16.01Z"/>
  <path class="st7" d="M1019.42,796.04l7.89,3.81c6.78-3.09,8.12-9.86,6.69-16.54l-14.57-.05v12.79c-4.28-4.13-4.37-9.85-1.28-12.99s9.81-3.88,14.17-2.21c3.11,1.19,7.09,6.9,5.87,10.05-2.55,6.6-6.84,9.47-14,13.66l-4.77-8.5Z"/>
  <polygon class="st10" points="1086.27 799.58 1084.41 799.58 1084.41 791.26 1088.12 789.66 1086.27 799.58"/>
  <polygon class="st7" points="1084.41 799.58 1082.55 800.83 1082.3 791.36 1084.41 791.26 1084.41 799.58"/>
  <path class="st17" d="M965.91,288.79c-10.24,1.59-26.65-1.87-30.6,6.66-1.1,2.37.83,8.03,3.39,9.43l9.87,5.65c-.63,3.86-.39,7.99.28,12.01-4.74,5.21-11.41-1.22-18.88.8-1.46,6.1-.59,12.45,3.6,17.47l11.22-5.02,10.83-.36c.5,2.52,2.53,6.76,4,8.09,40.74-5.8,57.67-46.89,42.28-74.69-.66-1.19-.15-3.54.28-4.04,6.14-7.08,29.49,47.62-18.32,75.52-28.09,16.39-65.44,13.24-88.51-8.06-22.93-21.16-25.35-53.58-4.12-76.43,19.74-21.24,61.45-32.5,88.04-11.87-37.45-11.42-73.63-5.15-90.56,24.5-15.78,27.64-1.23,63.05,35.82,74.25l-12.32-43.17c-5.1-17.86-5.8-34.66,18.71-42.08l-13.17-3.14c-.36.46,1.26-1.58,1.67-2.1s-.55-1.17-2.08-2.95c10.18-1.97,19.3,1.74,28.18,6.88,15.49,8.98,19.97,12.73,20.39,32.64Z"/>
  <path class="st17" d="M1008.75,257.67c-15.89.49-16.51,14.07-19.91,19.41-2.57,4.02-3.29-20.67-21.03-19.41-1.08.08-3.99-1.55-4.77-1.81-1.15-.39,3.04-3.15,4.58-3.06,17.8,1.05,18.61-23.42,21.24-19.37.43.66,2.15,2.98,2.15,3.91.11,17.07,27.64,14.81,22.78,18.35-.75.55-3.77,1.95-5.05,1.99Z"/>
  <path class="st11" d="M948.58,310.54l-9.87-5.65c-2.56-1.4-4.48-7.06-3.39-9.43,3.94-8.53,20.36-5.07,30.6-6.66l21.35-3.32c-2.2,16.87-43.7,5.84-39.22,14.83.62,1.25,4.16,4.09,5.89,4.13l28.4.59c-9.44,8.98-22.42,5.39-33.75,5.52Z"/>
  <path class="st8" d="M955.62,335.43l-10.83.36-11.22,5.02c-4.19-5.02-5.06-11.37-3.6-17.47,7.47-2.02,14.14,4.41,18.88-.8,6.14,1.36,12.21-1.13,19.37-4.26,4.72,2.51,6.56,13.73,2.71,17.28-5.58-.55-11.41-1.69-15.32-.13Z"/>
  <path class="st23" d="M945.18,409.18l-.04-18.26c5.9-.49,11.81.32,14.74,3.96s2.31,8.57-.89,12.08c-2.58,2.83-10.58,3.95-13.8,2.22Z"/>
  <path class="st23" d="M707.82,410.45l-.39-19.52c4.89-.3,11.32.21,14.72,2.17s4.83,8.31,2.69,11.63c-2.76,4.29-5.99,5.07-17.02,5.72Z"/>
  <path class="st0" d="M816.86,397.77c.58-.75,4.46.17,5.04.9s.29,3.31-.74,3.32l-5.54.07c-1.01.01.21-2.95,1.24-4.29Z"/>
  <path class="st23" d="M1042.07,410.44l-.4-19.51c4.93-.3,11.31.19,14.73,2.17s4.83,8.31,2.69,11.62c-2.76,4.29-5.99,5.07-17.02,5.72Z"/>
  <path class="st0" d="M1013.85,400.41c.66.96,1.71,2.74,2.06,3.79.26.79-1.41,2.02-2.06,2.59-2.68-6.6-8.09,5.69-11.63,3.1-4.6-3.36-4.44-8.15-.96-12.12,1.1-1.26,4.76.16,6.08,1.33l3.54,3.14c.68.6,2.76-1.31,2.96-1.83Z"/>
  <ellipse class="st22" cx="892.23" cy="403.6" rx="6.91" ry="5.93"/>
  <path class="st16" d="M1182.1,397.09c.63,4.62.85,9.21-.46,11.77-.91,1.77-7.73,1.14-9.07-.34-1.56-1.73-2.7-5.88-1.57-7.86,1.48-2.6,5.29-3.46,11.1-3.56Z"/>
  <ellipse class="st6" cx="980.41" cy="577.53" rx="6.4" ry="5.49"/>
  <path class="st1" d="M410.47,580.55c-2.97-3.21-6.84-6.87-7.96-9.42-1.56-3.59,7.68-4.91,9.25-2.64,1.13,1.62,1.58,4.1,1.97,7.05l.57,4.26c.11.83-2.89.64-3.83.75Z"/>
  <path class="st6" d="M1209.49,580.34c1.32-.32,5.58-1.09,5.16-.64l-2.68,2.89c-.63.68-3.54-1.99-2.48-2.25Z"/>
  <path class="st1" d="M1482.05,501.53c2.85,5.03,1.83,12.15.69,12.12l-5.64-.12c-1.61-.03-1.2-4.76-.97-6.13l.81-4.94c.21-1.27,4.45-2.09,5.1-.94Z"/>
  <path class="st22" d="M740.96,694.58l-6.9,5.87-.67-5.53c-.13-1.03,3.99-.68,7.57-.35Z"/>
  <path class="st22" d="M491.84,674.87c-2.16-1.65-4.38-3.27-3.66-3.84l3.72-2.91-.06,6.76Z"/>
  <path class="st22" d="M1148.06,675.13l2.36-4.95c1.46.68,1.05,2.17-2.36,4.95Z"/>
  <path class="st16" d="M406.65,692.35c-4.85-3.25-9.78-12.83-6.04-15.25,4.24-2.45,11.68-4.34,15.08-3.47,3.05.78,9.2,4.36,9.03,7.17-.23,3.8-3.49,9.34-6.42,11.23s-7.87,1.55-11.65.31Z"/>
  <path class="st18" d="M507.29,695.47h0Z"/>
  <path class="st1" d="M765.93,856.13c-6.96-2.36-9.75-3.23-16.27-4.04.03.46-.18-2.66-.26-3.78-.21-2.78,14.41-4.13,16-1.12,1.08,2.05.91,7.32.53,8.94Z"/>
  <path class="st19" d="M947.13,860.63c-2.64.44-5.88.45-9.54.04,2.64-.44,5.88-.45,9.54-.04Z"/>
  <path class="st7" d="M659.19,786.72c-.57-.27-2.74.23-2.9-.31l-.95-3.24,7.53.52-3.68,3.04Z"/>
  <path class="st18" d="M837.45,796.04c.23,1.41-5.39,1.72-7.43,1.6,1.15-.96,4.89-1.53,7.43-1.6Z"/>
  <path class="st6" d="M1019.42,796.04v-12.79s14.59.05,14.59.05c1.43,6.68.09,13.45-6.69,16.54l-7.89-3.81Z"/>
  <path class="st15" d="M988.68,228.12c13.14-.09.66,18.18,23.09,20.02,3.23.26,8.21,3.85,8.35,6.5.2,3.61-3.13,6.21-8.86,8.13,16.41,28.63,6.99,61.92-22.24,80.5-29.38,18.67-70.26,16.06-95.93-5.82s-29.82-57.05-8.59-82.44c21.64-25.88,61.19-34.27,95.07-19.67,2.56-4.5,5.57-7.18,9.12-7.2ZM955.62,335.43c3.9-1.55,9.73-.42,15.32.13,3.85-3.54,2.01-14.76-2.71-17.28-7.17,3.13-13.23,5.61-19.37,4.26-.67-4.02-.91-8.15-.28-12.01,11.32-.13,24.31,3.46,33.75-5.52l-28.4-.59c-1.73-.04-5.26-2.88-5.89-4.13-4.48-8.99,37.02,2.04,39.22-14.83l-21.35,3.32c-.42-19.91-4.9-23.66-20.39-32.64-8.88-5.15-18-8.85-28.18-6.88,1.54,1.78,2.48,2.46,2.08,2.95s-2.03,2.56-1.67,2.1l13.17,3.14c-24.52,7.42-23.81,24.22-18.71,42.08l12.32,43.17c-37.05-11.19-51.6-46.61-35.82-74.25,16.93-29.65,53.11-35.92,90.56-24.5-26.58-20.64-68.29-9.37-88.04,11.87-21.23,22.84-18.81,55.26,4.12,76.43,23.07,21.3,60.42,24.45,88.51,8.06,47.81-27.89,24.46-82.6,18.32-75.52-.43.5-.94,2.85-.28,4.04,15.4,27.8-1.54,68.89-42.28,74.69-1.47-1.33-3.5-5.57-4-8.09ZM1008.75,257.67c1.28-.04,4.3-1.44,5.05-1.99,4.86-3.54-22.67-1.29-22.78-18.35,0-.93-1.73-3.25-2.15-3.91-2.63-4.05-3.44,20.42-21.24,19.37-1.54-.09-5.73,2.67-4.58,3.06.77.26,3.69,1.89,4.77,1.81,17.74-1.26,18.46,23.43,21.03,19.41,3.41-5.33,4.02-18.92,19.91-19.41Z"/>
</svg>