<svg xmlns="http://www.w3.org/2000/svg" xml:space="preserve" id="Ebene_1" x="0" y="0" viewBox="0 0 1920 1080"><style>.st2{fill:#dedede}.st3{fill:#fdfd00}.st4{fill:#e6e6e6}.st5{fill:#d0d0d0}.st6{fill:#e9e9e9}.st7{fill:#3e393d}.st8{fill:#4c5058}.st9{fill:#3a3138}.st10{fill:#324055}.st11{fill:#413f48}.st12{fill:#523e38}.st13{fill:#312e49}.st14{fill:#d7d7d7}.st19{fill:#d3d3d3}.st20{fill:#403d1a}.st21{fill:#394818}.st22{fill:#2f4118}.st23{fill:#ccc}.st24{fill:#f0f003}.st25{fill:#f6f702}.st27{fill:#0d0d00}</style><path d="M0 0h1920v1080H0zm934.8 1039.3c163.8 0 327.6 0 491.4-.1 11.9 0 23.9-.9 35.7-2.2 13.7-1.4 21.7-8.9 23.2-21.7 1.3-11.4 2.3-22.9 2.3-34.3.1-295.9.1-591.7 0-887.6 0-10.4-1-20.9-2.4-31.2-1.6-12.5-9.1-19.6-22.5-21.2-11.1-1.3-22.4-2.2-33.5-2.2q-482.1-.15-964.2 0c-17.7 0-35.5 1-53.2 2-14.4.8-23 8.2-24.7 21.3-1.4 10.3-2.4 20.8-2.4 31.2-.1 273.8-.2 547.7 0 821.5 0 32.4 1.3 64.9 2.1 97.3.4 14.5 8.4 23.2 23.2 24.8 11.5 1.3 23.1 2.2 34.6 2.2 163.6.3 327 .2 490.4.2" style="fill:#fefefe"/><path d="M934.8 1039.3c-163.4 0-326.8 0-490.3-.1-11.6 0-23.2-.9-34.6-2.2-14.8-1.6-22.9-10.3-23.2-24.8-.9-32.4-2.1-64.9-2.1-97.3-.2-273.8-.1-547.7 0-821.5 0-10.4 1-20.9 2.4-31.2 1.8-13.2 10.4-20.5 24.7-21.3 17.7-1 35.5-2 53.2-2q482.1-.15 964.2 0c11.2 0 22.4.9 33.5 2.2 13.4 1.6 20.9 8.7 22.5 21.2 1.3 10.4 2.3 20.8 2.4 31.2.1 295.9.1 591.7 0 887.6 0 11.4-1 22.9-2.3 34.3-1.4 12.8-9.4 20.3-23.2 21.7-11.9 1.2-23.8 2.2-35.7 2.2-163.9.1-327.7 0-491.5 0M548.3 142.8c-.8 2.2-2.3 4.4-2.4 6.6-.2 12.3-.2 24.6 0 37 0 2.2 1.5 4.4 2.4 6.6.8-7 2.3-14 2.2-21-.1-9.8-1.4-19.5-2.2-29.2m452.6 116.4c.1-.3.4-.7.3-.9-.2-.5-.7-1-1-1.5-1.5 1.2-2.9 2.5-4.4 3.7-3.3 1.8-6.6 3.6-10 5.3.1 1.8.9 3.7.3 5-1.4 2.9-3.5 5.5-5.3 8.2-1.6-2.7-3.9-5.3-4.7-8.2-1-3.2-.7-6.8-1-10.2h-3.3c-.3 4.7-.7 9.4-.8 14.1 0 7.3 4.8 9.9 11.4 7.6 2.9-1 4.5-5.5 6.4-8.6 1.9-3.2 3.5-6.7 5.2-10.1.9 4.1 1.3 8.3 2.9 12.2 1.2 2.8 3.9 5.1 6 7.6.8-.7 1.6-1.3 2.3-2-4.5-5.8-6.6-11.7-.6-17.8 8.5-.5 6.4 5.2 6.6 9.6.2 5-.7 10.7 8.9 8.9-8.6-6.8-9.6-13.5-.7-20-2-2.1-4-4.1-4.4-4.6-5.1 1.3-8.6 2.2-12.2 3.1-.7-.4-1.3-.9-1.9-1.4m-491.6 20.9.2-.6c9.5-4 6.1-9.5 2.1-15.1-5.1-4.3-11.5-6.8-15.7-.9-2.7 3.9-3.4 11-1.5 15.3 2.5 5.8 9 5.4 14.4 1.7.4.2.8.5 1.3.7-.2-.3-.5-.7-.8-1.1m530.8 0 .2-.6c9.5-4 6.1-9.5 2.1-15.1-5.1-4.3-11.5-6.8-15.7-.9-2.7 3.9-3.4 11-1.5 15.3 2.5 5.8 9 5.4 14.4 1.7.4.2.8.5 1.3.7-.2-.3-.5-.7-.8-1.1m211.9 0 .2-.6c9.5-4 6.1-9.5 2.1-15.1-5.1-4.3-11.5-6.8-15.7-.9-2.7 3.9-3.4 11-1.5 15.3 2.5 5.8 9 5.4 14.4 1.7.4.2.8.5 1.3.7-.2-.3-.5-.7-.8-1.1m-623-15.7c-2.5-1.2-5.5-4-7.3-3.4-4.5 1.4-11.5 4-11.9 6.8-.6 4.6 1.8 11 5.3 14.4 3.8 3.5 9.3.3 12.1-6.1-1.2.3-2.1.7-3 .8-3.1.4-6.1.7-9.2 1-.1-3.8-.2-7.6-.3-11.5 3 .2 6.1.8 9.1.5 1.7-.2 3.3-1.8 5-2.7 1.6 3.3 4.2 6.5 4.6 9.9 1 8.1.7 8.2 6.8 7.6v-21.4c-.2-.2-2.4-2.4-4.7-4.6-2.5 3.4-4.5 6.1-6.5 8.7m500.3 11.9c6.1 4.6 12 10.6 20.2 3.8-4.9-1.4-9.4-2.6-14-3.9.3-1 .7-2 1-3 4.8-.4 9.6-.7 17.8-1.4-4.7-5-7-9.6-10.4-10.5-2.9-.8-7.3 2.4-10.8 4.1-1.5.7-2.5 2.2-3.8 3.4-4.4-4.7-7.5-11.7-16.4-6.9-.7-3.6-1.4-6.7-2-9.8-.9.2-1.8.3-2.7.5v32.9c8.2-3.6 14.6-6.4 21.1-9.2m34-115.3c-2.3-3.7-5.4-4.9-5.6.5-.5 15.2-.2 30.5-.2 45.7l4.5.3c.7-5.5 1.5-11 2.2-16.4 8.1 3.6 15.9 5.1 22-2.9 5.2-6.8 4.8-20.9-.9-26.7-6.9-7.1-14.4-5.7-22-.5m-201.8 3.8c-1.5-1.5-2.8-3.1-4.5-4.4-6.4-4.7-13.5-5.3-20.1-.8-8.4 5.8-9.3 14.1-6.7 22.8 2.2 7.3 7.7 11.4 15.9 11.3 8.6-.1 14.5-3.6 16-12.1 5.9-5.7 3.8-11.3-.6-16.8m-446 864.4c300.9 0 601.8 0 902.7-.1 4.2 0 8.3-1.2 12.5-1.8 8.8-.1 17.5-.1 26.3-.2 1.4.7 2.9 1.3 4.3 2 13.3-2 15.3-5 15.3-23v-941h-2.2v786.8c0 14.5 0 14.5-14.9 14.5h-1047c-14.9 0-14.9 0-14.9-14.5V65.1h-2.2V1019c1.4 1.4 2.9 2.7 4.3 4.1 3.7 2 7.3 4 11 6 1.5-1.3 2.9-2.6 4.4-3.9 33.4 1.3 66.9 2.6 100.4 4m-56.1-626.3c-3.9 3-9.6 5.4-11.2 9.2-2.9 6.7-4.4 14.3-4.5 21.6-.5 32.9-.3 65.7-.1 98.6 0 5.7 1 11.4 1.8 17 1.1 7.9 5.2 16.4 3.3 23.6-8.6 32.8-6.4 65.8-2.6 98.6 1.3 10.7 1.4 20.6.1 31.4-2.6 22.4-2.4 45.2-2.6 67.8-.4 29.2 12.1 40.7 43.2 40.7h898.6c2.9 0 5.8.1 8.7 0 17.5-1.1 30.1-7.9 31.8-23.7 2.8-26.4 1.8-53.2 1.5-79.8-.1-7.9-6-16.4-4.1-23.5 8.8-33.2 6.4-66.4 2.8-99.6-1.1-10-4.3-19.3.1-29.4 2.2-5.1 2.4-11.2 2.4-16.9.2-35.6.2-71.2.1-106.7-.1-22-9.4-32.4-32.2-36.6-4.2-.8-8.7-.6-13-.6H489.3c-3.3 0-6.9-.8-9.8.2-6.3 2.2-12.3 5.2-18.4 7.9-.7.3-1.2.4-1.7.2m4.5-224.1c-1.1 11 5.6 15.7 19.2 14.9 7.4-.5 13.8-2.5 15.3-10.3s-3.7-11.9-10.6-14.5c-4.4-1.6-9.4-2.2-13.2-4.5-2.9-1.7-6.3-5.8-5.9-8.3.5-2.7 4.6-6.2 7.9-7 6.7-1.7 13.2-.4 16.3 6.6.8 1.7.9 3.7 1.4 5.5 1.5-1.1 2.9-2.3 4.4-3.4-1.3-2.5-2-5.5-4-7.4-6.1-5.9-13.9-8.2-21.7-4.1-4.1 2.2-8.9 6.7-9.5 10.7-1.3 8.4 6.9 10.8 13.7 13.4 3.7 1.4 8 1.8 11.1 3.9 2.5 1.7 5.1 5.4 4.8 8-.3 2.5-3.6 5.9-6.4 6.8-10.5 3.3-18-.6-22.8-10.3m239 14.4h4.4c0-6.2.2-12.4-.1-18.5-.3-7.3 1.7-13.4 10.6-13.5 10.1-.1 8.1 7.7 8.3 13.5.2 6.2.1 12.4.1 18.7h5.4c0-5.4.6-10.9-.2-16.3-.9-6.1-1.2-13.9-5.2-17.4-3.6-3.1-12-1.4-18.4-1.9-.5-4.3-1.1-9.8-1.8-15.4-1 .1-2.1.2-3.1.3zm-165.6-6.7c-20.6 5.7-26.4 3.1-25.9-11h25.4c.2-10.1-3.4-16.9-13.1-18.4-8.6-1.3-14.4 3.4-17.4 10.8-3.7 9.1-1 19.5 6.7 23.6 8 4.1 15.8 3.6 24.3-5m54.2-10.6c-.1-11-3.9-18.1-14.3-19-9.1-.7-14.6 4.9-17 12.9-2.7 9.4 1.4 19.5 9.3 22.8 7.2 3.1 15.2.8 19.7-5.5-17.8 5-23.8 2.3-23.1-11.3h11.7c4.3.1 8.5.1 13.7.1m179.1-.2c.8-13.9-8.2-22.8-18.3-17.8-5.4 2.7-9.9 9.3-11.8 15-2.4 7.4.4 14.8 8.4 19.1 7.2 3.9 16.1 1.6 20.1-4.9-16.9 5.4-23.7 2.3-22.8-11.4zm111.4.1c.9-13.9-8.2-22.9-18.3-17.8-5.4 2.7-9.9 9.3-11.8 15-2.4 7.4.4 14.8 8.4 19.1 7.2 3.9 16.1 1.6 20.1-4.9-16.9 5.4-23.7 2.3-22.8-11.4zm178.3 0c.1-11-6.6-18.8-16.4-19.2-9.9-.4-17.4 7.3-17.7 18-.3 11.8 6.3 19.3 17 19.4 10.3 0 16.9-7 17.1-18.2m-592.9 87.6c6.3 8 11.2 14.1 16 20.2.7-.5 1.3-.9 2-1.4v-28c-.8-.1-1.7-.2-2.5-.2-.7 5.5-1.3 11-2.2 18.4-6-7.5-10.6-13.4-15.3-19.3-.6.4-1.3.8-1.9 1.2v28.3c.9 0 1.9.1 2.8.1.4-5.8.7-11.6 1.1-19.3m159.3-93.7c-.7-9.2-6.4-13.9-14.6-13-9.9 1.1-16.2 10.1-15 21.3 1.2 10.9 7.9 16.8 18.2 15.8 7.1-.7 11.8-3.7 11.7-11.1-6.3 6.1-12.6 11.3-21.2 4.2-5.4-4.4-4.9-19.2.6-23.4 9.5-7.2 14.6-.1 20.3 6.2m391.8 13c-6.7 5.1-14.3 13-21.3 3.7-3.7-5-4-16.1-.4-21.2 7.9-11.5 15-.6 23.1 5.9-2.2-11.2-8.2-14.8-17-14.2-9.3.6-15.2 8.9-14.9 19.4s6 17.2 15.4 17.6c8.2.3 13.9-2.7 15.1-11.2M811 158.1c-.8-.7-5-2.8-5-4.8 0-11.4 11.8-4.1 19.6-9.5-6.8-.7-12.4-2.9-14.6-1.3-6.4 4.7-11.4 11-16.3 16.1 11.3 10.4.4 24.6 9.3 34.7 1.6-7.9 1.1-15.7 1.8-23.4.4-3.8 3.1-7.3 5.2-11.8m110.6 1.1c-2.6-3.2-5.5-6.9-8.4-10.4-2.4 3.9-4.8 7.6-6.6 10.5 1.4 2.5 3.9 5.1 4.2 7.9.7 6-.1 12.2.5 18.2.8 8 4 9.4 12.9 6.4-14.3-4.8-6.4-15.9-7.8-24.2-.4-2.6 3.4-5.7 5.2-8.4m-267.5 33.2c-16.3-5.6-7.7-17-9.4-25.6-.4-2.3 3.3-5.3 4.8-7.5-2.3-3-5.2-6.8-7.9-10.3-2.4 3.8-4.9 7.7-6.4 10.1 1.5 2.6 3.9 5 4.2 7.5.6 5.7.2 11.5.3 17.2-.1 7.7 3.3 11.5 14.4 8.6m22.8-33.1c1.3 2.6 3.6 5.3 3.9 8.1.7 6 .2 12.1.4 18.2.3 8 5.2 9.2 13.8 7-14.8-5.4-8-16.1-8.9-24.3-.3-3 3.4-6.5 4.8-9-2.6-3.4-5.3-7-8-10.6-2 3.6-4.1 7.2-6 10.6m726.6 124.9c1.4-1.1 2.9-2.3 4.3-3.4-2.7-6.6-5.1-13.5-8.7-19.6-.5-.9-7.8 1.8-12 2.9.3.8.5 1.5.8 2.3 4-.3 8.1-.6 11-.9-4.4 4.8-8.2 9-12 13.1 5.6 1.8 11.1 3.7 16.6 5.6m-46.5-.9c11.2-.7 15.4-4.5 14.4-12.9-1-8.8-5.5-10.6-19.1-8v28.4c.6.1 1.3.1 1.9.2.9-2.5 1.9-5.1 2.8-7.7m-405.4-22.9c-.8-3.1-1.5-5.7-2.1-8.3l-2.4.3v29.3c14.9 1.8 18.4.4 19.2-8.1.8-9.2-3.1-12.9-14.7-13.2M532 343.6c1.2 0 2.4.1 3.5.1 0-4.4-.5-8.8.2-13.1.4-1.9 3.4-3.3 5.2-5 1.4 1.7 3.7 3.2 3.9 5 .6 4.3.2 8.7.2 13.1 8.8-13.9 4.8-22.1-8.5-22.2-.9-2.8-1.8-5.6-2.7-8.3-.7.1-1.3.2-2 .4.2 9.9.2 20 .2 30m614.1-151.2v-34.3h-3.7c0 7.4.3 14.8-.1 22.1-.4 8.8-9 12.7-16.9 8.1-2-1.2-3.9-2.5-5.9-3.7 5.3 14.9 17.6 5.9 26.6 7.8m-461.4 67.9c-11.8.7-15.6 4.4-14.7 13.4.9 8.8 4.6 10.2 18.4 7.8v-29.2h-2.5c-.3 2.6-.7 5.1-1.2 8m615.7-.1c-11.5.8-15.7 4.9-14.2 14.1 1.9 12 11.1 8.2 18.5 7.9v-29.8c-.7 0-1.5-.1-2.2-.1-.7 2.6-1.4 5.2-2.1 7.9m-730.7 12.4c1-.9 2-1.9 2.9-2.8-3.3-3.1-6.2-7.9-10.1-8.7-2.9-.6-9.5 3.7-9.9 6.5-.7 4.5.9 10.6 4.1 13.8 2.1 2.1 8.7.4 13.3.4-.1-.7-.3-1.3-.4-2-4.5-1.2-9.1-2.3-13.6-3.5.3-1.1.6-2.1 1-3.2 4.1-.1 8.4-.3 12.7-.5m272.9 4.1c.4-1.2.9-2.4 1.3-3.5 4.6-.3 9.2-.6 13.8-.8.6-.8 1.3-1.6 1.9-2.4-3.3-3.1-6.4-8.4-10.1-8.8-3.3-.4-9.6 4.1-10.3 7.4-1 4 1.2 10.1 4.4 12.9 2.3 2 8.5.1 13-.1-.2-.5-.4-1-.6-1.4-4.6-1.2-9-2.3-13.4-3.3m-4.3-83.7c.9 0 1.9.1 2.8.1v-50.6h-2.8zM463.4 343.8c5.7-6.1-5-18.7 11.6-18.8v15.6h1.6c.4-5.8.8-11.6 1.1-15.3-4.1-2.1-7.4-3.8-12.9-6.6 6.2-1.5 9.3-2.2 13.7-3.3-16.1-5.1-17.7-1.9-15.1 28.4m256-64.2c.7 0 1.3-.1 2-.1.4-5.8.7-11.6.9-15.2-4.2-2.3-7.4-4-12.6-6.8 6-1.5 9.1-2.3 12.1-3-.2-1-.5-1.9-.7-2.9-4 .9-9.6.6-11.8 3-7.8 8.6.4 18 .4 27.2v-16.3c3.3-.7 6.1-1.3 9.6-2 .1 6.1.1 11.1.1 16.1m-103.8 53.6c-5.1-5.2-7.8-10.2-11.6-11.1-2.9-.7-9.4 3.2-10.2 6.1-1.2 4.1-.2 10.5 2.8 13.2 2.6 2.4 9.2 1.2 14 1.6-.1-.7-.1-1.4-.2-2.1-4.6-1.3-9.2-2.5-13.8-3.8.3-1 .6-2 1-3 4.6-.1 9.2-.4 18-.9m-100.8.3c1-.9 1.9-1.8 2.9-2.7-3.4-3.1-6.5-8.4-10.1-8.7-3.4-.3-9.6 4.2-10.4 7.5-.9 3.9 1.3 10 4.5 12.8 2.3 2 8.5.1 13-.1-.2-.4-.5-.9-.7-1.3-4.5-1.2-9-2.4-13.4-3.5.3-1 .5-2.1.8-3.1 4.4-.3 8.9-.6 13.4-.9m415.3-61.1c.9-1 1.7-2 2.6-3-3.5-3-6.8-8.2-10.4-8.3-3.5-.1-9.5 4.5-10.2 7.8-.8 3.9 1.7 9.8 4.9 12.7 2.1 1.9 8.1-.1 14.2-.5-7-2.2-11.3-3.5-15.7-4.9.3-1 .6-2 .9-2.9 4.6-.3 9.1-.6 13.7-.9m-170.1 0 2.1-2.4c-3.2-3.2-5.9-8.1-9.7-8.9-2.9-.6-9.6 3.5-10.1 6.2-.8 4.4.6 10.6 3.8 13.9 2 2.1 8.7.4 13.3.4-.2-.5-.3-1.1-.5-1.6-4.5-1.3-9.1-2.5-13.6-3.8.3-1 .7-2 1-3.1 4.6-.2 9.2-.4 13.7-.7m-94.9 0c.9-1 1.7-1.9 2.6-2.9-3.5-3-6.8-8.2-10.4-8.4-3.4-.2-9.8 4.6-10.1 7.6-.5 4.3 2.4 9.9 5.7 13.3 1.6 1.6 7.6-.7 12.4-1.3-6.2-1.9-10.5-3.2-14.7-4.6l.9-3c4.5-.1 9.1-.4 13.6-.7m-92.3 70.1-.3-1.5c-4.6-1.3-9.2-2.5-13.7-3.8l.9-3c4.8-.3 9.6-.7 14.5-1 .6-1 1.2-1.9 1.8-2.9-3.5-3-6.7-7.7-10.7-8.3-2.9-.5-9.1 3.9-9.8 6.9-.9 4.1.8 10.3 3.9 13.1 2.5 2.2 8.8.5 13.4.5m31.9-70.3c.7-.8 1.3-1.6 2-2.4-3.4-3.1-6.5-8.4-10.2-8.7-3.3-.3-9.6 4.2-10.4 7.4-.9 4 1.2 10 4.5 12.9 2.2 2 8.4 0 12.9-.2-.3-.4-.5-.8-.8-1.2l-13.2-3.6c.3-1.1.5-2.1.8-3.2 4.7-.2 9.5-.6 14.4-1m445.2 10.5h3.5c0-3.7-.7-7.6.2-11.1.7-2.6 3.6-4.6 5.5-6.9 1.3 2.4 3.2 4.6 3.9 7.1.9 3.5 1 7.3 1.4 10.9 6.2-20.2 3.4-23.3-14.5-20.2zm113.8-12.9v4.7c4.3 2.8 8.3 7.3 13.1 8.1 7.1 1.2 10-4.2 10.2-10.3.2-6.7-3.4-12.3-10.4-11.5-4.7.5-8.6 5.9-12.9 9m184.7 4.1c0-1.6-.1-3.1-.1-4.7-4.4-3-8.6-8-13.2-8.4-7.2-.5-10.3 5.3-10 11.9.4 6.2 3.6 11.4 10.6 9.9 4.7-1 8.5-5.7 12.7-8.7M1068.5 193c1.4.2 2.7.4 4.1.6.5-3.7 1.4-7.4 1.5-11.1.3-9.9-3.2-21.5 15.4-23-.9-.8-1.8-1.7-2.6-2.5-6.1.7-12.1 1.4-18.3 2-.1 11.4-.1 22.7-.1 34m-523 74.5c.6-.9 1.1-1.8 1.7-2.6-3.4-1.5-6.7-4-10.1-4.2-2.5-.1-5.1 2.9-7.6 4.6 3.9 4.2 7.8 8.4 13.3 14.3-5.6-1-9.8-1.7-14.7-2.5 4.2 7.5 11.8 8.6 16 4.1 10.4-11.4-9.3-8.3-10.4-17 4.7 1.3 8.2 2.3 11.8 3.3m544.1 0 2.1-2.4c-3.2-1.6-6.4-4.2-9.7-4.4-2.4-.2-5.1 2.8-7.6 4.4 3.8 4.2 7.6 8.5 12.8 14.3-5.3-.8-9.5-1.4-14.4-2.2 1.5 1.8 2.6 4.1 3.6 4.1 4.8-.2 12.1.4 14-2.1 4.3-5.7-2-7.5-7-9-1.9-.6-3.3-2.3-4.9-3.6.5-.8.9-1.6 1.4-2.4 3.1 1.1 6.4 2.2 9.7 3.3m-273.8 9.8c-.2.9-.4 1.7-.6 2.6 4.5.9 9 2.5 13.5 2.5 1.8 0 3.5-3.6 5.2-5.5-3.1-2.3-6.1-4.7-9.4-6.7-1.7-1-4-1.3-6-1.8 1.1-1.3 2.2-2.7 3.3-4 3.5 1.1 7.1 2.1 10.6 3.2.5-.7 1-1.5 1.5-2.2-3.1-1.6-6.2-4.3-9.5-4.6-2.4-.2-5.2 2.7-7.8 4.2 3.8 4.3 7.5 8.5 12.6 14.4-5.1-.9-9.2-1.5-13.4-2.1m73.2 7.9c7.5-7.9-4.1-25.4 18-18.9-.4-1.1-.8-2.3-1.2-3.4-4.2-.9-8.3-1.8-12.4-2.7-.6-2.4-1.3-5.3-2-8.1-.8.1-1.6.3-2.4.4zm324.5-125.1-.6-2.1h-16.6c2 4 4.3 6.8 4.7 9.9.7 5.3.1 10.8.2 16.2.2 9.1 2.2 10.3 12.3 7.9-14.8-7.6-4.3-20.3-8-30.1 3.4-.7 5.7-1.3 8-1.8m-405.9 120c-15.2-1.4-15.2-1.4-15.2-14v-11.9h-4.7c0 5.7-.2 11.5 0 17.2.5 11 5.7 13.7 19.9 8.7m287-87.2c9.1-10.5-6.1-29.7 16.8-35.7q-8.25 1.05-16.8 2.1zm-214.5 63.5c-1.6 0-3.2-.1-4.8-.1-6.1 8 .1 16.4.6 24.6.1.8 4.1 1.5 4.2 1.5zm381.9 4.9v21.3c.4-.1.8-.2 1.2-.2 2.3-7.1 4.6-14.1 6.9-21.4-1.6 0-5 .2-8.1.3m50.7 21.3c.7 0 1.3-.1 2-.1 2.3-7.1 4.5-14.3 6.8-21.5h-8.8zM822 192.9c.8 0 1.6 0 2.4-.1v-34.3H822zm337.4 59.6c-.7.1-1.4.1-2.1.2v29.8c.7 0 1.4-.1 2.1-.1zm-427.2 29.9c.8 0 1.6-.1 2.3-.1v-29.8c-.8 0-1.6 0-2.3.1zm-155 0c.7-.1 1.4-.1 2-.2v-29.8c-.7.1-1.4.1-2 .2zm-87 31.3c-.8 0-1.6 0-2.3-.1v29.8h2.3z" style="fill:#ececec"/><path d="M410.7 1029.1c-3.7-2-7.3-4-11-6-1.4-1.4-2.9-2.7-4.3-4.1V65.1h2.2v786.8c0 14.5 0 14.5 14.9 14.5h1047c14.9 0 14.9 0 14.9-14.5V65.1h2.2v941c0 18-2 21-15.3 23-1.4-2.7-2.9-5.4-4.3-8.1H415.1c-1.5 2.7-3 5.4-4.4 8.1m942.4-84.2v1.8c-5.8.9-11.7 2.8-17.4 2.4-14.5-1.1-16.1 6.4-14.4 16.8.2.9.6 1.8 1.3 3.8 19.3-7.7 38.3-15.3 60.1-24-22.1-8.7-41.1-16.2-61.4-24.2 0 4.5.3 6.9-.1 9.2-1.2 8.1 1.8 11.6 11.2 11.4 6.9-.3 13.8 1.7 20.7 2.8M807 960.5c1.1-.5 2.2-.9 3.2-1.4-4.3-6.4-5.8-12.4-.6-18.8.8-1-3.2-7.5-5.7-8-5.2-.9-11.4-.5-16.3 1.4-3.2 1.2-.5 22.1 3.3 26.6 1.2-4.5 2.3-8.3 4.1-14.8 5 6.3 8.5 10.6 12 15m-27.1-13.1c0-11.4-5.1-17.8-12.7-17.5-7.3.3-13.5 7.6-13.5 15.9 0 9 5.4 14.3 14.1 14.3 10.9 0 11.7-7 12.1-12.7m251.7 11.9c-6.9-3.4-11.4-5.6-15.9-7.7 3.8-2.1 7.6-4.2 10.8-5.9-3.4-2-7.1-4.1-10.8-6.3 4.5-2.1 9.1-4.1 15.5-7h-21.3v27c7.1-.1 13.4-.1 21.7-.1m-284.4-7c-5.3.8-10.1 1.6-14.8 2.3-.4-5.8-3.3-12.9-.7-17 6.2-9.7 10.4 2.8 16.8 3.4.2-8.1-5.5-10.4-11.5-10.9-7.2-.6-13.9 7.3-13.6 15.7.3 7.2 2.6 13.5 11.9 14.3 8.5.8 10.7-1 11.9-7.8m102.4-20.4c-1.8.1-3.5.2-5.3.3-.6 8.8-4.3 18.4 3.7 25.8 2.7 2.4 11.8 2.4 14.7.1 8.7-7.1 3.3-16.7 2.1-25.4-2.1 5-1.2 10.2-2.4 15.1-.7 3-4.4 5.5-6.7 8.2-2.1-2.6-5.4-5-5.9-7.9-.9-5.3-.2-10.8-.2-16.2m31.9 18.7c7.3-2 18.4-.8 15.7-12.9-1.4-6.6-10.1-8-21.5-4.7v26.6c.9 0 1.8.1 2.7.1 1-3 2-5.9 3.1-9.1m-63.2-19V959h2.1c.7-3.5 1.3-6.9 2.6-13.3 5.6 5.9 9.6 10 12.6 13.2 1-6.1 3-12.1 2.5-17.9-.3-3.3-4.2-7.4-7.6-9-3.4-1.7-8.2-.4-12.2-.4M962 947c0-.7.1-1.5.1-2.2-1.6-.4-3.3-.5-4.7-1.2-2.5-1.2-4.8-2.6-7.2-4 2.3-1.4 4.5-3.1 7-4.2 2.1-.9 4.6-1 7-1.4l-.6-3.3c-6.4.9-13.2.8-19 3.2-3.4 1.4-.2 22.2 3.8 26.2 1-4.2 1.9-7.9 2.7-11.6 4-.5 7.5-1 10.9-1.5m-37.2-14.8h-21.3c16 5.1 2.1 19.6 9.9 27 7.2-7.5-6.7-22.6 11.4-27m64.3.4h-3.2V960c6.3-.3 11.9-.5 17.6-.7 0-.9-.1-1.7-.1-2.6-4.4-.6-8.8-1.2-14.3-1.9zm-16.4 26.2c.7 0 1.5-.1 2.2-.1v-26.1c-.7 0-1.5 0-2.2.1z" class="st2"/><path d="M459.4 402.9c.5.2 1 .1 1.5-.2h936.5c2.2 0 4.4.1 6.5 0 6.4-.5 9.5 2.3 9.7 8.2-.1 8.8-.2 17.6-.2 26.4-.3 38.6-.5 77.2-.7 115.8-.6.5-1.2 1.1-1.8 1.6-2.8.3-5.7.6-8.5.9-3.3-.1-6.5-.3-9.8-.3H479.5c-3.3 0-6.5.2-9.8.3-2.8-.3-5.7-.6-8.5-.9-.6-.6-1.2-1.1-1.8-1.7-.2-3.7-.6-7.4-.6-11.1-.2-43.7-.3-87.3-.4-131 .3-2.7.6-5.3 1-8m99.7 76.4c0 6.4.2 12.9-.1 19.3-.2 5.4 2 8.4 8 8.4 10.2 0 20.4.3 30.6-.2 2.6-.1 7.4-2.9 7.3-4.1-1.2-14.7 7.4-31.2-9.4-43.2-7-5-26.1-10.6-31.8-5.5-4 3.7-3.4 11.9-4.6 18.2-.3 2.3 0 4.7 0 7.1m529.1 17.6c3.9-7.6 6.6-13 10.3-20.2.7 7.4 1.2 12.5 1.6 17.5.9-.1 1.8-.1 2.7-.2v-28.3c-1.3-.4-2.6-.9-3.8-1.3-3.4 7.1-6.7 14.3-10.1 21.5-7.3-5.7-4.5-17.3-15.1-20.9v28.9c1 0 2 0 3 .1v-16.4h2c2.8 5.7 5.5 11.4 9.4 19.3m-245.7-10.8c-4.1-7.5-7.8-14.5-11.5-21.5-.9.5-1.7.9-2.6 1.4v27.9h2.5c.5-5 .9-9.9 1.6-17.7 3.7 7.9 6.2 13.2 9.8 20.8 4.3-8.3 7.2-14.1 10.9-21.2.7 7.2 1.2 12.7 1.7 18.2.9-.1 1.8-.2 2.7-.2v-27.9c-1.1-.4-2.2-.9-3.3-1.3-3.9 6.9-7.7 13.8-11.8 21.5m403.7 8.3c.9-.3 1.8-.5 2.6-.8-1.8-3.6-3.6-7.2-5.5-10.9 2.6-4.5 5.1-11.8 3-13.1-5-3.3-12-3.8-18.6-5.5v29.8c.8 0 1.5.1 2.3.1.7-3.7 1.4-7.5 2.7-14.8 5.8 6.4 9.7 10.8 13.5 15.2m-426.6-13.8c-.2-9.1-2.8-15.4-12.8-15.7-8.2-.2-13 5.9-12.7 15.7.3 9.3 5 14.3 13.4 13.8 10.3-.5 11.7-7.4 12.1-13.8m111.8-.5c-.4-7.6-2-14.5-12.1-15.2-8.4-.6-13.3 5.1-13.2 15 .1 7.9 2.4 14.3 12.5 14.5 8.1.3 12.7-4.9 12.8-14.3m108.4 1.9c.6 5.7 2.6 12.2 12.7 12.4 8.2.2 13.6-5.9 13.1-15.1-.5-7.6-2.9-14.1-12.8-14.5-8.2-.2-13.2 5.9-13 17.2m180.2 11.9c0-.9 0-1.8.1-2.6-4.7-.5-9.4-.9-13.9-1.4-4.9-12.3 8-6.7 12.7-11.3-5.3-.7-9.3-1.1-16-2 3-3.5 4.4-6.5 6.7-7.4 3-1.2 6.8-.8 10.3-1-.1-.8-.2-1.5-.3-2.3h-18.5v28zM960 466c-1.2 0-2.3-.1-3.5-.1 0 5.4.8 11-.3 16.2-.6 3.2-4.1 5.9-6.3 8.8-2.5-3-6.4-5.7-7.2-9-1.2-5.2-.3-10.8-.3-16.2-1.6 0-3.2.1-4.8.1.4 7.7.1 15.6 1.8 23 .6 2.4 6.6 5.2 10.1 5.2s9.7-2.9 10.1-5.3c1.2-7.3.4-15.1.4-22.7m184.5-.2c-1.1.1-2.1.2-3.2.3 0 6.9-.7 13.8.3 20.5.5 2.8 4.4 6.6 7.4 7.3 3.7.8 8.8-.4 12-2.5 5.1-3.5 4.6-19.5-.5-26.1-.3 2.9-.3 5.2-.9 7.4-1.9 6.2 5.4 17.7-7.3 17.7-11.2-.1-5.2-11-6.7-17.2-.6-2.4-.7-4.9-1.1-7.4m-112.2 9.4c-1.5-8.8-4.9-11.2-12.5-10.1-7.8 1.2-12.2 8.6-10.5 18.3 1.4 7.8 6.1 12.7 14.9 10.7 3.6-.8 6.4-4.8 9.7-7.5-7.3 1.2-12 2-16.8 2.8-.4-6-3.4-13.3-.8-17.7 5.5-9.1 10.7.2 16 3.5m-43 19.4c.8-.4 1.6-.8 2.4-1.1-3.8-5.9-7.7-11.4-1.6-18 .7-.8-4-7.6-7.5-9.4-3.2-1.7-8.2-.4-12.1-.4v28.2c.8.1 1.5.1 2.3.2.6-3.7 1.3-7.4 2.5-14.6 5.8 6.2 9.9 10.6 14 15.1m-222.5-.9c.8.2 1.6.3 2.5.5.9-3.9 1.7-7.8 3.3-14.9 5.7 6.4 9.7 10.9 13.7 15.4-1.6-7-4.8-12.9.8-19.6.8-1-3.5-7.6-6.7-9-3.7-1.6-8.9-.4-13.6-.4zm346.5.5c.7 0 1.5 0 2.2.1.7-3.4 1.4-6.7 2.1-10 15.1-2.7 19-5.5 17.1-12.2s-9.2-8.3-21.4-5.1zm-232.8-29.3c-.7.5-1.4 1-2.1 1.4 3.7 9.3 7.4 18.5 11 27.7 3.7-9.2 7.3-18.5 11-27.7-.4-.4-.8-.8-1.2-1.1-3.2 3.9-6.5 7.9-10.1 12.3-3.3-4.7-6-8.6-8.6-12.6M742 466.2v27.9c.7 0 1.5 0 2.2-.1.5-3.8 1.1-7.6 1.6-11.2 4.4-.6 8.3-1.2 12.1-1.8-.1-.7-.1-1.5-.2-2.2-4-.5-7.9-1.1-11.9-1.6-4.2-13.9 10.3-5.5 14.3-11zm438.6 3.9V494h2.9v-23.7c4.4-1.1 7.3-1.8 10.1-2.6-.1-.4-.2-.7-.3-1.1h-22.4v1.5c2.6.5 5.3 1 9.7 2" class="st3"/><path d="M1413.6 410.9c-.2-5.8-3.3-8.7-9.7-8.2-2.2.2-4.4 0-6.5 0H460.9c6.1-2.7 12.1-5.8 18.4-7.9 2.9-1 6.5-.2 9.8-.2h894.2c4.3 0 8.8-.2 13 .6 22.8 4.2 32.1 14.7 32.2 36.6.2 35.6.1 71.2-.1 106.7 0 5.7-.2 11.8-2.4 16.9-4.4 10.1-1.1 19.4-.1 29.4 3.6 33.2 6.1 66.5-2.8 99.6-1.9 7.1 4 15.6 4.1 23.5.3 26.6 1.3 53.4-1.5 79.8-1.7 15.9-14.3 22.7-31.8 23.7-2.9.2-5.8 0-8.7 0H486.6c-31.1 0-43.5-11.5-43.2-40.7.3-22.6 0-45.4 2.6-67.8 1.3-10.8 1.1-20.7-.1-31.4-3.8-32.8-6-65.8 2.6-98.6 1.9-7.2-2.2-15.7-3.3-23.6-.8-5.7-1.8-11.4-1.8-17-.2-32.9-.3-65.7.1-98.6.1-7.3 1.6-14.9 4.5-21.6 1.7-3.9 7.4-6.2 11.2-9.2-.3 2.6-.7 5.3-1 7.9-2 3.2-5.4 6.3-5.8 9.7-1.4 11.6-2.5 23.4-2.4 35.1.3 30.6 1.2 61.2 2.2 91.8.1 2 2.7 3.9 4.1 5.8v4.1c1.6 4.9 3.1 9.9 4.7 14.8-1 3.2-1.9 6.4-2.9 9.6-2 1.3-4 2.6-6 4 1.9 1.3 3.9 2.5 5.8 3.8l-1.2 1.2c-.2 1.7-.4 3.5-.5 5.2.1 2.9.2 5.8.3 8.8-.2.7-.4 1.4-.6 2.2-2.1 1.9-5.8 3.7-5.9 5.6q-.9 16.2 0 32.4c.1 2.1 4 4 6.2 6v10.2c.2 1.7.4 3.5.5 5.2l1.2 1.2c-7-.2-6.7 2.8-4.2 7.5 2.7 4.9 4.8 10 7.2 15.1-1 2.5-1.9 5.1-2.9 7.6-2 2.3-5.6 4.5-5.9 7-1.3 12.4-2.3 24.9-2.3 37.3 0 13.8 1.4 27.6 2 41.4.5 11.4 6.7 18.5 19 19.7 11.5 1.2 23.1 2.1 34.6 2.2 277 .1 554 .1 830.9 0 20.7 0 41.3-1.1 62-2 12-.5 20.8-7.2 20.9-16.8.4-27.3.3-54.6-.1-81.8 0-2.4-3.8-4.7-5.9-7-1-2.5-1.9-5.1-2.9-7.6.6-2.3.7-4.8 1.9-6.7 4.2-6.5 9.3-12.3 3.2-20.6-1.7-2.3.1-7.2 1.1-10.6 1.2-4.4 3.9-8.6 4.9-13 3.8-16.7-4.6-32.1-6.7-48.2-.5-.4-.9-.9-1.4-1.3 1.9-1.3 3.9-2.5 5.8-3.8-2-1.3-4-2.6-6-4-1-3.2-1.9-6.4-2.9-9.6 1.6-4.9 3.1-9.9 4.7-14.8v-4.1c1.4-1.3 4-2.5 4-3.8 0-4.6-1.6-9.3-1.2-13.9.7-8.8 3.6-17.5 3.5-26.3-.2-29.2-1.1-58.5-2.3-87.7.4-3.8-3.3-7.3-5.3-10.8" class="st4"/><path d="M415 1021h1041.9v6c-8.8.1-17.5.1-26.3.2-4.5-.7-9-2-13.4-2-295.9-.1-591.8-.1-887.7-.1-3.3 0-6.6-.3-9.8.3-1.6.3-2.8 2.4-4.2 3.7-33.5-1.3-67-2.6-100.4-3.9-.1-1.4-.1-2.8-.1-4.2" class="st5"/><path d="M515.5 1029.2c1.4-1.3 2.6-3.4 4.2-3.7 3.1-.6 6.5-.3 9.8-.3 295.9 0 591.8 0 887.7.1 4.5 0 9 1.3 13.4 2-4.2.6-8.3 1.8-12.5 1.8-300.8.1-601.7.1-902.6.1" class="st6"/><path d="M463.9 178.8c4.8 9.7 12.3 13.6 22.8 10.2 2.8-.9 6.2-4.3 6.4-6.8.3-2.6-2.3-6.3-4.8-8-3.1-2.1-7.4-2.5-11.1-3.9-6.8-2.5-15-5-13.7-13.4.6-4 5.3-8.5 9.5-10.7 7.8-4.2 15.6-1.8 21.7 4.1 2 1.9 2.7 4.9 4 7.4-1.5 1.1-2.9 2.3-4.4 3.4-.4-1.8-.6-3.8-1.4-5.5-3.1-7-9.7-8.2-16.3-6.6-3.2.8-7.4 4.3-7.9 7-.4 2.5 3 6.5 5.9 8.3 3.8 2.3 8.8 2.9 13.2 4.5 6.9 2.6 12.1 6.7 10.6 14.5s-7.8 9.9-15.3 10.3c-13.6 1-20.3-3.8-19.2-14.8" class="st7"/><path d="M961.5 164.8c4.5 5.5 6.6 11.1.7 17-2.2 1.4-4.7 2.6-6.5 4.4-5.6 5.5-14.1 5.4-18.7-.4-5.1-6.4-3.9-18.9 2.8-22.8 9.1-5.3 14.7-.8 18.8 6.8.3.5 1.2.6 2.2 1.2.2-2.3.4-4.3.7-6.2" class="st4"/><path d="M702.9 193.2v-50.6c1-.1 2.1-.2 3.1-.3.6 5.6 1.3 11.1 1.8 15.4 6.5.4 14.9-1.3 18.4 1.9 4.1 3.6 4.3 11.4 5.2 17.4.8 5.3.2 10.8.2 16.3h-5.4c0-6.2.2-12.4-.1-18.7-.2-5.8 1.8-13.6-8.3-13.5-9 .1-10.9 6.2-10.6 13.5.2 6.2.1 12.4.1 18.5-1.5 0-2.9 0-4.4.1" class="st8"/><path d="M537.3 186.5c-8.5 8.7-16.3 9.1-24.2 5-7.7-4-10.4-14.5-6.7-23.6 3-7.4 8.8-12.2 17.4-10.8 9.7 1.5 13.3 8.3 13.1 18.4h-25.4c-.6 14.1 5.1 16.7 25.8 11m-26.7-14.4h21.1c-.3-6.7-2.8-11.2-10-11.3-7.5 0-10.7 4.2-11.1 11.3m80.9 3.8h-25.4c-.7 13.7 5.4 16.4 23.1 11.3-4.5 6.3-12.5 8.5-19.7 5.5-7.9-3.4-12-13.4-9.3-22.8 2.3-8 7.9-13.6 17-12.9 10.4.7 14.2 7.9 14.3 18.9m-4.9-3.7c-.9-6.9-3.1-11.9-11.1-11.3-7.1.5-10.5 4.5-9.8 11.3z" class="st7"/><path d="M770.6 175.7h-24.5c-.9 13.7 5.9 16.9 22.8 11.4-4 6.5-12.9 8.8-20.1 4.9-8-4.3-10.8-11.7-8.4-19.1 1.9-5.7 6.4-12.3 11.8-15 10.2-5 19.3 4 18.4 17.8m-4.1-3.5c-.1-7.2-3.1-11.8-10.8-11.3-7.1.4-10.4 4.7-10.3 11.3zm115.5 3.6h-24.5c-.9 13.6 5.9 16.8 22.8 11.4-4 6.5-12.9 8.8-20.1 4.9-8-4.3-10.8-11.7-8.4-19.1 1.9-5.7 6.4-12.3 11.8-15 10.2-5.1 19.3 3.9 18.4 17.8m-25.7-3.8h22c-1-6.6-3.2-11.3-10.5-11.3-7.5.1-10.5 4.6-11.5 11.3" class="st9"/><path d="M1060.3 175.8c-.1 11.2-6.7 18.2-17.2 18.2-10.7-.1-17.3-7.6-17-19.4.3-10.7 7.8-18.4 17.7-18s16.6 8.2 16.5 19.2m-4.7-.3c-.5-7-2.1-13.9-12-14.7-7.6-.6-12.8 5.3-12.9 14.2-.1 7.7 2.1 14.2 11.9 15.1 7.7.7 12.8-5.2 13-14.6" class="st7"/><path d="M467.4 263.4c-.4 7.7-.7 13.5-1 19.2-.9 0-1.9-.1-2.8-.1v-28.3c.6-.4 1.3-.8 1.9-1.2 4.7 5.9 9.4 11.8 15.3 19.3.9-7.4 1.5-12.9 2.2-18.4.8.1 1.7.2 2.5.2v28c-.7.5-1.3.9-2 1.4-4.9-6-9.8-12.1-16.1-20.1" class="st10"/><path d="M626.7 169.7c-5.6-6.3-10.8-13.4-20.3-6.2-5.5 4.2-6 19-.6 23.4 8.6 7.1 14.9 1.9 21.2-4.2.1 7.4-4.7 10.4-11.7 11.1-10.3 1-17-4.9-18.2-15.8-1.3-11.2 5-20.2 15-21.3 8.1-.9 13.9 3.7 14.6 13m391.8 13c-1.2 8.5-6.9 11.5-15.2 11.1-9.4-.4-15-7.1-15.4-17.6-.3-10.5 5.6-18.7 14.9-19.4 8.8-.6 14.9 3.1 17 14.2-8.1-6.5-15.2-17.4-23.1-5.9-3.5 5.1-3.3 16.2.4 21.2 7 9.4 14.6 1.4 21.4-3.6" class="st11"/><path d="M961.5 164.8c-.2 1.9-.5 3.9-.7 6-1.1-.6-2-.7-2.2-1.2-4.1-7.6-9.7-12.1-18.8-6.8-6.7 3.9-7.9 16.4-2.8 22.8 4.7 5.8 13.2 5.9 18.7.4 1.8-1.8 4.3-2.9 6.5-4.4-1.5 8.4-7.4 12-16 12.1-8.3.1-13.7-4-15.9-11.3-2.6-8.7-1.7-17 6.7-22.8 6.6-4.6 13.6-3.9 20.1.8 1.5 1.3 2.9 2.9 4.4 4.4" class="st7"/><path d="M811 158.1c-2.1 4.5-4.8 8-5.2 11.7-.7 7.7-.2 15.6-1.8 23.4-8.9-10.1 2-24.3-9.3-34.7 5-5.1 10-11.3 16.3-16.1 2.2-1.7 7.8.5 14.6 1.3-7.8 5.4-19.6-1.9-19.6 9.5 0 2.1 4.2 4.2 5 4.9" class="st8"/><path d="M921.6 159.2c-1.8 2.7-5.6 5.8-5.2 8.3 1.4 8.3-6.5 19.4 7.8 24.2-8.9 3.1-12.1 1.7-12.9-6.4-.6-6 .2-12.2-.5-18.2-.3-2.8-2.8-5.4-4.2-7.9 1.8-2.8 4.2-6.6 6.6-10.5 2.9 3.6 5.9 7.2 8.4 10.5" class="st12"/><path d="M654.1 192.4c-11.1 2.9-14.4-1-14.5-8.6 0-5.7.4-11.5-.3-17.2-.3-2.6-2.7-4.9-4.2-7.5 1.6-2.4 4-6.3 6.4-10.1 2.7 3.5 5.7 7.4 7.9 10.3-1.5 2.2-5.3 5.2-4.8 7.5 1.8 8.6-6.9 20 9.5 25.6m22.8-33.1c1.9-3.3 4-7 6.1-10.6 2.7 3.6 5.4 7.2 8 10.6-1.4 2.5-5.1 5.9-4.8 9 .9 8.3-5.9 19 8.9 24.3-8.6 2.2-13.5 1-13.8-7-.3-6.1.2-12.2-.4-18.2-.4-2.8-2.6-5.5-4-8.1" class="st13"/><path d="M1403.5 284.2c-5.5-1.9-11.1-3.8-16.6-5.7 3.8-4.1 7.6-8.3 12-13.1-2.9.2-7 .6-11 .9-.3-.8-.5-1.5-.8-2.3 4.2-1 11.4-3.7 12-2.9 3.7 6.1 6 13 8.7 19.6-1.4 1.2-2.9 2.4-4.3 3.5" class="st12"/><path d="M1163.3 161c7.5-5.2 15.1-6.6 22.1.5 5.7 5.7 6.1 19.9.9 26.7-6.1 8-14 6.5-22 2.9.1-1.4.2-2.8.4-4.2 5.5.1 15.5 1.3 15.8.2 1.9-7 3.5-14.9 1.5-21.6-1.9-6.6-9.4-5.6-15.4-2.9-1.2-.5-2.2-1-3.3-1.6" class="st11"/><path d="M1357 283.3c-.9 2.5-1.9 5.1-2.9 7.7-.6-.1-1.3-.1-1.9-.2v-28.4c13.6-2.6 18.1-.8 19.1 8 1.1 8.5-3.1 12.2-14.3 12.9m-3.4-11c3 3.2 5 5.3 7.1 7.5 2.1-2.7 5.8-5.4 5.8-8 0-2.4-4.1-4.8-6.3-7.3-2 2.3-3.8 4.5-6.6 7.8" class="st10"/><path d="M951.6 260.4c11.6.3 15.6 4 14.7 13.1-.8 8.5-4.3 10-19.2 8.1v-29.3l2.4-.3c.6 2.7 1.3 5.3 2.1 8.4m5.5 3.2c-1.2.1-2.4.2-3.7.3-1 3.1-2.9 6.2-2.6 9.1.2 2.3 3.3 4.3 5.1 6.4 1.9-2.8 4.9-5.4 5.3-8.3.4-2.3-2.6-4.9-4.1-7.5" class="st12"/><path d="M532 343.6v-30.1c.7-.1 1.3-.2 2-.4.9 2.8 1.8 5.6 2.7 8.3 13.3.1 17.3 8.3 8.5 22.2 0-4.4.4-8.8-.2-13.1-.2-1.8-2.6-3.3-3.9-5-1.8 1.6-4.9 3.1-5.2 5-.8 4.2-.2 8.7-.2 13.1z" class="st11"/><path d="M1146.1 192.4c-9-1.9-21.3 7.1-26.5-7.9 2 1.3 3.9 2.6 5.9 3.7 7.9 4.7 16.5.7 16.9-8.1.3-7.4.1-14.7.1-22.1h3.7c-.1 11.5-.1 23-.1 34.4" class="st9"/><path d="M993.9 263.7c-1.7 3.4-3.2 6.8-5.2 10.1-1.9 3.1-3.5 7.6-6.4 8.6-6.5 2.3-11.4-.3-11.4-7.6 0-4.7.5-9.4.8-14.1h3.3c.3 3.4 0 6.9 1 10.2.9 2.9 3.1 5.5 4.7 8.2 1.8-2.7 3.9-5.3 5.3-8.2.6-1.3-.1-3.3-.3-5 3.3-1.8 6.6-3.5 10-5.3-.5 1-1.2 2-1.8 3.1" class="st8"/><path d="M684.7 260.3c.5-2.9.9-5.4 1.3-7.9h2.5v29.2c-13.8 2.4-17.4 1-18.4-7.8-1-9.1 2.8-12.8 14.6-13.5m3.2 11.9c-3.2-3.3-5.2-5.5-7.3-7.7-2.1 2.6-5.5 5.1-5.8 7.8-.2 2.3 3.4 4.8 5.4 7.2 2.3-2.1 4.4-4.1 7.7-7.3m612.5-12c.7-2.6 1.4-5.3 2.1-7.9.7 0 1.5.1 2.2.1v29.8c-7.4.4-16.6 4.1-18.5-7.9-1.5-9.3 2.6-13.3 14.2-14.1m3.5 12.3c-3.1-3.5-5.1-5.7-7.1-7.9-2.1 2.5-5.7 4.9-6 7.6-.2 2.3 3.3 4.9 5.2 7.4 2.3-2.1 4.5-4.1 7.9-7.1" class="st10"/><path d="M569.7 272.6c-4.3.2-8.5.4-12.8.6-.3 1.1-.6 2.1-1 3.2 4.5 1.2 9.1 2.3 13.6 3.5.1.7.3 1.3.4 2-4.6 0-11.2 1.7-13.3-.4-3.2-3.2-4.8-9.4-4.1-13.8.5-2.8 7.1-7.1 9.9-6.5 3.9.8 6.8 5.6 10.1 8.7-.9.8-1.9 1.7-2.8 2.7" class="st7"/><path d="M842.6 276.7c4.4 1.1 8.9 2.1 13.3 3.2.2.5.4 1 .6 1.4-4.5.2-10.7 2.1-13 .1-3.2-2.8-5.3-8.9-4.4-12.9.8-3.2 7.1-7.7 10.3-7.4 3.7.4 6.8 5.7 10.1 8.8-.6.8-1.3 1.6-1.9 2.4-4.6.3-9.2.6-13.8.8z" class="st9"/><path d="M838.3 193v-50.5h2.8v50.6c-.9 0-1.9-.1-2.8-.1" class="st8"/><path d="M463.4 343.8c-2.6-30.3-1-33.5 15.1-28.5-4.5 1.1-7.6 1.8-13.7 3.3 5.5 2.8 8.8 4.5 12.9 6.6-.3 3.7-.7 9.5-1.1 15.3H475v-15.6c-16.6.2-5.8 12.8-11.6 18.9" class="st12"/><path d="M1129.2 268.8c1.3-1.1 2.3-2.6 3.8-3.4 3.6-1.7 7.9-4.9 10.8-4.1 3.4 1 5.7 5.5 10.4 10.5-8.2.6-13 1-17.8 1.4-.3 1-.7 2-1 3 4.6 1.3 9.1 2.5 14 3.9-8.3 6.7-14.1.8-20.2-3.8q.15-3.75 0-7.5" class="st9"/><path d="M719.4 279.6v-16.1c-3.5.7-6.3 1.3-9.6 2v16.3c0-9.2-8.3-18.6-.4-27.2 2.2-2.4 7.7-2 11.8-3 .2 1 .5 1.9.7 2.9-3.1.8-6.1 1.5-12.1 3 5.2 2.8 8.3 4.5 12.6 6.8-.2 3.6-.6 9.4-.9 15.2-.8 0-1.5.1-2.1.1" class="st12"/><path d="M615.6 333.2c-8.8.5-13.4.7-18 1-.3 1-.6 2-1 3 4.6 1.3 9.2 2.5 13.8 3.8.1.7.1 1.4.2 2.1-4.8-.4-11.4.8-14-1.6-2.9-2.7-4-9.2-2.8-13.2.8-2.9 7.4-6.8 10.2-6.1 3.8.9 6.5 5.8 11.6 11m-100.8.3c-4.5.3-9 .6-13.4.9-.3 1-.5 2.1-.8 3.1 4.5 1.2 9 2.4 13.4 3.5.2.4.5.9.7 1.3-4.5.2-10.7 2.1-13 .1-3.2-2.8-5.5-8.9-4.5-12.8.8-3.3 7-7.8 10.4-7.5 3.6.3 6.8 5.6 10.1 8.7-1 .9-2 1.8-2.9 2.7" class="st9"/><path d="M1129.2 268.8v7.5c-6.4 2.8-12.9 5.6-21.2 9.2v-32.9c.9-.2 1.8-.3 2.7-.5.6 3.1 1.3 6.2 2 9.8 9-4.8 12.2 2.2 16.5 6.9m-3.4 2.9c-3.8-3.3-6.1-5.3-8.4-7.3-1.8 2.6-5 5.2-5.1 7.9-.1 2.4 3.2 4.9 4.9 7.3 2.5-2.2 4.9-4.5 8.6-7.9" class="st13"/><path d="M930.1 272.4c-4.5.3-9.1.5-13.6.8-.3 1-.6 2-.9 2.9 4.3 1.4 8.7 2.7 15.7 4.9-6.1.4-12.1 2.4-14.2.5-3.2-2.9-5.8-8.8-4.9-12.7.7-3.3 6.7-7.9 10.2-7.8 3.6.2 7 5.3 10.4 8.3-1 1.1-1.8 2.1-2.7 3.1m-170.1 0c-4.6.2-9.2.5-13.7.7-.3 1-.7 2-1 3.1 4.5 1.3 9.1 2.5 13.6 3.8.2.5.3 1.1.5 1.6-4.6 0-11.3 1.7-13.3-.4-3.1-3.3-4.6-9.4-3.8-13.9.5-2.7 7.2-6.8 10.1-6.2 3.8.8 6.5 5.7 9.7 8.9-.6.8-1.4 1.6-2.1 2.4m-94.9 0c-4.6.3-9.1.5-13.7.8l-.9 3c4.3 1.3 8.6 2.7 14.7 4.6-4.7.6-10.8 2.8-12.4 1.3-3.3-3.4-6.2-9-5.7-13.3.4-3.1 6.8-7.9 10.1-7.6 3.7.3 7 5.4 10.4 8.4-.7.9-1.6 1.9-2.5 2.8m-92.3 70.1c-4.6 0-11 1.7-13.4-.4-3.1-2.8-4.8-9-3.9-13.1.6-3 6.8-7.4 9.8-6.9 3.9.6 7.1 5.3 10.7 8.3-.6 1-1.2 1.9-1.8 2.9-4.8.3-9.6.7-14.5 1l-.9 3c4.6 1.3 9.2 2.5 13.7 3.8.1.4.2.9.3 1.4m31.9-70.3c-4.8.4-9.6.7-14.5 1.1-.3 1.1-.5 2.1-.8 3.2l13.2 3.6c.3.4.5.8.8 1.2-4.4.2-10.7 2.1-12.9.2-3.2-2.9-5.4-8.9-4.5-12.9.8-3.2 7-7.8 10.4-7.4 3.7.4 6.8 5.6 10.2 8.7-.6.8-1.3 1.5-1.9 2.3" class="st9"/><path d="M1163.3 161c1 .6 2.1 1.1 3.1 1.7l-1.8 24.3c-.1 1.4-.2 2.8-.4 4.2-.7 5.5-1.5 11-2.2 16.4l-4.5-.3c0-15.2-.4-30.5.2-45.7.3-5.5 3.3-4.3 5.6-.6" class="st10"/><path d="M1049.9 282.7v-20.2c17.9-3.1 20.6 0 14.5 20.2-.4-3.6-.4-7.4-1.4-10.9-.7-2.5-2.5-4.8-3.9-7.1-1.9 2.3-4.8 4.3-5.5 6.9-1 3.5-.2 7.4-.2 11.1zm113.8-12.9c4.3-3.2 8.2-8.5 12.8-9 7.1-.8 10.7 4.7 10.4 11.5-.2 6.1-3.1 11.5-10.2 10.3-4.7-.8-8.7-5.3-13.1-8.1.1-1.6.1-3.1.1-4.7m11.4 10.7c1.1 0 2.1 0 3.2-.1 1.3-3.1 3.8-6.2 3.6-9.1-.2-2.4-3.7-4.6-5.8-6.8-1.9 2.7-5.1 5.3-5.4 8.2-.3 2.5 2.8 5.2 4.4 7.8m173.3-6.6c-4.2 3-8 7.7-12.7 8.7-7 1.5-10.2-3.7-10.6-9.9-.4-6.6 2.8-12.4 10-11.9 4.6.3 8.8 5.4 13.2 8.4 0 1.6.1 3.1.1 4.7m-13.4 9.6c3.5-5.6 6.6-8.3 6.3-10.8-.3-2.9-3.4-5.5-5.3-8.2-2.1 2.2-5.7 4.4-5.9 6.8-.2 3 2.3 6.1 4.9 12.2" class="st11"/><path d="M1068.5 193v-33.9c6.2-.7 12.2-1.4 18.3-2 .9.8 1.8 1.7 2.6 2.5-18.6 1.4-15.1 13-15.4 23-.1 3.7-1 7.4-1.5 11.1-1.3-.3-2.6-.5-4-.7" class="st10"/><path d="M545.5 267.5c-3.6-1-7.1-2-11.9-3.4 1.1 8.6 20.8 5.5 10.4 17-4.1 4.5-11.7 3.4-16-4.1 4.9.8 9 1.6 14.7 2.5-5.5-5.9-9.4-10.1-13.3-14.3 2.6-1.6 5.2-4.7 7.6-4.6 3.4.2 6.7 2.7 10.1 4.2-.5 1-1.1 1.9-1.6 2.7" class="st12"/><path d="m1089.6 267.5-9.9-3.3c-.5.8-.9 1.6-1.4 2.4 1.6 1.2 3 3 4.9 3.6 5 1.6 11.3 3.3 7 9-1.9 2.5-9.1 1.9-14 2.1-1 0-2.1-2.3-3.6-4.1 5 .8 9.1 1.4 14.4 2.2-5.2-5.8-9-10-12.8-14.3 2.6-1.6 5.2-4.6 7.6-4.4 3.3.2 6.5 2.8 9.7 4.4-.5.8-1.2 1.6-1.9 2.4m-273.8 9.8c4.1.6 8.3 1.2 13.5 2-5.1-5.9-8.9-10.1-12.6-14.4 2.6-1.5 5.3-4.4 7.8-4.2 3.3.3 6.3 2.9 9.5 4.6-.5.7-1 1.5-1.5 2.2-3.5-1.1-7.1-2.1-10.6-3.2-1.1 1.3-2.2 2.7-3.3 4 2 .6 4.3.8 6 1.8 3.3 2 6.3 4.5 9.4 6.7-1.7 1.9-3.5 5.5-5.2 5.5-4.5 0-9-1.5-13.5-2.5.1-.8.3-1.6.5-2.5" class="st7"/><path d="M628.8 264.2c-1.7.9-3.3 2.5-5 2.7-3 .3-6-.3-9.1-.5.1 3.8.2 7.6.3 11.5 3.1-.3 6.2-.6 9.2-1 .9-.1 1.8-.5 3-.8-2.9 6.4-8.4 9.6-12.1 6.1-3.6-3.4-6-9.8-5.3-14.4.4-2.8 7.4-5.3 11.9-6.8 1.8-.6 4.8 2.2 7.3 3.4z" class="st11"/><path d="M889 285.2v-32.8c.8-.1 1.6-.3 2.4-.4.7 2.9 1.4 5.7 2 8.1 4.1.9 8.2 1.8 12.4 2.7.4 1.1.8 2.3 1.2 3.4-22.1-6.5-10.5 11-18 19" class="st10"/><path d="M1213.5 160.1c-2.3.5-4.5 1.1-7.9 1.8 3.8 9.8-6.8 22.5 8 30.1-10.2 2.4-12.1 1.2-12.3-7.9-.1-5.4.5-10.9-.2-16.2-.4-3.1-2.7-5.9-4.7-9.9h16.6c.1.7.3 1.4.5 2.1" class="st13"/><path d="M807.6 280.1c-14.2 5-19.4 2.3-19.9-8.7-.2-5.7 0-11.5 0-17.2h4.7v11.9c0 12.6 0 12.6 15.2 14" class="st10"/><path d="M1254.3 264.5c4.1 5.6 7.4 11.1-2.1 15.1.6-1.4 1.1-2.7.8-2h-12.1c.1-3.8.1-7.6.2-11.4 4.2.6 8.3 1.2 12.9 1.8.1-.3.2-1.9.3-3.5m-742.7 0c4.1 5.6 7.4 11.1-2.1 15.1.6-1.4 1.1-2.7.8-2h-12.1c.1-3.8.1-7.6.2-11.4 4.2.6 8.3 1.2 12.9 1.8.1-.3.2-1.9.3-3.5m530.8 0c4.1 5.6 7.4 11.1-2.1 15.1.6-1.4 1.1-2.7.8-2H1029c.1-3.8.1-7.6.2-11.4 4.2.6 8.3 1.2 12.9 1.8.1-.3.2-1.9.3-3.5" class="st2"/><path d="M1094.6 192.9v-33.6c5.8-.7 11.3-1.4 16.8-2.1-22.9 6-7.7 25.2-16.8 35.7" class="st13"/><path d="M1254.3 264.5c-.1 1.6-.2 3.3-.3 3.6-4.6-.7-8.8-1.2-12.9-1.8-.1 3.8-.1 7.6-.2 11.4h12.1c.3-.7-.3.6-.8 2l-.2.6-.4.5c-5.5 3.7-11.9 4-14.4-1.7-1.9-4.3-1.3-11.4 1.5-15.3 4.1-6.1 10.5-3.6 15.6.7m-211.9 0c-.1 1.6-.2 3.3-.3 3.6-4.6-.7-8.8-1.2-12.9-1.8-.1 3.8-.1 7.6-.2 11.4h12.1c.3-.7-.3.6-.8 2l-.2.6-.4.5c-5.5 3.7-11.9 4-14.4-1.7-1.9-4.3-1.3-11.4 1.5-15.3 4.1-6.1 10.6-3.6 15.6.7m-530.8 0c-.1 1.6-.2 3.3-.3 3.6-4.6-.7-8.8-1.2-12.9-1.8-.1 3.8-.1 7.6-.2 11.4h12.1c.3-.7-.3.6-.8 2l-.2.6-.4.5c-5.5 3.7-11.9 4-14.4-1.7-1.9-4.3-1.3-11.4 1.5-15.3 4.1-6.1 10.6-3.6 15.6.7m117.4-.1c2-2.7 4-5.3 6.6-8.7 2.3 2.3 4.5 4.4 4.7 4.6v21.4c-6.1.6-5.8.5-6.8-7.6-.4-3.4-3-6.6-4.6-9.9-.1 0 .1.2.1.2m251.1-8v26c-.1 0-4.2-.7-4.2-1.5-.5-8.2-6.7-16.6-.6-24.6 1.6 0 3.2.1 4.8.1m113.8 7.3c.6-1.1 1.3-2.1 1.9-3.2 1.5-1.2 2.9-2.5 4.4-3.7.2.8.5 1.6.7 2.4.6.5 1.2 1.1 1.8 1.6.6 1 1.2 2 1.9 3-6 6.1-3.9 12 .6 17.8-.8.7-1.6 1.3-2.3 2-2-2.5-4.8-4.8-6-7.6-1.7-3.9-2.1-8.2-3-12.3m268.1-2.4c3.1-.1 6.5-.3 8.2-.4-2.4 7.3-4.6 14.4-6.9 21.4-.4.1-.8.2-1.2.2-.1-6.6-.1-13.4-.1-21.2" class="st12"/><path d="M1312.7 282.6V261h8.8c-2.3 7.2-4.6 14.4-6.8 21.5-.7 0-1.4.1-2 .1" class="st8"/><path d="M1004.5 263.8c-.6-1-1.2-2-1.9-3 3.5-.9 7.1-1.8 12.2-3.1.5.5 2.4 2.5 4.4 4.6-8.9 6.6-7.9 13.2.7 20-9.6 1.8-8.8-3.9-8.9-8.9-.1-4.4 2-10.1-6.5-9.6" class="st7"/><path d="M822 192.9v-34.3h2.4v34.3z" class="st13"/><path d="M1159.4 252.5v29.8c-.7 0-1.4.1-2.1.1v-29.8c.7 0 1.4 0 2.1-.1" class="st12"/><path d="M732.2 282.4v-29.8c.8 0 1.6 0 2.3-.1v29.8c-.8 0-1.6 0-2.3.1m-155 0v-29.8c.7-.1 1.4-.1 2-.2v29.8c-.7.1-1.3.1-2 .2m-87 31.3v29.7h-2.3v-29.8c.8 0 1.5 0 2.3.1" class="st10"/><path d="M548.3 193c-.8-2.2-2.3-4.4-2.4-6.6-.2-12.3-.2-24.6 0-37 0-2.2 1.5-4.4 2.4-6.6z" class="st12"/><path d="M548.3 193v-50.2c.8 9.7 2.1 19.4 2.2 29.2.1 6.9-1.4 13.9-2.2 21" class="st13"/><path d="M415 1021v4.2c-1.5 1.3-2.9 2.6-4.4 3.9 1.5-2.7 3-5.4 4.4-8.1m1041.9 6.1v-6c1.4 2.7 2.9 5.4 4.3 8.1-1.4-.8-2.8-1.5-4.3-2.1" class="st14"/><path d="M395.4 1019c1.4 1.4 2.9 2.7 4.3 4.1-1.4-1.4-2.9-2.8-4.3-4.1" class="st6"/><path d="M1000.9 259.2c-.2-.8-.5-1.6-.7-2.4.3.5.8 1 1 1.5.1.2-.2.6-.3.9" class="st7"/><path d="M1476.6 65.1h-2.2zm-1079.1 0h-2.2z" class="st4"/><path d="m508.9 280.6.4-.5.9 1.2c-.4-.2-.9-.5-1.3-.7m742.7 0 .4-.5.9 1.2c-.5-.2-.9-.5-1.3-.7m-211.9 0 .4-.5.9 1.2c-.4-.2-.9-.5-1.3-.7" class="st2"/><path d="M1353.1 944.9c-6.9-1-13.8-3-20.7-2.9-9.4.3-12.4-3.3-11.2-11.4.3-2.3.1-4.7.1-9.2 20.3 8 39.4 15.5 61.4 24.2-21.7 8.7-40.7 16.3-60.1 24-.7-2-1.1-2.9-1.3-3.8-1.7-10.4-.1-17.9 14.4-16.8 5.7.4 11.6-1.5 17.4-2.4z" style="fill:#a0a1a1"/><path d="M807 960.5c-3.5-4.4-6.9-8.7-11.9-15-1.8 6.5-2.9 10.3-4.1 14.8-3.9-4.5-6.6-25.4-3.3-26.6 4.9-1.9 11.1-2.3 16.3-1.4 2.5.4 6.5 7 5.7 8-5.2 6.4-3.7 12.4.6 18.8-1.2.5-2.3.9-3.3 1.4m-10.9-27.6c-.8.6-1.7 1.1-2.5 1.7v13.7c4.8-4 7.5-6.3 10.1-8.5-2.5-2.3-5-4.6-7.6-6.9m-16.2 14.5c-.4 5.7-1.2 12.7-12 12.7-8.7 0-14.1-5.3-14.1-14.3 0-8.2 6.2-15.6 13.5-15.9 7.5-.3 12.6 6.1 12.6 17.5m-23.5-1.4c4.7 4.2 7.9 7.1 11.1 10.1 2.6-3.3 6.6-6.3 7.5-10 1.3-5.5-1.1-11.7-8.3-11.3-3 .1-5.7 5.9-10.3 11.2m275.2 13.3H1010v-27h21.3c-6.4 2.9-11 5-15.5 7 3.7 2.2 7.4 4.3 10.8 6.3-3.2 1.7-7 3.8-10.8 5.9 4.4 2.3 8.9 4.5 15.8 7.8m-284.4-7c-1.2 6.9-3.4 8.6-11.9 7.8-9.4-.9-11.6-7.1-11.9-14.3-.3-8.3 6.4-16.3 13.6-15.7 6.1.5 11.8 2.8 11.5 10.9-6.4-.7-10.6-13.1-16.8-3.4-2.6 4.1.3 11.2.7 17 4.7-.8 9.5-1.5 14.8-2.3m102.4-20.4c0 5.4-.7 10.9.3 16.1.5 2.9 3.9 5.3 5.9 7.9 2.3-2.7 6-5.1 6.7-8.2 1.1-4.9.3-10.1 2.4-15.1 1.2 8.7 6.6 18.3-2.1 25.4-2.9 2.4-12.1 2.3-14.7-.1-8.1-7.3-4.4-17-3.7-25.8 1.6 0 3.4-.1 5.2-.2m31.9 18.7c-1.1 3.2-2.1 6.2-3.1 9.2-.9 0-1.8-.1-2.7-.1v-26.6c11.5-3.4 20.1-1.9 21.5 4.7 2.7 12-8.4 10.7-15.7 12.8m4.4-2.2c3.4-4 7.2-6.7 6.8-8.5-.6-2.4-4.5-4-7-6-1.9 2.2-4.8 4.2-5.2 6.6-.3 1.7 2.6 4 5.4 7.9m-67.6-16.8c4 0 8.8-1.2 12.2.3 3.4 1.6 7.3 5.7 7.6 9 .5 5.8-1.5 11.9-2.5 17.9-3-3.1-7-7.3-12.6-13.2-1.2 6.4-1.9 9.9-2.6 13.3h-2.1zm3.5 12.6c.9.9 1.8 1.7 2.7 2.6 3-2.4 6.1-4.8 9.1-7.2-3.3-2.2-6.6-4.4-11.9-7.8.1 6.6.1 9.5.1 12.4M962 947c-3.4.5-6.9 1-10.8 1.6-.9 3.7-1.7 7.3-2.7 11.6-4-4-7.2-24.8-3.8-26.2 5.7-2.3 12.6-2.2 19-3.2l.6 3.3c-2.3.4-4.8.5-7 1.4-2.5 1-4.7 2.7-7 4.2 2.4 1.3 4.7 2.8 7.2 4 1.4.7 3.1.8 4.7 1.2-.1.6-.1 1.4-.2 2.1m-37.2-14.8c-18.1 4.4-4.2 19.5-11.4 27-7.7-7.4 6.2-21.9-9.9-27zm64.3.4v22.2c5.5.7 9.9 1.3 14.3 1.9 0 .9.1 1.7.1 2.6-5.6.2-11.3.5-17.6.7v-27.4c1.1.1 2.1.1 3.2 0m-16.4 26.2v-26.1c.7 0 1.5 0 2.2-.1v26.1c-.7.1-1.5.1-2.2.1" style="fill:#a8a7ae"/><path d="M469.6 555.6c3.3-.1 6.5-.3 9.8-.3h913.1c3.3 0 6.5.2 9.8.3v3.7H469.5c.1-1.2.1-2.5.1-3.7" style="fill:silver"/><path d="M559.1 479.3c0-2.4-.4-4.8.1-7.1 1.2-6.3.6-14.5 4.6-18.2 5.7-5.1 24.8.5 31.8 5.5 16.8 12 8.1 28.5 9.4 43.2.1 1.2-4.7 4-7.3 4.1-10.2.5-20.4.2-30.6.2-6 0-8.3-3-8-8.4.2-6.4 0-12.9 0-19.3m38-7.7c-3.4-3.9-7.1-8.2-11.2-13v13z" style="fill:#232220"/><path d="M456.5 553.2c-1.4-1.9-4.1-3.8-4.1-5.8-1-30.6-1.9-61.2-2.2-91.8-.1-11.7 1-23.4 2.4-35.1.4-3.4 3.8-6.5 5.8-9.7.1 43.7.2 87.3.4 131 0 3.7.4 7.4.6 11.1-1 .2-2 .3-2.9.3m957.1-142.3c2 3.6 5.7 7.1 5.9 10.7 1.2 29.2 2.1 58.5 2.3 87.7.1 8.7-2.8 17.5-3.5 26.3-.4 4.6 1.2 9.2 1.2 13.9 0 1.3-2.6 2.5-4 3.8-.9-.1-1.9-.2-2.8-.2.2-38.6.5-77.2.7-115.8 0-8.9.1-17.6.2-26.4" class="st19"/><path d="M1088.2 496.9c-3.9-7.9-6.6-13.6-9.4-19.2h-2v16.4c-1 0-2 0-3-.1v-28.9c10.6 3.6 7.8 15.1 15.1 20.9 3.4-7.3 6.8-14.4 10.1-21.5 1.3.4 2.6.9 3.8 1.3v28.3c-.9.1-1.8.1-2.7.2-.5-5.1-1-10.2-1.6-17.5-3.7 7.1-6.4 12.5-10.3 20.1" class="st20"/><path d="M842.5 486.1c4.2-7.7 8-14.6 11.8-21.5 1.1.4 2.2.9 3.3 1.3v27.9c-.9.1-1.8.2-2.7.2-.5-5.5-1-11-1.7-18.2-3.6 7.1-6.6 12.9-10.9 21.2-3.6-7.6-6.1-12.9-9.8-20.8-.7 7.8-1.2 12.7-1.6 17.7h-2.5V466c.9-.5 1.7-.9 2.6-1.4 3.7 7 7.4 14 11.5 21.5m403.7 8.3c-3.9-4.4-7.7-8.8-13.3-15.1-1.4 7.4-2 11.1-2.7 14.8-.8 0-1.5-.1-2.3-.1v-29.8c6.5 1.7 13.6 2.2 18.6 5.5 2 1.3-.4 8.6-3 13.1 1.8 3.6 3.6 7.2 5.5 10.9-1 .2-1.9.5-2.8.7m-14.3-15.5c1 .7 2 1.5 3 2.2 2.8-2.5 5.6-5.1 8.4-7.6-3.2-2-6.3-4-11.3-7.2-.1 6.4-.1 9.5-.1 12.6" class="st21"/><path d="M819.6 480.6c-.3 6.4-1.8 13.3-12.1 13.9-8.4.4-13.1-4.5-13.4-13.8-.3-9.8 4.4-15.9 12.7-15.7 9.9.2 12.6 6.5 12.8 15.6m-1-1c-5.1-5-8.1-10.7-11.6-11-7.4-.4-8.3 5.9-8.2 11.6.1 5.4 1.3 11.3 8.3 10.2 3.7-.5 6.5-5.8 11.5-10.8m112.8.5c-.1 9.3-4.6 14.6-12.8 14.4-10.2-.3-12.5-6.6-12.5-14.5-.1-9.9 4.8-15.6 13.2-15 10.1.6 11.7 7.5 12.1 15.1m-.8.5c-5.4-5.6-8.8-9-12.2-12.5-2.6 3.8-7.2 7.6-7.3 11.4-.1 3.7 4.5 7.5 7.1 11.3 3.4-2.7 6.8-5.5 12.4-10.2m109.2 1.4c-.2-11.3 4.8-17.4 12.9-17.1 9.9.3 12.4 6.9 12.8 14.5.6 9.2-4.9 15.3-13.1 15.1-10-.2-12-6.8-12.6-12.5m25.1-1.7c-5.5-5.3-9.1-8.7-12.6-12.1-2.7 3.8-7.4 7.7-7.4 11.5 0 3.7 4.8 7.5 7.5 11.3 3.4-3 6.9-5.9 12.5-10.7" class="st20"/><path d="M1220 493.9h-18.9v-28h18.5c.1.8.2 1.5.3 2.3-3.5.3-7.2-.2-10.3 1-2.3.9-3.7 3.9-6.7 7.4 6.7.8 10.7 1.3 16 2-4.7 4.5-17.6-1-12.7 11.3 4.4.4 9.1.9 13.9 1.4 0 .8 0 1.7-.1 2.6" class="st21"/><path d="M960 466c0 7.6.8 15.4-.5 22.8-.4 2.3-6.5 5.3-10.1 5.3-3.5 0-9.5-2.8-10.1-5.2-1.7-7.4-1.4-15.3-1.8-23 1.6 0 3.2-.1 4.8-.1 0 5.4-.9 11 .3 16.2.8 3.3 4.7 6 7.2 9 2.2-2.9 5.6-5.6 6.3-8.8 1.1-5.2.3-10.8.3-16.2 1.3-.1 2.4 0 3.6 0m184.5-.2c.3 2.5.4 5 1 7.4 1.6 6.1-4.5 17.1 6.7 17.2 12.6.1 5.3-11.4 7.3-17.7.7-2.1.6-4.5.9-7.4 5.1 6.6 5.6 22.7.5 26.1-3.1 2.1-8.3 3.2-12 2.5-3-.6-6.9-4.4-7.4-7.3-1.1-6.7-.3-13.7-.3-20.5q1.8-.15 3.3-.3m-112.2 9.4c-5.3-3.3-10.5-12.6-16-3.5-2.6 4.4.3 11.7.8 17.7 4.8-.8 9.5-1.6 16.8-2.8-3.3 2.7-6.1 6.7-9.7 7.5-8.8 2-13.5-2.9-14.9-10.7-1.7-9.7 2.6-17.1 10.5-18.3 7.6-1.2 10.9 1.3 12.5 10.1" class="st20"/><path d="M989.3 494.6c-4.1-4.5-8.2-8.9-14-15.2-1.2 7.2-1.9 10.9-2.5 14.6-.8-.1-1.5-.1-2.3-.2v-28.2c3.9 0 8.9-1.3 12.1.4 3.5 1.8 8.2 8.6 7.5 9.4-6 6.6-2.1 12.2 1.6 18zm-15-16.1c.9.9 1.8 1.8 2.7 2.8 3-2.7 6.1-5.4 9.1-8.1-3.4-1.9-6.9-3.7-11.9-6.4.1 5.8.1 8.8.1 11.7m-207.5 15.2v-28c4.7 0 9.9-1.3 13.6.4 3.2 1.4 7.5 8 6.7 9-5.5 6.7-2.4 12.6-.8 19.6-4-4.5-8.1-9-13.7-15.4-1.6 7.1-2.4 11-3.3 14.9-.9-.2-1.7-.3-2.5-.5m4.5-14.5c.8.7 1.6 1.4 2.4 2 3.1-2.6 6.3-5.2 9.4-7.8-3.4-2-6.7-3.9-11.8-6.9z" class="st22"/><path d="M1113.3 494.2V467c12.2-3.2 19.5-1.6 21.4 5.1 1.8 6.7-2 9.5-17.1 12.2-.7 3.2-1.4 6.6-2.1 10-.7-.1-1.4-.1-2.2-.1m4-28.2v13.6c.9.7 1.7 1.4 2.6 2.2 3.5-2.6 7-5.3 10.5-7.9-3.8-2.3-7.5-4.6-13.1-7.9m-236.8-1.1c2.7 4 5.4 7.9 8.6 12.5 3.6-4.4 6.9-8.4 10.1-12.3.4.4.8.8 1.2 1.1-3.7 9.3-7.4 18.6-11 27.7-3.6-9.1-7.3-18.4-11-27.7.6-.3 1.3-.8 2.1-1.3M742 466.2h18.1c-3.9 5.5-18.4-2.9-14.3 11 4 .5 7.9 1.1 11.9 1.6.1.7.1 1.5.2 2.2-3.9.6-7.7 1.1-12.1 1.8-.5 3.7-1.1 7.4-1.6 11.2-.7 0-1.5 0-2.2.1zm438.6 3.9c-4.4-.9-7.1-1.5-9.7-2v-1.5h22.4c.1.4.2.7.3 1.1-2.9.7-5.8 1.5-10.1 2.6V494h-2.9z" class="st20"/><path d="M1402.3 559.3v-3.7c2.8-.3 5.7-.6 8.5-.9-.7 1.6-1.3 3.1-2 4.7-2.1-.1-4.3-.1-6.5-.1m-932.7-3.7v3.8l-8.7-2.1c.1-.9.2-1.7.2-2.6 2.9.3 5.7.6 8.5.9" class="st23"/><path d="M1408.9 559.3c.7-1.6 1.3-3.1 2-4.7.6-.5 1.2-1.1 1.8-1.6.9.1 1.9.2 2.8.2v4.1c-2.3.7-4.4 1.3-6.6 2m-947.8-4.6c-.1.9-.2 1.7-.2 2.6h-4.4v-4.1c.9-.1 1.9-.1 2.8-.2.6.6 1.2 1.1 1.8 1.7" class="st14"/><path d="m457 590.7 1.2-1.2c0-2.6.1-5.2.1-7.8 1-3.2 1.9-6.4 2.9-9.6 6.4-.3 12.9-.6 19.3-.9 3.3.1 6.5.3 9.8.3h891.3c3.3 0 6.5-.2 9.8-.3 6.4.3 12.9.6 19.3.9 1 3.2 1.9 6.4 2.9 9.6 0 2.6.1 5.2.1 7.8.5.4.9.9 1.4 1.3-.6 1.1-1.8 2.3-1.8 3.4-.4 27.3-.6 54.5-.8 81.8-3.1-.9-6.3-2.6-9.4-2.6-311.4-.1-622.9-.1-934.3 0-3.1 0-6.3 1.7-9.4 2.6l-1.2-8.4-1.2-1.2c.4-1.8.9-3.5 1.3-5.3v-18.4c.1-6.3.6-12.6.2-18.9-.3-3.8-2-7.4-3.1-11.1.3-1.9.5-3.8.8-5.7.2-.7.4-1.4.6-2.2.5-2.9 1-5.8 1.5-8.8-.4-1.8-.8-3.6-1.3-5.3m108.7 39.1c1.1 4.9 14.8 14.5 19 12.2 5.9-3.2 10.7-8.1 16-12.2l.1-.9c4.5-3.2 9-6.5 13.9-10-3.8-3.2-7.4-6.3-11.2-9.6 4-3.4 7.6-6.4 11-9.2-10.8-10.3-21.3-14-31.7-1.6-14.6-11.6-14.8-11.6-30.7 1.8 3.5 3 7.1 6 10.8 9.2-4.2 3.4-7.6 6.3-11.2 9.3 4.9 3.6 9.4 6.8 13.9 10zm361.7-2.4c-7.9-4.7-4.4-17.1-15.1-19.8v28.8c.9 0 1.7-.1 2.6-.1V620c.7-.1 1.3-.3 2-.4 2.9 5.8 5.9 11.6 9.9 19.5 3.8-7.5 6.5-12.9 10.1-20 .8 7.4 1.3 12.5 1.8 17.5.9-.1 1.8-.1 2.7-.2V608l-3.6-1.2c-3.6 6.9-7 13.7-10.4 20.6m119.7-4.7c.2-9.8-4.7-15.8-13-15.4-9.9.6-12.4 6.9-12.4 14.9.1 7.9 2.2 14.3 12.4 14.7 8.2.2 12.9-4.9 13-14.2m-169-3c-.2 11.7 4.6 17.3 13 17.2 10.2-.1 12.3-7 12.7-14.4.6-9.3-5-15.6-13.1-15.2-9.7.5-12.2 6.8-12.6 12.4m-27-11.7v28.5c.8 0 1.6.1 2.4.1.6-3.7 1.2-7.4 2.3-14.3 6.1 5.8 10.6 10.2 13.4 12.9.8-5.7 2.6-11.4 1.9-16.7-.5-3.7-3.7-8.3-7.2-10.1-3.2-1.8-8.4-.4-12.8-.4m112.8.4V636c13.2 3.3 22.2-1.4 22.6-13.7.5-11.1-6.1-15.1-22.6-13.9m174.2 14.1c-.6-8-2.8-14.6-12.6-15.2-8.1-.5-13.5 5.6-13.5 14.9 0 9.4 5.1 15 13.6 14.6 10.2-.4 11.6-7.3 12.5-14.3m-53.9-16.3v32.1c7.4-1.9 17.3-2.1 18.8-5.5 2.7-6.1 2.3-15-.5-21.2-1.5-3.4-10.9-3.5-18.3-5.4m61.9 1.2-3.6 1.2c11.1 9.3 9.3 18.5-.2 27.7 1.1.3 2.1.7 3.2 1 3.1-3.2 6.2-6.3 10.8-11 2.7 3.9 5.4 7.8 8 11.6 1.3-.7 2.5-1.4 3.8-2.1-10.8-8.8-10.5-18-.5-27.7-1.1-.2-2.3-.5-3.4-.7-3.1 3.1-6.2 6.3-9.3 9.4-3.4-3.6-6.1-6.5-8.8-9.4m-151.3 29c.8.1 1.7.1 2.5.2.6-3.9 1.3-7.7 2.5-15.2 6.1 6.6 10.3 11.1 14.5 15.7-1.7-8.5-1-8.4.6-18.8.5-3-3.8-8.2-7.2-9.8-3.6-1.7-8.8-.4-12.9-.4zm61.1-28.4v28.2h2.1c.7-3.4 1.3-6.9 2-10.3 7-1.8 18.1 1 16.6-10-1.6-12.4-12.9-6.8-20.7-7.9m-225.6 17.2c4-.6 7.9-1.2 11.8-1.8 0-.7-.1-1.4-.1-2.1-3.9-.6-7.9-1.2-11.6-1.7-4.6-13.5 11.1-4.8 13.5-11h-17.8v27.6c.8 0 1.5.1 2.3.1.6-3.7 1.2-7.3 1.9-11.1m580.4 64.8c1 2.5 1.9 5.1 2.9 7.6-.1 25.7-.3 51.5-.3 77.2-.1 16.3 0 16.4-17.1 16.4H474.7c-16 0-16 0-16-15.3l-.3-78.3c1-2.5 1.9-5.1 2.9-7.6 4.3-.3 8.5-.6 12.8-.9 3.3.1 6.5.3 9.8.3h904.4c3.3 0 6.5-.2 9.8-.3 4.1.4 8.4.7 12.6.9m-836.8 54.4-2.4-2.7c3.5-6.3 6.9-12.6 10.9-19.8 4.2 6 6.5 12.9 11.5 15.4 5.2 2.7 12.9 1.1 21 1.4-5.1-8.1-9.1-14.5-13.1-20.9-9.1-14.4-9.1-14.4-27.7-11.1 2.4 4.7 4.7 9.4 7.1 14-.9.4-1.8.8-2.6 1.2-2.7-3.7-5.4-7.4-8.9-12.1-6.4 10.1-14 18.8-17.3 28.7-1.6 4.8 3.3 15.5 7.9 17.2 9 3.3 20 1.5 30 2.9 14.2 2.1 21.4-4.2 25-16.8-5.5 0-10.9-.3-16.2.1-8.5.6-16.8 1.6-25.2 2.5m312.3-17.8c-1.1-.6-2.2-1.1-3.4-1.7-3.7 6.9-7.5 13.8-11.5 21.2-4.3-7.6-8.1-14.3-11.9-21.1-.9.5-1.7 1-2.6 1.5v27.9c.9.1 1.9.1 2.8.2.4-5.1.7-10.2 1.3-18.3 3.9 8.2 6.4 13.5 10.1 21.1 4.2-8.4 7.2-14.2 10.7-21.1.7 7.1 1.2 12.6 1.7 18.1.9-.1 1.8-.2 2.7-.2.1-9.2.1-18.4.1-27.6m45.7 6.5c-2.5-7.7-8.6-9-15.9-7.1-7 1.8-10.3 11-7.6 20 2.5 8.3 9.2 10 17.1 8.6 8.7-1.6 7.3-7.7 6.4-13.8h-10.6c2.3 2.7 4.3 5 6.2 7.4-2.1 1.1-4.8 3.5-6.1 2.9-3.2-1.4-7.9-4-8-6.4-.3-4.9 2-10 3.2-15 4.7 1.1 9.3 2.1 15.3 3.4m204.8 7c5.9 6.1 10.2 10.6 14.5 15-1.5-7.1-6.1-12.6.2-19.3.7-.8-3.9-7.7-7.4-9.5-3.3-1.7-8.3-.4-12.1-.4v28.4h2.3c.7-3.7 1.3-7.5 2.5-14.2m-110.2-7.8c-2.3-7.1-8.6-8.6-15.6-6.3-9.7 3.2-9.2 11.5-7.7 18.9 1.6 8 7.8 10.9 16.3 9.8 10.1-1.3 7.7-7.9 7-14.5-3.5.2-6.8.3-9.8.4 2.1 2.9 3.8 5.3 5.5 7.7-1.7 1-3.8 3.1-5 2.8-3.1-1-8.1-2.9-8.3-4.7-.5-5.3 1-10.8 1.8-16.2 5 .7 9.9 1.4 15.8 2.1m74.2-8.8v34c8-3.5 16.1-4.8 19.4-9.2 2.9-3.9 2.8-12.9-.2-16.6-3.5-4.3-11.7-5.2-19.2-8.2M823 740.7c.2 9.4 4.6 14.4 12.9 14.2 10.4-.3 12.3-7.2 12.3-14.7.1-7.7-2.3-14.4-12.4-14.8-8.4-.5-13 5.2-12.8 15.3m173.5.3c-.2-10.6-4.8-16.1-12.8-15.8-10 .4-12.5 6.8-12.7 14.7-.2 9.9 4.7 15.3 13.4 14.9 10.3-.5 11.8-7.4 12.1-13.8m227.6-14.5H1203v27h19.2v-2c-4.8-.5-9.5-1-13.9-1.5-4.8-12.5 8.8-6.2 12.3-11.3-4.6-.5-8.3-.9-12-1.3-.6-5.8-.6-5.8 15.5-10.9m-284.8 11.2c-.2 11.7 4.6 17.3 13 17.2 10.2-.2 12.3-7 12.7-14.4.6-9.3-5-15.6-13.1-15.2-9.7.5-12.2 6.8-12.6 12.4M800.1 744c.8-.9 1.6-1.7 2.4-2.6 4.4 4.5 8.7 9 13.1 13.5.9-.2 1.9-.5 2.8-.8-5.7-6.2-7.3-12.2-2.3-18.9.8-1.1-3.7-7.5-6.9-8.9-3.8-1.6-8.9-.4-12.9-.4v28.4h2.4c.5-3.3 1-6.8 1.4-10.3m383.6 2.3c-3.9-7.7-6.9-13.9-10-20.1-1 .4-2.1.9-3.1 1.3 3.9 9.3 7.7 18.5 11.6 27.8 1.2-.2 2.3-.5 3.5-.7 3.7-9.3 7.3-18.6 11-27.9-1.2-.5-2.4-.9-3.5-1.4-3 6.6-5.9 13-9.5 21m-103.4-18c-.1-.6-.1-1.3-.2-1.9h-18.4v27.4h18.8c.1-.7.1-1.4.2-2.2-4.7-.5-9.3-.9-14.9-1.5.2-3 .5-5.7.7-8.2 4.7-.6 8.3-1.1 11.9-1.6-.1-.6-.1-1.2-.2-1.7-3.8-.3-7.6-.7-11.8-1.1v-7.9c5-.4 9.5-.9 13.9-1.3m-309.9-1.8v27.8h2.3c.5-3.7 1.1-7.4 1.6-11.2 4.2-.6 8.1-1.2 12.1-1.8v-2.2c-3.9-.6-7.9-1.2-11.9-1.7-4.3-13.6 10.6-5.1 14-11-6.4.1-12.3.1-18.1.1m268.8-.3c-1.1 0-2.1.1-3.2.1v27.3h18.3v-2c-4.6-.5-9.3-1-15.2-1.7.1-8.2.1-15.9.1-23.7m123.9.2c-.6 0-1.2 0-1.8.1v27.8c.6-.1 1.2-.1 1.8-.2z" class="st3"/><path d="M458.3 697.6c.1 26.1.3 52.2.3 78.3.1 15.3 0 15.3 16 15.3h921.5c17.1 0 17 0 17.1-16.4l.3-77.2c2 2.3 5.8 4.6 5.9 7 .4 27.3.5 54.6.1 81.8-.2 9.7-8.9 16.3-20.9 16.8-20.6.9-41.3 2-62 2-277 .1-554 .1-830.9 0-11.6 0-23.1-1-34.6-2.2-12.3-1.3-18.5-8.3-19-19.7-.6-13.8-2-27.6-2-41.4 0-12.5 1-24.9 2.3-37.3.3-2.5 3.9-4.6 5.9-7m952.4-7.6c-4.3-.3-8.5-.6-12.8-.9-2.2-1.9-4.2-5.1-6.7-5.5-5.7-.8-11.6-.3-17.4-.3 3.5-1.3 6.9-3.3 10.5-3.9 9.3-1.5 18.8-2.4 28.1-3.5.3-27.3.5-54.5.8-81.8 0-1.1 1.2-2.3 1.8-3.4 2.1 16.1 10.5 31.5 6.7 48.2-1 4.5-3.7 8.6-4.9 13-1 3.5-2.7 8.3-1.1 10.6 6.1 8.3 1 14.1-3.2 20.6-1.1 2.1-1.2 4.7-1.8 6.9m-936.7-.8c-4.3.3-8.5.6-12.8.9-2.4-5-4.5-10.2-7.2-15.1-2.5-4.6-2.8-7.7 4.2-7.5l1.2 8.4c9.4 1.1 18.8 2 28.1 3.5 3.6.6 7 2.6 10.5 3.9-5.8 0-11.7-.5-17.4.3-2.4.4-4.4 3.6-6.6 5.6m6.5-118c-6.4.3-12.9.6-19.3.9-1.6-4.9-3.1-9.9-4.7-14.8h4.4l8.7 2.1h15.3v4c-1.4 2.6-2.9 5.2-4.4 7.8m-24.3 35.6c-.3 1.9-.5 3.8-.8 5.7 1 10 1.9 20 2.9 30v8.2h-1.9c-2.2-2-6.1-3.9-6.2-6q-.9-16.2 0-32.4c.2-1.8 4-3.6 6-5.5m954.5-34.7c-6.4-.3-12.9-.6-19.3-.9-1.5-2.6-2.9-5.2-4.4-7.8v-4h21.8c2.2-.7 4.4-1.4 6.5-2-1.4 4.8-3 9.8-4.6 14.7m-952.4 9.6c-.1 2.6-.1 5.2-.1 7.8-1.9-1.3-3.9-2.5-5.8-3.8 2-1.4 3.9-2.7 5.9-4m955.5 7.7c0-2.6-.1-5.2-.1-7.8 2 1.3 4 2.6 6 4-2.1 1.3-4 2.6-5.9 3.8" class="st19"/><path d="M456.5 650.9h1.9v10.2h-1.9zm1.8-55c-.5 2.9-1 5.8-1.5 8.8-.1-2.9-.2-5.8-.3-8.8z" class="st5"/><path d="M456.5 661h1.9c-.4 1.8-.9 3.5-1.3 5.3-.3-1.8-.4-3.5-.6-5.3m1.8-65.1h-1.9c.2-1.7.4-3.5.5-5.2.6 1.7 1 3.5 1.4 5.2" class="st19"/><path d="M510.6 172.1c.4-7.1 3.6-11.4 11.1-11.3 7.2.1 9.6 4.6 10 11.3zm76 .1h-20.9c-.8-6.9 2.7-10.8 9.8-11.3 8-.6 10.2 4.4 11.1 11.3m179.9 0h-21.1c-.2-6.7 3.1-10.9 10.3-11.3 7.7-.5 10.7 4.1 10.8 11.3m89.8-.2c1-6.8 4-11.2 11.5-11.3 7.3 0 9.6 4.6 10.5 11.3z" class="st2"/><path d="M1055.6 175.5c-.2 9.4-5.4 15.3-13 14.6-9.7-.9-11.9-7.4-11.9-15.1.1-8.9 5.3-14.8 12.9-14.2 10 .8 11.5 7.7 12 14.7m109 11.4 1.8-24.3c6-2.7 13.5-3.7 15.4 2.9 1.9 6.7.4 14.6-1.5 21.6-.2 1.1-10.2 0-15.7-.2" class="st4"/><path d="M1353.6 272.3c2.8-3.3 4.6-5.5 6.5-7.8 2.3 2.4 6.3 4.8 6.3 7.3 0 2.7-3.7 5.4-5.8 8-2-2.2-4-4.3-7-7.5m-396.5-8.7c1.5 2.5 4.5 5.2 4.2 7.5-.4 2.9-3.4 5.6-5.3 8.3-1.8-2.1-4.8-4.1-5.1-6.4-.3-2.9 1.6-6.1 2.6-9.1zm-269.2 8.6c-3.3 3.2-5.5 5.3-7.6 7.4-1.9-2.4-5.6-5-5.4-7.2.2-2.7 3.7-5.2 5.8-7.8 2 2.1 4.1 4.2 7.2 7.6m616 .3c-3.4 3-5.6 5-7.8 7-1.9-2.5-5.4-5.1-5.2-7.4.3-2.7 3.8-5.1 6-7.6 1.9 2.3 3.9 4.5 7 8m-178.1-.8c-3.7 3.4-6.1 5.6-8.6 7.9-1.8-2.4-5.1-5-4.9-7.3.1-2.7 3.3-5.3 5.1-7.9 2.3 2 4.6 4 8.4 7.3" class="st2"/><path d="M1175.1 280.5c-1.6-2.6-4.7-5.4-4.4-7.8.3-2.9 3.5-5.5 5.4-8.2 2 2.3 5.6 4.4 5.8 6.8.2 2.9-2.3 6.1-3.6 9.1-1.1.1-2.1.1-3.2.1m159.9 3c-2.6-6.1-5.2-9.3-4.9-12.2.2-2.4 3.8-4.5 5.9-6.8 1.9 2.7 5.1 5.4 5.3 8.2.3 2.5-2.8 5.3-6.3 10.8" class="st4"/><path d="M796.1 932.9c2.5 2.3 5.1 4.6 7.6 7-2.7 2.2-5.3 4.4-10.1 8.5v-13.7c.8-.7 1.7-1.3 2.5-1.8" class="st14"/><path d="M756.4 946c4.6-5.3 7.3-11 10.3-11.2 7.2-.4 9.5 5.8 8.3 11.3-.8 3.7-4.9 6.7-7.5 10-3.2-3-6.4-5.9-11.1-10.1" class="st2"/><path d="M885.9 948.4c-2.8-3.9-5.7-6.2-5.4-7.9.4-2.4 3.4-4.4 5.2-6.6 2.5 2 6.4 3.6 7 6 .4 1.8-3.4 4.5-6.8 8.5m-64.1-4.2v-12.4c5.2 3.4 8.5 5.6 11.9 7.8-3 2.4-6.1 4.8-9.1 7.2-1-.9-1.9-1.7-2.8-2.6" class="st14"/><path d="M1387.1 559.4v4c-24.3.7-48.6 1.9-72.8 1.9-252.1.1-504.3.1-756.4 0-24.3 0-48.6-1.3-72.8-1.9v-4z" class="st23"/><path d="M597.1 471.6h-11.2v-13c4.1 4.8 7.8 9.1 11.2 13m634.8 7.3v-12.5c5 3.2 8.2 5.2 11.3 7.2-2.8 2.5-5.6 5.1-8.4 7.6-.9-.8-1.9-1.6-2.9-2.3" class="st24"/><path d="M818.6 479.6c-5 4.9-7.8 10.3-11.5 10.9-7.1 1.1-8.2-4.9-8.3-10.2-.1-5.7.8-12 8.2-11.6 3.5.2 6.5 5.9 11.6 10.9m112 1c-5.5 4.6-8.9 7.5-12.3 10.3-2.6-3.8-7.1-7.6-7.1-11.3.1-3.8 4.7-7.6 7.3-11.4 3.3 3.4 6.6 6.9 12.1 12.4" class="st25"/><path d="M1064.9 480.3c-5.6 4.8-9.1 7.7-12.5 10.7-2.7-3.8-7.5-7.5-7.5-11.3 0-3.9 4.8-7.7 7.4-11.5 3.5 3.4 7 6.8 12.6 12.1m-90.6-1.8v-11.8c5 2.7 8.4 4.6 11.9 6.4-3 2.7-6.1 5.4-9.1 8.1-1-.8-1.9-1.8-2.8-2.7m-203 .7v-12.7c5 2.9 8.4 4.9 11.8 6.9-3.1 2.6-6.3 5.2-9.4 7.8-.9-.7-1.6-1.4-2.4-2m346-13.2c5.6 3.4 9.3 5.6 13.1 7.9-3.5 2.6-7 5.3-10.5 7.9-.9-.7-1.7-1.4-2.6-2.2z" class="st24"/><path d="M498.1 683.4c-3.5-1.3-6.9-3.3-10.5-3.9-9.3-1.5-18.7-2.4-28.1-3.5 3.1-.9 6.3-2.6 9.4-2.6 311.4-.1 622.9-.1 934.3 0 3.1 0 6.3 1.7 9.4 2.6-9.4 1.1-18.8 2-28.1 3.5-3.6.6-7 2.6-10.5 3.9z" style="fill:#c7c7c7"/><path d="M484.9 563.4c24.3.7 48.6 1.9 72.8 1.9 252.1.1 504.3.1 756.4 0 24.3 0 48.6-1.3 72.8-1.9 1.5 2.6 2.9 5.2 4.4 7.8-3.3.1-6.5.3-9.8.3H490.2c-3.3 0-6.5-.2-9.8-.3q2.4-3.9 4.5-7.8" class="st14"/><path d="M565.6 628.9c-4.5-3.2-9-6.5-13.9-10 3.6-3 7.1-5.9 11.2-9.3-3.8-3.2-7.3-6.2-10.8-9.2 15.9-13.4 16.1-13.4 30.7-1.8 10.4-12.4 20.9-8.8 31.7 1.6-3.4 2.8-7 5.8-11 9.2 3.8 3.2 7.4 6.3 11.2 9.6-4.9 3.5-9.4 6.7-13.9 10-3-.2-6-.3-9-.5l.2.2c-.8-.8-1.6-1.5-2.4-2.3l.2.2c-.8-.8-1.6-1.5-2.4-2.3l.3.2c.2-2.5-.6-6 .8-7.2 3.7-3 8.3-5 12.9-7.6-22.6-13.1-13.9-13.1-36.5 0 4.6 2.6 9.3 4.6 12.9 7.6 1.4 1.2.6 4.7.8 7.2l.3-.2c-.8.8-1.6 1.5-2.4 2.3l.2-.2c-.8.8-1.6 1.5-2.4 2.3l.2-.2c-2.9.1-5.9.2-8.9.4" class="st27"/><path d="M927.4 627.4c3.5-6.9 6.9-13.7 10.3-20.5l3.6 1.2v28.4c-.9.1-1.8.1-2.7.2-.5-5.1-1-10.1-1.8-17.5-3.6 7.1-6.3 12.5-10.1 20-4-7.9-6.9-13.7-9.9-19.5-.7.1-1.3.3-2 .4v16.3c-.9 0-1.7.1-2.6.1v-28.8c10.8 2.6 7.2 15 15.2 19.7m119.7-4.7c-.2 9.3-4.8 14.5-13 14.2-10.2-.4-12.3-6.8-12.4-14.7-.1-8 2.4-14.3 12.4-14.9 8.3-.5 13.2 5.6 13 15.4m-1.1-.1c-4.9-5.3-7.8-11.1-11.3-11.4-7.4-.8-8.5 5.5-8.4 11.3 0 5.4 1 11.3 8 10.5 3.7-.5 6.7-5.7 11.7-10.4" class="st20"/><path d="M600.7 629.9c-5.3 4.2-10.1 9-16 12.2-4.2 2.3-17.9-7.3-19-12.2 3-.5 5.9-1 8.9-1.5l-.2.2c.8-.8 1.6-1.5 2.4-2.3l-.2.2c.8-.8 1.6-1.5 2.4-2.3l-.3.2h9l-.3-.2c.8.8 1.6 1.5 2.4 2.3l-.2-.2c.8.8 1.6 1.5 2.4 2.3l-.2-.2c3 .5 6 1 8.9 1.5" class="st27"/><path d="M878.1 619.7c.4-5.6 2.9-11.9 12.6-12.4 8.1-.4 13.7 5.9 13.1 15.2-.4 7.4-2.5 14.2-12.7 14.4-8.3.1-13.1-5.5-13-17.2m.7 2.3c5.1 4.9 8 10.2 11.8 10.9 7.1 1.2 8.4-4.9 8.5-10.2.1-5.6-.9-12.2-8.3-11.6-3.6.2-6.8 5.9-12 10.9m-27.7-14c4.4 0 9.5-1.4 12.8.4 3.5 1.8 6.7 6.4 7.2 10.1.7 5.3-1.1 11-1.9 16.7-2.8-2.7-7.3-7-13.4-12.9-1.1 6.9-1.7 10.6-2.3 14.3-.8 0-1.6-.1-2.4-.1zm3.8 15.6c4.8-2.1 8.4-3.3 11.6-5.3.7-.5.1-4.8-.9-5.1-3.2-1.2-6.9-1.5-10.7-2.1zm109-15.2c16.5-1.2 23.1 2.8 22.6 13.9-.5 12.2-9.4 17-22.6 13.7zm4.5 23.9c10.7 1.8 13.2-3.1 13-10.9s-4-11.1-13-9.5zm169.7-9.8c-.8 6.9-2.3 13.9-12.4 14.3-8.4.4-13.6-5.2-13.6-14.6 0-9.3 5.3-15.4 13.5-14.9 9.7.6 11.9 7.2 12.5 15.2m-1.1-.9c-5.3-4.8-8.7-7.9-12.1-11-2.8 4.1-7.6 8.2-7.8 12.4-.1 3.4 5.5 6.9 8.5 10.4 3.3-3.4 6.5-6.7 11.4-11.8m-52.8-15.4c7.4 1.9 16.8 2.1 18.3 5.3 2.9 6.2 3.3 15.1.5 21.2-1.5 3.4-11.5 3.6-18.8 5.5zm2.6 23.7c1.2 1.4 2.4 2.8 3.5 4.2 3.5-1.8 6.9-3.6 10.4-5.3-2.4-1.9-5.2-5.5-7.1-5.1-2.6.4-4.6 3.9-6.8 6.2m.2-12.1c1.2 1.1 2.4 2.3 3.6 3.4l9.3-6.3c-2.2-1.3-5.3-4.2-6.4-3.7-2.7 1.4-4.4 4.3-6.5 6.6m59.1-10.4c2.7 2.9 5.5 5.9 8.7 9.4 3.1-3.1 6.2-6.2 9.3-9.4 1.1.2 2.3.5 3.4.7-10 9.6-10.2 18.9.5 27.7-1.3.7-2.5 1.4-3.8 2.1-2.6-3.9-5.3-7.7-8-11.6-4.6 4.7-7.7 7.9-10.8 11-1.1-.3-2.1-.7-3.2-1 9.5-9.1 11.3-18.3.2-27.7 1.3-.4 2.5-.8 3.7-1.2" class="st20"/><path d="M994.8 636.4v-28.3c4 0 9.3-1.3 12.9.4 3.5 1.7 7.7 6.8 7.2 9.8-1.6 10.4-2.3 10.3-.6 18.8-4.2-4.5-8.4-9.1-14.5-15.7-1.2 7.5-1.9 11.3-2.5 15.2-.8-.1-1.7-.2-2.5-.2m3.9-15.2c1 .8 1.9 1.7 2.9 2.5 3.1-2.7 6.2-5.4 9.4-8.1-3.7-1.8-7.3-3.7-12.3-6.1zm57.2-13.2c7.8 1.1 19.1-4.6 20.7 8 1.5 11.1-9.7 8.3-16.6 10-.7 3.4-1.3 6.8-2 10.3h-2.1zm1.5 12c1.4 1.3 2.8 2.6 4.1 3.9 3.7-2.4 7.3-4.8 11-7.2-2.8-1.9-5.6-3.9-8.4-5.8-2.2 3-4.5 6.1-6.7 9.1" class="st22"/><path d="M830.3 625.2c-.7 3.8-1.3 7.4-1.9 11.1-.8 0-1.5-.1-2.3-.1v-27.6h17.8c-2.5 6.2-18.1-2.5-13.5 11 3.7.6 7.6 1.1 11.6 1.7 0 .7.1 1.4.1 2.1-3.9.6-7.8 1.2-11.8 1.8" class="st21"/><path d="M458.3 642.6c-1-10-1.9-20-2.9-30 1.1 3.7 2.9 7.4 3.1 11.1.5 6.3 0 12.6-.2 18.9" class="st5"/><path d="M600.7 629.9c-3-.5-5.9-1-8.9-1.5 3 .2 6 .3 9 .5zm-26.1-1.5c-3 .5-5.9 1-8.9 1.5l-.1-.9c3-.3 6-.4 9-.6" class="st24"/><path d="M498.1 683.4h875.8c5.8 0 11.7-.5 17.4.3 2.5.4 4.5 3.6 6.7 5.5-3.3.1-6.5.3-9.8.3H483.8c-3.3 0-6.5-.2-9.8-.3 2.2-1.9 4.2-5.1 6.7-5.5 5.6-.9 11.5-.3 17.4-.3" class="st14"/><path d="M573.9 744.4c8.4-.8 16.8-1.8 25.2-2.4 5.3-.4 10.7-.1 16.2-.1-3.6 12.7-10.8 18.9-25 16.8-10-1.5-21 .4-30-2.9-4.6-1.7-9.5-12.4-7.9-17.2 3.3-9.9 10.9-18.6 17.3-28.7 3.5 4.7 6.2 8.4 8.9 12.1.9-.4 1.8-.8 2.6-1.2-2.3-4.6-4.7-9.2-7.1-14 18.6-3.3 18.6-3.3 27.7 11.1 4 6.4 8 12.7 13.1 20.9-8.2-.4-15.9 1.2-21-1.4-5-2.5-7.3-9.5-11.5-15.4-4 7.3-7.5 13.5-10.9 19.8-2.3 3.7-4.6 7.3-6.9 11 .9.5 1.9 1 2.8 1.5 2.1-3.4 4.3-6.7 6.5-9.9" class="st27"/><path d="M886.2 726.6v27.6c-.9.1-1.8.2-2.7.2-.5-5.5-1.1-11.1-1.7-18.1-3.5 6.9-6.4 12.7-10.7 21.1-3.6-7.6-6.2-12.9-10.1-21.1-.6 8.1-.9 13.2-1.3 18.3-.9-.1-1.9-.1-2.8-.2v-27.9c.9-.5 1.7-1 2.6-1.5 3.8 6.7 7.6 13.4 11.9 21.1 4-7.4 7.7-14.3 11.5-21.2 1 .6 2.2 1.1 3.3 1.7" class="st20"/><path d="M931.9 733.1c-5.9-1.3-10.6-2.3-15.2-3.3-1.2 5-3.5 10-3.2 15 .1 2.3 4.8 5 8 6.4 1.2.6 4-1.9 6.1-2.9-2-2.4-4-4.7-6.2-7.4H932c.9 6.1 2.4 12.2-6.4 13.8-7.9 1.4-14.6-.3-17.1-8.6-2.7-9 .5-18.1 7.6-20 7.2-2 13.2-.7 15.8 7m204.8 7c-1.2 6.7-1.8 10.5-2.5 14.3h-2.3V726c3.7 0 8.8-1.3 12.1.4 3.5 1.8 8.1 8.7 7.4 9.5-6.3 6.8-1.7 12.2-.2 19.3-4.3-4.6-8.6-9-14.5-15.1m2-12.5c-1 .8-2 1.6-2.9 2.4v12.5c5.1-3.4 8.2-5.6 11.3-7.7z" class="st21"/><path d="M1026.5 732.3c-5.9-.8-10.8-1.5-15.8-2.1-.7 5.4-2.2 10.9-1.8 16.2.2 1.9 5.1 3.8 8.3 4.7 1.2.4 3.3-1.8 5-2.8-1.7-2.4-3.4-4.8-5.5-7.7 2.9-.1 6.2-.3 9.8-.4.6 6.6 3 13.2-7 14.5-8.5 1.1-14.7-1.8-16.3-9.8-1.4-7.4-2-15.6 7.7-18.9 7-2.2 13.3-.8 15.6 6.3" class="st20"/><path d="M1100.7 723.5c7.6 2.9 15.7 3.9 19.2 8.1 3 3.7 3.1 12.8.2 16.6-3.3 4.4-11.4 5.7-19.4 9.2zm4.4 26.9c10.9 1.4 13.6-3.7 13.1-11.7-.5-7.7-4.8-10.3-13.1-8.5z" class="st21"/><path d="M823 740.7c-.2-10 4.4-15.8 12.8-15.4 10.1.4 12.5 7.1 12.4 14.8 0 7.6-1.9 14.5-12.3 14.7-8.3.2-12.7-4.7-12.9-14.1m24.2-.7c-5-5-8.1-10.7-11.5-10.9-7.4-.4-8.2 5.9-8.1 11.6.1 5.4 1.3 11.3 8.3 10.2 3.6-.6 6.4-6 11.3-10.9m149.3 1c-.3 6.4-1.8 13.2-12 13.8-8.7.5-13.5-5-13.4-14.9.1-7.9 2.7-14.3 12.7-14.7 7.9-.3 12.5 5.3 12.7 15.8m-1-1.4c-5.1-4.8-8.4-10.5-11.8-10.6-7.3-.2-8.1 6.2-8 11.8.1 5.4 1.5 11.3 8.5 10 3.8-.7 6.4-6.1 11.3-11.2" class="st20"/><path d="M1224.1 726.5c-16.1 5.1-16.1 5.1-15.5 10.9 3.7.4 7.4.8 12 1.3-3.6 5.1-17.2-1.1-12.3 11.3 4.4.5 9.1 1 13.9 1.5v2H1203v-27z" class="st21"/><path d="M939.3 737.7c.4-5.6 2.9-11.9 12.6-12.4 8.1-.4 13.7 5.9 13.1 15.2-.4 7.4-2.5 14.2-12.7 14.4-8.4 0-13.2-5.5-13-17.2m24.7 2.7c-5-5.2-8-11-11.6-11.4-7.3-.7-9.7 5.7-8.3 11.2 1 4 5.3 7.4 8.1 11 3.4-3 6.7-6.1 11.8-10.8" class="st20"/><path d="M800.1 744c-.4 3.5-.9 6.9-1.3 10.4h-2.4V726c4 0 9.2-1.2 12.9.4 3.3 1.4 7.8 7.8 6.9 8.9-5.1 6.7-3.5 12.6 2.3 18.9-.9.2-1.9.5-2.8.8-4.4-4.5-8.7-9-13.1-13.5-.9.8-1.7 1.7-2.5 2.5m1.8-16.2c-.8.9-1.6 1.7-2.5 2.6.2 3.2.4 6.3.6 9.5l2.7 1.8c3.1-2.6 6.3-5.3 9.4-7.9q-4.95-3.15-10.2-6" class="st22"/><path d="M1183.7 746.3c3.6-8 6.5-14.4 9.4-20.9 1.2.5 2.4.9 3.5 1.4-3.7 9.3-7.3 18.6-11 27.9-1.2.2-2.3.5-3.5.7-3.9-9.3-7.7-18.5-11.6-27.8 1-.4 2.1-.9 3.1-1.3 3.2 6.1 6.3 12.3 10.1 20" class="st20"/><path d="M1080.3 728.3c-4.4.4-8.9.9-13.9 1.4v7.9c4.2.4 8 .7 11.8 1.1.1.6.1 1.2.2 1.7-3.6.5-7.2 1-11.9 1.6-.2 2.5-.4 5.2-.7 8.2 5.5.5 10.2 1 14.9 1.5-.1.7-.1 1.4-.2 2.2h-18.8v-27.4h18.4c.1.5.1 1.2.2 1.8" class="st22"/><path d="M770.4 726.5h18.2c-3.4 5.9-18.4-2.6-14 11 4 .6 7.9 1.2 11.9 1.7v2.2c-3.9.6-7.8 1.2-12.1 1.8-.5 3.8-1.1 7.5-1.6 11.2h-2.3c-.1-9-.1-18-.1-27.9" class="st20"/><path d="M1039.2 726.2v23.7c5.9.7 10.6 1.2 15.2 1.7v2h-18.3v-27.3c.9 0 2 0 3.1-.1m123.9.2v27.7c-.6.1-1.2.1-1.8.2v-27.8c.6 0 1.2-.1 1.8-.1" class="st22"/><path d="M587.7 624.5h-9c-.2-2.5.6-6-.8-7.2-3.7-3-8.3-5-12.9-7.6 22.6-13.1 13.9-13.1 36.5 0-4.6 2.6-9.3 4.6-12.9 7.6-1.5 1.2-.7 4.8-.9 7.2m-10.9 1.8c-.8.8-1.6 1.5-2.4 2.3.8-.8 1.6-1.5 2.4-2.3" class="st24"/><path d="M589.9 626.6c-.8-.8-1.6-1.5-2.4-2.3.8.7 1.6 1.5 2.4 2.3" class="st24"/><path d="M592 628.6c-.8-.8-1.6-1.5-2.4-2.3.8.8 1.6 1.5 2.4 2.3m-13-4.3c-.8.8-1.6 1.5-2.4 2.3.7-.8 1.5-1.6 2.4-2.3" class="st24"/><path d="M1046 622.6c-5.1 4.7-8 9.9-11.7 10.3-7 .8-8-5.1-8-10.5 0-5.7 1-12 8.4-11.3 3.5.4 6.4 6.2 11.3 11.5" class="st25"/><path d="M878.8 622c5.2-5 8.3-10.7 12-10.9 7.5-.6 8.4 6 8.3 11.6-.1 5.3-1.4 11.4-8.5 10.2-3.8-.6-6.7-6-11.8-10.9m-23.9 1.6V611c3.8.7 7.4.9 10.7 2.1 1 .4 1.6 4.7.9 5.1-3.2 2-6.9 3.3-11.6 5.4" class="st24"/><path d="M968.4 632.3V612c9-1.7 12.8 1.6 13 9.5.2 7.6-2.3 12.6-13 10.8" class="st25"/><path d="M1137 621.6c-4.9 5.1-8.1 8.4-11.4 11.8-3.1-3.5-8.6-7-8.5-10.4.1-4.2 5-8.2 7.8-12.4 3.5 3.1 6.9 6.2 12.1 11m-50.2 8.3c2.3-2.2 4.2-5.7 6.9-6.3 1.9-.4 4.7 3.3 7.1 5.1-3.5 1.8-6.9 3.6-10.4 5.3-1.3-1.4-2.5-2.7-3.6-4.1m.2-12.1c2.1-2.3 3.9-5.2 6.5-6.6 1.1-.6 4.2 2.4 6.4 3.7l-9.3 6.3c-1.2-1.1-2.4-2.2-3.6-3.4m-88.3 3.4v-11.7c4.9 2.5 8.6 4.3 12.3 6.1-3.1 2.7-6.2 5.4-9.4 8.1-.9-.8-1.9-1.7-2.9-2.5m58.7-1.2c2.3-3 4.5-6.1 6.8-9.1 2.8 1.9 5.6 3.9 8.4 5.8-3.7 2.4-7.3 4.8-11 7.2-1.5-1.3-2.8-2.6-4.2-3.9" class="st24"/><path d="M573.9 744.4c-2.2 3.3-4.3 6.5-6.5 9.8-.9-.5-1.9-1-2.8-1.5 2.3-3.7 4.6-7.3 6.9-11q1.05 1.2 2.4 2.7" class="st3"/><path d="m1138.7 727.6 8.4 7.2c-3.1 2.1-6.3 4.3-11.3 7.7V730c1-.8 1.9-1.6 2.9-2.4" class="st24"/><path d="M1105.1 750.4v-20.3c8.3-1.7 12.6.8 13.1 8.5.5 8-2.2 13.1-13.1 11.8M847.2 740c-4.9 4.9-7.7 10.3-11.4 10.8-7 1.1-8.2-4.7-8.3-10.2-.1-5.7.8-12 8.1-11.6 3.5.2 6.6 6 11.6 11m148.3-.4c-4.9 5.1-7.6 10.5-11.3 11.2-7.1 1.3-8.4-4.6-8.5-10-.2-5.6.6-12 8-11.8 3.5.2 6.7 5.8 11.8 10.6" class="st25"/><path d="M964 740.4c-5.1 4.7-8.5 7.8-11.8 10.9-2.8-3.6-7.1-7-8.1-11-1.4-5.5 1.1-12 8.3-11.2 3.6.3 6.6 6.2 11.6 11.3m-162.1-12.6c3.4 2 6.9 3.9 10.3 5.9-3.1 2.6-6.3 5.3-9.4 7.9l-2.7-1.8c-.2-3.2-.4-6.3-.6-9.5.8-.8 1.6-1.7 2.4-2.5" class="st24"/></svg>