<?xml version="1.0" encoding="utf-8"?>
<!-- Generator: Adobe Illustrator 25.0.0, SVG Export Plug-In . SVG Version: 6.00 Build 0)  -->
<svg version="1.1" id="Ebene_1" xmlns="http://www.w3.org/2000/svg" xmlns:xlink="http://www.w3.org/1999/xlink" x="0px" y="0px"
	 viewBox="0 0 1920 1080" style="enable-background:new 0 0 1920 1080;" xml:space="preserve">
<style type="text/css">
	.st0{fill:#FEFEFE;}
	.st1{fill:#ECECEC;}
	.st2{fill:#DEDEDE;}
	.st3{fill:#FDFD00;}
	.st4{fill:#E6E6E6;}
	.st5{fill:#D0D0D0;}
	.st6{fill:#E9E9E9;}
	.st7{fill:#3E393D;}
	.st8{fill:#4C5058;}
	.st9{fill:#3A3138;}
	.st10{fill:#324055;}
	.st11{fill:#413F48;}
	.st12{fill:#523E38;}
	.st13{fill:#312E49;}
	.st14{fill:#D7D7D7;}
	.st15{fill:#A0A1A1;}
	.st16{fill:#A8A7AE;}
	.st17{fill:#C0C0C0;}
	.st18{fill:#232220;}
	.st19{fill:#D3D3D3;}
	.st20{fill:#403D1A;}
	.st21{fill:#394818;}
	.st22{fill:#2F4118;}
	.st23{fill:#CCCCCC;}
	.st24{fill:#F0F003;}
	.st25{fill:#F6F702;}
	.st26{fill:#C7C7C7;}
	.st27{fill:#0D0D00;}
</style>
<g>
	<g>
		<path class="st0" d="M0,0c640,0,1280,0,1920,0c0,360,0,720,0,1080c-640,0-1280,0-1920,0C0,720,0,360,0,0z M934.8,1039.3
			c163.8,0,327.6,0,491.4-0.1c11.9,0,23.9-0.9,35.7-2.2c13.7-1.4,21.7-8.9,23.2-21.7c1.3-11.4,2.3-22.9,2.3-34.3
			c0.1-295.9,0.1-591.7,0-887.6c0-10.4-1-20.9-2.4-31.2c-1.6-12.5-9.1-19.6-22.5-21.2c-11.1-1.3-22.4-2.2-33.5-2.2
			c-321.4-0.1-642.8-0.1-964.2,0c-17.7,0-35.5,1-53.2,2c-14.4,0.8-23,8.2-24.7,21.3c-1.4,10.3-2.4,20.8-2.4,31.2
			c-0.1,273.8-0.2,547.7,0,821.5c0,32.4,1.3,64.9,2.1,97.3c0.4,14.5,8.4,23.2,23.2,24.8c11.5,1.3,23.1,2.2,34.6,2.2
			C608,1039.4,771.4,1039.3,934.8,1039.3z"/>
		<path class="st1" d="M934.8,1039.3c-163.4,0-326.8,0-490.3-0.1c-11.6,0-23.2-0.9-34.6-2.2c-14.8-1.6-22.9-10.3-23.2-24.8
			c-0.9-32.4-2.1-64.9-2.1-97.3c-0.2-273.8-0.1-547.7,0-821.5c0-10.4,1-20.9,2.4-31.2c1.8-13.2,10.4-20.5,24.7-21.3
			c17.7-1,35.5-2,53.2-2c321.4-0.1,642.8-0.1,964.2,0c11.2,0,22.4,0.9,33.5,2.2c13.4,1.6,20.9,8.7,22.5,21.2
			c1.3,10.4,2.3,20.8,2.4,31.2c0.1,295.9,0.1,591.7,0,887.6c0,11.4-1,22.9-2.3,34.3c-1.4,12.8-9.4,20.3-23.2,21.7
			c-11.9,1.2-23.8,2.2-35.7,2.2C1262.4,1039.4,1098.6,1039.3,934.8,1039.3z M548.3,142.8c-0.8,2.2-2.3,4.4-2.4,6.6
			c-0.2,12.3-0.2,24.6,0,37c0,2.2,1.5,4.4,2.4,6.6c0.8-7,2.3-14,2.2-21C550.4,162.2,549.1,152.5,548.3,142.8z M1000.9,259.2
			c0.1-0.3,0.4-0.7,0.3-0.9c-0.2-0.5-0.7-1-1-1.5c-1.5,1.2-2.9,2.5-4.4,3.7c-3.3,1.8-6.6,3.6-10,5.3c0.1,1.8,0.9,3.7,0.3,5
			c-1.4,2.9-3.5,5.5-5.3,8.2c-1.6-2.7-3.9-5.3-4.7-8.2c-1-3.2-0.7-6.8-1-10.2c-1.1,0-2.2,0-3.3,0c-0.3,4.7-0.7,9.4-0.8,14.1
			c0,7.3,4.8,9.9,11.4,7.6c2.9-1,4.5-5.5,6.4-8.6c1.9-3.2,3.5-6.7,5.2-10.1c0.9,4.1,1.3,8.3,2.9,12.2c1.2,2.8,3.9,5.1,6,7.6
			c0.8-0.7,1.6-1.3,2.3-2c-4.5-5.8-6.6-11.7-0.6-17.8c8.5-0.5,6.4,5.2,6.6,9.6c0.2,5-0.7,10.7,8.9,8.9c-8.6-6.8-9.6-13.5-0.7-20
			c-2-2.1-4-4.1-4.4-4.6c-5.1,1.3-8.6,2.2-12.2,3.1C1002.1,260.2,1001.5,259.7,1000.9,259.2z M509.3,280.1l0.2-0.6
			c9.5-4,6.1-9.5,2.1-15.1c-5.1-4.3-11.5-6.8-15.7-0.9c-2.7,3.9-3.4,11-1.5,15.3c2.5,5.8,9,5.4,14.4,1.7c0.4,0.2,0.8,0.5,1.3,0.7
			C509.9,280.9,509.6,280.5,509.3,280.1z M1040.1,280.1l0.2-0.6c9.5-4,6.1-9.5,2.1-15.1c-5.1-4.3-11.5-6.8-15.7-0.9
			c-2.7,3.9-3.4,11-1.5,15.3c2.5,5.8,9,5.4,14.4,1.7c0.4,0.2,0.8,0.5,1.3,0.7C1040.7,280.9,1040.4,280.5,1040.1,280.1z M1252,280.1
			l0.2-0.6c9.5-4,6.1-9.5,2.1-15.1c-5.1-4.3-11.5-6.8-15.7-0.9c-2.7,3.9-3.4,11-1.5,15.3c2.5,5.8,9,5.4,14.4,1.7
			c0.4,0.2,0.8,0.5,1.3,0.7C1252.6,280.9,1252.3,280.5,1252,280.1z M629,264.4c-2.5-1.2-5.5-4-7.3-3.4c-4.5,1.4-11.5,4-11.9,6.8
			c-0.6,4.6,1.8,11,5.3,14.4c3.8,3.5,9.3,0.3,12.1-6.1c-1.2,0.3-2.1,0.7-3,0.8c-3.1,0.4-6.1,0.7-9.2,1c-0.1-3.8-0.2-7.6-0.3-11.5
			c3,0.2,6.1,0.8,9.1,0.5c1.7-0.2,3.3-1.8,5-2.7c1.6,3.3,4.2,6.5,4.6,9.9c1,8.1,0.7,8.2,6.8,7.6c0-6.6,0-12.9,0-21.4
			c-0.2-0.2-2.4-2.4-4.7-4.6C633,259.1,631,261.8,629,264.4z M1129.3,276.3c6.1,4.6,12,10.6,20.2,3.8c-4.9-1.4-9.4-2.6-14-3.9
			c0.3-1,0.7-2,1-3c4.8-0.4,9.6-0.7,17.8-1.4c-4.7-5-7-9.6-10.4-10.5c-2.9-0.8-7.3,2.4-10.8,4.1c-1.5,0.7-2.5,2.2-3.8,3.4
			c-4.4-4.7-7.5-11.7-16.4-6.9c-0.7-3.6-1.4-6.7-2-9.8c-0.9,0.2-1.8,0.3-2.7,0.5c0,9.8,0,19.6,0,32.9
			C1116.4,281.9,1122.8,279.1,1129.3,276.3z M1163.3,161c-2.3-3.7-5.4-4.9-5.6,0.5c-0.5,15.2-0.2,30.5-0.2,45.7
			c1.5,0.1,3,0.2,4.5,0.3c0.7-5.5,1.5-11,2.2-16.4c8.1,3.6,15.9,5.1,22-2.9c5.2-6.8,4.8-20.9-0.9-26.7
			C1178.4,154.4,1170.9,155.8,1163.3,161z M961.5,164.8c-1.5-1.5-2.8-3.1-4.5-4.4c-6.4-4.7-13.5-5.3-20.1-0.8
			c-8.4,5.8-9.3,14.1-6.7,22.8c2.2,7.3,7.7,11.4,15.9,11.3c8.6-0.1,14.5-3.6,16-12.1C968,175.9,965.9,170.3,961.5,164.8z
			 M515.5,1029.2c300.9,0,601.8,0,902.7-0.1c4.2,0,8.3-1.2,12.5-1.8c8.8-0.1,17.5-0.1,26.3-0.2c1.4,0.7,2.9,1.3,4.3,2
			c13.3-2,15.3-5,15.3-23c0-313.7,0-627.3,0-941c-0.7,0-1.4,0-2.2,0c0,262.3,0,524.6,0,786.8c0,14.5,0,14.5-14.9,14.5
			c-349,0-698,0-1047,0c-14.9,0-14.9,0-14.9-14.5c0-262.3,0-524.6,0-786.8c-0.7,0-1.4,0-2.2,0c0,318,0,635.9,0,953.9
			c1.4,1.4,2.9,2.7,4.3,4.1c3.7,2,7.3,4,11,6c1.5-1.3,2.9-2.6,4.4-3.9C448.5,1026.5,482,1027.8,515.5,1029.2z M459.4,402.9
			c-3.9,3-9.6,5.4-11.2,9.2c-2.9,6.7-4.4,14.3-4.5,21.6c-0.5,32.9-0.3,65.7-0.1,98.6c0,5.7,1,11.4,1.8,17c1.1,7.9,5.2,16.4,3.3,23.6
			c-8.6,32.8-6.4,65.8-2.6,98.6c1.3,10.7,1.4,20.6,0.1,31.4c-2.6,22.4-2.4,45.2-2.6,67.8c-0.4,29.2,12.1,40.7,43.2,40.7
			c299.5,0,599.1,0,898.6,0c2.9,0,5.8,0.1,8.7,0c17.5-1.1,30.1-7.9,31.8-23.7c2.8-26.4,1.8-53.2,1.5-79.8c-0.1-7.9-6-16.4-4.1-23.5
			c8.8-33.2,6.4-66.4,2.8-99.6c-1.1-10-4.3-19.3,0.1-29.4c2.2-5.1,2.4-11.2,2.4-16.9c0.2-35.6,0.2-71.2,0.1-106.7
			c-0.1-22-9.4-32.4-32.2-36.6c-4.2-0.8-8.7-0.6-13-0.6c-298.1,0-596.1,0-894.2,0c-3.3,0-6.9-0.8-9.8,0.2
			c-6.3,2.2-12.3,5.2-18.4,7.9C460.4,403,459.9,403.1,459.4,402.9z M463.9,178.8c-1.1,11,5.6,15.7,19.2,14.9
			c7.4-0.5,13.8-2.5,15.3-10.3c1.5-7.8-3.7-11.9-10.6-14.5c-4.4-1.6-9.4-2.2-13.2-4.5c-2.9-1.7-6.3-5.8-5.9-8.3
			c0.5-2.7,4.6-6.2,7.9-7c6.7-1.7,13.2-0.4,16.3,6.6c0.8,1.7,0.9,3.7,1.4,5.5c1.5-1.1,2.9-2.3,4.4-3.4c-1.3-2.5-2-5.5-4-7.4
			c-6.1-5.9-13.9-8.2-21.7-4.1c-4.1,2.2-8.9,6.7-9.5,10.7c-1.3,8.4,6.9,10.8,13.7,13.4c3.7,1.4,8,1.8,11.1,3.9
			c2.5,1.7,5.1,5.4,4.8,8c-0.3,2.5-3.6,5.9-6.4,6.8C476.2,192.4,468.7,188.5,463.9,178.8z M702.9,193.2c1.5,0,2.9,0,4.4,0
			c0-6.2,0.2-12.4-0.1-18.5c-0.3-7.3,1.7-13.4,10.6-13.5c10.1-0.1,8.1,7.7,8.3,13.5c0.2,6.2,0.1,12.4,0.1,18.7c1.8,0,3.6,0,5.4,0
			c0-5.4,0.6-10.9-0.2-16.3c-0.9-6.1-1.2-13.9-5.2-17.4c-3.6-3.1-12-1.4-18.4-1.9c-0.5-4.3-1.1-9.8-1.8-15.4c-1,0.1-2.1,0.2-3.1,0.3
			C702.9,159.4,702.9,176.3,702.9,193.2z M537.3,186.5c-20.6,5.7-26.4,3.1-25.9-11c8.4,0,16.8,0,25.4,0c0.2-10.1-3.4-16.9-13.1-18.4
			c-8.6-1.3-14.4,3.4-17.4,10.8c-3.7,9.1-1,19.5,6.7,23.6C521,195.6,528.8,195.1,537.3,186.5z M591.5,175.9
			c-0.1-11-3.9-18.1-14.3-19c-9.1-0.7-14.6,4.9-17,12.9c-2.7,9.4,1.4,19.5,9.3,22.8c7.2,3.1,15.2,0.8,19.7-5.5
			c-17.8,5-23.8,2.3-23.1-11.3c3.9,0,7.8,0,11.7,0C582.1,175.9,586.3,175.9,591.5,175.9z M770.6,175.7c0.8-13.9-8.2-22.8-18.3-17.8
			c-5.4,2.7-9.9,9.3-11.8,15c-2.4,7.4,0.4,14.8,8.4,19.1c7.2,3.9,16.1,1.6,20.1-4.9c-16.9,5.4-23.7,2.3-22.8-11.4
			C754.3,175.7,762.5,175.7,770.6,175.7z M882,175.8c0.9-13.9-8.2-22.9-18.3-17.8c-5.4,2.7-9.9,9.3-11.8,15
			c-2.4,7.4,0.4,14.8,8.4,19.1c7.2,3.9,16.1,1.6,20.1-4.9c-16.9,5.4-23.7,2.3-22.8-11.4c3.9,0,7.8,0,11.7,0
			C873.5,175.8,877.8,175.8,882,175.8z M1060.3,175.8c0.1-11-6.6-18.8-16.4-19.2c-9.9-0.4-17.4,7.3-17.7,18
			c-0.3,11.8,6.3,19.3,17,19.4C1053.5,194,1060.1,187,1060.3,175.8z M467.4,263.4c6.3,8,11.2,14.1,16,20.2c0.7-0.5,1.3-0.9,2-1.4
			c0-9.3,0-18.6,0-28c-0.8-0.1-1.7-0.2-2.5-0.2c-0.7,5.5-1.3,11-2.2,18.4c-6-7.5-10.6-13.4-15.3-19.3c-0.6,0.4-1.3,0.8-1.9,1.2
			c0,9.4,0,18.8,0,28.3c0.9,0,1.9,0.1,2.8,0.1C466.7,276.9,467,271.1,467.4,263.4z M626.7,169.7c-0.7-9.2-6.4-13.9-14.6-13
			c-9.9,1.1-16.2,10.1-15,21.3c1.2,10.9,7.9,16.8,18.2,15.8c7.1-0.7,11.8-3.7,11.7-11.1c-6.3,6.1-12.6,11.3-21.2,4.2
			c-5.4-4.4-4.9-19.2,0.6-23.4C615.9,156.3,621,163.4,626.7,169.7z M1018.5,182.7c-6.7,5.1-14.3,13-21.3,3.7c-3.7-5-4-16.1-0.4-21.2
			c7.9-11.5,15-0.6,23.1,5.9c-2.2-11.2-8.2-14.8-17-14.2c-9.3,0.6-15.2,8.9-14.9,19.4c0.3,10.5,6,17.2,15.4,17.6
			C1011.6,194.2,1017.3,191.2,1018.5,182.7z M811,158.1c-0.8-0.7-5-2.8-5-4.8c0-11.4,11.8-4.1,19.6-9.5c-6.8-0.7-12.4-2.9-14.6-1.3
			c-6.4,4.7-11.4,11-16.3,16.1c11.3,10.4,0.4,24.6,9.3,34.7c1.6-7.9,1.1-15.7,1.8-23.4C806.2,166.1,808.9,162.6,811,158.1z
			 M921.6,159.2c-2.6-3.2-5.5-6.9-8.4-10.4c-2.4,3.9-4.8,7.6-6.6,10.5c1.4,2.5,3.9,5.1,4.2,7.9c0.7,6-0.1,12.2,0.5,18.2
			c0.8,8,4,9.4,12.9,6.4c-14.3-4.8-6.4-15.9-7.8-24.2C916,165,919.8,161.9,921.6,159.2z M654.1,192.4c-16.3-5.6-7.7-17-9.4-25.6
			c-0.4-2.3,3.3-5.3,4.8-7.5c-2.3-3-5.2-6.8-7.9-10.3c-2.4,3.8-4.9,7.7-6.4,10.1c1.5,2.6,3.9,5,4.2,7.5c0.6,5.7,0.2,11.5,0.3,17.2
			C639.6,191.5,643,195.3,654.1,192.4z M676.9,159.3c1.3,2.6,3.6,5.3,3.9,8.1c0.7,6,0.2,12.1,0.4,18.2c0.3,8,5.2,9.2,13.8,7
			c-14.8-5.4-8-16.1-8.9-24.3c-0.3-3,3.4-6.5,4.8-9c-2.6-3.4-5.3-7-8-10.6C680.9,152.3,678.8,155.9,676.9,159.3z M1403.5,284.2
			c1.4-1.1,2.9-2.3,4.3-3.4c-2.7-6.6-5.1-13.5-8.7-19.6c-0.5-0.9-7.8,1.8-12,2.9c0.3,0.8,0.5,1.5,0.8,2.3c4-0.3,8.1-0.6,11-0.9
			c-4.4,4.8-8.2,9-12,13.1C1392.5,280.4,1398,282.3,1403.5,284.2z M1357,283.3c11.2-0.7,15.4-4.5,14.4-12.9c-1-8.8-5.5-10.6-19.1-8
			c0,9.5,0,19,0,28.4c0.6,0.1,1.3,0.1,1.9,0.2C1355.1,288.5,1356.1,285.9,1357,283.3z M951.6,260.4c-0.8-3.1-1.5-5.7-2.1-8.3
			c-0.8,0.1-1.6,0.2-2.4,0.3c0,9.7,0,19.5,0,29.3c14.9,1.8,18.4,0.4,19.2-8.1C967.1,264.4,963.2,260.7,951.6,260.4z M532,343.6
			c1.2,0,2.4,0.1,3.5,0.1c0-4.4-0.5-8.8,0.2-13.1c0.4-1.9,3.4-3.3,5.2-5c1.4,1.7,3.7,3.2,3.9,5c0.6,4.3,0.2,8.7,0.2,13.1
			c8.8-13.9,4.8-22.1-8.5-22.2c-0.9-2.8-1.8-5.6-2.7-8.3c-0.7,0.1-1.3,0.2-2,0.4C532,323.5,532,333.6,532,343.6z M1146.1,192.4
			c0-11.4,0-22.9,0-34.3c-1.2,0-2.5,0-3.7,0c0,7.4,0.3,14.8-0.1,22.1c-0.4,8.8-9,12.7-16.9,8.1c-2-1.2-3.9-2.5-5.9-3.7
			C1124.8,199.5,1137.1,190.5,1146.1,192.4z M684.7,260.3c-11.8,0.7-15.6,4.4-14.7,13.4c0.9,8.8,4.6,10.2,18.4,7.8
			c0-9.9,0-19.5,0-29.2c-0.8,0-1.6,0-2.5,0C685.6,254.9,685.2,257.4,684.7,260.3z M1300.4,260.2c-11.5,0.8-15.7,4.9-14.2,14.1
			c1.9,12,11.1,8.2,18.5,7.9c0-10.2,0-20,0-29.8c-0.7,0-1.5-0.1-2.2-0.1C1301.8,254.9,1301.1,257.5,1300.4,260.2z M569.7,272.6
			c1-0.9,2-1.9,2.9-2.8c-3.3-3.1-6.2-7.9-10.1-8.7c-2.9-0.6-9.5,3.7-9.9,6.5c-0.7,4.5,0.9,10.6,4.1,13.8c2.1,2.1,8.7,0.4,13.3,0.4
			c-0.1-0.7-0.3-1.3-0.4-2c-4.5-1.2-9.1-2.3-13.6-3.5c0.3-1.1,0.6-2.1,1-3.2C561.1,273,565.4,272.8,569.7,272.6z M842.6,276.7
			c0.4-1.2,0.9-2.4,1.3-3.5c4.6-0.3,9.2-0.6,13.8-0.8c0.6-0.8,1.3-1.6,1.9-2.4c-3.3-3.1-6.4-8.4-10.1-8.8c-3.3-0.4-9.6,4.1-10.3,7.4
			c-1,4,1.2,10.1,4.4,12.9c2.3,2,8.5,0.1,13-0.1c-0.2-0.5-0.4-1-0.6-1.4C851.4,278.8,847,277.7,842.6,276.7z M838.3,193
			c0.9,0,1.9,0.1,2.8,0.1c0-16.9,0-33.7,0-50.6c-0.9,0-1.9,0-2.8,0C838.3,159.4,838.3,176.2,838.3,193z M463.4,343.8
			c5.7-6.1-5-18.7,11.6-18.8c0,5.5,0,10.6,0,15.6c0.5,0,1.1,0,1.6,0c0.4-5.8,0.8-11.6,1.1-15.3c-4.1-2.1-7.4-3.8-12.9-6.6
			c6.2-1.5,9.3-2.2,13.7-3.3C462.4,310.3,460.8,313.5,463.4,343.8z M719.4,279.6c0.7,0,1.3-0.1,2-0.1c0.4-5.8,0.7-11.6,0.9-15.2
			c-4.2-2.3-7.4-4-12.6-6.8c6-1.5,9.1-2.3,12.1-3c-0.2-1-0.5-1.9-0.7-2.9c-4,0.9-9.6,0.6-11.8,3c-7.8,8.6,0.4,18,0.4,27.2
			c0-5.3,0-10.6,0-16.3c3.3-0.7,6.1-1.3,9.6-2C719.4,269.6,719.4,274.6,719.4,279.6z M615.6,333.2c-5.1-5.2-7.8-10.2-11.6-11.1
			c-2.9-0.7-9.4,3.2-10.2,6.1c-1.2,4.1-0.2,10.5,2.8,13.2c2.6,2.4,9.2,1.2,14,1.6c-0.1-0.7-0.1-1.4-0.2-2.1
			c-4.6-1.3-9.2-2.5-13.8-3.8c0.3-1,0.6-2,1-3C602.2,334,606.8,333.7,615.6,333.2z M514.8,333.5c1-0.9,1.9-1.8,2.9-2.7
			c-3.4-3.1-6.5-8.4-10.1-8.7c-3.4-0.3-9.6,4.2-10.4,7.5c-0.9,3.9,1.3,10,4.5,12.8c2.3,2,8.5,0.1,13-0.1c-0.2-0.4-0.5-0.9-0.7-1.3
			c-4.5-1.2-9-2.4-13.4-3.5c0.3-1,0.5-2.1,0.8-3.1C505.8,334.1,510.3,333.8,514.8,333.5z M930.1,272.4c0.9-1,1.7-2,2.6-3
			c-3.5-3-6.8-8.2-10.4-8.3c-3.5-0.1-9.5,4.5-10.2,7.8c-0.8,3.9,1.7,9.8,4.9,12.7c2.1,1.9,8.1-0.1,14.2-0.5
			c-7-2.2-11.3-3.5-15.7-4.9c0.3-1,0.6-2,0.9-2.9C921,273,925.5,272.7,930.1,272.4z M760,272.4c0.7-0.8,1.4-1.6,2.1-2.4
			c-3.2-3.2-5.9-8.1-9.7-8.9c-2.9-0.6-9.6,3.5-10.1,6.2c-0.8,4.4,0.6,10.6,3.8,13.9c2,2.1,8.7,0.4,13.3,0.4
			c-0.2-0.5-0.3-1.1-0.5-1.6c-4.5-1.3-9.1-2.5-13.6-3.8c0.3-1,0.7-2,1-3.1C750.9,272.9,755.5,272.7,760,272.4z M665.1,272.4
			c0.9-1,1.7-1.9,2.6-2.9c-3.5-3-6.8-8.2-10.4-8.4c-3.4-0.2-9.8,4.6-10.1,7.6c-0.5,4.3,2.4,9.9,5.7,13.3c1.6,1.6,7.6-0.7,12.4-1.3
			c-6.2-1.9-10.5-3.2-14.7-4.6c0.3-1,0.6-2,0.9-3C656,273,660.6,272.7,665.1,272.4z M572.8,342.5c-0.1-0.5-0.2-1-0.3-1.5
			c-4.6-1.3-9.2-2.5-13.7-3.8c0.3-1,0.6-2,0.9-3c4.8-0.3,9.6-0.7,14.5-1c0.6-1,1.2-1.9,1.8-2.9c-3.5-3-6.7-7.7-10.7-8.3
			c-2.9-0.5-9.1,3.9-9.8,6.9c-0.9,4.1,0.8,10.3,3.9,13.1C561.9,344.2,568.2,342.5,572.8,342.5z M604.7,272.2c0.7-0.8,1.3-1.6,2-2.4
			c-3.4-3.1-6.5-8.4-10.2-8.7c-3.3-0.3-9.6,4.2-10.4,7.4c-0.9,4,1.2,10,4.5,12.9c2.2,2,8.4,0,12.9-0.2c-0.3-0.4-0.5-0.8-0.8-1.2
			c-4.4-1.2-8.8-2.4-13.2-3.6c0.3-1.1,0.5-2.1,0.8-3.2C595,273,599.8,272.6,604.7,272.2z M1049.9,282.7c1.2,0,2.3,0,3.5,0
			c0-3.7-0.7-7.6,0.2-11.1c0.7-2.6,3.6-4.6,5.5-6.9c1.3,2.4,3.2,4.6,3.9,7.1c0.9,3.5,1,7.3,1.4,10.9c6.2-20.2,3.4-23.3-14.5-20.2
			C1049.9,269.3,1049.9,276,1049.9,282.7z M1163.7,269.8c0,1.6,0,3.1,0,4.7c4.3,2.8,8.3,7.3,13.1,8.1c7.1,1.2,10-4.2,10.2-10.3
			c0.2-6.7-3.4-12.3-10.4-11.5C1171.9,261.3,1168,266.7,1163.7,269.8z M1348.4,273.9c0-1.6-0.1-3.1-0.1-4.7c-4.4-3-8.6-8-13.2-8.4
			c-7.2-0.5-10.3,5.3-10,11.9c0.4,6.2,3.6,11.4,10.6,9.9C1340.4,281.6,1344.2,276.9,1348.4,273.9z M1068.5,193
			c1.4,0.2,2.7,0.4,4.1,0.6c0.5-3.7,1.4-7.4,1.5-11.1c0.3-9.9-3.2-21.5,15.4-23c-0.9-0.8-1.8-1.7-2.6-2.5c-6.1,0.7-12.1,1.4-18.3,2
			C1068.5,170.4,1068.5,181.7,1068.5,193z M545.5,267.5c0.6-0.9,1.1-1.8,1.7-2.6c-3.4-1.5-6.7-4-10.1-4.2c-2.5-0.1-5.1,2.9-7.6,4.6
			c3.9,4.2,7.8,8.4,13.3,14.3c-5.6-1-9.8-1.7-14.7-2.5c4.2,7.5,11.8,8.6,16,4.1c10.4-11.4-9.3-8.3-10.4-17
			C538.4,265.5,541.9,266.5,545.5,267.5z M1089.6,267.5c0.7-0.8,1.4-1.6,2.1-2.4c-3.2-1.6-6.4-4.2-9.7-4.4c-2.4-0.2-5.1,2.8-7.6,4.4
			c3.8,4.2,7.6,8.5,12.8,14.3c-5.3-0.8-9.5-1.4-14.4-2.2c1.5,1.8,2.6,4.1,3.6,4.1c4.8-0.2,12.1,0.4,14-2.1c4.3-5.7-2-7.5-7-9
			c-1.9-0.6-3.3-2.3-4.9-3.6c0.5-0.8,0.9-1.6,1.4-2.4C1083,265.3,1086.3,266.4,1089.6,267.5z M815.8,277.3c-0.2,0.9-0.4,1.7-0.6,2.6
			c4.5,0.9,9,2.5,13.5,2.5c1.8,0,3.5-3.6,5.2-5.5c-3.1-2.3-6.1-4.7-9.4-6.7c-1.7-1-4-1.3-6-1.8c1.1-1.3,2.2-2.7,3.3-4
			c3.5,1.1,7.1,2.1,10.6,3.2c0.5-0.7,1-1.5,1.5-2.2c-3.1-1.6-6.2-4.3-9.5-4.6c-2.4-0.2-5.2,2.7-7.8,4.2c3.8,4.3,7.5,8.5,12.6,14.4
			C824.1,278.5,820,277.9,815.8,277.3z M889,285.2c7.5-7.9-4.1-25.4,18-18.9c-0.4-1.1-0.8-2.3-1.2-3.4c-4.2-0.9-8.3-1.8-12.4-2.7
			c-0.6-2.4-1.3-5.3-2-8.1c-0.8,0.1-1.6,0.3-2.4,0.4C889,262.4,889,272.4,889,285.2z M1213.5,160.1c-0.2-0.7-0.4-1.4-0.6-2.1
			c-5.9,0-11.9,0-16.6,0c2,4,4.3,6.8,4.7,9.9c0.7,5.3,0.1,10.8,0.2,16.2c0.2,9.1,2.2,10.3,12.3,7.9c-14.8-7.6-4.3-20.3-8-30.1
			C1208.9,161.2,1211.2,160.6,1213.5,160.1z M807.6,280.1c-15.2-1.4-15.2-1.4-15.2-14c0-4,0-8,0-11.9c-1.6,0-3.1,0-4.7,0
			c0,5.7-0.2,11.5,0,17.2C788.2,282.4,793.4,285.1,807.6,280.1z M1094.6,192.9c9.1-10.5-6.1-29.7,16.8-35.7
			c-5.5,0.7-11.1,1.4-16.8,2.1C1094.6,170.4,1094.6,181.7,1094.6,192.9z M880.1,256.4c-1.6,0-3.2-0.1-4.8-0.1
			c-6.1,8,0.1,16.4,0.6,24.6c0.1,0.8,4.1,1.5,4.2,1.5C880.1,273.1,880.1,264.7,880.1,256.4z M1262,261.3c0,7.8,0,14.5,0,21.3
			c0.4-0.1,0.8-0.2,1.2-0.2c2.3-7.1,4.6-14.1,6.9-21.4C1268.5,261,1265.1,261.2,1262,261.3z M1312.7,282.6c0.7,0,1.3-0.1,2-0.1
			c2.3-7.1,4.5-14.3,6.8-21.5c-1.8,0-5.3,0-8.8,0C1312.7,268.5,1312.7,275.6,1312.7,282.6z M822,192.9c0.8,0,1.6,0,2.4-0.1
			c0-11.4,0-22.9,0-34.3c-0.8,0-1.6,0-2.4,0C822,170,822,181.5,822,192.9z M1159.4,252.5c-0.7,0.1-1.4,0.1-2.1,0.2
			c0,9.9,0,19.9,0,29.8c0.7,0,1.4-0.1,2.1-0.1C1159.4,272.4,1159.4,262.5,1159.4,252.5z M732.2,282.4c0.8,0,1.6-0.1,2.3-0.1
			c0-9.9,0-19.9,0-29.8c-0.8,0-1.6,0-2.3,0.1C732.2,262.5,732.2,272.4,732.2,282.4z M577.2,282.4c0.7-0.1,1.4-0.1,2-0.2
			c0-9.9,0-19.9,0-29.8c-0.7,0.1-1.4,0.1-2,0.2C577.2,262.5,577.2,272.4,577.2,282.4z M490.2,313.7c-0.8,0-1.6,0-2.3-0.1
			c0,9.9,0,19.8,0,29.8c0.8,0,1.6,0,2.3,0C490.2,333.5,490.2,323.6,490.2,313.7z"/>
		<path class="st2" d="M410.7,1029.1c-3.7-2-7.3-4-11-6c-1.4-1.4-2.9-2.7-4.3-4.1c0-318,0-635.9,0-953.9c0.7,0,1.4,0,2.2,0
			c0,262.3,0,524.6,0,786.8c0,14.5,0,14.5,14.9,14.5c349,0,698,0,1047,0c14.9,0,14.9,0,14.9-14.5c0-262.3,0-524.6,0-786.8
			c0.7,0,1.4,0,2.2,0c0,313.7,0,627.3,0,941c0,18-2,21-15.3,23c-1.4-2.7-2.9-5.4-4.3-8.1c-347.3,0-694.6,0-1041.9,0
			C413.6,1023.7,412.1,1026.4,410.7,1029.1z M1353.1,944.9c0,0.6,0,1.2,0,1.8c-5.8,0.9-11.7,2.8-17.4,2.4
			c-14.5-1.1-16.1,6.4-14.4,16.8c0.2,0.9,0.6,1.8,1.3,3.8c19.3-7.7,38.3-15.3,60.1-24c-22.1-8.7-41.1-16.2-61.4-24.2
			c0,4.5,0.3,6.9-0.1,9.2c-1.2,8.1,1.8,11.6,11.2,11.4C1339.3,941.8,1346.2,943.8,1353.1,944.9z M807,960.5c1.1-0.5,2.2-0.9,3.2-1.4
			c-4.3-6.4-5.8-12.4-0.6-18.8c0.8-1-3.2-7.5-5.7-8c-5.2-0.9-11.4-0.5-16.3,1.4c-3.2,1.2-0.5,22.1,3.3,26.6
			c1.2-4.5,2.3-8.3,4.1-14.8C800,951.8,803.5,956.1,807,960.5z M779.9,947.4c0-11.4-5.1-17.8-12.7-17.5c-7.3,0.3-13.5,7.6-13.5,15.9
			c0,9,5.4,14.3,14.1,14.3C778.7,960.1,779.5,953.1,779.9,947.4z M1031.6,959.3c-6.9-3.4-11.4-5.6-15.9-7.7
			c3.8-2.1,7.6-4.2,10.8-5.9c-3.4-2-7.1-4.1-10.8-6.3c4.5-2.1,9.1-4.1,15.5-7c-8.2,0-14.6,0-21.3,0c0,9.3,0,18,0,27
			C1017,959.3,1023.3,959.3,1031.6,959.3z M747.2,952.3c-5.3,0.8-10.1,1.6-14.8,2.3c-0.4-5.8-3.3-12.9-0.7-17
			c6.2-9.7,10.4,2.8,16.8,3.4c0.2-8.1-5.5-10.4-11.5-10.9c-7.2-0.6-13.9,7.3-13.6,15.7c0.3,7.2,2.6,13.5,11.9,14.3
			C743.8,960.9,746,959.1,747.2,952.3z M849.6,931.9c-1.8,0.1-3.5,0.2-5.3,0.3c-0.6,8.8-4.3,18.4,3.7,25.8
			c2.7,2.4,11.8,2.4,14.7,0.1c8.7-7.1,3.3-16.7,2.1-25.4c-2.1,5-1.2,10.2-2.4,15.1c-0.7,3-4.4,5.5-6.7,8.2c-2.1-2.6-5.4-5-5.9-7.9
			C848.9,942.8,849.6,937.3,849.6,931.9z M881.5,950.6c7.3-2,18.4-0.8,15.7-12.9c-1.4-6.6-10.1-8-21.5-4.7c0,9.1,0,17.9,0,26.6
			c0.9,0,1.8,0.1,2.7,0.1C879.4,956.7,880.4,953.8,881.5,950.6z M818.3,931.6c0,10,0,18.7,0,27.4c0.7,0,1.4,0,2.1,0
			c0.7-3.5,1.3-6.9,2.6-13.3c5.6,5.9,9.6,10,12.6,13.2c1-6.1,3-12.1,2.5-17.9c-0.3-3.3-4.2-7.4-7.6-9
			C827.1,930.3,822.3,931.6,818.3,931.6z M962,947c0-0.7,0.1-1.5,0.1-2.2c-1.6-0.4-3.3-0.5-4.7-1.2c-2.5-1.2-4.8-2.6-7.2-4
			c2.3-1.4,4.5-3.1,7-4.2c2.1-0.9,4.6-1,7-1.4c-0.2-1.1-0.4-2.2-0.6-3.3c-6.4,0.9-13.2,0.8-19,3.2c-3.4,1.4-0.2,22.2,3.8,26.2
			c1-4.2,1.9-7.9,2.7-11.6C955.1,948,958.6,947.5,962,947z M924.8,932.2c-7.1,0-14.2,0-21.3,0c16,5.1,2.1,19.6,9.9,27
			C920.6,951.7,906.7,936.6,924.8,932.2z M989.1,932.6c-1.1,0-2.1,0-3.2,0c0,8.7,0,17.4,0,27.4c6.3-0.3,11.9-0.5,17.6-0.7
			c0-0.9-0.1-1.7-0.1-2.6c-4.4-0.6-8.8-1.2-14.3-1.9C989.1,947,989.1,939.8,989.1,932.6z M972.7,958.8c0.7,0,1.5-0.1,2.2-0.1
			c0-8.7,0-17.4,0-26.1c-0.7,0-1.5,0-2.2,0.1C972.7,941.4,972.7,950.1,972.7,958.8z"/>
		<path class="st3" d="M459.4,402.9c0.5,0.2,1,0.1,1.5-0.2c312.2,0,624.3,0,936.5,0c2.2,0,4.4,0.1,6.5,0c6.4-0.5,9.5,2.3,9.7,8.2
			c-0.1,8.8-0.2,17.6-0.2,26.4c-0.3,38.6-0.5,77.2-0.7,115.8c-0.6,0.5-1.2,1.1-1.8,1.6c-2.8,0.3-5.7,0.6-8.5,0.9
			c-3.3-0.1-6.5-0.3-9.8-0.3c-304.4,0-608.8,0-913.1,0c-3.3,0-6.5,0.2-9.8,0.3c-2.8-0.3-5.7-0.6-8.5-0.9c-0.6-0.6-1.2-1.1-1.8-1.7
			c-0.2-3.7-0.6-7.4-0.6-11.1c-0.2-43.7-0.3-87.3-0.4-131C458.7,408.2,459,405.6,459.4,402.9z M559.1,479.3c0,6.4,0.2,12.9-0.1,19.3
			c-0.2,5.4,2,8.4,8,8.4c10.2,0,20.4,0.3,30.6-0.2c2.6-0.1,7.4-2.9,7.3-4.1c-1.2-14.7,7.4-31.2-9.4-43.2c-7-5-26.1-10.6-31.8-5.5
			c-4,3.7-3.4,11.9-4.6,18.2C558.8,474.5,559.1,476.9,559.1,479.3z M1088.2,496.9c3.9-7.6,6.6-13,10.3-20.2
			c0.7,7.4,1.2,12.5,1.6,17.5c0.9-0.1,1.8-0.1,2.7-0.2c0-9.4,0-18.9,0-28.3c-1.3-0.4-2.6-0.9-3.8-1.3c-3.4,7.1-6.7,14.3-10.1,21.5
			c-7.3-5.7-4.5-17.3-15.1-20.9c0,10.4,0,19.7,0,28.9c1,0,2,0,3,0.1c0-5.5,0-10.9,0-16.4c0.7,0,1.3,0,2,0
			C1081.6,483.3,1084.3,489,1088.2,496.9z M842.5,486.1c-4.1-7.5-7.8-14.5-11.5-21.5c-0.9,0.5-1.7,0.9-2.6,1.4c0,9.3,0,18.6,0,27.9
			c0.8,0,1.7,0,2.5,0c0.5-5,0.9-9.9,1.6-17.7c3.7,7.9,6.2,13.2,9.8,20.8c4.3-8.3,7.2-14.1,10.9-21.2c0.7,7.2,1.2,12.7,1.7,18.2
			c0.9-0.1,1.8-0.2,2.7-0.2c0-9.3,0-18.6,0-27.9c-1.1-0.4-2.2-0.9-3.3-1.3C850.4,471.5,846.6,478.4,842.5,486.1z M1246.2,494.4
			c0.9-0.3,1.8-0.5,2.6-0.8c-1.8-3.6-3.6-7.2-5.5-10.9c2.6-4.5,5.1-11.8,3-13.1c-5-3.3-12-3.8-18.6-5.5c0,11.4,0,20.6,0,29.8
			c0.8,0,1.5,0.1,2.3,0.1c0.7-3.7,1.4-7.5,2.7-14.8C1238.5,485.6,1242.4,490,1246.2,494.4z M819.6,480.6
			c-0.2-9.1-2.8-15.4-12.8-15.7c-8.2-0.2-13,5.9-12.7,15.7c0.3,9.3,5,14.3,13.4,13.8C817.8,493.9,819.2,487,819.6,480.6z
			 M931.4,480.1c-0.4-7.6-2-14.5-12.1-15.2c-8.4-0.6-13.3,5.1-13.2,15c0.1,7.9,2.4,14.3,12.5,14.5
			C926.7,494.7,931.3,489.5,931.4,480.1z M1039.8,482c0.6,5.7,2.6,12.2,12.7,12.4c8.2,0.2,13.6-5.9,13.1-15.1
			c-0.5-7.6-2.9-14.1-12.8-14.5C1044.6,464.6,1039.6,470.7,1039.8,482z M1220,493.9c0-0.9,0-1.8,0.1-2.6c-4.7-0.5-9.4-0.9-13.9-1.4
			c-4.9-12.3,8-6.7,12.7-11.3c-5.3-0.7-9.3-1.1-16-2c3-3.5,4.4-6.5,6.7-7.4c3-1.2,6.8-0.8,10.3-1c-0.1-0.8-0.2-1.5-0.3-2.3
			c-6.1,0-12.1,0-18.5,0c0,9.6,0,18.8,0,28C1208,493.9,1214,493.9,1220,493.9z M960,466c-1.2,0-2.3-0.1-3.5-0.1
			c0,5.4,0.8,11-0.3,16.2c-0.6,3.2-4.1,5.9-6.3,8.8c-2.5-3-6.4-5.7-7.2-9c-1.2-5.2-0.3-10.8-0.3-16.2c-1.6,0-3.2,0.1-4.8,0.1
			c0.4,7.7,0.1,15.6,1.8,23c0.6,2.4,6.6,5.2,10.1,5.2c3.5,0,9.7-2.9,10.1-5.3C960.8,481.4,960,473.6,960,466z M1144.5,465.8
			c-1.1,0.1-2.1,0.2-3.2,0.3c0,6.9-0.7,13.8,0.3,20.5c0.5,2.8,4.4,6.6,7.4,7.3c3.7,0.8,8.8-0.4,12-2.5c5.1-3.5,4.6-19.5-0.5-26.1
			c-0.3,2.9-0.3,5.2-0.9,7.4c-1.9,6.2,5.4,17.7-7.3,17.7c-11.2-0.1-5.2-11-6.7-17.2C1145,470.8,1144.9,468.3,1144.5,465.8z
			 M1032.3,475.2c-1.5-8.8-4.9-11.2-12.5-10.1c-7.8,1.2-12.2,8.6-10.5,18.3c1.4,7.8,6.1,12.7,14.9,10.7c3.6-0.8,6.4-4.8,9.7-7.5
			c-7.3,1.2-12,2-16.8,2.8c-0.4-6-3.4-13.3-0.8-17.7C1021.8,462.6,1027,471.9,1032.3,475.2z M989.3,494.6c0.8-0.4,1.6-0.8,2.4-1.1
			c-3.8-5.9-7.7-11.4-1.6-18c0.7-0.8-4-7.6-7.5-9.4c-3.2-1.7-8.2-0.4-12.1-0.4c0,10.1,0,19.2,0,28.2c0.8,0.1,1.5,0.1,2.3,0.2
			c0.6-3.7,1.3-7.4,2.5-14.6C981.1,485.7,985.2,490.1,989.3,494.6z M766.8,493.7c0.8,0.2,1.6,0.3,2.5,0.5c0.9-3.9,1.7-7.8,3.3-14.9
			c5.7,6.4,9.7,10.9,13.7,15.4c-1.6-7-4.8-12.9,0.8-19.6c0.8-1-3.5-7.6-6.7-9c-3.7-1.6-8.9-0.4-13.6-0.4
			C766.8,475.8,766.8,484.8,766.8,493.7z M1113.3,494.2c0.7,0,1.5,0,2.2,0.1c0.7-3.4,1.4-6.7,2.1-10c15.1-2.7,19-5.5,17.1-12.2
			c-1.9-6.7-9.2-8.3-21.4-5.1C1113.3,476.2,1113.3,485.2,1113.3,494.2z M880.5,464.9c-0.7,0.5-1.4,1-2.1,1.4
			c3.7,9.3,7.4,18.5,11,27.7c3.7-9.2,7.3-18.5,11-27.7c-0.4-0.4-0.8-0.8-1.2-1.1c-3.2,3.9-6.5,7.9-10.1,12.3
			C885.8,472.8,883.1,468.9,880.5,464.9z M742,466.2c0,9.7,0,18.8,0,27.9c0.7,0,1.5,0,2.2-0.1c0.5-3.8,1.1-7.6,1.6-11.2
			c4.4-0.6,8.3-1.2,12.1-1.8c-0.1-0.7-0.1-1.5-0.2-2.2c-4-0.5-7.9-1.1-11.9-1.6c-4.2-13.9,10.3-5.5,14.3-11
			C753.7,466.2,747.8,466.2,742,466.2z M1180.6,470.1c0,8.6,0,16.2,0,23.9c1,0,1.9,0,2.9,0c0-8,0-16,0-23.7
			c4.4-1.1,7.3-1.8,10.1-2.6c-0.1-0.4-0.2-0.7-0.3-1.1c-7.5,0-14.9,0-22.4,0c0,0.5,0,1,0,1.5
			C1173.5,468.6,1176.2,469.1,1180.6,470.1z"/>
		<path class="st4" d="M1413.6,410.9c-0.2-5.8-3.3-8.7-9.7-8.2c-2.2,0.2-4.4,0-6.5,0c-312.2,0-624.3,0-936.5,0
			c6.1-2.7,12.1-5.8,18.4-7.9c2.9-1,6.5-0.2,9.8-0.2c298.1,0,596.1,0,894.2,0c4.3,0,8.8-0.2,13,0.6c22.8,4.2,32.1,14.7,32.2,36.6
			c0.2,35.6,0.1,71.2-0.1,106.7c0,5.7-0.2,11.8-2.4,16.9c-4.4,10.1-1.1,19.4-0.1,29.4c3.6,33.2,6.1,66.5-2.8,99.6
			c-1.9,7.1,4,15.6,4.1,23.5c0.3,26.6,1.3,53.4-1.5,79.8c-1.7,15.9-14.3,22.7-31.8,23.7c-2.9,0.2-5.8,0-8.7,0
			c-299.5,0-599.1,0-898.6,0c-31.1,0-43.5-11.5-43.2-40.7c0.3-22.6,0-45.4,2.6-67.8c1.3-10.8,1.1-20.7-0.1-31.4
			c-3.8-32.8-6-65.8,2.6-98.6c1.9-7.2-2.2-15.7-3.3-23.6c-0.8-5.7-1.8-11.4-1.8-17c-0.2-32.9-0.3-65.7,0.1-98.6
			c0.1-7.3,1.6-14.9,4.5-21.6c1.7-3.9,7.4-6.2,11.2-9.2c-0.3,2.6-0.7,5.3-1,7.9c-2,3.2-5.4,6.3-5.8,9.7c-1.4,11.6-2.5,23.4-2.4,35.1
			c0.3,30.6,1.2,61.2,2.2,91.8c0.1,2,2.7,3.9,4.1,5.8c0,1.4,0,2.7,0,4.1c1.6,4.9,3.1,9.9,4.7,14.8c-1,3.2-1.9,6.4-2.9,9.6
			c-2,1.3-4,2.6-6,4c1.9,1.3,3.9,2.5,5.8,3.8c-0.4,0.4-0.8,0.8-1.2,1.2c-0.2,1.7-0.4,3.5-0.5,5.2c0.1,2.9,0.2,5.8,0.3,8.8
			c-0.2,0.7-0.4,1.4-0.6,2.2c-2.1,1.9-5.8,3.7-5.9,5.6c-0.6,10.8-0.6,21.6,0,32.4c0.1,2.1,4,4,6.2,6c0,3.4,0,6.8,0,10.2
			c0.2,1.7,0.4,3.5,0.5,5.2c0.4,0.4,0.8,0.8,1.2,1.2c-7-0.2-6.7,2.8-4.2,7.5c2.7,4.9,4.8,10,7.2,15.1c-1,2.5-1.9,5.1-2.9,7.6
			c-2,2.3-5.6,4.5-5.9,7c-1.3,12.4-2.3,24.9-2.3,37.3c0,13.8,1.4,27.6,2,41.4c0.5,11.4,6.7,18.5,19,19.7c11.5,1.2,23.1,2.1,34.6,2.2
			c277,0.1,554,0.1,830.9,0c20.7,0,41.3-1.1,62-2c12-0.5,20.8-7.2,20.9-16.8c0.4-27.3,0.3-54.6-0.1-81.8c0-2.4-3.8-4.7-5.9-7
			c-1-2.5-1.9-5.1-2.9-7.6c0.6-2.3,0.7-4.8,1.9-6.7c4.2-6.5,9.3-12.3,3.2-20.6c-1.7-2.3,0.1-7.2,1.1-10.6c1.2-4.4,3.9-8.6,4.9-13
			c3.8-16.7-4.6-32.1-6.7-48.2c-0.5-0.4-0.9-0.9-1.4-1.3c1.9-1.3,3.9-2.5,5.8-3.8c-2-1.3-4-2.6-6-4c-1-3.2-1.9-6.4-2.9-9.6
			c1.6-4.9,3.1-9.9,4.7-14.8c0-1.4,0-2.7,0-4.1c1.4-1.3,4-2.5,4-3.8c0-4.6-1.6-9.3-1.2-13.9c0.7-8.8,3.6-17.5,3.5-26.3
			c-0.2-29.2-1.1-58.5-2.3-87.7C1419.3,417.9,1415.6,414.4,1413.6,410.9z"/>
		<path class="st5" d="M415,1021c347.3,0,694.6,0,1041.9,0c0,2,0,4,0,6c-8.8,0.1-17.5,0.1-26.3,0.2c-4.5-0.7-9-2-13.4-2
			c-295.9-0.1-591.8-0.1-887.7-0.1c-3.3,0-6.6-0.3-9.8,0.3c-1.6,0.3-2.8,2.4-4.2,3.7c-33.5-1.3-67-2.6-100.4-3.9
			C415,1023.8,415,1022.4,415,1021z"/>
		<path class="st6" d="M515.5,1029.2c1.4-1.3,2.6-3.4,4.2-3.7c3.1-0.6,6.5-0.3,9.8-0.3c295.9,0,591.8,0,887.7,0.1
			c4.5,0,9,1.3,13.4,2c-4.2,0.6-8.3,1.8-12.5,1.8C1117.3,1029.2,816.4,1029.2,515.5,1029.2z"/>
		<path class="st7" d="M463.9,178.8c4.8,9.7,12.3,13.6,22.8,10.2c2.8-0.9,6.2-4.3,6.4-6.8c0.3-2.6-2.3-6.3-4.8-8
			c-3.1-2.1-7.4-2.5-11.1-3.9c-6.8-2.5-15-5-13.7-13.4c0.6-4,5.3-8.5,9.5-10.7c7.8-4.2,15.6-1.8,21.7,4.1c2,1.9,2.7,4.9,4,7.4
			c-1.5,1.1-2.9,2.3-4.4,3.4c-0.4-1.8-0.6-3.8-1.4-5.5c-3.1-7-9.7-8.2-16.3-6.6c-3.2,0.8-7.4,4.3-7.9,7c-0.4,2.5,3,6.5,5.9,8.3
			c3.8,2.3,8.8,2.9,13.2,4.5c6.9,2.6,12.1,6.7,10.6,14.5c-1.5,7.8-7.8,9.9-15.3,10.3C469.5,194.6,462.8,189.8,463.9,178.8z"/>
		<path class="st4" d="M961.5,164.8c4.5,5.5,6.6,11.1,0.7,17c-2.2,1.4-4.7,2.6-6.5,4.4c-5.6,5.5-14.1,5.4-18.7-0.4
			c-5.1-6.4-3.9-18.9,2.8-22.8c9.1-5.3,14.7-0.8,18.8,6.8c0.3,0.5,1.2,0.6,2.2,1.2C961,168.7,961.2,166.7,961.5,164.8z"/>
		<path class="st8" d="M702.9,193.2c0-16.9,0-33.7,0-50.6c1-0.1,2.1-0.2,3.1-0.3c0.6,5.6,1.3,11.1,1.8,15.4
			c6.5,0.4,14.9-1.3,18.4,1.9c4.1,3.6,4.3,11.4,5.2,17.4c0.8,5.3,0.2,10.8,0.2,16.3c-1.8,0-3.6,0-5.4,0c0-6.2,0.2-12.4-0.1-18.7
			c-0.2-5.8,1.8-13.6-8.3-13.5c-9,0.1-10.9,6.2-10.6,13.5c0.2,6.2,0.1,12.4,0.1,18.5C705.8,193.1,704.4,193.1,702.9,193.2z"/>
		<path class="st7" d="M537.3,186.5c-8.5,8.7-16.3,9.1-24.2,5c-7.7-4-10.4-14.5-6.7-23.6c3-7.4,8.8-12.2,17.4-10.8
			c9.7,1.5,13.3,8.3,13.1,18.4c-8.6,0-17.1,0-25.4,0C510.9,189.6,516.6,192.2,537.3,186.5z M510.6,172.1c7.2,0,13.8,0,21.1,0
			c-0.3-6.7-2.8-11.2-10-11.3C514.2,160.8,511,165,510.6,172.1z"/>
		<path class="st7" d="M591.5,175.9c-5.2,0-9.5,0-13.7,0c-3.9,0-7.9,0-11.7,0c-0.7,13.7,5.4,16.4,23.1,11.3
			c-4.5,6.3-12.5,8.5-19.7,5.5c-7.9-3.4-12-13.4-9.3-22.8c2.3-8,7.9-13.6,17-12.9C587.6,157.7,591.4,164.9,591.5,175.9z
			 M586.6,172.2c-0.9-6.9-3.1-11.9-11.1-11.3c-7.1,0.5-10.5,4.5-9.8,11.3C572.8,172.2,579.2,172.2,586.6,172.2z"/>
		<path class="st9" d="M770.6,175.7c-8.1,0-16.3,0-24.5,0c-0.9,13.7,5.9,16.9,22.8,11.4c-4,6.5-12.9,8.8-20.1,4.9
			c-8-4.3-10.8-11.7-8.4-19.1c1.9-5.7,6.4-12.3,11.8-15C762.4,152.9,771.5,161.9,770.6,175.7z M766.5,172.2
			c-0.1-7.2-3.1-11.8-10.8-11.3c-7.1,0.4-10.4,4.7-10.3,11.3C752.7,172.2,759.4,172.2,766.5,172.2z"/>
		<path class="st9" d="M882,175.8c-4.2,0-8.5,0-12.8,0c-3.9,0-7.8,0-11.7,0c-0.9,13.6,5.9,16.8,22.8,11.4c-4,6.5-12.9,8.8-20.1,4.9
			c-8-4.3-10.8-11.7-8.4-19.1c1.9-5.7,6.4-12.3,11.8-15C873.8,152.9,882.9,161.9,882,175.8z M856.3,172c7.5,0,14.4,0,22,0
			c-1-6.6-3.2-11.3-10.5-11.3C860.3,160.8,857.3,165.3,856.3,172z"/>
		<path class="st7" d="M1060.3,175.8c-0.1,11.2-6.7,18.2-17.2,18.2c-10.7-0.1-17.3-7.6-17-19.4c0.3-10.7,7.8-18.4,17.7-18
			C1053.7,157,1060.4,164.8,1060.3,175.8z M1055.6,175.5c-0.5-7-2.1-13.9-12-14.7c-7.6-0.6-12.8,5.3-12.9,14.2
			c-0.1,7.7,2.1,14.2,11.9,15.1C1050.3,190.8,1055.4,184.9,1055.6,175.5z"/>
		<path class="st10" d="M467.4,263.4c-0.4,7.7-0.7,13.5-1,19.2c-0.9,0-1.9-0.1-2.8-0.1c0-9.4,0-18.8,0-28.3c0.6-0.4,1.3-0.8,1.9-1.2
			c4.7,5.9,9.4,11.8,15.3,19.3c0.9-7.4,1.5-12.9,2.2-18.4c0.8,0.1,1.7,0.2,2.5,0.2c0,9.3,0,18.6,0,28c-0.7,0.5-1.3,0.9-2,1.4
			C478.6,277.5,473.7,271.4,467.4,263.4z"/>
		<path class="st11" d="M626.7,169.7c-5.6-6.3-10.8-13.4-20.3-6.2c-5.5,4.2-6,19-0.6,23.4c8.6,7.1,14.9,1.9,21.2-4.2
			c0.1,7.4-4.7,10.4-11.7,11.1c-10.3,1-17-4.9-18.2-15.8c-1.3-11.2,5-20.2,15-21.3C620.2,155.8,626,160.4,626.7,169.7z"/>
		<path class="st11" d="M1018.5,182.7c-1.2,8.5-6.9,11.5-15.2,11.1c-9.4-0.4-15-7.1-15.4-17.6c-0.3-10.5,5.6-18.7,14.9-19.4
			c8.8-0.6,14.9,3.1,17,14.2c-8.1-6.5-15.2-17.4-23.1-5.9c-3.5,5.1-3.3,16.2,0.4,21.2C1004.1,195.7,1011.7,187.7,1018.5,182.7z"/>
		<path class="st7" d="M961.5,164.8c-0.2,1.9-0.5,3.9-0.7,6c-1.1-0.6-2-0.7-2.2-1.2c-4.1-7.6-9.7-12.1-18.8-6.8
			c-6.7,3.9-7.9,16.4-2.8,22.8c4.7,5.8,13.2,5.9,18.7,0.4c1.8-1.8,4.3-2.9,6.5-4.4c-1.5,8.4-7.4,12-16,12.1
			c-8.3,0.1-13.7-4-15.9-11.3c-2.6-8.7-1.7-17,6.7-22.8c6.6-4.6,13.6-3.9,20.1,0.8C958.6,161.7,960,163.3,961.5,164.8z"/>
		<path class="st8" d="M811,158.1c-2.1,4.5-4.8,8-5.2,11.7c-0.7,7.7-0.2,15.6-1.8,23.4c-8.9-10.1,2-24.3-9.3-34.7
			c5-5.1,10-11.3,16.3-16.1c2.2-1.7,7.8,0.5,14.6,1.3c-7.8,5.4-19.6-1.9-19.6,9.5C806,155.3,810.2,157.4,811,158.1z"/>
		<path class="st12" d="M921.6,159.2c-1.8,2.7-5.6,5.8-5.2,8.3c1.4,8.3-6.5,19.4,7.8,24.2c-8.9,3.1-12.1,1.7-12.9-6.4
			c-0.6-6,0.2-12.2-0.5-18.2c-0.3-2.8-2.8-5.4-4.2-7.9c1.8-2.8,4.2-6.6,6.6-10.5C916.1,152.3,919.1,155.9,921.6,159.2z"/>
		<path class="st13" d="M654.1,192.4c-11.1,2.9-14.4-1-14.5-8.6c0-5.7,0.4-11.5-0.3-17.2c-0.3-2.6-2.7-4.9-4.2-7.5
			c1.6-2.4,4-6.3,6.4-10.1c2.7,3.5,5.7,7.4,7.9,10.3c-1.5,2.2-5.3,5.2-4.8,7.5C646.4,175.4,637.7,186.8,654.1,192.4z"/>
		<path class="st13" d="M676.9,159.3c1.9-3.3,4-7,6.1-10.6c2.7,3.6,5.4,7.2,8,10.6c-1.4,2.5-5.1,5.9-4.8,9c0.9,8.3-5.9,19,8.9,24.3
			c-8.6,2.2-13.5,1-13.8-7c-0.3-6.1,0.2-12.2-0.4-18.2C680.5,164.6,678.3,161.9,676.9,159.3z"/>
		<path class="st12" d="M1403.5,284.2c-5.5-1.9-11.1-3.8-16.6-5.7c3.8-4.1,7.6-8.3,12-13.1c-2.9,0.2-7,0.6-11,0.9
			c-0.3-0.8-0.5-1.5-0.8-2.3c4.2-1,11.4-3.7,12-2.9c3.7,6.1,6,13,8.7,19.6C1406.4,281.9,1404.9,283.1,1403.5,284.2z"/>
		<path class="st11" d="M1163.3,161c7.5-5.2,15.1-6.6,22.1,0.5c5.7,5.7,6.1,19.9,0.9,26.7c-6.1,8-14,6.5-22,2.9
			c0.1-1.4,0.2-2.8,0.4-4.2c5.5,0.1,15.5,1.3,15.8,0.2c1.9-7,3.5-14.9,1.5-21.6c-1.9-6.6-9.4-5.6-15.4-2.9
			C1165.4,162.1,1164.4,161.6,1163.3,161z"/>
		<path class="st10" d="M1357,283.3c-0.9,2.5-1.9,5.1-2.9,7.7c-0.6-0.1-1.3-0.1-1.9-0.2c0-9.4,0-18.8,0-28.4
			c13.6-2.6,18.1-0.8,19.1,8C1372.4,278.9,1368.2,282.6,1357,283.3z M1353.6,272.3c3,3.2,5,5.3,7.1,7.5c2.1-2.7,5.8-5.4,5.8-8
			c0-2.4-4.1-4.8-6.3-7.3C1358.2,266.8,1356.4,269,1353.6,272.3z"/>
		<path class="st12" d="M951.6,260.4c11.6,0.3,15.6,4,14.7,13.1c-0.8,8.5-4.3,10-19.2,8.1c0-9.8,0-19.5,0-29.3
			c0.8-0.1,1.6-0.2,2.4-0.3C950.1,254.7,950.8,257.3,951.6,260.4z M957.1,263.6c-1.2,0.1-2.4,0.2-3.7,0.3c-1,3.1-2.9,6.2-2.6,9.1
			c0.2,2.3,3.3,4.3,5.1,6.4c1.9-2.8,4.9-5.4,5.3-8.3C961.6,268.8,958.6,266.2,957.1,263.6z"/>
		<path class="st11" d="M532,343.6c0-10,0-20,0-30.1c0.7-0.1,1.3-0.2,2-0.4c0.9,2.8,1.8,5.6,2.7,8.3c13.3,0.1,17.3,8.3,8.5,22.2
			c0-4.4,0.4-8.8-0.2-13.1c-0.2-1.8-2.6-3.3-3.9-5c-1.8,1.6-4.9,3.1-5.2,5c-0.8,4.2-0.2,8.7-0.2,13.1
			C534.3,343.6,533.2,343.6,532,343.6z"/>
		<path class="st9" d="M1146.1,192.4c-9-1.9-21.3,7.1-26.5-7.9c2,1.3,3.9,2.6,5.9,3.7c7.9,4.7,16.5,0.7,16.9-8.1
			c0.3-7.4,0.1-14.7,0.1-22.1c1.2,0,2.5,0,3.7,0C1146.1,169.5,1146.1,181,1146.1,192.4z"/>
		<path class="st8" d="M993.9,263.7c-1.7,3.4-3.2,6.8-5.2,10.1c-1.9,3.1-3.5,7.6-6.4,8.6c-6.5,2.3-11.4-0.3-11.4-7.6
			c0-4.7,0.5-9.4,0.8-14.1c1.1,0,2.2,0,3.3,0c0.3,3.4,0,6.9,1,10.2c0.9,2.9,3.1,5.5,4.7,8.2c1.8-2.7,3.9-5.3,5.3-8.2
			c0.6-1.3-0.1-3.3-0.3-5c3.3-1.8,6.6-3.5,10-5.3C995.2,261.6,994.5,262.6,993.9,263.7z"/>
		<path class="st10" d="M684.7,260.3c0.5-2.9,0.9-5.4,1.3-7.9c0.8,0,1.6,0,2.5,0c0,9.7,0,19.3,0,29.2c-13.8,2.4-17.4,1-18.4-7.8
			C669.1,264.7,672.9,261,684.7,260.3z M687.9,272.2c-3.2-3.3-5.2-5.5-7.3-7.7c-2.1,2.6-5.5,5.1-5.8,7.8c-0.2,2.3,3.4,4.8,5.4,7.2
			C682.5,277.4,684.6,275.4,687.9,272.2z"/>
		<path class="st10" d="M1300.4,260.2c0.7-2.6,1.4-5.3,2.1-7.9c0.7,0,1.5,0.1,2.2,0.1c0,9.8,0,19.6,0,29.8
			c-7.4,0.4-16.6,4.1-18.5-7.9C1284.7,265,1288.8,261,1300.4,260.2z M1303.9,272.5c-3.1-3.5-5.1-5.7-7.1-7.9c-2.1,2.5-5.7,4.9-6,7.6
			c-0.2,2.3,3.3,4.9,5.2,7.4C1298.3,277.5,1300.5,275.5,1303.9,272.5z"/>
		<path class="st7" d="M569.7,272.6c-4.3,0.2-8.5,0.4-12.8,0.6c-0.3,1.1-0.6,2.1-1,3.2c4.5,1.2,9.1,2.3,13.6,3.5
			c0.1,0.7,0.3,1.3,0.4,2c-4.6,0-11.2,1.7-13.3-0.4c-3.2-3.2-4.8-9.4-4.1-13.8c0.5-2.8,7.1-7.1,9.9-6.5c3.9,0.8,6.8,5.6,10.1,8.7
			C571.6,270.7,570.6,271.6,569.7,272.6z"/>
		<path class="st9" d="M842.6,276.7c4.4,1.1,8.9,2.1,13.3,3.2c0.2,0.5,0.4,1,0.6,1.4c-4.5,0.2-10.7,2.1-13,0.1
			c-3.2-2.8-5.3-8.9-4.4-12.9c0.8-3.2,7.1-7.7,10.3-7.4c3.7,0.4,6.8,5.7,10.1,8.8c-0.6,0.8-1.3,1.6-1.9,2.4
			c-4.6,0.3-9.2,0.6-13.8,0.8C843.4,274.3,843,275.5,842.6,276.7z"/>
		<path class="st8" d="M838.3,193c0-16.8,0-33.6,0-50.5c0.9,0,1.9,0,2.8,0c0,16.9,0,33.7,0,50.6C840.2,193.1,839.2,193,838.3,193z"
			/>
		<path class="st12" d="M463.4,343.8c-2.6-30.3-1-33.5,15.1-28.5c-4.5,1.1-7.6,1.8-13.7,3.3c5.5,2.8,8.8,4.5,12.9,6.6
			c-0.3,3.7-0.7,9.5-1.1,15.3c-0.5,0-1.1,0-1.6,0c0-5.1,0-10.1,0-15.6C458.4,325.1,469.2,337.7,463.4,343.8z"/>
		<path class="st9" d="M1129.2,268.8c1.3-1.1,2.3-2.6,3.8-3.4c3.6-1.7,7.9-4.9,10.8-4.1c3.4,1,5.7,5.5,10.4,10.5
			c-8.2,0.6-13,1-17.8,1.4c-0.3,1-0.7,2-1,3c4.6,1.3,9.1,2.5,14,3.9c-8.3,6.7-14.1,0.8-20.2-3.8
			C1129.3,273.8,1129.3,271.3,1129.2,268.8z"/>
		<path class="st12" d="M719.4,279.6c0-5,0-10,0-16.1c-3.5,0.7-6.3,1.3-9.6,2c0,5.7,0,11,0,16.3c0-9.2-8.3-18.6-0.4-27.2
			c2.2-2.4,7.7-2,11.8-3c0.2,1,0.5,1.9,0.7,2.9c-3.1,0.8-6.1,1.5-12.1,3c5.2,2.8,8.3,4.5,12.6,6.8c-0.2,3.6-0.6,9.4-0.9,15.2
			C720.7,279.5,720,279.6,719.4,279.6z"/>
		<path class="st9" d="M615.6,333.2c-8.8,0.5-13.4,0.7-18,1c-0.3,1-0.6,2-1,3c4.6,1.3,9.2,2.5,13.8,3.8c0.1,0.7,0.1,1.4,0.2,2.1
			c-4.8-0.4-11.4,0.8-14-1.6c-2.9-2.7-4-9.2-2.8-13.2c0.8-2.9,7.4-6.8,10.2-6.1C607.8,323.1,610.5,328,615.6,333.2z"/>
		<path class="st9" d="M514.8,333.5c-4.5,0.3-9,0.6-13.4,0.9c-0.3,1-0.5,2.1-0.8,3.1c4.5,1.2,9,2.4,13.4,3.5
			c0.2,0.4,0.5,0.9,0.7,1.3c-4.5,0.2-10.7,2.1-13,0.1c-3.2-2.8-5.5-8.9-4.5-12.8c0.8-3.3,7-7.8,10.4-7.5c3.6,0.3,6.8,5.6,10.1,8.7
			C516.7,331.7,515.7,332.6,514.8,333.5z"/>
		<path class="st13" d="M1129.2,268.8c0,2.5,0,5,0,7.5c-6.4,2.8-12.9,5.6-21.2,9.2c0-13.3,0-23.1,0-32.9c0.9-0.2,1.8-0.3,2.7-0.5
			c0.6,3.1,1.3,6.2,2,9.8C1121.7,257.1,1124.9,264.1,1129.2,268.8z M1125.8,271.7c-3.8-3.3-6.1-5.3-8.4-7.3c-1.8,2.6-5,5.2-5.1,7.9
			c-0.1,2.4,3.2,4.9,4.9,7.3C1119.7,277.4,1122.1,275.1,1125.8,271.7z"/>
		<path class="st9" d="M930.1,272.4c-4.5,0.3-9.1,0.5-13.6,0.8c-0.3,1-0.6,2-0.9,2.9c4.3,1.4,8.7,2.7,15.7,4.9
			c-6.1,0.4-12.1,2.4-14.2,0.5c-3.2-2.9-5.8-8.8-4.9-12.7c0.7-3.3,6.7-7.9,10.2-7.8c3.6,0.2,7,5.3,10.4,8.3
			C931.8,270.4,931,271.4,930.1,272.4z"/>
		<path class="st9" d="M760,272.4c-4.6,0.2-9.2,0.5-13.7,0.7c-0.3,1-0.7,2-1,3.1c4.5,1.3,9.1,2.5,13.6,3.8c0.2,0.5,0.3,1.1,0.5,1.6
			c-4.6,0-11.3,1.7-13.3-0.4c-3.1-3.3-4.6-9.4-3.8-13.9c0.5-2.7,7.2-6.8,10.1-6.2c3.8,0.8,6.5,5.7,9.7,8.9
			C761.5,270.8,760.7,271.6,760,272.4z"/>
		<path class="st9" d="M665.1,272.4c-4.6,0.3-9.1,0.5-13.7,0.8c-0.3,1-0.6,2-0.9,3c4.3,1.3,8.6,2.7,14.7,4.6
			c-4.7,0.6-10.8,2.8-12.4,1.3c-3.3-3.4-6.2-9-5.7-13.3c0.4-3.1,6.8-7.9,10.1-7.6c3.7,0.3,7,5.4,10.4,8.4
			C666.9,270.5,666,271.5,665.1,272.4z"/>
		<path class="st9" d="M572.8,342.5c-4.6,0-11,1.7-13.4-0.4c-3.1-2.8-4.8-9-3.9-13.1c0.6-3,6.8-7.4,9.8-6.9
			c3.9,0.6,7.1,5.3,10.7,8.3c-0.6,1-1.2,1.9-1.8,2.9c-4.8,0.3-9.6,0.7-14.5,1c-0.3,1-0.6,2-0.9,3c4.6,1.3,9.2,2.5,13.7,3.8
			C572.6,341.5,572.7,342,572.8,342.5z"/>
		<path class="st9" d="M604.7,272.2c-4.8,0.4-9.6,0.7-14.5,1.1c-0.3,1.1-0.5,2.1-0.8,3.2c4.4,1.2,8.8,2.4,13.2,3.6
			c0.3,0.4,0.5,0.8,0.8,1.2c-4.4,0.2-10.7,2.1-12.9,0.2c-3.2-2.9-5.4-8.9-4.5-12.9c0.8-3.2,7-7.8,10.4-7.4c3.7,0.4,6.8,5.6,10.2,8.7
			C606,270.7,605.3,271.4,604.7,272.2z"/>
		<path class="st10" d="M1163.3,161c1,0.6,2.1,1.1,3.1,1.7c-0.6,8.1-1.2,16.2-1.8,24.3c-0.1,1.4-0.2,2.8-0.4,4.2
			c-0.7,5.5-1.5,11-2.2,16.4c-1.5-0.1-3-0.2-4.5-0.3c0-15.2-0.4-30.5,0.2-45.7C1158,156.1,1161,157.3,1163.3,161z"/>
		<path class="st11" d="M1049.9,282.7c0-6.7,0-13.4,0-20.2c17.9-3.1,20.6,0,14.5,20.2c-0.4-3.6-0.4-7.4-1.4-10.9
			c-0.7-2.5-2.5-4.8-3.9-7.1c-1.9,2.3-4.8,4.3-5.5,6.9c-1,3.5-0.2,7.4-0.2,11.1C1052.3,282.7,1051.1,282.7,1049.9,282.7z"/>
		<path class="st11" d="M1163.7,269.8c4.3-3.2,8.2-8.5,12.8-9c7.1-0.8,10.7,4.7,10.4,11.5c-0.2,6.1-3.1,11.5-10.2,10.3
			c-4.7-0.8-8.7-5.3-13.1-8.1C1163.7,272.9,1163.7,271.4,1163.7,269.8z M1175.1,280.5c1.1,0,2.1,0,3.2-0.1c1.3-3.1,3.8-6.2,3.6-9.1
			c-0.2-2.4-3.7-4.6-5.8-6.8c-1.9,2.7-5.1,5.3-5.4,8.2C1170.4,275.2,1173.5,277.9,1175.1,280.5z"/>
		<path class="st11" d="M1348.4,273.9c-4.2,3-8,7.7-12.7,8.7c-7,1.5-10.2-3.7-10.6-9.9c-0.4-6.6,2.8-12.4,10-11.9
			c4.6,0.3,8.8,5.4,13.2,8.4C1348.3,270.8,1348.4,272.3,1348.4,273.9z M1335,283.5c3.5-5.6,6.6-8.3,6.3-10.8
			c-0.3-2.9-3.4-5.5-5.3-8.2c-2.1,2.2-5.7,4.4-5.9,6.8C1329.9,274.3,1332.4,277.4,1335,283.5z"/>
		<path class="st10" d="M1068.5,193c0-11.3,0-22.6,0-33.9c6.2-0.7,12.2-1.4,18.3-2c0.9,0.8,1.8,1.7,2.6,2.5
			c-18.6,1.4-15.1,13-15.4,23c-0.1,3.7-1,7.4-1.5,11.1C1071.2,193.4,1069.9,193.2,1068.5,193z"/>
		<path class="st12" d="M545.5,267.5c-3.6-1-7.1-2-11.9-3.4c1.1,8.6,20.8,5.5,10.4,17c-4.1,4.5-11.7,3.4-16-4.1
			c4.9,0.8,9,1.6,14.7,2.5c-5.5-5.9-9.4-10.1-13.3-14.3c2.6-1.6,5.2-4.7,7.6-4.6c3.4,0.2,6.7,2.7,10.1,4.2
			C546.6,265.8,546,266.7,545.5,267.5z"/>
		<path class="st7" d="M1089.6,267.5c-3.3-1.1-6.6-2.2-9.9-3.3c-0.5,0.8-0.9,1.6-1.4,2.4c1.6,1.2,3,3,4.9,3.6c5,1.6,11.3,3.3,7,9
			c-1.9,2.5-9.1,1.9-14,2.1c-1,0-2.1-2.3-3.6-4.1c5,0.8,9.1,1.4,14.4,2.2c-5.2-5.8-9-10-12.8-14.3c2.6-1.6,5.2-4.6,7.6-4.4
			c3.3,0.2,6.5,2.8,9.7,4.4C1091,265.9,1090.3,266.7,1089.6,267.5z"/>
		<path class="st7" d="M815.8,277.3c4.1,0.6,8.3,1.2,13.5,2c-5.1-5.9-8.9-10.1-12.6-14.4c2.6-1.5,5.3-4.4,7.8-4.2
			c3.3,0.3,6.3,2.9,9.5,4.6c-0.5,0.7-1,1.5-1.5,2.2c-3.5-1.1-7.1-2.1-10.6-3.2c-1.1,1.3-2.2,2.7-3.3,4c2,0.6,4.3,0.8,6,1.8
			c3.3,2,6.3,4.5,9.4,6.7c-1.7,1.9-3.5,5.5-5.2,5.5c-4.5,0-9-1.5-13.5-2.5C815.4,279,815.6,278.2,815.8,277.3z"/>
		<path class="st11" d="M628.8,264.2c-1.7,0.9-3.3,2.5-5,2.7c-3,0.3-6-0.3-9.1-0.5c0.1,3.8,0.2,7.6,0.3,11.5c3.1-0.3,6.2-0.6,9.2-1
			c0.9-0.1,1.8-0.5,3-0.8c-2.9,6.4-8.4,9.6-12.1,6.1c-3.6-3.4-6-9.8-5.3-14.4c0.4-2.8,7.4-5.3,11.9-6.8c1.8-0.6,4.8,2.2,7.3,3.4
			L628.8,264.2z"/>
		<path class="st10" d="M889,285.2c0-12.8,0-22.8,0-32.8c0.8-0.1,1.6-0.3,2.4-0.4c0.7,2.9,1.4,5.7,2,8.1c4.1,0.9,8.2,1.8,12.4,2.7
			c0.4,1.1,0.8,2.3,1.2,3.4C884.9,259.7,896.5,277.2,889,285.2z"/>
		<path class="st13" d="M1213.5,160.1c-2.3,0.5-4.5,1.1-7.9,1.8c3.8,9.8-6.8,22.5,8,30.1c-10.2,2.4-12.1,1.2-12.3-7.9
			c-0.1-5.4,0.5-10.9-0.2-16.2c-0.4-3.1-2.7-5.9-4.7-9.9c4.7,0,10.6,0,16.6,0C1213.1,158.7,1213.3,159.4,1213.5,160.1z"/>
		<path class="st10" d="M807.6,280.1c-14.2,5-19.4,2.3-19.9-8.7c-0.2-5.7,0-11.5,0-17.2c1.6,0,3.1,0,4.7,0c0,4,0,8,0,11.9
			C792.4,278.7,792.4,278.7,807.6,280.1z"/>
		<path class="st2" d="M1254.3,264.5c4.1,5.6,7.4,11.1-2.1,15.1c0.6-1.4,1.1-2.7,0.8-2c-4.1,0-8.1,0-12.1,0
			c0.1-3.8,0.1-7.6,0.2-11.4c4.2,0.6,8.3,1.2,12.9,1.8C1254.1,267.7,1254.2,266.1,1254.3,264.5z"/>
		<path class="st2" d="M511.6,264.5c4.1,5.6,7.4,11.1-2.1,15.1c0.6-1.4,1.1-2.7,0.8-2c-4.1,0-8.1,0-12.1,0c0.1-3.8,0.1-7.6,0.2-11.4
			c4.2,0.6,8.3,1.2,12.9,1.8C511.4,267.7,511.5,266.1,511.6,264.5z"/>
		<path class="st2" d="M1042.4,264.5c4.1,5.6,7.4,11.1-2.1,15.1c0.6-1.4,1.1-2.7,0.8-2c-4.1,0-8.1,0-12.1,0
			c0.1-3.8,0.1-7.6,0.2-11.4c4.2,0.6,8.3,1.2,12.9,1.8C1042.2,267.7,1042.3,266.1,1042.4,264.5z"/>
		<path class="st13" d="M1094.6,192.9c0-11.3,0-22.5,0-33.6c5.8-0.7,11.3-1.4,16.8-2.1C1088.5,163.2,1103.7,182.4,1094.6,192.9z"/>
		<path class="st12" d="M1254.3,264.5c-0.1,1.6-0.2,3.3-0.3,3.6c-4.6-0.7-8.8-1.2-12.9-1.8c-0.1,3.8-0.1,7.6-0.2,11.4
			c4,0,8,0,12.1,0c0.3-0.7-0.3,0.6-0.8,2c0,0-0.2,0.6-0.2,0.6c0,0-0.4,0.5-0.4,0.5c-5.5,3.7-11.9,4-14.4-1.7
			c-1.9-4.3-1.3-11.4,1.5-15.3C1242.8,257.7,1249.2,260.2,1254.3,264.5z"/>
		<path class="st12" d="M1042.4,264.5c-0.1,1.6-0.2,3.3-0.3,3.6c-4.6-0.7-8.8-1.2-12.9-1.8c-0.1,3.8-0.1,7.6-0.2,11.4
			c4,0,8,0,12.1,0c0.3-0.7-0.3,0.6-0.8,2c0,0-0.2,0.6-0.2,0.6c0,0-0.4,0.5-0.4,0.5c-5.5,3.7-11.9,4-14.4-1.7
			c-1.9-4.3-1.3-11.4,1.5-15.3C1030.9,257.7,1037.4,260.2,1042.4,264.5z"/>
		<path class="st12" d="M511.6,264.5c-0.1,1.6-0.2,3.3-0.3,3.6c-4.6-0.7-8.8-1.2-12.9-1.8c-0.1,3.8-0.1,7.6-0.2,11.4c4,0,8,0,12.1,0
			c0.3-0.7-0.3,0.6-0.8,2c0,0-0.2,0.6-0.2,0.6c0,0-0.4,0.5-0.4,0.5c-5.5,3.7-11.9,4-14.4-1.7c-1.9-4.3-1.3-11.4,1.5-15.3
			C500.1,257.7,506.6,260.2,511.6,264.5z"/>
		<path class="st12" d="M629,264.4c2-2.7,4-5.3,6.6-8.7c2.3,2.3,4.5,4.4,4.7,4.6c0,8.5,0,14.9,0,21.4c-6.1,0.6-5.8,0.5-6.8-7.6
			c-0.4-3.4-3-6.6-4.6-9.9C628.8,264.2,629,264.4,629,264.4z"/>
		<path class="st12" d="M880.1,256.4c0,8.3,0,16.7,0,26c-0.1,0-4.2-0.7-4.2-1.5c-0.5-8.2-6.7-16.6-0.6-24.6
			C876.9,256.3,878.5,256.4,880.1,256.4z"/>
		<path class="st12" d="M993.9,263.7c0.6-1.1,1.3-2.1,1.9-3.2c1.5-1.2,2.9-2.5,4.4-3.7c0.2,0.8,0.5,1.6,0.7,2.4
			c0.6,0.5,1.2,1.1,1.8,1.6c0.6,1,1.2,2,1.9,3c-6,6.1-3.9,12,0.6,17.8c-0.8,0.7-1.6,1.3-2.3,2c-2-2.5-4.8-4.8-6-7.6
			C995.2,272.1,994.8,267.8,993.9,263.7z"/>
		<path class="st12" d="M1262,261.3c3.1-0.1,6.5-0.3,8.2-0.4c-2.4,7.3-4.6,14.4-6.9,21.4c-0.4,0.1-0.8,0.2-1.2,0.2
			C1262,275.9,1262,269.1,1262,261.3z"/>
		<path class="st8" d="M1312.7,282.6c0-7,0-14.1,0-21.6c3.5,0,7,0,8.8,0c-2.3,7.2-4.6,14.4-6.8,21.5
			C1314,282.5,1313.3,282.6,1312.7,282.6z"/>
		<path class="st7" d="M1004.5,263.8c-0.6-1-1.2-2-1.9-3c3.5-0.9,7.1-1.8,12.2-3.1c0.5,0.5,2.4,2.5,4.4,4.6
			c-8.9,6.6-7.9,13.2,0.7,20c-9.6,1.8-8.8-3.9-8.9-8.9C1010.9,269,1013,263.3,1004.5,263.8z"/>
		<path class="st13" d="M822,192.9c0-11.4,0-22.9,0-34.3c0.8,0,1.6,0,2.4,0c0,11.4,0,22.9,0,34.3C823.6,192.9,822.8,192.9,822,192.9
			z"/>
		<path class="st12" d="M1159.4,252.5c0,9.9,0,19.9,0,29.8c-0.7,0-1.4,0.1-2.1,0.1c0-9.9,0-19.9,0-29.8
			C1158,252.6,1158.7,252.6,1159.4,252.5z"/>
		<path class="st10" d="M732.2,282.4c0-9.9,0-19.9,0-29.8c0.8,0,1.6,0,2.3-0.1c0,9.9,0,19.9,0,29.8
			C733.7,282.3,732.9,282.3,732.2,282.4z"/>
		<path class="st10" d="M577.2,282.4c0-9.9,0-19.9,0-29.8c0.7-0.1,1.4-0.1,2-0.2c0,9.9,0,19.9,0,29.8
			C578.5,282.3,577.9,282.3,577.2,282.4z"/>
		<path class="st10" d="M490.2,313.7c0,9.9,0,19.8,0,29.7c-0.8,0-1.6,0-2.3,0c0-9.9,0-19.8,0-29.8
			C488.7,313.6,489.4,313.6,490.2,313.7z"/>
		<path class="st12" d="M548.3,193c-0.8-2.2-2.3-4.4-2.4-6.6c-0.2-12.3-0.2-24.6,0-37c0-2.2,1.5-4.4,2.4-6.6
			C548.3,159.5,548.3,176.2,548.3,193z"/>
		<path class="st13" d="M548.3,193c0-16.7,0-33.5,0-50.2c0.8,9.7,2.1,19.4,2.2,29.2C550.6,178.9,549.1,185.9,548.3,193z"/>
		<path class="st14" d="M415,1021c0,1.4,0,2.8,0,4.2c-1.5,1.3-2.9,2.6-4.4,3.9C412.1,1026.4,413.6,1023.7,415,1021z"/>
		<path class="st14" d="M1456.9,1027.1c0-2,0-4,0-6c1.4,2.7,2.9,5.4,4.3,8.1C1459.8,1028.4,1458.4,1027.7,1456.9,1027.1z"/>
		<path class="st6" d="M395.4,1019c1.4,1.4,2.9,2.7,4.3,4.1C398.3,1021.7,396.8,1020.3,395.4,1019z"/>
		<path class="st7" d="M1000.9,259.2c-0.2-0.8-0.5-1.6-0.7-2.4c0.3,0.5,0.8,1,1,1.5C1001.3,258.5,1001,258.9,1000.9,259.2z"/>
		<path class="st4" d="M1476.6,65.1c-0.7,0-1.4,0-2.2,0C1475.1,65.1,1475.9,65.1,1476.6,65.1z"/>
		<path class="st4" d="M397.5,65.1c-0.7,0-1.4,0-2.2,0C396.1,65.1,396.8,65.1,397.5,65.1z"/>
		<path class="st2" d="M508.9,280.6c0,0,0.4-0.5,0.4-0.5c0.3,0.4,0.6,0.8,0.9,1.2C509.8,281.1,509.3,280.8,508.9,280.6z"/>
		<path class="st2" d="M1251.6,280.6c0,0,0.4-0.5,0.4-0.5c0.3,0.4,0.6,0.8,0.9,1.2C1252.4,281.1,1252,280.8,1251.6,280.6z"/>
		<path class="st2" d="M1039.7,280.6c0,0,0.4-0.5,0.4-0.5c0.3,0.4,0.6,0.8,0.9,1.2C1040.6,281.1,1040.1,280.8,1039.7,280.6z"/>
		<path class="st15" d="M1353.1,944.9c-6.9-1-13.8-3-20.7-2.9c-9.4,0.3-12.4-3.3-11.2-11.4c0.3-2.3,0.1-4.7,0.1-9.2
			c20.3,8,39.4,15.5,61.4,24.2c-21.7,8.7-40.7,16.3-60.1,24c-0.7-2-1.1-2.9-1.3-3.8c-1.7-10.4-0.1-17.9,14.4-16.8
			c5.7,0.4,11.6-1.5,17.4-2.4C1353.1,946.1,1353.1,945.5,1353.1,944.9z"/>
		<path class="st16" d="M807,960.5c-3.5-4.4-6.9-8.7-11.9-15c-1.8,6.5-2.9,10.3-4.1,14.8c-3.9-4.5-6.6-25.4-3.3-26.6
			c4.9-1.9,11.1-2.3,16.3-1.4c2.5,0.4,6.5,7,5.7,8c-5.2,6.4-3.7,12.4,0.6,18.8C809.1,959.6,808,960,807,960.5z M796.1,932.9
			c-0.8,0.6-1.7,1.1-2.5,1.7c0,3.4,0,6.8,0,13.7c4.8-4,7.5-6.3,10.1-8.5C801.2,937.5,798.7,935.2,796.1,932.9z"/>
		<path class="st16" d="M779.9,947.4c-0.4,5.7-1.2,12.7-12,12.7c-8.7,0-14.1-5.3-14.1-14.3c0-8.2,6.2-15.6,13.5-15.9
			C774.8,929.6,779.9,936,779.9,947.4z M756.4,946c4.7,4.2,7.9,7.1,11.1,10.1c2.6-3.3,6.6-6.3,7.5-10c1.3-5.5-1.1-11.7-8.3-11.3
			C763.7,934.9,761,940.7,756.4,946z"/>
		<path class="st16" d="M1031.6,959.3c-8.4,0-14.6,0-21.6,0c0-9,0-17.7,0-27c6.7,0,13,0,21.3,0c-6.4,2.9-11,5-15.5,7
			c3.7,2.2,7.4,4.3,10.8,6.3c-3.2,1.7-7,3.8-10.8,5.9C1020.2,953.8,1024.7,956,1031.6,959.3z"/>
		<path class="st16" d="M747.2,952.3c-1.2,6.9-3.4,8.6-11.9,7.8c-9.4-0.9-11.6-7.1-11.9-14.3c-0.3-8.3,6.4-16.3,13.6-15.7
			c6.1,0.5,11.8,2.8,11.5,10.9c-6.4-0.7-10.6-13.1-16.8-3.4c-2.6,4.1,0.3,11.2,0.7,17C737.1,953.8,741.9,953.1,747.2,952.3z"/>
		<path class="st16" d="M849.6,931.9c0,5.4-0.7,10.9,0.3,16.1c0.5,2.9,3.9,5.3,5.9,7.9c2.3-2.7,6-5.1,6.7-8.2
			c1.1-4.9,0.3-10.1,2.4-15.1c1.2,8.7,6.6,18.3-2.1,25.4c-2.9,2.4-12.1,2.3-14.7-0.1c-8.1-7.3-4.4-17-3.7-25.8
			C846,932.1,847.8,932,849.6,931.9z"/>
		<path class="st16" d="M881.5,950.6c-1.1,3.2-2.1,6.2-3.1,9.2c-0.9,0-1.8-0.1-2.7-0.1c0-8.8,0-17.5,0-26.6
			c11.5-3.4,20.1-1.9,21.5,4.7C899.9,949.8,888.8,948.5,881.5,950.6z M885.9,948.4c3.4-4,7.2-6.7,6.8-8.5c-0.6-2.4-4.5-4-7-6
			c-1.9,2.2-4.8,4.2-5.2,6.6C880.2,942.2,883.1,944.5,885.9,948.4z"/>
		<path class="st16" d="M818.3,931.6c4,0,8.8-1.2,12.2,0.3c3.4,1.6,7.3,5.7,7.6,9c0.5,5.8-1.5,11.9-2.5,17.9c-3-3.1-7-7.3-12.6-13.2
			c-1.2,6.4-1.9,9.9-2.6,13.3c-0.7,0-1.4,0-2.1,0C818.3,950.2,818.3,941.5,818.3,931.6z M821.8,944.2c0.9,0.9,1.8,1.7,2.7,2.6
			c3-2.4,6.1-4.8,9.1-7.2c-3.3-2.2-6.6-4.4-11.9-7.8C821.8,938.4,821.8,941.3,821.8,944.2z"/>
		<path class="st16" d="M962,947c-3.4,0.5-6.9,1-10.8,1.6c-0.9,3.7-1.7,7.3-2.7,11.6c-4-4-7.2-24.8-3.8-26.2
			c5.7-2.3,12.6-2.2,19-3.2c0.2,1.1,0.4,2.2,0.6,3.3c-2.3,0.4-4.8,0.5-7,1.4c-2.5,1-4.7,2.7-7,4.2c2.4,1.3,4.7,2.8,7.2,4
			c1.4,0.7,3.1,0.8,4.7,1.2C962.1,945.5,962.1,946.3,962,947z"/>
		<path class="st16" d="M924.8,932.2c-18.1,4.4-4.2,19.5-11.4,27c-7.7-7.4,6.2-21.9-9.9-27C910.6,932.2,917.7,932.2,924.8,932.2z"/>
		<path class="st16" d="M989.1,932.6c0,7.2,0,14.3,0,22.2c5.5,0.7,9.9,1.3,14.3,1.9c0,0.9,0.1,1.7,0.1,2.6
			c-5.6,0.2-11.3,0.5-17.6,0.7c0-10,0-18.7,0-27.4C987,932.7,988,932.7,989.1,932.6z"/>
		<path class="st16" d="M972.7,958.8c0-8.7,0-17.4,0-26.1c0.7,0,1.5,0,2.2-0.1c0,8.7,0,17.4,0,26.1
			C974.2,958.8,973.4,958.8,972.7,958.8z"/>
		<path class="st17" d="M469.6,555.6c3.3-0.1,6.5-0.3,9.8-0.3c304.4,0,608.8,0,913.1,0c3.3,0,6.5,0.2,9.8,0.3c0,1.2,0,2.5,0,3.7
			c-5.1,0-10.2,0-15.3,0c-300.7,0-601.5,0-902.2,0c-5.1,0-10.2,0-15.3,0C469.6,558.1,469.6,556.8,469.6,555.6z"/>
		<path class="st18" d="M559.1,479.3c0-2.4-0.4-4.8,0.1-7.1c1.2-6.3,0.6-14.5,4.6-18.2c5.7-5.1,24.8,0.5,31.8,5.5
			c16.8,12,8.1,28.5,9.4,43.2c0.1,1.2-4.7,4-7.3,4.1c-10.2,0.5-20.4,0.2-30.6,0.2c-6,0-8.3-3-8-8.4
			C559.3,492.2,559.1,485.7,559.1,479.3z M597.1,471.6c-3.4-3.9-7.1-8.2-11.2-13c0,4.8,0,8.7,0,13
			C590.6,471.6,594.8,471.6,597.1,471.6z"/>
		<path class="st19" d="M456.5,553.2c-1.4-1.9-4.1-3.8-4.1-5.8c-1-30.6-1.9-61.2-2.2-91.8c-0.1-11.7,1-23.4,2.4-35.1
			c0.4-3.4,3.8-6.5,5.8-9.7c0.1,43.7,0.2,87.3,0.4,131c0,3.7,0.4,7.4,0.6,11.1C458.4,553.1,457.4,553.2,456.5,553.2z"/>
		<path class="st19" d="M1413.6,410.9c2,3.6,5.7,7.1,5.9,10.7c1.2,29.2,2.1,58.5,2.3,87.7c0.1,8.7-2.8,17.5-3.5,26.3
			c-0.4,4.6,1.2,9.2,1.2,13.9c0,1.3-2.6,2.5-4,3.8c-0.9-0.1-1.9-0.2-2.8-0.2c0.2-38.6,0.5-77.2,0.7-115.8
			C1413.4,428.4,1413.5,419.7,1413.6,410.9z"/>
		<path class="st20" d="M1088.2,496.9c-3.9-7.9-6.6-13.6-9.4-19.2c-0.7,0-1.3,0-2,0c0,5.5,0,10.9,0,16.4c-1,0-2,0-3-0.1
			c0-9.2,0-18.5,0-28.9c10.6,3.6,7.8,15.1,15.1,20.9c3.4-7.3,6.8-14.4,10.1-21.5c1.3,0.4,2.6,0.9,3.8,1.3c0,9.4,0,18.9,0,28.3
			c-0.9,0.1-1.8,0.1-2.7,0.2c-0.5-5.1-1-10.2-1.6-17.5C1094.8,483.9,1092.1,489.3,1088.2,496.9z"/>
		<path class="st21" d="M842.5,486.1c4.2-7.7,8-14.6,11.8-21.5c1.1,0.4,2.2,0.9,3.3,1.3c0,9.3,0,18.6,0,27.9
			c-0.9,0.1-1.8,0.2-2.7,0.2c-0.5-5.5-1-11-1.7-18.2c-3.6,7.1-6.6,12.9-10.9,21.2c-3.6-7.6-6.1-12.9-9.8-20.8
			c-0.7,7.8-1.2,12.7-1.6,17.7c-0.8,0-1.7,0-2.5,0c0-9.3,0-18.6,0-27.9c0.9-0.5,1.7-0.9,2.6-1.4
			C834.7,471.6,838.4,478.6,842.5,486.1z"/>
		<path class="st21" d="M1246.2,494.4c-3.9-4.4-7.7-8.8-13.3-15.1c-1.4,7.4-2,11.1-2.7,14.8c-0.8,0-1.5-0.1-2.3-0.1
			c0-9.2,0-18.4,0-29.8c6.5,1.7,13.6,2.2,18.6,5.5c2,1.3-0.4,8.6-3,13.1c1.8,3.6,3.6,7.2,5.5,10.9
			C1248,493.9,1247.1,494.2,1246.2,494.4z M1231.9,478.9c1,0.7,2,1.5,3,2.2c2.8-2.5,5.6-5.1,8.4-7.6c-3.2-2-6.3-4-11.3-7.2
			C1231.9,472.7,1231.9,475.8,1231.9,478.9z"/>
		<path class="st20" d="M819.6,480.6c-0.3,6.4-1.8,13.3-12.1,13.9c-8.4,0.4-13.1-4.5-13.4-13.8c-0.3-9.8,4.4-15.9,12.7-15.7
			C816.7,465.2,819.4,471.5,819.6,480.6z M818.6,479.6c-5.1-5-8.1-10.7-11.6-11c-7.4-0.4-8.3,5.9-8.2,11.6
			c0.1,5.4,1.3,11.3,8.3,10.2C810.8,489.9,813.6,484.6,818.6,479.6z"/>
		<path class="st20" d="M931.4,480.1c-0.1,9.3-4.6,14.6-12.8,14.4c-10.2-0.3-12.5-6.6-12.5-14.5c-0.1-9.9,4.8-15.6,13.2-15
			C929.4,465.6,931,472.5,931.4,480.1z M930.6,480.6c-5.4-5.6-8.8-9-12.2-12.5c-2.6,3.8-7.2,7.6-7.3,11.4c-0.1,3.7,4.5,7.5,7.1,11.3
			C921.6,488.1,925,485.3,930.6,480.6z"/>
		<path class="st20" d="M1039.8,482c-0.2-11.3,4.8-17.4,12.9-17.1c9.9,0.3,12.4,6.9,12.8,14.5c0.6,9.2-4.9,15.3-13.1,15.1
			C1042.4,494.3,1040.4,487.7,1039.8,482z M1064.9,480.3c-5.5-5.3-9.1-8.7-12.6-12.1c-2.7,3.8-7.4,7.7-7.4,11.5
			c0,3.7,4.8,7.5,7.5,11.3C1055.8,488,1059.3,485.1,1064.9,480.3z"/>
		<path class="st21" d="M1220,493.9c-6,0-12,0-18.9,0c0-9.2,0-18.4,0-28c6.4,0,12.5,0,18.5,0c0.1,0.8,0.2,1.5,0.3,2.3
			c-3.5,0.3-7.2-0.2-10.3,1c-2.3,0.9-3.7,3.9-6.7,7.4c6.7,0.8,10.7,1.3,16,2c-4.7,4.5-17.6-1-12.7,11.3c4.4,0.4,9.1,0.9,13.9,1.4
			C1220.1,492.1,1220.1,493,1220,493.9z"/>
		<path class="st20" d="M960,466c0,7.6,0.8,15.4-0.5,22.8c-0.4,2.3-6.5,5.3-10.1,5.3c-3.5,0-9.5-2.8-10.1-5.2
			c-1.7-7.4-1.4-15.3-1.8-23c1.6,0,3.2-0.1,4.8-0.1c0,5.4-0.9,11,0.3,16.2c0.8,3.3,4.7,6,7.2,9c2.2-2.9,5.6-5.6,6.3-8.8
			c1.1-5.2,0.3-10.8,0.3-16.2C957.7,465.9,958.8,466,960,466z"/>
		<path class="st20" d="M1144.5,465.8c0.3,2.5,0.4,5,1,7.4c1.6,6.1-4.5,17.1,6.7,17.2c12.6,0.1,5.3-11.4,7.3-17.7
			c0.7-2.1,0.6-4.5,0.9-7.4c5.1,6.6,5.6,22.7,0.5,26.1c-3.1,2.1-8.3,3.2-12,2.5c-3-0.6-6.9-4.4-7.4-7.3c-1.1-6.7-0.3-13.7-0.3-20.5
			C1142.4,466,1143.5,465.9,1144.5,465.8z"/>
		<path class="st20" d="M1032.3,475.2c-5.3-3.3-10.5-12.6-16-3.5c-2.6,4.4,0.3,11.7,0.8,17.7c4.8-0.8,9.5-1.6,16.8-2.8
			c-3.3,2.7-6.1,6.7-9.7,7.5c-8.8,2-13.5-2.9-14.9-10.7c-1.7-9.7,2.6-17.1,10.5-18.3C1027.4,463.9,1030.7,466.4,1032.3,475.2z"/>
		<path class="st22" d="M989.3,494.6c-4.1-4.5-8.2-8.9-14-15.2c-1.2,7.2-1.9,10.9-2.5,14.6c-0.8-0.1-1.5-0.1-2.3-0.2
			c0-9,0-18,0-28.2c3.9,0,8.9-1.3,12.1,0.4c3.5,1.8,8.2,8.6,7.5,9.4c-6,6.6-2.1,12.2,1.6,18C990.9,493.8,990.1,494.2,989.3,494.6z
			 M974.3,478.5c0.9,0.9,1.8,1.8,2.7,2.8c3-2.7,6.1-5.4,9.1-8.1c-3.4-1.9-6.9-3.7-11.9-6.4C974.3,472.6,974.3,475.6,974.3,478.5z"/>
		<path class="st22" d="M766.8,493.7c0-9,0-17.9,0-28c4.7,0,9.9-1.3,13.6,0.4c3.2,1.4,7.5,8,6.7,9c-5.5,6.7-2.4,12.6-0.8,19.6
			c-4-4.5-8.1-9-13.7-15.4c-1.6,7.1-2.4,11-3.3,14.9C768.4,494,767.6,493.9,766.8,493.7z M771.3,479.2c0.8,0.7,1.6,1.4,2.4,2
			c3.1-2.6,6.3-5.2,9.4-7.8c-3.4-2-6.7-3.9-11.8-6.9C771.3,472.7,771.3,475.9,771.3,479.2z"/>
		<path class="st20" d="M1113.3,494.2c0-9,0-18,0-27.2c12.2-3.2,19.5-1.6,21.4,5.1c1.8,6.7-2,9.5-17.1,12.2c-0.7,3.2-1.4,6.6-2.1,10
			C1114.8,494.2,1114.1,494.2,1113.3,494.2z M1117.3,466c0,6.9,0,10.2,0,13.6c0.9,0.7,1.7,1.4,2.6,2.2c3.5-2.6,7-5.3,10.5-7.9
			C1126.6,471.6,1122.9,469.3,1117.3,466z"/>
		<path class="st20" d="M880.5,464.9c2.7,4,5.4,7.9,8.6,12.5c3.6-4.4,6.9-8.4,10.1-12.3c0.4,0.4,0.8,0.8,1.2,1.1
			c-3.7,9.3-7.4,18.6-11,27.7c-3.6-9.1-7.3-18.4-11-27.7C879,465.9,879.7,465.4,880.5,464.9z"/>
		<path class="st20" d="M742,466.2c5.9,0,11.7,0,18.1,0c-3.9,5.5-18.4-2.9-14.3,11c4,0.5,7.9,1.1,11.9,1.6c0.1,0.7,0.1,1.5,0.2,2.2
			c-3.9,0.6-7.7,1.1-12.1,1.8c-0.5,3.7-1.1,7.4-1.6,11.2c-0.7,0-1.5,0-2.2,0.1C742,485,742,475.9,742,466.2z"/>
		<path class="st20" d="M1180.6,470.1c-4.4-0.9-7.1-1.5-9.7-2c0-0.5,0-1,0-1.5c7.5,0,14.9,0,22.4,0c0.1,0.4,0.2,0.7,0.3,1.1
			c-2.9,0.7-5.8,1.5-10.1,2.6c0,7.7,0,15.7,0,23.7c-1,0-1.9,0-2.9,0C1180.6,486.3,1180.6,478.6,1180.6,470.1z"/>
		<path class="st23" d="M1402.3,559.3c0-1.3,0-2.5,0-3.7c2.8-0.3,5.7-0.6,8.5-0.9c-0.7,1.6-1.3,3.1-2,4.7
			C1406.7,559.3,1404.5,559.3,1402.3,559.3z"/>
		<path class="st23" d="M469.6,555.6c0,1.3,0,2.5,0,3.8c-2.9-0.7-5.8-1.4-8.7-2.1c0.1-0.9,0.2-1.7,0.2-2.6
			C464,555,466.8,555.3,469.6,555.6z"/>
		<path class="st14" d="M1408.9,559.3c0.7-1.6,1.3-3.1,2-4.7c0.6-0.5,1.2-1.1,1.8-1.6c0.9,0.1,1.9,0.2,2.8,0.2c0,1.4,0,2.7,0,4.1
			C1413.2,558,1411.1,558.6,1408.9,559.3z"/>
		<path class="st14" d="M461.1,554.7c-0.1,0.9-0.2,1.7-0.2,2.6c-1.5,0-2.9,0-4.4,0c0-1.4,0-2.7,0-4.1c0.9-0.1,1.9-0.1,2.8-0.2
			C459.9,553.6,460.5,554.1,461.1,554.7z"/>
		<path class="st3" d="M457,590.7c0.4-0.4,0.8-0.8,1.2-1.2c0-2.6,0.1-5.2,0.1-7.8c1-3.2,1.9-6.4,2.9-9.6c6.4-0.3,12.9-0.6,19.3-0.9
			c3.3,0.1,6.5,0.3,9.8,0.3c297.1,0,594.2,0,891.3,0c3.3,0,6.5-0.2,9.8-0.3c6.4,0.3,12.9,0.6,19.3,0.9c1,3.2,1.9,6.4,2.9,9.6
			c0,2.6,0.1,5.2,0.1,7.8c0.5,0.4,0.9,0.9,1.4,1.3c-0.6,1.1-1.8,2.3-1.8,3.4c-0.4,27.3-0.6,54.5-0.8,81.8c-3.1-0.9-6.3-2.6-9.4-2.6
			c-311.4-0.1-622.9-0.1-934.3,0c-3.1,0-6.3,1.7-9.4,2.6c-0.4-2.8-0.8-5.6-1.2-8.4c-0.4-0.4-0.8-0.8-1.2-1.2
			c0.4-1.8,0.9-3.5,1.3-5.3c0-3.4,0-6.8,0-10.2c0-2.7,0-5.5,0-8.2c0.1-6.3,0.6-12.6,0.2-18.9c-0.3-3.8-2-7.4-3.1-11.1
			c0.3-1.9,0.5-3.8,0.8-5.7c0.2-0.7,0.4-1.4,0.6-2.2c0.5-2.9,1-5.8,1.5-8.8C457.9,594.2,457.5,592.4,457,590.7z M565.7,629.8
			c1.1,4.9,14.8,14.5,19,12.2c5.9-3.2,10.7-8.1,16-12.2l0.1-0.9c4.5-3.2,9-6.5,13.9-10c-3.8-3.2-7.4-6.3-11.2-9.6
			c4-3.4,7.6-6.4,11-9.2c-10.8-10.3-21.3-14-31.7-1.6c-14.6-11.6-14.8-11.6-30.7,1.8c3.5,3,7.1,6,10.8,9.2
			c-4.2,3.4-7.6,6.3-11.2,9.3c4.9,3.6,9.4,6.8,13.9,10L565.7,629.8z M927.4,627.4c-7.9-4.7-4.4-17.1-15.1-19.8c0,10.3,0,19.5,0,28.8
			c0.9,0,1.7-0.1,2.6-0.1c0-5.4,0-10.8,0-16.3c0.7-0.1,1.3-0.3,2-0.4c2.9,5.8,5.9,11.6,9.9,19.5c3.8-7.5,6.5-12.9,10.1-20
			c0.8,7.4,1.3,12.5,1.8,17.5c0.9-0.1,1.8-0.1,2.7-0.2c0-9.5,0-18.9,0-28.4c-1.2-0.4-2.4-0.8-3.6-1.2
			C934.2,613.7,930.8,620.5,927.4,627.4z M1047.1,622.7c0.2-9.8-4.7-15.8-13-15.4c-9.9,0.6-12.4,6.9-12.4,14.9
			c0.1,7.9,2.2,14.3,12.4,14.7C1042.3,637.1,1047,632,1047.1,622.7z M878.1,619.7c-0.2,11.7,4.6,17.3,13,17.2
			c10.2-0.1,12.3-7,12.7-14.4c0.6-9.3-5-15.6-13.1-15.2C881,607.8,878.5,614.1,878.1,619.7z M851.1,608c0,10.5,0,19.5,0,28.5
			c0.8,0,1.6,0.1,2.4,0.1c0.6-3.7,1.2-7.4,2.3-14.3c6.1,5.8,10.6,10.2,13.4,12.9c0.8-5.7,2.6-11.4,1.9-16.7
			c-0.5-3.7-3.7-8.3-7.2-10.1C860.7,606.6,855.5,608,851.1,608z M963.9,608.4c0,9.8,0,18.7,0,27.6c13.2,3.3,22.2-1.4,22.6-13.7
			C987,611.2,980.4,607.2,963.9,608.4z M1138.1,622.5c-0.6-8-2.8-14.6-12.6-15.2c-8.1-0.5-13.5,5.6-13.5,14.9
			c0,9.4,5.1,15,13.6,14.6C1135.8,636.4,1137.2,629.5,1138.1,622.5z M1084.2,606.2c0,11.9,0,20.8,0,32.1c7.4-1.9,17.3-2.1,18.8-5.5
			c2.7-6.1,2.3-15-0.5-21.2C1101,608.2,1091.6,608.1,1084.2,606.2z M1146.1,607.4c-1.2,0.4-2.4,0.8-3.6,1.2
			c11.1,9.3,9.3,18.5-0.2,27.7c1.1,0.3,2.1,0.7,3.2,1c3.1-3.2,6.2-6.3,10.8-11c2.7,3.9,5.4,7.8,8,11.6c1.3-0.7,2.5-1.4,3.8-2.1
			c-10.8-8.8-10.5-18-0.5-27.7c-1.1-0.2-2.3-0.5-3.4-0.7c-3.1,3.1-6.2,6.3-9.3,9.4C1151.5,613.2,1148.8,610.3,1146.1,607.4z
			 M994.8,636.4c0.8,0.1,1.7,0.1,2.5,0.2c0.6-3.9,1.3-7.7,2.5-15.2c6.1,6.6,10.3,11.1,14.5,15.7c-1.7-8.5-1-8.4,0.6-18.8
			c0.5-3-3.8-8.2-7.2-9.8c-3.6-1.7-8.8-0.4-12.9-0.4C994.8,618.3,994.8,627.3,994.8,636.4z M1055.9,608c0,10.3,0,19.3,0,28.2
			c0.7,0,1.4,0,2.1,0c0.7-3.4,1.3-6.9,2-10.3c7-1.8,18.1,1,16.6-10C1075,603.5,1063.7,609.1,1055.9,608z M830.3,625.2
			c4-0.6,7.9-1.2,11.8-1.8c0-0.7-0.1-1.4-0.1-2.1c-3.9-0.6-7.9-1.2-11.6-1.7c-4.6-13.5,11.1-4.8,13.5-11c-6.5,0-12.4,0-17.8,0
			c0,9.7,0,18.6,0,27.6c0.8,0,1.5,0.1,2.3,0.1C829,632.6,829.6,629,830.3,625.2z"/>
		<path class="st3" d="M1410.7,690c1,2.5,1.9,5.1,2.9,7.6c-0.1,25.7-0.3,51.5-0.3,77.2c-0.1,16.3,0,16.4-17.1,16.4
			c-170,0-339.9,0-509.9,0c-137.2,0-274.4,0-411.6,0c-16,0-16,0-16-15.3c-0.1-26.1-0.2-52.2-0.3-78.3c1-2.5,1.9-5.1,2.9-7.6
			c4.3-0.3,8.5-0.6,12.8-0.9c3.3,0.1,6.5,0.3,9.8,0.3c301.5,0,602.9,0,904.4,0c3.3,0,6.5-0.2,9.8-0.3
			C1402.2,689.5,1406.5,689.8,1410.7,690z M573.9,744.4c-0.8-0.9-1.6-1.8-2.4-2.7c3.5-6.3,6.9-12.6,10.9-19.8
			c4.2,6,6.5,12.9,11.5,15.4c5.2,2.7,12.9,1.1,21,1.4c-5.1-8.1-9.1-14.5-13.1-20.9c-9.1-14.4-9.1-14.4-27.7-11.1
			c2.4,4.7,4.7,9.4,7.1,14c-0.9,0.4-1.8,0.8-2.6,1.2c-2.7-3.7-5.4-7.4-8.9-12.1c-6.4,10.1-14,18.8-17.3,28.7
			c-1.6,4.8,3.3,15.5,7.9,17.2c9,3.3,20,1.5,30,2.9c14.2,2.1,21.4-4.2,25-16.8c-5.5,0-10.9-0.3-16.2,0.1
			C590.6,742.5,582.3,743.5,573.9,744.4z M886.2,726.6c-1.1-0.6-2.2-1.1-3.4-1.7c-3.7,6.9-7.5,13.8-11.5,21.2
			c-4.3-7.6-8.1-14.3-11.9-21.1c-0.9,0.5-1.7,1-2.6,1.5c0,9.3,0,18.6,0,27.9c0.9,0.1,1.9,0.1,2.8,0.2c0.4-5.1,0.7-10.2,1.3-18.3
			c3.9,8.2,6.4,13.5,10.1,21.1c4.2-8.4,7.2-14.2,10.7-21.1c0.7,7.1,1.2,12.6,1.7,18.1c0.9-0.1,1.8-0.2,2.7-0.2
			C886.2,745,886.2,735.8,886.2,726.6z M931.9,733.1c-2.5-7.7-8.6-9-15.9-7.1c-7,1.8-10.3,11-7.6,20c2.5,8.3,9.2,10,17.1,8.6
			c8.7-1.6,7.3-7.7,6.4-13.8c-3.8,0-7.3,0-10.6,0c2.3,2.7,4.3,5,6.2,7.4c-2.1,1.1-4.8,3.5-6.1,2.9c-3.2-1.4-7.9-4-8-6.4
			c-0.3-4.9,2-10,3.2-15C921.3,730.8,925.9,731.8,931.9,733.1z M1136.7,740.1c5.9,6.1,10.2,10.6,14.5,15c-1.5-7.1-6.1-12.6,0.2-19.3
			c0.7-0.8-3.9-7.7-7.4-9.5c-3.3-1.7-8.3-0.4-12.1-0.4c0,10.1,0,19.3,0,28.4c0.8,0,1.5,0,2.3,0
			C1134.9,750.6,1135.5,746.8,1136.7,740.1z M1026.5,732.3c-2.3-7.1-8.6-8.6-15.6-6.3c-9.7,3.2-9.2,11.5-7.7,18.9
			c1.6,8,7.8,10.9,16.3,9.8c10.1-1.3,7.7-7.9,7-14.5c-3.5,0.2-6.8,0.3-9.8,0.4c2.1,2.9,3.8,5.3,5.5,7.7c-1.7,1-3.8,3.1-5,2.8
			c-3.1-1-8.1-2.9-8.3-4.7c-0.5-5.3,1-10.8,1.8-16.2C1015.7,730.9,1020.6,731.6,1026.5,732.3z M1100.7,723.5c0,12.3,0,21.5,0,34
			c8-3.5,16.1-4.8,19.4-9.2c2.9-3.9,2.8-12.9-0.2-16.6C1116.4,727.4,1108.2,726.5,1100.7,723.5z M823,740.7
			c0.2,9.4,4.6,14.4,12.9,14.2c10.4-0.3,12.3-7.2,12.3-14.7c0.1-7.7-2.3-14.4-12.4-14.8C827.4,724.9,822.8,730.6,823,740.7z
			 M996.5,741c-0.2-10.6-4.8-16.1-12.8-15.8c-10,0.4-12.5,6.8-12.7,14.7c-0.2,9.9,4.7,15.3,13.4,14.9
			C994.7,754.3,996.2,747.4,996.5,741z M1224.1,726.5c-8.4,0-14.5,0-21.1,0c0,9.3,0,18.3,0,27c6.7,0,13,0,19.2,0c0-0.7,0-1.3,0-2
			c-4.8-0.5-9.5-1-13.9-1.5c-4.8-12.5,8.8-6.2,12.3-11.3c-4.6-0.5-8.3-0.9-12-1.3C1208,731.6,1208,731.6,1224.1,726.5z M939.3,737.7
			c-0.2,11.7,4.6,17.3,13,17.2c10.2-0.2,12.3-7,12.7-14.4c0.6-9.3-5-15.6-13.1-15.2C942.2,725.8,939.7,732.1,939.3,737.7z
			 M800.1,744c0.8-0.9,1.6-1.7,2.4-2.6c4.4,4.5,8.7,9,13.1,13.5c0.9-0.2,1.9-0.5,2.8-0.8c-5.7-6.2-7.3-12.2-2.3-18.9
			c0.8-1.1-3.7-7.5-6.9-8.9c-3.8-1.6-8.9-0.4-12.9-0.4c0,10.1,0,19.2,0,28.4c0.8,0,1.6,0,2.4,0C799.2,751,799.7,747.5,800.1,744z
			 M1183.7,746.3c-3.9-7.7-6.9-13.9-10-20.1c-1,0.4-2.1,0.9-3.1,1.3c3.9,9.3,7.7,18.5,11.6,27.8c1.2-0.2,2.3-0.5,3.5-0.7
			c3.7-9.3,7.3-18.6,11-27.9c-1.2-0.5-2.4-0.9-3.5-1.4C1190.2,731.9,1187.3,738.3,1183.7,746.3z M1080.3,728.3
			c-0.1-0.6-0.1-1.3-0.2-1.9c-6,0-12,0-18.4,0c0,9.5,0,18.4,0,27.4c6.6,0,12.7,0,18.8,0c0.1-0.7,0.1-1.4,0.2-2.2
			c-4.7-0.5-9.3-0.9-14.9-1.5c0.2-3,0.5-5.7,0.7-8.2c4.7-0.6,8.3-1.1,11.9-1.6c-0.1-0.6-0.1-1.2-0.2-1.7c-3.8-0.3-7.6-0.7-11.8-1.1
			c0-2.8,0-5.3,0-7.9C1071.4,729.2,1075.9,728.7,1080.3,728.3z M770.4,726.5c0,9.9,0,18.9,0,27.8c0.8,0,1.5,0,2.3,0
			c0.5-3.7,1.1-7.4,1.6-11.2c4.2-0.6,8.1-1.2,12.1-1.8c0-0.7,0-1.4,0-2.2c-3.9-0.6-7.9-1.2-11.9-1.7c-4.3-13.6,10.6-5.1,14-11
			C782.1,726.5,776.2,726.5,770.4,726.5z M1039.2,726.2c-1.1,0-2.1,0.1-3.2,0.1c0,9.2,0,18.4,0,27.3c6.4,0,12.4,0,18.3,0
			c0-0.7,0-1.3,0-2c-4.6-0.5-9.3-1-15.2-1.7C1039.2,741.7,1039.2,734,1039.2,726.2z M1163.1,726.4c-0.6,0-1.2,0-1.8,0.1
			c0,9.3,0,18.5,0,27.8c0.6-0.1,1.2-0.1,1.8-0.2C1163.1,744.9,1163.1,735.6,1163.1,726.4z"/>
		<path class="st19" d="M458.3,697.6c0.1,26.1,0.3,52.2,0.3,78.3c0.1,15.3,0,15.3,16,15.3c137.2,0,274.4,0,411.6,0
			c170,0,339.9,0,509.9,0c17.1,0,17,0,17.1-16.4c0.1-25.7,0.2-51.5,0.3-77.2c2,2.3,5.8,4.6,5.9,7c0.4,27.3,0.5,54.6,0.1,81.8
			c-0.2,9.7-8.9,16.3-20.9,16.8c-20.6,0.9-41.3,2-62,2c-277,0.1-554,0.1-830.9,0c-11.6,0-23.1-1-34.6-2.2
			c-12.3-1.3-18.5-8.3-19-19.7c-0.6-13.8-2-27.6-2-41.4c0-12.5,1-24.9,2.3-37.3C452.7,702.1,456.3,700,458.3,697.6z"/>
		<path class="st19" d="M1410.7,690c-4.3-0.3-8.5-0.6-12.8-0.9c-2.2-1.9-4.2-5.1-6.7-5.5c-5.7-0.8-11.6-0.3-17.4-0.3
			c3.5-1.3,6.9-3.3,10.5-3.9c9.3-1.5,18.8-2.4,28.1-3.5c0.3-27.3,0.5-54.5,0.8-81.8c0-1.1,1.2-2.3,1.8-3.4
			c2.1,16.1,10.5,31.5,6.7,48.2c-1,4.5-3.7,8.6-4.9,13c-1,3.5-2.7,8.3-1.1,10.6c6.1,8.3,1,14.1-3.2,20.6
			C1411.4,685.2,1411.3,687.8,1410.7,690z"/>
		<path class="st19" d="M474,689.2c-4.3,0.3-8.5,0.6-12.8,0.9c-2.4-5-4.5-10.2-7.2-15.1c-2.5-4.6-2.8-7.7,4.2-7.5
			c0.4,2.8,0.8,5.6,1.2,8.4c9.4,1.1,18.8,2,28.1,3.5c3.6,0.6,7,2.6,10.5,3.9c-5.8,0-11.7-0.5-17.4,0.3
			C478.2,684,476.2,687.2,474,689.2z"/>
		<path class="st19" d="M480.5,571.2c-6.4,0.3-12.9,0.6-19.3,0.9c-1.6-4.9-3.1-9.9-4.7-14.8c1.5,0,2.9,0,4.4,0
			c2.9,0.7,5.8,1.4,8.7,2.1c5.1,0,10.2,0,15.3,0c0,1.3,0,2.7,0,4C483.5,566,482,568.6,480.5,571.2z"/>
		<path class="st19" d="M456.2,606.8c-0.3,1.9-0.5,3.8-0.8,5.7c1,10,1.9,20,2.9,30c0,2.7,0,5.5,0,8.2c-0.6,0-1.3,0-1.9,0
			c-2.2-2-6.1-3.9-6.2-6c-0.6-10.8-0.6-21.6,0-32.4C450.4,610.5,454.2,608.7,456.2,606.8z"/>
		<path class="st19" d="M1410.7,572.1c-6.4-0.3-12.9-0.6-19.3-0.9c-1.5-2.6-2.9-5.2-4.4-7.8c0-1.3,0-2.7,0-4c5.1,0,10.2,0,15.3,0
			c2.2,0,4.4,0,6.5,0c2.2-0.7,4.4-1.4,6.5-2C1413.9,562.2,1412.3,567.2,1410.7,572.1z"/>
		<path class="st19" d="M458.3,581.7c-0.1,2.6-0.1,5.2-0.1,7.8c-1.9-1.3-3.9-2.5-5.8-3.8C454.4,584.3,456.3,583,458.3,581.7z"/>
		<path class="st19" d="M1413.8,589.4c0-2.6-0.1-5.2-0.1-7.8c2,1.3,4,2.6,6,4C1417.6,586.9,1415.7,588.2,1413.8,589.4z"/>
		<path class="st5" d="M456.5,650.9c0.6,0,1.3,0,1.9,0c0,3.4,0,6.8,0,10.2c-0.6,0-1.2,0-1.9,0C456.5,657.6,456.5,654.2,456.5,650.9z
			"/>
		<path class="st5" d="M458.3,595.9c-0.5,2.9-1,5.8-1.5,8.8c-0.1-2.9-0.2-5.8-0.3-8.8C457.1,595.9,457.7,595.9,458.3,595.9z"/>
		<path class="st19" d="M456.5,661c0.6,0,1.2,0,1.9,0c-0.4,1.8-0.9,3.5-1.3,5.3C456.8,664.5,456.7,662.8,456.5,661z"/>
		<path class="st19" d="M458.3,595.9c-0.6,0-1.2,0-1.9,0c0.2-1.7,0.4-3.5,0.5-5.2C457.5,592.4,457.9,594.2,458.3,595.9z"/>
		<path class="st2" d="M510.6,172.1c0.4-7.1,3.6-11.4,11.1-11.3c7.2,0.1,9.6,4.6,10,11.3C524.4,172.1,517.8,172.1,510.6,172.1z"/>
		<path class="st2" d="M586.6,172.2c-7.4,0-13.8,0-20.9,0c-0.8-6.9,2.7-10.8,9.8-11.3C583.5,160.3,585.7,165.3,586.6,172.2z"/>
		<path class="st2" d="M766.5,172.2c-7.1,0-13.8,0-21.1,0c-0.2-6.7,3.1-10.9,10.3-11.3C763.4,160.4,766.4,165,766.5,172.2z"/>
		<path class="st2" d="M856.3,172c1-6.8,4-11.2,11.5-11.3c7.3,0,9.6,4.6,10.5,11.3C870.8,172,863.9,172,856.3,172z"/>
		<path class="st4" d="M1055.6,175.5c-0.2,9.4-5.4,15.3-13,14.6c-9.7-0.9-11.9-7.4-11.9-15.1c0.1-8.9,5.3-14.8,12.9-14.2
			C1053.6,161.6,1055.1,168.5,1055.6,175.5z"/>
		<path class="st4" d="M1164.6,186.9c0.6-8.1,1.2-16.2,1.8-24.3c6-2.7,13.5-3.7,15.4,2.9c1.9,6.7,0.4,14.6-1.5,21.6
			C1180.1,188.2,1170.1,187.1,1164.6,186.9z"/>
		<path class="st2" d="M1353.6,272.3c2.8-3.3,4.6-5.5,6.5-7.8c2.3,2.4,6.3,4.8,6.3,7.3c0,2.7-3.7,5.4-5.8,8
			C1358.6,277.6,1356.6,275.5,1353.6,272.3z"/>
		<path class="st2" d="M957.1,263.6c1.5,2.5,4.5,5.2,4.2,7.5c-0.4,2.9-3.4,5.6-5.3,8.3c-1.8-2.1-4.8-4.1-5.1-6.4
			c-0.3-2.9,1.6-6.1,2.6-9.1C954.7,263.8,955.9,263.7,957.1,263.6z"/>
		<path class="st2" d="M687.9,272.2c-3.3,3.2-5.5,5.3-7.6,7.4c-1.9-2.4-5.6-5-5.4-7.2c0.2-2.7,3.7-5.2,5.8-7.8
			C682.7,266.7,684.8,268.8,687.9,272.2z"/>
		<path class="st2" d="M1303.9,272.5c-3.4,3-5.6,5-7.8,7c-1.9-2.5-5.4-5.1-5.2-7.4c0.3-2.7,3.8-5.1,6-7.6
			C1298.8,266.8,1300.8,269,1303.9,272.5z"/>
		<path class="st2" d="M1125.8,271.7c-3.7,3.4-6.1,5.6-8.6,7.9c-1.8-2.4-5.1-5-4.9-7.3c0.1-2.7,3.3-5.3,5.1-7.9
			C1119.7,266.4,1122,268.4,1125.8,271.7z"/>
		<path class="st4" d="M1175.1,280.5c-1.6-2.6-4.7-5.4-4.4-7.8c0.3-2.9,3.5-5.5,5.4-8.2c2,2.3,5.6,4.4,5.8,6.8
			c0.2,2.9-2.3,6.1-3.6,9.1C1177.2,280.5,1176.2,280.5,1175.1,280.5z"/>
		<path class="st4" d="M1335,283.5c-2.6-6.1-5.2-9.3-4.9-12.2c0.2-2.4,3.8-4.5,5.9-6.8c1.9,2.7,5.1,5.4,5.3,8.2
			C1341.6,275.2,1338.5,278,1335,283.5z"/>
		<path class="st14" d="M796.1,932.9c2.5,2.3,5.1,4.6,7.6,7c-2.7,2.2-5.3,4.4-10.1,8.5c0-7,0-10.4,0-13.7
			C794.4,934,795.3,933.4,796.1,932.9z"/>
		<path class="st2" d="M756.4,946c4.6-5.3,7.3-11,10.3-11.2c7.2-0.4,9.5,5.8,8.3,11.3c-0.8,3.7-4.9,6.7-7.5,10
			C764.3,953.1,761.1,950.2,756.4,946z"/>
		<path class="st14" d="M885.9,948.4c-2.8-3.9-5.7-6.2-5.4-7.9c0.4-2.4,3.4-4.4,5.2-6.6c2.5,2,6.4,3.6,7,6
			C893.1,941.7,889.3,944.4,885.9,948.4z"/>
		<path class="st14" d="M821.8,944.2c0-2.9,0-5.8,0-12.4c5.2,3.4,8.5,5.6,11.9,7.8c-3,2.4-6.1,4.8-9.1,7.2
			C823.6,945.9,822.7,945.1,821.8,944.2z"/>
		<path class="st23" d="M1387.1,559.4c0,1.3,0,2.7,0,4c-24.3,0.7-48.6,1.9-72.8,1.9c-252.1,0.1-504.3,0.1-756.4,0
			c-24.3,0-48.6-1.3-72.8-1.9c0-1.3,0-2.7,0-4C785.6,559.4,1086.3,559.4,1387.1,559.4z"/>
		<path class="st24" d="M597.1,471.6c-2.3,0-6.5,0-11.2,0c0-4.2,0-8.1,0-13C590,463.4,593.7,467.7,597.1,471.6z"/>
		<path class="st24" d="M1231.9,478.9c0-3.1,0-6.2,0-12.5c5,3.2,8.2,5.2,11.3,7.2c-2.8,2.5-5.6,5.1-8.4,7.6
			C1233.9,480.4,1232.9,479.6,1231.9,478.9z"/>
		<path class="st25" d="M818.6,479.6c-5,4.9-7.8,10.3-11.5,10.9c-7.1,1.1-8.2-4.9-8.3-10.2c-0.1-5.7,0.8-12,8.2-11.6
			C810.5,468.9,813.5,474.6,818.6,479.6z"/>
		<path class="st25" d="M930.6,480.6c-5.5,4.6-8.9,7.5-12.3,10.3c-2.6-3.8-7.1-7.6-7.1-11.3c0.1-3.8,4.7-7.6,7.3-11.4
			C921.8,471.6,925.1,475.1,930.6,480.6z"/>
		<path class="st24" d="M1064.9,480.3c-5.6,4.8-9.1,7.7-12.5,10.7c-2.7-3.8-7.5-7.5-7.5-11.3c0-3.9,4.8-7.7,7.4-11.5
			C1055.8,471.6,1059.3,475,1064.9,480.3z"/>
		<path class="st24" d="M974.3,478.5c0-3,0-5.9,0-11.8c5,2.7,8.4,4.6,11.9,6.4c-3,2.7-6.1,5.4-9.1,8.1
			C976.1,480.4,975.2,479.4,974.3,478.5z"/>
		<path class="st24" d="M771.3,479.2c0-3.2,0-6.4,0-12.7c5,2.9,8.4,4.9,11.8,6.9c-3.1,2.6-6.3,5.2-9.4,7.8
			C772.8,480.5,772.1,479.8,771.3,479.2z"/>
		<path class="st24" d="M1117.3,466c5.6,3.4,9.3,5.6,13.1,7.9c-3.5,2.6-7,5.3-10.5,7.9c-0.9-0.7-1.7-1.4-2.6-2.2
			C1117.3,476.2,1117.3,472.9,1117.3,466z"/>
		<path class="st26" d="M498.1,683.4c-3.5-1.3-6.9-3.3-10.5-3.9c-9.3-1.5-18.7-2.4-28.1-3.5c3.1-0.9,6.3-2.6,9.4-2.6
			c311.4-0.1,622.9-0.1,934.3,0c3.1,0,6.3,1.7,9.4,2.6c-9.4,1.1-18.8,2-28.1,3.5c-3.6,0.6-7,2.6-10.5,3.9
			C1081.9,683.4,790,683.4,498.1,683.4z"/>
		<path class="st14" d="M484.9,563.4c24.3,0.7,48.6,1.9,72.8,1.9c252.1,0.1,504.3,0.1,756.4,0c24.3,0,48.6-1.3,72.8-1.9
			c1.5,2.6,2.9,5.2,4.4,7.8c-3.3,0.1-6.5,0.3-9.8,0.3c-297.1,0-594.2,0-891.3,0c-3.3,0-6.5-0.2-9.8-0.3
			C482,568.6,483.5,566,484.9,563.4z"/>
		<path class="st27" d="M565.6,628.9c-4.5-3.2-9-6.5-13.9-10c3.6-3,7.1-5.9,11.2-9.3c-3.8-3.2-7.3-6.2-10.8-9.2
			c15.9-13.4,16.1-13.4,30.7-1.8c10.4-12.4,20.9-8.8,31.7,1.6c-3.4,2.8-7,5.8-11,9.2c3.8,3.2,7.4,6.3,11.2,9.6
			c-4.9,3.5-9.4,6.7-13.9,10c-3-0.2-6-0.3-9-0.5c0,0,0.2,0.2,0.2,0.2c-0.8-0.8-1.6-1.5-2.4-2.3l0.2,0.2c-0.8-0.8-1.6-1.5-2.4-2.3
			l0.3,0.2c0.2-2.5-0.6-6,0.8-7.2c3.7-3,8.3-5,12.9-7.6c-22.6-13.1-13.9-13.1-36.5,0c4.6,2.6,9.3,4.6,12.9,7.6
			c1.4,1.2,0.6,4.7,0.8,7.2l0.3-0.2c-0.8,0.8-1.6,1.5-2.4,2.3l0.2-0.2c-0.8,0.8-1.6,1.5-2.4,2.3l0.2-0.2
			C571.6,628.6,568.6,628.7,565.6,628.9z"/>
		<path class="st20" d="M927.4,627.4c3.5-6.9,6.9-13.7,10.3-20.5c1.2,0.4,2.4,0.8,3.6,1.2c0,9.5,0,18.9,0,28.4
			c-0.9,0.1-1.8,0.1-2.7,0.2c-0.5-5.1-1-10.1-1.8-17.5c-3.6,7.1-6.3,12.5-10.1,20c-4-7.9-6.9-13.7-9.9-19.5c-0.7,0.1-1.3,0.3-2,0.4
			c0,5.4,0,10.8,0,16.3c-0.9,0-1.7,0.1-2.6,0.1c0-9.2,0-18.5,0-28.8C923,610.3,919.4,622.7,927.4,627.4z"/>
		<path class="st20" d="M1047.1,622.7c-0.2,9.3-4.8,14.5-13,14.2c-10.2-0.4-12.3-6.8-12.4-14.7c-0.1-8,2.4-14.3,12.4-14.9
			C1042.4,606.8,1047.3,612.9,1047.1,622.7z M1046,622.6c-4.9-5.3-7.8-11.1-11.3-11.4c-7.4-0.8-8.5,5.5-8.4,11.3
			c0,5.4,1,11.3,8,10.5C1038,632.5,1041,627.3,1046,622.6z"/>
		<path class="st27" d="M600.7,629.9c-5.3,4.2-10.1,9-16,12.2c-4.2,2.3-17.9-7.3-19-12.2c3-0.5,5.9-1,8.9-1.5c0,0-0.2,0.2-0.2,0.2
			c0.8-0.8,1.6-1.5,2.4-2.3c0,0-0.2,0.2-0.2,0.2c0.8-0.8,1.6-1.5,2.4-2.3c0,0-0.3,0.2-0.3,0.2c3,0,6,0,9,0c0,0-0.3-0.2-0.3-0.2
			c0.8,0.8,1.6,1.5,2.4,2.3c0,0-0.2-0.2-0.2-0.2c0.8,0.8,1.6,1.5,2.4,2.3c0,0-0.2-0.2-0.2-0.2C594.8,628.9,597.8,629.4,600.7,629.9z
			"/>
		<path class="st20" d="M878.1,619.7c0.4-5.6,2.9-11.9,12.6-12.4c8.1-0.4,13.7,5.9,13.1,15.2c-0.4,7.4-2.5,14.2-12.7,14.4
			C882.8,637,878,631.4,878.1,619.7z M878.8,622c5.1,4.9,8,10.2,11.8,10.9c7.1,1.2,8.4-4.9,8.5-10.2c0.1-5.6-0.9-12.2-8.3-11.6
			C887.2,611.3,884,617,878.8,622z"/>
		<path class="st20" d="M851.1,608c4.4,0,9.5-1.4,12.8,0.4c3.5,1.8,6.7,6.4,7.2,10.1c0.7,5.3-1.1,11-1.9,16.7
			c-2.8-2.7-7.3-7-13.4-12.9c-1.1,6.9-1.7,10.6-2.3,14.3c-0.8,0-1.6-0.1-2.4-0.1C851.1,627.5,851.1,618.5,851.1,608z M854.9,623.6
			c4.8-2.1,8.4-3.3,11.6-5.3c0.7-0.5,0.1-4.8-0.9-5.1c-3.2-1.2-6.9-1.5-10.7-2.1C854.9,615.4,854.9,618.3,854.9,623.6z"/>
		<path class="st20" d="M963.9,608.4c16.5-1.2,23.1,2.8,22.6,13.9c-0.5,12.2-9.4,17-22.6,13.7C963.9,627.1,963.9,618.2,963.9,608.4z
			 M968.4,632.3c10.7,1.8,13.2-3.1,13-10.9c-0.2-7.8-4-11.1-13-9.5C968.4,618.6,968.4,625.2,968.4,632.3z"/>
		<path class="st20" d="M1138.1,622.5c-0.8,6.9-2.3,13.9-12.4,14.3c-8.4,0.4-13.6-5.2-13.6-14.6c0-9.3,5.3-15.4,13.5-14.9
			C1135.3,607.9,1137.5,614.5,1138.1,622.5z M1137,621.6c-5.3-4.8-8.7-7.9-12.1-11c-2.8,4.1-7.6,8.2-7.8,12.4
			c-0.1,3.4,5.5,6.9,8.5,10.4C1128.9,630,1132.1,626.7,1137,621.6z"/>
		<path class="st20" d="M1084.2,606.2c7.4,1.9,16.8,2.1,18.3,5.3c2.9,6.2,3.3,15.1,0.5,21.2c-1.5,3.4-11.5,3.6-18.8,5.5
			C1084.2,627,1084.2,618.1,1084.2,606.2z M1086.8,629.9c1.2,1.4,2.4,2.8,3.5,4.2c3.5-1.8,6.9-3.6,10.4-5.3
			c-2.4-1.9-5.2-5.5-7.1-5.1C1091,624.1,1089,627.6,1086.8,629.9z M1087,617.8c1.2,1.1,2.4,2.3,3.6,3.4c3.1-2.1,6.2-4.2,9.3-6.3
			c-2.2-1.3-5.3-4.2-6.4-3.7C1090.8,612.6,1089.1,615.5,1087,617.8z"/>
		<path class="st20" d="M1146.1,607.4c2.7,2.9,5.5,5.9,8.7,9.4c3.1-3.1,6.2-6.2,9.3-9.4c1.1,0.2,2.3,0.5,3.4,0.7
			c-10,9.6-10.2,18.9,0.5,27.7c-1.3,0.7-2.5,1.4-3.8,2.1c-2.6-3.9-5.3-7.7-8-11.6c-4.6,4.7-7.7,7.9-10.8,11c-1.1-0.3-2.1-0.7-3.2-1
			c9.5-9.1,11.3-18.3,0.2-27.7C1143.7,608.2,1144.9,607.8,1146.1,607.4z"/>
		<path class="st22" d="M994.8,636.4c0-9,0-18.1,0-28.3c4,0,9.3-1.3,12.9,0.4c3.5,1.7,7.7,6.8,7.2,9.8c-1.6,10.4-2.3,10.3-0.6,18.8
			c-4.2-4.5-8.4-9.1-14.5-15.7c-1.2,7.5-1.9,11.3-2.5,15.2C996.5,636.5,995.6,636.4,994.8,636.4z M998.7,621.2
			c1,0.8,1.9,1.7,2.9,2.5c3.1-2.7,6.2-5.4,9.4-8.1c-3.7-1.8-7.3-3.7-12.3-6.1C998.7,615.3,998.7,618.2,998.7,621.2z"/>
		<path class="st22" d="M1055.9,608c7.8,1.1,19.1-4.6,20.7,8c1.5,11.1-9.7,8.3-16.6,10c-0.7,3.4-1.3,6.8-2,10.3c-0.7,0-1.4,0-2.1,0
			C1055.9,627.3,1055.9,618.4,1055.9,608z M1057.4,620c1.4,1.3,2.8,2.6,4.1,3.9c3.7-2.4,7.3-4.8,11-7.2c-2.8-1.9-5.6-3.9-8.4-5.8
			C1061.9,613.9,1059.6,617,1057.4,620z"/>
		<path class="st21" d="M830.3,625.2c-0.7,3.8-1.3,7.4-1.9,11.1c-0.8,0-1.5-0.1-2.3-0.1c0-9,0-17.9,0-27.6c5.4,0,11.3,0,17.8,0
			c-2.5,6.2-18.1-2.5-13.5,11c3.7,0.6,7.6,1.1,11.6,1.7c0,0.7,0.1,1.4,0.1,2.1C838.2,624,834.3,624.6,830.3,625.2z"/>
		<path class="st5" d="M458.3,642.6c-1-10-1.9-20-2.9-30c1.1,3.7,2.9,7.4,3.1,11.1C459,630,458.5,636.3,458.3,642.6z"/>
		<path class="st24" d="M600.7,629.9c-3-0.5-5.9-1-8.9-1.5c3,0.2,6,0.3,9,0.5C600.8,628.9,600.7,629.9,600.7,629.9z"/>
		<path class="st24" d="M574.6,628.4c-3,0.5-5.9,1-8.9,1.5c0,0-0.1-0.9-0.1-0.9C568.6,628.7,571.6,628.6,574.6,628.4z"/>
		<path class="st14" d="M498.1,683.4c291.9,0,583.9,0,875.8,0c5.8,0,11.7-0.5,17.4,0.3c2.5,0.4,4.5,3.6,6.7,5.5
			c-3.3,0.1-6.5,0.3-9.8,0.3c-301.5,0-602.9,0-904.4,0c-3.3,0-6.5-0.2-9.8-0.3c2.2-1.9,4.2-5.1,6.7-5.5
			C486.3,682.8,492.2,683.4,498.1,683.4z"/>
		<path class="st27" d="M573.9,744.4c8.4-0.8,16.8-1.8,25.2-2.4c5.3-0.4,10.7-0.1,16.2-0.1c-3.6,12.7-10.8,18.9-25,16.8
			c-10-1.5-21,0.4-30-2.9c-4.6-1.7-9.5-12.4-7.9-17.2c3.3-9.9,10.9-18.6,17.3-28.7c3.5,4.7,6.2,8.4,8.9,12.1
			c0.9-0.4,1.8-0.8,2.6-1.2c-2.3-4.6-4.7-9.2-7.1-14c18.6-3.3,18.6-3.3,27.7,11.1c4,6.4,8,12.7,13.1,20.9c-8.2-0.4-15.9,1.2-21-1.4
			c-5-2.5-7.3-9.5-11.5-15.4c-4,7.3-7.5,13.5-10.9,19.8c-2.3,3.7-4.6,7.3-6.9,11c0.9,0.5,1.9,1,2.8,1.5
			C569.5,750.9,571.7,747.6,573.9,744.4z"/>
		<path class="st20" d="M886.2,726.6c0,9.2,0,18.4,0,27.6c-0.9,0.1-1.8,0.2-2.7,0.2c-0.5-5.5-1.1-11.1-1.7-18.1
			c-3.5,6.9-6.4,12.7-10.7,21.1c-3.6-7.6-6.2-12.9-10.1-21.1c-0.6,8.1-0.9,13.2-1.3,18.3c-0.9-0.1-1.9-0.1-2.8-0.2
			c0-9.3,0-18.6,0-27.9c0.9-0.5,1.7-1,2.6-1.5c3.8,6.7,7.6,13.4,11.9,21.1c4-7.4,7.7-14.3,11.5-21.2
			C883.9,725.5,885.1,726,886.2,726.6z"/>
		<path class="st21" d="M931.9,733.1c-5.9-1.3-10.6-2.3-15.2-3.3c-1.2,5-3.5,10-3.2,15c0.1,2.3,4.8,5,8,6.4c1.2,0.6,4-1.9,6.1-2.9
			c-2-2.4-4-4.7-6.2-7.4c3.3,0,6.7,0,10.6,0c0.9,6.1,2.4,12.2-6.4,13.8c-7.9,1.4-14.6-0.3-17.1-8.6c-2.7-9,0.5-18.1,7.6-20
			C923.3,724.1,929.3,725.4,931.9,733.1z"/>
		<path class="st21" d="M1136.7,740.1c-1.2,6.7-1.8,10.5-2.5,14.3c-0.8,0-1.5,0-2.3,0c0-9.2,0-18.3,0-28.4c3.7,0,8.8-1.3,12.1,0.4
			c3.5,1.8,8.1,8.7,7.4,9.5c-6.3,6.8-1.7,12.2-0.2,19.3C1146.9,750.6,1142.6,746.2,1136.7,740.1z M1138.7,727.6
			c-1,0.8-2,1.6-2.9,2.4c0,3.1,0,6.2,0,12.5c5.1-3.4,8.2-5.6,11.3-7.7C1144.3,732.4,1141.5,730,1138.7,727.6z"/>
		<path class="st20" d="M1026.5,732.3c-5.9-0.8-10.8-1.5-15.8-2.1c-0.7,5.4-2.2,10.9-1.8,16.2c0.2,1.9,5.1,3.8,8.3,4.7
			c1.2,0.4,3.3-1.8,5-2.8c-1.7-2.4-3.4-4.8-5.5-7.7c2.9-0.1,6.2-0.3,9.8-0.4c0.6,6.6,3,13.2-7,14.5c-8.5,1.1-14.7-1.8-16.3-9.8
			c-1.4-7.4-2-15.6,7.7-18.9C1017.9,723.8,1024.2,725.2,1026.5,732.3z"/>
		<path class="st21" d="M1100.7,723.5c7.6,2.9,15.7,3.9,19.2,8.1c3,3.7,3.1,12.8,0.2,16.6c-3.3,4.4-11.4,5.7-19.4,9.2
			C1100.7,745,1100.7,735.8,1100.7,723.5z M1105.1,750.4c10.9,1.4,13.6-3.7,13.1-11.7c-0.5-7.7-4.8-10.3-13.1-8.5
			C1105.1,736.9,1105.1,743.1,1105.1,750.4z"/>
		<path class="st20" d="M823,740.7c-0.2-10,4.4-15.8,12.8-15.4c10.1,0.4,12.5,7.1,12.4,14.8c0,7.6-1.9,14.5-12.3,14.7
			C827.6,755,823.2,750.1,823,740.7z M847.2,740c-5-5-8.1-10.7-11.5-10.9c-7.4-0.4-8.2,5.9-8.1,11.6c0.1,5.4,1.3,11.3,8.3,10.2
			C839.5,750.3,842.3,744.9,847.2,740z"/>
		<path class="st20" d="M996.5,741c-0.3,6.4-1.8,13.2-12,13.8c-8.7,0.5-13.5-5-13.4-14.9c0.1-7.9,2.7-14.3,12.7-14.7
			C991.7,724.9,996.3,730.5,996.5,741z M995.5,739.6c-5.1-4.8-8.4-10.5-11.8-10.6c-7.3-0.2-8.1,6.2-8,11.8c0.1,5.4,1.5,11.3,8.5,10
			C988,750.1,990.6,744.7,995.5,739.6z"/>
		<path class="st21" d="M1224.1,726.5c-16.1,5.1-16.1,5.1-15.5,10.9c3.7,0.4,7.4,0.8,12,1.3c-3.6,5.1-17.2-1.1-12.3,11.3
			c4.4,0.5,9.1,1,13.9,1.5c0,0.7,0,1.3,0,2c-6.2,0-12.5,0-19.2,0c0-8.8,0-17.8,0-27C1209.6,726.5,1215.8,726.5,1224.1,726.5z"/>
		<path class="st20" d="M939.3,737.7c0.4-5.6,2.9-11.9,12.6-12.4c8.1-0.4,13.7,5.9,13.1,15.2c-0.4,7.4-2.5,14.2-12.7,14.4
			C943.9,754.9,939.1,749.4,939.3,737.7z M964,740.4c-5-5.2-8-11-11.6-11.4c-7.3-0.7-9.7,5.7-8.3,11.2c1,4,5.3,7.4,8.1,11
			C955.6,748.2,958.9,745.1,964,740.4z"/>
		<path class="st22" d="M800.1,744c-0.4,3.5-0.9,6.9-1.3,10.4c-0.8,0-1.6,0-2.4,0c0-9.2,0-18.3,0-28.4c4,0,9.2-1.2,12.9,0.4
			c3.3,1.4,7.8,7.8,6.9,8.9c-5.1,6.7-3.5,12.6,2.3,18.9c-0.9,0.2-1.9,0.5-2.8,0.8c-4.4-4.5-8.7-9-13.1-13.5
			C801.7,742.3,800.9,743.2,800.1,744z M801.9,727.8c-0.8,0.9-1.6,1.7-2.5,2.6c0.2,3.2,0.4,6.3,0.6,9.5c0.9,0.6,1.8,1.2,2.7,1.8
			c3.1-2.6,6.3-5.3,9.4-7.9C808.8,731.7,805.4,729.7,801.9,727.8z"/>
		<path class="st20" d="M1183.7,746.3c3.6-8,6.5-14.4,9.4-20.9c1.2,0.5,2.4,0.9,3.5,1.4c-3.7,9.3-7.3,18.6-11,27.9
			c-1.2,0.2-2.3,0.5-3.5,0.7c-3.9-9.3-7.7-18.5-11.6-27.8c1-0.4,2.1-0.9,3.1-1.3C1176.8,732.4,1179.9,738.6,1183.7,746.3z"/>
		<path class="st22" d="M1080.3,728.3c-4.4,0.4-8.9,0.9-13.9,1.4c0,2.5,0,5,0,7.9c4.2,0.4,8,0.7,11.8,1.1c0.1,0.6,0.1,1.2,0.2,1.7
			c-3.6,0.5-7.2,1-11.9,1.6c-0.2,2.5-0.4,5.2-0.7,8.2c5.5,0.5,10.2,1,14.9,1.5c-0.1,0.7-0.1,1.4-0.2,2.2c-6.1,0-12.1,0-18.8,0
			c0-9,0-17.9,0-27.4c6.3,0,12.4,0,18.4,0C1080.2,727,1080.2,727.7,1080.3,728.3z"/>
		<path class="st20" d="M770.4,726.5c5.8,0,11.7,0,18.2,0c-3.4,5.9-18.4-2.6-14,11c4,0.6,7.9,1.2,11.9,1.7c0,0.7,0,1.4,0,2.2
			c-3.9,0.6-7.8,1.2-12.1,1.8c-0.5,3.8-1.1,7.5-1.6,11.2c-0.8,0-1.5,0-2.3,0C770.4,745.4,770.4,736.4,770.4,726.5z"/>
		<path class="st22" d="M1039.2,726.2c0,7.7,0,15.4,0,23.7c5.9,0.7,10.6,1.2,15.2,1.7c0,0.7,0,1.3,0,2c-6,0-11.9,0-18.3,0
			c0-8.9,0-18.1,0-27.3C1037,726.3,1038.1,726.3,1039.2,726.2z"/>
		<path class="st22" d="M1163.1,726.4c0,9.2,0,18.5,0,27.7c-0.6,0.1-1.2,0.1-1.8,0.2c0-9.3,0-18.5,0-27.8
			C1161.9,726.5,1162.5,726.4,1163.1,726.4z"/>
		<path class="st24" d="M587.7,624.5c-3,0-6,0-9,0c-0.2-2.5,0.6-6-0.8-7.2c-3.7-3-8.3-5-12.9-7.6c22.6-13.1,13.9-13.1,36.5,0
			c-4.6,2.6-9.3,4.6-12.9,7.6C587.1,618.5,587.9,622.1,587.7,624.5z"/>
		<path class="st24" d="M576.8,626.3c-0.8,0.8-1.6,1.5-2.4,2.3C575.2,627.8,576,627.1,576.8,626.3z"/>
		<path class="st24" d="M589.9,626.6c-0.8-0.8-1.6-1.5-2.4-2.3C588.3,625,589.1,625.8,589.9,626.6z"/>
		<path class="st24" d="M592,628.6c-0.8-0.8-1.6-1.5-2.4-2.3C590.4,627.1,591.2,627.8,592,628.6z"/>
		<path class="st24" d="M579,624.3c-0.8,0.8-1.6,1.5-2.4,2.3C577.3,625.8,578.1,625,579,624.3z"/>
		<path class="st25" d="M1046,622.6c-5.1,4.7-8,9.9-11.7,10.3c-7,0.8-8-5.1-8-10.5c0-5.7,1-12,8.4-11.3
			C1038.2,611.5,1041.1,617.3,1046,622.6z"/>
		<path class="st24" d="M878.8,622c5.2-5,8.3-10.7,12-10.9c7.5-0.6,8.4,6,8.3,11.6c-0.1,5.3-1.4,11.4-8.5,10.2
			C886.8,632.3,883.9,626.9,878.8,622z"/>
		<path class="st24" d="M854.9,623.6c0-5.2,0-8.1,0-12.6c3.8,0.7,7.4,0.9,10.7,2.1c1,0.4,1.6,4.7,0.9,5.1
			C863.3,620.2,859.6,621.5,854.9,623.6z"/>
		<path class="st25" d="M968.4,632.3c0-7.1,0-13.7,0-20.3c9-1.7,12.8,1.6,13,9.5C981.6,629.1,979.1,634.1,968.4,632.3z"/>
		<path class="st24" d="M1137,621.6c-4.9,5.1-8.1,8.4-11.4,11.8c-3.1-3.5-8.6-7-8.5-10.4c0.1-4.2,5-8.2,7.8-12.4
			C1128.4,613.7,1131.8,616.8,1137,621.6z"/>
		<path class="st24" d="M1086.8,629.9c2.3-2.2,4.2-5.7,6.9-6.3c1.9-0.4,4.7,3.3,7.1,5.1c-3.5,1.8-6.9,3.6-10.4,5.3
			C1089.1,632.6,1087.9,631.3,1086.8,629.9z"/>
		<path class="st24" d="M1087,617.8c2.1-2.3,3.9-5.2,6.5-6.6c1.1-0.6,4.2,2.4,6.4,3.7c-3.1,2.1-6.2,4.2-9.3,6.3
			C1089.4,620.1,1088.2,619,1087,617.8z"/>
		<path class="st24" d="M998.7,621.2c0-2.9,0-5.8,0-11.7c4.9,2.5,8.6,4.3,12.3,6.1c-3.1,2.7-6.2,5.4-9.4,8.1
			C1000.7,622.9,999.7,622,998.7,621.2z"/>
		<path class="st24" d="M1057.4,620c2.3-3,4.5-6.1,6.8-9.1c2.8,1.9,5.6,3.9,8.4,5.8c-3.7,2.4-7.3,4.8-11,7.2
			C1060.1,622.6,1058.8,621.3,1057.4,620z"/>
		<path class="st3" d="M573.9,744.4c-2.2,3.3-4.3,6.5-6.5,9.8c-0.9-0.5-1.9-1-2.8-1.5c2.3-3.7,4.6-7.3,6.9-11
			C572.2,742.5,573,743.4,573.9,744.4z"/>
		<path class="st24" d="M1138.7,727.6c2.8,2.4,5.6,4.8,8.4,7.2c-3.1,2.1-6.3,4.3-11.3,7.7c0-6.3,0-9.4,0-12.5
			C1136.8,729.2,1137.7,728.4,1138.7,727.6z"/>
		<path class="st25" d="M1105.1,750.4c0-7.2,0-13.5,0-20.3c8.3-1.7,12.6,0.8,13.1,8.5C1118.7,746.6,1116,751.7,1105.1,750.4z"/>
		<path class="st25" d="M847.2,740c-4.9,4.9-7.7,10.3-11.4,10.8c-7,1.1-8.2-4.7-8.3-10.2c-0.1-5.7,0.8-12,8.1-11.6
			C839.1,729.2,842.2,735,847.2,740z"/>
		<path class="st25" d="M995.5,739.6c-4.9,5.1-7.6,10.5-11.3,11.2c-7.1,1.3-8.4-4.6-8.5-10c-0.2-5.6,0.6-12,8-11.8
			C987.2,729.2,990.4,734.8,995.5,739.6z"/>
		<path class="st24" d="M964,740.4c-5.1,4.7-8.5,7.8-11.8,10.9c-2.8-3.6-7.1-7-8.1-11c-1.4-5.5,1.1-12,8.3-11.2
			C956,729.4,959,735.3,964,740.4z"/>
		<path class="st24" d="M801.9,727.8c3.4,2,6.9,3.9,10.3,5.9c-3.1,2.6-6.3,5.3-9.4,7.9c-0.9-0.6-1.8-1.2-2.7-1.8
			c-0.2-3.2-0.4-6.3-0.6-9.5C800.3,729.5,801.1,728.6,801.9,727.8z"/>
	</g>
</g>
</svg>
