<svg xmlns="http://www.w3.org/2000/svg" xml:space="preserve" id="Ebene_1" x="0" y="0" viewBox="0 0 1920 1080"><style>.st0{fill:#fdfdfd}.st1{fill:#cbcbcb}.st3{fill:#5bcbfe}.st4{fill:#3f3c3e}.st5{fill:#414044}.st6{fill:#3d393b}.st7{fill:#3e3e43}.st8{fill:#3d3b3d}.st9{fill:#4e4747}.st10{fill:#474141}.st11{fill:#33333b}.st12{fill:#6cc5fe}.st13{fill:#deeadf}.st14{fill:#3f3333}.st15{fill:#afa9b0}.st16{fill:#90909e}.st17{fill:#f0f5e6}.st18{fill:#c0fefe}.st19{fill:#fee0a0}.st20{fill:#f8f9f6}.st21{fill:#b0effe}.st22{fill:#816885}.st23{fill:#f3fbfe}.st24{fill:#f3f6f4}.st25{fill:#554056}.st26{fill:#59366c}</style><path d="M0 0h1920v1080H0zm1068.3 1041.4-1.8-.6c-.2-.3-.4-.6-.6-.7s-.5 0-.7.1c.4 2.6.9 5.3 1.3 7.9l1.8-.6c.5.1.9.3 1.3.6.6.6 1.2 1.2 1.9 1.8 2.3 1.4 4.6 2.9 6.9 4.3 2.2-2 4.3-4 7-6.4v-13.7c-2.5 1.2-4.7 2.1-6.8 3.1-2.4.6-4.7 1.2-7.1 1.7-.6.6-1.2 1.2-1.9 1.8-.3.4-.8.6-1.3.7m247.8-159.7c.5.1 1.1.3 1.5.6.2.4.4.8.4 1.3 6.6-2.2 3.1-6.6 1.5-10.5-.6.5-1.3 1-1.9 1.5q-.75.45-1.5.6c-.5-.1-1-.2-1.6-.4-.2-.3-.4-.6-.6-.7s-.5 0-.7.1c.4 2.6.9 5.3 1.3 7.9.5-.2 1-.3 1.6-.4m-772.4-75.6c0 3 0 5.9.1 8.9.5.1 1.1.1 1.6.1l2.1 3.9.7.2.7-.1c2.3-.9 4.6-1.8 9.6-3.7-3.7-4.3-6.6-7.7-9.6-11.1-.5-.1-1-.1-1.4.1l-2.1 2.1c-.6-.2-1.2-.3-1.7-.4m48.2 9.1v-7.1c-.2-.3-.3-.6-.6-.8-.2-.1-.5 0-.7 0 .4 2.6.8 5.3 1.3 7.9m720.8 232.8v-7.1c-.2-.3-.3-.6-.6-.8-.2-.1-.5 0-.7 0 .5 2.7.9 5.3 1.3 7.9m-182.4-7.1c-.2-.3-.3-.6-.6-.8-.2-.1-.5 0-.7 0 .4 2.6.9 5.2 1.3 7.8zm-76.2 7.1 1.8-.6c1.1-2.7 2.3-5.4 3.4-8.1-.3-.2-.7-.4-1-.6-.8.9-1.6 1.7-2.4 2.6l-1.8-.6c-.2-.3-.4-.6-.6-.7s-.5 0-.7.1c.5 2.7.9 5.3 1.3 7.9m-712-366.5v-7.1c-.2-.3-.3-.6-.6-.8-.2-.1-.5 0-.7 0 .5 2.7.9 5.3 1.3 7.9m974.2.1c.5-.1.9-.3 1.4-.3l2.1 8.4c2.3-1.4 4.5-2.8 6.8-4.3 1.8-1.8 3.6-3.7 5.9-6-.4 4.1-.7 7.2-.9 10.3.7.3 1.3.6 2 .9 1.9-3.9 3.9-7.8 4.8-9.6 3.8 1.1 5.9 2 8.2 2.3 4.2.5 8.5.5 13.4.8-.5-5.4 4.5-13.9-7.6-10.7-8 2.2-17-1.7-25.6-2.8-2.2 0-4.5.1-6.7.1-.7 1.3-1.5 2.7-2.2 4.1-.5-.1-.9-.2-1.4-.3-.2-.3-.4-.6-.6-.7s-.5 0-.7.1c.2 2.4.6 5 1.1 7.7M264.2 741.2c-.2-.3-.3-.6-.6-.8-.2-.1-.5 0-.7 0 .4 2.6.9 5.2 1.3 7.8zm872.7 75.5 1.8.9c1.2.5 2.3 1 3.5 1.5 5.9.1 6.4-4.6 5.3-9.7-.4-1.6-3.3-2.3-5.1-3.5-.9-1.9-1.7-3.8-2.8-6.2-1 2.6-1.8 4.5-2.5 6.4-.7-.1-1.4-.3-2.1-.4-2.7-.5-5.4-.9-8.2-1.4-.8.7-1.5 1.5-2.3 2.2-.6-.2-1.2-.4-1.8-.7-2.2 2.2-4.4 4.5-6.6 6.7-2.6.3-5.2.5-7.8.8 0 1 0 2-.1 3 2.6.3 5.1.5 7.7.8 2.4.6 4.7 1.3 7.1 1.9.5.3 1.1.4 1.6.3.7 1.4 1.4 2.7 2.1 4.1 2.3-1.4 4.5-2.9 6.8-4.3.6-.5 1.2-1 1.8-1.6.5-.5 1-.7 1.6-.8m301.6 125c-.2-.3-.3-.6-.6-.8-.2-.1-.5 0-.7 0 .4 2.6.9 5.2 1.3 7.8zm-127.5 7.2c.4-.1.9-.2 1.3-.2.7 1.3 1.4 2.6 2.1 3.8l.7.2.7-.1v-14.7c-.5-.1-1-.1-1.5.1-.7 1.3-1.4 2.6-2.1 3.8-.5 0-.9-.1-1.3-.2-.2-.3-.4-.6-.6-.7s-.5 0-.7.1c.5 2.6.9 5.3 1.4 7.9m-233.8-140.8c-.2-.3-.3-.6-.6-.8-.2-.1-.5 0-.7 0 .4 2.6.9 5.2 1.3 7.8zM861.1 941.7c-.2-.3-.3-.6-.6-.8-.2-.1-.5 0-.7 0 .4 2.6.9 5.2 1.3 7.8zm556.2 9.2c.5 0 .9.1 1.3.4 1.3.4 2.6.8 3.9 1.1l.7.2.7-.2.8.2h.9c.7-1.5 1.5-3.1 2.2-4.6 1.1-2.6 2.3-5.2 3.4-7.8-.3-.2-.7-.4-1-.6l-2.4 2.7c-.7-1.5-1.5-3-2.2-4.5-.6-.1-1.1 0-1.7.2-.5-.2-.9-.2-1.3.1-1-1.4-2-2.7-3.2-4.4-.8 2.1-1.6 4-2.4 6-.6 0-1.2-.1-1.8-.1-2.2 2.2-4.5 4.4-6.7 6.5-.6-1.8-1.1-3.7-1.7-5.5.5-1.1 1.1-2.2 1.6-3.3-4.7.4-9.5.9-14.6 1.3.3 4.7.5 7.8.7 10.8 4.9.4 9.3.8 13.7 1.2 2.4.6 4.7 1.2 7.1 1.9.6-.5 1.3-1 2-1.6M570.6 817.2c.5 0 .9.1 1.3.4 1.3.4 2.6.7 3.9 1.1l.7.2.7-.1.8.2h.9c.7-1.5 1.5-3.1 2.2-4.6 1.1-2.6 2.3-5.2 3.4-7.8-.3-.2-.7-.4-1-.6l-2.4 2.7c-.7-1.5-1.5-3-2.2-4.5-.6-.1-1.1 0-1.7.2-.5-.2-.9-.2-1.3.1-1-1.4-2-2.7-3.2-4.4l-2.4 6c-.6 0-1.2-.1-1.8-.1-2.2 2.2-4.5 4.3-6.7 6.5-1 .9-2 1.8-3.1 2.7.9.6 1.9 1.2 2.8 1.8 2.4.6 4.7 1.2 7.1 1.9.6-.5 1.3-1.1 2-1.7m269.3 133.7c.5 0 .9.1 1.3.4 1.3.4 2.6.7 4 1.1l.7.2.7-.1.8.2h.9c.7-1.5 1.5-3.1 2.2-4.6 1.1-2.6 2.3-5.2 3.4-7.8-.3-.2-.7-.4-1-.6l-2.4 2.7c-.7-1.5-1.5-3-2.2-4.5-.6-.1-1.1 0-1.7.2-.5-.2-.9-.2-1.3.1-1-1.4-2-2.7-3.2-4.4l-2.4 6c-.6 0-1.2-.1-1.8-.1-2.2 2.2-4.5 4.4-6.7 6.5-.6-1.8-1.1-3.6-1.7-5.5.6-.4 1.3-.7 1.9-1.1-2.8-1.9-5.6-3.8-7.4-5.1-2.8 6.4-5 11.4-7.9 18 5.9-.8 10.4-1.3 14.8-1.9 2.4.6 4.7 1.2 7.1 1.9.5-.5 1.2-1 1.9-1.6m522.5-200.5c.5 0 .9.1 1.3.4 1.2-.1 2.4-.2 3.6-.4 6.2.6 6.4-5.3 8.5-10.6-3.4-.2-5.9-.4-8.5-.6-.8-2-1.7-4-2.7-6.4-1 2.4-1.8 4.5-2.6 6.5-.6 0-1.2-.1-1.8-.1-2.2 2.2-4.5 4.3-6.7 6.5-1 .9-2 1.8-3.1 2.7.9.6 1.9 1.2 2.8 1.8 2.4.6 4.7 1.2 7.1 1.9.7-.6 1.4-1.1 2.1-1.7m-777.6-66.8c.5 0 .9.1 1.3.4 1.2.5 2.4.9 3.6 1.4 1.3 0 2.6 0 3.8.1l7.2-3.9v-7.1l-7.2-3.9c-1.3 0-2.5 0-3.8.1-1-1.3-1.9-2.6-3-4-.9 2.2-1.6 4.1-2.3 5.9-.6 0-1.2-.1-1.8-.1-2.2 2.2-4.5 4.4-6.7 6.5-.5-1.9-1.1-3.8-2-6.9-4.5.4-11 1-19.6 1.8 5.7 5.7 10.4 10.4 14.9 15 2.3-1.9 4.3-3.6 6.4-5.3 2.4.6 4.7 1.2 7.1 1.9.7-.8 1.4-1.4 2.1-1.9m253.3 66.8c.5 0 .9.1 1.3.4 1.2-.1 2.4-.2 3.6-.4 6.2.6 6.4-5.3 8.5-10.6-3.4-.2-5.9-.4-8.5-.6-.8-2-1.7-4-2.7-6.4-1 2.4-1.8 4.5-2.6 6.5-.6 0-1.2-.1-1.8-.1-2.2 2.2-4.5 4.3-6.7 6.5-1 .9-2 1.8-3.1 2.7.9.6 1.9 1.2 2.8 1.8 2.4.6 4.7 1.2 7.1 1.9.7-.6 1.4-1.1 2.1-1.7m262.1 0c.5 0 .9.1 1.3.4 1.2-.1 2.4-.2 3.6-.4 6.2.6 6.4-5.3 8.5-10.6-3.4-.2-5.9-.4-8.5-.6-.8-2-1.7-4-2.7-6.4-1 2.4-1.8 4.5-2.6 6.5-.6 0-1.2-.1-1.8-.1-2.2 2.2-4.5 4.3-6.7 6.5-1 .9-2 1.8-3.1 2.7.9.6 1.9 1.2 2.8 1.8 2.4.6 4.7 1.2 7.1 1.9.7-.6 1.4-1.1 2.1-1.7m-253.5 299.4q.75.15 1.5.6c1.2-.1 2.4-.2 3.6-.4 1.7-.1 3.4-.2 5-.3v-15c-2.6-.8-4.8-1.4-6.9-2-1.2 1.5-2.4 3-3.6 4.6-.5-.3-1-.4-1.6-.2-.5-.2-1.1-.1-1.6.1v14.5l.7.2.7-.1c.9-.7 1.6-1.3 2.2-2m-157.6 1.9.7.2.7-.1c2.3-.9 4.6-1.7 6.9-2.6V1039c-2.6-.8-4.8-1.4-6.9-2-.5-.1-1-.1-1.4.1zm377.4-243c-.7-1.5-1.5-3-2.2-4.5-.6-.1-1.1 0-1.7.2-4.5 7.3-3.7-4.1-6.8-3V815c2.4 1.4 4.6 2.6 6.8 3.8l.8.2h.9c.7-1.5 1.5-3.1 2.2-4.6 1.1-2.6 2.3-5.2 3.4-7.8-.3-.2-.7-.4-1-.6zm59.9 129.3c-.5-.2-.9-.1-1.4.1-1.2-1.3-2.3-2.5-3.4-3.7-.7 1.1-1.6 2.4-2.5 3.7-.5-.3-1-.4-1.6-.2-.5-.2-1.1-.1-1.6.1-.6-.2-1.1-.2-1.7-.2-.6-1.2-1.1-2.4-1.7-3.6-2.5 1.9-4.9 3.8-7.4 5.6l.3 10.8c2.3.5 4.7 1 7 1.5.4.4.9.5 1.5.4h2l.7.2.7-.1c.7-.7 1.4-1.3 2.1-2q.75.15 1.5.6c1.3.4 2.6.8 3.9 1.1l.7.2.7-.1.8.2.8-.1c2.3-.9 4.7-1.8 7-2.7 2.9-8.3-3.2-9.2-7-12.1-.3.1-.8.1-1.4.3m-795-262.9c-.7-1.5-1.5-3-2.2-4.5-.6-.1-1.1 0-1.7.2-.4-.2-.8-.2-1.3-.1 0-1.2.1-2.5.1-3.7-.8.5-1.7 1.1-2.5 1.6-1.2.5-2.3 1.1-3.5 1.6v4.8c-.6 2.8-1.1 5.6-1.7 8.4 1.9 0 3.7 0 5.6.1 1.1.6 2.2 1.1 3.3 1.7l.8.2h.9c.7-1.5 1.5-3.1 2.2-4.6 1.1-2.6 2.3-5.2 3.4-7.8-.3-.2-.7-.4-1-.6zm1042.9 10 .8.2h.9c2.3-.9 4.6-1.8 7.1-2.8 2.8-7.8-3.3-9-7.1-12-.6-.1-1.1 0-1.7.2-.5-.2-.9-.2-1.3.1l-3.6-3.6c-.6 1.3-1.4 3.1-2.1 4.8-8 .4-4.7 6.9-4.9 11.9h6.5l3.9 1.2.7.2zM617.8 881.9V875c-1.2.6-2.4 1.2-3.6 1.9-3.6-1.9-7.3-3.8-11.7-6.2V884c4.3-1.5 8-2.7 11.7-4 1.2.6 2.4 1.3 3.6 1.9m-65.1-144.3V752l.7.2h.8c2.3-.9 4.6-1.8 7.1-2.8 2.8-7.8-3.3-9-7.1-12-.5-.1-1-.1-1.5.2m915.2 303.4c-1.2.6-2.4 1.2-3.6 1.9l-6.9-3.6c-.6-.2-1.2-.4-1.8-.5-2.2 2.2-4.4 4.4-6.6 6.7-1 .9-2 1.8-3.1 2.7.9.6 1.9 1.2 2.8 1.8 2.4.6 4.7 1.2 7.1 1.9.6.1 1.3.1 1.9.2 2.2-2 4.3-4 6.5-6 1.2.6 2.4 1.2 3.6 1.9.2-2.4.2-4.7.1-7m-105.6-93c1.1-2.6 2.3-5.2 3.4-7.8-.3-.2-.7-.4-1-.6l-2.4 2.7c-.7-3-1.5-5.9-2.2-8.9-1.1.5-2.1.9-3.2 1.4-.8 3-1.6 6-3 10.9-2.5-4.2-4.5-7.5-7.2-12.1v18.1c4.4-3.1 8.7-6.9 11.9.7l.7.2.8-.1c.7-1.4 1.4-2.9 2.2-4.5m-318.8-133.6 3.9-7.5c-.5-.3-.9-.6-1.4-.9-.8.9-1.7 1.8-2.5 2.8-.7-3-1.5-5.9-2.2-8.9-1.1.5-2.1.9-3.2 1.4-.8 3-1.6 6-3 10.9-2.5-4.2-4.5-7.5-7.2-12.1v18.1c4.4-3.1 8.7-6.9 11.9.7l.7.2.8-.1c.7-1.5 1.4-3.1 2.2-4.6m126.9-73.1c-2.2 1.2-4.3 2.3-6.5 3.4 2.2 1.2 4.3 2.3 6.5 3.5zm-15.6 299.8c-.2 2.7-.5 5.5-.7 8.2 2.4.2 4.7.4 8.7.6-3.7-4.1-5.8-6.4-7.9-8.7 2.1.4 4.1.7 6.2 1.1-.1-1.3-.1-2.5-.2-3.8-2 1-4.1 1.8-6.1 2.6m-269.2 0c-.2 2.7-.5 5.5-.7 8.2 2.4.2 4.7.4 8.7.7-3.7-4.1-5.8-6.4-7.9-8.7 2.1.4 4.1.7 6.2 1.1-.1-1.3-.1-2.5-.2-3.8-2.1.9-4.1 1.7-6.1 2.5M336.8 812.5c-2.2 1-4.3 2-6.5 2.9.1.7.2 1.5.4 2.2 1.9-.2 3.9-.4 5.8-.6 2.4.6 4.8 1.2 7.2 1.9 2.2-.9 4.5-1.8 7.1-2.8-.1-2.6-.3-5.6-.5-8.4-2.6-.7-4.8-1.2-6.9-1.8zm1245.1 4.5c2.4.5 4.7 1 7.1 1.5 0-6 .1-11.9.1-17.9-2.5 1.9-4.9 3.7-7.4 5.6-1.4 2-2.9 3.9-3.9 5.4 1 1.4 2.6 3.4 4.1 5.4m-759.8 62.4c-1.5.8-3 1.7-6.9 3.9 4 .4 5.3.5 6.6.7 2.4.6 4.7 1.2 7.1 1.9 2.3-.9 4.5-1.8 6.8-2.7 1.1-6.7 0-11.5-7.1-10.3zm572.1-12c-2.5 1.9-4.9 3.7-7.4 5.6-3.3 3.7-3.7 7.3.3 10.8 2.4.5 4.7 1 7.1 1.5zm-605.8 78.8c-1 .9-2 1.8-3.1 2.7.9.6 1.9 1.2 2.8 1.8 2.4.6 4.7 1.3 7.1 1.9 2.2-.9 4.5-1.8 7.1-2.8-.1-2.6-.3-5.6-.5-8.4-2.6-.7-4.8-1.2-6.9-1.8-2.1 2.2-4.3 4.4-6.5 6.6m597-12c-2.5 1.9-4.9 3.7-7.4 5.6-1.4 2-2.9 3.9-3.9 5.4 1.1 1.4 2.6 3.4 4.2 5.4 2.4.5 4.7 1 7.1 1.5-.1-5.9-.1-11.9 0-17.9M807.9 678.9c-1.3.1-2.6.2-3.8.2v-10.5c-2.5 1.3-4.8 2.5-7.2 3.7-2.2 2.2-4.5 4.3-6.7 6.5-.5-2-1-4.1-2-8-1.3.8-3.8 2.3-5.1 3.1-4-1.2-7.9-2.4-13.6-4.1 6.5 9.5 11.6 16.2 20.5 13.6 2.4.6 4.7 1.3 7.1 1.9 2.9-.5 5.7-1.1 8.6-1.6.7-.1 1.4-.2 2-.2 2.4.6 4.7 1.2 7.1 1.9 2.3-.9 4.5-1.8 6.8-2.7 1.1-6.7 0-11.5-7.1-10.3-2.2 2.1-4.4 4.3-6.6 6.5M278.3 883.8c2.4.5 4.7 1 7.1 1.5 0-6 .1-11.9.1-17.9-2.5 1.9-4.9 3.7-7.4 5.6-1.4 2-2.9 3.9-3.9 5.4 1 1.4 2.6 3.4 4.1 5.4m49.4 56.1c-.2-1.3-.3-2.6-.5-4-.9.6-1.7 1.1-2.6 1.7 2.3 6.4 4.6 12.9 6.9 19.3 2.3-1.4 4.5-2.8 6.8-4.3 2.6-.7 5.2-1.5 8.6-2.4 2.8-8.8-5.2-8.6-8.6-12.4-2.2 0-4.5.1-6.7.1-1.4.7-2.7 1.4-3.9 2M1564 873.1c-.2-1.3-.3-2.6-.5-4-.9.6-1.7 1.1-2.6 1.7 2.3 6.4 4.6 12.9 6.9 19.3 2.3-1.4 4.5-2.8 6.8-4.3 2.6-.7 5.2-1.5 8.6-2.4 2.8-8.8-5.2-8.6-8.6-12.4-2.2 0-4.5.1-6.7.1-1.4.7-2.6 1.3-3.9 2M621.9 875v-6.8c-.7.1-1.5.3-2.2.4.6 2.3 1.2 4.5 1.8 6.8v6.1c-.2.4-.4.8-.7 1.2.3-.3.7-.5 1-.8 2.6.9 5.2 1.7 7.9 2.6.6-8.8.6-8.8-7.8-9.5m552.6-126.7c2.6.9 5.2 1.7 7.9 2.6.6-8.8.6-8.8-7.8-9.5v-6.8c-.7.1-1.5.2-2.2.4.6 2.3 1.2 4.6 1.8 6.8v6.1c-.2.4-.4.8-.7 1.2.3-.3.6-.6 1-.8M1054 948.7c2.6.9 5.2 1.7 7.9 2.6.6-8.8.6-8.8-7.8-9.5V935c-.7.1-1.5.2-2.2.4.6 2.3 1.2 4.6 1.8 6.8v6.1c-.2.4-.4.8-.7 1.2.4-.2.7-.5 1-.8m-449.9 0c2.6.9 5.2 1.7 7.9 2.6.6-8.8.6-8.8-7.8-9.5V935c-.7.1-1.5.3-2.2.4.6 2.3 1.2 4.5 1.8 6.8v6.1c-.2.4-.4.8-.7 1.2.4-.2.7-.5 1-.8m503.2-66.3c2.1.5 4.2 1.1 6.9 1.7-.2-3.7-.4-7-.7-10.5-2.8-.5-5-1-7.3-1.4-2.6-.4-5.2-.7-7.8-1.1-2.4.8-4.7 1.7-7.2 2.6v10.1c.6-.3 1.1-.7 1.7-1 1.8 2.4 3.6 4.9 5.5 7.3 2.3-1.4 4.5-2.9 6.8-4.3.7-1.1 1.4-2.2 2.1-3.4M1426 748.3c2.6.9 5.2 1.7 8 2.7 2.7-9.8-2.8-9.5-7.9-9.6v-6.8c-.7.1-1.5.2-2.2.4.6 2.3 1.2 4.6 1.8 6.8v6.1c-.2.4-.4.8-.7 1.2.3-.3.6-.6 1-.8m228.6.5c2.1.5 4.2 1.1 6.9 1.7-.2-3.7-.4-7-.7-10.5-2.8-.5-5-1-7.3-1.4-2.6-.4-5.2-.7-7.8-1.1-2.4.8-4.7 1.7-7.2 2.6v10.1c.6-.3 1.1-.7 1.7-1 1.8 2.4 3.6 4.9 5.5 7.3 2.3-1.4 4.5-2.9 6.8-4.3.7-1.2 1.4-2.3 2.1-3.4m-62.3-63.5c2.2-.9 4.5-1.8 7.1-2.8-.1-2.6-.3-5.6-.5-8.4-2.6-.7-4.8-1.2-6.9-1.8-2.2 2.2-4.3 4.4-6.5 6.6-.6-1.9-1.1-3.8-2-6.9h-6.5v13.4c3.2-.8 5.8-1.3 8.3-1.9 2.3.5 4.7 1.2 7 1.8m-1220.2 119c-3.8 3.2-10.3 4.4-7 11.8l7 2.8.7.2.7-.1c2.3-.9 4.6-1.8 6.8-2.7 3.9-8.6-3.2-8.9-6.8-12.1-.5-.1-.9-.1-1.4.1m857.1-715.9c-.4-.8-.9-1.6-1.3-2.4.4.8.9 1.6 1.3 2.4l-.9 14.1c.8.3 1.5.7 2.3 1 1.3-4.1 2.7-8.2 3.5-12.4.2-.4-3.1-1.8-4.9-2.7M564.9 885.8c.6-.5 1.2-1 1.7-1.6l2.1-.6h1.3c1.3.6 2.6 1.1 3.9 1.7v-16.2c-2.7 1.4-5.1 2.6-7.5 3.8l-8.4-1.8c-2.4.8-4.7 1.7-7.2 2.6v10.1c.6-.3 1.1-.7 1.7-1 1.8 2.4 3.6 4.9 5.5 7.3 2.4-1.4 4.7-2.8 6.9-4.3M1634.6 819c2.3-.9 4.7-1.8 7-2.7 2.9-8.3-3.2-9.2-7-12.1-.5-.1-1.1-.1-1.6.1-4.5 7.5-3.7-4.1-6.8-2.9v13.5c2.5 1.4 4.7 2.7 6.8 4l.8.2c0-.1.8-.1.8-.1m-802.3 0c2.3-.9 4.7-1.8 7-2.7 2.9-8.3-3.2-9.2-7-12.1-.5-.1-1.1-.1-1.6.1-4.5 7.5-3.7-4.1-6.8-2.9v13.5c2.5 1.4 4.7 2.7 6.8 4l.8.2zm-40.6-.1c2.3-.9 4.5-1.8 6.8-2.7 1.1-6.7 0-11.5-7.1-10.3-2.2 2.2-4.3 4.4-6.5 6.6-.5-1.9-1.1-3.7-1.6-5.6.6-.9 1.3-1.8 1.9-2.7-4.1-.3-8.2-.6-12.2-.9.1.5.2 1.1.3 1.6-2.3-1.5-4.7-2.9-7.4-4.6v19.5c6.8-1 12.8-1.9 18.8-2.8 2.3.7 4.7 1.3 7 1.9M538.1 687.8c2.1-1.9 4.2-3.9 7.5-6.8 1.3-5.5-1.3-9.3-7.3-10.2-2.2 1-4.4 2.1-6.6 3.1-7.9-2.6-17.8 5.2-24.5-10-1.2 8.6-2 14-2.8 19.5.7.2 1.4.3 2.1.5.9-3.2 1.9-6.4 2.6-8.9 5.4 4.7 10.8 9.3 14.3 12.4 3.9-.9 6-1.4 8.2-1.9 2.1.7 4.3 1.5 6.5 2.3M1736.7 97.1c-.3-2.1-.7-4.2-1-6.3l-2.7-10.2c-.6.2-1.3.4-1.9.5v20.4c2.2-1.7 3.9-3.1 5.6-4.4m-394.4 775.7c-2.2 2.2-4.3 4.4-6.5 6.6-.6-1.9-1.1-3.7-2.3-7.6-6.4-2.2-7.4 5.1-8.5 13.7 3.9-.6 7.2-1.1 10.5-1.6 2.4.6 4.7 1.3 7.1 1.9 2.3-.9 4.5-1.8 6.5-2.5v-14.7c-2.6 1.5-4.7 2.9-6.8 4.2m-276-187.5q3.75-1.05 7.2-2.1v-14.6c-2.7 1.4-5 2.6-7.3 3.8-2.2 2.2-4.5 4.3-6.7 6.5-.6-1.9-1.1-3.8-2-6.9h-6.5v13.4c3.2-.8 5.8-1.3 8.3-1.9 2.3.5 4.6 1.2 7 1.8M600.1 948.7v-6.9c-2.1.8-4.1 1.7-6.4 2.6-1.6-2.9-3.2-6.1-4.4-8.4.7 3.8 1.5 8.5 2 11.2 3.1.6 5.9 1 8.8 1.5m449.8-6.9c-2.1.8-4.1 1.7-6.4 2.6-1.6-3-3.3-6.1-4.4-8.4.7 3.8 1.5 8.5 2 11.2 3.2.5 6 1 8.8 1.5zm372-200.5c-2.1.8-4.1 1.7-6.4 2.6-1.6-3-3.3-6.1-4.4-8.4.7 3.8 1.5 8.5 2 11.2 3.2.5 6 1 8.8 1.5zM340.3 541.2c-2.1-1.1-4.3-2.1-6.9-3.4V555c2.8 1.2 4.8 2.2 6.9 3.1l.8.1.8-.1c9.3-5.3 10.1-8.1 5.5-19.8-.7.6-1.4 1.2-2.2 1.6-1.1.6-2.2.9-3.3 1.4-.6-.2-1.1-.2-1.6-.1m40.5-468.4c.6 3.2 1.7 6.4 1.9 9.7.6 10.7 6.6 14.2 15.3 8-3.6-1.3-6.7-2.4-9.8-3.6.2-.9.3-1.9.5-2.8h20.9c2.2-9.8-1.4-14.2-8-14.3-6.9-.1-13.8 1.2-20.8 2-3.6.5-9.8-.1-10.3 1.6-1.7 6.3-1.5 13.5-2 20.3 1 .2 2 .4 3.1.5 4.3-6.3-2.1-20.1 9.2-21.4m-211-43.7c-5.5 3.5-10.8 7.4-16.4 10.5-7.5 4.1-10.1 10.7-9.7 20.6.6 14.3.5 28.7 0 43-.3 8.4 2.5 13.3 8.4 17.1 10.7 6.8 20.9 14.9 31.9 20.9 4 2.2 10.1 1.3 14.5-.6 6.2-2.7 11.7-7.6 17.5-11.6 4.5-2.8 8.8-5.8 13.4-8.2 7.2-3.8 9.8-9.9 9.4-19.5-.6-15 .3-30.2-.4-45.2-.2-4.9-2.8-11.4-6-13.9-11.7-9-23.9-17-36.3-24.7-2.7-1.7-7.1-1.9-9.8-.4-5.7 3.1-11 7.9-16.5 12m1675.5 479.3v-1.1H104.7v1.1zm.1 79.7c0-.3-.1-.7-.1-1H104.8v1zM979 353.5v58.3c8 0 15.4-.2 22.7.1 7.4.2 13.7-2.1 16.3-11.2 2.5-8.7-.5-15.3-4.3-18.1.7-7.9 3.3-15.5 1.2-19.8-2.2-4.7-8.6-7.8-13.5-8.8-7.1-1.6-14.6-.5-22.4-.5m-63.3-67.7c6-5.7 11.4-11.7 6-21.5-3.6-6.5-14.4-8-20.2-3-8.1 7-4.2 14.7-.4 22.4-1.6 1.4-3.6 2.3-4.3 3.9-2.2 5.1-6.1 11.3-5.1 15.7 1.1 5.1 6.1 10.1 10.4 12.6 3.6 2 8.8 1.2 12.9-.3 4.5-1.6 8.2-4.4 13.1-.4 1.2 1 5.1-3 8.2-5-3.4-3.2-5.5-5.1-7.4-6.9 1.1-4 2.2-7.6 3.7-13.1-4.9.9-8.4 1.6-12.6 2.4-1-1.5-2.5-4-4.3-6.8m235.8 125.6c0-8.9-.6-17.2.3-25.2.4-3.2 4-5.8 6.2-8.7 1.5 2.9 4.1 5.8 4.4 8.9.6 8.1.2 16.3.2 25h10c0-8.2-.6-16.2.3-23.8.4-3.6 3.9-6.7 6-10 1.6 3.3 4.2 6.4 4.5 9.8.7 7.7.2 15.6.2 24h9.7c0-8 .7-15.6-.2-22.9-.8-6.2-2.1-14.7-5.6-17.3-3.8-2.9-10.5-.3-17.5 0-8-.7-17.6-1.6-27.7-2.5v42.9c2.7-.2 5.3-.2 9.2-.2m397-152.7V317c8.1 0 15.7-.1 23.2 0 7.4.1 13.3-2.4 16-11.7 2.6-9.2-1.3-14.9-4.7-17.6.8-7.8 3.4-15 1.5-19.7-1.8-4.5-7.9-8-12.5-8.9-7.4-1.5-15.2-.4-23.5-.4m12.6 152.8c0-8.6-.7-16.2.3-23.6.5-3.8 3.8-7 5.8-10.5 1.8 3.4 4.7 6.7 5.1 10.4.8 7.7.2 15.5.2 23.6h9.3c0-9.6.2-18.9 0-28.1-.3-12.8-7.9-18.2-17.5-12.7-1.8 1-4 2-6 1.8-9.1-1.2-18.2-2.8-27.8-4.4v43.4h10c0-8.5-.6-16.8.3-24.8.3-3.3 3.7-6.1 5.7-9.2 1.7 3.1 4.6 6 4.9 9.3.7 8.1.2 16.3.2 24.7 3.4.1 6 .1 9.5.1m-490.4-137.4c-5 .4-9.7 2.1-13.7.8-9.1-2.9-16.8 1.2-19.3 12.2-2.1 9.2-1.5 17.9 4.1 25.1 5.7 7.4 12.4 5.2 19.7 1.8-.6 4.2-1.3 9-3.4 10.2-2.3 1.3-5.9-.3-8.8-1.2-3.7-1.2-7.2-2.9-11.8-4.8 1.9 14.6 9.1 16.1 17.3 16.1s15.2-3 15.7-14.3c.7-15 .2-30 .2-45.9m-450.4 109c.1-18.4-8.4-29.4-22.9-29.6s-23.5 10.8-23.6 28.8c-.1 18.2 8.6 29.4 23 29.5 14.6.1 23.4-10.6 23.5-28.7m384.6-95.3c0-18.3-8.6-29.1-23.2-29.1-14.2 0-23.3 11.4-23.4 29.2 0 17.9 9 29.1 23.4 29.1 14.6-.1 23.2-10.9 23.2-29.2m289.7 85.8c-2.9-17.6-14.3-24.9-26.3-18.5-4.3 2.3-9.2 9.1-9.6 14.3-.4 4.5 4.6 10.9 8.5 14.2 3.8 3.3 9.4 3.5 14 5.9 2 1.1 4.6 4.4 4.5 6.3-.2 2.4-2.8 5.7-4.9 6.5-7.7 2.9-12.8-1.7-15.8-10.4-3.1 1.2-5.6 2.2-8 3.1 3.4 15.2 17 22.2 29.7 14.2 4.1-2.6 8.3-9.9 8.6-15.3.2-4.8-4.4-11.1-8.2-14.5s-9.4-3.6-14-6c-2-1.1-3.4-4.1-5-6.2 2-1.7 4.1-4.7 6.1-4.7 2.9-.1 6 1.6 8.8 3.1 3.4 2 6.6 4.5 11.6 8m19.2-69h20c1.6 9.5 4.7 15.7 13.8 11.1-5.1-17.3-9.9-34.6-15.5-51.5-.9-2.7-5.1-5.1-7.8-5.1-3 0-7.9 2-8.8 4.8-5.6 17.1-10.4 34.7-15.6 52.7h10.3c1.2-4.2 2.3-7.8 3.6-12m-854.2 67.8c.5-1 1.1-2 1.6-3-2.7-13.8-14.3-20.7-26.2-14.1-4.1 2.3-8.9 8.8-9.1 13.6s4.3 11.2 8.1 14.6 9.4 3.5 14 5.8c2.1 1.1 5.3 4.7 4.9 5.9-.8 2.9-3.1 6.4-5.4 7.2-7.3 2.7-12.3-1.7-15.4-10.4-3 1.2-5.8 2.2-8.5 3.2 4.4 15.1 16.9 21.7 29.5 14.3 4.2-2.4 7.9-9.2 9.2-14.9 1.7-7.2-2.4-13-8.3-15.6-4.4-1.9-9.1-2.9-13.3-5.3-2.2-1.2-3.7-4.5-5.4-6.8 2.4-1.6 4.8-4.3 7.3-4.4 2.6-.2 5.3 1.9 7.8 3.5 3.2 1.9 6.1 4.3 9.2 6.4m-286.8-20.5c-5.1 1.9-13 2.1-14.3 5.8-6.3 17.1-10.8 35.3-16.6 55.6 5.1-1.9 11-2.6 11.3-4.4 1.9-12.9 9.6-10.2 16.2-9.8 2.7.1 7.2 2 7.6 3.9 1.9 9.7 6.6 10.2 13.3 7.7-5.8-19.1-11.4-37.9-17.5-58.8m455.8 2.1c0 14.5-.6 28.4.2 42.3.6 10.8 7.8 15.8 20 15.5 10.6-.3 16.8-5.6 17.2-16.7.6-13.6.1-27.2.1-41H657c0 12.4-.1 24.2 0 36 .1 8.1-2.5 13.2-9.8 12.9-7.1-.2-9.8-5.2-9.7-13.3.1-11.8 0-23.5 0-35.7zm725.7 53.4c7.8 6.1 15.5 6.7 19.3-1.3 3.3-7 4.5-17 3.4-25-.7-4.8-7.1-10.5-11.7-11.9-6.4-2-13.6-.5-20.5-.5v60h9c0-3.5-.1-6.7 0-9.9s.3-6.3.5-11.4m-481.7-37.2c-5-13.7-13.5-19.1-24.4-16.4-11.1 2.7-17.9 14.5-17.5 30.6.3 14.1 7.2 24.9 17.6 27.2 11.4 2.6 20-3.2 24.6-17.1-2.8-1.4-5.7-2.7-8.9-4.3-2.3 8.5-6 14.6-13.6 12.4-6.7-1.9-8.9-8.7-9.1-16.4-.2-9-.8-18.6 7.8-23 7.7-3.9 11.8 2.5 15.3 10 2.6-1 5.1-1.9 8.2-3m-228.1-74.6c.1 1.2.2 2.3.3 3.5-4.7 3-9.4 8.5-14 8.5-8-.1-9.7-9.3-10-17.4-.3-8.6-.2-17.8 8-21.8 7.8-3.8 11.8 2.7 15.4 10.3 2.9-1.3 5.5-2.4 8-3.5-3-15-16.2-18.5-25.1-15.9-11.1 3.3-17.2 15-16.5 31.4.6 14.2 7.8 24.4 18.3 26.2 11.7 2 19.6-3.6 23.4-17.1zm805.8 20.9h9.4c0-8.6-.7-16.9.3-24.9.4-3.4 4.5-6.1 6.9-9.1 1.8 3 4.9 5.9 5.2 9.1.8 8.1.2 16.3.2 25.4 3.8-.2 6.6-.4 9.8-.6v-20.1c0-21.8-5.5-26.6-22.8-18.9v-18.1h-9.2c.2 19.3.2 37.9.2 57.2m-1 95.6c3.7-.4 6.5-.7 9.7-1 0-8.8-.7-16.8.3-24.4.5-3.4 4.4-6.2 6.7-9.2 1.9 3 5.1 5.9 5.4 9.1.8 8.1.3 16.3.3 24.7h9.4c0-9.9.3-19.3-.1-28.5-.4-10.9-7.3-16.5-15.9-13.4-1.8.7-3.6 1.9-6.5 3.5v-19.4c-3.8.4-6.5.6-9.3.9zm-341.2-96.7c0-7.7-.1-16.1 0-24.5.1-8.8-1.9-15.6-10-17.1-10.5-2-16.1 1.7-19.7 15.3 4.4-1.8 7.6-2.5 10.2-4.4 5.5-4.1 8.6-3 9.7 5.9-4.6 1.5-9.6 1.8-13.3 4.6-3.4 2.6-7.8 8.6-7.2 11.8.7 4 6 8.9 9.7 9.5 6.9 1.1 14.2-.6 20.6-1.1m-51.7 76.9c-.5-15.4-4.7-22.3-13.6-23.6-9.1-1.4-16.2 4.5-18.4 15.3-2.3 11.3 1.4 22.2 9.1 26.2 8.7 4.6 16.4 1.6 22.7-10.4-4.6.6-8.3.3-11.4 1.7-6.7 3.1-9.5 1.1-10.2-9.2zm582.1 19c0-8.4-.8-16.4.3-24 .6-3.7 4.7-6.6 7.2-9.9 1.7 3.2 4.6 6.2 4.9 9.6.7 8 .2 16.2.2 24.3h9.7c0-10.5 1-20.6-.4-30.3-.7-4.6-5.5-11-9.1-11.7-7.1-1.5-14.7.3-22.1.8v41.2zm-511.8-94.2c0-9-.8-17.1.3-24.6.6-3.7 4.7-6.6 7.2-9.9 1.7 3.2 4.6 6.3 4.9 9.7.7 8 .2 16.1.2 24.2h9.7c0-10.5.9-20.6-.4-30.4-.6-4.5-5-10.9-8.3-11.6-7.5-1.4-15.3.3-23 .7v41.3c2.9.2 5.5.3 9.4.6m-176.5 94.5c0-10.7 1-21.1-.4-31.1-.6-4.5-5.6-10.5-9.3-11.3-7-1.5-14.4.2-21.9.6v41.5h9.6c0-8.3-.8-16.3.3-23.9.5-3.7 4.6-6.7 7-10 1.7 3.2 4.6 6.2 4.9 9.5.7 8 .2 16.2.2 24.6 3.5.1 5.8.1 9.6.1m571.7-42.6h-9.4c0 8.9.6 17.6-.3 25.9-.3 3-4.4 5.4-6.7 8.1-1.8-2.7-4.8-5.3-5.1-8.2-.7-8.4-.2-17-.2-26.3-3.9.3-6.7.5-9.8.8 0 10.2-.2 19.5.1 28.8.2 7.7 3.4 13.2 10.1 13.7 7 .5 14.1.1 21.4.1-.1-14.7-.1-28.3-.1-42.9M336.3 274.2c0 9 .6 17.6-.3 26-.3 3-4.4 5.3-6.8 7.9-1.7-2.8-4.7-5.4-5-8.3-.7-8.4-.2-17-.2-26.3-4 .4-6.7.6-9.8.9 0 10.2-.2 19.5.1 28.8.2 7.7 3.4 13.2 10.2 13.6 7 .5 14.1.1 21 .1v-42.8c-3 .1-5.6.1-9.2.1m-75.9.1H251c0 10.3-.1 19.9 0 29.6.1 7.5 3.5 12.5 9.6 12.8 7.1.4 14.2-.6 21.7-1.1v-42c-3.2.2-6 .4-9.5.6 0 9 .6 17.3-.3 25.4-.4 3.1-4.1 5.7-6.3 8.5-1.9-3-5.2-5.7-5.5-8.9-.8-8-.3-16.3-.3-24.9m1329.1 109.2c4.5-1.5 7.9-1.6 10.3-3.6 5.4-4.5 7.9-3.5 9.8 5.8-4.5 1.4-9.4 1.8-13.3 4.5-3.2 2.3-7.7 8.2-7 10.9 1 4.3 5.6 9.6 9.2 10.1 7.1 1.2 14.6-.5 22.2-1-.4-3.2-1-7-1.2-10.9q-.3-6.45 0-12.9c.4-8.7-1-15.8-9.3-17.7-10.1-2.3-16 1.2-20.7 14.8m-1062.9-29c8.1 18.1 22.4 33.3 16.5 57.5 4.1-.4 6.4-.5 8.7-.8.2 0 .5-.3 1.6-1.2-5.6-22.8 8.9-37.7 16.6-55.8-7.3-.9-7.3-.9-21.6 20.2-7.3-6.2-5.7-26.2-21.8-19.9m798.9 14.5c0 9.1.6 17.4-.3 25.4-.4 3.1-4.1 5.7-6.3 8.5-2-2.9-5.4-5.6-5.7-8.8-.8-8.1-.3-16.4-.3-25h-9.4c0 10.2-.2 19.8.1 29.4.2 8 3.9 12.9 10.5 13 6.8.2 13.7-.7 20.9-1.2v-41.4c-2.9.1-5.4.1-9.5.1m-1041.3-.4c-10.4.2-17.9 9.2-17.9 21.5 0 13.1 7.5 21.8 18.5 21.7 10.5-.1 18.3-9.9 17.9-22.6-.3-12.3-8-20.8-18.5-20.6m983.8-66.1c-.2 1.7-.3 3.3-.5 5-3.8-.6-7.6-1.1-11.3-1.9-3.5-.8-6.9-1.9-12.5-3.5 7.1 13.9 15 18.3 24.1 13.8 3.9-1.9 7.9-7.4 9.2-12.3 1.9-7.5-3.9-10.3-8.7-12.3-4.3-1.8-8.7-2.9-13.1-4.3.1-1.3.3-2.6.4-3.9 6.6.7 13.1 1.4 21.5 2.2-6.4-13.6-14.7-13.1-22.3-10.6-3.5 1.1-7.6 7.3-8.1 11.7-.4 3.3 4.2 8.5 7.5 10.9 4.1 2.9 9.2 3.6 13.8 5.2m-902.8 94c6.5 14.1 14.4 18.8 23.7 14.4 4.1-1.9 8.6-8.1 9.2-13 .4-3.3-5.2-8.8-8.9-11.6-3.6-2.7-8.3-3.1-12.6-4.6.2-1.3.4-2.6.6-3.8 6.6.8 13.1 1.6 21.3 2.6-6.2-11.5-14.3-15.3-22.6-10.9-3.4 1.8-7.5 7.1-7.7 11.1-.2 3.7 3.9 9 7.1 11.3 4.2 3 9.5 3.8 14.3 5.6-.2 1.4-.3 2.9-.5 4.3-3.7-.4-7.5-.4-11.2-1.2-3.5-.7-6.9-2.2-12.7-4.2m121-27.9c-10.4.1-17.9 9.1-17.9 21.4-.1 13.1 7.4 21.9 18.4 21.8 10.5-.1 18.3-9.8 18-22.5-.3-12.3-8-20.9-18.5-20.7m423.7 41.6c-.4-3.4-.9-7.2-1.1-11.1q-.3-6.45 0-12.9c.5-8.8-1.3-15.7-9.4-17.5-10.1-2.3-16 1.3-20.6 14.8 4.5-1.5 8-1.7 10.4-3.7 5.4-4.4 7.8-3.4 9.5 5.9-4.2 1.3-8.9 1.5-12.5 4.2-3.4 2.6-5.5 7.7-8.2 11.6 3.6 3.4 6.8 9 10.7 9.8 6.7 1.2 13.7-.6 21.2-1.1M585.2 286c-5.7-13.9-13.9-13.6-21.2-11.5-3.8 1.1-8.4 7-9.2 11.7-.5 3.1 4.5 8.7 8 11.4 3.9 2.9 8.8 3.7 13.3 5.5-.2 1.4-.4 2.8-.5 4.2-3.6-.3-7.2-.1-10.6-.9-3.7-.8-7.2-2.5-13-4.5 5.6 15.4 13.8 16.1 22.3 14.8 5.9-.9 10.8-4.6 11.3-12.8.5-8.3-4.7-10.7-10-12.7-4.1-1.5-8.2-2.8-12.4-4.2.2-1.4.5-2.7.7-4.1 6.5.9 13 1.8 21.3 3.1m247.5 15.5c6.2 14.1 14.1 18.9 23.5 14.5 4.1-1.9 8.7-8 9.3-12.9.4-3.3-5.1-8.8-8.9-11.6-3.6-2.7-8.4-3.1-12.7-4.6.2-1.3.4-2.7.6-4 6.6.9 13.2 1.7 21.2 2.7-5.4-13.8-13.9-13.2-21.4-11.1-3.6 1-8.5 6.9-8.8 11.1-.3 3.6 4.3 9.1 7.8 11.7 3.9 3 9 3.7 13.6 5.4l-.3 4.2c-3.7-.3-7.4-.2-11-1-3.8-.7-7.2-2.3-12.9-4.4m829.6-15.6c-5.3-13.8-13.5-13.6-20.8-11.5-3.9 1.1-8.6 6.8-9.5 11.4-.6 3 4.3 8.9 7.8 11.6 3.9 3 8.9 3.7 13.4 5.4-.1 1.2-.2 2.5-.3 3.7-3.6 0-7.2.5-10.6-.1-3.7-.7-7.2-2.6-10.8-3.9 3.3 14.7 11.7 16.3 19.8 13.8 4.4-1.4 9.7-7.3 11.1-12.5 2.1-7.7-4.3-10.6-9.5-12.6-4.1-1.6-8.4-2.8-12.6-4.2.2-1.4.5-2.8.7-4.2 6.4.9 12.9 1.9 21.3 3.1m-247.1 106.7c.4-14.5-3.5-21.8-11.9-23.8-8.4-2.1-16.1 3.2-18.9 12.8-3.3 11.3 0 23.4 7.4 28.1 8.3 5.2 17 2.3 24-9.6-4.6.4-8.4-.3-11.4 1.1-6.9 3.2-9.2 1.9-10.7-8.6zM411.1 297.5c0-15.2-4.2-22.3-13.2-23.7-8.7-1.4-15.8 4.2-18.2 14.2-2.7 11.2.7 22.5 8 26.9 8.5 5.1 17.1 2.1 23.6-10-4.6.6-8.3.1-11.4 1.6-6.7 3.1-9.3 1.4-10.4-9zm358-.1c-.3-15.4-4.5-22.3-13.6-23.6-8.7-1.2-15.8 4.5-18 14.5-2.7 11.8 1.1 23.1 9.1 27.1 8.8 4.4 16.5 1.3 22.3-10.7-4.6.7-8.2.5-11.4 2-6.6 3.1-9.5.9-10-9.3zm471.1.1c-.4-15.6-4.6-22.5-13.7-23.7-8.7-1.2-15.8 4.5-18 14.6-2.6 11.8 1.2 23 9.2 27 8.8 4.4 16.5 1.2 22.2-10.8-4.6.8-8.2.7-11.3 2.1-6.5 3.1-9.5.7-9.9-9.2zm-751-2.9c-.2-12.5-7.7-21.1-18.4-20.9-10.6.2-17.8 9-17.7 21.8.1 13.3 7.5 21.8 18.8 21.5 10.3-.4 17.5-9.6 17.3-22.4m276.3 94.9c-.2-12.5-7.7-21.1-18.4-20.9-10.6.2-17.8 9-17.7 21.8.1 13.3 7.5 21.8 18.8 21.5 10.3-.5 17.5-9.7 17.3-22.4m370.2.5c0-12.7-7.3-21.4-17.9-21.4-10.7 0-18 8.5-18.1 21.2-.1 13.4 7.1 22.1 18.3 22 10.4-.1 17.7-9.1 17.7-21.8m-809.3-21.4c-10.7-.2-18.2 8.2-18.5 20.8-.3 13.5 6.8 22.4 17.9 22.4 10.5.1 17.9-8.7 18.1-21.3.2-12.8-6.9-21.7-17.5-21.9m906 23.9c-.4-15.4-4.8-22.6-13.7-23.9-9.1-1.4-16.3 4.7-18.2 15.6-2.3 12.6 1.7 23 10 26.6 8.7 3.7 16.2.3 21-10.8-4 .4-7.6-.5-10.3 1.1-7.4 4.5-10 .4-11.8-8.5 8-.1 15.2-.1 23-.1m-720-118.8c-10.7-.1-18.1 8.5-18.3 21.1-.2 13.3 7.1 22.1 18.3 22.1 10.5-.1 17.8-9 17.8-21.7s-7.2-21.4-17.8-21.5m182.5 21c-.2-12.6-7.6-21.1-18.3-20.9-10.6.2-17.8 9-17.8 21.7 0 13.3 7.5 21.8 18.8 21.5 10.3-.4 17.5-9.6 17.3-22.3m826.2 2.8c-.4-15.8-5.1-22.9-14.6-23.8-8.9-.8-15.4 5.1-17.3 15.6-2.2 12.6 1.7 23 10.1 26.6 8.7 3.7 16.2.3 21-10.9-3.9.4-7.6-.4-10.3 1.2-7.4 4.5-10 .4-11.8-8.7zm-714.6 92.9c.1-12.8-7-21.6-17.6-21.8-10.7-.2-18.2 8.2-18.5 20.8-.3 13.4 6.9 22.3 18 22.4 10.5 0 18-8.8 18.1-21.4m819.2-92.9c-.6-15.5-5-22.5-14-23.7-8.4-1.1-15.4 4.3-17.7 13.7-2.8 11.5.3 22.8 7.5 27.3 8.3 5.3 17.1 2.4 24.1-9.5-4.6.4-8.4-.5-11.3 1.1-7.5 4.2-10 .1-11.5-8.9zM210.9 258.7v57.5h9.1v-25.1h12.7c7.1-.1 7.1-.1 6.2-9.1h-18.6v-14.7h22.1c.5-1 .9-2 1.4-3.1-1.8-1.8-3.5-5.1-5.4-5.2-9-.6-18-.3-27.5-.3m978.2 24.3c-3.9 12.4-16.5 18-15.5 34 9.1 0 17.3-.3 25.5.1 5.8.2 6.1-2.9 4.6-9.1h-16.6c4-12.6 16.9-18.1 16.1-34.1h-22.6c-1.7 0-3.4.2-5.1.3-.6 7.6-.6 7.6 13.6 8.8M479.8 90.5c3.4.9 8.6 2.9 13.8 3.4 6.7.6 13.4.2 13-11.8-.3-10.2-2.6-13.1-13.4-12.5-5.2.3-10.3 2.6-13.2 3.4-8.1-1.4-14.4-3.1-20.8-3.3-6.1-.2-9.4 3.8-9.4 12.2 0 8.6 3.4 12.2 9.5 11.9 6.4-.3 12.7-2 20.5-3.3m-224.6 321V363c13.8-1.4 13.8-1.4 12.7-8.8h-37c.1 14.2 9.9 4.4 14.3 10.5v46.7c3.4.1 6 .1 10 .1m1166.2-141.6v47.2c3.7-.3 6.4-.4 10-.7v-48.5c13.9-1.1 13.9-1.1 12.4-8.9H1407c-.3 14.2 9.2 5.3 14.4 10.9M693 353.5c.3 14.7 9.9 5.3 14.3 11.1v46.7h10.1v-48.2c13.8-1.7 13.8-1.7 12.8-9.6zm393.6 40.4c-3.3 6.9-7.3 14.3-12.5 5.6-2.6-4.3-1-12.6-.3-18.9.1-1 5.9-1.7 8.9-1.3 3.5.6 6.9 2.6 10.4 3.9-3.7-13.3-10.6-17.2-19.5-14.2-7.5 2.6-12 10.8-11.9 21.5.2 11.2 5.3 19.3 13.4 21.1 9.2 2 15.3-2.3 19.5-14.1-2.4-1-4.8-2.1-8-3.6M805.7 288.7c.3-1.2.7-2.4 1-3.6-4.9-10.4-11.7-14-20.5-10.6-7.9 3-12 11.5-11.2 22.9.8 11.5 6 18.5 14.6 19.5 9.5 1.1 14.5-3 17.8-14.7-2.5-.9-5-1.8-7.3-2.6-6 9.5-11.1 11.5-13.4 4.8-1.8-5.3-1-12.3-.1-18.2.2-1.3 5.9-2.3 8.8-1.9 3.6.5 6.9 2.9 10.3 4.4m-364.5 27.7v-48.2c13.8-1.7 13.8-1.7 12.9-9h-36.4c-.7 14.9 10.2 4.1 14.2 11.5v45.8c3.5-.1 6-.1 9.3-.1m-138.7-56.2c-7.4 2.7-16.6 16.2-13.4 19.7 6.5 7.3 2.6 15.7 3.8 23.4.5 3.1.2 8 1.6 9 3.5 2.5 7.8 3.4 11.9 4.2.9.2 2.2-3.1 3.3-4.8-2.1-1.8-4.1-3.6-6.8-5.9v-20.2c2.8-3.3 4.6-5.4 6.4-7.4-2-2.2-4.1-4.5-6.8-7.5zm521.4-.9c-10.5 6.4-13 14.1-9.3 25.1.6 1.9.3 4.2.3 6.4 0 5-.2 10 .1 15 .5 9 6.8 14 13.7 10.8 1.2-.5 2.7-2.3 2.7-3.4-.1-1.7-1.3-3.4-2.2-5-1.6-3-4.2-5.7-4.7-8.9-.8-5.1-.2-10.5-.2-13.2 3.2-3.7 5-5.8 6.8-7.9-2-2.2-4-4.4-6.6-7.3-.3-2.7-.4-6.5-.6-11.6M276.1 66.5c-.3-1.5-.6-2.9-.9-4.4-4.4 1.8-9.7 2.3-12.9 5.7-3.9 4.2-1.8 21.6 2.5 26.1.6-4.1 1.2-7.7 1.9-12.2h22.9c2.6 11.2 13.1 16.5 24.2 11.4 5.9-2.7 7.1-11.3 2.3-23.1-1.3 3.5-2.3 7.2-2.2 10.9.3 9.5-5.2 7.7-9.6 7.9-4.5.2-9.1.5-8.6-8 .2-3.7-.7-7.4-1.4-13.1-5.1 9-17.3 10.7-30.2 5.1 5-2.7 8.5-4.5 12-6.3m1404.5 193.8c-.8-.6-1.6-1.2-2.4-1.9-3.8 6.2-7.7 12.4-11.3 18.8-.5.9.6 3.1 1.1 4.6 1.1 3.2 2.9 6.2 3.2 9.5.6 5.6-.1 11.5.5 17.1.7 7.2 9.9 12 14.4 7.5.9-.9-.1-5.4-1-7.8-1-2.9-3.8-5.2-4.2-8.1-.7-5.2-.2-10.6-.2-14.6 2.8-3 4.8-5.2 6.8-7.4-2.1-2.2-4.2-4.4-7-7.3.1-2.6.1-6.5.1-10.4M702.3 317c3.5-.2 6.3-.3 9.2-.5v-57.3h-9.2zm-351.2 94.3h9.2v-57.2h-9.2zm186.6-152.2v57.4h9.2v-57.4zm834.2 0v57.4h9.2v-57.4zm-350 57.4c0-6.8-.1-13.2 0-19.5.1-6.4.5-12.1 7.8-12.7 2-.2 3.7-4.6 7.3-9.4h-24.7v41.6zM378 277.4c-.4-.9-.9-1.8-1.3-2.6h-21.3V317c3.3-.2 6.1-.4 9.4-.6v-18.9c.1-6.8.4-12.9 8.2-13.3 1.7-.1 3.3-4.4 5-6.8m1069 92.3h-23.9v41.5h9.6c0-5.5-.1-10.5 0-15.5.2-7.7-1.3-16.6 9-16.8 1.3 0 2.6-4.5 5.3-9.2m-1097.6 506c-3.1-.9-7-.8-7.5-2.3-4.4-13.9-9.9 1.8-15.1-.8-1.8-.9-8.6.8-10.9-2.1-1.1-1.4-3.8-3.1-4.4-2.5-1.7 1.5-3.4 4.1-3.7 6.5-.3 3.4.6 6.9 1.1 10.5 11.4-.1 23.5-4.8 35.4 5.5 1.5-4.6 3.2-9.6 5.1-14.8m1003.9-616.6v57.2h8.3v-57.2zm-623.6 57.3v-57.9c-3.3.3-6 .5-8.5.7v57.2zM195.4 354v57.2h8.3V354zm764.7 199.2c.6-1.6 1.3-3.3 1.9-4.9 3.6 2.4 7 5.1 10.7 7 3 1.6 6.4 2.1 10 3.3v-20.4c-7 13.4-18.8-1.9-24.9 5.3-5.3 0-9.4-.8-12.9.5-1.2.4-2.4 7-1.4 9.1 1.4 2.9 5 4.1 7.7 6 .3-.7.6-1.3.9-2-2.1-1.5-4.1-3-6.2-4.6.6-1.4 1.2-2.7 1.8-4.1 3.6 2.3 7.1 4.7 10.7 6.8 2.6 1.5 5.4 2.4 8.1 3.6.1-.7.3-1.4.4-2.1-2.1-1.1-4.5-2.3-6.8-3.5m711-199.4c.9 13.4 1.6 25.8 2.6 38.2.1 1.7 2.2 3.1 3.3 4.6.9-1.5 2.3-3 2.5-4.5 1-12.6 1.7-25.2 2.5-38.3zM721 556.8c-2.3-1.4-4.7-2.7-7-4.1.5-1.3 1-2.7 1.4-4 4.5 2.1 9 4.3 13.1 6.3 1-7.7-5.6-14.4-9.9-13-6.9 2.3-12.9-1.6-19.2-.2-.5.1-.9.8-1.2 1.1v24c6.2-15.1 14.7-10.6 22.8-10.1M530 73.2l-.6-3.6c-3.8.8-7.8 1.2-11.4 2.8-1.1.4-2 5.8-1.6 6.1 3 2.3 6.3 4.3 9.7 5.4 3.2 1.1 6.6 1 10 1.4-.1 1-.2 1.9-.2 2.9-6.5.4-13 .8-19.4 1.2v4.2c6.4 0 12.8.6 19.1-.3 2.1-.3 3.9-4.3 5.9-6.6-2.2-2.4-4.1-5.8-6.6-6.8-4-1.6-8.5-1.7-14.8-2.7 4.7-2 7.3-3 9.9-4m628.9 201v42.2h8.5v-42.2zM795.1 556.3c.3-.1.6-.1.9-.2 3.6 0 8 1.5 10.4-.5 1.7-1.4.5-7.7.6-11.8h-11.4l-.2-.2h-11.7c.1 4.2-1.1 10.8.6 12.2 2.6 2 7.1.5 10.8.5M435.5 93.9c1.3 0 2.7 0 4-.1.5-8.2 1.1-16.4 1.6-24.2 4-.9 7.2-1.7 10.3-2.4l-.3-2.7h-27.4c-.1.8-.1 1.7-.2 2.5 3.5 1 7 2 10.4 3 .6 8.4 1.1 16.2 1.6 23.9m440.3 471.2c2.4-5.4 4.8-11 7.4-16.7.8 2.2 1.2 5.2 2.6 6.3 2.2 1.7 5.9 3.8 7.4 2.7 2.2-1.7 4.2-6.2 4-9.3-.1-2.5-3.7-6.9-5.5-6.7-4.9.5-9.6 3-15.3 5-.1-.2-1.7-2.6-4.5-7 1.5 9.6 2.5 16.4 3.9 25.7M1541 677.3c0-15.5 0-15.5-11.4-15.5-13.4 0-13.4 0-13.4 14.1 0 16 0 16 11.8 16.1 13 0 13 0 13-14.7M364.8 69.8c-.9-.1-1.7-.2-2.6-.2-.3 3.5-1.2 7.1-.9 10.6.6 8.9-4.2 8.6-9.1 8.6-5 .1-9.6.3-9-8.6.2-3.4-1.1-7-1.7-10.5-1.5.5-3 .9-4.5 1.4 1.6 7.1 2 19.2 5.2 20.4 6.7 2.6 15.9 1.8 22.1-2.1 4.1-2.7 3.1-13 .5-19.6m389.7 674.6c0-15.7 0-15.7-11.2-15.8-13.6 0-13.6 0-13.6 13.9 0 16.3 0 16.3 11.6 16.3 13.2 0 13.2 0 13.2-14.4m-286.9-1.3c0 15.7 0 15.7 11.2 15.7 13.6 0 13.6 0 13.6-13.9 0-16.3 0-16.3-11.7-16.3-13.1 0-13.1 0-13.1 14.5m-250 15.7c12.6 0 12.6 0 12.6-14 0-16.2 0-16.2-11.7-16.2-13.1 0-13.1 0-13.1 14.5 0 15.7 0 15.7 12.2 15.7m786.2 66.8c12.8 0 12.8 0 12.9-13.7 0-16.4 0-16.4-11.5-16.5-13.3 0-13.3 0-13.3 14.3 0 15.9 0 15.9 11.9 15.9m0-66.8c12.9 0 12.9 0 12.9-13.7 0-16.5 0-16.5-11.5-16.5-13.3 0-13.3 0-13.3 14.2 0 16 0 16 11.9 16m-592.9 285.1c0-15.6 0-15.6-11.3-15.7-13.5 0-13.5 0-13.5 14 0 16.2 0 16.2 11.7 16.2 13.1.1 13.1.1 13.1-14.5M492.4 878c0-15.7 0-15.7-11.2-15.7-13.6 0-13.6 0-13.6 13.9 0 16.2 0 16.2 11.7 16.3 13.1 0 13.1 0 13.1-14.5m-262.1 0c0-15.7 0-15.7-11.2-15.7-13.6 0-13.6 0-13.6 13.9 0 16.2 0 16.2 11.7 16.3 13.1 0 13.1 0 13.1-14.5m1178.2 150.3c-12.8 0-12.8 0-12.8 13.8 0 16.4 0 16.4 11.6 16.4 13.2 0 13.2 0 13.2-14.3 0-15.9 0-15.9-12-15.9m-214.7 14.6c0 15.5 0 15.5 11.4 15.5 13.4 0 13.4 0 13.4-14.1 0-16.1 0-16.1-11.8-16.1-13 0-13 0-13 14.7m85-165.1c0-15.5 0-15.5-11.4-15.5-13.4 0-13.4 0-13.4 14.1 0 16.1 0 16.1 11.8 16.1 13 0 13 0 13-14.7m-274-15.5c-12.9 0-12.9 0-12.9 13.6 0 16.5 0 16.5 11.4 16.6 13.4 0 13.4 0 13.4-14.2 0-16 0-16-11.9-16m-250.3 15.6c0-15.6 0-15.6-11.3-15.7-13.5 0-13.5 0-13.5 14 0 16.2 0 16.2 11.7 16.2 13.1.1 13.1.1 13.1-14.5m-524.2-67.3c0-15.2 0-15.2-11.7-15.2-13.1 0-13.1 0-13.1 14.5 0 15.7 0 15.7 12.1 15.7 12.7 0 12.7 0 12.7-15m524.2.5c0-15.6 0-15.6-11.3-15.6-13.5 0-13.5 0-13.5 14 0 16.1 0 16.1 11.8 16.1 13 .1 13 .1 13-14.5m-274-254.7c-.9-.5-3.3-2-5.7-3.5.2-.7.4-1.5.6-2.2 3-.6 5.9-1.1 8.9-1.7l.9-2.7c-2.6-1.7-6.7-5.7-7.6-4.8-7.4 7.1-12.3-1.6-18.6-3.8v18.8c7.8-.1 15.1-.1 21.5-.1m524.2 471.9c-12.8 0-12.8 0-12.8 13.8 0 16.4 0 16.4 11.6 16.4 13.2 0 13.2 0 13.2-14.3 0-15.9 0-15.9-12-15.9M790 1043c0 15.4 0 15.4 11.5 15.4 13.3 0 13.3 0 13.3-14.2 0-15.9 0-15.9-11.9-16-12.9 0-12.9 0-12.9 14.8M217.5 692c12.7 0 12.7 0 12.8-13.9 0-16.3 0-16.3-11.6-16.3-13.2 0-13.2 0-13.2 14.4-.1 15.8-.1 15.8 12 15.8M600 1058.4c12.8 0 12.8 0 12.8-13.8 0-16.4 0-16.4-11.6-16.4-13.2 0-13.2 0-13.2 14.3 0 15.9 0 15.9 12 15.9M492.4 677.2c0-15.4 0-15.4-11.4-15.5-13.3 0-13.3 0-13.4 14.2 0 16 0 16 11.9 16 12.9.1 12.9.1 12.9-14.7M741.7 692c12.8 0 12.8 0 12.8-13.8 0-16.4 0-16.4-11.5-16.4-13.3 0-13.3 0-13.3 14.3 0 15.9 0 15.9 12 15.9m250.2-15.4c0 15.4 0 15.4 11.5 15.4 13.3 0 13.3 0 13.3-14.3 0-15.9 0-15.9-11.9-15.9-12.9 0-12.9 0-12.9 14.8m274.5 15.4c12.5 0 12.5 0 12.5-14.2 0-16 0-16-11.9-16-12.9 0-12.9 0-12.9 14.7-.1 15.5-.1 15.5 12.3 15.5m12.4 252.9c0-15.7 0-15.7-11.2-15.8-13.6 0-13.6 0-13.6 13.9 0 16.3 0 16.3 11.6 16.3 13.2 0 13.2 0 13.2-14.4m-274.9 14.4c12.7 0 12.7 0 12.8-13.9 0-16.3 0-16.3-11.6-16.3-13.2 0-13.2 0-13.2 14.4 0 15.8 0 15.8 12 15.8m-249.4-14.5c0-15.7 0-15.7-11.3-15.7-13.5 0-13.5 0-13.5 14 0 16.2 0 16.2 11.7 16.2 13.1 0 13.1 0 13.1-14.5m-274.8 14.5c12.7 0 12.7 0 12.7-14 0-16.2 0-16.2-11.7-16.2-13.1 0-13.1 0-13.1 14.5 0 15.7 0 15.7 12.1 15.7m-249.4-15.6c0-14.6 0-14.6-12.1-14.6-12.7 0-12.7 0-12.7 15 0 15.2 0 15.2 12.6 15.2 12.2 0 12.2 0 12.2-15.6m1297.9-51.2c12.8 0 12.8 0 12.8-13.8 0-16.4 0-16.4-11.6-16.4-13.2 0-13.2 0-13.2 14.3-.1 15.8-.1 15.8 12 15.9m.7-97.1c-12.7 0-12.7 0-12.7 13.9 0 16.3 0 16.3 11.6 16.3 13.2 0 13.2 0 13.2-14.4 0-15.7 0-15.7-12.1-15.8m-263 30.2c12.9 0 12.9 0 12.9-13.7 0-16.5 0-16.5-11.5-16.5-13.3 0-13.3 0-13.3 14.2 0 16 0 16 11.9 16m262.2-66.8c12.8 0 12.8 0 12.9-13.7 0-16.4 0-16.4-11.5-16.5-13.3 0-13.3 0-13.3 14.3-.1 15.9-.1 15.9 11.9 15.9m-249.3-14.5c0-15.6 0-15.6-11.3-15.7-13.5 0-13.5 0-13.5 14 0 16.2 0 16.2 11.7 16.2 13.1 0 13.1 0 13.1-14.5m-799.2 81.3c12.8 0 12.8 0 12.8-13.8 0-16.4 0-16.4-11.6-16.4-13.2 0-13.2 0-13.2 14.3 0 15.9 0 15.9 12 15.9M323 92.9l4.2 1.2c.5-4.4.3-9.2 1.7-13.1 1.4-3.7 4.6-6.3 7-9.4-3.6-2.7-7.2-5.4-13-9.8.1 11.5.1 21.3.1 31.1M128.4 549c-3.7-2.2-7-4.1-10.2-6 .2-1 .4-1.9.5-2.9l8.1 1.5c-2.2-3.1-5.1-4.6-7.8-4.4-1.3.1-3.8 4.4-3.5 4.9 1.3 2.3 3.6 3.8 5.2 5.9 1.7 2.4 3.1 5.1 4.6 7.8 4.3.6 9.5 1.3 16 2.3-3.7-2.6-5.9-4.2-9.8-6.9 5.4-1.2 8.3-1.9 11.5-2.7-5.4-10.3-7.9-10.2-14.6.5m172.7 12c0 1.1-.1 2.1-.1 3.2 2.8-.3 7.8.3 8.2-.9 1.8-6.7 2.4-13.8 3.4-20.5-7.2-3.1-12.5-1.8-12.5 5.9 0 4.3 4.4 8.6 7.1 13.3-2-.3-4-.6-6.1-1M187.2 259.3h-9.9c-1.1 18.8.1 21.5 8.4 19.6.5-3.1 1.2-6.2 1.5-9.4.2-3.1 0-6.3 0-10.2m5.6-.2c-3.1 14.9-.8 21.3 8.1 20 .4-6.4.9-12.9 1.3-20zm1509.5 95.3h-10.4c-1.7 17.4-.4 20.8 8.3 19.6.7-6.1 1.3-12.4 2.1-19.6m3.1-.6c.8 7.8 1.4 14.2 2.1 20.6 8.6.3 10.3-4.6 7.9-20.6zM243.7 566.1c2.8-8.4 5.2-15.8 7.6-23.2-.7-.4-1.4-.8-2.1-1.1-1.3 2.9-2.6 5.9-4 9.1-4.1-11.1-4.1-11.1-12.6-7.8v14.1c.5.1 1 .1 1.5.2.8-4.6 1.5-9.2 2.3-13.8 1.1-.1 2.3-.1 3.4-.2 1.2 6.7 2.3 13.4 3.9 22.7m430.6-5.1v-23.1c-.9-.5-1.9-1.1-2.8-1.6-2.8 5.4-5.6 10.8-8.4 16.3zm568.3 490.1c.2-.7.5-1.3.7-2 1.8 2.3 3.6 4.6 5.7 7.3 5.3-15.1-1.9-19-11.2-22.7 1.7 3.7 2.9 6.3 5.1 11.1-4.8.5-8.9 1-12.9 1.4-.1.7-.2 1.5-.3 2.2 4.3 1 8.6 1.8 12.9 2.7m-611.4-501c-4-4.1-6.5-8.6-8.9-8.5-2.3 0-6.6 4.9-6.4 7.2.3 3.4 3.4 8 6.1 9 1.7.7 4.9-3.9 9.2-7.7m216.6 12.3c3.6-5.8 7.2-9.2 6.9-11.8-.4-3.5-4-6.4-6.2-9.6-2.1 2.8-5.7 5.4-6 8.5-.3 3 2.6 6.6 5.3 12.9m-430.9-13.1c-4.2-3.7-7.4-8.4-9.2-7.7-2.7 1-5.7 5.6-6 9-.2 2.3 4.1 7.2 6.4 7.2s4.8-4.4 8.8-8.5m90.8-12.3c-2.8 6.3-5.6 9.9-5.3 12.9.4 3.1 3.9 5.7 6 8.5 2.2-3.2 5.8-6.1 6.2-9.6.4-2.7-3.3-6-6.9-11.8m4.9-475.6c-5.7 9.2-5.2 27.2 0 32.1zM158 559.5c-3.7-8.3 1.9-20.6-12.2-17.6 3.2 1.6 4.8 2.3 5.6 2.7-2.4 3.9-4.6 7.4-6.8 10.9 3.6 1.1 7.3 2.1 13.4 4m211.2-10.6.9-3.3c-3.2-1.3-6.8-4.4-9.4-3.4-2 .8-4.4 7.5-3.6 10 1.1 3.3 5.3 4.9 8.2 7.3.5-.9 1-1.8 1.5-2.6-2.4-1.3-4.7-2.7-7.1-4 .2-.7.4-1.5.6-2.2 3-.6 5.9-1.2 8.9-1.8m-84.3 134.3c1.6-10-6.6-11.2-11-18.6v18.6zm9.4 199.7c3.7.9 6.4 1.7 9.6 2.5v-13.1h-9.6zm294-327.3c4-6.6 7-11.7 11.5-19.1-5.8 1.8-9.6 2.9-14.2 4.4 1 5.2 1.8 9.5 2.7 14.7m-34.8-13.7c.3-1 .6-1.9.8-2.9-3-.7-5.9-1.8-8.8-1.7-1.1 0-3.3 3.9-3.1 4.2 1.6 2.5 3.8 4.3 5.5 6.7 1.7 2.6 3 5.6 4.6 8.8.4-.6 2.8-3.7 2.6-4-3-4-6.3-7.7-9.5-11.4.1-.7.3-1.3.4-2 2.4.7 4.9 1.5 7.5 2.3m658.3-439.1c.4-.1.8-.3 1.2-.4V80.5h-1.1c-.5 3.2-1.1 6.4-1.6 9.2H1200c-.6-3.4-1.1-6.5-1.6-9.6-.3.1-.6.2-.9.2v22.3c.4 0 .8.1 1.2.1.4-3.3.8-6.5 1.2-9.5h10.9c.4 3.7.7 6.7 1 9.6M570.2 537.5h-11.5v20.1h8.5c-1.8-1.5-4.5-3.8-7.2-6 2.8-1.9 5.5-3.9 7.8-5.5-2.2-.6-5-1.3-7.9-2.1-.1-1.1-.1-2.2-.2-3.4 3-.8 5.9-1.7 10.5-3.1m478.2 130.2c-3.1.2-5.6.3-10 .5 3.6 3 5.5 4.6 7.7 6.5-2.4 3.2-4.3 5.6-6.6 8.6h8.9zm-783.8 17.4c6.2-9.9 5.6-14-1-17.2.4 6.1.7 11.7 1 17.2m1416.8-273.8c-.4-4.1-.6-7.1-.9-10.5-3.2.2-5.7.4-8.2.6v9.9zM301 674.1c-.6.8-1.2 1.6-1.8 2.5-2.2-1.9-4.3-3.8-6-5.3.1 2.6.3 6.3.4 9.2 2.8.2 4.9.3 7.3.5.1-1.4.1-4.2.1-6.9m11.8 11.8c.6-.5 1.2-1 1.7-1.6v-12.4c-3.1.5-5.6.9-9.1 1.4 2.8 4.7 5.1 8.6 7.4 12.6m263.9-145.7c-1.3 0-2.6 0-3.8-.1.3 5 .6 9.9.9 14.9 1-.1 2-.1 2.9-.2zM1220.8 86c-5.7 9.3-5.6 10.1 2.5 16.5-.9-5.7-1.6-10.4-2.5-16.5m9.4 952.1c.4.8.8 1.7 1.2 2.5 1.4-1.1 2.8-2.2 4.2-3.4-.3-.7-.7-1.4-1-2-1.5.9-3 1.9-4.4 2.9m71.7 7.2c.6.2 1.1.4 1.7.6l1.5-6.6c-.4-.1-.8-.3-1.2-.4-.7 2.1-1.4 4.2-2 6.4m445.8-948.2c-1.7-.9-2.6-1.7-3.2-1.5-1 .4-1.8 1.4-2.6 2.2.5.8 1.1 2.2 1.5 2.1 1-.2 1.9-1.1 4.3-2.8m-444 782.3c.4.2.8.4 1.3.6.7-2.3 1.4-4.6 2.1-6.8-.4-.2-.8-.4-1.2-.5-.8 2.2-1.5 4.5-2.2 6.7m168.8 155c-.7 0-1.3-.1-2-.1v7.1c.3 0 .7.1 1 .1.4-2.4.7-4.7 1-7.1m-425.7 5.3c-.5-.4-.9-.8-1.4-1.3-.7 2.4-1.4 4.8-2 7.1.4.2.8.4 1.2.5.7-2 1.4-4.1 2.2-6.3m-14.9-360.4c-.3 1.9-.6 2.8-.5 3 .7.6 1.6.9 2.4 1.4-.5-1.2-1-2.4-1.9-4.4" class="st0"/><ellipse cx="975.1" cy="507.8" class="st1" rx="1230.8" ry=".8"/><path d="M1845.4 588.1H104.8v-1h1740.5c0 .3.1.6.1 1" class="st1"/><path d="M169.8 29.1c5.5-4.1 10.8-8.9 16.6-12.1 2.7-1.5 7.1-1.2 9.8.4 12.3 7.7 24.6 15.6 36.3 24.7 3.2 2.5 5.7 9 6 13.9.8 15-.1 30.2.4 45.2.4 9.6-2.2 15.8-9.4 19.5-4.6 2.4-8.9 5.4-13.4 8.2-.6-2.2-1.2-4.4-1.8-6.5 10.3-5.8 7.7-16.2 6.9-26.2-8.4 1-13.3 12.8-22.6 8.1 5.8-5.6 13.2-8.6 17.9-14.7 4.3-5.7 5.5-14.8 8.6-23.7 6.8 14.1.4 29.7 5.8 43.3 1.4-9.9.5-20 1.7-29.7 1.7-13.9-4.4-19.2-15-23.4 0 6.1.2 11.3-.1 16.5-.2 4.8 1.6 11.3-6 11.3-2.3-15.7 6-35.9-13.7-44.4 13.8-.5 22.1 12.7 34.1 15.4-.8-2.8-2.1-5.3-3.9-6.7-5-3.9-10.2-7.2-15.3-10.8-12.4-9-12.4-9-24.6 3 4.9 7.8 15.4 8.1 19.4 21-14.6-4-24.9-26.6-41-8.6 5.8-15 20.1-16.4 28-27-.4-1.1-.9-2.2-1.3-3.3-7.7 4.7-15.4 9.3-23.1 14-.2-2.5-.2-5-.3-7.4" style="fill:#62e0fe"/><path d="M169.8 29.1c.1 2.4.1 4.9.2 7.3-10.1 5.7-11.8 11.8-7.7 27 7.7-.9 12.6-12.7 23.8-8.8-11.4 11.8-30.7 13.1-26.4 38.5-7.9-14-.8-30.1-6.9-43.6-1.5 3.1-2.3 6.2-2.4 9.4-.2 8.3-.1 16.5-.1 24.8 0 12.2 4.2 17.3 15.3 18.6 2.4-8.6-2.2-19.2 4.5-26.9 3.8 15.8-5.3 37.2 15.5 45-13.9.8-22.5-13.3-35-15.6 1.2 3.3 2.8 6 4.9 7.6 5.5 4.2 11.1 8.1 16.8 11.9 10.1 7 13.6 6 22.6-6.4-3.6-2.5-7.3-4.7-10.6-7.6-2.8-2.5-5.1-5.8-7.7-8.7.6-.9 1.2-1.7 1.8-2.6 12.2 5.4 22.2 23.9 38.2 6.7.3 1.8.5 3.5.8 5.3-9.8 7.4-19.6 14.9-29.4 22.3 10.7 1.9 17.7-7.1 26.3-11.1.6 2.2 1.2 4.4 1.8 6.5-5.8 4-11.3 8.9-17.5 11.6-4.4 1.9-10.5 2.8-14.5.6-11-6-21.2-14.1-31.9-20.9-5.9-3.7-8.6-8.7-8.4-17.1.4-14.3.5-28.7 0-43-.4-9.9 2.2-16.4 9.7-20.6 5.5-2.8 10.9-6.7 16.3-10.2" class="st3"/><path d="M979 353.5c7.8 0 15.3-1.1 22.4.4 4.9 1 11.3 4.2 13.5 8.8 2.1 4.3-.5 11.9-1.2 19.8 3.8 2.7 6.8 9.4 4.3 18.1-2.6 9.2-8.9 11.5-16.3 11.2-7.4-.2-14.7-.1-22.7-.1zm9.5 51.3c7.1-2 13.1-3.3 18.9-5.7.8-.3.9-8.1.1-8.5-5.9-2.6-12.1-4.2-19-6.4zm0-25.7c6.7-2.2 12.3-3.8 17.7-6.2.6-.3.4-7.1-.3-7.3-5.5-2-11.2-3.2-17.4-4.7zm-72.8-93.3c1.8 2.8 3.4 5.3 4.3 6.8 4.3-.8 7.8-1.5 12.6-2.4-1.6 5.5-2.6 9.1-3.7 13.1 1.9 1.8 4 3.7 7.4 6.9-3.2 2-7.1 6-8.2 5-4.9-4-8.6-1.2-13.1.4-4 1.5-9.3 2.3-12.9.3-4.3-2.4-9.3-7.5-10.4-12.6-.9-4.4 2.9-10.6 5.1-15.7.7-1.7 2.7-2.6 4.3-3.9-3.8-7.7-7.7-15.5.4-22.4 5.7-5 16.6-3.5 20.2 3 5.4 9.8 0 15.8-6 21.5m-9 5.3c-1-.1-2-.1-2.9-.2-.7 4.8-3.2 11.3-1.6 13.9 3.8 6.2 9 4.1 13.6-1.5-3.3-4.3-6.2-8.3-9.1-12.2" class="st4"/><path d="M1151.5 411.4h-9.3v-42.9c10.1.9 19.8 1.8 27.7 2.5 7-.3 13.6-2.9 17.5 0 3.5 2.7 4.8 11.1 5.6 17.3.9 7.3.2 14.9.2 22.9h-9.7c0-8.4.5-16.3-.2-24-.3-3.4-2.9-6.5-4.5-9.8-2.1 3.3-5.5 6.4-6 10-.9 7.6-.3 15.6-.3 23.8h-10c0-8.7.4-16.9-.2-25-.2-3.1-2.8-5.9-4.4-8.9-2.2 2.9-5.8 5.5-6.2 8.7-.8 8.2-.2 16.5-.2 25.4" class="st5"/><path d="M1548.5 258.7c8.3 0 16.1-1.1 23.5.4 4.6.9 10.7 4.4 12.5 8.9 1.8 4.7-.7 11.9-1.5 19.7 3.4 2.7 7.3 8.4 4.7 17.6-2.6 9.3-8.6 11.9-16 11.7-7.6-.2-15.2 0-23.2 0zm9.3 49.5c4.9 0 9.5 1 13.5-.3 2.6-.9 6.3-5 6.3-7.7 0-2.9-3.3-7.6-5.8-8.5-4.3-1.4-9.1-.4-14.1-.4.1 5.6.1 10.5.1 16.9m-.2-24.1c6.8-2 12.5-3.4 18-5.7.6-.2.2-8-.6-8.2-5.6-1.8-11.4-2.5-17.4-3.6z" class="st6"/><path d="M1561.1 411.5h-9.6c0-8.4.5-16.7-.2-24.7-.3-3.3-3.2-6.2-4.9-9.3-2 3-5.4 5.9-5.7 9.2-.8 8-.3 16.3-.3 24.8h-10v-43.4c9.6 1.6 18.7 3.2 27.8 4.4 1.9.3 4.1-.7 6-1.8 9.6-5.5 17.3-.2 17.5 12.7.2 9.2 0 18.5 0 28.1h-9.3c0-8.1.6-15.9-.2-23.6-.4-3.7-3.3-6.9-5.1-10.4-2 3.5-5.3 6.7-5.8 10.5-.9 7.2-.2 14.9-.2 23.5" class="st4"/><path d="M1070.7 274.1c0 15.9.5 30.9-.2 45.8-.5 11.3-7.5 14.2-15.7 14.3-8.2 0-15.4-1.5-17.3-16.1 4.7 1.9 8.2 3.7 11.8 4.8 2.9.9 6.5 2.5 8.8 1.2 2.1-1.2 2.7-5.9 3.4-10.2-7.3 3.4-14 5.6-19.7-1.8-5.6-7.2-6.2-16-4.1-25.1 2.5-11 10.2-15.2 19.3-12.2 4 1.4 8.7-.3 13.7-.7m-5.4 21.5c-5.2-5.9-8.2-12-11.8-12.5-5.9-.9-7.1 5.9-7.1 12.1 0 6.1.9 13.1 6.8 12.5 3.6-.5 6.7-6.5 12.1-12.1" class="st7"/><path d="M620.3 383.1c-.1 18.1-8.8 28.9-23.5 28.7-14.4-.1-23.1-11.4-23-29.5.1-18 9.1-29 23.6-28.8 14.4.2 22.9 11.1 22.9 29.6m-36.1-.6c0 12.6 4.8 20.3 12.7 20.6 8.2.3 13.2-7.8 13.1-21-.1-12.8-4.8-20-13-19.9-8.1.2-12.8 7.8-12.8 20.3" class="st4"/><path d="M1004.9 287.8c0 18.4-8.5 29.2-23.1 29.2-14.4 0-23.5-11.2-23.4-29.1 0-17.9 9.1-29.2 23.4-29.2 14.5 0 23 10.7 23.1 29.1m-36.2-.9c-.2 13 4.9 21.3 13.1 21.3 7.8 0 12.9-7.9 13.1-20.3.2-12.3-4.8-20.3-12.7-20.6-8.1-.3-13.3 7.2-13.5 19.6" class="st8"/><path d="M1294.6 373.6c-5-3.4-8.2-6-11.6-7.9-2.8-1.6-5.9-3.3-8.8-3.1-2.1.1-4.1 3.1-6.1 4.7 1.6 2.1 3 5.1 5 6.2 4.5 2.4 10.2 2.6 14 6s8.4 9.7 8.2 14.5c-.2 5.4-4.4 12.7-8.6 15.3-12.8 8-26.4.9-29.7-14.2 2.4-.9 4.9-1.9 8-3.1 3 8.7 8.2 13.3 15.8 10.4 2.1-.8 4.6-4 4.9-6.5.2-1.9-2.5-5.3-4.5-6.3-4.5-2.4-10.1-2.6-14-5.9-3.9-3.4-8.8-9.7-8.5-14.2.4-5.2 5.3-12 9.6-14.3 12-6.5 23.3.8 26.3 18.4" class="st4"/><path d="M1313.8 304.6c-1.3 4.2-2.4 7.9-3.6 11.9h-10.3c5.2-18 10-35.6 15.6-52.7.9-2.7 5.8-4.7 8.8-4.8 2.7 0 6.9 2.5 7.8 5.1 5.6 16.9 10.4 34.2 15.5 51.5-9.1 4.6-12.3-1.6-13.8-11.1-6.6.1-13 .1-20 .1m2.4-9.8h14.8c-2.4-8.6-4.5-16.5-7.4-27.1-3 10.6-5.1 18.5-7.4 27.1" class="st6"/><path d="M459.6 372.4c-3-2.2-6-4.5-9.1-6.4-2.5-1.5-5.3-3.6-7.8-3.5s-4.8 2.9-7.3 4.4c1.8 2.3 3.2 5.6 5.4 6.8 4.2 2.3 8.9 3.3 13.3 5.3 6 2.6 10 8.4 8.3 15.6-1.3 5.7-5.1 12.4-9.2 14.9-12.6 7.4-25.1.8-29.5-14.3 2.7-1 5.4-2.1 8.5-3.2 3 8.7 8 13.2 15.4 10.4 2.3-.9 4.6-4.3 5.4-7.2.3-1.2-2.8-4.9-4.9-5.9-4.6-2.3-10.2-2.4-14-5.8s-8.2-9.8-8.1-14.6c.2-4.8 5-11.3 9.1-13.6 11.9-6.6 23.5.3 26.2 14.1-.6 1-1.2 2-1.7 3" class="st8"/><path d="M172.8 351.9c6.2 20.8 11.7 39.7 17.4 58.8-6.8 2.4-11.5 2-13.3-7.7-.4-2-4.9-3.8-7.6-3.9-6.6-.4-14.3-3.1-16.2 9.8-.3 1.9-6.2 2.6-11.3 4.4 5.9-20.3 10.4-38.5 16.6-55.6 1.4-3.7 9.3-3.9 14.4-5.8m-14 37.6h14.8c-2.5-8.8-4.8-16.7-7.7-26.7-2.8 10.4-4.9 18.4-7.1 26.7" class="st6"/><path d="M628.6 354h9c0 12.1.1 23.9 0 35.7-.1 8.1 2.7 13.1 9.7 13.3 7.3.2 9.8-4.8 9.8-12.9-.1-11.8 0-23.6 0-36h9.1c0 13.8.4 27.4-.1 41-.5 11.1-6.6 16.4-17.2 16.7-12.1.3-19.4-4.6-20-15.5-.9-13.8-.3-27.8-.3-42.3" class="st4"/><path d="M1354.3 407.4c-.2 5.1-.4 8.2-.5 11.4s0 6.4 0 9.9h-9v-60c6.9 0 14.1-1.5 20.5.5 4.6 1.5 11.1 7.1 11.7 11.9 1.1 8-.1 18-3.4 25-3.8 8-11.5 7.4-19.3 1.3m18.5-17.2c-5.2-5.8-8.3-9.3-11.5-12.9-2.5 4.1-6.4 7.8-7.3 12.4-1.2 6.2 1.3 13.4 7.3 12.8 3.4-.3 6.4-6.5 11.5-12.3" class="st6"/><path d="M872.6 370.2c-3.1 1.1-5.6 2-8.4 2.9-3.5-7.5-7.6-13.9-15.3-10-8.6 4.4-8 13.9-7.8 23 .2 7.8 2.3 14.5 9.1 16.4 7.6 2.2 11.3-3.9 13.6-12.4 3.2 1.6 6.1 2.9 8.9 4.3-4.5 13.9-13.1 19.7-24.6 17.1-10.3-2.4-17.2-13.1-17.6-27.2-.4-16 6.4-27.8 17.5-30.6 11.1-2.6 19.6 2.8 24.6 16.5m-228.1-74.6 7.8 4.2c-3.8 13.5-11.7 19.1-23.4 17.1-10.6-1.8-17.7-12-18.3-26.2-.7-16.4 5.3-28.1 16.5-31.4 8.9-2.6 22.1.8 25.1 15.9-2.5 1.1-5.1 2.2-8 3.5-3.5-7.6-7.6-14.1-15.4-10.3-8.2 4-8.3 13.2-8 21.8.3 8.1 2 17.3 10 17.4 4.6.1 9.3-5.5 14-8.5-.1-1.2-.2-2.4-.3-3.5" class="st4"/><path d="M1450.3 316.5v-57.2h9.2v18.1c17.2-7.7 22.7-2.9 22.8 18.9v20.1c-3.3.2-6 .4-9.8.6 0-9 .5-17.3-.2-25.4-.3-3.2-3.4-6.1-5.2-9.1-2.4 3-6.5 5.7-6.9 9.1-1 8-.3 16.3-.3 24.9z" class="st7"/><path d="M1449.3 412.1v-57.9c2.7-.3 5.5-.5 9.3-.9v19.4c2.9-1.6 4.7-2.8 6.5-3.5 8.6-3.1 15.5 2.5 15.9 13.4.4 9.3.1 18.6.1 28.5h-9.4c0-8.4.5-16.6-.3-24.7-.3-3.2-3.5-6.1-5.4-9.1-2.4 3-6.3 5.8-6.7 9.2-1 7.6-.3 15.6-.3 24.4-3.2.5-6 .8-9.7 1.2m-341.2-96.7c-6.5.5-13.7 2.2-20.7 1-3.7-.6-9-5.5-9.7-9.5-.6-3.2 3.9-9.2 7.2-11.8 3.7-2.8 8.7-3.1 13.3-4.6-1.2-8.9-4.2-10-9.7-5.9-2.6 1.9-5.8 2.6-10.2 4.4 3.6-13.6 9.2-17.3 19.7-15.3 8.2 1.5 10.2 8.3 10 17.1 0 8.5.1 17 .1 24.6" class="st5"/><path d="M1056.4 392.3h-21.7c.7 10.3 3.5 12.3 10.2 9.2 3.1-1.4 6.8-1.1 11.4-1.7-6.3 12-14 15-22.7 10.4-7.7-4-11.4-14.9-9.1-26.2 2.2-10.8 9.3-16.7 18.4-15.3 8.9 1.3 13.1 8.2 13.5 23.6" class="st4"/><path d="M1638.5 411.3h-9.3v-41.2c7.4-.5 15-2.3 22.1-.8 3.6.8 8.5 7.1 9.1 11.7 1.4 9.7.4 19.9.4 30.3h-9.7c0-8.1.5-16.3-.2-24.3-.3-3.4-3.2-6.4-4.9-9.6-2.5 3.3-6.6 6.2-7.2 9.9-1.1 7.6-.3 15.6-.3 24m-511.8-94.2c-3.9-.2-6.5-.4-9.3-.5v-41.3c7.7-.4 15.5-2.1 23-.7 3.3.6 7.7 7.1 8.3 11.6 1.3 9.7.4 19.9.4 30.4h-9.7c0-8.1.5-16.2-.2-24.2-.3-3.4-3.2-6.5-4.9-9.7-2.5 3.3-6.7 6.2-7.2 9.9-1.2 7.4-.4 15.4-.4 24.5" class="st7"/><path d="M950.2 411.6h-9.6c0-8.4.5-16.6-.2-24.6-.3-3.4-3.2-6.4-4.9-9.5-2.4 3.3-6.5 6.3-7 10-1.1 7.6-.3 15.5-.3 23.9h-9.6v-41.5c7.5-.4 15-2.2 21.9-.6 3.7.8 8.7 6.8 9.3 11.3 1.4 9.8.4 20.3.4 31" class="st9"/><path d="M1521.9 369v42.8c-7.3 0-14.3.4-21.4-.1-6.7-.5-9.8-6-10.1-13.7-.3-9.3-.1-18.6-.1-28.8 3.1-.3 5.9-.5 9.8-.8 0 9.3-.4 17.9.2 26.3.2 2.9 3.3 5.5 5.1 8.2 2.3-2.7 6.4-5.1 6.7-8.1.9-8.4.3-17 .3-25.9 3.7.1 6.2.1 9.5.1M336.3 274.2h9.2V317c-7 0-14 .4-21-.1-6.7-.4-9.9-5.9-10.2-13.6-.3-9.3-.1-18.6-.1-28.8 3-.3 5.8-.6 9.8-.9 0 9.3-.4 17.9.2 26.3.2 2.9 3.2 5.6 5 8.3 2.4-2.6 6.5-5 6.8-7.9.9-8.5.3-17.2.3-26.1" class="st10"/><path d="M260.4 274.3c0 8.6-.5 16.8.3 24.9.3 3.2 3.6 6 5.5 8.9 2.2-2.8 6-5.4 6.3-8.5.9-8 .3-16.3.3-25.4 3.5-.2 6.3-.4 9.5-.6v42c-7.5.4-14.6 1.4-21.7 1.1-6.1-.3-9.5-5.3-9.6-12.8-.2-9.6 0-19.3 0-29.6z" class="st5"/><path d="M1589.5 383.5c4.7-13.5 10.6-17 20.7-14.7 8.2 1.9 9.6 9 9.3 17.7q-.3 6.45 0 12.9c.2 3.8.8 7.6 1.2 10.9-7.5.5-15 2.2-22.2 1-3.6-.6-8.1-5.9-9.2-10.1-.7-2.7 3.8-8.6 7-10.9 3.8-2.7 8.8-3.1 13.3-4.5-1.9-9.3-4.4-10.3-9.8-5.8-2.3 1.9-5.8 2-10.3 3.5m21.6 12.6c-.9-1.6-1.8-3.1-2.7-4.7-3.4 2.5-6.7 5-10.1 7.5 1.5 1.4 3.6 4.4 4.4 3.9 3-1.6 5.6-4.4 8.4-6.7M526.6 354.5c16.1-6.3 14.5 13.7 21.9 20 14.3-21.2 14.3-21.2 21.6-20.2-7.7 18.1-22.3 33-16.6 55.8-1.1.9-1.3 1.2-1.6 1.2-2.3.2-4.6.4-8.7.8 5.8-24.3-8.5-39.5-16.6-57.6" class="st6"/><path d="M1325.5 369h9.5v41.4c-7.2.4-14.1 1.3-20.9 1.2-6.6-.2-10.3-5.1-10.5-13-.3-9.6-.1-19.2-.1-29.4h9.4c0 8.6-.5 16.9.3 25 .3 3.2 3.7 5.9 5.7 8.8 2.2-2.8 6-5.4 6.3-8.5.9-8.1.3-16.4.3-25.5" class="st8"/><path d="M284.2 368.6c10.5-.2 18.2 8.4 18.5 20.6.4 12.7-7.4 22.5-17.9 22.6-11 .1-18.5-8.6-18.5-21.7.1-12.4 7.5-21.3 17.9-21.5m9.6 18c-2.3-2.4-5.5-8.1-9.2-8.7-6.4-1-8.6 5.5-8.5 12.8.1 7 2.3 12.2 8.4 12.3 6.9 0 8.3-6.5 9.3-16.4" class="st4"/><path d="M1268 302.5c-4.6-1.6-9.7-2.4-13.8-5.2-3.3-2.3-7.8-7.6-7.5-10.9.5-4.4 4.6-10.5 8.1-11.7 7.6-2.5 15.9-2.9 22.3 10.6-8.3-.9-14.9-1.5-21.5-2.2-.1 1.3-.3 2.6-.4 3.9 4.4 1.4 8.8 2.5 13.1 4.3 4.8 2 10.6 4.8 8.7 12.3-1.3 4.9-5.3 10.4-9.2 12.3-9.1 4.5-17.1.1-24.1-13.8 5.6 1.6 9.1 2.7 12.5 3.5 3.7.8 7.5 1.3 11.3 1.9.2-1.6.4-3.3.5-5m-902.8 94c5.8 2 9.2 3.5 12.8 4.3 3.7.8 7.4.8 11.2 1.2.2-1.4.3-2.9.5-4.3-4.8-1.8-10.1-2.6-14.3-5.6-3.3-2.3-7.3-7.6-7.1-11.3.2-4 4.3-9.3 7.7-11.1 8.3-4.4 16.4-.6 22.6 10.9-8.2-1-14.7-1.8-21.3-2.6-.2 1.3-.4 2.6-.6 3.8 4.2 1.4 9 1.9 12.6 4.6 3.8 2.8 9.3 8.3 8.9 11.6-.6 4.9-5.2 11-9.2 13-9.4 4.3-17.3-.4-23.8-14.5" class="st8"/><path d="M486.2 368.6c10.5-.1 18.1 8.5 18.4 20.7.3 12.7-7.4 22.4-18 22.5-11 .1-18.5-8.7-18.4-21.8.2-12.4 7.6-21.3 18-21.4m9.2 21.6c-.8-6.8-2.4-13.1-9.2-12.7-6.1.3-8.1 5.7-8.1 12.6s1.9 12.3 8 12.8c6.8.5 8.5-5.9 9.3-12.7" class="st4"/><path d="M909.9 410.2c-7.5.6-14.5 2.4-21.1 1.1-3.9-.7-7.2-6.3-10.7-9.8 2.7-4 4.8-9.1 8.2-11.6 3.5-2.7 8.3-2.9 12.5-4.2-1.7-9.3-4.1-10.4-9.5-5.9-2.5 2-6 2.2-10.4 3.7 4.6-13.5 10.5-17.1 20.6-14.8 8.1 1.8 9.9 8.7 9.4 17.5q-.3 6.45 0 12.9c0 3.9.6 7.7 1 11.1m-9.6-14.2c-.9-1.5-1.8-3.1-2.7-4.6-3.3 2.5-6.7 5-10 7.5 1.5 1.4 3.6 4.4 4.3 3.9 3-1.6 5.6-4.4 8.4-6.8" class="st8"/><path d="M585.2 286c-8.3-1.2-14.8-2.2-21.3-3.1-.2 1.4-.5 2.7-.7 4.1 4.1 1.4 8.3 2.7 12.4 4.2 5.2 2 10.4 4.3 10 12.7-.5 8.2-5.4 11.9-11.3 12.8-8.5 1.3-16.7.5-22.3-14.8 5.7 2 9.3 3.7 13 4.5 3.5.8 7.1.6 10.6.9.2-1.4.4-2.8.5-4.2-4.5-1.7-9.4-2.5-13.3-5.5-3.5-2.6-8.5-8.3-8-11.4.8-4.6 5.4-10.6 9.2-11.7 7.3-2.1 15.5-2.4 21.2 11.5" class="st4"/><path d="M832.7 301.5c5.7 2.1 9.2 3.7 12.7 4.5 3.6.8 7.3.7 11 1l.3-4.2c-4.6-1.7-9.6-2.4-13.6-5.4-3.5-2.6-8.1-8.1-7.8-11.7.4-4.2 5.2-10 8.8-11.1 7.6-2.1 16-2.7 21.4 11.1-8-1-14.6-1.9-21.2-2.7-.2 1.3-.4 2.7-.6 4 4.3 1.4 9 1.9 12.7 4.6 3.8 2.8 9.4 8.3 8.9 11.6-.7 4.9-5.3 11-9.3 12.9-9.2 4.3-17.1-.5-23.3-14.6" class="st8"/><path d="M1662.3 285.9c-8.3-1.2-14.8-2.2-21.3-3.2-.2 1.4-.5 2.8-.7 4.2 4.2 1.4 8.4 2.6 12.6 4.2 5.2 2 11.6 4.9 9.5 12.6-1.4 5.2-6.7 11.2-11.1 12.5-8.1 2.5-16.5.9-19.8-13.8 3.6 1.4 7.1 3.2 10.8 3.9 3.5.7 7.1.1 10.6.1.1-1.2.2-2.5.3-3.7-4.5-1.7-9.5-2.4-13.4-5.4-3.5-2.7-8.4-8.6-7.8-11.6 1-4.6 5.6-10.3 9.5-11.4 7.3-1.9 15.5-2.1 20.8 11.6" class="st4"/><path d="M1415.2 392.6h-21.5c1.5 10.5 3.8 11.8 10.7 8.6 3.1-1.4 6.8-.8 11.4-1.1-7 11.9-15.7 14.8-24 9.6-7.5-4.6-10.7-16.8-7.4-28.1 2.8-9.7 10.5-14.9 18.9-12.8 8.5 2.1 12.3 9.3 11.9 23.8m-9.6-7.1c.5-1 .9-2 1.4-3-2.7-1.7-5.3-4.8-8-4.8-2.2.1-4.4 3.8-8.5 7.8zm-994.5-88h-21.6c1.1 10.3 3.7 12.1 10.4 9 3.1-1.4 6.8-1 11.4-1.6-6.6 12.1-15.1 15.1-23.6 10-7.3-4.4-10.7-15.6-8-26.9 2.4-10 9.5-15.6 18.2-14.2 9.1 1.4 13.3 8.6 13.2 23.7m-9.5-6.8c.4-.8.8-1.5 1.2-2.3-2.5-2-5-5.5-7.6-5.5-2.3 0-4.7 3.6-7 5.7.4.7.9 1.4 1.3 2.2 4-.1 8-.1 12.1-.1m367.5 6.7h-21.6c.6 10.2 3.5 12.4 10 9.3 3.1-1.5 6.7-1.3 11.4-2-5.9 12-13.6 15.1-22.3 10.7-8-4-11.8-15.3-9.1-27.1 2.3-10.1 9.3-15.7 18-14.5 9 1.3 13.3 8.2 13.6 23.6m-23.2-9.5c.3.9.7 1.7 1 2.6h12.5c-1.3-4-3.5-7.6-5.8-7.6-2.5 0-5.1 3.2-7.7 5m494.3 9.6h-21.5c.4 9.9 3.4 12.3 9.9 9.2 3.1-1.5 6.7-1.3 11.3-2.1-5.7 12-13.4 15.2-22.2 10.8-8-4-11.9-15.2-9.2-27 2.2-10.1 9.3-15.8 18-14.6 9.1 1.2 13.4 8.1 13.7 23.7m-9.7-6.8c.4-1.1.7-2.3 1.1-3.4-2.7-1.6-5.5-4.5-8.2-4.4-2.1.1-4.1 3.9-7.7 7.8z" class="st6"/><path d="M489.2 294.6c.2 12.7-7 22-17.3 22.3-11.3.4-18.7-8.1-18.8-21.5-.1-12.8 7.1-21.6 17.7-21.8 10.7-.1 18.2 8.5 18.4 21m-28.2-2c1.7 9.4 3.6 15.4 10.3 15.4 6.1 0 8.5-5.6 8.6-12.3.1-7.1-2.3-13.8-8.7-12.8-3.7.6-6.8 6.3-10.2 9.7m304.5 96.9c.2 12.7-7 22-17.3 22.3-11.3.4-18.7-8.1-18.8-21.5-.1-12.8 7.1-21.6 17.7-21.8 10.7-.1 18.2 8.4 18.4 21m-28.3 3.1c3.3 3.5 6.4 9.3 10 10 6.4 1.2 8.9-5.5 8.9-12.6 0-6.7-2.3-12.3-8.4-12.5-6.6-.2-8.6 5.8-10.5 15.1m398.5-2.6c0 12.7-7.3 21.7-17.7 21.8-11.2.1-18.5-8.6-18.3-22 .1-12.7 7.5-21.3 18.1-21.2 10.6 0 17.9 8.7 17.9 21.4m-5.4.3c-5.7-5.8-8.9-11.7-12.8-12.5-5.8-1.2-8.3 5.2-8.4 12-.1 7.2 2.2 13.8 8.7 12.8 3.6-.6 6.8-6.4 12.5-12.3m-803.9-21.7c10.6.2 17.7 9.1 17.5 21.9-.2 12.6-7.7 21.4-18.1 21.3-11.2-.1-18.3-8.9-17.9-22.4.3-12.7 7.8-21 18.5-20.8m9.8 19c-3.4-3.5-6.5-9.2-10.2-9.8-6.4-1.1-8.7 5.5-8.7 12.8.1 6.8 2.4 12.3 8.5 12.3 6.7.1 8.6-6.1 10.4-15.3" class="st4"/><path d="M1232.4 392.5h-22.9c1.8 8.9 4.4 13 11.8 8.5 2.6-1.6 6.3-.8 10.3-1.1-4.8 11.1-12.3 14.5-21 10.8-8.4-3.5-12.3-13.9-10-26.6 1.9-10.8 9.1-16.9 18.2-15.6 8.9 1.5 13.2 8.6 13.6 24m-23.2-9.7c.4.8.8 1.5 1.2 2.3h12.3c-1.6-4.2-4-7.4-6.4-7.4s-4.7 3.3-7.1 5.1" class="st8"/><path d="M512.4 273.7c10.6.1 17.8 8.8 17.8 21.5s-7.3 21.6-17.8 21.7c-11.2.1-18.5-8.7-18.3-22.1.2-12.6 7.6-21.1 18.3-21.1m10 19.3c-3.3-3.5-6.3-9.4-10-10.1-6.5-1.3-8.9 5.4-8.9 12.5 0 6.7 2.1 12.4 8.3 12.6 6.8.3 8.8-5.6 10.6-15m172.5 1.7c.2 12.7-7 22-17.3 22.3-11.3.3-18.7-8.2-18.8-21.5 0-12.7 7.2-21.5 17.8-21.7 10.7-.3 18.1 8.3 18.3 20.9m-7.7-1.8c-3.3-3.5-6.3-9.3-10-10-6.5-1.2-8.8 5.5-8.8 12.6 0 6.7 2.2 12.4 8.3 12.5 6.6.2 8.7-5.7 10.5-15.1" class="st4"/><path d="M1521.1 297.5h-23c1.8 9.1 4.4 13.2 11.8 8.7 2.7-1.6 6.3-.8 10.3-1.2-4.8 11.1-12.2 14.6-21 10.9-8.4-3.5-12.3-13.9-10.1-26.6 1.9-10.5 8.4-16.4 17.3-15.6 9.6.9 14.3 8.1 14.7 23.8m-23.2-9.5c.4.7.8 1.5 1.3 2.2h12.3c-1.6-4.2-4.1-7.4-6.5-7.4-2.4.1-4.7 3.4-7.1 5.2" class="st8"/><path d="M806.5 390.4c-.1 12.6-7.6 21.5-18 21.4-11.2-.1-18.4-9-18-22.4.3-12.6 7.8-21 18.5-20.8 10.5.1 17.6 9 17.5 21.8m-9.3-.5c-.3-6.8-2.5-12.7-9.1-12.5-6.2.2-8.2 6-8.2 12.6 0 6.7 2 12.4 8.1 12.8 6.7.4 8.9-5.4 9.2-12.9" class="st4"/><path d="M1625.7 297.5h-22.9c1.6 9 4 13.1 11.5 8.9 2.9-1.6 6.7-.7 11.3-1.1-7.1 11.9-15.8 14.7-24.1 9.5-7.1-4.5-10.2-15.7-7.5-27.3 2.3-9.4 9.2-14.8 17.7-13.7 9 1.2 13.4 8.2 14 23.7m-23.4-9.6c.3.9.7 1.7 1 2.6h12.5c-1.3-4.1-3.6-7.7-5.8-7.6-2.6 0-5.1 3.2-7.7 5" class="st8"/><path d="M210.9 258.7c9.4 0 18.5-.3 27.5.2 1.9.1 3.6 3.4 5.4 5.2-.5 1-.9 2-1.4 3.1h-22.1v14.7h18.6c1 9 1 9.1-6.2 9.1H220v25.1h-9.1z" class="st11"/><path d="M1189.1 283c-14.2-1.2-14.2-1.2-13.8-8.9 1.7-.1 3.4-.3 5.1-.3h22.6c.8 16-12 21.5-16.1 34.1h16.6c1.6 6.2 1.2 9.4-4.6 9.1-8.2-.3-16.4-.1-25.5-.1-.9-15.9 11.8-21.5 15.7-33.9" class="st6"/><path d="M479.8 90.5c-7.7 1.3-14.1 2.9-20.5 3.2-6.1.3-9.5-3.3-9.5-11.9 0-8.4 3.3-12.4 9.4-12.2 6.4.2 12.7 1.9 20.8 3.3 2.9-.8 8-3.1 13.2-3.4 10.9-.6 13.1 2.3 13.4 12.5.4 12-6.3 12.4-13 11.8-5.3-.4-10.4-2.4-13.8-3.3m-23.5-15.1c-3 11 .4 14 7.6 13.4 4.5-.4 10.2-.2 8.3-8-2.7-11.6-10.5-3.4-15.9-5.4m37.3-4.8c-4.3 5.3-8 7.8-8.6 11.1-1.4 7.6 3.8 7.2 7.9 7.1 3.8-.2 9.4 1.5 8.4-6.5-.5-3.5-3.9-6.2-7.7-11.7" class="st12"/><path d="M255.2 411.5h-10.1v-46.7c-4.4-6.1-14.1 3.6-14.3-10.5h37c1.1 7.3 1.1 7.3-12.7 8.8.1 15.7.1 31.6.1 48.4m1166.2-141.6c-5.1-5.7-14.6 3.3-14.3-10.9h36.8c1.5 7.8 1.5 7.8-12.4 8.9v48.5c-3.6.2-6.4.4-10 .7-.1-16.7-.1-32.6-.1-47.2M693 353.5h37.2c1 7.9 1 7.9-12.8 9.6v48.2h-10.1v-46.7c-4.4-5.9-14 3.6-14.3-11.1" class="st10"/><path d="M1086.6 393.9c3.3 1.5 5.7 2.6 8.1 3.6-4.2 11.8-10.3 16.1-19.5 14.1-8.1-1.7-13.3-9.8-13.4-21.1-.2-10.7 4.4-19 11.9-21.5 8.8-3 15.7.9 19.5 14.2-3.5-1.4-6.9-3.4-10.4-3.9-3-.5-8.8.3-8.9 1.3-.7 6.3-2.3 14.6.3 18.9 5.1 8.7 9.1 1.3 12.4-5.6M805.7 288.7c-3.4-1.6-6.7-3.9-10.3-4.4-3-.5-8.6.5-8.8 1.9-.9 5.9-1.7 12.9.1 18.2 2.3 6.7 7.4 4.7 13.4-4.8 2.3.8 4.8 1.7 7.3 2.6-3.3 11.8-8.4 15.9-17.8 14.7-8.6-1-13.9-8-14.6-19.5-.8-11.4 3.4-19.9 11.2-22.9 8.8-3.4 15.7.1 20.5 10.6-.3 1.2-.6 2.4-1 3.6" class="st4"/><path d="M441.2 316.4H432v-45.8c-4.1-7.3-14.9 3.4-14.2-11.5h36.4c.8 7.3.8 7.3-12.9 9-.1 15.9-.1 31.8-.1 48.3" class="st11"/><path d="M302.5 260.2v10.5c2.7 3 4.8 5.3 6.8 7.5-1.8 2.1-3.5 4.1-6.4 7.4v20.2c2.7 2.3 4.7 4.1 6.8 5.9-1.1 1.7-2.4 5-3.3 4.8-4.1-.8-8.4-1.7-11.9-4.2-1.5-1-1.2-5.9-1.6-9-1.2-7.7 2.6-16.1-3.8-23.4-3.2-3.6 6-17.1 13.4-19.7" class="st10"/><path d="M823.9 259.3c.2 5.1.4 8.9.5 11.5 2.6 2.9 4.6 5.1 6.6 7.3-1.8 2.1-3.6 4.2-6.8 7.9 0 2.7-.6 8.1.2 13.2.5 3.2 3.1 5.9 4.7 8.9.9 1.6 2.1 3.3 2.2 5 0 1.1-1.5 2.9-2.7 3.4-6.8 3.2-13.2-1.8-13.7-10.8-.3-5 0-10-.1-15 0-2.1.4-4.5-.3-6.4-3.6-10.9-1.1-18.5 9.4-25" class="st6"/><path d="M276.1 66.5c-3.5 1.8-7 3.6-12.1 6.2 12.9 5.6 25.1 3.9 30.2-5.1.6 5.7 1.6 9.5 1.4 13.1-.5 8.5 4.1 8.1 8.6 8 4.5-.2 10 1.7 9.6-7.9-.1-3.7 1-7.4 2.2-10.9 4.8 11.8 3.5 20.4-2.3 23.1-11.1 5.1-21.6-.1-24.2-11.4h-22.9c-.7 4.5-1.3 8.1-1.9 12.2-4.3-4.5-6.4-21.9-2.5-26.1 3.2-3.4 8.6-3.9 12.9-5.7.5 1.6.7 3.1 1 4.5" class="st12"/><path d="M1680.6 260.3v10.4c2.8 2.9 4.9 5.1 7 7.3-2 2.2-4.1 4.4-6.8 7.4 0 4-.5 9.5.2 14.6.4 2.9 3.1 5.2 4.2 8.1.9 2.4 1.8 6.9 1 7.8-4.5 4.6-13.7-.2-14.4-7.5-.6-5.6.1-11.5-.5-17.1-.3-3.3-2.2-6.3-3.2-9.5-.5-1.5-1.5-3.8-1.1-4.6 3.6-6.4 7.5-12.6 11.3-18.8.7.7 1.5 1.3 2.3 1.9" class="st7"/><path d="M702.3 317v-57.8h9.2v57.3c-2.9.2-5.7.3-9.2.5m-351.2 94.3v-57.2h9.2v57.2zm186.6-152.2h9.2v57.4h-9.2zm834.2 0h9.2v57.4h-9.2z" class="st9"/><path d="M1021.9 316.5h-9.6v-41.6h24.7c-3.6 4.9-5.4 9.3-7.3 9.4-7.3.6-7.7 6.3-7.8 12.7zM378 277.4c-1.7 2.4-3.3 6.7-5 6.8-7.8.4-8.1 6.6-8.2 13.3-.1 6 0 12.1 0 18.9-3.3.2-6.1.4-9.4.6v-42.2h21.3c.4.9.9 1.8 1.3 2.6m1069 92.3c-2.6 4.7-4 9.2-5.4 9.2-10.3.2-8.8 9.1-9 16.8-.1 5 0 9.9 0 15.5h-9.6v-41.5z" class="st10"/><path d="M349.4 875.7c-1.8 5.2-3.6 10.2-5.2 14.7-11.9-10.3-24-5.6-35.4-5.5-.4-3.5-1.4-7.1-1.1-10.5.2-2.4 2-4.9 3.7-6.5.6-.6 3.2 1.2 4.4 2.5 2.4 2.9 9.1 1.2 10.9 2.1 5.2 2.5 10.7-13.1 15.1.8.5 1.6 4.5 1.5 7.6 2.4M342 880c-.5.3-1.1.4-1.3.8s.2 1.1.3 1.7c.5-.3 1.1-.5 1.3-.9.2-.3-.2-1-.3-1.6" class="st13"/><path d="M1353.3 259.1h8.3v57.2h-8.3z" class="st11"/><path d="M729.7 316.4h-8.5v-57.2c2.4-.2 5.2-.4 8.5-.7zM195.4 354h8.3v57.2h-8.3z" class="st14"/><path d="M960.1 553.2c2.3 1.2 4.6 2.3 6.9 3.5-.1.7-.3 1.4-.4 2.1-2.7-1.2-5.5-2.1-8.1-3.6-3.7-2.1-7.2-4.5-10.7-6.8-.6 1.4-1.2 2.7-1.8 4.1 2.1 1.5 4.1 3 6.2 4.6-.3.7-.6 1.3-.9 2-2.7-1.9-6.3-3.2-7.7-6-1-2.1.2-8.7 1.4-9.1 3.6-1.3 7.6-.5 12.9-.5 6-7.2 17.9 8.2 24.9-5.3v20.4c-3.6-1.1-7-1.7-10-3.3-3.7-1.9-7.2-4.7-10.7-7-.7 1.6-1.3 3.3-2 4.9" class="st15"/><path d="M1671.1 353.8h10.8c-.8 13-1.5 25.7-2.5 38.3-.1 1.6-1.6 3-2.5 4.5-1.2-1.5-3.2-3-3.3-4.6-.9-12.4-1.6-24.8-2.5-38.2" class="st6"/><path d="M721 556.8c-8.2-.5-16.6-5-22.7 10.1v-24c.3-.3.7-1 1.2-1.1 6.3-1.4 12.2 2.5 19.2.2 4.3-1.4 10.9 5.3 9.9 13-4.2-2-8.6-4.1-13.1-6.3-.5 1.3-1 2.7-1.4 4 2.2 1.4 4.6 2.8 6.9 4.1" class="st15"/><path d="M380.8 71.7c6.9-.7 13.9-2.1 20.8-2 6.6.1 10.2 4.5 8 14.3h-20.9c-.2.9-.3 1.9-.5 2.8 3.1 1.1 6.2 2.3 9.8 3.6-8.7 6.3-14.7 2.8-15.3-8-.2-3.3-1.2-6.5-1.9-9.7zm24 7.1c.1-1 .1-1.9.2-2.9h-16.6v2.9z" class="st3"/><path d="M530 73.2c-2.6 1-5.2 2-10 3.9 6.3 1.1 10.7 1.1 14.8 2.7 2.6 1 4.4 4.5 6.6 6.8-2 2.3-3.8 6.2-5.9 6.6-6.3.9-12.7.3-19.1.3v-4.2c6.5-.4 13-.8 19.4-1.2.1-1 .2-1.9.2-2.9-3.3-.4-6.8-.4-10-1.4-3.4-1.2-6.7-3.2-9.7-5.4-.4-.3.5-5.7 1.6-6.1 3.6-1.5 7.6-1.9 11.4-2.8.3 1.2.5 2.5.7 3.7" class="st12"/><path d="M1326.6 670.5c8.6 1.2 17.7 5 25.6 2.8 12.1-3.3 7.1 5.3 7.6 10.7-4.9-.3-9.2-.3-13.4-.8-2.2-.2-4.4-1.2-8.2-2.3-.9 1.8-2.8 5.7-4.8 9.6-.7-.3-1.3-.6-2-.9.3-3.1.6-6.2.9-10.3-2.3 2.3-4.1 4.1-5.9 6-.6-.9-1.2-1.7-1.8-2.6-.6-2.8-1.2-5.5-1.8-8.3 1.4-1.2 2.6-2.5 3.8-3.9" class="st13"/><path d="M1158.9 274.2h8.5v42.2h-8.5z" class="st14"/><path d="M795.1 556.3c-3.7 0-8.2 1.5-10.8-.5-1.7-1.4-.5-8-.6-12.2h11.7l.2.2H807c-.1 4.1 1 10.5-.6 11.8-2.4 2-6.9.5-10.4.5-.2 0-.6.1-.9.2" class="st15"/><path d="M435.5 93.9c-.5-7.8-.9-15.5-1.5-23.9-3.5-1-6.9-2-10.4-3 .1-.8.1-1.7.2-2.5h27.4l.3 2.7c-3.2.7-6.3 1.5-10.3 2.4-.5 7.9-1 16-1.6 24.2-1.4.1-2.8.1-4.1.1" class="st12"/><path d="M875.8 565.1c-1.4-9.3-2.4-16.1-3.8-25.7 2.8 4.4 4.3 6.7 4.5 7 5.7-2 10.4-4.5 15.3-5 1.8-.2 5.3 4.2 5.5 6.7.1 3.1-1.8 7.6-4 9.3-1.5 1.1-5.2-.9-7.4-2.7-1.4-1.1-1.8-4.2-2.6-6.3-2.7 5.7-5.1 11.3-7.5 16.7" class="st15"/><path d="M1541 677.3c0 14.7 0 14.7-13 14.7-11.8 0-11.8 0-11.8-16.1 0-14.2 0-14.2 13.4-14.1 11.4 0 11.4 0 11.4 15.5m-4.3 10v-20.6h-16.3v20.6z" class="st16"/><path d="M364.8 69.8c2.6 6.6 3.7 16.9-.5 19.5-6.2 3.9-15.4 4.7-22.1 2.1-3.2-1.2-3.5-13.2-5.2-20.4 1.5-.5 3-.9 4.5-1.4.6 3.5 1.9 7.1 1.7 10.5-.6 8.9 4 8.7 9 8.6 4.9-.1 9.7.3 9.1-8.6-.2-3.5.6-7.1.9-10.6.9.1 1.7.2 2.6.3" class="st12"/><path d="M754.5 744.4c0 14.5 0 14.5-13.2 14.4-11.7 0-11.7 0-11.6-16.3 0-13.9 0-13.9 13.6-13.9 11.3 0 11.3 0 11.2 15.8m-20.7-11v20.2h16.6v-20.2zm-266.2 9.7c0-14.5 0-14.5 13.2-14.4 11.7 0 11.7 0 11.7 16.3 0 13.9 0 13.9-13.6 13.9-11.3-.1-11.3-.1-11.3-15.8m4 10.8h16.6v-20.3h-16.6zm-254 4.9c-12.2 0-12.2 0-12.2-15.6 0-14.6 0-14.6 13.1-14.5 11.7 0 11.7 0 11.7 16.2 0 13.9 0 13.9-12.6 13.9m8.9-25h-16.9v19.8h16.9zm777.3 91.8c-12 0-12 0-11.9-15.9 0-14.3 0-14.3 13.3-14.3 11.5 0 11.5 0 11.5 16.5 0 13.7 0 13.7-12.9 13.7m-7.9-4.9h16.6v-20.4h-16.6zm7.9-61.9c-11.9 0-11.9 0-11.9-16 0-14.3 0-14.3 13.3-14.2 11.5 0 11.5 0 11.5 16.5 0 13.7 0 13.7-12.9 13.7m-7.9-5.1h16.7v-20h-16.7zm-585 290.2c0 14.6 0 14.6-13.1 14.5-11.7 0-11.7 0-11.7-16.2 0-14 0-14 13.5-14 11.3.1 11.3.1 11.3 15.7m-4.1 9.7v-20.2h-16.6v20.2zM492.4 878c0 14.5 0 14.5-13.1 14.4-11.7 0-11.7 0-11.7-16.3 0-14 0-14 13.6-13.9 11.2.1 11.2.1 11.2 15.8m-20.6-10.9v20.1h16.5v-20.1zM230.3 878c0 14.5 0 14.5-13.1 14.4-11.7 0-11.7 0-11.7-16.3 0-14 0-14 13.6-13.9 11.2.1 11.2.1 11.2 15.8m-20.9 9.5H226v-20.3h-16.6zm1199.1 140.8c12 0 12 0 12 15.8 0 14.4 0 14.4-13.2 14.3-11.6 0-11.6 0-11.6-16.4 0-13.7 0-13.7 12.8-13.7m-8.7 4.8v20.2h16.7v-20.2zm-206 9.8c0-14.7 0-14.7 13-14.7 11.8 0 11.8 0 11.8 16.1 0 14.1 0 14.1-13.4 14.1-11.4 0-11.4 0-11.4-15.5m3.8 10.3h16.9v-19.8h-16.9zm81.2-175.4c0 14.7 0 14.7-13 14.6-11.8 0-11.8 0-11.8-16.1 0-14.1 0-14.1 13.4-14.1 11.4.1 11.4.1 11.4 15.6m-20.8 9.7h16.6v-20.2H1258zm-253.2-25.2c11.9 0 11.9 0 11.9 16 0 14.2 0 14.2-13.4 14.2-11.4 0-11.4 0-11.4-16.6 0-13.6 0-13.6 12.9-13.6m-9 25.2h16.6v-20.2h-16.6zm-241.3-9.6c0 14.6 0 14.6-13.1 14.5-11.7 0-11.7 0-11.7-16.2 0-14 0-14 13.5-14 11.4.1 11.4.1 11.3 15.7m-20.5-11v20.5h16.2v-20.5zm-503.7-56.3c0 15 0 15-12.7 15-12.1 0-12.1 0-12.1-15.7 0-14.5 0-14.5 13.1-14.5 11.7.1 11.7.1 11.7 15.2M226 821v-20.5h-16.2V821zm528.5-9.9c0 14.6 0 14.6-13.1 14.6-11.8 0-11.8 0-11.8-16.1 0-14.1 0-14.1 13.5-14 11.5-.1 11.5-.1 11.4 15.5m-20.7 9.4h16.7v-20h-16.7z" class="st16"/><path d="M480.5 556.4H459v-18.8c6.2 2.2 11.2 11 18.6 3.8.9-.9 5 3.1 7.6 4.8l-.9 2.7c-3 .6-5.9 1.1-8.9 1.7-.2.7-.4 1.5-.6 2.2 2.4 1.5 4.8 3 5.7 3.6" class="st15"/><path d="M1004.7 1028.3c12 0 12 0 12 15.8 0 14.4 0 14.4-13.2 14.3-11.6 0-11.6 0-11.6-16.4 0-13.7 0-13.7 12.8-13.7m-8.8 25.1h16.5v-20.1h-16.5zM790 1043c0-14.8 0-14.8 12.9-14.8 11.9 0 11.9 0 11.9 16 0 14.3 0 14.3-13.3 14.2-11.5 0-11.5 0-11.5-15.4m20.8-9.8h-16.6v20.2h16.6zM217.5 692c-12.1 0-12.1 0-12-15.8 0-14.4 0-14.4 13.2-14.4 11.6 0 11.6 0 11.6 16.3-.1 13.9-.1 13.9-12.8 13.9m8.7-4.8V667h-16.6v20.2zM600 1058.4c-12 0-12 0-12-15.8 0-14.4 0-14.4 13.2-14.3 11.6 0 11.6 0 11.6 16.4 0 13.8 0 13.8-12.8 13.7m-7.8-25.2v20.4h16.4v-20.4zm-99.8-356c0 14.7 0 14.7-12.9 14.7-11.9 0-11.9 0-11.9-16 0-14.2 0-14.2 13.4-14.2 11.4.1 11.4.1 11.4 15.5m-20.8 9.7h16.5v-20.1h-16.5zm270.1 5.1c-12 0-12 0-12-15.9 0-14.3 0-14.3 13.3-14.3 11.6 0 11.6 0 11.5 16.4 0 13.8 0 13.8-12.8 13.8m8.9-25.2h-16.5v20.1h16.5zm241.3 9.8c0-14.8 0-14.8 12.9-14.8 12 0 12 0 11.9 15.9 0 14.3 0 14.3-13.3 14.3-11.5 0-11.5 0-11.5-15.4m20.6 10.5V667H996v20.1zm253.9 4.9c-12.3 0-12.3 0-12.3-15.4 0-14.8 0-14.8 12.9-14.7 11.9 0 11.9 0 11.9 16-.1 14.1-.1 14.1-12.5 14.1m-8.1-25.6V687h16.3v-20.6zm20.5 278.5c0 14.5 0 14.5-13.2 14.4-11.7 0-11.7 0-11.6-16.3 0-13.9 0-13.9 13.6-13.9 11.2 0 11.2 0 11.2 15.8M1258 934v20.2h16.8V934zm-254.1 25.3c-12.1 0-12.1 0-12-15.8 0-14.4 0-14.4 13.2-14.4 11.6 0 11.6 0 11.6 16.3 0 13.9 0 13.9-12.8 13.9m8.7-4.8v-20.2H996v20.2zm-258.1-9.7c0 14.5 0 14.5-13.1 14.5-11.7 0-11.7 0-11.7-16.2 0-14 0-14 13.5-14 11.4 0 11.4 0 11.3 15.7m-4.1 9.6v-20.1h-16.5v20.1zm-270.7 4.9c-12.1 0-12.1 0-12.1-15.7 0-14.5 0-14.5 13.1-14.5 11.7 0 11.7 0 11.7 16.2 0 14 0 14-12.7 14m8.5-4.9v-20.1h-16.5v20.1zm-257.9-10.7c0 15.6 0 15.6-12.2 15.6-12.6 0-12.6 0-12.6-15.2 0-15 0-15 12.7-15 12.1 0 12.1 0 12.1 14.6m-20.8 10.5H226v-20.1h-16.5zm1318.7-61.7c-12 0-12 0-12-15.8 0-14.4 0-14.4 13.2-14.3 11.6 0 11.6 0 11.6 16.4-.1 13.7-.1 13.7-12.8 13.7m-8.2-5.2h16.9v-19.8H1520zm8.9-91.9c12.1 0 12.1 0 12.1 15.8 0 14.4 0 14.4-13.2 14.4-11.6 0-11.6 0-11.6-16.3 0-13.9 0-13.9 12.7-13.9m8.1 5h-16.6v20.3h16.6zm-271.1 25.2c-11.9 0-11.9 0-11.9-16 0-14.3 0-14.3 13.3-14.2 11.5 0 11.5 0 11.5 16.5 0 13.7 0 13.7-12.9 13.7m-7.9-5h16.5v-20.1H1258zm270.1-61.8c-12 0-12 0-11.9-15.9 0-14.3 0-14.3 13.3-14.3 11.5 0 11.5 0 11.5 16.5-.1 13.7-.1 13.7-12.9 13.7m-8-4.9h16.6v-20.3h-16.6zm-241.3-9.6c0 14.6 0 14.6-13.1 14.5-11.7 0-11.7 0-11.7-16.2 0-14 0-14 13.5-14 11.3 0 11.3 0 11.3 15.7m-4.1 9.7v-20.2h-16.6V754zm-795.1 71.6c-12 0-12 0-12-15.8 0-14.4 0-14.4 13.2-14.3 11.6 0 11.6 0 11.6 16.4 0 13.7 0 13.7-12.8 13.7m8.8-25.1h-16.5v20.1h16.5z" class="st16"/><path d="M784.7 817.1c-6 .9-12 1.8-18.8 2.8v-19.5c2.7 1.7 5 3.2 7.4 4.6-.1-.5-.2-1.1-.3-1.6 4.1.3 8.2.6 12.2.9-.6.9-1.3 1.8-1.9 2.7.5 1.9 1.1 3.7 1.6 5.6 1.6.5 3.3 1 4.9 1.5 0 .6 0 1.2-.1 1.8-1.6.4-3.3.8-5 1.2" class="st13"/><path d="M531.5 685.4c-2.1.5-4.3 1-8.2 1.9-3.5-3.1-8.9-7.7-14.3-12.4-.7 2.5-1.7 5.7-2.6 8.9-.7-.2-1.4-.3-2.1-.5.8-5.5 1.6-10.9 2.8-19.5 6.7 15.2 16.6 7.5 24.5 10l5.1 2.4c-1.6 3.1-3.4 6.2-5.2 9.2" class="st17"/><path d="M323 92.9V61.8c5.8 4.3 9.4 7.1 13 9.8-2.4 3.1-5.6 5.7-7 9.4-1.5 3.8-1.2 8.7-1.7 13.1-1.5-.4-2.9-.8-4.3-1.2" class="st3"/><path d="M128.4 549c6.7-10.8 9.2-10.9 14.5-.5-3.2.7-6.2 1.4-11.5 2.7 3.8 2.7 6 4.3 9.8 6.9-6.5-.9-11.7-1.7-16-2.3-1.5-2.7-2.9-5.4-4.6-7.8-1.6-2.2-3.9-3.6-5.2-5.9-.3-.5 2.2-4.8 3.5-4.9 2.8-.2 5.6 1.3 7.8 4.4l-8.1-1.5c-.2 1-.4 1.9-.5 2.9 3.3 2 6.6 3.9 10.3 6m172.7 12c2 .3 4.1.7 6 1-2.6-4.7-7.1-9-7.1-13.3.1-7.7 5.3-9 12.5-5.9-1 6.7-1.6 13.8-3.4 20.5-.3 1.3-5.3.7-8.2.9.2-1 .2-2.1.2-3.2" class="st15"/><path d="M575.7 683.4c-2.1 1.7-4.2 3.4-6.4 5.3-4.5-4.5-9.2-9.2-14.9-15 8.6-.8 15.1-1.4 19.6-1.8.9 3.1 1.4 5 2 6.9 1.6.5 3.3 1 4.9 1.5v1.8c-1.8.5-3.5.9-5.2 1.3" class="st13"/><path d="M187.2 259.3c0 3.9.2 7.1-.1 10.2-.3 3.2-1 6.3-1.5 9.4-8.3 1.9-9.5-.8-8.4-19.6z" class="st7"/><path d="M192.8 259.1h9.4c-.5 7.1-.9 13.7-1.3 20-8.8 1.3-11.1-5.1-8.1-20" class="st10"/><path d="M1702.3 354.4c-.8 7.3-1.4 13.5-2 19.6-8.7 1.2-10-2.2-8.3-19.6z" class="st7"/><path d="M1705.4 353.8h9.9c2.4 16 .8 20.8-7.9 20.6-.5-6.3-1.2-12.8-2-20.6" class="st10"/><path d="M243.7 566.1c-1.6-9.2-2.7-16-3.9-22.8-1.1.1-2.3.1-3.4.2-.8 4.6-1.5 9.2-2.3 13.8-.5-.1-1-.1-1.5-.2V543c8.5-3.3 8.5-3.3 12.6 7.8 1.4-3.2 2.7-6.1 4-9.1.7.4 1.4.8 2.1 1.1-2.4 7.4-4.8 14.8-7.6 23.3m430.6-5.1-11.2-8.4c2.8-5.4 5.6-10.8 8.4-16.3.9.5 1.9 1.1 2.8 1.6z" class="st15"/><path d="M1242.6 1051.1c-4.3-.9-8.6-1.7-12.8-2.6.1-.7.2-1.5.3-2.2 4-.4 8-.9 12.9-1.4-2.2-4.8-3.4-7.4-5.1-11.1 9.3 3.7 16.5 7.6 11.2 22.7-2.2-2.8-3.9-5.1-5.7-7.3-.3.6-.6 1.2-.8 1.9" class="st17"/><path d="M1408.1 950.7c-4.4-.4-8.8-.8-13.7-1.2-.2-3.1-.4-6.2-.7-10.8 5.2-.5 9.9-.9 14.6-1.3-.5 1.1-1.1 2.2-1.6 3.3.6 1.8 1.1 3.7 1.7 5.5 1.6.5 3.3 1 4.9 1.5 0 .6 0 1.2-.1 1.8-1.7.5-3.4.8-5.1 1.2" class="st13"/><path d="M631.2 550.1c-4.3 3.8-7.4 8.4-9.2 7.7-2.7-1-5.8-5.6-6.1-9-.2-2.3 4.1-7.2 6.4-7.2 2.4 0 4.8 4.4 8.9 8.5m216.6 12.3c-2.8-6.3-5.6-9.9-5.3-12.9.4-3.1 3.9-5.7 6-8.5 2.2 3.2 5.8 6.1 6.2 9.6.4 2.7-3.3 6-6.9 11.8m-430.9-13.1c-4 4.1-6.5 8.6-8.9 8.5-2.3 0-6.6-4.9-6.4-7.2.3-3.4 3.4-8 6-9 1.9-.7 5 3.9 9.3 7.7m90.8-12.3c3.6 5.8 7.2 9.2 6.9 11.9-.4 3.5-4 6.4-6.2 9.6-2.1-2.8-5.7-5.4-6-8.5s2.6-6.7 5.3-13" class="st15"/><path d="M830.7 950.7c-4.4.6-8.9 1.1-14.8 1.9 2.9-6.6 5.1-11.6 7.9-18 1.8 1.3 4.6 3.2 7.4 5.1-.6.4-1.3.7-1.9 1.1.6 1.8 1.1 3.6 1.7 5.5 1.6.5 3.3 1 4.9 1.5v1.8c-1.8.3-3.5.7-5.2 1.1M790 683.4c-8.9 2.6-14.1-4.1-20.5-13.6 5.7 1.7 9.6 2.9 13.6 4.1 1.3-.8 3.8-2.3 5.1-3.1l2 8c1.6.5 3.3 1 4.9 1.5 0 .6 0 1.2-.1 1.8-1.6.5-3.3.9-5 1.3" class="st13"/><path d="M512.6 61.4v32.1c-5.2-4.9-5.7-22.9 0-32.1M380.8 71.7v1.1c-11.3 1.4-4.9 15.2-9.3 21.3-1-.2-2-.4-3.1-.5.5-6.8.3-13.9 2-20.3.5-1.7 6.8-1.2 10.4-1.6" class="st12"/><path d="M158 559.5c-6.2-1.8-9.8-2.9-13.4-4 2.2-3.5 4.3-7 6.8-10.9-.8-.4-2.4-1.2-5.6-2.7 14.1-3 8.5 9.3 12.2 17.6m211.2-10.6c-3 .6-5.9 1.2-8.9 1.8-.2.7-.4 1.5-.6 2.2 2.4 1.3 4.7 2.7 7.1 4-.5.9-1 1.8-1.5 2.6-2.9-2.4-7-4-8.2-7.3-.9-2.5 1.5-9.2 3.6-10 2.6-1 6.2 2.1 9.4 3.4z" class="st15"/><path d="M284.9 683.2h-11v-18.6c4.4 7.4 12.6 8.6 11 18.6" class="st17"/><path d="M294.3 882.9v-10.6h9.6v13.1c-3.1-.8-5.9-1.5-9.6-2.5" class="st13"/><path d="M341.9 541.3c1.1-.4 2.2-.8 3.3-1.4.8-.4 1.5-1.1 2.2-1.6 4.5 11.7 3.7 14.5-5.5 19.8z" class="st18"/><path d="M1335.5 883.9c-3.3.5-6.7 1-10.5 1.6 1.2-8.6 2.2-15.8 8.5-13.7 1.2 3.9 1.7 5.7 2.3 7.6 1.6.5 3.3 1 4.9 1.5v1.8c-1.8.4-3.5.8-5.2 1.2" class="st13"/><path d="M340.3 558.2c-2.1-.9-4.2-1.9-6.9-3.1v-17.2c2.6 1.3 4.8 2.3 6.9 3.4z" class="st17"/><path d="M1059.2 683.4c-2.5.6-5 1.2-8.3 1.9v-13.4h6.5c.9 3.1 1.5 5 2 6.9 1.6.5 3.3 1 4.9 1.5v1.8c-1.7.5-3.4.9-5.1 1.3" class="st13"/><path d="M1039.8 818.8c-3.3-7.6-7.5-3.8-11.9-.7V800c2.7 4.5 4.7 7.8 7.2 12.1 1.3-4.9 2.1-7.9 3-10.9.5 5.9 1.1 11.8 1.7 17.6m318.8 133.7c-3.3-7.6-7.5-3.8-11.9-.7v-18.1c2.7 4.5 4.7 7.8 7.2 12.1 1.3-4.9 2.1-7.9 3-10.9.5 5.9 1.1 11.7 1.7 17.6" class="st19"/><path d="M1585.3 683.4c-2.5.6-5 1.2-8.3 1.9v-13.4h6.5c.9 3.1 1.5 5 2 6.9 1.6.5 3.3 1 4.9 1.5v1.8c-1.7.5-3.4.9-5.1 1.3" class="st13"/><path d="M588.3 555.6c-1-5.2-1.8-9.6-2.8-14.8 4.6-1.4 8.4-2.6 14.2-4.4-4.3 7.5-7.4 12.6-11.4 19.2" class="st20"/><path d="M1574.5 871c3.5 3.8 11.4 3.7 8.6 12.4-3.4 1-6 1.7-8.6 2.4-.6-.9-1.2-1.7-1.8-2.6-.6-2.8-1.2-5.5-1.8-8.3 1.3-1.2 2.4-2.6 3.6-3.9M338.2 937.8c3.5 3.8 11.4 3.7 8.6 12.4-3.4 1-6 1.7-8.6 2.4-.6-.9-1.2-1.7-1.8-2.6-.6-2.8-1.2-5.5-1.8-8.3 1.3-1.2 2.4-2.5 3.6-3.9" class="st13"/><path d="M553.5 541.9c-2.5-.8-5-1.5-7.6-2.3-.1.7-.3 1.3-.4 2 3.2 3.7 6.6 7.4 9.5 11.4.2.3-2.2 3.4-2.6 4-1.7-3.3-2.9-6.3-4.6-8.8-1.6-2.4-3.9-4.2-5.5-6.7-.2-.3 2-4.2 3.1-4.2 2.9-.1 5.9 1.1 8.8 1.7-.2.9-.5 1.9-.7 2.9" class="st15"/><path d="M1211.8 102.8c-.3-3-.6-5.9-1-9.4h-10.9c-.4 3-.8 6.2-1.2 9.5-.4 0-.8-.1-1.2-.1V80.5c.3-.1.6-.2.9-.2.5 3.1 1 6.1 1.6 9.6h10.3c.5-2.9 1-6 1.6-9.2h1.1v21.9c-.4 0-.8.1-1.2.2" class="st11"/><path d="M1078.6 1037.2c2.1-1 4.2-1.9 6.8-3.1v13.7c-2.7 2.5-4.8 4.4-7 6.4 0-5.6.1-11.3.2-17" class="st21"/><path d="M850 1032.8c2.2.6 4.3 1.3 6.9 2v15c-1.6.1-3.3.2-5 .3-.6-5.8-1.3-11.6-1.9-17.3" class="st18"/><path d="M570.2 537.5c-4.6 1.4-7.5 2.2-10.5 3.1.1 1.1.1 2.2.2 3.4 2.9.8 5.7 1.5 7.9 2.1-2.3 1.6-5.1 3.6-7.8 5.5 2.7 2.2 5.4 4.5 7.2 6h-8.5v-20.1z" class="st16"/><path d="M1421.9 748.2c-2.8-.5-5.6-.9-8.8-1.5-.5-2.7-1.3-7.4-2-11.2 1.2 2.2 2.9 5.4 4.4 8.4 2.3-.9 4.3-1.8 6.4-2.6zm-372 200.5c-2.8-.5-5.6-.9-8.8-1.5-.5-2.7-1.3-7.4-2-11.2 1.2 2.2 2.9 5.4 4.4 8.4 2.3-.9 4.3-1.8 6.4-2.6zm-449.8 0c-2.8-.5-5.6-.9-8.8-1.5-.5-2.7-1.3-7.4-2-11.2 1.2 2.2 2.9 5.4 4.4 8.4 2.3-.9 4.3-1.8 6.4-2.6z" class="st22"/><path d="M326.3 670.7c.4-.1.9-.1 1.3.1v14.4c-1.1-.6-2.2-1.1-3.3-1.7-1.9 0-3.7 0-5.6-.1.6-2.8 1.1-5.6 1.7-8.4v-4.8c1.2-.5 2.3-1.1 3.5-1.6.2 1.7.5 3.4.7 5.1.6-1.1 1.1-2 1.7-3" class="st19"/><path d="M1048.4 667.7v15.6h-8.9c2.3-3 4.2-5.4 6.6-8.6-2.2-1.9-4.1-3.5-7.7-6.5 4.4-.2 7-.3 10-.5" class="st23"/><path d="M805.6 683.7c-2.9.5-5.7 1.1-8.6 1.6 0-4.3-.1-8.6-.1-12.9 2.3-1.2 4.7-2.4 7.2-3.7v10.5q.75 2.1 1.5 4.5" class="st21"/><path d="M614.2 880c-3.7 1.3-7.4 2.5-11.7 4v-13.3c4.4 2.3 8.1 4.2 11.7 6.2z" class="st19"/><path d="M1066.1 672.4c2.3-1.2 4.6-2.4 7.3-3.8v14.6c-2.3.7-4.8 1.4-7.2 2.1 0-4.3 0-8.6-.1-12.9M568.8 883.7l-2.1.6v-2.7c-.5-2.9-1-5.8-1.5-8.8l.7-.6.7.6c2.4-1.2 4.7-2.4 7.5-3.8v16.2c-1.3-.5-2.6-1.1-3.9-1.7-.5.2-.9.1-1.4.2m773.5-10.9c2.1-1.3 4.2-2.7 6.8-4.3v14.7c-1.9.8-4.2 1.6-6.5 2.5z" class="st21"/><path d="M264.6 685.1c-.3-5.6-.7-11.1-1-17.2 6.6 3.3 7.3 7.3 1 17.2" class="st17"/><path d="M1736.7 97.1c-1.7 1.4-3.4 2.7-5.6 4.5V81.2c.6-.2 1.3-.4 1.9-.5l2.7 10.2c.4 1.9.7 4 1 6.2" class="st24"/><path d="M1681.4 411.3h-9.1v-9.9c2.5-.2 5.1-.4 8.2-.6.3 3.4.5 6.4.9 10.5" class="st11"/><path d="M558.2 890.1c-1.8-2.4-3.6-4.9-5.5-7.3-.6.3-1.1.7-1.7 1v-10.1c2.5-.9 4.8-1.7 7.2-2.6z" class="st17"/><path d="M830.7 818.9c-2.2-1.3-4.3-2.5-6.8-3.9v-13.5c3.1-1.2 2.3 10.5 6.8 2.9zm802.3 0c-2.2-1.2-4.3-2.5-6.8-3.9v-13.5c3.1-1.2 2.3 10.5 6.8 2.9z" class="st19"/><path d="M1105.2 739.2c2.5.2 5.1.3 8.5.6-2.1 5.3-2.3 11.2-8.5 10.6zm262.1 0c2.5.2 5.1.3 8.5.6-2.1 5.3-2.3 11.2-8.5 10.6zm-524.3 0c2.5.2 5.1.3 8.5.6-2.1 5.3-2.3 11.2-8.5 10.6z" class="st18"/><path d="M301 674.1v6.9c-2.5-.2-4.6-.3-7.3-.5-.1-2.9-.3-6.6-.4-9.2 1.7 1.5 3.8 3.4 6 5.3.6-.9 1.1-1.7 1.7-2.5" class="st22"/><path d="M1645.7 756.5c-1.8-2.4-3.6-4.9-5.5-7.3-.6.3-1.1.7-1.7 1v-10.1c2.5-.9 4.8-1.7 7.2-2.6zm-547.3 133.6c-1.8-2.4-3.6-4.9-5.5-7.3-.6.3-1.1.7-1.7 1v-10.1c2.5-.9 4.8-1.7 7.2-2.6z" class="st17"/><path d="M312.8 685.9c-2.3-4-4.7-7.9-7.4-12.5 3.6-.6 6-.9 9.1-1.4v12.4c-.5.5-1.1 1-1.7 1.5" class="st13"/><path d="M1062.6 818.8c-2.2-1.2-4.3-2.4-6.8-3.8v-13.6c3.1-1.1 2.3 10.3 6.8 3z" class="st19"/><path d="M690.6 1037c2.2.6 4.3 1.3 6.9 2v10.2c-2.3.9-4.6 1.7-6.9 2.6zm451.8-231c1.8 1.1 4.8 1.9 5.1 3.5 1.1 5 .5 9.8-5.3 9.7.1-4.5.1-8.9.2-13.2" class="st18"/><path d="M538.3 670.8c6 .9 8.6 4.7 7.3 10.2-3.2 3-5.3 4.9-7.5 6.8.1-5.7.2-11.4.2-17" class="st21"/><path d="M1369 683.9h-6.5c.2-4.9-3.1-11.5 4.9-11.9.5 4 1 8 1.6 11.9" class="st19"/><path d="M1376 670.6c3.8 3 9.9 4.1 7.1 12-2.5 1-4.8 1.9-7.1 2.8z" class="st18"/><path d="M576.7 540.2v14.6c-1 .1-2 .1-2.9.2-.3-5-.6-9.9-.9-14.9 1.3 0 2.5 0 3.8.1" class="st20"/><path d="M791.4 806c7.1-1.2 8.3 3.6 7.1 10.3-2.3.9-4.6 1.8-6.8 2.7-.1-4.4-.2-8.7-.3-13" class="st21"/><path d="M1128.1 937.9c3.8 2.8 9.9 3.7 7 12.1-2.3.9-4.6 1.8-7 2.7zM373.5 804.2c3.6 3.2 10.7 3.4 6.8 12.1-2.2.9-4.5 1.8-6.8 2.7z" class="st18"/><path d="M828.6 872.8c7.1-1.2 8.3 3.6 7.1 10.3-2.3.9-4.6 1.8-6.8 2.7-.1-4.4-.2-8.7-.3-13" class="st21"/><path d="M832.3 804.2c3.8 2.8 9.9 3.7 7 12.1-2.3.9-4.6 1.8-7 2.7zm802.3 0c3.8 2.8 9.9 3.7 7 12.1-2.3.9-4.6 1.8-7 2.7zM554.2 737.4c3.8 3 9.9 4.1 7.1 12-2.5 1-4.8 1.9-7.1 2.8z" class="st18"/><path d="M814.5 672.3c7.1-1.2 8.3 3.6 7.1 10.3-2.3.9-4.6 1.8-6.8 2.7-.2-4.3-.2-8.7-.3-13" class="st21"/><path d="M558.2 890.1v-19l8.4 1.8-.7-.6-.7.6-.5.7c-1.6 1.4-3.2 2.9-4.8 4.3 1.7 2.7 3.4 5.4 5 8-2.2 1.4-4.5 2.8-6.7 4.2" class="st25"/><path d="M795 939.6c2.2.6 4.3 1.1 6.9 1.8.2 2.8.3 5.8.5 8.4-2.6 1-4.9 1.9-7.1 2.8z" class="st21"/><path d="M1098.4 890.1v-19c2.6.4 5.2.7 7.8 1.1-.4-.1-.7.1-.8.6l-.5.6c-1.6 1.4-3.2 2.9-4.8 4.3 1.7 2.7 3.4 5.4 5.1 8-2.3 1.6-4.6 3-6.8 4.4" class="st25"/><path d="M1229.2 88.4c1.7.9 5.1 2.3 5 2.7-.9 4.2-2.3 8.3-3.5 12.4-.8-.3-1.5-.7-2.3-1 .3-4.7.5-9.4.8-14.1" class="st13"/><path d="M343.3 806c2.1.6 4.3 1.1 6.9 1.8.2 2.8.3 5.8.5 8.4-2.6 1-4.9 1.9-7.1 2.8-.1-4.4-.2-8.7-.3-13" class="st21"/><path d="M1645.7 756.5v-19c2.6.4 5.2.7 7.8 1.1-.4-.1-.7.1-.8.6l-.5.6c-1.6 1.4-3.2 2.9-4.8 4.3 1.7 2.7 3.4 5.4 5.1 8-2.3 1.5-4.6 2.9-6.8 4.4" class="st25"/><path d="M372.1 818.9c-2-.8-4.1-1.6-7-2.8-3.3-7.3 3.2-8.6 7-11.8z" class="st19"/><path d="M1133.5 819c-2.3 1.4-4.5 2.9-6.8 4.3v-19c2.7.5 5.4.9 8.2 1.4l-.7-.3-.5.6-.5.7c-1.6 1.4-3.2 2.9-4.8 4.3 1.7 2.7 3.4 5.3 5.1 8" class="st25"/><path d="M1592 672.3c2.2.6 4.3 1.1 6.9 1.8.2 2.8.3 5.8.5 8.4-2.6 1-4.9 1.9-7.1 2.8z" class="st21"/><path d="M1574.5 871c-1.2 1.3-2.4 2.6-3.5 4l-.1.4c-.1 2.2-.1 4.4-.2 6.6.7.4 1.4.9 2.1 1.3.6.9 1.2 1.7 1.8 2.6-2.3 1.4-4.5 2.8-6.8 4.3v-19c2.2-.1 4.5-.2 6.7-.2m-1238 79.1c.6.9 1.2 1.7 1.8 2.6-2.3 1.4-4.5 2.8-6.8 4.3v-19c2.2 0 4.5-.1 6.7-.1-1.2 1.3-2.4 2.6-3.5 4l-.1.4c-.1 2.2-.1 4.4-.2 6.6q1.05.45 2.1 1.2" class="st25"/><path d="M1653.5 738.6c2.2.4 4.5.9 7.3 1.4.2 3.5.4 6.8.7 10.5-2.6-.7-4.7-1.2-6.9-1.8l-.4-.8c-.5-2.9-1-5.9-1.5-8.8.2-.4.4-.6.8-.5" class="st21"/><path d="M1425.6 747.8v-6.1l.4-.4c5.2.1 10.6-.2 7.9 9.6-2.8-.9-5.4-1.8-8-2.7z" class="st17"/><path d="M1220.8 86c.9 6.1 1.6 10.8 2.5 16.5-8.1-6.4-8.3-7.3-2.5-16.5" class="st13"/><path d="M1106.2 872.2c2.2.4 4.5.9 7.3 1.4.2 3.5.4 6.8.7 10.5-2.6-.7-4.7-1.2-6.9-1.8l-.4-.8c-.5-2.9-1-5.9-1.5-8.8.1-.4.4-.5.8-.5" class="st21"/><path d="M1324.8 682.8c.6.9 1.2 1.7 1.8 2.6-2.3 1.4-4.5 2.8-6.8 4.3v-19c2.2 0 4.5-.1 6.7-.1-1.2 1.3-2.4 2.6-3.5 4l-.1.4c-.1 2.2-.1 4.4-.2 6.6q1.05.45 2.1 1.2" class="st25"/><path d="M548.9 804.2c2.9 3.4 5.9 6.8 9.6 11.1-4.9 1.9-7.2 2.8-9.6 3.7z" class="st18"/><path d="M604.2 941.8c8.4.7 8.4.7 7.8 9.6-2.6-.9-5.2-1.7-7.9-2.6l-.4-.4v-6.1zm449.9 0c8.4.7 8.4.7 7.8 9.6-2.6-.9-5.2-1.7-7.9-2.6l-.4-.4v-6.1zm120.4-200.5c8.4.7 8.4.7 7.8 9.6-2.6-.9-5.2-1.7-7.9-2.6l-.4-.4v-6.1zm-553 140.2v-6.1l.4-.4c8.4.7 8.4.7 7.8 9.6-2.6-.9-5.2-1.7-7.9-2.6.1-.1-.3-.5-.3-.5m946.3-10.4v19c-2.3-6.4-4.6-12.9-6.9-19.3 1 .8 2 1.5 3.1 2.3 1.3-.7 2.5-1.3 3.8-2" class="st17"/><path d="M1078.6 1037.2c-.1 5.7-.1 11.3-.2 17-2.3-1.4-4.6-2.9-6.9-4.3.3-.6.3-1.2.1-1.8 1.7 0 4.5.5 4.8-.2.7-2 .7-4.8 0-6.8-.3-.8-3.1-.2-4.8-.3.3-.6.2-1.2-.1-1.8 2.4-.6 4.7-1.2 7.1-1.8" class="st26"/><path d="M331.5 937.9v19c-2.3-6.4-4.6-12.9-6.9-19.3 1 .8 2 1.5 3.1 2.3 1.2-.6 2.5-1.3 3.8-2" class="st17"/><path d="M538.3 670.8c-.1 5.7-.1 11.3-.2 17l-6.6-2.4c1.8-3 3.5-6 5.3-9.1l-5.1-2.4c2.2-1.1 4.4-2.1 6.6-3.1" class="st26"/><path d="M1115.9 817.1c-2.6-.3-5.1-.5-7.7-.8 0-1 0-2 .1-3 2.6-.3 5.2-.5 7.8-.8 1.6.5 3.3 1 4.9 1.5 0 .6 0 1.2-.1 1.8-1.6.5-3.3.9-5 1.3" class="st13"/><path d="M278 873c2.5-1.9 4.9-3.7 7.4-5.6 0 6-.1 11.9-.1 17.9-2.4-.5-4.7-1-7.1-1.5l.8.2.8-.2c5.6-3.5 5.7-7 .1-10.6-.6-.1-1.2-.1-1.9-.2" class="st9"/><path d="M1360.3 752.1c-2.4-.6-4.7-1.2-7.1-1.9 1.7-.4 3.4-.8 5.1-1.1 0-.6 0-1.2.1-1.8-1.6-.5-3.3-1-4.9-1.6 2.2-2.2 4.5-4.3 6.7-6.5 0 4.3 0 8.6.1 12.9m-18 120.7c.1 4.3.2 8.6.3 13-2.3-.6-4.7-1.3-7.1-1.9l5.1-1.2v-1.8c-1.6-.5-3.3-1-4.9-1.5zm-773.8-53.9c-2.4-.6-4.7-1.2-7.1-1.9 1.7-.4 3.4-.8 5.1-1.1 0-.6 0-1.2.1-1.8-1.6-.5-3.3-1-4.9-1.6 2.2-2.2 4.5-4.3 6.7-6.5.1 4.3.1 8.6.1 12.9M1592 672.3c.1 4.3.2 8.6.3 13-2.3-.6-4.7-1.3-7.1-1.9l5.1-1.2v-1.8c-1.6-.5-3.3-1-4.9-1.5 2.3-2.2 4.4-4.4 6.6-6.6M791.4 806c.1 4.3.2 8.6.3 13-2.3-.6-4.7-1.3-7.1-1.9 1.7-.4 3.4-.8 5.1-1.1 0-.6 0-1.2.1-1.8-1.6-.5-3.3-1-4.9-1.5 2.2-2.3 4.4-4.5 6.5-6.7m23.1-133.7c.1 4.3.2 8.6.3 13-2.4-.6-4.7-1.2-7.1-1.9l5.1-1.2c0-.6 0-1.2.1-1.8-1.6-.5-3.3-1-4.9-1.6z" class="st25"/><path d="M1652.5 752.2c-1.7-2.7-3.4-5.4-5.1-8 1.6-1.4 3.2-2.9 4.8-4.3.7 2.7 1.3 5.4 2 8.1l.4.8c-.7 1.1-1.4 2.2-2.1 3.4" class="st13"/><path d="M796.9 672.4c0 4.3.1 8.6.1 12.9-2.3-.6-4.7-1.3-7.1-1.9 1.7-.4 3.4-.8 5.1-1.1 0-.6 0-1.2.1-1.8-1.6-.5-3.3-1-4.9-1.5 2.2-2.3 4.5-4.4 6.7-6.6" class="st25"/><path d="M564.9 885.8c-1.7-2.7-3.4-5.4-5-8 1.6-1.4 3.2-2.9 4.8-4.3.7 2.7 1.3 5.4 2 8.1v2.7z" class="st13"/><path d="m575.7 683.4 5.1-1.2v-1.8c-1.6-.5-3.3-1-4.9-1.5 2.2-2.2 4.5-4.4 6.7-6.5 0 4.3.1 8.6.1 12.9-2.3-.6-4.7-1.3-7-1.9" class="st25"/><path d="M1112.5 952.2c-2.3-.5-4.7-1-7-1.5l.8.2.8-.2c5.6-3.5 5.7-7 .1-10.6-.6 0-1.3-.1-1.9-.1 2.5-1.9 4.9-3.8 7.4-5.6-.1 5.8-.2 11.8-.2 17.8" class="st9"/><path d="M1105.2 885.8c-1.7-2.7-3.4-5.4-5.1-8 1.6-1.4 3.2-2.9 4.8-4.3.7 2.7 1.3 5.4 2 8.1l.4.8c-.7 1.2-1.4 2.3-2.1 3.4" class="st13"/><path d="M1091.3 745.7c2.2-2.2 4.5-4.3 6.7-6.5 0 4.3.1 8.6.1 12.9-2.4-.6-4.7-1.2-7.1-1.9 1.7-.4 3.4-.8 5.1-1.1 0-.6 0-1.2.1-1.8-1.6-.6-3.2-1.1-4.9-1.6m24.6 71.4c1.7-.4 3.4-.8 5.1-1.1 0-.6 0-1.2.1-1.8-1.6-.5-3.3-1-4.9-1.5 2.2-2.2 4.4-4.5 6.6-6.7.1 4.4.1 8.7.2 13.1-2.4-.8-4.8-1.4-7.1-2" class="st25"/><path d="M1385.3 952.1c-2.4-.5-4.7-1-7.1-1.5l.8.2.8-.2c5.6-3.5 5.7-7 .1-10.6-.6 0-1.3-.1-1.9-.1 2.5-1.9 4.9-3.7 7.4-5.6-.1 5.9-.1 11.9-.1 17.8" class="st9"/><path d="M1455.9 1051.8c-2.4-.6-4.7-1.2-7.1-1.9 1.7-.4 3.4-.8 5.1-1.1 0-.6 0-1.2.1-1.8-1.6-.5-3.3-1-4.9-1.6 2.2-2.2 4.4-4.4 6.6-6.7.1 4.4.2 8.7.2 13.1m-389.8-379.4c0 4.3.1 8.6.1 12.9-2.3-.6-4.7-1.3-7.1-1.9l5.1-1.2v-1.8c-1.6-.5-3.3-1-4.9-1.5 2.4-2.2 4.6-4.3 6.8-6.5M836 752.1c-2.4-.6-4.7-1.2-7.1-1.9 1.7-.4 3.4-.8 5.1-1.1 0-.6 0-1.2.1-1.8-1.6-.5-3.3-1-4.9-1.6 2.2-2.2 4.5-4.3 6.7-6.5 0 4.3.1 8.6.1 12.9m-41 187.5c.1 4.3.2 8.6.3 13-2.4-.6-4.7-1.3-7.1-1.9 1.7-.4 3.4-.8 5.1-1.1 0-.6 0-1.2.1-1.8-1.6-.5-3.3-1-4.9-1.6 2.1-2.2 4.3-4.4 6.5-6.6" class="st25"/><path d="M1386.8 873c2.5-1.9 4.9-3.7 7.4-5.6 0 6-.1 11.9-.1 17.9-2.4-.5-4.7-1-7.1-1.5l.8.2.8-.2c5.6-3.5 5.7-7 .1-10.6-.6-.1-1.2-.1-1.9-.2" class="st9"/><path d="m830.7 950.7 5.1-1.2v-1.8c-1.6-.5-3.3-1-4.9-1.5 2.2-2.2 4.5-4.4 6.7-6.5 0 4.3.1 8.6.1 12.9-2.3-.6-4.6-1.3-7-1.9m577.4 0c1.7-.4 3.4-.8 5.1-1.1 0-.6 0-1.2.1-1.8-1.6-.5-3.3-1-4.9-1.5 2.2-2.2 4.5-4.4 6.7-6.5 0 4.3.1 8.6.1 12.9-2.4-.7-4.7-1.4-7.1-2" class="st25"/><path d="M1133.5 819c-1.7-2.7-3.4-5.4-5-8.1 1.6-1.4 3.2-2.9 4.8-4.3.7 2.7 1.3 5.4 2 8.1v2.7c-.6.6-1.2 1.1-1.8 1.6" class="st13"/><path d="m600.7 681.5-7.2 3.9c-.1-.7-.1-1.5-.2-2.2.3-.5.3-1 0-1.6 1.6.2 3.2.3 4.8.5v-8.3c-1.6.2-3.2.3-4.8.5.3-.5.3-1 0-1.6.1-.7.1-1.5.2-2.2l7.2 3.9z" class="st26"/><path d="M828.6 872.8c.1 4.3.2 8.6.3 13-2.4-.6-4.7-1.3-7.1-1.9l5.1-1.2c0-.6.1-1.2.1-1.8-1.7-.5-3.3-1.1-5-1.6 2.3-2.1 4.5-4.3 6.6-6.5" class="st25"/><path d="M1581.6 806.2c2.5-1.9 4.9-3.7 7.4-5.6 0 6-.1 11.9-.1 17.9-2.4-.5-4.7-1-7.1-1.5l.8.2.8-.2c5.6-3.5 5.7-7 .1-10.6-.6-.1-1.2-.1-1.9-.2" class="st9"/><path d="M343.3 806c.1 4.3.2 8.6.3 13-2.4-.6-4.8-1.2-7.2-1.9 1.7-.4 3.5-.8 5.2-1.1 0-.6.1-1.2.1-1.8-1.6-.5-3.3-1.1-4.9-1.6 2.2-2.3 4.3-4.4 6.5-6.6" class="st25"/><path d="M593.5 670.5c-.1.7-.1 1.5-.2 2.2v10.5c.1.7.1 1.5.2 2.2-1.3 0-2.5 0-3.8-.1 0-4.9 0-9.8.1-14.8 1.2.1 2.5 0 3.7 0" class="st17"/><path d="M336.8 812.5c1.6.5 3.3 1.1 4.9 1.6 0 .6-.1 1.2-.1 1.8-1.7.4-3.5.8-5.2 1.1-1.9.2-3.9.4-5.8.6-.1-.7-.2-1.5-.4-2.2 2.3-.9 4.4-1.9 6.6-2.9m548.9 228.8c2.1 2.3 4.1 4.6 7.9 8.7-4-.3-6.3-.5-8.7-.7.2-2.7.5-5.5.7-8.2zm269.2 0c2.1 2.3 4.1 4.6 7.9 8.7-4-.3-6.3-.5-8.7-.6.2-2.7.5-5.5.7-8.2z" class="st13"/><path d="M1039.8 818.8c-.6-5.9-1.2-11.7-1.7-17.6 1.1-.5 2.1-.9 3.2-1.4 0 6.4 0 12.8.1 19.2l-.8.1zm102.6-12.8c-.1 4.4-.1 8.8-.2 13.1-1.2-.5-2.3-1-3.5-1.5-.5-3.8-1.1-7.7-1.6-11.5h-.1c.7-1.9 1.5-3.7 2.5-6.4 1.2 2.4 2 4.3 2.9 6.3M1369 683.9c-.6-4-1.1-7.9-1.7-11.9.8-1.8 1.6-3.5 2.1-4.8 1.2 1.2 2.4 2.4 3.5 3.6-.1.5-.2 1.1-.3 1.6v11c.1.5.2 1.1.2 1.6-1.2-.3-2.5-.7-3.8-1.1M845.1 952.4c-1.3-.4-2.6-.7-4-1.1-.5-3.8-1.1-7.7-1.6-11.5h-.1l2.4-6c1.2 1.7 2.2 3.1 3.2 4.4-.1.5-.2 1.1-.3 1.6v11c.3.5.4 1.1.4 1.6m279.9 0c-1.3-.4-2.6-.8-4-1.1-.6-4-1.1-7.9-1.7-11.9 0-.4-.1-.8-.2-1.2.9-1.3 1.8-2.6 2.5-3.7 1.1 1.2 2.3 2.5 3.4 3.7-.1.5-.2 1.1-.3 1.6v11c.2.5.2 1.1.3 1.6M589.8 670.6c0 4.9-.1 9.8-.1 14.8-1.2-.5-2.4-.9-3.6-1.4-.5-3.8-1.1-7.7-1.6-11.5h-.1c.7-1.8 1.4-3.7 2.3-5.9 1.2 1.4 2.1 2.7 3.1 4m768.8 281.9c-.6-5.9-1.2-11.7-1.7-17.6 1.1-.5 2.1-.9 3.2-1.4 0 6.4 0 12.8.1 19.2l-.8.1zm63.9-.1c-1.3-.4-2.6-.8-4-1.1-.5-3.8-1.1-7.7-1.6-11.5h-.1l2.4-6c1.2 1.7 2.2 3 3.2 4.4-.1.5-.2 1.1-.3 1.6v11c.3.5.4 1.1.4 1.6M850 1032.8c.6 5.8 1.3 11.6 1.9 17.3l-3.6.3c-.6-4-1.1-7.9-1.7-11.9 0-.4-.1-.8-.2-1.2zm-7-293.6v11.2c-1.2.1-2.4.2-3.6.4-.5-3.8-1.1-7.7-1.6-11.5h-.1c.8-2 1.6-4.1 2.6-6.5 1.1 2.4 1.9 4.4 2.7 6.4m-272.7 66.9 2.4-6c1.2 1.7 2.2 3.1 3.2 4.4-.1.5-.2 1.1-.3 1.6v11c.1.5.2 1.1.2 1.6-1.3-.4-2.6-.7-4-1.1-.4-3.8-.9-7.7-1.5-11.5m797-66.9v11.2c-1.2.1-2.4.2-3.6.4-.5-3.8-1.1-7.7-1.6-11.5h-.1c.8-2 1.6-4.1 2.6-6.5 1.1 2.4 1.9 4.4 2.7 6.4m-262.1 0v11.2c-1.2.1-2.4.2-3.6.4-.5-3.8-1.1-7.7-1.6-11.5h-.1c.8-2 1.6-4.1 2.6-6.5 1 2.4 1.9 4.4 2.7 6.4" class="st26"/><path d="M822.1 879.4c1.7.5 3.3 1.1 5 1.6 0 .6-.1 1.2-.1 1.8l-5.1 1.2c-1.3-.1-2.6-.3-6.6-.7 3.8-2.3 5.3-3.1 6.8-3.9" class="st13"/><path d="M1170.4 748.2c-2.2-1.2-4.3-2.3-6.5-3.4 2.2-1.1 4.3-2.3 6.5-3.4z" class="st22"/><path d="M788.4 946.2c1.6.5 3.3 1 4.9 1.6 0 .6 0 1.2-.1 1.8-1.7.4-3.4.8-5.1 1.1-.9-.6-1.9-1.2-2.8-1.8 1.1-.9 2.1-1.8 3.1-2.7" class="st13"/><path d="M1581.6 806.2c.6 0 1.3.1 1.9.1 0 3.5-.1 7.1-.1 10.6l-.8.2-.8-.2c-1.5-2-3.1-4-4.2-5.4 1.2-1.4 2.6-3.3 4-5.3" class="st22"/><path d="m1457.5 1039.2 6.9 3.6v3.1c-2.2 2-4.3 4-6.5 6-.2-4.2-.3-8.4-.4-12.7" class="st19"/><path d="m1379.8 950.6-.8.2-.8-.2c-1.5-2-3.1-4-4.2-5.4 1.1-1.5 2.5-3.4 3.9-5.4.6 0 1.3.1 1.9.1.1 3.6 0 7.2 0 10.7" class="st22"/><path d="M1353.5 745.7c1.6.5 3.3 1 4.9 1.6 0 .6 0 1.2-.1 1.8-1.7.4-3.4.8-5.1 1.1-.9-.6-1.9-1.2-2.8-1.8 1-.9 2-1.8 3.1-2.7m-262.2 0c1.6.5 3.3 1 4.9 1.6 0 .6 0 1.2-.1 1.8-1.7.4-3.4.8-5.1 1.1-.9-.6-1.9-1.2-2.8-1.8 1.1-.9 2.1-1.8 3.1-2.7m-529.6 66.8c1.6.5 3.3 1 4.9 1.6 0 .6 0 1.2-.1 1.8-1.7.4-3.4.8-5.1 1.1-.9-.6-1.9-1.2-2.8-1.8 1.1-.8 2.1-1.8 3.1-2.7m267.5-66.8c1.6.5 3.3 1 4.9 1.6 0 .6 0 1.2-.1 1.8-1.7.4-3.4.8-5.1 1.1-.9-.6-1.9-1.2-2.8-1.8 1-.9 2.1-1.8 3.1-2.7m-21.3-66.8c1.6.5 3.3 1 4.9 1.6 0 .6 0 1.2-.1 1.8l-5.1 1.2c-.7.1-1.4.2-2 .2-.5-1.5-1-3-1.6-4.5 1.4-.2 2.6-.2 3.9-.3" class="st13"/><path d="m279.9 883.8-.8.2-.8-.2c-1.5-2-3.1-4-4.2-5.4 1.1-1.5 2.5-3.4 3.9-5.4.6 0 1.3.1 1.9.1z" class="st22"/><path d="M1449.1 1045.3c1.6.5 3.3 1 4.9 1.6 0 .6 0 1.2-.1 1.8-1.7.4-3.4.8-5.1 1.1-.9-.6-1.9-1.2-2.8-1.8 1.1-.8 2.1-1.7 3.1-2.7" class="st13"/><path d="M1041.3 819c0-6.4 0-12.8-.1-19.2.7 3 1.5 5.9 2.2 8.9v5.7c-.7 1.5-1.4 3.1-2.1 4.6" class="st18"/><path d="M1394.1 885.3c0-6 .1-11.9.1-17.9 0 6 0 11.9-.1 17.9m-281.6 66.9c0-6 .1-12 .1-17.9.6 1.2 1.1 2.4 1.7 3.6-.1 4.9-.2 9.8-.3 14.8-.6 0-1-.2-1.5-.5m272.8-.1c0-6 .1-11.9.1-17.9-.1 6-.1 12-.1 17.9" class="st12"/><path d="M1360.1 952.6c0-6.4 0-12.8-.1-19.2.7 3 1.5 5.9 2.2 8.9v5.7c-.7 1.6-1.4 3.1-2.1 4.6" class="st18"/><path d="M285.4 885.3c0-6 .1-11.9.1-17.9-.1 6-.1 11.9-.1 17.9" class="st12"/><path d="M1126.8 804.3v19c-.7-1.4-1.4-2.7-2.1-4.1 0-4.2 0-8.5-.1-12.7.7-.7 1.4-1.5 2.2-2.2" class="st17"/><path d="M1589 818.5c0-6 .1-11.9.1-17.9-.1 6-.1 11.9-.1 17.9" class="st12"/><path d="M1386.8 873c.6 0 1.3.1 1.9.1 0 3.5-.1 7.1-.1 10.6l-.8.2-.8-.2c-3.9-3.3-3.4-6.9-.2-10.7" class="st22"/><path d="M1319.8 670.6v19l-2.1-8.4v-6.6c.7-1.3 1.4-2.6 2.1-4" class="st17"/><path d="m1107.1 950.6-.8.2-.8-.2-.3-10.8c.6 0 1.3.1 1.9.1z" class="st22"/><path d="M340.3 558.2v-17c.5-.1 1.1-.1 1.6.1v16.8l-.8.1z" class="st15"/><path d="M1423.9 938.1c.6-.2 1.1-.3 1.7-.2v14.7h-.9l-.8-.2z" class="st26"/><path d="M1154.8 1041.1c2-.8 4.1-1.6 6.1-2.5.1 1.3.1 2.5.2 3.8-2.1-.4-4.1-.7-6.2-1.1z" class="st13"/><path d="M1464.4 1046v-3.1c1.2-.6 2.4-1.3 3.6-1.9v6.9c-1.2-.6-2.4-1.3-3.6-1.9" class="st22"/><path d="M1423.9 938.1v14.4l-.7.2-.7-.2c0-.6-.1-1.1-.2-1.6v-11c.1-.5.2-1.1.3-1.6.4-.4.9-.4 1.3-.2" class="st19"/><path d="M1425.6 952.6v-14.7c.7 1.5 1.5 3 2.2 4.5v5.7c-.7 1.5-1.4 3-2.2 4.5" class="st18"/><path d="M554.2 737.4v14.8h-.8l-.7-.2v-14.4c.5-.3 1-.3 1.5-.2" class="st26"/><path d="M552.7 737.6V752zm292.4 214.8c0-.6-.1-1.1-.2-1.6v-11c.1-.5.2-1.1.3-1.6.4-.2.9-.3 1.3-.1v14.4l-.7.1z" class="st19"/><path d="M846.5 952.5v-14.4c.5-.2 1.1-.3 1.7-.2v14.7h-.9z" class="st26"/><path d="M614.2 880v-3.1c1.2-.6 2.4-1.3 3.6-1.9v6.9c-1.2-.6-2.4-1.3-3.6-1.9" class="st22"/><path d="m545.3 806.4 2.1-2.1v14.6l-2.1-3.9z" class="st19"/><path d="M547.4 818.9v-14.6c.5-.2.9-.2 1.4-.1V819l-.7.1z" class="st26"/><path d="M848.2 952.6v-14.7c.7 1.5 1.5 3 2.2 4.5v5.7c-.7 1.5-1.5 3-2.2 4.5" class="st18"/><path d="M1319.6 873.1c1.6 4 5.1 8.3-1.5 10.5q.6-5.25 1.5-10.5" class="st24"/><path d="M1376 670.6v14.8h-.9l-.8-.2v-14.4c.6-.2 1.1-.3 1.7-.2" class="st26"/><path d="M575.7 806.1c.1-.5.2-1.1.3-1.6.4-.2.9-.3 1.3-.1v14.4l-.7.1-.7-.2c0-.6-.1-1.1-.2-1.6zM1114 952.5c.1-4.9.2-9.8.3-14.8.6 0 1.1.1 1.7.2v14.5c-.7.1-1.4.1-2 .1" class="st19"/><path d="M577.3 818.8v-14.4c.5-.2 1.1-.3 1.7-.2v14.7h-.9zM327.6 685.2v-14.4c.5-.2 1.1-.3 1.7-.2v14.7h-.9z" class="st26"/><path d="M329.2 685.3v-14.7c.7 1.5 1.5 3 2.2 4.5v5.7c-.7 1.5-1.4 3-2.2 4.5" class="st18"/><path d="M372.1 818.9v-14.6c.5-.2.9-.2 1.4-.1V819l-.7.1zM1116 952.5V938c.5-.2 1-.2 1.6-.1 0 4.9-.1 9.8-.1 14.7l-.7.1z" class="st26"/><path d="M1117.4 952.6c0-4.9.1-9.8.1-14.7.5-.1 1.1 0 1.6.2.1.4.2.8.2 1.2.1 3.8.1 7.5.2 11.3-.7.7-1.4 1.4-2.1 2" class="st18"/><path d="M832.3 804.2V819l-.8.1-.8-.2v-14.5c.5-.2 1-.3 1.6-.2" class="st26"/><path d="M1043.5 814.4v-5.7c.8-.9 1.7-1.8 2.5-2.8.5.3.9.6 1.4.9-1.3 2.6-2.6 5.1-3.9 7.6m81.3 125.4c.1-.5.2-1.1.3-1.6.5-.3.9-.3 1.4-.1v14.5l-.7.1-.7-.2c0-.6-.1-1.1-.2-1.6-.1-3.8-.1-7.5-.1-11.1" class="st19"/><path d="M1126.4 952.5V938c.5-.2 1.1-.2 1.6-.1v14.8l-.8.1zm-63.8-133.7v-14.4c.5-.2 1.1-.3 1.7-.2v14.7h-.9z" class="st26"/><path d="M1064.3 819v-14.7c.7 1.5 1.5 3 2.2 4.5v5.7c-.7 1.4-1.5 2.9-2.2 4.5" class="st18"/><path d="M1312.3 941.8c.7-1.3 1.4-2.6 2.1-3.8v14.5c-.7-1.3-1.4-2.6-2.1-3.8z" class="st19"/><path d="M1314.4 952.5V938c.5-.2 1-.2 1.5-.1v14.7l-.7.1z" class="st26"/><path d="M1315.8 952.6v-14.7z" class="st18"/><path d="M1374.3 670.8v14.4l-.7.2-.7-.2c0-.6-.1-1.1-.2-1.6v-11c.1-.5.2-1.1.3-1.6.4-.4.9-.4 1.3-.2" class="st19"/><path d="M1634.6 804.2V819l-.8.1-.8-.2v-14.5c.5-.2 1.1-.3 1.6-.2" class="st26"/><path d="M1230.2 1038.1c1.5-1 2.9-1.9 4.4-2.9.3.7.7 1.4 1 2-1.4 1.1-2.8 2.2-4.2 3.4-.4-.9-.8-1.7-1.2-2.5" class="st17"/><path d="M689.1 1051.7v-14.6z" class="st19"/><path d="M689.1 1051.7v-14.6c.5-.2.9-.2 1.4-.1v14.8l-.7.1z" class="st26"/><path d="M579 819v-14.7c.7 1.5 1.5 3 2.2 4.5v5.7c-.8 1.4-1.5 2.9-2.2 4.5" class="st18"/><path d="M843.2 1051.7v-14.5z" class="st19"/><path d="M843.2 1051.7v-14.5c.5-.2 1-.2 1.6-.1 0 4.9-.1 9.8-.1 14.7l-.7.1z" class="st26"/><path d="M844.7 1051.8c0-4.9.1-9.8.1-14.7.5-.1 1.1 0 1.6.2.1.4.2.8.2 1.2.1 3.8.1 7.5.2 11.3-.7.7-1.4 1.3-2.1 2" class="st18"/><path d="M885.6 1041.1c2-.8 4.1-1.6 6.1-2.5.1 1.3.1 2.5.2 3.8-2.1-.4-4.1-.7-6.2-1.1z" class="st13"/><path d="M1098.1 752.1c0-4.3-.1-8.6-.1-12.9.6 0 1.2.1 1.8.1h.1l.3 11.1c-.7.6-1.4 1.1-2.1 1.7" class="st21"/><path d="M1301.9 1045.3c.6-2.1 1.3-4.3 1.9-6.4.4.1.8.3 1.2.4l-1.5 6.6c-.5-.3-1.1-.5-1.6-.6" class="st19"/><path d="M836 752.1c0-4.3-.1-8.6-.1-12.9.6 0 1.2.1 1.8.1h.1l.3 11.1c-.7.6-1.4 1.1-2.1 1.7" class="st21"/><path d="M1747.7 97.1c-2.5 1.7-3.3 2.6-4.3 2.8-.4.1-1-1.4-1.5-2.1.9-.8 1.6-1.8 2.6-2.2.7-.2 1.5.7 3.2 1.5" class="st24"/><path d="M1303.7 879.4c.7-2.3 1.4-4.5 2.2-6.8.4.2.8.4 1.2.5-.7 2.3-1.4 4.6-2.1 6.8-.5-.1-.9-.3-1.3-.5m58.6 68.6v-5.7l2.4-2.7c.3.2.7.4 1 .6-1.1 2.6-2.3 5.2-3.4 7.8" class="st19"/><path d="M1472.5 1034.4c-.3 2.4-.6 4.7-.9 7.1-.3 0-.7-.1-1-.1v-7.1c.6 0 1.2.1 1.9.1" class="st17"/><path d="M1427.8 948v-5.7l2.4-2.7c.3.2.7.4 1 .6-1.1 2.6-2.2 5.2-3.4 7.8" class="st19"/><path d="M1124.5 806.5c0 4.2 0 8.5.1 12.7-.6.1-1.1 0-1.6-.3-.1-4.4-.1-8.7-.2-13.1.5.3 1.1.5 1.7.7M582.7 685.3c0-4.3-.1-8.6-.1-12.9.6 0 1.2.1 1.8.1h.1l.3 11.1c-.7.5-1.4 1.1-2.1 1.7" class="st21"/><path d="M850.4 948v-5.7l2.4-2.7c.3.2.7.4 1 .6-1.1 2.6-2.3 5.2-3.4 7.8M581.2 814.4v-5.7l2.4-2.7c.3.2.7.4 1 .6-1.1 2.6-2.3 5.2-3.4 7.8" class="st19"/><path d="M326.3 670.7c-.6 1-1.1 2-1.7 3-.2-1.7-.5-3.4-.7-5.1.8-.5 1.7-1.1 2.5-1.6-.1 1.2-.1 2.4-.1 3.7" class="st13"/><path d="M1066.5 814.4v-5.7l2.4-2.7c.3.2.7.4 1 .6-1.1 2.6-2.3 5.2-3.4 7.8" class="st19"/><path d="M1360.3 752.1c0-4.3-.1-8.6-.1-12.9.6 0 1.2.1 1.8.1h.1l.3 11.1c-.7.6-1.4 1.1-2.1 1.7" class="st21"/><path d="M1046.8 1039.7c-.8 2.1-1.5 4.3-2.3 6.4-.4-.2-.8-.4-1.2-.5.7-2.4 1.4-4.8 2-7.1.6.4 1 .8 1.5 1.2m9.1 1.7c.8-.9 1.6-1.7 2.4-2.6.3.2.7.4 1 .6-1.1 2.7-2.3 5.4-3.4 8.1z" class="st19"/><path d="M837.8 952.6c0-4.3-.1-8.6-.1-12.9.6 0 1.2.1 1.8.1h.1l.3 11.1c-.7.6-1.4 1.1-2.1 1.7M568.5 818.9c0-4.3-.1-8.6-.1-12.9.6 0 1.2.1 1.8.1h.1l.3 11.1c-.7.6-1.4 1.2-2.1 1.7m889 220.3c.1 4.2.3 8.5.4 12.7-.6-.1-1.3-.1-1.9-.2-.1-4.4-.1-8.7-.2-13.1.5.3 1.1.4 1.7.6m-42.3-86.6c0-4.3-.1-8.6-.1-12.9.6 0 1.2.1 1.8.1h.1l.3 11.1c-.7.6-1.4 1.1-2.1 1.7" class="st21"/><path d="M331.4 680.7V675l2.4-2.7c.3.2.7.4 1 .6-1.1 2.6-2.2 5.2-3.4 7.8m508.5 270.2-.3-11.1c.5 3.8 1.1 7.7 1.6 11.5-.4-.3-.9-.4-1.3-.4" class="st19"/><path d="M861.1 948.8c-.4-2.6-.9-5.2-1.3-7.8.2 0 .5-.1.7 0s.4.5.6.8zm216.1-133.6c-.4-2.6-.9-5.2-1.3-7.8.2 0 .5-.1.7 0s.4.5.6.8z" class="st26"/><path d="M1119.5 950.7c-.1-3.8-.1-7.5-.2-11.3.6 4 1.1 7.9 1.7 11.9q-.75-.45-1.5-.6" class="st19"/><path d="M1311 948.9c-.4-2.6-.9-5.3-1.3-7.9.2 0 .5-.2.7-.1s.4.5.6.7z" class="st26"/><path d="m1417.3 950.9-.3-11.1c.5 3.8 1.1 7.7 1.6 11.5-.4-.3-.9-.4-1.3-.4" class="st19"/><path d="M1438.5 948.8c-.4-2.6-.9-5.2-1.3-7.8.2 0 .5-.1.7 0s.4.5.6.8z" class="st26"/><path d="M1135.3 817.5v-2.7c-.5-2.9-1-5.8-1.5-8.8l.5-.6.7.3c.7.1 1.4.3 2.1.4h.1c-.1 3.5-.2 7.1-.2 10.6-.7.1-1.2.3-1.7.8" class="st21"/><path d="M1136.9 816.7c.1-3.5.2-7.1.2-10.6.5 3.8 1.1 7.7 1.6 11.5zm-36.7-66.3-.3-11.1c.5 3.8 1.1 7.7 1.6 11.5-.4-.3-.8-.4-1.3-.4m-262.1 0-.3-11.1c.5 3.8 1.1 7.7 1.6 11.5-.4-.3-.8-.4-1.3-.4" class="st19"/><path d="M264.2 748.3c-.4-2.6-.9-5.2-1.3-7.8.2 0 .5-.1.7 0s.4.5.6.8z" class="st26"/><path d="M1425.6 741.7c-.6-2.3-1.2-4.6-1.8-6.8.7-.1 1.5-.2 2.2-.4v6.8c.1 0-.4.4-.4.4m-251.5 0c-.6-2.3-1.2-4.6-1.8-6.8.7-.1 1.5-.2 2.2-.4v6.8z" class="st17"/><path d="M1314.5 882.1c-.4-2.6-.9-5.3-1.3-7.9.2 0 .5-.2.7-.1s.4.5.6.7zm5.1-9-1.5 10.5c0-.5-.2-.9-.4-1.3v-7.7c.6-.5 1.2-1 1.9-1.5m-3.3-191.5c-.4-2.6-.9-5.3-1.3-7.9.2 0 .5-.2.7-.1s.4.5.6.7z" class="st26"/><path d="M603.8 942.2c-.6-2.3-1.2-4.5-1.8-6.8.7-.1 1.5-.3 2.2-.4v6.8zm449.9 0c-.6-2.3-1.2-4.6-1.8-6.8.7-.1 1.5-.2 2.2-.4v6.8z" class="st17"/><path d="m584.8 683.6-.3-11.1c.5 3.8 1.1 7.7 1.6 11.5-.4-.3-.8-.4-1.3-.4" class="st19"/><path d="M342.1 681.5c-.4-2.6-.9-5.2-1.3-7.8.2 0 .5-.1.7 0s.4.5.6.8z" class="st26"/><path d="M846.7 1049.8c-.1-3.8-.1-7.5-.2-11.3.6 4 1.1 7.9 1.7 11.9q-.6-.45-1.5-.6" class="st19"/><path d="M1054.1 1048c-.4-2.6-.9-5.3-1.3-7.9.2 0 .5-.2.7-.1s.4.5.6.7zm12.4 0c-.4-2.6-.9-5.3-1.3-7.9.2 0 .5-.2.7-.1s.4.5.6.7z" class="st26"/><path d="M1071.6 1048.1c.3.6.2 1.2-.1 1.8-.6-.6-1.2-1.2-1.9-1.8v-7.3c.6-.6 1.2-1.2 1.9-1.8.3.6.3 1.2.1 1.8z" class="st22"/><path d="M621.5 875.4c-.6-2.3-1.2-4.5-1.8-6.8.7-.1 1.5-.3 2.2-.4v6.8z" class="st17"/><path d="M1130.3 1048c-.4-2.6-.9-5.2-1.3-7.8.2 0 .5-.1.7 0s.4.5.6.8zm182.4 0c-.4-2.6-.9-5.2-1.3-7.8.2 0 .5-.1.7 0s.4.5.6.8z" class="st26"/><path d="m570.6 817.2-.3-11.1c.5 3.8 1.1 7.7 1.6 11.5-.4-.3-.8-.4-1.3-.4m791.8-66.8-.3-11.1c.5 3.8 1.1 7.7 1.6 11.5-.4-.3-.9-.4-1.3-.4" class="st19"/><path d="M591.9 815.2c-.4-2.6-.9-5.2-1.3-7.8.2 0 .5-.1.7 0s.4.5.6.8z" class="st26"/><path d="M1031.9 679.3c.9 2 1.4 3.2 1.9 4.3-.8-.4-1.7-.8-2.4-1.4-.1-.1.2-1.1.5-2.9" class="st23"/><path d="M545.3 806.4v8.6c-.5 0-1.1 0-1.6-.1 0-3 0-5.9-.1-8.9.6.2 1.2.3 1.7.4" class="st21"/><path d="M543.7 806.1c0 3 0 5.9.1 8.9-.1-3-.1-6-.1-8.9" class="st22"/><path d="M318.7 683.4c1.9 0 3.7 0 5.6.1-1.9 0-3.7-.1-5.6-.1" class="st13"/><path d="M1736.7 97.1c-.3-2.1-.7-4.2-1-6.3.4 2 .7 4.2 1 6.3" class="st3"/><path d="M1564 873.1c-1-.8-2-1.5-3.1-2.3.9-.5 1.7-1.1 2.6-1.7.1 1.4.3 2.7.5 4" class="st22"/><path d="M1468 1047.9v-6.9zm-46.1-299.7v-6.9zm-251.5 0v-6.9z" class="st17"/><path d="M1077.2 815.2v-7.1z" class="st21"/><path d="M320.4 670.2v4.8z" class="st13"/><path d="M1314.5 882.1v-7.2c.5.1 1 .3 1.6.4v6.5c-.6 0-1.1.1-1.6.3" class="st21"/><path d="M617.8 881.9V875z" class="st17"/><path d="M327.7 939.9c-1-.8-2-1.5-3.1-2.3.9-.5 1.7-1.1 2.6-1.7.1 1.4.3 2.7.5 4" class="st22"/><path d="M342.1 681.5v-7.1z" class="st21"/><path d="M600.1 948.7v-6.9z" class="st17"/><path d="M861.1 948.8v-7.1zM264.2 748.3v-7.1z" class="st21"/><path d="M1049.9 948.7v-6.9z" class="st17"/><path d="M1316.1 881.7v-6.5c.5-.1 1.1-.3 1.5-.6v7.7q-.75-.45-1.5-.6" class="st19"/><path d="M1311 948.9v-7.2c.4.1.9.2 1.3.2v6.9c-.5-.1-.9 0-1.3.1m127.5-.1v-7.1zM600.7 681.5v-7.1zm715.6.1v-7.2c.5.1.9.2 1.4.3v6.6c-.5 0-1 .1-1.4.3M1054.1 1048v-7.2l1.8.6v6zm12.4 0v-7.2l1.8.6v6.1c-.6.2-1.2.3-1.8.5" class="st21"/><path d="M1068.3 1047.5v-6.1c.5-.1.9-.3 1.3-.6v7.3c-.3-.3-.8-.6-1.3-.6" class="st19"/><path d="M1130.3 1048v-7.1zM591.9 815.2v-7.1zm720.8 232.8v-7.1z" class="st21"/><path d="M1229.2 88.4c-.4-.8-.9-1.6-1.3-2.4.4.8.9 1.6 1.3 2.4M568.8 883.7h1.4z" class="st13"/><path d="M1174.5 748.3c-.3.3-.7.5-1 .8.2-.4.4-.8.7-1.2-.1-.1.3.4.3.4M621.9 881.9c-.3.3-.7.5-1 .8.2-.4.4-.8.7-1.2-.1 0 .3.4.3.4m432.1 66.8c-.3.3-.7.5-1 .8.2-.4.4-.8.7-1.2zm-449.9 0c-.3.3-.7.5-1 .8.2-.4.4-.8.7-1.2zM1426 748.3c-.3.3-.7.5-1 .8.2-.4.4-.8.7-1.2-.1-.1.3.4.3.4" class="st17"/><path d="M214.2 122.4c-8.6 3.9-15.5 13-26.3 11.1 9.8-7.4 19.6-14.9 29.4-22.3-.3-1.8-.5-3.5-.8-5.3-16 17.2-26-1.3-38.2-6.7-.6.9-1.2 1.7-1.8 2.6 2.5 2.9 4.8 6.2 7.7 8.7 3.3 2.9 7 5 10.6 7.6-8.9 12.4-12.4 13.3-22.6 6.4-5.6-3.9-11.3-7.7-16.8-11.9-2.1-1.7-3.7-4.4-4.9-7.6 12.5 2.3 21 16.4 35 15.6-20.8-7.8-11.7-29.2-15.5-45-6.7 7.8-2.1 18.3-4.5 26.9-11.1-1.3-15.3-6.4-15.3-18.6 0-8.3-.1-16.5.1-24.8.1-3.2.9-6.3 2.4-9.4 6.1 13.5-1 29.5 6.9 43.6-4.3-25.4 15-26.7 26.4-38.5-11.3-3.9-16.1 8-23.8 8.8-4.2-15.2-2.4-21.4 7.7-27 7.7-4.7 15.4-9.3 23.1-14 .4 1.1.9 2.2 1.3 3.3-7.9 10.7-22.2 12-28 27 16.1-18 26.4 4.6 41 8.6-4-12.9-14.5-13.2-19.4-21 12.2-12 12.2-12 24.6-3 5.1 3.7 10.3 7 15.3 10.8 1.8 1.4 3 3.9 3.9 6.7-12.1-2.7-20.3-15.9-34.1-15.4 19.6 8.5 11.3 28.6 13.7 44.4 7.6 0 5.8-6.6 6-11.3.2-5.2.1-10.4.1-16.5 10.6 4.2 16.6 9.6 15 23.4-1.2 9.7-.2 19.8-1.7 29.7-5.4-13.6 1-29.2-5.8-43.3-3 9-4.3 18-8.6 23.7-4.6 6.1-12.1 9.1-17.9 14.7 9.3 4.6 14.2-7.1 22.6-8.1 1 9.9 3.6 20.3-6.8 26.1m-8.3-42.2c0-9.8-7.5-20-14.6-19.9-6.8.1-14.3 10.1-14.3 19 0 9.9 7.2 19.9 14.5 19.9 6.8 0 14.4-9.9 14.4-19" class="st23"/><path d="M988.5 404.8v-20.6c6.9 2.2 13.1 3.8 19 6.4.8.3.7 8.2-.1 8.5-5.8 2.3-11.8 3.7-18.9 5.7m0-25.7v-18.2c6.2 1.6 11.9 2.7 17.4 4.7.7.3.9 7.1.3 7.3-5.4 2.5-11 4-17.7 6.2" class="st20"/><path d="M906.7 291.1c2.9 3.9 5.8 7.9 9.1 12.3-4.6 5.5-9.8 7.7-13.6 1.5-1.6-2.7.9-9.2 1.6-13.9.9 0 1.9 0 2.9.1m651.1 17.1v-16.9c5 0 9.8-1 14.1.4 2.5.8 5.8 5.6 5.8 8.5 0 2.7-3.7 6.9-6.3 7.7-4.2 1.3-8.7.3-13.6.3m-.2-24.1v-17.5c6.1 1.1 11.9 1.8 17.4 3.6.8.3 1.1 8 .6 8.2-5.5 2.3-11.2 3.7-18 5.7" class="st24"/><path d="M1065.3 295.6c-5.4 5.7-8.5 11.7-12 12-5.9.6-6.8-6.3-6.8-12.5s1.2-13.1 7.1-12.1c3.5.6 6.4 6.7 11.7 12.6m-481.1 86.9c0-12.6 4.8-20.2 12.8-20.3 8.2-.2 13 7.1 13 19.9.1 13.2-5 21.3-13.1 21-8-.3-12.7-8-12.7-20.6m384.5-95.6c.2-12.4 5.3-19.9 13.5-19.6 7.9.3 12.9 8.3 12.7 20.6-.2 12.4-5.3 20.3-13.1 20.3-8.2 0-13.2-8.3-13.1-21.3" class="st20"/><path d="M1316.2 294.8c2.3-8.6 4.5-16.5 7.4-27.1 2.9 10.6 5 18.5 7.4 27.1zM158.8 389.5c2.2-8.3 4.3-16.3 7.1-26.7 2.9 10.1 5.2 17.9 7.7 26.7z" class="st17"/><path d="M1372.8 390.2c-5.1 5.8-8.1 12-11.5 12.3-6 .6-8.5-6.7-7.3-12.8.9-4.6 4.7-8.3 7.3-12.4 3.2 3.5 6.3 7.1 11.5 12.9" class="st24"/><path d="M1611.1 396.1c-2.8 2.4-5.4 5.1-8.4 6.8-.8.4-2.9-2.5-4.4-3.9 3.4-2.5 6.7-5 10.1-7.5.9 1.5 1.8 3 2.7 4.6" class="st13"/><path d="M293.8 386.6c-1 9.9-2.5 16.4-9.3 16.3-6.1-.1-8.3-5.3-8.4-12.3-.1-7.3 2-13.8 8.5-12.8 3.7.6 6.9 6.4 9.2 8.8m201.6 3.6c-.8 6.8-2.5 13.2-9.3 12.7-6.1-.4-8-5.9-8-12.8s2-12.3 8.1-12.6c6.8-.4 8.4 6 9.2 12.7" class="st20"/><path d="M900.3 396c-2.8 2.4-5.4 5.2-8.4 6.9-.8.4-2.9-2.5-4.3-3.9 3.3-2.5 6.7-5 10-7.5z" class="st13"/><path d="M1405.6 385.5h-15.1c4.1-4 6.2-7.7 8.5-7.8 2.6-.1 5.3 3 8 4.8-.5 1-1 2-1.4 3m-1004-94.8h-12.1c-.4-.7-.9-1.4-1.3-2.2 2.3-2 4.7-5.7 7-5.7 2.6.1 5.1 3.5 7.6 5.5-.4.9-.8 1.6-1.2 2.4m344.3-2.8c2.6-1.8 5.2-5.1 7.8-5 2.2 0 4.5 3.7 5.8 7.6H747c-.5-.9-.8-1.7-1.1-2.6m484.6 2.8h-14.9c3.6-3.9 5.6-7.7 7.7-7.8 2.7-.1 5.5 2.8 8.2 4.4-.3 1.2-.7 2.3-1 3.4M461 292.6c3.4-3.4 6.5-9.1 10.2-9.7 6.4-1 8.8 5.7 8.7 12.8-.1 6.7-2.5 12.3-8.6 12.3-6.7 0-8.6-6-10.3-15.4m276.2 100c1.8-9.3 3.8-15.3 10.5-15.1 6.1.2 8.4 5.8 8.4 12.5 0 7.1-2.5 13.8-8.9 12.6-3.6-.7-6.6-6.5-10-10m393.1-2.3c-5.8 5.9-8.9 11.6-12.6 12.2-6.4 1-8.7-5.6-8.7-12.8.1-6.8 2.6-13.2 8.4-12 4 .9 7.2 6.8 12.9 12.6m-794.1-2.7c-1.9 9.2-3.7 15.3-10.4 15.3-6.1-.1-8.4-5.5-8.5-12.3-.1-7.2 2.2-13.8 8.7-12.8 3.7.6 6.8 6.4 10.2 9.8m873-4.8c2.4-1.8 4.7-5.1 7.1-5.1s4.8 3.2 6.4 7.4h-12.3c-.4-.8-.8-1.5-1.2-2.3M522.4 293c-1.8 9.3-3.9 15.2-10.6 15-6.2-.2-8.3-5.9-8.3-12.6 0-7.1 2.4-13.8 8.9-12.5 3.8.8 6.8 6.6 10 10.1m164.8-.1c-1.8 9.3-3.8 15.2-10.5 15.1-6.2-.1-8.3-5.9-8.3-12.5 0-7.1 2.3-13.8 8.8-12.6 3.6.7 6.6 6.5 10 10m810.7-4.9c2.4-1.9 4.7-5.1 7.1-5.2 2.4 0 4.8 3.2 6.5 7.4h-12.3c-.5-.7-.9-1.5-1.3-2.2M797.2 389.9c-.4 7.5-2.5 13.3-9.2 13-6.1-.3-8.2-6.1-8.1-12.8 0-6.7 2.1-12.4 8.2-12.6 6.7-.3 8.8 5.6 9.1 12.4m805.1-102c2.6-1.8 5.1-5 7.7-5.1 2.2 0 4.5 3.6 5.8 7.6h-12.5c-.3-.7-.7-1.6-1-2.5" class="st24"/><path d="M456.3 75.4c5.5 2 13.2-6.2 16 5.4 1.9 7.9-3.8 7.6-8.3 8-7.4.7-10.7-2.4-7.7-13.4m37.3-4.8c3.8 5.5 7.2 8.3 7.6 11.6 1 8-4.6 6.4-8.4 6.5-4.1.2-9.3.6-7.9-7.1.7-3.3 4.4-5.7 8.7-11M342 880c.1.6.5 1.3.3 1.6-.2.5-.9.6-1.3.9-.1-.6-.5-1.3-.3-1.7s.8-.5 1.3-.8" class="st0"/><path d="M404.8 78.8h-16.4v-2.9H405c0 1-.1 1.9-.2 2.9" class="st23"/><path d="M1324.8 682.8c-.7-.4-1.4-.9-2.1-1.3.1-2.2.1-4.4.2-6.6l.1-.4c.6 2.8 1.2 5.5 1.8 8.3" class="st0"/><path d="M1536.7 687.3h-16.3v-20.6h16.3zm-802.9 46.1h16.6v20.2h-16.6zm-262.2 20.5v-20.3h16.6v20.3zm-245.1-20.1v19.8h-16.9v-19.8zm769.4 86.9v-20.4h16.6v20.4zm0-67v-20h16.7v20zm-589.1 299.9h-16.6v-20.2h16.6zm65-186.5h16.5v20.1h-16.5zm-262.4 20.4v-20.3H226v20.3zm1190.4 145.6h16.7v20.2h-16.7zm-202.2 20.1v-19.8h16.9v19.8zm60.4-165.7v-20.2h16.6v20.2zm-262.2 0v-20.2h16.6v20.2zM734 866.9h16.2v20.5H734zM226 821h-16.2v-20.5H226zm507.8-.5v-20h16.7v20zm262.1 232.9v-20.1h16.5v20.1zm-185.1-20.2v20.2h-16.6v-20.2zm-584.6-346h-16.6V667h16.6zm366 346h16.4v20.4h-16.4zM471.6 686.9v-20.1h16.5v20.1zm279-20.1v20.1h-16.5v-20.1zm261.9 20.3H996V667h16.5zm245.8-20.7h16.3V687h-16.3zM1258 934h16.8v20.2H1258zm-245.4 20.5H996v-20.2h16.6zm-262.2-.1h-16.5v-20.1h16.5zm-262.2 0h-16.5v-20.1h16.5zm-278.7-.2v-20.1H226v20.1zM1520 887.3v-19.8h16.9v19.8zm17-86.9v20.3h-16.6v-20.3zm-279 20.2v-20.1h16.5v20.1zm262.1-66.7v-20.3h16.6v20.3zm-245.4.1h-16.6v-20.2h16.6zm-786.3 46.5v20.1h-16.5v-20.1z" style="fill:#fefefe"/><path d="M1572.8 883.3c-.7-.4-1.4-.9-2.1-1.3.1-2.2.1-4.4.2-6.6l.1-.4c.6 2.7 1.2 5.5 1.8 8.3M336.5 950.1c-.7-.4-1.4-.9-2.1-1.3.1-2.2.1-4.4.2-6.6l.1-.4c.6 2.8 1.2 5.5 1.8 8.3" class="st0"/><path d="M566.7 881.6c-.7-2.7-1.3-5.4-2-8.1l.5-.7c.5 2.9 1 5.9 1.5 8.8m540.2 0c-.7-2.7-1.3-5.4-2-8.1l.5-.6zM1654.2 748c-.7-2.7-1.3-5.4-2-8.1l.5-.6q.75 4.2 1.5 8.7m-520.5 58c.5 2.9 1 5.8 1.5 8.8-.7-2.7-1.3-5.4-2-8.1.1-.1.5-.7.5-.7" class="st22"/><path d="M1570.9 875.3c-.1 2.2-.1 4.4-.2 6.6.1-2.2.1-4.4.2-6.6M334.6 942.2c-.1 2.2-.1 4.4-.2 6.6.1-2.3.1-4.4.2-6.6m988.3-267.3c-.1 2.2-.1 4.4-.2 6.6.1-2.3.2-4.4.2-6.6" class="st13"/><path d="M1071.6 1048.1v-7.3c1.7.1 4.5-.5 4.8.3.7 2 .7 4.8 0 6.8-.3.7-3.2.1-4.8.2M279.9 883.8c0-3.5.1-7.1.1-10.6 5.6 3.6 5.5 7.1-.1 10.6m827.2 66.8c0-3.5.1-7.1.1-10.6 5.5 3.6 5.4 7.1-.1 10.6m272.7 0c0-3.5.1-7.1.1-10.6 5.6 3.6 5.5 7.1-.1 10.6m8.9-66.8c0-3.5.1-7.1.1-10.6 5.5 3.6 5.5 7.1-.1 10.6M593.4 674.3c1.6-.2 3.2-.3 4.8-.5v8.3c-1.6-.2-3.2-.3-4.8-.5z" class="st17"/><path d="M593.4 674.3v7.4c.3.5.3 1 0 1.6v-10.5c.3.4.3 1 0 1.5" class="st22"/><path d="M1583.5 817c0-3.5.1-7.1.1-10.6 5.6 3.5 5.5 7.1-.1 10.6" class="st17"/><path d="M1372.7 672.5v11zM844.9 939.8v11zm279.9 0v11zm297.5 0v11zM575.7 806.1v11z" class="st18"/><path d="M205.9 80.2c0 9.1-7.6 19-14.5 19-7.3 0-14.5-10-14.5-19.9 0-8.9 7.6-19 14.3-19 7.3-.1 14.7 10.1 14.7 19.9" style="fill:#4fd1fe"/></svg>