<?xml version="1.0" encoding="utf-8"?>
<!-- Generator: Adobe Illustrator 25.0.0, SVG Export Plug-In . SVG Version: 6.00 Build 0)  -->
<svg version="1.1" id="Ebene_1" xmlns="http://www.w3.org/2000/svg" xmlns:xlink="http://www.w3.org/1999/xlink" x="0px" y="0px"
	 viewBox="0 0 1920 1080" style="enable-background:new 0 0 1920 1080;" xml:space="preserve">
<style type="text/css">
	.st0{fill:#0A081E;}
	.st1{fill:#141229;}
	.st2{fill:#121023;}
	.st3{fill:#313260;}
	.st4{fill:#EFEFF0;}
	.st5{fill:#E3E3E5;}
	.st6{fill:#DEDEE1;}
	.st7{fill:#E8E8EA;}
	.st8{fill:#D7D7DB;}
	.st9{fill:#DAB248;}
	.st10{fill:#4F4D5E;}
	.st11{fill:#565463;}
	.st12{fill:#474557;}
	.st13{fill:#312F41;}
	.st14{fill:#353245;}
	.st15{fill:#17162A;}
	.st16{fill:#171527;}
	.st17{fill:#74748A;}
	.st18{fill:#56566E;}
	.st19{fill:#1B1A2E;}
	.st20{fill:#242235;}
	.st21{fill:#5B5968;}
	.st22{fill:#595766;}
	.st23{fill:#1F1D2D;}
	.st24{fill:#282638;}
	.st25{fill:#201E31;}
	.st26{fill:#2C2A3C;}
	.st27{fill:#393648;}
</style>
<g>
	<g>
		<path class="st0" d="M0,1080C0,720,0,360,0,0c640,0,1280,0,1920,0c0,360,0,720,0,1080C1280,1080,640,1080,0,1080z M946.6,86.3
			c8.8-5.7,17.6-11.4,27.8-18.1c-6.4-0.5-11-0.8-16-1.2c0.8-3,1.4-5.5,2.1-8.2c-7,5.5-13.4,10.5-18.9,14.9c2.3,0.1,6.5,0.4,13.8,0.9
			C951.9,79.3,949.2,82.8,946.6,86.3c-0.8,1.4-1.5,2.7-2.3,4c-1.3-0.8-2.6-1.6-3.9-2.4C942.5,87.4,944.6,86.8,946.6,86.3z
			 M993.4,728.5c-199.9,0-399.8,0-599.7,0c-18.9,0-23,2.9-23,16.4c0,25.5-0.1,51,0,76.5c0,11.6,4.7,15,20.8,15
			c400.3,0,800.5,0,1200.8,0c16.6,0,20.9-3.3,21-15.9c0.1-24.9,0-49.7,0-74.6c0-15-3.4-17.5-24.2-17.5
			C1390.6,728.5,1192,728.5,993.4,728.5z M991.9,465.4c-199.5,0-398.9,0-598.4,0c-18.9,0-22.8,2.8-22.8,16.5c0,24.5,0,49.1,0,73.6
			c0,12.6,4.4,15.9,21,15.9c400.3,0,800.5,0,1200.8,0c16.1,0,20.8-3.4,20.8-15c0.1-23.9,0-47.8,0-71.6c0-17.4-2.5-19.3-25.7-19.3
			C1389.1,465.4,1190.5,465.4,991.9,465.4z M992,596.9c-198.6,0-397.2,0-595.9,0c-20.5,0-25.4,3.5-25.4,18.2c0,23.6-0.1,47.1,0,70.7
			c0,13.2,5.3,17.1,22.8,17.1c399,0,798,0,1197.1,0c17.5,0,22.7-4,22.8-17.2c0.1-22.9,0-45.8,0-68.7c0-17.1-4-20.1-26.8-20.1
			C1388.3,596.9,1190.2,596.9,992,596.9z M974.8,322c255.1,0,510.1,0,765.2-0.1c19.5,0,39-0.8,58.3-2c34.4-2.1,60.6-19.6,65.5-45.3
			c2.9-15.4,4-31.3,2.3-46.8c-3.1-29.1-23.8-45.5-62.9-51.8c-14.1-2.2-28.9-3.2-43.4-3.2c-532.7,0.5-1065.4,1.2-1598,1.9
			c-35.7,0-66.9,17-73,42.7c-4.1,17.5-4.5,35.9-2.2,53.6c2.8,21.2,18.7,37.7,47,44.8c14.8,3.7,31.1,5.9,46.7,5.9
			C445.1,322.1,709.9,322,974.8,322z M992.2,1054.5c44.9,0,89.7,0.1,134.6,0c17.6,0,25.1-5.5,25.2-18.5c0.1-18.3,0.1-36.6,0-55
			c-0.1-13.1-7.4-18.7-24.9-18.8c-90.2-0.1-180.4-0.1-270.5,0c-16.9,0-24.4,5.6-24.5,18c-0.2,18-0.1,36,0,54
			c0,15.4,6.8,20.2,28.2,20.3C904.2,1054.5,948.2,1054.5,992.2,1054.5z M1039.7,60c-1.3,0.7-2.5,1.3-3.8,2c0,8.2,0,16.3,0,24.5
			c1,0,2,0.1,3,0.1c1.1-3.6,2.1-7.1,3.6-12c3.5,4.6,6,7.7,9.3,12c3.9-4.4,6.6-7.6,10-11.4c1.6,4.8,2.7,8.3,3.9,11.7
			c1.1-0.2,2.2-0.3,3.3-0.5c0-8.2,0-16.3,0-24.5c-1.3-0.5-2.6-1-3.9-1.5c-4.4,5.4-8.8,10.8-13.2,16.2
			C1047.8,71,1043.8,65.5,1039.7,60z M771.6,78.3c0,0.8,0,1.6-0.1,2.5c-3.7,0-9.7,0.9-10.5-0.2c-2.2-3.1-4.3-7.6-2.8-10.6
			c4.8-10.1,13.9,1.3,21.4-1.5c-3.8-7.6-11.4-9.1-20.1-6.8c-10.1,2.7-11.8,9.4-9.7,16.2c2.1,6.7,8.6,9.6,17.9,8.8
			c10.7-1,12.9-6.2,12.6-13.9c-5.3,0.2-9.7,0.4-17.4,0.7C767.9,76.2,769.7,77.3,771.6,78.3z M1144.8,88.8
			c10.1-2.9,20.1-3.9,25.9-8.1c3.4-2.5,2.9-12.2-0.8-14.6c-5.8-3.8-15.7-4.2-25.1-6.4C1144.8,70.2,1144.8,77.9,1144.8,88.8z
			 M817.4,86.8c10.2-0.2,16-5.3,15.4-13.8c-0.6-7.6-5.8-12.3-16.5-12.1c-10.9,0.2-15.3,5.7-15.8,12.9
			C799.9,81.7,807.3,87,817.4,86.8z M1108.8,60.9c-11,0-18.4,5.9-17.6,13.5c0.7,7.2,5.1,12.4,16.3,12.4c10.3,0,16.5-5,16.1-13.3
			C1123.2,65.9,1118.2,61.4,1108.8,60.9z M855.4,88.7C865,86,874.6,85,880.5,81c3.4-2.3,3.6-11.6,0.2-13.9
			c-5.8-4.1-15.4-5.2-25.3-8.1C855.4,69.9,855.4,77.8,855.4,88.7z M1217.9,85.8c0.1-0.9,0.2-1.8,0.4-2.7c-4.9-0.5-9.8-1.1-14.8-1.6
			c-0.5-0.9-1-1.7-1.5-2.6c4.9-1.5,9.8-3,18.4-5.6c-8.1-1.2-12.7-1.9-17.3-2.5c-0.3-0.8-0.6-1.6-0.9-2.4c5.4-1.4,10.7-2.8,16.1-4.1
			c-0.1-0.8-0.1-1.6-0.2-2.4c-7.3-0.3-14.5-0.5-22.5-0.8c0,9.1,0,17.1,0,24.8C1203.6,85.8,1210.8,85.8,1217.9,85.8z"/>
		<path class="st1" d="M993.4,728.5c198.6,0,397.2,0,595.7,0c20.7,0,24.2,2.5,24.2,17.5c0,24.9,0,49.7,0,74.6
			c0,12.6-4.4,15.9-21,15.9c-400.3,0-800.5,0-1200.8,0c-16.1,0-20.8-3.4-20.8-15c-0.1-25.5-0.1-51,0-76.5c0-13.5,4.1-16.4,23-16.4
			C593.6,728.5,793.5,728.5,993.4,728.5z M1332.8,793.5c0.9,0.6,1.8,1.2,2.7,1.7c2.8-2.7,7.6-5.2,7.9-8c0.4-3.4-3-7.1-4.7-10.7
			c-3.3,1-9.7,2.3-9.5,2.8c0.9,3.5,3.3,6.7,4.7,10.2C1334.3,790.7,1333.2,792.1,1332.8,793.5z M717.8,771.9c-2.5,0.8-5,1.6-7.5,2.3
			c2.2,5,4.4,10,6.6,14.9c3.6-1.1,7.2-2.2,10.8-3.3C724.5,781.2,721.2,776.6,717.8,771.9z M1308.2,785.8c1.3,1.5,2.7,2.9,4,4.4
			c4.3-1.5,8.5-3,12.8-4.4c-1.9-3-3.8-5.9-5.7-8.9C1315.5,779.8,1311.8,782.8,1308.2,785.8z"/>
		<path class="st1" d="M991.9,465.4c198.6,0,397.2,0,595.7,0c23.1,0,25.7,1.9,25.7,19.3c0,23.9,0.1,47.8,0,71.6
			c0,11.6-4.7,15-20.8,15c-400.3,0-800.5,0-1200.8,0c-16.6,0-21-3.3-21-15.9c-0.1-24.5,0-49.1,0-73.6c0-13.7,3.9-16.5,22.8-16.5
			C593,465.4,792.4,465.4,991.9,465.4z M1107.6,521.7c-4.7-3.8-7.7-6.2-10.8-8.7c-3,2.5-8.6,5.1-8.4,7.5c0.3,3.6,4.6,7.1,7.2,10.6
			C1099,528.5,1102.5,525.8,1107.6,521.7z M1030.1,515c-9.8-0.4-18.5-1.3-26.9-0.6c-1.5,0.1-2.1,6.7-3.1,10.2
			c1.2,0.1,2.4,0.3,3.5,0.4c1.3-2.6,2.6-5.3,4.4-9c2.1,4,3.5,6.6,5.6,10.5c1.9-4.2,3-6.8,5-11.2c2.1,4.7,3.3,7.3,5.1,11.3
			C1025.9,522.8,1027.2,520.5,1030.1,515z M1105.7,522.7c1.1,1.4,2.3,2.7,3.4,4.1c4.4-1.3,8.7-2.6,13.1-3.9
			c-2.2-3.1-4.3-6.3-6.5-9.4C1112.4,516.6,1109,519.6,1105.7,522.7z"/>
		<path class="st1" d="M992,596.9c198.2,0,396.4,0,594.5,0c22.8,0,26.8,3,26.8,20.1c0,22.9,0.1,45.8,0,68.7
			c0,13.2-5.2,17.2-22.8,17.2c-399,0-798,0-1197.1,0c-17.5,0-22.8-4-22.8-17.1c-0.1-23.6-0.1-47.1,0-70.7c0-14.7,4.9-18.2,25.4-18.2
			C594.7,596.9,793.4,596.9,992,596.9z M676.3,651.9c4.6,4.7,7.6,7.8,10.6,10.8c3-3.3,7.8-6.4,8.5-10c0.5-2.4-4.6-5.4-7.2-8.2
			C684.8,646.7,681.4,648.8,676.3,651.9z M575,652.7c-0.2-1.5-0.5-3-0.7-4.6c-9.1-1-18.3-2.2-27.5-2.5c-0.6,0-1.6,6.9-2.4,10.7
			c1.2,0.1,2.3,0.2,3.5,0.3c1.1-2.6,2.1-5.1,4-9.6c2.2,4.7,3.5,7.4,5.3,11.1c2.2-4,3.6-6.6,5.9-10.8c1.7,4.6,2.7,7.2,3.9,10.5
			C570.5,655.5,572.7,654.1,575,652.7z M943.4,647.5c2.3,4,3.8,6.7,6,10.6c2-4.1,3.3-6.7,5.7-11.4c-9.8-0.5-18.5-1.4-27.2-1
			c-1.1,0.1-1.6,6.9-2.4,10.6c1.1,0.1,2.3,0.2,3.4,0.4c1.3-2.6,2.6-5.3,4.8-9.9c1.8,4.8,2.8,7.4,4.7,12.5
			C940.6,654.3,941.6,651.7,943.4,647.5z M977,642.6c2.5,5,5,10,7.5,15.1c3.3-1,8.8-1.5,9.5-3.1C998,645.7,987.8,644.4,977,642.6z
			 M1116.4,655c6.1,0,11.3,0,18.1,0c-2.8-4.8-5.5-9.5-9.7-16.7C1121.1,645.8,1118.8,650.3,1116.4,655z M706.4,646.7
			c2.7,5,4.2,7.6,5.6,10.2c1.3-0.4,2.5-0.8,3.8-1.1c-2.1-3.4-3.6-7.1-6.5-10.1c-0.9-0.9-7.5-0.5-7.9,0.3c-1.6,3.3-1.9,6.9-2.6,10.4
			c1.2,0.1,2.3,0.2,3.5,0.3C703.3,654,704.4,651.5,706.4,646.7z M1142.2,639.3c-0.7,1-1.3,1.9-2,2.9c4.3,2.2,8.5,4.5,12.8,6.7
			c0.9-0.9,1.7-1.9,2.6-2.8C1151.2,643.8,1146.7,641.6,1142.2,639.3z"/>
		<path class="st2" d="M974.8,322c-264.8,0-529.7,0.1-794.5-0.3c-15.6,0-31.9-2.2-46.7-5.9c-28.3-7.1-44.3-23.6-47-44.8
			c-2.3-17.7-1.9-36.1,2.2-53.6c6.1-25.6,37.2-42.6,73-42.7c532.7-0.7,1065.4-1.4,1598-1.9c14.5,0,29.3,0.9,43.4,3.2
			c39.1,6.2,59.8,22.7,62.9,51.8c1.7,15.5,0.6,31.4-2.3,46.8c-4.9,25.6-31.1,43.1-65.5,45.3c-19.4,1.2-38.9,2-58.3,2
			C1484.9,322.1,1229.8,322,974.8,322z M117.7,206.3c-2.9,2.1-7,3.9-8.6,6.5c-11.4,17.5-9.4,36.2-5.8,54.4
			c1.5,7.5,9.2,14.3,14.1,21.5c0,0,0,0,0,0c2.8,3.4,4.6,7.7,8.6,9.9c18.3,10.2,40.2,11.6,61.9,11.6c525.4,0.1,1050.9,0.1,1576.3,0
			c13.1,0,26.4-1.9,39.3-3.7c16.6-2.3,28.6-9.7,36.9-20.5c14.1-18.5,11.9-38.6,8.2-58.2c-1.4-7.5-9.4-14.2-14.4-21.3
			c-0.7,0-1.4,0-2.1,0.1c-0.5-8.9-8.9-12.1-19-14c-4.6-0.6-9.1-1.9-13.7-1.9c-549.9-0.1-1099.7-0.1-1649.6,0
			c-4.5,0-9.1,1.2-13.6,1.9c-12,0.4-16.8,5.4-16.2,13.8C119.2,206.2,118.5,206.3,117.7,206.3z"/>
		<path class="st3" d="M992.2,1054.5c-44,0-88,0-131.9,0c-21.4,0-28.2-4.9-28.2-20.3c-0.1-18-0.1-36,0-54c0.1-12.4,7.7-18,24.5-18
			c90.2-0.1,180.4-0.1,270.5,0c17.5,0,24.8,5.6,24.9,18.8c0.1,18.3,0.1,36.6,0,55c-0.1,13-7.6,18.5-25.2,18.5
			C1081.9,1054.5,1037,1054.5,992.2,1054.5z M997.2,1003.5c0.9,1,1.9,2,2.8,3c0.5-0.4,1-0.7,1.6-1.1c-1.3-0.7-2.7-1.4-4-2.2
			c-1.5-1.8-3-3.6-4.5-5.3c-0.8,0.3-1.5,0.6-2.3,0.9c0,6.3,0,12.5,0,18.8c0.7,0,1.4,0.1,2.1,0.1
			C994.3,1013,995.7,1008.3,997.2,1003.5z M943.2,994.7c-4.3,7.6-6.2,13.1-10.3,17.5c-2.3,2.5-8.1,4-12.5,4.3
			c-1.6,0.1-4.8-4.3-5.6-6.9c-1.2-4-0.9-8.3-1.2-12.5c-1.4,0-2.8,0.1-4.3,0.1c0,3.7-0.5,7.5,0.2,11.1c0.7,3.5,1.8,9.5,4.1,9.9
			c6.5,1.1,16.9,1.9,20-0.8c7.6-6.5,13.5-4.3,22.1-1.5C952.1,1009.9,948.5,1003.8,943.2,994.7z M1073.8,998.9
			c-4.9,2.7-8.2,6-11.8,6.2c-3.6,0.2-7.5-2.7-11-4.1c0,4.9,0,10.3,0,14.8c2.9-1.9,6.9-6.3,9.3-5.9c4.9,0.9,9,4.4,13.5,6.9
			C1073.8,1011.4,1073.8,1005.2,1073.8,998.9z M1031.7,1018.6c-3.5-5.1-7.1-10.5-10.7-15.7
			C1016.6,1013.9,1020.1,1018.2,1031.7,1018.6z M1027.2,995.9c-0.3,0.9-0.6,1.8-0.9,2.7c5.2,1,10.4,2,15.6,3c0.3-1,0.6-1.9,0.9-2.9
			C1037.6,997.8,1032.4,996.8,1027.2,995.9z M1005.7,1012.3c0.3-0.5,0.6-1,0.8-1.5c0-0.1-0.8-0.6-0.9-0.5c-0.6,0.3-1.1,0.6-1.6,1
			C1004.5,1011.6,1005.1,1011.9,1005.7,1012.3z M1041.4,1014.5c-0.3,0.2-0.7,0.4-0.7,0.7c0,0.2,0.3,0.5,0.5,0.7
			c0.3-0.2,0.7-0.4,0.7-0.7C1042,1015,1041.6,1014.7,1041.4,1014.5z"/>
		<path class="st4" d="M1039.7,60c4,5.5,8,11,12,16.4c4.4-5.4,8.8-10.8,13.2-16.2c1.3,0.5,2.6,1,3.9,1.5c0,8.2,0,16.3,0,24.5
			c-1.1,0.2-2.2,0.3-3.3,0.5c-1.1-3.4-2.3-6.9-3.9-11.7c-3.4,3.9-6.1,7-10,11.4c-3.3-4.3-5.7-7.4-9.3-12c-1.5,4.9-2.5,8.5-3.6,12
			c-1,0-2-0.1-3-0.1c0-8.2,0-16.3,0-24.5C1037.2,61.3,1038.5,60.7,1039.7,60z"/>
		<path class="st5" d="M771.6,78.3c-1.9-1-3.7-2.1-8.7-4.8c7.7-0.3,12.1-0.5,17.4-0.7c0.2,7.7-1.9,13-12.6,13.9
			c-9.3,0.8-15.8-2.1-17.9-8.8c-2.1-6.9-0.5-13.5,9.7-16.2c8.6-2.3,16.2-0.9,20.1,6.8c-7.6,2.7-16.6-8.6-21.4,1.5
			c-1.4,3,0.6,7.5,2.8,10.6c0.8,1.1,6.9,0.2,10.5,0.2C771.5,79.9,771.6,79.1,771.6,78.3z"/>
		<path class="st6" d="M1144.8,88.8c0-10.9,0-18.6,0-29.2c9.5,2.2,19.4,2.6,25.1,6.4c3.7,2.4,4.2,12.2,0.8,14.6
			C1164.9,84.9,1154.9,85.9,1144.8,88.8z M1152.5,81.9c10.7,0.3,15.2-3.4,13-9.5c-1.1-2.9-6.8-5-13-9.1
			C1152.5,71.9,1152.5,76.7,1152.5,81.9z"/>
		<path class="st7" d="M817.4,86.8c-10.1,0.2-17.5-5.1-16.9-12.9c0.5-7.2,4.9-12.7,15.8-12.9c10.7-0.2,15.9,4.5,16.5,12.1
			C833.5,81.5,827.6,86.6,817.4,86.8z M804.2,73.4c5.3,4,8.6,6.5,11.9,8.9c3.3-2.9,8.7-5.6,9.1-8.6c0.3-2.6-5.3-5.6-8.2-8.4
			C813.4,67.6,809.8,69.9,804.2,73.4z"/>
		<path class="st7" d="M1108.8,60.9c9.4,0.5,14.4,5.1,14.7,12.6c0.4,8.3-5.8,13.4-16.1,13.3c-11.2,0-15.6-5.2-16.3-12.4
			C1090.4,66.7,1097.8,60.9,1108.8,60.9z M1094.8,73.8c5.4,3.8,8.8,6.2,12.2,8.6c3.2-2.9,8.5-5.7,8.8-8.8c0.3-2.5-5.4-5.4-8.5-8.2
			C1103.9,67.7,1100.4,70,1094.8,73.8z"/>
		<path class="st4" d="M855.4,88.7c0-10.9,0-18.8,0-29.8c10,2.9,19.6,4.1,25.3,8.1c3.3,2.4,3.2,11.6-0.2,13.9
			C874.6,85,865,86,855.4,88.7z M862,82c11.1,0.6,15.7-2.9,14.3-9.6c-1.2-5.8-6.7-7.5-14.3-5.7C862,72,862,76.7,862,82z"/>
		<path class="st8" d="M1217.9,85.8c-7.1,0-14.3,0-22.2,0c0-7.7,0-15.7,0-24.8c7.9,0.3,15.2,0.5,22.5,0.8c0.1,0.8,0.1,1.6,0.2,2.4
			c-5.4,1.4-10.7,2.8-16.1,4.1c0.3,0.8,0.6,1.6,0.9,2.4c4.6,0.7,9.2,1.4,17.3,2.5c-8.6,2.6-13.5,4.1-18.4,5.6c0.5,0.9,1,1.7,1.5,2.6
			c4.9,0.5,9.8,1.1,14.8,1.6C1218.2,84,1218,84.9,1217.9,85.8z"/>
		<path class="st9" d="M946.6,86.3c2.7-3.5,5.3-7,8.9-11.7c-7.3-0.5-11.6-0.7-13.8-0.9c5.6-4.4,11.9-9.4,18.9-14.9
			c-0.7,2.7-1.4,5.2-2.1,8.2c5,0.4,9.6,0.7,16,1.2C964.2,74.8,955.4,80.6,946.6,86.3C946.6,86.3,946.6,86.3,946.6,86.3z"/>
		<path class="st9" d="M946.6,86.3c-2.1,0.5-4.1,1.1-6.2,1.6c1.3,0.8,2.6,1.6,3.9,2.4C945.1,89,945.8,87.7,946.6,86.3
			C946.6,86.3,946.6,86.3,946.6,86.3z"/>
		<path class="st10" d="M1332.8,793.5c0.4-1.3,1.6-2.8,1.1-3.9c-1.4-3.5-3.8-6.7-4.7-10.2c-0.1-0.5,6.2-1.9,9.5-2.8
			c1.7,3.6,5.1,7.2,4.7,10.7c-0.3,2.8-5.1,5.3-7.9,8C1334.6,794.6,1333.7,794,1332.8,793.5z"/>
		<path class="st11" d="M717.8,771.9c3.3,4.7,6.6,9.3,10,14c-3.6,1.1-7.2,2.2-10.8,3.3c-2.2-5-4.4-10-6.6-14.9
			C712.9,773.4,715.3,772.7,717.8,771.9z"/>
		<path class="st10" d="M1308.2,785.8c3.7-3,7.4-6,11-9c1.9,3,3.8,5.9,5.7,8.9c-4.3,1.5-8.5,3-12.8,4.4
			C1310.8,788.7,1309.5,787.3,1308.2,785.8z M1317.5,781c0.3-0.2,0.6-0.3,0.9-0.5c-0.3-0.2-0.7-0.6-0.8-0.5
			c-0.4,0.2-0.8,0.5-1.2,0.7C1316.8,780.8,1317.1,780.9,1317.5,781z"/>
		<path class="st10" d="M1107.6,521.7c-5.1,4-8.5,6.7-12,9.4c-2.6-3.5-6.9-7-7.2-10.6c-0.2-2.4,5.4-5,8.4-7.5
			C1099.9,515.5,1102.9,518,1107.6,521.7z M1096.7,527.7c0-0.2,0-0.5,0-0.7c-1.3,0-2.7,0-4,0c0,0.2,0,0.5,0,0.7
			C1094,527.7,1095.3,527.7,1096.7,527.7z"/>
		<path class="st12" d="M1030.1,515c-2.9,5.4-4.2,7.8-6.3,11.6c-1.8-4-3-6.6-5.1-11.3c-2,4.4-3.1,7-5,11.2
			c-2.1-3.9-3.4-6.4-5.6-10.5c-1.8,3.8-3.1,6.4-4.4,9c-1.2-0.1-2.4-0.3-3.5-0.4c1-3.6,1.6-10.1,3.1-10.2
			C1011.6,513.8,1020.3,514.7,1030.1,515z"/>
		<path class="st10" d="M1105.7,522.7c3.4-3.1,6.7-6.2,10.1-9.3c2.2,3.1,4.3,6.3,6.5,9.4c-4.4,1.3-8.7,2.6-13.1,3.9
			C1108,525.5,1106.8,524.1,1105.7,522.7z M1114.8,517.9c0.3-0.2,0.6-0.3,0.9-0.5c-0.3-0.2-0.7-0.6-0.8-0.5
			c-0.4,0.2-0.8,0.5-1.2,0.7C1114.1,517.7,1114.5,517.8,1114.8,517.9z"/>
		<path class="st10" d="M676.3,651.9c5.1-3.1,8.5-5.2,11.9-7.3c2.6,2.8,7.7,5.8,7.2,8.2c-0.8,3.6-5.5,6.7-8.5,10
			C683.9,659.7,680.9,656.6,676.3,651.9z M688.7,659.3c0-0.2,0-0.5,0-0.7c-1.3,0-2.7,0-4,0c0,0.2,0,0.5,0,0.7
			C686,659.3,687.4,659.3,688.7,659.3z"/>
		<path class="st12" d="M575,652.7c-2.2,1.4-4.5,2.8-7.9,5c-1.2-3.4-2.2-5.9-3.9-10.5c-2.3,4.2-3.7,6.8-5.9,10.8
			c-1.8-3.7-3-6.4-5.3-11.1c-1.9,4.5-3,7.1-4,9.6c-1.2-0.1-2.3-0.2-3.5-0.3c0.8-3.7,1.8-10.7,2.4-10.7c9.2,0.3,18.3,1.5,27.5,2.5
			C574.5,649.7,574.7,651.2,575,652.7z"/>
		<path class="st12" d="M943.4,647.5c-1.7,4.2-2.8,6.8-4.9,11.8c-1.9-5.1-2.9-7.7-4.7-12.5c-2.3,4.7-3.6,7.3-4.8,9.9
			c-1.1-0.1-2.3-0.2-3.4-0.4c0.8-3.7,1.3-10.6,2.4-10.6c8.6-0.4,17.4,0.4,27.2,1c-2.4,4.7-3.7,7.3-5.7,11.4
			C947.2,654.2,945.6,651.5,943.4,647.5z"/>
		<path class="st11" d="M977,642.6c10.8,1.8,21.1,3.1,17,12c-0.8,1.6-6.2,2.1-9.5,3.1C982,652.7,979.5,647.7,977,642.6z"/>
		<path class="st10" d="M1116.4,655c2.4-4.7,4.7-9.2,8.4-16.7c4.2,7.2,6.9,11.9,9.7,16.7C1127.8,655,1122.5,655,1116.4,655z"/>
		<path class="st12" d="M706.4,646.7c-2,4.8-3,7.3-4.1,9.9c-1.2-0.1-2.3-0.2-3.5-0.3c0.7-3.5,1-7.1,2.6-10.4c0.4-0.8,7-1.2,7.9-0.3
			c2.9,3,4.4,6.7,6.5,10.1c-1.3,0.4-2.5,0.8-3.8,1.1C710.6,654.3,709.1,651.7,706.4,646.7z"/>
		<path class="st13" d="M1142.2,639.3c4.5,2.2,8.9,4.5,13.4,6.7c-0.9,0.9-1.7,1.9-2.6,2.8c-4.3-2.2-8.5-4.5-12.8-6.7
			C1140.9,641.2,1141.6,640.3,1142.2,639.3z"/>
		<path class="st14" d="M120,206.2c-0.6-8.4,4.3-13.4,16.2-13.8c28,0,56,0,84,0c91.1,0.1,182.1,0.2,273.2,0.3c0,8-0.7,16.1,0.2,24
			c0.6,5.1,3.6,10.1,5.5,15.1c-1.3,3.8-2.5,7.6-4.1,12.4c-2.9-4.5-5-7.7-8.3-12.7c-3.6,5.5-5.7,8.6-7.9,12c-2.2-4.1-4-7.5-5.8-10.9
			c-1.2,0.3-2.5,0.7-3.7,1c2.4,5.9,4.7,11.8,7.1,17.7c1.2-0.1,2.4-0.1,3.6-0.2c2.2-3.2,4.4-6.5,6.2-9.1c3.3,3.1,6.6,6.2,9.9,9.3
			c0,11.7,0,23.3,0,35c-5.8,0.1-11.5,0.3-17.3,0.3c-109,0-218,0-327,0.1c-5.1,0-10.2,1-15.3,1.6c-6.4,0.1-12.7,0.2-19.1,0.2
			c0,0,0,0,0,0c0.1-4.7,0.1-9.4,0.2-14.1c0.8-3,2.2-6.1,2.3-9.1C120.1,245.7,120,225.9,120,206.2z M410.2,235.3
			c-9.8,3.6-7.6,9.8-2.4,13.4c3.1,2.2,13.4,2,16.9-0.2c6.5-4,6.1-9.7-2.9-13.2C417.9,230.3,414.1,230.4,410.2,235.3z M346.7,235.6
			c-2.2,2.4-7,5.5-6.2,6.9c1.8,3.4,6,7.8,9.9,8.3c4,0.5,11.9-2.9,12.6-5.5c1-3.6-2.6-8.1-5.5-11.7
			C356.9,233,350.4,234.9,346.7,235.6L346.7,235.6z M320,249.4L320,249.4c6.1,2.3,13.5,4.7,15.5-2.3c1.8-6.4,0.4-13.3,0.4-19.1
			c-5.5,1.6-10,2.3-13.4,4.2c-3.9,2.1-9,5.1-9.4,8C312.7,243,317.5,246.3,320,249.4z M214.3,250.7c1.6,0,3.2,0.1,4.7,0.1
			c2.7-7.6,5.5-15.3,8.2-22.9c-1.4-0.3-2.8-0.5-4.2-0.8c-1.9,4.3-3.8,8.7-6.5,14.8c-3.6-6.5-6.1-11.2-10.2-18.6
			c-4,7.5-6.5,12.2-9.7,18.3c-2.8-6.1-4.7-10.4-6.7-14.7c-1.5,0.4-2.9,0.7-4.4,1.1c2.9,7.7,5.8,15.4,8.7,23.2
			c1.6-0.1,3.2-0.2,4.8-0.3c2.3-5,4.6-10.1,7.2-15.8C209.2,240.7,211.8,245.7,214.3,250.7z M272.3,236.7c0.1,0.7,0.2,1.3,0.3,2
			c-2.4,0.5-5.3,0.6-7,1.7c-2.7,1.7-4.5,4.1-6.6,6.2c3.3,1.6,6.5,4.1,10.1,4.5c3.2,0.4,9.7-1.4,9.8-2.5c0.4-4.6,0-9.6-2.4-13.8
			c-0.9-1.5-8.1-1.2-12.5-1.5c-0.5,0-1.1,1.4-1.7,2.3C265.9,236,269.1,236.4,272.3,236.7z M248.7,249.9c2.1-0.2,4.1-0.4,6.2-0.7
			c-2.2-5.6-3.1-11.8-7.1-16.6c-2.4-2.9-9.6-3.7-14-5.2c0,6.3,0,14.3,0,22.4c3-3.1,2.8-6.4,4.1-9.4c0.8-1.7,3.9-2.9,6-4.3
			c1.4,1.5,3.5,2.8,3.9,4.4C248.6,243.6,248.5,246.8,248.7,249.9z M402,233.6c-1-0.4-2-0.8-3.1-1.1c-2.6,3.8-5.1,7.6-7.8,11.6
			c-3.1-4.1-5.9-7.8-8.7-11.5c-0.4,0.3-0.9,0.5-1.3,0.8c1.8,8,3.6,16.1,5.5,24.6C398.4,252.9,396.6,241.9,402,233.6z M436.2,233.2
			c-1.8,0.2-3.5,0.4-5.3,0.6c1.9,5.6,2.8,11.5,6.2,16.5c0.9,1.3,13.4,0.6,13.9-0.6c2-5.1,1.5-10.8,1.9-16.3c-1.3,0-2.7,0-4,0
			c-0.3,2.5,0,5.2-1.1,7.5c-1.1,2.3-3.7,4.2-5.7,6.2c-1.6-2-3.8-3.8-4.7-6C436.4,238.6,436.6,235.9,436.2,233.2z M290.9,228.5
			c-9.8,8.3-6.7,19.1,2,21.5C292.3,242.9,291.6,235.7,290.9,228.5z"/>
		<path class="st15" d="M1813.1,192.4c10.1,1.9,18.4,5.1,19,14c0,22.1,0,44.3,0,66.4c0,1.4,0,2.7-0.1,4.1c-1.8,1.3-3.6,2.7-5.3,4
			c-2.7,2-5.3,3.9-8,5.9c-1.9,0-3.8,0.1-5.7,0.1c-77.2-0.1-154.4-0.3-231.6-0.4c-0.9-31.2-1.8-62.4-2.7-93.6
			C1656.8,192.6,1735,192.5,1813.1,192.4z"/>
		<path class="st16" d="M1832,276.8c0-1.4,0-2.7,0.1-4.1c0.9-2,2.5-4.1,2.5-6.1c0-20.1-0.2-40.2-0.3-60.4c5,7.1,13,13.9,14.4,21.3
			c3.7,19.7,5.9,39.7-8.2,58.2c-8.2,10.8-20.3,18.2-36.9,20.5c-13,1.8-26.2,3.7-39.3,3.7c-525.4,0.2-1050.9,0.2-1576.3,0
			c-21.7,0-43.7-1.4-61.9-11.6c-4-2.2-5.8-6.6-8.6-9.9c6.4-0.1,12.7-0.2,19.1-0.2c0,0-0.3,0.1-0.3,0.1c10.4,12,27.8,11.8,43.5,11.8
			c530.9,0.2,1061.9,0.2,1592.8,0c11.3,0,22.9-2.1,33.7-4.6c4.9-1.2,8.3-5.8,12.4-8.9c2.7-2,5.3-3.9,8-5.9
			C1828.4,279.5,1830.2,278.2,1832,276.8z"/>
		<path class="st17" d="M1813.1,192.4c-78.1,0.1-156.3,0.2-234.4,0.4c-62.2,0-124.4,0-186.7,0c-56.9,0-113.8,0-170.7,0
			c-53.3,0-106.7,0-160,0c-57.8,0-115.6,0-173.3,0c-56.9,0-113.8,0-170.7,0c-74.7,0-149.3,0-224,0c-91.1-0.1-182.1-0.2-273.2-0.3
			c-28,0-56,0-84,0c4.5-0.7,9.1-1.9,13.6-1.9c549.9-0.1,1099.7-0.1,1649.6,0C1804,190.5,1808.6,191.7,1813.1,192.4z"/>
		<path class="st16" d="M117.6,274.5c-0.1,4.7-0.1,9.4-0.2,14.1c-4.9-7.1-12.6-14-14.1-21.5c-3.6-18.2-5.6-36.9,5.8-54.4
			c1.7-2.6,5.7-4.3,8.6-6.5C117.7,229.1,117.7,251.8,117.6,274.5z"/>
		<path class="st17" d="M117.6,274.5c0-22.7,0.1-45.5,0.1-68.2c0.8,0,1.5-0.1,2.3-0.1c0,19.7,0.1,39.5-0.1,59.2
			C119.9,268.4,118.4,271.5,117.6,274.5z"/>
		<path class="st17" d="M1834.2,206.3c0.2,20.1,0.4,40.2,0.3,60.4c0,2-1.6,4.1-2.5,6.1c0-22.1,0-44.3,0-66.4
			C1832.8,206.4,1833.5,206.3,1834.2,206.3z"/>
		<path class="st18" d="M943.2,994.7c5.3,9,8.9,15.2,12.5,21.3c-8.6-2.8-14.4-5.1-22.1,1.5c-3.1,2.7-13.5,1.9-20,0.8
			c-2.4-0.4-3.5-6.4-4.1-9.9c-0.7-3.6-0.2-7.4-0.2-11.1c1.4,0,2.8-0.1,4.3-0.1c0.3,4.2,0,8.4,1.2,12.5c0.8,2.6,4,7.1,5.6,6.9
			c4.4-0.4,10.2-1.8,12.5-4.3C937,1007.8,938.9,1002.3,943.2,994.7z"/>
		<path class="st18" d="M1073.8,998.9c0,6.4,0,12.5,0,17.9c-4.6-2.5-8.6-6-13.5-6.9c-2.3-0.4-6.4,4-9.3,5.9c0-4.5,0-9.9,0-14.8
			c3.5,1.4,7.4,4.3,11,4.1C1065.6,1004.8,1068.9,1001.6,1073.8,998.9z"/>
		<path class="st18" d="M997.2,1003.5c-1.4,4.7-2.9,9.4-4.3,14.1c-0.7,0-1.4-0.1-2.1-0.1c0-6.3,0-12.5,0-18.8
			c0.8-0.3,1.5-0.6,2.3-0.9c1.5,1.8,3,3.6,4.5,5.3L997.2,1003.5z"/>
		<path class="st18" d="M1031.7,1018.6c-11.5-0.5-15.1-4.8-10.7-15.7C1024.5,1008.2,1028.2,1013.5,1031.7,1018.6z"/>
		<path class="st18" d="M1027.2,995.9c5.2,0.9,10.4,1.9,15.6,2.8c-0.3,1-0.6,1.9-0.9,2.9c-5.2-1-10.4-2-15.6-3
			C1026.6,997.7,1026.9,996.8,1027.2,995.9z"/>
		<path class="st18" d="M997.5,1003.3c1.3,0.7,2.7,1.4,4,2.2c-0.5,0.4-1,0.7-1.6,1.1c-0.9-1-1.9-2-2.8-3
			C997.2,1003.5,997.5,1003.3,997.5,1003.3z"/>
		<path class="st18" d="M1005.7,1012.3c-0.6-0.3-1.2-0.7-1.8-1c0.5-0.3,1-0.7,1.6-1c0.1-0.1,1,0.4,0.9,0.5
			C1006.3,1011.3,1005.9,1011.8,1005.7,1012.3z"/>
		<path class="st18" d="M1041.4,1014.5c0.2,0.3,0.6,0.5,0.5,0.7c0,0.2-0.5,0.4-0.7,0.7c-0.2-0.3-0.6-0.5-0.5-0.7
			C1040.7,1014.9,1041.2,1014.7,1041.4,1014.5z"/>
		<path class="st2" d="M1152.5,81.9c0-5.2,0-10,0-18.6c6.1,4.1,11.9,6.1,13,9.1C1167.7,78.5,1163.2,82.3,1152.5,81.9z"/>
		<path class="st19" d="M804.2,73.4c5.7-3.6,9.2-5.8,12.8-8.1c3,2.8,8.5,5.8,8.2,8.4c-0.4,3.1-5.9,5.8-9.1,8.6
			C812.8,79.9,809.5,77.4,804.2,73.4z"/>
		<path class="st19" d="M1094.8,73.8c5.6-3.7,9.1-6,12.6-8.4c3,2.7,8.7,5.6,8.5,8.2c-0.3,3.1-5.7,5.9-8.8,8.8
			C1103.6,80,1100.2,77.6,1094.8,73.8z"/>
		<path class="st20" d="M862,82c0-5.3,0-10,0-15.3c7.6-1.8,13.2-0.2,14.3,5.7C877.7,79,873.1,82.6,862,82z"/>
		<path class="st1" d="M1317.5,781c-0.3-0.1-0.7-0.2-1-0.3c0.4-0.3,0.7-0.6,1.2-0.7c0.1,0,0.5,0.3,0.8,0.5
			C1318.1,780.7,1317.8,780.9,1317.5,781z"/>
		<path class="st1" d="M1096.7,527.7c-1.3,0-2.7,0-4,0c0-0.2,0-0.5,0-0.7c1.3,0,2.7,0,4,0C1096.7,527.2,1096.7,527.5,1096.7,527.7z"
			/>
		<path class="st1" d="M1114.8,517.9c-0.3-0.1-0.7-0.2-1-0.3c0.4-0.3,0.7-0.6,1.2-0.7c0.1,0,0.5,0.3,0.8,0.5
			C1115.4,517.6,1115.1,517.7,1114.8,517.9z"/>
		<ellipse class="st1" cx="686.7" cy="658.9" rx="2.8" ry="0.5"/>
		<path class="st13" d="M493.4,192.7c74.7,0,149.3,0,224,0c0,12.3,0,24.7,0,37c-12.2-5.6-14.1-5.4-19.8,3.1c4.4-1.1,8.2-2,9.4-2.3
			c4.7,2.3,7.5,3.7,10.3,5c0.9,16.9,1.8,33.9,2.7,50.8c-74.7,0-149.3,0-224,0c0-11.7,0-23.3,0-35c3-6.3,10.8-12.3,3-19.6
			c-1.9-5-4.9-10-5.5-15.1C492.7,208.8,493.4,200.8,493.4,192.7z M688,249.4c8.1-4.1,7.4-9.8,2.3-14.1c-2.4-2-12.4-2.5-14.1-0.9
			c-3.3,3.1-5.4,8.7-4,12.4C674.5,252.4,681.3,253,688,249.4L688,249.4z M518.3,236.5c0.1,0.6,0.2,1.2,0.3,1.7
			c-3.5,1.1-8.6,1.7-9.9,3.6c-1.6,2.3,0.2,5.8,0.6,8.7c5.8-0.4,11.7-0.8,17.5-1.2c-1.2-5.2-1.3-10.8-4.1-15.5
			c-0.8-1.4-9.3-0.2-14.3-0.2c0.1,0.9,0.2,1.9,0.3,2.8C511.8,236.5,515,236.5,518.3,236.5z M665.5,228.2c-4.5,1.4-8.9,2.1-12.2,3.9
			c-4.1,2.3-9.4,5.2-10.3,8.4c-2.4,8.7,4.5,11.4,22.4,9.4C665.5,242.3,665.5,234.8,665.5,228.2z M541.4,236.2
			c1.6,0.1,3.2,0.2,4.8,0.2c1.7,4.6,3.3,9.2,5,13.8c2.4-6.4,7.4-13.6-3.2-17.2c-4.2-1.5-14.9-0.3-15.3,1c-1.8,5.2-0.7,11-0.7,16.6
			c1.5,0,3,0.1,4.5,0.1C538,245.8,539.7,241,541.4,236.2z M596.5,242.3c8.8,4.3,14.2,8.9,18.2,8.4c4.5-0.6,11.2-6.2,10.8-9.1
			c-0.5-3.5-7.1-8.4-11.9-9C609.9,232.1,604.8,237.3,596.5,242.3z M595.4,229c-2.5,0-5.1,0.1-7.6,0.1c0.6,6.3,0.9,12.6,2.2,18.8
			c0.3,1.4,4.2,2.4,5.4,3.1C595.4,243,595.4,236,595.4,229z M566.2,228.8c-1.4,0.1-2.7,0.1-4.1,0.2c-6.2,8.3-2.7,19.2,4.1,20.5
			C566.2,242.9,566.2,235.9,566.2,228.8z M709,239.2c-0.6-0.2-1.2-0.3-1.7-0.5c-0.7,0.9-1.4,1.9-2.1,2.8c0.9,0.3,1.9,0.5,2.8,0.8
			C708.3,241.2,708.6,240.2,709,239.2z"/>
		<path class="st17" d="M496,286.4c74.7,0,149.3,0,224,0c56.9,0,113.8,0,170.7,0c57.8,0,115.6,0,173.3,0c52.5,0,104.9,0,157.4,0
			c57.8,0,115.5,0,173.3,0c62.2,0,124.4,0,186.7,0c77.2,0.1,154.4,0.3,231.6,0.4c-5.9,0.6-11.8,1.8-17.8,1.8
			c-546.3,0.1-1092.7,0.1-1639,0.1c-6.7,0-13.3-0.1-20-0.2c0,0,0.3-0.1,0.3-0.1c5.1-0.6,10.2-1.6,15.3-1.6c109-0.1,218-0.1,327-0.1
			C484.5,286.7,490.3,286.5,496,286.4z"/>
		<path class="st21" d="M214.3,250.7c-2.5-5-5.1-10-8-15.8c-2.6,5.7-4.9,10.8-7.2,15.8c-1.6,0.1-3.2,0.2-4.8,0.3
			c-2.9-7.7-5.8-15.4-8.7-23.2c1.5-0.4,2.9-0.7,4.4-1.1c1.9,4.3,3.9,8.6,6.7,14.7c3.2-6,5.7-10.7,9.7-18.3
			c4.1,7.4,6.6,12.1,10.2,18.6c2.7-6.1,4.6-10.4,6.5-14.8c1.4,0.3,2.8,0.5,4.2,0.8c-2.7,7.6-5.5,15.3-8.2,22.9
			C217.5,250.8,215.9,250.7,214.3,250.7z"/>
		<path class="st22" d="M499.1,231.9c7.8,7.3,0,13.2-3,19.6c-3.3-3.1-6.6-6.2-9.9-9.3c-1.8,2.6-4,5.8-6.2,9.1
			c-1.2,0.1-2.4,0.1-3.6,0.2c-2.4-5.9-4.7-11.8-7.1-17.7c1.2-0.3,2.5-0.7,3.7-1c1.8,3.4,3.6,6.8,5.8,10.9c2.2-3.4,4.3-6.5,7.9-12
			c3.3,5.1,5.4,8.2,8.3,12.7C496.5,239.5,497.8,235.7,499.1,231.9z"/>
		<path class="st22" d="M272.3,236.7c-3.2-0.3-6.4-0.7-10.1-1.1c0.6-0.9,1.2-2.3,1.7-2.3c4.4,0.3,11.6-0.1,12.5,1.5
			c2.4,4.2,2.8,9.2,2.4,13.8c-0.1,1.1-6.6,2.8-9.8,2.5c-3.6-0.4-6.7-2.9-10.1-4.5c2.2-2.1,4-4.5,6.6-6.2c1.7-1.1,4.6-1.1,7-1.7
			C272.5,238,272.4,237.4,272.3,236.7z"/>
		<path class="st21" d="M320,249.4c-2.5-3.1-7.3-6.4-7-9.3c0.4-2.9,5.5-5.9,9.4-8c3.4-1.8,7.9-2.5,13.4-4.2c0,5.9,1.4,12.7-0.4,19.1
			C333.4,254.1,326.1,251.7,320,249.4c8.6,0,12.1-3.4,10-9.2c-0.6-1.7-4.7-2.7-7.3-4.1c-1.2,3.8-2.5,7.7-3.6,11.5
			C319,248.1,319.7,248.8,320,249.4z"/>
		<path class="st22" d="M248.7,249.9c-0.2-3.1,0-6.3-0.8-9.3c-0.4-1.6-2.6-2.9-3.9-4.4c-2.1,1.4-5.2,2.6-6,4.3
			c-1.3,3-1.1,6.3-4.1,9.4c0-8.1,0-16.1,0-22.4c4.3,1.5,11.5,2.3,14,5.2c4,4.8,4.9,11,7.1,16.6C252.8,249.4,250.7,249.7,248.7,249.9
			z"/>
		<path class="st21" d="M402,233.6c-5.4,8.3-3.6,19.3-15.3,24.3c-1.9-8.5-3.7-16.5-5.5-24.6c0.4-0.3,0.9-0.5,1.3-0.8
			c2.8,3.7,5.5,7.4,8.7,11.5c2.6-3.9,5.2-7.8,7.8-11.6C400,232.8,401,233.2,402,233.6z"/>
		<path class="st21" d="M346.6,235.6c3.8-0.7,10.3-2.7,10.9-2c2.9,3.6,6.5,8.1,5.5,11.7c-0.7,2.5-8.6,5.9-12.6,5.5
			c-3.9-0.4-8.1-4.9-9.9-8.3C339.6,241.1,344.4,238,346.6,235.6c0,2.2-0.7,4.6,0.1,6.7c0.8,2.2,3,4.2,5,6c0.2,0.2,4.5-1.2,4.9-2.2
			c0.9-2.6,2-6.2,0.3-7.9C355.2,236.5,350.2,236.4,346.6,235.6z"/>
		<path class="st22" d="M436.2,233.2c0.4,2.6,0.3,5.4,1.3,7.9c0.9,2.1,3.1,4,4.7,6c2-2.1,4.6-3.9,5.7-6.2c1.1-2.3,0.8-5,1.1-7.5
			c1.3,0,2.7,0,4,0c-0.4,5.5,0.1,11.2-1.9,16.3c-0.5,1.2-13,2-13.9,0.6c-3.4-5-4.4-10.9-6.2-16.5
			C432.6,233.6,434.4,233.4,436.2,233.2z"/>
		<path class="st21" d="M421.8,235.3c9,3.5,9.4,9.2,2.9,13.2c-3.5,2.2-13.8,2.3-16.9,0.2c-5.2-3.6-7.5-9.8,2.4-13.4l0.8,0.6
			c-0.1,1.3-0.9,2.8-0.2,3.8c1.8,3,4.2,5.8,6.4,8.7c1.7-3.3,3.5-6.5,4.9-9.8c0.3-0.8-0.5-1.9-0.8-2.8L421.8,235.3z"/>
		<path class="st22" d="M290.9,228.5c0.7,7.2,1.3,14.4,2,21.5C284.2,247.6,281.2,236.9,290.9,228.5z"/>
		<path class="st21" d="M410.2,235.3c3.9-4.9,7.8-5,11.6,0c0,0-0.7,0.5-0.7,0.5c-3.4,0-6.8,0-10.2,0
			C410.9,235.8,410.2,235.3,410.2,235.3z"/>
		<path class="st23" d="M136.2,288.4c6.7,0.1,13.3,0.2,20,0.2c546.3,0,1092.7,0,1639-0.1c5.9,0,11.8-1.2,17.8-1.8
			c1.9,0,3.8-0.1,5.7-0.1c-4.1,3.1-7.5,7.8-12.4,8.9c-10.8,2.5-22.4,4.6-33.7,4.6c-530.9,0.2-1061.9,0.2-1592.8,0
			C164,300.2,146.6,300.5,136.2,288.4z"/>
		<path class="st19" d="M1581.4,286.4c-62.2,0-124.4,0-186.7,0c-0.9-31.2-1.8-62.4-2.7-93.6c62.2,0,124.4,0,186.7,0
			C1579.6,224,1580.5,255.2,1581.4,286.4z"/>
		<path class="st23" d="M1832,276.8c-1.8,1.3-3.6,2.7-5.3,4C1828.4,279.5,1830.2,278.2,1832,276.8z"/>
		<path class="st24" d="M1064,286.4c-57.8,0-115.6,0-173.3,0c-0.9-31.2-1.8-62.4-2.7-93.6c57.8,0,115.6,0,173.3,0
			c-0.7,3.8-2.1,7.7-1.9,11.5C1060.8,231.6,1062.5,259,1064,286.4z"/>
		<path class="st25" d="M1392,192.8c0.9,31.2,1.8,62.4,2.7,93.6c-57.8,0-115.5,0-173.3,0c0.8-7.7,2.5-15.4,2.3-23.1
			c-0.4-23.5-1.5-47-2.3-70.5C1278.2,192.8,1335.1,192.8,1392,192.8z"/>
		<path class="st26" d="M888,192.7c0.9,31.2,1.8,62.4,2.7,93.6c-56.9,0-113.8,0-170.7,0c-0.9-16.9-1.8-33.9-2.7-50.8
			c0-1.9,0-3.9,0-5.8c0-12.3,0-24.7,0-37C774.3,192.7,831.1,192.7,888,192.7z"/>
		<path class="st20" d="M1221.4,192.8c0.8,23.5,1.9,47,2.3,70.5c0.1,7.7-1.5,15.4-2.3,23.1c-52.5,0-104.9,0-157.4,0
			c-1.6-27.4-3.2-54.8-4.6-82.1c-0.2-3.8,1.2-7.7,1.9-11.5C1114.7,192.8,1168,192.8,1221.4,192.8z"/>
		<path class="st22" d="M518.3,236.5c-3.2,0-6.4,0-9.7,0c-0.1-0.9-0.2-1.9-0.3-2.8c5,0,13.5-1.2,14.3,0.2c2.8,4.7,3,10.2,4.1,15.5
			c-5.8,0.4-11.7,0.8-17.5,1.2c-0.3-3-2.1-6.5-0.6-8.7c1.3-1.9,6.5-2.5,9.9-3.6C518.5,237.7,518.4,237.1,518.3,236.5z"/>
		<path class="st11" d="M665.5,228.2c0,6.6,0,14.1,0,21.6c-17.9,2-24.8-0.7-22.4-9.4c0.9-3.2,6.2-6.1,10.3-8.4
			C656.6,230.2,661.1,229.5,665.5,228.2z M662.8,241.4c-3.8-2.4-6.1-3.9-8.5-5.4c-2.1,2-5.3,3.9-5.8,6.2c-0.3,1.4,3.3,3.4,5.2,5.1
			C656.3,245.6,658.9,243.9,662.8,241.4z"/>
		<path class="st11" d="M541.4,236.2c-1.7,4.8-3.4,9.7-5.1,14.5c-1.5,0-3-0.1-4.5-0.1c0-5.6-1.1-11.3,0.7-16.6
			c0.5-1.3,11.1-2.5,15.3-1c10.6,3.6,5.6,10.8,3.2,17.2c-1.7-4.6-3.3-9.2-5-13.8C544.5,236.3,543,236.2,541.4,236.2z"/>
		<path class="st22" d="M596.5,242.3c8.3-5,13.3-10.2,17.1-9.7c4.8,0.6,11.4,5.5,11.9,9c0.4,2.9-6.3,8.5-10.8,9.1
			C610.7,251.3,605.4,246.7,596.5,242.3z M621.8,243.6c1.3-1.5,2.6-3.1,3.8-4.6c-3.7-1-7.5-2.8-11.1-2.7c-2.2,0.1-6,3.2-6,4.9
			c0.1,2.1,2.9,4.9,5.6,5.8C615.6,247.6,619.2,244.8,621.8,243.6z"/>
		<path class="st11" d="M688,249.4c-6.7,3.6-13.6,3-15.8-2.6c-1.4-3.7,0.7-9.2,4-12.4c1.7-1.6,11.7-1.1,14.1,0.9
			C695.4,239.6,696,245.3,688,249.4c0-1.9,0.6-4-0.1-5.8c-1-2.6-3.1-4.9-4.7-7.3c-2.1,0.8-6.1,1.6-6.1,2.4c0,3,0.5,6.3,2.5,8.7
			C680.7,248.8,685.1,248.7,688,249.4z"/>
		<path class="st11" d="M595.4,229c0,7,0,14,0,22c-1.2-0.6-5.1-1.6-5.4-3.1c-1.3-6.2-1.6-12.5-2.2-18.8
			C590.3,229.1,592.9,229.1,595.4,229z"/>
		<path class="st11" d="M566.2,228.8c0,7,0,14,0,20.7c-6.8-1.4-10.2-12.3-4.1-20.5C563.5,229,564.9,228.9,566.2,228.8z"/>
		<path class="st11" d="M717.3,229.8c0,1.9,0,3.9,0,5.8c-2.8-1.4-5.6-2.7-10.3-5c-1.2,0.3-5,1.2-9.4,2.3
			C703.2,224.4,705.1,224.1,717.3,229.8z"/>
		<path class="st11" d="M709,239.2c-0.3,1-0.7,2.1-1,3.1c-0.9-0.3-1.9-0.5-2.8-0.8c0.7-0.9,1.4-1.9,2.1-2.8
			C707.8,238.8,708.4,239,709,239.2z"/>
		<path class="st27" d="M320,249.4c-0.3-0.6-1-1.3-0.9-1.8c1.1-3.9,2.4-7.7,3.6-11.5c2.5,1.3,6.6,2.4,7.3,4.1
			C332.1,246,328.6,249.4,320,249.4C320,249.4,320,249.4,320,249.4z"/>
		<path class="st27" d="M346.6,235.6c3.6,0.8,8.5,0.9,10.3,2.6c1.7,1.7,0.5,5.3-0.3,7.9c-0.4,1-4.7,2.4-4.9,2.2c-2-1.8-4.1-3.8-5-6
			C345.9,240.3,346.6,237.9,346.6,235.6C346.7,235.6,346.6,235.6,346.6,235.6z"/>
		<path class="st27" d="M410.9,235.8c3.4,0,6.8,0,10.2,0c0.3,0.9,1.2,2,0.8,2.8c-1.4,3.3-3.2,6.5-4.9,9.8c-2.2-2.9-4.6-5.7-6.4-8.7
			C410.1,238.6,410.8,237.1,410.9,235.8z"/>
		<path class="st13" d="M662.8,241.4c-3.9,2.5-6.5,4.2-9.1,5.8c-1.9-1.7-5.5-3.7-5.2-5.1c0.5-2.2,3.8-4.1,5.8-6.2
			C656.7,237.5,659.1,239,662.8,241.4z"/>
		<path class="st13" d="M621.8,243.6c-2.6,1.3-6.2,4-7.7,3.4c-2.7-0.9-5.5-3.8-5.6-5.8c-0.1-1.7,3.7-4.8,6-4.9
			c3.6-0.1,7.4,1.7,11.1,2.7C624.4,240.5,623.1,242.1,621.8,243.6z"/>
		<path class="st13" d="M688,249.4c-2.9-0.6-7.3-0.6-8.4-2c-2-2.5-2.5-5.8-2.5-8.7c0-0.8,4-1.6,6.1-2.4c1.6,2.4,3.6,4.8,4.7,7.3
			C688.6,245.3,688,247.4,688,249.4L688,249.4z"/>
	</g>
</g>
</svg>
