<svg xmlns="http://www.w3.org/2000/svg" xml:space="preserve" id="Ebene_1" x="0" y="0" viewBox="0 0 1920 1080"><style>.st1{fill:#141229}.st2{fill:#121023}.st4{fill:#efeff0}.st10{fill:#4f4d5e}.st11{fill:#565463}.st12{fill:#474557}.st13{fill:#312f41}.st16{fill:#171527}.st17{fill:#74748a}.st18{fill:#56566e}.st19{fill:#1b1a2e}.st20{fill:#242235}.st21{fill:#5b5968}.st22{fill:#595766}.st23{fill:#1f1d2d}</style><path d="M0 1080V0h1920v1080zM946.6 86.3c8.8-5.7 17.6-11.4 27.8-18.1-6.4-.5-11-.8-16-1.2.8-3 1.4-5.5 2.1-8.2-7 5.5-13.4 10.5-18.9 14.9 2.3.1 6.5.4 13.8.9-3.5 4.7-6.2 8.2-8.8 11.7-.8 1.4-1.5 2.7-2.3 4l-3.9-2.4c2.1-.5 4.2-1.1 6.2-1.6m46.8 642.2H393.7c-18.9 0-23 2.9-23 16.4 0 25.5-.1 51 0 76.5 0 11.6 4.7 15 20.8 15h1200.8c16.6 0 20.9-3.3 21-15.9.1-24.9 0-49.7 0-74.6 0-15-3.4-17.5-24.2-17.5-198.5.1-397.1.1-595.7.1m-1.5-263.1H393.5c-18.9 0-22.8 2.8-22.8 16.5v73.6c0 12.6 4.4 15.9 21 15.9h1200.8c16.1 0 20.8-3.4 20.8-15 .1-23.9 0-47.8 0-71.6 0-17.4-2.5-19.3-25.7-19.3-198.5-.1-397.1-.1-595.7-.1m.1 131.5H396.1c-20.5 0-25.4 3.5-25.4 18.2 0 23.6-.1 47.1 0 70.7 0 13.2 5.3 17.1 22.8 17.1h1197.1c17.5 0 22.7-4 22.8-17.2.1-22.9 0-45.8 0-68.7 0-17.1-4-20.1-26.8-20.1zM974.8 322c255.1 0 510.1 0 765.2-.1 19.5 0 39-.8 58.3-2 34.4-2.1 60.6-19.6 65.5-45.3 2.9-15.4 4-31.3 2.3-46.8-3.1-29.1-23.8-45.5-62.9-51.8-14.1-2.2-28.9-3.2-43.4-3.2-532.7.5-1065.4 1.2-1598 1.9-35.7 0-66.9 17-73 42.7-4.1 17.5-4.5 35.9-2.2 53.6 2.8 21.2 18.7 37.7 47 44.8 14.8 3.7 31.1 5.9 46.7 5.9 264.8.4 529.6.3 794.5.3m17.4 732.5c44.9 0 89.7.1 134.6 0 17.6 0 25.1-5.5 25.2-18.5.1-18.3.1-36.6 0-55-.1-13.1-7.4-18.7-24.9-18.8-90.2-.1-180.4-.1-270.5 0-16.9 0-24.4 5.6-24.5 18-.2 18-.1 36 0 54 0 15.4 6.8 20.2 28.2 20.3zM1039.7 60c-1.3.7-2.5 1.3-3.8 2v24.5c1 0 2 .1 3 .1 1.1-3.6 2.1-7.1 3.6-12 3.5 4.6 6 7.7 9.3 12 3.9-4.4 6.6-7.6 10-11.4 1.6 4.8 2.7 8.3 3.9 11.7 1.1-.2 2.2-.3 3.3-.5V61.9l-3.9-1.5-13.2 16.2c-4.1-5.6-8.1-11.1-12.2-16.6M771.6 78.3c0 .8 0 1.6-.1 2.5-3.7 0-9.7.9-10.5-.2-2.2-3.1-4.3-7.6-2.8-10.6 4.8-10.1 13.9 1.3 21.4-1.5-3.8-7.6-11.4-9.1-20.1-6.8-10.1 2.7-11.8 9.4-9.7 16.2 2.1 6.7 8.6 9.6 17.9 8.8 10.7-1 12.9-6.2 12.6-13.9-5.3.2-9.7.4-17.4.7 5 2.7 6.8 3.8 8.7 4.8m373.2 10.5c10.1-2.9 20.1-3.9 25.9-8.1 3.4-2.5 2.9-12.2-.8-14.6-5.8-3.8-15.7-4.2-25.1-6.4zm-327.4-2c10.2-.2 16-5.3 15.4-13.8-.6-7.6-5.8-12.3-16.5-12.1-10.9.2-15.3 5.7-15.8 12.9-.6 7.9 6.8 13.2 16.9 13m291.4-25.9c-11 0-18.4 5.9-17.6 13.5.7 7.2 5.1 12.4 16.3 12.4 10.3 0 16.5-5 16.1-13.3-.4-7.6-5.4-12.1-14.8-12.6M855.4 88.7C865 86 874.6 85 880.5 81c3.4-2.3 3.6-11.6.2-13.9-5.8-4.1-15.4-5.2-25.3-8.1zm362.5-2.9c.1-.9.2-1.8.4-2.7-4.9-.5-9.8-1.1-14.8-1.6-.5-.9-1-1.7-1.5-2.6 4.9-1.5 9.8-3 18.4-5.6-8.1-1.2-12.7-1.9-17.3-2.5l-.9-2.4c5.4-1.4 10.7-2.8 16.1-4.1-.1-.8-.1-1.6-.2-2.4-7.3-.3-14.5-.5-22.5-.8v24.8c8-.1 15.2-.1 22.3-.1" style="fill:#0a081e"/><path d="M993.4 728.5h595.7c20.7 0 24.2 2.5 24.2 17.5v74.6c0 12.6-4.4 15.9-21 15.9H391.5c-16.1 0-20.8-3.4-20.8-15q-.15-38.25 0-76.5c0-13.5 4.1-16.4 23-16.4 199.9-.1 399.8-.1 599.7-.1m339.4 65c.9.6 1.8 1.2 2.7 1.7 2.8-2.7 7.6-5.2 7.9-8 .4-3.4-3-7.1-4.7-10.7-3.3 1-9.7 2.3-9.5 2.8.9 3.5 3.3 6.7 4.7 10.2.4 1.2-.7 2.6-1.1 4m-615-21.6c-2.5.8-5 1.6-7.5 2.3 2.2 5 4.4 10 6.6 14.9l10.8-3.3c-3.2-4.6-6.5-9.2-9.9-13.9m590.4 13.9c1.3 1.5 2.7 2.9 4 4.4 4.3-1.5 8.5-3 12.8-4.4-1.9-3-3.8-5.9-5.7-8.9-3.8 2.9-7.5 5.9-11.1 8.9M991.9 465.4h595.7c23.1 0 25.7 1.9 25.7 19.3 0 23.9.1 47.8 0 71.6 0 11.6-4.7 15-20.8 15H391.7c-16.6 0-21-3.3-21-15.9-.1-24.5 0-49.1 0-73.6 0-13.7 3.9-16.5 22.8-16.5 199.5.1 398.9.1 598.4.1m115.7 56.3c-4.7-3.8-7.7-6.2-10.8-8.7-3 2.5-8.6 5.1-8.4 7.5.3 3.6 4.6 7.1 7.2 10.6 3.4-2.6 6.9-5.3 12-9.4m-77.5-6.7c-9.8-.4-18.5-1.3-26.9-.6-1.5.1-2.1 6.7-3.1 10.2 1.2.1 2.4.3 3.5.4 1.3-2.6 2.6-5.3 4.4-9 2.1 4 3.5 6.6 5.6 10.5 1.9-4.2 3-6.8 5-11.2 2.1 4.7 3.3 7.3 5.1 11.3 2.2-3.8 3.5-6.1 6.4-11.6m75.6 7.7c1.1 1.4 2.3 2.7 3.4 4.1 4.4-1.3 8.7-2.6 13.1-3.9-2.2-3.1-4.3-6.3-6.5-9.4-3.3 3.1-6.7 6.1-10 9.2M992 596.9h594.5c22.8 0 26.8 3 26.8 20.1 0 22.9.1 45.8 0 68.7 0 13.2-5.2 17.2-22.8 17.2H393.4c-17.5 0-22.8-4-22.8-17.1-.1-23.6-.1-47.1 0-70.7 0-14.7 4.9-18.2 25.4-18.2zm-315.7 55c4.6 4.7 7.6 7.8 10.6 10.8 3-3.3 7.8-6.4 8.5-10 .5-2.4-4.6-5.4-7.2-8.2-3.4 2.2-6.8 4.3-11.9 7.4m-101.3.8c-.2-1.5-.5-3-.7-4.6-9.1-1-18.3-2.2-27.5-2.5-.6 0-1.6 6.9-2.4 10.7 1.2.1 2.3.2 3.5.3 1.1-2.6 2.1-5.1 4-9.6 2.2 4.7 3.5 7.4 5.3 11.1 2.2-4 3.6-6.6 5.9-10.8 1.7 4.6 2.7 7.2 3.9 10.5 3.5-2.3 5.7-3.7 8-5.1m368.4-5.2c2.3 4 3.8 6.7 6 10.6 2-4.1 3.3-6.7 5.7-11.4-9.8-.5-18.5-1.4-27.2-1-1.1.1-1.6 6.9-2.4 10.6 1.1.1 2.3.2 3.4.4 1.3-2.6 2.6-5.3 4.8-9.9 1.8 4.8 2.8 7.4 4.7 12.5 2.2-5 3.2-7.6 5-11.8m33.6-4.9c2.5 5 5 10 7.5 15.1 3.3-1 8.8-1.5 9.5-3.1 4-8.9-6.2-10.2-17-12m139.4 12.4h18.1c-2.8-4.8-5.5-9.5-9.7-16.7-3.7 7.5-6 12-8.4 16.7m-410-8.3c2.7 5 4.2 7.6 5.6 10.2 1.3-.4 2.5-.8 3.8-1.1-2.1-3.4-3.6-7.1-6.5-10.1-.9-.9-7.5-.5-7.9.3-1.6 3.3-1.9 6.9-2.6 10.4 1.2.1 2.3.2 3.5.3 1-2.7 2.1-5.2 4.1-10m435.8-7.4c-.7 1-1.3 1.9-2 2.9 4.3 2.2 8.5 4.5 12.8 6.7.9-.9 1.7-1.9 2.6-2.8-4.4-2.3-8.9-4.5-13.4-6.8" class="st1"/><path d="M974.8 322c-264.8 0-529.7.1-794.5-.3-15.6 0-31.9-2.2-46.7-5.9-28.3-7.1-44.3-23.6-47-44.8-2.3-17.7-1.9-36.1 2.2-53.6 6.1-25.6 37.2-42.6 73-42.7 532.7-.7 1065.4-1.4 1598-1.9 14.5 0 29.3.9 43.4 3.2 39.1 6.2 59.8 22.7 62.9 51.8 1.7 15.5.6 31.4-2.3 46.8-4.9 25.6-31.1 43.1-65.5 45.3-19.4 1.2-38.9 2-58.3 2-255.1.2-510.2.1-765.2.1M117.7 206.3c-2.9 2.1-7 3.9-8.6 6.5-11.4 17.5-9.4 36.2-5.8 54.4 1.5 7.5 9.2 14.3 14.1 21.5 2.8 3.4 4.6 7.7 8.6 9.9 18.3 10.2 40.2 11.6 61.9 11.6 525.4.1 1050.9.1 1576.3 0 13.1 0 26.4-1.9 39.3-3.7 16.6-2.3 28.6-9.7 36.9-20.5 14.1-18.5 11.9-38.6 8.2-58.2-1.4-7.5-9.4-14.2-14.4-21.3-.7 0-1.4 0-2.1.1-.5-8.9-8.9-12.1-19-14-4.6-.6-9.1-1.9-13.7-1.9-549.9-.1-1099.7-.1-1649.6 0-4.5 0-9.1 1.2-13.6 1.9-12 .4-16.8 5.4-16.2 13.8-.8-.2-1.5-.1-2.3-.1" class="st2"/><path d="M992.2 1054.5H860.3c-21.4 0-28.2-4.9-28.2-20.3q-.15-27 0-54c.1-12.4 7.7-18 24.5-18 90.2-.1 180.4-.1 270.5 0 17.5 0 24.8 5.6 24.9 18.8.1 18.3.1 36.6 0 55-.1 13-7.6 18.5-25.2 18.5zm5-51c.9 1 1.9 2 2.8 3 .5-.4 1-.7 1.6-1.1-1.3-.7-2.7-1.4-4-2.2-1.5-1.8-3-3.6-4.5-5.3-.8.3-1.5.6-2.3.9v18.8c.7 0 1.4.1 2.1.1 1.4-4.7 2.8-9.4 4.3-14.2m-54-8.8c-4.3 7.6-6.2 13.1-10.3 17.5-2.3 2.5-8.1 4-12.5 4.3-1.6.1-4.8-4.3-5.6-6.9-1.2-4-.9-8.3-1.2-12.5-1.4 0-2.8.1-4.3.1 0 3.7-.5 7.5.2 11.1.7 3.5 1.8 9.5 4.1 9.9 6.5 1.1 16.9 1.9 20-.8 7.6-6.5 13.5-4.3 22.1-1.5-3.6-6-7.2-12.1-12.5-21.2m130.6 4.2c-4.9 2.7-8.2 6-11.8 6.2s-7.5-2.7-11-4.1v14.8c2.9-1.9 6.9-6.3 9.3-5.9 4.9.9 9 4.4 13.5 6.9zm-42.1 19.7c-3.5-5.1-7.1-10.5-10.7-15.7-4.4 11-.9 15.3 10.7 15.7m-4.5-22.7-.9 2.7 15.6 3c.3-1 .6-1.9.9-2.9-5.2-.9-10.4-1.9-15.6-2.8m-21.5 16.4c.3-.5.6-1 .8-1.5 0-.1-.8-.6-.9-.5-.6.3-1.1.6-1.6 1 .5.3 1.1.6 1.7 1m35.7 2.2c-.3.2-.7.4-.7.7 0 .2.3.5.5.7.3-.2.7-.4.7-.7.1-.2-.3-.5-.5-.7" style="fill:#313260"/><path d="M1039.7 60c4 5.5 8 11 12 16.4l13.2-16.2 3.9 1.5v24.5c-1.1.2-2.2.3-3.3.5-1.1-3.4-2.3-6.9-3.9-11.7-3.4 3.9-6.1 7-10 11.4-3.3-4.3-5.7-7.4-9.3-12-1.5 4.9-2.5 8.5-3.6 12-1 0-2-.1-3-.1V61.8c1.5-.5 2.8-1.1 4-1.8" class="st4"/><path d="M771.6 78.3c-1.9-1-3.7-2.1-8.7-4.8 7.7-.3 12.1-.5 17.4-.7.2 7.7-1.9 13-12.6 13.9-9.3.8-15.8-2.1-17.9-8.8-2.1-6.9-.5-13.5 9.7-16.2 8.6-2.3 16.2-.9 20.1 6.8-7.6 2.7-16.6-8.6-21.4 1.5-1.4 3 .6 7.5 2.8 10.6.8 1.1 6.9.2 10.5.2 0-.9.1-1.7.1-2.5" style="fill:#e3e3e5"/><path d="M1144.8 88.8V59.6c9.5 2.2 19.4 2.6 25.1 6.4 3.7 2.4 4.2 12.2.8 14.6-5.8 4.3-15.8 5.3-25.9 8.2m7.7-6.9c10.7.3 15.2-3.4 13-9.5-1.1-2.9-6.8-5-13-9.1z" style="fill:#dedee1"/><path d="M817.4 86.8c-10.1.2-17.5-5.1-16.9-12.9.5-7.2 4.9-12.7 15.8-12.9 10.7-.2 15.9 4.5 16.5 12.1.7 8.4-5.2 13.5-15.4 13.7m-13.2-13.4c5.3 4 8.6 6.5 11.9 8.9 3.3-2.9 8.7-5.6 9.1-8.6.3-2.6-5.3-5.6-8.2-8.4-3.6 2.3-7.2 4.6-12.8 8.1m304.6-12.5c9.4.5 14.4 5.1 14.7 12.6.4 8.3-5.8 13.4-16.1 13.3-11.2 0-15.6-5.2-16.3-12.4-.7-7.7 6.7-13.5 17.7-13.5m-14 12.9c5.4 3.8 8.8 6.2 12.2 8.6 3.2-2.9 8.5-5.7 8.8-8.8.3-2.5-5.4-5.4-8.5-8.2-3.4 2.3-6.9 4.6-12.5 8.4" style="fill:#e8e8ea"/><path d="M855.4 88.7V58.9c10 2.9 19.6 4.1 25.3 8.1 3.3 2.4 3.2 11.6-.2 13.9-5.9 4.1-15.5 5.1-25.1 7.8M862 82c11.1.6 15.7-2.9 14.3-9.6-1.2-5.8-6.7-7.5-14.3-5.7z" class="st4"/><path d="M1217.9 85.8h-22.2V61c7.9.3 15.2.5 22.5.8.1.8.1 1.6.2 2.4-5.4 1.4-10.7 2.8-16.1 4.1l.9 2.4c4.6.7 9.2 1.4 17.3 2.5-8.6 2.6-13.5 4.1-18.4 5.6.5.9 1 1.7 1.5 2.6 4.9.5 9.8 1.1 14.8 1.6-.2 1-.4 1.9-.5 2.8" style="fill:#d7d7db"/><path d="M946.6 86.3c2.7-3.5 5.3-7 8.9-11.7-7.3-.5-11.6-.7-13.8-.9 5.6-4.4 11.9-9.4 18.9-14.9-.7 2.7-1.4 5.2-2.1 8.2 5 .4 9.6.7 16 1.2-10.3 6.6-19.1 12.4-27.9 18.1m0 0c-2.1.5-4.1 1.1-6.2 1.6l3.9 2.4c.8-1.3 1.5-2.6 2.3-4" style="fill:#dab248"/><path d="M1332.8 793.5c.4-1.3 1.6-2.8 1.1-3.9-1.4-3.5-3.8-6.7-4.7-10.2-.1-.5 6.2-1.9 9.5-2.8 1.7 3.6 5.1 7.2 4.7 10.7-.3 2.8-5.1 5.3-7.9 8q-1.35-1.05-2.7-1.8" class="st10"/><path d="M717.8 771.9c3.3 4.7 6.6 9.3 10 14l-10.8 3.3c-2.2-5-4.4-10-6.6-14.9 2.5-.9 4.9-1.6 7.4-2.4" class="st11"/><path d="M1308.2 785.8c3.7-3 7.4-6 11-9 1.9 3 3.8 5.9 5.7 8.9-4.3 1.5-8.5 3-12.8 4.4-1.3-1.4-2.6-2.8-3.9-4.3m9.3-4.8c.3-.2.6-.3.9-.5-.3-.2-.7-.6-.8-.5-.4.2-.8.5-1.2.7.4.1.7.2 1.1.3m-209.9-259.3c-5.1 4-8.5 6.7-12 9.4-2.6-3.5-6.9-7-7.2-10.6-.2-2.4 5.4-5 8.4-7.5 3.1 2.5 6.1 5 10.8 8.7m-10.9 6v-.7h-4v.7z" class="st10"/><path d="M1030.1 515c-2.9 5.4-4.2 7.8-6.3 11.6-1.8-4-3-6.6-5.1-11.3-2 4.4-3.1 7-5 11.2-2.1-3.9-3.4-6.4-5.6-10.5-1.8 3.8-3.1 6.4-4.4 9-1.2-.1-2.4-.3-3.5-.4 1-3.6 1.6-10.1 3.1-10.2 8.3-.6 17 .3 26.8.6" class="st12"/><path d="M1105.7 522.7c3.4-3.1 6.7-6.2 10.1-9.3 2.2 3.1 4.3 6.3 6.5 9.4-4.4 1.3-8.7 2.6-13.1 3.9-1.2-1.2-2.4-2.6-3.5-4m9.1-4.8c.3-.2.6-.3.9-.5-.3-.2-.7-.6-.8-.5-.4.2-.8.5-1.2.7.4.1.8.2 1.1.3m-438.5 134c5.1-3.1 8.5-5.2 11.9-7.3 2.6 2.8 7.7 5.8 7.2 8.2-.8 3.6-5.5 6.7-8.5 10-3-3.1-6-6.2-10.6-10.9m12.4 7.4v-.7h-4v.7z" class="st10"/><path d="M575 652.7c-2.2 1.4-4.5 2.8-7.9 5-1.2-3.4-2.2-5.9-3.9-10.5-2.3 4.2-3.7 6.8-5.9 10.8-1.8-3.7-3-6.4-5.3-11.1-1.9 4.5-3 7.1-4 9.6-1.2-.1-2.3-.2-3.5-.3.8-3.7 1.8-10.7 2.4-10.7 9.2.3 18.3 1.5 27.5 2.5.1 1.7.3 3.2.6 4.7m368.4-5.2c-1.7 4.2-2.8 6.8-4.9 11.8-1.9-5.1-2.9-7.7-4.7-12.5-2.3 4.7-3.6 7.3-4.8 9.9-1.1-.1-2.3-.2-3.4-.4.8-3.7 1.3-10.6 2.4-10.6 8.6-.4 17.4.4 27.2 1-2.4 4.7-3.7 7.3-5.7 11.4-2.3-3.9-3.9-6.6-6.1-10.6" class="st12"/><path d="M977 642.6c10.8 1.8 21.1 3.1 17 12-.8 1.6-6.2 2.1-9.5 3.1-2.5-5-5-10-7.5-15.1" class="st11"/><path d="M1116.4 655c2.4-4.7 4.7-9.2 8.4-16.7 4.2 7.2 6.9 11.9 9.7 16.7z" class="st10"/><path d="M706.4 646.7c-2 4.8-3 7.3-4.1 9.9-1.2-.1-2.3-.2-3.5-.3.7-3.5 1-7.1 2.6-10.4.4-.8 7-1.2 7.9-.3 2.9 3 4.4 6.7 6.5 10.1-1.3.4-2.5.8-3.8 1.1-1.4-2.5-2.9-5.1-5.6-10.1" class="st12"/><path d="M1142.2 639.3c4.5 2.2 8.9 4.5 13.4 6.7-.9.9-1.7 1.9-2.6 2.8-4.3-2.2-8.5-4.5-12.8-6.7.7-.9 1.4-1.8 2-2.8" class="st13"/><path d="M120 206.2c-.6-8.4 4.3-13.4 16.2-13.8h84l273.2.3c0 8-.7 16.1.2 24 .6 5.1 3.6 10.1 5.5 15.1-1.3 3.8-2.5 7.6-4.1 12.4-2.9-4.5-5-7.7-8.3-12.7-3.6 5.5-5.7 8.6-7.9 12-2.2-4.1-4-7.5-5.8-10.9-1.2.3-2.5.7-3.7 1 2.4 5.9 4.7 11.8 7.1 17.7 1.2-.1 2.4-.1 3.6-.2 2.2-3.2 4.4-6.5 6.2-9.1l9.9 9.3v35c-5.8.1-11.5.3-17.3.3-109 0-218 0-327 .1-5.1 0-10.2 1-15.3 1.6-6.4.1-12.7.2-19.1.2.1-4.7.1-9.4.2-14.1.8-3 2.2-6.1 2.3-9.1.2-19.6.1-39.4.1-59.1m290.2 29.1c-9.8 3.6-7.6 9.8-2.4 13.4 3.1 2.2 13.4 2 16.9-.2 6.5-4 6.1-9.7-2.9-13.2-3.9-5-7.7-4.9-11.6 0m-63.5.3c-2.2 2.4-7 5.5-6.2 6.9 1.8 3.4 6 7.8 9.9 8.3 4 .5 11.9-2.9 12.6-5.5 1-3.6-2.6-8.1-5.5-11.7-.6-.6-7.1 1.3-10.8 2M320 249.4c6.1 2.3 13.5 4.7 15.5-2.3 1.8-6.4.4-13.3.4-19.1-5.5 1.6-10 2.3-13.4 4.2-3.9 2.1-9 5.1-9.4 8-.4 2.8 4.4 6.1 6.9 9.2m-105.7 1.3c1.6 0 3.2.1 4.7.1 2.7-7.6 5.5-15.3 8.2-22.9-1.4-.3-2.8-.5-4.2-.8-1.9 4.3-3.8 8.7-6.5 14.8-3.6-6.5-6.1-11.2-10.2-18.6-4 7.5-6.5 12.2-9.7 18.3-2.8-6.1-4.7-10.4-6.7-14.7-1.5.4-2.9.7-4.4 1.1 2.9 7.7 5.8 15.4 8.7 23.2l4.8-.3c2.3-5 4.6-10.1 7.2-15.8 3 5.6 5.6 10.6 8.1 15.6m58-14c.1.7.2 1.3.3 2-2.4.5-5.3.6-7 1.7-2.7 1.7-4.5 4.1-6.6 6.2 3.3 1.6 6.5 4.1 10.1 4.5 3.2.4 9.7-1.4 9.8-2.5.4-4.6 0-9.6-2.4-13.8-.9-1.5-8.1-1.2-12.5-1.5-.5 0-1.1 1.4-1.7 2.3 3.6.4 6.8.8 10 1.1m-23.6 13.2c2.1-.2 4.1-.4 6.2-.7-2.2-5.6-3.1-11.8-7.1-16.6-2.4-2.9-9.6-3.7-14-5.2v22.4c3-3.1 2.8-6.4 4.1-9.4.8-1.7 3.9-2.9 6-4.3 1.4 1.5 3.5 2.8 3.9 4.4.8 3.1.7 6.3.9 9.4M402 233.6c-1-.4-2-.8-3.1-1.1-2.6 3.8-5.1 7.6-7.8 11.6-3.1-4.1-5.9-7.8-8.7-11.5-.4.3-.9.5-1.3.8 1.8 8 3.6 16.1 5.5 24.6 11.8-5.1 10-16.1 15.4-24.4m34.2-.4c-1.8.2-3.5.4-5.3.6 1.9 5.6 2.8 11.5 6.2 16.5.9 1.3 13.4.6 13.9-.6 2-5.1 1.5-10.8 1.9-16.3h-4c-.3 2.5 0 5.2-1.1 7.5s-3.7 4.2-5.7 6.2c-1.6-2-3.8-3.8-4.7-6-1-2.5-.8-5.2-1.2-7.9m-145.3-4.7c-9.8 8.3-6.7 19.1 2 21.5-.6-7.1-1.3-14.3-2-21.5" style="fill:#353245"/><path d="M1813.1 192.4c10.1 1.9 18.4 5.1 19 14v66.4c0 1.4 0 2.7-.1 4.1-1.8 1.3-3.6 2.7-5.3 4-2.7 2-5.3 3.9-8 5.9-1.9 0-3.8.1-5.7.1-77.2-.1-154.4-.3-231.6-.4l-2.7-93.6c78.1-.3 156.3-.4 234.4-.5" style="fill:#17162a"/><path d="M1832 276.8c0-1.4 0-2.7.1-4.1.9-2 2.5-4.1 2.5-6.1 0-20.1-.2-40.2-.3-60.4 5 7.1 13 13.9 14.4 21.3 3.7 19.7 5.9 39.7-8.2 58.2-8.2 10.8-20.3 18.2-36.9 20.5-13 1.8-26.2 3.7-39.3 3.7-525.4.2-1050.9.2-1576.3 0-21.7 0-43.7-1.4-61.9-11.6-4-2.2-5.8-6.6-8.6-9.9 6.4-.1 12.7-.2 19.1-.2l-.3.1c10.4 12 27.8 11.8 43.5 11.8 530.9.2 1061.9.2 1592.8 0 11.3 0 22.9-2.1 33.7-4.6 4.9-1.2 8.3-5.8 12.4-8.9 2.7-2 5.3-3.9 8-5.9 1.7-1.2 3.5-2.5 5.3-3.9" class="st16"/><path d="M1813.1 192.4c-78.1.1-156.3.2-234.4.4H493.3l-273.2-.3h-84c4.5-.7 9.1-1.9 13.6-1.9 549.9-.1 1099.7-.1 1649.6 0 4.7-.1 9.3 1.1 13.8 1.8" class="st17"/><path d="M117.6 274.5c-.1 4.7-.1 9.4-.2 14.1-4.9-7.1-12.6-14-14.1-21.5-3.6-18.2-5.6-36.9 5.8-54.4 1.7-2.6 5.7-4.3 8.6-6.5 0 22.9 0 45.6-.1 68.3" class="st16"/><path d="M117.6 274.5c0-22.7.1-45.5.1-68.2.8 0 1.5-.1 2.3-.1 0 19.7.1 39.5-.1 59.2 0 3-1.5 6.1-2.3 9.1m1716.6-68.2c.2 20.1.4 40.2.3 60.4 0 2-1.6 4.1-2.5 6.1v-66.4c.8 0 1.5-.1 2.2-.1" class="st17"/><path d="M943.2 994.7c5.3 9 8.9 15.2 12.5 21.3-8.6-2.8-14.4-5.1-22.1 1.5-3.1 2.7-13.5 1.9-20 .8-2.4-.4-3.5-6.4-4.1-9.9-.7-3.6-.2-7.4-.2-11.1 1.4 0 2.8-.1 4.3-.1.3 4.2 0 8.4 1.2 12.5.8 2.6 4 7.1 5.6 6.9 4.4-.4 10.2-1.8 12.5-4.3 4.1-4.5 6-10 10.3-17.6m130.6 4.2v17.9c-4.6-2.5-8.6-6-13.5-6.9-2.3-.4-6.4 4-9.3 5.9V1001c3.5 1.4 7.4 4.3 11 4.1 3.6-.3 6.9-3.5 11.8-6.2m-76.6 4.6c-1.4 4.7-2.9 9.4-4.3 14.1-.7 0-1.4-.1-2.1-.1v-18.8c.8-.3 1.5-.6 2.3-.9 1.5 1.8 3 3.6 4.5 5.3zm34.5 15.1c-11.5-.5-15.1-4.8-10.7-15.7 3.5 5.3 7.2 10.6 10.7 15.7m-4.5-22.7c5.2.9 10.4 1.9 15.6 2.8-.3 1-.6 1.9-.9 2.9l-15.6-3z" class="st18"/><path d="M997.5 1003.3c1.3.7 2.7 1.4 4 2.2-.5.4-1 .7-1.6 1.1-.9-1-1.9-2-2.8-3 .1-.1.4-.3.4-.3m8.2 9c-.6-.3-1.2-.7-1.8-1 .5-.3 1-.7 1.6-1 .1-.1 1 .4.9.5-.1.5-.5 1-.7 1.5m35.7 2.2c.2.3.6.5.5.7 0 .2-.5.4-.7.7-.2-.3-.6-.5-.5-.7 0-.3.5-.5.7-.7" class="st18"/><path d="M1152.5 81.9V63.3c6.1 4.1 11.9 6.1 13 9.1 2.2 6.1-2.3 9.9-13 9.5" class="st2"/><path d="M804.2 73.4c5.7-3.6 9.2-5.8 12.8-8.1 3 2.8 8.5 5.8 8.2 8.4-.4 3.1-5.9 5.8-9.1 8.6-3.3-2.4-6.6-4.9-11.9-8.9m290.6.4c5.6-3.7 9.1-6 12.6-8.4 3 2.7 8.7 5.6 8.5 8.2-.3 3.1-5.7 5.9-8.8 8.8-3.5-2.4-6.9-4.8-12.3-8.6" class="st19"/><path d="M862 82V66.7c7.6-1.8 13.2-.2 14.3 5.7 1.4 6.6-3.2 10.2-14.3 9.6" class="st20"/><path d="M1317.5 781c-.3-.1-.7-.2-1-.3.4-.3.7-.6 1.2-.7.1 0 .5.3.8.5-.4.2-.7.4-1 .5m-220.8-253.3h-4v-.7h4zm18.1-9.8c-.3-.1-.7-.2-1-.3.4-.3.7-.6 1.2-.7.1 0 .5.3.8.5-.4.2-.7.3-1 .5" class="st1"/><ellipse cx="686.7" cy="658.9" class="st1" rx="2.8" ry=".5"/><path d="M493.4 192.7h224v37c-12.2-5.6-14.1-5.4-19.8 3.1 4.4-1.1 8.2-2 9.4-2.3 4.7 2.3 7.5 3.7 10.3 5 .9 16.9 1.8 33.9 2.7 50.8H496v-35c3-6.3 10.8-12.3 3-19.6-1.9-5-4.9-10-5.5-15.1-.8-7.8-.1-15.8-.1-23.9M688 249.4c8.1-4.1 7.4-9.8 2.3-14.1-2.4-2-12.4-2.5-14.1-.9-3.3 3.1-5.4 8.7-4 12.4 2.3 5.6 9.1 6.2 15.8 2.6m-169.7-12.9c.1.6.2 1.2.3 1.7-3.5 1.1-8.6 1.7-9.9 3.6-1.6 2.3.2 5.8.6 8.7 5.8-.4 11.7-.8 17.5-1.2-1.2-5.2-1.3-10.8-4.1-15.5-.8-1.4-9.3-.2-14.3-.2.1.9.2 1.9.3 2.8 3.1.1 6.3.1 9.6.1m147.2-8.3c-4.5 1.4-8.9 2.1-12.2 3.9-4.1 2.3-9.4 5.2-10.3 8.4-2.4 8.7 4.5 11.4 22.4 9.4.1-7.6.1-15.1.1-21.7m-124.1 8c1.6.1 3.2.2 4.8.2 1.7 4.6 3.3 9.2 5 13.8 2.4-6.4 7.4-13.6-3.2-17.2-4.2-1.5-14.9-.3-15.3 1-1.8 5.2-.7 11-.7 16.6 1.5 0 3 .1 4.5.1 1.5-4.9 3.2-9.7 4.9-14.5m55.1 6.1c8.8 4.3 14.2 8.9 18.2 8.4 4.5-.6 11.2-6.2 10.8-9.1-.5-3.5-7.1-8.4-11.9-9-3.7-.5-8.8 4.7-17.1 9.7m-1.1-13.3c-2.5 0-5.1.1-7.6.1.6 6.3.9 12.6 2.2 18.8.3 1.4 4.2 2.4 5.4 3.1zm-29.2-.2c-1.4.1-2.7.1-4.1.2-6.2 8.3-2.7 19.2 4.1 20.5zM709 239.2c-.6-.2-1.2-.3-1.7-.5-.7.9-1.4 1.9-2.1 2.8.9.3 1.9.5 2.8.8.3-1.1.6-2.1 1-3.1" class="st13"/><path d="M496 286.4h1085.4c77.2.1 154.4.3 231.6.4-5.9.6-11.8 1.8-17.8 1.8-546.3.1-1092.7.1-1639 .1-6.7 0-13.3-.1-20-.2l.3-.1c5.1-.6 10.2-1.6 15.3-1.6 109-.1 218-.1 327-.1 5.7 0 11.5-.2 17.2-.3" class="st17"/><path d="M214.3 250.7c-2.5-5-5.1-10-8-15.8-2.6 5.7-4.9 10.8-7.2 15.8l-4.8.3c-2.9-7.7-5.8-15.4-8.7-23.2 1.5-.4 2.9-.7 4.4-1.1 1.9 4.3 3.9 8.6 6.7 14.7 3.2-6 5.7-10.7 9.7-18.3 4.1 7.4 6.6 12.1 10.2 18.6 2.7-6.1 4.6-10.4 6.5-14.8 1.4.3 2.8.5 4.2.8-2.7 7.6-5.5 15.3-8.2 22.9-1.6.2-3.2.1-4.8.1" class="st21"/><path d="M499.1 231.9c7.8 7.3 0 13.2-3 19.6l-9.9-9.3c-1.8 2.6-4 5.8-6.2 9.1-1.2.1-2.4.1-3.6.2-2.4-5.9-4.7-11.8-7.1-17.7 1.2-.3 2.5-.7 3.7-1 1.8 3.4 3.6 6.8 5.8 10.9 2.2-3.4 4.3-6.5 7.9-12 3.3 5.1 5.4 8.2 8.3 12.7 1.5-4.9 2.8-8.7 4.1-12.5m-226.8 4.8c-3.2-.3-6.4-.7-10.1-1.1.6-.9 1.2-2.3 1.7-2.3 4.4.3 11.6-.1 12.5 1.5 2.4 4.2 2.8 9.2 2.4 13.8-.1 1.1-6.6 2.8-9.8 2.5-3.6-.4-6.7-2.9-10.1-4.5 2.2-2.1 4-4.5 6.6-6.2 1.7-1.1 4.6-1.1 7-1.7 0-.7-.1-1.3-.2-2" class="st22"/><path d="M320 249.4c-2.5-3.1-7.3-6.4-7-9.3.4-2.9 5.5-5.9 9.4-8 3.4-1.8 7.9-2.5 13.4-4.2 0 5.9 1.4 12.7-.4 19.1-2 7.1-9.3 4.7-15.4 2.4 8.6 0 12.1-3.4 10-9.2-.6-1.7-4.7-2.7-7.3-4.1-1.2 3.8-2.5 7.7-3.6 11.5-.1.5.6 1.2.9 1.8" class="st21"/><path d="M248.7 249.9c-.2-3.1 0-6.3-.8-9.3-.4-1.6-2.6-2.9-3.9-4.4-2.1 1.4-5.2 2.6-6 4.3-1.3 3-1.1 6.3-4.1 9.4v-22.4c4.3 1.5 11.5 2.3 14 5.2 4 4.8 4.9 11 7.1 16.6-2.2.1-4.3.4-6.3.6" class="st22"/><path d="M402 233.6c-5.4 8.3-3.6 19.3-15.3 24.3-1.9-8.5-3.7-16.5-5.5-24.6.4-.3.9-.5 1.3-.8 2.8 3.7 5.5 7.4 8.7 11.5 2.6-3.9 5.2-7.8 7.8-11.6zm-55.4 2c3.8-.7 10.3-2.7 10.9-2 2.9 3.6 6.5 8.1 5.5 11.7-.7 2.5-8.6 5.9-12.6 5.5-3.9-.4-8.1-4.9-9.9-8.3-.9-1.4 3.9-4.5 6.1-6.9 0 2.2-.7 4.6.1 6.7.8 2.2 3 4.2 5 6 .2.2 4.5-1.2 4.9-2.2.9-2.6 2-6.2.3-7.9s-6.7-1.8-10.3-2.6" class="st21"/><path d="M436.2 233.2c.4 2.6.3 5.4 1.3 7.9.9 2.1 3.1 4 4.7 6 2-2.1 4.6-3.9 5.7-6.2s.8-5 1.1-7.5h4c-.4 5.5.1 11.2-1.9 16.3-.5 1.2-13 2-13.9.6-3.4-5-4.4-10.9-6.2-16.5 1.6-.2 3.4-.4 5.2-.6" class="st22"/><path d="M421.8 235.3c9 3.5 9.4 9.2 2.9 13.2-3.5 2.2-13.8 2.3-16.9.2-5.2-3.6-7.5-9.8 2.4-13.4l.8.6c-.1 1.3-.9 2.8-.2 3.8 1.8 3 4.2 5.8 6.4 8.7 1.7-3.3 3.5-6.5 4.9-9.8.3-.8-.5-1.9-.8-2.8z" class="st21"/><path d="M290.9 228.5c.7 7.2 1.3 14.4 2 21.5-8.7-2.4-11.7-13.1-2-21.5" class="st22"/><path d="M410.2 235.3c3.9-4.9 7.8-5 11.6 0l-.7.5h-10.2z" class="st21"/><path d="M136.2 288.4c6.7.1 13.3.2 20 .2 546.3 0 1092.7 0 1639-.1 5.9 0 11.8-1.2 17.8-1.8 1.9 0 3.8-.1 5.7-.1-4.1 3.1-7.5 7.8-12.4 8.9-10.8 2.5-22.4 4.6-33.7 4.6-530.9.2-1061.9.2-1592.8 0-15.8.1-33.2.4-43.6-11.7" class="st23"/><path d="M1581.4 286.4h-186.7l-2.7-93.6h186.7z" class="st19"/><path d="M1832 276.8c-1.8 1.3-3.6 2.7-5.3 4 1.7-1.3 3.5-2.6 5.3-4" class="st23"/><path d="M1064 286.4H890.7l-2.7-93.6h173.3c-.7 3.8-2.1 7.7-1.9 11.5 1.4 27.3 3.1 54.7 4.6 82.1" style="fill:#282638"/><path d="m1392 192.8 2.7 93.6h-173.3c.8-7.7 2.5-15.4 2.3-23.1-.4-23.5-1.5-47-2.3-70.5z" style="fill:#201e31"/><path d="m888 192.7 2.7 93.6H720c-.9-16.9-1.8-33.9-2.7-50.8v-42.8z" style="fill:#2c2a3c"/><path d="M1221.4 192.8c.8 23.5 1.9 47 2.3 70.5.1 7.7-1.5 15.4-2.3 23.1H1064c-1.6-27.4-3.2-54.8-4.6-82.1-.2-3.8 1.2-7.7 1.9-11.5z" class="st20"/><path d="M518.3 236.5h-9.7c-.1-.9-.2-1.9-.3-2.8 5 0 13.5-1.2 14.3.2 2.8 4.7 3 10.2 4.1 15.5-5.8.4-11.7.8-17.5 1.2-.3-3-2.1-6.5-.6-8.7 1.3-1.9 6.5-2.5 9.9-3.6 0-.6-.1-1.2-.2-1.8" class="st22"/><path d="M665.5 228.2v21.6c-17.9 2-24.8-.7-22.4-9.4.9-3.2 6.2-6.1 10.3-8.4 3.2-1.8 7.7-2.5 12.1-3.8m-2.7 13.2c-3.8-2.4-6.1-3.9-8.5-5.4-2.1 2-5.3 3.9-5.8 6.2-.3 1.4 3.3 3.4 5.2 5.1 2.6-1.7 5.2-3.4 9.1-5.9m-121.4-5.2c-1.7 4.8-3.4 9.7-5.1 14.5-1.5 0-3-.1-4.5-.1 0-5.6-1.1-11.3.7-16.6.5-1.3 11.1-2.5 15.3-1 10.6 3.6 5.6 10.8 3.2 17.2-1.7-4.6-3.3-9.2-5-13.8-1.5-.1-3-.2-4.6-.2" class="st11"/><path d="M596.5 242.3c8.3-5 13.3-10.2 17.1-9.7 4.8.6 11.4 5.5 11.9 9 .4 2.9-6.3 8.5-10.8 9.1-4 .6-9.3-4-18.2-8.4m25.3 1.3c1.3-1.5 2.6-3.1 3.8-4.6-3.7-1-7.5-2.8-11.1-2.7-2.2.1-6 3.2-6 4.9.1 2.1 2.9 4.9 5.6 5.8 1.5.6 5.1-2.2 7.7-3.4" class="st22"/><path d="M688 249.4c-6.7 3.6-13.6 3-15.8-2.6-1.4-3.7.7-9.2 4-12.4 1.7-1.6 11.7-1.1 14.1.9 5.1 4.3 5.7 10-2.3 14.1 0-1.9.6-4-.1-5.8-1-2.6-3.1-4.9-4.7-7.3-2.1.8-6.1 1.6-6.1 2.4 0 3 .5 6.3 2.5 8.7 1.1 1.4 5.5 1.3 8.4 2M595.4 229v22c-1.2-.6-5.1-1.6-5.4-3.1-1.3-6.2-1.6-12.5-2.2-18.8 2.5 0 5.1 0 7.6-.1m-29.2-.2v20.7c-6.8-1.4-10.2-12.3-4.1-20.5 1.4 0 2.8-.1 4.1-.2m151.1 1v5.8c-2.8-1.4-5.6-2.7-10.3-5-1.2.3-5 1.2-9.4 2.3 5.6-8.5 7.5-8.8 19.7-3.1m-8.3 9.4c-.3 1-.7 2.1-1 3.1-.9-.3-1.9-.5-2.8-.8.7-.9 1.4-1.9 2.1-2.8.5.1 1.1.3 1.7.5" class="st11"/><path d="M320 249.4c-.3-.6-1-1.3-.9-1.8 1.1-3.9 2.4-7.7 3.6-11.5 2.5 1.3 6.6 2.4 7.3 4.1 2.1 5.8-1.4 9.2-10 9.2m26.6-13.8c3.6.8 8.5.9 10.3 2.6 1.7 1.7.5 5.3-.3 7.9-.4 1-4.7 2.4-4.9 2.2-2-1.8-4.1-3.8-5-6-.8-2-.1-4.4-.1-6.7.1 0 0 0 0 0m64.3.2h10.2c.3.9 1.2 2 .8 2.8-1.4 3.3-3.2 6.5-4.9 9.8-2.2-2.9-4.6-5.7-6.4-8.7-.5-1.1.2-2.6.3-3.9" style="fill:#393648"/><path d="M662.8 241.4c-3.9 2.5-6.5 4.2-9.1 5.8-1.9-1.7-5.5-3.7-5.2-5.1.5-2.2 3.8-4.1 5.8-6.2 2.4 1.6 4.8 3.1 8.5 5.5m-41 2.2c-2.6 1.3-6.2 4-7.7 3.4-2.7-.9-5.5-3.8-5.6-5.8-.1-1.7 3.7-4.8 6-4.9 3.6-.1 7.4 1.7 11.1 2.7-1.2 1.5-2.5 3.1-3.8 4.6m66.2 5.8c-2.9-.6-7.3-.6-8.4-2-2-2.5-2.5-5.8-2.5-8.7 0-.8 4-1.6 6.1-2.4 1.6 2.4 3.6 4.8 4.7 7.3.7 1.7.1 3.8.1 5.8" class="st13"/></svg>