<?xml version="1.0" encoding="UTF-8"?>
<svg id="Ebene_1" xmlns="http://www.w3.org/2000/svg" version="1.1" viewBox="0 0 1920 1080">
  <!-- Generator: Adobe Illustrator 30.1.0, SVG Export Plug-In . SVG Version: 2.1.1 Build 136)  -->
  <defs>
    <style>
      .st0 {
        fill: #95c1dd;
      }

      .st1 {
        fill: #091e2c;
      }

      .st2 {
        fill: #061018;
      }

      .st3 {
        fill: #2a79ab;
      }

      .st4 {
        fill: #0c283a;
      }

      .st5 {
        fill: #5797bf;
      }

      .st6 {
        fill: #acd0e8;
      }

      .st7 {
        fill: #9ac5e0;
      }

      .st8 {
        fill: #07131c;
      }

      .st9 {
        fill: #1e72a7;
      }

      .st10 {
        fill: #050c12;
      }

      .st11 {
        fill: #07121a;
      }

      .st12 {
        fill: #65a1c7;
      }

      .st13 {
        fill: #4a8fba;
      }

      .st14 {
        fill: #b7d8ed;
      }

      .st15 {
        fill: #060f16;
      }

      .st16 {
        fill: #438ab7;
      }

      .st17 {
        fill: #77acce;
      }

      .st18 {
        fill: #04080b;
      }

      .st19 {
        fill: #081924;
      }

      .st20 {
        fill: #8cbad7;
      }

      .st21 {
        fill: #f5f7f9;
      }

      .st22 {
        fill: #061119;
      }

      .st23 {
        fill: #071620;
      }

      .st24 {
        fill: #c4e1f3;
      }

      .st25 {
        fill: #3782b0;
      }

      .st26 {
        fill: #889a9d;
      }

      .st27 {
        fill: #0a1f2d;
      }

      .st28 {
        fill: #0a2232;
      }
    </style>
  </defs>
  <path class="st18" d="M0,490.73V0h1920v420.63c-2.28-.62-5.6-2.43-7.61-4.64l-60.52-66.32c-15.24-16.7-29.48-33.11-45.25-49-9.93-10.01-22.34-16.29-34-23.02l-18.67-10.79c-9.85-5.69-17.36-15.11-26.76-21.5-17.67-12.01-36.66-20.88-55.47-30.93l-52.31-27.95c-13.19-7.05-27.87-12.7-41.94-16.59-13.06-3.61-26.51-4.05-39.49-5.48l-18.16-2-19.41-2.12c-18.28-1.99-48.85-20.13-96.58-25.09l-21.13-2.19-51.16-12.23c-4.28-1.02-11.31-2.48-15.26-2.56l-71.46-1.33c-9.09-.17-17.94,1.7-26.95.17-37.85-6.45-45.41-14.2-89.37-14.17l-317.47.22c-20.74.01-52.38,10.42-76.49,14.17-7.87,1.22-16.04-.62-23.83-.48l-73.39,1.41c-4.54.09-12.74,2.44-17.84,3.64l-48.11,11.35c-4.55,1.07-11.85,2.92-15.65,2.87l-28.31-.35c-1.14,2.43-2.55,5.63-2.81,7.4-10.97,1.44-22.01,5.23-33.46,9.69-30.26,11.77-59.65,22.64-91.98,27.76-17.06,2.7-44.94-1.68-57.76,5.03-18.04,9.45-35.32,17.94-52.24,28.76-15.1,9.66-28.33,20.42-45.34,26.26-9.22,3.16-16.74,9.64-23.98,16.4-24.87,23.21-59.27,36.38-70.03,47.98l-49.08,52.9c-14.9,21.97-12.93,9.05-26.2,35.51l-15.67,31.24c-7.3,14.56-16.11,27.11-27.21,38.51l-22.06,22.65c-2.77,2.84-6.38,4.77-9.63,4.91Z"/>
  <path class="st19" d="M834.13,362.79c10.21,2.45,11.37,18.24,7.08,27.01-6,12.28-17.28,14.89-31.18,13.04l-5.13,26.2c30.12,2.27,59.03-8.84,68.69-38.87l6.38.09,5.29,82.74,20.05-.23,16.44.41,31.43-75.68,4.2,75.92,21.52-.73,15.03.03c12.16-29.12,23.32-57.12,36.31-84.28,3.04.97,6.34,1.74,9.47,2.19l-14.2,82.66,28.2-.04,12.11-65.77c2.47-13.39,14.38-21.93,27.38-20.67,4.95,2.35,8.23,10.75,7.14,16.85l-12.46,69.5,28.45.13,14.11-79.1,10.64,2.21c-6.18,11.43-7.17,29.01-6.54,41.7,1.18,24.08,17.95,37.27,38.84,38.36,24.16,1.27,47.87-11.23,57.01-38.07l-28.85-.34c-4.6,9.5-13.44,15-24.43,14.21-11.37-.81-15.95-15.81-12.7-26.52l23.22-.63,44.62.51,2.49-15.73,4.89.16c-1.67,13.12-3.49,27.08-.32,40.22,5.3,21.93,25.61,31.06,43.35,22.92l13.16-6.04,2.51,6.39,26.97-.24c2.35-21.7,8.81-41.7,12.01-61.66l5.06,10.61,34.85,11.05c10.11,3.2,18.2,13.91,27,20.5,22.94,17.17,45.56,33.03,69.59,48.81,19.27,12.66,34.07,30.52,51.62,46.09,1.13,1,18.75,11.54,27.59,25.95l26.31,42.91c9.2,15.01,17.07,29.81,27.31,44.11,4.62,6.45,10.87,13.95,13.34,21.81l33.49,106.85,12.54,38.69c9.08,28.02,14.98,39.2,12.07,69.16-1.26,12.98-2.71,25.61,1.08,38.11l17.28,56.92-.19,74.94c0,2.91-2.44,9.46-2.69,11.9h-177.21l-.51-94.45c-.07-13.44-4.6-27.01-5.63-40.45l-2.85-37.14-2.48-28.92c-2.44-28.46-17.59-52.88-29.1-77.66-2.81-6.04-4.53-12.75-9.35-14.8,4.07-3.98,7.79-8.61,10.61-13.56.58-.17,1.92-.56,2.63-.64.99-.11.4-2.92.34-3.98-1.03-16.59-1.06-49.92,0-66.51l.2-3.21c.07-1.06-2.22-1.2-3.17-1.41-3.66-6.9-11.2-17.11-19.72-17.26l-49.52-.86c.49-.92-.04-6.48-1.33-7.87l-42.72-45.86c-16.12-12.55-30.21-24.51-46.73-34.88l-32.75-20.57-.09-13.54,2.93-4.82c5.34-8.77,1.24,14.56,8.63,18.25,9.14,4.56,18.07-6.03,14.59-6.49-9.22-1.21-8.77,6.73-10.77,3.18l-3.3-5.84,14.93-.62c.18-5.44-1.69-9.92-5.82-11.67-4.9-2.08-10.09-1.74-13.15,3.62-.42-.73-3.33-5-4.99-4.79-1.94.25-4.94.95-8,1.71-.14.15-1.53,2.53-1.9,3.24l-2.08,10.03c.38-3.31-.48-10.23-3.2-12.34-2.37-1.84-7.38-2.18-10.96-2.37l-1.17-6.44c-.14-.75-3.77-.43-3.89.35-.35,2.41-1.03,7.2-.96,9.45-3.42.27-8.83.55-11.82-.61l-9.03-3.5c-.57-1.91-3.02-4.7-5.21-5.71l-55.62-25.68c-9.38-4.33-20.02-10.59-30.34-10.88l-28.35-.8c3.83.11-47.48-4.02-47.07-3.97-9.7-1.07-18.92-2.79-28.89-4.9l-123.6.26c-7.62.02-16.42,3.19-23.96,4.06-2.9.33-52.59,4.58-51.95,4.56l-28.33.8c-10.83.31-21.79,7-31.53,11.57l-43.13,20.23c-4.46,2.09-10.36,2.87-14.78,3.22-3.35.27-6.66,1.98-7.05,5.32l-1.79,1.93h-1.95l-.67-5.52c-.19-1.59-5.57-1.31-5.67.34l-.81,13.05-12.62,9.21-5.58-5.14,7.86-10.85-11.08,6.57c-.43-5.35,3.3-12.49-4.62-15.08l-.63,30.73c-1.77.68-3.94.56-5.58-.48l2.03-7.49-9.32,4.89c-3.82-3.67-3.92-9.81-1.98-16l12.69,5.69c-1.13-5.31-5.18-9.18-9.6-9.02-5.56.2-10,4.35-9.97,10.62.01,2.82.81,8.6,2.5,9.82,1.97,1.42,5.72,2.74,8.41,3.4-.77,7.01-22.79,20.32-34.86,32.28-14.62,14.48-28.37,29.46-41.97,45.23l-18.17,21.05c-2.21,2.57-4.07,5.41-4.88,8.1l-64.75.49c-8.42.06-21.32,13.21-21.92,22.73-1.46,23.17-1.21,44.43-.24,67.54.34,8.04,9.66,14.83,13.66,20.33-.7.2-3.37,2.8-3.79,4.1l-17.41,54.84-11.99,40.79c-4.47,15.19-10.02,29.11-13.87,44.58l.18,146.45h-137.06l.68-78.62c.14-15.91,4.7-31.24,6.24-46.93l1.53-15.66,1.31-64.96c14.65-38.08,29.86-64.71,42.05-104.87,8.74-28.82,21.25-54.4,38.96-77.91,3.82-5.07,6.77-12.87,9.16-19.01,5.41-13.9,11.52-26.63,18.57-39.81,7.9-14.75,20.29-25.13,31.8-37.25l29.64-31.23c1.01-1.06,2.46-6.57,1.08-6.8l-6.24-1.03c-2.38-.39-5.44-1.19-6.98-2.03-1.22-.68,2.01-5.29,3.57-6.32l36.99-24.48c14.72-9.74,26.97-20.19,39.28-32.94l22.22-23.02,64.12-12.99-2.51,18.97,29.3.25,6.7-32.83,21.6-7.16c.73-.24,2.56-4.16,2.2-3.8,2.78.17,18.92.46,19.13-6.69l7.52.35c-.31,1.37.83,5.71,2.05,5.7l27.02-.19,4.8-19.25,7.4.3-10.35,63.22,29.7.3,20.02-111.02c10.17.35,19.28-1.27,26.58.48ZM625.16,563.17c0,2.79-.43,6.91.74,6.77l4.66-.55c-.03-4.64-.21-13.31-.74-18.44-.33-3.17-9.06-3.38-11.12-2.7l-1.87-6.91c-.33-1.21-.83-.74-4.27-.07l.44,26.15c.02,1.21,4.46,2.86,4.59,2.29l.94-18.01c4.39,1.15,6.66,1.76,6.66,3.45l-.03,8.02ZM595.8,545.92c8.16-.29,2.47,2.98,11.92,4.4.94.14,1.16-3.12.42-3.78l-2.62-2.29c-2.88-2.52-10.08-3.78-14.13-1.92-3.74,1.72-5.7,8.38-6.06,14.32s3.55,11.23,8.22,13.68c6.52,3.41,19.01-6.19,15.14-7.01-8.57-1.8-8.66,7.08-14.07,2.52-6.95-5.87-2.5-19.79,1.18-19.92ZM1372.86,571.18l2.41-16.28c.36-2.4-3.33-7.27-5.28-7.08l-7.07.69-4.96-8.91c-.67,12.85-.82,20.29.7,32.07,2.19-5.6,2.44-11.68,2.97-16.8.2-1.96,5.97-3.64,6.63-1.76,4.41,12.51-1.56,14.79,4.59,18.07ZM640.88,566.18l-3.25-5.54,16.37-.58c-1.07-5.31-3.51-11.27-7.19-12.2-5.06-1.28-10.69-.05-12.52,4.02s-2.02,10-.05,14.48c2.86,6.5,12.66,4.83,17.18,1.7,3.53-12.84-8.24,2.01-10.53-1.88ZM1318.8,570.77l13.85-1.1-.86-15.04c-.2-3.49-6.24-8.43-9.22-8.02-3.71.51-7.1,3.62-10.87,8.02l6.04,2.48c-2.89,2.31-5.29,5.14-5.47,7.81-.16,2.26,4.28,6.04,6.53,5.86ZM1344.69,566.15c-2.11,1.56-5.8-5.84-5.04-8.42.68-2.29,4.45-7.71,5.91-6.01l3.92,4.58c.63.74,4.04-1.6,3.79-2.58-1.06-4.28-9.66-7.72-13.44-5.49-5.73,3.38-6.75,9.98-4.4,17.13,1.22,3.72,6.27,6.75,9.88,5.71,2.49-.71,6.98-4.05,8.25-6.48.47-.89-3.13-2.7-3.91-2.12l-4.98,3.68Z"/>
  <path class="st10" d="M1920,420.63v325.13c-3.58.27-5.42-1.88-6.47-5.95-4.35-16.93-12.08-31.66-18.52-47.61-2.8-6.92-5.2-13.82-8.25-20.44l-24.41-53.01-6.4-23.12c-2.99-10.8-15.09-30.32-22.48-46.21l-35.72-76.79c-6.71-14.43-12.82-30.65-24.7-41.28-18.23-16.31-35.86-31.49-48.39-53.65-17.09-12.16-56.29-37.61-73.3-45.21l-44.29-19.79c-12.63-5.64-23.98-15-36.02-22.3-15.63-9.48-31.31-17.7-47.61-26.01-17.55-8.96-34.86-14.67-54.19-16.64-5.89-.6-11.75-2.5-15.7-5.81l6.52-45.31c1.7-11.83-2.84-25.43-12.21-31.19-13.67-8.41-29.79-5.12-42.8,5.69l-2.97-7.04-26.53.27-14.44,77.22-8.85-2.17c-.68-.65-4.11-2.74-5.62-2.75l-19.61-.09-5.35-11.61,32.73-.51c3.22-11.58,3.15-25.38-.28-37.2-4.89-16.86-17.89-23.7-32.03-25.69-28.42-4.01-53.12,16.08-62.78,45.32l-5.51-.24-2.05-14.63c-2.66-19.04-16.91-28.48-33.34-30.43-21.34-2.54-42.69,8.11-55.63,27.92l-14.1-5.73c2.57-11.15,3.71-23.02-3.68-33.74-5.11-7.42-15.64-13.08-26.98-13.61-19.09-.9-38.18-.81-58.19-.54l-12.8,63.67-16.47-1.43c-9.89-.86-19.07-.55-27.7-3.1l9.97-59.2-29.74.15-12.3,66.98h-41.93c-1.39-19.67-10.31-35.15-28.65-39.86-23.65-6.07-47.39,3.37-62,27.69-3.16,5.25-5.47,13.52-9.05,20.44l-9.5-2.55,20.64-43.99-29.52-.5-28.71,63.72-8.56,16.08-8.33-79.53-29.93-.21,4.04,28.42c1.03,7.27.99,17.19,2.35,23.54l-16.18,2.12c4.12-20.03,6-45.8-17.65-54.32-27.14-9.77-64.2,2.97-69.16,35.69l27.06-.08c5.92-9.42,11.42-14.61,22.46-13.48,3.26.33,9.13,3.52,10.34,6.51,1.78,4.38.23,10.55-1.7,14.16-24-.73-45.27,2.32-64.23,19-3.62-3.68-6.27,3.7-12.82.38l15.56-89.92-29.44-.43-9.67,53.37-49.66.39,9.18-53.49c3.8.05,11.1-1.8,15.65-2.87l48.11-11.35c5.1-1.2,13.3-3.55,17.84-3.64l73.39-1.41c7.79-.15,15.96,1.7,23.83.48,24.11-3.75,55.75-14.15,76.49-14.17l317.47-.22c43.95-.03,51.51,7.72,89.37,14.17,9.01,1.53,17.87-.34,26.95-.17l71.46,1.33c3.96.07,10.98,1.53,15.26,2.56l51.16,12.23,21.13,2.19c47.73,4.95,78.3,23.09,96.58,25.09l19.41,2.12,18.16,2c12.98,1.43,26.43,1.87,39.49,5.48,14.06,3.89,28.75,9.54,41.94,16.59l52.31,27.95c18.81,10.05,37.8,18.92,55.47,30.93,9.4,6.39,16.91,15.81,26.76,21.5l18.67,10.79c11.66,6.74,24.07,13.02,34,23.02,15.77,15.89,30.01,32.3,45.25,49l60.52,66.32c2.02,2.21,5.33,4.02,7.61,4.64Z"/>
  <path class="st4" d="M1096.8,853.41c-2.36,1.08-5.31,2.77-6.64,4.56-1.55,2.09-.75,9.51,1.32,10.98,1.62,1.15,7.89,1.69,8.82-.12,1.12-2.17,1.65-6.06,1.69-9.08,3.42-.21,5.41-3.17,8.94-8.69,3.13,5.44,5.42,13.86,6.39,21.32l53.37,58.15c3.76,4.1,3.99,12.28,4,17.97l.14,48.36,18.41,19.66c3.93,4.2,11.85,12.71,11.99,18.65l1.07,44.83h-434.35c.52-5.87,1.12-12.58,1.1-19.32l-.26-87.18c-.04-12.06-4.75-27.05.16-38.62,12.43-14.99,25.71-29.05,39.31-42.75,4.15-4.18,16.54-16.24,16.28-22.38,2.73-1.54,6.67-.86,10.92-.81l12.53.15c1.45.02,5.66,1.75,6.02.5l1.69-5.97c.57-2-.24-6.52-1.54-8.08-3.82-4.58-11.08,2.67-12.07,1.44l-2.51-3.1c8.71.15,9.29-12.11,23.22-17.07,37.66-13.43,51.35-2.44,84.35-31.12l77.58-.11,41.7,22.4c10.88,5.84,21.81,14.01,26.38,25.42ZM917.71,858.51l6.14-2.19c-2.16-.55-5.35-1.27-7.38-1.6-1.62-.26-3.73,4.48-4.7,6.87l-5.24-7.64-3.9,8.01c-3.55-8.22-10.89-13.89-20.38-11.61l.33,19.84,9.82-8.92c2.27-.66,3.95-1.65,4.29-.7l1.31,3.65c.58,1.6,3.58,6.67,4.58,5.35l4.16-5.53c.53,1.28,3.92,7.01,4.87,5.54,5.87-9.07,2.77-9.88,6.12-11.07ZM946.73,868.78l12.6.81-.25-20.5-13.52,9.98c-1.16-2.57-5.68-5.95-8.61-5.12-3.67,1.05-5.59,7.24-4.48,11.84,1.65,6.83,9.46,2.68,14.27,2.99ZM1028.09,854.84l-8.02-4.57.04,18.84c6.44,2.55,12.22-.07,13.14-4.72.57-2.87-2.13-7.81-5.17-9.54ZM982.1,860.45l2.01-3.7c.45-.82-2.84-2.91-3.67-2.91-1.87,0-6.72,1.18-6.7,2.96l.07,6.77c.03,2.55.77,5.38,2.36,6.27s8.08.6,7.83-1.32-1.15-5.33-1.89-8.07ZM995.15,857.9l7.12,1.09c-.31-2.88-4.49-5.69-7.73-4.77-2,.57-3.38,4.94-3.17,8.17.28,4.5,2.05,7.37,4.52,7.99,3.21.82,10.07-4.01,7.81-5.78l-8.54-6.71ZM1016.37,854.02c-2.29,7.69-2.42,10.28-5.61,15.13l-4.03-16.45-.21,16.04c3.49.23,9.18.31,11.8.17-.39-6.97-1.03-12.42-1.94-14.88ZM1059.75,866.44c-1.17.27-3.1-4.12-2.51-5.36s2.63-3.63,3.81-3.08l6.69,3.11c-.37-1.92-3.59-7.18-6.1-7.06-2.2.11-6.49,3.17-8.63,5.01-1.39-2.34-6.12-5.94-8.92-5.15-3.66,1.02-5.66,7.33-4.48,11.93,1.76,6.88,9.53,2.84,14.07,2.57,4.56-.28,10.83,5.23,12.52-3.43l-6.45,1.47Z"/>
  <path class="st11" d="M1153.13,236.08c.79,22.36,18.28,39.57,39.82,39.16,10.03-.19,21.75-.89,32.4-6.71-4.72,5.61,38.9,14.22,41.66,14.64,27.75,4.15,54.36,8.31,81.35,16.45,9.26,2.79,18.61,3.24,28.16,5.25,7.91,1.66,16.36,6.65,24.24,9.38,16.16,5.59,31.05,11.77,45.99,20.17,10.98,6.18,22.54,10.06,34.05,15.06l33.02,14.33c10.97,4.76,39.2-.19,45.58,31.51,14.27,15.44,33.26,24.31,50.58,34.24,5.42,13.58,33.43,42.69,43.72,51.58,8.83,7.63,14.66,13.95,21.5,23.18,11.86,16.02,26.61,29.21,39.49,44.28,5.01,5.86,7.19,12.49,10.32,19.52l27.12,60.95,12.28,29.63c3.6,8.68,9.09,15.63,13.82,23.8,3.97,6.85,3.01,18.44,5.61,26.71l28.08,89.18c19.91-1.66,21.94,32.96,20.7,41.74-2.73,19.45,4.46,36.03,4.53,54.65l.69,185.21h-33.93l-.23-77.39c-.05-16.53-8.87-32.2-10.27-48.14-1.93-21.93-4.91-41.76-12.63-62.2-11.09-29.38-1.74-64.19-6.79-84.09s-13.71-40.1-20.39-60.32c-5.74-17.34-21.9-49.09-34.75-63.37l-1.58-36.13c-.61-14-3.11-28.75-12.06-39.09-14.86-17.17-31.01-32.25-44.78-50.16-1.14-6.7-2.48-16.46-7.88-22.29l-24.33-26.27-20.78-15.93-14.11-21.48c-11.61-17.67-37.49-37.25-55.66-47.86-16.03-9.37-30.02-22.46-46.53-30.46-22.4-10.86-45.72-17.16-67.2-29.81-26.85-15.81-44.09-26.37-73.04-32.73.08-.75-2.86-4.02-4.42-4l-24.43.25c-6.96-5.57-114.4-35.97-116.23-36.1l-30.6-2.14-46.22-1.12-19.9-1.77-19.75-1.5-48.73-4.96c-42.36-4.31-84.94-4.31-127.3,0l-48.73,4.95-19.75,1.49-19.89,1.87c-16.44,1.54-33.07,2.32-49.35,1.67l-21.67-.86-50.18,15.22c-11.72,3.55-23.31,6.98-35.12,10.52l-43.3,12.98c-12.45,3.73-24.78,6.67-37.62,9.38-15.04,3.18-32.57,16.64-45.1,22.13-28.89,12.65-56.02,25.15-82.77,42.39-32.88,21.19-53.02,24.17-85.24,53.03-11.8,10.57-17.88,26.72-28.46,38.56-9.82,10.99-24.7,16.79-33.89,28.83-2.69,3.52-23.25,32.76-23.35,32.97l-67.05,145.4c-7.55,16.37-14.92,31.92-21.06,48.53-5.49,14.84-10.29,28.2-16.8,42.73-4.29,9.59-8.86,32.98-8.86,42.18l-.09,245.1h-46.44c.73-7.6-4.47-13.78-7.56-21.1-4.43-10.48,1.58-23.96,1.7-35.09.52-47.34,16.52-37.26,17.56-91.56l1.57-81.68,1.95-19.29,1.39-19.51c.49-6.85,5.3-14.71,9-20.84,12.79-21.17,21.42-48.2,28.74-71.7,9.77-31.36,18.52-49.01,26.96-80.15,2.91-10.75,16.66-36.32,22.53-45.76l17.93-28.8c.97-1.56,2.5-7.16,1.25-8.42l-5.61-5.67c9.36-9.37,18.6-18.56,26.94-29.25,6.68-8.57,12.12-19.05,19.76-26.46l27.51-26.7,28.34-33c.89-1.04,82.85-57.48,91.63-63.24,5.82-3.82,14.69-7.14,21.19-9.76,19.32-7.78,36.76-16.27,55.44-25.51,17.88-8.84,35.89-15.93,54.44-23.88,15.03-6.45,32.23-5.83,47.91-9.4l43.36-9.87c16.32-3.72,32.19-6.69,48.41-11.25l25.64-7.2c3.66-1.03,10.11-7.01,13.78-4.83,5.89,3.5,18.62,2.35,24.92,1.86,2.31-.18,8.01,1.04,10.03-.18s4.69-4.63,5.69-7.15c2.86,6.72,8.25-.68,28.75.09,6.32.24,11.55-.91,16.15-3.87,9.63,11.94,24.35,15.43,39.14,14.37,18.82-1.35,35.78-11.39,46.61-29.83-.75-.05,2.97,3.17,4.09,3.14l37.12-.93c-1.35,7.6-2.22,15.47-4.85,24.68l29.96.29c1.02-3.17,2.7-7.87,3.35-11.74,1.9.55,6.47,1.87,8.52,1.88l36.2.2c-.66,1.97-.28,5.8-.31,9.75l50.01-.91c13.68-.25,27.4.54,40.64-7.79,9.45-5.94,17.79-15.34,20.75-28.38l5.99.51Z"/>
  <path class="st8" d="M1803.91,1080h-110.34c.25-2.44,2.68-9,2.69-11.9l.19-74.94-17.28-56.92c-3.8-12.51-2.34-25.13-1.08-38.11,2.91-29.96-2.99-41.14-12.07-69.16l-12.54-38.69-33.49-106.85c-2.46-7.86-8.72-15.37-13.34-21.81-10.24-14.3-18.1-29.09-27.31-44.11l-26.31-42.91c-8.84-14.42-26.46-24.95-27.59-25.95-17.55-15.57-32.35-33.44-51.62-46.09-24.03-15.78-46.65-31.64-69.59-48.81-8.81-6.59-16.89-17.29-27-20.5l-34.85-11.05-5.06-10.61c4.22-26.35,7.5-53.2,13.58-79.3,28.96,6.37,46.19,16.93,73.04,32.73,21.48,12.64,44.8,18.95,67.2,29.81,16.51,8,30.5,21.09,46.53,30.46,18.17,10.62,44.06,30.19,55.66,47.86l14.11,21.48,20.78,15.93,24.33,26.27c5.4,5.83,6.73,15.59,7.88,22.29,13.77,17.92,29.91,32.99,44.78,50.16,8.95,10.34,11.45,25.08,12.06,39.09l1.58,36.13c12.86,14.28,29.02,46.02,34.75,63.37,6.69,20.21,15.14,39.61,20.39,60.32s-4.3,54.71,6.79,84.09c7.72,20.44,10.7,40.26,12.63,62.2,1.4,15.94,10.22,31.61,10.27,48.14l.23,77.39Z"/>
  <path class="st10" d="M524.62,143.14c-3.79,25.3-15.34,73.25-18.77,100.51l-14.6,1.48c-12.48,1.26-24.26,4.19-36.64,6.62-13.68,13.68-30.93,20-48.75,29.06-11.68,5.93-22.94,13.31-35.01,17.94-7.91,3.03-14.76,5.95-21.33,11.55-21.27,8.58-41.43,18.74-62.15,29.27-24.15,12.27-43.66,23.99-63.91,43.67-7.42,18.83-21.48,29.77-36.43,41.18-4.61,3.52-9.51,9.89-13.63,14.35-6.51,7.04-8.22,15.54-10.3,25.06s-8.55,18.46-12.39,27.58c-8.14,19.33-16.51,37.37-28.75,54.03-8.19,11.14-11.58,23.45-16.21,36.62-9.41,26.75-18.21,53.43-31.2,78.18-7.1,13.52-17.88,23.97-17.48,41.35,1.59,70.4-30.31,62.18-26.89,125.43,1.41,26.03-1.79,52.9-13.9,75.54-4.37,8.18-10.88,15.2-10.89,25.94l-.03,151.51H0V490.73c3.25-.14,6.86-2.07,9.63-4.91l22.06-22.65c11.1-11.4,19.9-23.95,27.21-38.51l15.67-31.24c13.27-26.46,11.31-13.54,26.2-35.51l49.08-52.9c10.76-11.6,45.15-24.77,70.03-47.98,7.24-6.75,14.76-13.23,23.98-16.4,17.01-5.84,30.24-16.6,45.34-26.26,16.92-10.82,34.2-19.31,52.24-28.76,12.82-6.72,40.7-2.33,57.76-5.03,32.33-5.12,61.72-15.99,91.98-27.76,11.44-4.45,22.49-8.24,33.46-9.69Z"/>
  <path class="st28" d="M1141.28,792.13c-.13,1.9,2.75,5.29,4.99,6.18,27.18,10.84,45.49,31.25,60.6,55.96-1.31,4.85-2.39,13.34,2.28,15.14v1.93h-41.08v-1.93c2.55-1.5,4.56-2.04,7.95-2.1l2.77-7.56-.14-4.96c-.04-1.3-2.71.22-3.4,1.25l-2.07,3.07c-.59.87-2.39-2.44-3.67-3.84-1.99-2.18-8.88-.72-9.93,2.24-1.21,3.41-.7,10.78,3.12,11.9v1.93l-5.63-.51-.42-3.35c-.14-1.16-3.86-1.78-3.66-.64l.78,4.5-3.65,1.6,71.52,1.14c.54,3.14,1.53,8.12,3.07,11.47l41.34,90.13c9.61,20.96,2.71,40.95,7.37,60.13l-.31,44.18h-66.8l-1.07-44.83c-.14-5.94-8.06-14.45-11.99-18.65l-18.41-19.66-.14-48.36c-.02-5.69-.24-13.87-4-17.97l-53.37-58.15c-.97-7.46-3.26-15.88-6.39-21.32-3.53,5.52-5.52,8.48-8.94,8.69.03-2.58-2.86-5.46-5.19-6.34-4.57-11.41-15.5-19.58-26.38-25.42l-41.7-22.4-77.58.11c-33,28.69-46.69,17.69-84.35,31.12-13.92,4.97-14.51,17.22-23.22,17.07-5.25-.09-9.46,1.85-12.68,6.71l-2.02-1.64c-.46-.37,1.43-3.45,1.23-4.03-1.21-3.49-8.01-5.5-12.08-4.85-2.82,5.13-2.82,14.19,0,19.32l10.53.35c.26,6.13-12.13,18.2-16.28,22.38-13.6,13.7-26.87,27.76-39.31,42.75-4.91,11.56-.19,26.55-.16,38.62l.26,87.18c.02,6.74-.57,13.44-1.1,19.32h-170.53l-.57-153.38c7.07-25.72,14.8-51.38,23.68-77.45,5.16-15.14,22.22-41.56,26.96-56.5l489.78-.55ZM699.56,858.38c-4.35-4.14-9.03-3.94-13.37-3.07l-5.11-5.82-.72,13.88c-.29,1.41-3.42,5.22-4.18,4.07l-2.72-4.11c-.39-4.54-.88-9.73-1.83-14.78-2.01,6.68-2.08,14.47-.99,18.89,4.67,6.71,10.82-.85,14.33-.05,3.1.7,9.74,4.44,12.75,1.38,1.32-1.34.37-6.78-1.34-7.43l-7.19-2.73,10.36-.23ZM755.31,857.16c-.27-1.8-1.68-6.67-2.1-7.1l-2.33,7.34c-.5,1.57-6.24,1.52-6.78-.03l-2.6-7.47-.05,19.66c1.68-3.97,2.16-7.18,3.83-7.96,1.34-.63,5.38-.12,5.92,1.33l3.1,8.34,1-14.1ZM1154.34,851.27l-4.39,3.23,3.08,4.9,4.39-3.23-3.08-4.9ZM715.09,866.94c.2.88,1.08,3.41,1.37,2.68,1.93-4.93,2.71-11.33-.25-14.41-1.62-1.68-8.17-1.39-9.58.5-2.05,2.76-1.74,10.65.74,14.85,2.41-3.85,3.1-6.92,5.43-13.53l2.29,9.9ZM731.78,876.27l.93-20.89c-2.23-.38-6.91-.73-9.14-.6-1.79.1-4.25,4.95-3.91,6.88l2.02,11.41c3.12-2.08,5.58-3.72,5.3-3.53l4.8,6.74ZM797.68,867.11c.12-3.12.14-7.58-.18-9.66-.62-3.99-15.51-5.14-16.92-1.31l-2.7,7.33-3.14-7.91c-.52-1.31-2.82.59-4.34,1.16-1.54-.95-6.22-3.57-7.67-2.41l-4.27,3.41c1.21.91,3.95,3.03,4.01,3.04s-3.46,2.04-4.36,2.58c-1.35.81.17,5.55,1.58,6.25,4.07,2.03,11.15-.26,11.4-1.48l1.32-6.53,2.97,6.83c.59,1.35,4.66,1.53,5.16.13l2.37-6.58c1.73,2.81,3.91,6.05,5.95,7.66,1.75,1.39,8.73-.2,8.81-2.52ZM1118.12,854.74c-1.09.24,1.44,3.75,2.46,3.35l2.85-1.13c.67-.26-.35-3.33-1.04-3.17l-4.26.95ZM1132.35,857.82l-7.5-1.63,1.9,12.91,5.12-2.13c2.28,2.17,8.36,3.7,11.21,1.94s2.35-9.28-.46-13.15c-1.98-2.74-7.6-1.37-10.28,2.07ZM1196.05,860.5l6.73-5.53-21.61-.71,4.24,15.92,3.71-4.65c.4-.51,1.11.47,1.56,1l3.26,3.79c.71-1.77.53-8.54,2.09-9.82ZM726.92,876.17c0-.53-.4-.97-.89-.97s-.89.43-.89.97.4.97.89.97.89-.43.89-.97Z"/>
  <path class="st15" d="M593.1,273.07c.34.41-2.06,3.75-3.92,4.25l-71.64,19.35c-17.87,9.14-33.02,20.2-51.03,28.12-20.44,8.99-41.46,14.73-60.29,27.82l-60.64,42.16c-16.69,11.6-34.59,19.34-48.64,34.62l-73.01,79.45c-10.45,11.38-17.44,28.09-24.86,41.09l4.18,6.05c1.01,1.47-.54,6.22-1.68,7.82-15.75,22.02-24.1,47.49-32.66,73.31-8.68,26.19-33.83,69.56-45.87,100.47-5.4,13.87-22.36,61.31-22.52,73.9l-.83,67.56c-.05,4.12-1.01,11.11-1.83,15.18-5.67,28.21-7.04,54.56-7.35,83.38-.08,7.35-2.8,16.97-3.53,24.39l-1.22,12.39c-3.47,35.19-5.04,27.03-1.81,65.61H5.36l.03-151.51c0-10.74,6.51-17.77,10.89-25.94,12.11-22.63,15.3-49.5,13.9-75.54-3.42-63.25,28.49-55.03,26.89-125.43-.39-17.38,10.38-27.83,17.48-41.35,12.99-24.75,21.79-51.43,31.2-78.18,4.63-13.17,8.02-25.48,16.21-36.62,12.24-16.66,20.61-34.7,28.75-54.03,3.84-9.12,10.27-17.87,12.39-27.58s3.79-18.02,10.3-25.06c4.12-4.46,9.02-10.83,13.63-14.35,14.95-11.42,29.01-22.35,36.43-41.18,20.25-19.68,39.76-31.4,63.91-43.67,20.72-10.53,40.88-20.69,62.15-29.27,6.56-5.61,13.42-8.52,21.33-11.55,12.07-4.63,23.33-12,35.01-17.94,17.82-9.05,35.07-15.38,48.75-29.06,12.37-2.43,24.16-5.36,36.64-6.62l14.6-1.48-3.59,28.54,29.13.36,10.54-56.87,49.56-.26-10.16,56.36c5.04.66,9.12,1.43,11.76,1.29Z"/>
  <path class="st8" d="M1322.04,328.53c-1.46,11.61-3.89,23.19-6.11,34.69-4.8-.43-7.04.16-8.21,4.21-5.49-4.89-17.68-8.23-25.17-5.88,3.81-7.79-37.08-13.52-42.46-14.59l-61.55-12.28c-5.96-1.19-13.2-1.55-19.3-1.9l-28.73-1.67c-18.09-1.05-35.71-.6-53.67-5.64l-38.76-10.89-120.29.2c-14.65.02-32.92,13.64-74.63,15.56l-30.7,1.41-19.21.68c-.97.03-2.27,3.43-2.03,3.85l-8.5.12c-1.27-.91-5.34-2.64-7.38-2.22l-64.4,13.18c-12.86,2.63-24.35,4.72-36.67,9.14-7.33,2.63-16.56,7.44-23.78,6.9-9.24-.69-20.28-1.26-29.3-.84l-5.12,17.88c-19.08,5.46-37.84,12.95-56.92,21.62-17.37,7.89-29.11,24.34-45.71,33.82l-30.13,17.21c-21.77,12.43-43.35,22.86-64.32,37.07-10.44,7.08-18.39,19.12-26.45,29.21-17.66,22.1-11.52,12.52-31.9,33.84l13.44,4.98c-18.68,30.34-47.21,40.46-60.71,68.75-9.36,19.62-13.27,42.23-24.08,61.15l-21.02,36.8c-20.33,35.59-5.1,36.64-13.74,71.61-4.05,16.39-7.96,31.53-13.51,47.82-6.64,19.46-12.25,5.97-12.27,52.3l-.12,183.38h-53.58l.09-245.1c0-9.2,4.57-32.59,8.86-42.18,6.51-14.53,11.31-27.89,16.8-42.73,6.14-16.6,13.51-32.15,21.06-48.53l67.05-145.4c.1-.21,20.66-29.45,23.35-32.97,9.19-12.03,24.07-17.84,33.89-28.83,10.58-11.84,16.66-27.99,28.46-38.56,32.22-28.87,52.36-31.84,85.24-53.03,26.75-17.24,53.88-29.74,82.77-42.39,12.53-5.49,30.06-18.95,45.1-22.13,12.85-2.72,25.17-5.65,37.62-9.38l43.3-12.98c11.8-3.54,23.4-6.96,35.12-10.52l50.18-15.22,21.67.86c16.27.65,32.9-.12,49.35-1.67l19.89-1.87,19.75-1.49,48.73-4.95c42.36-4.3,84.94-4.31,127.3,0l48.73,4.96,19.75,1.5,19.9,1.77,46.22,1.12,30.6,2.14c1.82.13,109.27,30.53,116.23,36.1Z"/>
  <path class="st23" d="M782.72,336.42l-14.55,73.4-7.4-.3-1.88-6.24-27.49.34-4.5,19.64-7.52-.35,1.95-19.52-29.37.11-4.5,25.35,12.79.76c.37-.37-1.47,3.55-2.2,3.8l-21.6,7.16c-9.18-1.77-19.18-1.7-29.8-1.31-1.26,5.23-3.12,10.64-3.68,14.92l-64.12,12.99-22.22,23.02c-12.31,12.75-24.56,23.2-39.28,32.94l-36.99,24.48c-1.56,1.03-4.79,5.65-3.57,6.32,1.53.85,4.59,1.64,6.98,2.03l6.24,1.03c1.38.23-.07,5.74-1.08,6.8l-29.64,31.23c-11.5,12.12-23.89,22.5-31.8,37.25-7.06,13.18-13.16,25.91-18.57,39.81-2.39,6.14-5.34,13.94-9.16,19.01-17.71,23.51-30.22,49.08-38.96,77.91-12.18,40.16-27.4,66.79-42.05,104.87l-1.31,64.96-1.53,15.66c-1.54,15.69-6.1,31.01-6.24,46.93l-.68,78.62h-80.37l.12-183.38c.03-46.32,5.64-32.84,12.27-52.3,5.55-16.29,9.46-31.42,13.51-47.82,8.64-34.96-6.59-36.02,13.74-71.61l21.02-36.8c10.81-18.92,14.71-41.53,24.08-61.15,13.5-28.29,42.03-38.41,60.71-68.75l-13.44-4.98c20.38-21.32,14.24-11.74,31.9-33.84,8.06-10.09,16.01-22.14,26.45-29.21,20.97-14.21,42.55-24.64,64.32-37.07l30.13-17.21c16.6-9.48,28.34-25.92,45.71-33.82,19.08-8.67,37.84-16.16,56.92-21.62l-6.67,48.25,29.37.33,11.73-65.62c7.21.54,16.45-4.28,23.78-6.9,12.33-4.42,23.81-6.51,36.67-9.14l64.4-13.18c2.04-.42,6.11,1.31,7.38,2.22ZM678.18,428.72l5.85-33.9-29.56-.19-6.31,34.35,30.03-.26Z"/>
  <path class="st15" d="M1453.55,241.93c3.94,3.31,9.81,5.21,15.7,5.81,19.33,1.96,36.64,7.68,54.19,16.64,16.3,8.32,31.98,16.54,47.61,26.01,12.04,7.3,23.39,16.66,36.02,22.3l44.29,19.79c17.01,7.6,56.21,33.05,73.3,45.21,12.53,22.16,30.15,37.34,48.39,53.65,11.89,10.63,17.99,26.86,24.7,41.28l35.72,76.79c7.39,15.9,19.49,35.41,22.48,46.21l6.4,23.12,24.41,53.01c3.05,6.62,5.46,13.52,8.25,20.44,6.44,15.94,14.18,30.68,18.52,47.61,1.04,4.06,2.89,6.21,6.47,5.95v334.24h-33.93l-.04-154.48c0-8.58-5.56-17.71-8.99-24.96-4.39-9.28-4.62-19.02-6.85-28.29-3.02-12.52-6.26-23.96-6.63-37.01l-.95-33.62c-.53-18.68-8.06-35.93-12.06-53.72-5.47-24.35-13.15-45.83-22.15-68.86-14.75-37.71-28.91-74.81-49.5-109.08-4.17-6.94-9.3-10.02-4.9-20-3.31-5.3-8.27-13.44-12.99-18.82l-42.38-48.31c-12.56-14.31-19.22-30.94-36.04-40.97-7.83-4.67-16.23-12.4-21.4-20.74-27.59-44.55-37.36-35.26-65.68-54.7-15.78-10.83-31.43-19.98-48.1-29.24-18.77-10.42-37.8-18.13-56.93-27.36-17.68-8.54-34.02-16.11-52.67-22.32l-51.96-17.3c2.55-20.98,6.52-41.9,10.86-63.5,2.13-10.59,10.05-19.4,19.98-20.56,3.16-.37,8.35.74,10.41,2.33,2.36,1.81,4.81,9,4.22,12.37l-12.56,71.45,28.08.04,6.7-30.41Z"/>
  <path class="st2" d="M1361.11,241.56l-4.57,30.62c11.22.31,20.77,1.34,29.31-1.96l51.96,17.3c18.65,6.21,34.98,13.78,52.67,22.32,19.13,9.24,38.17,16.94,56.93,27.36,16.67,9.26,32.32,18.41,48.1,29.24,28.32,19.44,38.09,10.15,65.68,54.7,5.17,8.34,13.57,16.07,21.4,20.74,16.82,10.03,23.48,26.65,36.04,40.97l42.38,48.31c4.72,5.38,9.68,13.52,12.99,18.82-4.4,9.98.73,13.06,4.9,20,20.58,34.27,34.75,71.36,49.5,109.08,9,23.02,16.68,44.51,22.15,68.86,4,17.79,11.53,35.04,12.06,53.72l.95,33.62c.37,13.05,3.61,24.49,6.63,37.01,2.23,9.27,2.46,19.02,6.85,28.29,3.43,7.25,8.98,16.38,8.99,24.96l.04,154.48h-48.22l-.69-185.21c-.07-18.62-7.26-35.2-4.53-54.65,1.23-8.78-.8-43.4-20.7-41.74l-28.08-89.18c-2.6-8.27-1.65-19.85-5.61-26.71-4.73-8.17-10.22-15.12-13.82-23.8l-12.28-29.63-27.12-60.95c-3.12-7.02-5.31-13.65-10.32-19.52-12.88-15.07-27.63-28.26-39.49-44.28-6.84-9.23-12.67-15.55-21.5-23.18-10.29-8.89-38.3-38.01-43.72-51.58-17.32-9.94-36.31-18.8-50.58-34.24-6.38-31.7-34.61-26.74-45.58-31.51l-33.02-14.33c-11.51-5-23.07-8.88-34.05-15.06-14.94-8.4-29.83-14.58-45.99-20.17-7.88-2.73-16.33-7.72-24.24-9.38-9.55-2.01-18.9-2.46-28.16-5.25-26.99-8.14-53.6-12.3-81.35-16.45-2.76-.41-46.38-9.03-41.66-14.64,8.49-4.64,14.74-14.96,21.73-23.43,3.76,1.12,7.71,1.83,11.53,2,4.49,18.45,20.83,26.69,36.71,27.91,24.07,1.84,47.34-10.99,56.95-35.61l8.85,2.17Z"/>
  <path class="st1" d="M1516.35,1080h-150.03c-.32-4.4.18-8.66.84-14.24,2.47-20.88-6.15-54.99-6.21-68.98l-.26-61.27-19.38-43.64-4.63-21.61-21.27-46.65c-.18-.4-20.52-22.65-20.23-32.51l158.23-.34c5.3-.01,9.49-.75,13.02-4.19,4.82,2.05,6.54,8.77,9.35,14.8,11.51,24.78,26.67,49.2,29.1,77.66l2.48,28.92,2.85,37.14c1.03,13.44,5.56,27,5.63,40.45l.51,94.45Z"/>
  <path class="st22" d="M747.6,251.12l2.76,18.96c-3.67-2.18-10.12,3.8-13.78,4.83l-25.64,7.2c-16.23,4.55-32.09,7.53-48.41,11.25l-43.36,9.87c-15.69,3.57-32.89,2.95-47.91,9.4-18.55,7.96-36.56,15.04-54.44,23.88-18.68,9.24-36.12,17.73-55.44,25.51-6.5,2.62-15.37,5.95-21.19,9.76-8.78,5.76-90.74,62.21-91.63,63.24l-28.34,33-27.51,26.7c-7.63,7.41-13.08,17.89-19.76,26.46-8.33,10.69-17.58,19.88-26.94,29.25l5.61,5.67c1.25,1.26-.28,6.86-1.25,8.42l-17.93,28.8c-5.87,9.44-19.62,35.01-22.53,45.76-8.44,31.14-17.19,48.79-26.96,80.15-7.32,23.5-15.94,50.53-28.74,71.7-3.7,6.13-8.51,13.98-9,20.84l-1.39,19.51-1.95,19.29-1.57,81.68c-1.05,54.29-17.04,44.22-17.56,91.56-.12,11.13-6.13,24.61-1.7,35.09,3.09,7.31,8.29,13.49,7.56,21.1h-44.65c-3.22-38.58-1.65-30.42,1.81-65.61l1.22-12.39c.73-7.42,3.45-17.04,3.53-24.39.31-28.82,1.68-55.18,7.35-83.38.82-4.07,1.78-11.05,1.83-15.18l.83-67.56c.15-12.59,17.11-60.04,22.52-73.9,12.05-30.91,37.2-74.28,45.87-100.47,8.56-25.82,16.9-51.29,32.66-73.31,1.14-1.6,2.7-6.35,1.68-7.82l-4.18-6.05c7.43-13,14.41-29.71,24.86-41.09l73.01-79.45c14.05-15.29,31.95-23.02,48.64-34.62l60.64-42.16c18.83-13.09,39.86-18.83,60.29-27.82,18.01-7.92,33.16-18.98,51.03-28.12l71.64-19.35c1.86-.5,4.26-3.84,3.92-4.25l17.76-.93c.79-2.67,2.07-6.9,2.45-9.08,5.34,3.05,11.33,3.12,16.77.27,5.02,8.54,18.12,12.3,26.9,12.48,12.3.26,21.1-5.87,30.28-11.89l2.21,8.5h28.07s1.46-17.07,1.46-17.07l10.81-3.01c6.14-1.71,12.24-2.45,17.8-1.22Z"/>
  <path class="st1" d="M492.93,789.23l9.01,3,149.56.45c-4.73,14.94-21.8,41.36-26.96,56.5-8.88,26.07-16.61,51.73-23.68,77.45l.57,153.38h-155.39l-.18-146.45c3.85-15.48,9.4-29.39,13.87-44.58l11.99-40.79,17.41-54.84c.41-1.3,3.09-3.9,3.79-4.1Z"/>
  <path class="st28" d="M1295.18,791.1c-.29,9.86,20.05,32.11,20.23,32.51l21.27,46.65,4.63,21.61,19.38,43.64.26,61.27c.06,13.99,8.67,48.1,6.21,68.98-.66,5.58-1.16,9.84-.84,14.24h-93.21l.31-44.18c-4.65-19.19,2.25-39.18-7.37-60.13l-41.34-90.13c-1.54-3.35-2.53-8.33-3.07-11.47l71.74-1.24-7.44-2.31c3.88-1.08,5.98-5.99,5.76-11.39-.09-2.2-4.8-5.89-6.73-5.25s-4.8,3-7.2,5.18c-.47-.86-3.31-5.05-5.21-4.74l-7.93,1.32-4.87.43-1.81,12.68-4.46-14.43-1.73,15.18,13.27-.85c1.29-.08,4.15,1.24,4.85,1.99-9.81.83-29.49.83-39.29-.02,3.08-1.25,6.51-3.96,7.18-6.77.96-4.05-2.62-9.63-6.34-9.78-3.68-.15-7.7,2.26-8.24,6.53-.41,3.31,2.52,7.87,5.61,10.01l-14.29.69v-1.93c.94-.26,5-3.78,3.7-4.73l-5.32-3.88,4.7-4.08c-3.68-2-7.05-2.64-10.71-2.44-15.11-24.71-33.42-45.12-60.6-55.96-2.24-.89-5.12-4.28-4.99-6.18,47.08-.05,94.6-3.71,141.1-1.61l12.8.58Z"/>
  <path class="st24" d="M555.74,136.09l-9.18,53.49,49.66-.39,9.67-53.37,29.44.43-15.56,89.92-6.47,36.9c-.38,2.18-1.66,6.41-2.45,9.08l-17.76.93c-2.64.14-6.72-.63-11.76-1.29l10.16-56.36-49.56.26-10.54,56.87-29.13-.36,3.59-28.54c3.43-27.25,14.97-75.2,18.77-100.51.27-1.77,1.67-4.98,2.81-7.4l28.31.35Z"/>
  <path class="st27" d="M1234.22,546.75l-7.1,4.48c-1.3.82,2.57,5.83,2.77,5.95l-6.7,9.51c-1.41-.88-3.83-6.78-3.82-9.42,0-2.37,3.26-4.67,6.43-6.71l-8.08-7.65-4.69,7.21c7.14,8.35.18,20.07,4.99,20.12l6.07.06,21.06-.25c-.26-8.2-.54-13.53-1.89-19.8,2.99,1.16,8.4.88,11.82.61l.64,18.9,12.17.66c3.28.18,6.71-5.08,7.36-8.2l2.08-10.03c.37-.7,1.77-3.09,1.9-3.24-.63,7.35-.86,13.71,1.19,22.85l3.76-15.37.09,13.54,32.75,20.57c16.52,10.38,30.61,22.33,46.73,34.88l42.72,45.86c1.29,1.39,1.83,6.95,1.33,7.87l-125.42.6-1.98-1.6h-126.62c3.36-.72-17.95-12.76-16.81-12.25l-49.55-22.4c-27.76-12.55-137.94-8.86-175.03-8.08-4.17.09-12.75,4.25-17.1,5.37-52.19,13.5-58.6,26.05-75.3,31.55-3.99,1.31-7.84,2.26-8.91,5.11l-244.89.69c.8-2.69,2.66-5.54,4.88-8.1l18.17-21.05c13.61-15.77,27.35-30.75,41.97-45.23,12.07-11.96,34.09-25.27,34.86-32.28l5.24-1.89c1.63,1.03,3.81,1.15,5.58.48.99-.15,3.98.66,4.29-.49l2.04-7.64c3.06,4.65,3.86,9.14,10.71,7.88l-3-5.97,12.62-9.21.81-13.05c.1-1.65,5.48-1.93,5.67-.34l.67,5.52c.25,2.05,2.08,5.97,2.77,8.07l2.69,16.97c1.42-5.49,1.9-11.3,2.36-15.41.21-1.55,2.33-5.47,2.72-6.14l.23-10.74c4.42-.35,10.32-1.13,14.78-3.22l43.13-20.23c9.74-4.57,20.7-11.26,31.53-11.57l28.33-.8c-.64.02,49.05-4.23,51.95-4.56,7.53-.86,16.34-4.04,23.96-4.06l123.6-.26c9.97,2.12,19.18,3.83,28.89,4.9-.41-.05,50.89,4.08,47.07,3.97l28.35.8c10.32.29,20.96,6.55,30.34,10.88l55.62,25.68c2.19,1.01,4.64,3.79,5.21,5.71ZM905.53,540.97h-3.57v28.98h3.57v-28.98ZM959.18,569.95l-.13-29c-2.45.08-4.36-.07-4.57.97l-1.16,5.84c-5.89-1.99-11.97.89-13.44,6.35-1.66,6.16-.99,15.29,6.17,15.87,3.78.31,8.67.11,13.12-.02ZM980.47,569.37l-.42-27.41c-.02-1.22-4.92-1.32-4.97-.11l-.22,5.32-10.3,1.5c-3.4,7.1-3.26,13.95-.33,21.49l16.25-.81ZM1188.87,569.31l.57-24.22c.03-1.28-1.8-5.44-2.64-4.73-6.08,5.2-.9,7.94-4.41,7.75l-5.45-.29c-3.12-.17-6.93,6.35-7.29,9.72-.36,3.36,1.94,11.78,5.08,12.27,4.51.7,9.77.09,14.13-.51ZM741.23,574.15l9.35-25.82c-8.66-.57-7.06,7.31-10.32,13.84l-4.8-13.21c-1.68-.39-3.83-1.34-4.19-.18-.27.87-.22,4.35.12,5.27l6.32,16.98-7.99,7c3.74,3.24,9.85.72,11.52-3.88ZM752.96,567.74c2.47,4.02,10.88,3.8,14.1.31s3.96-11.17,1.24-16.03c-3.44-6.15-10.73-5.71-14.74-1.9s-4.36,11.51-.6,17.62ZM798.25,559.88c.05-3.71,4.29-6.48,9.41-11.17l-13.13-.17.89,22.63c3.46-2.65,2.75-5.37,2.83-11.3ZM822.84,560.65l13.04-.69c.69-5.04-1.71-10.2-5.93-11.88-3.05-1.22-9.26.34-11.6,2.71-2.28,2.32-2.74,8.94-1.9,13.7.6,3.4,6.33,6.61,9.55,6.33s8.44-3.19,9.58-6.05c.39-.97-3.42-3.29-4.08-2.52-.44.51-1.85,2.44-2.37,3.15-.96,1.29-4.86.97-6.22.24-1.01-.55-1.14-4.83-.08-5ZM861.73,551.48l2.63,19.75c5.64,1.15,4.85-19.03.59-21.84-2.06-1.36-6.42-1.44-9.67-1.4l-15.58.21.69,23.5c2.92-5.33,2.47-8.27,2.86-13.53l1.16-4.93c.28-1.2,4.94-.79,5.44-.28l.82,17.12c9.29,2.26-1.29-17.54,11.06-18.59ZM889.43,569.65c.12-5.33.49-13.8-1.25-18.16-2.81-7.04-14.29-4.85-16.59.5l2.8,5.22c-1.96,2.55-4.07,5.45-4.46,7.56s4.13,6.24,6.07,6.07l13.44-1.18ZM924.03,570.8l13.64-1.1.03-11.85c.01-4.29-4.38-10.15-8.3-10.45-4.7-.35-8.5,2.8-11.28,7.82l4.94,1.79c-2.95,2.47-5.33,5.26-5.51,7.88-.15,2.28,4.3,6.09,6.47,5.91ZM1052.82,563.92c-5.28,4.1-7.14,1.66-10.84-.24l-14.62-7.52c-1.16-.6-4.21-2.12-3.34-2.84.64-.53,1.67-2,2.33-1.7l3.4,1.55,4.62,2.04c.8.35,2.24-3.22,1.57-3.82-3.8-3.41-9.45-5.87-13.68-2.89-2.06,1.45-3.39,8.84-1.06,9.94l11.33,5.35c-6.76,9.87-9.76-9.04-22.57,1.67-1.11.93-5.1,1.24-5.71-.1l-2.22-4.91,16.32-.31c-1.09-4.37-3.04-10.95-6-11.82-3.71-1.09-9.13.26-12.62.25-4.72-.01-11.43-.17-15.78.62l.55,21.78c8.39,2.19,1.54-16.78,7.56-18.29l6.53-1.63c-2.44,8.89-2.19,16.42,3.9,18.96,4.7,1.96,12.29.69,14.75-5.16,2.04,1.9,6.42,5.64,9.25,6.06s8.41-3.2,11.03-4.07c3.24,1.38,8.33,3.79,11.21,4.1,2.56.27,8.46-4.2,8.3-6.98-.33-5.91-17.19-8.71-13.37-10.67l2.33-1.19c.61-.31,2.47.69,3.33,1.06l4.67,2.03c.8.35,2.26-3.21,1.59-3.79-3.81-3.28-9.48-5.84-13.73-2.98-2.09,1.41-3.36,8.99-1.09,10.02l12.05,5.49ZM1090.51,569.57c1.95-.63,3.75-8.47,1.85-9.27l-8.08-3.41-3.42-1.45c-.74-.31-.07-3.48.7-3.26s2.83.88,3.56,1.26l5.08,2.62c.83.43,2.4-2.55,2.42-3.18-2.68-4.39-10.75-6.97-15.11-3.86-1.81,1.29-3.73,8.63-1.69,9.36l7.48,2.68c1.36.49,3.51,1.52,4.58,2.08s-2.04,4.78-3.03,4.06l-3.01-2.19-4.07-2.99c-.91-.67-3.13,1.82-2.96,3.01.98,6.86,11.5,5.91,15.71,4.56ZM1125.26,563.17c-.03,2.76-.42,6.9.74,6.77l4.72-.54-.66-20.28c-5.14-.9-11.25-1.09-15.97-.79-1.32,7.65-4.69,16.37,2.85,23.56l1.92-20.25c3.75,1.06,6.49,2.02,6.48,3.77l-.08,7.77ZM1146.28,570.6l13.06-1.27-.49-17.01c-.08-2.84-6.98-5.86-9.53-5.3s-5.64,3.83-9.13,7.58l6.11,2.49c-2.79,2.49-5.24,5.33-5.54,7.56-.25,1.87,3.78,6.11,5.52,5.94ZM1210.92,569.46l-.09-18.71c-5.18-4.41-12.88-4.62-17.71.31l2.64,6.22c-1.73,2.3-3.9,5.4-4.34,7.5s4.12,6.28,6.15,6.07l13.35-1.39ZM785.74,559.4l-.87,6.34c-.17,1.24-5.85.74-5.89-.51l-.49-16.12-3.98-.73c-.74-.14-1.51,3.37-1.46,4.24l.99,16.76c5.75,1.6,12.46,1.14,17.48-.2l-1.52-21.46c-6.08,1.35-3.45,5.9-4.25,11.68Z"/>
  <path class="st21" d="M1477.04,697.26l1.02,4.09c.16.63.99.54,1.95.54-1.06,16.59-1.03,49.92,0,66.51-.67.06-2.39.86-2.53,1.81l-.43,2.82c-2.83,4.95-6.54,9.58-10.61,13.56-3.53,3.45-7.71,4.18-13.02,4.19l-158.23.34-12.8-.58-777.96-.52c-12.36,0-22.86-13.76-23.38-25.09-.96-20.69-.96-38.85,0-59.56.52-11.28,11.04-25.06,23.4-25.07l777.94-.54,125.42-.6,49.52.86c8.52.15,16.06,10.36,19.72,17.26ZM1449.4,776.7c10.54-1.49,16.87-9.35,18.79-19.35l-.16-40.85c-.04-10.7-9.12-20.95-19.52-20.95h-135.78c-11.56,0-19.79,11.39-19.72,22.86l.2,37.26c.06,10.79,9.09,20.94,19.48,20.95l136.7.08ZM645.6,722.6l-9.43,6.26-6.93,4.6-2.11-10.66c-5.95,4.39-7.71,5.41-12.47,7.63-6.13,2.85-4.43,14,.93,16.66s11.6.27,14.27-3.98c1.86,5.13,12.59,7.66,15.4,2.55s1.22-16.96.34-23.05ZM522.89,735.51c2.88.21,2.18-.13-1.37-.87l-6.55-1.57c-1.04-.25-.39-5.11.66-5.35l11.48-2.6-16.13-.98.02,23.92,17.41-1.89-12.89-2.81c-1.21-.26-1.22-4.89-.04-5.3l7.4-2.56ZM542.49,740.21c-.05-3.44,2.8-9.05,4.6-8.12l3.19,16.15c6.31-4.08,4.8-16.9.21-18.04-6.73-1.67-13.52-1.11-21.31-.88l.91,20.2,4.14-18.4c4.32,2.13,5.06,5.71,5.54,10.72l.46,4.76c.07.71,2.36.35,2.35-.37l-.09-6.02ZM571.4,746.27l.3-6.65c.23-4.94-2.33-10.21-6.34-11.1-2.9-.64-9.45,1.65-8.84,4.61,2.61,12.67-6.28,11.5-.69,13.25,5.23,1.64,15.45,2.64,15.57-.11ZM609.67,747l-1.72-15.87c-.3-2.8-8.15-3.12-10.4-1.92-1.07.57-2.78,4.12-2.01,5.11l2.21,2.87-4.85,3.85c-1.13.89,1.17,5.97,2.59,6.26,3.26.66,10.23.29,14.18-.3ZM664.67,741.29l10.72-1.83c.58-4.97-2.29-10.69-6.49-11.16-3.43-.38-8.94,2.11-9.58,5.34-1.47,7.42.53,12.61,5.97,13.96,3.93.97,10.41-.09,9.18-5.87l-6.26,3.25c-1.08.56-4.44-2.99-3.53-3.69ZM707.14,735l.77-4.43-9.82-1.84c-2-.37-4.89,4.88-4.47,7.03,1.1,5.59,15.51,1.83,8.55,9.65l-20.52-10.92c1.64-1.32,3-2.08,3.76-1.65l4.56,2.63c1.81-3.15-2.65-7.15-5.37-7.06-3.86.12-7.77,3.33-8.03,7.82l10.64,5.02c.6,0-1.1,4.97-2.26,4.38l-6.1-3.11c.05-1.84-1.03,2.1-1.24,3.79,5,4.2,11.59-1.21,15.57-.92,3.9.29,11.98,4.01,15.09.3,1.01-1.2.61-6.24-.68-6.76l-5.83-2.32c-.78-.31-2.94-1.53-3.62-1.92s.9-2.21,1.53-2.69c1.48-1.13,6.92,6.13,7.47,2.98Z"/>
  <path class="st23" d="M1282.55,361.55c-15.89,4.99-29.47,16.78-36.51,33.37l-6.41,15.1-4.89-.16c0-21.39-8.24-44.35-32.58-46.59-24.11-5.82-47.85,8.66-61.09,33.11l-10.64-2.21c-.94-18.28-11.48-33.44-30.1-31.88-10.4.87-19.97,2.8-27.71,11.99l-.2-8.99-27.68-.12-5.04,25.46c-3.14-.46-6.43-1.22-9.47-2.19,3.04-6.37,4.73-14.98,8.03-23.17l-28.46-.15-30.67,81.31-4.99-81.06-28.95-.03-35.68,83.04-.03-83.18-30.22.08.69,24.98-6.38-.09c3.3-10.26,1.27-25.4-3.83-34.65-6.51-11.82-19.11-17.52-30.55-18.14-15.94-.86-32.02-1.33-47.99-1.1-.24-.42,1.07-3.82,2.03-3.85l19.21-.68,30.7-1.41c41.72-1.92,59.98-15.54,74.63-15.56l120.29-.2,38.76,10.89c17.96,5.04,35.57,4.59,53.67,5.64l28.73,1.67c6.1.35,13.34.71,19.3,1.9l61.55,12.28c5.38,1.07,46.27,6.81,42.46,14.59Z"/>
  <path class="st7" d="M791.22,336.29c15.97-.23,32.05.24,47.99,1.1l-5.08,25.4c-7.3-1.75-16.4-.14-26.58-.48l-20.02,111.02-29.7-.3,10.35-63.22,14.55-73.4,8.5-.12Z"/>
  <path class="st9" d="M1350.89,332.29c-6.08,26.1-9.36,52.96-13.58,79.3-3.2,19.96-9.66,39.96-12.01,61.66l-26.97.24-2.51-6.39-13.16,6.04,1.62-21.04c19.45-5.97,31.38-50.23,16.21-64.05,2.69-6.63,5.23-13.7,7.23-20.63l6.31,5.62,1.9-9.83c2.22-11.51,4.65-23.08,6.11-34.69l24.43-.25c1.56-.02,4.5,3.25,4.42,4ZM1298.46,464.65c0-.53-.4-.97-.89-.97s-.89.43-.89.97.4.97.89.97.89-.43.89-.97Z"/>
  <path class="st17" d="M979.13,446.42c6.99,7.71-2.51,16.2-.23,26.26l-21.52.73-4.2-75.92-31.43,75.68-16.44-.41,2.65-12.34c.82-3.82,1.56-8.68,1.56-12.05l35.68-83.04,28.95.03,4.99,81.06Z"/>
  <path class="st16" d="M1202.17,363.27l-5.5,23.33c-12.53-1.7-23.75,4.3-28.64,20.93l21.59,1-1.98,16.57-23.22.63c-3.25,10.71,1.33,25.7,12.7,26.52l-3.73,24.2c-20.89-1.09-37.66-14.28-38.84-38.36-.62-12.69.36-30.27,6.54-41.7,13.23-24.45,36.97-38.92,61.09-33.11Z"/>
  <path class="st3" d="M1307.72,367.43c-2.01,6.94-4.55,14-7.23,20.63-8.64-2.42-17.31-.11-23.21,8.58-8.09,11.91-11.37,27.41-9.67,42.26,1.05,9.13,7.93,13.64,16.68,13.21l-1.62,21.04c-17.74,8.14-38.04-.99-43.35-22.92-3.18-13.13-1.35-27.09.32-40.22l6.41-15.1c7.04-16.59,20.62-28.37,36.51-33.37,7.49-2.35,19.68.99,25.17,5.88Z"/>
  <path class="st5" d="M1100.34,362.29l-2.98,18.58c-.3,1.86-3.09,5.45-4.16,5.93-13-1.26-24.91,7.28-27.38,20.67l-12.11,65.77-28.2.04,14.2-82.66,5.04-25.46,27.68.12.2,8.99c7.73-9.19,17.31-11.12,27.71-11.99Z"/>
  <path class="st20" d="M873.59,390.18c-9.67,30.03-38.57,41.14-68.69,38.87l5.13-26.2c13.9,1.85,25.19-.76,31.18-13.04,4.29-8.77,3.12-24.56-7.08-27.01l5.08-25.4c11.44.62,24.03,6.32,30.55,18.14,5.1,9.25,7.13,24.39,3.83,34.65Z"/>
  <path class="st13" d="M1130.44,394.16l-14.11,79.1-28.45-.13,12.46-69.5c1.09-6.1-2.19-14.5-7.14-16.85,1.08-.48,3.87-4.07,4.16-5.93l2.98-18.58c18.63-1.56,29.17,13.6,30.1,31.88Z"/>
  <path class="st20" d="M909.52,448.38c0,3.37-.74,8.23-1.56,12.05l-2.65,12.34-20.05.23-5.29-82.74-.69-24.98,30.22-.08.03,83.18Z"/>
  <path class="st12" d="M1030.23,388.43c-12.99,27.16-24.15,55.16-36.31,84.28l-15.03-.03c-2.27-10.07,7.23-18.55.23-26.26l30.67-81.31,28.46.15c-3.29,8.19-4.98,16.8-8.03,23.17Z"/>
  <path class="st25" d="M1234.74,409.86l-2.49,15.73-44.62-.51,1.98-16.57c4.71.22,9.94-.39,16.15-.74.89-9.14-2.44-16.08-9.1-21.19l5.5-23.33c24.33,2.24,32.58,25.2,32.58,46.59Z"/>
  <path class="st4" d="M566.18,678.14l244.89-.69,342.71.69h126.62s1.98,1.6,1.98,1.6l-777.94.54c-12.37,0-22.89,13.79-23.4,25.07-.95,20.71-.96,38.87,0,59.56.53,11.33,11.02,25.08,23.38,25.09l777.96.52c-46.5-2.1-94.01,1.55-141.1,1.61l-489.78.55-149.56-.45-9.01-3c-4-5.5-13.32-12.3-13.66-20.33-.97-23.11-1.22-44.37.24-67.54.6-9.52,13.49-22.66,21.92-22.73l64.75-.49Z"/>
  <path class="st25" d="M1173.38,476.43l3.73-24.2c10.99.79,19.82-4.71,24.43-14.21l28.85.34c-9.15,26.84-32.85,39.34-57.01,38.07Z"/>
  <path class="st14" d="M676.45,440.54l-6.7,32.83-29.3-.25,2.51-18.97c.57-4.28,2.43-9.69,3.68-14.92,10.62-.39,20.62-.46,29.8,1.31Z"/>
  <path class="st6" d="M719.38,422.89c-.21,7.16-16.35,6.86-19.13,6.69l-12.79-.76,4.5-25.35,29.37-.11-1.95,19.52Z"/>
  <path class="st7" d="M760.77,409.51l-4.8,19.25-27.02.19c-1.22,0-2.36-4.33-2.05-5.7l4.5-19.64,27.49-.34,1.88,6.24Z"/>
  <path class="st26" d="M1234.22,546.75l9.03,3.5c1.35,6.28,1.63,11.6,1.89,19.8l-21.06.25-6.07-.06c-4.81-.05,2.15-11.77-4.99-20.12l4.69-7.21,8.08,7.65c-3.18,2.04-6.43,4.34-6.43,6.71,0,2.64,2.41,8.54,3.82,9.42l6.7-9.51c-.2-.13-4.07-5.13-2.77-5.95l7.1-4.48Z"/>
  <path class="st26" d="M1318.8,570.77c-2.25.18-6.68-3.6-6.53-5.86.18-2.67,2.58-5.5,5.47-7.81l-6.04-2.48c3.77-4.4,7.16-7.51,10.87-8.02,2.99-.41,9.02,4.52,9.22,8.02l.86,15.04-13.85,1.1Z"/>
  <path class="st26" d="M640.88,566.18c2.28,3.89,14.06-10.96,10.53,1.88-4.52,3.14-14.32,4.8-17.18-1.7-1.97-4.48-1.73-10.53.05-14.48s7.46-5.3,12.52-4.02c3.68.93,6.13,6.89,7.19,12.2l-16.37.58,3.25,5.54Z"/>
  <path class="st26" d="M1284.17,556.42l-3.76,15.37c-2.05-9.14-1.82-15.5-1.19-22.85,3.06-.76,6.06-1.46,8-1.71,1.66-.22,4.57,4.05,4.99,4.79,3.05-5.36,8.24-5.7,13.15-3.62,4.13,1.75,6,6.24,5.82,11.67l-14.93.62,3.3,5.84c2,3.55,1.55-4.39,10.77-3.18,3.48.46-5.45,11.05-14.59,6.49-7.39-3.69-3.3-27.02-8.63-18.25l-2.93,4.82Z"/>
  <path class="st26" d="M1275.24,562.22c-.65,3.12-4.08,8.38-7.36,8.2l-12.17-.66-.64-18.9c-.08-2.24.61-7.04.96-9.45.11-.78,3.75-1.1,3.89-.35l1.17,6.44c3.58.19,8.59.53,10.96,2.37,2.72,2.11,3.58,9.03,3.2,12.34ZM1266.66,566.51c6.23-2.43,5.25-13.84-.65-14.84-2.51-.42-5.63,5.23-5.7,7.91-.06,2.42,3.91,7.88,6.35,6.93Z"/>
  <path class="st26" d="M595.8,545.92c-3.68.13-8.13,14.04-1.18,19.92,5.41,4.57,5.49-4.32,14.07-2.52,3.87.81-8.62,10.42-15.14,7.01-4.67-2.45-8.57-7.9-8.22-13.68s2.32-12.6,6.06-14.32c4.05-1.86,11.25-.61,14.13,1.92l2.62,2.29c.74.65.52,3.92-.42,3.78-9.45-1.41-3.77-4.68-11.92-4.4Z"/>
  <path class="st26" d="M625.16,563.17l.03-8.02c0-1.69-2.27-2.3-6.66-3.45l-.94,18.01c-.13.57-4.57-1.09-4.59-2.29l-.44-26.15c3.44-.67,3.94-1.14,4.27.07l1.87,6.91c2.06-.68,10.79-.47,11.12,2.7.53,5.13.71,13.8.74,18.44l-4.66.55c-1.16.14-.75-3.98-.74-6.77Z"/>
  <path class="st26" d="M690.91,563.84l3,5.97c-6.85,1.26-7.65-3.23-10.71-7.88l-2.04,7.64c-.3,1.14-3.3.33-4.29.49l.63-30.73c7.92,2.58,4.19,9.73,4.62,15.08l11.08-6.57-7.86,10.85,5.58,5.14Z"/>
  <path class="st26" d="M1372.86,571.18c-6.15-3.29-.18-5.56-4.59-18.07-.66-1.88-6.43-.2-6.63,1.76-.52,5.12-.78,11.2-2.97,16.8-1.52-11.78-1.36-19.22-.7-32.07l4.96,8.91,7.07-.69c1.95-.19,5.63,4.67,5.28,7.08l-2.41,16.28Z"/>
  <path class="st26" d="M1344.69,566.15l4.98-3.68c.78-.58,4.38,1.23,3.91,2.12-1.27,2.42-5.76,5.76-8.25,6.48-3.61,1.04-8.66-1.99-9.88-5.71-2.35-7.15-1.33-13.75,4.4-17.13,3.78-2.23,12.38,1.21,13.44,5.49.24.97-3.16,3.31-3.79,2.58l-3.92-4.58c-1.46-1.7-5.23,3.72-5.91,6.01-.77,2.58,2.93,9.98,5.04,8.42Z"/>
  <path class="st26" d="M671.3,569.58l-5.24,1.89c-2.69-.66-6.44-1.97-8.41-3.4-1.69-1.22-2.49-7-2.5-9.82-.02-6.27,4.42-10.42,9.97-10.62,4.42-.16,8.47,3.72,9.6,9.02l-12.69-5.69c-1.94,6.19-1.84,12.33,1.98,16l9.32-4.89-2.03,7.49Z"/>
  <path class="st26" d="M721.46,539.51l-.23,10.74c-.39.68-2.51,4.59-2.72,6.14-.46,4.11-.94,9.92-2.36,15.41l-2.69-16.97c-.69-2.11-2.52-6.02-2.77-8.07h1.95l1.79-1.93c.39-3.34,3.69-5.05,7.05-5.32Z"/>
  <path class="st4" d="M1480.01,701.88c-.95,0-1.79.09-1.95-.54l-1.02-4.09c.95.22,3.24.35,3.17,1.41l-.2,3.21Z"/>
  <path class="st4" d="M1480.01,768.39c.07,1.06.65,3.87-.34,3.98-.71.08-2.05.48-2.63.64l.43-2.82c.15-.95,1.86-1.75,2.53-1.81Z"/>
  <path class="st27" d="M712.63,546.76l1.79-1.93-1.79,1.93Z"/>
  <path class="st9" d="M1453.55,241.93l-6.7,30.41-28.08-.04,12.56-71.45c.59-3.37-1.86-10.56-4.22-12.37-2.06-1.58-7.25-2.7-10.41-2.33-9.92,1.16-17.85,9.97-19.98,20.56-4.34,21.6-8.31,42.52-10.86,63.5-8.54,3.3-18.09,2.28-29.31,1.96l4.57-30.62,14.44-77.22,26.53-.27,2.97,7.04c13.01-10.81,29.12-14.1,42.8-5.69,9.38,5.77,13.91,19.36,12.21,31.19l-6.52,45.31ZM1403.83,172.92c0-.53-.4-.97-.89-.97s-.89.43-.89.97.4.97.89.97.89-.43.89-.97Z"/>
  <path class="st12" d="M1118.04,136.4l-5.52,25.73-27.89-.6-5.04,29.75,24.22.03-3.8,22.5-24.78.89-5.58,31.74,19.92.81-3.82,24.49-50.01.91c.03-3.95-.34-7.78.31-9.75,4.94-14.86,7.9-47.94,11-63.37l12.8-63.67c20-.27,39.1-.36,58.19.54Z"/>
  <path class="st14" d="M725.46,218.31c-2.52,12.24-5.4,24.56-6.47,37.04l-1.46,17.06h-28.07s-2.21-8.48-2.21-8.48c1.34-1.81,1.91-2.49-.59-2.57l-1.05-13.69c5.84-5.66,8.35-16.37,9.24-23.97l1.97-16.91c1.93-3.61,3.48-9.78,1.7-14.16-1.22-3-7.08-6.18-10.34-6.51-11.04-1.13-16.54,4.07-22.46,13.48l-27.06.08c4.95-32.73,42.02-45.46,69.16-35.69,23.65,8.52,21.78,34.28,17.65,54.32Z"/>
  <path class="st5" d="M1148.7,183.75l-13.54,16.47c10.27,9.44,14.88,22.59,11.99,35.35s-11.3,22.44-20.75,28.38c-13.25,8.33-26.96,7.54-40.64,7.79l3.82-24.49c7.89.32,19.23-1.03,24.6-9.61,2.63-4.2,4.05-13.78.57-17.81-3.06-3.55-9.32-5.29-14.73-6.01l3.8-22.5c5.78,0,13.16-6.91,14.81-12.39,2.15-7.16-.47-13.26-6.1-16.8l5.52-25.73c11.34.53,21.87,6.19,26.98,13.61,7.39,10.72,6.25,22.6,3.68,33.74Z"/>
  <path class="st0" d="M900.23,163.07c-.83,8.3-2.87,16.52-5.58,24.42-16.31-4.95-25.68,1.16-32.92,18.8l27.56,1.1-1.56,16.71c-10.47-.19-20.05.54-29.45.94-1.59,7.2-.63,17.93,5.64,22.87,3.37,2.65,12.28,4.27,16.28,3.19l-5.16,24.1c-14.8,1.06-29.52-2.43-39.14-14.37-6.2-7.69-8.45-22.98-7.92-31.24l1.19-18.38c3.57-6.92,5.89-15.19,9.05-20.44,14.62-24.32,38.35-33.76,62-27.69Z"/>
  <path class="st17" d="M1002.88,194.99l-11.56,65.82c-.65,3.87-2.33,8.56-3.35,11.74l-29.96-.29c2.63-9.21,3.5-17.08,4.85-24.68l7.95-44.65,12.3-66.98,29.74-.15-9.97,59.2Z"/>
  <path class="st13" d="M1218.43,161.56l-3.7,23.84c-12.63-1.54-23.96,6.93-27.67,21.17l20.31.79-3.46,16.77c-7.87-.09-14.62.53-20.84.91-2.13,13.28,2.66,25.57,13.72,26.22,1.64,13.32-4.1,14.12-3.84,23.97-21.54.41-39.03-16.8-39.82-39.16-.53-15.12,2.23-35.21,9.67-46.6,12.94-19.81,34.3-30.46,55.63-27.92Z"/>
  <path class="st25" d="M1322.11,161.54c-2.17,7.89-4.24,15.87-4.13,23.84-12.56-1.28-23.95,7.02-27.36,21.18l20.09.76c-1.5,5.49-2.66,11.2-3.39,16.85l-20.87.86c-2.13,13.34,2.84,25.43,13.87,26.3l-5,23.67c-15.88-1.21-32.22-9.45-36.71-27.91-2.89-11.87-3.17-28.42.73-40.23,9.66-29.24,34.36-49.33,62.78-45.32Z"/>
  <path class="st6" d="M782.08,227.89c1.01,3.12,1.47,8.04.65,11.59l-7.45,32.45c-6.3.49-19.04,1.64-24.92-1.86l-2.76-18.96c-1.72-11.84-3.5-23.45-5.95-34.92-1.36-6.36-1.32-16.28-2.35-23.54l-4.04-28.42,29.93.21,8.33,79.53,8.56-16.08Z"/>
  <path class="st8" d="M970.81,202.93l-7.95,44.65-37.12.93c-1.12.03-4.84-3.19-4.09-3.14l2.05-8.77-27.93.34c-3.43,4.79-9.48,12.52-15.56,14.16-4,1.08-12.91-.53-16.28-3.19-6.27-4.94-7.23-15.67-5.64-22.87,9.41-.4,18.99-1.12,29.45-.94l38.36.68,2.78-21.85h41.93Z"/>
  <path class="st22" d="M1047.05,199.53c-3.1,15.43-6.06,48.51-11,63.37l-36.2-.2c-2.05-.01-6.62-1.33-8.52-1.88l11.56-65.82c8.63,2.55,17.81,2.24,27.7,3.1l16.47,1.43Z"/>
  <path class="st7" d="M819.68,208.66l-10.19,19c-6.49,12.1-13.39,24.09-18.48,36.95-1,2.52-3.66,5.93-5.69,7.15s-7.72,0-10.03.18l7.45-32.45c.82-3.55.36-8.47-.65-11.59l28.71-63.72,29.52.5-20.64,43.99Z"/>
  <path class="st3" d="M1321.68,224.95l-14.36-.78c.73-5.65,1.89-11.36,3.39-16.85,5.25.2,11.51-.58,17.55-.93,1.04-9.09-2.78-16.71-10.28-21.01-.11-7.97,1.96-15.95,4.13-23.84,14.14,1.99,27.14,8.83,32.03,25.69,3.43,11.82,3.49,25.62.28,37.2l-32.73.51Z"/>
  <path class="st16" d="M1253.82,206.62l-2.44,18.07-47.48-.55,3.46-16.77c5.28.21,11.43-.54,17.71-.75.62-8.9-2.89-16.97-10.35-21.21l3.7-23.84c16.43,1.95,30.68,11.4,33.34,30.43l2.05,14.63Z"/>
  <path class="st20" d="M928.88,202.93l-2.78,21.85-38.36-.68,1.56-16.71c3.01.12,6.06-.49,11.84-1.15l-6.49-18.74c2.71-7.9,4.75-16.12,5.58-24.42,18.34,4.71,27.27,20.19,28.65,39.86Z"/>
  <path class="st15" d="M1259.33,206.86c-3.9,11.81-3.61,28.36-.73,40.23-3.81-.17-7.77-.89-11.53-2l1.59-8.34-28.42.26c-5.41,9.67-12.75,14.88-23.46,14.25-11.06-.64-15.85-12.93-13.72-26.22,6.22-.38,12.97-1,20.84-.91l47.48.55,2.44-18.07,5.51.24Z"/>
  <path class="st3" d="M1327.04,236.55l19.61.09c1.51,0,4.94,2.1,5.62,2.75-9.61,24.62-32.88,37.45-56.95,35.61l5-23.67c18.1,1.43,20.69-14.8,26.73-14.78Z"/>
  <path class="st2" d="M1307.32,224.17l14.36.78,5.35,11.61c-6.04-.03-8.63,16.21-26.73,14.78-11.02-.87-16-12.96-13.87-26.3l20.87-.86Z"/>
  <path class="st11" d="M741.65,216.19c2.45,11.47,4.23,23.08,5.95,34.92-5.56-1.23-11.66-.49-17.8,1.22l-10.81,3.01c1.07-12.48,3.95-24.8,6.47-37.04l16.18-2.12Z"/>
  <path class="st15" d="M1162.8,189.48c-7.44,11.39-10.2,31.47-9.67,46.6l-5.99-.51c2.9-12.76-1.72-25.9-11.99-35.35l13.54-16.47,14.1,5.73Z"/>
  <path class="st8" d="M632.59,225.79c-5,11.3-9.33,25.97-2.52,37.55-5.44,2.85-11.43,2.78-16.77-.27l6.47-36.9c6.55,3.32,9.2-4.05,12.82-.38Z"/>
  <path class="st11" d="M829.18,211.2l-1.19,18.38c-6.19-.27-12.34-.93-18.5-1.93l10.19-19,9.5,2.55Z"/>
  <path class="st26" d="M843.56,853.9l2.51,3.1c1,1.23,8.25-6.02,12.07-1.44,1.3,1.56,2.11,6.07,1.54,8.08l-1.69,5.97c-.35,1.25-4.57-.48-6.02-.5l-12.53-.15c-4.25-.05-8.18-.73-10.92.81l-10.53-.35v-19.32c4.07-.64,10.86,1.36,12.08,4.85.2.58-1.69,3.66-1.23,4.03l2.02,1.64c3.22-4.87,7.43-6.81,12.68-6.71Z"/>
  <path class="st26" d="M917.71,858.51c-3.34,1.19-.25,2-6.12,11.07-.95,1.47-4.33-4.26-4.87-5.54l-4.16,5.53c-1,1.32-4-3.74-4.58-5.35l-1.31-3.65c-.34-.95-2.02.03-4.29.7l-9.82,8.92-.33-19.84c9.49-2.29,16.83,3.39,20.38,11.61l3.9-8.01,5.24,7.64c.97-2.39,3.08-7.14,4.7-6.87,2.04.33,5.22,1.05,7.38,1.6l-6.14,2.19Z"/>
  <path class="st26" d="M946.73,868.78c-4.81-.31-12.62,3.84-14.27-2.99-1.11-4.6.81-10.79,4.48-11.84,2.93-.84,7.46,2.54,8.61,5.12l13.52-9.98.25,20.5-12.6-.81Z"/>
  <path class="st26" d="M1059.75,866.44l6.45-1.47c-1.68,8.66-7.95,3.15-12.52,3.43-4.54.28-12.31,4.32-14.07-2.57-1.18-4.6.82-10.91,4.48-11.93,2.79-.78,7.53,2.82,8.92,5.15,2.13-1.84,6.43-4.9,8.63-5.01,2.51-.13,5.73,5.14,6.1,7.06l-6.69-3.11c-1.19-.55-3.23,1.84-3.81,3.08s1.34,5.63,2.51,5.36Z"/>
  <path class="st26" d="M1028.09,854.84c3.04,1.73,5.74,6.67,5.17,9.54-.92,4.65-6.7,7.27-13.14,4.72l-.04-18.84,8.02,4.57Z"/>
  <path class="st26" d="M1096.8,853.41c2.33.88,5.23,3.75,5.19,6.34-.04,3.02-.58,6.91-1.69,9.08-.93,1.81-7.2,1.26-8.82.12-2.07-1.47-2.87-8.89-1.32-10.98,1.33-1.79,4.28-3.48,6.64-4.56Z"/>
  <path class="st26" d="M982.1,860.45c.74,2.74,1.65,6.15,1.89,8.07s-6.25,2.22-7.83,1.32-2.33-3.72-2.36-6.27l-.07-6.77c-.02-1.78,4.83-2.96,6.7-2.96.83,0,4.12,2.08,3.67,2.91l-2.01,3.7Z"/>
  <path class="st26" d="M995.15,857.9l8.54,6.71c2.26,1.78-4.61,6.6-7.81,5.78-2.47-.63-4.23-3.5-4.52-7.99-.2-3.23,1.17-7.6,3.17-8.17,3.25-.93,7.42,1.89,7.73,4.77l-7.12-1.09Z"/>
  <path class="st26" d="M1016.37,854.02c.91,2.46,1.55,7.91,1.94,14.88-2.62.14-8.31.06-11.8-.17l.21-16.04,4.03,16.45c3.19-4.85,3.33-7.44,5.61-15.13Z"/>
  <path class="st16" d="M1247.07,245.09c-6.99,8.47-13.24,18.79-21.73,23.43-10.65,5.82-22.37,6.52-32.4,6.71-.26-9.85,5.48-10.64,3.84-23.97,10.71.62,18.05-4.58,23.46-14.25l28.42-.26-1.59,8.34Z"/>
  <path class="st22" d="M827.99,229.59c-.53,8.25,1.72,23.55,7.92,31.24-4.6,2.96-9.83,4.11-16.15,3.87-20.5-.77-25.89,6.63-28.75-.09,5.1-12.86,11.99-24.85,18.48-36.95,6.16,1,12.31,1.66,18.5,1.93Z"/>
  <path class="st20" d="M921.66,245.37c-10.82,18.44-27.78,28.48-46.61,29.83l5.16-24.1c6.08-1.64,12.13-9.37,15.56-14.16l27.93-.34-2.05,8.77Z"/>
  <path class="st26" d="M797.68,867.11c-.09,2.31-7.07,3.9-8.81,2.52-2.04-1.62-4.22-4.86-5.95-7.66l-2.37,6.58c-.5,1.4-4.57,1.22-5.16-.13l-2.97-6.83-1.32,6.53c-.25,1.22-7.33,3.51-11.4,1.48-1.41-.7-2.93-5.45-1.58-6.25.9-.54,4.42-2.56,4.36-2.58s-2.81-2.13-4.01-3.04l4.27-3.41c1.45-1.16,6.13,1.46,7.67,2.41,1.52-.57,3.82-2.47,4.34-1.16l3.14,7.91,2.7-7.33c1.41-3.83,16.29-2.67,16.92,1.31.32,2.08.3,6.54.18,9.66Z"/>
  <path class="st26" d="M699.56,858.38l-10.36.23,7.19,2.73c1.71.65,2.66,6.09,1.34,7.43-3.01,3.06-9.64-.68-12.75-1.38-3.51-.79-9.66,6.76-14.33.05-1.09-4.42-1.02-12.21.99-18.89.94,5.05,1.43,10.24,1.83,14.78l2.72,4.11c.76,1.15,3.88-2.66,4.18-4.07l.72-13.88,5.11,5.82c4.34-.87,9.02-1.07,13.37,3.07Z"/>
  <path class="st17" d="M1153.79,871.34c.88-.17,2.47-.59,3.3-.51l5.63.51h51.8l14.29-.69c.45-.02,1.35-.04,1.79,0,9.8.85,29.49.85,39.29.02.46-.04,1.32-.02,1.79,0,4.12.25,8.42.22,12.5-.12h1.79l7.44,2.31-71.74,1.24-71.52-1.14,3.65-1.6Z"/>
  <path class="st16" d="M1175.26,856.03l3.53,3.72-2.77,7.56c-3.39.06-5.4.6-7.95,2.1h-5.36c-3.82-1.12-4.33-8.5-3.12-11.9,1.05-2.96,7.94-4.42,9.93-2.24,1.28,1.4,3.08,4.71,3.67,3.84l2.07-3.07Z"/>
  <path class="st26" d="M731.78,876.27l-4.8-6.74c.28-.19-2.18,1.45-5.3,3.53l-2.02-11.41c-.34-1.93,2.12-6.78,3.91-6.88,2.23-.13,6.91.22,9.14.6l-.93,20.89Z"/>
  <path class="st16" d="M1196.05,860.5c-1.57,1.29-1.38,8.05-2.09,9.82l-3.26-3.79c-.46-.53-1.16-1.51-1.56-1l-3.71,4.65-4.24-15.92,21.61.71-6.73,5.53Z"/>
  <path class="st26" d="M1131.88,866.96l.48-9.14c2.68-3.45,8.3-4.81,10.28-2.07,2.81,3.87,3.19,11.47.46,13.15s-8.93.24-11.21-1.94Z"/>
  <path class="st13" d="M1214.51,869.41h-5.36c-4.67-1.8-3.59-10.29-2.28-15.14,3.66-.2,7.03.44,10.71,2.44l-4.7,4.08,5.32,3.88c1.3.95-2.76,4.47-3.7,4.73Z"/>
  <path class="st26" d="M715.09,866.94l-2.29-9.9c-2.32,6.61-3.02,9.67-5.43,13.53-2.49-4.2-2.8-12.09-.74-14.85,1.41-1.89,7.96-2.18,9.58-.5,2.96,3.08,2.19,9.48.25,14.41-.29.73-1.17-1.79-1.37-2.68Z"/>
  <path class="st5" d="M755.31,857.16l-1,14.1-3.1-8.34c-.54-1.45-4.58-1.95-5.92-1.33-1.67.78-2.16,3.99-3.83,7.96l.05-19.66,2.6,7.47c.54,1.55,6.28,1.6,6.78.03l2.33-7.34c.42.43,1.83,5.3,2.1,7.1Z"/>
  <polygon class="st4" points="1132.35 857.82 1131.88 866.96 1126.75 869.09 1124.85 856.18 1132.35 857.82"/>
  <polygon class="st4" points="1154.34 851.27 1157.42 856.17 1153.03 859.4 1149.95 854.5 1154.34 851.27"/>
  <path class="st4" d="M818.01,869.41c-2.82-5.13-2.82-14.19,0-19.32v19.32Z"/>
  <path class="st4" d="M1118.12,854.74l4.26-.95c.69-.15,1.7,2.91,1.04,3.17l-2.85,1.13c-1.01.4-3.54-3.11-2.46-3.35Z"/>
  <path class="st4" d="M1157.09,870.83c-.83-.08-2.42.34-3.3.51l-.78-4.5c-.2-1.14,3.52-.52,3.66.64l.42,3.35Z"/>
  <path class="st4" d="M1178.79,859.75l-3.53-3.72c.69-1.03,3.36-2.55,3.4-1.25l.14,4.96Z"/>
  <rect class="st4" x="1162.72" y="869.41" width="5.36" height="1.93"/>
  <rect class="st4" x="1209.15" y="869.41" width="5.36" height="1.93"/>
  <ellipse class="st26" cx="726.03" cy="876.17" rx=".89" ry=".97"/>
  <path class="st24" d="M650.49,363.42l-11.73,65.62-29.37-.33,6.67-48.25,5.12-17.88c9.03-.42,20.07.15,29.3.84Z"/>
  <path class="st23" d="M1315.93,363.23l-1.9,9.83-6.31-5.62c1.17-4.05,3.41-4.63,8.21-4.21Z"/>
  <polygon class="st14" points="678.18 428.72 648.15 428.98 654.46 394.62 684.03 394.82 678.18 428.72"/>
  <path class="st13" d="M1285.95,870.55h-1.79l-5.81-4.32-6.69,4.44c-.47-.02-1.33-.04-1.79,0-.7-.75-3.56-2.07-4.85-1.99l-13.27.85,1.73-15.18,4.46,14.43,1.81-12.68,4.87-.43,7.93-1.32c1.91-.32,4.75,3.88,5.21,4.74,2.39-2.17,5.26-4.53,7.2-5.18s6.64,3.04,6.73,5.25c.22,5.4-1.88,10.3-5.76,11.39ZM1264.7,860.62c.31.82,2.14,3.99,2.22,3.38s.29-1.77.54-2.21-2.95-1.68-2.76-1.17ZM1282.99,864.23c.45.55,1.73,3.77,2.11,3.29l1.86-2.35c.36-.46.41-1.28-.16-1.34-.61-.06-4.18-.07-3.81.39Z"/>
  <path class="st13" d="M1230.59,870.65c-.43-.04-1.33-.02-1.79,0-3.09-2.15-6.02-6.71-5.61-10.01.53-4.28,4.56-6.68,8.24-6.53,3.71.15,7.3,5.73,6.34,9.78-.67,2.81-4.1,5.52-7.18,6.77Z"/>
  <path class="st28" d="M1153.79,678.14l-342.71-.69c1.07-2.85,4.92-3.8,8.91-5.11,16.7-5.51,23.11-18.05,75.3-31.55,4.35-1.13,12.93-5.29,17.1-5.37,37.09-.78,147.27-4.47,175.03,8.08l49.55,22.4c-1.14-.51,20.17,11.53,16.81,12.25Z"/>
  <path class="st26" d="M1052.82,563.92l-12.05-5.49c-2.27-1.03-1-8.62,1.09-10.02,4.25-2.86,9.92-.3,13.73,2.98.67.58-.79,4.13-1.59,3.79l-4.67-2.03c-.86-.37-2.72-1.37-3.33-1.06l-2.33,1.19c-3.82,1.95,13.04,4.76,13.37,10.67.15,2.78-5.75,7.25-8.3,6.98-2.87-.31-7.97-2.72-11.21-4.1-2.62.87-8.22,4.49-11.03,4.07s-7.21-4.16-9.25-6.06c-2.46,5.85-10.05,7.12-14.75,5.16-6.09-2.54-6.34-10.07-3.9-18.96l-6.53,1.63c-6.02,1.51.83,20.48-7.56,18.29l-.55-21.78c4.34-.79,11.05-.63,15.78-.62,3.49,0,8.9-1.34,12.62-.25,2.96.87,4.91,7.45,6,11.82l-16.32.31,2.22,4.91c.61,1.35,4.6,1.03,5.71.1,12.8-10.71,15.81,8.2,22.57-1.67l-11.33-5.35c-2.33-1.1-1-8.48,1.06-9.94,4.22-2.98,9.88-.52,13.68,2.89.67.6-.77,4.17-1.57,3.82l-4.62-2.04-3.4-1.55c-.66-.3-1.69,1.17-2.33,1.7-.87.72,2.18,2.24,3.34,2.84l14.62,7.52c3.7,1.9,5.56,4.34,10.84.24Z"/>
  <path class="st26" d="M861.73,551.48c-12.35,1.04-1.78,20.85-11.06,18.59l-.82-17.12c-.5-.51-5.16-.92-5.44.28l-1.16,4.93c-.39,5.26.06,8.21-2.86,13.53l-.69-23.5,15.58-.21c3.25-.04,7.62.04,9.67,1.4,4.26,2.81,5.04,22.99-.59,21.84l-2.63-19.75Z"/>
  <path class="st26" d="M924.03,570.8c-2.17.18-6.63-3.64-6.47-5.91.18-2.62,2.56-5.41,5.51-7.88l-4.94-1.79c2.78-5.01,6.57-8.17,11.28-7.82,3.92.29,8.31,6.15,8.3,10.45l-.03,11.85-13.64,1.1Z"/>
  <path class="st26" d="M1146.28,570.6c-1.74.17-5.77-4.07-5.52-5.94.29-2.24,2.74-5.08,5.54-7.56l-6.11-2.49c3.49-3.75,6.58-7.02,9.13-7.58s9.44,2.45,9.53,5.3l.49,17.01-13.06,1.27Z"/>
  <path class="st26" d="M889.43,569.65l-13.44,1.18c-1.95.17-6.47-3.96-6.07-6.07s2.5-5.02,4.46-7.56l-2.8-5.22c2.3-5.35,13.78-7.54,16.59-.5,1.74,4.36,1.37,12.83,1.25,18.16ZM884.04,554.2c-1.16-1.89-7.31-1.77-7.18.03.4,3.06,7.28,2.91,7.18-.03Z"/>
  <path class="st26" d="M1210.92,569.46l-13.35,1.39c-2.04.21-6.59-3.97-6.15-6.07s2.6-5.2,4.34-7.5l-2.64-6.22c4.83-4.93,12.52-4.71,17.71-.31l.09,18.71ZM1205.61,554.52c-1.5-2.49-7.17-2.37-7.31-.02.49,2.5,7.29,2.33,7.31.02Z"/>
  <path class="st26" d="M959.18,569.95c-4.45.13-9.34.33-13.12.02-7.16-.58-7.83-9.7-6.17-15.87,1.47-5.46,7.54-8.34,13.44-6.35l1.16-5.84c.21-1.04,2.12-.88,4.57-.97l.13,29ZM946.99,566.04c5.25,2.92,7.59-5.54,7.1-8.56-.53-3.33-5.41-7.28-8.52-4.05-2,2.09-.96,11.22,1.41,12.61Z"/>
  <path class="st26" d="M822.84,560.65c-1.06.16-.93,4.45.08,5,1.35.73,5.26,1.05,6.22-.24.52-.7,1.93-2.63,2.37-3.15.66-.77,4.47,1.55,4.08,2.52-1.15,2.86-6.46,5.79-9.58,6.05s-8.96-2.94-9.55-6.33c-.84-4.75-.38-11.38,1.9-13.7,2.34-2.38,8.55-3.93,11.6-2.71,4.22,1.68,6.62,6.85,5.93,11.88l-13.04.69Z"/>
  <path class="st26" d="M1188.87,569.31c-4.36.59-9.62,1.21-14.13.51-3.15-.49-5.44-8.9-5.08-12.27.36-3.37,4.17-9.89,7.29-9.72l5.45.29c3.52.19-1.67-2.55,4.41-7.75.84-.72,2.67,3.45,2.64,4.73l-.57,24.22ZM1181.69,566.25c4.63-1.39,4.68-14.71-.98-14.5-3.04.11-5.94,4.92-6.04,7.49-.11,2.84,2.53,8.36,7.02,7.01Z"/>
  <path class="st26" d="M1090.51,569.57c-4.21,1.35-14.73,2.29-15.71-4.56-.17-1.18,2.05-3.68,2.96-3.01l4.07,2.99,3.01,2.19c.99.72,4.11-3.49,3.03-4.06s-3.22-1.59-4.58-2.08l-7.48-2.68c-2.04-.73-.12-8.07,1.69-9.36,4.36-3.11,12.43-.53,15.11,3.86-.02.63-1.59,3.61-2.42,3.18l-5.08-2.62c-.73-.38-2.79-1.03-3.56-1.26s-1.44,2.94-.7,3.26l3.42,1.45,8.08,3.41c1.9.8.1,8.65-1.85,9.27Z"/>
  <path class="st26" d="M980.47,569.37l-16.25.81c-2.92-7.54-3.06-14.4.33-21.49l10.3-1.5.22-5.32c.05-1.21,4.95-1.11,4.97.11l.42,27.41ZM971.63,566.72c4.53-1.74,5.9-7.58,4.99-10.1-.72-2-4.24-5.76-6.09-5-2.31.94-4.33,5.62-4.53,7.89s3.56,8.01,5.64,7.21Z"/>
  <path class="st26" d="M741.23,574.15c-1.67,4.6-7.78,7.12-11.52,3.88l7.99-7-6.32-16.98c-.34-.92-.4-4.4-.12-5.27.37-1.16,2.52-.21,4.19.18l4.8,13.21c3.26-6.54,1.67-14.41,10.32-13.84l-9.35,25.82Z"/>
  <path class="st26" d="M1125.26,563.17l.08-7.77c.02-1.75-2.72-2.71-6.48-3.77l-1.92,20.25c-7.55-7.19-4.17-15.91-2.85-23.56,4.72-.3,10.84-.11,15.97.79l.66,20.28-4.72.54c-1.17.13-.77-4.01-.74-6.77Z"/>
  <path class="st26" d="M785.74,559.4c.8-5.79-1.83-10.33,4.25-11.68l1.52,21.46c-5.02,1.34-11.73,1.8-17.48.2l-.99-16.76c-.05-.87.72-4.38,1.46-4.24l3.98.73.49,16.12c.04,1.25,5.72,1.75,5.89.51l.87-6.34Z"/>
  <path class="st26" d="M752.96,567.74c-3.76-6.11-3.59-13.64.6-17.62s11.31-4.24,14.74,1.9c2.72,4.86,2.03,12.49-1.24,16.03s-11.63,3.71-14.1-.31ZM762.55,566.62c2.13-.03,4.48-6.55,4.13-9-.32-2.27-2.99-5.85-6.01-6.14-3.32-.32-5.75,5.26-5.67,7.98.1,3.39,1.62,7.24,7.55,7.16Z"/>
  <path class="st26" d="M798.25,559.88c-.08,5.93.63,8.65-2.83,11.3l-.89-22.63,13.13.17c-5.12,4.69-9.36,7.45-9.41,11.17Z"/>
  <rect class="st12" x="901.95" y="540.97" width="3.57" height="28.98"/>
  <path class="st9" d="M1449.4,776.7l-136.7-.08c-10.39,0-19.43-10.15-19.48-20.95l-.2-37.26c-.06-11.47,8.16-22.86,19.72-22.86h135.78c10.4,0,19.48,10.25,19.52,20.95l.16,40.85c-1.92,10-8.25,17.86-18.79,19.35ZM1370.27,741.73l.49,5.64c.06.72,3.14-.98,3.07-1.69l-1.42-13.04-11.93-7.93c-.58,7.73-3.34,16.53,2.6,24.92l2.42-15.99c1.86.62,4.48,4.83,4.77,8.09ZM1405.36,733.64c-2.93-6.63-9.56-.55-13.99-.66-3.52-.08-9.92-4.7-13.54-1.27s-4.02,10.56.71,14.97c3.39,3.17,8.87.63,13.32-1.64,3.64,1.53,9.6,4.03,14.04,2.41l2.93-.02c1.64-.01,3.51-2.76,4.76-5.02l3.61,5.16c.87,1.24,5.29-1.12,4.81-1.85l-5.09-5.81c-1.23-1.4,2.22-4.4,4.93-7.23-.09-.44-2.11-2.26-2.97-1.5l-5.71,5.02c-.54-5.93-.4-10.71-3.67-11.28l-4.13,8.72ZM1344.44,736.67c-.27-1.89,3.06-7.62,4.61-6.9l6.63,3.1c1.11.52,2.18-4.23,1.02-4.81-7.19-3.56-16.49-1.43-17.24,4.89-.44,3.75.46,11.23,3.07,13.59,4.08,3.69,16.53.82,14.7-3.54-.32-.77-.95-1.86-1.64-1.44l-2.8,1.69c-1.36.82-5.04,1.03-6.45.35-1.05-.51-1.48-4.07-1.89-6.94Z"/>
  <path class="st26" d="M645.6,722.6c.88,6.08,2.36,18.14-.34,23.05s-13.54,2.58-15.4-2.55c-2.68,4.25-9.08,6.56-14.27,3.98s-7.06-13.81-.93-16.66c4.76-2.22,6.52-3.24,12.47-7.63l2.11,10.66,6.93-4.6,9.43-6.26ZM620.22,744.77c1.91-.18,3.87-5.65,3.5-7.54s-3.91-5.51-5.6-5c-3.6,1.48-3.36,13.05,2.1,12.54ZM638.07,744.95c1.98-.18,3.89-6,3.45-7.89s-3.72-5.03-5.53-4.97c-3.92,1.32-3.13,13.31,2.08,12.85Z"/>
  <path class="st26" d="M707.14,735c-.55,3.15-5.99-4.11-7.47-2.98-.63.48-2.21,2.3-1.53,2.69s2.83,1.61,3.62,1.92l5.83,2.32c1.29.51,1.69,5.55.68,6.76-3.11,3.7-11.19-.01-15.09-.3-3.98-.3-10.57,5.12-15.57.92.21-1.7,1.29-5.63,1.24-3.79l6.1,3.11c1.16.59,2.86-4.38,2.26-4.38l-10.64-5.02c.26-4.5,4.17-7.7,8.03-7.82,2.72-.09,7.18,3.91,5.37,7.06l-4.56-2.63c-.76-.44-2.11.33-3.76,1.65l20.52,10.92c6.97-7.83-7.45-4.07-8.55-9.65-.42-2.15,2.47-7.41,4.47-7.03l9.82,1.84-.77,4.43Z"/>
  <path class="st26" d="M542.49,740.21l.09,6.02c.01.72-2.28,1.08-2.35.37l-.46-4.76c-.48-5.01-1.22-8.59-5.54-10.72l-4.14,18.4-.91-20.2c7.79-.23,14.58-.79,21.31.88,4.6,1.14,6.11,13.97-.21,18.04l-3.19-16.15c-1.8-.93-4.65,4.68-4.6,8.12Z"/>
  <path class="st26" d="M609.67,747c-3.95.59-10.92.97-14.18.3-1.42-.29-3.71-5.37-2.59-6.26l4.85-3.85-2.21-2.87c-.76-.99.94-4.54,2.01-5.11,2.25-1.2,10.1-.87,10.4,1.92l1.72,15.87Z"/>
  <path class="st26" d="M571.4,746.27c-.13,2.74-10.34,1.74-15.57.11-5.59-1.75,3.3-.58.69-13.25-.61-2.95,5.95-5.25,8.84-4.61,4.02.89,6.57,6.16,6.34,11.1l-.3,6.65ZM560.83,733.03c-1.06.24,1.51,3.81,2.5,3.34.66-.31,2.05-.87,2.85-1.16.68-.25-.34-3.29-1.04-3.14l-4.3.96Z"/>
  <path class="st26" d="M664.67,741.29c-.91.7,2.45,4.25,3.53,3.69l6.26-3.25c1.23,5.77-5.25,6.84-9.18,5.87-5.44-1.34-7.44-6.54-5.97-13.96.64-3.22,6.15-5.72,9.58-5.34,4.2.47,7.07,6.19,6.49,11.16l-10.72,1.83Z"/>
  <path class="st26" d="M522.89,735.51l-7.4,2.56c-1.18.41-1.17,5.04.04,5.3l12.89,2.81-17.41,1.89-.02-23.92,16.13.98-11.48,2.6c-1.05.24-1.7,5.1-.66,5.35l6.55,1.57c3.55.74,4.25,1.08,1.37.87Z"/>
  <path class="st19" d="M1300.49,388.06c15.18,13.82,3.25,58.08-16.21,64.05-8.75.43-15.63-4.08-16.68-13.21-1.71-14.84,1.58-30.35,9.67-42.26,5.9-8.69,14.58-11,23.21-8.58Z"/>
  <ellipse class="st19" cx="1297.56" cy="464.65" rx=".89" ry=".97"/>
  <path class="st19" d="M1196.67,386.59c6.66,5.11,9.99,12.04,9.1,21.19-6.21.35-11.44.96-16.15.74l-21.59-1c4.89-16.63,16.11-22.63,28.64-20.93Z"/>
  <path class="st28" d="M1266.66,566.51c-2.44.95-6.41-4.51-6.35-6.93.07-2.68,3.18-8.33,5.7-7.91,5.9.99,6.89,12.4.65,14.84Z"/>
  <ellipse class="st10" cx="1402.94" cy="172.92" rx=".89" ry=".97"/>
  <path class="st8" d="M1100.01,213.82c5.4.72,11.66,2.46,14.73,6.01,3.48,4.03,2.06,13.61-.57,17.81-5.37,8.59-16.71,9.93-24.6,9.61l-19.92-.81,5.58-31.74,24.78-.89Z"/>
  <path class="st15" d="M1112.52,162.13c5.64,3.54,8.25,9.63,6.1,16.8-1.64,5.47-9.03,12.4-14.81,12.39l-24.22-.03,5.04-29.75,27.89.6Z"/>
  <path class="st23" d="M694.85,223.7c-.88,7.6-3.4,18.31-9.24,23.97s-17.48,8.4-24.7,5.46c-4.48-1.82-5.7-9.59-4.6-13.58,4-14.47,27.49-14.76,38.54-15.84Z"/>
  <path class="st24" d="M696.82,206.79l-1.97,16.91c-11.05,1.08-34.55,1.38-38.54,15.84-1.1,3.99.12,11.76,4.6,13.58,7.22,2.94,18.81.25,24.7-5.46l1.05,13.69c2.51.08,1.93.76.59,2.57-9.18,6.01-17.98,12.14-30.28,11.89-8.78-.18-21.88-3.94-26.9-12.48-6.81-11.58-2.48-26.25,2.52-37.55,18.96-16.67,40.23-19.73,64.23-19Z"/>
  <path class="st11" d="M894.65,187.49l6.49,18.74c-5.78.66-8.83,1.27-11.84,1.15l-27.56-1.1c7.24-17.63,16.61-23.75,32.92-18.8Z"/>
  <path class="st22" d="M1214.73,185.4c7.46,4.24,10.97,12.31,10.35,21.21-6.28.21-12.43.96-17.71.75l-20.31-.79c3.71-14.24,15.04-22.71,27.67-21.17Z"/>
  <path class="st15" d="M1317.98,185.38c7.5,4.3,11.32,11.93,10.28,21.01-6.04.35-12.29,1.13-17.55.93l-20.09-.76c3.41-14.16,14.8-22.46,27.36-21.18Z"/>
  <path class="st28" d="M1284.17,870.55c-4.08.34-8.38.38-12.5.12l6.69-4.44,5.81,4.32Z"/>
  <path class="st28" d="M1282.99,864.23c-.38-.47,3.19-.46,3.81-.39.57.06.52.88.16,1.34l-1.86,2.35c-.38.47-1.66-2.74-2.11-3.29Z"/>
  <path class="st28" d="M1264.7,860.62c-.19-.51,3.01.73,2.76,1.17s-.45,1.57-.54,2.21-1.92-2.55-2.22-3.38Z"/>
  <path class="st27" d="M884.04,554.2c.1,2.94-6.78,3.09-7.18.03-.13-1.8,6.01-1.92,7.18-.03Z"/>
  <path class="st27" d="M1205.61,554.52c-.02,2.31-6.82,2.48-7.31-.02.14-2.34,5.81-2.47,7.31.02Z"/>
  <path class="st28" d="M946.99,566.04c-2.37-1.4-3.42-10.53-1.41-12.61,3.11-3.23,7.99.73,8.52,4.05.48,3.03-1.85,11.48-7.1,8.56Z"/>
  <path class="st28" d="M1181.69,566.25c-4.49,1.35-7.14-4.17-7.02-7.01.1-2.57,3-7.38,6.04-7.49,5.67-.21,5.61,13.12.98,14.5Z"/>
  <path class="st4" d="M971.63,566.72c-2.08.8-5.84-4.94-5.64-7.21s2.22-6.95,4.53-7.89c1.85-.76,5.37,3.01,6.09,5,.92,2.53-.45,8.36-4.99,10.1Z"/>
  <path class="st4" d="M762.55,566.62c-5.93.08-7.45-3.77-7.55-7.16-.08-2.72,2.35-8.3,5.67-7.98,3.02.29,5.68,3.87,6.01,6.14.35,2.45-1.99,8.97-4.13,9Z"/>
  <path class="st24" d="M1405.36,733.64c-.02.17-.06,2.8-.65,2.55l-3.9-1.62c-1.36-.57-4.57.69-4.36,2.21.23,1.61.02,7.85,1.4,7.48l9.13-2.45-1.08,5.63c-4.44,1.62-10.4-.88-14.04-2.41-4.45,2.28-9.94,4.81-13.32,1.64-4.72-4.41-4.34-11.53-.71-14.97s10.02,1.19,13.54,1.27c4.43.11,11.06-5.97,13.99.66Z"/>
  <path class="st24" d="M1344.44,736.67c.41,2.87.84,6.43,1.89,6.94,1.41.68,5.09.47,6.45-.35l2.8-1.69c.69-.42,1.32.67,1.64,1.44,1.82,4.36-10.62,7.23-14.7,3.54-2.61-2.36-3.51-9.84-3.07-13.59.75-6.33,10.05-8.45,17.24-4.89,1.17.58.09,5.33-1.02,4.81l-6.63-3.1c-1.54-.72-4.88,5-4.61,6.9Z"/>
  <path class="st24" d="M1370.27,741.73c-.28-3.26-2.91-7.46-4.77-8.09l-2.42,15.99c-5.93-8.39-3.17-17.2-2.6-24.92l11.93,7.93,1.42,13.04c.08.72-3,2.41-3.07,1.69l-.49-5.64Z"/>
  <path class="st24" d="M1408.83,747.42l.67-22.51c3.27.57,3.14,5.35,3.67,11.28l5.71-5.02c.86-.75,2.88,1.06,2.97,1.5-2.71,2.82-6.16,5.82-4.93,7.23l5.09,5.81c.48.73-3.95,3.09-4.81,1.85l-3.61-5.16c-1.25,2.26-3.12,5.01-4.76,5.02Z"/>
  <path class="st25" d="M1408.83,747.42l-2.93.02,1.08-5.63-9.13,2.45c-1.38.37-1.17-5.88-1.4-7.48s2.99-2.78,4.36-2.21l3.9,1.62c.59.24.63-2.38.65-2.55l4.13-8.72-.67,22.51Z"/>
  <path class="st21" d="M620.22,744.77c-5.46.5-5.7-11.06-2.1-12.54,1.69-.5,5.22,3.12,5.6,5s-1.59,7.36-3.5,7.54Z"/>
  <path class="st21" d="M638.07,744.95c-5.21.46-6-11.53-2.08-12.85,1.81-.06,5.08,3.08,5.53,4.97s-1.46,7.71-3.45,7.89Z"/>
  <path class="st21" d="M560.83,733.03l4.3-.96c.7-.16,1.72,2.89,1.04,3.14-.8.29-2.19.85-2.85,1.16-.99.47-3.55-3.1-2.5-3.34Z"/>
</svg>