<svg xmlns="http://www.w3.org/2000/svg" xml:space="preserve" id="Ebene_1" x="0" y="0" viewBox="0 0 283.46 283.46"><style>.st0{fill:#fff}</style><path d="M-3.69-1.49h291.3v286.9H-3.69z"/><path d="M175.94 208.87c.34.93.49 1.57.79 2.1 2.95 5.24 5.76 10.58 8.95 15.65 1.72 2.74 4.32 4.82 6.14 7.5 1.8 2.65 3.9 3.25 6.85 3.23 23.86-.15 47.73-.08 71.59-.08H272v5.8H17.98v-5.89h1.46c9.19 0 18.38-.01 27.58 0 14.62.02 29.24.06 43.87.1 1.9.01 3.8.11 5.7.1 1.46-.01 2.84-.3 3.94-1.51 5.11-5.59 10.11-11.29 13.97-17.99 1.63-2.83 3.1-5.77 4.71-8.79-.36-.05-.69-.11-1.03-.12-.37-.02-.74 0-1.11 0-28.55-.03-57.1-.06-85.65-.1-3.94-.01-7.89-.11-11.83-.09-1.24.01-1.72-.39-1.72-1.8.02-5.14-.11-10.27-.12-15.41-.04-24.29-.09-48.59-.09-72.88 0-24.99.05-49.99.08-74.98v-2.07h254.29c.02.55.06 1.09.06 1.62v14.67c.04 35.67.09 71.34.12 107.01.01 13.72-.02 27.44-.03 41.16 0 2.35-.28 2.65-2.49 2.66h-.7l-73.25.12c-6.48 0-12.98-.01-19.8-.01m-8.79-134.93c.56.05.9 0 1.19.11 2.93 1.07 5.89 2.08 8.77 3.3 1.13.48 2.39 1.19 3.08 2.21 2.33 3.43 5.57 5.52 8.95 7.39 4.08 2.26 8.28 4.26 12.31 6.61 3.66 2.13 7.32 4.33 10.69 6.94 3.08 2.39 5.84 5.28 8.62 8.09 2.46 2.49 4.79 5.14 7.13 7.77.97 1.09 1.8 2.33 2.69 3.51-.07.11-.14.22-.21.34-3.4-.95-6.81-1.9-10.29-2.87 10.71 5.52 20.09 12.77 28.41 21.59l-.18.33c-5.02-.96-10.03-1.92-15.05-2.89l-.18.42c4.41 3.85 8.76 7.78 13.24 11.53 4.49 3.76 8.51 8.03 12.31 12.71-2.2-.35-4.28-1.01-6.35-1.65-2.12-.66-4.25-1.3-6.37-1.95-.08.13-.15.26-.23.39 6.48 6.88 11.92 14.62 16.57 23.06.18-.48.18-.86.18-1.25.02-42.9.03-85.81.04-128.71 0-2.12-.25-2.37-2.27-2.38-12.9-.04-25.81-.12-38.71-.13-64.21-.01-128.41-.01-192.62 0-.58 0-1.17.1-1.74.15V183.5h1.58c24.79.02 49.58.03 74.37.05 19.73.01 39.46 0 59.19.08 1.48.01 2.99.54 4.43 1.04 1.35.47 2.61 1.21 3.91 1.85.67.33 1.36.64 1.99 1.05 7.63 5.02 15.24 10.07 22.86 15.1.51.34 1.05.63 1.57.94-3.03-3.61-6.08-7.09-9.32-10.36-11.39-11.49-24.75-19.68-38.81-26.68-2.39-1.19-4.78-2.39-7.16-3.62-2.09-1.09-4.17-2.22-6.24-3.33.31 6.1 5.16 7.1 9.15 9.54-5.37-1.18-17.88-9.2-20-12.66 2.35-.65 4.83-.85 6.79-2.69.32-.3 1.21-.2 1.69.05 4.05 2.04 8.93 1.77 12.49 5.21-.22-.45-.47-.81-.8-1.08-.97-.8-1.35-2.65-3.14-2.04-.13.04-.4-.43-.66-.71 4.91-1.01 6.49-1.81 7.92-3.97-.72-1.69-3.68-1.57-3.12-4.38.61.07 1.18.14 1.99.24-.53-1.25-.89-2.32-1.42-3.28-1.06-1.92-.7-2.89 1.37-3.37.88-.2 1.78-.37 2.55-.53-.04-2.48-1.68-3.08-3.3-3.27-3.22-.38-6.46-.61-9.69-.67-6.8-.14-13.47-.87-19.98-3.23-3.31-1.21-6.79-2.01-10.25-2.59-3.38-.57-6.83-.39-10.74.51 1.48 1.32 2.67 2.39 4.15 3.71-.89.2-1.29.31-1.69.38-2.75.46-5.52.78-8.24 1.39-7.56 1.71-15.11 3.53-22.65 5.37-1.3.32-2.52.97-3.78 1.48l.12.42c.58 0 1.15.01 1.73 0 4.13-.11 6.59 3.64 5.04 7.76-.18.48-.72 1.05-1.17 1.14-3.73.7-7.41.75-10.71-1.67-3.32-2.43-3.15-6.7.34-8.83 1.89-1.16 3.8-2.27 5.68-3.46 3.51-2.23 6.89-4.71 10.51-6.71 4.23-2.33 8.18-5.3 12.86-6.64 1.08-.31 1.44-1.23 1.4-2.44-.1-3.07-.31-6.16-.12-9.22.17-2.73.11-5.65 1.97-7.94 1.59-1.95 3.04-4.09 4.86-5.74 5.74-5.2 11.6-10.27 19.3-12.02-.15-.56-.33-1.07-.43-1.59-.91-4.77-1.94-9.53-2.65-14.33-.56-3.73.42-4.47 3.87-3.46 4.98 1.46 9.31 4.39 13.73 7.1.58.36 1.17.71 1.89 1.16 0-3.89-.13-7.53.05-11.15.1-2.11.66-4.2 1.11-6.27.08-.36.73-.87 1.05-.82 1.04.17 2.11.42 3.06.91 7.82 4.03 15.42 8.5 22.66 13.65 2.23 1.59 4.55 2.37 7.26 2.15-.1-.33-.21-.61-.4-1.09m13.38 66.68c-.05.13-.1.25-.14.38 6.53 5.56 12.69 11.54 18.05 18.4-.06.14-.12.28-.18.43-6.93-1.87-13.85-3.74-20.63-5.57 2.35 1.8 4.91 3.68 7.38 5.69.88.72 1.53 1.76 2.28 2.65-.07.12-.14.25-.21.37h-11.13c9.08 6.85 19.01 11.87 29.09 17.47-2.45-5.51-5.56-10.22-6.74-16.13 5.82 1.46 11.41 2.85 17.37 4.34-9.73-10.7-19.18-21.1-28.78-31.67l31.44 4.41c.03-.11.05-.23.08-.34-9.97-7.4-19.93-14.81-30.16-22.41 5.04-.65 9.73-1.26 14.64-1.89-3.72-2.73-23.34-6.91-26.54-5.71 3.73 5.65 8.74 9.96 13.47 14.98-5.38-.44-10.43-.84-15.48-1.25-.11.16-.21.32-.32.48 4.32 5.26 8.63 10.52 13.08 15.94-2.35-.21-4.46-.39-6.57-.57m-44.4-77.47c.25 2.39.56 4.5.66 6.63.26 5.67.43 11.35.65 17.02.05 1.34.09 2.7.3 4.02.07.45.6.86 1.01 1.16.08.06.76-.45.78-.73.13-1.59.91-1.39 1.91-.96 5.4 2.37 10.8 4.71 16.49 7.18-.59.37-.8.51-1.17.75.77.27 1.36.49 2.04.73 0-4.73.01-9.26-.02-13.79 0-.52-.15-1.14-.43-1.55-1.78-2.54-3.36-5.32-5.49-7.46-3.03-3.05-6.41-5.73-9.77-8.37-2.16-1.7-4.56-3.05-6.96-4.63m-15.77 48c.01-.13.01-.26.02-.39-.42-.13-.82-.35-1.25-.39-3.45-.37-6.89-.75-10.35-1.03-4.8-.39-8.22 2.87-11.85 5.46-.95.68-.8 2.01-.31 3.02.48.99 1.41.85 2.21.46 1.5-.73 2.95-1.56 4.44-2.32.36-.19.76-.34 1.16-.4 3.75-.52 7.49-1.02 11.49-1.56-1.05-.53-1.91-.97-2.77-1.4.02-.13.05-.26.07-.39 1.17-.17 2.35-.33 3.52-.5 1.21-.18 2.41-.37 3.62-.56m-9.66 10.17c-.33.76-.77 1.3-.67 1.65.13.42.69.92 1.11.96 1.14.13 2.33.2 3.45.01 3.39-.57 5.9-3.39 5.93-6.49.02-1.94-.36-2.27-2.12-1.94-.5.09-1.02.1-1.52.14-1.85.15-3.7.21-5.54.46-1.54.2-1.84.76-1.46 2.29.28 1.1.62 2.19.82 2.92m17.75-36.86c-2.14-4.38-5.77-6.73-9.21-9.42.5 2.87 1.11 5.68 1.9 8.44.13.45.97.9 1.51.94 1.83.11 3.69.04 5.8.04m-37.15 26.6c-.62 1.99-.26 3.7.78 4.2 1.11.54 2.71-.09 3.41-1.38-1.83-.05-3.24-.84-4.19-2.82" class="st0"/><path d="M122.49 155.99c-2.6.42-4.77.87-6.97 1.09-7.31.75-14.16 3.31-20.97 6.01-3.8 1.51-7.72 2.46-11.76 2.7-.63.04-1.41-.17-1.9-.56-2.51-2.03-4.94-4.17-7.41-6.25-.18-.15-.42-.23-.62-.34.06-.14.13-.28.19-.42 1.52-.2 3.05-.41 4.57-.6 7.31-.94 14.24-3.37 21.09-6.17 2.96-1.21 6.04-2.19 9.14-2.9 2.72-.62 5.36.25 7.65 1.92 2.28 1.67 4.45 3.51 6.99 5.52m-4.42-39.41c-.09.84-.16 1.52-.22 2.12-.47-.32-.93-.62-1.39-.93-.11.54-.22 1.07-.41 1.98-.43-.66-.71-1.29-1.15-1.7-.69-.64-1.49-1.13-2.3-1.72 1.69.07 3.53.15 5.47.25" class="st0"/></svg>