<?xml version="1.0" encoding="utf-8"?>
<!-- Generator: Adobe Illustrator 25.0.0, SVG Export Plug-In . SVG Version: 6.00 Build 0)  -->
<svg version="1.1" id="Ebene_1" xmlns="http://www.w3.org/2000/svg" xmlns:xlink="http://www.w3.org/1999/xlink" x="0px" y="0px"
	 viewBox="0 0 283.46 283.46" style="enable-background:new 0 0 283.46 283.46;" xml:space="preserve">
<style type="text/css">
	.st0{fill:#FFFFFF;}
</style>
<g>
	<rect x="-3.69" y="-1.49" width="291.3" height="286.9"/>
</g>
<g>
	<path class="st0" d="M175.94,208.87c0.34,0.93,0.49,1.57,0.79,2.1c2.95,5.24,5.76,10.58,8.95,15.65c1.72,2.74,4.32,4.82,6.14,7.5
		c1.8,2.65,3.9,3.25,6.85,3.23c23.86-0.15,47.73-0.08,71.59-0.08c0.55,0,1.09,0,1.74,0c0,2.02,0,3.88,0,5.8
		c-84.7,0-169.31,0-254.02,0c0-1.93,0-3.8,0-5.89c0.48,0,0.97,0,1.46,0c9.19,0,18.38-0.01,27.58,0c14.62,0.02,29.24,0.06,43.87,0.1
		c1.9,0.01,3.8,0.11,5.7,0.1c1.46-0.01,2.84-0.3,3.94-1.51c5.11-5.59,10.11-11.29,13.97-17.99c1.63-2.83,3.1-5.77,4.71-8.79
		c-0.36-0.05-0.69-0.11-1.03-0.12c-0.37-0.02-0.74,0-1.11,0c-28.55-0.03-57.1-0.06-85.65-0.1c-3.94-0.01-7.89-0.11-11.83-0.09
		c-1.24,0.01-1.72-0.39-1.72-1.8c0.02-5.14-0.11-10.27-0.12-15.41c-0.04-24.29-0.09-48.59-0.09-72.88c0-24.99,0.05-49.99,0.08-74.98
		c0-0.64,0-1.29,0-2.07c84.79,0,169.47,0,254.29,0c0.02,0.55,0.06,1.09,0.06,1.62c0,4.89,0,9.78,0,14.67
		c0.04,35.67,0.09,71.34,0.12,107.01c0.01,13.72-0.02,27.44-0.03,41.16c0,2.35-0.28,2.65-2.49,2.66c-0.23,0-0.46,0-0.7,0
		c-24.42,0.04-48.84,0.08-73.25,0.12C189.26,208.88,182.76,208.87,175.94,208.87z M167.15,73.94c0.56,0.05,0.9,0,1.19,0.11
		c2.93,1.07,5.89,2.08,8.77,3.3c1.13,0.48,2.39,1.19,3.08,2.21c2.33,3.43,5.57,5.52,8.95,7.39c4.08,2.26,8.28,4.26,12.31,6.61
		c3.66,2.13,7.32,4.33,10.69,6.94c3.08,2.39,5.84,5.28,8.62,8.09c2.46,2.49,4.79,5.14,7.13,7.77c0.97,1.09,1.8,2.33,2.69,3.51
		c-0.07,0.11-0.14,0.22-0.21,0.34c-3.4-0.95-6.81-1.9-10.29-2.87c10.71,5.52,20.09,12.77,28.41,21.59
		c-0.06,0.11-0.12,0.22-0.18,0.33c-5.02-0.96-10.03-1.92-15.05-2.89c-0.06,0.14-0.12,0.28-0.18,0.42
		c4.41,3.85,8.76,7.78,13.24,11.53c4.49,3.76,8.51,8.03,12.31,12.71c-2.2-0.35-4.28-1.01-6.35-1.65c-2.12-0.66-4.25-1.3-6.37-1.95
		c-0.08,0.13-0.15,0.26-0.23,0.39c6.48,6.88,11.92,14.62,16.57,23.06c0.18-0.48,0.18-0.86,0.18-1.25
		c0.02-42.9,0.03-85.81,0.04-128.71c0-2.12-0.25-2.37-2.27-2.38c-12.9-0.04-25.81-0.12-38.71-0.13c-64.21-0.01-128.41-0.01-192.62,0
		c-0.58,0-1.17,0.1-1.74,0.15c0,45.03,0,89.91,0,134.94c0.58,0,1.08,0,1.58,0c24.79,0.02,49.58,0.03,74.37,0.05
		c19.73,0.01,39.46,0,59.19,0.08c1.48,0.01,2.99,0.54,4.43,1.04c1.35,0.47,2.61,1.21,3.91,1.85c0.67,0.33,1.36,0.64,1.99,1.05
		c7.63,5.02,15.24,10.07,22.86,15.1c0.51,0.34,1.05,0.63,1.57,0.94c-3.03-3.61-6.08-7.09-9.32-10.36
		c-11.39-11.49-24.75-19.68-38.81-26.68c-2.39-1.19-4.78-2.39-7.16-3.62c-2.09-1.09-4.17-2.22-6.24-3.33
		c0.31,6.1,5.16,7.1,9.15,9.54c-5.37-1.18-17.88-9.2-20-12.66c2.35-0.65,4.83-0.85,6.79-2.69c0.32-0.3,1.21-0.2,1.69,0.05
		c4.05,2.04,8.93,1.77,12.49,5.21c-0.22-0.45-0.47-0.81-0.8-1.08c-0.97-0.8-1.35-2.65-3.14-2.04c-0.13,0.04-0.4-0.43-0.66-0.71
		c4.91-1.01,6.49-1.81,7.92-3.97c-0.72-1.69-3.68-1.57-3.12-4.38c0.61,0.07,1.18,0.14,1.99,0.24c-0.53-1.25-0.89-2.32-1.42-3.28
		c-1.06-1.92-0.7-2.89,1.37-3.37c0.88-0.2,1.78-0.37,2.55-0.53c-0.04-2.48-1.68-3.08-3.3-3.27c-3.22-0.38-6.46-0.61-9.69-0.67
		c-6.8-0.14-13.47-0.87-19.98-3.23c-3.31-1.21-6.79-2.01-10.25-2.59c-3.38-0.57-6.83-0.39-10.74,0.51c1.48,1.32,2.67,2.39,4.15,3.71
		c-0.89,0.2-1.29,0.31-1.69,0.38c-2.75,0.46-5.52,0.78-8.24,1.39c-7.56,1.71-15.11,3.53-22.65,5.37c-1.3,0.32-2.52,0.97-3.78,1.48
		c0.04,0.14,0.08,0.28,0.12,0.42c0.58,0,1.15,0.01,1.73,0c4.13-0.11,6.59,3.64,5.04,7.76c-0.18,0.48-0.72,1.05-1.17,1.14
		c-3.73,0.7-7.41,0.75-10.71-1.67c-3.32-2.43-3.15-6.7,0.34-8.83c1.89-1.16,3.8-2.27,5.68-3.46c3.51-2.23,6.89-4.71,10.51-6.71
		c4.23-2.33,8.18-5.3,12.86-6.64c1.08-0.31,1.44-1.23,1.4-2.44c-0.1-3.07-0.31-6.16-0.12-9.22c0.17-2.73,0.11-5.65,1.97-7.94
		c1.59-1.95,3.04-4.09,4.86-5.74c5.74-5.2,11.6-10.27,19.3-12.02c-0.15-0.56-0.33-1.07-0.43-1.59c-0.91-4.77-1.94-9.53-2.65-14.33
		c-0.56-3.73,0.42-4.47,3.87-3.46c4.98,1.46,9.31,4.39,13.73,7.1c0.58,0.36,1.17,0.71,1.89,1.16c0-3.89-0.13-7.53,0.05-11.15
		c0.1-2.11,0.66-4.2,1.11-6.27c0.08-0.36,0.73-0.87,1.05-0.82c1.04,0.17,2.11,0.42,3.06,0.91c7.82,4.03,15.42,8.5,22.66,13.65
		c2.23,1.59,4.55,2.37,7.26,2.15C167.45,74.7,167.34,74.42,167.15,73.94z M180.53,140.62c-0.05,0.13-0.1,0.25-0.14,0.38
		c6.53,5.56,12.69,11.54,18.05,18.4c-0.06,0.14-0.12,0.28-0.18,0.43c-6.93-1.87-13.85-3.74-20.63-5.57c2.35,1.8,4.91,3.68,7.38,5.69
		c0.88,0.72,1.53,1.76,2.28,2.65c-0.07,0.12-0.14,0.25-0.21,0.37c-3.71,0-7.42,0-11.13,0c9.08,6.85,19.01,11.87,29.09,17.47
		c-2.45-5.51-5.56-10.22-6.74-16.13c5.82,1.46,11.41,2.85,17.37,4.34c-9.73-10.7-19.18-21.1-28.78-31.67
		c10.62,1.49,21.03,2.95,31.44,4.41c0.03-0.11,0.05-0.23,0.08-0.34c-9.97-7.4-19.93-14.81-30.16-22.41
		c5.04-0.65,9.73-1.26,14.64-1.89c-3.72-2.73-23.34-6.91-26.54-5.71c3.73,5.65,8.74,9.96,13.47,14.98
		c-5.38-0.44-10.43-0.84-15.48-1.25c-0.11,0.16-0.21,0.32-0.32,0.48c4.32,5.26,8.63,10.52,13.08,15.94
		C184.75,140.98,182.64,140.8,180.53,140.62z M136.13,63.15c0.25,2.39,0.56,4.5,0.66,6.63c0.26,5.67,0.43,11.35,0.65,17.02
		c0.05,1.34,0.09,2.7,0.3,4.02c0.07,0.45,0.6,0.86,1.01,1.16c0.08,0.06,0.76-0.45,0.78-0.73c0.13-1.59,0.91-1.39,1.91-0.96
		c5.4,2.37,10.8,4.71,16.49,7.18c-0.59,0.37-0.8,0.51-1.17,0.75c0.77,0.27,1.36,0.49,2.04,0.73c0-4.73,0.01-9.26-0.02-13.79
		c0-0.52-0.15-1.14-0.43-1.55c-1.78-2.54-3.36-5.32-5.49-7.46c-3.03-3.05-6.41-5.73-9.77-8.37
		C140.93,66.08,138.53,64.73,136.13,63.15z M120.36,111.15c0.01-0.13,0.01-0.26,0.02-0.39c-0.42-0.13-0.82-0.35-1.25-0.39
		c-3.45-0.37-6.89-0.75-10.35-1.03c-4.8-0.39-8.22,2.87-11.85,5.46c-0.95,0.68-0.8,2.01-0.31,3.02c0.48,0.99,1.41,0.85,2.21,0.46
		c1.5-0.73,2.95-1.56,4.44-2.32c0.36-0.19,0.76-0.34,1.16-0.4c3.75-0.52,7.49-1.02,11.49-1.56c-1.05-0.53-1.91-0.97-2.77-1.4
		c0.02-0.13,0.05-0.26,0.07-0.39c1.17-0.17,2.35-0.33,3.52-0.5C117.95,111.53,119.15,111.34,120.36,111.15z M110.7,121.32
		c-0.33,0.76-0.77,1.3-0.67,1.65c0.13,0.42,0.69,0.92,1.11,0.96c1.14,0.13,2.33,0.2,3.45,0.01c3.39-0.57,5.9-3.39,5.93-6.49
		c0.02-1.94-0.36-2.27-2.12-1.94c-0.5,0.09-1.02,0.1-1.52,0.14c-1.85,0.15-3.7,0.21-5.54,0.46c-1.54,0.2-1.84,0.76-1.46,2.29
		C110.16,119.5,110.5,120.59,110.7,121.32z M128.45,84.46c-2.14-4.38-5.77-6.73-9.21-9.42c0.5,2.87,1.11,5.68,1.9,8.44
		c0.13,0.45,0.97,0.9,1.51,0.94C124.48,84.53,126.34,84.46,128.45,84.46z M91.3,111.06c-0.62,1.99-0.26,3.7,0.78,4.2
		c1.11,0.54,2.71-0.09,3.41-1.38C93.66,113.83,92.25,113.04,91.3,111.06z"/>
	<path class="st0" d="M122.49,155.99c-2.6,0.42-4.77,0.87-6.97,1.09c-7.31,0.75-14.16,3.31-20.97,6.01
		c-3.8,1.51-7.72,2.46-11.76,2.7c-0.63,0.04-1.41-0.17-1.9-0.56c-2.51-2.03-4.94-4.17-7.41-6.25c-0.18-0.15-0.42-0.23-0.62-0.34
		c0.06-0.14,0.13-0.28,0.19-0.42c1.52-0.2,3.05-0.41,4.57-0.6c7.31-0.94,14.24-3.37,21.09-6.17c2.96-1.21,6.04-2.19,9.14-2.9
		c2.72-0.62,5.36,0.25,7.65,1.92C117.78,152.14,119.95,153.98,122.49,155.99z"/>
	<path class="st0" d="M118.07,116.58c-0.09,0.84-0.16,1.52-0.22,2.12c-0.47-0.32-0.93-0.62-1.39-0.93
		c-0.11,0.54-0.22,1.07-0.41,1.98c-0.43-0.66-0.71-1.29-1.15-1.7c-0.69-0.64-1.49-1.13-2.3-1.72
		C114.29,116.4,116.13,116.48,118.07,116.58z"/>
</g>
</svg>
