<svg xmlns="http://www.w3.org/2000/svg" xmlns:xlink="http://www.w3.org/1999/xlink" xml:space="preserve" id="Ebene_1" x="0" y="0" viewBox="0 0 1920 1080"><style>.st0{fill:#f4f4f9}.st1{fill:#ebeefa}.st2{fill:#e5ebfa}.st3{fill:#eff1fa}.st4{fill:#fdfdfd}.st5{fill:#d5d5de}.st6{fill:#fdf1b3}.st7{fill:#fed50d}.st8{fill:#4f4f56}.st9{fill:#a3a3a9}.st10{fill:#56565c}.st11{fill:#494950}.st12{fill:#bcbcc0}.st13{fill:#94be64}.st14{fill:#e3f3d1}.st15{fill:#2f66c0}.st16{fill:#fafcfe}.st17{fill:#9b9ba0}.st18{fill:#4e7dad}.st19{fill:#ac6c95}.st20{fill:#41b7e2}</style><image xlink:href="1065B38A.jpg" width="421" height="289" style="overflow:visible" transform="translate(-7232 -7652)"/><path d="M938.4 1080H0V0h1920v1080h-169.7c2.8-26.1-5.5-47.1-21.6-65.5-82.1-93.7-164-187.6-246-281.4-2.4-2.8-5.1-5.3-7.7-7.9-8.1-9.9-16.2-19.8-24.2-29.6 16.2 0 32.4 0 48.6-.1 8.9-3 14.6-9.6 17.2-19.7V384.3c-2.6-10.1-8.4-16.7-17.2-19.7h-323.9c-8.9 3-14.6 9.6-17.2 19.7 0 12.6 0 25.2-.1 37.7-6.3 2.6-12.6 5.3-18.9 7.9 0-15.2 0-30.4-.1-45.7-2.6-10.2-8.4-16.7-17.2-19.7H798.1c-9.1 2.8-13.9 10.4-17.2 19.7v291.5c2.6 10.2 8.4 16.7 17.2 19.7 60.6 0 121.2 0 181.9.1-.6 7.2-1.2 14.4-1.7 21.6-60 0-120.1 0-180.1.1-8.3 3.6-14.1 10.2-17.2 19.7v291.5c4.3 8.2 8.8 16.2 17.2 19.7 47.3 0 94.7 0 142 .1q-1.05 16.05-1.8 31.8M1122 37.6H798.1c-8.4 3.5-12.9 11.5-17.2 19.7v265.8c4.3 8.2 8.8 16.2 17.2 19.7H1122c8.4-3.5 12.9-11.5 17.2-19.7 0-85.1 0-170.3-.1-255.4 0-4.1-1.1-8.2-1.7-12.3-4-7.2-6.9-15.7-15.4-17.8M386.1 323.1V57.4c-2.6-10.2-8.4-16.7-17.2-19.7H45C35.8 40.4 31 48 27.7 57.4v265.7c3.3 9.3 8.2 17 17.2 19.7h323.9c8.9-3 15.1-9 17.3-19.7m19-265.7v265.8c4.3 8.2 8.8 16.2 17.2 19.7h323.9c8.4-3.5 12.9-11.5 17.2-19.7 0-85.1 0-170.3-.1-255.4 0-4.1-1.1-8.2-1.7-12.3-4-7.2-6.9-15.8-15.5-17.8H422.2c-8.3 3.4-12.8 11.4-17.1 19.7m1471.7 285.4c8.8-3.1 15.1-9 17.2-19.7V57.4c-2.6-10.2-8.4-16.7-17.2-19.7h-323.9c-9.1 2.8-13.9 10.4-17.2 19.7v265.7c3.3 9.3 8.2 17 17.2 19.7zm-701.3 0h323.9c9.1-2.8 13.9-10.4 17.2-19.7V57.4c-2.6-10.2-8.4-16.7-17.2-19.7h-323.9c-8.8 3.1-15.1 9-17.2 19.7v265.7c3.2 9.4 8.1 17 17.2 19.7M27.7 737.1v291.5c3.1 9.5 8.9 16.1 17.2 19.7h323.9c8.3-3.6 14.1-10.2 17.2-19.7 0-93.7 0-187.4-.1-281.2 0-4.1-1.1-8.2-1.7-12.3-4-7.2-6.9-15.8-15.5-17.8H44.8c-8.2 3.6-14 10.2-17.1 19.8m1849.1-41.5c8.3-3.6 14.1-10.2 17.2-19.7V384.4c-3.1-9.5-8.9-16.1-17.2-19.7h-323.9c-8.3 3.6-14.1 10.2-17.2 19.7v291.5c3.1 9.5 8.9 16.1 17.2 19.7zm-1507.9-331H45c-8.3 3.6-14.1 10.2-17.2 19.7v291.5c3.1 9.5 8.9 16.1 17.2 19.7h323.9c8.3-3.6 14.1-10.2 17.2-19.7V384.3c-3.2-9.5-8.9-16.1-17.2-19.7m377.4 331c8.9-3 14.6-9.6 17.2-19.7 0-93.7 0-187.4-.1-281.2 0-4.1-1.1-8.2-1.7-12.3-1.5-10.1-7.6-14.9-15.5-17.8H422.3c-8.9 3-14.6 9.6-17.2 19.7v291.5c2.6 10.2 8.4 16.7 17.2 19.7 108 .1 216 .1 324 .1m-324 21.7c-8.8 3.1-15.1 9-17.2 19.7v291.5c2.6 10.2 8.4 16.7 17.2 19.7h323.9c9.2-2.4 13.6-9.9 15.4-19.8.6-3.7 1.7-7.5 1.7-11.2.1-93.4.1-186.8.1-280.2-2.6-10.2-8.4-16.7-17.2-19.7z" class="st0"/><path d="M1450.8 695.6c8.1 9.9 16.1 19.8 24.2 29.6-2.3 1.8-6.3 3.4-6.6 5.6-2.8 21.1-5 42.2-7.3 63.3-2.6 23.7-5.1 47.5-7.6 71.2-2.6 24.1-5.3 48.1-7.9 72.2-2.6 23.7-5.2 47.5-7.8 71.2s-5.2 47.5-7.8 71.2h-249.3c2.3-24.1 4.5-48.2 6.9-72.3 2.9-29.3 5.8-58.6 9-87.8 3.2-29.9 6.7-59.7 10.1-89.6 2.7-23.7 5.8-47.3 8.2-71.1 2.2-21.1 3.8-42.4 5.6-63.6 76.8.1 153.6.1 230.3.1" class="st1"/><path d="M1430 1080c2.6-23.7 5.2-47.5 7.8-71.2s5.2-47.5 7.8-71.2c2.6-24.1 5.3-48.1 7.9-72.2 2.6-23.7 5.1-47.5 7.6-71.2 2.3-21.1 4.5-42.3 7.3-63.3.3-2.2 4.3-3.7 6.6-5.6 2.6 2.6 5.3 5.1 7.7 7.9 82 93.8 163.9 187.7 246 281.4 16.1 18.3 24.4 39.3 21.6 65.5-106.7-.1-213.5-.1-320.3-.1" class="st2"/><path d="M1220.6 695.6c-1.8 21.2-3.4 42.4-5.6 63.6-2.5 23.7-5.5 47.4-8.2 71.1-3.4 29.9-6.9 59.7-10.1 89.6-3.1 29.3-6.1 58.6-9 87.8-2.4 24.1-4.6 48.2-6.9 72.3H938.4c.6-10.5 1.1-21.1 1.7-31.6 57.9 0 115.7 0 173.6-.2 3.3 0 6.6-1.2 9.8-1.8 7.1-3.6 12.8-8.5 14-18 .6-3.4 1.6-6.9 1.6-10.3.1-90.1.1-180.3 0-270.4 0-3.4-1.1-6.9-1.6-10.3-1.4-10.4-7.3-15.7-15.7-18-3.3-.6-6.6-1.8-9.8-1.8-44.6-.2-89.2-.1-133.8-.2.6-7.2 1.2-14.4 1.7-21.6 44.6 0 89.2 0 133.7-.2 3.3 0 6.6-1.2 9.8-1.8 7.1-3.6 12.8-8.5 14-18 .6-3.8 1.6-7.5 1.6-11.3.1-78.1.1-156.2.1-234.3 6.3-2.6 12.6-5.3 18.9-7.9 0 80.8 0 161.5.1 242.3 0 3.8 1.1 7.5 1.6 11.3 4.7 6 9.4 12 14 18 2.7.6 5.4 1.8 8 1.8 13.1 0 26-.1 38.9-.1" class="st3"/><path d="M405.1 737.1c2.1-10.7 8.4-16.7 17.2-19.7 3 .7 6 1.9 9 1.9q153 .15 306 0c3 0 6-1.2 9-1.9 8.9 3 14.6 9.6 17.2 19.7-.6 4.1-1.7 8.2-1.7 12.3-.1 93.1-.1 186.1-.1 279.2-1.9 9.9-6.2 17.4-15.4 19.8-3-.7-6-1.9-9-1.9q-153-.15-306 0c-3 0-6 1.2-9 1.9-8.9-3-14.6-9.6-17.2-19.7.6-3.4 1.7-6.8 1.7-10.3.1-90.3.1-180.6 0-271 0-3.5-1.1-6.9-1.7-10.3m116 228c-.2-.9-.5-1.7-.7-2.6-.3.4-.6.7-.8 1.1.5.5 1 .9 1.5 1.5.1 2.2.1 4.5.1 6.8.6.1 1.2.1 1.8.2.5-2.4 1-4.7 1.6-7.1 2.7 2.3 5.3 4.5 8 6.8.6-.7 1.1-1.4 1.7-2.1-.5-2.8-.9-5.6-1.8-10.4-3 2.2-5.4 4-7.8 5.8zm117.7-49.6c-.4-2.2-.8-4.5-1.2-6.7-.6.1-1.2.3-1.8.4v11.4c1.3-2.2 2.2-3.6 3-5.1 2.2 2.1 4.5 4.2 6.7 6.3.6-.6 1.2-1.2 1.7-1.8-.2-3.8-.5-7.6-.8-12.3-3.3 3.4-5.4 5.6-7.6 7.8M574.7 881c5.6-.6 11.2-1.2 17.4-1.9-.6-2.1-1.4-6.2-2.8-9.9-1-2.6-2.9-4.8-4.5-7.2-1.3 2.2-2.7 4.4-4 6.6-1.4 2.4-1.2 9.2-6 3.2v-9.5c-.7-.4-1.5-.8-2.2-1.2-2.1 3.7-4.3 7.3-6.4 10.9-2.3-3.9-4.3-7.4-6.4-10.9-.5.5-1.1.9-1.6 1.4v19.1c.5 0 1 .1 1.6.1.5-2.8 1.1-5.6 1.8-9.7 1.6 3.8 2.7 6.5 4.4 10.6 1.9-4.2 3.2-7.1 4-9 1.6 2.5 3.2 5 4.7 7.4m-89-94.8c-.9-3.3-2.5-6.5-2.7-9.8-.7-13-.8-13.4-11.8-13.4H466c-24.4.4-20.9-3.8-21.1 23.9-.1 21-1.7 19.6 16.3 19.7 1.7 0 3.4.3 5.2.4-3.6 20.6-2.2 22.6 15.2 22.6h.9c22.2-.4 20.6 4.1 20.7-23.8.1-23-.4-19.4-17.5-19.6m9.4 95.7c.6-.2 1.2-.3 1.7-.5V862c-.7-.3-1.3-.6-2-.9-2.1 3.6-4.1 7.2-6.1 10.7-2.3-3.7-4.5-7.2-6.8-10.8-.4.6-.9 1.1-1.3 1.7v19h1.7c.4-2.9.8-5.8 1.4-9.8 1.9 3.8 3.3 6.7 4.9 10 1.6-3.2 2.9-5.6 4.4-8.5.8 3.4 1.4 5.9 2.1 8.5m-1.8 87.8c2.5 1.9 4.6 3.4 6.7 5l5.1-9.3c-2.9-1.2-5.7-2.6-8.7-3.5-1.5-.4-3.2-.2-4.7.2-2.3.6-4.6 1.7-5.7 2.1-3.4-1.3-6.1-2.3-9.7-3.7V972c6.2-.8 12.2-1.7 17-2.3M448 861v21.8c2.7-3.7 4.6-6.3 6.5-8.8 2.1 2.5 4.2 5 6.5 7.8v-19.7c-2.5 3-4.5 5.4-6.5 7.7-1.9-2.5-3.7-5.1-6.5-8.8m161.3 4.9c-2.5-5.3-7.4-5.9-11.1-2.6-2.5 2.2-4.6 8.1-3.8 11.5.7 3.1 5.5 6.7 8.5 6.7 2.9.1 5.8-4.2 8.7-6.5-.5-.9-1-1.8-1.6-2.7h-6.4c.8 1.9 1.4 3.4 2 4.9-2.1.1-5.5 1-6 .1-1.2-2.5-2-8.1-1.4-8.4 3.1-1.7 6.8-2 11.1-3m15.3 15.7c0-.5-.1-1-.1-1.5-2.4-1-4.8-2-8.8-3.7 3.5-2.1 5.5-3.2 7.8-4.6-2.6-1.7-4.5-2.9-7.6-4.9 3.8-1.4 6-2.2 8.2-3-.1-.4-.2-.8-.3-1.3h-10v19zm-80.3-6.7c-4.5-3.7-7-7.3-9.4-7.2s-4.6 4-6.9 6.3c2.2 2.7 4.1 6.8 6.7 7.5 2 .6 4.9-3.2 9.6-6.6m-70.1 45.8 2.7-1.2c-1.4-2.6-3.4-7.7-3.9-7.5-4.8 1.8-12.5-4.2-14.6 5.8 3.9 1 7.4 2 11.4 3.1.6-1.8 1.3-3.8 2.2-6.1.7 2.1 1.4 4 2.2 5.9m27.3-58.4v19.1h9.7c-11.4-1.7-4-13.8-9.7-19.1m-36 0c1.2 3.1 2.8 6.1 3.5 9.2.7 3.3.5 6.9.8 10.3.5-.1 1-.1 1.6-.2 1.3-6.5 2.6-12.9 4-19.3zm280.8-497.7c7.8 2.9 13.9 7.7 15.5 17.8 0 94.1 0 188.1.1 282.2 0 3.8 1.1 7.5 1.7 11.3-2.6 10.2-8.4 16.7-17.2 19.7-3-.7-6-1.9-9-1.9q-153-.15-306 0c-3 0-6 1.2-9 1.9-8.9-3-14.6-9.6-17.2-19.7.6-3.4 1.7-6.8 1.7-10.3.1-90.3.1-180.6 0-271 0-3.4-1.1-6.8-1.7-10.3 2.6-10.2 8.4-16.7 17.2-19.7 3 .7 6 1.9 9 1.9q153 .15 306 0c2.9 0 5.9-1.2 8.9-1.9m-67.6 47.6 1.2-2.1s-.4-.3-.6-.5c-.2.8-.5 1.7-.7 2.5l-.3.9c.1-.3.3-.5.4-.8M495.2 527.3h.2l-.3-.2c-.7-3-1.3-6.1-2-9.1-.6.6-1.2 1.2-1.7 1.8-.6-.6-1-1.4-1.7-1.7-2.4-1.2-4.8-2.5-7.4-3.2-.7-.2-2.7 2.7-2.6 2.9 1.4 2.1 3 4 4.6 6 .3.3.2 1 .3 1.9-1.6-.1-3.1-.2-4.7-.3v3.1c3-.4 7 .3 8.7-1.6 3-3.2 4.5-3.1 6.6.4m-35.3-70.6c-1.5-4-3-8-4.6-12.1-7.4-2.6-11.4-.2-10.5 9.8.5 5.2-.2 10.6.2 15.8.2 2.3 1.7 6.3 2.7 6.3 7.6.4 15.6 1.2 22.8-1 2.3-.7 2.6-10.1 3.8-15.6 6.9-.1 13.8-.4 20.7-.1 5.6.3 8-2.8 8-8.7.1-10.9.6-21.8-.3-32.6-.3-3-4.6-7.8-7.3-8-9.4-1-19-1-28.4 0-2.8.3-7.5 4.9-7.6 7.7-.5 12.8.3 25.7.5 38.5m126.7 72.5c3.8 1.8 6.9 3.3 10.1 4.8 1.9-5.9 3.8-11.7 5.7-17.6-.8-.8-1.6-1.5-2.4-2.3-4.6 1.1-9.3 2.2-14.6 3.5-5.3-5.8-6.3-5.5-14.7 8.8 6.3 1.2 11.6 2.1 15.9 2.8m-124.8-19.4c-1.3-.2-2.5-.4-3.8-.5-.2 3 0 6.1-.7 8.9-.7 2.7-2.3 5-3.4 7.5-1-2.4-2.4-4.6-2.9-7.1-.6-3-.6-6.2-.8-9.4-1.4.3-2.7.5-4.1.8 1.2 6.1 2 12.3 4 18 .4 1.2 7.9 1.1 8.2 0 1.9-5.8 2.5-12.1 3.5-18.2m40.1 16.5c3.8 1 8.6 2.2 13.9 3.6 0-5 .8-8.4-.2-10.8-.8-2.1-3.6-3.7-5.7-4.2-1.2-.3-3.2 1.9-4.3 3.5-1.4 1.8-2.1 4.4-3.7 7.9m36.7-.7H530c0-.5-.1-1.1-.1-1.6 2.5-.5 5.1-1 7.6-1.6-.3-7.3-3.8-9.9-8.5-7.2-2 1.1-4 6.8-3.2 9.3 1.9 6.5 6.3 6.1 12.8 1.1m76.3-2.9c.5-1 1-2 1.5-2.9-2.6-1.8-5.6-5.4-7.8-4.9-2.3.5-5.5 5.3-5.3 7.8.3 2.5 4.2 4.8 6.9 6.3.9.5 3-1.5 6.6-3.5H608c0-.5-.1-1.1-.1-1.6 2.3-.3 4.6-.7 7-1.2m-83.3 40.8c-3.6-1.6-7-3.7-10.5-4.4-1.2-.2-3.5 2.9-4 5-.3 1 1.9 4.2 3.3 4.4 3.7.6 7.8 1 11.4-.1 1.4-.4 2-4.8 2.8-7.4.1-.2-.7-.7-1.6-1.5-.8 2.2-1.4 4.1-1.4 4m97.6 28.4c3.8.2 7.1.9 10.3.4 1.6-.3 3-2.8 4.5-4.3-1.6-1.8-2.9-4.6-4.7-5-3-.7-6.2.2-10 .5-.1 2.7-.1 5.6-.1 8.4m112.3-210v-.9h-58.2v.9zM561.5 529c.8-.1 1.6-.1 2.4-.2.2-4.3.4-8.5.6-13.6h-12.2c.4 5.1.7 9.5 1 13.9.6-.1 1.1-.1 1.7-.2.8-3.9 1.6-7.8 2.5-11.7.8.1 1.6.1 2.5.2.4 3.9.9 7.8 1.5 11.6m121.8-112.4v1h58.3v-1zM513.4 604c.2 4.7.4 8.2.5 10.3 3.8.4 7.1.7 10.4 1v-7.7c-3.5-1.1-6.9-2.2-10.9-3.6m179.9-202.4c3.4.6 5.9 1 8.9 1.5v-9c-3.1-.4-5.7-.7-8.9-1.1zm32.2-.8c0-1.2-.1-2.3-.1-3.5-2.2-.6-5.3-2.5-6.4-1.5-1.7 1.5-2.1 5-3.9 10.3 5.2-2.6 7.8-4 10.4-5.3m-14.3 2.8c1-.9 2-1.8 2.9-2.7-1.8-2.2-3.5-4.4-5.3-6.6-.9.9-1.8 1.8-2.7 2.8 1.7 2.2 3.4 4.4 5.1 6.5M673 588.1l-.3-4.2c-2.4.5-4.9 1.1-7.3 1.6.1.9.3 1.7.4 2.6zm54.7-184.9c.9-.1 1.7-.2 2.6-.3l-.9-9c-.8.1-1.5.2-2.3.3.3 3 .4 6 .6 9m-87.3 210.3c-1.3-1.2-2.6-2.7-2.9-2.5-1.3.8-2.4 2.1-3.3 3.5-.2.3 1.6 2.6 1.8 2.5 1.5-.8 2.6-2 4.4-3.5m107.4-205c-.6 1.3-1.3 2.1-1.2 2.8s.9 1.2 1.5 1.8c.4-.7 1.2-1.4 1.2-2.2 0-.5-.8-1.2-1.5-2.4m-.6-19h1.7c0-1.3 0-2.7-.1-4 0-.1-.9-.1-1.4-.2 0 1.4-.1 2.8-.2 4.2m-66.9-1.5c-.3-.8-.6-1.6-.9-2.5-.6.4-1.2.7-1.8 1.1.4.8.8 1.6 1.3 2.2 0 .1.8-.5 1.4-.8m441.5 331.3c8.5 2.3 14.4 7.6 15.7 18v291c-1.2 9.5-7 14.5-14 18-105.8 0-211.6-.1-317.3 0-2.7 0-5.4 1.2-8.1 1.9-8.4-3.5-12.9-11.5-17.2-19.7.6-3.4 1.7-6.8 1.7-10.3.1-90.3.1-180.6 0-271 0-3.4-1.1-6.8-1.7-10.3 3.1-9.5 8.9-16.1 17.2-19.7 2.7.7 5.4 1.9 8.1 1.9 105.2.2 210.4.2 315.6.2m-67.4 45.7 1.2-2.1s-.4-.3-.6-.5c-.2.8-.5 1.7-.7 2.5l-.3.9c.1-.3.3-.6.4-.8M893.6 869.9c-3-.5-7.1-2.5-8.8-1-1.8 1.7-1.7 6.5-1.8 10 0 1 2.2 2.6 3.6 2.9 2.2.4 4.5 0 6.7-.1 1.3-1 2.6-2 3.8-3 4.8 8.8 8.8 1.5 13.1-.8 5.8 5.7 9.5 5.8 10.8 0 .6-2.8-.2-6-.3-9-3.4.3-6.7.6-10.1.9-1.7.7-3.4 1.3-5.1 2h.1c.2-6.1-2.3-7.3-6.8-4.8-1.8 1.1-3.5 2-5.2 2.9m-73-74.5c0 7.6.1 15.2 0 22.8-.2 7.9 3.2 11.5 10 11.4 13-.1 25.9-.1 38.9 0 5.6 0 9-3.1 9.1-9.4.3-16.1.5-32.3-.4-48.4-.2-3.1-5.2-8.2-8.2-8.4-13.5-.9-27.1-.4-40.6-.4-6.2 0-8.7 4-8.7 10.7-.1 7.2-.1 14.4-.1 21.7m2.6 87.8c4.6-1.6 10.1-1.7 11.6-4.6 1.8-3.4 1.3-10-.6-13.5-1.4-2.7-6.6-2.8-11-4.4zm95.9 34.8c-.7-9.5-7.5-4.5-11.3-6.1-.4-.2-2.9 3.3-2.8 5.1 0 1.5 2.2 4.2 3.5 4.2 4.5.3 9-.4 13.8-.7v-8c-.4-.1-.8-.2-1.1-.3-.8 2-1.5 3.9-2.1 5.8M876 881.4c.8.1 1.6.2 2.3.3.9-7.1 1.7-14.2 2.8-23-9.7 7-4.3 15.5-5.1 22.7m183-147.7v1h58.3v-1zm58.1 36.8-.3-.9h-57.4v.9zm-48.7-24.9c.2 4.2.3 7.4.4 8.3 4.2.9 6.6 1.4 9.3 2V747c-3.2-.5-5.8-.9-9.7-1.4m32.8 7.9c-.1-1.2-.1-2.3-.2-3.5-2.2-.6-5.2-2.4-6.4-1.4-1.7 1.5-2.1 5-3.9 10.4 5.3-2.8 7.9-4.1 10.5-5.5m-14.4 2.9c.8-.3 1.5-.6 2.3-.9-.6-2.6-.9-5.4-2-7.5-.3-.7-3.2.4-6.3.9 2.8 3.4 4.4 5.4 6 7.5M847.2 963.5c.2 1.3.5 2.6.7 3.9l7.2-1.2c-.2-1.4-.4-2.7-.6-4.1-2.4.5-4.8.9-7.3 1.4m256.5-207.7c.7-.1 1.5-.1 2.2-.2-.2-3-.4-5.9-.6-8.9-.5 0-1.1.1-1.6.1zm21.7 7.5c-.8-.6-1.5-1-2.1-1.4-.4.8-1 1.6-1 2.3.1.6 1 1.1 1.6 1.6.5-.6.9-1.4 1.5-2.5m-70.8-26c-.6 1.2-1.2 1.9-1.3 2.6-.1.5.6 1.5.9 1.5.6-.1 1.6-.7 1.6-1.1-.1-.8-.6-1.6-1.2-3m69.9.4c-.5.1-1 .1-1.5.2.2 1.5.3 2.9.5 4.4.5-.1.9-.1 1.4-.2-.2-1.4-.3-2.9-.4-4.4m-197.3 180c-.1.2-.3.4-.3.5.1.6.2 1.2.3 1.7.2-.2.6-.5.6-.6 0-.5-.3-1-.6-1.6M27.7 384.3c3.1-9.5 8.9-16.1 17.2-19.7 3 .7 6 1.9 9 1.9q153 .15 306 0c3 0 6-1.2 9-1.9 8.3 3.6 14.1 10.2 17.2 19.7-.6 3.4-1.7 6.8-1.7 10.3-.1 90.3-.1 180.6 0 271 0 3.4 1.1 6.8 1.7 10.3-3.1 9.5-8.9 16.1-17.2 19.7-3-.7-6-1.9-9-1.9q-153-.15-306 0c-3 0-6 1.2-9 1.9-8.3-3.6-14.1-10.2-17.2-19.7.6-3.4 1.7-6.8 1.7-10.3.1-90.3.1-180.6 0-271 0-3.4-1.1-6.8-1.7-10.3m130 142.1c3.7 1.2 7.4 2.3 10.9 3.4v-21.6c-1-.9-2.1-1.7-3.1-2.6 4.5 13.8-6.8 5.9-7.8 12.2-1.3-.3-2.6-.8-3.9-.9-3.3-.2-6.9-1-9.8.3-1 .5-1.3 8.4-.1 9.1 2.7 1.6 6.4 1 9.8 1 1.4 0 2.7-.6 4-.9m-64-9.5c-.3 3.5-.5 7.1-.8 10.6.6.1 1.1.3 1.7.4 1-1.7 2-3.3 1.7-2.9 4.4 1.6 7.8 3.6 11.1 3.6 1.3 0 3.9-4.3 3.8-6.5-.2-2.6-2.8-7.1-4.2-7-3.5.3-6.9 2.6-11.2 4.6.1.1-1.1-1.3-2.2-2.7-7.5-3.3-14.3-9.9-22.9-7.4v17.7c4-2.8 7.8-5.5 11.8-7.8.3-.2 1.9 2.7 2 2.8 0-5.6 3.2-7.6 9.2-5.4m3.5-106.7c-6.6 0-13.3.1-19.9 0-6.4-.2-9.8 3-9.8 10.5v45.5c0 7.4 3.5 10.7 9.8 10.7 13 0 25.9-.1 38.9 0 6.2 0 9.2-3.9 9.4-10.3q.45-23.25 0-46.5c-.1-6.6-3.3-10.2-9.5-10-6.3.3-12.6.1-18.9.1m162 200.9c2 3.5 2.7 4.3 2.9 5.2 2.9 13.1 8.7 0 13 1.6 1.1.4 3.8-2 4.6-3.8.5-1.2-1.2-5.2-1.9-5.2-5.8.4-11.5 1.3-18.6 2.2M193.6 511c-3 5.2-6.4 8.8-5.9 10.9.8 3 4.5 6.3 7.3 6.8 1.6.3 5.3-4.8 5.4-7.6 0-2.5-3.4-5.3-6.8-10.1m-65.3 22.1c3.3-5.2 6.8-8.4 6.3-10.6-.6-3-4.1-5.3-6.3-7.9-2.2 2.5-5.7 4.8-6 7.6-.3 2.4 2.9 5.4 6 10.9m168 80.8c3.8 1.4 7 3 10.4 3.6 1.8.3 4.5-.3 5.7-1.7.8-.9.3-4.6-.7-5.9-2.3-3.2-13.5.1-15.4 4m-48.3-1.2c1.6 1.8 3.2 3.5 4.8 5.3 1-1.2 2-2.5 3-3.7-1.7-1.8-3.2-4.4-5.2-5.2-2.6-1-6-1.6-8.3-.5-1.6.8-2.1 4.8-3 7.5-.1.2.7.8 1.6 1.7.8-2.1 1.5-4 2.3-6.1.7 2 1.4 3.9 2.7 7.5 1.1-3.3 1.6-4.9 2.1-6.5m925.9 80.9c-4.7-6-9.4-12-14-18v-282c0-3.1-1.1-6.2-1.7-9.3 2.6-10.1 8.4-16.7 17.2-19.7 3 .7 6 1.9 9 1.9q153 .15 306 0c3 0 6-1.2 9-1.9 8.9 3 14.6 9.6 17.2 19.7-.6 3.4-1.7 6.8-1.7 10.3-.1 90.3-.1 180.6 0 271 0 3.4 1.1 6.8 1.7 10.3-2.6 10.1-8.4 16.7-17.2 19.7-2.7-.7-5.4-1.9-8.1-1.9-105.8-.1-211.6-.1-317.4-.1m119.4-174.4-.1-.3c-1 2.8-1.9 5.6-2.9 8.4 3.3.7 6.7 1.4 10.7 2.2-.3-5.2 0-8.9-.9-12.2-.4-1.4-3.1-2.7-4.8-2.6-1.6.1-3.2 1.9-4.8 3 1 .5 1.9 1 2.8 1.5m15.8-1.8c1.7.2 4.6 6 5.9 11.4 2-1.2 4-2.4 6.7-4.1-1.8-5-3.9-10.9-5.9-16.5-2.3 3.2-4.4 6.2-6.5 9.2h-2.6zm67.3 7.9c9.9 7 14.7 5.5 16.5-5.6h-6.2c.6 1.9 1.1 3.4 1.6 4.9-2.1 0-5.6.9-6-.1-1.2-2.5-2-8.1-1.3-8.5 3.1-1.7 6.9-2 11-3-2.6-5.1-7.8-6-11.2-2.2-2.9 3.2-3 9.6-4.3 14.6-.5-.2-1.2-.3-1.4-.8-2.4-5.1-4.7-10.3-7-15.5-2.4 6.2-4.9 12.4-7.3 18.6-.1.1.3.5.5.8.2-.9.4-1.7.6-2.6 3.6.8 7.2 2 10.9 2.3 1.2.2 2.4-1.8 3.6-2.9m-149.1-115.1c-6.6 0-13.3.1-19.9 0-6.5-.1-9.5 3.6-9.4 10.9v44.5c0 7.2 2.7 11.2 9.3 11.3h39.8c5.7 0 8.8-3.5 8.9-9.6.3-15.8.2-31.6 0-47.5-.1-6.8-3.7-9.9-9.7-9.6-6.3.2-12.6 0-19 0m-13 119.4c.8 0 1.6-.1 2.4-.1 1.4-6.4 2.9-12.9 4.3-19.3-.8-.3-1.7-.5-2.5-.8-1.2 3.2-2.3 6.4-3.7 10.3-1.6-4.4-2.8-7.6-4.7-13.1-2 5.9-3.1 9.1-4.4 13.1-1.5-4.1-2.8-7.4-4-10.7-.8.3-1.6.7-2.4 1 1.4 6.5 2.9 13.1 4.3 19.6.8-.1 1.6-.3 2.3-.4 1.4-3.1 2.7-6.3 4.4-10.1 1.7 4.4 2.9 7.4 4 10.5m54.9-.6c.6 0 1.3 0 1.9-.1l2.4-11.7c.6.1 1.3.2 1.9.4.7 3.9 1.3 7.8 2 11.6.5 0 1 0 1.4-.1l2.4-11.7c.7.1 1.4.1 2.1.2.7 3.8 1.5 7.7 2.7 13.9 3.5-15.5 4.8-19-18.2-15.9.5 4.4.9 8.9 1.4 13.4m86.4-.1c.5-.1 1-.3 1.5-.4v-19.2c-.7-.3-1.5-.5-2.2-.8l-5.4 10.8c-2.4-3.6-4.8-7.3-8.5-12.9v22.5c.5 0 1.1.1 1.6.1.5-2.9 1.1-5.9 1.8-9.6 1.7 3.8 3 6.5 4.6 10 1.6-3.4 2.8-5.8 4.3-8.9.9 3.5 1.6 6 2.3 8.4m-52.8 32.3c-.2 1.8-.5 3.6-.7 5.3 3.1 1.7 6.1 4.1 9.4 4.8 2.1.4 4.7-1.3 6.7-2.8 1.7-1.2 3.3-3.1 4-5.2.3-.9-1.7-4.2-2.5-4.2-5.6.4-11.2 1.4-16.9 2.1m94.1-31.9c4-.2 7.1-.4 10.2-.5v-1.3c-2.3-1-4.7-2.1-8.6-3.8 3.5-2.1 5.5-3.3 7.8-4.7-2.6-1.7-4.4-2.8-7.4-4.8 3.7-1.7 5.9-2.6 8.1-3.6-.1-.4-.3-.7-.4-1.1h-9.7zm-137.8-8c-4-3.3-6.8-7.1-8.3-6.5-2.8 1.1-4.8 4.8-7.2 7.4 2.2 2.4 4.4 6.6 6.7 6.7 2.3 0 4.8-3.9 8.8-7.6m-27.5 9.2c1.1-1.4 2.1-2.8 3.2-4.2-2.2-3.9-3.9-10.6-6.8-11.3-7.1-1.7-3.3 7.4-5.9 10.6 3.2 1.6 6.4 3.2 9.5 4.9m103.5 77.1v11.8c3.6-.5 7.2-.8 10.7-1.7 2.1-.5 4.5-1.3 5.9-2.9.6-.6-1.1-3.9-1.8-5.9-2.1 1-4.2 2-5.4 2.6-2.9-1.2-5.7-2.3-9.4-3.9m-49.7-45.5c.8 2.1 1.5 4 2.7 7.1 1.2-3.1 1.9-5 2-5.4 1.9 1.5 3.9 3 5.8 4.5.7-1.5 1.4-3 2.1-4.6-4.5-1.7-9-3.8-13.6-4.7-.8-.2-2.4 5-3.7 7.7.8.4 1.7.8 2.5 1.2.7-1.8 1.4-3.6 2.2-5.8m-75.1 32.1c1.2-4.2 1.7-6 1.9-6.8 1.8 1.2 3.6 2.6 5.5 3.9.4-.7.8-1.5 1.2-2.2-.4-.5-1-.8-1.2-1.4-2.2-6.7-7.2-6-11.5-4.8-1.5.4-2 5-3 7.7.8.4 1.6.7 2.4 1.1.6-1.8 1.2-3.6 2-5.9.8 2.5 1.4 4.2 2.7 8.4m18-31.7c.9 1.9 1.8 3.8 3.1 6.6.9-3.2 1.4-5 2-6.9 1 2.1 1.9 4 2.8 5.8l2.4-2.4c-2.1-2.3-3.9-5.8-6.4-6.5-3-.9-7.9-2.5-8.1 4.6 0 1.4.4 2.8 1.1 6.7 1.7-4.2 2.4-6.1 3.1-7.9m648.5-197.9c8.3 3.6 14.1 10.2 17.2 19.7-.6 3.4-1.7 6.8-1.7 10.3-.1 90.3-.1 180.6 0 271 0 3.4 1.1 6.8 1.7 10.3-3.1 9.5-8.9 16.1-17.2 19.7-3-.7-6-1.9-9-1.9q-153-.15-306 0c-3 0-6 1.2-9 1.9-8.3-3.6-14.1-10.2-17.2-19.7.6-3.4 1.7-6.8 1.7-10.3.1-90.3.1-180.6 0-271 0-3.4-1.1-6.8-1.7-10.3 3.1-9.5 8.9-16.1 17.2-19.7 3 .7 6 1.9 9 1.9q153 .15 306 0c3 0 6-1.2 9-1.9m-117.8 224c-1.1-1.5-1.9-4-3.2-4.3-3.4-.9-7.1-1.5-10.6-.9-.9.2-1.2 5.1-1.7 7.9.7.2 1.3.4 2 .5.7-1.9 1.4-3.7 2.2-5.8.8 2.1 1.5 4 2.6 7.2 1.2-3.2 1.8-5.1 1.8-5 2.6 1.1 4.6 1.9 6.6 2.8 2.6.2 6.7-.8 7.6.6 7.1 11.9 8.5-.1 12.3-2.9-5.2-7-14.9-6.7-19.6-.1m-154.5-178.4c-6.3 0-12.7.2-19 0-6.9-.2-10.1 3.3-10 11.2.1 14.5.1 29 0 43.6-.1 8.3 3.2 12.1 10.5 12 12.4-.1 24.8-.2 37.2 0 6.9.1 10.4-3.6 10.6-11.1.2-15.2.2-30.4 0-45.5-.1-7.2-3.6-10.6-10.1-10.3s-12.9.1-19.2.1m12.9 107.4c.7-.1 1.4-.3 2.1-.4.9 4 1.9 8 3.4 14.3 1.4-6.4 2.2-10.3 3-14.2.7.1 1.4.2 2 .3.7 3.8 1.5 7.7 2.6 13.9 3.3-14.8 2.5-15.1-7.7-16.6-6-.9-11.7 4.1-17.7-.1-.8-.6-4.5 4.2-6.8 6.5 2.3 2.7 4.2 6.7 6.9 7.6 3.2 1.1 7.2-.4 10.8-.7.5-3.7.9-7.2 1.4-10.6m-30.9 11.7c1.7-2.8 3-4.8 4.4-7 1.3 2.7 2.3 4.8 3.3 6.9.5-.2.9-.4 1.4-.6v-18.9c-.8-.5-1.6-1-2.4-1.6-2.2 4-4.4 8.1-6.2 11.4-2.2-3.5-4.5-7.3-6.8-11.1l-1.7 1.7v18.8c.5.1.9.2 1.4.2.9-2.2 1.7-4.3 2.9-7.2 1.4 2.9 2.4 4.9 3.7 7.4m81.1-13.7c-5.7-.3-12.5-4.2-13.1 4.9-.3 4.5 4.1 13.7 6 13.6 10.7-.8 5.3-11 7.1-18.5m83.2 17.3c3.1-5.3 6.3-8.4 6-11-.3-2.8-3.9-5.1-6-7.6-2.4 2.7-6 5-6.6 8.1-.5 2.2 3.2 5.5 6.6 10.5m-66.3-9.8c-3.7-4.1-5.8-8.3-7.8-8.2-2.5.1-5 3.6-7.5 5.7 2 2.9 3.6 6.7 6.2 8.4 1.3.7 4.5-2.8 9.1-5.9m49.3 8.1c-1.9-8.1 2.3-15.7-6.2-16.6-7.3-.8-2.9 8-6 10.9 3.5 1.5 6.8 3.1 12.2 5.7m-31-5.2c-.1-.7-.2-1.5-.2-2.2 2.7-.4 5.3-.8 8-1.2.4-.9.8-1.8 1.1-2.6-2.4-1.8-4.6-5-7.1-5.1-1.9-.1-5.3 3.1-5.7 5.3-.5 2.5 1.1 6.9 2.9 8.1 2 1.3 5.4-.2 8.2-.5-.1-.7-.2-1.5-.3-2.2-2.4.1-4.7.2-6.9.4m-57 2c0-.8-.1-1.7-.1-2.5h-7.1c0-.6 0-1.2-.1-1.7 2.6-.4 5.3-.7 10.9-1.5-3.8-3.7-5.8-7.1-8-7.3-2.1-.2-5.8 2.1-6.5 4.3-.8 2.3.4 7.3 2 8.4 2.3 1.5 5.9.3 8.9.3m8.3 39.4c-.6-10.4-6.4-7.7-10.5-8.1-.7-.1-2.2 3.5-2.2 5.4 0 1.3 1.8 3.6 2.9 3.8 3.7.5 7.6.7 11.2-.1 1.3-.3 2.3-3.4 3-5.4.3-.9-.3-2.2-.8-5.7-1.5 4.3-2.2 6.2-3.6 10.1m60.6 18.5c1 2.2 1.9 4 3.2 6.9 1-3.2 1.5-4.9 1.3-4.3 2.8.6 5 1.1 7.2 1.6.2-1.8.4-3.7.6-5.5-6.7-.4-13.4-.9-20.1-1.3-.4 1-.8 2.1-1.1 3.1 2.3 2 4.6 3.9 7.2 6.2.6-2.9 1.1-4.7 1.7-6.7m-3.9-19.1c-7.8-11-14.5-10.6-19.9.7 3.9-1.3 6.5-2.2 9.3-3.1 0 .1.7 1.9 1.9 5 1.1-3.3 1.7-5 1.4-4.3 3 .7 5.1 1.2 7.3 1.7m-25.7-37.9h2c.7-3.8 1.3-7.6 2-11.4.8 0 1.7-.1 2.5-.1.7 3.9 1.4 7.8 2.1 11.8.8-.1 1.6-.2 2.4-.2-.3-4.1.6-9.4-1.3-12.1-1.6-2.3-6.4-1.7-9.7-2.3zm75.1 87.4c.9.4 1.9.8 2.8 1.3.6-1.8 1.2-3.7 2-5.9 1 2.4 1.7 4.2 2.9 7.2 1.1-3.2 1.7-5 1.6-4.9 2.3 1.2 4.2 2.2 6.1 3.1.5-1.7.9-3.3 1.4-5-4.4-1.3-8.8-3.1-13.3-3.4-1-.1-2.3 4.9-3.5 7.6m-146.7-3.4c-.6-.9-1.1-1.8-1.7-2.7l-4.2 3c.7.9 1.7 2.7 2 2.6 1.3-.7 2.6-1.9 3.9-2.9m124.3-85 .7-.1-.1.4zM368.9 717.3c8.6 2 11.5 10.5 15.5 17.8 0 94.1 0 188.1.1 282.2 0 3.8 1.1 7.5 1.7 11.3-3.1 9.5-8.9 16.1-17.2 19.7-3-.7-6-1.9-9-1.9q-153-.15-306 0c-3 0-6 1.2-9 1.9-8.3-3.6-14.1-10.2-17.2-19.7.6-3.4 1.7-6.8 1.7-10.3.1-90.3.1-180.6 0-271 0-3.4-1.1-6.8-1.7-10.3 3.1-9.5 8.9-16.1 17.2-19.7 3 .7 6 1.9 9 1.9q153 .15 306 0c2.9.1 5.9-1.2 8.9-1.9M290.7 913c-3.7-1.5-7.3-3.1-11.6-4.9v13c4.2-1.2 7.9-2.2 11.7-3.3 3.1.7 6.1 1.5 9.2 2.2-.2-3.6.8-8.6-.9-10.5-3.4-3.7-6.9-1.7-8.4 3.5M67.5 795.8c0 7.3.2 14.5 0 21.8-.2 8.3 3.1 12.1 10.4 12.1 12.4-.1 24.8-.2 37.2 0 6.8.1 10.5-3.4 10.6-11 .2-15.2.2-30.4 0-45.5-.1-6.5-2.9-10.4-9.2-10.3-13.3.2-26.5.1-39.8 0-6.6 0-9.3 3.9-9.2 11.2.1 7.2 0 14.5 0 21.7m6.2 82.1c7.2 1.5 13 3.4 18.9 3.6 1.6.1 5.1-5.4 4.6-7.3-.7-2.8-3.9-5.8-6.6-6.7-1.8-.7-4.5 1.9-7.4 3.4-.6-10.1-6.3-10-12.7-8.3v19.1c.5.1 1 .2 1.4.3.9-2.1 1.9-4.2 1.8-4.1m88.9-6.1c2.1 4.8 3.2 7.3 4.7 10.8 1.9-4.6 3.2-8 5-12.3.7 4.7 1.1 8.1 1.6 11.6.6-.1 1.2-.2 1.8-.2v-19.2l-1.8-1.2c-2.2 3.7-4.5 7.4-6.6 10.8-2.2-3.8-4.2-7.3-6.2-10.8l-1.5 1.5v18.8h1.6c.3-2.5.7-5 1.4-9.8m31.9 9.2c-1.5-5.4-2.7-11-4.7-16.1-.4-.9-5.5-1-5.8-.2-2 5.3-3.2 11-4.7 16.5.4.9.8 1.7 1.2 2.6 4.2-9.6 8.3-6.7 14-2.8m13.3-5.3c-.2.9-.4 1.8-.5 2.7-2.3-.6-5.6-.4-6.7-2-1.2-1.8-1.2-7.5-.5-7.8 3.3-1.5 7.1-1.7 10.9-2.4-2.7-6-8.3-6.4-11.8-2-2.4 3-1.4 9.7-1.9 14.7 4.1.4 8.3 1.4 12.4 1 1.2-.1 2-4.4 3.4-7.7h-8.7c1.5 1.5 2.5 2.5 3.4 3.5m-31.4 71c1.3-3.9 2-5.8 2.7-8 1 2.4 1.7 4.2 3 7.3 1-3.3 1.5-5.1 1.3-4.5l12 4.8 2.4-3c-1.7-2.7-2.9-6.8-5.1-7.7-3.1-1.3-7-.1-10.6-.4-6.2-.7-8.5 1.9-5.7 11.5m-40.2-83c-2.9 5.2-6.2 8.7-5.7 10.9.8 3 4.5 5 7 7.4 1.8-2.9 4.6-5.7 4.9-8.9.2-2.1-3-4.8-6.2-9.4m89.4 75.6c.1 1.4.2 2.7.2 4.1 6.8.6 13.5 1.2 21.2 1.8-.7-4-1.3-7-1.9-10.3-7 1.6-13.2 3-19.5 4.4m14-27.5c3 3 5.4 6.4 8.5 8.1 2.1 1.3 5.7 1.4 7.7.1 1.2-.8 1.6-5.6.8-7.7-.8-2-3.8-4.1-5.7-3.9-3.6.2-7.2 2-11.3 3.4m-13.9-30.3c0-.5-.1-1-.1-1.5-2.6-.8-5.1-1.7-7.7-2.5.1-.8.1-1.6.2-2.3 2-1 4-2.1 6.5-3.4-2.7-1.6-4.6-2.7-8-4.6 3.8-1.7 6-2.7 8.3-3.7-.1-.4-.2-.8-.3-1.1h-9.3v19.2c3.8-.1 7.1-.1 10.4-.1M118 883.1c.6-1 1.2-2 1.7-3-1.6-4.6 2.7-13.3-6.3-12.3-2.1.2-3.6 6.6-5.4 10.2 3.4 1.7 6.7 3.4 10 5.1m-43 44.8c-3.2 5.4-6.1 8.1-6 10.7.1 2.4 3.4 4.6 5.3 6.9 1.8-2 4.8-3.9 5-6 .1-2.8-2-5.8-4.3-11.6m60.4 16.7c-1-3.4-1.9-6.1-2.7-8.9-2.2 1.5-4.5 3.1-6.1 4.2-1.7-1.4-3.4-2.9-5.1-4.4-.6 3-1.3 6-1.9 9.1zm-3.5-28.3c1.7 1.2 3.7 2.6 5.6 4 .6-1.7 1.1-3.3 1.7-5-4.4-1.3-8.8-2.8-13.3-3.5-.6-.1-1.9 4.4-2.6 6.9-.1.4.9 1.3 1.8 2.5.8-2.4 1.4-4.2 2.2-6.5 1 2.4 1.7 4.3 2.9 7.4.9-3.3 1.5-5.1 1.7-5.8m43.4 47.4c.1 1.2.2 2.3.3 3.5 2.5-.2 5-.4 7.4-.5-.1-1.2-.2-2.5-.3-3.7-2.5.1-4.9.4-7.4.7m-50.5-83-.1.3-.6-.3zm1012.7-205.1c-1.2 9.5-7 14.5-14 18-105.8 0-211.5-.1-317.3 0-2.7 0-5.4 1.2-8.1 1.9-8.9-3-14.6-9.6-17.2-19.7.6-3.4 1.7-6.8 1.7-10.3.1-90.3.1-180.6 0-271 0-3.4-1.1-6.8-1.7-10.3 3.3-9.3 8.2-17 17.2-19.7 3 .7 6 1.9 9 1.9q153 .15 306 0c3 0 6-1.2 9-1.9 8.9 3 14.6 9.6 17.2 19.7-.6 3.1-1.7 6.2-1.7 9.3-.1 94.1-.1 188.1-.1 282.1m-83.1-263.4 1.2-2.1s-.4-.3-.6-.5c-.2.8-.5 1.7-.7 2.5l-.3.9c.1-.3.3-.5.4-.8M837.9 610.3l.1.1c-1.5-1.4-3.1-2.8-4.8-4.4v11.4c6.8.1 6.8.1 4.7-7.1m123-83.2c1.1.7 2.3 1.3 3.4 2 2.3-1.3 4.6-2.7 7.6-4.4-1.8-5-4-11-6.9-19-.6 4.7-1 7.1-1.3 9.6-.8.6-1.7 1.2-2.5 1.8-3.5 0-7.2-.5-10.5.3-.7.2-.9 8.1-.3 8.4 3.3 1.3 7 1 10.5 1.3m5.2 37.7c-1.1-1.5-1.9-4-3.2-4.3-3.4-.9-7.1-1.5-10.6-.9-.9.2-1.2 5.1-1.7 7.9.7.2 1.3.4 2 .5.7-1.9 1.4-3.7 2.2-5.8.8 2.1 1.5 4 2.6 7.2 1.2-3.2 1.8-5.1 1.8-5 2.4 1 4.5 1.9 6.6 2.8 2.7.3 5.3.7 8.6 1.1.6.7 2.1 2.6 3.6 4.5 2-2.5 4.4-4.8 5.9-7.6.5-1-.7-4.7-1.5-4.9-5.9-1.3-11.8-1.2-16.3 4.5m-131.3-44.6c1-10.8-.7-12.2-11.2-9.9V529c.5.1 1 .2 1.4.3 1-2.2 2-4.3 3.9-8.5 1.8 4.1 3.1 7 4.3 9.8.7-.6 1.4-1.3 2-1.9-.2-1.5-.3-3-.5-4.4 1.5 1 3 2.6 4.6 3 3 .7 6.2.6 9.3.9.1-.9.1-1.8.2-2.7h-6.9v-1.7c2.6-.4 5.3-.8 8-1.2-2.4-9.1-6-10.5-11.4-5.2-1 1.1-2.4 1.9-3.7 2.8m-14.2-77.1c0 7.6.1 15.1 0 22.7-.1 7.4 3.1 11 9.4 11.1 13.2.1 26.4.1 39.7 0 6 0 9.1-3.8 9.2-10.4.2-15.5.2-30.9-.1-46.4-.1-6.5-3.2-10.1-9.4-10-13.2.2-26.4.1-39.7.1-6.1 0-9 3.4-9.1 10.3zm169.7 70.1c-6.1 2-12.4 2.4-12.9 4.7-1 4.2.9 9.6 2.5 14.1.5 1.3 6.3 1.5 6.5 1 1.4-5.6 2.3-11.3 3.9-19.8M870.6 524c4.7 3.3 8.9 9.2 14.2 2.6 1.5-1.9.8-9.5-.9-10.7-6.9-4.8-9.8 1.9-13.3 8.1m186.1 4.5v-18.3c-3 1.8-5.9 2.7-7.7 4.8-1.9 2.2-3.9 5.6-3.8 8.4.1 2 3.3 4.6 5.5 5.6 1.9.8 4.3-.3 6-.5m-157.9-10c.6 1.6.9 4.6 2.3 5.7 2.7 2.1 6 3.2 9 4.7.8-3.7 1.7-7.3 2.5-11-3-.9-5.9-2.5-8.8-2.4-2.2.2-4.4 2.6-5 3m76.2 86.1c1.6 5.8 2.2 12.9 3.7 13.1 7.6 1.2 15.4.5 23.1.5v-2.7c-5.9 1.9-8.9-14.1-16.3-2.7-.5-.8-.9-1.8-1.6-2.3-2.2-1.6-4.6-3.1-8.9-5.9m41.9-83.3c-4.8-3.3-7.5-6.7-9.8-6.3-2.4.4-4.3 4.4-6.4 6.9 2.4 2.5 4.5 6.5 7.2 6.9 2 .4 4.6-3.7 9-7.5m-17.8 48.3c6.9-1.3 12.9-2.3 18.8-3.4 0-1.4-.1-2.8-.1-4.2-6.2-1.5-12.3-3-18.6-4.6-.1 2.7-.1 6.3-.1 12.2m53.5 11.1s-1.2.9-1.9 2.2c-1.4 2.3-2.4 4.9-3.6 7.3 2.2.8 4.5 1.9 6.7 2.2 2.6.3 5.3-.2 7.1-.3.4-3.3.8-6 1.1-8.4-2.6-.9-5.1-1.7-9.4-3m-106.7-51.3c.8-.8 1.7-1.6 2.5-2.5-1.8-4.1-2.9-10.9-5.5-11.9-8.6-3.1-3.8 8.7-8 12.8 3.6.6 7.3 1.1 11 1.6M878.3 644c4 0 7.1.6 9.8-.2 1.9-.5 3.4-3 5.1-4.6-1.7-1.6-3.2-4.2-5.1-4.6-3-.6-6.2.2-9.8.5zm238.8-261.9-.3-.9h-57.4v.9zM861.1 529c.8 0 1.6.1 2.4.1 0-4.1 1.4-9.7-.4-12.1-1.9-2.4-6.8-1.8-11.5-2.7.5 6.2.9 10.4 1.2 14.7.5-.1 1.1-.2 1.6-.2.9-3.8 1.8-7.7 2.7-11.5.8.1 1.5.2 2.3.3.6 3.8 1.1 7.6 1.7 11.4M1059 416.7v.9h58.2v-.9zm19.1-13.9v-8.9c-3.1-.3-6-.5-9-.7v10.2c3.5-9.9 5.4 2.1 9-.6M914.5 591.3c-5.4-3.6-9.7-6.5-15.2-10.2-.3 4.9-.5 7.6-.7 10.2zm43.3 0c-5.4-3.6-9.7-6.5-15.2-10.2-.3 4.9-.5 7.6-.7 10.2zm143.1-189.9c.1-1.1.3-2.2.4-3.4-2.1-.9-5.1-3.3-6.1-2.5-1.9 1.5-2.6 4.9-5.1 10.2 5.4-2.1 8.1-3.2 10.8-4.3m-14 2.1c.8-.3 1.5-.7 2.3-1-.7-2.5-1-5.3-2.2-7.4-.4-.6-3.1.5-6.2 1.1 2.8 3.3 4.5 5.3 6.1 7.3m16.5-.3c.9-.1 1.7-.2 2.6-.3l-.9-9c-.8.1-1.5.2-2.3.3zm20.2 10.6c.7-1.2 1.4-1.9 1.4-2.6s-.9-1.3-1.4-2c-.5.7-1.3 1.3-1.4 2 0 .7.7 1.4 1.4 2.6m-.5-24.3c.4.1.8.2 1.1.2.3-.8.9-1.6.9-2.3-.1-.9-.8-1.7-2-3.9zm-66.8-2.8c-1-.6-1.6-1.2-2.3-1.5-.1 0-.9 1.1-.7 1.5.3.8.9 1.4 1.4 2.1.5-.5.9-1.1 1.6-2.1m460.3-63.6c-3.3 9.4-8.2 17-17.2 19.7-3-.7-6-1.9-9-1.9q-153-.15-306 0c-3 0-6 1.2-9 1.9-9.1-2.8-13.9-10.4-17.2-19.7.6-3.4 1.7-6.8 1.7-10.3.1-81.7.1-163.5 0-245.2 0-3.4-1.1-6.8-1.7-10.3 2.1-10.7 8.4-16.7 17.2-19.7 3 .7 6 1.9 9 1.9q153 .15 306 0c3 0 6-1.2 9-1.9 8.9 3 14.6 9.5 17.2 19.7-.6 3.4-1.7 6.8-1.7 10.3-.1 81.7-.1 163.5 0 245.2.1 3.5 1.1 6.9 1.7 10.3M1257 192.4c.9 1.5 2 3 2.7 4.7 2.6 6.3 5 6.8 12.1 1.4h-7.3c0-.5-.1-1-.1-1.5l7.8-1.5c-.9-8-4.4-9.2-9.9-7.1-1.6.6-3.6.1-5.4.1-1.6 2.3-3.1 4.7-4.6 6.9-1.3-2.5-2.6-5.1-3.8-7.7-.7.4-1.5.8-2.2 1.2 1.7 4.6 3.3 9.2 5 13.9.8 0 1.6 0 2.4.1 1.1-3.6 2.2-7 3.3-10.5m97-3.8c-4.2-3.6-7.7-9.7-13.9-5.5v16.7c4.7-2.4 9.1-4.7 13.5-7-.3 6.8 3.2 10.2 8.4 9.2 3.2-.6 5.9-4.2 8.9-6.5l-1.5-3h-6.6c1.2 1.5 2.1 2.7 3.1 4-3 1.5-6.3 2-7.5.4-1.3-1.7-1.4-7.6-.7-7.9 3.5-1.5 7.4-1.9 10.7-2.6-5.4-6.7-9.3-6.3-14.4 2.2M1218.4 127c1 24.8-4.2 22.9 20.6 22.8 16.8 0 17.4 3.3 17.3-19.8-.1-22.9 0-22.9-19.9-23.6-1-23.2-1-23.2-21.1-23.2-18.9 0-17.1-2-17.1 19.6-.2 23.1-.1 23.1 20.2 24.2m31.6 105.1c.8 3.7.9 11.6 9.9 6.7.3-.1 1.2 1.9 1.8 1.8 2.8-.2 6.5.3 8.1-1.5 1.2-1.4.8-7.3-.7-8.6-1.7-1.5-5.3-.3-8.1 0-3.7.5-7.4 1.1-11 1.6m-26-26.2c3.3-5.1 6.6-8 6.5-10.6-.2-2.8-4.2-7.7-5.6-7.4-2.8.7-6.3 4.1-7.1 7.2-.6 2.1 3 5.6 6.2 10.8m99.3-10.6c-4.7-3.9-7.2-7.6-9.5-7.4-2.4.2-4.6 4.1-6.9 6.3 2.2 2.7 4 6.9 6.6 7.7 1.9.6 4.9-3.1 9.8-6.6m-108.7-7.6c.3-.6.6-1.2.9-1.7-3.1-1.3-6.8-4.4-9-3.3-2.9 1.5-6.1 6-6.4 9.5-.3 3.1 2.7 8.4 5.2 9.4 2.8 1.1 6.8-1.6 10.3-2.6-4.5-1.8-8.2-1.9-11.5-3.1-.6-.2-.3-7.5.4-7.7 3.2-1 6.7-.5 10.1-.5m81.6 46.1c-5-1.6-8.8-2.8-12.5-4-.3 3.4-2 8.5-.7 10 4.1 4.4 8.2 2.4 13.2-6m-24.3 57c6.2.8 11.1.5 12.6-6.1-4.8-2.1-8.6-3.9-12.6-5.7zm127.3-25.8c-2.2-8.7-10.9-12.4-14.7-7.8.5 2.4 1 5 2 9.6 1.4-3.9 2.1-5.8 2.8-7.9.8 2.2 1.5 4.1 2.7 7.4 1.1-3.4 1.8-5.3 2-6.1 1.7 1.6 3.4 3.2 5.2 4.8m-59.4-12.6c-.9-.1-1.7-.1-2.6-.2-1.4 4-2.8 7.9-4.2 12.2h10.9c-1.6-4.4-2.8-8.2-4.1-12m554.2 70.7c-2.1 10.7-8.4 16.7-17.2 19.7-3-.7-6-1.9-9-1.9q-153-.15-306 0c-3 0-6 1.2-9 1.9-9.1-2.8-13.9-10.4-17.2-19.7.6-3.4 1.7-6.8 1.7-10.3.1-81.7.1-163.5 0-245.2 0-3.4-1.1-6.8-1.7-10.3 3.3-9.3 8.2-17 17.2-19.7 3 .7 6 1.9 9 1.9q153 .15 306 0c3 0 6-1.2 9-1.9 8.9 3 14.6 9.5 17.2 19.7-.6 3.4-1.7 6.8-1.7 10.3-.1 81.7-.1 163.5 0 245.2.1 3.5 1.2 6.9 1.7 10.3m-142-85c3.1.7 6.1 1.5 9.2 2.2-.2-3.6.8-8.6-.9-10.5-3.4-3.7-6.8-1.7-8.4 3.5-3.7-1.5-7.3-3.1-11.6-4.9v13c4.2-1.2 7.9-2.2 11.7-3.3m-24.6 26.1c.6-.4 1.2-.8 1.7-1.2-1-2.7-1.6-5.8-3.2-7.9-1.2-1.6-4.2-3.3-5.5-2.6-2 1.1-4.2 4-4.3 6.3-.1 2.1 2.1 5.6 3.9 6.3 2.1 1 4.9-.4 7.4-.9m-93.1-75.7c-1.6 2.3-3.1 4.7-4.6 6.8-1.3-2.6-2.6-5.1-3.8-7.7-.7.4-1.5.8-2.2 1.2 1.7 4.6 3.3 9.2 5 13.9h2.5c1.1-3.4 2.2-6.9 3.3-10.3.8 1.2 2 2.3 2.3 3.7 1.3 5.6 4.9 8.1 8.9 5.6 2.1-1.3 2.3-6.6 3.3-10.1-3.1-1-6.1-2.2-9.3-3-1.8-.4-3.6-.1-5.4-.1m127.9 4.3c-.3 6.8 3.2 10.2 8.4 9.2 3.2-.6 5.9-4.2 8.9-6.5l-1.5-3h-6.7c1.2 1.5 2.2 2.7 5.1 6.5-4.9-.9-8.2-.5-9.5-2.1-1.3-1.7-1.4-7.6-.7-7.9 3.5-1.5 7.4-1.9 10.7-2.6-5.3-6.7-9.3-6.4-14.4 2.1-4.2-3.6-7.7-9.7-13.9-5.5v16.8c4.7-2.4 9.1-4.7 13.6-7m-165.3-65.6c-3.6 20.6-2.2 22.6 15.2 22.6h.9c22.2-.4 20.6 4.1 20.7-23.8.1-23-.4-19.4-17.4-19.6-.9-3.3-2.5-6.5-2.7-9.8-.7-13-.8-13.4-11.8-13.4h-5.2c-24.4.4-20.9-3.8-21.1 23.9-.1 21-1.7 19.6 16.3 19.7 1.7 0 3.4.3 5.1.4m5.3 56.8c-3.5 4.9-7 7.7-6.9 10.3.1 2.7 3.9 7.7 5.5 7.4 2.7-.5 6.3-3.9 7.1-6.9.6-2-2.8-5.6-5.7-10.8m108.1 10.3c-4.9-3.4-7.7-6.8-10-6.4-2.5.4-4.5 4.5-6.8 6.9 2.4 2.5 4.7 6.5 7.4 7 2.1.4 4.8-3.6 9.4-7.5m-118.2-6.6c.3-.6.6-1.2.9-1.7-3.1-1.2-6.9-4.3-9.1-3.2-2.9 1.5-6 6-6.3 9.6-.3 3 2.8 8.4 5.3 9.3 2.8 1.1 6.7-1.6 10.2-2.7-4.2-2-7.8-1.5-11-2.4-.6-.2-.1-5.7-.1-8.8 3.3-.1 6.7-.1 10.1-.1m68 87c-3.1 4.6-6.1 7.2-6.1 9.7 0 2.3 3.1 6.1 5.2 6.6 1.6.3 5.3-3.4 5.5-5.7.3-2.6-2.2-5.6-4.6-10.6m-35.3-14.3c-.2-1.1-.5-2.2-.7-3.3-2.5.2-5.1.4-7.4.6 1.5 3.2 2.6 5.5 3.7 7.7 4.7-1.3 9-2.6 14.2-4-2.7-7.7-5.9-7.1-9.8-1m88.8-70.1h2.5c.7 3.9 1.4 7.9 2.1 11.8h2c.2-4.2.5-8.4.8-13.6h-12.3c.3 5.2.5 9.4.7 13.6h2c.8-4 1.5-7.9 2.2-11.8m-51.3 46.3c1.7 1.2 3.7 2.6 5.6 4 .6-1.7 1.1-3.3 1.7-5-4.4-1.3-8.8-2.8-13.3-3.5-.6-.1-1.9 4.4-2.6 6.9-.1.4.9 1.3 1.8 2.5.8-2.4 1.4-4.2 2.2-6.5 1 2.4 1.7 4.3 2.9 7.4 1-3.3 1.5-5.1 1.7-5.8m-21.6 55.2c1-1.2 1.9-2.4 2.9-3.5-1.9-2.2-3.8-4.3-5.6-6.5-.9 1.3-2.7 3.5-2.4 3.9 1.4 2.2 3.4 4.1 5.1 6.1M746.3 37.6c8.6 2 11.5 10.5 15.5 17.8 0 85.5 0 170.9.1 256.4 0 3.8 1.1 7.5 1.7 11.3-4.3 8.2-8.8 16.2-17.2 19.7-3-.7-6-1.9-9-1.9q-153-.15-306 0c-3 0-6 1.2-9 1.9-8.4-3.5-12.9-11.5-17.2-19.7.6-3.4 1.7-6.8 1.7-10.3.1-81.7.1-163.5 0-245.2 0-3.4-1.1-6.8-1.7-10.3 4.3-8.2 8.8-16.2 17.2-19.7 3 .7 6 1.9 9 1.9q153 .15 306 0c2.9 0 5.9-1.2 8.9-1.9M573.1 287.4c-1.1-1.5-1.9-4-3.2-4.3-3.4-.9-7.1-1.5-10.6-.9-.9.2-1.2 5.1-1.7 7.9.7.2 1.3.4 2 .5.7-1.9 1.4-3.7 2.2-5.8.8 2.1 1.5 4 2.6 7.2 1.2-3.2 1.8-5.1 1.8-5 2.4 1 4.5 1.9 6.6 2.8 2.7.3 5.3.7 8.6 1.1.5.7 2.1 2.6 3.6 4.5 2-2.5 4.4-4.8 5.9-7.6.5-1-.7-4.7-1.5-4.9-5.9-1.4-11.8-1.2-16.3 4.5m-114-94.2c1-10.7-.7-12.2-11.2-9.9V202l1.5.3c1-2.2 1.9-4.4 3.9-8.8 1.8 4.4 3 7.3 4.2 10.2.7-.7 1.4-1.4 2.1-2-.2-1.5-.3-2.9-.5-4.4 4.2 1.5 8.3 3.1 12.5 4.3 1.9.5 4.1.4 6.1 0 2.8-.5 5.5-1.6 8.3-2.4-1.1-3.8-2.2-7.5-3.3-11.3-2.8 1.3-5.5 2.6-8.6 4-1.8-5.2-5.7-6.2-10.9-1.9-1.2 1-2.6 2.1-4.1 3.2m-12.4-46.5-.1-.1c3.6 3.5 22.6 5.3 25.4 2 1.4-1.6 1.9-4.7 2-7.1.2-7.5-.1-15.1-.2-22.7.7 1.3 1.9 2.6 2.1 4 1.9 14.1 1.8 14.1 14.6 14h3.4c6.2-.2 9.6-3.9 9.7-11 .1-10.5.2-21 0-31.5-.2-7.3-3.2-11.4-10.3-11-9.2.5-18.4.5-27.5 0-6.9-.3-9.2 3-8.9 10.5s0 15.1 0 22.7c-3.9 1.1-11 1.9-11.1 3.3-.5 8.7.5 17.8.9 26.9m102.9 55.4c.6-.1 1.2-.1 1.8-.2v-19.2c-.5-.4-1-.9-1.5-1.3-2.3 3.6-4.6 7.3-6.9 10.8-2-3.6-4.1-7.2-6.1-10.8-.6.4-1.2.7-1.8 1.1v19.2c.4.1.8.1 1.3.2.8-2.6 1.5-5.1 2.5-8.6 1.6 3.6 2.7 6 4.2 9.4 1.8-4.5 3.2-7.9 5-12.4.6 5 1.1 8.4 1.5 11.8m135.7 53c1.6 6.2 1.7 6.1 9.9 7.4.7.1 1.3 1.7 1.9 1.6 2.8-.1 6.5.6 8.2-1.1 1.3-1.3 1-7.3-.4-8.7-1.6-1.6-5.3-.4-8.1-.2-3.8.4-7.5.7-11.5 1m-130.1-51c5-7.5 9.4-8.1 13.8-.9.6-.8 1.2-1.5 1.8-2.3l-7.8-18.6c-2.5 5.3-5 10.7-7.4 16.1-.4.9-.2 2.2-.4 5.7m31.6-17.8c-2.7-5.3-7.5-5.9-11.3-2.6-2.5 2.2-4.5 8.2-3.7 11.5.7 3.1 5.5 6.6 8.6 6.7 2.8.1 5.7-4.2 8.6-6.6-.5-.9-1-1.9-1.6-2.8h-6.6c.8 1.9 1.5 3.5 2.2 5.2-2.1 0-5.6.9-6-.1-1.2-2.5-1.9-8.2-1.3-8.5 3.2-1.6 6.9-1.9 11.1-2.8m-65.2 10.1c-4.2-4.4-6.5-8.7-8.5-8.5-2.6.2-6.2 3.5-6.9 6.3-.5 2 2.6 7 4.8 7.7 2.2.6 5.3-2.5 10.6-5.5m96.1 66.2c-3.3-8.1-6.8-8.5-17.5.1 6.8 1.1 13.6 2.2 21.3 3.5-.2-4.3-.4-6.9-.5-9.5-.4 0-.8-.1-1.3-.1-.5 1.9-1.2 3.8-2 6m-17.2-78.4c-.1-.5-.1-1-.2-1.6h-9.5v19h10.6c0-.4.1-.7.1-1.1-2.7-1-5.3-2.1-9.7-3.7 4-2.5 6-3.7 8.4-5.1-2.8-1.3-4.7-2.3-9-4.4 4.9-1.6 7.1-2.4 9.3-3.1m-74.5 49c-.4-.2-.9-.3-1.3-.5-.7 2-1.5 4-2.8 7.5-.7-10.2-6.5-7.5-10.6-7.8-.7-.1-2.2 3.5-2.2 5.5 0 1.3 1.9 3.6 3 3.7 4.5.2 9-.3 13.9-.6zm-45.7 51.3c-3.8-3.2-6.5-7-8-6.4-2.3.9-5 4.6-5.1 7.3-.1 1.9 3.6 5.1 6 5.7 1.4.3 3.6-3.2 7.1-6.6m176.6-35.7c-2.8 4.9-5.7 7.7-5.5 10.3.1 2.3 3.6 4.4 5.6 6.5 1.8-2.2 5-4.4 5.1-6.7.1-2.4-2.6-5.2-5.2-10.1m-288-211.2c8.9 3 14.6 9.6 17.2 19.7-.6 3.4-1.7 6.8-1.7 10.3-.1 81.7-.1 163.5 0 245.2 0 3.4 1.1 6.8 1.7 10.3-2.1 10.7-8.4 16.7-17.2 19.7-3-.7-6-1.9-9-1.9q-153-.15-306 0c-3 0-6 1.2-9 1.9-9.1-2.8-13.9-10.4-17.2-19.7.6-3.4 1.7-6.8 1.7-10.3.1-81.7.1-163.5 0-245.2 0-3.4-1.1-6.8-1.7-10.3 3.3-9.3 8.2-17 17.2-19.7 3 .7 6 1.9 9 1.9q153 .15 306 0c3 0 6-1.2 9-1.9M174.8 199.2c3.1.3 6.2.7 9.3 1-.5-3.9-.6-8-1.7-11.7-.2-.6-4.5.4-6.9.7 1.2 3.2 2.3 6.5 3.4 9.5-.7.2-2.3.5-4 .9-1.5-2-4.5-5.4-4.3-5.8 3.3-5 .6-6.2-2.9-6.1-1.6 0-3.2 2.1-4.7 3.2 1.8 2 3.7 3.9 5.4 5.9.5.5.6 1.4 1.4 3.1-2.7-.6-4.5-1-6.3-1.5.1 1.2.2 2.5.3 3.7 3.6-1 7.3-2 11-2.9m62.3-.9c-1.6-4-3.1-8-4.8-11.9-.7-1.5-1.9-2.8-2.9-4.1-1.3 1.3-3.1 2.4-3.9 4.1-1.2 2.5-1.5 5.7-2.8 8.1-.4.7-3-.2-4.5-.4v-11.5c-.7-.4-1.5-.8-2.2-1.2-2.1 3.7-4.3 7.3-6.4 10.9-2.3-3.9-4.4-7.4-6.4-10.9-.5.5-1 1-1.6 1.4v19.1c.5 0 1 .1 1.5.1.5-2.8 1-5.6 1.8-9.7 1.6 3.8 2.7 6.6 4.4 10.5 1.9-4.1 3.2-7 5-10.8.4 3.9.7 6.5.9 9.1 1-.9 1.9-1.8 2.9-2.6 1.7.7 3.3 1.4 5 2 3.4-.6 6.6.3 9.8.4 1.3 0 2.6-1.8 3.9-2.7 10 7.3 14.3 6.1 17.2-5.4h-7.5c1.3 1.6 2.1 2.7 3 3.7-1.1.9-2.4 2.8-3.2 2.5-1.7-.5-4.1-1.7-4.7-3.3-.7-2.1-.5-5.3.4-7.3.7-1.5 3.2-2.6 4.9-2.6 1.8 0 3.7 1.6 5.5 2.4.3-1.1.6-2.2.9-3.2-3.2-.9-6.6-3.1-9.5-2.4-7.5 1.6-6.4 9.2-6.7 15.7M112.9 150c13 0 13 0 13-14.3 0-15.6 0-15.6-11.9-15.6-14.2 0-14.2 0-14.2 14.7-.1 15.2-.1 15.2 13.1 15.2m-45.4-15.1c0 15.1 0 15.1 12 15.1 13.8 0 13.8 0 13.8-14.3 0-15.6 0-15.6-12.6-15.6-13.2 0-13.2 0-13.2 14.8m32.6-37.6c0 15.4 0 15.4 11.7 15.4 14 0 14 0 14-14.2 0-15.3 0-15.4-12-15.3-14.2.1-13.6-2.5-13.7 14.1m-32.6.3c0 15.2 0 15.2 12.1 15.2 13.7 0 13.7 0 13.7-14.5 0-15 0-15-12.3-15-13.5-.1-13.5-.1-13.5 14.3m134.9 134c.5 3.1 1 8.6 7.3 9.1 1.8.1 3.5.8 5.3.6 2.6-.3 6.4-.4 7.4-2.2 1.1-2.1.6-6.9-.8-8.8-1.1-1.4-4.9-.4-7.4-.2-4 .4-7.9 1-11.8 1.5m-63.8-33.8c-1.7-11.2-7.1-11.5-13.4-8.8v17.6c5-3.3 9.4-6.2 13.4-8.8m-34.9-2.4c-4.6-3.9-7.2-7.6-9.5-7.5-2.5.2-4.9 4-7.3 6.2 2.2 2.7 4.1 6.9 6.8 7.7 2 .7 5-3 10-6.4m155.5 1.5c3.5-2.5 5.3-3.8 7.5-5.3-2.6-1.4-4.4-2.4-7.3-4 3.6-1.8 5.9-2.9 9.9-4.9h-12.2v18.9h10.7c.1-.4.1-.8.2-1.3-2.4-.9-4.8-1.9-8.8-3.4m-175.3-9.7c.4-.7.8-1.4 1.1-2.1-3.6-.9-8.3-3.7-10.5-2.1-2.8 2.1-4.9 7.8-4.8 11.9.1 2.6 4.5 6.2 7.4 7 2.2.6 5.2-2.5 9.7-4.9-6.4 0-9.8.8-12.6-.4-1-.4-1-8.1-.3-8.4 3.1-1.1 6.6-.8 10-1m111.9 75.7c-.2-1.6-.4-3.3-.7-4.9-6-.7-12-1.5-18.2-2.2v11.4c6.5-1.5 12.7-2.9 18.9-4.3m-96.2-27.8c.9 2.3 1.6 4.1 2.2 5.9.8-.5 1.7-1 2.5-1.6-1.5-2.6-2.6-6.4-4.7-7.4-5.2-2.5-16.7 2-18.4 6.1 3.7.9 7.4 1.9 11.3 2.9.6-2.2 1.1-3.9 1.7-6 .8 2.3 1.5 4.2 2.7 7.4 1.2-3.2 1.9-5.1 2.7-7.3m53.2-36.5c0-.5-.1-1.1-.1-1.6 2.7-.4 5.4-.8 8.1-1.3.4-.7.9-1.5 1.3-2.2-2.3-2-4.4-5-6.9-5.7-1.7-.4-5.5 2.2-5.8 3.9-.4 3 .5 7.6 2.3 9.3 1.8 1.6 5.5.3 8.4.3v-2.8c-2.5.1-4.9.1-7.3.1m21.8 26.6c-3.1 4.5-6.2 7-6.3 9.6-.1 2.3 3 6.2 5.1 6.7 1.7.3 5.4-3.3 5.7-5.6.3-2.6-2.2-5.7-4.5-10.7m93.7 10.3c-3.5-3.3-6.5-7.6-7.6-7-2.5 1.3-4.1 4.9-6.1 7.6 2.2 1.9 4.2 4.9 6.6 5.4 1.6.3 3.8-3 7.1-6M111.5 202h2.4c0-4.1 1.4-9.7-.4-12-1.9-2.4-6.8-1.8-11.5-2.7.5 6.2.9 10.4 1.2 14.7.5-.1 1.1-.2 1.6-.2.9-3.8 1.8-7.7 2.7-11.5.8.1 1.5.2 2.3.3.5 3.8 1.1 7.6 1.7 11.4m153.8 62.9c.5-1 .9-1.9 1.4-2.9-.4-.4-1.1-.8-1.3-1.3-2.2-6.9-7.2-5.9-11.5-4.7-1.4.4-1.9 5-2.9 7.6.8.3 1.5.7 2.3 1 .6-1.8 1.2-3.5 1.8-5.6 1 2.1 1.8 3.9 3.2 6.8.9-3.2 1.4-5 1.6-5.6 1.7 1.5 3.6 3.1 5.4 4.7m34.2-9.2h-1.7v9.6h1.7zM798 342.8c-8.4-3.5-12.9-11.5-17.2-19.7.6-3.4 1.7-6.8 1.7-10.3.1-81.7.1-163.5 0-245.2 0-3.4-1.1-6.8-1.7-10.3 4.3-8.2 8.8-16.2 17.2-19.7 3 .7 6 1.9 9 1.9q153 .15 306 0c3 0 6-1.2 9-1.9 8.6 2 11.5 10.5 15.5 17.8 0 85.5 0 170.9.1 256.4 0 3.8 1.1 7.5 1.7 11.3-4.3 8.2-8.8 16.2-17.2 19.7-3-.7-6-1.9-9-1.9q-153-.15-306 0c-3.1 0-6.1 1.3-9.1 1.9m131.8-146.3c3.9 1.9 7.8 4.9 11.8 5.2 2 .2 4.3-4.5 8.1-8.9-5-.4-7.1-.6-9.9-.8 1.5 2 2.4 3.2 5.1 6.9-4.8-.8-8.5-.4-9.3-1.9-1.2-2.3-1.2-8.4-.4-8.7 3.2-1.4 6.9-1.1 12.3-1.6-3.4-1.9-5.8-4.3-8.2-4.4-8.7-.4-8.8 7.3-9.5 14.3-1.6-3.5-3.1-7-4.9-10.4-.8-1.5-1.9-3.5-3-3.7-1-.1-2.9 1.7-3.4 3.1-1.8 5.2-3.2 10.6-4.7 15.9 5.6-6.3 10-4.4 14.3 1.4.8-2.8 1.3-4.6 1.7-6.4m-109.2-80c0 7.3.1 14.5 0 21.8-.2 7.8 3 11.7 9.8 11.6 12.7 0 25.4-.2 38.1.1 7 .1 10.2-4 10.3-11.4.2-14.8.2-29.7 0-44.5-.1-6.9-2.8-11.1-9.6-11-13 .2-25.9.2-38.9 0-7-.1-9.9 3.9-9.7 11.6.1 7.3 0 14.6 0 21.8m90.2 66.5c-.7-.5-1.4-1.1-2.1-1.6l-6 10.8-6.9-10.8c-.5.5-.9 1-1.4 1.5V202c.5 0 1.1.1 1.6.1.5-2.9 1-5.9 1.7-9.7 1.8 3.9 3 6.6 4.7 10.2 1.6-3.4 2.7-5.9 4.1-8.9 1.1 3.5 1.9 6 2.7 8.6.5-.1 1.1-.3 1.6-.4zm4.9 48.4c.9 3.4.2 10.7 8.2 8.6 1.2-.3 2.6 1 3.8.9 2.6-.1 7 .1 7.5-1.2 1-2.8.6-7-.7-9.7-.5-1.1-4.8 0-7.4.3-3.6.3-7.3.7-11.4 1.1M865 206.3c3.2-6.3 16.8-2.4 11.6-14.9-1.2-2.9-7.4-3.1-11.6-4.6zm.7-11.8c-4.9-3.4-7.7-6.9-9.9-6.5-2.5.5-4.5 4.4-6.7 6.8 2.4 2.5 4.5 6.5 7.2 7.1 1.9.4 4.7-3.5 9.4-7.4m84.6-12v19.1h12.5c-4.7-2.2-7.1-3.3-11.3-5.3 3.9-2 5.7-2.9 8.2-4.1-2.6-1.7-4.5-2.9-7.4-4.8 3.6-1.7 5.9-2.7 10.6-4.9zm-113.4 4.8c.5-.6.9-1.3 1.4-1.9-3.5-1-7.9-3.8-10.4-2.4-2.7 1.5-5.2 7-5.1 10.7.1 2.9 3.7 7.2 6.5 8.1 2.5.8 5.9-2.2 10.1-4.1-5.8-.6-9.4-.3-12.4-1.7-.8-.3-.6-7.9.5-8.4 2.7-1.2 6.2-.3 9.4-.3m192.2 76.5c-.8-9.4-6.4-7.5-10.6-7.7-.9 0-2.8 3.4-2.7 5.2.1 1.5 2.3 4 3.6 4.1 4.3.3 8.7-.2 13.5-.5v-8.1c-.4-.1-.8-.2-1.2-.4-.7 1.9-1.3 3.8-2.6 7.4m-63.8 26.4c-.7-9.9-6.6-7.5-10.5-8.4-.7-.2-2.8 3.7-3 5.8-.1 1 2.5 3.4 4 3.5 4.2.3 8.5-.3 13.6-.6-.1-2.8-.2-5.5-.3-8.2h-1.5c-.5 1.9-1.1 3.6-2.3 7.9m17.7-56.9c-5.2-1.3-9-2.3-12.8-3.3-.2 3.5-1.7 8.6-.3 10 4.1 4.2 8.2 2.1 13.1-6.7m23.7 56c-.9-3-1.5-5-2.5-8.3-1.2 2.4-1.8 3.6-2.9 5.7-1.5-9.2-5-4.5-8.3-2.4 5 8.1 10.8 9.2 20.2 4.4-1.2-2.1-2.5-4.3-4.2-7-.8 2.6-1.4 4.6-2.3 7.6M895 236.4c-3.2-3.7-5.8-8.2-7.1-7.7-2.6.8-4.5 4.5-6.6 6.9 2 2.1 3.8 5.4 6.2 6 1.6.4 4-2.7 7.5-5.2m168.6 4.7c4.1.2 7.4 1 10.6.4 1.6-.3 4.1-3 4-4.5-.1-1.8-2.3-4.7-3.8-4.9-3.3-.5-6.8.4-10.7.8-.1 2.4-.1 5.2-.1 8.2m-198.1 24.3c4.6-1.3 9-2.5 14.5-4.1-2.9-7.2-6.1-7.5-10.5-4.1-2.6.2-5.2.3-7.7.4 1.5 3.3 2.6 5.6 3.7 7.8" class="st4"/><path d="M798 1048.3c2.7-.7 5.4-1.9 8.1-1.9 105.8-.1 211.6 0 317.3 0-3.3.6-6.6 1.8-9.8 1.8-57.9.1-115.7.1-173.6.2-47.3 0-94.6-.1-142-.1m375.9-354.7c105.8 0 211.6-.1 317.3 0 2.7 0 5.4 1.2 8.1 1.9-16.2 0-32.4 0-48.5.1h-230.3c-12.9 0-25.7.1-38.6-.2-2.6 0-5.3-1.1-8-1.8m-375.9 2c2.7-.7 5.4-1.9 8.1-1.9 105.8-.1 211.6 0 317.3 0-3.3.6-6.6 1.8-9.8 1.8-44.6.1-89.2.1-133.7.2-60.6-.1-121.2-.1-181.9-.1m324-658c-3 .7-6 1.9-9 1.9q-153 .15-306 0c-3 0-6-1.2-9-1.9zm377.4 0c-3 .7-6 1.9-9 1.9q-153 .15-306 0c-3 0-6-1.2-9-1.9zm377.4 0c-3 .7-6 1.9-9 1.9q-153 .15-306 0c-3 0-6-1.2-9-1.9zm-1507.9 0c-3 .7-6 1.9-9 1.9q-153 .15-306 0c-3 0-6-1.2-9-1.9zm377.4 0c-3 .7-6 1.9-9 1.9q-153 .15-306 0c-3 0-6-1.2-9-1.9zM44.9 1048.3c3-.7 6-1.9 9-1.9q153-.15 306 0c3 0 6 1.2 9 1.9zM798 342.8c3-.7 6-1.9 9-1.9q153-.15 306 0c3 0 6 1.2 9 1.9zm-375.7 0c3-.7 6-1.9 9-1.9q153-.15 306 0c3 0 6 1.2 9 1.9zm-53.4 21.8c-3 .7-6 1.9-9 1.9q-153 .15-306 0c-3 0-6-1.2-9-1.9zm377.4 0c-3 .7-6 1.9-9 1.9q-153 .15-306 0c-3 0-6-1.2-9-1.9zm-701.4 331c3-.7 6-1.9 9-1.9q153-.15 306 0c3 0 6 1.2 9 1.9zm377.4 0c3-.7 6-1.9 9-1.9q153-.15 306 0c3 0 6 1.2 9 1.9zm699.7-331c-3 .7-6 1.9-9 1.9q-153 .15-306 0c-3 0-6-1.2-9-1.9zm377.4 0c-3 .7-6 1.9-9 1.9q-153 .15-306 0c-3 0-6-1.2-9-1.9zm-323.9-21.8c3-.7 6-1.9 9-1.9q153-.15 306 0c3 0 6 1.2 9 1.9zm377.4 0c3-.7 6-1.9 9-1.9q153-.15 306 0c3 0 6 1.2 9 1.9zm323.9 21.8c-3 .7-6 1.9-9 1.9q-153 .15-306 0c-3 0-6-1.2-9-1.9zm-323.9 331c3-.7 6-1.9 9-1.9q153-.15 306 0c3 0 6 1.2 9 1.9zM44.9 342.8c3-.7 6-1.9 9-1.9q153-.15 306 0c3 0 6 1.2 9 1.9zm377.4 705.5c3-.7 6-1.9 9-1.9q153-.15 306 0c3 0 6 1.2 9 1.9zm324-331c-3 .7-6 1.9-9 1.9q-153 .15-306 0c-3 0-6-1.2-9-1.9zm375.5 2c-105.2 0-210.4.1-315.6 0-2.7 0-5.4-1.2-8.1-1.9 60 0 120.1 0 180.1-.1 44.6 0 89.2 0 133.8.2 3.2 0 6.5 1.1 9.8 1.8m-752.9-2c-3 .7-6 1.9-9 1.9q-153 .15-306 0c-3 0-6-1.2-9-1.9zm17.2 311.3c-.6-3.8-1.7-7.5-1.7-11.3-.1-94.1-.1-188.1-.1-282.2.6 4.1 1.7 8.2 1.7 12.3.1 93.7.1 187.5.1 281.2m377.4-352.8c-.6-3.8-1.7-7.5-1.7-11.3-.1-94.1-.1-188.1-.1-282.2.6 4.1 1.7 8.2 1.7 12.3.1 93.8.1 187.5.1 281.2m17.3 61.3c.6 3.4 1.7 6.8 1.7 10.3.1 90.3.1 180.6 0 271 0 3.4-1.1 6.8-1.7 10.3zm-19.1 291.4c0-93.1 0-186.1.1-279.2 0-4.1 1.1-8.2 1.7-12.3 0 93.4 0 186.8-.1 280.2 0 3.8-1.1 7.6-1.7 11.3M405.1 737.1c.6 3.4 1.7 6.8 1.7 10.3.1 90.3.1 180.6 0 271 0 3.4-1.1 6.8-1.7 10.3zm-377.4 0c.6 3.4 1.7 6.8 1.7 10.3.1 90.3.1 180.6 0 271 0 3.4-1.1 6.8-1.7 10.3zm0-352.8c.6 3.4 1.7 6.8 1.7 10.3.1 90.3.1 180.6 0 271 0 3.4-1.1 6.8-1.7 10.3zm377.4 0c.6 3.4 1.7 6.8 1.7 10.3.1 90.3.1 180.6 0 271 0 3.4-1.1 6.8-1.7 10.3zm375.7 0c.6 3.4 1.7 6.8 1.7 10.3.1 90.3.1 180.6 0 271 0 3.4-1.1 6.8-1.7 10.3zm356.7 291.3c0-94-.1-188 0-282 0-3.1 1.1-6.2 1.7-9.3 0 15.2 0 30.4.1 45.7 0 78.1 0 156.2-.1 234.3-.1 3.8-1.1 7.5-1.7 11.3m20.7-291.3c.6 3.1 1.7 6.2 1.7 9.3.1 94 0 188 0 282-.6-3.8-1.6-7.5-1.6-11.3-.1-80.8-.1-161.5-.1-242.3zm358.4 291.5c-.6-3.4-1.7-6.8-1.7-10.3-.1-90.3-.1-180.6 0-271 0-3.4 1.1-6.8 1.7-10.3zm19-291.5c.6 3.4 1.7 6.8 1.7 10.3.1 90.3.1 180.6 0 271 0 3.4-1.1 6.8-1.7 10.3zM1894 675.8c-.6-3.4-1.7-6.8-1.7-10.3-.1-90.3-.1-180.6 0-271 0-3.4 1.1-6.8 1.7-10.3zm-1507.9 0c-.6-3.4-1.7-6.8-1.7-10.3-.1-90.3-.1-180.6 0-271 0-3.4 1.1-6.8 1.7-10.3zm377.4-352.7c-.6-3.8-1.7-7.5-1.7-11.3-.1-85.5-.1-170.9-.1-256.4.6 4.1 1.7 8.2 1.7 12.3.1 85.1.1 170.3.1 255.4m375.7 0c-.6-3.8-1.7-7.5-1.7-11.3-.1-85.5-.1-170.9-.1-256.4.6 4.1 1.7 8.2 1.7 12.3.1 85.1.1 170.3.1 255.4M27.7 57.4c.6 3.4 1.7 6.8 1.7 10.3.1 81.7.1 163.5 0 245.2 0 3.4-1.1 6.8-1.7 10.3zm358.4 265.7c-.6-3.4-1.7-6.8-1.7-10.3-.1-81.7-.1-163.5 0-245.2 0-3.4 1.1-6.8 1.7-10.3zm19-265.7c.6 3.4 1.7 6.8 1.7 10.3.1 81.7.1 163.5 0 245.2 0 3.4-1.1 6.8-1.7 10.3zm375.7 0c.6 3.4 1.7 6.8 1.7 10.3.1 81.7.1 163.5 0 245.2 0 3.4-1.1 6.8-1.7 10.3zm377.4 0c.6 3.4 1.7 6.8 1.7 10.3.1 81.7.1 163.5 0 245.2 0 3.4-1.1 6.8-1.7 10.3zm358.4 265.7c-.6-3.4-1.7-6.8-1.7-10.3-.1-81.7-.1-163.5 0-245.2 0-3.4 1.1-6.8 1.7-10.3zm19-265.7c.6 3.4 1.7 6.8 1.7 10.3.1 81.7.1 163.5 0 245.2 0 3.4-1.1 6.8-1.7 10.3zM1894 323.1c-.6-3.4-1.7-6.8-1.7-10.3-.1-81.7-.1-163.5 0-245.2 0-3.4 1.1-6.8 1.7-10.3zm-756.5 705.2v-291c.6 3.4 1.6 6.9 1.6 10.3.1 90.1.1 180.3 0 270.4 0 3.5-1 6.9-1.6 10.3" class="st5"/><path d="M466.4 806.9c-1.7-.1-3.4-.4-5.2-.4-18 0-16.4 1.3-16.3-19.7.2-27.6-3.3-23.5 21.1-23.9h5.2c11 0 11.2.4 11.8 13.4.2 3.3 1.7 6.5 2.7 9.8-.4.9-.7 1.8-1.1 2.7-.5 4.9-1 9.9-1.5 14.8-.8 1-1.7 2-2.5 2.9-4.7 0-9.4 0-14.1.1z" class="st6"/><path d="m466.4 806.9.1-.3c4.7 0 9.4 0 14.1-.1.8-1 1.7-2 2.5-2.9.5-4.9 1-9.9 1.5-14.8.4-.9.7-1.8 1.1-2.7 17 .2 17.5-3.4 17.4 19.6-.1 27.9 1.5 23.4-20.7 23.8h-.9c-17.3.1-18.7-2-15.1-22.6" class="st7"/><path d="M495.1 881.9c-.6-2.6-1.3-5.1-2.2-8.5-1.5 2.9-2.7 5.3-4.4 8.5-1.6-3.3-3-6.2-4.9-10-.6 4-1 6.9-1.4 9.8h-1.7v-19c.4-.6.9-1.1 1.3-1.7 2.2 3.6 4.5 7.1 6.8 10.8 2-3.5 4.1-7.1 6.1-10.7.7.3 1.3.6 2 .9v19.4c-.5.1-1 .3-1.6.5" class="st8"/><path d="M493.3 969.7c-4.8.7-10.8 1.5-17 2.4v-11.5c3.6 1.4 6.4 2.4 9.7 3.7 1.2-.4 3.4-1.5 5.7-2.1 1.5-.4 3.2-.7 4.7-.2 2.9.9 5.8 2.3 8.7 3.5l-5.1 9.3c-2.1-1.7-4.2-3.3-6.7-5.1" class="st9"/><path d="M574.7 881c-1.5-2.5-3.1-4.9-4.7-7.5-.9 1.9-2.2 4.8-4 9-1.7-4-2.8-6.8-4.4-10.6-.8 4-1.3 6.9-1.8 9.7-.5 0-1-.1-1.6-.1v-19.1c.5-.5 1.1-.9 1.6-1.4 2.1 3.5 4.1 7 6.4 10.9 2.1-3.6 4.2-7.2 6.4-10.9.7.4 1.5.8 2.2 1.2v9.5c0 3.1 0 6.2-.1 9.3" class="st8"/><path d="M448 861c2.7 3.7 4.6 6.3 6.5 8.8 2-2.3 4-4.7 6.5-7.7v19.7c-2.4-2.8-4.4-5.3-6.5-7.8-1.9 2.5-3.7 5.1-6.5 8.8zm126.7 20c0-3.1.1-6.2.1-9.3 4.8 6 4.5-.7 6-3.2 1.3-2.2 2.7-4.4 4-6.6 1.5 2.4 3.4 4.6 4.5 7.2 1.4 3.7 2.2 7.8 2.8 9.9-6.2.8-11.8 1.4-17.4 2m2.7-3.5.6-.6c-.3-.2-.6-.5-1-.6-.1 0-.3.3-.5.5.3.3.6.5.9.7" class="st10"/><path d="M609.3 865.9c-4.3 1-7.9 1.3-11.1 2.9-.6.3.2 6 1.4 8.4.5 1 3.9 0 6-.1-.6-1.5-1.2-3-2-4.9h6.4c.5.9 1 1.8 1.6 2.7-2.9 2.3-5.8 6.6-8.7 6.5-3-.1-7.8-3.7-8.5-6.7-.8-3.3 1.3-9.3 3.8-11.5 3.7-3.1 8.6-2.6 11.1 2.7" class="st8"/><path d="M624.6 881.6h-10.7v-19h10c.1.4.2.8.3 1.3-2.2.8-4.4 1.6-8.2 3 3.1 2 5 3.2 7.6 4.9-2.4 1.4-4.3 2.6-7.8 4.6 4 1.7 6.4 2.7 8.8 3.7-.1.5 0 1 0 1.5" class="st10"/><path d="M544.3 874.9c-4.6 3.4-7.6 7.2-9.6 6.6-2.6-.7-4.5-4.9-6.7-7.5 2.3-2.3 4.5-6.1 6.9-6.3 2.4-.1 4.9 3.5 9.4 7.2" class="st11"/><path d="M474.2 920.7c-.7-1.9-1.4-3.8-2.3-6-.8 2.3-1.5 4.3-2.2 6.1-4-1.1-7.5-2-11.4-3.1 2.1-10 9.8-4 14.6-5.8.5-.2 2.6 4.9 3.9 7.5-.8.5-1.7.9-2.6 1.3" class="st12"/><path d="M501.5 862.3c5.7 5.3-1.7 17.3 9.7 19.1h-9.7z" class="st10"/><path d="M465.5 862.3h9.7c-1.3 6.4-2.6 12.9-4 19.3-.5.1-1 .1-1.6.2-.2-3.4-.1-7-.8-10.3-.5-3.2-2.1-6.1-3.3-9.2" class="st11"/><path d="M638.8 915.5c2.1-2.2 4.3-4.4 7.6-7.9.3 4.8.6 8.5.8 12.3-.6.6-1.2 1.2-1.7 1.8-2.2-2-4.4-4.1-6.7-6.2.1 0 0 0 0 0m-114.1 49.7c2.4-1.8 4.8-3.6 7.8-5.8.8 4.8 1.3 7.6 1.8 10.4-.6.7-1.1 1.4-1.7 2.1-2.7-2.3-5.3-4.5-8-6.8z" class="st9"/><path d="M638.9 915.5c-.9 1.4-1.7 2.9-3.1 5.1v-11.4c.6-.1 1.2-.3 1.8-.4.4 2.2.8 4.5 1.3 6.7-.1 0 0 0 0 0m-117.8 49.6c1.2 0 2.4 0 3.6.1l-.1-.1c-.5 2.4-1 4.7-1.6 7.1-.6-.1-1.2-.1-1.8-.2 0-2.4 0-4.7-.1-6.9m.1-.1c-.5-.5-1.1-1-1.6-1.4.3-.4.6-.7.8-1.1.2.9.5 1.7.8 2.5-.1.1 0 0 0 0" class="st9"/><path d="M459.9 456.7c-.3-12.8-1-25.7-.4-38.4.1-2.8 4.8-7.4 7.6-7.7 9.4-1 19-1 28.4 0 2.7.3 7.1 5 7.3 8 .9 10.8.4 21.7.3 32.6-.1 5.9-2.4 9-8 8.7-6.9-.3-13.8 0-20.7.1-4.8-1.2-9.6-2.2-14.5-3.3m40.5-17.1c0-7.8.4-14-.2-20.1-.2-2.2-3.1-5.6-4.9-5.7-9.5-.6-19-.4-28.5-.1-1.5.1-4.2 2.1-4.2 3.4-.3 12.9-.2 25.9-.2 38.8.9.4 1.8.8 2.6 1.2 8.3-9.3 16.5-18.5 25.2-28.3 3.3 3.7 6.2 6.6 10.2 10.8" class="st13"/><path d="M459.9 456.7c4.8 1.1 9.7 2.2 14.5 3.3-1.2 5.4-1.5 14.9-3.8 15.6-7.2 2.2-15.2 1.3-22.8 1-1-.1-2.6-4.1-2.7-6.3-.4-5.2.2-10.6-.2-15.8-.9-10 3-12.3 10.5-9.8z" class="st14"/><path d="M586.6 529.2c-4.3-.7-9.7-1.6-16-2.7 8.4-14.3 9.4-14.7 14.7-8.8 5.4-1.3 10-2.4 14.6-3.5.8.8 1.6 1.5 2.4 2.3-1.9 5.9-3.8 11.7-5.7 17.6-3-1.5-6.2-3-10-4.9m-9.3-8.4.6-.6c-.2-.2-.4-.6-.6-.6s-.4.3-.6.5c.3.2.5.4.6.7m12.6 7.2c-.2-.2-.4-.5-.6-.7-.2.2-.4.5-.6.7.3.2.6.5.8.7.2-.2.3-.5.4-.7" class="st8"/><path d="M461.8 509.8c-1 6.1-1.6 12.4-3.5 18.1-.4 1.1-7.8 1.2-8.2 0-2-5.7-2.8-11.9-4-18 1.4-.3 2.7-.5 4.1-.8.2 3.1.2 6.3.8 9.4.5 2.5 1.9 4.8 2.9 7.1 1.2-2.5 2.8-4.9 3.4-7.5.7-2.8.5-5.9.7-8.9 1.3.2 2.6.4 3.8.6" class="st10"/><path d="M495.2 527.4c-2.1-3.6-3.6-3.7-6.6-.4-1.7 1.9-5.7 1.1-8.7 1.6v-3.1c1.6.1 3.1.2 4.7.3-.1-.9 0-1.6-.3-1.9-1.5-2-3.2-3.8-4.6-6-.1-.2 1.9-3.1 2.6-2.9 2.5.6 5 2 7.4 3.2.7.3 1.1 1.1 1.7 1.7.6-.6 1.2-1.2 1.7-1.8.7 3 1.3 6.1 2 9.1zm6.7-1.1c1.6-3.5 2.3-6 3.7-8 1.1-1.6 3.1-3.7 4.3-3.5 2.1.5 4.8 2.2 5.7 4.2 1 2.4.2 5.8.2 10.8-5.3-1.3-10.1-2.6-13.9-3.5" class="st11"/><path d="M538.6 525.6c-6.5 5-10.9 5.3-12.8-1-.8-2.5 1.2-8.1 3.2-9.3 4.8-2.7 8.2-.1 8.5 7.2-2.5.5-5.1 1-7.6 1.6 0 .5.1 1.1.1 1.6 2.1-.1 4.3-.1 8.6-.1m76.3-2.9c-2.4.4-4.7.9-7.1 1.3 0 .5.1 1.1.1 1.6h8.8c-3.6 2-5.6 4-6.6 3.5-2.7-1.5-6.7-3.9-6.9-6.3-.3-2.5 3-7.3 5.3-7.8 2.2-.5 5.2 3.1 7.8 4.9-.4.9-.9 1.9-1.4 2.8" class="st10"/><path d="M531.6 563.5c0 .1.6-1.8 1.4-3.9.8.8 1.6 1.3 1.6 1.5-.8 2.6-1.4 7-2.8 7.4-3.6 1-7.6.7-11.4.1-1.3-.2-3.5-3.4-3.3-4.4.6-2 2.9-5.2 4-5 3.6.6 6.9 2.6 10.5 4.3m97.6 28.4v-8.4c3.8-.3 7-1.2 10-.5 1.8.4 3.2 3.3 4.7 5-1.5 1.5-2.8 4-4.5 4.3-3.1.5-6.4-.2-10.2-.4m1.8-2.7-.3.5.6.1z" class="st9"/><ellipse cx="712.4" cy="381.5" class="st15" rx="41.1" ry=".7"/><path d="M561.5 529c-.6-3.8-1.1-7.7-1.7-11.5-.8-.1-1.6-.1-2.5-.2-.8 3.9-1.6 7.8-2.5 11.7-.6.1-1.1.1-1.7.2-.3-4.4-.6-8.8-1-13.9h12.2c-.2 5.1-.4 9.3-.6 13.6-.6 0-1.4.1-2.2.1" class="st8"/><ellipse cx="712.4" cy="417.1" class="st15" rx="41.2" ry=".7"/><path d="M513.4 604c4 1.3 7.3 2.4 10.9 3.6v7.7c-3.4-.3-6.6-.6-10.4-1-.1-2-.3-5.6-.5-10.3m179.9-202.4v-8.5c3.2.4 5.8.7 8.9 1.1v9c-3-.6-5.5-1-8.9-1.6" class="st12"/><path d="M725.5 400.8c-2.6 1.4-5.3 2.7-10.5 5.4 1.9-5.4 2.2-8.9 3.9-10.3 1.2-1 4.2.9 6.4 1.5.1 1.1.2 2.2.2 3.4m-14.3 2.8c-1.7-2.2-3.4-4.3-5-6.5.9-.9 1.8-1.8 2.7-2.8 1.8 2.2 3.5 4.4 5.3 6.6q-1.65 1.35-3 2.7" class="st16"/><path d="M673 588.1h-7.3c-.1-.9-.3-1.7-.4-2.6 2.4-.5 4.9-1.1 7.3-1.6.2 1.4.3 2.8.4 4.2" class="st17"/><path d="M727.7 403.2c-.2-3-.4-6.1-.5-9.1.8-.1 1.5-.2 2.3-.3l.9 9c-.9.2-1.8.3-2.7.4" class="st16"/><path d="M640.4 613.5c-1.7 1.5-2.9 2.8-4.3 3.6-.2.1-2-2.3-1.8-2.5.9-1.4 2-2.7 3.3-3.5.2-.3 1.4 1.2 2.8 2.4" class="st0"/><path d="M747.8 408.5c.7 1.1 1.5 1.8 1.5 2.5s-.8 1.4-1.2 2.2c-.5-.6-1.4-1.2-1.5-1.8-.1-.7.6-1.6 1.2-2.9m-.6-19c.1-1.4.2-2.8.2-4.1.5.1 1.4.1 1.4.2.1 1.3.1 2.7.1 4-.5-.1-1.1-.1-1.7-.1m-66.9-1.5c-.6.4-1.4.9-1.5.8-.5-.7-.9-1.5-1.3-2.2.6-.4 1.2-.7 1.8-1.1.4.8.7 1.7 1 2.5m-1.7 24.1c.2-.8.5-1.7.7-2.5.2.2.6.5.6.5l-1.2 2.1z" class="st16"/><path d="M678.7 412.2c-.1.3-.3.5-.4.8l.3-.9z" class="st16"/><path d="m495.1 527.2.3.2h-.2z" class="st11"/><path d="M820.6 795.4v-21.8c0-6.7 2.5-10.7 8.7-10.7 13.5 0 27.1-.5 40.6.4 3 .2 8.1 5.3 8.2 8.4.9 16.1.6 32.3.4 48.4-.1 6.2-3.5 9.4-9.1 9.4-13 0-25.9-.1-38.9 0-6.8 0-10.1-3.5-10-11.4.2-7.5.1-15.1.1-22.7m36.7-13c-.7-.5-1.4-1.1-2-1.6-3.5 0-7 0-10.5-.1-1.2.7-2.3 1.3-3.5 2-.6 1.3-1.2 2.6-1.8 4 .5 4.8 1 9.5 1.5 14.3l1.8 3.9c-.1 3-.1 5.9-.2 8.9-3.1.8-6.1 1.7-9.2 2.5l.9 3c3-1.5 6-3.1 8.9-4.6 3.6-5.1 6.9-6.7 11.6-.8 2.3 2.9 6.7 3.6 10.2 5.2l1.2-2.4c-6.3-2.1-12.1-4.6-9-13.9.5-6.1 1-12.2 1.5-18.4-.3-.6-.9-1.3-1.4-2" class="st18"/><path d="M823.2 883.2v-22.6c4.4 1.6 9.5 1.7 11 4.4 1.9 3.5 2.4 10.2.6 13.5-1.5 3-7 3.1-11.6 4.7" class="st10"/><path d="M910.2 878c-4.3 2.2-8.3 9.5-13.1.8-1.3 1-2.6 2-3.8 3l.3-11.9c1.7-.9 3.5-1.8 5.2-2.7 4.5-2.5 7-1.3 6.8 4.8-1.6 1.2-3.2 2.3-4.7 3.5 1.4.5 2.7 1.1 4.1 1.6l.6-5.1c1.7-.7 3.4-1.3 5.1-2-.3 2.6-.4 5.3-.5 8" class="st5"/><path d="M910.2 878c.1-2.7.3-5.4.4-8.1 3.4-.3 6.7-.6 10.1-.9.1 3 .9 6.2.3 9-1.4 5.8-5 5.6-10.8 0m4.4-1.4c.1.8.1 1.5.2 2.3 1.4-.4 2.7-.8 4.1-1.1 0-.4-.1-.8-.1-1.2z" class="st10"/><path d="m919.1 918 2.1-5.7c.4.1.8.2 1.1.3v8c-4.8.3-9.3.9-13.8.7-1.3-.1-3.5-2.7-3.5-4.2 0-1.7 2.4-5.2 2.8-5.1 3.7 1.5 10.6-3.5 11.3 6" class="st9"/><path d="m893.6 869.9-.3 11.9c-2.3.1-4.6.6-6.7.1-1.4-.3-3.6-1.9-3.6-2.9.1-3.5 0-8.4 1.8-10 1.6-1.6 5.7.4 8.8.9" class="st8"/><path d="M876 881.4c.8-7.2-4.6-15.7 5.2-22.7-1.1 8.8-1.9 15.9-2.8 23z" class="st10"/><ellipse cx="1088.1" cy="734.2" class="st15" rx="41.2" ry=".7"/><path d="M1117.1 770.5h-57.6v-.9h57.4c0 .2.1.5.2.9" class="st15"/><path d="M1068.4 745.6c3.9.6 6.5.9 9.7 1.4v8.9c-2.7-.6-5.1-1.1-9.3-2-.1-.9-.2-4.2-.4-8.3" class="st12"/><path d="M1101.2 753.5c-2.6 1.3-5.3 2.7-10.5 5.4 1.9-5.4 2.2-8.8 3.9-10.4 1.1-1 4.2.9 6.4 1.4.1 1.3.1 2.5.2 3.6m-14.4 2.9c-1.6-2-3.3-4.1-6.1-7.6 3.2-.5 6-1.6 6.3-.9 1.2 2.2 1.4 5 2 7.5-.6.3-1.4.6-2.2 1" class="st16"/><path d="M847.2 963.5c2.4-.5 4.9-.9 7.3-1.4.2 1.4.4 2.7.6 4.1l-7.2 1.2c-.2-1.3-.4-2.6-.7-3.9" class="st17"/><path d="M1103.7 755.8v-8.9c.5 0 1.1-.1 1.6-.1.2 3 .4 5.9.6 8.9-.8 0-1.5 0-2.2.1m21.7 7.5c-.6 1.1-1 1.8-1.5 2.5-.6-.5-1.5-1-1.6-1.6-.1-.7.6-1.6 1-2.3.6.4 1.2.9 2.1 1.4m-70.8-26c.6 1.4 1.2 2.2 1.2 3 0 .4-1 1-1.6 1.1-.2 0-.9-1-.9-1.5.1-.7.6-1.4 1.3-2.6m69.9.4c.1 1.5.2 2.9.4 4.4-.5.1-.9.1-1.4.2-.2-1.5-.3-2.9-.5-4.4.5 0 1-.1 1.5-.2" class="st16"/><path d="M927.2 917.7c.2.5.5 1.1.7 1.6 0 .1-.4.4-.6.6-.1-.6-.3-1.2-.3-1.7-.1-.1.1-.3.2-.5" class="st9"/><path d="M1054.3 764.9c.2-.8.5-1.7.7-2.5.2.2.6.5.6.5l-1.2 2.1z" class="st16"/><path d="M1054.4 765c-.1.3-.3.5-.4.8l.3-.9z" class="st16"/><path d="M97.2 410.2c6.3 0 12.7.2 19-.1 6.2-.2 9.4 3.4 9.5 10 .2 15.5.3 31 0 46.5-.1 6.4-3.2 10.4-9.4 10.3-13-.1-25.9 0-38.9 0-6.3 0-9.8-3.3-9.8-10.7v-45.5c0-7.5 3.4-10.7 9.8-10.5 6.5.1 13.1 0 19.8 0m-8.1 32.7c-.6.6-1.1 1.2-1.7 1.9s-1.2 1.3-1.8 2c-2.3 5.1-4.6 10.2-7 15.3 17-.7 24.8-13.3 32.3-26.2 1.5-1.3 3.1-2.6 4.6-3.9-2-2.4-3.8-5-6.1-7-.5-.4-2.6 1.6-4 2.5-2 1.2-4 2.3-6 3.5-.6.7-1.1 1.3-1.7 2s-1.2 1.4-1.8 2-1.1 1.3-1.7 1.9c-.6.7-1.2 1.3-1.8 2l-1.8 2.1c-.3.6-.9 1.2-1.5 1.9" class="st19"/><path d="M93.7 516.9c-5.9-2.2-9.2-.2-9.2 5.5-.1-.1-1.7-3-2-2.8-4 2.3-7.8 5.1-11.8 7.8v-17.7c8.7-2.5 15.4 4.1 22.9 7.4z" class="st10"/><path d="M93.5 517.1c1.2 1.4 2.3 2.8 2.2 2.7 4.4-2 7.7-4.3 11.2-4.6 1.4-.1 4 4.4 4.2 7 .2 2.1-2.4 6.5-3.8 6.5-3.4-.1-6.7-2-11.1-3.6.3-.4-.7 1.2-1.7 2.9-.6-.1-1.1-.3-1.7-.4.3-3.5.5-7.1.8-10.6z" class="st10"/><path d="M157.7 517.8c1-6.3 12.3 1.6 7.8-12.2 1 .9 2.1 1.7 3.1 2.6v21.6c-3.5-1.1-7.2-2.2-10.9-3.4z" class="st11"/><path d="M157.7 517.8v8.6c-1.3.3-2.7 1-4 1-3.3 0-7.1.6-9.8-1-1.2-.7-.9-8.6.1-9.1 2.8-1.3 6.5-.5 9.8-.3 1.3 0 2.6.5 3.9.8m-10.5 6.3.6 2.4c1.3-.5 2.6-1.1 3.8-1.6l-.3-1.5c-1.3.2-2.7.4-4.1.7" class="st10"/><path d="M259.2 611.1c7.1-.9 12.9-1.8 18.6-2.1.6 0 2.4 4 1.9 5.2-.8 1.8-3.5 4.2-4.6 3.8-4.3-1.6-10.1 11.5-13-1.6-.3-1-.9-1.8-2.9-5.3" class="st9"/><path d="M193.6 511c3.4 4.8 6.9 7.5 6.8 10.2-.1 2.8-3.8 7.8-5.4 7.6-2.8-.5-6.4-3.8-7.3-6.8-.6-2.2 2.9-5.8 5.9-11" class="st8"/><path d="M128.3 533.1c-3.1-5.4-6.3-8.5-6-11 .4-2.8 3.9-5.1 6-7.6 2.2 2.6 5.8 4.9 6.3 7.9.5 2.3-3 5.4-6.3 10.7" class="st11"/><path d="M296.3 613.9c1.9-4 13.1-7.2 15.4-4.1 1 1.4 1.5 5.1.7 5.9-1.3 1.4-3.9 2.1-5.7 1.7-3.4-.5-6.6-2.1-10.4-3.5" class="st17"/><path d="M248 612.7c-.5 1.6-1 3.2-2.1 6.5-1.3-3.6-2-5.5-2.7-7.5-.8 2.1-1.5 3.9-2.3 6.1-.9-.9-1.7-1.5-1.6-1.7.9-2.6 1.3-6.6 3-7.5 2.3-1.2 5.7-.6 8.3.5 2 .8 3.5 3.4 5.2 5.2-1 1.2-2 2.5-3 3.7-1.6-1.8-3.2-3.5-4.8-5.3" class="st12"/><path d="M1227.3 410.2c6.3 0 12.7.2 19-.1 6-.2 9.6 2.8 9.7 9.6.2 15.8.2 31.6 0 47.5-.1 6.1-3.3 9.6-8.9 9.6h-39.8c-6.5 0-9.3-4.1-9.3-11.3V421c0-7.3 2.9-11 9.4-10.9 6.7.2 13.3.1 19.9.1m-4.7 37.7c-1.1.2-2.4 0-3.4.5-2.3 1.1-4.5 2.6-6.8 3.9 1.4 2.8 2.2 7 4.2 8 4.4 2 9.4 3 14.2 3.1 8.4.2 11-4.1 9.6-13.4-3.3-1.6-6.3-3-9.4-4.5.5-4.3 1.3-8.6 1.2-12.9 0-2.9-.8-6.4-2.3-8.5-.9-1.2-5-1.4-6-.2-1.6 2-2.5 5.4-2.6 8.3.1 5.3.9 10.5 1.3 15.7" class="st18"/><path d="M1214.3 529.6c-1.2-3.1-2.3-6.1-3.9-10.4-1.7 3.8-3 6.9-4.4 10.1-.8.1-1.6.3-2.3.4-1.4-6.5-2.9-13.1-4.3-19.6.8-.3 1.6-.7 2.4-1 1.2 3.3 2.4 6.5 4 10.7 1.3-4 2.4-7.2 4.4-13.1 2 5.5 3.2 8.8 4.7 13.1 1.4-3.9 2.5-7.1 3.7-10.3.8.3 1.7.5 2.5.8-1.4 6.4-2.9 12.9-4.3 19.3-.9-.1-1.7-.1-2.5 0" class="st8"/><path d="M1269.2 529c-.5-4.5-.9-9-1.4-13.4 23-3 21.7.4 18.2 15.9-1.2-6.2-1.9-10-2.7-13.9-.7-.1-1.4-.1-2.1-.2l-2.4 11.7c-.5 0-1 0-1.4.1-.7-3.9-1.3-7.8-2-11.6-.6-.1-1.3-.2-1.9-.4l-2.4 11.7c-.6 0-1.3 0-1.9.1" class="st10"/><path d="M1355.6 528.9c-.7-2.5-1.4-4.9-2.3-8.4-1.5 3.2-2.7 5.6-4.3 8.9-1.6-3.5-2.9-6.3-4.6-10-.7 3.7-1.2 6.7-1.8 9.6-.5 0-1.1-.1-1.6-.1v-22.5c3.7 5.7 6.1 9.3 8.5 12.9l5.4-10.8c.7.3 1.5.5 2.2.8v19.2c-.6.1-1.1.3-1.5.4" class="st8"/><path d="M1376.6 525.5c1.3-5 1.4-11.4 4.3-14.6 3.4-3.8 8.6-2.9 11.2 2.2-4.1 1-7.8 1.3-11 3-.7.4.1 6 1.3 8.5.5 1 3.9.1 6 .1-.5-1.5-1-3-1.6-4.9h6.2c-1.8 11.1-6.6 12.6-16.5 5.6z" class="st11"/><path d="M1302.8 561.2c5.6-.7 11.3-1.7 16.9-2 .9-.1 2.9 3.3 2.5 4.2-.7 2-2.3 4-4 5.2-2 1.4-4.7 3.2-6.7 2.8-3.3-.7-6.3-3.1-9.4-4.8.2-1.8.5-3.6.7-5.4" class="st9"/><path d="M1376.4 525.3c-1.2 1.1-2.5 3.1-3.6 3-3.7-.4-7.3-1.5-10.9-2.3-.2.9-.4 1.7-.6 2.6-.2-.3-.6-.6-.5-.8 2.4-6.2 4.8-12.4 7.3-18.6 2.3 5.2 4.6 10.4 7 15.5.2.4.9.5 1.4.8.1 0-.1-.2-.1-.2" class="st10"/><path d="M1396.9 529.3v-19.8h9.7c.1.4.3.7.4 1.1-2.2 1-4.4 2-8.1 3.6 3 1.9 4.9 3.1 7.4 4.8-2.3 1.4-4.3 2.6-7.8 4.7 4 1.8 6.3 2.8 8.6 3.8v1.3c-3.1.1-6.2.3-10.2.5" class="st11"/><path d="M1309.2 517.4c2.1-3 4.2-6 6.5-9.2 2 5.6 4.1 11.5 5.9 16.5-2.7 1.7-4.7 2.9-6.7 4.1-1.2-5.4-4.2-11.2-5.9-11.4zm-50.1 3.9c-4.1 3.7-6.5 7.6-8.8 7.5s-4.4-4.3-6.7-6.7c2.4-2.6 4.4-6.3 7.2-7.4 1.5-.5 4.4 3.3 8.3 6.6m-10.7 3.1c.1.6.3 1.2.4 1.8 1.3-.4 2.6-.7 3.9-1.1-.1-.6-.3-1.2-.4-1.8-1.3.3-2.6.7-3.9 1.1" class="st10"/><path d="M1231.6 530.5c-3.2-1.6-6.3-3.3-9.5-4.9 2.7-3.2-1.1-12.3 5.9-10.6 2.8.7 4.6 7.4 6.8 11.3-1 1.4-2.1 2.8-3.2 4.2m61.7-11.3-2.7-1.5c1.6-1.1 3.2-2.9 4.8-3s4.4 1.2 4.8 2.6c.9 3.3.6 7 .9 12.2-4.1-.9-7.4-1.5-10.7-2.2 1-2.8 1.9-5.6 2.9-8.4 1 .2 1.9.5 2.9.7.1-.6.2-1.1.3-1.7-1.2.5-2.2.9-3.2 1.3" class="st11"/><path d="M1335.1 607.6c3.7 1.5 6.5 2.7 9.5 3.9 1.2-.6 3.3-1.6 5.4-2.6.7 2.1 2.3 5.3 1.8 5.9-1.5 1.6-3.8 2.4-5.9 2.9-3.5.8-7.2 1.1-10.7 1.7-.1-2.9-.1-6.4-.1-11.8" class="st9"/><path d="M1285.4 562.1c-.8 2.1-1.5 4-2.2 5.9-.8-.4-1.7-.8-2.5-1.2 1.2-2.7 2.8-7.8 3.7-7.7 4.6.8 9.1 3 13.6 4.7-.7 1.5-1.4 3-2.1 4.6-1.9-1.5-3.9-3-5.8-4.5-.2.4-.9 2.3-2 5.4-1.2-3.2-1.9-5.1-2.7-7.2m-75.1 32.1c-1.3-4.1-1.9-5.9-2.6-8.4-.8 2.3-1.4 4.1-2 5.9-.8-.4-1.6-.7-2.4-1.1 1-2.7 1.5-7.3 3-7.7 4.3-1.2 9.3-2 11.5 4.8.2.6.8.9 1.2 1.4-.4.7-.8 1.5-1.2 2.2-1.9-1.3-3.8-2.7-5.5-3.9-.3.7-.8 2.5-2 6.8m18-31.7c-.7 1.8-1.4 3.7-3 7.9-.6-3.9-1.1-5.3-1.1-6.7.2-7.1 5.1-5.5 8.1-4.6 2.4.7 4.3 4.2 6.4 6.5l-2.4 2.4c-.9-1.8-1.8-3.7-2.8-5.8-.6 1.9-1.1 3.7-2 6.9-1.4-2.9-2.3-4.8-3.2-6.6" class="st12"/><path d="M1309.1 517.4h-2.5 2.6z" class="st10"/><path d="M1604.5 410.2c6.3 0 12.7.2 19-.1 6.5-.3 10 3.1 10.1 10.3.2 15.2.2 30.4 0 45.5-.1 7.5-3.7 11.2-10.6 11.1-12.4-.3-24.8-.2-37.2 0-7.2.1-10.5-3.8-10.5-12 .1-14.5.1-29 0-43.6-.1-7.9 3.2-11.5 10-11.2 6.5.1 12.9 0 19.2 0m9.5 50.1c7.7-5.4 10-13.3 7.2-22.8-2.7-9-8.5-13.7-17-13.7-8.4 0-15.4 5.4-17.5 14.5s0 16.8 7.5 21.9c6.6 5.8 13.2 5.7 19.8.1" class="st19"/><path d="M1617.4 517.6c-.4 3.5-.9 6.9-1.3 10.6-3.6.4-7.5 1.9-10.8.7-2.7-1-4.7-5-6.9-7.6 2.3-2.3 6-7.1 6.8-6.5 6.1 4.1 11.8-.8 17.7.1 10.2 1.5 11 1.8 7.7 16.6-1.2-6.2-1.9-10-2.6-13.9-.7-.1-1.4-.2-2-.3-.8 3.9-1.6 7.8-3 14.2-1.5-6.4-2.5-10.4-3.4-14.3-.8.1-1.5.2-2.2.4" class="st8"/><path d="M1586.5 529.3c-1.3-2.5-2.4-4.5-3.9-7.3-1.1 2.8-2 5-2.9 7.2-.5-.1-.9-.2-1.4-.2v-18.8l1.7-1.7c2.3 3.8 4.7 7.6 6.8 11.1 1.8-3.3 4-7.3 6.2-11.4.8.5 1.6 1 2.4 1.6v18.9c-.5.2-.9.4-1.4.6-1-2.1-2-4.2-3.3-6.9-1.2 2.1-2.4 4.1-4.2 6.9" class="st10"/><path d="M1667.6 515.6c-1.8 7.5 3.5 17.7-7 18.5-1.9.1-6.3-9-6-13.6.6-9.1 7.3-5.2 13-4.9" class="st8"/><path d="M1759 588.6c4.7-6.6 14.4-6.9 19.6.1-3.8 2.8-5.2 14.8-12.3 2.9-.9-1.5-5-.5-7.6-.6.2-.9.2-1.6.3-2.4" class="st9"/><path d="M1750.8 532.9c-3.4-5.1-7.1-8.3-6.7-10.4.7-3.1 4.3-5.4 6.6-8.1 2.1 2.5 5.7 4.8 6 7.6.4 2.5-2.8 5.6-5.9 10.9" class="st8"/><path d="M1684.5 523.1c-4.6 3.1-7.8 6.6-9 5.8-2.6-1.6-4.2-5.4-6.2-8.4 2.5-2.1 4.9-5.6 7.5-5.7 2 0 4.1 4.2 7.7 8.3m-5.7 2.2c-.2-.6-.3-1.3-.5-1.9-1.3.4-2.6.8-4 1.2.1.6.3 1.2.4 1.9 1.4-.4 2.7-.8 4.1-1.2" class="st10"/><path d="M1733.8 531.2c-5.4-2.6-8.8-4.2-12.1-5.8 3.1-2.9-1.4-11.7 6-10.9 8.5 1 4.2 8.6 6.1 16.7m-31-5.2c2.3-.2 4.6-.3 6.8-.5.1.7.2 1.5.3 2.2-2.8.3-6.1 1.8-8.2.5-1.8-1.2-3.4-5.6-2.9-8.1.4-2.3 3.8-5.5 5.7-5.3 2.4.2 4.7 3.3 7.1 5.1-.4.9-.8 1.8-1.1 2.6-2.7.4-5.3.8-8 1.2.1.8.2 1.6.3 2.3m-57 2c-3 0-6.6 1.1-8.8-.4-1.7-1.1-2.8-6.1-2-8.4.7-2.2 4.4-4.6 6.5-4.3 2.2.3 4.1 3.6 8 7.3-5.6.8-8.2 1.2-10.9 1.5 0 .6 0 1.2.1 1.7h7.1c-.1.9-.1 1.8 0 2.6" class="st11"/><path d="M1654.1 567.4c1.4-3.9 2.1-5.8 3.6-10 .6 3.5 1.2 4.8.8 5.7-.8 2-1.8 5.2-3 5.4-3.6.7-7.5.5-11.2.1-1.2-.2-2.9-2.5-2.9-3.8 0-1.9 1.5-5.5 2.2-5.4 4.1.3 9.9-2.4 10.5 8" class="st9"/><path d="M1714.7 585.9c-.6 2-1.1 3.8-1.9 6.7-2.6-2.3-4.9-4.2-7.2-6.2.4-1 .8-2.1 1.1-3.1 6.7.4 13.4.9 20.1 1.3-.2 1.8-.4 3.7-.6 5.5-2.2-.5-4.4-1-7.2-1.6.2-.7-.3 1-1.3 4.3-1.1-2.8-2-4.7-3-6.9m-3.9-19.1c-2.1-.5-4.3-1-7.2-1.7.3-.8-.3 1-1.4 4.3-1.2-3.1-1.9-4.9-1.9-5-2.8.9-5.4 1.8-9.3 3.1 5.2-11.3 12-11.7 19.8-.7" class="st12"/><path d="M1685.1 528.9v-14.4c3.3.7 8.1 0 9.7 2.3 1.9 2.7 1 8 1.3 12.1-.8.1-1.6.2-2.4.2-.7-3.9-1.4-7.8-2.1-11.8-.8 0-1.7.1-2.5.1-.7 3.8-1.3 7.6-2 11.4-.7.1-1.3.1-2 .1" class="st10"/><path d="M1760.2 616.3c1.2-2.7 2.5-7.6 3.4-7.6 4.5.4 8.9 2.1 13.3 3.4-.5 1.7-.9 3.3-1.4 5-1.9-1-3.8-2-6.1-3.1 0-.1-.6 1.7-1.6 4.9-1.2-3-1.9-4.8-2.9-7.2-.8 2.2-1.4 4.1-2 5.9-.8-.5-1.7-.9-2.7-1.3m-1.2-27.7c-.1.8-.1 1.5-.2 2.3-2-.8-4.1-1.7-6.6-2.8 0 0-.7 1.8-1.8 5-1.2-3.2-1.9-5.1-2.6-7.2-.8 2.1-1.5 4-2.2 5.8-.7-.2-1.3-.4-2-.5.6-2.8.8-7.7 1.7-7.9 3.4-.6 7.1 0 10.6.9 1.2.4 2.1 2.9 3.1 4.4" class="st12"/><path d="M1613.5 612.9c-1.3 1-2.5 2.2-3.9 2.9-.3.1-1.3-1.7-2-2.6l4.2-3c.6.9 1.1 1.8 1.7 2.7" class="st5"/><path d="m1737.8 527.9.6.4.1-.4z" class="st8"/><path d="M67.5 795.8c0-7.3.1-14.5 0-21.8-.1-7.2 2.6-11.2 9.2-11.2 13.3.1 26.5.1 39.8 0 6.3-.1 9.1 3.9 9.2 10.3.2 15.2.2 30.4 0 45.5-.1 7.6-3.8 11.1-10.6 11-12.4-.3-24.8-.2-37.2 0-7.2.1-10.6-3.7-10.4-12.1.2-7.1 0-14.4 0-21.7m18.4-6c3.4-3 6.9-9.3 10.6.6 2.2-2.8 4.2-5.3 6.4-8-2.4-3.1-4.2-5.6-5.4-7.1-3 2.9-5.1 4.7-7 6.7-2.1 2.1-4.1 4.2-6.1 6.4-6.1 11.1-3.3 21.1 7.7 24.5-7-6.2-9.6-13.7-6.2-23.1" class="st20"/><path d="M73.7 877.9c0-.1-.9 2-1.8 4.1-.5-.1-1-.2-1.4-.3v-19.1c6.4-1.7 12.1-1.8 12.7 8.3 2.9-1.4 5.6-4 7.4-3.4 2.7 1 5.9 3.9 6.6 6.7.5 1.9-3 7.4-4.6 7.3-5.9-.2-11.7-2-18.9-3.6m7.5-3.3c-.2-.1-.4-.4-.6-.4-.2.1-.4.4-.6.6.4.1.8.3 1.2.4-.1-.2 0-.4 0-.6" class="st10"/><path d="M162.6 871.8c-.7 4.9-1.1 7.3-1.4 9.7h-1.6v-18.8l1.5-1.5c2 3.5 4.1 7 6.2 10.8q3.15-5.25 6.6-10.8l1.8 1.2v19.2c-.6.1-1.2.2-1.8.2-.5-3.4-1-6.8-1.6-11.6-1.8 4.4-3.2 7.8-5 12.3-1.5-3.5-2.6-5.9-4.7-10.7" class="st11"/><path d="M194.5 881c-5.7-3.8-9.8-6.7-13.9 2.8-.4-.9-.8-1.7-1.2-2.6 1.5-5.6 2.7-11.2 4.7-16.5.3-.8 5.4-.8 5.8.2 1.9 5.1 3.1 10.7 4.6 16.1" class="st10"/><path d="M207.8 875.7c-.9-1-1.9-1.9-3.4-3.5h8.7c-1.4 3.3-2.2 7.5-3.4 7.7-4.1.4-8.3-.5-12.4-1 .5-5-.6-11.7 1.9-14.7 3.5-4.4 9.1-4.1 11.8 2-3.8.7-7.6.9-10.9 2.4-.7.3-.8 6 .5 7.8 1.1 1.7 4.4 1.4 6.7 2 .1-1 .3-1.9.5-2.7" class="st8"/><path d="M176.4 946.7c-2.8-9.5-.5-12.2 5.8-11.5 3.5.4 7.4-.9 10.6.4 2.2 1 3.4 5 5.1 7.7l-2.4 3c-4-1.6-7.9-3.2-12-4.8.2-.6-.3 1.2-1.3 4.5-1.2-3.1-2-4.9-3-7.3-.8 2.2-1.4 4-2.8 8" class="st12"/><path d="M136.2 863.7c3.2 4.6 6.4 7.3 6.2 9.5-.3 3.1-3.1 5.9-4.9 8.9-2.5-2.4-6.2-4.4-7-7.4-.5-2.3 2.8-5.8 5.7-11m3.4 14.3c-.2-.6-.3-1.3-.5-1.9-1.3.4-2.6.8-4 1.2.1.6.3 1.2.4 1.9 1.4-.4 2.8-.8 4.1-1.2" class="st10"/><path d="M225.6 939.3c6.2-1.4 12.5-2.8 19.5-4.3.6 3.3 1.1 6.2 1.9 10.3-7.6-.7-14.4-1.2-21.2-1.8 0-1.5-.1-2.8-.2-4.2" class="st9"/><path d="M239.6 911.8c4.1-1.3 7.6-3.2 11.3-3.4 1.9-.1 5 1.9 5.7 3.9.8 2.2.4 7-.8 7.7-2 1.3-5.6 1.2-7.7-.1-3.1-1.8-5.5-5.1-8.5-8.1" class="st17"/><path d="M225.7 881.5h-10.4v-19.2h9.3c.1.4.2.8.3 1.1-2.2 1-4.4 2-8.3 3.7 3.3 1.9 5.3 3 8 4.6-2.5 1.3-4.5 2.3-6.5 3.4-.1.8-.1 1.6-.2 2.3 2.6.8 5.1 1.7 7.7 2.5 0 .6.1 1.1.1 1.6M118 883.1c-3.3-1.7-6.6-3.4-10-5.1 1.8-3.6 3.4-10 5.4-10.2 9-.9 4.7 7.8 6.3 12.3-.5 1-1.1 2-1.7 3" class="st11"/><path d="M75 927.9c2.3 5.8 4.4 8.8 4.3 11.6-.1 2.1-3.2 4-5 6-1.9-2.3-5.2-4.5-5.3-6.9-.1-2.6 2.8-5.4 6-10.7M290.7 913c1.6-5.2 5-7.2 8.4-3.5 1.7 1.9.7 6.9.9 10.5-3.1-.7-6.1-1.5-9.2-2.2-.1-1.6-.1-3.2-.1-4.8" class="st17"/><path d="M290.7 913c0 1.6.1 3.2.1 4.8-3.7 1.1-7.5 2.1-11.7 3.3v-13c4.3 1.8 7.9 3.4 11.6 4.9m-155.3 31.6h-15.9c.6-3 1.3-6.1 1.9-9.1 1.7 1.5 3.5 3 5.1 4.4 1.6-1.1 3.9-2.7 6.1-4.2.9 2.8 1.7 5.6 2.8 8.9m-13.4-2.7-.3.5.6.1z" class="st9"/><path d="M131.9 916.3c-.2.7-.7 2.5-1.7 5.8-1.2-3.1-1.9-4.9-2.9-7.4-.8 2.2-1.4 4.1-2.2 6.5-.9-1.2-1.9-2.1-1.8-2.5.7-2.5 1.9-7 2.6-6.9 4.5.6 8.9 2.2 13.3 3.5-.6 1.7-1.1 3.3-1.7 5-2-1.4-3.9-2.7-5.6-4" class="st12"/><path d="M175.3 963.7c2.5-.3 4.9-.5 7.4-.8.1 1.2.2 2.5.3 3.7-2.5.2-5 .4-7.4.5-.1-1.1-.2-2.3-.3-3.4" class="st17"/><path d="M124.8 880.7h-.6l.6.2z" class="st10"/><path d="M820.6 443.1v-22.7c0-6.8 3-10.3 9.1-10.3 13.2 0 26.4.1 39.7-.1 6.2-.1 9.3 3.5 9.4 10 .3 15.5.3 30.9.1 46.4-.1 6.6-3.2 10.4-9.2 10.4-13.2.1-26.4.1-39.7 0-6.3 0-9.5-3.7-9.4-11.1s0-15 0-22.6m46.8-19c-1-1.1-2-3.1-3.1-3.1-9.5-.3-19-.8-28.5.2-2.3.3-5.7 5.7-6 9-.9 8.8-.9 17.9 0 26.7.3 3.1 4.1 5.7 6.3 8.5 8.3.1 16.7.2 25 .2 5.3 0 7.9-3 7.9-9.1-.1-9.5-.1-19.1-.1-28.6-.5-1.3-1-2.6-1.5-3.8" class="st13"/><path d="M990.3 513.2c-1.6 8.5-2.4 14.2-3.9 19.7-.1.5-6 .2-6.5-1-1.7-4.4-3.6-9.9-2.5-14.1.5-2.2 6.8-2.6 12.9-4.6m-155.5 11c.2 1.5.3 3 .5 4.4-.7.6-1.4 1.3-2 1.9-1.2-2.8-2.5-5.7-4.3-9.8-1.9 4.1-2.9 6.3-3.9 8.5-.5-.1-1-.2-1.4-.3v-18.7c10.5-2.4 12.2-.9 11.2 9.9h-.2c0 1.4 0 2.8-.1 4.1zm35.8-.2c3.5-6.2 6.5-12.9 13.3-8.1 1.7 1.2 2.4 8.8.9 10.7-5.3 6.6-9.5.7-14.2-2.6" class="st10"/><path d="M1056.7 528.5c-1.7.2-4.2 1.3-6 .5-2.3-1-5.4-3.6-5.5-5.6-.1-2.8 1.9-6.2 3.8-8.4 1.8-2.1 4.7-3 7.7-4.8z" class="st11"/><path d="M898.8 518.5c.7-.4 2.8-2.8 5-3 2.9-.2 5.9 1.5 8.8 2.4-.8 3.7-1.7 7.3-2.5 11-3-1.5-6.3-2.6-9-4.7-1.4-1.1-1.7-4-2.3-5.7m11.3 7v-1.4h-4.6c0 .6 0 1.2.1 1.8 1.5-.2 3-.3 4.5-.4" class="st10"/><path d="M975 604.6c4.3 2.8 6.7 4.3 9 6 .7.5 1.1 1.5 1.6 2.2 7.4-11.4 10.4 4.6 16.3 2.7v2.7c-7.7 0-15.5.6-23.1-.5-1.6-.3-2.3-7.4-3.8-13.1" class="st9"/><path d="M1016.9 521.3c-4.4 3.8-7.1 7.9-9.1 7.5-2.6-.5-4.8-4.5-7.2-6.9 2.1-2.4 4.1-6.5 6.4-6.9 2.4-.4 5.2 3 9.9 6.3" class="st11"/><path d="M966.1 564.8c4.5-5.7 10.4-5.8 16.3-4.6.8.2 2 3.9 1.5 4.9-1.5 2.8-3.9 5.1-5.9 7.6-1.5-1.9-3-3.8-3.6-4.5-3.2-.4-5.9-.7-8.6-1.1.1-.8.2-1.5.3-2.3" class="st9"/><path d="M834.8 524.2h-.3c0-1.4 0-2.8.1-4.1h.2c1.3-.9 2.7-1.6 3.8-2.7 5.4-5.3 9-3.9 11.4 5.2-2.7.4-5.4.8-8 1.2v1.7h6.9c-.1.9-.1 1.8-.2 2.7-3.1-.3-6.3-.2-9.3-.9-1.6-.4-3-2-4.6-3.1" class="st11"/><path d="M999.1 569.6v-12.1c6.3 1.5 12.4 3.1 18.6 4.6 0 1.4.1 2.8.1 4.2-5.9 1-11.8 2-18.7 3.3" class="st17"/><path d="M1052.6 580.7c4.2 1.3 6.8 2.1 9.4 3-.3 2.4-.7 5.2-1.1 8.4-1.8.1-4.5.6-7.1.3-2.3-.3-4.5-1.4-6.7-2.2 1.2-2.5 2.3-5 3.6-7.3.7-1.4 2-2.3 1.9-2.2" class="st9"/><path d="m945.9 529.4-11.1-1.5c4.3-4.2-.6-15.9 8-12.8 2.7.9 3.7 7.7 5.5 11.9-.7.8-1.6 1.6-2.4 2.4" class="st11"/><path d="M878.3 644v-8.9c3.6-.3 6.8-1.1 9.8-.5 1.9.4 3.4 3 5.1 4.6-1.7 1.6-3.2 4.1-5.1 4.6-2.7.8-5.8.2-9.8.2m2-2.5.3-.5-.6-.1z" class="st9"/><path d="M963.7 515.3c.3-2.5.7-4.9 1.3-9.6 2.9 8 5.1 13.9 6.9 19-3 1.7-5.3 3.1-7.6 4.4z" class="st10"/><path d="M1117.1 382.1h-57.6v-.9h57.4c0 .3.1.6.2.9" class="st15"/><path d="M861.1 529c-.6-3.8-1.1-7.6-1.7-11.4-.8-.1-1.5-.2-2.3-.3-.9 3.8-1.8 7.7-2.7 11.5-.5.1-1.1.2-1.6.2-.4-4.3-.7-8.5-1.2-14.7 4.7.9 9.6.3 11.5 2.7 1.8 2.4.4 7.9.4 12.1-.8 0-1.6-.1-2.4-.1" class="st8"/><ellipse cx="1088.1" cy="417.1" class="st15" rx="41.2" ry=".7"/><path d="M966.1 564.8c-.1.8-.1 1.5-.2 2.3-2.1-.9-4.3-1.8-6.6-2.8 0 0-.7 1.8-1.8 5-1.2-3.2-1.9-5.1-2.6-7.2-.8 2.1-1.5 4-2.2 5.8-.7-.2-1.3-.4-2-.5.6-2.8.8-7.7 1.7-7.9 3.4-.6 7.1 0 10.6.9 1.2.4 2 2.9 3.1 4.4" class="st12"/><path d="M960.9 527.1c-3.5-.3-7.2-.1-10.5-1.3-.7-.3-.4-8.2.3-8.4 3.4-.9 7-.4 10.5-.3-.8.6-1.6 1.4-2.4 1.6-1.9.4-4 0-5.7.9-.5.3.1 3.4.1 5.3 1.8-.2 3.7-.6 5.5-.3.9.1 1.5 1.6 2.2 2.5" class="st8"/><path d="M960.9 527.1c-.7-.9-1.3-2.4-2.1-2.6-1.8-.3-3.7.2-5.5.3-.1-1.8-.7-5-.1-5.3 1.7-.9 3.8-.5 5.7-.9.9-.2 1.6-1.1 2.4-1.6.8-.6 1.7-1.2 2.5-1.8l.6 13.8c-1.2-.6-2.3-1.2-3.5-1.9" class="st2"/><path d="M1078.1 402.8c-3.6 2.8-5.6-9.3-9 .5v-10.2c3 .2 5.9.5 9 .7z" class="st12"/><path d="M914.5 591.3h-15.9c.2-2.5.4-5.3.7-10.2 5.5 3.7 9.8 6.6 15.2 10.2m43.3 0h-15.9c.2-2.5.4-5.3.7-10.2 5.5 3.7 9.8 6.6 15.2 10.2" class="st9"/><path d="m1100.9 401.4-10.8 4.4c2.5-5.4 3.2-8.7 5.1-10.2 1-.8 4 1.6 6.1 2.5-.1 1.1-.3 2.2-.4 3.3m-14 2.1c-1.6-2-3.3-3.9-6.1-7.3 3.1-.6 5.9-1.7 6.2-1.1 1.2 2.1 1.5 4.9 2.2 7.4-.8.3-1.5.6-2.3 1" class="st16"/><path d="M837.9 610.3c2.1 7.2 2.1 7.2-4.7 7.1V606c1.8 1.6 3.3 3 4.8 4.4-.9 1.2-1.9 2.4-2.8 3.6.7.6 1.4 1.2 2.2 1.7.1-1.8.3-3.6.5-5.4" class="st17"/><path d="M1103.4 403.2c-.2-3-.4-6.1-.5-9.1.8-.1 1.5-.2 2.3-.3l.9 9c-1 .2-1.8.3-2.7.4m20.2 10.6c-.7-1.2-1.4-1.9-1.4-2.6s.9-1.3 1.4-2c.5.7 1.3 1.3 1.4 2 0 .7-.7 1.4-1.4 2.6m-.5-24.3v-6c1.2 2.3 1.9 3 2 3.9.1.7-.5 1.5-.9 2.3-.3 0-.7-.1-1.1-.2m-66.8-2.8c-.7.9-1.1 1.5-1.6 2.1-.5-.7-1.1-1.3-1.4-2.1-.1-.3.6-1.5.7-1.5.7.4 1.3.9 2.3 1.5m-2 25.4c.2-.8.5-1.7.7-2.5.2.2.6.5.6.5l-1.2 2.1zm.1.1c-.1.3-.3.5-.4.8l.3-.9z" class="st16"/><path d="M1236.3 106.5c19.9.7 19.8.7 19.9 23.6.1 23.1-.5 19.7-17.3 19.8-24.8.1-19.6 2-20.6-22.8 1.5-19 1.5-19 18-20.6" class="st7"/><path d="M1236.3 106.5c-16.5 1.7-16.5 1.7-18 20.6-20.3-1.1-20.3-1.1-20.3-24.2 0-21.6-1.7-19.5 17.1-19.6 20.2-.1 20.2-.1 21.2 23.2" class="st6"/><path d="M1250 232.1c3.6-.5 7.3-1.1 11.1-1.5 2.8-.3 6.4-1.5 8.1 0 1.5 1.3 1.9 7.2.7 8.6-1.6 1.8-5.3 1.3-8.1 1.5-.6 0-1.5-2-1.8-1.8-9.1 4.8-9.2-3.1-10-6.8" class="st17"/><path d="M1353.6 192.8c-4.4 2.3-8.8 4.6-13.5 7v-16.7c6.2-4.2 9.7 2 13.9 5.5-.2 1.4-.3 2.8-.4 4.2" class="st10"/><path d="M1353.6 192.8c.1-1.4.3-2.8.4-4.2 5.2-8.5 9.1-8.8 14.4-2.1-3.4.7-7.2 1-10.7 2.6-.6.3-.6 6.1.7 7.9 1.2 1.6 4.5 1.2 7.5-.4-1-1.3-2-2.5-3.1-4h6.6l1.5 3c-2.9 2.3-5.7 5.9-8.9 6.5-5.3.9-8.7-2.5-8.4-9.3" class="st11"/><path d="M1224 205.9c-3.2-5.2-6.8-8.7-6.3-10.7.8-3.1 4.3-6.5 7.1-7.2 1.5-.4 5.4 4.6 5.6 7.4.3 2.5-3.1 5.4-6.4 10.5" class="st8"/><path d="M1323.3 195.3c-4.9 3.5-7.8 7.2-9.8 6.6-2.6-.8-4.4-5-6.6-7.7 2.3-2.3 4.5-6.1 6.9-6.3 2.3-.1 4.8 3.6 9.5 7.4m-66.4-6.8c1.8 0 3.7.5 5.4-.1 5.4-2.1 8.9-.9 9.9 7.1l-7.8 1.5c0 .5.1 1 .1 1.5h7.3c-7.2 5.4-9.6 4.9-12.1-1.4-.7-1.7-1.8-3.1-2.7-4.7 0-1.3-.1-2.6-.1-3.9" class="st10"/><path d="M1214.6 187.7c-3.4 0-6.9-.5-10.1.4-.7.2-1 7.5-.4 7.7 3.4 1.2 7.1 1.3 11.5 3.1-3.5 1-7.4 3.7-10.3 2.6-2.5-1-5.5-6.3-5.2-9.4.3-3.5 3.5-8.1 6.4-9.5 2.2-1.1 5.9 2 9 3.3-.2.7-.6 1.2-.9 1.8" class="st11"/><path d="M1296.2 233.8c-5 8.4-9.2 10.4-13.2 6-1.3-1.5.4-6.6.7-10 3.8 1.2 7.5 2.4 12.5 4" class="st17"/><path d="M1271.9 290.8V279c4 1.8 7.8 3.5 12.6 5.7-1.5 6.6-6.5 6.9-12.6 6.1" class="st9"/><path d="M1399.2 265c-1.7-1.6-3.5-3.2-5.1-4.8-.3.8-.9 2.7-2 6.1-1.2-3.3-1.9-5.2-2.7-7.4-.7 2.1-1.4 3.9-2.8 7.9-1-4.7-1.5-7.3-2-9.6 3.6-4.6 12.4-.9 14.6 7.8" class="st12"/><path d="M1256.9 188.5c0 1.3 0 2.6.1 3.9-1.1 3.5-2.2 6.9-3.3 10.4-.8 0-1.6 0-2.4-.1-1.7-4.6-3.3-9.2-5-13.9.7-.4 1.5-.8 2.2-1.2 1.3 2.6 2.6 5.2 3.8 7.7 1.5-2.1 3-4.5 4.6-6.8" class="st8"/><path d="M1339.8 252.4c1.3 3.8 2.6 7.6 4 12h-10.9c1.5-4.3 2.9-8.2 4.2-12.2.9 0 1.8.1 2.7.2" class="st9"/><path d="M1596.9 127.2c-1.7-.1-3.4-.4-5.2-.4-18 0-16.4 1.3-16.3-19.7.2-27.6-3.3-23.5 21.1-23.9h5.2c11 0 11.2.4 11.8 13.4.2 3.3 1.7 6.5 2.7 9.8-.4.9-.7 1.8-1.1 2.7-.5 4.9-1 9.9-1.5 14.8l.1-.1c-.7 1.1-1.5 2.1-2.2 3.2l-.5-.2c-4.7 0-9.4 0-14.1.1z" class="st6"/><path d="m1596.9 127.2.1-.3c4.7 0 9.4 0 14.1-.1l.5.2c.7-1.1 1.5-2.1 2.2-3.2l-.1.1c.5-4.9 1-9.9 1.5-14.8.4-.9.7-1.8 1.1-2.7 17 .2 17.5-3.4 17.4 19.6-.1 27.9 1.5 23.4-20.7 23.8h-.9c-17.4.1-18.8-2-15.2-22.6" class="st7"/><path d="M1762.2 192.8c-4.4 2.3-8.9 4.6-13.5 7V183c6.2-4.2 9.7 2 13.9 5.5-.2 1.5-.3 2.9-.4 4.3" class="st10"/><path d="M1762.2 192.8c.1-1.4.3-2.8.4-4.3 5.2-8.5 9.1-8.8 14.4-2.1-3.4.7-7.2 1-10.7 2.6-.6.3-.6 6.2.7 7.9 1.3 1.6 4.6 1.2 9.5 2.1-3-3.8-4-5-5.1-6.5h6.7l1.5 3c-2.9 2.3-5.7 5.9-8.9 6.5-5.4 1-8.8-2.4-8.5-9.2" class="st11"/><path d="M1602.2 184c2.9 5.2 6.3 8.7 5.7 10.8-.8 3-4.4 6.4-7.1 6.9-1.6.3-5.5-4.7-5.5-7.4-.1-2.6 3.4-5.4 6.9-10.3m108.1 10.3c-4.6 3.9-7.3 7.9-9.3 7.5-2.7-.5-5-4.5-7.4-7 2.2-2.5 4.3-6.5 6.8-6.9 2.1-.4 5 3.1 9.9 6.4" class="st8"/><path d="M1634.3 188.5c1.8 0 3.6-.3 5.3.1 3.1.8 6.2 2 9.3 3-1 3.5-1.2 8.8-3.3 10.1-3.9 2.4-7.6 0-8.9-5.6-.3-1.4-1.5-2.5-2.3-3.7 0-1.3 0-2.6-.1-3.9m11.8 10v-1.4h-4.6v1.8c1.6-.1 3.1-.3 4.6-.4" class="st10"/><path d="M1592.1 187.7h-10.2c0 3.1-.5 8.6.1 8.8 3.3.9 6.8.4 11 2.4-3.4 1.1-7.4 3.8-10.2 2.7-2.5-1-5.6-6.3-5.3-9.3.3-3.5 3.4-8.1 6.3-9.6 2.2-1.1 6 2 9.1 3.2-.2.6-.5 1.2-.8 1.8" class="st11"/><path d="M1727.4 264.2c-2.5.4-5.4 1.9-7.5 1-1.8-.8-4-4.2-3.9-6.3.1-2.3 2.4-5.3 4.3-6.3 1.3-.7 4.3 1 5.5 2.6 1.6 2.1 2.2 5.2 3.3 7.9-.5.4-1.1.7-1.7 1.1m-67.3 10.5c2.3 5 4.9 8 4.6 10.6-.2 2.3-3.9 6-5.5 5.7-2.1-.4-5.2-4.2-5.2-6.6.1-2.5 3.1-5.1 6.1-9.7m91.8-41.4c1.5-5.2 5-7.2 8.4-3.5 1.7 1.9.7 6.9.9 10.5-3.1-.7-6.1-1.5-9.2-2.2-.1-1.6-.1-3.2-.1-4.8" class="st17"/><path d="M1751.9 233.3c0 1.6.1 3.2.1 4.8-3.7 1.1-7.5 2.1-11.7 3.3v-13c4.3 1.8 7.9 3.4 11.6 4.9" class="st9"/><path d="M1624.8 260.4c3.9-6.1 7.1-6.7 9.7 1-5.2 1.5-9.5 2.7-14.2 4-1.1-2.2-2.2-4.5-3.7-7.7 2.4-.2 4.9-.4 7.4-.6.3 1.1.6 2.2.8 3.3m-3.1 2.3-.6-.4-.1.6z" class="st17"/><path d="M1713.6 190.3c-.7 3.9-1.4 7.9-2.1 11.8h-2c-.2-4.2-.4-8.4-.7-13.6h12.3c-.3 5.2-.5 9.4-.8 13.6h-2c-.7-3.9-1.4-7.9-2.1-11.8z" class="st8"/><path d="M1662.3 236.6c-.2.7-.7 2.5-1.7 5.8-1.2-3.1-1.9-4.9-2.9-7.4-.8 2.3-1.4 4.1-2.2 6.5-.9-1.2-1.9-2.1-1.8-2.5.7-2.5 1.9-7 2.6-6.9 4.5.6 8.9 2.2 13.3 3.5-.6 1.7-1.1 3.3-1.7 5-1.9-1.4-3.8-2.7-5.6-4" class="st12"/><path d="M1634.3 188.5c0 1.3 0 2.6.1 3.9-1.1 3.4-2.2 6.9-3.3 10.3h-2.5c-1.7-4.6-3.3-9.2-5-13.9.7-.4 1.5-.8 2.2-1.2 1.3 2.6 2.6 5.2 3.8 7.7 1.6-2.1 3.2-4.5 4.7-6.8" class="st8"/><path d="M1640.7 291.8c-1.8-2-3.7-3.9-5.1-6.1-.3-.4 1.6-2.6 2.4-3.9 1.9 2.2 3.8 4.3 5.6 6.5-.9 1.1-1.9 2.3-2.9 3.5" class="st2"/><path d="M1727.4 264.2c.6-.4 1.2-.8 1.7-1.2-.5.5-1.1.8-1.7 1.2" class="st5"/><path d="M457 116.3c0-7.6.3-15.1 0-22.7-.3-7.5 2-10.9 8.9-10.5 9.2.5 18.4.5 27.5 0 7.1-.4 10.1 3.7 10.3 11q.3 15.75 0 31.5c-.1 7.1-3.5 10.8-9.7 11h-3.4c-12.8.1-12.7.1-14.6-14-.2-1.4-1.4-2.7-2.1-4-5.7-.6-11.3-1.5-16.9-2.3m33.9-20c-.6.6-1.2 1.3-1.8 1.9s-1.2 1.3-1.8 1.9-1.1 1.3-1.7 1.9-1.2 1.3-1.7 1.9c-1.9-.4-3.7-.7-5.6-1.1-1.4 8 1.3 10.2 6.6 8.4v-6.1c.6-.7 1.1-1.3 1.7-2s1.2-1.3 1.7-2c.6-.7 1.1-1.3 1.7-2s1.1-1.3 1.7-2 1.1-1.3 1.7-2c.4-.9.9-1.9 1.3-2.8-.7.6-1.4 1.2-2 1.8-.6.8-1.2 1.5-1.8 2.2" style="fill:#daf1f8"/><path d="M457 116.3c5.6.8 11.2 1.7 16.9 2.5.1 7.6.4 15.1.2 22.7 0 2.4-.6 5.5-2 7.1-2.8 3.4-21.9 1.5-25.4-2 4-3.4 8.4-6.4 11.9-10.4 3.8-4.3 7.1-7.6 12.1-1.5v-15.1h-23.9v27.1c-.5-9.1-1.5-18.1-.9-27.1 0-1.4 7.2-2.2 11.1-3.3" class="st20"/><path d="M459.1 193.2c1.4-1.1 2.9-2.1 4.2-3.3 5.1-4.3 9-3.2 10.9 1.9 3-1.4 5.8-2.7 8.6-4 1.1 3.8 2.2 7.5 3.3 11.3-2.8.8-5.5 1.9-8.3 2.4-2 .4-4.2.5-6.1 0-4.2-1.2-8.4-2.8-12.5-4.3l-.3.1c0-1.4 0-2.8.1-4.1zm7.3 3.6c.1.9.2 1.9.3 2.8 2.2-.6 4.5-1.2 6.7-1.9 0-.3-.1-.6-.1-1-2.3.1-4.6.1-6.9.1m10.3-.6c1.8 1.7 2.3 2.4 2.5 2.3.7-.3 1.2-.9 1.8-1.3-.8-.2-1.7-.4-4.3-1m72.9 5.9c-.5-3.4-.9-6.8-1.6-11.7-1.8 4.5-3.2 7.8-5 12.4-1.5-3.4-2.6-5.8-4.2-9.4-1 3.5-1.8 6.1-2.5 8.6-.4-.1-.8-.1-1.3-.2v-19.2c.6-.4 1.2-.7 1.8-1.1 2.1 3.6 4.1 7.2 6.1 10.8l6.9-10.8c.5.4 1 .9 1.5 1.3V202c-.5 0-1.1.1-1.7.1" class="st11"/><path d="M685.3 255.1c4-.3 7.7-.7 11.5-.9 2.8-.2 6.5-1.3 8.1.2 1.4 1.4 1.7 7.3.4 8.7-1.7 1.7-5.4 1-8.2 1.1-.6 0-1.2-1.5-1.9-1.6-8.3-1.3-8.3-1.3-9.9-7.5" class="st17"/><path d="M459.1 193.2h-.3c0 1.4 0 2.8-.1 4.1 0 0 .3 0 .3-.1.2 1.5.3 2.9.5 4.4-.7.7-1.4 1.4-2.1 2-1.2-2.9-2.4-5.8-4.2-10.2-2 4.5-3 6.6-3.9 8.8l-1.5-.3v-18.7c10.6-2.2 12.4-.7 11.3 10m96.1 10.9c.2-3.5 0-4.8.4-5.8 2.4-5.4 4.9-10.7 7.4-16.1l7.8 18.6c-.6.8-1.2 1.5-1.8 2.3-4.4-7.2-8.8-6.5-13.8 1" class="st10"/><path d="M586.8 186.3c-4.2.9-7.9 1.2-11.2 2.8-.6.3.1 6 1.3 8.5.5 1 3.9.1 6 .1-.7-1.6-1.4-3.3-2.2-5.2h6.6c.5.9 1 1.9 1.6 2.8-2.9 2.4-5.7 6.6-8.6 6.6-3-.1-7.8-3.6-8.6-6.7-.8-3.3 1.2-9.3 3.7-11.5 3.9-3.4 8.8-2.7 11.4 2.6" class="st8"/><path d="M521.6 196.4c-5.3 3-8.4 6.1-10.5 5.5-2.2-.7-5.3-5.6-4.8-7.7.7-2.8 4.3-6.1 6.9-6.3 1.9-.2 4.2 4 8.4 8.5m-10.8.7.6 2.4c1.3-.5 2.6-1.1 3.8-1.6l-.3-1.5c-1.3.2-2.7.5-4.1.7" class="st10"/><path d="M573.1 287.4c4.5-5.7 10.4-5.8 16.3-4.6.8.2 2 3.9 1.5 4.9-1.5 2.8-3.9 5.1-5.9 7.6-1.5-1.9-3.1-3.8-3.6-4.5-3.2-.4-5.9-.7-8.6-1.1.1-.8.2-1.6.3-2.3m44.6-24.8c.7-2.1 1.4-4.1 2.1-6.1.4 0 .8.1 1.3.1.1 2.6.3 5.2.5 9.5-7.7-1.2-14.5-2.4-21.3-3.5 10.7-8.5 14.1-8.1 17.4 0" class="st9"/><path d="M600.5 184.2c-2.2.7-4.4 1.5-9.3 3.1 4.3 2.1 6.3 3 9 4.4-2.4 1.5-4.4 2.7-8.4 5.1 4.4 1.7 7 2.7 9.7 3.7 0 .4-.1.7-.1 1.1h-10.6v-19h9.5c.1.5.1 1.1.2 1.6" class="st11"/><path d="M526 233.2v7.8c-4.9.3-9.4.8-13.9.6-1.1 0-3-2.4-3-3.7 0-1.9 1.5-5.5 2.2-5.5 4.1.3 9.9-2.4 10.6 7.8 1.3-3.5 2-5.5 2.8-7.5.4.1.9.3 1.3.5" class="st9"/><path d="M480.3 284.5c-3.5 3.4-5.7 6.9-7.1 6.6-2.4-.6-6-3.8-6-5.7.1-2.7 2.8-6.4 5.1-7.3 1.5-.6 4.2 3.2 8 6.4m176.6-35.7c2.6 4.9 5.3 7.6 5.1 10.2-.1 2.3-3.3 4.5-5.1 6.7-2-2.2-5.5-4.2-5.6-6.5-.1-2.6 2.8-5.4 5.6-10.4" class="st17"/><path d="M573.1 287.4c-.1.8-.1 1.5-.2 2.3-2.1-.9-4.3-1.8-6.6-2.8 0 0-.7 1.8-1.8 5-1.2-3.2-1.9-5.1-2.6-7.2-.8 2.1-1.5 4-2.2 5.8-.7-.2-1.3-.4-2-.5.6-2.8.8-7.7 1.7-7.9 3.4-.6 7.1 0 10.6.9 1.2.4 2 2.9 3.1 4.4" class="st12"/><path d="M112.9 150c-13.1 0-13.1 0-13.1-15.2 0-14.8 0-14.8 14.2-14.7 11.9 0 11.9 0 11.9 15.6-.1 14.3-.1 14.3-13 14.3m-45.4-15.1c0-14.8 0-14.8 13.2-14.8 12.6 0 12.6 0 12.6 15.6 0 14.3 0 14.3-13.8 14.3-12 0-12 0-12-15.1m32.6-37.6c0-16.6-.5-14 13.7-14.1 12-.1 12 0 12 15.3 0 14.2 0 14.2-14 14.2-11.7 0-11.7 0-11.7-15.4m-32.6.3c0-14.4 0-14.4 13.5-14.4 12.3 0 12.3 0 12.3 15 0 14.5 0 14.5-13.7 14.5-12.1 0-12.1 0-12.1-15.1" class="st13"/><path d="M218.2 198.3c-1 .9-1.9 1.8-2.9 2.6-.3-2.6-.5-5.1-.9-9.1-1.8 3.9-3.1 6.7-5 10.8-1.6-3.9-2.8-6.7-4.4-10.5-.8 4.1-1.3 6.9-1.8 9.7-.5 0-1-.1-1.5-.1v-19.1c.5-.5 1-1 1.6-1.4 2.1 3.5 4.1 7 6.4 10.9 2.1-3.6 4.2-7.2 6.4-10.9.7.4 1.5.8 2.2 1.2v11.5c-.1 1.6-.1 3-.1 4.4" class="st8"/><path d="M202.4 231.6c4-.5 7.9-1.1 11.7-1.4 2.6-.2 6.3-1.3 7.4.2 1.5 1.9 2 6.7.8 8.8-1 1.8-4.8 1.8-7.4 2.2-1.7.2-3.5-.4-5.3-.6-6.3-.6-6.8-6.1-7.2-9.2" class="st17"/><path d="M218.2 198.3V194c1.6.2 4.2 1.1 4.5.4 1.3-2.4 1.5-5.6 2.8-8.1.8-1.7 2.6-2.7 3.9-4.1 1 1.4 2.2 2.6 2.9 4.1 1.7 3.9 3.2 7.9 4.8 11.9l-.2-.2c-1.3 1-2.6 2.7-3.9 2.7-3.2-.1-6.4-1-9.8-.4-1.7-.6-3.3-1.3-5-2" class="st10"/><path d="M138.6 197.8c-4 2.6-8.4 5.5-13.4 8.8V189c6.3-2.7 11.7-2.4 13.4 8.8" class="st8"/><path d="M237.1 198.3c.3-6.4-.8-14.1 6.8-15.8 2.9-.7 6.3 1.5 9.5 2.4-.3 1.1-.6 2.2-.9 3.2-1.8-.9-3.7-2.4-5.5-2.4-1.7 0-4.2 1.1-4.9 2.6-.9 2-1.1 5.2-.4 7.3.5 1.6 2.9 2.8 4.7 3.3.8.2 2.1-1.6 3.2-2.5-.9-1.1-1.8-2.2-3-3.7h7.5c-2.8 11.5-7.1 12.7-17.2 5.4.1 0 .2.2.2.2" class="st11"/><path d="M103.7 195.4c-4.9 3.4-8 7.1-10 6.5-2.7-.8-4.6-5-6.8-7.7 2.4-2.2 4.8-6 7.3-6.2 2.3-.3 4.8 3.5 9.5 7.4" class="st8"/><path d="M259.2 196.9c4 1.5 6.4 2.5 8.7 3.4-.1.4-.1.8-.2 1.3H257v-18.9h12.2c-4 2-6.2 3.1-9.9 4.9 2.9 1.6 4.7 2.6 7.3 4-2 1.5-3.9 2.8-7.4 5.3" class="st10"/><path d="M83.9 187.2c-3.4.2-6.9-.1-10 1-.7.3-.6 8 .3 8.4 2.8 1.2 6.3.4 12.6.4-4.5 2.4-7.5 5.5-9.7 4.9-3-.8-7.4-4.5-7.4-7-.1-4.1 2-9.8 4.8-11.9 2.2-1.6 6.9 1.2 10.5 2.1-.3.7-.7 1.4-1.1 2.1" class="st11"/><path d="M195.8 262.9c-6.2 1.4-12.3 2.8-18.8 4.3v-11.4c6.2.8 12.2 1.5 18.2 2.2.1 1.6.3 3.2.6 4.9m-6.8-4.3.6.3v-.6z" class="st17"/><path d="M99.6 235.1c-.8 2.2-1.4 4-2.6 7.3-1.2-3.3-1.9-5.2-2.7-7.4-.6 2.1-1.1 3.9-1.7 6-3.8-1-7.5-1.9-11.3-2.9 1.7-4.1 13.2-8.7 18.4-6.1 2.1 1 3.1 4.9 4.7 7.4-.8.5-1.7 1-2.5 1.6-.7-1.8-1.4-3.6-2.3-5.9" class="st12"/><path d="M152.8 198.6h7.3v2.8c-2.9 0-6.6 1.3-8.4-.3-1.9-1.7-2.7-6.2-2.3-9.3.2-1.7 4.1-4.4 5.8-3.9 2.5.7 4.6 3.7 6.9 5.7-.4.7-.9 1.5-1.3 2.2-2.7.4-5.4.8-8.1 1.3 0 .4 0 1 .1 1.5" class="st11"/><path d="M174.6 225.2c2.3 5 4.8 8 4.5 10.6-.3 2.3-4 5.9-5.7 5.6-2.1-.4-5.1-4.3-5.1-6.7.1-2.5 3.2-5 6.3-9.5m93.7 10.3c-3.3 3-5.4 6.3-7.1 6-2.4-.4-4.4-3.4-6.6-5.4 2-2.7 3.6-6.3 6.1-7.6 1.1-.5 4.1 3.7 7.6 7" class="st17"/><path d="M174.8 199.2c-3.7 1-7.4 1.9-11.1 2.9-.1-1.2-.2-2.5-.3-3.7 1.8.4 3.6.8 6.3 1.5-.8-1.7-.9-2.6-1.4-3.1-1.8-2-3.6-3.9-5.4-5.9 1.6-1.1 3.1-3.2 4.7-3.2 3.5-.1 6.2 1.1 2.9 6.1-.3.4 2.8 3.8 4.3 5.8.1 0 0-.4 0-.4" class="st8"/><path d="M174.8 199.2v.4c1.7-.4 3.4-.8 4-.9-1.1-3-2.2-6.3-3.4-9.5 2.4-.3 6.7-1.3 6.9-.7 1.1 3.7 1.3 7.8 1.7 11.7-3-.4-6.1-.7-9.2-1" class="st11"/><path d="M111.5 202c-.6-3.8-1.1-7.6-1.7-11.4-.8-.1-1.5-.2-2.3-.3-.9 3.8-1.8 7.7-2.7 11.5-.5.1-1.1.2-1.6.2-.4-4.2-.7-8.5-1.2-14.7 4.7.9 9.6.3 11.5 2.7 1.8 2.3.4 7.8.4 12z" class="st8"/><path d="M265.3 264.9c-1.8-1.6-3.7-3.1-5.3-4.5-.2.6-.7 2.4-1.6 5.6-1.4-2.9-2.2-4.8-3.2-6.8-.7 2-1.2 3.8-1.8 5.6-.8-.3-1.5-.7-2.3-1 .9-2.7 1.5-7.3 2.9-7.6 4.3-1.2 9.3-2.2 11.5 4.7.2.5.8.9 1.3 1.3-.6.8-1 1.7-1.5 2.7" class="st12"/><path d="M299.5 255.7v9.6h-1.7v-9.6z" class="st17"/><path d="M820.6 116.5c0-7.3.1-14.5 0-21.8-.1-7.7 2.7-11.7 9.7-11.6 13 .2 26 .2 38.9 0 6.7-.1 9.5 4 9.6 11 .2 14.8.2 29.7 0 44.5-.1 7.4-3.3 11.5-10.3 11.4-12.7-.2-25.4-.1-38.1-.1-6.8 0-10-3.8-9.8-11.6.1-7.2 0-14.5 0-21.8m25.3-1c-3.8 4.5-7 8-9.7 11.8-.2.4 2.5 3.5 3.9 5.3 3.3-3.4 6.7-6.9 10.5-10.8 3.1 2.7 7.1 6.3 11.2 9.9-5.2-10.5-10.8-19.8-16.7-28.7-.9-1.4-3.8-2.1-5.3-1.6s-3.5 3-3.5 4.7c0 2.2 1.3 5 2.9 6.4 2 1.7 4.7 2.1 6.7 3" class="st20"/><path d="M910.8 183v18.9c-.5.1-1.1.3-1.6.4-.8-2.6-1.6-5.2-2.7-8.6-1.4 3-2.5 5.4-4.1 8.9-1.7-3.6-2.9-6.3-4.7-10.2-.7 3.8-1.2 6.7-1.7 9.7-.5 0-1.1-.1-1.6-.1v-19.1c.5-.5.9-1 1.4-1.5l6.9 10.8 6-10.8c.6.5 1.3 1.1 2.1 1.6" class="st8"/><path d="M915.7 231.4c4.1-.4 7.8-.8 11.5-1.1 2.6-.2 6.8-1.4 7.4-.3 1.3 2.7 1.7 6.9.7 9.7-.5 1.4-4.9 1.1-7.5 1.2-1.3.1-2.7-1.2-3.8-.9-8.1 2.2-7.3-5.2-8.3-8.6" class="st17"/><path d="M865 206.3v-19.5c4.2 1.5 10.4 1.7 11.6 4.6 5.2 12.5-8.4 8.6-11.6 14.9" class="st10"/><path d="M930 196.6c.6-7 .8-14.7 9.5-14.3 2.5.1 4.8 2.5 8.2 4.4-5.4.5-9.1.2-12.3 1.6-.8.4-.9 6.5.4 8.7.9 1.6 4.6 1.1 9.3 1.9-2.7-3.6-3.7-4.9-5.1-6.9 2.7.2 4.9.4 9.9.8-3.8 4.4-6.1 9-8.1 8.9-4-.3-7.9-3.3-11.8-5.2z" class="st11"/><path d="M929.8 196.5c-.5 1.8-.9 3.6-1.7 6.5-4.2-5.8-8.6-7.7-14.3-1.4 1.5-5.3 2.9-10.7 4.7-15.9.5-1.4 2.3-3.2 3.4-3.1 1.1.2 2.3 2.2 3 3.7 1.7 3.4 3.3 6.9 4.9 10.4.2-.1 0-.2 0-.2" class="st8"/><path d="M865.7 194.5c-4.7 3.9-7.4 7.8-9.4 7.4-2.7-.6-4.8-4.6-7.2-7.1 2.2-2.4 4.2-6.3 6.7-6.8 2.2-.4 4.9 3 9.9 6.5m84.6-12h12.5c-4.6 2.1-7 3.2-10.6 4.9 3 1.9 4.8 3.1 7.4 4.8-2.5 1.2-4.3 2.2-8.2 4.1 4.2 2 6.6 3.1 11.3 5.3h-12.5c.1-6 .1-12.1.1-19.1m-113.4 4.8c-3.2 0-6.7-.8-9.4.4-1.1.5-1.2 8.1-.5 8.4 3.1 1.3 6.6 1.1 12.4 1.7-4.2 1.9-7.7 4.9-10.1 4.1-2.8-.9-6.4-5.2-6.5-8.1-.1-3.7 2.4-9.2 5.1-10.7 2.6-1.4 6.9 1.4 10.4 2.4-.5.5-.9 1.1-1.4 1.8" class="st11"/><path d="M1029.1 263.8c1.3-3.7 2-5.5 2.6-7.4.4.1.8.2 1.2.4v8.1c-4.8.2-9.2.8-13.5.5-1.4-.1-3.6-2.6-3.6-4.1-.1-1.7 1.8-5.2 2.7-5.2 4.2.2 9.8-1.7 10.6 7.7m-63.8 26.4c1.3-4.2 1.8-6 2.3-7.8h1.5c.1 2.7.2 5.5.3 8.2-5.1.3-9.4.9-13.6.6-1.5-.1-4.1-2.5-4-3.5.2-2.2 2.3-6 3-5.8 3.9.8 9.8-1.6 10.5 8.3" class="st9"/><path d="M983 233.3c-4.8 8.8-8.9 10.9-13.1 6.7-1.4-1.4.1-6.6.3-10 3.7.9 7.5 1.9 12.8 3.3" class="st17"/><path d="M1006.7 289.3c.9-3 1.5-4.9 2.3-7.7 1.7 2.8 2.9 4.9 4.2 7-9.5 4.8-15.3 3.7-20.2-4.4 3.3-2.1 6.8-6.8 8.3 2.4 1.1-2.1 1.7-3.3 2.9-5.7 1 3.3 1.6 5.3 2.5 8.4m-8.8-.6.3-.5-.6-.1z" class="st9"/><path d="M895 236.4c-3.5 2.6-5.9 5.6-7.6 5.2-2.3-.6-4.1-3.9-6.2-6 2.2-2.5 4.1-6.1 6.6-6.9 1.4-.5 4 4 7.2 7.7" class="st17"/><path d="M1063.6 241.1v-8.3c4-.4 7.4-1.3 10.7-.8 1.5.2 3.7 3.1 3.8 4.9.1 1.5-2.4 4.2-4 4.5-3 .7-6.4 0-10.5-.3m1.5-2.3.6.3v-.5z" class="st9"/><path d="M865.5 265.4c-1.1-2.2-2.2-4.5-3.8-7.7 2.5-.1 5.1-.3 7.7-.4 4.4-3.4 7.6-3.1 10.5 4.1-5.5 1.5-9.8 2.7-14.4 4m1.3-2.7-.6-.4-.1.6z" class="st17"/><path d="M480.5 806.6c-4.7 0-9.4 0-14.1.1 4.8-.1 9.5-.1 14.1-.1m4.1-17.8c-.5 4.9-1 9.9-1.5 14.8.5-4.9 1-9.8 1.5-14.8m92.8 88.7c-.3-.2-.6-.5-.9-.7.2-.2.4-.6.5-.5.4.1.7.4 1 .6z" class="st4"/><path d="M500.4 439.6c-4-4.2-6.8-7.1-10.3-10.7-8.6 9.7-16.9 19-25.2 28.3-.9-.4-1.8-.8-2.6-1.2 0-12.9-.1-25.9.2-38.8 0-1.2 2.7-3.3 4.2-3.4 9.5-.3 19-.5 28.5.1 1.8.1 4.7 3.5 4.9 5.7.7 6 .3 12.2.3 20" class="st16"/><path d="M577.3 520.8c-.2-.2-.4-.4-.6-.7.2-.2.4-.5.6-.5s.4.4.6.6q-.15.3-.6.6m12.6 7.2c-.1.2-.2.5-.3.7-.3-.2-.6-.5-.8-.7.2-.2.4-.5.6-.7.1.3.3.5.5.7m41.1 61.2.3.5h-.6z" class="st4"/><path d="M842.7 813.7c.1-3 .1-5.9.2-8.9l.7-.7c4.8 3.7 9.2 3.1 13.1-1.8l.7.6c-3.1 9.3 2.7 11.8 9 13.9l-1.2 2.4c-3.5-1.7-7.9-2.3-10.2-5.2-4.7-6-8-4.4-11.6.8-.3-.4-.5-.7-.7-1.1" class="st12"/><path d="M858.9 784.5c-.5 6.1-1 12.2-1.5 18.4l-.6-.6c.6-5.8 1.1-11.5 1.7-17.3zm-15.6 30.2c-3 1.5-6 3.1-8.9 4.6l-.9-3c3.1-.8 6.1-1.7 9.2-2.5zm-2.2-13.8c-.5-4.8-1-9.5-1.5-14.3 0 0 .3.3.3.2.6 4.5 1.1 9.1 1.7 13.6 0 .1-.5.5-.5.5m3.7-20.2c3.5 0 7 0 10.5.1l-.1.1h-10.3z" class="st12"/><path d="m842.9 804.8-1.8-3.9.5-.4c.7 1.2 1.3 2.4 2 3.6-.3.2-.5.5-.7.7m-3.3-18.2c.6-1.3 1.2-2.6 1.8-4l.4.5c-.6 1.2-1.3 2.5-1.9 3.7z" class="st12"/><path d="M841.3 782.7c1.2-.7 2.3-1.3 3.5-2l.1.1c-1 .8-2.1 1.6-3.1 2.4zm14-2c.7.5 1.4 1.1 2 1.6l-.6.6c-.5-.7-1.1-1.4-1.6-2.1zm2 1.7c.5.7 1 1.4 1.5 2.2l-.5.5c-.5-.7-1.1-1.3-1.6-2 .1-.1.6-.7.6-.7" class="st12"/><path d="m905.4 871.9-.6 5.1c-1.4-.5-2.7-1.1-4.1-1.6 1.6-1.1 3.2-2.3 4.7-3.5.1.1 0 0 0 0m9.2 4.7h4.1c0 .4.1.8.1 1.2-1.4.4-2.7.8-4.1 1.1 0-.7-.1-1.5-.1-2.3" class="st4"/><path d="M111 435.9c-7.5 12.9-15.3 25.4-32.3 26.2 2.3-5.1 4.6-10.2 7-15.3.3.5.7.9 1.2 1.3 1 .8 2.7 2.4 2.8 2.2 4.2-4.5 8.2-9.2 12.1-14.1.4-.5-.7-2.5-1.1-3.9-.3-.5-.7-1-1.1-1.5 2-1.2 4-2.3 6.1-3.5 1.7 3 3.5 5.8 5.3 8.6" class="st3"/><path d="m111 435.9-5.4-8.4c1.4-.9 3.5-2.9 4-2.5 2.3 1.9 4.1 4.6 6.1 7-1.6 1.3-3.1 2.6-4.7 3.9" class="st9"/><path d="M96 435c.6-.7 1.2-1.4 1.8-2 .3.5.7.9 1.1 1.3-.6.7-1.2 1.3-1.7 2-.4-.5-.8-.9-1.2-1.3m-10.3 11.8c.6-.7 1.2-1.3 1.8-2 .3.5.7.9 1.1 1.4-.6.7-1.1 1.3-1.7 2-.5-.5-.9-.9-1.2-1.4m5.1-5.9c.6-.7 1.2-1.4 1.8-2 .3.5.7.9 1.1 1.3-.6.7-1.2 1.3-1.7 2-.4-.5-.8-.9-1.2-1.3" class="st3"/><path d="M92.6 438.9c.6-.7 1.2-1.3 1.8-2 .3.5.7.9 1.1 1.3-.6.7-1.2 1.3-1.7 2-.5-.4-.8-.9-1.2-1.3m-3.5 4c.6-.7 1.2-1.3 1.7-2 .4.4.8.8 1.2 1.3-.6.7-1.2 1.3-1.7 2-.4-.5-.8-.9-1.2-1.3m8.7-10c.6-.7 1.1-1.3 1.7-2 .4.4.8.9 1.1 1.5l-1.8 1.8c-.3-.4-.6-.8-1-1.3" class="st3"/><path d="M87.4 444.8c.6-.6 1.1-1.2 1.7-1.9.4.4.8.8 1.2 1.3-.6.7-1.2 1.3-1.7 2-.5-.5-.8-.9-1.2-1.4m7-7.9c.6-.6 1.1-1.3 1.7-1.9.4.4.8.8 1.1 1.2-.6.7-1.1 1.3-1.7 2-.4-.4-.8-.8-1.1-1.3" class="st3"/><path d="M147.2 524.1c1.4-.2 2.8-.5 4.1-.7l.3 1.5c-1.3.5-2.6 1.1-3.8 1.6q-.15-1.2-.6-2.4" class="st4"/><path d="M1231.1 445.6c3 1.4 6.1 2.9 9.4 4.5 1.4 9.2-1.2 13.5-9.6 13.4-4.8-.1-9.8-1.1-14.2-3.1-2-.9-2.9-5.2-4.2-8 2.2-1.3 4.4-2.7 6.8-3.9 1-.5 2.2-.4 3.4-.5z" class="st2"/><path d="M1231.1 445.6c-2.8.8-5.7 1.6-8.5 2.4-.4-5.2-1.2-10.5-1.1-15.7 0-2.8 1-6.3 2.6-8.3 1-1.2 5.1-1.1 6 .2 1.6 2.1 2.3 5.6 2.3 8.5 0 4.3-.8 8.6-1.3 12.9" class="st0"/><path d="M1248.4 524.4c1.3-.4 2.6-.7 3.9-1.1.1.6.3 1.2.4 1.8-1.3.4-2.6.7-3.9 1.1-.1-.6-.2-1.2-.4-1.8m44.9-5.2c1-.4 2.1-.8 3.1-1.3-.1.6-.2 1.1-.3 1.7-1-.2-1.9-.5-2.9-.7z" class="st4"/><path d="M1594.1 460.2c-7.5-5.1-9.6-12.8-7.5-21.9 2.1-9 9.1-14.4 17.5-14.5 8.5 0 14.3 4.6 17 13.7 2.8 9.5.5 17.4-7.2 22.8-.6-.7-1.2-1.4-1.7-2.1 1.5-2.3 3.1-4.7 5.5-8.3h-28.3c3.1 4.1 4.6 6.3 6.2 8.4-.4.6-.9 1.3-1.5 1.9" class="st0"/><path d="M1614 460.3c-6.6 5.6-13.3 5.7-19.9-.1.5-.6 1-1.3 1.5-1.9 5.5 0 11.1-.1 16.6-.1.7.7 1.2 1.4 1.8 2.1" class="st0"/><path d="M1678.8 525.3c-1.3.4-2.7.8-4 1.2-.1-.6-.3-1.2-.4-1.9 1.3-.4 2.6-.8 4-1.2 0 .6.2 1.2.4 1.9" class="st4"/><path d="M84.4 788.3c2-2.1 4-4.3 6.1-6.4 1.9-1.9 4-3.8 7-6.7 1.2 1.6 3 4 5.4 7.1-2.2 2.7-4.2 5.3-6.4 8-3.7-9.9-7.2-3.7-10.6-.6-.5-.4-1-.9-1.5-1.4" class="st1"/><path d="M85.9 789.8c-3.4 9.4-.8 16.9 6.3 23-11-3.4-13.8-13.4-7.8-24.5z" class="st1"/><path d="M81.2 874.6v.7c-.4-.1-.8-.3-1.2-.4.2-.2.4-.5.6-.6.1-.1.4.1.6.3m58.4 3.4c-1.4.4-2.7.8-4.1 1.2-.1-.6-.3-1.2-.4-1.9 1.3-.4 2.6-.8 4-1.2.2.6.4 1.3.5 1.9M122 941.9l.3.6-.6-.1z" class="st4"/><path d="M868.8 427.9c0 9.5.1 19.1.1 28.6.1 6.1-2.6 9.1-7.9 9.1-8.3-.1-16.7-.2-25-.2 0-1 .1-2 .1-3.1 6.5-8.6 13-17.2 19.5-25.7.8.9 1.6 1.8 2.4 2.8 2.6 2 5.3 4 9.3 7.1v-18.6z" class="st14"/><path d="M836.3 462.3c0 1-.1 2-.1 3.1-2.2-2.8-6-5.5-6.3-8.5-.9-8.8-.9-17.9 0-26.7.3-3.4 3.7-8.8 6-9 9.4-1 19-.5 28.5-.2 1 0 2 2 3.1 3.1l-.7.7c-7.2-.2-14.7-2-21.4-.1-4.6 1.4-10.7 7.5-11.5 12.4-1.3 8-5.2 17.8 2.4 25.2" class="st12"/><path d="M868.8 427.9h-1.4c-.2-1-.5-2-.7-3.1.2-.3.5-.5.7-.7.5 1.2 1 2.5 1.4 3.8" class="st12"/><path d="M834.6 520.2c0 1.4 0 2.8-.1 4.1 0-1.4.1-2.8.1-4.1m75.5 5.3c-1.5.1-3 .3-4.6.4 0-.6 0-1.2-.1-1.8h4.6c.1.5.1.9.1 1.4m-29.8 116-.3-.6.6.1zm-42.4-31.2c-.2 1.8-.4 3.7-.6 5.5-.7-.6-1.4-1.2-2.2-1.7.9-1.2 1.9-2.4 2.8-3.6.1-.1 0-.2 0-.2m773.2-483.4c-4.7 0-9.4 0-14.1.1 4.7-.1 9.4-.1 14.1-.1m4-17.8c-.5 4.9-1 9.9-1.5 14.8.5-4.9 1-9.8 1.5-14.8m-1.3 14.8c-.7 1.1-1.5 2.1-2.2 3.2.7-1.1 1.4-2.1 2.2-3.2m32.3 74.6c-1.5.1-3 .3-4.6.4v-1.8h4.6zm-24.4 64.2-.7.2.1-.6z" class="st4"/><path d="M484.9 105.2v6.1c-5.4 1.8-8-.4-6.6-8.4 1.9.4 3.7.7 5.6 1.1.3.4.7.8 1 1.2m7.8-11 2.1-1.8c-.4.9-.9 1.9-1.3 2.8-.3-.3-.5-.7-.8-1m-7.1 7.8c.6-.6 1.1-1.3 1.7-1.9.3.4.7.7 1 1-.6.7-1.2 1.3-1.7 2-.3-.3-.6-.7-1-1.1" class="st18"/><path d="M490.1 99.2c-.6.7-1.1 1.3-1.7 2-.4-.3-.7-.7-1-1 .6-.6 1.2-1.3 1.8-1.9q.3.45.9.9" class="st18"/><path d="M491.8 97.2c-.6.7-1.1 1.3-1.7 2-.3-.3-.6-.6-1-.9.6-.7 1.2-1.3 1.8-2z" class="st18"/><path d="M490.9 96.3c.6-.7 1.3-1.4 1.9-2.1.2.3.5.7.7 1-.6.7-1.1 1.3-1.7 2zm-4.3 6.9c-.6.7-1.1 1.3-1.7 2-.4-.4-.7-.8-1-1.2.6-.7 1.2-1.3 1.7-1.9.4.3.7.7 1 1.1" class="st18"/><path d="M446.7 146.7v-27.1h23.9v15.1c-5-6.2-8.3-2.9-12.1 1.5-3.5 4-7.9 7-11.9 10.4z" class="st0"/><path d="M466.4 196.8h6.9c0 .3.1.6.1 1-2.2.6-4.5 1.2-6.7 1.9-.1-1-.2-1.9-.3-2.9m10.3-.6c2.6.6 3.5.8 4.3 1-.6.5-1.2 1.1-1.8 1.3-.2.1-.7-.6-2.5-2.3m-17.9 1.1c0-1.4 0-2.8.1-4.1 0 1.4 0 2.7-.1 4.1m52-.2c1.4-.2 2.8-.5 4.1-.7l.3 1.5c-1.3.5-2.6 1.1-3.8 1.6zM189 258.6l.6-.3v.6z" class="st4"/><path d="M845.9 115.5c-2-.8-4.8-1.3-6.7-3-1.5-1.4-2.8-4.2-2.9-6.4 0-1.6 2-4.1 3.5-4.7 1.6-.5 4.4.2 5.3 1.6 5.9 8.9 11.5 18.2 16.7 28.7-4.1-3.6-8.1-7.2-11.2-9.9-3.8 3.9-7.2 7.4-10.5 10.8-1.4-1.8-4.2-4.9-3.9-5.3 2.8-3.9 5.9-7.3 9.7-11.8" class="st0"/><path d="m997.9 288.7-.2-.5.6.1zm67.2-49.9.6-.2v.5zm-198.3 23.9-.6.2.1-.6z" class="st4"/><path d="M856.8 783c.6.7 1.1 1.3 1.6 2-.6 5.8-1.1 11.5-1.7 17.3q-5.85 7.2-13.2 1.8c-.7-1.2-1.3-2.4-2-3.6-.6-4.5-1.1-9.1-1.7-13.6.6-1.2 1.3-2.5 1.9-3.7 1-.8 2.1-1.6 3.1-2.3h10.3c.6.7 1.1 1.4 1.7 2.1m-9 7.1 1.5 1.8c-.4 3.3-.7 6.5-1.3 11.9 2.4-4.8 4.3-7.3 5-10.2.6-2.4-.2-5.2-.4-7.9-2.5.6-5.1 1.3-7.6 1.9 1 .8 1.9 1.6 2.8 2.5" class="st18"/><path d="M95.5 438.2c.6-.7 1.1-1.3 1.7-2s1.2-1.3 1.7-2l1.8-1.8c.4 1.3 1.5 3.4 1.1 3.9-3.8 4.9-7.9 9.5-12.1 14.1-.2.2-1.8-1.4-2.8-2.2.6-.7 1.1-1.3 1.7-2s1.2-1.3 1.7-2c.6-.7 1.2-1.3 1.7-2 .6-.7 1.2-1.3 1.7-2 .6-.7 1.2-1.3 1.8-2m1516.8 20c-5.5 0-11.1.1-16.6.1-1.6-2.1-3.2-4.3-6.2-8.4h28.3c-2.4 3.6-4 5.9-5.5 8.3" class="st19"/><path d="M866.7 424.8c.2 1 .5 2 .7 3.1v18.6c-4-3.1-6.6-5.1-9.3-7.1-.8-.9-1.6-1.8-2.4-2.8-6.5 8.6-13 17.2-19.5 25.7-7.5-7.4-3.7-17.2-2.4-25.1.8-5 6.8-11.1 11.5-12.4 6.7-2 14.2-.2 21.4 0" style="fill:#7da84f"/><path d="M847.8 790.1c-.9-.8-1.9-1.6-2.8-2.4 2.5-.6 5.1-1.3 7.6-1.9.2 2.6 1 5.5.4 7.9-.7 2.9-2.6 5.4-5 10.2.6-5.4.9-8.7 1.3-11.9l1.8-2.4c-1.1.1-2.2.3-3.3.5" class="st5"/><path d="M847.8 790.1c1.1-.2 2.2-.4 3.3-.5l-1.8 2.4c-.4-.7-1-1.3-1.5-1.9" class="st18"/></svg>