<?xml version="1.0" encoding="UTF-8"?>
<svg id="Ebene_1" xmlns="http://www.w3.org/2000/svg" version="1.1" viewBox="0 0 1920 1080">
  <!-- Generator: Adobe Illustrator 30.1.0, SVG Export Plug-In . SVG Version: 2.1.1 Build 136)  -->
  <defs>
    <style>
      .st0 {
        fill: #ebecea;
      }

      .st1 {
        fill: #7b8381;
      }

      .st2 {
        fill: #e4e2d3;
      }

      .st3 {
        fill: #6b7b7e;
      }

      .st4 {
        fill: #e5e7e5;
      }

      .st5 {
        fill: #e7edef;
      }

      .st6 {
        fill: #cad3ca;
      }

      .st7 {
        fill: #282728;
      }

      .st8 {
        fill: #cbcbcb;
      }

      .st9 {
        fill: #6c7c7f;
      }

      .st10 {
        fill: #b8d4dc;
      }

      .st11 {
        fill: #85877f;
      }

      .st12 {
        fill: #efede7;
      }

      .st13 {
        fill: #383131;
      }

      .st14 {
        fill: #e7e9e7;
      }

      .st15 {
        fill: #e6e8e8;
      }

      .st16 {
        fill: #232323;
      }

      .st17 {
        fill: #7c7f78;
      }

      .st18 {
        fill: #d4decd;
      }

      .st19 {
        fill: #2b2529;
      }

      .st20 {
        fill: #e8e9e8;
      }

      .st21 {
        fill: #c7cdb9;
      }

      .st22 {
        fill: #7c8077;
      }
    </style>
  </defs>
  <path class="st16" d="M0,1080V0h1920v1080H0ZM947.03,65.94c1.38-.35,4.72.51,4.78-1.35l.34-11.66,8.84,15.17c.8-12.06.75-18.36.07-30.25-2.06,4.23-2.58,8.43-3.41,14.55-1.87-6.27-3.47-11.89-10.24-15.27l-.38,26.54-7.75-25.27c-2.21-.45-6.01,2.52-6.59,4.96l-4.93,20.63c-.39,1.69,3.96,2.01,4.65.03l2.56-7.36c.58-1.67,5.01,1.33,5.4,3.12.81,3.68,3.75,6.89,6.65,6.16ZM975.02,52.53c4.15,3.35,5.46,6.46,3.94,8.92-.81,1.31-4.56,2.5-5.89,1.36-4.48-3.85-3.73-13.98-1.47-23.67-4.95,1.5-8.23,12.31-6.34,18.45,2.35,7.63,8.13,10.29,14.33,7.94,1.59-.6,4.23-3.65,4.69-5.79.37-1.71-.39-6.91-1.04-7.57l-8.21.34ZM997.7,51.39c3.46.06,3.38-.15-.26-.84-1.79-.51-6.52.3-6.51-1.72l.05-7.28,9.83-2.02-14.92-1.23v27.99s16.51-1.22,16.51-1.22l-11.64-2.28c.11-4.48-.5-9.86.94-10.15l5.99-1.24ZM1037.29,64.99l-5.24-22.16c-.48-2.01-5.13-5.97-5.91-4.28-1.74,3.74-4.38,12.11-5.8,16.63l-11.88-7.64-2.29-9.28c-1.17,1.72-3.2,7.09-2.57,9.58.53,2.14,3.84,4.88,5.43,5.79l5.32,3.04c1.11.63-.14,4.74-.82,8.7l9.63-.26,2.73-8.26c.54-1.64,5.07.59,5.49,2.33.54,2.25,1.25,7.06,2.48,6.73,1.31-.35,4.35-1.19,3.43-.93ZM1067.02,65.42v-23.48s6.86-2.82,6.86-2.82l-16.56-.32c2,2.01,4.99,4.72,4.98,6.49l-.16,20.33,4.87-.2ZM1094.67,607.69c12.97-21.17,13.87-54.94-1.03-74.39-11.34-14.81-29.89-12.34-42.13-3.63-18.16,18.93-16.67,71.98,3.58,84.24,13.15,7.96,27.28,6.31,39.58-6.22ZM1229.18,594.02c4.14-42.33-40.39-28.36-37.45-47.05,1.34-8.52,11.24-9.7,15.25-6.21,1.86,1.62,3.72,7.04,5.25,11.55l15.4-.11c-1.11-19.4-9.4-28.13-21.17-29.05-8.92-.69-18.87-.12-25.57,9.73-6.11,8.98-5.53,28.41,2.58,35.32,12.86,10.96,30.36,8.64,29.94,21.73-.12,3.64-2.69,8.88-5.49,10.7-4.05,2.63-9.6,2.43-12.64-1.22-2.23-2.68-4.47-8.8-6.75-13.17-2.41-3.38-10.43-1.32-14.71.29,1.82,9.32,4.21,20.27,9.56,25.26,11.87,11.04,42.94,11.36,45.79-17.77ZM788.1,525.22h-12.96v90.95h12.96v-90.95ZM852.99,615.99l-.02-90.74-14.46-.03-.46,53.37-23.33-52.41-15.26-1.05v91s14.39.04,14.39.04l.65-51,23.04,50.8,15.44.03ZM904.59,525.43l-14.94,61.84-15.36-61.81-16.19.11,22.67,90.52,17.14-.08,22.92-90.75-16.24.18ZM938.92,525.22h-12.96v90.95h12.96v-90.95ZM1005.87,588.37c1.81-10.84,1.49-22.31.33-32.5-1.91-16.79-10.82-30.13-23.47-30.32l-32.47-.47v91.26s32.42-.6,32.42-.6c11.31-.21,20.53-11.44,23.18-27.36ZM1029.73,525.22h-12.96v90.95h12.96v-90.95ZM1166.1,525.26h-16.24s-.44,68.35-.44,68.35c-.04,6.57-9.17,10.05-12.82,8.79-3.5-1.21-9.42-7.56-9.44-13.78l-.2-63.38-14.5.04-.12,63.8c-.02,12.7,5.1,23.49,14.36,27.17,15.52,6.16,38.82.74,38.97-23.3l.42-67.7ZM400.05,690.25c-1.07-6.6-6.05-3.61-11-9.17-.78-.87.04-5.91,1-5.55l4.31,1.6,6.41,2.49c-2.76-4.43-5.76-6.91-9.07-7.16-2.51-.19-7.3,5.49-7.4,9.6-.05,2.18,4.34,4.83,5.85,5.63l5.53,2.9c.94.5.55,7.74-.41,7.46l-10.27-2.94c1.64,2.68,5.5,5.56,8.22,5.94s7.69-5.53,6.84-10.79ZM429.81,682.11l-8.08-2.13c-.82-.22-4.04,1.11-4.29,2.27s-.53,3.19-.53,4.41l-5.77-8.05c-1.06,9.97-1.48,14.76-2.84,20.28-1.73-9.29-.43-14.49-4.75-20.8-1.57,5.56-2.27,15.07-.63,18.94,3.07,7.27,10.93,2.5,13.92-1.3,2.58,5.26,8.13,4.67,12.89,2.29,2.21,2.58,3.7,2.94,2.52-1.15l2.34-14.63,3.35,1.72c-.22,5.43-.18,12.68,1.52,16.33l4.34-3.89c3.83,4.78,8.74,5.34,12.39.03l4.56,3.87c1.18-4.05,1.44-10.6,1.41-15.92.66-1.06,3.18-2.17,3.56-.86.29.98.94,3.98,1.1,5.12l1.7,12.64c3.8-6.05,4.02-14.76.5-19.84-3.18-4.59-9.63,1.15-12.75.25-3.85-1.1-8.79-1.71-12.45.94l-9.21-2.73-3.5-7.52-1.3,9.73ZM1627.72,681.15l-6.71-8.76c-.11,4.84.2,7.2,1.15,7.43l5.56,1.33ZM1615.86,675.66c-.43-1.65-6.76,5.04-6.65,8.47s4.39,11.15,5.16,8.82c-.49-7.8-.45-11.41,1.49-17.29ZM1621.83,687.17c.21,1.62.58,4.21,1.12,3.33l1.83-2.94c.35-.56-3.05-1.06-2.96-.38ZM1603.78,727.58H368.92v2.27h1234.86v-2.27Z"/>
  <polygon class="st4" points="852.99 615.99 837.55 615.96 814.51 565.17 813.86 616.17 799.45 616.13 799.46 525.13 814.73 526.18 838.05 578.6 838.52 525.23 852.97 525.26 852.99 615.99"/>
  <path class="st20" d="M1094.67,607.69c-12.3,12.52-26.43,14.18-39.58,6.22-20.25-12.26-21.74-65.3-3.58-84.24,12.25-8.71,30.79-11.17,42.13,3.63,14.9,19.45,14,53.22,1.03,74.39ZM1078.8,599.91c12.56-11.5,12.83-31.92,7.27-49.14-3.05-9.46-10.33-12.79-17.84-11.31-5.46,1.07-11.12,7.52-13.21,17.22-2.82,13.03-1.08,36.67,8.53,43.07,4.26,2.84,11.27,3.8,15.26.15Z"/>
  <path class="st0" d="M1005.87,588.37c-2.66,15.92-11.87,27.15-23.18,27.36l-32.43.6v-91.26s32.47.47,32.47.47c12.65.19,21.56,13.53,23.47,30.32,1.16,10.2,1.48,21.67-.33,32.5ZM988.45,593.73c6.26-12.06,5.98-34.08.32-44.85s-15.92-7.4-24.01-7.37l.03,58.46c7.43-.62,18.46,3.78,23.66-6.24Z"/>
  <path class="st20" d="M1229.18,594.02c-2.85,29.13-33.93,28.81-45.79,17.77-5.35-4.98-7.74-15.93-9.56-25.26,4.28-1.6,12.3-3.67,14.71-.29,2.27,4.36,4.52,10.49,6.75,13.17,3.04,3.65,8.59,3.85,12.64,1.22,2.8-1.82,5.37-7.06,5.49-10.7.43-13.09-17.08-10.76-29.94-21.73-8.11-6.92-8.69-26.34-2.58-35.32,6.7-9.85,16.65-10.43,25.57-9.73,11.77.91,20.05,9.65,21.17,29.05l-15.4.11c-1.54-4.51-3.39-9.93-5.25-11.55-4.01-3.49-13.91-2.31-15.25,6.21-2.94,18.7,41.59,4.73,37.45,47.05Z"/>
  <path class="st15" d="M1166.1,525.26l-.42,67.7c-.15,24.03-23.45,29.46-38.97,23.3-9.27-3.68-14.39-14.47-14.36-27.17l.12-63.8,14.5-.04.2,63.38c.02,6.23,5.94,12.57,9.44,13.78,3.65,1.26,12.78-2.22,12.82-8.79l.44-68.36h16.24Z"/>
  <rect class="st8" x="368.92" y="727.58" width="1234.86" height="2.27"/>
  <polygon class="st14" points="904.59 525.43 920.82 525.25 897.9 616 880.76 616.08 858.09 525.56 874.28 525.45 889.65 587.27 904.59 525.43"/>
  <rect class="st12" x="775.14" y="525.22" width="12.96" height="90.95"/>
  <rect class="st5" x="925.96" y="525.22" width="12.96" height="90.95"/>
  <rect class="st5" x="1016.77" y="525.22" width="12.96" height="90.95"/>
  <path class="st1" d="M462.16,684.38c-1.93,3.09-1.78,11.07-1.41,15.92l-4.56-3.87c-3.66,5.31-8.57,4.75-12.39-.03l-4.34,3.89c.14-5.15-.12-12.38-1.52-16.33l-3.35-1.72v-2.35s9.22,2.73,9.22,2.73c3.66-2.65,8.61-2.04,12.45-.94,3.12.9,9.57-4.84,12.75-.25,3.53,5.09,3.3,13.8-.5,19.84l-1.7-12.64c-.15-1.14-.81-4.14-1.1-5.12-.38-1.31-2.9-.2-3.56.86ZM457.02,691.12l-9.94,1.47c1.49,3.06,2.81,5.54,3.65,4.72l6.29-6.19Z"/>
  <path class="st6" d="M1037.29,64.99c.91-.25-2.13.58-3.43.93-1.23.33-1.94-4.48-2.48-6.73-.42-1.74-4.95-3.97-5.49-2.33l-2.73,8.26-9.63.26c.69-3.96,1.93-8.07.82-8.7l-5.32-3.04c-1.59-.91-4.9-3.65-5.43-5.79-.62-2.49,1.41-7.86,2.57-9.58l2.29,9.28,11.88,7.64c1.42-4.53,4.06-12.9,5.8-16.63.78-1.68,5.44,2.27,5.91,4.28l5.24,22.16Z"/>
  <path class="st2" d="M947.03,65.94v-2.27l.38-26.54c6.77,3.38,8.37,9,10.24,15.27.83-6.12,1.35-10.32,3.41-14.55.68,11.89.74,18.19-.07,30.25l-8.84-15.17-.34,11.66c-.05,1.86-3.4,1.01-4.78,1.35Z"/>
  <path class="st6" d="M947.03,63.66v2.27c-2.91.73-5.84-2.48-6.65-6.16-.4-1.79-4.82-4.79-5.4-3.12l-2.56,7.36c-.69,1.98-5.04,1.66-4.65-.03l4.93-20.63c.58-2.44,4.38-5.42,6.59-4.96l7.75,25.27Z"/>
  <path class="st3" d="M416.91,686.66l-.07,9.07c-2.99,3.8-10.85,8.57-13.92,1.3-1.64-3.87-.95-13.38.63-18.94,4.32,6.31,3.02,11.51,4.75,20.8,1.36-5.51,1.78-10.31,2.84-20.28l5.77,8.05Z"/>
  <path class="st11" d="M400.05,690.25c.85,5.26-4.06,11.18-6.84,10.79s-6.58-3.26-8.22-5.94l10.27,2.94c.97.28,1.36-6.96.41-7.46l-5.53-2.9c-1.51-.79-5.9-3.44-5.85-5.63.1-4.11,4.89-9.79,7.4-9.6,3.32.25,6.31,2.73,9.07,7.16l-6.41-2.49-4.31-1.6c-.97-.36-1.78,4.68-1,5.55,4.96,5.55,9.93,2.57,11,9.17Z"/>
  <path class="st10" d="M997.7,51.39l-5.99,1.24c-1.43.3-.82,5.67-.94,10.15l11.64,2.28-16.5,1.22v-27.99s14.92,1.23,14.92,1.23l-9.83,2.02-.05,7.28c-.02,2.02,4.71,1.21,6.51,1.72,3.64.68,3.72.89.26.84Z"/>
  <path class="st21" d="M975.02,52.53l8.21-.34c.65.66,1.41,5.86,1.04,7.57-.46,2.14-3.1,5.18-4.69,5.79-6.2,2.35-11.98-.31-14.33-7.94-1.89-6.14,1.39-16.95,6.34-18.45-2.26,9.69-3.01,19.82,1.47,23.67,1.33,1.14,5.08-.05,5.89-1.36,1.52-2.46.22-5.58-3.94-8.92Z"/>
  <path class="st18" d="M1067.02,65.42l-4.87.2.16-20.33c.01-1.77-2.98-4.48-4.98-6.49l16.56.32-6.85,2.82v23.48Z"/>
  <path class="st22" d="M429.81,682.11c-.07.53.05,1.69.05,2.28l-8.13-2.17c-2.15,2.32-2.88,12.57-.43,14.52,1.94,1.54,5.87.04,8.5-.98l-.06,2.27c-4.77,2.37-10.31,2.97-12.89-2.29l.07-9.07c0-1.22.28-3.25.53-4.41s3.47-2.49,4.29-2.27l8.08,2.13Z"/>
  <path class="st9" d="M434.61,679.9v2.35s-2.36,14.63-2.36,14.63c1.18,4.09-.31,3.73-2.52,1.15l.06-2.27.06-11.37c0-.59-.12-1.75-.05-2.28l1.3-9.73,3.5,7.52Z"/>
  <path class="st13" d="M1615.86,675.66c-1.93,5.87-1.97,9.48-1.49,17.29-.77,2.34-5.04-5.38-5.16-8.82s6.22-10.12,6.65-8.47Z"/>
  <path class="st13" d="M1627.72,681.15l-5.56-1.33c-.95-.23-1.26-2.59-1.15-7.43l6.71,8.76Z"/>
  <path class="st9" d="M439.46,700.29c-1.7-3.65-1.73-10.9-1.52-16.33,1.39,3.95,1.66,11.19,1.52,16.33Z"/>
  <path class="st17" d="M460.75,700.3c-.37-4.86-.53-12.83,1.41-15.92.03,5.32-.23,11.87-1.41,15.92Z"/>
  <path class="st13" d="M1621.83,687.17c-.09-.68,3.31-.18,2.96.38l-1.83,2.94c-.55.88-.91-1.71-1.12-3.33Z"/>
  <path class="st7" d="M1078.8,599.91c-3.99,3.65-11,2.69-15.26-.15-9.61-6.4-11.35-30.04-8.53-43.07,2.1-9.7,7.75-16.15,13.21-17.22,7.51-1.47,14.79,1.86,17.84,11.31,5.56,17.22,5.29,37.63-7.27,49.14Z"/>
  <path class="st19" d="M988.45,593.73c-5.2,10.02-16.22,5.63-23.66,6.24l-.03-58.46c8.09-.04,18.6-2.93,24.01,7.37s5.93,32.8-.32,44.85Z"/>
  <path class="st16" d="M457.02,691.12l-6.29,6.19c-.84.83-2.16-1.66-3.65-4.72l9.94-1.47Z"/>
  <path class="st16" d="M429.86,684.38l-.06,11.37c-2.63,1.02-6.56,2.52-8.5.98-2.45-1.95-1.72-12.19.43-14.52l8.13,2.17Z"/>
</svg>