<?xml version="1.0" encoding="utf-8"?>
<!-- Generator: Adobe Illustrator 25.0.0, SVG Export Plug-In . SVG Version: 6.00 Build 0)  -->
<svg version="1.1" id="Ebene_1" xmlns="http://www.w3.org/2000/svg" xmlns:xlink="http://www.w3.org/1999/xlink" x="0px" y="0px"
	 viewBox="0 0 1920 1080" style="enable-background:new 0 0 1920 1080;" xml:space="preserve">
<style type="text/css">
	.st0{fill:#FFFFFF;}
</style>
<g>
	<path d="M613.43,781.03c1.29,3.26,1.87,5.54,3.01,7.48c8.94,15.19,17.27,30.81,27.25,45.3c7.49,10.88,17.15,20.27,25.85,30.31
		c1.74,2.01,3.87,3.79,5.2,6.05c2.95,5,7.46,6.14,12.74,6.12c28.64-0.14,57.29-0.31,85.93-0.33c59.3-0.05,118.6-0.02,177.9-0.02
		c2.13,0,4.26,0,6.73,0c0,6.71,0,12.93,0,19.31c-303.88,0-607.49,0-911.41,0c0-6.41,0-12.66,0-19.64c1.75,0,3.52,0,5.28,0
		c32.98,0,65.96-0.04,98.94,0.01c52.46,0.08,104.93,0.2,157.39,0.33c6.99,0.02,13.98,0.32,20.97,0.29c5.1-0.03,9.83-1.15,13.65-5.03
		c18.36-18.64,36.27-37.69,50.12-60.06c5.85-9.45,11.12-19.27,16.9-29.34c-1.29-0.16-2.48-0.36-3.68-0.43
		c-1.33-0.07-2.66-0.02-4-0.02c-102.44-0.11-204.87-0.21-307.31-0.34c-14.15-0.02-28.31-0.33-42.46-0.26c-4.42,0.02-6.21-1.3-6.2-6
		c0.01-24.8-0.35-49.61-0.4-74.41c-0.16-71.93-0.33-143.86-0.32-215.79c0.01-85.42,0.19-170.84,0.3-256.25c0-1.65,0-3.3,0-5.4
		c304.17,0,608.03,0,912.24,0c0.11,1.49,0.23,2.93,0.33,4.38c0.02,0.33,0,0.67,0,1c0.16,135.7,0.36,271.41,0.48,407.11
		c0.04,45.46-0.09,90.91-0.15,136.37c-0.01,7.9-1,8.88-8.89,8.93c-1.33,0.01-2.67,0-4,0c-87.11,0.11-174.22,0.23-261.33,0.33
		C661.2,781.05,637.9,781.03,613.43,781.03z M581.93,330.9c1.67,0,2.74-0.26,3.63,0.04c11,3.76,22.09,7.32,32.91,11.56
		c3.89,1.53,8.1,4.02,10.5,7.29c8.29,11.31,19.81,18.14,31.8,24.33c14.63,7.55,29.71,14.23,44.18,22.06
		c13.14,7.11,26.24,14.53,38.39,23.18c10.43,7.42,19.86,16.38,29.05,25.36c11.65,11.38,22.63,23.45,33.86,35.26
		c1.18,1.24,2.09,2.74,3.12,4.12c-0.23,0.34-0.46,0.68-0.69,1.01c-12.27-3.21-24.53-6.41-36.8-9.62
		c20.03,7.29,36.41,20.48,53.71,32.11c21.22,14.28,44.4,34.29,47.4,41.05c-18.05-3.21-36.01-6.41-53.97-9.61
		c-0.18,0.5-0.37,1-0.55,1.49c15.86,12.89,31.53,26.02,47.63,38.59c16.08,12.55,30.47,26.76,44.52,41.36
		c-0.33,0.61-0.66,1.23-0.98,1.84c-15.09-4.34-30.18-8.67-45.26-13.01c-0.29,0.4-0.58,0.8-0.86,1.2
		c23.29,23.05,42.85,48.97,59.49,77.14c0.64-0.94,0.73-1.43,0.73-1.93c0.06-144.2,0.12-288.41,0.17-432.61
		c0-6.13-1.11-7.15-7.36-7.18c-46.63-0.17-93.26-0.46-139.89-0.47c-230.37-0.05-460.74-0.02-691.1,0c-2.08,0-4.16,0.34-6.04,0.51
		c0,150.42,0,300.21,0,450.44c2.15,0,3.95,0,5.75,0c106.27,0.06,212.54,0.1,318.81,0.17c53.47,0.03,106.94,0.01,160.4,0.32
		c5.32,0.03,10.75,1.82,15.9,3.49c4.84,1.57,9.39,4.02,14.03,6.15c2.56,1.18,5.15,2.33,7.55,3.79
		c27.24,16.68,54.45,33.42,81.67,50.13c1.78,1.09,3.65,2.02,5.48,3.02c0.12-1.06-0.17-1.57-0.55-1.99
		c-16.55-18.54-34.49-35.71-53.95-51.09c-33.27-26.3-69.54-47.86-107.94-65.84c-10.23-4.79-20.63-9.23-30.82-14.11
		c-9.24-4.43-18.31-9.23-27.47-13.88c0.96,20.45,18.38,23.86,31.58,31.64c-27.25-7.66-49.38-23.82-70.09-40.55
		c8.05-3.53,15.75-7.09,23.62-10.21c1.91-0.76,4.53-0.54,6.59,0.05c6.55,1.86,12.91,4.39,19.48,6.14c8.71,2.32,17.39,4.49,24.16,11
		c0.18,0.17,0.66,0.02,0.99,0.02c-0.31-1.56-1.29-2.2-2.25-2.87c-3.84-2.67-5.06-9.53-11.97-7.46c-0.4,0.12-1.29-1.38-2.18-2.38
		c10.94-1.99,21.35-3.74,28.94-13.45c-2.72-1.97-5.28-3.98-7.99-5.74c-3.27-2.11-5.02-4.68-3.62-8.64c2.1,0.26,4.02,0.5,7.02,0.88
		c-2.01-4.29-3.39-7.97-5.35-11.3c-3.46-5.88-2.22-9.29,4.5-10.87c3.33-0.78,6.73-1.27,9.9-1.86c-0.44-6.41-3.98-9.46-9.47-10.31
		c-7.04-1.09-14.13-2.7-21.2-2.66c-33.31,0.17-66.05-2.4-97.74-14.1c-18.85-6.96-38.7-7.92-58.64-5.18
		c-1.67,0.23-3.31,0.67-6.52,1.34c5.1,4.65,9.12,8.32,13.76,12.55c-2.39,0.49-3.95,0.88-5.53,1.12c-7.57,1.15-15.22,1.86-22.69,3.45
		c-29.93,6.35-59.82,12.89-89.68,19.57c-4.01,0.9-7.75,3.03-11.62,4.59c0.14,0.44,0.27,0.87,0.41,1.31c1.73,0,3.47,0.07,5.2-0.01
		c15.44-0.69,24.14,10.6,19.25,25.35c-0.58,1.75-2.66,3.93-4.34,4.22c-13.91,2.41-27.66,2.59-39.65-6.46
		c-10.4-7.85-9.46-21.56,1.75-28.07c6.04-3.51,12.31-6.61,18.29-10.21c11.12-6.69,21.74-14.28,33.21-20.26
		c17.63-9.19,34.31-20.42,53.64-26.19c3.86-1.15,4.96-4.27,4.8-8.28c-0.4-9.92-1.15-19.91-0.45-29.78c0.66-9.3,0.59-19,6.9-27.11
		c18.49-23.77,42.36-40.64,68.96-53.99c3.81-1.91,8.17-2.76,12.31-3.98c1.82-0.54,3.73-0.79,5.07-1.06
		c-2.8-13.13-5.56-25.61-8.08-38.14c-1.18-5.86-2.13-11.79-2.77-17.74c-1-9.37,1.86-11.81,11.22-10c1.95,0.38,3.99,0.73,5.76,1.57
		c14.23,6.79,28.42,13.65,42.57,20.61c3.51,1.72,6.81,3.87,11.02,6.3c0-5.73-0.13-10.51,0.03-15.28
		c0.38-11.61-0.16-23.37,1.62-34.77c2-12.8,5.24-13.73,16.98-8.01c27.99,13.63,55.36,28.4,81.29,45.66
		c7.87,5.24,16.12,7.6,25.35,7.4c0.24-0.01,0.47-0.28,0.73-0.45C582.99,333.1,582.58,332.25,581.93,330.9z M629.84,553.2
		c-0.17,0.44-0.33,0.88-0.5,1.32c23.46,18.54,45.53,38.52,64.77,61.42c-0.22,0.47-0.43,0.93-0.65,1.4
		c-24.85-6.25-49.71-12.51-74.16-18.66c8.6,6.12,17.8,12.39,26.65,19.12c3.14,2.38,5.43,5.88,8.1,8.87
		c-0.27,0.43-0.54,0.86-0.81,1.29c-13.31,0-26.62,0-39.93,0c32.68,22.81,68.29,39.58,103.57,57.17c-4.09-8.79-8.66-17.08-12.95-25.5
		c-4.31-8.48-8.41-17.08-10.26-27.26c20.85,4.86,40.87,9.53,62.31,14.53c-34.9-35.72-68.82-70.44-103.31-105.74
		c38.02,4.96,75.41,9.85,112.81,14.73c0.12-0.37,0.23-0.74,0.35-1.11c-35.75-24.71-71.51-49.42-108.29-74.84
		c18.09-2.17,34.88-4.19,51.68-6.21c0.03-0.52,0.06-1.05,0.08-1.57c-30.14-12.22-61.94-16.15-94.19-18.31
		c12.94,19.58,31,33.86,47.9,50.65c-19.28-1.45-37.38-2.81-55.48-4.17c-0.38,0.55-0.76,1.1-1.13,1.65
		c15.48,17.55,30.96,35.09,46.93,53.19C644.97,554.45,637.4,553.83,629.84,553.2z M470.48,294.57c0.9,7.74,2.07,14.46,2.41,21.22
		c0.96,19.08,1.56,38.18,2.36,57.27c0.19,4.65,0.36,9.33,1.1,13.9c0.24,1.51,2.25,2.74,3.45,4.09c1.1-1.16,2.95-2.21,3.15-3.5
		c0.72-4.73,3.43-3.55,6.15-2.46c19.54,7.87,39.07,15.79,59.55,24.07c-1.99,1.29-2.77,1.8-4.02,2.61c2.78,0.9,4.9,1.58,7.28,2.35
		c0-15.85,0.05-30.97-0.07-46.1c-0.01-1.74-0.54-3.8-1.56-5.15c-6.38-8.47-12.05-17.75-19.7-24.9
		c-10.88-10.18-23.01-19.09-35.07-27.9C487.77,304.41,479.19,299.9,470.48,294.57z M414,454.92c0.02-0.43,0.03-0.86,0.05-1.29
		c-1.33-0.45-2.63-1.18-3.98-1.31c-13.2-1.23-26.4-2.7-39.63-3.43c-16.46-0.91-28.05,9.94-40.42,18.32
		c-1.83,1.24-1.57,6.31-1.27,9.51c0.1,1.08,3.72,3.02,5.08,2.58c5.93-1.94,11.64-4.59,17.4-7.03c2.06-0.87,4-2.43,6.13-2.72
		c13.26-1.82,26.56-3.37,40.91-5.14c-3.94-1.83-7.04-3.26-10.14-4.7c0.09-0.42,0.18-0.84,0.27-1.27
		C396.93,457.27,405.47,456.1,414,454.92z M379.29,488.75c-1.19,2.58-2.77,4.4-2.4,5.64c0.41,1.39,2.46,2.91,4.03,3.22
		c8.9,1.72,17.27,0.09,24.65-5.29c6.51-4.75,9.88-11.06,8.83-19.38c-0.43-3.43-2.23-4.48-5.48-4.04c-4.11,0.56-8.25,0.99-12.38,1.34
		c-4.64,0.39-9.32,0.4-13.94,0.97c-6.77,0.84-7.7,2.39-5.9,8.82C377.58,483.22,378.58,486.39,379.29,488.75z M443.03,365.8
		c-7.69-14.63-20.73-22.47-33.1-31.46c1.77,9.6,4,19,6.82,28.22c0.46,1.49,3.51,2.98,5.44,3.09
		C428.79,366.03,435.43,365.8,443.03,365.8z M309.67,454.39c-2.18,7.11-0.88,12.57,2.83,14.23c3.88,1.74,9.52-0.28,12.3-4.56
		C318.22,463.74,312.94,461.24,309.67,454.39z"/>
	<path d="M1149.21,798.58c2.14-5.24,3.97-9.15,5.36-13.22c5.1-14.94,9.61-30.1,15.18-44.86c8.4-22.26,5.75-45.32,5.91-68.17
		c0.11-15.31-0.31-30.62-0.78-45.92c-0.15-4.8,1.81-6.74,6.3-6.74c19.96,0.01,39.92,0.03,59.88,0.06c0.83,0,1.66,0.16,2.48,0.31
		c8.37,1.48,8.56,1.86,8.37,10.21c-0.59,25.62-1.42,51.24-1.45,76.86c-0.01,8.17,1.12,16.7,3.61,24.46
		c6.33,19.77,13.7,39.21,20.72,58.76c0.77,2.15,1.96,4.15,3.39,7.12c1.85-2.85,3.57-4.85,4.58-7.16
		c9.36-21.29,18.77-42.57,27.8-64.01c4.57-10.85,2.01-22.4,1.77-33.61c-0.48-22.28-1.51-44.56-2.47-66.83
		c-0.2-4.69,1.29-6.39,6.23-6.48c21.46-0.4,42.92-1.27,64.38-1.86c6.24-0.17,7.09,0.83,7.24,7.19c0.72,29.28,1.51,58.56,2.06,87.84
		c0.06,3.18-0.68,6.66-2.02,9.55c-24.8,53.55-49.88,106.97-74.51,160.59c-3.21,7-7.61,9.78-14.87,9.66
		c-14.64-0.25-29.29-0.26-43.93-0.46c-5.86-0.08-9.25-3.21-11.36-8.68c-9.27-24.04-18.79-47.98-28.23-71.96
		c-0.72-1.84-1.51-3.65-2.59-6.24c-5.53,13.97-10.75,27.23-16.02,40.47c-5.04,12.67-10.23,25.27-15.11,37.99
		c-2,5.2-4.95,8.35-10.9,8.34c-15.8-0.02-31.6,0.23-47.41,0.26c-4.29,0.01-7.49-1.74-9.46-5.97
		c-23.59-50.62-47.03-101.31-71.09-151.71c-6.63-13.9-5.4-28.17-5.16-42.54c0.37-21.96,1.2-43.91,1.73-65.86
		c0.19-7.99,0.57-8.67,8.47-8.46c21.13,0.57,42.25,1.36,63.38,1.92c4.17,0.11,4.42,2.53,4.32,5.64c-0.71,20.95-1.4,41.91-2.09,62.86
		c-0.2,6.15-0.15,12.32-0.63,18.45c-0.77,9.9,1.25,19.16,5.45,28.06c9,19.09,17.93,38.2,26.98,57.27
		C1145.67,793.75,1147.18,795.53,1149.21,798.58z"/>
	<path d="M1211.68,309.15c-18.36,1.16-36.12,2.23-53.88,3.42c-12.03,0.8-11.85,0.83-9.95-10.79c2.5-15.22,4.56-30.52,6.82-45.78
		c0.24-1.64,0.67-3.26,0.87-4.9c0.54-4.41,2.92-5.64,7.25-5.15c33.96,3.85,68.08,4.75,102.18,3.66c26.09-0.83,52.13-3.24,78.19-4.91
		c2.28-0.15,4.58-0.02,7.52-0.02c0,6.52-0.18,12.6,0.04,18.68c0.42,11.94,0.74,23.89,1.71,35.79c0.92,11.25,0.71,11.83-10.33,11.27
		c-17.25-0.87-34.5-1.75-53.22-2.7c0,11.62-0.18,22.88,0.03,34.13c0.84,45.56,1.81,91.12,2.71,136.68
		c0.23,11.81,0.29,23.63,0.65,35.43c0.14,4.43-1.68,6.29-5.98,6.69c-23.09,2.16-46.18,2.32-69.28,0.23
		c-6.07-0.55-7.57-2.18-7.39-8.26c0.95-31.42,2.52-62.83,2.92-94.25c0.44-35.08-0.15-70.18-0.33-105.26
		C1212.23,311.79,1211.88,310.51,1211.68,309.15z"/>
	<path d="M1407.59,793.93c1.2-26.25,8.37-50.08,26.75-69.73c15.26-16.3,34.31-24.79,56.15-27.47c18.41-2.26,36.72-1.39,54.11,5.38
		c35.77,13.92,55.29,40.8,59.85,78.5c2.94,24.32,0.01,47.93-12.84,69.35c-15.87,26.46-39.6,41.01-70.16,44.53
		c-24.46,2.82-47.97-0.1-69.17-13.4c-26.21-16.44-40.71-40.43-43.7-71.25C1408.08,804.56,1407.92,799.24,1407.59,793.93z
		 M1472.15,797.59c0.34,2.05,0.52,6.29,1.76,10.2c4.05,12.75,11.61,22.46,25.28,25.71c12.57,2.99,23.41-0.55,31.93-10.26
		c13.87-15.82,13.22-41.66-1.24-57.04c-11.69-12.43-31.28-13.47-44.11-2.14C1476.36,772.37,1472.19,783.08,1472.15,797.59z"/>
	<path d="M1818.81,770.36c0,14.29-0.33,28.9,0.08,43.49c0.66,23.44,1.87,46.86,2.72,70.3c0.23,6.36-0.65,7.75-6.76,7.83
		c-19.13,0.24-38.28,0.3-57.4-0.21c-8.33-0.22-9.92-2.72-9.93-11.06c-0.02-33.8-0.01-67.6-0.01-101.39c0-7.91-1.26-9.11-9.39-8.95
		c-13.62,0.27-12.65,2.02-13.51-12.68c-0.72-12.45-0.85-24.94-1.06-37.41c-0.14-8.25,2.61-11.02,10.88-11.6
		c3.13-0.22,6.25-0.45,9.84-0.71c-0.25-4.86-0.75-9.3-0.64-13.72c0.26-10.47,0.15-21,1.38-31.37c2.85-23.96,18-38.57,38.91-47.99
		c18.09-8.15,37.4-10.3,57.04-10.24c3.06,0.01,4.45,1.49,4.99,4.39c2.66,14.22,5.39,28.42,8.16,42.61c0.85,4.36-0.57,7.22-5.07,8.06
		c-5.55,1.04-11.14,1.85-16.69,2.85c-10.81,1.96-14.81,5.17-16.4,15.77c-1.36,9.1-1.23,18.42-1.75,27.6c8.98,0,16.59,0.13,24.2-0.03
		c20.53-0.43,16.73-1.55,17.18,15.62c0.36,13.64,0.31,27.29,0.37,40.94c0.03,6.91-1.21,7.96-8.24,7.91
		C1837.94,770.3,1828.15,770.36,1818.81,770.36z"/>
	<path d="M1122.58,377.41c0.88,48.37,1.67,90.46,2.38,132.56c0.17,9.96,0.05,10.58-9.86,10.8c-21.27,0.49-42.56,0.62-63.83,0.19
		c-8.49-0.17-9.34-2.24-8.97-10.69c1.4-31.57,3.57-63.14,3.83-94.72c0.37-44.23-0.72-88.48-1.18-132.71
		c-0.1-9.65-0.21-19.31-0.26-28.96c-0.03-6.78,0.45-7.23,7.5-7.08c14.14,0.31,28.28,0.84,42.42,0.92
		c8.48,0.05,16.96-0.71,25.44-0.89c6.3-0.14,7.46,0.98,7.22,7.19c-0.94,24.77-2.06,49.53-3.01,74.29
		C1123.56,346.75,1122.99,365.21,1122.58,377.41z"/>
	<path d="M1630.41,769.7c0-31.78,0.48-63.57-0.19-95.34c-0.36-16.91-2.66-33.79-4.21-50.68c-0.46-5.03,0.76-6.83,5.85-6.84
		c22.65-0.06,45.29,0.02,67.94-0.06c4.41-0.02,5.75,1.98,5.58,6.17c-1.73,43.2-4.13,86.4-4.79,129.62
		c-0.65,42.24,0.42,84.51,0.91,126.76c0.13,11.47-0.06,12.5-11.46,12.82c-16.29,0.46-32.6,0.43-48.9,0.05
		c-9.93-0.23-11.08-1.92-11.08-11.67c0-36.95,0-73.89,0-110.84C1630.18,769.7,1630.3,769.7,1630.41,769.7z"/>
	<path class="st0" d="M419.87,604.81c0.21-0.44,0.43-0.88,0.64-1.31c-8.92-6.33-17.62-12.98-26.81-18.87
		c-7.17-4.6-15.66-6.85-23.92-4.91c-12.71,2.99-25.08,7.42-37.62,11.17c-19.09,5.71-38.07,11.85-57.35,16.85
		c-9.85,2.55-20.25,3-30.98,4.48c0.93,1.04,1.46,1.83,2.16,2.4c8.69,6.94,17.31,13.96,26.18,20.67c1.78,1.35,4.54,2.13,6.79,2.01
		c14.72-0.79,28.81-4.43,42.79-9.08c18.42-6.12,36.92-12.21,55.75-16.85C391.33,607.95,405.73,606.91,419.87,604.81z"/>
	<path d="M419.87,604.81c-14.14,2.1-28.54,3.14-42.36,6.54c-18.83,4.64-37.33,10.72-55.75,16.85c-13.98,4.65-28.08,8.29-42.79,9.08
		c-2.25,0.12-5.01-0.66-6.79-2.01c-8.87-6.7-17.49-13.73-26.18-20.67c-0.71-0.57-1.24-1.36-2.16-2.4
		c10.72-1.48,21.12-1.93,30.98-4.48c19.28-4.99,38.26-11.13,57.35-16.85c12.54-3.75,24.91-8.18,37.62-11.17
		c8.27-1.94,16.75,0.31,23.92,4.91c9.19,5.89,17.9,12.55,26.81,18.87C420.3,603.93,420.09,604.37,419.87,604.81z"/>
	<path d="M405.79,472.66c-0.37,3.22-0.62,5.44-0.86,7.56c-1.74-1.22-3.25-2.28-4.75-3.34c-0.5,1.71-1,3.43-1.65,5.68
		c-1.03-0.76-3.39-1.63-3.49-2.72c-0.56-6.17-4.94-6.23-9.36-7.19C392.13,472.66,398.57,472.66,405.79,472.66z"/>
</g>
</svg>
