<?xml version="1.0" encoding="utf-8"?>
<!-- Generator: Adobe Illustrator 25.0.0, SVG Export Plug-In . SVG Version: 6.00 Build 0)  -->
<svg version="1.1" id="Ebene_1" xmlns="http://www.w3.org/2000/svg" xmlns:xlink="http://www.w3.org/1999/xlink" x="0px" y="0px"
	 viewBox="0 0 1920 1080" style="enable-background:new 0 0 1920 1080;" xml:space="preserve">
<style type="text/css">
	.st0{fill:#80D2F8;}
	.st1{fill:#2C47CC;}
	.st2{fill:#121212;}
	.st3{fill:#141414;}
	.st4{fill:#101010;}
	.st5{fill:#0A0A0A;}
	.st6{fill:#2B2B2B;}
</style>
<g>
	<rect x="-57.3" y="-15.7" class="st0" width="2034.7" height="1111.3"/>
	<path class="st1" d="M556.8,501.5c22.7,4,43.1,7.6,66.3,11.8c-6,32.9-12.1,64.6-17.7,96.3c-2.1,11.8-4.5,23.9-4.5,35.8
		c0,8.3,2.5,19.2,6.6,24.1c15.1,18.5,18.6,40.4,6.6,60.7c-5.2,8.8-12.7,14.6-19.2,21.7c10.7,45.2,20.9,88.9,32,135.9
		c-10,2.6-18.9,6.8-27.8,6.8c-98.2,0.4-196.4,0.3-294.6,0.3c-2.5,0-5.1,0-8.3,0c0-37.6,0-74,0-112.4c76.8,0,153.5,0,230.7,0
		c0-11.7,0-21.3,0-28.7c-31.5-19.3-63.7-15.8-95.8-16c-36.5-0.2-73-1.3-109.3-4.3c-6.7-0.5-13.8-10.7-19.2-18.6
		c-10.7-15.9-18.4-33.5-3.7-55.5c74.7,0,150.7,0,227.6,0c0-9.5,0-17.9,0-28.3c-75.5,0-151.4,0-228.8,0c0-38.4-0.2-74.9,0.3-111.3
		c0.1-3.2,4.6-8.4,7.4-9c17-3.8,34-6.7,52.6-10c0-21.4-1.7-43.9,0.4-65.7c3.5-38.1,6.5-77.3,15.1-113.4
		c4.9-20.7,19.3-38.1,31.6-53.1c7.5-9.2,21.7-7.6,28.8-17.1c9-12.1,18.1-9,27.7-9.9c26.5-2.8,64.3,42.9,68.9,77.1
		c2.2,16.4,9.4,31.4,12.1,47.8c3.2,19.6,3.8,40,5.9,60C551.1,451.4,554,476.2,556.8,501.5z M535.4,502.2
		c-10-51.5-17.9-103.1-30.5-152.2c-5.8-22.6-14.9-50.3-39.3-46.1c-8.1,1.4-16.4,0.8-24.5,1.2c-18.3,0.9-43.1,30.3-49.5,54.3
		c-12.5,47.1-11.9,94.2-3.3,142.8C436.8,502.2,485.7,502.2,535.4,502.2z"/>
	<path class="st2" d="M1508,524.9c-19,0-36.2,0-54.5,0c-1-26.9-2.1-53.3-2.7-79.8c-0.4-17-2.9-28.4-17.8-29.3
		c-15.5-1-30.9-7-47.7-11.2c0,41.2,0,80,0,119.9c-20.1,0-39,0-59.7,0c0-6,0-12.6,0-19.2c0-87.7,1-175.5-0.6-263.1
		c-0.4-25.5,11.1-36.7,17.6-51.5c16.9,17.6,33.4,33.5,48.9,51.4c9.1,10.5,16.5,24,24.7,36c4.8,7.1,8.1,8.4,11.6-2.8
		c5.6-17.9,12.2-35.3,19-52.4c8.5-21.5,47.9-26.2,59.3-7.5c1.4,2.3,2,6.5,2,9.8C1508,324.7,1508,424.1,1508,524.9z"/>
	<path class="st3" d="M1189.7,524.9c-18.6,0-35.8,0-53.8,0c0-106.4,0-212.4,0-322.5c34.1,2,68.9,0.1,102.8,7.1
		c22.6,4.7,35.9,33.1,39.6,65.3c5.6,50.2,8.8,101.1,13.6,151.5c2,21.3,5.1,42.3,7.6,63.4c1.3,10.9,2.4,21.9,3.8,35.5
		c-18,0-34.8,1.3-51.5-1c-4.1-0.5-8.4-12.2-10.9-19.9c-8.1-24.7-15.3-49.9-23-74.8c-3.3-10.8-8.2-14.1-13.9-3.1
		c-3.2,6.1-7.4,12.7-8.1,19.6C1193,471.9,1191.6,497.7,1189.7,524.9z"/>
	<path class="st4" d="M1713.4,525.4c-20,0-39.8,0.4-59.7-0.4c-2.5-0.1-6-6.1-6.9-10.3c-2.2-10.6-4-21.6-4.3-32.6
		c-0.4-16-9.2-20.8-16.5-27.1c-1.7-1.4-6.9,2-8.7,5.1c-10.2,18.9-19.8,38.5-29.9,57.5c-1.9,3.5-5.4,7.4-8.2,7.5
		c-13.8,0.8-27.7,0.4-43.7,0.4c2.7-26.1,5.2-50.7,7.8-75.3c3-27.8,5.7-55.6,9.1-83.3c5.1-41.5,8.7-83.8,16.9-123.9
		c3.9-19.2,16.5-37.2,33.3-38c15.8-0.7,31.9-0.2,47.5,3.6c13.5,3.3,22.5,17.1,27.4,36.5c9.8,38.6,14.4,77.8,16.4,119
		c2.2,43.2,10.6,85.7,16.2,128.6C1711.5,502.9,1712.2,513.2,1713.4,525.4z"/>
	<path class="st5" d="M967,208.4c49.1,0,93.8,0,137.7,0c-6.4,24-10.3,50.1-19.8,71.4c-15.8,35.7-17.6,74.4-13.7,112.4
		c1.6,15.5,1,36.6,13.2,51.4c6.7,8.2,6,28.8,8.9,43.7c2.5,12.2,5.6,24,8.6,36.8c-42.7,0-86.3,0-131.9,0c1.3-9.2,1.8-18.7,4-27.4
		c7.3-29.3,13.6-59.4,23.3-86.9c8.7-24.8,5.3-49.7,3.8-73.5c-1.5-23.1-10.2-45.3-16.4-67.7C979.5,249.1,973.5,230,967,208.4z"/>
	<path class="st4" d="M874.7,427.7c0,32.6,0,64.1,0,96.6c-18.5,0-36,0-54.3,0c0-102.1,0-204.4,0-310.6c18.7-3.1,38.8-2.8,57.1-10.7
		c14.6-6.5,27-0.5,40.4,1.2c14.5,2,21.8,16.9,25.6,34c3.6,15.8,4.2,33,6,49.5c-22.2,4.6-43.8,10.3-65.5,13.2
		c-13.1,1.8-9.4,15.3-11.8,24.6c16.6,5.9,32.7,11.1,48.6,17.5c1.8,0.7,2.5,7.6,3.7,11.7c9.5,30.3,6.2,53.2-8.8,68.6
		c-6.3,6.5-16.4,5.9-24.9,7.1C886,431.1,880.8,428.9,874.7,427.7z"/>
	<path class="st6" d="M705.3,930c0-245,0-490,0-735c0.9-0.3,1.7-0.6,2.5-0.9c4.3,27.5,11,54.7,12.3,82.5
		c4.6,96.5,9.3,193.2,9.9,289.9c0.5,86.1-3.4,172.5-7.3,258.6c-1.6,35.5-8.1,70.4-12.5,105.7C708.5,930.7,706.9,930.4,705.3,930z"/>
</g>
</svg>
