<?xml version="1.0" encoding="utf-8"?>
<!-- Generator: Adobe Illustrator 25.0.0, SVG Export Plug-In . SVG Version: 6.00 Build 0)  -->
<svg version="1.1" id="Ebene_1" xmlns="http://www.w3.org/2000/svg" xmlns:xlink="http://www.w3.org/1999/xlink" x="0px" y="0px"
	 viewBox="0 0 1920 1080" style="enable-background:new 0 0 1920 1080;" xml:space="preserve">
<style type="text/css">
	.st0{fill:#FBFCFC;}
	.st1{fill:#9B0A25;}
	.st2{fill:#9C0B24;}
	.st3{fill:#F7F9FA;}
	.st4{fill:#A65B12;}
	.st5{fill:#AB600F;}
	.st6{fill:#F0F6F8;}
	.st7{fill:#B75B1F;}
	.st8{fill:#9E0B26;}
	.st9{fill:#A20E28;}
	.st10{fill:#BC334A;}
	.st11{fill:#B0494D;}
	.st12{fill:#C94350;}
	.st13{fill:#BC5F25;}
	.st14{fill:#F4D74C;}
	.st15{fill:#AA1F35;}
	.st16{fill:#ECECEE;}
	.st17{fill:#B66847;}
	.st18{fill:#CA7550;}
	.st19{fill:#F3D54A;}
	.st20{fill:#E1A71C;}
	.st21{fill:#A6621B;}
	.st22{fill:#EEBB1C;}
	.st23{fill:#C73951;}
	.st24{fill:#BB671D;}
	.st25{fill:#E7AF1A;}
	.st26{fill:#F6D750;}
	.st27{fill:#F5D64E;}
	.st28{fill:#C92855;}
	.st29{fill:#EED343;}
</style>
<g>
	<g>
		<path class="st0" d="M0,1080C0,720.1,0,360.1,0,0c639.8,0,1279.7,0,1920,0c0,359.9,0,719.9,0,1080C1280.1,1080,640.1,1080,0,1080z
			 M1182.2,181.4c1.6-1.5,3.3-3,4.9-4.5c-4.3-9.7-14.7-7.8-21.5-8.7c-51-6.8-102.1-12.8-153.4-17.6c-77.5-7.3-154.7-1-231.7,7.4
			c-14.2,1.6-28.4,3.9-44.2,6.1c7.8,12.7,14.4,23.4,20.9,34c7.6,12,15.1,24,22.7,35.9c13.2,20.5,26.5,40.9,39.7,61.5
			c10.2,16,20.1,32.1,30.2,48.1c9.6,15.2,21.5,29.4,28.3,45.8c5.3,12.7,13.5,21.6,22.3,30.8c-2.1,9.8-10,2.8-14.7,5.1
			c-6.9-2-15.1-2.4-20.4-6.5c-7-5.3-11.6-13.7-17.3-20.6c-11.5-13.9-23-27.7-34.5-41.6c-8.4-10.2-17.2-20-24.9-30.8
			c-11.3-15.9-21.7-32.4-32.5-48.7c-6.9-11.9-13.8-23.9-20.7-35.8c-6.6-12.1-12.7-24.5-20.3-36c-2.1-3.1-8.6-3.3-13.1-4.8
			c-31,8.6-62.3,16.1-92.9,26c-22.1,7.1-43.6,16.3-64.7,26.3c-22.6,10.7-44.9,22.3-66.3,35.2c-17.7,10.7-35,22.5-50.3,36.2
			c-19.5,17.4-36.8,37.2-55.1,55.9c-7.8,8-7.2,14,3.7,17.6c16,5.2,32.5,8.7,48.8,13l0.4,0.2c2.2,0.6,4.3,1.2,6.5,1.8
			c36,6.5,72,12.9,108,19.4c-105.8,0-211.7,0-317.6,0c0,9.3,0,16.8,0,24.3c0,58.9,0,117.8,0.1,176.7c-0.1,0.9-0.1,1.7-0.2,2.6
			c-3.1,9.8,4.6,7,8.8,7c122.8,0.1,245.6,0,368.4,0c-0.1,1.6,0.1,4.4-0.3,4.5c-21,3.4-42,6.4-62.9,10c-22,3.7-43.9,7.9-65.9,11.9
			c-2.4,0.2-4.8,0.4-7.2,0.6c-20.3,3.1-40.6,6.2-63.7,9.7c6.5,10.4,11.1,19.3,17.1,27c7.9,10,16.1,20.1,25.6,28.5
			c19.7,17.4,39.6,34.7,60.8,50.3c15.1,11.1,31.9,20.2,48.7,28.5c17.4,8.6,35.7,15.6,53.8,22.7c14.9,5.8,30,11.1,45.3,15.7
			c21.8,6.6,43.8,12.3,65.7,18.4c0.8,0.6,1.6,1.2,2.4,1.7l0,0c4.7,2.4,9.3,5.5,14.3,7.1c7,2.2,14.3,3.4,21.5,4.9
			c-0.6,3.5-1.2,7-2.1,12.3c152.3,24,303.7,24.4,455.3-6.2c-2.2-3.8-3.3-5.7-4.4-7.6c1.2-9.1-0.5-16.3-11.3-17.6
			c-0.5-0.4-0.7-0.9-0.6-1.5c1.2-8.8-4.6-10-11.2-10.4c-3.4-5.5-6.7-11.1-10.1-16.6c-3.1-3.2-6.3-6.4-9.4-9.6l-0.1-0.2
			c-1.4-1.5-2.9-3.1-4.3-4.6c-0.1-0.8-0.3-1.6-0.4-2.4c-1.5-1.6-2.9-3.2-4.4-4.8c-1.1-2.8-2.2-5.6-3.3-8.5c1.3-8,2.6-16.1,14.3-17.5
			c-1.4,4.5-2.4,7.8-3.9,12.4c6.8,1,12.7,1,18,2.8c5.4,1.8,10.1,5.5,15.2,8.3c4,4.7,7.9,9.4,11.9,14c1.5,1.7,3,3.4,4.5,5.1
			c2.5,3.1,5,6.2,7.5,9.3c1.5,1.7,3.1,3.4,4.6,5.1c1.6,0.7,3.2,1.5,4.9,2.2c7.7,16.8,15.5,21.2,29.9,16.7
			c15.3-4.8,30.7-9.6,45.9-14.8c42.2-14.3,84.4-28.9,121.9-54c22.5-15.1,46.2-28.9,66.7-46.3c20.4-17.2,37.8-38,55.8-57.9
			c9-9.9,6.8-14.4-7.3-17.7c-11.2-1.7-22.3-3.4-33.5-5.1c-14.3-2.4-28.7-4.7-43-7.1c-11.9-1.6-23.8-3.2-35.8-4.8
			c-6.8-1.6-13.6-3.5-20.5-4.8c-14-2.6-28-4.9-42-7.4c4.4-0.8,8.9-2.2,13.3-2.2c126.2-0.2,252.3-0.2,378.5-0.2
			c8.1,1.3,10.1-2.6,10-10.1c-0.3-28.1,0.6-56.3-0.6-84.4c-0.4-9.2-5.7-18.2-8.7-27.3c0-29.3,0-58.5,0-88.4c-16.9,0-31.9,0-47,0
			c-101.8-0.1-203.6-0.1-305.3-0.2c-8.9-0.5-17.8-0.9-26.7-1.4c6-3.7,12.1-4.5,18.2-5.6c26.1-4.8,52.2-9.6,78.3-14.5
			c20-6.1,43.2-2.7,59.9-20c-16.2-25.6-37.3-45.4-60.2-63.4c-12.8-10-26-19.6-39.6-28.6c-13.7-9.2-27.4-18.9-42.3-25.7
			c-31.8-14.5-64-28.1-96.8-40.2c-26-9.7-53-16.8-79.6-24.8c-1.9-0.6-4.4,0.8-6.7,1.3c-7.8,5.8-17.3,10.2-16.6,22.3
			c-1.4,0.9-2.8,1.8-4.2,2.6c-6.7-1.1-13.4-2.2-22.1-3.6c2.2-6.8,5.1-15,7.4-23.3c1.8-6.2,2.8-12.7,4.2-19l0,0
			C1178.8,186,1180.5,183.7,1182.2,181.4C1182.2,181.3,1182.2,181.4,1182.2,181.4z"/>
		<path class="st1" d="M1403.6,432.2c101.8,0.1,203.6,0.1,305.3,0.2c15.1,0,30.1,0,47,0c0,29.9,0,59.1,0,88.4
			c-0.3,38.2-0.5,76.5-0.8,114.7c-25.3,0-50.7,0-76-0.1c-1.3-0.8-2.5-2.2-3.8-2.2c-34.5,0.1-69.1,0.3-103.6,0.4
			c-12.3,0-24.6,0.1-36.8,0c-52.7-0.4-105.3-0.8-158-1.3c-5-0.6-10.1-1.7-15.1-1.7c-39.9-0.1-79.8-0.1-119.7-0.1
			c-7.4-0.6-14.7-1.3-22.1-1.9c-21-2.7-42.1-4.8-62.9-8.5c-7.7-1.4-14.8-6.8-22.1-10.3c9.8-10.5,19.5-21,29.3-31.5
			c-0.9-1.9-1.9-3.9-2.8-5.8c-36.3,21.5-76.1,16.8-118.7,20.2c12.2-14.8,22.1-27.4,32.6-39.3c15.5-17.6,31.3-34.9,47.4-52
			c8.1-8.6,17.3-16.2,25.9-24.2c5,5.8,10.1,11.6,15.6,17.9c-2.1,2.5-4.8,5.6-7.9,9.3c7.6,5.3,12.4,5.3,13.9-4.5
			c1.7,0.1,3.3,0.2,5,0.3c0.8-0.1,1.5-0.2,2.3-0.3c10.2-5.2,21.9-8.6,30.5-15.8c21.2-17.8,45.3-12.1,69.9-12.6
			c-12.6,12.6-24.7,23.4-35.1,35.5c-18.2,21.2-35,43.7-53.2,64.9c-11,12.7-23.7,23.9-35.6,35.9c-1.2,1.2-1.6,3.1-2.4,4.7
			c-0.3-0.1-0.6-0.3-0.9-0.2c-0.2,0.1-0.4,0.4-0.7,0.6c0.5-0.1,1-0.3,1.4-0.4c33.3,0.2,66.7,0.4,100,0.5c32.6,0.3,65.1,0.6,97.7,0.9
			c5.7-0.7,11.3-1.5,17-2.2c8.2,0.6,16.4,1.5,24.6,1.6c18.4,0.3,20.4-2.1,28.3-18.3c8.8-18,18.7-35.9,44-31.1
			c1.1,0.2,2.4-0.2,3.5-0.3c10.3,0.1,20.7,0,31,0.5c2.6,0.1,6,1.3,7.6,3.3c9.9,11.9,19.3,24.2,29.4,36.9c-4.6,2.9-8,5-12.8,8
			c36.8,0,71.9,0,108.7,0c-1.9-2.8-2.6-4.9-3.5-5c-18.2-2.8-24.7-18.8-34.1-31c-20.3-26.3-39.6-53.3-59.5-79.8
			c-9.9-13.2-20.3-26-31.9-40.8c-3.9,1.2-11.2,1.2-14.2,4.8c-10.9,13.1-20.3,27.3-30.3,41.1c-3.4,4.1-7,8.2-10.2,12.4
			c-9.5,12.5-18.4,25.4-28.4,37.6c-9.7,11.8-20.3,22.8-30.5,34.2c-3.3-1.5-6.6-3.9-10-4.3c-3.7-0.4-7.6,1-11.4,1.7
			c0.4-3.1,0.8-6.2,1.4-10.8c-14,6.2-27,11.9-39.9,17.7c-1.5,0.2-3.1,0.4-4.6,0.6c-5.5,0.1-11.1,0.2-16.6,0.4
			c-16.7,0.8-33.4,1.5-53.7,2.4c5.1-6.4,7.6-9.6,10.2-12.7c16.2-18.5,32.2-37.3,48.9-55.4c19.4-20.9,39.6-41.2,59.4-61.7
			c1.2-1.1,2.4-2.1,3.5-3.2c-1.2,0-2.4-0.1-3.6-0.1c-46.3-0.1-92.5-0.2-138.8-0.3c1-16.5,14.8-11,23.4-13c19.8-4.7,39.9-8.1,59.9-12
			C1345.2,434,1374.4,433.1,1403.6,432.2z"/>
		<path class="st2" d="M222.5,633c0-58.9,0-117.8-0.1-176.7c49.2-1.6,98.5-3.2,147.7-4.8c-0.8,2.8-1.6,5.6-2.4,8.5
			c-7,0.7-14,1.4-23.8,2.3c23.3,9.9,23.2,9.9,23.2,32.5c-0.1,27.1,0,54.1,0,81.2c0,24,0.1,24-21.2,33.1c-1,0.4-1.8,1.1-4.7,3.1
			c41.8,0,81.5,0,121.2,0c0.2-0.6,0.4-1.2,0.6-1.8c-6.9-2.9-13.7-5.7-21.1-8.8c0-21.2,0-42.2,0-63.3c8.3-0.1,16.6-1.2,24.8-0.3
			c26.9,2.9,52.7-2,78.2-9.8c8.3-3.4,16.6-6.8,24.9-10.1c5.6,1.9,12.7,2.2,16.3,5.9c7.2,7.4,14.4,7,22.7,4c0,25.3,0,50.5,0,74.6
			c-8,2.5-14.8,4.6-21.6,6.8c0.3,1.6,0.6,3.1,0.9,4.7c18,0,36.1,0,54.1,0c-3.2,6.2-6.4,12.4-9.5,18.5c-4.8,0.1-9.5,0.3-14.3,0.3
			C486.6,633,354.6,633,222.5,633z"/>
		<path class="st3" d="M1177,188.3c-1.4,6.4-2.5,12.8-4.2,19c-2.3,8.3-5.2,16.5-7.4,23.3c8.6,1.4,15.4,2.5,22.1,3.6
			c-3.3,4.2-6.9,8.1-9.9,12.5c-15.9,22.5-30.4,46.1-47.6,67.5c-25.5,31.7-53,61.8-79.2,93.1c-5.1,6-7.9,14-11.7,21
			c-0.9,1.2-1.8,2.5-2.7,3.7c-9.1-3.2-18.3-6.3-27.4-9.5c0.4-0.9,0.9-1.9,1.3-2.8c4.9-6.3,10.2-12.5,14.7-19.1
			c12.7-18.7,24.9-37.8,37.7-56.4c12.6-18.3,25.4-36.3,38.5-54.2c6.7-9.1,14.4-17.5,21.3-26.5c7.6-10.1,14.7-20.7,22-31
			c9.3-13,18.6-25.9,27.9-38.9C1173.9,191.8,1175.5,190,1177,188.3z"/>
		<path class="st4" d="M1177,188.3c-1.6,1.7-3.1,3.5-4.7,5.2c-7.7,5.8-15.4,11.6-23.1,17.3c-0.1-3.3-0.2-6.6-0.4-10
			c2.1-4,4.8-7.8,5.7-12.1c0.2-1-5.7-4.4-9.1-4.8c-30.5-4.3-61.1-7.5-91.5-12.3c-46.2-7.4-92.7-10.6-139.2-8
			c-46.8,2.7-93.5,8.6-140.2,13.6c-4.4,0.5-8.4,4.3-12.5,6.5c3.1,4,6.2,8,9.3,12c0,2.5,0,4.9,0,7.4c-4.7-1.7-9.4-3.4-14.1-5.1
			c-6.5-10.6-13.1-21.3-20.9-34c15.8-2.2,30-4.5,44.2-6.1c77-8.4,154.2-14.7,231.7-7.4c51.2,4.8,102.4,10.8,153.4,17.6
			c6.8,0.9,17.2-0.9,21.5,8.7c-1.6,1.5-3.3,3-4.9,4.5c0,0,0,0,0,0C1180.5,183.7,1178.8,186,1177,188.3L1177,188.3z"/>
		<path class="st1" d="M370.2,451.5c-49.2,1.6-98.5,3.2-147.7,4.8c0-7.5,0-15,0-24.3c105.9,0,211.8,0,317.6,0
			c25.4,1.8,50.8,3.7,76.2,5.5c0.7,3.3,1.4,6.7,2.5,12.4c-20.5,1.6-39.8,4.5-59.1,4.2c-26-0.4-52-4.1-78-4.8
			c-30.8-0.9-61.6-0.2-92.3-0.2c-4,0.8-8,1.6-12,2.4C374.9,451.5,372.6,451.5,370.2,451.5z"/>
		<path class="st5" d="M716.6,870.3c-21.9-6.1-43.9-11.8-65.7-18.4c-15.3-4.6-30.4-9.9-45.3-15.7c-18.1-7.1-36.4-14.1-53.8-22.7
			c-16.8-8.3-33.6-17.4-48.7-28.5c-21.2-15.6-41.1-32.9-60.8-50.3c-9.5-8.4-17.7-18.4-25.6-28.5c-6-7.7-10.6-16.5-17.1-27
			c23.1-3.5,43.4-6.6,63.7-9.7c0.1,2.2,0.1,4.3,0.2,6.5c-4.8,1.6-9.7,3.3-14.5,4.9c-5.6,2.1-11.2,4.3-17.2,6.5
			c5.3,8,8.7,15.1,13.9,20.7c19.6,20.9,39.7,41.4,59.7,61.9c2.7,2.8,5.5,5.9,8.8,7.7c15,7.9,30,16,45.5,22.8
			c22.3,9.9,45,19.1,67.7,27.8c14.7,5.7,29.6,10.9,44.8,14.8c21.7,5.6,43.8,9.8,65.7,14.6c0.2,2,0.3,3.9,0.5,5.9
			c-1.9,13.5-12.2,7.3-19.4,8.4c0,0,0,0,0,0C718.2,871.5,717.4,870.9,716.6,870.3z"/>
		<path class="st5" d="M425.1,410.6c-16.3-4.2-32.8-7.8-48.8-13c-10.9-3.6-11.5-9.6-3.7-17.6c18.3-18.7,35.6-38.5,55.1-55.9
			c15.4-13.7,32.7-25.5,50.3-36.2c21.4-12.9,43.7-24.5,66.3-35.2c21-9.9,42.6-19.1,64.7-26.3c30.6-9.8,61.9-17.4,92.9-26
			c10.1,3.9,12,13.1,14.2,22.1c-3.1-0.4-6.2-0.8-9.3-1.2c-2.5-6.4-6.4-8.8-13.7-6.8c-19.4,5.2-39.4,8.5-58.4,14.7
			c-25.4,8.3-50.3,18.3-75.2,28.4c-16.3,6.6-33.8,12.1-47.8,22.2c-26,18.8-49.9,40.4-74.3,61.3c-5.8,4.9-10.3,11.3-15.2,17.1
			c-8.5,10-16.8,20.1-25.7,30.7c2.2,0.5,7.2,1.5,12.1,2.5c6.3,0.8,12.5,1.6,18.8,2.4C430.9,400.2,436.2,406.5,425.1,410.6z"/>
		<path class="st6" d="M718.9,872c7.2-1.1,17.6,5.1,19.4-8.4c5.5-7.5,11-15,16.5-22.4l0,0.1c8.6-12.2,16.9-24.6,26-36.4
			c12.3-16.1,25.7-31.3,37.9-47.5c9-12,15.6-25.8,25.3-37.2c18.1-21.2,37.6-41.2,56.8-61.5c2-2.2,5.9-2.5,9-3.8
			c-4.1,7.6-8.1,15.2-12.2,22.7c-14.8,24.2-29.6,48.4-44.3,72.6c-11.4,16.7-22.4,33.7-34.2,50c-11.2,15.5-23.3,30.3-34.9,45.5
			c-7.6,11.1-15.2,22.1-22.9,33.2c-2.2,1.7-4.4,3.4-6.5,5.1c-7.2-1.6-14.5-2.7-21.5-4.9C728.2,877.5,723.7,874.4,718.9,872z"/>
		<path class="st5" d="M1208.2,209.3c2.2-0.5,4.8-1.9,6.7-1.3c26.6,8,53.6,15.2,79.6,24.8c32.7,12.2,65,25.8,96.8,40.2
			c14.9,6.8,28.5,16.6,42.3,25.7c13.5,9,26.7,18.6,39.6,28.6c23,17.9,44.1,37.8,60.2,63.4c-16.7,17.3-39.9,14-59.9,20
			c-2.3-2.4-4.6-4.7-6.9-7.1c4.3-1.6,8.8-2.8,13-4.9c3.9-1.9,7.3-4.6,10.9-7c0.1-1.6,0.2-3.3,0.4-4.9c4.8-1.2,9.5-2.5,17.4-4.5
			c-17.1-18.4-30.8-34.3-45.9-49c-9.7-9.4-20.4-18.4-32.1-25c-16.3-9.2-33.8-16.1-51-23.6c-22.6-9.9-45.2-19.5-67.9-29.3
			c-3.4-3.2-6.2-8-10.2-9.4c-27.3-9.3-55-17.7-82.3-27C1214.6,217.7,1211.7,212.6,1208.2,209.3z"/>
		<path class="st4" d="M754.7,884c2.2-1.7,4.4-3.4,6.5-5.1c4.1,0.1,8.3,0.2,12.4,0.3c1.7,0.8,3.3,2,5.1,2.5
			c47.9,11.1,96.6,13.8,145.6,14.3c-0.5,7.4,3.4,9.7,10.3,9.6c12.4-0.2,24.9-0.1,37.3,0.1c22.8,0.4,45.8,2.7,68.4,0.9
			c36.1-2.9,72-8.8,108.1-12.6c9.6-1,10.3-5,7.6-12.4c7.1-1.6,14.3-3.2,21.4-4.8c3.2,0,6.4,0,9.6-0.1c2.5,0,5.1-0.1,7.6-0.1
			c2.9,1.9,5.9,3.9,8.8,5.8c1.1,1.9,2.2,3.9,4.4,7.6c-151.6,30.6-303,30.2-455.3,6.2C753.5,891,754.1,887.5,754.7,884z M882.7,901.5
			c-0.1,0.9-0.1,1.9-0.2,2.8c2.3,0.1,4.6,0.2,6.9,0.3c0-0.9,0.1-1.8,0.1-2.8C887.2,901.7,885,901.6,882.7,901.5z"/>
		<path class="st6" d="M1192,812.3c-5-2.8-9.8-6.5-15.2-8.3c-5.3-1.8-11.3-1.8-18-2.8c1.4-4.6,2.5-7.9,3.9-12.4
			c-11.8,1.3-13,9.4-14.3,17.5c-2.9-1.8-6.5-3-8.5-5.5c-14.8-18.5-29.2-37.3-43.7-56c-15.5-19.9-31.5-39.6-46.4-59.9
			c-5.6-7.6-9-16.8-13.5-25.3c4.1-0.1,8.2-0.1,12.3-0.2l0,0c0.5,10,8.4,10.2,15.4,11.5c3,3.1,6,6.2,9.1,9.2
			c12.5,12.1,25.6,23.5,37.3,36.3c27.1,29.3,53.6,59.3,80.2,89.1C1191.9,807.1,1191.6,810,1192,812.3z"/>
		<path class="st5" d="M1538.2,674.1c14.1,3.3,16.3,7.7,7.3,17.7c-18.1,19.8-35.5,40.6-55.8,57.9c-20.6,17.4-44.2,31.2-66.7,46.3
			c-37.5,25.1-79.6,39.7-121.9,54c-15.2,5.2-30.5,9.9-45.9,14.8c-14.4,4.5-22.2,0.1-29.9-16.7c0,0,0.1,0.1,0.1,0.1
			c3.1,0,6.3-0.1,9.4-0.1c2.9,1.9,6.3,5.7,8.7,5.2c13.7-2.7,27.3-5.8,40.7-9.8c21.4-6.5,43.5-12,63.7-21.3
			c23.6-10.9,45.9-24.6,68-38.4c25.3-15.9,49.7-33.4,74.6-50.1c6.9-5.1,15.5-9,20.4-15.6C1521,704.1,1529.2,688.8,1538.2,674.1z"/>
		<path class="st7" d="M1461.7,661.9c14.3,2.4,28.7,4.7,43,7.1c-4.8,3.1-9.5,6.1-14.3,9.2c-8.3,9.8-15.7,20.6-25,29.3
			c-16,15-32.6,29.4-49.9,42.8c-11.6,9-24.5,16.4-37.5,23.4c-10.6,5.8-21.9,10.2-33.1,14.8c-22.2,9-44.5,17.7-66.8,26.5
			c-20.8,4.7-41.6,9.4-62.3,14.2c-0.2-1.6-0.4-3.1-0.5-4.7c12.2-3.8,24.4-7.7,36.6-11.5c2.3-1,4.6-1.9,6.9-2.9
			c1.7-0.6,3.4-1.2,5.1-1.8c1.5-0.4,3.1-0.8,4.6-1.2c1.5-0.6,3-1.3,4.6-1.9c8-3.3,16-6.5,23.9-9.8c11.3-4.4,22.6-8.8,33.9-13.2
			c4.6-2.6,9.3-5.3,13.9-7.9c5.6-3.2,11.3-6.4,16.9-9.6c0,0-0.1,0.1-0.1,0.1c3.2-1.6,6.4-3.2,9.5-4.7c1.6-0.8,3.2-1.6,4.7-2.4
			c2.4-1.7,4.7-3.4,7.1-5.1c7.2-5.4,14.4-10.9,21.6-16.3c4.7-3.3,9.4-6.6,14.1-9.9c12.8-13.4,25.6-26.8,38.5-40.2
			c1.6-1.7,3.3-3.5,4.9-5.2c0.7-0.9,1.4-1.8,2.1-2.7c1.5-2.3,3-4.5,4.5-6.8c-2.2-0.8-4.5-1.6-6.7-2.5c-0.2-0.6-0.3-1.1-0.5-1.7
			C1461.6,665.4,1461.6,663.7,1461.7,661.9z"/>
		<path class="st7" d="M1194.7,876.6c-2.5,0-5.1,0.1-7.6,0.1c-4.9-8.2-10.3-17.4-21-16.1c-11.5,1.4-22.6,5.8-33.8,8.9
			c-10.4,1.6-20.8,3.2-31.2,4.8c-7.2,0.2-14.4,0.5-21.7,0.7c-3.2,0.6-6.4,1.1-9.5,1.7c-4.8,0.3-9.5,0.6-14.3,0.9
			c-0.7-0.3-1.4-0.3-2.1-0.1c-1.7,0-3.3,0-5,0c-0.8,0.6-1.6,1.1-2.5,1.7c-10.4,0.3-20.8,0.6-31.2,0.9c-2.1,0.5-4.3,1.1-6.4,1.6
			l-0.4,0.5c-12-0.2-24-0.4-35.9-0.6c-1.5,0-3.1,0-4.6,0c-0.9,0-1.8-0.1-2.7-0.1l-0.1,0c-4.7-0.6-9.5-1.1-14.2-1.7
			c-9.5,0-19,0-28.5-0.1c-1.6,0-3.2,0-4.8,0.1c-1.6-0.1-3.2-0.1-4.8-0.2c-19.4-2.5-38.7-5.5-58.2-7.2c-19.6-1.7-39.3-2-58.9-3
			c-4.7-0.9-9.4-1.7-14.1-2.6c0.4,1.1,0.9,2.2,1.3,3.4c-2.8,2.3-5.7,4.6-8.5,6.9c-0.1,0.8-0.2,1.5-0.4,2.3
			c-4.1-0.1-8.3-0.2-12.4-0.3c7.6-11.1,15.2-22.1,22.9-33.2c1.5,1.1,3,2.1,4.6,3.2c1.7,2,3.1,5.4,5.2,5.9c8.1,1.7,16.4,2.6,24.6,3.6
			c31.5,3.7,62.9,7.7,94.4,10.9c17.3,1.7,34.7,2,52.1,3c3.7,0.7,7.5,2.1,11.2,2.1c9.3,0,18.7-0.2,28-0.9c14-1,27.9-2.4,41.8-3.6
			c1.5-0.6,2.9-1.4,4.4-1.6c36.3-5.8,72.6-11.5,109-17.1c2.1-0.3,4.4,1.2,6.6,1.8c4.5,0.7,9,1.5,13.6,2.2c4,2.7,7.9,5.4,11.9,8.1
			c-0.2,0.6,0,1.1,0.6,1.5C1193,868.8,1193.8,872.7,1194.7,876.6z"/>
		<path class="st8" d="M1679.1,635.5c25.3,0,50.7,0,76,0.1c0,2.4,0.1,4.7,0.1,7.1c-126.2,0-252.3,0-378.5,0.2
			c-4.4,0-8.9,1.4-13.3,2.2c-7.8,0-15.6-0.1-23.5-0.1c0-3,0-6,0-9.1c12-0.2,23.9-0.5,35.9-0.7c65.2,0,130.5-0.1,195.7-0.1
			C1607.5,635.2,1643.3,635.3,1679.1,635.5z"/>
		<path class="st9" d="M599.6,642.5c-122.8,0-245.6,0.1-368.4,0c-4.2,0-11.9,2.9-8.8-7c99.6,0.7,199.2,1.6,298.7,2.2
			c43.7,0.3,87.3,0,131,0c0,1.5,0,3,0,4.4c-1.7,0.4-3.3,0.9-5,1.3C631.3,643.2,615.4,642.9,599.6,642.5z"/>
		<path class="st7" d="M425.1,410.6c11.1-4.1,5.8-10.4,2.3-16.5c1.6-1.4,3.3-2.8,4.9-4.3c0.7,1.1,1.5,2.2,2.2,3.3
			c0.5-0.5,0.9-0.9,1.4-1.4c-1.1-0.7-2.2-1.5-3.3-2.2c1.5-1.6,2.9-3.2,4.4-4.8c6.1,8.8,12.4,13,20.5,1.9c0.9-1.3,3.6-1.3,5.4-1.9
			c-9.7,18.1-8,21.8,12.3,26.6c3.1,0.7,6.2,1.4,9.3,1.9c50.9,7.7,101.8,15.1,152.6,23.1c35.9,5.7,71.7,12.2,107.5,18.4
			c0.2,0.5,0.4,1,0.6,1.5c-14.9-1.4-29.9-2.1-44.7-4.2c-19.5-2.7-38.8-6.5-58.2-9.7c-8.8-1.5-17.5-3.1-26.3-4.6
			c-25.4-1.8-50.8-3.7-76.2-5.5c-36-6.5-72-12.9-108-19.4c-2.2-0.6-4.3-1.2-6.5-1.8L425.1,410.6z"/>
		<path class="st10" d="M1179.7,855.2c-4.5-0.7-9-1.5-13.6-2.2c-0.1-1.8,0.5-4.1-0.3-5.4c-3-4.4-6.6-8.4-9.8-12.7
			c-13.1-17.1-25.9-34.4-39.2-51.3c-15.7-20-32-39.4-47.4-59.6c-9.7-12.7-18.2-26.3-27.2-39.6c-10.6-15.6-21-31.3-31.5-47
			c1.5-0.7,3.1-1.3,4.6-2l1,0l1,0c6.3,8,12.6,16.1,19,24.1c4.4,8.5,7.9,17.7,13.5,25.3c15,20.3,30.9,40,46.4,59.9
			c14.6,18.7,29,37.4,43.7,56c2,2.5,5.6,3.7,8.5,5.5c1.1,2.8,2.2,5.6,3.3,8.5c1.5,1.6,2.9,3.2,4.4,4.8c0.1,0.8,0.3,1.6,0.4,2.4
			c1.4,1.5,2.9,3.1,4.3,4.6c0,0,0.1,0.2,0.1,0.2c3.1,3.2,6.3,6.4,9.4,9.6c3.4,5.5,6.7,11.1,10.1,16.6
			C1180.1,853.7,1179.9,854.5,1179.7,855.2z"/>
		<path class="st10" d="M757.2,198.1c4.7,1.7,9.4,3.4,14.1,5.1c1.6,2.4,3.2,4.9,4.8,7.3c7.9,11.8,15.9,23.7,23.8,35.5
			c1.5,1.7,3.1,3.4,4.6,5.1c0,0-0.1-0.1-0.1-0.1c1.6,3.2,3.2,6.5,4.8,9.7c0,0-0.1-0.1-0.1-0.1c3.5,6.7,6.7,13.5,10.6,20
			c9.7,16.3,19.6,32.4,29.6,48.5c10.3,16.4,20.8,32.6,31.2,49c5,7,10,13.9,15.1,20.9c1.7,4.4,3.4,8.8,5,13.2
			c-0.1,2.7-0.2,5.4-0.3,8.1c-8.8-9.3-17-18.2-22.3-30.8c-6.8-16.3-18.7-30.6-28.3-45.8c-10.1-16-20-32.1-30.2-48.1
			c-13.1-20.6-26.5-41-39.7-61.5C772.3,222,764.8,210,757.2,198.1z"/>
		<path class="st10" d="M1215.3,824.4c0.2,1.6,0.4,3.1,0.5,4.7c3.1,3.2,6.3,6.4,9.4,9.6c0,3.1,0.1,6.3,0.1,9.4c0,0-0.1-0.1-0.1-0.1
			c-1.6-0.7-3.3-1.5-4.9-2.2c-1.5-1.7-3.1-3.4-4.6-5.1c-2.5-3.1-5-6.2-7.5-9.3c-1.5-1.7-3-3.4-4.5-5.1c-4-4.7-7.9-9.4-11.9-14
			c-0.4-2.3-0.1-5.3-1.4-6.7c-26.6-29.8-53.1-59.7-80.2-89.1c-11.8-12.7-24.9-24.2-37.3-36.3c-3.1-3-6.1-6.2-9.1-9.2
			c-5.1-3.8-10.2-7.7-15.4-11.5c0,0,0,0,0,0c-2.7-3.6-5.3-7.3-8.3-10.7c-2.6-3-5.7-5.5-8.6-8.3c3.3,0,6.6-0.1,9.9-0.1
			c17.7,16.9,35.9,33.4,53,50.9c25.5,26.1,50.3,52.9,75.1,79.6c7.9,8.5,14.8,17.9,22.3,26.8C1199.7,806.6,1207.5,815.5,1215.3,824.4
			z"/>
		<path class="st10" d="M1038.9,428.2c3.8-7.1,6.6-15,11.7-21c26.2-31.2,53.7-61.3,79.2-93.1c17.2-21.4,31.8-45,47.6-67.5
			c3.1-4.3,6.6-8.3,9.9-12.5c1.4-0.9,2.8-1.8,4.2-2.6c0,4.8,0,9.6,0,14.4c-3.1,3.3-6.3,6.6-9.4,9.9c-3.2,5.4-6.4,10.8-9.6,16.2
			c-0.8,1.6-1.6,3.2-2.4,4.9c-3.1,3.4-6.3,6.8-9.4,10.2c-1.5,1.4-3,2.8-4.4,4.3c-0.1,0.8-0.2,1.6-0.3,2.4c-6,7.6-12,15.3-18,22.9
			c-17.9,22.1-35.8,44.1-53.5,66.3c-5.9,7.4-11.3,15.3-16.9,23c0,0,0,0,0,0c-4.9,4.6-9.8,9.2-14.7,13.8
			C1048.2,422.6,1043.6,425.4,1038.9,428.2z"/>
		<path class="st9" d="M900.5,420.1c0.1-2.7,0.2-5.4,0.3-8.1c2.4,3.4,4.5,7,7.1,10.2c9.9,11.7,20,23.1,30,34.7
			c-1.3,0.9-2.6,1.9-3.9,2.8c-14.3-0.1-28.6-0.2-42.8-0.3c-3.1-1.9-6.2-3.9-9.4-5.8c-5.8-8.7-11.6-17.4-17.3-26.1
			c7.1-0.8,14.2-1.6,21.3-2.3C890.4,422.9,898.4,430,900.5,420.1z"/>
		<path class="st10" d="M885.7,425.2c-7.1,0.8-14.2,1.6-21.3,2.3c-3.4-4.1-6.8-8.2-10.3-12.2c-16.5-18.8-33.2-37.4-49.3-56.5
			c-7.7-9.1-14.2-19.2-21.5-28.6c-8.4-10.9-17-21.5-25.6-32.2c-1-4-2.1-8-3.1-12c-1.4-2.1-2.9-4.2-4.3-6.4c0,0-0.5-0.8-0.5-0.8
			c2.1-0.6,4.2-1.2,6.3-1.8c10.8,16.3,21.2,32.8,32.5,48.7c7.6,10.7,16.5,20.6,24.9,30.8c11.5,13.9,23,27.7,34.5,41.6
			c5.7,7,10.4,15.3,17.3,20.6C870.7,422.9,878.8,423.2,885.7,425.2z"/>
		<path class="st4" d="M1191.7,246c0-4.8,0-9.6,0-14.4c-0.7-12.1,8.9-16.5,16.6-22.3c3.5,3.4,6.3,8.5,10.5,9.9
			c27.3,9.4,55,17.7,82.3,27c4,1.4,6.9,6.1,10.2,9.4c0,1.6,0,3.2,0,4.8c-14.3-4.7-28.6-9.4-43-14.2c-17.6-5-35.1-10.7-53-14.5
			c-3.9-0.9-9.4,4.3-13.7,7.4c-0.6,0.4,1.5,4.5,2.3,7C1199.8,245.9,1195.7,246,1191.7,246z"/>
		<path class="st4" d="M1490.4,678.2c4.8-3.1,9.5-6.1,14.3-9.2c11.2,1.7,22.3,3.4,33.5,5.1c-9,14.7-17.2,30-27.4,43.8
			c-4.9,6.6-13.5,10.5-20.4,15.6c2.2-5.8,4.7-11.4,6.3-17.3c1-3.7,0.5-7.8,0.7-11.7c4.7-6.5,9.4-12.9,14.6-20.2
			C1504,682,1497.2,680.1,1490.4,678.2z"/>
		<path class="st7" d="M1466.5,403.7c2.3,2.4,4.6,4.7,6.9,7.1c-26.1,4.8-52.2,9.7-78.3,14.5c-6,1.1-12.1,1.9-18.2,5.6
			c8.9,0.5,17.8,0.9,26.7,1.4c-29.2,0.9-58.5,1.8-87.7,2.7c-5-0.2-9.9-0.3-14.9-0.5c17.8-3.9,35.5-7.7,53.3-11.6
			c1.6-0.2,3.2-0.4,4.8-0.6c11.1-2.2,22.3-4.3,33.4-6.5c1.6-0.2,3.2-0.4,4.8-0.6c1.7-0.6,3.5-1.1,5.2-1.7c15-2.5,29.9-4.9,44.9-7.4
			C1453.8,405.3,1460.2,404.5,1466.5,403.7z"/>
		<path class="st11" d="M652.1,637.8c-43.7,0-87.3,0.3-131,0c-99.6-0.6-199.2-1.5-298.7-2.2c0.1-0.9,0.1-1.7,0.2-2.6
			c132,0,264.1,0,396.1-0.1c4.8,0,9.5-0.2,14.3-0.3c6.4,1,12.8,2.1,19.1,3.1C652.1,636.4,652.1,637.1,652.1,637.8z"/>
		<path class="st6" d="M1755.3,642.6c0-2.4-0.1-4.7-0.1-7.1c0.3-38.2,0.5-76.5,0.8-114.7c3.1,9.1,8.4,18.1,8.7,27.3
			c1.2,28.1,0.2,56.3,0.6,84.4C1765.3,640,1763.4,643.9,1755.3,642.6z"/>
		<path class="st10" d="M599.6,642.5c15.9,0.3,31.7,0.7,47.6,1c-5.5,1.4-11.1,2.8-16.7,4.2c-12.7,2.3-25.5,4.6-38.2,6.8
			c-2.4,0.8-4.8,1.6-7.2,2.4c-4,0-7.9,0.1-11.9,0.1c-22.6,3.9-45.2,7.7-67.7,11.6c-6.8,0.5-13.7,0.9-20.5,1.4
			c-4.8-0.4-9.6-0.8-14.4-1.2c22-4,43.9-8.2,65.9-11.9c20.9-3.5,42-6.5,62.9-10C599.6,647,599.5,644.1,599.6,642.5z"/>
		<path class="st7" d="M470.5,668.9c4.8,0.4,9.6,0.8,14.4,1.2c2.3,6.3,4.7,12.6,7,18.9c1.7,2,3.4,4.1,5.1,6.1L497,695
			c1.6,1.6,3.2,3.2,4.8,4.9l0,0c2.2,2.4,4.4,4.9,6.7,7.3c0.3,0.7,0.4,1.4,0.5,2.1c-8,5.6-14.7,3.4-20.6-3.4
			c-4.5-5.1-8.7-10.3-13.1-15.5c-2.4-4-4.7-8-7.1-12c-1.6-0.8-3.1-1.6-4.7-2.4c-0.1-2.2-0.1-4.3-0.2-6.5
			C465.7,669.3,468.1,669.1,470.5,668.9z"/>
		<path class="st11" d="M1340,644.9c7.8,0,15.6,0.1,23.5,0.1c14,2.4,28,4.8,42,7.4c6.9,1.3,13.7,3.2,20.5,4.8
			c-0.1,1.4-0.1,2.8-0.2,4.3c-1.5-0.1-3.1-0.2-4.6-0.3c-0.9-0.6-1.8-1.1-2.7-1.7c-13.3-1.7-26.6-3.1-39.8-5.1
			c-27.5-4.3-55-9-82.5-13.5C1310.8,642.2,1325.4,643.5,1340,644.9z"/>
		<path class="st12" d="M756.1,277.1c-2.1,0.6-4.2,1.2-6.3,1.8c-1.6-0.6-3.2-1.2-4.7-1.8c-1.5-1.8-2.9-3.6-4.4-5.5
			c-4.1-7.4-8.2-14.8-12.3-22.2c0.1-1.2,0.1-2.3,0.2-3.5c0-0.8,0-1.5,0-2.3c2.3-0.8,4.6-1.6,6.9-2.4
			C742.3,253.2,749.2,265.1,756.1,277.1z"/>
		<path class="st7" d="M735.4,241.2c-2.3,0.8-4.6,1.6-6.9,2.4c-3.7-4.7-7.4-9.4-11.2-14.1c-0.4-2.3-0.7-4.6-1.1-6.9
			c-2.2-9-4.1-18.2-14.2-22.1c4.5,1.5,11,1.7,13.1,4.8C722.7,216.7,728.8,229.2,735.4,241.2z"/>
		<path class="st13" d="M1425.8,661.4c0.1-1.4,0.1-2.8,0.2-4.3c11.9,1.6,23.8,3.2,35.8,4.8c-0.1,1.7-0.2,3.5-0.3,5.2
			C1449.6,665.3,1437.7,663.4,1425.8,661.4z"/>
		<path class="st6" d="M1194.7,876.6c-0.8-3.9-1.7-7.9-2.5-11.8c10.9,1.3,12.5,8.6,11.3,17.6
			C1200.5,880.5,1197.6,878.6,1194.7,876.6z"/>
		<path class="st6" d="M1179.7,855.2c0.2-0.8,0.5-1.5,0.7-2.3c6.5,0.4,12.4,1.6,11.2,10.4C1187.6,860.6,1183.6,857.9,1179.7,855.2z"
			/>
		<path class="st6" d="M1170.3,836.4c-3.1-3.2-6.3-6.4-9.4-9.6C1164,829.9,1167.2,833.1,1170.3,836.4z"/>
		<path class="st3" d="M1177,188.3c1.7-2.3,3.5-4.6,5.2-6.9C1180.5,183.7,1178.8,186,1177,188.3z"/>
		<path class="st6" d="M1156,819.5c-1.5-1.6-2.9-3.2-4.4-4.8C1153.1,816.3,1154.5,817.9,1156,819.5z"/>
		<path class="st6" d="M1160.8,826.5c-1.4-1.5-2.9-3.1-4.3-4.6C1157.9,823.4,1159.3,825,1160.8,826.5z"/>
		<path class="st3" d="M1182.2,181.4c1.6-1.5,3.3-3,4.9-4.5C1185.5,178.4,1183.8,179.9,1182.2,181.4z"/>
		<path class="st6" d="M1215.8,840.7c1.5,1.7,3.1,3.4,4.6,5.1C1218.9,844.1,1217.4,842.4,1215.8,840.7z"/>
		<path class="st5" d="M425.6,410.7c2.2,0.6,4.3,1.2,6.5,1.8C429.9,412,427.7,411.4,425.6,410.7z"/>
		<path class="st6" d="M1203.9,826.4c1.5,1.7,3,3.4,4.5,5.1C1206.9,829.8,1205.4,828.1,1203.9,826.4z"/>
		<path class="st6" d="M716.6,870.3c0.8,0.6,1.6,1.2,2.4,1.7C718.2,871.5,717.4,870.9,716.6,870.3z"/>
		<path class="st14" d="M1425.8,661.4c11.9,1.9,23.8,3.8,35.7,5.7c0.2,0.6,0.3,1.1,0.5,1.7c-10.9,5.9-21.6,3.8-32.5,0
			c-5.5-1.9-11.4-4.8-16.9-4.3c-15.6,1.4-31,4.4-46.6,6.7c3.9-7.3,1.2-14.5-5.7-15c-7.3-0.5-14.9,4.1-22.4,6.4
			c2.3,3.7,3.7,9.2,7,10.7c3.8,1.8,9.3,0.1,14-0.1c-2.2,9.1-2.9,18.9-6.8,27.2c-9.7,20.7-31.8,28.5-48.5,41.4
			c-12.8,9.9-31.4,12.3-47.2,18.4c-3.9,1.5-7.2,4.8-11,6.9c-7.8,4.2-15.9,8.1-23.8,12c-2.8,1.4-6.1,2.2-8.5,4.1
			c-2.6,2-4.3,5-6.4,7.6c2.4,1.8,4.8,3.5,7.2,5.3c3.1,2.3,6.8,4.2,9.1,7.1c5.5,7,11.7,9.8,20.6,7.6c2.5-0.6,5.6,1.3,8.4,2.1
			c-12.2,3.8-24.4,7.7-36.6,11.5c-7.8-9-15.6-17.9-23.3-26.9c-7.5-8.9-14.4-18.3-22.3-26.8c-24.8-26.7-49.7-53.5-75.1-79.6
			c-17.1-17.5-35.3-34-53-50.9c-7.4-7.1-14.7-14.4-22.3-21.3c-5-4.5-10.7-8.3-16.1-12.5c-1.5-0.9-2.9-1.9-4.4-2.8
			c1.1-0.4,2.2-1.3,3.3-1.3c36.1,1,72.2,1.8,108.3,3.2c8.2,0.3,16.4,2.6,24.6,4.1c7.4,3.6,14.4,8.9,22.1,10.3
			c20.8,3.7,41.9,5.8,62.9,8.5c7.3,1.6,14.6,3.1,21.9,4.7l-0.1-0.1c18.1,2.5,36.2,5.1,54.3,7.6c27.5,4.5,55,9.2,82.5,13.5
			c13.2,2.1,26.5,3.4,39.8,5.1c0.9,0.6,1.8,1.1,2.7,1.7C1422.7,661.2,1424.3,661.3,1425.8,661.4z M1164.7,686.2
			c-9.7,0.5-20.7-3.5-28.3,6.4c7.8-0.6,17.8-4.5,21.7-1.1c11.6,10,22.1,6,33.7,2.3c0.9-6.9,1.8-13.5,2.7-20.1
			c6.3,0.2,12.5,0.4,18.8,0.6c9-1.2,8.5-7.5,6-13.2c-3.3-7.6-15.7-9.4-23-4.1c-7.5,1.8-15.1,3.3-22.4,5.5c-6,1.8-6.3,6.2-3.5,11.2
			C1168.5,677.9,1166.6,682,1164.7,686.2z M1280.2,742.7c4.8-2.3,9.6-4.5,14.3-6.8c2.4-1.6,4.8-3.3,7.1-4.9
			c4.8-3.2,9.6-6.3,14.3-9.5c2.5-2.3,5-4.7,7.5-7c6.2-5,12.9-9.5,18.4-15.2c2.2-2.2,2.4-7.1,2.2-10.6c-0.1-1.3-4-3.3-6.2-3.3
			c-16-0.2-32.1,0-48.2,0c-1.7-0.4-3.4-0.7-5.1-1.1c-9.2,0.2-18.5,0.3-27.7,0.5c-3.6,0-7.1,0.1-10.7,0.1c-8.4,0.4-16.8,0.7-26,1.2
			c2,7.1,3.7,12.5,4.9,18c3.4,15.7,6.5,31.5,10.1,47.1c0.4,1.6,3.4,3.8,4.9,3.6c6.4-0.9,12.7-2.7,19-4.1c1.5-0.2,3-0.4,4.4-0.6
			c4.9-2.3,9.7-4.6,14.6-6.9C1278.9,743.2,1279.6,743,1280.2,742.7z M1138.9,642.6c-0.9-2.3-1.1-5.8-2.7-6.6
			c-13.1-6.4-37-2.9-43.2,12.1c2.4,1,6.8,1.8,6.9,2.9c0.5,9.5,7.4,10.3,14.1,10.7c6.8,0.4,13.6-0.1,20.4-0.3
			C1146.6,657.7,1148,652.1,1138.9,642.6z M1155.1,744.9c11.4,11.9,25.4,13.2,35.1,3.8c1.8-1.7,2.4-5.5,2.3-8.2
			c-0.1-1.5-3.2-4.4-4.4-4.1C1177.2,738.9,1166.6,741.9,1155.1,744.9z M1226.4,757.4c-1.3-1.3-2.5-2.6-3.8-3.9
			c-6.9,2.1-14,3.7-20.5,6.6c-1.4,0.6-1,5.5-1.4,8.5c6.8,0.2,13.9,1.6,20.4,0.2C1223.5,768.2,1224.6,761.4,1226.4,757.4z"/>
		<path class="st3" d="M1323.2,590.4c1.5-0.2,3.1-0.4,4.6-0.6c5.8,0.9,11.8,1.3,17.5,2.9c3.4,0.9,6.3,3.7,9.4,5.7
			c-1.1,2.4-2.2,4.8-3.4,7.2c-31-0.4-62-0.9-92.9-0.7c-2.3,0-4.6,5.3-6.9,8.1c-33.3-0.2-66.7-0.4-100-0.5c0,0,0.1,0.1,0.1,0.1
			c0.8-1.6,1.3-3.5,2.4-4.7c11.8-12,24.6-23.2,35.6-35.9c18.3-21.2,35-43.7,53.2-64.9c10.5-12.2,22.6-22.9,35.1-35.5
			c-24.7,0.6-48.7-5.2-69.9,12.6c-8.5,7.2-20.2,10.6-30.5,15.8c-0.8-0.3-1.6-0.2-2.3,0.3c-1.7-0.1-3.3-0.2-5-0.3
			c1.7-6.1,1.6-13.9,5.4-18.1c19.5-21.2,19.8-20.9,49.9-21.3c2.3,0,4.7-0.4,7-0.6c46.3,0.1,92.5,0.2,138.8,0.3c0,1.1,0,2.2,0.1,3.3
			c-19.8,20.5-40,40.8-59.4,61.7c-16.7,18-32.7,36.9-48.9,55.4c-2.7,3-5.1,6.3-10.2,12.7c20.3-0.9,37-1.7,53.7-2.4
			C1312.1,590.6,1317.7,590.5,1323.2,590.4z"/>
		<path class="st3" d="M1134.9,609.8c-8.2-1.4-16.3-3.7-24.6-4.1c-36.1-1.4-72.2-2.3-108.3-3.2c-1.1,0-2.2,0.8-3.3,1.3
			c-3.5,0.3-6.9,0.6-10.4,0.9c-6.9-2.5-13.9-5-20.8-7.5c-1.7-1.7-3.4-3.4-5.1-5.1c3.6-5.4,6.7-11.1,10.8-16.1
			c11.7-14.1,24-27.8,35.9-41.8c16.6-19.5,33.1-39.2,49.6-58.8c5.8-2.4,5.6-5.4-0.1-6.9c-3-0.8-6.6,1.1-10,1.7
			c-2.4,0-4.8,0.1-7.2,0.1c-1.6-3.8-3.2-7.5-4.8-11.3c42.9,0,85.9,0,128.8,0c-5.6,6-11.2,12.1-16.8,18.1c-8.7,8-17.8,15.6-25.9,24.2
			c-16.1,17-31.9,34.4-47.4,52c-10.5,11.9-20.4,24.5-32.6,39.3c42.6-3.4,82.4,1.2,118.7-20.2c0.9,1.9,1.9,3.9,2.8,5.8
			C1154.4,588.8,1144.7,599.3,1134.9,609.8z"/>
		<path class="st3" d="M1456.9,501.4c10-13.8,19.4-28.1,30.3-41.1c3-3.6,10.3-3.6,14.2-4.8c11.6,14.8,22,27.6,31.9,40.8
			c19.9,26.5,39.2,53.5,59.5,79.8c9.4,12.2,15.8,28.2,34.1,31c1,0.1,1.6,2.2,3.5,5c-36.8,0-71.9,0-108.7,0c4.8-3,8.2-5.1,12.8-8
			c-10-12.7-19.5-25-29.4-36.9c-1.6-1.9-5-3.1-7.6-3.3c-10.3-0.5-20.7-0.4-31-0.5c-3.2-3.7-6.4-7.5-9.6-11.2c11.1,0,22.1,0,34.2,0
			c-3.3-7.5-4.7-13.2-7.9-17.6c-3.5-4.7-6-12.6-14.9-9.1c-10.5-0.4-16.8-3.8-11.7-15.9C1457.7,507.3,1456.9,504.2,1456.9,501.4z"/>
		<path class="st6" d="M1456.9,501.4c0,2.8,0.8,5.9-0.2,8.2c-5.1,12.1,1.2,15.5,11.7,15.9c-6.4,8.1-12.8,16.3-20.1,25.6
			c4.8,0.6,6.7,0.9,8.6,1.1c3.2,3.7,6.4,7.5,9.6,11.2c-1.2,0.1-2.4,0.5-3.5,0.3c-25.3-4.7-35.2,13.2-44,31.1
			c-7.9,16.2-9.9,18.6-28.3,18.3c-8.2-0.1-16.4-1-24.6-1.6c8-8,18.7-13.8,21.7-26c10.2-11.4,20.8-22.4,30.5-34.2
			c9.9-12.1,18.9-25.1,28.4-37.6C1449.9,509.6,1453.5,505.6,1456.9,501.4z"/>
		<path class="st15" d="M1148.7,477.2c5.6-6,11.2-12.1,16.8-18.1c6.4-1.8,12.7-4.1,19.2-5.2c38.8-6.6,77.6-13,116.5-19.5
			c5,0.2,9.9,0.3,14.9,0.5c-20,3.9-40.1,7.3-59.9,12c-8.7,2-22.5-3.4-23.4,13c-2.3,0.2-4.7,0.6-7,0.6c-30.1,0.4-30.4,0.1-49.9,21.3
			c-3.8,4.2-3.7,12-5.4,18.1c-1.5,9.8-6.3,9.9-13.9,4.5c3.1-3.7,5.8-6.9,7.9-9.3C1158.8,488.8,1153.7,483,1148.7,477.2z"/>
		<path class="st16" d="M1251.5,612.9c2.3-2.8,4.6-8,6.9-8.1c31-0.2,62,0.3,92.9,0.7c-0.7,2.8-1.5,5.5-2.2,8.3
			C1316.6,613.5,1284,613.2,1251.5,612.9z"/>
		<path class="st15" d="M1349.1,613.8c0.7-2.8,1.5-5.5,2.2-8.3c1.1-2.4,2.2-4.8,3.4-7.2c3.9-5.1,7.7-10.2,11.6-15.4
			c3.8-0.6,7.7-2.1,11.4-1.7c3.5,0.4,6.7,2.8,10,4.3c-3,12.2-13.6,18-21.7,26C1360.4,612.3,1354.8,613.1,1349.1,613.8z"/>
		<path class="st17" d="M1375.9,635.1c-12,0.2-23.9,0.5-35.9,0.7c-32.7-0.9-65.5-1.8-98.2-2.6c0,0,0.1,0.1,0.1,0.1
			c0-0.9,0.1-1.8,0.1-2.7c39.9,0,79.8,0,119.7,0.1c5,0,10.1,1.1,15.1,1.7C1376.5,633.3,1376.2,634.2,1375.9,635.1z"/>
		<path class="st16" d="M1375.9,635.1c0.3-0.9,0.6-1.8,0.9-2.7c52.7,0.4,105.3,0.9,158,1.3c12.3,0.1,24.6,0,36.8,0
			c-0.2,0.5-0.2,0.9,0,1.4C1506.4,635,1441.2,635.1,1375.9,635.1z"/>
		<path class="st16" d="M1366.3,583c-3.9,5.1-7.7,10.2-11.6,15.4c-3.1-1.9-6-4.7-9.4-5.7c-5.6-1.6-11.6-2-17.5-2.9
			c12.9-5.7,25.8-11.4,39.9-17.7C1367.1,576.7,1366.7,579.8,1366.3,583z"/>
		<path class="st18" d="M1571.7,635c-0.2-0.5-0.2-0.9,0-1.4c34.5-0.2,69.1-0.4,103.6-0.4c1.3,0,2.5,1.5,3.8,2.2
			C1643.3,635.3,1607.5,635.2,1571.7,635z"/>
		<path class="st15" d="M1242,630.5c0,0.9-0.1,1.8-0.1,2.7c-7.3-1.6-14.6-3.1-21.9-4.7C1227.3,629.3,1234.7,629.9,1242,630.5z"/>
		<path class="st16" d="M1323.2,590.4c-5.5,0.1-11.1,0.2-16.6,0.4C1312.1,590.6,1317.7,590.5,1323.2,590.4z"/>
		<path class="st15" d="M1371.4,463.5c0-1.1,0-2.2-0.1-3.3c1.2,0,2.4,0.1,3.6,0.1C1373.8,461.4,1372.6,462.4,1371.4,463.5z"/>
		<path class="st15" d="M1175.2,500.2c0.7-0.5,1.4-0.6,2.3-0.3C1176.7,500,1176,500.1,1175.2,500.2z"/>
		<path class="st16" d="M1151.5,612.5C1151.5,612.5,1151.5,612.4,1151.5,612.5c-0.6,0.1-1,0.2-1.5,0.3c0.2-0.2,0.4-0.5,0.7-0.6
			C1150.9,612.2,1151.2,612.4,1151.5,612.5z"/>
		<path class="st3" d="M442.1,538.3c0,21.1,0,42.2,0,63.3c7.3,3.1,14.2,5.9,21.1,8.8c-0.2,0.6-0.4,1.2-0.6,1.8
			c-39.7,0-79.4,0-121.2,0c2.9-1.9,3.7-2.7,4.7-3.1c21.2-9.1,21.2-9.1,21.2-33.1c0-27.1-0.1-54.1,0-81.2c0-22.6,0.1-22.6-23.2-32.5
			c9.8-1,16.8-1.6,23.8-2.3c40.1,0.2,80.1,0,120.2,0.7c26,0.4,52.1,1.4,75.6,14.8c16.7,9.5,15.2,9.3,14.2,27.8
			c-0.3,5.1-5,9.9-7.6,14.8c-8.3,3.4-16.6,6.8-24.9,10.1c-14.1,0.7-28.1,1.3-42.2,2.2c-7.4,0.5-13-1.7-15.7-9.1
			c14.3-9.7,14-37.5-1.7-43.6c-13-5.1-27.6-6.2-43.5-9.6c0,22.3,0,40.8,0,59.3C442.1,531.1,442.1,534.7,442.1,538.3z"/>
		<path class="st8" d="M652.1,635.7c-6.4-1-12.8-2.1-19.1-3.1c3.2-6.2,6.4-12.4,9.5-18.5c19.6-0.5,39.2-1.1,58.9-1.6
			c0-1.5,0.1-3,0.1-4.4c-5.1-1.1-10.2-2.2-15.6-3.3c0-45.1,0-90.2,0-133.8c3.8-2.9,6.7-5.1,9.6-7.4c14.9,0,29.8,0,44.7-0.1
			c0.7,13.8-6.1,25-12.7,36.2c-1.3,2.3-1.9,5-2.9,7.5c3-0.1,6.5,0.8,8.8-0.5c7.6-4.2,14.5-9.6,22.1-13.9c13-7.4,25.5-17.2,39.5-20.6
			c14.9-3.6,31.4-0.8,50.4-0.8c-42.3,47.9-82.9,93.9-123.5,139.8c0.8,1,1.5,2,2.3,2.9c19,0,37.9,0,56.9,0c0,0.9,0.1,1.8,0.1,2.7
			c-32.6,6.3-65.2,12.7-97.8,19C672.9,635.7,662.5,635.7,652.1,635.7z"/>
		<path class="st3" d="M695.5,463.5c-2.9,2.2-5.9,4.5-9.6,7.4c0,43.6,0,88.7,0,133.8c5.4,1.2,10.5,2.2,15.6,3.3c0,1.5-0.1,3-0.1,4.4
			c-19.6,0.5-39.2,1.1-58.9,1.6c-18,0-36.1,0-54.1,0c-0.3-1.6-0.6-3.1-0.9-4.7c6.8-2.1,13.6-4.3,21.6-6.8c0-24.1,0-49.3,0-74.6
			c0-19.7,0-39.3,0-58.2c-10-1.6-18.2-2.9-26.5-4.2c0.2-2,0.3-4.1,0.5-6.1c23.1,0,46.2,0,69.2,0l0.9,0.5l0.9-0.6c1.7,0,3.3,0,5,0
			c9.3-0.1,18.5-0.5,27.8-0.1C689.8,459.4,692.6,462,695.5,463.5z"/>
		<path class="st9" d="M659.1,459.3c-1.7,0-3.3,0-5,0c-0.6-0.6-1.2-0.6-1.7,0c-23.1,0-46.2,0-69.2,0c-0.2,2-0.3,4.1-0.5,6.1
			c8.2,1.3,16.5,2.6,26.5,4.2c0,18.9,0,38.5,0,58.2c-8.3,3-15.5,3.4-22.7-4c-3.6-3.7-10.8-4-16.3-5.9c2.7-4.9,7.4-9.7,7.6-14.8
			c1-18.5,2.5-18.3-14.2-27.8c-23.5-13.4-49.6-14.4-75.6-14.8c-40.1-0.7-80.1-0.5-120.2-0.7c0.8-2.8,1.6-5.6,2.4-8.5
			c2.4,0,4.8,0,7.1,0c4.8,3.3,9.3,5,12-2.4c30.8,0,61.6-0.7,92.3,0.2c26,0.8,52,4.4,78,4.8c19.3,0.3,38.6-2.6,59.1-4.2
			c-1.2-5.8-1.9-9.1-2.5-12.4c8.8,1.5,17.5,3.1,26.3,4.6c2.8,2.3,6,4.4,8.5,7C653.9,452.3,656.4,455.9,659.1,459.3z"/>
		<path class="st16" d="M442.1,538.3c0-3.6-0.1-7.2-0.1-10.8c15.1-2.1,30.1-4.1,45.2-6.2c2.7,7.4,8.3,9.6,15.7,9.1
			c14.1-0.9,28.1-1.5,42.2-2.2c-25.5,7.8-51.3,12.7-78.2,9.8C458.8,537.1,450.4,538.1,442.1,538.3z"/>
		<path class="st19" d="M1301.1,434.4c-38.8,6.5-77.7,12.8-116.5,19.5c-6.5,1.1-12.8,3.4-19.2,5.2c-42.9,0-85.9,0-128.8,0
			c-6.9-0.1-13.7-0.2-20.6-0.2c6.8-9,13.5-17.9,20.3-26.9c0.9-1.2,1.8-2.5,2.7-3.7c4.6-2.8,9.3-5.6,13.9-8.4
			c9.8,2.7,14-1.2,14.7-13.8c0,0,0,0,0,0c16.2-3,20.1-18,28.7-28.8c19.6-24.8,20.9-27,40.6-21.3c18.9,7,49.4-9.7,57.1-31.2
			c0.3-3.2,0.5-6.4,0.8-9.5c6.9,10.9,16.3,10.3,26.7,5.8c1.4-0.6,3.1-0.5,4.6-0.7c-8.7,18.2-17.7,36.2-26,54.6
			c-3.4,7.6-5.5,15.9-8.2,23.8c-7.2,5.5-14.3,11-23.3,17.9c20.4,6.5,24,5,27.8-5.8c-2.2-5-3.3-7.5-4.4-10
			c38.2-3.7,76.4-7.4,114.6-11.1c1.6,3.2,3.3,6.5,4.9,9.7c-3.8,3.7-7.7,7.4-11.3,11c5.2,3,9.4,11.8,18.8,6.5c8.3,1,16.7,2,25,3
			c3.5,1,7,1.9,10.4,2.9C1336.6,426.7,1318.8,430.6,1301.1,434.4z M1107.1,452.7c6.3-2.2,13.9-4.2,20.8-7.6
			c6.8-3.3,6.6-14.4-0.2-18.2c-12.5-7-25.8-8.1-38.5-1.4c-4,2.1-7.7,8-8.2,12.5c-0.3,3,4.7,7.7,8.5,9.7
			C1094.3,450.2,1100,450.8,1107.1,452.7z M1242,430.1c-5.3-3.1-8.5-4.9-14.2-8.2c7.5-1.6,12-3.4,16.4-3.3c4.3,0,8.6,1.9,15.1,3.6
			c-16.9-15.3-34.3-8.9-40.8,13.7C1226.2,434,1232.9,432.4,1242,430.1z M1136.1,375c-10.7,13.5-10.5,17.9,1.3,23.7
			C1142.5,390.8,1150.5,383.1,1136.1,375z M1148.1,375.5c4.4,9.8-0.7,20.6,12.4,20.9c0.9,0,1.9-0.6,3.4-1.1
			c-2.6-1.9-4.6-3.4-6.2-4.7c2.8-2.5,5.3-4.7,10.3-9.1C1160.8,379.3,1156,377.9,1148.1,375.5z"/>
		<path class="st9" d="M1036.3,431.9c-6.8,9-13.5,17.9-20.3,26.9c-5.1,0.1-10.5,1.1-15.4,0.2c-18.8-3.5-25.1,12-35,22.1
			c-6.6,6.8-13.2,13.7-19.8,20.5c-3.7-1.6-8.1-5.3-10.9-4.3c-8.3,2.9-13.2-1.9-18.8-5.8c0.8-1.3,1.3-2.8,2.4-3.9
			c8.9-8.9,17.9-17.7,26.9-26.6c4.5-0.8,8.9-1.7,13.4-2.4c6-0.9,12-1.6,18-2.4c4.1-7.1,8.1-14.3,12.2-21.4c0,0-0.1,0-0.1,0
			c1.5-1.7,3.1-3.3,4.6-5c4.5-5,9.1-10,13.6-15c1,1.5,2,3.1,3,4.6c-0.4,0.9-0.9,1.9-1.3,2.8C1018,425.6,1027.1,428.8,1036.3,431.9z"
			/>
		<path class="st10" d="M1010.2,419.6c-1-1.5-2-3.1-3-4.6c2.7-6.1,5.3-12.2,8-18.3c3.7-4.9,7.4-9.8,11.1-14.7
			c0.3-0.8,0.5-1.6,0.8-2.4c1.7-3.1,3.4-6.1,5.1-9.2l0,0.1c8.8-6.8,16.4-14.3,16.8-26.4l0,0.2c1.6-1,3.6-1.6,4.6-2.9
			c10.4-13.9,20.8-27.7,30.8-41.8c9.7-13.7,19.1-27.8,28.6-41.7c3.4-4,7-7.8,10.2-11.9c8.6-10.9,17-21.9,25.5-32.8
			c0.2-0.8,0.5-1.6,0.7-2.3c7.7-5.8,15.4-11.6,23.1-17.3c-9.3,13-18.6,25.9-27.9,38.9c-7.4,10.3-14.4,20.9-22,31
			c-6.8,9-14.6,17.4-21.3,26.5c-13.1,17.9-26,35.9-38.5,54.2c-12.8,18.6-25,37.7-37.7,56.4C1020.4,407.2,1015.1,413.3,1010.2,419.6z
			"/>
		<path class="st20" d="M771.4,195.8c-3.1-4-6.2-8-9.3-12c4.2-2.3,8.2-6.1,12.5-6.5c46.7-5,93.3-11,140.2-13.6
			c46.5-2.6,93,0.6,139.2,8c30.4,4.8,61,8.1,91.5,12.3c3.4,0.5,9.3,3.9,9.1,4.8c-0.9,4.2-3.7,8.1-5.7,12.1
			c-25.1-2.6-50.2-5-75.3-7.8c-53.7-6-107.2-15.2-161.8-9.6C865.1,188.3,818.2,191.8,771.4,195.8z"/>
		<path class="st7" d="M771.4,195.8c46.8-4.1,93.6-7.6,140.4-12.4c54.5-5.6,108,3.5,161.8,9.6c25.1,2.8,50.2,5.2,75.3,7.8
			c0.1,3.3,0.2,6.6,0.4,10c-0.2,0.8-0.5,1.6-0.7,2.3c-28.5-4.1-57-8.8-85.6-12.2c-27.1-3.2-54.3-6.1-81.5-7.4
			c-63.1-2.9-126,1.7-188.6,9.6c-5.7,0.7-11.1,4.7-16.6,7.2c-1.6-2.4-3.2-4.9-4.8-7.3C771.4,200.7,771.4,198.3,771.4,195.8z"/>
		<path class="st2" d="M389.3,449.1c-2.7,7.4-7.2,5.7-12,2.4C381.3,450.7,385.3,449.9,389.3,449.1z"/>
		<path class="st13" d="M463.4,676c1.6,0.8,3.1,1.6,4.7,2.4c2.4,4,4.7,8,7.1,12c4.4,5.2,8.6,10.4,13.1,15.5c5.9,6.7,12.6,9,20.6,3.4
			c3.9,2.5,7.9,4.8,11.6,7.7c15.6,12.3,30,26.7,47,36.7c28.3,16.6,57.7,31.7,87.8,45c19.3,8.5,40.5,12.7,60.9,18.8
			c12.9,2.9,25.8,5.8,38.7,8.7c0.1,5.1,0.1,10.2,0.2,15.2c0,0,0-0.1,0-0.1c-1.6-0.8-3.3-1.6-4.9-2.4c-10.6-1.8-21.5-3-31.9-5.7
			c-19-4.8-37.7-10.4-56.6-15.7c-10.1-4.2-20.4-8-30.3-12.6c-21.8-10.1-43.4-20.5-65.1-30.8c-2.6-2.4-5-4.9-7.8-7.1
			c-17.5-13.7-35.1-27.3-52.8-40.8c-0.4-0.3-2.6,1.8-3.9,2.8c-5.1-4.8-10.1-9.6-15.3-14.3c-10.8-9.8-16.2-25.6-32.5-29.3
			c-1.6-1.4-3.3-2.9-4.9-4.3C453.7,679.3,458.6,677.7,463.4,676z"/>
		<path class="st21" d="M448.9,681c1.6,1.4,3.3,2.9,4.9,4.3c-3.4,1-6.7,2-10.3,3.1c43.5,62.5,104.6,100,172.7,128.1
			c1.6,0.1,3.2,0.3,4.8,0.4c8.8,3.2,17.5,6.4,26.3,9.7c8.7,3.3,17.2,7.3,26.1,9.7c21.4,5.9,43,11,64.6,16.4c0,1.7,0,3.4,0,5.1
			c-21.9-4.8-44-9-65.7-14.6c-15.2-3.9-30.2-9.1-44.8-14.8c-22.8-8.8-45.4-18-67.7-27.8c-15.5-6.8-30.5-14.9-45.5-22.8
			c-3.4-1.8-6.1-4.9-8.8-7.7c-20-20.5-40.1-41-59.7-61.9c-5.2-5.5-8.6-12.7-13.9-20.7C437.7,685.2,443.3,683.1,448.9,681z"/>
		<path class="st7" d="M737.9,857.8c0-1.7,0-3.4,0-5.1c4-4.6,8.1-9.3,12.1-13.9c1.6,0.8,3.3,1.6,4.9,2.4c-5.5,7.5-11,15-16.5,22.4
			C738.2,861.7,738.1,859.7,737.9,857.8z"/>
		<path class="st22" d="M716.2,222.6c0.4,2.3,0.7,4.6,1.1,6.9c-3.2,1.4-6.3,3.3-9.7,4.2c-17.1,4.5-35,7.1-51.4,13.4
			c-45,17.3-90.6,32.9-131.4,60.1c-33,22-65.4,43.8-87.8,77.4c-1.5,1.6-2.9,3.2-4.4,4.8l-0.3,0.3c-1.6,1.4-3.3,2.8-4.9,4.3
			c-6.3-0.8-12.5-1.6-18.8-2.4c-0.4-2.8-2.2-7.1-1-8.3c13.6-13.9,27.2-27.7,41.7-40.7c33.4-29.9,71-53.4,111.9-71.9
			c47-21.3,95-39,145.7-49.3C710,221.9,713.1,222.2,716.2,222.6z"/>
		<path class="st21" d="M706.9,221.5c-50.6,10.3-98.7,28-145.7,49.3c-40.9,18.5-78.5,42-111.9,71.9c-14.4,12.9-28.1,26.8-41.7,40.7
			c-1.2,1.3,0.6,5.5,1,8.3c-4.9-1-9.9-2.1-12.1-2.5c8.9-10.6,17.2-20.7,25.7-30.7c4.9-5.8,9.5-12.2,15.2-17.1
			c24.4-20.8,48.3-42.5,74.3-61.3c14-10.1,31.5-15.6,47.8-22.2c24.8-10,49.7-20,75.2-28.4c19-6.2,39-9.5,58.4-14.7
			C700.6,212.7,704.4,215.1,706.9,221.5z"/>
		<path class="st10" d="M754.9,841.3c-0.1-5.1-0.1-10.2-0.2-15.2c1.2-2.4,2.1-5.1,3.8-7.2c20.2-25.4,40.7-50.6,60.8-76
			c11.4-14.3,22.1-29.1,33.6-43.3c9.1-11.3,18.5-22.4,28.3-33c10-10.7,20.7-20.8,31.1-31.2c-0.8,6.5-1.7,13-2.5,19.5
			c-3,1.2-6.9,1.6-9,3.8c-19.2,20.3-38.6,40.3-56.8,61.5c-9.7,11.3-16.3,25.2-25.3,37.2c-12.2,16.2-25.5,31.5-37.9,47.5
			C771.8,816.7,763.5,829.1,754.9,841.3z"/>
		<path class="st10" d="M788.6,848.9c-1.5-1.1-3-2.1-4.6-3.2c11.7-15.1,23.8-30,34.9-45.5c11.8-16.4,22.8-33.3,34.2-50
			c1.4,0.9,2.9,1.7,4.3,2.6c-2.3,4.7-4.6,9.4-7.1,14c-3.1,5.7-6.3,11.3-9.5,16.9c-14.3,18.6-28.5,37.3-42.9,55.9
			C795.4,843,791.8,845.8,788.6,848.9z"/>
		<path class="st23" d="M857.5,752.8c-1.4-0.9-2.9-1.7-4.3-2.6c14.8-24.2,29.6-48.4,44.3-72.6c1.5,1.3,3,2.6,4.5,3.9
			c-9.4,17.2-18.7,34.4-28.1,51.6C868.5,739.7,863,746.2,857.5,752.8z"/>
		<path class="st11" d="M902.1,681.5c-1.5-1.3-3-2.6-4.5-3.9c4.1-7.6,8.1-15.2,12.2-22.7c0.8-6.5,1.7-13,2.5-19.5
			c1.6-1.5,3.3-3.1,4.9-4.6c4,1.6,8.1,3.2,12.1,4.8C926.1,654.4,912.4,667,902.1,681.5z"/>
		<path class="st21" d="M1311.3,260.3c0-1.6,0-3.2,0-4.8c22.6,9.7,45.3,19.4,67.9,29.3c17.2,7.6,34.7,14.5,51,23.6
			c11.7,6.6,22.4,15.6,32.1,25c15,14.7,28.8,30.6,45.9,49c-7.8,2-12.6,3.3-17.4,4.5c-1.7-1.6-3.4-3.3-5-4.9
			c-1.3-3.1-1.9-6.9-4.1-9.1c-10.3-10.5-20.6-21.2-31.7-30.7c-8.8-7.5-18.9-13.4-28.5-20c-1.6-2.2-2.7-5.2-4.9-6.5
			c-18-10.7-35.8-21.7-54.3-31.5C1345.6,275.6,1328.3,268.3,1311.3,260.3z"/>
		<path class="st24" d="M1466.5,403.7c-6.4,0.8-12.7,1.6-19.1,2.4c-5.5-19.2-22.8-29.8-33.1-45.5c7.1-0.9,14.2-1.8,21.3-2.7
			c2,1.1,4.4,1.9,5.9,3.5c9.2,9.2,18.2,18.6,27.3,28c6,10.6,14.2,2.6,21.5,2.5c-3.6,2.4-7.1,5.1-10.9,7
			C1475.4,400.8,1470.9,402.1,1466.5,403.7z"/>
		<path class="st20" d="M1490.4,391.9c-7.3,0.1-15.5,8-21.5-2.5c5.6-2.4,11.2-4.8,16.8-7.3c1.7,1.6,3.4,3.3,5,4.9
			C1490.7,388.6,1490.5,390.2,1490.4,391.9z"/>
		<path class="st25" d="M922,879.7c9.5,0,19,0,28.5,0.1c-0.8,2.1-1.6,4.1-3,7.9c5.8-4.6,15.7,9.5,17.3-6.2c0,0,0.1,0,0.1,0
			c0.9,0,1.8,0.1,2.7,0.1c1.5,0,3.1,0,4.6,0c2.2,6.2,15.6,11.3,25.2,8.5c4-1.2,7.2-5.2,10.7-7.9c0,0,0.4-0.5,0.4-0.5
			c2.1-0.5,4.3-1.1,6.4-1.6c10.4-0.3,20.8-0.6,31.2-0.9c0.8-0.6,1.6-1.1,2.5-1.7c1.7,0,3.3,0,5,0c0.7,0,1.4,0.1,2.1,0.1
			c4.8-0.3,9.5-0.6,14.3-0.9c3.2-0.6,6.4-1.1,9.5-1.7c7.2-0.2,14.4-0.5,21.7-0.7c3.7,11.1,11.2,6.3,16.8,3.1
			c8.7-5,12.4-3.6,11.9,6.6c-43.1,4-86.2,8.8-129.4,11.7c-25.2,1.7-50.7,0.3-76,0.3c-48.9-0.5-97.7-3.2-145.6-14.3
			c-1.8-0.4-3.4-1.6-5.1-2.5c0.2-0.7,0.3-1.5,0.4-2.3c36.2,5.4,72.4,10.9,108.6,16.3c0.2-1.1,0.3-2.2,0.5-3.3
			c-8.5-1.3-17-2.6-25.6-3.9c9.2-6.6,17.8-7.6,29.2-2.7c6.8,2.9,17-2.3,25.7-3.9c1.6,0.1,3.2,0.1,4.8,0.2c0.8,1.1,1.6,2.2,2.4,3.3
			C920.4,881.9,921.2,880.8,922,879.7z"/>
		<path class="st5" d="M924.3,896c25.3,0,50.8,1.3,76-0.3c43.2-2.9,86.3-7.7,129.4-11.7c8.8-0.8,17.5-1.6,26.3-2.5
			c2.7,7.3,2,11.3-7.6,12.4c-36.1,3.9-72,9.8-108.1,12.6c-22.6,1.8-45.6-0.6-68.4-0.9c-12.4-0.2-24.9-0.3-37.3-0.1
			C927.8,905.7,923.8,903.4,924.3,896z"/>
		<path class="st20" d="M1156,881.6c-8.8,0.8-17.5,1.6-26.3,2.5c0.5-10.2-3.2-11.6-11.9-6.6c-5.6,3.2-13.1,8-16.8-3.1
			c10.4-1.6,20.8-3.2,31.1-4.8c3.6,0.6,7.2,1.2,10.8,1.8c11.5,1.8,23,3.7,34.4,5.5C1170.3,878.4,1163.1,880,1156,881.6z"/>
		<path class="st24" d="M1177.4,876.8c-11.5-1.8-23-3.7-34.4-5.5c-3.6-0.6-7.2-1.2-10.8-1.8c11.3-3.1,22.4-7.5,33.8-8.9
			c10.7-1.3,16.1,7.9,21,16.1C1183.8,876.8,1180.6,876.8,1177.4,876.8z"/>
		<path class="st5" d="M882.7,901.5c2.3,0.1,4.6,0.2,6.9,0.4c0,0.9-0.1,1.8-0.1,2.8c-2.3-0.1-4.6-0.2-6.9-0.3
			C882.6,903.3,882.6,902.4,882.7,901.5z"/>
		<path class="st16" d="M1031.7,640.4c2.9,2.7,6,5.3,8.6,8.3c3,3.4,5.5,7.1,8.3,10.7c-4.1,0.1-8.2,0.1-12.3,0.2
			c-6.3-8-12.6-16.1-19-24.1c2.9,0.5,5.8,0.9,8.7,1.4l0.1,0C1027.9,638,1029.8,639.2,1031.7,640.4L1031.7,640.4z"/>
		<path class="st16" d="M1048.5,659.4c5.1,3.8,10.2,7.7,15.4,11.5C1056.9,669.6,1049,669.4,1048.5,659.4z"/>
		<path class="st21" d="M1497.5,704.4c-0.2,3.9,0.3,8-0.7,11.7c-1.6,5.9-4.2,11.6-6.3,17.3c-24.8,16.8-49.2,34.2-74.6,50.1
			c-22,13.9-44.4,27.6-68,38.4c-20.2,9.3-42.3,14.8-63.7,21.3c-13.3,4-27,7.2-40.7,9.8c-2.5,0.5-5.8-3.4-8.7-5.2
			c0.8-0.8,1.6-1.5,2.4-2.3c13.3-3.5,27-6.1,39.8-10.8c24.7-9,49.3-18.5,73.4-29.1c22.7-10,45.9-19.8,66.5-33.3
			c27-17.7,54.1-36.3,73.7-63c0.7-0.6,1.3-1.3,2-1.9C1494.3,706.5,1495.9,705.5,1497.5,704.4z"/>
		<path class="st20" d="M1237.2,845.7c-0.8,0.8-1.6,1.5-2.4,2.3c-3.1,0-6.3,0.1-9.4,0.1c0-3.1-0.1-6.3-0.1-9.4
			c5.6-0.7,11.2-1.5,16.8-2.2C1240.4,839.6,1238.8,842.7,1237.2,845.7z"/>
		<path class="st26" d="M1366,671.2c15.5-2.3,31-5.3,46.6-6.7c5.5-0.5,11.4,2.4,16.9,4.3c10.9,3.9,21.7,6,32.5,0
			c2.2,0.8,4.5,1.6,6.7,2.5c-1.5,2.3-3,4.5-4.5,6.8c-0.7,0.9-1.4,1.8-2.1,2.7c-1.6,1.7-3.3,3.5-4.9,5.2
			c-12.8,13.4-25.6,26.8-38.5,40.2c-7.3-0.3-13.3,1.1-14.1,9.9c-7.2,5.4-14.4,10.9-21.6,16.3c-2.4,1.7-4.7,3.4-7.1,5.1
			c-1.6,0.8-3.2,1.6-4.7,2.4c-3.2,1.6-6.4,3.2-9.5,4.7c0,0,0.1-0.1,0-0.1c-7.2,0.4-16.3-2.6-16.9,9.6c-4.6,2.6-9.3,5.3-13.9,7.9
			c-11.3-6.2-31.1,1.5-33.9,13.2c-8,3.3-16,6.5-23.9,9.8c-1.5,0.6-3,1.3-4.6,1.9c-1.5,0.4-3.1,0.8-4.6,1.2c-1.7,0.6-3.4,1.2-5.1,1.8
			c-2.3,1-4.6,1.9-6.9,2.9c-2.8-0.8-5.9-2.7-8.4-2.1c-8.9,2.2-15.1-0.7-20.6-7.6c-2.3-2.9-6-4.8-9.1-7.1c-2.4-1.8-4.8-3.5-7.2-5.3
			c2.1-2.6,3.9-5.6,6.4-7.6c2.4-1.9,5.7-2.7,8.5-4.1c8-4,16-7.8,23.8-12c3.8-2,7-5.3,11-6.9c15.9-6.1,34.4-8.5,47.2-18.4
			c16.7-12.9,38.8-20.7,48.5-41.4c3.9-8.3,4.6-18.1,6.8-27.2C1361.3,672.6,1363.6,671.9,1366,671.2z"/>
		<path class="st25" d="M1237.2,845.7c1.6-3.1,3.2-6.2,4.8-9.2c14.3-3.4,27.7-8.3,36.1-21.5c22.3-8.8,44.6-17.5,66.8-26.5
			c11.2-4.6,22.5-9,33.1-14.8c12.9-7,25.9-14.4,37.5-23.4c17.3-13.4,34-27.8,49.9-42.8c9.3-8.7,16.7-19.5,25-29.3
			c6.8,1.9,13.6,3.8,21.7,6.1c-5.2,7.2-9.9,13.7-14.6,20.2c-1.6,1-3.2,2.1-4.8,3.1c-0.7,0.6-1.3,1.3-2,1.9
			c-19.7,26.7-46.7,45.2-73.7,63c-20.6,13.5-43.8,23.3-66.5,33.3c-24.1,10.7-48.7,20.1-73.4,29.1
			C1264.2,839.6,1250.5,842.2,1237.2,845.7z"/>
		<path class="st24" d="M1278.2,815c-8.4,13.3-21.8,18.1-36.1,21.5c-5.6,0.7-11.2,1.5-16.8,2.2c-3.1-3.2-6.3-6.4-9.4-9.6
			C1236.6,824.4,1257.4,819.7,1278.2,815z"/>
		<path class="st14" d="M1296.9,795.4c2.8-11.7,22.6-19.4,33.9-13.2C1319.5,786.6,1308.2,791,1296.9,795.4z"/>
		<path class="st14" d="M1344.8,774.3c0.6-12.1,9.7-9.2,16.9-9.6C1356,767.9,1350.4,771.1,1344.8,774.3z"/>
		<path class="st14" d="M1404.6,736.3c0.8-8.9,6.8-10.3,14.1-9.9C1414,729.6,1409.3,732.9,1404.6,736.3z"/>
		<path class="st14" d="M1361.6,764.8c3.2-1.6,6.4-3.2,9.5-4.7C1368,761.7,1364.8,763.2,1361.6,764.8z"/>
		<path class="st14" d="M1464.1,678.2c1.5-2.3,3-4.5,4.5-6.8C1467.1,673.6,1465.6,675.9,1464.1,678.2z"/>
		<path class="st14" d="M1375.9,757.7c2.4-1.7,4.7-3.4,7.1-5.1C1380.6,754.3,1378.2,756,1375.9,757.7z"/>
		<path class="st14" d="M1258.8,810c1.7-0.6,3.4-1.2,5.1-1.8C1262.1,808.8,1260.4,809.4,1258.8,810z"/>
		<path class="st14" d="M1457.1,686.1c1.6-1.7,3.3-3.5,4.9-5.2C1460.4,682.6,1458.8,684.4,1457.1,686.1z"/>
		<path class="st14" d="M1268.4,807.1c1.5-0.6,3-1.3,4.6-1.9C1271.5,805.8,1270,806.4,1268.4,807.1z"/>
		<path class="st27" d="M902.1,681.5c10.3-14.6,24-27.1,27.2-45.9c1.4-1.1,3.4-1.9,4.3-3.3c5.8-9.9,11.4-20,17-30.1
			c5.6-1.7,11.3-3.3,16.9-5c6.9,2.5,13.9,5,20.8,7.5c2.6,3.8,5.2,7.7,7.8,11.5c4.8,7.1,9.6,14.2,14.4,21.2
			c10.5,15.7,21,31.4,31.5,47c9,13.3,17.5,26.9,27.2,39.6c15.4,20.2,31.7,39.6,47.4,59.6c13.3,16.9,26.1,34.2,39.2,51.3
			c3.3,4.3,6.8,8.3,9.8,12.7c0.9,1.3,0.3,3.6,0.3,5.4c-2.2-0.6-4.6-2.1-6.6-1.8c-36.4,5.5-72.7,11.3-109,17.1
			c-1.5,0.2-3,1.1-4.4,1.6c-27,0.8-54,1.6-81.1,2.4c-17.4-0.9-34.8-1.3-52.1-3c-31.5-3.2-63-7.1-94.4-10.9c-8.2-1-16.5-1.9-24.6-3.6
			c-2-0.4-3.5-3.8-5.2-5.9c3.2-3.1,6.7-5.9,9.4-9.4c14.4-18.5,28.6-37.2,42.9-55.9c7.2-1.1,14.5-2.2,21.7-3.4
			c0.6,0.2,1.2,0.5,1.8,0.8c3.4,3.2,6.7,6.4,10.1,9.6c9.1-1.7,18.2-3.4,27.3-5.1c0.9-1.5,1.8-3,2.7-4.6c-3.1-1.5-6.1-3.1-9.2-4.6
			c-3-3.5-5.4-8.3-9.2-10.1c-5-2.4-11-2.4-16.6-3.4c0.7-2.5,0.6-6.5,2.2-7.3c8.1-4.2,8.5-8.9,3-15.6c-1.2-1.5-0.5-4.5-0.7-6.9
			C883.4,715.9,892.7,698.7,902.1,681.5z M931.1,728.8c-10-3.6-10-3.6-16.5,4.2c15.6,16.1,30.4,17.3,51.8,2.4
			c-11.1-1.7-17.6-13.5-29.5-6.6C935,728.9,933,728.9,931.1,728.8z M1034.1,809.8c6.9-7.2,13.7-14.4,20.6-21.6
			c-0.7-1.6-1.3-3.1-2-4.7c-5.4-0.5-10.8-1-16.1-1.5c-5.1-1.8-10.3-5-15.4-5.1c-31.4-0.5-62.8-0.8-94.2-0.1
			c-14.2,0.3-17.6,9.8-11,22.7c13,25.1,38.3,34.2,60.3,47.4c2.1,1.3,6.2,1.8,7.9,0.6c14.4-10,28.5-20.5,42.7-30.8
			c1.7-1.4,3.3-2.9,5-4.3C1032.6,811.5,1033.4,810.7,1034.1,809.8z M970.7,666.7c-6.6,1.1-13,1.6-18.9,3.6c-2.5,0.8-5.6,4.5-5.8,7.1
			c-0.3,4.2,0,10.4,2.6,12.7c9.2,8,30.7,7.3,39.8-0.2c7.9-6.5,6.6-17-2.9-20.3C980.7,667.9,975.5,667.6,970.7,666.7z M1085,777.4
			c0.2,1.1,0.4,2.2,0.7,3.3c3.4-2.2,6.7-4.3,12.5-8c-10.5-4.7-18.9-8.5-25.6-11.4c-5.7,7.9-9.5,13.1-14,19.4
			C1067.9,779.5,1076.5,778.5,1085,777.4z M852.1,823.7c4.3,1.3,7.3,3,10.1,2.9c5.6-0.3,11.2-1.8,16.8-2.7c-0.8-2-1.7-5.7-2.4-5.6
			c-6.6,0.3-13.3,1-19.9,2C855.5,820.4,854.4,822,852.1,823.7z"/>
		<path class="st20" d="M912.3,879.5c-8.7,1.6-18.9,6.8-25.7,3.9c-11.4-4.9-20-3.9-29.2,2.7c-22.9-3.7-45.9-7.5-68.8-11.2
			c0.1-1.2,0.2-2.5,0.3-3.7c2.1-0.6,4.2-1.2,6.2-1.8c19.6,0.9,39.3,1.3,58.9,3C873.6,874,893,877.1,912.3,879.5z"/>
		<path class="st24" d="M795.2,869.3c-2.1,0.6-4.2,1.2-6.2,1.8c-0.1,1.2-0.2,2.5-0.3,3.7c22.9,3.7,45.9,7.5,68.8,11.2
			c8.5,1.3,17,2.6,25.6,3.9c-0.2,1.1-0.3,2.2-0.5,3.3c-36.2-5.4-72.4-10.9-108.6-16.3c2.8-2.3,5.7-4.6,8.5-6.9
			c-0.4-1.1-0.9-2.2-1.3-3.4C785.9,867.6,790.6,868.5,795.2,869.3z"/>
		<path class="st20" d="M1008,882.2c-3.6,2.7-6.7,6.7-10.7,7.9c-9.6,2.8-23-2.3-25.2-8.5C984.1,881.8,996,882,1008,882.2z"/>
		<path class="st21" d="M965,872.2c27-0.8,54-1.6,81.1-2.4c-13.9,1.2-27.9,2.6-41.8,3.6c-9.3,0.6-18.7,0.9-28,0.9
			C972.4,874.3,968.7,873,965,872.2z"/>
		<path class="st20" d="M964.7,881.4c-1.6,15.7-11.4,1.6-17.3,6.2c1.4-3.7,2.2-5.8,3-7.9C955.2,880.3,960,880.8,964.7,881.4z"/>
		<path class="st20" d="M1079.4,875.1c-3.2,0.6-6.4,1.1-9.5,1.7C1073,876.2,1076.2,875.6,1079.4,875.1z"/>
		<path class="st20" d="M922,879.7c-0.8,1.1-1.6,2.3-2.4,3.4c-0.8-1.1-1.6-2.2-2.4-3.3C918.7,879.7,920.4,879.7,922,879.7z"/>
		<path class="st20" d="M1014.8,880.1c-2.1,0.5-4.3,1.1-6.4,1.6C1010.5,881.2,1012.7,880.7,1014.8,880.1z"/>
		<path class="st20" d="M1048.4,877.5c-0.8,0.6-1.6,1.1-2.5,1.7C1046.8,878.6,1047.6,878.1,1048.4,877.5z"/>
		<path class="st20" d="M1055.5,877.6c-0.7,0-1.4-0.1-2.1-0.1C1054.1,877.3,1054.9,877.3,1055.5,877.6z"/>
		<path class="st20" d="M967.4,881.6c-0.9,0-1.8-0.1-2.7-0.1C965.7,881.5,966.6,881.5,967.4,881.6z"/>
		<path class="st15" d="M1241.9,633.2c32.7,0.9,65.5,1.8,98.2,2.6c0,3,0,6,0,9.1c-14.6-1.4-29.2-2.7-43.8-4
			C1278.1,638.3,1260,635.7,1241.9,633.2z"/>
		<path class="st19" d="M917.2,630.8c-1.6,1.5-3.3,3.1-4.9,4.6c-10.4,10.4-21.1,20.4-31.1,31.2c-9.9,10.6-19.2,21.7-28.3,33
			c-11.4,14.2-22.2,29-33.6,43.3c-20.2,25.4-40.6,50.6-60.8,76c-1.7,2.1-2.5,4.8-3.8,7.2c-12.9-2.9-25.8-5.8-38.7-8.7
			c7,1,14,2.9,20.9,2.6c5.8-0.3,12.7-1.8,16.8-5.3c4.8-4.1,9.1-10.7,10.1-16.8c1.4-8.8-0.4-18.2-0.8-27.3c-1.2-0.1-2.4-0.2-3.6-0.3
			c-1.2,1.3-2.4,2.6-3.6,3.9c-1.1-2.2-2.1-4.4-3.1-6.6c-0.4,1.2-0.7,2.3-1.1,3.5c-9.3-0.6-18.9-0.3-28-2.1
			c-11.1-2.2-22-5.8-32.7-9.5c-3-1-5.2-4.5-7.8-6.9c2.4-0.8,4.7-1.6,7.1-2.4c15.6,0.7,31.5,5.4,46-0.4c-1.2-5.6-2.8-9.3-2.5-12.8
			c0.7-11.5,3.1-23,2.8-34.5c-0.1-4.2-5.8-11.9-9-11.9c-38.8-0.8-77.6-0.5-118.3-0.5c3.1,5.2,5.1,8.7,7.2,12.2
			c-1.6,3.2-3.2,6.5-4.9,9.7c-13.8-8.7-15.1-11.9-10.8-26.4c0.7-2.2,0.8-4.6,1.2-6.9c2.3-0.2,6.2,0.2,6.7-0.8
			c4.3-10.1,11.7-5.3,18.4-4.3c1.9,0.3,3.9,0.1,5.8,0.1c3.4-3.8,6.8-7.7,10.1-11.5c-1-1.3-1.9-2.6-2.9-4c-6.3,2-12.6,3.9-18.9,5.9
			c-0.8-0.3-1.6-0.5-2.5-0.8l0.1-1.1c-3.2-1-6.4-2.1-9.6-3.1c7.1-3.8,14.3-7.6,21.4-11.4c5.6-1.4,11.1-2.8,16.7-4.2
			c1.7-0.4,3.3-0.9,5-1.3c10.4-2.2,20.8-4.3,31.2-6.5c32.6-6.3,65.2-12.7,97.8-19c27.8-3.4,55.6-6.9,83.4-10.3c16-2,32-4,48-6
			c-0.8,1.9-1.5,3.7-2.2,5.2c9.7-0.5,19-0.9,28.2-1.4C931.5,613.1,924.3,622,917.2,630.8z M755.9,662.8c5,0.3,10,0.5,18.5,0.9
			c-5.5-4.1-8-5.9-10.3-7.7c2.8-1.3,4.8-2.3,8.1-3.8c-16.3-3.9-16.7-3.6-17.7,9.2c-4.7,3.1-9.3,6.2-14,9.3c1.1,1.3,2.1,2.6,3.2,3.9
			C747.7,670.7,751.8,666.7,755.9,662.8z M820.8,655.9c7.7,0.4,15,2.2,21.4,0.6c6.6-1.7,12.7-6.3,17.9-10.8c1.3-1.1-1.4-7-2.3-10.7
			c-0.5-2.2-1-4.4-2-8.6c-15.7,2.1-30.9,4.2-50,6.8C812.6,643.6,817,650.2,820.8,655.9z M788.2,752.3c8-0.2,17.9-9.9,16.2-16.8
			c-2.1-8.3-8.6-11.4-17.1-9.9c-2.7,0.5-6.3-0.4-8.1,1c-4.6,3.6-8.4,8.2-12.5,12.5c4.3,3.8,8.2,8.1,12.9,11.3
			C782,752.1,785.7,751.8,788.2,752.3z M773,681.1c-0.2-0.9-0.4-1.9-0.6-2.8c4.5-2.5,9.1-5,13.5-7.5c-9.6,0-18.8,0-31.1,0
			c5.9,6.6,10.7,12,16.7,18.9c6.2,0,15.5,0,27.4,0c1.5-2.8,4.2-8,8.5-16.1C793.2,676.7,783.1,678.9,773,681.1z M714.9,676
			c14.4,5.4,19.3,1,20.9-12.1C728.6,668.1,722.9,671.4,714.9,676z"/>
		<path class="st10" d="M683.4,635.7c-10.4,2.2-20.8,4.3-31.2,6.5c0-1.5,0-3,0-4.4c0-0.7,0-1.4,0-2.1
			C662.5,635.7,672.9,635.7,683.4,635.7z"/>
		<path class="st26" d="M745.1,277.1c1.6,0.6,3.2,1.2,4.7,1.8c0,0,0.5,0.8,0.5,0.8c1.4,2.1,2.9,4.2,4.3,6.4c1,4,2.1,8,3.1,12
			c-3.4,3.2-6.8,6.4-10.2,9.6c-0.8,0.2-1.5,0.3-2.3,0.3c-11.2-6.9-22.3-6-33.4,0.2c-1.8,2.4-3.5,4.8-5.3,7.1
			c-10,4.6-20.1,6.7-30.8,2.4c-0.8-0.1-1.5-0.3-2.3-0.5c-7.2-4.6-13.7-4.3-19.2,2.9c-0.3,0.4-0.6,0.5-1.1,0.4
			c-8.3-0.1-16.8-0.8-20,9.7l0.2,0.3c-3.8,0.7-8.2,0.4-11.2,2.3c-14.4,9.3-28.9,18.6-42.6,28.9c-7.7,5.8-14.4,13.3-20.5,20.8
			c-2.2,2.7-1.2,7.9-1.7,12c3.4-0.5,6.8-0.9,10.2-1.6c2-0.4,4-2.1,5.9-2.1c19.3,0.2,38.6,0.3,57.9,1c6.7,0.2,17.6-0.2,19.1,3
			c3.9,8.8,10.7,4.8,15.9,6.8c5.3,9.6,12.4,2.3,18.7,2c7.2-0.3,15,4.7,21.4-3.6c0.9-1.1,8.1,2.7,12.4,4.2c-4,2.2-8,4.3-12,6.5
			c0.2,0.7,0.4,1.5,0.7,2.2c10.1-0.7,20.1-1.3,30.2-2c4,0.7,8,1.8,11.9,1.9c1.6,0,3.2-2.5,4.8-3.8c-1.5-1.8-3.1-3.6-4.6-5.4
			c-4.6-2.6,4-13.3-7.2-11.8c-4.6-6.3-2.5-8.7,4.8-9.7c6.8-1,16,0.5,16.5-10.7c2.4-0.5,4.8-1,7.2-1.5c3.6-0.3,7.2-0.6,10.9-0.8
			c-1.1-1.2-2.2-2.4-3.3-3.6c-8.3,0.7-16.7,1.7-25,1.9c-4.6,0.1-9.2-1.1-13.8-1.7c-5.5-6.4-11.1-12.7-16.6-19.1
			c24.2-21.9,43.6-19.2,62.5-0.2c14.3,14.4,25.2,32.2,37.6,48.5c0.2,0.3,0.5,0.6,0.7,0.9c3.2,5.6,3.4,9.1-4.7,10.6
			c-9,1.6-17.6,4.9-26.4,7.5c-4.4,3.9-8.8,7.8-15,13.4c0.7,3.8,1.7,9.8,2.8,15.7c-2.4,2.1-4.6,5.4-7.4,6.1
			c-9.5,2.4-19.2,3.8-28.8,5.6c-35.8-6.2-71.6-12.7-107.5-18.4c-50.8-8-101.7-15.4-152.6-23.1c-3.1-0.5-6.2-1.2-9.3-1.9
			c-20.3-4.7-22-8.4-12.3-26.6c10.5-11,20.1-23.3,31.9-32.7c17.6-14.1,36.1-27.4,55.5-39c21.9-13,44.3-26.2,68.1-34.8
			c32.9-11.8,67.2-19.4,101-28.9c1.2-0.1,2.3-0.3,3.5-0.4c1.8,0.2,3.6,0.4,5.4,0.6c4.1,7.4,8.2,14.8,12.3,22.2
			C742.2,273.5,743.6,275.3,745.1,277.1z M560.6,419.6c3.6,0,9.6,0,14.5,0c0.7-6,1.2-11.1,2.2-19.3c-5.4,2.2-10.6,2.9-13.2,5.8
			C561.6,409,561.9,414.2,560.6,419.6z"/>
		<path class="st19" d="M742.8,391.8c11.2-1.5,2.6,9.2,7.2,11.8c-3.3-0.6-6.5-1.2-9.8-1.8c-0.6-0.3-1.3-0.5-2-0.6
			c-4.1,0-8.2,0-12.2,0c-2.3,1-4.6,2-6.9,3c-4.3-1.5-11.6-5.3-12.4-4.2c-6.4,8.3-14.2,3.2-21.4,3.6c-3.1-3.9-6.2-7.8-9.3-11.8
			c10.3-1,20.7-2,30.5-3c-3.9-10.6-6.6-18.1-9.4-25.6c-2.2-2.4-4.4-4.7-6.6-7.1c3.2-11.7-8.3-12.7-12.3-17.1
			c-0.9-8-1.7-14.7-2.4-21.4c10.7,4.3,20.8,2.2,30.8-2.4c14.9,16,28.8,18.3,50.7,7.5c-3.4-5.2-6.5-10.2-9.7-15.1
			c3.4-3.2,6.8-6.4,10.2-9.6c8.5,10.7,17.2,21.4,25.6,32.2c7.3,9.4,13.8,19.5,21.5,28.6c16.2,19.1,32.9,37.7,49.3,56.5
			c3.5,4,6.9,8.1,10.3,12.2c5.8,8.7,11.6,17.4,17.3,26.1c-4.3,1.3-8.6,3.8-13,3.9c-29,0.4-58.1,0.4-87.1,0.5
			c-5,0.1-10.1,0.2-15.1,0.3c-7.1-0.7-14.2-1.4-21.3-2.2c-0.2-0.5-0.4-1-0.6-1.5c9.6-1.8,19.3-3.2,28.8-5.6c2.8-0.7,4.9-4,7.4-6.1
			c14.4,0.7,28.9,1.4,44.7,2.1c-1.4-4.2-2.2-6.6-2.4-7.2c3.1-3.3,6.8-5.5,7.4-8.3c0.8-3.9-18-16.1-22.2-15.7c-5,0.5-10.2,0.1-15.2,0
			c8.8-2.6,17.4-5.9,26.4-7.5c8.1-1.4,7.9-4.9,4.7-10.6c-0.2-0.3-0.5-0.6-0.7-0.9c-12.4-16.3-23.3-34.1-37.6-48.5
			c-18.9-19.1-38.3-21.7-62.5,0.2c-0.8,3-3.1,7.9-2.1,8.7c4.9,4.1,10.7,7.1,16.1,10.5c0,3.9,0,7.9,0,11.8c-4.3,0.6-8.6,1.2-12.8,1.8
			c-0.4,0.9-0.7,1.9-1.1,2.8C730,385.3,736.4,388.5,742.8,391.8z M714.1,343.9c0.2-0.3,0.5-0.6,0.7-0.9c-0.2,0.3-0.4,0.7-0.6,1
			c-0.2,0.3-0.3,0.6-0.5,0.9C713.8,344.6,713.9,344.2,714.1,343.9z"/>
		<path class="st24" d="M719.5,249.2c-33.7,9.4-68.1,17-101,28.9c-23.8,8.6-46.2,21.8-68.1,34.8c-19.4,11.5-37.9,24.8-55.5,39
			c-11.8,9.5-21.3,21.7-31.9,32.7c-1.9,0.6-4.5,0.6-5.4,1.9c-8.1,11-14.4,6.9-20.5-1.9c22.4-33.7,54.8-55.5,87.8-77.4
			c40.8-27.2,86.4-42.8,131.4-60.1c16.4-6.3,34.2-8.9,51.4-13.4c3.4-0.9,6.5-2.7,9.7-4.2c3.7,4.7,7.4,9.4,11.2,14.1
			c0.1,0.8,0.1,1.5,0,2.3c-3,1-6,1.9-9,2.9L719.5,249.2z"/>
		<path class="st15" d="M745.3,456.1c7.1,0.7,14.2,1.4,21.3,2.2c-8.8,1.7-17.6,3.4-26.4,5.1c-14.9,0-29.8,0-44.7,0.1
			c-2.9-1.5-5.7-4.1-8.6-4.2c-9.2-0.5-18.5,0-27.8,0.1c-2.7-3.4-5.1-7-8.1-10.1c-2.5-2.6-5.6-4.7-8.5-7c19.4,3.3,38.7,7,58.2,9.7
			C715.4,454,730.4,454.8,745.3,456.1z"/>
		<path class="st24" d="M432.7,389.5c1.1,0.7,2.2,1.5,3.3,2.2c-0.5,0.5-0.9,0.9-1.4,1.4c-0.7-1.1-1.5-2.2-2.2-3.3
			C432.4,389.8,432.7,389.5,432.7,389.5z"/>
		<path class="st15" d="M1010.6,637.4c-4.8-7.1-9.6-14.2-14.4-21.2c3.9,0.9,7.8,1.7,11.8,2.6l0.1,0.1c2.4,5.5,4.8,11.1,7.2,16.6
			C1013.6,636.1,1012.1,636.7,1010.6,637.4z"/>
		<path class="st28" d="M1015.2,635.4c-2.4-5.5-4.8-11.1-7.2-16.6c6,6,12,12,18,18c-2.9-0.5-5.8-0.9-8.7-1.4c0,0-1,0-1,0
			S1015.2,635.4,1015.2,635.4z"/>
		<path class="st26" d="M776.2,210.5c5.5-2.5,10.9-6.5,16.6-7.2c62.6-7.9,125.5-12.5,188.6-9.6c27.2,1.2,54.4,4.2,81.5,7.4
			c28.6,3.4,57.1,8,85.6,12.2c-8.5,11-16.9,22-25.5,32.8c-3.2,4.1-6.8,7.9-10.2,11.9c-15.1,6.3-30.1,12.6-45.2,19
			c-7.1-0.6-14.3-1.2-21.4-1.7c-3-11-13.6-11.1-21.5-14.9c-2.5-8.4-7-14.4-16.8-14.3l0,0c-0.3-14.7-12.2-14.2-21.9-16.6
			c-8.6-3.9-17.2-7.9-25.9-11.8c-1.8-1.2-4.2-3.8-5.4-3.3c-8,3.1-16.2,6.1-23.4,10.7c-3.4,2.2-4.7,7.7-7,11.7c0,0,0,0,0,0
			c-4,3.2-8,6.4-12,9.6c-0.1,1.4-0.1,2.9-0.2,4.3c-3.5,3.1-7,6.2-10.5,9.3c-0.6,0.2-1,0.6-1.2,1.2c-1.4,1.5-2.9,2.9-4.3,4.4
			c0,0-0.7-0.3-0.7-0.3c-5.6,2.5-11.2,5-16.8,7.5c-4.8-1.7-9.5-3.4-14.3-5.1c-4.1,0.9-8.1,1.7-7.1-4.8c1.4-1.7,2.9-3.4,4.3-5.2
			c-0.4-0.6-0.8-1.2-1.2-1.7c-11.2,3.4-22.4,6.8-33.5,10.1c-5.9-1.8-11.8-3.5-17.7-5.3c0,0,0.1,0.1,0.1,0.1
			c-1.6-3.2-3.2-6.5-4.8-9.7c0,0,0.1,0.1,0.1,0.1c-1.5-1.7-3.1-3.4-4.6-5.1C792.1,234.2,784.1,222.3,776.2,210.5z"/>
		<path class="st29" d="M809.3,260.6c5.9,1.8,11.8,3.5,17.7,5.3c4.9,1.9,9.8,3.8,15.2,5.9c0,0.5,0.1,1.6-0.2,2.6
			c-3.8,12.6,6.1,11.8,13.3,13.6c0.2,0.1,0.8-1.1,1.5-2.2c-2.3-1-4.4-2-6.7-3c2.4-0.9,4.5-1.7,6.6-2.4c-1.2-0.5-2.4-1-3.6-1.5
			c1.4-5.4,2.8-10.8,4.2-16.2c-1,6.6,3,5.8,7.1,4.8c-0.6,6.1-1.2,12.2-1.8,18.2c1.1,0.5,2.2,1,3.2,1.4c4.3-4.8,8.6-9.7,12.8-14.5
			c5.6-2.5,11.2-5,16.8-7.5c1.2,6.1-7.8,16.7,7.3,16.5c0,3.2,0.1,6.4,0.1,9.6c-4-1.1-8.1-3.1-12.1-3.1c-4,0-7.9,2-11.9,3.1
			c-4.4,0.1-9-0.7-13,0.5c-3.8,1.1-9.3,3.5-3.4,9.1c-10.9,10.5-10.3,22.2,3.7,37.5c10.3,11.3,15.6,23.9,15.1,39l-0.8,0.7
			c-10.4-16.3-20.9-32.6-31.2-49c-10-16.1-19.9-32.2-29.6-48.5C816,274.1,812.8,267.3,809.3,260.6z"/>
		<path class="st29" d="M989,434.9c-4.1,7.1-8.1,14.3-12.2,21.4c-13,0.2-25.9,0.4-38.9,0.6c-10-11.6-20.1-23-30-34.7
			c-2.7-3.1-4.8-6.8-7.1-10.2c-1.7-4.4-3.4-8.8-5-13.2l0.2-0.2c1.7,1.4,3.8,2.6,5.2,4.3c12.9,15.9,24,34.1,47.2,37
			c12.4,1.5,25.7,10.5,36.1-4.6C985,434.5,987.4,435,989,434.9z"/>
		<path class="st29" d="M895.7,398.9c-5-7-10-13.9-15.1-20.9c0,0,0.8-0.7,0.8-0.7c4.8,7.1,9.7,14.2,14.5,21.3L895.7,398.9z"/>
		<path class="st29" d="M804.5,251c1.6,3.2,3.2,6.5,4.8,9.7C807.7,257.5,806.1,254.2,804.5,251z"/>
		<path class="st29" d="M800,246c1.5,1.7,3.1,3.4,4.6,5.1C803.1,249.4,801.5,247.7,800,246z"/>
		<path class="st15" d="M1026,636.8c-6-6-12-12-18-18c0,0-0.1-0.1-0.1-0.1c-1.6-4.1-3.1-8.1-4.7-12.2c5.4,4.1,11,8,16.1,12.5
			c7.7,6.8,14.9,14.1,22.3,21.3c-3.3,0-6.6,0.1-9.9,0.1c0,0,0,0,0,0C1029.8,639.2,1027.9,638,1026,636.8L1026,636.8z"/>
		<path class="st26" d="M1414.3,360.6c10.3,15.7,27.6,26.3,33.1,45.5c-15,2.5-29.9,4.9-44.9,7.4c-1.7,0.6-3.5,1.1-5.2,1.7
			c-1.6,0.2-3.2,0.4-4.8,0.6c-11.1,2.2-22.3,4.3-33.4,6.5c-1.6,0.2-3.2,0.4-4.8,0.6c-3.5-1-7-1.9-10.4-2.8
			c-1.3-4.7-2.5-9.5-3.8-14.2c-3.6-2.1-6.9-5.5-10.7-6.2c-5.8-1-12-0.1-18-0.1c-1.6-3.2-3.3-6.5-4.9-9.7c6.4-1.7,12.8-3.4,19.5-5.2
			c-25-35.7-60.9-52.6-100.1-64.3c-1.5,0.2-3.2,0.1-4.6,0.7c-10.3,4.5-19.7,5.1-26.7-5.8c-0.5-0.4-1-0.7-1.6-0.9
			c-2.8-2.2-5.6-4.4-8.3-6.6c-4.8-2.3-9.6-4.5-14.3-6.8c-1.6-1.6-3.2-3.2-4.8-4.8c1.6-6.4,3.1-12.8,4.7-19.2
			c0.8-1.6,1.6-3.2,2.4-4.9c9-4.8,18.1-9.7,27.1-14.5c14.1,3.6,28.2,7.1,42.3,10.7c1.6,0.6,3.1,1.3,4.7,1.9
			c27.4,10.9,56.1,19.5,82,33.3c28.1,15,53.5,34.8,80.1,52.6c1.8,1.4,3.6,2.8,5.4,4.3C1414.1,360.3,1414.3,360.6,1414.3,360.6z"/>
		<path class="st13" d="M1408.7,356.1c-26.6-17.7-52.1-37.6-80.1-52.6c-25.9-13.8-54.5-22.4-82-33.3c-1.6-0.6-3.1-1.3-4.7-1.9
			c-14.1-3.6-28.2-7.1-42.3-10.7c-5.8-0.6-11.6-1.2-17.4-1.8c3.1-3.3,6.3-6.6,9.4-9.9c4.1,0,8.1,0,12.2,0
			c18.3,4.8,36.6,9.5,54.9,14.3c1.7,0.8,3.4,1.8,5.1,2.5c23.9,8.9,48.6,16.4,71.7,27.1c23,10.7,44.4,24.8,66.5,37.4
			c2.9,3,5.6,6.3,8.8,9.1c8.2,7.3,16.6,14.4,24.9,21.5c-7.1,0.9-14.2,1.8-21.4,2.7c0,0-0.2-0.3-0.2-0.3
			C1412.3,358.9,1410.5,357.5,1408.7,356.1z"/>
		<path class="st29" d="M1136.8,355.9c-19.7-5.7-20.9-3.5-40.6,21.3c-8.6,10.8-12.5,25.7-28.7,28.8c5.6-7.7,11-15.6,16.9-23
			c17.7-22.2,35.7-44.2,53.6-66.3c0.7,0.5,1.4,1,2.2,1.5c2.9,0.8,5.8,1.5,8.7,2.3c-2.7,2.5-5.2,5.4-8.2,7.5
			c-9.1,6.6-11.8,14.1-3.7,23.3C1136.9,352.9,1136.9,354.4,1136.8,355.9z"/>
		<path class="st29" d="M1165.5,296.2c1.6,1.6,3.2,3.2,4.8,4.8c0,2.3,0,4.5,0,6.8c-10.1,3.5-20.1,7-30.2,10.5
			c-0.7-0.5-1.4-1-2.2-1.5c6-7.7,12-15.3,18-22.9C1159.2,294.6,1162.4,295.4,1165.5,296.2z"/>
		<path class="st19" d="M1182.3,255.9c5.8,0.6,11.6,1.2,17.4,1.8c-9,4.8-18,9.7-27.1,14.5C1175.8,266.7,1179,261.3,1182.3,255.9z"/>
		<path class="st19" d="M1165.5,296.2c-3.2-0.8-6.3-1.6-9.5-2.4c0.1-0.8,0.2-1.6,0.3-2.4c1.5-1.4,3-2.8,4.4-4.3
			c3.1-3.4,6.3-6.8,9.4-10.2C1168.7,283.4,1167.1,289.8,1165.5,296.2z"/>
		<path class="st29" d="M1067.6,406c-0.7,12.6-4.9,16.5-14.7,13.8C1057.8,415.2,1062.7,410.6,1067.6,406z"/>
		<path class="st29" d="M1160.8,287.1c-1.5,1.4-3,2.8-4.4,4.3C1157.9,290,1159.3,288.6,1160.8,287.1z"/>
		<path class="st3" d="M740.2,463.4c8.8-1.7,17.6-3.4,26.4-5.1c5-0.1,10.1-0.2,15.1-0.3c13.1,0.1,26.3,0.1,39.4,0.3
			c23.4,0.3,46.7,0.8,70.1,1.2c14.3,0.1,28.6,0.2,42.8,0.3c3.8,0.4,7.6,0.9,11.4,1.3c-9,8.9-18,17.7-26.9,26.6c-1,1-1.6,2.6-2.4,3.9
			c-11.4,11-23.2,21.6-34.2,33.1c-18.6,19.5-36.8,39.5-55,59.4c-2.2,2.3-3.5,5.5-5.2,8.2c0.6,3.4,1.2,6.8,1.7,9.2
			c-3.5,3-6.3,5.3-9,7.7c-1.5,0.2-3.1,0.3-4.6,0.5c-7.8-6.8-15.2-8.8-21.7,1.6c-2.4,0.9-4.8,1.9-7.1,2.8c-19,0-37.9,0-56.9,0
			c-0.8-1-1.5-2-2.3-2.9c40.6-45.9,81.1-91.9,123.5-139.8c-19,0-35.4-2.8-50.4,0.8c-14,3.4-26.5,13.2-39.5,20.6
			c-7.5,4.3-14.5,9.6-22.1,13.9c-2.3,1.3-5.8,0.4-8.8,0.5c0.9-2.5,1.6-5.2,2.9-7.5C734.1,488.3,740.9,477.2,740.2,463.4z"/>
		<path class="st18" d="M891.1,459.5c-23.4-0.4-46.7-0.8-70.1-1.2c-13.1-0.2-26.3-0.2-39.4-0.3c29-0.1,58.1,0,87.1-0.5
			c4.4-0.1,8.7-2.5,13-3.9C884.9,455.6,888,457.5,891.1,459.5z"/>
		<path class="st18" d="M945.4,461.1c-3.8-0.4-7.6-0.9-11.4-1.3c1.3-1,2.6-1.9,3.9-2.8c13-0.2,25.9-0.4,38.9-0.6
			c-6,0.8-12,1.5-18,2.4C954.3,459.4,949.9,460.3,945.4,461.1z"/>
		<path class="st12" d="M754.6,286c-1.4-2.1-2.9-4.2-4.3-6.4C751.8,281.8,753.2,283.9,754.6,286z"/>
		<path class="st25" d="M1402,327.3c-22.1-12.6-43.5-26.7-66.5-37.4c-23.1-10.8-47.7-18.2-71.7-27.1c-1.8-0.7-3.4-1.6-5.1-2.5
			c3.2-4.7,6.4-9.4,9.5-14.1c14.3,4.7,28.6,9.4,43,14.2c17,7.9,34.3,15.3,50.9,24c18.5,9.8,36.4,20.7,54.3,31.5
			c2.2,1.3,3.3,4.3,4.9,6.5C1414.9,324,1408.5,325.6,1402,327.3z"/>
		<path class="st20" d="M1268.3,246.2c-3.2,4.7-6.4,9.4-9.5,14.1c-18.3-4.8-36.6-9.5-54.9-14.3c-0.8-2.4-2.9-6.6-2.3-7
			c4.3-3,9.8-8.2,13.7-7.4C1233.2,235.5,1250.7,241.2,1268.3,246.2z"/>
		<path class="st19" d="M1359.2,422.2c11.1-2.2,22.3-4.3,33.4-6.5C1381.4,417.9,1370.3,420.1,1359.2,422.2z"/>
		<path class="st19" d="M1397.4,415.2c1.7-0.6,3.5-1.1,5.2-1.7C1400.9,414.1,1399.1,414.6,1397.4,415.2z"/>
		<path class="st26" d="M683.1,752.6c2.6,2.4,4.8,5.9,7.8,6.9c10.7,3.7,21.6,7.3,32.7,9.5c9.1,1.8,18.6,1.4,28,2.1
			c0.4-1.2,0.7-2.3,1.1-3.5c1,2.2,2.1,4.4,3.1,6.6c1.2-1.3,2.4-2.6,3.6-3.9c1.2,0.1,2.4,0.2,3.6,0.3c0.4,9.1,2.2,18.5,0.8,27.3
			c-1,6.1-5.3,12.7-10.1,16.8c-4.2,3.6-11.1,5.1-16.8,5.3c-6.9,0.3-13.9-1.6-20.9-2.6c-20.4-6.1-41.6-10.3-60.9-18.8
			c-30-13.3-59.4-28.4-87.8-45c-17-10-31.3-24.4-47-36.7c-3.6-2.8-7.7-5.1-11.6-7.7c0-0.7-0.2-1.4-0.5-2.1c-2.2-2.4-4.4-4.9-6.7-7.3
			c0,0,0,0,0,0c-1.6-1.6-3.2-3.2-4.8-4.9c0,0,0.1,0.1,0.1,0.1c-1.7-2-3.4-4.1-5.1-6.1c-2.3-6.3-4.7-12.6-7-18.9
			c6.8-0.5,13.7-0.9,20.5-1.4c22.6-3.9,45.1-7.7,67.7-11.6c4,0,7.9-0.1,11.9-0.1c2.5,3.2,5,6.4,7.5,9.6c0.7,2.4,1.4,4.9,2.1,7.3
			c1.7,1.5,3.4,3,5.1,4.5c0.7,0,1.4,0.1,2.1,0.3c-0.4,2.3-0.5,4.7-1.2,6.9c-4.3,14.4-3.1,17.6,10.8,26.4c7.3,5.8,14.1,12.7,22.2,17
			C649.7,737.6,666.5,744.8,683.1,752.6z"/>
		<path class="st22" d="M573.1,657.1c-22.6,3.9-45.1,7.7-67.7,11.6C528,664.8,550.5,661,573.1,657.1z"/>
		<path class="st29" d="M630.5,647.7c-7.1,3.8-14.3,7.6-21.4,11.4c-3.2-0.1-6.4-0.2-9.7-0.3c-2.4-1.4-4.8-2.9-7.2-4.3
			C605,652.3,617.7,650,630.5,647.7z"/>
		<path class="st19" d="M592.2,654.6c2.4,1.4,4.8,2.9,7.2,4.3c-2.3,2.6-4.6,5.2-6.9,7.7c-2.5-3.2-5-6.4-7.5-9.6
			C587.4,656.2,589.8,655.4,592.2,654.6z"/>
		<path class="st5" d="M475.2,690.4c-2.4-4-4.7-8-7.1-12C470.5,682.4,472.8,686.4,475.2,690.4z"/>
		<path class="st13" d="M491.9,688.9c1.7,2,3.4,4.1,5.1,6.1C495.3,693,493.6,691,491.9,688.9z"/>
		<path class="st13" d="M501.7,699.8c2.2,2.4,4.4,4.9,6.7,7.3C506.2,704.7,504,702.2,501.7,699.8z"/>
		<path class="st13" d="M497,695c1.6,1.6,3.2,3.2,4.8,4.9C500.2,698.2,498.6,696.6,497,695z"/>
		<path class="st13" d="M1421.2,661.1c-0.9-0.6-1.8-1.1-2.7-1.7C1419.4,660,1420.3,660.5,1421.2,661.1z"/>
		<path class="st19" d="M745.1,277.1c-1.5-1.8-2.9-3.6-4.4-5.5C742.2,273.5,743.6,275.3,745.1,277.1z"/>
		<path class="st7" d="M719.6,248.8c3-1,6-1.9,9-2.9c-0.1,1.1-0.1,2.3-0.2,3.5c-1.8-0.2-3.6-0.4-5.4-0.6
			C721.9,248.8,720.7,248.8,719.6,248.8z"/>
		<path class="st23" d="M1256.9,684.7c9.2-0.2,18.5-0.3,27.7-0.5c0.2,9.9-7.2,5-11.6,6c-7.1,0-14.3,0-21.4,0
			c-1.6,5.6-3.2,11.2-4.7,16.8c0,0.9,0,1.7,0,2.6c1.3,5,2.7,9.9,4,14.9c1.5,6.5,15.6,0.3,12.7,13.8l0,0c-2.2-1.6-4.4-3.3-6.9-5.1
			c-2.7,5.1-5.6,10.3-8.4,15.5c3.8,0.7,7.4,1.4,10.9,2.1c-6.3,1.4-12.6,3.2-19,4.1c-1.5,0.2-4.6-2-4.9-3.6
			c-3.6-15.7-6.6-31.4-10.1-47.1c-1.2-5.5-3-11-4.9-18c9.2-0.4,17.6-0.8,26-1.2C1249.8,684.8,1253.4,684.8,1256.9,684.7z"/>
		<path class="st23" d="M1316,721.5c-4.8,3.2-9.6,6.3-14.3,9.5c-1.6-4.9-3.3-9.7-4.9-14.6c1.4,0.5,2.8,0.9,4.1,1.4
			c1.8-2.8,3.6-5.6,5.5-8.5c0-4.4,0-8.7,0-13.1c-1.1,0-2.2-0.1-3.2-0.1c-0.6,2-1.1,4.1-1.7,6.1c-2.1,0-4.2,0-6.3,0
			c-1.8-5.7-3.6-11.4-5.4-17.1c16.1-0.1,32.1-0.3,48.2,0c2.2,0,6.1,2.1,6.2,3.3c0.2,3.6,0,8.4-2.2,10.6
			c-5.5,5.7-12.2,10.2-18.4,15.2c-3.7,0-7.3,0-13.2,0C1313.3,718.2,1314.7,719.9,1316,721.5z"/>
		<path class="st12" d="M1295.1,702.4c2.1,0,4.2,0,6.4,0c1.6,2.3,3.3,4.7,4.9,7c-1.8,2.8-3.6,5.6-5.5,8.5c-1.4-0.5-2.8-0.9-4.1-1.4
			c1.6,4.9,3.3,9.7,4.9,14.6c-2.4,1.6-4.8,3.3-7.1,4.9c-1.6-3-3.7-5.8-4.8-8.9c-3.2-9.6-17.3-19-26.5-17.4c-5.5,0-11,0-16.5,0
			c0-0.9,0-1.7,0-2.6c4.8-1,9.6-2.1,13.1-2.8c-0.5-2.4-0.8-4.5-1.2-6.5c-2.3-1.6-4.5-3.2-6.8-4.8c-0.1-0.9-0.2-1.8-0.3-2.7
			c7.1,0,14.3,0,21.4,0.1c2.1,3.3,4.3,6.7,6.1,9.5c3-1.4,5.9-2.7,10-4.6c-1.4,3.8-2.2,6-3.2,9
			C1289.8,703.4,1292.5,702.9,1295.1,702.4z M1296.3,707.7c0.1-0.3,0.1-0.6,0.2-0.9c-0.4,0.1-0.9,0.2-1.3,0.3
			c0.1,0.3,0.2,0.7,0.4,0.8C1295.6,708,1296,707.8,1296.3,707.7z"/>
		<path class="st11" d="M1134.4,661.4c-6.8,0.1-13.6,0.7-20.4,0.3c-6.7-0.4-13.6-1.1-14.1-10.7c-0.1-1.1-4.5-2-6.9-2.9
			c6.2-15,30.2-18.5,43.2-12.1c1.6,0.8,1.8,4.3,2.7,6.6c-4.1,2.5-8.1,5-11.4,7.1C1130.4,654.7,1132.4,658.1,1134.4,661.4z"/>
		<path class="st23" d="M1263.3,709.6c9.2-1.6,23.3,7.8,26.5,17.4c1.1,3.1,3.1,6,4.8,8.9c-4.8,2.3-9.6,4.5-14.3,6.8
			c-1.1-1.2-2.1-2.4-3.2-3.7c-0.8,0.7-1.5,1.5-2.3,2.2c1.1,0.6,2.3,1.3,3.4,1.9c-4.9,2.3-9.7,4.6-14.6,6.9c0-3.9-0.1-7.9-0.1-11.8
			c0,0,0,0,0,0c2.7-4.4,5.5-8.7,9.2-14.8c-6.3,1.1-10.3,1.7-14.8,2.5C1259.9,720.1,1261.6,714.9,1263.3,709.6z M1282,730.8
			c-0.6-0.9-1.3-1.8-1.9-2.6c-0.7,0.7-2,1.5-1.9,1.9c0.3,0.9,1.2,1.6,2,2.3C1280.4,732.4,1281.2,731.5,1282,730.8z"/>
		<path class="st20" d="M1213.3,674.3c-6.3-0.2-12.5-0.4-18.8-0.6c-2.4-0.8-4.8-1.6-7.3-2.4c-5.6,0.8-11.3,1.6-16.9,2.4
			c-2.8-5-2.5-9.4,3.5-11.2c7.4-2.2,14.9-3.7,22.4-5.5c-0.1,2.2-0.3,4.4-0.4,6.7c8.9-2.5,8.8-2.5,13.7,6.2
			C1210.5,671.6,1212,672.8,1213.3,674.3z"/>
		<path class="st11" d="M1155.1,744.9c11.4-3,22.1-6.1,32.9-8.5c1.2-0.3,4.3,2.6,4.4,4.1c0.2,2.7-0.5,6.4-2.3,8.2
			C1180.5,758.1,1166.5,756.9,1155.1,744.9z"/>
		<path class="st11" d="M1187.3,671.3c2.4,0.8,4.8,1.6,7.3,2.4c-0.9,6.6-1.8,13.3-2.7,20.1c-11.7,3.7-22.2,7.8-33.7-2.3
			c-3.8-3.3-13.9,0.5-21.7,1.1c7.6-9.9,18.5-5.9,28.3-6.4c6.8,2.6,13.5,5.1,22.6,8.6C1187.3,685.2,1187.3,678.2,1187.3,671.3z"/>
		<path class="st17" d="M1366,671.2c-2.4,0.7-4.7,1.4-7.1,2c-4.7,0.2-10.2,1.9-14,0.1c-3.3-1.5-4.7-7-7-10.7
			c7.5-2.4,15.1-6.9,22.4-6.4C1367.2,656.7,1369.8,663.9,1366,671.2z"/>
		<path class="st11" d="M1226.4,757.4c-1.7,4-2.9,10.8-5.3,11.4c-6.5,1.4-13.5,0.1-20.4-0.2c0.4-2.9,0-7.9,1.4-8.5
			c6.6-2.8,13.6-4.5,20.5-6.6C1223.9,754.8,1225.1,756.1,1226.4,757.4z"/>
		<path class="st29" d="M1187.3,671.3c0,7,0,13.9,0,23.5c-9.1-3.4-15.8-6-22.6-8.6c1.9-4.2,3.8-8.3,5.7-12.5
			C1176,672.9,1181.6,672.1,1187.3,671.3z"/>
		<path class="st18" d="M1213.3,674.3c-1.3-1.4-2.8-2.7-3.7-4.3c-4.9-8.7-4.8-8.8-13.7-6.2c0.1-2.4,0.3-4.5,0.4-6.7
			c7.4-5.3,19.7-3.5,23,4.1C1221.8,666.7,1222.3,673.1,1213.3,674.3z"/>
		<path class="st18" d="M1295.1,702.4c-2.7,0.5-5.3,1-9.3,1.8c1.1-3,1.9-5.2,3.2-9c-4.1,1.9-7,3.2-10,4.6c-1.8-2.8-4-6.2-6.1-9.5
			c4.4-1.1,11.8,3.9,11.6-6c1.7,0.4,3.4,0.7,5.1,1.1C1291.5,691,1293.3,696.7,1295.1,702.4z"/>
		<path class="st17" d="M1134.4,661.4c-2-3.4-3.9-6.7-6.8-11.8c3.3-2,7.4-4.6,11.4-7.1C1148,652.1,1146.6,657.7,1134.4,661.4z"/>
		<path class="st18" d="M1263.5,738.3c0,3.9,0.1,7.9,0.1,11.8c-1.5,0.2-3,0.4-4.4,0.6c-3.6-0.7-7.1-1.4-10.9-2.1
			c2.8-5.2,5.6-10.4,8.4-15.5C1259.1,735,1261.3,736.6,1263.5,738.3z"/>
		<path class="st28" d="M1003.2,606.5c1.6,4.1,3.1,8.1,4.7,12.2c-3.9-0.9-7.8-1.7-11.8-2.6c-2.6-3.8-5.2-7.7-7.8-11.5
			c3.5-0.3,6.9-0.6,10.4-0.9C1000.2,604.7,1001.7,605.6,1003.2,606.5z"/>
		<path class="st12" d="M1316,721.5c-1.3-1.7-2.7-3.3-5.7-7c5.9,0,9.5,0,13.2,0C1321,716.9,1318.5,719.2,1316,721.5z"/>
		<path class="st12" d="M1278.1,743.2c-1.1-0.6-2.3-1.3-3.4-1.9c0.8-0.7,1.5-1.5,2.3-2.2c1.1,1.2,2.1,2.4,3.2,3.7
			C1279.6,743,1278.9,743.2,1278.1,743.2z"/>
		<path class="st18" d="M1256.9,684.7c-3.6,0.1-7.1,0.1-10.7,0.1C1249.8,684.8,1253.4,684.8,1256.9,684.7z"/>
		<path class="st8" d="M821.8,592.2c1.7-2.8,3-5.9,5.2-8.2c18.2-19.9,36.4-39.9,55-59.4c10.9-11.4,22.7-22.1,34.2-33.1
			c5.6,3.8,10.5,8.7,18.8,5.8c2.8-1,7.2,2.7,10.9,4.3c1.2,1.5,2.9,4.5,3.4,4.3c11.1-4.2,23-7.2,32.8-13.6
			c18.3-12.1,36.3-23.5,59.4-22c2.4,0,4.8-0.1,7.2-0.1c3.4,1.7,6.8,3.5,10.1,5.2c-16.5,19.6-33,39.3-49.6,58.8
			c-11.9,14-24.1,27.7-35.9,41.8c-4.1,4.9-7.2,10.7-10.8,16.1c-0.7,0.1-1.4,0-2.1-0.1c-6.3-9.7-14.4-0.7-21.5-2c0-8.6,0-17.2,0-28.5
			c-4.7,3.4-7.2,5.6-10,7.2c-11.8,7-23.1,17.8-35.8,19.9C869.8,592.5,845.6,591.3,821.8,592.2z"/>
		<path class="st16" d="M1041.4,470.4c-23.1-1.5-41.1,9.9-59.4,22c-9.7,6.4-21.7,9.4-32.8,13.6c-0.5,0.2-2.3-2.8-3.4-4.3
			c6.6-6.8,13.1-13.7,19.8-20.5c9.9-10.1,16.2-25.7,35-22.1c4.9,0.9,10.3-0.1,15.4-0.2c6.9,0.1,13.7,0.1,20.6,0.2
			C1038.2,462.8,1039.8,466.6,1041.4,470.4z"/>
		<path class="st20" d="M960.3,592.1c0.7,0.1,1.4,0.2,2.1,0.1c1.7,1.7,3.4,3.4,5.1,5.1c-5.6,1.7-11.3,3.3-16.9,5
			c-5.8-10.2-8.1,0.6-12,2c-9.3,0.5-18.5,0.9-28.2,1.4c0.6-1.5,1.4-3.3,2.1-5.2C928.4,597.6,944.4,594.8,960.3,592.1z"/>
		<path class="st16" d="M1058.7,475.4c-3.4-1.7-6.8-3.5-10.1-5.2c3.4-0.7,7-2.5,10-1.7C1064.3,470,1064.4,473,1058.7,475.4z"/>
		<path class="st9" d="M1457,552.3c-1.9-0.3-3.9-0.5-8.6-1.1c7.3-9.3,13.7-17.4,20.1-25.6c8.9-3.5,11.4,4.4,14.9,9.1
			c3.2,4.4,4.6,10.1,7.9,17.6C1479.1,552.3,1468.1,552.3,1457,552.3z"/>
		<path class="st9" d="M487.2,521.3c-15.1,2.1-30.1,4.1-45.2,6.2c0-18.5,0-37.1,0-59.3c15.9,3.3,30.5,4.5,43.5,9.6
			C501.2,483.8,501.6,511.7,487.2,521.3z"/>
		<path class="st15" d="M781,614c2.4-0.9,4.8-1.9,7.1-2.8c7.2-0.5,14.5-1.1,21.7-1.6c1.5-0.2,3.1-0.3,4.6-0.5
			c16.7-2.2,33.4-4.4,50.1-6.5c0,1.3,0,2.6,0,3.8c-27.8,3.4-55.6,6.9-83.4,10.3C781.1,615.8,781.1,614.9,781,614z"/>
		<path class="st15" d="M652.3,459.4c0.6-0.7,1.1-0.7,1.7,0c0,0-0.9,0.6-0.9,0.6L652.3,459.4z"/>
		<path class="st12" d="M1225.9,320.4c39.2,11.7,75.1,28.6,100.1,64.3c-6.7,1.8-13.1,3.5-19.5,5.2c-38.2,3.7-76.4,7.4-114.6,11.1
			c0-0.7,0-1.4-0.2-2.2c2.7-8,4.7-16.2,8.2-23.8C1208.3,356.6,1217.2,338.5,1225.9,320.4z M1276,371c-24.8-7.4-38.6,15.2-59.5,16.8
			c0.3,1.2,0.5,2.4,0.8,3.6c13.4,0,26.8,0,41.1,0c-1.6-6.2-2.8-11-4.2-16.7C1269,385.7,1269,385.7,1276,371z M1255.3,345.8
			c-10.7-2.1-22.2,4.5-29.8,18.7C1236.7,357.5,1245.6,351.9,1255.3,345.8z"/>
		<path class="st11" d="M1107.1,452.7c-7.1-1.9-12.8-2.4-17.5-5c-3.7-2-8.8-6.7-8.5-9.7c0.5-4.5,4.2-10.4,8.2-12.5
			c12.7-6.7,26-5.6,38.5,1.4c6.7,3.8,6.9,14.9,0.2,18.2C1121,448.5,1113.4,450.4,1107.1,452.7z"/>
		<path class="st17" d="M1136.8,355.9c0.1-1.5,0.2-3.1,0.2-4.6c4.4,0,8.7,0.3,13.1,0.1c16.5-0.9,20-3.9,23.1-19.1
			c6.2-2.5,12.4-5,18.7-7.4c0.7,0,1.3-0.1,2-0.1C1186.2,346.2,1155.7,362.9,1136.8,355.9z"/>
		<path class="st17" d="M1311.4,399.6c6-0.1,12.2-0.9,18,0.1c3.8,0.7,7.2,4,10.7,6.2c-1.7,2.4-3.4,4.9-3.6,5.3
			c-9.2-1.2-16.5-2.2-23.7-3.2c-0.1,1.3-0.3,2.7-0.4,4c3.2,0,6.4,0,11.3,0c-2.4,2.6-3.7,3.9-4.9,5.1c-9.3,5.3-13.6-3.5-18.8-6.5
			C1303.8,407,1307.6,403.3,1311.4,399.6z"/>
		<path class="st18" d="M1242,430.1c-9.2,2.3-15.9,3.9-23.4,5.8c6.6-22.6,24-29,40.8-13.7c-6.6-1.7-10.8-3.6-15.1-3.6
			c-4.5,0-9,1.7-16.4,3.3C1233.6,425.2,1236.7,427,1242,430.1z"/>
		<path class="st17" d="M1191.8,398.7c0.1,0.7,0.2,1.4,0.2,2.2c1.1,2.5,2.2,4.9,4.4,10c-3.8,10.8-7.4,12.3-27.8,5.8
			C1177.4,409.8,1184.6,404.2,1191.8,398.7z M1190.2,409.1c-0.3-0.1-0.6-0.2-0.9-0.3c0,0.4-0.1,0.9-0.1,1.3c0.3-0.1,0.7,0,1-0.2
			C1190.2,409.7,1190.1,409.3,1190.2,409.1z"/>
		<path class="st18" d="M1318.9,417c1.2-1.3,2.5-2.6,4.9-5.1c-5,0-8.2,0-11.3,0c0.1-1.3,0.3-2.7,0.4-4c7.2,1,14.4,2,23.7,3.2
			c0.3-0.4,2-2.8,3.6-5.3c1.3,4.7,2.5,9.5,3.8,14.2C1335.6,419,1327.2,418,1318.9,417z"/>
		<path class="st17" d="M1136.1,375c14.4,8,6.4,15.8,1.3,23.7C1125.6,393,1125.4,388.5,1136.1,375z"/>
		<path class="st17" d="M1148.1,375.5c7.9,2.4,12.8,3.8,20,6c-5,4.4-7.5,6.6-10.3,9.1c1.7,1.3,3.7,2.8,6.2,4.7
			c-1.6,0.5-2.5,1.1-3.4,1.1C1147.3,396.1,1152.5,385.3,1148.1,375.5z"/>
		<path class="st11" d="M1193.8,324.7c-0.7,0-1.3,0.1-2,0.1c-0.2-3-0.3-6-0.5-9.1c0.6-0.5,1.1-1,1.7-1.5c0.6,0.2,1.1,0.5,1.6,0.9
			C1194.4,318.4,1194.1,321.6,1193.8,324.7z"/>
		<path class="st26" d="M896,398.6c-4.8-7.1-9.7-14.2-14.5-21.3c0.5-15.1-4.9-27.7-15.1-39c-14-15.4-14.6-27-3.7-37.5
			c5.6,1.7,11.3,3.4,18,5.4c-0.7-6.5-1.2-10.8-1.6-15c4-1.1,7.9-3.1,11.9-3.1c4,0,8.1,2,12.1,3.1c0,0-0.1,0-0.1,0
			c1.9,0.7,3.7,1.5,5.6,2.2c25.9,0,51.9-0.1,77.8-0.1c9.5-0.7,19.1-1.3,28.6-2c6.3,1.8,12.8,3.2,18.9,5.5c3.3,1.3,5.7,5.1,9.1,6.3
			c5.3,1.9,11.1,2.6,16.3,3.8c-3.6,13.1-7,25.3-10.3,37.4c0,0,0-0.2,0-0.2c-13.2,4-15,15.2-16.8,26.4c0,0,0-0.1,0-0.1
			c-1.7,3.1-3.4,6.1-5.1,9.2c-0.3,0.8-0.5,1.6-0.8,2.4c-10.1,0-12.2,6.1-11.1,14.7c-2.7,6.1-5.3,12.2-8,18.3c-4.5,5-9.1,10-13.6,15
			c-1.5,1.7-3.1,3.3-4.6,5c0,0,0.1,0,0.1,0c-1.6,0.1-4-0.4-4.6,0.4c-10.4,15.1-23.7,6.1-36.1,4.6c-23.2-2.9-34.2-21.1-47.2-37
			C899.7,401.3,897.7,400.1,896,398.6z M1003.1,330.1c-1.9-1.2-3.8-2.6-5.8-3.6c-4.5-2.2-10.5-6.9-13.5-5.5
			c-4.9,2.4-7.9,8.7-10.8,12.2c11-0.4,20.6-0.7,30.3-1.1c5,2.9,10.1,5.8,17.8,10.3c-2.5-5.7-3.6-8.2-4.6-10.7
			c2.8-0.8,5.5-1.5,8.2-2.2c-0.3-1.3-0.6-2.6-0.9-3.9C1016.9,327.1,1010,328.6,1003.1,330.1z M955.7,373.2
			c-7.1,2.3-13.2,3.7-18.8,6.2c-10,4.5-10.7,9.8-2.8,17.5c8.9,8.7,40.3,5.8,46.2-4.8c1.2-2.2-0.3-8.5-2.4-9.6
			C971,378.7,963.1,376.2,955.7,373.2z M1035.7,309.9c-0.7-0.3-1.5-0.9-2-0.7c-0.5,0.2-0.6,1.2-0.9,1.9c0.7,0.3,1.5,0.9,2,0.7
			C1035.3,311.6,1035.4,310.6,1035.7,309.9z"/>
		<path class="st29" d="M988.9,435c1.5-1.7,3.1-3.3,4.6-5C992,431.6,990.5,433.3,988.9,435z"/>
		<path class="st29" d="M1048.9,344.4c3.3-12.2,6.7-24.3,10.3-37.4c-5.2-1.1-11-1.8-16.3-3.8c-3.4-1.2-5.7-5-9.1-6.3
			c-6.1-2.4-12.5-3.7-18.8-5.5c-2.4-0.8-4.7-1.6-7.1-2.4c3.1-3.9,5.4-9.5,9.5-11.5c8-3.9,7.8-9.8,6.8-16.7l0.5-0.5
			c8,3.8,18.5,3.9,21.5,14.9c-5.3,9,6.1,5,7.1,9.1c-3.9,0.2-7.9,0.4-13.8,0.7c4.2,5.5,7.3,8.8,9.4,12.6c4.8,8.8,8.9,5.7,13.6,0.3
			c-3.4-5-6.3-9.4-9.3-13.7c7.8,2.1,15.8,4.7,20.8-6.1c-2.6-0.5-4.5-0.8-6.4-1.2c15.1-6.3,30.1-12.6,45.2-19
			c-9.5,13.9-18.8,27.9-28.6,41.7c-10,14.1-20.4,28-30.8,41.8C1052.5,342.8,1050.4,343.4,1048.9,344.4z"/>
		<path class="st29" d="M1032.1,370.6c1.8-11.2,3.6-22.4,16.8-26.4C1048.6,356.3,1040.9,363.8,1032.1,370.6z"/>
		<path class="st29" d="M1015.2,396.7c-1.1-8.6,1-14.6,11.1-14.7C1022.6,387,1018.9,391.9,1015.2,396.7z"/>
		<path class="st29" d="M1027,379.7c1.7-3.1,3.4-6.1,5.1-9.2C1030.4,373.6,1028.7,376.6,1027,379.7z"/>
		<path class="st22" d="M647.3,826.6c-8.8-3.2-17.5-6.4-26.3-9.7c-0.7-1.2-1.5-2.4-2.2-3.6c-0.9,1.1-1.7,2.1-2.6,3.2
			C548,788.5,487,750.9,443.4,688.4c3.6-1.1,7-2.1,10.3-3.1c16.3,3.7,21.7,19.5,32.5,29.3c5.2,4.7,10.2,9.5,15.3,14.3
			c12.4,22.5,35.2,32.6,55.1,46.1c2,1.4,6.3-0.6,9.5-1.1c21.7,10.3,43.3,20.8,65.1,30.8c9.9,4.6,20.2,8.4,30.3,12.6
			c-0.4,2.8-0.8,5.6-1.2,8.4C655.1,825.7,650.1,813.1,647.3,826.6z"/>
		<path class="st25" d="M647.3,826.6c2.8-13.5,7.8-0.9,13-0.8c0.4-2.8,0.8-5.6,1.2-8.4c18.8,5.3,37.6,10.9,56.6,15.7
			c10.4,2.6,21.3,3.8,31.9,5.7c-4,4.6-8.1,9.3-12.1,13.9c-21.5-5.4-43.1-10.5-64.6-16.4C664.4,833.9,655.9,829.9,647.3,826.6z"/>
		<path class="st25" d="M566.1,773.9c-3.2,0.4-7.5,2.4-9.5,1.1c-19.9-13.5-42.7-23.6-55.1-46.1c1.4-1,3.6-3.1,3.9-2.8
			c17.7,13.5,35.3,27.1,52.8,40.8C561.1,769,563.5,771.6,566.1,773.9z"/>
		<path class="st25" d="M616.1,816.5c0.9-1.1,1.7-2.1,2.6-3.2c0.7,1.2,1.5,2.4,2.2,3.6C619.4,816.8,617.8,816.6,616.1,816.5z"/>
		<path class="st29" d="M874,733.1c0.2,2.3-0.5,5.4,0.7,6.9c5.4,6.7,5.1,11.5-3,15.6c-1.6,0.8-1.5,4.8-2.2,7.3
			c-2.3,5.8-4.6,11.6-6.9,17.4c-7.2,1.1-14.5,2.2-21.7,3.4c3.2-5.6,6.4-11.2,9.5-16.9c2.5-4.6,4.7-9.3,7.1-14
			C863,746.2,868.5,739.7,874,733.1z"/>
		<path class="st10" d="M938.6,604.2c3.9-1.5,6.2-12.2,12-2c-5.6,10-11.2,20.1-17,30.1c-0.8,1.5-2.8,2.2-4.3,3.3
			c-4-1.6-8.1-3.2-12.1-4.8C924.3,622,931.5,613.1,938.6,604.2z"/>
		<path class="st22" d="M1402,327.3c6.5-1.6,12.9-3.3,19.4-4.9c9.5,6.6,19.7,12.5,28.5,20c11.2,9.5,21.5,20.1,31.7,30.7
			c2.2,2.2,2.8,6,4.1,9.1c-5.6,2.4-11.2,4.8-16.8,7.3c-9.1-9.4-18.1-18.8-27.3-28c-1.6-1.6-3.9-2.3-5.9-3.5
			c-8.3-7.2-16.7-14.2-24.9-21.5C1407.6,333.6,1404.9,330.3,1402,327.3z"/>
		<path class="st28" d="M1026.1,636.8c1.9,1.2,3.7,2.4,5.6,3.6C1029.8,639.2,1027.9,638,1026.1,636.8z"/>
		<path class="st4" d="M1490.7,709.5c0.7-0.6,1.3-1.3,2-1.9C1492,708.2,1491.3,708.9,1490.7,709.5z"/>
		<path class="st23" d="M1026.9,816.7c-14.2,10.3-28.3,20.8-42.7,30.8c-1.7,1.2-5.8,0.6-7.9-0.6c-22.1-13.2-47.3-22.3-60.3-47.4
			c-6.7-12.8-3.3-22.4,11-22.7c31.4-0.7,62.8-0.4,94.2,0.1c5.2,0.1,10.3,3.3,15.4,5.1c-0.2,9.1-7.1,5.8-11.9,6.5
			c-2.2-15.9-9.5-1.7-14.3-2.4c-0.3-0.2-0.7-0.4-1-0.5c0.3,0.2,0.7,0.4,1,0.6c0,1.6,0,3.1,0,4.7c-1.9,2.1-3.9,4.2-6.5,7.1
			c-0.7-0.2-3.3-1.1-6-1.9c0.4,5.8,3.2,13.1,5.4,12.9c5.8-0.4,11.3-4.2,17-6.6c-4.4-5.1-7.1-8.2-9.8-11.3c4.8-0.8,9.5-1.6,14.3-2.5
			c-3.1,9.9,5.3,14.7,9.5,21.3c-0.7,0.9-1.5,1.7-2.2,2.6C1030.2,813.8,1028.6,815.3,1026.9,816.7z"/>
		<path class="st11" d="M970.7,666.7c4.7,0.9,10,1.2,14.8,2.9c9.5,3.3,10.8,13.7,2.9,20.3c-9.1,7.5-30.6,8.3-39.8,0.2
			c-2.7-2.3-3-8.5-2.6-12.7c0.2-2.6,3.3-6.3,5.8-7.1C957.8,668.3,964.2,667.8,970.7,666.7z M951.2,680.6
			c15.7,11.4,23.6,11.6,32.2,2.2C973.8,674.3,963.1,673.8,951.2,680.6z"/>
		<path class="st17" d="M936.9,728.9c11.9-6.9,18.4,4.9,29.5,6.6c-21.5,14.9-36.3,13.7-51.8-2.4c6.5-7.8,6.5-7.8,16.5-4.2
			c0.6,3.9,1.2,7.7,1.8,11.6c4.2-1.1,8.3-2.2,12.5-3.3C942.5,734.4,939.7,731.6,936.9,728.9z"/>
		<path class="st12" d="M1024.6,788.4c4.7-0.7,11.7,2.6,11.9-6.5c5.4,0.5,10.8,1,16.2,1.5c0.7,1.6,1.3,3.1,2,4.7
			c-6.9,7.2-13.7,14.4-20.6,21.6C1029.9,803.1,1021.5,798.4,1024.6,788.4L1024.6,788.4z"/>
		<path class="st11" d="M862.7,780.3c2.3-5.8,4.6-11.6,6.9-17.4c5.6,1,11.7,1.1,16.6,3.4c3.8,1.8,6.2,6.6,9.2,10.1
			c-5.7,1.7-11.3,3.5-17,5.2c-4.6-0.2-9.3-0.3-13.9-0.5C863.9,780.8,863.3,780.5,862.7,780.3z"/>
		<path class="st17" d="M1085,777.4c-8.5,1.1-17.1,2.1-26.4,3.3c4.5-6.3,8.3-11.5,14-19.4c6.7,3,15.1,6.7,25.6,11.4
			c-5.8,3.7-9.1,5.9-12.5,8C1085.4,779.6,1085.2,778.5,1085,777.4z"/>
		<path class="st17" d="M878.4,781.6c5.7-1.7,11.3-3.5,17-5.2c3.1,1.5,6.1,3.1,9.2,4.6c-0.9,1.5-1.8,3-2.7,4.6
			c-9.1,1.7-18.2,3.4-27.3,5.1C875.8,787.7,877.1,784.6,878.4,781.6z"/>
		<path class="st11" d="M852.1,823.7c2.3-1.8,3.4-3.3,4.7-3.5c6.6-0.9,13.2-1.7,19.9-2c0.7,0,1.6,3.7,2.4,5.6
			c-5.6,1-11.2,2.4-16.8,2.7C859.4,826.8,856.4,825,852.1,823.7z"/>
		<path class="st29" d="M936.9,728.9c2.8,2.7,5.6,5.5,8.4,8.2c-4.2,1.1-8.3,2.2-12.5,3.3c-0.6-3.9-1.2-7.7-1.8-11.6
			C933,728.9,935,728.9,936.9,728.9z"/>
		<path class="st29" d="M878.4,781.6c-1.3,3-2.6,6-3.8,9.1c-3.4-3.2-6.7-6.4-10.1-9.6C869.1,781.3,873.8,781.5,878.4,781.6z"/>
		<path class="st12" d="M1026.9,816.7c1.7-1.4,3.3-2.9,5-4.3C1030.2,813.8,1028.6,815.3,1026.9,816.7z"/>
		<path class="st28" d="M616.3,702.2c-2.1-3.5-4.1-7-7.2-12.2c40.7,0,79.5-0.3,118.3,0.5c3.3,0.1,8.9,7.7,9,11.9
			c0.3,11.5-2.1,22.9-2.8,34.5c-0.2,3.6,1.4,7.2,2.5,12.8c-14.5,5.8-30.4,1.1-46,0.4c-16.7-9.5-33.6-18.6-49.9-28.7
			C631.7,716.1,624.2,708.7,616.3,702.2z M707.1,743c6.2-1.8,12.5-3.6,16.9-4.9c-1.8-2.9-4.5-5.4-4.8-8.2
			c-0.7-6.7-0.3-13.5-0.3-20.3c-7.7-8.8-15.8-14.6-26-1.6c-2-4.1-3.3-7-4.1-8.5c-5.8,0.7-10.2,1.2-15.2,1.8c-0.7,4.3-1.6,9.7-2.5,15
			c-5.8-3.9-11.6-7.7-17.4-11.6c-0.7,1-1.3,2.1-2,3.1c8.2,5.1,11.8,16.6,24.3,16c3.7,8.8,10.9,13.4,19.5,16.3
			C699.3,741.2,703.2,742.1,707.1,743z"/>
		<path class="st11" d="M820.8,655.9c-3.8-5.7-8.1-12.4-14.9-22.7c19.1-2.6,34.3-4.7,50-6.8c1,4.2,1.5,6.4,2,8.6
			c0.9,3.7,3.6,9.5,2.3,10.7c-5.3,4.5-11.4,9.1-17.9,10.8C835.8,658.2,828.4,656.3,820.8,655.9z"/>
		<path class="st29" d="M616.3,702.2c8,6.5,15.4,13.8,24.1,19.3c16.2,10.2,33.2,19.2,49.9,28.7c-2.4,0.8-4.7,1.6-7.1,2.4
			c-16.5-7.8-33.4-15-49.5-23.6c-8.1-4.3-14.8-11.3-22.2-17C613,708.7,614.7,705.5,616.3,702.2z"/>
		<path class="st17" d="M788.2,752.3c-2.5-0.5-6.2-0.2-8.6-1.8c-4.7-3.2-8.6-7.5-12.9-11.3c4.1-4.2,7.9-8.8,12.5-12.5
			c1.8-1.4,5.4-0.5,8.1-1c8.5-1.5,15.1,1.5,17.1,9.9C806.1,742.4,796.3,752.1,788.2,752.3z"/>
		<path class="st17" d="M773,681.1c10.1-2.2,20.2-4.4,34.4-7.6c-4.3,8.1-7,13.3-8.5,16.1c-11.9,0-21.2,0-27.4,0
			c-6-6.8-10.8-12.2-16.7-18.9c12.2,0,21.4,0,31.1,0c-4.4,2.5-9,5-13.5,7.5C772.7,679.2,772.8,680.2,773,681.1z"/>
		<path class="st18" d="M592.5,666.6c2.3-2.6,4.6-5.1,6.9-7.7c3.2,0.1,6.4,0.2,9.7,0.3c3.2,1,6.4,2.1,9.6,3.1
			c-0.3,0.1-0.6,0.2-1,0.2c0.3,0.3,0.6,0.6,0.9,0.9c0.8,0.3,1.6,0.5,2.5,0.8c3.9,3.2,7.7,6.4,11.6,9.5c-1.9,0-3.9,0.2-5.8-0.1
			c-6.7-0.9-14.1-5.8-18.4,4.3c-0.4,1-4.4,0.6-6.7,0.8c-0.7-0.2-1.4-0.3-2.1-0.3c-1.7-1.5-3.4-3-5.1-4.5
			C594,671.5,593.2,669,592.5,666.6z"/>
		<path class="st10" d="M864.5,606.4c0-1.3,0-2.6,0-3.8c24.8-4.2,49.5-8.3,74.3-12.5c7.1,1.3,15.1-7.7,21.5,2
			c-15.9,2.8-31.8,5.6-47.8,8.4C896.5,602.4,880.5,604.4,864.5,606.4z"/>
		<path class="st29" d="M632.7,673.7c-3.9-3.2-7.7-6.4-11.6-9.5c6.3-2,12.6-3.9,18.9-5.9c1,1.3,1.9,2.6,2.9,4
			C639.5,666,636.1,669.8,632.7,673.7z"/>
		<path class="st17" d="M754.4,661.4c1-12.8,1.4-13.1,17.7-9.2c-3.3,1.5-5.3,2.5-8.1,3.8c2.4,1.8,4.8,3.5,10.3,7.7
			c-8.5-0.4-13.5-0.7-18.5-0.9C755.4,662.3,754.9,661.9,754.4,661.4z"/>
		<path class="st11" d="M714.9,676c8-4.7,13.7-7.9,20.9-12.1C734.2,677,729.3,681.4,714.9,676z"/>
		<path class="st17" d="M755.9,662.8c-4.1,4-8.2,7.9-12.3,11.9c-1.1-1.3-2.1-2.6-3.2-3.9c4.7-3.1,9.3-6.2,14-9.3
			C754.9,661.9,755.4,662.3,755.9,662.8z"/>
		<path class="st29" d="M618.6,663.4c-0.3-0.3-0.6-0.6-0.9-0.9c0.3-0.1,0.6-0.2,1-0.2C618.7,662.2,618.6,663.4,618.6,663.4z"/>
		<path class="st19" d="M666.5,401.6c-5.3-1.9-12,2-15.9-6.8c-1.5-3.2-12.4-2.8-19.1-3c-19.3-0.6-38.6-0.8-57.9-1
			c-2,0-3.9,1.6-5.9,2.1c-3.4,0.7-6.8,1.1-10.2,1.6c0.5-4.1-0.5-9.3,1.7-12c6.1-7.6,12.8-15,20.5-20.8
			c13.7-10.3,28.1-19.7,42.6-28.9c3-1.9,7.4-1.6,11.2-2.3c-4.3,3.6-8.6,7.3-12.9,10.9c-5.6,3.8-11.2,7.7-16.8,11.5
			c-22.7,15.5-26.8,19.6-31.7,33.3c5.6-3,9.9-5.2,14.1-7.4c5.4,3.6,11.3,5.4,17.3,5.9c8.4,0.7,17-0.4,25.4,0.5
			c15,1.7,29.8,4.4,44.7,6.6C671.1,395.1,668.8,398.4,666.5,401.6z"/>
		<path class="st23" d="M620.6,341.4c4.3-3.6,8.6-7.3,12.9-10.9c0,0-0.1-0.3-0.2-0.3c6.7-3.2,13.3-6.4,20-9.7c0.5,0.2,0.8,0,1.1-0.4
			c6.4-1,12.8-1.9,19.2-2.9c0.7,0.2,1.5,0.4,2.3,0.5c0.8,6.7,1.5,13.4,2.4,21.4c4,4.4,15.5,5.3,12.3,17.1
			c-12.8-1.8-25.7-3.7-38.5-5.5c-2-3-3.7-8.2-6.1-8.5C637.6,341,629.1,341.5,620.6,341.4z"/>
		<path class="st17" d="M793.2,413.8c5.1,0,10.2,0.5,15.2,0c4.2-0.4,23.1,11.7,22.2,15.7c-0.6,2.8-4.3,5-7.4,8.3
			c0.2,0.6,1,3,2.4,7.2c-15.8-0.7-30.2-1.4-44.7-2.1c-1-6-2.1-11.9-2.8-15.7C784.4,421.6,788.8,417.7,793.2,413.8z"/>
		<path class="st11" d="M747.5,307.6c3.2,4.9,6.3,9.9,9.7,15.1c-21.9,10.9-35.8,8.6-50.7-7.5c1.8-2.4,3.5-4.8,5.3-7.1
			c0.5,3,1.1,6.1,1.8,10c4.1-3,7.3-5.2,10.5-7.5c2.5,12.1,9.5,16,21.5,11.9c1.4-1.1,2.7-2.1,4.1-3.2c-1.4-1.4-2.8-2.8-4.3-4.2
			c-0.1-0.6-0.3-1.2-0.5-1.9c0.1-1.8,0.2-3.6,0.3-5.4C746,308,746.8,307.9,747.5,307.6z"/>
		<path class="st29" d="M742.8,391.8c-6.4-3.2-12.8-6.4-19.1-9.7c0.4-0.9,0.7-1.9,1.1-2.8c4.3-0.6,8.6-1.2,12.8-1.8
			c8.8-2.1,17.7-4.1,26.5-6.2c-0.6,11.1-9.7,9.7-16.5,10.7C740.3,383.1,738.2,385.5,742.8,391.8z"/>
		<path class="st11" d="M738.2,401.2c0.7,0.1,1.4,0.3,2,0.6c-0.8,3-1.5,6.1-2.3,9.1c-10.1,0.7-20.1,1.3-30.2,2
			c-0.2-0.7-0.4-1.5-0.7-2.2c4-2.2,8-4.4,12-6.5c2.3-1,4.6-2,6.9-3C730,401.2,734.1,401.2,738.2,401.2z"/>
		<path class="st20" d="M560.6,419.6c1.2-5.4,1-10.7,3.5-13.5c2.6-3,7.8-3.6,13.2-5.8c-0.9,8.2-1.5,13.3-2.2,19.3
			C570.2,419.6,564.2,419.6,560.6,419.6z"/>
		<path class="st17" d="M764.1,371.3c-8.8,2.1-17.7,4.1-26.5,6.2c0-3.9,0-7.9,0-11.8c0.8,0,1.7-0.1,2.5-0.1
			c4.6,0.6,9.2,1.9,13.8,1.7c8.3-0.2,16.7-1.2,25-1.9c-2.5,1.5-5.1,2.9-7.6,4.4C768.9,370.3,766.5,370.8,764.1,371.3z"/>
		<path class="st17" d="M745.2,307.9c-0.1,1.8-0.2,3.6-0.3,5.4c-7-0.9-13.9-1.8-20.9-2.7c-3.2,2.3-6.3,4.5-10.5,7.5
			c-0.7-3.9-1.3-7-1.8-10C722.9,301.9,734.1,301.1,745.2,307.9z"/>
		<path class="st18" d="M666.5,401.6c2.3-3.3,4.6-6.6,6.9-9.9c0.8,0,1.7,0,2.5,0c3.1,3.9,6.2,7.8,9.3,11.8
			C678.9,403.9,671.8,411.3,666.5,401.6z"/>
		<path class="st18" d="M740,365.6c-0.8,0-1.7,0.1-2.5,0.1c-5.5-3.4-11.3-6.4-16.1-10.5c-1-0.9,1.3-5.7,2.1-8.7
			C729,352.8,734.5,359.2,740,365.6z"/>
		<path class="st17" d="M737.9,410.9c0.8-3,1.5-6.1,2.3-9.1c3.3,0.6,6.5,1.2,9.8,1.8c1.5,1.8,3.1,3.6,4.6,5.4
			c-1.6,1.4-3.2,3.8-4.8,3.8C745.9,412.8,741.9,411.6,737.9,410.9z"/>
		<path class="st19" d="M653.3,320.5c-6.7,3.2-13.3,6.4-20,9.7C636.5,319.7,645,320.3,653.3,320.5z"/>
		<path class="st19" d="M673.5,317.2c-6.4,1-12.8,1.9-19.2,2.9C659.8,312.9,666.3,312.5,673.5,317.2z"/>
		<path class="st29" d="M771.3,369.8c2.5-1.5,5.1-2.9,7.6-4.4c1.1,1.2,2.2,2.4,3.3,3.6C778.5,369.3,774.9,369.5,771.3,369.8z"/>
		<path class="st12" d="M719.6,248.8c1.2,0,2.3,0,3.4,0c-1.2,0.1-2.4,0.3-3.5,0.4C719.5,249.2,719.6,248.8,719.6,248.8z"/>
		<path class="st28" d="M675.9,391.8c-0.8,0-1.7,0-2.5,0c-14.9-2.3-29.7-4.9-44.7-6.6c-8.4-1-16.9,0.1-25.4-0.5
			c-6-0.5-11.8-2.3-17.3-5.9c-4.2,2.2-8.4,4.4-14.1,7.4c5-13.6,9.1-17.8,31.8-33.3c8.9,0.2,17.8,0.4,26.7,0.6
			c7.3,1.1,14.7,2.2,22,3.3c14.8,2.2,29.7,4.3,44.5,6.4c2.7,7.5,5.5,15.1,9.4,25.6C696.6,389.8,686.3,390.8,675.9,391.8z
			 M633.4,370.9c-4.3-7-24.8-8.5-36.4,0C610.6,370.9,621.8,370.9,633.4,370.9z"/>
		<path class="st20" d="M697.1,363.2c-14.8-2.1-29.7-4.3-44.5-6.4c-7.3-1.1-14.7-2.2-22-3.3c7.2-0.9,14.3-1.9,21.5-2.8
			c12.8,1.8,25.7,3.7,38.5,5.5C692.7,358.5,694.9,360.9,697.1,363.2z"/>
		<path class="st17" d="M738.2,401.2c-4.1,0-8.2,0-12.2,0C730,401.2,734.1,401.2,738.2,401.2z"/>
		<path class="st18" d="M714.2,344c0.2-0.3,0.4-0.7,0.6-1c-0.2,0.3-0.5,0.6-0.7,0.9L714.2,344z"/>
		<path class="st18" d="M714.1,343.9c-0.1,0.3-0.3,0.7-0.4,1c0.2-0.3,0.3-0.6,0.5-0.9C714.2,344,714.1,343.9,714.1,343.9z"/>
		<path class="st23" d="M912.3,250.5c0.1-1.4,0.1-2.9,0.2-4.3c7.8,1.5,9.8-4.2,12-9.6c0,0,0,0,0,0c11.9-6.4,23.8-12.7,35.7-19.1
			c8.6,3.9,17.2,7.9,25.9,11.8c7.3,5.5,14.6,11.1,21.9,16.6c0,0,0,0,0,0c1,3,1.9,6.1,2.9,9.1c-5.1,2.4-9.9,5.7-15.3,7.1
			c-8.3,2.1-12.4-4.4-9.1-13.8c2.1-0.6,4.2-1.2,6.3-1.7c-0.4-0.9-0.8-1.7-1.2-2.6c-1.7,1.4-3.4,2.8-5.1,4.2c-2.1-4.5-4.3-9-6.2-12.9
			c-4.3,5.4-8.1,9.9-12.3,15.1c1.6,1.1,4,2.7,6.8,4.6c-6.2,0-11.6,0-17.4,0c2.5-2.8,4.5-5.1,6.5-7.4c-0.4-0.9-0.7-1.9-1.1-2.8
			c-8.1,1.1-16.2,2.3-24.3,3.4c-3.1,0.8-6.3,1.6-9.4,2.4c-3.2,0.1-6.4,0.3-9.7,0.4c0.4,1.2,0.7,2.4,1.1,3.6c2.9-1.4,5.7-2.7,8.6-4.1
			c1.6,0.9,3.3,1.7,4.9,2.6c3.2,2.3,6.4,4.6,9.5,7c-1.6,0.7-3.2,1.5-4.8,2.2c-1.6-0.1-3.3-0.1-4.9-0.2c-1.6,0.1-3.1,0.3-4.7,0.4
			c-5.6,1.6-11.2,3.1-16.7,4.7c0-1.6-0.1-3.2-0.1-4.7l0-0.1c3.6-0.4,7.3-0.7,9.6-1C918.2,257.4,915.2,254,912.3,250.5z"/>
		<path class="st17" d="M857.4,262.6c-1.4,5.4-2.8,10.8-4.2,16.2c1.2,0.5,2.4,1,3.6,1.5c-2.1,0.8-4.2,1.5-6.6,2.4c2.3,1,4.4,2,6.7,3
			c-0.8,1.2-1.3,2.3-1.5,2.2c-7.2-1.8-17.1-1.1-13.3-13.6c0.3-1,0.2-2.1,0.2-2.6c-5.4-2.1-10.3-4-15.2-5.9
			c11.2-3.4,22.4-6.8,33.5-10.1c0.4,0.6,0.8,1.2,1.2,1.7C860.3,259.2,858.9,260.9,857.4,262.6z"/>
		<path class="st29" d="M960.2,217.5c-11.9,6.4-23.8,12.7-35.7,19.1c2.3-4,3.5-9.5,7-11.7c7.2-4.6,15.4-7.6,23.4-10.7
			C956,213.8,958.4,216.4,960.2,217.5z"/>
		<path class="st28" d="M902.9,281.6c-15.2,0.2-6.1-10.5-7.3-16.5c0,0,0.7,0.3,0.7,0.3c1.4-1.5,2.9-2.9,4.3-4.4
			c0.2-0.6,0.7-1,1.3-1.2c3.5,0.9,7,1.9,10.5,2.8c0,0,0,0.1,0,0.1c-1.6,1.6-3.2,3.2-4.7,4.7c0,0,0,0,0,0c-2.1,0.6-4.2,1.2-6.3,1.8
			c0.1,0.6,0.2,1.3,0.3,1.9c2.1,0.3,4.1,0.7,6.2,1c7.1,0.1,14.2,0.2,21.3,0.2c0,1.5-0.1,2.9-0.1,4.4c-4.4,0-8.8-0.5-13.1,0.3
			C911.4,277.9,907.2,280,902.9,281.6z"/>
		<path class="st17" d="M1053.3,284.3c-1-4.1-12.4-0.2-7.1-9.1c7.1,0.6,14.3,1.2,21.4,1.7c1.9,0.3,3.8,0.7,6.4,1.2
			c-5.1,10.9-13,8.2-20.8,6.1L1053.3,284.3z"/>
		<path class="st17" d="M878.8,272.6c-4.3,4.8-8.6,9.7-12.8,14.5c-1.1-0.5-2.2-1-3.2-1.4c0.6-6.1,1.2-12.1,1.8-18.2
			C869.3,269.2,874,270.9,878.8,272.6z"/>
		<path class="st29" d="M1007.9,246c-7.3-5.5-14.6-11.1-21.9-16.6C995.7,231.8,1007.6,231.2,1007.9,246z"/>
		<path class="st12" d="M912.3,262.6c-3.5-0.9-7-1.9-10.5-2.8c3.5-3.1,7-6.2,10.5-9.3c3,3.4,5.9,6.9,9.6,11.1
			C919.6,261.9,916,262.3,912.3,262.6z"/>
		<path class="st29" d="M1010.8,255.1c-1-3-1.9-6.1-2.9-9.1c9.8-0.1,14.3,5.9,16.8,14.3c0,0-0.5,0.5-0.5,0.5c-3-0.9-6.1-1.8-9.1-2.7
			C1013.7,257.1,1012.2,256.1,1010.8,255.1z"/>
		<path class="st29" d="M924.5,236.6c-2.3,5.4-4.3,11.1-12,9.6C916.5,243,920.5,239.8,924.5,236.6z"/>
		<path class="st12" d="M900.6,261c-1.4,1.5-2.9,2.9-4.3,4.4C897.7,263.9,899.1,262.4,900.6,261z"/>
		<path class="st12" d="M902.9,281.6c4.3-1.5,8.5-3.6,13-4.5c4.2-0.8,8.7-0.3,13.1-0.3c0.1,0.7,0.2,1.4,0.1,2
			c6.4,3.2,12.8,6.6,19.3,9.6c1.3,0.6,3.4-0.2,5-0.8c6.3-2.6,12.6-5.5,18.8-8.2c0,0-0.1,0-0.1,0c2.8,1.5,5.7,3,9.6,5.1
			c-3.4,1.5-5.5,2.4-6,2.6c3.2,1.9,6.9,4.1,10.6,6.2c-25.9,0-51.9,0.1-77.8,0.1c-1.9-0.7-3.7-1.5-5.6-2.2c0,0,0.1,0,0.1,0
			C903,288,902.9,284.8,902.9,281.6z"/>
		<path class="st17" d="M879,291.2c0.5,4.2,0.9,8.5,1.6,15c-6.8-2-12.4-3.7-18-5.4c-5.9-5.6-0.4-8,3.4-9.1
			C870,290.4,874.6,291.2,879,291.2z"/>
		<path class="st11" d="M1140.2,318.2c10.1-3.5,20.1-7,30.2-10.5c4.8,0,9.5,0,14.3,0c2.8,2.2,5.5,4.4,8.3,6.6
			c-0.6,0.5-1.1,1-1.7,1.5c-10.4-4.8-20.8-9.2-29.5,1.1c3.4,5.2,6.2,9.6,9,14c-7.3-3.4-14.7-6.9-22-10.3
			C1146,319.8,1143.1,319,1140.2,318.2z"/>
		<path class="st19" d="M1184.7,307.7c-4.8,0-9.5,0-14.3,0c0-2.3,0-4.5,0-6.8C1175.1,303.2,1179.9,305.4,1184.7,307.7z"/>
		<path class="st19" d="M1242,268.3c1.6,0.6,3.1,1.2,4.7,1.9C1245.1,269.6,1243.5,269,1242,268.3z"/>
		<path class="st24" d="M1408.7,356.1c1.8,1.4,3.6,2.8,5.4,4.3C1412.3,358.9,1410.5,357.5,1408.7,356.1z"/>
		<path class="st19" d="M1148.9,320.5c7.3,3.4,14.7,6.9,22,10.3c0.8,0.5,1.5,1,2.3,1.5c-3.1,15.3-6.6,18.2-23.1,19.1
			c-4.3,0.2-8.7,0-13.1-0.1c-8.1-9.2-5.4-16.7,3.7-23.3C1143.7,325.9,1146.1,323,1148.9,320.5z"/>
		<path class="st6" d="M938.8,590.1c-24.8,4.2-49.5,8.3-74.3,12.5c-16.7,2.2-33.4,4.4-50.1,6.5c2.8-2.3,5.5-4.7,9-7.7
			c-0.4-2.4-1-5.8-1.7-9.2c23.8-0.9,48,0.3,71.3-3.6c12.7-2.1,24-12.9,35.8-19.9c2.8-1.6,5.2-3.8,10-7.2
			C938.8,572.9,938.8,581.5,938.8,590.1z"/>
		<path class="st6" d="M809.8,609.6c-7.2,0.5-14.5,1.1-21.7,1.6C794.7,600.9,802.1,602.8,809.8,609.6z"/>
		<path class="st19" d="M594.7,673.9c1.7,1.5,3.4,3,5.1,4.5C598.1,676.9,596.4,675.4,594.7,673.9z"/>
		<path class="st18" d="M1263.3,709.6c-1.7,5.2-3.5,10.5-5.4,16.4c4.5-0.8,8.5-1.4,14.8-2.5c-3.8,6-6.5,10.4-9.2,14.8
			c3-13.5-11.2-7.2-12.7-13.8c-1.3-5-2.7-9.9-4-14.9C1252.3,709.7,1257.8,709.6,1263.3,709.6z"/>
		<path class="st18" d="M1258.7,697.7c0.4,2,0.8,4.1,1.2,6.5c-3.5,0.8-8.3,1.8-13.1,2.8c1.6-5.6,3.2-11.2,4.7-16.8
			c0.1,0.9,0.2,1.8,0.3,2.7C1254.2,694.5,1256.4,696.1,1258.7,697.7z"/>
		<path class="st18" d="M1306.4,709.4c-1.6-2.3-3.3-4.7-4.9-7c0.6-2,1.1-4.1,1.7-6.1c1.1,0,2.2,0.1,3.2,0.1
			C1306.4,700.7,1306.4,705.1,1306.4,709.4z"/>
		<path class="st23" d="M1258.7,697.7c-2.3-1.6-4.5-3.2-6.8-4.8C1254.2,694.5,1256.4,696.1,1258.7,697.7z"/>
		<path class="st18" d="M1296.3,707.7c-0.3,0.1-0.6,0.2-0.8,0.1c-0.2-0.2-0.3-0.5-0.4-0.8c0.4-0.1,0.9-0.2,1.3-0.3
			C1296.4,707.1,1296.3,707.4,1296.3,707.7z"/>
		<path class="st12" d="M1282,730.8c-0.7,0.7-1.6,1.6-1.7,1.5c-0.8-0.6-1.8-1.4-2-2.3c-0.1-0.4,1.2-1.3,1.9-1.9
			C1280.7,729.1,1281.4,729.9,1282,730.8z"/>
		<path class="st17" d="M1276,371c-7,14.7-7,14.7-21.9,3.6c1.4,5.7,2.7,10.5,4.2,16.7c-14.2,0-27.7,0-41.1,0
			c-0.3-1.2-0.5-2.4-0.8-3.6C1237.4,386.2,1251.2,363.6,1276,371z"/>
		<path class="st18" d="M1255.3,345.8c-9.7,6.1-18.7,11.7-29.8,18.7C1233.1,350.3,1244.7,343.7,1255.3,345.8z"/>
		<path class="st29" d="M1173.2,332.3c-0.8-0.5-1.5-1-2.3-1.5c-2.8-4.4-5.7-8.7-9-14c8.8-10.3,19.1-5.8,29.5-1.1
			c0.2,3,0.3,6,0.5,9.1C1185.6,327.3,1179.4,329.8,1173.2,332.3z"/>
		<path class="st19" d="M1190.2,409.1c0,0.3,0,0.7-0.1,0.7c-0.3,0.2-0.6,0.2-1,0.2c0-0.4,0.1-0.9,0.1-1.3
			C1189.6,408.8,1189.9,408.9,1190.2,409.1z"/>
		<path class="st18" d="M986.3,293.3c-3.7-2.2-7.4-4.3-10.6-6.2c0.5-0.2,2.6-1.1,6-2.6c-4-2.1-6.8-3.6-9.6-5.1c3-1.4,6-2.7,9-4.1
			c-0.3-0.8-0.6-1.5-0.9-2.3c-9.1-1-18.2-2.1-27.2-3.1c2.4-0.8,4.8-1.7,7.2-2.5c3.5,0,7.2,0.7,10.4-0.1c2.3-0.6,4-3.3,6-5.1
			c-1.9-1.4-3.9-4.1-5.8-4.1c-6.7,0.2-13.5,1.4-20.2,2.2c-2.4,0-4.7,0-7.1-0.1c-3.2-2.3-6.4-4.6-9.6-7c1.5-1.7,3-3.3,4.5-5
			c8.1-1.1,16.2-2.3,24.3-3.4c0.4,0.9,0.7,1.9,1.1,2.8c-2,2.3-4,4.6-6.5,7.4c5.8,0,11.2,0,17.4,0c-2.9-1.9-5.2-3.6-6.8-4.6
			c4.2-5.2,7.9-9.8,12.3-15.1c1.9,3.9,4,8.4,6.2,12.9l0.1,0.1c-3.3,9.4,0.7,15.9,9.1,13.8c5.3-1.4,10.2-4.6,15.3-7.1
			c1.4,1,2.9,2,4.3,3c-4.6,11.8-14.2,14.1-25.4,12.8c1.6,15.6,4.2,18.1,18.2,18c2.4,0.8,4.7,1.6,7.1,2.4
			C1005.4,292,995.9,292.7,986.3,293.3z"/>
		<path class="st11" d="M955.7,373.2c7.5,3,15.3,5.4,22.3,9.3c2.1,1.1,3.6,7.4,2.4,9.6c-5.9,10.6-37.3,13.5-46.2,4.8
			c-7.9-7.7-7.3-13,2.8-17.5C942.5,377,948.6,375.6,955.7,373.2z"/>
		<path class="st17" d="M1003.3,332.1c-9.6,0.3-19.2,0.7-30.3,1.1c2.9-3.5,5.9-9.9,10.8-12.2c2.9-1.4,8.9,3.4,13.5,5.5
			c2,1,3.9,2.4,5.8,3.6C1003.1,330.7,1003.2,331.4,1003.3,332.1z"/>
		<path class="st20" d="M1003.3,332.1c-0.1-0.7-0.2-1.4-0.2-2c6.9-1.5,13.8-3,20.6-4.4c0.3,1.3,0.6,2.6,0.9,3.9
			c-2.7,0.7-5.4,1.5-8.2,2.2c1.1,2.5,2.2,5,4.6,10.7C1013.4,338,1008.4,335,1003.3,332.1z"/>
		<path class="st29" d="M1035.7,309.9c-0.3,0.7-0.4,1.7-0.9,1.9c-0.5,0.2-1.3-0.5-2-0.7c0.3-0.7,0.4-1.7,0.9-1.9
			C1034.2,309,1035.1,309.6,1035.7,309.9z"/>
		<path class="st29" d="M902.9,291.2c1.9,0.7,3.7,1.5,5.6,2.2C906.6,292.7,904.7,291.9,902.9,291.2z"/>
		<path class="st28" d="M1007.9,289c-14.1,0.1-16.7-2.4-18.2-18c11.2,1.3,20.9-1.1,25.4-12.8c3,0.9,6.1,1.8,9.1,2.7
			c1.1,6.9,1.3,12.8-6.8,16.7C1013.3,279.5,1011,285,1007.9,289z"/>
		<path class="st11" d="M1053.2,284.2c3,4.4,5.9,8.7,9.3,13.7c-4.7,5.3-8.8,8.4-13.6-0.3c-2.1-3.8-5.2-7.1-9.4-12.6
			c5.9-0.3,9.8-0.5,13.8-0.7C1053.3,284.3,1053.2,284.2,1053.2,284.2z"/>
		<path class="st12" d="M1010.4,790.9c2.7,3.1,5.4,6.3,9.8,11.3c-5.7,2.5-11.2,6.2-17,6.6c-2.2,0.2-5-7.1-5.4-12.9
			c2.7,0.9,5.3,1.7,6,1.9c2.6-2.9,4.5-5,6.5-7.1C1010.2,790.8,1010.4,790.9,1010.4,790.9z"/>
		<path class="st12" d="M1024.6,788.5c-4.8,0.8-9.5,1.6-14.3,2.5c0,0-0.1-0.1-0.1-0.1c0-1.6,0-3.1,0-4.7l0,0
			C1015.1,786.8,1022.4,772.6,1024.6,788.5C1024.6,788.4,1024.6,788.5,1024.6,788.5z"/>
		<path class="st12" d="M1010.3,786.1c-0.3-0.2-0.7-0.4-1-0.6C1009.6,785.7,1010,785.9,1010.3,786.1
			C1010.3,786,1010.3,786.1,1010.3,786.1z"/>
		<path class="st17" d="M951.2,680.6c11.9-6.8,22.6-6.2,32.2,2.2C974.8,692.2,966.9,692,951.2,680.6z"/>
		<path class="st23" d="M671,716.4c0.9-5.4,1.8-10.7,2.5-15c5-0.6,9.4-1.1,15.2-1.8c0.7,1.5,2.1,4.4,4.1,8.5
			c10.2-13,18.3-7.1,26,1.6c-6.4,2.5-12.9,5-19.3,7.5c0.2,0.5,0.4,1,0.6,1.5c5.1-0.5,10.2-0.9,16.9-1.5c-2.1,7.9,3.9,17.7-9.7,16.6
			c-5.2-2.1-10.4-4.3-18.2-7.4c2.7,6.1,4.5,10.1,6.2,14.1c-8.6-2.9-15.8-7.5-19.5-16.3C674.3,721.5,672.7,718.9,671,716.4z"/>
		<path class="st20" d="M707.3,733.7c13.7,1.1,7.7-8.7,9.7-16.6c-6.7,0.6-11.8,1.1-16.9,1.5c-0.2-0.5-0.4-1-0.6-1.5
			c6.4-2.5,12.9-5,19.3-7.5c0,6.8-0.4,13.6,0.3,20.3c0.3,2.8,3,5.3,4.8,8.2c-4.4,1.3-10.7,3.1-16.9,4.9c2.3-2.1,4.7-4.3,6.9-6.4
			C711.9,735.7,709.6,734.7,707.3,733.7z"/>
		<path class="st17" d="M707.3,733.7c2.3,1,4.5,2,6.7,3c-2.3,2.1-4.6,4.2-6.9,6.4c-3.9-0.9-7.8-1.8-11.7-2.7
			c-1.7-4-3.5-7.9-6.2-14.1C696.9,729.4,702.1,731.5,707.3,733.7z"/>
		<path class="st18" d="M671,716.4c1.6,2.5,3.2,5,4.9,7.6c-12.4,0.6-16-10.8-24.3-16c0.7-1,1.3-2.1,2-3.1
			C659.4,708.7,665.2,712.6,671,716.4z"/>
		<path class="st10" d="M652,350.7c-7.2,0.9-14.3,1.9-21.5,2.8c-8.9-0.2-17.8-0.4-26.7-0.6c5.6-3.8,11.2-7.7,16.8-11.5
			c8.5,0.1,17-0.4,25.3,0.8C648.3,342.5,650,347.7,652,350.7z"/>
		<path class="st29" d="M724.1,310.6c7,0.9,13.9,1.8,20.9,2.7c0.2,0.6,0.3,1.2,0.5,1.9c0.1,2.5,0.1,4.9,0.2,7.4
			C733.6,326.6,726.5,322.7,724.1,310.6z"/>
		<path class="st17" d="M745.6,322.6c-0.1-2.5-0.1-4.9-0.2-7.4c1.4,1.4,2.8,2.8,4.3,4.2C748.3,320.5,746.9,321.5,745.6,322.6z"/>
		<path class="st18" d="M633.4,370.9c-11.7,0-22.8,0-36.4,0C608.6,362.4,629.1,363.9,633.4,370.9z"/>
		<path class="st18" d="M929,272.4c-7.1-0.1-14.2-0.2-21.3-0.2c-0.1-1.6-0.1-3.1-0.2-4.7c0,0,0,0,0,0c1.6,0,3.2,0,4.8,0
			c5.6-1.6,11.2-3.1,16.7-4.7c1.6-0.1,3.1-0.3,4.7-0.4c1.6,0.1,3.3,0.1,4.9,0.2c2.3,2.4,4.6,4.9,6.9,7.3
			C940.1,270.7,934.6,271.5,929,272.4z"/>
		<path class="st12" d="M945.7,269.8c-2.3-2.4-4.6-4.9-6.9-7.3c1.6-0.7,3.2-1.5,4.8-2.2c2.4,0,4.7,0,7.1,0.1c0,0-0.1-0.1-0.1-0.1
			c3.2,1.6,6.4,3.2,9.6,4.8c0,0.8,0,1.5,0,2.3c-2.4,0.8-4.8,1.7-7.2,2.5C950.5,269.8,948.1,269.8,945.7,269.8z"/>
		<path class="st12" d="M929.1,250.8c-2.9,1.4-5.7,2.7-8.6,4.1c-0.4-1.2-0.7-2.4-1.1-3.6C922.7,251.1,925.9,250.9,929.1,250.8
			C929.1,250.8,929.1,250.8,929.1,250.8z"/>
		<path class="st12" d="M938.5,248.3c-1.5,1.7-3,3.3-4.5,5c-1.6-0.9-3.3-1.7-4.9-2.6v0C932.2,249.9,935.4,249.1,938.5,248.3z"/>
		<path class="st18" d="M986.4,248.3c1.7-1.4,3.4-2.8,5.1-4.2c0.4,0.9,0.8,1.7,1.2,2.6c-2.1,0.6-4.2,1.2-6.3,1.7
			C986.5,248.4,986.4,248.3,986.4,248.3z"/>
		<path class="st12" d="M912.4,267.4c-1.6,0-3.2,0-4.8,0c1.6-1.6,3.2-3.2,4.7-4.7C912.3,264.3,912.4,265.9,912.4,267.4z"/>
		<path class="st12" d="M933.8,262.3c-1.6,0.1-3.1,0.3-4.7,0.4C930.7,262.6,932.2,262.5,933.8,262.3z"/>
		<path class="st23" d="M945.7,269.8c2.4,0,4.9,0.1,7.3,0.1c9.1,1,18.2,2.1,27.2,3.1c0.3,0.8,0.6,1.5,0.9,2.3c-3,1.4-6,2.7-9,4.1
			c0,0,0.1,0,0.1,0c-14.4-0.2-28.7-0.4-43.1-0.6c0-0.7,0-1.4-0.1-2c0-1.5,0.1-2.9,0.1-4.4C934.6,271.5,940.1,270.7,945.7,269.8z"/>
		<path class="st12" d="M907.6,267.4c0.1,1.6,0.1,3.1,0.2,4.7c-2.1-0.3-4.1-0.7-6.2-1c-0.1-0.6-0.2-1.3-0.3-1.9
			C903.3,268.7,905.4,268.1,907.6,267.4z"/>
		<path class="st18" d="M929.1,278.8c14.4,0.2,28.7,0.4,43.1,0.6c-6.3,2.8-12.5,5.6-18.8,8.2c-1.5,0.6-3.7,1.4-5,0.8
			C941.8,285.5,935.5,282.1,929.1,278.8z"/>
		<path class="st23" d="M960.2,267.4c0-0.8,0-1.5,0-2.3c0.8-1.4,1.7-2.8,2.9-4.8c-4.8,0-8.6,0-12.5,0c0,0,0.1,0.1,0.1,0.1
			c6.7-0.8,13.4-2,20.2-2.2c1.9-0.1,3.9,2.6,5.8,4.1c-2,1.8-3.7,4.5-6,5.1C967.4,268.1,963.7,267.4,960.2,267.4z"/>
		<path class="st18" d="M950.6,260.3c3.8,0,7.7,0,12.5,0c-1.2,2-2.1,3.4-2.9,4.8C956.9,263.5,953.7,261.9,950.6,260.3z"/>
	</g>
</g>
</svg>
