<?xml version="1.0" encoding="utf-8"?>
<!-- Generator: Adobe Illustrator 25.0.0, SVG Export Plug-In . SVG Version: 6.00 Build 0)  -->
<svg version="1.1" id="Ebene_1" xmlns="http://www.w3.org/2000/svg" xmlns:xlink="http://www.w3.org/1999/xlink" x="0px" y="0px"
	 viewBox="0 0 1920 1080" style="enable-background:new 0 0 1920 1080;" xml:space="preserve">
<style type="text/css">
	.st0{fill:#F5B460;}
	.st1{fill:#F9EBC0;}
	.st2{fill:#F1AC56;}
	.st3{fill:#533E35;}
	.st4{fill:#604835;}
	.st5{fill:#45576C;}
	.st6{fill:#D58F47;}
	.st7{fill:#D68F46;}
	.st8{fill:#1C1E1E;}
	.st9{fill:#53637D;}
	.st10{fill:#594434;}
	.st11{fill:#D28B65;}
	.st12{fill:#5C4C3F;}
	.st13{fill:#D19883;}
	.st14{fill:#3B3432;}
	.st15{fill:#725738;}
	.st16{fill:#F8EABF;}
	.st17{fill:#353F49;}
	.st18{fill:#284055;}
	.st19{fill:#F2D2C6;}
	.st20{fill:#DDA793;}
	.st21{fill:#F4B45F;}
	.st22{fill:#F4B35E;}
	.st23{fill:#F8E7BC;}
	.st24{fill:#C16042;}
	.st25{fill:#F5C6B3;}
	.st26{fill:#F5C6B4;}
	.st27{fill:#F7F7F7;}
	.st28{fill:#F3C4B0;}
	.st29{fill:#A65337;}
</style>
<g>
	<g>
		<path class="st0" d="M389,1080c-129.7,0-259.3,0-389,0C0,720.2,0,360.4,0,0c449.3,0,898.7,0,1348,0c3.1,0.8,6.2,2.4,9.3,2.4
			c35.7,0.2,71.3,0.2,107,0c3.1,0,6.2-1.6,9.3-2.4c157.3,0,314.5,0,471.9,0c0,359.8,0,719.5,0,1080c-440.9,0-881.9,0-1322.9,0
			c4.2-1,8.3-2,12.5-3c41.8-4.2,83.7-8.4,125.5-12.6c4.1-0.6,8.2-1.4,12.4-1.8c57.2-5,113.3-15.4,166.7-37.6
			c3.1-1.3,7.2-1.6,10.5-0.9c37.3,8.7,75.2,9.6,113.1,8c28.8-1.2,57.3-5.8,82.6-20.7c7.8-4.6,13.7-13.4,18.9-21.3
			c9.2-14.2,5.9-29-0.6-43.3c-6.8-15.5-17.1-27-34.6-30.1l0.2,0.1c-6.7-3.2-13.4-6.4-20.1-9.5c-23.5-4.1-46.9-7.2-70.1,1.5
			c-2.5,1-5.1,2-7.6,3c-4,0.5-8.4,0.2-12,1.7c-20.1,7.8-37,20.3-51.5,36.4c-18.1,20.2-37.7,38.9-62.7,50.2c-6.6,3-15.4,4.2-22.4,2.8
			c-33.3-6.8-65.2-17.5-93.3-37.4c-1.8-3.6-3.8-7.1-5.2-10.9c-3.2-8.5-9.5-15.9-3.5-26.6c2.9-5.1,1.9-13.3,0.4-19.6
			c-3.7-15-8.7-29.6-13.2-44.4c30.1-3.8,60.5-6,90.2-11.9c21.7-4.3,42.7-13,63.5-21c12.3-4.8,13.2-16,2-21.2
			c-12.6-5.9-26.4-9.4-39.7-13.9c0-4.9,0-9.8,0-14.7c33.6,2.7,67.2,5.1,100.7,8.2c48.8,4.5,97.6,10.9,146.5,13.7
			c32.8,1.9,65.9-0.8,98.8-2.1c54.9-2.1,108.1-12.7,159-33.8c7-2.9,15.5-3.5,23.2-3.1c18.7,0.8,37.3,4,55.9,4.1
			c26.2,0.2,52.5-1.2,78.8-2.3c13.7-0.6,27.5-1.3,41.1-2.9c39.2-4.6,78.6-8.2,117.5-15c32.6-5.7,64.6-15.4,96.8-23.3
			c7-1.7,12.4-5.8,9.5-13.1c-1.7-4.4-7.1-9.4-11.6-10.5c-43.9-10.4-88.5-15.2-133.6-15.6c-4,0-8.1-1.2-12.1-1.9
			c19.1-20.1,39.1-39.4,56.8-60.6c12-14.4,22.4-30.7,30.4-47.6c8.7-18.6,16.6-38.5,19.7-58.7c3.3-21.1,0.4-43.1,0.3-64.7
			c-0.9-2.4-1.9-4.8-2.8-7.2c-1.6-7.6-3.2-15.3-4.8-22.9c-6.8-15-13.5-30-20.3-45.1c21.2-10.2,42.9-18.9,54-42.7
			c6.2-13.2,6.4-26.5-3.4-37.7c-13.5-15.5-29.9-26.8-49.9-31.4c-18.8-4.3-37.8-10.2-57.5-3.9c-4.6,0-9.4-0.9-13.7,0.2
			c-15.2,4.1-32.2,3.4-44.3,16c-6.5-2.5-13-5.3-19.6-7.4c-22.6-7.3-45.2-14.4-67.8-21.5c-36.5-7.5-72.7-18.3-109.5-21.7
			c-60.6-5.6-121.5-5.5-181.9,5.2c-7-8.7-14-17.4-22.3-27.6c7-2.4,11.8-4.9,17-5.8c23.3-4.1,45.4-11.8,65.7-23.7
			c26.9-15.7,39.7-35.1,34.8-66.9c-2.4-15.1-13.7-23.7-28.7-22.6c-17.9,1.3-35.9,4.5-53.7,3.8c-18-0.7-37.6-1.3-53.3-8.7
			c-31.4-14.7-62.8-28.3-96.8-35c-26.5-5.2-53.5-9.7-79.7,0c-8.9,3.3-15.9,11.5-23.8,17.5c-1.6,1.6-3.2,3.1-4.8,4.7
			c-0.4,0.7-0.5,1.5-0.4,2.3c-4.8,0.3-9.6,0.9-14.3,0.7c-35.4-1.4-70.8-3-106.1-4.5c-9.3-2.5-20.2-2.8-27.8-8
			c-36.2-24.9-77.2-37.3-119.1-46.5c-40-8.8-80.1-6.3-119,6.3c-22.8,7.4-42.6,20.2-55.6,41.4c-4,4-9.1,7.4-11.9,12.1
			c-22.9,38.5-53.2,68.8-93.8,88.3c-10,4.8-19.9,9.7-29.9,14.5c0.4,1.3,0.9,2.5,1.3,3.8c45.1-2.4,89.5-8.9,132.2-25.1
			c12.3-3.6,24.5-7.2,39.3-11.6c-6,13.5-11.2,25.1-16.2,36.7c-5.1,11.7-10.1,23.5-15.1,35.3c-2.8,15.8-5.6,31.7-8.4,47.5
			c-13.4,0-26.8,1-40.1-0.3c-33-3.1-63.1,4.3-90.4,23.1c-2.2,0.8-4.4,1.6-6.5,2.5c-10.4,0-20.8-0.2-31.2-0.1
			c-43.6,0.5-81.5,16.9-115.7,42.5c-16.8,12.6-15.9,16.8,1.8,28c0.5,0.3,0.9,0.8,1,0.9c-19.3,12.5-36,26.6-47,48.1
			c-8.8,17.2-4,39.3,14.3,51.4c18,11.8,37.9,13.8,58.4,12.4c25.8-1.7,47.1-19.8,55.1-44.1c2.5-7.6,8-14.2,12.2-21.2
			c1.5,15.9,3.3,31.8,4.5,47.7c0.7,9.1,1.8,18.6-0.4,27.1c-1,3.9-9.8,5.6-15,8.5c-1.7,1-3,2.7-4.5,4.1c-3.4,1.2-6.7,2.3-10.1,3.5
			c-14.2,5.6-28.4,11.2-42.5,16.8c-18.9,7.6-38.1,14.8-56.7,23.2c-13.6,6.2-26.5,14-39.7,21.1c-26.9,11.9-51.1,28.3-65.7,54.1
			c-8.1,14.4-15.8,33-13.7,48.4c4.2,31.7,23.5,57.6,47.7,78.5c9.8,8.4,21.9,14.3,32.9,21.3c-0.4,5.9,1.7,12.4-7.3,14.9
			c-13.4,3.8-26.4,9.2-39.8,13.3c-14.6,4.4-29.5,8.2-44.3,12c-16.8,4.3-34,7.3-50.5,12.8c-7.8,2.6-16.8,8.2-20.3,15
			c-3.6,7.1-2.9,17.8-0.5,25.9c1,3.4,11.2,4,17.3,5.9c1.6,0.3,3.2,0.7,4.9,1c1,0.6,1.9,1.2,2.9,1.8c20.7,2.6,41.5,5.2,62.2,7.9
			c0.2,19.2,1.3,38.5,0.5,57.6c-0.8,17.6,2.2,33.4,13.2,47.4c-20,4.3-38.7,11.7-56.3,22.4c-15.4,9.4-16.4,21.3-1.4,31.1
			c4.1,2.7,8.5,5.7,13.2,6.9c18,4.8,36,9.9,54.3,13.1c30.6,5.5,61.3,11.8,92.2,14c49.4,3.5,99,3.9,148.5,5.6
			C387.6,1071.7,388.3,1075.8,389,1080z"/>
		<path class="st1" d="M1031.7,911.9c2.5-1,5.1-2,7.6-3c23.4,0.6,46.8,1.3,70.1,1.9c6.7,2,13.4,4.1,20.1,6.1c0,0-0.2-0.1-0.2-0.1
			c9.2,10.1,18.5,20.1,27.7,30.2c1.7,6.7,4.3,13.3,4.8,20c1.4,21.1-13.3,40.8-40.9,50c-39.6,13.2-80.5,11.4-121.3,9
			c-14.8-0.9-29.5-3.6-45.3-5.6c18.3-14.3,36.3-19.2,58.8-17c25.4,2.5,51.5-1.1,77.1-3.9c20.9-2.2,27.1-10.9,27.1-32
			c0-5,0.6-10.2-0.6-15c-1.1-4.4-3.3-9.4-6.6-12.4c-21.2-19.1-65.1-9.2-83.2,8c-28.2,26.8-52.9,57.1-91.2,72.5
			c-29.7,12-59.8,20.4-90.8,26.6c-28,5.5-56.3,9.4-84.4,14c-41.9,4.2-83.9,8.3-125.8,12.5c-14.4,0.5-28.8,0.6-43.2,1.6
			c-4,0.3-7.8,3.2-11.8,4.8c-3.3,0-6.7,0-10,0c-4.2,0-8.4,0-12.6,0c-53.6,0-107.1,0-160.7,0c-0.7-4.9-1.4-9.8-2.1-14.8
			c0,0-0.4,0-0.4,0c7.3-0.9,14.5-2.4,21.8-2.6c32.4-1.1,64.8-1.5,97.1-2.8c15.7-0.6,31.3-2.5,47-3.8c35-2.2,70-4.5,105.1-6.7
			c26.7-3.1,53.5-5.8,80.2-9.4c32.8-4.4,65.4-9.6,98.1-14.5c14.2-3.8,28.4-7.5,42.6-11.3c30-8.3,53.6-26.4,75.5-47.7
			c14.7-14.3,30.3-27.7,46.2-40.6C1014.8,920.1,1023.7,916.5,1031.7,911.9z"/>
		<path class="st2" d="M1473.6,0c-3.1,0.8-6.2,2.4-9.3,2.4c-35.7,0.2-71.3,0.2-107,0c-3.1,0-6.2-1.6-9.3-2.4
			C1389.9,0,1431.7,0,1473.6,0z"/>
		<path class="st3" d="M579.8,1080c3.9-1.7,7.7-4.6,11.8-4.8c14.4-1,28.8-1.1,43.2-1.6c0.1,1.1,0.1,2.3,0.2,3.4c-4.2,1-8.3,2-12.5,3
			C608.3,1080,594.1,1080,579.8,1080z"/>
		<path class="st4" d="M394.5,1065.2c0.7,4.9,1.4,9.8,2.1,14.8c-2.5,0-5,0-7.5,0c-0.7-4.2-1.5-8.3-2.2-12.5
			C389.4,1066.8,391.9,1066,394.5,1065.2z"/>
		<path class="st3" d="M557.2,1080c4.2,0,8.4,0,12.6,0C565.6,1080,561.4,1080,557.2,1080z"/>
		<path class="st5" d="M136.5,974.3c-11-14-14-29.9-13.2-47.4c0.8-19.2-0.2-38.4-0.5-57.6c0-5.2,0-10.4,0-15.6
			c2-4.9,6.4-10.2,5.7-14.8c-1.6-10-0.6-18.2,7-25.2c2.5-2.1,4.7-5,7.6-6.1c29.1-10.6,58.4-20.9,87.6-31.5c2.7-1,5-3.1,7.5-4.7
			c26.8,2.4,53.6,4.8,80.4,7.2c-6.6,0.9-13.2,1.8-19.7,2.6c-1,0-2,0.1-3,0.1c-3.1,0-6.3,0-9.4,0c-11.6,0.3-23.5-1-34.7,1.1
			c-27.3,5-53.4,13.9-77.4,28.3c-6.1,3.6-12.8,6.7-11.1,15.8c-2.8,3.4-5.7,6.7-8.4,10.2c-3.8,5-8.4,10.1,0.4,14.8
			c2.6,3.7,5,7.6,7.8,11.2c2.4,3.1,5.3,5.8,7.9,8.7c5,0.9,9.9,1.7,14.9,2.6l-0.1-0.1c0.3,1.3,0.2,3.4,0.8,3.7
			c32.1,12.4,64.8,22,99.8,19.4c14.1,0.2,28.3,0.4,42.4,0.6c13.9-1,27.8-2,41.7-3.1c19.2-1.8,38.4-4.4,57.6-5.1
			c24.2-0.9,48.4,0.2,72.6-0.5c10-0.3,17.9,1.9,23.7,10.2c4.1,3.3,8.3,9.4,12.4,9.3c14.4-0.2,28.7-2.5,43-4
			c18.5-4.9,37.1-9.8,55.6-14.7c14.5-4,29.1-7.8,43.5-12.1c1.7-0.5,2.5-3.9,3.7-5.9c0,0,0.9-0.5,0.9-0.5l1,0.1
			c6.6,2.2,11.6,4.7,10.7,13.7c-1.6,15.6-2.1,31.3-2.4,46.9c-0.3,15.7,4.2,18.8,19.7,14.9c-0.9,3.1-0.9,7.1-2.9,9.1
			c-10.1,9.6-19.5,20.7-31.3,27.6c-26.3,15.2-55.4,23.5-85.2,30.1c-47.9,10.6-96.3,16.5-145,18.1c-69.7,2.3-139.3,1-208-14.4
			C203,1009.1,166,1000.9,136.5,974.3z"/>
		<path class="st6" d="M1654.6,683.7c4,0.6,8.1,1.8,12.1,1.9c45.1,0.4,89.7,5.2,133.6,15.6c4.6,1.1,9.9,6,11.6,10.5
			c2.8,7.3-2.6,11.4-9.5,13.1c-32.3,7.9-64.2,17.5-96.8,23.3c-38.8,6.8-78.3,10.4-117.5,15c-13.6,1.6-27.4,2.4-41.1,2.9
			c-26.2,1.1-52.5,2.5-78.8,2.3c-18.7-0.2-37.3-3.3-55.9-4.1c-7.7-0.3-16.2,0.2-23.2,3.1c-51,21.1-104.1,31.8-159,33.8
			c-32.9,1.2-66,3.9-98.8,2.1c-48.9-2.8-97.6-9.2-146.5-13.7c-33.5-3.1-67.2-5.5-100.7-8.2c-10.1-22.4-30.1-34.5-51.9-36.9
			c-40.4-4.5-81.3-4.1-122.1-5.7c-7.5-1-15-2-22.6-3c-10.9-1.1-21.8-2.3-34.6-3.6c2.5-4.1,4.8-7.7,7-11.3c1.7,1.3,3.5,3.9,5,3.7
			c13.2-1.1,26.4-2.8,39.6-4c48.3-4.1,96.6-8.1,144.9-12.2c12.8-1.1,25.6-2.1,38.4-3.2c7.6,7,15.2,13.9,22.8,20.9
			c14.4,20.9,31,39.2,58.5,40.4c32.8,1.5,63.7-6.6,93.1-21.5c3-1.5,9.3-0.7,11.9,1.5c8.2,7.2,14.4,16.7,23,23.1
			c17.8,13.3,36.2,26.8,60.9,21.5c6-1.3,12.2-1.9,18.3-2.9c15.2-4.1,30.5-8.1,45.7-12.4c1.3-0.4,1.9-3.3,2.9-5c0,0,0,0,0,0
			c4.2-1.6,8.4-3.2,12.7-4.8l0.2-0.1c1.6-0.8,3.2-1.6,4.8-2.4c0.6-0.3,1.3-0.4,2-0.4c4.4-1.7,8.7-3.4,13.1-5l-0.1,0
			c2.6-1.5,5.1-3.1,7.7-4.6l0.2-0.2c0.7-0.6,1.4-1.3,2.1-1.9c2.6-2.6,5.3-5.1,7.9-7.7c10.9-8.1,21.8-16.2,32.6-24.5
			c4.3-3.3,8.1-7.2,12.2-10.9c5.4,12.2,17,12.9,27.7,14.8c23.7,4.3,40-13.9,60.3-20.1c2.5,0.2,4.9,0.3,7.4,0.5
			c5.2,9.9,9.4,20.4,15.8,29.4c10.7,15,23.6,28.1,44.4,25.5c12.5-1.5,25.1-3.5,37.1-7c27.9-8.2,56.2-15.5,81-31.6
			c17.7-11.3,35.4-22.6,53.1-33.8C1649.5,685.3,1652,684.5,1654.6,683.7z"/>
		<path class="st7" d="M136.5,974.3c29.5,26.6,66.5,34.8,103.7,43.2c68.7,15.4,138.3,16.7,208,14.4c48.7-1.6,97.1-7.5,145-18.1
			c29.9-6.6,58.9-14.9,85.2-30.1c11.8-6.8,21.2-17.9,31.3-27.6c2-1.9,2-6,2.9-9.1c0.2-25,0.4-49.9,0.6-74.9c2.4,0.7,4.8,1.3,7.2,2
			c2.5,6.6,5.1,13.2,7.6,19.9c-0.8,12.8-1.9,25.6-2.5,38.4c-1.5,32.4,14.9,53.4,42.7,67.2c-27.4,9-54.7,18.3-82.2,27
			c-10.9,3.5-22.3,5.6-33.4,8.4c-11.7,2.5-23.4,4.9-35.1,7.7c-8.4,2-16.6,4.6-24.9,7c-11,1-21.9,2.1-32.9,3.1
			c-10.8,0.7-21.5,1.7-32.3,2c-36.6,1-73.2,1.4-109.8,3c-8,0.4-15.7,4.9-23.6,7.5c0,0,0.4,0,0.4,0c-2.6,0.8-5.1,1.5-7.7,2.3
			c-49.5-1.7-99.1-2.1-148.5-5.6c-30.9-2.2-61.6-8.5-92.2-14c-18.3-3.3-36.3-8.3-54.3-13.1c-4.7-1.2-9-4.2-13.2-6.9
			c-15-9.8-14-21.7,1.4-31.1C97.7,986,116.4,978.6,136.5,974.3z"/>
		<path class="st4" d="M361.4,404.4c-4.2,7-9.7,13.6-12.2,21.2c-8,24.3-29.3,42.4-55.1,44.1c-20.5,1.4-40.4-0.6-58.4-12.4
			c-18.3-12-23.1-34.2-14.3-51.4c11-21.5,27.7-35.7,47-48.1c-0.1-0.1-0.5-0.6-1-0.9c-17.7-11.2-18.6-15.4-1.8-28
			c34.2-25.6,72.1-42.1,115.7-42.5c10.4-0.1,20.8,0.1,31.2,0.1c12.2,4.3,24.5,8.5,36.7,12.8c14.1,12.1,28.1,24.2,43.9,37.7
			c-3.7-12.5-6.4-24.4-11-35.5c-2.7-6.5-8.3-11.7-12.6-17.6l0.5-0.5c15.1,3.9,25.9,18.1,27,37.5c1.8,29.4-3,56.9-18.8,83.1
			c-9.1,15.1-11.4,34.3-16.3,50.4c-2.8-21.4,2.7-42.9,13.1-63.1c8.3-16,15.2-33.1,6-49.5c-18.2-32.5-47.9-47.9-84.7-50.3
			c-22.2-1.5-44.1,0.1-65,8c-23.4,8.8-45.9,19.8-63.9,37.9c-4.6,4.6-6.9,9.9,3.3,12c16.7,3.4,30.7-2.5,42.5-12.9
			c23.5-20.8,51-30.1,80.9-23.3c48.2,10.9,58.1,51.8,47.6,93.8c-2.5,0-5,0-7.5,0c3-17-7.5-23.9-27.5-17.7
			c2.4,17.9,4.8,35.8,7.2,53.8c1.3,0.2,2.7,0.3,4,0.5c1.2-3.3,2.3-6.7,3.7-10c2.1-4.8,4.4-9.6,6.5-14.4c2.6,0.2,5.2,0.4,7.7,0.7
			c-0.8,2.4-1.5,4.8-2.3,7.2c-1.5,2.5-3.1,4.9-4.6,7.4c-1.6,4.5-4.5,9-4.7,13.6c-0.9,24.1-1.5,48.3-1.4,72.5c0,4.9,3.5,9.8,5.4,14.7
			c-1.6,5.3-3.1,10.5-4.7,15.8c-0.7-0.1-1.4-0.4-2-0.8c-2.4-4.2-4.8-8.3-7.1-12.5c4.8-51.5-8.5-100.6-18.8-151.4
			c-7.6,1.4-14.3,2.6-21.6,4c-0.3,4.4-0.6,8.1-0.8,11.7c-4.9-3.4-9.9-6.8-14.8-10.2c5.4-2.5,10.6-6.9,16.1-7.1
			c20.6-0.8,41.2-0.3,63.7-0.3c-2.7-3.4-4.6-6.3-7-8.7c-24.7-25.5-55.3-19.9-83.4-11.3c-29.5,9-46.3,32.1-49.8,64.2
			c-0.7,6.6-8.4,12.4-12.9,18.5c-4.7-3.8-10.2-6.9-13.9-11.5c-11.1-13.7-1.3-25.8,5.1-36.9c3.2-5.5,11.1-8.2,16.9-12.1
			c-1.3,2.8-1.9,6.5-4.1,8.3c-15.3,12.2-11.3,27.8-8.2,43.9c4.7-3.6,8.4-7.8,9.9-12.7c3.9-12.6,6.9-25.6,10.2-38.3
			c-2.1-0.4-4.9-0.9-7.7-1.4c10-14.5,26.3-19.1,41.5-24.3c24.1-8.3,49-11.2,74.7-7.6c5.6,0.8,16.1-0.4,14.6-9.2
			c-9.4-4.6-15.5-9.1-22.3-10.5c-23.6-5-47.3-2.3-69.7,5.6c-24.9,8.8-50.4,17.9-72.7,31.7c-14.1,8.7-26.7,24.7-33,40.2
			c-10.3,25.6,6.1,41.5,34.1,50.8c38.5,12.7,80.8-10.1,86.2-53.3c0.6-4.7,4.4-8.9,6.7-13.3C356.2,398.9,358.8,401.7,361.4,404.4z
			 M404.5,325.6c-9.9-8.3-39.8-10.3-53.5,0C371.2,325.6,388.1,325.6,404.5,325.6z"/>
		<path class="st3" d="M994,70.1c-0.1-0.8,0.1-1.6,0.4-2.3c1.6-1.6,3.2-3.1,4.8-4.7c7.9-6,14.9-14.2,23.8-17.5
			c26.2-9.7,53.2-5.3,79.7,0c34,6.7,65.4,20.3,96.8,35c15.7,7.4,35.3,8,53.3,8.7c17.8,0.7,35.8-2.5,53.7-3.8
			c15-1.1,26.3,7.5,28.7,22.6c5,31.8-7.9,51.2-34.8,66.9c-20.3,11.9-42.4,19.6-65.7,23.7c-5.1,0.9-9.9,3.3-17,5.8
			c8.3,10.2,15.3,18.9,22.3,27.6c1.7,2.3,3.5,4.6,5.2,6.9c2.5,4.9,4.9,9.8,7.4,14.7c1.5,1.7,3,3.4,4.5,5.1c1,3.5,2,6.9,2.9,10.4
			c1.5,1.6,3,3.1,4.5,4.7c1,6.7,1.9,13.3,2.9,20c-3.1,0-6.2,0-9.4,0c-0.2-1.5-0.3-3-0.5-4.6c-1.4-1.8-2.8-3.6-4.1-5.5
			c-2.7-8.4-5.5-16.8-8.2-25.2c-1.5-1.6-3-3.3-4.5-4.9c-2.7-5-5.4-10-8.1-15c-1.6-1.7-3.2-3.4-4.8-5.1c-5-6.7-10.4-13.2-14.8-20.3
			c-5.5-9-12.3-9.6-20.6-4.7c-49.3,8.4-98.7,16.9-148,25.3c0-1.9-0.1-3.9-0.1-5.8c1.9-0.7,3.9-1.6,5.9-2c33.9-6,67.8-11.8,101.7-18
			c20.5-3.7,40.7-8.7,61.3-11.9c31.4-5,61-14.3,87.8-31.8c19.5-12.7,29.1-41.9,20.2-63.2c-1.1-2.7-4.1-4.6-6.2-6.9
			c0-0.6-0.3-1-0.9-1.2c-2.9-0.1-5.8-0.2-8.7-0.4c-1.6,0.1-3.3,0.2-4.9,0.4c-10.9,1-21.8,1.9-32.7,2.9c-3.3,0-6.6,0-9.9,0
			c-22-1-44.4,1.4-65.3-8.4l0,0.1c-4.1-1.9-8.1-3.7-12.2-5.6c0,0-0.1,0.1-0.1,0.1c-2.6-1.7-5.1-3.4-7.7-5
			c-40.3-19.6-82.3-32.3-127.6-29.2c-15.3,1-30.2,5-38.9,19.9c-1.6,2.4-3.1,4.8-4.7,7.2c-0.2,1-0.4,1.9-0.5,2.9
			C998.6,75.3,996.3,72.7,994,70.1z"/>
		<path class="st7" d="M884.1,796c13.3,4.5,27.1,8,39.7,13.9c11.2,5.2,10.3,16.5-2,21.2c-20.8,8.1-41.8,16.7-63.5,21
			c-29.7,5.9-60.1,8.1-90.2,11.9c-8.7-7.8-17.4-15.6-28-25.1c6-2.2,9.9-4.3,14-4.9c26.3-3.6,52.9-5.7,79-10.6
			c11.4-2.2,21.8-9.8,32.6-15l-0.1,0.1C871.8,804.4,877.9,800.2,884.1,796z"/>
		<path class="st4" d="M760.6,1061.1c28.2-4.6,56.5-8.5,84.4-14c31-6.1,61.2-14.6,90.8-26.6c38.2-15.5,63-45.8,91.2-72.5
			c18.1-17.2,62.1-27,83.2-8c3.3,3,5.5,7.9,6.6,12.4c1.2,4.8,0.6,10,0.6,15c0,21.1-6.3,29.8-27.1,32c-25.6,2.7-51.8,6.3-77.1,3.9
			c-22.5-2.2-40.4,2.7-58.8,17c15.8,2,30.5,4.8,45.3,5.6c40.8,2.4,81.7,4.2,121.3-9c27.6-9.2,42.4-28.9,40.9-50
			c-0.5-6.7-3.1-13.3-4.8-20c2.3,0,4.6,0,6.9,0c6.5,14.4,9.8,29.2,0.6,43.3c-5.1,7.9-11.1,16.7-18.9,21.3
			c-25.2,14.9-53.8,19.5-82.6,20.7c-37.9,1.5-75.8,0.6-113.1-8c-3.3-0.8-7.4-0.4-10.5,0.9c-53.4,22.2-109.4,32.6-166.7,37.6
			c-4.1,0.4-8.2,1.2-12.4,1.8C760.6,1063.3,760.6,1062.2,760.6,1061.1z M989.2,996.4c8.9,0.6,17.1,1.9,25.2,1.6
			c25.3-0.8,50.6-1.7,75.9-3.5c13-0.9,17.8-11.3,18.9-22.4c2-19.5-3.3-30.2-15.7-35.2c-18.7-7.4-49,1.1-64.7,17.9
			C1016.1,968.4,1003.1,981.8,989.2,996.4z"/>
		<path class="st4" d="M884.1,796c-6.2,4.2-12.3,8.4-18.5,12.5c2.7-4.9,6.7-9.6,7.7-14.9c2.9-16.1-5.7-29.3-20.4-36.7
			c-35.3-18-72.9-12.4-110.6-10.9c10.9,5.8,22.2,10.5,33.9,12.1c22.8,3.2,44.4,7.8,59.9,28.9c-3.9,1.6-6.9,2.9-10,4.2
			c-2.6-4.7-4.1-11.1-8.1-13.9c-14.1-10-30.2-14.7-47.8-13.9c2,11.7,3.9,22.7,6.1,34.9c2.4-0.2,7.3-0.4,12.1-1.2
			c12.5-1.8,25.1-3.9,37.6-5.9c-7.6,3.1-15.3,9.2-22.7,8.8c-21.6-1.2-38.1,4.6-47.9,24.9c-0.5,1.1-0.9,2.2-2.8,6.6
			c30.2-5.2,58.3-9.8,86.3-15.1c9.1-1.7,17.8-5.3,26.7-8c-10.8,5.2-21.2,12.8-32.6,15c-26.1,4.9-52.6,7-79,10.6
			c-4.1,0.6-8,2.7-14,4.9c10.7,9.6,19.3,17.3,28,25.1c4.5,14.8,9.5,29.4,13.2,44.4c1.5,6.3,2.5,14.5-0.4,19.6
			c-6,10.6,0.3,18.1,3.5,26.6c1.4,3.7,3.5,7.3,5.2,10.9c-0.7,0.7-1.3,1.3-2,2c-12.6-5.8-20.3-24.7-15.6-37.8
			c1.4-4.1,3.4-8.9,2.5-12.7c-4-16.4-7.6-33.1-14.1-48.6c-7.1-16.9-24.5-23.3-37.6-16.8c0.4-2.4,0.7-4.8,1.1-7.2
			c11.6-10.7,24.1-20.6,34.5-32.4c16.2-18.4,12.2-42.1-9.1-54.9c-12.3-7.4-26.2-12.3-39.3-18.4c40.7,1.6,81.7,1.2,122.1,5.7
			c21.8,2.4,41.7,14.6,51.9,36.9C884.1,786.2,884.1,791.1,884.1,796z"/>
		<path class="st8" d="M549.3,261.1c2.8-15.8,5.6-31.7,8.4-47.5c3.3-1.7,6.5-3.5,9.8-5.2c5.9-1.7,11.7-3.5,17.6-5.2
			c1.7,0.1,3.3,0.3,5,0.3c11.6-0.6,24.6,1.2,28.3,12.4c4.2,12.7,5.2,27.4-9.7,37.4c-8,5.3-14.1,13.3-21.1,20c-3.4,1-6.7,2-10.1,3
			c-8.4-3.4-16.8-6.7-25.2-10.1C551.3,264.4,550.3,262.8,549.3,261.1z"/>
		<path class="st9" d="M122.9,853.6c0,5.2,0,10.4,0,15.6c-20.7-2.6-41.5-5.2-62.2-7.9c-1-0.6-1.9-1.2-2.9-1.8
			c-1.6-0.3-3.2-0.7-4.9-1c-12.7-11.6-17.1-24-9.3-31c6.7-6,15.2-11.1,23.8-13.8c32-10.2,67.1-6.3,98-24.5
			c17.9-10.5,40.1-13.8,60.4-20.3c4.1,0.8,8.3,1.6,12.4,2.3c-2.5,1.6-4.8,3.8-7.5,4.7c-29.2,10.5-58.4,20.8-87.6,31.5
			c-2.9,1.1-5.1,4-7.6,6.1c-2.9,0.1-5.9-0.4-8.7,0.2c-15.2,3.3-30.7,6-45.4,10.7c-3.9,1.3-7.9,8.8-8,13.5c-0.1,3.2,6.2,8.5,10.4,9.4
			C96.6,850.5,109.8,851.7,122.9,853.6z"/>
		<path class="st3" d="M1654.6,683.7c-2.5,0.8-5,1.6-7.6,2.4c0-3.3-0.1-6.5-0.1-9.8c4.9-4.2,10.8-7.8,14.6-12.9
			c18.7-24.3,42.6-43.6,57.6-71.8c14.4-27.1,25-54.6,31.3-84.3c8.8-14,3.6-28.9,2.9-43.5c0-0.7-2-1.2-3.1-1.8
			c-0.2-4.2-0.3-8.3-0.5-12.5c-1.5-1.7-2.9-3.4-4.4-5.1c-1.1-7.5-2.1-15-3.2-22.5c4,0,8,0,12,0c1.6,7.6,3.2,15.3,4.8,22.9
			c1,2.4,1.9,4.8,2.8,7.2c0.2,21.6,3,43.6-0.3,64.7c-3.1,20.1-11,40-19.7,58.7c-7.9,16.9-18.4,33.3-30.4,47.6
			C1693.7,644.4,1673.6,663.6,1654.6,683.7z"/>
		<path class="st4" d="M994,70.1c2.3,2.6,4.6,5.1,6.9,7.7c3.3,5.5,5.9,11.5,9.9,16.5c22.1,27.8,31.8,59.7,30.7,94.8
			c-0.3,9.8-3,19.5-4.6,29.3c-0.9,3.4-1.8,6.7-2.7,10.1c-0.4,0.5-0.9,0.9-1.3,1.4c0.3,0.1,0.9,0.3,0.9,0.3c0.2-0.5,0.4-1,0.6-1.5
			c3.3-0.2,6.6-0.3,9.9-0.5c0,1.9,0.1,3.9,0.1,5.8c-7.7,2.7-15.3,5.3-25.2,8.8c1.5-7.8,1.9-11.9,3.1-15.7c1.1-3.7,3.7-7.1,4.4-10.9
			c8.2-44.1-1.3-84.4-27.3-120.6c-6.4-8.9-13.4-17.7-27.4-18c-32.8-0.7-65.6-3.2-98.4-5.1c0-2,0-4,0-6c35.4,1.5,70.8,3.1,106.1,4.5
			C984.4,71,989.2,70.4,994,70.1z"/>
		<path class="st10" d="M361.4,404.4c-2.6-2.7-5.2-5.5-7.8-8.2c1.6-1.5,3.3-3,4.9-4.6c4.9,3.4,9.9,6.8,14.8,10.2
			c0.4,28.4-1.8,57.1,1.9,85.1c6.8,50.9-8.6,96.4-30.4,140c-11.7,23.5-29,44.2-43.7,66.2c-1.2-0.2-2.4-0.4-3.6-0.6
			c1.3-4.8,1.7-10.1,4.2-14.2c13.9-22.2,28.6-43.9,42.3-66.2c3.7-6,4.3-13.9,7.4-20.4c11.4-23.7,16.7-48.6,16.9-74.9
			c-3.9-0.8-6.8-1.4-9.8-2.1c1.5-1.7,3-3.4,4.6-5.1l0.8,0.1l0.8-0.1c1-7,2.1-13.9,3.3-22.3c-8.3,2.8-14.1,4.6-19.8,6.5
			c-0.8-0.8-1.5-1.5-2.3-2.3c1.5-1.4,2.8-3.1,4.5-4.1c5.1-2.9,14-4.6,15-8.5c2.3-8.5,1.1-18.1,0.4-27.1
			C364.7,436.2,362.9,420.3,361.4,404.4z"/>
		<path class="st3" d="M873.5,66.4c0,2,0,4,0,6c-4.3,0.4-8.5,0.7-9.3,0.8c-3,8.7-5.3,15.5-8.4,24.7c-6-4.8-10-8-13.9-11.1
			c4.3-0.4,8.6-0.8,13.1-1.2c-6.9-26.7-88.4-66.2-139.4-68.6c-1.7-0.5-3.4-1-5.1-1.5c-5.2-0.6-10.3-1.2-15.5-1.8
			c-14.1,0.5-28.4-0.5-42.3,1.6c-28.6,4.3-56.6,11.1-78.3,32.3c-7.6,7.4-14.7,15.5-22,23.3c-0.2-3.8-0.3-7.5-0.5-11.3
			c13.1-21.2,32.8-34,55.6-41.4c38.9-12.6,79.1-15.1,119-6.3c42,9.2,82.9,21.6,119.1,46.5C853.3,63.6,864.2,63.9,873.5,66.4z"/>
		<path class="st10" d="M551.9,59.6c0.2,3.8,0.3,7.5,0.5,11.3c-4,5.4-9.1,10.3-11.7,16.3c-11.9,27.4-35.6,43.7-57.5,61.6
			c-8.5,7-19.3,11.3-29,16.8c0.4,1.3,0.9,2.6,1.3,3.9c23-5.5,46-11.1,69-16.6c0.9-0.1,1.7-0.1,2.6-0.2c5.8-1.8,11.6-3.5,17.3-5.3
			c1.7,0.1,3.4,0.2,5,0.3c0.1,1.8,0.1,3.6,0.2,5.4c-42.7,16.3-87.1,22.8-132.2,25.1c-0.4-1.3-0.9-2.5-1.3-3.8
			c10-4.8,19.9-9.7,29.9-14.5c40.6-19.5,71-49.9,93.8-88.3C542.8,67,547.9,63.6,551.9,59.6z"/>
		<path class="st10" d="M1245.3,239c-1.7-2.3-3.5-4.6-5.2-6.9c60.4-10.7,121.3-10.8,181.9-5.2c36.9,3.4,73.1,14.2,109.5,21.7
			c-0.9,1.8-1.8,3.5-2.7,5.3c-43.9-8.9-87.6-18.4-132.7-21C1345.4,229.9,1295.4,232.2,1245.3,239z"/>
		<path class="st11" d="M1676.9,261.2c19.7-6.3,38.7-0.4,57.5,3.9c20,4.6,36.4,15.9,49.9,31.4c9.9,11.3,9.6,24.5,3.4,37.7
			c-11.1,23.7-32.8,32.5-54,42.7c-3.1-2.6-6.1-5.2-9.2-7.8c19.5-4.1,33.6-14.7,43.2-32.6c9.3-17.3,5.6-38.5-10.7-50.2
			c-2.1-1.9-3.9-4.4-6.4-5.6C1727.3,269.9,1703.3,261,1676.9,261.2z"/>
		<path class="st12" d="M198.2,758.7c-11-7-23.1-12.8-32.9-21.3c-24.3-20.9-43.5-46.7-47.7-78.5c-2-15.4,5.6-34,13.7-48.4
			c14.5-25.8,38.7-42.2,65.7-54.1c0.6,0.6,1.3,1.2,1.9,1.8c-1.7,2.2-2.9,5.4-5.1,6.5c-27.8,13-49.5,32.5-62.2,60.6
			c-4.3,9.5-7.6,20.7-6.9,30.7c0.8,10.3,6.8,20.2,11.2,30.1c10.1,22.9,24.5,42.4,46.7,55.1c13.5,7.6,27.2,14.8,40.8,22.2
			c0,1.5-0.1,3-0.1,4.6C214.9,764.8,206.6,761.8,198.2,758.7z"/>
		<path class="st4" d="M1031.7,911.9c-8.1,4.6-16.9,8.2-24,14c-15.9,12.9-31.5,26.3-46.2,40.6c-21.9,21.3-45.5,39.4-75.5,47.7
			c-0.9-0.7-1.8-1.3-2.6-2c-3-2.2-5.8-5.2-9.1-6.3c-17.6-5.7-35.8-9.6-52.8-16.6c-12.2-5-26.9-7.8-33.7-21.8c0.7-0.7,1.3-1.3,2-2
			c28.1,20,60,30.6,93.3,37.4c7.1,1.5,15.8,0.2,22.4-2.8c25.1-11.3,44.6-30.1,62.7-50.2c14.4-16.1,31.4-28.5,51.5-36.4
			C1023.4,912.1,1027.7,912.4,1031.7,911.9z"/>
		<path class="st2" d="M198.2,758.7c8.4,3.1,16.7,6.1,25.1,9.2c0.8,0.4,1.7,0.8,2.5,1.1c-20.3,6.5-42.5,9.8-60.4,20.3
			c-30.9,18.2-66,14.3-98,24.5c-8.6,2.7-17.1,7.8-23.8,13.8c-7.8,7-3.4,19.4,9.3,31c-6-1.9-16.3-2.5-17.3-5.9
			c-2.4-8.1-3.1-18.8,0.5-25.9c3.4-6.8,12.5-12.4,20.3-15c16.4-5.5,33.6-8.5,50.5-12.8c14.8-3.8,29.7-7.6,44.3-12
			c13.4-4,26.3-9.5,39.8-13.3C199.9,771.1,197.8,764.6,198.2,758.7z"/>
		<path class="st13" d="M1676.9,261.2c26.4-0.2,50.4,8.7,73.8,19.5c2.5,1.1,4.3,3.7,6.4,5.6c-11.7-2.5-23.3-5-35-7.5
			c-15.5-1.7-31-5-46.5-4.6c-13.6,0.3-27.3,4.3-36.2,16.8c-6.8-4.5-13.7-9-20.5-13.4c12.1-12.6,29.1-11.9,44.3-16
			C1667.5,260.3,1672.3,261.3,1676.9,261.2z"/>
		<path class="st3" d="M1618.9,277.5c6.8,4.5,13.7,9,20.5,13.4c0.7,0.3,1.5,0.5,2.3,0.5c15.9,12.6,31.7,25.3,47.6,37.9
			c-1.7,1.7-3.3,3.4-5,5.1c-7.8-6.4-15-13.7-23.4-19.1c-10-6.4-21-11.2-31.6-16.7l0,0c-15.5-17.4-36.5-24.1-57.9-29.9
			c-14.2-5-28.4-10-42.6-15c0.9-1.8,1.8-3.5,2.7-5.3c22.6,7.2,45.2,14.2,67.8,21.5C1605.9,272.2,1612.4,275,1618.9,277.5z"/>
		<path class="st4" d="M1684.3,334.5c1.7-1.7,3.3-3.4,5-5.1c2.5-0.1,5.1-0.2,7.6-0.3c0,1.7,0.1,3.3,0.1,5c6,6.6,12,13.2,18,19.8
			c3.2,5.1,6.4,10.1,9.5,15.2c3.1,2.6,6.1,5.2,9.2,7.8c6.8,15,13.5,30,20.3,45.1c-4,0-8,0-12,0c-1.8-2.9-3.6-5.7-5.2-8.6
			c-9.1-15.6-18.2-31.2-27.2-46.8C1701.2,356,1692.8,345.2,1684.3,334.5z"/>
		<path class="st14" d="M549.7,153.2c-0.1-1.8-0.1-3.6-0.2-5.4c16.8-6.5,33.6-13.1,50.4-19.6c1,1.7,1.9,3.4,2.9,5.1
			c-11.8,25-23.5,50.1-35.3,75.1c-3.3,1.7-6.5,3.5-9.8,5.2c5-11.8,10-23.6,15.1-35.3c5.1-11.6,10.3-23.2,16.2-36.7
			C574.3,145.9,562,149.5,549.7,153.2z"/>
		<path class="st3" d="M549.3,261.1c1,1.7,1.9,3.3,2.9,5c-12.3,0.8-24.6,1.6-36.8,2.4c-2.3,0.3-4.7,0.5-7,0.8
			c-22.4-4.1-44.4-5.1-65.4,8.5c9.7,1.9,18.3,3.7,26.9,5.4c0,0-0.5,0.5-0.5,0.5c-1.7,0.2-3.4,0.3-5.1,0.5
			c-15.1-0.1-30.2-0.2-45.3-0.3c27.3-18.8,57.3-26.1,90.4-23.1C522.5,262.1,535.9,261.1,549.3,261.1z"/>
		<path class="st12" d="M197,556.4c13.2-7.1,26.1-15,39.7-21.1c18.6-8.4,37.8-15.6,56.7-23.2c14.1-5.7,28.3-11.2,42.5-16.8
			c0.2,1.4,0.3,2.9,0.5,4.3c-32.7,14.1-65.5,28.2-98.2,42.2c-13,5.6-26.1,10.9-39.2,16.4C198.2,557.6,197.6,557,197,556.4z"/>
		<path class="st10" d="M760.6,1061.1c0,1.1,0,2.2,0,3.3c-41.8,4.2-83.7,8.4-125.5,12.6c-0.1-1.1-0.1-2.3-0.2-3.4
			C676.7,1069.4,718.7,1065.3,760.6,1061.1z"/>
		<path class="st13" d="M418.9,283.9c15.1,0.1,30.2,0.2,45.3,0.3c0.2,10.3-6.3,13.8-15.1,14.9c-12.2-4.3-24.5-8.5-36.7-12.8
			C414.5,285.6,416.7,284.7,418.9,283.9z"/>
		<path class="st12" d="M1164.1,946.9c-2.3,0-4.6,0-6.9,0c-9.2-10.1-18.5-20.1-27.7-30.2C1147,919.9,1157.3,931.4,1164.1,946.9z"/>
		<path class="st3" d="M1109.5,910.8c-23.4-0.6-46.8-1.3-70.1-1.9c23.2-8.7,46.7-5.6,70.1-1.5
			C1109.5,908.5,1109.5,909.7,1109.5,910.8z"/>
		<path class="st12" d="M1109.5,910.8c0-1.1,0-2.3,0-3.4c6.7,3.2,13.4,6.4,20.1,9.5C1122.9,914.9,1116.2,912.8,1109.5,910.8z"/>
		<path class="st10" d="M336.3,499.6c-0.2-1.4-0.3-2.9-0.5-4.3c3.4-1.2,6.7-2.3,10.1-3.5c0.8,0.8,1.5,1.5,2.3,2.3
			C344.3,496,340.3,497.8,336.3,499.6z"/>
		<path class="st4" d="M1761.8,452.1c-0.9-2.4-1.9-4.8-2.8-7.2C1759.9,447.3,1760.8,449.7,1761.8,452.1z"/>
		<path class="st4" d="M999.2,63.2c-1.6,1.6-3.2,3.1-4.8,4.7C996,66.3,997.6,64.7,999.2,63.2z"/>
		<path class="st2" d="M57.7,859.5c1,0.6,1.9,1.2,2.9,1.8C59.6,860.8,58.7,860.1,57.7,859.5z"/>
		<path class="st12" d="M768.3,999.5c-27.7-13.8-44.2-34.9-42.7-67.2c0.6-12.8,1.7-25.6,2.5-38.4c2.2,7.6,7.7,16,6,22.6
			c-3.2,12.5-1.4,23.5,0.8,35.7c2.3,13,8.6,22.6,18.2,29.7c26.9,20.1,57.5,32.4,90.2,39.8c0.1,1.3,0.2,2.5,0.2,3.8
			c-32.7,4.9-65.4,10-98.1,14.5c-26.7,3.6-53.5,6.3-80.2,9.4c0-0.9,0-1.7,0-2.6c36.6-4.8,73.3-9.5,109.8-14.6
			c14.4-2,28.7-5,43.1-7.5c0.1-1.4,0.2-2.8,0.3-4.2c-11.5-3.9-23-7.7-34.6-11.6C778.6,1005.7,773.4,1002.6,768.3,999.5z"/>
		<path class="st4" d="M394.1,1065.2c7.9-2.6,15.6-7.2,23.6-7.5c36.6-1.6,73.2-2,109.8-3c10.8-0.3,21.5-1.3,32.3-2
			c0.1,1.1,0.2,2.2,0.3,3.3c-15.7,1.3-31.3,3.2-47,3.8c-32.4,1.3-64.8,1.7-97.1,2.8C408.6,1062.8,401.4,1064.3,394.1,1065.2z"/>
		<path class="st3" d="M560.1,1056c-0.1-1.1-0.2-2.2-0.3-3.3c11-1,21.9-2.1,32.9-3.1c24.1-0.9,48.3-1.9,72.4-2.8c0,0.9,0,1.7,0,2.6
			C630.1,1051.5,595.1,1053.7,560.1,1056z"/>
		<path class="st15" d="M843.5,1025.4c-0.1-1.3-0.2-2.5-0.2-3.8c13.4-3.2,26.8-6.3,40.1-9.5c0.9,0.7,1.8,1.3,2.6,2
			C871.9,1017.9,857.7,1021.6,843.5,1025.4z"/>
		<path class="st16" d="M710.2,738.6c13.2,6,27,10.9,39.3,18.4c21.3,12.8,25.2,36.5,9.1,54.9c-10.4,11.8-22.9,21.7-34.5,32.4
			c-7.2,5.7-14.3,11.4-21.5,17.1c-6,3.3-12,6.5-18,9.8l-1-0.1c0,0-0.9,0.5-0.9,0.5c-15.7,6-31.4,12-47.2,18.1
			c-18.5,4.9-37.1,9.8-55.6,14.7c-2.3-0.3-4.6-0.6-6-0.8c1.2-5.2,2.2-9.9,3.3-14.6c-0.1-5.9,1.2-10.8,8-12.2c2.5-0.8,5-1.6,7.5-2.4
			c8.4-2.5,16.7-5.1,25.1-7.6c15.9-6.5,31.8-13.1,47.7-19.6c1.6-0.5,3.1-0.9,4.7-1.4c0.8-0.7,1.5-1.3,2.3-2c1.1-1.5,2.1-3,3.2-4.5
			c6.7-5,13.3-10.1,20-15.1c5.9-5.7,11.8-11.4,17.7-17c16-17.4,12-39.8-13-45.6c-19.9-1.1-39.8-2.2-59.7-3.3
			c2.1-4.1,4.3-8.2,6.4-12.4c4.7-2.5,9.1-6.1,14-7.1c8.7-1.9,17.7-2.2,26.5-3.1C695.1,736.6,702.6,737.6,710.2,738.6z"/>
		<path class="st17" d="M524.4,899.1c-5.8-8.3-13.7-10.5-23.7-10.2c-24.2,0.7-48.4-0.4-72.6,0.5c-19.2,0.7-38.4,3.3-57.6,5.1
			c-8-0.3-16.1-0.5-24.1-0.8c-0.9,0-1.7-0.1-2.6-0.1c-1.7,0-3.3-0.1-5-0.1c-0.8,0-1.6,0-2.4,0c-2.5,0.4-4.9,0.8-7.4,1.2
			c-2.5-0.4-5-0.9-7.6-1.3c-2.6-2.3-5.1-4.7-7.7-7c8.9,0,17.8,0.6,26.7-0.2c2.9-0.3,5.5-4,8.2-6.1c16.4-1.7,32.9-3.2,49.2-5.3
			c6.9-0.9,14-2,20.4-4.6c27.4-11.2,54.8-13,81.7,0.3c9.1,4.5,16.5,12.2,24.7,18.4C524.6,892.3,524.5,895.7,524.4,899.1z"/>
		<path class="st18" d="M122.9,853.6c-13.1-1.9-26.3-3.1-39.1-6c-4.2-0.9-10.5-6.2-10.4-9.4c0.1-4.7,4.1-12.3,8-13.5
			c14.8-4.7,30.2-7.4,45.4-10.7c2.8-0.6,5.8-0.2,8.7-0.2c-7.5,7-8.5,15.2-7,25.2C129.2,843.4,124.9,848.7,122.9,853.6z"/>
		<path class="st18" d="M684.6,871.3c6-3.3,12-6.5,18-9.8c3.5,3.5,7.1,7,10.6,10.5c-0.2,25-0.4,49.9-0.6,74.9
			c-15.5,3.9-20,0.8-19.7-14.9c0.3-15.7,0.8-31.4,2.4-46.9C696.2,876,691.2,873.5,684.6,871.3z"/>
		<path class="st14" d="M298.9,781.2c6.6-0.9,13.2-1.8,19.7-2.6c1.8,1.2,3.5,2.4,5.6,3.7c-8.4,2.2-15.7,4.2-23.1,6.1
			c-31,8.5-62.4,15.6-92.7,25.9c-16.2,5.5-30.8,16.1-37.4,33.7c2.6,2.9,4.9,5.6,7.2,8.3c0,1.6-0.1,3.2-0.1,4.8
			c-7.6-3.2-15.3-6.3-22.9-9.5c-8.8-4.7-4.1-9.9-0.4-14.8c2.7-3.5,5.6-6.8,8.4-10.2c21.5-8.5,42.9-17.6,64.7-25.3
			c14.7-5.2,30.2-8.2,45.2-12.8c4.8-1.4,8.9-4.7,13.4-7.2c3.1,0,6.3,0,9.4,0C296.9,781.3,297.9,781.2,298.9,781.2z"/>
		<path class="st18" d="M155.2,851.6c7.6,3.2,15.3,6.3,22.9,9.5c14.8,4.7,29.4,11.1,44.6,13.6c30.2,5,60.7,7.9,91.1,11.7
			c2.6,2.3,5.1,4.7,7.7,7c-11.6,0.2-23.1,0.5-34.7,0.7c-25.2-4.2-50.4-8.1-75.5-12.8c-8.7-1.6-17-4.9-25.5-7.4c0,0,0.1,0.1,0.1,0.1
			c-4.4-4.1-8.2-12.1-14.9-2.6c-2.7-2.9-5.5-5.6-7.9-8.7C160.2,859.2,157.8,855.3,155.2,851.6z"/>
		<path class="st18" d="M286.5,781.3c-4.4,2.4-8.6,5.7-13.4,7.2c-15,4.6-30.5,7.6-45.2,12.8c-21.8,7.7-43.2,16.8-64.7,25.3
			c-1.7-9.1,5-12.2,11.1-15.8c24-14.4,50.1-23.4,77.4-28.3C263,780.3,274.9,781.5,286.5,781.3z"/>
		<path class="st4" d="M301.2,788.4c7.3-1.9,14.7-3.9,23.1-6.1c-2.1-1.4-3.8-2.6-5.6-3.7c-26.8-2.4-53.6-4.8-80.4-7.2
			c-4.1-0.8-8.3-1.6-12.4-2.3c-0.8-0.4-1.7-0.8-2.5-1.1c0-1.5,0.1-3,0.1-4.6c75.6,20.3,149.3,15.4,221-16.8c0.2,1.1,0.3,2.2,0.5,3.4
			c-1.3,1.1-2.4,2.7-3.9,3.1c-29.8,9.4-59.3,19.6-89.4,27.7C335.3,785,318,785.9,301.2,788.4z"/>
		<path class="st19" d="M185.7,873.9c8.5,2.5,16.8,5.8,25.5,7.4c25.1,4.6,50.3,8.6,75.5,12.8c-0.1,1-0.2,1.9-0.3,2.9
			c-35,2.5-67.7-7-99.8-19.4C185.9,877.3,186,875.2,185.7,873.9z"/>
		<path class="st4" d="M524.4,899.1c0.1-3.4,0.1-6.8,0.2-10.3c1.7,1.5,4.6,2.9,4.8,4.5c1.3,12.2,9.9,12.9,18.8,11.9
			c10.1-1.1,21.2-2,22-16.2c2.3,0,4.6,0.1,6.9,0.1c-1.1,4.7-2.1,9.4-3.3,14.6c1.4,0.2,3.7,0.5,6,0.8c-14.3,1.5-28.7,3.8-43,4
			C532.8,908.5,528.6,902.4,524.4,899.1z"/>
		<path class="st3" d="M635.5,889.8c15.7-6,31.4-12,47.2-18.1c-1.2,2-2,5.4-3.7,5.9C664.6,882,650,885.8,635.5,889.8z"/>
		<path class="st20" d="M286.4,897c0.1-1,0.2-1.9,0.3-2.9c11.6-0.2,23.2-0.5,34.7-0.7c2.5,0.4,5,0.9,7.6,1.3c-0.1,1-0.1,1.9-0.2,2.9
			C314.7,897.4,300.5,897.2,286.4,897z"/>
		<path class="st13" d="M328.8,897.6c0.1-1,0.1-1.9,0.2-2.9c2.5-0.4,4.9-0.8,7.4-1.2c0,0,1.2,0.3,1.2,0.3l1.2-0.2
			c1.7,0,3.3,0.1,5,0.1c0.9,0,1.7,0.1,2.6,0.1c8,0.3,16.1,0.5,24.1,0.8C356.6,895.5,342.7,896.6,328.8,897.6z"/>
		<path class="st19" d="M170.9,871.4c6.7-9.5,10.5-1.5,14.9,2.6C180.9,873.1,175.9,872.3,170.9,871.4z"/>
		<path class="st18" d="M298.9,781.2c-1,0-2,0.1-3,0.1C296.9,781.3,297.9,781.2,298.9,781.2z"/>
		<path class="st21" d="M887.9,705.1c-12.8,1.1-25.6,2.1-38.4,3.2c-48.3,4-96.6,8-144.9,12.2c-13.2,1.1-26.3,2.9-39.6,4
			c-1.6,0.1-3.4-2.4-5-3.7c0.7-2.7,1.6-5.5,2.1-8.2c3-17.7,8-35.3,8.2-53.1c0.1-12.5-7.3-24.9-9.8-37.7c-4.9-25.5-8.7-51.2-13-76.8
			c1.3-6.7,2.6-13.3,3.8-20c0.2-1.7,0.4-3.4,0.6-5.1c1.4-6.8,2.7-13.6,4.2-20.8c3.7,0.2,6.6,0.1,9.4,0.6c39,6.9,78.1,13.5,117,21.3
			c5.3,1,9.8,7.3,14,11.8c11.6,12.3,22.9,25,34.3,37.5c5.1,6.6,12.6,12.4,14.7,19.8c5.5,19.2,8,39.3,13.1,58.7
			c2.5,9.5,8.4,18,12.7,27C876.9,685.5,882.4,695.3,887.9,705.1z"/>
		<path class="st8" d="M1176.3,788.3c-6.1,0.9-12.3,1.6-18.3,2.9c-24.7,5.3-43-8.2-60.9-21.5c-8.6-6.4-14.8-16-23-23.1
			c-2.6-2.2-8.8-3.1-11.9-1.5c-29.3,14.8-60.3,22.9-93.1,21.5c-27.4-1.2-44.1-19.5-58.5-40.4c1.1-0.1,2.3-0.3,3.4-0.4
			c5.8,2.6,11.5,5.1,17.3,7.7l-0.1-0.1c3.3,1.7,6.6,3.3,9.8,5c8.9,2,17.8,4.1,26.7,6.1c32.4,7.2,64,7.5,93.7-10.4
			c4.2-0.1,8.3-0.2,12.5-0.3c17.2,23.4,42.5,29.9,69.3,33.1c8.8,1,17.6,2.1,26.3,3.1c2.5,5.4,5.1,10.8,7.6,16.2
			C1176.9,786.8,1176.5,787.5,1176.3,788.3z"/>
		<path class="st8" d="M1593.9,720c-24.8,16.1-53.1,23.4-81,31.6c-12,3.5-24.6,5.5-37.1,7c-20.8,2.5-33.7-10.5-44.4-25.5
			c-6.4-9-10.6-19.6-15.8-29.4c0.3-2.5,0.7-5,1-7.5c10.2,13.3,22.1,24.2,39.5,26.9c9.2,4.3,18.4,8.5,27.6,12.8
			c16,6.7,32.4,5.2,48.1,0.3c20.2-6.3,39.9-14.5,59.8-22C1592.4,716.1,1593.1,718.1,1593.9,720z"/>
		<path class="st10" d="M647.6,544.9c4.3,25.6,8.1,51.3,13,76.8c2.5,12.8,9.9,25.2,9.8,37.7c-0.2,17.7-5.2,35.4-8.2,53.1
			c-0.5,2.8-1.4,5.5-2.1,8.2c-2.2,3.6-4.5,7.2-7,11.3c12.8,1.3,23.7,2.5,34.6,3.6c-8.9,1-17.9,1.3-26.5,3.1c-5,1.1-9.4,4.7-14,7.1
			c-2.3,0-4.6,0.1-6.9,0.1c5.3-15.2,12.5-30,15.5-45.7c3.3-17.5,5-36,3.3-53.7c-1.9-19.1-8.9-37.7-13.1-56.7
			c-2.2-10-4.6-20.1-4.7-30.2c-0.2-9.1,2.5-18.3,4-27.5C645.8,536.4,646.7,540.7,647.6,544.9z"/>
		<path class="st8" d="M1408.2,703.2c-20.3,6.3-36.6,24.4-60.3,20.1c-10.7-1.9-22.4-2.6-27.7-14.8c0.9-4.3,1.8-8.5,2.8-12.8
			c1.7-0.1,3.5-0.1,5.2-0.2c8.8,1.9,17.6,3.7,26.4,5.6c17.9,0.7,35.9,1.5,53.8,2.2L1408.2,703.2z"/>
		<path class="st14" d="M1177.3,786.1c-2.5-5.4-5.1-10.8-7.6-16.2c37.9-1.3,72.7-13.2,105.2-32.1c0.2,2.1,0.4,4.1,0.5,6.2
			c-2.6,2.6-5.3,5.1-7.9,7.7c-0.7,0.6-1.4,1.3-2.1,1.9c0,0-0.2,0.2-0.2,0.2c-2.6,1.5-5.1,3.1-7.7,4.6c0,0,0.1,0,0.1,0
			c-4.4,1.7-8.7,3.4-13,5c-0.7-0.1-1.3,0.1-2,0.4c-1.6,0.8-3.2,1.6-4.8,2.4c0,0-0.2,0.1-0.2,0.1c-4.2,1.6-8.4,3.2-12.7,4.8
			c0,0,0,0,0,0C1209,776,1193.2,781,1177.3,786.1z"/>
		<path class="st3" d="M1275.5,743.9c-0.2-2.1-0.4-4.1-0.5-6.2c0.7-1.4,1.1-3.3,2.2-4c15.9-10.6,28.8-24,38.6-40.4
			c2.4,0.8,4.8,1.7,7.2,2.5c-0.9,4.3-1.8,8.5-2.8,12.8c-4,3.6-7.9,7.5-12.2,10.9C1297.3,727.7,1286.3,735.7,1275.5,743.9z"/>
		<path class="st14" d="M1593.9,720c-0.8-1.9-1.5-3.9-2.3-5.8c18.4-12.6,36.8-25.2,55.3-37.8c0,3.3,0.1,6.5,0.1,9.8
			C1629.3,697.4,1611.6,708.7,1593.9,720z"/>
		<path class="st14" d="M914.2,725.6c-1.1,0.1-2.3,0.3-3.4,0.4c-7.6-7-15.2-13.9-22.8-20.9c-5.5-9.8-11-19.6-16.5-29.4c4,0,8,0,12,0
			c0.5,0.6,0.8,1.3,0.7,2.1c2.4,4.2,4.8,8.5,7.2,12.7l0,0c1.9,4.3,3.1,9.1,5.7,12.9C902.3,711.1,908.4,718.2,914.2,725.6z"/>
		<path class="st14" d="M1416.6,696.2c-0.3,2.5-0.6,5-1,7.5c-2.5-0.2-4.9-0.3-7.4-0.5c0,0,0.1,0.2,0.1,0.2
			c-5.5-7.4-11-14.7-16.6-22.1c-1-3.5-2-7-3-10.5c3.8-1.7,7.5-3.3,11.3-5C1398.8,679.6,1410.4,686.4,1416.6,696.2z"/>
		<path class="st7" d="M1177.3,786.1c15.9-5.1,31.7-10.1,47.6-15.2c-0.9,1.7-1.6,4.6-2.9,5c-15.2,4.4-30.4,8.3-45.7,12.4
			C1176.5,787.5,1176.9,786.8,1177.3,786.1z"/>
		<path class="st7" d="M1224.9,770.9c4.2-1.6,8.4-3.2,12.7-4.8C1233.3,767.7,1229.1,769.3,1224.9,770.9z"/>
		<path class="st7" d="M1244.5,763.3c4.3-1.7,8.7-3.4,13-5C1253.2,759.9,1248.9,761.6,1244.5,763.3z"/>
		<path class="st7" d="M1257.5,758.3c2.6-1.5,5.1-3.1,7.7-4.6C1262.6,755.2,1260,756.8,1257.5,758.3z"/>
		<path class="st7" d="M1237.7,766.1c1.6-0.8,3.2-1.6,4.8-2.4C1240.9,764.5,1239.3,765.3,1237.7,766.1z"/>
		<path class="st7" d="M1265.4,753.5c0.7-0.6,1.4-1.3,2.1-1.9C1266.8,752.2,1266.1,752.8,1265.4,753.5z"/>
		<path class="st16" d="M883.4,1012.1c-13.4,3.2-26.8,6.3-40.1,9.5c-32.7-7.3-63.3-19.7-90.2-39.8c-9.6-7.1-15.9-16.7-18.2-29.7
			c-2.2-12.2-4-23.2-0.8-35.7c1.7-6.6-3.8-15-6-22.6c-2.5-6.6-5.1-13.2-7.6-19.9c-0.6-1.8-0.6-4.4-1.9-5.2
			c-7.2-4.7-8.2-8.7,0.5-12.8c1.6-0.8,2.6-3,3.9-4.5c13-6.6,30.5-0.1,37.6,16.8c6.5,15.4,10.1,32.2,14.1,48.6
			c0.9,3.8-1,8.7-2.5,12.7c-4.6,13.1,3,32,15.6,37.8c6.8,14,21.5,16.8,33.7,21.8c17,6.9,35.2,10.9,52.8,16.6
			C877.6,1006.9,880.4,1010,883.4,1012.1z"/>
		<path class="st22" d="M665.1,1046.7c-24.1,0.9-48.3,1.9-72.4,2.8c8.3-2.3,16.6-5,24.9-7c11.6-2.8,23.4-5.1,35.1-7.7
			c6.5,0.7,13.2,2.8,19.3,1.8c20.8-3.6,41.6-7.8,62.1-12.9c16.7-4.1,33.1-9.9,49.6-14.9c11.5,3.9,23,7.7,34.6,11.6
			c-0.1,1.4-0.2,2.8-0.3,4.2c-14.4,2.5-28.7,5.5-43.1,7.5C738.4,1037.2,701.7,1041.9,665.1,1046.7z"/>
		<path class="st2" d="M783.7,1008.8c-16.5,5-32.8,10.8-49.6,14.9c-20.5,5.1-41.3,9.3-62.1,12.9c-6.1,1.1-12.9-1.1-19.3-1.8
			c11.1-2.8,22.5-4.9,33.4-8.4c27.5-8.7,54.8-17.9,82.2-27C773.4,1002.6,778.6,1005.7,783.7,1008.8z"/>
		<path class="st15" d="M723,851.5c-1.3,1.5-2.2,3.7-3.9,4.5c-8.7,4.1-7.7,8-0.5,12.8c1.2,0.8,1.3,3.4,1.9,5.2
			c-2.4-0.7-4.8-1.3-7.2-2c-3.5-3.5-7.1-7-10.6-10.5c7.2-5.7,14.3-11.4,21.5-17.1C723.7,846.8,723.3,849.1,723,851.5z"/>
		<path class="st22" d="M358.6,514.9c2.9,0.6,5.9,1.2,9.8,2.1c-0.1,26.3-5.5,51.1-16.9,74.9c-3.1,6.5-3.7,14.4-7.4,20.4
			c-13.7,22.3-28.4,44-42.3,66.2c-2.5,4-2.9,9.4-4.2,14.2c-0.2,3.3-1.5,9.1-0.5,9.6c8.3,3.7,16.9,8.1,25.7,9
			c13.9,1.4,27-0.9,32.9-17.3c3-8.6,8.6-16.3,12.9-24.4c11.1-21.3,22.8-42.3,32.9-64c6.3-13.5,10.2-28.1,15.2-42.1
			c1.6-4.5,3.4-8.9,5-13.4c0.6,0.4,1.3,0.6,2,0.8c0.7,3.2,0.9,6.7,2.3,9.5c12.6,25.3,18.7,52.5,23.7,80.1c0,16.8,0.1,33.6,0.1,50.5
			c-0.2,3.2-0.5,6.5-0.7,9.7c-1.7,2.5-3.3,5-5,7.5c-20,16.6-43,27.2-67.9,34.1c-9.5,1-19,2.5-28.5,3c-32.8,1.7-65.5,1.5-97.6-6.8
			c-8.3-2.1-16.4-4.9-24.5-7.3c0,0,0.1,0.1,0.1,0.1c-4.7-3.3-9.4-6.6-14.1-9.9c-7.8-8.2-16.3-15.8-23.3-24.6
			c-19.5-24.1-27.1-50.8-6-79.1c5.9-7.9,10.6-16.6,15.8-24.9l-0.1,0.1c8.4-5.9,16.7-11.8,25.1-17.6l0.1,0
			c7.5-3.4,15.1-6.7,22.6-10.1c0,0-0.2,0.1-0.2,0.1c17.3-6.9,34.7-13.5,51.8-20.8c5-2.1,9.1-6.2,13.6-9.4l-0.1,0.1
			c16.2-5.7,32.4-11.5,48.6-17.3c0,0-0.6-1.8-0.9-2.8L358.6,514.9z"/>
		<path class="st16" d="M469.9,283.3c-8.6-1.7-17.2-3.4-26.9-5.4c21-13.6,43-12.7,65.4-8.5c1,1.3,1.7,3.1,3,3.9
			c24.7,15,27.4,39.4,28.4,64.9c0.7,16.9-0.7,33.2-8.7,48.5c-5.2,10.6-9.8,21.7-15.9,31.8c-7.9,13.3-17,25.8-25.6,38.7
			c-3.4,2.9-6.4,6.6-10.3,8.5c-5.4,2.6-11.4,3.7-17.1,5.5c-2.1,3.7-1.7,10.9-0.3,17.9c3.5,17.6,3.9,37.1,12,52.4
			c16.5,31.1,19.1,64.7,22.4,97.9c2.1,21.9-3.3,44.4-4,66.7c-1.2,37.5-1.3,75.1-1.9,112.6c-0.6,3.9-1.2,7.9-2,12.8
			c-6.4,0.7-12.7,1.4-19,2c-2.5-2-4.8-4-7.4-5.9c-1.6-1.2-3.4-2.2-5.2-3.3c8.4,0.2,7.3-4.9,6.7-10.8c-2.5-25.6-4.4-51.3-6.6-77
			c-0.5-6.1-1.4-12.2-2.2-18.3c0.7-24.5,1.3-48.9,2.1-73.4c0.9-24.7-9.3-46.8-15.5-69.8c-3.6-13.5-8.6-26.7-13-40
			c-1.9-4.9-5.4-9.8-5.4-14.7c-0.1-24.2,0.5-48.3,1.4-72.5c0.2-4.6,3-9,4.7-13.6c1.5-2.5,3.1-4.9,4.6-7.4c0.8-2.4,1.5-4.8,2.3-7.2
			c1.9-4.3,3.9-8.5,5.8-12.8c10.5-42,0.6-82.8-47.6-93.8c-29.9-6.8-57.4,2.6-80.9,23.3c-11.8,10.4-25.8,16.3-42.5,12.9
			c-10.2-2.1-7.9-7.4-3.3-12c18-18,40.4-29,63.9-37.9c20.9-7.9,42.8-9.5,65-8c36.8,2.4,66.6,17.9,84.7,50.3
			c9.2,16.4,2.3,33.4-6,49.5c-10.4,20.2-15.9,41.7-13.1,63.1c4.9-16.1,7.2-35.2,16.3-50.4c15.8-26.3,20.5-53.7,18.8-83.1
			C495.8,301.3,485,287.1,469.9,283.3z"/>
		<path class="st16" d="M358.5,391.7c-1.6,1.5-3.3,3-4.9,4.6c-2.3,4.4-6.1,8.7-6.7,13.3c-5.4,43.2-47.7,66-86.2,53.3
			c-28-9.3-44.4-25.2-34.1-50.8c6.2-15.5,18.9-31.5,33-40.2c22.3-13.8,47.8-22.9,72.7-31.7c22.3-7.9,46-10.6,69.7-5.6
			c6.8,1.4,12.9,6,22.3,10.5c1.5,8.8-9,10-14.6,9.2c-25.7-3.5-50.6-0.6-74.7,7.6c-15.2,5.2-31.4,9.8-41.5,24.3l-0.1,0.2
			c-5.8,4-13.7,6.7-16.9,12.1c-6.5,11.1-16.3,23.2-5.1,36.9c3.7,4.6,9.2,7.7,13.9,11.5c4.5-6.2,12.2-12,12.9-18.5
			c3.5-32.1,20.2-55.2,49.8-64.2c28-8.5,58.6-14.2,83.4,11.3c2.3,2.4,4.3,5.3,7,8.7c-22.5,0-43.1-0.5-63.7,0.3
			C369.2,384.8,363.9,389.2,358.5,391.7z"/>
		<path class="st16" d="M301.2,693.2c14.8-22,32-42.7,43.7-66.2c21.8-43.7,37.2-89.1,30.4-140c-3.7-27.9-1.5-56.7-1.9-85.1
			c0.3-3.7,0.5-7.3,0.8-11.7c7.3-1.3,14-2.6,21.6-4c10.3,50.8,23.6,99.9,18.8,151.4c-0.5,4.5-0.1,9.4-1.6,13.6
			c-5.5,16.5-13.3,32.3-16.9,49.2c-4.1,19.2-15.9,33.8-24.8,50.1c-7.8,14.3-18.5,27.5-23.8,42.7c-3.3,9.5-7.1,14.8-16,14.8
			c-11.5,0-24.1,0.8-30.5-12.6c0.8-0.2,1.6-0.3,2.4-0.5C302.7,694.3,302,693.7,301.2,693.2C301.2,693.2,301.2,693.2,301.2,693.2z"/>
		<path class="st3" d="M301,695.3c6.3,13.4,18.9,12.6,30.5,12.6c8.9,0,12.7-5.3,16-14.8c5.3-15.1,16-28.3,23.8-42.7
			c8.9-16.3,20.7-30.9,24.8-50.1c3.6-16.8,11.4-32.7,16.9-49.2c1.4-4.2,1.1-9,1.6-13.6c2.4,4.2,4.8,8.3,7.1,12.5
			c-1.7,4.4-3.4,8.9-5,13.4c-5,14.1-8.9,28.7-15.2,42.1c-10.1,21.7-21.8,42.7-32.9,64c-4.3,8.2-9.8,15.8-12.9,24.4
			c-5.8,16.4-18.9,18.7-32.9,17.3c-8.8-0.9-17.4-5.3-25.7-9c-1.1-0.5,0.3-6.3,0.5-9.6c1.2,0.2,2.4,0.4,3.6,0.6c0,0,0,0,0,0
			C301.1,693.9,301.1,694.6,301,695.3z"/>
		<path class="st3" d="M428.4,535c4.4,13.3,9.4,26.5,13,40c6.1,23,16.4,45.2,15.5,69.8c-0.9,24.4-1.4,48.9-2.1,73.4
			c-1.9-5.9-3.7-11.8-5.6-17.7c0.2-3.2,0.5-6.5,0.7-9.7c1.4-1.8,4.1-3.5,4.1-5.3c0.3-13.3,0.3-26.6,0-39.9c0-1.8-2.8-3.5-4.2-5.2
			c-4.9-27.6-11.1-54.7-23.7-80.1c-1.4-2.8-1.6-6.3-2.3-9.5C425.3,545.5,426.9,540.3,428.4,535z"/>
		<path class="st23" d="M428.2,419c-2.2,4.8-4.5,9.5-6.5,14.4c-1.4,3.3-2.5,6.6-3.7,10c-1.3-0.2-2.7-0.3-4-0.5
			c-2.4-17.9-4.8-35.9-7.2-53.8c20-6.2,30.6,0.7,27.5,17.7C432.2,410.9,430.2,415,428.2,419z"/>
		<path class="st24" d="M449.1,299.1c8.9-1.1,15.3-4.6,15.1-14.9c1.7-0.2,3.4-0.3,5.1-0.5c4.3,5.8,9.9,11.1,12.6,17.6
			c4.6,11.1,7.2,23,11,35.5C477.2,323.3,463.1,311.2,449.1,299.1z"/>
		<path class="st0" d="M293.5,386.2c2.8,0.5,5.5,1,7.7,1.4c-3.3,12.7-6.3,25.7-10.2,38.3c-1.5,4.9-5.2,9.1-9.9,12.7
			c-3.1-16.1-7.1-31.7,8.2-43.9c2.2-1.7,2.8-5.5,4.1-8.3C293.4,386.4,293.5,386.2,293.5,386.2z"/>
		<path class="st7" d="M404.5,325.6c-16.4,0-33.4,0-53.5,0C364.8,315.3,394.7,317.3,404.5,325.6z"/>
		<path class="st15" d="M428.2,419c2-4,4-8.1,6-12.1c2.5,0,5,0,7.5,0c-1.9,4.3-3.9,8.5-5.8,12.8C433.4,419.5,430.8,419.2,428.2,419z
			"/>
		<path class="st15" d="M433.7,426.9c-1.5,2.5-3.1,4.9-4.6,7.4C430.6,431.8,432.2,429.4,433.7,426.9z"/>
		<path class="st25" d="M1483.7,735.8c-9.2-4.3-18.4-8.5-27.6-12.8c-2.2-2.4-3.9-5.5-6.6-7c-25.2-14.5-39.4-35.6-41.8-65
			c-0.9-11.2-4.7-22.2-7.2-33.3c-0.7-19.2,9.3-35,16.4-51.6c1.4-1.9,2.7-3.7,4.1-5.6c-0.5-0.3-1-0.6-1.4-1c-1.3,1.8-2.6,3.5-4,5.3
			c-15.2,10.5-23.8,25.3-27.4,43.1c-2.4,12.1-4.2,24.2-6.3,36.2c-12.2-0.7-25-1.3-37.4-2c-1.5-25.1-3-49.5-4.5-74
			c0.4-14.8-8-26.8-19.1-25.5c-13.5,1.6-12.9,12.7-12.9,22.8c0,24.2,0.2,48.5-0.2,72.7c-0.2,8.3,0,17.5-3.5,24.5
			c-16.7,32.7-35.6,63.9-70.3,81.2c-9.6,4.8-18.7,11.8-28.9,14c-20.2,4.3-41.1,6-61.6,8.7c-26.8-3.3-52.1-9.7-69.3-33.1
			c-6.8-9.1-13.7-18.2-20.3-27.4c-5.8-8-11.3-16.3-17-24.4c0-1.1-0.1-2.2-0.1-3.3c-0.8-3.4-1.6-6.8-2.4-10.3
			c-4.6-19.8-8.4-22.1-23.2-25.5c-26.2-6-53.3-11-77.5-22c-33.5-15.1-64.7-35.2-96.9-53.2c-2.7-3.3-5.6-6.5-8.1-10
			c-7.7-10.2-20.1-17.7-20.1-31.9c15,0,28.9,0,42.8,0c9.1,0.4,18.3,0.7,27.4,1.1c4.3-0.1,8.6-0.2,12.9-0.3
			c39.5-4.5,79.4-7.2,118.5-14c28.3-4.9,55.6-15.3,83.3-23.4c11.5-3.4,24-5.1,34.3-10.9c21.5-12.1,42.2-25.6,62.3-39.9
			c11.2-8,20.4-18.7,30.5-28.2c7.7-8.4,16.5-16.1,23-25.4c18.8-27.2,34.4-55.6,24-90.7c-1-6.7-1.9-13.3-2.9-20
			c-1.5-1.6-3-3.1-4.5-4.7c-1-3.5-2-6.9-2.9-10.4c-1.5-1.7-3-3.4-4.5-5.1c-2.5-4.9-4.9-9.8-7.4-14.7c50.1-6.8,100.1-9,150.8-6.1
			c45.2,2.6,88.8,12.1,132.7,21c14.2,5,28.4,10,42.6,15c8,4.7,15.8,9.7,24,13.9c11.1,5.7,22.6,10.7,33.9,16c0,0,0,0,0,0
			c3.1,3.6,5.9,7.5,9.3,10.8c8.8,8.5,18.4,16.3,26.7,25.2c8.6,9.3,16.1,19.6,24.1,29.5c7.7,20.3,16.5,40.2,22.9,60.9
			c5.5,17.6,10.4,35.8,11.9,54c3,36.8-6.8,71-27,102c-12.4,19-23.8,38.8-38.1,56.2c-24.7,30.1-53.5,56.4-87.2,76
			C1545,729.2,1515.2,736.8,1483.7,735.8z"/>
		<path class="st26" d="M842,86.8c3.9,3.1,7.8,6.3,13.9,11.1c3.1-9.2,5.5-16,8.4-24.7c0.7-0.1,5-0.4,9.3-0.8
			c32.8,1.8,65.6,4.4,98.4,5.1c14,0.3,21,9.1,27.4,18c26,36.2,35.5,76.5,27.3,120.6c-0.7,3.8-3.2,7.2-4.4,10.9
			c-1.1,3.8-1.6,7.9-3.1,15.7c9.9-3.4,17.6-6.1,25.2-8.8c49.3-8.4,98.7-16.9,148-25.3c2.7,4.5,4.5,9.9,8.1,13.4
			c23.2,22.1,28.4,52.5,36.6,81c6.5,22.5-5.4,44.2-15.3,62.4c-11.9,22.1-29.8,42.2-48.7,59.1c-32.4,29-70.1,49.9-112.9,60.9
			c-3.4,0.9-5.8,5.8-8.6,8.8c-17.3,4.3-34.4,9.3-51.9,12.7c-20.7,4.1-41.7,6.9-62.6,10.3c-8.6,0.8-17.3,1.7-25.9,2.5
			c-4.2,0-8.5,0-12.7,0c-2.5-0.1-5-0.4-7.5-0.4c-56,2.1-111.4-4-166.4-13c-48.6-7.9-95.1-23.8-140.1-43.7c-2.1-0.9-3.2-3.9-4.8-5.9
			c1.6-2.4,3.1-4.9,4.7-7.3c0.6-8.3,1.1-16.6,12.9-15.5c2.5-0.7,5.1-1.4,7.6-2.1c7.4-0.8,14.9-1.1,22.1-2.6
			c28.3-6,56.1-12,79.4-32.1c17.1-14.7,19.2-38.6,10.2-56.2c-13-25.4-36.4-37.6-61.5-47.4l0.1,0.2c-2.6-1.1-5.1-2.2-7.7-3.3
			c-14.6-9.5-30.1-15.7-47.9-14.5c9.2-9.3,18.7-18.4,27.6-28.1c13.1-14.2,11.5-32.8-5.5-41.5c-10.1-5.1-22.8-5.3-34.3-7.7
			c10-10,20-20,30-29.9c11.4-2.2,22.7-4.3,34.8-6.6c-15.9-6.4-30.5-4.8-44.7,2.5c1.5-4.8,2.8-9.7,4.5-14.5
			c2.5-7.1,5.4-14.1,8.1-21.1c20-7.8,40.5-14.6,60-23.6c49.9-23.1,101.4-29.3,155.2-17.8c2,0.4,4.5-1.3,6.8-2
			C841.7,86,841.6,86.4,842,86.8z M918.7,179c-9.1,0.6-18.2,1.3-28.1,2c5.9,11.2,5.9,11.2,23.3,6.7c8.1,1.7,17,1.8,23.9,5.5
			c7.2,3.9,6.4,5.4,16.7-0.2C940.8,187.7,929.8,183.3,918.7,179z M788.3,296.9c21.9,7.6,44.4-7.4,54.7-24.5
			c5.2-8.6,12.3-18.3,6.4-30c-11.7-23.4-34.2-30.8-58.4-19.1c-1.8,1-3.6,1.8-5.3,3c-16.5,11.2-26.1,24.9-22.6,47.5
			C765.3,288,775.6,293.8,788.3,296.9z M1032.7,346.6c6.3,0,12.7,1,18.8-0.2c15.3-3.1,31.1-5.4,45.3-11.4
			c10.8-4.5,11.4-17.3,1.6-24.1c-11.6-8-24.7-15.5-38.2-19c-22.8-6-46.3-9.8-69.8-12.4c-22.8-2.5-45.7-1.4-67.4,7.8
			c-13.7,5.8-16,17-5.4,27.4c4.4,4.3,9.2,8.6,14.6,11.4C963.6,342.7,997.9,345.9,1032.7,346.6z M727.3,455.5
			c0.1,1.3,0.2,2.5,0.2,3.8c14.1-1.7,28.3-3.4,42.4-5.1c-0.2-1.6-0.4-3.3-0.6-4.9C755.3,451.3,741.3,453.4,727.3,455.5z"/>
		<path class="st26" d="M1036.9,218.4c1.6-9.8,4.3-19.5,4.6-29.3c1.1-35.2-8.6-67-30.7-94.8c-4-5-6.6-11-9.9-16.5
			c0.2-1,0.4-1.9,0.5-2.9c1.6-2.4,3.1-4.8,4.7-7.2c8.7-14.9,23.6-18.9,38.9-19.9c45.3-3,87.3,9.6,127.6,29.2c2.6,1.7,5.1,3.4,7.7,5
			c0,0,0.1-0.1,0.1-0.1c4,1.9,8.1,3.7,12.2,5.6c0,0,0-0.1,0-0.1c7.8,11.5,16.8,20,32.5,15.6c10.7-3,21.8-4.8,32.7-7.1
			c3.3,0,6.6,0,9.9,0c10.9-1,21.8-1.9,32.7-2.9c1.6-0.1,3.3-0.2,4.9-0.4c2.9,0.1,5.8,0.2,8.7,0.4c0.6,0.2,0.9,0.6,0.9,1.2
			c-1.2,20.7-10.1,36.1-25.9,50.6c-27.9,25.4-60.8,38.2-96.3,45.7c-32,6.8-64.5,11.4-96.8,17.1
			C1076.1,211.2,1056.5,214.9,1036.9,218.4z"/>
		<path class="st20" d="M1051.7,494.3c2.8-3,5.2-8,8.6-8.8c42.7-10.9,80.5-31.9,112.9-60.9c18.9-16.9,36.8-37,48.7-59.1
			c9.9-18.3,21.7-39.9,15.3-62.4c-8.2-28.5-13.5-58.9-36.6-81c-3.7-3.5-5.5-8.9-8.1-13.4c8.3-4.9,15.1-4.3,20.6,4.7
			c4.4,7.1,9.8,13.5,14.8,20.3c1.6,1.7,3.2,3.4,4.8,5.1c2.7,5,5.4,10,8.1,15c1.5,1.6,3,3.3,4.5,4.9c2.7,8.4,5.5,16.8,8.2,25.2
			c1.4,1.8,2.8,3.6,4.1,5.5c0.2,1.5,0.3,3,0.5,4.6c2.8,26.3-5.3,49.9-18.1,72.2c-7,12.2-14.9,23.9-22.4,35.8
			c-1.9,1.5-3.9,2.9-5.7,4.4c-17.4,14.3-33.4,30.9-52.5,42.5C1125.9,469.2,1089.7,484.3,1051.7,494.3z"/>
		<path class="st20" d="M1036.9,218.4c19.6-3.6,39.2-7.2,58.8-10.7c32.3-5.7,64.8-10.3,96.8-17.1c35.5-7.6,68.4-20.3,96.3-45.7
			c15.8-14.4,24.8-29.8,25.9-50.6c2.1,2.3,5.1,4.2,6.2,6.9c8.9,21.3-0.8,50.4-20.2,63.2c-26.8,17.5-56.4,26.9-87.8,31.8
			c-20.5,3.2-40.8,8.2-61.3,11.9c-33.9,6.2-67.8,12-101.7,18c-2,0.4-3.9,1.3-5.9,2c-3.3,0.2-6.6,0.3-9.9,0.5l-0.2-0.1
			C1035.1,225.2,1036,221.8,1036.9,218.4z"/>
		<path class="st4" d="M1217.5,401.9c7.5-11.9,15.4-23.6,22.4-35.8c12.8-22.3,20.9-45.9,18.1-72.2c3.1,0,6.2,0,9.4,0
			c10.4,35.1-5.3,63.5-24,90.7c-6.4,9.3-15.3,17-23,25.4C1219.4,407.3,1218.4,404.6,1217.5,401.9z"/>
		<path class="st20" d="M1257.8,96.1c-10.9,2.3-22,4.1-32.7,7.1c-15.7,4.4-24.7-4.1-32.5-15.6C1213.4,97.5,1235.8,95.1,1257.8,96.1z
			"/>
		<path class="st20" d="M1300.4,93.2c-10.9,1-21.8,1.9-32.7,2.9C1278.6,95.1,1289.5,94.2,1300.4,93.2z"/>
		<path class="st20" d="M1192.6,87.7c-4.1-1.9-8.1-3.7-12.2-5.6C1184.5,84,1188.5,85.9,1192.6,87.7z"/>
		<path class="st4" d="M1006.2,67.8c-1.6,2.4-3.1,4.8-4.7,7.2C1003,72.6,1004.6,70.2,1006.2,67.8z"/>
		<path class="st20" d="M1314,93.2c-2.9-0.1-5.8-0.2-8.7-0.4C1308.2,92.9,1311.1,93.1,1314,93.2z"/>
		<path class="st20" d="M1180.4,82.2c-2.6-1.7-5.1-3.4-7.7-5C1175.2,78.8,1177.8,80.5,1180.4,82.2z"/>
		<path class="st10" d="M1257.5,289.2c-1.4-1.8-2.8-3.6-4.1-5.5C1254.7,285.6,1256.1,287.4,1257.5,289.2z"/>
		<path class="st10" d="M1260,269.1c1.5,1.6,3,3.1,4.5,4.7C1263,272.2,1261.5,270.7,1260,269.1z"/>
		<path class="st10" d="M1252.6,253.7c1.5,1.7,3,3.4,4.5,5.1C1255.6,257,1254.1,255.4,1252.6,253.7z"/>
		<path class="st10" d="M1245.2,258.5c-1.5-1.6-3-3.3-4.5-4.9C1242.2,255.3,1243.7,256.9,1245.2,258.5z"/>
		<path class="st10" d="M1232.5,238.6c-1.6-1.7-3.2-3.4-4.8-5.1C1229.3,235.2,1230.9,236.9,1232.5,238.6z"/>
		<path class="st22" d="M989.2,996.4c13.9-14.6,26.9-27.9,39.6-41.5c15.7-16.8,46-25.3,64.7-17.9c12.4,4.9,17.7,15.6,15.7,35.2
			c-1.1,11.2-5.9,21.5-18.9,22.4c-25.3,1.8-50.6,2.7-75.9,3.5C1006.3,998.2,998.1,997,989.2,996.4z"/>
		<path class="st1" d="M865.7,808.5c-8.9,2.7-17.6,6.3-26.7,8c-28,5.3-56.1,9.9-86.3,15.1c1.9-4.4,2.3-5.6,2.8-6.6
			c9.8-20.2,26.4-26,47.9-24.9c7.4,0.4,15.1-5.7,22.7-8.8l0.1,0c3.1-1.3,6.1-2.6,10-4.2c-15.5-21.1-37-25.8-59.9-28.9
			c-11.7-1.6-23.1-6.4-33.9-12.1c37.7-1.5,75.3-7.1,110.6,10.9c14.7,7.5,23.3,20.7,20.4,36.7C872.4,798.9,868.3,803.6,865.7,808.5
			C865.6,808.5,865.7,808.5,865.7,808.5z"/>
		<path class="st7" d="M826,791.3c-12.5,2-25,4-37.6,5.9c-4.9,0.7-9.8,0.9-12.1,1.2c-2.1-12.2-4-23.2-6.1-34.9
			c17.6-0.8,33.6,3.9,47.8,13.9C822,780.2,823.5,786.6,826,791.3C826.1,791.3,826,791.3,826,791.3z"/>
		<path class="st16" d="M570.3,889c-0.8,14.2-11.9,15.1-22,16.2c-8.9,1-17.5,0.3-18.8-11.9c-0.2-1.7-3.1-3-4.8-4.5
			c-8.2-6.2-15.7-13.9-24.7-18.4c-26.9-13.3-54.3-11.5-81.7-0.3c-6.4,2.6-13.5,3.8-20.4,4.6c-16.4,2.1-32.8,3.6-49.2,5.3
			c-3.3,0.1-6.6,0.2-9.9,0.3c-0.8,0.1-1.6,0.1-2.5,0.2c-2.8-0.4-5.6-0.8-8.4-1.2c6.6-3,13-6.6,19.9-8.9c19.4-6.6,38.6-14,58.5-18.6
			c28-6.5,56.5-10.7,85-15.9c1.6-5.3,3.4-11.4,5.3-17.4c1.2-5.9,2.4-11.8,3.6-17.6c3.3-6.2,18-8,6.8-20.9c-1,4-1.8,6.7-2.5,9.4
			c-0.6-0.2-1.1-0.3-1.7-0.5c-0.3-5.3-0.7-10.6-1-15.9c0.2-1.5,0.4-3.1,0.6-4.6c1.6-0.9,3.2-1.9,4.8-2.8c2.2,3,4.5,6.1,7.6,10.3
			c2.5-6,6.4-11.7,7-17.7c1.7-17.4,3.3-35,2.6-52.5c-1.5-40.3-5.7-80.5-6.2-120.7c-0.4-31.8,1.1-63.9,5.6-95.3
			c4-28,13.3-55.3,20.3-82.9c2.4-15.1,4.8-30.1,7.3-45.2c1.8-8.8,5.1-17.5,5.1-26.2c-0.1-30.4-14.3-52.7-41.2-67
			c12.3-0.8,24.6-1.6,36.8-2.4c8.4,3.4,16.8,6.7,25.2,10.1c13.9,18.2,21.8,38.3,19.8,61.5c-1.4,16.2-3.3,32.4-5,48.6
			c-1.5,3.5-2.9,7-4.4,10.5c-1.1,8.1-2.2,16.2-3.2,24.3c-1.4,1.9-2.7,3.9-4.1,5.8c-1.1,7.3-2.3,14.5-3.4,21.8
			c-1.4,2-2.7,3.9-4.1,5.9c-4.3,15.1-10.9,29.9-12.5,45.3c-4.7,45.4-3,90.9,5.9,135.9c0.9,1.1,1.8,2.2,2.7,3.2c0,0.8,0.2,1.4,0.7,2
			c0,35.6-0.1,71.2-0.1,106.8c-1.6,6.9-3.2,13.7-4.8,20.6c-1.6,1.8-3.9,3.3-4.6,5.4c-3.1,9.1-5,18.7-8.9,27.4
			c-3.3,7.5-8.7,14-13.1,21c-2.7,4.8-5.5,9.7-8.2,14.5c-2.6,2.2-5.2,4.3-7.7,6.5c-4,1.2-8,2.4-12,3.6c13.7,5.4,26.8,10.6,39.9,15.8
			c-0.1,0.8,0.3,1.1,1,1.2c2,1,4,2,5.9,3c0,0-0.1,0-0.1,0C561.4,874.3,565.8,881.6,570.3,889z"/>
		<path class="st3" d="M584.6,421.2c1.1-8.1,2.2-16.2,3.2-24.3c1.5-3.5,2.9-7,4.4-10.5c1.7-16.2,3.6-32.4,5-48.6
			c2-23.2-5.9-43.3-19.8-61.5c3.4-1,6.7-2,10.1-3c1.5,0.7,3.1,1.5,4.6,2.2c-1.9,0.4-3.8,0.9-6.6,1.5c21.2,25.4,22.3,54.3,18.2,83.7
			c-2.8,20.5-7.5,40.8-11.3,61.2c-1.4,2.6-2.7,5.3-4.1,7.9c3,0.7,6,1.4,9,2c0,0.7,0,1.5,0,2.2c-11.8-1.1-12.4,7.2-12.9,15.5
			c-1.6,2.4-3.1,4.9-4.7,7.3c1.6,2,2.7,5,4.8,5.9c45,20,91.5,35.8,140.1,43.7c55,9,110.5,15,166.4,13c2.5-0.1,5,0.2,7.5,0.4
			c-2.4,2.2-4.7,4.3-7.1,6.5c-4.3,0.1-8.6,0.2-12.9,0.3c-8.9-7.5-18.1-5.4-27.4-1.1c-13.9,0-27.8,0-42.8,0
			c0,14.2,12.4,21.7,20.1,31.9c2.6,3.4,5.4,6.6,8.1,10c-1.9,0.9-3.9,1.9-5.8,2.8c-11.4-12.5-22.7-25.2-34.3-37.5
			c-4.2-4.5-8.7-10.8-14-11.8c-38.9-7.7-77.9-14.4-117-21.3c-2.8-0.5-5.7-0.4-9.4-0.6c-1.4,7.2-2.8,14-4.2,20.8
			c-1.1,1-2.3,1.9-3.4,2.9c0.9,0.7,1.9,1.5,2.8,2.2c-1.3,6.7-2.6,13.3-3.8,20c-0.9-4.2-1.7-8.5-2.6-12.7c0.8-12.7,1.5-25.4,2.3-38.1
			c-8.3-3-15.8-6.8-23.7-8.3c-3.2-0.6-9.8,2.8-10.7,5.7c-3.7,11.9-5.7,24.3-8.4,36.5c-1.3,2.2-3.6,4.4-3.7,6.6
			c-0.3,15.2-0.3,30.4,0.1,45.6c0.1,2.3,2.4,4.5,3.6,6.8c0.6,18.5,5,35.8,11,53.5c6.6,19.6,8.2,41.2-1.7,61.6
			c-6.1,12.6-11.3,25.7-17,38.6c-1.6-1.7-3.1-3.4-4.7-5.2c1-3.1,1.9-6.1,2.9-9.2c5.8-18.6,14.2-36.9,16.4-55.9
			c1.7-14.4-3.1-30.2-7.7-44.5c-10-31.1-13.4-62.3-7.4-94.5c3.2-17.1,6.2-34.3,9.5-52.9c-9.5-3-19.4-6-29.3-9.1
			c-1.4,1.9-2.7,3.8-4.1,5.8c-1.1,9-2.2,17.9-3.2,26.9c-1.4,4.5-2.8,9-4.2,13.5c2.6,39.8,5.2,79.6,7.8,119.4
			c-2.2,0.2-4.5,0.4-6.7,0.6c-8.8-45-10.6-90.4-5.9-135.9c1.6-15.4,8.2-30.2,12.5-45.3c1.4-2,2.7-3.9,4.1-5.9
			c1.1-7.3,2.3-14.5,3.4-21.8C581.8,425.1,583.2,423.1,584.6,421.2z"/>
		<path class="st20" d="M617.6,168.8c-10,10-20,20-30,29.9c-0.8,1.5-1.7,2.9-2.5,4.4c-5.9,1.7-11.7,3.5-17.6,5.2
			c11.8-25,23.5-50.1,35.3-75.1c5.8-1.4,11.6-2.8,17.4-4.2c-2.7,7-5.5,14-8.1,21.1c-1.7,4.7-3,9.6-4.5,14.5
			c-0.8,1.6-1.5,3.3-2.3,4.9c1.4,0.2,2.8,0.7,4.1,0.6C612.2,169.9,614.9,169.3,617.6,168.8z"/>
		<path class="st27" d="M585.1,203.1c0.8-1.5,1.7-2.9,2.5-4.4c11.5,2.4,24.2,2.5,34.3,7.7c17,8.6,18.6,27.2,5.5,41.5
			c-8.9,9.6-18.4,18.7-27.6,28.1c-2.5-0.2-5.1-0.3-7.6-0.5c-1.5-0.7-3.1-1.5-4.6-2.2c7-6.8,13.2-14.7,21.1-20.1
			c14.9-10,13.9-24.7,9.7-37.4c-3.7-11.2-16.7-13-28.3-12.4C588.4,203.5,586.7,203.2,585.1,203.1z"/>
		<path class="st20" d="M1483.7,735.8c31.5,0.9,61.3-6.7,88.2-22.3c33.7-19.7,62.6-45.9,87.2-76c14.3-17.4,25.7-37.2,38.1-56.2
			c20.2-31,30-65.2,27-102c-1.5-18.2-6.4-36.5-11.9-54c-6.4-20.7-15.2-40.6-22.9-60.9c6.8,0.8,13.5,1.5,20.3,2.3
			c9.1,15.6,18.1,31.2,27.2,46.8c1.7,2.9,3.5,5.7,5.2,8.6c1.1,7.5,2.1,15,3.2,22.5c1.5,1.7,2.9,3.4,4.4,5.1
			c0.2,4.2,0.3,8.3,0.5,12.5c0.1,15.1,0.1,30.2,0.2,45.3c-6.2,29.7-16.8,57.1-31.3,84.3c-15,28.2-39,47.5-57.6,71.8
			c-3.9,5.1-9.7,8.6-14.6,12.9c-18.4,12.6-36.8,25.2-55.3,37.8c-19.9,7.4-39.5,15.7-59.8,22C1516.1,741,1499.7,742.6,1483.7,735.8z"
			/>
		<path class="st4" d="M1750.4,507.4c-0.1-15.1-0.1-30.2-0.2-45.3c1.1,0.6,3,1.1,3.1,1.8C1754,478.5,1759.2,493.4,1750.4,507.4z"/>
		<path class="st4" d="M1749.7,449.6c-1.5-1.7-2.9-3.4-4.4-5.1C1746.8,446.2,1748.2,447.9,1749.7,449.6z"/>
		<path class="st20" d="M1034.4,228.7c-0.2,0.5-0.3,1-0.6,1.5c0,0.1-0.6-0.2-0.9-0.3c0.4-0.5,0.9-0.9,1.3-1.4
			C1034.2,228.6,1034.4,228.7,1034.4,228.7z"/>
		<path class="st16" d="M444.4,746.5c-71.6,32.2-145.3,37.1-221,16.8c-13.6-7.4-27.3-14.5-40.8-22.2c-22.2-12.6-36.6-32.2-46.7-55.1
			c-4.3-9.8-10.4-19.8-11.2-30.1c-0.8-10,2.6-21.2,6.9-30.7c12.7-28.1,34.4-47.5,62.2-60.6c2.2-1,3.4-4.3,5.1-6.5
			c13.1-5.5,26.2-10.8,39.2-16.4c32.8-14,65.5-28.1,98.2-42.2c4-1.8,7.9-3.7,11.9-5.5c5.7-1.9,11.4-3.8,19.8-6.5
			c-1.2,8.3-2.3,15.3-3.3,22.3c0,0-0.8-0.5-0.8-0.5l-0.8,0.5c-1.5,1.7-3,3.4-4.6,5.1c0,0,0.2-0.2,0.2-0.2
			c-15.9,6.7-31.8,13.4-47.7,20.1c0,0,0.1-0.1,0.1-0.1c-15.6,6-31.5,11.6-46.8,18.3c-6.7,2.9-12.4,7.9-18.6,11.9
			c0,0,0.2-0.1,0.2-0.1c-9.7-1.4-16.9,2.7-22.6,10.1c0,0-0.1,0-0.1,0c-9.7,4-21.1,5.6-25.1,17.6c0,0,0.1-0.1,0.1-0.1
			c-14.4,5.2-21.9,17.4-28.1,29.9c-5,10.3-11.4,22.5-9.8,32.7c2.2,13.9,9.5,28.2,18.2,39.6c8.8,11.5,16.7,25.5,32.3,30.3
			c5,2,10,4,15,6c0,0-0.1-0.1-0.1-0.1c1.8,1.9,3.3,4.8,5.5,5.6c47.5,17.4,96.1,18.4,145.3,8.8c25.3-3.4,47.3-14.3,67.7-29.2
			C444.2,726.3,444.3,736.4,444.4,746.5z"/>
		<path class="st12" d="M363.1,509.9l0.8-0.5c0,0,0.8,0.5,0.8,0.5c0,0-0.8,0.1-0.8,0.1L363.1,509.9z"/>
		<path class="st26" d="M544.5,147.5c-5.8,1.8-11.6,3.5-17.3,5.3c-0.9,0.1-1.7,0.1-2.6,0.2c-23,5.5-46,11.1-69,16.6
			c-0.4-1.3-0.9-2.6-1.3-3.9c9.7-5.5,20.5-9.8,29-16.8c21.8-17.9,45.5-34.2,57.5-61.6c2.6-6,7.7-10.9,11.7-16.3
			c7.3-7.8,14.4-15.8,22-23.3c21.7-21.2,49.7-28,78.3-32.3c13.9-2.1,28.2-1.2,42.3-1.6c5.2,0.6,10.3,1.2,15.5,1.8
			c1.7,0.5,3.4,1,5.1,1.5c21.8,7.6,43.8,14.4,65.3,22.9c16.3,6.4,31.8,14.8,44.2,28.1c-5.7,2.8-10.1,4.9-14.4,7
			c-2.4-0.1-4.9-0.2-7.3-0.3c-23.5,0.2-46.9,0.4-70.4,0.7c-26.4,5-54,6.7-78.7,15.9c-34,12.7-65.8,31-98.5,47.2
			C551.5,140.5,548.2,144.4,544.5,147.5z"/>
		<path class="st13" d="M810.7,75c4.4-2.1,8.7-4.3,14.4-7c-12.5-13.3-28-21.7-44.2-28.1c-21.4-8.4-43.5-15.3-65.3-22.9
			c51,2.5,132.5,41.9,139.4,68.6c-4.5,0.4-8.8,0.8-13.1,1.2c-0.3-0.5-0.3-0.9,0.2-1.2C831.7,82.1,821.2,78.6,810.7,75z"/>
		<path class="st13" d="M710.5,15.5c-5.2-0.6-10.3-1.2-15.5-1.8C700.1,14.3,705.3,14.9,710.5,15.5z"/>
		<path class="st20" d="M544.5,147.5c3.7-3.1,7.1-6.9,11.3-9c32.6-16.2,64.5-34.5,98.5-47.2C679,82,706.6,80.4,733,75.4
			c-0.9,1.5-1.7,3.1-2.6,4.6c-1.7,0.7-3.3,1.4-5,2c-0.8,0-1.6,0.1-2.4,0.1c-41,15.4-82,30.7-123,46.1c-16.8,6.5-33.6,13.1-50.4,19.6
			C547.9,147.7,546.2,147.6,544.5,147.5z"/>
		<path class="st20" d="M524.6,152.9c0.9-0.1,1.7-0.1,2.6-0.2C526.3,152.8,525.4,152.9,524.6,152.9z"/>
		<path class="st20" d="M1724.6,369.2c-3.2-5.1-6.4-10.1-9.5-15.2c18-2.7,29.8-14.6,37.5-29.3c3-5.6,1.1-17.2-3.1-22.5
			c-7.3-9.3-18.1-15.8-27.4-23.4c11.7,2.5,23.3,5,35,7.5c16.3,11.7,20,32.9,10.7,50.2C1758.2,354.5,1744.1,365.1,1724.6,369.2z"/>
		<path class="st28" d="M1722.1,278.8c9.3,7.7,20.1,14.2,27.4,23.4c4.2,5.3,6.1,16.9,3.1,22.5c-7.8,14.7-19.6,26.6-37.5,29.3
			c-6-6.6-12-13.2-18-19.8c3.4-3.4,6.7-6.8,10.1-10.2l-0.1,0.1c7.8-0.7,7.9-6.1,7.1-11.9c0.5-13.7-4.8-18.8-24.6-23.1
			c-16.3-7.6-31.9,0.2-47.7,2.4c-0.8-0.1-1.6-0.2-2.3-0.5c8.9-12.4,22.6-16.4,36.2-16.8C1691.1,273.8,1706.6,277.1,1722.1,278.8z"/>
		<path class="st22" d="M1641.8,291.5c15.8-2.2,31.4-10,47.7-2.4c1.3,2.9,2.8,5.8,3.8,8.8c3,8.8,5.9,17.6,8.8,26.4
			c-1.7,1.7-3.4,3.3-5.1,5c-2.5,0.1-5.1,0.2-7.6,0.3C1673.5,316.8,1657.6,304.1,1641.8,291.5z"/>
		<path class="st13" d="M1709.7,366.7c-6.8-0.8-13.5-1.5-20.3-2.3c-8-9.9-15.5-20.2-24.1-29.5c-8.3-9-17.9-16.7-26.7-25.2
			c-3.4-3.3-6.2-7.2-9.3-10.8c10.6,5.5,21.6,10.3,31.6,16.7c8.4,5.4,15.7,12.7,23.4,19.1C1692.8,345.2,1701.2,356,1709.7,366.7z"/>
		<path class="st13" d="M1629.3,298.8c-11.3-5.3-22.8-10.3-33.9-16c-8.2-4.2-16-9.3-24-13.9C1592.8,274.7,1613.9,281.4,1629.3,298.8
			z"/>
		<path class="st15" d="M1697,329.2c1.7-1.7,3.4-3.3,5.1-5c1.7-0.1,3.4-0.1,5.1-0.2c-3.4,3.4-6.7,6.8-10.1,10.2
			C1697.1,332.5,1697,330.8,1697,329.2z"/>
		<path class="st4" d="M725.4,82.1c1.7-0.7,3.3-1.4,5-2c24.3-1.8,48.7-3.5,73-5.3c2.4,0.1,4.9,0.2,7.3,0.3
			c10.5,3.5,21,7.1,31.5,10.6c-2.3,0.7-4.8,2.4-6.8,2c-53.8-11.5-105.3-5.2-155.2,17.8c-19.5,9-40,15.8-60,23.6
			c-5.8,1.4-11.6,2.8-17.4,4.2c-1-1.7-1.9-3.4-2.9-5.1c41-15.4,82-30.7,123-46.1c0,0,1.2,0.2,1.2,0.2L725.4,82.1z"/>
		<path class="st15" d="M515.4,268.5c26.9,14.2,41.1,36.6,41.2,67c0,8.7-3.3,17.5-5.1,26.2c-2.3,3.1-5.4,5.9-6.6,9.4
			c-2.4,6.8-3.8,14-5.6,21.1c-0.6-0.1-1.1-0.1-1.7,0.1c-2.2-1.9-4.3-3.7-6.5-5.6c8-15.2,9.4-31.6,8.7-48.5
			c-1-25.4-3.6-49.9-28.4-64.9c-1.3-0.8-2-2.6-3-3.9C510.7,269.1,513.1,268.8,515.4,268.5z"/>
		<path class="st10" d="M695.7,824.2c-6.7,5-13.3,10.1-20,15.1c-0.7-0.7-1.4-1.3-2.1-2c3.1-2.8,6.1-5.6,11.1-10.1
			c-25.8-6.4-49.2-12.3-72.6-18.1c0.5-0.1,0.9-0.3,1.3-0.6c12.6,2,25.2,3.7,37.8,6c14.5,2.6,28.9,5.7,43.3,8.5
			C694.9,823.4,695.3,823.8,695.7,824.2z"/>
		<path class="st4" d="M700.3,761.6c25,5.8,29,28.2,13,45.6c-0.2-2.2-0.5-4.4-0.7-6.5c0.8-4.1,2-8.1,2.2-12.2
			c0.5-9.1-0.1-17.9-11.9-19.8c-1-1.2-2-2.3-3-3.5C700.1,764,700.2,762.8,700.3,761.6z"/>
		<path class="st3" d="M700.3,761.6c-0.1,1.2-0.2,2.4-0.4,3.6c-2.5-0.4-5.1-0.8-7.6-1.2c-17.4-0.5-34.8-0.9-52.1-1.4
			c-1-1.1-2-2.3-2.9-3.4c1.1-0.3,2.2-0.6,3.3-1C660.5,759.3,680.4,760.4,700.3,761.6z"/>
		<path class="st15" d="M665.5,847.2c-15.9,6.5-31.8,13.1-47.7,19.6c-0.4-0.5-0.8-1-1.1-1.5c5.6-2.4,11.5-4.3,16.7-7.4
			c5.2-3.2,9.6-7.7,14.4-11.7c5.8-0.9,11.6-1.8,17.4-2.7C665.2,844.8,665.3,846,665.5,847.2z"/>
		<path class="st15" d="M640.6,758.2c-1.1,0.3-2.2,0.6-3.3,1c1,1.1,2,2.3,2.9,3.4c-1.8,1-3.5,2-5.3,3.1c-0.7,1-1.5,2-2.2,3
			c-4.5,1.4-8.9,2.7-13.4,4.1c6.9-9,13.8-17.9,20.7-26.9c2.3,0,4.6-0.1,6.9-0.1C644.9,750,642.8,754.1,640.6,758.2z"/>
		<path class="st3" d="M570.3,889c-4.5-7.4-8.9-14.7-13.4-22.1c3.2,1.3,6.4,2.8,9.6,3.8c5.9,1.8,11.9,3.4,17.8,5
			c0.3,0.4,0.5,0.8,0.8,1.2c-6.7,1.4-8.1,6.3-8,12.2C574.9,889.1,572.6,889,570.3,889z"/>
		<path class="st10" d="M712.6,800.6c0.2,2.2,0.5,4.4,0.7,6.5c-5.9,5.7-11.8,11.4-17.7,17c-0.4-0.4-0.8-0.8-1.2-1.2
			c1.9-2.9,3.9-5.9,5.8-8.9c0.9-1,1.9-1.9,2.8-2.9c1.5-1.9,3-3.8,4.5-5.7C709.3,803.9,710.9,802.3,712.6,800.6z"/>
		<path class="st15" d="M617.8,866.9c-8.4,2.5-16.7,5.1-25.1,7.6c-0.6-0.2-1.1-0.4-1.5-0.7c8.5-2.8,17-5.6,25.5-8.3
			C617,865.9,617.4,866.4,617.8,866.9z"/>
		<path class="st10" d="M665.5,847.2c-0.1-1.2-0.2-2.4-0.4-3.7c2.8-2.1,5.7-4.2,8.5-6.3c0.7,0.7,1.4,1.3,2.1,2
			c-1.1,1.5-2.1,3-3.2,4.5c-0.8,0.7-1.5,1.3-2.3,2C668.6,846.3,667,846.8,665.5,847.2z"/>
		<path class="st3" d="M592.7,874.4c-2.5,0.8-5,1.6-7.5,2.4c-0.3-0.4-0.5-0.8-0.8-1.1c2.3-0.7,4.5-1.4,6.8-2
			C591.6,874,592.1,874.3,592.7,874.4z"/>
		<path class="st15" d="M670.2,845.8c0.8-0.7,1.5-1.3,2.3-2C671.7,844.5,670.9,845.2,670.2,845.8z"/>
		<path class="st8" d="M338.8,880.4c3.3-0.1,6.6-0.2,9.9-0.3c-2.7,2.1-5.3,5.8-8.2,6.1c-8.8,0.8-17.8,0.2-26.7,0.2
			c-30.4-3.8-60.9-6.6-91.1-11.7c-15.2-2.5-29.7-9-44.6-13.6c0-1.6,0.1-3.2,0.1-4.8c25,5.9,50.1,11.8,75.2,17.7
			c4.2,0.8,8.5,1.7,12.7,2.5c15.1,0.8,30.2,1.7,45.2,2.5c5.5,0.1,11.1,0.3,16.6,0.4c2.8,0.4,5.6,0.8,8.4,1.2
			C337.1,880.5,338,880.5,338.8,880.4z"/>
		<path class="st18" d="M338.8,893.5l-1.2,0.2c0,0-1.2-0.3-1.2-0.3C337.2,893.5,338,893.5,338.8,893.5z"/>
		<path class="st18" d="M346.4,893.7c-0.9,0-1.7-0.1-2.6-0.1C344.7,893.7,345.6,893.7,346.4,893.7z"/>
		<path class="st23" d="M253.4,873.9c-25.1-5.9-50.1-11.8-75.1-17.7c-2.3-2.7-4.6-5.3-7.2-8.3c6.6-17.6,21.2-28.2,37.4-33.7
			c30.4-10.3,61.8-17.4,92.7-25.9c16.8-2.5,34.1-3.3,50.4-7.7c30.1-8.1,59.7-18.3,89.4-27.7c1.5-0.5,2.6-2.1,3.9-3.1
			c1.3,3.5,3.2,6.9,3.7,10.5c1.3,10,1.5,20.2,3,30.2c1.5,9.9,4,19.6,6.2,29.7c-5.3,0.9-8.6,1.4-11.9,1.9c0,0.4,0,0.9,0,1.3
			c3.6,0.3,7.3,0.6,10.9,0.9c1.7,1.1,3.5,2.1,5.2,3.3c2.5,1.9,4.9,3.9,7.4,5.9c-14.2,2.7-28.4,5.4-42.7,8
			c-5.7-6.6-10.6-9.1-12.5,2.6c-5,1.1-10.1,2.3-15.1,3.4c0-5.7,0-11.3,0-17c13.3-1.8,26.7-3.7,40-5.5c-4.6-3.2-9.1-4.5-13.4-3.9
			c-28.3,3.7-56.6,8-84.9,11.7c-6,0.8-12.1,0.1-18.8,0.1c-9.3,14-29.1,6.7-42.7,14.6c2.2,1.3,4.3,2.6,5.1,3.1
			C273.9,858.5,263.7,866.2,253.4,873.9z M441.5,798.4c-0.1-1.5-0.2-2.9-0.3-4.4c-21.4,0.9-43.1-0.1-64.1,3.1
			c-32.3,4.9-64.4,11.5-96,19.7c-20.2,5.3-39.4,14.4-58.6,22.7c-3.2,1.4-4.8,7.6-6.1,11.9c-0.3,0.9,4.1,4.9,5.7,4.6
			c4-0.8,7.9-2.9,11.4-5.1c2.7-1.7,4.5-4.6,7-6.7c16.7-14.1,37.2-19.4,57.7-23.5c34.5-7,69.1-13.3,103.8-19.1
			C415,799.4,428.4,799.4,441.5,798.4z M439.1,830.1c-0.4,0.5-0.9,1-1.2,1.6c-0.1,0.1,0.5,0.9,0.6,0.8c0.6-0.2,1.2-0.6,1.8-0.9
			C440,831.1,439.5,830.6,439.1,830.1z"/>
		<path class="st15" d="M456.8,824.3c-3.6-0.3-7.3-0.6-10.9-0.9c0-0.4,0-0.9,0-1.3c3.3-0.5,6.6-1.1,11.9-1.9
			c-2.1-10.1-4.7-19.8-6.2-29.7c-1.5-10-1.7-20.1-3-30.2c-0.5-3.6-2.4-7-3.7-10.5c-0.2-1.1-0.3-2.2-0.5-3.4
			c-0.1-10.1-0.2-20.2-0.3-30.4c0-2.7,0.1-5.4,0.1-8.1c1.7-2.5,3.3-5,5-7.5c1.9,5.9,3.7,11.8,5.6,17.7c0.7,6.1,1.6,12.2,2.2,18.3
			c2.2,25.6,4.2,51.3,6.6,77C464.1,819.4,465.3,824.5,456.8,824.3z"/>
		<path class="st4" d="M830.8,570.2c1.9-0.9,3.9-1.9,5.8-2.8c32.2,18,63.4,38.1,96.9,53.2c24.3,10.9,51.3,15.9,77.5,22
			c14.8,3.4,18.6,5.7,23.2,25.5c-2.4,0-4.9,0-7.3,0c-1.8-3.6-3.4-7.3-5.6-10.7c-1.6-2.5-3.5-5.7-6-6.6c-7-2.3-14.3-3.6-21.6-5.3
			c-39.8-9.1-78.8-20.3-114.1-41.7c-4.9-3-10.4-5.1-15.6-7.7c-1.2,0.7-2.3,1.3-3.5,2c3.3,14.5,6,29.3,10.1,43.6
			c3.3,11.6,8.4,22.7,12.7,34c-4,0-8,0-12,0c-4.4-9-10.2-17.5-12.7-27c-5.2-19.4-7.6-39.5-13.1-58.7
			C843.4,582.7,835.9,576.8,830.8,570.2z"/>
		<path class="st10" d="M651.4,525c-0.9-0.7-1.9-1.5-2.8-2.2c1.1-1,2.3-1.9,3.4-2.9C651.8,521.6,651.6,523.3,651.4,525z"/>
		<path class="st28" d="M883.4,675.7c-4.3-11.3-9.3-22.4-12.7-34c-4.1-14.3-6.8-29-10.1-43.6c1.2-0.7,2.3-1.3,3.5-2
			c5.2,2.5,10.7,4.7,15.6,7.7c35.3,21.4,74.4,32.6,114.1,41.7c7.2,1.7,14.6,3,21.6,5.3c2.5,0.8,4.4,4.1,6,6.6
			c2.2,3.4,3.7,7.1,5.6,10.7c0.3,1.7,0.5,3.4,0.8,5.2c0.5,1.6,0.9,3.3,1.4,4.9c5,22,17.5,39.5,32.4,55.6
			c-29.6,17.9-61.3,17.7-93.7,10.4c-8.9-2-17.8-4-26.7-6.1c-3.3-1.7-6.6-3.3-9.8-5c0,0,0.1,0.1,0.1,0.1
			c-13.4-14.2-26.8-28.5-40.2-42.7c0,0,0,0,0,0c-2.4-4.2-4.8-8.5-7.2-12.7C884.2,677.1,883.9,676.3,883.4,675.7z"/>
		<path class="st20" d="M1143.4,766.7c20.6-2.8,41.4-4.4,61.6-8.7c10.2-2.2,19.3-9.2,28.9-14c34.7-17.3,53.6-48.5,70.3-81.2
			c3.6-7,3.4-16.3,3.5-24.5c0.4-24.2,0.2-48.5,0.2-72.7c0-10.1-0.5-21.2,12.9-22.8c11.1-1.3,19.5,10.7,19.1,25.5
			c-4.7-5.9-9.4-11.7-14.1-17.6c-2.6,4.5-3.7,8.6-2.1,10.5c10.7,12.5,9.8,27.4,9,42.1c-1.1,19.2-2.3,38.5-5.4,57.4
			c-1.9,11.2-7.6,21.7-11.6,32.6c-9.8,16.4-22.7,29.9-38.6,40.4c-1.1,0.8-1.5,2.7-2.2,4c-32.6,19-67.3,30.8-105.2,32.1
			C1160.9,768.8,1152.2,767.7,1143.4,766.7z"/>
		<path class="st3" d="M1027.8,673.3c-0.3-1.7-0.5-3.4-0.8-5.2c2.4,0,4.9,0,7.3,0c0.8,3.4,1.6,6.8,2.4,10.3c0,1.1,0.1,2.2,0.1,3.3
			c5.7,8.1,11.2,16.4,17,24.4c6.7,9.2,13.5,18.3,20.3,27.4c-4.2,0.1-8.3,0.2-12.5,0.3c-15-16.1-27.5-33.7-32.4-55.6
			C1028.7,676.6,1028.2,674.9,1027.8,673.3z"/>
		<path class="st29" d="M891.3,690.5c13.4,14.2,26.8,28.5,40.2,42.7c-5.8-2.6-11.5-5.1-17.3-7.7c-5.8-7.4-11.8-14.5-17.2-22.2
			C894.4,699.6,893.1,694.9,891.3,690.5z"/>
		<path class="st29" d="M931.4,733.2c3.3,1.7,6.6,3.3,9.8,5C937.9,736.5,934.7,734.9,931.4,733.2z"/>
		<path class="st20" d="M1400.5,617.8c2.5,11.1,6.3,22.1,7.2,33.3c2.4,29.4,16.6,50.5,41.8,65c2.7,1.5,4.4,4.7,6.6,7
			c-17.5-2.7-29.3-13.6-39.5-26.9c-6.2-9.8-17.8-16.6-16.5-30.4c-1.3-14.3-2.7-28.6-3.6-42.9
			C1396.3,621.2,1399.1,619.5,1400.5,617.8z"/>
		<path class="st16" d="M640.1,746c-6.9,9-13.8,17.9-20.7,26.8c0,0,0.1,0.2,0.1,0.2c-4.2,4.3-8.5,8.5-12.7,12.8
			c-7.3,4.5-14.6,8.9-21.9,13.4c-6.6,0-13.2,0-21.8,0c3.7-10.7,6.6-19.3,9.5-28c8.1-10.1,16.2-20.2,24.2-30.3
			c5.6-12.9,10.8-26,17-38.6c9.9-20.4,8.3-42,1.7-61.6c-6-17.7-10.4-35-11-53.5c0-19.7,0-39.4-0.1-59.1c2.6-12.2,4.7-24.6,8.4-36.5
			c0.9-2.9,7.5-6.3,10.7-5.7c7.9,1.5,15.4,5.2,23.7,8.3c-0.8,12.6-1.5,25.4-2.3,38.1c-1.4,9.2-4.1,18.4-4,27.5
			c0.2,10.1,2.5,20.3,4.7,30.2c4.3,18.9,11.2,37.5,13.1,56.7c1.8,17.7,0,36.2-3.3,53.7C652.6,715.9,645.4,730.8,640.1,746z"/>
		<path class="st10" d="M1400.5,617.8c-1.4,1.7-4.2,3.5-4.1,5.1c0.9,14.3,2.4,28.6,3.6,42.9c-3.8,1.7-7.5,3.3-11.3,5
			c-1.7-16.7-11.4-23-27.6-23.3c-17.7-0.2-17.1-0.8-21,16.8c-1.7,7.8-6.3,14.9-9.4,22.3c-1.2,2.9-1.8,6-2.6,9
			c-1.7,0.1-3.5,0.1-5.2,0.2c-2.4-0.8-4.8-1.7-7.2-2.5c4-10.8,9.8-21.4,11.6-32.6c3.2-18.9,4.3-38.2,5.4-57.4
			c0.9-14.6,1.7-29.6-9-42.1c-1.6-1.9-0.6-6,2.1-10.5c4.7,5.9,9.4,11.7,14.1,17.6c1.5,24.4,3,48.9,4.5,74c12.4,0.7,25.1,1.3,37.4,2
			c2-12,3.8-24.2,6.3-36.2c3.6-17.8,12.2-32.6,27.4-43.1c0.4,0.4,0.9,0.8,1.3,1.3C1409.7,582.8,1399.8,598.6,1400.5,617.8z"/>
		<path class="st20" d="M1328.2,695.6c0.9-3,1.4-6.1,2.6-9c3.1-7.5,7.7-14.6,9.4-22.3c3.8-17.6,3.3-17,21-16.8
			c16.2,0.2,25.9,6.5,27.6,23.3c1,3.5,2,7,3,10.5c-4.7,13.5-12.6,22.3-28.5,19.6c-2.8-0.5-5.8,0.2-8.7,0.3
			C1345.7,699.3,1337,697.4,1328.2,695.6z"/>
		<path class="st13" d="M1354.5,701.2c2.9-0.1,5.9-0.8,8.7-0.3c15.9,2.7,23.8-6.1,28.5-19.6c5.5,7.4,11,14.7,16.6,22.1
			C1390.4,702.6,1372.5,701.9,1354.5,701.2z"/>
		<path class="st29" d="M884.1,677.9c2.4,4.2,4.8,8.5,7.2,12.7C888.9,686.3,886.5,682.1,884.1,677.9z"/>
		<path class="st4" d="M210.8,725.1c-15.6-4.8-23.5-18.8-32.3-30.3c-8.7-11.4-16-25.7-18.2-39.6c-1.6-10.2,4.8-22.4,9.8-32.7
			c6.1-12.5,13.7-24.7,28.1-29.9c-5.2,8.3-9.9,17.1-15.8,24.9c-21.1,28.4-13.5,55,6,79.1c7.1,8.8,15.5,16.4,23.3,24.6
			C211.4,722.6,211.1,723.8,210.8,725.1z"/>
		<path class="st10" d="M376.4,745.4c-49.2,9.6-97.7,8.6-145.3-8.8c-2.2-0.8-3.7-3.7-5.5-5.6c8.2,2.5,16.3,5.2,24.5,7.3
			c32.1,8.3,64.8,8.5,97.6,6.8c9.5-0.5,19-2,28.5-3C376.3,743.2,376.4,744.3,376.4,745.4z"/>
		<path class="st12" d="M376.4,745.4c-0.1-1.1-0.1-2.1-0.1-3.2c24.9-6.9,47.9-17.5,67.9-34.1c0,2.7-0.1,5.4-0.1,8.1
			C423.8,731.1,401.7,741.9,376.4,745.4z"/>
		<path class="st10" d="M245.7,565c6.2-4,11.9-9,18.6-11.9c15.4-6.6,31.2-12.3,46.8-18.3c-4.5,3.2-8.7,7.3-13.6,9.4
			C280.4,551.5,263,558.1,245.7,565z"/>
		<path class="st10" d="M311,534.9c15.9-6.7,31.8-13.4,47.7-20.1c0.3,1,0.9,2.7,0.9,2.8C343.5,523.4,327.3,529.1,311,534.9z"/>
		<path class="st15" d="M449.7,640.4c1.5,1.7,4.2,3.5,4.2,5.2c0.4,13.3,0.4,26.6,0,39.9c0,1.8-2.7,3.6-4.1,5.3
			C449.8,674,449.8,657.2,449.7,640.4z"/>
		<path class="st10" d="M198.1,592.7c4-12.1,15.4-13.6,25.1-17.6C214.8,580.9,206.4,586.8,198.1,592.7z"/>
		<path class="st10" d="M223.2,575c5.8-7.4,13-11.5,22.6-10.1C238.3,568.3,230.8,571.6,223.2,575z"/>
		<path class="st10" d="M210.8,725.1c0.3-1.3,0.6-2.6,0.9-3.9c4.7,3.3,9.4,6.6,14.1,9.9C220.8,729.1,215.8,727.1,210.8,725.1z"/>
		<path class="st3" d="M502.4,768.6c-0.2,1.5-0.4,3.1-0.6,4.6c-7.8,8.9-5.1,18.3-1.6,27.8c-1.2,5.9-2.4,11.8-3.6,17.6
			c-2.1,0-4.1,0-6.2-0.1c0.6-37.6,0.7-75.1,1.9-112.6c0.7-22.3,6.2-44.8,4-66.7c-3.2-33.2-5.9-66.8-22.4-97.9
			c-8.1-15.3-8.5-34.7-12-52.4c-1.4-7-1.8-14.1,0.3-17.9c5.7-1.8,11.8-2.9,17.1-5.5c3.9-1.9,6.9-5.6,10.3-8.5c1,0.1,2,0.1,3,0.2
			c-0.2,1.6-0.4,3.2-0.6,4.8c0.8,1.6,1.6,3.1,2.4,4.7c-1.7,0.1-3.8-0.4-4.9,0.5c-7.5,5.9-17.9,10.8-21.1,18.6
			c-2.6,6.4,3.4,16.3,5.6,24.7c6,22.1,11.8,44.2,18.2,66.2c2.5,8.7,6.1,17.1,9.2,25.6c1.2,27,2.4,54,3.5,81
			c-0.7,7.4-1.4,14.8-2.1,22.2c-1.8,17.9-3.9,35.8-5.2,53.8C497.3,762.2,500.7,765.5,502.4,768.6z"/>
		<path class="st15" d="M490.3,818.6c2.1,0,4.1,0,6.2,0.1c-1.8,6.1-3.7,12.2-5.3,17.4c-28.5,5.2-57,9.4-85,15.9
			c-19.9,4.6-39.1,12-58.5,18.6c-6.8,2.3-13.3,5.9-19.9,8.9c-5.5-0.1-11.1-0.3-16.6-0.4c29.3-10.5,58.5-21,87.8-31.6
			c5-1.1,10.1-2.3,15.1-3.4c4.2-0.9,8.3-1.7,12.5-2.6c14.2-2.7,28.4-5.4,42.7-8c6.3-0.7,12.6-1.4,19-2
			C489.1,826.5,489.7,822.5,490.3,818.6z"/>
		<path class="st4" d="M492.6,457.4c-1-0.1-2-0.1-3-0.2c8.6-12.9,17.7-25.4,25.6-38.7c6.1-10.2,10.6-21.2,15.9-31.8
			c2.2,1.9,4.3,3.7,6.5,5.6c-0.8,2.2-1.4,4.6-2.4,6.7c-6,12.1-12.1,24.2-18.2,36.3c0,1.1,0.1,2.1,0.1,3.2
			C508.9,444.8,500.8,451.1,492.6,457.4z"/>
		<path class="st10" d="M301,695.3c0-0.7,0.1-1.4,0.2-2.1c0.8,0.5,1.5,1.1,2.3,1.6C302.7,695,301.8,695.1,301,695.3z"/>
		<path class="st10" d="M891.5,526.4c2.4-2.2,4.7-4.3,7.1-6.5c4.2,0,8.5,0,12.7,0c8.6-0.8,17.3-1.7,25.9-2.5
			c20.9-3.4,41.8-6.2,62.6-10.3c17.4-3.5,34.6-8.4,51.9-12.7c38-10,74.2-25.2,107.6-45.5c19-11.6,35.1-28.2,52.5-42.5
			c1.9-1.5,3.8-2.9,5.7-4.4c0.9,2.7,1.9,5.4,2.8,8.1c-10.1,9.5-19.3,20.3-30.5,28.2c-20.1,14.3-40.8,27.8-62.3,39.9
			c-10.2,5.8-22.7,7.5-34.3,10.9c-27.7,8.1-55,18.5-83.3,23.4C970.9,519.2,931,521.9,891.5,526.4z"/>
		<path class="st10" d="M851.2,525.6c9.3-4.4,18.6-6.4,27.4,1.1C869.4,526.3,860.3,525.9,851.2,525.6z"/>
		<path class="st10" d="M1415.6,564.9c1.3-1.8,2.6-3.5,4-5.3c0.5,0.3,1,0.6,1.4,1c-1.4,1.9-2.7,3.7-4.1,5.6
			C1416.5,565.8,1416,565.3,1415.6,564.9z"/>
		<path class="st4" d="M1036.8,681.7c0-1.1-0.1-2.2-0.1-3.3C1036.7,679.5,1036.7,680.6,1036.8,681.7z"/>
		<path class="st19" d="M1032.7,346.6c-34.8-0.7-69.1-3.9-100.5-20.6c-5.4-2.9-10.2-7.1-14.6-11.4c-10.6-10.4-8.3-21.6,5.4-27.4
			c21.7-9.2,44.6-10.3,67.4-7.8c23.5,2.6,47,6.4,69.8,12.4c13.5,3.5,26.6,11,38.2,19c9.9,6.8,9.2,19.6-1.6,24.1
			c-14.2,6-30,8.3-45.3,11.4C1045.4,347.6,1038.9,346.6,1032.7,346.6z"/>
		<path class="st24" d="M592.1,275.5c2.5,0.2,5.1,0.3,7.6,0.5c17.8-1.2,33.4,5,47.9,14.5c2.6,1.1,5.1,2.2,7.7,3.3
			c0,0-0.1-0.2-0.1-0.1c2.7,3.5,5.2,7.2,8.1,10.5c5.2,5.9,13.2,10.7,15.5,17.5c8,24.1,4.3,62.8-21.7,76.6
			c-20.1,10.6-43.1,16-64.8,23.7c3.8-20.4,8.5-40.7,11.3-61.2c4.1-29.5,3.1-58.4-18.2-83.7C588.4,276.3,590.3,275.9,592.1,275.5z"/>
		<path class="st29" d="M592.4,421.9c21.7-7.7,44.7-13,64.8-23.7c26-13.8,29.7-52.5,21.7-76.6c-2.3-6.8-10.3-11.6-15.5-17.5
			c-2.9-3.3-5.4-7-8.1-10.5c25.1,9.8,48.5,22,61.5,47.4c9,17.6,6.8,41.5-10.2,56.2c-23.3,20.1-51.1,26.2-79.4,32.1
			c-7.2,1.5-14.7,1.8-22.1,2.6c-2.5,0-5.1-0.1-7.6-0.1c-3-0.7-6-1.4-9-2C589.7,427.2,591.1,424.5,592.4,421.9z"/>
		<path class="st8" d="M788.3,296.9c-12.6-3.1-23-8.8-25.2-23.1c-3.5-22.6,6.1-36.3,22.6-47.5c1.7-1.1,3.5-2,5.3-3
			c5,0.1,10,0.2,15,0.3c20,0.4,31.6,13.1,30.1,33.2C834.7,275.1,809.8,296,788.3,296.9z"/>
		<path class="st27" d="M788.3,296.9c21.5-0.8,46.5-21.8,47.8-40.1c1.5-20.1-10.1-32.8-30.1-33.2c-5-0.1-10-0.2-15-0.3
			c24.2-11.7,46.7-4.4,58.4,19.1c5.9,11.7-1.2,21.4-6.4,30C832.6,289.5,810.2,304.4,788.3,296.9z"/>
		<path class="st15" d="M918.7,179c11,4.3,22.1,8.7,35.7,14c-10.3,5.6-9.5,4.1-16.7,0.2c-7-3.7-15.9-3.8-23.9-5.5
			C915.5,184.8,917.1,181.9,918.7,179z"/>
		<path class="st14" d="M617.6,168.8c-2.7,0.5-5.4,1-8.1,1.3c-1.3,0.1-2.8-0.4-4.1-0.6c0.8-1.6,1.5-3.3,2.3-4.9
			c14.2-7.2,28.8-8.9,44.7-2.5C640.3,164.5,628.9,166.6,617.6,168.8z"/>
		<path class="st12" d="M918.7,179c-1.6,2.9-3.2,5.8-4.9,8.7c-17.4,4.5-17.4,4.5-23.3-6.7C900.6,180.3,909.6,179.7,918.7,179z"/>
		<path class="st3" d="M727.3,455.5c14-2.1,28-4.2,42-6.3c0.2,1.6,0.4,3.3,0.6,4.9c-14.1,1.7-28.3,3.4-42.4,5.1
			C727.4,458,727.3,456.7,727.3,455.5z"/>
		<path class="st3" d="M937.2,517.4c-8.6,0.8-17.3,1.7-25.9,2.5C919.9,519.1,928.6,518.2,937.2,517.4z"/>
		<path class="st10" d="M597.4,431.8c2.5,0,5.1,0.1,7.6,0.1c-2.5,0.7-5.1,1.4-7.6,2.1C597.4,433.3,597.4,432.6,597.4,431.8z"/>
		<path class="st10" d="M579.8,456.9c1.6-2.4,3.1-4.9,4.7-7.3C582.9,452,581.3,454.5,579.8,456.9z"/>
		<path class="st29" d="M655.4,293.7c-2.6-1.1-5.1-2.2-7.7-3.3C650.2,291.6,652.8,292.6,655.4,293.7z"/>
		<path class="st18" d="M591.2,873.7c-2.3,0.7-4.5,1.4-6.8,2c-6-1.7-11.9-3.2-17.8-5c-3.3-1-6.4-2.5-9.6-3.8c0,0,0.1,0,0.1,0
			c-2-1-4-2-5.9-3c-0.8,0-1.1-0.4-1-1.2c-4.5-3.7-8.9-7.7-13.7-11.1c-4.5-3.1-9.5-5.6-14.2-8.3c2.6-2.2,5.2-4.3,7.7-6.5
			c3.6-1.9,7.1-3.7,10.7-5.6c28.9-1.2,57.6-0.5,85.7,7.6c7.1,2.5,14.3,5,21.4,7.6l-0.1-0.1c-4.8,3.9-9.2,8.4-14.4,11.7
			c-5.1,3.2-11.1,5-16.7,7.4C608.1,868.1,599.6,870.9,591.2,873.7z"/>
		<path class="st3" d="M517.1,438.5c0-1.1-0.1-2.1-0.1-3.2c8.6,0.6,14-1.9,15.4-11.7c0.8-5.8,4.4-11.3,6.8-16.9
			c1.7,0.1,3.3,0.1,5,0.2c-7,27.6-16.3,54.9-20.3,82.9c-4.5,31.4-6,63.6-5.6,95.3c0.5,40.3,4.7,80.5,6.2,120.7
			c0.6,17.5-0.9,35.1-2.6,52.5c-0.6,6-4.5,11.7-7,17.7c-3.1-4.2-5.4-7.3-7.6-10.3c3.3-9,8.8-17.8,9.3-26.9
			c1.3-21.8,0.3-43.7,0.2-65.6c-2.1-28.5-4.1-57-6.2-85.5c0.2-40.4-5.3-81.2,11.7-121.1c-5.1,0-8.9,0-12.6,0c0-1.3,0-2.7,0-4
			c17.3,1.8,14.1-13.4,20.7-22.2C524.5,439.5,520.8,439,517.1,438.5z"/>
		<path class="st2" d="M516.7,673.2c0.1,21.9,1.1,43.8-0.2,65.6c-0.6,9.1-6.1,18-9.3,26.9c-1.6,0.9-3.2,1.9-4.8,2.8
			c-1.7-3.1-5-6.3-4.8-9.3c1.3-18,3.4-35.9,5.2-53.8c0.8-7.4,1.4-14.8,2.1-22.2C508.8,679.9,512.8,676.6,516.7,673.2z"/>
		<path class="st10" d="M566.2,635.8c2.2-0.2,4.5-0.4,6.7-0.6c1.5,2.6,4.2,5.2,4.2,7.8c0.2,31.8,0,63.6-0.1,95.4
			c-1.7,4.5-3.4,9-5.4,14.3c-0.9-2.1-1.5-3.5-2.1-4.9c0-35.6,0.1-71.2,0.1-106.8c-0.2-0.7-0.4-1.4-0.7-2
			C568.1,638,567.1,636.9,566.2,635.8z"/>
		<path class="st15" d="M572.7,771.2c-2.9,8.6-5.9,17.3-9.5,28c8.6,0,15.2,0,21.8,0c3.5,2.4,6.7,5.8,10.6,7
			c5.7,1.6,11.9,1.6,17.8,2.3c-0.4,0.3-0.8,0.5-1.3,0.6c-14.2-0.2-28.4-0.5-42.5-0.6c-8.4,0-17.4-1.6-20.5,10.2
			c-0.6,2.4-5.9,3.6-9,5.3c-0.6-0.6-1.2-1.2-1.8-1.8c4.5-7,9.8-13.5,13.1-21c3.9-8.7,5.7-18.3,8.9-27.4c0.7-2.1,3-3.6,4.6-5.4
			C567.4,769.4,570,770.3,572.7,771.2z"/>
		<path class="st4" d="M572.7,771.2c-2.7-0.9-5.3-1.8-8-2.8c1.6-6.9,3.2-13.7,4.8-20.6c0.6,1.4,1.2,2.8,2.1,4.9
			c2-5.4,3.7-9.8,5.4-14.3c7.5,12.8,9.7-4.4,15.2-2.7c1.6,1.7,3.1,3.4,4.7,5.2C588.9,751,580.8,761.1,572.7,771.2z"/>
		<path class="st10" d="M544.2,406.9c-1.7-0.1-3.3-0.1-5-0.2c0-4.8,0-9.7,0-14.5c1.8-7,3.2-14.2,5.6-21.1c1.2-3.5,4.4-6.3,6.6-9.4
			C549,376.8,546.6,391.9,544.2,406.9z"/>
		<path class="st28" d="M500.1,801c-3.5-9.5-6.1-19,1.6-27.8c0.3,5.3,0.7,10.6,1,15.9c0.6,0.2,1.1,0.3,1.7,0.5
			c0.7-2.7,1.4-5.5,2.5-9.4C518.1,793,503.4,794.8,500.1,801z"/>
		<path class="st3" d="M522.1,843.3c4.8,2.8,9.7,5.2,14.2,8.3c4.8,3.4,9.2,7.4,13.7,11.1c-13.1-5.2-26.2-10.3-39.9-15.8
			C514.1,845.8,518.1,844.5,522.1,843.3z"/>
		<path class="st15" d="M540.6,831.2c-3.6,1.9-7.1,3.7-10.7,5.6c2.7-4.8,5.5-9.7,8.2-14.5c0.6,0.6,1.2,1.2,1.8,1.8
			C540.2,826.5,540.4,828.8,540.6,831.2z"/>
		<path class="st10" d="M592.2,386.3c-1.5,3.5-2.9,7-4.4,10.5C589.3,393.3,590.7,389.8,592.2,386.3z"/>
		<path class="st10" d="M577,448.8c-1.4,2-2.7,3.9-4.1,5.9C574.3,452.7,575.7,450.7,577,448.8z"/>
		<path class="st10" d="M584.6,421.2c-1.4,1.9-2.7,3.9-4.1,5.8C581.8,425.1,583.2,423.1,584.6,421.2z"/>
		<path class="st3" d="M551.1,863.9c2,1,4,2,5.9,3C555,865.9,553.1,864.9,551.1,863.9z"/>
		<path class="st15" d="M338.8,880.4c-0.8,0.1-1.7,0.1-2.5,0.2C337.1,880.5,338,880.5,338.8,880.4z"/>
		<path class="st3" d="M569,639.1c0.3,0.6,0.6,1.3,0.7,2C569.2,640.5,568.9,639.8,569,639.1z"/>
		<path class="st2" d="M592.3,735.7c-5.5-1.7-7.7,15.4-15.2,2.7c0.1-31.8,0.3-63.6,0.1-95.4c0-2.6-2.7-5.2-4.2-7.8
			c-2.6-39.8-5.2-79.6-7.8-119.4c1.4-4.5,2.8-9,4.2-13.5c1.1-9,2.2-17.9,3.2-26.9c1.4-1.9,2.7-3.8,4.1-5.8
			c9.9,3.1,19.8,6.1,29.3,9.1c-3.3,18.6-6.3,35.8-9.5,52.9c-6.1,32.2-2.6,63.4,7.4,94.5c4.6,14.3,9.4,30.1,7.7,44.5
			c-2.2,19-10.6,37.3-16.4,55.9C594.2,729.6,593.3,732.6,592.3,735.7z"/>
		<path class="st11" d="M604.5,528.1c0,19.7,0,39.4,0.1,59.1c-1.3-2.3-3.6-4.5-3.6-6.8c-0.4-15.2-0.4-30.4-0.1-45.6
			C600.9,532.5,603.2,530.3,604.5,528.1z"/>
		<path class="st10" d="M569.3,502.3c-1.4,4.5-2.8,9-4.2,13.5C566.5,511.3,567.9,506.8,569.3,502.3z"/>
		<path class="st10" d="M576.7,469.6c-1.4,1.9-2.7,3.8-4.1,5.8C573.9,473.5,575.3,471.6,576.7,469.6z"/>
		<path class="st13" d="M803.4,74.7c-24.3,1.8-48.7,3.5-73,5.3c0.9-1.5,1.7-3.1,2.6-4.6C756.4,75.2,779.9,74.9,803.4,74.7z"/>
		<path class="st13" d="M725.4,82.1l-1.2,0.3c0,0-1.2-0.2-1.2-0.2C723.8,82.1,724.6,82.1,725.4,82.1z"/>
		<path class="st2" d="M1707.2,324c-1.7,0.1-3.4,0.1-5.1,0.2c-2.9-8.8-5.8-17.6-8.8-26.4c-1-3-2.5-5.8-3.8-8.8
			c19.8,4.4,25.2,9.4,24.6,23.1c-2.4,4-4.7,8-7.1,11.9C1707,324.1,1707.2,324,1707.2,324z"/>
		<path class="st15" d="M1707,324.1c2.4-4,4.7-8,7.1-11.9C1714.9,318.1,1714.9,323.4,1707,324.1z"/>
		<path class="st6" d="M539.3,392.2c0,4.8,0,9.7,0,14.5c-2.4,5.6-5.9,11-6.8,16.9c-1.4,9.8-6.9,12.3-15.4,11.7
			c6.1-12.1,12.2-24.2,18.2-36.3c1-2.1,1.6-4.5,2.4-6.7C538.1,392.1,538.7,392.1,539.3,392.2z"/>
		<path class="st23" d="M540.6,831.2c-0.2-2.4-0.4-4.7-0.7-7.1c3.1-1.7,8.4-2.9,9-5.3c3.1-11.8,12.1-10.3,20.5-10.2
			c14.2,0.1,28.4,0.4,42.5,0.6c23.4,5.8,46.8,11.7,72.6,18.1c-4.9,4.5-8,7.3-11.1,10.1c-2.8,2.1-5.7,4.2-8.5,6.3
			c-5.8,0.9-11.6,1.8-17.4,2.7c0,0,0.1,0.1,0.1,0.1c-7.1-2.5-14.3-5-21.4-7.6C598.2,830.7,569.5,830,540.6,831.2z"/>
		<path class="st18" d="M613.3,808.5c-6-0.7-12.1-0.7-17.8-2.3c-3.9-1.1-7.1-4.6-10.6-7c7.3-4.5,14.6-8.9,21.9-13.4
			c4.2-4.2,8.5-8.5,12.7-12.8c0,0-0.1-0.2-0.1-0.2c4.4-1.4,8.9-2.7,13.3-4.1c0.4,0.8,0.8,1.6,1.1,2.4c-1.9,1.5-3.7,2.9-6.9,5.4
			c23.4,16.5,47.3,29,73.3,37.6c-1.9,3-3.9,5.9-5.8,8.9c-14.5-2.9-28.9-5.9-43.4-8.5C638.6,812.2,625.9,810.4,613.3,808.5z"/>
		<path class="st7" d="M633.9,771.1c-0.4-0.8-0.8-1.6-1.1-2.4c0.7-1,1.5-2,2.2-3c19.1-0.6,38.3-1.1,57.4-1.7
			c2.5,0.4,5.1,0.8,7.6,1.2c1,1.2,2,2.3,3,3.5c-2,10.5,6.4,24.4-10.1,30C673.1,789.4,653.5,780.3,633.9,771.1z"/>
		<path class="st24" d="M692.8,798.6c16.5-5.6,8.2-19.5,10.1-30c11.8,1.9,12.4,10.7,11.9,19.8c-0.2,4.1-1.5,8.2-2.2,12.2
			c-1.7,1.7-3.3,3.3-5,5c-1.5,0-3,0-4.5,0C699.6,803.3,696.2,800.9,692.8,798.6z"/>
		<path class="st20" d="M692.4,764c-19.1,0.6-38.3,1.1-57.4,1.7c1.8-1,3.5-2,5.3-3.1C657.6,763.1,675,763.5,692.4,764z"/>
		<path class="st9" d="M692.8,798.6c3.4,2.3,6.9,4.7,10.3,7c0,1.9,0,3.7,0,5.6c-0.9,1-1.9,1.9-2.8,2.9c-26-8.7-49.9-21.1-73.3-37.6
			c3.2-2.5,5-3.9,6.9-5.4C653.5,780.3,673.1,789.4,692.8,798.6z"/>
		<path class="st4" d="M703.1,811.2c0-1.9,0-3.7,0-5.6c1.5,0,3,0,4.5,0C706.1,807.5,704.6,809.3,703.1,811.2z"/>
		<path class="st16" d="M399.1,847.4c-29.3,10.5-58.5,21-87.8,31.6c-15.1-0.8-30.2-1.7-45.2-2.5c5.3-4.9,9.7-12.1,15.9-14.4
			c28.8-10.7,57.8-20.6,87.2-29.4c9.4-2.8,19.9-1.6,29.9-2.3C399.1,836.1,399.1,841.8,399.1,847.4z"/>
		<path class="st15" d="M399.1,830.4c-10,0.6-20.6-0.6-29.9,2.3c-29.4,8.9-58.4,18.8-87.2,29.4c-6.2,2.3-10.7,9.5-15.9,14.4
			c-4.2-0.8-8.5-1.7-12.7-2.5c10.3-7.7,20.5-15.5,31.1-23.4c-0.8-0.5-3-1.8-5.1-3.1c13.5-7.9,33.4-0.7,42.7-14.6
			c6.7,0,12.9,0.7,18.8-0.1c28.3-3.7,56.6-8,84.9-11.7c4.3-0.6,8.8,0.6,13.4,3.9C425.8,826.7,412.5,828.6,399.1,830.4z"/>
		<path class="st15" d="M441.5,798.4c-13.1,1-26.4,0.9-39.4,3.1c-34.7,5.8-69.3,12.1-103.8,19.1c-20.6,4.2-41,9.4-57.7,23.5
			c-2.5,2.1-4.3,5-7,6.7c-3.5,2.3-7.4,4.4-11.4,5.1c-1.7,0.3-6-3.6-5.7-4.6c1.3-4.3,2.9-10.4,6.1-11.9c19.2-8.4,38.4-17.5,58.6-22.7
			c31.6-8.2,63.7-14.8,96-19.7c21-3.2,42.7-2.2,64.1-3.1C441.3,795.5,441.4,797,441.5,798.4z"/>
		<path class="st16" d="M426.7,841.5c-4.2,0.9-8.3,1.7-12.5,2.6C416.1,832.3,421,834.9,426.7,841.5z"/>
		<path class="st16" d="M439.1,830.1c0.4,0.5,0.9,1,1.3,1.5c-0.6,0.3-1.2,0.7-1.8,0.9c-0.1,0-0.7-0.7-0.6-0.8
			C438.2,831.2,438.7,830.7,439.1,830.1z"/>
		<path class="st4" d="M1027.8,673.3c0.5,1.6,0.9,3.3,1.4,4.9C1028.7,676.6,1028.2,674.9,1027.8,673.3z"/>
		<path class="st15" d="M619.6,773c-4.2,4.3-8.5,8.5-12.7,12.8C611.1,781.5,615.3,777.3,619.6,773z"/>
		<path class="st2" d="M509.6,466.6c3.7,0,7.4,0,12.6,0c-17,39.9-11.5,80.7-11.7,121.1c-9.6,0.8-7.9,8.6-9.1,14.6
			c-3.1-8.5-6.7-16.9-9.2-25.6c-6.3-22-12.2-44.1-18.2-66.2c-2.3-8.3-8.3-18.3-5.6-24.7c3.2-7.8,13.6-12.7,21.1-18.6
			c1.1-0.9,3.3-0.3,4.9-0.5C499.4,466.7,504.5,466.7,509.6,466.6z"/>
		<path class="st7" d="M501.4,602.3c1.2-6-0.5-13.8,9.1-14.6c2.1,28.5,4.2,57,6.2,85.5c-3.9,3.3-7.9,6.7-11.8,10
			C503.7,656.3,502.6,629.3,501.4,602.3z"/>
		<path class="st20" d="M517.1,438.5c3.7,0.5,7.4,1,13.2,1.8c-6.7,8.8-3.4,24.1-20.7,22.2c-5.9-0.1-11.8-0.3-17.7-0.4
			c0.2-1.6,0.4-3.2,0.6-4.8C500.8,451.1,508.9,444.8,517.1,438.5z"/>
		<path class="st4" d="M491.9,462.1c5.9,0.1,11.8,0.3,17.7,0.4c0,1.3,0,2.7,0,4c-5.1,0.1-10.2,0.2-15.2,0.2
			C493.6,465.3,492.7,463.7,491.9,462.1z"/>
		<path class="st15" d="M626.3,838.8c7.1,2.5,14.3,5,21.4,7.6C640.6,843.8,633.5,841.3,626.3,838.8z"/>
	</g>
</g>
</svg>
