<?xml version="1.0" encoding="utf-8"?>
<!-- Generator: Adobe Illustrator 25.0.0, SVG Export Plug-In . SVG Version: 6.00 Build 0)  -->
<svg version="1.1" id="Ebene_1" xmlns="http://www.w3.org/2000/svg" xmlns:xlink="http://www.w3.org/1999/xlink" x="0px" y="0px"
	 viewBox="0 0 1920 1080" style="enable-background:new 0 0 1920 1080;" xml:space="preserve">
<style type="text/css">
	.st0{fill:#80D2F8;}
	.st1{fill:#E02B45;}
</style>
<rect x="-57.3" y="-15.7" class="st0" width="2034.7" height="1111.3"/>
<g>
	<path d="M742.8,387.5L742.8,387.5c0.9,2.9-2.2,3.9-3.6,5.6c-1,1.2-2.9,1.7-4.3,2.5c-0.9,1-2.8,1.2-3.2,2c-1.6,2.9-3.7,4.8-7.1,5
		c-1.2,4.9-6.6,5.9-9.4,9.2c-1,1.2-3,1.6-4.2,2.7c-1.5,1.5-2.5,3.4-5.1,3.3c-0.1,0-0.4,0.3-0.4,0.4c0.1,3.2-2.9,2.3-4.7,3
		c0.2,0.3,0.5,0.5,0.7,0.8c-2.4,1.8-4.7,3.6-6.5,5c-1.9,1.3-3.1,2.1-4.3,2.8c-0.4,0.3-0.9,0.6-1.2,0.9c-1.9,2.6-3.8,5.1-7.1,5.6
		c-0.8,1.1-1.4,2-2.1,2.7c-0.8,0.8-1.9,1.4-2.8,2.1c-1.5,1.2-3,2.4-4.5,3.6c-1.1,0.9-2.3,1.8-3.4,2.7c0.1,0.1,0.2,0.3,0.4,0.4
		c-1.2,0.2-2.5,0.4-3.7,0.6c-1.1,2.1-2.5,3.8-4.2,5.1c-1.3,1.1-2.9,1.8-4.4,2.7c0.1,0.2,0.3,0.4,0.4,0.6c-1.2,0.2-2.4,0.5-3.1,0.6
		c-1,9.5-2.1,18.6-2.8,27.7c-0.4,5.8-0.3,11.7-0.3,17.6c0,1,0.4,1.9,0.8,3.5c1-1.8,1.4-3.4,2.1-3.5c2.1-0.3,3.4-1.3,4.8-2.7
		c1.5-1.5,2.6-3.9,5.6-3.6c0.1,0,0.4-0.3,0.4-0.5c0-3,2.6-2.3,4.3-2.7c0.5-1,0.8-2.4,1.5-2.7c1.5-0.6,2.5-1.7,3.5-2.2
		c1.9-0.9,2.6-2.3,3.8-3.4c1.2-1.1,2.7-1.9,4.1-2.8c1.7-0.8,4.3-0.6,3.9-2.6c2-1.5,3.1-3,4.6-3.5c2.5-0.7,2.4-4.5,5.9-3.8
		c0.2,0,0.8-0.3,0.8-0.5c-0.1-3,2.7-2.6,4.7-2.9c-0.2-0.2-0.4-0.5-0.6-0.7c3.9-2.9,7.9-5.9,11.8-8.8c0.1,0.1,0.1,0.1,0.2,0.2
		c1.9-1.7,3.8-3.4,5.7-5.1c1.4-0.8,2.6-2.1,4.1-2.6c2.4-0.8,2.4-4.7,6-3.9c0.2,0,0.7-0.3,0.7-0.5c-0.1-3.2,2.8-2.3,4.4-3.3
		c1.7-1.8,3.6-3.3,5.6-4.7c1.9-1.5,3.9-2.9,5.8-4.4c1-0.4,1.3-1.9,2-2c3.3-0.8,4.3-3.6,6.5-5.4c1.7-1.4,3.7-2.5,5.7-3.7
		c1.3-0.8,2.5-1.6,3.8-2.4c1-1,3-1.2,3.5-2.1c2.6-4.6,7.1-6.6,11.8-8.5c0.3-0.7,0.6-2.3,1.1-2.3c4.7-0.4,3.4-3.7,3.5-6
		c0.1-13.6,0-27.3,0.1-40.9c0-5.3-1.8-9.4-7.9-10.9c-0.4-0.1-1-0.5-1-0.7c0.1-2.1-1.4-2.3-3.1-2.5c-0.7-0.1-1.2-0.9-1.8-1.4
		c-1.5-1.5-2.8-3.4-4.6-4.6c-2.1-1.4-4.6-2.2-6.9-3.2c-0.2-0.1-0.2-0.4-0.3-0.5c-1.7-1.8-3.3-3.6-5.1-5.3c-1.1-1.1-2.2-2.3-3.6-3
		c-2.1-1.2-4.5-2-6.7-3.1c-0.5-0.2-0.5-1.1-0.9-1.6c-0.3-0.5-0.9-1.2-1.2-1.2c-3.4,0.5-4.2-2.6-5.5-4.1c-2.7-2.8-5.8-4.2-9.1-5.8
		c-0.9-1-2-1.8-3-2.6c-1.6-1.3-3.8-2.5-4.7-4.1c-1.4-2.5-4.3-2.8-6.1-4.5c-1-1-2.5-1.6-3.8-2.4c-2.9-1.2-5.4-3.4-6.4-6
		c-2.6-1.6-4.3-3-6.2-3.8c-1.4-0.6-2.4-0.7-3.4-2.4c-1.2-2.1-3.9-3.4-6.3-5.4c-0.9-0.6-2.1-1.3-3.3-2c-0.5-0.3-1.3-0.3-1.8-0.7
		c-1.7-1.5-3.1-4.2-4.9-4.5c-2.8-0.4-2.1-2.8-3.8-3.5c-1.4-0.6-2.5-1.6-3.8-2.5c-2.5-1.6-5.2-2.9-8-4.1c-0.1,0-0.1-0.2-0.2-0.3
		c-1.6-2.5-2.8-5.4-6.7-5.7c-0.3,0-0.4-1.2-0.8-1.6c-0.6-0.6-1.5-1.3-2.3-1.3c-1.4,0-4,0.3-4,0.6c-0.2,3.1-3.1,2.3-4.9,2.9
		c0.2,0.3,0.4,0.5,0.7,0.8c-3.9,3-7.9,5.9-11.8,8.9c-1.1,0.3-1.6,1.3-2.5,2c-1,0.9-2.3,1.6-4.3,3c-0.7,0.6-1.8,1.9-3.2,2.9
		c-1.6,1.2-3.4,2.2-5.2,3.2c-0.5,0.3-1.5,0.3-1.5,0.5c0.1,3.3-3,2.5-4.6,3.6c-0.8,1.1-1.9,1.8-2.9,2.5c-0.7,0.4-1.8,0.7-2.1,1.3
		c-1.5,2.6-3.3,4.7-6.7,4.5c-0.5,1.1-0.8,2.6-1.5,2.8c-3.4,0.9-4.5,3.7-6.7,5.6c-1.6,1.4-3.6,2.3-5.4,3.5c-1.3,0.8-2.5,1.5-3.8,2.2
		c-1.1,1.2-2.9,1.5-3.6,2.5c-2.8,4.1-6.9,6.6-11.2,7.9c-2.1,2.2-3.7,4.3-5.6,5.8c-2.1,1.7-4.5,2.9-7.1,4.5c0-0.2-0.1,0.2,0,0.2
		c2.3,1.2,2.4,4.9,6.1,4.6c0.4,0,0.8,0.6,1.2,0.9c2,1.7,3.9,3.6,6,5.2c2.1,1.7,4.4,3.3,6.6,5c0,0,0,0,0.1-0.1
		c1.6,1.1,3.2,2.2,4.7,3.3c-0.2,0.2-0.3,0.4-0.5,0.6c1.2,0.2,2.5,0.3,3.6,0.5c0.4,1.1,0.8,2,1,2.4c2.1-1.1,3.9-2,5.7-2.9
		c0.3-0.1,0.6-0.4,0.6-0.6c-0.1-3.1,2.7-2.2,4.8-2.8c-1.2-3.3,2.4-2.4,3.8-3.5c2.2-1.7,3.4-4.7,6.7-5.3c0.3-0.1,0.4-0.9,0.7-1.3
		c0.5-0.6,1.1-1.1,1.7-1.5c1.2-0.8,2.6-1.5,3.9-2.2c1.4-1.2,2.6-2.7,4.2-3.2c2.4-0.9,2.7-4.6,6.2-3.8c0.1,0,0.5-0.3,0.5-0.4
		c0-3.1,2.7-2.5,4.7-2.9c-0.2-0.3-0.4-0.5-0.6-0.8c3.9-2.9,7.9-5.9,11.8-8.8c0.1,0.1,0.1,0.1,0.2,0.2c1.9-1.7,3.8-3.3,6.4-5.7
		c1.7-0.7,4.3-2.6,6.9-2.5c2.7,0.1,5.3,2,7.8,3.1c0.6,0.9,1.2,2.5,1.6,2.4c3.6-0.6,4.8,2.7,5.7,4.1c1.8,3,5.2,3,7.4,5
		c1.7,1.7,3.4,3.7,6.2,4.1c0.1,0,0.1,0.7,0.3,0.9c1.4,1.5,2.6,3.3,4.4,4.4c2.1,1.4,4.6,2.1,7,3.2c0.3,0.1,0.5,0.5,0.5,0.8
		c-0.1,2,1.6,1.9,3,2.3c0.7,0.2,1.5,0.7,1.7,1.2c1.6,3.8,5.9,4.9,8.8,7.4c1,0.9,2.3,1.7,3.4,2.5c1.5,1,2.7,2.1,3.9,3.2
		c1.5,1.3,2.9,2.6,4.5,3.8c1.6,1.2,3.4,2.3,4.9,3.6c0.3,0.3,0.1,1.5-0.3,2c-1.2,1.5-3,2.7-3.8,4.4c-1.6,3.2-5.1,3.5-7.7,5.2
		c-0.7,0.5-1.3,1.2-2,1.7c-2.2,1.7-2.6,5.3-5.8,4.7c-2.5,2.1-4.5,3.7-6.5,5.4c-1.1,1-2.2,2-3.4,2.9c-1.2,0.9-2.5,1.8-4.6,3.2
		c-1.5-0.3-3.2,0.6-3.2,2.2c-2,1.5-3.2,2.4-4.5,3.3c-1.9,1.3-3.9,2.6-5.9,3.9c-0.3,0.2-0.8,0.3-0.8,0.5c0,3-2.6,2.6-4.7,2.9
		c0.2,0.2,0.4,0.5,0.6,0.7c-3.9,3-7.9,5.9-12,9c-1.2,0.7-3.1,1.3-3.7,2.4c-2.1,3.6-3.7,2.8-5.8,0c-0.8-1.1-2.2-1.7-3.4-2.5
		c-1.4-1.1-3.6-0.5-4.2-3.3c-0.2-1.2-2.6-2.1-4-3.1c-1.2-0.8-2.5-1.6-4.5-2.9c-1.4-1.2-4.3-2.5-5-4.5c-1.2-3.2-4.7-3.8-6.5-4.5
		c-2.9-1.1-3.6-4.1-6.8-4.7c-1.4-0.3-2.3-2.2-3.5-3.3c-0.8-0.8-1.7-1.5-2.6-2.1c-0.6-0.4-1.5-0.5-2-0.9c-1.6-1.5-3-4.1-4.8-4.3
		c-2.8-0.3-1.9-2.8-3.7-3.5c-1.4-0.6-2.6-1.6-3.3-2.1c-1.9-1.4-3.2-2.3-4.4-3.3c-1.4-1.1-2.6-2.4-4-3.5c-1.2-0.9-2.5-1.6-4.6-2.8
		c-0.8-0.8-2-2.1-3.3-3.2c-1.2-1.1-2.6-2-4-2.9c-1.3-0.9-2.7-1.7-4.3-2.7c-1.9-1.5-4-2.8-5.6-4.6c-1.8-1.9-6.6-5.1-8.8-5.5
		c-2.3-2.6-2.8-6.6-6.3-6.3c-2.9-2.2-4.7-4.6-7-5.3c-3.7-1.1-4.6-3.8-5.5-5.1c-5.2-3.6-10.2-5.5-12.5-9.6c-1.7-0.9-3-1.5-4.2-2.3
		c-0.9-0.6-1.6-1.4-2.4-2c-0.7-0.5-1.8-0.6-2.1-1.2c-1.6-2.4-3.1-4.9-6.6-5.1c-1-1.2-2.3-1.9-3.5-2.8c-0.6-0.4-1.2-1-1.8-1.6
		c-1.6-1.5-3.1-3.1-4.7-4.6c-0.8-0.7-1.7-1.3-2.6-1.8c-2.1-0.9-3.8-1.8-4.9-3.9c-0.7-1.3-2.2-2.1-3.4-3.1c-1.2-0.9-2.5-1.8-3.7-2.7
		c-5-1.9-8-6-12.1-9.6c-1.4-0.1-2.8-0.3-3.8-2.8c-0.7-1.8-4-2.7-6.6-4.3c0-0.1-0.2-0.9-0.4-1.8c-1.5-0.3-2.8-0.5-4.1-0.7
		c0.2-0.3,0.4-0.5,0.5-0.8c-1.1-0.7-2.3-1.4-3.4-2.2c-0.7-0.5-1.3-1.2-2.1-1.7c-0.9-0.5-2-1.3-3-1.2c-1.3,0.1-2.9,0.6-3.7,1.5
		c-2.1,2.1-3,5.4-5.8,5.2c-2.9,2.2-5,3.8-7.1,5.3c-2,1.4-4.2,2.6-6.2,4.1c-1.2,0.9-2.1,2.1-3.2,3.2c-0.2-0.2-0.5-0.3-0.7-0.5
		c-0.3,0.9-0.5,1.8-0.8,2.6c-0.3-0.2-0.6-0.5-0.8-0.7c-1.3,1.1-2.5,2.4-4,3.2c-2.2,1.2-3.1,4.1-6.3,3.9c0.1,3.2-2.8,2.6-5.1,3.2
		c1.9,4.6-4.5,1.4-5.1,4.9c-0.3,1.8-3.8,3-5.8,4.5c-0.9,0.5-1.5,1.5-2.3,2.2c-1.1,0.9-2.3,1.6-3.5,2.4c-0.9,0.9-2.4,1-3.4,1.7
		c-2.3,1.7-3.1,5.1-6.9,5.2c-0.2,0-0.4,0.9-0.7,1.3c-0.4,0.5-0.8,1.1-1.4,1.5c-1.4,0.9-2.9,1.7-4.4,2.5c-1.2,1.1-2.5,1.9-3.7,2.8
		c-2,1.5-4,3.2-6,4.7c-0.1-0.1-0.2-0.1-0.3-0.2c-1.9,1.7-3.8,3.4-5.7,5.1c-4.9,2.1-8.3,5.7-12.2,9.4c-0.7,0.1-2,0.3-2.3,0.3
		c-1.3,1.4-2,2.5-2.9,3.1c-1.6,1.1-4.7,1.8-5,3c-0.6,3.2-3.1,2.5-4.8,3.6c-0.9,1.1-2.1,1.8-3.3,2.5c-0.6,0.4-1.5,0.6-1.8,1.1
		c-1.5,2.6-3.5,4.6-6.6,4.8c-3.4,3.6-2.5,7.8-2.5,11.8c0,2.5,0,4.9,0,7.4c0,9.7,0,19.4,0.1,29.1c0,1,0.9,2.8,1.2,2.8
		c3.4-0.3,4,2.8,5.4,4.2c2.7,2.7,5.7,4.3,8.5,5.3c2.5,2.3,4.5,4.2,6.5,6.1c1.1,1,1.9,2.3,3.2,3c2.1,1.2,4.5,2,6.7,3.1
		c0.5,0.2,0.6,1,0.9,1.5c0.3,0.5,0.7,1.2,1.2,1.2c4,0.5,4.9,3.8,6.7,6.4c2.2,0,4.5,0,4.2,2.1c1.9,1.4,3.3,2.4,4.7,3.4
		c2,1.5,3.9,3,5.9,4.5c1.3,0.8,2.5,1.6,3.6,2.5c0.5,0.4,0.9,1,1.5,1.4c0.6,0.6,1.3,1.1,2,1.6c0.9,0.6,1.8,1.5,2.9,1.8
		c2.1,0.7,2.8,2.5,4.1,3.8c1.1,1.1,2.7,1.7,4.1,2.6c1,0.9,2.9,1.2,3.4,2.1c1.6,2.7,3.6,4.4,7.3,4.9c-0.9,3.6,2.4,2.7,4.3,3.2
		c0.4,1,0.8,2.6,1.1,2.6c3-0.2,3.8,2.3,5.6,3.6c1.6,1.2,3.4,2.3,5.7,3.9c0-0.1,0.2,0.7,0.3,1.5c0.2-0.2,0.4-0.3,0.6-0.5
		c1.4,1.1,2.7,2.2,4.1,3.3c1.4,1,2.7,2.1,3.9,3.2c1.2,1.1,2.4,2.2,3.7,3.1c1.4,0.9,3,1.6,4.5,2.4c1,1,2.7,1.3,3.4,2.2
		c1.8,2.1,2.7,5,6.3,5.3c0.3,0,0.6,0.5,1,0.7c1.3,0.7,2.5,1.5,3.8,2.2c0.3-0.3,0.7-0.6,1-0.9c-0.2-1.6-0.3-3.3-0.7-4.9
		c-0.5-1.7-1.8-3.4-1.8-5.1c-0.3-8.3-0.1-16.6-0.5-24.9c-0.2-3.3-0.9-6.7-2.1-9.8c-1.7-4-7.4-4.9-9.3-8.9c-0.1-0.2-0.7,0-1-0.2
		c-2.4-1.8-4.8-3.6-7.3-5.3c0-0.1,0.1-0.1,0.1-0.2c-3.7-3-7.5-6-11.2-9.1c-1.3-1-2.5-2.1-3.7-3.1c-1.4-1.3-2.5-2.9-4.1-3.8
		c-2.2-1.3-4.7-2.1-7-3.3c-0.4-0.2-0.3-1-0.7-1.4c-1.4-1.5-2.6-3.2-4.3-4.3c-1.2-0.7-2.9-0.4-2.9-2.4c0-0.3-1.1-0.8-1.8-1
		c-0.8-0.3-1.9-0.4-2.5-0.9c-2.1-1.8-2.7-5.4-6.7-5.2c-0.2,0-0.5-0.5-0.5-0.7c0.2-2-1.4-2.1-2.8-2.5c-0.7-0.2-1.3-0.7-1.8-1.2
		c-1.8-2.2-3.3-4.8-6.7-4.5c-0.5-1.1-0.7-2.5-1.3-2.7c-2.5-0.7-1.6-2.2-1.3-3.6l-0.1,0.1c1.5,0,2.9,0,4.4,0c-0.2,0.3-0.4,0.7-0.6,1
		c4.1,3,8.1,6,12.2,8.9c1,0.4,1.6,1.3,2.4,2c1.1,0.9,2.3,1.7,3.5,2.5c0.9,0.8,3.4,1.1,3.4,1.5c0.1,3.8,5.1,2,6.4,4.9
		c0.7,1.7,5,2.2,5.7,3.9c1,2.7,2.9,2.5,4.7,3.3c0.9,1.1,2.1,1.9,3.2,2.6c0.4,0.3,1,0.5,1.3,0.9c1.4,2.3,5.4,1.8,6.3,4.7
		c0.1,0.2,1.1,0.1,1.6,0.3c0.6,0.2,1.2,0.5,1.6,1c1.9,2.1,2.6,5.4,6.6,5.3c0.3,0,0.7,0.3,0.7,0.5c0.3,3.5,5.1,2.2,6.3,5
		c0.5,1.1,2.4,1.7,4.5,3.1c1.6-0.4,2.5,1.2,3.8,3.2c0.8,1.3,3.4,1.8,5.1,2.6c-0.1,0.3-0.2,0.6-0.4,0.9c1-0.1,2-0.1,2.2-0.1
		c1.4-1.3,2.1-2.2,3.1-2.9c1.2-0.9,2.6-1.5,4.1-2.4c1.2-1.2,2.4-2.5,3.8-3.5c1.6-1.2,3.5-2.2,5.3-3.2c0.5-0.3,1.4-0.4,1.4-0.6
		c0-3.1,2.7-2.5,4.3-2.8c0.7-1.2,1-2.3,1.8-2.8c1.9-1.4,5.1-2.3,5.7-4.1c1.2-3.2,5.3-2.2,6.6-4.9c0.5-1.1,2.4-1.7,3.6-2.6
		c2.1-1.5,4.4-2.8,5.9-4.6c2.5-3,5.6-4.8,8.7-5.5c1.1-1.3,2-2.1,2.7-3c0.4-0.6,1-1.6,0.7-1.9c-1.2-1.5-2.6-3-4.1-4.3
		c-2-1.7-4.2-3.3-6.2-5c-0.9-0.7-3.3-1-3.3-1.4c-0.2-3.1-2.9-2.3-4.6-3.2c-1.8-1.9-3.7-3.5-5.9-5c-0.9-0.6-7.9,2.8-8.6,3.7
		c-0.6,0.8-1.5,1.4-2.4,2c-0.7,0.5-1.9,0.6-2.2,1.2c-1.5,3.9-5.8,5-8.7,7.5c-1.1,1-2.5,1.7-3.2,2.2c-2.8,2-5.1,3.6-7.3,5.3
		c-0.8,0.6-1.8,2.1-2.3,1.9c-1-0.3-1.8-1.4-2.6-2.2c-2.3-1.3-4.8-2.6-6.2-4.5c-2.4-3.2-5.9-4.1-9.5-5.9c0.5-2.9-2.5-2.3-4.1-2.6
		c-0.9-1.2-1.5-2.2-2.3-2.9c-1.1-1-2.4-1.7-3.6-2.6c-0.9-0.7-2.3-0.8-3.2-1.4c-2.5-1.7-3.4-5.2-7.3-5.3c-0.4-2.6-2.4-3.1-4.7-3.4
		c-0.3,0-0.3-0.9-0.7-1.3c-0.4-0.5-0.9-1.2-1.5-1.3c-1.5-0.4-2.5-0.8-3.7-2.1c-1.2-1.2-3.5-1.4-4.4-3.6c-0.6-1.3-2.4-2.2-3.8-3.2
		c-1.2-0.9-2.5-1.7-4.2-2.9c-1.4-0.8-3-2.4-4.9-2.9c-2.2-0.6-3.4-1.7-3.1-3.5c0.5-3.3-3-8.3,4.1-9.2c0.2,0,0.5-0.3,0.5-0.4
		c-0.2-3.2,2.7-2.4,4.7-2.9c0.7-4.9,6-5.6,8.9-8.5c1-1,2.5-1.7,3.7-2.6c2.1-1.5,4.7-2.6,6.3-4.4c2.3-2.8,4.8-5,8.6-5.7
		c0.3-0.1,0.4-0.9,0.7-1.3c0.3-0.5,0.8-1.4,1-1.4c3.5,0.7,4-2.6,5.7-4c3.3-2.5,6.5-5.1,8.6-5.5c2.5-2.4,4.4-4.3,6.5-6.1
		c1.9-1.6,4.2-2.7,6-4.4c2-2,7.9-2,9.8,0.1c1.7,1.9,3.9,3.5,5.9,5.2c0.3-0.2,0.6-0.5,0.9-0.7c0.2,0.9,0.4,1.8,0.6,2.7
		c1.4,0.2,2.7,0.4,3.9,0.5c0.7,1.4,1.9,2.2,3.1,3.1c0.5,0.4,1,0.7,1.4,1.1c1.5,1.4,2.9,2.9,4.5,4.2c1.1,1,2.5,1.7,3.7,2.5
		c1.7,0.9,4.2,0.6,4,2.8c1.9,1.4,3.3,2.4,4.7,3.5c2,1.5,4,2.9,6,4.4c0.2-0.2,0.5-0.4,0.7-0.5c0.2,0.9,0.4,1.8,0.6,2.7
		c1.4,0.2,2.6,0.4,3.9,0.6c-0.2,0.2-0.3,0.4-0.5,0.6c4.1,3,8.1,6,12.2,9.1c1,0.7,2,1.5,2.9,2.2c0.6,0.5,1.2,1,1.8,1.5
		c0.6,0.5,1.2,1.1,1.9,1.6c0.9,0.6,2,0.9,2.7,1.6c1.4,1.2,2.5,2.8,4,4c1.3,1,2.9,1.7,4.4,2.5c-0.1,0.3-0.3,0.5-0.4,0.8
		c1.6,0.6,3.9-0.4,4.3,2.5c0.2,1.2,2.2,2.2,3.6,3.2c1.4,0.9,2.9,1.7,4.4,2.5c-0.1,0.3-0.3,0.5-0.4,0.8c2,0.4,4.8-0.2,4.4,2.3
		c4.3,3.3,8.1,6.3,11.9,9.2c1.8,0.7,4.3,0.8,4.6,3.6c1.6,0.7,2.7,1.8,4,2.9c1.2,1.1,2.4,2.2,3.8,3.1c1.4,0.9,2.9,1.7,4.8,2.7
		c1,0.9,2.1,2.1,3.3,3.1c0.5,0.4,1.1,0.6,1.7,0.8c0.7,0.3,1.7,0.5,2,1.1c1.7,3,4.4,4.4,7.3,5c0.9,1.1,1.4,2,2.2,2.7
		c1.1,0.9,2.3,1.7,3.5,2.5c1.1,0.9,2.8,1.4,3.6,2.4c1.8,2.3,3.5,4.5,7.3,4.4c-0.7,3.7,2.5,2.8,4.1,3.3c2.8,4.9,7,7.7,11.6,9
		c2.3,2.2,4.2,4.1,6.2,6c1.1,1.1,2.3,2.1,3.5,3.1c1.1,0.9,2.3,1.6,3.4,2.4c2.5,1.6,5.3,2.8,8,4.1c0.4,0.2,0.3,1,0.6,1.4
		c1.3,1.4,2.7,2.9,4.2,4.2c1.2,1,2.7,1.7,4.1,2.5c-0.1,0.3-0.3,0.6-0.4,0.8c2.2-0.4,5.5,1.7,6.1-2.5c0.1-0.3,1.4-0.5,2.1-0.7
		c0.8-0.3,1.9-0.5,2.3-1.1c2.6-4.6,7-6.6,11.4-8.2c1-1.1,1.6-2,2.4-2.7c1.1-0.9,2.3-1.6,3.4-2.4c1.6-1.1,2.7-2.3,4-3.5
		c1.5-1.2,2.9-2.6,4.5-3.5c2.1-1.2,4.5-2.1,6.8-3.1c0.2-0.1,0.4-0.3,0.4-0.5c0-3,2.7-2.2,4-3.3c1.5-1.1,3-2.2,5-3.6
		c0,0,0.2-0.8,0.4-1.6c0.2,0.2,0.5,0.4,0.7,0.6c1.3-1,2.7-2,4-3.1c1.3-1.1,2.5-2.3,3.9-3.3c1.3-0.9,2.8-1.6,4.2-2.4
		c-0.1-0.3-0.3-0.5-0.4-0.8c1.2-0.2,2.5-0.3,3.7-0.5c-0.1-0.3-0.3-0.6-0.4-0.9c1.3-0.7,2.6-1.4,3.9-2.3c1.9-1.3,3.9-2.5,5.7-3.9
		c1.8-1.4,3-3.7,5-4.5c2.5-1.1,4-3.2,6.6-4.4C739.1,388.4,740.7,387.5,742.8,387.5z M580,450.3c4.7,2.6,9.4,4.8,11.6,9.8
		c1.8,0.4,4.2-0.2,4.2,2.6c0,0.3,1.3,0.6,1.9,0.9c0.9,0.5,1.8,1,2.6,1.6c2,1.6,4,3.4,5.9,5.1c0.1,0,0.2-0.1,0.3-0.1
		c3.9,3.1,7.8,6.1,11.7,9.2c1.2,0.7,2.3,1.4,3.3,2.3c1.6,1.3,3.7,2.4,4.6,4c1.4,2.6,4.4,3,6.4,4.7c0.8,0.7,1.7,1.3,2.5,2
		c1.5,1.4,2.9,2.9,4.4,4.2c1.1,1,2.5,1.7,3.7,2.6c0,0,0,0.1-0.1,0.1c1.8,1,3.6,2,5.8,3.3c0-1.4,0-2.6,0-3.7c-0.2-10,0.1-20.1-1.9-30
		c-1-4.8,1.1-10.2-3.2-14.3c-1.4-0.7-2.8-1.5-4-2.5c-1.3-1.1-2.3-2.5-3.7-3.5c-1.3-1-2.9-1.7-4.4-2.5c0.1-0.2,0.3-0.5,0.4-0.7
		c-1.8-0.3-4.2,0.2-4.2-2.6c0-0.3-1.3-0.6-1.9-0.9c-0.9-0.5-1.8-0.9-2.6-1.6c-2.1-1.6-4-3.4-6-5c-1.4-0.8-2.6-1.6-3.7-2.4
		c-0.5-0.4-0.9-0.8-1.4-1.1c-0.8-0.6-1.6-1.3-2.4-1.9c-0.7-0.6-1.6-1-2.3-1.6c-1.6-1.3-3.1-2.7-4.7-4c-1.1-0.9-2.3-1.6-3.5-2.4
		c0.2-0.2,0.3-0.5,0.5-0.7c-1.9-0.3-4.5,0.2-4.6-2.7c0-0.3-1.3-0.6-2-0.9c-0.8-0.4-1.9-0.6-2.2-1.2c-1.7-2.6-3.4-4.9-6.9-5.2
		c-0.9-1.1-2.1-1.9-3.3-2.6c-0.6-0.4-1.6-0.6-1.8-1.1c-1.4-3.9-5.8-4.9-8.6-7.5c-1.1-1-2.5-1.7-3.8-2.5c-2.2-1.6-4.8-3-5.9-5
		c-1.6-3-5.3-2.5-7.1-4.8c-0.7-0.9-1.8-1.5-2.7-2.2c-0.5-0.4-0.9-0.9-1.4-1.1c-1.5-0.4-2.6-0.7-3.5-2.4c-1.6-3.1-5.6-4.2-8.2-6.5
		c-1.1-0.9-2.4-1.6-3.6-2.4c-3.3-1.1-5.2-3.6-7.1-6.2c-0.3-0.4-0.7-0.7-1.2-0.9c-2.2-1.1-4.5-2-6.7-3.1c-0.4-0.2-0.4-0.9-0.8-1.3
		c-1.4-1.5-2.7-3.1-4.3-4.5c-1.1-0.9-2.5-1.6-3.8-2.3c-1.8-1.4-3.8-2.5-5.6-3.7c-1.1-0.7-2-1.5-3-2.3c-2-1.7-4.1-3.4-6.1-5
		c-2.3-1.5-4.1-4-6.5-4.5c-3.9-0.9-4.4-4-6.7-6.4c-1.7-0.2-4.5,0.1-4.1-2.7c-5.2-2.2-9.8-4.5-12.4-9.5c-1-0.2-2.4-0.4-3.7-0.6
		c0.2-0.3,0.3-0.6,0.5-0.8c-1.1-0.7-2.2-1.4-3.3-2.2c-1.6-1.1-4-2-4.5-3.4c-1-2.7-2.5-2.1-4.9-1.8c0,9.7,0,19.1,0,28.6
		c0,1.2-0.2,2.3-0.4,3.5c-0.2,2.1-1.4,4.6-0.5,6.2c0.9,1.6,3.6,2.5,5.7,3.3c1.3,0.5,2.2,0.8,3.1,2.2c1.3,2.1,4,3.5,6,5.1
		c0.9,0.4,1.2,1.6,2,2c2.1,1.2,4.5,2,6.7,3.1c0.4,0.2,0.9,0.6,0.8,0.9c-0.1,2,1.5,2,2.9,2.4c0.7,0.2,1.3,0.9,1.9,1.5
		c1.3,1.4,2.3,3.3,4,4.3c2.2,1.4,4.9,2.2,7.3,3.3c0.4,0.2,0.3,1,0.7,1.3c2.2,1.7,2.5,5.4,5.4,4.9c4.7,3.5,8.6,6.6,12.6,9.6
		c2.2,1.7,4.2,3.6,6.4,5.4c2.1,1.7,4.5,3.2,6.7,4.8c-0.2,0.2-0.4,0.5-0.6,0.7c1.9,0.4,4.1-0.1,4.6,2.7c0.3,1.4,2.3,2.7,3.8,3.6
		c2.2,1.3,4.7,2.1,7,3.2c0.3,0.2,0.4,0.7,0.6,1.1c1.7,2.3,2.8,5.4,5.1,5.2c3.5,2.3,6.1,3.8,8.4,5.5c2.3,1.7,4.4,3.7,6.5,5.5
		c-0.2,0.2-0.3,0.4-0.5,0.6c1.2,0.2,2.5,0.4,2.8,0.4c2.6,2.4,4.5,4.3,6.6,6.2c1,0.9,2.2,1.7,3.3,2.5c1.2,0.8,2.3,1.6,3.5,2.4
		c0.1,0,0.2-0.1,0.3-0.1C575.4,446.1,577.7,448.2,580,450.3z M533.4,423.8c-1.1-1.3-1.7-2.2-2.6-2.8c-2.2-1.5-5.1-2.5-6.8-4.4
		c-1.9-2.1-3.9-3.6-6.5-4.8c-1.1-0.5-1.6-1.9-2.4-2.9c-1,1-1.9,1.9-2.9,2.8c-2.3,2.1-6,2.2-7.9,5.3c-0.5,0.9-2.4,2.5-3.8,3.5
		c-1.3,0.9-2.5,1.7-3.8,2.6c-1,0.8-2.3,1.3-3.6,1.9c-1,0.5-1.9,1.1-2.7,1.8c-0.8,0.6-1.4,1.3-2.2,2c-2,1.8-4,3.6-6.8,6
		c0.4,2.2-3,1.2-4.2,1.7c-0.9,1.3-1.3,2.2-2,2.9c-0.9,0.8-2.1,1.3-3,2.1c-1.5,1.1-2.8,2.4-4.3,3.6c-1.2,0.9-2.5,1.7-3.8,2.5
		c-2.1,1-1.9,1.1-3.9,3.4c-1.2,1.3-3.2,2-4.7,3.1c-1.8,1.4-4.4,2.8-4.8,4.5c-1.2,5-1.8,10.2-2,15.3c-0.4,8.6-0.3,17.3-0.3,25.9
		c0,0.9,0.1,1.8,0.3,3.9c2-1.3,3.1-2.4,4.4-2.9c2.4-0.9,2.4-4.6,6-4c0.3,0,0.9-0.5,0.9-0.7c0-3,2.8-2.1,4.3-2.6
		c0.6-1,0.8-2.1,1.5-2.8c0.9-0.9,2.2-1.5,3.3-2.3c1.5-1.1,2.9-2.3,4.4-3.4c1.1-0.8,2.3-1.6,3.5-2.4c1-0.9,3.3-1.2,3.5-1.9
		c0.7-2.7,3.4-3.4,5.2-4.4c2.2-1.3,3.2-4.6,6.7-4c0.1,0,0.1-0.6,0.3-0.8c0.8-0.7,1.6-1.4,2.4-2c0.7-0.5,1.8-0.6,2.1-1.2
		c1.5-2.6,3.3-4.7,7.1-4.7c-0.5-3.3,2.4-2.9,4.3-3.6c0.9-1.1,2.1-1.9,3.2-2.7c0.4-0.3,0.9-0.6,1.3-1c1.6-1.5,3.1-3,4.7-4.4
		c1.1-0.9,2.3-1.6,3.5-2.4c0,0,0,0,0-0.1c1.6-1.1,3.2-2.1,4.8-3.2c1.4-1.2,2.6-2.3,3.8-3.4c1.2-1.1,2.4-2.2,3.7-3.1
		c1.4-0.9,3-1.7,4.4-2.5c-0.3-0.4-0.5-0.8-0.8-1.2c4.6,1.9,4-2.9,6.5-3.7c0.2-0.1,0.3-1.5-0.1-1.8
		C540.7,427.5,537.6,424.5,533.4,423.8z M693.5,366.4c1.9-0.8,3.3-1.2,4.4-2c2.2-1.6,2.9-4.8,6.5-4.7c0.2,0,0.6-0.2,0.6-0.3
		c-0.1-3.2,2.9-2.6,5.5-3.4c-0.8-1-1.2-1.8-1.9-2.3c-1.5-1.1-4.5-1.9-4.7-3.1c-0.4-3.6-6-2-6.1-5.7c0-1-1.3-2.3-2.3-2.9
		c-2.7-1.4-5.6-2.6-8.5-3.8c-0.8-1.3-2-2-3.2-2.8c-0.7-0.5-1.4-0.9-1.9-1.5c-1.3-1.5-2.3-3.3-3.9-4.4c-2-1.4-4.4-2.1-6.7-3.2
		c-0.3-0.2-0.4-0.7-0.7-1c-1.4-1.6-2.8-3.2-4.4-4.7c-1.2-1-2.7-1.8-4-2.7c-0.9-0.8-2.2-1.1-3.4-1.6c-1.4-0.7-2.7-1.6-4.5-2.6
		c-0.9,6.3-1.7,11.5-2.3,16.7c-0.4,3.9-0.4,7.9-0.6,11.8c0,0.7-0.5,1.3-0.8,2c-0.5,0-0.9-0.1-1.4-0.1c0-9.8,0-19.6,0-29.7
		c-3.1,0.5-5.5-0.7-7.4,2.2c-1.2,2-4,3.1-6.1,4.7c0,0.1,0,0.2,0,0.3c-1.6,0.9-3.1,1.9-5.4,3.3c0,0-0.2,1.1-0.9,1.8
		c-1,1-2.3,2.3-3.5,2.3c-2.8,0-2.4,2.6-4.1,3.5c-1.4,0.7-2.6,1.6-3.8,2.4c0.1,0.2,0.3,0.4,0.4,0.6c-1.2,0.2-2.5,0.4-3.7,0.5
		c-1.1,2.1-2.5,3.7-4.2,5.1c-1.3,1.1-2.9,1.8-4.4,2.6c0.2,0.3,0.4,0.7,0.6,1c-3.1-0.7-4.5,0.6-4.7,2.9c-1.5,0.4-3,0.3-3.8,1
		c-1.7,1.5-3,3.3-4.3,5c-0.4,0.6-0.8,1.9-0.4,2.3c1.8,1.7,3.9,3.3,5.9,4.9c1,0.3,1.2,1.6,2,2.1c2.1,1.2,4.5,2.1,6.7,3.1
		c0.4,0.2,0.7,0.5,0.9,0.8c1.4,1.6,2.7,3.3,4.3,4.8c0.7,0.7,2.7,0.7,2.8,1.3c1.2,4.4,2.2,2.6,3.5,0.1c0.2-0.3,0.8-0.4,1.1-0.7
		c1.2-0.8,2.3-1.7,3.5-2.6c-0.1-0.2-0.3-0.4-0.4-0.6c1.2-0.2,2.5-0.3,3.6-0.5c0.5-1,1.1-2.7,1.4-2.7c2.7,0.3,4-1.6,5.4-3
		c1.5-1.5,2.6-3.3,5.1-3.3c0.1,0,0.4-0.3,0.4-0.5c0-3,2.6-2.3,4.2-3c1.8-1.9,3.6-3.8,5.8-5.1c0.8-0.5,2.6,0.2,3.8,0.7
		c1.1,0.4,2,1.3,2.9,2c0.7,0.5,1.3,1,1.9,1.5c1.4,1.5,2.7,3.1,4.3,4.4c1.2,1,2.7,1.6,4.1,2.4c4.8,2.1,8.3,5.5,11.8,9.2
		c1.2,1,2.1,2.2,3.3,3.1c0.5,0.4,1.9,0.6,2.4,0.2c1.4-1,2.6-2.3,3.8-3.4c0.4,0.4,0.8,0.8,1.3,1.2c-0.9-3.5,1.6-3.4,3.7-3.8
		C693.2,367.7,693.4,366.9,693.5,366.4z M431.1,362.2c0.2,0,0.3,0,0.5,0.1c2-1.9,3.9-3.7,5.9-5.6c1-1,1.8-2.5,3.1-2.9
		c4.3-1.4,6.1-3.9,5.7-8.1c-0.3-3.5-0.1-7-0.2-10.5c0-0.7,0-1.8-0.5-2.1c-2.4-1.2-1.8-3.3-1.9-5.1c-0.1-3.8-0.1-7.7-0.2-11.5
		c0-1.5-0.3-3-0.5-5.1c-2.1,3-3.5,5.6-7.1,6c-0.5,0-0.9,1-1.3,1.5c-0.4,0.5-0.8,1.4-1.1,1.3c-3.6-0.6-4.1,2.7-5.8,4.2
		c-2.8,2.5-5.6,4.6-8.5,5.2c-2.6,2.4-4.4,4.4-6.6,6.1c-1.8,1.5-4.3,2.4-5.7,4.2c-1.6,2.1-5.6,1.4-6,4.7c0,0.1-1.1,0.1-1.6,0.2
		c-0.5,0.1-1.3,0.3-1.5,0.6c-1.8,2.7-3.2,5.3-7.2,6.2c-1.3,0.3-1.9,2.9-2.5,3.7c2.8,2.3,4.9,4.1,7,5.8c1.9,1.5,3.8,3,5.8,4.4
		c1.2,0.9,2.6,1.6,3.9,2.4c2.3,1.7,5,3.1,6,5.3c1.2,2.4,2.6,1.7,4.2,1.9c0.4-1.1,0.8-2.7,1.1-2.7c2.6-0.1,3.5-1.7,5-3.3
		c1.4-1.5,2.4-4.4,5.7-3.6c0.1,0,0.2-0.1,0.3-0.2C428.5,364.2,429.8,363.2,431.1,362.2z M581,562.3c-3.8,0.9-7.3,1.8-10.9,2.7
		c-5.6,1.3-5.8,1.9-2.6,6.2c0.1,0.2,0.3,0.4,0.3,0.6c-0.2,4.9,1.9,9.9-1.9,14.4c-1.4,1.6-1.5,2.9,1.1,3.9c5.2,2,10.1,1.1,14.9-0.9
		c0.7-0.3,1.4-2.2,1-2.7c-3-4.4-1.2-9.1-1-13.6c0-0.8,1.7-1.7,2.8-2c0.5-0.1,2,1.1,2.1,1.8c0.3,3.3,0.6,6.6,0.4,9.8
		c-0.1,1.4-1.5,2.7-1.8,4.2c-0.2,0.9-0.1,2.5,0.6,2.9c3.8,2.3,8.2,2.2,12.3,1.3c5.3-1.2,5.4-1.5,3.7-6.5c-1.4-4-1.8-7.9,0.1-11.7
		c0.4-0.8,1.5-1.8,2.3-1.8c1,0.1,2.7,1,2.7,1.6c0.5,4.7,2.1,9.6-1.1,14.1c-0.4,0.5,0,2.1,0.5,2.6c3.9,2.7,12.1,2.9,16,0.2
		c0.7-0.5,1.1-2.6,0.7-2.9c-2.4-1.8-1.8-4.2-1.8-6.4c0-3.2,0-6.4,0.1-9.6c0.1-4.4-3.8-7.3-8.2-7.5c-4.7-0.2-8.1,2.1-11.4,4.5
		c-6.6-8.1-13-4.2-19.5,0.5C581.6,566,581.4,564.5,581,562.3z M460.3,591.4c4-0.6,7.7-1.1,11.4-1.9c0.9-0.2,1.9-1.3,2.3-2.2
		c0.2-0.4-1.2-1.8-2-1.9c-2.5-0.2-3-1.6-3.2-3.4c-0.2-2-0.3-4.1-0.1-6.1c0.2-2.5,1.7-3.1,3.9-1.6c1,0.7,1.4,1.9,2.2,2.9
		c0.7,0.9,1.5,1.8,2.3,2.8c1-0.8,2.4-1.4,2.8-2.3c1.9-3.9,2.4-7.8,0.4-11.9c-1.4-2.8-2.6-3.1-4.8-0.7c-0.5,0.5-0.4,1.5-1,1.9
		c-1.1,0.7-2.4,1.3-3.7,1.5c-0.7,0.1-2.1-0.9-2.1-1.4c0-2.8,0.3-5.5,0.7-8.2c0.1-0.5,1.6-1,2.5-1.1c4.8-0.2,9.3,0,12.7,4.1
		c0.6,0.7,3,0.2,4.6,0.3c0.1-2.3,0.7-4.7,0-6.7c-0.6-1.8-2-3.6-5.3-3.4c-8.3,0.4-16.6,0.3-24.9,0.4c-2.1,0-4.2-0.4-6.2-0.1
		c-1,0.1-2.4,1.1-2.6,2c-0.2,0.8,0.6,2.5,1.4,2.7c2.4,0.7,2.5,2.3,2.5,4c0,6.7,0.1,13.4-0.3,20.1c-0.1,1.4-1.8,2.8-2.8,4.2
		c-0.6,0.8-2,1.7-1.8,2.2c0.3,0.9,1.4,2,2.3,2.3C454.5,590.5,457.5,590.9,460.3,591.4z M660.2,575.6c-0.2-2.1-0.1-4.3-0.5-6.3
		c-0.2-1.1-0.9-2.5-1.8-3.2c-6.8-5.3-19.2-4-25,2.1c-0.7,0.8-1.2,2.4-0.8,3.2c0.3,0.8,1.9,1.5,3,1.6c3,0.3,4.6-1.9,6-3.8
		c1.3-1.7,3.3-2.6,4.5-1.3c1.2,1.3,1.2,3.7,1.2,5.6c0,0.5-1.9,1.2-3.1,1.4c-2.2,0.4-4.8,0.1-6.8,0.9c-2.2,0.9-4.5,2.5-5.7,4.3
		c-1.8,2.6-1.4,5.7,0.8,8c2.7,2.8,7.4,3.3,11,2c2.6-0.9,5.2-2.8,8.3-0.7c2.9,1.9,9,0.9,10.8-1.7c0.8-1.1,1.2-3.8,0.8-4
		C658.8,581.8,660.5,578.5,660.2,575.6z M542.8,568c-0.4-1.5-0.4-2.5-0.8-3.2c-0.5-0.8-1.5-1.9-2.1-1.8c-4.4,0.8-8.9,1.5-13.1,3
		c-2.9,1-2.6,3.2,0.3,4.6c0.6,0.3,1.3,0.6,1.5,1.1c1.6,2.9-0.4,11.6-3.1,14.1c-1.6,1.5-1.5,2.8,0.6,3.6c6.3,2.3,12.7,2.6,19.1,0.2
		c0.8-0.3,1.7-1.2,1.8-1.9c0.1-0.6-0.8-1.7-1.5-2.1c-2.7-1.5-4.1-3.4-3.6-6.4c0.2-1.2-0.1-2.6,0.1-3.8c0.1-0.8,0.6-1.6,0.9-2.5
		c0.8,0.3,1.7,0.5,2.4,1.1c2.8,2.3,6.9,2.4,9.1,0.2c3.1-3.2,3.2-7.7,0.1-10.3c-2-1.6-6.8-1.1-9.1,1.1
		C544.7,565.7,544,566.6,542.8,568z M513.7,573.3C513.7,573.3,513.7,573.3,513.7,573.3c0-2.6-0.2-5.1,0-7.6c0.2-2.6-1.1-3.3-3.5-2.7
		c-3.9,0.8-7.8,1.7-11.5,2.8c-2.3,0.7-2.5,3.4-0.6,4.8c0.6,0.4,1.7,0.9,1.7,1.3c0.1,4,0.2,8-0.2,12c-0.2,1.5-1.6,3-2.5,4.4
		c1.8,0.8,3.5,1.8,5.4,2.2c4.8,1.2,9.5,0.5,13.9-1.6c1.9-0.9,1.9-1.9,0.1-3.3c-1.3-1-2.3-2.8-2.5-4.4
		C513.4,578.7,513.7,576,513.7,573.3z M503,561.1c2.3-0.4,4.8-0.3,6.7-1.2c1.6-0.8,3.3-2.6,3.7-4.2c0.5-1.9-1.6-3-3.5-3
		c-2.7,0-5.6,0-8.2,0.8c-1.7,0.5-3.7,2.2-4.3,3.8C496.5,559.8,498.5,560.9,503,561.1z"/>
	<g>
		<path d="M364.5,393.2c-0.3,1.4-1.2,2.9,1.3,3.6c0.6,0.2,0.8,1.6,1.3,2.7c3.5-0.3,4.9,2.3,6.7,4.5c0.4,0.5,1.1,1.1,1.8,1.2
			c1.4,0.4,3,0.5,2.8,2.5c0,0.2,0.4,0.7,0.5,0.7c4-0.2,4.6,3.4,6.7,5.2c0.6,0.5,1.7,0.5,2.5,0.9c0.7,0.3,1.8,0.7,1.8,1
			c0,2,1.7,1.7,2.9,2.4c1.7,1,2.9,2.8,4.3,4.3c0.3,0.4,0.3,1.2,0.7,1.4c2.3,1.1,4.8,2,7,3.3c1.6,1,2.7,2.5,4.1,3.8
			c1.2,1.1,2.3,2.2,3.7,3.1c3.7,3,7.5,6,11.2,9.1c0,0.1-0.1,0.1-0.1,0.2c2.4,1.8,4.8,3.6,7.3,5.3c0.2,0.2,0.9,0,1,0.2
			c1.9,4.1,7.6,4.9,9.3,8.9c1.3,3.1,2,6.5,2.1,9.8c0.4,8.3,0.2,16.6,0.5,24.9c0.1,1.7,1.4,3.3,1.8,5.1c0.4,1.6,0.5,3.2,0.7,4.9
			c-0.3,0.3-0.7,0.6-1,0.9c-1.3-0.7-2.5-1.4-3.8-2.2c-0.4-0.2-0.6-0.7-1-0.7c-3.6-0.3-4.5-3.2-6.3-5.3c-0.8-0.9-2.4-1.2-3.4-2.2
			c-1.5-0.8-3.1-1.5-4.5-2.4c-1.3-0.9-2.5-2.1-3.7-3.1c-1.2-1.1-2.5-2.2-3.9-3.2c-1.4-1.1-2.7-2.2-4.1-3.3c-0.2,0.2-0.4,0.3-0.6,0.5
			c-0.2-0.8-0.4-1.6-0.3-1.5c-2.3-1.6-4-2.7-5.7-3.9c-1.8-1.3-2.6-3.8-5.6-3.6c-0.3,0-0.7-1.6-1.1-2.6c-1.9-0.5-5.2,0.4-4.3-3.2
			c-3.7-0.4-5.7-2.2-7.3-4.9c-0.5-0.9-2.4-1.2-3.4-2.1c-1.4-0.8-3-1.5-4.1-2.6c-1.3-1.3-2-3.1-4.1-3.8c-1-0.3-1.9-1.1-2.9-1.8
			c-0.7-0.5-1.4-1-2-1.6c-0.5-0.5-0.9-1-1.5-1.4c-1.1-0.9-2.3-1.7-3.6-2.5c-2-1.5-3.9-3-5.9-4.5c-1.3-1-2.7-2-4.7-3.4
			c0.3-2.1-2-2.2-4.2-2.1c-1.8-2.6-2.7-5.8-6.7-6.4c-0.5-0.1-0.9-0.8-1.2-1.2c-0.4-0.5-0.5-1.3-0.9-1.5c-2.2-1.1-4.6-1.9-6.7-3.1
			c-1.2-0.7-2.1-2-3.2-3c-2-1.9-4-3.8-6.5-6.1c-2.8-1-5.8-2.6-8.5-5.3c-1.5-1.4-2-4.6-5.4-4.2c-0.3,0-1.2-1.8-1.2-2.8
			c-0.1-9.7-0.1-19.4-0.1-29.1c0-2.5,0-4.9,0-7.4c0.1-4-0.9-8.2,2.5-11.8c3.1-0.2,5.1-2.1,6.6-4.8c0.3-0.5,1.2-0.8,1.8-1.1
			c1.2-0.7,2.4-1.4,3.3-2.5c1.7-1,4.2-0.4,4.8-3.6c0.2-1.2,3.3-1.9,5-3c0.9-0.6,1.6-1.6,2.9-3.1c0.3,0,1.5-0.2,2.3-0.3
			c3.9-3.7,7.4-7.3,12.2-9.4c1.9-1.7,3.8-3.4,5.7-5.1c0.1,0.1,0.2,0.1,0.3,0.2c2-1.6,4-3.2,6-4.7c1.2-0.9,2.5-1.7,3.7-2.8
			c1.5-0.8,3-1.6,4.4-2.5c0.6-0.4,1-0.9,1.4-1.5c0.3-0.4,0.5-1.3,0.7-1.3c3.8-0.1,4.6-3.5,6.9-5.2c1-0.7,2.5-0.9,3.4-1.7
			c1.2-0.8,2.4-1.5,3.5-2.4c0.8-0.7,1.4-1.6,2.3-2.2c2-1.5,5.5-2.8,5.8-4.5c0.6-3.4,7-0.2,5.1-4.9c2.3-0.6,5.3,0,5.1-3.2
			c3.2,0.2,4.1-2.7,6.3-3.9c1.5-0.8,2.7-2.1,4-3.2c0.3,0.2,0.6,0.5,0.8,0.7c0.3-0.9,0.5-1.8,0.8-2.6c0.2,0.2,0.5,0.3,0.7,0.5
			c1-1.1,1.9-2.3,3.2-3.2c2-1.5,4.2-2.6,6.2-4.1c2.1-1.5,4.2-3.1,7.1-5.3c2.7,0.2,3.7-3.1,5.8-5.2c0.9-0.9,2.4-1.4,3.7-1.5
			c1-0.1,2.1,0.7,3,1.2c0.8,0.4,1.4,1.2,2.1,1.7c1.1,0.8,2.2,1.5,3.4,2.2c-0.2,0.3-0.4,0.5-0.5,0.8c1.3,0.2,2.7,0.5,4.1,0.7
			c0.2,0.8,0.4,1.7,0.4,1.8c2.6,1.6,5.9,2.5,6.6,4.3c1,2.4,2.4,2.7,3.8,2.8c4.1,3.6,7.1,7.7,12.1,9.6c1.2,0.9,2.5,1.7,3.7,2.7
			c1.2,1,2.8,1.9,3.4,3.1c1.1,2.1,2.8,3,4.9,3.9c1,0.4,1.9,1.1,2.6,1.8c1.6,1.5,3.1,3,4.7,4.6c0.6,0.5,1.1,1.1,1.8,1.6
			c1.2,0.8,2.5,1.6,3.5,2.8c3.5,0.3,5,2.7,6.6,5.1c0.4,0.6,1.5,0.7,2.1,1.2c0.9,0.6,1.6,1.4,2.4,2c1.2,0.8,2.5,1.4,4.2,2.3
			c2.2,4.1,7.3,5.9,12.5,9.6c0.9,1.3,1.9,4,5.5,5.1c2.4,0.7,4.2,3,7,5.3c3.5-0.3,3.9,3.7,6.3,6.3c2.2,0.4,7,3.7,8.8,5.5
			c1.7,1.7,3.8,3.1,5.6,4.6c1.5,1,2.9,1.8,4.3,2.7c1.4,0.9,2.7,1.9,4,2.9c1.3,1.1,2.4,2.3,3.3,3.2c2,1.2,3.4,1.9,4.6,2.8
			c1.4,1.1,2.6,2.4,4,3.5c1.2,1,2.5,1.9,4.4,3.3c0.7,0.5,1.9,1.5,3.3,2.1c1.7,0.7,0.9,3.2,3.7,3.5c1.8,0.2,3.2,2.9,4.8,4.3
			c0.5,0.5,1.4,0.5,2,0.9c0.9,0.6,1.8,1.3,2.6,2.1c1.2,1.1,2.2,3.1,3.5,3.3c3.1,0.6,3.9,3.6,6.8,4.7c1.9,0.7,5.4,1.3,6.5,4.5
			c0.7,2,3.6,3.3,5,4.5c2,1.3,3.3,2,4.5,2.9c1.4,1,3.8,1.9,4,3.1c0.5,2.9,2.8,2.3,4.2,3.3c1.1,0.8,2.6,1.5,3.4,2.5
			c2.1,2.8,3.7,3.6,5.8,0c0.7-1.1,2.5-1.6,3.7-2.4c4.1-3.1,8.1-6,12-9c-0.2-0.2-0.4-0.5-0.6-0.7c2.1-0.3,4.7,0.1,4.7-2.9
			c0-0.1,0.6-0.3,0.8-0.5c2-1.3,3.9-2.5,5.9-3.9c1.3-0.9,2.5-1.8,4.5-3.3c0-1.6,1.8-2.4,3.2-2.2c2.1-1.4,3.4-2.3,4.6-3.2
			c1.2-0.9,2.2-2,3.4-2.9c2-1.7,4-3.3,6.5-5.4c3.1,0.6,3.6-3.1,5.8-4.7c0.7-0.5,1.3-1.3,2-1.7c2.6-1.7,6.1-2.1,7.7-5.2
			c0.8-1.7,2.6-2.9,3.8-4.4c0.4-0.5,0.6-1.7,0.3-2c-1.5-1.3-3.3-2.4-4.9-3.6c-1.5-1.2-3-2.5-4.5-3.8c-1.3-1.1-2.5-2.2-3.9-3.2
			c-1.2-0.8-2.4-1.6-3.4-2.5c-2.8-2.5-7.1-3.6-8.8-7.4c-0.2-0.5-1.1-1-1.7-1.2c-1.4-0.4-3.1-0.3-3-2.3c0-0.3-0.3-0.7-0.5-0.8
			c-2.3-1.1-4.9-1.9-7-3.2c-1.7-1.1-3-2.9-4.4-4.4c-0.2-0.2-0.2-0.9-0.3-0.9c-2.8-0.4-4.5-2.4-6.2-4.1c-2.1-2-5.6-2.1-7.4-5
			c-0.9-1.5-2.1-4.7-5.7-4.1c-0.4,0.1-1.1-1.5-1.6-2.4c-2.5-1.1-5.1-3-7.8-3.1c-2.6-0.1-5.2,1.8-6.9,2.5c-2.6,2.3-4.5,4-6.4,5.7
			c-0.1-0.1-0.1-0.1-0.2-0.2c-3.9,2.9-7.9,5.9-11.8,8.8c0.2,0.3,0.4,0.5,0.6,0.8c-2,0.4-4.8-0.1-4.7,2.9c0,0.1-0.3,0.4-0.5,0.4
			c-3.5-0.7-3.7,3-6.2,3.8c-1.5,0.5-2.7,2-4.2,3.2c-1.3,0.7-2.6,1.4-3.9,2.2c-0.6,0.4-1.2,1-1.7,1.5c-0.3,0.4-0.4,1.2-0.7,1.3
			c-3.4,0.6-4.5,3.6-6.7,5.3c-1.5,1.1-5,0.2-3.8,3.5c-2.1,0.6-4.9-0.3-4.8,2.8c0,0.2-0.4,0.5-0.6,0.6c-1.8,0.9-3.6,1.8-5.7,2.9
			c-0.2-0.5-0.5-1.4-1-2.4c-1.2-0.2-2.4-0.3-3.6-0.5c0.2-0.2,0.3-0.4,0.5-0.6c-1.6-1.1-3.2-2.2-4.7-3.3c0,0,0,0-0.1,0.1
			c-2.2-1.7-4.5-3.3-6.6-5c-2.1-1.7-4-3.5-6-5.2c-0.4-0.3-0.8-0.9-1.2-0.9c-3.7,0.3-3.8-3.4-6.1-4.6c-0.1,0,0-0.4,0-0.2
			c2.6-1.6,5-2.8,7.1-4.5c2-1.6,3.5-3.6,5.6-5.8c4.3-1.3,8.3-3.8,11.2-7.9c0.7-1,2.6-1.4,3.6-2.5c1.3-0.7,2.6-1.4,3.8-2.2
			c1.8-1.1,3.9-2.1,5.4-3.5c2.2-1.9,3.3-4.8,6.7-5.6c0.7-0.2,0.9-1.7,1.5-2.8c3.4,0.2,5.2-1.9,6.7-4.5c0.3-0.6,1.4-0.8,2.1-1.3
			c1.1-0.7,2.2-1.4,2.9-2.5c1.7-1.1,4.7-0.3,4.6-3.6c0-0.2,1.1-0.2,1.5-0.5c1.8-1,3.5-2,5.2-3.2c1.4-1,2.6-2.3,3.2-2.9
			c2-1.3,3.2-2.1,4.3-3c0.8-0.7,1.4-1.7,2.5-2c3.9-3,7.9-5.9,11.8-8.9c-0.2-0.3-0.4-0.5-0.7-0.8c1.8-0.6,4.7,0.2,4.9-2.9
			c0-0.3,2.6-0.7,4-0.6c0.8,0,1.7,0.7,2.3,1.3c0.4,0.4,0.5,1.6,0.8,1.6c3.9,0.3,5.1,3.2,6.7,5.7c0.1,0.1,0.1,0.2,0.2,0.3
			c2.7,1.3,5.5,2.5,8,4.1c1.3,0.9,2.4,1.9,3.8,2.5c1.7,0.7,1,3.1,3.8,3.5c1.8,0.2,3.2,3,4.9,4.5c0.4,0.4,1.2,0.4,1.8,0.7
			c1.2,0.7,2.3,1.4,3.3,2c2.4,2,5.1,3.3,6.3,5.4c0.9,1.7,1.9,1.8,3.4,2.4c1.9,0.8,3.6,2.1,6.2,3.8c1,2.6,3.5,4.8,6.4,6
			c1.3,0.8,2.8,1.4,3.8,2.4c1.8,1.7,4.7,2,6.1,4.5c0.9,1.7,3.1,2.8,4.7,4.1c1,0.8,2.1,1.6,3,2.6c3.3,1.6,6.5,3,9.1,5.8
			c1.4,1.4,2.1,4.5,5.5,4.1c0.3,0,0.9,0.7,1.2,1.2c0.4,0.5,0.4,1.3,0.9,1.6c2.2,1.1,4.5,1.9,6.7,3.1c1.4,0.8,2.5,1.9,3.6,3
			c1.7,1.7,3.4,3.5,5.1,5.3c0.1,0.2,0.2,0.4,0.3,0.5c2.3,1.1,4.8,1.8,6.9,3.2c1.8,1.2,3,3,4.6,4.6c0.5,0.5,1.1,1.3,1.8,1.4
			c1.7,0.3,3.2,0.5,3.1,2.5c0,0.2,0.6,0.6,1,0.7c6.1,1.5,7.9,5.6,7.9,10.9c0,13.6,0.1,27.3-0.1,40.9c0,2.4,1.2,5.7-3.5,6
			c-0.5,0-0.8,1.6-1.1,2.3c-4.8,1.9-9.3,3.9-11.8,8.5c-0.5,0.9-2.5,1.1-3.5,2.1c-1.3,0.8-2.5,1.6-3.8,2.4c-1.9,1.2-3.9,2.3-5.7,3.7
			c-2.2,1.8-3.2,4.6-6.5,5.4c-0.7,0.2-1,1.7-2,2c-1.9,1.5-3.9,2.9-5.8,4.4c-1.9,1.5-3.9,2.9-5.6,4.7c-1.6,0.9-4.6,0.1-4.4,3.3
			c0,0.2-0.5,0.6-0.7,0.5c-3.6-0.8-3.6,3.1-6,3.9c-1.5,0.5-2.6,1.8-4.1,2.6c-1.9,1.7-3.8,3.4-5.7,5.1c-0.1-0.1-0.1-0.1-0.2-0.2
			c-3.9,2.9-7.9,5.9-11.8,8.8c0.2,0.2,0.4,0.5,0.6,0.7c-2,0.4-4.8-0.1-4.7,2.9c0,0.2-0.6,0.5-0.8,0.5c-3.4-0.7-3.4,3.1-5.9,3.8
			c-1.5,0.5-2.7,1.9-4.6,3.5c0.3,2-2.2,1.8-3.9,2.6c-1.4,0.9-2.9,1.7-4.1,2.8c-1.3,1.1-2,2.5-3.8,3.4c-1,0.5-2.1,1.6-3.5,2.2
			c-0.7,0.3-1,1.7-1.5,2.7c-1.7,0.4-4.4-0.3-4.3,2.7c0,0.2-0.3,0.5-0.4,0.5c-3-0.3-4.1,2.1-5.6,3.6c-1.4,1.4-2.7,2.4-4.8,2.7
			c-0.7,0.1-1.1,1.8-2.1,3.5c-0.4-1.6-0.9-2.6-0.8-3.5c0-5.9-0.1-11.7,0.3-17.6c0.7-9.1,1.8-18.2,2.8-27.7c0.7-0.1,1.9-0.4,3.1-0.6
			c-0.1-0.2-0.3-0.4-0.4-0.6c1.5-0.9,3.1-1.6,4.4-2.7c1.7-1.4,3.1-3,4.2-5.1c1.2-0.2,2.5-0.4,3.7-0.6c-0.1-0.1-0.2-0.3-0.4-0.4
			c1.1-0.9,2.3-1.8,3.4-2.7c1.5-1.2,3-2.4,4.5-3.6c0.9-0.7,2-1.3,2.8-2.1c0.8-0.7,1.3-1.7,2.1-2.7c3.3-0.5,5.3-3,7.1-5.6
			c0.3-0.4,0.8-0.7,1.2-0.9c1.2-0.8,2.3-1.6,4.3-2.8c1.8-1.3,4.1-3.2,6.5-5c-0.2-0.3-0.5-0.5-0.7-0.8c1.8-0.7,4.8,0.2,4.7-3
			c0-0.2,0.3-0.4,0.4-0.4c2.6,0.1,3.7-1.8,5.1-3.3c1.1-1.1,3.1-1.6,4.2-2.7c2.8-3.3,8.2-4.2,9.4-9.2c3.4-0.2,5.5-2.1,7.1-5
			c0.5-0.8,2.3-1,3.2-2c1.5-0.8,3.4-1.3,4.3-2.5c1.4-1.7,4.5-2.7,3.5-5.7c1.6,0,3.2,0,4.9,0c0-1.4,0-2.3,0-3.2
			c0.9,0,1.9,0.2,2.6-0.1c0.7-0.3,0.9-1.3,1.4-2c-1.2-0.4-2.5-0.9-4.2-1.5c0.1,1.8,0.2,2.8,0.2,3.7c-1.6,0-3.1,0-4.9,0
			c0,1.3,0,2.3,0,3.2c-2.1-0.1-3.6,0.9-5.4,1.6c-2.6,1.1-4.1,3.3-6.6,4.4c-2,0.9-3.2,3.1-5,4.5c-1.8,1.4-3.8,2.7-5.7,3.9
			c-1.2,0.8-2.6,1.5-3.9,2.3c0.1,0.3,0.3,0.6,0.4,0.9c-1.2,0.2-2.5,0.3-3.7,0.5c0.1,0.3,0.3,0.5,0.4,0.8c-1.4,0.8-2.9,1.5-4.2,2.4
			c-1.4,1-2.6,2.2-3.9,3.3c-1.3,1.1-2.7,2-4,3.1c-0.2-0.2-0.5-0.4-0.7-0.6c-0.2,0.8-0.4,1.6-0.4,1.6c-2,1.5-3.5,2.5-5,3.6
			c-1.3,1.1-4,0.3-4,3.3c0,0.2-0.2,0.4-0.4,0.5c-2.3,1-4.6,1.9-6.8,3.1c-1.7,1-3.1,2.3-4.5,3.5c-1.3,1.1-2.5,2.3-4,3.5
			c-1.1,0.8-2.4,1.5-3.4,2.4c-0.8,0.7-1.4,1.6-2.4,2.7c-4.3,1.5-8.8,3.6-11.4,8.2c-0.3,0.6-1.5,0.8-2.3,1.1c-0.7,0.3-2,0.4-2.1,0.7
			c-0.6,4.1-3.9,2.1-6.1,2.5c0.1-0.3,0.3-0.6,0.4-0.8c-1.4-0.8-2.9-1.5-4.1-2.5c-1.5-1.3-2.8-2.7-4.2-4.2c-0.3-0.4-0.3-1.2-0.6-1.4
			c-2.7-1.3-5.5-2.5-8-4.1c-1.2-0.8-2.4-1.6-3.4-2.4c-1.2-1-2.4-2-3.5-3.1c-2-1.9-3.9-3.8-6.2-6c-4.7-1.4-8.8-4.1-11.6-9
			c-1.6-0.4-4.7,0.4-4.1-3.3c-3.8,0.1-5.4-2.1-7.3-4.4c-0.8-1-2.5-1.5-3.6-2.4c-1.2-0.8-2.4-1.5-3.5-2.5c-0.8-0.7-1.4-1.6-2.2-2.7
			c-2.9-0.6-5.6-2.1-7.3-5c-0.3-0.5-1.3-0.7-2-1.1c-0.6-0.3-1.2-0.5-1.7-0.8c-1.2-1-2.3-2.1-3.3-3.1c-1.9-1.1-3.5-1.8-4.8-2.7
			c-1.4-0.9-2.6-2-3.8-3.1c-1.2-1.1-2.4-2.2-4-2.9c-0.4-2.8-2.8-2.8-4.6-3.6c-3.8-3-7.6-5.9-11.9-9.2c0.4-2.5-2.4-1.8-4.4-2.3
			c0.1-0.3,0.3-0.5,0.4-0.8c-1.5-0.8-3-1.5-4.4-2.5c-1.3-0.9-3.4-2-3.6-3.2c-0.4-2.9-2.7-2-4.3-2.5c0.1-0.3,0.3-0.5,0.4-0.8
			c-1.5-0.8-3.1-1.5-4.4-2.5c-1.5-1.2-2.6-2.7-4-4c-0.8-0.7-1.8-1-2.7-1.6c-0.7-0.5-1.3-1.1-1.9-1.6c-0.6-0.5-1.2-1-1.8-1.5
			c-1-0.7-1.9-1.5-2.9-2.2c-4.1-3-8.1-6-12.2-9.1c0.2-0.2,0.3-0.4,0.5-0.6c-1.2-0.2-2.5-0.4-3.9-0.6c-0.2-0.9-0.4-1.8-0.6-2.7
			c-0.2,0.2-0.5,0.4-0.7,0.5c-2-1.5-4-2.9-6-4.4c-1.4-1-2.7-2-4.7-3.5c0.2-2.2-2.3-1.9-4-2.8c-1.3-0.8-2.6-1.6-3.7-2.5
			c-1.6-1.3-3-2.8-4.5-4.2c-0.4-0.4-1-0.8-1.4-1.1c-1.2-0.8-2.3-1.7-3.1-3.1c-1.2-0.2-2.5-0.3-3.9-0.5c-0.2-0.9-0.4-1.8-0.6-2.7
			c-0.3,0.2-0.6,0.5-0.9,0.7c-2-1.7-4.2-3.3-5.9-5.2c-1.9-2.1-7.8-2.1-9.8-0.1c-1.7,1.7-4.1,2.8-6,4.4c-2.1,1.7-4,3.7-6.5,6.1
			c-2.2,0.4-5.3,3-8.6,5.5c-1.8,1.3-2.3,4.6-5.7,4c-0.2,0-0.7,0.9-1,1.4c-0.3,0.4-0.4,1.3-0.7,1.3c-3.8,0.7-6.3,2.9-8.6,5.7
			c-1.5,1.8-4.1,2.9-6.3,4.4c-1.3,0.8-2.7,1.5-3.7,2.6c-2.9,2.9-8.2,3.6-8.9,8.5c-2,0.4-4.8-0.3-4.7,2.9c0,0.1-0.3,0.4-0.5,0.4
			c-7.1,0.8-3.6,5.9-4.1,9.2c-0.3,1.8,1,2.9,3.1,3.5c2,0.6,3.6,2.1,4.9,2.9c1.7,1.2,3,2,4.2,2.9c1.3,1,3.2,1.9,3.8,3.2
			c0.9,2.1,3.2,2.4,4.4,3.6c1.2,1.3,2.2,1.7,3.7,2.1c0.6,0.1,1.1,0.8,1.5,1.3c0.3,0.4,0.4,1.3,0.7,1.3c2.4,0.2,4.3,0.8,4.7,3.4
			c3.9,0.1,4.8,3.6,7.3,5.3c0.9,0.7,2.4,0.7,3.2,1.4c1.2,0.8,2.5,1.6,3.6,2.6c0.8,0.7,1.4,1.7,2.3,2.9c1.5,0.4,4.5-0.3,4.1,2.6
			c3.6,1.8,7.2,2.7,9.5,5.9c1.4,1.9,4,3.2,6.2,4.5c0.9,0.8,1.6,1.9,2.6,2.2c0.5,0.1,1.4-1.3,2.3-1.9c2.2-1.6,4.5-3.2,7.3-5.3
			c0.8-0.5,2.1-1.2,3.2-2.2c2.9-2.5,7.2-3.6,8.7-7.5c0.2-0.6,1.5-0.7,2.2-1.2c0.9-0.6,1.8-1.2,2.4-2c0.7-0.9,7.7-4.3,8.6-3.7
			c2.1,1.5,4.1,3.1,5.9,5c1.6,0.8,4.4,0,4.6,3.2c0,0.4,2.4,0.7,3.3,1.4c2.1,1.7,4.2,3.2,6.2,5c1.5,1.3,2.9,2.8,4.1,4.3
			c0.2,0.3-0.3,1.3-0.7,1.9c-0.7,0.9-1.5,1.7-2.7,3c-3.1,0.7-6.2,2.4-8.7,5.5c-1.5,1.8-3.8,3.1-5.9,4.6c-1.2,0.8-3.1,1.4-3.6,2.6
			c-1.3,2.7-5.4,1.6-6.6,4.9c-0.6,1.7-3.8,2.6-5.7,4.1c-0.8,0.6-1.1,1.7-1.8,2.8c-1.6,0.3-4.3-0.2-4.3,2.8c0,0.2-1,0.3-1.4,0.6
			c-1.8,1-3.6,2-5.3,3.2c-1.4,1-2.5,2.3-3.8,3.5c-1.6,0.9-2.9,1.6-4.1,2.4c-0.9,0.7-1.7,1.6-3.1,2.9c-0.1,0-1.1,0.1-2.2,0.1
			c0.1-0.3,0.2-0.6,0.4-0.9c-1.8-0.8-4.3-1.3-5.1-2.6c-1.3-2-2.1-3.6-3.8-3.2c-2.1-1.4-4-2-4.5-3.1c-1.3-2.8-6-1.4-6.3-5
			c0-0.2-0.5-0.5-0.7-0.5c-4,0.1-4.6-3.2-6.6-5.3c-0.4-0.4-1-0.7-1.6-1c-0.5-0.2-1.6-0.1-1.6-0.3c-0.9-3-4.8-2.5-6.3-4.7
			c-0.2-0.4-0.8-0.6-1.3-0.9c-1.2-0.7-2.3-1.5-3.2-2.6c-1.8-0.8-3.7-0.7-4.7-3.3c-0.7-1.7-4.9-2.2-5.7-3.9c-1.3-3-6.3-1.1-6.4-4.9
			c0-0.4-2.4-0.7-3.4-1.5c-1.2-0.8-2.4-1.6-3.5-2.5c-0.8-0.7-1.4-1.6-2.4-2c-4.1-3-8.1-6-12.2-8.9c0.2-0.3,0.4-0.7,0.6-1
			C367.3,393.3,365.9,393.3,364.5,393.2c-0.1-0.9-0.1-1.9-0.1-2.8c-5.1-0.7-5.4-0.5-4.3,2.8C361.5,393.2,363,393.2,364.5,393.2z
			 M347.8,381.1c-0.1-0.9-0.3-1.8-0.6-3.7c-1.4,0.8-2.4,1.4-3.4,2c1,0.5,2,1.1,3.1,1.5c0.3,0.1,0.7,0,1,0c0,1,0,2,0,4
			c2-0.9,4.2-1.4,4.3-2.1c0.3-2.7-2.3-1.5-3.7-1.8C348.3,381.1,348,381.1,347.8,381.1z M761,376.1c1-1,1.7-1.7,2.4-2.3
			c-0.8-0.5-1.6-1.4-2.4-1.4c-0.7,0-1.5,1-2.2,1.6C759.4,374.5,760,375.1,761,376.1z"/>
	</g>
	<path d="M580,450.3c-2.3-2.1-4.6-4.2-6.9-6.3c-0.1,0-0.2,0.1-0.3,0.1c-1.2-0.8-2.4-1.6-3.5-2.4c-1.1-0.8-2.3-1.6-3.3-2.5
		c-2.1-1.8-4-3.8-6.6-6.2c-0.3,0-1.6-0.2-2.8-0.4c0.2-0.2,0.3-0.4,0.5-0.6c-2.2-1.9-4.2-3.8-6.5-5.5c-2.3-1.7-4.8-3.2-8.4-5.5
		c-2.3,0.1-3.4-2.9-5.1-5.2c-0.2-0.3-0.3-0.9-0.6-1.1c-2.3-1.1-4.8-1.9-7-3.2c-1.5-0.9-3.6-2.2-3.8-3.6c-0.5-2.9-2.7-2.4-4.6-2.7
		c0.2-0.2,0.4-0.5,0.6-0.7c-2.2-1.6-4.6-3.1-6.7-4.8c-2.2-1.8-4.2-3.7-6.4-5.4c-4-3-7.9-6-12.6-9.6c-2.9,0.5-3.3-3.3-5.4-4.9
		c-0.4-0.3-0.3-1.2-0.7-1.3c-2.4-1.1-5.1-1.9-7.3-3.3c-1.6-1-2.6-2.9-4-4.3c-0.5-0.6-1.1-1.3-1.9-1.5c-1.4-0.4-3-0.4-2.9-2.4
		c0-0.3-0.5-0.7-0.8-0.9c-2.2-1-4.6-1.9-6.7-3.1c-0.8-0.4-1.1-1.6-2-2c-2.1-1.7-4.7-3.1-6-5.1c-0.9-1.4-1.8-1.7-3.1-2.2
		c-2.1-0.8-4.8-1.7-5.7-3.3c-0.9-1.6,0.3-4.1,0.5-6.2c0.1-1.2,0.3-2.3,0.4-3.5c0-9.5,0-19,0-28.6c2.4-0.3,4-0.9,4.9,1.8
		c0.5,1.4,2.9,2.3,4.5,3.4c1.1,0.7,2.2,1.4,3.3,2.2c-0.2,0.3-0.3,0.6-0.5,0.8c1.3,0.2,2.7,0.4,3.7,0.6c2.6,5,7.1,7.3,12.4,9.5
		c-0.4,2.8,2.4,2.5,4.1,2.7c2.4,2.4,2.8,5.5,6.7,6.4c2.4,0.6,4.2,3,6.5,4.5c2,1.7,4,3.4,6.1,5c1,0.8,1.9,1.6,3,2.3
		c1.9,1.2,3.8,2.2,5.6,3.7c1.3,0.8,2.7,1.4,3.8,2.3c1.6,1.4,2.9,2.9,4.3,4.5c0.3,0.4,0.4,1.1,0.8,1.3c2.2,1.1,4.5,2.1,6.7,3.1
		c0.5,0.2,0.9,0.6,1.2,0.9c1.9,2.6,3.8,5.1,7.1,6.2c1.2,0.8,2.5,1.5,3.6,2.4c2.7,2.3,6.6,3.4,8.2,6.5c0.9,1.7,2,2,3.5,2.4
		c0.5,0.1,1,0.7,1.4,1.1c0.9,0.7,2,1.3,2.7,2.2c1.8,2.3,5.5,1.8,7.1,4.8c1.1,2,3.7,3.3,5.9,5c1.3,0.8,2.7,1.5,3.8,2.5
		c2.8,2.6,7.1,3.6,8.6,7.5c0.2,0.5,1.2,0.7,1.8,1.1c1.2,0.7,2.4,1.4,3.3,2.6c3.5,0.4,5.3,2.7,6.9,5.2c0.4,0.6,1.5,0.8,2.2,1.2
		c0.7,0.3,2,0.6,2,0.9c0.1,2.9,2.7,2.4,4.6,2.7c-0.2,0.2-0.3,0.5-0.5,0.7c1.2,0.8,2.4,1.5,3.5,2.4c1.6,1.3,3.1,2.7,4.7,4
		c0.7,0.6,1.6,1,2.3,1.6c0.8,0.6,1.6,1.3,2.4,1.9c0.5,0.4,0.9,0.8,1.4,1.1c1.1,0.8,2.3,1.6,3.7,2.4c2,1.7,4,3.4,6,5
		c0.8,0.6,1.7,1.1,2.6,1.6c0.6,0.3,1.9,0.6,1.9,0.9c0.1,2.8,2.5,2.3,4.2,2.6c-0.1,0.2-0.3,0.5-0.4,0.7c1.5,0.8,3.1,1.5,4.4,2.5
		c1.4,1,2.4,2.4,3.7,3.5c1.2,1,2.6,1.9,4,2.5c4.3,4.1,2.2,9.4,3.2,14.3c2,10,1.7,20,1.9,30c0,1.1,0,2.3,0,3.7
		c-2.2-1.3-4-2.3-5.8-3.3c0,0,0-0.1,0.1-0.1c-1.3-0.9-2.6-1.6-3.7-2.6c-1.6-1.3-2.9-2.8-4.4-4.2c-0.8-0.7-1.7-1.3-2.5-2
		c-2-1.7-4.9-2.1-6.4-4.7c-0.9-1.6-3-2.7-4.6-4c-1-0.8-2.1-1.5-3.3-2.3c-3.9-3.1-7.8-6.1-11.7-9.2c-0.1,0-0.2,0.1-0.3,0.1
		c-2-1.7-3.9-3.4-5.9-5.1c-0.8-0.6-1.7-1.1-2.6-1.6c-0.6-0.4-1.9-0.6-1.9-0.9c0-2.8-2.4-2.3-4.2-2.6
		C589.4,455.1,584.7,452.9,580,450.3z"/>
	<path d="M533.4,423.8c4.2,0.8,7.3,3.7,10.5,6.6c0.4,0.3,0.3,1.7,0.1,1.8c-2.5,0.8-1.9,5.6-6.5,3.7c0.3,0.4,0.5,0.8,0.8,1.2
		c-1.5,0.8-3.1,1.5-4.4,2.5c-1.3,0.9-2.5,2-3.7,3.1c-1.2,1.1-2.5,2.2-3.8,3.4c-1.6,1-3.2,2.1-4.8,3.2c0,0,0,0,0,0.1
		c-1.2,0.8-2.4,1.5-3.5,2.4c-1.6,1.4-3.2,2.9-4.7,4.4c-0.4,0.4-0.8,0.7-1.3,1c-1.2,0.8-2.3,1.6-3.2,2.7c-1.9,0.7-4.8,0.3-4.3,3.6
		c-3.8,0.1-5.6,2.1-7.1,4.7c-0.3,0.6-1.5,0.7-2.1,1.2c-0.9,0.6-1.7,1.3-2.4,2c-0.2,0.2-0.3,0.8-0.3,0.8c-3.5-0.5-4.4,2.8-6.7,4
		c-1.8,1.1-4.5,1.7-5.2,4.4c-0.2,0.7-2.5,1-3.5,1.9c-1.2,0.8-2.4,1.6-3.5,2.4c-1.5,1.1-2.9,2.3-4.4,3.4c-1.1,0.8-2.4,1.4-3.3,2.3
		c-0.7,0.7-1,1.7-1.5,2.8c-1.5,0.5-4.3-0.4-4.3,2.6c0,0.2-0.7,0.8-0.9,0.7c-3.5-0.6-3.6,3.1-6,4c-1.3,0.5-2.4,1.6-4.4,2.9
		c-0.2-2.1-0.3-3-0.3-3.9c0.1-8.6,0-17.3,0.3-25.9c0.2-5.1,0.8-10.3,2-15.3c0.4-1.8,3-3.1,4.8-4.5c1.5-1.1,3.5-1.8,4.7-3.1
		c2.1-2.3,1.9-2.5,3.9-3.4c1.3-0.8,2.6-1.6,3.8-2.5c1.5-1.1,2.8-2.4,4.3-3.6c1-0.8,2.1-1.3,3-2.1c0.7-0.7,1.1-1.6,2-2.9
		c1.3-0.5,4.6,0.6,4.2-1.7c2.7-2.4,4.8-4.2,6.8-6c0.7-0.6,1.4-1.4,2.2-2c0.8-0.6,1.7-1.3,2.7-1.8c1.2-0.6,2.6-1,3.6-1.9
		c1.3-0.9,2.6-1.7,3.8-2.6c1.5-1,3.3-2.6,3.8-3.5c1.9-3.1,5.6-3.2,7.9-5.3c1-0.9,2-1.9,2.9-2.8c0.8,1,1.4,2.4,2.4,2.9
		c2.6,1.2,4.6,2.7,6.5,4.8c1.7,1.9,4.6,2.9,6.8,4.4C531.7,421.5,532.3,422.5,533.4,423.8z"/>
	<path d="M693.5,366.4c-0.1,0.5-0.3,1.3-0.5,2.1c-2.1,0.3-4.6,0.3-3.7,3.8c-0.4-0.4-0.8-0.8-1.3-1.2c-1.2,1.2-2.4,2.5-3.8,3.4
		c-0.5,0.3-1.9,0.2-2.4-0.2c-1.2-0.9-2.1-2.1-3.3-3.1c-3.4-3.6-6.9-7-11.8-9.2c-1.4-0.8-2.9-1.4-4.1-2.4c-1.6-1.3-2.8-3-4.3-4.4
		c-0.6-0.6-1.2-1-1.9-1.5c-1-0.7-1.8-1.6-2.9-2c-1.2-0.5-3-1.1-3.8-0.7c-2.2,1.3-4,3.2-5.8,5.1c-1.7,0.6-4.3,0-4.2,3
		c0,0.2-0.3,0.5-0.4,0.5c-2.6,0-3.6,1.8-5.1,3.3c-1.3,1.4-2.6,3.3-5.4,3c-0.3,0-0.9,1.7-1.4,2.7c-1.2,0.2-2.4,0.3-3.6,0.5
		c0.1,0.2,0.3,0.4,0.4,0.6c-1.1,0.9-2.3,1.7-3.5,2.6c-0.4,0.3-1,0.4-1.1,0.7c-1.2,2.5-2.3,4.3-3.5-0.1c-0.2-0.6-2.1-0.6-2.8-1.3
		c-1.6-1.5-2.8-3.2-4.3-4.8c-0.3-0.3-0.6-0.7-0.9-0.8c-2.3-1.1-4.6-1.9-6.7-3.1c-0.8-0.4-1-1.7-2-2.1c-2-1.6-4.1-3.1-5.9-4.9
		c-0.4-0.3,0-1.7,0.4-2.3c1.3-1.8,2.6-3.6,4.3-5c0.8-0.7,2.3-0.6,3.8-1c0.2-2.3,1.6-3.6,4.7-2.9c-0.2-0.3-0.4-0.7-0.6-1
		c1.5-0.9,3.1-1.6,4.4-2.6c1.7-1.4,3.2-3,4.2-5.1c1.2-0.2,2.5-0.4,3.7-0.5c-0.1-0.2-0.3-0.4-0.4-0.6c1.3-0.8,2.5-1.8,3.8-2.4
		c1.6-0.8,1.3-3.5,4.1-3.5c1.2,0,2.5-1.3,3.5-2.3c0.7-0.7,0.9-1.8,0.9-1.8c2.3-1.4,3.9-2.3,5.4-3.3c0-0.1,0-0.2,0-0.3
		c2.1-1.5,4.9-2.7,6.1-4.7c1.8-2.9,4.2-1.7,7.4-2.2c0,10.2,0,19.9,0,29.7c0.5,0,0.9,0.1,1.4,0.1c0.3-0.7,0.8-1.3,0.8-2
		c0.3-3.9,0.2-7.9,0.6-11.8c0.5-5.2,1.4-10.5,2.3-16.7c1.8,1.1,3,2,4.5,2.6c1.2,0.6,2.5,0.8,3.4,1.6c1.3,0.9,2.8,1.6,4,2.7
		c1.6,1.4,2.9,3.1,4.4,4.7c0.3,0.3,0.3,0.9,0.7,1c2.2,1.1,4.7,1.8,6.7,3.2c1.6,1.1,2.6,2.9,3.9,4.4c0.5,0.6,1.2,1.1,1.9,1.5
		c1.2,0.8,2.4,1.5,3.2,2.8c2.8,1.2,5.8,2.3,8.5,3.8c1.1,0.6,2.3,1.9,2.3,2.9c0.1,3.7,5.6,2.1,6.1,5.7c0.1,1.2,3.1,2,4.7,3.1
		c0.7,0.5,1.1,1.4,1.9,2.3c-2.6,0.8-5.6,0.2-5.5,3.4c0,0.1-0.4,0.3-0.6,0.3c-3.6-0.1-4.3,3.2-6.5,4.7
		C696.8,365.3,695.3,365.6,693.5,366.4z"/>
	<path d="M431.1,362.2c-1.3,1-2.6,2-3.9,3c-0.1,0.1-0.2,0.2-0.3,0.2c-3.3-0.8-4.3,2.1-5.7,3.6c-1.4,1.6-2.4,3.3-5,3.3
		c-0.4,0-0.7,1.6-1.1,2.7c-1.6-0.1-3,0.6-4.2-1.9c-1-2.1-3.8-3.5-6-5.3c-1.3-0.8-2.7-1.5-3.9-2.4c-2-1.4-3.9-2.9-5.8-4.4
		c-2.1-1.7-4.2-3.4-7-5.8c0.5-0.9,1.2-3.5,2.5-3.7c3.9-0.8,5.4-3.5,7.2-6.2c0.2-0.4,1-0.5,1.5-0.6c0.5-0.1,1.6-0.1,1.6-0.2
		c0.4-3.3,4.3-2.6,6-4.7c1.4-1.7,3.9-2.7,5.7-4.2c2.1-1.7,4-3.7,6.6-6.1c2.9-0.6,5.6-2.7,8.5-5.2c1.7-1.4,2.2-4.7,5.8-4.2
		c0.3,0,0.7-0.9,1.1-1.3c0.4-0.5,0.8-1.4,1.3-1.5c3.6-0.3,5-2.9,7.1-6c0.2,2.1,0.4,3.6,0.5,5.1c0.1,3.8,0,7.7,0.2,11.5
		c0.1,1.8-0.5,3.9,1.9,5.1c0.4,0.2,0.5,1.4,0.5,2.1c0.1,3.5-0.1,7,0.2,10.5c0.4,4.2-1.4,6.7-5.7,8.1c-1.2,0.4-2.1,1.9-3.1,2.9
		c-1.9,1.9-3.9,3.7-5.9,5.6C431.4,362.2,431.3,362.2,431.1,362.2z"/>
	<path d="M581,562.3c0.4,2.2,0.7,3.6,1,5.4c6.5-4.7,12.9-8.6,19.5-0.5c3.3-2.4,6.7-4.7,11.4-4.5c4.4,0.2,8.3,3.1,8.2,7.5
		c-0.1,3.2-0.1,6.4-0.1,9.6c0,2.3-0.6,4.6,1.8,6.4c0.4,0.3,0,2.4-0.7,2.9c-3.8,2.6-12.1,2.5-16-0.2c-0.6-0.4-0.9-2-0.5-2.6
		c3.2-4.5,1.6-9.4,1.1-14.1c-0.1-0.7-1.7-1.6-2.7-1.6c-0.7,0-1.9,1-2.3,1.8c-1.9,3.9-1.4,7.8-0.1,11.7c1.7,4.9,1.6,5.3-3.7,6.5
		c-4.1,0.9-8.5,1-12.3-1.3c-0.6-0.4-0.8-2-0.6-2.9c0.4-1.4,1.8-2.7,1.8-4.2c0.2-3.3,0-6.6-0.4-9.8c-0.1-0.7-1.6-1.9-2.1-1.8
		c-1.1,0.3-2.7,1.3-2.8,2c-0.2,4.5-2,9.2,1,13.6c0.4,0.5-0.4,2.4-1,2.7c-4.8,2-9.7,3-14.9,0.9c-2.5-1-2.4-2.3-1.1-3.9
		c3.8-4.5,1.7-9.6,1.9-14.4c0-0.2-0.1-0.4-0.3-0.6c-3.2-4.3-3-4.9,2.6-6.2C573.6,564.1,577.2,563.2,581,562.3z"/>
	<path d="M460.3,591.4c-2.9-0.5-5.9-1-8.8-1.8c-1-0.3-2-1.3-2.3-2.3c-0.2-0.5,1.2-1.4,1.8-2.2c1-1.4,2.7-2.8,2.8-4.2
		c0.3-6.7,0.2-13.4,0.3-20.1c0-1.7-0.1-3.3-2.5-4c-0.8-0.2-1.6-1.9-1.4-2.7c0.2-0.8,1.6-1.9,2.6-2c2-0.2,4.1,0.1,6.2,0.1
		c8.3-0.1,16.6,0.1,24.9-0.4c3.2-0.2,4.6,1.6,5.3,3.4c0.7,2,0.1,4.5,0,6.7c-1.6-0.1-4,0.5-4.6-0.3c-3.3-4.1-7.9-4.3-12.7-4.1
		c-0.9,0-2.4,0.6-2.5,1.1c-0.5,2.7-0.7,5.5-0.7,8.2c0,0.5,1.5,1.5,2.1,1.4c1.3-0.2,2.6-0.8,3.7-1.5c0.5-0.3,0.5-1.3,1-1.9
		c2.1-2.4,3.4-2.1,4.8,0.7c2,4.1,1.5,8.1-0.4,11.9c-0.5,1-1.9,1.6-2.8,2.3c-0.8-0.9-1.6-1.8-2.3-2.8c-0.7-1-1.2-2.2-2.2-2.9
		c-2.1-1.5-3.7-0.9-3.9,1.6c-0.2,2,0,4,0.1,6.1c0.1,1.8,0.7,3.2,3.2,3.4c0.8,0.1,2.2,1.5,2,1.9c-0.4,0.9-1.4,2-2.3,2.2
		C468.1,590.3,464.4,590.8,460.3,591.4z"/>
	<path d="M660.2,575.6c0.3,2.9-1.4,6.2,2.6,8.2c0.5,0.2,0,2.9-0.8,4c-1.8,2.6-7.9,3.7-10.8,1.7c-3.2-2.1-5.7-0.3-8.3,0.7
		c-3.5,1.3-8.3,0.8-11-2c-2.2-2.3-2.6-5.5-0.8-8c1.3-1.8,3.5-3.4,5.7-4.3c2-0.8,4.5-0.5,6.8-0.9c1.1-0.2,3.1-0.9,3.1-1.4
		c0-1.9,0-4.3-1.2-5.6c-1.2-1.4-3.2-0.5-4.5,1.3c-1.4,1.9-2.9,4.1-6,3.8c-1.1-0.1-2.7-0.8-3-1.6c-0.4-0.9,0.1-2.5,0.8-3.2
		c5.8-6.1,18.2-7.4,25-2.1c0.9,0.7,1.6,2.1,1.8,3.2C660.1,571.3,660,573.5,660.2,575.6z M648,581.3c-1.2-1.3-2-2.2-2.8-3
		c-1.1,1.2-2.8,2.3-3,3.6c-0.1,1,1.6,2.3,2.5,3.4C645.7,584,646.7,582.9,648,581.3z"/>
	<path d="M542.8,568c1.2-1.4,1.9-2.3,2.7-3.1c2.3-2.2,7.1-2.8,9.1-1.1c3.1,2.6,3,7.1-0.1,10.3c-2.2,2.2-6.3,2.1-9.1-0.2
		c-0.6-0.5-1.6-0.7-2.4-1.1c-0.3,0.8-0.8,1.6-0.9,2.5c-0.2,1.3,0.1,2.6-0.1,3.8c-0.5,3,0.9,4.9,3.6,6.4c0.7,0.4,1.6,1.4,1.5,2.1
		c-0.1,0.7-1,1.6-1.8,1.9c-6.4,2.4-12.7,2.2-19.1-0.2c-2.2-0.8-2.3-2.1-0.6-3.6c2.7-2.4,4.6-11.2,3.1-14.1c-0.3-0.5-1-0.8-1.5-1.1
		c-2.9-1.4-3.2-3.6-0.3-4.6c4.2-1.5,8.7-2.2,13.1-3c0.6-0.1,1.6,1.1,2.1,1.8C542.4,565.5,542.4,566.4,542.8,568z"/>
	<path d="M513.7,573.3c0,2.7-0.3,5.4,0.1,8c0.2,1.6,1.2,3.4,2.5,4.4c1.8,1.4,1.8,2.4-0.1,3.3c-4.4,2.1-9.1,2.8-13.9,1.6
		c-1.9-0.5-3.6-1.5-5.4-2.2c0.9-1.5,2.4-2.9,2.5-4.4c0.4-4,0.3-8,0.2-12c0-0.5-1.1-0.9-1.7-1.3c-1.9-1.4-1.7-4.2,0.6-4.8
		c3.8-1.1,7.7-2,11.5-2.8c2.4-0.5,3.7,0.1,3.5,2.7C513.5,568.2,513.7,570.8,513.7,573.3C513.7,573.3,513.7,573.3,513.7,573.3z"/>
	<path d="M503,561.1c-4.5-0.2-6.5-1.4-5.6-3.9c0.6-1.6,2.5-3.2,4.3-3.8c2.5-0.8,5.4-0.8,8.2-0.8c1.9,0,4,1.1,3.5,3
		c-0.4,1.6-2.1,3.4-3.7,4.2C507.7,560.8,505.2,560.8,503,561.1z"/>
	<path d="M761,376.1c-1-1-1.6-1.6-2.2-2.2c0.7-0.6,1.5-1.6,2.2-1.6c0.8,0,1.6,0.9,2.4,1.4C762.7,374.4,762.1,375.1,761,376.1z"/>
	<path d="M347.8,381.1c0.2,0,0.5,0,0.7,0c1.4,0.4,4-0.8,3.7,1.8c-0.1,0.7-2.3,1.2-4.3,2.1c0-2,0-3,0-4L347.8,381.1z"/>
	<path d="M742.8,387.5c0-0.9,0-1.9,0-3.2c1.7,0,3.3,0,4.9,0l-0.1-0.1c0,0.9,0,1.8,0,3.2C745.9,387.5,744.3,387.5,742.8,387.5
		C742.7,387.5,742.8,387.5,742.8,387.5z"/>
	<path d="M347.9,381c-0.3,0-0.7,0.1-1,0c-1-0.5-2.1-1-3.1-1.5c1-0.6,2-1.2,3.4-2c0.3,1.8,0.4,2.7,0.6,3.6
		C347.8,381.1,347.9,381,347.9,381z"/>
	<path d="M747.7,384.3c-0.1-0.9-0.1-1.8-0.2-3.7c1.7,0.6,3,1.1,4.2,1.5c-0.5,0.7-0.7,1.7-1.4,2C749.5,384.5,748.5,384.2,747.7,384.3
		C747.6,384.3,747.7,384.3,747.7,384.3z"/>
	<path d="M648,581.3c-1.3,1.6-2.3,2.8-3.3,3.9c-0.9-1.1-2.7-2.4-2.5-3.4c0.2-1.3,1.9-2.4,3-3.6C646,579.1,646.8,580,648,581.3z"/>
	<g>
		<path class="st1" d="M1536.8,532.5l-0.1-0.1c1.7,5.1-3.6,6.7-5.9,9.5c-1.6,2-4.8,2.9-7.3,4.2c-1.5,1.7-4.6,2-5.4,3.4
			c-2.6,4.8-6.2,8.1-11.9,8.5c-2,8.3-11.1,9.9-15.7,15.5c-1.7,2-5.1,2.7-7,4.6c-2.5,2.6-4.2,5.7-8.6,5.6c-0.2,0-0.7,0.5-0.7,0.8
			c0.2,5.3-4.9,3.8-7.9,5.1c0.4,0.5,0.8,0.9,1.2,1.4c-4,3-7.9,6.1-10.9,8.4c-3.3,2.2-5.2,3.5-7.2,4.8c-0.7,0.5-1.5,0.9-2,1.6
			c-3.1,4.4-6.4,8.6-12,9.5c-1.4,1.8-2.3,3.4-3.6,4.6c-1.4,1.3-3.2,2.3-4.7,3.5c-2.5,2-5,4-7.6,6c-1.9,1.5-3.8,3-5.7,4.5
			c0.2,0.2,0.4,0.5,0.6,0.7c-2.1,0.3-4.1,0.7-6.2,1c-1.8,3.6-4.2,6.3-7.1,8.6c-2.2,1.8-4.9,3-7.4,4.5c0.2,0.3,0.4,0.7,0.6,1
			c-2,0.4-4.1,0.8-5.2,1c-1.6,16-3.5,31.3-4.6,46.7c-0.7,9.9-0.5,19.8-0.5,29.7c0,1.6,0.7,3.2,1.4,5.9c1.7-3,2.4-5.7,3.6-5.9
			c3.5-0.6,5.6-2.1,8-4.6c2.5-2.5,4.4-6.6,9.4-6.1c0.2,0,0.7-0.5,0.7-0.8c-0.1-5,4.4-3.9,7.3-4.6c0.9-1.7,1.3-4,2.5-4.5
			c2.4-0.9,4.2-2.9,5.9-3.7c3.1-1.5,4.3-3.8,6.5-5.8c2-1.8,4.5-3.2,6.8-4.8c2.9-1.4,7.2-1,6.6-4.4c3.3-2.6,5.2-5.1,7.8-5.9
			c4.1-1.3,4.1-7.7,9.9-6.4c0.4,0.1,1.3-0.5,1.3-0.8c-0.1-5.1,4.5-4.3,7.9-5c-0.4-0.4-0.7-0.8-1.1-1.3c6.6-4.9,13.2-9.9,19.8-14.8
			c0.1,0.1,0.2,0.2,0.3,0.4c3.2-2.9,6.4-5.7,9.6-8.6c2.4-1.4,4.4-3.6,6.9-4.4c4.1-1.4,4.1-7.9,10.1-6.6c0.3,0.1,1.3-0.6,1.2-0.9
			c-0.2-5.3,4.8-3.9,7.4-5.5c2.8-3,6.1-5.5,9.4-8c3.3-2.5,6.5-4.9,9.8-7.4c1.6-0.6,2.1-3.1,3.3-3.4c5.5-1.4,7.3-6.1,10.9-9.1
			c2.9-2.4,6.3-4.2,9.5-6.2c2.1-1.4,4.3-2.7,6.4-4c1.7-1.6,5-1.9,5.9-3.5c4.3-7.8,11.9-11.1,19.9-14.3c0.6-1.2,1.1-3.8,1.8-3.9
			c7.9-0.6,5.8-6.2,5.8-10.1c0.2-23,0.1-46,0.1-69.1c0-8.9-3.1-15.8-13.3-18.4c-0.6-0.2-1.6-0.8-1.6-1.2c0.1-3.5-2.4-3.8-5.2-4.3
			c-1.1-0.2-2.1-1.5-3-2.4c-2.6-2.6-4.7-5.7-7.7-7.7c-3.5-2.3-7.7-3.6-11.6-5.4c-0.3-0.1-0.3-0.6-0.6-0.9c-2.8-3-5.6-6-8.5-8.9
			c-1.9-1.8-3.7-3.8-6-5.1c-3.6-2-7.5-3.4-11.2-5.3c-0.8-0.4-0.9-1.8-1.5-2.7c-0.6-0.8-1.5-2.1-2.1-2c-5.7,0.8-7-4.5-9.3-6.9
			c-4.5-4.7-9.8-7.1-15.3-9.8c-1.6-1.7-3.4-3-5.1-4.4c-2.7-2.2-6.3-4.1-7.9-7c-2.3-4.2-7.2-4.7-10.3-7.7c-1.8-1.7-4.2-2.7-6.4-4
			c-4.9-2-9.1-5.7-10.8-10.1c-4.4-2.8-7.2-5-10.4-6.3c-2.4-1-4.1-1.2-5.7-4c-2-3.5-6.5-5.8-10.6-9.1c-1.6-1-3.5-2.3-5.5-3.4
			c-0.9-0.5-2.2-0.6-2.9-1.2c-2.8-2.6-5.2-7.2-8.3-7.6c-4.6-0.6-3.5-4.7-6.4-5.9c-2.3-1-4.3-2.8-6.4-4.2c-4.1-2.7-8.8-4.8-13.4-6.9
			c-0.1-0.1-0.2-0.3-0.3-0.4c-2.7-4.2-4.7-9.1-11.3-9.6c-0.5,0-0.6-2-1.3-2.7c-1.1-1-2.5-2.2-3.9-2.2c-2.4-0.1-6.8,0.5-6.8,1.1
			c-0.4,5.3-5.2,3.9-8.2,4.9c0.4,0.4,0.7,0.9,1.1,1.3c-6.6,5-13.2,10-19.8,15c-1.8,0.5-2.8,2.1-4.1,3.3c-1.8,1.5-3.8,2.7-7.2,5
			c-1.1,1-3.1,3.2-5.4,4.9c-2.7,2-5.7,3.7-8.7,5.4c-0.8,0.5-2.6,0.6-2.5,0.8c0.1,5.5-5,4.2-7.8,6c-1.3,1.9-3.1,3-4.9,4.2
			c-1.2,0.7-3,1.1-3.5,2.1c-2.5,4.4-5.5,7.9-11.3,7.6c-0.9,1.8-1.4,4.4-2.5,4.7c-5.7,1.4-7.6,6.3-11.3,9.5c-2.6,2.3-6,3.9-9.1,5.8
			c-2.1,1.3-4.3,2.5-6.4,3.7c-1.8,1.9-4.9,2.5-6.1,4.3c-4.8,7-11.5,11.1-18.8,13.3c-3.5,3.7-6.1,7.2-9.5,9.9
			c-3.5,2.8-7.6,4.9-11.9,7.5c0-0.3-0.2,0.3,0,0.3c3.8,2.1,4,8.3,10.2,7.8c0.6-0.1,1.4,0.9,2,1.5c3.3,2.9,6.6,6,10,8.8
			c3.6,2.9,7.4,5.6,11.1,8.4c0,0,0.1-0.1,0.1-0.1c2.7,1.8,5.3,3.7,8,5.5c-0.3,0.3-0.5,0.6-0.8,1c2.1,0.3,4.2,0.6,6.1,0.9
			c0.7,1.8,1.3,3.3,1.6,4.1c3.6-1.8,6.6-3.3,9.6-4.8c0.5-0.2,1.1-0.7,1.1-1.1c-0.1-5.2,4.6-3.7,8.1-4.7c-2-5.6,4-4,6.4-5.9
			c3.8-2.9,5.7-7.9,11.3-8.9c0.5-0.1,0.7-1.6,1.2-2.2c0.8-1,1.8-1.9,2.9-2.6c2.1-1.3,4.3-2.5,6.5-3.8c2.4-2.1,4.4-4.5,7-5.4
			c4.1-1.5,4.5-7.7,10.4-6.5c0.2,0,0.8-0.4,0.8-0.7c-0.1-5.2,4.6-4.2,7.9-4.9c-0.4-0.4-0.7-0.8-1.1-1.3c6.6-4.9,13.2-9.9,19.9-14.8
			c0.1,0.1,0.2,0.2,0.3,0.3c3.2-2.8,6.4-5.6,10.8-9.5c2.8-1.1,7.3-4.3,11.6-4.2c4.5,0.1,8.9,3.4,13.1,5.2c0.9,1.4,2.1,4.2,2.7,4.1
			c6.1-1,8.1,4.5,9.6,7c3,5,8.8,5,12.4,8.5c2.9,2.8,5.7,6.3,10.5,6.9c0.2,0,0.1,1.1,0.5,1.5c2.4,2.5,4.4,5.5,7.3,7.4
			c3.5,2.3,7.8,3.6,11.7,5.4c0.4,0.2,0.9,0.9,0.8,1.3c-0.2,3.4,2.6,3.3,5,3.9c1.1,0.3,2.5,1.1,2.9,2c2.7,6.4,10,8.2,14.8,12.5
			c1.8,1.6,3.9,2.8,5.8,4.2c2.5,1.7,4.5,3.6,6.6,5.5c2.5,2.2,4.9,4.4,7.5,6.4c2.7,2.1,5.6,3.9,8.2,6.1c0.5,0.5,0.2,2.5-0.5,3.4
			c-2,2.6-5.1,4.6-6.4,7.4c-2.7,5.4-8.6,5.9-13,8.8c-1.2,0.8-2.2,2-3.4,2.9c-3.6,2.8-4.4,9-9.7,8c-4.2,3.5-7.6,6.3-11,9.2
			c-1.9,1.6-3.7,3.4-5.7,5c-2,1.6-4.2,3-7.7,5.4c-2.4-0.4-5.4,1-5.4,3.7c-3.4,2.5-5.4,4.1-7.6,5.6c-3.2,2.2-6.6,4.4-9.9,6.5
			c-0.5,0.3-1.4,0.5-1.4,0.8c0,5.1-4.4,4.4-7.9,4.9c0.4,0.4,0.7,0.8,1.1,1.2c-6.6,5-13.3,10-20.2,15.2c-2.1,1.2-5.1,2.1-6.3,4
			c-3.6,6-6.2,4.7-9.7,0c-1.3-1.8-3.7-2.9-5.7-4.3c-2.3-1.8-6.1-0.8-7-5.6c-0.4-2.1-4.3-3.6-6.7-5.3c-2.1-1.4-4.2-2.7-7.6-4.8
			c-2.4-2-7.2-4.2-8.5-7.5c-2-5.3-7.8-6.4-11-7.6c-4.9-1.9-6.1-7-11.4-8c-2.3-0.4-3.9-3.7-6-5.6c-1.4-1.3-2.9-2.5-4.4-3.6
			c-1-0.7-2.4-0.8-3.3-1.6c-2.8-2.5-5.1-7-8.1-7.3c-4.7-0.5-3.3-4.7-6.2-5.9c-2.4-1-4.3-2.8-5.5-3.6c-3.2-2.4-5.4-3.9-7.4-5.6
			c-2.3-1.9-4.3-4.1-6.7-5.9c-2-1.5-4.3-2.7-7.7-4.8c-1.4-1.4-3.3-3.5-5.5-5.3c-2.1-1.8-4.4-3.4-6.6-5c-2.2-1.5-4.6-2.9-7.2-4.5
			c-3.1-2.5-6.7-4.8-9.5-7.7c-3-3.1-11.1-8.6-14.8-9.3c-3.9-4.3-4.6-11.1-10.5-10.6c-4.8-3.8-7.8-7.7-11.8-8.9
			c-6.1-1.9-7.8-6.4-9.3-8.6c-8.7-6.1-17.2-9.2-21-16.1c-2.9-1.5-5.1-2.5-7.1-3.8c-1.5-0.9-2.7-2.3-4.1-3.3c-1.1-0.8-2.9-1-3.6-2
			c-2.7-4.1-5.2-8.2-11.2-8.6c-1.7-2-3.9-3.3-5.9-4.7c-1.1-0.7-2-1.7-2.9-2.6c-2.6-2.6-5.1-5.2-7.9-7.7c-1.3-1.2-2.8-2.3-4.4-3
			c-3.4-1.5-6.4-3.1-8.2-6.6c-1.1-2.1-3.7-3.6-5.8-5.2c-2-1.6-4.2-3-6.3-4.5c-8.4-3.1-13.4-10.1-20.4-16.1c-2.4-0.1-4.8-0.5-6.4-4.6
			c-1.2-3-6.6-4.5-11-7.2c0-0.2-0.3-1.5-0.6-3c-2.4-0.4-4.7-0.8-6.9-1.3c0.3-0.5,0.6-0.9,0.9-1.4c-1.9-1.2-3.8-2.4-5.6-3.7
			c-1.2-0.9-2.3-2.1-3.6-2.8c-1.6-0.9-3.4-2.2-5-2c-2.2,0.2-4.8,1.1-6.2,2.5c-3.5,3.5-5.1,9.2-9.7,8.8c-4.9,3.7-8.3,6.5-11.9,9
			c-3.4,2.4-7.1,4.4-10.4,6.8c-2,1.5-3.5,3.6-5.3,5.4c-0.4-0.3-0.8-0.6-1.2-0.8c-0.5,1.5-0.9,3-1.4,4.4c-0.5-0.4-0.9-0.8-1.4-1.2
			c-2.2,1.9-4.2,4.1-6.7,5.5c-3.6,2-5.2,6.9-10.5,6.5c0.2,5.4-4.7,4.4-8.6,5.4c3.2,7.8-7.6,2.4-8.6,8.2c-0.5,3-6.3,5.1-9.7,7.7
			c-1.5,0.9-2.5,2.5-3.9,3.7c-1.8,1.5-3.9,2.7-5.8,4.1c-1.5,1.5-4.1,1.7-5.8,2.9c-3.9,2.9-5.2,8.7-11.6,8.7c-0.4,0-0.7,1.5-1.2,2.2
			c-0.7,0.9-1.4,1.9-2.3,2.5c-2.4,1.5-4.9,2.8-7.4,4.2c-2,1.9-4.2,3.2-6.2,4.8c-3.4,2.6-6.8,5.3-10.1,8c-0.2-0.1-0.3-0.2-0.5-0.4
			c-3.2,2.9-6.4,5.8-9.5,8.6c-8.2,3.5-14,9.6-20.6,15.9c-1.3,0.2-3.3,0.5-3.8,0.5c-2.2,2.4-3.3,4.1-4.9,5.2c-2.8,1.9-8,3-8.3,5.1
			c-1,5.3-5.2,4.2-8.1,6c-1.5,1.9-3.6,3.1-5.6,4.2c-1,0.6-2.5,1-3,1.9c-2.5,4.4-5.8,7.7-11.1,8.1c-5.7,6.1-4.2,13.1-4.3,19.9
			c-0.1,4.1,0,8.3,0,12.4c0,16.4,0,32.7,0.1,49.1c0,1.7,1.5,4.8,2,4.7c5.7-0.5,6.7,4.7,9.1,7.1c4.6,4.5,9.6,7.3,14.3,8.9
			c4.1,3.9,7.5,7.1,10.9,10.2c1.8,1.7,3.2,3.8,5.3,5c3.5,2,7.5,3.4,11.2,5.3c0.8,0.4,1,1.8,1.6,2.6c0.6,0.8,1.2,2,2,2.1
			c6.7,0.9,8.2,6.3,11.3,10.7c3.7-0.1,7.6,0,7.1,3.6c3.2,2.3,5.6,4,7.8,5.7c3.3,2.5,6.6,5,9.9,7.6c2.2,1.4,4.2,2.7,6,4.2
			c0.9,0.7,1.6,1.7,2.4,2.4c1.1,0.9,2.2,1.9,3.3,2.7c1.5,1.1,3,2.5,4.8,3c3.6,1.1,4.7,4.1,6.9,6.3c1.8,1.8,4.5,2.9,6.8,4.4
			c1.7,1.5,4.8,1.9,5.7,3.5c2.6,4.5,6,7.5,12.2,8.2c-1.5,6.1,4,4.5,7.2,5.4c0.7,1.6,1.4,4.4,1.9,4.3c5.1-0.4,6.4,3.9,9.4,6
			c2.8,2,5.6,3.9,9.5,6.5c0-0.1,0.3,1.2,0.6,2.6c0.3-0.3,0.6-0.5,0.9-0.8c2.3,1.8,4.6,3.7,6.9,5.5c2.4,1.6,4.5,3.5,6.5,5.3
			c2,1.8,4,3.7,6.2,5.3c2.3,1.6,5,2.8,7.5,4.1c1.7,1.7,4.5,2.2,5.8,3.7c3,3.5,4.5,8.4,10.6,8.9c0.6,0,1.1,0.8,1.7,1.2
			c2.1,1.3,4.2,2.5,6.4,3.7c0.6-0.5,1.1-1,1.7-1.5c-0.4-2.7-0.5-5.5-1.3-8.2c-0.8-2.9-3-5.7-3.1-8.5c-0.5-14-0.2-28.1-0.9-42.1
			c-0.3-5.5-1.5-11.3-3.6-16.5c-2.8-6.8-12.4-8.2-15.6-15.1c-0.1-0.3-1.2,0-1.6-0.3c-4.1-3-8.1-6-12.2-9c0-0.1,0.1-0.2,0.1-0.3
			c-6.3-5.1-12.5-10.2-18.8-15.3c-2.3-1.7-4.2-3.5-6.2-5.3c-2.3-2.2-4.2-4.8-6.9-6.5c-3.6-2.2-7.8-3.6-11.7-5.5
			c-0.6-0.3-0.5-1.7-1.1-2.3c-2.3-2.5-4.4-5.5-7.3-7.2c-1.9-1.2-4.9-0.7-4.8-4.1c0-0.6-1.9-1.3-3-1.8c-1.4-0.6-3.1-0.6-4.2-1.5
			c-3.6-3.1-4.6-9-11.3-8.8c-0.3,0-0.9-0.8-0.9-1.2c0.3-3.3-2.3-3.5-4.8-4.1c-1.1-0.3-2.3-1.2-3-2.1c-3-3.7-5.5-8.1-11.3-7.6
			c-0.8-1.8-1.1-4.2-2.1-4.5c-4.2-1.2-2.7-3.7-2.2-6l-0.1,0.1c2.5,0,4.9,0,7.4,0c-0.3,0.6-0.6,1.2-1,1.8c6.8,5,13.6,10,20.4,15.1
			c1.6,0.6,2.7,2.1,4.1,3.3c1.8,1.5,3.9,2.8,5.8,4.2c1.6,1.3,5.7,1.9,5.7,2.5c0.2,6.5,8.6,3.3,10.7,8.3c1.2,2.9,8.4,3.8,9.5,6.6
			c1.7,4.5,4.9,4.3,7.9,5.6c1.5,1.9,3.4,3.2,5.4,4.4c0.7,0.5,1.7,0.8,2.1,1.4c2.4,3.9,9.1,3,10.5,8c0.1,0.4,1.9,0.2,2.7,0.6
			c1,0.4,2,0.9,2.7,1.6c3.2,3.5,4.3,9.1,11,8.9c0.4,0,1.2,0.5,1.2,0.9c0.5,6,8.5,3.7,10.6,8.4c0.9,1.9,4.1,2.9,7.6,5.2
			c2.8-0.7,4.2,2.1,6.3,5.4c1.4,2.2,5.7,3,8.6,4.4c-0.2,0.5-0.4,1-0.6,1.5c1.7-0.1,3.4-0.2,3.6-0.2c2.3-2.3,3.6-3.8,5.2-4.9
			c2-1.4,4.3-2.6,6.9-4.1c2.1-2,4-4.2,6.3-5.9c2.8-2,5.9-3.7,8.9-5.4c0.8-0.4,2.4-0.7,2.4-1c0-5.1,4.6-4.3,7.2-4.8
			c1.2-2,1.7-3.8,2.9-4.8c3.2-2.4,8.5-3.9,9.6-6.8c2-5.4,8.8-3.6,11-8.2c0.9-1.9,4-2.9,6.1-4.3c3.5-2.6,7.4-4.7,9.9-7.8
			c4.1-5.1,9.3-8,14.6-9.2c1.9-2.2,3.3-3.5,4.5-5.1c0.7-0.9,1.7-2.6,1.3-3.1c-2-2.6-4.3-5-6.8-7.2c-3.3-2.9-7-5.6-10.5-8.4
			c-1.5-1.2-5.5-1.7-5.6-2.4c-0.3-5.3-4.9-4-7.6-5.4c-3-3.1-6.3-6-9.8-8.4c-1.5-1-13.3,4.7-14.4,6.2c-1,1.4-2.5,2.4-4,3.5
			c-1.1,0.8-3.3,1.1-3.6,2c-2.5,6.6-9.8,8.4-14.6,12.6c-1.9,1.7-4.2,2.9-5.5,3.7c-4.7,3.4-8.5,6.1-12.2,8.9c-1.4,1.1-3,3.5-3.8,3.3
			c-1.7-0.5-3-2.4-4.4-3.7c-3.8-2.2-8.1-4.3-10.5-7.6c-4-5.3-9.9-6.9-16-9.9c0.8-4.9-4.3-3.8-6.8-4.5c-1.6-2-2.5-3.7-3.9-4.9
			c-1.8-1.6-4-2.9-6-4.3c-1.5-1.3-3.9-1.3-5.4-2.4c-4.1-2.9-5.7-8.8-12.3-9c-0.7-4.3-4-5.3-8-5.7c-0.4,0-0.6-1.6-1.1-2.3
			c-0.7-0.9-1.5-2-2.5-2.3c-2.5-0.6-4.3-1.4-6.3-3.5c-2-2-5.8-2.4-7.4-6c-1-2.2-4.1-3.7-6.3-5.4c-2-1.5-4.2-2.9-7-4.9
			c-2.3-1.4-5-4-8.3-5c-3.6-1-5.7-2.9-5.2-5.9c0.9-5.6-5-14.1,6.9-15.5c0.3,0,0.8-0.5,0.8-0.7c-0.3-5.4,4.5-4.1,7.8-4.8
			c1.2-8.2,10-9.5,14.9-14.4c1.8-1.7,4.2-2.9,6.3-4.3c3.5-2.6,7.9-4.3,10.5-7.4c3.9-4.7,8-8.4,14.4-9.5c0.5-0.1,0.7-1.5,1.1-2.3
			c0.5-0.8,1.3-2.4,1.7-2.3c5.8,1.1,6.7-4.4,9.6-6.7c5.5-4.2,10.9-8.6,14.5-9.3c4.2-4,7.4-7.3,10.9-10.2c3.2-2.7,7.1-4.6,10-7.5
			c3.4-3.4,13.3-3.4,16.5,0.1c2.9,3.2,6.6,5.9,9.9,8.8c0.5-0.4,1-0.8,1.5-1.1c0.3,1.5,0.7,3,1,4.6c2.4,0.3,4.5,0.6,6.5,0.9
			c1.2,2.4,3.2,3.8,5.2,5.2c0.8,0.6,1.7,1.2,2.4,1.9c2.5,2.4,4.9,4.9,7.5,7.1c1.9,1.6,4.2,2.9,6.3,4.3c2.8,1.5,7.1,1,6.7,4.7
			c3.3,2.4,5.6,4.1,7.9,5.8c3.3,2.5,6.7,5,10,7.5c0.4-0.3,0.8-0.6,1.2-0.9c0.3,1.5,0.7,3,1,4.5c2.4,0.4,4.4,0.7,6.5,1
			c-0.3,0.3-0.5,0.7-0.8,1c6.8,5.1,13.6,10.2,20.4,15.3c1.7,1.2,3.3,2.5,4.9,3.7c1,0.8,2,1.7,3,2.5c1.1,0.9,2.1,1.9,3.3,2.7
			c1.5,1,3.3,1.6,4.6,2.7c2.4,2.1,4.2,4.7,6.7,6.7c2.2,1.7,4.9,2.8,7.4,4.2c-0.2,0.4-0.5,0.8-0.7,1.3c2.7,0.9,6.6-0.7,7.3,4.2
			c0.3,2,3.7,3.8,6,5.3c2.3,1.6,4.9,2.8,7.4,4.2c-0.2,0.4-0.5,0.9-0.7,1.3c3.3,0.8,8.1-0.4,7.4,3.8c7.2,5.6,13.6,10.6,19.9,15.6
			c3.1,1.2,7.2,1.3,7.8,6c2.6,1.2,4.6,3.1,6.7,4.9c2.1,1.8,4.1,3.7,6.4,5.3c2.3,1.6,4.9,2.8,8.1,4.6c1.7,1.6,3.6,3.5,5.6,5.2
			c0.8,0.6,1.9,0.9,2.8,1.4c1.1,0.6,2.8,0.9,3.3,1.8c2.8,5,7.4,7.4,12.3,8.5c1.5,1.9,2.4,3.4,3.8,4.6c1.8,1.6,3.9,2.8,5.8,4.2
			c1.9,1.6,4.7,2.3,6.1,4c3.1,3.9,5.9,7.7,12.2,7.4c-1.1,6.2,4.2,4.7,6.8,5.5c4.7,8.3,11.7,12.9,19.5,15.2c3.9,3.8,7.1,7,10.4,10.1
			c1.9,1.8,3.8,3.6,5.9,5.2c1.8,1.5,3.9,2.7,5.8,4.1c4.2,2.7,8.8,4.7,13.4,6.9c0.6,0.3,0.5,1.7,1.1,2.3c2.2,2.4,4.5,5,7,7.1
			c2,1.7,4.6,2.8,6.9,4.2c-0.2,0.5-0.4,1-0.7,1.4c3.7-0.6,9.2,2.8,10.3-4.1c0.1-0.6,2.3-0.8,3.5-1.3c1.3-0.5,3.3-0.9,3.8-1.9
			c4.3-7.7,11.8-11.2,19.1-13.8c1.6-1.8,2.6-3.3,4-4.5c1.8-1.5,3.8-2.8,5.7-4.1c2.6-1.9,4.6-3.9,6.8-5.8c2.4-2.1,4.8-4.4,7.6-6
			c3.6-2.1,7.6-3.5,11.4-5.3c0.3-0.1,0.7-0.5,0.7-0.8c-0.1-5.1,4.5-3.8,6.7-5.6c2.5-1.8,5-3.6,8.4-6.1c0,0,0.3-1.4,0.6-2.7
			c0.4,0.3,0.8,0.7,1.1,1c2.2-1.7,4.5-3.4,6.7-5.2c2.2-1.8,4.2-3.8,6.5-5.5c2.2-1.5,4.7-2.7,7-4c-0.2-0.5-0.5-0.9-0.7-1.4
			c2.1-0.3,4.2-0.6,6.3-0.9c-0.2-0.5-0.5-1-0.7-1.4c2.2-1.3,4.4-2.4,6.5-3.8c3.3-2.1,6.6-4.2,9.6-6.6c3-2.4,5-6.2,8.4-7.7
			c4.2-1.9,6.7-5.5,11.2-7.4C1530.7,533.9,1533.3,532.4,1536.8,532.5z M1263.4,638.3c7.9,4.4,15.8,8.1,19.5,16.5
			c3,0.6,7-0.3,7.1,4.5c0,0.5,2.1,1,3.2,1.6c1.5,0.8,3.1,1.6,4.3,2.7c3.4,2.8,6.7,5.7,10,8.5c0.1-0.1,0.3-0.2,0.4-0.2
			c6.6,5.2,13.2,10.4,19.7,15.5c2,1.2,3.9,2.4,5.6,3.8c2.7,2.2,6.2,4,7.7,6.8c2.4,4.4,7.4,5.1,10.7,7.9c1.4,1.2,2.9,2.2,4.2,3.4
			c2.5,2.3,4.9,4.9,7.5,7.1c1.9,1.6,4.2,3,6.3,4.4c0,0.1-0.1,0.2-0.1,0.2c3,1.7,6.1,3.4,9.8,5.6c0-2.4,0-4.4,0-6.3
			c-0.3-16.9,0.1-33.8-3.2-50.6c-1.6-8.2,1.9-17.2-5.3-24.1c-2.4-1.1-4.7-2.6-6.7-4.3c-2.2-1.8-3.9-4.2-6.2-5.9
			c-2.2-1.7-4.9-2.8-7.4-4.2c0.2-0.4,0.5-0.8,0.7-1.3c-3-0.6-7,0.4-7.1-4.4c0-0.5-2.1-1-3.2-1.6c-1.5-0.8-3.1-1.6-4.4-2.6
			c-3.4-2.8-6.8-5.7-10.1-8.5c-2.4-1.3-4.3-2.6-6.2-4c-0.8-0.6-1.6-1.3-2.4-1.9c-1.3-1.1-2.6-2.2-4-3.2c-1.2-0.9-2.7-1.7-3.9-2.7
			c-2.7-2.2-5.2-4.6-7.9-6.8c-1.8-1.5-3.9-2.7-5.8-4.1c0.3-0.4,0.6-0.8,0.9-1.2c-3.3-0.5-7.5,0.4-7.7-4.5c0-0.5-2.2-1-3.3-1.5
			c-1.3-0.6-3.1-1-3.8-2c-2.8-4.3-5.8-8.2-11.6-8.8c-1.5-1.9-3.5-3.1-5.5-4.4c-1-0.6-2.7-1-3-1.9c-2.4-6.6-9.7-8.3-14.4-12.7
			c-1.8-1.7-4.2-2.8-6.4-4.2c-3.7-2.8-8.1-5-9.9-8.4c-2.7-5-8.9-4.2-11.9-8c-1.2-1.4-3-2.5-4.5-3.7c-0.8-0.6-1.5-1.5-2.4-1.8
			c-2.6-0.7-4.4-1.2-5.9-4c-2.7-5.2-9.4-7.1-13.8-11c-1.8-1.6-4-2.7-6-4c-5.5-1.9-8.8-6.1-11.9-10.5c-0.5-0.7-1.2-1.2-2-1.6
			c-3.7-1.8-7.6-3.4-11.3-5.2c-0.7-0.3-0.7-1.6-1.3-2.2c-2.3-2.6-4.6-5.3-7.2-7.5c-1.8-1.6-4.2-2.6-6.4-3.9c-3-2.4-6.3-4.2-9.4-6.2
			c-1.8-1.1-3.4-2.6-5.1-3.9c-3.4-2.8-6.8-5.7-10.2-8.5c-3.8-2.6-6.9-6.7-10.9-7.7c-6.5-1.6-7.3-6.8-11.3-10.8
			c-2.9-0.4-7.5,0.2-6.8-4.5c-8.8-3.7-16.5-7.5-20.8-16c-1.7-0.3-4-0.6-6.2-1c0.3-0.5,0.6-0.9,0.8-1.4c-1.8-1.2-3.7-2.4-5.5-3.6
			c-2.6-1.8-6.7-3.3-7.5-5.7c-1.6-4.6-4.2-3.6-8.3-3c0,16.3,0,32.3,0,48.3c0,2-0.4,3.9-0.6,5.9c-0.4,3.5-2.3,7.7-0.8,10.4
			c1.5,2.7,6.1,4.2,9.6,5.6c2.3,0.9,3.7,1.4,5.2,3.8c2.2,3.5,6.6,5.8,10.1,8.7c1.5,0.7,2,2.7,3.3,3.4c3.6,2,7.5,3.5,11.3,5.2
			c0.6,0.3,1.4,1,1.4,1.4c-0.1,3.4,2.6,3.3,4.9,4c1.2,0.4,2.2,1.5,3.2,2.5c2.3,2.4,3.9,5.6,6.7,7.3c3.7,2.4,8.2,3.6,12.3,5.5
			c0.6,0.3,0.5,1.8,1.2,2.3c3.6,2.9,4.2,9.2,9.1,8.3c7.8,6,14.5,11.1,21.2,16.2c3.7,2.8,7,6.1,10.7,9c3.6,2.9,7.5,5.5,11.3,8.2
			c-0.3,0.4-0.7,0.8-1,1.2c3.2,0.6,6.8-0.2,7.7,4.6c0.4,2.3,3.9,4.6,6.4,6.1c3.7,2.2,7.8,3.6,11.7,5.4c0.5,0.3,0.6,1.2,1,1.8
			c2.9,3.9,4.6,9,8.5,8.8c5.9,3.9,10.2,6.4,14,9.3c3.8,2.9,7.3,6.2,10.9,9.3c-0.3,0.3-0.6,0.7-0.9,1c2.1,0.3,4.2,0.6,4.7,0.7
			c4.3,4.1,7.6,7.3,11.1,10.4c1.7,1.5,3.7,2.8,5.5,4.2c1.9,1.4,3.9,2.7,5.9,4.1c0.2,0,0.3-0.1,0.5-0.1
			C1255.7,631.3,1259.6,634.8,1263.4,638.3z M1185.1,593.6c-1.9-2.1-2.9-3.7-4.3-4.7c-3.8-2.6-8.6-4.2-11.4-7.4
			c-3.1-3.6-6.5-6.1-10.8-8.1c-1.8-0.8-2.7-3.2-4-4.8c-1.6,1.6-3.2,3.3-4.9,4.8c-3.9,3.5-10.1,3.7-13.3,9c-0.9,1.5-4,4.2-6.5,6
			c-2.1,1.5-4.3,2.9-6.4,4.3c-1.7,1.4-3.9,2.1-6,3.2c-1.6,0.8-3.1,1.9-4.5,3c-1.3,1-2.4,2.2-3.6,3.3c-3.4,3-6.8,6-11.4,10.1
			c0.6,3.8-5,2-7.1,2.8c-1.5,2.2-2.2,3.8-3.4,4.9c-1.5,1.4-3.5,2.3-5.1,3.5c-2.5,1.9-4.7,4.1-7.2,6c-2,1.5-4.2,2.8-6.4,4.2
			c-3.4,1.6-3.1,1.9-6.6,5.8c-2,2.2-5.4,3.3-7.8,5.2c-3,2.3-7.3,4.7-8,7.6c-2,8.4-3,17.1-3.4,25.8c-0.6,14.6-0.5,29.1-0.6,43.7
			c0,1.5,0.2,3.1,0.5,6.5c3.3-2.2,5.2-4,7.4-4.9c4-1.5,4.1-7.8,10-6.8c0.5,0.1,1.6-0.8,1.6-1.2c0-5.1,4.7-3.5,7.2-4.4
			c0.9-1.8,1.4-3.5,2.6-4.7c1.6-1.5,3.7-2.5,5.5-3.8c2.5-1.9,4.9-3.9,7.4-5.8c1.9-1.4,3.9-2.7,5.8-4.1c1.7-1.5,5.5-2,5.8-3.2
			c1.2-4.6,5.8-5.7,8.8-7.5c3.7-2.2,5.3-7.7,11.2-6.8c0.1,0,0.2-1.1,0.6-1.4c1.3-1.2,2.6-2.4,4.1-3.4c1.1-0.8,3-1,3.6-2
			c2.5-4.4,5.6-7.8,12-8c-0.8-5.6,4-4.9,7.2-6.1c1.5-1.9,3.5-3.2,5.4-4.6c0.7-0.5,1.4-1.1,2.1-1.7c2.7-2.4,5.2-5,8-7.3
			c1.8-1.5,3.9-2.8,5.9-4.1c0,0,0-0.1,0-0.1c2.7-1.8,5.4-3.6,8.1-5.3c2.3-2,4.3-3.9,6.4-5.7c2.1-1.8,4-3.7,6.3-5.2
			c2.3-1.6,5-2.8,7.5-4.2c-0.4-0.7-0.9-1.4-1.3-2.1c7.7,3.2,6.7-4.8,10.9-6.2c0.3-0.1,0.5-2.5-0.1-3
			C1197.4,599.9,1192.1,594.9,1185.1,593.6z M1454,496.9c3.1-1.4,5.6-2,7.4-3.3c3.6-2.6,4.8-8.1,10.9-8c0.3,0,0.9-0.3,0.9-0.5
			c-0.1-5.4,4.9-4.4,9.3-5.7c-1.3-1.6-2-3.1-3.2-3.9c-2.6-1.9-7.6-3.2-7.8-5.2c-0.7-6.1-10.1-3.4-10.2-9.6c0-1.7-2.1-3.9-3.9-4.9
			c-4.6-2.4-9.5-4.3-14.3-6.4c-1.4-2.2-3.4-3.4-5.4-4.7c-1.1-0.8-2.3-1.6-3.2-2.6c-2.2-2.4-3.9-5.5-6.6-7.4
			c-3.3-2.3-7.5-3.5-11.2-5.4c-0.5-0.3-0.6-1.2-1.1-1.8c-2.4-2.7-4.6-5.5-7.3-7.9c-2-1.8-4.5-3-6.7-4.5c-1.5-1.4-3.8-1.8-5.7-2.7
			c-2.4-1.1-4.6-2.7-7.5-4.5c-1.5,10.6-2.9,19.4-3.8,28.2c-0.7,6.6-0.6,13.3-1,19.9c-0.1,1.2-0.9,2.3-1.3,3.4
			c-0.8-0.1-1.5-0.2-2.3-0.2c0-16.5,0-33,0-50.1c-5.3,0.8-9.3-1.2-12.3,3.7c-2.1,3.3-6.7,5.3-10.2,7.9c0,0.1,0,0.3,0.1,0.4
			c-2.6,1.6-5.3,3.2-9.1,5.5c0,0.1-0.4,1.9-1.6,3c-1.6,1.6-3.9,3.9-5.9,3.9c-4.7,0-4.1,4.4-6.9,5.8c-2.3,1.2-4.3,2.7-6.4,4.1
			c0.2,0.4,0.5,0.7,0.7,1.1c-2.1,0.3-4.2,0.6-6.2,0.9c-1.8,3.5-4.3,6.3-7.1,8.6c-2.2,1.8-5,3-7.5,4.4c0.4,0.6,0.7,1.1,1.1,1.7
			c-5.2-1.2-7.5,0.9-7.9,4.8c-2.5,0.6-5.1,0.5-6.4,1.7c-2.8,2.5-5,5.5-7.2,8.5c-0.7,1-1.3,3.3-0.7,3.9c3.1,2.9,6.5,5.5,9.9,8.2
			c1.7,0.6,2,2.7,3.3,3.5c3.6,2.1,7.6,3.5,11.3,5.3c0.6,0.3,1.1,0.9,1.6,1.4c2.4,2.7,4.5,5.6,7.1,8.1c1.2,1.1,4.5,1.1,4.8,2.2
			c2,7.4,3.8,4.3,5.8,0.1c0.3-0.5,1.3-0.7,1.9-1.1c2-1.4,3.9-2.9,5.8-4.3c-0.2-0.3-0.4-0.6-0.7-1c2.1-0.3,4.2-0.6,6.1-0.8
			c0.8-1.7,1.8-4.6,2.3-4.6c4.6,0.5,6.7-2.7,9-5c2.5-2.6,4.3-5.6,8.6-5.6c0.2,0,0.7-0.5,0.7-0.8c-0.1-5,4.4-4,7.1-5
			c3-3.2,6-6.4,9.7-8.6c1.3-0.8,4.4,0.3,6.4,1.1c1.8,0.7,3.3,2.2,4.9,3.4c1.1,0.8,2.2,1.6,3.2,2.6c2.4,2.5,4.5,5.2,7.2,7.4
			c2,1.7,4.6,2.8,6.9,4.1c8.1,3.6,14,9.4,19.7,15.5c2,1.6,3.5,3.7,5.5,5.2c0.9,0.7,3.2,0.9,4,0.4c2.4-1.7,4.3-3.8,6.4-5.8
			c0.7,0.7,1.4,1.4,2.1,2c-1.5-5.9,2.7-5.8,6.2-6.3C1453.6,499,1453.9,497.6,1454,496.9z M1013.3,489.7c0.3,0,0.5,0.1,0.8,0.1
			c3.3-3.1,6.6-6.2,9.9-9.4c1.7-1.7,3.1-4.3,5.2-4.9c7.2-2.3,10.2-6.5,9.5-13.6c-0.6-5.9-0.2-11.8-0.4-17.8c0-1.2-0.1-3.1-0.8-3.5
			c-4-2.1-3-5.5-3.2-8.6c-0.2-6.5-0.1-12.9-0.3-19.4c-0.1-2.5-0.5-5.1-0.8-8.7c-3.6,5.1-5.9,9.5-12,10.1c-0.8,0.1-1.5,1.6-2.2,2.5
			c-0.6,0.8-1.3,2.3-1.8,2.3c-6-1-6.9,4.6-9.7,7c-4.8,4.2-9.3,7.8-14.2,8.8c-4.3,4.1-7.5,7.4-11,10.4c-3.1,2.5-7.3,4.1-9.6,7.1
			c-2.8,3.5-9.5,2.3-10.1,7.9c0,0.2-1.8,0.1-2.8,0.4c-0.9,0.2-2.1,0.5-2.5,1.1c-3,4.5-5.4,9-12,10.4c-2.1,0.5-3.2,4.8-4.1,6.3
			c4.7,3.9,8.2,6.9,11.8,9.7c3.2,2.6,6.4,5.1,9.8,7.5c2.1,1.5,4.3,2.7,6.5,4c3.8,2.9,8.4,5.3,10.1,8.9c1.9,4.1,4.4,2.9,7,3.1
			c0.7-1.8,1.3-4.5,1.9-4.5c4.4-0.1,6-2.9,8.4-5.6c2.3-2.6,4-7.4,9.6-6.1c0.1,0,0.3-0.2,0.5-0.3
			C1008.9,493.1,1011.1,491.4,1013.3,489.7z M1265,827.3c-6.4,1.6-12.3,3.1-18.3,4.5c-9.4,2.2-9.8,3.1-4.4,10.4
			c0.2,0.3,0.4,0.6,0.4,1c-0.3,8.2,3.2,16.8-3.2,24.3c-2.3,2.7-2.4,4.9,1.8,6.5c8.7,3.4,17,1.8,25-1.6c1.2-0.5,2.4-3.7,1.8-4.6
			c-5-7.4-2-15.3-1.7-23c0.1-1.3,2.8-2.9,4.6-3.4c0.8-0.2,3.4,1.9,3.5,3c0.6,5.5,0.9,11.1,0.6,16.6c-0.1,2.4-2.5,4.6-3.1,7
			c-0.4,1.5-0.1,4.2,0.9,4.8c6.4,3.9,13.8,3.8,20.7,2.2c9-2.1,9-2.6,6.2-10.9c-2.3-6.7-3.1-13.3,0.1-19.8c0.6-1.3,2.6-3,3.8-3
			c1.7,0.1,4.5,1.6,4.6,2.7c0.8,8,3.5,16.1-1.9,23.8c-0.6,0.9-0.1,3.6,0.9,4.3c6.5,4.6,20.3,4.8,26.8,0.4c1.1-0.8,1.8-4.3,1.1-4.8
			c-4-3.1-3-7.1-3-10.9c0-5.4,0-10.8,0.1-16.2c0.2-7.5-6.4-12.4-13.8-12.6c-7.9-0.3-13.5,3.6-19.2,7.6c-11.2-13.7-21.9-7.1-32.8,0.8
			C1266.1,833.4,1265.7,831,1265,827.3z M1062.4,876.4c6.7-1.1,13-1.8,19.1-3.2c1.6-0.3,3.3-2.2,3.9-3.7c0.3-0.6-2.1-3.1-3.4-3.2
			c-4.1-0.3-5.1-2.8-5.3-5.8c-0.3-3.4-0.5-6.8-0.2-10.2c0.3-4.2,2.9-5.3,6.5-2.7c1.6,1.2,2.4,3.2,3.7,4.8c1.2,1.6,2.6,3.1,3.9,4.7
			c1.6-1.3,4-2.3,4.7-3.9c3.2-6.5,4.1-13.2,0.7-20.1c-2.3-4.8-4.4-5.2-8-1.2c-0.8,0.9-0.7,2.6-1.6,3.1c-1.9,1.2-4,2.2-6.2,2.5
			c-1.1,0.1-3.6-1.5-3.6-2.4c0-4.6,0.4-9.3,1.2-13.9c0.1-0.8,2.7-1.7,4.2-1.8c8-0.4,15.7,0,21.3,6.8c1,1.2,5,0.4,7.7,0.5
			c0.1-3.8,1.2-8,0-11.4c-1.1-3-3.4-6.1-8.9-5.8c-13.9,0.7-27.9,0.5-41.8,0.6c-3.5,0-7-0.6-10.4-0.2c-1.7,0.2-4,1.9-4.4,3.4
			c-0.4,1.3,1,4.2,2.3,4.6c4,1.2,4.2,3.9,4.2,6.8c0,11.3,0.1,22.7-0.4,34c-0.1,2.4-3,4.8-4.7,7.1c-1,1.3-3.3,2.8-3,3.7
			c0.5,1.5,2.3,3.4,3.9,3.8C1052.5,874.8,1057.5,875.5,1062.4,876.4z M1398.1,849.7c-0.3-3.6-0.2-7.2-0.9-10.7
			c-0.4-1.9-1.5-4.2-3.1-5.4c-11.4-8.9-32.2-6.7-42,3.6c-1.2,1.3-1.9,4-1.3,5.5c0.6,1.3,3.2,2.5,5.1,2.7c5.1,0.5,7.7-3.2,10.1-6.5
			c2.2-2.9,5.5-4.4,7.5-2.1c2,2.2,2,6.2,1.9,9.4c0,0.9-3.2,2.1-5.1,2.4c-3.8,0.7-8,0.2-11.4,1.6c-3.7,1.5-7.5,4.2-9.7,7.3
			c-3,4.3-2.3,9.7,1.3,13.5c4.5,4.8,12.5,5.6,18.4,3.4c4.4-1.6,8.7-4.6,14-1.1c4.9,3.2,15.1,1.5,18.2-2.9c1.3-1.9,2-6.4,1.3-6.8
			C1395.8,860.2,1398.6,854.5,1398.1,849.7z M1200.8,836.9c-0.6-2.6-0.6-4.2-1.4-5.4c-0.8-1.3-2.5-3.2-3.5-3.1
			c-7.4,1.4-15,2.6-22,5.1c-4.9,1.8-4.4,5.4,0.5,7.8c1,0.5,2.2,1,2.6,1.8c2.6,4.9-0.6,19.6-5.1,23.7c-2.7,2.5-2.6,4.7,1.1,6
			c10.6,3.9,21.3,4.4,32,0.3c1.3-0.5,2.9-2,3.1-3.2c0.1-1.1-1.3-2.8-2.5-3.5c-4.5-2.5-6.9-5.7-6-10.8c0.4-2.1-0.1-4.3,0.1-6.4
			c0.2-1.4,1-2.8,1.5-4.2c1.3,0.6,2.9,0.9,4,1.8c4.7,3.8,11.7,4,15.3,0.3c5.3-5.4,5.3-13,0.2-17.4c-3.3-2.8-11.4-1.8-15.3,1.9
			C1204,832.9,1202.9,834.5,1200.8,836.9z M1152.1,845.8C1152,845.8,1152,845.8,1152.1,845.8c-0.1-4.3-0.3-8.6,0-12.9
			c0.4-4.4-1.9-5.5-5.9-4.6c-6.5,1.4-13,2.9-19.4,4.7c-3.8,1.1-4.2,5.8-1,8.2c1,0.7,2.8,1.5,2.8,2.3c0.1,6.7,0.3,13.5-0.4,20.2
			c-0.3,2.6-2.8,5-4.2,7.5c3,1.3,5.9,3,9,3.7c8.1,2,16,0.8,23.3-2.7c3.1-1.5,3.1-3.2,0.1-5.6c-2.1-1.7-3.8-4.8-4.2-7.4
			C1151.6,854.9,1152.1,850.3,1152.1,845.8z M1134,825.3c3.8-0.6,8-0.5,11.3-2c2.7-1.3,5.5-4.3,6.2-7.1c0.9-3.2-2.7-5-5.9-5.1
			c-4.6-0.1-9.5-0.1-13.7,1.3c-2.9,0.9-6.2,3.7-7.2,6.4C1123,823,1126.4,824.9,1134,825.3z"/>
		<g>
			<path class="st1" d="M901.3,542c-0.6,2.4-2,4.8,2.2,6c1,0.3,1.3,2.7,2.1,4.5c5.9-0.5,8.3,3.9,11.3,7.6c0.7,0.9,1.9,1.8,3,2.1
				c2.4,0.7,5,0.9,4.8,4.1c0,0.4,0.6,1.3,0.9,1.2c6.7-0.3,7.7,5.7,11.3,8.8c1,0.9,2.8,0.9,4.2,1.5c1.1,0.5,3,1.2,3,1.8
				c0,3.4,2.9,2.9,4.8,4.1c2.9,1.8,4.9,4.7,7.3,7.2c0.6,0.6,0.5,2,1.1,2.3c3.9,1.9,8.1,3.3,11.7,5.5c2.7,1.6,4.6,4.3,6.9,6.5
				c1.9,1.8,3.9,3.6,6.2,5.3c6.3,5.1,12.5,10.2,18.8,15.3c0,0.1-0.1,0.2-0.1,0.3c4.1,3,8.1,6,12.2,9c0.4,0.3,1.5,0.1,1.6,0.3
				c3.2,6.9,12.8,8.3,15.6,15.1c2.1,5.2,3.3,10.9,3.6,16.5c0.7,14,0.4,28.1,0.9,42.1c0.1,2.9,2.3,5.6,3.1,8.5
				c0.7,2.7,0.9,5.5,1.3,8.2c-0.6,0.5-1.1,1-1.7,1.5c-2.1-1.2-4.3-2.4-6.4-3.7c-0.6-0.4-1.1-1.1-1.7-1.2c-6.1-0.5-7.5-5.4-10.6-8.9
				c-1.3-1.5-4.1-2-5.8-3.7c-2.5-1.4-5.2-2.5-7.5-4.1c-2.3-1.5-4.2-3.5-6.2-5.3c-2.1-1.8-4.1-3.7-6.5-5.3c-2.3-1.8-4.6-3.7-6.9-5.5
				c-0.3,0.3-0.6,0.5-0.9,0.8c-0.3-1.4-0.6-2.7-0.6-2.6c-3.9-2.7-6.8-4.5-9.5-6.5c-3-2.1-4.3-6.4-9.4-6c-0.5,0-1.2-2.7-1.9-4.3
				c-3.2-0.9-8.7,0.6-7.2-5.4c-6.2-0.7-9.6-3.7-12.2-8.2c-0.9-1.5-4-2-5.7-3.5c-2.3-1.4-5-2.5-6.8-4.4c-2.2-2.2-3.3-5.2-6.9-6.3
				c-1.8-0.5-3.2-1.9-4.8-3c-1.2-0.8-2.3-1.7-3.3-2.7c-0.9-0.8-1.5-1.7-2.4-2.4c-1.9-1.5-3.8-2.8-6-4.2c-3.3-2.5-6.6-5.1-9.9-7.6
				c-2.3-1.7-4.6-3.3-7.8-5.7c0.5-3.6-3.4-3.6-7.1-3.6c-3.1-4.4-4.6-9.9-11.3-10.7c-0.8-0.1-1.4-1.3-2-2.1c-0.6-0.8-0.8-2.2-1.6-2.6
				c-3.7-1.9-7.6-3.3-11.2-5.3c-2.1-1.2-3.5-3.3-5.3-5c-3.3-3.2-6.7-6.3-10.9-10.2c-4.7-1.6-9.7-4.4-14.3-8.9
				c-2.5-2.4-3.4-7.7-9.1-7.1c-0.5,0-2-3.1-2-4.7c-0.2-16.4-0.1-32.7-0.1-49.1c0-4.1-0.1-8.3,0-12.4c0.1-6.8-1.5-13.9,4.3-19.9
				c5.2-0.3,8.5-3.6,11.1-8.1c0.5-0.9,1.9-1.3,3-1.9c2-1.2,4.1-2.3,5.6-4.2c2.8-1.8,7.1-0.7,8.1-6c0.4-2,5.6-3.2,8.3-5.1
				c1.6-1.1,2.7-2.8,4.9-5.2c0.5-0.1,2.6-0.4,3.8-0.5c6.5-6.3,12.4-12.3,20.6-15.9c3.1-2.8,6.3-5.7,9.5-8.6c0.2,0.1,0.3,0.2,0.5,0.4
				c3.4-2.7,6.7-5.4,10.1-8c2-1.5,4.2-2.9,6.2-4.8c2.5-1.4,5-2.7,7.4-4.2c1-0.6,1.7-1.6,2.3-2.5c0.5-0.7,0.8-2.2,1.2-2.2
				c6.5-0.1,7.7-5.9,11.6-8.7c1.7-1.2,4.2-1.4,5.8-2.9c2-1.3,4.1-2.6,5.8-4.1c1.4-1.2,2.3-2.8,3.9-3.7c3.4-2.5,9.2-4.7,9.7-7.7
				c1-5.8,11.8-0.4,8.6-8.2c3.9-1,8.9,0.1,8.6-5.4c5.3,0.4,6.9-4.5,10.5-6.5c2.5-1.4,4.5-3.6,6.7-5.5c0.5,0.4,0.9,0.8,1.4,1.2
				c0.5-1.5,0.9-3,1.4-4.4c0.4,0.3,0.8,0.6,1.2,0.8c1.7-1.8,3.3-3.9,5.3-5.4c3.3-2.5,7-4.5,10.4-6.8c3.6-2.5,7-5.3,11.9-9
				c4.6,0.4,6.1-5.3,9.7-8.8c1.4-1.4,4.1-2.3,6.2-2.5c1.6-0.1,3.5,1.1,5,2c1.3,0.8,2.3,2,3.6,2.8c1.8,1.3,3.7,2.5,5.6,3.7
				c-0.3,0.5-0.6,0.9-0.9,1.4c2.2,0.4,4.5,0.8,6.9,1.3c0.3,1.4,0.6,2.8,0.6,3c4.4,2.7,9.8,4.2,11,7.2c1.7,4.1,4,4.5,6.4,4.6
				c7,6.1,12,13,20.4,16.1c2.1,1.5,4.2,2.9,6.3,4.5c2.1,1.6,4.7,3.1,5.8,5.2c1.8,3.5,4.8,5.1,8.2,6.6c1.6,0.7,3.1,1.8,4.4,3
				c2.7,2.5,5.2,5.1,7.9,7.7c0.9,0.9,1.9,1.9,2.9,2.6c2,1.4,4.2,2.7,5.9,4.7c5.9,0.4,8.5,4.5,11.2,8.6c0.6,1,2.5,1.2,3.6,2
				c1.4,1,2.6,2.4,4.1,3.3c2,1.3,4.2,2.3,7.1,3.8c3.7,6.9,12.2,10,21,16.1c1.5,2.2,3.2,6.7,9.3,8.6c4,1.2,7,5.1,11.8,8.9
				c5.9-0.5,6.6,6.3,10.5,10.6c3.8,0.7,11.8,6.2,14.8,9.3c2.8,2.9,6.3,5.2,9.5,7.7c2.6,1.6,4.9,3,7.2,4.5c2.3,1.6,4.6,3.2,6.6,5
				c2.2,1.9,4.1,4,5.5,5.3c3.4,2.1,5.7,3.2,7.7,4.8c2.4,1.8,4.4,4,6.7,5.9c2.1,1.7,4.3,3.2,7.4,5.6c1.2,0.8,3.1,2.6,5.5,3.6
				c2.9,1.2,1.4,5.4,6.2,5.9c2.9,0.3,5.3,4.8,8.1,7.3c0.8,0.8,2.3,0.9,3.3,1.6c1.6,1.1,3.1,2.3,4.4,3.6c2,1.9,3.7,5.2,6,5.6
				c5.3,1,6.5,6.1,11.4,8c3.2,1.2,9,2.3,11,7.6c1.2,3.3,6.1,5.5,8.5,7.5c3.3,2.1,5.5,3.4,7.6,4.8c2.4,1.7,6.4,3.2,6.7,5.3
				c0.9,4.8,4.7,3.8,7,5.6c1.9,1.4,4.4,2.5,5.7,4.3c3.5,4.7,6.2,6,9.7,0c1.1-1.9,4.2-2.7,6.3-4c6.9-5.2,13.6-10.2,20.2-15.2
				c-0.4-0.4-0.7-0.8-1.1-1.2c3.5-0.6,7.9,0.2,7.9-4.9c0-0.3,0.9-0.5,1.4-0.8c3.3-2.2,6.6-4.3,9.9-6.5c2.2-1.5,4.2-3.1,7.6-5.6
				c0-2.7,3-4.1,5.4-3.7c3.5-2.4,5.6-3.8,7.7-5.4c2-1.6,3.8-3.3,5.7-5c3.3-2.8,6.7-5.6,11-9.2c5.3,1,6.1-5.2,9.7-8
				c1.2-0.9,2.1-2.1,3.4-2.9c4.3-2.9,10.3-3.5,13-8.8c1.4-2.8,4.4-4.8,6.4-7.4c0.7-0.8,1-2.9,0.5-3.4c-2.5-2.2-5.5-4-8.2-6.1
				c-2.6-2-5-4.2-7.5-6.4c-2.1-1.8-4.2-3.7-6.6-5.5c-1.9-1.4-4-2.7-5.8-4.2c-4.8-4.3-12-6.1-14.8-12.5c-0.4-0.9-1.8-1.7-2.9-2
				c-2.4-0.6-5.2-0.4-5-3.9c0-0.4-0.4-1.1-0.8-1.3c-3.9-1.8-8.2-3.1-11.7-5.4c-2.9-1.9-5-4.8-7.3-7.4c-0.3-0.4-0.3-1.4-0.5-1.5
				c-4.8-0.6-7.5-4.1-10.5-6.9c-3.6-3.5-9.4-3.5-12.4-8.5c-1.5-2.4-3.5-8-9.6-7c-0.6,0.1-1.8-2.6-2.7-4.1c-4.2-1.8-8.6-5.1-13.1-5.2
				c-4.4-0.1-8.8,3.1-11.6,4.2c-4.4,3.9-7.6,6.7-10.8,9.5c-0.1-0.1-0.2-0.2-0.3-0.3c-6.6,4.9-13.2,9.9-19.9,14.8
				c0.4,0.4,0.7,0.8,1.1,1.3c-3.4,0.7-8-0.2-7.9,4.9c0,0.2-0.6,0.7-0.8,0.7c-5.9-1.2-6.3,5-10.4,6.5c-2.6,0.9-4.6,3.3-7,5.4
				c-2.2,1.3-4.4,2.4-6.5,3.8c-1.1,0.7-2.1,1.6-2.9,2.6c-0.6,0.6-0.7,2.1-1.2,2.2c-5.6,1-7.5,6-11.3,8.9c-2.5,1.9-8.4,0.3-6.4,5.9
				c-3.6,1.1-8.3-0.5-8.1,4.7c0,0.4-0.6,0.9-1.1,1.1c-3,1.6-6,3-9.6,4.8c-0.3-0.8-0.9-2.3-1.6-4.1c-1.9-0.3-4-0.6-6.1-0.9
				c0.3-0.3,0.5-0.6,0.8-1c-2.7-1.8-5.3-3.7-8-5.5c0,0-0.1,0.1-0.1,0.1c-3.7-2.8-7.5-5.5-11.1-8.4c-3.5-2.8-6.7-5.9-10-8.8
				c-0.6-0.6-1.4-1.6-2-1.5c-6.2,0.5-6.4-5.7-10.2-7.8c-0.1-0.1,0.1-0.7,0-0.3c4.3-2.7,8.4-4.7,11.9-7.5c3.3-2.7,5.9-6.1,9.5-9.9
				c7.2-2.2,14-6.3,18.8-13.3c1.2-1.7,4.3-2.3,6.1-4.3c2.1-1.2,4.3-2.4,6.4-3.7c3.1-1.9,6.5-3.5,9.1-5.8c3.6-3.3,5.6-8.1,11.3-9.5
				c1.1-0.3,1.6-2.9,2.5-4.7c5.8,0.3,8.8-3.3,11.3-7.6c0.6-1,2.3-1.4,3.5-2.1c1.8-1.1,3.6-2.3,4.9-4.2c2.8-1.8,7.9-0.5,7.8-6
				c0-0.3,1.8-0.4,2.5-0.8c2.9-1.7,6-3.4,8.7-5.4c2.3-1.7,4.3-3.9,5.4-4.9c3.3-2.3,5.4-3.5,7.2-5c1.4-1.2,2.3-2.8,4.1-3.3
				c6.6-5,13.2-10,19.8-15c-0.4-0.4-0.7-0.9-1.1-1.3c3.1-1.1,7.9,0.3,8.2-4.9c0-0.5,4.4-1.1,6.8-1.1c1.3,0,2.8,1.2,3.9,2.2
				c0.7,0.7,0.8,2.6,1.3,2.7c6.5,0.5,8.6,5.4,11.3,9.6c0.1,0.2,0.2,0.4,0.3,0.4c4.6,2.1,9.2,4.3,13.4,6.9c2.1,1.4,4,3.3,6.4,4.2
				c2.9,1.2,1.7,5.3,6.4,5.9c3.1,0.4,5.4,5,8.3,7.6c0.7,0.7,2,0.7,2.9,1.2c2,1.2,3.9,2.4,5.5,3.4c4.1,3.3,8.6,5.6,10.6,9.1
				c1.5,2.8,3.3,3,5.7,4c3.2,1.3,6,3.6,10.4,6.3c1.7,4.4,5.9,8.1,10.8,10.1c2.2,1.3,4.6,2.4,6.4,4c3.1,2.9,7.9,3.5,10.3,7.7
				c1.6,2.8,5.1,4.7,7.9,7c1.7,1.4,3.5,2.7,5.1,4.4c5.5,2.6,10.8,5,15.3,9.8c2.3,2.4,3.6,7.7,9.3,6.9c0.6-0.1,1.5,1.2,2.1,2
				c0.6,0.8,0.7,2.3,1.5,2.7c3.7,1.9,7.6,3.3,11.2,5.3c2.3,1.3,4.1,3.3,6,5.1c2.9,2.9,5.7,5.9,8.5,8.9c0.2,0.3,0.3,0.8,0.6,0.9
				c3.9,1.8,8.1,3.1,11.6,5.4c3,2,5.1,5.1,7.7,7.7c0.9,0.9,1.9,2.2,3,2.4c2.8,0.5,5.3,0.8,5.2,4.3c0,0.4,1,1.1,1.6,1.2
				c10.2,2.6,13.3,9.5,13.3,18.4c0,23,0.1,46-0.1,69.1c0,4,2,9.5-5.8,10.1c-0.8,0.1-1.3,2.6-1.8,3.9c-8,3.2-15.6,6.5-19.9,14.3
				c-0.8,1.5-4.2,1.9-5.9,3.5c-2.1,1.3-4.3,2.7-6.4,4c-3.2,2-6.6,3.9-9.5,6.2c-3.6,3-5.4,7.7-10.9,9.1c-1.1,0.3-1.6,2.8-3.3,3.4
				c-3.3,2.5-6.5,4.9-9.8,7.4c-3.3,2.5-6.5,4.9-9.4,8c-2.6,1.6-7.7,0.2-7.4,5.5c0,0.3-0.9,0.9-1.2,0.9c-6-1.3-6,5.2-10.1,6.6
				c-2.5,0.8-4.5,3-6.9,4.4c-3.2,2.9-6.4,5.7-9.6,8.6c-0.1-0.1-0.2-0.2-0.3-0.4c-6.6,4.9-13.2,9.9-19.8,14.8
				c0.4,0.4,0.7,0.8,1.1,1.3c-3.4,0.7-8-0.2-7.9,5c0,0.3-1,0.8-1.3,0.8c-5.8-1.3-5.7,5.2-9.9,6.4c-2.6,0.8-4.5,3.3-7.8,5.9
				c0.6,3.4-3.7,3-6.6,4.4c-2.3,1.6-4.8,2.9-6.8,4.8c-2.1,1.9-3.3,4.3-6.5,5.8c-1.7,0.8-3.5,2.8-5.9,3.7c-1.2,0.5-1.6,2.8-2.5,4.5
				c-2.9,0.7-7.3-0.4-7.3,4.6c0,0.3-0.5,0.8-0.7,0.8c-5-0.5-6.9,3.6-9.4,6.1c-2.4,2.4-4.5,4-8,4.6c-1.2,0.2-1.9,3-3.6,5.9
				c-0.7-2.7-1.4-4.3-1.4-5.9c0-9.9-0.2-19.8,0.5-29.7c1.1-15.4,3-30.8,4.6-46.7c1.1-0.2,3.1-0.6,5.2-1c-0.2-0.3-0.4-0.7-0.6-1
				c2.5-1.5,5.2-2.7,7.4-4.5c2.9-2.3,5.3-5.1,7.1-8.6c2.1-0.3,4.1-0.7,6.2-1c-0.2-0.2-0.4-0.5-0.6-0.7c1.9-1.5,3.8-3,5.7-4.5
				c2.5-2,5-4,7.6-6c1.5-1.2,3.3-2.2,4.7-3.5c1.3-1.3,2.2-2.9,3.6-4.6c5.5-0.9,8.8-5.1,12-9.5c0.5-0.6,1.3-1.1,2-1.6
				c1.9-1.3,3.9-2.6,7.2-4.8c2.9-2.3,6.9-5.3,10.9-8.4c-0.4-0.5-0.8-0.9-1.2-1.4c3-1.2,8.1,0.3,7.9-5.1c0-0.3,0.5-0.8,0.7-0.8
				c4.4,0.1,6.1-3.1,8.6-5.6c1.9-1.9,5.3-2.6,7-4.6c4.7-5.5,13.8-7.1,15.7-15.5c5.8-0.3,9.3-3.6,11.9-8.5c0.8-1.4,3.9-1.7,5.4-3.4
				c2.5-1.4,5.7-2.2,7.3-4.2c2.4-2.9,7.6-4.5,5.9-9.5c2.7,0,5.4,0,8.2,0c0-2.3,0-3.8,0-5.4c1.5,0,3.3,0.4,4.4-0.2
				c1.1-0.6,1.6-2.2,2.3-3.4c-2.1-0.7-4.1-1.5-7.1-2.5c0.2,3.1,0.3,4.6,0.4,6.2c-2.6,0-5.3,0-8.2,0c0,2.2,0,3.8,0,5.4
				c-3.5-0.1-6.1,1.5-9.1,2.8c-4.4,1.9-7,5.5-11.2,7.4c-3.3,1.5-5.4,5.2-8.4,7.7c-3,2.4-6.3,4.5-9.6,6.6c-2.1,1.4-4.3,2.5-6.5,3.8
				c0.2,0.5,0.5,1,0.7,1.4c-2.1,0.3-4.2,0.6-6.3,0.9c0.2,0.5,0.5,0.9,0.7,1.4c-2.4,1.3-4.8,2.5-7,4c-2.3,1.6-4.3,3.7-6.5,5.5
				c-2.2,1.8-4.5,3.4-6.7,5.2c-0.4-0.3-0.8-0.7-1.1-1c-0.3,1.4-0.6,2.7-0.6,2.7c-3.4,2.5-5.9,4.3-8.4,6.1c-2.2,1.9-6.8,0.6-6.7,5.6
				c0,0.3-0.4,0.7-0.7,0.8c-3.8,1.8-7.8,3.2-11.4,5.3c-2.8,1.6-5.2,3.9-7.6,6c-2.2,1.9-4.2,3.9-6.8,5.8c-1.9,1.4-4,2.6-5.7,4.1
				c-1.4,1.2-2.4,2.7-4,4.5c-7.3,2.6-14.8,6.1-19.1,13.8c-0.5,1-2.5,1.3-3.8,1.9c-1.2,0.5-3.4,0.7-3.5,1.3
				c-1.1,6.9-6.6,3.5-10.3,4.1c0.2-0.5,0.4-1,0.7-1.4c-2.3-1.4-4.9-2.5-6.9-4.2c-2.6-2.1-4.8-4.6-7-7.1c-0.6-0.6-0.5-2-1.1-2.3
				c-4.6-2.2-9.2-4.2-13.4-6.9c-1.9-1.4-4-2.6-5.8-4.1c-2.1-1.6-4-3.4-5.9-5.2c-3.3-3.1-6.5-6.3-10.4-10.1
				c-7.8-2.3-14.8-6.9-19.5-15.2c-2.6-0.8-8,0.7-6.8-5.5c-6.3,0.2-9.2-3.6-12.2-7.4c-1.4-1.7-4.2-2.4-6.1-4c-2-1.4-4.1-2.6-5.8-4.2
				c-1.4-1.2-2.3-2.8-3.8-4.6c-4.8-1.1-9.5-3.5-12.3-8.5c-0.5-0.9-2.1-1.2-3.3-1.8c-0.9-0.5-2-0.8-2.8-1.4c-2-1.7-3.9-3.6-5.6-5.2
				c-3.2-1.8-5.8-3-8.1-4.6c-2.3-1.6-4.3-3.4-6.4-5.3c-2.1-1.8-4-3.7-6.7-4.9c-0.6-4.7-4.7-4.8-7.8-6c-6.4-5-12.7-10-19.9-15.6
				c0.7-4.2-4.1-3.1-7.4-3.8c0.2-0.4,0.5-0.9,0.7-1.3c-2.5-1.4-5.1-2.6-7.4-4.2c-2.3-1.6-5.7-3.3-6-5.3c-0.7-4.9-4.6-3.3-7.3-4.2
				c0.2-0.4,0.5-0.8,0.7-1.3c-2.5-1.4-5.2-2.5-7.4-4.2c-2.5-2-4.3-4.6-6.7-6.7c-1.3-1.1-3.1-1.7-4.6-2.7c-1.2-0.8-2.2-1.8-3.3-2.7
				c-1-0.8-2-1.7-3-2.5c-1.6-1.3-3.3-2.5-4.9-3.7c-6.8-5.1-13.6-10.2-20.4-15.3c0.3-0.3,0.5-0.7,0.8-1c-2.1-0.3-4.2-0.6-6.5-1
				c-0.4-1.5-0.7-3-1-4.5c-0.4,0.3-0.8,0.6-1.2,0.9c-3.3-2.5-6.7-5-10-7.5c-2.3-1.7-4.6-3.4-7.9-5.8c0.4-3.7-3.9-3.2-6.7-4.7
				c-2.1-1.4-4.4-2.7-6.3-4.3c-2.6-2.2-5-4.8-7.5-7.1c-0.7-0.7-1.6-1.3-2.4-1.9c-1.9-1.4-3.9-2.8-5.2-5.2c-2.1-0.3-4.2-0.6-6.5-0.9
				c-0.3-1.5-0.7-3.1-1-4.6c-0.5,0.4-1,0.8-1.5,1.1c-3.3-2.9-7-5.6-9.9-8.8c-3.2-3.5-13.1-3.5-16.5-0.1c-2.9,2.9-6.8,4.8-10,7.5
				c-3.5,2.9-6.7,6.3-10.9,10.2c-3.7,0.7-9,5.1-14.5,9.3c-2.9,2.2-3.8,7.8-9.6,6.7c-0.4-0.1-1.2,1.5-1.7,2.3
				c-0.4,0.7-0.6,2.2-1.1,2.3c-6.4,1.2-10.5,4.9-14.4,9.5c-2.6,3.1-7,4.8-10.5,7.4c-2.1,1.4-4.5,2.6-6.3,4.3
				c-4.9,4.8-13.8,6.1-14.9,14.4c-3.3,0.7-8.1-0.5-7.8,4.8c0,0.2-0.5,0.7-0.8,0.7c-11.9,1.4-6.1,9.9-6.9,15.5
				c-0.5,3,1.6,4.8,5.2,5.9c3.3,0.9,6,3.5,8.3,5c2.8,2,5,3.3,7,4.9c2.3,1.7,5.4,3.2,6.3,5.4c1.6,3.6,5.4,4,7.4,6
				c2,2.1,3.7,2.9,6.3,3.5c1,0.2,1.8,1.4,2.5,2.3c0.5,0.7,0.7,2.2,1.1,2.3c4,0.4,7.3,1.4,8,5.7c6.6,0.1,8.1,6,12.3,9
				c1.6,1.1,4,1.2,5.4,2.4c2,1.4,4.2,2.7,6,4.3c1.4,1.2,2.3,2.8,3.9,4.9c2.6,0.6,7.6-0.5,6.8,4.5c6.1,3.1,12.1,4.6,16,9.9
				c2.4,3.3,6.7,5.4,10.5,7.6c1.4,1.3,2.7,3.2,4.4,3.7c0.8,0.2,2.4-2.2,3.8-3.3c3.7-2.8,7.5-5.5,12.2-8.9c1.3-0.8,3.6-2.1,5.5-3.7
				c4.8-4.3,12.1-6,14.6-12.6c0.4-0.9,2.5-1.2,3.6-2c1.4-1,3-2.1,4-3.5c1.1-1.5,12.9-7.2,14.4-6.2c3.6,2.5,6.8,5.3,9.8,8.4
				c2.7,1.4,7.4,0.1,7.6,5.4c0,0.7,4,1.2,5.6,2.4c3.5,2.8,7.1,5.5,10.5,8.4c2.5,2.2,4.8,4.7,6.8,7.2c0.4,0.5-0.6,2.2-1.3,3.1
				c-1.1,1.6-2.5,2.9-4.5,5.1c-5.3,1.2-10.5,4.1-14.6,9.2c-2.5,3.1-6.3,5.2-9.9,7.8c-2.1,1.4-5.2,2.4-6.1,4.3c-2.2,4.6-9,2.8-11,8.2
				c-1.1,2.9-6.5,4.4-9.6,6.8c-1.3,1-1.8,2.8-2.9,4.8c-2.6,0.5-7.2-0.4-7.2,4.8c0,0.3-1.7,0.5-2.4,1c-3,1.8-6.1,3.4-8.9,5.4
				c-2.3,1.7-4.2,3.9-6.3,5.9c-2.6,1.5-4.9,2.6-6.9,4.1c-1.6,1.1-2.8,2.7-5.2,4.9c-0.2,0-1.9,0.1-3.6,0.2c0.2-0.5,0.4-1,0.6-1.5
				c-3-1.4-7.2-2.1-8.6-4.4c-2.1-3.3-3.6-6.1-6.3-5.4c-3.5-2.3-6.7-3.3-7.6-5.2c-2.1-4.6-10.1-2.4-10.6-8.4c0-0.3-0.8-0.9-1.2-0.9
				c-6.7,0.2-7.8-5.5-11-8.9c-0.7-0.7-1.7-1.2-2.7-1.6c-0.9-0.3-2.6-0.2-2.7-0.6c-1.5-5-8.1-4.1-10.5-8c-0.4-0.6-1.4-1-2.1-1.4
				c-2-1.2-3.9-2.5-5.4-4.4c-3-1.3-6.2-1.1-7.9-5.6c-1.1-2.9-8.3-3.7-9.5-6.6c-2.1-5-10.5-1.9-10.7-8.3c0-0.6-4.1-1.2-5.7-2.5
				c-1.9-1.4-4-2.7-5.8-4.2c-1.4-1.2-2.4-2.7-4.1-3.3c-6.8-5-13.6-10-20.4-15.1c0.3-0.6,0.6-1.2,1-1.8c-2.5,0-4.9,0-7.4,0
				c0-1.7,0-3.4,0-4.9c-8.6-1.2-9.1-0.8-7.2,4.8C896.3,542,898.8,542,901.3,542z M873.2,521.7c-0.2-1.5-0.5-3.1-1-6.2
				c-2.4,1.4-4,2.4-5.7,3.4c1.7,0.9,3.4,1.8,5.2,2.6c0.5,0.2,1.1,0,1.7,0.1c0,1.7,0,3.4,0,6.8c3.4-1.6,7.1-2.4,7.2-3.5
				c0.5-4.5-3.8-2.5-6.2-3.1C874,521.6,873.6,521.7,873.2,521.7z M1567.5,513.1c1.8-1.7,2.9-2.8,4-3.9c-1.3-0.9-2.7-2.4-4-2.4
				c-1.2,0-2.5,1.7-3.7,2.6C1564.8,510.5,1565.8,511.4,1567.5,513.1z"/>
		</g>
		<path class="st1" d="M1263.4,638.3c-3.8-3.5-7.7-7.1-11.5-10.6c-0.2,0-0.3,0.1-0.5,0.1c-2-1.3-4-2.7-5.9-4.1
			c-1.9-1.4-3.8-2.7-5.5-4.2c-3.5-3.1-6.8-6.3-11.1-10.4c-0.6-0.1-2.6-0.4-4.7-0.7c0.3-0.3,0.6-0.7,0.9-1c-3.6-3.1-7.1-6.4-10.9-9.3
			c-3.9-2.9-8.1-5.4-14-9.3c-3.9,0.2-5.7-4.9-8.5-8.8c-0.4-0.6-0.5-1.5-1-1.8c-3.9-1.9-8.1-3.3-11.7-5.4c-2.6-1.5-6-3.8-6.4-6.1
			c-0.9-4.8-4.5-4-7.7-4.6c0.3-0.4,0.7-0.8,1-1.2c-3.8-2.7-7.7-5.3-11.3-8.2c-3.7-3-7-6.3-10.7-9c-6.7-5.1-13.3-10.2-21.2-16.2
			c-4.9,0.8-5.5-5.5-9.1-8.3c-0.6-0.5-0.5-2-1.2-2.3c-4.1-1.9-8.6-3.2-12.3-5.5c-2.7-1.7-4.4-4.9-6.7-7.3c-0.9-1-1.9-2.2-3.2-2.5
			c-2.4-0.7-5.1-0.6-4.9-4c0-0.5-0.8-1.2-1.4-1.4c-3.8-1.7-7.7-3.2-11.3-5.2c-1.3-0.7-1.8-2.8-3.3-3.4c-3.5-2.8-7.9-5.2-10.1-8.7
			c-1.5-2.4-3-2.9-5.2-3.8c-3.5-1.4-8.1-2.9-9.6-5.6c-1.5-2.7,0.4-6.9,0.8-10.4c0.2-2,0.6-3.9,0.6-5.9c0-16,0-32,0-48.3
			c4.1-0.5,6.7-1.5,8.3,3c0.8,2.4,4.9,3.9,7.5,5.7c1.8,1.3,3.7,2.4,5.5,3.6c-0.3,0.5-0.6,0.9-0.8,1.4c2.2,0.4,4.5,0.7,6.2,1
			c4.3,8.5,12,12.2,20.8,16c-0.7,4.7,4,4.2,6.8,4.5c4,4,4.8,9.2,11.3,10.8c4,1,7.1,5.1,10.9,7.7c3.4,2.8,6.8,5.7,10.2,8.5
			c1.6,1.3,3.3,2.8,5.1,3.9c3.1,2,6.4,3.8,9.4,6.2c2.1,1.3,4.6,2.3,6.4,3.9c2.6,2.3,4.9,5,7.2,7.5c0.6,0.6,0.6,1.9,1.3,2.2
			c3.7,1.8,7.5,3.5,11.3,5.2c0.8,0.4,1.5,0.9,2,1.6c3.1,4.4,6.4,8.6,11.9,10.5c2,1.3,4.2,2.5,6,4c4.5,3.9,11.1,5.8,13.8,11
			c1.5,2.9,3.3,3.4,5.9,4c0.9,0.2,1.6,1.2,2.4,1.8c1.5,1.2,3.3,2.2,4.5,3.7c3,3.8,9.3,3,11.9,8c1.8,3.4,6.2,5.6,9.9,8.4
			c2.1,1.4,4.6,2.5,6.4,4.2c4.7,4.4,12,6.1,14.4,12.7c0.3,0.8,2,1.2,3,1.9c2,1.2,4,2.4,5.5,4.4c5.9,0.6,8.8,4.5,11.6,8.8
			c0.7,1,2.5,1.4,3.8,2c1.1,0.5,3.3,1,3.3,1.5c0.2,4.9,4.5,4,7.7,4.5c-0.3,0.4-0.6,0.8-0.9,1.2c1.9,1.4,4,2.6,5.8,4.1
			c2.7,2.2,5.2,4.6,7.9,6.8c1.2,1,2.6,1.7,3.9,2.7c1.4,1,2.7,2.2,4,3.2c0.8,0.6,1.5,1.3,2.4,1.9c1.9,1.4,3.9,2.8,6.2,4
			c3.4,2.8,6.7,5.8,10.1,8.5c1.3,1,2.9,1.8,4.4,2.6c1.1,0.6,3.2,1,3.2,1.6c0.1,4.8,4.1,3.8,7.1,4.4c-0.2,0.4-0.5,0.8-0.7,1.3
			c2.5,1.4,5.2,2.5,7.4,4.2c2.3,1.7,4,4,6.2,5.9c2,1.7,4.3,3.1,6.7,4.3c7.3,6.9,3.7,15.9,5.3,24.1c3.3,16.8,2.9,33.7,3.2,50.6
			c0,1.9,0,3.8,0,6.3c-3.7-2.1-6.8-3.8-9.8-5.6c0-0.1,0.1-0.2,0.1-0.2c-2.1-1.5-4.4-2.8-6.3-4.4c-2.6-2.3-4.9-4.8-7.5-7.1
			c-1.3-1.2-2.9-2.2-4.2-3.4c-3.3-2.9-8.3-3.5-10.7-7.9c-1.5-2.8-5-4.6-7.7-6.8c-1.7-1.4-3.6-2.6-5.6-3.8
			c-6.6-5.2-13.2-10.4-19.7-15.5c-0.1,0.1-0.3,0.2-0.4,0.2c-3.3-2.9-6.6-5.8-10-8.5c-1.3-1.1-2.9-1.8-4.3-2.7
			c-1.1-0.6-3.2-1-3.2-1.6c0-4.8-4.1-3.8-7.1-4.5C1279.2,646.4,1271.3,642.7,1263.4,638.3z"/>
		<path class="st1" d="M1185.1,593.6c7,1.3,12.3,6.3,17.6,11.1c0.6,0.5,0.5,2.9,0.1,3c-4.3,1.3-3.2,9.4-10.9,6.2
			c0.4,0.7,0.9,1.4,1.3,2.1c-2.5,1.4-5.1,2.6-7.5,4.2c-2.3,1.5-4.2,3.4-6.3,5.2c-2.1,1.8-4.1,3.7-6.4,5.7c-2.7,1.8-5.4,3.5-8.1,5.3
			c0,0,0,0.1,0,0.1c-2,1.4-4.1,2.6-5.9,4.1c-2.8,2.3-5.3,4.9-8,7.3c-0.7,0.6-1.4,1.2-2.1,1.7c-1.9,1.4-3.9,2.7-5.4,4.6
			c-3.3,1.2-8,0.5-7.2,6.1c-6.4,0.1-9.4,3.6-12,8c-0.6,1-2.5,1.2-3.6,2c-1.5,1-2.8,2.2-4.1,3.4c-0.4,0.3-0.5,1.4-0.6,1.4
			c-5.9-0.9-7.4,4.6-11.2,6.8c-3.1,1.8-7.6,2.9-8.8,7.5c-0.3,1.2-4.2,1.7-5.8,3.2c-1.9,1.4-3.9,2.7-5.8,4.1
			c-2.5,1.9-4.9,3.9-7.4,5.8c-1.8,1.3-4,2.3-5.5,3.8c-1.2,1.2-1.7,2.9-2.6,4.7c-2.5,0.9-7.3-0.7-7.2,4.4c0,0.4-1.1,1.3-1.6,1.2
			c-5.9-1-6,5.3-10,6.8c-2.3,0.9-4.1,2.6-7.4,4.9c-0.3-3.5-0.5-5-0.5-6.5c0.1-14.6,0-29.2,0.6-43.7c0.4-8.6,1.4-17.4,3.4-25.8
			c0.7-3,5.1-5.3,8-7.6c2.4-1.9,5.8-3,7.8-5.2c3.5-3.9,3.2-4.2,6.6-5.8c2.1-1.4,4.4-2.7,6.4-4.2c2.5-1.9,4.7-4.1,7.2-6
			c1.6-1.3,3.6-2.2,5.1-3.5c1.2-1.1,1.9-2.7,3.4-4.9c2.1-0.8,7.7,1,7.1-2.8c4.6-4.1,8-7.1,11.4-10.1c1.2-1.1,2.3-2.3,3.6-3.3
			c1.4-1.1,2.9-2.2,4.5-3c2.1-1,4.4-1.7,6-3.2c2.1-1.4,4.3-2.9,6.4-4.3c2.5-1.7,5.6-4.4,6.5-6c3.2-5.3,9.4-5.5,13.3-9
			c1.7-1.5,3.3-3.2,4.9-4.8c1.3,1.7,2.3,4,4,4.8c4.3,2,7.7,4.5,10.8,8.1c2.8,3.2,7.7,4.9,11.4,7.4
			C1182.2,589.8,1183.2,591.4,1185.1,593.6z"/>
		<path class="st1" d="M1454,496.9c-0.2,0.8-0.5,2.1-0.8,3.6c-3.5,0.6-7.7,0.5-6.2,6.3c-0.7-0.7-1.4-1.4-2.1-2c-2.1,2-4,4.2-6.4,5.8
			c-0.8,0.6-3.1,0.3-4-0.4c-2-1.5-3.5-3.5-5.5-5.2c-5.7-6.1-11.6-11.8-19.7-15.5c-2.3-1.3-4.9-2.4-6.9-4.1c-2.6-2.2-4.7-5-7.2-7.4
			c-0.9-1-2.1-1.8-3.2-2.6c-1.6-1.2-3.1-2.7-4.9-3.4c-2-0.8-5-1.9-6.4-1.1c-3.7,2.3-6.8,5.4-9.7,8.6c-2.8,1.1-7.2,0-7.1,5
			c0,0.3-0.4,0.8-0.7,0.8c-4.3,0.1-6.1,3.1-8.6,5.6c-2.3,2.3-4.4,5.6-9,5c-0.5-0.1-1.5,2.8-2.3,4.6c-1.9,0.3-4,0.5-6.1,0.8
			c0.2,0.3,0.4,0.6,0.7,1c-1.9,1.4-3.8,2.9-5.8,4.3c-0.6,0.4-1.6,0.6-1.9,1.1c-2.1,4.2-3.8,7.3-5.8-0.1c-0.3-1-3.6-1-4.8-2.2
			c-2.6-2.5-4.8-5.4-7.1-8.1c-0.5-0.5-0.9-1.1-1.6-1.4c-3.8-1.8-7.8-3.2-11.3-5.3c-1.3-0.7-1.6-2.9-3.3-3.5
			c-3.3-2.7-6.8-5.3-9.9-8.2c-0.6-0.6-0.1-2.8,0.7-3.9c2.2-3,4.4-6,7.2-8.5c1.3-1.2,3.9-1.1,6.4-1.7c0.4-3.9,2.7-6.1,7.9-4.8
			c-0.4-0.6-0.7-1.1-1.1-1.7c2.5-1.5,5.3-2.6,7.5-4.4c2.9-2.3,5.3-5.1,7.1-8.6c2.1-0.3,4.2-0.6,6.2-0.9c-0.2-0.4-0.5-0.7-0.7-1.1
			c2.1-1.4,4.2-3,6.4-4.1c2.8-1.4,2.1-5.8,6.9-5.8c2,0,4.2-2.2,5.9-3.9c1.2-1.2,1.6-3,1.6-3c3.8-2.3,6.5-3.9,9.1-5.5
			c0-0.1,0-0.3-0.1-0.4c3.5-2.6,8.1-4.5,10.2-7.9c3.1-4.9,7.1-2.9,12.3-3.7c0,17.1,0,33.6,0,50.1c0.8,0.1,1.5,0.2,2.3,0.2
			c0.5-1.1,1.3-2.3,1.3-3.4c0.4-6.6,0.4-13.3,1-19.9c0.9-8.8,2.4-17.6,3.8-28.2c2.9,1.8,5.1,3.3,7.5,4.5c2,0.9,4.2,1.4,5.7,2.7
			c2.3,1.5,4.8,2.7,6.7,4.5c2.7,2.4,4.9,5.2,7.3,7.9c0.5,0.5,0.6,1.5,1.1,1.8c3.7,1.8,7.9,3.1,11.2,5.4c2.7,1.8,4.4,4.9,6.6,7.4
			c0.9,1,2,1.8,3.2,2.6c2,1.3,4,2.6,5.4,4.7c4.8,2.1,9.7,4,14.3,6.4c1.8,1,3.9,3.2,3.9,4.9c0.2,6.2,9.5,3.5,10.2,9.6
			c0.2,1.9,5.2,3.3,7.8,5.2c1.2,0.9,1.9,2.3,3.2,3.9c-4.4,1.3-9.4,0.3-9.3,5.7c0,0.2-0.6,0.5-0.9,0.5c-6-0.1-7.2,5.3-10.9,8
			C1459.6,494.9,1457.1,495.5,1454,496.9z"/>
		<path class="st1" d="M1013.3,489.7c-2.2,1.7-4.3,3.4-6.5,5.1c-0.1,0.1-0.3,0.3-0.5,0.3c-5.6-1.3-7.2,3.5-9.6,6.1
			c-2.4,2.7-4,5.5-8.4,5.6c-0.6,0-1.2,2.7-1.9,4.5c-2.7-0.3-5.1,1-7-3.1c-1.7-3.6-6.3-6-10.1-8.9c-2.2-1.3-4.5-2.6-6.5-4
			c-3.3-2.4-6.6-4.9-9.8-7.5c-3.6-2.9-7.1-5.8-11.8-9.7c0.9-1.5,2-5.8,4.1-6.3c6.6-1.4,9.1-5.9,12-10.4c0.4-0.6,1.6-0.9,2.5-1.1
			c0.9-0.2,2.7-0.2,2.8-0.4c0.6-5.6,7.3-4.4,10.1-7.9c2.3-2.9,6.6-4.5,9.6-7.1c3.5-2.9,6.7-6.3,11-10.4c4.9-0.9,9.5-4.6,14.2-8.8
			c2.8-2.4,3.7-8,9.7-7c0.4,0.1,1.2-1.5,1.8-2.3c0.7-0.9,1.4-2.4,2.2-2.5c6.1-0.6,8.4-4.9,12-10.1c0.3,3.6,0.7,6.1,0.8,8.7
			c0.2,6.5,0.1,12.9,0.3,19.4c0.1,3.1-0.8,6.5,3.2,8.6c0.8,0.4,0.8,2.3,0.8,3.5c0.2,5.9-0.2,11.9,0.4,17.8
			c0.7,7.1-2.3,11.3-9.5,13.6c-2.1,0.7-3.4,3.3-5.2,4.9c-3.3,3.1-6.6,6.2-9.9,9.4C1013.8,489.8,1013.5,489.8,1013.3,489.7z"/>
		<path class="st1" d="M1265,827.3c0.7,3.8,1.1,6.2,1.7,9.2c10.9-7.9,21.7-14.5,32.8-0.8c5.6-4,11.3-7.9,19.2-7.6
			c7.4,0.3,13.9,5.1,13.8,12.6c-0.1,5.4-0.1,10.8-0.1,16.2c0,3.8-1,7.8,3,10.9c0.7,0.5,0,4.1-1.1,4.8c-6.5,4.4-20.3,4.2-26.8-0.4
			c-1-0.7-1.6-3.4-0.9-4.3c5.4-7.6,2.7-15.8,1.9-23.8c-0.1-1.1-2.9-2.6-4.6-2.7c-1.2-0.1-3.1,1.6-3.8,3c-3.2,6.5-2.4,13.1-0.1,19.8
			c2.8,8.3,2.8,8.9-6.2,10.9c-6.9,1.6-14.3,1.6-20.7-2.2c-1-0.6-1.3-3.3-0.9-4.8c0.6-2.4,3-4.6,3.1-7c0.3-5.5,0-11.1-0.6-16.6
			c-0.1-1.2-2.7-3.3-3.5-3c-1.8,0.5-4.6,2.2-4.6,3.4c-0.3,7.7-3.3,15.5,1.7,23c0.6,0.9-0.6,4.1-1.8,4.6c-8,3.4-16.3,5-25,1.6
			c-4.2-1.7-4.1-3.8-1.8-6.5c6.4-7.5,2.9-16.1,3.2-24.3c0-0.3-0.2-0.7-0.4-1c-5.4-7.3-5-8.2,4.4-10.4
			C1252.7,830.4,1258.6,828.9,1265,827.3z"/>
		<path class="st1" d="M1062.4,876.4c-4.8-0.9-9.9-1.6-14.8-3c-1.6-0.4-3.4-2.3-3.9-3.8c-0.3-0.9,2-2.4,3-3.7
			c1.7-2.3,4.6-4.7,4.7-7.1c0.6-11.3,0.4-22.6,0.4-34c0-2.9-0.2-5.6-4.2-6.8c-1.3-0.4-2.7-3.3-2.3-4.6c0.4-1.4,2.7-3.1,4.4-3.4
			c3.4-0.4,6.9,0.2,10.4,0.2c14-0.1,27.9,0.1,41.8-0.6c5.5-0.3,7.8,2.8,8.9,5.8c1.2,3.4,0.1,7.5,0,11.4c-2.6-0.1-6.7,0.8-7.7-0.5
			c-5.6-6.9-13.3-7.2-21.3-6.8c-1.5,0.1-4.1,1-4.2,1.8c-0.8,4.6-1.2,9.3-1.2,13.9c0,0.8,2.5,2.5,3.6,2.4c2.2-0.3,4.3-1.3,6.2-2.5
			c0.9-0.6,0.9-2.3,1.6-3.1c3.6-4.1,5.6-3.6,8,1.2c3.4,6.9,2.5,13.6-0.7,20.1c-0.8,1.6-3.1,2.6-4.7,3.9c-1.3-1.5-2.7-3.1-3.9-4.7
			c-1.3-1.6-2.1-3.7-3.7-4.8c-3.6-2.6-6.2-1.5-6.5,2.7c-0.3,3.4,0,6.8,0.2,10.2c0.2,3,1.2,5.4,5.3,5.8c1.3,0.1,3.6,2.5,3.4,3.2
			c-0.6,1.5-2.3,3.4-3.9,3.7C1075.4,874.6,1069.1,875.4,1062.4,876.4z"/>
		<path class="st1" d="M1398.1,849.7c0.5,4.8-2.3,10.5,4.3,13.9c0.8,0.4,0,4.9-1.3,6.8c-3.1,4.5-13.3,6.2-18.2,2.9
			c-5.3-3.5-9.6-0.5-14,1.1c-6,2.1-14,1.4-18.4-3.4c-3.6-3.9-4.3-9.2-1.3-13.5c2.2-3.1,6-5.7,9.7-7.3c3.4-1.4,7.6-0.9,11.4-1.6
			c1.9-0.4,5.1-1.6,5.1-2.4c0-3.2,0-7.2-1.9-9.4c-2.1-2.3-5.4-0.8-7.5,2.1c-2.4,3.2-4.9,7-10.1,6.5c-1.9-0.2-4.5-1.3-5.1-2.7
			c-0.6-1.5,0.1-4.2,1.3-5.5c9.8-10.3,30.6-12.6,42-3.6c1.6,1.2,2.7,3.5,3.1,5.4C1397.9,842.5,1397.8,846.1,1398.1,849.7z
			 M1377.7,859.2c-2-2.2-3.4-3.6-4.7-5.1c-1.8,2-4.7,3.8-5,6c-0.2,1.7,2.7,3.8,4.2,5.7C1373.8,863.9,1375.4,861.9,1377.7,859.2z"/>
		<path class="st1" d="M1200.8,836.9c2.1-2.4,3.2-3.9,4.6-5.2c3.9-3.7,12-4.7,15.3-1.9c5.2,4.3,5.1,12-0.2,17.4
			c-3.6,3.7-10.6,3.5-15.3-0.3c-1.1-0.9-2.6-1.2-4-1.8c-0.5,1.4-1.4,2.7-1.5,4.2c-0.3,2.1,0.2,4.4-0.1,6.4c-0.9,5.1,1.4,8.3,6,10.8
			c1.2,0.7,2.6,2.4,2.5,3.5c-0.1,1.2-1.7,2.7-3.1,3.2c-10.7,4.1-21.4,3.6-32-0.3c-3.6-1.4-3.8-3.5-1.1-6c4.5-4.1,7.7-18.8,5.1-23.7
			c-0.4-0.8-1.6-1.3-2.6-1.8c-4.9-2.4-5.4-6.1-0.5-7.8c7-2.5,14.6-3.7,22-5.1c0.9-0.2,2.7,1.8,3.5,3.1
			C1200.2,832.6,1200.2,834.2,1200.8,836.9z"/>
		<path class="st1" d="M1152.1,845.8c0,4.5-0.5,9,0.2,13.4c0.4,2.6,2.1,5.7,4.2,7.4c3,2.4,3,4.1-0.1,5.6c-7.4,3.5-15.2,4.7-23.3,2.7
			c-3.1-0.8-6-2.5-9-3.7c1.5-2.5,4-4.9,4.2-7.5c0.7-6.7,0.5-13.5,0.4-20.2c0-0.8-1.8-1.5-2.8-2.3c-3.2-2.4-2.8-7.1,1-8.2
			c6.4-1.9,12.9-3.3,19.4-4.7c4-0.9,6.2,0.2,5.9,4.6C1151.7,837.2,1152,841.5,1152.1,845.8C1152,845.8,1152,845.8,1152.1,845.8z"/>
		<path class="st1" d="M1134,825.3c-7.5-0.4-10.9-2.3-9.4-6.5c1-2.6,4.3-5.5,7.2-6.4c4.3-1.3,9.1-1.3,13.7-1.3
			c3.2,0,6.8,1.9,5.9,5.1c-0.7,2.7-3.5,5.7-6.2,7.1C1141.9,824.8,1137.7,824.7,1134,825.3z"/>
		<path class="st1" d="M1567.5,513.1c-1.7-1.7-2.7-2.7-3.7-3.7c1.2-0.9,2.4-2.6,3.7-2.6c1.3,0,2.7,1.5,4,2.4
			C1570.4,510.3,1569.2,511.4,1567.5,513.1z"/>
		<path class="st1" d="M873.2,521.7c0.4,0,0.8-0.1,1.2,0c2.4,0.6,6.8-1.4,6.2,3.1c-0.1,1.2-3.9,2-7.2,3.5c0-3.4,0-5.1,0-6.8
			L873.2,521.7z"/>
		<path class="st1" d="M1536.8,532.5c0-1.6,0-3.2,0-5.4c2.9,0,5.5,0,8.2,0l-0.1-0.1c0,1.5,0,3.1,0,5.4c-2.8,0-5.5,0-8.2,0
			C1536.7,532.3,1536.8,532.5,1536.8,532.5z"/>
		<path class="st1" d="M873.4,521.5c-0.6,0-1.2,0.2-1.7-0.1c-1.8-0.8-3.5-1.7-5.2-2.6c1.7-1,3.4-2,5.7-3.4c0.5,3.1,0.7,4.6,1,6.2
			C873.2,521.7,873.4,521.5,873.4,521.5z"/>
		<path class="st1" d="M1545,527.1c-0.1-1.6-0.2-3.1-0.4-6.2c2.9,1.1,5,1.8,7.1,2.5c-0.8,1.2-1.2,2.8-2.3,3.4
			c-1.2,0.6-2.9,0.2-4.4,0.2C1544.9,527,1545,527.1,1545,527.1z"/>
	</g>
</g>
</svg>
