<?xml version="1.0" encoding="utf-8"?>
<!-- Generator: Adobe Illustrator 25.0.0, SVG Export Plug-In . SVG Version: 6.00 Build 0)  -->
<svg version="1.1" id="Ebene_1" xmlns="http://www.w3.org/2000/svg" xmlns:xlink="http://www.w3.org/1999/xlink" x="0px" y="0px"
	 viewBox="0 0 1920 1080" style="enable-background:new 0 0 1920 1080;" xml:space="preserve">
<style type="text/css">
	.st0{fill:#80D2F8;}
	.st1{fill:#FF271D;}
	.st2{fill:#FF271D;stroke:#5E4292;stroke-miterlimit:10;}
	.st3{fill:#FFFFFF;}
	.st4{fill:#5E4292;}
</style>
<rect x="-54.7" y="-15.7" class="st0" width="2034.7" height="1111.3"/>
<g>
	<path class="st1" d="M1575.2,463.4c36.9,0,73.8,0,110.8,0c8.5,0,8.9,0.3,8.8,8.8c-0.2,16.5-0.5,33-1,49.5
		c-0.2,6.6-0.9,13.3-1.4,19.9c-0.9,10.8-1.6,21.7-2.9,32.4c-0.7,5.9-2.5,11.7-3.7,17.6c-1,4.8-1.4,9.7-2.7,14.4
		c-3,10.8-6.3,21.5-9.5,32.2c-0.1,0.2-0.1,0.4-0.1,0.6c-1.8,6.5-3.2,13-5.4,19.4c-2.9,8.8-5.9,17.7-9.7,26.2
		c-4.7,10.7-10.2,21-15.6,31.4c-4.8,9.3-9.6,18.7-15,27.7c-3.2,5.3-7.6,9.8-11.6,14.6c-6.2,7.4-12.2,14.9-18.7,22.1
		c-3.3,3.6-7.1,6.7-10.8,10c-2.1,1.8-4.5,3.3-6.4,5.3c-4.2,4.7-6.2,4.7-10.7,0.4c-5.2-4.9-11-9.1-16.1-13.9
		c-3.7-3.5-6.9-7.5-10.1-11.6c-4.5-5.7-8.7-11.5-13-17.4c-6-8.4-12-16.8-18-25.2c-0.7-0.9-1.3-1.9-1.9-2.9
		c-4.1-7.6-8.3-15.2-12.2-22.9c-1.7-3.4-3-7-4.5-10.6c-0.9-2.2-1.8-4.5-2.5-6.7c-3.4-10.2-5.7-21-10.4-30.5
		c-5.8-11.7-5.6-24.9-10.6-36.5c-4.5-10.4-2.7-21.6-6.9-32.1c-2.6-6.5-1.9-14.3-2.8-21.5c-1.6-12.7-3.7-25.3-4.9-38
		c-0.6-6.5,0.1-13.1,0.1-19.6c0-11.7,0.2-23.5-0.2-35.2c-0.2-6,2-7.9,8-7.9C1500.9,463.5,1538,463.4,1575.2,463.4z M1684.8,479.1
		c-2.5-0.2-4.1-0.3-5.7-0.3c-68.6,0-137.3,0-205.9-0.2c-5.7,0-8.1,1.6-7.6,7.5c0.9,10.5,2.8,21,1.9,31.4
		c-1.8,21.1,4.2,41.3,6.1,61.9c0.9,10.1,4.2,20,6.6,29.9c2.8,11.5,5.1,23.2,8.9,34.3c4.3,12.7,9.9,25,14.9,37.5
		c9.4,23.2,20.9,44.9,37.3,64.2c9.7,11.4,18.5,23.4,30.1,33.2c4.1,3.5,6.3,3.3,9.7-0.4c8.3-8.9,17.3-17.2,25.2-26.4
		c6.6-7.7,12.6-16,17.7-24.8c7.3-12.5,14-25.3,20-38.4c6.5-14.1,12.6-28.5,17.4-43.3c4.8-14.8,8.2-30.1,11.4-45.3
		c3.4-16,6.9-32,8.8-48.2c2-17.2,2.4-34.5,3.2-51.8C1685,493.2,1684.8,486.4,1684.8,479.1z"/>
	<path class="st1" d="M1575.2,924.3c0-24.8,0-48.5,0-72.6c5.1,0,9.9,0,15,0c0.3,2.8,0.5,5.3,0.9,9.3c2.8-1.8,5.3-2.8,7.1-4.5
		c7.8-7.9,23.1-7.5,30.1,1.1c1.1,1.3,1.4,3.4,2.3,5.9c2.5-2,5.2-3.6,7-5.9c6.8-8.7,16.8-8.1,24.9-5.5c8.4,2.7,11.8,10.9,11.4,20.6
		c-0.7,15.1-0.4,30.2,0,45.4c0.2,5.8-2.5,6.6-7.2,6.3c-4.3-0.2-8.4,0.7-8.1-6.1c0.4-11.7,0.2-23.5-0.2-35.2c-0.1-4.4-0.5-9.3-2.5-13
		c-3.2-5.9-8.6-6.5-16.1,0.6c-5.6,5.3-7,12.2-7.1,19.3c-0.2,9.3-0.3,18.7,0,28.1c0.2,5.1-1.8,6.5-6.7,6.4c-10.9-0.3-8.9,0.1-9-9.1
		c-0.1-12.1-0.4-24.3,0.1-36.4c0.2-6-4.4-8.8-7.2-12.5c-1.9-2.5-11.4,1.3-14,6.2c-2.5,4.7-4.6,10-5,15.2c-0.8,9.9-0.5,19.9-0.1,29.8
		c0.2,5.2-1.3,7.4-6.7,6.8C1581.3,924,1578.5,924.3,1575.2,924.3z"/>
	<path class="st1" d="M1744.3,923.3c-12.3,2.9-14.3,1.9-16.2-9.1c-2.6,3.7-4.2,6.9-6.7,9.2c-6.6,6.1-16.5,6-22.8-0.8
		c-4.9-5.4-8.9-11.8-9.1-19.7c-0.2-7.6-0.4-15.1-0.3-22.7c0.1-13.6,13.4-30.9,29.3-29.1c6.1,0.7,12.4,0.1,18.6,0.2
		c4.4,0.1,7.2,1.8,7.2,6.8C1744.3,879.6,1744.3,901.3,1744.3,923.3z M1703.2,889.6c0.5,0.1,1.1,0.3,1.6,0.4c0,3.6-0.2,7.2,0,10.7
		c0.3,5.3,3.1,8.3,8.8,8.3c4.6,0.1,11.4-5.8,12.5-12c1.3-7.3,1.8-14.7,2.6-22c0.5-4.8-1.9-7.9-6.3-9.2c-4.2-1.2-12.7,2-13.7,5.1
		C1706.6,877.1,1705,883.4,1703.2,889.6z"/>
	<path class="st1" d="M1416.7,829.6c16.3,0,32,0,48,0c0,5.9,0,11.4,0,17.9c-8.5,0-17.1,0.3-25.6-0.1c-6-0.3-8.4,1.6-7.7,7.8
		c0.5,4.3,0.1,8.6,0.1,13.9c7.8,0,15,0.1,22.1-0.1c4.5-0.1,6.5,1.3,6.3,6.2c-0.5,13.3,1.7,11.8-11.8,12
		c-16.7,0.2-16.7,0.1-16.7,16.5c0,5.4-0.1,10.7,0,16.1c0.1,3.3-1.4,4.4-4.7,4.6c-10,0.6-10.1,0.6-10.1-9.3c0-26.3,0-52.5,0-78.8
		C1416.7,834.2,1416.7,832,1416.7,829.6z"/>
	<path class="st1" d="M1486,869.2c-2.1-0.2-3.4-0.5-4.8-0.4c-4.1,0.4-5.4-1.8-5.4-5.3c0-2.8-0.4-5.7,0.2-8.3
		c0.4-1.5,2.4-3.7,3.7-3.8c6.4-0.4,12.8-0.1,19.2-0.2c4.2-0.1,5.5,1.8,5.4,5.8c-0.2,17.1-0.1,34.1-0.1,51.9c1.6,0.2,3.5,0.7,5.4,0.7
		c4,0.1,5.6,1.6,5.5,5.8c-0.1,8.8,0.1,8.9-9,8.9c-8.4,0-16.9-0.2-25.3,0.1c-5.7,0.2-5.4-3.4-5.2-7.1c0.2-3.5-1.5-8.3,5-7.6
		c4.7,0.5,5.4-1.4,5.1-5.9c-0.6-8.9-0.1-17.9,0-26.8C1486,874.4,1486,871.9,1486,869.2z"/>
	<path class="st1" d="M1543.6,851.2c0,4.4,0,8.1,0,11.7c0.5,0.1,1,0.3,1.4,0.4c1.9-3.2,3.1-7.4,5.9-9.4c3-2.2,7.4-2.3,12.5-3.8
		c-0.9,3-1.7,4.2-1.5,5.2c1.2,9.2-1.6,14.9-11.8,17c-2.8,0.6-5.9,6.9-6.1,10.8c-0.8,11.7-0.5,23.5-0.3,35.2c0.1,4.2-0.9,6.1-5.6,6
		c-14.8-0.2-12,0.1-12.1-11.7c-0.1-18.1,0.2-36.3-0.2-54.4c-0.1-5.6,1.7-7.6,7.2-7.1C1536.2,851.4,1539.6,851.2,1543.6,851.2z"/>
	<path class="st1" d="M1494.4,819.5c2.9,0.8,8,1.2,8.3,2.5c1,4.7,0.4,9.7,0.2,14.6c0,0.5-1.9,1.2-2.9,1.4c-1.3,0.3-2.8,0.1-4.2,0.1
		c-12.7,0-14.3-1.7-11.9-14.5c0.2-1.3,2-2.9,3.3-3.2c2.3-0.5,4.7-0.1,7.1-0.1C1494.3,820.1,1494.3,819.8,1494.4,819.5z"/>
	<path class="st2" d="M1562.2,545.2c2.6,1.1,4.4,1.9,6.2,2.7c0.8,6,1.4,11.9,8,15.1c3.6,1.8,9.3,1.3,12-2c5.1-6.2,4.3-17.4-7.5-20.8
		c-1.5-0.4-3.6-2.7-3.6-4.1c-0.3-12.1-0.3-24.3,0-36.4c0-1.6,1.7-4.3,2.8-4.4c8-0.6,16.2-0.8,23.1,4.3c5.1,3.7,10.5,7.3,14.7,11.8
		c3.6,3.9,5.8,9.1,8.5,13.8c7.3,12.9,5.8,27.1,5.7,41.1c0,2.9-2,5.8-3.1,8.7c-3.2,8.4-5.6,17.2-13.1,23.2c-3.1,2.5-3.5,7.5-8.6,8.3
		c-0.9,0.1-1.5,4.6-1.5,7.1c-0.1,25.7,0,51.4,0.1,77.1c0,6.4-2.9,11.4-6.9,16.2c-3.4,4.1-6,8.8-9.1,13.2c-5,7.1-18.4,5.7-22.4-2
		c-3.5-6.7-8.2-12.8-11.2-19.7c-3.4-7.9-3.4-19.1,4.7-25.4c1-0.8,1.1-5,0.2-5.7c-9.2-6.6-6.6-16.1-6.2-24.7c0.2-3.2,3.8-6.2,5.7-9.5
		c1.5-2.6,2.8-4.5-1.2-7.2c-2.8-1.9-4.5-6.9-4.8-10.6c-0.5-5.9-2-10-6.2-14.9c-6.2-7-11.4-15-14.9-24.4c-4.4-12.1-2.2-24.1-2.3-35.9
		c-0.1-6.8,5.1-13.7,8.5-20.3c2-4,4.8-7.8,7.8-11.2c1.7-1.9,4.6-3.3,7.1-3.4c1.2-0.1,3.4,3.4,3.5,5.3c0,1.9-2,3.8-3.3,5.7
		c-2.4,3.5-5.1,6.8-7.3,10.4c-1.7,2.7-2.9,5.8-4.3,8.7c-4.9,10.5-2.3,21.5-2,32.2c0.1,4,4.4,7.7,5.4,11.9
		c1.6,6.8,5.9,11.7,11.1,15.3c6.2,4.3,5.8,10,6.5,16.3c0.5,4.4,4,8.5,6.1,12.7c3.4,6.6,1.9,16-3.8,20.8c-3.8,3.3-3.1,6.3-1.1,10.3
		c2.7,5.4,4.7,11.1,6.5,16.8c2,6.1-4.7,8.5-6.1,13.2c-0.8,2.5-2.5,5.7-1.5,7.5c3.6,6.6,8,12.8,12.4,18.9c2.1,2.9,5,3.2,7.3-0.2
		c2.7-4,4.7-8.6,7.9-12.2c7.9-8.7,4.3-19,4.5-28.5c0.5-20.9,0.6-41.8-0.1-62.7c-0.2-7.3,4.4-10,8.7-13.8c2.8-2.5,5.4-5.3,7.7-8.2
		c2.5-3.2,4.6-6.8,6.6-10.4c4.4-7.9,1.9-16.7,3.1-25c1.2-8.6-1.7-16.3-5.9-22.7c-4.6-7.1-8.6-15.9-19-17.4c-0.8-0.1-1.3-1.7-2.1-1.8
		c-2.2-0.5-4.9-1.3-6.7-0.5c-1.4,0.6-2.3,3.3-2.5,5.3c-0.4,3.1,0.1,6.4-0.2,9.5c-0.5,5.2,0.8,8.7,5.9,11.5
		c8.2,4.7,11.3,19.3,6.8,27.7c-0.4,0.7-0.5,1.6-0.9,2.2c-2.4,3.3-4.3,8.8-7.3,9.5c-6.5,1.5-13.5,0.6-20.3,0.6
		c-0.7,0-1.7-1.1-2.1-1.9c-3.3-6-7-12-7.9-18.9C1559.6,550.6,1561.3,547.9,1562.2,545.2z"/>
</g>
<g>
	<path d="M370.3,421.9c42.7,0,85.5,0,128.2,0c9.8,0,10.3,0.3,10.2,9.3c-0.2,17.5-0.6,35.1-1.1,52.6c-0.2,7.1-1,14.1-1.7,21.1
		c-1,11.5-1.8,23-3.3,34.4c-0.8,6.3-2.9,12.4-4.3,18.6c-1.1,5.1-1.6,10.3-3.1,15.3c-3.4,11.5-7.3,22.8-11,34.2
		c-0.1,0.2-0.1,0.4-0.2,0.6c-2,6.9-3.8,13.8-6.2,20.6c-3.4,9.4-6.8,18.8-11.2,27.8c-5.5,11.3-11.8,22.3-18.1,33.4
		c-5.6,9.9-11.1,19.9-17.4,29.4c-3.7,5.6-8.8,10.4-13.4,15.5c-7.1,7.9-14.2,15.8-21.6,23.4c-3.8,3.9-8.3,7.1-12.5,10.6
		c-2.4,2-5.3,3.5-7.4,5.7c-4.9,5-7.1,5-12.4,0.5c-6-5.2-12.7-9.6-18.6-14.8c-4.3-3.7-8-8-11.7-12.3c-5.2-6-10.1-12.2-15-18.4
		c-7-8.9-13.9-17.8-20.8-26.8c-0.8-1-1.5-2-2.2-3.1c-4.7-8.1-9.6-16.2-14.1-24.3c-2-3.6-3.5-7.5-5.2-11.3c-1-2.4-2-4.7-2.9-7.1
		c-3.9-10.9-6.6-22.3-12.1-32.4c-6.8-12.5-6.5-26.5-12.2-38.8c-5.2-11-3.2-23-7.9-34.1c-3-6.9-2.2-15.2-3.3-22.8
		c-1.9-13.4-4.3-26.8-5.7-40.3c-0.7-6.9,0.1-13.9,0.1-20.9c0-12.5,0.2-25-0.2-37.4c-0.2-6.4,2.3-8.4,9.2-8.3
		C284.4,422,327.3,421.9,370.3,421.9z M497.2,438.5c-2.9-0.2-4.8-0.4-6.6-0.4c-79.4,0-158.9,0-238.3-0.2c-6.5,0-9.4,1.7-8.9,7.9
		c1,11.1,3.2,22.4,2.2,33.3c-2.1,22.4,4.9,43.8,7,65.8c1.1,10.7,4.9,21.2,7.7,31.8c3.2,12.2,5.9,24.6,10.3,36.5
		c4.9,13.5,11.4,26.6,17.3,39.8c10.8,24.6,24.2,47.7,43.1,68.2c11.2,12.1,21.4,24.9,34.8,35.2c4.8,3.7,7.3,3.5,11.3-0.4
		c9.6-9.5,20-18.2,29.2-28c7.6-8.2,14.6-17,20.5-26.3c8.4-13.2,16.2-26.9,23.1-40.8c7.5-15,14.6-30.3,20.2-46
		c5.6-15.7,9.4-31.9,13.2-48.1c4-17,8-34,10.2-51.2c2.3-18.2,2.7-36.6,3.7-55C497.5,453.5,497.2,446.3,497.2,438.5z"/>
	<path d="M364.2,920.9c0-26.4,0-51.5,0-77.1c5.8,0,11.4,0,17.4,0c0.3,3,0.6,5.7,1,9.8c3.3-1.9,6.2-2.9,8.2-4.8
		c9-8.3,26.7-7.9,34.8,1.2c1.3,1.4,1.6,3.6,2.7,6.3c2.9-2.2,6-3.8,8.1-6.2c7.9-9.3,19.4-8.6,28.9-5.8c9.7,2.9,13.7,11.5,13.2,21.9
		c-0.8,16-0.4,32.1,0.1,48.2c0.2,6.2-2.9,7-8.4,6.7c-5-0.2-9.7,0.7-9.4-6.5c0.5-12.5,0.2-24.9-0.2-37.4c-0.2-4.7-0.5-9.9-2.9-13.8
		c-3.7-6.3-9.9-6.9-18.6,0.6c-6.5,5.6-8.1,12.9-8.3,20.5c-0.2,9.9-0.4,19.9,0,29.8c0.2,5.4-2.1,6.9-7.7,6.8
		c-12.6-0.3-10.3,0.1-10.4-9.7c-0.1-12.9-0.4-25.8,0.1-38.7c0.3-6.4-5.1-9.3-8.4-13.3c-2.2-2.7-13.2,1.3-16.2,6.5
		c-2.9,4.9-5.3,10.6-5.8,16.2c-0.9,10.5-0.6,21.1-0.1,31.7c0.2,5.5-1.5,7.9-7.8,7.2C371.3,920.6,368.1,920.9,364.2,920.9z"/>
	<path d="M560,919.8c-14.2,3-16.5,2-18.8-9.7c-3.1,3.9-4.9,7.3-7.7,9.7c-7.6,6.5-19.1,6.4-26.4-0.9c-5.7-5.7-10.3-12.6-10.5-20.9
		c-0.2-8-0.5-16-0.4-24.1c0.1-14.4,15.5-32.8,34-30.9c7.1,0.7,14.4,0.1,21.6,0.2c5.1,0.1,8.3,1.9,8.3,7.2
		C560,873.5,560,896.5,560,919.8z M512.4,884.1c0.6,0.1,1.3,0.3,1.9,0.4c0,3.8-0.2,7.6,0.1,11.4c0.4,5.6,3.6,8.8,10.1,8.9
		c5.4,0.1,13.2-6.1,14.5-12.8c1.5-7.7,2-15.6,3-23.4c0.6-5.1-2.2-8.4-7.3-9.8c-4.8-1.3-14.7,2.1-15.9,5.4
		C516.4,870.7,514.5,877.4,512.4,884.1z"/>
	<path d="M180.9,820.3c18.8,0,37,0,55.6,0c0,6.3,0,12.1,0,19c-9.9,0-19.8,0.3-29.6-0.1c-6.9-0.3-9.7,1.7-8.9,8.2
		c0.6,4.5,0.1,9.2,0.1,14.8c9,0,17.3,0.1,25.6-0.1c5.2-0.1,7.5,1.4,7.3,6.6c-0.5,14.1,2,12.6-13.6,12.7
		c-19.3,0.2-19.3,0.1-19.3,17.5c0,5.7-0.1,11.4,0,17.1c0.1,3.5-1.6,4.7-5.4,4.9c-11.5,0.6-11.7,0.6-11.7-9.8c0-27.9,0-55.8,0-83.7
		C180.9,825.2,180.9,822.9,180.9,820.3z"/>
	<path d="M261.1,862.4c-2.4-0.2-4-0.5-5.5-0.4c-4.7,0.4-6.2-1.9-6.2-5.7c0-3-0.5-6,0.2-8.8c0.4-1.6,2.7-3.9,4.3-4
		c7.4-0.4,14.8-0.1,22.3-0.2c4.9-0.1,6.3,1.9,6.3,6.2c-0.2,18.1-0.1,36.2-0.1,55.1c1.9,0.2,4.1,0.7,6.3,0.8c4.6,0.1,6.5,1.7,6.4,6.2
		c-0.1,9.4,0.1,9.4-10.4,9.4c-9.7,0-19.5-0.2-29.2,0.1c-6.7,0.2-6.2-3.6-6-7.5c0.2-3.7-1.7-8.8,5.8-8.1c5.4,0.5,6.3-1.5,5.9-6.3
		c-0.7-9.5-0.1-19,0-28.5C261.1,867.9,261.1,865.2,261.1,862.4z"/>
	<path d="M327.7,843.3c0,4.7,0,8.6,0,12.4c0.6,0.1,1.1,0.3,1.7,0.4c2.2-3.4,3.6-7.8,6.8-10c3.4-2.3,8.6-2.5,14.5-4
		c-1.1,3.2-1.9,4.4-1.8,5.5c1.3,9.8-1.9,15.8-13.7,18c-3.2,0.6-6.8,7.4-7.1,11.5c-1,12.4-0.6,24.9-0.4,37.4c0.1,4.5-1,6.5-6.5,6.4
		c-17.1-0.2-13.9,0.1-14-12.5c-0.1-19.2,0.2-38.5-0.2-57.7c-0.1-6,2-8,8.3-7.5C319.1,843.5,323,843.3,327.7,843.3z"/>
	<path d="M270.8,809.6c3.3,0.9,9.2,1.2,9.6,2.7c1.2,5,0.5,10.3,0.2,15.6c0,0.6-2.1,1.3-3.4,1.5c-1.6,0.3-3.2,0.1-4.8,0.1
		c-14.8,0-16.6-1.9-13.8-15.3c0.3-1.4,2.3-3.1,3.8-3.4c2.6-0.6,5.5-0.2,8.3-0.2C270.6,810.3,270.7,809.9,270.8,809.6z"/>
	<path class="st3" d="M349.3,518.3c-1,2.9-3.1,5.8-2.7,8.3c1.1,7.3,5.4,13.6,9.1,20c0.5,0.8,1.6,2,2.5,2c7.9,0.1,16,1,23.5-0.6
		c3.5-0.8,5.7-6.5,8.5-10.1c0.5-0.7,0.6-1.6,1.1-2.3c5.2-8.9,1.7-24.4-7.8-29.4c-5.8-3.1-7.4-6.8-6.8-12.3c0.3-3.4-0.3-6.8,0.2-10.1
		c0.3-2,1.4-5,2.9-5.6c2.2-0.8,5.2,0.1,7.8,0.6c0.9,0.2,1.6,1.8,2.5,2c12,1.5,16.7,10.9,22,18.4c4.8,6.8,8.2,15,6.8,24.1
		c-1.3,8.8,1.6,18.1-3.5,26.5c-2.3,3.8-4.7,7.5-7.6,11c-2.6,3.2-5.6,6.1-8.9,8.7c-4.9,4-10.3,6.8-10.1,14.6
		c0.7,22.2,0.7,44.4,0.1,66.6c-0.3,10.2,3.9,21.1-5.2,30.3c-3.7,3.8-6.1,8.7-9.2,13c-2.6,3.6-6,3.3-8.4,0.2
		c-5.1-6.5-10.2-13.1-14.4-20.1c-1.1-1.8,0.9-5.3,1.8-7.9c1.7-5,9.4-7.6,7.1-14c-2.1-6.1-4.5-12.1-7.5-17.8
		c-2.3-4.2-3.1-7.4,1.3-10.9c6.6-5.1,8.3-15,4.4-22.1c-2.5-4.5-6.6-8.8-7.1-13.5c-0.8-6.7-0.4-12.7-7.5-17.3
		c-6.1-3.9-11-9-12.9-16.3c-1.1-4.4-6.1-8.4-6.2-12.6c-0.3-11.4-3.4-23.1,2.4-34.2c1.6-3.1,3-6.3,5-9.2c2.6-3.8,5.7-7.4,8.5-11.1
		c1.5-2,3.9-4.1,3.8-6c-0.1-2-2.7-5.7-4-5.7c-2.8,0.1-6.2,1.7-8.2,3.7c-3.5,3.6-6.7,7.6-9,11.9c-3.9,7-9.9,14.4-9.8,21.6
		c0.2,12.6-2.4,25.3,2.7,38.1c4,10,10.1,18.5,17.2,25.9c5,5.2,6.7,9.5,7.2,15.8c0.3,4,2.3,9.2,5.5,11.2c4.6,2.9,3.1,4.9,1.4,7.6
		c-2.2,3.4-6.4,6.6-6.6,10.1c-0.5,9.1-3.5,19.3,7.2,26.3c1.1,0.7,1,5.2-0.2,6c-9.3,6.7-9.3,18.6-5.4,27c3.4,7.3,8.9,13.8,12.9,20.9
		c4.6,8.2,20.1,9.7,25.9,2.1c3.6-4.6,6.6-9.6,10.5-14c4.6-5.1,8-10.4,8-17.2c0-27.3-0.2-54.6-0.1-81.9c0-2.6,0.7-7.4,1.7-7.5
		c6-0.9,6.4-6.2,10-8.8c8.6-6.4,11.5-15.8,15.1-24.7c1.3-3.1,3.5-6.1,3.6-9.2c0.2-14.8,1.9-29.9-6.5-43.6c-3.1-5-5.7-10.5-9.8-14.7
		c-4.9-4.9-11.1-8.6-17-12.6c-8-5.4-17.5-5.2-26.8-4.5c-1.2,0.1-3.2,3-3.2,4.7c-0.3,12.9-0.3,25.8,0,38.7c0,1.5,2.4,3.9,4.2,4.4
		c13.7,3.6,14.6,15.5,8.7,22.1c-3.1,3.5-9.7,4-13.9,2.1c-7.6-3.5-8.3-9.7-9.2-16.1C354.4,520.3,352.3,519.5,349.3,518.3z"/>
	<path d="M349.3,518.3c3,1.2,5.1,2,7.2,2.8c1,6.3,1.7,12.6,9.2,16.1c4.2,1.9,10.8,1.4,13.9-2.1c5.9-6.6,5-18.4-8.7-22.1
		c-1.8-0.5-4.2-2.8-4.2-4.4c-0.3-12.9-0.3-25.8,0-38.7c0-1.7,2-4.6,3.2-4.7c9.3-0.6,18.7-0.8,26.8,4.5c5.9,3.9,12.2,7.7,17,12.6
		c4.2,4.1,6.8,9.7,9.8,14.7c8.4,13.7,6.7,28.8,6.5,43.6c0,3.1-2.3,6.1-3.6,9.2c-3.7,8.9-6.5,18.3-15.1,24.7c-3.5,2.6-4,8-10,8.8
		c-1,0.2-1.7,4.9-1.7,7.5c-0.1,27.3,0.1,54.6,0.1,81.9c0,6.7-3.4,12.1-8,17.2c-3.9,4.3-6.9,9.4-10.5,14c-5.8,7.6-21.3,6.1-25.9-2.1
		c-4-7.1-9.5-13.6-12.9-20.9c-3.9-8.4-3.9-20.3,5.4-27c1.2-0.9,1.3-5.3,0.2-6c-10.6-7-7.6-17.1-7.2-26.3c0.2-3.4,4.4-6.6,6.6-10.1
		c1.7-2.7,3.2-4.8-1.4-7.6c-3.2-2-5.2-7.3-5.5-11.2c-0.5-6.3-2.3-10.7-7.2-15.8c-7.1-7.4-13.2-15.9-17.2-25.9
		c-5.1-12.9-2.5-25.6-2.7-38.1c-0.1-7.2,5.9-14.6,9.8-21.6c2.4-4.3,5.5-8.3,9-11.9c2-2,5.4-3.5,8.2-3.7c1.3-0.1,4,3.6,4,5.7
		c0.1,2-2.4,4.1-3.8,6c-2.8,3.7-5.9,7.2-8.5,11.1c-2,2.9-3.4,6.1-5,9.2c-5.7,11.1-2.7,22.8-2.4,34.2c0.1,4.2,5.1,8.2,6.2,12.6
		c1.9,7.3,6.8,12.4,12.9,16.3c7.2,4.6,6.8,10.6,7.5,17.3c0.5,4.7,4.6,9,7.1,13.5c3.9,7.1,2.2,16.9-4.4,22.1
		c-4.4,3.5-3.6,6.7-1.3,10.9c3.1,5.7,5.4,11.8,7.5,17.8c2.3,6.4-5.4,9.1-7.1,14c-0.9,2.6-2.9,6.1-1.8,7.9c4.2,7,9.2,13.6,14.4,20.1
		c2.4,3.1,5.8,3.4,8.4-0.2c3.1-4.3,5.5-9.2,9.2-13c9.1-9.2,5-20.1,5.2-30.3c0.6-22.2,0.7-44.4-0.1-66.6c-0.3-7.8,5.1-10.6,10.1-14.6
		c3.2-2.6,6.3-5.6,8.9-8.7c2.9-3.4,5.3-7.2,7.6-11c5.1-8.4,2.2-17.7,3.5-26.5c1.4-9.1-2-17.3-6.8-24.1c-5.3-7.5-10-16.9-22-18.4
		c-0.9-0.1-1.5-1.8-2.5-2c-2.6-0.5-5.6-1.4-7.8-0.6c-1.6,0.6-2.7,3.6-2.9,5.6c-0.5,3.3,0.1,6.8-0.2,10.1c-0.6,5.5,1,9.2,6.8,12.3
		c9.5,5,13.1,20.4,7.8,29.4c-0.4,0.7-0.5,1.7-1.1,2.3c-2.7,3.5-5,9.3-8.5,10.1c-7.5,1.6-15.6,0.7-23.5,0.6c-0.8,0-2-1.1-2.5-2
		c-3.8-6.4-8-12.7-9.1-20C346.2,524.1,348.3,521.3,349.3,518.3z"/>
</g>
<g>
	<path class="st4" d="M953.5,662.9c3.6,0,6.6-0.3,9.5,0.1c5.8,0.6,7.4-1.6,7.2-6.5c-0.4-9.6-0.7-19.2,0.1-28.8
		c0.4-5,2.7-10.2,5.4-14.7c2.9-4.7,13-8.4,15.1-5.9c3,3.6,8,6.2,7.8,12.1c-0.5,11.7-0.2,23.4-0.1,35.1c0.1,8.8-2,8.5,9.7,8.8
		c5.2,0.1,7.3-1.3,7.2-6.1c-0.3-9-0.2-18,0-27c0.2-6.9,1.7-13.6,7.7-18.6c8.1-6.8,13.9-6.3,17.3-0.6c2.2,3.6,2.5,8.3,2.7,12.6
		c0.4,11.3,0.6,22.6,0.2,34c-0.3,6.5,4.1,5.7,8.7,5.9c5.1,0.2,7.9-0.5,7.8-6.1c-0.5-14.6-0.8-29.2,0-43.7
		c0.5-9.4-3.2-17.2-12.2-19.8c-8.8-2.5-19.5-3.1-26.8,5.3c-1.9,2.2-4.8,3.7-7.5,5.6c-1-2.5-1.3-4.4-2.5-5.7
		c-7.5-8.3-23.9-8.6-32.3-1.1c-1.9,1.7-4.6,2.7-7.6,4.4c-0.4-3.8-0.6-6.2-0.9-8.9c-5.5,0-10.7,0-16.1,0
		C953.5,616.1,953.5,638.9,953.5,662.9z M783.2,571.5c0,2.3,0,4.4,0,6.5c0,25.3,0,50.6,0,75.9c0,9.5,0.1,9.5,10.8,8.9
		c3.5-0.2,5.1-1.3,5-4.5c-0.1-5.2,0-10.4,0-15.5c0-15.8,0-15.7,18-15.9c14.5-0.1,12.1,1.3,12.6-11.5c0.2-4.7-1.9-6.1-6.8-6
		c-7.7,0.2-15.4,0-23.7,0c0-5.1,0.4-9.3-0.1-13.4c-0.8-5.9,1.8-7.8,8.3-7.5c9.1,0.4,18.3,0.1,27.5,0.1c0-6.3,0-11.6,0-17.3
		C817.6,571.5,800.7,571.5,783.2,571.5z M857.7,609.7c0,2.6,0,5.1,0,7.5c-0.1,8.6-0.6,17.3,0,25.9c0.3,4.3-0.5,6.1-5.5,5.7
		c-7-0.7-5.2,4-5.4,7.3c-0.2,3.5-0.6,7,5.6,6.8c9-0.3,18.1-0.1,27.2-0.1c9.8,0,9.6-0.1,9.7-8.6c0.1-4-1.7-5.6-5.9-5.6
		c-2,0-4.1-0.5-5.8-0.7c0-17.1-0.1-33.6,0.1-50.1c0-3.9-1.3-5.7-5.8-5.6c-6.9,0.2-13.8-0.2-20.7,0.2c-1.5,0.1-3.6,2.2-4,3.7
		c-0.7,2.5-0.2,5.3-0.2,8c0,3.4,1.4,5.5,5.8,5.1C854,609.2,855.5,609.5,857.7,609.7z M919.5,592.4c-4.3,0-8,0.2-11.5-0.1
		c-5.8-0.5-7.8,1.4-7.7,6.8c0.4,17.5,0,34.9,0.2,52.4c0.1,11.4-2.9,11.1,13,11.3c5.1,0.1,6.1-1.8,6.1-5.8c-0.2-11.3-0.5-22.7,0.4-34
		c0.3-3.8,3.6-9.9,6.6-10.4c10.9-2,14-7.5,12.7-16.4c-0.1-1,0.6-2.1,1.6-5c-5.5,1.4-10.3,1.5-13.5,3.6c-3,2-4.3,6-6.3,9.1
		c-0.5-0.1-1-0.3-1.5-0.4C919.5,600.2,919.5,596.7,919.5,592.4z M866.7,561.8c-0.1,0.3-0.1,0.6-0.2,0.9c-2.6,0-5.2-0.4-7.7,0.1
		c-1.4,0.3-3.3,1.9-3.5,3.1c-2.5,12.3-0.9,14,12.8,13.9c1.5,0,3,0.1,4.5-0.1c1.2-0.2,3.1-0.8,3.1-1.4c0.3-4.7,0.9-9.6-0.2-14.1
		C875.2,563,869.8,562.6,866.7,561.8z"/>
	<path class="st4" d="M959.1,209.8c39.7,0,79.4,0,119,0c9.1,0,9.5,0.3,9.4,8.4c-0.2,15.9-0.5,31.8-1,47.8c-0.2,6.4-1,12.8-1.5,19.2
		c-1,10.4-1.7,20.9-3.1,31.3c-0.8,5.7-2.7,11.3-4,16.9c-1,4.6-1.5,9.3-2.9,13.9c-3.2,10.4-6.8,20.7-10.2,31
		c-0.1,0.2-0.1,0.4-0.1,0.6c-1.9,6.2-3.5,12.6-5.8,18.7c-3.2,8.5-6.3,17.1-10.4,25.3c-5.1,10.3-11,20.3-16.8,30.3
		c-5.2,9-10.3,18-16.1,26.7c-3.4,5.1-8.2,9.4-12.5,14.1c-6.6,7.1-13.2,14.4-20.1,21.3c-3.5,3.5-7.7,6.5-11.6,9.6
		c-2.2,1.8-4.9,3.2-6.8,5.2c-4.6,4.6-6.6,4.5-11.5,0.4c-5.5-4.7-11.8-8.7-17.3-13.4c-4-3.4-7.5-7.3-10.9-11.2
		c-4.8-5.5-9.4-11.1-13.9-16.7c-6.5-8.1-12.9-16.2-19.3-24.3c-0.7-0.9-1.4-1.8-2-2.8c-4.4-7.4-8.9-14.7-13.1-22.1
		c-1.9-3.3-3.3-6.8-4.8-10.2c-1-2.1-1.9-4.3-2.7-6.5c-3.7-9.9-6.1-20.2-11.2-29.4c-6.3-11.3-6-24-11.4-35.2
		c-4.8-10-2.9-20.9-7.4-30.9c-2.8-6.3-2-13.8-3-20.7c-1.7-12.2-3.9-24.4-5.3-36.6c-0.7-6.2,0.1-12.6,0.1-18.9
		c0-11.3,0.2-22.7-0.2-34c-0.2-5.8,2.1-7.6,8.6-7.6C879.3,209.9,919.2,209.8,959.1,209.8z M1076.9,224.9c-2.7-0.1-4.4-0.3-6.1-0.3
		c-73.7,0-147.5,0-221.2-0.2c-6.1,0-8.8,1.5-8.2,7.2c1,10.1,3,20.3,2,30.3c-2,20.4,4.5,39.8,6.5,59.7c1,9.7,4.5,19.3,7.1,28.9
		c3,11.1,5.5,22.3,9.5,33.1c4.6,12.3,10.6,24.1,16,36.2c10,22.3,22.5,43.3,40,61.9c10.4,11,19.9,22.6,32.3,32
		c4.4,3.3,6.8,3.2,10.5-0.4c8.9-8.6,18.6-16.5,27.1-25.4c7.1-7.4,13.5-15.5,19-23.9c7.8-12,15-24.4,21.4-37
		c6.9-13.6,13.6-27.5,18.7-41.7c5.2-14.3,8.8-29,12.3-43.7c3.7-15.4,7.4-30.9,9.5-46.5c2.2-16.5,2.5-33.3,3.4-49.9
		C1077.2,238.5,1076.9,232,1076.9,224.9z"/>
	<path class="st4" d="M953.5,662.9c0-24,0-46.7,0-70c5.4,0,10.6,0,16.1,0c0.3,2.7,0.5,5.2,0.9,8.9c3-1.7,5.7-2.7,7.6-4.4
		c8.4-7.6,24.8-7.2,32.3,1.1c1.2,1.3,1.5,3.2,2.5,5.7c2.7-2,5.6-3.5,7.5-5.6c7.4-8.4,18-7.9,26.8-5.3c9,2.6,12.7,10.5,12.2,19.8
		c-0.7,14.5-0.4,29.2,0,43.7c0.2,5.6-2.7,6.3-7.8,6.1c-4.6-0.2-9,0.6-8.7-5.9c0.4-11.3,0.2-22.6-0.2-34c-0.2-4.2-0.5-9-2.7-12.6
		c-3.4-5.7-9.2-6.2-17.3,0.6c-6,5.1-7.5,11.7-7.7,18.6c-0.2,9-0.3,18,0,27c0.2,4.9-1.9,6.3-7.2,6.1c-11.7-0.3-9.6,0.1-9.7-8.8
		c-0.1-11.7-0.4-23.4,0.1-35.1c0.3-5.8-4.7-8.5-7.8-12.1c-2.1-2.5-12.2,1.2-15.1,5.9c-2.7,4.5-4.9,9.7-5.4,14.7
		c-0.8,9.5-0.5,19.2-0.1,28.8c0.2,5-1.4,7.2-7.2,6.5C960,662.6,957,662.9,953.5,662.9z"/>
	<path class="st4" d="M1135.2,661.9c-13.2,2.8-15.3,1.8-17.4-8.8c-2.8,3.6-4.5,6.7-7.2,8.8c-7.1,5.9-17.8,5.8-24.5-0.8
		c-5.3-5.2-9.5-11.4-9.8-18.9c-0.2-7.3-0.4-14.6-0.4-21.8c0.1-13.1,14.4-29.8,31.5-28.1c6.6,0.7,13.3,0,20,0.2
		c4.7,0.1,7.7,1.7,7.7,6.5C1135.2,619.8,1135.2,640.7,1135.2,661.9z M1091,629.4c0.6,0.1,1.2,0.3,1.8,0.4c0,3.4-0.2,6.9,0,10.3
		c0.4,5.1,3.4,8,9.4,8c5,0.1,12.3-5.6,13.5-11.6c1.4-7,1.9-14.1,2.7-21.2c0.6-4.6-2.1-7.7-6.8-8.9c-4.5-1.2-13.6,1.9-14.8,4.9
		C1094.7,617.3,1092.9,623.4,1091,629.4z"/>
	<path class="st4" d="M783.2,571.5c17.5,0,34.4,0,51.6,0c0,5.7,0,11,0,17.3c-9.2,0-18.4,0.3-27.5-0.1c-6.4-0.3-9,1.6-8.3,7.5
		c0.5,4.1,0.1,8.3,0.1,13.4c8.4,0,16.1,0.1,23.7,0c4.9-0.1,6.9,1.3,6.8,6c-0.5,12.8,1.9,11.4-12.6,11.5c-18,0.2-18,0.1-18,15.9
		c0,5.2-0.1,10.4,0,15.5c0.1,3.2-1.5,4.3-5,4.5c-10.7,0.6-10.8,0.6-10.8-8.9c0-25.3,0-50.6,0-75.9
		C783.2,576,783.2,573.9,783.2,571.5z"/>
	<path class="st4" d="M857.7,609.7c-2.2-0.2-3.7-0.5-5.1-0.4c-4.4,0.4-5.8-1.7-5.8-5.1c0-2.7-0.5-5.5,0.2-8c0.4-1.5,2.5-3.6,4-3.7
		c6.9-0.4,13.8-0.1,20.7-0.2c4.5-0.1,5.9,1.7,5.8,5.6c-0.2,16.5-0.1,32.9-0.1,50.1c1.8,0.2,3.8,0.7,5.8,0.7c4.3,0,6,1.6,5.9,5.6
		c-0.1,8.5,0.1,8.5-9.7,8.6c-9.1,0-18.1-0.2-27.2,0.1c-6.2,0.2-5.8-3.3-5.6-6.8c0.2-3.3-1.6-8,5.4-7.3c5,0.5,5.8-1.3,5.5-5.7
		c-0.6-8.6-0.1-17.2,0-25.9C857.7,614.8,857.7,612.3,857.7,609.7z"/>
	<path class="st4" d="M919.5,592.4c0,4.3,0,7.8,0,11.3c0.5,0.1,1,0.3,1.5,0.4c2-3.1,3.3-7.1,6.3-9.1c3.2-2.1,7.9-2.3,13.5-3.6
		c-1,2.9-1.8,4-1.6,5c1.3,8.9-1.8,14.3-12.7,16.4c-3,0.6-6.3,6.7-6.6,10.4c-0.9,11.3-0.6,22.6-0.4,34c0.1,4-1,5.9-6.1,5.8
		c-15.9-0.2-12.9,0.1-13-11.3c-0.1-17.5,0.2-35-0.2-52.4c-0.1-5.4,1.9-7.3,7.7-6.8C911.6,592.6,915.2,592.4,919.5,592.4z"/>
	<path class="st4" d="M866.7,561.8c3.1,0.8,8.6,1.1,8.9,2.4c1.1,4.5,0.5,9.4,0.2,14.1c0,0.5-2,1.2-3.1,1.4c-1.4,0.2-3,0.1-4.5,0.1
		c-13.7,0-15.4-1.7-12.8-13.9c0.3-1.2,2.1-2.8,3.5-3.1c2.4-0.5,5.1-0.1,7.7-0.1C866.5,562.4,866.6,562.1,866.7,561.8z"/>
	<path class="st4" d="M939.6,297.4c2.8,1.1,4.7,1.8,6.7,2.6c0.9,5.8,1.5,11.4,8.6,14.6c3.9,1.7,10,1.3,12.9-1.9
		c5.5-6,4.7-16.7-8.1-20c-1.7-0.4-3.9-2.6-3.9-4c-0.3-11.7-0.3-23.4,0-35.1c0-1.5,1.8-4.2,3-4.3c8.6-0.6,17.4-0.8,24.9,4.1
		c5.5,3.6,11.3,7,15.8,11.4c3.9,3.8,6.3,8.8,9.1,13.3c7.8,12.5,6.2,26.2,6.1,39.6c0,2.8-2.1,5.6-3.3,8.3
		c-3.4,8.1-6.1,16.6-14.1,22.4c-3.3,2.4-3.7,7.2-9.2,8c-1,0.1-1.6,4.5-1.6,6.8c-0.1,24.8,0.1,49.5,0.1,74.3c0,6.1-3.1,11-7.4,15.6
		c-3.6,3.9-6.4,8.5-9.7,12.7c-5.4,6.9-19.8,5.5-24-1.9c-3.7-6.5-8.8-12.3-12-19c-3.6-7.6-3.6-18.4,5-24.5c1.1-0.8,1.2-4.8,0.2-5.5
		c-9.9-6.3-7.1-15.5-6.7-23.8c0.2-3.1,4.1-6,6.1-9.1c1.6-2.5,3-4.3-1.3-6.9c-3-1.8-4.8-6.6-5.1-10.2c-0.5-5.7-2.1-9.7-6.7-14.3
		c-6.6-6.7-12.3-14.5-16-23.6c-4.7-11.7-2.3-23.2-2.5-34.6c-0.1-6.5,5.5-13.2,9.1-19.6c2.2-3.9,5.1-7.6,8.4-10.8
		c1.8-1.8,5-3.2,7.6-3.3c1.2-0.1,3.7,3.3,3.8,5.2c0.1,1.8-2.2,3.7-3.6,5.5c-2.6,3.4-5.5,6.6-7.9,10c-1.8,2.6-3.1,5.5-4.6,8.4
		c-5.3,10.1-2.5,20.7-2.2,31.1c0.1,3.9,4.7,7.4,5.8,11.5c1.7,6.6,6.3,11.3,12,14.8c6.6,4.2,6.3,9.6,7,15.7c0.5,4.2,4.3,8.2,6.6,12.2
		c3.7,6.4,2,15.4-4.1,20c-4.1,3.1-3.3,6-1.2,9.9c2.9,5.2,5,10.7,7,16.2c2.1,5.8-5,8.2-6.6,12.8c-0.8,2.4-2.7,5.5-1.7,7.2
		c3.9,6.3,8.6,12.3,13.3,18.2c2.3,2.8,5.4,3.1,7.8-0.2c2.9-3.9,5.1-8.3,8.5-11.8c8.4-8.4,4.6-18.3,4.9-27.5
		c0.5-20.2,0.6-40.3-0.1-60.5c-0.2-7.1,4.8-9.6,9.3-13.3c3-2.4,5.8-5.1,8.3-7.9c2.6-3.1,4.9-6.5,7.1-10c4.8-7.6,2.1-16.1,3.3-24.1
		c1.3-8.2-1.8-15.7-6.3-21.9c-4.9-6.8-9.3-15.4-20.4-16.7c-0.8-0.1-1.4-1.6-2.3-1.8c-2.4-0.5-5.2-1.3-7.2-0.5
		c-1.5,0.5-2.5,3.2-2.7,5.1c-0.4,3,0.1,6.2-0.2,9.2c-0.5,5,0.9,8.3,6.3,11.1c8.8,4.5,12.1,18.6,7.3,26.7c-0.4,0.7-0.5,1.5-1,2.1
		c-2.5,3.2-4.6,8.4-7.9,9.1c-6.9,1.5-14.5,0.6-21.8,0.5c-0.8,0-1.8-1-2.3-1.8c-3.5-5.8-7.5-11.6-8.5-18.2
		C936.7,302.6,938.6,300,939.6,297.4z"/>
</g>
</svg>
