<?xml version="1.0" encoding="utf-8"?>
<!-- Generator: Adobe Illustrator 25.0.0, SVG Export Plug-In . SVG Version: 6.00 Build 0)  -->
<svg version="1.1" id="Ebene_1" xmlns="http://www.w3.org/2000/svg" xmlns:xlink="http://www.w3.org/1999/xlink" x="0px" y="0px"
	 viewBox="0 0 1920 1080" style="enable-background:new 0 0 1920 1080;" xml:space="preserve">
<style type="text/css">
	.st0{fill:#030203;}
	.st1{fill:#055461;}
	.st2{fill:#FAFCD8;}
	.st3{fill:#E7D4C5;}
	.st4{fill:#052B30;}
	.st5{fill:#023035;}
	.st6{fill:#04444E;}
	.st7{fill:#02343A;}
	.st8{fill:#02383E;}
	.st9{fill:#023C44;}
	.st10{fill:#034048;}
	.st11{fill:#044751;}
	.st12{fill:#03424B;}
	.st13{fill:#F8F9D6;}
	.st14{fill:#03454E;}
	.st15{fill:#023E46;}
	.st16{fill:#080405;}
	.st17{fill:#023136;}
	.st18{fill:#023940;}
	.st19{fill:#02363C;}
	.st20{fill:#024149;}
	.st21{fill:#EEEECA;}
	.st22{fill:#F5FBD4;}
	.st23{fill:#025665;}
	.st24{fill:#1C1F23;}
	.st25{fill:#101521;}
	.st26{fill:#F8FCD8;}
	.st27{fill:#F2F7D0;}
</style>
<rect x="-32.1" y="-44.2" width="1998.5" height="1194.9"/>
<g>
	<path class="st0" d="M283.3,1080c0-10.2,1.4-20.6-0.3-30.5c-2.9-17.2,4.9-29.2,17.1-38.8c17.4-13.7,34.8-27.8,53.8-39
		c11.7-7,26.4-9,39.7-13.3c29.3-9.5,58.7-18.4,87.7-28.7c35.9-12.8,71.3-26.8,107-40.1c36.5-13.7,72.2-29.8,111-36.6
		c4.4-0.8,8.8-1.8,13.2-2.7c21.7,0.1,21.7,0.1,27.7-15.4c4.2,0.3,8.4,0.3,12.5,1c3.7,0.7,7.2,2.2,10.8,3.3c0.1,2.5,0.3,5,0.4,7.9
		c3.3-0.8,5.5-1.3,7.8-1.9c14-2.1,28-4.2,42-6.3c6.5-0.7,14.4,0.2,12.5-10.3c-1.4-7.7-3.1-15.4-4.6-23.1c-0.5-7.8-1-15.5-1.5-23.3
		c1.9-3.1,3.2-6.8,5.8-9.1c7.7-6.9,11.6-15,8.5-25.1c-1-3.1-4.2-6.7-7.2-7.7c-2.1-0.7-5.8,2.3-8.4,4.2c-5.2,3.9-10.2,8.2-15.2,12.3
		c-8.6-2.2-17.1-4.5-25.7-6.7c-0.7-7.3-1.5-14.6-2.2-21.8c-5.7,0.3-10.2,0.6-14.6,0.9c0-2.2,0-4.4,0-6.6c5-0.2,9.9-0.5,15.6-0.7
		c-0.4-4.8-1.1-9.2-1-13.6c0-1.6,1.9-3.1,2.9-4.6l-0.5-0.1l0.3,0.4c-6.6,5.9-13.2,11.7-19.8,17.6c-6.9,3.2-13.8,6.5-20.7,9.7
		c-5,1.4-9.9,2.8-14.9,4.2c-8.9,0.2-17.9,0.6-26.8,0.6c-12.2,0-24.4-0.2-36.6-0.4c-4.9,2.1-9.8,4.2-14.6,6.4
		c-3.8-0.5-7.5-0.8-11.3-1.4c-11.7-2.1-23.3-8.7-35.3-1.1c-9.1,2.2-18.2,4.3-28.6-1c5-3.7,8.5-6.3,11.9-8.9
		c4.9-2.9,9.7-5.8,14.6-8.8c2.2-0.7,4.3-1.4,6.5-2.1c2.7-0.8,5.5-1.6,8.2-2.4c2.9-1.2,5.8-2.5,8.7-3.7c3.5-0.8,6.9-1.7,10.4-2.5
		c4.2-0.8,8.4-1.5,12.7-2.3c12.7-3.4,25.5-6.7,38.2-10.1c5.7,0.6,8.8-2,9.2-7.7c3.5-0.3,7.6,0.4,10.4-1.1c4.7-2.6,8.7-6.5,12.8-10.1
		c15-13.2,31.7-24.7,41.5-43.1c3.4-6.3,8.6-12.7,14.7-16.4c9.9-6,21.2-9.8,31.8-14.5c22.5-3.7,45-7.4,67.6-11.2
		c6.3-2,12.7-3.9,19-5.9c25.6-7.6,46.1-23.9,66.4-40.2c6.5-5.2,10.4-13.5,15.5-20.4c8.8-3,10-9.7,9-17.7c3.5-3.5,7-7.1,10.6-10.6
		c3-1.5,6.2-2.7,9.1-4.5c10.1-6.1,19.3-15.2,30.2-17.9c21.9-5.4,34.9-20.9,48.6-36.1c8.5-9.4,17.1-12.3,25.2-7.1
		c9.9,6.3,17.5,24.6,13.5,33.1c-3.7,7.9-7.7,15.6-11.6,23.4c-5.3,10.7-6.5,22.2-4.7,33.7c2.1,13.2,4.9,26.3,8.1,39.2
		c1.6,6.5,5.1,12.6,6.7,19.1c0.9,3.6,1.1,8.2-0.4,11.4c-6,13.6-12.5,27.1-19.3,40.3c-2.5,4.9-6.5,9.1-9.5,13.9
		c-5.3,8.6-13,16.8-15,26.2c-4.7,21.8-6.5,44.2-9.6,66.4c-7.7,7.4-6.9,16.2-3.9,25.2c0.1,2.1,0.1,4.2,0.2,6.4
		c1.4,3.5,2.7,7,4.1,10.6c2,2.9,4.1,5.8,6.1,8.6c0.2,3.9,0.4,7.9,0.7,12.7c5.7-1,10-1.8,14.3-2.6c13.4-2.1,26.8-4.1,40.1-6.2
		c13.4-2.1,26.8-4.2,40.2-6.3c22.6-6.1,45.2-12.2,67.8-18.2c11.2-3.8,22.5-7.6,33.7-11.4c17.7-6.9,35.3-13.9,53-20.8
		c5.2-2.1,10.5-4.2,18.3-7.3c-4.2,23-8,43.3-11.7,63.7c-1.5,2.3-4.2,4.5-4.3,6.9c-1.1,16.1-4.1,32.6-1.5,48.1
		c1.9,11.2,10.9,21.4,17.7,31.5c7,10.4,14.9,20.2,22.6,30.1c3.8,4.9,8,9.6,12.1,14.2c20.6,23.1,41.9,45.7,61.6,69.5
		c13.7,16.6,26,34.6,37.5,52.8c6.3,10,9.8,21.7,14.6,32.6C1083.5,1080,683.4,1080,283.3,1080z M1026.9,752
		c-1.1-15.4-2-30.7-3.4-46.1c-0.2-2.4-2.7-4.6-4.1-6.9c-1.5,2-3.9,3.7-4.4,5.9c-1.6,6.4-2,13.1-3.6,19.5
		c-2.7,10.7-6.1,21.2-9.2,31.7c-1.8,8.1-5,16.1-5.1,24.2c-0.2,17.1,16.1,22.5,25.8,32.3c3.7,3.7,14-2.1,14.3-7.9
		c0.3-5.1-1.2-10.3-2.3-15.4C1032.3,776.8,1029.6,764.4,1026.9,752z M982.8,792.6c-1.5-4.9-3-9.8-4.5-14.8c-2.1-6.5-4.2-13-6.4-19.5
		c-0.5-12.6-1.2-25.3-1.4-37.9c-0.2-10.9-7.2-19.4-15.2-21.5c-18-4.7-37-5.9-54.9-8.5c-5.7,18.3-10.5,34.8-16.1,51.1
		c-2.1,6.1-6.3,11.6-9.5,17.4c-9.2,7-18.3,14-27.5,21c-1.9,3.6-3.9,7.2-5.8,10.7c1.3,4.2,2.6,8.4,3.9,12.6c1.4,7.5,3.5,15,4,22.6
		c0.5,6.6,3.6,7.6,8.9,6.5c2.7-0.5,5.5-1.2,8.2-1.5c35.8-2.9,71.5-6.1,107.3-8.3c9.9-0.6,12.2-4.5,10.9-13
		C984.1,803.9,983.4,798.2,982.8,792.6z"/>
	<path class="st1" d="M740.2,834.8c-6,15.4-6,15.4-27.7,15.4c-26.8-9.3-54.3-17-80.2-28.2c-41.4-17.9-82.6-36.4-118.7-64.3
		c-20.7-16-42.3-30.9-61.7-48.3c-16.8-15-31.4-32.7-46.7-49.4c-16.6-18.1-28.3-39.3-40.2-60.7c-18.3-33.1-27.6-68.4-33.8-105.6
		c-3.7-22.5-4.8-44.8-2.7-66.7c2.4-24.5,10.2-48.5,15.9-72.7c1.3-5.8,2.4-11.9,5.1-17.1c14.4-27.6,27.1-56.4,44.6-82
		c23.6-34.4,52.9-64.6,87.1-89.1c29.2-20.9,58.2-42.3,89.2-60.4c36.9-21.5,76.2-38.7,117.8-49.2c41.3-10.3,82.8-21,124.8-28.2
		c61.8-10.6,124.6-11.3,187.1-8.8c67.5,2.6,133.9,14,198.5,33.6c41.2,12.5,82.3,25.6,119.4,48.4c29.9,18.3,61.1,34.7,89.4,55.1
		c22.2,16,41.4,36.3,60.9,55.7c12.4,12.3,24.3,25.6,34.2,40c12.1,17.6,22.5,36.5,32.4,55.5c8.3,15.9,16.1,32.4,21.7,49.4
		c4.9,14.9,7.2,30.8,9,46.4c2.4,21.8,5.5,43.8,4,65.5c-1.8,25.9-5.8,52.1-12.9,77.1c-8.5,30-23.3,58-40.2,84.1
		c-12.7,19.6-29.3,36.9-45.3,54.1c-14.4,15.6-29.7,30.5-45.7,44.4c-28,24.3-58.7,44.8-91.4,62.2c-3.2,1.7-7.2,2.2-10.8,3.2
		c3.7-20.4,7.5-40.7,11.7-63.7c-7.8,3.1-13.1,5.2-18.3,7.3c0.2-2-0.5-5,0.6-5.9c6.3-5.4,13.1-10.4,19.7-15.5
		c15.4-11.9,31.6-23,45.9-36.1c14-12.8,26.9-27,38.8-41.8c11.1-13.8,21.5-28.6,29.8-44.2c8.2-15.5,12.5-33.1,20.1-49
		c11.5-24.2,17.6-49.6,20.2-75.9c4.5-44.7-8.2-86.2-24.6-126.9c-2.1-5.3-6-10-9.1-14.9c-1.4-2.1-2.8-4.3-4.2-6.4
		c-2.1-4.2-4.2-8.5-6.3-12.7c-1.4-2.1-2.8-4.2-4.2-6.3c-10.1-25.4-27.9-45.6-45.6-65.6c-25.6-28.9-55.6-53.2-87.7-74.1
		c-25.3-16.5-52.4-31.4-80.5-42.4c-36-14.1-73.5-25-111-34.5c-29.4-7.5-59.7-12.6-89.9-15.3c-33.2-3-66.7-1.4-100.1-2.8
		c-39.6-1.6-78.1,6.6-116.8,12.4c-42.4,6.3-82.8,20-123,34.2c-17.1,6.1-34.4,12.6-50.2,21.4c-28.9,16.1-56.7,34.1-85,51.3
		c-25.4,15.4-46.2,36.1-63.5,59.7c-17.6,23.9-33.7,49.2-47.7,75.3c-10.2,19-16.1,40.4-23.9,60.8c-0.3,2.8-0.2,5.7-1.1,8.3
		c-8.5,23-8.5,47.4-8.7,71.1c-0.2,19,3.7,38.8,9.7,56.9c8.5,25.9,18.7,51.7,31.8,75.6c13.5,24.6,30.3,47.4,51.2,67
		c23.3,21.9,46.3,43.8,73.7,60.6c2.7,1.6,4.3,5,6.4,7.6c-3.5,2.6-7,5.2-11.9,8.9c10.4,5.3,19.5,3.2,28.6,1c0.3,1,0.3,2.5,1,2.9
		c15.5,8.4,30.6,17.8,46.8,24.6c34.1,14.3,68.8,27.1,103.2,40.5C746.2,816.6,743.2,825.7,740.2,834.8z"/>
	<path class="st2" d="M801.2,604.7c-10.7,4.7-21.9,8.5-31.8,14.5c-6,3.6-11.3,10-14.7,16.4c-9.8,18.5-26.5,29.9-41.5,43.1
		c-4.1,3.6-8.1,7.5-12.8,10.1c-2.8,1.6-6.9,0.8-10.4,1.1l-0.2,0.3c-1.7-0.3-3.4-0.6-5-1c-2.3-0.8-4.9-1.1-6.8-2.5
		c-23.6-17.6-47.4-35-70.4-53.3c-26.6-21.1-47.6-47.7-62.1-78c-11.2-23.3-19.1-48.7-24.8-74c-8.4-37.8-0.8-75.1,12.4-110.9
		c9-24.3,21.7-46.9,37.8-67.3c17.4-22,35.9-43.3,58.4-60.1c31.7-23.6,64.7-45.5,102.5-58.4c29.3-10,58.6-20.6,88.7-27.8
		c53.3-12.7,107.8-15.4,162.4-13.1c46,2,91.2,9.8,135.4,22.5c32.1,9.2,62.9,21.6,92.3,37.8c39,21.5,74.3,47,103.9,80.8
		c20.5,23.5,38,48.9,49.7,77.2c8.3,20.1,16.9,41.1,16.6,64c-0.3,25.8,4.5,51.8-6.8,76.9c-7,15.5-10.7,32.5-17.3,48.2
		c-4.9,11.7-10.8,23.3-18.4,33.3c-10.7,14-23.7,26.3-35.3,39.6c-18.5,21.2-40.9,37.8-64.9,51.7c-23.5,13.6-48.2,25.3-72.4,37.7
		c-31.6,16.1-66,23.9-100.1,32.2c-6.1,1.5-4.9-2.7-5-6c3-22.2,4.9-44.6,9.6-66.4c2-9.4,9.7-17.6,15-26.2c2.9-4.8,6.9-8.9,9.5-13.9
		c6.8-13.3,13.3-26.7,19.3-40.3c1.4-3.3,1.3-7.9,0.4-11.4c-1.7-6.5-5.2-12.5-6.7-19.1c-3.2-13-6-26.1-8.1-39.2
		c-1.8-11.5-0.6-23,4.7-33.7c3.8-7.8,7.9-15.5,11.6-23.4c4-8.5-3.6-26.8-13.5-33.1c-8.2-5.2-16.8-2.3-25.2,7.1
		c-13.7,15.2-26.7,30.7-48.6,36.1c-10.9,2.7-20.1,11.8-30.2,17.9c-2.9,1.7-6.1,3-9.1,4.5c1.2-3.5,2.5-6.9,3.2-9
		c-5-17-19-19.4-32.5-22.1c-7.5-1.5-15.5-1-22.9-3c-4.7-1.3-11.1-4.6-12.3-8.3c-2.2-7.1,4.8-9.6,10.4-10c13.2-1,20.3-9.2,27-21.1
		c-14.7-3.3-28.3-6.3-42-9.3c0-1,0-1.9-0.1-2.9c11.5-4.4,18-18.9,36.4-16.4c-4.8,3.2-7.1,4.7-9.5,6.2c13.3-1.2,28.6,2.3,36.5-11.9
		c5.3-9.4,8.1-20.3,11.7-30.6c0.5-1.4-0.1-3.8-1.1-4.9c-7.9-9.1-14.9-19.7-29.2-19.5c-2.5,0-5-1.3-7.5-2.1c0.1-0.5,0.2-0.9,0.3-1.4
		c8.7,0,17.5,0,25.3,0c-0.8-6.3-1.5-12.4-2.2-18.4c1-0.2,2-0.3,3-0.5c6.3,11,13.7,21.5,13,35.4c0.6-2.4,1.3-4.7,2.2-8.4
		c7.3,8.4,13.6,15.7,20.1,22.8c1.1,1.2,3.1,1.5,4.7,2.2c5.5,2.2,11,4.6,16.6,6.6c15.5,5.4,31,12.5,47.6,4c5.5-2.8,10.7-6,17-9.6
		c0.5,16.3,10.1,21.9,25.2,20.3c-0.7,9.2,4,12.3,11.3,12.9c3.8,0.3,7.7,0.9,11.4,1.7c7.3,1.7,16,1.8,21.3,6
		c7.9,6.2,13.1,15.6,20,23.2c4.2,4.6,8.9,9.2,14.3,12.3c12.5,7.3,21,17.4,27,30.6c6.6,14.3,14.3,28.2,21.5,42.2
		c1.6,0.9,3.2,1.8,4.7,2.8c2.7-4.4,6.1-8.5,8.1-13.2c4.9-11.8,11-23.5,13.3-35.9c3.4-18.1,5.6-36.8,5.2-55.2
		c-0.4-20.4-2.3-41.4-13.7-59.5c-8.2-13-17.2-25.5-25.6-38.4c-9.5-14.6-28.7-21.7-32-41.1c-0.3-1.9-1.9-4.2-3.5-5
		c-9.8-4.7-19.9-9-29.9-13.4c5.2-6.9,7.4-13.5-1.7-19.2c-10-6.3-20.1-12.5-29.9-19.3c-11.3-7.8-23.4-9.3-36.1-5.3
		c-3.8,1.2-9.8,4.8-9.8,7.2c0.1,5.9,1.4,15.2,5.2,17c18.6,9,36.9,19.6,58.5,20.4c3,0.1,6,2.1,9,3.2c-2.6,2.7-4.7,6.1-7.8,8
		c-7.5,4.6-15.4,8.5-23.9,13.1c-3.7-1-10.8-5.3-14.8-3.4c-7.5,3.7-10.4-0.9-14.3-4.3c-20.4-18-45.9-22.8-71.3-26.9
		c-7.7-1.2-16.3,0.9-18.5,12.4c-1.6,8.4-9.2,9.9-16.3,5c-5.4-3.7-8.4-10.3-12.4-13.9c-10-9-22.6-16.7-35.5-20.6
		c-22.3-6.7-45.7-9.9-68.5-15.2c-6.5-1.5-12.3-5.5-18.5-8.3c-9.8-4.4-19.1,0.9-28.6,1.5c-12.2,0.8-22.2,5.4-32.4,10.8
		c-22.3,11.7-44.8,22.8-66.9,34.8c-6.2,3.4-12,8.4-16.6,13.8c-8.7,10.4-14.6,23.9-24.9,32.1c-13.8,11.1-14.2,26.3-16.2,40.3
		c-2.7,18.4-0.8,37-8.4,55.2c-4.7,11.4-9.5,21.2-18.6,29.4c-5,4.6-9.1,3.6-12.5-0.7c-10.2-12.5-20.2-25.3-29.9-38.2
		c-3.9-5.1-7-10.7-11.5-17.7c-3.4,8.2-6.8,14.3-8.4,20.9c-5.2,21.4-5,43.4-1.2,64.6c2.9,16.5,9.1,33.3,17.8,47.6
		c9.8,16.1,22.8,30.8,36.6,43.7c13.7,12.7,28.9,25.2,45.7,32.6c21.6,9.5,45.4,14.1,68.4,20.3C780.1,600.9,790.7,602.6,801.2,604.7z"
		/>
	<path class="st3" d="M801.2,604.7c-10.5-2.2-21.1-3.8-31.5-6.6c-23-6.2-46.8-10.8-68.4-20.3c-16.8-7.4-32.1-19.9-45.7-32.6
		c-13.8-12.9-26.8-27.6-36.6-43.7c-8.7-14.3-14.8-31.1-17.8-47.6c-3.8-21.2-4-43.2,1.2-64.6c1.6-6.5,5-12.6,8.4-20.9
		c4.5,7,7.6,12.7,11.5,17.7c9.8,12.9,19.7,25.6,29.9,38.2c3.5,4.2,7.5,5.3,12.5,0.7c9-8.2,13.9-18.1,18.6-29.4
		c7.6-18.3,5.7-36.9,8.4-55.2c2-13.9,2.4-29.2,16.2-40.3c10.2-8.2,16.2-21.7,24.9-32.1c4.6-5.5,10.4-10.4,16.6-13.8
		c22.1-12,44.6-23.1,66.9-34.8c10.3-5.4,20.2-10,32.4-10.8c9.5-0.6,18.7-5.9,28.6-1.5c6.2,2.8,12,6.7,18.5,8.3
		c22.8,5.3,46.1,8.5,68.5,15.2c12.9,3.9,25.5,11.6,35.5,20.6c4,3.6,7,10.1,12.4,13.9c7.1,4.9,14.7,3.4,16.3-5
		c2.1-11.5,10.8-13.6,18.5-12.4c25.4,4.1,50.9,8.9,71.3,26.9c3.9,3.5,6.8,8,14.3,4.3c4-1.9,11,2.4,14.8,3.4
		c8.5-4.6,16.5-8.5,23.9-13.1c3.1-1.9,5.2-5.3,7.8-8c-3-1.1-5.9-3.1-9-3.2c-21.6-0.8-39.9-11.4-58.5-20.4c-3.8-1.8-5.2-11.2-5.2-17
		c0-2.4,5.9-6,9.8-7.2c12.7-4,24.8-2.5,36.1,5.3c9.7,6.7,19.9,12.9,29.9,19.3c9,5.7,6.9,12.3,1.7,19.2c10.1,4.5,20.1,8.7,29.9,13.4
		c1.6,0.8,3.2,3.2,3.5,5c3.4,19.5,22.5,26.5,32,41.1c8.4,12.9,17.4,25.4,25.6,38.4c11.4,18.2,13.3,39.1,13.7,59.5
		c0.4,18.4-1.8,37.1-5.2,55.2c-2.3,12.4-8.4,24.1-13.3,35.9c-2,4.7-5.4,8.8-8.1,13.2c-1.6-0.9-3.2-1.8-4.7-2.8
		c-7.2-14.1-14.9-27.9-21.5-42.2c-6-13.1-14.5-23.3-27-30.6c-5.3-3.1-10.1-7.7-14.3-12.3c-6.9-7.6-12.1-17.1-20-23.2
		c-5.4-4.2-14.1-4.3-21.3-6c-3.7-0.9-7.6-1.4-11.4-1.7c-7.3-0.7-12-3.7-11.3-12.9c-15.1,1.6-24.7-3.9-25.2-20.3
		c-6.3,3.6-11.5,6.8-17,9.6c-16.6,8.4-32.1,1.4-47.6-4c-5.6-2-11.1-4.4-16.6-6.6c-1.6-0.7-3.7-1-4.7-2.2
		c-6.5-7.1-12.8-14.5-20.1-22.8c-1,3.6-1.6,6-2.2,8.4c0.7-13.9-6.7-24.4-13-35.4c-1,0.2-2,0.3-3,0.5c0.7,6,1.4,12.1,2.2,18.4
		c-7.8,0-16.5,0-25.3,0c-0.1,0.5-0.2,0.9-0.3,1.4c2.5,0.7,5,2.1,7.5,2.1c14.3-0.2,21.2,10.5,29.2,19.5c1,1.1,1.6,3.5,1.1,4.9
		c-3.6,10.3-6.4,21.2-11.7,30.6c-8,14.2-23.3,10.7-36.5,11.9c2.3-1.5,4.7-3.1,9.5-6.2c-18.4-2.5-24.9,12-36.4,16.4
		c0,1,0,1.9,0.1,2.9c13.6,3,27.3,6.1,42,9.3c-6.7,12-13.7,20.1-27,21.1c-5.6,0.4-12.7,3-10.4,10c1.2,3.8,7.7,7.1,12.3,8.3
		c7.4,2,15.3,1.5,22.9,3c13.5,2.7,27.5,5.1,32.5,22.1c-0.7,2.1-2,5.5-3.2,9c-3.5,3.5-7,7.1-10.6,10.6c-5.2,1.4-10.4,2.5-15.4,4.3
		c-2.8,1-5.2,3.1-7.8,4.6c2.4,2.6,4.5,5.6,7.3,7.5c1.8,1.2,4.6,0.9,7,1.2c-5.1,6.9-9,15.3-15.5,20.4c-20.3,16.3-40.8,32.6-66.4,40.2
		c0-10.9-4.3-19.8-13.9-25c-3.2-1.8-9.6-2-12,0c-2.8,2.4-4.9,8.6-3.7,12c2.2,6.7,6.9,12.6,10.5,18.8
		C846.2,597.3,823.7,601,801.2,604.7z M830.7,511.4c-0.3-0.1-0.6-0.3-0.8-0.4C830.1,511.2,830.4,511.3,830.7,511.4
		c3.7,6.5,5.9,16.3,11.4,18.7c8.6,3.6,19.3,2.2,29.1,2.9c-0.1-2.3-1.9-3.3-3.7-4.2C855.2,523,842.9,517.2,830.7,511.4z M825.4,431.5
		c5.6-2.4,10.1-4.3,14.8-6.3c0.9-4.2,1.8-8.6,2.7-13c1.6-7.7-2.2-9.9-8.8-7.7c-2.7,0.9-5.3,3.2-7.3,5.5
		c-14.1,16.1-30.7,28.1-52.3,31.6c-4.3,0.7-8.7,0.7-13.4,1.1c-0.2,13.2,9.2,18.4,16.9,23.4c11.2,7.4,23.7,10.9,36.2,1.8
		c3.6-2.7,6.5-6.3,10-9C835.2,450.4,836,444.3,825.4,431.5z M1144.5,309.1c-1.7,0.4-3.3,0.7-5,1.1c-1.9,20.6-3.8,41.1-5.8,61.7
		c1,0.3,1.9,0.5,2.9,0.8c1.7-2.2,3.4-4.4,6.3-8.2c4.9,6.3,9.1,11.6,13.6,17.4c0.6-0.2,1.9-0.4,3.2-0.9c4.2-1.4,8.5-2.9,12.7-4.3
		c-2.4-3.7-4.3-7.9-7.3-11.1c-10.2-11-19.3-21.7-15.9-38.7C1150.3,321.3,1146.3,315,1144.5,309.1z M869,484.2
		c14.8,3.3,29.7,5.6,43.9,10.2c13.7,4.4,26.7,11.2,40.5,17.1c-2.8-3.6-4.9-6.1-6.8-8.8c-8-11.6-18-20.5-32.5-22.7
		c-11.4-1.8-23-2.5-34.2-5C872.4,473.4,870.5,476.5,869,484.2z M842.7,284.6c0.7-10.2,4.4-20.5,0.8-24.8c-3.7-4.4-14.4-3-22-4
		c-0.7-0.1-1.4,0-2.1,0c-6.5,0.5-7.2,4.7-3.8,8.5c2.7,3,7.9,6.5,11.2,5.8c11.3-2.4,10.6,3,9.3,10.9c-1.6,10.3-2.9,20.8-2.9,31.2
		c0,3,4.9,6,7.5,9c1.5-3.3,4.3-6.6,4.2-9.8C844.7,301.6,843.4,291.8,842.7,284.6z M724.1,486.1c3,7.5,5.3,13.7,8,19.6
		c0.6,1.4,2.3,2.6,3.8,3.2c6.3,2.5,23.2-3.5,25-10.5c0.8-3.2-4.9-8.2-7.9-12.2c-0.7-0.9-2.2-1.2-2.1-1.2c-4.1,1.8-7,4.2-9.9,4
		C735.4,488.8,729.8,487.2,724.1,486.1z M925.5,555.2c0.3-11.4-22.5-29.5-31.4-26.1c-2.1,0.8-4,10.2-2.6,11.3
		c8.4,6.5,17.5,12,26.9,17.2C920,558.4,923.6,555.9,925.5,555.2z"/>
	<path class="st4" d="M1060.6,739.9c0.1,3.3-1.1,7.5,5,6c34.2-8.3,68.5-16.1,100.1-32.2c24.3-12.3,48.9-24,72.4-37.7
		c24-13.9,46.4-30.5,64.9-51.7c11.6-13.3,24.6-25.6,35.3-39.6c7.6-10,13.5-21.6,18.4-33.3c6.6-15.7,10.3-32.7,17.3-48.2
		c11.3-25.1,6.5-51.1,6.8-76.9c0.3-22.9-8.2-44-16.6-64c-11.7-28.3-29.2-53.7-49.7-77.2c-29.6-33.8-64.9-59.3-103.9-80.8
		c-29.4-16.2-60.2-28.6-92.3-37.8c-44.2-12.7-89.4-20.6-135.4-22.5c-54.6-2.3-109.1,0.4-162.4,13.1c-30.1,7.2-59.4,17.8-88.7,27.8
		c-37.8,12.9-70.8,34.8-102.5,58.4c-22.6,16.8-41,38.1-58.4,60.1c-16.2,20.3-28.9,43-37.8,67.3c-13.2,35.8-20.9,73-12.4,110.9
		c5.6,25.3,13.6,50.7,24.8,74c14.5,30.2,35.5,56.9,62.1,78c23.1,18.3,46.8,35.6,70.4,53.3c1.9,1.4,4.5,1.7,6.8,2.5
		c1.7,0.3,3.4,0.6,5,1c0,0,0.2-0.2,0.2-0.3c-0.4,5.7-3.5,8.3-9.2,7.7c-8.9-1-17.8-1.7-26.7-3.1c-17.4-2.7-30.8-13-43.7-23.8
		c-17.8-14.8-37.1-28.2-52.4-45.2c-19.1-21.2-33.4-46.3-45.7-72.3c-16-33.7-22.4-69.5-21.3-106.2c0.8-27.8,5.2-55.7,15.7-81.9
		c6.7-16.5,14.5-32.6,22.3-48.6c2.6-5.3,8.5-9.3,9.9-14.6c4.3-15.9,16.1-26.2,26.5-37c16-16.6,33-32.6,51.1-46.8
		c16.5-12.9,33.9-25.8,53-34.1c31.2-13.6,63.7-24.3,96.2-34.9c38.4-12.4,77.8-21,118-24.1c36.5-2.9,73.2-4.8,109.7-3.7
		c25.6,0.7,51.4,6.1,76.6,11.4c24.2,5.1,48.1,11.9,71.7,19.5c27.6,9,55.5,17.8,81.7,30c33.9,15.8,65.4,36.2,91.1,64.1
		c13.7,14.8,27.1,30,39.5,45.9c7.8,10.1,14.1,21.5,20.1,32.8c7.4,13.8,15.2,27.6,20.3,42.2c5.9,17,9.1,35,13.3,52.6
		c6.4,26.4,5.9,53.2,0.3,79.3c-3.5,16.2-12.1,31.2-17.7,46.9c-13.3,37.2-37.8,66.9-64.7,94.3c-16.7,17.1-36.3,31.7-56.1,45.3
		c-18.4,12.6-38.1,23.8-58.5,32.9c-25.6,11.4-52,21.4-78.8,29.5c-24.7,7.4-50.3,11.5-75.6,17.1
		C1053.8,756,1052.9,747.3,1060.6,739.9z"/>
	<path class="st5" d="M1056.8,765.1c25.2-5.6,50.9-9.7,75.6-17.1c26.8-8.1,53.2-18.1,78.8-29.5c20.3-9.1,40.1-20.3,58.5-32.9
		c19.8-13.6,39.3-28.2,56.1-45.3c26.9-27.4,51.4-57.2,64.7-94.3c5.6-15.8,14.3-30.8,17.7-46.9c5.6-26.1,6.1-52.9-0.3-79.3
		c-4.3-17.6-7.4-35.6-13.3-52.6c-5.1-14.7-12.9-28.5-20.3-42.2c-6.1-11.3-12.3-22.7-20.1-32.8c-12.4-15.9-25.8-31.1-39.5-45.9
		c-25.7-27.8-57.2-48.3-91.1-64.1c-26.2-12.2-54.1-21.1-81.7-30c-23.5-7.6-47.5-14.4-71.7-19.5c-25.3-5.3-51-10.7-76.6-11.4
		c-36.5-1.1-73.3,0.8-109.7,3.7c-40.2,3.2-79.7,11.7-118,24.1c-32.4,10.5-65,21.2-96.2,34.9c-19,8.3-36.5,21.2-53,34.1
		c-18.1,14.2-35.1,30.2-51.1,46.8c-10.4,10.8-22.3,21.1-26.5,37c-1.4,5.4-7.3,9.4-9.9,14.6c-7.8,16-15.6,32.1-22.3,48.6
		c-10.5,26.2-14.9,54.1-15.7,81.9c-1.1,36.7,5.2,72.5,21.3,106.2c12.4,26,26.6,51.1,45.7,72.3c15.3,17,34.7,30.4,52.4,45.2
		c13,10.8,26.4,21.1,43.7,23.8c8.8,1.4,17.8,2.1,26.7,3.1c-12.7,3.4-25.5,6.7-38.2,10.1c-5-4.5-9.4-10-15.1-13.5
		c-41.1-25.7-78.9-55.1-103.5-98c-12.9-22.5-25.5-45.5-34.6-69.6c-11.3-29.6-13.2-61.4-11.1-93c2.3-34.6,11.8-67.9,27-98.7
		c19-38.7,43.5-73.6,76.5-102.8c26.6-23.5,55.5-42.9,86.7-58.5c24.9-12.5,52-21,78.6-29.7c23.2-7.6,46.8-14.5,70.8-18.9
		c28.8-5.3,58.2-7.7,87.3-11.2c44.2-5.3,88.5-2.1,132.2,3.2c32.8,4,65.9,10.7,97.3,20.9c38.5,12.5,75.9,29,113,45.4
		c28.8,12.7,53.4,32.5,76.3,53.7c14.5,13.5,28,28.5,39.7,44.5c9.5,13,15.1,28.9,23.5,42.8c13,21.4,22.9,44,29.8,68.1
		c8.4,29.3,11.2,59.4,5.8,88.6c-5,26.8-15,53.2-26,78.4c-8.7,19.9-22.2,37.7-33.5,56.5c-11.2,18.7-28.7,31.3-43.9,46.2
		c-23.9,23.3-52.4,40.1-81.5,55.1c-38.7,19.9-79.7,34.5-121.9,45.5c-19.4,5.1-38.7,10.2-59,8.6
		C1056.9,769.3,1056.8,767.2,1056.8,765.1z"/>
	<path class="st6" d="M1454.1,321.2c1.4,2.1,2.8,4.3,4.2,6.4c0.7,8.8,0.3,17.9,2.4,26.4c4.1,16.4,10.6,32.3,14.2,48.8
		c5.1,23.7,3.7,47.6,0.7,71.8c-4.4,36.2-13.2,70.9-29.6,103.3c-16.1,31.8-38.9,58.8-63.5,84.3c-32.8,34-72.2,59.5-110.7,86.4
		c-3.3,2.3-5.3,6.6-8,9.9c-11.2,3.8-22.5,7.6-33.7,11.4c2.7-3,4.8-6.7,8.1-8.8c17.1-10.8,35-20.5,51.6-32
		c36.1-24.7,70.4-51.6,100-84.4c17.9-19.9,32.2-42.2,45.3-65.1c9.5-16.5,13.8-35.8,22.2-53c12.5-25.6,12-53.2,13.3-80.3
		c1.3-28.3-6-55.6-16.2-81.8c-7.9-20.4-16.5-40.9-28-59.4c-12.7-20.7-28.4-39.6-44-58.4c-10.2-12.3-21.9-23.4-33.7-34.2
		c-9.6-8.7-20.9-15.5-30.4-24.2c-22.5-20.6-49.8-32.1-77.7-42.6c-0.7,0-1.4,0-2.1,0c-2.7-2.4-5.1-5.9-8.3-7.1
		c-25.3-9.8-50.8-19.3-76.3-28.8c-1.4,0-2.8,0-4.2,0c-1.2-0.7-2.3-1.7-3.6-2c-25.6-5.7-51.1-12.1-77-16.8c-22-4-44.3-6.1-66.6-8.5
		c-2.9-0.3-6.2,2.6-9.3,4c-2.1,0-4.2,0-6.3,0c-1.7-1.4-3.3-3.9-5.1-4c-12.6-1-25.2-2.5-37.7-2.1c-22.7,0.7-45.5,2-68.1,4.2
		c-17.7,1.7-35.4,4.5-52.8,7.8c-24,4.6-47.9,9.7-71.6,15.4c-18,4.3-36.7,7.5-53.5,15c-33.2,14.7-65.3,32-97.7,48.4
		c-5.9,3-11.4,6.9-16.5,11.1c-16,13.5-32.3,26.8-47.4,41.2c-12.4,11.8-24.6,24.1-34.7,37.7c-13.5,18.3-25.2,37.9-37.1,57.3
		c-6.9,11.3-13.9,22.9-18.2,35.3c-6.6,19-11.6,38.7-16.3,58.3c-7.4,30.5-5.8,61.9,2.4,91.2c9.9,35.2,24.7,69.2,46.3,99.7
		c25.5,35.9,55.9,67,90.2,94.5c9.2,7.4,18,15.3,27,23c-4.9,2.9-9.7,5.8-14.6,8.8c-2.1-2.6-3.7-5.9-6.4-7.5
		c-27.4-16.8-50.4-38.7-73.7-60.6c-20.9-19.7-37.8-42.4-51.2-67c-13.1-23.9-23.2-49.7-31.8-75.6c-6-18.1-9.8-37.9-9.7-56.9
		c0.2-23.7,0.2-48.1,8.7-71.1c0.9-2.5,0.8-5.5,1.1-8.3c2.8-3.1,6.6-5.7,8.4-9.2c10.5-20.9,19.3-42.8,31.2-62.9
		c9.9-16.7,22.1-32.4,35.1-46.9c22.6-25.1,45.2-50.7,70.6-72.9c23.8-20.8,52.1-35.7,80.3-50.5c28.6-15,58.2-26.1,89.1-33.6
		c42.3-10.2,85.3-17.9,128.2-25.8c15.4-2.8,31.3-4.3,47-4.4c29.1-0.2,58.4-0.1,87.4,2.2c33.4,2.6,67,5.7,99.8,12.2
		c32.2,6.4,63.9,16.1,95.1,26.5c22.8,7.6,45.4,16.9,66.6,28.2c26.6,14.1,52.3,30.1,77.3,46.8c17.5,11.7,33.6,25.6,49.4,39.4
		c7.3,6.4,12.8,14.8,18.8,22.6c7.6,10,14.5,20.5,22.5,30.2c5.4,6.5,12.1,11.9,18.3,17.8c1.4,2.1,2.8,4.2,4.2,6.3
		C1449.9,312.8,1452,317,1454.1,321.2z"/>
	<path class="st7" d="M1057,771.5c20.3,1.5,39.6-3.6,59-8.6c42.2-11,83.3-25.6,121.9-45.5c29.1-15,57.6-31.9,81.5-55.1
		c15.2-14.8,32.7-27.5,43.9-46.2c11.3-18.8,24.8-36.6,33.5-56.5c11-25.2,21-51.5,26-78.4c5.4-29.2,2.7-59.3-5.8-88.6
		c-7-24.1-16.8-46.7-29.8-68.1c-8.4-13.9-14-29.8-23.5-42.8c-11.7-16-25.2-31-39.7-44.5c-22.9-21.3-47.5-41-76.3-53.7
		c-37.1-16.4-74.5-32.9-113-45.4c-31.4-10.2-64.5-16.9-97.3-20.9c-43.8-5.3-88-8.4-132.2-3.2c-29.1,3.5-58.5,5.9-87.3,11.2
		c-24,4.4-47.6,11.3-70.8,18.9c-26.6,8.7-53.7,17.2-78.6,29.7c-31.2,15.6-60.1,35-86.7,58.5c-33,29.2-57.5,64-76.5,102.8
		c-15.1,30.9-24.6,64.1-27,98.7c-2.1,31.6-0.2,63.4,11.1,93c9.2,24.1,21.8,47.2,34.6,69.6c24.6,42.9,62.4,72.2,103.5,98
		c5.6,3.5,10.1,8.9,15.1,13.5c-4.2,0.7-8.4,1.5-12.7,2.3c-2.6-3.1-4.7-6.7-7.8-9.1c-21.1-16.3-43.6-30.9-63.2-48.8
		c-27.1-24.7-46.8-55.5-63.8-88.1c-27.6-52.7-35.5-108-21.9-165.7c7.4-31.4,17.6-61.9,37.2-88.5c12.4-16.7,21.6-35.9,34.6-52
		c18.3-22.5,39.4-42.4,63.8-58.7c29.3-19.6,60.5-35.5,93.3-48.1c18.3-7,36.8-13.8,55.7-19.2c19.5-5.5,39.3-10.3,59.3-13.2
		c35.9-5.2,72-11.1,108.2-12.5c37.7-1.4,75.8,0.9,113.5,4c25.7,2.1,51.4,7,76.3,13.5c26.7,7,52.9,16.4,78.6,26.7
		c24,9.6,48.3,19.6,70.2,33.3c25.7,16.1,49.2,35.8,73.1,54.7c25.5,20.2,41.8,47.7,56.1,76.3c8.4,16.9,15.3,34.5,23.7,51.3
		c14.7,29.6,18,61.7,17.8,93.6c-0.2,35.3-11.5,69-26.5,100.8c-8.2,17.2-19.3,33.2-30.1,48.9c-9.3,13.5-18.8,27.4-30.5,38.7
		c-25.8,25.1-54.5,46.9-85.2,65.8c-37,22.9-77.7,37.5-119.4,48.8c-26.9,7.3-54.4,12.8-81.6,19.1C1059.7,778.5,1058.3,775,1057,771.5
		z"/>
	<path class="st8" d="M1061.1,782c27.2-6.3,54.6-11.8,81.6-19.1c41.8-11.3,82.4-25.9,119.4-48.8c30.7-18.9,59.4-40.7,85.2-65.8
		c11.7-11.4,21.2-25.2,30.5-38.7c10.8-15.8,22-31.7,30.1-48.9c15.1-31.8,26.3-65.5,26.5-100.8c0.2-31.9-3.1-64-17.8-93.6
		c-8.4-16.9-15.3-34.5-23.7-51.3c-14.3-28.6-30.5-56.1-56.1-76.3c-23.9-18.9-47.4-38.7-73.1-54.7c-21.8-13.6-46.1-23.7-70.2-33.3
		c-25.7-10.3-51.9-19.7-78.6-26.7c-24.9-6.5-50.6-11.4-76.3-13.5c-37.7-3.2-75.8-5.5-113.5-4c-36.2,1.4-72.3,7.2-108.2,12.5
		c-20,2.9-39.8,7.7-59.3,13.2c-18.9,5.3-37.4,12.1-55.7,19.2c-32.8,12.6-64,28.6-93.3,48.1c-24.4,16.3-45.5,36.2-63.8,58.7
		c-13.1,16.1-22.3,35.3-34.6,52c-19.7,26.6-29.9,57.1-37.2,88.5c-13.6,57.7-5.7,112.9,21.9,165.7c17,32.6,36.7,63.3,63.8,88.1
		c19.6,17.9,42.1,32.5,63.2,48.8c3.1,2.4,5.3,6,7.8,9.1c-3.5,0.8-6.9,1.7-10.4,2.5c-3.3-3.6-6.2-7.8-9.9-10.9
		c-14.8-12.1-31-22.8-44.7-36.1c-20.1-19.5-39.6-39.7-57.2-61.4c-19.8-24.4-30.4-54.2-40.7-83.4c-8.4-24.1-10.1-49.3-9-75.4
		c1.2-30,5.9-58,17.4-85.9c13.1-31.5,28.2-61.9,48.6-88.9c23.3-30.8,50.9-58.1,84-78.7c23.4-14.6,47.6-28.3,72.9-39.3
		c26.3-11.4,54.1-19,81.4-28.2c10.8-3.6,21.7-6.9,32.6-10.4c1.4,0,2.8,0,4.2,0c14.1-2.8,28.2-5.6,42.3-8.5c2.1,0,4.2,0,6.3,0
		c18.1-1.7,36.2-4.4,54.3-4.9c35.7-0.9,71.3-0.7,107-0.9c0.7,0,1.3,0.5,2,0.6c16.9,2.4,33.9,4.4,50.8,7.3
		c21.3,3.7,43.1,6.3,63.7,12.5c33.2,10,65.6,22.4,98.3,33.9c2.8,0.7,5.6,1.4,8.5,2.1c2.1,1.4,4.2,2.8,6.3,4.2h1.1h1.1
		c2.5,2.7,4.6,6,7.7,7.8c9.9,5.8,20.2,11,30.2,16.6c6.5,3.6,12.8,7.6,19.2,11.5c1.4,0.7,2.8,1.4,4.2,2.1c1.4,1.4,2.8,2.8,4.2,4.2
		l0,0c3.5,2.8,7,5.6,10.6,8.5c0.7,0,1.4,0,2.1,0c4.9,4.2,9.9,8.5,14.8,12.7c4.9,4.9,9.9,9.9,14.8,14.8c2.1,2.1,4.2,4.2,6.3,6.3
		c3.5,3.5,7,7,10.6,10.6c1.4,1.4,2.8,2.8,4.2,4.2c0.7,0.7,1.4,1.4,2.1,2.1c1.4,3.9,2.4,8,4.4,11.5c12.4,22.2,26.1,43.7,37.5,66.4
		c11.7,23.3,20.7,47.6,24.6,74.1c4.3,28.9,3.9,57.2-1.7,85.5c-7.3,36.2-22.4,69.8-43,99.7c-19.9,29-42.7,56.5-70.9,78.5
		c-23.7,18.5-46,38.9-74.2,51c-6.7,2.9-12.2,8.6-18.2,13c-0.7,0-1.4,0-2.1,0c-18.4,6.3-36.7,13.1-55.3,18.7
		c-24.4,7.3-49.2,13.6-73.7,20.5c-10.6,3-21.1,6.4-31.7,9.6C1065.2,787.8,1063.1,784.9,1061.1,782z"/>
	<path class="st9" d="M794.7,114.1c-10.9,3.4-21.8,6.7-32.6,10.4c-27.2,9.1-55.1,16.8-81.4,28.2c-25.2,10.9-49.5,24.7-72.9,39.3
		c-33,20.6-60.6,47.9-84,78.7c-20.4,27-35.6,57.3-48.6,88.9c-11.5,27.9-16.2,55.9-17.4,85.9c-1.1,26.1,0.6,51.3,9,75.4
		c10.3,29.2,20.9,59.1,40.7,83.4c17.6,21.7,37.2,42,57.2,61.4c13.7,13.3,29.9,23.9,44.7,36.1c3.8,3.1,6.6,7.2,9.9,10.9
		c-2.9,1.2-5.8,2.5-8.7,3.7c-1.1-2.1-1.8-4.9-3.5-6.2c-12.2-9.3-24.8-18-36.8-27.6c-12.8-10.3-26.1-20.3-37.2-32.4
		c-26.6-29-48-61.4-65.4-97.3c-20.6-42.7-25.7-86.6-21.7-132.5c0.7-8.3,2.3-16.8,5.1-24.6c8.1-22.3,15.5-45.1,26-66.3
		c11.4-23.1,23.7-46.6,39.7-66.5c21.4-26.6,44.1-52.9,74.2-70.8c20.5-12.2,41.2-23.8,61.8-35.7c3.5-2.1,7-4.2,10.6-6.3
		c4.2-0.7,8.5-1.4,12.7-2.1c32.1-10.8,64-21.9,96.3-32.1C779.5,113.6,787.3,114.6,794.7,114.1z"/>
	<path class="st10" d="M1238.5,145.8c0.7,0,1.4,0,2.1,0c2.1,2,4,4.5,6.5,6c19.6,11.8,42.2,18.1,59.4,34.8c17.5,17,38,31,55.3,48.2
		c16.6,16.5,32.7,34.1,45.5,53.5c13.8,20.8,24.5,43.9,34.9,66.7c17.3,38.2,24.3,78.6,20.2,120.6c-0.9,9.7-1.7,19.7-4.6,28.9
		c-5.1,16.2-11.4,32.1-17.8,47.9c-15.8,38.8-38.3,73.5-67.9,102.8c-20.6,20.4-43.3,39-66.7,56.1c-21.9,16.1-45.5,30.3-69.4,43.2
		c-17.2,9.2-36.4,14.7-54.4,22.4c-6.7,2.9-12.8,7.5-19.1,11.3c-13.4,2.1-26.8,4.2-40.2,6.3c8.5-4.2,16.7-9.1,25.4-12.5
		c23.5-9.1,47.7-16.6,70.9-26.3c34.2-14.3,65.7-33.5,94.4-56.8c23-18.7,46.2-37.9,65.9-59.9c22.3-25,38.3-54.9,53.2-85.2
		c11.6-23.6,19.3-48.1,21.8-74.1c5.2-54.7-8.2-105.9-31.1-155c-5.1-11-10.6-22.4-18.4-31.5c-22.4-26.3-43.1-53.7-69.8-76.5
		c-27.2-23.3-55.7-43.4-88.1-58.3c-3.1-1.4-6.8-1.4-10.2-2.1c-2.4-2.3-4.5-5.2-7.3-6.6c-10-5.1-19.9-10.6-30.5-14.1
		c-23.1-7.8-46.6-14.4-70-21.5c-8.5-2.1-16.9-4.2-25.4-6.3c-2.1-0.7-4.2-1.4-6.3-2.1c-1.4,0-2.8,0-4.2,0
		c-13.8-2.8-27.5-5.9-41.3-8.3c-5.1-0.9-10.5-0.1-15.7-0.1c-2.8,0-5.6,0-8.5,0c-3.5-1.4-7-2.8-10.6-4.2c-7,0-14.1,0-21.1,0
		c-3.9-0.7-7.8-1.5-11.7-2.1c-5.9-0.8-11.9-1.4-17.9-2.1c7-0.7,14.1-1.4,21.1-2.1c2.1,0,4.2,0,6.3,0c22.2,2.4,44.6,3.7,66.6,7.4
		c24.4,4.1,48.5,10.4,72.8,15.4c5.5,1.1,11.3,0.4,17,0.5c1.4,0,2.8,0,4.2,0c3.7,2.8,7,6.4,11.1,8.1c14,5.8,28.2,11,42.4,16.4
		C1217.8,138.3,1228.2,142,1238.5,145.8z"/>
	<path class="st10" d="M653.1,156.4c-20.6,11.9-41.4,23.5-61.8,35.7c-30.1,17.9-52.7,44.2-74.2,70.8c-16.1,19.9-28.3,43.4-39.7,66.5
		c-10.5,21.2-17.9,43.9-26,66.3c-2.8,7.8-4.4,16.3-5.1,24.6c-4,46,1.1,89.8,21.7,132.5c17.3,35.9,38.7,68.3,65.4,97.3
		c11,12,24.4,22.1,37.2,32.4c11.9,9.6,24.6,18.3,36.8,27.6c1.7,1.3,2.4,4.1,3.5,6.2c-2.7,0.8-5.5,1.6-8.2,2.4
		c-3.6-3.3-7-6.7-10.7-9.8c-12.6-10.6-25.7-20.6-37.9-31.6c-10.1-9.1-19.8-18.7-29-28.8c-12.6-13.8-26.8-26.9-36.4-42.7
		c-20.1-33.2-39.3-67.2-48.2-105.7c-8.1-35.1-6.2-70,1.5-104.8c1.4-6.4,4-12.6,6.3-18.8c5.2-14.1,9.1-28.9,16.2-42
		c11.4-21.2,24.3-41.7,37.9-61.6c10.4-15.2,21.9-30.1,35-43c14.3-14.2,30.7-26.3,46.5-38.9c30.9-24.7,65.3-44.3,102.1-57.7
		c35.9-13.1,73.6-21.6,110.7-31.2c18.9-4.9,38.3-8.4,57.7-11c22.1-3,44.5-4.5,66.8-6.3c4.3-0.3,8.7,1.2,13.1,1.8c0,2.1,0,4.2,0,6.3
		c-1.4,0-2.8,0-4.2,0c-10.6,0-21.1,0-31.7,0c-2.1,0-4.2,0-6.3,0c-27.2,3.6-54.4,7.2-81.6,11c-1.1,0.2-2,2.5-3,3.8
		c-1.4,0-2.8,0-4.2,0c-5.9,0.6-12,0.4-17.6,2c-32.8,9.3-65.5,18.7-98,28.7c-4.3,1.3-7.5,6.2-11.2,9.4c-4.2,0.7-8.5,1.4-12.7,2.1
		C660.2,152.2,656.7,154.3,653.1,156.4z"/>
	<path class="st11" d="M1263.9,758.6c2.6-3.4,4.6-7.6,8-9.9c38.4-26.8,77.8-52.4,110.7-86.4c24.6-25.5,47.4-52.5,63.5-84.3
		c16.4-32.4,25.2-67.1,29.6-103.3c3-24.2,4.4-48.1-0.7-71.8c-3.6-16.5-10.1-32.4-14.2-48.8c-2.1-8.5-1.7-17.6-2.4-26.4
		c3.1,5,6.9,9.6,9.1,14.9c16.4,40.7,29.2,82.2,24.6,126.9c-2.7,26.3-8.7,51.7-20.2,75.9c-7.6,15.9-11.9,33.5-20.1,49
		c-8.3,15.6-18.7,30.4-29.8,44.2c-11.9,14.8-24.8,29.1-38.8,41.8c-14.3,13.1-30.5,24.1-45.9,36.1c-6.6,5.1-13.3,10.1-19.7,15.5
		c-1.1,0.9-0.5,3.9-0.6,5.9C1299.2,744.7,1281.6,751.6,1263.9,758.6z"/>
	<path class="st12" d="M934.2,86.7c-4.4-0.7-8.8-2.2-13.1-1.8c-22.3,1.8-44.7,3.3-66.8,6.3c-19.4,2.6-38.8,6.1-57.7,11
		c-37.2,9.5-74.8,18-110.7,31.2c-36.8,13.4-71.2,33-102.1,57.7c-15.8,12.6-32.2,24.7-46.5,38.9c-13.1,13-24.5,27.8-35,43
		c-13.6,19.8-26.5,40.4-37.9,61.6c-7.1,13.1-11,27.9-16.2,42c-2.3,6.2-4.9,12.4-6.3,18.8c-7.7,34.8-9.6,69.7-1.5,104.8
		c8.9,38.5,28,72.5,48.2,105.7c9.6,15.8,23.8,28.9,36.4,42.7c9.2,10,18.8,19.7,29,28.8c12.3,11,25.3,21,37.9,31.6
		c3.7,3.1,7.2,6.5,10.7,9.8c-2.1,0.7-4.3,1.4-6.5,2.1c-9-7.7-17.8-15.6-27-23c-34.2-27.6-64.6-58.6-90.2-94.5
		c-21.6-30.4-36.4-64.4-46.3-99.7c-8.3-29.3-9.9-60.7-2.4-91.2c4.8-19.6,9.7-39.3,16.3-58.3c4.3-12.4,11.3-24,18.2-35.3
		c11.8-19.5,23.6-39.1,37.1-57.3c10.1-13.7,22.3-26,34.7-37.7c15.2-14.4,31.4-27.7,47.4-41.2c5.1-4.3,10.6-8.2,16.5-11.1
		c32.4-16.5,64.5-33.7,97.7-48.4c16.7-7.4,35.4-10.7,53.5-15c23.8-5.6,47.7-10.8,71.6-15.4c17.5-3.3,35.1-6.1,52.8-7.8
		c22.6-2.2,45.4-3.5,68.1-4.2c12.6-0.4,25.2,1.1,37.7,2.1c1.8,0.2,3.4,2.6,5.1,4c-7,0.7-14.1,1.4-21.1,2.1c-1.4,0-2.8,0-4.2,0
		c-4.2-5.9-9.3-5.5-14.8-2.1C942.7,86.7,938.4,86.7,934.2,86.7z"/>
	<path class="st9" d="M1236.4,156.4c3.4,0.7,7.1,0.7,10.2,2.1c32.4,14.9,60.9,35,88.1,58.3c26.6,22.8,47.4,50.3,69.8,76.5
		c7.8,9.1,13.3,20.5,18.4,31.5c22.8,49.1,36.3,100.3,31.1,155c-2.5,26-10.2,50.5-21.8,74.1c-14.9,30.3-30.9,60.2-53.2,85.2
		c-19.7,22-42.9,41.2-65.9,59.9c-28.6,23.3-60.2,42.6-94.4,56.8c-23.2,9.7-47.4,17.3-70.9,26.3c-8.8,3.4-17,8.3-25.4,12.5
		c-13.4,2.1-26.8,4.1-40.1,6.2c3.6-3.4,6.7-8.2,11-9.9c7.7-3.1,16.3-3.8,24.2-6.4c34.4-11.4,68.8-23.1,103-35.1c3-1.1,5.1-5,7.5-7.6
		c0.7,0,1.4,0,2.1,0c2.4-0.5,5.1-0.4,7.1-1.6c18.4-10.7,37.6-20.3,54.7-32.8c44.6-33,87-68.5,113.6-118.8c4.3-8,7.3-16.8,12.2-24.4
		c17.7-27.4,26.4-58.4,29.4-89.9c3.7-38.2-2.9-76.1-17-112.1c-6.5-16.6-13.5-33.4-22.6-48.7c-10.6-17.9-23.8-34.4-35.8-51.5
		c-0.7-0.7-1.4-1.4-2.1-2.1c-1.4-1.4-2.8-2.8-4.2-4.2c-3.5-3.5-7-7-10.6-10.6c-2.1-2.1-4.2-4.2-6.3-6.3c-4.9-4.9-9.9-9.9-14.8-14.8
		c-4.9-4.2-9.9-8.5-14.8-12.7c-0.7,0-1.4,0-2.1,0c-3.5-2.8-7-5.6-10.6-8.5l0,0c-1.4-1.4-2.8-2.8-4.2-4.2c-1.4-0.7-2.8-1.4-4.2-2.1
		c-15.2-18.1-36.3-26.6-57.1-35.9h-1.1h-1.1C1237.8,159.2,1237.1,157.8,1236.4,156.4L1236.4,156.4z"/>
	<path class="st12" d="M1162.5,788.2c6.3-3.8,12.4-8.4,19.1-11.3c18-7.7,37.2-13.2,54.4-22.4c24-12.9,47.5-27.1,69.4-43.2
		c23.4-17.1,46.1-35.8,66.7-56.1c29.6-29.3,52.2-64,67.9-102.8c6.4-15.8,12.7-31.6,17.8-47.9c2.9-9.2,3.6-19.2,4.6-28.9
		c4.1-42-2.9-82.4-20.2-120.6c-10.4-22.8-21.1-45.9-34.9-66.7c-12.8-19.4-28.9-37-45.5-53.5c-17.3-17.2-37.7-31.2-55.3-48.2
		c-17.2-16.6-39.8-22.9-59.4-34.8c-2.5-1.5-4.3-4-6.5-6c27.9,10.5,55.2,22,77.7,42.6c9.5,8.7,20.8,15.5,30.4,24.2
		c11.8,10.8,23.6,21.9,33.7,34.2c15.5,18.8,31.2,37.8,44,58.4c11.4,18.5,20,39,28,59.4c10.1,26.2,17.5,53.5,16.2,81.8
		c-1.3,27.1-0.8,54.6-13.3,80.3c-8.4,17.2-12.8,36.5-22.2,53c-13.1,22.9-27.4,45.1-45.3,65.1c-29.5,32.8-63.8,59.7-100,84.4
		c-16.7,11.4-34.5,21.1-51.6,32c-3.2,2.1-5.4,5.8-8.1,8.8C1207.6,776.1,1185,782.2,1162.5,788.2z"/>
	<path class="st13" d="M874.8,758.8c3.2-5.8,7.4-11.2,9.5-17.4c5.6-16.2,10.4-32.7,16.1-51.1c17.9,2.5,36.9,3.7,54.9,8.5
		c8.1,2.1,15.1,10.7,15.2,21.5c0.2,12.6,0.9,25.3,1.4,37.9C939.6,758.4,907.2,758.6,874.8,758.8z"/>
	<path class="st14" d="M749.2,807.5c-34.4-13.4-69.1-26.2-103.2-40.5c-16.2-6.8-31.3-16.2-46.8-24.6c-0.7-0.4-0.7-1.9-1-2.9
		c12-7.6,23.6-1,35.3,1.1c3.7,0.7,7.5,1,11.3,1.4c4,2.8,7.5,6.5,11.9,8.2c31.8,12.2,63.9,24,95.8,36
		C751.4,793.3,750.3,800.4,749.2,807.5z"/>
	<path class="st15" d="M984.7,809.5c1.4,8.5-1,12.4-10.9,13c-35.8,2.2-71.5,5.4-107.3,8.3c-2.8,0.2-5.5,0.9-8.2,1.5
		c-5.3,1-8.4,0.1-8.9-6.5c-0.5-7.6-2.6-15.1-4-22.6c10.3,1.4,20.6,3.1,30.9,4.2c13.5,1.5,27,3.4,40.5,3.5
		C939.4,811.1,962.1,810,984.7,809.5z"/>
	<path class="st4" d="M874.8,758.8c32.4-0.2,64.7-0.3,97.1-0.5c2.1,6.5,4.2,13,6.4,19.5c-18.1,0.7-36.2,1.4-54.3,2.2
		c-10.1,0.4-20.1,1.5-30.2,1.4c-15.5-0.1-31-1.1-46.5-1.7C856.5,772.8,865.6,765.8,874.8,758.8z"/>
	<path class="st16" d="M749.2,807.5c1.1-7.1,2.2-14.2,3.3-21.3c0.7-6.3,1.4-12.6,2.1-19c4.2-4.9,8.5-9.8,12.7-14.8
		c3.5-0.8,6.9-1.7,10.4-2.5c8.6,2.2,17.1,4.5,25.7,6.7c-5.7,4.8-11.5,9.7-17.2,14.5c-2.7,2.2-6.5,3.9-7.8,6.8
		c-2,4.3-2.2,9.5-3.1,14.3c-1.3,7.1-2.1,14.2-3.9,21.2c-2.2,8.7-5.3,17.1-8,25.7c-3.6-1.1-7.1-2.6-10.8-3.3c-4.1-0.7-8.3-0.7-12.5-1
		C743.2,825.7,746.2,816.6,749.2,807.5z"/>
	<path class="st17" d="M847.3,779.8c15.5,0.6,31,1.5,46.5,1.7c10,0.1,20.1-1,30.2-1.4c18.1-0.8,36.2-1.5,54.3-2.2
		c1.5,4.9,3,9.8,4.5,14.8c-29.2,7.4-58.6,4.9-88.1,2.6c-17.7-1.3-35.4-3.1-53.2-4.7C843.5,786.9,845.4,783.4,847.3,779.8z"/>
	<path class="st18" d="M841.5,790.5c17.7,1.6,35.4,3.4,53.2,4.7c29.4,2.2,58.9,4.8,88.1-2.6c0.6,5.6,1.3,11.3,1.9,16.9
		c-22.6,0.5-45.3,1.6-67.9,1.4c-13.5-0.1-27-2.1-40.5-3.5c-10.3-1.1-20.6-2.8-30.9-4.2C844.1,798.9,842.8,794.7,841.5,790.5z"/>
	<path class="st9" d="M754.6,767.2c-0.7,6.3-1.4,12.6-2.1,19c-32-11.9-64-23.8-95.8-36c-4.4-1.7-8-5.4-11.9-8.2
		c4.9-2.1,9.8-4.2,14.7-6.4c3.2,2.8,6.1,7.1,9.7,8c8.5,2.1,17.7,1.9,26.2,4c12.8,3.2,25.4,7.4,37.9,11.5
		C740.5,761.5,747.5,764.5,754.6,767.2z"/>
	<path class="st19" d="M1026.9,752c2.7,12.4,5.4,24.9,8,37.3c1,5.1,2.5,10.3,2.3,15.4c-0.3,5.8-10.6,11.6-14.3,7.9
		c-9.8-9.8-26.1-15.2-25.8-32.3c0.1-8.1,3.3-16.1,5.1-24.2C1010.4,754.8,1018.6,753.4,1026.9,752z"/>
	<path class="st20" d="M763.4,839.2c2.7-8.6,5.7-17,8-25.7c1.8-6.9,2.6-14.1,3.9-21.2c2.9,1,5.7,2.1,8.7,3
		c12.5,3.4,25,6.7,37.5,10.1c1.6,7.7,3.3,15.4,4.7,23.1c1.9,10.6-6,9.7-12.5,10.3c-11.8-8.4-23.7-16.8-38-26.9
		c-1.6,12.8-2.8,23.1-4,33.3c-2.3,0.5-4.5,1.1-7.8,1.9C763.6,844.2,763.5,841.7,763.4,839.2z"/>
	<path class="st17" d="M754.6,767.2c-7.1-2.7-14.1-5.7-21.3-8.1c-12.6-4.1-25.1-8.3-37.9-11.5c-8.5-2.1-17.7-1.8-26.2-4
		c-3.7-0.9-6.5-5.2-9.7-8c12.2,0.1,24.4,0.4,36.6,0.4c8.9,0,17.9-0.4,26.8-0.6c5.4,2.4,10.6,5,16.1,7.1c9.4,3.5,18.9,6.7,28.4,10
		C763.1,757.4,758.8,762.3,754.6,767.2z"/>
	<path class="st5" d="M786.2,771.3c5.7-4.8,11.5-9.7,17.2-14.5c5.1-4.1,10-8.4,15.2-12.3c2.6-1.9,6.2-4.9,8.4-4.2
		c3,1,6.2,4.6,7.2,7.7c3.1,10.1-0.9,18.2-8.5,25.1c-2.6,2.3-3.9,6-5.8,9.1C807.5,781.9,795.5,780.9,786.2,771.3z"/>
	<path class="st18" d="M1228,741.8c-2.5,2.6-4.5,6.5-7.5,7.6c-34.3,12-68.6,23.6-103,35.1c-7.9,2.6-16.5,3.4-24.2,6.4
		c-4.3,1.7-7.4,6.5-11,9.9c-4.3,0.8-8.6,1.5-14.3,2.6c-0.3-4.8-0.5-8.8-0.7-12.7c10.6-3.2,21.1-6.6,31.7-9.6
		c24.6-6.9,49.3-13.2,73.7-20.5C1191.3,754.9,1209.5,748.1,1228,741.8z"/>
	<path class="st18" d="M786.2,771.3c9.3,9.6,21.3,10.7,33.7,10.8c0.5,7.8,1,15.5,1.5,23.3c-12.5-3.3-25-6.7-37.5-10.1
		c-2.9-0.8-5.8-2-8.7-3c0.9-4.8,1.1-9.9,3.1-14.3C779.7,775.2,783.5,773.5,786.2,771.3z"/>
	<path class="st21" d="M1026.9,752c-8.2,1.4-16.5,2.8-24.7,4.2c3.1-10.6,6.4-21.1,9.2-31.7c1.6-6.4,2.1-13.1,3.6-19.5
		c0.5-2.2,2.9-4,4.4-5.9c1.4,2.3,3.9,4.5,4.1,6.9C1024.9,721.2,1025.8,736.6,1026.9,752z"/>
	<path class="st4" d="M767.3,752.5c-9.5-3.3-19-6.5-28.4-10c-5.5-2.1-10.8-4.7-16.1-7.1c5-1.4,9.9-2.8,14.9-4.2
		c7.7-0.7,15.5-1.4,23.2-2.1c4.5-0.3,8.9-0.5,14.6-0.9c0.7,7.2,1.5,14.5,2.2,21.8C774.2,750.8,770.8,751.7,767.3,752.5z"/>
	<path class="st22" d="M868.8,593.6c-3.6-6.2-8.3-12.1-10.5-18.8c-1.1-3.4,0.9-9.7,3.7-12c2.4-2,8.7-1.8,12,0
		c9.5,5.2,13.9,14.1,13.9,25C881.4,589.7,875.1,591.6,868.8,593.6z"/>
	<path class="st23" d="M771.6,845.2c1.2-10.2,2.5-20.4,4-33.3c14.3,10.1,26.1,18.5,38,26.9C799.6,841,785.6,843.1,771.6,845.2z"/>
	<path class="st24" d="M969.6,527.1c-2.4-0.4-5.2,0-7-1.2c-2.8-2-4.9-5-7.3-7.5c2.6-1.6,5-3.6,7.8-4.6c5-1.8,10.3-2.9,15.4-4.3
		C979.7,517.3,978.4,524.1,969.6,527.1z"/>
	<path class="st3" d="M778.4,703.6c-1,1.5-2.9,3.1-3,4.6c-0.1,4.4,0.6,8.8,1,13.6c-5.7,0.3-10.6,0.5-15.6,0.7
		c-0.8-0.3-1.6-0.7-2.5-1c6.6-5.9,13.2-11.7,19.8-17.6C778.2,703.9,778.4,703.6,778.4,703.6z"/>
	<path class="st25" d="M758.4,721.5c0.8,0.3,1.6,0.7,2.5,1c0,2.2,0,4.4,0,6.6c-7.7,0.7-15.5,1.4-23.2,2.1
		C744.6,728,751.5,724.8,758.4,721.5z"/>
	<path class="st3" d="M778.2,703.9l-0.3-0.4c0,0,0.4,0.1,0.5,0.1L778.2,703.9z"/>
	<path class="st11" d="M1443.5,302.2c-6.1-5.9-12.9-11.3-18.3-17.8c-8-9.7-14.8-20.2-22.5-30.2c-6-7.8-11.5-16.2-18.8-22.6
		c-15.9-13.9-32-27.8-49.4-39.4c-25-16.8-50.7-32.7-77.3-46.8c-21.2-11.2-43.8-20.6-66.6-28.2c-31.2-10.3-62.9-20.1-95.1-26.5
		c-32.8-6.5-66.4-9.6-99.8-12.2c-29-2.3-58.3-2.3-87.4-2.2c-15.7,0.1-31.6,1.5-47,4.4c-42.9,7.9-85.8,15.6-128.2,25.8
		c-30.8,7.4-60.5,18.6-89.1,33.6c-28.2,14.8-56.5,29.7-80.3,50.5c-25.4,22.2-48,47.8-70.6,72.9c-13,14.5-25.3,30.2-35.1,46.9
		c-11.8,20.1-20.6,42-31.2,62.9c-1.8,3.6-5.5,6.2-8.4,9.2c7.8-20.4,13.7-41.8,23.9-60.8c14-26.1,30.1-51.4,47.7-75.3
		c17.3-23.5,38.1-44.3,63.5-59.7c28.3-17.2,56.1-35.2,85-51.3c15.8-8.8,33-15.4,50.2-21.4c40.2-14.2,80.6-27.9,123-34.2
		c38.8-5.8,77.2-14,116.8-12.4c33.4,1.4,66.9-0.2,100.1,2.8c30.2,2.7,60.5,7.9,89.9,15.3c37.5,9.5,75,20.4,111,34.5
		c28.1,11,55.1,25.9,80.5,42.4c32.1,20.9,62.1,45.2,87.7,74.1C1415.7,256.7,1433.4,276.8,1443.5,302.2z"/>
	<path class="st11" d="M1454.1,321.2c-2.1-4.2-4.2-8.5-6.3-12.7C1449.9,312.8,1452,317,1454.1,321.2z"/>
	<path class="st0" d="M689.8,690.2c-1.7-0.3-3.4-0.6-5-1C686.5,689.5,688.1,689.8,689.8,690.2z"/>
	<path class="st26" d="M825.4,431.5c10.6,12.8,9.8,18.9-1.2,27.3c-3.6,2.7-6.4,6.4-10,9c-12.4,9.1-25,5.6-36.2-1.8
		c-7.7-5.1-17.1-10.2-16.9-23.4c4.7-0.4,9.1-0.4,13.4-1.1c21.6-3.5,38.2-15.5,52.3-31.6c2-2.3,4.5-4.5,7.3-5.5
		c6.6-2.2,10.3,0,8.8,7.7c-0.9,4.4-1.8,8.8-2.7,13C835.5,427.1,831,429.1,825.4,431.5z"/>
	<path class="st26" d="M1144.5,309.1c1.7,5.9,5.8,12.3,4.7,17.6c-3.3,17,5.8,27.8,15.9,38.7c3,3.2,4.9,7.4,7.3,11.1
		c-4.2,1.5-8.5,2.9-12.7,4.3c-1.3,0.4-2.6,0.7-3.2,0.9c-4.5-5.8-8.7-11.1-13.6-17.4c-2.9,3.8-4.6,6-6.3,8.2c-1-0.3-1.9-0.5-2.9-0.8
		c1.9-20.6,3.8-41.1,5.8-61.7C1141.2,309.8,1142.9,309.4,1144.5,309.1z"/>
	<path class="st26" d="M869,484.2c1.5-7.7,3.4-10.9,10.9-9.2c11.2,2.5,22.8,3.2,34.2,5c14.5,2.2,24.4,11.1,32.5,22.7
		c1.9,2.7,4,5.2,6.8,8.8c-13.8-6-26.8-12.7-40.5-17.1C898.7,489.8,883.8,487.6,869,484.2z"/>
	<path class="st27" d="M842.7,284.6c0.7,7.3,2,17,2.2,26.7c0.1,3.2-2.7,6.5-4.2,9.8c-2.6-3-7.5-6-7.5-9c0-10.4,1.3-20.9,2.9-31.2
		c1.2-7.9,2-13.4-9.3-10.9c-3.2,0.7-8.5-2.8-11.2-5.8c-3.4-3.8-2.8-8,3.8-8.5c0.7-0.1,1.4-0.1,2.1,0c7.6,1.1,18.4-0.4,22,4
		S843.4,274.4,842.7,284.6z"/>
	<path class="st22" d="M724.1,486.1c5.6,1.1,11.3,2.7,17,3c2.8,0.1,5.8-2.3,9.9-4c-0.1-0.1,1.4,0.2,2.1,1.2c3,4,8.8,9,7.9,12.2
		c-1.9,7-18.7,13-25,10.5c-1.5-0.6-3.2-1.8-3.8-3.2C729.5,499.8,727.2,493.6,724.1,486.1z"/>
	<path class="st22" d="M925.5,555.2c-1.9,0.7-5.5,3.2-7.1,2.3c-9.3-5.1-18.5-10.6-26.9-17.2c-1.4-1.1,0.4-10.5,2.6-11.3
		C903,525.7,925.9,543.8,925.5,555.2z"/>
	<path class="st27" d="M830.7,511.4c12.2,5.8,24.5,11.6,36.7,17.4c1.9,0.9,3.7,1.9,3.7,4.2c-9.8-0.7-20.5,0.7-29.1-2.9
		C836.6,527.8,834.3,518,830.7,511.4L830.7,511.4z"/>
	<path class="st27" d="M830.6,511.5c-0.3-0.2-0.5-0.3-0.8-0.5C830.1,511.2,830.4,511.3,830.6,511.5
		C830.7,511.4,830.6,511.5,830.6,511.5z"/>
	<path class="st12" d="M1149.8,109.9c-5.7-0.1-11.5,0.6-17-0.5c-24.3-4.9-48.3-11.3-72.8-15.4c-22-3.7-44.4-5-66.6-7.4
		c3.1-1.4,6.4-4.3,9.3-4c22.2,2.4,44.6,4.5,66.6,8.5c25.8,4.6,51.3,11,77,16.8C1147.5,108.2,1148.6,109.2,1149.8,109.9z"/>
	<path class="st12" d="M1238.5,145.8c-10.3-3.8-20.7-7.5-31-11.4c-14.2-5.3-28.4-10.6-42.4-16.4c-4.1-1.7-7.4-5.4-11.1-8.1
		c25.4,9.6,50.9,19,76.3,28.8C1233.5,140,1235.8,143.4,1238.5,145.8z"/>
	<path class="st18" d="M1371.7,262.1c12.1,17.1,25.2,33.5,35.8,51.5c9.1,15.3,16,32,22.6,48.7c14.2,36,20.7,73.9,17,112.1
		c-3,31.5-11.7,62.4-29.4,89.9c-4.9,7.6-7.9,16.4-12.2,24.4c-26.7,50.3-69,85.9-113.6,118.8c-17,12.6-36.3,22.1-54.7,32.8
		c-2,1.2-4.7,1.1-7.1,1.6c6-4.4,11.5-10.2,18.2-13c28.2-12.1,50.5-32.5,74.2-51c28.2-22,51-49.5,70.9-78.5
		c20.6-30,35.7-63.5,43-99.7c5.7-28.3,6-56.6,1.7-85.5c-3.9-26.5-12.9-50.7-24.6-74.1c-11.4-22.7-25-44.3-37.5-66.4
		C1374,270.1,1373.1,265.9,1371.7,262.1z"/>
	<path class="st9" d="M891.9,93c2.1,0,4.2,0,6.3,0c10.6,0,21.1,0,31.7,0c1.4,0,2.8,0,4.2,0c8,0.6,16,1.8,24,1.7
		c12.4-0.1,24.9-1.1,37.3-1.7c7,0,14.1,0,21.1,0c3.5,1.4,7,2.8,10.6,4.2c2.8,0,5.6,0,8.5,0c12.4,2.6,24.7,5.6,37.2,7.7
		c6.5,1.1,13.2,0.6,19.9,0.8c1.4,0,2.8,0,4.2,0c2.1,0.7,4.2,1.4,6.3,2.1c8.5,2.1,16.9,4.2,25.4,6.3c2,1.5,3.8,3.6,6,4.4
		c25,8.7,50.2,17,75.1,26c5.1,1.9,9.3,6.4,13.9,9.7c-32.7-11.4-65.1-23.9-98.3-33.9c-20.6-6.2-42.4-8.8-63.7-12.5
		c-16.9-2.9-33.9-4.9-50.8-7.3c-0.7-0.1-1.3-0.6-2-0.6c-35.7,0.2-71.4-0.1-107,0.9c-18.1,0.5-36.2,3.2-54.3,4.9
		c6.5-2.1,13-4.4,19.5-6.3C875.3,97.1,883.7,95.1,891.9,93z"/>
	<path class="st9" d="M676.4,147.9c3.7-3.2,6.9-8.1,11.2-9.4c32.5-10,65.2-19.5,98-28.7c5.6-1.6,11.7-1.4,17.6-2
		c-1.4,2.1-2.8,4.2-4.2,6.3c-1.4,0-2.8,0-4.2,0c-7.4,0.5-15.2-0.5-22.1,1.7C740.4,126,708.4,137.2,676.4,147.9z"/>
	<path class="st9" d="M1223.7,154.3c-4.6-3.3-8.8-7.9-13.9-9.7c-24.9-9-50.1-17.3-75.1-26c-2.3-0.8-4-2.9-6-4.4
		c23.4,7.1,46.9,13.7,70,21.5c10.6,3.5,20.5,9.1,30.5,14.1c2.8,1.4,4.9,4.4,7.3,6.6l0,0c-1.4,0-2.8,0-4.2,0
		C1229.4,155.7,1226.5,155,1223.7,154.3z"/>
	<path class="st9" d="M891.9,93c-8.3,2.1-16.6,4.1-24.8,6.4c-6.6,1.9-13,4.2-19.5,6.3c-2.1,0-4.2,0-6.3,0c-3.5-0.4-7.1-1.3-10.5-1
		c-7.8,0.7-15.5,2-23.3,3.1c1-1.3,1.8-3.6,3-3.8C837.5,100.2,864.7,96.6,891.9,93z"/>
	<path class="st9" d="M1240.6,160.6c20.7,9.3,41.9,17.8,57.1,35.9c-6.4-3.8-12.7-7.8-19.2-11.5c-10-5.6-20.3-10.8-30.2-16.6
		C1245.3,166.7,1243.2,163.3,1240.6,160.6z"/>
	<path class="st9" d="M807.4,107.8c7.8-1.1,15.5-2.4,23.3-3.1c3.5-0.3,7,0.6,10.5,1c-14.1,2.8-28.2,5.6-42.3,8.5
		c1.4-2.1,2.8-4.2,4.2-6.3C804.6,107.8,806,107.8,807.4,107.8z"/>
	<path class="st9" d="M1318.8,211.4c4.9,4.2,9.9,8.5,14.8,12.7C1328.7,219.8,1323.8,215.6,1318.8,211.4z"/>
	<path class="st18" d="M1354.8,245.2c3.5,3.5,7,7,10.6,10.6C1361.8,252.2,1358.3,248.7,1354.8,245.2z"/>
	<path class="st9" d="M1306.1,202.9c3.5,2.8,7,5.6,10.6,8.5C1313.2,208.5,1309.7,205.7,1306.1,202.9z"/>
	<path class="st18" d="M1348.4,238.8c2.1,2.1,4.2,4.2,6.3,6.3C1352.6,243.1,1350.5,240.9,1348.4,238.8z"/>
	<path class="st9" d="M1232.2,156.4c1.4,0,2.8,0,4.2,0c0.7,1.4,1.4,2.8,2.1,4.2C1236.4,159.2,1234.3,157.8,1232.2,156.4z"/>
	<path class="st18" d="M1365.3,255.7c1.4,1.4,2.8,2.8,4.2,4.2C1368.1,258.6,1366.7,257.1,1365.3,255.7z"/>
	<path class="st9" d="M1301.9,198.7c1.4,1.4,2.8,2.8,4.2,4.2C1304.7,201.5,1303.3,200.1,1301.9,198.7z"/>
	<path class="st9" d="M653.1,156.4c3.5-2.1,7-4.2,10.6-6.3C660.2,152.2,656.7,154.3,653.1,156.4z"/>
	<path class="st9" d="M995.5,93c-12.4,0.6-24.9,1.6-37.3,1.7c-8,0.1-16-1.1-24-1.7c0-2.1,0-4.2,0-6.3c4.2,0,8.5,0,12.7,0
		c4.9,0.7,9.9,1.4,14.8,2.1c1.4,0,2.8,0,4.2,0c6,0.7,11.9,1.3,17.9,2.1C987.7,91.5,991.6,92.3,995.5,93z"/>
	<path class="st9" d="M1092.7,105.7c-6.6-0.2-13.4,0.3-19.9-0.8c-12.5-2.1-24.8-5.1-37.2-7.7c5.3,0,10.6-0.7,15.7,0.1
		C1065.2,99.8,1078.9,102.9,1092.7,105.7z"/>
	<path class="st9" d="M1027.2,97.2c-3.5-1.4-7-2.8-10.6-4.2C1020.1,94.4,1023.7,95.8,1027.2,97.2z"/>
	<path class="st9" d="M1103.3,107.8c-2.1-0.7-4.2-1.4-6.3-2.1C1099,106.4,1101.2,107.1,1103.3,107.8z"/>
	<path class="st9" d="M930,93c-10.6,0-21.1,0-31.7,0C908.8,93,919.4,93,930,93z"/>
	<path class="st10" d="M961.7,88.8c-4.9-0.7-9.9-1.4-14.8-2.1C952.4,83.2,957.5,82.8,961.7,88.8z"/>
</g>
</svg>
