<?xml version="1.0" encoding="utf-8"?>
<!-- Generator: Adobe Illustrator 25.0.0, SVG Export Plug-In . SVG Version: 6.00 Build 0)  -->
<svg version="1.1" id="Ebene_1" xmlns="http://www.w3.org/2000/svg" xmlns:xlink="http://www.w3.org/1999/xlink" x="0px" y="0px"
	 viewBox="0 0 1920 1080" style="enable-background:new 0 0 1920 1080;" xml:space="preserve">
<style type="text/css">
	.st0{fill:#E4F6FD;}
	.st1{fill:#5AF0F7;}
	.st2{fill:#FEFEFE;}
	.st3{fill:#4DEFF7;}
	.st4{fill:#8FD1C4;}
	.st5{fill:#251C21;}
	.st6{fill:#DDE6E4;}
	.st7{fill:#E6DFD0;}
	.st8{fill:#1B1724;}
	.st9{fill:#19131C;}
	.st10{fill:#FCFDFC;}
	.st11{fill:#93CABF;}
	.st12{fill:#292627;}
	.st13{fill:#100D13;}
	.st14{fill:#261B18;}
	.st15{fill:#6492D4;}
	.st16{fill:#56F0F8;}
	.st17{fill:#50597C;}
	.st18{fill:#50597B;}
	.st19{fill:#515A7C;}
	.st20{fill:#54F1F8;}
	.st21{fill:#50F0F8;}
	.st22{fill:#656D87;}
	.st23{fill:#E8E9ED;}
	.st24{fill:#ECEFEC;}
	.st25{fill:#5F6886;}
	.st26{fill:#EFEFF2;}
	.st27{fill:#545E7E;}
	.st28{fill:#5A6382;}
</style>
<g>
	<g>
		<path class="st0" d="M207.5,1080c-17.6,0-35.2,0-52.8,0c0-146.4,0-292.8,0-439.1c545.5,0,1089.4,0,1634.3,0c0,146.9,0,293,0,439.1
			c-492,0-984,0-1475.9,0c-0.2-2.7-0.4-5.5-0.5-8.2c-2.9-8.2-7.8-5.1-11.9-4.5c-0.8,4.9-1.5,8.8-2.1,12.7c-20.6,0-41.3,0-61.9,0
			c0.6-3.8,1.2-7.6,1.9-11.3c0.9-0.3,1.8-0.6,2.7-1c-0.1-0.5-0.2-0.9-0.2-1.4c-1.4,0.2-2.9,0.4-4.3,0.6c-0.6,4.4-1.2,8.7-1.8,13.1
			c-6.1,0-12.1,0-18.2,0c0.2-1.5,0.3-2.9,0.5-4.4c1.3-2.2,2.5-4.4,3.8-6.6c-0.7-0.6-1.5-1.2-2.2-1.8c-0.8,1.8-1.6,3.5-2.4,5.3
			c-2-0.8-3.9-1.7-6.5-2.8C209.1,1073,208.3,1076.5,207.5,1080z M394.7,1007.8c0.9,0.4,1.7,0.7,2.6,1.1c-0.7-0.7-1.3-1.4-2-2.1
			c0-3.4,0-6.8,0-10.8C390.7,1001,390.7,1001,394.7,1007.8z M248.9,1004.6c0.3,2.4,0.6,4.8,0.9,7.2c0.4-0.1,0.8-0.1,1.3-0.2
			c0-6.2,0-12.5,0-18.7c-0.7,0.5-1.5,0.9-2.2,1.4c-0.5-0.3-1.1-0.7-1.5-1.1c-1-0.5-2.1-0.9-3.1-1.4c-0.1,1.3-0.1,2.6-0.2,3.9
			c0,2.4,0,4.9,0,7.3c0.2,1.5,0.3,3,0.5,4.5c0.9-0.6,1.9-1.1,2.8-1.7C247.9,1005.3,248.4,1004.9,248.9,1004.6z M285.8,1007.6
			c2.3,0,4.5,0,6.7,0c0-8,0-15.5,0-24.5c-4.3,3.7-9.8,3.9-6,12.6c1.2,2.8-0.6,7.6-1,11.5c-1-0.1-1.9-0.1-2.9-0.2
			c0.1,0.6,0.3,1.2,0.4,1.8C284,1008.3,284.9,1007.9,285.8,1007.6z M374.7,927.8c0.7,0.1,1.4,0.3,2.1,0.4c7.2,6.6,8.7,6.4,12.6-2
			c-2.6,0-5.1,0-7.7,0c1.2-2.4,2.6-2.5,4-2.7c1.6-0.2,3.3-0.6,5-0.9c-3.2-12.3-5.9-13.4-14-6.1c-1.2-0.5-2.3-1-3.5-1.5
			c-8.3-5.2-10.6-3.8-12.8,7.3c-4.7-6.2-8.5-14.8-17.7-8.4c1,6-2.4,13.4,3.5,20.5c1.2-7.3,2.1-12.5,2.9-17.7
			c0.9,0.1,1.7,0.2,2.6,0.3c0.8,5.4,1.6,10.8,2.6,18.1c2.9-5.9,4.5-9.3,6.1-12.6C362.7,934.5,366.9,936.1,374.7,927.8z M718.9,932
			c1.1-1.8,2.7-3.3,3.3-5.3c1-3.2,1.3-6.7,1.9-10.1c0.9,0.1,1.8,0.2,2.7,0.3c0.7,5.3,1.3,10.6,2.2,17.6c7-16.1,3.7-22-10.1-21.7
			c-2.6,1.3-5.1,2.8-7.7,3.6c-1,0.3-2.4-1-3.6-1.6c-1.1-0.8-2.2-1.5-3.3-2.3c-1.9,1.5-3.8,3-5.8,4.4c-0.8-1.6-1.7-3.1-2.5-4.7
			c-0.8,1.8-1.7,3.7-2.5,5.5c-4.9-4-9.7-8-14.6-12c-7.2-4.4-9.9,4.7-14.7,7.5c-12-1.7-18,3.7-13.8,13c2.5,5.4,9,8,13.7,11.9
			c0.4-7.1,0.7-14.2,1.1-21.3c0.7,0,1.3,0,2-0.1c0.8,5.4,1.6,10.8,2.4,16.2c0.8-0.1,1.6-0.2,2.4-0.2c0.8-5.6,1.6-11.2,2.3-16.8
			c0.5,0.1,1.1,0.2,1.6,0.3c0.9,5.3,1.9,10.7,2.8,16c12.6,0.6,12.6,0.6,14.4-14.9c2.2,5.4,4.4,10.7,7.8,19.2
			c1.6-6.6,2.4-9.5,3.1-12.5c1.2,2.5,2.5,5,3.7,7.5c4.5-0.3,4.5-0.3,7-12.3c0.8,1.2,2.1,2.1,2.5,3.5
			C718.2,925.8,718.5,929,718.9,932z M239.4,993.8c-1.3-3.5-2.6-7.1-3.9-10.6c-0.8-0.2-1.7-0.4-2.5-0.6c-2.5,8.6-4.9,17.3-7.4,25.9
			c0.9,0.9,1.7,1.7,2.6,2.6c2.9-1.9,5.7-3.8,8.6-5.7C237.6,1001.5,238.5,997.7,239.4,993.8z M1102.9,917c-1.2-2.2-2.4-4.5-3.7-6.7
			c-6-7.6-12.2-7-18.5-0.5c-1.3,2.5-2.6,5.1-3.9,7.6c-0.5,1.2-1,2.4-1.5,3.6c-6-13.3-15.9-7.3-25.4-8.7c0.4,7.6,0.7,14,1.1,20.4
			c0.8,0,1.7,0.1,2.5,0.1c1.1-5.3,2.1-10.6,3.2-15.8c0.6,0.2,1.2,0.4,1.9,0.6c0.5,5.1,1.1,10.2,1.6,15.4c0.8,0,1.7,0.1,2.5,0.1
			c0.9-5.3,1.8-10.6,2.7-16c0.8,0.1,1.6,0.3,2.4,0.4c0.3,4.9,0.7,9.8,1.1,16.1c2.7-2.2,4.6-3.7,6.4-5.2c1.4,2.8,2.7,5.6,4.1,8.3
			c9.7,8.1,15.4,7.4,22.9-2.8c-2.2-1.1-4.4-2.1-6.6-3.2c1.2-0.9,2.5-1.8,3.7-2.7c1.1-0.6,2.2-1.2,3.3-1.8c4.6,7,9.3,10.5,15.4-0.1
			c-3.9,0-6.6,0-9.4,0c0-0.7,0-1.4,0-2.1c2.9-0.2,5.8-0.5,8.8-0.7C1115.9,910.6,1112.4,909.2,1102.9,917z M609.7,918.7
			c0.5,0.3,1,0.6,1.4,1c0.2,0.2,0.3,0.7,0.2,0.9c-1.2,3-2.5,6-3.8,9c2.6,0.6,5.2,1.3,7.8,1.9c1.6,0.4,3.3,0.7,4.9,1
			c0.7-21.3-0.6-23.4-10.8-17.9c-7.7,0.2-2.5-5.2-2.2-11.8c-3.7,3.3-6.1,5.4-8.5,7.6c-1.7,1.6-3.3,3.3-5,5c-2.9-0.8-7.6-3.3-8.5-2
			c-5.9,8.9-9.4,0.3-13.7-2.1c2.4-1.1,4.8-2.2,7.2-3.2c-0.1-0.7-0.3-1.4-0.4-2.1c-3.4,0-6.8,0-10.3,0c-0.8,5-1.6,9.7-2.5,14.6
			c9.7-1.7,9.7-1.7,7.6,7.3c-2.3-1.6-4.5-3.1-8.4-5.7c2.1,9.4,5.8,13.4,10.7,9.2c4.3-3.8,6.4-1.9,10.2,0.2c2.5,1.4,6.5-1.4,9.8-2.3
			c-0.3-1.2-0.5-2.4-0.8-3.6c-2.4,0.7-4.8,1.5-8,2.4c0-4.1,0-7.5,0-10.4c3.2,0,5.7,0,8.2,0c1.3,1.4,3.4,2.6,3.9,4.4
			c0.8,3.4,0.7,7.1,0.9,10.7c1.1,0,2.1,0,3.2,0.1c0.3-3.7,0.7-7.3,0.7-11C603.6,914.6,606.6,916.8,609.7,918.7z M900.8,927
			c0.6-3.9-5.9-6.5-1.5-11.2c-2-1.2-4.1-3.5-6-3.4c-1.9,0.1-4.7,2.2-5.3,4.3c-0.5,1.7,1.5,4.9,3,6.7c1.2,1.4,3.2,1.8,4.8,2.6
			c-0.2,0.6-0.3,1.2-0.5,1.8c-2.6-0.5-5.3-1-9.5-1.9c6.1,8.6,10.6,10.2,15,0.9c2.1,2,4.1,3.9,6.6,6.3c1-5.8,2-11.2,3-16.5
			c0.8,0.2,1.7,0.4,2.5,0.5c0.7,5.3,1.5,10.6,2.2,15.9c1.2-0.1,2.4-0.3,3.5-0.4c-0.3-5.7,1-12.8-1.3-16.7c-2-3.5-8-3.3-10.9-4.3
			C904.1,917.9,902.4,922.5,900.8,927z M322.1,920.2c-5-11.2-8.1-11.5-14.9-1.5c-5.4-4.3-10.8-8.6-17-13.5c0,9.2,0,17.8,0,29.9
			c6.3-3.3,11.6-6.1,16.9-8.9c6.3,10,10.1,9.6,14.9-1.5c4.8,5.8,9.7,11.3,18,6.4c-0.3-6-0.6-12.5-0.8-19c-0.9-0.1-1.8-0.1-2.7-0.2
			c-1.2,5.5-2.3,10.9-3.5,16.4c-0.8-0.2-1.6-0.3-2.3-0.5c-0.8-5.3-1.6-10.7-2.5-16.9C325.5,915.1,323.8,917.6,322.1,920.2z
			 M748,912.8c-2.4,0.5-4.8,1-6.4,1.4c-1.1-3.3-2.2-6.3-3.3-9.4c-0.7,0.3-1.5,0.6-2.2,0.8c0,8.9,0,17.8,0,26.6
			c0.6,0.3,1.2,0.6,1.8,1c1.3-2.4,2.7-4.8,3.9-6.9c2.1,2.3,4.2,4.6,5.6,6c0.3-6.7,0.5-12.5,0.8-18.4c6.6,7.5,8,17.1,4,25.1
			c2.7-0.6,5.7-1.7,7-4.2c2.1-4,2.8-9,4.5-13.3c0.5-1.2,2.5-1.4,3.8-2c1.5,4.3,2.3,9.4,4.7,12.6c0.9,1.2,5.6-2.1,8.5-3.3
			c-0.2-0.8-0.5-1.6-0.7-2.5c-2.6,0.2-5.2,0.3-7.9,0.5c0-0.9,0-1.7-0.1-2.6c3.1-0.5,6.1-1,9.6-1.5c-1.7-9-4.4-14-11.8-8.2
			c-2.2-0.2-4.4-0.4-7.8-0.8c-0.7,1.5-2.2,4.9-2.5,5.5C755.3,916.8,751.6,914.8,748,912.8z M859,920.2c-3-2.7-6.1-5.4-9.1-8
			c-2.1,3.6-5.3,7-5.8,11c-0.3,2.7,2.6,7.8,5,9c4.8,2.3,8.7-0.5,9.9-7.4c1.9,2.7,3.7,5.3,6.3,8.9c1.1-6.1,2.1-11.5,3.1-16.9
			c0.8,0.1,1.7,0.1,2.5,0.2c0.7,5.3,1.4,10.6,2,15.9c1,0,2.1-0.1,3.1-0.1c0-5.6,1.6-12.7-0.5-16.4c-2-3.5-7.9-3.5-10.5-4.5
			C862.2,915.7,860.6,918,859,920.2z M955.5,931.6c1.3-1.6,3.2-2.9,3.8-4.8c1.1-3.1,1.4-6.7,2-10.1c0.8,0.1,1.6,0.2,2.5,0.3
			c0.6,5.3,1.3,10.6,1.9,15.9c1.1-0.1,2.1-0.1,3.2-0.2c0-5.6,1.7-13.1-0.5-16.2c-2.3-3.3-8.5-2.4-12.9-3.3c-0.4,2.1-0.8,4.2-1,4.7
			c-4.2-1.8-8.3-4.7-12.2-4.6c-1.6,0.1-4.3,7-4.1,10.6c0.1,3,3.3,7.2,5.8,8.2c2.1,0.8,5.1-2.2,7.8-3.5c-0.3-0.8-0.5-1.6-0.8-2.4
			c-2.5,0.2-5,0.3-7.6,0.5c0-0.9-0.1-1.7-0.1-2.6c3.6-0.5,7.3-1.1,11.2-1.7C954.9,925.7,955.2,928.7,955.5,931.6z M820.9,913.1
			c-0.8,5-1.6,10.1-2.4,15.1c-0.9-0.2-1.8-0.4-2.7-0.6c-0.6-5.3-1.2-10.6-2.1-18.6c-6.2,13.9-4.5,21.2,3.4,23.3
			c2.5-0.1,5-0.3,7.4-0.4c0.3-5.2,0.5-9.4,0.7-13.6c0.5-0.1,1.1-0.2,1.6-0.3c2,5,4,10,6,15c0.9,0.1,1.8,0.3,2.7,0.4
			c1.9-6.8,3.8-13.7,5.7-20.5c-0.8-0.5-1.6-1-2.3-1.6c-1.7,2.8-3.5,5.6-5.7,9.3C831.8,910.1,825.9,912.8,820.9,913.1z M988.4,916.9
			c5.2,4.2,0.1,17.7,10.2,17.4c-0.1,0.3-0.4,0.7-0.3,1c0.3,1.4,0.7,2.7,1,4c1.6-0.7,4.6-1.4,4.5-2.1c-0.1-8.3-0.6-16.5-1.1-24.8
			c-0.6,0.3-1.2,0.5-1.8,0.8c-2.6-2-5.1-4-8.4-6.6c-1.1,3-2.5,6.7-3.9,10.5c-1.2-0.8-2.3-2.3-3.5-2.4c-3.5-0.3-7.9-1.7-10.3,0.3
			c-2,1.8-2.9,8.2-2,11.7c0.7,2.7,5.5,6.3,7.4,5.5c3-1.3,5.3-5.7,7.5-9.2C988.6,921.6,988.2,919,988.4,916.9z M1139.3,919.4
			c1.4,4-3.9,10.8,3.4,12.2c5.1-10.7,9.4-0.1,14.7,1c1.2-2.4,2.4-5.1,3.7-7.8c3.7,6.6,7.2,11.8,14.4,4.3c1.9-1.9,7.4,1.5,11.2,2.5
			c0.8,0.2,1.6,0.6,2,0.8c1.5-2.8,2.7-5.1,4-7.5c0.4,1.5,0.9,3,1.3,4.5c3.8,0.7,7.7,2.3,11.4,1.6c0.9-0.2,1.2-7.1,1.7-10.9
			c0.2-1.3,0.5-2.7,0.3-4c-0.5-3.3-0.4-7.7-2.1-9.5c-1.4-1.6-5.9-1.6-7.3,0c-1.6,2-1.3,6.4-2,9.7c-0.6,2.8-1.4,5.5-2.2,8.2
			c-0.9-0.2-1.9-0.5-2.8-0.7c-0.4-5.7-0.7-11.3-1.1-17c-0.6-0.4-1.2-0.8-1.8-1.2c-3.7,5.4-7.5,10.7-10.6,15.2
			c-3.5-3.4-6.6-6.2-9.8-9.4c2.8-1.3,5.3-2.4,7.7-3.4c-0.1-0.7-0.2-1.3-0.3-2c-3.4,0-6.7,0-10.4,0c-0.8,4.8-1.6,9.7-2.2,13.9
			c3.7,0.6,6.3,1,8.9,1.4c-0.4,2.2-0.7,4.4-0.9,5.4c-4-0.9-6.8-1.6-9.7-2.3c-1.3-6.4-2.6-12.8-4.4-21.7c-4.5,8.1-8.2,14.7-12.2,21.9
			c-2.2-13-2.2-13-9.1-10.7c-4.7-0.6-9.4-1.3-14.7-2c0.4,7.9,0.6,14.2,0.9,20.5c0.7,0,1.4,0.1,2.2,0.1c1-5.3,2.1-10.7,3.1-16
			c0.7,0.2,1.5,0.3,2.2,0.5c0.7,5.2,1.4,10.5,2.2,15.7c0.6-0.1,1.3-0.2,1.9-0.2c0.9-5.3,1.7-10.5,2.6-15.8
			C1136.9,917.7,1138.1,918.6,1139.3,919.4z M785,917.6c0.4,4.8,0.8,9.6,1.2,14.4c0.6,0,1.2,0.1,1.8,0.1c0.6-5,1.3-10.1,1.9-15.1
			c7.6-1.3,8.3,1.3,4.3,13.8c4.2,0,8.7,0,13.1,0c-1.1-2.4-2.6-5.5-4.2-8.7c1.3-3.1,2.5-6.1,3.5-8.6c-5.6,0-10.6,0-16.4,0
			c1.5-3.4,2.2-5.3,3.2-7.5C785.1,905.9,782.2,910.3,785,917.6z M440.7,910.3c2.9,0,5.9,0,8.6,0c-1.9,7.9-3.5,14.8-5.2,21.6
			c0.9,0.5,1.8,1,2.7,1.5c3.1-8.4,6.1-16.9,9.1-25c4.1,1.1,7,1.8,9.6,2.5c-1.8,7.4-3.4,14.2-5,21c1,0.5,1.9,0.9,2.9,1.4
			c0.9-2.4,1.6-4.9,2.7-7.1c2.4-4.8,4.9-9.5,7.4-14.2c0.4,1.4,0.7,2.7,1.1,4.1c1.4,5.4,2.8,10.8,4.2,16.2c3.8-1.7,7.7-3.4,11.5-5.1
			c-0.2,0.6-0.3,1.1-0.5,1.7c4,0.6,8,1.2,12.1,1.9c0-7.7,0-15.5,0.1-23.2c-4.5,1-9,2.1-14.5,3.4c-4.1-8.4-6.1-8.6-14.1,1.2
			c-1.2-2.2-2.4-6.3-3.7-6.4c-8.3-0.6-16.6-0.5-24.9-0.1c-1.3,0.1-2.5,3.1-3.8,4.8c-1.1-0.9-2.2-1.6-3.2-2.6
			c-4.7-4.2-12.2-1.7-10.3,4.3c2.2-0.4,4.5-0.7,5.3-0.9c0.8,6.1,1.5,11.1,2.3,17.2c-3.5-2.2-5.7-3.7-8-5.1c-0.6,1.2-1.1,2.4-1.7,3.7
			c3.1,1.9,6.2,3.8,9.3,5.7c1.5-4.1,3.3-8.2,4.5-12.4C440.1,917,440.2,913.6,440.7,910.3z M1345,929.4c1.8,0,3.6,0,5.4,0
			c4.3,5.5,9.3,5,12-1c1.5-3.4,0.6-10.5-1.5-13.6c-3.4-5.3-8-3.3-11.3,1.9c-0.7,1.1-1.9,1.7-2.8,2.5c-0.6-1.1-1.2-2.2-1.8-3.3
			c-3.7-5.9-7.3-5.3-10.9,0.2c0,4.3,0,8.6,0,12.9C1337.6,934.3,1341.2,934.8,1345,929.4z M1226.6,932.3c1.6,2.8,3.3,5.7,6.2,10.8
			c0.9-7.5,1.4-11.2,1.6-13.4c6.1,1.2,11.6,2.3,17.8,3.6c-0.4-8.6-0.7-14.9-1-21.2c-0.9-0.1-1.8-0.2-2.6-0.3
			c-1.2,5.5-2.4,11-3.5,16.5c-0.9-0.2-1.8-0.3-2.7-0.5c-0.4-5-0.8-9.9-1.2-14.9c-4.4,0-8.6,0-12.8,0c-5.4-2.2-8.3,1-9,7.2
			C1218.8,926.5,1219.7,932.4,1226.6,932.3z M1281.3,932.3c4.7-1.1,9.3-2.2,15.7-3.7c4.5,6.7,10.7,5.6,16.9-2.7
			c1.6,6.8,5.2,7.8,9.3,6c-1.1-4.5-2.6-8.3-2.9-12.3c-0.4-4.4,0.3-8.9,0.6-13.9c-3.9,3.7-6.3,6.1-8.8,8.4
			c-5.6,0.3-11.3,0.6-16.9,0.9c0.1,0.8,0.3,1.5,0.4,2.3c-2.9-1.6-5.9-3.3-8.8-4.9c-1.2-1.9-2.4-3.9-3.6-5.8c-0.6-0.3-1.2-0.6-1.8-1
			c-5.5,1-9.2,3.7-8.2,12c0.5,3.7,0.1,7.5,0.1,11.3C1275.5,929.9,1278.4,931.1,1281.3,932.3z M173,664.8c0,36.4,0,72.8,0,109.2
			c3.2,0.7,6.3,2,9.5,2c526.3,0.1,1052.5,0.1,1578.8,0c3.2,0,6.3-1.3,9.5-2c0-36.4,0-72.8,0-109.2c-3.1-0.7-6.3-2-9.4-2
			c-526.3-0.1-1052.6-0.1-1578.8,0C179.3,662.9,176.1,664.2,173,664.8z M1599.3,878.1c0.4,4.8,0.6,6.6,0.7,8.5
			c0.6,11.5,2.4,12.7,10.3,6.6c6.7-5.2,13.3-10.6,19.9-15.7c5.6-4.4,5.3-8.4-0.1-12.6c-5.7-4.4-11.2-8.9-16.9-13.3
			c-11.2-8.8-12.2-8.2-14,8.2c-17,8-22.6,17.8-20.7,34.2C1584.8,889.1,1591.4,884,1599.3,878.1z M1519.1,894.2
			c1.3-17.2-3.7-25.8-21-34.9c-1.3-15.8-2.7-16.6-14.1-7.6c-4.6,3.6-9.2,7.3-13.8,10.9c-9.6,7.7-9.6,9.3-0.3,16.8
			c4.8,3.9,9.8,7.4,14.5,11.6c11,9.7,14.5,6.4,13.3-8.3c0-0.5,0.6-1.2,2-3.8C1506.3,884.1,1512.9,889.3,1519.1,894.2z M1745.9,887.3
			c-4.6-6-8.3-10.9-12.2-16.1c4.3-5.6,8.2-10.7,12.5-16.4c-2.5-2.6-4.4-4.6-6.4-6.7c-4.5,5.3-8.4,9.9-12.7,15
			c-4.4-5.2-8.5-10-13.1-15.4c-2.1,2.9-3.7,5.2-7.4,10.3c5.1,4.6,9.8,8.7,15.8,14c-5.5,5.8-9.6,10.2-14.7,15.6c2.3,3,4,5.2,5.8,7.8
			c5.3-6.2,9.4-11,13.7-16c4.6,5.5,8.7,10.3,13,15.5C1742.4,892,1743.9,889.9,1745.9,887.3z M245.7,912.1c0.3,7.6,0.5,14.2,0.8,20.7
			c0.9,0.1,1.8,0.2,2.7,0.3c1-5.4,1.9-10.7,2.9-16.1c0.7,0.2,1.4,0.3,2.1,0.5c0.6,5.1,1.1,10.3,1.7,15.4c0.8,0,1.7,0.1,2.5,0.1
			c0.9-5.3,1.8-10.6,2.8-16c0.7,0.1,1.4,0.3,2.1,0.4c0.6,5.1,1.2,10.2,1.8,15.3c1.1,0,2.3,0.1,3.4,0.1c0-5.4,0.4-10.9-0.2-16.2
			c-0.2-1.7-2.8-4.2-4.4-4.4C258.1,911.7,252.4,912.1,245.7,912.1z M551.9,913.1c0.7-0.7,1.3-1.3,2-2c-2.5-1.9-5-5.5-7.4-5.3
			c-2.2,0.2-5.1,3.9-6.1,6.9c-1.1,3.2-0.9,7.5-0.6,11.2c0.3,2.7,1.2,6.4,2.8,7.4c2,1.3,5.4,1.2,7.4-0.1c1.6-1,2.8-4.6,3-7.2
			C553.3,920.4,552.3,916.7,551.9,913.1z M244.9,924.3c-0.1-1.6-0.1-3.3-0.2-4.9c-3.4-2.4-6.9-7.1-10.1-6.6
			c-2.7,0.4-6.7,6.6-6.6,10.1c0.1,3.4,4.7,9.2,7.3,9.2C238.6,932.1,241.7,927.1,244.9,924.3z M1049.3,924.3c0-1.6-0.1-3.3-0.1-4.9
			c-3.4-2.4-7-7.1-10.1-6.7c-2.7,0.4-6.7,6.6-6.6,10.1c0.1,3.4,4.7,9.2,7.3,9.2C1042.9,932.1,1046.1,927.1,1049.3,924.3z
			 M1367.4,932.4c0.7,0.1,1.5,0.2,2.2,0.3c1-5.3,2-10.6,2.9-15.9c0.8,0.2,1.6,0.4,2.4,0.6c0.6,5.1,1.2,10.2,1.7,15.3
			c0.6,0.1,1.2,0.1,1.9,0.2c1-5.4,2.1-10.7,3.1-16.1c0.7,0.1,1.4,0.2,2.2,0.3c0.7,5.3,1.5,10.5,2.2,15.8c0.9-0.1,1.8-0.2,2.7-0.4
			c0-5.3,0.4-10.7-0.2-16c-0.2-1.7-2.8-4-4.5-4.1c-5.6-0.5-11.3-0.2-16.6-0.2C1367.4,919.5,1367.4,926,1367.4,932.4z M632.3,937.8
			c8.4,1.5,13.5-8.5,14.2-28.7c-2.9,5.8-4.6,9.2-6.4,12.7c-2.2-3.6-4.2-7-6.4-10.6C630,921.2,642.3,928.2,632.3,937.8z M212.8,920.4
			c0-0.9,0.1-1.7,0.1-2.6c-3-0.8-6-1.5-9-2.3c-0.2-1-0.5-2-0.7-2.9c3.6-1.4,7.3-2.9,10.9-4.3c-0.1-0.7-0.2-1.3-0.3-2
			c-4.7,0-9.5,0-15.1,0c1.2,8.8-1.6,18.1,1.7,26.4c0.8,0,1.7,0,2.5-0.1c0.5-3.4,1-6.8,1.5-10.6C207.1,921.5,210,921,212.8,920.4z
			 M394,925.9c-0.4,1.4-0.7,2.9-1,4.3c3.7,0.4,7.9,2.5,11,0.9c4-2.1,4.2-6.8-0.3-10c-0.3-0.2-0.7-1.4-0.6-1.5c6-6.1,0.1-7.1-2.5-7.2
			c-2.4-0.1-4.8,2.8-7.2,4.4c1.8,2.3,3.6,4.6,5.4,6.8c0.9,1.1,2.1,2,5.2,5C398.9,927.3,396.5,926.6,394,925.9z M508.9,931.7
			c1.1,0.5,2.1,1,3.2,1.5c2.9-8.9,5.9-17.8,9.3-28.1c-5.6,0.3-10,0.6-14.8,0.9c0.7,2.2,0.7,2.7,0.9,2.8c2.4,0.8,4.8,1.5,6.8,2.1
			C512.5,917.9,510.7,924.8,508.9,931.7z M1021,917.3c3.2,0.5,5.7,0.9,9.2,1.4c-3.9-7.8-8.7-9.7-12.1-3.4
			c-1.9,3.4-1.5,11.3,0.5,14.7c3.1,5.2,7.9,4,10.9-2.2c0.2-0.3-0.3-1.1-0.6-2.2c-2.4,0.7-4.8,1.4-7.9,2.3
			C1021,923.9,1021,920.7,1021,917.3z M533.5,908.9c-0.9,6.3-1.9,12.5-2.8,18.8c-2.4-1.6-4.5-3.1-6.7-4.5c-0.5,1.3-1.1,2.7-1.6,4
			c3.2,1.8,7.3,6,9.6,4.9C542.2,926.8,533.3,916.7,533.5,908.9z M1263.7,934.3c6.5-8.3,5.9-25.5,0-28.7
			C1263.7,914.6,1263.7,923.4,1263.7,934.3z M413.8,913.6c2,0.5,4,0.9,6,1.4c-2.8,2.4-5.7,4.8-8.5,7.2c0.4-2.4,0.9-4.8,1.3-7.3
			c2,3.4,4,6.9,5.9,10.3c-1.6-0.2-3.2-0.4-4.8-0.6c2.4-3.3,4.8-6.5,7.2-9.8c-0.3,2.8-0.6,5.6-0.9,8.4
			C418,920.1,415.9,916.9,413.8,913.6z M266.1,993.4c3.6,5.7,6.9,10.8,10.5,16.4c0-7.5,0-13.2,0-18.4
			C273.4,992,270.2,992.6,266.1,993.4z M883.7,912.5c-0.8-0.1-1.7-0.2-2.5-0.2c0,6.7,0,13.4,0,20.2c0.8,0,1.7,0,2.5,0
			C883.7,925.8,883.7,919.1,883.7,912.5z M400.4,995.8c2.9,0.8,4,1.5,4.4,1.2c0.9-0.9,1.4-2.4,2.1-3.6
			C405.4,993.9,403.9,994.5,400.4,995.8z M226.3,1071.4c0,0.7,0,1.5,0,2.2c0.8,0.2,1.8,0.8,2.3,0.4c0.9-0.7,1.5-2,2.2-3
			C229.3,1071.2,227.8,1071.3,226.3,1071.4z"/>
		<path class="st1" d="M1920-10.7c0,363.6,0,727.1,0,1090.7c-43.1,0-86.1,0-129.2,0c0-143.1-0.1-286.2,0.2-429.3
			c0-10.6-2.4-13.1-10.7-13.1c-103.6,0.3-207.3,0.2-310.9,0.2c-50,0-100-0.1-150-0.2c0-56.5,0-113,0-169.4c3.6-0.1,7.3-0.4,10.9-0.4
			c83.4,0,166.7,0,250.1,0c12.5,0,15.6-3.8,15.6-19.3c0-24.9,0-49.9,0-74.8c0-15.5-3.1-19.3-15.6-19.3c-55.2,0-110.4,0-165.5,0
			c-33,0-66.1-0.2-99.1-0.4c-3-2.1-5.9-6-9-6.1c-13.3-0.7-26.7-0.2-40-0.3c-10.1-0.1-12.8-3.5-12.8-16.3c-0.1-28,0-55.9,0-83.9
			c0-19.4-4.2-24.5-20.1-24.5c-53.7,0-107.3-0.1-161,0.1c-7.4,0-10.4-2.7-10.2-12.3c0.5-15.5,0.1-31,0.1-46.5
			c17.9-0.1,35.7-0.3,53.6-0.4c12.5-0.1,15.5-3.9,15.5-19.4c0-41.2,0-82.3,0-123.5c0-17-2.8-20.4-16.5-20.4
			c-50.3-0.1-100.6-0.2-150.9-0.4c0-3.5,0-7.1,0-10.6c3.9-0.1,7.9-0.4,11.8-0.4C1290.9-10.7,1605.4-10.7,1920-10.7z M1340.3,163.9
			c61.8,0,123.7,0,185.5,0c12.5,0,15.7-3.8,15.7-19.2c0-41.5,0-83.1,0-124.6c0-15.5-3.1-19.4-15.5-19.4c-123.1,0-246.1,0-369.2,0
			c-12.5,0-15.6,3.8-15.7,19.2c0,41.2,0,82.3,0,123.5c0,17.1,2.8,20.5,16.4,20.5C1218.5,163.9,1279.4,163.9,1340.3,163.9z"/>
		<path class="st2" d="M1920-10.7c-314.6,0-629.1,0-943.7,0c-3.9,0-7.9,0.2-11.8,0.4c-2.4-0.1-4.8-0.3-7.3-0.3
			c-154.1,0-308.2,0-462.3,0c-2.4,0-4.8,0.2-7.2,0.4c-3.3-0.1-6.6-0.4-10-0.4c-121.4,0-242.7,0-364.1,0c-3.3,0-6.6,0.2-10,0.4
			C69.2-10.5,34.6-10.6,0-10.7C0-65.1,0-119.6,0-174c640,0,1280,0,1920,0C1920-119.6,1920-65.1,1920-10.7z"/>
		<path class="st3" d="M0-10.7c34.6,0.1,69.2,0.2,103.7,0.4c0,34.4,0.2,68.7-0.1,103.1c-0.1,10.8,3.4,14.7,11.9,14.6
			c26.7-0.4,53.3-0.2,80-0.1c12,0,15.6,4.6,15.6,19.7c0.1,27.2,0.4,54.4-0.3,81.5c-0.2,6.3-3.8,12.6-6,18.7
			c-2.1,5.9-6.2,11.6-6.2,17.5c-0.4,67.9-0.3,135.9-0.3,203.9c0,12.8,2.9,16.3,13.5,17c12.6,0.8,17.4,6.9,17.4,22.6
			c0,49.8,0,99.7,0,149.5c-25.3,0-50.5,0-76.4,0c0,149,0,295.7,0,442.4c-51,0-101.9,0-152.9,0C0,716.4,0,352.9,0-10.7z"/>
		<path class="st4" d="M152.9,1080c0-146.7,0-293.4,0-442.4c25.9,0,51.2,0,76.4,0c3.6,0.1,7.3,0.2,10.9,0.2c143.5,0,287.1,0,430.6,0
			c33,0,66-0.1,99-0.2c3.9,0.1,7.9,0.2,11.8,0.2c137.2,0,274.4,0,411.5,0c42.1,0,84.2-0.1,126.3-0.2c50,0.1,100,0.2,150,0.2
			c103.6,0,207.3,0.1,310.9-0.2c8.2,0,10.7,2.6,10.7,13.1c-0.3,143.1-0.2,286.2-0.2,429.3c-0.6,0-1.2,0-1.8,0
			c0-146.1,0-292.2,0-439.1c-544.9,0-1088.8,0-1634.3,0c0,146.4,0,292.8,0,439.1C154.1,1080,153.5,1080,152.9,1080z"/>
		<path class="st5" d="M298.5,1080c0.7-3.9,1.3-7.7,2.1-12.7c4.1-0.6,9-3.7,11.9,4.5c-0.5,0.2-1,0.6-1.3,1.3c-0.6,0-1.2,0.1-1.8,0.1
			c-1.2-1.5-2.3-2.9-3.5-4.4c-1.3,3.7-2.5,7.4-3.8,11.1C300.9,1080,299.7,1080,298.5,1080z"/>
		<path class="st6" d="M302.1,1080c1.3-3.7,2.5-7.4,3.8-11.1c1.2,1.5,2.3,2.9,3.5,4.4c0,2.3,0,4.5,0,6.8
			C307,1080,304.5,1080,302.1,1080z"/>
		<path class="st7" d="M217.1,1075.6c-0.2,1.5-0.3,2.9-0.5,4.4c-3,0-6.1,0-9.1,0c0.8-3.5,1.6-7,2.3-10.3c2.6,1.1,4.5,1.9,6.5,2.8
			C216.6,1073.5,216.8,1074.6,217.1,1075.6z"/>
		<path class="st8" d="M234.8,1080c0.6-4.4,1.2-8.7,1.8-13.1c0.6,0.6,1.2,1.2,1.8,1.7c-0.6,3.8-1.2,7.6-1.9,11.3
			C236,1080,235.4,1080,234.8,1080z"/>
		<path class="st6" d="M311.2,1073.1c0.3-0.7,0.8-1.2,1.3-1.3c0.2,2.7,0.4,5.5,0.5,8.2c-0.6,0-1.2,0-1.8,0
			C311.2,1077.7,311.2,1075.4,311.2,1073.1z"/>
		<path class="st9" d="M311.2,1073.1c0,2.3,0,4.6,0,6.9c-0.6,0-1.2,0-1.8,0c0-2.3,0-4.5,0-6.8C310,1073.2,310.6,1073.2,311.2,1073.1
			z"/>
		<path class="st10" d="M173,774.1c0-36.4,0-72.8,0-109.2c3,0.1,6.1,0.2,9.1,0.2c526.5,0,1053,0,1579.5,0c3,0,6.1-0.1,9.1-0.2
			c0,36.4,0,72.8,0,109.2c-4.2-0.1-8.5-0.2-12.7-0.2c-353.3,0-706.7,0-1060,0c-4.2,0-8.3,0-12.9,0c-0.4-5.6-0.7-10-0.9-14.5
			c-3.8-1.9-7.4-3.6-10.9-5.4c-0.5,5.4-1,10.9-1.6,16.3c0,0.4-0.5,0.8-1.7,2.6c2-16.4-5.6-9.3-10.6-8.6c-0.1-0.6-0.2-1.2-0.5-1.7
			c-0.6-0.9-1.2-1.8-1.8-2.8c-0.6,1.6-1.3,3.2-1.9,4.8c-0.7-0.6-1.4-1.3-2.1-1.9c-0.9-1.3-1.8-3.8-2.7-3.8c-3.4,0.1-6.8,1-11,1.8
			c-0.2,2.8-0.5,7.1-0.8,11.4c-11.3,0-22.3,0-33.3,0c-0.9-4-1.9-8.5-3.3-14.9c-8.4,10.3-15.5,21.5-27.7,15.1
			c-0.4-4.9-0.8-9.4-1.2-14c-1.2,0-2.4,0.1-3.6,0.1c-0.5,4.7-1.1,9.4-1.7,14.8c-2.2-1.5-3.7-2.6-5.2-3.7c0-2.3,0-4.6,0-6.9
			c-0.2-1.5-0.4-4.4-0.6-4.4c-2.2-0.1-4.5,0.3-6.8,0.6c-0.4-0.7-0.9-0.9-1.6-0.7c-0.7,1.7-1.5,3.4-2.2,5.1c-1.9,0.4-3.8,0.8-5.8,1.2
			c-4.1-0.6-8.2-1.3-12.3-1.9c-1.5,3-3,6-4.5,9c-1.5-1.5-3.1-3-5.9-5.7c1,4.2,1.3,5.9,2.2,9.9c-10.6-8.6-27.1,7.5-31.4-15.6
			c-3.4-1.5-7-3-10.5-4.5c-1,1.5-1.9,3-2.8,4.5c-1.3-0.1-2.7-0.2-4-0.3c0.1,1.7-0.2,3.8,0.6,4.9c0.5,0.7,2.4,0,3.7-0.1
			c0.8,2.3,1.6,4.6,2.3,6.4c-9,6.2-13.9,1.6-16.9-8.4c-0.6-1.5-1.1-3-1.7-4.6c-0.6,0.1-1.3,0.2-1.9,0.3c-1.2,1.9-2.4,3.8-3.6,5.7
			c0.4-1.1,0.8-2.3,1.2-3.4c-8.8,2.1-18.3,5.5-19.4-9.5c-1.7,7-3.4,14-5.1,21.1c-1-0.7-2.5-1.7-4-2.7c-0.1-2.4-0.2-4.8-0.3-7.1
			c-0.5,0-1.1,0-1.6,0c0,3.7,0,7.4,0,11.1c-1.2-1.3-2.5-2.7-3.7-4c0.4-9-2.6-12.7-8.6-10.4c1.1,5,2.2,9.7,3.2,14.3
			c-3.3-4-6.6-8-10.1-12.3c-5.9,5.7-8.3,7-11.3,5.5c-0.7-1.8-1.5-3.5-2.2-5.3c-3-1.1-6-2.2-8.9-3.3c-0.6-2.1-1.3-4.2-1.9-6.4
			c-0.5,7.3-1,14.7-1.5,22c-0.7-0.1-1.4-0.2-2.1-0.2c0-3.5,0-7.1,0-10.6c-0.7,0-1.3,0-2,0c0,2.1,0,4.3,0,6.4
			c-1.8,1.4-3.5,2.8-5.3,4.2c0-4.9,0-9.8,0-14.8c-2,0.5-3.7,1-5.4,1.4c-3.2,0.7-6.4,1.5-9.5,2.2c-0.6,3.7-1.2,7.4-1.8,11.1
			c-3.8-4.6-7.7-9.2-13.1-15.7c1.8,6.8,2.8,10.7,4.2,16.2C289.9,774.1,231.5,774.1,173,774.1z M660.7,731c1.3-0.2,2.6-0.5,3.9-0.7
			c-0.1-0.5-0.2-1-0.3-1.5c-1.3,0.6-2.6,1.2-3.8,1.8c-0.2,0.4-0.4,0.8-0.7,1.2C660.1,731.5,660.4,731.3,660.7,731z M593.7,720.9
			c-0.7,0.1-1.5,0.2-2.2,0.3c-2.9-2-6.3-6.4-8.4-5.5c-8.5,3.4-1.5,13.9-5.7,19.8c0.8,0.8,1.7,1.7,2.5,2.5c3.9-4.6,7.7-9.1,11.6-13.7
			c1.2,0.3,2.3,0.5,3.5,0.8c0.2,3.3,0.3,6.6,0.5,9.9c0.3,0,0.6,0,0.9-0.1c0.2-3.8,0.4-7.6,0.6-11.4
			C595.9,722.7,594.8,721.8,593.7,720.9z M372.9,732.6c-1.6,0.6-3.2,1.2-4.7,1.8c-0.9-1.7-1.8-3.4-2.7-5.1c0-1.3,0-2.5,0-3.8
			c-0.4-1.9-0.7-3.8-1.1-5.8c-1.4,1-2.8,2-4.3,3c-0.6-0.5-1.2-1.1-1.8-1.6c-1-0.4-2.1-0.9-3.1-1.3c0,1.4,0,2.7,0,4.1
			c0,2.2,0,4.4,0,6.5c0.1,1.6,0.1,3.2,0.2,4.8c1-0.5,1.9-1,2.9-1.6c3.3,1,6.6,1.9,9.9,3c2.1-1,4.2-2,6.2-3c0.2-0.8,0.4-1.5,0.5-2.3
			c0.4-0.4,0.9-0.9,1.3-1.3c0.7,1.1,1.3,2.1,2,3.2c0.3,0.9,0.6,1.9,0.9,2.8c0.2-0.2,0.6-0.6,0.6-0.6c-0.4-0.9-0.8-1.7-1.3-2.5
			c0-4.4,0-8.9,0-13.3c-0.5,0-1.1,0.1-1.6,0.1c-0.2,1.4-0.4,2.9-0.6,4.4c-0.5-0.2-0.9-0.5-1.3-0.8c-0.3-0.6-0.5-1.3-0.5-2.1
			c-0.9-1-1.9-2-2.9-3c0,0-1,1.3-1,1.4c0.7,0.9,1.4,1.7,2.1,2.6C372.9,725.7,372.9,729.1,372.9,732.6z M292.8,744.4
			c0.8-0.1,1.6-0.2,2.4-0.3c0.4-10,1.5-20,1-29.9c-0.2-3-4.9-7.8-7.7-8c-11.7-0.9-23.5-0.4-35.2-0.3c-1.4,0-3.1,0.1-4,1.1
			c-4.7,5.6-5.1,29.5-0.9,36.5c0.3,0.3,0.7,0.6,1,0.9c7.9,0.7,15.7,2,23.6,2C279.6,746.5,286.2,745.2,292.8,744.4z M1248.1,725.6
			c2.6,5.1,4.4,8.6,6.9,13.7c2.4-4.8,4.3-8.5,6.4-12.7c1.4,3.7,2.4,6.5,3.4,9.3c0.4-0.1,0.8-0.3,1.2-0.4c0-7.6,0-15.2,0-22.9
			c-9.7-3.4-7.7,9-12.3,15.5c-1.1-15.4-6.7-20.7-18.2-15c3,7.3,6.1,14.8,9.5,23.1C1246,732.9,1246.8,730.2,1248.1,725.6z
			 M1040.3,736c0.6,0.8,1.2,1.6,1.8,2.4c4.3-4.8,8.6-9.5,12-13.4c2,4.3,3.9,8.5,5.8,12.7c0.5-0.5,0.9-1,1.4-1.5c0-8.2,0-16.4,0-23.6
			c-4.7,0.3-8.5,0.5-12.2,0.7c0.7,0.3,1.5,0.6,2.2,0.9C1047.7,721.5,1044,728.7,1040.3,736z M546.4,731.6c-3.7-0.5-5.8-0.9-7.9-0.9
			c-0.2,0-0.7,3.7-0.6,3.7c2.1,0.9,4.3,2.2,6.4,1.9c2.3-0.4,6.2-2.4,6.2-3.8c0.3-6.9-0.5-13.8-1-20.7c-1,0.1-2.1,0.1-3.1,0.2
			C546.4,718.3,546.4,724.7,546.4,731.6z M529.7,731c-3.4,0-5.7,0-8.1,0.2c-0.1,0-0.3,3.7,0,3.8c2.1,0.8,4.5,1.9,6.5,1.4
			c2.2-0.6,5.9-2.7,6-4.3c0.2-6.7-0.7-13.5-1.2-20.2c-1.1,0.1-2.1,0.3-3.2,0.4C529.7,718.5,529.7,724.8,529.7,731z M885.4,737.7
			c1.6-0.1,3.1-0.2,4.7-0.3c0.7-6.2,1.3-12.3,2-18.8c-4.3,0.3-6.9,0.5-10.3,0.8C883.1,725.9,884.3,731.8,885.4,737.7z M344.5,708.8
			c0,11,0,18.9,0,27C351.7,733.2,352,723.7,344.5,708.8z M1150.9,710.3c-8.8,9.1-8.3,20.6,0,26.6
			C1150.9,728.6,1150.9,720.4,1150.9,710.3z M805.7,737.2c0.9-8.8,1.8-17.7,2.6-26.4C800.7,710.8,801.8,716.2,805.7,737.2z
			 M870,718.4c-2.6,18-2.6,18,7.9,17.4C875.1,729.5,872.5,723.9,870,718.4z M1020.2,710.9c-10.3,9.3-3,17.5,0,25.7
			C1020.2,728.6,1020.2,720.4,1020.2,710.9z M1156.2,736.5c7.3-9.7,6.9-19.3,0-23.6C1156.2,720.2,1156.2,728,1156.2,736.5z
			 M1067,735.6c7.2-6.6,7.2-15.8,0-23.5C1067,719.8,1067,727.9,1067,735.6z M1227.5,735.8c0.6,0,1.1,0,1.7-0.1c0-7.3,0-14.6,0-21.9
			c-0.6,0-1.1,0.1-1.7,0.1C1227.5,721.2,1227.5,728.5,1227.5,735.8z M540.3,711.4c-0.9,0.6-1.7,1.1-2.6,1.7c0.9,1.9,1.8,3.8,2.7,5.8
			c0.6-0.4,1.3-0.8,1.9-1.2C541.6,715.5,540.9,713.5,540.3,711.4z M524.4,711.5c-1,0.3-1.9,0.6-2.9,0.9c0.6,2.1,1.3,4.2,1.9,6.3
			c0.7-0.2,1.4-0.5,2.1-0.7C525.2,715.8,524.8,713.7,524.4,711.5z M629.4,722c-0.4,0.1-0.8,0.1-1.1,0.2c0,3.5,0,7,0,10.5
			c0.4,0,0.8,0,1.1,0C629.4,729.1,629.4,725.6,629.4,722z M596.6,713.5c-0.1-0.7-0.3-1.3-0.4-2c-0.5,0.2-1.4,0.4-1.4,0.7
			c-0.1,0.7,0.3,1.5,0.5,2.2C595.7,714.2,596.1,713.8,596.6,713.5z M653.8,734c0.3,0,0.7-0.1,1-0.1c-0.1-1.2-0.1-2.4-0.2-3.5
			c-0.3,0-0.6,0-0.9,0.1C653.7,731.6,653.7,732.8,653.8,734z"/>
		<path class="st11" d="M173,774.1c58.5,0,117,0,176.4,0c-1.4-5.5-2.5-9.4-4.2-16.2c5.4,6.5,9.2,11.1,13.1,15.7
			c0.7,0.1,1.4,0.2,2.1,0.3c0.7-0.9,1.5-1.8,2.2-2.7c0.5,0.1,1,0.2,1.5,0.3c1.8-0.6,3.7-1.3,5.5-1.9c1.8,1.3,3.6,2.6,5.5,4
			c1.8-1.4,3.5-2.8,5.3-4.2c0.7,1.4,1.3,2.8,2,4.2c0.7,0.1,1.4,0.2,2.1,0.2c0.5-0.1,1.1-0.3,1.6-0.6l0.8,0.4l0.9-0.2
			c2.3-0.2,4.6-0.5,6.9-0.7c0.7,0.4,1.4,0.8,2.1,1.2c0.8-2.3,1.6-4.7,2.4-7c3,1.5,5.4,0.2,11.3-5.5c3.5,4.3,6.8,8.3,10.1,12.3
			c1.8-1.3,3.6-2.6,5.4-3.9c1.2,1.3,2.5,2.7,3.7,4.1c0.7-1.4,1.3-2.7,2-4.1c1.5,1,2.9,2,4,2.7c1.7-7.2,3.4-14.1,5.1-21.1
			c0,7,0,14,0,19.3c8.4,0,16.7,0,25.4,0c0-1.3,0-4.6,0-7.9c3,10.1,7.9,14.6,16.9,8.4c-0.6-1.8-1.4-4.1-2.3-6.4
			c-0.1-1.5-0.1-3-0.2-4.5c0.9-1.5,1.9-2.9,2.8-4.5c3.5,1.5,7,3,10.5,4.5c4.3,23,20.8,7,31.4,15.6c-0.9-4-1.3-5.7-2.2-9.9
			c2.8,2.7,4.4,4.2,5.9,5.7c0.8,0.5,1.7,1,2.5,1.6c5-2.3,11.9,0.3,14.3-8.7c1.9-0.4,3.8-0.8,5.8-1.2c0,0.7-0.1,1.3-0.2,2
			c-0.1,1.8-0.2,3.6-0.3,5.4c0.9,1.1,1.8,2.1,2.6,3.2c0.5,0,1,0,1.5-0.2c0.6,0.1,1.3,0.1,1.9,0.2c1.9-1.4,3.7-2.8,5.6-4.3
			c1.5,1.1,3,2.1,5.2,3.7c0.6-5.4,1.1-10.1,1.7-14.8c1.2,0,2.4-0.1,3.6-0.1c0.4,4.6,0.8,9.2,1.2,14c12.2,6.4,19.3-4.7,27.7-15.1
			c1.4,6.4,2.4,10.9,3.3,14.9c11.1,0,22,0,33.3,0c0.3-4.3,0.6-8.7,0.8-11.4c4.2-0.8,7.6-1.7,11-1.8c0.9,0,1.8,2.4,2.7,3.8
			c-0.7,3.4-1.3,6.8-2,10.2c3-0.5,5.3-0.9,7.8-1.3c0.1-2.1,0.3-4.7,0.5-7.3c5-0.7,12.6-7.8,10.6,8.6c1.2-1.8,1.6-2.2,1.7-2.6
			c0.6-5.4,1.1-10.9,1.6-16.3c3.6,1.8,7.2,3.5,10.9,5.4c0.3,4.5,0.6,8.9,0.9,14.5c4.6,0,8.8,0,12.9,0c353.3,0,706.7,0,1060,0
			c4.2,0,8.5,0.1,12.7,0.2c-3.2,0.7-6.3,2-9.5,2c-526.3,0.1-1052.5,0.1-1578.8,0C179.3,776,176.1,774.8,173,774.1z"/>
		<path class="st4" d="M1770.7,664.8c-3,0.1-6.1,0.2-9.1,0.2c-526.5,0-1053,0-1579.5,0c-3,0-6.1-0.1-9.1-0.2c3.1-0.7,6.3-2,9.4-2
			c526.3-0.1,1052.6-0.1,1578.8,0C1764.4,662.9,1767.6,664.2,1770.7,664.8z"/>
		<path class="st12" d="M1599.3,878.1c-7.8,6-14.5,11-20.7,15.8c-2-16.3,3.7-26.1,20.7-34.2c1.8-16.4,2.8-17,14-8.2
			c5.6,4.4,11.2,9,16.9,13.3c5.4,4.2,5.7,8.2,0.1,12.6c-6.7,5.2-13.2,10.6-19.9,15.7c-7.9,6.1-9.7,4.9-10.3-6.6
			C1599.9,884.7,1599.7,882.9,1599.3,878.1z"/>
		<path class="st12" d="M1519.1,894.2c-6.3-4.9-12.9-10.1-19.4-15.3c-1.4,2.6-2,3.2-2,3.8c1.2,14.7-2.4,18-13.3,8.3
			c-4.7-4.2-9.7-7.7-14.5-11.6c-9.3-7.4-9.2-9.1,0.3-16.8c4.6-3.7,9.2-7.3,13.8-10.9c11.3-9,12.8-8.2,14.1,7.6
			C1515.4,868.4,1520.4,877,1519.1,894.2z"/>
		<path class="st13" d="M1745.9,887.3c-1.9,2.6-3.5,4.7-5.6,7.6c-4.4-5.2-8.4-10-13-15.5c-4.3,5-8.4,9.8-13.7,16
			c-1.9-2.5-3.6-4.8-5.8-7.8c5.1-5.4,9.2-9.8,14.7-15.6c-6-5.3-10.6-9.4-15.8-14c3.7-5.1,5.4-7.4,7.4-10.3
			c4.6,5.4,8.7,10.2,13.1,15.4c4.3-5,8.2-9.6,12.7-15c2,2.1,3.9,4.1,6.4,6.7c-4.4,5.7-8.3,10.8-12.5,16.4
			C1737.6,876.4,1741.3,881.3,1745.9,887.3z"/>
		<path class="st9" d="M1161.1,924.6c2.8,0.7,5.7,1.3,9.7,2.3c0.2-1,0.5-3.2,0.9-5.4c-2.6-0.4-5.2-0.8-8.9-1.4
			c0.7-4.2,1.5-9.1,2.2-13.9c3.6,0,7,0,10.4,0c0.1,0.7,0.2,1.3,0.3,2c-2.4,1.1-4.9,2.2-7.7,3.4c3.3,3.1,6.3,6,9.8,9.4
			c3.1-4.5,6.9-9.9,10.6-15.2c0,5.1,0,10.3,0,15.4c0.6,0,1.2,0,1.8,0c0-4.7,0-9.4,0-14.1c0.4,5.7,0.7,11.3,1.1,17
			c0.9,0.2,1.9,0.5,2.8,0.7c0.7-2.7,1.6-5.5,2.2-8.2c0.7-3.3,0.3-7.7,2-9.7c1.3-1.6,5.8-1.6,7.3,0c1.7,1.9,1.6,6.2,2.1,9.5
			c0.2,1.3-0.1,2.7-0.3,4c-0.5,3.8-0.8,10.7-1.7,10.9c-3.7,0.6-7.6-0.9-11.4-1.6c-0.4-1.5-0.9-3-1.3-4.5c-1.3,2.4-2.5,4.7-4,7.5
			c-0.4-0.2-1.2-0.6-2-0.8c-3.8-1-9.3-4.5-11.2-2.5c-7.2,7.5-10.6,2.3-14.4-4.3C1161.1,924.9,1161.1,924.6,1161.1,924.6z"/>
		<path class="st9" d="M473.3,912c8-9.8,9.9-9.6,14.1-1.2c5.5-1.3,10-2.3,14.5-3.4c0,7.7,0,15.5-0.1,23.2c-4-0.6-8-1.2-12.1-1.9
			c0.2-0.6,0.3-1.1,0.5-1.7c-3.8,1.7-7.7,3.4-11.5,5.1c-1.4-5.4-2.8-10.8-4.2-16.2c-0.4-1.4-0.7-2.7-1.1-4.1
			C473.4,911.9,473.3,912,473.3,912z"/>
		<path class="st9" d="M1313.8,926c-6.2,8.3-12.4,9.4-16.9,2.7c-6.3,1.5-11,2.6-15.7,3.7c0-8.9,0-17.8,0-26.7c0.6,0.3,1.2,0.6,1.8,1
			c1.2,1.9,2.4,3.9,3.6,5.8c2.9,1.6,5.9,3.3,8.8,4.9c-0.1-0.8-0.3-1.5-0.4-2.3c5.6-0.3,11.3-0.6,16.9-0.9
			C1312.6,918.1,1313.2,922.1,1313.8,926z M1287.2,922.1c1.4,0.7,2.3,1.4,2.4,1.2c0.5-0.9,0.9-1.9,1.3-2.9
			C1289.9,920.9,1288.9,921.4,1287.2,922.1z"/>
		<path class="st9" d="M594.9,917.7c-2.5,0-4.9,0-8.1,0c0,3,0,6.3,0,10.4c3.1-1,5.6-1.7,8-2.4c0.3,1.2,0.5,2.4,0.8,3.6
			c-3.3,0.9-7.3,3.7-9.8,2.3c-3.8-2.1-5.8-4-10.2-0.2c-4.9,4.3-8.7,0.3-10.7-9.2c3.8,2.6,6.1,4.1,8.4,5.7c2.1-9,2.1-9-7.6-7.3
			c0.8-5,1.6-9.7,2.5-14.6c3.5,0,6.9,0,10.3,0c0.1,0.7,0.3,1.4,0.4,2.1c-2.4,1.1-4.8,2.2-7.2,3.2c4.3,2.4,7.9,11,13.7,2.1
			c0.9-1.3,5.5,1.2,8.4,2C594.2,916.2,594.5,917,594.9,917.7z"/>
		<path class="st14" d="M1228.6,912.9c4.2,0,8.4,0,12.8,0c0.4,5,0.8,9.9,1.2,14.9c0.9,0.2,1.8,0.3,2.7,0.5c1.2-5.5,2.4-11,3.5-16.5
			c0.9,0.1,1.8,0.2,2.6,0.3c0.3,6.3,0.6,12.6,1,21.2c-6.3-1.3-11.7-2.3-17.8-3.6c-0.3,2.2-0.7,5.9-1.6,13.4c-3-5.1-4.6-7.9-6.2-10.8
			c0-1.4,0.1-2.7,0.1-4.1c0.2-0.2,0.4-0.4,0.6-0.7c-0.1-0.2-0.3-0.3-0.4-0.5c-0.2,0.3-0.4,0.5-0.5,0.8c1.2-4.3,2.3-8.5,3.6-13.4
			C1230.4,914.7,1229.5,913.8,1228.6,912.9z M1231.6,928.5c-0.1-0.3-0.1-0.7-0.3-0.9c-0.1-0.1-0.6,0.1-0.6,0.2
			c0,0.3,0.1,0.7,0.2,0.9C1231,928.8,1231.4,928.6,1231.6,928.5z"/>
		<path class="st9" d="M1346.7,919.1c1-0.8,2.1-1.4,2.8-2.5c3.4-5.2,7.9-7.2,11.3-1.9c2.1,3.1,2.9,10.2,1.5,13.6
			c-2.6,6.1-7.6,6.6-12,1c-1.4-1.4-2.7-2.9-4.1-4.3c-0.4,1.5-0.9,2.9-1.3,4.4c-3.8,5.5-7.5,4.9-11-0.5c0-4.3,0-8.6,0-12.9
			c3.6-5.5,7.2-6.1,10.9-0.2C1345.6,916.9,1346.1,918,1346.7,919.1z M1342.8,916.4c-3.1,2.6-4.9,4-6.7,5.5c1,1.4,1.9,3.1,3.1,4.1
			c0.8,0.7,2,0.6,3.6,1C1342.8,923.7,1342.8,921.3,1342.8,916.4z"/>
		<path class="st14" d="M1075.4,921c0.5-1.2,1-2.4,1.5-3.6c2.7-0.9,5.4-1.9,10-3.5c-3.8-2.5-5-3.3-6.1-4.1c6.3-6.5,12.5-7,18.5,0.5
			c-1.9,2.6-3.8,5.2-5,6.9c2.1,4.4,3.7,7.6,5.2,10.8c-1.2,0.9-2.5,1.8-3.7,2.7c-3.1-6.5-7.3-7.1-12.5-3.6c0.8,3.2,1.5,5.9,2,7.7
			c-2.2,0.7-4,1.3-5.7,1.8c-1.4-2.8-2.7-5.6-4.1-8.3C1075.4,925.9,1075.4,923.4,1075.4,921z"/>
		<path class="st8" d="M440.9,910.3c1.3-1.7,2.5-4.7,3.8-4.8c8.3-0.4,16.6-0.5,24.9,0.1c1.3,0.1,2.5,4.1,3.7,6.3
			c0,0,0.1-0.1,0.1-0.1c-2.5,4.7-5,9.4-7.4,14.2c-1.1,2.2-1.8,4.8-2.7,7.1c-1-0.5-1.9-0.9-2.9-1.4c1.6-6.8,3.3-13.6,5-21
			c-2.6-0.7-5.5-1.4-9.6-2.5c-3,8.2-6,16.6-9.1,25c-0.9-0.5-1.8-1-2.7-1.5c1.6-6.8,3.3-13.7,5.2-21.6c-2.7,0-5.6,0-8.6,0
			L440.9,910.3z"/>
		<path class="st12" d="M1075.4,921c0,2.4,0,4.9,0,7.3c-1.8,1.5-3.7,3-6.4,5.2c-0.4-6.2-0.8-11.2-1.1-16.1c-0.8-0.1-1.6-0.3-2.4-0.4
			c-0.9,5.3-1.8,10.6-2.7,16c-0.8,0-1.7-0.1-2.5-0.1c-0.5-5.1-1.1-10.2-1.6-15.4c-0.6-0.2-1.2-0.4-1.9-0.6
			c-1.1,5.3-2.1,10.6-3.2,15.8c-0.8,0-1.7-0.1-2.5-0.1c-0.3-6.4-0.7-12.8-1.1-20.4C1059.5,913.7,1069.3,907.7,1075.4,921z"/>
		<path class="st12" d="M245.7,912.1c6.6,0,12.4-0.3,18.1,0.2c1.6,0.2,4.2,2.6,4.4,4.4c0.6,5.3,0.2,10.8,0.2,16.2
			c-1.1,0-2.3-0.1-3.4-0.1c-0.6-5.1-1.2-10.2-1.8-15.3c-0.7-0.1-1.4-0.3-2.1-0.4c-0.9,5.3-1.8,10.6-2.8,16c-0.8,0-1.7-0.1-2.5-0.1
			c-0.6-5.1-1.1-10.3-1.7-15.4c-0.7-0.2-1.4-0.3-2.1-0.5c-1,5.4-1.9,10.7-2.9,16.1c-0.9-0.1-1.8-0.2-2.7-0.3
			C246.2,926.2,246,919.7,245.7,912.1z"/>
		<path class="st5" d="M307.2,926.1c-5.3,2.8-10.6,5.6-16.9,8.9c0-12.1,0-20.8,0-29.9c6.1,4.9,11.5,9.2,17,13.5
			C307.2,921.2,307.2,923.6,307.2,926.1z"/>
		<path class="st5" d="M788,932.2c-0.6,0-1.2-0.1-1.8-0.1c-0.4-4.8-0.8-9.6-1.2-14.4c-2.8-7.3,0.1-11.8,8.4-11.6
			c-0.9,2.2-1.7,4.1-3.2,7.5c5.8,0,10.9,0,16.4,0c-1,2.5-2.3,5.5-3.5,8.6c1.5,3.2,3,6.4,4.2,8.7c-4.4,0-8.9,0-13.1,0
			c4-12.5,3.4-15.1-4.3-13.8C789.3,922.1,788.7,927.1,788,932.2z"/>
		<path class="st8" d="M1161.1,924.6c0,0,0,0.2,0,0.2c-1.3,2.7-2.5,5.3-3.7,7.8c-5.2-1.1-9.5-11.7-14.7-1c-1.1-4.1-2.3-8.1-3.4-12.2
			c-1.2-0.9-2.4-1.7-3.6-2.6c-0.1-0.9-0.2-1.8-0.3-2.8c6.9-2.3,6.9-2.3,9.1,10.7c4-7.2,7.7-13.8,12.2-21.9
			C1158.5,911.8,1159.8,918.2,1161.1,924.6z"/>
		<path class="st8" d="M1002.7,912.5c0.4,8.3,1,16.5,1.1,24.8c0,0.7-3,1.4-4.5,2.1c-0.3-1.3-0.7-2.7-1-4c-0.1-0.3,0.2-0.7,0.3-1
			c-10.1,0.3-5-13.2-10.2-17.4l0.2,0.2c1.4-3.7,2.8-7.5,3.9-10.5c3.3,2.6,5.9,4.6,8.4,6.6c0,6.3,0,12.7,0,19c0.6,0,1.2,0,1.8,0
			C1002.7,925.7,1002.7,919.1,1002.7,912.5z M997.2,928.3c0.9-0.3,1.7-0.5,2.6-0.8c0-3.8,0-7.5,0-11.3c-0.9,0-1.7,0-2.6,0
			C997.2,920.2,997.2,924.3,997.2,928.3z"/>
		<path class="st13" d="M551.9,913.1c0.4,3.6,1.4,7.3,1.2,10.9c-0.2,2.6-1.4,6.2-3,7.2c-2.1,1.3-5.4,1.4-7.4,0.1
			c-1.6-1-2.6-4.7-2.8-7.4c-0.4-3.7-0.6-8,0.6-11.2c1.1-3,3.9-6.7,6.1-6.9c2.4-0.2,4.9,3.4,7.4,5.3
			C553.2,911.8,552.6,912.4,551.9,913.1z"/>
		<path class="st12" d="M820.9,913.1c5.1-0.3,10.9-3.1,12.5,7.6c2.3-3.7,4-6.5,5.7-9.3c0.8,0.5,1.6,1,2.3,1.6
			c-1.9,6.8-3.8,13.7-5.7,20.5c-0.9-0.1-1.8-0.3-2.7-0.4c-2-5-4-10-6-15c-0.5,0.1-1.1,0.2-1.6,0.3c-0.2,4.2-0.5,8.5-0.7,13.6
			c-2.4,0.1-4.9,0.3-7.4,0.4c2.7-2.3,6.4-3.5,3.9-9.6C820,920.2,820.9,916.4,820.9,913.1z"/>
		<path class="st13" d="M664.2,938.1c-4.7-3.9-11.2-6.4-13.7-11.9c-4.3-9.3,1.8-14.7,13.8-13C664.2,921.5,664.2,929.8,664.2,938.1z"
			/>
		<path class="st8" d="M678.9,905.7c4.9,4,9.7,8,14.6,12c0,0-0.2-0.4-0.2-0.4c-1.8,15.5-1.8,15.5-14.4,14.9
			C678.9,923.4,678.9,914.6,678.9,905.7z"/>
		<path class="st12" d="M678.9,905.7c0,8.8,0,17.7,0,26.5c-0.9-5.3-1.9-10.7-2.8-16c-0.5-0.1-1.1-0.2-1.6-0.3
			c-0.8,5.6-1.6,11.2-2.3,16.8c-0.8,0.1-1.6,0.2-2.4,0.2c-0.8-5.4-1.6-10.8-2.4-16.2c-0.7,0-1.3,0-2,0.1c-0.4,7.1-0.7,14.2-1.1,21.3
			c0-8.3,0-16.6,0.1-24.9C669,910.5,671.7,901.3,678.9,905.7z"/>
		<path class="st9" d="M955.5,931.6c-0.3-2.9-0.6-5.9-1-9c-3.9,0.6-7.6,1.1-11.2,1.7c0,0.9,0.1,1.7,0.1,2.6c2.5-0.2,5-0.3,7.6-0.5
			c0.3,0.8,0.5,1.6,0.8,2.4c-2.6,1.3-5.7,4.4-7.8,3.5c-2.5-1-5.7-5.2-5.8-8.2c-0.1-3.7,2.5-10.6,4.1-10.6c4-0.2,8,2.8,12.2,4.6
			c0.1-0.5,0.5-2.6,1-4.7C955.5,919.3,955.5,925.5,955.5,931.6z"/>
		<path class="st8" d="M859,920.2c1.6-2.2,3.2-4.4,6.1-8.4c2.6,0.9,8.5,1,10.5,4.5c2.1,3.8,0.5,10.8,0.5,16.4c-1,0-2.1,0.1-3.1,0.1
			c-0.7-5.3-1.4-10.6-2-15.9c-0.8-0.1-1.7-0.1-2.5-0.2c-1,5.4-2,10.8-3.1,16.9c-2.5-3.6-4.4-6.2-6.3-8.9
			C859,923.2,859,921.7,859,920.2z"/>
		<path class="st14" d="M244.9,924.3c-3.2,2.8-6.4,7.8-9.5,7.8c-2.6,0-7.3-5.8-7.3-9.2c-0.1-3.5,4-9.8,6.6-10.1
			c3.1-0.4,6.7,4.2,10.1,6.6C244.8,921,244.9,922.7,244.9,924.3z"/>
		<path class="st14" d="M988.4,916.9c-0.2,2.1,0.2,4.7-0.7,6.1c-2.1,3.5-4.5,7.9-7.5,9.2c-1.9,0.8-6.7-2.7-7.4-5.5
			c-0.9-3.4,0-9.9,2-11.7c2.3-2.1,6.8-0.7,10.3-0.3c1.2,0.1,2.3,1.6,3.5,2.4C988.6,917.1,988.4,916.9,988.4,916.9z"/>
		<path class="st14" d="M1049.3,924.3c-3.2,2.8-6.4,7.8-9.5,7.7c-2.6,0-7.3-5.8-7.3-9.2c-0.1-3.5,4-9.8,6.6-10.1
			c3.1-0.4,6.7,4.2,10.1,6.7C1049.2,921,1049.3,922.7,1049.3,924.3z"/>
		<path class="st5" d="M767.5,919.6c-1.3,0.7-3.3,0.9-3.8,2c-1.7,4.3-2.4,9.3-4.5,13.3c-1.3,2.5-4.3,3.6-7,4.2
			c4-7.9,2.5-17.6-4-25.1c-0.1-0.4-0.1-0.8-0.2-1.2c3.6,2,7.3,4,11.6,6.4c0.3-0.6,1.8-3.9,2.5-5.5c3.4,0.3,5.6,0.6,7.8,0.8
			C769,916.2,768.3,917.9,767.5,919.6z"/>
		<path class="st9" d="M859,920.2c0,1.5,0,3,0,4.5c-1.1,6.9-5,9.7-9.9,7.4c-2.4-1.1-5.3-6.2-5-9c0.5-3.9,3.7-7.3,5.8-11
			C853,914.8,856,917.5,859,920.2z"/>
		<path class="st8" d="M322.1,920.2c1.7-2.5,3.4-5.1,6.2-9.3c0.9,6.2,1.7,11.6,2.5,16.9c0.8,0.2,1.6,0.3,2.3,0.5
			c1.2-5.5,2.3-10.9,3.5-16.4c0.9,0.1,1.8,0.1,2.7,0.2c0.3,6.5,0.6,12.9,0.8,19c-8.3,4.9-13.2-0.6-18-6.3
			C322.1,923.2,322.1,921.7,322.1,920.2z"/>
		<path class="st8" d="M900.8,927c1.7-4.6,3.4-9.1,5.6-15.4c2.9,1,8.9,0.8,10.9,4.3c2.3,3.9,1,11,1.3,16.7c-1.2,0.1-2.4,0.3-3.5,0.4
			c-0.7-5.3-1.5-10.6-2.2-15.9c-0.8-0.2-1.7-0.4-2.5-0.5c-1,5.4-1.9,10.7-3,16.5c-2.4-2.3-4.5-4.3-6.6-6.3
			C900.8,926.8,900.8,927,900.8,927z"/>
		<path class="st13" d="M1367.4,932.4c0-6.5,0-12.9,0-20.2c5.3,0,11-0.3,16.6,0.2c1.6,0.1,4.3,2.4,4.5,4.1c0.6,5.2,0.2,10.6,0.2,16
			c-0.9,0.1-1.8,0.2-2.7,0.4c-0.7-5.3-1.5-10.5-2.2-15.8c-0.7-0.1-1.4-0.2-2.2-0.3c-1,5.4-2.1,10.7-3.1,16.1
			c-0.6-0.1-1.2-0.1-1.9-0.2c-0.6-5.1-1.2-10.2-1.7-15.3c-0.8-0.2-1.6-0.4-2.4-0.6c-1,5.3-2,10.6-2.9,15.9
			C1368.8,932.6,1368.1,932.5,1367.4,932.4z"/>
		<path class="st5" d="M632.3,937.8c9.9-9.6-2.3-16.6,1.4-26.6c2.2,3.6,4.3,7,6.4,10.6c1.7-3.5,3.5-6.9,6.4-12.7
			C645.8,929.2,640.8,939.3,632.3,937.8z"/>
		<path class="st14" d="M360.5,922.4c-1.6,3.4-3.3,6.7-6.1,12.6c-1.1-7.4-1.8-12.7-2.6-18.1c-0.9-0.1-1.7-0.2-2.6-0.3
			c-0.9,5.2-1.7,10.5-2.9,17.7c-5.9-7.1-2.4-14.5-3.5-20.5C351.9,907.5,355.8,916.2,360.5,922.4
			C360.5,922.3,360.5,922.4,360.5,922.4z"/>
		<path class="st14" d="M1281.3,905.7c0,8.9,0,17.8,0,26.7c-2.9-1.2-5.8-2.4-8.1-3.4c0-3.8,0.4-7.7-0.1-11.3
			C1272,909.4,1275.8,906.7,1281.3,905.7z"/>
		<path class="st12" d="M748,912.8c0,0.4,0.1,0.8,0.2,1.2c-0.2,5.8-0.5,11.6-0.8,18.4c-1.4-1.5-3.5-3.8-5.6-6
			c-1.2,2.1-2.6,4.5-3.9,6.9c-0.6-0.3-1.2-0.6-1.8-1c0-8.9,0-17.8,0-26.6c0.7-0.3,1.5-0.6,2.2-0.8c1.1,3.1,2.1,6.1,3.3,9.4
			C743.3,913.8,745.6,913.3,748,912.8z"/>
		<path class="st5" d="M693.3,917.3c0,0,0.2,0.4,0.2,0.4c0.8-1.8,1.7-3.7,2.5-5.5c0.8,1.6,1.7,3.1,2.5,4.7c0.3,1.1,0.6,2.2,0.9,3.3
			c1.6-2.6,3.3-5.1,4.9-7.7c1.1,0.8,2.2,1.5,3.3,2.3c-0.9,10,5.2,2.1,7.3,4.5c-2.5,11.9-2.5,11.9-7,12.3c-1.2-2.5-2.5-5-3.7-7.5
			c-0.7,2.9-1.5,5.9-3.1,12.5C697.7,928.1,695.5,922.7,693.3,917.3z"/>
		<path class="st9" d="M322.1,920.2c0,1.5,0,3,0,4.5c-4.9,11.1-8.6,11.5-14.9,1.5c0-2.5,0-5,0-7.5C314,908.7,317.1,909,322.1,920.2z
			"/>
		<path class="st9" d="M609.4,914.6c10.2-5.4,11.5-3.4,10.8,17.9c-1.7-0.3-3.3-0.6-4.9-1c-2.6-0.6-5.2-1.3-7.8-1.9
			c1.3-3,2.6-6,3.8-9c0.1-0.2,0-0.8-0.2-0.9c-0.4-0.4-0.9-0.7-1.4-1C609.6,917.3,609.5,916,609.4,914.6z"/>
		<path class="st8" d="M440.7,910.3c-0.5,3.3-0.7,6.8-1.6,9.9c-1.2,4.3-3,8.3-4.5,12.4c-3.1-1.9-6.2-3.8-9.3-5.7
			c0.6-1.2,1.1-2.4,1.7-3.7c2.3,1.5,4.5,2.9,8,5.1c-0.8-6.1-1.5-11.1-2.3-17.2c-0.8,0.1-3.1,0.5-5.3,0.9c-1.9-6,5.6-8.5,10.3-4.3
			c1,0.9,2.1,1.7,3.2,2.6C440.9,910.3,440.7,910.3,440.7,910.3z"/>
		<path class="st13" d="M1102.9,917c9.5-7.8,13.1-6.4,14.6,6.2c-3,0.2-5.9,0.5-8.8,0.7c0,0.7,0,1.4,0,2.1c2.8,0,5.6,0,9.4,0
			c-6.1,10.6-10.8,7.1-15.4,0.1c0-1.6,0-3.2,0-4.8c0-0.8,0-1.6,0-2.4C1102.7,918.3,1102.8,917.6,1102.9,917z"/>
		<path class="st8" d="M955.5,931.6c0-6.1,0-12.3,0-18.4c4.5,0.9,10.6,0,12.9,3.3c2.2,3.1,0.5,10.6,0.5,16.2
			c-1.1,0.1-2.1,0.1-3.2,0.2c-0.6-5.3-1.3-10.6-1.9-15.9c-0.8-0.1-1.6-0.2-2.5-0.3c-0.6,3.4-0.9,6.9-2,10.1
			C958.7,928.7,956.8,930,955.5,931.6z"/>
		<path class="st13" d="M1079.5,936.7c1.8-0.6,3.5-1.1,5.7-1.8c-0.5-1.8-1.2-4.5-2-7.7c5.3-3.5,9.4-2.9,12.5,3.6
			c2.2,1.1,4.4,2.1,6.6,3.2C1094.9,944.1,1089.2,944.8,1079.5,936.7z"/>
		<path class="st5" d="M212.8,920.4c-2.8,0.6-5.6,1.1-8.3,1.7c-0.5,3.7-1,7.1-1.5,10.6c-0.8,0-1.7,0-2.5,0.1
			c-3.3-8.3-0.4-17.6-1.7-26.4c5.7,0,10.4,0,15.1,0c0.1,0.7,0.2,1.3,0.3,2c-3.6,1.4-7.3,2.9-10.9,4.3c0.2,1,0.5,2,0.7,2.9
			c3,0.8,6,1.5,9,2.3C212.8,918.7,212.8,919.5,212.8,920.4z"/>
		<path class="st9" d="M767.5,919.6c0.8-1.7,1.6-3.3,2.4-5c7.4-5.8,10.1-0.8,11.8,8.2c-3.5,0.6-6.5,1-9.6,1.5c0,0.9,0,1.7,0.1,2.6
			c2.6-0.2,5.2-0.3,7.9-0.5c0.2,0.8,0.5,1.6,0.7,2.5c-2.9,1.2-7.6,4.5-8.5,3.3C769.8,929,768.9,923.9,767.5,919.6z"/>
		<path class="st13" d="M376.8,916.6c8.1-7.2,10.8-6.2,14,6.1c-1.7,0.3-3.4,0.6-5,0.9c-1.4,0.2-2.8,0.3-4,2.7c2.5,0,5.1,0,7.7,0
			c-3.9,8.4-5.4,8.6-12.6,2C376.8,924.4,376.8,920.5,376.8,916.6z"/>
		<path class="st13" d="M900.8,927c0,0,0-0.2,0-0.2c-4.4,9.2-8.9,7.7-15-0.9c4.2,0.8,6.9,1.4,9.5,1.9c0.2-0.6,0.3-1.2,0.5-1.8
			c-1.6-0.8-3.6-1.2-4.8-2.6c-1.5-1.8-3.4-5-3-6.7c0.6-2,3.4-4.2,5.3-4.3c2-0.1,4,2.2,6,3.4C894.9,920.6,901.3,923.1,900.8,927z"/>
		<path class="st6" d="M236.7,1005.4c-2.9,1.9-5.7,3.8-8.6,5.7c-0.9-0.9-1.7-1.7-2.6-2.6c2.5-8.6,4.9-17.3,7.4-25.9
			c0.8,0.2,1.7,0.4,2.5,0.6c1.3,3.5,2.6,7.1,3.9,10.6C238.5,997.7,237.6,1001.5,236.7,1005.4z"/>
		<path class="st9" d="M394,925.9c2.4,0.7,4.9,1.4,9.9,2.8c-3.1-3-4.2-3.8-5.2-5c-1.9-2.2-3.6-4.5-5.4-6.8c2.4-1.6,4.8-4.5,7.2-4.4
			c2.6,0.1,8.5,1.1,2.5,7.2c-0.1,0.1,0.3,1.2,0.6,1.5c4.6,3.2,4.4,7.9,0.3,10c-3,1.6-7.3-0.5-11-0.9
			C393.3,928.7,393.7,927.3,394,925.9z"/>
		<path class="st12" d="M609.4,914.6c0.1,1.4,0.2,2.7,0.2,4.1c-3-1.9-6.1-4-6.1,3.3c0,3.7-0.5,7.3-0.7,11c-1.1,0-2.1,0-3.2-0.1
			c-0.3-3.6-0.1-7.4-0.9-10.7c-0.4-1.8-2.5-2.9-3.9-4.4c-0.4-0.8-0.7-1.6-1.1-2.3c1.7-1.6,3.3-3.4,5-5c2.3-2.2,4.7-4.3,8.5-7.6
			C607,909.4,601.7,914.8,609.4,914.6z"/>
		<path class="st14" d="M1313.8,926c-0.6-3.9-1.2-7.9-1.8-11.8c2.4-2.3,4.9-4.7,8.8-8.4c-0.3,5-0.9,9.5-0.6,13.9
			c0.3,4,1.8,7.8,2.9,12.3C1319,933.8,1315.4,932.8,1313.8,926z"/>
		<path class="st9" d="M508.9,931.7c1.8-6.9,3.6-13.7,5.4-20.8c-2-0.6-4.4-1.3-6.8-2.1c-0.2-0.1-0.2-0.6-0.9-2.8
			c4.8-0.3,9.1-0.5,14.8-0.9c-3.4,10.3-6.4,19.2-9.3,28.1C511.1,932.6,510,932.1,508.9,931.7z"/>
		<path class="st5" d="M1021,917.3c0,3.4,0,6.5,0,10.6c3.1-0.9,5.5-1.6,7.9-2.3c0.3,1.1,0.7,1.8,0.6,2.2c-3,6.2-7.8,7.4-10.9,2.2
			c-2-3.4-2.3-11.3-0.5-14.7c3.5-6.3,8.2-4.3,12.1,3.4C1026.7,918.2,1024.1,917.8,1021,917.3z"/>
		<path class="st13" d="M718.9,912.8c13.8-0.3,17.1,5.6,10.1,21.7c-0.9-7-1.6-12.3-2.2-17.6c-0.9-0.1-1.8-0.2-2.7-0.3
			c-0.6,3.4-0.9,6.9-1.9,10.1c-0.6,2-2.2,3.6-3.3,5.3C718.9,925.6,718.9,919.2,718.9,912.8z"/>
		<path class="st8" d="M533.5,908.9c-0.2,7.8,8.7,17.8-1.6,23.2c-2.2,1.2-6.3-3.1-9.6-4.9c0.5-1.3,1.1-2.7,1.6-4
			c2.2,1.5,4.3,2.9,6.7,4.5C531.6,921.5,532.5,915.2,533.5,908.9z"/>
		<path class="st13" d="M1135.4,914.1c0.1,0.9,0.2,1.8,0.3,2.8c-0.9,5.3-1.7,10.5-2.6,15.8c-0.6,0.1-1.3,0.2-1.9,0.2
			c-0.7-5.2-1.4-10.5-2.2-15.7c-0.7-0.2-1.5-0.3-2.2-0.5c-1,5.3-2.1,10.7-3.1,16c-0.7,0-1.4-0.1-2.2-0.1c-0.3-6.3-0.6-12.6-0.9-20.5
			C1126,912.8,1130.7,913.5,1135.4,914.1z"/>
		<path class="st9" d="M360.5,922.4C360.5,922.4,360.5,922.3,360.5,922.4c2.2-11.2,4.5-12.5,12.8-7.4c-0.6,1.3-1.5,3.7-1.7,3.6
			c-11-4.6-6.4,3.5-6.1,8.4c3.9,0.3,6.6,0.5,9.2,0.8C366.9,936.1,362.7,934.5,360.5,922.4z"/>
		<path class="st5" d="M820.9,913.1c0,3.3-0.9,7.1,0.2,9.7c2.5,6.1-1.2,7.3-3.9,9.6c-7.9-2.1-9.6-9.3-3.4-23.3
			c0.9,8,1.5,13.3,2.1,18.6c0.9,0.2,1.8,0.4,2.7,0.6C819.3,923.2,820.1,918.2,820.9,913.1z"/>
		<path class="st6" d="M285.5,1007c0.4-3.9,2.2-8.7,1-11.5c-3.8-8.6,1.7-8.9,6-12.6c0,9,0,16.6,0,24.5c-2.2,0-4.4,0-6.7,0
			L285.5,1007z"/>
		<path class="st13" d="M1226.8,928.2c0,1.4-0.1,2.7-0.1,4.1c-7,0-7.8-5.8-7.1-12.3c0.7-6.2,3.6-9.4,9-7.2c0.9,0.9,1.8,1.9,1.6,1.6
			c-1.3,4.9-2.5,9.2-3.6,13.4C1226.5,927.9,1226.8,928.2,1226.8,928.2z"/>
		<path class="st12" d="M1263.7,934.3c0-10.8,0-19.6,0-28.7C1269.6,908.8,1270.2,926,1263.7,934.3z"/>
		<path class="st6" d="M374.7,927.8c-2.6-0.2-5.3-0.4-9.2-0.8c-0.3-4.9-5-13,6.1-8.4c0.2,0.1,1.1-2.4,1.7-3.6c1.2,0.5,2.3,1,3.5,1.6
			c0,3.9,0,7.8,0,11.7C376.1,928.1,375.4,928,374.7,927.8z"/>
		<path class="st13" d="M413.8,913.6c2.1,3.2,4.2,6.5,6.3,9.7c0.3-2.8,0.6-5.6,0.9-8.4c-2.4,3.3-4.8,6.5-7.2,9.8
			c1.6,0.2,3.2,0.4,4.8,0.6c-2-3.4-4-6.9-5.9-10.3c-0.4,2.4-0.9,4.8-1.3,7.3c2.8-2.4,5.7-4.8,8.5-7.2
			C417.8,914.6,415.8,914.1,413.8,913.6z"/>
		<path class="st6" d="M266.1,993.4c4.1-0.8,7.3-1.4,10.5-2c0,5.2,0,10.9,0,18.4C273.1,1004.3,269.8,999.1,266.1,993.4z"/>
		<path class="st12" d="M883.7,912.5c0,6.7,0,13.3,0,20c-0.8,0-1.7,0-2.5,0c0-6.7,0-13.4,0-20.2C882,912.3,882.9,912.4,883.7,912.5z
			"/>
		<path class="st12" d="M718.9,912.8c0,6.4,0,12.9,0,19.3c-0.5-3.1-0.8-6.2-1.6-9.2c-0.3-1.4-1.6-2.3-2.5-3.5
			c-2.1-2.4-8.2,5.5-7.3-4.5c1.2,0.6,2.6,1.9,3.6,1.6C713.9,915.6,716.4,914,718.9,912.8z"/>
		<path class="st8" d="M1102.7,921.3c0,1.6,0,3.2,0,4.8c-1.1,0.6-2.2,1.2-3.3,1.8c-1.6-3.2-3.1-6.4-5.2-10.8c1.2-1.7,3.1-4.3,5-6.9
			c1.2,2.2,2.4,4.5,3.7,6.7c-0.1,0.6-0.1,1.2-0.2,1.9c-0.2,0.2-0.7,0.6-0.6,0.7C1102.2,920.2,1102.5,920.8,1102.7,921.3z"/>
		<path class="st8" d="M1080.7,909.8c1.2,0.8,2.4,1.6,6.1,4.1c-4.7,1.6-7.3,2.6-10,3.5C1078.1,914.9,1079.4,912.3,1080.7,909.8z"/>
		<path class="st13" d="M1139.3,919.4c1.1,4.1,2.3,8.1,3.4,12.2C1135.4,930.2,1140.7,923.4,1139.3,919.4z"/>
		<path class="st12" d="M247.4,1005.8c-0.9,0.6-1.9,1.1-2.8,1.7c-0.2-1.5-0.3-3-0.5-4.5c0-2.4,0-4.9,0-7.3c0.1-1.3,0.1-2.6,0.2-3.9
			c1,0.5,2.1,0.9,3.1,1.4C247.4,997.4,247.4,1001.6,247.4,1005.8z"/>
		<path class="st7" d="M248.9,994.3c0.7-0.5,1.5-0.9,2.2-1.4c0,6.2,0,12.5,0,18.7c-0.4,0.1-0.8,0.1-1.3,0.2
			c-0.3-2.4-0.6-4.8-0.9-7.2C249,1001.2,248.9,997.8,248.9,994.3z"/>
		<path class="st6" d="M394.7,1007.8c-4-6.8-4-6.8,0.6-11.8c0,4,0,7.4,0,10.8C395.1,1007.2,394.9,1007.5,394.7,1007.8z"/>
		<path class="st13" d="M1002.7,912.5c0,6.6,0,13.2,0,19.8c-0.6,0-1.2,0-1.8,0c0-6.3,0-12.7,0-19
			C1001.6,913,1002.2,912.8,1002.7,912.5z"/>
		<path class="st13" d="M1190.2,907c0,4.7,0,9.4,0,14.1c-0.6,0-1.2,0-1.8,0c0-5.1,0-10.3,0-15.4C1189,906.1,1189.6,906.5,1190.2,907
			z"/>
		<path class="st12" d="M704.3,912.6c-1.6,2.6-3.3,5.1-4.9,7.7c-0.3-1.1-0.6-2.2-0.9-3.3C700.5,915.5,702.4,914.1,704.3,912.6z"/>
		<path class="st12" d="M785,917.6c0.4,4.8,0.8,9.6,1.2,14.4C785.8,927.3,785.4,922.4,785,917.6z"/>
		<path class="st12" d="M1334,916c0,4.3,0,8.6,0,12.9C1334.1,924.6,1334.1,920.3,1334,916z"/>
		<path class="st12" d="M788,932.2c0.6-5.1,1.3-10.1,1.9-15.2C789.3,922.1,788.7,927.1,788,932.2z"/>
		<path class="st6" d="M217.1,1075.6c-0.3-1-0.5-2.1-0.8-3.1c0.8-1.8,1.6-3.5,2.4-5.3c0.7,0.6,1.5,1.2,2.2,1.8
			C219.6,1071.2,218.3,1073.4,217.1,1075.6z"/>
		<path class="st12" d="M704.2,924.1c1.2,2.5,2.5,5,3.7,7.5C706.7,929.1,705.5,926.6,704.2,924.1z"/>
		<path class="st12" d="M1345,929.4c0.4-1.5,0.9-2.9,1.3-4.4c1.4,1.4,2.7,2.9,4.1,4.3C1348.6,929.3,1346.8,929.3,1345,929.4z"/>
		<path class="st6" d="M400.4,995.8c3.5-1.3,5-1.9,6.4-2.4c-0.7,1.2-1.2,2.7-2.1,3.6C404.4,997.3,403.3,996.6,400.4,995.8z"/>
		<path class="st6" d="M226.3,1071.4c1.5-0.1,3-0.3,4.5-0.4c-0.7,1-1.3,2.3-2.2,3c-0.5,0.4-1.5-0.2-2.3-0.4
			C226.3,1072.9,226.3,1072.2,226.3,1071.4z"/>
		<path class="st14" d="M1286.7,912.5c-1.2-1.9-2.4-3.9-3.6-5.8C1284.3,908.6,1285.5,910.5,1286.7,912.5z"/>
		<path class="st15" d="M236.7,1005.4c0.9-3.9,1.7-7.7,2.6-11.6C238.5,997.7,237.6,1001.5,236.7,1005.4z"/>
		<path class="st1" d="M248.9,994.3c0,3.4,0,6.9,0,10.3c-0.5,0.3-1,0.7-1.5,1.1c0-4.2,0-8.4,0-12.6
			C247.9,993.7,248.4,994.1,248.9,994.3z"/>
		<path class="st12" d="M1346.7,919.1c-0.6-1.1-1.2-2.2-1.8-3.3C1345.6,916.9,1346.1,918,1346.7,919.1z"/>
		<path class="st6" d="M244.1,995.7c0,2.4,0,4.9,0,7.3C244.1,1000.6,244.1,998.1,244.1,995.7z"/>
		<path class="st6" d="M285.8,1007.6c-0.9,0.4-1.8,0.7-2.7,1.1c-0.1-0.6-0.3-1.2-0.4-1.8c1,0.1,1.9,0.1,2.9,0.2
			C285.5,1007,285.8,1007.6,285.8,1007.6z"/>
		<path class="st12" d="M238.4,1068.7c-0.6-0.6-1.2-1.2-1.8-1.7c1.4-0.2,2.9-0.4,4.3-0.6c0.1,0.5,0.2,0.9,0.2,1.4
			C240.3,1068,239.4,1068.4,238.4,1068.7z"/>
		<path class="st6" d="M395.3,1006.8c0.7,0.7,1.3,1.4,2,2.1c-0.9-0.4-1.7-0.7-2.6-1.1C394.9,1007.5,395.1,1007.2,395.3,1006.8z"/>
		<path class="st16" d="M1319.4,637.6c-42.1,0.1-84.2,0.2-126.3,0.2c-137.2,0-274.4,0-411.5,0c-3.9,0-7.9-0.2-11.8-0.2
			c-0.7-12.3-1.3-24.5-2-36.8c8.2-7.6,11.3-17.5,11.2-30.4c-0.2-103.6-0.1-207.1-0.1-310.7c0-22.4-8.1-32.4-26.2-32.4
			c-42.5,0-84.9-0.1-127.4,0.1c-6,0-11.9,2-17.8,3.1c-4.2-0.3-8.4-0.6-12.6-1c-11.6-1-16.1-6.9-16.1-21.3c0-14.7,0-29.4,0-44.1
			c2.4-0.1,4.8-0.4,7.2-0.4c156.5,0,313.1,0,469.6,0c2.4,0,4.8,0.2,7.2,0.4c0,15.5,0.3,31-0.1,46.5c-0.3,9.6,2.8,12.3,10.2,12.3
			c53.7-0.3,107.3-0.2,161-0.1c15.9,0,20.1,5.1,20.1,24.5c0,28-0.1,55.9,0,83.9c0,12.8,2.7,16.2,12.8,16.3c13.3,0.1,26.7-0.4,40,0.3
			c3.1,0.2,6,4,9,6.1c-3.6,0.1-7.3,0.4-10.9,0.4c-82.7,0-165.4,0-248.1,0c-11.3,0-14,3.2-14,17.1c-0.1,26.4-0.1,52.8,0,79.3
			c0,13.9,2.7,17,14,17c53.6,0,107.2,0,160.8,0c33.9,0,67.8,0.2,101.8,0.4C1319.4,524.6,1319.4,581.1,1319.4,637.6z M793.5,415.1
			c0,52.1,0,104.2,0,156.4c0,22.3,8.1,32.3,26.3,32.3c43.3,0,86.7-0.8,130,0.4c15.1,0.4,26-15.4,25.9-32.3
			c-0.5-104.2-0.2-208.5-0.2-312.7c0-21-8.8-31.8-25.8-31.8c-43.3,0-86.7,0-130,0c-18.1,0-26.1,10-26.1,32.5
			C793.5,311.6,793.5,363.4,793.5,415.1z"/>
		<path class="st17" d="M1062.8,164.3c-2.4-0.1-4.8-0.4-7.2-0.4c-156.5,0-313.1,0-469.6,0c-2.4,0-4.8,0.2-7.2,0.4
			c-29.6-0.1-59.2-0.2-88.9-0.4c-10.1-0.1-13-3.5-13-15.9c-0.1-43.7,0-87.4-0.1-131.1c0-9.7,2.6-15.9,11-16.6
			c2.1,0.1,4.2,0.4,6.3,0.4c154.7,0,309.4,0,464.1,0c2.1,0,4.2-0.2,6.3-0.3c50.3,0.1,100.6,0.2,150.9,0.4c13.7,0,16.5,3.5,16.5,20.4
			c0,41.2,0,82.3,0,123.5c0,15.5-3.1,19.3-15.5,19.4C1098.6,164,1080.7,164.1,1062.8,164.3z M980.9,125.4c2.3,1.5,4.4,3.8,6.8,4.4
			c5.2,1.3,9.6-1.7,9.2-8.2c-0.2-4.2-3.5-9.6-6.6-11.6c-1.9-1.3-6,2.8-9.1,4.4c-0.5-1.1-1-2.3-1.6-3.4c-0.4,0.5-0.8,0.9-1.1,1.4
			c0.9,0.7,1.8,1.3,2.7,2c-0.1,3.7-0.1,7.5-0.2,11.2c-2.6,0.3-7.3,1.6-7.5,0.8c-1.4-4.7-1.7-9.9-2.6-15.9c-5,5.2-6,11.1-1.8,16.5
			C972.8,131.8,977.5,132.8,980.9,125.4z M789.5,124.7c3.3,7.3,8.4,7.9,12.1,2.1c1.9-3.1,1.9-11.2,0-14.3c-3.6-5.9-8.8-5.2-12.1,2.1
			c-1.1-1.8-2.3-3.5-3.8-5.9c-2.1,4.4-3.8,8-4.2,8.8c-4.4-2.8-8.1-5.2-11.8-7.5c-0.8,3.1-1.5,6.2-2.6,9.2c-1.1,3-2.4,5.9-3.7,8.9
			c-1-0.4-2-0.8-3-1.2c0-4.4,0.2-8.9-0.2-13.2c-0.1-1.1-2-2.1-3.1-3.1c-3.2,0.7-6.4,1.5-11.1,2.6c-3.2-2.3-8-5.8-13.5-9.8
			c0,8.3,0,17.2,0,26.1c0.8,0,1.5,0,2.3,0c0.4-5.7,0.8-11.4,1.4-19.5c3.3,2.9,6.7,4.5,6.9,6.5c0.3,4.3-1,8.9-1.4,11.6
			c4.1,0.2,8.5,0.5,13,0.8c-1.5-3-3.1-6-5-9.6c1.7-2.3,3.4-4.6,5.8-7.9c0.6,4.9,1,8.1,1.5,11.3c0.9,11.9,8.1,5.7,12.7,6.8
			c0.8-5.3,1.7-10.6,2.6-16.6c2.6,6.5,4.9,12.1,8.1,19.9c2.7-7.2,4.5-11.7,6.5-17C787.9,119.3,788.7,122,789.5,124.7z M868,109.5
			c0.6-1.5,1.2-2.9,2-4.8c-7.9,4.3-10.3,10.2-8,19.1c2.3,9.1,7.4,11.9,17.8,9c-3.8-0.8-7.1-0.5-9.4-2.2c-1.5-1.2-1.6-5.3-2.4-8
			c5.1,2.2,10.3,4.5,17,7.4c-1.4-9.2-2.2-14.5-3.1-20.5C877.2,109.5,872.6,109.5,868,109.5z M620.4,129.3c0.5-3.4,0.3-7.2,1.6-10.2
			c1.3-3.1,3.8-5.4,5.8-8c0,5.9,0,11.8,0,18.7c3.4,0,6.7,1.2,8.5-0.3c2.6-2.2,5.5-6.3,5.7-9.8c0.1-3.3-2.7-7.3-5-10.2
			c-2.1-2.6-5.1-4.1-7.8-6.1c0.3-1.2,0.6-2.4,0.9-3.6c-3.3,0.9-6.6,1.7-9.9,2.6c-2.2,5.1-5,7.9-10.4,7.1c-4.8-0.7-9.8,1.3-14.7,2.1
			c-1.3,2.5-2.6,5-4.1,7.9c-2-4.4-3.5-7.6-4.9-10.8c-0.5,0.3-1.1,0.7-1.6,1c1.5,8.8,3,17.5,4.9,28.8c2.2-6.9,4-12.4,5.8-18
			c0.9-1.4,1.7-2.8,2.6-4.2c-2.3,16.1,12.9,10.4,16.7,20c0.3-7.9,0.6-15.8,1-23.7c0.6,0,1.2,0.1,1.8,0.1c0.5,5.4,1.1,10.7,1.6,16.1
			C619.2,129.1,619.8,129.2,620.4,129.3z M708,116.3c-0.7,0.4-2,1.1-2.1,1.1c-3.9-10.3-9.7-10.1-16.5-3.5c-0.7-5.1-1.4-9.2-2-13.4
			c-0.6,0.2-1.2,0.4-1.9,0.5c0,9.5,0,19,0,28.5c0.5,0.1,1,0.2,1.5,0.3c0.9-2.1,1.9-4.1,2.6-5.9c3,2.3,5.7,4.3,8.4,6.4
			c-5.9-12.9-5.9-12.9,1.8-18.7c1.5,8.5,2.9,16.4,4.5,25.5c2.8-6.6,8-11.9,3.6-21c9.6-4.4,3.4,12.8,10.6,11.8
			c-1.8-12.8,8.2-3.7,10.7-8.8c-2.3-10.6-5.2-12.2-12.5-7.4C714,113.6,710.9,114.8,708,116.3z M920.9,119.8
			c5.4,12.9,9.4,14,17.3,4.5c1.6,1.3,3.1,2.6,5.4,4.5c0.3-6.2,0.6-11,0.9-17.1c14,1.2,3,17.8,10.8,23.4c0-9,0-17.1,0-23.5
			c-5.1-2.6-9.6-4.9-14.6-7.4c-0.6,1.3-1.8,4.1-3,7c-0.5,0.7-1.1,1.5-1.6,2.2C928.2,106.5,925.9,107.5,920.9,119.8
			c-0.7-12.8-7.4-11-14.9-9.1c0.2,6.4,0.5,12.6,0.7,18.8c0.6,0,1.2,0,1.8,0c1.2-6,2.4-11.9,3.6-17.9c1.1,0.2,2.1,0.5,3.2,0.7
			c0.6,5.8,1.3,11.7,1.9,17.5c0.9,0,1.7,0,2.6,0C920.2,126.5,920.6,123.1,920.9,119.8z M661,133.5c2-9.9,3.4-16.5,4.7-23.1
			c-0.7-0.3-1.4-0.7-2.1-1c-1.5,3.2-2.9,6.3-4.5,9.8c-1.7-3.6-3.2-6.8-4.6-9.8c-2.7,4-4.7,6.9-6.9,10.1c0.6,1.8,1.6,4.7,2.2,6.5
			c0.5-1,2-3.8,4-7.7C656.2,123.1,657.9,126.7,661,133.5z M903.9,127.9c-4.6-1.3-7.8-2.2-11.1-3.2c0.2-1.1,0.4-2.1,0.6-3.2
			c3.4-0.5,6.8-1.1,10.6-1.6c-0.6-8.1-4-12.8-9.4-9.9c-2.9,1.6-6.2,9.1-5.4,12.8C890.9,131.8,896.9,131.1,903.9,127.9z M678.8,129.9
			c1.1-0.1,2.2-0.3,3.2-0.4c-0.5-5.8,0.4-12.8-1.9-17.1c-1.7-3-7.6-2.4-12.8-3.7c0.4,8.5,0.7,14.7,1,20.8c0.6,0,1.1-0.1,1.7-0.1
			c1.3-5.9,2.6-11.8,3.8-17.7c1,0.3,2,0.5,3,0.8C677.5,118.2,678.2,124.1,678.8,129.9z M855.3,129.9c1.1-0.1,2.2-0.3,3.2-0.4
			c-0.5-5.8,0.4-12.8-1.9-17.1c-1.7-3-7.6-2.4-12.8-3.7c0.4,8.5,0.7,14.7,1,20.8c0.6,0,1.1-0.1,1.7-0.1c1.3-5.9,2.6-11.8,3.8-17.7
			c1,0.3,2,0.5,3,0.8C854.1,118.2,854.7,124.1,855.3,129.9z M839.4,127.3c4.8-6,4.5-6.6-7-14.3c3.9-0.4,6.5-0.7,9-1
			c-0.1-1-0.3-2-0.4-2.9c-3.5,1.1-7,2.1-10.5,3.2c1.8,2.9,3.7,5.8,5.5,8.7C837.3,123.1,838.3,125.2,839.4,127.3z"/>
		<path class="st18" d="M1340.3,163.9c-60.9,0-121.8,0-182.8,0c-13.7,0-16.4-3.5-16.4-20.5c0-41.2,0-82.3,0-123.5
			c0-15.4,3.1-19.2,15.7-19.2c123.1,0,246.1,0,369.2,0c12.5,0,15.5,3.8,15.5,19.4c0,41.5,0,83.1,0,124.6c0,15.4-3.1,19.2-15.7,19.2
			C1464,163.9,1402.1,163.9,1340.3,163.9z M1432.7,131.4c6.6,0,13.3,0.3,19.9-0.1c7.9-0.4,12.3-5.5,12.4-15.6
			c0.1-10.2,0.1-20.3,0-30.5c-0.1-9.5-4.2-14.8-11.8-15c-13.9-0.3-27.8-0.2-41.7,0c-7.6,0.1-11.7,5.4-11.9,14.9
			c-0.2,10.2-0.1,20.3,0,30.5c0,10.1,4.4,15.4,12.3,15.8C1418.8,131.6,1425.7,131.4,1432.7,131.4z M1514.2,121.4
			c-0.4-0.9-0.7-1.8-1.1-2.8c2.3-2.7,4.8-5.3,7-8.1c4.2-5.3,9.9-10,12.1-16.4c1.9-5.5,1.4-14.4-1-19.5c-3.8-8.1-11.6-7.5-18.1-4.7
			c-5.8,2.5-9.1,8.1-7.8,19.8c3.1-4,5.3-5.8,6.5-8.3c3.1-6.6,7.5-7.9,12.3-4.5c5.4,3.8,5,10.3,1.6,15.5c-3.8,5.8-8.7,10.3-12.8,15.9
			c-3.8,5.3-7.2,11.1-10.7,16.7c0.6,0.9,1.2,1.9,1.8,2.8c10.3-1.2,21,2.4,30.9-2.1c-0.1-1.4-0.2-2.8-0.3-4.2
			C1527.9,121.4,1521,121.4,1514.2,121.4z M1197.9,121.4c9.8-2.1,21,4.7,25.3-9.3c2.3-7.4,2.1-18.6-0.9-25.5
			c-5.1-11.7-15.3-5.9-24.4-6.3c0,9.2,0,17.5,0,25.7C1197.9,110.5,1197.9,115,1197.9,121.4z M1261.4,107.1
			c-0.5-10.5-3.6-15.9-11.1-15.9c-7,0-10.5,4.7-11,13.2c-0.4,7.9,1.2,14.3,8.2,16.3c6.7,1.8,10.3-0.7,12.3-8.4
			c-13.2,4.7-13.2,4.7-14.6-5.1C1250.4,107.1,1255.5,107.1,1261.4,107.1z M1317.5,120.3c16.4-0.1,19.7-2.3,20.1-13.5
			c0.3-11.2-3.6-15.3-15.8-16.1c-0.5-3.6-1.1-7.2-1.6-10.9c-0.9,0.1-1.8,0.1-2.7,0.2C1317.5,93.2,1317.5,106.3,1317.5,120.3z
			 M1292.5,120.8c0.9,0,1.8,0.1,2.7,0.1c0.3-5.6-0.1-11.4,1-16.7c0.7-3.1,3.8-5.4,5.9-8.1c1.5,2.8,3.7,5.4,4.2,8.5
			c0.9,5.3,0.7,10.9,1,16.3c1.3-0.1,2.7-0.2,4-0.3c-0.5-8.5,1-18.7-2.3-24.9c-2.4-4.5-11.2-3.6-16.6-5
			C1292.5,102.2,1292.5,111.5,1292.5,120.8z M1363.2,105.7c-0.1-9.5-4.5-14.8-11.9-14.5c-7.6,0.3-10.7,5.9-10.8,14.6
			c-0.2,9.6,4,15.1,11.4,15C1359.2,120.9,1363.4,115.3,1363.2,105.7z M1384.4,121.9c0.8-0.7,1.6-1.4,2.5-2.1
			c-7.5-8.9-10.4-18.1,0-28c-1-0.4-1.9-0.9-2.9-1.3c-2.9,2.5-5.7,5.1-8.3,7.3c-2.9-2.5-5.8-4.9-8.6-7.4c-0.4,0.6-0.9,1.3-1.3,1.9
			c2.1,4.4,4.3,8.7,6.6,13.3c-2.5,4.7-5,9.3-7.4,13.9c0.6,0.8,1.1,1.5,1.7,2.3c3-3.2,6-6.3,8.9-9.5
			C1378.3,115.5,1381.4,118.7,1384.4,121.9z M1283.5,121.8c0-14.9,0-28.4,0-44.1C1278.1,87.7,1278.4,114.8,1283.5,121.8z
			 M1231,120.5c6-8.6,5.4-24.4,0-29.4C1231,101.3,1231,110.9,1231,120.5z"/>
		<path class="st19" d="M1319.4,468.1c-33.9-0.1-67.8-0.3-101.8-0.4c-53.6-0.1-107.2,0-160.8,0c-11.3,0-14-3.2-14-17
			c-0.1-26.4-0.1-52.8,0-79.3c0-13.9,2.7-17,14-17.1c82.7,0,165.4,0,248.1,0c3.6,0,7.3-0.2,10.9-0.4c33,0.1,66.1,0.3,99.1,0.4
			c55.2,0.1,110.4,0,165.5,0c12.5,0,15.6,3.8,15.6,19.3c0,24.9,0,49.9,0,74.8c0,15.5-3.1,19.3-15.6,19.3c-83.4,0-166.7,0-250.1,0
			C1326.7,467.8,1323.1,468,1319.4,468.1z M1175.6,403.7c0.6,0.2,1.1,0.3,1.7,0.5c0,5.1,0,10.2,0,15.3c0,5.4,0,10.9,0,17.3
			c5.9-4.2,7.5-29.3,4.5-50.2c-10.4-2.8-8.4,9-10.7,15c-2.8,7.1-4.4,14.9-7.1,24.8c-3.3-12.5-6.1-22.1-8.2-31.8
			c-1.6-7.1-4.1-10.6-11-7.1c0,14.2-0.1,28.8,0.1,43.5c0,1.7,1.6,3.4,2.4,5c1.1-1.7,3-3.4,3.1-5.2c0.3-9.3,0.1-18.7,0.1-28
			c3.7,7.7,5.6,15.6,8.1,23.2c1.2,3.7,3.6,6.8,5.5,10.2c1.8-3.5,4.1-6.8,5.4-10.6C1171.8,418.3,1173.6,410.9,1175.6,403.7z
			 M1388.1,436.2c1.4-0.2,2.9-0.4,4.3-0.5c0-8.9,0.8-18.1-0.4-26.8c-0.5-3.6-5.2-8.6-8.2-8.8c-9.8-0.7-19.6,0.5-29.3,0.9
			c0,11.6,0,23.1,0,34.6c3-1,4.6-2.8,4.7-4.9c0.4-5.2-0.6-10.8,0.5-15.8c0.8-3.6,3.9-6.4,6-9.5c1.6,3.1,4,6,4.5,9.4
			c0.8,5.1,0,10.6,0.4,15.8c0.2,2.1,1.7,4,2.6,6c1-0.3,1.9-0.6,2.9-0.9c0-4.7-0.1-9.4,0-14.2c0.2-6.6-1.3-16,6.4-15.7
			c7.6,0.4,3.9,9.9,4.6,15.6C1387.7,426.3,1387.8,431.3,1388.1,436.2z M1124.1,411c-0.4-3.7-0.5-7.5-1.2-11.1
			c-1.5-7.8-4.4-13.9-12-14c-7.5-0.1-11.4,5.3-12.3,13.4c-0.9,7.7-0.8,15.7,0,23.4c0.9,8.2,4.7,13.6,12.2,13.4
			c7.5-0.1,10.6-5.9,12.1-13.9C1123.6,418.6,1123.7,414.9,1124.1,411z M1424.1,420c-0.3-13.8-4.1-19.8-12.1-20.3
			c-7.9-0.5-13.2,5.1-14.2,14.9c-1.1,10.9,2.7,19.3,9.8,21.2c8.2,2.3,13.3-1.1,15.4-10.5c-17.1,3-17.1,3-18.8-5.3
			C1410.9,420,1417.5,420,1424.1,420z M1302.9,420.1c-0.7-14.7-4.5-20.3-12.8-20.5c-7.7-0.2-12.8,5.8-13.8,15.8
			c-0.9,9.8,3.2,18.9,9.9,20.2c7,1.4,13.6,0.6,16.6-10.9c-7.2-0.6-15.9,14.3-20.5-4.7C1289.7,420.1,1296,420.1,1302.9,420.1z
			 M1448.2,436.5c5.5-3.4,7.5-18.4,5.1-28.3c-2.9-11.7-10.4-8.4-16.8-7.6c-0.9-5.2-1.7-10.1-2.5-15c-1.3,0.3-2.6,0.5-4,0.8
			c0,15.2-0.1,30.5,0.1,45.7c0,1.2,1.6,2.5,2.5,3.7c1-1.5,2.7-2.9,2.8-4.6c0.4-5.6-0.6-11.5,0.5-16.8c0.7-3.5,4.1-6.1,6.2-9.2
			c2,3.1,5.2,6,5.7,9.5C1448.8,421.6,1448.2,428.7,1448.2,436.5z M1326.6,435.7c1.4,0.2,2.8,0.4,4.1,0.6c2.9-8.5,2.3-18.5,0.8-27.1
			c-3.1-17.7-15.2-4.6-22.4-9.5c-2.4,23.5-1.4,33.3,4.8,36.6c0-7.7-0.7-14.9,0.3-21.7c0.5-3.4,4.1-6.1,6.3-9.2c2,3.1,5.2,6,5.7,9.4
			C1327.2,421.6,1326.6,428.7,1326.6,435.7z M1203.3,435.7c0.7,0.3,1.5,0.6,2.2,0.9c0.9-2.1,2.4-4,2.5-6.2
			c0.4-5.2-0.6-10.8,0.4-15.8c0.8-3.5,4-6.3,6.1-9.3c2,3.1,5.4,5.9,5.8,9.3c0.9,6.8,0.3,14,0.3,21c1,0.1,2,0.3,3,0.4
			c5.5-7.4,3.1-17.4,2.1-25.6c-2.2-19.2-15.1-6-22.5-11C1203.3,412.2,1203.3,423.9,1203.3,435.7z M1237.8,401.1
			c-1.2-0.5-2.4-1-3.6-1.6c-3.9,7.7-2.5,17.5-1.5,25.8c2.2,19.4,15.1,5.8,23.2,11.6c0-12,0.1-22.5-0.1-32.9c0-1.4-1.5-2.7-2.2-4
			c-1.1,1.4-3,2.6-3.1,4.1c-0.4,5.6,0.6,11.5-0.5,16.9c-0.7,3.6-3.9,6.4-6,9.6c-2.1-3.1-5.4-5.8-5.9-9.2
			C1237.1,414.7,1237.8,407.8,1237.8,401.1z M1080.7,399.5c0,13.2,0,24.6,0,36.4c6-2.8,7.8-30.2,3.8-51.8
			c-4.3,7.5-12.3,8.6-13.5,20.5C1074.5,402.8,1076.7,401.7,1080.7,399.5z M1266.6,388.7c-2.1,4.6-6,9.1-6.1,13.9
			c-0.2,8.5,1.9,17.1,2.9,25.6c1,8.4,5.1,8.7,10.7,6.9c-7.3-11.8-7.4-24.9-1.4-32.6C1270.8,398.1,1269,394,1266.6,388.7z
			 M1462.9,436.1c4.9-11.8-2.9-29.2,12.5-35.5c-5,0-10,0-15.6,0C1460.9,412.8,1458.1,424.9,1462.9,436.1z M1480.9,424.5
			c1.3,0,2.6,0,3.9,0.1c0.3-12.2,0.7-24.4,0.7-36.6c0-0.7-3.3-1.4-6.5-2.8C1479.7,399.5,1480.3,412,1480.9,424.5z M1190.1,398.3
			c0,12.4-0.1,23.1,0.1,33.9c0,1.3,1.6,2.5,2.5,3.7c0.9-1.2,2.6-2.3,2.6-3.5c0.2-10.2,0.1-20.4-0.2-30.5
			C1195.1,401,1193,400.2,1190.1,398.3z"/>
		<path class="st20" d="M964.5,0.2c-2.1,0.1-4.2,0.3-6.3,0.3c-154.7,0-309.4,0-464.1,0c-2.1,0-4.2-0.2-6.3-0.4c0-3.5,0-7.1,0-10.6
			c2.4-0.1,4.8-0.4,7.2-0.4c154.1,0,308.2,0,462.3,0c2.4,0,4.8,0.2,7.3,0.3C964.5-6.8,964.5-3.3,964.5,0.2z"/>
		<path class="st21" d="M487.7-10.4c0,3.5,0,7.1,0,10.6c-8.4,0.7-11,6.9-11,16.6c0.1,43.7,0,87.4,0.1,131.1c0,12.4,2.9,15.9,13,15.9
			c29.6,0.2,59.2,0.3,88.9,0.4c0,14.7,0,29.4,0,44.1c0,14.4,4.5,20.3,16.1,21.3c4.2,0.4,8.4,0.6,12.6,1c-8,7.9-10.7,18.1-10.7,30.8
			c0.3,103.5,0.1,207,0.2,310.5c0,21.6,8.2,31.9,25.7,31.9c43.1,0,86.1,0.1,129.2-0.1c5.3,0,10.7-1.9,16-2.9
			c0.7,12.3,1.3,24.5,2,36.8c-33,0.1-66,0.2-99,0.2c-143.5,0-287.1,0-430.6,0c-3.6,0-7.3-0.2-10.9-0.2c0-49.8,0-99.7,0-149.5
			c0-15.7-4.8-21.8-17.4-22.6c-10.6-0.6-13.5-4.1-13.5-17c0-68-0.2-135.9,0.3-203.9c0-5.8,4.1-11.6,6.2-17.5
			c2.2-6.2,5.8-12.4,6-18.7c0.7-27.2,0.3-54.4,0.3-81.5c0-15.1-3.6-19.7-15.6-19.7c-26.7-0.1-53.3-0.3-80,0.1
			c-8.5,0.1-12-3.8-11.9-14.6c0.3-34.3,0.1-68.7,0.1-103.1c3.3-0.1,6.6-0.4,10-0.4c121.4,0,242.7,0,364.1,0
			C481.1-10.7,484.4-10.5,487.7-10.4z M527.8,415.3c0-52.1,0-104.3,0-156.4c0-21-8.3-31.5-25-31.5c-43.7,0-87.3,0-131,0
			c-18,0-26,10.1-26,32.6c0,103.9,0,207.8,0,311.6c0,21.8,8.2,32.1,25.5,32.1c43.7,0.1,87.3,0.1,131,0c17.3,0,25.5-10.3,25.5-32.1
			C527.8,519.6,527.8,467.4,527.8,415.3z M402.2,81.3c0,9,0,18.1,0,27.1c0,9.5,3.3,14.8,11.4,14.7c13.6-0.1,27.2,0.2,40.8-0.1
			c9.1-0.2,13.2-5.3,13.3-16.6c0.2-16.2,0.2-32.4,0-48.6c-0.1-10.8-4.2-16.1-12.7-16.3c-13.9-0.3-27.8,0-41.7-0.1
			c-7.5,0-11,4.9-11.1,13.9C402.1,63.9,402.2,72.6,402.2,81.3z M564.4,476.1c6.9,0,13.1,0,19.4,0c0-8.3,0-15.9,0-23.3
			c-6.9,0-13,0-19.4,0C564.4,460.7,564.4,467.8,564.4,476.1z M564.6,405.5c7.2,0,13.3,0,19.3,0c0-8.3,0-15.6,0-23.2
			c-6.8,0-12.9,0-19.3,0C564.6,390.5,564.6,397.8,564.6,405.5z"/>
		<path class="st22" d="M248.4,743.5c-4.2-7-3.7-30.9,0.9-36.5c0.9-1,2.6-1.1,4-1.1c11.8-0.1,23.5-0.6,35.2,0.3c2.8,0.2,7.5,5,7.7,8
			c0.6,9.9-0.5,19.9-1,29.9c-1-1.1-2-2.3-3-3.4c-2.1-1.9-4.1-3.9-6.2-5.8c-0.9-1.1-1.9-2.1-2.8-3.2c-3.5-0.6-3.6-11.9-9.5-4.5
			c-1.7,0-3.4,0-5.1,0c-1.7-1.3-3.5-2.6-5.2-3.8c-0.4,0.9-0.8,1.9-1.2,2.8c1.7,1,3.4,1.9,5,2.9c2.6,5,5.3,5,7.9,0
			c2.2,1.5,4.4,3.1,6.6,4.6c1,1.1,1.9,2.1,2.9,3.2c2.1,1.9,4.2,3.8,6.3,5.7c0.6,0.7,1.3,1.3,1.9,2c-6.6,0.7-13.3,2.1-19.9,2
			c-7.9-0.1-15.7-1.3-23.6-2c0.6-0.7,1.2-1.5,1.8-2.2c0.4-0.5,0.8-1.1,1.3-1.6c-0.7,0.1-1.4,0.2-2.1,0.3
			C249.7,741.8,249,742.7,248.4,743.5z"/>
		<path class="st6" d="M1248.1,725.6c-1.3,4.6-2.1,7.3-3,10.6c-3.4-8.3-6.5-15.8-9.5-23.1c11.5-5.7,17.1-0.4,18.2,15
			c4.6-6.5,2.6-18.9,12.3-15.5c0,7.6,0,15.2,0,22.9c-0.4,0.1-0.8,0.3-1.2,0.4c-1-2.8-2.1-5.5-3.4-9.3c-2.1,4.2-4,7.9-6.4,12.7
			C1252.4,734.2,1250.7,730.7,1248.1,725.6z"/>
		<path class="st23" d="M1040.3,736c3.7-7.2,7.4-14.5,11.1-21.7c-0.7-0.3-1.5-0.6-2.2-0.9c3.8-0.2,7.5-0.4,12.2-0.7
			c0,7.2,0,15.4,0,23.6c-0.5,0.5-0.9,1-1.4,1.5c-1.9-4.2-3.8-8.3-5.8-12.7c-3.5,3.9-7.7,8.6-12,13.4
			C1041.5,737.6,1040.9,736.8,1040.3,736z"/>
		<path class="st6" d="M465.9,762.6c0,3.3,0,6.6,0,7.9c-8.8,0-17.1,0-25.4,0c0-5.3,0-12.3,0-19.3c1.1,15,10.6,11.6,19.4,9.5
			c-0.4,1.1-0.8,2.3-1.2,3.4c1.2-1.9,2.4-3.8,3.6-5.7c0,1.9,0,3.9,0,5.8c0.5,0,1-0.1,1.6-0.1c0.1-2,0.2-4,0.4-6
			C464.8,759.5,465.4,761,465.9,762.6z"/>
		<path class="st6" d="M591.5,724.4c-3.9,4.6-7.7,9.1-11.6,13.7c-0.8-0.8-1.7-1.7-2.5-2.5c4.2-5.9-2.8-16.4,5.7-19.8
			c2.1-0.9,5.6,3.5,8.4,5.5C591.5,722.3,591.5,723.3,591.5,724.4z M588.4,722.7c-1.5-1.4-2.3-2.8-3.2-2.7c-0.7,0-1.5,1.6-2.2,2.4
			c0.8,1,1.5,2.4,2.4,2.8C586,725.4,587,723.9,588.4,722.7z"/>
		<path class="st24" d="M546.4,731.6c0-6.9,0-13.3,0-19.6c1-0.1,2.1-0.1,3.1-0.2c0.4,6.9,1.2,13.8,1,20.7c-0.1,1.5-3.9,3.4-6.2,3.8
			c-2,0.4-4.3-1-6.4-1.9c-0.1-0.1,0.4-3.7,0.6-3.7C540.5,730.7,542.6,731.1,546.4,731.6z"/>
		<path class="st24" d="M529.7,731c0-6.2,0-12.5,0-18.8c1.1-0.1,2.1-0.3,3.2-0.4c0.5,6.7,1.4,13.5,1.2,20.2c0,1.6-3.7,3.8-6,4.3
			c-2,0.5-4.4-0.6-6.5-1.4c-0.3-0.1-0.1-3.8,0-3.8C524,730.9,526.4,731,529.7,731z"/>
		<path class="st0" d="M885.4,737.7c-1.2-5.9-2.3-11.8-3.6-18.3c3.4-0.3,6-0.5,10.3-0.8c-0.7,6.4-1.3,12.6-2,18.8
			C888.5,737.5,887,737.6,885.4,737.7z"/>
		<path class="st24" d="M344.5,708.8c7.5,14.8,7.2,24.4,0,27C344.5,727.8,344.5,719.9,344.5,708.8z"/>
		<path class="st23" d="M1150.9,710.3c0,10,0,18.2,0,26.6C1142.6,730.9,1142.1,719.4,1150.9,710.3z"/>
		<path class="st0" d="M545.5,764.4c-2.3,9-9.3,6.4-14.3,8.7c0.7-3.5,1.3-7.1,2-10.6C537.3,763.2,541.4,763.8,545.5,764.4z"/>
		<path class="st12" d="M805.7,737.2c-3.9-21-5-26.4,2.6-26.4C807.5,719.6,806.6,728.4,805.7,737.2z"/>
		<path class="st0" d="M870,718.4c2.5,5.6,5.1,11.1,7.9,17.4C867.4,736.3,867.4,736.3,870,718.4z"/>
		<path class="st6" d="M1020.2,710.9c0,9.5,0,17.6,0,25.7C1017.3,728.4,1009.9,720.2,1020.2,710.9z"/>
		<path class="st1" d="M365.5,729.3c0.9,1.7,1.8,3.4,2.7,5.1c0,0.7,0.1,1.5,0.1,2.2c-3.3-1-6.6-1.9-9.9-2.9c0-4.2,0-8.4,0-12.5
			c0.6,0.5,1.2,1.1,1.8,1.6c1.4-1,2.8-2,4.3-3c0.4,1.9,0.7,3.8,1.1,5.8c-1.4,0.4-2.8,0.8-6.5,1.9
			C362.7,728.5,364.1,728.9,365.5,729.3z"/>
		<path class="st23" d="M1156.2,736.5c0-8.5,0-16.3,0-23.6C1163.1,717.2,1163.5,726.8,1156.2,736.5z"/>
		<path class="st23" d="M1067,735.6c0-7.6,0-15.7,0-23.5C1074.3,719.8,1074.2,729,1067,735.6z"/>
		<path class="st24" d="M425.7,769.6c-1.8,1.3-3.6,2.6-5.4,3.9c-1-4.6-2.1-9.3-3.2-14.3C423.2,756.9,426.2,760.5,425.7,769.6z"/>
		<path class="st6" d="M1227.5,735.8c0-7.3,0-14.6,0-21.8c0.6,0,1.1-0.1,1.7-0.1c0,7.3,0,14.6,0,21.9
			C1228.6,735.7,1228,735.8,1227.5,735.8z"/>
		<path class="st0" d="M375,773.5c-1.8-1.3-3.6-2.6-5.5-4c-0.4-2.3-0.8-4.6-1.2-7c0.4-0.8,0.9-1.6,1.3-2.4c1.7-0.4,3.4-0.9,5.4-1.4
			C375,763.8,375,768.7,375,773.5z"/>
		<path class="st24" d="M562.4,769.6c-1.9,1.4-3.7,2.8-5.6,4.3c0.1-3.9,0.2-7.8,0.3-11.8c1.8,0.2,3.5,0.4,5.3,0.6
			C562.4,765,562.4,767.3,562.4,769.6z"/>
		<path class="st15" d="M659.2,764.3c-0.2,2.6-0.4,5.2-0.5,7.3c-2.5,0.4-4.8,0.8-7.8,1.3c0.7-3.4,1.3-6.8,2-10.2
			c0.7,0.6,1.4,1.3,2.1,1.9c1.2-0.7,2.5-1.3,3.7-2C659,763.2,659.2,763.7,659.2,764.3z"/>
		<path class="st14" d="M396.5,773.8c-0.7-0.4-1.4-0.8-2.1-1.2c0.6-5.5,1.9-11.5-5-12.3c-0.6-0.7-1.1-1.4-1.7-2.1
			c3,1.1,6,2.2,8.9,3.3C396.7,765.5,396.6,769.6,396.5,773.8z"/>
		<path class="st8" d="M387.8,758.1c0.6,0.7,1.1,1.4,1.7,2.1c-0.6,4.3-1.3,8.7-1.9,13l-0.9,0.2c0,0-0.8-0.4-0.8-0.4
			c0-7.1,0-14.2,0-21.4C386.5,753.9,387.2,756,387.8,758.1z"/>
		<path class="st12" d="M358.4,721.1c0,4.2,0,8.4,0,12.5c-1,0.5-1.9,1.1-2.9,1.6c-0.1-1.6-0.1-3.2-0.2-4.8c0-2.2,0-4.4,0-6.5
			c0-1.4,0-2.7,0-4.1C356.3,720.2,357.3,720.7,358.4,721.1z"/>
		<path class="st12" d="M385.9,751.8c0,7.1,0,14.2,0,21.4c-0.5,0.3-1,0.5-1.6,0.6C384.8,766.4,385.3,759.1,385.9,751.8z"/>
		<path class="st14" d="M369.6,760.2c-0.4,0.8-0.9,1.6-1.3,2.4c-1.5,0.1-3,0.2-4.4,0.3c-0.6,0.6-1.1,1.1-1.7,1.7
			c-0.6,0.1-1.1,0.2-1.7,0.3c-0.1-0.8-0.3-1.7-0.4-2.5C363.2,761.7,366.4,761,369.6,760.2z"/>
		<path class="st24" d="M540.3,711.4c0.7,2.1,1.3,4.2,2,6.3c-0.6,0.4-1.3,0.8-1.9,1.2c-0.9-1.9-1.8-3.8-2.7-5.8
			C538.5,712.5,539.4,711.9,540.3,711.4z"/>
		<path class="st24" d="M524.4,711.5c0.4,2.2,0.8,4.4,1.2,6.5c-0.7,0.2-1.4,0.5-2.1,0.7c-0.6-2.1-1.3-4.2-1.9-6.3
			C522.5,712.1,523.5,711.8,524.4,711.5z"/>
		<path class="st14" d="M629.4,722c0,3.6,0,7.1,0,10.7c-0.4,0-0.8,0-1.1,0c0-3.5,0-7,0-10.5C628.6,722.2,629,722.1,629.4,722z"/>
		<path class="st8" d="M562.4,762.7c-1.8-0.2-3.5-0.4-5.3-0.6c-0.6,0.4-1.2,0.7-1.9,1.1c-0.1-1.4-0.1-2.9-0.2-4.3
			c2.3-0.3,4.5-0.7,6.8-0.6C562.1,758.3,562.2,761.1,562.4,762.7z"/>
		<path class="st7" d="M376.4,724.1c0.2-1.4,0.4-2.9,0.6-4.3c0.5,0,1.1-0.1,1.6-0.1c0,4.4,0,8.9,0,13.3l-0.3,0.3
			c-0.7-1.1-1.3-2.1-2-3.2C376.4,728.1,376.4,726.1,376.4,724.1z"/>
		<path class="st12" d="M533.2,762.5c-0.7,3.5-1.3,7.1-2,10.6c-0.8-0.5-1.7-1-2.5-1.6C530.2,768.6,531.7,765.6,533.2,762.5z"/>
		<path class="st14" d="M555.1,758.8c0.1,1.4,0.1,2.9,0.2,4.3c-0.1,3.5-0.2,7-0.4,10.5c-0.5,0.2-1,0.3-1.5,0.2c0-5.2,0-10.5,0-15.7
			C554.1,757.9,554.7,758.1,555.1,758.8z"/>
		<path class="st7" d="M553.5,758.2c0,5.2,0,10.5,0,15.7c-0.9-1.1-1.8-2.1-2.6-3.2c0.1-1.8,0.2-3.6,0.3-5.4c0.1-0.7,0.1-1.3,0.2-2
			C552,761.6,552.7,759.9,553.5,758.2z"/>
		<path class="st6" d="M480.4,760.2c0.1,1.5,0.1,3,0.2,4.5c-1.3,0.1-3.2,0.8-3.7,0.1c-0.7-1.1-0.4-3.2-0.6-4.9
			C477.7,760,479,760.1,480.4,760.2z"/>
		<path class="st24" d="M431.4,769.6c-0.7,1.4-1.3,2.7-2,4.1c0-3.7,0-7.4,0-11.1c0.5,0,1.1,0,1.6,0
			C431.2,764.8,431.3,767.2,431.4,769.6z"/>
		<path class="st0" d="M382.3,773.5c-0.7-1.4-1.3-2.8-2-4.2c0-2.1,0-4.3,0-6.4c0.7,0,1.3,0,2,0C382.3,766.5,382.3,770,382.3,773.5z"
			/>
		<path class="st8" d="M375.1,731.3c-0.2,0.8-0.4,1.5-0.5,2.3c-0.5-0.3-1.1-0.7-1.6-1c0-3.4,0-6.9-0.1-10.3c0.6-0.3,1.2-0.6,1.7-1
			c0,0.8,0.2,1.5,0.5,2.1C375.1,726,375.1,728.7,375.1,731.3z"/>
		<path class="st0" d="M372.9,732.6c0.5,0.3,1.1,0.7,1.6,1c-2.1,1-4.2,2-6.3,3c0-0.8-0.1-1.5-0.1-2.3
			C369.8,733.8,371.3,733.2,372.9,732.6z"/>
		<path class="st22" d="M597,723.6c-0.2,3.8-0.4,7.6-0.6,11.4c-0.3,0-0.6,0-0.9,0.1c-0.2-3.3-0.3-6.6-0.5-9.9c0,0-0.2-1.1-0.2-1.1
			l0.8-0.5l0.7-0.1L597,723.6z"/>
		<path class="st7" d="M360,762.4c0.1,0.8,0.3,1.7,0.4,2.5c0,3,0,6-0.1,9c-0.7-0.1-1.4-0.2-2.1-0.3
			C358.8,769.9,359.4,766.2,360,762.4z"/>
		<path class="st15" d="M396.5,773.8c0.1-4.1,0.1-8.2,0.2-12.3c0.7,1.8,1.5,3.5,2.2,5.3C398.1,769.1,397.3,771.4,396.5,773.8z"/>
		<path class="st11" d="M658.8,762.7c-1.2,0.7-2.5,1.3-3.7,2c0.6-1.6,1.3-3.2,1.9-4.8C657.6,760.8,658.2,761.8,658.8,762.7z"/>
		<path class="st0" d="M374.6,721.2c-0.6,0.3-1.2,0.6-1.7,1c-0.7-0.8-1.5-1.6-2.1-2.6c0-0.1,1-1.4,1-1.4
			C372.7,719.2,373.6,720.2,374.6,721.2z"/>
		<path class="st6" d="M596.6,713.5c-0.5,0.3-0.9,0.6-1.4,1c-0.2-0.7-0.5-1.5-0.5-2.2c0-0.3,0.9-0.5,1.4-0.7
			C596.3,712.2,596.4,712.8,596.6,713.5z"/>
		<path class="st0" d="M364.4,719.7c-1.4,1-2.8,2-4.3,3C361.5,721.7,363,720.7,364.4,719.7z"/>
		<path class="st24" d="M355.3,723.9c0,2.2,0,4.4,0,6.5C355.3,728.2,355.3,726.1,355.3,723.9z"/>
		<path class="st1" d="M375.1,731.3c0-2.7,0-5.3,0-8c0.4,0.3,0.9,0.6,1.3,0.8c0,2-0.1,3.9-0.1,5.9
			C375.9,730.5,375.5,730.9,375.1,731.3z"/>
		<path class="st8" d="M464.2,758c-0.1,2-0.2,4-0.4,6c-0.5,0-1,0.1-1.6,0.1c0-1.9,0-3.9,0-5.8C463,758.2,463.6,758.1,464.2,758z"/>
		<path class="st0" d="M365.5,729.3c-1.4-0.4-2.8-0.8-6.5-1.9c3.7-1.1,5.1-1.5,6.5-1.9C365.5,726.8,365.5,728,365.5,729.3z"/>
		<path class="st13" d="M591.5,724.4c0-1.1,0-2.1,0-3.2c0.7-0.1,1.5-0.2,2.2-0.3c0.6,0.9,1.3,1.8,1.9,2.7l-0.8,0.5
			c0,0,0.2,1.1,0.2,1.1C593.9,724.9,592.7,724.7,591.5,724.4z"/>
		<path class="st6" d="M595.6,723.6c-0.6-0.9-1.3-1.8-1.9-2.7c1.1,0.9,2.2,1.8,3.3,2.7c0,0-0.7-0.2-0.7-0.2L595.6,723.6z"/>
		<path class="st6" d="M653.8,734c-0.1-1.2-0.1-2.4-0.2-3.5c0.3,0,0.6-0.1,0.9-0.1c0.1,1.2,0.1,2.4,0.2,3.5
			C654.5,733.9,654.1,734,653.8,734z"/>
		<path class="st6" d="M660.4,730.6c1.3-0.6,2.6-1.2,3.8-1.8c0.1,0.5,0.2,1,0.3,1.5c-1.3,0.2-2.6,0.5-3.9,0.7L660.4,730.6z"/>
		<path class="st7" d="M378.6,733c0.4,0.8,0.9,1.6,1.3,2.5c0,0-0.4,0.4-0.6,0.6c-0.3-0.9-0.6-1.9-0.9-2.8
			C378.4,733.2,378.6,733,378.6,733z"/>
		<path class="st23" d="M292.8,744.4c-0.6-0.7-1.3-1.3-1.9-2c0.4-0.6,0.9-1.2,1.3-1.7c1,1.1,2,2.3,3,3.4
			C294.5,744.2,293.7,744.3,292.8,744.4z"/>
		<path class="st6" d="M660.7,731c-0.3,0.3-0.6,0.6-1,0.8c0.2-0.4,0.4-0.8,0.7-1.2C660.4,730.6,660.7,731,660.7,731z"/>
		<path class="st24" d="M387.6,773.3c0.6-4.3,1.3-8.7,1.9-13c6.9,0.8,5.6,6.8,5,12.3C392.2,772.8,389.9,773,387.6,773.3z"/>
		<path class="st10" d="M363.8,762.9c1.5-0.1,3-0.2,4.5-0.4c0.4,2.3,0.8,4.7,1.3,7c-1.8,0.6-3.7,1.3-5.5,1.9
			C363.9,768.6,363.9,765.8,363.8,762.9z"/>
		<path class="st15" d="M554.9,773.6c0.1-3.5,0.2-7,0.4-10.5c0.6-0.4,1.2-0.7,1.9-1.1c-0.1,3.9-0.2,7.8-0.3,11.8
			C556.2,773.8,555.5,773.7,554.9,773.6z"/>
		<path class="st8" d="M360.4,773.9c0-3,0-6,0.1-9c0.6-0.1,1.1-0.2,1.7-0.3c0.1,2.2,0.3,4.4,0.4,6.5
			C361.8,772.1,361.1,773,360.4,773.9z"/>
		<path class="st0" d="M362.5,771.2c-0.1-2.2-0.3-4.4-0.4-6.5c0.6-0.6,1.1-1.1,1.7-1.7c0.1,2.8,0.1,5.7,0.2,8.5
			C363.5,771.3,363,771.2,362.5,771.2z"/>
		<path class="st15" d="M551.1,765.3c-0.1,1.8-0.2,3.6-0.3,5.4C550.9,768.9,551,767.1,551.1,765.3z"/>
		<path class="st14" d="M1287.2,922.1c1.7-0.8,2.7-1.2,3.7-1.7c-0.4,1-0.8,2-1.3,2.9C1289.5,923.5,1288.6,922.9,1287.2,922.1z"/>
		<path class="st13" d="M1231.6,928.5c-0.2,0.1-0.6,0.3-0.7,0.2c-0.2-0.2-0.2-0.6-0.2-0.9c0-0.1,0.6-0.3,0.6-0.2
			C1231.5,927.8,1231.6,928.1,1231.6,928.5z"/>
		<path class="st13" d="M1226.5,927.9c0.2-0.3,0.4-0.5,0.5-0.8c0.1,0.2,0.3,0.3,0.4,0.5c-0.2,0.2-0.4,0.4-0.6,0.7
			C1226.8,928.2,1226.5,927.9,1226.5,927.9z"/>
		<path class="st12" d="M1342.8,916.4c0,5,0,7.4,0,10.6c-1.5-0.4-2.8-0.3-3.6-1c-1.2-1.1-2.1-2.7-3.1-4.1
			C1337.9,920.4,1339.7,918.9,1342.8,916.4z"/>
		<path class="st0" d="M997.2,928.3c0-4,0-8,0-12.1c0.9,0,1.7,0,2.6,0c0,3.8,0,7.5,0,11.3C998.9,927.8,998.1,928,997.2,928.3z"/>
		<path class="st14" d="M1102.7,921.3c-0.2-0.6-0.5-1.1-0.6-1.7c0-0.2,0.4-0.5,0.6-0.7C1102.7,919.7,1102.7,920.5,1102.7,921.3z"/>
		<path class="st2" d="M767.8,600.8c-5.3,1-10.7,2.9-16,2.9c-43.1,0.2-86.1,0.2-129.2,0.1c-17.4,0-25.7-10.2-25.7-31.9
			c0-103.5,0.1-207-0.2-310.5c0-12.7,2.7-22.9,10.7-30.8c6-1.1,11.9-3,17.9-3.1c42.5-0.3,84.9-0.2,127.4-0.1
			c18.1,0,26.2,10,26.2,32.4c0,103.6-0.1,207.1,0.1,310.7C779.1,583.3,776,593.2,767.8,600.8z M673.2,384
			c2.5-10.4,7.2-18.4,16.2-15.1c3.4,1.2,7.4,8.1,7.8,12.9c1.1,13.3-8.3,14.4-15.9,16.9c-0.6,6.2-1.2,12-1.8,18
			c14.6-2.1,20.8,1.8,22.8,13.9c1.8,11-2.5,21.6-10.2,25c-8,3.4-13.7-2-20.1-19.5c-2.7,0.6-5.6,1.2-8.6,1.7
			c-3.1,0.6-6.3,1.2-9.4,1.8c2.3,22.8,13.5,37.6,29.3,39.6c17.2,2.2,33.3-8.6,37.7-27.4c4.2-17.9,4.2-32-15.7-46.2
			c9.6-8.5,16-18.9,12.3-34.5c-4.2-17.8-18.4-27.8-35.4-25.5c-15,2.1-25,15.2-26.2,35C661.5,381.5,667,382.7,673.2,384z"/>
		<path class="st2" d="M793.5,415.1c0-51.7,0-103.5,0-155.2c0-22.5,8-32.5,26.1-32.5c43.3,0,86.7,0,130,0c17,0,25.8,10.8,25.8,31.8
			c0,104.2-0.2,208.5,0.2,312.7c0.1,17-10.9,32.8-25.9,32.3c-43.3-1.2-86.7-0.4-130-0.4c-18.1,0-26.2-10-26.3-32.3
			C793.5,519.4,793.5,467.2,793.5,415.1z M917.9,378.7c-2.2-18.9-10.6-30.6-23.5-33.2c-15.9-3.2-32,6.7-37.9,25.3
			c-8.6,26.9-8.9,54.7-0.7,81.8c5.3,17.4,16.2,26.7,31.7,26.5c14.1-0.2,24.7-7.8,30-24.1c5.8-17.6,5.4-35.3-5.8-49.5
			c-4.7-6-12-10.9-18.6-12c-6.7-1.1-14,3.2-21.6,5.3c1-5.6,1.1-12.9,3.7-18.4c2.5-5.2,7.4-10.5,11.9-11.7c3-0.8,7.2,5.6,11,8.6
			c2,1.6,4.3,3.7,6.5,3.7C909,381,913.5,379.6,917.9,378.7z"/>
		<path class="st6" d="M937.8,111.1c1.2-2.8,2.4-5.6,3-7c5,2.5,9.4,4.8,14.6,7.4c0,6.4,0,14.5,0,23.5c-7.8-5.6,3.2-22.2-10.8-23.4
			c-0.3,6.1-0.6,10.9-0.9,17.1c-2.3-1.9-3.8-3.2-5.4-4.5c-7.9,9.5-11.9,8.5-17.3-4.5c0,0,0-0.1,0-0.1c4.9-12.2,7.3-13.2,15.2-6.4
			c0.8,0.6,1.6,1.1,2.5,1.7C938.3,113.7,938.1,112.4,937.8,111.1z"/>
		<path class="st6" d="M707.9,116.2c4.5,9.1-0.8,14.4-3.6,21c-1.6-9.1-3-17-4.5-25.5c-7.7,5.9-7.7,5.9-1.8,18.7
			c-2.7-2.1-5.4-4.1-8.4-6.4c-0.8,1.7-1.7,3.8-2.6,5.9c-0.5-0.1-1-0.2-1.5-0.3c0-9.5,0-19,0-28.5c0.6-0.2,1.2-0.4,1.9-0.5
			c0.6,4.2,1.2,8.3,2,13.4c6.8-6.6,12.6-6.8,16.5,3.5c0,0,1.3-0.7,2.1-1.1C708,116.3,707.9,116.2,707.9,116.2z"/>
		<path class="st7" d="M618.7,129c-0.5-5.4-1.1-10.7-1.6-16.1c-0.6,0-1.2-0.1-1.8-0.1c-0.3,7.9-0.6,15.8-1,23.7
			c-3.8-9.6-18.9-3.9-16.7-20c-0.9,1.4-1.7,2.8-2.6,4.2c0-3,0-5.9,0-8.9c4.9-0.8,9.9-2.7,14.7-2.1c5.4,0.7,8.1-2,10.4-7.1
			c0.9,0.1,1.7,0.2,2.6,0.3c-2,6.4,1.8,6.6,5.1,7.3l0,0.9c-2,2.6-4.5,4.9-5.8,8c-1.2,3-1.1,6.7-1.6,10.2c0-5.1,0-10.1,0-15.1
			c-0.6,0-1.2,0-1.8,0C618.7,119.1,618.7,124.1,618.7,129z M612.6,119.4c-2.1-3.3-3.4-5.3-4.7-7.4c-1.4,2.8-3.6,5.4-4.1,8.4
			c-0.3,2,1.9,4.6,3,6.9C608.6,124.9,610.3,122.6,612.6,119.4z"/>
		<path class="st23" d="M757,122.6c-0.4-3.2-0.8-6.5-1.5-11.3c-2.4,3.3-4.1,5.6-5.8,7.9c1.8,3.5,3.4,6.6,5,9.6
			c-4.5-0.3-8.9-0.5-13-0.8c0.4-2.7,1.7-7.3,1.4-11.6c-0.1-2-3.6-3.5-6.9-6.5c-0.6,8.1-1,13.8-1.4,19.5c-0.8,0-1.5,0-2.3,0
			c0-8.9,0-17.8,0-26.1c5.5,4,10.3,7.5,13.5,9.8c4.8-1.1,7.9-1.8,11.1-2.6C757.1,114.5,757.1,118.5,757,122.6z"/>
		<path class="st24" d="M868,109.5c4.6,0,9.2,0,13.9,0c0.9,6,1.7,11.3,3.1,20.5c-6.7-2.9-11.8-5.1-17-7.4c0-2.7,0-5.3,0-8
			c0-1.7,0.1-3.5,0.1-5.2L868,109.5z"/>
		<path class="st6" d="M661,133.5c-3.2-6.8-4.8-10.3-7.1-15.2c-2,3.9-3.5,6.7-4,7.7c-0.6-1.8-1.6-4.8-2.2-6.5
			c2.1-3.1,4.1-6,6.9-10.1c1.4,3.1,2.9,6.2,4.6,9.8c1.6-3.5,3.1-6.6,4.5-9.8c0.7,0.3,1.4,0.7,2.1,1C664.4,117,663.1,123.6,661,133.5
			z"/>
		<path class="st7" d="M769.7,109.9c3.7,2.4,7.4,4.7,11.8,7.5c0.4-0.8,2.1-4.4,4.2-8.8c1.5,2.4,2.7,4.2,3.8,5.9c0,3.4,0,6.8,0,10.1
			c-0.8-2.7-1.6-5.4-2.6-9c-2,5.3-3.7,9.8-6.5,17c-3.2-7.8-5.4-13.4-8.1-19.9c-1,6-1.8,11.3-2.6,16.6
			C769.7,122.9,769.7,116.4,769.7,109.9z"/>
		<path class="st24" d="M903.9,127.9c-7,3.2-13,3.9-14.7-5.1c-0.7-3.7,2.5-11.2,5.4-12.8c5.4-3,8.8,1.8,9.4,9.9
			c-3.8,0.6-7.2,1.1-10.6,1.6c-0.2,1.1-0.4,2.1-0.6,3.2C896,125.7,899.3,126.6,903.9,127.9z"/>
		<path class="st24" d="M622.7,102.9c-0.9-0.1-1.7-0.2-2.6-0.3c3.3-0.9,6.6-1.7,9.9-2.6c-0.3,1.2-0.6,2.4-0.9,3.6
			c2.6,2,5.7,3.5,7.8,6.1c2.3,2.8,5.1,6.8,5,10.2c-0.1,3.5-3.1,7.6-5.7,9.8c-1.8,1.5-5.1,0.3-8.5,0.3c0-6.9,0-12.8,0-18.7
			c0,0,0-0.9,0-0.9C627.9,105.8,628,101.4,622.7,102.9z M638.2,112.5c-1.6-0.3-3.3-0.7-4.9-1c-0.5,4.6-1.2,9.3-1.4,14
			c0,0.3,2.9,0.8,4.4,1.2C637,121.9,637.6,117.2,638.2,112.5z"/>
		<path class="st24" d="M708,116.3c2.9-1.5,6-2.7,8.7-4.5c7.3-4.8,10.1-3.2,12.5,7.4c-2.5,5.1-12.4-4-10.7,8.8
			c-7.2,1-1-16.2-10.6-11.8C707.9,116.2,708,116.3,708,116.3z"/>
		<path class="st7" d="M678.8,129.9c-0.6-5.9-1.3-11.7-1.9-17.6c-1-0.3-2-0.5-3-0.8c-1.3,5.9-2.6,11.8-3.8,17.7
			c-0.6,0-1.1,0.1-1.7,0.1c-0.3-6.1-0.6-12.2-1-20.8c5.1,1.3,11.1,0.7,12.8,3.7c2.3,4.3,1.4,11.3,1.9,17.1
			C681,129.6,679.9,129.8,678.8,129.9z"/>
		<path class="st7" d="M855.3,129.9c-0.6-5.9-1.3-11.7-1.9-17.6c-1-0.3-2-0.5-3-0.8c-1.3,5.9-2.6,11.8-3.8,17.7
			c-0.6,0-1.1,0.1-1.7,0.1c-0.3-6.1-0.6-12.2-1-20.8c5.1,1.3,11.1,0.7,12.8,3.7c2.3,4.3,1.4,11.3,1.9,17.1
			C857.5,129.6,856.4,129.8,855.3,129.9z"/>
		<path class="st7" d="M920.9,119.7C920.9,119.7,920.9,119.8,920.9,119.7c-0.4,3.4-0.8,6.7-1.1,10.1c-0.9,0-1.7,0-2.6,0
			c-0.6-5.8-1.3-11.7-1.9-17.5c-1.1-0.2-2.1-0.5-3.2-0.7c-1.2,6-2.4,11.9-3.6,17.9c-0.6,0-1.2,0-1.8,0c-0.2-6.2-0.4-12.4-0.7-18.8
			C913.5,108.7,920.2,106.9,920.9,119.7z"/>
		<path class="st6" d="M868.1,114.6c0,2.7,0,5.3,0,8c0.7,2.8,0.8,6.9,2.4,8c2.3,1.8,5.6,1.5,9.4,2.2c-10.4,2.9-15.5,0.1-17.8-9
			c-2.3-8.9,0.1-14.8,8-19.1c-0.8,1.9-1.4,3.3-2,4.8c0,0,0.2-0.1,0.2-0.1C868.1,111.1,868.1,112.8,868.1,114.6z"/>
		<path class="st6" d="M595,111.7c0,3,0,5.9,0,8.9c-1.8,5.5-3.6,11-5.8,18c-1.9-11.3-3.4-20-4.9-28.8c0.5-0.3,1.1-0.7,1.6-1
			c1.5,3.2,2.9,6.4,4.9,10.8C592.4,116.7,593.7,114.2,595,111.7z"/>
		<path class="st23" d="M981.2,114.3c3.1-1.7,7.3-5.7,9.1-4.4c3.1,2.1,6.3,7.4,6.6,11.6c0.4,6.6-4.1,9.6-9.2,8.2
			c-2.4-0.6-4.5-2.9-6.8-4.4c0,0,0.1,0.2,0.1,0.2C981.1,121.8,981.1,118.1,981.2,114.3C981.2,114.3,981.2,114.3,981.2,114.3z
			 M990.6,111.2c-0.8,0.1-1.7,0.1-2.5,0.2c-0.9,3.1-2.7,6.4-2.5,9.4c0.2,2.4,3,4.4,4.6,6.5c1.1-2.7,3.1-5.4,3.2-8.2
			C993.5,116.5,991.6,113.8,990.6,111.2z"/>
		<path class="st24" d="M769.7,109.9c0,6.5,0,13,0,19.5c-4.6-1.1-11.8,5.1-12.7-6.8c0-4.1,0.1-8.1,0.1-12.2c1.1,1,3,1.9,3.1,3.1
			c0.4,4.4,0.2,8.8,0.2,13.2c1,0.4,2,0.8,3,1.2c1.2-2.9,2.6-5.8,3.7-8.9C768.1,116.1,768.8,113,769.7,109.9z"/>
		<path class="st6" d="M789.5,124.7c0-3.4,0-6.8,0-10.1c3.3-7.2,8.4-7.9,12.1-2.1c1.9,3.1,1.9,11.2,0,14.3
			C797.9,132.7,792.8,132,789.5,124.7z M795.5,128.2c0.9-0.1,1.7-0.3,2.6-0.4c0.8-3.2,2.3-6.4,2.1-9.5c-0.1-2.2-2.5-4.2-3.9-6.3
			c-1.4,2.8-3.7,5.6-4,8.6C792.1,122.9,794.3,125.6,795.5,128.2z"/>
		<path class="st24" d="M839.4,127.3c-1.1-2.1-2.2-4.2-3.4-6.3c-1.8-3-3.7-5.8-5.5-8.7c3.5-1.1,7-2.1,10.5-3.2c0.1,1,0.3,2,0.4,2.9
			c-2.5,0.3-5.1,0.6-9,1C844,120.7,844.2,121.3,839.4,127.3z"/>
		<path class="st6" d="M980.9,125.4c-3.3,7.4-8.1,6.4-11.8,1.6c-4.1-5.4-3.1-11.3,1.8-16.5c0.8,6,1.2,11.2,2.6,15.9
			c0.2,0.7,4.9-0.5,7.5-0.8C981,125.5,980.9,125.4,980.9,125.4z"/>
		<path class="st24" d="M618.7,129c0-5,0-9.9,0-14.9c0.6,0,1.2,0,1.8,0c0,5,0,10.1,0,15.1C619.8,129.2,619.2,129.1,618.7,129z"/>
		<path class="st25" d="M981.2,114.3c-0.9-0.7-1.8-1.3-2.7-2c0.4-0.5,0.8-0.9,1.1-1.4C980.1,112.1,980.7,113.2,981.2,114.3
			C981.2,114.3,981.2,114.3,981.2,114.3z"/>
		<path class="st26" d="M1432.7,131.4c-6.9,0-13.9,0.3-20.8-0.1c-7.9-0.4-12.2-5.6-12.3-15.8c0-10.2-0.1-20.3,0-30.5
			c0.1-9.5,4.3-14.7,11.9-14.9c13.9-0.2,27.8-0.3,41.7,0c7.6,0.1,11.7,5.5,11.8,15c0.1,10.2,0.1,20.3,0,30.5
			c0,10.1-4.5,15.3-12.4,15.6C1446,131.6,1439.3,131.4,1432.7,131.4z M1459.1,90.8c-7.5,6.7-14.1,11.9-20,18.2
			c-5.2,5.6-9.1,4.8-14-0.3c-5.9-6.1-12.4-11.4-20-18.2c0,9,0.3,15.6-0.1,22.2c-0.4,8.2,2.4,11.8,8.9,11.7c7.2-0.2,14.5,0.1,21.7,0
			C1461.9,123.9,1460,129.7,1459.1,90.8z M1458.9,82.3c-0.4-1.5-0.8-3-1.1-4.6c-17.1-0.7-34.2-1-51.6,2.3
			c7.7,9.6,15.8,17.1,24.1,24.2c1,0.8,3.2,0.8,4.1,0C1442.6,97.1,1450.7,89.7,1458.9,82.3z"/>
		<path class="st26" d="M1514.2,121.4c6.8,0,13.6,0,20.5,0c0.1,1.4,0.2,2.8,0.3,4.2c-10,4.5-20.7,0.9-30.9,2.1
			c-0.6-0.9-1.2-1.9-1.8-2.8c3.6-5.6,6.9-11.4,10.7-16.7c4-5.5,9-10.1,12.8-15.9c3.4-5.2,3.8-11.7-1.6-15.5
			c-4.7-3.4-9.2-2.1-12.3,4.5c-1.2,2.5-3.3,4.4-6.5,8.3c-1.3-11.7,2-17.3,7.8-19.8c6.5-2.8,14.2-3.3,18.1,4.7c2.4,5.1,2.9,14,1,19.5
			c-2.2,6.5-7.8,11.1-12.1,16.4c-2.2,2.8-4.7,5.4-7,8.1C1513.5,119.5,1513.9,120.4,1514.2,121.4z"/>
		<path class="st23" d="M1197.9,121.4c0-6.4,0-10.9,0-15.3c0-8.2,0-16.5,0-25.7c9.1,0.4,19.3-5.4,24.4,6.3c3,6.9,3.2,18,0.9,25.5
			C1218.8,126.1,1207.7,119.3,1197.9,121.4z M1203.6,118.6c5.9-3.2,12.6-4.2,14.5-8.4c2.3-5.3,2.3-14.5,0-19.8
			c-1.8-4.2-8.6-5.1-14.4-8C1203.6,95.5,1203.6,105.4,1203.6,118.6z"/>
		<path class="st26" d="M1261.4,107.1c-5.9,0-10.9,0-16.1,0c1.4,9.8,1.4,9.8,14.6,5.1c-2.1,7.7-5.7,10.3-12.3,8.4
			c-7-1.9-8.7-8.3-8.2-16.3c0.5-8.5,4-13.1,11-13.2C1257.8,91.2,1260.9,96.6,1261.4,107.1z"/>
		<path class="st23" d="M1317.5,120.3c0-13.9,0-27.1,0-40.3c0.9-0.1,1.8-0.1,2.7-0.2c0.5,3.6,1.1,7.2,1.6,10.9
			c12.1,0.8,16.1,4.9,15.8,16.1C1337.2,117.9,1333.9,120.2,1317.5,120.3z M1318.4,105.8c3.5,4.6,5.7,7.4,7.8,10.3
			c2.1-3.4,5.6-6.5,5.9-10.1c0.3-3.1-3.1-6.6-4.9-10C1324.7,98.8,1322.2,101.6,1318.4,105.8z"/>
		<path class="st26" d="M1292.5,120.8c0-9.3,0-18.6,0-30.1c5.4,1.4,14.2,0.6,16.6,5c3.3,6.2,1.8,16.4,2.3,24.9
			c-1.3,0.1-2.7,0.2-4,0.3c-0.3-5.5-0.1-11-1-16.3c-0.5-3.1-2.8-5.7-4.2-8.5c-2,2.7-5.2,5-5.9,8.1c-1.2,5.3-0.8,11.1-1,16.7
			C1294.3,120.8,1293.4,120.8,1292.5,120.8z"/>
		<path class="st24" d="M1363.2,105.7c0.1,9.5-4.1,15.1-11.4,15.2c-7.4,0-11.6-5.4-11.4-15c0.1-8.8,3.2-14.3,10.8-14.6
			C1358.7,90.9,1363.1,96.3,1363.2,105.7z M1361,105.4c-4.3-4.2-6.9-6.8-9.5-9.4c-2.1,3.5-5.8,7.1-5.8,10.5c0.1,3.3,4.1,6.5,6.4,9.7
			C1354.5,113.2,1357,110.3,1361,105.4z"/>
		<path class="st24" d="M1384.4,121.9c-3-3.2-6.1-6.4-8.9-9.4c-2.9,3.1-5.9,6.3-8.9,9.5c-0.6-0.8-1.1-1.5-1.7-2.3
			c2.5-4.6,4.9-9.2,7.4-13.9c-2.3-4.6-4.4-9-6.6-13.3c0.4-0.6,0.9-1.3,1.3-1.9c2.9,2.5,5.7,4.9,8.6,7.4c2.6-2.3,5.4-4.8,8.3-7.3
			c1,0.4,1.9,0.9,2.9,1.3c-10.4,9.9-7.4,19.1,0,28C1386,120.5,1385.2,121.2,1384.4,121.9z"/>
		<path class="st23" d="M1283.5,121.8c-5.1-7-5.4-34.1,0-44.1C1283.5,93.4,1283.5,106.8,1283.5,121.8z"/>
		<path class="st7" d="M1231,120.5c0-9.6,0-19.2,0-29.4C1236.4,96.1,1237,111.9,1231,120.5z"/>
		<path class="st24" d="M1175.6,403.7c-2,7.2-3.8,14.6-6.2,21.7c-1.3,3.8-3.6,7.1-5.4,10.6c-1.9-3.4-4.3-6.5-5.5-10.2
			c-2.5-7.6-4.4-15.5-8.1-23.2c0,9.4,0.2,18.7-0.1,28c-0.1,1.8-2,3.5-3.1,5.2c-0.8-1.7-2.4-3.3-2.4-5c-0.2-14.6-0.1-29.3-0.1-43.5
			c6.9-3.5,9.5,0,11,7.1c2.2,9.8,5,19.3,8.2,31.8c2.8-9.9,4.4-17.7,7.1-24.8c2.3-6,0.3-17.7,10.7-15c3,20.9,1.4,46-4.5,50.2
			c0-6.4,0-11.9,0-17.3c0-5.1,0-10.2,0-15.3C1176.8,404,1176.2,403.9,1175.6,403.7z"/>
		<path class="st24" d="M1388.1,436.2c-0.3-4.9-0.4-9.8-1-14.6c-0.7-5.7,2.9-15.2-4.6-15.6c-7.7-0.4-6.3,9.1-6.4,15.7
			c-0.1,4.7,0,9.4,0,14.2c-1,0.3-1.9,0.6-2.9,0.9c-0.9-2-2.5-3.9-2.6-6c-0.4-5.2,0.4-10.7-0.4-15.8c-0.5-3.4-2.9-6.3-4.5-9.4
			c-2.1,3.2-5.3,5.9-6,9.5c-1.1,4.9-0.1,10.5-0.5,15.8c-0.2,2-1.8,3.9-4.7,4.9c0-11.5,0-23,0-34.6c9.7-0.5,19.6-1.7,29.3-0.9
			c3,0.2,7.7,5.2,8.2,8.8c1.2,8.7,0.4,17.8,0.4,26.8C1391,435.8,1389.6,436,1388.1,436.2z"/>
		<path class="st23" d="M1124.1,411c-0.4,3.8-0.5,7.6-1.2,11.3c-1.4,8-4.6,13.8-12.1,13.9c-7.5,0.1-11.4-5.3-12.2-13.4
			c-0.8-7.7-0.9-15.7,0-23.4c0.9-8.1,4.8-13.5,12.3-13.4c7.6,0.1,10.5,6.2,12,14C1123.7,403.5,1123.8,407.3,1124.1,411z
			 M1118.1,410.8c-1.1-7,1.6-18.5-7.3-18.6c-8.5-0.1-7.5,11.1-7.5,18.7c0,7.6-1.2,18.8,7.3,18.9C1119.6,430,1117,418.5,1118.1,410.8
			z"/>
		<path class="st26" d="M1424.1,420c-6.6,0-13.2,0-19.9,0c1.7,8.3,1.7,8.3,18.8,5.3c-2.2,9.4-7.2,12.8-15.4,10.5
			c-7.1-2-10.9-10.4-9.8-21.2c1-9.8,6.4-15.4,14.2-14.9C1420,400.1,1423.7,406.2,1424.1,420z M1403.1,411.8c0.6,0.9,1.1,1.7,1.7,2.6
			c4.3,0,8.5,0,12.8,0c0.4-0.9,0.8-1.8,1.2-2.7c-2.4-2.3-5-6.6-7.3-6.4C1408.6,405.6,1405.9,409.5,1403.1,411.8z"/>
		<path class="st26" d="M1302.9,420.1c-6.9,0-13.2,0-20.6,0c4.7,18.9,13.4,4.1,20.5,4.7c-3,11.5-9.7,12.3-16.6,10.9
			c-6.7-1.3-10.8-10.4-9.9-20.2c0.9-10,6.1-16,13.8-15.8C1298.3,399.8,1302.1,405.4,1302.9,420.1z M1296.6,414.6
			c0.4-0.9,0.8-1.8,1.2-2.7c-2.8-2.3-5.5-6.4-8.3-6.4c-2.4,0-4.9,4.5-7.3,6.9c0.5,0.7,1.1,1.5,1.6,2.2
			C1288.1,414.6,1292.4,414.6,1296.6,414.6z"/>
		<path class="st24" d="M1448.2,436.5c0-7.8,0.6-14.9-0.3-21.7c-0.5-3.4-3.7-6.3-5.7-9.5c-2.2,3-5.5,5.7-6.2,9.2
			c-1.1,5.3-0.1,11.2-0.5,16.8c-0.1,1.6-1.8,3-2.8,4.6c-0.9-1.2-2.5-2.5-2.5-3.7c-0.2-15.2-0.1-30.5-0.1-45.7c1.3-0.3,2.6-0.5,4-0.8
			c0.8,4.9,1.6,9.7,2.5,15c6.3-0.8,13.8-4.1,16.8,7.6C1455.7,418.1,1453.7,433.1,1448.2,436.5z"/>
		<path class="st24" d="M1326.6,435.7c0-7,0.6-14.1-0.3-20.9c-0.5-3.4-3.7-6.3-5.7-9.4c-2.2,3-5.8,5.7-6.3,9.2
			c-1,6.8-0.3,14-0.3,21.7c-6.2-3.3-7.2-13.1-4.8-36.6c7.2,4.9,19.3-8.2,22.4,9.5c1.5,8.7,2,18.6-0.8,27.1
			C1329.3,436.1,1327.9,435.9,1326.6,435.7z"/>
		<path class="st24" d="M1203.3,435.7c0-11.8,0-23.5,0-36.2c7.5,4.9,20.3-8.3,22.5,11c0.9,8.2,3.3,18.2-2.1,25.6c-1-0.1-2-0.3-3-0.4
			c0-7,0.6-14.2-0.3-21c-0.5-3.4-3.8-6.2-5.8-9.3c-2.1,3.1-5.3,5.8-6.1,9.3c-1.1,4.9-0.1,10.5-0.4,15.8c-0.2,2.1-1.6,4.1-2.5,6.2
			C1204.8,436.3,1204,436,1203.3,435.7z"/>
		<path class="st24" d="M1237.8,401.1c0,6.7-0.7,13.6,0.3,20.2c0.5,3.4,3.8,6.2,5.9,9.2c2.1-3.2,5.3-6,6-9.6
			c1-5.4,0.1-11.3,0.5-16.9c0.1-1.5,2-2.7,3.1-4.1c0.8,1.3,2.2,2.7,2.2,4c0.2,10.5,0.1,21,0.1,32.9c-8.1-5.8-21.1,7.8-23.2-11.6
			c-0.9-8.3-2.3-18,1.5-25.8C1235.4,400.1,1236.6,400.6,1237.8,401.1z"/>
		<path class="st24" d="M1080.7,399.5c-4.1,2.1-6.2,3.3-9.7,5.1c1.1-11.9,9.2-13,13.5-20.5c4,21.6,2.3,48.9-3.8,51.8
			C1080.7,424.1,1080.7,412.7,1080.7,399.5z"/>
		<path class="st23" d="M1266.6,388.7c2.4,5.3,4.2,9.4,6.2,13.8c-6,7.7-5.9,20.8,1.4,32.6c-5.6,1.8-9.7,1.4-10.7-6.9
			c-1-8.6-3.1-17.1-2.9-25.6C1260.6,397.9,1264.5,393.3,1266.6,388.7z"/>
		<path class="st23" d="M1462.9,436.1c-4.7-11.1-2-23.3-3.1-35.5c5.6,0,10.6,0,15.6,0C1460,406.8,1467.7,424.3,1462.9,436.1z"/>
		<path class="st24" d="M1480.9,424.5c-0.6-12.5-1.2-25-1.9-39.3c3.3,1.3,6.5,2.1,6.5,2.8c0,12.2-0.4,24.4-0.7,36.6
			C1483.6,424.6,1482.2,424.6,1480.9,424.5z"/>
		<path class="st24" d="M1190.1,398.3c2.8,1.9,5,2.6,5,3.5c0.3,10.2,0.4,20.4,0.2,30.5c0,1.2-1.7,2.4-2.6,3.5
			c-0.9-1.2-2.5-2.4-2.5-3.7C1190.1,421.5,1190.1,410.7,1190.1,398.3z"/>
		<path class="st2" d="M527.8,415.3c0,52.1,0,104.3,0,156.4c0,21.8-8.2,32.1-25.5,32.1c-43.7,0-87.3,0-131,0
			c-17.3,0-25.5-10.3-25.5-32.1c0-103.9,0-207.8,0-311.6c0-22.6,8-32.6,26-32.6c43.7,0,87.3-0.1,131,0c16.7,0,25,10.5,25,31.5
			C527.8,311,527.8,363.2,527.8,415.3z M403.4,445.6c2.6,20,11.2,31.6,24,33.4c16.8,2.4,32.4-8,38-27.2c7.6-26,7.8-52.6,0.5-78.7
			c-4.8-17.1-15.1-27-30.1-27.8c-14.4-0.7-25.7,6.5-31.6,23c-6.2,17.4-5.6,34.8,4.6,50c9.9,14.8,23.4,17.2,36.6,7.6
			c1.1-0.8,2.2-1.4,4.3-2.6c-1.9,13.6-1.2,28.4-13.2,31.9c-4.7,1.4-11.1-5.7-16.7-9c0.3-1.2,0.6-2.4,0.9-3.7
			C415.2,443.6,409.5,444.5,403.4,445.6z"/>
		<path class="st27" d="M402.2,81.3c0-8.7-0.1-17.3,0-26c0.1-9,3.6-13.9,11.1-13.9c13.9,0,27.8-0.2,41.7,0.1
			c8.5,0.2,12.5,5.5,12.7,16.3c0.2,16.2,0.2,32.4,0,48.6c-0.1,11.3-4.3,16.5-13.3,16.6c-13.6,0.2-27.2,0-40.8,0.1
			c-8,0.1-11.4-5.2-11.4-14.7C402.2,99.4,402.2,90.3,402.2,81.3z M453.6,99.4c-0.7,0-1.5,0-2.2,0c0-6.7,0.4-13.4-0.1-20
			c-0.3-3.8-1.4-8.2-3.2-11.1c-6.6-10.2-20.8-14.9-30.2-9.8c-9.5,5.1-5,16.3-6,25c-0.1,1.1,0,2.3,0,3.4
			c-0.3,33.5-0.2,29.4,23.5,29.4c16.5,0,22.9-8.1,22.9-29c0-9,0.3-18.1-0.2-27.1c-0.2-3.4-1.4-7.5-3.3-9.8
			c-3.9-4.7-31.6-2.9-35.6,1.7c-0.3,0.3-0.1,1.3-0.1,1c9.2,0,18.5-0.3,27.7,0.2c2.3,0.1,6.5,3.1,6.6,4.9
			C453.9,72,453.6,85.7,453.6,99.4z"/>
		<path class="st2" d="M564.4,476.1c0-8.3,0-15.3,0-23.3c6.4,0,12.5,0,19.4,0c0,7.5,0,15,0,23.3
			C577.5,476.1,571.4,476.1,564.4,476.1z"/>
		<path class="st2" d="M564.6,405.5c0-7.8,0-15.1,0-23.2c6.4,0,12.5,0,19.3,0c0,7.6,0,14.9,0,23.2
			C577.9,405.5,571.8,405.5,564.6,405.5z"/>
		<path class="st23" d="M281.7,733.5c-2.2-1.5-4.4-3.1-6.6-4.6c-0.4-0.6-0.9-1.2-1.3-1.8c5.9-7.3,6,4,9.5,4.5
			C282.7,732.3,282.2,732.9,281.7,733.5z"/>
		<path class="st23" d="M291,742.4c-2.1-1.9-4.2-3.8-6.3-5.7c0.5-0.6,1-1.2,1.4-1.8c2.1,1.9,4.1,3.9,6.2,5.8
			C291.8,741.3,291.4,741.8,291,742.4z"/>
		<path class="st23" d="M267.2,728.9c-1.7-1-3.4-1.9-5-2.9c0.4-0.9,0.8-1.9,1.2-2.8c1.7,1.3,3.5,2.6,5.2,3.8
			C268.2,727.7,267.7,728.3,267.2,728.9z"/>
		<path class="st23" d="M268.7,727.1c1.7,0,3.4,0,5.1,0c0.4,0.6,0.9,1.2,1.3,1.8c-2.6,5-5.2,5-7.9,0
			C267.7,728.3,268.2,727.7,268.7,727.1z"/>
		<path class="st23" d="M283.3,731.7c0.9,1.1,1.9,2.1,2.8,3.2c-0.5,0.6-1,1.2-1.4,1.8c-1-1.1-1.9-2.1-2.9-3.2
			C282.2,732.9,282.7,732.3,283.3,731.7z"/>
		<path class="st10" d="M250.3,740.9c0.7-0.1,1.4-0.2,2.1-0.3c-0.4,0.5-0.8,1.1-1.3,1.6C250.9,741.8,250.6,741.4,250.3,740.9z"/>
		<path class="st10" d="M251.2,742.2c-0.6,0.7-1.2,1.5-1.8,2.2c-0.3-0.3-0.6-0.6-1-0.9c0.6-0.9,1.3-1.7,2-2.6
			C250.6,741.4,250.9,741.8,251.2,742.2z"/>
		<path class="st10" d="M588.4,722.7c-1.4,1.2-2.4,2.7-3,2.5c-0.9-0.3-1.6-1.8-2.4-2.8c0.7-0.9,1.5-2.4,2.2-2.4
			C586.1,719.9,586.9,721.3,588.4,722.7z"/>
		<path class="st15" d="M673.2,384c-6.1-1.3-11.7-2.4-17.2-3.6c1.2-19.8,11.2-32.9,26.2-35c17-2.3,31.2,7.7,35.4,25.5
			c3.7,15.5-2.7,26-12.3,34.5c19.9,14.2,19.9,28.3,15.7,46.2c-4.4,18.8-20.5,29.6-37.7,27.4c-15.8-2-27.1-16.8-29.3-39.6
			c3.1-0.6,6.2-1.2,9.4-1.8c2.9-0.6,5.8-1.2,8.6-1.7c6.4,17.5,12.2,23,20.1,19.5c7.7-3.3,12-13.9,10.2-25c-2-12-8.2-16-22.8-13.9
			c0.6-6,1.2-11.8,1.8-18c7.7-2.5,17-3.6,15.9-16.9c-0.4-4.7-4.3-11.6-7.8-12.9C680.4,365.6,675.7,373.5,673.2,384z"/>
		<path class="st15" d="M917.9,378.7c-4.4,0.9-8.8,2.3-13.3,2.4c-2.2,0.1-4.5-2.1-6.5-3.7c-3.8-2.9-7.9-9.4-11-8.6
			c-4.5,1.2-9.3,6.5-11.9,11.7c-2.6,5.4-2.7,12.8-3.7,18.4c7.6-2.1,14.8-6.3,21.6-5.3c6.6,1,13.9,6,18.6,12
			c11.1,14.1,11.6,31.9,5.8,49.5c-5.4,16.3-15.9,23.9-30,24.1c-15.5,0.2-26.4-9.1-31.7-26.5c-8.2-27.1-7.9-54.9,0.7-81.8
			c5.9-18.6,22-28.5,37.9-25.3C907.3,348.1,915.7,359.8,917.9,378.7z M900.8,437.1c0.2-13-4.8-21.1-13.3-21.5
			c-8.3-0.4-14.1,7.3-14.2,19c-0.1,12.8,5.8,21.6,14.5,21.7C895.6,456.5,900.6,449,900.8,437.1z"/>
		<path class="st17" d="M937.8,111.1c0.3,1.3,0.6,2.6,0.8,3.9c-0.8-0.6-1.6-1.1-2.5-1.7C936.7,112.6,937.2,111.8,937.8,111.1z"/>
		<path class="st22" d="M612.6,119.4c-2.3,3.1-4,5.5-5.8,7.8c-1.1-2.3-3.3-4.9-3-6.9c0.4-3,2.6-5.6,4.1-8.4
			C609.2,114.1,610.5,116.1,612.6,119.4z"/>
		<path class="st17" d="M622.7,102.9c5.3-1.5,5.2,3,5.1,7.3C624.5,109.5,620.7,109.3,622.7,102.9z"/>
		<path class="st17" d="M868.1,114.6c0-1.7,0.1-3.5,0.1-5.2C868.1,111.1,868.1,112.8,868.1,114.6z"/>
		<path class="st28" d="M638.2,112.5c-0.6,4.7-1.3,9.4-1.9,14.2c-1.5-0.4-4.5-0.9-4.4-1.2c0.3-4.7,0.9-9.3,1.4-14
			C635,111.8,636.6,112.1,638.2,112.5z"/>
		<path class="st25" d="M990.6,111.2c1,2.6,2.9,5.3,2.8,7.9c-0.1,2.8-2,5.5-3.2,8.2c-1.6-2.2-4.4-4.2-4.6-6.5
			c-0.3-3,1.5-6.2,2.5-9.4C988.9,111.3,989.7,111.3,990.6,111.2z"/>
		<path class="st25" d="M795.5,128.2c-1.2-2.6-3.4-5.3-3.2-7.6c0.3-3,2.6-5.7,4-8.6c1.4,2.1,3.7,4.1,3.9,6.3
			c0.2,3.1-1.3,6.3-2.1,9.5C797.2,127.9,796.4,128.1,795.5,128.2z"/>
		<path class="st28" d="M1459.1,90.8c0.8,38.8,2.8,33.1-23.4,33.6c-7.2,0.1-14.5-0.1-21.7,0c-6.5,0.1-9.3-3.5-8.9-11.7
			c0.3-6.6,0.1-13.3,0.1-22.2c7.6,6.8,14.1,12.1,20,18.2c4.9,5.1,8.9,5.9,14,0.3C1445,102.7,1451.7,97.5,1459.1,90.8z"/>
		<path class="st27" d="M1458.9,82.3c-8.2,7.4-16.3,14.8-24.5,22c-1,0.8-3.2,0.8-4.1,0c-8.3-7.2-16.4-14.6-24.1-24.2
			c17.5-3.3,34.6-3,51.6-2.3C1458.1,79.3,1458.5,80.8,1458.9,82.3z"/>
		<path class="st27" d="M1203.6,118.6c0-13.2,0-23.1,0-36.3c5.8,3,12.6,3.8,14.4,8c2.3,5.3,2.3,14.5,0,19.8
			C1216.2,114.5,1209.5,115.5,1203.6,118.6z"/>
		<path class="st28" d="M1318.4,105.8c3.8-4.3,6.3-7,8.8-9.8c1.8,3.3,5.1,6.9,4.9,10c-0.3,3.6-3.8,6.8-5.9,10.1
			C1324.1,113.3,1321.9,110.4,1318.4,105.8z"/>
		<path class="st28" d="M1361,105.4c-4,4.9-6.5,7.9-8.9,10.8c-2.3-3.2-6.3-6.4-6.4-9.7c-0.1-3.4,3.7-7,5.8-10.5
			C1354.1,98.5,1356.7,101.1,1361,105.4z"/>
		<path class="st28" d="M1118.1,410.8c-1.1,7.7,1.5,19.2-7.5,19c-8.5-0.2-7.3-11.4-7.3-18.9c0-7.5-1-18.8,7.5-18.7
			C1119.7,392.3,1117,403.8,1118.1,410.8z"/>
		<path class="st22" d="M1403.1,411.8c2.8-2.3,5.5-6.2,8.4-6.5c2.3-0.2,4.8,4.1,7.3,6.4c-0.4,0.9-0.8,1.8-1.2,2.7
			c-4.3,0-8.5,0-12.8,0C1404.2,413.6,1403.7,412.7,1403.1,411.8z"/>
		<path class="st22" d="M1296.6,414.6c-4.3,0-8.6,0-12.9,0c-0.5-0.7-1.1-1.5-1.6-2.2c2.5-2.5,4.9-7,7.3-6.9c2.8,0,5.5,4.1,8.3,6.4
			C1297.4,412.8,1297,413.7,1296.6,414.6z"/>
		<path class="st15" d="M403.4,445.6c6.1-1.1,11.8-2,17.4-3c-0.3,1.2-0.6,2.4-0.9,3.7c5.6,3.2,11.9,10.4,16.7,9
			c12-3.5,11.3-18.3,13.2-31.9c-2,1.2-3.2,1.8-4.3,2.6c-13.2,9.6-26.6,7.1-36.6-7.6c-10.2-15.2-10.8-32.6-4.6-50
			c5.9-16.5,17.2-23.7,31.6-23c15,0.7,25.2,10.6,30.1,27.8c7.4,26.1,7.1,52.8-0.5,78.7c-5.6,19.1-21.1,29.5-38,27.2
			C414.6,477.2,406,465.6,403.4,445.6z M447.8,389.5c0-12.6-6-21.5-14.6-21.5c-7.6,0-12.7,7.8-12.8,19.4
			c-0.1,12.7,5.2,21.1,13.5,21.3C442.2,409,447.8,401.2,447.8,389.5z"/>
		<path class="st23" d="M453.6,99.4c0-13.7,0.3-27.5-0.3-41.1c-0.1-1.9-4.2-4.8-6.6-4.9c-9.2-0.6-18.5-0.2-27.7-0.2
			c0,0.3-0.2-0.7,0.1-1c4-4.6,31.7-6.4,35.6-1.7c1.9,2.3,3.1,6.4,3.3,9.8c0.4,9,0.2,18.1,0.2,27.1c0,20.9-6.4,29-22.9,29
			c-23.7,0-23.8,4.1-23.5-29.4c0-1.1-0.1-2.3,0-3.4c1-8.7-3.5-19.9,6-25c9.4-5.1,23.6-0.4,30.2,9.8c1.9,2.9,2.9,7.3,3.2,11.1
			c0.5,6.6,0.1,13.3,0.1,20C452.2,99.5,452.9,99.5,453.6,99.4z M447.6,76.3c-3.7-2.1-8.1-3-8.7-5.3c-3.3-13.8-11.9-6.2-18.1-7.4
			c-1.1-0.2-4,4.2-4.1,6.6c-0.4,11.3-0.6,22.6,0.1,33.9c0.1,2.7,3.4,7,5.5,7.3c25.1,3.7,25.6,3.1,25.3-28.3
			C447.5,80.9,447.6,78.7,447.6,76.3z"/>
		<path class="st10" d="M900.8,437.1c-0.2,11.9-5.2,19.3-12.9,19.2c-8.7-0.1-14.6-8.9-14.5-21.7c0-11.6,5.8-19.4,14.2-19
			C896,416.1,901,424.2,900.8,437.1z"/>
		<path class="st10" d="M447.8,389.5c0,11.7-5.6,19.5-13.9,19.2c-8.2-0.2-13.5-8.7-13.5-21.3c0.1-11.6,5.1-19.4,12.8-19.4
			C441.8,368,447.8,376.9,447.8,389.5z"/>
		<path class="st25" d="M447.6,76.3c0,2.3,0,4.6,0,6.8c0.3,31.4-0.1,32-25.3,28.3c-2.1-0.3-5.4-4.6-5.5-7.3
			c-0.6-11.3-0.5-22.6-0.1-33.9c0.1-2.4,3-6.9,4.1-6.6c6.2,1.2,14.9-6.3,18.1,7.4C439.4,73.4,443.9,74.2,447.6,76.3z M443.1,90.4
			c0-0.7,0-1.3-0.1-2c-7.4,0-14.9,0-22.3,0c0,0.7,0.1,1.3,0.1,2C428.3,90.4,435.7,90.4,443.1,90.4z M443.2,102.3
			c-0.1-0.8-0.1-1.6-0.2-2.4c-7.4,0-14.8,0-22.2,0c0,0.8,0.1,1.6,0.1,2.4C428.3,102.3,435.7,102.3,443.2,102.3z"/>
		<path class="st10" d="M443.1,90.4c-7.4,0-14.9,0-22.3,0c0-0.7-0.1-1.3-0.1-2c7.4,0,14.9,0,22.3,0
			C443.1,89.1,443.1,89.8,443.1,90.4z"/>
		<path class="st24" d="M443.2,102.3c-7.4,0-14.9,0-22.3,0c0-0.8-0.1-1.6-0.1-2.4c7.4,0,14.8,0,22.2,0
			C443,100.7,443.1,101.5,443.2,102.3z"/>
	</g>
</g>
</svg>
