<svg xmlns="http://www.w3.org/2000/svg" xml:space="preserve" id="Ebene_1" x="0" y="0" viewBox="0 0 1920 1080"><style>.st0{fill:#e4f6fd}.st1{fill:#5af0f7}.st2{fill:#fefefe}.st4{fill:#8fd1c4}.st5{fill:#251c21}.st6{fill:#dde6e4}.st7{fill:#e6dfd0}.st8{fill:#1b1724}.st9{fill:#19131c}.st10{fill:#fcfdfc}.st11{fill:#93cabf}.st12{fill:#292627}.st13{fill:#100d13}.st14{fill:#261b18}.st15{fill:#6492d4}.st17{fill:#50597c}.st22{fill:#656d87}.st23{fill:#e8e9ed}.st24{fill:#ecefec}.st25{fill:#5f6886}.st26{fill:#efeff2}.st27{fill:#545e7e}.st28{fill:#5a6382}</style><path d="M207.5 1080h-52.8V640.9H1789V1080H313.1c-.2-2.7-.4-5.5-.5-8.2-2.9-8.2-7.8-5.1-11.9-4.5-.8 4.9-1.5 8.8-2.1 12.7h-61.9c.6-3.8 1.2-7.6 1.9-11.3.9-.3 1.8-.6 2.7-1-.1-.5-.2-.9-.2-1.4-1.4.2-2.9.4-4.3.6-.6 4.4-1.2 8.7-1.8 13.1h-18.2c.2-1.5.3-2.9.5-4.4 1.3-2.2 2.5-4.4 3.8-6.6-.7-.6-1.5-1.2-2.2-1.8-.8 1.8-1.6 3.5-2.4 5.3-2-.8-3.9-1.7-6.5-2.8-.9 3.3-1.7 6.8-2.5 10.3m187.2-72.2c.9.4 1.7.7 2.6 1.1-.7-.7-1.3-1.4-2-2.1V996c-4.6 5-4.6 5-.6 11.8m-145.8-3.2.9 7.2c.4-.1.8-.1 1.3-.2v-18.7c-.7.5-1.5.9-2.2 1.4-.5-.3-1.1-.7-1.5-1.1-1-.5-2.1-.9-3.1-1.4-.1 1.3-.1 2.6-.2 3.9v7.3c.2 1.5.3 3 .5 4.5.9-.6 1.9-1.1 2.8-1.7q.75-.75 1.5-1.2m36.9 3h6.7v-24.5c-4.3 3.7-9.8 3.9-6 12.6 1.2 2.8-.6 7.6-1 11.5-1-.1-1.9-.1-2.9-.2.1.6.3 1.2.4 1.8 1-.5 1.9-.9 2.8-1.2m88.9-79.8c.7.1 1.4.3 2.1.4 7.2 6.6 8.7 6.4 12.6-2h-7.7c1.2-2.4 2.6-2.5 4-2.7 1.6-.2 3.3-.6 5-.9-3.2-12.3-5.9-13.4-14-6.1-1.2-.5-2.3-1-3.5-1.5-8.3-5.2-10.6-3.8-12.8 7.3-4.7-6.2-8.5-14.8-17.7-8.4 1 6-2.4 13.4 3.5 20.5 1.2-7.3 2.1-12.5 2.9-17.7.9.1 1.7.2 2.6.3.8 5.4 1.6 10.8 2.6 18.1 2.9-5.9 4.5-9.3 6.1-12.6 2.3 12 6.5 13.6 14.3 5.3m344.2 4.2c1.1-1.8 2.7-3.3 3.3-5.3 1-3.2 1.3-6.7 1.9-10.1l2.7.3c.7 5.3 1.3 10.6 2.2 17.6 7-16.1 3.7-22-10.1-21.7-2.6 1.3-5.1 2.8-7.7 3.6-1 .3-2.4-1-3.6-1.6-1.1-.8-2.2-1.5-3.3-2.3-1.9 1.5-3.8 3-5.8 4.4-.8-1.6-1.7-3.1-2.5-4.7-.8 1.8-1.7 3.7-2.5 5.5-4.9-4-9.7-8-14.6-12-7.2-4.4-9.9 4.7-14.7 7.5-12-1.7-18 3.7-13.8 13 2.5 5.4 9 8 13.7 11.9.4-7.1.7-14.2 1.1-21.3.7 0 1.3 0 2-.1l2.4 16.2c.8-.1 1.6-.2 2.4-.2.8-5.6 1.6-11.2 2.3-16.8.5.1 1.1.2 1.6.3.9 5.3 1.9 10.7 2.8 16 12.6.6 12.6.6 14.4-14.9 2.2 5.4 4.4 10.7 7.8 19.2 1.6-6.6 2.4-9.5 3.1-12.5 1.2 2.5 2.5 5 3.7 7.5 4.5-.3 4.5-.3 7-12.3.8 1.2 2.1 2.1 2.5 3.5 1 3.1 1.3 6.3 1.7 9.3m-479.5 61.8c-1.3-3.5-2.6-7.1-3.9-10.6-.8-.2-1.7-.4-2.5-.6-2.5 8.6-4.9 17.3-7.4 25.9l2.6 2.6c2.9-1.9 5.7-3.8 8.6-5.7.8-3.9 1.7-7.7 2.6-11.6m863.5-76.8c-1.2-2.2-2.4-4.5-3.7-6.7-6-7.6-12.2-7-18.5-.5-1.3 2.5-2.6 5.1-3.9 7.6l-1.5 3.6c-6-13.3-15.9-7.3-25.4-8.7.4 7.6.7 14 1.1 20.4.8 0 1.7.1 2.5.1 1.1-5.3 2.1-10.6 3.2-15.8.6.2 1.2.4 1.9.6.5 5.1 1.1 10.2 1.6 15.4.8 0 1.7.1 2.5.1.9-5.3 1.8-10.6 2.7-16 .8.1 1.6.3 2.4.4.3 4.9.7 9.8 1.1 16.1 2.7-2.2 4.6-3.7 6.4-5.2 1.4 2.8 2.7 5.6 4.1 8.3 9.7 8.1 15.4 7.4 22.9-2.8-2.2-1.1-4.4-2.1-6.6-3.2 1.2-.9 2.5-1.8 3.7-2.7l3.3-1.8c4.6 7 9.3 10.5 15.4-.1h-9.4V924c2.9-.2 5.8-.5 8.8-.7-1.6-12.7-5.1-14.1-14.6-6.3m-493.2 1.7c.5.3 1 .6 1.4 1 .2.2.3.7.2.9-1.2 3-2.5 6-3.8 9 2.6.6 5.2 1.3 7.8 1.9 1.6.4 3.3.7 4.9 1 .7-21.3-.6-23.4-10.8-17.9-7.7.2-2.5-5.2-2.2-11.8-3.7 3.3-6.1 5.4-8.5 7.6-1.7 1.6-3.3 3.3-5 5-2.9-.8-7.6-3.3-8.5-2-5.9 8.9-9.4.3-13.7-2.1 2.4-1.1 4.8-2.2 7.2-3.2-.1-.7-.3-1.4-.4-2.1H568c-.8 5-1.6 9.7-2.5 14.6 9.7-1.7 9.7-1.7 7.6 7.3-2.3-1.6-4.5-3.1-8.4-5.7 2.1 9.4 5.8 13.4 10.7 9.2 4.3-3.8 6.4-1.9 10.2.2 2.5 1.4 6.5-1.4 9.8-2.3-.3-1.2-.5-2.4-.8-3.6-2.4.7-4.8 1.5-8 2.4v-10.4h8.2c1.3 1.4 3.4 2.6 3.9 4.4.8 3.4.7 7.1.9 10.7 1.1 0 2.1 0 3.2.1.3-3.7.7-7.3.7-11 .1-7.3 3.1-5.1 6.2-3.2m291.1 8.3c.6-3.9-5.9-6.5-1.5-11.2-2-1.2-4.1-3.5-6-3.4s-4.7 2.2-5.3 4.3c-.5 1.7 1.5 4.9 3 6.7 1.2 1.4 3.2 1.8 4.8 2.6-.2.6-.3 1.2-.5 1.8-2.6-.5-5.3-1-9.5-1.9 6.1 8.6 10.6 10.2 15 .9 2.1 2 4.1 3.9 6.6 6.3 1-5.8 2-11.2 3-16.5.8.2 1.7.4 2.5.5.7 5.3 1.5 10.6 2.2 15.9 1.2-.1 2.4-.3 3.5-.4-.3-5.7 1-12.8-1.3-16.7-2-3.5-8-3.3-10.9-4.3-2.3 6.3-4 10.9-5.6 15.4m-578.7-6.8c-5-11.2-8.1-11.5-14.9-1.5-5.4-4.3-10.8-8.6-17-13.5v29.9c6.3-3.3 11.6-6.1 16.9-8.9 6.3 10 10.1 9.6 14.9-1.5 4.8 5.8 9.7 11.3 18 6.4-.3-6-.6-12.5-.8-19-.9-.1-1.8-.1-2.7-.2-1.2 5.5-2.3 10.9-3.5 16.4-.8-.2-1.6-.3-2.3-.5-.8-5.3-1.6-10.7-2.5-16.9-2.7 4.2-4.4 6.7-6.1 9.3m425.9-7.4c-2.4.5-4.8 1-6.4 1.4-1.1-3.3-2.2-6.3-3.3-9.4-.7.3-1.5.6-2.2.8v26.6c.6.3 1.2.6 1.8 1 1.3-2.4 2.7-4.8 3.9-6.9 2.1 2.3 4.2 4.6 5.6 6 .3-6.7.5-12.5.8-18.4 6.6 7.5 8 17.1 4 25.1 2.7-.6 5.7-1.7 7-4.2 2.1-4 2.8-9 4.5-13.3.5-1.2 2.5-1.4 3.8-2 1.5 4.3 2.3 9.4 4.7 12.6.9 1.2 5.6-2.1 8.5-3.3-.2-.8-.5-1.6-.7-2.5-2.6.2-5.2.3-7.9.5 0-.9 0-1.7-.1-2.6 3.1-.5 6.1-1 9.6-1.5-1.7-9-4.4-14-11.8-8.2-2.2-.2-4.4-.4-7.8-.8-.7 1.5-2.2 4.9-2.5 5.5-4.2-2.4-7.9-4.4-11.5-6.4m111 7.4c-3-2.7-6.1-5.4-9.1-8-2.1 3.6-5.3 7-5.8 11-.3 2.7 2.6 7.8 5 9 4.8 2.3 8.7-.5 9.9-7.4 1.9 2.7 3.7 5.3 6.3 8.9 1.1-6.1 2.1-11.5 3.1-16.9.8.1 1.7.1 2.5.2.7 5.3 1.4 10.6 2 15.9 1 0 2.1-.1 3.1-.1 0-5.6 1.6-12.7-.5-16.4-2-3.5-7.9-3.5-10.5-4.5-2.8 3.8-4.4 6.1-6 8.3m96.5 11.4c1.3-1.6 3.2-2.9 3.8-4.8 1.1-3.1 1.4-6.7 2-10.1.8.1 1.6.2 2.5.3.6 5.3 1.3 10.6 1.9 15.9 1.1-.1 2.1-.1 3.2-.2 0-5.6 1.7-13.1-.5-16.2-2.3-3.3-8.5-2.4-12.9-3.3-.4 2.1-.8 4.2-1 4.7-4.2-1.8-8.3-4.7-12.2-4.6-1.6.1-4.3 7-4.1 10.6.1 3 3.3 7.2 5.8 8.2 2.1.8 5.1-2.2 7.8-3.5-.3-.8-.5-1.6-.8-2.4-2.5.2-5 .3-7.6.5 0-.9-.1-1.7-.1-2.6 3.6-.5 7.3-1.1 11.2-1.7.4 3.3.7 6.3 1 9.2m-134.6-18.5c-.8 5-1.6 10.1-2.4 15.1l-2.7-.6c-.6-5.3-1.2-10.6-2.1-18.6-6.2 13.9-4.5 21.2 3.4 23.3 2.5-.1 5-.3 7.4-.4.3-5.2.5-9.4.7-13.6.5-.1 1.1-.2 1.6-.3l6 15c.9.1 1.8.3 2.7.4 1.9-6.8 3.8-13.7 5.7-20.5-.8-.5-1.6-1-2.3-1.6-1.7 2.8-3.5 5.6-5.7 9.3-1.4-10.5-7.3-7.8-12.3-7.5m167.5 3.8c5.2 4.2.1 17.7 10.2 17.4-.1.3-.4.7-.3 1 .3 1.4.7 2.7 1 4 1.6-.7 4.6-1.4 4.5-2.1-.1-8.3-.6-16.5-1.1-24.8-.6.3-1.2.5-1.8.8-2.6-2-5.1-4-8.4-6.6-1.1 3-2.5 6.7-3.9 10.5-1.2-.8-2.3-2.3-3.5-2.4-3.5-.3-7.9-1.7-10.3.3-2 1.8-2.9 8.2-2 11.7.7 2.7 5.5 6.3 7.4 5.5 3-1.3 5.3-5.7 7.5-9.2.9-1.4.5-4 .7-6.1m150.9 2.5c1.4 4-3.9 10.8 3.4 12.2 5.1-10.7 9.4-.1 14.7 1 1.2-2.4 2.4-5.1 3.7-7.8 3.7 6.6 7.2 11.8 14.4 4.3 1.9-1.9 7.4 1.5 11.2 2.5.8.2 1.6.6 2 .8 1.5-2.8 2.7-5.1 4-7.5.4 1.5.9 3 1.3 4.5 3.8.7 7.7 2.3 11.4 1.6.9-.2 1.2-7.1 1.7-10.9.2-1.3.5-2.7.3-4-.5-3.3-.4-7.7-2.1-9.5-1.4-1.6-5.9-1.6-7.3 0-1.6 2-1.3 6.4-2 9.7-.6 2.8-1.4 5.5-2.2 8.2-.9-.2-1.9-.5-2.8-.7-.4-5.7-.7-11.3-1.1-17l-1.8-1.2c-3.7 5.4-7.5 10.7-10.6 15.2-3.5-3.4-6.6-6.2-9.8-9.4 2.8-1.3 5.3-2.4 7.7-3.4-.1-.7-.2-1.3-.3-2h-10.4c-.8 4.8-1.6 9.7-2.2 13.9 3.7.6 6.3 1 8.9 1.4-.4 2.2-.7 4.4-.9 5.4-4-.9-6.8-1.6-9.7-2.3-1.3-6.4-2.6-12.8-4.4-21.7-4.5 8.1-8.2 14.7-12.2 21.9-2.2-13-2.2-13-9.1-10.7-4.7-.6-9.4-1.3-14.7-2 .4 7.9.6 14.2.9 20.5.7 0 1.4.1 2.2.1 1-5.3 2.1-10.7 3.1-16 .7.2 1.5.3 2.2.5.7 5.2 1.4 10.5 2.2 15.7.6-.1 1.3-.2 1.9-.2.9-5.3 1.7-10.5 2.6-15.8 1.4 1 2.6 1.9 3.8 2.7M785 917.6l1.2 14.4c.6 0 1.2.1 1.8.1.6-5 1.3-10.1 1.9-15.1 7.6-1.3 8.3 1.3 4.3 13.8h13.1c-1.1-2.4-2.6-5.5-4.2-8.7 1.3-3.1 2.5-6.1 3.5-8.6h-16.4c1.5-3.4 2.2-5.3 3.2-7.5-8.3-.1-11.2 4.3-8.4 11.6m-344.3-7.3h8.6c-1.9 7.9-3.5 14.8-5.2 21.6l2.7 1.5c3.1-8.4 6.1-16.9 9.1-25 4.1 1.1 7 1.8 9.6 2.5-1.8 7.4-3.4 14.2-5 21 1 .5 1.9.9 2.9 1.4.9-2.4 1.6-4.9 2.7-7.1 2.4-4.8 4.9-9.5 7.4-14.2.4 1.4.7 2.7 1.1 4.1l4.2 16.2c3.8-1.7 7.7-3.4 11.5-5.1-.2.6-.3 1.1-.5 1.7 4 .6 8 1.2 12.1 1.9 0-7.7 0-15.5.1-23.2-4.5 1-9 2.1-14.5 3.4-4.1-8.4-6.1-8.6-14.1 1.2-1.2-2.2-2.4-6.3-3.7-6.4-8.3-.6-16.6-.5-24.9-.1-1.3.1-2.5 3.1-3.8 4.8-1.1-.9-2.2-1.6-3.2-2.6-4.7-4.2-12.2-1.7-10.3 4.3 2.2-.4 4.5-.7 5.3-.9.8 6.1 1.5 11.1 2.3 17.2-3.5-2.2-5.7-3.7-8-5.1-.6 1.2-1.1 2.4-1.7 3.7l9.3 5.7c1.5-4.1 3.3-8.2 4.5-12.4.9-3.4 1-6.8 1.5-10.1m904.3 19.1h5.4c4.3 5.5 9.3 5 12-1 1.5-3.4.6-10.5-1.5-13.6-3.4-5.3-8-3.3-11.3 1.9-.7 1.1-1.9 1.7-2.8 2.5l-1.8-3.3c-3.7-5.9-7.3-5.3-10.9.2V929c3.5 5.3 7.1 5.8 10.9.4m-118.4 2.9c1.6 2.8 3.3 5.7 6.2 10.8.9-7.5 1.4-11.2 1.6-13.4 6.1 1.2 11.6 2.3 17.8 3.6-.4-8.6-.7-14.9-1-21.2-.9-.1-1.8-.2-2.6-.3-1.2 5.5-2.4 11-3.5 16.5-.9-.2-1.8-.3-2.7-.5-.4-5-.8-9.9-1.2-14.9h-12.8c-5.4-2.2-8.3 1-9 7.2-.6 6.4.3 12.3 7.2 12.2m54.7 0c4.7-1.1 9.3-2.2 15.7-3.7 4.5 6.7 10.7 5.6 16.9-2.7 1.6 6.8 5.2 7.8 9.3 6-1.1-4.5-2.6-8.3-2.9-12.3-.4-4.4.3-8.9.6-13.9-3.9 3.7-6.3 6.1-8.8 8.4-5.6.3-11.3.6-16.9.9.1.8.3 1.5.4 2.3-2.9-1.6-5.9-3.3-8.8-4.9-1.2-1.9-2.4-3.9-3.6-5.8-.6-.3-1.2-.6-1.8-1-5.5 1-9.2 3.7-8.2 12 .5 3.7.1 7.5.1 11.3 2.2 1 5.1 2.2 8 3.4M173 664.8V774c3.2.7 6.3 2 9.5 2 526.3.1 1052.5.1 1578.8 0 3.2 0 6.3-1.3 9.5-2V664.8c-3.1-.7-6.3-2-9.4-2-526.3-.1-1052.6-.1-1578.8 0-3.3.1-6.5 1.4-9.6 2m1426.3 213.3c.4 4.8.6 6.6.7 8.5.6 11.5 2.4 12.7 10.3 6.6 6.7-5.2 13.3-10.6 19.9-15.7 5.6-4.4 5.3-8.4-.1-12.6-5.7-4.4-11.2-8.9-16.9-13.3-11.2-8.8-12.2-8.2-14 8.2-17 8-22.6 17.8-20.7 34.2 6.3-4.9 12.9-10 20.8-15.9m-80.2 16.1c1.3-17.2-3.7-25.8-21-34.9-1.3-15.8-2.7-16.6-14.1-7.6-4.6 3.6-9.2 7.3-13.8 10.9-9.6 7.7-9.6 9.3-.3 16.8 4.8 3.9 9.8 7.4 14.5 11.6 11 9.7 14.5 6.4 13.3-8.3 0-.5.6-1.2 2-3.8 6.6 5.2 13.2 10.4 19.4 15.3m226.8-6.9c-4.6-6-8.3-10.9-12.2-16.1 4.3-5.6 8.2-10.7 12.5-16.4-2.5-2.6-4.4-4.6-6.4-6.7-4.5 5.3-8.4 9.9-12.7 15-4.4-5.2-8.5-10-13.1-15.4-2.1 2.9-3.7 5.2-7.4 10.3 5.1 4.6 9.8 8.7 15.8 14-5.5 5.8-9.6 10.2-14.7 15.6 2.3 3 4 5.2 5.8 7.8 5.3-6.2 9.4-11 13.7-16 4.6 5.5 8.7 10.3 13 15.5 2.2-2.9 3.7-5 5.7-7.6M245.7 912.1c.3 7.6.5 14.2.8 20.7l2.7.3c1-5.4 1.9-10.7 2.9-16.1.7.2 1.4.3 2.1.5.6 5.1 1.1 10.3 1.7 15.4.8 0 1.7.1 2.5.1.9-5.3 1.8-10.6 2.8-16 .7.1 1.4.3 2.1.4l1.8 15.3c1.1 0 2.3.1 3.4.1 0-5.4.4-10.9-.2-16.2-.2-1.7-2.8-4.2-4.4-4.4-5.8-.5-11.5-.1-18.2-.1m306.2 1 2-2c-2.5-1.9-5-5.5-7.4-5.3-2.2.2-5.1 3.9-6.1 6.9-1.1 3.2-.9 7.5-.6 11.2.3 2.7 1.2 6.4 2.8 7.4 2 1.3 5.4 1.2 7.4-.1 1.6-1 2.8-4.6 3-7.2.3-3.6-.7-7.3-1.1-10.9m-307 11.2c-.1-1.6-.1-3.3-.2-4.9-3.4-2.4-6.9-7.1-10.1-6.6-2.7.4-6.7 6.6-6.6 10.1.1 3.4 4.7 9.2 7.3 9.2 3.3 0 6.4-5 9.6-7.8m804.4 0c0-1.6-.1-3.3-.1-4.9-3.4-2.4-7-7.1-10.1-6.7-2.7.4-6.7 6.6-6.6 10.1.1 3.4 4.7 9.2 7.3 9.2 3.1.1 6.3-4.9 9.5-7.7m318.1 8.1c.7.1 1.5.2 2.2.3 1-5.3 2-10.6 2.9-15.9l2.4.6c.6 5.1 1.2 10.2 1.7 15.3.6.1 1.2.1 1.9.2 1-5.4 2.1-10.7 3.1-16.1.7.1 1.4.2 2.2.3.7 5.3 1.5 10.5 2.2 15.8.9-.1 1.8-.2 2.7-.4 0-5.3.4-10.7-.2-16-.2-1.7-2.8-4-4.5-4.1-5.6-.5-11.3-.2-16.6-.2zm-735.1 5.4c8.4 1.5 13.5-8.5 14.2-28.7-2.9 5.8-4.6 9.2-6.4 12.7-2.2-3.6-4.2-7-6.4-10.6-3.7 10 8.6 17-1.4 26.6m-419.5-17.4c0-.9.1-1.7.1-2.6-3-.8-6-1.5-9-2.3-.2-1-.5-2-.7-2.9 3.6-1.4 7.3-2.9 10.9-4.3-.1-.7-.2-1.3-.3-2h-15.1c1.2 8.8-1.6 18.1 1.7 26.4.8 0 1.7 0 2.5-.1.5-3.4 1-6.8 1.5-10.6 2.7-.5 5.6-1 8.4-1.6m181.2 5.5c-.4 1.4-.7 2.9-1 4.3 3.7.4 7.9 2.5 11 .9 4-2.1 4.2-6.8-.3-10-.3-.2-.7-1.4-.6-1.5 6-6.1.1-7.1-2.5-7.2-2.4-.1-4.8 2.8-7.2 4.4 1.8 2.3 3.6 4.6 5.4 6.8.9 1.1 2.1 2 5.2 5-5.1-1.3-7.5-2-10-2.7m114.9 5.8c1.1.5 2.1 1 3.2 1.5 2.9-8.9 5.9-17.8 9.3-28.1-5.6.3-10 .6-14.8.9.7 2.2.7 2.7.9 2.8 2.4.8 4.8 1.5 6.8 2.1-1.8 7-3.6 13.9-5.4 20.8m512.1-14.4c3.2.5 5.7.9 9.2 1.4-3.9-7.8-8.7-9.7-12.1-3.4-1.9 3.4-1.5 11.3.5 14.7 3.1 5.2 7.9 4 10.9-2.2.2-.3-.3-1.1-.6-2.2-2.4.7-4.8 1.4-7.9 2.3zm-487.5-8.4c-.9 6.3-1.9 12.5-2.8 18.8-2.4-1.6-4.5-3.1-6.7-4.5-.5 1.3-1.1 2.7-1.6 4 3.2 1.8 7.3 6 9.6 4.9 10.2-5.3 1.3-15.4 1.5-23.2m730.2 25.4c6.5-8.3 5.9-25.5 0-28.7zm-849.9-20.7c2 .5 4 .9 6 1.4-2.8 2.4-5.7 4.8-8.5 7.2.4-2.4.9-4.8 1.3-7.3 2 3.4 4 6.9 5.9 10.3l-4.8-.6c2.4-3.3 4.8-6.5 7.2-9.8l-.9 8.4c-2-3.1-4.1-6.3-6.2-9.6m-147.7 79.8c3.6 5.7 6.9 10.8 10.5 16.4v-18.4c-3.2.6-6.4 1.2-10.5 2m617.6-80.9c-.8-.1-1.7-.2-2.5-.2v20.2h2.5zm-483.3 83.3c2.9.8 4 1.5 4.4 1.2.9-.9 1.4-2.4 2.1-3.6-1.5.5-3 1.1-6.5 2.4m-174.1 75.6v2.2c.8.2 1.8.8 2.3.4.9-.7 1.5-2 2.2-3-1.5.2-3 .3-4.5.4" class="st0"/><path d="M1920-10.7V1080h-129.2c0-143.1-.1-286.2.2-429.3 0-10.6-2.4-13.1-10.7-13.1-103.6.3-207.3.2-310.9.2-50 0-100-.1-150-.2V468.2c3.6-.1 7.3-.4 10.9-.4h250.1c12.5 0 15.6-3.8 15.6-19.3v-74.8c0-15.5-3.1-19.3-15.6-19.3h-165.5c-33 0-66.1-.2-99.1-.4-3-2.1-5.9-6-9-6.1-13.3-.7-26.7-.2-40-.3-10.1-.1-12.8-3.5-12.8-16.3-.1-28 0-55.9 0-83.9 0-19.4-4.2-24.5-20.1-24.5-53.7 0-107.3-.1-161 .1-7.4 0-10.4-2.7-10.2-12.3.5-15.5.1-31 .1-46.5 17.9-.1 35.7-.3 53.6-.4 12.5-.1 15.5-3.9 15.5-19.4V20.9c0-17-2.8-20.4-16.5-20.4-50.3-.1-100.6-.2-150.9-.4v-10.6c3.9-.1 7.9-.4 11.8-.4 314.6.2 629.1.2 943.7.2m-579.7 174.6h185.5c12.5 0 15.7-3.8 15.7-19.2V20.1c0-15.5-3.1-19.4-15.5-19.4h-369.2c-12.5 0-15.6 3.8-15.7 19.2v123.5c0 17.1 2.8 20.5 16.4 20.5z" class="st1"/><path d="M1920-10.7H976.3c-3.9 0-7.9.2-11.8.4-2.4-.1-4.8-.3-7.3-.3H494.9c-2.4 0-4.8.2-7.2.4-3.3-.1-6.6-.4-10-.4H113.6c-3.3 0-6.6.2-10 .4-34.4-.3-69-.4-103.6-.5V-174h1920z" class="st2"/><path d="M0-10.7c34.6.1 69.2.2 103.7.4 0 34.4.2 68.7-.1 103.1-.1 10.8 3.4 14.7 11.9 14.6 26.7-.4 53.3-.2 80-.1 12 0 15.6 4.6 15.6 19.7.1 27.2.4 54.4-.3 81.5-.2 6.3-3.8 12.6-6 18.7-2.1 5.9-6.2 11.6-6.2 17.5-.4 67.9-.3 135.9-.3 203.9 0 12.8 2.9 16.3 13.5 17 12.6.8 17.4 6.9 17.4 22.6v149.5h-76.4v442.4H-.1C0 716.4 0 352.9 0-10.7" style="fill:#4deff7"/><path d="M152.9 1080V637.6h76.4c3.6.1 7.3.2 10.9.2h430.6c33 0 66-.1 99-.2 3.9.1 7.9.2 11.8.2h411.5c42.1 0 84.2-.1 126.3-.2 50 .1 100 .2 150 .2 103.6 0 207.3.1 310.9-.2 8.2 0 10.7 2.6 10.7 13.1-.3 143.1-.2 286.2-.2 429.3h-1.8V640.9H154.7V1080z" class="st4"/><path d="M298.5 1080c.7-3.9 1.3-7.7 2.1-12.7 4.1-.6 9-3.7 11.9 4.5-.5.2-1 .6-1.3 1.3-.6 0-1.2.1-1.8.1-1.2-1.5-2.3-2.9-3.5-4.4-1.3 3.7-2.5 7.4-3.8 11.1-1.2.1-2.4.1-3.6.1" class="st5"/><path d="M302.1 1080c1.3-3.7 2.5-7.4 3.8-11.1 1.2 1.5 2.3 2.9 3.5 4.4v6.8c-2.4-.1-4.9-.1-7.3-.1" class="st6"/><path d="M217.1 1075.6c-.2 1.5-.3 2.9-.5 4.4h-9.1c.8-3.5 1.6-7 2.3-10.3 2.6 1.1 4.5 1.9 6.5 2.8.3 1 .5 2.1.8 3.1" class="st7"/><path d="M234.8 1080c.6-4.4 1.2-8.7 1.8-13.1.6.6 1.2 1.2 1.8 1.7-.6 3.8-1.2 7.6-1.9 11.3-.5.1-1.1.1-1.7.1" class="st8"/><path d="M311.2 1073.1c.3-.7.8-1.2 1.3-1.3.2 2.7.4 5.5.5 8.2h-1.8z" class="st6"/><path d="M311.2 1073.1v6.9h-1.8v-6.8c.6 0 1.2 0 1.8-.1" class="st9"/><path d="M173 774.1V664.9c3 .1 6.1.2 9.1.2h1579.5c3 0 6.1-.1 9.1-.2v109.2c-4.2-.1-8.5-.2-12.7-.2H685.1c-.4-5.6-.7-10-.9-14.5-3.8-1.9-7.4-3.6-10.9-5.4-.5 5.4-1 10.9-1.6 16.3 0 .4-.5.8-1.7 2.6 2-16.4-5.6-9.3-10.6-8.6-.1-.6-.2-1.2-.5-1.7-.6-.9-1.2-1.8-1.8-2.8-.6 1.6-1.3 3.2-1.9 4.8-.7-.6-1.4-1.3-2.1-1.9-.9-1.3-1.8-3.8-2.7-3.8-3.4.1-6.8 1-11 1.8-.2 2.8-.5 7.1-.8 11.4h-33.3c-.9-4-1.9-8.5-3.3-14.9-8.4 10.3-15.5 21.5-27.7 15.1-.4-4.9-.8-9.4-1.2-14-1.2 0-2.4.1-3.6.1-.5 4.7-1.1 9.4-1.7 14.8-2.2-1.5-3.7-2.6-5.2-3.7v-6.9c-.2-1.5-.4-4.4-.6-4.4-2.2-.1-4.5.3-6.8.6-.4-.7-.9-.9-1.6-.7-.7 1.7-1.5 3.4-2.2 5.1-1.9.4-3.8.8-5.8 1.2-4.1-.6-8.2-1.3-12.3-1.9l-4.5 9c-1.5-1.5-3.1-3-5.9-5.7 1 4.2 1.3 5.9 2.2 9.9-10.6-8.6-27.1 7.5-31.4-15.6-3.4-1.5-7-3-10.5-4.5-1 1.5-1.9 3-2.8 4.5-1.3-.1-2.7-.2-4-.3.1 1.7-.2 3.8.6 4.9.5.7 2.4 0 3.7-.1.8 2.3 1.6 4.6 2.3 6.4-9 6.2-13.9 1.6-16.9-8.4-.6-1.5-1.1-3-1.7-4.6-.6.1-1.3.2-1.9.3l-3.6 5.7c.4-1.1.8-2.3 1.2-3.4-8.8 2.1-18.3 5.5-19.4-9.5-1.7 7-3.4 14-5.1 21.1-1-.7-2.5-1.7-4-2.7-.1-2.4-.2-4.8-.3-7.1h-1.6v11.1c-1.2-1.3-2.5-2.7-3.7-4 .4-9-2.6-12.7-8.6-10.4 1.1 5 2.2 9.7 3.2 14.3-3.3-4-6.6-8-10.1-12.3-5.9 5.7-8.3 7-11.3 5.5-.7-1.8-1.5-3.5-2.2-5.3-3-1.1-6-2.2-8.9-3.3-.6-2.1-1.3-4.2-1.9-6.4-.5 7.3-1 14.7-1.5 22-.7-.1-1.4-.2-2.1-.2v-10.6h-2v6.4c-1.8 1.4-3.5 2.8-5.3 4.2v-14.8c-2 .5-3.7 1-5.4 1.4-3.2.7-6.4 1.5-9.5 2.2l-1.8 11.1c-3.8-4.6-7.7-9.2-13.1-15.7 1.8 6.8 2.8 10.7 4.2 16.2-59.8.3-118.2.3-176.7.3M660.7 731c1.3-.2 2.6-.5 3.9-.7l-.3-1.5c-1.3.6-2.6 1.2-3.8 1.8-.2.4-.4.8-.7 1.2.3-.3.6-.5.9-.8m-67-10.1c-.7.1-1.5.2-2.2.3-2.9-2-6.3-6.4-8.4-5.5-8.5 3.4-1.5 13.9-5.7 19.8l2.5 2.5c3.9-4.6 7.7-9.1 11.6-13.7 1.2.3 2.3.5 3.5.8.2 3.3.3 6.6.5 9.9.3 0 .6 0 .9-.1l.6-11.4c-1.1-.8-2.2-1.7-3.3-2.6m-220.8 11.7c-1.6.6-3.2 1.2-4.7 1.8l-2.7-5.1v-3.8c-.4-1.9-.7-3.8-1.1-5.8-1.4 1-2.8 2-4.3 3-.6-.5-1.2-1.1-1.8-1.6-1-.4-2.1-.9-3.1-1.3v10.6c.1 1.6.1 3.2.2 4.8 1-.5 1.9-1 2.9-1.6 3.3 1 6.6 1.9 9.9 3 2.1-1 4.2-2 6.2-3 .2-.8.4-1.5.5-2.3l1.3-1.3c.7 1.1 1.3 2.1 2 3.2.3.9.6 1.9.9 2.8l.6-.6c-.4-.9-.8-1.7-1.3-2.5v-13.3c-.5 0-1.1.1-1.6.1-.2 1.4-.4 2.9-.6 4.4-.5-.2-.9-.5-1.3-.8-.3-.6-.5-1.3-.5-2.1-.9-1-1.9-2-2.9-3 0 0-1 1.3-1 1.4.7.9 1.4 1.7 2.1 2.6.3 3.5.3 6.9.3 10.4m-80.1 11.8 2.4-.3c.4-10 1.5-20 1-29.9-.2-3-4.9-7.8-7.7-8-11.7-.9-23.5-.4-35.2-.3-1.4 0-3.1.1-4 1.1-4.7 5.6-5.1 29.5-.9 36.5.3.3.7.6 1 .9 7.9.7 15.7 2 23.6 2 6.6.1 13.2-1.2 19.8-2m955.3-18.8c2.6 5.1 4.4 8.6 6.9 13.7 2.4-4.8 4.3-8.5 6.4-12.7 1.4 3.7 2.4 6.5 3.4 9.3.4-.1.8-.3 1.2-.4v-22.9c-9.7-3.4-7.7 9-12.3 15.5-1.1-15.4-6.7-20.7-18.2-15 3 7.3 6.1 14.8 9.5 23.1 1-3.3 1.8-6 3.1-10.6M1040.3 736l1.8 2.4c4.3-4.8 8.6-9.5 12-13.4 2 4.3 3.9 8.5 5.8 12.7.5-.5.9-1 1.4-1.5v-23.6c-4.7.3-8.5.5-12.2.7.7.3 1.5.6 2.2.9-3.6 7.3-7.3 14.5-11 21.8m-493.9-4.4c-3.7-.5-5.8-.9-7.9-.9-.2 0-.7 3.7-.6 3.7 2.1.9 4.3 2.2 6.4 1.9 2.3-.4 6.2-2.4 6.2-3.8.3-6.9-.5-13.8-1-20.7-1 .1-2.1.1-3.1.2zm-16.7-.6c-3.4 0-5.7 0-8.1.2-.1 0-.3 3.7 0 3.8 2.1.8 4.5 1.9 6.5 1.4 2.2-.6 5.9-2.7 6-4.3.2-6.7-.7-13.5-1.2-20.2-1.1.1-2.1.3-3.2.4zm355.7 6.7c1.6-.1 3.1-.2 4.7-.3.7-6.2 1.3-12.3 2-18.8-4.3.3-6.9.5-10.3.8 1.3 6.5 2.5 12.4 3.6 18.3m-540.9-28.9v27c7.2-2.6 7.5-12.1 0-27m806.4 1.5c-8.8 9.1-8.3 20.6 0 26.6zm-345.2 26.9c.9-8.8 1.8-17.7 2.6-26.4-7.6 0-6.5 5.4-2.6 26.4m64.3-18.8c-2.6 18-2.6 18 7.9 17.4-2.8-6.3-5.4-11.9-7.9-17.4m150.2-7.5c-10.3 9.3-3 17.5 0 25.7zm136 25.6c7.3-9.7 6.9-19.3 0-23.6zm-89.2-.9c7.2-6.6 7.2-15.8 0-23.5zm160.5.2c.6 0 1.1 0 1.7-.1v-21.9c-.6 0-1.1.1-1.7.1zm-687.2-24.4c-.9.6-1.7 1.1-2.6 1.7.9 1.9 1.8 3.8 2.7 5.8.6-.4 1.3-.8 1.9-1.2-.7-2.2-1.4-4.2-2-6.3m-15.9.1c-1 .3-1.9.6-2.9.9.6 2.1 1.3 4.2 1.9 6.3.7-.2 1.4-.5 2.1-.7-.3-2.2-.7-4.3-1.1-6.5m105 10.5c-.4.1-.8.1-1.1.2v10.5h1.1zm-32.8-8.5c-.1-.7-.3-1.3-.4-2-.5.2-1.4.4-1.4.7-.1.7.3 1.5.5 2.2.4-.2.8-.6 1.3-.9m57.2 20.5c.3 0 .7-.1 1-.1-.1-1.2-.1-2.4-.2-3.5-.3 0-.6 0-.9.1 0 1.1 0 2.3.1 3.5" class="st10"/><path d="M173 774.1h176.4c-1.4-5.5-2.5-9.4-4.2-16.2 5.4 6.5 9.2 11.1 13.1 15.7l2.1.3c.7-.9 1.5-1.8 2.2-2.7l1.5.3c1.8-.6 3.7-1.3 5.5-1.9 1.8 1.3 3.6 2.6 5.5 4 1.8-1.4 3.5-2.8 5.3-4.2.7 1.4 1.3 2.8 2 4.2.7.1 1.4.2 2.1.2.5-.1 1.1-.3 1.6-.6l.8.4.9-.2c2.3-.2 4.6-.5 6.9-.7l2.1 1.2c.8-2.3 1.6-4.7 2.4-7 3 1.5 5.4.2 11.3-5.5 3.5 4.3 6.8 8.3 10.1 12.3l5.4-3.9c1.2 1.3 2.5 2.7 3.7 4.1.7-1.4 1.3-2.7 2-4.1 1.5 1 2.9 2 4 2.7 1.7-7.2 3.4-14.1 5.1-21.1v19.3h25.4v-7.9c3 10.1 7.9 14.6 16.9 8.4-.6-1.8-1.4-4.1-2.3-6.4-.1-1.5-.1-3-.2-4.5.9-1.5 1.9-2.9 2.8-4.5l10.5 4.5c4.3 23 20.8 7 31.4 15.6-.9-4-1.3-5.7-2.2-9.9 2.8 2.7 4.4 4.2 5.9 5.7.8.5 1.7 1 2.5 1.6 5-2.3 11.9.3 14.3-8.7 1.9-.4 3.8-.8 5.8-1.2 0 .7-.1 1.3-.2 2l-.3 5.4c.9 1.1 1.8 2.1 2.6 3.2.5 0 1 0 1.5-.2.6.1 1.3.1 1.9.2 1.9-1.4 3.7-2.8 5.6-4.3 1.5 1.1 3 2.1 5.2 3.7.6-5.4 1.1-10.1 1.7-14.8 1.2 0 2.4-.1 3.6-.1.4 4.6.8 9.2 1.2 14 12.2 6.4 19.3-4.7 27.7-15.1 1.4 6.4 2.4 10.9 3.3 14.9h33.3c.3-4.3.6-8.7.8-11.4 4.2-.8 7.6-1.7 11-1.8.9 0 1.8 2.4 2.7 3.8-.7 3.4-1.3 6.8-2 10.2 3-.5 5.3-.9 7.8-1.3.1-2.1.3-4.7.5-7.3 5-.7 12.6-7.8 10.6 8.6 1.2-1.8 1.6-2.2 1.7-2.6.6-5.4 1.1-10.9 1.6-16.3 3.6 1.8 7.2 3.5 10.9 5.4.3 4.5.6 8.9.9 14.5h1072.9c4.2 0 8.5.1 12.7.2-3.2.7-6.3 2-9.5 2-526.3.1-1052.5.1-1578.8 0-3.2-.3-6.4-1.5-9.5-2.2" class="st11"/><path d="M1770.7 664.8c-3 .1-6.1.2-9.1.2H182.1c-3 0-6.1-.1-9.1-.2 3.1-.7 6.3-2 9.4-2 526.3-.1 1052.6-.1 1578.8 0 3.2.1 6.4 1.4 9.5 2" class="st4"/><path d="M1599.3 878.1c-7.8 6-14.5 11-20.7 15.8-2-16.3 3.7-26.1 20.7-34.2 1.8-16.4 2.8-17 14-8.2 5.6 4.4 11.2 9 16.9 13.3 5.4 4.2 5.7 8.2.1 12.6-6.7 5.2-13.2 10.6-19.9 15.7-7.9 6.1-9.7 4.9-10.3-6.6-.2-1.8-.4-3.6-.8-8.4m-80.2 16.1c-6.3-4.9-12.9-10.1-19.4-15.3-1.4 2.6-2 3.2-2 3.8 1.2 14.7-2.4 18-13.3 8.3-4.7-4.2-9.7-7.7-14.5-11.6-9.3-7.4-9.2-9.1.3-16.8 4.6-3.7 9.2-7.3 13.8-10.9 11.3-9 12.8-8.2 14.1 7.6 17.3 9.1 22.3 17.7 21 34.9" class="st12"/><path d="M1745.9 887.3c-1.9 2.6-3.5 4.7-5.6 7.6-4.4-5.2-8.4-10-13-15.5-4.3 5-8.4 9.8-13.7 16-1.9-2.5-3.6-4.8-5.8-7.8 5.1-5.4 9.2-9.8 14.7-15.6-6-5.3-10.6-9.4-15.8-14 3.7-5.1 5.4-7.4 7.4-10.3 4.6 5.4 8.7 10.2 13.1 15.4 4.3-5 8.2-9.6 12.7-15 2 2.1 3.9 4.1 6.4 6.7-4.4 5.7-8.3 10.8-12.5 16.4 3.8 5.2 7.5 10.1 12.1 16.1" class="st13"/><path d="M1161.1 924.6c2.8.7 5.7 1.3 9.7 2.3.2-1 .5-3.2.9-5.4-2.6-.4-5.2-.8-8.9-1.4.7-4.2 1.5-9.1 2.2-13.9h10.4c.1.7.2 1.3.3 2-2.4 1.1-4.9 2.2-7.7 3.4 3.3 3.1 6.3 6 9.8 9.4 3.1-4.5 6.9-9.9 10.6-15.2v15.4h1.8v-14.1c.4 5.7.7 11.3 1.1 17 .9.2 1.9.5 2.8.7.7-2.7 1.6-5.5 2.2-8.2.7-3.3.3-7.7 2-9.7 1.3-1.6 5.8-1.6 7.3 0 1.7 1.9 1.6 6.2 2.1 9.5.2 1.3-.1 2.7-.3 4-.5 3.8-.8 10.7-1.7 10.9-3.7.6-7.6-.9-11.4-1.6-.4-1.5-.9-3-1.3-4.5-1.3 2.4-2.5 4.7-4 7.5-.4-.2-1.2-.6-2-.8-3.8-1-9.3-4.5-11.2-2.5-7.2 7.5-10.6 2.3-14.4-4.3-.3-.2-.3-.5-.3-.5M473.3 912c8-9.8 9.9-9.6 14.1-1.2 5.5-1.3 10-2.3 14.5-3.4 0 7.7 0 15.5-.1 23.2-4-.6-8-1.2-12.1-1.9.2-.6.3-1.1.5-1.7-3.8 1.7-7.7 3.4-11.5 5.1l-4.2-16.2c-.4-1.4-.7-2.7-1.1-4.1 0 .1-.1.2-.1.2m840.5 14c-6.2 8.3-12.4 9.4-16.9 2.7-6.3 1.5-11 2.6-15.7 3.7v-26.7c.6.3 1.2.6 1.8 1 1.2 1.9 2.4 3.9 3.6 5.8 2.9 1.6 5.9 3.3 8.8 4.9-.1-.8-.3-1.5-.4-2.3 5.6-.3 11.3-.6 16.9-.9.7 3.9 1.3 7.9 1.9 11.8m-26.6-3.9c1.4.7 2.3 1.4 2.4 1.2.5-.9.9-1.9 1.3-2.9-1 .5-2 1-3.7 1.7m-692.3-4.4h-8.1v10.4c3.1-1 5.6-1.7 8-2.4.3 1.2.5 2.4.8 3.6-3.3.9-7.3 3.7-9.8 2.3-3.8-2.1-5.8-4-10.2-.2-4.9 4.3-8.7.3-10.7-9.2 3.8 2.6 6.1 4.1 8.4 5.7 2.1-9 2.1-9-7.6-7.3.8-5 1.6-9.7 2.5-14.6h10.3c.1.7.3 1.4.4 2.1-2.4 1.1-4.8 2.2-7.2 3.2 4.3 2.4 7.9 11 13.7 2.1.9-1.3 5.5 1.2 8.4 2 .4.8.7 1.6 1.1 2.3" class="st9"/><path d="M1228.6 912.9h12.8c.4 5 .8 9.9 1.2 14.9.9.2 1.8.3 2.7.5 1.2-5.5 2.4-11 3.5-16.5.9.1 1.8.2 2.6.3.3 6.3.6 12.6 1 21.2-6.3-1.3-11.7-2.3-17.8-3.6-.3 2.2-.7 5.9-1.6 13.4-3-5.1-4.6-7.9-6.2-10.8 0-1.4.1-2.7.1-4.1.2-.2.4-.4.6-.7-.1-.2-.3-.3-.4-.5-.2.3-.4.5-.5.8 1.2-4.3 2.3-8.5 3.6-13.4.2.3-.7-.6-1.6-1.5m3 15.6c-.1-.3-.1-.7-.3-.9-.1-.1-.6.1-.6.2 0 .3.1.7.2.9.1.1.5-.1.7-.2" class="st14"/><path d="M1346.7 919.1c1-.8 2.1-1.4 2.8-2.5 3.4-5.2 7.9-7.2 11.3-1.9 2.1 3.1 2.9 10.2 1.5 13.6-2.6 6.1-7.6 6.6-12 1-1.4-1.4-2.7-2.9-4.1-4.3-.4 1.5-.9 2.9-1.3 4.4-3.8 5.5-7.5 4.9-11-.5V916c3.6-5.5 7.2-6.1 10.9-.2.8 1.1 1.3 2.2 1.9 3.3m-3.9-2.7c-3.1 2.6-4.9 4-6.7 5.5 1 1.4 1.9 3.1 3.1 4.1.8.7 2 .6 3.6 1z" class="st9"/><path d="m1075.4 921 1.5-3.6c2.7-.9 5.4-1.9 10-3.5-3.8-2.5-5-3.3-6.1-4.1 6.3-6.5 12.5-7 18.5.5-1.9 2.6-3.8 5.2-5 6.9 2.1 4.4 3.7 7.6 5.2 10.8-1.2.9-2.5 1.8-3.7 2.7-3.1-6.5-7.3-7.1-12.5-3.6.8 3.2 1.5 5.9 2 7.7-2.2.7-4 1.3-5.7 1.8-1.4-2.8-2.7-5.6-4.1-8.3-.1-2.4-.1-4.9-.1-7.3" class="st14"/><path d="M440.9 910.3c1.3-1.7 2.5-4.7 3.8-4.8 8.3-.4 16.6-.5 24.9.1 1.3.1 2.5 4.1 3.7 6.3l.1-.1c-2.5 4.7-5 9.4-7.4 14.2-1.1 2.2-1.8 4.8-2.7 7.1-1-.5-1.9-.9-2.9-1.4 1.6-6.8 3.3-13.6 5-21-2.6-.7-5.5-1.4-9.6-2.5-3 8.2-6 16.6-9.1 25l-2.7-1.5c1.6-6.8 3.3-13.7 5.2-21.6h-8.6z" class="st8"/><path d="M1075.4 921v7.3c-1.8 1.5-3.7 3-6.4 5.2-.4-6.2-.8-11.2-1.1-16.1-.8-.1-1.6-.3-2.4-.4-.9 5.3-1.8 10.6-2.7 16-.8 0-1.7-.1-2.5-.1-.5-5.1-1.1-10.2-1.6-15.4-.6-.2-1.2-.4-1.9-.6-1.1 5.3-2.1 10.6-3.2 15.8-.8 0-1.7-.1-2.5-.1-.3-6.4-.7-12.8-1.1-20.4 9.5 1.5 19.3-4.5 25.4 8.8m-829.7-8.9c6.6 0 12.4-.3 18.1.2 1.6.2 4.2 2.6 4.4 4.4.6 5.3.2 10.8.2 16.2-1.1 0-2.3-.1-3.4-.1l-1.8-15.3c-.7-.1-1.4-.3-2.1-.4-.9 5.3-1.8 10.6-2.8 16-.8 0-1.7-.1-2.5-.1-.6-5.1-1.1-10.3-1.7-15.4-.7-.2-1.4-.3-2.1-.5-1 5.4-1.9 10.7-2.9 16.1l-2.7-.3c-.2-6.7-.4-13.2-.7-20.8" class="st12"/><path d="M307.2 926.1c-5.3 2.8-10.6 5.6-16.9 8.9v-29.9c6.1 4.9 11.5 9.2 17 13.5-.1 2.6-.1 5-.1 7.5m480.8 6.1c-.6 0-1.2-.1-1.8-.1l-1.2-14.4c-2.8-7.3.1-11.8 8.4-11.6-.9 2.2-1.7 4.1-3.2 7.5h16.4c-1 2.5-2.3 5.5-3.5 8.6 1.5 3.2 3 6.4 4.2 8.7h-13.1c4-12.5 3.4-15.1-4.3-13.8-.6 5-1.2 10-1.9 15.1" class="st5"/><path d="M1161.1 924.6v.2c-1.3 2.7-2.5 5.3-3.7 7.8-5.2-1.1-9.5-11.7-14.7-1-1.1-4.1-2.3-8.1-3.4-12.2-1.2-.9-2.4-1.7-3.6-2.6-.1-.9-.2-1.8-.3-2.8 6.9-2.3 6.9-2.3 9.1 10.7 4-7.2 7.7-13.8 12.2-21.9 1.8 9 3.1 15.4 4.4 21.8m-158.4-12.1c.4 8.3 1 16.5 1.1 24.8 0 .7-3 1.4-4.5 2.1-.3-1.3-.7-2.7-1-4-.1-.3.2-.7.3-1-10.1.3-5-13.2-10.2-17.4l.2.2c1.4-3.7 2.8-7.5 3.9-10.5 3.3 2.6 5.9 4.6 8.4 6.6v19h1.8zm-5.5 15.8c.9-.3 1.7-.5 2.6-.8v-11.3h-2.6z" class="st8"/><path d="M551.9 913.1c.4 3.6 1.4 7.3 1.2 10.9-.2 2.6-1.4 6.2-3 7.2-2.1 1.3-5.4 1.4-7.4.1-1.6-1-2.6-4.7-2.8-7.4-.4-3.7-.6-8 .6-11.2 1.1-3 3.9-6.7 6.1-6.9 2.4-.2 4.9 3.4 7.4 5.3-.8.7-1.4 1.3-2.1 2" class="st13"/><path d="M820.9 913.1c5.1-.3 10.9-3.1 12.5 7.6 2.3-3.7 4-6.5 5.7-9.3.8.5 1.6 1 2.3 1.6-1.9 6.8-3.8 13.7-5.7 20.5-.9-.1-1.8-.3-2.7-.4l-6-15c-.5.1-1.1.2-1.6.3-.2 4.2-.5 8.5-.7 13.6-2.4.1-4.9.3-7.4.4 2.7-2.3 6.4-3.5 3.9-9.6-1.2-2.6-.3-6.4-.3-9.7" class="st12"/><path d="M664.2 938.1c-4.7-3.9-11.2-6.4-13.7-11.9-4.3-9.3 1.8-14.7 13.8-13-.1 8.3-.1 16.6-.1 24.9" class="st13"/><path d="M678.9 905.7c4.9 4 9.7 8 14.6 12l-.2-.4c-1.8 15.5-1.8 15.5-14.4 14.9z" class="st8"/><path d="M678.9 905.7v26.5c-.9-5.3-1.9-10.7-2.8-16-.5-.1-1.1-.2-1.6-.3-.8 5.6-1.6 11.2-2.3 16.8-.8.1-1.6.2-2.4.2l-2.4-16.2c-.7 0-1.3 0-2 .1-.4 7.1-.7 14.2-1.1 21.3 0-8.3 0-16.6.1-24.9 4.6-2.7 7.3-11.9 14.5-7.5" class="st12"/><path d="M955.5 931.6c-.3-2.9-.6-5.9-1-9-3.9.6-7.6 1.1-11.2 1.7 0 .9.1 1.7.1 2.6 2.5-.2 5-.3 7.6-.5.3.8.5 1.6.8 2.4-2.6 1.3-5.7 4.4-7.8 3.5-2.5-1-5.7-5.2-5.8-8.2-.1-3.7 2.5-10.6 4.1-10.6 4-.2 8 2.8 12.2 4.6.1-.5.5-2.6 1-4.7z" class="st9"/><path d="M859 920.2c1.6-2.2 3.2-4.4 6.1-8.4 2.6.9 8.5 1 10.5 4.5 2.1 3.8.5 10.8.5 16.4-1 0-2.1.1-3.1.1-.7-5.3-1.4-10.6-2-15.9-.8-.1-1.7-.1-2.5-.2-1 5.4-2 10.8-3.1 16.9-2.5-3.6-4.4-6.2-6.3-8.9-.1-1.5-.1-3-.1-4.5" class="st8"/><path d="M244.9 924.3c-3.2 2.8-6.4 7.8-9.5 7.8-2.6 0-7.3-5.8-7.3-9.2-.1-3.5 4-9.8 6.6-10.1 3.1-.4 6.7 4.2 10.1 6.6 0 1.6.1 3.3.1 4.9m743.5-7.4c-.2 2.1.2 4.7-.7 6.1-2.1 3.5-4.5 7.9-7.5 9.2-1.9.8-6.7-2.7-7.4-5.5-.9-3.4 0-9.9 2-11.7 2.3-2.1 6.8-.7 10.3-.3 1.2.1 2.3 1.6 3.5 2.4zm60.9 7.4c-3.2 2.8-6.4 7.8-9.5 7.7-2.6 0-7.3-5.8-7.3-9.2-.1-3.5 4-9.8 6.6-10.1 3.1-.4 6.7 4.2 10.1 6.7 0 1.6.1 3.3.1 4.9" class="st14"/><path d="M767.5 919.6c-1.3.7-3.3.9-3.8 2-1.7 4.3-2.4 9.3-4.5 13.3-1.3 2.5-4.3 3.6-7 4.2 4-7.9 2.5-17.6-4-25.1-.1-.4-.1-.8-.2-1.2 3.6 2 7.3 4 11.6 6.4.3-.6 1.8-3.9 2.5-5.5 3.4.3 5.6.6 7.8.8-.9 1.7-1.6 3.4-2.4 5.1" class="st5"/><path d="M859 920.2v4.5c-1.1 6.9-5 9.7-9.9 7.4-2.4-1.1-5.3-6.2-5-9 .5-3.9 3.7-7.3 5.8-11 3.1 2.7 6.1 5.4 9.1 8.1" class="st9"/><path d="M322.1 920.2c1.7-2.5 3.4-5.1 6.2-9.3.9 6.2 1.7 11.6 2.5 16.9.8.2 1.6.3 2.3.5 1.2-5.5 2.3-10.9 3.5-16.4.9.1 1.8.1 2.7.2.3 6.5.6 12.9.8 19-8.3 4.9-13.2-.6-18-6.3zm578.7 6.8c1.7-4.6 3.4-9.1 5.6-15.4 2.9 1 8.9.8 10.9 4.3 2.3 3.9 1 11 1.3 16.7-1.2.1-2.4.3-3.5.4-.7-5.3-1.5-10.6-2.2-15.9-.8-.2-1.7-.4-2.5-.5-1 5.4-1.9 10.7-3 16.5-2.4-2.3-4.5-4.3-6.6-6.3z" class="st8"/><path d="M1367.4 932.4v-20.2c5.3 0 11-.3 16.6.2 1.6.1 4.3 2.4 4.5 4.1.6 5.2.2 10.6.2 16-.9.1-1.8.2-2.7.4-.7-5.3-1.5-10.5-2.2-15.8-.7-.1-1.4-.2-2.2-.3-1 5.4-2.1 10.7-3.1 16.1-.6-.1-1.2-.1-1.9-.2-.6-5.1-1.2-10.2-1.7-15.3l-2.4-.6c-1 5.3-2 10.6-2.9 15.9-.8-.1-1.5-.2-2.2-.3" class="st13"/><path d="M632.3 937.8c9.9-9.6-2.3-16.6 1.4-26.6 2.2 3.6 4.3 7 6.4 10.6 1.7-3.5 3.5-6.9 6.4-12.7-.7 20.1-5.7 30.2-14.2 28.7" class="st5"/><path d="M360.5 922.4c-1.6 3.4-3.3 6.7-6.1 12.6-1.1-7.4-1.8-12.7-2.6-18.1-.9-.1-1.7-.2-2.6-.3-.9 5.2-1.7 10.5-2.9 17.7-5.9-7.1-2.4-14.5-3.5-20.5 9.1-6.3 13 2.4 17.7 8.6 0-.1 0 0 0 0m920.8-16.7v26.7c-2.9-1.2-5.8-2.4-8.1-3.4 0-3.8.4-7.7-.1-11.3-1.1-8.3 2.7-11 8.2-12" class="st14"/><path d="M748 912.8c0 .4.1.8.2 1.2-.2 5.8-.5 11.6-.8 18.4-1.4-1.5-3.5-3.8-5.6-6-1.2 2.1-2.6 4.5-3.9 6.9-.6-.3-1.2-.6-1.8-1v-26.6c.7-.3 1.5-.6 2.2-.8 1.1 3.1 2.1 6.1 3.3 9.4 1.7-.5 4-1 6.4-1.5" class="st12"/><path d="m693.3 917.3.2.4c.8-1.8 1.7-3.7 2.5-5.5.8 1.6 1.7 3.1 2.5 4.7l.9 3.3c1.6-2.6 3.3-5.1 4.9-7.7 1.1.8 2.2 1.5 3.3 2.3-.9 10 5.2 2.1 7.3 4.5-2.5 11.9-2.5 11.9-7 12.3-1.2-2.5-2.5-5-3.7-7.5-.7 2.9-1.5 5.9-3.1 12.5-3.4-8.5-5.6-13.9-7.8-19.3" class="st5"/><path d="M322.1 920.2v4.5c-4.9 11.1-8.6 11.5-14.9 1.5v-7.5c6.8-10 9.9-9.7 14.9 1.5m287.3-5.6c10.2-5.4 11.5-3.4 10.8 17.9-1.7-.3-3.3-.6-4.9-1-2.6-.6-5.2-1.3-7.8-1.9 1.3-3 2.6-6 3.8-9 .1-.2 0-.8-.2-.9-.4-.4-.9-.7-1.4-1-.1-1.4-.2-2.7-.3-4.1" class="st9"/><path d="M440.7 910.3c-.5 3.3-.7 6.8-1.6 9.9-1.2 4.3-3 8.3-4.5 12.4l-9.3-5.7c.6-1.2 1.1-2.4 1.7-3.7 2.3 1.5 4.5 2.9 8 5.1-.8-6.1-1.5-11.1-2.3-17.2-.8.1-3.1.5-5.3.9-1.9-6 5.6-8.5 10.3-4.3 1 .9 2.1 1.7 3.2 2.6z" class="st8"/><path d="M1102.9 917c9.5-7.8 13.1-6.4 14.6 6.2-3 .2-5.9.5-8.8.7v2.1h9.4c-6.1 10.6-10.8 7.1-15.4.1v-7.2c0-.6.1-1.3.2-1.9" class="st13"/><path d="M955.5 931.6v-18.4c4.5.9 10.6 0 12.9 3.3 2.2 3.1.5 10.6.5 16.2-1.1.1-2.1.1-3.2.2-.6-5.3-1.3-10.6-1.9-15.9-.8-.1-1.6-.2-2.5-.3-.6 3.4-.9 6.9-2 10.1-.6 1.9-2.5 3.2-3.8 4.8" class="st8"/><path d="M1079.5 936.7c1.8-.6 3.5-1.1 5.7-1.8-.5-1.8-1.2-4.5-2-7.7 5.3-3.5 9.4-2.9 12.5 3.6 2.2 1.1 4.4 2.1 6.6 3.2-7.4 10.1-13.1 10.8-22.8 2.7" class="st13"/><path d="M212.8 920.4c-2.8.6-5.6 1.1-8.3 1.7-.5 3.7-1 7.1-1.5 10.6-.8 0-1.7 0-2.5.1-3.3-8.3-.4-17.6-1.7-26.4h15.1c.1.7.2 1.3.3 2-3.6 1.4-7.3 2.9-10.9 4.3.2 1 .5 2 .7 2.9 3 .8 6 1.5 9 2.3-.2.8-.2 1.6-.2 2.5" class="st5"/><path d="M767.5 919.6c.8-1.7 1.6-3.3 2.4-5 7.4-5.8 10.1-.8 11.8 8.2-3.5.6-6.5 1-9.6 1.5 0 .9 0 1.7.1 2.6 2.6-.2 5.2-.3 7.9-.5.2.8.5 1.6.7 2.5-2.9 1.2-7.6 4.5-8.5 3.3-2.5-3.2-3.4-8.3-4.8-12.6" class="st9"/><path d="M376.8 916.6c8.1-7.2 10.8-6.2 14 6.1-1.7.3-3.4.6-5 .9-1.4.2-2.8.3-4 2.7h7.7c-3.9 8.4-5.4 8.6-12.6 2-.1-3.9-.1-7.8-.1-11.7m524 10.4v-.2c-4.4 9.2-8.9 7.7-15-.9 4.2.8 6.9 1.4 9.5 1.9.2-.6.3-1.2.5-1.8-1.6-.8-3.6-1.2-4.8-2.6-1.5-1.8-3.4-5-3-6.7.6-2 3.4-4.2 5.3-4.3 2-.1 4 2.2 6 3.4-4.4 4.8 2 7.3 1.5 11.2" class="st13"/><path d="M236.7 1005.4c-2.9 1.9-5.7 3.8-8.6 5.7l-2.6-2.6c2.5-8.6 4.9-17.3 7.4-25.9.8.2 1.7.4 2.5.6 1.3 3.5 2.6 7.1 3.9 10.6-.8 3.9-1.7 7.7-2.6 11.6" class="st6"/><path d="M394 925.9c2.4.7 4.9 1.4 9.9 2.8-3.1-3-4.2-3.8-5.2-5-1.9-2.2-3.6-4.5-5.4-6.8 2.4-1.6 4.8-4.5 7.2-4.4 2.6.1 8.5 1.1 2.5 7.2-.1.1.3 1.2.6 1.5 4.6 3.2 4.4 7.9.3 10-3 1.6-7.3-.5-11-.9.4-1.6.8-3 1.1-4.4" class="st9"/><path d="M609.4 914.6c.1 1.4.2 2.7.2 4.1-3-1.9-6.1-4-6.1 3.3 0 3.7-.5 7.3-.7 11-1.1 0-2.1 0-3.2-.1-.3-3.6-.1-7.4-.9-10.7-.4-1.8-2.5-2.9-3.9-4.4-.4-.8-.7-1.6-1.1-2.3 1.7-1.6 3.3-3.4 5-5 2.3-2.2 4.7-4.3 8.5-7.6-.2 6.5-5.5 11.9 2.2 11.7" class="st12"/><path d="M1313.8 926c-.6-3.9-1.2-7.9-1.8-11.8 2.4-2.3 4.9-4.7 8.8-8.4-.3 5-.9 9.5-.6 13.9.3 4 1.8 7.8 2.9 12.3-4.1 1.8-7.7.8-9.3-6" class="st14"/><path d="M508.9 931.7c1.8-6.9 3.6-13.7 5.4-20.8-2-.6-4.4-1.3-6.8-2.1-.2-.1-.2-.6-.9-2.8 4.8-.3 9.1-.5 14.8-.9-3.4 10.3-6.4 19.2-9.3 28.1-1-.6-2.1-1.1-3.2-1.5" class="st9"/><path d="M1021 917.3v10.6c3.1-.9 5.5-1.6 7.9-2.3.3 1.1.7 1.8.6 2.2-3 6.2-7.8 7.4-10.9 2.2-2-3.4-2.3-11.3-.5-14.7 3.5-6.3 8.2-4.3 12.1 3.4-3.5-.5-6.1-.9-9.2-1.4" class="st5"/><path d="M718.9 912.8c13.8-.3 17.1 5.6 10.1 21.7-.9-7-1.6-12.3-2.2-17.6l-2.7-.3c-.6 3.4-.9 6.9-1.9 10.1-.6 2-2.2 3.6-3.3 5.3z" class="st13"/><path d="M533.5 908.9c-.2 7.8 8.7 17.8-1.6 23.2-2.2 1.2-6.3-3.1-9.6-4.9.5-1.3 1.1-2.7 1.6-4 2.2 1.5 4.3 2.9 6.7 4.5 1-6.2 1.9-12.5 2.9-18.8" class="st8"/><path d="M1135.4 914.1c.1.9.2 1.8.3 2.8-.9 5.3-1.7 10.5-2.6 15.8-.6.1-1.3.2-1.9.2-.7-5.2-1.4-10.5-2.2-15.7-.7-.2-1.5-.3-2.2-.5-1 5.3-2.1 10.7-3.1 16-.7 0-1.4-.1-2.2-.1-.3-6.3-.6-12.6-.9-20.5 5.4.7 10.1 1.4 14.8 2" class="st13"/><path d="M360.5 922.4s0-.1 0 0c2.2-11.2 4.5-12.5 12.8-7.4-.6 1.3-1.5 3.7-1.7 3.6-11-4.6-6.4 3.5-6.1 8.4 3.9.3 6.6.5 9.2.8-7.8 8.3-12 6.7-14.2-5.4" class="st9"/><path d="M820.9 913.1c0 3.3-.9 7.1.2 9.7 2.5 6.1-1.2 7.3-3.9 9.6-7.9-2.1-9.6-9.3-3.4-23.3.9 8 1.5 13.3 2.1 18.6l2.7.6c.7-5.1 1.5-10.1 2.3-15.2" class="st5"/><path d="M285.5 1007c.4-3.9 2.2-8.7 1-11.5-3.8-8.6 1.7-8.9 6-12.6v24.5h-6.7z" class="st6"/><path d="M1226.8 928.2c0 1.4-.1 2.7-.1 4.1-7 0-7.8-5.8-7.1-12.3.7-6.2 3.6-9.4 9-7.2.9.9 1.8 1.9 1.6 1.6-1.3 4.9-2.5 9.2-3.6 13.4-.1.1.2.4.2.4" class="st13"/><path d="M1263.7 934.3v-28.7c5.9 3.2 6.5 20.4 0 28.7" class="st12"/><path d="M374.7 927.8c-2.6-.2-5.3-.4-9.2-.8-.3-4.9-5-13 6.1-8.4.2.1 1.1-2.4 1.7-3.6 1.2.5 2.3 1 3.5 1.6v11.7c-.7-.2-1.4-.3-2.1-.5" class="st6"/><path d="M413.8 913.6c2.1 3.2 4.2 6.5 6.3 9.7l.9-8.4c-2.4 3.3-4.8 6.5-7.2 9.8l4.8.6c-2-3.4-4-6.9-5.9-10.3-.4 2.4-.9 4.8-1.3 7.3 2.8-2.4 5.7-4.8 8.5-7.2-2.1-.5-4.1-1-6.1-1.5" class="st13"/><path d="M266.1 993.4c4.1-.8 7.3-1.4 10.5-2v18.4c-3.5-5.5-6.8-10.7-10.5-16.4" class="st6"/><path d="M883.7 912.5v20h-2.5v-20.2c.8 0 1.7.1 2.5.2m-164.8.3v19.3c-.5-3.1-.8-6.2-1.6-9.2-.3-1.4-1.6-2.3-2.5-3.5-2.1-2.4-8.2 5.5-7.3-4.5 1.2.6 2.6 1.9 3.6 1.6 2.8-.9 5.3-2.5 7.8-3.7" class="st12"/><path d="M1102.7 921.3v4.8l-3.3 1.8c-1.6-3.2-3.1-6.4-5.2-10.8 1.2-1.7 3.1-4.3 5-6.9 1.2 2.2 2.4 4.5 3.7 6.7-.1.6-.1 1.2-.2 1.9-.2.2-.7.6-.6.7.1.7.4 1.3.6 1.8m-22-11.5c1.2.8 2.4 1.6 6.1 4.1-4.7 1.6-7.3 2.6-10 3.5 1.3-2.5 2.6-5.1 3.9-7.6" class="st8"/><path d="M1139.3 919.4c1.1 4.1 2.3 8.1 3.4 12.2-7.3-1.4-2-8.2-3.4-12.2" class="st13"/><path d="M247.4 1005.8c-.9.6-1.9 1.1-2.8 1.7-.2-1.5-.3-3-.5-4.5v-7.3c.1-1.3.1-2.6.2-3.9 1 .5 2.1.9 3.1 1.4z" class="st12"/><path d="M248.9 994.3c.7-.5 1.5-.9 2.2-1.4v18.7c-.4.1-.8.1-1.3.2l-.9-7.2c.1-3.4 0-6.8 0-10.3" class="st7"/><path d="M394.7 1007.8c-4-6.8-4-6.8.6-11.8v10.8c-.2.4-.4.7-.6 1" class="st6"/><path d="M1002.7 912.5v19.8h-1.8v-19c.7-.3 1.3-.5 1.8-.8m187.5-5.5v14.1h-1.8v-15.4c.6.4 1.2.8 1.8 1.3" class="st13"/><path d="M704.3 912.6c-1.6 2.6-3.3 5.1-4.9 7.7l-.9-3.3c2-1.5 3.9-2.9 5.8-4.4m80.7 5 1.2 14.4c-.4-4.7-.8-9.6-1.2-14.4m549-1.6v12.9q.15-6.45 0-12.9m-546 16.2c.6-5.1 1.3-10.1 1.9-15.2-.6 5.1-1.2 10.1-1.9 15.2" class="st12"/><path d="M217.1 1075.6c-.3-1-.5-2.1-.8-3.1.8-1.8 1.6-3.5 2.4-5.3.7.6 1.5 1.2 2.2 1.8-1.3 2.2-2.6 4.4-3.8 6.6" class="st6"/><path d="M704.2 924.1c1.2 2.5 2.5 5 3.7 7.5-1.2-2.5-2.4-5-3.7-7.5m640.8 5.3c.4-1.5.9-2.9 1.3-4.4 1.4 1.4 2.7 2.9 4.1 4.3-1.8 0-3.6 0-5.4.1" class="st12"/><path d="M400.4 995.8c3.5-1.3 5-1.9 6.4-2.4-.7 1.2-1.2 2.7-2.1 3.6-.3.3-1.4-.4-4.3-1.2m-174.1 75.6c1.5-.1 3-.3 4.5-.4-.7 1-1.3 2.3-2.2 3-.5.4-1.5-.2-2.3-.4z" class="st6"/><path d="M1286.7 912.5c-1.2-1.9-2.4-3.9-3.6-5.8 1.2 1.9 2.4 3.8 3.6 5.8" class="st14"/><path d="M236.7 1005.4c.9-3.9 1.7-7.7 2.6-11.6-.8 3.9-1.7 7.7-2.6 11.6" class="st15"/><path d="M248.9 994.3v10.3c-.5.3-1 .7-1.5 1.1v-12.6q.75.9 1.5 1.2" class="st1"/><path d="m1346.7 919.1-1.8-3.3c.7 1.1 1.2 2.2 1.8 3.3" class="st12"/><path d="M244.1 995.7v7.3zm41.7 11.9c-.9.4-1.8.7-2.7 1.1-.1-.6-.3-1.2-.4-1.8 1 .1 1.9.1 2.9.2-.1-.1.2.5.2.5" class="st6"/><path d="M238.4 1068.7c-.6-.6-1.2-1.2-1.8-1.7 1.4-.2 2.9-.4 4.3-.6.1.5.2.9.2 1.4-.8.2-1.7.6-2.7.9" class="st12"/><path d="M395.3 1006.8c.7.7 1.3 1.4 2 2.1-.9-.4-1.7-.7-2.6-1.1.2-.3.4-.6.6-1" class="st6"/><path d="M1319.4 637.6c-42.1.1-84.2.2-126.3.2H781.6c-3.9 0-7.9-.2-11.8-.2-.7-12.3-1.3-24.5-2-36.8 8.2-7.6 11.3-17.5 11.2-30.4-.2-103.6-.1-207.1-.1-310.7 0-22.4-8.1-32.4-26.2-32.4-42.5 0-84.9-.1-127.4.1-6 0-11.9 2-17.8 3.1-4.2-.3-8.4-.6-12.6-1-11.6-1-16.1-6.9-16.1-21.3v-44.1c2.4-.1 4.8-.4 7.2-.4h469.6c2.4 0 4.8.2 7.2.4 0 15.5.3 31-.1 46.5-.3 9.6 2.8 12.3 10.2 12.3 53.7-.3 107.3-.2 161-.1 15.9 0 20.1 5.1 20.1 24.5 0 28-.1 55.9 0 83.9 0 12.8 2.7 16.2 12.8 16.3 13.3.1 26.7-.4 40 .3 3.1.2 6 4 9 6.1-3.6.1-7.3.4-10.9.4h-248.1c-11.3 0-14 3.2-14 17.1-.1 26.4-.1 52.8 0 79.3 0 13.9 2.7 17 14 17h160.8c33.9 0 67.8.2 101.8.4zM793.5 415.1v156.4c0 22.3 8.1 32.3 26.3 32.3 43.3 0 86.7-.8 130 .4 15.1.4 26-15.4 25.9-32.3-.5-104.2-.2-208.5-.2-312.7 0-21-8.8-31.8-25.8-31.8h-130c-18.1 0-26.1 10-26.1 32.5-.1 51.7-.1 103.5-.1 155.2" style="fill:#56f0f8"/><path d="M1062.8 164.3c-2.4-.1-4.8-.4-7.2-.4H586c-2.4 0-4.8.2-7.2.4-29.6-.1-59.2-.2-88.9-.4-10.1-.1-13-3.5-13-15.9-.1-43.7 0-87.4-.1-131.1 0-9.7 2.6-15.9 11-16.6 2.1.1 4.2.4 6.3.4h464.1c2.1 0 4.2-.2 6.3-.3 50.3.1 100.6.2 150.9.4 13.7 0 16.5 3.5 16.5 20.4v123.5c0 15.5-3.1 19.3-15.5 19.4-17.8-.1-35.7 0-53.6.2m-81.9-38.9c2.3 1.5 4.4 3.8 6.8 4.4 5.2 1.3 9.6-1.7 9.2-8.2-.2-4.2-3.5-9.6-6.6-11.6-1.9-1.3-6 2.8-9.1 4.4-.5-1.1-1-2.3-1.6-3.4-.4.5-.8.9-1.1 1.4.9.7 1.8 1.3 2.7 2-.1 3.7-.1 7.5-.2 11.2-2.6.3-7.3 1.6-7.5.8-1.4-4.7-1.7-9.9-2.6-15.9-5 5.2-6 11.1-1.8 16.5 3.7 4.8 8.4 5.8 11.8-1.6m-191.4-.7c3.3 7.3 8.4 7.9 12.1 2.1 1.9-3.1 1.9-11.2 0-14.3-3.6-5.9-8.8-5.2-12.1 2.1-1.1-1.8-2.3-3.5-3.8-5.9-2.1 4.4-3.8 8-4.2 8.8-4.4-2.8-8.1-5.2-11.8-7.5-.8 3.1-1.5 6.2-2.6 9.2s-2.4 5.9-3.7 8.9l-3-1.2c0-4.4.2-8.9-.2-13.2-.1-1.1-2-2.1-3.1-3.1-3.2.7-6.4 1.5-11.1 2.6-3.2-2.3-8-5.8-13.5-9.8v26.1h2.3c.4-5.7.8-11.4 1.4-19.5 3.3 2.9 6.7 4.5 6.9 6.5.3 4.3-1 8.9-1.4 11.6 4.1.2 8.5.5 13 .8-1.5-3-3.1-6-5-9.6 1.7-2.3 3.4-4.6 5.8-7.9.6 4.9 1 8.1 1.5 11.3.9 11.9 8.1 5.7 12.7 6.8.8-5.3 1.7-10.6 2.6-16.6 2.6 6.5 4.9 12.1 8.1 19.9 2.7-7.2 4.5-11.7 6.5-17 1 3.5 1.8 6.2 2.6 8.9m78.5-15.2c.6-1.5 1.2-2.9 2-4.8-7.9 4.3-10.3 10.2-8 19.1 2.3 9.1 7.4 11.9 17.8 9-3.8-.8-7.1-.5-9.4-2.2-1.5-1.2-1.6-5.3-2.4-8 5.1 2.2 10.3 4.5 17 7.4-1.4-9.2-2.2-14.5-3.1-20.5zm-247.6 19.8c.5-3.4.3-7.2 1.6-10.2 1.3-3.1 3.8-5.4 5.8-8v18.7c3.4 0 6.7 1.2 8.5-.3 2.6-2.2 5.5-6.3 5.7-9.8.1-3.3-2.7-7.3-5-10.2-2.1-2.6-5.1-4.1-7.8-6.1l.9-3.6c-3.3.9-6.6 1.7-9.9 2.6-2.2 5.1-5 7.9-10.4 7.1-4.8-.7-9.8 1.3-14.7 2.1-1.3 2.5-2.6 5-4.1 7.9-2-4.4-3.5-7.6-4.9-10.8-.5.3-1.1.7-1.6 1 1.5 8.8 3 17.5 4.9 28.8 2.2-6.9 4-12.4 5.8-18 .9-1.4 1.7-2.8 2.6-4.2-2.3 16.1 12.9 10.4 16.7 20 .3-7.9.6-15.8 1-23.7.6 0 1.2.1 1.8.1.5 5.4 1.1 10.7 1.6 16.1.3.3.9.4 1.5.5m87.6-13c-.7.4-2 1.1-2.1 1.1-3.9-10.3-9.7-10.1-16.5-3.5-.7-5.1-1.4-9.2-2-13.4-.6.2-1.2.4-1.9.5v28.5l1.5.3c.9-2.1 1.9-4.1 2.6-5.9 3 2.3 5.7 4.3 8.4 6.4-5.9-12.9-5.9-12.9 1.8-18.7 1.5 8.5 2.9 16.4 4.5 25.5 2.8-6.6 8-11.9 3.6-21 9.6-4.4 3.4 12.8 10.6 11.8-1.8-12.8 8.2-3.7 10.7-8.8-2.3-10.6-5.2-12.2-12.5-7.4-2.7 1.9-5.8 3.1-8.7 4.6m212.9 3.5c5.4 12.9 9.4 14 17.3 4.5 1.6 1.3 3.1 2.6 5.4 4.5.3-6.2.6-11 .9-17.1 14 1.2 3 17.8 10.8 23.4v-23.5c-5.1-2.6-9.6-4.9-14.6-7.4-.6 1.3-1.8 4.1-3 7-.5.7-1.1 1.5-1.6 2.2-7.9-6.9-10.2-5.9-15.2 6.4-.7-12.8-7.4-11-14.9-9.1.2 6.4.5 12.6.7 18.8h1.8c1.2-6 2.4-11.9 3.6-17.9 1.1.2 2.1.5 3.2.7.6 5.8 1.3 11.7 1.9 17.5h2.6c.4-3.3.8-6.7 1.1-10M661 133.5c2-9.9 3.4-16.5 4.7-23.1-.7-.3-1.4-.7-2.1-1-1.5 3.2-2.9 6.3-4.5 9.8-1.7-3.6-3.2-6.8-4.6-9.8-2.7 4-4.7 6.9-6.9 10.1.6 1.8 1.6 4.7 2.2 6.5.5-1 2-3.8 4-7.7 2.4 4.8 4.1 8.4 7.2 15.2m242.9-5.6c-4.6-1.3-7.8-2.2-11.1-3.2.2-1.1.4-2.1.6-3.2 3.4-.5 6.8-1.1 10.6-1.6-.6-8.1-4-12.8-9.4-9.9-2.9 1.6-6.2 9.1-5.4 12.8 1.7 9 7.7 8.3 14.7 5.1m-225.1 2c1.1-.1 2.2-.3 3.2-.4-.5-5.8.4-12.8-1.9-17.1-1.7-3-7.6-2.4-12.8-3.7.4 8.5.7 14.7 1 20.8.6 0 1.1-.1 1.7-.1 1.3-5.9 2.6-11.8 3.8-17.7 1 .3 2 .5 3 .8.7 5.7 1.4 11.6 2 17.4m176.5 0c1.1-.1 2.2-.3 3.2-.4-.5-5.8.4-12.8-1.9-17.1-1.7-3-7.6-2.4-12.8-3.7.4 8.5.7 14.7 1 20.8.6 0 1.1-.1 1.7-.1 1.3-5.9 2.6-11.8 3.8-17.7 1 .3 2 .5 3 .8.8 5.7 1.4 11.6 2 17.4m-15.9-2.6c4.8-6 4.5-6.6-7-14.3 3.9-.4 6.5-.7 9-1-.1-1-.3-2-.4-2.9-3.5 1.1-7 2.1-10.5 3.2 1.8 2.9 3.7 5.8 5.5 8.7 1.3 2.1 2.3 4.2 3.4 6.3" class="st17"/><path d="M1340.3 163.9h-182.8c-13.7 0-16.4-3.5-16.4-20.5V19.9c0-15.4 3.1-19.2 15.7-19.2H1526c12.5 0 15.5 3.8 15.5 19.4v124.6c0 15.4-3.1 19.2-15.7 19.2zm92.4-32.5c6.6 0 13.3.3 19.9-.1 7.9-.4 12.3-5.5 12.4-15.6.1-10.2.1-20.3 0-30.5-.1-9.5-4.2-14.8-11.8-15-13.9-.3-27.8-.2-41.7 0-7.6.1-11.7 5.4-11.9 14.9-.2 10.2-.1 20.3 0 30.5 0 10.1 4.4 15.4 12.3 15.8 6.9.2 13.8 0 20.8 0m81.5-10c-.4-.9-.7-1.8-1.1-2.8 2.3-2.7 4.8-5.3 7-8.1 4.2-5.3 9.9-10 12.1-16.4 1.9-5.5 1.4-14.4-1-19.5-3.8-8.1-11.6-7.5-18.1-4.7-5.8 2.5-9.1 8.1-7.8 19.8 3.1-4 5.3-5.8 6.5-8.3 3.1-6.6 7.5-7.9 12.3-4.5 5.4 3.8 5 10.3 1.6 15.5-3.8 5.8-8.7 10.3-12.8 15.9-3.8 5.3-7.2 11.1-10.7 16.7.6.9 1.2 1.9 1.8 2.8 10.3-1.2 21 2.4 30.9-2.1l-.3-4.2c-6.7-.1-13.6-.1-20.4-.1m-316.3 0c9.8-2.1 21 4.7 25.3-9.3 2.3-7.4 2.1-18.6-.9-25.5-5.1-11.7-15.3-5.9-24.4-6.3zm63.5-14.3c-.5-10.5-3.6-15.9-11.1-15.9-7 0-10.5 4.7-11 13.2-.4 7.9 1.2 14.3 8.2 16.3 6.7 1.8 10.3-.7 12.3-8.4-13.2 4.7-13.2 4.7-14.6-5.1 5.2-.1 10.3-.1 16.2-.1m56.1 13.2c16.4-.1 19.7-2.3 20.1-13.5.3-11.2-3.6-15.3-15.8-16.1-.5-3.6-1.1-7.2-1.6-10.9-.9.1-1.8.1-2.7.2zm-25 .5c.9 0 1.8.1 2.7.1.3-5.6-.1-11.4 1-16.7.7-3.1 3.8-5.4 5.9-8.1 1.5 2.8 3.7 5.4 4.2 8.5.9 5.3.7 10.9 1 16.3 1.3-.1 2.7-.2 4-.3-.5-8.5 1-18.7-2.3-24.9-2.4-4.5-11.2-3.6-16.6-5 .1 11.5.1 20.8.1 30.1m70.7-15.1c-.1-9.5-4.5-14.8-11.9-14.5-7.6.3-10.7 5.9-10.8 14.6-.2 9.6 4 15.1 11.4 15 7.3.1 11.5-5.5 11.3-15.1m21.2 16.2c.8-.7 1.6-1.4 2.5-2.1-7.5-8.9-10.4-18.1 0-28-1-.4-1.9-.9-2.9-1.3-2.9 2.5-5.7 5.1-8.3 7.3-2.9-2.5-5.8-4.9-8.6-7.4-.4.6-.9 1.3-1.3 1.9 2.1 4.4 4.3 8.7 6.6 13.3-2.5 4.7-5 9.3-7.4 13.9.6.8 1.1 1.5 1.7 2.3 3-3.2 6-6.3 8.9-9.5 2.7 3.2 5.8 6.4 8.8 9.6m-100.9-.1V77.7c-5.4 10-5.1 37.1 0 44.1m-52.5-1.3c6-8.6 5.4-24.4 0-29.4z" style="fill:#50597b"/><path d="M1319.4 468.1c-33.9-.1-67.8-.3-101.8-.4-53.6-.1-107.2 0-160.8 0-11.3 0-14-3.2-14-17-.1-26.4-.1-52.8 0-79.3 0-13.9 2.7-17 14-17.1h248.1c3.6 0 7.3-.2 10.9-.4 33 .1 66.1.3 99.1.4 55.2.1 110.4 0 165.5 0 12.5 0 15.6 3.8 15.6 19.3v74.8c0 15.5-3.1 19.3-15.6 19.3h-250.1c-3.6.1-7.2.3-10.9.4m-143.8-64.4c.6.2 1.1.3 1.7.5v32.6c5.9-4.2 7.5-29.3 4.5-50.2-10.4-2.8-8.4 9-10.7 15-2.8 7.1-4.4 14.9-7.1 24.8-3.3-12.5-6.1-22.1-8.2-31.8-1.6-7.1-4.1-10.6-11-7.1 0 14.2-.1 28.8.1 43.5 0 1.7 1.6 3.4 2.4 5 1.1-1.7 3-3.4 3.1-5.2.3-9.3.1-18.7.1-28 3.7 7.7 5.6 15.6 8.1 23.2 1.2 3.7 3.6 6.8 5.5 10.2 1.8-3.5 4.1-6.8 5.4-10.6 2.3-7.3 4.1-14.7 6.1-21.9m212.5 32.5c1.4-.2 2.9-.4 4.3-.5 0-8.9.8-18.1-.4-26.8-.5-3.6-5.2-8.6-8.2-8.8-9.8-.7-19.6.5-29.3.9v34.6c3-1 4.6-2.8 4.7-4.9.4-5.2-.6-10.8.5-15.8.8-3.6 3.9-6.4 6-9.5 1.6 3.1 4 6 4.5 9.4.8 5.1 0 10.6.4 15.8.2 2.1 1.7 4 2.6 6 1-.3 1.9-.6 2.9-.9 0-4.7-.1-9.4 0-14.2.2-6.6-1.3-16 6.4-15.7 7.6.4 3.9 9.9 4.6 15.6.6 4.9.7 9.9 1 14.8m-264-25.2c-.4-3.7-.5-7.5-1.2-11.1-1.5-7.8-4.4-13.9-12-14-7.5-.1-11.4 5.3-12.3 13.4-.9 7.7-.8 15.7 0 23.4.9 8.2 4.7 13.6 12.2 13.4 7.5-.1 10.6-5.9 12.1-13.9.7-3.6.8-7.3 1.2-11.2m300 9c-.3-13.8-4.1-19.8-12.1-20.3-7.9-.5-13.2 5.1-14.2 14.9-1.1 10.9 2.7 19.3 9.8 21.2 8.2 2.3 13.3-1.1 15.4-10.5-17.1 3-17.1 3-18.8-5.3zm-121.2.1c-.7-14.7-4.5-20.3-12.8-20.5-7.7-.2-12.8 5.8-13.8 15.8-.9 9.8 3.2 18.9 9.9 20.2 7 1.4 13.6.6 16.6-10.9-7.2-.6-15.9 14.3-20.5-4.7 7.4.1 13.7.1 20.6.1m145.3 16.4c5.5-3.4 7.5-18.4 5.1-28.3-2.9-11.7-10.4-8.4-16.8-7.6-.9-5.2-1.7-10.1-2.5-15-1.3.3-2.6.5-4 .8 0 15.2-.1 30.5.1 45.7 0 1.2 1.6 2.5 2.5 3.7 1-1.5 2.7-2.9 2.8-4.6.4-5.6-.6-11.5.5-16.8.7-3.5 4.1-6.1 6.2-9.2 2 3.1 5.2 6 5.7 9.5 1 6.9.4 14 .4 21.8m-121.6-.8c1.4.2 2.8.4 4.1.6 2.9-8.5 2.3-18.5.8-27.1-3.1-17.7-15.2-4.6-22.4-9.5-2.4 23.5-1.4 33.3 4.8 36.6 0-7.7-.7-14.9.3-21.7.5-3.4 4.1-6.1 6.3-9.2 2 3.1 5.2 6 5.7 9.4 1 6.8.4 13.9.4 20.9m-123.3 0c.7.3 1.5.6 2.2.9.9-2.1 2.4-4 2.5-6.2.4-5.2-.6-10.8.4-15.8.8-3.5 4-6.3 6.1-9.3 2 3.1 5.4 5.9 5.8 9.3.9 6.8.3 14 .3 21 1 .1 2 .3 3 .4 5.5-7.4 3.1-17.4 2.1-25.6-2.2-19.2-15.1-6-22.5-11 .1 12.8.1 24.5.1 36.3m34.5-34.6c-1.2-.5-2.4-1-3.6-1.6-3.9 7.7-2.5 17.5-1.5 25.8 2.2 19.4 15.1 5.8 23.2 11.6 0-12 .1-22.5-.1-32.9 0-1.4-1.5-2.7-2.2-4-1.1 1.4-3 2.6-3.1 4.1-.4 5.6.6 11.5-.5 16.9-.7 3.6-3.9 6.4-6 9.6-2.1-3.1-5.4-5.8-5.9-9.2-1-6.7-.3-13.6-.3-20.3m-157.1-1.6v36.4c6-2.8 7.8-30.2 3.8-51.8-4.3 7.5-12.3 8.6-13.5 20.5 3.5-1.8 5.7-2.9 9.7-5.1m185.9-10.8c-2.1 4.6-6 9.1-6.1 13.9-.2 8.5 1.9 17.1 2.9 25.6 1 8.4 5.1 8.7 10.7 6.9-7.3-11.8-7.4-24.9-1.4-32.6-1.9-4.4-3.7-8.5-6.1-13.8m196.3 47.4c4.9-11.8-2.9-29.2 12.5-35.5h-15.6c1.1 12.2-1.7 24.3 3.1 35.5m18-11.6c1.3 0 2.6 0 3.9.1.3-12.2.7-24.4.7-36.6 0-.7-3.3-1.4-6.5-2.8.7 14.3 1.3 26.8 1.9 39.3m-290.8-26.2c0 12.4-.1 23.1.1 33.9 0 1.3 1.6 2.5 2.5 3.7.9-1.2 2.6-2.3 2.6-3.5.2-10.2.1-20.4-.2-30.5 0-.9-2.1-1.7-5-3.6" style="fill:#515a7c"/><path d="M964.5.2c-2.1.1-4.2.3-6.3.3H494.1c-2.1 0-4.2-.2-6.3-.4v-10.6c2.4-.1 4.8-.4 7.2-.4h462.3c2.4 0 4.8.2 7.3.3-.1 3.8-.1 7.3-.1 10.8" style="fill:#54f1f8"/><path d="M487.7-10.4V.2c-8.4.7-11 6.9-11 16.6.1 43.7 0 87.4.1 131.1 0 12.4 2.9 15.9 13 15.9 29.6.2 59.2.3 88.9.4v44.1c0 14.4 4.5 20.3 16.1 21.3 4.2.4 8.4.6 12.6 1-8 7.9-10.7 18.1-10.7 30.8.3 103.5.1 207 .2 310.5 0 21.6 8.2 31.9 25.7 31.9 43.1 0 86.1.1 129.2-.1 5.3 0 10.7-1.9 16-2.9.7 12.3 1.3 24.5 2 36.8-33 .1-66 .2-99 .2H240.2c-3.6 0-7.3-.2-10.9-.2V488.1c0-15.7-4.8-21.8-17.4-22.6-10.6-.6-13.5-4.1-13.5-17 0-68-.2-135.9.3-203.9 0-5.8 4.1-11.6 6.2-17.5 2.2-6.2 5.8-12.4 6-18.7.7-27.2.3-54.4.3-81.5 0-15.1-3.6-19.7-15.6-19.7-26.7-.1-53.3-.3-80 .1-8.5.1-12-3.8-11.9-14.6.3-34.3.1-68.7.1-103.1 3.3-.1 6.6-.4 10-.4h364.1c3.2.1 6.5.3 9.8.4m40.1 425.7V258.9c0-21-8.3-31.5-25-31.5h-131c-18 0-26 10.1-26 32.6v311.6c0 21.8 8.2 32.1 25.5 32.1 43.7.1 87.3.1 131 0 17.3 0 25.5-10.3 25.5-32.1zm-125.6-334v27.1c0 9.5 3.3 14.8 11.4 14.7 13.6-.1 27.2.2 40.8-.1 9.1-.2 13.2-5.3 13.3-16.6q.3-24.3 0-48.6c-.1-10.8-4.2-16.1-12.7-16.3-13.9-.3-27.8 0-41.7-.1-7.5 0-11 4.9-11.1 13.9-.1 8.6 0 17.3 0 26m162.2 394.8h19.4v-23.3h-19.4zm.2-70.6h19.3v-23.2h-19.3z" style="fill:#50f0f8"/><path d="M248.4 743.5c-4.2-7-3.7-30.9.9-36.5.9-1 2.6-1.1 4-1.1 11.8-.1 23.5-.6 35.2.3 2.8.2 7.5 5 7.7 8 .6 9.9-.5 19.9-1 29.9-1-1.1-2-2.3-3-3.4-2.1-1.9-4.1-3.9-6.2-5.8-.9-1.1-1.9-2.1-2.8-3.2-3.5-.6-3.6-11.9-9.5-4.5h-5.1c-1.7-1.3-3.5-2.6-5.2-3.8-.4.9-.8 1.9-1.2 2.8 1.7 1 3.4 1.9 5 2.9 2.6 5 5.3 5 7.9 0 2.2 1.5 4.4 3.1 6.6 4.6 1 1.1 1.9 2.1 2.9 3.2l6.3 5.7c.6.7 1.3 1.3 1.9 2-6.6.7-13.3 2.1-19.9 2-7.9-.1-15.7-1.3-23.6-2 .6-.7 1.2-1.5 1.8-2.2.4-.5.8-1.1 1.3-1.6l-2.1.3c-.6.7-1.3 1.6-1.9 2.4" class="st22"/><path d="M1248.1 725.6c-1.3 4.6-2.1 7.3-3 10.6-3.4-8.3-6.5-15.8-9.5-23.1 11.5-5.7 17.1-.4 18.2 15 4.6-6.5 2.6-18.9 12.3-15.5v22.9c-.4.1-.8.3-1.2.4-1-2.8-2.1-5.5-3.4-9.3-2.1 4.2-4 7.9-6.4 12.7-2.7-5.1-4.4-8.6-7-13.7" class="st6"/><path d="M1040.3 736c3.7-7.2 7.4-14.5 11.1-21.7-.7-.3-1.5-.6-2.2-.9 3.8-.2 7.5-.4 12.2-.7v23.6c-.5.5-.9 1-1.4 1.5-1.9-4.2-3.8-8.3-5.8-12.7-3.5 3.9-7.7 8.6-12 13.4-.7-.9-1.3-1.7-1.9-2.5" class="st23"/><path d="M465.9 762.6v7.9h-25.4v-19.3c1.1 15 10.6 11.6 19.4 9.5-.4 1.1-.8 2.3-1.2 3.4l3.6-5.7v5.8c.5 0 1-.1 1.6-.1.1-2 .2-4 .4-6 .5 1.4 1.1 2.9 1.6 4.5m125.6-38.2c-3.9 4.6-7.7 9.1-11.6 13.7l-2.5-2.5c4.2-5.9-2.8-16.4 5.7-19.8 2.1-.9 5.6 3.5 8.4 5.5zm-3.1-1.7c-1.5-1.4-2.3-2.8-3.2-2.7-.7 0-1.5 1.6-2.2 2.4.8 1 1.5 2.4 2.4 2.8.6.2 1.6-1.3 3-2.5" class="st6"/><path d="M546.4 731.6V712c1-.1 2.1-.1 3.1-.2.4 6.9 1.2 13.8 1 20.7-.1 1.5-3.9 3.4-6.2 3.8-2 .4-4.3-1-6.4-1.9-.1-.1.4-3.7.6-3.7 2 0 4.1.4 7.9.9m-16.7-.6v-18.8c1.1-.1 2.1-.3 3.2-.4.5 6.7 1.4 13.5 1.2 20.2 0 1.6-3.7 3.8-6 4.3-2 .5-4.4-.6-6.5-1.4-.3-.1-.1-3.8 0-3.8 2.4-.2 4.8-.1 8.1-.1" class="st24"/><path d="M885.4 737.7c-1.2-5.9-2.3-11.8-3.6-18.3 3.4-.3 6-.5 10.3-.8-.7 6.4-1.3 12.6-2 18.8-1.6.1-3.1.2-4.7.3" class="st0"/><path d="M344.5 708.8c7.5 14.8 7.2 24.4 0 27z" class="st24"/><path d="M1150.9 710.3v26.6c-8.3-6-8.8-17.5 0-26.6" class="st23"/><path d="M545.5 764.4c-2.3 9-9.3 6.4-14.3 8.7.7-3.5 1.3-7.1 2-10.6 4.1.7 8.2 1.3 12.3 1.9" class="st0"/><path d="M805.7 737.2c-3.9-21-5-26.4 2.6-26.4-.8 8.8-1.7 17.6-2.6 26.4" class="st12"/><path d="M870 718.4c2.5 5.6 5.1 11.1 7.9 17.4-10.5.5-10.5.5-7.9-17.4" class="st0"/><path d="M1020.2 710.9v25.7c-2.9-8.2-10.3-16.4 0-25.7" class="st6"/><path d="m365.5 729.3 2.7 5.1c0 .7.1 1.5.1 2.2-3.3-1-6.6-1.9-9.9-2.9v-12.5c.6.5 1.2 1.1 1.8 1.6 1.4-1 2.8-2 4.3-3 .4 1.9.7 3.8 1.1 5.8-1.4.4-2.8.8-6.5 1.9 3.6 1 5 1.4 6.4 1.8" class="st1"/><path d="M1156.2 736.5v-23.6c6.9 4.3 7.3 13.9 0 23.6m-89.2-.9v-23.5c7.3 7.7 7.2 16.9 0 23.5" class="st23"/><path d="m425.7 769.6-5.4 3.9c-1-4.6-2.1-9.3-3.2-14.3 6.1-2.3 9.1 1.3 8.6 10.4" class="st24"/><path d="M1227.5 735.8V714c.6 0 1.1-.1 1.7-.1v21.9c-.6-.1-1.2 0-1.7 0" class="st6"/><path d="M375 773.5c-1.8-1.3-3.6-2.6-5.5-4-.4-2.3-.8-4.6-1.2-7 .4-.8.9-1.6 1.3-2.4 1.7-.4 3.4-.9 5.4-1.4z" class="st0"/><path d="M562.4 769.6c-1.9 1.4-3.7 2.8-5.6 4.3.1-3.9.2-7.8.3-11.8 1.8.2 3.5.4 5.3.6z" class="st24"/><path d="M659.2 764.3c-.2 2.6-.4 5.2-.5 7.3-2.5.4-4.8.8-7.8 1.3.7-3.4 1.3-6.8 2-10.2.7.6 1.4 1.3 2.1 1.9 1.2-.7 2.5-1.3 3.7-2 .3.6.5 1.1.5 1.7" class="st15"/><path d="m396.5 773.8-2.1-1.2c.6-5.5 1.9-11.5-5-12.3-.6-.7-1.1-1.4-1.7-2.1 3 1.1 6 2.2 8.9 3.3.1 4 0 8.1-.1 12.3" class="st14"/><path d="M387.8 758.1c.6.7 1.1 1.4 1.7 2.1-.6 4.3-1.3 8.7-1.9 13l-.9.2-.8-.4v-21.4c.6 2.3 1.3 4.4 1.9 6.5" class="st8"/><path d="M358.4 721.1v12.5c-1 .5-1.9 1.1-2.9 1.6-.1-1.6-.1-3.2-.2-4.8v-10.6c1 .4 2 .9 3.1 1.3m27.5 30.7v21.4c-.5.3-1 .5-1.6.6.5-7.4 1-14.7 1.6-22" class="st12"/><path d="M369.6 760.2c-.4.8-.9 1.6-1.3 2.4-1.5.1-3 .2-4.4.3l-1.7 1.7c-.6.1-1.1.2-1.7.3-.1-.8-.3-1.7-.4-2.5 3.1-.7 6.3-1.4 9.5-2.2" class="st14"/><path d="M540.3 711.4c.7 2.1 1.3 4.2 2 6.3-.6.4-1.3.8-1.9 1.2-.9-1.9-1.8-3.8-2.7-5.8.8-.6 1.7-1.2 2.6-1.7m-15.9.1c.4 2.2.8 4.4 1.2 6.5-.7.2-1.4.5-2.1.7-.6-2.1-1.3-4.2-1.9-6.3.9-.3 1.9-.6 2.8-.9" class="st24"/><path d="M629.4 722v10.7h-1.1v-10.5c.3 0 .7-.1 1.1-.2" class="st14"/><path d="M562.4 762.7c-1.8-.2-3.5-.4-5.3-.6-.6.4-1.2.7-1.9 1.1-.1-1.4-.1-2.9-.2-4.3 2.3-.3 4.5-.7 6.8-.6.3 0 .4 2.8.6 4.4" class="st8"/><path d="M376.4 724.1c.2-1.4.4-2.9.6-4.3.5 0 1.1-.1 1.6-.1V733l-.3.3c-.7-1.1-1.3-2.1-2-3.2.1-2 .1-4 .1-6" class="st7"/><path d="M533.2 762.5c-.7 3.5-1.3 7.1-2 10.6-.8-.5-1.7-1-2.5-1.6q2.25-4.35 4.5-9" class="st12"/><path d="M555.1 758.8c.1 1.4.1 2.9.2 4.3-.1 3.5-.2 7-.4 10.5-.5.2-1 .3-1.5.2v-15.7c.7-.2 1.3 0 1.7.7" class="st14"/><path d="M553.5 758.2v15.7c-.9-1.1-1.8-2.1-2.6-3.2l.3-5.4c.1-.7.1-1.3.2-2q.9-2.55 2.1-5.1" class="st7"/><path d="M480.4 760.2c.1 1.5.1 3 .2 4.5-1.3.1-3.2.8-3.7.1-.7-1.1-.4-3.2-.6-4.9 1.4.1 2.7.2 4.1.3" class="st6"/><path d="M431.4 769.6c-.7 1.4-1.3 2.7-2 4.1v-11.1h1.6c.2 2.2.3 4.6.4 7" class="st24"/><path d="M382.3 773.5c-.7-1.4-1.3-2.8-2-4.2v-6.4h2z" class="st0"/><path d="M375.1 731.3c-.2.8-.4 1.5-.5 2.3-.5-.3-1.1-.7-1.6-1 0-3.4 0-6.9-.1-10.3.6-.3 1.2-.6 1.7-1 0 .8.2 1.5.5 2.1z" class="st8"/><path d="M372.9 732.6c.5.3 1.1.7 1.6 1l-6.3 3c0-.8-.1-1.5-.1-2.3 1.7-.5 3.2-1.1 4.8-1.7" class="st0"/><path d="m597 723.6-.6 11.4c-.3 0-.6 0-.9.1-.2-3.3-.3-6.6-.5-9.9l-.2-1.1.8-.5.7-.1z" class="st22"/><path d="M360 762.4c.1.8.3 1.7.4 2.5 0 3 0 6-.1 9l-2.1-.3c.6-3.7 1.2-7.4 1.8-11.2" class="st7"/><path d="M396.5 773.8c.1-4.1.1-8.2.2-12.3.7 1.8 1.5 3.5 2.2 5.3-.8 2.3-1.6 4.6-2.4 7" class="st15"/><path d="M658.8 762.7c-1.2.7-2.5 1.3-3.7 2 .6-1.6 1.3-3.2 1.9-4.8.6.9 1.2 1.9 1.8 2.8" class="st11"/><path d="M374.6 721.2c-.6.3-1.2.6-1.7 1-.7-.8-1.5-1.6-2.1-2.6 0-.1 1-1.4 1-1.4.9 1 1.8 2 2.8 3" class="st0"/><path d="M596.6 713.5c-.5.3-.9.6-1.4 1-.2-.7-.5-1.5-.5-2.2 0-.3.9-.5 1.4-.7.2.6.3 1.2.5 1.9" class="st6"/><path d="M364.4 719.7c-1.4 1-2.8 2-4.3 3 1.4-1 2.9-2 4.3-3" class="st0"/><path d="M355.3 723.9v6.5z" class="st24"/><path d="M375.1 731.3v-8c.4.3.9.6 1.3.8 0 2-.1 3.9-.1 5.9-.4.5-.8.9-1.2 1.3" class="st1"/><path d="M464.2 758c-.1 2-.2 4-.4 6-.5 0-1 .1-1.6.1v-5.8c.8-.1 1.4-.2 2-.3" class="st8"/><path d="M365.5 729.3c-1.4-.4-2.8-.8-6.5-1.9 3.7-1.1 5.1-1.5 6.5-1.9z" class="st0"/><path d="M591.5 724.4v-3.2c.7-.1 1.5-.2 2.2-.3.6.9 1.3 1.8 1.9 2.7l-.8.5.2 1.1c-1.1-.3-2.3-.5-3.5-.8" class="st13"/><path d="M595.6 723.6c-.6-.9-1.3-1.8-1.9-2.7l3.3 2.7-.7-.2zm58.2 10.4c-.1-1.2-.1-2.4-.2-3.5.3 0 .6-.1.9-.1.1 1.2.1 2.4.2 3.5-.2 0-.6.1-.9.1m6.6-3.4c1.3-.6 2.6-1.2 3.8-1.8l.3 1.5c-1.3.2-2.6.5-3.9.7z" class="st6"/><path d="M378.6 733c.4.8.9 1.6 1.3 2.5l-.6.6c-.3-.9-.6-1.9-.9-2.8 0-.1.2-.3.2-.3" class="st7"/><path d="M292.8 744.4c-.6-.7-1.3-1.3-1.9-2 .4-.6.9-1.2 1.3-1.7 1 1.1 2 2.3 3 3.4q-1.05.15-2.4.3" class="st23"/><path d="M660.7 731c-.3.3-.6.6-1 .8.2-.4.4-.8.7-1.2z" class="st6"/><path d="M387.6 773.3c.6-4.3 1.3-8.7 1.9-13 6.9.8 5.6 6.8 5 12.3-2.3.2-4.6.4-6.9.7" class="st24"/><path d="M363.8 762.9c1.5-.1 3-.2 4.5-.4.4 2.3.8 4.7 1.3 7-1.8.6-3.7 1.3-5.5 1.9-.2-2.8-.2-5.6-.3-8.5" class="st10"/><path d="M554.9 773.6c.1-3.5.2-7 .4-10.5.6-.4 1.2-.7 1.9-1.1-.1 3.9-.2 7.8-.3 11.8-.7 0-1.4-.1-2-.2" class="st15"/><path d="M360.4 773.9c0-3 0-6 .1-9 .6-.1 1.1-.2 1.7-.3.1 2.2.3 4.4.4 6.5-.8 1-1.5 1.9-2.2 2.8" class="st8"/><path d="M362.5 771.2c-.1-2.2-.3-4.4-.4-6.5l1.7-1.7c.1 2.8.1 5.7.2 8.5q-.75-.3-1.5-.3" class="st0"/><path d="m551.1 765.3-.3 5.4z" class="st15"/><path d="M1287.2 922.1c1.7-.8 2.7-1.2 3.7-1.7-.4 1-.8 2-1.3 2.9-.1.2-1-.4-2.4-1.2" class="st14"/><path d="M1231.6 928.5c-.2.1-.6.3-.7.2-.2-.2-.2-.6-.2-.9 0-.1.6-.3.6-.2q.3.3.3.9m-5.1-.6c.2-.3.4-.5.5-.8.1.2.3.3.4.5-.2.2-.4.4-.6.7 0-.1-.3-.4-.3-.4" class="st13"/><path d="M1342.8 916.4V927c-1.5-.4-2.8-.3-3.6-1-1.2-1.1-2.1-2.7-3.1-4.1 1.8-1.5 3.6-3 6.7-5.5" class="st12"/><path d="M997.2 928.3v-12.1h2.6v11.3c-.9.3-1.7.5-2.6.8" class="st0"/><path d="M1102.7 921.3c-.2-.6-.5-1.1-.6-1.7 0-.2.4-.5.6-.7z" class="st14"/><path d="M767.8 600.8c-5.3 1-10.7 2.9-16 2.9-43.1.2-86.1.2-129.2.1-17.4 0-25.7-10.2-25.7-31.9 0-103.5.1-207-.2-310.5 0-12.7 2.7-22.9 10.7-30.8 6-1.1 11.9-3 17.9-3.1 42.5-.3 84.9-.2 127.4-.1 18.1 0 26.2 10 26.2 32.4 0 103.6-.1 207.1.1 310.7.1 12.8-3 22.7-11.2 30.3M673.2 384c2.5-10.4 7.2-18.4 16.2-15.1 3.4 1.2 7.4 8.1 7.8 12.9 1.1 13.3-8.3 14.4-15.9 16.9-.6 6.2-1.2 12-1.8 18 14.6-2.1 20.8 1.8 22.8 13.9 1.8 11-2.5 21.6-10.2 25-8 3.4-13.7-2-20.1-19.5-2.7.6-5.6 1.2-8.6 1.7-3.1.6-6.3 1.2-9.4 1.8 2.3 22.8 13.5 37.6 29.3 39.6 17.2 2.2 33.3-8.6 37.7-27.4 4.2-17.9 4.2-32-15.7-46.2 9.6-8.5 16-18.9 12.3-34.5-4.2-17.8-18.4-27.8-35.4-25.5-15 2.1-25 15.2-26.2 35 5.5.9 11 2.1 17.2 3.4m120.3 31.1V259.9c0-22.5 8-32.5 26.1-32.5h130c17 0 25.8 10.8 25.8 31.8 0 104.2-.2 208.5.2 312.7.1 17-10.9 32.8-25.9 32.3-43.3-1.2-86.7-.4-130-.4-18.1 0-26.2-10-26.3-32.3.1-52.1.1-104.3.1-156.4m124.4-36.4c-2.2-18.9-10.6-30.6-23.5-33.2-15.9-3.2-32 6.7-37.9 25.3-8.6 26.9-8.9 54.7-.7 81.8 5.3 17.4 16.2 26.7 31.7 26.5 14.1-.2 24.7-7.8 30-24.1 5.8-17.6 5.4-35.3-5.8-49.5-4.7-6-12-10.9-18.6-12-6.7-1.1-14 3.2-21.6 5.3 1-5.6 1.1-12.9 3.7-18.4 2.5-5.2 7.4-10.5 11.9-11.7 3-.8 7.2 5.6 11 8.6 2 1.6 4.3 3.7 6.5 3.7 4.4 0 8.9-1.4 13.3-2.3" class="st2"/><path d="m937.8 111.1 3-7c5 2.5 9.4 4.8 14.6 7.4V135c-7.8-5.6 3.2-22.2-10.8-23.4-.3 6.1-.6 10.9-.9 17.1-2.3-1.9-3.8-3.2-5.4-4.5-7.9 9.5-11.9 8.5-17.3-4.5v-.1c4.9-12.2 7.3-13.2 15.2-6.4.8.6 1.6 1.1 2.5 1.7-.4-1.2-.6-2.5-.9-3.8m-229.9 5.1c4.5 9.1-.8 14.4-3.6 21-1.6-9.1-3-17-4.5-25.5-7.7 5.9-7.7 5.9-1.8 18.7-2.7-2.1-5.4-4.1-8.4-6.4-.8 1.7-1.7 3.8-2.6 5.9l-1.5-.3v-28.5c.6-.2 1.2-.4 1.9-.5.6 4.2 1.2 8.3 2 13.4 6.8-6.6 12.6-6.8 16.5 3.5 0 0 1.3-.7 2.1-1.1 0-.1-.1-.2-.1-.2" class="st6"/><path d="M618.7 129c-.5-5.4-1.1-10.7-1.6-16.1-.6 0-1.2-.1-1.8-.1-.3 7.9-.6 15.8-1 23.7-3.8-9.6-18.9-3.9-16.7-20-.9 1.4-1.7 2.8-2.6 4.2v-8.9c4.9-.8 9.9-2.7 14.7-2.1 5.4.7 8.1-2 10.4-7.1.9.1 1.7.2 2.6.3-2 6.4 1.8 6.6 5.1 7.3v.9c-2 2.6-4.5 4.9-5.8 8-1.2 3-1.1 6.7-1.6 10.2v-15.1h-1.8c.1 4.9.1 9.9.1 14.8m-6.1-9.6c-2.1-3.3-3.4-5.3-4.7-7.4-1.4 2.8-3.6 5.4-4.1 8.4-.3 2 1.9 4.6 3 6.9 1.8-2.4 3.5-4.7 5.8-7.9" class="st7"/><path d="M757 122.6c-.4-3.2-.8-6.5-1.5-11.3-2.4 3.3-4.1 5.6-5.8 7.9 1.8 3.5 3.4 6.6 5 9.6-4.5-.3-8.9-.5-13-.8.4-2.7 1.7-7.3 1.4-11.6-.1-2-3.6-3.5-6.9-6.5-.6 8.1-1 13.8-1.4 19.5h-2.3v-26.1c5.5 4 10.3 7.5 13.5 9.8 4.8-1.1 7.9-1.8 11.1-2.6 0 4 0 8-.1 12.1" class="st23"/><path d="M868 109.5h13.9c.9 6 1.7 11.3 3.1 20.5-6.7-2.9-11.8-5.1-17-7.4v-8c0-1.7.1-3.5.1-5.2z" class="st24"/><path d="M661 133.5c-3.2-6.8-4.8-10.3-7.1-15.2-2 3.9-3.5 6.7-4 7.7-.6-1.8-1.6-4.8-2.2-6.5 2.1-3.1 4.1-6 6.9-10.1 1.4 3.1 2.9 6.2 4.6 9.8 1.6-3.5 3.1-6.6 4.5-9.8.7.3 1.4.7 2.1 1-1.4 6.6-2.7 13.2-4.8 23.1" class="st6"/><path d="M769.7 109.9c3.7 2.4 7.4 4.7 11.8 7.5.4-.8 2.1-4.4 4.2-8.8 1.5 2.4 2.7 4.2 3.8 5.9v10.1c-.8-2.7-1.6-5.4-2.6-9-2 5.3-3.7 9.8-6.5 17-3.2-7.8-5.4-13.4-8.1-19.9-1 6-1.8 11.3-2.6 16.6z" class="st7"/><path d="M903.9 127.9c-7 3.2-13 3.9-14.7-5.1-.7-3.7 2.5-11.2 5.4-12.8 5.4-3 8.8 1.8 9.4 9.9-3.8.6-7.2 1.1-10.6 1.6-.2 1.1-.4 2.1-.6 3.2 3.2 1 6.5 1.9 11.1 3.2m-281.2-25c-.9-.1-1.7-.2-2.6-.3 3.3-.9 6.6-1.7 9.9-2.6l-.9 3.6c2.6 2 5.7 3.5 7.8 6.1 2.3 2.8 5.1 6.8 5 10.2-.1 3.5-3.1 7.6-5.7 9.8-1.8 1.5-5.1.3-8.5.3v-19.6c.2-4.6.3-9-5-7.5m15.5 9.6c-1.6-.3-3.3-.7-4.9-1-.5 4.6-1.2 9.3-1.4 14 0 .3 2.9.8 4.4 1.2.7-4.8 1.3-9.5 1.9-14.2m69.8 3.8c2.9-1.5 6-2.7 8.7-4.5 7.3-4.8 10.1-3.2 12.5 7.4-2.5 5.1-12.4-4-10.7 8.8-7.2 1-1-16.2-10.6-11.8z" class="st24"/><path d="M678.8 129.9c-.6-5.9-1.3-11.7-1.9-17.6-1-.3-2-.5-3-.8-1.3 5.9-2.6 11.8-3.8 17.7-.6 0-1.1.1-1.7.1-.3-6.1-.6-12.2-1-20.8 5.1 1.3 11.1.7 12.8 3.7 2.3 4.3 1.4 11.3 1.9 17.1q-1.65.45-3.3.6m176.5 0c-.6-5.9-1.3-11.7-1.9-17.6-1-.3-2-.5-3-.8-1.3 5.9-2.6 11.8-3.8 17.7-.6 0-1.1.1-1.7.1-.3-6.1-.6-12.2-1-20.8 5.1 1.3 11.1.7 12.8 3.7 2.3 4.3 1.4 11.3 1.9 17.1q-1.65.45-3.3.6m65.6-10.2s0 .1 0 0c-.4 3.4-.8 6.7-1.1 10.1h-2.6c-.6-5.8-1.3-11.7-1.9-17.5-1.1-.2-2.1-.5-3.2-.7-1.2 6-2.4 11.9-3.6 17.9h-1.8c-.2-6.2-.4-12.4-.7-18.8 7.5-2 14.2-3.8 14.9 9" class="st7"/><path d="M868.1 114.6v8c.7 2.8.8 6.9 2.4 8 2.3 1.8 5.6 1.5 9.4 2.2-10.4 2.9-15.5.1-17.8-9-2.3-8.9.1-14.8 8-19.1-.8 1.9-1.4 3.3-2 4.8l.2-.1c-.2 1.7-.2 3.4-.2 5.2M595 111.7v8.9c-1.8 5.5-3.6 11-5.8 18-1.9-11.3-3.4-20-4.9-28.8.5-.3 1.1-.7 1.6-1 1.5 3.2 2.9 6.4 4.9 10.8 1.6-2.9 2.9-5.4 4.2-7.9" class="st6"/><path d="M981.2 114.3c3.1-1.7 7.3-5.7 9.1-4.4 3.1 2.1 6.3 7.4 6.6 11.6.4 6.6-4.1 9.6-9.2 8.2-2.4-.6-4.5-2.9-6.8-4.4l.1.2c.1-3.7.1-7.4.2-11.2m9.4-3.1c-.8.1-1.7.1-2.5.2-.9 3.1-2.7 6.4-2.5 9.4.2 2.4 3 4.4 4.6 6.5 1.1-2.7 3.1-5.4 3.2-8.2.1-2.6-1.8-5.3-2.8-7.9" class="st23"/><path d="M769.7 109.9v19.5c-4.6-1.1-11.8 5.1-12.7-6.8 0-4.1.1-8.1.1-12.2 1.1 1 3 1.9 3.1 3.1.4 4.4.2 8.8.2 13.2l3 1.2c1.2-2.9 2.6-5.8 3.7-8.9 1-2.9 1.7-6 2.6-9.1" class="st24"/><path d="M789.5 124.7v-10.1c3.3-7.2 8.4-7.9 12.1-2.1 1.9 3.1 1.9 11.2 0 14.3-3.7 5.9-8.8 5.2-12.1-2.1m6 3.5c.9-.1 1.7-.3 2.6-.4.8-3.2 2.3-6.4 2.1-9.5-.1-2.2-2.5-4.2-3.9-6.3-1.4 2.8-3.7 5.6-4 8.6-.2 2.3 2 5 3.2 7.6" class="st6"/><path d="M839.4 127.3c-1.1-2.1-2.2-4.2-3.4-6.3-1.8-3-3.7-5.8-5.5-8.7 3.5-1.1 7-2.1 10.5-3.2.1 1 .3 2 .4 2.9-2.5.3-5.1.6-9 1 11.6 7.7 11.8 8.3 7 14.3" class="st24"/><path d="M980.9 125.4c-3.3 7.4-8.1 6.4-11.8 1.6-4.1-5.4-3.1-11.3 1.8-16.5.8 6 1.2 11.2 2.6 15.9.2.7 4.9-.5 7.5-.8 0-.1-.1-.2-.1-.2" class="st6"/><path d="M618.7 129v-14.9h1.8v15.1c-.7 0-1.3-.1-1.8-.2" class="st24"/><path d="M981.2 114.3c-.9-.7-1.8-1.3-2.7-2 .4-.5.8-.9 1.1-1.4.5 1.2 1.1 2.3 1.6 3.4" class="st25"/><path d="M1432.7 131.4c-6.9 0-13.9.3-20.8-.1-7.9-.4-12.2-5.6-12.3-15.8 0-10.2-.1-20.3 0-30.5.1-9.5 4.3-14.7 11.9-14.9 13.9-.2 27.8-.3 41.7 0 7.6.1 11.7 5.5 11.8 15 .1 10.2.1 20.3 0 30.5 0 10.1-4.5 15.3-12.4 15.6-6.6.4-13.3.2-19.9.2m26.4-40.6c-7.5 6.7-14.1 11.9-20 18.2-5.2 5.6-9.1 4.8-14-.3-5.9-6.1-12.4-11.4-20-18.2 0 9 .3 15.6-.1 22.2-.4 8.2 2.4 11.8 8.9 11.7 7.2-.2 14.5.1 21.7 0 26.3-.5 24.4 5.3 23.5-33.6m-.2-8.5c-.4-1.5-.8-3-1.1-4.6-17.1-.7-34.2-1-51.6 2.3 7.7 9.6 15.8 17.1 24.1 24.2 1 .8 3.2.8 4.1 0 8.2-7.1 16.3-14.5 24.5-21.9m55.3 39.1h20.5l.3 4.2c-10 4.5-20.7.9-30.9 2.1-.6-.9-1.2-1.9-1.8-2.8 3.6-5.6 6.9-11.4 10.7-16.7 4-5.5 9-10.1 12.8-15.9 3.4-5.2 3.8-11.7-1.6-15.5-4.7-3.4-9.2-2.1-12.3 4.5-1.2 2.5-3.3 4.4-6.5 8.3-1.3-11.7 2-17.3 7.8-19.8 6.5-2.8 14.2-3.3 18.1 4.7 2.4 5.1 2.9 14 1 19.5-2.2 6.5-7.8 11.1-12.1 16.4-2.2 2.8-4.7 5.4-7 8.1.3 1 .7 1.9 1 2.9" class="st26"/><path d="M1197.9 121.4v-41c9.1.4 19.3-5.4 24.4 6.3 3 6.9 3.2 18 .9 25.5-4.4 13.9-15.5 7.1-25.3 9.2m5.7-2.8c5.9-3.2 12.6-4.2 14.5-8.4 2.3-5.3 2.3-14.5 0-19.8-1.8-4.2-8.6-5.1-14.4-8-.1 13.1-.1 23-.1 36.2" class="st23"/><path d="M1261.4 107.1h-16.1c1.4 9.8 1.4 9.8 14.6 5.1-2.1 7.7-5.7 10.3-12.3 8.4-7-1.9-8.7-8.3-8.2-16.3.5-8.5 4-13.1 11-13.2 7.4.1 10.5 5.5 11 16" class="st26"/><path d="M1317.5 120.3V80c.9-.1 1.8-.1 2.7-.2.5 3.6 1.1 7.2 1.6 10.9 12.1.8 16.1 4.9 15.8 16.1-.4 11.1-3.7 13.4-20.1 13.5m.9-14.5c3.5 4.6 5.7 7.4 7.8 10.3 2.1-3.4 5.6-6.5 5.9-10.1.3-3.1-3.1-6.6-4.9-10-2.5 2.8-5 5.6-8.8 9.8" class="st23"/><path d="M1292.5 120.8V90.7c5.4 1.4 14.2.6 16.6 5 3.3 6.2 1.8 16.4 2.3 24.9-1.3.1-2.7.2-4 .3-.3-5.5-.1-11-1-16.3-.5-3.1-2.8-5.7-4.2-8.5-2 2.7-5.2 5-5.9 8.1-1.2 5.3-.8 11.1-1 16.7-1-.1-1.9-.1-2.8-.1" class="st26"/><path d="M1363.2 105.7c.1 9.5-4.1 15.1-11.4 15.2-7.4 0-11.6-5.4-11.4-15 .1-8.8 3.2-14.3 10.8-14.6 7.5-.4 11.9 5 12 14.4m-2.2-.3c-4.3-4.2-6.9-6.8-9.5-9.4-2.1 3.5-5.8 7.1-5.8 10.5.1 3.3 4.1 6.5 6.4 9.7 2.4-3 4.9-5.9 8.9-10.8m23.4 16.5c-3-3.2-6.1-6.4-8.9-9.4-2.9 3.1-5.9 6.3-8.9 9.5-.6-.8-1.1-1.5-1.7-2.3 2.5-4.6 4.9-9.2 7.4-13.9-2.3-4.6-4.4-9-6.6-13.3.4-.6.9-1.3 1.3-1.9 2.9 2.5 5.7 4.9 8.6 7.4 2.6-2.3 5.4-4.8 8.3-7.3 1 .4 1.9.9 2.9 1.3-10.4 9.9-7.4 19.1 0 28-.8.5-1.6 1.2-2.4 1.9" class="st24"/><path d="M1283.5 121.8c-5.1-7-5.4-34.1 0-44.1z" class="st23"/><path d="M1231 120.5V91.1c5.4 5 6 20.8 0 29.4" class="st7"/><path d="M1175.6 403.7c-2 7.2-3.8 14.6-6.2 21.7-1.3 3.8-3.6 7.1-5.4 10.6-1.9-3.4-4.3-6.5-5.5-10.2-2.5-7.6-4.4-15.5-8.1-23.2 0 9.4.2 18.7-.1 28-.1 1.8-2 3.5-3.1 5.2-.8-1.7-2.4-3.3-2.4-5-.2-14.6-.1-29.3-.1-43.5 6.9-3.5 9.5 0 11 7.1 2.2 9.8 5 19.3 8.2 31.8 2.8-9.9 4.4-17.7 7.1-24.8 2.3-6 .3-17.7 10.7-15 3 20.9 1.4 46-4.5 50.2V404c-.4 0-1-.1-1.6-.3m212.5 32.5c-.3-4.9-.4-9.8-1-14.6-.7-5.7 2.9-15.2-4.6-15.6-7.7-.4-6.3 9.1-6.4 15.7-.1 4.7 0 9.4 0 14.2-1 .3-1.9.6-2.9.9-.9-2-2.5-3.9-2.6-6-.4-5.2.4-10.7-.4-15.8-.5-3.4-2.9-6.3-4.5-9.4-2.1 3.2-5.3 5.9-6 9.5-1.1 4.9-.1 10.5-.5 15.8-.2 2-1.8 3.9-4.7 4.9v-34.6c9.7-.5 19.6-1.7 29.3-.9 3 .2 7.7 5.2 8.2 8.8 1.2 8.7.4 17.8.4 26.8-1.4-.1-2.8.1-4.3.3" class="st24"/><path d="M1124.1 411c-.4 3.8-.5 7.6-1.2 11.3-1.4 8-4.6 13.8-12.1 13.9s-11.4-5.3-12.2-13.4c-.8-7.7-.9-15.7 0-23.4.9-8.1 4.8-13.5 12.3-13.4 7.6.1 10.5 6.2 12 14 .8 3.5.9 7.3 1.2 11m-6-.2c-1.1-7 1.6-18.5-7.3-18.6-8.5-.1-7.5 11.1-7.5 18.7s-1.2 18.8 7.3 18.9c9 .2 6.4-11.3 7.5-19" class="st23"/><path d="M1424.1 420h-19.9c1.7 8.3 1.7 8.3 18.8 5.3-2.2 9.4-7.2 12.8-15.4 10.5-7.1-2-10.9-10.4-9.8-21.2 1-9.8 6.4-15.4 14.2-14.9 8 .4 11.7 6.5 12.1 20.3m-21-8.2c.6.9 1.1 1.7 1.7 2.6h12.8l1.2-2.7c-2.4-2.3-5-6.6-7.3-6.4-2.9.3-5.6 4.2-8.4 6.5m-100.2 8.3h-20.6c4.7 18.9 13.4 4.1 20.5 4.7-3 11.5-9.7 12.3-16.6 10.9-6.7-1.3-10.8-10.4-9.9-20.2.9-10 6.1-16 13.8-15.8 8.2.1 12 5.7 12.8 20.4m-6.3-5.5 1.2-2.7c-2.8-2.3-5.5-6.4-8.3-6.4-2.4 0-4.9 4.5-7.3 6.9.5.7 1.1 1.5 1.6 2.2z" class="st26"/><path d="M1448.2 436.5c0-7.8.6-14.9-.3-21.7-.5-3.4-3.7-6.3-5.7-9.5-2.2 3-5.5 5.7-6.2 9.2-1.1 5.3-.1 11.2-.5 16.8-.1 1.6-1.8 3-2.8 4.6-.9-1.2-2.5-2.5-2.5-3.7-.2-15.2-.1-30.5-.1-45.7 1.3-.3 2.6-.5 4-.8.8 4.9 1.6 9.7 2.5 15 6.3-.8 13.8-4.1 16.8 7.6 2.3 9.8.3 24.8-5.2 28.2m-121.6-.8c0-7 .6-14.1-.3-20.9-.5-3.4-3.7-6.3-5.7-9.4-2.2 3-5.8 5.7-6.3 9.2-1 6.8-.3 14-.3 21.7-6.2-3.3-7.2-13.1-4.8-36.6 7.2 4.9 19.3-8.2 22.4 9.5 1.5 8.7 2 18.6-.8 27.1q-2.25-.3-4.2-.6m-123.3 0v-36.2c7.5 4.9 20.3-8.3 22.5 11 .9 8.2 3.3 18.2-2.1 25.6-1-.1-2-.3-3-.4 0-7 .6-14.2-.3-21-.5-3.4-3.8-6.2-5.8-9.3-2.1 3.1-5.3 5.8-6.1 9.3-1.1 4.9-.1 10.5-.4 15.8-.2 2.1-1.6 4.1-2.5 6.2-.8-.4-1.6-.7-2.3-1m34.5-34.6c0 6.7-.7 13.6.3 20.2.5 3.4 3.8 6.2 5.9 9.2 2.1-3.2 5.3-6 6-9.6 1-5.4.1-11.3.5-16.9.1-1.5 2-2.7 3.1-4.1.8 1.3 2.2 2.7 2.2 4 .2 10.5.1 21 .1 32.9-8.1-5.8-21.1 7.8-23.2-11.6-.9-8.3-2.3-18 1.5-25.8 1.2.7 2.4 1.2 3.6 1.7m-157.1-1.6c-4.1 2.1-6.2 3.3-9.7 5.1 1.1-11.9 9.2-13 13.5-20.5 4 21.6 2.3 48.9-3.8 51.8z" class="st24"/><path d="M1266.6 388.7c2.4 5.3 4.2 9.4 6.2 13.8-6 7.7-5.9 20.8 1.4 32.6-5.6 1.8-9.7 1.4-10.7-6.9-1-8.6-3.1-17.1-2.9-25.6 0-4.7 3.9-9.3 6-13.9m196.3 47.4c-4.7-11.1-2-23.3-3.1-35.5h15.6c-15.4 6.2-7.7 23.7-12.5 35.5" class="st23"/><path d="M1480.9 424.5c-.6-12.5-1.2-25-1.9-39.3 3.3 1.3 6.5 2.1 6.5 2.8 0 12.2-.4 24.4-.7 36.6-1.2 0-2.6 0-3.9-.1m-290.8-26.2c2.8 1.9 5 2.6 5 3.5.3 10.2.4 20.4.2 30.5 0 1.2-1.7 2.4-2.6 3.5-.9-1.2-2.5-2.4-2.5-3.7-.1-10.6-.1-21.4-.1-33.8" class="st24"/><path d="M527.8 415.3v156.4c0 21.8-8.2 32.1-25.5 32.1h-131c-17.3 0-25.5-10.3-25.5-32.1V260.1c0-22.6 8-32.6 26-32.6 43.7 0 87.3-.1 131 0 16.7 0 25 10.5 25 31.5zm-124.4 30.3c2.6 20 11.2 31.6 24 33.4 16.8 2.4 32.4-8 38-27.2 7.6-26 7.8-52.6.5-78.7-4.8-17.1-15.1-27-30.1-27.8-14.4-.7-25.7 6.5-31.6 23-6.2 17.4-5.6 34.8 4.6 50 9.9 14.8 23.4 17.2 36.6 7.6 1.1-.8 2.2-1.4 4.3-2.6-1.9 13.6-1.2 28.4-13.2 31.9-4.7 1.4-11.1-5.7-16.7-9 .3-1.2.6-2.4.9-3.7-5.5 1.1-11.2 2-17.3 3.1" class="st2"/><path d="M402.2 81.3c0-8.7-.1-17.3 0-26 .1-9 3.6-13.9 11.1-13.9 13.9 0 27.8-.2 41.7.1 8.5.2 12.5 5.5 12.7 16.3q.3 24.3 0 48.6c-.1 11.3-4.3 16.5-13.3 16.6-13.6.2-27.2 0-40.8.1-8 .1-11.4-5.2-11.4-14.7zm51.4 18.1h-2.2c0-6.7.4-13.4-.1-20-.3-3.8-1.4-8.2-3.2-11.1-6.6-10.2-20.8-14.9-30.2-9.8-9.5 5.1-5 16.3-6 25-.1 1.1 0 2.3 0 3.4-.3 33.5-.2 29.4 23.5 29.4 16.5 0 22.9-8.1 22.9-29 0-9 .3-18.1-.2-27.1-.2-3.4-1.4-7.5-3.3-9.8-3.9-4.7-31.6-2.9-35.6 1.7-.3.3-.1 1.3-.1 1 9.2 0 18.5-.3 27.7.2 2.3.1 6.5 3.1 6.6 4.9.5 13.8.2 27.5.2 41.2" class="st27"/><path d="M564.4 476.1v-23.3h19.4v23.3zm.2-70.6v-23.2h19.3v23.2z" class="st2"/><path d="M281.7 733.5c-2.2-1.5-4.4-3.1-6.6-4.6-.4-.6-.9-1.2-1.3-1.8 5.9-7.3 6 4 9.5 4.5-.6.7-1.1 1.3-1.6 1.9m9.3 8.9-6.3-5.7c.5-.6 1-1.2 1.4-1.8 2.1 1.9 4.1 3.9 6.2 5.8-.5.6-.9 1.1-1.3 1.7m-23.8-13.5c-1.7-1-3.4-1.9-5-2.9.4-.9.8-1.9 1.2-2.8 1.7 1.3 3.5 2.6 5.2 3.8-.4.7-.9 1.3-1.4 1.9m1.5-1.8h5.1c.4.6.9 1.2 1.3 1.8-2.6 5-5.2 5-7.9 0z" class="st23"/><path d="M283.3 731.7c.9 1.1 1.9 2.1 2.8 3.2-.5.6-1 1.2-1.4 1.8-1-1.1-1.9-2.1-2.9-3.2q.6-.9 1.5-1.8" class="st23"/><path d="m250.3 740.9 2.1-.3c-.4.5-.8 1.1-1.3 1.6-.2-.4-.5-.8-.8-1.3" class="st10"/><path d="M251.2 742.2c-.6.7-1.2 1.5-1.8 2.2-.3-.3-.6-.6-1-.9.6-.9 1.3-1.7 2-2.6.2.5.5.9.8 1.3m337.2-19.5c-1.4 1.2-2.4 2.7-3 2.5-.9-.3-1.6-1.8-2.4-2.8.7-.9 1.5-2.4 2.2-2.4.9-.1 1.7 1.3 3.2 2.7" class="st10"/><path d="M673.2 384c-6.1-1.3-11.7-2.4-17.2-3.6 1.2-19.8 11.2-32.9 26.2-35 17-2.3 31.2 7.7 35.4 25.5 3.7 15.5-2.7 26-12.3 34.5 19.9 14.2 19.9 28.3 15.7 46.2-4.4 18.8-20.5 29.6-37.7 27.4-15.8-2-27.1-16.8-29.3-39.6 3.1-.6 6.2-1.2 9.4-1.8 2.9-.6 5.8-1.2 8.6-1.7 6.4 17.5 12.2 23 20.1 19.5 7.7-3.3 12-13.9 10.2-25-2-12-8.2-16-22.8-13.9.6-6 1.2-11.8 1.8-18 7.7-2.5 17-3.6 15.9-16.9-.4-4.7-4.3-11.6-7.8-12.9-9-3.1-13.7 4.8-16.2 15.3m244.7-5.3c-4.4.9-8.8 2.3-13.3 2.4-2.2.1-4.5-2.1-6.5-3.7-3.8-2.9-7.9-9.4-11-8.6-4.5 1.2-9.3 6.5-11.9 11.7-2.6 5.4-2.7 12.8-3.7 18.4 7.6-2.1 14.8-6.3 21.6-5.3 6.6 1 13.9 6 18.6 12 11.1 14.1 11.6 31.9 5.8 49.5-5.4 16.3-15.9 23.9-30 24.1-15.5.2-26.4-9.1-31.7-26.5-8.2-27.1-7.9-54.9.7-81.8 5.9-18.6 22-28.5 37.9-25.3 12.9 2.5 21.3 14.2 23.5 33.1m-17.1 58.4c.2-13-4.8-21.1-13.3-21.5-8.3-.4-14.1 7.3-14.2 19-.1 12.8 5.8 21.6 14.5 21.7 7.8.2 12.8-7.3 13-19.2" class="st15"/><path d="M937.8 111.1c.3 1.3.6 2.6.8 3.9-.8-.6-1.6-1.1-2.5-1.7.6-.7 1.1-1.5 1.7-2.2" class="st17"/><path d="M612.6 119.4c-2.3 3.1-4 5.5-5.8 7.8-1.1-2.3-3.3-4.9-3-6.9.4-3 2.6-5.6 4.1-8.4 1.3 2.2 2.6 4.2 4.7 7.5" class="st22"/><path d="M622.7 102.9c5.3-1.5 5.2 3 5.1 7.3-3.3-.7-7.1-.9-5.1-7.3m245.4 11.7c0-1.7.1-3.5.1-5.2-.1 1.7-.1 3.4-.1 5.2" class="st17"/><path d="M638.2 112.5c-.6 4.7-1.3 9.4-1.9 14.2-1.5-.4-4.5-.9-4.4-1.2.3-4.7.9-9.3 1.4-14 1.7.3 3.3.6 4.9 1" class="st28"/><path d="M990.6 111.2c1 2.6 2.9 5.3 2.8 7.9-.1 2.8-2 5.5-3.2 8.2-1.6-2.2-4.4-4.2-4.6-6.5-.3-3 1.5-6.2 2.5-9.4.8-.1 1.6-.1 2.5-.2m-195.1 17c-1.2-2.6-3.4-5.3-3.2-7.6.3-3 2.6-5.7 4-8.6 1.4 2.1 3.7 4.1 3.9 6.3.2 3.1-1.3 6.3-2.1 9.5-.9.1-1.7.3-2.6.4" class="st25"/><path d="M1459.1 90.8c.8 38.8 2.8 33.1-23.4 33.6-7.2.1-14.5-.1-21.7 0-6.5.1-9.3-3.5-8.9-11.7.3-6.6.1-13.3.1-22.2 7.6 6.8 14.1 12.1 20 18.2 4.9 5.1 8.9 5.9 14 .3 5.8-6.3 12.5-11.5 19.9-18.2" class="st28"/><path d="M1458.9 82.3c-8.2 7.4-16.3 14.8-24.5 22-1 .8-3.2.8-4.1 0-8.3-7.2-16.4-14.6-24.1-24.2 17.5-3.3 34.6-3 51.6-2.3.3 1.5.7 3 1.1 4.5m-255.3 36.3V82.3c5.8 3 12.6 3.8 14.4 8 2.3 5.3 2.3 14.5 0 19.8-1.8 4.4-8.5 5.4-14.4 8.5" class="st27"/><path d="M1318.4 105.8c3.8-4.3 6.3-7 8.8-9.8 1.8 3.3 5.1 6.9 4.9 10-.3 3.6-3.8 6.8-5.9 10.1-2.1-2.8-4.3-5.7-7.8-10.3m42.6-.4c-4 4.9-6.5 7.9-8.9 10.8-2.3-3.2-6.3-6.4-6.4-9.7-.1-3.4 3.7-7 5.8-10.5 2.6 2.5 5.2 5.1 9.5 9.4m-242.9 305.4c-1.1 7.7 1.5 19.2-7.5 19-8.5-.2-7.3-11.4-7.3-18.9s-1-18.8 7.5-18.7c8.9.1 6.2 11.6 7.3 18.6" class="st28"/><path d="M1403.1 411.8c2.8-2.3 5.5-6.2 8.4-6.5 2.3-.2 4.8 4.1 7.3 6.4l-1.2 2.7h-12.8c-.6-.8-1.1-1.7-1.7-2.6m-106.5 2.8h-12.9c-.5-.7-1.1-1.5-1.6-2.2 2.5-2.5 4.9-7 7.3-6.9 2.8 0 5.5 4.1 8.3 6.4-.3.9-.7 1.8-1.1 2.7" class="st22"/><path d="M403.4 445.6c6.1-1.1 11.8-2 17.4-3-.3 1.2-.6 2.4-.9 3.7 5.6 3.2 11.9 10.4 16.7 9 12-3.5 11.3-18.3 13.2-31.9-2 1.2-3.2 1.8-4.3 2.6-13.2 9.6-26.6 7.1-36.6-7.6-10.2-15.2-10.8-32.6-4.6-50 5.9-16.5 17.2-23.7 31.6-23 15 .7 25.2 10.6 30.1 27.8 7.4 26.1 7.1 52.8-.5 78.7-5.6 19.1-21.1 29.5-38 27.2-12.9-1.9-21.5-13.5-24.1-33.5m44.4-56.1c0-12.6-6-21.5-14.6-21.5-7.6 0-12.7 7.8-12.8 19.4-.1 12.7 5.2 21.1 13.5 21.3 8.3.3 13.9-7.5 13.9-19.2" class="st15"/><path d="M453.6 99.4c0-13.7.3-27.5-.3-41.1-.1-1.9-4.2-4.8-6.6-4.9-9.2-.6-18.5-.2-27.7-.2 0 .3-.2-.7.1-1 4-4.6 31.7-6.4 35.6-1.7 1.9 2.3 3.1 6.4 3.3 9.8.4 9 .2 18.1.2 27.1 0 20.9-6.4 29-22.9 29-23.7 0-23.8 4.1-23.5-29.4 0-1.1-.1-2.3 0-3.4 1-8.7-3.5-19.9 6-25 9.4-5.1 23.6-.4 30.2 9.8 1.9 2.9 2.9 7.3 3.2 11.1.5 6.6.1 13.3.1 20 .9 0 1.6 0 2.3-.1m-6-23.1c-3.7-2.1-8.1-3-8.7-5.3-3.3-13.8-11.9-6.2-18.1-7.4-1.1-.2-4 4.2-4.1 6.6-.4 11.3-.6 22.6.1 33.9.1 2.7 3.4 7 5.5 7.3 25.1 3.7 25.6 3.1 25.3-28.3-.1-2.2 0-4.4 0-6.8" class="st23"/><path d="M900.8 437.1c-.2 11.9-5.2 19.3-12.9 19.2-8.7-.1-14.6-8.9-14.5-21.7 0-11.6 5.8-19.4 14.2-19 8.4.5 13.4 8.6 13.2 21.5m-453-47.6c0 11.7-5.6 19.5-13.9 19.2-8.2-.2-13.5-8.7-13.5-21.3.1-11.6 5.1-19.4 12.8-19.4 8.6 0 14.6 8.9 14.6 21.5" class="st10"/><path d="M447.6 76.3v6.8c.3 31.4-.1 32-25.3 28.3-2.1-.3-5.4-4.6-5.5-7.3-.6-11.3-.5-22.6-.1-33.9.1-2.4 3-6.9 4.1-6.6 6.2 1.2 14.9-6.3 18.1 7.4.5 2.4 5 3.2 8.7 5.3m-4.5 14.1c0-.7 0-1.3-.1-2h-22.3c0 .7.1 1.3.1 2zm.1 11.9c-.1-.8-.1-1.6-.2-2.4h-22.2c0 .8.1 1.6.1 2.4z" class="st25"/><path d="M443.1 90.4h-22.3c0-.7-.1-1.3-.1-2H443c.1.7.1 1.4.1 2" class="st10"/><path d="M443.2 102.3h-22.3c0-.8-.1-1.6-.1-2.4H443c0 .8.1 1.6.2 2.4" class="st24"/></svg>