<?xml version="1.0" encoding="utf-8"?>
<!-- Generator: Adobe Illustrator 25.0.0, SVG Export Plug-In . SVG Version: 6.00 Build 0)  -->
<svg version="1.1" id="Ebene_1" xmlns="http://www.w3.org/2000/svg" xmlns:xlink="http://www.w3.org/1999/xlink" x="0px" y="0px"
	 viewBox="0 0 1920 540" style="enable-background:new 0 0 1920 540;" xml:space="preserve">
<style type="text/css">
	.st0{fill:#80D2F8;}
	.st1{fill:#AE7636;}
	.st2{fill:#DAD2C6;}
	.st3{fill:#E9AC0A;}
	.st4{fill:#EBAE17;}
	.st5{fill:#D8AB4B;}
	.st6{fill:#F0BC3C;}
	.st7{fill:#6B6A56;}
	.st8{fill:#472305;}
	.st9{fill:#E7E1C8;}
	.st10{fill:#F3C141;}
	.st11{fill:#EEB72D;}
	.st12{fill:#EAB021;}
	.st13{fill:#CFC9BD;}
	.st14{fill:#C4C1B2;}
	.st15{fill:#2A1202;}
	.st16{fill:#B3B1A3;}
	.st17{fill:#D6CFC2;}
</style>
<g>
	<rect x="-36.4" y="-148.7" class="st0" width="2034.7" height="1111.3"/>
	<g>
		<path class="st1" d="M970.5,539.8c-22.2,0-44.4,0-66.6,0c-0.4-8.6-0.9-17.3-1.3-25.9c0.1-2.5,0.2-5,0.2-7.5
			c-0.4-4-0.7-8.1-1.1-12.1c0-1.1,0-2.2-0.1-3.3c0-1.8,0-3.6,0-5.4c0.2-0.2,0.7-0.4,0.6-0.5c-0.1-0.4-0.4-0.8-0.7-1.1
			c-0.3-1.8-0.6-3.6-0.9-5.4c0.4-0.5,0.5-1.1,0-1.7c0-2.4,0-4.7,0-7.1c0.3-2.3,0.6-4.6,1-6.9c0.3-0.2,0.8-0.4,0.8-0.6
			c-0.1-0.4-0.5-0.9-0.8-1.3c2.6-1.2,5.1-2.3,7.7-3.5c15.4-0.6,30.7-1.2,46.1-1.7c4.4,7.1,8.7,14.1,13.1,21.2
			c-0.4,1.1-0.9,2.3-1.3,3.4c0,1.1,0,2.3,0,3.4c1.9,5.9,3.8,11.8,5.7,17.7c-0.4,1.8-0.7,3.6-1.1,5.5c-0.4,1.1-0.8,2.1-1.2,3.2
			C970.7,520,970.6,529.9,970.5,539.8z"/>
		<path class="st2" d="M576.5,155.5c-0.9,0.6-1.8,1.1-2.7,1.7C574.7,156.6,575.6,156.1,576.5,155.5z"/>
		<path class="st3" d="M997.7,30.9c1.6,0.1,3.2,0.2,4.9,0.4c2.8,1.2,5.6,2.5,8.4,3.7c2.2,3.4,3.6,7.2,6.8,10.2
			c7.6,7.1,13,7,22.4-0.1c6.7,1.3,13.4,2.6,20.1,3.9c-3.4,1.7-6.8,3.4-10.2,5.2c-2.3,1.2-6.7,2.6-6.4,3.4c0.7,1.9,3.1,4,5.8,5.1
			c14.6,5.6,29.5,10.8,44.4,16.1c2.2,0.8,5,0.9,7.6,1.3c1.9-4.3,3.5-8.1,5.1-11.9c3.9,1.8,7.7,3.5,11.6,5.3c-3.5,5.3-1,7.8,8.8,6.9
			c4.8,2.3,9.7,4.6,14.5,6.9c1.9,7.6,3.7,15.2,5.6,22.8c-15.1-0.6-30.3-0.9-45.3-1.8c-11.6-0.7-17.1,1.7-15.7,8.9
			c-3.8,0-7.7-0.1-11.5-0.1l0.2,0.1c-1-1.2-1.9-2.4-2.9-3.7c-1.9,0.1-3.8,0.1-5.7,0.2c-1.9,3-5.3,6-5.6,9.1
			c-0.8,9.7-0.4,19.5-0.5,29.2c-0.9,3.5-1.7,7-2.6,10.5v0.1c-4.7-4.2-8.9-8.7-14.2-12.7c-12.4-9.2-33.3-14.9-33.4-29.3
			c0-0.6-2.9-1.2-4.4-1.8c-0.2-2.8-0.4-5.6-0.6-8.3c-1.9-5.9-7.2-3.3-12.9-2.3c-4.1,0.7-10.7,0.6-13.2-0.9
			c-19.5-11.8-37.7-24.5-57.5-36.1c-10-5.9-21.2-11.9-38.1-8.6C880.5,63,874,60,872,57.8c-6.9-7.7-12.7-15.9-18.9-23.9
			c-2.7,0.2-2.6-0.6-1.9-0.8c2-0.8,4.1-1.6,6.3-1.9c35.3-5.3,70.3-5.4,104.3,3c12.2,3,22.5,3.5,31.8-2.8
			C995,31.2,996.4,31.1,997.7,30.9z"/>
		<path class="st4" d="M993.6,31.4c-9.3,6.3-19.6,5.8-31.8,2.8c-34-8.4-69.1-8.3-104.3-3c-2.2,0.3-4.3,1.2-6.3,1.9
			c-0.7,0.2-0.8,1,1.9,0.8c6.2,8,12,16.1,18.9,23.9c2,2.2,8.5,5.2,11.2,4.7c17-3.3,28.1,2.7,38.1,8.6c19.8,11.7,38,24.3,57.5,36.1
			c2.5,1.5,9.1,1.5,13.2,0.9c5.7-0.9,11-3.5,12.9,2.3c-7.6-1-11.3,0.4-11.6,5.5c-0.4,6.2-2,12.4-3.1,18.6c-1.9,4.1-3.8,8.1-5.7,12.2
			c-5.6,2.3-11.2,4.7-16.8,7c0.2-2.5,1.6-5.3,0.4-7.5c-2-3.6-5.7-6.8-8.7-10.2c-1.3-1.6-2.5-3.2-3.8-4.7
			c-3.7-7.1-7.5-14.1-11.2-21.2c0.2-0.2,0.4-0.3,0.5-0.5c-0.2,0.2-0.3,0.3-0.5,0.5c-2.1,0.1-4.3,0.2-6.4,0.3h0.1
			c-3.6-2.3-6.5-5.8-10.9-6.7c-14-3-30.9,1.5-40.7,9.7c0,0.5-0.1,1.1-0.3,1.6c-1.6,1.3-3.2,2.6-4.8,3.9l-0.6,0.3
			c-3.1,2.7-6.2,5.5-9.4,8.2c-14.5-3.4-24.9,0.3-31.5,7.9c-4.8-3.3-8.2-5.6-11.6-7.9c-3.8-2.9-7.6-5.9-11.4-8.8
			c-2.9-2.3-5.9-4.5-8.8-6.8c-1.1-0.6-2.2-1.2-3.3-1.8v0.2c0.2-1.3,0.4-2.6,0.6-3.8c0.8-0.7,2.5-1.6,2.2-2.1
			c-4.1-8-3.9-16.6-19.3-21.9c-8.4-2.9-11.9-11-17.7-16.8c-2.8-2.9-4.6-6.8-8.8-8.4c-9-3.5-19.2-5.7-28.9-8.5
			c3.7-3,7.4-6.1,11.1-9.1l0,0c1.9-0.6,3.8-1.2,5.7-1.8h0.1c2-0.6,4-1.2,6-1.8c0.5-0.3,1-0.3,1.6-0.1c2.5-0.9,4.9-1.8,7.4-2.7
			c0.7-0.3,1.5-0.4,2.3-0.4c10-2.1,20-4.3,30-6.4c1.7-0.5,3.5-1.1,5.2-1.6c1.9-0.1,3.9-0.3,5.8-0.4c13.5,3.4,24.2-0.9,35-4.7
			c3.8-0.1,7.6-0.2,11.5-0.3c5.8-0.5,11.6-1,17.5-1.6c6.7-0.3,13.4-0.7,20.1-1c5.8,0,11.5,0,17.3,0c-0.2,0.3-0.3,0.7-0.4,1
			c5,0.4,9.9,0.8,14.9,1.2c3.9-0.1,7.7-0.3,11.6-0.4c-0.2,0.3-0.4,0.7-0.4,1c10.5,5,21.7,7.9,35.2,4.6c2.7-0.1,5.5-0.3,8.2-0.4
			c1.1,0.2,2.2,0.3,3.3,0.5c0,0.5,0,1,0.1,1.5c1.9,0.6,3.9,1.2,5.8,1.8c2.7,0.6,5.5,1.2,8.2,1.8C995.3,30.2,994.5,30.8,993.6,31.4z"
			/>
		<path class="st5" d="M1118.2,73.4c-3.9-1.8-7.7-3.5-11.6-5.3c-0.7-1.3-1.3-2.6-2-3.9c3.5,0.7,7.1,1.3,10.6,2
			c1.7,0.7,3.5,1.4,5.2,2.1c6.8,3.5,13.6,7,20.4,10.5l0.1-0.1c1,1.1,2.1,2.1,3.1,3.2c1.7,0.7,3.4,1.4,5.1,2.1
			c6.1,4,12.1,8,18.1,12.1c3.6,1.8,7.3,3.6,10.9,5.4c13.3,11.1,26.6,22.2,39.9,33.3c6,9.3,12,18.6,18,27.9c-2-1.1-4.6-2-6-3.4
			c-10.8-10.6-21.2-21.4-32.3-31.9c-2.2-2.1-6.8-4.5-10.5-4.6c-8-0.3-16.2,0.5-24.2,1.4c-8.6,1-16.2,3-16.9,9.7
			c-1.3,12.1-4.3,24.1-4.7,36.2c-0.2,8.9,2.3,17.8,20.9,20.7c3.4,0.5,6.9,5.3,6.7,8c-0.2,2.2-5.5,5.5-9.4,6
			c-16.1,2.2-34.8-4.6-36.4-13.9c-1.8-10.8-0.4-21.8-0.5-32.7c-0.1-10.6,1.6-21.5-1.9-31.6c-0.9-2.6-18.6-3-28.6-4.5
			c0-1.2,0-2.3,0.1-3.5c7.8,1.2,15.7,3.5,23.5,3.5c13.1,0,14.6,3.6,13.7,10.3c-1.8,14.4-3.2,28.9-2.6,43.3c0.3,6.6,4,13.6,9,19.6
			c7.7,9.3,16.8,9.7,32.2,2.2c-4.7-1.4-8.8-2.4-12.5-3.8c-4.7-1.8-11.2-3.3-13.1-6c-15.8-21.8-2.4-43.3,0.7-65
			c11.8-0.3,21.6-0.2,31-1.1c2.9-0.3,5-3.4,7.4-5.2c-3-1.4-5.9-3.7-9.2-3.9c-6.6-0.4-13.3,0.3-20,0.5c3.9-1,7.9-2,11.8-3
			c0.7-2.2,3.3-5.4,1.7-6.5c-7.7-5.7-16.4-10.9-24.8-16.3c-4.8-2.3-9.7-4.6-14.5-6.9C1124,78,1121.1,75.7,1118.2,73.4z"/>
		<path class="st4" d="M1104.6,64.2c0.7,1.3,1.3,2.6,2,3.9c-1.6,3.8-3.2,7.5-5.1,11.9c-2.5-0.4-5.4-0.6-7.6-1.3
			c-14.9-5.3-29.8-10.6-44.4-16.1c-2.7-1-5.1-3.2-5.8-5.1c-0.3-0.8,4.2-2.3,6.4-3.4c3.4-1.7,6.8-3.4,10.2-5.2
			c3.2,0.4,6.4,0.8,9.6,1.1c1.7,0.7,3.4,1.4,5.1,2.1c1.2,0.5,2.4,0.9,3.6,1.4c2.6,0.8,5.2,1.6,7.8,2.4c2.9,1.2,5.7,2.3,8.6,3.5
			l0.1,0.1c1,0.5,2,1.1,3,1.6l0,0c2.1,1,4.1,2,6.2,3.1C1104.3,64,1104.6,64.2,1104.6,64.2z"/>
		<path class="st4" d="M1040.2,45c-9.4,7.1-14.8,7.2-22.4,0.1c-3.2-3-4.6-6.8-6.8-10.2c1.4-0.3,2.7-0.6,4.1-1
			c3.4,0.4,6.9,0.8,10.3,1.3c2.1,1,4.2,1.9,6.3,2.9c1.7,0.2,3.5,0.3,5.2,0.5C1038,40.8,1039.1,42.9,1040.2,45z"/>
		<path class="st5" d="M1040.2,45c-1.1-2.1-2.2-4.3-3.2-6.4c11,3.8,22,7.6,33,11.4c-3.2-0.4-6.4-0.8-9.6-1.1
			C1053.6,47.6,1046.9,46.3,1040.2,45z"/>
		<path class="st6" d="M967.6,22.2c1.1,0.2,2.2,0.3,3.3,0.5c-0.2,0.6-0.3,1.1-0.3,1.7c-13.5,3.3-24.7,0.4-35.2-4.6
			c2.1-0.2,4.1-0.4,6.2-0.7C950.2,20.2,958.9,21.2,967.6,22.2z"/>
		<path class="st5" d="M1015.1,34c-1.4,0.3-2.7,0.6-4.1,1c-2.8-1.2-5.6-2.5-8.4-3.7C1006.8,32.1,1010.9,33.1,1015.1,34z"/>
		<path class="st5" d="M1094.9,59.3c-2.9-1.2-5.7-2.3-8.6-3.5C1089.2,57,1092.1,58.2,1094.9,59.3z"/>
		<path class="st5" d="M1104.3,64c-2.1-1-4.1-2-6.2-3.1C1100.2,62,1102.3,63,1104.3,64z"/>
		<path class="st5" d="M1031.7,38.1c-2.1-1-4.2-1.9-6.3-2.9C1027.5,36.2,1029.6,37.2,1031.7,38.1z"/>
		<path class="st6" d="M984.5,25.4c1.4,0.2,2.7,0.5,4.1,0.7c-0.2,0.6-0.4,1.2-0.7,1.7c-1.9-0.6-3.9-1.2-5.8-1.8
			C983,26,983.8,25.8,984.5,25.4z"/>
		<path class="st5" d="M1078.6,53.5c-1.2-0.5-2.4-0.9-3.6-1.4C1076.2,52.6,1077.4,53,1078.6,53.5z"/>
		<path class="st6" d="M993.6,31.4c0.8-0.6,1.7-1.2,2.5-1.8c0.7,0.3,1.3,0.7,1.6,1.2C996.4,31.1,995,31.2,993.6,31.4z"/>
		<path class="st5" d="M1098.1,61c-1-0.5-2-1.1-3-1.6C1096.1,59.9,1097.1,60.5,1098.1,61z"/>
		<path class="st7" d="M968.6,477.1c-4.4-7.1-8.7-14.1-13.1-21.2c-0.4-0.8-0.6-2.1-1.3-2.2c-14.2-2.2-28.6-4-42.7-6.3
			c-3-0.5-5.3-2.4-7.9-3.7c1-0.1,2.1-0.2,3.1-0.2c4.5,0.3,9.1,1,13.4,0.8c9.2-0.6,19.4-3.7,27.1-2.1c10.3,2.1,13.7,0.4,18-4.3
			c1.2-1.3,5.1-1.7,7.8-2.6c0.3,0.5,0.4,0.9,0.4,1.4c-12.6,5.9-0.6,12.9-2.3,19.3c-0.1,5.2-0.1,10.4-0.2,15.6
			c-0.4,1.8-0.7,3.7-1.1,5.5L968.6,477.1z"/>
		<path class="st5" d="M903.5,443.6c2.6,1.3,5,3.2,7.9,3.7c14.2,2.3,28.5,4.2,42.7,6.3c0.7,0.1,0.9,1.5,1.3,2.2
			c-15.4,0.6-30.8,1.2-46.1,1.7c-5.6-1.9-11.1-3.9-16.7-5.8l0.3-0.8c2.9-2.6,5.9-5.1,8.8-7.7C902.4,443.4,902.9,443.5,903.5,443.6z"
			/>
		<path class="st8" d="M968.6,477.1h1.2c2.1,7.5,4.2,15.1,6.4,22.6c-1,0.6-2.1,1.3-3.1,1.9c-1.9-5.9-3.8-11.8-5.7-17.7
			c0-1.1,0-2.3,0-3.4C967.7,479.3,968.1,478.2,968.6,477.1z"/>
		<path class="st5" d="M902.5,513.9c0.1-2.5,0.2-5,0.2-7.5C902.7,508.8,902.6,511.3,902.5,513.9z"/>
		<path class="st5" d="M901.7,494.2c0-1.1,0-2.2-0.1-3.3C901.7,492.1,901.7,493.1,901.7,494.2z"/>
		<path class="st7" d="M967.2,480.4c0,1.1,0,2.3,0,3.4C967.3,482.7,967.3,481.6,967.2,480.4z"/>
		<path class="st5" d="M901.7,463c0-0.6,0-1.2,0-1.9c0.3,0.4,0.7,0.8,0.8,1.3C902.5,462.6,902,462.8,901.7,463z"/>
		<path class="st9" d="M900.7,478.6c-0.3-0.4-0.7-0.8-0.8-1.2c0-0.1,0.6-0.3,0.9-0.5C901.1,477.5,901.1,478,900.7,478.6z"/>
		<path class="st5" d="M901.6,485.6c-0.5-0.5-0.5-1.1-0.1-1.6c0.2,0.4,0.6,0.7,0.7,1.1C902.3,485.2,901.9,485.4,901.6,485.6z"/>
		<path class="st6" d="M854.8,19.6c-0.1-0.7-0.1-1.5-0.2-2.2c5.9,0.2,11.8,0.4,17.7,0.7C866.4,18.5,860.6,19,854.8,19.6z"/>
		<path class="st6" d="M924.2,19.2c-5-0.4-9.9-0.8-14.9-1.2c5-0.2,10.1-0.5,15.1-0.7C924.4,17.9,924.3,18.5,924.2,19.2z"/>
		<path class="st6" d="M519.9,342.5c3.3-1.9,6.6-3.8,9.9-5.7c2,4-3.3,10.1,8,11.2c19,1.8,38.1,3.2,57.1,4.5c1.5,0.1,3.2-1,4.9-1.5
			c17.7,2.3,35.5,4.7,53.2,7c12.7,1.7,17.7-1,10.1-6.9c-10.1-7.8-24.3-14.9-39.3-18.7c-16.8-4.2-24.5-14.8-41.3-18.2
			c-0.3-0.1-0.2-1.1-0.2-1.7c7.8-4.8,17-9.5,4.4-16.4c-1-0.6-0.8-2.2-0.6-3.3c0.6-6.3,2-12.7,1.9-19c-0.1-5.6-0.1-10.2,11.9-11.4
			c3.2-0.3,6.9-3.1,8.2-5.3c5.1-8.5,16.5-10.1,27.7-4.1c4.5,2.4,12,5.3,16.6,4.6c13-2,30.8-2.1,26.8-15.6c-0.7-2.5,2.1-5.8,4.9-8
			c5.6-4.5,5.1-8.4,2-13.7c-3.7-6.2-6-13.3-5.2-19.8c0.6-5.1,6.8-9.9,10.1-14.3c1.9,1,6.2,3.4,10.6,5.7c4,2.4,7.4,5.9,12.1,6.7
			c3.9,0.7,9.8-1.5,13.7-3.3c1.1-0.5-0.9-4.7-3.2-6.2c-5.2-3.5-11.4-6.4-17.2-9.6c-2.8-9.8,12.1-9.9,20.4-13.7
			c3.9,4,7.3,8.3,12.1,12c1.7,1.3,7,1.8,10,1.3c1.9-0.3,3.6-3.1,3.7-4.9c0.4-6.9-0.3-13.8,0.5-20.7c0.2-2.4,3.5-4.6,5.3-6.9
			c0.5,11.3,0.9,22.6,1.4,33.9c-0.4,4.4-0.8,8.8-1.2,13.3c-5.4,2.7-11.7,5-16.1,8.1c-4.9,3.5-9.8,7.5-11.7,11.8
			c-1.9,4.2-0.2,9-0.1,13.6c5.3-0.8,10.6-1.4,15.8-2.4c2.2-0.4,4-1.6,5.9-2.4c8.8-3.5,14.7-4.1,22,2.7c6.6,6.1,17.9,10.2,17.3,18.9
			c-0.1,0.7,5.5,1.5,8.3,2.5c8.6,3,19.2,4.2,18.6,13c-0.2,3.3,8.6,6.9,13.3,10.3c3.6,2.6,7.5,5.1,11.2,7.7c2.3,1.6,4.6,3.3,6.9,5
			c3.9-2.7,6.7-4.7,9.6-6.7c-4.7,12.8-9.4,25.6-14.1,38.5c-13.9-18.9-24.4-37-35.1-55.1c-3.2-5.4-8.4-9.7-19.5-9.5
			c-10.7,4.7-9.1,12.1-8.8,18.4c0.9,19.5,3.3,39,5.1,58.5c-2.8,1.7-6,3.3-8.3,5.2c-3.4,3-4.8,7.4-9.2,9.1
			c-13.1,5.2-27.6,9.2-41,14.2c-4.1,1.5-9.9,6.3-8.9,7.1c13.2,11.4,26.5,22.9,41.9,33.1c6.4,4.3,13.4,7.2,11.3,13.5
			c-8-1.7-16.5-2.8-24-5c-28.9-8.6-57.4-17.6-86.1-26.4c-1.9-0.6-3.8-1.3-5.7-1.9c-6.1-1.7-12.2-3.5-18.3-5.2
			c-3.4-2.1-6.3-5.6-10.4-6.2c-25.8-4.1-51.9-7.5-77.9-11.2C539.2,351.3,524.3,352.6,519.9,342.5z"/>
		<path class="st10" d="M701.5,192.1c-4.3-2.4-8.7-4.7-10.6-5.7c-3.3,4.4-9.5,9.2-10.1,14.3c-0.8,6.5,1.6,13.5,5.2,19.8
			c3.1,5.2,3.6,9.2-2,13.7c-2.8,2.2-5.6,5.6-4.9,8c4,13.5-13.8,13.6-26.8,15.6c-4.7,0.7-12.1-2.2-16.6-4.6
			c-11.2-6-22.7-4.4-27.7,4.1c-1.3,2.1-5,5-8.2,5.3c-11.9,1.2-12,5.8-11.9,11.4c0.1,6.3-1.3,12.7-1.9,19c-0.1,1.1-0.4,2.7,0.6,3.3
			c12.6,6.9,3.4,11.6-4.4,16.4c-4.9,1.2-9.7,2.4-14.6,3.7c-1.1-0.2-2.3-0.3-3.4-0.5c23.1-21.1,14.3-44.1,10.7-66.6
			c-6-37.5-5.3-74.6,18.8-110.1c8.1-11.9,18.7-23.2,28.1-34.7c0.7,6.3,1,12.7,2,19c1.4,8.8-4.5,12.7-20.3,12
			c-1.7,3.7-3.4,7.5-5.2,11.5c7.2,0.5,12.7,2,16.2,1c10.8-3.2,22.9-6.2,30.7-11.4c6.8-4.5,8.5-11.8,12.4-17.8
			c-8.2,24.8-11.7,50.4-30.7,73.6c-1.4,1.7,0.3,4.2,0.5,6.4c3.7-0.7,8.3-0.9,10.9-2.4c2.4-1.4,3-4,4.1-6.2
			c3.3-6.5,6.6-13.1,9.6-19.3c13,0.8,27-0.7,34.9,2.8C695.2,177.2,697,185.8,701.5,192.1z"/>
		<path class="st11" d="M758.8,146.8c-1.9,2.3-5.1,4.5-5.3,6.9c-0.7,6.9,0,13.8-0.5,20.7c-0.1,1.7-1.8,4.6-3.7,4.9
			c-3.1,0.5-8.3,0-10-1.3c-4.7-3.7-8.1-7.9-12.1-12c-0.1-1.8-0.2-3.6-0.3-5.4v0.2c-1-3.5-1.9-6.9-2.9-10.4
			c-7.8,2.2-15.7,4.4-22.9,6.4c-4.9-4.8-9.2-8.9-13.4-13.1c-2.5-8.2-3.7-16.6-8-24.4c-2.3-4.1-1.1-12-15.2-10.7
			c-2.2-1.5-4.8-2.9-6.7-4.5c-4.1-3.7-7.9-7.6-11.8-11.5c-0.2-2.4-0.3-4.8-0.5-7.3l0.1-0.1c9,0.9,11.2-2.4,11.6-6.9v-0.1
			c2.9-1.8,5.8-3.5,8.6-5.3h0.1c11.5,2.5,11.6-2.3,12-6.8c8.6-4,17.3-8,25.9-12.1c1-0.7,2-1.3,2.9-2h-0.1c4.9-0.5,9.8-1.1,14.7-1.6
			c6.3,6.8,11,14.5,19.4,20.3c11.6,8,30.8,11.7,34.4,24.2c0.7,2.3,7.1,4.4,11.5,5.9c6,2.1,12.5,3.7,18.8,5.5
			c-0.2,1.3-0.4,2.6-0.6,3.8c-10.5-0.8-20.9-1.7-31.4-2.5c-16.4-2.5-22.9-0.7-23.5,6.5l-0.6,0.4c-1.4,1.4-2.8,2.9-4.2,4.3h0.1
			c-4.4,5.1-8.9,10.1-13.6,15.5c11.3,0.7,19.5,1.1,27.7,1.6C759.2,139.7,759,143.2,758.8,146.8z"/>
		<path class="st6" d="M646.1,92.6c3.9,3.8,7.6,7.7,11.8,11.5c1.8,1.7,4.4,3,6.7,4.5c-2.2,3.4-4.4,6.8-6.6,10.2
			c-3.9,6.1-5.6,13.4-12.4,17.8c-7.8,5.2-19.9,8.2-30.7,11.4c-3.5,1-9-0.5-16.2-1c1.8-4,3.6-7.8,5.2-11.5c15.8,0.6,21.7-3.2,20.3-12
			c-1-6.3-1.4-12.7-2-19l0.3,0.1c6.1-1,15.1-0.7,7.9-7.1c1.1-1.1,2.3-2.2,3.4-3.3C637.8,93.6,642,93.1,646.1,92.6z"/>
		<path class="st12" d="M564.4,315.9c1.1,0.2,2.3,0.3,3.4,0.5c6.6,5.2,17.2,10,18.8,15.7c2.1,7.4,5.2,13.6,13.2,19
			c-1.6,0.5-3.4,1.6-4.9,1.5c-19.1-1.4-38.2-2.7-57.1-4.5c-11.4-1.1-6.1-7.3-8-11.2h0.2c3.9-1.8,7.9-3.6,11.8-5.4l1.2-0.2
			c17.2,0.8,19.8-1.1,15.3-10.8C560.4,319,562.4,317.4,564.4,315.9z"/>
		<path class="st6" d="M721.3,50.6c-4.9,0.5-9.8,1.1-14.7,1.6c12.5-4.2,25-8.3,37.5-12.5c-3.7,3-7.4,6.1-11.1,9.1
			C729.1,49.5,725.2,50,721.3,50.6z"/>
		<path class="st6" d="M558.3,320.5c4.5,9.7,1.9,11.5-15.3,10.8C548.2,327.7,553.2,324.1,558.3,320.5z"/>
		<path class="st6" d="M785.7,26.2c0.7,0.1,1.5,0.1,2.2-0.1c2.9,0,5.7,0,8.6-0.1l0.8,0.6c-10,2.1-20,4.3-30,6.4
			C773.4,30.7,779.5,28.5,785.7,26.2z"/>
		<path class="st10" d="M646.1,92.6c-4.1,0.5-8.3,1-12.5,1.5c4-2.9,8-5.8,11.9-8.7C645.8,87.7,645.9,90.2,646.1,92.6z"/>
		<path class="st10" d="M630.3,97.4c7.2,6.3-1.8,6.1-7.9,7.1C625,102.1,627.6,99.8,630.3,97.4z"/>
		<path class="st10" d="M677.9,66.2c-0.4,4.6-0.5,9.3-12,6.8C670,70.8,673.9,68.5,677.9,66.2z"/>
		<path class="st10" d="M657.3,78.4c-0.4,4.4-2.6,7.8-11.6,6.9C649.5,83,653.4,80.7,657.3,78.4z"/>
		<path class="st10" d="M665.9,73c-2.9,1.8-5.8,3.5-8.6,5.3C660.1,76.6,663,74.8,665.9,73z"/>
		<path class="st6" d="M541.8,331.5c-3.9,1.8-7.9,3.6-11.8,5.4C533.9,335.1,537.9,333.3,541.8,331.5z"/>
		<path class="st6" d="M764.9,33.4c-2.5,0.9-4.9,1.8-7.4,2.7C760,35.1,762.5,34.3,764.9,33.4z"/>
		<path class="st6" d="M749.8,38c-1.9,0.6-3.8,1.2-5.7,1.8C746,39.2,747.9,38.6,749.8,38z"/>
		<path class="st6" d="M756,36.2c-2,0.6-4,1.2-6,1.8C752,37.4,754,36.8,756,36.2z"/>
		<path class="st13" d="M570.7,263.8c-0.3-0.4-0.7-0.8-0.9-1.2c0-0.1,0.6-0.3,0.9-0.5C570.8,262.6,570.8,263.2,570.7,263.8z"/>
		<path class="st6" d="M706.8,52.2c-1,0.7-2,1.3-2.9,2C704.8,53.5,705.8,52.9,706.8,52.2z"/>
		<path class="st14" d="M1144.1,81.9c-1-1.1-2.1-2.1-3.1-3.2C1142,79.8,1143.1,80.9,1144.1,81.9z"/>
		<path class="st12" d="M1005.5,118.8c1.5,0.6,4.4,1.2,4.4,1.8c0,14.4,20.9,20.1,33.4,29.3c5.3,3.9,9.5,8.4,14.2,12.7
			c-0.9,5.9-1.7,11.8-2.6,17.6h0.3c-5,4-10,8.1-15,12.1v-0.1c-6.9,0-13.8,0-20.7,0l-0.1,0.1c-4.1-3.4-8.2-6.9-12.3-10.3h0.2
			c-1.5-2.5-3.1-4.9-4.6-7.4c-0.4-11.1-1.4-22.2-1-33.2C1001.9,133.9,1004.1,126.3,1005.5,118.8z"/>
		<path class="st15" d="M1005.5,118.8c-1.4,7.6-3.6,15.1-3.9,22.7c-0.4,11.1,0.6,22.1,1,33.2c1.5,2.5,3.1,4.9,4.6,7.4h-0.2
			c4.1,3.4,8.2,6.9,12.3,10.3l0.1-0.1c6.9,0,13.8,0,20.7,0v0.1c5-4,10-8.1,15-12.1h-0.3c2.8-6.6,7-13.1,8-19.9
			c2-12.2,2.2-24.5,3-36.8c0.2-3.6-0.4-7.3,8.8-6.4l-0.2-0.1c1.2,1.7,2.4,3.4,3.6,5.1c-1.2,15.2-2.4,30.4-3.7,45.5v-0.2
			c-3.5,6.8-7,13.7-10.5,20.5c-0.7,0.4-0.8,0.9-0.5,1.4c-1.3,1.5-2.6,3-3.9,4.4c-0.7,0.5-1.5,1-2.2,1.5c-1.9,1.3-3.8,2.6-5.6,3.9
			l0,0c-2.5,1.1-5,2.2-7.5,3.3l-0.6-0.2l-0.5,0.3c-1.7,0.4-3.3,0.9-5,1.3l-1.2-0.1c-8.5-1.1-17-2.2-25.4-3.2l0.1,0.1
			c-5.5-4.7-10.9-9.4-16.4-14.2l0.2-0.3c-0.8-1.5-1.5-2.9-2.3-4.4c-0.6-1.2-1.2-2.4-1.8-3.6c-0.3-14.6-0.7-29.1-1-43.7
			c1.1-6.2,2.7-12.4,3.1-18.6c0.3-5,4-6.5,11.6-5.5C1005.1,113.2,1005.3,116,1005.5,118.8z"/>
		<path class="st4" d="M1141.5,87.2c8.4,5.4,17.1,10.6,24.8,16.3c1.5,1.1-1.1,4.3-1.7,6.5c-5.8,0-11.7,0-17.5-0.1
			C1145.2,102.4,1143.3,94.8,1141.5,87.2z"/>
		<path class="st5" d="M1074.7,117.2c-9.1-1-8.5,2.8-8.8,6.4c-0.8,12.3-1,24.6-3,36.8c-1.1,6.7-5.3,13.2-8,19.9
			c0.9-5.9,1.7-11.8,2.6-17.6v-0.1c0.9-3.5,1.7-7,2.6-10.5c0.1-9.7-0.3-19.5,0.5-29.2c0.3-3.1,3.6-6.1,5.6-9.1
			c1.9-0.1,3.8-0.1,5.7-0.2C1072.7,114.7,1073.7,115.9,1074.7,117.2z"/>
		<path class="st12" d="M1147.1,110c5.8,0,11.7,0,17.5,0.1c-3.9,1-7.9,2-11.8,3c-19.7,0-39.3,0-60.1,0c0,1,0,3.3,0,5.5
			c0,1.2,0,2.3-0.1,3.5c-2.1-1.6-4.2-3.3-6.3-5l-0.2,0.1c-1.4-7.2,4.1-9.6,15.7-8.9C1116.8,109.1,1132,109.4,1147.1,110z"/>
		<path class="st4" d="M1118.2,73.4c2.9,2.3,5.9,4.6,8.8,6.9C1117.2,81.2,1114.7,78.7,1118.2,73.4z"/>
		<path class="st5" d="M1078.1,122.1c-1.2-1.7-2.4-3.4-3.6-5.1c3.8,0,7.7,0.1,11.5,0.1l0.2-0.1c-1,1.7-1.9,3.4-2.9,5.1
			C1081.6,122.2,1079.9,122.2,1078.1,122.1z"/>
		<path class="st12" d="M1060,152c-0.9,3.5-1.7,7-2.6,10.5C1058.3,159,1059.2,155.5,1060,152z"/>
		<path class="st12" d="M1071.8,113.5c-1.9,0.1-3.8,0.1-5.7,0.2C1068,113.6,1069.9,113.5,1071.8,113.5z"/>
		<path class="st11" d="M860.1,276c-2.9,2-5.8,4-9.6,6.7c-2.3-1.7-4.6-3.3-6.9-5c-3.7-2.6-7.5-5.1-11.2-7.7
			c-4.8-3.4-13.5-7-13.3-10.3c0.5-8.8-10-10-18.6-13c-2.8-1-8.4-1.7-8.3-2.5c0.6-8.7-10.7-12.8-17.3-18.9c-7.3-6.8-13.2-6.2-22-2.7
			c-2,0.8-3.8,2-5.9,2.4c-5.2,1-10.5,1.6-15.8,2.4c-0.1-4.6-1.8-9.4,0.1-13.6c2-4.3,6.8-8.3,11.7-11.8c4.5-3.2,10.7-5.5,16.1-8.1
			c3.6,12.1,6,12.7,23.9,6.5c10.4,0,21.5,1.6,30.9-0.2c23.1-4.4,27.6-16.1,26.4-29.1c-0.4-1-0.8-2-1.2-3l0.4-0.1
			c0.6-4.4,3.5-9.5-7.7-10.9l-0.1-0.1c-8-9.6-1.4-19.7-3.2-29.5c3.4,2.3,6.7,4.6,11.6,7.9c6.7-7.6,17-11.3,31.5-7.9
			c-1.7,14.3-5.9,28.6-4.2,42.8c1,8.3,9.3,17.2,18.2,23.9c15.4,11.7,34.6,10.4,50.8-1.5v-0.1c0.8-0.7,1.6-1.4,2.4-2.1
			c3.7-1.9,7.4-3.9,11.1-5.8c6.8,4,11.6,8.5,8.3,14.5c-3.6,6.5-12.2,6.7-21.9,7.3c-4.4,0.3-10.1,4-11.9,6.9
			c-6.3,10.4-11.1,21.2-16.6,31.9c-3.6,6.9,2.9,14.2,14.6,16.5c6,1.2,11.8,2.7,17.1,4c3.6-1.2,7.2-2.5,10.8-3.7
			c1.1,0.6,2.1,1.1,3.2,1.7c-0.8,9.8-1.4,19.7-2.5,29.5c-0.2,1.5-2.2,3-3.8,4.3c-2.7,2.3-5.8,4.5-8.7,6.7c4.4,1.5,8.7,3.1,12.4,4.3
			c2.9,8.3,5.7,16.4,8.5,24.6c-4.1-1.2-8.1-2.3-13.3-3.8c-5.9,7.8-14.2,1.6-22.1,0.6c0.5-5-3.2-7.4-11.7-6.7v0.1
			c-4.8-4.2-12.1-6.8-11.7-13.7c0.9-15.9-1.1-31.8-2.6-47.7c-0.3-3-3.9-5.9-6-8.8c-0.9-1-1.8-2-2.7-3c-1.3-0.6-2.7-1.3-4-1.9
			C863.1,253.1,868.7,266.9,860.1,276z"/>
		<path class="st12" d="M950.2,262.1c-3.6,1.3-7.2,2.5-10.8,3.7c-5.2-1.2-11.1-2.8-17.1-4c-11.7-2.3-18.2-9.6-14.6-16.5
			c5.5-10.6,10.3-21.4,16.6-31.9c1.8-2.9,7.5-6.6,11.9-6.9c9.6-0.6,18.3-0.8,21.9-7.3c3.3-6-1.5-10.5-8.3-14.5
			c-0.1-0.5,0.1-0.9,0.7-1.3c1.7-2.7,3.3-5.4,5-8.1l-0.2-0.6c5-3.5,10-7,15-10.5c-1-1.2-2-2.4-3-3.6c0.1-2.3,0.1-4.6,0.2-7
			c5.6-2.3,11.2-4.7,16.8-7c0.1,7.6-0.3,15.1,0.7,22.6c0.4,3,3.9,5.9,6,8.8c0.6,1.2,1.2,2.4,1.8,3.6c0.8,1.5,1.5,2.9,2.3,4.4
			l-0.2,0.3c-0.2,7.1,0.4,13.9,16.4,14.2l-0.1-0.1c1.4,8.6,12.8,4.4,19.9,5.7c-5.6,11.6,13.1,16.3,19.3,22.4
			c-6.2,4.9-11.8,8-14.6,11.9c-4.6,6.3-7.3,13.1-10.9,19.8c-2.5-1.6-5.1-3.3-7.6-4.9l-0.7-0.2c-7.2-6.1-33.2-10.3-45.8-6.8
			c-3.4,0.9-5.3,3.7-8,5.7l-1.3-0.2l1.3,0.3c-11.5-0.3-5.4,5.1-7.1,8l0,0C954,262,952.1,262.1,950.2,262.1z"/>
		<path class="st8" d="M840.2,171.1c1.2,13-3.3,24.7-26.4,29.1c-9.4,1.8-20.6,0.2-30.9,0.2c-4.6-0.4-9.2-0.9-16.3-1.5
			c-1.7-5-4.1-11.6-6.4-18.2c-0.5-11.3-0.9-22.6-1.4-33.9c0.2-3.5,0.4-7.1,0.6-10.6c-0.4-3-0.9-6-1.4-9.6c-4.2,2-7.1,3.3-12.8,5.9
			c0-5.8,0-9.6,0-13.4h-0.1c1.4-1.4,2.8-2.9,4.2-4.3l0.6-0.4c7.8-2.2,15.7-4.3,23.5-6.5c10.5,0.8,20.9,1.7,31.4,2.5v-0.2
			c1.1,0.6,2.2,1.2,3.3,1.8c2.9,2.3,5.9,4.5,8.8,6.8c7.1,10.5,14,21,0.4,31.7c5.2,2.4,9.7,4.5,14.1,6.6l0.1,0.1
			c2.6,3.6,5.1,7.2,7.7,10.9l-0.4,0.1C839.4,169.1,839.8,170.1,840.2,171.1z M821.3,186.4l0.1-0.5c8.1-5.5,10.1-15.4,2.5-21.1
			c-6.8-5.1-16.3-7.8-27.6-4.3l0.2-0.1c-8.5,0.8-17.1,1.5-25.6,2.3c-0.3,20.6,4,25.4,25.9,28.7l1.1,0.3l1.2-0.1
			C806.5,189.9,813.9,188.1,821.3,186.4z M785,149.8c3-0.1,5.9-0.3,8.9-0.4c15.6-2.7,22.2-8.6,18.7-17c-4.3-10.3-17.2-16.1-32-14
			c-2.7,0.4-6.6,2.2-6.8,3.6c-1.5,10-2.3,20.1-3.3,30.5C776.1,151.4,780.6,150.6,785,149.8z"/>
		<path class="st12" d="M721.3,50.6c3.9-0.6,7.8-1.1,11.7-1.7c9.7,2.8,19.9,5,28.9,8.5c4.2,1.6,5.9,5.5,8.8,8.4
			c5.7,5.8,9.2,13.9,17.7,16.8c15.5,5.3,15.2,14,19.3,21.9c0.3,0.5-1.4,1.4-2.2,2.1c-6.3-1.8-12.8-3.4-18.8-5.5
			c-4.4-1.6-10.8-3.6-11.5-5.9c-3.6-12.5-22.8-16.3-34.4-24.2C732.3,65.2,727.6,57.5,721.3,50.6z"/>
		<path class="st8" d="M936.4,192.7c-16.1,12-35.4,13.2-50.8,1.5c-8.9-6.8-17.2-15.7-18.2-23.9c-1.7-14.1,2.5-28.5,4.2-42.8
			c3.1-2.7,6.2-5.5,9.4-8.2c3,1.8,6,3.7,9,5.5c-0.8,1.1-1.5,2.3-2.3,3.5c-14.7,17.4-15.7,34.9-1.7,52.6c-0.3,0.3-0.1,0.6,0.4,0.8
			c11.3,12.8,25.8,14.6,40.9,5.3l-0.1,0.1c0.9-0.1,1.8-0.2,2.8-0.2C932.1,188.8,934.2,190.7,936.4,192.7z"/>
		<path class="st15" d="M889.9,124.8c-3-1.8-6-3.7-9-5.5l0.6-0.3c1.6-1.3,3.2-2.6,4.8-3.9c0.2-0.5,0.3-1.1,0.3-1.6
			c3.1-0.7,6.7-1,9.2-2.1c13.9-6.3,27.9-6.3,42.4-0.9h-0.1c2.8,3.3,6.4,6.4,8,9.9c0.7,1.5-2.6,3.7-4.1,5.6c-2.1-1.1-5.3-2-6.2-3.4
			c-4.9-7.1-14.7-8.5-24.7-6.4C903.3,117.7,896.9,121.8,889.9,124.8z"/>
		<path class="st5" d="M889.9,124.8c7-3,13.3-7.1,21.1-8.8c10-2.1,19.8-0.7,24.7,6.4c1,1.4,4.1,2.3,6.2,3.4c1.5-1.9,4.8-4.1,4.1-5.6
			c-1.6-3.5-5.2-6.6-8-9.9c2.1-0.1,4.3-0.2,6.4-0.3h-0.1c3.7,7.1,7.5,14.1,11.2,21.2c-0.6,0.4-1.2,0.8-1.9,1.1
			c-17.6-6.4-27.7-4.8-39.8,6c0.3-3.4,0.6-6.7,0.9-10.1c1.9-0.3,3.6-0.3,4.5-0.7c3.4-1.7,6.6-3.6,9.9-5.4c-4.4-0.7-9.7-2.6-13-1.7
			c-9.3,2.4-17.9,5.9-26.7,8.9c-0.6-0.4-1.2-0.7-1.8-1C888.4,127.1,889.2,126,889.9,124.8z"/>
		<path class="st5" d="M831.6,157c-4.5-2.1-8.9-4.1-14.1-6.6c13.6-10.7,6.6-21.2-0.4-31.7c3.8,2.9,7.6,5.9,11.4,8.8
			C830.2,137.4,823.5,147.5,831.6,157z"/>
		<path class="st5" d="M938.1,110.4c-14.5-5.3-28.5-5.3-42.4,0.9c-2.5,1.1-6.1,1.4-9.2,2.1c9.8-8.3,26.7-12.7,40.7-9.7
			C931.6,104.6,934.5,108.1,938.1,110.4z"/>
		<path class="st5" d="M991.2,178.2c-2.1-2.9-5.6-5.8-6-8.8c-1-7.5-0.6-15.1-0.7-22.6c1.9-4.1,3.8-8.1,5.7-12.2
			C990.5,149,990.8,163.6,991.2,178.2z"/>
		<path class="st5" d="M967.7,153.7c-0.1,2.3-0.1,4.6-0.2,7c-1,1.2-2,2.3-2.9,3.5c-1.2-0.1-2.4-0.2-3.6-0.3
			c-0.8-9.2-1.5-18.3-2.3-27.5l0.8-0.4c3,3.4,6.7,6.6,8.7,10.2C969.3,148.4,967.9,151.2,967.7,153.7z"/>
		<path class="st6" d="M808.3,24.6c11.7-1.6,23.3-3.2,35-4.7C832.5,23.7,821.8,28,808.3,24.6z"/>
		<path class="st5" d="M955.6,131.3c1.3,1.6,2.5,3.2,3.8,4.7l-0.8,0.4c-1.6-1.3-3.3-2.7-4.9-4C954.3,132,954.9,131.6,955.6,131.3z"
			/>
		<path class="st14" d="M970.5,24.4c0-0.6,0.2-1.1,0.3-1.7c2.6,0.4,5.3,0.9,7.9,1.3C976,24.2,973.2,24.3,970.5,24.4z"/>
		<path class="st8" d="M886.3,115.1c-1.6,1.3-3.2,2.6-4.8,3.9C883.1,117.7,884.7,116.4,886.3,115.1z"/>
		<path class="st6" d="M796.6,24.4c2,0.2,4,0.4,6,0.6c-1.8,0.5-3.5,1.1-5.2,1.6l-0.8-0.6C796.5,25.5,796.6,24.9,796.6,24.4z"/>
		<path class="st5" d="M944.4,110.1c0.2-0.2,0.3-0.3,0.5-0.5C944.7,109.7,944.5,109.9,944.4,110.1
			C944.4,110,944.4,110.1,944.4,110.1z"/>
		<path class="st14" d="M984.5,25.4c-0.7,0.3-1.5,0.5-2.4,0.6c-0.1-0.5-0.1-1-0.1-1.5C982.8,24.8,983.7,25.1,984.5,25.4z"/>
		<path class="st11" d="M808.2,111.9c-1.1-0.6-2.2-1.2-3.3-1.8C806,110.8,807.1,111.3,808.2,111.9z"/>
		<path class="st3" d="M1083.3,122.2c1-1.7,1.9-3.4,2.9-5.1c2.1,1.7,4.2,3.3,6.3,5c10,1.4,27.8,1.9,28.7,4.5
			c3.5,10.2,1.8,21,1.9,31.6c0.1,10.9-1.2,21.9,0.5,32.7c1.5,9.3,20.3,16.1,36.4,13.9c3.9-0.5,9.2-3.8,9.4-6c0.2-2.7-3.3-7.5-6.7-8
			c-18.7-2.9-21.2-11.8-20.9-20.7c0.3-12.1,3.4-24.1,4.7-36.2c0.7-6.7,8.2-8.6,16.9-9.7c7.9-0.9,16.2-1.7,24.2-1.4
			c3.7,0.1,8.2,2.5,10.5,4.6c11.1,10.5,21.5,21.3,32.3,31.9c1.4,1.4,4,2.3,6,3.4c0.2,0.6,0.3,1.2,0.5,1.8c-0.1,2.5-0.9,5-0.1,7.4
			c4.7,13.6,9.3,27.2,15,40.7c2.4,5.7,7.2,11,11,16.6c1,2.8,1.9,5.7,2.8,8.5c0.1,2.3,0.1,4.7,0.2,7c-1.9,1.9-5,3.8-5.3,5.8
			c-0.8,5-0.3,10.1-0.3,15.1c-5.1-4.3-10.2-8.6-13-10.9c-7,4-13.1,10-21.3,11.5c-9.8,1.8-16.1-4-21.3-9.4
			c-3.1-3.1-10.3-6.1-16.3-6.7c-14.6-1.4-29.6-2.2-44.3-1.8c-14.3,0.4-19.3-3.9-22.8-11.2c-1.7-3.6-6.6-6.9-11.1-9.8
			c-8.7-5.6-16.3-11-11.7-19.7c6.1-11.5-5.3-22.7-25.9-26.1c0.7-4.7,1.4-9.4,2-14.1v0.2c2-3.1,5.4-6.2,5.8-9.4
			C1081.8,146.3,1082.4,134.2,1083.3,122.2z"/>
		<path class="st15" d="M1092.6,118.6c0-2.2,0-4.5,0-5.5c20.8,0,40.4,0,60.1,0c6.7-0.2,13.4-1,20-0.5c3.3,0.2,6.1,2.5,9.2,3.9
			c-2.5,1.8-4.6,4.9-7.4,5.2c-9.4,0.9-19.1,0.8-31,1.1c-3.1,21.7-16.5,43.2-0.7,65c1.9,2.6,8.4,4.2,13.1,6c3.7,1.4,7.8,2.4,12.5,3.8
			c-15.4,7.5-24.5,7-32.2-2.2c-5-6-8.7-13-9-19.6c-0.6-14.4,0.9-28.9,2.6-43.3c0.8-6.7-0.6-10.3-13.7-10.3
			C1108.3,122.1,1100.4,119.8,1092.6,118.6z"/>
		<path class="st1" d="M972.9,435.2c-2.7,0.8-6.6,1.2-7.8,2.6c-4.2,4.7-7.7,6.4-18,4.3c-7.7-1.6-17.9,1.5-27.1,2.1
			c-4.4,0.3-9-0.5-13.4-0.8c-1.4-0.5-2.8-1-4.2-1.5c-0.5-4-1-8-1.5-11.9c0.1-6.6-0.1-13.3,0.4-19.9c0.6-8.5,1.8-17.1,2.8-25.6
			c20.1-1.8,40.1-3.5,60.2-5.3c4.1,4.1,10,7.9,11.9,12.3c3.3,8,3.6,16.4,6.4,24.4c1.3,3.7,5.8,7,8.9,10.5c-4,1.1-7.9,2.2-11.9,3.4
			C977.3,431.6,975.1,433.4,972.9,435.2z"/>
		<path class="st10" d="M902.3,441.9c1.4,0.5,2.8,1,4.2,1.5c-1,0.1-2,0.2-3.1,0.2c-0.6-0.2-1.1-0.2-1.8-0.3
			C901.5,442.8,901.7,442.3,902.3,441.9z"/>
		<path class="st9" d="M796.6,24.4c0,0.5,0,1.1-0.1,1.6c-2.9,0-5.7,0-8.6,0.1C790.8,25.5,793.7,25,796.6,24.4z"/>
		<path class="st11" d="M773.5,409c2.1-6.4-4.9-9.3-11.3-13.5c-15.4-10.3-28.7-21.7-41.9-33.1c-0.9-0.8,4.9-5.5,8.9-7.1
			c13.4-5,27.9-9,41-14.2c4.4-1.8,5.9-6.2,9.2-9.1c2.2-2,5.5-3.5,8.3-5.2c-0.5,2.3-2.4,4.8-1.4,6.8c2,3.9-0.9,10.6,10.8,10.3
			c10-0.2,14.2-4.5,13.9-10.1c-0.3-6.3-1.7-12.7-2-19c-0.6-10.5-0.7-21-1-31.6c2.7,6.6,4.6,13.3,8.4,19.6c2.8,4.8,8,9,12.1,13.5
			c1.1,3.3,2.1,6.6,3.2,10c-0.1,2.6-1.6,5.7,0.2,7.7c2.5,3,7,6.9,11.4,7.3c6.1,0.6,13.4-0.2,14.7-6.6c2.6-12,7.3-23.8,11.6-35.6
			c1.1-3,4-5.8,6-8.7c1.7,0.2,3.3,0.4,5,0.5c0,8.2-1.1,16.4,0.4,24.5c0.9,5,5.6,9.8,8.6,14.7c1.1,1.5,2.1,3.1,3.2,4.6
			c4.7,1.4,9.3,2.7,14,4.1c-2.5,6.9-4.9,13.9-7.1,19.8c-11.3-2-18.8-3.3-26.2-4.6c1.2,3.3,2.4,6.6,3.4,9.1c-2.4,3.5-4.8,7-7.2,10.4
			c5.3,1.3,10.6,2.6,15.9,3.8c2.2,0.5,4.4,1.1,6.7,1.6c-0.6,3.1-1.9,6.3-1.8,9.4c0.1,8.6-1.5,17.4,1.7,25.6
			c2.2,5.7,2.4,9.9-3.6,14.2c-0.7,0-1.4-0.2-2.1-0.4c-15.5-11.1-15.9-11.2-23.3-2.4c-2.9,0.3-5.8,0.7-8.7,1c0.3-0.4,0.4-0.7,0.5-1.1
			c-7.2-6.8-35.6-12.1-49.9-9.3c-4.8-0.7-9.5-1.4-14.3-2.1c-4.3-1.6-8.6-3.2-13-4.8C776.4,409.1,774.9,409.1,773.5,409z"/>
		<path class="st8" d="M892.9,334.8c-1.1-1.5-2.1-3.1-3.2-4.6c-2.9-21.8-5.8-43.6-8.7-65.2c-0.5,0.5-1.9,1.4-2.3,2.4
			c-8.2,20.9-16.1,41.8-24.4,62.6c-1.2,3.1-3.5,5.9-6.3,10.6c-7.2-6.4-11.7-10.4-16.2-14.4c-1.1-3.3-2.1-6.6-3.2-10
			c-6-12.3-11.9-24.6-17.9-36.9c-1.4-1.9-2.7-3.8-4.1-5.7c-1.5,0.1-3.1,0.2-4.6,0.2c-0.8,4.2-2.3,8.5-2.1,12.7
			c0.6,15.6,2,31.2,2.6,46.8c0.1,2.5-2.4,5.1-3.7,7.6c-1.5-0.1-3.1-0.2-4.6-0.3c-1.1-3.8-2.8-7.6-3.2-11.4
			c-1.1-13.6-2.5-27.2-2.4-40.8c0.1-12.9,1.9-25.9,2.9-38.8c11.1-0.2,16.3,4.1,19.5,9.5c10.8,18.1,21.3,36.2,35.1,55.1
			c4.7-12.8,9.4-25.6,14.1-38.5c8.5-9.1,3-22.9,24.9-27.6c1.3,0.6,2.7,1.3,4,1.9c0.9,1,1.8,2,2.7,3c2.5,24.1,4.9,48.3,7.5,73.5
			c6.9-1.8,9.9-2.6,12.8-3.4V323c1,2.8,2,5.6,3.1,8.4l0.2-0.1c-1,0.6-2,1.3-3,1.9l0.1-0.1C905.9,334,899.4,334.4,892.9,334.8z"/>
		<path class="st8" d="M657.9,118.8c2.2-3.4,4.4-6.8,6.6-10.2c14.2-1.3,13,6.5,15.2,10.7c4.3,7.8,5.5,16.2,8,24.4
			c2.5,6,5,11.9,7.4,17.8c11.3-2.3,20.2-4.2,29.1-6c0.9,1.8,1.8,3.5,2.7,5.3v-0.2c-8.6,3.4-17.1,6.8-27,10.8c2.2,2.6,4.6,5.5,7,8.3
			c5.8,3.2,12.1,6.1,17.2,9.6c2.3,1.6,4.2,5.7,3.2,6.2c-3.9,1.8-9.8,4-13.7,3.3c-4.7-0.8-8.1-4.3-12.1-6.7
			c-4.5-6.3-6.3-14.9-14.3-18.4c-7.9-3.5-22-2-34.9-2.8c-3.1,6.2-6.3,12.7-9.6,19.3c-1.1,2.1-1.6,4.8-4.1,6.2
			c-2.6,1.5-7.2,1.7-10.9,2.4c-0.2-2.1-1.9-4.7-0.5-6.4C646.3,169.2,649.7,143.6,657.9,118.8z M684.8,164.3
			c-5.8-14-10.7-25.7-15.7-37.5c-0.7,0.1-1.5,0.2-2.2,0.2c-3.7,11.4-7.3,22.9-11.3,35.2C666,163,674.2,163.6,684.8,164.3z"/>
		<path class="st11" d="M599.8,351.1c-7.9-5.5-11.1-11.7-13.2-19c-1.6-5.7-12.2-10.5-18.8-15.7c4.9-1.2,9.7-2.4,14.6-3.7
			c0.1,0.6-0.1,1.6,0.2,1.7c16.8,3.4,24.4,13.9,41.3,18.2c15,3.8,29.2,10.9,39.3,18.7c7.6,5.8,2.6,8.5-10.1,6.9
			C635.3,355.9,617.6,353.5,599.8,351.1z"/>
		<path class="st10" d="M791.4,249.9c-1,12.9-2.8,25.9-2.9,38.8c-0.1,13.6,1.3,27.2,2.4,40.8c0.3,3.8,2.1,7.6,3.2,11.4
			c1.5,0.1,3.1,0.2,4.6,0.3c1.3-2.5,3.8-5.1,3.7-7.6c-0.6-15.6-2-31.2-2.6-46.8c-0.2-4.2,1.4-8.5,2.1-12.7c1.5-0.1,3.1-0.2,4.6-0.2
			c1.4,1.9,2.7,3.8,4.1,5.7c-0.9,1.2-1.8,2.5-2.6,3.7c0.3,10.5,0.4,21,1,31.6c0.3,6.3,1.7,12.7,2,19c0.3,5.6-3.9,9.9-13.9,10.1
			c-11.8,0.2-8.8-6.4-10.8-10.3c-1-2,0.8-4.5,1.4-6.8c-1.8-19.5-4.2-39-5.2-58.5C782.3,262,780.7,254.6,791.4,249.9z"/>
		<path class="st5" d="M760.2,180.7c2.3,6.6,4.7,13.2,6.4,18.2c7.1,0.7,11.7,1.1,16.3,1.5c-17.9,6.2-20.3,5.6-23.9-6.5
			C759.4,189.5,759.8,185.1,760.2,180.7z"/>
		<path class="st5" d="M706.9,179.7c-2.4-2.9-4.9-5.8-7-8.3c9.9-4,18.5-7.4,27-10.8c0.1,1.8,0.2,3.6,0.3,5.4
			C719,169.7,704.1,169.9,706.9,179.7z"/>
		<path class="st5" d="M745.3,119c0,3.8,0,7.6,0,13.4c5.6-2.6,8.5-3.9,12.8-5.9c0.5,3.6,0.9,6.6,1.4,9.6c-8.2-0.5-16.4-1-27.7-1.6
			C736.4,129.1,740.8,124.1,745.3,119z"/>
		<path class="st5" d="M724.2,155.4c-8.9,1.8-17.7,3.7-29.1,6c-2.5-5.9-4.9-11.8-7.4-17.8c4.2,4.1,8.5,8.3,13.4,13.1
			c7.2-2,15-4.2,22.9-6.4C724.1,152,724.2,153.7,724.2,155.4z"/>
		<path class="st5" d="M773.4,107.9c-7.8,2.2-15.7,4.3-23.5,6.5C750.5,107.1,757,105.4,773.4,107.9z"/>
		<path class="st6" d="M724.2,155.4c-0.1-1.7-0.1-3.4-0.2-5.1c1,3.5,1.9,6.9,2.9,10.4C726,158.9,725.1,157.2,724.2,155.4z"/>
		<path class="st5" d="M749.3,114.8c-1.4,1.4-2.8,2.9-4.2,4.3C746.5,117.6,747.9,116.2,749.3,114.8z"/>
		<path class="st5" d="M1055.1,180.2c-5,4-10,8.1-15,12.1C1045.2,188.3,1050.2,184.2,1055.1,180.2z"/>
		<path class="st5" d="M1019.4,192.4c-4.1-3.4-8.2-6.9-12.3-10.3C1011.1,185.5,1015.3,189,1019.4,192.4z"/>
		<path class="st5" d="M1040.2,192.3c-6.9,0-13.8,0-20.7,0C1026.3,192.3,1033.2,192.3,1040.2,192.3z"/>
		<path class="st5" d="M1007.3,182.1c-1.5-2.5-3.1-4.9-4.6-7.4C1004.2,177.2,1005.7,179.6,1007.3,182.1z"/>
		<path class="st4" d="M1072.4,181.6c20.5,3.4,32,14.5,25.9,26.1c-4.6,8.6,3,14,11.7,19.7c4.5,2.9,9.3,6.2,11.1,9.8
			c3.5,7.3,8.4,11.5,22.8,11.2c14.7-0.4,29.7,0.4,44.3,1.8c6,0.6,13.2,3.5,16.3,6.7c5.3,5.4,11.5,11.2,21.3,9.4
			c8.2-1.5,14.2-7.5,21.3-11.5c2.8,2.3,7.9,6.6,13,10.9c0.3,5.9,0.7,11.7,1,17.6c-1.2,3.5-2.4,6.9-3.5,10.4
			c-9.5,3.8-21.1,8.3-18.9,15.3c2.9,9.3-6.1,11.7-15.6,15c-12.2,4.3-12.6,7.1-2,13.9c-13,10-26,20-39.9,30.7c-1-1.9-1.5-3.2-2.3-4.4
			c-0.7-1.2-1.6-2.3-2.7-3.8c-2.8,1.5-4.8,2.3-6.4,3.4c-14.1,9.9-14,9.9-27.9-0.6c-8.1-6.1-16-11.8-30.3-13.4
			c-10.5-1.2-20.3-4.8-30-7.8c-2.9-0.9-6.3-3.5-6.2-5.2c0.2-8.5-6.8-18.3,11.5-23.9c2.5-0.8,4.4-4.8,3.2-6.4c-1.3-1.8-7.8-4-9.9-3.4
			c-22.7,6.3-33.1-6.7-49.1-10.8c-3.6-0.9-6.8-2.3-10.1-3.5c-1.4,2.2-2.8,4.5-4.2,6.7c-1.9,0-3.7,0-5.6,0c-2-0.6-4-1.3-6-1.9
			c0.1-0.6,0.1-1.1,0-1.7c-12.8-5.8-12-11.7,1.5-16.5c3.3-1.2,4.9-4.2,7.2-6.4c7-1.3,12.3-3.5,11.3-8.6c3.5-6.6,6.3-13.4,10.9-19.8
			c2.8-3.9,8.4-7,14.6-11.9c-6.2-6.1-24.9-10.8-19.3-22.4c1.9,0,3.8-0.1,5.7-0.1c1.9-0.6,3.9-1.1,5.8-1.7c0-0.6,0.1-1.3,0.1-1.9
			l0.5-0.3l0.6,0.2c2.5-1.1,5-2.2,7.5-3.3l0,0c1.9,0,3.8,0,5.7,0c1.6,0.1,3.1,0.2,4.7,0.3c-0.5-1.3-0.9-2.5-1.4-3.8
			c-1.1-0.1-2.3-0.3-3.4-0.4c0.7-0.5,1.5-1,2.2-1.5c2.1-0.6,4.2-1.2,6.2-1.8c1.2-0.2,2.5-0.4,3.7-0.7c-1.1-0.3-2.3-0.6-3.4-0.9
			c-0.9-0.3-1.7-0.7-2.6-1c-0.3-0.5-0.2-1,0.5-1.4c1.6,0.2,3.2,0.4,4.9,0.6c0.9-0.6,1.8-1.2,2.6-1.8
			C1071.7,185.1,1072.1,183.3,1072.4,181.6z M1119.5,332.6c5.6-2.2,12.1-4.8,18.6-7.4c-5-3.9-9.8-11-15-11.1
			c-9.1-0.2-18.5,3.8-27.4,6.5c-0.6,0.2,1.4,5.7,4.3,7.1C1104.7,329.9,1111.2,330.7,1119.5,332.6z"/>
		<path class="st12" d="M1083.3,122.2c-1,12-1.5,24-3.1,36c-0.4,3.2-3.8,6.3-5.8,9.4c1.2-15.2,2.4-30.4,3.7-45.5
			C1079.9,122.2,1081.6,122.2,1083.3,122.2z"/>
		<path class="st5" d="M1011.5,200.6c-16-0.3-16.6-7.1-16.4-14.2C1000.6,191.2,1006,195.9,1011.5,200.6z"/>
		<path class="st5" d="M1068.8,188.6c-1.6-0.2-3.2-0.4-4.9-0.6c3.5-6.8,7-13.7,10.5-20.5c-0.7,4.7-1.4,9.4-2,14.1
			c-0.3,1.7-0.7,3.5-1,5.2C1070.5,187.4,1069.7,188,1068.8,188.6z"/>
		<path class="st5" d="M1037,206.1c-1.9,0-3.8,0.1-5.7,0.1c-7.1-1.3-18.6,2.9-19.9-5.7c8.5,1.1,17,2.2,25.4,3.2
			C1036.9,204.6,1037,205.3,1037,206.1z"/>
		<path class="st5" d="M1057.3,195.3c1.1,0.1,2.3,0.3,3.4,0.4c-1.1,1.2-2.2,2.3-3.3,3.5c-1.9,0-3.8,0-5.7,0
			C1053.5,197.9,1055.4,196.6,1057.3,195.3z"/>
		<path class="st12" d="M1037,206.1c-0.1-0.8-0.1-1.6-0.2-2.3l1.2,0.1c1.6,0.2,3.2,0.4,4.8,0.5C1040.9,205,1039,205.6,1037,206.1z"
			/>
		<path class="st5" d="M1065.7,192c-2.1,0.6-4.2,1.2-6.2,1.8c1.3-1.5,2.6-3,3.9-4.4c0.9,0.3,1.7,0.7,2.6,1
			C1065.9,191,1065.8,191.5,1065.7,192z"/>
		<path class="st5" d="M1051.7,199.2c-2.5,1.1-5,2.2-7.5,3.3C1046.7,201.4,1049.2,200.3,1051.7,199.2z"/>
		<path class="st5" d="M995.3,186.2c-0.8-1.5-1.5-2.9-2.3-4.4C993.7,183.2,994.5,184.7,995.3,186.2z"/>
		<path class="st5" d="M1042.9,204.4c-1.6-0.2-3.2-0.4-4.8-0.5c1.6-0.4,3.3-0.9,5-1.3C1043,203.2,1042.9,203.8,1042.9,204.4z"/>
		<path class="st15" d="M1005.1,293.5c2,0.6,4,1.3,6,1.9c4.3,6.2,3.4,9-10.1,7.7c-12.3-1.1-25.2-0.2-39.6-0.2
			c2.3,8.6,3.2,15.2,6.1,21.5c4.4,9.8,11.1,11.4,27.6,7.7c6.2-3.4,12.1-6.9,18.6-10c2.6-1.2,6.5-1.4,9.8-2c-1.4,4.5-2.8,9-4.2,13.5
			l0.2-0.1c-1.4,0.9-2.9,1.9-4.3,2.8l-0.4-0.1c-2.8,1-5.6,2-8.3,3c-6.4,1.4-12.8,2.9-19.2,4.3l-0.7-0.3c-4-0.2-7.9-0.5-11.9-0.7
			c-5.1-3.1-10.2-6.1-15.3-9.2l0,0c-2.8-8.2-5.6-16.3-8.5-24.6c-3.7-1.3-8-2.8-12.4-4.3c2.9-2.2,6-4.4,8.7-6.7
			c1.6-1.3,3.6-2.8,3.8-4.3c1.1-9.8,1.7-19.7,2.5-29.5c0.8-0.6,1.7-1.2,2.5-1.8l0,0c2.4-2.6,4.7-5.3,7.1-8l-1.3-0.3l1.3,0.2
			c18.4-8.5,36.1-3.2,53.8,1.1c0,0,0.7,0.2,0.8,0.2c3.2,7,0,9.4-12,6.5c-5.7-1.4-11.8-2-17.8-3c-4.9,0.9-9.8,1.9-14.7,2.8
			c-1.8,0.7-5,1.3-5.3,2.1c-2.8,10.2-5.1,20.4-7.3,29.7C977.4,293.5,991.3,293.5,1005.1,293.5z"/>
		<path class="st12" d="M892.3,379.1c-2.2-0.5-4.4-1-6.7-1.6c-5.3-1.3-10.6-2.6-15.9-3.8c2.4-3.5,4.8-6.9,7.2-10.4
			c-0.9-2.5-2.2-5.8-3.4-9.1c7.5,1.3,14.9,2.6,26.2,4.6c2.1-5.9,4.6-12.9,7.1-19.8c1.9-1.8,3.7-3.6,5.6-5.4l-0.1,0.1
			c1-0.6,2-1.3,3-1.9l-0.2,0.1c2.9-0.6,5.8-1.2,8.7-1.7c7.9,1.1,16.2,7.3,22.1-0.6c5.2,1.5,9.2,2.6,13.3,3.8l0,0
			c-1.9,6.8,6.3,9.5,13.8,12.5l0.3,0.2c-7.4,13.3-24.4,14.6-44.4,14c-24.9-0.7-29,2.2-30.9,17.5c0,0.5-0.1,1-0.2,1.6
			C896,379,894.2,379.1,892.3,379.1z"/>
		<path class="st15" d="M953.7,132.4c1.6,1.3,3.3,2.7,4.9,4c0.8,9.2,1.5,18.3,2.3,27.5c-1.8,3.6-3.6,7.3-5.4,10.9l0.2,0.6
			c-1.7,2.7-3.3,5.4-5,8.1c-0.6,0.4-0.8,0.8-0.7,1.3c-3.7,1.9-7.4,3.9-11.1,5.8c-0.8,0.7-1.6,1.4-2.4,2.1v0.1
			c-2.2-1.9-4.3-3.9-6.5-5.8c3.4-3.5,6.8-7,10.2-10.5c0.8-1.4,1.6-2.8,2.4-4.1c1.1-1.7,2.3-3.4,3.4-5c0.6-0.2,0.6-0.5,0.2-0.8
			c1.3-7.3,3.5-14.6,3.5-22c0-2.2-5.8-5.6-9.7-6.2c-3.9-0.5-10,1.3-13.2,3.2c-3.4,2.1-4.4,5.6-6.5,8.4h0.3c-1.7,5-2.8,10.2-5.4,15
			c-1.3,2.4-5.5,4.2-8.3,6.3c-2-1.1-3.9-2.3-5.9-3.4c1-2.9,2-5.9,3.1-8.8c3.2-6.8,6.4-13.7,9.7-20.5l0.2,0.1
			C926,127.6,936.1,126,953.7,132.4z"/>
		<path class="st5" d="M912.1,323.5c-3,0.8-5.9,1.6-12.8,3.4c-2.6-25.2-5-49.4-7.5-73.5c2.1,2.9,5.7,5.8,6,8.8
			c1.5,15.9,3.5,31.8,2.6,47.7C900,316.7,907.3,319.3,912.1,323.5z"/>
		<path class="st5" d="M923.9,330.1c-2.9,0.6-5.8,1.2-8.7,1.7c-1-2.8-2-5.6-3.1-8.4C920.7,322.7,924.4,325,923.9,330.1z"/>
		<path class="st5" d="M839.4,168c-2.6-3.6-5.1-7.2-7.7-10.9C842.8,158.6,840,163.6,839.4,168z"/>
		<path class="st5" d="M956,262c-0.8,0.6-1.7,1.2-2.5,1.8c-1.1-0.6-2.1-1.1-3.2-1.7C952.1,262.1,954,262,956,262z"/>
		<path class="st5" d="M840.2,171.1c-0.4-1-0.8-2-1.2-3C839.4,169.1,839.8,170.1,840.2,171.1z"/>
		<path class="st5" d="M889,250.3c-1.3-0.6-2.7-1.3-4-1.9C886.4,249.1,887.7,249.7,889,250.3z"/>
		<path class="st8" d="M936.4,192.6c0.8-0.7,1.6-1.4,2.4-2.1C938,191.2,937.2,191.9,936.4,192.6z"/>
		<path class="st5" d="M987.8,258.9c5.9,1,12.1,1.6,17.8,3c12,2.9,15.2,0.6,12-6.5c2.5,1.6,5.1,3.3,7.6,4.9
			c0.9,5.1-4.3,7.3-11.3,8.6c-0.8,0-1.6,0-2.4,0c-1.2-0.6-2.3-1.2-3.5-1.8C1001.2,264.4,994.5,261.6,987.8,258.9z"/>
		<path class="st5" d="M1016.8,255.1c-17.7-4.3-35.3-9.6-53.8-1.1c2.6-1.9,4.6-4.7,8-5.7C983.6,244.9,1009.6,249,1016.8,255.1z"/>
		<path class="st11" d="M955.5,174.8c1.8-3.6,3.6-7.3,5.4-10.9c1.2,0.1,2.4,0.2,3.6,0.3c2,0,3.9,0,5.9,0.1
			C965.5,167.7,960.5,171.2,955.5,174.8z"/>
		<path class="st5" d="M963,254.1c-2.4,2.7-4.7,5.3-7.1,8C957.6,259.1,951.5,253.7,963,254.1z"/>
		<path class="st11" d="M950.6,183.4c1.7-2.7,3.3-5.4,5-8.1C953.9,178,952.3,180.7,950.6,183.4z"/>
		<path class="st4" d="M970.4,164.2c-2,0-3.9,0-5.9-0.1c1-1.2,2-2.3,2.9-3.5C968.5,161.9,969.5,163,970.4,164.2z"/>
		<path class="st11" d="M799,191.6l-1.2,0.1l-1.1-0.3c-4.5-2.9-9.2-5.6-13.5-8.6c-12.1-8.5-9.6-14.7,7.4-18.9c2.4-0.6,4-2.3,5.9-3.5
			l-0.2,0.1c7.9,2.5,19.2,3.9,22.7,7.8c4.2,4.8,1.9,11.7,2.4,17.7l-0.1,0.5C810.9,183.6,804.6,187,799,191.6z"/>
		<path class="st11" d="M793.9,149.4c-3,0.1-5.9,0.3-8.9,0.4c-2.9-2.6-7.5-5-8.3-7.7c-1.4-4.8-0.7-9.8-0.2-14.7
			c0.6-6.5,7-8.4,16.6-5.2c13.1,4.3,16.2,15.8,6.3,22.4C797.2,145.9,795.7,147.7,793.9,149.4z"/>
		<path class="st5" d="M793.9,149.4c1.8-1.6,3.3-3.5,5.5-4.9c9.9-6.6,6.8-18-6.3-22.4c-9.6-3.2-15.9-1.3-16.6,5.2
			c-0.5,4.9-1.1,9.9,0.2,14.7c0.8,2.8,5.4,5.2,8.3,7.7c-4.5,0.8-8.9,1.7-14.6,2.7c1-10.4,1.8-20.5,3.3-30.5c0.2-1.4,4.1-3.2,6.8-3.6
			c14.9-2.1,27.8,3.8,32,14C816,140.7,809.5,146.7,793.9,149.4z"/>
		<path class="st5" d="M796.5,160.4c-1.9,1.2-3.5,2.9-5.9,3.5c-16.9,4.2-19.5,10.5-7.4,18.9c4.3,3,9,5.8,13.5,8.6
			c-21.8-3.3-26.2-8.1-25.9-28.7C779.4,161.9,787.9,161.2,796.5,160.4z"/>
		<path class="st5" d="M821.4,185.9c-0.5-6,1.8-12.9-2.4-17.7c-3.5-3.9-14.8-5.3-22.7-7.8c11.3-3.5,20.7-0.8,27.6,4.3
			C831.5,170.5,829.5,180.4,821.4,185.9z"/>
		<path class="st5" d="M799,191.6c5.6-4.6,11.9-8.1,22.2-5.2C813.9,188.1,806.5,189.9,799,191.6z"/>
		<path class="st11" d="M900.9,167.7c2,1.1,3.9,2.3,5.9,3.4c9.9,5,13.4,1,14.1-4.2c0.8-5.7-0.2-11.4-0.3-17.1h-0.3
			c2.8-1.4,5.5-3,8.5-4.2c3.3-1.4,6.9-2.5,10.4-3.8c1.5,2.1,3.9,4.2,4.4,6.4c1.3,6,1.8,12,2.6,18c0.4,0.3,0.4,0.6-0.2,0.8
			c-12.3-1-3.2,3.1-3.4,5c-0.8,1.4-1.6,2.8-2.4,4.1c-11.2,0.5-13.6,4.9-12.9,10.7l0.1-0.1c-15.2,4-28.2,1.7-39.5-5.2
			c-0.3-0.2-0.9-0.1-1.4-0.1c-0.6-0.2-0.7-0.4-0.4-0.8c0.1-3.2,0.3-6.5,0.4-9.7C891.2,170,896,168.9,900.9,167.7z"/>
		<path class="st5" d="M886.4,171.2c-0.1,3.2-0.3,6.5-0.4,9.7c-14-17.7-12.9-35.2,1.7-52.6c0.7,0.3,1.3,0.7,1.8,1
			c-2,5.8-4,11.5-6.1,17.3c-2.8,7.3-7.9,14.7,2.9,21.2C886.3,169,886.3,170.1,886.4,171.2z"/>
		<path class="st5" d="M886.4,181.7c0.5,0,1.1,0,1.4,0.1c11.3,6.9,24.3,9.2,39.5,5.2C912.1,196.3,897.7,194.5,886.4,181.7z"/>
		<path class="st5" d="M927.1,187.1c-0.7-5.8,1.7-10.2,12.9-10.7c-3.4,3.5-6.8,7-10.2,10.5C929,186.9,928.1,187,927.1,187.1z"/>
		<path class="st12" d="M886.4,171.2c0-1.1-0.1-2.2-0.1-3.3c2.6-7.3,5.8-14.5-2.9-21.2c2-5.8,4-11.5,6.1-17.3
			c8.8-3.1,17.4-6.6,26.7-8.9c3.3-0.8,8.6,1.1,13,1.7c-3.3,1.8-6.5,3.7-9.9,5.4c-1,0.5-2.6,0.5-4.5,0.7c-0.3,3.4-0.6,6.8-0.9,10.1
			c0,0-0.2,0-0.2-0.1c-13.6,5-12.3,12.7-9.7,20.5c-1,2.9-2,5.9-3.1,8.8C896,168.9,891.2,170,886.4,171.2z"/>
		<path class="st12" d="M1236.7,164.4c3,4,6,8,8.9,12c6,17.3,12.1,34.6,18.1,51.9c-0.4,0.2-0.8,0.4-1.2,0.7
			c-3.7-5.5-8.6-10.8-11-16.6c-5.6-13.5-10.3-27.1-15-40.7C1235.8,169.5,1236.6,166.9,1236.7,164.4z"/>
		<path class="st12" d="M1261,283.1c-0.3-5.9-0.7-11.7-1-17.6c0-5.1-0.5-10.1,0.3-15.1c0.3-2,3.5-3.9,5.3-5.8
			c0.5,5.8,1.1,11.6,1.6,17.3c-0.2,4.2-0.3,8.4-0.4,12.6C1264.9,277.4,1263,280.2,1261,283.1z"/>
		<path class="st16" d="M851.6,496.1c1,0,2,0,3,0C853.6,496.1,852.6,496.1,851.6,496.1z"/>
		<path class="st3" d="M991.4,426.4c-3.1-3.5-7.6-6.8-8.9-10.5c-2.9-8.1-3.1-16.5-6.4-24.4c-1.9-4.4-7.8-8.2-11.9-12.3l0.6-0.2
			c7.4-1.1,14.8-2.3,20.4-3.2c15.1,3.3,29.9,6.4,44.6,9.8c2.9,0.7,6.2,1.8,7.9,3.4c7.5,7,11.8,15.6,25.4,19.8c-4.8,3-9.6,6-14.4,9.1
			C1029.7,420.7,1010.5,423.6,991.4,426.4z"/>
		<path class="st10" d="M892.3,379.1c1.9,0,3.7-0.1,5.6-0.1c2.1,1.8,4.1,3.7,6.2,5.5c-1,8.5-2.2,17.1-2.8,25.6
			c-0.5,6.6-0.3,13.3-0.4,19.9c-4.3-0.1-8.6-0.1-12.9-0.2c0.4-0.5,0.7-1,0.7-1.6c6-4.3,5.9-8.4,3.6-14.2c-3.2-8.2-1.7-17-1.7-25.6
			C890.5,385.4,891.7,382.2,892.3,379.1z"/>
		<path class="st5" d="M904.1,384.5c-2.1-1.8-4.1-3.7-6.2-5.5c0.1-0.5,0.2-1,0.2-1.6c18.4-0.6,36.7-1.3,55.1-1.6
			c3.8,0,7.7,2,11.5,3.1l-0.6,0.2C944.2,381,924.1,382.7,904.1,384.5z"/>
		<path class="st12" d="M1161.3,384.8c-10.1,3-20.4,5.8-30.4,9c-24.2,7.5-48.3,15.2-72.5,22.7c-2.9,0.9-6.4,0.9-9.7,1.3
			c4.8-3,9.6-6,14.4-9.1c17.3,1.9,19.6-6.8,24.7-13.7c8,2,16.3,5.8,21.7-2.7c-4.5-0.4-8.5-0.3-11.5-1.3c-3.4-1.1-8.2-3.2-8.4-5.1
			c-1-9.2-8.5-13.5-23.5-14.2c-11.1-0.5-18.7-3-17.8-11.4c0.7-6.9-6.8-9.4-18.2-7c-23.9,5-26.8,4.5-42.3-7.6
			c-0.4-0.9-0.9-1.8-1.3-2.7l0.7,0.3c6,0.2,11.9,0.4,17.9,0.6c7.8,3.5,10.2,0.6,11.6-3.5c-0.7-1.5-1.3-2.9-2-4.4l0.4,0.1
			c1.4-0.9,2.9-1.9,4.3-2.8l-0.2,0.1c8.8-3.7,13.4-7.8,4.2-13.5c-3.3,0.6-7.2,0.8-9.8,2c-6.5,3.1-12.4,6.6-18.6,10
			c-16.9-1.5-31.1-13.1-27-22.7c0.7-1.6,5.9-3.3,9.3-3.5c9-0.5,18.2-0.3,27.3-0.1c12.9,0.2,15.9-3.6,12-10.4
			c1.4-2.2,2.8-4.5,4.2-6.7c3.4,1.2,6.6,2.6,10.1,3.5c16,4.1,26.4,17.2,49.1,10.8c2.2-0.6,8.6,1.6,9.9,3.4c1.2,1.6-0.7,5.7-3.2,6.4
			c-18.2,5.6-11.3,15.5-11.5,23.9c0,1.8,3.3,4.3,6.2,5.2c9.7,3,19.5,6.6,30,7.8c14.4,1.6,22.3,7.3,30.3,13.4
			c13.9,10.4,13.8,10.5,27.9,0.6c1.5-1.1,3.6-1.9,6.4-3.4c1.1,1.5,2,2.6,2.7,3.8c0.7,1.2,1.3,2.5,2.3,4.4
			c13.9-10.7,26.9-20.7,39.9-30.7c-10.6-6.9-10.2-9.6,2-13.9c9.5-3.4,18.5-5.8,15.6-15c-2.2-7,9.4-11.5,18.9-15.3
			c-4.7,10.5-9.4,21-14,31.4c-0.3,0.6-0.6,1.1-1,1.7c-1.7,1.6-3.3,3.3-5,4.9c-1.4,1.7-2.8,3.4-4.2,5.1c-10.5,8.8-21,17.6-31.5,26.5
			c-7.4,4.2-14.7,8.5-22.1,12.7C1173.6,378.9,1167.5,381.9,1161.3,384.8z"/>
		<path class="st5" d="M831.8,326.3c4.5,4,9,8,16.2,14.4c2.8-4.6,5.1-7.5,6.3-10.6c8.2-20.9,16.2-41.8,24.4-62.6
			c0.4-1,1.8-1.9,2.3-2.4c2.9,21.6,5.8,43.4,8.7,65.2c-3-4.9-7.7-9.7-8.6-14.7c-1.4-8.1-0.4-16.3-0.4-24.5c-1.7-0.2-3.3-0.4-5-0.5
			c-2.1,2.9-4.9,5.7-6,8.7c-4.3,11.8-9,23.6-11.6,35.6c-1.4,6.4-8.6,7.2-14.7,6.6c-4.4-0.4-8.8-4.4-11.4-7.3
			C830.3,331.9,831.8,328.9,831.8,326.3z"/>
		<path class="st6" d="M820.4,422.4c-5.1-2.1-10.2-4.3-15.2-6.4c14.3-2.8,42.6,2.5,49.9,9.3c-9.8-0.9-19.6-1.8-29.4-2.7
			C823.9,422.6,822.2,422.5,820.4,422.4z"/>
		<path class="st5" d="M808.1,283.2c0.9-1.2,1.8-2.5,2.6-3.7c6,12.3,11.9,24.6,17.9,36.9c-4.1-4.5-9.3-8.7-12.1-13.5
			C812.7,296.5,810.8,289.7,808.1,283.2z"/>
		<path class="st6" d="M865.7,426.9c-0.8-0.5-1.6-1-2.4-1.5c7.3-8.8,7.8-8.7,23.3,2.4c-4.1,0.3-8.2,0.5-12.3,0.8
			C871.4,428.1,868.5,427.5,865.7,426.9z"/>
		<path class="st5" d="M912.5,333.5c-1.9,1.8-3.7,3.6-5.6,5.4c-4.7-1.4-9.3-2.7-14-4.1C899.4,334.4,905.9,334,912.5,333.5z"/>
		<path class="st6" d="M790.9,414c-4.3-1.6-8.6-3.2-13-4.8C782.2,410.8,786.6,412.4,790.9,414z"/>
		<path class="st5" d="M915.4,331.8c-1,0.6-2,1.3-3,1.9C913.4,333,914.4,332.4,915.4,331.8z"/>
		<path class="st10" d="M684.8,164.3c-10.6-0.8-18.8-1.3-29.2-2.1c4-12.3,7.6-23.8,11.3-35.2c0.7-0.1,1.5-0.2,2.2-0.2
			C674,138.6,678.9,150.4,684.8,164.3z"/>
		<path class="st12" d="M987.8,258.9c6.7,2.8,13.4,5.6,20.2,8.3c1.2,0.6,2.3,1.2,3.5,1.8c0.8-0.1,1.6-0.1,2.4,0
			c-2.4,2.2-3.9,5.2-7.2,6.4c-13.5,4.8-14.3,10.7-1.5,16.5c-7.6,0-15.3-0.4-22.9,0c-10.9,0.6-16.5-1.4-14.7-8.5
			c1.9-7.2,3.7-14.4,5.5-21.6C978,260.7,982.9,259.8,987.8,258.9z"/>
		<path class="st12" d="M1119.5,332.6c-8.3-1.9-14.8-2.7-19.5-4.8c-2.9-1.3-4.9-6.9-4.3-7.1c8.8-2.7,18.3-6.7,27.4-6.5
			c5.2,0.1,10,7.1,15,11.1C1131.6,327.8,1125.1,330.4,1119.5,332.6z"/>
		<path class="st5" d="M1016.7,295.3c3.9,6.8,0.9,10.6-12,10.4c-9.1-0.1-18.2-0.3-27.3,0.1c-3.4,0.2-8.6,1.9-9.3,3.5
			c-4.2,9.5,10.1,21.2,27,22.7c-16.6,3.7-23.2,2.1-27.6-7.7c-2.8-6.3-3.7-12.9-6.1-21.5c14.4,0,27.3-0.9,39.6,0.2
			c13.5,1.3,14.4-1.5,10.1-7.7C1013,295.3,1014.9,295.3,1016.7,295.3z"/>
		<path class="st5" d="M973.1,261.7c-1.8,7.2-3.6,14.4-5.5,21.6c-1.8,7.1,3.8,9.2,14.7,8.5c7.6-0.4,15.2,0,22.9,0
			c0.1,0.6,0,1.1,0,1.7c-13.8,0-27.7,0-44.6,0c2.2-9.3,4.5-19.5,7.3-29.7C968,262.9,971.3,262.4,973.1,261.7z"/>
		<path class="st12" d="M1057.4,199.2c1.1-1.2,2.2-2.3,3.3-3.5c0.5,1.3,0.9,2.5,1.4,3.8C1060.5,199.4,1058.9,199.3,1057.4,199.2z"/>
		<path class="st12" d="M1065.7,192c0.1-0.5,0.2-1.1,0.3-1.6c1.1,0.3,2.3,0.6,3.4,0.9C1068.2,191.6,1067,191.8,1065.7,192z"/>
		<path class="st12" d="M1068.8,188.6c0.9-0.6,1.8-1.2,2.6-1.8C1070.5,187.4,1069.6,188,1068.8,188.6z"/>
		<path class="st5" d="M973.1,345.8c-7.4-3-15.7-5.7-13.8-12.5c5.1,3.1,10.2,6.1,15.3,9.2C974.1,343.6,973.6,344.7,973.1,345.8z"/>
		<path class="st5" d="M1023.6,320c9.2,5.7,4.5,9.9-4.2,13.5C1020.7,329,1022.1,324.5,1023.6,320z"/>
		<path class="st5" d="M1005.1,344.1c-6-0.2-11.9-0.4-17.9-0.6c6.4-1.4,12.8-2.9,19.2-4.3c0.6,0.5,1.1,1,1.7,1.4
			C1007.1,341.8,1006.1,343,1005.1,344.1z"/>
		<path class="st5" d="M1014.8,336.2c0.7,1.5,1.3,2.9,2,4.4c-2.9,0-5.7,0-8.6,0.1c-0.6-0.5-1.1-1-1.7-1.4
			C1009.2,338.2,1012,337.2,1014.8,336.2z"/>
		<path class="st11" d="M973.1,345.8c0.5-1.1,1-2.2,1.5-3.3c4,0.2,7.9,0.5,11.9,0.7c0.4,0.9,0.8,1.8,1.3,2.7
			c-4.8,0-9.6,0.1-14.4,0.1L973.1,345.8z"/>
		<path class="st5" d="M1019.5,333.4c-1.4,0.9-2.8,1.9-4.3,2.8C1016.6,335.3,1018,334.4,1019.5,333.4z"/>
		<path class="st4" d="M973.4,346c4.8,0,9.6-0.1,14.4-0.1c15.5,12,18.4,12.6,42.3,7.6c11.4-2.4,18.9,0.1,18.2,7
			c-0.9,8.3,6.7,10.9,17.8,11.4c15,0.7,22.5,5,23.5,14.2c0.2,1.8,5,3.9,8.4,5.1c3,1,7,0.8,11.5,1.3c-5.4,8.5-13.7,4.7-21.7,2.7
			c-5.1,6.9-7.4,15.6-24.7,13.7c-13.7-4.2-17.9-12.7-25.4-19.8c-1.6-1.5-4.9-2.7-7.9-3.4c-14.7-3.4-29.5-6.5-44.6-9.8
			c-5.7,0.9-13,2-20.4,3.2c-3.8-1.1-7.7-3.1-11.5-3.1c-18.4,0.2-36.8,1-55.1,1.6c1.8-15.3,5.9-18.1,30.9-17.5
			C949,360.6,966.1,359.3,973.4,346z"/>
		<path class="st5" d="M946.1,166.4c-0.8-6-1.3-12.1-2.6-18c-0.5-2.2-2.9-4.3-4.4-6.4c-3.5,1.2-7.1,2.4-10.4,3.8
			c-3,1.3-5.7,2.8-8.5,4.2c2.1-2.9,3.1-6.3,6.5-8.4c3.2-2,9.3-3.8,13.2-3.2c4,0.5,9.7,4,9.7,6.2C949.6,151.7,947.5,159,946.1,166.4z
			"/>
		<path class="st5" d="M920.5,149.8c0.2,5.7,1.2,11.5,0.3,17.1c-0.7,5.1-4.3,9.2-14.1,4.2c2.9-2.1,7.1-3.9,8.3-6.3
			C917.7,160,918.8,154.9,920.5,149.8z"/>
		<path class="st5" d="M903.9,158.9c-2.7-7.8-4-15.4,9.7-20.5C910.4,145.2,907.2,152,903.9,158.9z"/>
		<path class="st5" d="M942.5,172.2c0.2-1.9-8.9-6.1,3.4-5C944.8,168.9,943.6,170.5,942.5,172.2z"/>
		<path class="st4" d="M1011.4,268.9c-1.2-0.6-2.3-1.2-3.5-1.8C1009.1,267.8,1010.3,268.4,1011.4,268.9z"/>
		<path class="st11" d="M883.4,146.6c8.7,6.7,5.5,14,2.9,21.2C875.5,161.3,880.6,153.9,883.4,146.6z"/>
		<path class="st14" d="M1271.5,227.1c-0.9,0.5-1.8,1-2.7,1.5C1269.7,228.1,1270.6,227.6,1271.5,227.1z"/>
		<path class="st16" d="M1237.5,331.6c1.7-1.6,3.3-3.3,5-4.9c0.1,0.6,0.2,1.2,0.3,1.7C1241,329.5,1239.3,330.5,1237.5,331.6z"/>
		<path class="st17" d="M1106.6,407c-1,0.6-1.9,1.1-2.9,1.7C1104.7,408.2,1105.6,407.6,1106.6,407z"/>
		<path class="st11" d="M1008.1,340.6c2.9,0,5.7,0,8.6-0.1c-1.4,4.1-3.8,7.1-11.6,3.5C1006.1,343,1007.1,341.8,1008.1,340.6z"/>
	</g>
</g>
</svg>
