<?xml version="1.0" encoding="utf-8"?>
<!-- Generator: Adobe Illustrator 25.0.0, SVG Export Plug-In . SVG Version: 6.00 Build 0)  -->
<svg version="1.1" id="Ebene_1" xmlns="http://www.w3.org/2000/svg" xmlns:xlink="http://www.w3.org/1999/xlink" x="0px" y="0px"
	 viewBox="0 0 283.46 283.46" style="enable-background:new 0 0 283.46 283.46;" xml:space="preserve">
<g>
	<path d="M139.58,226.07c-35.45-2.19-64.34-19.8-80.63-55.3C39.07,127.44,56.01,76.6,97.41,52.91c5.75-3.29,12.05-5.65,18.23-8.11
		c3.98-1.58,7.3-0.4,9.66,2.7c2.16,2.82,2.09,6.25-0.19,9.8c-20.14,31.34-16.74,70.1,9.43,96.29c21.1,21.12,46.77,27.13,75.62,19.73
		c4.69-1.2,7.92-0.29,10.19,3.07c1.99,2.93,1.7,6.3-0.97,10.05c-1.57,2.21-3.15,4.43-4.92,6.48
		C195.6,214.76,171.61,225.5,139.58,226.07z M100.41,70.09c-23.95,17.34-35.92,40.85-32.98,70.35c3.08,30.9,19.88,52.96,48.87,64.2
		c26.83,10.4,52.07,5.57,75.85-11.93c-32.4-0.47-58.57-12.14-77.56-37.73C95.5,129.26,91.82,100.73,100.41,70.09z"/>
</g>
</svg>
