<?xml version="1.0" encoding="utf-8"?>
<!-- Generator: Adobe Illustrator 25.0.0, SVG Export Plug-In . SVG Version: 6.00 Build 0)  -->
<svg version="1.1" id="Ebene_1" xmlns="http://www.w3.org/2000/svg" xmlns:xlink="http://www.w3.org/1999/xlink" x="0px" y="0px"
	 viewBox="0 0 1920 1080" style="enable-background:new 0 0 1920 1080;" xml:space="preserve">
<style type="text/css">
	.st0{fill:#FAFAFA;}
	.st1{fill:#FEFEFE;}
	.st2{fill:#FCFCFC;}
	.st3{fill:#FDFDFD;}
	.st4{fill:#3467FE;}
	.st5{fill:#2C3033;}
	.st6{fill:#262A2E;}
	.st7{fill:#3A6BFE;}
	.st8{fill:#E3E3E3;}
	.st9{fill:#25292D;}
	.st10{fill:#292D31;}
	.st11{fill:#2A2D31;}
	.st12{fill:#4674FE;}
	.st13{fill:#212529;}
	.st14{fill:#878787;}
	.st15{fill:#EFEFEF;}
	.st16{fill:#909090;}
	.st17{fill:#858585;}
	.st18{fill:#828282;}
	.st19{fill:#EAEAEB;}
	.st20{fill:#C6C6C6;}
	.st21{fill:#5B6268;}
	.st22{fill:#272727;}
	.st23{fill:#3C3C3C;}
	.st24{fill:#101010;}
	.st25{fill:#E3EAFE;}
	.st26{fill:#F8F8F8;}
	.st27{fill:#F6F6F6;}
</style>
<g>
	<g>
		<path class="st0" d="M0,1080C0,720,0,360,0,0c640,0,1280,0,1920,0c0,360,0,720,0,1080C1280,1080,640,1080,0,1080z M1816,693.6
			c1.5-0.9,2.9-1.8,4.4-2.6c3.6-4.1,7.1-8.1,10.7-12.2c0.8-1.7,1.5-3.3,2.3-5c0,0,0,0,0,0c0.7-1.7,1.5-3.3,2.2-5l0,0
			c1.5-4.8,4.1-9.6,4.2-14.5c0.4-22.5,0.4-45.1,0-67.7c-0.1-4.9-2.7-9.7-4.2-14.5l0,0c-0.7-1.7-1.5-3.3-2.2-5l0,0
			c-0.8-1.7-1.5-3.3-2.3-5c-3.6-4.1-7.1-8.1-10.7-12.2c-1.5-0.9-2.9-1.8-4.4-2.6l0,0c-1.5-0.8-2.9-1.7-4.4-2.5c0,0,0,0,0,0
			c-3.6-1.6-7.2-3.3-10.9-4.9c-524,0-1047.9,0-1571.9,0.1c-3.4,0-6.7,1.6-10.1,2.4c-16.5,6.3-30,16.3-34.6,37.1
			c-0.8,3.4-2.1,6.8-2.2,10.2c-0.2,20.4-0.2,40.9,0,61.3c0,3.4,1.4,6.8,2.2,10.2c4.2,7.7,7.3,16.8,13,22.8c6,6.3,14.3,9.7,21.6,14.3
			c3.4,0.8,6.7,2.4,10.1,2.4c524,0.1,1047.9,0.1,1571.9,0.1c3.6-1.6,7.2-3.3,10.9-4.9l0,0C1813.1,695.2,1814.5,694.4,1816,693.6
			L1816,693.6z M998.1,410.2c2.2,0.9,4.4,1.8,6.9,2.8c0-12.4,0-24.3,0-38c-2.7,2.9-4.2,4.4-5.6,6c-6.8-8.9-14.3-7.7-21.6-1.1
			c-6.1,5.5-6.9,19.3-2.3,26.9C980.4,414.9,988.3,416.1,998.1,410.2z M921,834.8c-3-0.8-6-2.4-9-2.4c-47.4-0.2-94.9-0.2-142.3,0
			c-3,0-6,1.5-9,2.4c-9.4,1.9-10.4,11-10.6,18.8c-0.6,25.4-0.6,50.9,0,76.3c0.2,7.9,1.2,16.9,10.6,18.8c3,0.8,6,2.4,9,2.4
			c47.4,0.2,94.9,0.2,142.3,0c3,0,6-1.5,9-2.4c9.4-1.9,10.4-11,10.6-18.8c0.6-25.4,0.6-50.9,0-76.3
			C931.4,845.7,930.4,836.7,921,834.8z M1267.7,948.7c3,0.8,6,2.4,9,2.4c48.9,0.2,97.8,0.2,146.6,0c3,0,6-1.5,9-2.4
			c9.4-1.9,10.4-11,10.6-18.8c0.6-25.4,0.6-50.9,0-76.3c-0.2-7.9-1.2-16.9-10.6-18.8c-3-0.8-6-2.4-9-2.4c-48.9-0.2-97.8-0.2-146.6,0
			c-3,0-6,1.5-9,2.4c-9.4,1.9-10.4,11-10.6,18.8c-0.6,25.4-0.6,50.9,0,76.3C1257.3,937.8,1258.3,946.8,1267.7,948.7z M962.2,948.7
			c3.7,0.8,7.5,2.4,11.2,2.4c80.7,0.1,161.3,0.1,242,0c3.7,0,7.5-1.5,11.2-2.4c9.4-1.9,10.4-11,10.6-18.8c0.6-25.4,0.6-50.9,0-76.3
			c-0.2-7.9-1.2-16.9-10.6-18.8c-4.1-0.8-8.2-2.4-12.3-2.4c-83.3-0.1-166.6-0.1-249.9-0.1c-9.2,3.6-12.8,11.7-12.9,21.9
			c-0.2,25.2-0.4,50.4,0.1,75.5C951.7,937.7,952.7,946.7,962.2,948.7z M654.6,951.2c18.7,0,37.5,0.1,56.2,0
			c13.2-0.1,19.4-6.8,19.5-21.6c0.1-25.1,0.1-50.3,0-75.4c-0.1-14.8-6.2-21.9-19.2-21.9c-37.9-0.1-75.7-0.1-113.6,0
			c-12.5,0-18.8,7-18.9,20.9c-0.1,25.5-0.1,51.1,0,76.6c0.1,14.1,6.3,21.2,18.6,21.3C616.4,951.3,635.5,951.2,654.6,951.2z
			 M343.9,127.9c0,38.1,0,73.7,0,109.9c12.9,0,25.2,0.6,37.4-0.1c24.2-1.5,42.1-21.2,43.6-47.1c1.8-32.5-11.2-54.4-37.1-59.4
			C373.6,128.5,359.1,129,343.9,127.9z M1155.9,227.6c19.8,15.7,37.9,15.1,50.9-0.6c13-15.7,14.1-44.3,2.5-61.8
			c-11.7-17.5-29.9-19.1-54.3-3.7c0-13.6,0-26.5,0-39.1c-5.6,0-9.8,0-14.6,0c0,38.6,0,76.7,0,115c5.1,0,9.7,0,14.4,0
			C1155.1,234.3,1155.5,231.6,1155.9,227.6z M1661.8,237.4c-10.4-33.3-20.3-64.9-30.1-96.7c-2.3-7.3-4.2-12.4-13-12.4
			c-9,0-10.8,5.3-12.9,12.6c-1.6,5.9-3.6,11.6-5.4,17.4c-8.1,26.1-16.2,52.2-24.9,80c7.5-2.5,16.6,4.8,18.5-7.1
			c2.5-15.1,10.4-16.3,21.5-16.1c14.5,0.3,29.2-2.2,28.6,22.2C1650.5,237.4,1655.5,237.4,1661.8,237.4z M824.7,201.8
			c2.2-27.7-8.6-47-27.1-50.6c-22.1-4.3-40.6,8.1-45.2,30.5c-5.2,25.3,5.5,49.7,24.7,55.8c20.6,6.6,38.5-3,45.4-24.9
			c-7.9-0.7-14.3-1.3-21.2,6.5c-11.2,12.6-30.1,2.5-32.7-17.3C787.1,201.8,805.6,201.8,824.7,201.8z M1102.1,201.8
			c2.1-27.8-8.7-47-27.2-50.6c-22.1-4.3-40.6,8.2-45.2,30.6c-5.2,25.3,5.6,49.7,24.7,55.8c20.6,6.6,38.5-3.1,45.3-24.9
			c-7.9-0.7-14.3-1.3-21.2,6.5c-11.2,12.6-30.2,2.4-32.6-17.4C1064.5,201.8,1083.1,201.8,1102.1,201.8z M1292.9,201.6
			c4.3-24.9-6.5-45.8-25.3-50.3c-23.4-5.6-42.5,8.3-46.9,34.3c-4.1,24.5,8.1,47.5,27.9,52.3c20.8,5.1,38.5-5.5,43-29.5
			c-8.3,4.3-14.3,8.6-20.9,10.5c-7.2,2.1-15.3,3.9-22.3,2.2c-7-1.7-11.4-9.1-10.6-19.6C1256.6,201.6,1274.8,201.6,1292.9,201.6z
			 M952.1,122.5c0,38.7,0,76.7,0,114.8c5.2,0,9.8,0,16.2,0c0-18.6-0.9-36.8,0.6-54.7c0.5-5.7,6.8-13.7,11.7-15.2
			c5.6-1.8,14,0.6,18.6,4.8c3.9,3.5,5.5,12.2,5.9,18.8c0.8,15.4,0.3,31,0.3,46.1c5.9,0,10.4,0,15.4,0c0-18.8,0.5-36.9-0.1-55
			c-0.7-19-12.4-31.7-28.7-30.9c-7.9,0.4-15.7,3.6-24.4,5.8c0-10.5,0-22.3,0-34.5C961.6,122.5,957.1,122.5,952.1,122.5z
			 M637.8,150.9c-22.9-0.1-39,17.8-39.2,43.4c-0.2,25.5,16.5,45.4,38.2,45.4c21.8,0.1,39-19.3,39.3-44.4
			C676.3,169.4,660.4,150.9,637.8,150.9z M1538.9,237.3c0-20.2,1-39.9-0.3-59.5c-1.2-16.7-12.8-27.3-27.4-26.7
			c-7.9,0.3-15.7,3.3-20.6,4.4c-7.5-2.1-13.1-3.7-19.2-5.4c0,30.8,0,59,0,87.2c5.2,0,9.8,0,15.1,0c0-15.7-0.1-30.9,0-46
			c0.2-17,6.7-25.4,19.1-25.2c12,0.2,18,8.2,18.1,24.8c0.1,15.5,0,31,0,46.5C1529.8,237.3,1534.4,237.3,1538.9,237.3z M459.7,211.5
			c-1.6,19.1,18.7,29.4,33.2,27.9c15.9-1.7,25.1-10.7,26-24c0.8-12.3-5.9-20.4-21.7-26.1c-5.4-2-11.1-3.4-16.2-6.2
			c-6.6-3.6-7.2-13.1-1-14.9c5.8-1.7,15.9-1.6,18.3,2.4c5.7,9.2,11.8,8,19.2,7c-2.7-20.6-13.1-28.4-34.8-26.6
			c-11.9,1-21.7,10.1-23.1,21.7c-1.4,11.2,4.5,20.4,16.6,25.3c7.1,2.9,14.5,4.8,21.4,8c6.8,3.2,7.7,11.4,1.7,15.1
			c-7.1,4.4-16,5.6-20.7-2.2C473.6,210.1,467.6,210.6,459.7,211.5z M1357.8,178c-1.3-26-23.6-30.9-41.3-25.4
			c-9.7,3-16.4,10.3-16.5,23c-0.1,12.4,6.8,18.5,15.7,22.3c7.4,3.2,15.2,5,22.4,8.5c6.8,3.3,7.3,11.4,1.1,15.1
			c-7.1,4.2-16.1,5.2-20.7-2.6c-5.6-9.6-11.9-7.9-19.1-7c-0.8,18.6,17.9,28.6,32.6,27.7c15.8-1,25.6-10,26.7-23.2
			c1.2-13.6-4.9-21.2-21.7-27.2c-5.5-2-11.2-3.3-16.3-6.2c-6.7-3.9-7.1-13.1-0.6-14.9c5.9-1.6,16.3-1.3,18.4,2.6
			C1343.9,180.5,1350.2,178.1,1357.8,178z M595.4,208.6c-7.4,2.1-15.2,1.7-18.1,5.7c-7.3,10.2-15.8,11.7-25,7.7
			c-10.4-4.7-12.8-16-12.7-27.7c0.2-11.6,2.6-23.5,13.4-26.8c6.1-1.9,16-0.7,19.7,3.8c6.7,8.2,13.2,7.8,21.1,6.7
			c-3.9-20.1-16.8-28.8-39.1-27c-17.3,1.4-30.1,18.2-31,40.7c-1,24.7,9.9,42.2,28.9,46.5C572.7,242.7,588.1,233.1,595.4,208.6z
			 M675.4,152.5c9,27,17.6,53.5,26.8,79.8c0.9,2.6,5.2,5.2,7.9,5.2c4.5,0,12.1-0.6,13.1-3.5c9.8-26.8,18.6-54.2,27.9-82.3
			c-6.1,0-11.1,0-16.6,0c-6.8,22-13.6,44.2-21.3,69.2c-6.3-20.3-12.7-37.3-16.7-55C693.6,152.5,687.9,148.3,675.4,152.5z
			 M944.3,222.9c-3.8,0-7.3,0.9-10.1-0.3c-2.8-1.2-7-4.4-7.1-6.9c-0.6-16.2-0.3-32.5-0.3-49c6.8-0.4,12.1-0.7,17.3-1
			c0-5.1,0-9.4,0-14.6c-5.9,0-11.2,0-16.9,0c-0.4-7.2-0.7-13.5-1-19.8c-5.8,0-10.6,0-16.1,0c0,6.9,0,13,0,19.7
			c-11.1-1.3-8.6,6.8-8.1,14c2.7,0.9,5.5,1.9,8.3,2.9c0,16.1-0.3,31.3,0.1,46.5c0.4,15.9,7,23.1,20.9,23.5c4.2,0.1,8.5,0,13.1,0
			C944.3,232.7,944.3,228.7,944.3,222.9z M1363,163.7c1.1,0,2.2,0,3.2,0.1c1.7,4.2,4.7,8.4,4.9,12.7c0.7,13.5,0,27.2,0.5,40.7
			c0.4,12.3,6.1,19.1,16.6,20.3c5.5,0.6,11.2,0.1,16.5,0.1c0-5.8,0-10.1,0-14c-6.8-2.5-16.9,3.5-17.4-9.9c-0.6-15.5-0.1-31-0.1-47.1
			c6.6-0.5,12.1-0.8,17.6-1.2c0-5.2,0-9.5,0-13.9c-6.3-0.4-11.9-0.7-18.1-1.1c0-7.3,0-13.3,0-19.6c-5.3,0-9.9,0-15.1,0
			c0,6.6,0,12.6,0,19.2c-3.2,0.8-5.8,1.4-8.6,2C1363,156.4,1363,160.1,1363,163.7z M848.8,152c-5.1,0-9.9,0-14.5,0
			c0,29,0,57.1,0,85.2c5.2,0,9.7,0,15,0c0-13.7,0-26.8,0-39.9c0.1-22.6,2.7-26.1,22.1-29.8c0-5.2,0-10.5,0-18.8
			c-8.1,4-15,7.4-21.8,10.7C849.5,157.5,849.1,154.7,848.8,152z M1685,237.2c0-36.4,0-72,0-107.9c-5.3,0-9.9,0-15.1,0
			c0,36.1,0,71.7,0,107.9C1674.8,237.2,1679.4,237.2,1685,237.2z M1441.8,151.7c0,29.2,0,57.3,0,85.7c5.2,0,9.8,0,14.7,0
			c0-28.7,0-56.9,0-85.7C1451.6,151.7,1447.1,151.7,1441.8,151.7z M448.2,237.5c0-29.3,0-57.5,0-85.6c-5.2,0-9.6,0-14.1,0
			c0,28.9,0,57.2,0,85.6C438.9,237.5,443.2,237.5,448.2,237.5z M1079,378.4c-1.7-0.6-2.7-0.8-3.6-1.3c-7.8-4.1-14.9-2.9-20.3,4.8
			c-5.3,7.5-5.1,16-0.9,24.1c4.7,8.9,12,9,19.9,7c3.4-0.9,7.1-0.6,10.1-0.7c0-16.8,0-33.6,0-50.3c-1-0.1-1.9-0.2-2.9-0.3
			C1080.6,366.9,1079.9,372.1,1079,378.4z M756.4,374.2c-0.3-2.3-1-7.5-2.1-15.6c-5.9,13.8-5.2,48.5,1,56.2
			c0.3-7.4,0.7-13.3,0.7-19.2c0-8,1.1-15.9,9.7-15.8c8.2,0.1,10.1,7.5,10.1,15.7c0,5.9,0.5,11.9,0.8,17.8c1.7-0.2,3.4-0.5,5.1-0.7
			c-1.7-11.1-1.6-23.2-5.7-33C774.1,375.5,763.8,376.1,756.4,374.2z M1214.7,412c13.1-13.3,14.9-13.3,36.2,2.9
			c-6.1-18.5-11.4-34.5-16.7-50.5c-1.4,0.2-2.8,0.4-4.2,0.6C1224.9,380.6,1219.8,396.3,1214.7,412z M577.4,398.5
			c3.3,13.6,6.8,17.2,15.8,14.9c4.6-1.2,10.4-6.4,11.7-11.2c2.3-8-3.7-12.3-10.1-14.4c-1.7-0.6-3.8-0.7-5.1-1.9
			c-2.6-2.4-5.3-5.1-6.7-8.4c-0.6-1.4,1.8-6.3,3.3-6.6c3.5-0.7,7.4-0.1,11,1c2.2,0.7,3.9,3.2,7.8,6.5c-3.9-11.8-9.2-16.6-15.8-13.7
			c-4.6,2-10.2,7.2-11.4,12.3c-2,8.2,4.6,11.8,10.7,14.1c1.4,0.5,3.2,0.2,4.1,1.1c2.7,2.7,5.7,5.5,7.4,9.1c0.6,1.2-1.9,6.4-3.2,6.6
			c-4,0.5-8.3,0-12.1-1.3C582.6,405.8,581.1,402.8,577.4,398.5z M643.1,396.7c-0.3-14.3-5.4-21.4-14.6-22c-8.5-0.6-16,6.7-17.2,16.8
			c-1.3,10.4,3.8,20.1,11.7,22.2c9.7,2.6,15.5-0.9,18.8-11.4c-18.9,9.8-21.8,9.2-24-5.6C626,396.7,634.2,396.7,643.1,396.7z
			 M682.5,378.9c-4.4-0.9-7.6-1.1-10.4-2.3c-7.6-3.2-14.4-2-19.3,5.4c-5,7.5-5,16.1-0.8,24.2c4.5,8.5,11.6,8.5,19,7
			c3.7-0.7,7.3-1.2,11.4-1.9C682.5,400.8,682.5,389.3,682.5,378.9z M852.1,413.3c1.6,0,3.2-0.1,4.8-0.1c0.8-11.2,4.4-23.8-3.6-32.8
			c-4.2-4.7-12.8-4.1-20.7-6.2c-0.2-1.6-0.8-6.8-1.4-12.1c-0.7,0.1-1.3,0.2-2,0.3c0,16.9,0,33.8,0,50.7c1.1,0,2.1,0,3.2,0.1
			c0-6.8-1.3-14.1,0.4-20.2c1.5-5.2,6.1-11.9,10.2-12.8c6.9-1.5,9.4,5.5,9.2,13.1C852,399.9,852.1,406.6,852.1,413.3z M1156.7,414
			c10,0,17.1-7.7,17.3-18.9c0.2-10.5-7.5-20-16.6-20.4c-9.7-0.4-17.5,8.6-17.5,20.2C1139.9,406.5,1146.5,414,1156.7,414z
			 M1040,413.2c1.8-0.1,3.7-0.2,5.5-0.3c-1.2-10.8-0.1-23-4.2-32.1c-5.8-13-17.1-1.6-25.1-3.5c0,12.4,0,24.3,0,36.2
			c1.4,0,2.8-0.1,4.2-0.1c0-6.6,0-13.2,0-19.8c-0.1-7.5,2.2-13.7,9.3-13.8c7.6-0.1,10.3,6.2,10.3,14.2
			C1040,400.4,1040,406.8,1040,413.2z M881,374.5c-9.4-0.1-16.6,8.6-16.7,20c-0.1,12.2,5.9,19.4,16.4,19.4
			c10.4,0,16.6-7.1,16.7-19.2C897.5,383.4,890.4,374.6,881,374.5z M1333.7,374.5c-9.4,0.1-16.4,8.8-16.4,20.3
			c0,12.2,6.1,19.2,16.6,19.1c10.4-0.1,16.5-7.3,16.5-19.5C1350.4,383.1,1343.1,374.4,1333.7,374.5z M1356.2,394.9
			c0,12.1,6.2,19.1,16.7,19c10.3-0.1,16.4-7.4,16.4-19.6c0-11.4-7.3-20-16.8-19.8C1363.2,374.7,1356.2,383.4,1356.2,394.9z
			 M942.6,402.9c-0.6,0.6-1.1,1.2-1.7,1.8c1.7,2.4,3.2,6.4,5.2,6.9c5,1.2,10.5,1.6,15.5,0.5c2-0.5,5.2-7.3,4.5-8.4
			c-2.7-4.2-6.7-7.3-10.4-10.6c-1.1-1-3.1-0.8-3.9-1.9c-1.7-2.5-2.8-5.4-4.1-8.2c2.9-0.9,6-3.1,8.6-2.5c3,0.7,5.4,3.9,9.1,6.8
			c-2.4-9.3-7.2-14.4-12.5-12.4c-4.1,1.6-7.3,6.5-10.9,9.9c3.5,3.9,6.9,8,10.5,11.7c1,1,3,0.8,3.9,1.9c1.7,2,3,4.6,4.4,6.9
			c-2.4,1.3-5.2,4-7.2,3.5C949.6,407.9,946.2,405,942.6,402.9z M1093,402c1.9,12,8.8,13,15.5,11.5c3.5-0.8,8.4-4.8,9-8.3
			c1.7-8.6-4.9-10.5-10.6-12.4c-1-0.3-2.3-0.6-2.9-1.4c-1.8-2.5-3.4-5.2-5-7.8c3.4-0.9,7-2.7,10.3-2.3c2.4,0.3,4.6,3.4,8.9,7
			c-2.5-11.6-8.2-14.7-14.2-13.1c-4,1-7.1,6.6-10.6,10.1c3.7,3.8,7.3,7.7,11,11.4c1,1,2.9,0.9,3.9,1.9c1.6,1.8,2.8,4,4.2,6.1
			c-2.3,1.5-4.9,4.7-6.8,4.2C1101.9,408,1098.4,405.1,1093,402z M1410.3,402.9c2.5,9.9,4.9,12.6,13.3,10.7c4-0.9,7.3-6,10.9-9.2
			c-3.6-3.8-7.2-7.7-10.9-11.4c-0.8-0.8-2.3-0.7-2.9-1.5c-1.8-2.8-3.3-5.8-4.9-8.7c3.2-0.7,6.6-2.3,9.6-1.7c2.5,0.5,4.6,3.6,9.2,7.6
			c-2.4-11.9-8.1-15-14-13.6c-4,0.9-7.2,6.4-10.8,9.9c3.6,3.9,7.1,7.8,10.7,11.6c1,1,2.9,0.9,3.9,1.9c1.7,1.7,3,3.9,4.4,5.9
			c-2.2,1.6-4.7,4.9-6.5,4.5C1418.3,407.9,1414.5,405.1,1410.3,402.9z M908.9,376.6c-1.5,0.1-3.1,0.2-4.6,0.3
			c0.8,10.1-0.5,21.2,2.8,30c5.3,14.1,17.5,2.7,25.5,5.6c0-11.8,0-23.7,0-35.6c-1,0.1-2,0.1-3,0.2c0,6.4,0.1,12.9,0,19.3
			c-0.2,7.5-2.8,13-10.1,13.1c-7.4,0.1-9.7-5.4-9.8-13C909.6,389.8,909.1,383.2,908.9,376.6z M742.1,389.7
			c-1-10.7-6.4-15.7-14.8-14.9c-9,0.9-15.5,9.5-15.4,20.3c0.1,11,6.6,18.6,16.1,18.9c7.7,0.3,13-2.7,14.1-12.2
			c-6.9,6.1-14.5,13.1-21.3,3.4c-3.1-4.4-3.1-16.2-0.1-20.8C728.2,372.9,735.3,383.1,742.1,389.7z M1194.7,362.7
			c-0.9-0.8-1.8-1.6-2.7-2.5c-3.2,2.7-7.8,4.6-9.2,8.1c-5.7,14.6-0.8,29.7,0.3,44.5c0,0.2,1.3,0.2,2.4,0.3
			c6.2-10.7-5.2-27.1,8.7-35.7C1182.1,372.8,1189.5,367.7,1194.7,362.7z M1297.1,370.7c0,14.7,0,28.7,0,42.7c1.3,0,2.5,0.1,3.8,0.1
			c0-14.5,0-29,0-42.8c5.4-1.4,8.5-2.2,11.5-3.1c-0.1-0.7-0.3-1.3-0.4-2c-8.8,0-17.5,0-26.3,0c-0.1,0.7-0.1,1.5-0.2,2.2
			C1288.6,368.7,1291.8,369.5,1297.1,370.7z M1451.3,115.6c-1.6,0.1-3.1,0.2-4.7,0.3c-2.4,4.6-7,9.5-6.7,13.9
			c0.3,3.9,6.5,10.6,9.2,10.1c3.8-0.8,9-6.8,9.4-11.1C1459,124.8,1454,120,1451.3,115.6z M444.3,115.9c-1.6-0.1-3.2-0.1-4.7-0.2
			c-2.7,4.4-7.9,9.1-7.5,13.1c0.4,4.3,6.1,7.9,9.5,11.9c3.2-3.6,8.7-7,9-10.9C450.9,125.4,446.6,120.5,444.3,115.9z M818.4,377.5
			c-2.4-2.7-5.9-6.6-9.8-11c-6.6,13.8-0.5,27.6-0.3,41.1c0,2.5,7,4.9,10.8,7.4c0.4-1.1,0.9-2.2,1.3-3.3c-8.6-5.4-9.2-6-7.8-22.6
			C813,385.1,816.3,381.5,818.4,377.5z M1400.5,362.1c-0.9,0-1.8,0-2.7,0c0,17.1,0,34.1,0,51.2c0.9,0,1.8,0,2.7,0
			C1400.5,396.3,1400.5,379.2,1400.5,362.1z M692.3,413c1.3,0,2.7,0.1,4,0.1c0-7.2-1.4-14.9,0.4-21.4c1.7-5.8,6.9-10.4,11.2-16.4
			c-5.6,0.7-10.5,1.4-15.6,2.1C692.3,389.3,692.3,401.1,692.3,413z M1260.3,365.4c-0.8,0-1.5,0-2.3,0c0,15.9,0,31.8,0,47.7
			c0.8,0,1.5,0,2.3,0C1260.3,397.2,1260.3,381.3,1260.3,365.4z"/>
		<path class="st1" d="M1820.3,550.1c3.6,4.1,7.1,8.1,10.7,12.2c0.8,1.7,1.5,3.3,2.3,5c0,0,0,0,0,0c0.7,1.7,1.5,3.3,2.2,5
			c0,0,0,0,0,0c0,32.2,0,64.4,0,96.6c0,0,0,0,0,0c-0.7,1.7-1.5,3.3-2.2,5c0,0,0,0,0,0c-0.8,1.7-1.5,3.3-2.3,5
			c-3.6,4.1-7.1,8.1-10.7,12.2c-1.5,0.9-2.9,1.8-4.4,2.6c0,0,0,0,0,0c-1.5,0.8-2.9,1.7-4.4,2.5c0,0,0,0,0,0
			c-3.6,0.9-7.2,1.7-10.9,2.6c-5.4,0-10.8-0.1-16.3-0.1c-521.9,0-1043.8,0-1565.7,0c-7.3-4.6-15.7-8-21.6-14.3
			c-5.6-6-8.7-15.1-13-22.8c0-27.3,0-54.5,0-81.8c4.6-20.8,18.1-30.8,34.6-37.1c4,0,7.9,0,11.9,0c523.3,0,1046.7,0,1570,0
			c3.6,0.9,7.2,1.7,10.9,2.6c0,0,0,0,0,0c1.5,0.8,2.9,1.7,4.4,2.5c0,0,0,0,0,0C1817.4,548.3,1818.9,549.2,1820.3,550.1z
			 M489.4,623.6c0.2,1.4,0.5,2.8,0.7,4.3c-4.3,1.2-10.5,4.8-12.5,2.9c-3.2-3.1-6-10.8-4.8-15.1c4.2-15.9,13.3-3.5,22.6-1.9
			c-6.8-10.2-13.9-15.6-21.2-8.4c-7.6,7.6-12.7,5.7-20.4-0.9c-0.8,10.2-0.3,19.8,1,29.1c0.2,1.4,4.7,2,9.1,3.7
			c-4.8-9.6-7.5-16.4,0.1-24.9c2.9,13.1,3.8,26.1,18.1,24.3c8.3-1,12.9-5.8,13.5-16.6c-5.2,0-10,0-16.6,0
			C483.7,621.6,486.5,622.6,489.4,623.6z M274.7,641.2c-1.4-9.4-2.3-18.2-4.1-26.8c-1.8-8.6-7.2-13.5-15.1-12.5
			c-8.2,1.1-13,6.8-12.8,16.5c0.2,9.1,5.3,16.6,12.5,15.1C264.2,631.8,269.7,636.3,274.7,641.2z M449.2,636
			c-1.4-9.3-1.1-18.5-4.7-24.7c-1.5-2.6-12.2-0.1-17.4,3c-2.4,1.5-3.5,10.8-2,15C429.6,641.4,439,635.5,449.2,636z M505.8,625.1
			c0.9,0.8,1.9,1.5,2.8,2.3c3.7-5.2,11-11,10.4-15.6c-1.4-11.9-10.5-7-17.2-6.9c0,10.7,0,20.6,0,30.5c0.6,0,1.3,0,1.9,0
			C504.5,632.1,505.1,628.6,505.8,625.1z M391.1,630.9c-6.8-1-13.2-0.3-17.9-3.3c-2.1-1.4-2.3-11.2-0.3-15.2
			c5.5-10.9,12-1.9,19.4,2.2c-0.8-10.6-7.2-11.7-12.1-11.9c-8.1-0.2-14.8,6-14.4,14.8c0.3,6.4,4.8,14.9,9.6,18.1
			C380.5,639,388.7,638.5,391.1,630.9z M399.9,635.3c0.8,0.1,1.6,0.1,2.4,0.2c0.3-3.3-0.1-7,1.1-9.8c1.6-3.9,4.4-7.1,6.7-10.6
			c1.4,3.4,3.1,6.6,4.1,10.1c1,3.6,1.4,7.5,2.6,14.6c6-17.6,3.4-27.7-5.1-30.1c-4.1-1.1-8-3-11.7-4.4
			C399.9,614.2,399.9,624.7,399.9,635.3z M537,605c-2.5,0-7.5,0-9.7,0c1.1,10.7,2.2,21,3.3,31.3c1.1,0,2.2,0,3.3,0
			C534.8,626,535.9,615.7,537,605z"/>
		<path class="st2" d="M1226.6,834.8c9.4,1.9,10.4,11,10.6,18.8c0.6,25.4,0.6,50.9,0,76.3c-0.2,7.9-1.2,16.9-10.6,18.8
			c-88.1,0-176.3,0-264.4,0c-9.4-2-10.4-11-10.6-18.9c-0.6-25.2-0.4-50.4-0.1-75.5c0.1-10.2,3.7-18.4,12.9-21.9
			c4.1,0.8,8.2,2.4,12.3,2.4C1059.9,834.8,1143.3,834.8,1226.6,834.8z M1079.3,890.9c-2.7-2-6.3-6.6-9.3-6.1
			c-3.6,0.5-8.2,4.5-9.8,8.4c-1.1,2.8,1.1,8.9,3.6,11.5c2.1,2.1,8,2.9,9.6,1.1C1076.2,902.8,1077,897.4,1079.3,890.9z M1044.6,906.8
			c7.7,0.2,8.1-0.5,8.1-8c0-0.6,0.7-1.6,1.2-1.8c7.9-2.7,2.3-8.3,0.4-9.4c-3.3-2-8.8-3.4-11.4-1.5c-2.7,1.9-4.8,8.3-4.3,12.3
			C1039.1,902.1,1043.3,905.2,1044.6,906.8z M1150.6,906.3c1,0.1,2,0.1,3,0.2c0.3-3.4,0.1-6.9,1-10.1c0.7-2.6,2.6-4.8,4-7.2
			c1.7,2.6,3.9,4.9,4.9,7.8c1,3,0.7,6.5,0.9,9.8c0.9,0,1.8,0,2.7,0c0.7-6.3,1.4-12.7,2.2-20.4c-6.2-0.8-12.3-1.5-18.6-2.3
			C1150.6,892.2,1150.6,899.3,1150.6,906.3z M1009.3,907.7c4.2-6.8,7.1-11.5,9.9-16c-1.6-1.1-4.2-2.8-8.8-5.8
			c6.1-2.2,9.2-3.4,12.4-4.5c-0.2-0.5-0.4-1-0.5-1.5c-4.5,0-8.9,0-13,0C1009.3,889.3,1009.3,897.9,1009.3,907.7z"/>
		<path class="st3" d="M1432.4,834.8c9.4,1.9,10.4,11,10.6,18.8c0.6,25.4,0.6,50.9,0,76.3c-0.2,7.9-1.2,16.9-10.6,18.8
			c-54.9,0-109.8,0-164.7,0c-9.4-1.9-10.4-11-10.6-18.8c-0.6-25.4-0.6-50.9,0-76.3c0.2-7.9,1.2-16.9,10.6-18.8
			C1322.6,834.8,1377.5,834.8,1432.4,834.8z M1385.4,876.3c-3.5,3.2-5.8,7.3-8.4,7.5c-7.7,0.4-11.5,4.7-11,12.9
			c0.5,8.7,5.6,11.6,12.8,10c2.3-0.5,4.6-0.6,6.6-0.8C1385.4,895.9,1385.4,886.5,1385.4,876.3z M1351.6,906
			c-0.7-9.6,2.1-21.7-10.7-21.3c-2.8,0.1-7.9,7.9-7.7,11.8C1333.9,910.5,1343.5,906.4,1351.6,906z M1318.2,896.1
			c0.7,0.7,1.4,1.3,2.2,2c3.4-4,10.1-8.7,9.6-11.9c-1.9-11-9.9-6.4-15.1-6.6c0,9.8,0,18.3,0,26.9c0.7-0.1,1.4-0.1,2.1-0.2
			C1317.4,903,1317.8,899.5,1318.2,896.1z"/>
		<path class="st3" d="M760.6,948.7c-9.4-1.9-10.4-11-10.6-18.8c-0.6-25.4-0.6-50.9,0-76.3c0.2-7.9,1.2-16.9,10.6-18.8
			c53.5,0,106.9,0,160.4,0c9.4,1.9,10.4,11,10.6,18.8c0.6,25.4,0.6,50.9,0,76.3c-0.2,7.9-1.2,16.9-10.6,18.8
			C867.5,948.7,814.1,948.7,760.6,948.7z M843.1,906.9c7.6,0.2,8-0.4,8-8c0-0.6,0.7-1.6,1.2-1.8c7.9-2.7,2.3-8.4,0.4-9.4
			c-3.3-2-8.8-3.4-11.5-1.5c-2.7,1.9-4.8,8.3-4.3,12.3C837.6,902.1,841.8,905.2,843.1,906.9z M869.2,909.8c2-7,2.2-11.7,3.8-12.5
			c9-4.3,2.5-8.9-0.3-10.7c-2.8-1.8-8.2-1.9-10.6,0.2c-2.5,2.1-4.5,8.6-3.4,11.6C860.2,902.6,864.8,905.3,869.2,909.8z M807.1,906.4
			c0.9,0.1,1.7,0.2,2.6,0.3c0.5-3.9,1-7.7,1.5-11.5c2.4-0.5,4.7-1,7.1-1.5c-2.8-2.6-5.3-4.8-7.7-7c3.4-2.1,6.7-4.2,11-6.9
			c-5.7,0-10.2,0-14.6,0C807.1,889,807.1,897.7,807.1,906.4z"/>
		<path class="st4" d="M654.6,951.2c-19.1,0-38.2,0.1-57.3,0c-12.3-0.1-18.5-7.2-18.6-21.3c-0.1-25.5-0.1-51.1,0-76.6
			c0.1-13.9,6.4-20.9,18.9-20.9c37.9-0.1,75.7-0.1,113.6,0c13,0,19.1,7,19.2,21.9c0.1,25.1,0.1,50.3,0,75.4
			c-0.1,14.7-6.2,21.5-19.5,21.6C692.1,951.3,673.3,951.2,654.6,951.2z M664,877.4c-1.2-0.1-2.5-0.2-3.7-0.3
			c-0.6,8.7-1.1,17.3-1.7,26c-4.1-6.6-5.9-13.6-8.8-20c-0.7-1.6-7-2-7.2-1.4c-2.8,7.9-5,16-7.4,24.1c0.6,1.1,1.3,2.3,1.9,3.4
			c8.3-18,18.6,4.3,26.9-4.1C664,895.6,664,886.5,664,877.4z"/>
		<path class="st5" d="M343.9,127.9c15.2,1,29.7,0.6,43.8,3.3c25.9,4.9,39,26.8,37.1,59.4c-1.5,25.9-19.4,45.6-43.6,47.1
			c-12.2,0.7-24.4,0.1-37.4,0.1C343.9,201.7,343.9,166,343.9,127.9z M359.7,222.9c16.7,0,34,3.7,44-15.9c7.9-15.6,7.9-32.8-0.9-48
			c-10.3-17.8-26.8-15.7-43.1-14.8C359.7,170.4,359.7,195.8,359.7,222.9z"/>
		<path class="st6" d="M1155.9,227.6c-0.5,4-0.8,6.7-1.1,9.8c-4.7,0-9.2,0-14.4,0c0-38.3,0-76.4,0-115c4.7,0,9,0,14.6,0
			c0,12.7,0,25.5,0,39.1c24.3-15.4,42.6-13.8,54.3,3.7c11.6,17.4,10.5,46-2.5,61.8C1193.8,242.7,1175.7,243.3,1155.9,227.6z
			 M1201,194c-0.1-16.7-9.6-28.2-22.9-28c-12.9,0.2-22.8,12.8-22.7,28.8c0,16.1,9.9,28.5,22.8,28.6
			C1191.8,223.5,1201.1,211.6,1201,194z"/>
		<path class="st7" d="M1661.8,237.4c-6.3,0-11.2,0-17.6,0c0.6-24.4-14.1-21.9-28.6-22.2c-11.2-0.2-19.1,1-21.5,16.1
			c-1.9,11.9-11,4.6-18.5,7.1c8.6-27.8,16.8-53.9,24.9-80c1.8-5.8,3.8-11.5,5.4-17.4c2-7.3,3.9-12.6,12.9-12.6
			c8.8,0,10.8,5.1,13,12.4C1641.4,172.5,1651.4,204.2,1661.8,237.4z M1633.8,200.5c-4.9-16.1-9.5-30.9-15.1-49.2
			c-5.6,18.5-10.2,33.5-15,49.2C1614.3,200.5,1623.2,200.5,1633.8,200.5z"/>
		<path class="st6" d="M824.7,201.8c-19.1,0-37.6,0-56.3,0c2.6,19.8,21.5,29.9,32.7,17.3c6.9-7.8,13.4-7.2,21.2-6.5
			c-6.9,21.9-24.8,31.5-45.4,24.9c-19.1-6.1-29.9-30.5-24.7-55.8c4.6-22.4,23.1-34.8,45.2-30.5C816.1,154.8,826.9,174.1,824.7,201.8
			z M808.3,187c-1.5-15.5-8-21.6-21-21.2c-11.5,0.4-17.8,7.6-18.4,21.8c10.8,0,21.6,0,32.3,0C803.4,187.5,805.5,187.2,808.3,187z"/>
		<path class="st6" d="M1102.1,201.8c-19,0-37.6,0-56.3,0c2.5,19.8,21.4,30,32.6,17.4c6.9-7.8,13.4-7.2,21.2-6.5
			c-6.8,21.8-24.7,31.5-45.3,24.9c-19.1-6.1-29.9-30.5-24.7-55.8c4.6-22.4,23.1-34.9,45.2-30.6
			C1093.4,154.8,1104.2,174,1102.1,201.8z M1085.5,187.2c-1-14.8-7.2-21.3-19.4-21.4c-12.3-0.1-18.7,6.6-20,21.4
			C1059,187.2,1071.9,187.2,1085.5,187.2z"/>
		<path class="st8" d="M218.9,698.5c521.9,0,1043.8,0,1565.7,0c5.4,0,10.8,0,16.3,0.1c0,0.8,0,1.6,0,2.4c-524,0-1047.9,0-1571.9-0.1
			C225.6,700.9,222.2,699.3,218.9,698.5z"/>
		<path class="st6" d="M1292.9,201.6c-18.1,0-36.3,0-55.1,0c-0.8,10.5,3.6,17.9,10.6,19.6c7,1.7,15.1-0.1,22.3-2.2
			c6.6-1.9,12.6-6.2,20.9-10.5c-4.5,24-22.2,34.5-43,29.5c-19.8-4.8-32-27.8-27.9-52.3c4.4-26,23.4-40,46.9-34.3
			C1286.4,155.8,1297.2,176.7,1292.9,201.6z M1237.3,186.4c14.1,0,27.4,0,40.9,0c-3.3-15.5-9-20.8-21.1-20.6
			C1246,165.9,1240.5,171.4,1237.3,186.4z"/>
		<path class="st8" d="M1800.8,542.4c-523.3,0-1046.7,0-1570,0c-4,0-7.9,0-11.9,0c3.4-0.8,6.7-2.4,10.1-2.4
			c524-0.1,1047.9-0.1,1571.9-0.1C1800.8,540.8,1800.8,541.6,1800.8,542.4z"/>
		<path class="st9" d="M952.1,122.5c5,0,9.5,0,15.2,0c0,12.2,0,24,0,34.5c8.7-2.2,16.5-5.4,24.4-5.8c16.4-0.7,28,11.9,28.7,30.9
			c0.7,18.1,0.1,36.2,0.1,55c-4.9,0-9.4,0-15.4,0c0-15.2,0.6-30.7-0.3-46.1c-0.3-6.6-2-15.2-5.9-18.8c-4.6-4.2-13-6.5-18.6-4.8
			c-4.9,1.5-11.2,9.5-11.7,15.2c-1.5,17.9-0.6,36.1-0.6,54.7c-6.4,0-11,0-16.2,0C952.1,199.2,952.1,161.1,952.1,122.5z"/>
		<path class="st10" d="M637.8,150.9c22.6,0.1,38.6,18.6,38.2,44.4c-0.3,25.1-17.5,44.5-39.3,44.4c-21.7-0.1-38.4-19.9-38.2-45.4
			C598.7,168.6,614.8,150.8,637.8,150.9z M659.5,194.6c0-17-8.8-28.5-22.1-28.6c-13.4-0.2-22.1,10.9-22.2,28.3
			c-0.1,18,7.9,28.9,21.3,29.1C650.4,223.6,659.5,212.3,659.5,194.6z"/>
		<path class="st11" d="M1538.9,237.3c-4.5,0-9.1,0-15.1,0c0-15.5,0.1-31,0-46.5c-0.1-16.6-6.1-24.6-18.1-24.8
			c-12.4-0.2-19,8.2-19.1,25.2c-0.2,15.2,0,30.3,0,46c-5.4,0-9.9,0-15.1,0c0-28.2,0-56.4,0-87.2c6.1,1.7,11.7,3.3,19.2,5.4
			c4.9-1.1,12.7-4.1,20.6-4.4c14.7-0.6,26.3,10,27.4,26.7C1540,197.4,1538.9,217.1,1538.9,237.3z"/>
		<path class="st11" d="M459.7,211.5c7.9-0.9,13.9-1.4,19.1,7.4c4.7,7.8,13.6,6.6,20.7,2.2c6-3.7,5-11.9-1.7-15.1
			c-6.9-3.3-14.3-5.1-21.4-8c-12.1-4.9-18-14.2-16.6-25.3c1.5-11.6,11.2-20.8,23.1-21.7c21.7-1.8,32.1,6,34.8,26.6
			c-7.4,1-13.5,2.3-19.2-7c-2.5-4-12.5-4.1-18.3-2.4c-6.2,1.8-5.6,11.2,1,14.9c5.1,2.8,10.8,4.3,16.2,6.2
			c15.8,5.7,22.5,13.7,21.7,26.1c-0.9,13.4-10.2,22.3-26,24C478.4,240.9,458.1,230.6,459.7,211.5z"/>
		<path class="st11" d="M1357.8,178c-7.6,0.1-14,2.5-19.2-7.3c-2.1-3.9-12.5-4.3-18.4-2.6c-6.5,1.8-6.1,11,0.6,14.9
			c5,2.9,10.8,4.3,16.3,6.2c16.7,6,22.8,13.6,21.7,27.2c-1.1,13.2-10.9,22.2-26.7,23.2c-14.7,0.9-33.5-9.1-32.6-27.7
			c7.2-0.9,13.5-2.6,19.1,7c4.6,7.8,13.5,6.8,20.7,2.6c6.2-3.7,5.7-11.7-1.1-15.1c-7.2-3.5-15.1-5.3-22.4-8.5
			c-8.9-3.8-15.9-9.9-15.7-22.3c0.1-12.7,6.8-20,16.5-23C1334.3,147,1356.5,152,1357.8,178z"/>
		<path class="st6" d="M595.4,208.6c-7.3,24.5-22.7,34.1-42.7,29.6c-19-4.3-29.9-21.8-28.9-46.5c0.9-22.4,13.8-39.2,31-40.7
			c22.3-1.8,35.2,6.9,39.1,27c-7.9,1.1-14.3,1.5-21.1-6.7c-3.7-4.5-13.6-5.7-19.7-3.8c-10.9,3.4-13.3,15.2-13.4,26.8
			c-0.2,11.7,2.3,23,12.7,27.7c9.1,4.1,17.7,2.6,25-7.7C580.2,210.3,588,210.7,595.4,208.6z"/>
		<path class="st10" d="M675.4,152.5c12.5-4.2,18.2,0,21.2,13.4c4,17.7,10.4,34.7,16.7,55c7.7-25.1,14.5-47.2,21.3-69.2
			c5.5,0,10.4,0,16.6,0c-9.3,28.1-18.1,55.5-27.9,82.3c-1.1,2.9-8.6,3.5-13.1,3.5c-2.7,0-7-2.6-7.9-5.2
			C693,206,684.4,179.5,675.4,152.5z"/>
		<path class="st5" d="M944.3,222.9c0,5.8,0,9.8,0,15c-4.6,0-8.8,0.1-13.1,0c-13.9-0.4-20.6-7.6-20.9-23.5
			c-0.3-15.2-0.1-30.5-0.1-46.5c-2.8-1-5.6-2-8.3-2.9c-0.5-7.2-3-15.3,8.1-14c0-6.7,0-12.8,0-19.7c5.5,0,10.3,0,16.1,0
			c0.3,6.3,0.6,12.6,1,19.8c5.7,0,11,0,16.9,0c0,5.2,0,9.5,0,14.6c-5.2,0.3-10.5,0.6-17.3,1c0,16.4-0.3,32.7,0.3,49
			c0.1,2.5,4.3,5.7,7.1,6.9C937,223.8,940.5,222.9,944.3,222.9z"/>
		<path class="st9" d="M1363,163.7c0-3.7,0-7.3,0-11.6c2.7-0.6,5.4-1.3,8.6-2c0-6.6,0-12.6,0-19.2c5.3,0,9.8,0,15.1,0
			c0,6.3,0,12.3,0,19.6c6.2,0.4,11.8,0.7,18.1,1.1c0,4.5,0,8.7,0,13.9c-5.5,0.4-11,0.8-17.6,1.2c0,16-0.4,31.6,0.1,47.1
			c0.5,13.4,10.6,7.4,17.4,9.9c0,3.9,0,8.1,0,14c-5.3,0-10.9,0.5-16.5-0.1c-10.5-1.2-16.2-8-16.6-20.3c-0.5-13.6,0.2-27.2-0.5-40.7
			c-0.2-4.3-3.2-8.5-4.9-12.7C1365.2,163.8,1364.1,163.8,1363,163.7z"/>
		<path class="st9" d="M848.8,152c0.3,2.7,0.6,5.5,0.9,7.5c6.8-3.4,13.6-6.7,21.8-10.7c0,8.3,0,13.6,0,18.8
			c-19.4,3.7-22,7.2-22.1,29.8c0,13.1,0,26.2,0,39.9c-5.3,0-9.8,0-15,0c0-28.1,0-56.2,0-85.2C838.9,152,843.7,152,848.8,152z"/>
		<path class="st12" d="M1685,237.2c-5.6,0-10.1,0-15.1,0c0-36.2,0-71.8,0-107.9c5.3,0,9.8,0,15.1,0
			C1685,165.3,1685,200.8,1685,237.2z"/>
		<path class="st9" d="M1441.8,151.7c5.3,0,9.8,0,14.7,0c0,28.8,0,57,0,85.7c-5,0-9.6,0-14.7,0
			C1441.8,209.1,1441.8,180.9,1441.8,151.7z"/>
		<path class="st13" d="M448.2,237.5c-5,0-9.2,0-14.1,0c0-28.5,0-56.7,0-85.6c4.5,0,9,0,14.1,0C448.2,180,448.2,208.2,448.2,237.5z"
			/>
		<path class="st14" d="M1079,378.4c0.9-6.3,1.6-11.5,2.4-16.7c1,0.1,1.9,0.2,2.9,0.3c0,16.7,0,33.5,0,50.3c-3,0.2-6.7-0.1-10.1,0.7
			c-7.9,2-15.2,1.9-19.9-7c-4.3-8.1-4.5-16.6,0.9-24.1c5.4-7.6,12.5-8.9,20.3-4.8C1076.3,377.6,1077.4,377.9,1079,378.4z
			 M1080.7,395.1c-0.9-9.3-5-15.5-12.9-15.4c-7.5,0.1-11.5,6.6-11.4,14.9c0.2,8.6,3.7,14.9,12.5,14.6
			C1077.1,408.8,1079.6,402.6,1080.7,395.1z"/>
		<path class="st15" d="M962.2,948.7c88.1,0,176.3,0,264.4,0c-3.7,0.8-7.5,2.4-11.2,2.4c-80.7,0.1-161.3,0.1-242,0
			C969.6,951.1,965.9,949.5,962.2,948.7z"/>
		<path class="st15" d="M1226.6,834.8c-83.3,0-166.6,0-249.9-0.1c-4.1,0-8.2-1.5-12.3-2.4c83.3,0,166.6,0,249.9,0.1
			C1218.4,832.4,1222.5,833.9,1226.6,834.8z"/>
		<path class="st16" d="M756.4,374.2c7.4,1.8,17.8,1.3,19.5,5.5c4.1,9.8,4.1,21.8,5.7,33c-1.7,0.2-3.4,0.5-5.1,0.7
			c-0.3-5.9-0.8-11.9-0.8-17.8c0-8.2-1.8-15.7-10.1-15.7c-8.6-0.1-9.7,7.8-9.7,15.8c0,5.9-0.4,11.7-0.7,19.2
			c-6.2-7.7-6.9-42.4-1-56.2C755.3,366.8,756,371.9,756.4,374.2z"/>
		<path class="st17" d="M1214.7,412c5.1-15.7,10.2-31.3,15.3-47c1.4-0.2,2.8-0.4,4.2-0.6c5.3,16,10.6,32,16.7,50.5
			C1229.5,398.6,1227.7,398.6,1214.7,412z M1232.2,373.1c-3,9.4-5.4,16.8-7.9,24.6c6,0,10.4,0,16.1,0
			C1237.5,389.3,1235.2,382.2,1232.2,373.1z"/>
		<path class="st17" d="M577.4,398.5c3.7,4.2,5.2,7.3,7.3,7.9c3.9,1.3,8.2,1.8,12.1,1.3c1.4-0.2,3.8-5.3,3.2-6.6
			c-1.7-3.5-4.7-6.3-7.4-9.1c-0.9-0.9-2.8-0.6-4.1-1.1c-6.1-2.3-12.7-6-10.7-14.1c1.2-5,6.8-10.2,11.4-12.3
			c6.6-2.9,11.9,2,15.8,13.7c-3.9-3.3-5.6-5.8-7.8-6.5c-3.5-1.1-7.4-1.7-11-1c-1.5,0.3-3.8,5.2-3.3,6.6c1.4,3.3,4.2,5.9,6.7,8.4
			c1.3,1.2,3.3,1.4,5.1,1.9c6.4,2.1,12.4,6.4,10.1,14.4c-1.4,4.8-7.2,10-11.7,11.2C584.2,415.8,580.7,412.1,577.4,398.5z"/>
		<path class="st17" d="M643.1,396.7c-8.9,0-17.1,0-25.4,0c2.2,14.8,5.1,15.3,24,5.6c-3.3,10.5-9,14-18.8,11.4
			c-8-2.1-13.1-11.8-11.7-22.2c1.3-10.1,8.8-17.4,17.2-16.8C637.7,375.3,642.8,382.4,643.1,396.7z M615.8,388.7
			c0.6,1,1.2,2.1,1.9,3.1c6.9,0,13.9,0,20.8,0c0.5-1.5,1-2.9,1.5-4.4c-4.4-2.7-8.9-7.4-13.3-7.4
			C623.1,379.9,619.5,385.6,615.8,388.7z"/>
		<path class="st18" d="M682.5,378.9c0,10.5,0,21.9,0,32.5c-4.1,0.7-7.8,1.2-11.4,1.9c-7.5,1.5-14.6,1.4-19-7
			c-4.3-8.1-4.3-16.7,0.8-24.2c4.9-7.3,11.7-8.6,19.3-5.4C674.9,377.8,678.1,377.9,682.5,378.9z M678.3,395
			c-0.6-9.2-4.6-15.5-12.6-15.3c-7.3,0.2-11.6,5.7-11.5,14.7c0.1,9.2,3.6,15.1,12.2,14.9C674.2,409.1,677.7,403.3,678.3,395z"/>
		<path class="st14" d="M852.1,413.3c0-6.7-0.1-13.4,0-20c0.2-7.6-2.3-14.6-9.2-13.1c-4.1,0.9-8.7,7.6-10.2,12.8
			c-1.8,6.1-0.4,13.4-0.4,20.2c-1.1,0-2.1,0-3.2-0.1c0-16.9,0-33.8,0-50.7c0.7-0.1,1.3-0.2,2-0.3c0.6,5.2,1.2,10.5,1.4,12.1
			c7.8,2.1,16.5,1.5,20.7,6.2c8,9,4.4,21.6,3.6,32.8C855.3,413.2,853.7,413.2,852.1,413.3z"/>
		<path class="st14" d="M1156.7,414c-10.2,0-16.8-7.5-16.8-19.1c0-11.6,7.8-20.6,17.5-20.2c9.1,0.4,16.8,9.8,16.6,20.4
			C1173.8,406.2,1166.7,414,1156.7,414z M1170.4,392c-4.4-4.1-8.5-11-13.4-11.8c-7.9-1.4-12.5,6-12.2,14.9
			c0.2,8.2,3.9,14.2,12.1,14.1C1165.1,409.1,1168.3,403.5,1170.4,392z"/>
		<path class="st16" d="M1040,413.2c0-6.4,0-12.7,0-19.1c0-8-2.7-14.3-10.3-14.2c-7.1,0.1-9.4,6.3-9.3,13.8c0.1,6.6,0,13.2,0,19.8
			c-1.4,0-2.8,0.1-4.2,0.1c0-11.9,0-23.8,0-36.2c8,1.9,19.3-9.5,25.1,3.5c4.1,9.1,3,21.3,4.2,32.1
			C1043.7,413,1041.8,413.1,1040,413.2z"/>
		<path class="st17" d="M881,374.5c9.4,0.1,16.6,8.8,16.5,20.2c-0.1,12.1-6.3,19.2-16.7,19.2c-10.5,0-16.5-7.2-16.4-19.4
			C864.4,383.1,871.6,374.5,881,374.5z M881.4,409.3c8.1-0.5,11.4-6.1,11.4-14.6c0-9.2-4.5-15.3-12.4-14.9c-8,0.4-11.7,7-11.3,16.1
			C869.4,404.7,873.5,409.3,881.4,409.3z"/>
		<path class="st17" d="M1333.7,374.5c9.4-0.1,16.7,8.5,16.7,19.9c0,12.2-6.1,19.4-16.5,19.5c-10.5,0.1-16.6-7-16.6-19.1
			C1317.2,383.3,1324.3,374.7,1333.7,374.5z M1345.8,395.2c-0.3-9.3-4.3-15.5-12.3-15.5c-7.4,0-11.5,5.9-11.6,14.6
			c-0.1,9.2,3.6,15,12.1,14.9C1342,409.2,1345.2,403.4,1345.8,395.2z"/>
		<path class="st17" d="M1356.2,394.9c0-11.5,6.9-20.2,16.3-20.4c9.4-0.2,16.7,8.4,16.8,19.8c0,12.2-6.1,19.5-16.4,19.6
			C1362.5,414.1,1356.3,407,1356.2,394.9z M1371.5,409.2c8.8,0.2,12.7-4.8,13.2-13.4c0.5-9.2-3.6-15.7-11.5-16
			c-8-0.4-12.2,5.8-12.2,15C1360.9,403.4,1364.4,408.7,1371.5,409.2z"/>
		<path class="st14" d="M942.6,402.9c3.6,2.1,7.1,5,10.9,6c2.1,0.5,4.8-2.2,7.2-3.5c-1.4-2.3-2.7-4.9-4.4-6.9
			c-0.9-1.1-2.9-0.9-3.9-1.9c-3.6-3.8-7-7.8-10.5-11.7c3.6-3.4,6.8-8.3,10.9-9.9c5.3-2.1,10.1,3.1,12.5,12.4
			c-3.6-2.9-6.1-6.1-9.1-6.8c-2.6-0.6-5.7,1.5-8.6,2.5c1.3,2.8,2.5,5.7,4.1,8.2c0.7,1.1,2.8,0.9,3.9,1.9c3.7,3.3,7.7,6.4,10.4,10.6
			c0.7,1.1-2.5,7.9-4.5,8.4c-5,1.1-10.4,0.7-15.5-0.5c-2.1-0.5-3.5-4.5-5.2-6.9C941.4,404.1,942,403.5,942.6,402.9z"/>
		<path class="st14" d="M1093,402c5.3,3,8.9,5.9,12.8,6.9c1.9,0.5,4.5-2.7,6.8-4.2c-1.4-2.1-2.6-4.3-4.2-6.1c-1-1-2.9-0.9-3.9-1.9
			c-3.8-3.6-7.4-7.6-11-11.4c3.5-3.5,6.6-9.1,10.6-10.1c6-1.5,11.7,1.6,14.2,13.1c-4.4-3.6-6.5-6.8-8.9-7c-3.3-0.4-6.8,1.4-10.3,2.3
			c1.7,2.6,3.2,5.3,5,7.8c0.6,0.8,1.9,1.1,2.9,1.4c5.7,1.8,12.3,3.8,10.6,12.4c-0.7,3.5-5.6,7.5-9,8.3
			C1101.8,415.1,1094.9,414,1093,402z"/>
		<path class="st14" d="M1410.3,402.9c4.2,2.2,8,5.1,12.2,6.1c1.8,0.4,4.3-2.9,6.5-4.5c-1.5-2-2.7-4.2-4.4-5.9c-1-1-2.9-0.9-3.9-1.9
			c-3.7-3.7-7.2-7.7-10.7-11.6c3.6-3.5,6.8-9,10.8-9.9c5.9-1.4,11.6,1.8,14,13.6c-4.6-4-6.7-7.1-9.2-7.6c-3-0.6-6.4,1-9.6,1.7
			c1.6,2.9,3.1,5.9,4.9,8.7c0.6,0.9,2.1,0.7,2.9,1.5c3.7,3.7,7.3,7.6,10.9,11.4c-3.6,3.2-6.9,8.3-10.9,9.2
			C1415.2,415.4,1412.8,412.7,1410.3,402.9z"/>
		<path class="st18" d="M908.9,376.6c0.3,6.6,0.7,13.2,0.8,19.7c0.1,7.6,2.4,13.1,9.8,13c7.2-0.1,9.9-5.6,10.1-13.1
			c0.1-6.4,0-12.9,0-19.3c1-0.1,2-0.1,3-0.2c0,11.9,0,23.9,0,35.6c-7.9-2.9-20.2,8.6-25.5-5.6c-3.3-8.8-2-19.9-2.8-30
			C905.8,376.8,907.3,376.7,908.9,376.6z"/>
		<path class="st17" d="M742.1,389.7c-6.8-6.6-13.8-16.8-21.4-5.3c-3,4.6-3,16.4,0.1,20.8c6.8,9.6,14.4,2.7,21.3-3.4
			c-1.2,9.5-6.4,12.5-14.1,12.2c-9.5-0.4-16-7.9-16.1-18.9c-0.1-10.8,6.4-19.4,15.4-20.3C735.7,374,741.1,379,742.1,389.7z"/>
		<path class="st16" d="M1194.7,362.7c-5.2,5-12.6,10.1-0.5,14.8c-13.9,8.7-2.5,25-8.7,35.7c-1.1-0.1-2.4-0.2-2.4-0.3
			c-1.1-14.9-6.1-29.9-0.3-44.5c1.4-3.6,6.1-5.5,9.2-8.1C1192.9,361.1,1193.8,361.9,1194.7,362.7z"/>
		<path class="st14" d="M1297.1,370.7c-5.2-1.2-8.4-2-11.6-2.8c0.1-0.7,0.1-1.5,0.2-2.2c8.8,0,17.5,0,26.3,0c0.1,0.7,0.3,1.3,0.4,2
			c-3.1,0.8-6.1,1.6-11.5,3.1c0,13.8,0,28.3,0,42.8c-1.3,0-2.5-0.1-3.8-0.1C1297.1,399.4,1297.1,385.4,1297.1,370.7z"/>
		<path class="st5" d="M1451.3,115.6c2.6,4.4,7.7,9.1,7.3,13.1c-0.4,4.3-5.6,10.3-9.4,11.1c-2.7,0.5-8.9-6.2-9.2-10.1
			c-0.3-4.4,4.2-9.2,6.7-13.9C1448.2,115.8,1449.8,115.7,1451.3,115.6z"/>
		<path class="st5" d="M444.3,115.9c2.3,4.6,6.6,9.5,6.2,13.9c-0.3,3.9-5.8,7.3-9,10.9c-3.4-3.9-9-7.5-9.5-11.9
			c-0.4-4,4.8-8.7,7.5-13.1C441.1,115.7,442.7,115.8,444.3,115.9z"/>
		<path class="st15" d="M1267.7,948.7c54.9,0,109.8,0,164.7,0c-3,0.8-6,2.4-9,2.4c-48.9,0.2-97.8,0.2-146.6,0
			C1273.7,951.1,1270.7,949.5,1267.7,948.7z"/>
		<path class="st15" d="M1432.4,834.8c-54.9,0-109.8,0-164.7,0c3-0.8,6-2.4,9-2.4c48.9-0.2,97.8-0.2,146.6,0
			C1426.4,832.4,1429.4,833.9,1432.4,834.8z"/>
		<path class="st15" d="M921,834.8c-53.5,0-106.9,0-160.4,0c3-0.8,6-2.4,9-2.4c47.4-0.2,94.9-0.2,142.3,0
			C915,832.4,918,833.9,921,834.8z"/>
		<path class="st15" d="M760.6,948.7c53.5,0,106.9,0,160.4,0c-3,0.8-6,2.4-9,2.4c-47.4,0.2-94.9,0.2-142.3,0
			C766.6,951.1,763.6,949.5,760.6,948.7z"/>
		<path class="st14" d="M818.4,377.5c-2,4-5.4,7.6-5.7,11.6c-1.4,16.6-0.8,17.2,7.8,22.6c-0.4,1.1-0.9,2.2-1.3,3.3
			c-3.8-2.5-10.8-4.9-10.8-7.4c-0.2-13.5-6.3-27.3,0.3-41.1C812.5,370.8,816,374.7,818.4,377.5z"/>
		<path class="st18" d="M998.1,410.2c-9.7,5.9-17.7,4.7-22.6-3.4c-4.6-7.6-3.8-21.4,2.3-26.9c7.2-6.6,14.7-7.8,21.6,1.1
			c-0.6,0.7-1.1,1.4-1.7,2.1c-6.1-4.7-13.1-6-17,1.6c-2.5,4.7-2.8,12.8-1.1,18.2c2.9,9,10.5,6.5,16.9,5.3
			C997,408.8,997.5,409.5,998.1,410.2z"/>
		<ellipse class="st14" cx="1399.2" cy="387.7" rx="1.9" ry="36.2"/>
		<path class="st17" d="M692.3,413c0-11.9,0-23.7,0-35.6c5.1-0.7,10.1-1.3,15.6-2.1c-4.3,6-9.6,10.5-11.2,16.4
			c-1.8,6.5-0.4,14.2-0.4,21.4C694.9,413.1,693.6,413,692.3,413z"/>
		<path class="st19" d="M1835.5,668.8c0-32.2,0-64.4,0-96.6c1.5,4.8,4.1,9.6,4.2,14.5c0.4,22.5,0.4,45.1,0,67.7
			C1839.5,659.2,1836.9,664,1835.5,668.8z"/>
		<path class="st18" d="M1260.3,365.4c0,15.9,0,31.8,0,47.7c-0.8,0-1.5,0-2.3,0c0-15.9,0-31.8,0-47.7
			C1258.8,365.4,1259.5,365.4,1260.3,365.4z"/>
		<path class="st18" d="M999.3,381c1.5-1.5,2.9-3.1,5.6-6c0,13.7,0,25.6,0,38c-2.5-1-4.7-1.9-6.9-2.8c-0.6-0.7-1.1-1.4-1.7-2.1
			c5.8-8,6.9-16.3,1.2-25C998.2,382.4,998.8,381.7,999.3,381z"/>
		<path class="st19" d="M184.3,579.6c0,27.3,0,54.5,0,81.8c-0.8-3.4-2.1-6.8-2.2-10.2c-0.2-20.4-0.2-40.9,0-61.3
			C182.2,586.4,183.5,583,184.3,579.6z"/>
		<path class="st19" d="M1800.8,542.4c0-0.8,0-1.6,0-2.4c3.6,1.6,7.2,3.3,10.9,4.9C1808,544.1,1804.4,543.3,1800.8,542.4z"/>
		<path class="st19" d="M1800.8,701c0-0.8,0-1.6,0-2.4c3.6-0.9,7.2-1.7,10.9-2.6C1808,697.7,1804.4,699.3,1800.8,701z"/>
		<path class="st19" d="M1816,547.5c-1.5-0.8-2.9-1.7-4.4-2.5C1813.1,545.8,1814.5,546.6,1816,547.5z"/>
		<path class="st19" d="M1820.3,550.1c-1.5-0.9-2.9-1.8-4.4-2.6C1817.4,548.3,1818.9,549.2,1820.3,550.1z"/>
		<path class="st19" d="M1835.5,572.2c-0.7-1.7-1.5-3.3-2.2-5C1834,568.9,1834.8,570.6,1835.5,572.2z"/>
		<path class="st19" d="M1831,678.7c0.8-1.7,1.5-3.3,2.3-5C1832.6,675.4,1831.8,677.1,1831,678.7z"/>
		<path class="st19" d="M1811.6,696.1c1.5-0.8,2.9-1.7,4.4-2.5C1814.5,694.4,1813.1,695.2,1811.6,696.1z"/>
		<path class="st19" d="M1816,693.6c1.5-0.9,2.9-1.8,4.4-2.6C1818.9,691.8,1817.4,692.7,1816,693.6z"/>
		<path class="st19" d="M1833.3,567.3c-0.8-1.7-1.5-3.3-2.3-5C1831.8,563.9,1832.6,565.6,1833.3,567.3z"/>
		<path class="st19" d="M1833.3,673.8c0.7-1.7,1.5-3.3,2.2-5C1834.8,670.4,1834,672.1,1833.3,673.8z"/>
		<path class="st20" d="M489.4,623.6c-2.9-1-5.7-2-10.3-3.5c6.6,0,11.4,0,16.6,0c-0.6,10.8-5.2,15.6-13.5,16.6
			c-14.3,1.8-15.2-11.1-18.1-24.3c-7.6,8.5-4.9,15.3-0.1,24.9c-4.4-1.7-8.9-2.3-9.1-3.7c-1.4-9.3-1.8-18.9-1-29.1
			c7.7,6.6,12.9,8.5,20.4,0.9c7.2-7.2,14.4-1.8,21.2,8.4c-9.3-1.6-18.4-14-22.6,1.9c-1.1,4.3,1.6,12,4.8,15.1
			c2,1.9,8.2-1.7,12.5-2.9C489.9,626.4,489.7,625,489.4,623.6z"/>
		<path class="st21" d="M274.7,641.2c-5-4.9-10.5-9.4-19.5-7.6c-7.2,1.5-12.3-6-12.5-15.1c-0.2-9.7,4.6-15.5,12.8-16.5
			c7.9-1,13.2,3.8,15.1,12.5C272.4,623,273.3,631.8,274.7,641.2z M257,602.6c-4.5,7-9.4,11.4-9.1,15.2c0.3,4,5.7,7.5,8.9,11.2
			c3.2-3.6,8.7-7,9.1-11C266.1,614.3,261.3,609.7,257,602.6z"/>
		<path class="st20" d="M449.2,636c-10.2-0.6-19.6,5.3-24-6.7c-1.5-4.2-0.4-13.5,2-15c5.2-3.1,15.9-5.6,17.4-3
			C448.2,617.5,447.8,626.8,449.2,636z M445.1,622.4c-4.8-3.5-7.6-7.1-10.6-7.2c-1.8-0.1-5.5,5.9-5.1,8.3c0.6,3.1,4.2,6.9,7,7.7
			C438.2,631.6,441,626.8,445.1,622.4z"/>
		<path class="st20" d="M505.8,625.1c-0.7,3.5-1.3,6.9-2,10.4c-0.6,0-1.3,0-1.9,0c0-9.9,0-19.9,0-30.5c6.7-0.1,15.8-4.9,17.2,6.9
			c0.5,4.6-6.7,10.3-10.4,15.6C507.7,626.7,506.8,625.9,505.8,625.1z"/>
		<path class="st20" d="M391.1,630.9c-2.4,7.7-10.6,8.2-15.6,4.8c-4.8-3.2-9.3-11.7-9.6-18.1c-0.4-8.8,6.2-15,14.4-14.8
			c4.9,0.1,11.3,1.2,12.1,11.9c-7.4-4.1-13.8-13.1-19.4-2.2c-2,4-1.8,13.8,0.3,15.2C377.9,630.6,384.3,629.9,391.1,630.9z"/>
		<path class="st20" d="M399.9,635.3c0-10.5,0-21.1,0-29.9c3.8,1.4,7.7,3.3,11.7,4.4c8.5,2.4,11.1,12.4,5.1,30.1
			c-1.2-7.1-1.5-11-2.6-14.6c-1-3.5-2.7-6.7-4.1-10.1c-2.3,3.5-5.1,6.7-6.7,10.6c-1.2,2.8-0.8,6.5-1.1,9.8
			C401.5,635.4,400.7,635.3,399.9,635.3z"/>
		<path class="st20" d="M537,605c-1.1,10.7-2.1,21-3.2,31.3c-1.1,0-2.2,0-3.3,0c-1.1-10.3-2.2-20.6-3.3-31.3
			C529.4,605,534.4,605,537,605z"/>
		<path class="st22" d="M1079.3,890.9c-2.4,6.5-3.1,11.9-5.9,14.8c-1.7,1.8-7.6,1-9.6-1.1c-2.4-2.5-4.7-8.7-3.6-11.5
			c1.6-3.9,6.1-7.9,9.8-8.4C1073.1,884.3,1076.6,888.9,1079.3,890.9z"/>
		<path class="st22" d="M1044.6,906.8c-1.3-1.7-5.5-4.7-6-8.4c-0.5-4,1.5-10.3,4.3-12.3c2.7-1.9,8.1-0.5,11.4,1.5
			c1.8,1.1,7.4,6.7-0.4,9.4c-0.5,0.2-1.2,1.2-1.2,1.8C1052.7,906.4,1052.3,907.1,1044.6,906.8z"/>
		<path class="st22" d="M1150.6,906.3c0-7.1,0-14.1,0-22.3c6.3,0.8,12.4,1.6,18.6,2.3c-0.8,7.7-1.5,14-2.2,20.4c-0.9,0-1.8,0-2.7,0
			c-0.3-3.3,0-6.8-0.9-9.8c-0.9-2.9-3.2-5.2-4.9-7.8c-1.4,2.4-3.3,4.6-4,7.2c-0.8,3.2-0.7,6.7-1,10.1
			C1152.6,906.5,1151.6,906.4,1150.6,906.3z"/>
		<path class="st11" d="M1009.3,907.7c0-9.7,0-18.3,0-27.8c4.1,0,8.5,0,13,0c0.2,0.5,0.4,1,0.5,1.5c-3.2,1.2-6.3,2.3-12.4,4.5
			c4.6,3.1,7.2,4.8,8.8,5.8C1016.4,896.2,1013.5,900.9,1009.3,907.7z"/>
		<path class="st23" d="M1385.4,876.3c0,10.2,0,19.5,0,29.5c-2,0.2-4.3,0.3-6.6,0.8c-7.3,1.6-12.3-1.3-12.8-10
			c-0.5-8.2,3.3-12.4,11-12.9C1379.6,883.7,1382,879.6,1385.4,876.3z"/>
		<path class="st5" d="M1351.6,906c-8.1,0.4-17.7,4.5-18.4-9.5c-0.2-4,4.9-11.7,7.7-11.8C1353.6,884.3,1350.8,896.4,1351.6,906z"/>
		<path class="st24" d="M1318.2,896.1c-0.4,3.4-0.8,6.9-1.2,10.3c-0.7,0.1-1.4,0.1-2.1,0.2c0-8.6,0-17.2,0-26.9
			c5.2,0.2,13.2-4.5,15.1,6.6c0.5,3.1-6.2,7.9-9.6,11.9C1319.6,897.4,1318.9,896.8,1318.2,896.1z"/>
		<path class="st22" d="M843.1,906.9c-1.3-1.7-5.5-4.7-6-8.4c-0.5-4,1.5-10.4,4.3-12.3c2.7-1.9,8.1-0.5,11.5,1.5
			c1.8,1.1,7.4,6.7-0.4,9.4c-0.5,0.2-1.2,1.2-1.2,1.8C851.1,906.5,850.7,907.1,843.1,906.9z"/>
		<path class="st24" d="M869.2,909.8c-4.4-4.5-9-7.2-10.6-11.4c-1.1-3,0.9-9.4,3.4-11.6c2.4-2,7.8-1.9,10.6-0.2
			c2.9,1.8,9.4,6.4,0.3,10.7C871.4,898.1,871.2,902.8,869.2,909.8z"/>
		<path class="st24" d="M807.1,906.4c0-8.7,0-17.3,0-26.6c4.4,0,8.9,0,14.6,0c-4.3,2.7-7.7,4.8-11,6.9c2.4,2.2,4.8,4.4,7.7,7
			c-2.5,0.5-4.8,1-7.1,1.5c-0.5,3.8-1,7.7-1.5,11.5C808.8,906.5,807.9,906.4,807.1,906.4z"/>
		<path class="st25" d="M664,877.4c0,9.1,0,18.2,0,27.7c-8.4,8.4-18.6-13.9-26.9,4.1c-0.6-1.1-1.3-2.3-1.9-3.4
			c2.4-8.1,4.5-16.2,7.4-24.1c0.2-0.7,6.5-0.2,7.2,1.4c2.9,6.4,4.7,13.4,8.8,20c0.6-8.7,1.1-17.3,1.7-26
			C661.5,877.2,662.7,877.3,664,877.4z"/>
		<path class="st26" d="M359.7,222.9c0-27.1,0-52.5,0-78.7c16.2-0.9,32.7-3,43.1,14.8c8.8,15.2,8.8,32.4,0.9,48
			C393.8,226.6,376.5,222.9,359.7,222.9z"/>
		<path class="st27" d="M1201,194c0.1,17.6-9.1,29.5-22.8,29.4c-12.9-0.1-22.7-12.4-22.8-28.6c0-16,9.9-28.6,22.7-28.8
			C1191.4,165.7,1200.9,177.3,1201,194z"/>
		<path class="st27" d="M1633.8,200.5c-10.6,0-19.5,0-30.1,0c4.8-15.8,9.4-30.7,15-49.2C1624.3,169.5,1628.9,184.3,1633.8,200.5z"/>
		<path class="st19" d="M808.3,187c-2.8,0.2-4.9,0.5-7,0.5c-10.8,0-21.5,0-32.3,0c0.6-14.2,6.9-21.4,18.4-21.8
			C800.3,165.4,806.8,171.5,808.3,187z"/>
		<path class="st19" d="M1085.5,187.2c-13.6,0-26.5,0-39.4,0c1.3-14.8,7.7-21.5,20-21.4C1078.3,165.9,1084.5,172.4,1085.5,187.2z"/>
		<path class="st19" d="M1237.3,186.4c3.2-15,8.7-20.5,19.9-20.6c12.1-0.1,17.7,5.2,21.1,20.6
			C1264.7,186.4,1251.4,186.4,1237.3,186.4z"/>
		<path class="st26" d="M659.5,194.6c0,17.6-9.1,28.9-23.1,28.7c-13.4-0.2-21.4-11.1-21.3-29.1c0.1-17.4,8.9-28.5,22.2-28.3
			C650.6,166.2,659.4,177.6,659.5,194.6z"/>
		<path class="st27" d="M1080.7,395.1c-1,7.5-3.5,13.8-11.8,14.1c-8.8,0.3-12.3-6-12.5-14.6c-0.2-8.3,3.8-14.8,11.4-14.9
			C1075.6,379.6,1079.7,385.8,1080.7,395.1z"/>
		<path class="st15" d="M1232.2,373.1c3,9,5.4,16.2,8.2,24.6c-5.7,0-10.1,0-16.1,0C1226.7,390,1229.1,382.6,1232.2,373.1z"/>
		<path class="st19" d="M615.8,388.7c3.6-3.1,7.3-8.8,10.9-8.7c4.4,0,8.9,4.7,13.3,7.4c-0.5,1.5-1,2.9-1.5,4.4c-6.9,0-13.9,0-20.8,0
			C617.1,390.8,616.5,389.7,615.8,388.7z"/>
		<path class="st27" d="M678.3,395c-0.6,8.3-4.1,14.1-11.9,14.3c-8.6,0.2-12.1-5.7-12.2-14.9c-0.1-8.9,4.2-14.5,11.5-14.7
			C673.7,379.5,677.7,385.8,678.3,395z"/>
		<path class="st27" d="M1170.4,392c-2.1,11.5-5.3,17.1-13.5,17.2c-8.2,0.1-11.9-5.9-12.1-14.1c-0.2-9,4.3-16.3,12.2-14.9
			C1161.9,381,1166,387.8,1170.4,392z"/>
		<path class="st27" d="M881.4,409.3c-7.8,0-11.9-4.6-12.4-13.4c-0.4-9.1,3.3-15.8,11.3-16.1c7.9-0.4,12.4,5.7,12.4,14.9
			C892.8,403.1,889.5,408.8,881.4,409.3z"/>
		<path class="st27" d="M1345.8,395.2c-0.5,8.3-3.7,14.1-11.8,14.1c-8.5,0-12.2-5.7-12.1-14.9c0.1-8.7,4.2-14.6,11.6-14.6
			C1341.5,379.6,1345.5,385.9,1345.8,395.2z"/>
		<path class="st27" d="M1371.5,409.2c-7.1-0.5-10.6-5.9-10.6-14.5c0-9.2,4.2-15.4,12.2-15c7.9,0.4,11.9,6.9,11.5,16
			C1384.2,404.4,1380.3,409.4,1371.5,409.2z"/>
		<path class="st27" d="M997.6,383.1c5.7,8.7,4.6,17-1.2,25c-6.4,1.2-14,3.7-16.9-5.3c-1.7-5.3-1.4-13.4,1.1-18.2
			C984.6,377.1,991.5,378.4,997.6,383.1z"/>
		<path class="st26" d="M257,602.6c4.3,7.2,9.2,11.7,8.8,15.5c-0.4,4-5.8,7.3-9.1,11c-3.2-3.7-8.5-7.2-8.9-11.2
			C247.5,614,252.5,609.6,257,602.6z"/>
		<path class="st2" d="M445.1,622.4c-4.1,4.4-6.9,9.2-8.6,8.7c-2.8-0.7-6.4-4.5-7-7.7c-0.4-2.4,3.3-8.4,5.1-8.3
			C437.5,615.3,440.3,618.9,445.1,622.4z"/>
	</g>
</g>
</svg>
