<svg xmlns="http://www.w3.org/2000/svg" xml:space="preserve" id="Ebene_1" x="0" y="0" viewBox="0 0 1920 1080"><style>.st2{fill:#fcfcfc}.st5{fill:#2c3033}.st6{fill:#262a2e}.st8{fill:#e3e3e3}.st9{fill:#25292d}.st10{fill:#292d31}.st11{fill:#2a2d31}.st14{fill:#878787}.st15{fill:#efefef}.st16{fill:#909090}.st17{fill:#858585}.st18{fill:#828282}.st19{fill:#eaeaeb}.st20{fill:#c6c6c6}.st22{fill:#272727}.st24{fill:#101010}.st26{fill:#f8f8f8}.st27{fill:#f6f6f6}</style><path d="M0 1080V0h1920v1080zm1816-386.4c1.5-.9 2.9-1.8 4.4-2.6 3.6-4.1 7.1-8.1 10.7-12.2.8-1.7 1.5-3.3 2.3-5 .7-1.7 1.5-3.3 2.2-5 1.5-4.8 4.1-9.6 4.2-14.5.4-22.5.4-45.1 0-67.7-.1-4.9-2.7-9.7-4.2-14.5-.7-1.7-1.5-3.3-2.2-5-.8-1.7-1.5-3.3-2.3-5-3.6-4.1-7.1-8.1-10.7-12.2-1.5-.9-2.9-1.8-4.4-2.6s-2.9-1.7-4.4-2.5c-3.6-1.6-7.2-3.3-10.9-4.9-524 0-1047.9 0-1571.9.1-3.4 0-6.7 1.6-10.1 2.4-16.5 6.3-30 16.3-34.6 37.1-.8 3.4-2.1 6.8-2.2 10.2-.2 20.4-.2 40.9 0 61.3 0 3.4 1.4 6.8 2.2 10.2 4.2 7.7 7.3 16.8 13 22.8 6 6.3 14.3 9.7 21.6 14.3 3.4.8 6.7 2.4 10.1 2.4 524 .1 1047.9.1 1571.9.1 3.6-1.6 7.2-3.3 10.9-4.9 1.5-.7 2.9-1.5 4.4-2.3M998.1 410.2c2.2.9 4.4 1.8 6.9 2.8v-38c-2.7 2.9-4.2 4.4-5.6 6-6.8-8.9-14.3-7.7-21.6-1.1-6.1 5.5-6.9 19.3-2.3 26.9 4.9 8.1 12.8 9.3 22.6 3.4M921 834.8c-3-.8-6-2.4-9-2.4-47.4-.2-94.9-.2-142.3 0-3 0-6 1.5-9 2.4-9.4 1.9-10.4 11-10.6 18.8-.6 25.4-.6 50.9 0 76.3.2 7.9 1.2 16.9 10.6 18.8 3 .8 6 2.4 9 2.4 47.4.2 94.9.2 142.3 0 3 0 6-1.5 9-2.4 9.4-1.9 10.4-11 10.6-18.8.6-25.4.6-50.9 0-76.3-.2-7.9-1.2-16.9-10.6-18.8m346.7 113.9c3 .8 6 2.4 9 2.4 48.9.2 97.8.2 146.6 0 3 0 6-1.5 9-2.4 9.4-1.9 10.4-11 10.6-18.8.6-25.4.6-50.9 0-76.3-.2-7.9-1.2-16.9-10.6-18.8-3-.8-6-2.4-9-2.4-48.9-.2-97.8-.2-146.6 0-3 0-6 1.5-9 2.4-9.4 1.9-10.4 11-10.6 18.8-.6 25.4-.6 50.9 0 76.3.2 7.9 1.2 16.9 10.6 18.8m-305.5 0c3.7.8 7.5 2.4 11.2 2.4 80.7.1 161.3.1 242 0 3.7 0 7.5-1.5 11.2-2.4 9.4-1.9 10.4-11 10.6-18.8.6-25.4.6-50.9 0-76.3-.2-7.9-1.2-16.9-10.6-18.8-4.1-.8-8.2-2.4-12.3-2.4-83.3-.1-166.6-.1-249.9-.1-9.2 3.6-12.8 11.7-12.9 21.9-.2 25.2-.4 50.4.1 75.5.1 8 1.1 17 10.6 19m-307.6 2.5c18.7 0 37.5.1 56.2 0 13.2-.1 19.4-6.8 19.5-21.6.1-25.1.1-50.3 0-75.4-.1-14.8-6.2-21.9-19.2-21.9-37.9-.1-75.7-.1-113.6 0-12.5 0-18.8 7-18.9 20.9-.1 25.5-.1 51.1 0 76.6q.15 21.15 18.6 21.3c19.2.2 38.3.1 57.4.1M343.9 127.9v109.9c12.9 0 25.2.6 37.4-.1 24.2-1.5 42.1-21.2 43.6-47.1 1.8-32.5-11.2-54.4-37.1-59.4-14.2-2.7-28.7-2.2-43.9-3.3m812 99.7c19.8 15.7 37.9 15.1 50.9-.6s14.1-44.3 2.5-61.8c-11.7-17.5-29.9-19.1-54.3-3.7v-39.1h-14.6v115h14.4c.3-3.1.7-5.8 1.1-9.8m505.9 9.8c-10.4-33.3-20.3-64.9-30.1-96.7-2.3-7.3-4.2-12.4-13-12.4-9 0-10.8 5.3-12.9 12.6-1.6 5.9-3.6 11.6-5.4 17.4-8.1 26.1-16.2 52.2-24.9 80 7.5-2.5 16.6 4.8 18.5-7.1 2.5-15.1 10.4-16.3 21.5-16.1 14.5.3 29.2-2.2 28.6 22.2 6.4.1 11.4.1 17.7.1m-837.1-35.6c2.2-27.7-8.6-47-27.1-50.6-22.1-4.3-40.6 8.1-45.2 30.5-5.2 25.3 5.5 49.7 24.7 55.8 20.6 6.6 38.5-3 45.4-24.9-7.9-.7-14.3-1.3-21.2 6.5-11.2 12.6-30.1 2.5-32.7-17.3zm277.4 0c2.1-27.8-8.7-47-27.2-50.6-22.1-4.3-40.6 8.2-45.2 30.6-5.2 25.3 5.6 49.7 24.7 55.8 20.6 6.6 38.5-3.1 45.3-24.9-7.9-.7-14.3-1.3-21.2 6.5-11.2 12.6-30.2 2.4-32.6-17.4zm190.8-.2c4.3-24.9-6.5-45.8-25.3-50.3-23.4-5.6-42.5 8.3-46.9 34.3-4.1 24.5 8.1 47.5 27.9 52.3 20.8 5.1 38.5-5.5 43-29.5-8.3 4.3-14.3 8.6-20.9 10.5-7.2 2.1-15.3 3.9-22.3 2.2s-11.4-9.1-10.6-19.6c18.8.1 37 .1 55.1.1m-340.8-79.1v114.8h16.2c0-18.6-.9-36.8.6-54.7.5-5.7 6.8-13.7 11.7-15.2 5.6-1.8 14 .6 18.6 4.8 3.9 3.5 5.5 12.2 5.9 18.8.8 15.4.3 31 .3 46.1h15.4c0-18.8.5-36.9-.1-55-.7-19-12.4-31.7-28.7-30.9-7.9.4-15.7 3.6-24.4 5.8v-34.5zm-314.3 28.4c-22.9-.1-39 17.8-39.2 43.4-.2 25.5 16.5 45.4 38.2 45.4 21.8.1 39-19.3 39.3-44.4.2-25.9-15.7-44.4-38.3-44.4m901.1 86.4c0-20.2 1-39.9-.3-59.5-1.2-16.7-12.8-27.3-27.4-26.7-7.9.3-15.7 3.3-20.6 4.4-7.5-2.1-13.1-3.7-19.2-5.4v87.2h15.1c0-15.7-.1-30.9 0-46 .2-17 6.7-25.4 19.1-25.2 12 .2 18 8.2 18.1 24.8.1 15.5 0 31 0 46.5 6.1-.1 10.7-.1 15.2-.1M459.7 211.5c-1.6 19.1 18.7 29.4 33.2 27.9 15.9-1.7 25.1-10.7 26-24 .8-12.3-5.9-20.4-21.7-26.1-5.4-2-11.1-3.4-16.2-6.2-6.6-3.6-7.2-13.1-1-14.9 5.8-1.7 15.9-1.6 18.3 2.4 5.7 9.2 11.8 8 19.2 7-2.7-20.6-13.1-28.4-34.8-26.6-11.9 1-21.7 10.1-23.1 21.7-1.4 11.2 4.5 20.4 16.6 25.3 7.1 2.9 14.5 4.8 21.4 8 6.8 3.2 7.7 11.4 1.7 15.1-7.1 4.4-16 5.6-20.7-2.2-5-8.8-11-8.3-18.9-7.4m898.1-33.5c-1.3-26-23.6-30.9-41.3-25.4-9.7 3-16.4 10.3-16.5 23-.1 12.4 6.8 18.5 15.7 22.3 7.4 3.2 15.2 5 22.4 8.5 6.8 3.3 7.3 11.4 1.1 15.1-7.1 4.2-16.1 5.2-20.7-2.6-5.6-9.6-11.9-7.9-19.1-7-.8 18.6 17.9 28.6 32.6 27.7 15.8-1 25.6-10 26.7-23.2 1.2-13.6-4.9-21.2-21.7-27.2-5.5-2-11.2-3.3-16.3-6.2-6.7-3.9-7.1-13.1-.6-14.9 5.9-1.6 16.3-1.3 18.4 2.6 5.4 9.8 11.7 7.4 19.3 7.3m-762.4 30.6c-7.4 2.1-15.2 1.7-18.1 5.7-7.3 10.2-15.8 11.7-25 7.7-10.4-4.7-12.8-16-12.7-27.7.2-11.6 2.6-23.5 13.4-26.8 6.1-1.9 16-.7 19.7 3.8 6.7 8.2 13.2 7.8 21.1 6.7-3.9-20.1-16.8-28.8-39.1-27-17.3 1.4-30.1 18.2-31 40.7-1 24.7 9.9 42.2 28.9 46.5 20.1 4.5 35.5-5.1 42.8-29.6m80-56.1c9 27 17.6 53.5 26.8 79.8.9 2.6 5.2 5.2 7.9 5.2 4.5 0 12.1-.6 13.1-3.5 9.8-26.8 18.6-54.2 27.9-82.3h-16.6c-6.8 22-13.6 44.2-21.3 69.2-6.3-20.3-12.7-37.3-16.7-55-2.9-13.4-8.6-17.6-21.1-13.4m268.9 70.4c-3.8 0-7.3.9-10.1-.3s-7-4.4-7.1-6.9c-.6-16.2-.3-32.5-.3-49 6.8-.4 12.1-.7 17.3-1v-14.6h-16.9c-.4-7.2-.7-13.5-1-19.8h-16.1V151c-11.1-1.3-8.6 6.8-8.1 14 2.7.9 5.5 1.9 8.3 2.9 0 16.1-.3 31.3.1 46.5.4 15.9 7 23.1 20.9 23.5 4.2.1 8.5 0 13.1 0-.1-5.2-.1-9.2-.1-15m418.7-59.2c1.1 0 2.2 0 3.2.1 1.7 4.2 4.7 8.4 4.9 12.7.7 13.5 0 27.2.5 40.7.4 12.3 6.1 19.1 16.6 20.3 5.5.6 11.2.1 16.5.1v-14c-6.8-2.5-16.9 3.5-17.4-9.9-.6-15.5-.1-31-.1-47.1 6.6-.5 12.1-.8 17.6-1.2v-13.9c-6.3-.4-11.9-.7-18.1-1.1v-19.6h-15.1V150c-3.2.8-5.8 1.4-8.6 2zM848.8 152h-14.5v85.2h15v-39.9c.1-22.6 2.7-26.1 22.1-29.8v-18.8c-8.1 4-15 7.4-21.8 10.7-.1-1.9-.5-4.7-.8-7.4m836.2 85.2V129.3h-15.1v107.9zm-243.2-85.5v85.7h14.7v-85.7zm-993.6 85.8v-85.6h-14.1v85.6zM1079 378.4c-1.7-.6-2.7-.8-3.6-1.3-7.8-4.1-14.9-2.9-20.3 4.8-5.3 7.5-5.1 16-.9 24.1 4.7 8.9 12 9 19.9 7 3.4-.9 7.1-.6 10.1-.7V362c-1-.1-1.9-.2-2.9-.3-.7 5.2-1.4 10.4-2.3 16.7m-322.6-4.2q-.45-3.45-2.1-15.6c-5.9 13.8-5.2 48.5 1 56.2.3-7.4.7-13.3.7-19.2 0-8 1.1-15.9 9.7-15.8 8.2.1 10.1 7.5 10.1 15.7 0 5.9.5 11.9.8 17.8 1.7-.2 3.4-.5 5.1-.7-1.7-11.1-1.6-23.2-5.7-33-1.9-4.1-12.2-3.5-19.6-5.4m458.3 37.8c13.1-13.3 14.9-13.3 36.2 2.9-6.1-18.5-11.4-34.5-16.7-50.5l-4.2.6c-5.1 15.6-10.2 31.3-15.3 47m-637.3-13.5c3.3 13.6 6.8 17.2 15.8 14.9 4.6-1.2 10.4-6.4 11.7-11.2 2.3-8-3.7-12.3-10.1-14.4-1.7-.6-3.8-.7-5.1-1.9-2.6-2.4-5.3-5.1-6.7-8.4-.6-1.4 1.8-6.3 3.3-6.6 3.5-.7 7.4-.1 11 1 2.2.7 3.9 3.2 7.8 6.5-3.9-11.8-9.2-16.6-15.8-13.7-4.6 2-10.2 7.2-11.4 12.3-2 8.2 4.6 11.8 10.7 14.1 1.4.5 3.2.2 4.1 1.1 2.7 2.7 5.7 5.5 7.4 9.1.6 1.2-1.9 6.4-3.2 6.6-4 .5-8.3 0-12.1-1.3-2.2-.8-3.7-3.8-7.4-8.1m65.7-1.8c-.3-14.3-5.4-21.4-14.6-22-8.5-.6-16 6.7-17.2 16.8-1.3 10.4 3.8 20.1 11.7 22.2 9.7 2.6 15.5-.9 18.8-11.4-18.9 9.8-21.8 9.2-24-5.6zm39.4-17.8c-4.4-.9-7.6-1.1-10.4-2.3-7.6-3.2-14.4-2-19.3 5.4-5 7.5-5 16.1-.8 24.2 4.5 8.5 11.6 8.5 19 7 3.7-.7 7.3-1.2 11.4-1.9.1-10.5.1-22 .1-32.4m169.6 34.4c1.6 0 3.2-.1 4.8-.1.8-11.2 4.4-23.8-3.6-32.8-4.2-4.7-12.8-4.1-20.7-6.2-.2-1.6-.8-6.8-1.4-12.1-.7.1-1.3.2-2 .3v50.7c1.1 0 2.1 0 3.2.1 0-6.8-1.3-14.1.4-20.2 1.5-5.2 6.1-11.9 10.2-12.8 6.9-1.5 9.4 5.5 9.2 13.1-.2 6.6-.1 13.3-.1 20m304.6.7c10 0 17.1-7.7 17.3-18.9.2-10.5-7.5-20-16.6-20.4-9.7-.4-17.5 8.6-17.5 20.2s6.6 19.1 16.8 19.1m-116.7-.8c1.8-.1 3.7-.2 5.5-.3-1.2-10.8-.1-23-4.2-32.1-5.8-13-17.1-1.6-25.1-3.5v36.2c1.4 0 2.8-.1 4.2-.1v-19.8c-.1-7.5 2.2-13.7 9.3-13.8 7.6-.1 10.3 6.2 10.3 14.2zm-159-38.7c-9.4-.1-16.6 8.6-16.7 20-.1 12.2 5.9 19.4 16.4 19.4 10.4 0 16.6-7.1 16.7-19.2.1-11.3-7-20.1-16.4-20.2m452.7 0c-9.4.1-16.4 8.8-16.4 20.3 0 12.2 6.1 19.2 16.6 19.1 10.4-.1 16.5-7.3 16.5-19.5 0-11.3-7.3-20-16.7-19.9m22.5 20.4c0 12.1 6.2 19.1 16.7 19 10.3-.1 16.4-7.4 16.4-19.6 0-11.4-7.3-20-16.8-19.8-9.3.2-16.3 8.9-16.3 20.4m-413.6 8c-.6.6-1.1 1.2-1.7 1.8 1.7 2.4 3.2 6.4 5.2 6.9 5 1.2 10.5 1.6 15.5.5 2-.5 5.2-7.3 4.5-8.4-2.7-4.2-6.7-7.3-10.4-10.6-1.1-1-3.1-.8-3.9-1.9-1.7-2.5-2.8-5.4-4.1-8.2 2.9-.9 6-3.1 8.6-2.5 3 .7 5.4 3.9 9.1 6.8-2.4-9.3-7.2-14.4-12.5-12.4-4.1 1.6-7.3 6.5-10.9 9.9 3.5 3.9 6.9 8 10.5 11.7 1 1 3 .8 3.9 1.9 1.7 2 3 4.6 4.4 6.9-2.4 1.3-5.2 4-7.2 3.5-4-.9-7.4-3.8-11-5.9m150.4-.9c1.9 12 8.8 13 15.5 11.5 3.5-.8 8.4-4.8 9-8.3 1.7-8.6-4.9-10.5-10.6-12.4-1-.3-2.3-.6-2.9-1.4-1.8-2.5-3.4-5.2-5-7.8 3.4-.9 7-2.7 10.3-2.3 2.4.3 4.6 3.4 8.9 7-2.5-11.6-8.2-14.7-14.2-13.1-4 1-7.1 6.6-10.6 10.1 3.7 3.8 7.3 7.7 11 11.4 1 1 2.9.9 3.9 1.9 1.6 1.8 2.8 4 4.2 6.1-2.3 1.5-4.9 4.7-6.8 4.2-3.8-.9-7.3-3.8-12.7-6.9m317.3.9c2.5 9.9 4.9 12.6 13.3 10.7 4-.9 7.3-6 10.9-9.2-3.6-3.8-7.2-7.7-10.9-11.4-.8-.8-2.3-.7-2.9-1.5-1.8-2.8-3.3-5.8-4.9-8.7 3.2-.7 6.6-2.3 9.6-1.7 2.5.5 4.6 3.6 9.2 7.6-2.4-11.9-8.1-15-14-13.6-4 .9-7.2 6.4-10.8 9.9 3.6 3.9 7.1 7.8 10.7 11.6 1 1 2.9.9 3.9 1.9 1.7 1.7 3 3.9 4.4 5.9-2.2 1.6-4.7 4.9-6.5 4.5-4-1-7.8-3.8-12-6m-501.4-26.3c-1.5.1-3.1.2-4.6.3.8 10.1-.5 21.2 2.8 30 5.3 14.1 17.5 2.7 25.5 5.6v-35.6c-1 .1-2 .1-3 .2 0 6.4.1 12.9 0 19.3-.2 7.5-2.8 13-10.1 13.1-7.4.1-9.7-5.4-9.8-13-.1-6.7-.6-13.3-.8-19.9m-166.8 13.1c-1-10.7-6.4-15.7-14.8-14.9-9 .9-15.5 9.5-15.4 20.3.1 11 6.6 18.6 16.1 18.9 7.7.3 13-2.7 14.1-12.2-6.9 6.1-14.5 13.1-21.3 3.4-3.1-4.4-3.1-16.2-.1-20.8 7.5-11.5 14.6-1.3 21.4 5.3m452.6-27c-.9-.8-1.8-1.6-2.7-2.5-3.2 2.7-7.8 4.6-9.2 8.1-5.7 14.6-.8 29.7.3 44.5 0 .2 1.3.2 2.4.3 6.2-10.7-5.2-27.1 8.7-35.7-12.1-4.6-4.7-9.7.5-14.7m102.4 8v42.7c1.3 0 2.5.1 3.8.1v-42.8c5.4-1.4 8.5-2.2 11.5-3.1-.1-.7-.3-1.3-.4-2h-26.3c-.1.7-.1 1.5-.2 2.2 3.1.9 6.3 1.7 11.6 2.9m154.2-255.1c-1.6.1-3.1.2-4.7.3-2.4 4.6-7 9.5-6.7 13.9.3 3.9 6.5 10.6 9.2 10.1 3.8-.8 9-6.8 9.4-11.1.5-4-4.5-8.8-7.2-13.2m-1007 .3c-1.6-.1-3.2-.1-4.7-.2-2.7 4.4-7.9 9.1-7.5 13.1.4 4.3 6.1 7.9 9.5 11.9 3.2-3.6 8.7-7 9-10.9.3-4.4-4-9.3-6.3-13.9m374.1 261.6c-2.4-2.7-5.9-6.6-9.8-11-6.6 13.8-.5 27.6-.3 41.1 0 2.5 7 4.9 10.8 7.4.4-1.1.9-2.2 1.3-3.3-8.6-5.4-9.2-6-7.8-22.6.4-4 3.7-7.6 5.8-11.6m582.1-15.4h-2.7v51.2h2.7zM692.3 413c1.3 0 2.7.1 4 .1 0-7.2-1.4-14.9.4-21.4 1.7-5.8 6.9-10.4 11.2-16.4-5.6.7-10.5 1.4-15.6 2.1zm568-47.6h-2.3v47.7h2.3z" style="fill:#fafafa"/><path d="M1820.3 550.1c3.6 4.1 7.1 8.1 10.7 12.2.8 1.7 1.5 3.3 2.3 5 .7 1.7 1.5 3.3 2.2 5v96.6c-.7 1.7-1.5 3.3-2.2 5-.8 1.7-1.5 3.3-2.3 5-3.6 4.1-7.1 8.1-10.7 12.2-1.5.9-2.9 1.8-4.4 2.6s-2.9 1.7-4.4 2.5c-3.6.9-7.2 1.7-10.9 2.6-5.4 0-10.8-.1-16.3-.1H218.6c-7.3-4.6-15.7-8-21.6-14.3-5.6-6-8.7-15.1-13-22.8v-81.8c4.6-20.8 18.1-30.8 34.6-37.1h1581.9c3.6.9 7.2 1.7 10.9 2.6 1.5.8 2.9 1.7 4.4 2.5 1.6.5 3.1 1.4 4.5 2.3M489.4 623.6c.2 1.4.5 2.8.7 4.3-4.3 1.2-10.5 4.8-12.5 2.9-3.2-3.1-6-10.8-4.8-15.1 4.2-15.9 13.3-3.5 22.6-1.9-6.8-10.2-13.9-15.6-21.2-8.4-7.6 7.6-12.7 5.7-20.4-.9-.8 10.2-.3 19.8 1 29.1.2 1.4 4.7 2 9.1 3.7-4.8-9.6-7.5-16.4.1-24.9 2.9 13.1 3.8 26.1 18.1 24.3 8.3-1 12.9-5.8 13.5-16.6H479c4.7 1.5 7.5 2.5 10.4 3.5m-214.7 17.6c-1.4-9.4-2.3-18.2-4.1-26.8s-7.2-13.5-15.1-12.5c-8.2 1.1-13 6.8-12.8 16.5.2 9.1 5.3 16.6 12.5 15.1 9-1.7 14.5 2.8 19.5 7.7m174.5-5.2c-1.4-9.3-1.1-18.5-4.7-24.7-1.5-2.6-12.2-.1-17.4 3-2.4 1.5-3.5 10.8-2 15 4.5 12.1 13.9 6.2 24.1 6.7m56.6-10.9c.9.8 1.9 1.5 2.8 2.3 3.7-5.2 11-11 10.4-15.6-1.4-11.9-10.5-7-17.2-6.9v30.5h1.9c.8-3.3 1.4-6.8 2.1-10.3m-114.7 5.8c-6.8-1-13.2-.3-17.9-3.3-2.1-1.4-2.3-11.2-.3-15.2 5.5-10.9 12-1.9 19.4 2.2-.8-10.6-7.2-11.7-12.1-11.9-8.1-.2-14.8 6-14.4 14.8.3 6.4 4.8 14.9 9.6 18.1 5.1 3.4 13.3 2.9 15.7-4.7m8.8 4.4c.8.1 1.6.1 2.4.2.3-3.3-.1-7 1.1-9.8 1.6-3.9 4.4-7.1 6.7-10.6 1.4 3.4 3.1 6.6 4.1 10.1 1 3.6 1.4 7.5 2.6 14.6 6-17.6 3.4-27.7-5.1-30.1-4.1-1.1-8-3-11.7-4.4-.1 8.9-.1 19.4-.1 30M537 605h-9.7c1.1 10.7 2.2 21 3.3 31.3h3.3c.9-10.3 2-20.6 3.1-31.3" style="fill:#fefefe"/><path d="M1226.6 834.8c9.4 1.9 10.4 11 10.6 18.8.6 25.4.6 50.9 0 76.3-.2 7.9-1.2 16.9-10.6 18.8H962.2c-9.4-2-10.4-11-10.6-18.9-.6-25.2-.4-50.4-.1-75.5.1-10.2 3.7-18.4 12.9-21.9 4.1.8 8.2 2.4 12.3 2.4zm-147.3 56.1c-2.7-2-6.3-6.6-9.3-6.1-3.6.5-8.2 4.5-9.8 8.4-1.1 2.8 1.1 8.9 3.6 11.5 2.1 2.1 8 2.9 9.6 1.1 2.8-3 3.6-8.4 5.9-14.9m-34.7 15.9c7.7.2 8.1-.5 8.1-8 0-.6.7-1.6 1.2-1.8 7.9-2.7 2.3-8.3.4-9.4-3.3-2-8.8-3.4-11.4-1.5-2.7 1.9-4.8 8.3-4.3 12.3.5 3.7 4.7 6.8 6 8.4m106-.5c1 .1 2 .1 3 .2.3-3.4.1-6.9 1-10.1.7-2.6 2.6-4.8 4-7.2 1.7 2.6 3.9 4.9 4.9 7.8 1 3 .7 6.5.9 9.8h2.7c.7-6.3 1.4-12.7 2.2-20.4-6.2-.8-12.3-1.5-18.6-2.3-.1 8.1-.1 15.2-.1 22.2m-141.3 1.4c4.2-6.8 7.1-11.5 9.9-16-1.6-1.1-4.2-2.8-8.8-5.8 6.1-2.2 9.2-3.4 12.4-4.5-.2-.5-.4-1-.5-1.5h-13z" class="st2"/><path d="M1432.4 834.8c9.4 1.9 10.4 11 10.6 18.8.6 25.4.6 50.9 0 76.3-.2 7.9-1.2 16.9-10.6 18.8h-164.7c-9.4-1.9-10.4-11-10.6-18.8-.6-25.4-.6-50.9 0-76.3.2-7.9 1.2-16.9 10.6-18.8zm-47 41.5c-3.5 3.2-5.8 7.3-8.4 7.5-7.7.4-11.5 4.7-11 12.9.5 8.7 5.6 11.6 12.8 10 2.3-.5 4.6-.6 6.6-.8zm-33.8 29.7c-.7-9.6 2.1-21.7-10.7-21.3-2.8.1-7.9 7.9-7.7 11.8.7 14 10.3 9.9 18.4 9.5m-33.4-9.9c.7.7 1.4 1.3 2.2 2 3.4-4 10.1-8.7 9.6-11.9-1.9-11-9.9-6.4-15.1-6.6v26.9c.7-.1 1.4-.1 2.1-.2.4-3.3.8-6.8 1.2-10.2m-557.6 52.6c-9.4-1.9-10.4-11-10.6-18.8-.6-25.4-.6-50.9 0-76.3.2-7.9 1.2-16.9 10.6-18.8H921c9.4 1.9 10.4 11 10.6 18.8.6 25.4.6 50.9 0 76.3-.2 7.9-1.2 16.9-10.6 18.8zm82.5-41.8c7.6.2 8-.4 8-8 0-.6.7-1.6 1.2-1.8 7.9-2.7 2.3-8.4.4-9.4-3.3-2-8.8-3.4-11.5-1.5s-4.8 8.3-4.3 12.3c.7 3.6 4.9 6.7 6.2 8.4m26.1 2.9c2-7 2.2-11.7 3.8-12.5 9-4.3 2.5-8.9-.3-10.7s-8.2-1.9-10.6.2c-2.5 2.1-4.5 8.6-3.4 11.6 1.5 4.2 6.1 6.9 10.5 11.4m-62.1-3.4c.9.1 1.7.2 2.6.3.5-3.9 1-7.7 1.5-11.5 2.4-.5 4.7-1 7.1-1.5-2.8-2.6-5.3-4.8-7.7-7 3.4-2.1 6.7-4.2 11-6.9H807c.1 9.2.1 17.9.1 26.6" style="fill:#fdfdfd"/><path d="M654.6 951.2c-19.1 0-38.2.1-57.3 0q-18.45-.15-18.6-21.3c-.1-25.5-.1-51.1 0-76.6.1-13.9 6.4-20.9 18.9-20.9 37.9-.1 75.7-.1 113.6 0 13 0 19.1 7 19.2 21.9.1 25.1.1 50.3 0 75.4-.1 14.7-6.2 21.5-19.5 21.6-18.8 0-37.6-.1-56.3-.1m9.4-73.8c-1.2-.1-2.5-.2-3.7-.3-.6 8.7-1.1 17.3-1.7 26-4.1-6.6-5.9-13.6-8.8-20-.7-1.6-7-2-7.2-1.4-2.8 7.9-5 16-7.4 24.1.6 1.1 1.3 2.3 1.9 3.4 8.3-18 18.6 4.3 26.9-4.1z" style="fill:#3467fe"/><path d="M343.9 127.9c15.2 1 29.7.6 43.8 3.3 25.9 4.9 39 26.8 37.1 59.4-1.5 25.9-19.4 45.6-43.6 47.1-12.2.7-24.4.1-37.4.1.1-36.1.1-71.8.1-109.9m15.8 95c16.7 0 34 3.7 44-15.9 7.9-15.6 7.9-32.8-.9-48-10.3-17.8-26.8-15.7-43.1-14.8z" class="st5"/><path d="M1155.9 227.6c-.5 4-.8 6.7-1.1 9.8h-14.4v-115h14.6v39.1c24.3-15.4 42.6-13.8 54.3 3.7 11.6 17.4 10.5 46-2.5 61.8-13 15.7-31.1 16.3-50.9.6M1201 194c-.1-16.7-9.6-28.2-22.9-28-12.9.2-22.8 12.8-22.7 28.8 0 16.1 9.9 28.5 22.8 28.6 13.6.1 22.9-11.8 22.8-29.4" class="st6"/><path d="M1661.8 237.4h-17.6c.6-24.4-14.1-21.9-28.6-22.2-11.2-.2-19.1 1-21.5 16.1-1.9 11.9-11 4.6-18.5 7.1 8.6-27.8 16.8-53.9 24.9-80 1.8-5.8 3.8-11.5 5.4-17.4 2-7.3 3.9-12.6 12.9-12.6 8.8 0 10.8 5.1 13 12.4 9.6 31.7 19.6 63.4 30 96.6m-28-36.9c-4.9-16.1-9.5-30.9-15.1-49.2-5.6 18.5-10.2 33.5-15 49.2z" style="fill:#3a6bfe"/><path d="M824.7 201.8h-56.3c2.6 19.8 21.5 29.9 32.7 17.3 6.9-7.8 13.4-7.2 21.2-6.5-6.9 21.9-24.8 31.5-45.4 24.9-19.1-6.1-29.9-30.5-24.7-55.8 4.6-22.4 23.1-34.8 45.2-30.5 18.7 3.6 29.5 22.9 27.3 50.6M808.3 187c-1.5-15.5-8-21.6-21-21.2-11.5.4-17.8 7.6-18.4 21.8h32.3c2.2-.1 4.3-.4 7.1-.6m293.8 14.8h-56.3c2.5 19.8 21.4 30 32.6 17.4 6.9-7.8 13.4-7.2 21.2-6.5-6.8 21.8-24.7 31.5-45.3 24.9-19.1-6.1-29.9-30.5-24.7-55.8 4.6-22.4 23.1-34.9 45.2-30.6 18.6 3.6 29.4 22.8 27.3 50.6m-16.6-14.6c-1-14.8-7.2-21.3-19.4-21.4-12.3-.1-18.7 6.6-20 21.4z" class="st6"/><path d="M218.9 698.5h1565.7c5.4 0 10.8 0 16.3.1v2.4c-524 0-1047.9 0-1571.9-.1-3.4 0-6.8-1.6-10.1-2.4" class="st8"/><path d="M1292.9 201.6h-55.1c-.8 10.5 3.6 17.9 10.6 19.6s15.1-.1 22.3-2.2c6.6-1.9 12.6-6.2 20.9-10.5-4.5 24-22.2 34.5-43 29.5-19.8-4.8-32-27.8-27.9-52.3 4.4-26 23.4-40 46.9-34.3 18.8 4.4 29.6 25.3 25.3 50.2m-55.6-15.2h40.9c-3.3-15.5-9-20.8-21.1-20.6-11.1.1-16.6 5.6-19.8 20.6" class="st6"/><path d="M1800.8 542.4H218.9c3.4-.8 6.7-2.4 10.1-2.4 524-.1 1047.9-.1 1571.9-.1-.1.9-.1 1.7-.1 2.5" class="st8"/><path d="M952.1 122.5h15.2V157c8.7-2.2 16.5-5.4 24.4-5.8 16.4-.7 28 11.9 28.7 30.9.7 18.1.1 36.2.1 55h-15.4c0-15.2.6-30.7-.3-46.1-.3-6.6-2-15.2-5.9-18.8-4.6-4.2-13-6.5-18.6-4.8-4.9 1.5-11.2 9.5-11.7 15.2-1.5 17.9-.6 36.1-.6 54.7h-16.2c.3-38.1.3-76.2.3-114.8" class="st9"/><path d="M637.8 150.9c22.6.1 38.6 18.6 38.2 44.4-.3 25.1-17.5 44.5-39.3 44.4-21.7-.1-38.4-19.9-38.2-45.4.2-25.7 16.3-43.5 39.3-43.4m21.7 43.7c0-17-8.8-28.5-22.1-28.6-13.4-.2-22.1 10.9-22.2 28.3-.1 18 7.9 28.9 21.3 29.1 13.9.2 23-11.1 23-28.8" class="st10"/><path d="M1538.9 237.3h-15.1c0-15.5.1-31 0-46.5-.1-16.6-6.1-24.6-18.1-24.8-12.4-.2-19 8.2-19.1 25.2-.2 15.2 0 30.3 0 46h-15.1V150c6.1 1.7 11.7 3.3 19.2 5.4 4.9-1.1 12.7-4.1 20.6-4.4 14.7-.6 26.3 10 27.4 26.7 1.3 19.7.2 39.4.2 59.6M459.7 211.5c7.9-.9 13.9-1.4 19.1 7.4 4.7 7.8 13.6 6.6 20.7 2.2 6-3.7 5-11.9-1.7-15.1-6.9-3.3-14.3-5.1-21.4-8-12.1-4.9-18-14.2-16.6-25.3 1.5-11.6 11.2-20.8 23.1-21.7 21.7-1.8 32.1 6 34.8 26.6-7.4 1-13.5 2.3-19.2-7-2.5-4-12.5-4.1-18.3-2.4-6.2 1.8-5.6 11.2 1 14.9 5.1 2.8 10.8 4.3 16.2 6.2 15.8 5.7 22.5 13.7 21.7 26.1-.9 13.4-10.2 22.3-26 24-14.7 1.5-35-8.8-33.4-27.9m898.1-33.5c-7.6.1-14 2.5-19.2-7.3-2.1-3.9-12.5-4.3-18.4-2.6-6.5 1.8-6.1 11 .6 14.9 5 2.9 10.8 4.3 16.3 6.2 16.7 6 22.8 13.6 21.7 27.2-1.1 13.2-10.9 22.2-26.7 23.2-14.7.9-33.5-9.1-32.6-27.7 7.2-.9 13.5-2.6 19.1 7 4.6 7.8 13.5 6.8 20.7 2.6 6.2-3.7 5.7-11.7-1.1-15.1-7.2-3.5-15.1-5.3-22.4-8.5-8.9-3.8-15.9-9.9-15.7-22.3.1-12.7 6.8-20 16.5-23 17.7-5.6 39.9-.6 41.2 25.4" class="st11"/><path d="M595.4 208.6c-7.3 24.5-22.7 34.1-42.7 29.6-19-4.3-29.9-21.8-28.9-46.5.9-22.4 13.8-39.2 31-40.7 22.3-1.8 35.2 6.9 39.1 27-7.9 1.1-14.3 1.5-21.1-6.7-3.7-4.5-13.6-5.7-19.7-3.8-10.9 3.4-13.3 15.2-13.4 26.8-.2 11.7 2.3 23 12.7 27.7 9.1 4.1 17.7 2.6 25-7.7 2.8-4 10.6-3.6 18-5.7" class="st6"/><path d="M675.4 152.5c12.5-4.2 18.2 0 21.2 13.4 4 17.7 10.4 34.7 16.7 55 7.7-25.1 14.5-47.2 21.3-69.2h16.6c-9.3 28.1-18.1 55.5-27.9 82.3-1.1 2.9-8.6 3.5-13.1 3.5-2.7 0-7-2.6-7.9-5.2-9.3-26.3-17.9-52.8-26.9-79.8" class="st10"/><path d="M944.3 222.9v15c-4.6 0-8.8.1-13.1 0-13.9-.4-20.6-7.6-20.9-23.5-.3-15.2-.1-30.5-.1-46.5-2.8-1-5.6-2-8.3-2.9-.5-7.2-3-15.3 8.1-14v-19.7h16.1c.3 6.3.6 12.6 1 19.8H944v14.6c-5.2.3-10.5.6-17.3 1 0 16.4-.3 32.7.3 49 .1 2.5 4.3 5.7 7.1 6.9 2.9 1.2 6.4.3 10.2.3" class="st5"/><path d="M1363 163.7v-11.6c2.7-.6 5.4-1.3 8.6-2v-19.2h15.1v19.6c6.2.4 11.8.7 18.1 1.1v13.9c-5.5.4-11 .8-17.6 1.2 0 16-.4 31.6.1 47.1.5 13.4 10.6 7.4 17.4 9.9v14c-5.3 0-10.9.5-16.5-.1-10.5-1.2-16.2-8-16.6-20.3-.5-13.6.2-27.2-.5-40.7-.2-4.3-3.2-8.5-4.9-12.7-1-.1-2.1-.1-3.2-.2M848.8 152c.3 2.7.6 5.5.9 7.5 6.8-3.4 13.6-6.7 21.8-10.7v18.8c-19.4 3.7-22 7.2-22.1 29.8v39.9h-15v-85.2c4.5-.1 9.3-.1 14.4-.1" class="st9"/><path d="M1685 237.2h-15.1V129.3h15.1z" style="fill:#4674fe"/><path d="M1441.8 151.7h14.7v85.7h-14.7z" class="st9"/><path d="M448.2 237.5h-14.1v-85.6h14.1z" style="fill:#212529"/><path d="M1079 378.4c.9-6.3 1.6-11.5 2.4-16.7 1 .1 1.9.2 2.9.3v50.3c-3 .2-6.7-.1-10.1.7-7.9 2-15.2 1.9-19.9-7-4.3-8.1-4.5-16.6.9-24.1 5.4-7.6 12.5-8.9 20.3-4.8.8.5 1.9.8 3.5 1.3m1.7 16.7c-.9-9.3-5-15.5-12.9-15.4-7.5.1-11.5 6.6-11.4 14.9.2 8.6 3.7 14.9 12.5 14.6 8.2-.4 10.7-6.6 11.8-14.1" class="st14"/><path d="M962.2 948.7h264.4c-3.7.8-7.5 2.4-11.2 2.4-80.7.1-161.3.1-242 0-3.8 0-7.5-1.6-11.2-2.4m264.4-113.9c-83.3 0-166.6 0-249.9-.1-4.1 0-8.2-1.5-12.3-2.4 83.3 0 166.6 0 249.9.1 4.1 0 8.2 1.5 12.3 2.4" class="st15"/><path d="M756.4 374.2c7.4 1.8 17.8 1.3 19.5 5.5 4.1 9.8 4.1 21.8 5.7 33-1.7.2-3.4.5-5.1.7-.3-5.9-.8-11.9-.8-17.8 0-8.2-1.8-15.7-10.1-15.7-8.6-.1-9.7 7.8-9.7 15.8 0 5.9-.4 11.7-.7 19.2-6.2-7.7-6.9-42.4-1-56.2 1.1 8.1 1.8 13.2 2.2 15.5" class="st16"/><path d="M1214.7 412c5.1-15.7 10.2-31.3 15.3-47l4.2-.6c5.3 16 10.6 32 16.7 50.5-21.4-16.3-23.2-16.3-36.2-2.9m17.5-38.9c-3 9.4-5.4 16.8-7.9 24.6h16.1c-2.9-8.4-5.2-15.5-8.2-24.6m-654.8 25.4c3.7 4.2 5.2 7.3 7.3 7.9 3.9 1.3 8.2 1.8 12.1 1.3 1.4-.2 3.8-5.3 3.2-6.6-1.7-3.5-4.7-6.3-7.4-9.1-.9-.9-2.8-.6-4.1-1.1-6.1-2.3-12.7-6-10.7-14.1 1.2-5 6.8-10.2 11.4-12.3 6.6-2.9 11.9 2 15.8 13.7-3.9-3.3-5.6-5.8-7.8-6.5-3.5-1.1-7.4-1.7-11-1-1.5.3-3.8 5.2-3.3 6.6 1.4 3.3 4.2 5.9 6.7 8.4 1.3 1.2 3.3 1.4 5.1 1.9 6.4 2.1 12.4 6.4 10.1 14.4-1.4 4.8-7.2 10-11.7 11.2-8.9 2.6-12.4-1.1-15.7-14.7m65.7-1.8h-25.4c2.2 14.8 5.1 15.3 24 5.6-3.3 10.5-9 14-18.8 11.4-8-2.1-13.1-11.8-11.7-22.2 1.3-10.1 8.8-17.4 17.2-16.8 9.3.6 14.4 7.7 14.7 22m-27.3-8c.6 1 1.2 2.1 1.9 3.1h20.8c.5-1.5 1-2.9 1.5-4.4-4.4-2.7-8.9-7.4-13.3-7.4-3.6-.1-7.2 5.6-10.9 8.7" class="st17"/><path d="M682.5 378.9v32.5c-4.1.7-7.8 1.2-11.4 1.9-7.5 1.5-14.6 1.4-19-7-4.3-8.1-4.3-16.7.8-24.2 4.9-7.3 11.7-8.6 19.3-5.4 2.7 1.1 5.9 1.2 10.3 2.2m-4.2 16.1c-.6-9.2-4.6-15.5-12.6-15.3-7.3.2-11.6 5.7-11.5 14.7.1 9.2 3.6 15.1 12.2 14.9 7.8-.2 11.3-6 11.9-14.3" class="st18"/><path d="M852.1 413.3c0-6.7-.1-13.4 0-20 .2-7.6-2.3-14.6-9.2-13.1-4.1.9-8.7 7.6-10.2 12.8-1.8 6.1-.4 13.4-.4 20.2-1.1 0-2.1 0-3.2-.1v-50.7c.7-.1 1.3-.2 2-.3.6 5.2 1.2 10.5 1.4 12.1 7.8 2.1 16.5 1.5 20.7 6.2 8 9 4.4 21.6 3.6 32.8-1.5 0-3.1 0-4.7.1m304.6.7c-10.2 0-16.8-7.5-16.8-19.1s7.8-20.6 17.5-20.2c9.1.4 16.8 9.8 16.6 20.4-.2 11.1-7.3 18.9-17.3 18.9m13.7-22c-4.4-4.1-8.5-11-13.4-11.8-7.9-1.4-12.5 6-12.2 14.9.2 8.2 3.9 14.2 12.1 14.1s11.4-5.7 13.5-17.2" class="st14"/><path d="M1040 413.2v-19.1c0-8-2.7-14.3-10.3-14.2-7.1.1-9.4 6.3-9.3 13.8.1 6.6 0 13.2 0 19.8-1.4 0-2.8.1-4.2.1v-36.2c8 1.9 19.3-9.5 25.1 3.5 4.1 9.1 3 21.3 4.2 32.1-1.8 0-3.7.1-5.5.2" class="st16"/><path d="M881 374.5c9.4.1 16.6 8.8 16.5 20.2-.1 12.1-6.3 19.2-16.7 19.2-10.5 0-16.5-7.2-16.4-19.4 0-11.4 7.2-20 16.6-20m.4 34.8c8.1-.5 11.4-6.1 11.4-14.6 0-9.2-4.5-15.3-12.4-14.9-8 .4-11.7 7-11.3 16.1.3 8.8 4.4 13.4 12.3 13.4m452.3-34.8c9.4-.1 16.7 8.5 16.7 19.9 0 12.2-6.1 19.4-16.5 19.5-10.5.1-16.6-7-16.6-19.1-.1-11.5 7-20.1 16.4-20.3m12.1 20.7c-.3-9.3-4.3-15.5-12.3-15.5-7.4 0-11.5 5.9-11.6 14.6-.1 9.2 3.6 15 12.1 14.9 8 0 11.2-5.8 11.8-14m10.4-.3c0-11.5 6.9-20.2 16.3-20.4s16.7 8.4 16.8 19.8c0 12.2-6.1 19.5-16.4 19.6-10.4.2-16.6-6.9-16.7-19m15.3 14.3c8.8.2 12.7-4.8 13.2-13.4.5-9.2-3.6-15.7-11.5-16-8-.4-12.2 5.8-12.2 15-.1 8.6 3.4 13.9 10.5 14.4" class="st17"/><path d="M942.6 402.9c3.6 2.1 7.1 5 10.9 6 2.1.5 4.8-2.2 7.2-3.5-1.4-2.3-2.7-4.9-4.4-6.9-.9-1.1-2.9-.9-3.9-1.9-3.6-3.8-7-7.8-10.5-11.7 3.6-3.4 6.8-8.3 10.9-9.9 5.3-2.1 10.1 3.1 12.5 12.4-3.6-2.9-6.1-6.1-9.1-6.8-2.6-.6-5.7 1.5-8.6 2.5 1.3 2.8 2.5 5.7 4.1 8.2.7 1.1 2.8.9 3.9 1.9 3.7 3.3 7.7 6.4 10.4 10.6.7 1.1-2.5 7.9-4.5 8.4-5 1.1-10.4.7-15.5-.5-2.1-.5-3.5-4.5-5.2-6.9.6-.7 1.2-1.3 1.8-1.9m150.4-.9c5.3 3 8.9 5.9 12.8 6.9 1.9.5 4.5-2.7 6.8-4.2-1.4-2.1-2.6-4.3-4.2-6.1-1-1-2.9-.9-3.9-1.9-3.8-3.6-7.4-7.6-11-11.4 3.5-3.5 6.6-9.1 10.6-10.1 6-1.5 11.7 1.6 14.2 13.1-4.4-3.6-6.5-6.8-8.9-7-3.3-.4-6.8 1.4-10.3 2.3 1.7 2.6 3.2 5.3 5 7.8.6.8 1.9 1.1 2.9 1.4 5.7 1.8 12.3 3.8 10.6 12.4-.7 3.5-5.6 7.5-9 8.3-6.8 1.6-13.7.5-15.6-11.5m317.3.9c4.2 2.2 8 5.1 12.2 6.1 1.8.4 4.3-2.9 6.5-4.5-1.5-2-2.7-4.2-4.4-5.9-1-1-2.9-.9-3.9-1.9-3.7-3.7-7.2-7.7-10.7-11.6 3.6-3.5 6.8-9 10.8-9.9 5.9-1.4 11.6 1.8 14 13.6-4.6-4-6.7-7.1-9.2-7.6-3-.6-6.4 1-9.6 1.7 1.6 2.9 3.1 5.9 4.9 8.7.6.9 2.1.7 2.9 1.5 3.7 3.7 7.3 7.6 10.9 11.4-3.6 3.2-6.9 8.3-10.9 9.2-8.6 1.7-11-1-13.5-10.8" class="st14"/><path d="M908.9 376.6c.3 6.6.7 13.2.8 19.7.1 7.6 2.4 13.1 9.8 13 7.2-.1 9.9-5.6 10.1-13.1.1-6.4 0-12.9 0-19.3 1-.1 2-.1 3-.2v35.6c-7.9-2.9-20.2 8.6-25.5-5.6-3.3-8.8-2-19.9-2.8-30 1.5.1 3 0 4.6-.1" class="st18"/><path d="M742.1 389.7c-6.8-6.6-13.8-16.8-21.4-5.3-3 4.6-3 16.4.1 20.8 6.8 9.6 14.4 2.7 21.3-3.4-1.2 9.5-6.4 12.5-14.1 12.2-9.5-.4-16-7.9-16.1-18.9-.1-10.8 6.4-19.4 15.4-20.3 8.4-.8 13.8 4.2 14.8 14.9" class="st17"/><path d="M1194.7 362.7c-5.2 5-12.6 10.1-.5 14.8-13.9 8.7-2.5 25-8.7 35.7-1.1-.1-2.4-.2-2.4-.3-1.1-14.9-6.1-29.9-.3-44.5 1.4-3.6 6.1-5.5 9.2-8.1z" class="st16"/><path d="M1297.1 370.7c-5.2-1.2-8.4-2-11.6-2.8.1-.7.1-1.5.2-2.2h26.3c.1.7.3 1.3.4 2-3.1.8-6.1 1.6-11.5 3.1v42.8c-1.3 0-2.5-.1-3.8-.1z" class="st14"/><path d="M1451.3 115.6c2.6 4.4 7.7 9.1 7.3 13.1-.4 4.3-5.6 10.3-9.4 11.1-2.7.5-8.9-6.2-9.2-10.1-.3-4.4 4.2-9.2 6.7-13.9 1.5 0 3.1-.1 4.6-.2m-1007 .3c2.3 4.6 6.6 9.5 6.2 13.9-.3 3.9-5.8 7.3-9 10.9-3.4-3.9-9-7.5-9.5-11.9-.4-4 4.8-8.7 7.5-13.1 1.6 0 3.2.1 4.8.2" class="st5"/><path d="M1267.7 948.7h164.7c-3 .8-6 2.4-9 2.4-48.9.2-97.8.2-146.6 0-3.1 0-6.1-1.6-9.1-2.4m164.7-113.9h-164.7c3-.8 6-2.4 9-2.4 48.9-.2 97.8-.2 146.6 0 3.1 0 6.1 1.5 9.1 2.4m-511.4 0H760.6c3-.8 6-2.4 9-2.4 47.4-.2 94.9-.2 142.3 0 3.1 0 6.1 1.5 9.1 2.4M760.6 948.7H921c-3 .8-6 2.4-9 2.4-47.4.2-94.9.2-142.3 0-3.1 0-6.1-1.6-9.1-2.4" class="st15"/><path d="M818.4 377.5c-2 4-5.4 7.6-5.7 11.6-1.4 16.6-.8 17.2 7.8 22.6-.4 1.1-.9 2.2-1.3 3.3-3.8-2.5-10.8-4.9-10.8-7.4-.2-13.5-6.3-27.3.3-41.1 3.8 4.3 7.3 8.2 9.7 11" class="st14"/><path d="M998.1 410.2c-9.7 5.9-17.7 4.7-22.6-3.4-4.6-7.6-3.8-21.4 2.3-26.9 7.2-6.6 14.7-7.8 21.6 1.1-.6.7-1.1 1.4-1.7 2.1-6.1-4.7-13.1-6-17 1.6-2.5 4.7-2.8 12.8-1.1 18.2 2.9 9 10.5 6.5 16.9 5.3.5.6 1 1.3 1.6 2" class="st18"/><ellipse cx="1399.2" cy="387.7" class="st14" rx="1.9" ry="36.2"/><path d="M692.3 413v-35.6c5.1-.7 10.1-1.3 15.6-2.1-4.3 6-9.6 10.5-11.2 16.4-1.8 6.5-.4 14.2-.4 21.4-1.4 0-2.7-.1-4-.1" class="st17"/><path d="M1835.5 668.8v-96.6c1.5 4.8 4.1 9.6 4.2 14.5.4 22.5.4 45.1 0 67.7-.2 4.8-2.8 9.6-4.2 14.4" class="st19"/><path d="M1260.3 365.4v47.7h-2.3v-47.7zm-261 15.6c1.5-1.5 2.9-3.1 5.6-6v38c-2.5-1-4.7-1.9-6.9-2.8-.6-.7-1.1-1.4-1.7-2.1 5.8-8 6.9-16.3 1.2-25q1.05-1.05 1.8-2.1" class="st18"/><path d="M184.3 579.6v81.8c-.8-3.4-2.1-6.8-2.2-10.2-.2-20.4-.2-40.9 0-61.3.1-3.5 1.4-6.9 2.2-10.3m1616.5-37.2V540c3.6 1.6 7.2 3.3 10.9 4.9-3.7-.8-7.3-1.6-10.9-2.5m0 158.6v-2.4c3.6-.9 7.2-1.7 10.9-2.6-3.7 1.7-7.3 3.3-10.9 5m15.2-153.5c-1.5-.8-2.9-1.7-4.4-2.5 1.5.8 2.9 1.6 4.4 2.5m4.3 2.6c-1.5-.9-2.9-1.8-4.4-2.6 1.5.8 3 1.7 4.4 2.6m15.2 22.1c-.7-1.7-1.5-3.3-2.2-5 .7 1.7 1.5 3.4 2.2 5m-4.5 106.5c.8-1.7 1.5-3.3 2.3-5-.7 1.7-1.5 3.4-2.3 5m-19.4 17.4c1.5-.8 2.9-1.7 4.4-2.5-1.5.8-2.9 1.6-4.4 2.5m4.4-2.5c1.5-.9 2.9-1.8 4.4-2.6-1.5.8-3 1.7-4.4 2.6m17.3-126.3c-.8-1.7-1.5-3.3-2.3-5 .8 1.6 1.6 3.3 2.3 5m0 106.5c.7-1.7 1.5-3.3 2.2-5-.7 1.6-1.5 3.3-2.2 5" class="st19"/><path d="M489.4 623.6c-2.9-1-5.7-2-10.3-3.5h16.6c-.6 10.8-5.2 15.6-13.5 16.6-14.3 1.8-15.2-11.1-18.1-24.3-7.6 8.5-4.9 15.3-.1 24.9-4.4-1.7-8.9-2.3-9.1-3.7-1.4-9.3-1.8-18.9-1-29.1 7.7 6.6 12.9 8.5 20.4.9 7.2-7.2 14.4-1.8 21.2 8.4-9.3-1.6-18.4-14-22.6 1.9-1.1 4.3 1.6 12 4.8 15.1 2 1.9 8.2-1.7 12.5-2.9-.3-1.5-.5-2.9-.8-4.3" class="st20"/><path d="M274.7 641.2c-5-4.9-10.5-9.4-19.5-7.6-7.2 1.5-12.3-6-12.5-15.1-.2-9.7 4.6-15.5 12.8-16.5 7.9-1 13.2 3.8 15.1 12.5 1.8 8.5 2.7 17.3 4.1 26.7M257 602.6c-4.5 7-9.4 11.4-9.1 15.2.3 4 5.7 7.5 8.9 11.2 3.2-3.6 8.7-7 9.1-11 .2-3.7-4.6-8.3-8.9-15.4" style="fill:#5b6268"/><path d="M449.2 636c-10.2-.6-19.6 5.3-24-6.7-1.5-4.2-.4-13.5 2-15 5.2-3.1 15.9-5.6 17.4-3 3.6 6.2 3.2 15.5 4.6 24.7m-4.1-13.6c-4.8-3.5-7.6-7.1-10.6-7.2-1.8-.1-5.5 5.9-5.1 8.3.6 3.1 4.2 6.9 7 7.7 1.8.4 4.6-4.4 8.7-8.8m60.7 2.7c-.7 3.5-1.3 6.9-2 10.4h-1.9V605c6.7-.1 15.8-4.9 17.2 6.9.5 4.6-6.7 10.3-10.4 15.6-1-.8-1.9-1.6-2.9-2.4m-114.7 5.8c-2.4 7.7-10.6 8.2-15.6 4.8-4.8-3.2-9.3-11.7-9.6-18.1-.4-8.8 6.2-15 14.4-14.8 4.9.1 11.3 1.2 12.1 11.9-7.4-4.1-13.8-13.1-19.4-2.2-2 4-1.8 13.8.3 15.2 4.6 2.9 11 2.2 17.8 3.2m8.8 4.4v-29.9c3.8 1.4 7.7 3.3 11.7 4.4 8.5 2.4 11.1 12.4 5.1 30.1-1.2-7.1-1.5-11-2.6-14.6-1-3.5-2.7-6.7-4.1-10.1-2.3 3.5-5.1 6.7-6.7 10.6-1.2 2.8-.8 6.5-1.1 9.8-.7-.2-1.5-.3-2.3-.3M537 605c-1.1 10.7-2.1 21-3.2 31.3h-3.3c-1.1-10.3-2.2-20.6-3.3-31.3z" class="st20"/><path d="M1079.3 890.9c-2.4 6.5-3.1 11.9-5.9 14.8-1.7 1.8-7.6 1-9.6-1.1-2.4-2.5-4.7-8.7-3.6-11.5 1.6-3.9 6.1-7.9 9.8-8.4 3.1-.4 6.6 4.2 9.3 6.2m-34.7 15.9c-1.3-1.7-5.5-4.7-6-8.4-.5-4 1.5-10.3 4.3-12.3 2.7-1.9 8.1-.5 11.4 1.5 1.8 1.1 7.4 6.7-.4 9.4-.5.2-1.2 1.2-1.2 1.8 0 7.6-.4 8.3-8.1 8m106-.5V884c6.3.8 12.4 1.6 18.6 2.3-.8 7.7-1.5 14-2.2 20.4h-2.7c-.3-3.3 0-6.8-.9-9.8-.9-2.9-3.2-5.2-4.9-7.8-1.4 2.4-3.3 4.6-4 7.2-.8 3.2-.7 6.7-1 10.1-.9.1-1.9 0-2.9-.1" class="st22"/><path d="M1009.3 907.7v-27.8h13c.2.5.4 1 .5 1.5-3.2 1.2-6.3 2.3-12.4 4.5 4.6 3.1 7.2 4.8 8.8 5.8-2.8 4.5-5.7 9.2-9.9 16" class="st11"/><path d="M1385.4 876.3v29.5c-2 .2-4.3.3-6.6.8-7.3 1.6-12.3-1.3-12.8-10-.5-8.2 3.3-12.4 11-12.9 2.6 0 5-4.1 8.4-7.4" style="fill:#3c3c3c"/><path d="M1351.6 906c-8.1.4-17.7 4.5-18.4-9.5-.2-4 4.9-11.7 7.7-11.8 12.7-.4 9.9 11.7 10.7 21.3" class="st5"/><path d="M1318.2 896.1c-.4 3.4-.8 6.9-1.2 10.3-.7.1-1.4.1-2.1.2v-26.9c5.2.2 13.2-4.5 15.1 6.6.5 3.1-6.2 7.9-9.6 11.9-.8-.8-1.5-1.4-2.2-2.1" class="st24"/><path d="M843.1 906.9c-1.3-1.7-5.5-4.7-6-8.4-.5-4 1.5-10.4 4.3-12.3 2.7-1.9 8.1-.5 11.5 1.5 1.8 1.1 7.4 6.7-.4 9.4-.5.2-1.2 1.2-1.2 1.8-.2 7.6-.6 8.2-8.2 8" class="st22"/><path d="M869.2 909.8c-4.4-4.5-9-7.2-10.6-11.4-1.1-3 .9-9.4 3.4-11.6 2.4-2 7.8-1.9 10.6-.2 2.9 1.8 9.4 6.4.3 10.7-1.5.8-1.7 5.5-3.7 12.5m-62.1-3.4v-26.6h14.6c-4.3 2.7-7.7 4.8-11 6.9 2.4 2.2 4.8 4.4 7.7 7-2.5.5-4.8 1-7.1 1.5-.5 3.8-1 7.7-1.5 11.5q-1.5-.3-2.7-.3" class="st24"/><path d="M664 877.4v27.7c-8.4 8.4-18.6-13.9-26.9 4.1-.6-1.1-1.3-2.3-1.9-3.4 2.4-8.1 4.5-16.2 7.4-24.1.2-.7 6.5-.2 7.2 1.4 2.9 6.4 4.7 13.4 8.8 20 .6-8.7 1.1-17.3 1.7-26 1.2.1 2.4.2 3.7.3" style="fill:#e3eafe"/><path d="M359.7 222.9v-78.7c16.2-.9 32.7-3 43.1 14.8 8.8 15.2 8.8 32.4.9 48-9.9 19.6-27.2 15.9-44 15.9" class="st26"/><path d="M1201 194c.1 17.6-9.1 29.5-22.8 29.4-12.9-.1-22.7-12.4-22.8-28.6 0-16 9.9-28.6 22.7-28.8 13.3-.3 22.8 11.3 22.9 28m432.8 6.5h-30.1c4.8-15.8 9.4-30.7 15-49.2 5.6 18.2 10.2 33 15.1 49.2" class="st27"/><path d="M808.3 187c-2.8.2-4.9.5-7 .5H769c.6-14.2 6.9-21.4 18.4-21.8 12.9-.3 19.4 5.8 20.9 21.3m277.2.2h-39.4c1.3-14.8 7.7-21.5 20-21.4 12.2.1 18.4 6.6 19.4 21.4m151.8-.8c3.2-15 8.7-20.5 19.9-20.6 12.1-.1 17.7 5.2 21.1 20.6z" class="st19"/><path d="M659.5 194.6c0 17.6-9.1 28.9-23.1 28.7-13.4-.2-21.4-11.1-21.3-29.1.1-17.4 8.9-28.5 22.2-28.3 13.3.3 22.1 11.7 22.2 28.7" class="st26"/><path d="M1080.7 395.1c-1 7.5-3.5 13.8-11.8 14.1-8.8.3-12.3-6-12.5-14.6-.2-8.3 3.8-14.8 11.4-14.9 7.8-.1 11.9 6.1 12.9 15.4" class="st27"/><path d="m1232.2 373.1 8.2 24.6h-16.1c2.4-7.7 4.8-15.1 7.9-24.6" class="st15"/><path d="M615.8 388.7c3.6-3.1 7.3-8.8 10.9-8.7 4.4 0 8.9 4.7 13.3 7.4-.5 1.5-1 2.9-1.5 4.4h-20.8c-.6-1-1.2-2.1-1.9-3.1" class="st19"/><path d="M678.3 395c-.6 8.3-4.1 14.1-11.9 14.3-8.6.2-12.1-5.7-12.2-14.9-.1-8.9 4.2-14.5 11.5-14.7 8-.2 12 6.1 12.6 15.3m492.1-3c-2.1 11.5-5.3 17.1-13.5 17.2s-11.9-5.9-12.1-14.1c-.2-9 4.3-16.3 12.2-14.9 4.9.8 9 7.6 13.4 11.8m-289 17.3c-7.8 0-11.9-4.6-12.4-13.4-.4-9.1 3.3-15.8 11.3-16.1 7.9-.4 12.4 5.7 12.4 14.9.1 8.4-3.2 14.1-11.3 14.6m464.4-14.1c-.5 8.3-3.7 14.1-11.8 14.1-8.5 0-12.2-5.7-12.1-14.9.1-8.7 4.2-14.6 11.6-14.6 8-.2 12 6.1 12.3 15.4m25.7 14c-7.1-.5-10.6-5.9-10.6-14.5 0-9.2 4.2-15.4 12.2-15 7.9.4 11.9 6.9 11.5 16-.4 8.7-4.3 13.7-13.1 13.5m-373.9-26.1c5.7 8.7 4.6 17-1.2 25-6.4 1.2-14 3.7-16.9-5.3-1.7-5.3-1.4-13.4 1.1-18.2 4-7.5 10.9-6.2 17-1.5" class="st27"/><path d="M257 602.6c4.3 7.2 9.2 11.7 8.8 15.5-.4 4-5.8 7.3-9.1 11-3.2-3.7-8.5-7.2-8.9-11.2-.3-3.9 4.7-8.3 9.2-15.3" class="st26"/><path d="M445.1 622.4c-4.1 4.4-6.9 9.2-8.6 8.7-2.8-.7-6.4-4.5-7-7.7-.4-2.4 3.3-8.4 5.1-8.3 2.9.2 5.7 3.8 10.5 7.3" class="st2"/></svg>