<svg xmlns="http://www.w3.org/2000/svg" xml:space="preserve" viewBox="0 0 283.5 283.5"><path d="M139.6 226.1c-35.4-2.2-64.3-19.8-80.6-55.3-19.9-43.4-3-94.2 38.4-117.9 5.8-3.3 12.1-5.7 18.2-8.1 4-1.6 7.3-.4 9.7 2.7 2.2 2.8 2.1 6.2-.2 9.8-20.1 31.3-16.7 70.1 9.4 96.3 21.1 21.1 46.8 27.1 75.6 19.7 4.7-1.2 7.9-.3 10.2 3.1 2 2.9 1.7 6.3-1 10.1-1.6 2.2-3.1 4.4-4.9 6.5-18.8 21.8-42.8 32.5-74.8 33.1m-39.2-156c-23.9 17.3-35.9 40.8-33 70.4 3.1 30.9 19.9 53 48.9 64.2 26.8 10.4 52.1 5.6 75.8-11.9-32.4-.5-58.6-12.1-77.6-37.7-19-25.8-22.7-54.4-14.1-85" style="fill:#fff"/></svg>