<?xml version="1.0" encoding="utf-8"?>
<!-- Generator: Adobe Illustrator 25.0.0, SVG Export Plug-In . SVG Version: 6.00 Build 0)  -->
<svg version="1.1" id="Ebene_1" xmlns="http://www.w3.org/2000/svg" xmlns:xlink="http://www.w3.org/1999/xlink" x="0px" y="0px"
	 viewBox="0 0 283.5 283.5" style="enable-background:new 0 0 283.5 283.5;" xml:space="preserve">
<style type="text/css">
	.st0{fill:#FFFFFF;}
</style>
<g>
	<path class="st0" d="M139.6,226.1c-35.4-2.2-64.3-19.8-80.6-55.3c-19.9-43.4-3-94.2,38.4-117.9c5.8-3.3,12.1-5.7,18.2-8.1
		c4-1.6,7.3-0.4,9.7,2.7c2.2,2.8,2.1,6.2-0.2,9.8c-20.1,31.3-16.7,70.1,9.4,96.3c21.1,21.1,46.8,27.1,75.6,19.7
		c4.7-1.2,7.9-0.3,10.2,3.1c2,2.9,1.7,6.3-1,10.1c-1.6,2.2-3.1,4.4-4.9,6.5C195.6,214.8,171.6,225.5,139.6,226.1z M100.4,70.1
		c-23.9,17.3-35.9,40.8-33,70.4c3.1,30.9,19.9,53,48.9,64.2c26.8,10.4,52.1,5.6,75.8-11.9c-32.4-0.5-58.6-12.1-77.6-37.7
		C95.5,129.3,91.8,100.7,100.4,70.1z"/>
</g>
</svg>
