<?xml version="1.0" encoding="UTF-8"?>
<svg id="Ebene_1" xmlns="http://www.w3.org/2000/svg" version="1.1" viewBox="0 0 1920 1080">
  <!-- Generator: Adobe Illustrator 30.1.0, SVG Export Plug-In . SVG Version: 2.1.1 Build 136)  -->
  <defs>
    <style>
      .st0 {
        fill: #528bea;
      }

      .st1 {
        fill: #252525;
      }

      .st2 {
        fill: #777;
      }

      .st3 {
        fill: #d7d7d7;
      }

      .st4 {
        fill: #c2c2c2;
      }

      .st5 {
        fill: #272727;
      }

      .st6 {
        fill: #bababa;
      }

      .st7 {
        fill: #1e1e1e;
      }

      .st8 {
        fill: #3d7adf;
      }

      .st9 {
        fill: #dce8fc;
      }

      .st10 {
        fill: #05080c;
      }

      .st11 {
        fill: #e3e3e3;
      }

      .st12 {
        fill: #737373;
      }

      .st13 {
        fill: #212121;
      }

      .st14 {
        fill: #2b2b2b;
      }

      .st15 {
        fill: #030303;
      }

      .st16 {
        fill: #4385f3;
      }

      .st17 {
        fill: #1a1a1a;
      }

      .st18 {
        fill: #5e94ee;
      }

      .st19 {
        fill: #3b76d9;
      }

      .st20 {
        fill: #cfcfcf;
      }

      .st21 {
        fill: #3973d4;
      }

      .st22 {
        fill: #010203;
      }

      .st23 {
        fill: #4985e9;
      }

      .st24 {
        fill: #356bc5;
      }
    </style>
  </defs>
  <path d="M1836.82,1080h-222.19c104.5-290.12-17.06-603.57-301.98-772.56-2.79-1.65-4.55-3.98-5.12-5.93l4.72-2.61c1.44-.79.4-4.11-1.35-6.33-6.12-.6-2.94-1.54,1.94-2.13-.26-3.39-8.15-4.34-10.56-.56-1.03,1.62,2.32,4.69,5.97,7.33l-6.15,2.5c-6.53-1.01-12.2-4.49-14.96-10.23l-11.33-1.17-2.52-.98c-.39-.61-2.88-3.26-4.05-3.84-21.59-10.66-43.53-20.8-65.46-29.38-1.31-1.77-4.42-3.3-7.07-3.81l-5.61-1.08c-1.54-.3-.61-4.91,1.01-5.07l13.87-1.31c-1.08-6.32-6.04-8.58-10.66-9.28-6.97-1.06-9.95,5.29-10.4,9.99-.12,1.31-3.15,3.97-3.8,3.74-3.59.25-6.01-2.76-6.2-6.01-.14-2.34,4.22-5.24,6.64-5.52l-7.95-6.74-5.24,8.19-3.16,1.53c-1.01-5.41-10.96-5.29-15.87-4.46l-8.04-1.93c-4.51-5.58-12.6-3.73-18.74-5.5-143.08-41.12-298.6-41.78-443.59-4.19-1.04.27-3.9,2.36-4.04,2.63-.54-.03-1.56-.05-2.09,0-7.46.77-21.51,4.52-28.3,8.37-.38-.03-1.16-.05-1.53,0l-7.5,1.15c-5.02-1.23-12.2-2.17-13.75,2.6-1.64,5.04-9.78,6.24-15.54,6.53.19-3.46-4.72-10.05-8.44-9.9l-12.5.54-.35,19.53c-23.03,8.39-45.17,18.71-67.39,30.13-2.93,1.5-5.89,2.65-8.49,3.32.07-1.28-1.4-4.7-1.73-5.26-3.86,3.45-5.68,4.84-9.87,6.52-1.98.81-2.31,4.83-2.3,7.25h-1.89c.19-1.99-1.15-5.79-2.55-7.34-1.63-1.81-8.93-1.22-10.56.69-2.8,3.28-1.32,9.69,2.14,11.94-82.86,51.76-156.4,112.48-214.04,187.54-133.59,173.98-167.09,391.92-95.14,591.1H0v-550.09C108.29,306.77,316.48,131.67,576.58,52.2c98.34-30.04,199.8-46.09,303.78-46.64,39.5-.21,76.43.63,115.72,4.26,208.89,19.28,405.27,98.82,558.7,226.07,261.26,216.69,366.08,536.35,282.04,844.11ZM364.19,236.51l4.65,19.29,2.33-18.1,3.32-1.41c.58-.25,2.1-1.43,1.51-1.64l-6.34-2.28,8.82-6.6-14.63,1.3c-1.6-.91-5.6-2.01-7.46-1.35s-3.98,4.02-5.06,5.98l-1.97,3.57c-.46.83,1.56,2.78,1.91,3.69l1.88,16.11c6.57-.36.42-16.28,4.91-17.98,1.55-.59,4.18-.66,6.11-.58ZM1420.52,253.4l-1.3-29.04c-2.86,4.24-3.42,6.41-4.23,8.67-.59,1.66-6.73.8-8.94,1.49-7.26,2.28-8.54,15.02-.94,18.3,3.19,1.38,10.82.77,15.41.58ZM345.74,240.56c0-8.29-5.44-13.7-14.04-13.62-8.34.08-13.81,5.31-13.78,13.62s5.51,13.53,13.78,13.58c8.62.05,14.04-5.28,14.04-13.58ZM444.8,244.38c6.15-.94,10.75-2.4,12.56-5.71,1.35-2.46,0-8.95-2.89-10.02-5.44-2-11.29-1.73-15.9-.82.05,10.91-.36,17.75,1.78,27.15l4.45-10.6ZM514.67,254.01c12.07.43,18.12-.47,21.57-6.17,2.93-4.84,2.34-12.99-1.43-16.77-4.45-4.46-11.54-4.33-20.32-3.7l.18,26.64ZM393.47,239.51l2.08,15.63c5.53-7.46,3.11-14,.82-20.8l-17.3.17c-.09,6.84-.02,12.95,1.3,20.69,3.7-4.65,3.02-8.76,3.26-12.94.31-1.49,1.94-4.11,3.17-4.97s6.14.96,6.67,2.22ZM407.41,244.68l16.05-1.11c.03-4.7-3.21-9.41-8.53-9.92-4.89-.47-10.23,2.16-11.27,7.16-1.14,5.46,1.54,11.35,5.97,12.53,5.61,1.49,12.5.49,14.13-3.5l-10.49.98c-1.93.18-4.33-3.14-5.86-6.14ZM470.72,253.85l9.4-.34c0-4.77.1-12.1-1.49-17.2-1.19-3.82-13.31-2.94-13.81-.01,4.6.86,8.09,1.29,12.04,4.12-2.78.75-5.03,1.29-8.48,2.04-4.04.87-7.41,3.62-6.71,7.32.59,3.1,5.06,4.23,9.06,4.08ZM490.55,233.83h-4.37v20.19h4.37v-20.19ZM500.62,246.1c-.39-5.95,3.69-7.61,10.14-11.39l-14.41-.19.88,20.53c4.43-2.22,3.68-4.53,3.39-8.95ZM547.68,246.16c-.43-6.61,3.46-7.68,10.17-11.39l-14.52-.31.59,19.96c4.03-.86,4.05-3.73,3.76-8.26ZM580.89,243.89c0-5.47-4.98-9.91-11.13-9.91s-11.13,4.44-11.13,9.91,4.98,9.91,11.13,9.91,11.13-4.44,11.13-9.91ZM1222.17,244.6l15.43-.9c1.31-6.13-2.8-10.31-10.24-10.04-4.26.15-8.67,3.39-9.19,8.96-.42,4.52,2.54,9.72,6.08,10.72,5.26,1.49,12.21.52,13.56-3.56l-9.89,1.03c-1.95.2-4.06-2.86-5.76-6.21ZM1257.1,239.51l2.08,15.62c5.53-7.45,3.11-14,.82-20.8l-17.3.17c-.09,6.84-.02,12.95,1.3,20.69,6.9-3.34-1.01-12.62,6.43-17.91,1.22-.87,6.14.96,6.67,2.22ZM1294.09,252.67l-11.27-2.47,11.23-15.58c-6.66-.88-10.98-.95-17.61.24l10.77,2.93-11.15,15.34c6.72,1.15,11.85,1.25,18.03-.47ZM1306.99,251.12c-1.54-.08-4.54-2.3-4.74-3.94l-1.76-14.47c-5.93,6.73-2.87,13.17-.98,20.53l17.24.23-.47-20.59c-7.81-1.62,1.03,18.76-9.29,18.24ZM1348.17,248.49c.95-2.93-5.77-5.67-11.33-9.29.59-.52,4.76-1.67,10.84-3.42-.58-.4-4.9-1.58-8.23-2.1-2.14-.33-7.06,2.51-7.28,4.4-.9,7.91,12.01,5.24,12.34,12.32l-14.93-.21c4.38,5.02,15.82,6.83,18.59-1.7ZM1356.12,244.73l15.75-1.24c.75-4.34-3.19-9.49-8.27-9.86s-10.22,2.13-11.28,7.18c-1.15,5.45,1.54,11.35,5.97,12.53,5.6,1.49,12.5.49,14.13-3.5l-10.44.97c-1.93.18-4.42-3.17-5.86-6.08ZM1394.89,254.7c1.23-7.63.92-13.16-.72-20.26l-18.17-.22,1.05,21.01c5.51-4.69,3.25-7.51,3.7-13.6.16-2.17,4.62-5.28,7.04-4.68,7.73,1.9-.51,17.98,7.1,17.75ZM1429.77,244.68l16.05-1.11c.03-4.7-3.21-9.41-8.54-9.92-4.89-.47-10.23,2.16-11.27,7.16-1.14,5.46,1.54,11.35,5.97,12.53,5.61,1.49,12.49.49,14.13-3.49l-10.51.98c-1.92.18-4.3-3.13-5.84-6.14ZM1468.59,254.7c1.23-7.63.92-13.16-.72-20.26l-18.17-.22,1.05,21.01c5.51-4.69,3.25-7.51,3.7-13.6.16-2.16,4.63-5.28,7.04-4.68,7.73,1.91-.51,17.97,7.1,17.75ZM1364.41,282.62h-3.78v16.82h3.78v-16.82ZM323.2,297.43c.12-3.97-.82-8.79-3.02-9.33s-8.58-1.02-9.31.89l-3.51,9.16c-1.61-.48-5.1-5.51-4.15-7.3l3.59-6.74c-3.12,1.79-6.67,4.39-9.38,6.55l-2.69-7.26c-1.37,7.38-1.32,12.8.13,18.09l2.26-4.42c.35-.68,1.83-2.43,2.36-1.85l2.86,3.09c.97,1.05,2.74,2.78,3.62,2.23l3.02-1.89,7.52,2.95c1.75.69,6.66-2.28,6.71-4.16ZM405.74,297.36c.7,1.33,2.01,3.81,3.58,3.7l6.72-.46-6.69-5.07,9.8-2.42c-.44-2.39-3.7-5.68-6.26-5.78-4-.16-7.25,2.6-7.24,5.71l-9.69.24c1.43,1.9,3.69,3.71,2.69,4.05s-2.04.85-2.67.56l-3.62-1.69c-2.25-1.05-2.45-7.54.04-8.04l9.83-1.97c-3.26-3.56-12.31-2.17-14.46,2.42-1.82,3.88-.29,10.45,3.35,11.74,5.23,1.85,12.3,1.03,14.63-3ZM336.67,299.66c2.89-1.04,3.23-7.95,1.3-10.07-1.65-1.81-6.92-1.97-12.77-2.1l.12,19.58c4.6-3.92,6.53-5.67,11.35-7.41ZM348.34,301.8c1.88-2.35,9.19-4.68,7.04-10.27-1.47-3.82-5.18-4.24-13.12-3.93l-.24,18.66,3.46-.88,2.86-3.58ZM367.34,296.16l9.24-2.02c1.35-.3,1.63-3.79.74-4.8s-4.28-1.52-5.67-1.12c-3.99,1.16-7.4,3.06-7.27,5.07.15,2.34,1.14,7.42,3.38,7.71,2.37.3,7.34-.43,10.04-1.2l-10.46-3.64ZM444,301.03l.03-13.61-11.5,1.32,8.2,3.01-8.53,2.52c-1.39.41-1.24,5.59.18,5.91,2.59.58,8.49.93,11.61.85ZM459.95,296.17l9.16-2.01c1.36-.3,1.69-3.81.82-4.82s-4.16-1.48-5.73-1.07c-3.95,1.01-7.44,2.94-7.26,4.96.24,2.66,1.14,7.41,3.38,7.76s7.42-.39,10.06-1.19l-10.44-3.63ZM1380.21,301.58c4.66,0,11.47-1.53,11.07-4.24-.45-3.09-.16-7.58-2.23-8.62s-7.63-.85-10.25-.32l6.63,3.16c-3.86,1.61-6.28,2.6-7.96,3.5-1.35.72.97,6.52,2.74,6.52ZM1452.01,291.35c-.63-.67,3.42-1.46,4.35-1.72.62-.18-.74-1.48-1.38-1.58l-3.9-.56c-1.58-.23-5.98,3.05-4.91,4.12l4.4,4.42c4.68,1.18,1.74,2.22-3.8,3.6,1.04.33,4.24,1.23,6.09,1.71,1.55.39,5.39-3.41,4.35-4.51l-5.21-5.47ZM1462.06,296.18l10.18-2.71c-1.63-5.54-4.31-6.65-9.04-6.01-3.37.46-4.87,4.58-4.2,8.91.3,1.97,4.41,5.64,6.48,5l6.88-2.12-10.29-3.08ZM1492.95,301.9c1.57-4.71,1.45-8.85.64-13.48-3.11-.22-9.23-.1-11.77.24-.1,5.19.19,10.29,1.53,13.01,2.78-5.17-.55-10.46,6.31-12.13l3.29,12.36Z"/>
  <path d="M1118.6,228.48l.24,25.46c6.25.34,14.74.43,19.16-3.1,5.95-4.75,5.04-12.83,3.27-18.51l8.04,1.93c-.04.21-.4,3.15.43,3.17l5.11.08,3.53.06c1.11.02,2.72,3.6,1.63,3.75l-5.98.84c-2.57.36-6.98,2.64-7.87,4.63s1.94,7.08,4.42,7.14c4.14.09,9.42-.48,13.71-.74l.9-14.47,3.16-1.53c5.01,5.31-.81,15.24,8.03,17,3.43.68,7.66-1.62,6.34-5.08l13.51,5.11c24.27,9.17,48.91,19.23,70.05,32.99-1.34,2.74-2.37,5.78-3.01,8.75l-5.74-.89c-1.71-.27,1.35-4,2.82-6.89l-6.55,2.82-2.81-9.41c-1.23,7.96-1.29,12.07-.99,19.63l4.51-5.27,4.18,4.66c.89.99,3.36-2.17,4.09-3.22l4.17,2.76c1.28.85,5.26.42,6.88,0l-3.74-1.46c-1.11-.43-2.75-3.28-2.13-3.33l9.24-2.64c94.45,46.9,176.46,117.21,237.95,196.5,134.76,173.8,167.59,391.82,95.54,590.79h-229.91c108.58-202.87,48.32-444.3-148.2-585.26-196.6-141.02-479.38-141.34-676.38-.76-197.28,140.78-258.11,382.79-149.23,586.02h-229.91C43.2,798.97,233.41,450.69,489.17,301.49c.9-.53,2.66-1.41,3.72-1.95l1.89-.04c3.84,1.17,8.15,1.62,13.39,2.02l.56-9.09h2.08c-.13,1.88,1.17,5.62,2.43,7.13s6.65,1.25,8.35.53l-5.25-2.07c-1.03-.41-.06-3.37.9-3.53l6.98-1.16c1.49-.25-1.5-3.99-1.23-5.24.58-1.81,3.43-5.23,5.98-6.38l49.37-22.21c1.57-.71,6.41-.55,6.95-.32l.67,2.56c.24.9,3.4.2,3.53-.67l1.03-6.93c4.68-.33,10.17-.63,11.83-2.32s3.71-5.64,3.84-7.87c5.77-.29,13.91-1.49,15.54-6.53,2.91-.32,8.5.01,11.01,1.1.72.31.13,3.81-.67,3.79l-5.29-.09c-2.43-.04-7.12,2.56-7.89,4.59s1.9,7.34,4.45,7.21l13.98-.76c.11-5.91-.19-12.8-1.83-18.43l7.5-1.15,1.25,17.87c4.18,2.85,13.76,2.99,18.78,1.67l-1.29-20.59c-4.86,4.99-3.06,9.16-3.62,14.86l-3.3,3.3c-1.03,1.03-6.71-.9-6.7-2.28l.04-14.06,15.76-4.16c1.5-.4,4.71-.23,5.58.24l-3.27,5.6c9.18,6.32-.93,16.52,7.21,18.87l.97-13.08c.15-2.08,3.1-5.2,5.04-6.58l-5.17-3.81,7.54-5.89c142.53-37.55,294.68-35.44,436.8,2.88ZM760.99,253.4l-1.31-29.04c-2.79,4.15-3.5,6.62-4.21,8.65-.57,1.63-6.74.83-8.95,1.52-7.26,2.27-8.54,15.02-.94,18.29,3.19,1.38,10.82.77,15.41.59ZM878.38,239.53l7.2,5.18c1.03.74-.78,5.26-2.01,5.71-3.73,1.35-12.51-1.14-13.5-5.56-.76-3.39.06-10.63,3.63-12.78,2.99-1.8,9.28-1.4,14.98-1.53-3.78-6.23-15.13-3.95-19.78.54s-4.67,13.27-1.48,17.64c4.92,6.74,13.41,5.93,21.97,4.08l.34-13.77-11.35.5ZM970.63,252.79c-5.55-3.14-7.21-4.71-7.44-9.76-.17-3.84,2.85-6.74,6.75-7.28l-8.01-6.64-4.14,6.26,2,11.84c.37,2.2,1.43,6.23,3.48,6.46,1.76.19,6.28-.48,7.36-.88ZM701.42,253.66l8.69-.23c.14-4.82.32-12.13-1.27-16.68-1.5-4.29-13.12-4.74-14.51.72l8.78-.46c1.32-.07,3.19,4.25,1.95,4.44l-6.13.96c-2.23.35-5.77,1.63-6.69,3.11s-.68,5.6.6,6.85,5.61,1.36,8.56,1.28ZM733.75,254.95c3.98-6.96,2.64-14.37-.43-20.72l-16.54.28c-.47,6-.44,12.67.97,20.76,4.08-4.87,2.96-7.6,3.24-13.75.1-2.15,4.7-5.15,7.2-4.53,6.86,1.69.32,14.78,5.55,17.96ZM772.09,244.19l12.78-.57c1.15-4.9-2.78-9.59-7.36-9.95-6.57-.51-11.33,2.55-11.87,8.83-.28,3.19,1.4,9.28,4.36,10.1s8.21,1.19,13.36,1.57c.24-.48.13-2.71-.86-2.88l-4.07-.68-6.82-1.14c-1.21-.2-.68-5.22.47-5.27ZM795.72,239.48l9.01-4.74-14.34-.4c-.16,7.05-1.89,13.67,2.48,20.7l2.85-15.56ZM811.08,244.39l14.7-.68c.48-5.86-3.57-10.25-10.37-10.11-4.43.09-9.12,3.54-9.55,8.98-.31,3.95,2.1,9.13,5.11,10.32,4.16,1.65,11.6,1.3,13.28-1.37-6.89-1.31-14.65-.18-13.17-7.14ZM848.75,254.7c1.23-7.63.92-13.16-.72-20.26l-18.17-.22,1.05,21.01c5.51-4.69,3.25-7.52,3.71-13.6.17-2.19,4.6-5.28,7.04-4.69,7.71,1.88-.51,17.99,7.09,17.75ZM899.85,244.42l14.75-.72c.48-5.84-3.57-10.24-10.37-10.1-4.42.09-9.13,3.55-9.55,8.97-.31,3.97,2.1,9.14,5.12,10.33,4.14,1.64,11.55,1.3,13.28-1.38-6.93-1.24-14.57-.27-13.22-7.11ZM924.86,239.29l8.52-4.32-14.55-.89c.02,8.05-1.02,13.37,2.54,21.23l3.49-16.02ZM938.99,254.06l13.77-.88c.24-4.57.7-12.17-1.38-16.85-1.83-4.13-13-2.89-14.07-.04l11.72,2.7c.93,5.54-11.79.61-14.52,7.76-.92,2.42,2.07,7.45,4.47,7.3ZM977.65,244.93l15.19-1.74c.36-5.91-3.97-9.56-9.34-9.57-6.65-.01-10.61,3.85-10.26,10.58.14,2.71,1.81,8.04,4.6,8.58,3.46.66,7.62.88,13.69,1.25l-1.2-2.75c-.77-1.77-12.42,2.13-12.67-6.36ZM1011.85,239.69l2.38,15.62c4.56-7.25,2.72-14.36.36-20.96l-17.15.05c-.15,7.19-.46,13.19,2.31,21.17l2.56-14.38c.31-1.6,2.74-3.75,4.15-4.38,1.06-.48,5.2,1.66,5.39,2.88ZM1058.28,246.67c-.11,1.88-4.57,4.83-6.52,4.33-7.85-2.02-1.1-13.92-5.89-18.28-4.36,7.5-3.23,13.98.04,20.66l17.16.52-1.37-21.27c-4.26,4.7-3.1,8.37-3.42,14.04ZM1093.62,236.89c1.53.5,3.17,3.46,3.31,4.97.28,5.25.38,8.72,2.26,13.29,3.58-6.53,2.85-12.97.84-18.83-.97-2.82-8.9-1.55-12.01-1.61l-19.24-.41c-.06,7.97-.52,13.24,1.97,21,2.26-5.11,2.67-11.39,3.15-15.06.18-1.41,4.36-4.29,5.44-3.3l3.71,3.42c-.11,5.08-.42,10.19,2.48,14.32,4.01-.69-1.32-20.86,8.08-17.78ZM741.38,289.78l.93,6.01c.19,1.23,1.13,4.49,2.53,4.52l7.17.15-7.73-4.93,12.89-2.05c-1.09-1.2-3.8-4.09-5.13-5.27-1.6-1.41-7.09.03-10.66,1.56l-.79-6.88-15.9,2.57.8,16.3c2.46-2.43,2.87-4.37,3-7.03l.23-4.72c.04-.88,2.89-1,3.86-.82,4.61.85-1.47,10.41,3.75,12.63l5.04-12.06ZM822.63,301.2c1.71-5.31,2-11.49-.71-12.44-2.1-.73-5.5-1.61-6.42-2.62l-3.92-4.33.31,19.67,6.24-13.4,4.5,13.11ZM620.28,300.33l-2.95-6.78c-.68-1.56,3.13-4.46,4.07-5.24l-5.03-2.78c-1.5.68-4.86,2.37-6.2,1.8l-5.1-2.15-.49,10.72c-.06,1.32,1.49,5.67,2.77,5.23l3.65-1.24c-2.97-2.85-5.38-8.76-.07-10.8,2.02-.78,3.7,4.3,4.03,6.75l.62,4.64c.13.98,4.88.1,4.69-.15ZM878.8,301.26l.51-13.75c.12-3.14-9.77-4.39-12.96-2.38l.92,16.86,4.67-7.59,6.85,6.86ZM564.23,295.83l10.32-2.99c-1.99-2.81-4.71-5.81-6.82-5.53-6.37.85-11.64,8.35-11.75,4.91l-.11-3.61c-1.24,1.23-3.72,4.53-3.71,6.22s2.79,4.61,3.87,5.16c-.57-12.36,5.91,5.55,14.52.47l-6.32-4.65ZM632.65,295.98l11.77-3.18c-1.29-4.2-6.87-5.94-10.07-5.14-2.51.63-4.53,5.04-3.87,7.87.49,2.12,2.31,5.36,4.05,5.22l6.08-.47-7.96-4.29ZM672.09,296.18l10.17-2.68c-1.13-5.38-4.79-6.82-8.66-5.96-2.24.5-4.36,3.7-4.28,6.81.07,2.72,2.29,7.02,4.5,6.82,3.03-.28,7.55-1.32,8.55-1.85l-10.28-3.14ZM722.22,294.5c0-3.81-3.47-6.9-7.75-6.9s-7.75,3.09-7.75,6.9,3.47,6.9,7.75,6.9,7.75-3.09,7.75-6.9ZM769.55,302.41c.63-4.87.62-8.62.27-13.77l-11.37-.48c-.87,5.13-.74,11.03,1.43,13.62,2.08-5.34-.45-10.59,5.87-12.23l3.8,12.86ZM829.33,295.62l12.74-2.05c-1.41-3.32-6.26-6.91-11.29-5.86-3.16.66-4.54,5.87-3.26,9.91.85,2.67,6.73,3.9,9.42,2.69l-7.62-4.69ZM854.15,301.86c1.74-4.49,1.61-8.89.57-13.37l-11.32-.33c-.72,5.13-.6,10.98,1.47,13.62,2.32-5.35-.75-10.64,6.07-12.22l3.21,12.29ZM892.9,301.06c3.6-.06,3.31-8.24.83-11.38-1.75-2.22-8.27-2.36-11.47-1.28l8.57,2.88-7.63,2.82c-1.54.57-1.44,4.69-.82,6.07s5.4.97,10.53.88ZM926,300.73l.7-3.21c.28-1.28-.49-5.06.79-5.43l7.86-2.25-21.01-2.66,1.47,14.52,4.7-12.63c4.75-2.96,3.28,21.71,5.49,11.66ZM964.79,288.22l-5.42,12.16-5-13.01c-1.2,3.3-1.44,9.05-.18,12.63,1.92.97,8.33,1.21,11.59,1.08l-.98-12.87ZM981.26,297.07l2.48-6.09c.41-1.01,2.88.23,6.98,1.22-.04,1.16,0-.24.13-3.74l-20.71-.63.68,13.74,4.94-12.04c1.58,1.35,3.3,4.95,4.64,8.37.27,3.94.68,3.25.87-.82ZM1043.06,300.24l.33-4.52c.16-2.18-.62-7.5-2.82-7.98s-8.27.78-8.34,1.75l7.52,2.2-8.53,2.51c-1.4.41-1.37,4.74-.15,5.48,4.16,2.53,11.91,1.77,12,.55ZM1059.09,301.73l-.43-13.32c-2.79-.21-8.99-.09-11.64.27.24,5.27.57,9.31,1.28,13.75l4.03-12.72c9.51,1.2,1.31,9.74,6.77,12.01ZM1082.25,296.08l10.11-2.56c-1.25-5.45-4.53-6.69-8.76-5.97-2.25.38-4.38,3.7-4.33,6.86.05,2.65,2.5,6.85,4.67,6.77,2.75-.1,7.37-1.28,8.7-2.05l-10.39-3.05ZM1107.69,296.45l11.04-2.92-1.9-5.13c-.31-.83-2.9-.27-4.99.07-4.13.67-7.07,3.22-6.83,6.74.16,2.32,2.72,6.52,5.11,6.21,2.94-.38,7.32-1.49,9.03-2.25l-11.46-2.71ZM1166.28,296.48l11.27-3.05c-1.39-7.09-7.61-5.32-11.59-3.73-3.01,1.21-2.86,9.64.12,10.79,3.4,1.31,10.19.32,11.44-1.51l-11.24-2.5ZM1188.85,297.7h-3.23c-.91,0-2.92,1.39-2.11,1.75s4.23,1.7,5.14,1.67l11.71-.42-7.81-2.68,10.22-9.35-14.57-.95,6.36,3.13-5.72,6.85ZM1224.88,296.48l11.26-3.09c-1.3-3-3.23-5.95-5.24-5.54-3.1.63-8.81,3.03-8.75,5.41.08,3.47,2.08,8.41,4.85,8.11,3.78-.42,7.46-1.35,9.32-2.22l-11.45-2.66Z"/>
  <path d="M1376.72,1080h-257.98c.23-1.94,1.73-5.19,3.34-6.73l17.57-16.83c1.49-1.43,3.32-5.01,3.94-6.74.39-.37,1.21-1.12,1.6-1.52,78.12-81.9,105.19-304.56-26.96-390.84-148.28-96.81-299.01-96.98-447.72-.86-133.2,86.1-106.35,309.55-27.98,391.7.38.4,1.21,1.15,1.6,1.53.62,1.74,2.46,5.38,3.96,6.82l17.53,16.76c1.62,1.55,3.12,4.78,3.35,6.73h-257.98c-101.79-189.35-57.32-414.22,116.39-559.49,124.15-103.82,297.79-148.09,465.67-120.51,158.34,26.01,294.13,116.53,368.66,235.52,88.59,141.42,89.87,303.09,15,444.48Z"/>
  <path d="M1572.28,0c140.95,89.52,259.79,201.79,347.72,334.77v745.23h-79.4c83.88-307.04-20.86-628.3-281.26-844.79C1392.54,96.54,1175.1,13.2,947.01,3.12l-5.79-.26c-.73-.03-.11-2.75-.12-2.87h631.18Z"/>
  <path d="M846.61,0c0,.13.61,2.8-.14,2.84l-5.81.26c-228.38,10.36-446.48,93.63-613.28,232.99C133.54,314.5,57.5,407.75,5.24,512.26c-1.18,2.37-3.53,4.01-5.24,4.18V171.59C64.78,107.31,136.66,50.32,215.43,0h631.18Z"/>
  <path d="M1904.88,0c4.3,5.01,9.53,9.73,15.12,13.58v309.41c-1.75.02-4.61-1.31-6.12-3.53-83.96-122.77-194.82-228.93-325.71-312.97-3.48-2.23-5.41-4.03-6.43-6.49h323.15Z"/>
  <path d="M205.98,0c-.97,2.39-2.83,4.37-6.41,6.61C130.26,50.02,59.44,108.57,7.43,159.76c-2.68,2.63-6.62,3.51-7.43,3.42V0h205.98Z"/>
  <path class="st7" d="M941.1,0c.01.11-.61,2.83.12,2.87l5.79.26c228.09,10.08,445.53,93.42,612.33,232.09,260.41,216.49,365.15,537.75,281.26,844.79h-3.78c84.04-307.76-20.78-627.42-282.04-844.11C1401.36,108.64,1204.98,29.09,996.09,9.82c-39.29-3.63-76.22-4.47-115.72-4.26-103.98.55-205.44,16.6-303.78,46.64C316.48,131.67,108.29,306.77,0,529.91v-13.46c1.71-.17,4.06-1.82,5.24-4.18,52.26-104.52,128.3-197.77,222.14-276.17C394.19,96.73,612.28,13.46,840.67,3.1l5.81-.26c.74-.03.13-2.71.14-2.84h94.49Z"/>
  <polygon points="1131.35 1058.44 1110.27 1080 677.43 1080 656.13 1058.37 1131.35 1058.44"/>
  <path class="st1" d="M1380.76,1080h-4.05c74.88-141.39,73.59-303.05-15-444.48-74.53-118.99-210.32-209.52-368.66-235.52-167.88-27.57-341.52,16.69-465.67,120.51-173.71,145.27-218.18,370.14-116.39,559.49h-4.05c-108.88-203.23-48.05-445.24,149.23-586.02,197-140.58,479.78-140.26,676.38.76,196.52,140.96,256.78,382.38,148.2,585.26Z"/>
  <path class="st13" d="M1302.1,299.71l5.44,1.79c.57,1.95,2.33,4.28,5.12,5.93,284.92,169,406.48,482.44,301.98,772.56h-3.96c72.05-198.97,39.23-416.98-95.54-590.79-61.49-79.3-143.5-149.61-237.95-196.5l-1.39-4.4,11.33,1.17c2.77,5.74,8.43,9.22,14.96,10.23Z"/>
  <path class="st13" d="M489.17,301.49C233.41,450.69,43.2,798.97,177.04,1080h-3.96c-71.95-199.18-38.46-417.12,95.14-591.1,57.64-75.06,131.18-135.77,214.04-187.54l6.91.12Z"/>
  <path class="st17" d="M1581.73,0c1.02,2.46,2.96,4.26,6.43,6.49,130.9,84.04,241.75,190.2,325.71,312.97,1.51,2.21,4.37,3.55,6.12,3.53v11.78C1832.07,201.79,1713.24,89.52,1572.28,0h9.45Z"/>
  <path class="st17" d="M215.43,0C136.66,50.32,64.78,107.31,0,171.59v-8.41c.81.09,4.75-.79,7.43-3.42C59.44,108.57,130.26,50.02,199.57,6.61c3.58-2.24,5.44-4.22,6.41-6.61h9.45Z"/>
  <path class="st5" d="M648.19,1049.72c.7,0,1.61,1.12,1.89,1.68,1.04,2.09,3.94,4.83,6.05,6.97l21.3,21.63h-8.45c-.23-1.95-1.73-5.18-3.35-6.73l-17.53-16.76c-1.5-1.44-3.34-5.08-3.96-6.82l4.06.02Z"/>
  <path class="st5" d="M1143.59,1049.7c-.62,1.72-2.45,5.31-3.94,6.74l-17.57,16.83c-1.61,1.54-3.11,4.79-3.34,6.73h-8.47l21.08-21.56c2.25-2.3,5.42-4.36,6.28-7.03l1.89-1.68,4.07-.02Z"/>
  <path class="st10" d="M1904.88,0h15.12v13.58c-5.59-3.84-10.82-8.57-15.12-13.58Z"/>
  <path class="st13" d="M1122.52,226.84l-3.92,1.65c-142.12-38.33-294.27-40.43-436.8-2.88l-6.9-.32c.13-.28,3-2.36,4.04-2.63,144.99-37.58,300.5-36.93,443.59,4.19Z"/>
  <path class="st19" d="M345.74,240.56c0,8.3-5.43,13.63-14.04,13.58-8.27-.05-13.76-5.35-13.78-13.58s5.44-13.54,13.78-13.62c8.6-.08,14.04,5.33,14.04,13.62ZM341.04,239.68c-.29-6.92-4.9-10.16-11.44-9.18-3.9.58-7.1,5.39-7.13,9.93-.04,6.01,3.67,10.28,9.12,10.37,6.3.12,9.74-4.27,9.45-11.13Z"/>
  <path class="st24" d="M1420.52,253.4c-4.59.18-12.22.79-15.41-.58-7.6-3.28-6.32-16.02.94-18.3,2.21-.69,8.35.17,8.94-1.49.8-2.26,1.37-4.43,4.23-8.67l1.3,29.04ZM1411.4,250.66c7.64-2.47,6.26-12.23,0-13.49-4.11-.83-7.18,4.14-7.09,7.39.07,2.57,4.06,7.09,7.09,6.11Z"/>
  <path class="st8" d="M1122.52,226.84c6.14,1.77,14.24-.08,18.74,5.5,1.77,5.69,2.68,13.76-3.27,18.51-4.42,3.52-12.91,3.43-19.16,3.1l-.24-25.46,3.92-1.65ZM1122.87,250.55c5.28.45,11.28-.34,13.41-3.68s2.03-9.28.05-12.61c-1.67-2.82-9.03-4.29-13.26-3.56l-.2,19.84Z"/>
  <path class="st13" d="M1203.77,254.11c21.92,8.59,43.86,18.73,65.46,29.38,1.17.58,3.66,3.23,4.05,3.84l-7.01-.12c-21.14-13.76-45.78-23.81-70.05-32.99l7.55-.12Z"/>
  <path class="st1" d="M584.88,254.11c-.02,1.27.27,3.69.4,5.06-.54-.24-5.38-.39-6.95.32l-49.37,22.21c-2.55,1.15-5.4,4.57-5.98,6.38l-7.65-.74c-2.02-.2-4.39,3.27-4.52,5.08h-2.08l.28-4.86c2.59-.67,5.56-1.82,8.49-3.32,22.21-11.42,44.36-21.74,67.39-30.13Z"/>
  <path class="st8" d="M514.67,254.01l-.18-26.64c8.78-.63,15.87-.76,20.32,3.7,3.77,3.78,4.36,11.94,1.43,16.77-3.45,5.69-9.49,6.6-21.57,6.17ZM528.91,231.28c-2.63-.33-7.42-.58-10.51-.65l.27,20.22c4.73-.39,9.28-.94,11.37-1.89,5.18-2.35,3.86-17.06-1.12-17.69Z"/>
  <path class="st19" d="M1165.18,238.73l-.9,14.47c-4.29.25-9.57.82-13.71.74-2.48-.05-5.32-5.1-4.42-7.14s5.3-4.27,7.87-4.63l5.98-.84c1.1-.15-.52-3.74-1.63-3.75l-3.53-.06-5.11-.08c-.83-.01-.46-2.95-.43-3.17,4.91-.82,14.86-.95,15.87,4.46Z"/>
  <path class="st19" d="M635.47,234.81c1.64,5.64,1.94,12.52,1.83,18.43l-13.98.76c-2.55.14-5.24-5.13-4.45-7.21s5.46-4.63,7.89-4.59l5.29.09c.8.01,1.4-3.48.67-3.79-2.51-1.09-8.1-1.42-11.01-1.1,1.55-4.76,8.73-3.82,13.75-2.6Z"/>
  <path class="st21" d="M1203.77,254.11l-7.55.12-13.51-5.11-1.61-1.83c.65.22,3.68-2.44,3.8-3.74.44-4.7,3.42-11.05,10.4-9.99,4.62.7,9.58,2.96,10.66,9.28l-13.87,1.31c-1.62.15-2.55,4.77-1.01,5.07l5.61,1.08c2.66.51,5.77,2.04,7.07,3.81Z"/>
  <path class="st21" d="M1429.77,244.68c1.54,3.01,3.92,6.32,5.84,6.14l10.51-.98c-1.64,3.98-8.53,4.99-14.13,3.49-4.44-1.18-7.12-7.07-5.97-12.53,1.05-5,6.39-7.62,11.27-7.16,5.33.51,8.57,5.21,8.54,9.92l-16.05,1.11Z"/>
  <path class="st21" d="M1356.12,244.73c1.45,2.91,3.93,6.26,5.86,6.08l10.44-.97c-1.63,3.98-8.53,4.99-14.13,3.5-4.43-1.18-7.12-7.07-5.97-12.53,1.07-5.05,6.36-7.54,11.28-7.18s9.02,5.53,8.27,9.86l-15.75,1.24Z"/>
  <path class="st21" d="M407.41,244.68c1.53,3,3.93,6.32,5.86,6.14l10.49-.98c-1.63,3.98-8.53,4.99-14.13,3.5-4.44-1.18-7.12-7.07-5.97-12.53,1.05-5,6.39-7.62,11.27-7.16,5.33.51,8.57,5.22,8.53,9.92l-16.05,1.11Z"/>
  <path class="st19" d="M470.72,253.85c-4,.15-8.48-.98-9.06-4.08-.7-3.7,2.67-6.44,6.71-7.32,3.45-.74,5.71-1.29,8.48-2.04-3.94-2.83-7.44-3.26-12.04-4.12.51-2.93,12.62-3.81,13.81.01,1.59,5.1,1.48,12.43,1.49,17.2l-9.4.34Z"/>
  <path class="st21" d="M1222.17,244.6c1.7,3.35,3.81,6.41,5.76,6.21l9.89-1.03c-1.36,4.08-8.3,5.05-13.56,3.56-3.54-1.01-6.5-6.2-6.08-10.72.51-5.57,4.93-8.81,9.19-8.96,7.44-.27,11.54,3.91,10.24,10.04l-15.43.9Z"/>
  <path class="st8" d="M606.18,243.94c-.13,2.24-2.18,6.18-3.84,7.87s-7.15,2-11.83,2.32l-1.03,6.93c-.13.87-3.29,1.58-3.53.67l-.67-2.56c-.13-1.38-.42-3.8-.4-5.06l.35-19.53,12.5-.54c3.72-.16,8.63,6.44,8.44,9.9ZM594.58,250.34c4.46.43,6.65-4.66,6.52-7.38-.14-3.09-3.44-6.68-7.71-5.64-5.35,1.3-6.54,12.28,1.19,13.02Z"/>
  <path class="st8" d="M393.47,239.51c-.53-1.26-5.45-3.09-6.67-2.22s-2.86,3.48-3.17,4.97c-.24,4.18.44,8.29-3.26,12.94-1.32-7.75-1.39-13.86-1.3-20.69l17.3-.17c2.29,6.8,4.71,13.35-.82,20.8l-2.08-15.63Z"/>
  <path class="st8" d="M1257.1,239.51c-.53-1.26-5.45-3.09-6.67-2.22-7.43,5.29.47,14.57-6.43,17.91-1.32-7.74-1.39-13.86-1.3-20.69l17.3-.17c2.29,6.8,4.71,13.35-.82,20.8l-2.08-15.62Z"/>
  <path class="st24" d="M1468.59,254.7c-7.61.22.63-15.84-7.1-17.75-2.41-.6-6.88,2.52-7.04,4.68-.45,6.09,1.81,8.91-3.7,13.6l-1.05-21.01,18.17.22c1.65,7.1,1.95,12.63.72,20.26Z"/>
  <path class="st8" d="M444.8,244.38l-4.45,10.6c-2.14-9.4-1.73-16.24-1.78-27.15,4.61-.91,10.46-1.18,15.9.82,2.89,1.07,4.24,7.56,2.89,10.02-1.81,3.3-6.41,4.77-12.56,5.71ZM443.2,238.98c0,2.11,6.75,1.8,8.45.5s2.46-6.13.7-7.35c-1.47-1.02-4.5-1.39-9.14-2.11v8.96Z"/>
  <path class="st24" d="M1394.89,254.7c-7.61.22.63-15.85-7.1-17.75-2.42-.6-6.88,2.51-7.04,4.68-.45,6.09,1.81,8.91-3.7,13.6l-1.05-21.01,18.17.22c1.65,7.1,1.95,12.63.72,20.26Z"/>
  <path class="st24" d="M648.13,234.42l-.04,14.06c0,1.38,5.67,3.31,6.7,2.28l3.3-3.3c.57-5.7-1.24-9.87,3.62-14.86l1.29,20.59c-5.03,1.32-14.61,1.18-18.78-1.67l-1.25-17.87c.37-.06,1.14-.04,1.53,0l3.63.77Z"/>
  <path class="st8" d="M1306.99,251.12c10.32.52,1.48-19.86,9.29-18.24l.47,20.59-17.24-.23c-1.89-7.36-4.95-13.81.98-20.53l1.76,14.47c.2,1.64,3.19,3.86,4.74,3.94Z"/>
  <path class="st8" d="M580.89,243.89c0,5.47-4.98,9.91-11.13,9.91s-11.13-4.44-11.13-9.91,4.98-9.91,11.13-9.91,11.13,4.44,11.13,9.91ZM569.87,250.77c4.79-.07,6.36-4.98,6.17-7.65-.21-2.98-2.5-6.36-7.71-6-2.7.19-4.95,5.16-4.93,7.58.02,2.1,2.78,6.12,6.47,6.07Z"/>
  <path class="st24" d="M363.85,227.07c.08.39.22.9.22,1.19-1.57-.12-6.78,1.02-7.4,2.6-.86,2.19,5.28,4.33,7.5,3.77v1.87c-1.92-.08-4.55,0-6.1.58-4.49,1.7,1.66,17.62-4.91,17.98l-1.88-16.11c-.35-.91-2.37-2.86-1.91-3.69l1.97-3.57c1.08-1.96,3.21-5.32,5.06-5.98s5.85.44,7.46,1.35Z"/>
  <path class="st4" d="M336.67,299.66c-4.82,1.74-6.75,3.49-11.35,7.41l-.12-19.58c5.85.13,11.12.3,12.77,2.1,1.93,2.12,1.59,9.03-1.3,10.07Z"/>
  <path class="st8" d="M681.8,225.6l-7.54,5.89,5.17,3.81c-1.94,1.38-4.89,4.51-5.04,6.58l-.97,13.08c-8.14-2.35,1.96-12.55-7.21-18.87l3.27-5.6,3.33-5.21c.53-.06,1.56-.03,2.09,0l6.9.32Z"/>
  <path class="st20" d="M405.63,293.04l.1,4.32c-2.34,4.03-9.4,4.85-14.63,3-3.64-1.29-5.17-7.87-3.35-11.74,2.15-4.59,11.2-5.99,14.46-2.42l-9.83,1.97c-2.49.5-2.29,6.98-.04,8.04l3.62,1.69c.63.29,1.64-.21,2.67-.56s-1.26-2.15-2.69-4.05l9.69-.24Z"/>
  <path class="st19" d="M1348.17,248.49c-2.78,8.53-14.21,6.72-18.59,1.7l14.93.21c-.33-7.07-13.23-4.4-12.34-12.32.21-1.89,5.14-4.74,7.28-4.4,3.33.52,7.65,1.7,8.23,2.1-6.09,1.74-10.25,2.9-10.84,3.42,5.57,3.61,12.29,6.36,11.33,9.29Z"/>
  <path class="st21" d="M1294.09,252.67c-6.19,1.72-11.31,1.62-18.03.47l11.15-15.34-10.77-2.93c6.63-1.2,10.94-1.13,17.61-.24l-11.23,15.58,11.27,2.47Z"/>
  <path class="st19" d="M1181.1,247.29l1.61,1.83c1.32,3.45-2.91,5.76-6.34,5.08-8.84-1.76-3.02-11.69-8.03-17l5.24-8.19,7.95,6.74c-2.42.29-6.78,3.19-6.64,5.52.19,3.25,2.61,6.27,6.2,6.01Z"/>
  <path class="st6" d="M509.01,287.56l-.28,4.86-.56,9.09c-5.24-.4-9.55-.85-13.39-2.02l.33-3.42c-.01-2.41.31-6.44,2.3-7.25,4.18-1.68,6.01-3.07,9.87-6.52.33.56,1.8,3.97,1.73,5.26Z"/>
  <path class="st6" d="M348.34,301.8l-2.86,3.58-3.46.88.24-18.66c7.94-.31,11.65.11,13.12,3.93,2.15,5.59-5.16,7.92-7.04,10.27Z"/>
  <path class="st4" d="M323.2,297.43c-.06,1.88-4.96,4.85-6.71,4.16l-7.52-2.95-3.02,1.89c-.88.55-2.65-1.18-3.62-2.23l-2.86-3.09c-.53-.58-2.01,1.17-2.36,1.85l-2.26,4.42c-1.45-5.29-1.5-10.71-.13-18.09l2.69,7.26c2.71-2.15,6.26-4.75,9.38-6.55l-3.59,6.74c-.95,1.79,2.55,6.82,4.15,7.3l3.51-9.16c.73-1.92,7.11-1.43,9.31-.89s3.14,5.37,3.02,9.33Z"/>
  <path class="st20" d="M493.23,296.07l-.34,3.47c-1.06.54-2.82,1.43-3.72,1.95l-6.91-.12c-3.45-2.26-4.94-8.66-2.14-11.94,1.63-1.91,8.93-2.51,10.56-.69,1.4,1.56,2.74,5.36,2.55,7.34Z"/>
  <path class="st8" d="M364.19,236.51v-1.87s-.11-6.38-.11-6.38c0-.29-.14-.8-.22-1.19l14.63-1.3-8.82,6.6,6.34,2.28c.59.21-.94,1.4-1.51,1.64l-3.32,1.41-2.33,18.1-4.65-19.29Z"/>
  <path class="st3" d="M1380.21,301.58c-1.77,0-4.09-5.8-2.74-6.52,1.68-.89,4.1-1.89,7.96-3.5l-6.63-3.16c2.62-.53,8.18-.72,10.25.32s1.77,5.53,2.23,8.62c.4,2.7-6.41,4.24-11.07,4.24Z"/>
  <path class="st8" d="M500.62,246.1c.29,4.42,1.04,6.73-3.39,8.95l-.88-20.53,14.41.19c-6.45,3.78-10.53,5.44-10.14,11.39Z"/>
  <path class="st19" d="M547.68,246.16c.29,4.53.27,7.4-3.76,8.26l-.59-19.96,14.52.31c-6.71,3.71-10.6,4.79-10.17,11.39Z"/>
  <path class="st4" d="M444,301.03c-3.12.07-9.03-.28-11.61-.85-1.43-.32-1.58-5.5-.18-5.91l8.53-2.52-8.2-3.01,11.5-1.32-.03,13.61Z"/>
  <path class="st20" d="M1462.06,296.18l10.29,3.08-6.88,2.12c-2.07.64-6.17-3.03-6.48-5-.67-4.33.84-8.45,4.2-8.91,4.73-.64,7.41.46,9.04,6.01l-10.18,2.71Z"/>
  <path class="st3" d="M1273.28,287.33l2.52.98,1.39,4.4-9.24,2.64c-.62.05,1.02,2.9,2.13,3.33l3.74,1.46c-1.61.41-5.59.84-6.88,0l-4.17-2.76.49-1.42c.64-2.97,1.67-6.01,3.01-8.75l7.01.12Z"/>
  <path class="st6" d="M459.95,296.17l10.44,3.63c-2.64.8-7.72,1.56-10.06,1.19s-3.13-5.1-3.38-7.76c-.19-2.02,3.31-3.95,7.26-4.96,1.57-.4,4.85.06,5.73,1.07s.54,4.52-.82,4.82l-9.16,2.01Z"/>
  <path class="st6" d="M367.34,296.16l10.46,3.64c-2.7.78-7.67,1.51-10.04,1.2-2.24-.29-3.23-5.36-3.38-7.71-.13-2.02,3.28-3.91,7.27-5.07,1.39-.4,4.78.11,5.67,1.12s.61,4.5-.74,4.8l-9.24,2.02Z"/>
  <path class="st4" d="M1307.53,301.51l-5.44-1.79,6.15-2.5c-3.65-2.65-7-5.72-5.97-7.33,2.41-3.78,10.3-2.83,10.56.56-4.89.59-8.06,1.52-1.94,2.13,1.75,2.22,2.79,5.53,1.35,6.33l-4.72,2.61Z"/>
  <path class="st3" d="M405.74,297.36l-.1-4.32c0-3.11,3.25-5.87,7.24-5.71,2.56.1,5.83,3.39,6.26,5.78l-9.8,2.42,6.69,5.07-6.72.46c-1.57.11-2.88-2.37-3.58-3.7Z"/>
  <path class="st4" d="M1452.01,291.35l5.21,5.47c1.04,1.09-2.8,4.9-4.35,4.51-1.86-.47-5.05-1.37-6.09-1.71,5.54-1.37,8.48-2.42,3.8-3.6l-4.4-4.42c-1.07-1.07,3.33-4.35,4.91-4.12l3.9.56c.64.09,2,1.4,1.38,1.58-.93.27-4.99,1.06-4.35,1.72Z"/>
  <path class="st4" d="M1492.95,301.9l-3.29-12.36c-6.86,1.68-3.53,6.97-6.31,12.13-1.34-2.72-1.63-7.82-1.53-13.01,2.54-.35,8.66-.46,11.77-.24.81,4.63.93,8.77-.64,13.48Z"/>
  <rect class="st24" x="486.18" y="233.83" width="4.37" height="20.19"/>
  <path class="st13" d="M672.8,225.29l-3.33,5.21c-.87-.47-4.08-.63-5.58-.24l-15.76,4.16-3.63-.77c6.79-3.85,20.84-7.59,28.3-8.37Z"/>
  <rect class="st11" x="1360.63" y="282.62" width="3.78" height="16.82"/>
  <polygon class="st13" points="494.79 299.5 492.89 299.54 493.23 296.07 495.12 296.07 494.79 299.5"/>
  <path class="st8" d="M1093.62,236.89c-9.41-3.08-4.07,17.09-8.08,17.78-2.9-4.14-2.59-9.24-2.48-14.32l-3.71-3.42c-1.08-1-5.26,1.89-5.44,3.3-.48,3.67-.89,9.95-3.15,15.06-2.49-7.76-2.03-13.03-1.97-21l19.24.41c3.11.07,11.04-1.21,12.01,1.61,2.01,5.86,2.73,12.3-.84,18.83-1.88-4.57-1.98-8.04-2.26-13.29-.14-1.51-1.78-4.46-3.31-4.97Z"/>
  <path class="st8" d="M878.38,239.53l11.35-.5-.34,13.77c-8.55,1.85-17.05,2.66-21.97-4.08-3.2-4.38-3.27-13.06,1.48-17.64s16-6.76,19.78-.54c-5.7.13-11.99-.27-14.98,1.53-3.57,2.15-4.38,9.39-3.63,12.78.99,4.43,9.77,6.91,13.5,5.56,1.23-.44,3.04-4.97,2.01-5.71l-7.2-5.18Z"/>
  <path class="st24" d="M760.99,253.4c-4.59.19-12.22.79-15.41-.59-7.6-3.27-6.31-16.02.94-18.29,2.21-.69,8.37.11,8.95-1.52.71-2.03,1.42-4.5,4.21-8.65l1.31,29.04ZM751.87,250.66c7.64-2.47,6.26-12.23,0-13.49-4.11-.83-7.18,4.14-7.09,7.39.07,2.57,4.06,7.09,7.09,6.11Z"/>
  <path class="st19" d="M938.99,254.06c-2.4.15-5.39-4.88-4.47-7.3,2.73-7.15,15.45-2.23,14.52-7.76l-11.72-2.7c1.07-2.86,12.23-4.1,14.07.04,2.08,4.68,1.61,12.27,1.38,16.85l-13.77.88Z"/>
  <path class="st24" d="M701.42,253.66c-2.95.08-7.28-.04-8.56-1.28s-1.52-5.37-.6-6.85,4.46-2.76,6.69-3.11l6.13-.96c1.24-.19-.63-4.51-1.95-4.44l-8.78.46c1.39-5.46,13.01-5.02,14.51-.72,1.58,4.54,1.4,11.85,1.27,16.68l-8.69.23Z"/>
  <path class="st19" d="M977.65,244.93c.25,8.49,11.9,4.59,12.67,6.36l1.2,2.75c-6.07-.37-10.22-.59-13.69-1.25-2.79-.53-4.46-5.87-4.6-8.58-.35-6.73,3.61-10.59,10.26-10.58,5.37,0,9.7,3.66,9.34,9.57l-15.19,1.74Z"/>
  <path class="st19" d="M772.09,244.19c-1.16.05-1.68,5.07-.47,5.27l6.82,1.14,4.07.68c.99.17,1.1,2.4.86,2.88-5.15-.37-10.31-.72-13.36-1.57s-4.64-6.9-4.36-10.1c.54-6.28,5.3-9.35,11.87-8.83,4.58.36,8.51,5.06,7.36,9.95l-12.78.57Z"/>
  <path class="st21" d="M811.08,244.39c-1.48,6.96,6.28,5.84,13.17,7.14-1.68,2.67-9.12,3.02-13.28,1.37-3.01-1.2-5.42-6.37-5.11-10.32.43-5.44,5.12-8.89,9.55-8.98,6.8-.14,10.85,4.25,10.37,10.11l-14.7.68Z"/>
  <path class="st21" d="M899.85,244.42c-1.35,6.84,6.3,5.87,13.22,7.11-1.73,2.68-9.13,3.02-13.28,1.38-3.01-1.19-5.42-6.36-5.12-10.33.42-5.42,5.13-8.88,9.55-8.97,6.8-.14,10.85,4.26,10.37,10.1l-14.75.72Z"/>
  <path class="st24" d="M848.75,254.7c-7.6.24.62-15.88-7.09-17.75-2.44-.59-6.88,2.5-7.04,4.69-.46,6.08,1.8,8.9-3.71,13.6l-1.05-21.01,18.17.22c1.65,7.1,1.95,12.63.72,20.26Z"/>
  <path class="st8" d="M1058.28,246.67c.32-5.67-.85-9.34,3.42-14.04l1.37,21.27-17.16-.52c-3.27-6.68-4.39-13.16-.04-20.66,4.79,4.37-1.96,16.27,5.89,18.28,1.95.5,6.42-2.44,6.52-4.33Z"/>
  <path class="st8" d="M733.75,254.95c-5.23-3.18,1.31-16.27-5.55-17.96-2.5-.62-7.1,2.38-7.2,4.53-.28,6.15.84,8.88-3.24,13.75-1.41-8.09-1.44-14.76-.97-20.76l16.54-.28c3.06,6.36,4.41,13.76.43,20.72Z"/>
  <path class="st4" d="M741.38,289.78l-5.04,12.06c-5.22-2.22.86-11.78-3.75-12.63-.97-.18-3.82-.06-3.86.82l-.23,4.72c-.13,2.66-.54,4.6-3,7.03l-.8-16.3,15.9-2.57.79,6.88Z"/>
  <path class="st3" d="M878.8,301.26l-6.85-6.86-4.67,7.59-.92-16.86c3.19-2.01,13.07-.76,12.96,2.38l-.51,13.75Z"/>
  <path class="st16" d="M1011.85,239.69c-.19-1.21-4.33-3.35-5.39-2.88-1.41.63-3.84,2.78-4.15,4.38l-2.56,14.38c-2.76-7.98-2.45-13.99-2.31-21.17l17.15-.05c2.36,6.61,4.21,13.72-.36,20.96l-2.38-15.62Z"/>
  <path class="st3" d="M564.23,295.83l6.32,4.65c-8.61,5.08-15.09-12.83-14.52-.47-1.08-.55-3.86-3.47-3.87-5.16s2.47-4.99,3.71-6.22l.11,3.61c.1,3.44,5.38-4.06,11.75-4.91,2.12-.28,4.84,2.72,6.82,5.53l-10.32,2.99Z"/>
  <ellipse class="st20" cx="714.47" cy="294.5" rx="7.75" ry="6.9"/>
  <path class="st19" d="M970.63,252.79c-1.08.4-5.6,1.07-7.36.88-2.05-.22-3.11-4.26-3.48-6.46l-2-11.84,4.14-6.26,8.01,6.64c-3.9.54-6.92,3.44-6.75,7.28.22,5.05,1.88,6.62,7.44,9.76Z"/>
  <path class="st4" d="M620.28,300.33c.18.25-4.56,1.12-4.69.15l-.62-4.64c-.33-2.45-2-7.53-4.03-6.75-5.31,2.04-2.9,7.95.07,10.8l-3.65,1.24c-1.28.44-2.83-3.91-2.77-5.23l.49-10.72,5.1,2.15c1.34.57,4.7-1.12,6.2-1.8l5.03,2.78c-.94.78-4.75,3.69-4.07,5.24l2.95,6.78Z"/>
  <path class="st24" d="M924.86,239.29l-3.49,16.02c-3.56-7.86-2.52-13.18-2.54-21.23l14.55.89-8.52,4.32Z"/>
  <path class="st3" d="M892.9,301.06c-5.13.08-9.91.49-10.53-.88s-.72-5.5.82-6.07l7.63-2.82-8.57-2.88c3.2-1.08,9.72-.94,11.47,1.28,2.48,3.14,2.77,11.32-.83,11.38Z"/>
  <path class="st4" d="M1043.06,300.24c-.09,1.22-7.84,1.97-12-.55-1.22-.74-1.25-5.07.15-5.48l8.53-2.51-7.52-2.2c.07-.97,6.14-2.22,8.34-1.75s2.98,5.8,2.82,7.98l-.33,4.52Z"/>
  <path class="st6" d="M981.26,297.07c-.18,4.07-.6,4.76-.87.82-1.33-3.41-3.05-7.01-4.64-8.37l-4.94,12.04-.68-13.74,20.71.63c-.12,3.5-.17,4.9-.13,3.74-4.11-.99-6.57-2.23-6.98-1.22l-2.48,6.09Z"/>
  <path class="st4" d="M1263.26,295.96l-.49,1.42c-.72,1.05-3.2,4.21-4.09,3.22l-4.18-4.66-4.51,5.27c-.3-7.56-.24-11.67.99-19.63l2.81,9.41,6.55-2.82c-1.48,2.89-4.53,6.63-2.82,6.89l5.74.89Z"/>
  <path class="st4" d="M822.63,301.2l-4.5-13.11-6.24,13.4-.31-19.67,3.92,4.33c.92,1.02,4.32,1.89,6.42,2.62,2.71.95,2.42,7.12.71,12.44Z"/>
  <path class="st20" d="M672.09,296.18l10.28,3.14c-1,.53-5.53,1.57-8.55,1.85-2.2.2-4.42-4.1-4.5-6.82-.08-3.11,2.04-6.32,4.28-6.81,3.87-.86,7.53.58,8.66,5.96l-10.17,2.68Z"/>
  <path class="st4" d="M926,300.73c-2.2,10.05-.74-14.62-5.49-11.66l-4.7,12.63-1.47-14.52,21.01,2.66-7.86,2.25c-1.28.37-.51,4.14-.79,5.43l-.7,3.21Z"/>
  <path class="st20" d="M1082.25,296.08l10.39,3.05c-1.33.77-5.96,1.95-8.7,2.05-2.17.08-4.62-4.12-4.67-6.77-.05-3.16,2.08-6.47,4.33-6.86,4.23-.72,7.51.52,8.76,5.97l-10.11,2.56Z"/>
  <path class="st8" d="M795.72,239.48l-2.85,15.56c-4.37-7.03-2.64-13.65-2.48-20.7l14.34.4-9.01,4.74Z"/>
  <path class="st3" d="M741.38,289.78c3.57-1.53,9.07-2.98,10.66-1.56,1.33,1.18,4.04,4.07,5.13,5.27l-12.89,2.05,7.73,4.93-7.17-.15c-1.4-.03-2.34-3.29-2.53-4.52l-.93-6.01Z"/>
  <path class="st3" d="M829.33,295.62l7.62,4.69c-2.7,1.21-8.58-.03-9.42-2.69-1.28-4.03.1-9.25,3.26-9.91,5.03-1.05,9.88,2.54,11.29,5.86l-12.74,2.05Z"/>
  <path class="st3" d="M632.65,295.98l7.96,4.29-6.08.47c-1.74.14-3.56-3.1-4.05-5.22-.65-2.83,1.36-7.24,3.87-7.87,3.2-.8,8.78.94,10.07,5.14l-11.77,3.18Z"/>
  <path class="st3" d="M522.99,288.09c-.27,1.25,2.72,4.99,1.23,5.24l-6.98,1.16c-.96.16-1.93,3.12-.9,3.53l5.25,2.07c-1.7.72-7.09.98-8.35-.53s-2.56-5.25-2.43-7.13,2.51-5.27,4.52-5.08l7.65.74Z"/>
  <path class="st6" d="M1107.69,296.45l11.46,2.71c-1.72.76-6.09,1.87-9.03,2.25-2.4.31-4.96-3.89-5.11-6.21-.24-3.52,2.7-6.07,6.83-6.74,2.09-.34,4.68-.9,4.99-.07l1.9,5.13-11.04,2.92Z"/>
  <path class="st6" d="M1166.28,296.48l11.24,2.5c-1.25,1.84-8.04,2.82-11.44,1.51-2.98-1.15-3.13-9.58-.12-10.79,3.98-1.59,10.2-3.36,11.59,3.73l-11.27,3.05Z"/>
  <path class="st6" d="M1224.88,296.48l11.45,2.66c-1.86.87-5.54,1.81-9.32,2.22-2.77.31-4.78-4.64-4.85-8.11-.05-2.38,5.65-4.78,8.75-5.41,2-.41,3.93,2.54,5.24,5.54l-11.26,3.09Z"/>
  <path class="st4" d="M1059.09,301.73c-5.45-2.27,2.74-10.81-6.77-12.01l-4.03,12.72c-.7-4.45-1.04-8.48-1.28-13.75,2.66-.37,8.85-.49,11.64-.27l.43,13.32Z"/>
  <path class="st6" d="M964.79,288.22l.98,12.87c-3.26.13-9.67-.11-11.59-1.08-1.25-3.57-1.02-9.33.18-12.63l5,13.01,5.42-12.16Z"/>
  <path class="st4" d="M769.55,302.41l-3.8-12.86c-6.32,1.64-3.79,6.89-5.87,12.23-2.16-2.59-2.3-8.49-1.43-13.62l11.37.48c.35,5.16.36,8.91-.27,13.77Z"/>
  <path class="st4" d="M854.15,301.86l-3.21-12.29c-6.82,1.58-3.75,6.87-6.07,12.22-2.06-2.65-2.18-8.49-1.47-13.62l11.32.33c1.04,4.48,1.17,8.88-.57,13.37Z"/>
  <polygon class="st20" points="1188.66 301.12 1188.85 297.7 1194.57 290.85 1188.21 287.72 1202.78 288.67 1192.56 298.02 1200.37 300.7 1188.66 301.12"/>
  <path class="st10" d="M1188.85,297.7l-.19,3.42c-.91.03-4.3-1.29-5.14-1.67s1.2-1.75,2.11-1.75h3.23Z"/>
  <path class="st5" d="M1145.19,1048.18l1.99-6.78c101.63-114.41,83.08-283.39-37.54-381.23-122.43-99.3-308.95-99.35-431.53-.06-120.42,97.54-139.37,266.67-37.85,380.87l2.26,7.2c-78.37-82.15-105.22-305.59,27.98-391.7,148.71-96.12,299.44-95.95,447.72.86,132.16,86.28,105.08,308.95,26.96,390.84Z"/>
  <path class="st12" d="M1147.19,1041.4l-1.99,6.78c-.38.4-1.2,1.15-1.6,1.52l-4.07.02c1.13-1.76,3.79-6.17,3.78-8.43l-.12-20.07c-.04-7.33-6.5-13.57-15.47-13.57l-469.49.06c-19.64,0-15.18,36.31-10.05,42l-4.06-.02c-.39-.37-1.22-1.12-1.6-1.53l-2.26-7.2.7-19.99c.27-7.87,8.86-13.8,17.19-16.68h471.4c8.77,2.78,14.21,8.18,17.58,15.2l.05,21.9Z"/>
  <path class="st12" d="M1137.64,1051.4c-.87,2.68-4.04,4.74-6.28,7.03l-475.22-.06c-2.11-2.14-5.01-4.88-6.05-6.97l8.17,3.37h471.23s8.17-3.37,8.17-3.37Z"/>
  <path class="st15" d="M1139.53,1049.72l-1.89,1.68-8.17,3.37h-471.23s-8.17-3.37-8.17-3.37c-.28-.57-1.19-1.68-1.89-1.68-5.13-5.69-9.6-42,10.05-42l469.49-.06c8.96,0,15.43,6.24,15.47,13.57l.12,20.07c.01,2.26-2.65,6.66-3.78,8.43ZM1126.68,1047.76c12.43,0,13.2-33.21-.69-33.21h-245.04c-9.38,0-9.98,10.95-9.97,16.65s.57,16.64,9.99,16.63l245.72-.08ZM710.61,1028.84c-5.2-1.93-6.43-2.58-10.85-4.89l.3,16.41c3.02,2.18,12.14.96,13.13-1.97,1.31-3.88.63-8.36-2.58-9.55ZM815.33,1040.22c.06,1.47,8.09,1.65,9.5-.45,1.21-1.8,1.6-6.82.84-8.95-.72-1.99-5.45-2.79-8.08-4l-2.57-3.61c-.36-.5-2.81-.05-2.65.54l1.14,4.02c1.09,3.85,1.67,7.62,1.82,12.46ZM658.02,1041.79c10.5-.8,13.16-1.47,14.93-5.96,1.11-2.81-.23-8.3-2.83-10.02s-10.28-1.78-12.04.13l-.06,15.86ZM727.39,1031.25l7.23-1.65c2.88-.66.69,9.13,2.51,9.74l4.27,1.44-1.75-14.92-13.66,2.69c-1.12.22-4.15,2.53-3.38,3.31l4.27,4.34c4.54,1.08,1.64,2.3-3.62,3.66l5.8,1.7c1.5.44,5.42-3.65,4.32-4.69l-5.99-5.62ZM688.81,1026.64c-3.34,7.2-3.2,8.49-6.72,14.16l-3.85-14.17c-1.96,4.02-2.16,10.23-.21,13.48,1.81,1.59,9.28.95,11.17-.09l-.39-13.38ZM755.81,1031.67l7.31-1.46c.68-.14-1.16-1.61-1.83-1.78l-3.84-.98c-1.74-.45-6.39,3.26-5.21,4.4l5.05,4.9c4.61-.17.4,1.56-4.24,3.08.71.41,4.12,1.21,5.96,1.39s5.79-5.15,4.18-5.94l-7.39-3.61ZM837.85,1041.1c3.41-.16,3.53-6.58,1.84-10.07-1.55-3.21-6.47-4.19-10.93-1.95l7.23,2.5-7.68,2.61c-1.53.52-.7,4.96-.38,6.38s5.16.75,9.93.53Z"/>
  <path class="st22" d="M341.04,239.68c.29,6.86-3.15,11.24-9.45,11.13-5.45-.1-9.17-4.37-9.12-10.37.03-4.54,3.24-9.35,7.13-9.93,6.53-.98,11.15,2.26,11.44,9.18Z"/>
  <path class="st10" d="M1411.4,250.66c-3.03.98-7.01-3.54-7.09-6.11-.09-3.25,2.98-8.22,7.09-7.39,6.26,1.27,7.63,11.03,0,13.49Z"/>
  <path class="st10" d="M1122.87,250.55l.2-19.84c4.22-.74,11.58.74,13.26,3.56,1.98,3.34,1.99,9.41-.05,12.61s-8.13,4.13-13.41,3.68Z"/>
  <path class="st10" d="M528.91,231.28c4.98.63,6.3,15.34,1.12,17.69-2.09.95-6.64,1.49-11.37,1.89l-.27-20.22c3.09.06,7.88.31,10.51.65Z"/>
  <path class="st10" d="M594.58,250.34c-7.73-.74-6.54-11.73-1.19-13.02,4.27-1.03,7.57,2.55,7.71,5.64.12,2.71-2.07,7.81-6.52,7.38Z"/>
  <path class="st10" d="M443.2,238.98v-8.96c4.64.72,7.68,1.09,9.15,2.11,1.76,1.22.99,6.06-.7,7.35s-8.45,1.61-8.45-.5Z"/>
  <path class="st10" d="M569.87,250.77c-3.69.05-6.45-3.97-6.47-6.07-.02-2.42,2.23-7.4,4.93-7.58,5.22-.36,7.5,3.01,7.71,6,.19,2.68-1.38,7.58-6.17,7.65Z"/>
  <path d="M364.07,228.26l.1,6.38c-2.23.55-8.36-1.58-7.5-3.77.62-1.58,5.84-2.72,7.4-2.6Z"/>
  <path class="st10" d="M751.87,250.66c-3.03.98-7.01-3.54-7.09-6.11-.09-3.25,2.98-8.22,7.09-7.39,6.26,1.27,7.63,11.03,0,13.49Z"/>
  <path d="M1147.19,1041.4l-.05-21.9c-3.36-7.02-8.81-12.41-17.58-15.2h-471.4c-8.34,2.89-16.92,8.82-17.19,16.69l-.7,19.99c-101.52-114.19-82.57-283.33,37.85-380.87,122.58-99.29,309.1-99.24,431.53.06,120.62,97.84,139.17,266.82,37.54,381.23ZM850.56,956.95l-10.91.88-2.02,17.62,15.85,1.92c-.09-4.64-.27-6.5-1.68-6.93l-7.98-2.44,11.5-8.36,1.02,7.82c.16,1.25,1.14,5.29,2.51,4.96l5.7-1.36c-4.49-1.71-6.92-9.08-3-10.7,1.96-.81,7.97,0,9.74.99,2.12,1.19,2.29,4.98,3.02,10.12l13.14,1.16,2.15-11.21,5.12,12.13,1.03-9.62c4.17-.27,8.52,1.57,12.09,4.12l-8.58,2.99c2.72.83,7.76,1.41,10.05.71,2.09-.63,2.24-4.72,3.04-8.78l15.2-3.55.62,14.94c.14,3.41,4.64,8.06,9.17,8.06l200.3.03c5.47,0,11.18-3.26,11.14-8.32l-.15-20.25c-.04-5.59-3.45-8.46-13.48-8.47l-177.2-.26c43.56-30.09,55.08-84.63,25.47-125.98-29.45-41.12-89.37-55.52-137.81-33.38-49.02,22.4-70.64,73.07-49.88,119.67,10.39,23.32,30.98,39.93,54.83,51.48ZM1175.1,954.15c-5.01,1.11-21.56,14.8-17.54,21.54,11.62-1.76,18.64-9.32,23.34-16.44,2.08-.82,5.24-2.74,5.54-4.52s-2.68-5.59-4.7-5.52-5.41,2.02-6.64,4.94ZM603.2,972.83c11.16-.67,14.42-1.49,16.47-6.24,1.51-3.51.62-9.91-2.22-12.09s-10.14-2.71-14.66-2.17l.41,20.51ZM698.83,960.84l9.28-.79c4.95-.42,1.31,12.6,5.27,11.97l5.2-.82c-1.75-1.35-5.35-5.62-4.66-7.4s2.3-3.44,4.12-5.19l-4.66-4.23c-.85-.77-3.96,2.15-5.33,2.37l-15.02,2.33c2.52,3.86,5.04,5.61,10.22,9.41l-8.52,2.26c1.91,1.43,9.16,1.89,11.24-.09.97-.92.44-5.14-.73-5.86l-6.41-3.97ZM629.25,969.39l-2.65-13c-3.35,5.51-2.87,10.91-.42,15.34l12.29.34c-1.28-2.23-1.92-4.65-2.87-4.4l-6.37,1.72ZM672.69,960.9l-8.46,2.97-1.91-5.01c-.34-.9-3.21.94-3.85,1.67l-2.3,2.61-6.02-6.68c.56,7.6,1.58,10.72,4.86,17.49l5.18-7.37c4.14.3,11.33-1.15,12.5-5.68ZM742.67,971.44l.05-6.16c.01-1.46-.41-5.14-.65-6.58-.12-.71-5.19-3.29-11.36-.21-.56.28-.03.98.59,1.12l4.51,1.02c4.23.95,4.48,2.49-.03,3.11-2.52.44-6.82.74-6.82,1.98v4.85c.02,1.97,13.69,2.78,13.71.87ZM759.58,973.71c2.36-5.86,1.94-9.87.68-15.77l-13.63-.49c.24,6.58.33,9.56,1.44,16.55l3.02-11.42c.25-.98,3.11-3.49,3.91-2.71,6.75,6.59-.39,7.73,4.59,13.84ZM780.8,960.55l.07,10.17c3.16.46,9.86,1.09,14.12,1.18l16.38.35-6.5-4.16,6.54-11.13-15.88,1.28,9.78,2.91c-2.12,3.5-6.15,7.69-10.32,8.32-3.43.27-6.3-.22-10.22-2.15l11.91-2.81c-.19-2.37-2.98-8.28-5.68-7.6l-10.57,2.68c-2.33-3.34-14.38-3.76-14.79.03l-1.69,15.67,13.61,2.18,3.57-5.93-11.27-3.63,10.94-7.34ZM816.08,966.97l11.42-2.03c1.45-3.22-1.91-7.89-6.3-8.05-4.09-.15-8.28,2.42-8.59,7.14-.18,2.82,2.38,7.68,4.86,8.02,2.91.4,8.71-.44,9.81-1.31l-11.21-3.78ZM918.64,968.97c0-1.03-.94-1.87-2.1-1.87s-2.1.84-2.1,1.87.94,1.87,2.1,1.87,2.1-.84,2.1-1.87Z"/>
  <path class="st16" d="M1126.68,1047.76l-245.72.08c-9.42,0-9.98-10.88-9.99-16.63s.59-16.65,9.97-16.65h245.04c13.89,0,13.12,33.2.69,33.21ZM923.35,1040.15c.86-5.62.68-13.06.38-18.26-4.49,3.7-5.24,5.45-9.4,6.4-3.72.85-3.92,6.9-3.38,10.34.45,2.86,10.56,4.03,12.4,1.52ZM1124.61,1041.46l.53-13.84-5.5,3.06-3.99-8.77-.48,19.82,4.68-5.25,4.76,4.97ZM1024.07,1043.06c2.24-8.85,2.31-12.23.07-18.93l-2.59,10.79-10.69-12.04c-2.08,8.02-2.21,12,.11,18.89l2.57-10.58,10.54,11.87ZM1047.93,1037.62l.67-7.15c.06-.69,11.36-2.34,10.82.44l-1.26,6.48,6.54-8.59-20-2.97.7,15.53,18.74-.28-7.71-4.87-3.46,3.23c-.8.75-5.12-.89-5.03-1.84ZM899.45,1042.04c1.93-4.32,1.84-9.21.45-13.13-2.34-.89-9.23-.66-11.44.09-.18,4.96.16,10.15,1.51,12.88,2.8-5.27-.61-10.32,6.34-12.24l3.14,12.4ZM948.77,1032.56l8.38,5.95c-8.51.09-12.48,0-20.78-1.49l9.67-3.52c1.46-.53.45-4.9-1.09-5.13s-5.99-.3-8.19.1c-3.52.63-3.71,10.3-.77,12.27,6.22.97,17.06.72,22.27-.43,1.33-.29,1.68-4.85.46-5.4l-6.71-3.03,7.22-2.58-6.2-1.78c-1.72-.49-5.14,3.87-4.24,5.04ZM964.42,1036.59c6.57-2.12,11.9-3.13,10.77-5.33-2.65-5.15-10.8-4.34-12.41-1.73-1.5,2.44-1.53,9.12.84,10.93,2.07,1.58,8.68.78,11.46-.74l-10.65-3.13ZM989.3,1037.19c.35-3.43,1.97-6.51,4.94-7.05l3.14,11.58c1.6-4.73,1.51-9.28.48-13.17l-20.58-.24,1.14,14.7,3.55-11.45c.47-.61,4.64-.5,4.7.66l.3,6.43c1.02,4.39,2.5,3.71,2.34-1.46ZM1031.55,1035.74l11.86-1.81c-1.42-2.43-4.39-6-6.85-6.45-2.79-.51-8.31,2.76-8.11,5.02.32,3.58,1.12,7.83,3.35,8.19,2.62.42,7.73.27,10.18-.03l-10.43-4.93ZM1090.21,1036.19l10.85-3.04c-1.47-2.78-3.82-5.98-5.66-5.54l-7.87,1.89c-1.14,0-3.54-1.14-4.14-.29l-2.7,3.84-3.19-4.72c-.5-.73-3.1.26-3.51,1.02l-2.1,3.83-5.96-5.96c.99,6.67,1.83,9.49,5.26,16.03l5.1-10.31c1.33,4.04,2.89,7.39,5.23,9.27l4.5-9.71c1.59,3.62,3.14,7.8,5.44,8.48,1.98.58,7.25-.39,7.72-1.04l-8.97-3.75Z"/>
  <path class="st6" d="M710.61,1028.84c3.21,1.19,3.89,5.67,2.58,9.55-.99,2.93-10.11,4.16-13.13,1.97l-.3-16.41c4.42,2.3,5.65,2.96,10.85,4.89Z"/>
  <path class="st4" d="M727.39,1031.25l5.99,5.62c1.11,1.04-2.82,5.12-4.32,4.69l-5.8-1.7c5.26-1.37,8.16-2.58,3.62-3.66l-4.27-4.34c-.77-.78,2.26-3.09,3.38-3.31l13.66-2.69,1.75,14.92-4.27-1.44c-1.82-.61.37-10.4-2.51-9.74l-7.23,1.65Z"/>
  <path class="st6" d="M815.33,1040.22c-.15-4.84-.72-8.61-1.82-12.46l-1.14-4.02c-.17-.58,2.29-1.04,2.65-.54l2.57,3.61c2.63,1.21,7.37,2.01,8.08,4,.77,2.14.37,7.15-.84,8.95-1.41,2.1-9.44,1.92-9.5.45Z"/>
  <path class="st20" d="M658.02,1041.79l.06-15.86c1.76-1.91,9.56-1.76,12.04-.13,2.6,1.72,3.94,7.21,2.83,10.02-1.77,4.49-4.42,5.16-14.93,5.96ZM663.18,1038.75c5.34.79,7.53-5.57,6.57-8.29-.69-1.96-5.72-4.59-7.49-3.21-2.46,1.91-2.27,11.03.91,11.5Z"/>
  <path class="st20" d="M837.85,1041.1c-4.77.23-9.61.9-9.93-.53s-1.14-5.87.38-6.38l7.68-2.61-7.23-2.5c4.46-2.24,9.38-1.25,10.93,1.95,1.69,3.49,1.57,9.91-1.84,10.07Z"/>
  <path class="st4" d="M688.81,1026.64l.39,13.38c-1.88,1.04-9.36,1.68-11.17.09-1.95-3.26-1.76-9.46.21-13.48l3.85,14.17c3.51-5.67,3.38-6.96,6.72-14.16Z"/>
  <path class="st4" d="M755.81,1031.67l7.39,3.61c1.61.79-2.34,6.12-4.18,5.94s-5.25-.98-5.96-1.39c4.63-1.52,8.85-3.24,4.24-3.08l-5.05-4.9c-1.18-1.15,3.46-4.85,5.21-4.4l3.84.98c.67.17,2.51,1.64,1.83,1.78l-7.31,1.46Z"/>
  <path class="st2" d="M954.38,944.82c1.79.18,2.97.33,3.57.34l177.2.26c10.03.01,13.44,2.88,13.48,8.47l.15,20.25c.04,5.06-5.68,8.32-11.14,8.32l-200.3-.03c-4.53,0-9.03-4.65-9.17-8.06l-.62-14.94v-2.53c.2-3.52,3.16-10.55,6.4-10.76l20.42-1.31ZM954.06,973.12c-1.12-7.83-1.11-10.96.13-18.18-1.58-2.96-11.38-3.74-15.3-1.97l2.26,20.64,4.66-9.51,8.25,9.02ZM1030.67,971.64l-9.84-3.05c-.35-5.72.05-11.4-2.54-17.99-1.75,8.51-1.37,14.29-.9,21.99l13.27-.95ZM987.83,969.01c1.04-2.31-3.6-5.37-7.46-7.84l7.5-2.14c-1.33-.74-6.01-2.03-7.97-1.8-1.63.19-3.61,2.97-5.43,4.93-1.63-1.98-5.19-4.91-7.75-5.33-2.79-.45-8.48,2.54-8.65,4.94-.29,4.04.83,8.83,3.19,9.92,2.02.94,7.98,1.22,9.63-.17s2.3-3.75,4.66-8.79l9.97,5.78-10.15,2.01c2.68,2.8,10.44,2.98,12.47-1.51ZM993.66,967.19l11.61-2.3c.18-1.33-.46-5.47-1.97-6.62-1.21-.93-5.64-1.27-7.33-.96-6.47,1.17-7.08,9.05-3.66,12.82,2.78,3.07,11.25,2.83,13.2.08l-11.85-3.01ZM1039.44,972.52c1.61.27,6.28-.21,6.35-1.61l.3-5.68c.11-2.13-1.55-7.23-3.8-7.77s-8.53.69-7.75,1.73l7.04,1.96c4.46,1.24-7.48,3.69-9.02,4.1s-1.84,5.81-.29,6.07l7.17,1.2ZM1068.3,958.96l3.85,14.5c3.48-4.38,2.74-10.74.52-15.88l-22.92.2c.3,6.3.44,9.57,1.63,16.02l4.83-15.04c3.87,2.63,4.41,6.05,4.97,10.43.48,3.8,1.25,3.9,1.89,0,.56-3.87,1.4-7.81,5.23-10.24ZM1090,971.36c4.57-1.17,4.97-9.07,2.22-12.14-2.19-2.44-10.07-2.5-14.09-1.12l.67,21.77c5.12-5.56,5.55-7.07,11.2-8.52ZM1100.73,965.88c.05-2.58,3.32-5.01,6.7-7.66l-10.76-.52.81,14.99c3.08.08,3.2-4.14,3.25-6.81ZM1111.43,967.43l12.53-2.93c-.08-2.98-3.1-7.36-6.15-7.62-4.1-.35-8.89,1.71-9.11,5.06-.27,4.03.98,9.16,3.63,9.9,3.49.98,10.07.34,10.67-1.49l-11.56-2.93ZM1133.64,975.61l6.92-18.59c-5.08,1.57-5.37,5.8-7.3,10.38l-6.56-11.16c-3.56,3.98,6.97,15.09,3.39,18.01l-4.56,3.72,4.95.72c.95.14,2.83-2.19,3.16-3.07Z"/>
  <path class="st14" d="M957.95,945.16c-.6,0-1.78-.15-3.57-.34.76-1.22,2.91-4.12,4.31-5.11,50.87-35.86,47.94-104.32,1.88-138.98-53.17-40.01-117.23-20.71-154.99,20.61-43.96,48.11,9.95,117.5,50.61,133.04-.21,1.04-.4,2.49-1.36,2.51-1.11.02-3.33-.02-4.27.05-23.85-11.55-44.44-28.16-54.83-51.48-20.76-46.6.86-97.27,49.88-119.67,48.44-22.14,108.36-7.74,137.81,33.38,29.61,41.35,18.09,95.88-25.47,125.98Z"/>
  <path class="st20" d="M895.75,960.56c0,.95-.13,2.52,0,3.36l-1.03,9.62-5.12-12.13-2.15,11.21-13.14-1.16c-.73-5.13-.9-8.93-3.02-10.12-1.77-.99-7.78-1.79-9.74-.99-3.92,1.61-1.5,8.99,3,10.7l-5.7,1.36c-1.37.33-2.35-3.71-2.51-4.96l-1.02-7.82-11.5,8.36,7.98,2.44c1.41.43,1.59,2.29,1.68,6.93l-15.85-1.92,2.02-17.62,10.91-.88c.94-.08,3.15-.03,4.27-.05.96-.02,1.15-1.47,1.36-2.51,1.1.42,3.47,1.19,4.76,1.88,16.59,8.94,15.56-6.67,29.87,5.78l3.31-12.94c1.28,4.87,1.61,7.8,1.62,11.46Z"/>
  <path class="st3" d="M1175.1,954.15c.45,2.43,3.07,4.73,5.8,5.1-4.7,7.12-11.72,14.68-23.34,16.44-4.02-6.74,12.53-20.43,17.54-21.54Z"/>
  <path class="st4" d="M698.83,960.84l6.41,3.97c1.16.72,1.7,4.94.73,5.86-2.07,1.98-9.33,1.52-11.24.09l8.52-2.26c-5.18-3.8-7.7-5.55-10.22-9.41l15.02-2.33c1.37-.21,4.47-3.14,5.33-2.37l4.66,4.23c-1.82,1.75-3.42,3.41-4.12,5.19s2.91,6.05,4.66,7.4l-5.2.82c-3.96.63-.31-12.39-5.27-11.97l-9.28.79Z"/>
  <path class="st3" d="M780.43,959.58c.15.34.37.73.37.97l-10.94,7.34,11.27,3.63-3.57,5.93-13.61-2.18,1.69-15.67c.41-3.8,12.46-3.37,14.79-.03Z"/>
  <path class="st4" d="M927.53,956.89v2.53s-15.19,3.55-15.19,3.55c-.8,4.06-.95,8.15-3.04,8.78-2.28.69-7.33.12-10.05-.71l8.58-2.99c-3.57-2.56-7.91-4.39-12.09-4.12-.13-.85,0-2.41,0-3.36,6.8-3.48,12.53-3.34,20.87-2.03l10.91-1.64Z"/>
  <path class="st20" d="M603.2,972.83l-.41-20.51c4.52-.53,11.84,0,14.66,2.17s3.73,8.59,2.22,12.09c-2.05,4.75-5.31,5.58-16.47,6.24ZM608.03,969.8c8.97-.29,8.85-6,8.62-10.22-.14-2.61-7.3-6.56-8.95-3.86-2.37,3.89-1.63,11.49.33,14.07Z"/>
  <path class="st4" d="M795,969.45v2.44c-4.27-.09-10.97-.71-14.13-1.18l-.07-10.17c0-.24-.22-.63-.37-.97l10.57-2.68c2.7-.68,5.49,5.22,5.68,7.6l-11.91,2.81c3.91,1.93,6.79,2.42,10.22,2.15Z"/>
  <path class="st20" d="M742.67,971.44c-.01,1.91-13.69,1.11-13.7-.87v-4.85c-.02-1.23,4.28-1.54,6.81-1.98,4.51-.62,4.26-2.16.03-3.11l-4.51-1.02c-.62-.14-1.15-.84-.59-1.12,6.17-3.08,11.24-.5,11.36.21.24,1.44.66,5.12.65,6.58l-.05,6.16Z"/>
  <path class="st20" d="M816.08,966.97l11.21,3.78c-1.09.87-6.9,1.7-9.81,1.31-2.48-.34-5.04-5.2-4.86-8.02.3-4.72,4.49-7.29,8.59-7.14,4.39.16,7.75,4.82,6.3,8.05l-11.42,2.03Z"/>
  <path class="st4" d="M672.69,960.9c-1.17,4.53-8.36,5.98-12.5,5.68l-5.18,7.37c-3.28-6.77-4.3-9.89-4.86-17.49l6.02,6.68,2.3-2.61c.64-.73,3.51-2.56,3.85-1.67l1.91,5.01,8.46-2.97Z"/>
  <path class="st20" d="M794.99,971.89v-2.44c4.17-.63,8.21-4.81,10.32-8.32l-9.78-2.91,15.88-1.28-6.54,11.13,6.5,4.16-16.38-.35Z"/>
  <path class="st4" d="M759.58,973.71c-4.98-6.11,2.16-7.25-4.59-13.84-.8-.78-3.66,1.73-3.91,2.71l-3.02,11.42c-1.1-6.99-1.19-9.96-1.44-16.55l13.63.49c1.26,5.9,1.68,9.91-.68,15.77Z"/>
  <path class="st6" d="M629.25,969.39l6.37-1.72c.95-.26,1.59,2.16,2.87,4.4l-12.29-.34c-2.45-4.43-2.94-9.83.42-15.34l2.65,13Z"/>
  <path class="st20" d="M1180.89,959.24c-2.73-.36-5.34-2.67-5.8-5.1,1.23-2.92,4.62-4.87,6.64-4.94s5,3.74,4.7,5.52-3.46,3.7-5.54,4.52Z"/>
  <ellipse class="st22" cx="916.54" cy="968.97" rx="2.1" ry="1.87"/>
  <path class="st9" d="M1090.21,1036.19l8.97,3.75c-.46.65-5.74,1.62-7.72,1.04-2.31-.68-3.86-4.86-5.44-8.48l-4.5,9.71c-2.34-1.89-3.9-5.24-5.23-9.27l-5.1,10.31c-3.43-6.54-4.27-9.36-5.26-16.03l5.96,5.96,2.1-3.83c.42-.76,3.02-1.75,3.51-1.02l3.19,4.72,2.7-3.84c.6-.85,3,.28,4.14.29l7.87-1.89c1.84-.44,4.19,2.76,5.66,5.54l-10.85,3.04Z"/>
  <path class="st9" d="M948.77,1032.56c-.9-1.17,2.53-5.53,4.24-5.04l6.2,1.78-7.22,2.58,6.71,3.03c1.22.55.87,5.1-.46,5.4-5.21,1.15-16.05,1.4-22.27.43-2.95-1.97-2.75-11.64.77-12.27,2.2-.39,6.64-.34,8.19-.1s2.56,4.6,1.09,5.13l-9.67,3.52c8.3,1.5,12.27,1.58,20.78,1.49l-8.38-5.95Z"/>
  <path class="st9" d="M923.35,1040.15c-1.84,2.51-11.95,1.34-12.4-1.52-.54-3.45-.34-9.49,3.38-10.34,4.16-.96,4.91-2.7,9.4-6.4.31,5.2.48,12.64-.38,18.26Z"/>
  <path class="st9" d="M1024.07,1043.06l-10.54-11.87-2.57,10.58c-2.32-6.89-2.19-10.86-.11-18.89l10.69,12.04,2.59-10.79c2.24,6.7,2.18,10.09-.07,18.93Z"/>
  <path class="st9" d="M989.3,1037.19c.17,5.17-1.32,5.85-2.34,1.46l-.3-6.43c-.05-1.16-4.22-1.27-4.7-.66l-3.55,11.45-1.14-14.7,20.58.24c1.04,3.89,1.13,8.44-.48,13.17l-3.14-11.58c-2.97.53-4.59,3.61-4.94,7.05Z"/>
  <path class="st9" d="M1047.93,1037.62c-.09.94,4.24,2.58,5.03,1.84l3.46-3.23,7.71,4.87-18.74.28-.7-15.53,20,2.97-6.54,8.59,1.26-6.48c.54-2.79-10.75-1.13-10.82-.44l-.67,7.15Z"/>
  <polygon class="st9" points="1124.61 1041.46 1119.86 1036.49 1115.18 1041.74 1115.65 1021.91 1119.65 1030.68 1125.15 1027.62 1124.61 1041.46"/>
  <path class="st9" d="M964.42,1036.59l10.65,3.13c-2.77,1.52-9.39,2.33-11.46.74-2.37-1.81-2.34-8.5-.84-10.93,1.61-2.61,9.76-3.42,12.41,1.73,1.13,2.2-4.2,3.21-10.77,5.33Z"/>
  <path class="st9" d="M1031.55,1035.74l10.43,4.93c-2.45.29-7.56.44-10.18.03-2.24-.36-3.03-4.61-3.35-8.19-.2-2.26,5.32-5.53,8.11-5.02,2.46.45,5.43,4.02,6.85,6.45l-11.86,1.81Z"/>
  <path class="st9" d="M899.45,1042.04l-3.14-12.4c-6.95,1.92-3.53,6.96-6.34,12.24-1.36-2.73-1.69-7.92-1.51-12.88,2.21-.75,9.1-.98,11.44-.09,1.39,3.91,1.48,8.81-.45,13.13Z"/>
  <path class="st10" d="M663.18,1038.75c-3.18-.47-3.37-9.59-.91-11.5,1.77-1.38,6.79,1.25,7.49,3.21.96,2.72-1.24,9.08-6.57,8.29Z"/>
  <path class="st22" d="M954.38,944.82l-20.42,1.31c-3.24.21-6.2,7.24-6.42,10.76l-10.91,1.64c-8.34-1.32-14.07-1.46-20.87,2.03,0-3.65-.34-6.58-1.62-11.46l-3.31,12.94c-14.31-12.44-13.28,3.16-29.87-5.78-1.29-.69-3.66-1.46-4.76-1.88-40.66-15.54-94.57-84.93-50.61-133.04,37.76-41.32,101.82-60.62,154.99-20.61,46.06,34.66,48.99,103.12-1.88,138.98-1.4.99-3.55,3.89-4.31,5.11ZM833.11,859.41c-7.27,22.15,5.59,46.6,28.6,59.04,2.84-2.42,5.26-6.46,5.5-9.84-16.8-10.49-28.4-29.33-22.96-49.1,5.49-19.96,26.8-33.5,48.66-33.81,22.86-.33,43.83,12.9,50.21,33.96,5.64,18.62-5.13,38.08-22.74,48.88.52,3.51,2.76,7.48,5.44,10.06,22.76-12.69,36.12-36.25,28.6-59.27-.69-2.11-1.27-6.6-2.27-9.03-10.04-24.32-36.1-37.86-64.52-35.67-26.28,2.02-49.65,19.58-54.51,44.79ZM906.9,889.19c1.81,4.14,4.32,8.02,6.92,9.29,20.97-11.89,23-35.96,7.74-51.02-15.21-15.02-41.99-14.3-56.54.88-14.9,15.55-11.02,39.79,9.57,50.48,2.56-2.85,4.89-6.74,5.84-9.8-14.15-8.47-15.25-24.24-4.49-34.33,9.94-9.32,27.35-9.08,36.68.98,9.45,10.2,8.83,24.9-5.71,33.52ZM906.17,870.34c0-6.08-5.54-11.01-12.37-11.01s-12.37,4.93-12.37,11.01,5.54,11.01,12.37,11.01,12.37-4.93,12.37-11.01Z"/>
  <path class="st11" d="M987.83,969.01c-2.03,4.49-9.79,4.31-12.47,1.51l10.15-2.01-9.97-5.78c-2.36,5.04-3.01,7.39-4.66,8.79s-7.61,1.11-9.63.17c-2.36-1.09-3.48-5.88-3.19-9.92.17-2.4,5.87-5.4,8.65-4.94,2.56.42,6.12,3.35,7.75,5.33,1.82-1.96,3.8-4.74,5.43-4.93,1.96-.23,6.64,1.07,7.97,1.8l-7.5,2.14c3.86,2.46,8.5,5.53,7.46,7.84Z"/>
  <path class="st3" d="M1090,971.36c-5.64,1.45-6.08,2.96-11.2,8.52l-.67-21.77c4.02-1.39,11.9-1.33,14.09,1.12,2.75,3.07,2.35,10.97-2.22,12.14Z"/>
  <path class="st11" d="M1068.3,958.96c-3.83,2.43-4.67,6.37-5.23,10.24-.64,3.89-1.4,3.8-1.89,0-.56-4.37-1.1-7.79-4.97-10.43l-4.83,15.04c-1.18-6.45-1.33-9.72-1.63-16.02l22.92-.2c2.22,5.14,2.96,11.49-.52,15.88l-3.85-14.5Z"/>
  <path class="st11" d="M954.06,973.12l-8.25-9.02-4.66,9.51-2.26-20.64c3.92-1.78,13.72-.99,15.3,1.97-1.25,7.22-1.25,10.35-.13,18.18Z"/>
  <path class="st11" d="M1039.44,972.52l-7.17-1.2c-1.54-.26-1.21-5.67.29-6.07s13.47-2.86,9.02-4.1l-7.04-1.96c-.78-1.04,5.46-2.28,7.75-1.73s3.91,5.64,3.8,7.77l-.3,5.68c-.07,1.39-4.75,1.88-6.35,1.61Z"/>
  <path class="st11" d="M993.66,967.19l11.85,3.01c-1.95,2.74-10.42,2.99-13.2-.08-3.42-3.77-2.81-11.65,3.66-12.82,1.69-.31,6.12.04,7.33.96,1.51,1.16,2.15,5.3,1.97,6.62l-11.61,2.3Z"/>
  <path class="st11" d="M1111.43,967.43l11.56,2.93c-.6,1.83-7.19,2.46-10.67,1.49-2.65-.74-3.9-5.88-3.63-9.9.22-3.35,5.01-5.41,9.11-5.06,3.05.26,6.07,4.63,6.15,7.62l-12.53,2.93Z"/>
  <path class="st11" d="M1133.64,975.61c-.33.88-2.21,3.21-3.16,3.07l-4.95-.72,4.56-3.72c3.58-2.92-6.94-14.03-3.39-18.01l6.56,11.16c1.93-4.58,2.22-8.81,7.3-10.38l-6.92,18.59Z"/>
  <path class="st11" d="M1030.67,971.64l-13.27.95c-.48-7.7-.86-13.49.9-21.99,2.58,6.6,2.19,12.28,2.54,17.99l9.84,3.05Z"/>
  <path class="st3" d="M1100.73,965.88c-.05,2.66-.17,6.88-3.25,6.81l-.81-14.99,10.76.52c-3.38,2.64-6.65,5.08-6.7,7.66Z"/>
  <path d="M608.03,969.8c-1.96-2.58-2.69-10.19-.33-14.07,1.65-2.71,8.8,1.24,8.95,3.86.23,4.21.34,9.93-8.62,10.22Z"/>
  <path class="st0" d="M906.9,889.19c14.53-8.62,15.16-23.32,5.71-33.52-9.33-10.06-26.74-10.3-36.68-.98-10.76,10.09-9.66,25.87,4.49,34.33-.94,3.06-3.27,6.95-5.84,9.8-20.59-10.7-24.47-34.93-9.57-50.48,14.55-15.19,41.33-15.9,56.54-.88,15.26,15.07,13.23,39.14-7.74,51.02-2.6-1.27-5.1-5.16-6.92-9.29Z"/>
  <path class="st18" d="M954.41,859.33l-11.3.33c-6.38-21.05-27.35-34.29-50.21-33.96-21.86.32-43.17,13.86-48.66,33.81l-11.14-.1c4.86-25.21,28.23-42.77,54.51-44.79,28.42-2.19,54.48,11.36,64.52,35.67,1,2.42,1.58,6.91,2.27,9.03Z"/>
  <path class="st23" d="M954.41,859.33c7.51,23.02-5.84,46.58-28.6,59.27-2.67-2.57-4.91-6.54-5.44-10.06,17.61-10.8,28.38-30.27,22.74-48.88l11.3-.33Z"/>
  <path class="st23" d="M844.24,859.52c-5.44,19.77,6.16,38.61,22.96,49.1-.24,3.38-2.66,7.42-5.5,9.84-23.01-12.43-35.87-36.88-28.6-59.04l11.14.1Z"/>
  <ellipse class="st0" cx="893.8" cy="870.34" rx="12.37" ry="11.01"/>
</svg>