<?xml version="1.0" encoding="utf-8"?>
<!-- Generator: Adobe Illustrator 25.0.0, SVG Export Plug-In . SVG Version: 6.00 Build 0)  -->
<svg version="1.1" id="Ebene_1" xmlns="http://www.w3.org/2000/svg" xmlns:xlink="http://www.w3.org/1999/xlink" x="0px" y="0px"
	 viewBox="0 0 1920 1080" style="enable-background:new 0 0 1920 1080;" xml:space="preserve">
<style type="text/css">
	.st0{fill:#191A1A;}
	.st1{fill:#3C3E3F;}
	.st2{fill:#D3D9D1;}
	.st3{fill:#D0D4CB;}
	.st4{fill:#D5D7D2;}
	.st5{fill:#D4D6D2;}
	.st6{fill:#D3D8D6;}
	.st7{fill:#D0D5CF;}
	.st8{fill:#D2D6D2;}
	.st9{fill:#D0D3CE;}
	.st10{fill:#D4DEDA;}
	.st11{fill:#D1D5D0;}
	.st12{fill:#D2D4CD;}
	.st13{fill:#CFD2CD;}
	.st14{fill:#D4D6CF;}
	.st15{fill:#C4CAC6;}
	.st16{fill:#202222;}
	.st17{fill:#28252C;}
	.st18{fill:#222124;}
	.st19{fill:#2F3131;}
	.st20{fill:#2F2F2E;}
	.st21{fill:#72776E;}
	.st22{fill:#737676;}
	.st23{fill:#6D7573;}
	.st24{fill:#7C8582;}
	.st25{fill:#737E7D;}
	.st26{fill:#7A7D7D;}
	.st27{fill:#BFC6BE;}
	.st28{fill:#B5B18A;}
	.st29{fill:#4C4E4E;}
</style>
<g>
	<g>
		<path class="st0" d="M0,1080C0,720,0,360,0,0c640,0,1280,0,1920,0c0,360,0,720,0,1080C1280,1080,640,1080,0,1080z M931.2,1012.3
			c277.7,0,555.5,0,833.2,0c23.2,0,31.7-11.8,31.7-44c0-110.4,0-220.7,0-331.1c0-35.2-7.9-46.4-32.7-46.4
			c-554.6,0-1109.1,0-1663.7,0c-24.2,0-32.4,11.4-32.4,44.9c0,108.5,0,216.9,0,325.4c0,41.7,6.6,51.1,36.1,51.1
			C379.3,1012.3,655.3,1012.3,931.2,1012.3z M414.1,424.6c5.6-32.7,11.1-64.1,16.6-96.4c-3.1-0.4-6.2-1.2-6.3-0.7
			c-5.9,23.7-11.5,47.6-18.4,76.4c-4.8-24.6-9.2-44-12.3-63.8c-1.9-12.3-5.9-15.7-14.2-11.3c-5,23.8-9.9,47.6-14.9,71.4
			c-6.5-22-9.7-42.9-13.9-63.3c-0.9-4.4-5.4-7.4-8.3-11.1c-0.9,1.4-1.8,2.7-2.7,4.1c5.5,31.4,11,62.9,16.6,94.7c4.7,0,8.6,0,13.1,0
			c4.6-22.8,9.1-45.1,13.6-67.5c1.4,0,2.7-0.1,4.1-0.1c4.6,22.3,9.1,44.7,13.8,67.6C405.3,424.6,409.2,424.6,414.1,424.6z
			 M1197.6,378.9c1,0.1,2,0.1,3,0.2c2.9,13.1,5.4,26.4,9,39.1c0.9,3.3,5,6.3,7.8,6.7c1.9,0.2,5.3-3.9,6-6.9
			c4.3-20.1,8-40.4,11.9-60.7c-1.6-1-3.3-2.1-4.9-3.1c-11.5,11-6,35-15.2,49.8c-2.7-11.9-4.6-22.9-7.8-33.1
			c-1.8-6-5.7-10.7-8.7-15.9c-2.8,5.6-6.2,10.7-8.2,16.8c-2.9,9-4.8,18.6-7.7,30c-8.8-16.2-4-38.5-18.1-45.5
			c1.8,21.2,5.3,41.1,9.5,60.7c0.8,3.5,4.6,7.7,7.1,7.8c2.4,0.1,6.3-3.9,7.3-7.3C1192.2,404.9,1194.7,391.8,1197.6,378.9z
			 M999.4,393.8c2.5,27.1,15.2,37.2,34,32.8c11.9-2.8,20.2-9.9,20.4-28.7c0.2-18.5-8.9-24.4-19.5-28c-6-2.1-12.7-1.9-18.2-5.3
			c-3.1-1.9-6.1-9.1-6.2-13.9c0-3.9,4.1-10.4,7-11.3c10.1-2.9,20.6-5.5,26.5,12.2c1.1,3.3,5.3,4.7,9.4,8
			c-2.3-27-13.4-36.8-33.1-33.3c-11.4,2-20.2,8.1-20.6,26c-0.4,18.2,9.1,24.2,19.8,27.5c5.7,1.8,11.9,1.4,16.9,4.8
			c3.7,2.5,8,9.7,7.9,14.7c-0.1,5-4.6,12.5-8.3,14.2c-10.8,5.1-21.1,4-27.9-12.1C1006,397.9,1002.2,396.3,999.4,393.8z M567.6,358
			c0,21,0,43.3,0,65.6c1.1,0.9,2.3,1.8,3.4,2.7c1.7-4,4.5-7.8,4.8-12c0.8-11.2-1-23.1,1.1-33.5c1.3-6.3,8-10.5,12.2-15.7
			c3.1,5.6,8,10.8,8.8,16.9c1.5,10.9-0.1,22.5,0.7,33.6c0.3,3.9,4.1,7.2,6.3,10.8c1.2-1.2,2.3-2.3,3.5-3.5c0-13.7-1.2-27.7,0.5-40.9
			c0.8-6.4,6.7-14.8,11.3-16.3c8-2.7,10.3,6.6,10.2,16.6c-0.1,13.7,0,27.4,0,41.1c1.1,0.9,2.3,1.9,3.4,2.8c1.9-3.4,5.4-6.7,5.5-10.2
			c0.6-13.7,0.4-27.5,0.2-41.3c-0.3-13.7-6.6-22.6-15.4-20.5c-11.9,2.8-22.9,4.7-34.9-0.1C583.4,352.1,576.3,356.3,567.6,358z
			 M468.2,380.2c-6,1.3-12.1,2.2-18,3.8c-9.9,2.7-18.5,7.6-17.1,25.2c1.1,13.3,10.9,20.5,23,17.6c6.8-1.7,13.8-2.7,21.5-4.1
			c0-14.9,0.7-31.1-0.2-47.1c-1-17.5-10.3-22.2-21.2-21.7c-10.2,0.5-18.4,5.4-19.4,22.2c6.4-2.2,11.3-8.3,17-10.4
			C460.2,363.3,467.5,364.2,468.2,380.2z M775.3,329.7c-1.2-1.4-2.5-2.8-3.7-4.2c-2.1,3.6-5.9,7.1-6,10.8c-0.5,26.9-0.5,53.8,0,80.7
			c0.1,3.3,4.3,6.5,6.6,9.7c1.1-1,2.2-2,3.2-3c0-13-0.3-26.1,0.1-39.1c0.3-12.9,5.8-19.3,14.7-19.4c8.9-0.1,11.2,8.5,11.3,18.8
			c0.2,13.1,0,26.2,0,39.4c1.2,1,2.4,2.1,3.6,3.1c1.9-3.7,5.3-7.2,5.5-11.1c0.7-11.8,0.5-23.8,0.1-35.6
			c-0.6-18.5-9.1-28.4-22.3-25.8c-4.2,0.8-8.3,3-13.2,4.9C775.3,348.3,775.3,339,775.3,329.7z M1131.9,400
			c-8.6,6.7-14.7,14.2-21.4,15.8c-9.3,2.2-15.8-4.8-15.6-21.9c12.5,0,24.4,0,36.2,0c0.8-25.4-5.1-37.5-18.6-40.1
			c-13.5-2.5-24.5,7.7-27.3,25.4c-3.6,23.2,2.8,41.5,16.5,46.7C1116.2,431.5,1125.5,424.7,1131.9,400z M1411.5,399.2
			c-9.7,7.4-15.9,15.1-22.8,16.5c-8.8,1.9-15.1-5.4-14.9-21.2c12.3,0,24.2,0,36,0c2-23.8-3.8-37.1-17.1-40.5
			c-13.7-3.5-25,6.6-28.4,25.3c-3.9,21.6,2.2,40.5,14.9,46.2C1393.9,432.1,1404.3,425.2,1411.5,399.2z M866.6,394.3
			c14.8,0,26.7,0,38.4,0c1.5-25.7-4.8-38.5-19.2-40.5c-14.1-2-24.8,9.4-26.8,28.5c-2.5,24.1,4.4,40.3,18.9,44.5
			c14.1,4,23.4-4,26.8-26.3C891.7,410,878,431.4,866.6,394.3z M1456.7,423.2c1.4,1.2,2.7,2.4,4.1,3.6c1.8-3.7,4.9-7.2,5.1-11
			c0.7-11.8,0.5-23.7,0.2-35.6c-0.5-19.2-9.7-29.3-23.2-26.1c-6.7,1.6-13.4,2.8-20.9,4.3c0,20.8,0,43,0,65.3c1.1,1,2.3,1.9,3.4,2.9
			c1.8-3.9,4.8-7.6,5.1-11.8c0.8-11.1-1.4-23.4,1.3-33.3c1.9-7.1,9.4-12.8,15.3-15.3c1.8-0.7,8.4,10.9,9.2,17.7
			C1457.8,396.7,1456.7,410.1,1456.7,423.2z M1353.8,378.3c1-1.9,2.1-3.7,3.1-5.6c-3-4.9-5.6-13.4-9-14c-9.3-1.7-19.1-1.5-28.2,1.1
			c-2.7,0.8-6,12.9-5.2,18.7c2.1,15.7,12.5,14.5,21.2,17.2c4.2,1.3,7.5,7.7,11.2,11.8c-4.8,3-9.6,8-14.5,8.2
			c-3.4,0.2-6.8-6.5-10.5-9.4c-2.5-1.9-5.4-2.6-8.1-3.9c-1,2.5-1.9,4.9-2.9,7.4c5.6,5.3,10.9,14.2,16.9,15.1
			c8.2,1.2,17.9-0.8,24.9-6.5c7.8-6.4,5.5-23.6-3-29.4c-5.1-3.4-11.4-3-16.7-5.9c-3.6-1.9-6.3-6.7-9.5-10.2
			c3.6-2.7,7.1-7.3,10.8-7.5c3.8-0.2,7.9,3.8,11.7,6.3C1348.7,373.7,1351.2,376.2,1353.8,378.3z M1303.2,378.4
			c-3.3-24.8-24.3-32.6-35.8-17.6c-7.2,9.5-5.4,25,4.2,30.4c4.8,2.7,10.7,2,15.5,4.7c3.6,2,6.4,6.9,9.5,10.6
			c-3.7,3.5-7.5,9.8-11.2,9.6c-4.6-0.1-9.2-5.6-13.8-8.6c-2.7-1.8-5.6-3.3-10.2-6c6.3,26.4,30.1,34.4,41.1,17.8
			c6.6-10,4.7-25.5-4.6-31c-5.2-3.1-11.5-2.4-16.8-5.2c-3.2-1.6-5.5-6.5-8.2-9.9c3.1-2.7,6.2-7.7,9.2-7.6c4.4,0.1,8.8,3.6,13,6.2
			C1298,373.6,1300.5,376.2,1303.2,378.4z M486.5,400.2c2.1,17.6,7.8,25.6,16.5,25.4c8.4-0.1,18.4-1.2,24.6-7.6
			c7-7.3,5.9-20.9-2.7-28.2c-4.3-3.7-10.4-3.3-15.2-6.3c-4.2-2.6-7.7-7.2-11.5-11c4.6-2.5,9.1-6.6,13.7-6.9c3.1-0.2,6.3,5.5,9.7,7.9
			c2.5,1.8,5.4,2.5,9.7,4.3c-6.5-24.5-28.3-31.9-38.9-16.5c-6.3,9.1-4.5,24.6,4,29.6c4.8,2.8,10.7,2,15.5,4.8
			c3.9,2.3,6.8,7.7,10.2,11.7c-4,3.2-7.9,8.7-11.9,8.8c-4.2,0.1-8.5-5-12.7-8C494.5,406.3,491.7,404.1,486.5,400.2z M701,391.2
			c0.1-23.1-9.3-37.2-25.2-37.5c-15.5-0.3-26.2,14.4-26.3,36.5c-0.2,22.2,10.1,37.3,25.6,37.7C690.8,428.2,700.9,413.9,701,391.2z
			 M922.7,426.9c1.2-1.5,2.4-3,3.5-4.4c0-13.1-1.7-26.8,0.6-39c1.4-7.3,8.4-15.6,13.9-17.4c8.3-2.7,11.1,7.4,11.1,18
			c0,10.6-0.5,21.3,0.3,31.8c0.3,3.7,3.8,6.9,5.9,10.3c1.1-1.1,2.3-2.2,3.4-3.3c0-3.7,0-7.4,0-11.1c0-10.6,0.2-21.3-0.1-31.9
			c-0.5-17.9-8.2-27.6-20.9-26c-7.7,1-15.4,2.8-24.5,4.5c0,18.7-0.3,38.6,0.3,58.4C916.5,420.3,920.5,423.5,922.7,426.9z M753.4,399
			c-2.6,2.9-5.7,5.2-7.8,8.7c-6.8,11.5-14.5,11.4-22.2,2.9c-6.9-7.8-6.9-30.9-0.1-39.3c7.5-9.2,15-9,22.2,2.1
			c2.3,3.6,6.1,5.2,11.6,9.7c-5.6-23.8-15-32.2-28.2-29.1c-13.1,3.1-21,17.7-20.6,38c0.4,20.3,8.6,33.3,22.4,35.6
			C744,429.8,752.3,421.6,753.4,399z M839.1,352.3c-0.3-3.5,0.1-8.5-1.4-11.7c-1-2.1-4.8-1.8-7.3-2.5c2.4,14.8-9,15.6-14.1,24.5
			c4.9,2.3,8.5,4,12.8,6.1c0,9.8,0,19.8,0,29.7c0,26.3,4.2,30.7,24.9,20c-4.8-2.3-9.6-4.6-14.8-7.1c0-14.2,0-28.9,0-43.5
			c5.3-1.5,9.8-2.8,14.3-4c0.2-1.6,0.4-3.2,0.6-4.7C849.6,357.1,845.3,355.1,839.1,352.3z M1473.3,358.1c5.2-5.3,7.7-8.7,10.7-10.8
			c5.6-3.9,11.3-9.1,17.2-9.7c3.4-0.3,10.6,8.5,10.1,11.1c-1.4,7.5-5.9,13.8-8.9,20.8c-3.2,7.5-6.3,15-9,22.9
			c-0.4,1.2,1.9,5.7,3.3,6.2c1.5,0.5,4.1-1.4,5.3-3.3c4.5-7.6,8.2-16.2,13.1-23.2c7.7-11.1,10.7-25.5,2.7-34.6
			c-6.9-7.7-18.4-9.6-27.9-9.8C1480.1,327.5,1474.5,337.8,1473.3,358.1z M1243.8,423.5c1.2,1,2.4,2,3.6,3.1
			c1.9-3.8,5.2-7.4,5.4-11.3c0.6-16.1,0.5-32.4,0.1-48.6c-0.1-3.9-2.7-7.7-4.2-11.5c-1.6,4.2-4.5,8.3-4.6,12.5
			C1243.5,386.3,1243.8,404.9,1243.8,423.5z M1070.8,427.1c1.2-1.5,2.3-2.9,3.5-4.4c0-19.3,0.3-38.6-0.2-57.9
			c-0.1-3.4-3.4-6.6-5.3-9.9c-1.6,3.1-4.4,6.2-4.5,9.4c-0.4,17.5-0.6,35,0.1,52.4C1064.5,420.4,1068.6,423.7,1070.8,427.1z"/>
		<path class="st1" d="M931.2,1012.3c-275.9,0-551.9,0-827.8,0c-29.5,0-36.1-9.4-36.1-51.1c0-108.5,0-216.9,0-325.4
			c0-33.5,8.2-44.9,32.4-44.9c554.6,0,1109.1,0,1663.7,0c24.8,0,32.7,11.2,32.7,46.4c0,110.4,0,220.7,0,331.1c0,32.2-8.5,44-31.7,44
			C1486.7,1012.3,1208.9,1012.3,931.2,1012.3z M931.5,598.3c-277.3,0-554.5,0-831.8,0c-21.3,0-27,8-27,38c0,110.3,0,220.7,0,331
			c0,28.9,5.9,37.4,26.1,37.4c555.4,0,1110.9,0,1666.3,0c19.5,0,25.6-8.7,25.6-36.1c0-109.7,0-219.4,0-329.2
			c0-34.8-4.6-41.1-30.1-41.1C1484.3,598.3,1207.9,598.3,931.5,598.3z"/>
		<path class="st2" d="M414.1,424.6c-5,0-8.9,0-13.2,0c-4.7-22.9-9.2-45.2-13.8-67.6c-1.4,0-2.7,0.1-4.1,0.1
			c-4.5,22.4-9,44.8-13.6,67.5c-4.5,0-8.4,0-13.1,0c-5.6-31.8-11.1-63.2-16.6-94.7c0.9-1.4,1.8-2.7,2.7-4.1
			c2.9,3.7,7.4,6.7,8.3,11.1c4.2,20.4,7.4,41.3,13.9,63.3c5-23.8,9.9-47.6,14.9-71.4c8.2-4.4,12.2-1.1,14.2,11.3
			c3.1,19.8,7.4,39.2,12.3,63.8c6.9-28.9,12.5-52.7,18.4-76.4c0.1-0.6,3.2,0.3,6.3,0.7C425.2,360.5,419.8,391.9,414.1,424.6z"/>
		<path class="st3" d="M1197.6,378.9c-2.9,12.9-5.4,26-8.9,38.6c-1,3.4-4.8,7.4-7.3,7.3c-2.5-0.1-6.3-4.3-7.1-7.8
			c-4.3-19.6-7.8-39.5-9.5-60.7c14.1,7,9.3,29.3,18.1,45.5c2.9-11.5,4.7-21.1,7.7-30c2-6.1,5.4-11.2,8.2-16.8c3,5.3,6.8,10,8.7,15.9
			c3.2,10.2,5.1,21.2,7.8,33.1c9.1-14.8,3.7-38.8,15.2-49.8c1.6,1,3.3,2.1,4.9,3.1c-3.9,20.3-7.6,40.6-11.9,60.7
			c-0.6,3-4.1,7.2-6,6.9c-2.8-0.4-6.9-3.4-7.8-6.7c-3.6-12.7-6.1-26-9-39.1C1199.6,379,1198.6,378.9,1197.6,378.9z"/>
		<path class="st4" d="M999.4,393.8c2.8,2.5,6.6,4,8.1,7.6c6.9,16,17.1,17.1,27.9,12.1c3.7-1.7,8.2-9.2,8.3-14.2
			c0.1-5-4.2-12.2-7.9-14.7c-5-3.4-11.3-3-16.9-4.8c-10.7-3.3-20.2-9.3-19.8-27.5c0.4-17.8,9.2-23.9,20.6-26
			c19.7-3.5,30.8,6.2,33.1,33.3c-4.1-3.3-8.3-4.7-9.4-8c-5.9-17.7-16.4-15-26.5-12.2c-2.9,0.8-7,7.4-7,11.3c0.1,4.9,3.1,12,6.2,13.9
			c5.5,3.4,12.2,3.2,18.2,5.3c10.6,3.6,19.7,9.5,19.5,28c-0.2,18.8-8.5,25.9-20.4,28.7C1014.7,431,1001.9,420.9,999.4,393.8z"/>
		<path class="st5" d="M567.6,358c8.7-1.7,15.8-5.9,21.6-3.6c12,4.7,23,2.9,34.9,0.1c8.8-2.1,15.1,6.8,15.4,20.5
			c0.3,13.8,0.5,27.6-0.2,41.3c-0.2,3.6-3.6,6.8-5.5,10.2c-1.1-0.9-2.3-1.9-3.4-2.8c0-13.7-0.1-27.4,0-41.1
			c0.1-10-2.2-19.3-10.2-16.6c-4.6,1.5-10.4,9.9-11.3,16.3c-1.7,13.2-0.5,27.2-0.5,40.9c-1.2,1.2-2.3,2.3-3.5,3.5
			c-2.2-3.6-6-6.9-6.3-10.8c-0.9-11.1,0.7-22.8-0.7-33.6c-0.8-6.2-5.7-11.3-8.8-16.9c-4.3,5.1-10.9,9.3-12.2,15.7
			c-2.1,10.5-0.3,22.4-1.1,33.5c-0.3,4.2-3.1,8-4.8,12c-1.1-0.9-2.3-1.8-3.4-2.7C567.6,401.3,567.6,379,567.6,358z"/>
		<path class="st6" d="M468.2,380.2c-0.7-16-8-16.9-14.5-14.6c-5.7,2.1-10.6,8.2-17,10.4c1-16.9,9.2-21.7,19.4-22.2
			c10.9-0.5,20.2,4.2,21.2,21.7c0.9,16,0.2,32.3,0.2,47.1c-7.7,1.5-14.6,2.5-21.5,4.1c-12.1,2.9-21.9-4.2-23-17.6
			c-1.4-17.6,7.2-22.5,17.1-25.2C456.1,382.5,462.2,381.5,468.2,380.2z M470.4,396.4c-1.1-1.6-2.2-3.2-3.3-4.8
			c-4.3,1-8.9,1.1-12.9,3.2c-4.2,2.2-8.2,5.9-11.8,9.6c-0.5,0.5,0.9,7.5,2,7.8c5,1.5,11,4.3,14.9,1.6
			C463.9,410.7,466.8,402.4,470.4,396.4z"/>
		<path class="st7" d="M775.3,329.7c0,9.3,0,18.6,0,29.2c5-1.9,9-4.1,13.2-4.9c13.2-2.5,21.7,7.3,22.3,25.8
			c0.4,11.9,0.6,23.8-0.1,35.6c-0.2,3.9-3.6,7.4-5.5,11.1c-1.2-1-2.4-2.1-3.6-3.1c0-13.1,0.1-26.3,0-39.4
			c-0.1-10.4-2.4-18.9-11.3-18.8c-9,0.1-14.4,6.5-14.7,19.4c-0.3,13-0.1,26.1-0.1,39.1c-1.1,1-2.2,2-3.2,3c-2.3-3.2-6.5-6.4-6.6-9.7
			c-0.5-26.9-0.5-53.8,0-80.7c0.1-3.7,3.9-7.2,6-10.8C772.8,326.9,774.1,328.3,775.3,329.7z"/>
		<path class="st8" d="M1131.9,400c-6.4,24.7-15.6,31.5-30.2,26c-13.7-5.2-20.1-23.5-16.5-46.7c2.8-17.7,13.8-27.9,27.3-25.4
			c13.5,2.5,19.4,14.7,18.6,40.1c-11.8,0-23.6,0-36.2,0c-0.3,17.1,6.2,24.1,15.6,21.9C1117.2,414.2,1123.2,406.7,1131.9,400z
			 M1123.1,383.3c-2.4-14.8-8.4-20.8-16.6-17.7c-5,1.8-8.9,9-13.3,13.8c0.8,1.3,1.5,2.6,2.3,4C1104.2,383.3,1113,383.3,1123.1,383.3
			z"/>
		<path class="st9" d="M1411.5,399.2c-7.3,25.9-17.6,32.9-32.2,26.3c-12.7-5.7-18.8-24.6-14.9-46.2c3.4-18.8,14.7-28.8,28.4-25.3
			c13.2,3.4,19.1,16.7,17.1,40.5c-11.8,0-23.7,0-36,0c-0.3,15.8,6.1,23.1,14.9,21.2C1395.6,414.3,1401.8,406.6,1411.5,399.2z
			 M1401.7,383.2c-1.6-14.7-7.5-20.4-15.3-17.6c-5.2,1.8-9.5,8.7-14.2,13.3c0.7,1.4,1.4,2.9,2.1,4.3
			C1383.2,383.2,1392,383.2,1401.7,383.2z"/>
		<path class="st4" d="M866.6,394.3c11.4,37.1,25.2,15.7,38.2,6.1c-3.5,22.4-12.7,30.4-26.8,26.3c-14.5-4.1-21.5-20.4-18.9-44.5
			c2-19.1,12.7-30.4,26.8-28.5c14.3,2,20.7,14.8,19.2,40.5C893.2,394.3,881.4,394.3,866.6,394.3z M867.3,378.3
			c0.7,1.5,1.4,2.9,2.1,4.4c9,0,18,0,27.6,0c-1.6-13.4-7.1-19.6-15-17.1C876.6,367.2,872.1,373.8,867.3,378.3z"/>
		<path class="st10" d="M1456.7,423.2c0-13.1,1.1-26.5-0.4-39.2c-0.8-6.8-7.4-18.4-9.2-17.7c-5.9,2.5-13.3,8.2-15.3,15.3
			c-2.7,9.9-0.5,22.2-1.3,33.3c-0.3,4.1-3.3,7.9-5.1,11.8c-1.1-1-2.3-1.9-3.4-2.9c0-22.3,0-44.5,0-65.3c7.4-1.5,14.2-2.6,20.9-4.3
			c13.5-3.2,22.7,6.9,23.2,26.1c0.3,11.9,0.5,23.8-0.2,35.6c-0.2,3.8-3.3,7.3-5.1,11C1459.5,425.6,1458.1,424.4,1456.7,423.2z"/>
		<path class="st11" d="M1353.8,378.3c-2.6-2.2-5.1-4.6-7.8-6.4c-3.8-2.5-7.8-6.4-11.7-6.3c-3.6,0.2-7.2,4.8-10.8,7.5
			c3.1,3.5,5.9,8.3,9.5,10.2c5.3,2.9,11.6,2.5,16.7,5.9c8.6,5.8,10.8,23,3,29.4c-6.9,5.7-16.7,7.8-24.9,6.5
			c-5.9-0.9-11.3-9.8-16.9-15.1c1-2.5,1.9-4.9,2.9-7.4c2.7,1.3,5.7,2,8.1,3.9c3.7,2.9,7.1,9.6,10.5,9.4c4.9-0.3,9.7-5.3,14.5-8.2
			c-3.7-4.1-7.1-10.5-11.2-11.8c-8.7-2.7-19.1-1.5-21.2-17.2c-0.8-5.9,2.5-17.9,5.2-18.7c9.1-2.7,18.9-2.8,28.2-1.1
			c3.4,0.6,6,9.1,9,14C1355.9,374.6,1354.9,376.5,1353.8,378.3z"/>
		<path class="st9" d="M1303.2,378.4c-2.7-2.2-5.2-4.8-8-6.6c-4.2-2.6-8.6-6.1-13-6.2c-3-0.1-6.2,4.9-9.2,7.6c2.7,3.4,5,8.3,8.2,9.9
			c5.4,2.7,11.6,2.1,16.8,5.2c9.3,5.5,11.2,21,4.6,31c-11,16.6-34.8,8.6-41.1-17.8c4.6,2.7,7.5,4.2,10.2,6c4.6,3,9.1,8.5,13.8,8.6
			c3.7,0.1,7.5-6.2,11.2-9.6c-3.1-3.6-5.9-8.6-9.5-10.6c-4.9-2.7-10.7-1.9-15.5-4.7c-9.6-5.4-11.4-20.9-4.2-30.4
			C1278.8,345.8,1299.8,353.6,1303.2,378.4z"/>
		<path class="st5" d="M486.5,400.2c5.2,3.9,8,6.1,11,8.1c4.2,2.9,8.5,8,12.7,8c4-0.1,7.9-5.6,11.9-8.8c-3.3-4-6.3-9.4-10.2-11.7
			c-4.8-2.8-10.7-2-15.5-4.8c-8.5-4.9-10.3-20.5-4-29.6c10.6-15.4,32.5-8,38.9,16.5c-4.3-1.8-7.2-2.5-9.7-4.3
			c-3.4-2.4-6.5-8.1-9.7-7.9c-4.6,0.2-9.1,4.4-13.7,6.9c3.8,3.7,7.4,8.4,11.5,11c4.8,3,10.8,2.6,15.2,6.3c8.6,7.3,9.7,20.9,2.7,28.2
			c-6.2,6.5-16.3,7.5-24.6,7.6C494.3,425.8,488.6,417.8,486.5,400.2z"/>
		<path class="st8" d="M701,391.2c-0.1,22.7-10.2,37-25.9,36.6c-15.5-0.3-25.7-15.4-25.6-37.7c0.2-22,10.8-36.7,26.3-36.5
			C691.7,354,701.2,368.1,701,391.2z M691.7,392.1c0.1-16.8-6.9-27.8-16.7-26.9c-11.3,0.9-15.2,11.3-15.4,25.4
			c-0.3,15.9,6.7,27.1,16.5,26C687,415.3,690.9,404.7,691.7,392.1z"/>
		<path class="st12" d="M922.7,426.9c-2.2-3.4-6.2-6.7-6.3-10.2c-0.6-19.8-0.3-39.7-0.3-58.4c9.1-1.7,16.7-3.5,24.5-4.5
			c12.6-1.6,20.4,8.1,20.9,26c0.3,10.6,0.1,21.3,0.1,31.9c0,3.7,0,7.4,0,11.1c-1.1,1.1-2.3,2.2-3.4,3.3c-2.1-3.4-5.6-6.6-5.9-10.3
			c-0.8-10.5-0.3-21.2-0.3-31.8c0-10.6-2.8-20.7-11.1-18c-5.5,1.8-12.6,10.2-13.9,17.4c-2.3,12.2-0.6,25.9-0.6,39
			C925.1,424,923.9,425.4,922.7,426.9z"/>
		<path class="st13" d="M753.4,399c-1.2,22.6-9.4,30.9-22.6,28.6c-13.8-2.3-22-15.3-22.4-35.6c-0.4-20.2,7.5-34.9,20.6-38
			c13.2-3.1,22.6,5.3,28.2,29.1c-5.5-4.5-9.3-6.1-11.6-9.7c-7.1-11.1-14.6-11.3-22.2-2.1c-6.9,8.4-6.8,31.5,0.1,39.3
			c7.6,8.6,15.3,8.6,22.2-2.9C747.8,404.2,750.8,401.8,753.4,399z"/>
		<path class="st2" d="M839.1,352.3c6.2,2.8,10.6,4.8,15,6.7c-0.2,1.6-0.4,3.2-0.6,4.7c-4.5,1.3-9,2.6-14.3,4c0,14.7,0,29.4,0,43.5
			c5.2,2.5,10,4.8,14.8,7.1c-20.6,10.6-24.8,6.3-24.9-20c0-9.9,0-19.9,0-29.7c-4.3-2.1-7.9-3.8-12.8-6.1c5.1-8.9,16.5-9.7,14.1-24.5
			c2.5,0.7,6.3,0.4,7.3,2.5C839.2,343.9,838.7,348.8,839.1,352.3z"/>
		<path class="st14" d="M1473.3,358.1c1.1-20.2,6.7-30.6,16.7-30.4c9.5,0.1,21,2.1,27.9,9.8c8,9,5,23.5-2.7,34.6
			c-4.9,7-8.6,15.7-13.1,23.2c-1.2,2-3.7,3.8-5.3,3.3c-1.4-0.5-3.7-5-3.3-6.2c2.6-7.9,5.7-15.5,9-22.9c3-7,7.5-13.3,8.9-20.8
			c0.5-2.6-6.7-11.4-10.1-11.1c-5.9,0.6-11.6,5.8-17.2,9.7C1481.1,349.4,1478.5,352.8,1473.3,358.1z"/>
		<path class="st10" d="M1243.8,423.5c0-18.6-0.3-37.3,0.2-55.8c0.1-4.2,3-8.3,4.6-12.5c1.5,3.8,4.1,7.6,4.2,11.5
			c0.5,16.2,0.6,32.4-0.1,48.6c-0.1,3.9-3.5,7.6-5.4,11.3C1246.2,425.6,1245,424.5,1243.8,423.5z"/>
		<path class="st15" d="M1070.8,427.1c-2.2-3.4-6.3-6.7-6.4-10.3c-0.7-17.4-0.5-35-0.1-52.4c0.1-3.2,2.9-6.3,4.5-9.4
			c1.8,3.3,5.2,6.5,5.3,9.9c0.5,19.3,0.2,38.6,0.2,57.9C1073.2,424.2,1072,425.7,1070.8,427.1z"/>
		<path class="st16" d="M931.5,598.3c276.4,0,552.8,0,829.1,0c25.5,0,30.1,6.3,30.1,41.1c0,109.7,0,219.4,0,329.2
			c0,27.4-6.1,36.1-25.6,36.1c-555.4,0-1110.9,0-1666.3,0c-20.2,0-26.1-8.5-26.1-37.4c0-110.3,0-220.7,0-331c0-30,5.7-38,27-38
			C377,598.3,654.2,598.3,931.5,598.3z M535.8,707.2c1.7-5.1,3.5-10.3,5.2-15.4c1.3-19.4-6.8-16.8-15.5-13c-2.5,0.6-5.5,2.7-7.6,1.5
			c-9.6-5.5-18.4-9.2-24.1,8.1c-0.7,2.1-3.7,2.8-5.6,4.2c-1.2-5.3-1.4-13.2-4-15.1c-2.9-2.2-7.8,0.9-11.9,1.7
			c0.1,1.1,0.3,2.2,0.4,3.3c3.6,0.3,7.3,0.6,10.9,0.8c0,1.1,0,2.2,0.1,3.3c-2.4,1-4.8,2-7.2,3c-1.8,4.5-3.6,9.1-5.3,13.6
			c3.5,1.3,7.1,2.6,10.6,4c4.2,0.4,9.6-1.4,12.3,1.6c15.7,17.2,16.5,17.3,26.7-6.7c2.3,1.6,4.6,3.3,6.9,4.9
			C530.5,707.1,533.2,707.2,535.8,707.2z M1618.1,903c-2.7,3.7-5.3,7.3-8,11c-8.1,1.3-9.9,8.1-6.4,17.1c3.8,9.6,11,13.7,16.7,5.8
			c4-5.6,16.7-7.5,8.9-22.8c0.8-6.1,1.7-12.3,2.5-18.4C1625.7,892.2,1620.7,893.2,1618.1,903z M218,854.2c-26,0-52-0.2-78,0
			c-26.5,0.2-45.5,24.9-45.7,59.4c-0.3,35.3,18.8,60.8,46,60.9c52,0.2,104,0.2,156,0c26.5-0.1,45.5-24.9,45.7-59.3
			c0.3-35.3-18.8-60.7-46-60.9C270,854.1,244,854.2,218,854.2z M1769.2,914.4c0-33.1-18.7-59.7-42.4-60.2
			c-24.3-0.5-43.7,26.3-43.7,60.2c0,33.1,18.7,59.7,42.4,60.2C1749.7,975.1,1769.2,948.3,1769.2,914.4z M1509.7,894.7
			c-11.2-3.6-16.5,5.2-17,20.8c-0.4,12.4,9.3,25.2,18.1,25.2c9.5,0,19-13.8,18-27.1C1527.6,898.6,1521.7,891.6,1509.7,894.7z
			 M142.3,675.3c-4.4-13.5-11.1-15-19.1-10.9c-8.6,4.5-9.4,11.6-3.7,21.5c0.9,1.6-2.6,7.8-1.7,9.6c2.3,4.8,5.9,11.9,8.9,11.8
			c5.4-0.3,10.8-5.1,16.1-8c-1.9-4.9-3-11.2-5.9-14.4c-3.6-4-8.7-5.5-13.2-8.1c0.5-2.3,1-4.6,1.5-6.8
			C130.4,671.7,135.5,673.2,142.3,675.3z M235.2,698.4c0.8-4.6,2.4-12.9,3.3-18c-3.9,4.5-9.2,5.7-16.4-1.7c-2.7-2.8-12.4,0.7-14.2,5
			c-2.1,5-0.5,16.3,2.5,20.9c2.3,3.5,9.4,0.7,14.4,0.7c-0.1-1.9-0.3-3.7-0.4-5.6c-4,0-8,0-12,0c0.3-2.6,0.5-5.2,0.8-7.7
			C220.5,694.2,227.9,696.3,235.2,698.4z M269.2,694.9c-0.9,2-1.8,3.9-2.6,5.9c4.7,2.5,9.4,7.1,13.9,6.8c3.9-0.2,7.7-6,11.5-9.3
			c-2.6-4.9-4.9-10.3-8-14.3c-2.2-2.7-5.8-3.1-8.5-5c-0.9-0.6-1.1-3-2-5.8c3.3-1.9,6.2-3.6,9-5.3c-0.4-1.6-0.8-3.1-1.1-4.7
			c-4.3,2.3-8.7,4.7-13,7c2.3,5.7,4.4,11.6,7.1,16.9c0.8,1.5,3.7,0.6,5,2.1c2.1,2.4,3.5,5.7,5.3,8.7c-3,1.4-6.1,4.2-9,3.8
			C274,701.3,271.6,697.3,269.2,694.9z M312.1,700.2c0-1.8,0.1-3.6,0.1-5.4c4.6-1.1,9.1-2.2,18.5-4.6c-6.3-6.7-10.1-13.9-13.2-13.3
			c-4.1,0.8-9.6,6.6-10.9,12c-1.1,4.6,1.9,14.1,5,16.7c3.2,2.6,8.8-0.7,13.4-1.4c-0.3-0.9-0.6-1.9-0.9-2.8
			C320.1,701,316.1,700.6,312.1,700.2z M163.4,702.3c7.7-5.1,13.2-8.7,19.3-12.7c-1.8-12.8-7.9-17.3-15.5-11.6
			C158.5,684.3,159.6,694.8,163.4,702.3z M416.1,687.8c-3.9-4.3-7-10-10.7-11c-3-0.9-9,2.6-9.9,6.1c-1.6,6.3-0.5,14-0.5,18
			C401.8,696.6,407.2,693.3,416.1,687.8z M195.3,666.4c-0.8,0.1-1.5,0.2-2.3,0.3c0,12.3,0,24.5,0,36.8c0.8-0.1,1.5-0.2,2.3-0.3
			C195.3,690.9,195.3,678.6,195.3,666.4z"/>
		<path class="st17" d="M470.4,396.4c-3.6,6.1-6.5,14.4-11.1,17.5c-3.9,2.7-10-0.1-14.9-1.6c-1.1-0.3-2.5-7.3-2-7.8
			c3.7-3.8,7.6-7.5,11.8-9.6c4-2,8.6-2.2,12.9-3.2C468.2,393.2,469.3,394.8,470.4,396.4z"/>
		<path class="st18" d="M1123.1,383.3c-10.1,0-18.9,0-27.6,0c-0.8-1.3-1.5-2.6-2.3-4c4.4-4.8,8.4-11.9,13.3-13.8
			C1114.7,362.5,1120.7,368.5,1123.1,383.3z"/>
		<path class="st16" d="M1401.7,383.2c-9.7,0-18.5,0-27.4,0c-0.7-1.4-1.4-2.9-2.1-4.3c4.7-4.6,9-11.5,14.2-13.3
			C1394.2,362.9,1400.1,368.5,1401.7,383.2z"/>
		<path class="st18" d="M867.3,378.3c4.9-4.4,9.4-11.1,14.6-12.7c7.9-2.5,13.5,3.7,15,17.1c-9.6,0-18.6,0-27.6,0
			C868.7,381.2,868,379.7,867.3,378.3z"/>
		<path class="st18" d="M691.7,392.1c-0.8,12.6-4.7,23.2-15.7,24.5c-9.7,1.1-16.7-10.2-16.5-26c0.2-14.1,4.1-24.5,15.4-25.4
			C684.8,364.3,691.8,375.3,691.7,392.1z"/>
		<path class="st19" d="M218,854.2c26,0,52-0.1,78,0c27.2,0.2,46.3,25.7,46,60.9c-0.3,34.4-19.2,59.3-45.7,59.3
			c-52,0.2-104,0.2-156,0c-27.2-0.1-46.3-25.7-46-60.9c0.3-34.4,19.2-59.1,45.7-59.4C166,854.1,192,854.2,218,854.2z M223.4,927.2
			c1.7-0.7,4.6-1.1,4.8-2.3c0.8-4.8,0.7-9.9,0.9-14.8c1.3,1.9,2.7,3.8,4,5.7c0,2.6,0,5.1,0.1,7.7c0.6,2.8,1,8,1.8,8.1
			c7.9,1.2,15.9,2.9,23.6,1.3c2.8-0.6,6.7-10.4,6.2-15.2c-0.5-4.9-5.4-11.1-9.2-12.5c-3.5-1.3-8,3.1-12,4.9c-2.5-3.9-5.1-7.8-7.1-11
			c-3,3.4-5.4,6.1-7.7,8.8c-12.4,1.2-4.4,12.7-5.2,19.9c-12.1,5.9-19.6,0.9-22.6-17.3c-0.9-5.3-4.4-9.8-6.8-14.7
			c-2.7,5.1-5.9,9.8-7.8,15.4c-2.3,6.6-3.5,13.9-5.8,23.7c6.5-4.6,12.1-10.7,13.5-9.2C203.9,935.9,213.8,925.1,223.4,927.2z"/>
		<path class="st20" d="M1769.2,914.4c0,33.9-19.5,60.6-43.7,60.2c-23.7-0.5-42.4-27-42.4-60.2c0-33.9,19.5-60.7,43.7-60.2
			C1750.5,854.7,1769.2,881.3,1769.2,914.4z M1731.7,902.7c-0.9-0.5-1.9-1.1-2.8-1.6c0.7,0.9,1.5,1.8,2.2,2.6
			c-5.3,3.6-10.6,7.2-15.8,10.8c5.2,3.5,10.5,7,15.8,10.6c-1.3,1-2.6,2.1-3.8,3.1c0.4,0.8,0.8,1.5,1.2,2.3c1.1-1.4,2.2-2.9,3.3-4.3
			c3.2-3.7,6.3-7.4,10.1-11.9C1737.7,909.5,1734.7,906.1,1731.7,902.7z"/>
		<path class="st21" d="M488.3,692.7c1.9-1.4,4.9-2,5.6-4.2c5.7-17.4,14.4-13.7,24.1-8.1c2,1.2,5-0.9,7.6-1.5
			c0.8,4.6,1.7,9.2,2.5,13.8c0.8,3.7,1.6,7.4,2.4,11.2c-0.9,1.1-1.7,2.2-2.6,3.3c-2.3-1.6-4.6-3.3-6.9-4.9
			c-10.2,24-11,23.9-26.7,6.7c-2.7-3-8.1-1.2-12.3-1.6c-3.5-1.3-7.1-2.6-10.6-4c1.8-4.5,3.6-9.1,5.3-13.6c3.6,3.5,7.1,7,10.7,10.5
			C487.6,697.6,488,695.2,488.3,692.7z"/>
		<path class="st22" d="M1509.7,894.7c12-3.1,17.9,3.9,19,18.8c1,13.3-8.5,27.1-18,27.1c-8.8,0-18.5-12.8-18.1-25.2
			C1493.2,899.9,1498.5,891.1,1509.7,894.7z"/>
		<path class="st23" d="M142.3,675.3c-6.8-2.1-11.9-3.7-17-5.3c-0.5,2.3-1,4.6-1.5,6.8c4.5,2.6,9.5,4.1,13.2,8.1
			c2.9,3.2,4,9.5,5.9,14.4c-5.4,2.9-10.7,7.7-16.1,8c-3,0.1-6.6-7-8.9-11.8c-0.9-1.9,2.6-8.1,1.7-9.6c-5.6-9.9-4.9-17,3.7-21.5
			C131.2,660.3,137.9,661.8,142.3,675.3z"/>
		<path class="st24" d="M235.2,698.4c-7.4-2.1-14.7-4.3-22.1-6.4c-0.3,2.6-0.5,5.2-0.8,7.7c4,0,8,0,12,0c0.1,1.9,0.3,3.7,0.4,5.6
			c-5,0-12.1,2.8-14.4-0.7c-3-4.6-4.6-15.9-2.5-20.9c1.8-4.4,11.4-7.8,14.2-5c7.3,7.4,12.5,6.2,16.4,1.7
			C237.6,685.5,236.1,693.9,235.2,698.4z"/>
		<path class="st25" d="M269.2,694.9c2.5,2.4,4.8,6.4,7.5,6.8c2.9,0.5,6-2.4,9-3.8c-1.7-2.9-3.2-6.3-5.3-8.7c-1.2-1.4-4.2-0.5-5-2.1
			c-2.7-5.3-4.7-11.2-7.1-16.9c4.3-2.3,8.7-4.7,13-7c0.4,1.6,0.8,3.1,1.1,4.7c-2.9,1.7-5.8,3.4-9,5.3c0.9,2.8,1.2,5.2,2,5.8
			c2.8,2,6.4,2.3,8.5,5c3.2,4,5.4,9.5,8,14.3c-3.8,3.3-7.6,9-11.5,9.3c-4.6,0.3-9.3-4.3-13.9-6.8
			C267.4,698.8,268.3,696.9,269.2,694.9z"/>
		<path class="st24" d="M312.1,700.2c4,0.4,8,0.8,12,1.2c0.3,0.9,0.6,1.9,0.9,2.8c-4.6,0.7-10.2,4-13.4,1.4
			c-3.2-2.5-6.1-12.1-5-16.7c1.3-5.4,6.8-11.2,10.9-12c3.1-0.6,6.9,6.6,13.2,13.3c-9.3,2.3-13.9,3.4-18.5,4.6
			C312.2,696.6,312.2,698.4,312.1,700.2z"/>
		<path class="st26" d="M163.4,702.3c-3.8-7.5-4.9-18,3.7-24.3c7.7-5.6,13.7-1.2,15.5,11.6C176.7,693.6,171.1,697.3,163.4,702.3z"/>
		<path class="st26" d="M1610.2,913.9c2.7-3.7,5.3-7.3,8-11c4.6-2.4,9.1-4.9,13.7-7.3c-0.8,6.1-1.7,12.3-2.5,18.4
			c-5,5.3-10.1,10.5-15.1,15.8C1612.9,924.5,1611.5,919.2,1610.2,913.9z"/>
		<path class="st23" d="M1610.2,913.9c1.4,5.3,2.7,10.6,4.1,15.9c5-5.3,10.1-10.5,15.1-15.8c7.9,15.3-4.9,17.3-8.9,22.8
			c-5.6,7.9-12.9,3.8-16.7-5.8C1600.2,922,1602,915.3,1610.2,913.9z"/>
		<path class="st26" d="M416.1,687.8c-8.9,5.5-14.2,8.9-21,13.1c0-4-1.2-11.7,0.5-18c0.9-3.5,6.8-7,9.9-6.1
			C409.1,677.8,412.1,683.4,416.1,687.8z"/>
		<path class="st25" d="M488.3,692.7c-0.3,2.5-0.6,5-1,7.4c-3.6-3.5-7.1-7-10.7-10.5c2.4-1,4.8-2,7.2-3c0-1.1,0-2.2-0.1-3.3
			c-3.6-0.3-7.3-0.6-10.9-0.8c-0.1-1.1-0.3-2.2-0.4-3.3c4.1-0.8,9-3.9,11.9-1.7C486.9,679.5,487.1,687.4,488.3,692.7z"/>
		<path class="st24" d="M528,692.6c-0.8-4.6-1.7-9.2-2.5-13.8c8.7-3.8,16.8-6.4,15.5,13c-1.7,0.2-3.4,0.4-5.1,0.6
			C533.3,692.5,530.7,692.5,528,692.6z"/>
		<path class="st17" d="M195.3,666.4c0,12.3,0,24.5,0,36.8c-0.8,0.1-1.5,0.2-2.3,0.3c0-12.3,0-24.5,0-36.8
			C193.8,666.6,194.6,666.5,195.3,666.4z"/>
		<path class="st23" d="M1631.8,895.7c-4.6,2.4-9.1,4.9-13.7,7.3C1620.7,893.2,1625.7,892.2,1631.8,895.7z"/>
		<path class="st21" d="M535.9,692.4c1.7-0.2,3.4-0.4,5.1-0.6c-1.7,5.1-3.5,10.3-5.2,15.4c0-1.4,0-2.8,0-4.2
			C535.8,699.5,535.9,695.9,535.9,692.4z"/>
		<path class="st25" d="M471.3,703.2c3.5,1.3,7.1,2.6,10.6,4C478.4,705.8,474.9,704.5,471.3,703.2z"/>
		<path class="st24" d="M535.8,703c0,1.4,0,2.8,0,4.2c-2.6-0.1-5.3-0.1-7.9-0.2c0.9-1.1,1.7-2.2,2.6-3.3
			C532.2,703.5,534,703.3,535.8,703z"/>
		<path class="st27" d="M233.1,915.8c-1.3-1.9-2.7-3.8-4-5.7c0-0.9-0.1-1.7-0.4-2.3c2.4-2.7,4.7-5.3,7.7-8.8c2.1,3.2,4.6,7.2,7.1,11
			c4-1.8,8.5-6.2,12-4.9c3.8,1.4,8.7,7.6,9.2,12.5c0.5,4.8-3.4,14.6-6.2,15.2c-7.7,1.7-15.7-0.1-23.6-1.3c-0.8-0.1-1.2-5.3-1.8-8
			C233.2,921,233.1,918.4,233.1,915.8z M238.6,924.1c1.8-0.4,3.6-0.8,5.4-1.2c-1.2-4.1-2.4-8.1-3.6-12.2
			C239.8,915.2,239.2,919.7,238.6,924.1z"/>
		<path class="st15" d="M223.4,927.2c-9.6-2.1-19.5,8.7-29.4-1.7c-1.5-1.5-7,4.6-13.5,9.2c2.3-9.8,3.5-17.1,5.8-23.7
			c2-5.6,5.2-10.3,7.8-15.4c2.3,4.9,5.9,9.4,6.8,14.7c3,18.2,10.5,23.3,22.6,17.3C223.5,927.6,223.4,927.2,223.4,927.2z"/>
		<path class="st28" d="M223.4,927.2c0,0,0.1,0.4,0.1,0.4c0.7-7.1-7.2-18.6,5.2-19.9c0.3,0.7,0.5,1.5,0.4,2.3
			c-0.2,5-0.2,10-0.9,14.8C228,926.1,225.1,926.5,223.4,927.2z"/>
		<path class="st28" d="M233.1,915.8c0,2.6,0,5.2,0.1,7.7C233.2,920.9,233.1,918.3,233.1,915.8z"/>
		<path class="st29" d="M1731.1,925.1c-5.3-3.5-10.6-7.1-15.8-10.6c5.3-3.6,10.5-7.2,15.8-10.8l0.6-1c3,3.4,6,6.7,10.1,11.5
			c-3.8,4.5-7,8.2-10.1,11.9L1731.1,925.1z"/>
		<path class="st29" d="M1731.7,926.1c-1.1,1.4-2.2,2.9-3.3,4.3c-0.4-0.8-0.8-1.5-1.2-2.3c1.3-1,2.6-2.1,3.8-3.1
			C1731.1,925.1,1731.7,926.1,1731.7,926.1z"/>
		<path class="st29" d="M1731.1,903.8c-0.7-0.9-1.5-1.8-2.2-2.6c0.9,0.5,1.9,1.1,2.8,1.6C1731.7,902.7,1731.1,903.8,1731.1,903.8z"
			/>
		<path class="st16" d="M535.8,703c-1.8,0.2-3.5,0.5-5.3,0.7c-0.8-3.7-1.6-7.4-2.4-11.2c2.6-0.1,5.3-0.1,7.9-0.2
			C535.9,695.9,535.8,699.5,535.8,703z"/>
		<path class="st19" d="M240.3,910.8c1.2,4.1,2.4,8.1,3.6,12.2c-1.8,0.4-3.6,0.8-5.4,1.2C239.2,919.7,239.8,915.2,240.3,910.8z"/>
		<path class="st28" d="M240.3,910.8c-0.6,4.5-1.1,8.9-1.7,13.4C239.2,919.7,239.8,915.2,240.3,910.8z"/>
	</g>
</g>
</svg>
