<svg xmlns="http://www.w3.org/2000/svg" xml:space="preserve" id="Ebene_1" x="0" y="0" viewBox="0 0 1920 1080"><style>.st2{fill:#d3d9d1}.st4{fill:#d5d7d2}.st5{fill:#d4d6d2}.st8{fill:#d2d6d2}.st9{fill:#d0d3ce}.st10{fill:#d4deda}.st15{fill:#c4cac6}.st16{fill:#202222}.st17{fill:#28252c}.st18{fill:#222124}.st19{fill:#2f3131}.st21{fill:#72776e}.st23{fill:#6d7573}.st24{fill:#7c8582}.st25{fill:#737e7d}.st26{fill:#7a7d7d}.st28{fill:#b5b18a}.st29{fill:#4c4e4e}</style><path d="M0 1080V0h1920v1080zm931.2-67.7h833.2c23.2 0 31.7-11.8 31.7-44V637.2c0-35.2-7.9-46.4-32.7-46.4H99.7c-24.2 0-32.4 11.4-32.4 44.9v325.4c0 41.7 6.6 51.1 36.1 51.1 275.9.1 551.9.1 827.8.1M414.1 424.6c5.6-32.7 11.1-64.1 16.6-96.4-3.1-.4-6.2-1.2-6.3-.7-5.9 23.7-11.5 47.6-18.4 76.4-4.8-24.6-9.2-44-12.3-63.8-1.9-12.3-5.9-15.7-14.2-11.3-5 23.8-9.9 47.6-14.9 71.4-6.5-22-9.7-42.9-13.9-63.3-.9-4.4-5.4-7.4-8.3-11.1-.9 1.4-1.8 2.7-2.7 4.1 5.5 31.4 11 62.9 16.6 94.7h13.1c4.6-22.8 9.1-45.1 13.6-67.5 1.4 0 2.7-.1 4.1-.1 4.6 22.3 9.1 44.7 13.8 67.6zm783.5-45.7c1 .1 2 .1 3 .2 2.9 13.1 5.4 26.4 9 39.1.9 3.3 5 6.3 7.8 6.7 1.9.2 5.3-3.9 6-6.9 4.3-20.1 8-40.4 11.9-60.7-1.6-1-3.3-2.1-4.9-3.1-11.5 11-6 35-15.2 49.8-2.7-11.9-4.6-22.9-7.8-33.1-1.8-6-5.7-10.7-8.7-15.9-2.8 5.6-6.2 10.7-8.2 16.8-2.9 9-4.8 18.6-7.7 30-8.8-16.2-4-38.5-18.1-45.5 1.8 21.2 5.3 41.1 9.5 60.7.8 3.5 4.6 7.7 7.1 7.8 2.4.1 6.3-3.9 7.3-7.3 3.6-12.6 6.1-25.7 9-38.6m-198.2 14.9c2.5 27.1 15.2 37.2 34 32.8 11.9-2.8 20.2-9.9 20.4-28.7.2-18.5-8.9-24.4-19.5-28-6-2.1-12.7-1.9-18.2-5.3-3.1-1.9-6.1-9.1-6.2-13.9 0-3.9 4.1-10.4 7-11.3 10.1-2.9 20.6-5.5 26.5 12.2 1.1 3.3 5.3 4.7 9.4 8-2.3-27-13.4-36.8-33.1-33.3-11.4 2-20.2 8.1-20.6 26-.4 18.2 9.1 24.2 19.8 27.5 5.7 1.8 11.9 1.4 16.9 4.8 3.7 2.5 8 9.7 7.9 14.7s-4.6 12.5-8.3 14.2c-10.8 5.1-21.1 4-27.9-12.1-1.5-3.5-5.3-5.1-8.1-7.6M567.6 358v65.6c1.1.9 2.3 1.8 3.4 2.7 1.7-4 4.5-7.8 4.8-12 .8-11.2-1-23.1 1.1-33.5 1.3-6.3 8-10.5 12.2-15.7 3.1 5.6 8 10.8 8.8 16.9 1.5 10.9-.1 22.5.7 33.6.3 3.9 4.1 7.2 6.3 10.8l3.5-3.5c0-13.7-1.2-27.7.5-40.9.8-6.4 6.7-14.8 11.3-16.3 8-2.7 10.3 6.6 10.2 16.6-.1 13.7 0 27.4 0 41.1 1.1.9 2.3 1.9 3.4 2.8 1.9-3.4 5.4-6.7 5.5-10.2.6-13.7.4-27.5.2-41.3-.3-13.7-6.6-22.6-15.4-20.5-11.9 2.8-22.9 4.7-34.9-.1-5.8-2-12.9 2.2-21.6 3.9m-99.4 22.2c-6 1.3-12.1 2.2-18 3.8-9.9 2.7-18.5 7.6-17.1 25.2 1.1 13.3 10.9 20.5 23 17.6 6.8-1.7 13.8-2.7 21.5-4.1 0-14.9.7-31.1-.2-47.1-1-17.5-10.3-22.2-21.2-21.7-10.2.5-18.4 5.4-19.4 22.2 6.4-2.2 11.3-8.3 17-10.4 6.4-2.4 13.7-1.5 14.4 14.5m307.1-50.5c-1.2-1.4-2.5-2.8-3.7-4.2-2.1 3.6-5.9 7.1-6 10.8q-.75 40.35 0 80.7c.1 3.3 4.3 6.5 6.6 9.7 1.1-1 2.2-2 3.2-3 0-13-.3-26.1.1-39.1.3-12.9 5.8-19.3 14.7-19.4s11.2 8.5 11.3 18.8c.2 13.1 0 26.2 0 39.4 1.2 1 2.4 2.1 3.6 3.1 1.9-3.7 5.3-7.2 5.5-11.1.7-11.8.5-23.8.1-35.6-.6-18.5-9.1-28.4-22.3-25.8-4.2.8-8.3 3-13.2 4.9.1-10.6.1-19.9.1-29.2m356.6 70.3c-8.6 6.7-14.7 14.2-21.4 15.8-9.3 2.2-15.8-4.8-15.6-21.9h36.2c.8-25.4-5.1-37.5-18.6-40.1-13.5-2.5-24.5 7.7-27.3 25.4-3.6 23.2 2.8 41.5 16.5 46.7 14.5 5.6 23.8-1.2 30.2-25.9m279.6-.8c-9.7 7.4-15.9 15.1-22.8 16.5-8.8 1.9-15.1-5.4-14.9-21.2h36c2-23.8-3.8-37.1-17.1-40.5-13.7-3.5-25 6.6-28.4 25.3-3.9 21.6 2.2 40.5 14.9 46.2 14.7 6.6 25.1-.3 32.3-26.3m-544.9-4.9H905c1.5-25.7-4.8-38.5-19.2-40.5-14.1-2-24.8 9.4-26.8 28.5-2.5 24.1 4.4 40.3 18.9 44.5 14.1 4 23.4-4 26.8-26.3-13 9.5-26.7 30.9-38.1-6.2m590.1 28.9c1.4 1.2 2.7 2.4 4.1 3.6 1.8-3.7 4.9-7.2 5.1-11 .7-11.8.5-23.7.2-35.6-.5-19.2-9.7-29.3-23.2-26.1-6.7 1.6-13.4 2.8-20.9 4.3v65.3c1.1 1 2.3 1.9 3.4 2.9 1.8-3.9 4.8-7.6 5.1-11.8.8-11.1-1.4-23.4 1.3-33.3 1.9-7.1 9.4-12.8 15.3-15.3 1.8-.7 8.4 10.9 9.2 17.7 1.5 12.8.4 26.2.4 39.3m-102.9-44.9c1-1.9 2.1-3.7 3.1-5.6-3-4.9-5.6-13.4-9-14-9.3-1.7-19.1-1.5-28.2 1.1-2.7.8-6 12.9-5.2 18.7 2.1 15.7 12.5 14.5 21.2 17.2 4.2 1.3 7.5 7.7 11.2 11.8-4.8 3-9.6 8-14.5 8.2-3.4.2-6.8-6.5-10.5-9.4-2.5-1.9-5.4-2.6-8.1-3.9-1 2.5-1.9 4.9-2.9 7.4 5.6 5.3 10.9 14.2 16.9 15.1 8.2 1.2 17.9-.8 24.9-6.5 7.8-6.4 5.5-23.6-3-29.4-5.1-3.4-11.4-3-16.7-5.9-3.6-1.9-6.3-6.7-9.5-10.2 3.6-2.7 7.1-7.3 10.8-7.5 3.8-.2 7.9 3.8 11.7 6.3 2.7 2 5.2 4.5 7.8 6.6m-50.6.1c-3.3-24.8-24.3-32.6-35.8-17.6-7.2 9.5-5.4 25 4.2 30.4 4.8 2.7 10.7 2 15.5 4.7 3.6 2 6.4 6.9 9.5 10.6-3.7 3.5-7.5 9.8-11.2 9.6-4.6-.1-9.2-5.6-13.8-8.6-2.7-1.8-5.6-3.3-10.2-6 6.3 26.4 30.1 34.4 41.1 17.8 6.6-10 4.7-25.5-4.6-31-5.2-3.1-11.5-2.4-16.8-5.2-3.2-1.6-5.5-6.5-8.2-9.9 3.1-2.7 6.2-7.7 9.2-7.6 4.4.1 8.8 3.6 13 6.2 2.9 1.8 5.4 4.4 8.1 6.6m-816.7 21.8c2.1 17.6 7.8 25.6 16.5 25.4 8.4-.1 18.4-1.2 24.6-7.6 7-7.3 5.9-20.9-2.7-28.2-4.3-3.7-10.4-3.3-15.2-6.3-4.2-2.6-7.7-7.2-11.5-11 4.6-2.5 9.1-6.6 13.7-6.9 3.1-.2 6.3 5.5 9.7 7.9 2.5 1.8 5.4 2.5 9.7 4.3-6.5-24.5-28.3-31.9-38.9-16.5-6.3 9.1-4.5 24.6 4 29.6 4.8 2.8 10.7 2 15.5 4.8 3.9 2.3 6.8 7.7 10.2 11.7-4 3.2-7.9 8.7-11.9 8.8-4.2.1-8.5-5-12.7-8-3-1.9-5.8-4.1-11-8m214.5-9c.1-23.1-9.3-37.2-25.2-37.5-15.5-.3-26.2 14.4-26.3 36.5-.2 22.2 10.1 37.3 25.6 37.7 15.7.3 25.8-14 25.9-36.7m221.7 35.7c1.2-1.5 2.4-3 3.5-4.4 0-13.1-1.7-26.8.6-39 1.4-7.3 8.4-15.6 13.9-17.4 8.3-2.7 11.1 7.4 11.1 18s-.5 21.3.3 31.8c.3 3.7 3.8 6.9 5.9 10.3 1.1-1.1 2.3-2.2 3.4-3.3v-11.1c0-10.6.2-21.3-.1-31.9-.5-17.9-8.2-27.6-20.9-26-7.7 1-15.4 2.8-24.5 4.5 0 18.7-.3 38.6.3 58.4.3 3.5 4.3 6.7 6.5 10.1M753.4 399c-2.6 2.9-5.7 5.2-7.8 8.7-6.8 11.5-14.5 11.4-22.2 2.9-6.9-7.8-6.9-30.9-.1-39.3 7.5-9.2 15-9 22.2 2.1 2.3 3.6 6.1 5.2 11.6 9.7-5.6-23.8-15-32.2-28.2-29.1-13.1 3.1-21 17.7-20.6 38s8.6 33.3 22.4 35.6c13.3 2.2 21.6-6 22.7-28.6m85.7-46.7c-.3-3.5.1-8.5-1.4-11.7-1-2.1-4.8-1.8-7.3-2.5 2.4 14.8-9 15.6-14.1 24.5 4.9 2.3 8.5 4 12.8 6.1v29.7c0 26.3 4.2 30.7 24.9 20-4.8-2.3-9.6-4.6-14.8-7.1v-43.5c5.3-1.5 9.8-2.8 14.3-4 .2-1.6.4-3.2.6-4.7-4.5-2-8.8-4-15-6.8m634.2 5.8c5.2-5.3 7.7-8.7 10.7-10.8 5.6-3.9 11.3-9.1 17.2-9.7 3.4-.3 10.6 8.5 10.1 11.1-1.4 7.5-5.9 13.8-8.9 20.8-3.2 7.5-6.3 15-9 22.9-.4 1.2 1.9 5.7 3.3 6.2 1.5.5 4.1-1.4 5.3-3.3 4.5-7.6 8.2-16.2 13.1-23.2 7.7-11.1 10.7-25.5 2.7-34.6-6.9-7.7-18.4-9.6-27.9-9.8-9.8-.2-15.4 10.1-16.6 30.4m-229.5 65.4c1.2 1 2.4 2 3.6 3.1 1.9-3.8 5.2-7.4 5.4-11.3.6-16.1.5-32.4.1-48.6-.1-3.9-2.7-7.7-4.2-11.5-1.6 4.2-4.5 8.3-4.6 12.5-.6 18.6-.3 37.2-.3 55.8m-173 3.6c1.2-1.5 2.3-2.9 3.5-4.4 0-19.3.3-38.6-.2-57.9-.1-3.4-3.4-6.6-5.3-9.9-1.6 3.1-4.4 6.2-4.5 9.4-.4 17.5-.6 35 .1 52.4.1 3.7 4.2 7 6.4 10.4" style="fill:#191a1a"/><path d="M931.2 1012.3H103.4c-29.5 0-36.1-9.4-36.1-51.1V635.8c0-33.5 8.2-44.9 32.4-44.9h1663.7c24.8 0 32.7 11.2 32.7 46.4v331.1c0 32.2-8.5 44-31.7 44-277.7-.1-555.5-.1-833.2-.1m.3-414H99.7c-21.3 0-27 8-27 38v331c0 28.9 5.9 37.4 26.1 37.4h1666.3c19.5 0 25.6-8.7 25.6-36.1V639.4c0-34.8-4.6-41.1-30.1-41.1z" style="fill:#3c3e3f"/><path d="M414.1 424.6h-13.2c-4.7-22.9-9.2-45.2-13.8-67.6-1.4 0-2.7.1-4.1.1-4.5 22.4-9 44.8-13.6 67.5h-13.1c-5.6-31.8-11.1-63.2-16.6-94.7.9-1.4 1.8-2.7 2.7-4.1 2.9 3.7 7.4 6.7 8.3 11.1 4.2 20.4 7.4 41.3 13.9 63.3 5-23.8 9.9-47.6 14.9-71.4 8.2-4.4 12.2-1.1 14.2 11.3 3.1 19.8 7.4 39.2 12.3 63.8 6.9-28.9 12.5-52.7 18.4-76.4.1-.6 3.2.3 6.3.7-5.5 32.3-10.9 63.7-16.6 96.4" class="st2"/><path d="M1197.6 378.9c-2.9 12.9-5.4 26-8.9 38.6-1 3.4-4.8 7.4-7.3 7.3s-6.3-4.3-7.1-7.8c-4.3-19.6-7.8-39.5-9.5-60.7 14.1 7 9.3 29.3 18.1 45.5 2.9-11.5 4.7-21.1 7.7-30 2-6.1 5.4-11.2 8.2-16.8 3 5.3 6.8 10 8.7 15.9 3.2 10.2 5.1 21.2 7.8 33.1 9.1-14.8 3.7-38.8 15.2-49.8 1.6 1 3.3 2.1 4.9 3.1-3.9 20.3-7.6 40.6-11.9 60.7-.6 3-4.1 7.2-6 6.9-2.8-.4-6.9-3.4-7.8-6.7-3.6-12.7-6.1-26-9-39.1-1.1-.1-2.1-.2-3.1-.2" style="fill:#d0d4cb"/><path d="M999.4 393.8c2.8 2.5 6.6 4 8.1 7.6 6.9 16 17.1 17.1 27.9 12.1 3.7-1.7 8.2-9.2 8.3-14.2s-4.2-12.2-7.9-14.7c-5-3.4-11.3-3-16.9-4.8-10.7-3.3-20.2-9.3-19.8-27.5.4-17.8 9.2-23.9 20.6-26 19.7-3.5 30.8 6.2 33.1 33.3-4.1-3.3-8.3-4.7-9.4-8-5.9-17.7-16.4-15-26.5-12.2-2.9.8-7 7.4-7 11.3.1 4.9 3.1 12 6.2 13.9 5.5 3.4 12.2 3.2 18.2 5.3 10.6 3.6 19.7 9.5 19.5 28-.2 18.8-8.5 25.9-20.4 28.7-18.7 4.4-31.5-5.7-34-32.8" class="st4"/><path d="M567.6 358c8.7-1.7 15.8-5.9 21.6-3.6 12 4.7 23 2.9 34.9.1 8.8-2.1 15.1 6.8 15.4 20.5.3 13.8.5 27.6-.2 41.3-.2 3.6-3.6 6.8-5.5 10.2-1.1-.9-2.3-1.9-3.4-2.8 0-13.7-.1-27.4 0-41.1.1-10-2.2-19.3-10.2-16.6-4.6 1.5-10.4 9.9-11.3 16.3-1.7 13.2-.5 27.2-.5 40.9l-3.5 3.5c-2.2-3.6-6-6.9-6.3-10.8-.9-11.1.7-22.8-.7-33.6-.8-6.2-5.7-11.3-8.8-16.9-4.3 5.1-10.9 9.3-12.2 15.7-2.1 10.5-.3 22.4-1.1 33.5-.3 4.2-3.1 8-4.8 12-1.1-.9-2.3-1.8-3.4-2.7z" class="st5"/><path d="M468.2 380.2c-.7-16-8-16.9-14.5-14.6-5.7 2.1-10.6 8.2-17 10.4 1-16.9 9.2-21.7 19.4-22.2 10.9-.5 20.2 4.2 21.2 21.7.9 16 .2 32.3.2 47.1-7.7 1.5-14.6 2.5-21.5 4.1-12.1 2.9-21.9-4.2-23-17.6-1.4-17.6 7.2-22.5 17.1-25.2 6-1.4 12.1-2.4 18.1-3.7m2.2 16.2-3.3-4.8c-4.3 1-8.9 1.1-12.9 3.2-4.2 2.2-8.2 5.9-11.8 9.6-.5.5.9 7.5 2 7.8 5 1.5 11 4.3 14.9 1.6 4.6-3.1 7.5-11.4 11.1-17.4" style="fill:#d3d8d6"/><path d="M775.3 329.7v29.2c5-1.9 9-4.1 13.2-4.9 13.2-2.5 21.7 7.3 22.3 25.8.4 11.9.6 23.8-.1 35.6-.2 3.9-3.6 7.4-5.5 11.1-1.2-1-2.4-2.1-3.6-3.1 0-13.1.1-26.3 0-39.4-.1-10.4-2.4-18.9-11.3-18.8-9 .1-14.4 6.5-14.7 19.4-.3 13-.1 26.1-.1 39.1-1.1 1-2.2 2-3.2 3-2.3-3.2-6.5-6.4-6.6-9.7q-.75-40.35 0-80.7c.1-3.7 3.9-7.2 6-10.8 1.1 1.4 2.4 2.8 3.6 4.2" style="fill:#d0d5cf"/><path d="M1131.9 400c-6.4 24.7-15.6 31.5-30.2 26-13.7-5.2-20.1-23.5-16.5-46.7 2.8-17.7 13.8-27.9 27.3-25.4s19.4 14.7 18.6 40.1h-36.2c-.3 17.1 6.2 24.1 15.6 21.9 6.7-1.7 12.7-9.2 21.4-15.9m-8.8-16.7c-2.4-14.8-8.4-20.8-16.6-17.7-5 1.8-8.9 9-13.3 13.8.8 1.3 1.5 2.6 2.3 4 8.7-.1 17.5-.1 27.6-.1" class="st8"/><path d="M1411.5 399.2c-7.3 25.9-17.6 32.9-32.2 26.3-12.7-5.7-18.8-24.6-14.9-46.2 3.4-18.8 14.7-28.8 28.4-25.3 13.2 3.4 19.1 16.7 17.1 40.5h-36c-.3 15.8 6.1 23.1 14.9 21.2 6.8-1.4 13-9.1 22.7-16.5m-9.8-16c-1.6-14.7-7.5-20.4-15.3-17.6-5.2 1.8-9.5 8.7-14.2 13.3.7 1.4 1.4 2.9 2.1 4.3z" class="st9"/><path d="M866.6 394.3c11.4 37.1 25.2 15.7 38.2 6.1-3.5 22.4-12.7 30.4-26.8 26.3-14.5-4.1-21.5-20.4-18.9-44.5 2-19.1 12.7-30.4 26.8-28.5 14.3 2 20.7 14.8 19.2 40.5-11.9.1-23.7.1-38.5.1m.7-16c.7 1.5 1.4 2.9 2.1 4.4H897c-1.6-13.4-7.1-19.6-15-17.1-5.4 1.6-9.9 8.2-14.7 12.7" class="st4"/><path d="M1456.7 423.2c0-13.1 1.1-26.5-.4-39.2-.8-6.8-7.4-18.4-9.2-17.7-5.9 2.5-13.3 8.2-15.3 15.3-2.7 9.9-.5 22.2-1.3 33.3-.3 4.1-3.3 7.9-5.1 11.8-1.1-1-2.3-1.9-3.4-2.9v-65.3c7.4-1.5 14.2-2.6 20.9-4.3 13.5-3.2 22.7 6.9 23.2 26.1.3 11.9.5 23.8-.2 35.6-.2 3.8-3.3 7.3-5.1 11-1.3-1.3-2.7-2.5-4.1-3.7" class="st10"/><path d="M1353.8 378.3c-2.6-2.2-5.1-4.6-7.8-6.4-3.8-2.5-7.8-6.4-11.7-6.3-3.6.2-7.2 4.8-10.8 7.5 3.1 3.5 5.9 8.3 9.5 10.2 5.3 2.9 11.6 2.5 16.7 5.9 8.6 5.8 10.8 23 3 29.4-6.9 5.7-16.7 7.8-24.9 6.5-5.9-.9-11.3-9.8-16.9-15.1 1-2.5 1.9-4.9 2.9-7.4 2.7 1.3 5.7 2 8.1 3.9 3.7 2.9 7.1 9.6 10.5 9.4 4.9-.3 9.7-5.3 14.5-8.2-3.7-4.1-7.1-10.5-11.2-11.8-8.7-2.7-19.1-1.5-21.2-17.2-.8-5.9 2.5-17.9 5.2-18.7 9.1-2.7 18.9-2.8 28.2-1.1 3.4.6 6 9.1 9 14-1 1.7-2 3.6-3.1 5.4" style="fill:#d1d5d0"/><path d="M1303.2 378.4c-2.7-2.2-5.2-4.8-8-6.6-4.2-2.6-8.6-6.1-13-6.2-3-.1-6.2 4.9-9.2 7.6 2.7 3.4 5 8.3 8.2 9.9 5.4 2.7 11.6 2.1 16.8 5.2 9.3 5.5 11.2 21 4.6 31-11 16.6-34.8 8.6-41.1-17.8 4.6 2.7 7.5 4.2 10.2 6 4.6 3 9.1 8.5 13.8 8.6 3.7.1 7.5-6.2 11.2-9.6-3.1-3.6-5.9-8.6-9.5-10.6-4.9-2.7-10.7-1.9-15.5-4.7-9.6-5.4-11.4-20.9-4.2-30.4 11.3-15 32.3-7.2 35.7 17.6" class="st9"/><path d="M486.5 400.2c5.2 3.9 8 6.1 11 8.1 4.2 2.9 8.5 8 12.7 8 4-.1 7.9-5.6 11.9-8.8-3.3-4-6.3-9.4-10.2-11.7-4.8-2.8-10.7-2-15.5-4.8-8.5-4.9-10.3-20.5-4-29.6 10.6-15.4 32.5-8 38.9 16.5-4.3-1.8-7.2-2.5-9.7-4.3-3.4-2.4-6.5-8.1-9.7-7.9-4.6.2-9.1 4.4-13.7 6.9 3.8 3.7 7.4 8.4 11.5 11 4.8 3 10.8 2.6 15.2 6.3 8.6 7.3 9.7 20.9 2.7 28.2-6.2 6.5-16.3 7.5-24.6 7.6-8.7.1-14.4-7.9-16.5-25.5" class="st5"/><path d="M701 391.2c-.1 22.7-10.2 37-25.9 36.6-15.5-.3-25.7-15.4-25.6-37.7.2-22 10.8-36.7 26.3-36.5 15.9.4 25.4 14.5 25.2 37.6m-9.3.9c.1-16.8-6.9-27.8-16.7-26.9-11.3.9-15.2 11.3-15.4 25.4-.3 15.9 6.7 27.1 16.5 26 10.9-1.3 14.8-11.9 15.6-24.5" class="st8"/><path d="M922.7 426.9c-2.2-3.4-6.2-6.7-6.3-10.2-.6-19.8-.3-39.7-.3-58.4 9.1-1.7 16.7-3.5 24.5-4.5 12.6-1.6 20.4 8.1 20.9 26 .3 10.6.1 21.3.1 31.9v11.1c-1.1 1.1-2.3 2.2-3.4 3.3-2.1-3.4-5.6-6.6-5.9-10.3-.8-10.5-.3-21.2-.3-31.8s-2.8-20.7-11.1-18c-5.5 1.8-12.6 10.2-13.9 17.4-2.3 12.2-.6 25.9-.6 39-1.3 1.6-2.5 3-3.7 4.5" style="fill:#d2d4cd"/><path d="M753.4 399c-1.2 22.6-9.4 30.9-22.6 28.6-13.8-2.3-22-15.3-22.4-35.6-.4-20.2 7.5-34.9 20.6-38 13.2-3.1 22.6 5.3 28.2 29.1-5.5-4.5-9.3-6.1-11.6-9.7-7.1-11.1-14.6-11.3-22.2-2.1-6.9 8.4-6.8 31.5.1 39.3 7.6 8.6 15.3 8.6 22.2-2.9 2.1-3.5 5.1-5.9 7.7-8.7" style="fill:#cfd2cd"/><path d="M839.1 352.3c6.2 2.8 10.6 4.8 15 6.7-.2 1.6-.4 3.2-.6 4.7-4.5 1.3-9 2.6-14.3 4v43.5c5.2 2.5 10 4.8 14.8 7.1-20.6 10.6-24.8 6.3-24.9-20v-29.7c-4.3-2.1-7.9-3.8-12.8-6.1 5.1-8.9 16.5-9.7 14.1-24.5 2.5.7 6.3.4 7.3 2.5 1.5 3.4 1 8.3 1.4 11.8" class="st2"/><path d="M1473.3 358.1c1.1-20.2 6.7-30.6 16.7-30.4 9.5.1 21 2.1 27.9 9.8 8 9 5 23.5-2.7 34.6-4.9 7-8.6 15.7-13.1 23.2-1.2 2-3.7 3.8-5.3 3.3-1.4-.5-3.7-5-3.3-6.2 2.6-7.9 5.7-15.5 9-22.9 3-7 7.5-13.3 8.9-20.8.5-2.6-6.7-11.4-10.1-11.1-5.9.6-11.6 5.8-17.2 9.7-3 2.1-5.6 5.5-10.8 10.8" style="fill:#d4d6cf"/><path d="M1243.8 423.5c0-18.6-.3-37.3.2-55.8.1-4.2 3-8.3 4.6-12.5 1.5 3.8 4.1 7.6 4.2 11.5.5 16.2.6 32.4-.1 48.6-.1 3.9-3.5 7.6-5.4 11.3-1.1-1-2.3-2.1-3.5-3.1" class="st10"/><path d="M1070.8 427.1c-2.2-3.4-6.3-6.7-6.4-10.3-.7-17.4-.5-35-.1-52.4.1-3.2 2.9-6.3 4.5-9.4 1.8 3.3 5.2 6.5 5.3 9.9.5 19.3.2 38.6.2 57.9-1.1 1.4-2.3 2.9-3.5 4.3" class="st15"/><path d="M931.5 598.3h829.1c25.5 0 30.1 6.3 30.1 41.1v329.2c0 27.4-6.1 36.1-25.6 36.1H98.8c-20.2 0-26.1-8.5-26.1-37.4v-331c0-30 5.7-38 27-38zM535.8 707.2c1.7-5.1 3.5-10.3 5.2-15.4 1.3-19.4-6.8-16.8-15.5-13-2.5.6-5.5 2.7-7.6 1.5-9.6-5.5-18.4-9.2-24.1 8.1-.7 2.1-3.7 2.8-5.6 4.2-1.2-5.3-1.4-13.2-4-15.1-2.9-2.2-7.8.9-11.9 1.7.1 1.1.3 2.2.4 3.3 3.6.3 7.3.6 10.9.8 0 1.1 0 2.2.1 3.3l-7.2 3c-1.8 4.5-3.6 9.1-5.3 13.6 3.5 1.3 7.1 2.6 10.6 4 4.2.4 9.6-1.4 12.3 1.6 15.7 17.2 16.5 17.3 26.7-6.7 2.3 1.6 4.6 3.3 6.9 4.9 2.8.1 5.5.2 8.1.2M1618.1 903c-2.7 3.7-5.3 7.3-8 11-8.1 1.3-9.9 8.1-6.4 17.1 3.8 9.6 11 13.7 16.7 5.8 4-5.6 16.7-7.5 8.9-22.8.8-6.1 1.7-12.3 2.5-18.4-6.1-3.5-11.1-2.5-13.7 7.3M218 854.2c-26 0-52-.2-78 0-26.5.2-45.5 24.9-45.7 59.4-.3 35.3 18.8 60.8 46 60.9q78 .3 156 0c26.5-.1 45.5-24.9 45.7-59.3.3-35.3-18.8-60.7-46-60.9-26-.2-52-.1-78-.1m1551.2 60.2c0-33.1-18.7-59.7-42.4-60.2-24.3-.5-43.7 26.3-43.7 60.2 0 33.1 18.7 59.7 42.4 60.2 24.2.5 43.7-26.3 43.7-60.2m-259.5-19.7c-11.2-3.6-16.5 5.2-17 20.8-.4 12.4 9.3 25.2 18.1 25.2 9.5 0 19-13.8 18-27.1-1.2-15-7.1-22-19.1-18.9M142.3 675.3c-4.4-13.5-11.1-15-19.1-10.9-8.6 4.5-9.4 11.6-3.7 21.5.9 1.6-2.6 7.8-1.7 9.6 2.3 4.8 5.9 11.9 8.9 11.8 5.4-.3 10.8-5.1 16.1-8-1.9-4.9-3-11.2-5.9-14.4-3.6-4-8.7-5.5-13.2-8.1.5-2.3 1-4.6 1.5-6.8 5.2 1.7 10.3 3.2 17.1 5.3m92.9 23.1c.8-4.6 2.4-12.9 3.3-18-3.9 4.5-9.2 5.7-16.4-1.7-2.7-2.8-12.4.7-14.2 5-2.1 5-.5 16.3 2.5 20.9 2.3 3.5 9.4.7 14.4.7-.1-1.9-.3-3.7-.4-5.6h-12c.3-2.6.5-5.2.8-7.7 7.3 2.2 14.7 4.3 22 6.4m34-3.5c-.9 2-1.8 3.9-2.6 5.9 4.7 2.5 9.4 7.1 13.9 6.8 3.9-.2 7.7-6 11.5-9.3-2.6-4.9-4.9-10.3-8-14.3-2.2-2.7-5.8-3.1-8.5-5-.9-.6-1.1-3-2-5.8 3.3-1.9 6.2-3.6 9-5.3-.4-1.6-.8-3.1-1.1-4.7-4.3 2.3-8.7 4.7-13 7 2.3 5.7 4.4 11.6 7.1 16.9.8 1.5 3.7.6 5 2.1 2.1 2.4 3.5 5.7 5.3 8.7-3 1.4-6.1 4.2-9 3.8-2.8-.4-5.2-4.4-7.6-6.8m42.9 5.3c0-1.8.1-3.6.1-5.4 4.6-1.1 9.1-2.2 18.5-4.6-6.3-6.7-10.1-13.9-13.2-13.3-4.1.8-9.6 6.6-10.9 12-1.1 4.6 1.9 14.1 5 16.7 3.2 2.6 8.8-.7 13.4-1.4-.3-.9-.6-1.9-.9-2.8zm-148.7 2.1c7.7-5.1 13.2-8.7 19.3-12.7-1.8-12.8-7.9-17.3-15.5-11.6-8.7 6.3-7.6 16.8-3.8 24.3m252.7-14.5c-3.9-4.3-7-10-10.7-11-3-.9-9 2.6-9.9 6.1-1.6 6.3-.5 14-.5 18 6.8-4.3 12.2-7.6 21.1-13.1m-220.8-21.4c-.8.1-1.5.2-2.3.3v36.8c.8-.1 1.5-.2 2.3-.3z" class="st16"/><path d="M470.4 396.4c-3.6 6.1-6.5 14.4-11.1 17.5-3.9 2.7-10-.1-14.9-1.6-1.1-.3-2.5-7.3-2-7.8 3.7-3.8 7.6-7.5 11.8-9.6 4-2 8.6-2.2 12.9-3.2 1.1 1.5 2.2 3.1 3.3 4.7" class="st17"/><path d="M1123.1 383.3h-27.6c-.8-1.3-1.5-2.6-2.3-4 4.4-4.8 8.4-11.9 13.3-13.8 8.2-3 14.2 3 16.6 17.8" class="st18"/><path d="M1401.7 383.2h-27.4c-.7-1.4-1.4-2.9-2.1-4.3 4.7-4.6 9-11.5 14.2-13.3 7.8-2.7 13.7 2.9 15.3 17.6" class="st16"/><path d="M867.3 378.3c4.9-4.4 9.4-11.1 14.6-12.7 7.9-2.5 13.5 3.7 15 17.1h-27.6c-.6-1.5-1.3-3-2-4.4m-175.6 13.8c-.8 12.6-4.7 23.2-15.7 24.5-9.7 1.1-16.7-10.2-16.5-26 .2-14.1 4.1-24.5 15.4-25.4 9.9-.9 16.9 10.1 16.8 26.9" class="st18"/><path d="M218 854.2c26 0 52-.1 78 0 27.2.2 46.3 25.7 46 60.9-.3 34.4-19.2 59.3-45.7 59.3q-78 .3-156 0c-27.2-.1-46.3-25.7-46-60.9.3-34.4 19.2-59.1 45.7-59.4 26 0 52 .1 78 .1m5.4 73c1.7-.7 4.6-1.1 4.8-2.3.8-4.8.7-9.9.9-14.8 1.3 1.9 2.7 3.8 4 5.7 0 2.6 0 5.1.1 7.7.6 2.8 1 8 1.8 8.1 7.9 1.2 15.9 2.9 23.6 1.3 2.8-.6 6.7-10.4 6.2-15.2-.5-4.9-5.4-11.1-9.2-12.5-3.5-1.3-8 3.1-12 4.9-2.5-3.9-5.1-7.8-7.1-11-3 3.4-5.4 6.1-7.7 8.8-12.4 1.2-4.4 12.7-5.2 19.9-12.1 5.9-19.6.9-22.6-17.3-.9-5.3-4.4-9.8-6.8-14.7-2.7 5.1-5.9 9.8-7.8 15.4-2.3 6.6-3.5 13.9-5.8 23.7 6.5-4.6 12.1-10.7 13.5-9.2 9.8 10.2 19.7-.6 29.3 1.5" class="st19"/><path d="M1769.2 914.4c0 33.9-19.5 60.6-43.7 60.2-23.7-.5-42.4-27-42.4-60.2 0-33.9 19.5-60.7 43.7-60.2 23.7.5 42.4 27.1 42.4 60.2m-37.5-11.7c-.9-.5-1.9-1.1-2.8-1.6.7.9 1.5 1.8 2.2 2.6-5.3 3.6-10.6 7.2-15.8 10.8 5.2 3.5 10.5 7 15.8 10.6-1.3 1-2.6 2.1-3.8 3.1.4.8.8 1.5 1.2 2.3 1.1-1.4 2.2-2.9 3.3-4.3 3.2-3.7 6.3-7.4 10.1-11.9-4.2-4.8-7.2-8.2-10.2-11.6" style="fill:#2f2f2e"/><path d="M488.3 692.7c1.9-1.4 4.9-2 5.6-4.2 5.7-17.4 14.4-13.7 24.1-8.1 2 1.2 5-.9 7.6-1.5.8 4.6 1.7 9.2 2.5 13.8.8 3.7 1.6 7.4 2.4 11.2-.9 1.1-1.7 2.2-2.6 3.3-2.3-1.6-4.6-3.3-6.9-4.9-10.2 24-11 23.9-26.7 6.7-2.7-3-8.1-1.2-12.3-1.6-3.5-1.3-7.1-2.6-10.6-4 1.8-4.5 3.6-9.1 5.3-13.6 3.6 3.5 7.1 7 10.7 10.5.2-2.7.6-5.1.9-7.6" class="st21"/><path d="M1509.7 894.7c12-3.1 17.9 3.9 19 18.8 1 13.3-8.5 27.1-18 27.1-8.8 0-18.5-12.8-18.1-25.2.6-15.5 5.9-24.3 17.1-20.7" style="fill:#737676"/><path d="M142.3 675.3c-6.8-2.1-11.9-3.7-17-5.3-.5 2.3-1 4.6-1.5 6.8 4.5 2.6 9.5 4.1 13.2 8.1 2.9 3.2 4 9.5 5.9 14.4-5.4 2.9-10.7 7.7-16.1 8-3 .1-6.6-7-8.9-11.8-.9-1.9 2.6-8.1 1.7-9.6-5.6-9.9-4.9-17 3.7-21.5 7.9-4.1 14.6-2.6 19 10.9" class="st23"/><path d="M235.2 698.4c-7.4-2.1-14.7-4.3-22.1-6.4-.3 2.6-.5 5.2-.8 7.7h12c.1 1.9.3 3.7.4 5.6-5 0-12.1 2.8-14.4-.7-3-4.6-4.6-15.9-2.5-20.9 1.8-4.4 11.4-7.8 14.2-5 7.3 7.4 12.5 6.2 16.4 1.7-.8 5.1-2.3 13.5-3.2 18" class="st24"/><path d="M269.2 694.9c2.5 2.4 4.8 6.4 7.5 6.8 2.9.5 6-2.4 9-3.8-1.7-2.9-3.2-6.3-5.3-8.7-1.2-1.4-4.2-.5-5-2.1-2.7-5.3-4.7-11.2-7.1-16.9 4.3-2.3 8.7-4.7 13-7 .4 1.6.8 3.1 1.1 4.7-2.9 1.7-5.8 3.4-9 5.3.9 2.8 1.2 5.2 2 5.8 2.8 2 6.4 2.3 8.5 5 3.2 4 5.4 9.5 8 14.3-3.8 3.3-7.6 9-11.5 9.3-4.6.3-9.3-4.3-13.9-6.8.9-2 1.8-3.9 2.7-5.9" class="st25"/><path d="m312.1 700.2 12 1.2c.3.9.6 1.9.9 2.8-4.6.7-10.2 4-13.4 1.4-3.2-2.5-6.1-12.1-5-16.7 1.3-5.4 6.8-11.2 10.9-12 3.1-.6 6.9 6.6 13.2 13.3-9.3 2.3-13.9 3.4-18.5 4.6 0 1.8 0 3.6-.1 5.4" class="st24"/><path d="M163.4 702.3c-3.8-7.5-4.9-18 3.7-24.3 7.7-5.6 13.7-1.2 15.5 11.6-5.9 4-11.5 7.7-19.2 12.7m1446.8 211.6c2.7-3.7 5.3-7.3 8-11 4.6-2.4 9.1-4.9 13.7-7.3-.8 6.1-1.7 12.3-2.5 18.4-5 5.3-10.1 10.5-15.1 15.8-1.4-5.3-2.8-10.6-4.1-15.9" class="st26"/><path d="M1610.2 913.9c1.4 5.3 2.7 10.6 4.1 15.9 5-5.3 10.1-10.5 15.1-15.8 7.9 15.3-4.9 17.3-8.9 22.8-5.6 7.9-12.9 3.8-16.7-5.8-3.6-9-1.8-15.7 6.4-17.1" class="st23"/><path d="M416.1 687.8c-8.9 5.5-14.2 8.9-21 13.1 0-4-1.2-11.7.5-18 .9-3.5 6.8-7 9.9-6.1 3.6 1 6.6 6.6 10.6 11" class="st26"/><path d="M488.3 692.7c-.3 2.5-.6 5-1 7.4-3.6-3.5-7.1-7-10.7-10.5l7.2-3c0-1.1 0-2.2-.1-3.3-3.6-.3-7.3-.6-10.9-.8-.1-1.1-.3-2.2-.4-3.3 4.1-.8 9-3.9 11.9-1.7 2.6 2 2.8 9.9 4 15.2" class="st25"/><path d="M528 692.6c-.8-4.6-1.7-9.2-2.5-13.8 8.7-3.8 16.8-6.4 15.5 13l-5.1.6c-2.6.1-5.2.1-7.9.2" class="st24"/><path d="M195.3 666.4v36.8c-.8.1-1.5.2-2.3.3v-36.8c.8-.1 1.6-.2 2.3-.3" class="st17"/><path d="M1631.8 895.7c-4.6 2.4-9.1 4.9-13.7 7.3 2.6-9.8 7.6-10.8 13.7-7.3" class="st23"/><path d="m535.9 692.4 5.1-.6c-1.7 5.1-3.5 10.3-5.2 15.4V703c0-3.5.1-7.1.1-10.6" class="st21"/><path d="M471.3 703.2c3.5 1.3 7.1 2.6 10.6 4-3.5-1.4-7-2.7-10.6-4" class="st25"/><path d="M535.8 703v4.2c-2.6-.1-5.3-.1-7.9-.2.9-1.1 1.7-2.2 2.6-3.3 1.7-.2 3.5-.4 5.3-.7" class="st24"/><path d="M233.1 915.8c-1.3-1.9-2.7-3.8-4-5.7 0-.9-.1-1.7-.4-2.3 2.4-2.7 4.7-5.3 7.7-8.8 2.1 3.2 4.6 7.2 7.1 11 4-1.8 8.5-6.2 12-4.9 3.8 1.4 8.7 7.6 9.2 12.5.5 4.8-3.4 14.6-6.2 15.2-7.7 1.7-15.7-.1-23.6-1.3-.8-.1-1.2-5.3-1.8-8 .1-2.5 0-5.1 0-7.7m5.5 8.3 5.4-1.2c-1.2-4.1-2.4-8.1-3.6-12.2-.6 4.5-1.2 9-1.8 13.4" style="fill:#bfc6be"/><path d="M223.4 927.2c-9.6-2.1-19.5 8.7-29.4-1.7-1.5-1.5-7 4.6-13.5 9.2 2.3-9.8 3.5-17.1 5.8-23.7 2-5.6 5.2-10.3 7.8-15.4 2.3 4.9 5.9 9.4 6.8 14.7 3 18.2 10.5 23.3 22.6 17.3z" class="st15"/><path d="m223.4 927.2.1.4c.7-7.1-7.2-18.6 5.2-19.9.3.7.5 1.5.4 2.3-.2 5-.2 10-.9 14.8-.2 1.3-3.1 1.7-4.8 2.4m9.7-11.4c0 2.6 0 5.2.1 7.7 0-2.6-.1-5.2-.1-7.7" class="st28"/><path d="M1731.1 925.1c-5.3-3.5-10.6-7.1-15.8-10.6 5.3-3.6 10.5-7.2 15.8-10.8l.6-1c3 3.4 6 6.7 10.1 11.5-3.8 4.5-7 8.2-10.1 11.9z" class="st29"/><path d="M1731.7 926.1c-1.1 1.4-2.2 2.9-3.3 4.3-.4-.8-.8-1.5-1.2-2.3 1.3-1 2.6-2.1 3.8-3.1.1.1.7 1.1.7 1.1m-.6-22.3c-.7-.9-1.5-1.8-2.2-2.6.9.5 1.9 1.1 2.8 1.6 0-.1-.6 1-.6 1" class="st29"/><path d="M535.8 703c-1.8.2-3.5.5-5.3.7-.8-3.7-1.6-7.4-2.4-11.2 2.6-.1 5.3-.1 7.9-.2-.1 3.6-.2 7.2-.2 10.7" class="st16"/><path d="M240.3 910.8c1.2 4.1 2.4 8.1 3.6 12.2l-5.4 1.2c.7-4.5 1.3-9 1.8-13.4" class="st19"/><path d="M240.3 910.8c-.6 4.5-1.1 8.9-1.7 13.4.6-4.5 1.2-9 1.7-13.4" class="st28"/></svg>