<?xml version="1.0" encoding="utf-8"?>
<!-- Generator: Adobe Illustrator 25.0.0, SVG Export Plug-In . SVG Version: 6.00 Build 0)  -->
<svg version="1.1" id="Ebene_1" xmlns="http://www.w3.org/2000/svg" xmlns:xlink="http://www.w3.org/1999/xlink" x="0px" y="0px"
	 viewBox="0 0 1920 1080" style="enable-background:new 0 0 1920 1080;" xml:space="preserve">
<style type="text/css">
	.st0{fill:#80D2F8;}
	.st1{fill:#020202;}
	.st2{fill:#0C0C0C;}
	.st3{fill:#010101;}
	.st4{fill:#070707;}
	.st5{fill:#090909;}
	.st6{fill:#0A0A0A;}
	.st7{fill:#080808;}
	.st8{fill:#040404;}
	.st9{fill:#FEFEFE;}
	.st10{fill:#FDFDFD;}
	.st11{fill:#F9F9F9;}
	.st12{fill:#1478EF;}
	.st13{fill:#141414;}
	.st14{fill:#E42E28;}
	.st15{fill:#030303;}
	.st16{fill:#050505;}
	.st17{fill:#0D0D0D;}
	.st18{fill:#F0F0F0;}
	.st19{fill:#FBFBFB;}
	.st20{fill:#E42F29;}
	.st21{fill:#E0E0E0;}
	.st22{fill:#D6D6D6;}
</style>
<rect x="-70.3" y="-15.7" class="st0" width="2034.7" height="1111.3"/>
<g>
	<path d="M735.5,690.2c0-18.2,0-36.1,0-54.5c-3.9,0-7.8,0-11.6,0c-9.6,0-19.3,0.1-28.9-0.1c-1.5,0-3.3-0.7-4.3-1.7
		c-3.4-3.8-6.5-7.8-9.7-11.9c3.3-4.1,6.5-8.2,9.9-12.1c0.8-0.9,2.4-1.5,3.6-1.5c4.4-0.2,8.8-0.1,13.6-0.1c0.1-1.2,0.2-2.3,0.2-3.4
		c0-12.4-0.1-24.7,0.1-37.1c0-1.6,1-3.7,2.2-4.8c3.5-3.3,7.4-6.1,11.4-9.3c4.1,3.3,8.3,6.6,12.3,10.1c0.9,0.8,1.3,2.7,1.3,4.1
		c0.1,12.1,0.1,24.2,0.1,36.3c0,1.3,0,2.5,0,4.2c5,0,9.8-0.2,14.6,0.1c2,0.1,4,1.2,5.7,2.3c5.9,4,7.4,9.5,7.2,16.7
		c-0.5,20.8-0.2,41.6-0.2,62.9c4.6,0,9.1-0.1,13.6,0.1c1.4,0.1,3.1,0.7,3.9,1.7c3.4,3.8,6.4,7.8,9.8,11.9c-3.3,4.1-6.5,8.2-9.9,12.1
		c-0.8,0.9-2.4,1.5-3.6,1.5c-4.5,0.2-9,0.1-13.7,0.1c0,18.3,0,36.4,0,54.7c4.5,0,8.9-0.2,13.3,0.1c1.5,0.1,3.3,0.8,4.2,1.8
		c3.3,3.7,6.3,7.6,9.6,11.7c-3.4,4.2-6.7,8.5-10.3,12.6c-0.7,0.8-2.3,1-3.4,1.1c-4.4,0.1-8.8,0-13.6,0c0,4.9-0.2,9.5,0.1,14.1
		c0.1,2.7-0.9,4.4-2.6,6.5c-4.3,5.5-9.6,7.8-16.5,6.8c-2.5-0.4-5.2-0.1-8.3-0.1c0,4.4,0.2,8.8-0.1,13.2c-0.1,1.7-1,3.7-2.2,4.8
		c-3.5,3.3-7.4,6.1-11.3,9.3c-4.1-3.4-8.3-6.6-12.3-10.1c-0.8-0.7-1.3-2.2-1.3-3.3c-0.1-4.5-0.1-9.1-0.1-13.9c-1.7,0-3,0-4.4,0
		c-39.7,0-79.4,0-119.1,0c-2.5,0-4.2-0.8-6.2-2.3c-5.8-4.5-8.1-10-7-17.2c0.4-2.4,0.1-4.9,0.1-7.8c-2.4,0-4.7,0-7,0
		c-11.2,0-22.4,0.1-33.6-0.1c-1.6,0-3.7-1.1-4.8-2.3c-3.3-3.5-6.1-7.4-9.3-11.3c3.3-4.1,6.5-8.2,9.9-12.1c0.8-0.9,2.4-1.5,3.6-1.5
		c4.4-0.2,8.8-0.1,13.6-0.1c0-9,0-17.9,0-27.1c-17.8,0-35.8,0-54.4,0c0,4.1,0.2,8.5-0.1,12.8c-0.1,1.8-1.2,3.9-2.5,5.1
		c-3.4,3.2-7.2,6-11.1,9.1c-4.1-3.3-8.3-6.6-12.3-10c-0.8-0.7-1.3-2.2-1.4-3.3c-0.1-18.4-0.1-36.7,0-55.1c0-1.3,0.8-3,1.8-3.9
		c3.8-3.3,7.8-6.4,11.9-9.7c4,3.2,8.1,6.3,11.9,9.7c1,0.9,1.6,2.6,1.7,3.9c0.2,4.4,0.1,8.8,0.1,13.5c9,0,18,0,27.1,0
		c0-17.9,0-36,0-54.4c-4.4,0-8.9,0.1-13.4-0.1c-1.4-0.1-3.1-0.7-3.9-1.7c-3.4-3.8-6.4-7.8-9.7-11.9c3.3-4.1,6.5-8.2,9.9-12.1
		c0.8-0.9,2.4-1.5,3.6-1.5c18.4-0.1,36.7-0.1,55.1,0c1.3,0,3,0.8,3.8,1.8c3.3,3.7,6.3,7.6,9.5,11.7c-3.3,4.1-6.6,8.3-10,12.3
		c-0.7,0.8-2.2,1.3-3.3,1.3c-4.5,0.1-9.1,0.1-13.8,0.1c0,18.3,0,36.3,0,54.5c27.2,0,54.3,0,81.7,0c0-9,0-17.9,0-27.2
		c-4.8,0-9.6,0.2-14.4-0.1c-2-0.1-4-1.2-5.7-2.3c-6.1-4.1-7.8-9.8-7.2-17c0.6-7.1,0-14.3,0.2-21.5c0-1.4,0.9-3.2,1.9-4.2
		c3.7-3.3,7.6-6.3,11.7-9.5c4,3.3,8.1,6.4,12,9.8c0.9,0.8,1.5,2.4,1.6,3.6c0.2,4.5,0.1,9,0.1,13.9c5.1,0,9.9-0.2,14.6,0.1
		c2,0.1,4,1.2,5.7,2.4c6,4,8.2,9.6,7.1,16.7c-0.4,2.5-0.1,5.2-0.1,8C680.9,690.2,708,690.2,735.5,690.2z M735.4,799.7
		c0-27.5,0-54.6,0-81.7c-27.4,0-54.5,0-81.6,0c0,27.4,0,54.5,0,81.7C681.1,799.7,708.1,799.7,735.4,799.7z"/>
	<path d="M352.7,731.3c-3.7,4.6-6.4,10.4-11,12.8c-4.3,2.3-10.5,0.9-16.1,1.2c0,8.9,0,17.8,0,26.9c9,0,17.9,0,27.2,0
		c0-4.9-0.2-9.7,0.1-14.4c0.1-2,1.2-4,2.3-5.7c4-5.9,9.5-8.3,16.7-7.1c2.5,0.4,5.2,0.1,8,0.1c0-18.2,0-36.2,0-54.7
		c-4.4,0-8.9,0.1-13.4-0.1c-1.4-0.1-3-0.7-3.9-1.7c-3.4-3.8-6.4-7.8-9.7-11.9c3.3-4.1,6.5-8.2,9.9-12.1c0.8-0.9,2.4-1.5,3.6-1.5
		c4.4-0.2,8.8-0.1,13.8-0.1c0-4.8,0.1-9.6-0.1-14.3c-0.1-2.5,0.9-4.2,2.4-6.2c4.4-5.7,9.7-7.6,16.8-7c7.2,0.6,14.6,0.1,21.9,0.2
		c1.3,0,3,0.8,3.9,1.7c3.3,3.8,6.4,7.8,9.7,11.9c-3.2,4-6.3,8.1-9.7,11.9c-0.9,1-2.6,1.7-3.9,1.7c-4.4,0.2-8.8,0.1-13.5,0.1
		c0,9,0,17.9,0,27.3c4.4,0,8.9-0.1,13.4,0.1c1.4,0.1,3.1,0.7,3.9,1.7c3.4,3.8,6.4,7.8,9.8,11.9c-3.3,4.1-6.5,8.2-9.9,12.1
		c-0.8,0.9-2.4,1.5-3.6,1.5c-4.4,0.2-8.8,0.1-13.6,0.1c0,18.1,0,36.1,0,54.5c0.7,0.1,1.7,0.2,2.7,0.2c12.9,0,25.8,0.1,38.7,0
		c2.5,0,4.2,0.8,6.2,2.4c5.7,4.4,8,9.7,6.9,16.8c-0.4,2.5-0.1,5.2-0.1,8.2c4.8,0,9.5,0.1,14.1-0.1c2.7-0.1,4.4,0.9,6.5,2.5
		c5.5,4.3,7.4,9.6,6.9,16.5c-0.6,7.4-0.2,14.8-0.1,22.3c0.1,2.8-0.9,4.7-2.7,6.9c-4.3,5.3-9.4,7.3-16.2,6.7
		c-7.5-0.6-15.1-0.3-22.6-0.1c-2.7,0.1-4.4-1-6.5-2.6c-5.5-4.3-7.2-9.5-6.9-16.5c0.6-11.7,0.2-23.4,0.2-35.4c-9,0-17.9,0-27.3,0
		c0,4.6-0.1,9.3,0.1,14.1c0.1,2.5-0.9,4.2-2.4,6.2c-4.4,5.7-9.8,7.1-16.9,7c-25.5-0.4-51-0.2-76.6-0.1c-3,0-4.9-1.1-7.2-2.9
		c-5.3-4.2-6.6-9.2-6.6-15.9c0.3-46.9,0.2-93.7,0.2-140.6c0-1.4,0-2.8,0-4.5c-18.1,0-36.2,0-54.7,0c0,4.2,0.2,8.6-0.1,12.9
		c-0.1,1.7-1,3.7-2.2,4.8c-3.5,3.3-7.4,6.1-11.3,9.3c-4.1-3.3-8.2-6.4-12-9.8c-0.9-0.8-1.5-2.3-1.6-3.6c-0.2-4.5-0.1-9-0.1-13.9
		c-13.9,0-27.6-0.1-41.2,0.1c-3,0-4.9-1.2-7.1-3c-5.1-4.1-6.7-8.9-6.5-15.5c0.5-16.5,0.1-33.1,0.3-49.6c0-1.6,1.1-3.6,2.3-4.8
		c3.5-3.2,7.4-6.1,11.3-9.3c4.1,3.3,8.2,6.5,12.1,9.9c0.9,0.8,1.5,2.4,1.5,3.6c0.2,4.4,0.1,8.8,0.1,13.8c4.8,0,9.6,0.1,14.3,0
		c2.5-0.1,4.2,0.9,6.2,2.4c5.7,4.4,8,9.8,6.9,16.9c-0.4,2.5-0.1,5.2-0.1,7.9c27.4,0,54.5,0,81.8,0c0-8.9,0-17.9,0-27.1
		c-10.3,0-20.6-0.7-30.8,0.2c-9.3,0.8-16.1-1.5-20.5-9.9c-0.8-1.5-2-2.7-3.1-4c3.2-4,6.3-8.1,9.7-11.8c0.9-1,2.8-1.7,4.3-1.7
		c13.4-0.1,26.8-0.1,40.6-0.1c0-4.7-0.1-9.2,0.1-13.7c0.1-1.3,0.7-3,1.7-3.9c3.8-3.4,7.8-6.4,11.9-9.7c4.1,3.3,8.2,6.4,12,9.9
		c1.1,1,1.5,3.1,1.5,4.7c0.1,48.2,0.1,96.3,0.1,144.5c0,1.4,0,2.9,0,4.8c4.4,0,8.8,0.1,13.1-0.1c2.3-0.1,3.8,0.7,5.2,2.5
		C346.6,724,349.6,727.5,352.7,731.3z"/>
	<path class="st1" d="M80.1,239.2c0-13.4-1-26.9,0.2-40.2c2.5-27.4,27.6-52,55-54.7c10.3-1,20.8-0.7,31.2-0.8c13-0.1,26-0.1,39.1,0
		c31.6,0.3,57.6,21.6,64,52.4c0.9,4.2,1.2,8.5,1.2,12.8c0.1,20.3,0.1,40.6,0,60.9c-0.1,36-28.5,64.8-64.4,65.2
		c-20.8,0.2-41.7,0.2-62.5,0c-36-0.4-64.3-29.2-64.5-65.2c0-10.2,0-20.3,0-30.5C79.6,239.2,79.8,239.2,80.1,239.2z M242,239.2
		c0-9.9,0-19.8,0-29.7c-0.1-21.6-15.5-37.1-37.1-37.2c-19.9-0.1-39.8-0.1-59.8,0c-21.3,0.1-36.9,15.6-37,36.9c0,19.8,0,39.6,0,59.4
		c0,21.9,15.5,37.4,37.3,37.4c19.8,0.1,39.6,0.1,59.4,0c21.6-0.1,37.1-15.6,37.2-37.2C242,259,242,249.1,242,239.2z"/>
	<path class="st1" d="M871.6,239.3c0,13.4,1.1,26.9-0.2,40.2c-2.6,27.4-27.2,51.5-54.7,54.5c-8.5,0.9-17.1,0.8-25.7,0.8
		c-15,0.1-29.9,0.1-44.9,0c-31.6-0.3-57.5-21.6-63.9-52.5c-0.9-4.2-1.1-8.5-1.2-12.8c-0.1-20-0.1-40.1,0-60.1
		c0.1-36.8,28.2-65.4,65-65.8c21-0.3,41.9-0.3,62.9,0c34.8,0.5,63.2,29.3,63.5,64.1c0.1,10.5,0,21.1,0,31.6
		C872.1,239.3,871.8,239.3,871.6,239.3z M709.7,239.1c0,10.2-0.1,20.3,0,30.5c0.2,20.7,15.6,36.3,36.2,36.5
		c20.4,0.2,40.9,0.2,61.3,0c20.6-0.2,36.1-15.8,36.3-36.5c0.1-20.3,0.1-40.6,0-60.9c-0.1-20.6-15.7-36.2-36.4-36.3
		c-20.4-0.1-40.9-0.1-61.3,0c-20.3,0.1-35.9,15.9-36.1,36.2C709.6,218.8,709.7,228.9,709.7,239.1z"/>
	<path class="st1" d="M270.1,840.8c0,13.4,1.1,26.9-0.2,40.2c-2.7,27.5-27.1,51.6-54.6,54.7c-8.1,0.9-16.4,0.8-24.5,0.8
		c-15.4,0.1-30.7,0.1-46.1,0c-31.6-0.3-57.6-21.5-64-52.4c-0.8-4-1.2-8.3-1.2-12.4c-0.1-20.3-0.1-40.6,0-60.9
		c0.1-36.4,28.1-65,64.4-65.5c21.2-0.3,42.4-0.3,63.7,0c34.6,0.5,62.9,29.3,63.3,64c0.1,10.5,0,21.1,0,31.6
		C270.5,840.8,270.3,840.8,270.1,840.8z M108.1,840.8c0,10.2-0.1,20.3,0,30.5c0.2,20.6,15.7,36.2,36.4,36.4
		c20.3,0.2,40.6,0.2,60.9,0c20.9-0.1,36.4-15.7,36.5-36.6c0.1-20.2,0.1-40.4,0-60.5c-0.1-20.9-15.7-36.4-36.6-36.6
		c-20.3-0.1-40.6-0.1-60.9,0c-20.6,0.1-36.2,15.8-36.3,36.4C108.1,820.5,108.1,830.6,108.1,840.8z"/>
	<path d="M134,457.9c-3.8,4.6-6.5,10.6-11,12.9c-4.3,2.2-10.5,0.5-16.1,0.5c0,9.6,0,18.5,0,27.6c9.1,0,18,0,27.2,0
		c0-4.5-0.2-8.9,0.1-13.3c0.1-1.5,0.8-3.3,1.8-4.2c3.7-3.3,7.6-6.3,11.8-9.6c4.2,3.4,8.5,6.7,12.5,10.2c0.8,0.7,1,2.3,1.1,3.4
		c0.1,4.4,0,8.8,0,13.6c4.9,0,9.5,0.1,14.1-0.1c2.7-0.1,4.4,0.9,6.5,2.6c5.5,4.3,7.8,9.6,6.8,16.5c-0.4,2.5-0.1,5.2-0.1,8
		c9,0,17.9,0,27.3,0c0-4.2-0.2-8.6,0.1-12.9c0.1-1.7,1-3.7,2.2-4.8c3.5-3.3,7.4-6.1,11.4-9.3c4.1,3.3,8.3,6.6,12.3,10.1
		c0.8,0.7,1.3,2.2,1.3,3.3c0.1,4.5,0.1,9.1,0.1,13.9c4.7,0,9.1-0.2,13.4,0.1c1.6,0.1,3.5,0.9,4.5,2.1c3.3,3.6,6.3,7.6,9.4,11.5
		c-3.3,4.1-6.4,8.1-9.7,11.9c-0.9,1-2.6,1.7-3.9,1.7c-27.9,0.1-55.7,0.1-83.6,0c-1.5,0-3.1-0.8-4.4-1.7c-6.3-4.4-9.1-10.2-7.8-18
		c0.4-2.4,0.1-4.9,0.1-7.4c-9.2,0-18.1,0-27.2,0c0,9.1,0,18,0,27.2c4.5,0,8.9-0.2,13.3,0.1c1.5,0.1,3.3,0.8,4.2,1.8
		c3.3,3.7,6.3,7.6,9.6,11.7c-3.4,4.2-6.7,8.5-10.3,12.6c-0.7,0.8-2.3,1-3.4,1.1c-4.4,0.1-8.8,0-13.6,0c0,4.9-0.1,9.5,0.1,14.1
		c0.1,2.7-0.9,4.4-2.6,6.5c-4.3,5.5-9.6,7.8-16.5,6.8c-2.5-0.4-5.2-0.1-8.3-0.1c0,4.4,0.2,8.8-0.1,13.2c-0.1,1.7-1,3.7-2.2,4.8
		c-3.5,3.3-7.4,6.1-11.4,9.3c-4.1-3.4-8.3-6.6-12.3-10.1c-0.8-0.7-1.3-2.2-1.3-3.3c-0.1-9.9-0.1-19.8,0-29.7c0-1.3,0.8-2.6,1.5-3.7
		c4.5-6.3,10.4-9.3,18.3-8c2.3,0.4,4.7,0.1,7.2,0.1c0-18.1,0-36.2,0-54.7c-4.6,0-9.4-0.1-14.1,0.1c-2.6,0.1-4.2-1-6.1-2.5
		c-5.7-4.3-7.2-9.8-7-16.9c0.5-16.4,0.2-32.8,0.1-49.2c0-3,1.1-4.9,2.9-7.1c4.2-5.3,9.2-7.1,15.9-6.5c7.4,0.6,14.8,0.1,22.2,0.2
		c1.3,0,3.1,0.7,3.9,1.7C127.6,449.8,130.7,453.9,134,457.9z"/>
	<path d="M626.2,280.2c0-4.7-0.2-9.1,0.1-13.5c0.1-1.5,0.8-3.3,1.8-4.2c3.7-3.3,7.6-6.3,11.8-9.6c4.2,3.4,8.4,6.7,12.5,10.2
		c0.7,0.6,1.1,2,1.1,3.1c0.1,27.6,0.1,55.2,0,82.8c0,1.2-0.8,2.7-1.7,3.5c-3.8,3.3-7.8,6.4-11.9,9.7c-4.1-3.3-8.2-6.5-12.1-9.9
		c-1-0.8-1.5-2.6-1.5-4c-0.1-13.4-0.1-26.8-0.1-40.5c-9,0-17.9,0-27.1,0c0,17.8,0,35.8,0,54.4c4.5,0,9.3,0.1,14,0
		c2.5-0.1,4.2,0.9,6.2,2.4c5.7,4.4,8,9.8,6.9,16.8c-0.4,2.5-0.1,5.2-0.1,8.1c4.8,0,9.5,0.2,14.1-0.1c2.7-0.1,4.4,1,6.5,2.6
		c5.5,4.3,7.8,9.6,6.8,16.5c-0.4,2.5-0.1,5.2-0.1,8.3c4.7,0,9.3,0.1,13.9-0.1c2.8-0.1,4.7,0.9,6.9,2.7c5.4,4.3,7.3,9.4,6.7,16.2
		c-0.6,7.4-0.1,14.8-0.2,22.2c0,1.3-0.7,3-1.7,3.9c-3.8,3.4-7.8,6.4-11.9,9.7c-4.1-3.3-8.2-6.5-12.1-9.9c-0.9-0.8-1.5-2.4-1.5-3.6
		c-0.2-4.4-0.1-8.8-0.1-13.8c-4.8,0-9.6-0.1-14.3,0.1c-2.5,0.1-4.2-1-6.2-2.5c-5.7-4.4-8-9.8-6.9-16.8c0.4-2.5,0.1-5.1,0.1-8.1
		c-5,0-9.8,0.2-14.5-0.1c-2-0.1-4-1.2-5.7-2.3c-6.1-4.1-8.2-9.8-7.1-17c0.4-2.4,0.1-4.9,0.1-7.9c-4.9,0-9.6-0.1-14.4,0.1
		c-2.6,0.1-4.2-1-6.1-2.5c-5.7-4.4-8-9.8-6.9-16.9c0.4-2.5,0.1-5.1,0.1-8.1c-4.8,0-9.3,0.1-13.8-0.1c-1.2,0-2.8-0.6-3.6-1.5
		c-3.4-3.9-6.6-8-9.9-12.1c3.3-4.1,6.4-8.1,9.7-11.9c0.9-1,2.6-1.6,3.9-1.7c4.4-0.2,8.8-0.1,13.7-0.1c0-4.7,0-9.2,0-13.7
		c0-9.4,0.1-18.7-0.1-28.1c0-2.6,1.1-4.2,2.5-6.1c4.2-5.6,9.5-7.3,16.5-6.9C602.3,280.7,614.1,280.2,626.2,280.2z"/>
	<path d="M243.4,444.3c0,2-0.2,3.6,0,5.1c1.4,8.2-1.3,14.2-8.7,18.3c-1.8,1-3.3,2.6-5,4c-4.1-3.3-8.2-6.5-12.1-9.9
		c-0.9-0.8-1.5-2.4-1.5-3.6c-0.2-4.4-0.1-8.8-0.1-13.8c-4.8,0-9.5-0.1-14.3,0c-2.5,0.1-4.2-0.9-6.2-2.4c-5.6-4.4-8.1-9.7-7-16.8
		c0.4-2.5,0.1-5.2,0.1-8c-9.1,0-18,0-27.3,0c0,4.3,0.2,8.7-0.1,13.1c-0.1,1.7-1.1,3.6-2.3,4.8c-3.5,3.2-7.4,6.1-11.3,9.2
		c-4.1-3.3-8.2-6.5-12.1-9.9c-0.9-0.8-1.5-2.4-1.5-3.6c-0.1-9.8-0.1-19.5,0-29.3c0-1.4,0.8-2.9,1.6-4.1c4.4-6.1,10-8.6,17.9-8
		c11.5,0.8,23.1,0.2,35.1,0.2c0-4.8,0.1-9.5-0.1-14.1c-0.1-2.7,0.9-4.4,2.5-6.5c4.3-5.5,9.6-7,16.5-6.9c25.8,0.4,51.5,0.2,77.3,0.1
		c2.5,0,4.2,0.8,6.2,2.3c5.6,4.4,8.1,9.7,7,16.8c-0.4,2.5-0.1,5.2-0.1,8.2c4.7,0,9.2-0.1,13.6,0.1c1.4,0.1,3.1,0.7,3.9,1.7
		c3.4,3.8,6.4,7.8,9.7,11.9c-3.3,4.1-6.5,8.2-9.9,12.1c-0.8,0.9-2.4,1.5-3.6,1.5c-4.5,0.2-9,0.1-13.8,0.1c0,5.1,0.2,9.9-0.1,14.7
		c-0.1,2-1.2,4-2.4,5.7c-4,6-9.5,7.6-16.7,7.2C267.3,443.8,255.6,444.3,243.4,444.3z M216.2,416.7c18.4,0,36.4,0,54.3,0
		c0-9.2,0-18.1,0-26.9c-18.3,0-36.3,0-54.3,0C216.2,398.9,216.2,407.7,216.2,416.7z"/>
	<path d="M352.8,293.9c-3.2,4-6.3,8-9.7,11.8c-0.9,1-2.5,1.7-3.9,1.7c-4.4,0.2-8.8,0.1-13.5,0.1c0,9,0,17.9,0,27.1
		c8.8,0,17.7,0,27.1,0c0-4.3-0.2-8.9,0.1-13.3c0.1-1.5,0.9-3.2,1.9-4.2c3.7-3.3,7.6-6.3,11.7-9.5c4.1,3.3,8.3,6.6,12.3,10.1
		c0.9,0.8,1.3,2.4,1.3,3.7c0.1,12.2,0.1,24.5,0.1,36.7c0,1.3,0,2.5,0,4.1c4.8,0,9.3-0.1,13.8,0.1c1.3,0.1,3,0.8,3.9,1.8
		c3.3,3.7,6.3,7.6,9.6,11.8c-3.4,4.2-6.7,8.5-10.2,12.5c-0.7,0.8-2.2,1.1-3.4,1.1c-4.4,0.1-8.8,0.1-13.4,0.1c0,9.1,0,18,0,27.3
		c4.3,0,8.7-0.2,13.1,0.1c1.7,0.1,3.6,1.1,4.8,2.3c3.2,3.5,6.1,7.4,9.3,11.3c-3.3,4.1-6.5,8.2-9.9,12.1c-0.8,0.9-2.4,1.5-3.6,1.5
		c-9.8,0.1-19.5,0.1-29.3,0c-1.4,0-2.9-0.8-4.1-1.6c-6.2-4.4-8.3-10.1-8-17.9c0.7-19.4,0.2-38.8,0.2-58.2c0-1.3,0-2.6,0-4.2
		c-1.9,0-3.5,0-5.1,0c-10,0-20.1-0.7-30.1,0.2c-8.2,0.7-13.7-2.3-18.2-8.4c-0.8-1-1.3-2.5-1.3-3.8c-0.1-19.3-0.1-38.5,0-57.8
		c0-1.6,0.9-3.4,1.9-4.7c4.3-6.1,10-8.5,17.6-7.7c7.1,0.7,14.3,0.1,21.5,0.2c1.3,0,3,0.7,3.9,1.7
		C346.4,285.8,349.5,289.9,352.8,293.9z"/>
	<path class="st2" d="M425.4,579.5c3.4,4.3,6.6,8.8,10.2,12.9c0.7,0.8,2.6,0.7,4,0.7c13.1,0.1,26.3,0,40.2,1
		c-0.8,0.7-1.5,1.6-2.4,2.1c-0.6,0.3-1.5,0.1-2.3,0.1c-44.6,0-89.3,0-133.9,0c-0.9,0-1.9,0.2-2.7-0.1c-0.6-0.2-1.2-1.1-1.5-1.7
		c-0.1-0.2,0.9-1.1,1.5-1.3c0.7-0.2,1.5-0.1,2.3-0.1c12.6,0,25.2,0.2,37.9-0.1c2.2,0,4.8-1.2,6.3-2.7c3.2-3.3,5.8-7.2,9.4-11.8
		c-19.8,0-38.3,0-57.2,0c0-29.4,0-58.4,0-87.6c47.3,0,94.7,0,142.3,0c0,29,0,58,0,87.4c-17.8,0-35.5,0-53.1,0
		C426,578.8,425.7,579.1,425.4,579.5z M430.7,541.3c-0.5,0.7-1.1,1.4-1.6,2.2c2.7,2.6,5.6,5.4,9.1,8.7c-3.6-0.4-6.1-0.7-9-1.1
		c0.9,1.2,1.5,2,2.3,3c-1.9,0.1-3.4,0.2-4.9,0.3c-0.1,0.3-0.2,0.5-0.3,0.8c4.7,2.5,9.5,5.1,15.2,8.2c-1.4-3.3-2.3-5.5-3.5-8.2
		c3.1,0.6,5.8,1.1,8.7,1.7c-0.3-0.7-0.3-1-0.5-1.2c-4.7-4.9-9.4-9.7-14-14.6c5.2,0.6,10.3,1.1,15.5,1.7c0.1-0.3,0.2-0.5,0.3-0.8
		c-4.9-3.4-9.8-6.9-15.2-10.7c2.7-0.5,4.7-0.8,6.8-1.2c0-0.3,0-0.6,0-0.9c-4.3-0.8-8.7-1.6-13-2.4c-0.1,0.3-0.3,0.6-0.4,1
		c2.1,2.2,4.1,4.4,6.6,7.1c-2.9-0.1-5.2-0.2-8.7-0.4C426.8,537.2,428.7,539.2,430.7,541.3z M459,541.2c0-0.2,0-0.3,0-0.5
		c-0.2,0.1-0.3,0.1-0.5,0.2C458.7,541,458.9,541.1,459,541.2c3.1,2.6,6.1,5.1,9,7.9c1,0.9,1.6,2.2,3,4.1c-2.5-0.5-3.7-0.8-5.4-1.2
		c2.9,3.9,5.5,7.2,8.3,11c0-23.1,0-45.6,0-68.3c-44,0-87.8,0-131.7,0c0,23.5,0,46.7,0,70.5c1.6,0,3,0,4.3,0
		c22.8,0,45.5-0.1,68.3,0.2c3.4,0,7,1.6,10.2,2.9c2.5,1,4.7,2.9,7.2,4.5C432,568,417,558,403.9,553.4c-0.3,0-0.5,0-0.8-0.1
		c0.2,0.1,0.3,0.2,0.5,0.3c-0.5,0.4-1.3,1.2-1.5,1.1c-1.7-1.1-3.2-2.3-5.7-4.2c3-0.3,4.7-0.6,6.4-0.7c2.4-0.1,4.8-0.2,6.3-0.2
		c0.3-3.6,0.6-6,0.8-8.6c-8.7-1.3-18.2-2.8-27.7-4.3c0.2,0.5,0.3,0.9,0.5,1.4c-0.7,0.5-1.3,1.4-2,1.5c-5.5,1.3-11.1,2.4-15.5,3.3
		c0.5,2.1,1,3.6,1.4,5.2c-1.5,0.2-3.1,0.7-4.4,0.4c-1.2-0.3-2.7-1.5-3-2.5c-0.2-0.9,1-2.6,2-3.2c5.2-3.2,10.5-6.1,16.2-9.4
		c-2-11,6.2-14.9,14.3-18.9c-0.5-3.3-0.9-6.6-1.6-11c4.3,1.9,7.5,3.3,11,4.8c0.2-3.1,0.4-5.9,0.7-9.6c3.5,1.7,6.2,2.9,8.8,4.3
		c4,2.2,7.5,5.4,12.6,5.2c1.4-0.1,3,0.9,4.3,1.7c4.2,2.5,8.5,4.9,12.4,7.8c5,3.6,9.8,7.6,14.6,11.6c0.6,0.5,0.6,1.6,1.2,3.5
		c2.8,2.2,6.6,5.1,10.6,8.3C463.2,541.2,461.1,541.2,459,541.2z M415.8,520c2.1-8.5-4.9-14-11.9-16.9c0,4.4,0,8.9,0,12.5
		C408.2,517.2,411.9,518.6,415.8,520z M393.6,526.7c-8.1-1.1-11.3,0-12.7,4.5c1.5-0.5,2.6-1,3.7-1.3c1.2-0.3,2.4-0.4,3.6-0.7
		c0.3,1.8,0.4,3.2,0.8,5.8c2.1-1.4,3.7-2.4,5.1-3.6c0.3-0.2,0-1.1,0-1.7c-1.2-0.1-2.3-0.1-3.3-0.2c-0.2-0.3-0.4-0.7-0.6-1
		C391.2,528,392.1,527.6,393.6,526.7z"/>
	<path d="M735.6,389.6c3.2,0,6,0.5,8.6-0.1c8.3-1.9,13.1,3.1,17.7,8.5c0.8,0.9,1,2.6,1,3.9c0.1,9.9,0.2,19.8-0.1,29.7
		c0,1.9-1.2,4-2.4,5.7c-4,6-9.6,8.2-16.7,7c-2.5-0.4-5.2-0.1-8.2-0.1c0,4.8,0,9.5,0,14.1c0,8.9,0.1,17.7-0.1,26.6
		c0,1.6-1.1,3.6-2.3,4.8c-3.5,3.2-7.4,6.1-11.3,9.2c-4.1-3.3-8.2-6.5-12.1-9.9c-1-0.9-1.5-2.9-1.5-4.4c-0.1-22.4-0.1-44.8-0.1-67.7
		c-4.7,0-9.3-0.2-13.9,0.1c-2.8,0.1-4.7-0.9-6.8-2.7c-5.3-4.3-7.3-9.3-6.7-16.2c0.6-7.5,0.3-15.1,0.1-22.6c-0.1-2.7,1-4.4,2.6-6.5
		c4.3-5.5,9.5-7.4,16.5-6.9c7.5,0.6,15.1,0.2,22.6,0.1c2.5,0,4.2,0.9,6.2,2.4c5.7,4.4,8,9.7,6.9,16.8
		C735.3,384,735.6,386.6,735.6,389.6z"/>
	<path d="M858.6,553.7c-4.7-3.9-10.6-6.8-13-11.4c-2.2-4.2-0.6-10.4-0.6-15.8c0-18.1,0-36.2,0-54.8c-4.4,0-8.8-0.1-13.1,0.1
		c-2.3,0.1-3.8-0.7-5.2-2.5c-2.8-3.7-5.9-7.3-9-11.2c3.3-4.1,6.6-8.3,10-12.3c0.7-0.8,2.2-1.3,3.3-1.3c4.5-0.2,9.1-0.1,13.8-0.1
		c0-9.2,0-18.1,0-27.3c-4.8,0-9.6,0.2-14.4-0.1c-2-0.1-4-1.2-5.7-2.3c-6.1-4.1-7.8-9.8-7.2-17c0.6-7.1,0-14.3,0.2-21.5
		c0-1.4,0.9-3.2,1.9-4.2c3.7-3.3,7.6-6.3,11.7-9.5c4,3.3,8.1,6.4,12,9.8c0.9,0.8,1.5,2.4,1.6,3.6c0.2,4.5,0.1,9,0.1,13.9
		c5.1,0,9.9-0.2,14.6,0.1c2,0.1,4,1.2,5.7,2.4c6,4,7.2,9.6,7.2,16.7c-0.4,43.4-0.2,86.7-0.1,130.1c0,2.7-0.7,4.6-2.9,6.2
		C865.8,547.7,862.3,550.7,858.6,553.7z"/>
	<path class="st3" d="M516.8,403.3c-3.3,4.1-6.5,8.2-9.9,12.1c-0.8,0.9-2.4,1.5-3.6,1.5c-4.4,0.2-8.8,0.1-13.8,0.1
		c0,4.8-0.1,9.6,0.1,14.3c0.1,2.5-0.9,4.2-2.4,6.2c-4.4,5.7-9.7,7.6-16.9,7c-7.1-0.6-14.3,0-21.5-0.2c-1.5,0-3.5-0.9-4.5-2.1
		c-3.3-3.7-6.3-7.6-9.4-11.5c3.2-4,6.3-8.1,9.7-11.9c0.9-1,2.6-1.7,3.9-1.7c4.4-0.2,8.8-0.1,13.5-0.1c0-9.1,0-18,0-27.3
		c-4.4,0-8.9,0.1-13.4-0.1c-1.4-0.1-3-0.7-3.9-1.7c-3.4-3.8-6.4-7.8-9.7-11.9c3.3-4.1,6.5-8.2,9.9-12.1c0.8-0.9,2.4-1.5,3.6-1.5
		c4.4-0.2,8.8-0.1,13.6-0.1c0.1-1,0.2-2,0.2-3c0-12.5-0.1-25,0.1-37.5c0-1.6,1-3.7,2.2-4.8c3.5-3.3,7.4-6.1,11.4-9.3
		c4.1,3.3,8.3,6.6,12.3,10.1c0.8,0.7,1.3,2.2,1.3,3.3c0.1,4.5,0.1,9.1,0.1,13.9c4.6,0,9-0.2,13.4,0.1c1.6,0.1,3.5,0.9,4.5,2.1
		c3.3,3.7,6.3,7.6,9.4,11.5c-3.3,4.1-6.4,8.1-9.7,11.9c-0.9,1-2.6,1.6-3.9,1.7c-4.4,0.2-8.8,0.1-13.4,0.1c0,9.1,0,18,0,27.3
		c4.3,0,8.7-0.2,13.1,0.1c1.7,0.1,3.6,1.1,4.8,2.3C510.8,395.6,513.7,399.4,516.8,403.3z"/>
	<path d="M831.3,799.8c4.1,3.3,8.2,6.5,12.1,9.9c1,0.9,1.5,2.6,1.5,4c0.1,13.4,0.1,26.8,0.1,40.8c4.7,0,9.3,0.1,13.9-0.1
		c2.8-0.1,4.7,0.9,6.9,2.7c5.4,4.3,7.2,9.4,6.7,16.2c-0.6,7.5-0.3,15.1-0.1,22.6c0.1,2.7-1,4.4-2.6,6.5c-4.3,5.5-9.6,7.8-16.5,6.8
		c-2.5-0.4-5.2-0.1-8.3-0.1c0,4.4,0.2,8.8-0.1,13.1c-0.1,1.7-1,3.7-2.2,4.8c-3.5,3.3-7.4,6.1-11.4,9.3c-4.1-3.3-8.3-6.6-12.3-10.1
		c-0.9-0.8-1.3-2.7-1.4-4.1c-0.1-12.1-0.1-24.2-0.1-36.3c0-1.3,0-2.5,0-4.2c-4.6,0-9,0.2-13.4-0.1c-1.6-0.1-3.5-0.9-4.5-2.1
		c-3.3-3.7-6.3-7.6-9.4-11.5c3.3-4.1,6.4-8.1,9.7-11.9c0.9-1,2.6-1.6,3.9-1.7c4.4-0.2,8.8-0.1,13.7-0.1c0-3.8,0-7.3,0-10.9
		c0-9.9-0.1-19.8,0.1-29.7c0-1.6,1.1-3.6,2.3-4.8C823.6,805.8,827.4,802.9,831.3,799.8z"/>
	<path d="M380.3,170.9c0,9.4,0,18.2,0,27.2c9.1,0,18,0,27.2,0c0-4.5-0.2-8.9,0.1-13.3c0.1-1.5,0.8-3.3,1.9-4.2
		c3.7-3.3,7.6-6.3,11.8-9.6c4.2,3.4,8.5,6.7,12.6,10.2c0.7,0.6,1,2,1,3.1c0.1,9.9,0.1,19.8,0,29.7c0,1.3-0.7,2.7-1.5,3.7
		c-4.5,6.3-10.3,8.5-18.3,8.1c-16.2-0.7-32.5-0.3-48.8-0.1c-2.8,0-4.7-1-6.8-2.7c-5.4-4.3-6.9-9.4-6.7-16.2
		c0.5-16.7,0.2-33.3,0.1-50c0-2.7,1-4.4,2.6-6.5c4.3-5.5,9.6-7.4,16.5-6.8c7.1,0.6,14.3,0,21.5,0.2c1.7,0.1,3.7,1,4.8,2.2
		c3.3,3.5,6.1,7.4,9.3,11.3c-3.3,4.1-6.4,8.2-9.9,12c-0.9,1-2.6,1.5-4,1.6C389.1,171,384.6,170.9,380.3,170.9z"/>
	<path d="M571.5,225.6c-4.6,0-8.9-0.1-13.1,0.1c-2.3,0.1-3.8-0.7-5.2-2.5c-2.8-3.7-5.9-7.3-9-11.2c3.3-4.1,6.6-8.3,10.1-12.3
		c0.8-0.9,2.7-1.4,4.1-1.4c21.2-0.1,42.4-0.1,63.7-0.1c1.3,0,2.5,0,4.2,0c0-4.6-0.2-9,0.1-13.4c0.1-1.6,0.9-3.5,2.1-4.5
		c3.7-3.3,7.6-6.3,11.5-9.4c4,3.3,8.1,6.3,11.9,9.7c1,0.9,1.7,2.6,1.7,3.9c0.1,9.5,0.2,19,0,28.5c0,1.8-1.1,3.8-2.2,5.4
		c-4.1,6-9.7,8.4-17,7.2c-2.5-0.4-5.1-0.1-8-0.1c0,5.1,0.2,9.9-0.1,14.6c-0.1,2-1.2,4-2.4,5.7c-4,6-9.5,7.8-16.7,7.2
		c-7.4-0.7-14.8-0.3-22.3-0.1c-2.7,0.1-4.4-0.9-6.5-2.5c-5.5-4.3-7.9-9.6-6.8-16.5C571.9,231.4,571.5,228.7,571.5,225.6z"/>
	<path d="M845.1,690.4c0,0.9-0.1,1.3-0.1,1.7c0,4.8,1.6,10.6-0.5,14.2c-2.8,4.7-8.5,7.7-13,11.5c-4.1-3.3-8.2-6.4-11.9-9.8
		c-1-0.9-1.7-2.8-1.7-4.3c-0.2-9.4-0.2-18.7,0-28.1c0-1.8,1.1-3.8,2.2-5.4c4.1-6.2,10-8.4,17.4-7.3c2.4,0.4,4.9,0.1,7.5,0.1
		c0-18.3,0-36.3,0-54.7c-4.4,0-8.8,0.2-13.2-0.1c-1.6-0.1-3.5-0.9-4.5-2c-3.3-3.7-6.3-7.6-9.4-11.4c0.3-0.4,0.4-0.8,0.7-1.1
		c3.5-4.2,6.2-9.9,10.7-12.2c4-2.1,9.9-0.5,15-0.5c3.6,0,7.3,0.3,10.9-0.1c5.6-0.6,9.8,1.1,13.6,5.4c2.6,2.9,3.9,5.6,3.9,9.5
		c-0.2,27.1-0.1,54.1,0,81.2c0,2.8-1.1,4.6-2.8,6.8c-4.2,5.5-9.5,7.5-16.2,6.6C850.8,690.1,848,690.4,845.1,690.4z"/>
	<path class="st3" d="M557.9,936.4c-4.1-3.3-8.1-6.4-11.9-9.7c-1-0.9-1.6-2.6-1.7-3.9c-0.2-4.4-0.1-8.8-0.1-13.7
		c-4.8,0-9.4-0.2-14,0.1c-2.7,0.1-4.4-0.9-6.5-2.5c-5.5-4.3-7.9-9.5-6.8-16.5c0.4-2.6,0.1-5.4,0.1-8.4c-4.7,0-9.1,0.2-13.5-0.1
		c-1.5-0.1-3.3-0.8-4.2-1.8c-3.3-3.7-6.3-7.6-9.6-11.7c3.4-4.2,6.7-8.5,10.2-12.6c0.6-0.7,2-1.1,3.1-1.1c9.9-0.1,19.8-0.1,29.7,0
		c1.3,0,2.7,0.7,3.7,1.5c6.3,4.5,9.4,10.3,8,18.3c-0.4,2.3-0.1,4.7-0.1,7.4c1.2,0.1,2.3,0.2,3.4,0.2c12.4,0,24.7-0.1,37.1,0.1
		c1.6,0,3.7,1,4.8,2.2c3.3,3.5,6.1,7.4,9.3,11.4c-3.3,4.1-6.6,8.3-10.1,12.3c-0.7,0.8-2.2,1.3-3.3,1.3c-4.5,0.1-9.1,0.1-13.9,0.1
		c0,4.6,0.2,9-0.1,13.4c-0.1,1.6-0.9,3.5-2.1,4.5C565.7,930.3,561.8,933.3,557.9,936.4z"/>
	<path class="st3" d="M598.9,922.8c3.3-4.1,6.5-8.2,9.9-12.1c0.8-0.9,2.4-1.5,3.6-1.5c27.5-0.1,54.9-0.1,82.4,0c1.3,0,3,0.8,3.9,1.8
		c3.3,3.7,6.3,7.6,9.6,11.8c-3.4,4.2-6.7,8.4-10.2,12.5c-0.6,0.7-2,1.1-3,1.1c-27.6,0.1-55.2,0.1-82.8,0c-1.2,0-2.7-0.8-3.5-1.7
		C605.3,930.9,602.2,926.9,598.9,922.8z"/>
	<path class="st3" d="M475.9,143.6c4.1,3.3,8.2,6.5,12.1,9.9c1,0.8,1.5,2.6,1.5,4c0.1,13.4,0.1,26.8,0.1,40.7c4.5,0,9-0.1,13.5,0.1
		c1.5,0.1,3.3,0.8,4.2,1.8c3.3,3.7,6.3,7.6,9.6,11.7c-3.4,4.2-6.7,8.4-10.2,12.5c-0.6,0.7-1.8,1.1-2.7,1.1
		c-10.1,0.1-20.3,0.1-30.4,0c-1.1,0-2.4-0.7-3.4-1.4c-6.1-4.5-8.6-10.2-8.2-18.2c0.8-16,0.3-32,0.2-48c0-2.3,0.5-3.8,2.4-5.2
		C468.4,149.8,472,146.7,475.9,143.6z"/>
	<path class="st3" d="M407.5,307.6c-5.1,0-9.7-0.1-14.4,0.1c-2.6,0.1-4.2-1-6.1-2.5c-5.7-4.4-7.6-9.7-7-16.8
		c0.6-7.1,0-14.3,0.2-21.5c0-1.5,0.9-3.5,2.1-4.5c3.7-3.3,7.6-6.3,11.5-9.4c4,3.2,8.1,6.3,11.9,9.7c1,0.9,1.7,2.6,1.7,3.9
		c0.2,4.4,0.1,8.8,0.1,13.7c4.9,0,9.6,0.1,14.4-0.1c2.6-0.1,4.2,1,6.1,2.5c5.7,4.4,7.6,9.8,6.9,16.9c-0.6,7.1,0,14.3-0.2,21.5
		c0,1.5-0.9,3.5-2.1,4.5c-3.7,3.3-7.6,6.3-11.5,9.4c-4-3.2-8.1-6.3-11.9-9.7c-1-0.9-1.7-2.5-1.7-3.9
		C407.3,316.9,407.5,312.5,407.5,307.6z"/>
	<path class="st3" d="M366.5,936.4c-4.5-3.6-10.4-6.3-12.8-10.9c-2.3-4.3-1-10.5-1.3-16.4c-4.5,0-9.2-0.2-13.8,0.1
		c-2.7,0.1-4.4-0.9-6.5-2.5c-5.5-4.3-7.5-9.5-6.9-16.5c0.6-7.2,0-14.6,0.2-21.8c0-1.4,0.8-3.3,1.8-4.2c3.7-3.3,7.6-6.3,11.8-9.6
		c4.2,3.4,8.5,6.7,12.5,10.2c0.8,0.7,1.1,2.3,1.1,3.4c0.1,4.4,0,8.8,0,13.6c4.8,0,9.5,0.1,14.1-0.1c2.7-0.1,4.4,0.9,6.5,2.5
		c5.5,4.3,7.5,9.5,6.9,16.5c-0.6,7.2,0,14.6-0.2,21.8c0,1.5-1,3.4-2.1,4.5C374.3,930.4,370.3,933.3,366.5,936.4z"/>
	<path class="st3" d="M626.2,157.2c-3.3,4.1-6.4,8.1-9.7,11.9c-0.8,0.9-2.3,1.7-3.5,1.7c-18.5,0.1-37,0.1-55.4,0
		c-1.2,0-2.7-0.8-3.5-1.7c-3.3-3.8-6.4-7.8-9.7-11.9c3.3-4.1,6.5-8.2,9.9-12.1c0.8-0.9,2.4-1.5,3.6-1.5c18.3-0.1,36.7-0.1,55,0
		c1.3,0,3,0.8,3.9,1.8C619.9,149.1,622.9,153.1,626.2,157.2z"/>
	<path class="st3" d="M680.9,868.1c-3.3,4.1-6.4,8.1-9.7,11.9c-0.9,1-2.6,1.7-3.9,1.7c-18.2,0.1-36.4,0.1-54.6,0
		c-1.4,0-3.2-0.9-4.2-1.9c-3.3-3.7-6.3-7.6-9.5-11.7c3.3-4.1,6.6-8.3,10.1-12.3c0.7-0.8,2.2-1.3,3.3-1.3c18.3-0.1,36.7-0.1,55,0
		c1.2,0,2.8,0.6,3.6,1.5C674.4,859.9,677.6,864,680.9,868.1z"/>
	<path class="st3" d="M598.9,430.7c-3.9,4.7-6.8,10.5-11.5,13c-4.1,2.2-10.2,0.6-15.3,0.6c-13.7,0-27.3,0-41,0.1
		c-2.3,0-3.8-0.6-5.2-2.5c-2.8-3.7-5.8-7.3-9-11.2c3.4-4.2,6.7-8.5,10.2-12.5c0.6-0.7,2-1.1,3-1.1c18.5-0.1,37-0.1,55.4,0
		c1.2,0,2.7,0.8,3.5,1.7C592.5,422.5,595.6,426.5,598.9,430.7z"/>
	<path class="st3" d="M762.7,909.1c0.1-0.7,0.2-1,0.2-1.2c0.1-5-1.4-11,0.7-14.9c2.6-4.6,8.4-7.5,12.9-11.3
		c4.1,3.3,8.2,6.5,12.1,9.9c1,0.9,1.5,2.6,1.6,4c0.1,9.5,0.2,19,0,28.5c0,1.7-1,3.5-2,5c-4.1,6.2-9.9,8.1-17.3,7.5
		c-7-0.6-14,0-21-0.2c-1.7-0.1-3.7-1-4.8-2.2c-3.3-3.5-6.1-7.4-9.3-11.4c3.4-4.2,6.7-8.5,10.2-12.5c0.7-0.8,2.2-1.1,3.4-1.1
		C753.7,909.1,758.1,909.1,762.7,909.1z"/>
	<path class="st3" d="M544.1,266.5c-3.7,4.6-6.4,10.4-10.9,12.8c-4.3,2.3-10.5,0.9-16.3,1.2c0,4.4,0.1,9-0.1,13.4
		c-0.1,1.3-0.7,3-1.7,3.9c-3.8,3.3-7.8,6.4-11.9,9.7c-4.1-3.3-8.2-6.5-12.1-9.9c-0.8-0.7-1.5-2.1-1.5-3.2c-0.1-10-0.1-20,0-30
		c0-1.2,0.8-2.6,1.5-3.7c4.5-6.3,10.3-8.9,18.3-8c6.8,0.7,13.8,0,20.6,0.3c1.7,0.1,3.7,1,4.8,2.2C538.1,258.7,541,262.6,544.1,266.5
		z"/>
	<path class="st3" d="M475.9,881.8c4.1,3.3,8.1,6.4,11.9,9.7c0.9,0.8,1.6,2.3,1.6,3.5c0.2,4.5,0.1,9.1,0.1,14
		c4.7,0,9.2-0.1,13.7,0.1c1.3,0.1,3,0.7,3.9,1.7c3.4,3.8,6.4,7.8,9.7,11.9c-3.3,4.1-6.4,8.2-9.9,12c-0.9,1-2.6,1.6-4,1.6
		c-9.5,0.1-19,0.2-28.5,0c-1.7,0-3.5-1.1-5-2.1c-6.2-4.1-8.2-9.9-7.5-17.3c0.7-7,0.2-14,0.1-21c-0.1-2.3,0.7-3.8,2.5-5.2
		C468.4,888,471.9,885,475.9,881.8z"/>
	<path class="st4" d="M519.3,582.1c-1.5,3.8-2.7,6.7-3.8,9.5c-0.9,2.5-1.7,4.6-5.1,4.2c-3.1-0.3-6.3,0.8-8-3.5
		c-2.2-5.7-4.8-11.3-7.8-16.6c-4.3-7.4-2.3-15.1-2.6-22.8c4.2,0,7.9,0,12.1,0c-0.7,9.7-1.9,19.3,5.1,27.2c4.9-8.4,4.4-17.6,4-27
		c4.1,0,7.9,0,11.5,0c0.5,6.6,0.7,12.8,1.5,18.9c0.4,2.7,1.8,5.3,2.8,8c0.4,0.1,0.8,0.2,1.2,0.2c1.5-4.4,3.6-8.6,4.4-13.2
		c0.8-4.5,0.2-9.3,0.2-14.2c3.7,0,7.5,0,11.7,0c-0.3,7.2,1.9,14.4-2.2,21.5c-3.5,5.9-6.1,12.4-8.8,18.7c-1.7,4-5,2.3-7.7,2.7
		c-2.5,0.4-3.8-0.8-4.6-3.2C522.3,589.5,520.9,586.4,519.3,582.1z"/>
	<path class="st3" d="M421.2,881.8c4.1,3.3,8.1,6.4,11.9,9.7c0.9,0.8,1.6,2.3,1.6,3.5c0.1,9.4,0.1,18.7,0,28.1
		c0,1.2-0.8,2.7-1.7,3.5c-3.8,3.3-7.8,6.4-11.9,9.7c-4.1-3.3-8.2-6.5-12.1-9.9c-0.9-0.8-1.5-2.4-1.5-3.6c-0.1-9.2-0.1-18.5,0-27.7
		c0-1.3,0.8-3,1.8-3.8C413.1,888.1,417.1,885.2,421.2,881.8z"/>
	<path class="st3" d="M776.6,499c-4.6-3.8-10.5-6.7-13-11.4c-2.2-4.2-0.6-10.4-0.7-15.7c0-0.3,0-0.5,0-0.8c0-5.2-1.6-11.3,0.5-15.4
		c2.6-4.8,8.5-7.7,13.1-11.5c4.2,3.4,8.3,6.6,12.2,10c0.8,0.7,1.4,2.1,1.5,3.2c0.1,9.4,0.1,18.7,0,28.1c0,1.2-0.7,2.8-1.6,3.6
		C784.8,492.5,780.8,495.6,776.6,499z"/>
	<path class="st3" d="M694.5,553.7c-4.7-3.9-10.6-6.7-13-11.4c-2.2-4.2-0.6-10.4-0.6-15.7c0-4.7-0.1-9.4,0.1-14
		c0.1-1.3,0.8-3,1.8-3.9c3.7-3.3,7.6-6.3,11.8-9.6c4.2,3.4,8.4,6.7,12.5,10.2c0.7,0.6,1.1,2,1.1,3c0.1,9.4,0.1,18.7,0,28.1
		c0,1.2-0.8,2.7-1.7,3.5C702.7,547.2,698.7,550.3,694.5,553.7z"/>
	<path class="st3" d="M858.6,772.4c-4.6-3.9-10.6-6.7-13-11.4c-2.2-4.2-0.6-10.4-0.6-15.7c0-0.4,0-0.8,0-1.2c0-5.1-1.6-11.1,0.6-15
		c2.7-4.7,8.5-7.7,13.1-11.5c4.1,3.3,8.1,6.4,11.9,9.7c1,0.9,1.7,2.6,1.7,3.9c0.1,9.1,0.1,18.2,0,27.3c0,1.3-0.7,3.1-1.6,3.9
		C866.8,766,862.8,769.1,858.6,772.4z"/>
	<path class="st3" d="M749.2,553.7c-4.6-3.8-10.5-6.7-13-11.4c-2.2-4.2-0.6-10.4-0.7-15.7c0-0.4,0-0.8,0-1.2c0-5.1-1.6-11.1,0.5-15
		c2.7-4.8,8.5-7.7,13.1-11.5c4.2,3.4,8.3,6.6,12.2,10c0.8,0.7,1.4,2.1,1.4,3.2c0.1,9.4,0.1,18.7,0,28.1c0,1.2-0.7,2.8-1.6,3.6
		C757.4,547.2,753.4,550.3,749.2,553.7z"/>
	<path class="st3" d="M804.1,662.9c-0.2-0.1-0.3-0.2-0.4-0.2c-4.4-3.6-10.3-6.4-12.8-11.1c-2.2-4-0.5-10.2-0.5-15.4
		c0-4.6-0.2-9.1,0.1-13.7c0.1-1.7,1-3.7,2.2-4.8c3.5-3.3,7.4-6.1,11.4-9.3c4.1,3.3,8.3,6.6,12.3,10c0.8,0.7,1.3,2.2,1.3,3.3
		c0.1,9.4,0.1,18.7,0,28.1c0,1.2-0.8,2.7-1.7,3.5C812,656.7,808,659.8,804.1,662.9z"/>
	<path class="st3" d="M216.1,704.1c-3.3,4.1-6.4,8.1-9.7,11.9c-0.9,1-2.6,1.7-3.9,1.7c-9.1,0.1-18.2,0.1-27.3,0
		c-1.3,0-3-0.7-3.9-1.7c-3.4-3.8-6.4-7.8-9.8-11.9c3.3-4.1,6.5-8.1,9.9-12c0.8-0.9,2.4-1.5,3.6-1.6c9.2-0.1,18.5-0.1,27.7,0
		c1.2,0,2.8,0.6,3.6,1.5C209.6,695.9,212.8,700,216.1,704.1z"/>
	<path class="st3" d="M79.3,704c3.9-4.7,6.8-10.5,11.4-13c4.1-2.2,10.2-0.6,15.3-0.6c4.8,0,9.6-0.1,14.4,0.1c1.3,0.1,3,0.8,3.9,1.8
		c3.3,3.7,6.3,7.6,9.6,11.8c-3.4,4.2-6.7,8.4-10.2,12.5c-0.6,0.7-2,1.1-3,1.1c-9.4,0.1-18.7,0.1-28.1,0c-1.2,0-2.7-0.8-3.5-1.7
		C85.8,712.2,82.7,708.1,79.3,704z"/>
	<path class="st5" d="M540.9,494.6c0,3.1,0,6.3,0,9.7c-3,0-5.9,0-9.3,0c0,10.9,0,21.7,0,33c-4.2,0-8.3,0-12.5,0c0-11,0-21.8,0-32.7
		c-3.4,0-6.6,0-10,0c0.5-3.4,1-6.7,1.5-10C520.7,494.6,530.6,494.6,540.9,494.6z"/>
	<path class="st5" d="M580.8,580.6c0,9.4-6.4,15.8-15.7,15.7c-9-0.1-15.4-6.6-15.3-15.7c0.1-9.4,6.2-15.6,15.3-15.7
		C574.4,564.8,580.8,571.2,580.8,580.6z M565.1,586.6c3,0.1,5.4-2.4,5.6-5.8c0.1-3.4-2.1-6.1-5-6.3c-3.2-0.2-5.7,2.5-5.8,6
		C559.9,583.8,562.2,586.6,565.1,586.6z"/>
	<path class="st6" d="M602.6,577.1c-0.9-0.3-1.8-0.5-3.8-1.1c0.6-3,1.2-6,2-9c0.2-0.9,1.4-1.7,1.5-2.5c0.6-10.3,5.1-14.3,15.9-13.6
		c0.5,2.5,1.1,5.1,1.6,7.6c-6.4,3-6.4,3-5.9,7.9c0.9,0,1.9,0.1,2.9,0.2c0.9,0.1,1.8,0.1,2.9,0.2c0,3.2,0,6.3,0,9.6
		c-1.8,0.1-3.5,0.2-5.1,0.3c0,5.1-0.2,10,0.1,14.9c0.2,3.1-0.5,4.4-4,4.3c-9.2-0.3-7.6,0.6-7.7-7.7c-0.1-3.4,0-6.8-0.1-10.1
		C602.9,577.8,602.7,577.6,602.6,577.1z"/>
	<path class="st7" d="M493.1,494.7c4.4,0,8.4,0,12.5,0c0,14.1,0,28.1,0,42.6c-4.3,0-8.4,0-12.5,0C493.1,523,493.1,508.9,493.1,494.7
		z"/>
	<path class="st5" d="M584.6,552.8c3.6,0,7.4,0,11.7,0c0,1.1,0,2.1,0,3.1c-0.2,12.1-0.5,24.2-0.5,36.3c0,2.6-0.5,3.9-3.4,3.7
		c-2.4-0.1-4.9,0-7.9,0C584.6,581.2,584.6,567.1,584.6,552.8z"/>
	<path class="st8" d="M339.1,226c4.4,4.4,8.9,8.8,13.3,13.1c-4.4,4.5-8.9,9-13.2,13.3c-4.5-4.4-9-8.9-13.3-13.2
		C330.3,234.8,334.8,230.4,339.1,226z"/>
	<path class="st8" d="M530.7,308c4.4,4.4,8.8,8.8,13.2,13.1c-4.5,4.5-9,8.9-13.5,13.3c-4.2-4.3-8.6-8.8-13.1-13.2
		C521.7,316.9,526.2,312.5,530.7,308z"/>
	<path class="st8" d="M530.4,389.2c-4.4-4.4-8.9-8.8-13.2-13.1c4.5-4.5,9-8.9,13.5-13.3c4.3,4.3,8.7,8.8,13.1,13.3
		C539.4,380.3,534.9,384.7,530.4,389.2z"/>
	<path class="st8" d="M79.8,403.3c4.4-4.4,8.9-8.9,13.2-13.2c4.4,4.4,8.9,8.8,13.3,13.1c-4.4,4.4-8.9,8.9-13.2,13.2
		C88.6,412.1,84.1,407.6,79.8,403.3z"/>
	<path class="st8" d="M161.9,457.9c4.3-4.3,8.8-8.7,13.3-13.2c4.3,4.4,8.8,8.9,13.2,13.3c-4.4,4.3-8.9,8.8-13.4,13.3
		C170.7,466.9,166.3,462.4,161.9,457.9z"/>
	<path class="st8" d="M653.2,540c-4.4,4.5-8.9,9-13.2,13.3c-4.5-4.4-9-8.9-13.3-13.2c4.4-4.5,8.9-9,13.2-13.3
		C644.3,531.2,648.8,535.6,653.2,540z"/>
	<path class="st8" d="M639.8,607.9c-4.3-4.3-8.8-8.8-13.2-13.3c4.4-4.4,8.9-8.8,13.4-13.3c4.4,4.4,8.9,8.9,13.3,13.4
		C648.8,599.1,644.3,603.5,639.8,607.9z"/>
	<path class="st8" d="M776.6,553.9c4.5,4.5,8.9,8.9,13.4,13.4c-4.5,4.4-9,8.9-13.5,13.3c-4.3-4.4-8.8-8.9-13.3-13.4
		C767.6,562.9,772.1,558.4,776.6,553.9z"/>
	<path class="st8" d="M435.5,676.2c4-4,8.4-8.4,12.8-12.8c4.3,4.5,8.7,9,13,13.6c-4,3.8-8.5,8.2-13.1,12.5
		C444.4,685.5,440,681,435.5,676.2z"/>
	<path class="st8" d="M817.2,512.9c-4.3,4.3-8.7,8.7-13.1,13c-4.4-4.5-8.8-9-13.2-13.4c4.2-4.1,8.7-8.6,13.2-12.9
		C808.2,503.8,812.6,508.3,817.2,512.9z"/>
	<path class="st8" d="M270.1,704.6c-4,4-8.4,8.4-12.9,12.8c-4.3-4.5-8.6-9-13-13.6c4-3.8,8.6-8.1,13.1-12.4
		C261.2,695.3,265.5,699.8,270.1,704.6z"/>
	<path class="st8" d="M284.2,525.9c-4.3-4.3-8.7-8.7-13-13.1c4.5-4.4,9-8.8,13.4-13.2c4.2,4.2,8.6,8.7,13,13.2
		C293.3,516.9,288.8,521.3,284.2,525.9z"/>
	<path class="st8" d="M325,184.5c-4.4,4.4-8.8,8.9-13.1,13.3c-4.5-4.4-9-8.9-13.3-13.2c4.4-4.5,8.9-9,13.2-13.3
		C316.2,175.7,320.7,180.2,325,184.5z"/>
	<path class="st8" d="M189.3,484.8c4-4,8.4-8.4,12.8-12.8c4.3,4.5,8.7,9,13,13.5c-4,3.9-8.5,8.2-13.1,12.6
		C198.3,494.1,193.9,489.6,189.3,484.8z"/>
	<path class="st8" d="M244.1,484.8c4-4,8.4-8.4,12.8-12.7c4.3,4.4,8.6,9,13,13.5c-4,3.8-8.6,8.1-13.2,12.4
		C253,494.1,248.6,489.6,244.1,484.8z"/>
	<path class="st8" d="M558.1,827.5c4.3,4.4,8.7,8.8,13.1,13.2c-4.4,4.4-8.9,8.8-13.4,13.2c-4.2-4.3-8.6-8.8-13-13.3
		C549,836.5,553.5,832,558.1,827.5z"/>
	<path class="st8" d="M298.6,458c4.4-4.5,8.9-9,13.2-13.3c4.5,4.4,9,8.9,13.3,13.2c-4.4,4.5-8.9,9-13.2,13.3
		C307.4,466.8,302.9,462.3,298.6,458z"/>
	<path class="st8" d="M530.7,171.4c4.2,4.3,8.7,8.8,13.1,13.2c-4.3,4.3-8.8,8.7-13.3,13.2c-4.3-4.3-8.7-8.8-13.2-13.3
		C521.6,180.2,526.2,175.8,530.7,171.4z"/>
	<path class="st8" d="M735.1,895.8c-4.3,4.3-8.7,8.7-13,13.1c-4.4-4.5-8.9-9-13.2-13.5c4.2-4.1,8.7-8.5,13.1-12.9
		C726.2,886.7,730.6,891.1,735.1,895.8z"/>
	<path class="st8" d="M804,718.1c4.4,4.4,8.8,8.9,13.3,13.3c-4.4,4.4-8.9,8.8-13.3,13.3c-4.4-4.4-8.8-8.9-13.3-13.4
		C795,727,799.5,722.5,804,718.1z"/>
	<path class="st9" d="M694.6,745.5c-4.5,4.4-9,8.9-13.3,13.2c4.4,4.5,8.9,9,13.2,13.3c4.5-4.4,9-8.9,13.3-13.2
		C703.4,754.3,699,749.8,694.6,745.5z"/>
	<path class="st10" d="M176.5,881.8c7,0,14,0,21.1,0c11.6,0,18.4-6.6,18.5-18.3c0.1-15,0.1-29.9-0.1-44.9c0-1.3-1.2-2.8-2.2-3.9
		c-4-4.1-8.5-7.9-12.3-12.3c-1.5-1.7-2.6-2.7-5-2.7c-14.6,0.1-29.1,0.1-43.7,0.1c-11.7,0-18.6,6.5-18.7,18.2
		c-0.2,15.1-0.1,30.2,0.1,45.3c0,1.2,1,2.9,2.1,3.5c5.3,3.3,9.5,7.5,12.9,12.8c0.7,1.1,2.6,2.2,3.9,2.2
		C160.8,881.9,168.6,881.8,176.5,881.8z"/>
	<path class="st11" d="M394.5,550.3c0.1-0.4,0.2-0.8,0.3-1.2c-2.7-0.8-5.7-2.6-8.1-2.1c-6.1,1.2-12,3.5-18.1,5.3
		c2.2,2.2,4.3,4.3,8,3.1C382.5,553.5,388.5,551.9,394.5,550.3z"/>
	<path class="st11" d="M403.5,553.7c-0.2-0.1-0.3-0.2-0.5-0.3c0.3,0,0.5,0,0.8,0.1C403.8,553.5,403.6,553.6,403.5,553.7z"/>
	<path class="st11" d="M459.1,541.2c-0.2-0.1-0.4-0.2-0.6-0.3c0.2-0.1,0.3-0.1,0.5-0.2C459,540.9,459,541,459.1,541.2
		C459,541.2,459.1,541.2,459.1,541.2z"/>
	<path class="st8" d="M694.6,745.5c4.3,4.4,8.8,8.8,13.2,13.3c-4.4,4.3-8.8,8.8-13.3,13.2c-4.3-4.4-8.8-8.8-13.2-13.3
		C685.7,754.4,690.2,749.9,694.6,745.5z"/>
	<path class="st12" d="M176.5,198.2c7,0,14,0,21.1,0c11.3,0,18.2,6.3,18.4,17.6c0.3,15.3,0.1,30.7,0,46c0,1.1-1,2.7-1.9,3.2
		c-5.5,3.3-9.8,7.6-13.2,13c-0.7,1-2.4,2-3.6,2c-15.6,0.1-31.2,0.2-46.8,0.1c-9.2-0.1-16-6.9-16.2-17c-0.4-15.6-0.2-31.2-0.1-46.8
		c0-1,0.9-2.4,1.8-3c5.6-3.3,10-7.8,13.5-13.3c0.6-1,2.4-1.8,3.7-1.9C160.9,198.1,168.7,198.2,176.5,198.2z"/>
	<path class="st12" d="M775.3,198.2c7.5,0,15.1,0.1,22.6,0c2.3,0,3.5,0.8,5.1,2.6c3.8,4.4,8.2,8.2,12.2,12.4
		c1.1,1.1,2.4,2.8,2.4,4.2c0.2,14.7,0.2,29.4,0.1,44.1c-0.1,12.4-6.7,18.9-19.2,18.9c-14.3,0-28.6,0-42.9,0c-2.4,0-3.7-0.8-5.4-2.7
		c-3.7-4.4-8.2-8.1-12.3-12.3c-1-1-2.2-2.6-2.2-3.9c-0.2-15-0.2-29.9-0.1-44.9c0.1-11.7,6.9-18.3,18.6-18.3
		C761.2,198.2,768.2,198.2,775.3,198.2z"/>
	<path class="st12" d="M176.5,881.8c-7.8,0-15.6,0.1-23.4-0.1c-1.3,0-3.2-1.1-3.9-2.2c-3.4-5.2-7.6-9.5-12.9-12.8
		c-1.1-0.6-2.1-2.3-2.1-3.5c-0.1-15.1-0.2-30.2-0.1-45.3c0.1-11.7,7-18.1,18.7-18.2c14.6,0,29.1,0.1,43.7-0.1c2.4,0,3.5,1,5,2.7
		c3.8,4.3,8.2,8.1,12.3,12.3c1,1,2.2,2.6,2.2,3.9c0.2,15,0.2,29.9,0.1,44.9c-0.1,11.8-6.9,18.3-18.5,18.3
		C190.5,881.8,183.5,881.8,176.5,881.8z"/>
	<path class="st13" d="M394.5,550.3c-6,1.7-12,3.2-17.9,5.1c-3.8,1.2-5.8-0.9-8-3.1c6-1.9,11.9-4.1,18.1-5.3
		c2.5-0.5,5.4,1.4,8.1,2.1C394.7,549.5,394.6,549.9,394.5,550.3z"/>
</g>
<g>
	<path class="st3" d="M1661.1,810.7c-4.8,0-9.3,0.1-13.7,0c-5.3-0.1-8.1-3-8.2-8.3c0-0.3,0-0.5,0-0.8c-0.1-4.3,1.2-9.4-0.8-12.5
		c-2-3.1-7.2-4.2-11-6.2c-3.1-1.6-6.2-3.1-10.3-5.2c10.9-4,19.1-12.4,31.2-10.9c4.1,0.5,8.3,0.1,13.4,0.1c-3.3-16,1.4-30,10.6-43
		c1.4,2.7,2.9,5.7,4.4,8.6c2.1,4.1,3.3,9.9,6.7,12c3.4,2.1,9.1,0.6,13.8,0.6c2.4,0,4.9,0,8.3,0c-3.3-16,1.4-30,10.6-43
		c1.4,2.7,2.6,5.6,4.3,8.2c5.4,8.4,7.5,17.5,6.4,27.4c-0.3,2.3,0,4.6,0,7.2c14.6,0,28.9,0,43.7,0c0-6.7,0.1-13.4-0.1-20.1
		c0-0.9-1.3-2.1-2.2-2.6c-6.2-3.2-12.5-6.3-19.4-9.8c5.9-3,11.4-5.4,16.5-8.5c6.9-4.1,14.2-2.5,21.3-2.2c3.5,0.1,5.7,3.2,5.7,6.9
		c0.1,17.1,0.1,34.1,0,51.2c0,4.3-3.2,7.1-7.7,7.2c-4.5,0.1-9.1,0-13.9,0c0,21.8,0,43.5,0,65.6c4.2,0,8.6,0,13,0
		c5.8,0.1,8.6,2.8,8.6,8.6c0,4.3,0,8.6,0,13c7.3,0,14.4,0,21.9,0c0-4.2,0-8.5,0-12.7c0-6.1,2.7-8.9,8.8-8.9c4.3,0,8.5,0,13.1,0
		c0-3.9,0-7.5,0-11.1c0-3.5,0-7,0-10.8c-6.5,0-12.7,0.1-18.9-0.1c-1.9,0-3.8-0.5-5.5-1.3c-6.2-2.9-12.3-6.1-19.2-9.5
		c4.4-2.2,8.3-4,12-6.2c6.4-3.9,13.2-5.6,20.8-4.9c3.5,0.4,7,0.1,10.7,0.1c0-21.9,0-43.6,0-65.6c-4.2,0-8.3,0-12.4,0
		c-6.6,0-9.3-2.6-9.3-9.2c0-24.7,0-49.5,0-74.2c0-1.3,0-2.5,0-4.1c-6.9,0-13.5-0.1-20.1,0.1c-1,0-2.4,1.3-2.9,2.4
		c-3.2,6.2-6.3,12.4-9.8,19.3c-3.4-6.7-6.3-12.9-9.5-18.8c-1-1.8-2.7-3.5-4.5-4.4c-5.9-3.2-12-6.1-18.9-9.6
		c11.1-4.4,19.9-13.1,32.3-10.8c9,1.6,14.2-1.8,16.9-10.4c1.2-3.8,3.5-7.2,5.6-11.5c3.3,6.7,6.5,12.7,9.4,18.8c1.1,2.4,2.4,3.3,5,3
		c12.7-1.6,24.4,1.3,35.1,8.3c1.4,0.9,2.9,1.5,5.1,2.6c-6.6,3.3-12.6,6.5-18.8,9.3c-2.3,1.1-3.2,2.3-3.1,5c0.2,6,0.1,12,0.1,18.5
		c4.4,0,8.8,0,13.2,0c5.8,0,8.7,2.8,8.7,8.6c0,69.3,0,138.5,0,207.8c0,1,0,2.2-0.4,3c-3.3,6.8-6.8,13.6-10.5,21.1
		c-3.3-6.6-6.5-12.5-9.3-18.5c-1.1-2.4-2.4-3.5-5.2-3.4c-6,0.2-11.9,0.1-18.4,0.1c0,4.5,0,8.9,0,13.3c-0.1,5.8-2.9,8.6-8.7,8.6
		c-10.7,0-21.4,0.1-32,0c-2.3,0-3.5,0.7-4.4,2.7c-2.9,6.2-6.1,12.3-9.5,19.1c-3.3-6.5-6.1-12.6-9.4-18.4c-1.1-2-3-3.9-4.9-5
		c-5.8-3.2-11.8-6-18.4-9.4c5.3-2.7,9.9-5.5,14.9-7.4c5.5-2.1,7.9-5.2,7-11.2c-0.6-4.5-0.1-9.1-0.1-13.9c-14.4,0-28.8,0-43.5,0
		c-0.1,0.7-0.2,1.7-0.2,2.7c0,10.3,0,20.6,0,30.9c0,7.6-2.4,9.9-10.1,9.9c-3.8,0-7.5,0-11.6,0c-0.1,1.2-0.2,2.4-0.2,3.5
		c0,10.7,0,21.4,0,32c0,5.3-3,8.2-8.3,8.2c-23.6,0-47.1,0-70.7,0c-5.7,0-8.5-2.9-8.5-8.8c0-24.9,0-49.7,0-74.6c0-1.3,0-2.5,0-4
		c-7.4,0-14.5,0-21.9,0c0,4.5,0,8.9,0,13.3c-0.1,5.5-2.9,8.4-8.5,8.4c-18.9,0-37.7,0-56.9,0c0,7.2,0,14.3,0,21.9c1.1,0,2.4,0,3.6,0
		c12.2,0,24.5-0.1,36.7,0.1c2,0,4.1,0.6,5.9,1.4c6.2,2.9,12.3,6,19.4,9.6c-11,4.2-19.4,12-31.6,11c-11.2-0.9-22.6-0.2-34.2-0.2
		c0,4.6,0,9,0,13.4c-0.1,5.5-3,7.8-8.4,8.6c-13.4,2.1-23.6-5.3-35.1-11.1c6.4-3.2,12.3-6.4,18.3-9.2c2.6-1.2,3.5-2.7,3.4-5.6
		c-0.2-13.1-0.1-26.3-0.1-40c-6.9,0-13.8-0.1-20.6,0.1c-0.9,0-2,1.4-2.5,2.4c-3.2,6.2-6.3,12.4-9.7,19.3
		c-3.8-7.5-7.3-14.4-10.7-21.4c-0.5-1-0.2-2.3-0.2-3.5c0-17.7,0-35.4,0-53.1c0-6.9,2.6-9.4,9.4-9.5c4.1,0,9.2,1.2,12.2-0.7
		c3-1.9,4.1-7,6-10.7c1.7-3.2,3.3-6.5,5.3-10.4c2.2,4.4,4.7,8.2,6.2,12.4c2.6,7.1,7.2,11.6,14.2,14.2c4.1,1.5,7.8,3.8,12.4,6.2
		c-6.7,3.4-12.8,6.5-18.9,9.4c-2.1,1-3.1,2.2-3,4.7c0.2,6.1,0.1,12.2,0.1,18.5c21.8,0,43.5,0,65.6,0c0-6.7,0.1-13.4-0.1-20.1
		c0-0.9-1.2-2.1-2.2-2.6c-6.2-3.2-12.5-6.3-19.5-9.8c3-1.5,5.6-2.5,7.9-4c9-5.9,18.9-7.8,29.6-7c8.3,0.6,16.7,0,25,0.2
		c2.3,0,3.5-0.6,4.5-2.7c2.9-6.2,6.1-12.3,9.7-19.5c3.7,10.7,11.2,18.4,11,30c-0.6,32.3-0.2,64.6-0.2,96.9c0,1.4,0,2.8,0,4.4
		c14.6,0,29,0,43.6,0c0-7.1,0-14.2,0-21.7c-4.4,0-8.8,0-13.2,0c-5.6-0.1-7.8-3-8.6-8.4c-2-13.4,5.3-23.6,11.1-35.1
		c3,5.9,6,11.2,8.4,16.9c1.6,3.8,3.7,5.2,7.8,4.9c5.3-0.4,10.7-0.1,16.3-0.1c0-7.1,0-14.2,0-21.9c-3.7,0-7.7,0-11.7,0
		c-7.5,0-9.9-2.4-9.9-9.7C1661.1,833.5,1661.1,822.3,1661.1,810.7z M1683.2,767.1c0,21.6,0,43.4,0,65.3c21.7,0,43.4,0,65.2,0
		c0-21.8,0-43.5,0-65.3C1726.7,767.1,1705.1,767.1,1683.2,767.1z"/>
	<path class="st14" d="M1463.5,657.5c-9.6-0.5-19.3-0.2-28.8-1.5c-51.2-7.2-93-49.3-100.4-100.5c-9.2-63.7,30.7-121.7,93.6-135.8
		c7.1-1.6,14.4-1.8,21.6-2.7c1.2-0.2,2.4-0.6,3.6-0.9c0,0,0.1,0,0.1,0c3.5,0.5,7.1,1,10.6,1.4c53.2,5.4,94.8,41.8,106.8,93.6
		c14.7,63.7-26.4,129.1-90.1,143.3C1474.9,655.7,1469.1,656.5,1463.5,657.5L1463.5,657.5z M1453.1,587.6
		C1453.1,587.6,1453.1,587.6,1453.1,587.6c16.7,0,33.3,0.1,50-0.1c13.4-0.2,22.1-9.2,22.1-22.5c0-18.5,0-37,0-55.4
		c0-13.5-8.9-22.5-22.5-22.5c-32.9,0-65.8,0-98.8,0c-13.5,0-22.5,9-22.5,22.5c0,18.1,0,36.2,0,54.3c0,15.1,8.6,23.7,23.7,23.7
		C1421.1,587.6,1437.1,587.6,1453.1,587.6z"/>
	<path class="st3" d="M1463.4,657.6c4.9,0,9.9-0.1,14.8,0c4.8,0.1,7.7,3.1,7.8,7.9c0.1,4.5,0,9.1,0,13.9c4.6,0,9,0,13.4,0
		c5.5,0.1,8.4,2.9,8.5,8.4c0.1,4.3,0,8.6,0,13.4c2.3,0,4.6,0,6.9,0c14.6,0,15,0.4,15,15.2c0,9.4,0,18.7,0,28.6c7.4,0,14.6,0,21.8,0
		c7.1,0,14.3,0,21.7,0c0-7.2,0-14.3,0-21.9c-4.3,0-8.6,0-13,0c-5.8-0.1-8.6-2.8-8.6-8.7c0-4.3,0-8.5,0-13.2c-4.6,0-9,0-13.4,0
		c-5.6-0.1-8.5-2.9-8.5-8.4c-0.1-9-0.1-18,0-26.9c0-5.5,2.9-8.4,8.5-8.4c11.6,0,23.2,0,35.2,0c0-2.2,0-4.4,0-6.6c0-9.5,0-19,0-28.5
		c0-5.8,2.8-8.6,8.6-8.7c4.2,0,8.3,0,12.5,0c0.1,0,0.2-0.1,0.8-0.3c0-3.9,0-8,0-12.1c0-8.9-0.2-17.7,0.1-26.6c0.1-3.7-1.2-5.5-4.4-7
		c-5.7-2.6-11.2-5.5-17.5-8.6c4.2-2.1,7.6-4.3,11.4-5.7c7.9-2.8,12.8-8.1,15.7-15.8c1.4-3.7,3.5-7.1,5.6-11.3
		c3.4,6.8,6.5,12.8,9.4,19c1,2.2,2.3,2.9,4.7,2.9c17.7-0.1,35.4-0.1,53.1-0.1c6.6,0,9.2,2.6,9.3,9.2c0,4,0,8.1,0.1,12.1
		c0,0.1,0.2,0.2,0.6,0.6c12.6,0,25.6-0.1,38.6,0.1c2.8,0,5.9,0.8,8.5,2c5.8,2.6,11.4,5.6,17.8,8.8c-4.7,2.4-8.7,4.9-13.1,6.5
		c-6.5,2.5-10.7,6.7-13.2,13.2c-1.6,4.3-4.1,8.3-6.5,13.1c-3.3-6.6-6.5-12.5-9.3-18.5c-1.1-2.5-2.5-3.4-5.2-3.3
		c-10.4,0.2-20.8,0.1-31.2,0.1c-6.3,0-8.9-2.7-9-9.1c0-4.1,0-8.3,0-12.8c-7.5,0-14.8,0-22,0c-7.1,0-14.3,0-21.6,0
		c0,7.4,0,14.4,0,21.9c4.5,0,8.9,0,13.3,0c5.5,0.1,8.4,2.9,8.4,8.4c0,16.3,0,32.5,0,48.8c0,5.5-3,8.3-8.5,8.3c-11.6,0-23.1,0-35,0
		c0,7.2,0,14.3,0,22.4c15.7-3,29.8,1.3,42.8,10.8c-6.1,3-12.3,6.2-18.5,9.2c-2.1,1-2.8,2.2-2.7,4.5c0.2,5.3,0.2,10.7,0,16
		c-0.1,2.2,0.7,3.2,2.6,4.1c6.3,3,12.5,6.2,19.3,9.6c-6.9,3.4-13.1,6.6-19.3,9.6c-1.9,0.9-2.8,1.9-2.6,4.1c0.2,3.4,0.1,6.8,0.1,10.2
		c0,6.1-2.7,8.8-8.7,9c-4.4,0.1-9.7-1.2-12.9,0.8c-3.2,2-4.3,7.4-6.3,11.3c-1.5,3-3,6-4.8,9.7c-3.3-6.7-6.5-12.7-9.4-18.8
		c-1.1-2.4-2.4-3.1-5-3.1c-19.7,0.1-39.3,0.1-59,0c-2.4,0-3.7,0.7-4.7,2.9c-2.9,6.2-6,12.2-9.4,19c-3.8-7.6-8.2-14.2-10.4-21.5
		c-1.6-5.2-0.7-11.4,0-17c0.4-3.5,3.6-5.2,7.3-5.2c4.5,0,9.1,0,13.8,0c0-7.3,0-14.4,0-21.7c-14.4,0-28.7,0-43.5,0
		c0,4.6,0,9.2,0,13.9c0,5.3,0,10.7,0,16c0,4.7,1,9.8-0.4,14c-2.5,7.2-6.7,13.9-10.5,21.5c-3.4-6.7-6.5-12.8-9.4-18.9
		c-1-2.2-2.2-3.1-4.7-2.9c-3.2,0.2-6.5,0.1-9.8,0.1c-6.2,0-8.9-2.8-8.9-9.1c0-4.1,0-8.3,0-12.6c-7.4,0-14.4,0-21.9,0
		c0,4.5,0,8.9,0,13.3c-0.1,5.5-3,7.7-8.4,8.6c-13.4,2.1-23.5-5.5-35.2-11.1c6.6-3.3,12.6-6.5,18.8-9.3c2.4-1.1,3.2-2.4,3-5
		c-0.3-3.5-0.1-7,0-10.5c0.1-4.8,3-7.8,7.8-7.9c4.5-0.1,9.1,0,14,0c0-4.3,0-8.4,0-12.5c0-6.7,2.6-9.3,9.1-9.4
		c4.3-0.1,9.4,1.2,12.5-0.8c3-1.8,4-7,5.9-10.7c1.6-3.2,3.3-6.4,5.2-10.3c3.3,6.6,6.5,12.6,9.3,18.8c1.1,2.4,2.4,3.2,5,3.1
		c6-0.2,12-0.1,18.4-0.1c0-6.9,0.1-13.8-0.1-20.6c0-0.9-1.4-2-2.4-2.5c-6.2-3.2-12.4-6.3-19-9.6
		C1449.9,664.7,1456.7,661.1,1463.4,657.6C1463.5,657.5,1463.4,657.6,1463.4,657.6z"/>
	<path class="st3" d="M1409.5,285.7c-3.4-6.8-6.5-12.9-9.5-19.1c-1-2-2.1-2.9-4.4-2.8c-6.1,0.2-12.2,0.1-18.9,0.1c0,1.3,0,2.5,0,3.7
		c0,17.4,0,34.9,0,52.3c0,7.1-2.5,9.5-9.7,9.5c-11.1,0-22.1,0-33.2,0c-0.1,0-0.2,0.1-0.8,0.2c0,2.8,0,5.7,0,8.7c0,8.7,0,17.4,0,26.2
		c0,5.8-2.8,8.6-8.6,8.6c-4.2,0-8.3,0-12.5,0.1c-0.1,0-0.2,0.1-0.7,0.4c0,3.4,0,7,0,10.6c0,3.5,0,7,0,11.5
		c16-3.1,30.1,1.3,43.1,10.7c-6,3-11.9,6.2-17.9,8.9c-2.5,1.1-3.6,2.4-3.3,5.2c0.3,3.5,0.1,7,0,10.5c-0.1,4.8-3.1,7.7-7.9,7.8
		c-9.2,0.1-18.5,0.1-27.7,0c-5.3,0-8.1-3.1-8.1-8.8c0-18.7,0-37.5,0-56.5c-7.1,0-14.2,0-21.6,0c0,21.4,0,43.1,0,65.3
		c4,0,8.2,0,12.4,0c6.4,0,9.1,2.7,9.1,8.9c0,8.7,0,17.4,0,26.2c0,5.8-2.8,8.6-8.6,8.7c-0.4,0-0.8,0-1.2,0c-4,0.1-8.9-1.1-11.8,0.7
		c-2.9,1.8-3.9,6.7-5.8,10.3c-1.7,3.3-3.4,6.7-5.4,10.7c-1.9-3.7-3.4-7.1-5.3-10.2c-4.6-7.4-7-15.4-5.6-24
		c1.1-7.1-1.3-11.3-8.2-13.6c-4.5-1.5-8.6-4.2-13.6-6.7c6.2-3.1,11.9-6.2,17.7-8.8c3.2-1.4,4.2-3.2,4.2-6.7
		c-0.2-20.2-0.1-40.3-0.1-60.8c-7.2,0-14.2,0-21.9,0c0,2.6,0,5.4,0,8.2c0,8.9,0,17.7,0,26.6c0,5.8-2.8,8.7-8.6,8.7
		c-16.1,0-32.3,0-48.4,0c-5.8,0-8.6-2.8-8.6-8.7c0-16,0-32,0-48c0-6.2,2.8-8.9,9.2-8.9c32.2,0,64.3-0.1,96.5,0.1
		c2.9,0,4.3-0.9,5.5-3.5c2.7-6,5.9-11.8,9.2-18.4c3.3,6.7,6.5,12.7,9.4,18.8c1.1,2.4,2.5,3.1,5,3c6-0.2,11.9-0.1,18.4-0.1
		c0-1.4,0-2.6,0-3.9c0-19.4-0.1-38.8,0.1-58.2c0-2.2,0.6-4.6,1.6-6.6c2.8-6.1,6-12,9.3-18.8c3.8,7.6,7.9,14.4,10.6,21.7
		c1.4,3.9,0.3,8.8,0.4,13.2c0,2.8,0,5.7,0,8.7c7.4,0,14.5,0,21.7,0c0-14.5,0-28.9,0-43.6c-4.5,0-8.9,0-13.3,0
		c-5.5-0.1-8.3-2.9-8.4-8.5c0-3.5-0.2-7,0-10.5c0.1-2.2-0.6-3.2-2.5-4.2c-6.3-3-12.4-6.2-19.3-9.6c7.6-3.8,14.2-8.2,21.5-10.4
		c5.2-1.6,11.4-0.6,17,0c3.5,0.4,5.2,3.6,5.2,7.3c0,4.5,0,9.1,0,13.8c14.6,0,29,0,43.7,0c0-6.7,0.1-13.5-0.1-20.2
		c0-0.9-1.3-2.1-2.2-2.6c-6.2-3.2-12.5-6.3-19.2-9.7c11.8-6.5,22.9-13.6,36.9-11c3.8,0.7,6.4,3.5,6.5,7.6c0.1,4.6,0,9.1,0,14.2
		c4.3,0,8.5,0,12.7,0c6.4,0,9.1,2.7,9.1,8.9c0,8.7,0,17.4,0,26.2c0,5.8-2.8,8.6-8.6,8.7c-0.4,0-0.8,0-1.2,0c-4,0.1-8.9-1.1-11.8,0.7
		c-2.9,1.8-3.9,6.7-5.8,10.3C1413.3,278.2,1411.6,281.5,1409.5,285.7z M1201.6,373.4c-7.4,0-14.5,0-21.6,0c0,7.3,0,14.4,0,21.4
		c7.3,0,14.4,0,21.6,0C1201.6,387.7,1201.6,380.7,1201.6,373.4z"/>
	<path class="st1" d="M1126.3,285.8c-10.5,0-21.1-0.2-31.6,0c-25,0.6-45.4-18.5-46-45c-0.4-22-0.1-44-0.1-66
		c0-8.4,3.6-14.7,11.6-18.2c6.4-2.8,10.9-7.6,13.2-14.1c2.6-7.4,7.9-10,15.3-10c23.2,0.1,46.4-0.1,69.5,0.1
		c21.4,0.2,38.3,16.6,41.6,34.1c1.1,5.4,1.6,11.1,1.6,16.6c0.2,19.1-0.1,38.3,0.1,57.4c0.1,10.1-3.2,17.5-13.1,21.7
		c-5.9,2.4-9.8,7.4-11.9,13.3c-2.6,7.1-7.5,10.1-14.9,10C1150,285.6,1138.2,285.8,1126.3,285.8z M1127,155.7
		c-10.4,0-20.8-0.1-31.2,0.1c-1.4,0-3.4,1.1-4.2,2.3c-4.6,7.3-10.4,13.3-17.9,17.6c-1.1,0.6-2.1,2.3-2.1,3.5
		c-0.1,19.9-0.2,39.8-0.1,59.7c0.1,13.8,8.9,23.8,21.1,23.9c20.8,0.2,41.7,0.1,62.5,0c1.1,0,2.7-0.9,3.3-1.9
		c4.5-7.7,10.5-13.8,18.3-18.2c1-0.6,2-2.1,2-3.2c0.1-20.2,0.4-40.4,0-60.5c-0.3-15.2-9.2-23.3-24.3-23.3
		C1145.3,155.7,1136.1,155.7,1127,155.7z"/>
	<path class="st1" d="M1783,132.5c11.8,0,23.7,0.1,35.5,0c7.1-0.1,11.9,2.8,14.4,9.6c2.5,6.8,7.1,11.7,13.8,14.6
		c7.7,3.4,11.2,9.5,11.2,17.6c0.1,22.1,0.3,44.3,0,66.4c-0.4,23.1-16.2,41.1-39,44.8c-1,0.2-2.1,0.1-3.1,0.1
		c-23.4,0-46.9-0.1-70.3,0.1c-7.8,0-13.1-2.7-15.9-10.4c-2.2-6.4-6.8-11-13.1-13.7c-8-3.5-11.6-9.7-11.6-18.2c-0.1-22-0.3-44,0.1-66
		c0.3-23,16-40.9,38.6-44.7c1.1-0.2,2.3-0.1,3.5-0.1C1759,132.5,1771,132.5,1783,132.5z M1783,262.6c10,0,20,0,30.1,0
		c8.1,0,14.7-3.4,18.4-10.4c2.2-4.2,3.4-9.4,3.5-14.1c0.4-19.5,0.1-39,0.2-58.6c0-2.1-0.5-3.2-2.4-4.3c-7.4-4-13.2-9.7-17.3-17
		c-1.3-2.3-2.7-2.9-5.2-2.9c-19.8,0.1-39.6,0.1-59.4,0c-7.7,0-13.9,2.8-18.5,9c-3.5,4.6-4.4,10-4.4,15.5c-0.2,19.7-0.1,39.3,0,59
		c0,1.3,1.1,3.2,2.2,3.9c7.5,4.4,13.3,10.3,17.8,17.6c0.7,1.2,2.8,2.2,4.2,2.2C1762.4,262.7,1772.7,262.6,1783,262.6z"/>
	<path class="st1" d="M1126.3,788.8c12,0,24,0.1,35.9,0c7.1-0.1,11.9,2.8,14.4,9.6c2.5,6.8,7.1,11.7,13.8,14.6
		c7.7,3.4,11.2,9.5,11.2,17.6c0.1,22.1,0.3,44.3,0,66.4c-0.4,23.1-16.2,41.1-39,44.8c-1,0.2-2.1,0.1-3.1,0.1
		c-23.4,0-46.9-0.1-70.3,0.1c-7.8,0-13.1-2.7-15.9-10.4c-2.2-6.4-6.8-11-13.1-13.7c-8-3.5-11.6-9.7-11.6-18.2c-0.1-22-0.3-44,0.1-66
		c0.3-23,16-40.9,38.6-44.7c1.1-0.2,2.3-0.1,3.5-0.1C1102.7,788.8,1114.5,788.8,1126.3,788.8z M1126.8,918.8c10,0,20,0,30.1,0
		c8.1,0,14.7-3.4,18.3-10.4c2.2-4.2,3.4-9.4,3.4-14.1c0.4-19.5,0.1-39,0.2-58.6c0-2.1-0.6-3.2-2.5-4.2c-7.2-3.9-13-9.5-17.1-16.7
		c-1.4-2.6-3.1-3.2-5.8-3.2c-19.7,0.1-39.3,0.1-59,0.1c-7,0-12.9,2.3-17.6,7.8c-4.1,4.8-5.3,10.5-5.3,16.3
		c-0.2,19.8-0.1,39.6,0,59.4c0,1.3,1.1,3.2,2.2,3.8c7.4,4.3,13.3,10,17.5,17.4c1.1,2,2.4,2.6,4.6,2.6
		C1106.2,918.8,1116.5,918.9,1126.8,918.8z"/>
	<path class="st3" d="M1617.4,187.3c6.8-3.4,12.9-6.5,19.1-9.5c2-1,2.9-2.1,2.8-4.4c-0.2-6.2-0.1-12.4-0.1-18.9
		c-6.9,0-13.5-0.1-20.1,0.1c-1,0-2.4,1.3-2.9,2.4c-3.2,6.2-6.3,12.4-9.8,19.3c-3.3-6.5-6.5-12.4-9.2-18.5c-1.2-2.7-2.7-3.5-5.6-3.4
		c-5.8,0.2-11.7,0.1-18,0.1c0,4.5,0,8.9,0,13.2c-0.1,5.8-3,7.9-8.6,8.8c-13.4,2.1-23.4-5.6-35.1-11.1c6.8-3.4,12.8-6.5,19-9.4
		c2.2-1,3-2.3,2.9-4.8c-0.2-3.1-0.1-6.2-0.1-9.4c0-6.6,2.6-9.3,9.2-9.3c27.9,0,55.7,0,83.6,0c2.9,0,5.7-0.1,8.6,0c5,0.1,8,3,8,8.1
		c0.1,10.8,0.1,21.6,0,32.4c0,2.4,0.7,3.7,2.9,4.7c6.2,2.9,12.3,6,19.1,9.4c-6.7,3.4-12.8,6.5-18.9,9.4c-2.1,1-3.1,2.1-3,4.6
		c0.2,6.1,0.1,12.2,0.1,18.8c4.5,0,8.9,0,13.3,0c5.8,0.1,8.6,2.9,8.6,8.7c0,18.2,0,36.4,0,54.7c0,0.9,0.1,1.9-0.2,2.7
		c-3.4,6.9-6.9,13.8-10.7,21.4c-3.8-7.5-7.6-14.3-10.6-21.4c-1.2-2.9-0.3-6.7-0.4-10.1c0-3.9,0-7.8,0-12.2c-4.3,0-8.6,0-12.8,0
		c-6.3,0-9.1-2.7-9.1-9c0-17.6-0.1-35.1,0.1-52.7c0-3.1-0.9-4.6-3.7-5.8C1629.7,193.7,1624,190.6,1617.4,187.3z"/>
	<path class="st3" d="M1081.4,526.4c3.8,7.5,7.3,14.2,10.5,21.2c0.8,1.9,0.4,4.3,0.4,6.5c0,5.2,0,10.4,0,16c4.5,0,8.9,0,13.3,0
		c5.8,0.1,8.6,2.9,8.6,8.7c0,23.4,0,46.8,0,70.3c0,5.7-2.9,8.5-8.7,8.5c-4.3,0-8.5,0-13.7,0c3.3,16.1-1.4,30.1-10.6,43
		c-3.5-6.9-7.1-13.8-10.3-20.8c-0.7-1.5-0.3-3.6-0.3-5.4c0-5.5,0-10.9,0-16.9c-4.5,0-8.8,0-13.2,0c-5.8-0.1-8.6-2.8-8.7-8.6
		c0-30.7,0-61.4,0-92.1c0-5.8,2.8-8.5,8.6-8.6c0.4,0,0.8,0,1.2,0c4-0.1,8.9,1.1,11.8-0.7c2.9-1.8,3.9-6.7,5.8-10.3
		C1077.7,533.9,1079.3,530.5,1081.4,526.4z M1070.6,635.5c7.5,0,14.6,0,21.5,0c0-7.3,0-14.4,0-21.4c-7.3,0-14.4,0-21.5,0
		C1070.6,621.3,1070.6,628.3,1070.6,635.5z"/>
	<path class="st3" d="M1835.8,438.8c-6.5,0-12.8-0.1-19,0.1c-1.3,0-3.1,1.2-3.7,2.4c-3.3,6.1-6.3,12.4-9.8,19.3
		c-3.3-6.7-6.5-12.7-9.4-18.9c-1.1-2.4-2.5-3.2-5-3c-3.4,0.2-6.8,0.1-10.1,0c-5.3-0.1-7.6-3-8.4-8.2c-2.1-13.5,5.4-23.7,11.1-35.4
		c3.4,6.7,6.5,12.8,9.4,18.9c1,2.1,2.2,3.1,4.7,3c5.2-0.2,10.4-0.2,15.6,0c2.5,0.1,3.6-0.9,4.6-3c2.9-6.1,6-12.1,9.4-18.9
		c2.5,5.1,5.3,9.5,7,14.2c2.2,6.1,5.7,8.2,12.3,7.8c12.5-0.7,13.5,0.8,13.5,13.4c0,38,0,76-0.1,114c0,2.3-0.7,4.9-1.7,7
		c-2.8,6-5.9,11.8-9.2,18.5c-2.8-5.7-5.7-10.7-7.9-16c-1.8-4.6-4.4-6.8-9.5-5.9c-2.5,0.4-5.2,0.2-7.8,0.1c-4.5-0.2-7.5-3.1-7.6-7.7
		c-0.1-3.8-0.2-7.6,0-11.3c0.1-2.2-0.7-3.2-2.6-4.2c-6.2-3-12.3-6.2-18.4-9.3c-0.1,0,0-0.2-0.1-0.7c6-3,12.1-6.1,18.2-9
		c2.2-1,3-2.3,2.9-4.7c-0.2-3.5-0.1-7,0-10.5c0.1-5.1,3-8,8-8.1c4.4-0.1,8.8,0,13.3-0.1c0.1,0,0.2-0.2,0.3-0.3
		C1835.8,467.8,1835.8,453.3,1835.8,438.8z"/>
	<path class="st3" d="M1223.6,679.5c-14.2,0-27.9-0.1-41.7,0.1c-1.1,0-2.6,1.3-3.2,2.5c-3.3,6.1-6.3,12.4-9.7,19.2
		c-3.8-7.5-8.2-14.2-10.4-21.4c-1.6-5.2-0.7-11.4,0-17c0.5-3.9,4.1-5.3,8-5.3c11.6,0.1,23.1,0,35.2,0c0-4.5,0-8.9,0-13.3
		c0.1-5.8,2.8-8.6,8.7-8.6c4.3,0,8.5,0,13.2,0c0-6.9,0.1-13.7-0.1-20.4c0-0.9-1.3-2.1-2.2-2.6c-6.2-3.2-12.5-6.3-19.4-9.8
		c6.4-3.2,12.3-5.9,18-9.2c2.2-1.2,4.3-3.3,5.5-5.5c3.2-5.6,5.9-11.5,9.2-18.1c1.6,3.1,2.8,5.9,4.4,8.4c5.5,8.6,8,18,6.5,28.1
		c-0.8,5.6,1.3,8.4,6.4,10.4c5.1,2,9.9,4.9,15.5,7.7c-6.9,3.4-13,6.6-19.3,9.6c-1.9,0.9-2.7,1.9-2.6,4.1c0.2,6.2,0.1,12.5,0.1,19.1
		c4.4,0,8.7,0,12.9,0c6.1,0,8.9,2.7,8.9,8.7c0,8.8,0,17.7,0,26.5c0,5.5-2.9,8.4-8.4,8.5c-9,0.1-18,0.1-26.9,0
		c-5.5,0-8.3-2.9-8.4-8.5c0-2.2,0-4.4,0-6.6C1223.6,684.1,1223.6,682,1223.6,679.5z"/>
	<path class="st3" d="M1289.3,887.3c7-3.5,13.3-6.5,19.4-9.8c1.1-0.6,2.3-2.4,2.3-3.7c0.2-6.2,0.1-12.5,0.1-19.3
		c-4.3,0-8.5,0-12.7,0c-6.4,0-9-2.7-9.1-8.9c-0.1-4.4,1.1-9.6-0.9-12.8c-1.9-3.1-7.2-4.2-11-6.1c-3.1-1.6-6.1-3.1-9.9-5
		c6.8-3.4,12.9-6.3,18.9-9.6c1.7-0.9,3.3-2.5,4.2-4.2c3.2-6,6.2-12.2,9.6-19c3.3,6.6,6.4,12.5,9.3,18.5c1.1,2.4,2.4,3.7,5.2,3.3
		c12.7-1.7,24.4,1.3,35.1,8.3c1.3,0.8,2.8,1.4,4.1,2.1c0.1,0,0.1,0.2,0.5,0.7c-6.1,3.1-12.1,6.2-18.3,9.1c-2.3,1.1-3.1,2.3-3.1,5
		c0.1,20.6,0.1,41.1,0.1,62.2c4.3,0,8.5,0,12.7,0c6.5,0,9.1,2.7,9.2,9.3c0,8.6,0,17.2,0,25.8c0,5.8-2.8,8.6-8.6,8.7
		c-8.8,0-17.7,0-26.5,0c-5.8,0-8.6-2.9-8.6-8.7c0-10.7-0.1-21.3,0-32c0-2.2-0.6-3.5-2.7-4.5C1302.2,893.9,1296.2,890.7,1289.3,887.3
		z"/>
	<path class="st3" d="M1398.6,854.4c4.8,0,9.3-0.1,13.7,0c5.3,0.1,8.2,3,8.2,8.3c0.1,11.7,0,23.4,0,35.5c4.6,0,9,0,13.4,0
		c5.6,0.1,8.4,2.9,8.5,8.4c0.1,9,0.1,18,0,26.9c0,5.5-2.9,8.3-8.5,8.4c-9,0-18,0.1-26.9,0c-5.3,0-8.2-2.9-8.3-8.2
		c-0.1-4.4,0-8.8,0-13.6c-4.3,0-8.4,0-12.5,0c-6.7,0-9.3-2.6-9.3-9.1c0-25.3,0-50.5,0-75.8c0-1.4,0.2-2.9,0.8-4.1
		c3.2-6.5,6.5-13,10.1-20.3c1.3,2.6,2.2,4.8,3.5,6.8c6.3,9.7,8.9,20.3,7.5,31.8C1398.4,850.9,1398.6,852.4,1398.6,854.4z"/>
	<path class="st3" d="M1453.3,416.1c0,0-0.1,0-0.1,0c-3.1-6.1-6.2-12.2-9.5-18.2c-0.9-1.7-2.5-3.3-4.2-4.2c-6-3.2-12.2-6.2-19-9.6
		c6.7-3.4,12.8-6.5,18.9-9.4c2.2-1,3.1-2.2,2.9-4.7c-0.2-3.5-0.1-7,0-10.5c0.1-5.3,3-8.1,8.3-8.2c10.8-0.1,21.6-0.1,32.4,0
		c2.3,0,3.5-0.6,4.5-2.7c2.9-6.2,6.1-12.3,9.5-19.2c2.5,4.9,4.4,9.3,6.9,13.4c3.3,5.5,4.7,11.4,4.2,17.8c-0.3,4-0.1,8-0.1,13
		c16-3.1,30,1.3,43.1,10.7c-7,3.5-13.7,7.9-21.1,10.2c-5.4,1.6-11.6,0.7-17.4,0.4c-3.5-0.2-5.3,0.9-6.7,4.2
		c-2.5,5.8-5.6,11.4-8.9,18c-4-10.8-12.3-18.8-10.9-30.8c0.5-4.2,0.1-8.5,0.1-13c-7.3,0-14.4,0-22.5,0
		C1467.1,389.3,1461.8,403.2,1453.3,416.1z"/>
	<path class="st3" d="M1781.4,307.6c3.8,7.6,7.7,14.3,10.6,21.4c1.2,2.9,0.3,6.7,0.4,10.1c0,3.9,0,7.8,0,11.9c7.2,0,14.3,0,21.9,0
		c0-4.2,0-8.6,0-12.9c0-5.8,2.8-8.6,8.6-8.7c1.6,0,3.2-0.3,4.7,0c6.7,1.3,10.4-1.5,12.6-7.8c1.6-4.6,4.3-8.8,6.9-14
		c2.3,4.6,4.1,8.8,6.5,12.7c3.7,6,4.9,12.3,4.6,19.3c-0.4,10.1,0,20.3-0.2,30.5c0,2-0.6,4.1-1.4,5.9c-2.9,6.2-6,12.3-9.4,19.1
		c-3.2-6.4-6.3-12-8.9-17.9c-1.3-3-3-4.1-6.4-4.1c-17.3,0.2-34.6,0.1-51.9,0.1c-6.8,0-9.4-2.6-9.4-9.5c0-10.4-0.1-20.8,0.1-31.2
		c0-2,0.6-4.1,1.5-5.9C1774.9,320.5,1778,314.4,1781.4,307.6z"/>
	<path class="st3" d="M1748.6,449.8c-7.6,3.8-14.4,7.5-21.4,10.6c-2,0.9-4.6,0.1-6.9,0.4c-10.6,1.2-20.2-1.2-29.2-6.9
		c-2.3-1.5-4.8-2.5-7.9-4c6.5-3.3,12.3-6.4,18.4-9.2c2.6-1.2,3.6-2.6,3.4-5.5c-0.3-5.8-0.1-11.7-0.1-18.1c-7,0-14-0.1-20.9,0.1
		c-0.7,0-1.7,1.4-2.1,2.4c-3.2,6.2-6.3,12.4-9.7,19.3c-3.8-7.5-7.3-14.4-10.7-21.3c-0.4-0.9-0.3-2-0.3-3.1c0-10.8,0-21.6,0-32.4
		c0-6,2.8-8.8,8.9-8.8c8.7,0,17.4,0,26.1,0c6,0,8.7,2.8,8.7,8.9c0,4.2,0,8.3,0,12.9c4.5,0,8.8,0,13.2,0c5.8,0.1,8.6,2.8,8.6,8.6
		c0,10.1,0.2,20.3-0.1,30.4c-0.1,3.7,1.2,5.5,4.4,6.9C1736.7,443.7,1742.3,446.6,1748.6,449.8z"/>
	<path class="st3" d="M1070.5,482.6c0,2.6-0.3,4.9,0.1,7c2.5,13.8-4.9,24.6-11.1,36.6c-3.7-7.5-7.3-14.5-10.7-21.6
		c-0.4-0.9-0.2-2-0.2-3.1c0-17.8,0-35.7,0-53.5c0-6.6,2.6-9.2,9.2-9.2c8.5,0,16.9,0,25.4,0c6.5,0,9.1,2.7,9.1,9.3c0,4,0,8,0,12.5
		c7,0,13.8,0.1,20.6-0.1c0.9,0,2-1.4,2.5-2.5c3.2-6.2,6.3-12.4,9.7-19.2c3.8,7.6,8.2,14.2,10.4,21.5c1.6,5.2,0.7,11.4-0.1,17
		c-0.5,3.9-4.1,5.3-8,5.3c-18-0.1-35.9,0-53.9,0C1072.7,482.6,1071.8,482.6,1070.5,482.6z"/>
	<path class="st3" d="M1748.6,493.5c-6.8,3.4-12.9,6.6-19.1,9.4c-2.3,1-2.9,2.4-2.8,4.8c0.2,5.2,0.2,10.4,0,15.6
		c-0.1,2.3,0.7,3.5,2.8,4.4c6.2,2.9,12.3,6.1,18.9,9.4c-11.7,6.4-22.6,13.5-36.6,11.1c-4.3-0.7-6.9-3.6-6.9-8.4
		c0-10.4,0-20.8,0-31.2c0-1.3,0-2.5,0-4.1c-6.9,0-13.5-0.1-20.1,0.1c-1,0-2.4,1.3-2.9,2.3c-3.3,6.2-6.3,12.4-9.8,19.4
		c-3.8-7.6-8.2-14.3-10.5-21.7c-1.6-5.1-0.6-11.1,0-16.6c0.4-3.5,3.5-5.4,7.2-5.4c18.9,0,37.7,0,56.6,0c1,0,2,0.3,2.9,0.8
		C1734.8,486.6,1741.3,489.9,1748.6,493.5z"/>
	<path class="st1" d="M1453.3,263.9c3.4,6.8,6.5,12.8,9.4,18.9c1.1,2.4,2.5,3.1,5,3c5.2-0.2,10.4-0.2,15.6,0
		c2.2,0.1,3.2-0.8,4.1-2.6c3-6.2,6.1-12.3,9.5-19.2c2,3.8,3.7,7.2,5.4,10.5c1.9,3.7,3,8.7,6,10.6c2.9,1.9,7.8,0.5,11.8,0.6
		c7.1,0,8.9,2.6,9.8,9.6c1.7,13-5.8,22.7-11.1,34.2c-3.2-6.3-6.2-11.9-8.8-17.8c-1.4-3.2-3.2-4.2-6.7-4.2
		c-17.2,0.2-34.4,0.1-51.6,0.1c-6.9,0-8.8-2.7-9.7-9.3C1440.3,285.1,1447.9,275.4,1453.3,263.9z"/>
	<path class="st3" d="M1606.4,285.8c3.8,7.5,8.2,14.1,10.4,21.4c1.6,5.2,0.7,11.4,0,17c-0.5,3.9-4.1,5.3-8,5.3
		c-11.6-0.1-23.1,0-35.7,0c3.1,15.9-1.3,30-10.7,43.1c-3.5-7-7-14-10.5-21c-0.4-0.8-0.2-1.8-0.2-2.7c0-10.8,0-21.6,0-32.4
		c0-6,2.8-8.8,8.9-8.8c10.5,0,21.1-0.1,31.6,0.1c2.4,0,3.7-0.6,4.8-2.9C1599.8,298.6,1603,292.5,1606.4,285.8z"/>
	<path class="st3" d="M1278.3,198.2c-3.3-6.5-6.4-12.2-9-18.1c-1.4-3.1-3.1-4.2-6.5-3.9c-3.2,0.3-6.5,0.2-9.7,0
		c-4.6-0.2-7.5-3.1-7.6-7.7c-0.1-3.5-0.2-7,0-10.5c0.2-2.7-0.6-4.2-3.2-5.3c-6.1-2.8-12-5.9-18.6-9.3c7.5-3.8,14.4-7.3,21.3-10.7
		c0.9-0.4,2-0.3,3.1-0.3c10.8,0,21.6,0,32.4,0c6,0,8.8,2.8,8.8,8.9c0,10.8,0,21.6,0,32.4c0,1.3-0.1,2.6-0.7,3.7
		C1285.3,184.2,1282,190.8,1278.3,198.2z"/>
	<path class="st3" d="M1125.1,679.5c3.3,6.6,6.5,12.3,9.1,18.4c1.3,2.9,3,3.7,5.9,3.5c3.4-0.2,6.8-0.1,10.1,0
		c4.6,0.2,7.5,3.1,7.6,7.7c0.1,3.6,0.2,7.3,0,10.9c-0.1,2.4,0.6,3.7,2.8,4.8c6.2,2.9,12.3,6,19.1,9.4c-7.7,3.8-14.7,7.3-21.7,10.8
		c-0.8,0.4-1.8,0.2-2.7,0.2c-10.8,0-21.6,0-32.4,0c-6,0-8.8-2.8-8.8-8.8c0-10.8,0-21.6,0-32.4c0-1.4,0.2-2.9,0.8-4.1
		C1118.2,693.2,1121.5,686.8,1125.1,679.5z"/>
	<path class="st1" d="M1672,701.3c-3.4-6.8-6.3-13-9.6-19c-0.9-1.7-2.5-3.3-4.2-4.2c-6-3.3-12.2-6.2-19-9.6
		c7.5-3.8,14.4-7.3,21.3-10.7c1.1-0.5,2.6-0.3,3.8-0.3c19.7,0,39.3-0.1,59,0.1c2.1,0,4.3,0.6,6.3,1.5c6.1,2.8,12.1,6,18.8,9.3
		c-4.9,2.5-9.4,4.6-13.7,7c-5.3,3.1-10.9,4.2-17.1,4c-10.5-0.3-21.1,0-31.6-0.2c-2.5,0-3.7,0.8-4.7,3
		C1678.5,688.5,1675.4,694.5,1672,701.3z"/>
	<path class="st1" d="M1639.2,427.9c-7.5,3.8-14,8.1-21.2,10.2c-5.3,1.6-11.6,0.7-17.3,0.1c-3.2-0.3-5.1-3.2-5.1-6.5
		c-0.1-19.1-0.1-38.2-0.1-57.4c0-0.6,0.1-1.3,0.4-1.9c3.4-6.8,6.8-13.6,10.6-21.1c3.3,6.7,6.3,12.8,9.5,18.8c1,1.8,2.7,3.5,4.5,4.5
		c5.9,3.2,12,6.1,18.8,9.5c-4.5,2.3-8.2,4.9-12.4,6.1c-8,2.5-9.7,7.4-9.8,15.5c-0.1,8.5,1.9,13.8,10.3,16.3
		C1631.2,423.2,1634.7,425.6,1639.2,427.9z"/>
	<path class="st1" d="M1354.3,712.5c-4.6,2.3-8.9,5.1-13.6,6.7c-6.3,2.2-8.4,5.8-8,12.6c0.7,10.6,0.3,21.3,0.1,32
		c0,2-0.6,4.1-1.4,5.9c-2.9,6.2-6,12.3-9.5,19.2c-2.6-5.1-5.2-9.6-7.1-14.3c-2.2-5.7-6-9.3-11.6-11.5c-4.6-1.8-9-4.4-14.1-7
		c6.8-3.4,12.8-6.5,19-9.4c2.2-1,2.9-2.3,2.9-4.7c-0.1-10.4-0.1-20.8-0.1-31.2c0-6.6,2.6-9.3,9.1-9.3
		C1333.4,701.2,1342,704,1354.3,712.5z"/>
	<path class="st3" d="M1573.6,493.5c6.8-3.4,12.8-6.5,18.9-9.4c2.1-1,3.1-2.2,3-4.7c-0.3-3.6-0.1-7.3,0-10.9c0.1-4.8,3-7.8,7.8-7.8
		c9.4-0.1,18.7-0.1,28.1,0c4.8,0,7.7,3.1,7.8,7.9c0.1,9.4,0.1,18.7,0,28.1c-0.1,4.8-3.1,7.7-7.9,7.8c-11.3,0.1-22.6,0-33.9,0
		c-0.9,0-1.9,0-2.6-0.4C1587.9,500.7,1581.1,497.3,1573.6,493.5z"/>
	<path class="st3" d="M1475.1,154.5c3.8,7.5,7.2,14.3,10.5,21.1c0.5,1,0.4,2.3,0.4,3.4c0,10.7,0,21.3,0,32c0,6.3-2.7,9.1-9,9.1
		c-8.7,0-17.4,0-26.1,0c-5.8,0-8.6-2.8-8.6-8.6c0-8.8,0-17.7,0-26.5c0-5.8,2.8-8.5,8.6-8.6c0.4,0,0.8,0,1.2,0
		c4-0.1,8.8,1.1,11.8-0.7c2.9-1.8,3.9-6.7,5.8-10.3C1471.4,162,1473.1,158.6,1475.1,154.5z"/>
	<path class="st3" d="M1278.3,504.5c3.8,7.6,7.7,14.3,10.6,21.4c1.2,2.9,0.3,6.7,0.4,10.1c0,3.9,0,7.8,0,12.7
		c15.9-3.1,30,1.3,43.2,10.8c-9.8,3.4-17.6,11.5-29.2,10.7c-8.9-0.6-18-0.1-26.9-0.1c-6.3,0-9-2.7-9-9.1c0-10.5-0.1-21.1,0.1-31.6
		c0-2,0.6-4.1,1.5-5.9C1271.8,517.3,1274.9,511.3,1278.3,504.5z"/>
	<path class="st3" d="M1726.5,373.2c-4.6,0-9.1,0.1-13.7,0c-5-0.1-7.9-3-8-8.1c-0.1-9.2-0.1-18.5,0-27.7c0-4.8,3-7.8,7.8-7.9
		c9.4-0.1,18.7-0.1,28.1,0c4.8,0,7.7,3.1,7.8,7.9c0.1,9.2,0.1,18.5,0,27.7c0,5.1-3,8-8,8.1C1735.9,373.3,1731.2,373.2,1726.5,373.2z
		"/>
	<path class="st1" d="M1147,351.3c-3.7-7.4-8-13.7-9.9-20.7c-1.6-5.7-0.8-12.3-0.2-18.4c0.3-3.1,3.5-4.7,6.8-4.7
		c11.6,0,23.1,0,34.7,0c0.6,0,1.4,0,1.9,0.2c6.9,3.4,13.8,6.9,21.3,10.7c-7.5,3.8-14.2,7.9-21.4,10.5c-3.9,1.4-8.8,0.9-13.1,0.3
		c-6.9-0.9-11,1.3-13.3,8.1C1152.3,342,1149.6,346.2,1147,351.3z"/>
	<path class="st1" d="M1125.2,395.1c-3.5-7-6.6-13.1-9.5-19.3c-1-2.1-2.2-3-4.5-2.6c-0.3,0-0.5,0-0.8,0
		c-14.6,2.2-27.1-3.1-39.5-11.3c10-3.5,17.7-11.5,29.3-10.7c9.1,0.6,18.2,0.1,27.3,0.1c5.8,0,7.9,2.9,8.8,8.6
		C1138.3,373.4,1130.6,383.4,1125.2,395.1z"/>
	<path class="st1" d="M1562.6,198.2c3.8,7.5,7.4,14.2,10.5,21.2c0.9,2.1,0.1,4.9,0.5,7.3c2.3,13.9-4.6,25-11.1,36.9
		c-3.7-7.4-9.1-14.1-10.2-21.5c-1.3-9.1-3-19.1,2.4-28.1C1557.5,209.2,1559.7,204,1562.6,198.2z"/>
	<path class="st15" d="M1398.6,143.5c-6.9,3.5-13.2,6.4-19.2,9.7c-1.6,0.8-3.1,2.4-3.9,3.9c-3.2,6-6.2,12.2-9.6,19.1
		c-2.5-4.9-4.3-9.6-7.1-13.7c-4.9-7.3-4.1-15.3-3.8-23.3c0.1-4,3.5-6.4,7.8-6.7c8.8-0.6,17.2,0.3,24.9,5.4
		C1390.8,140.1,1394.4,141.5,1398.6,143.5z"/>
	<path class="st15" d="M1201.7,493.5c-7.3,3.6-13.5,7.9-20.3,9.8c-5.9,1.6-12.5,0.9-18.7,0.3c-3.3-0.3-4.4-3.8-4.7-7.2
		c-0.7-8.9,0.5-17.2,5.5-24.9c2-3.1,3.4-6.7,5.5-10.7c2.7,5.4,5.5,10.1,7.6,15.2c2,4.9,5.2,8,10,10
		C1191.5,488,1196.2,490.8,1201.7,493.5z"/>
	<path class="st15" d="M1825.2,898.2c3.4,6.9,6.4,13.1,9.6,19.2c0.8,1.6,2.4,3.1,4,3.9c6.1,3.2,12.3,6.2,19.1,9.6
		c-3.9,2-7.4,3.4-10.6,5.5c-7.6,4.9-15.9,6.3-24.9,5.6c-5.3-0.4-7.9-3-8.3-8.3c-0.7-8.9,0.6-17.2,5.6-24.9
		C1821.7,905.8,1823.1,902.3,1825.2,898.2z"/>
	<path class="st15" d="M1650.1,307.6c3.4,6.7,6.2,12.8,9.5,18.7c1,1.9,2.9,3.6,4.7,4.7c5.9,3.2,11.9,6.1,18.6,9.4
		c-7.5,3.8-14.1,8.2-21.4,10.4c-5.2,1.6-11.4,0.7-17,0.1c-3.7-0.4-5.1-3.8-5.4-7.6c-0.7-8.9,0.5-17.2,5.5-24.9
		C1646.7,315.3,1648.1,311.7,1650.1,307.6z"/>
	<path class="st16" d="M1311.1,668.5c7.2-3.6,13.7-6.9,20.3-10.1c1-0.5,2.5-0.3,3.5,0.1c6.4,3.1,12.8,6.3,19.9,9.9
		c-4.4,2.3-8.6,3.9-12.3,6.3c-6.5,4.4-12.5,4.5-19,0C1319.9,672.4,1315.8,670.8,1311.1,668.5z"/>
	<path class="st16" d="M1125.2,504.5c3.6,7.2,6.9,13.7,10.1,20.2c0.5,1,0.4,2.5-0.1,3.5c-3.1,6.4-6.3,12.8-9.9,19.9
		c-2.2-4.4-3.9-8.6-6.3-12.3c-4.4-6.5-4.6-12.5,0-19C1121.3,513.3,1122.8,509.1,1125.2,504.5z"/>
	<path class="st16" d="M1223.6,712.3c-7.2,3.6-13.7,6.9-20.2,10c-1,0.5-2.5,0.4-3.5-0.1c-6.4-3.1-12.8-6.3-19.8-9.9
		c3.8-2,7.4-3.3,10.4-5.5c7.6-5.5,14.8-5.6,22.5,0C1215.9,709,1219.5,710.2,1223.6,712.3z"/>
	<path class="st16" d="M1179.9,537.3c7.2-3.6,13.5-6.9,19.9-10c1-0.5,2.6-0.6,3.5-0.1c6.5,3.1,13,6.4,20.2,10.1
		c-6.1,3.1-11.9,5.7-17.3,8.8c-3.3,1.9-5.9,1.8-9.2,0C1191.7,542.9,1186.1,540.4,1179.9,537.3z"/>
	<path class="st16" d="M1278.3,701.4c3.6,7.2,6.9,13.7,10.1,20.2c0.5,1,0.4,2.5-0.1,3.5c-3.1,6.4-6.3,12.8-9.9,19.9
		c-2.1-4.2-3.6-8.2-6-11.6c-4.9-6.9-5-13.4,0-20.4C1274.7,709.7,1276.1,705.7,1278.3,701.4z"/>
	<path class="st16" d="M1234.5,745.1c3.6,7.1,6.9,13.5,9.9,19.9c0.5,1.1,0.5,2.8,0,3.9c-3.1,6.4-6.3,12.8-9.9,19.8
		c-2.5-4.9-4.4-9.5-7.1-13.7c-3.7-5.6-3.7-10.6,0-16.2C1230.1,754.8,1232,750.2,1234.5,745.1z"/>
	<path class="st16" d="M1365.8,351.4c3.6,7.2,6.9,13.7,10.1,20.2c0.5,1,0.4,2.5-0.1,3.5c-3.1,6.4-6.3,12.8-9.9,19.9
		c-2.2-4.4-3.9-8.6-6.3-12.3c-4.4-6.5-4.6-12.5,0-19C1361.9,360.2,1363.5,356,1365.8,351.4z"/>
	<path class="st16" d="M1606.4,263.8c-3.6-7.2-6.9-13.7-10-20.2c-0.5-1-0.4-2.5,0.1-3.5c3.1-6.4,6.3-12.8,9.9-19.8
		c2,3.8,3.3,7.4,5.5,10.5c5.5,7.6,5.6,14.8,0,22.5C1609.7,256.1,1608.4,259.8,1606.4,263.8z"/>
	<path class="st16" d="M1103.3,395.1c3.6,7.1,6.9,13.5,9.9,19.9c0.5,1.1,0.5,2.8,0,3.9c-3.1,6.4-6.3,12.8-9.9,19.9
		c-2.4-4.7-4.1-9.1-6.7-13c-4.2-6.1-4.2-11.5,0-17.6C1099.2,404.4,1100.8,400,1103.3,395.1z"/>
	<path class="st16" d="M1311.1,602.9c-7.2,3.6-13.7,6.9-20.2,10.1c-1,0.5-2.5,0.4-3.5-0.1c-6.4-3.1-12.8-6.3-19.9-9.9
		c4.2-2.1,8.2-3.6,11.6-6c6.9-4.9,13.4-5,20.4,0C1302.7,599.3,1306.7,600.7,1311.1,602.9z"/>
	<path class="st16" d="M1234.5,854.4c-3.7-7.4-7-14-10.3-20.8c-0.3-0.7-0.2-1.8,0.1-2.5c3.2-6.6,6.5-13.2,10.2-20.5
		c3.7,7.4,7.1,14.1,10.4,20.9c0.3,0.7,0,2-0.4,2.8C1241.4,840.9,1238.1,847.2,1234.5,854.4z"/>
	<path class="st16" d="M1267.4,209.2c-7.4,3.7-14.1,7.1-20.8,10.3c-0.6,0.3-1.5,0.3-2.1,0c-6.7-3.3-13.4-6.7-20.8-10.4
		c7.4-3.7,14.2-7.1,21-10.4c0.6-0.3,1.7,0,2.5,0.3C1253.6,202.2,1260.1,205.5,1267.4,209.2z"/>
	<path class="st16" d="M1748.6,931c-7.4,3.7-14.1,7.1-20.8,10.3c-0.7,0.3-1.8,0.2-2.5-0.1c-6.6-3.2-13.2-6.5-20.5-10.2
		c7.4-3.7,14.1-7.1,21-10.4c0.7-0.3,2,0,2.8,0.4C1735.1,924.2,1741.4,927.4,1748.6,931z"/>
	<path class="st16" d="M1223.7,887.2c7.1-3.6,13.4-6.8,19.8-9.9c1.1-0.5,2.8-0.5,3.9,0c6.4,3.1,12.8,6.3,19.8,9.9
		c-4.9,2.5-9.6,4.4-13.7,7.1c-5.6,3.7-10.6,3.7-16.2,0C1233.3,891.6,1228.6,889.7,1223.7,887.2z"/>
	<path class="st16" d="M1201.7,624.8c-7.4,3.7-14.1,7-20.8,10.3c-0.7,0.3-1.8,0.2-2.5-0.1c-6.6-3.2-13.2-6.5-20.5-10.2
		c7.4-3.7,14.1-7.1,21-10.4c0.7-0.3,2,0,2.8,0.4C1188.2,617.9,1194.5,621.2,1201.7,624.8z"/>
	<path class="st16" d="M1398.6,799.8c7.2-3.6,13.5-6.9,20-10c1-0.5,2.6-0.6,3.5-0.1c6.5,3.1,13,6.4,20.2,10.1
		c-7.4,3.7-14.3,7.2-21.2,10.5c-0.5,0.2-1.3,0.1-1.8-0.2C1412.7,806.8,1406,803.4,1398.6,799.8z"/>
	<path class="st17" d="M1584.1,197.2c-3.1-3-6.6-6.5-10.1-9.9c3.6-3.5,7.1-7,10.5-10.4c3.4,3.4,6.8,6.9,10,10.1
		C1591.3,190.2,1587.7,193.7,1584.1,197.2z"/>
	<path class="st17" d="M1310.2,209.3c-3.2,3.3-6.7,6.8-9.9,10.1c-3.5-3.4-7-6.8-10.1-10c3.3-3.2,6.9-6.7,10.4-10.3
		C1303.5,202.2,1306.9,205.8,1310.2,209.3z"/>
	<path class="st17" d="M1179.1,559.1c-3.3,3.3-6.8,6.7-10,9.8c-3.1-3.1-6.6-6.7-9.9-10c2.9-2.8,6.5-6.3,9.8-9.7
		C1172.2,552.3,1175.7,555.8,1179.1,559.1z"/>
	<path class="st17" d="M1749,559c3.5-3.5,7-7,10.3-10.3c3.5,3.5,7.1,7.1,10.6,10.6c-3.3,3.3-6.9,6.8-10.3,10.3
		C1756.1,566.1,1752.6,562.7,1749,559z"/>
	<path class="st17" d="M1180.8,580.8c3.2-3.3,6.6-6.8,9.8-10.1c3.5,3.5,6.9,6.9,10.2,10.1c-3.2,3.1-6.8,6.6-10.1,9.8
		C1187.7,587.8,1184.2,584.2,1180.8,580.8z"/>
	<path class="st17" d="M1780.8,590.9c-2.9-2.9-6.4-6.4-9.8-9.9c3.4-3.3,7-6.8,10.4-10c3.2,3.2,6.6,6.6,9.9,9.8
		C1788.1,583.9,1784.5,587.3,1780.8,590.9z"/>
	<path class="st17" d="M1508.4,208.9c3.4-3.4,6.9-6.9,10.3-10.3c3.5,3.6,7,7.1,10.4,10.5c-3.3,3.3-6.9,6.8-10.2,10.1
		C1515.6,216,1512.1,212.6,1508.4,208.9z"/>
	<path class="st17" d="M1137,602.7c3.2-3.3,6.6-6.8,9.9-10.2c3.4,3.5,6.9,6.9,10.1,10.1c-3.2,3.1-6.8,6.6-10.3,10.1
		C1143.8,609.8,1140.4,606.2,1137,602.7z"/>
	<path class="st17" d="M1289.7,252.7c3.4-3.4,6.9-6.8,10.4-10.3c3.3,3.6,6.7,7.2,10.2,10.9c-3.1,3-6.6,6.5-10,9.8
		C1296.9,259.8,1293.4,256.3,1289.7,252.7z"/>
	<path class="st17" d="M1234.6,285c-3.3-3.3-6.8-6.8-10-10c3.2-3.2,6.8-6.7,10.3-10.2c2.8,3,6.2,6.7,9.6,10.3
		C1241.5,278.2,1238,281.7,1234.6,285z"/>
	<path class="st17" d="M1551.3,275c-3.4,3.4-6.9,6.8-10.4,10.3c-3.4-3.6-6.8-7.2-10.2-10.8c3.1-3.1,6.7-6.6,10.2-10.1
		C1544.2,267.8,1547.6,271.3,1551.3,275z"/>
	<path class="st17" d="M1594.4,275.2c-3.1,3.1-6.5,6.6-9.7,9.9c-3.5-3.4-7-6.9-10.2-10c3.2-3.2,6.8-6.7,10.4-10.2
		C1587.8,267.8,1591.1,271.5,1594.4,275.2z"/>
	<path class="st17" d="M1321.4,634.7c-3-2.9-6.5-6.4-9.7-9.6c3.6-3.5,7.1-7,10.4-10.3c3.1,3.1,6.5,6.5,9.8,9.8
		C1328.7,627.7,1325.2,631.1,1321.4,634.7z"/>
	<path class="st17" d="M1672.4,614.7c3.1,3.2,6.5,6.7,10,10.2c-3.4,3.3-6.9,6.9-10.2,10.2c-3.5-3.4-6.9-6.9-10.1-10.1
		C1665.3,621.8,1668.9,618.2,1672.4,614.7z"/>
	<path class="st17" d="M1638.6,274.9c-3.4,3.3-6.9,6.8-10.3,10.2c-3.3-3.5-6.7-7.1-10.1-10.7c3.1-3.1,6.7-6.6,10-10
		C1631.6,267.9,1635.1,271.3,1638.6,274.9z"/>
	<path class="st17" d="M1419.4,669.2c-2.9,2.8-6.4,6.2-10,9.7c-3.2-3.4-6.5-7.1-9.7-10.5c3-3,6.4-6.4,9.6-9.6
		C1412.3,661.9,1415.8,665.4,1419.4,669.2z"/>
	<path class="st17" d="M1246.2,296.6c3.4-3.3,6.8-6.8,10.3-10.2c3.2,3.4,6.6,7,10.1,10.6c-3.1,3-6.7,6.5-10,9.7
		C1253.2,303.5,1249.7,300.1,1246.2,296.6z"/>
	<path class="st17" d="M1300.3,700.6c-3.4-3.3-6.9-6.8-10.1-9.9c3.3-3.3,6.8-6.8,10.4-10.3c2.8,3,6.3,6.6,9.7,10.3
		C1307.2,693.8,1303.6,697.3,1300.3,700.6z"/>
	<path class="st17" d="M1365.7,700.4c-3.2-3.2-6.6-6.6-9.8-9.8c3.2-3.2,6.8-6.7,10.4-10.2c2.8,3,6.3,6.6,9.5,10.1
		C1372.6,693.6,1369,697.1,1365.7,700.4z"/>
	<path class="st17" d="M1093.3,317.8c2.9-2.9,6.4-6.4,9.9-9.9c3.4,3.6,6.9,7.2,10.2,10.6c-3.2,3.1-6.7,6.6-9.8,9.7
		C1100.5,325.2,1097,321.6,1093.3,317.8z"/>
	<path class="st17" d="M1059.5,702.1c3.2,3.3,6.7,6.7,9.9,10c-3.2,3.1-6.8,6.6-10.1,9.8c-2.8-2.9-6.4-6.4-9.9-9.9
		C1052.6,708.9,1056.2,705.4,1059.5,702.1z"/>
	<path class="st17" d="M1244.8,318.4c-3.4,3.3-6.8,6.8-10,9.9c-3.1-3.2-6.6-6.7-10.1-10.1c3-2.8,6.6-6.3,10.1-9.6
		C1237.9,311.6,1241.4,315.1,1244.8,318.4z"/>
	<path class="st17" d="M1431.8,308.5c3.2,3.1,6.7,6.5,10.2,10c-3.5,3.5-7,7-10.5,10.5c-3.4-3.5-6.9-6.9-10.1-10.1
		C1424.7,315.5,1428.2,312,1431.8,308.5z"/>
	<path class="st17" d="M1693.5,328.5c-3.1-3-6.6-6.4-10.1-9.9c3.6-3.5,7.1-7,10.6-10.5c3.3,3.4,6.8,6.9,9.9,10.1
		C1700.6,321.4,1697,324.9,1693.5,328.5z"/>
	<path class="st17" d="M1071.4,733.9c3.2-3.3,6.6-6.8,9.8-10.1c3.4,3.5,6.9,6.9,10.1,10.1c-3.2,3.1-6.8,6.6-10.2,9.9
		C1078.3,740.9,1074.8,737.4,1071.4,733.9z"/>
	<path class="st17" d="M1049.6,755.6c3.2-3.1,6.7-6.5,10-9.8c3.2,3.2,6.7,6.7,9.9,9.9c-3.2,3.1-6.8,6.6-10.2,10
		C1056.4,762.8,1053,759.2,1049.6,755.6z"/>
	<path class="st17" d="M1113.7,756.1c-3.4,3.3-6.9,6.7-10.1,9.8c-3.2-3.2-6.7-6.7-10.1-10.2c3-2.8,6.6-6.3,10.1-9.6
		C1106.6,749.1,1110.2,752.6,1113.7,756.1z"/>
	<path class="st17" d="M1180.4,755.7c3.3-3.3,6.8-6.7,10.3-10.1c3.3,3.5,6.7,7.1,10.2,10.7c-3.1,3-6.7,6.5-10,9.7
		C1187.6,762.9,1184.1,759.4,1180.4,755.7z"/>
	<path class="st17" d="M1420,362.4c-3.4,3.3-6.9,6.7-10.1,9.8c-3.2-3.2-6.7-6.8-10.2-10.3c3-2.8,6.6-6.3,10.1-9.6
		C1412.9,355.3,1416.4,358.8,1420,362.4z"/>
	<path class="st17" d="M1278.4,767.8c3.2,3.2,6.6,6.7,9.8,9.9c-3.2,3.2-6.8,6.6-10.3,10.1c-2.9-3-6.3-6.6-9.6-10
		C1271.5,774.7,1275,771.1,1278.4,767.8z"/>
	<path class="st17" d="M1049.5,383.5c2.9-2.9,6.4-6.4,9.9-9.9c3.4,3.6,6.9,7.2,10.2,10.6c-3.2,3.1-6.7,6.6-9.8,9.7
		C1056.7,390.8,1053.2,387.2,1049.5,383.5z"/>
	<path class="st17" d="M1409.6,416.2c-3.4-3.3-6.9-6.8-10.1-9.9c3.3-3.3,6.8-6.8,10.3-10.2c2.8,3,6.3,6.6,9.7,10.3
		C1416.5,409.4,1413,412.9,1409.6,416.2z"/>
	<path class="st17" d="M1256.1,809.6c-3.2-3.1-6.7-6.5-10.2-9.8c3.5-3.4,7-6.8,10.2-9.9c3.2,3.2,6.7,6.8,9.9,10
		C1263,802.8,1259.4,806.4,1256.1,809.6z"/>
	<path class="st17" d="M1212.8,461.3c3.3,3.3,6.8,6.8,10.1,10.1c-3.4,3.3-6.9,6.8-10.3,10.1c-3.1-3.1-6.7-6.6-10.2-10.1
		C1205.7,468.2,1209.2,464.8,1212.8,461.3z"/>
	<path class="st17" d="M1552.6,405.5c3.1-3.1,6.5-6.6,9.9-10c3.5,3.5,7.1,7,10.5,10.4c-3.4,3.3-6.9,6.8-10.1,9.9
		C1559.7,412.7,1556.2,409.2,1552.6,405.5z"/>
	<path class="st17" d="M1518.8,809.7c-3.1-3.1-6.6-6.6-9.7-9.7c3.2-3.1,6.7-6.6,10.3-10c2.8,2.9,6.2,6.5,9.5,10
		C1525.7,803,1522.2,806.5,1518.8,809.7z"/>
	<path class="st17" d="M1190.2,459.7c-3-2.9-6.5-6.4-10-9.8c3.6-3.5,7.2-6.9,10.6-10.2c3.2,3.2,6.6,6.6,9.9,9.9
		C1197.5,452.7,1193.9,456.1,1190.2,459.7z"/>
	<path class="st17" d="M1278.7,264.8c3.1,3.1,6.6,6.5,10.1,10c-3.5,3.5-7.1,7-10.5,10.5c-3.4-3.4-6.9-6.9-10.1-10.1
		C1271.6,271.8,1275.1,268.3,1278.7,264.8z"/>
	<path class="st17" d="M1781.6,483c3.4,3.4,6.8,6.9,10.2,10.3c-3.5,3.4-7.1,6.9-10.5,10.1c-3.2-3.2-6.7-6.7-10.3-10.2
		C1774.4,490.1,1777.9,486.7,1781.6,483z"/>
	<path class="st17" d="M1322.5,505c3.3,3.3,6.7,6.7,9.8,9.9c-3.6,3.4-7.2,6.9-10.5,10.1c-2.8-2.8-6.3-6.3-9.9-9.9
		C1315.1,512.1,1318.7,508.6,1322.5,505z"/>
	<path class="st17" d="M1453.5,133.1c3.4,3.4,6.8,6.8,10.2,10.2c-3.5,3.4-7.1,6.9-10.6,10.3c-3.2-3.1-6.7-6.7-10.2-10.2
		C1446.3,140.1,1449.8,136.7,1453.5,133.1z"/>
	<path class="st17" d="M1519.2,133.6c3.2,3.1,6.7,6.5,10,9.8c-3.4,3.4-6.9,6.8-10.1,9.9c-3.1-3.2-6.6-6.7-9.9-10
		C1512.2,140.4,1515.9,136.8,1519.2,133.6z"/>
	<path class="st17" d="M1322.1,155c3.4,3.4,6.8,6.8,10.2,10.2c-3.4,3.3-7,6.8-10.5,10.2c-3.2-3.2-6.7-6.7-10.2-10.2
		C1315,162,1318.5,158.5,1322.1,155z"/>
	<path class="st17" d="M1410.2,155.4c3,3,6.4,6.4,9.8,9.7c-3.6,3.5-7.1,7-10.5,10.3c-3.1-3.1-6.6-6.6-9.7-9.7
		C1402.9,162.5,1406.5,159,1410.2,155.4z"/>
	<path class="st17" d="M1365.7,789.5c3.4,3.4,6.8,6.9,10,10.1c-3.2,3.2-6.8,6.7-10.4,10.2c-2.8-3.1-6.2-6.7-9.6-10.4
		C1358.8,796.3,1362.3,792.8,1365.7,789.5z"/>
	<path class="st18" d="M1453.1,587.6c-16,0-32,0-48,0c-15.1,0-23.7-8.7-23.7-23.7c0-18.1,0-36.2,0-54.3c0-13.5,9-22.5,22.5-22.5
		c32.9,0,65.8,0,98.8,0c13.6,0,22.5,8.9,22.5,22.5c0,18.5,0,37,0,55.4c0,13.4-8.7,22.4-22.1,22.5
		C1486.4,587.7,1469.7,587.6,1453.1,587.6C1453.1,587.6,1453.1,587.6,1453.1,587.6z M1439.1,561.4c14-9.2,27.3-18,40.9-26.9
		c-13.8-9-27-17.8-40.9-26.9C1439.1,525.8,1439.1,543.2,1439.1,561.4z"/>
	<path class="st19" d="M1114,179.8L1114,179.8c-6.3-1.3-12.4-2.5-18.8-3.9c-1,6.9-1.9,13-2.9,19.3c4.9,0.8,9.4,1.5,15.2,2.4
		c-4.2,4.7-9.9,3.7-14,6.4c1.4,4.9,2.8,9.8,4.2,14.7c3-0.2,5.5-0.4,8.4-0.6c-0.6,4.5-4,3-6,3.7c-2.5,0.8-5.2,1.1-7.8,1.6
		c1.2,6.4,2.2,12.4,3.3,18.5c6.4-1.2,12.4-2.3,18.5-3.3c-0.6-4-1.2-7.5-1.8-11.1c0.5-0.1,1-0.2,1.5-0.4c3,4.3,1.4,9.9,3.4,14.7
		c5.7-0.8,11.5-1.5,17.3-2.4c0.8-0.1,1.5-1.3,2.5-2.1c5,1.4,10.5,2.9,16.2,4.6c1.6-5.7,3.2-11.2,4.8-17c-4.6-1.3-9-2.5-13.3-3.9
		c-1-0.3-1.6-1.6-2.4-2.5c0.3-0.3,0.5-0.6,0.8-0.9c3.8,0.4,7.6,0.8,11.6,1.2c0.7-6,1.4-11.6,2.1-17.3c-3.9-0.5-7.4-0.9-10.9-1.5
		c-0.8-0.1-1.5-0.9-2.2-1.4c0.8-0.4,1.5-1.1,2.3-1.3c3.9-0.6,7.9-1,12-1.4c-0.8-6.8-1.6-13.2-2.3-19.6c-6.9,0.8-13.2,1.5-19.6,2.3
		c0,4.2,0,8,0,11.9c-0.2,0-0.4,0.1-0.7,0.1c-1-4.7-2.1-9.4-3.1-14.1C1125.9,177.7,1120,178.8,1114,179.8z"/>
	<path class="st17" d="M1716.4,789.7c3,3,6.5,6.4,10,9.9c-3.6,3.5-7.2,7-10.5,10.2c-3.3-3.2-6.8-6.7-10-9.8
		C1709.1,796.9,1712.7,793.4,1716.4,789.7z"/>
	<path class="st20" d="M1439.1,561.4c0-18.2,0-35.6,0-53.8c13.8,9.1,27.1,17.8,40.9,26.9C1466.4,543.5,1453.1,552.2,1439.1,561.4z"
		/>
	<path class="st15" d="M1114,179.8c6-1.1,11.9-2.2,18.3-3.3c1,4.7,2.1,9.4,3.1,14.1c0.2,0,0.4-0.1,0.7-0.1c0-3.8,0-7.7,0-11.9
		c6.5-0.7,12.7-1.5,19.6-2.3c0.8,6.4,1.5,12.7,2.3,19.6c-4.1,0.5-8,0.9-12,1.4c-0.8,0.1-1.6,0.8-2.3,1.3c0.7,0.5,1.4,1.3,2.2,1.4
		c3.4,0.6,6.9,1,10.9,1.5c-0.7,5.7-1.4,11.3-2.1,17.3c-4-0.4-7.8-0.8-11.6-1.2c-0.3,0.3-0.5,0.6-0.8,0.9c0.8,0.8,1.4,2.2,2.4,2.5
		c4.3,1.4,8.7,2.6,13.3,3.9c-1.6,5.7-3.2,11.3-4.8,17c-5.7-1.6-11.2-3.2-16.2-4.6c-1,0.9-1.6,2-2.5,2.1c-5.8,0.9-11.5,1.6-17.3,2.4
		c-2-4.8-0.4-10.4-3.4-14.7c-0.5,0.1-1,0.2-1.5,0.4c0.6,3.5,1.1,7.1,1.8,11.1c-6,1.1-12.1,2.2-18.5,3.3c-1.1-6.1-2.2-12.1-3.3-18.5
		c2.6-0.5,5.3-0.8,7.8-1.6c2.1-0.6,5.5,0.8,6-3.7c-2.9,0.2-5.4,0.4-8.4,0.6c-1.4-4.9-2.8-9.8-4.2-14.7c4.1-2.7,9.8-1.7,14-6.4
		c-5.8-0.9-10.3-1.6-15.2-2.4c0.9-6.3,1.8-12.4,2.9-19.3C1101.6,177.3,1107.8,178.6,1114,179.8c-0.5,3.5-1,6.9-1.4,10.6
		c1.5-0.1,2.6-0.1,3.8-0.2C1115.6,186.6,1114.8,183.2,1114,179.8z M1135.5,236.1c0.2,0.1,0.5,0.1,0.7,0.2c0.8-2.5,1.6-5,2.5-8
		c-1.6,0-2.8,0-4.2,0C1134.9,231,1135.2,233.5,1135.5,236.1z"/>
	<path class="st15" d="M1774.4,175.6c12.4,5.9,24.5,2.7,36.9,0.7c1,6.3,1.9,12.4,2.9,19c-4.7,0.8-9.2,1.5-13.7,2.3
		c0.1,2.5,0.1,2.5,5,3.9c2.4,0.7,4.7,1.4,7.5,2.3c-1.4,5.1-2.8,10-4.2,15.1c-2.7-0.2-5.3-0.4-7.8-0.6c-0.2,2.6-0.2,2.6,5.4,3.7
		c2.5,0.5,5.1,1,7.9,1.5c-1.1,6.3-2.2,12.3-3.3,18.5c-6.3-1.1-12.3-2.2-18.4-3.3c0.6-3.8,1.1-7.4,1.7-11.2c-2.7,0.7-2.7,0.7-3.4,6.4
		c-0.3,2.6-0.7,5.1-1.1,8.2c-6.6-1.4-13.4-1-21.3-4.2c-3.6,1-9.1,2.5-15,4.2c-1.6-5.6-3.2-11.1-4.8-16.7c5.1-1.8,10.2-3.6,15.2-5.4
		c0.2-0.1,0-1.2,0-2.2c-4.1,0.4-7.9,0.8-12,1.2c-0.7-5.8-1.4-11.4-2.2-17.3c3.7-0.5,7.2-0.8,10.6-1.4c0.9-0.2,1.7-1.1,2.5-1.6
		c-0.8-0.4-1.6-1.1-2.4-1.2c-3.8-0.5-7.7-0.9-11.8-1.3c0.7-6.6,1.5-13,2.2-19.7c6.6,0.8,12.9,1.5,19.5,2.2c0,4.1,0,8.1,0,12
		c0.3,0,0.5,0.1,0.8,0.1C1772.1,186,1773.2,181.3,1774.4,175.6z M1792.7,181.7c-0.2,0-0.5,0-0.7,0c-0.6,2.8-1.2,5.6-1.8,8.4
		c1.3,0,2.5,0,3.8,0C1793.6,187.1,1793.1,184.4,1792.7,181.7z M1772,228c-1.5,0.1-2.7,0.2-4.2,0.3c0.9,3,1.6,5.4,2.3,7.9
		c0.3,0,0.5-0.1,0.8-0.1C1771.3,233.5,1771.6,231,1772,228z"/>
	<path class="st15" d="M1114,894.7c-2.7,0.7-5.3,1.4-8,1.9c-3.4,0.6-6.9,1-10.8,1.6c-1-6.3-1.9-12.4-2.9-18.9
		c4.7-0.7,9.2-1.5,13.7-2.2c0-2.6,0-2.6-5-4c-2.4-0.7-4.7-1.4-7.5-2.3c1.4-5,2.8-9.9,4.2-15c2.7,0.2,5.3,0.3,7.8,0.5
		c0.1-2.6,0.1-2.6-5.4-3.7c-2.5-0.5-5.1-1-7.8-1.5c1.1-6.2,2.2-12.1,3.3-18.5c6.2,1.1,12.2,2.2,18.5,3.3c-0.6,3.8-1.2,7.3-1.8,10.9
		c2.4,0.1,2.4,0.1,4.5-13.6c6.7-0.8,18.5,1.7,19.6,4.2c5.5-1.5,10.9-3.1,16.7-4.7c1.6,5.6,3.2,11.1,4.7,16.6
		c-4.6,3.2-11.6,1.6-15.5,6.3c0.2,0.5,0.3,0.9,0.5,1.4c3.8-0.4,7.6-0.8,11.8-1.2c0.7,5.7,1.4,11.4,2.2,17.3c-3.9,0.5-7.6,1-11.3,1.6
		c-0.7,0.1-1.2,0.9-1.9,1.3c0.7,0.4,1.3,1.1,2,1.2c4,0.5,8,0.9,12.3,1.4c-0.7,6.6-1.5,13-2.2,19.6c-6.6-0.7-12.9-1.5-19.6-2.2
		c0-4,0-8,0-11.9c-0.3,0-0.5-0.1-0.8-0.1c-1,4.6-2,9.2-3,14.1C1126.2,896.9,1120.1,895.8,1114,894.7c0.8-3.4,1.6-6.8,2.4-10.6
		c-1.6,0.1-2.6,0.2-3.8,0.3C1113.1,888,1113.5,891.3,1114,894.7z M1134.5,846.5c1.5-0.1,2.7-0.2,4.2-0.3c-0.9-2.9-1.6-5.4-2.4-7.9
		c-0.3,0-0.5,0.1-0.8,0.1C1135.2,841,1134.9,843.6,1134.5,846.5z"/>
	<path class="st21" d="M1114,179.8c0.8,3.4,1.5,6.7,2.4,10.4c-1.2,0.1-2.3,0.1-3.8,0.2C1113.1,186.7,1113.5,183.3,1114,179.8
		C1113.9,179.9,1114,179.8,1114,179.8z"/>
	<path class="st22" d="M1135.5,236.1c-0.3-2.5-0.6-5.1-1-7.8c1.4,0,2.6,0,4.2,0c-0.9,2.9-1.7,5.4-2.5,8
		C1136,236.2,1135.8,236.1,1135.5,236.1z"/>
	<path class="st21" d="M1792.7,181.7c0.4,2.7,0.9,5.4,1.3,8.4c-1.3,0-2.5,0-3.8,0c0.6-2.9,1.2-5.6,1.8-8.4
		C1792.2,181.7,1792.5,181.7,1792.7,181.7z"/>
	<path class="st22" d="M1772,228c-0.4,3-0.7,5.5-1.1,8.1c-0.3,0-0.5,0.1-0.8,0.1c-0.7-2.5-1.5-4.9-2.3-7.9
		C1769.3,228.2,1770.5,228.1,1772,228z"/>
	<path class="st21" d="M1114,894.7c-0.4-3.3-0.9-6.7-1.4-10.3c1.2-0.1,2.3-0.2,3.8-0.3C1115.6,887.8,1114.8,891.3,1114,894.7
		C1114,894.7,1114,894.7,1114,894.7z"/>
	<path class="st22" d="M1134.5,846.5c0.4-3,0.7-5.5,1.1-8.1c0.3,0,0.5-0.1,0.8-0.1c0.7,2.5,1.5,4.9,2.4,7.9
		C1137.2,846.3,1136,846.4,1134.5,846.5z"/>
</g>
</svg>
