<?xml version="1.0" encoding="UTF-8"?>
<svg id="Ebene_1" xmlns="http://www.w3.org/2000/svg" version="1.1" viewBox="0 0 1920 1080">
  <!-- Generator: Adobe Illustrator 30.1.0, SVG Export Plug-In . SVG Version: 2.1.1 Build 136)  -->
  <defs>
    <style>
      .st0 {
        fill: #34974c;
      }

      .st1 {
        fill: #fcfdfc;
      }

      .st2 {
        fill: #f3f4f3;
      }

      .st3 {
        fill: #d3d7e7;
      }

      .st4 {
        fill: #05154c;
      }

      .st5 {
        fill: #f9faf7;
      }

      .st6 {
        fill: #7e81a5;
      }

      .st7 {
        fill: #101b4a;
      }

      .st8 {
        fill: #30325d;
      }

      .st9 {
        fill: #1a2454;
      }

      .st10 {
        fill: #0e1745;
      }

      .st11 {
        fill: #fdfefd;
      }

      .st12 {
        fill: #0b1243;
      }

      .st13 {
        fill: #75789d;
      }

      .st14 {
        fill: #fde7e0;
      }

      .st15 {
        fill: #11103e;
      }

      .st16 {
        fill: #fea876;
      }

      .st17 {
        fill: #0c1647;
      }

      .st18 {
        fill: #091446;
      }

      .st19 {
        fill: #f6c326;
      }

      .st20 {
        fill: #e1e4ee;
      }

      .st21 {
        fill: #f3f6f7;
      }

      .st22 {
        fill: #fb5318;
      }

      .st23 {
        fill: #8787aa;
      }

      .st24 {
        fill: #9993af;
      }

      .st25 {
        fill: #7a80a5;
      }

      .st26 {
        fill: #111a48;
      }

      .st27 {
        fill: #101643;
      }

      .st28 {
        fill: #0e1847;
      }
    </style>
  </defs>
  <path class="st11" d="M0,1080V0h1920v1080H0ZM630.42,174.19h-12.57v93.8h12.57v-93.8ZM651.86,174.19h-10.66v93.8h10.66v-93.8ZM767.37,265.72l13.9,2.52.04-94.03-12.25.41-.97,32.45c-9.65-8.02-17.44-7.81-26-1.13-5.43,4.24-9.43,18.33-9.5,29.69-.09,13.82,4.36,25.39,11.07,30.95,7.78,6.45,16.36,3.83,23.72-.86ZM848.55,194.07c3.81-.04,7.85-6.61,7.58-10.65-.34-5.02-4.32-10.4-8.29-9.7-4.36.77-7.67,6.42-7.26,12.03.28,3.87,3.69,8.37,7.98,8.32ZM443.65,230.33l-.08-15.98-28.66.07v-21.48s32.32,0,32.32,0l-.09-16.07-44.83-.02v91.15s44.95-.06,44.95-.06l-.65-16.14-31.74.15.11-21.72,28.66.09ZM1264.11,249.15l4.19,18.83,14.09-.14-23.1-90.92-17.38,1-22.7,89.9,13.81.02,5.16-18.78,25.93.09ZM1300.42,241.35l18-1.07c11.2-.66,20.3-17.24,19.6-32.42-.74-16.04-9.94-31.14-21.19-31.04l-29.01.26v90.28s12.5.78,12.5.78l.09-26.79ZM1383.46,267.84l13.44-.2-23.12-90.68-17.07.07-22.5,90.39c5.58.58,12,1.41,13.49-1.71s2.7-9.13,4.41-16.21l26.12-.39,5.22,18.74ZM548.94,219.72l6.2-.87c2.63-.37,6.94-.65,6.92-3.39l-.07-11.56-14.21-.42-.21-20.62-12.28-.65-.2,21.02c-5.05-1.77-8.61,4.39-7.44,9.55.66,2.91,4.16,5.88,6.9,8.13,2.41,14.57-2.44,34.97,6.74,45.74,5.55,6.52,15.39,3.92,20.78.6l-3.35-11.04c-.58-1.9-6.2-.55-7.37-1.81-6.14-6.61-3.73-34.5-2.41-34.69ZM1134.92,219.16l12.75.18v-15.63s-12.55-.06-12.55-.06l-.02-21.52-12.13.78-.7,19.5c-4.58.27-7.79,6-7.39,10.52.31,3.47,3.79,6.09,7.3,8.33.99,11.22-.77,28.51,1.75,39.87,2.99,13.44,17.92,10.92,23.4,5.26-.39-3.92-.95-11.27-2.79-11.3l-8.94-.12-.69-35.8ZM469.1,232.09c.16-11.7,7.02-16.76,13.94-14.87l-.31-16.73c-10.81,3.28-15.38,4.13-26.37,2.83l-.25,64.51,12.49.16.5-35.9ZM519.63,266.68c5.28-3.44,7.53-13.01,6.72-21.41-1.48-15.38-20.19-15.31-27.44-23.32,2.98-4.48,6.26-9.25,7.98-7.69l6.71,6.06c2.57,2.32,11.03-.26,11.48-5.39-7.48-15.51-22.72-18.39-32.52-8.07-3.69,3.89-6.7,12.92-5.31,18.43,3.88,15.37,17.62,12.77,27.56,22.26-2.02,5.53-4.07,9.39-5.76,9.6-12.33,1.58-5.96-18.71-23.97-6.62,4.83,17.85,20.19,25.53,34.56,16.15ZM583.3,255.43c-3-1.35-5.79-7.69-7.27-14.04l34.62-.31c.73-17.07-5.08-34.08-14.83-38.25-11.06-4.73-23.39-.47-28.4,12.93-5.16,13.83-5.86,32.79,2.09,44.38,11.32,16.5,31.43,13.92,39.89-6.35-15.56-15.63-11.89,8.03-26.1,1.63ZM681.67,255.98c-3.65-.6-6.94-4.92-9.16-14.32l35.44-.75c-.8-8.65-1.71-20.27-5.33-27.21-8.25-15.83-25.88-17.46-35.71-3.53-8.4,11.9-8.89,37.36-.72,49.98,10.79,16.67,31.53,14.11,39.67-6.38-14.56-14.66-9.95,4.55-24.2,2.21ZM807.72,255.41c-2.92-1.27-5.7-7.68-7.17-14.02l34.61-.31c.73-17.07-5.08-34.08-14.83-38.25-11.06-4.73-23.39-.47-28.4,12.93-5.16,13.83-5.86,32.79,2.09,44.38,11.32,16.5,31.43,13.92,39.89-6.35-15.68-15.63-11.63,7.95-26.19,1.61ZM896.34,231.13l-.16,36.89,12.69-.2c-.2-16.81.7-33.87-.97-49.45-1.94-18.1-17.12-20.17-25.96-14.25l-16.19-.15-.02,63.45,12.31.66.7-39.81c.09-5.33,6.29-12,9.36-11.36,3.91.82,8.26,7.39,8.24,14.21ZM935.21,255.4c-2.9-1.25-5.64-7.65-7.14-14.01l34.62-.3c.73-17.07-5.08-34.08-14.83-38.25-11.06-4.73-23.39-.47-28.4,12.93-5.16,13.83-5.87,32.79,2.09,44.38,11.32,16.49,31.43,13.93,39.89-6.35-15.73-15.63-11.54,7.93-26.23,1.59ZM1000.63,241.38l33.93-.3c.54-10.03-.57-21.02-4.28-29.02-5.94-12.81-29.83-17.74-38.54,3.98-4.92,12.26-5.28,26.23-.16,39.18,4.43,11.22,13.76,15.97,22.25,15.48,7.94-.45,14.78-6.03,20.69-17.91-3.16-1.8-9.44-4.43-12.6-3.82-3.62,4.8-10.21,9.02-14.23,5.98-2.81-2.12-5.65-8.69-7.05-13.57ZM1043.62,268.3c21.16,7.82,1.9-31.46,17.04-49.62,1.53-1.84,7.1-1.1,7.67-3.77.46-2.14.2-9.48-.57-12.12-1.35-4.63-9.52,2.03-11.88,4.29-3.1-1.4-8.25-3.09-12.34-3.59l.09,64.8ZM1110.28,260.5c3.18-5.07,2.68-23.95-2.33-26.33l-20.38-9.68c-1.46-.69-.76-8.3.63-9.23,10.29-6.92,8.28,18.05,23.11.66-4.7-12.27-15.96-17.38-26.38-13.82-4.67,1.59-9.59,6.9-10.67,11.95s-.42,17.89,2.7,19.68l22.19,12.71c.74,4.08-2.26,11.18-4.51,10.81-12.23-1.99-7.54-10.94-15.85-10.49-2.02.11-6.41,4.64-6.91,7.9,8.55,17.96,27.79,22.75,38.4,5.86ZM1162.28,241.38l33.92-.3c.51-10.14-.43-20.77-4.32-29.13-5.84-12.55-29.74-17.73-38.5,4.09-4.92,12.26-5.28,26.23-.16,39.18,4.43,11.23,13.76,15.96,22.25,15.48,7.93-.45,14.78-6.03,20.68-17.9-3.16-1.8-9.45-4.46-12.59-3.82-3.63,4.81-10.52,8.79-14.11,6.08-2.97-2.24-5.79-8.79-7.18-13.67ZM854.93,203.67h-12.57v64.32h12.57v-64.32ZM1429.67,222.12h-30.53v13.72h30.53v-13.72ZM656.98,396.7c-3.63-7.98-5.19-11.31-6.29-14.65,10.12-20.37,9.22-47.93-2-65-10.76-16.37-28.58-20.08-43.01-4.4-16.3,17.72-16.04,59.02-.04,76.93,10.98,12.29,22.9,11.02,34.41,5.55l16.92,1.56ZM781.29,302.83h-10.75v93.8h10.75v-93.8ZM804.77,302.83h-10.9v93.8h10.9v-93.8ZM1180.15,337.47c-7.78-11.23-19.31-9.13-28.66-1.75l-.55-32.5-12.25-.33.02,93.88,14.45-1.59c8.18,3.83,18.47,7.59,26.3-2.68,10.32-13.55,10.84-40.38.69-55.03ZM737.35,384.62c-3.64-.59-6.94-4.93-9.16-14.32l35.44-.75c-.8-8.65-1.71-20.27-5.33-27.21-8.25-15.83-25.88-17.46-35.71-3.53-8.39,11.9-8.9,37.36-.72,49.98,10.79,16.66,31.54,14.11,39.67-6.37-14.54-14.67-9.93,4.52-24.19,2.2ZM846.8,375.92c-3.9,6.89-9.47,10.34-13.89,8.29-3.11-1.44-6.1-7.6-8.61-14.17l34.16-.36c.91-11.61-.36-25.02-6.88-32.61-9.4-10.96-24.42-10.15-32.98,2.6-7.87,11.72-8.75,31.77-2.55,45.28,5.1,11.12,14.53,15.16,23.46,14.29,7.22-.7,13.85-8.16,19.23-18.06l-11.93-5.26ZM889.82,345.6c2.68.51,7.71,7.35,7.79,11.75l.72,38.76,12.24.62.18-32.83c.05-8.61-1.76-22.1-5.84-27.94-7.29-10.44-18.31-6.5-24.97-.57-4.45-1.88-8.85-2.89-14.22-3.39v64.81s12.33-1.34,12.33-1.34c-.1-15.39-1.97-52.46,11.78-49.86ZM966.32,396.63l-.04-64.39-15.66.79c-8.11-3.28-15.37-4.91-23.31,1.19-5.64,4.34-9.48,15.95-9.82,27.26-.43,14.24,2.53,27.1,9.9,33.07,7.46,6.04,15.12,5.06,23.19,1.29l15.75.79ZM988.5,358.23c.12-5.83,6.09-12.76,9.21-12.97s9.25,6.4,9.38,11.65l.97,39.48,12.14-.54c-.4-20.67,1.75-38.98-3.7-55.62-4.79-14.63-20.17-12.81-27.25-3.96-3.8-3.77-10.49-5.55-13.97-2.59l-.04,62.8,12.45-.03.8-38.22ZM1057.03,425.12c8.95-1.97,16.84-12.44,16.88-25.87l.22-67.06-13.9,1.2c-10.42-7.07-23.43-4.86-30.4,8.98-6.24,12.38-5.7,31.03,1.91,43.4,6.84,11.12,19.36,14.66,28.89,3.92,1.56,6.59-.55,17.5-5.28,21.36-10.06,8.21-10.18-14.53-26.89-2.02,6.57,15.6,16.8,18.67,28.58,16.08ZM1129.76,396.75l-.05-64.64-15.32,1.38c-8-4.22-15.83-5.6-23.84.96-5.45,4.46-9.45,18.32-9.53,29.83-.09,13.84,4.43,25.58,11.13,30.99,7.53,6.08,15.39,3.59,23.07.05l14.54,1.43ZM1211.81,384.04c-2.9-1.26-5.67-7.67-7.15-14.01l34.62-.3c.73-17.07-5.08-34.08-14.83-38.25-11.06-4.73-23.39-.47-28.4,12.93s-5.87,32.79,2.09,44.38c11.32,16.49,31.43,13.93,39.89-6.35-15.69-15.63-11.61,7.96-26.22,1.6ZM695.19,332.41l-.36,39.84c-.04,4.96-6.45,12.17-9.38,11.19-2.6-.87-8.07-6.82-8.11-11.05l-.33-39.87-12.64-.19.46,45.66c.08,8.09,5.54,17.53,9.58,19.53,11.44,5.68,14.33-4.82,35.03-.97l.03-64.19-14.28.06ZM334.4,501.92c-5.25-1.71-5.7-21.7-1.14-25.58,4.66-3.96,15.12,14.52,13.3,3.47-1.13-6.85-8.84-9.99-13.15-8.38-3.12,1.17-7.74,7.54-8.39,12.74-1.62,13.02,3.02,22.03,9.88,22.56,6.86.54,13.28-6.64,11.63-19.04l-10.52.45c3.08,3.85,4.97,6.3,5.59,8.9.49,2.08-4.51,5.73-7.2,4.86ZM617.68,500.05c-.41-9.76,1.12-16.07,5.3-19.18l-5.06-2.3c-.49-.22,1.84-2.04,2.26-2.56l2.69-3.37c-1.55-4.05-11.14,3.13-10.52,8.06l2.7,21.54c-.05,7.68,2.1,4.83,2.63-2.19ZM703.24,504.68l-9.83-3.88c-.27-11.01-.11-19.9-1.84-31.71-2.73,14.64-2.19,24.55-1.59,38.17l13.27-2.57ZM723.94,506.08c-4.69-7.36-5.8-16.95-.3-24.6l-6.93-9.95c-3.04,7.52-3.11,13.34-2.09,21.62.99,8.07,3.25,15.08,9.33,12.94ZM784.66,505.83c-5.73-13.74-4.13-16.15-.2-24.72l-6.72-9.54c-5.51,8.68-1.24,30.82,1.68,33.61,1.15,1.1,5.68.95,5.24.65ZM1134.01,483.23l-2.43,4.18c-.84,1.45,1.22,5.58,1.98,8.24s2.22,8.39,4.06,9.01l13.29,4.47,3.31-14.46c2.08-9.1.03-18.76-6.07-22.34-5.08-2.98-12.21,1-14.13,10.88ZM1335.55,505.29c2.54-.18,5.65-9.51,5.31-13.29-1.18-13.22-6.34-7.45-17.04-21.6l.04,35.7,11.68-.81ZM1447.92,476.51l5.03-4.14-18.78-.28,7.64,7.19,1.33,29.17c7.01-2.7-2.14-26.24,4.77-31.93ZM1485.51,504.31l-3.49-12.17c-.77-2.67,3.42-9.15,5.68-9.52,5.72-.93.57,24.06,5.58,23.73l5.95-.39c-2.68-5.33-4.78-9.96-5.32-14.28-.44-3.56,3.64-9.22,5.36-10.51l-6.43-7.59c-8.61,13.67-5.56-1.2-14.51,12.7l-2.66-4.27c-.58-.93-2.68-1-3.11-.67,2.09,8.83,2.42,15.22-1.12,24.36-.08.47,4.06,1.42,4.79-.36l2.72-6.63,2.78,6.76c.6,1.45,3.83-.38,3.77-1.16ZM353.16,495.36l13.2-2.36c1.63-8.56-4.36-14.4-9.49-13.48-3.03.54-7.21,5.4-8.56,12.02-1.02,4.98,3.14,12.91,7.97,15.01,3.33,1.45,8.44-1.29,9.16-7.76l-7.61,2.81c-1.37.51-3.12-2.52-4.66-6.24ZM390.87,495.38l13.18-2.39c1.89-8.63-5.58-14.09-8.95-13.59-3.52.52-7.64,5.82-9.05,12.18-1.07,4.85,3.24,12.93,7.93,14.96,3.36,1.46,8.47-1.3,9.16-7.76l-7.54,2.79c-1.35.5-3.2-2.53-4.72-6.21ZM436.45,495.15c2.51.19,6.17-5,5.87-8.24-.26-2.81-3.43-7.5-5.37-7.62-6.31-.39-11,2.65-11.62,9.78-.53,6.07,1.43,15.43,4.84,16.79,4.77,1.9,11.17,1.37,11.7-7.35l-9.31,3.7-1.56-7.14c-.22-1.01,3.16-.09,5.45.08ZM460.07,495.49l12.59-2.83c.24-5.87-2.92-12.39-6.57-13.22-3.89-.89-8.85,2.41-9.74,7.89-1.56,9.61.43,17.1,6.2,19.29,3.24,1.23,9.71-2.14,9.31-7.9l-7.7,2.68c-1.26.44-2.67-2.66-4.08-5.91ZM486.55,516.73c3.91,1.36,12.74.21,13.71-5.35,1.6-9.23,1.56-22.1-1.14-29.52-1.94-5.34-13.79-2.82-14.75,3.24-.76,4.78-1.82,15.08.23,17.43s6.57,3.59,10.88,5.15c.47.04-1.24,5.66-2.38,5.19l-4.64-1.87c-3.27-3.83-4.01-1.66-1.91,5.72ZM518.88,505.02l.48-9.89c.28-5.7-2.04-13.84-5.09-14.92-3.87-1.38-8.11-.64-9.79,5.74l7.5-1.36c1.01-.18,1.66,4.85.69,5.08l-4.5,1.06c-2.61.61-5.8,4.99-5.76,9.17.09,9.09,16.34,7.55,16.46,5.12ZM534.43,508.34c6.63-9.09,3.92-28.4-1.68-28.53-2.99-.07-7.3,2.54-8.03,5.41l8.22-.33,1.49,23.44ZM557.11,505.92l-9.25-5.32,8.17-19.87c-6.86-.77-9.68-.8-15.98-.15l9.34,5.18-9.88,20.57,17.6-.41ZM571.47,495.58l13.07-3.26c-1.37-11.1-5.27-13.6-10.71-12.57-3.88.73-6.62,6.9-6.86,14.58-.15,4.96,3.6,11.6,8.21,12.65,2.79.63,8.61-3.5,7.74-8.18l-7.39,2.64c-1.26.45-2.82-2.91-4.06-5.86ZM606.27,508.34c6.64-9.13,3.9-28.42-1.68-28.52-3.01-.05-7.29,2.54-8.03,5.41l8.22-.33,1.49,23.44ZM639.22,505.01l.49-9.9c.28-5.69-2.05-13.71-5.12-14.94-3.49-1.4-8.55-.35-9.63,5.72l7.39-1.33c.92-.16,1.65,4.86.65,5.1l-4.49,1.07c-2.61.62-5.81,5.03-5.76,9.15.1,9.07,16.33,7.64,16.46,5.12ZM658.88,487.38c-1.02-5.46-7.04-9.41-11.02-7.07-3.3,1.94-7.23,9.18-6.81,13.73.54,5.8,4.16,12.73,7.88,12.95,3.59.22,9.49-3.99,9.51-7.76-4.94,1.11-9.51,2.78-11.03-.21-1.3-2.57-1.19-11.85.83-12.95s5.42.26,10.63,1.31ZM672.65,508.15c3.31-3.13,5.01-7.49,4.98-12.28-.04-7.04-2.25-13.63-5.26-15.43-3.36-2-9.58-.98-9.35,4.58.42,1.85,4.39.55,7.74-.7l1.9,23.82ZM742.15,489.69c.33-2.83-1.79-9.28-3.81-9.84-5.38-1.51-12.78.86-12.98,9.05-.15,6.31,1.07,15.46,4.72,16.94,4.79,1.94,11.2,1.43,11.73-7.34l-9.31,3.71-1.53-7.12c-.48-2.23,10.19,3.04,11.17-5.4ZM772.17,505.05l.37-9.92c.13-3.44-.83-11.32-2.71-13.15-2.48-2.43-10.61-4-11.76,2.85-.17,1.01.06,1.8.69,1.6l3.51-1.07,3.63-1.1c.76-.23,1.43,4.13.68,4.45l-3.4,1.46c-2.69,1.15-5.48,2.59-6.9,4.31-1.14,1.37-.6,8.58.7,9.58,4.54,3.5,15.09,3.65,15.19.99ZM844.7,495.08c3.15.34,7.36-3.66,7.08-7.96-.19-2.9-3.33-7.77-5.59-7.84-5.46-.19-10.76,2.84-11.23,9.66s1.22,15.61,4.72,16.93c4.87,1.83,11.16,1.39,11.7-7.36l-9.31,3.72-1.52-7.16c-.21-1.01,2.24-.19,4.15.02ZM864.57,506.49l17.99-.91-8.99-5.19,7.89-19.46-14.27,2.81,7.42,1.88-10.05,20.87ZM887.58,495.56l13.06-3.23c-1.37-11.12-5.27-13.6-10.71-12.57-3.87.73-6.61,6.91-6.87,14.58-.17,4.94,3.75,11.61,8.17,12.63,2.87.66,8.63-3.5,7.84-8.18l-7.48,2.65c-1.27.45-2.74-2.87-4-5.88ZM927.01,486.75c-2.04-4.5-7.26-8.23-11.24-6.62-3.02,1.22-7.35,8.52-6.8,13.44.62,5.56,3.62,13.23,7.44,13.43,3.66.19,9.57-3.9,9.67-7.77-5.01,1.1-9.46,2.74-11.03-.18-1.35-2.51-1.27-12.35.85-12.94s4.99.09,11.12.63ZM940.34,507.99c8.03-7.7,4.72-18.35,1.8-25.02-2.24-5.12-11.62-5.65-11.51,2.51.25,1.11,4.48-.03,7.7-1.04l2.01,23.54ZM987.23,502c2.17-8.79-4.73-8.7-9.4-15.35l10.19-1.82c-1.97-7.79-13.48-8.12-14.58,1.18-.55,4.62,6.94,10.01,10.28,11.37.71.27-1.07,5.49-2.02,4.82l-3.7-2.61c-1.01-.71-3.6-.09-4.68.38-.72.31,1.12,4.14,1.69,4.87,2.3,2.91,10.88,2.57,12.22-2.84ZM1011.51,495.63l13.12-3.46c-1.58-10.72-5.46-13.55-10.76-12.43-3.97.83-6.67,7.14-6.87,14.7-.14,5.15,3.59,11.51,8.36,12.56,2.79.61,8.3-3.81,7.92-8.17l-7.71,2.56c-1.28.42-2.78-2.83-4.04-5.76ZM1048.83,495.78l-14.49-9.64,12.3,14.54-12.75-1.3c.89,3.64,4.06,7.82,6.83,7.77,2.48-.05,6.24-3.22,7.99-5.89.36-.55,1.63-1.74,2.05-2.21.62-.68.99.89,2.81,5.08,3.78.82,9.79.73,15.09-.08-.77-2.56-2.54-8.47-2.54-8.46-3.88,3.59-6.45,6.24-8.41,4.97-2.86-1.84-4.37-8.92-2.37-12.53,6.18-11.16,7.36,7.56,15.12-.27l5.64,19.01c1.88-.93,4.5-2.77,4.78-4.97l1.19-9.59,3.01,9.03c.66,1.97,3.06,6.49,4.03,5.16.73-.99,2.42-4.27,2.69-5.82l3.82-21.51c-4.59,1.39-6.53,7.6-8.29,14l-1.56-10.6c-.24-1.62-2.99-2.68-4.1-2.95l-4.24,10.8-3.19-9.54c-.47-1.4-2.71.36-3.89,1.51l-16.31.14-5.21,13.36ZM1114.35,495.52c2.44.54,7.02-4.49,6.9-8.51-.08-2.88-3.38-7.56-5.37-7.68-6.54-.4-10.88,2.52-11.63,9.75-.61,5.9,1.35,15.31,4.83,16.81,4.6,1.99,10.77.68,11.77-7.23l-9.33,3.42c-.17-.73-1.24-5.54-1.58-7.06-.22-1,2-.05,4.4.49ZM1162.7,502.67l-1.15-23.52c-6.19,1.15-4.99,18.5-2.21,23.74,1.38,2.6,7.63,3.74,9.99,3.83,1.11.04,2.04-5.26,1.75-6.74-.18-.94-1.35-1.42-2-1.04l-6.37,3.74ZM1180.32,495.57l13.08-3.23c-1.37-11.14-5.3-13.62-10.72-12.57-3.85.75-6.67,6.97-6.98,14.6-.2,4.81,3.9,11.58,8.31,12.61,2.81.66,8.64-3.51,7.8-8.18l-7.42,2.63c-1.27.45-2.77-2.85-4.06-5.87ZM1214.4,495.35l12.73-2.39c-.18-6.79-2.67-12.54-6.73-13.48-3.3-.77-8.93,3.13-9.64,7.71-1.5,9.63.51,17.22,6.07,19.41,3.13,1.24,10.1-1.95,9.04-7.93l-7.37,2.78c-1.27.48-2.64-2.69-4.1-6.11ZM1247.17,500.64c3.65,7.2,10.26,6.39,15.65,5.37,0-8.02-.09-18.49-1.05-23.93-3.74-5.08-11.74-4.19-13.55,4.26l7.29-1.06c.96-.14,3.95,2.46,3.06,2.97-3.46,1.98-15.35,4.61-11.4,12.4ZM1302.1,508.9l.04-29.08c-4.6-.21-11.34-.81-14.16,1.83-3.71,3.47-4.76,14.51-2.69,19.22,1.85,4.2,6.71,5.28,12.37,8.54-2.94,3.94-6.7,2.08-12.04.93,1.22,3.6,5.36,7.09,8.29,7.39,2.45.25,8.18-4.81,8.18-8.83ZM1304.99,501.6c1.29,4.47,9.91,5.48,14.18,4.89l-.17-23.47c-.04-5.91-14.86-5.15-12.19,3.27l6.82-1.29c.97-.18,2.24,3.74,2.77,5.46-5.11-1.73-14.32,1.1-11.42,11.14ZM1347.37,495.57l13.06-3.24c-1.36-11.16-5.32-13.59-10.74-12.61-3.71.67-6.85,7.7-7.09,14.41-.18,4.98,4.15,11.86,8.39,12.84,2.87.66,8.7-3.48,7.84-8.18l-7.43,2.65c-1.25.44-2.76-2.89-4.02-5.87ZM1409.74,509.11l5.18-23.71,5.44.77c.85.12-1.2-6.17-2.04-6.13l-20.94.84.34,27.27c5.87-3.94,4.34-8.47,5-15.05l.84-8.45c.12-1.17,3.34.45,3.89.82l2.3,23.64ZM1462.71,495.44c2.69.53,7.03-4.07,6.97-8.48-.04-2.94-3.34-7.46-5.37-7.6-6.55-.44-10.84,2.52-11.45,9.61-.55,6.28,1.12,15.46,4.67,16.92,4.7,1.93,10.76.69,11.78-7.25l-9.32,3.43-1.6-7.04c-.23-.99,2.06-.04,4.32.4ZM989.08,500.65c1.93,5.14,6.96,7.04,10.17,6.06,2.4-.73,5.72-5.38,6.77-9.55l-16.1-11.37c3.35,16.24,12.46,2.01,9.35,15.91-.82,3.66-8.2-8.15-10.19-1.04ZM134.71,659.26h1562.58l16.14,5.72c16.89,5.99,26.24,30.12,34.26,49.72-6.61-29.33-26.86-58.12-50.39-58.12H134.71c-21.7,0-42.82,25.74-50.22,57.5,11.73-28.56,21.7-50.07,50.22-54.82ZM1692.96,680.66l-110.66.09c-23.73.02-41.69,29.18-41.24,62.89.44,32.41,18.11,60.32,41.26,60.32h111.42c23.72-.01,41.71-29.29,41.24-62.87-.46-32.62-17.98-60.45-42.01-60.43ZM357.42,691.41h-1.8v100.5h1.8v-100.5ZM150.87,720.89c3.67,2.99,3.68,2.47,1.8-2.68l6.91,2.55c1.68.62,5.06,4.35,6.58,3.13l6.7-5.38,2.23,2.17c.49.48,1.96,3.61,2.07,2.73l.94-7.82.66-5.41c.11-.94,2.15.51,2.25,1.45l.4,3.89-.35,6.03c-.25,4.23,9.89-1.98,9.61-.97l2.53-9.1c.42-1.5,4.31-1.51,5.41-1.63s.48-5.89.06-7.97l-12.4,6.39c3.35-2.19-30.12-4.05-26.42-1.39l-.87-6.77c-.3-2.3-6.85,1.72-6.6,2.61l-3.22-.69c-13.97-7.29-8.8,4.94-23.03-.96,1.25,1.78,6.77,6.68,5.52,9.04l-6.89,13.05,26.11-2.28ZM201.16,704.81c-.16,6.35.08,14.08,1.8,18.76h1.8l2.2-3.93c.63-1.14,2.27,1.36,4.72,3.94l.34-24.37-3.67,2.92-4.9-2.98c-1.1-.67-2.24,3.75-2.29,5.66ZM390.7,716.47c-.1.52-.02,1.34.01,2.05l-1.05,1.17c-.35.39.55,4.05.91,3.72l2.76-2.52c1.22-1.11,2.78-3.47,3.59-5.36h3.59c-.37,1.01-2.32,4.04-1.56,4.33,1.45.56,4.16,2.43,4.62,1.31l2.33-5.65h1.8c.12,2.54,1.38,7.46,3.04,8.02,2.22.75,6.51-.73,7.74-2.66h1.8l1.8,2.68,3.59-3.11,8.45,2.31c.72.2,2.23-1.46,2.33-1.89l10.78,2.68c2.51.62,6.79-.96,8.98-2.68l6.68,2.06,1.77-17.45c3.11,5.85,1.8,8.57.75,16.98l8.85-1.6,4.72,3.31c1.5,1.05,4.18-3.55,4.18-5.98v-13.63s-10.3.94-10.3.94c-2.09-1.83-6.4-1.9-9.76-1.33l-.86-3.97c-.33-1.51-4.52-.69-4,.72.48,1.31,1.53,4.3,1.05,4.6l-3.07,1.95c-1.19-1.93-6.88-4.25-8.98-2.68l-7.18,5.36c-.42.31-1.17,0-1.8,0-.57,0-1.34.13-1.8,0,0-.14-.06-5.61-.73-5.06l-2.87,2.38-1.8-2.68c-2.56-.65-5.26-2.65-7.18-5.36h-1.8c-.82,1.04-1.8,5.67-1.8,8.04h-1.8c-2.26-1.87-6.24-3.13-8.98-2.68-.03-.56-.06-6.01-.71-5.16-.43.56-2.66,2.59-3.27,3.18l-10.36-1.16c-1.64,2.17-3.46,5.01-4.08,3.85l-3.25-6.21c-1.17,6.34.21,13.52,2.87,17.15ZM497.51,723.57c3.53-.23,6.97-.99,10.93-2.59,1.66-.67,4.13-.95,6.95-1.37l-.09-13.25c-3.99.12-6.08-1.8-8.81-6.91h-8.98c-2.81,6.18-2.81,17.94,0,24.12ZM549.99,724.19l-2.49-18.99-5.69,2.16c-.95.36-2.01-3.2-3.78-7.28.12-.14-3.47,4.13-4.99,5.95-1.24,1.49-.09,5.78.64,8.62-.43,1.68-2.28,5.66-1.27,6.29l3.91,2.45c3.07,1.92-.04-15.53,6.95-13.76,5.31,1.34,1.66,13.17,6.71,14.56ZM576.37,722.73l-5.65-22.61c-8.32-.17-10.64,14.83-9.3,20.87,5.81-2.16,9.03-2.07,14.94,1.74ZM590.91,720.89l6.35-1.43,2.63,4.11,1.8-2.68h3.59c4.36,2,10.29,2.73,15.33,3.04,1.23-5.1,1.37-7.67,2.2-6.72l5.69,6.49-.21-25.23-4.77,12.5c-1.94-2.63-4.76-7.3-6.38-6.6l-6.45,2.8c-2.95-.11-6.07-.03-8.98.31,0-2.57-.89-7.07-1.8-8.04h-1.8l-4.5.07c-1.08.02.25,3.12.91,5.29h-1.8l-3.4-5.08c-1.46-2.18-16.2,12.71-9.65,22.17l2.62-7.23c.7-6.55,2.24-6.24,2.96-.01l1,8.72c.22,1.88,3.4-2.2,4.66-2.48ZM659.16,723.57l1.8-5.36h1.8c1.58,4.4,5.45,5.94,8.98,5.36.41-.03,4.05-.16,3.72-1.33l-1.92-6.71-3.13-10.62c-.89-3.03-7.84,2.71-7.65,5.26h-1.8c0-3.39-.63-8.44-1.8-10.72-3.94,5.89-4.83,18.24,0,24.12ZM720.22,704.81c-.94,0-2.71-.26-3.59,0l-14.54,4.26c-.54.16-2.55,4.45-2.66,3.65l-.92-6.65-10.87,2.22,2.32,15.2c1.98-2.68,5.52-9.23,7.38-7.58l8.1,7.21c.3-4.09.89-11.58,2.16-12.96l.12,12.79,7.1-2.07c-1.19.35,10.49,6.14,5.39,0,.98-1.65,5.03-2.89,7.18-2.68.9,1.62,2.99,4.96,4.45,5.43,1.75.57,5.25-2.74,5.78-4.95,1.77-2.8,4.93,2.31,7.34,5.16l.92-13.95,3.07,8.3c.4,2.79.92,7.03,1.8,2.68l7.52-.04c.6,0,5.56-7.62.76-15.67-.08-.13-1.6,1.23-2.89,2.31-1.11-.42-5.82-2.35-7.18-2.68s-5.17,1.27-7.18,2.68l-4.71-2.02c-1.38-.59-2.44,5.9-2.47,7.38-2.5-1.73-5.14-3.38-7.18-2.68-2.29.03-5.87-1.13-7.18-2.68l1.8-2.68c.99-1.2,1.6-1.93,1.02-2.57-.83-.91-2.78-2.96-2.81-1.81-.02.87-.01,4.21-.01,4.38ZM769.04,702.39c-1.44.88-4.28,6-4,8.63.33,3.07,2.35,9.11,3.29,10.27l7.22-5.19,1.13,10.08c.22,1.95,3.91-1.86,4.56-2.65.87.15,4.67-1.34,5.35-2.95,1.07-2.56,1.43-7.45,2.07-14.84l-7.23,1.42c-.39-2.89-2.83-7.79-4.73-7.48-2.2.37-5.97,1.75-7.65,2.71ZM808.23,707.49c-3.39-3.42-8.59-3.22-10.7,2.06l-1.6-.23c.02-.77-.18-2.41-.37-3.19-.16-.67-1-.99-1.71-1.31-2.1-.97-4.25,3.8-4.06,6.77.16,2.57,2.41,6.07,4.06,6.63.63,6.15,1,6.06,1.8,0h1.8c.37,1.65,1.65,5.77,2.96,5.79,1.64.02,4.91-1.85,6.02-3.11.42.13,1.22.02,1.8,0l1.8,2.68h3.59c1.12,0,1.8-3.69,1.8-5.36,5.3,2.58,10.75,3.11,17.13,2.73l-1.02-15.06-16.11,1.61c0-2.33-.97-6.85-1.8-8.04h-3.59c-.82,1.19-1.8,5.71-1.8,8.04ZM860.95,709.28c1.76-.65.4-7.17-.79-6.8l-3.81,1.2c-1.5-1.55-5.72-6.44-5.99-4.3l-1.1,8.9c-.64,5.18,2.64,14.26,5.08,14.69l.75-10.96c.12-1.71,4.83-2.35,5.86-2.73ZM863.91,704.81c-.18,6.34.08,14.09,1.8,18.76.53.02,1.35.12,1.8,0,1.1-.29,1.8-3.64,1.8-5.36h1.8c1.58,4.4,5.45,5.94,8.98,5.36.41-.03,4.06-.17,3.72-1.35l-1.92-6.69-3.13-10.64c-.89-3.02-7.84,2.74-7.65,5.28h-1.8v-9.48c-.02-1.49-3.7-2.1-4.46-1.14s-.87,3.42-.92,5.27ZM518.33,719.32c1.68,1.67,7.68-3.05,6.59-5.02l-4.74-8.57c-1.68-.3-3.9,11.56-1.85,13.6ZM526.25,706.15c0-.74-.4-1.34-.9-1.34s-.9.6-.9,1.34.4,1.34.9,1.34.9-.6.9-1.34ZM650.39,722.96c3.15-8.38,2.29-12.36.31-14.15-4.88-4.4-9.77,6.67-11.26,2.84l-2.66-6.84c-4.04,4.16-4.58,14.22.92,20.15l2.73-8.92,9.97,6.93ZM898.04,712.85l-8.62-6.73c.03,4.12.53,10.34,1.44,13.84.8,3.05,6.71,4.17,9.04,3.9.98-.11,1.87-5.02,1.73-5.65,1.16-.85,4.79,3.25,6.7,5.34l1.39-12.9,1.59,12.01c.16,1.25,2.28-.49,4.31-.12l.38-14.56-10.77-.5c-1.43-.07-5.05-3.44-5.54-1.43l-1.65,6.79ZM838.99,717.85l7.05-.55c1.72-.13,1.32-8.53-.39-8.75l-6.73-.86,2.29,4.12c.48.87-.71,2.51-2.21,6.05ZM82.39,769.21c-.66,11.55,6.52,27.39,11.6,33.75.66.82,5.43-2.02,4.76-2.8s-2.68-3.13-3.43-4.42c-12.18-21.13-13.59-48.75-10.99-78.25-6.93,15.82-2.89,34.62-1.94,51.73ZM197.78,721.27c0-1.45-.79-2.62-1.76-2.62s-1.76,1.17-1.76,2.62.79,2.62,1.76,2.62,1.76-1.17,1.76-2.62ZM860.53,721.27c0-1.45-.79-2.62-1.76-2.62s-1.76,1.17-1.76,2.62.79,2.62,1.76,2.62,1.76-1.17,1.76-2.62ZM1736.67,795.73l-1.62,1.67c-.44.46-2.41,2.37-1.9,2.65l5.07,2.83c5.56-7.08,11.21-21.77,11.39-33.68.25-17.14,5.68-35.86-2.09-51.75,2.99,29.6,1.19,57.06-10.84,78.27ZM485.32,722.53c-.11,2.44.82,7.45,1.76,6.92l3.37-1.88c3.4-1.9-5.06-6.35-5.12-5.05ZM526.25,722.23c0-.74-.4-1.34-.9-1.34s-.9.6-.9,1.34.4,1.34.9,1.34.9-.6.9-1.34ZM554.99,722.23c0-.74-.4-1.34-.9-1.34s-.9.6-.9,1.34.4,1.34.9,1.34.9-.6.9-1.34ZM141.67,777.09c.84-7.4-2.2-15.81-6.55-17.47,1.09-1.46,3.34-3.84,2.54-4.33s-4.31-4.28-5.12-3.82c-3.4,1.93-4.73,15.75-2.56,18.8l-4.74,8.74c6.53-4.06,8.26-5.69,16.42-1.92ZM155.8,750.86l-4.8,3.3c-.79.54,1.81,2.95,2.52,3.95.63.9,2.5-2.55,2.45-3.85-.03-.86-.18-3.52-.17-3.4ZM157.1,779.31l8.19-5.54,8.63,5.63-6-26.67-6.03,2.9c-1.3.63-1.85,8.28-1.07,9.13l3.69-6.4c.41-.71,3.62,3.41,3.06,3.85-1.86,1.46-6.3,4.34-8.53,5.77l-1.94,11.33ZM195.77,751.71c0-.74-.4-1.34-.9-1.34s-.9.6-.9,1.34.4,1.34.9,1.34.9-.6.9-1.34ZM246.06,761.09c1.67,0,5.2-.53,5.27,1.78l.34,11.39c.32,3.9.74,7.62,1.57,2.92h3.59l4.68-1.93c-6.21-3.64,2.34-4.33,3.7-3.47,1.63,1.03,3.28,5.08,3.98,8.07.14.61.16,1.79.21,2.68-.94,1.46-1.84,2.95-1.11,3.24,1.6.64,4.24,1.34,5.26.98l6.22-2.18c1.43-.5,2.1-7.06,2.75-10.25l4.11,5.62,2.53-10.8,4.68.35c1.3.1,2.48-3.53,2.5-5.71.03-3.25-10.71-4.01-10.66-4.3l-1.64,8.91c-2.07-4.79-3.26-10.03-4.72-8.9-1.95,1.51-3.18,2.89-6.85,7.05.89,4.57-.4.45-1.27-2.76l-.2-4.16c-.04-.77-1.26-.57-1.53.03l-1.86,4.13h-1.8c-.51-2.59-.87-5.28-1.78-4.51l-5.4,4.51v2.68h-1.8l-1.8-2.68-3.59-13.4c-4.33.03-10.01,2.23-13.86,5.8l2.02,20.86,4.43,1.92c.2-7.85-.12-15.73,2.02-17.86ZM401.86,779.54c4.02-9.01-6.96-24.2-13.86-29.99l.37,32.26c5.21-4.21,4.89-8.94,5.39-15.41l8.1,13.14ZM434.04,760.47c-3.34-.14-7.81.31-11.83,1.21-2.77,1.26-3,16.49.01,16.82l12.65,1.36c.78.08,2.34-.23,3.13-.36,2.17-2.49,2.24-10.7,2.03-16.11.41-.9,2.84-.76,2.94.3l.72,8.08.52,5.7c.09,1.02,1.36,1.49,2.15,2.17.95.82,1.08-6.33.94-8.01l-.91-10.58c-.22-2.61-4.66-1.86-6.36-2.64.03-2.6-.28-7.8-1.8-8.04-1.27-.2-3.89,1.63-3.99,3.54s-.28,5.13-.22,6.56ZM477.73,752.22c-4.33-.65-6.39-.81-7.24-.55l7.24.55ZM528.11,774.79l-.57-23.39-4.12-.1c-.73-.02-3.67,23.23,5,26.74,3.66,1.48,9.4,2.51,10.41-5.93l-10.73,2.69ZM575.1,779.77l-12.69-4.45-.66-25.97-5.64,4.84c-.83.71-2.74-2.66-3.23-2.88-2.1,2.91-5.26,7.78-6.6,6.02l-5.67-7.47.36,31.4,6.08-10.51c8.85,13.81,2.23,7.28,23.24,8.78.94.07.95,8.57,1.83,7.97l3.77-2.53c.58-.39-.17-4.98-.79-5.19ZM589.39,778.85l1.04-24.99-4.93-3.48.12,29.48c.61-.55,2.57-2.46,2.62-2.39.06.08,2.96,3.58,1.15,1.39ZM605.28,758.41c-.17.24,2.5,4.29,2.72,2.92l.87-5.6c-.97-3.85-1.71-6.11-1.52-3.42l-3.88,4.74c-.39.47,1.51,1.21,1.81,1.36ZM616.05,753.05l-3.18.76c4.47,6.66,4.65,13.12.98,22.39-2.42-1.06.32.14,2.2.97,3.32,3.71,5.5-7.74,5.5-12.06s-2.18-15.76-5.5-12.06ZM627.65,777.4l-.2-26.41c1.04-1.19-1.54,1.85-1.5,1.79s-2.01-1.72-2.67-2.27l.06,28.76c1.45.42,5.9-.68,4.31-1.86ZM648.69,778.01l-1.46-30.26c-4.62.25-2.1,30.82-2.96,30.95l4.42-.69ZM653.76,757.27l2.74-3.56c.47-.62,2.17.7,3.05,1.27l3.73,2.39c.53.34.88-3.67.51-4.3-2.54-4.28-11.68-3.95-14.11,6.32l7.6,7.45c1.59,1.56,3.49,3.96,3.78,5.89.22,1.45-2.01,4.43-2.95,3.95l-5.14-2.66c-2.43-4.59-2.68-.79-1.72,4.28,2.65,1.94,10.48,1.98,12.57-2.01,5.63-10.77-13.09-15.1-10.07-19.02ZM677.12,771.81c3.03-5.83,6.66-17.61,0-21.44l-10.91.05.4,29.48,7.82.24c1.5.05,2.46-3.13,2.68-8.33ZM686.1,779.85l3.59-13.4c2.39,5.41,5.02,13.33,8.98,13.4,2.62,9.12,2.61-38.62,0-29.48l-3.5.31-.29,18.47c-3.48-7.8-5.5-12.34-11.59-21.43l-1.15,31.83,3.95.29ZM739.98,778.4c2.36.61,6.71,1.79,8.98,1.46l6.25-.93,3.48-17.95-7.93.12-6.41-3.06c-1.53-.73-4.17,3.52-4.37,5.74l-3.04-12.16c-.27.71-3.35-1.77-3.55-.57l-1.42,8.8-.82,5.14c-.16,1.01-2.52,3.25-2.72,2.26l-1.21-6-10.36-1.94.38,21.08,4.85-4.15c.96-.82,2.43.52,4.47,1.71l2.12-7.47,5.24,8.95c1.03,1.76,4.57-.94,6.06-1.04ZM784.87,757.68c.96,3.92,1.73,8.73,2.33,14.04l.67,5.86c.13,1.11,3.76-1.47,3.77-2.59l.2-22.94-6.96,5.63-.67-2.28-1.11-2.36c-3.18-1.44-7.56-2.59-10.27-2.3-1.81.2-3.81,10.2-2.17,11.38l5.82,4.18c1.34.96,4.02,3.58,5.08,4.84.8.95-1.16,4.55-2.16,4.85l-6.78,2.02c.8,2.23,7.21,1.64,9.83-.69,1.98-1.77,2.75-11.09.53-12.13-3.58-1.68-8.44-4.99-9.22-7.7,3.46-5.32,7.86-1.7,11.12.18ZM818.74,779.01l2.16-.49-.1-15.12c.41-.9,2.86-.77,2.95.31l.69,8.08.47,5.51c.09,1.05,2.11,3.6,2.29,2.58.27-1.53.99-6.33.87-7.87l-.89-10.94c-.21-2.64-4.68-1.87-6.39-2.66,0-2.64-.41-7.65-1.8-8.04-1.13-.13-3.57-.11-3.6,1.51l-.14,9.22c-.12,7.45-.23,15.65,3.48,17.9ZM971.06,760.47l-18.68-1.14-1.32,18.56c5.99.02,15.86,1.26,20.83,1.97.78.11,2.34-.22,3.13-.36,2.17-2.49,2.24-10.7,2.03-16.11.41-.9,2.86-.77,2.95.31l.69,8.06.48,5.57c.04.46,5.33,11.42,2.24-16.26-.29-2.59-4.68-1.93-6.37-2.66.03-2.6-.28-7.8-1.8-8.04-1.27-.2-3.89,1.67-3.99,3.55-.09,1.74-.28,5.11-.22,6.54ZM152.56,767.79c1.4.22,4.19,1.09,3.88-.05l-1.16-4.32c-.3-1.1-1.64-1.69-2.19-.72l-2.99,5.3-2.09-15.41-2.41,26.53,6.96-11.34ZM234.01,775.18c2.01-4.53,2.47-17.04-1.51-17.2l-1.25,16.23c-1.35.33-7.41,1.41-8.17-1.14l-3.27-10.99c-.92-3.09-1.56-8.45-3.08-8.48-1.22-.03-5.53,2.07-5.92,3.79l-4.33,19.23c9.78-7.53,22.68,9.51,27.53-1.43ZM461.69,752.83l-.61,26.86,4.39.22.61-26.86-4.39-.22ZM488.53,774.49c1.09,2.09,2.95,5.68,4.59,5.83s4.94-1.56,6.19-3.15c.8-1.02.48-3.21,0-5.36.99-3.15,1.97-8.69.35-10.48-2.32-2.56-7.82-4.02-9.8-2.12s-3.06,8.8-3.12,12.6c-1.35-4.68-1.99-12.08-2.64-18.64-4.54,2.75-8.71,4.9-10.29,8.71-1.81,4.37-2.09,15.19,1.59,17.92,1.55-3.1,2.4-11.38,3.35-18.94l1.73,17.08c2.79,1.21,6.44-.21,8.05-3.46ZM594.32,750.91l-1.44,4.29,7.9,5.9,1.44-4.29-7.9-5.9ZM188.55,778.84l5.13-23.76c-5.17,3.45-7.61,10.68-8.21,18.16-1.47,2.44-2.41,3.3-1.53,3.67l4.6,1.93ZM326.17,759.63c-4.28,2.51-6.82,5.48-8.32,4.6l-6.19-3.6c-.4,1.93,1.93,8.17,3.91,11.53,1.36,2.3,6.12.64,7.38-1.94,1.76-3.6,3.35-8.74,3.22-10.59ZM409.21,764v2.6c-1.56.61-3.41,4.74-3.66,7.12s3.72,6.67,5.34,6.5l6.31-.65c1.63-.17,1.48-6.85,1.62-11.08.13-3.72-1.79-9.76-4.09-10.38-2.46-.66-8.95,1.52-5.51,5.88ZM763.33,759.75c0-.74-.4-1.34-.9-1.34s-.9.6-.9,1.34.4,1.34.9,1.34.9-.6.9-1.34ZM804.85,761.46c0-1.45-.79-2.62-1.76-2.62s-1.76,1.17-1.76,2.62.79,2.62,1.76,2.62,1.76-1.17,1.76-2.62ZM847.4,769.13h2.14c-.76,3.42,2.77,9.95,5.14,10.73s7.39-2.22,8.6-5.35c1.21-3.13.21-11.48-1.72-13.99-2.09-2.7-7.55-1.77-10.21.57l-4.57-.07c-1-.02-2.16,2.45-2.39,3.75-1.28.26-2.39-2.93-4.39-5.99-.66-1.01-3.1,1.58-3.16,3.11l-.28,6.99-6.33-11.48,3.48,22.98c2.83-.26,4.96-5.93,5.89-10.81.31,1.41,3.21,9.06,4.24,6.92l3.56-7.37ZM874.69,759.75c0-.74-.4-1.34-.9-1.34s-.9.6-.9,1.34.4,1.34.9,1.34.9-.6.9-1.34ZM896.29,777.45l4.42,2.34c1.2-8.1,2.03-12.96,3.42-18.19l-5.06-2.3c-1.01-.46-2.29,3.1-2.82,4.47v-2.68c0-1.05-1.1-2.58-1.8-2.68-2.57-.37-7.82.23-9.77,2.54-2.23,2.65-1.03,13.93,1.18,16.65s7.66,2.32,10.43-.15ZM909.95,759.75c0-.94-.51-1.7-1.14-1.7s-1.14.76-1.14,1.7.51,1.7,1.14,1.7,1.14-.76,1.14-1.7ZM941.14,777.63l7.84,2.67-2.52-24.12-5.32,15.63-1.15-11.72c-.22-2.22-5.37-1.99-6.76-1.21-4.41,2.5-2.7,21.85-.05,21.07l7.96-2.33ZM997.46,778.73l4.75,1.12c4.49,3.17,1.25-26.4,7.01-15.94.07,5.37.53,12.62,1.97,15.94,2.84-2.26,3.13-11.14,2.08-16.84-.78-4.28-7.61-4.79-11.06-4.6l-3.59,2.68c-2.7-2.39-8.41-3.66-10.5-.64-2.34,3.37-2.61,13.2-.44,16.04,2.36,3.09,6.93,3.41,9.78,2.25ZM813.04,766.44c-1.02-5.36-3.76-6.35-6.71-4.17l6.71,4.17ZM919.79,763.77c0-1.65-.9-2.98-2-2.98s-2,1.34-2,2.98.9,2.98,2,2.98,2-1.34,2-2.98ZM714.59,769.07c0-3.16-1.72-5.72-3.84-5.72s-3.84,2.56-3.84,5.72,1.72,5.72,3.84,5.72,3.84-2.56,3.84-5.72ZM814.06,771.93l-9.28,4.67-3.23-11.11c-2,1.11-5.09,3.17-4.3,4.35l2.71,4.08c1.76,2.64,5.11,6.59,7.16,6.25,2.76-.46,6.35-4.33,6.94-8.24ZM600.05,775.57c.88-.92,1.97-6.98.92-6.63-1.68.57-4.03,1.37-4.81,2.44l-3.21,4.44c-.66.91,2.01,5.03,2.76,4.25l4.34-4.5ZM605.28,771.81c-.3.14-2.2.87-1.79,1.38l3.86,4.72c-.2,2.7.54.43,1.52-3.42l-.87-5.6c-.22-1.38-2.88,2.68-2.72,2.92ZM192.41,775.21c.17,1.55.66,4.9,1.24,3.89l2.04-3.55c.38-.67-3.37-1.24-3.27-.34ZM877.08,776.71c-.94.39,1.9,4.86,2.48,3.71l2.5-4.94c.39-.78-2.96.39-4.98,1.22ZM508.92,776.93l-2.54,6.31,5.28,4.73,2.54-6.31-5.28-4.73ZM634.26,785.21c0-.94-.51-1.7-1.14-1.7s-1.14.76-1.14,1.7.51,1.7,1.14,1.7,1.14-.76,1.14-1.7ZM630.42,786.55c0-.74-.4-1.34-.9-1.34s-.9.6-.9,1.34.4,1.34.9,1.34.9-.6.9-1.34ZM102.45,809.37c-.45.31-2.25.31-2.74.11-9.45-4.05,18.4,24.61,32.5,24.61l1568.92-.03c12.2,0,23.05-14.42,32.12-21.4-.93-3.38-1.56-5.55-1.83-6.04-3.92,1.23-8.11,5.21-8.99,10.75-6.89,2.23-14.54,7.1-21.55,7.1l-1569.77.13c-5.51,0-16.16-5.02-21.29-7.67-.88-4.59-5.05-9.14-7.37-7.57ZM1272.5,876.09c-1.26,4.95-.78,10.51,1.28,14.81,2.07,4.3,5.44,6.78,8.99,6.59,3.87-.21,7.35-3.55,9.08-8.72,1.73-5.17,1.43-11.34-.78-16.08-2.24-4.8-6.08-7.36-9.97-6.65-3.89.71-7.2,4.58-8.6,10.05ZM1322.35,889.73c1.1.38,1.73,1.21,1.87.22l1.22-8.72c.57-5.66,1.04-5.86,1.82,0l.23,9.89c.05,2.35,5.06,1.02,6.84.7l-3.09-6.75c-.71-1.55.89-5.42,1.34-7.98.36-2.09-1.98-6.71-2.89-7.6l-7.45,7.11-7.1-9.77-5.23,14.83-1.45-8.29c-.41-2.36-5.34-7.01-6.2-4.66-2.38,6.52-2.15,17.25-1.46,24.77l5.96-4.6c1.19,1.35,2.54,3.52,3.26,2.86l3.52-3.25c1.04.77,2.81,3.93,3.98,3.56s3.63-1.67,4.82-2.31ZM1354.16,874.61c-1.27-7.3-9.65-7.86-12.59-2.49-2.71,4.95-2.18,14.53,1.69,18.82,2.73,3.02,11.01,1.13,10.24-4.51-4.06.15-7.82.15-9.34-1.81s.04-10.98,2.05-10.78l7.96.78ZM1454.82,887.05c5.07,5.31,11.59,7.67,16.21,1.1l-4.49-.02c-.86,0-2.54-2.15-2.97-2.87l6.25-1.27c1.08-.22,1.53-4.35,1.24-5.91s-2.73-4.64-3.81-4.41l-12.43,2.66c-1.06.23-2.75,3.42-3.26,2.01l-3.68-10.07c-4.42-1.63-2.55,20.66-.94,20.68l3.99.04c.68,0,3.06,2.01,3.13,2.17.06.12.74-3.96.76-4.11ZM1561.81,893.6l-.7-24.14-23.39-.13-.03,24.84,24.12-.58ZM1589.19,876.09l5.8,4.42-6.72,3.43-1.89-18.35c-3.92,7.34-5.22,10.54-7.08,15.72-1.14-7.09-4.11-13.4-9.44-13.62l.12,25.79c4.12-3.04,5.51-4.87,6.65-4.15s4.22,4.46,4.56,3.07l1.95-7.88c.67,2.01,1.55,6.71,2.97,6.83l5.51.46,5.93.49c1.16.1,2.46-20.54-1.19-19.08l-7.18,2.87ZM1391.07,887.58c2.57,2.16,4.07,3.93,4.12,2.72l.28-5.98c.07-1.44.36-8.02-.5-7.46-10.36,6.73-3.05-8.52-19.15-.38-4.24.61-4.17,1.2-.78,3.3,1.39,5.25,4.39,13.25,6.94,12.63,2.26-.54,6.42-3.2,9.09-4.83ZM1413.65,886.32c5.28-2.65,8.02-3.96,8.84-5.28-2.47-6.78-8.33-9.74-11.03-5.93-2.1,2.97-2.33,13.67,0,16.22,2.47,2.7,9.41.63,9.27-3.32l-7.09-1.68ZM1498.11,879.44l5.03,14.95c3.04-7.27,2.61-15.15.14-20.2-8.52-.83-16.86-.23-24.94,1.78l3.17,16.32,16.26-.29.34-12.56ZM1627.32,877.29l-4.5-5.02-1.88,15.1-1.56-13.07c-4.9,1.83-9.32,2.74-12.79,3.02l3.43,13.48,16.57,1.04c4.7.29,9.94-.87,13.4-2.65l-7.8-3.18,7.46-3.24c1.47-.64.03-7.53-1.42-8.21-9.01-4.2-8.54,5.37-10.91,2.73ZM1689.99,887.39c.74,2.24,3.14,6.03,4.79,5.61,7.03-1.81,10.47-12.01,9.71-12.57l-4.21-3.18-5.72-4.33c-1.22-.92-3.48,3.12-4.45,6.09l-7.12-4.62v17.27s7.01-4.27,7.01-4.27ZM1728.47,878.68l2.71,12.7c1.59-3.86,3.25-10.54,3.31-14.38l-13.18-.64c-2.67-.13-8.36-3.89-10.72-.34-1.88,2.84-1.2,11.13.39,14.34,1.76,3.56,10.5,2.5,9.69-1.8l-7.3-3.05c.95-.69,5.97-2.19,7.16-.37l6.13,9.3,1.8-15.76Z"/>
  <path class="st22" d="M1692.96,680.66c24.03-.02,41.55,27.81,42.01,60.43.47,33.58-17.52,62.85-41.24,62.86h-111.42c-23.14.01-40.82-27.9-41.26-60.31-.45-33.71,17.51-62.87,41.24-62.89l110.66-.09ZM1602.49,756.85l-9-4.69,9.47-26.08-18.11,1.41,9.55,5-8.74,25.16c7.2.63,10.43.62,16.83-.8ZM1613.39,750.79c.27,2.52,2.3,8.99,3.83,7.87l4.54-3.29c-2.26-3.82-4.74-6.83-4.15-8.94l2.16-7.83c.53-1.92-.38-5.4-1.06-7.18-.55-1.43-4.16-2.9-4.93-1.85l-4.51,6.16c-.9,1.23-3.11-.32-5.45-1.12l.32,24.46c9.37-2.41,5.64-9.83,7.99-19.93l1.26,11.66ZM1665.06,758.78c2.74-.49,6.26-3.74,8.22-6.73-5.97-.44-8.34-.43-11.02-1.73l11.71-4.91c-1.22-4.68-4.1-12.08-6.31-11.21l-9.03,3.54c-2.33-1.15-6.74-3.09-8.87-3.49-1.78-.33-2.74,7.6-3.48,10.51-1.19-5.21-3.57-10.73-7.33-10.86-3.4-.12-7.54,4.41-8.96,7.16-1.28-2.31-4.26-6.31-6.04-7.53l-.08,25.39c1.95-.7,4.78-4.25,6.23-7.13.84,2.64,4.71,6.45,8.55,7.12,2.21.39,6.11-4.1,5.61-7.73l-6.9,1.64c-.96.23-2.12-2.6-3.28-5.2l12.79.76,1.37,9.18c.22,1.46,3.36.79,3.5-.67l.62-6.67c.32-3.39.87-7.71,1.23-10.17,3.52-24.19,1.69,20.49,11.46,18.73ZM1685.46,758.48c.76-.24,4.32-.48,4.29-1.64l-.51-21.15-13.1-1.25c-.53,10.47-1.16,17.94,2.3,25.73l3.69-21.66c5.32.71.73,20.77,3.32,19.97Z"/>
  <path class="st1" d="M102.45,809.37c1.93,2.16,5.26,6.48,7.37,7.57,5.13,2.64,15.78,7.67,21.29,7.67l2.39,3.48h1564.98s2.39-3.62,2.39-3.62c7.01,0,14.66-4.87,21.55-7.1l8.99-10.75c.28.5.91,2.66,1.83,6.04-9.08,6.98-19.92,21.4-32.12,21.4l-1568.92.03c-14.11,0-41.95-28.66-32.5-24.61.48.21,2.28.2,2.74-.11Z"/>
  <polygon class="st3" points="1700.88 824.47 1698.49 828.09 133.51 828.09 131.11 824.61 1700.88 824.47"/>
  <rect class="st3" x="134.71" y="656.58" width="1562.58" height="2.68"/>
  <path class="st10" d="M656.98,396.7l-16.92-1.56c-11.52,5.46-23.44,6.74-34.41-5.55-16-17.91-16.26-59.21.04-76.93,14.43-15.69,32.25-11.98,43.01,4.4,11.22,17.07,12.11,44.62,2,65,1.1,3.35,2.65,6.67,6.29,14.65ZM621.81,357.14c10.04-5.22,14.67-1.41,19.83,13.26,1.45-3.83,2.97-10.6,3.46-16.47,1.48-17.67-6.35-33.05-17.3-34.79-11.06-1.76-20.81,8.92-22.29,27.37-.83,10.33,1.98,24.46,6.95,29.8,6.31,6.79,12.69,8.96,21.45,4.36l-12.1-23.53Z"/>
  <path class="st7" d="M1057.03,425.12c-11.78,2.59-22.01-.48-28.58-16.08,16.71-12.51,16.83,10.23,26.89,2.02,4.72-3.86,6.84-14.77,5.28-21.36-9.52,10.74-22.04,7.2-28.89-3.92-7.61-12.37-8.14-31.02-1.91-43.4,6.97-13.84,19.99-16.05,30.4-8.98l13.9-1.2-.22,67.06c-.04,13.43-7.93,23.9-16.88,25.87ZM1062.01,363.09c0-9.86-5.36-17.85-11.97-17.85s-11.97,7.99-11.97,17.85,5.36,17.85,11.97,17.85,11.97-7.99,11.97-17.85Z"/>
  <path class="st10" d="M1264.11,249.15l-25.93-.09-5.16,18.78-13.81-.02,22.7-89.9,17.38-1,23.1,90.92-14.09.14-4.19-18.83ZM1260.72,233.08l-10.07-38.99-9.96,39.03,20.03-.04Z"/>
  <path class="st10" d="M1383.46,267.84l-5.22-18.74-26.12.39c-1.71,7.07-2.92,13.08-4.41,16.21s-7.91,2.29-13.49,1.71l22.5-90.39,17.07-.07,23.12,90.68-13.44.2ZM1375.13,232.48l-9.68-38.34-10,38.61,19.68-.27Z"/>
  <polygon class="st10" points="443.65 230.33 414.99 230.24 414.88 251.97 446.62 251.82 447.27 267.96 402.3 268.01 402.31 176.86 447.14 176.88 447.22 192.95 414.89 192.94 414.9 214.43 443.56 214.36 443.65 230.33"/>
  <path class="st27" d="M767.37,265.72c-7.36,4.69-15.94,7.31-23.72.86-6.71-5.56-11.15-17.13-11.07-30.95.07-11.36,4.07-25.45,9.5-29.69,8.56-6.68,16.36-6.9,26,1.13l.97-32.45,12.25-.41-.04,94.03-13.9-2.52ZM768.8,235.1c-.47-13.97-6.63-20.2-13.59-18.72-7.21,1.52-10.83,10.34-10.17,22.4.63,11.5,6.52,17.51,13.95,16.63,5.29-.63,10.16-9.75,9.81-20.31Z"/>
  <path class="st17" d="M1180.15,337.47c10.15,14.65,9.64,41.48-.69,55.03-7.83,10.27-18.11,6.51-26.3,2.68l-14.45,1.59-.02-93.88,12.25.33.55,32.5c9.35-7.39,20.87-9.49,28.66,1.75ZM1157.21,381.91c6,5.17,13.2,1.16,16.41-6.69,2.93-7.16,2.54-16.48-.81-23.28s-10.39-9.43-15.52-4.97c-8.43,7.32-8.34,27.84-.08,34.95Z"/>
  <path class="st28" d="M1300.42,241.35l-.09,26.79-12.52-.78v-90.28s29.02-.26,29.02-.26c11.24-.1,20.45,15,21.19,31.04.7,15.18-8.41,31.76-19.6,32.42l-18,1.07ZM1317.53,224.26c6.51-.47,9.2-11.8,8.11-19.29-.77-5.28-6.09-12.2-10.3-12.16l-15.01.12.03,32.57,17.17-1.25Z"/>
  <path class="st10" d="M966.32,396.63l-15.75-.79c-8.06,3.77-15.73,4.75-23.19-1.29-7.37-5.97-10.33-18.83-9.9-33.07.34-11.31,4.18-22.92,9.82-27.26,7.94-6.1,15.2-4.47,23.31-1.19l15.66-.79.04,64.39ZM951.27,377.4c4.39-9.91,3.44-24.9-3.48-30.32-6.85-5.38-14.26-1.1-17.48,8.21-2.64,7.62-1.49,18.59,3.35,24.68,4.97,6.25,13.93,5.73,17.61-2.57Z"/>
  <path class="st27" d="M1129.76,396.75l-14.54-1.43c-7.68,3.54-15.54,6.04-23.07-.05-6.7-5.41-11.22-17.15-11.13-30.99.08-11.5,4.08-25.36,9.53-29.83,8.01-6.57,15.84-5.18,23.84-.96l15.32-1.38.05,64.64ZM1117.24,363.73c-.47-13.97-6.63-20.2-13.59-18.72-7.21,1.52-10.83,10.34-10.17,22.4.63,11.49,6.52,17.51,13.95,16.63,5.29-.63,10.16-9.75,9.81-20.31Z"/>
  <path class="st28" d="M1000.63,241.38c1.39,4.88,4.24,11.45,7.05,13.57,4.02,3.03,10.61-1.18,14.23-5.98,3.16-.61,9.43,2.02,12.6,3.82-5.91,11.88-12.75,17.45-20.69,17.91-8.49.49-17.82-4.26-22.25-15.48-5.11-12.95-4.76-26.91.16-39.18,8.72-21.72,32.6-16.79,38.54-3.98,3.71,8,4.82,19,4.28,29.02l-33.93.3ZM1022.77,230.32c-1.37-12.91-7.05-14.51-12.14-14.67-5.68-.18-9.29,5.36-10.47,14.76l22.61-.08Z"/>
  <path class="st28" d="M1162.28,241.38c1.39,4.88,4.21,11.42,7.18,13.67,3.59,2.71,10.48-1.27,14.11-6.08,3.14-.63,9.43,2.02,12.59,3.82-5.91,11.87-12.75,17.45-20.68,17.9-8.49.48-17.82-4.25-22.25-15.48-5.11-12.95-4.76-26.91.16-39.18,8.75-21.81,32.66-16.64,38.5-4.09,3.89,8.36,4.83,18.99,4.32,29.13l-33.92.3ZM1184.42,230.32c-1.36-12.92-7.04-14.51-12.14-14.67-5.68-.18-9.29,5.36-10.47,14.75l22.61-.08Z"/>
  <path class="st10" d="M583.3,255.43c14.22,6.4,10.55-17.27,26.1-1.63-8.46,20.27-28.57,22.85-39.89,6.35-7.96-11.59-7.25-30.55-2.09-44.38,5.01-13.4,17.34-17.66,28.4-12.93,9.75,4.17,15.57,21.18,14.83,38.25l-34.62.31c1.48,6.35,4.27,12.69,7.27,14.04ZM598.45,230.12c-1.98-12.25-6.54-15.24-11.83-14.47s-10.61,4.99-10.39,14.8l22.22-.33Z"/>
  <path class="st10" d="M681.67,255.98c14.25,2.34,9.63-16.87,24.2-2.21-8.14,20.49-28.88,23.04-39.67,6.38-8.17-12.63-7.67-38.08.72-49.98,9.83-13.94,27.46-12.3,35.71,3.53,3.61,6.94,4.53,18.56,5.33,27.21l-35.44.75c2.22,9.4,5.51,13.73,9.16,14.32ZM695.45,230.55c-1.97-13.19-6.11-15.09-12.23-14.98-4.7.09-8.27,5.15-11.45,14.51l23.68.47Z"/>
  <path class="st10" d="M807.72,255.41c14.56,6.35,10.52-17.23,26.19-1.61-8.46,20.27-28.57,22.85-39.89,6.35-7.96-11.59-7.25-30.55-2.09-44.38,5.01-13.4,17.34-17.66,28.4-12.93,9.75,4.17,15.57,21.18,14.83,38.25l-34.61.31c1.47,6.34,4.26,12.75,7.17,14.02ZM822.96,230.12c-1.98-12.25-6.54-15.24-11.83-14.47-5.47.79-10.61,4.99-10.39,14.8l22.22-.33Z"/>
  <path class="st10" d="M935.21,255.4c14.69,6.34,10.49-17.22,26.23-1.59-8.46,20.27-28.57,22.84-39.89,6.35-7.96-11.59-7.25-30.55-2.09-44.38,5.01-13.4,17.34-17.66,28.4-12.93,9.75,4.17,15.57,21.17,14.83,38.25l-34.62.3c1.5,6.35,4.24,12.75,7.14,14.01ZM950.48,230.12c-1.98-12.25-6.54-15.24-11.83-14.47-5.47.79-10.61,4.99-10.39,14.8l22.22-.33Z"/>
  <path class="st10" d="M1211.81,384.04c14.61,6.36,10.53-17.23,26.22-1.6-8.46,20.27-28.57,22.84-39.89,6.35-7.96-11.59-7.25-30.55-2.09-44.38s17.34-17.66,28.4-12.93c9.75,4.17,15.57,21.17,14.83,38.25l-34.62.3c1.48,6.34,4.25,12.75,7.15,14.01ZM1227.07,358.75c-1.98-12.25-6.54-15.24-11.83-14.47-5.47.79-10.61,4.99-10.39,14.8l22.22-.33Z"/>
  <path class="st10" d="M846.8,375.92l11.93,5.26c-5.38,9.9-12.01,17.36-19.23,18.06-8.92.87-18.35-3.17-23.46-14.29-6.2-13.52-5.32-33.56,2.55-45.28,8.56-12.75,23.58-13.55,32.98-2.6,6.52,7.6,7.79,21,6.88,32.61l-34.16.36c2.51,6.57,5.5,12.73,8.61,14.17,4.42,2.05,10-1.4,13.89-8.29ZM847.37,359.18c-1.39-7.87-5.91-15.41-11.4-15.06-5.19.34-9.95,6.56-12.01,14.45l23.4.61Z"/>
  <path class="st10" d="M737.35,384.62c14.26,2.32,9.65-16.87,24.19-2.2-8.13,20.48-28.88,23.03-39.67,6.37-8.17-12.62-7.67-38.08.72-49.98,9.83-13.94,27.46-12.3,35.71,3.53,3.61,6.94,4.53,18.56,5.33,27.21l-35.44.75c2.22,9.39,5.52,13.73,9.16,14.32ZM751.13,359.18c-1.97-13.19-6.11-15.09-12.23-14.98-4.7.09-8.27,5.15-11.45,14.51l23.68.47Z"/>
  <path class="st10" d="M695.19,332.41l14.28-.06-.03,64.19c-20.7-3.84-23.59,6.65-35.03.97-4.03-2-9.49-11.45-9.58-19.53l-.46-45.66,12.64.19.33,39.87c.03,4.23,5.51,10.18,8.11,11.05,2.93.98,9.34-6.23,9.38-11.19l.36-39.84Z"/>
  <path class="st12" d="M889.82,345.6c-13.75-2.6-11.87,34.48-11.78,49.86l-12.34,1.34v-64.81c5.38.5,9.78,1.51,14.23,3.39,6.65-5.93,17.68-9.87,24.97.57,4.08,5.85,5.89,19.33,5.84,27.94l-.18,32.83-12.24-.62-.72-38.76c-.08-4.4-5.11-11.24-7.79-11.75Z"/>
  <path class="st18" d="M988.5,358.23l-.8,38.22-12.45.03.04-62.8c3.48-2.96,10.18-1.17,13.97,2.59,7.08-8.85,22.46-10.67,27.25,3.96,5.45,16.64,3.3,34.95,3.7,55.62l-12.14.54-.97-39.48c-.13-5.25-6.29-11.86-9.38-11.65s-9.09,7.14-9.21,12.97Z"/>
  <path class="st26" d="M896.34,231.13c.03-6.82-4.33-13.4-8.24-14.21-3.07-.64-9.26,6.03-9.36,11.36l-.7,39.81-12.31-.66.02-63.45,16.19.15c8.83-5.91,24.01-3.84,25.96,14.25,1.67,15.58.77,32.64.97,49.45l-12.69.2.16-36.89Z"/>
  <path class="st26" d="M1110.28,260.5c-10.6,16.89-29.85,12.11-38.4-5.86.5-3.26,4.88-7.79,6.91-7.9,8.31-.45,3.62,8.5,15.85,10.49,2.25.37,5.25-6.73,4.51-10.81l-22.19-12.71c-3.12-1.79-3.79-14.59-2.7-19.68s5.99-10.36,10.67-11.95c10.43-3.56,21.68,1.55,26.38,13.82-14.83,17.39-12.82-7.58-23.11-.66-1.39.94-2.09,8.54-.63,9.23l20.38,9.68c5.01,2.38,5.51,21.26,2.33,26.33Z"/>
  <path class="st26" d="M519.63,266.68c-14.37,9.38-29.73,1.71-34.56-16.15,18.01-12.08,11.64,8.2,23.97,6.62,1.69-.22,3.74-4.08,5.76-9.6-9.93-9.49-23.68-6.89-27.56-22.26-1.39-5.51,1.62-14.54,5.31-18.43,9.8-10.32,25.04-7.44,32.52,8.07-.45,5.12-8.91,7.71-11.48,5.39l-6.71-6.06c-1.72-1.56-4.99,3.21-7.98,7.69,7.25,8.01,25.96,7.94,27.44,23.32.81,8.41-1.45,17.97-6.72,21.41Z"/>
  <path class="st17" d="M548.94,219.72c-1.31.18-3.73,28.08,2.41,34.69,1.18,1.26,6.79-.09,7.37,1.81l3.35,11.04c-5.39,3.32-15.22,5.91-20.78-.6-9.18-10.77-4.33-31.17-6.74-45.74-2.73-2.25-6.24-5.22-6.9-8.13-1.17-5.16,2.39-11.31,7.44-9.55l.2-21.02,12.28.65.21,20.62,14.21.42.07,11.56c.02,2.74-4.3,3.03-6.92,3.39l-6.2.87Z"/>
  <path class="st10" d="M1134.92,219.16l.69,35.8,8.94.12c1.84.02,2.4,7.38,2.79,11.3-5.49,5.67-20.42,8.18-23.4-5.26-2.53-11.36-.76-28.65-1.75-39.87-3.51-2.25-6.99-4.86-7.3-8.33-.4-4.51,2.81-10.25,7.39-10.52l.7-19.5,12.13-.78.02,21.52,12.55.06v15.63s-12.75-.18-12.75-.18Z"/>
  <rect class="st9" x="617.85" y="174.19" width="12.57" height="93.8"/>
  <path class="st9" d="M469.1,232.09l-.5,35.9-12.49-.16.25-64.51c11,1.3,15.57.45,26.37-2.83l.31,16.73c-6.92-1.89-13.78,3.17-13.94,14.87Z"/>
  <rect class="st18" x="641.2" y="174.19" width="10.66" height="93.8"/>
  <rect class="st15" x="770.54" y="302.83" width="10.75" height="93.8"/>
  <rect class="st4" x="793.86" y="302.83" width="10.9" height="93.8"/>
  <path class="st18" d="M1043.62,268.3l-.09-64.8c4.1.5,9.24,2.2,12.34,3.59,2.36-2.26,10.54-8.92,11.88-4.29.77,2.63,1.03,9.98.57,12.12-.57,2.66-6.13,1.92-7.67,3.77-15.14,18.16,4.12,57.44-17.04,49.62Z"/>
  <rect class="st9" x="842.36" y="203.67" width="12.57" height="64.32"/>
  <path class="st6" d="M1561.81,893.6l-24.12.58.03-24.84,23.39.13.7,24.14ZM1554.74,874.99c0-.94-.51-1.7-1.14-1.7s-1.14.76-1.14,1.7.51,1.7,1.14,1.7,1.14-.76,1.14-1.7ZM1550.01,877.67c0-.74-.4-1.34-.9-1.34s-.9.6-.9,1.34.4,1.34.9,1.34.9-.6.9-1.34ZM1558.18,881.05c1.43-1.87.15-.19-3.68,4.83-1.21-2.68.76,1.62,1.27,2.78.31.7,1.06.5,1.21-.38l1.2-7.23ZM1551.81,883.03c0-.74-.4-1.34-.9-1.34s-.9.6-.9,1.34.4,1.34.9,1.34.9-.6.9-1.34Z"/>
  <path class="st1" d="M575.1,779.77c.62.22,1.37,4.8.79,5.19l-3.77,2.53c-.88.59-.9-7.9-1.83-7.97-21.01-1.5-14.39,5.04-23.24-8.78l-6.08,10.51-.36-31.4,5.67,7.47c1.34,1.76,4.49-3.11,6.6-6.02.49.22,2.4,3.59,3.23,2.88l5.64-4.84.66,25.97,12.69,4.45Z"/>
  <path class="st6" d="M1589.19,876.09l7.18-2.87c3.65-1.46,2.35,19.17,1.19,19.08l-5.93-.49-5.51-.46c-1.42-.12-2.3-4.82-2.97-6.83l-1.95,7.88c-.34,1.39-3.47-2.39-4.56-3.07s-2.53,1.11-6.65,4.15l-.12-25.79c5.33.22,8.31,6.53,9.44,13.62,1.85-5.18,3.15-8.38,7.08-15.72l1.89,18.35,6.72-3.43-5.8-4.42Z"/>
  <path class="st25" d="M1627.32,877.29c2.36,2.64,1.9-6.93,10.91-2.73,1.45.67,2.89,7.57,1.42,8.21l-7.46,3.24,7.8,3.18c-3.46,1.78-8.7,2.95-13.4,2.65l-16.57-1.04-3.43-13.48c3.47-.27,7.89-1.19,12.79-3.02l1.56,13.07,1.88-15.1,4.5,5.02Z"/>
  <path class="st1" d="M149.16,702.04l1.71,18.86-26.11,2.28,6.89-13.05c1.25-2.36-4.27-7.26-5.52-9.04,14.23,5.89,9.06-6.34,23.03.96Z"/>
  <path class="st23" d="M1485.51,504.31c.06.78-3.17,2.62-3.77,1.16l-2.78-6.76-2.72,6.63c-.73,1.79-4.87.84-4.79.36,3.53-9.14,3.21-15.53,1.12-24.36.43-.33,2.53-.26,3.11.67l2.66,4.27c8.95-13.9,5.91.97,14.51-12.7l6.43,7.59c-1.72,1.29-5.8,6.95-5.36,10.51.53,4.32,2.64,8.95,5.32,14.28l-5.95.39c-5.02.33.14-24.66-5.58-23.73-2.26.37-6.45,6.85-5.68,9.52l3.49,12.17Z"/>
  <path class="st6" d="M486.55,516.73c-2.1-7.39-1.37-9.55,1.91-5.72l4.64,1.87c1.15.46,2.85-5.15,2.38-5.19-4.31-1.55-8.83-2.79-10.88-5.15s-.99-12.65-.23-17.43c.96-6.06,12.81-8.58,14.75-3.24,2.7,7.41,2.74,20.29,1.14,29.52-.96,5.55-9.79,6.71-13.71,5.35ZM496.12,498.04c.14-4.49-1.7-14.72-3.54-14.24-2.57.66-6.69,5.24-6.21,8,.52,3.02,2.09,7.77,3.37,9.88,1.02,1.68,6.32-1.43,6.39-3.64Z"/>
  <path class="st25" d="M1322.23,876.6l.11,13.13c-1.19.64-3.65,1.93-4.82,2.31s-2.95-2.78-3.98-3.56l-3.52,3.25c-.71.66-2.07-1.51-3.26-2.86l-5.96,4.6c-.69-7.52-.92-18.25,1.46-24.77.86-2.35,5.78,2.3,6.2,4.66l1.45,8.29,5.23-14.83,7.1,9.77Z"/>
  <path class="st6" d="M1302.1,508.9c0,4.02-5.73,9.08-8.18,8.83-2.93-.3-7.07-3.79-8.29-7.39,5.35,1.15,9.11,3.02,12.04-.93-5.66-3.26-10.52-4.34-12.37-8.54-2.07-4.71-1.02-15.76,2.69-19.22,2.82-2.63,9.56-2.04,14.16-1.83l-.04,29.08ZM1291.42,501.13c2.54,2.67,7.06-2.79,7.28-6.71s-2.63-10.84-4.89-10.14c-4.59,1.42-6.5,12.53-2.39,16.84Z"/>
  <path class="st6" d="M1070.46,487.74l-.12-5.45c1.18-1.15,3.42-2.91,3.89-1.51l3.19,9.54,4.24-10.8c1.11.27,3.87,1.32,4.1,2.95l1.56,10.6c1.76-6.4,3.7-12.61,8.29-14l-3.82,21.51c-.27,1.54-1.96,4.82-2.69,5.82-.97,1.33-3.37-3.2-4.03-5.16l-3.01-9.03-1.19,9.59c-.27,2.19-2.9,4.04-4.78,4.97l-5.64-19.01Z"/>
  <path class="st25" d="M1498.11,879.44l-.34,12.56-16.26.29-3.17-16.32c8.09-2.01,16.43-2.62,24.94-1.78,2.47,5.05,2.9,12.92-.14,20.2l-5.03-14.95ZM1492.51,886.22c-4.33-.65-6.39-.81-7.24-.55l7.24.55Z"/>
  <rect class="st12" x="1399.14" y="222.12" width="30.53" height="13.72"/>
  <path class="st1" d="M739.98,763.77c-.83,4.44-.73,9.72,0,14.62-1.49.09-5.03,2.8-6.06,1.04l-5.24-8.95-2.12,7.47c-2.04-1.19-3.51-2.53-4.47-1.71l-4.85,4.15-.38-21.08,10.36,1.94,1.21,6c.2.99,2.56-1.25,2.72-2.26l.82-5.14,1.42-8.8c.19-1.21,3.28,1.28,3.55.57l3.04,12.16Z"/>
  <path class="st6" d="M334.4,501.92c2.69.87,7.69-2.78,7.2-4.86-.62-2.6-2.51-5.05-5.59-8.9l10.52-.45c1.65,12.4-4.77,19.57-11.63,19.04-6.86-.54-11.5-9.55-9.88-22.56.65-5.2,5.27-11.58,8.39-12.74,4.31-1.62,12.02,1.52,13.15,8.38,1.83,11.05-8.63-7.43-13.3-3.47-4.56,3.88-4.12,23.87,1.14,25.58Z"/>
  <path class="st3" d="M296.35,763.77l-10.94,4.17,3.76,1.19-2.53,10.8-4.11-5.62c-.65,3.19-1.32,9.75-2.75,10.25l-6.22,2.18c-1.02.36-3.66-.34-5.26-.98-.73-.29.17-1.77,1.11-3.24,2.58.83,7.12-.05,9.73-2.54-2.72-3.69-7.38-2.59-9.94-.14-.7-2.99-2.35-7.04-3.98-8.07-1.36-.86-9.91-.17-3.7,3.47l-4.68,1.93c.66-4.82,3.78-8.14,7.18-10.72l1.8-2.68h5.39c.87,3.21,2.16,7.32,1.27,2.76,3.68-4.16,4.9-5.54,6.85-7.05,1.46-1.13,2.65,4.11,4.72,8.9l1.64-8.91c-.05.3,10.69,1.05,10.66,4.3Z"/>
  <path class="st1" d="M971.06,760.47l.83,19.39c-4.97-.71-14.84-1.95-20.83-1.97l1.32-18.56,18.68,1.14Z"/>
  <path class="st1" d="M234.01,775.18c-4.85,10.95-17.75-6.09-27.53,1.43l4.33-19.23c.39-1.72,4.7-3.82,5.92-3.79,1.52.03,2.16,5.39,3.08,8.48l3.27,10.99c.76,2.55,6.82,1.47,8.17,1.14l1.25-16.23c3.98.16,3.52,12.67,1.51,17.2Z"/>
  <path class="st6" d="M1409.74,509.11l-2.3-23.64c-.54-.36-3.77-1.98-3.89-.82l-.84,8.45c-.66,6.58.88,11.1-5,15.05l-.34-27.27,20.94-.84c.84-.03,2.89,6.25,2.04,6.13l-5.44-.77-5.18,23.71Z"/>
  <path class="st5" d="M1133.56,495.66c-.76-2.66-2.82-6.79-1.98-8.24l2.43-4.18,7.23-6.08c2.01-1.69,7.03.75,8.52,3.38s2.69,13.56.55,14.84l-8.72,5.24-8.04-4.95Z"/>
  <path class="st6" d="M518.88,505.02c-.12,2.42-16.37,3.96-16.46-5.12-.04-4.18,3.15-8.55,5.76-9.17l4.5-1.06c.97-.23.32-5.26-.69-5.08l-7.5,1.36c1.67-6.38,5.91-7.13,9.79-5.74,3.05,1.09,5.37,9.22,5.09,14.92l-.48,9.89Z"/>
  <path class="st6" d="M639.22,505.01c-.13,2.52-16.36,3.94-16.46-5.12-.05-4.12,3.15-8.53,5.76-9.15l4.49-1.07c.99-.24.26-5.26-.65-5.1l-7.39,1.33c1.08-6.07,6.14-7.12,9.63-5.72,3.07,1.23,5.4,9.25,5.12,14.94l-.49,9.9Z"/>
  <path class="st6" d="M772.17,505.05c-.1,2.66-10.65,2.51-15.19-.99-1.3-1-1.83-8.21-.7-9.58,1.42-1.72,4.2-3.15,6.9-4.31l3.4-1.46c.74-.32.08-4.68-.68-4.45l-3.63,1.1-3.51,1.07c-.63.19-.86-.6-.69-1.6,1.15-6.86,9.28-5.28,11.76-2.85,1.87,1.84,2.83,9.71,2.71,13.15l-.37,9.92Z"/>
  <path class="st8" d="M186.27,708.27c.12,2.55.42,5.72-.68,6.04l-4.18,1.21-.4-3.89c-.1-.94-2.14-2.39-2.25-1.45l-.66,5.41-.94,7.82c-.11.87-1.58-2.26-2.07-2.73l-2.23-2.17-6.7,5.38c-1.53,1.23-4.9-2.51-6.58-3.13l.27-13.87c-3.71-2.66,29.77-.81,26.42,1.39Z"/>
  <path class="st25" d="M1133.56,495.66l8.04,4.95,8.72-5.24c2.14-1.29.94-12.22-.55-14.84s-6.52-5.07-8.52-3.38l-7.23,6.08c1.92-9.89,9.05-13.87,14.13-10.88,6.1,3.58,8.15,13.24,6.07,22.34l-3.31,14.46-13.29-4.47c-1.84-.62-3.32-6.41-4.06-9.01Z"/>
  <path class="st25" d="M1728.47,878.68l-1.8,15.76-6.13-9.3c-1.2-1.81-6.21-.31-7.16.37l7.3,3.05c.82,4.31-7.92,5.37-9.69,1.8-1.59-3.21-2.28-11.5-.39-14.34,2.36-3.55,8.05.21,10.72.34l13.18.64c-.06,3.83-1.72,10.51-3.31,14.38l-2.71-12.7Z"/>
  <path class="st23" d="M1335.55,505.29l-11.68.81-.04-35.7c10.7,14.15,15.86,8.38,17.04,21.6.34,3.78-2.77,13.11-5.31,13.29ZM1337.06,490.03c.22-2.98-5.23-7.56-6.59-5.66-1.09,1.52-2.75,6.12-3.33,8.99s2.99,8.9,4.93,9.34c2.65.6,4.31-3.65,4.99-12.68Z"/>
  <path class="st23" d="M1247.17,500.64c-3.95-7.79,7.94-10.41,11.4-12.4.89-.51-2.1-3.11-3.06-2.97l-7.29,1.06c1.82-8.44,9.81-9.34,13.55-4.26.96,5.44,1.04,15.91,1.05,23.93-5.39,1.02-12,1.82-15.65-5.37Z"/>
  <path class="st8" d="M605.28,720.89c1.2-2.88,2.5-3.48,3.88-3.98,1.49-.53,1.67-8.06,1.51-9.73l6.45-2.8c1.62-.7,4.44,3.97,6.38,6.6l4.77-12.5.21,25.23-5.69-6.49c-.83-.95-.96,1.62-2.2,6.72-5.04-.31-10.97-1.04-15.33-3.04Z"/>
  <path class="st25" d="M353.16,495.36c1.54,3.72,3.29,6.75,4.66,6.24l7.61-2.81c-.72,6.47-5.83,9.21-9.16,7.76-4.83-2.1-8.99-10.03-7.97-15.01,1.35-6.62,5.53-11.48,8.56-12.02,5.14-.92,11.12,4.92,9.49,13.48l-13.2,2.36Z"/>
  <path class="st25" d="M390.87,495.38c1.53,3.68,3.37,6.71,4.72,6.21l7.54-2.79c-.69,6.45-5.79,9.22-9.16,7.76-4.69-2.04-9-10.12-7.93-14.96,1.41-6.37,5.54-11.66,9.05-12.18,3.37-.5,10.84,4.96,8.95,13.59l-13.18,2.39Z"/>
  <path class="st13" d="M677.12,750.37v21.44c-.22,5.2-1.18,8.38-2.68,8.33l-7.82-.24-.4-29.48,10.91-.05Z"/>
  <path class="st6" d="M844.7,495.08c-1.91-.21-4.37-1.03-4.15-.02l1.52,7.16,9.31-3.72c-.54,8.75-6.83,9.2-11.7,7.36-3.5-1.32-5.16-10.38-4.72-16.93s5.76-9.84,11.23-9.66c2.26.08,5.4,4.95,5.59,7.84.28,4.31-3.93,8.31-7.08,7.96Z"/>
  <path class="st6" d="M1462.71,495.44c-2.26-.45-4.55-1.39-4.32-.4l1.6,7.04,9.32-3.43c-1.02,7.94-7.07,9.18-11.78,7.25-3.55-1.46-5.22-10.64-4.67-16.92.62-7.1,4.9-10.05,11.45-9.61,2.03.14,5.32,4.66,5.37,7.6.07,4.4-4.27,9.01-6.97,8.48Z"/>
  <path class="st6" d="M1114.35,495.52c-2.4-.54-4.62-1.49-4.4-.49.34,1.52,1.42,6.32,1.58,7.06l9.33-3.42c-1,7.91-7.17,9.22-11.77,7.23-3.48-1.5-5.44-10.91-4.83-16.81.75-7.23,5.09-10.15,11.63-9.75,1.98.12,5.28,4.79,5.37,7.68.12,4.01-4.46,9.05-6.9,8.51Z"/>
  <path class="st6" d="M436.45,495.15c-2.29-.17-5.67-1.09-5.45-.08l1.56,7.14,9.31-3.7c-.53,8.72-6.94,9.25-11.7,7.35-3.42-1.36-5.38-10.72-4.84-16.79.63-7.13,5.32-10.17,11.62-9.78,1.94.12,5.11,4.81,5.37,7.62.3,3.24-3.36,8.42-5.87,8.24Z"/>
  <path class="st6" d="M742.15,489.69c-.98,8.44-11.65,3.16-11.17,5.4l1.53,7.12,9.31-3.71c-.53,8.77-6.94,9.28-11.73,7.34-3.66-1.48-4.88-10.63-4.72-16.94.2-8.19,7.6-10.56,12.98-9.05,2.01.57,4.14,7.02,3.81,9.84Z"/>
  <path class="st6" d="M1304.99,501.6c-2.9-10.05,6.31-12.87,11.42-11.14-.53-1.71-1.81-5.64-2.77-5.46l-6.82,1.29c-2.67-8.43,12.15-9.18,12.19-3.27l.17,23.47c-4.27.59-12.89-.42-14.18-4.89Z"/>
  <path class="st25" d="M460.07,495.49c1.42,3.24,2.82,6.35,4.08,5.91l7.7-2.68c.4,5.76-6.07,9.13-9.31,7.9-5.77-2.19-7.76-9.68-6.2-19.29.89-5.49,5.85-8.79,9.74-7.89,3.65.84,6.81,7.35,6.57,13.22l-12.59,2.83Z"/>
  <path class="st25" d="M571.47,495.58c1.24,2.95,2.8,6.31,4.06,5.86l7.39-2.64c.87,4.69-4.95,8.82-7.74,8.18-4.61-1.05-8.36-7.69-8.21-12.65.24-7.67,2.98-13.84,6.86-14.58,5.44-1.03,9.34,1.47,10.71,12.57l-13.07,3.26Z"/>
  <path class="st25" d="M1011.51,495.63c1.26,2.93,2.77,6.18,4.04,5.76l7.71-2.56c.38,4.36-5.13,8.79-7.92,8.17-4.77-1.05-8.5-7.41-8.36-12.56.21-7.56,2.91-13.87,6.87-14.7,5.3-1.11,9.18,1.71,10.76,12.43l-13.12,3.46Z"/>
  <path class="st25" d="M1180.32,495.57c1.29,3.02,2.79,6.32,4.06,5.87l7.42-2.63c.85,4.67-4.99,8.84-7.8,8.18-4.4-1.04-8.51-7.8-8.31-12.61.32-7.63,3.14-13.86,6.98-14.6,5.42-1.05,9.35,1.43,10.72,12.57l-13.08,3.23Z"/>
  <path class="st25" d="M698.67,750.37v29.48c-3.96-.07-6.59-7.99-8.98-13.4-.62-1.41-1.88-3.57-3.33-6.11l-.27,19.51-3.95-.29,1.15-31.83c6.09,9.09,8.11,13.63,11.59,21.43l.29-18.47,3.5-.31Z"/>
  <path class="st25" d="M1347.37,495.57c1.26,2.99,2.78,6.32,4.02,5.87l7.43-2.65c.87,4.7-4.97,8.85-7.84,8.18-4.24-.98-8.57-7.87-8.39-12.84.25-6.72,3.38-13.74,7.09-14.41,5.41-.98,9.37,1.45,10.74,12.61l-13.06,3.24Z"/>
  <path class="st25" d="M1214.4,495.35c1.45,3.43,2.83,6.59,4.1,6.11l7.37-2.78c1.06,5.97-5.91,9.16-9.04,7.93-5.56-2.2-7.57-9.78-6.07-19.41.71-4.59,6.34-8.48,9.64-7.71,4.06.94,6.55,6.69,6.73,13.48l-12.73,2.39Z"/>
  <path class="st25" d="M887.58,495.56c1.26,3.01,2.74,6.33,4,5.88l7.48-2.65c.8,4.67-4.97,8.84-7.84,8.18-4.42-1.02-8.34-7.7-8.17-12.63.26-7.67,3-13.85,6.87-14.58,5.44-1.02,9.34,1.46,10.71,12.57l-13.06,3.23Z"/>
  <path class="st23" d="M1391.07,887.58c-2.67,1.63-6.83,4.28-9.09,4.83-2.55.61-5.55-7.38-6.94-12.63-3.39-2.1-3.46-2.68.78-3.3,16.1-8.14,8.79,7.11,19.15.38.87-.56.57,6.01.5,7.46l-.28,5.98c-.06,1.22-1.55-.55-4.12-2.72Z"/>
  <path class="st3" d="M432.85,707.49c.74,1.11,2.56,2.39,3.59,2.68.46.13,1.23,0,1.8,0l.88,8.59.92-8.59,7.18-5.36v18.76l-10.78-2.68c-.14-1.26-.73-6.78-1.05-5.07l-.69,3.78-.59,3.17-8.45-2.31c-.73-2.64-1.8-7.58-1.8-10.29,1.2-.81,2.75-1.93,3.59-.98l3.3,3.78.3-8.16,1.8,2.68Z"/>
  <path class="st1" d="M401.86,779.54l-8.1-13.14c-.5,6.47-.18,11.2-5.39,15.41l-.37-32.26c6.9,5.79,17.88,20.97,13.86,29.99Z"/>
  <path class="st9" d="M409.5,704.81c2.74-.45,6.72.81,8.98,2.68.03,1.04.74,6.1-.3,6.51l-6.93,2.7,7.23,4.2c-1.23,1.93-5.52,3.42-7.74,2.66-1.66-.56-2.92-5.48-3.04-8.02,2.85-1.65,1.19-4.95-1.26-6.48l-3.3,3.93c-.41.48-.58,2.14-.06,2.2l2.82.35-2.33,5.65c-.46,1.12-3.17-.75-4.62-1.31-.76-.29,1.19-3.32,1.56-4.33l-1.85-4.26c-.39-.89-.71-.08-1.74,1.58-1.45,1.02-3.47,2.89-3.54,1.39l-.3-6.75,16.41-2.68ZM415.34,711.94c-4.66-.68-4.93-.72-.78-.11,2.01.26,2.72.35.78.11Z"/>
  <path class="st20" d="M141.67,777.09c-8.16-3.77-9.89-2.15-16.42,1.92l4.74-8.74c-2.17-3.04-.84-16.86,2.56-18.8.81-.46,4.32,3.34,5.12,3.82s-1.45,2.87-2.54,4.33c4.35,1.65,7.39,10.07,6.55,17.47Z"/>
  <path class="st1" d="M434.04,760.47l.83,19.39-12.65-1.36c-3.01-.32-2.78-15.56-.01-16.82,4.02-.9,8.49-1.35,11.83-1.21Z"/>
  <path class="st1" d="M486.74,771.81c.48.67,1.4,1.93,1.8,2.68-1.61,3.25-5.25,4.67-8.05,3.46l-1.73-17.08c-.95,7.56-1.8,15.84-3.35,18.94-3.68-2.73-3.4-13.55-1.59-17.92,1.58-3.82,5.75-5.96,10.29-8.71.65,6.55,1.29,13.95,2.64,18.64Z"/>
  <path class="st23" d="M987.23,502c-1.33,5.41-9.91,5.75-12.22,2.84-.57-.72-2.41-4.55-1.69-4.87,1.08-.47,3.67-1.09,4.68-.38l3.7,2.61c.95.67,2.73-4.55,2.02-4.82-3.33-1.36-10.82-6.75-10.28-11.37,1.1-9.3,12.61-8.97,14.58-1.18l-10.19,1.82c4.67,6.64,11.57,6.56,9.4,15.35Z"/>
  <path class="st1" d="M815.42,718.21v-10.72l16.11-1.61,1.02,15.06c-6.38.38-11.83-.15-17.13-2.73Z"/>
  <path class="st3" d="M748.96,704.81c-.05,1.82,1.32,6.87,2.5,6.03l4.69-3.35c1.28-1.08,2.81-2.44,2.89-2.31,4.8,8.05-.16,15.67-.76,15.67l-7.52.04-1.8-2.68-3.07-8.3-.92,13.95c-2.4-2.85-5.57-7.96-7.34-5.16l-3.98,1.73c-.75.4-2.93-4.34-2.18-3.11,3.85-2.6,5.46-3.63,6.36-6.24l3.94-3.58c2.01-1.41,5.78-3.02,7.18-2.68Z"/>
  <path class="st3" d="M472.84,705.52c-.05.67-.14,1.66-.16,2.2-.62.07-3.01,2.59-2.58,3.85l2.26,6.64,1.87,2.67-8.85,1.6c1.05-8.41,2.36-11.13-.75-16.98l-1.77,17.45-6.68-2.06-1.99-1.12c-.42-.24-2.41,1.15-2.73.67-7.36-11.26,8.53.02,6.37-7.32l-1.66-5.63,3.07-1.95c.48-.3-.56-3.29-1.05-4.6-.52-1.41,3.67-2.23,4-.72l.86,3.97c3.36-.57,7.67-.51,9.76,1.33Z"/>
  <path class="st23" d="M849.54,769.13l1.8-8.04c2.66-2.34,8.12-3.27,10.21-.57,1.94,2.51,2.93,10.86,1.72,13.99-1.21,3.13-6.16,6.15-8.6,5.35s-5.9-7.31-5.14-10.73Z"/>
  <path class="st26" d="M848.55,194.07c-4.29.05-7.7-4.45-7.98-8.32-.41-5.61,2.9-11.26,7.26-12.03,3.97-.7,7.95,4.68,8.29,9.7.27,4.04-3.76,10.61-7.58,10.65Z"/>
  <path class="st9" d="M506.49,699.45l1.95,21.53c-3.96,1.6-7.4,2.36-10.93,2.59v-24.12h8.98Z"/>
  <path class="st13" d="M557.11,505.92l-17.6.41,9.88-20.57-9.34-5.18c6.3-.64,9.13-.62,15.98.15l-8.17,19.87,9.25,5.32Z"/>
  <path class="st23" d="M658.88,487.38c-5.21-1.05-8.6-2.4-10.63-1.31s-2.13,10.38-.83,12.95c1.52,2.99,6.09,1.32,11.03.21-.02,3.78-5.93,7.98-9.51,7.76-3.72-.23-7.34-7.15-7.88-12.95-.42-4.55,3.51-11.8,6.81-13.73,3.98-2.34,9.99,1.61,11.02,7.07Z"/>
  <path class="st23" d="M927.01,486.75c-6.13-.54-9-1.22-11.12-.63s-2.2,10.43-.85,12.94c1.57,2.92,6.03,1.28,11.03.18-.1,3.87-6.01,7.96-9.67,7.77-3.82-.2-6.82-7.87-7.44-13.43-.55-4.92,3.78-12.22,6.8-13.44,3.99-1.61,9.2,2.12,11.24,6.62Z"/>
  <path class="st1" d="M716.63,704.81l-1.8,5.36h-7.23c-1.27,1.38-1.87,8.87-2.16,12.96l-8.1-7.21c-1.86-1.65-5.4,4.9-7.38,7.58l-2.32-15.2,10.87-2.22.92,6.65c.11.8,2.12-3.5,2.66-3.65l14.54-4.26Z"/>
  <path class="st1" d="M157.1,779.31l1.94-11.33c2.23-1.43,6.67-4.31,8.53-5.77.56-.44-2.65-4.56-3.06-3.85l-3.69,6.4c-.77-.84-.23-8.5,1.07-9.13l6.03-2.9,6,26.67-8.63-5.63-8.19,5.54Z"/>
  <path class="st6" d="M1454.82,887.05v-10.72l12.43-2.66c1.08-.23,3.51,2.84,3.81,4.41s-.16,5.69-1.24,5.91l-6.25,1.27c.43.72,2.11,2.87,2.97,2.87l4.49.02c-4.63,6.57-11.15,4.21-16.21-1.1Z"/>
  <path class="st13" d="M499.31,771.81c-.55.18-3.46,1.12-3.39,1.11.03,0,1.52,1.91,1.93,2.41l1.46,1.83c-1.25,1.59-4.48,3.31-6.19,3.15s-3.5-3.75-4.59-5.83c-.39-.75-1.32-2.01-1.8-2.68.06-3.8,1.14-10.69,3.12-12.6s7.48-.44,9.8,2.12c1.62,1.79.64,7.33-.35,10.48Z"/>
  <path class="st23" d="M844.38,764.76c.53-.11,2.49-.96,2.57-.16l.45,4.53-3.56,7.37c-1.03,2.14-3.93-5.51-4.24-6.92-.93,4.88-3.07,10.54-5.89,10.81l-3.48-22.98,6.33,11.48.28-6.99c.06-1.53,2.5-4.12,3.16-3.11,2,3.06,3.11,6.24,4.39,5.99Z"/>
  <path class="st2" d="M781.29,718.21l-.05,5.31c-.66.79-4.34,4.6-4.56,2.65l-1.13-10.08-7.22,5.19c-.94-1.15-2.96-7.2-3.29-10.27-.28-2.63,2.55-7.75,4-8.63l-.31,4c-.07.94,1.08.08,2.56-.62l3.95-1.85c3.67-1.72.87,13.21,6.06,14.29Z"/>
  <path class="st23" d="M784.66,505.83c.45.3-4.09.44-5.24-.65-2.92-2.79-7.19-24.92-1.68-33.61l6.72,9.54c-3.93,8.57-5.53,10.98.2,24.72Z"/>
  <path class="st25" d="M1689.99,887.39l-5.23-4.44,5.34-3.94c.97-2.97,3.23-7.01,4.45-6.09l5.72,4.33,4.21,3.18c.75.57-2.68,10.77-9.71,12.57-1.64.42-4.04-3.37-4.79-5.61Z"/>
  <path class="st1" d="M576.37,722.73c-5.91-3.82-9.14-3.91-14.94-1.74-1.34-6.04.98-21.04,9.3-20.87l5.65,22.61Z"/>
  <path class="st1" d="M592.7,704.81c.12,5.43-.28,12.23-1.8,16.08-1.26.28-4.44,4.36-4.66,2.48l-1-8.72c-.72-6.22-2.26-6.54-2.96.01l-2.62,7.23c-6.55-9.46,8.19-24.35,9.65-22.17l3.4,5.08Z"/>
  <path class="st23" d="M723.94,506.08c-6.07,2.14-8.34-4.87-9.33-12.94-1.01-8.28-.95-14.09,2.09-21.62l6.93,9.95c-5.49,7.66-4.39,17.25.3,24.6Z"/>
  <path class="st1" d="M549.99,724.19c-5.04-1.39-1.39-13.21-6.71-14.56-6.99-1.77-3.89,15.68-6.95,13.76l-3.91-2.45c-1.01-.64.84-4.61,1.27-6.29-.74-2.84-1.89-7.13-.64-8.62,1.52-1.82,5.11-6.1,4.99-5.95,1.77,4.08,2.83,7.64,3.78,7.28l5.69-2.16,2.49,18.99Z"/>
  <path class="st23" d="M653.76,757.27c-3.02,3.91,15.7,8.25,10.07,19.02-2.09,4-9.92,3.96-12.57,2.01-.96-5.07-.72-8.87,1.72-4.28l5.14,2.66c.94.49,3.16-2.5,2.95-3.95-.29-1.93-2.19-4.33-3.78-5.89l-7.6-7.45c2.43-10.27,11.57-10.6,14.11-6.32.38.63.02,4.64-.51,4.3l-3.73-2.39c-.88-.57-2.58-1.89-3.05-1.27l-2.74,3.56Z"/>
  <path class="st24" d="M975.27,750.37c-.05,2.37.33,7.4,1.8,8.04,1.69.73,6.08.07,6.37,2.66,3.09,27.67-2.2,16.72-2.24,16.26l-.48-5.57-.69-8.06c-.09-1.09-2.54-1.21-2.95-.31-1.58,3.46-1.98,10.76-2.03,16.11-.79.13-2.35.47-3.13.36l-.83-19.39c-.06-1.43.12-4.8.22-6.54.1-1.88,2.72-3.76,3.99-3.55Z"/>
  <path class="st24" d="M819.01,750.37c-.05,2.4.34,7.37,1.8,8.04,1.7.78,6.17.02,6.39,2.66l.89,10.94c.12,1.53-.6,6.34-.87,7.87-.18,1.02-2.2-1.53-2.29-2.58l-.47-5.51-.69-8.08c-.09-1.08-2.54-1.21-2.95-.31-1.54,3.35-1.98,10.39-2.06,15.62-3.7-2.25-3.59-10.45-3.48-17.9l.14-9.22c.03-1.62,2.47-1.64,3.6-1.51Z"/>
  <path class="st1" d="M650.39,722.96l-9.97-6.93-2.73,8.92c-5.5-5.93-4.95-15.99-.92-20.15l2.66,6.84c1.49,3.84,6.38-7.24,11.26-2.84,1.98,1.79,2.84,5.77-.31,14.15Z"/>
  <path class="st23" d="M409.21,766.59l6.2-2.43c-1.35-3.39-4.59-2.26-6.2-.17-3.44-4.36,3.05-6.54,5.51-5.88,2.3.62,4.22,6.66,4.09,10.38-.14,4.22,0,10.91-1.62,11.08l-6.31.65c-1.62.17-5.58-4.12-5.34-6.5s2.09-6.51,3.66-7.12Z"/>
  <path class="st1" d="M251.45,750.37c.36,5.15-2.26,7.87-5.39,10.72-2.14,2.13-1.82,10.01-2.02,17.86l-4.43-1.92-2.02-20.86c3.84-3.57,9.53-5.77,13.86-5.8Z"/>
  <polygon class="st23" points="864.57 506.49 874.61 485.62 867.19 483.74 881.46 480.92 873.57 500.39 882.55 505.58 864.57 506.49"/>
  <path class="st24" d="M438.24,750.37c-.05,2.4.34,7.37,1.8,8.04,1.7.78,6.14.03,6.36,2.64l.91,10.58c.14,1.69,0,8.83-.94,8.01-.79-.68-2.06-1.15-2.15-2.17l-.52-5.7-.72-8.08c-.1-1.07-2.53-1.2-2.94-.3-1.58,3.46-1.98,10.76-2.03,16.11-.8.13-2.35.44-3.13.36l-.83-19.39c-.06-1.43.12-4.65.22-6.56s2.71-3.74,3.99-3.54Z"/>
  <path class="st25" d="M1447.92,476.51c-6.91,5.69,2.24,29.24-4.77,31.93l-1.33-29.17-7.64-7.19,18.78.28-5.03,4.14Z"/>
  <path class="st19" d="M1291.07,872.69c2.21,4.74,2.51,10.91.78,16.08-1.73,5.17-5.22,8.51-9.08,8.72,1.33-5.32,1.21-11.19-.37-15.8l3.09-7.77c.64-1.61,4.15-.91,5.59-1.22Z"/>
  <path class="st6" d="M1354.16,874.61l-7.96-.78c-2.01-.2-3.57,8.82-2.05,10.78s5.28,1.96,9.34,1.81c.77,5.65-7.51,7.54-10.24,4.51-3.87-4.29-4.4-13.87-1.69-18.82,2.94-5.37,11.32-4.81,12.59,2.49Z"/>
  <path class="st6" d="M783.09,753.05l1.11,2.36.67,2.28c-3.26-1.88-7.66-5.5-11.12-.18.78,2.71,5.64,6.02,9.22,7.7,2.22,1.04,1.45,10.36-.53,12.13-2.62,2.33-9.03,2.93-9.83.69l6.78-2.02c1.01-.3,2.96-3.91,2.16-4.85-1.07-1.26-3.74-3.88-5.08-4.84l-5.82-4.18c-1.64-1.18.36-11.19,2.17-11.38,2.71-.29,7.1.85,10.27,2.3Z"/>
  <path class="st23" d="M672.65,508.15l-1.9-23.82c-3.34,1.26-7.32,2.56-7.74.7-.24-5.56,5.99-6.58,9.35-4.58,3.01,1.79,5.22,8.38,5.26,15.43.03,4.79-1.67,9.15-4.98,12.28Z"/>
  <path class="st1" d="M528.11,774.79l10.73-2.69c-1.01,8.44-6.75,7.41-10.41,5.93-8.67-3.5-5.73-26.76-5-26.74l4.12.1.57,23.39Z"/>
  <path class="st8" d="M483.14,715.53c-1.31,1.07-1.31,1.61,0,2.68,0,2.43-2.69,7.03-4.18,5.98l-4.72-3.31-1.87-2.67.32-10.49c.02-.54.11-1.53.16-2.2l10.31-.94v10.95Z"/>
  <path class="st23" d="M940.34,507.99l-2.01-23.54c-3.23,1.01-7.46,2.15-7.7,1.04-.11-8.17,9.27-7.63,11.51-2.51,2.92,6.66,6.23,17.32-1.8,25.02Z"/>
  <path class="st22" d="M1291.07,872.69c-1.44.31-4.95-.39-5.59,1.22l-3.09,7.77c-3.36.18-6.97-1.63-9.9-5.6,1.4-5.47,4.71-9.34,8.6-10.05,3.89-.71,7.73,1.85,9.97,6.65Z"/>
  <path class="st23" d="M1162.7,502.67l6.37-3.74c.65-.38,1.82.1,2,1.04.29,1.48-.64,6.78-1.75,6.74-2.36-.09-8.61-1.23-9.99-3.83-2.78-5.24-3.98-22.58,2.21-23.74l1.15,23.52Z"/>
  <path class="st23" d="M617.68,500.05c-.53,7.02-2.68,9.88-2.63,2.19l-2.7-21.54c-.62-4.92,8.97-12.11,10.52-8.06l-2.69,3.37c-.42.52-2.75,2.34-2.26,2.56l5.06,2.3c-4.18,3.11-5.72,9.42-5.3,19.18Z"/>
  <path class="st0" d="M1282.39,881.69c1.58,4.61,1.7,10.48.37,15.8-3.55.19-6.92-2.28-8.99-6.59-2.07-4.3-2.55-9.87-1.28-14.81,2.93,3.96,6.54,5.77,9.9,5.6Z"/>
  <rect class="st3" x="355.62" y="691.41" width="1.8" height="100.5"/>
  <path class="st13" d="M894.44,758.41l1.8,2.68v2.68c-.4,11.18-10.01,2.24-7.83,10.66.28,1.09,2.59,1.28,3.36,1.2l3.47-.34c.6-.06.71.8,1.04,2.16-2.77,2.47-8.22,2.87-10.43.15s-3.41-14-1.18-16.65c1.95-2.32,7.2-2.91,9.77-2.54Z"/>
  <path class="st23" d="M606.27,508.34l-1.49-23.44-8.22.33c.75-2.87,5.03-5.46,8.03-5.41,5.58.1,8.32,19.4,1.68,28.52Z"/>
  <path class="st25" d="M1413.65,886.32l7.09,1.68c.14,3.95-6.8,6.02-9.27,3.32-2.33-2.55-2.11-13.25,0-16.22,2.7-3.81,8.56-.85,11.03,5.93-.82,1.32-3.56,2.64-8.84,5.28Z"/>
  <path class="st13" d="M703.24,504.68l-13.27,2.57c-.6-13.61-1.13-23.52,1.59-38.17,1.73,11.82,1.58,20.7,1.84,31.71l9.83,3.88Z"/>
  <path class="st6" d="M989.08,500.65c1.99-7.1,9.37,4.71,10.19,1.04,3.11-13.9-6,.34-9.35-15.91l16.1,11.37c-1.05,4.18-4.37,8.82-6.77,9.55-3.21.98-8.24-.92-10.17-6.06Z"/>
  <path class="st23" d="M534.43,508.34l-1.49-23.44-8.22.33c.72-2.87,5.04-5.48,8.03-5.41,5.6.13,8.31,19.44,1.68,28.53Z"/>
  <path class="st1" d="M181.4,715.53l4.18-1.21c1.1-.32.81-3.49.68-6.04l12.4-6.39c.42,2.08,1.03,7.85-.06,7.97s-4.99.13-5.41,1.63l-2.53,9.1c.28-1.01-9.85,5.2-9.61.97l.35-6.03Z"/>
  <path class="st24" d="M1322.35,889.73l-.11-13.13,7.45-7.11c.9.89,3.25,5.51,2.89,7.6-.44,2.56-2.05,6.42-1.34,7.98l3.09,6.75c-1.78.32-6.78,1.65-6.84-.7l-.23-9.89c-.77-5.86-1.24-5.65-1.82,0l-1.22,8.72c-.14.98-.77.16-1.87-.22Z"/>
  <path class="st13" d="M998.62,761.09l1.34,5.97c.37,1.63-2.78,1.84-4.93,2.73l-4.09,1.69c-1.01.42,1.84,3.18,2.73,3.95l3.79,3.3c-2.85,1.17-7.42.84-9.78-2.25-2.17-2.84-1.89-12.66.44-16.04,2.09-3.02,7.8-1.75,10.5.64Z"/>
  <path class="st2" d="M748.96,779.85v-3.83c0-1.22-2.85.19-3.52-.42l-2.81-2.6c-.62-.58,1.88-2.34,2.66-2.59l6.78-2.2c1.17-.38-1.52-6.24-1.32-7.12l7.93-.12-3.48,17.95-6.25.93Z"/>
  <path class="st13" d="M750.76,761.09c-.2.88,2.49,6.74,1.32,7.12l-6.78,2.2c-.78.25-3.28,2.01-2.66,2.59l2.81,2.6c.67.62,3.51-.8,3.51.42v3.83c-2.26.34-6.62-.85-8.97-1.46-.73-4.91-.83-10.18,0-14.62.19-2.22,2.84-6.47,4.37-5.74l6.41,3.06Z"/>
  <path class="st6" d="M1048.83,495.78l-.11,5.47c-1.75,2.67-5.51,5.84-7.99,5.89-2.77.05-5.94-4.12-6.83-7.77l12.75,1.3-12.3-14.54,14.49,9.64Z"/>
  <path class="st3" d="M901.63,718.21l-3.58,2.21c-1.06.66-3.32-3.03-3.57-3.81l5.49-1.91c1-.35,1.27-2.73,1.66-4.53l3.59-2.68,10.77.5-.38,14.56c-2.03-.37-4.14,1.37-4.31.12l-1.59-12.01-1.39,12.9c-1.91-2.1-5.54-6.19-6.7-5.34Z"/>
  <path class="st1" d="M1736.67,795.73c1.54-1.34,4.34-5.04,5.36-7.59l7.57-18.94c-.18,11.9-5.83,26.6-11.39,33.68l-5.07-2.83c-.51-.28,1.46-2.19,1.9-2.65l1.62-1.67Z"/>
  <path class="st6" d="M941.14,771.81v5.82l-7.96,2.33c-2.66.78-4.37-18.58.05-21.07,1.39-.79,6.55-1.02,6.76,1.21l1.15,11.72ZM934.05,761.96c-1.01.23,1.29,5.48,2.23,4.85.62-.42,2.68-1.48,2.87-1.56-1.67.7,1.24-4.74-5.1-3.29ZM937.75,774.49c0-1.65-.9-2.98-2-2.98s-2,1.34-2,2.98.9,2.98,2,2.98,2-1.34,2-2.98Z"/>
  <path class="st23" d="M1011.19,779.85c.22-5.37-.05-12.56-1.97-15.94-5.76-10.46-2.52,19.11-7.01,15.94v-21.44c3.45-.19,10.28.32,11.06,4.6,1.05,5.7.75,14.58-2.08,16.84Z"/>
  <path class="st1" d="M95.32,795.73c.74,1.29,2.75,3.64,3.43,4.42s-4.1,3.63-4.76,2.8c-5.08-6.36-12.26-22.2-11.6-33.75l7.57,18.94c1.02,2.55,3.81,6.25,5.36,7.59Z"/>
  <path class="st2" d="M896.29,777.45c-.34-1.36-.44-2.22-1.04-2.16l-3.47.34c-.77.07-3.08-.11-3.36-1.2-2.18-8.42,7.43.52,7.83-10.66.53-1.36,1.81-4.93,2.82-4.47l5.06,2.3c-1.4,5.23-2.22,10.09-3.42,18.19l-4.42-2.34Z"/>
  <path class="st1" d="M860.95,709.28c-1.03.38-5.74,1.02-5.86,2.73l-.75,10.96c-2.44-.43-5.72-9.51-5.08-14.69l1.1-8.9c.26-2.14,4.48,2.74,5.99,4.3l3.81-1.2c1.19-.37,2.55,6.15.79,6.8Z"/>
  <path class="st1" d="M326.17,759.63c.13,1.85-1.46,6.99-3.22,10.59-1.26,2.58-6.02,4.25-7.38,1.94-1.98-3.36-4.32-9.6-3.91-11.53l6.19,3.6c1.5.88,4.04-2.1,8.32-4.6Z"/>
  <path class="st1" d="M627.65,777.4c1.59,1.18-2.86,2.28-4.31,1.86l-.06-28.76c.66.55,2.72,2.21,2.67,2.27s2.53-2.97,1.5-1.79l.2,26.41Z"/>
  <path class="st1" d="M648.69,778.01l-4.42.69c.86-.13-1.66-30.7,2.96-30.95l1.46,30.26Z"/>
  <path class="st20" d="M1070.34,482.29l.12,5.45c-7.76,7.83-8.94-10.88-15.12.27-2,3.61-.49,10.69,2.37,12.53,1.96,1.26,4.53-1.38,8.41-4.97,0-.01,1.77,5.9,2.54,8.46-5.29.81-11.3.91-15.09.08-1.82-4.19-2.18-5.76-2.81-5.08-.42.46-1.7,1.66-2.05,2.21l.11-5.47,5.21-13.36,16.31-.14Z"/>
  <path class="st20" d="M95.32,795.73c-1.54-1.34-4.34-5.04-5.36-7.59l-7.57-18.94c-.95-17.11-4.98-35.9,1.94-51.73-2.61,29.5-1.19,57.12,10.99,78.25Z"/>
  <path class="st14" d="M1454.82,876.33v10.72c-.02.15-.71,4.23-.76,4.11-.07-.15-2.45-2.16-3.13-2.17l-3.99-.04c-1.61-.02-3.48-22.31.94-20.68l3.68,10.07c.52,1.41,2.21-1.79,3.26-2.01Z"/>
  <path class="st20" d="M1749.6,769.21l-7.57,18.94c-1.02,2.55-3.81,6.25-5.36,7.59,12.03-21.21,13.83-48.67,10.84-78.27,7.77,15.88,2.35,34.61,2.09,51.75Z"/>
  <path class="st2" d="M589.39,778.85c1.81,2.19-1.09-1.31-1.15-1.39-.06-.07-2.01,1.84-2.62,2.39l-.12-29.48,4.93,3.48-1.04,24.99Z"/>
  <polygon class="st1" points="461.69 752.83 466.08 753.05 465.47 779.91 461.08 779.69 461.69 752.83"/>
  <path class="st1" d="M784.87,757.68l6.96-5.63-.2,22.94c0,1.12-3.64,3.7-3.77,2.59l-.67-5.86c-.6-5.31-1.37-10.12-2.33-14.04Z"/>
  <path class="st1" d="M159.85,706.89l-.27,13.87-6.91-2.55c.3-5.44.51-11.37-.28-15.49-.25-.88,6.3-4.91,6.6-2.61l.87,6.77Z"/>
  <path class="st3" d="M204.75,723.57v-18.76l3.59-2.68,3.67-2.92-.34,24.37c-2.45-2.58-4.09-5.08-4.72-3.94l-2.2,3.93Z"/>
  <path class="st9" d="M808.23,707.49v8.04l-9.47,1.25c1.68,1.49,5.45,3.45,7.68,4.11-1.11,1.25-4.38,3.12-6.02,3.11-1.31-.02-2.6-4.14-2.96-5.79l.08-8.66c2.11-5.28,7.3-5.48,10.7-2.06ZM803.29,711.94c-4.66-.68-4.93-.72-.78-.11,2.01.26,2.72.35.78.11Z"/>
  <path class="st8" d="M456.2,707.49l1.66,5.63c2.16,7.34-13.73-3.94-6.37,7.32.31.48,2.3-.91,2.73-.67l1.99,1.12c-2.19,1.72-6.47,3.3-8.98,2.68v-18.76c2.1-1.57,7.79.75,8.98,2.68ZM453.06,711.94c-4.66-.68-4.93-.72-.78-.11,2.01.26,2.72.35.78.11Z"/>
  <path class="st20" d="M1002.21,779.85l-4.75-1.12-3.79-3.3c-.89-.78-3.74-3.53-2.73-3.95l4.09-1.69c2.14-.89,5.29-1.1,4.93-2.73l-1.34-5.97,3.59-2.68v21.44Z"/>
  <path class="st14" d="M599.89,723.57l-2.63-4.11-6.35,1.43c1.52-3.85,1.91-10.64,1.8-16.08h1.8c1.4.92,3.33,2.74,3.38,1.22l.21-6.58h1.8v24.12Z"/>
  <path class="st8" d="M898.04,712.85l3.59-2.68c-.39,1.8-.66,4.18-1.66,4.53l-5.49,1.91c.25.78,2.51,4.47,3.57,3.81l3.58-2.21c.14.63-.75,5.53-1.73,5.65-2.32.27-8.24-.85-9.04-3.9-.91-3.5-1.42-9.72-1.44-13.84l8.62,6.73Z"/>
  <path class="st9" d="M673.53,715.53l-9.49.85c4.68,3.96,6.14,4.25,7.7,7.19-3.53.58-7.4-.96-8.98-5.36v-8.04c-.19-2.56,6.75-8.29,7.65-5.26l3.13,10.62ZM668.58,711.94c-4.66-.68-4.93-.72-.78-.11,2.01.26,2.72.35.78.11Z"/>
  <path class="st9" d="M881.87,715.53l-9.49.85c4.68,3.96,6.14,4.25,7.7,7.19-3.53.58-7.4-.96-8.98-5.36v-8.04c-.2-2.54,6.76-8.31,7.65-5.28l3.13,10.64ZM876.93,711.94c-4.66-.68-4.93-.72-.78-.11,2.01.26,2.72.35.78.11Z"/>
  <polygon class="st1" points="941.14 777.63 941.14 771.81 946.46 756.18 948.98 780.3 941.14 777.63"/>
  <path class="st1" d="M409.5,704.81l-16.41,2.68c-.69,1.58-1.88,6.27-2.39,8.98-2.65-3.63-4.03-10.81-2.87-17.15l3.25,6.21c.61,1.17,2.44-1.68,4.08-3.85l10.36,1.16c.61-.59,2.84-2.62,3.27-3.18.65-.85.68,4.6.71,5.16Z"/>
  <path class="st3" d="M508.44,720.98l-1.95-21.53c2.72,5.11,4.81,7.03,8.81,6.91l.09,13.25c-2.82.41-5.3.7-6.95,1.37Z"/>
  <path class="st8" d="M734.59,712.85l3.24-1.78c-.9,2.61-2.51,3.65-6.36,6.24-.75-1.23,1.43,3.51,2.18,3.11l3.98-1.73c-.53,2.21-4.03,5.52-5.78,4.95-1.46-.47-3.55-3.81-4.45-5.43v-8.04c2.05-.7,4.69.95,7.18,2.68Z"/>
  <path class="st8" d="M781.42,707.16l-.31,8.45.18,2.61c-5.2-1.08-2.39-16.02-6.06-14.29l-3.95,1.85c-1.48.69-2.63,1.56-2.56.62l.31-4c1.68-.95,5.46-2.34,7.65-2.71,1.9-.32,4.34,4.59,4.73,7.48Z"/>
  <path class="st1" d="M188.55,778.84l-4.6-1.93c-.88-.37.05-1.23,1.53-3.67.6-7.49,3.03-14.72,8.21-18.16l-5.13,23.76Z"/>
  <path class="st1" d="M610.66,707.18c.16,1.67-.02,9.2-1.51,9.73-1.39.49-2.68,1.1-3.88,3.98h-3.59v-13.4c2.91-.33,6.04-.42,8.98-.31Z"/>
  <path class="st3" d="M727.41,710.17v8.04c-2.15-.21-6.2,1.03-7.18,2.68-1.31-1.01-3.85-4.37-3.85-6.71s2.49-5.47,3.85-6.69c1.32,1.55,4.89,2.71,7.18,2.68Z"/>
  <path class="st1" d="M814.06,771.93c-.59,3.91-4.18,7.78-6.94,8.24-2.05.34-5.4-3.6-7.16-6.25l-2.71-4.08c-.79-1.18,2.3-3.23,4.3-4.35l3.23,11.11,9.28-4.67Z"/>
  <path class="st14" d="M518.33,719.32c-2.05-2.04.17-13.9,1.85-13.6l4.74,8.57c1.09,1.97-4.91,6.69-6.59,5.02Z"/>
  <path class="st3" d="M786.58,720.57l-5.47-4.97.31-8.45,7.23-1.42c-.64,7.38-1,12.27-2.07,14.84Z"/>
  <path class="st2" d="M152.56,767.79l-6.96,11.34,2.41-26.53,2.09,15.41,2.99-5.3c.55-.97,1.89-.38,2.19.72l1.16,4.32c.3,1.13-2.49.27-3.88.05Z"/>
  <polygon class="st16" points="714.84 710.17 714.84 720.89 707.73 722.96 707.61 710.17 714.84 710.17"/>
  <path class="st20" d="M255.04,763.77c-.63.99-1.8,3.75-1.8,5.36v8.04c-.83,4.7-1.25.98-1.57-2.92l-.34-11.39c-.07-2.31-3.6-1.77-5.27-1.78,3.13-2.85,5.75-5.57,5.39-10.72l3.59,13.4Z"/>
  <path class="st8" d="M659.16,723.57c-4.83-5.88-3.94-18.23,0-24.12v24.12Z"/>
  <ellipse class="st1" cx="710.75" cy="769.07" rx="3.84" ry="5.72"/>
  <path class="st1" d="M838.99,717.85c1.5-3.54,2.69-5.18,2.21-6.05l-2.29-4.12,6.73.86c1.71.22,2.11,8.62.39,8.75l-7.05.55Z"/>
  <path class="st9" d="M720.22,704.81h1.8l-1.8,2.68c-1.36,1.21-3.85,4.35-3.85,6.69s2.54,5.7,3.85,6.71c5.1,6.14-6.57.35-5.39,0v-10.72l1.8-5.36c.88-.26,2.65,0,3.59,0Z"/>
  <polygon class="st16" points="1690.1 879.01 1684.77 882.95 1689.99 887.39 1682.99 891.66 1682.99 874.38 1690.1 879.01"/>
  <path class="st1" d="M677.12,771.81v-21.44c6.66,3.83,3.03,15.61,0,21.44Z"/>
  <path class="st5" d="M616.05,753.05c4.79,6.98,4.79,17.14,0,24.12-1.87-.82-4.61-2.03-2.2-.97,3.67-9.27,3.49-15.74-.98-22.39l3.18-.76Z"/>
  <path class="st4" d="M423.87,710.17c0,2.71,1.07,7.65,1.8,10.29l-3.59,3.11v-24.12h1.8v10.72Z"/>
  <path class="st1" d="M881.87,715.53l1.92,6.69c.34,1.18-3.31,1.32-3.72,1.35-1.56-2.94-3.02-3.24-7.7-7.19l9.49-.85Z"/>
  <path class="st2" d="M600.05,775.57l-4.34,4.5c-.75.77-3.42-3.34-2.76-4.25l3.21-4.44c.77-1.07,3.13-1.87,4.81-2.44,1.05-.35-.04,5.71-.92,6.63Z"/>
  <path class="st1" d="M698.67,779.85v-29.48c2.61-9.14,2.62,38.6,0,29.48Z"/>
  <path class="st20" d="M134.71,656.58v2.68c-28.51,4.74-38.48,26.26-50.22,54.82,7.39-31.76,28.52-57.5,50.22-57.5Z"/>
  <path class="st1" d="M673.53,715.53l1.92,6.71c.34,1.17-3.31,1.3-3.72,1.33-1.56-2.94-3.02-3.24-7.7-7.19l9.49-.85Z"/>
  <path class="st20" d="M1697.29,659.26v-2.68c23.53,0,43.78,28.79,50.39,58.12-8.02-19.6-17.37-43.73-34.26-49.72l-16.14-5.72Z"/>
  <path class="st8" d="M431.06,704.81l-.3,8.16-3.3-3.78c-.84-.96-2.39.17-3.59.98v-10.72c1.92,2.71,4.62,4.71,7.18,5.36Z"/>
  <path class="st1" d="M793.86,704.81v13.4c-1.66-.56-3.91-4.06-4.06-6.63-.18-2.97,1.97-7.74,4.06-6.77Z"/>
  <path class="st20" d="M152.38,702.72c.8,4.12.59,10.04.28,15.49,1.88,5.15,1.88,5.67-1.8,2.68l-1.71-18.86,3.22.69Z"/>
  <path class="st16" d="M810.03,723.57l-1.8-2.68v-13.4c0-2.33.97-6.85,1.8-8.04v24.12Z"/>
  <path class="st1" d="M269.41,782.53c-.05-.89-.06-2.07-.21-2.68,2.56-2.45,7.22-3.56,9.94.14-2.61,2.49-7.15,3.37-9.73,2.54Z"/>
  <rect class="st15" x="810.03" y="699.45" width="1.8" height="24.12"/>
  <rect class="st23" x="811.82" y="699.45" width="1.8" height="24.12"/>
  <path class="st14" d="M815.42,707.49v10.72c0,1.67-.68,5.36-1.8,5.36v-24.12c.82,1.19,1.8,5.71,1.8,8.04Z"/>
  <path class="st3" d="M420.28,720.89h-1.8l-7.23-4.2,6.93-2.7c1.04-.4.32-5.46.3-6.51h1.8v13.4Z"/>
  <path class="st25" d="M396.93,712.85v2.68c-.82,1.89-2.38,4.25-3.59,5.36l-2.63-2.37c-.04-.72-.11-1.54-.01-2.05.52-2.7,1.7-7.39,2.39-8.98l.3,6.75c.07,1.5,2.09-.36,3.54-1.39Z"/>
  <path class="st16" d="M422.08,723.57l-1.8-2.68v-13.4c0-2.37.98-7,1.8-8.04v24.12Z"/>
  <path class="st1" d="M497.51,723.57c-2.81-6.18-2.81-17.94,0-24.12v24.12Z"/>
  <path class="st8" d="M601.68,707.49v13.4l-1.8,2.68v-24.12c.9.97,1.8,5.47,1.8,8.04Z"/>
  <path class="st3" d="M660.95,710.17v8.04l-1.8,5.36v-24.12c1.16,2.28,1.8,7.33,1.8,10.72Z"/>
  <path class="st3" d="M808.23,715.53v5.36c-.58.02-1.37.13-1.8,0-2.23-.66-6-2.62-7.68-4.11l9.47-1.25Z"/>
  <path class="st8" d="M262.23,766.45h1.8c-3.4,2.58-6.52,5.9-7.18,10.72h-1.8v-8.04l1.8-2.68h5.39Z"/>
  <polygon class="st1" points="508.92 776.93 514.2 781.66 511.67 787.97 506.39 783.24 508.92 776.93"/>
  <path class="st1" d="M689.69,766.45l-3.59,13.4.27-19.51c1.45,2.54,2.7,4.7,3.33,6.11Z"/>
  <path class="st4" d="M289.17,769.13l-3.76-1.19,10.94-4.17c-.02,2.17-1.2,5.8-2.5,5.71l-4.68-.35Z"/>
  <path class="st1" d="M208.34,702.13l-3.59,2.68c-.42.31-1.17,0-1.8,0h-1.8c.05-1.91,1.19-6.33,2.29-5.66l4.9,2.98Z"/>
  <path class="st4" d="M867.5,723.57c-.45.12-1.26.02-1.8,0v-18.76h1.8v18.76Z"/>
  <path class="st1" d="M485.32,722.53c.06-1.3,8.52,3.15,5.12,5.05l-3.37,1.88c-.94.52-1.87-4.49-1.76-6.92Z"/>
  <path class="st3" d="M795.94,709.32l-.28,8.89c-.8,6.06-1.17,6.15-1.8,0v-13.4c.71.33,1.55.64,1.71,1.31.19.78.39,2.43.37,3.19Z"/>
  <path class="st16" d="M202.96,723.57c-1.72-4.68-1.95-12.41-1.8-18.76h1.8v18.76Z"/>
  <path class="st4" d="M204.75,723.57h-1.8v-18.76c.62,0,1.38.31,1.8,0v18.76Z"/>
  <path class="st3" d="M869.3,710.17v8.04c0,1.72-.69,5.06-1.8,5.36v-18.76h1.8v5.36Z"/>
  <path class="st1" d="M786.58,720.57c-.68,1.62-4.48,3.11-5.35,2.95l.05-5.31-.18-2.61,5.47,4.97Z"/>
  <path class="st16" d="M865.71,723.57c-1.72-4.67-1.98-12.42-1.8-18.76h1.8v18.76Z"/>
  <path class="st1" d="M407.71,715.53h-1.8l-2.82-.35c-.52-.06-.35-1.72.06-2.2l3.3-3.93c2.45,1.53,4.11,4.83,1.26,6.48Z"/>
  <polygon class="st2" points="594.32 750.91 602.22 756.8 600.79 761.09 592.88 755.2 594.32 750.91"/>
  <path class="st1" d="M851.34,761.09l-1.8,8.04h-2.14l-.45-4.53c-.08-.79-2.04.05-2.57.16.23-1.29,1.39-3.76,2.39-3.75l4.57.07Z"/>
  <path class="st1" d="M741.78,707.49l-3.94,3.58-3.24,1.78c.03-1.48,1.09-7.97,2.47-7.38l4.71,2.02Z"/>
  <path class="st1" d="M756.15,707.49l-4.69,3.35c-1.18.84-2.55-4.21-2.5-6.03,1.36.33,6.07,2.26,7.18,2.68Z"/>
  <path class="st1" d="M598.09,699.45l-.21,6.58c-.05,1.52-1.98-.3-3.38-1.22-.66-2.17-1.99-5.27-.91-5.29l4.5-.07Z"/>
  <path class="st1" d="M818.74,779.01c.08-5.22.52-12.26,2.06-15.62l.1,15.12-2.16.49Z"/>
  <path class="st1" d="M1011.19,779.85c-1.44-3.32-1.9-10.56-1.97-15.94,1.92,3.38,2.19,10.56,1.97,15.94Z"/>
  <path class="st1" d="M869.3,704.81h-5.39c.05-1.85.16-4.31.92-5.27s4.45-.34,4.45,1.14v4.12Z"/>
  <path class="st20" d="M265.82,763.77l-1.8,2.68h-1.8l-3.59-2.68,5.4-4.51c.92-.76,1.27,1.92,1.78,4.51Z"/>
  <path class="st1" d="M905.22,707.49l-3.59,2.68-3.59,2.68,1.65-6.79c.49-2.02,4.1,1.36,5.54,1.43Z"/>
  <path class="st1" d="M438.01,779.5c.05-5.35.45-12.65,2.03-16.11.21,5.4.14,13.62-2.03,16.11Z"/>
  <path class="st1" d="M975.03,779.5c.05-5.35.45-12.65,2.03-16.11.21,5.4.14,13.62-2.03,16.11Z"/>
  <path class="st2" d="M155.8,750.86c0-.12.14,2.54.17,3.4.05,1.3-1.82,4.74-2.45,3.85-.71-1.01-3.31-3.41-2.52-3.95l4.8-3.3Z"/>
  <path class="st1" d="M409.21,766.59v-2.6c1.61-2.08,4.84-3.22,6.2.17l-6.2,2.43Z"/>
  <path class="st1" d="M877.08,776.71c2.02-.83,5.38-2,4.98-1.22l-2.5,4.94c-.58,1.15-3.42-3.33-2.48-3.71Z"/>
  <path class="st1" d="M813.04,766.44l-6.71-4.17c2.96-2.18,5.69-1.19,6.71,4.17Z"/>
  <path class="st1" d="M616.05,777.17c4.79-6.98,4.79-17.14,0-24.12,3.32-3.71,5.5,7.74,5.5,12.06s-2.18,15.76-5.5,12.06Z"/>
  <path class="st5" d="M608.87,755.73l-3.59,2.68c-.3-.15-2.19-.89-1.81-1.36l3.88-4.74c-.19-2.69.54-.43,1.52,3.42Z"/>
  <path class="st5" d="M608.87,774.49c-.97,3.85-1.71,6.11-1.52,3.42l-3.86-4.72c-.42-.51,1.49-1.24,1.79-1.38l3.59,2.68Z"/>
  <path class="st1" d="M477.73,752.22l-7.24-.55c.85-.26,2.91-.1,7.24.55Z"/>
  <ellipse class="st1" cx="917.79" cy="763.77" rx="2" ry="2.98"/>
  <path class="st1" d="M400.52,715.53h-3.59v-2.68c1.04-1.66,1.35-2.47,1.74-1.58l1.85,4.26Z"/>
  <path class="st1" d="M436.45,710.17c-1.03-.29-2.85-1.57-3.59-2.68l2.87-2.38c.66-.55.73,4.91.73,5.06Z"/>
  <path class="st1" d="M440.04,758.41c-1.46-.67-1.84-5.64-1.8-8.04,1.52.24,1.83,5.44,1.8,8.04Z"/>
  <path class="st1" d="M271.21,763.77h-3.59l1.86-4.13c.27-.6,1.49-.8,1.53-.03l.2,4.16Z"/>
  <path class="st1" d="M436.45,720.89c-.1.43-1.61,2.08-2.33,1.89l.59-3.17.69-3.78c.31-1.71.91,3.81,1.05,5.07Z"/>
  <path class="st1" d="M722.02,704.81h-1.8c0-.17-.01-3.51.01-4.38.03-1.15,1.98.9,2.81,1.81.58.64-.03,1.37-1.02,2.57Z"/>
  <ellipse class="st1" cx="858.77" cy="721.27" rx="1.76" ry="2.62"/>
  <path class="st1" d="M192.41,775.21c-.1-.9,3.66-.33,3.27.34l-2.04,3.55c-.58,1.01-1.07-2.34-1.24-3.89Z"/>
  <path class="st1" d="M605.28,758.41l3.59-2.68-.87,5.6c-.21,1.37-2.89-2.68-2.72-2.92Z"/>
  <path class="st1" d="M256.84,766.45l-1.8,2.68h-1.8c0-1.61,1.17-4.37,1.8-5.36l1.8,2.68Z"/>
  <rect class="st16" x="660.95" y="710.17" width="1.8" height="8.04"/>
  <path class="st1" d="M820.8,758.41c-1.46-.67-1.84-5.64-1.8-8.04,1.38.39,1.81,5.4,1.8,8.04Z"/>
  <ellipse class="st1" cx="803.09" cy="761.46" rx="1.76" ry="2.62"/>
  <path class="st1" d="M977.06,758.41c-1.47-.63-1.85-5.67-1.8-8.04,1.52.24,1.83,5.44,1.8,8.04Z"/>
  <path class="st1" d="M438.24,710.17c.63,0,1.38.31,1.8,0l-.92,8.59-.88-8.59Z"/>
  <ellipse class="st1" cx="196.02" cy="721.27" rx="1.76" ry="2.62"/>
  <path class="st20" d="M109.82,816.94c-2.11-1.09-5.45-5.41-7.37-7.57,2.33-1.57,6.49,2.98,7.37,7.57Z"/>
  <path class="st20" d="M1731.42,806.61l-8.99,10.75c.88-5.54,5.07-9.52,8.99-10.75Z"/>
  <rect class="st16" x="869.3" y="710.17" width="1.8" height="8.04"/>
  <path class="st1" d="M393.34,720.89l-2.76,2.52c-.37.33-1.26-3.32-.91-3.72l1.05-1.17,2.63,2.37Z"/>
  <rect class="st16" x="253.25" y="769.13" width="1.8" height="8.04"/>
  <path class="st1" d="M608.87,774.49l-3.59-2.68c-.17-.24,2.5-4.3,2.72-2.92l.87,5.6Z"/>
  <polygon class="st16" points="797.46 718.21 795.66 718.21 795.94 709.32 797.54 709.55 797.46 718.21"/>
  <ellipse class="st1" cx="908.81" cy="759.75" rx="1.14" ry="1.7"/>
  <polygon class="st1" points="262.23 766.45 258.63 766.45 258.63 763.77 262.23 766.45"/>
  <path class="st1" d="M750.76,720.89c-.87,4.35-1.4.11-1.8-2.68l1.8,2.68Z"/>
  <ellipse class="st1" cx="633.12" cy="785.21" rx="1.14" ry="1.7"/>
  <path class="st1" d="M499.31,771.81c.48,2.15.8,4.34,0,5.36l-1.46-1.83c-.4-.51-1.9-2.42-1.93-2.41-.07.01,2.84-.93,3.39-1.11Z"/>
  <path class="st1" d="M784.19,755.41l-1.11-2.36,1.11,2.36Z"/>
  <path class="st1" d="M483.14,718.21c-1.31-1.07-1.31-1.61,0-2.68v2.68Z"/>
  <path class="st2" d="M896.24,761.09l-1.8-2.68c.69.1,1.8,1.63,1.8,2.68Z"/>
  <ellipse class="st1" cx="873.79" cy="759.75" rx=".9" ry="1.34"/>
  <ellipse class="st1" cx="525.35" cy="706.15" rx=".9" ry="1.34"/>
  <ellipse class="st1" cx="194.87" cy="751.71" rx=".9" ry="1.34"/>
  <ellipse class="st1" cx="525.35" cy="722.23" rx=".9" ry="1.34"/>
  <ellipse class="st1" cx="554.09" cy="722.23" rx=".9" ry="1.34"/>
  <ellipse class="st1" cx="629.52" cy="786.55" rx=".9" ry="1.34"/>
  <ellipse class="st1" cx="762.43" cy="759.75" rx=".9" ry="1.34"/>
  <path class="st14" d="M1665.06,758.78c-9.77,1.76-7.94-42.92-11.46-18.73-.36,2.46-.91,6.78-1.23,10.17l-.62,6.67c-.14,1.46-3.28,2.13-3.5.67l-1.37-9.18-12.79-.76c1.16,2.6,2.32,5.43,3.28,5.2l6.9-1.64c.49,3.63-3.41,8.12-5.61,7.73-3.85-.68-7.71-4.48-8.55-7.12-1.45,2.88-4.28,6.44-6.23,7.13l.08-25.39c1.78,1.21,4.76,5.22,6.04,7.53,1.42-2.75,5.56-7.28,8.96-7.16,3.75.13,6.14,5.66,7.33,10.86.74-2.91,1.7-10.84,3.48-10.51,2.14.4,6.54,2.34,8.87,3.49l9.03-3.54c2.21-.87,5.09,6.52,6.31,11.21l-11.71,4.91c2.68,1.3,5.05,1.29,11.02,1.73-1.97,2.99-5.48,6.23-8.22,6.73Z"/>
  <path class="st14" d="M1613.39,750.79l-1.26-11.66c-2.35,10.1,1.38,17.52-7.99,19.93l-.32-24.46c2.34.8,4.56,2.34,5.45,1.12l4.51-6.16c.77-1.05,4.38.42,4.93,1.85.68,1.78,1.59,5.26,1.06,7.18l-2.16,7.83c-.58,2.11,1.89,5.12,4.15,8.94l-4.54,3.29c-1.54,1.12-3.56-5.36-3.83-7.87Z"/>
  <path class="st14" d="M1602.49,756.85c-6.4,1.42-9.62,1.44-16.83.8l8.74-25.16-9.55-5,18.11-1.41-9.47,26.08,9,4.69Z"/>
  <path class="st14" d="M1685.46,758.48c-2.59.8,1.99-19.26-3.32-19.97l-3.69,21.66c-3.46-7.78-2.84-15.26-2.3-25.73l13.1,1.25.51,21.15c.03,1.16-3.53,1.4-4.29,1.64Z"/>
  <path class="st21" d="M621.81,357.14l12.1,23.53c-8.76,4.6-15.13,2.43-21.45-4.36-4.96-5.34-7.77-19.47-6.95-29.8,1.47-18.44,11.23-29.13,22.29-27.37,10.95,1.74,18.77,17.13,17.3,34.79-.49,5.87-2,12.64-3.46,16.47-5.16-14.67-9.79-18.48-19.83-13.26Z"/>
  <ellipse class="st21" cx="1050.04" cy="363.09" rx="11.97" ry="17.85"/>
  <polygon class="st2" points="1260.72 233.08 1240.7 233.12 1250.65 194.1 1260.72 233.08"/>
  <polygon class="st2" points="1375.13 232.48 1355.45 232.75 1365.45 194.14 1375.13 232.48"/>
  <path class="st5" d="M768.8,235.1c.35,10.56-4.52,19.67-9.81,20.31-7.44.89-13.33-5.13-13.95-16.63-.66-12.06,2.96-20.88,10.17-22.4,6.96-1.47,13.12,4.75,13.59,18.72Z"/>
  <path class="st21" d="M1157.21,381.91c-8.25-7.11-8.34-27.62.08-34.95,5.13-4.46,12.26-1.64,15.52,4.97s3.74,16.12.81,23.28c-3.21,7.85-10.41,11.86-16.41,6.69Z"/>
  <path class="st5" d="M1317.53,224.26l-17.17,1.25-.03-32.57,15.01-.12c4.21-.03,9.53,6.88,10.3,12.16,1.09,7.48-1.61,18.81-8.11,19.29Z"/>
  <path class="st21" d="M951.27,377.4c-3.68,8.3-12.64,8.81-17.61,2.57-4.84-6.09-6-17.06-3.35-24.68,3.23-9.31,10.63-13.59,17.48-8.21,6.92,5.43,7.87,20.42,3.48,30.32Z"/>
  <path class="st5" d="M1117.24,363.73c.35,10.56-4.52,19.67-9.81,20.31-7.43.89-13.33-5.13-13.95-16.63-.66-12.06,2.96-20.88,10.17-22.4,6.96-1.47,13.12,4.75,13.59,18.72Z"/>
  <path class="st2" d="M1022.77,230.32l-22.61.08c1.19-9.39,4.79-14.94,10.47-14.76,5.09.16,10.77,1.76,12.14,14.67Z"/>
  <path class="st2" d="M1184.42,230.32l-22.61.08c1.19-9.39,4.79-14.94,10.47-14.75,5.09.16,10.77,1.75,12.14,14.67Z"/>
  <path class="st2" d="M598.45,230.12l-22.22.33c-.22-9.81,4.92-14.01,10.39-14.8s9.85,2.22,11.83,14.47Z"/>
  <path class="st2" d="M695.45,230.55l-23.68-.47c3.18-9.36,6.75-14.43,11.45-14.51,6.12-.11,10.26,1.8,12.23,14.98Z"/>
  <path class="st2" d="M822.96,230.12l-22.22.33c-.22-9.81,4.92-14.01,10.39-14.8,5.29-.77,9.85,2.22,11.83,14.47Z"/>
  <path class="st2" d="M950.48,230.12l-22.22.33c-.22-9.81,4.92-14.01,10.39-14.8,5.29-.77,9.85,2.22,11.83,14.47Z"/>
  <path class="st2" d="M1227.07,358.75l-22.22.33c-.22-9.81,4.92-14.01,10.39-14.8,5.29-.77,9.85,2.22,11.83,14.47Z"/>
  <path class="st2" d="M847.37,359.18l-23.4-.61c2.05-7.88,6.81-14.11,12.01-14.45,5.49-.36,10,7.19,11.4,15.06Z"/>
  <path class="st2" d="M751.13,359.18l-23.68-.47c3.18-9.36,6.75-14.43,11.45-14.51,6.12-.11,10.26,1.8,12.23,14.98Z"/>
  <path class="st24" d="M1558.18,881.05l-1.2,7.23c-.15.88-.9,1.08-1.21.38-.51-1.16-2.49-5.46-1.27-2.78,3.83-5.02,5.11-6.7,3.68-4.83Z"/>
  <ellipse class="st24" cx="1553.6" cy="874.99" rx="1.14" ry="1.7"/>
  <ellipse class="st24" cx="1549.11" cy="877.67" rx=".9" ry="1.34"/>
  <ellipse class="st24" cx="1550.91" cy="883.03" rx=".9" ry="1.34"/>
  <path class="st2" d="M496.12,498.04c-.07,2.21-5.37,5.33-6.39,3.64-1.28-2.11-2.84-6.87-3.37-9.88-.48-2.76,3.64-7.34,6.21-8,1.85-.47,3.68,9.76,3.54,14.24Z"/>
  <path class="st5" d="M1291.42,501.13c-4.11-4.32-2.2-15.43,2.39-16.84,2.27-.7,5.1,6.39,4.89,10.14s-4.74,9.38-7.28,6.71Z"/>
  <path class="st11" d="M1492.51,886.22l-7.24-.55c.85-.26,2.91-.1,7.24.55Z"/>
  <path class="st5" d="M1337.06,490.03c-.68,9.03-2.34,13.28-4.99,12.68-1.94-.44-5.52-6.4-4.93-9.34s2.24-7.47,3.33-8.99c1.36-1.91,6.82,2.68,6.59,5.66Z"/>
  <path class="st3" d="M415.34,711.94c1.94.24,1.23.15-.78-.11-4.15-.61-3.88-.57.78.11Z"/>
  <path class="st1" d="M472.37,718.21l-2.26-6.64c-.43-1.26,1.96-3.78,2.58-3.85l-.32,10.49Z"/>
  <path class="st1" d="M934.05,761.96c6.34-1.45,3.43,3.99,5.1,3.29-.19.08-2.25,1.15-2.87,1.56-.94.63-3.24-4.62-2.23-4.85Z"/>
  <ellipse class="st1" cx="935.75" cy="774.49" rx="2" ry="2.98"/>
  <path class="st3" d="M803.29,711.94c1.94.24,1.23.15-.78-.11-4.15-.61-3.88-.57.78.11Z"/>
  <path class="st3" d="M453.06,711.94c1.94.24,1.23.15-.78-.11-4.15-.61-3.88-.57.78.11Z"/>
  <path class="st3" d="M668.58,711.94c1.94.24,1.23.15-.78-.11-4.15-.61-3.88-.57.78.11Z"/>
  <path class="st3" d="M876.93,711.94c1.94.24,1.23.15-.78-.11-4.15-.61-3.88-.57.78.11Z"/>
</svg>