<?xml version="1.0" encoding="UTF-8"?>
<svg id="Ebene_1" xmlns="http://www.w3.org/2000/svg" version="1.1" viewBox="0 0 1920 1080">
  <!-- Generator: Adobe Illustrator 30.1.0, SVG Export Plug-In . SVG Version: 2.1.1 Build 136)  -->
  <defs>
    <style>
      .st0 {
        fill: #bad9e9;
      }

      .st1 {
        fill: #484844;
      }

      .st2 {
        fill: #0d84c3;
      }

      .st3 {
        fill: #2a2a2a;
      }

      .st4 {
        fill: #b1bf2a;
      }

      .st5 {
        fill: #717170;
      }

      .st6 {
        fill: #d7d7d7;
      }

      .st7 {
        fill: #565859;
      }

      .st8 {
        fill: #b8d8e9;
      }

      .st9 {
        fill: #1f8fcb;
      }

      .st10 {
        fill: #b2d1e0;
      }

      .st11 {
        fill: #e1e1e1;
      }

      .st12 {
        fill: #fbfbfb;
      }

      .st13 {
        fill: #cae4f2;
      }

      .st14 {
        fill: #71782c;
      }

      .st15 {
        fill: #1689c7;
      }

      .st16 {
        fill: #a2bcca;
      }

      .st17 {
        fill: #aaabab;
      }

      .st18 {
        fill: #b6d6e6;
      }

      .st19 {
        fill: #f1f1f1;
      }

      .st20 {
        fill: #b8c62a;
      }

      .st21 {
        fill: #939393;
      }

      .st22 {
        fill: #181909;
      }

      .st23 {
        fill: #b9d9ea;
      }

      .st24 {
        fill: #f8f8f8;
      }

      .st25 {
        fill: #2690cd;
      }

      .st26 {
        fill: #fdfefe;
      }

      .st27 {
        fill: #8096a2;
      }

      .st28 {
        fill: #0f89ca;
      }
    </style>
  </defs>
  <path class="st26" d="M0,0h1920v1080H0V0ZM405.42,138.63c-3.81.97-9.03,3.68-12.51,5.54-7.29,3.9-12.91,12.41-12.71,21.27.18,8.44,5.53,16.47,10.4,23.82l.28,2.52c-1.34,0-4.58.14-4.64,1.52l-.28,6.05c-3.66,4.68-6.2,10.38-5.09,15.99-.89.34-4.5,1.49-3.98,2.71l1.7,4.02-2.46,7.57-9.83,22.71h-2.46l-1.77-2.77c-1.85-2.65-4.9-5.21-7.84-6.9l-2.69-3.12c-5.7.44-22.63-27.05-38.42-17.77,8.63,12.09,17.97,21.23,29.05,30.95l2-5.44,4.92,2.52.09,8.64c.02,2.03,5.08-.56,7.06-.59l2.16.05.78,12.97c-1.84,2.73-3.74,6.9-5.07,10.49l-4.89,13.15-7.06,17.49c-2.44,6.05-6.56,17.59-7.81,23.59l-3.59,2.36c-.75.49.32,1.56,1.13,2.69l-1.59,9.84-5.7,1.36c-1.19.28.32,3.84.83,6.25.26,1.24,3.35-1.97,4.01-2.3v2.52l-10.6,8.49,6.38,9.6c-2.82,3.98-3.18,6.13,1.32,4.12,3.45-4.61,8.32-7.39,15.55-7.27,6.13-16.79,13.45-35.69,16.97-52.87l3.46-3.12c.97-.87-.11-3.56-1.11-4.38.68-.62,2.12-1.7,2.46-2.52l2.08-5.13c3.13-7.73,5.4-15.94,5.99-23.44l11.6-14.33,4.92,2.52h4.92c.08,1.27.77,4.21,1.18,5.41s3.46,2.1,4.74,2.16,1.29-4.33,1.46-5.04l4.92-1.87,9.83,2.09c5.53,1.18,6.22,7.67,7.3,12.61l7.84,35.73,4.19,20.13,2.93,11.73c1.82,7.29.13,20.08,16.58,21.11l6.15,2.87c1.67.78,6.33-4.45,5.87-6.2l-23.2-89.59c-.61-2.35.74-7.53,1.61-8.81,7.67-.68,14.22-4.26,18.42-10.86l6.39.97c1.94.3,5.91-1.19,7.38-2.52,1.04-.95,1.95-3.65,2.46-5.05,1.92-.53,5.05-3.01,5.23-5.05l.39-4.57c2.28-1.11,3.92-1.6,3.14-2.94-.86-1.47-2.74-6.11-3.84-5.11-1.34,1.22-3.61,3.38-5.04,4.92l-4.79,5.17h-4.92l-2.66,2.33-27.41,10.93c-1.61-4.31-3.96-11.05-4.78-16.25l-9.87-62.14c4.84-4.81,9.1-15.6,7.93-23.13-.91-5.84-5.27-17.83-12.64-15.23l-2.77-3.25c4.72-2.21,9.89-5.64,10.45-9.99.77-6.1-.17-11.32-1.88-17.1l-2.03-6.85c-.38-1.29-4.41.03-5.03,1.25l-2.06,4.05c-6.13,8.76-10.44,16.87-11.37,26.72ZM1000.56,194.3c-4.52-1.65-8.8-3.59-14.15.86l14.15,1.66-7.38,12.62c-.03-.29.84-4.08-.08-4.08h-7.78c-2.26,0-7.13,2.27-6.8,3.6-2.12.26-5.52.7-7.46.77l3.97-10.36c-1.04-.25-6.7-.88-7.46.99l-3.92,9.62c-6.26,7.99-9.71,20-7.34,29.74h-14.75l-14.75-5.05c-.06-.24-1.2-4.36-1.14-4.42s-3.55,1.78-3.78,1.89c-.52-1.31-1.01-3.96-2.3-4.12l-7.54-.92-2.38-3.9c-.76-1.24-3.93.77-5,1.38-.49-.01-2.45-.09-2.46,0,.02.28-.26-3.01-.33-3.97s-.51-.3-2.13,1.44h-2.46c0-.3-.07-5.16-.99-4.65l-3.92,2.13-6.94-3.01-5.64-5.25-4.63-4.35,1.54-12.61c-5.08-5.22-13.48-5.39-19.91-2.17-11.72,5.87-10.79,36.68-7.89,46.42,4.12,13.81,18.51-11.26,28.39-8.58l2.34,2.73c1.52,1.34,3.7,3.21,5.36,4.48l9.83,7.57,9.83,7.57c2.11,1.63,5.08,3.7,7.38,5.05l17.21,10.09c-.01.44-.32,3.18.46,3.46l4.46,1.59c3.41,1.21,10.13,5.85,11.28,9.35,2.79,8.5-7.23,25.66-1.44,33.55l-2.46,5.05c-3.1,6.36-5.18,13.18-4.92,20.19-.94,1.09-3.14,4.77-1.65,5.34l6.56,2.48c16.42,6.2,17.07-2.32,29.09,6.51,18.31,1.77,36.83.98,54.49-1.71.45-.07,46.06,1.22,46.9-7.36l2.26.27,4.88-1.66c1.09-.37-2.16-3.5-2.41-3.86l2.46-5.05,3.86-.49c.77-.1.48-1.77-.34-1.75-1.03.02-4.13,0-4.09,0-3.88-4.81-6.44-11.66-6.6-17.95l-.38-15.2c4.49-5.15,7.54-12.06,11.31-19.31l11.15-21.41c6.38-12.26,14.57-26.89,7.68-40.25-2.13-4.12-8.37-9.55-12.08-10.1-4.83-.71-12.26,3.07-16.37,7.65,3.32,1.47,6.55,2.68,8.31,2.73l9.83.26,2.46,7.31c-.89.37-2.39.9-2.07,1.46l2.07,3.59-2.69,11.96c-1.26,5.58-3.73,10.51-7.85,14.84l-12.14,23.67c-1.33-1.19-3.47-5.02-3.91-7.01l-2.91-13.18c.77-.36,2.43-.92,2.14-1.52l-1.74-3.53-2.29-17.48,11.71-11.96-6.14-4.25c-1.17-.81-1.84,3.56-2.25,4.95l-4.31-.82c-3.36-.64-.19-13.68-5.95-15.74.27-.77,1.63-3.54.82-4.29l-4.28-3.93-2.47-2.01c3.49-10.23,1.24-39.86-6.12-50.89-15.8.61-20.78,8.6-27.92,18.79-5.73,8.18-10.95,15.88-15.13,24.53ZM1499.15,185.15c-9.8,5.61-18.99,10.09-30.77,15.76-6.81,3.28-18.82,14.17-21.82,21.07l-8.34,19.16-7.43,16.25-8.12-5.27,5.67,12.84c1.3,2.94,2.03,9.23,2.46,12.62l-1.77,2.29c-.68.88-.73,5.53.22,4.99l4-2.24c13.17,9.77,27.22,17.9,41.79,25.23,7.42,12.24,20.33,18.78,34.31,19.62-1.93-7.72-3.94-12.35-7.27-17.1,4.36.41,10.58-.99,14.75-2.52l4.02,1.68c.95.4,2.51-1.07,3.35-1.68,3.44.42,10.49,1.62,14.45.89l32.26-5.94c1.45-.27,3.94-1.73,4.92-2.52,6.4-1.1,14.26-3.87,19.67-7.57l3.51,2.52,19.78-11.59c9.03,15.34,24.51,17.86,42.04,22.22,3.65-3.89,6.65-12.55,4.81-18.4-2.41-7.66-7.95-13.85-14.2-19.38,4.03-5.48,26.02-35.65,22.07-43.77-22.79.96-30.57,26.07-42.97,28.86l-3.08-.83-7.38-5.05-2.39-3.03c-1.65-2.09-4.29-4.26-6.74-5.7l-2.28-2.04c-3.96-5.29-9.61-9.87-15.63-11.95l-9.83-12.62c-.87-1.11-3.48-2.07-4.92-2.52-4.84-3-9.59-9.51-14.75-7.57-.31-1.33-1.84-4.28-3.17-4.9-1.59-.75-5.15-.67-6.67-.14-4.17-2.77-12.72-6.23-17.21-7.57-1.38-.41-3.09-.36-4.92,0l-4.92-2.52,10.99-13.41-5.71-5.17c-12.08,5.99-22.6,11.16-32.79,17ZM1408.19,287.35c5.49-4.54,8.8-8.2,10.72-11.06-2.86-10.29-2.77-15.2-1.25-26.11-4.7,6.77-7.94,17.76-1.6,24l-7.87,13.17ZM1424.64,287.84q0-3.13,0,0,0,5.85,0,0ZM1420.05,290.29l-9.55,1.16c1.71,6.35,8.66,5.01,9.55-1.16ZM924.4,345.72c1.16-.05,5.2-4.75,4.45-5.68-.83-1.04-1.95-2.44-1.83-2.29l-5.3,4.21c-.86.68,1.6,3.8,2.67,3.75ZM1552.56,375.96c2.53-2.78,4.49-4.4,4.3-6.01l-.71-6.08,8.81-7.69-23.39-18.14-4.28,9.39c-3.34-2.86-13.31-2.87-12.12.02l6.03,14.69c8.93.69,17.2,4.68,21.36,13.82ZM1084.46,343.86c.2,1.34.93,4.59,1.71,3.65l2.78-3.34c.53-.63-4.6-1.05-4.49-.3ZM932.24,355.99c-3.8-8.03-7.23-11.02-7.7-4l7.7,4ZM1079.16,355.55c3.84-3.15,3.44-5.94-3.04-2.17-5.94,1.04-4.13,1.55,3.04,2.17ZM960.55,359.96l-24.31-4.25c5.59,7.82,15.16,11.65,24.31,4.25ZM1067.07,357.1c.35.94,2.97,5.04,3.19,4.25l.81-2.97c.21-.77-4.28-2.05-4-1.28ZM1047.97,359.57c3.03,2.96,5.05,5.17,5.36,4.11l1.3-4.41c.31-1.06-2.13-.43-6.66.3ZM967.21,361.58c.62.92,2.95,5.2,2.8,4.26s2.04-3.83,1.11-3.92-4.47-1.16-3.91-.34ZM1030.34,363.36c0-1.55-1.23-2.81-2.74-2.81s-2.74,1.26-2.74,2.81,1.23,2.81,2.74,2.81,2.74-1.26,2.74-2.81ZM1040.12,364.09c1.39-1.81,3.34-4.35,0,0-7.02,1.23-5.15.9,0,0ZM984.92,367.15c0-.88-.7-1.6-1.56-1.6s-1.56.72-1.56,1.6.7,1.6,1.56,1.6,1.56-.72,1.56-1.6ZM456.36,382.29c0-.88-.7-1.6-1.56-1.6s-1.56.72-1.56,1.6.7,1.6,1.56,1.6,1.56-.72,1.56-1.6ZM577.14,488.07c0-14.49-11.44-26.24-25.56-26.24s-25.56,11.75-25.56,26.24,11.44,26.24,25.56,26.24,25.56-11.75,25.56-26.24ZM1184.36,488.07c0-14.49-11.44-26.23-25.56-26.23s-25.56,11.75-25.56,26.23,11.44,26.23,25.56,26.23,25.56-11.75,25.56-26.23ZM1676.03,488.07c0-14.49-11.44-26.23-25.56-26.23s-25.56,11.75-25.56,26.23,11.44,26.23,25.56,26.23,25.56-11.75,25.56-26.23ZM254.18,506.65c1.41-14.35,1.48-24.55,1.06-35.95-3.19-.29-9.65-.9-10.63,1.27l-4.34,9.59c-1.58,3-4.41,6.23-3.7,2.25-4.69-8.61-7.75-14.42-15.2-13.71-2.89,11.47-5.71,24.86,2.36,36.79l3.47-22.32c2.12,6.8,4.51,12.4,11.01,17.68l9.51-15.38c1.2,7.42-.56,12.98,6.47,19.77ZM336.13,504.3c1.6-5.42,1.39-18.06-1.49-22.61-1.79-2.84-11.68-2.25-13.03-2.34-1.83-4.8-3.37-8.08-6.33-11.48-1.86,16.01-2.21,24.77.89,38.97,3.52-5.98,3.93-12.35,4.83-17.73.65-2.01,6.37-6.33,7.25-4.36,6.38,14.42-4.14,20.6,7.89,19.55ZM506.36,496.57c-1.72-2.53-6.23-7.88-4.2-9.57l9.03-7.53c-4.33.74-10.96,2.41-15.71,3.89-1.29-4.87-2.76-10.34-6.87-16.22-2.54,15.03-2.34,23.96-.68,39.06,4.88-4.36,6.26-6.81,8.23-10.75l9.93,10.4c2.47-2.16,4.39-3.2,3.76-4.13l-3.5-5.15ZM788.31,468.54c-3.51,7.52-3.85,13.22-4.61,20.67-4.86-7.14-9.23-13.16-17.54-21.51-5.48,13.68-5.04,25.87-2.47,37.81,11.36-.1,7.56-11.02,8.83-18.79,4.51,8.17,7.75,14.82,17.2,19.75,2.23-14.49,3.07-23.67-1.4-37.92ZM877.32,504.31c4.03-5.78,3.46-17.72.37-22.61-1.59-2.52-9.58-2.94-12.7-2.51l-6.49-12.18c-4.1,15.29-5.48,24.6.47,40.2l8.88-24.12c9.16,2.78,2.87,30.66,9.47,21.22ZM909,506.43c2.6-8.54,3.36-16.38.69-23.26-1.33-3.43-10.14-4.29-13.19-5.16-1.72-2.72-4.53-7.06-6.93-9.97-2.49,13.88-2.67,23.68.53,38.62,3.67-6.16,4.31-12.77,5.23-18.43,1.12-1.84,6.46-5.13,7.16-3.22,6.18,16.89-2.36,16.39,6.51,21.42ZM955.4,469.58h-5.94v35.09h5.94v-35.09ZM1049.45,495.2c-1.78-2.07-4.85-6.98-3.31-8.33l8.42-7.4c-4.56.27-11.62,2.15-16.5,4.11-.47-4.16-1.43-10.34-5.32-15.81-5.95,3.8-.28,61.83,3.98,35.24l1.32-8.22,11.45,10.53c1.76-.84,5.99-3.08,5.14-4.07l-5.18-6.04ZM1446.48,499.35l.13-21.74c-2.23-8.04-15.19-7.55-25.18-8.08l-.02,34.18c7.43,2.3,22.31,1.54,25.07-4.36ZM1505.71,469.56h-6.06v35.11h6.06v-35.11ZM308.08,502.96c-2.99-3.42-6.68-7-6.31-9.93.4-3.17,2.91-8.07,5.1-12.02l-10.43-10.75c-8.62,6.9-4.69,30.05.77,33.53,2.45,1.56,9.11.36,10.87-.82ZM463.53,503.82c-4.05-5.16-7.66-9.37-7.32-12.52s4.12-7.15,6.77-9.53l-9.86-10.36-7.67,10.04c8.47,8.86,3.39,22.75,8.54,22.61l9.55-.24ZM978.69,502.78c-4.07-2.73-8.29-7.58-8.03-11.88.18-3,4.88-6.5,8.26-9.19l-12.09-9.96c-5.6,1.17-5.91,32.35,2.23,32.78,2.76.14,8.52-1.05,9.64-1.75ZM1117.16,503.3c-3.94-3.69-8.67-10.23-6.62-13.91,1.37-2.47,3.47-4.87,5.99-7.8l-10.49-10.89c-8.18,6.27-1.17,32.82,1.67,33.38,2.39.47,8.72-.34,9.45-.77ZM1561.92,516.59c2.01-.48,5.56-6.32,5.27-8.41s-2.45-5.49-4.09-6.86l-14.54-2.66,13.96-4.17,4.03-21.11c-11.79,8.32-24.12,3.2-24.18,8.34l-.11,11.2-3.34,22.46c5.4,1.94,17.49,2.52,23,1.2ZM1023.43,501.83l-17.89-3.17c4.78-1.8,14.24-2.31,15.21-5.61,1.44-4.86,2.92-14.62,3.41-18.7l-19.02,5.69c-8.85,2.65-4.51,6.98-8.54,30.5-1.14,6.63,21.42,11.48,27.63,1.66,1.32-2.1.41-9.54-.81-10.36ZM264.15,504.42l23.71.37c-.3-6.46-.7-13.42-1.55-19.14-.53-3.54-8.67-7.53-12.13-7.51-3.02.01-9.25,2.89-10.5,6.17,1.71,6.96,11.05-3.81,12.54.26,4.67,12.76,1.31-2.29-14.79,9.62-1.92,1.42.07,10.18,2.71,10.23ZM349.7,497.96l17.13-6.73c-.08-5.59-5.34-12.13-11.53-12.77-5.86-.61-11.74,3.75-13.49,10.35-1.33,5.03,2.36,12.14,8.55,15.59,4.08,2.27,12.58-.58,14.6-5.96l-15.27-.48ZM403.85,484.58l5.12,22.01c5.2-8.63,5.24-19.25,2.02-25.3-2.03-3.81-12.16-1.45-15.98-1.51l-23.74-.4c-.13,10.44.43,17.46,3.75,27.69l7.71-24.68c13.72,11.37-.14,21.71,11.55,21.73,2.3,0-.44-23.15,9.56-19.54ZM422.23,504.18l20.3.6-.36-22.02c-7.67-7.11-18.24-6.96-24.52,1.63,2.94,1.12,6.7,2.2,8.42,1.58l5.19-1.86c1.03-.37,2.51,4.22,1.42,4.38l-5.61.81c-3.41.49-7.45,1.87-8.99,3.8s1.63,11.01,4.14,11.08ZM800.1,504.42l23.71.37c-.33-6.53-.74-13.3-1.57-19.15-.5-3.5-8.74-7.58-12.17-7.48-3.2.1-8.43,2.49-11.02,6.39,3.48,6.32,11.42-4.03,13.11.03l1.57,3.75c1.85,4.44-3.56-3.72-16.35,5.86-1.91,1.43.05,10.19,2.72,10.23ZM834.73,496.76c-.73-2.95-.34-8.74,1.07-10.92,2.19-3.39,19.42,7.28,11.04-3.81-3.25-4.3-14.19-3.83-17.12.47-4.41,6.47-3.27,13.27-.23,18.71,3.05,5.45,14.64,4.47,17.68.87,11.68-13.83-10.78,1.35-12.43-5.32ZM921.39,504.19l20.19.6-.38-22.04c-7.64-7.08-18.26-6.95-24.5,1.64,2.9,1.12,6.72,2.19,8.38,1.59l5.23-1.88c1.03-.37,2.5,4.22,1.42,4.38l-5.6.8c-3.42.49-7.48,1.87-8.99,3.81s1.64,11.01,4.25,11.09ZM1062.89,497.17l18.95-5.95c-.66-1.63-3.38-7.94-5.02-9.85-4.23-4.94-15.22-2.25-17.8,2.36-3.37,6.02-2.09,17.17,3.08,19.41,7.9,3.43,14.98.87,19.93-5.28-8.07.02-10.37.4-19.15-.69ZM1477.94,478.39c-9.1.19-10.74,8.76-10.22,17.7.41,6.97,9.18,9.57,18.39,8.89,5.36-.4,8.67-9.32,7.27-17.53-1.11-6.54-6.95-9.24-15.45-9.06ZM1522.19,478.39c-9.1.19-10.74,8.76-10.22,17.71.41,6.89,9.17,9.64,18.39,8.88,5.34-.44,8.68-9.25,7.27-17.53-1.11-6.52-6.95-9.22-15.45-9.05ZM1593.65,497.96l17.13-6.73c-.08-5.59-5.34-12.13-11.53-12.77-5.86-.61-11.74,3.75-13.49,10.35-1.33,5.03,2.37,12.14,8.55,15.59,4.08,2.27,12.58-.58,14.6-5.96l-15.27-.48ZM476.73,479.44h-6.29v25.23h6.29v-25.23ZM1093.79,479.44h-6.29v25.23h6.29v-25.23ZM1461.46,479.38h-6.35v25.33h6.35v-25.33ZM1579.46,479.38h-6.35v25.33h6.35v-25.33ZM435.45,596.06l-6.07,2.16c-1.75.62,1.61,7.65.28,8.92-3.4,3.24-11.14,9.95-11.73,16.13-10.84,4.47-19,14.98-21.57,27l5.77,5.54c11.58-7.69,20.38-15.72,30.16-25.91l11.29-11.76c2.18.16,7.37.89,8.27-1.14s.39-9.2,1.89-10.81c4.73-5.09,17.58-14.55,17.78-21.52-11.86-16.56-23.5,15.65-36.05,11.38ZM980.18,640.44l-28.49-2.35,14.79,23.59,13.7-21.23ZM370.71,675.86c-5.99-4.61-3.07,29.73-3.42,42.97-.28,10.67-.81,19.44,1.25,27.93l.17,8.01-7.13,9.35c-.87-.6-1.4-1.34-1.56-.79l-1.11,3.79-4.26,4.46c-1.04,1.09,1.16,4.25,1.81,5.63l1.24,2.64c.24.51.63,2.27.2,2.03l-3.9-2.15c-1.79.9-1.82,1.42,0,2.52l-.37,5.05-4.55,7.57c-1.41-5.45-1.81-5.69-2.46,0l-2.46,2.52c-1.28,1.22-1.3,1.45,0,2.52l-.03,3.09c-7.84,2.43-11.02,16.38-7.47,23.21l-12.06,10.87-6.96,16.76,7.17,5.03-7.7,4.12c4.55-2.44-16.31,17.76-1.02,5.34l3.47-2.82,7.81,3.15c-.28,1.18-.32,8.03,1.68,8.22s5.31-.45,7.72-1.28c1.9,3.85,5.6,5.05,14.04,7.23l-4.21-9.75c4.36.35,12.47,1.58,17.21,2.52h4.92l2.68.55-10.29,3.68c23.15,11.39,13.65-11.16,57.03,1.83-1.62-1.62-4.89-3.4-6.38-3.89-1.6-.52-3.3-2.82-3.71-4.69h22.13l8.81,9.56,1.03-12.36c2.31-.66,7.15,1.54,9.5,1.03.1,2.08,4.25,8.05,6.16,6.57,2.41-1.87,5.14-6.37,5.87-9.2,1.73-.38,5,.76,7.63,1.37l2.19-12.03-4.55,3.79c-.59.49-2.19.68-2.15-.07.06-1.01.5-4.61.93-5.31.61-.99,4.31-3.7,3.17-3.79-.76-.05-2.53-2.82-2.91-2.14l-3.02,5.46-3.61-10.78,5.02-1.53c-5.03-6.99-8.15-12.15-9.12-18.55l-2.25-2.48-3.54-9.5-1.92-8.17c-.44-1.86-3.83-3.84-5.28-5.05-3.44-2.87-7.04-7-4.56-10.09.55-.13,3.42-2.75,2.71-3.75l-2.71-3.82c-2.6-4.14-5.86-8.93-7.13-12.2l-6.2-23.12c4.22-.11,2.39-7.18,1.95-12.01-1.71-18.61.56-36.92-3.36-53.6l-2.1-8.92c-.51-2.16-4.09-1.23-6.91-.62l-1.22-3.93c-.42-1.34-3.16-1.68-4.52-1.68h-24.58c-5.58,0-16.07,3.99-12.8,9.69ZM1622.9,698.48c-19.2-22.98-70.61-20.55-101.85-25.82-11.01-1.86-23.69,1.16-35.58,7.3l46.22.33c32.34.23,62.01,5.64,91.21,18.19ZM1628.8,698.94c0-1-.79-1.82-1.77-1.82s-1.77.81-1.77,1.82.79,1.82,1.77,1.82,1.77-.81,1.77-1.82ZM1468.22,736.31c-22.59,17.27-33.47,46.84-25.07,75.02,4.04,13.55,16.82,24.86,29.24,31.25,41.11,21.18,110.97,5.21,147.74-25.01,34.45-28.31,44.45-77.68,14.15-113.34-3.28-.15-6.95.98-4.77,3.03,15.76,16.9,20.41,36.08,15.7,57.05-14.75,65.65-122.1,95.26-171.64,70.6-19.15-9.53-28.46-28.3-24.41-50.47,4.77-26.11,20.75-46.75,41.8-61.89-9.13.53-14.93,7.78-22.74,13.74ZM968.6,719.16h-2.46l-2.46-2.52h-64.75c-.99,0-5.27,3-4.09,2.52-.78,0-2.08.44-2.15,1.23l-.31,3.82-2.46,2.79-.46-8.32c-.12-2.11-3.89-.36-6.05.81-5.84,3.19-15.58,12.11-13.47,19.86l-7.07,5.05-2.44,4.72c-10.39,1.4-15.98,43.27-2.14,45.75,0,6.27,2.43,11.99,7.03,17.66l8.29,28.36,1.54-10.69h2.46l2.46,2.52c1.68,1.72,4.73,5.47,5.54,7.74,1,2.75,1.83,7.81,2.65,12.22l6.55-1.79c10.06,1.24,20.56,1.85,31.92,2.2l22.63.7,1.88,11.95c18.96-.84,34.64.23,51.62,3.54l-10.23-5.31c-1.66-.86-6.76-1.3-6.89-2.93l-.5-6.34c4.36-.84,10.56-2.12,14.91-2.12h13.01c19.85,3.4-.19-3.65,25.38-2.47,2.01.09,1.23-4.98,1.3-7.29h2.46l1.48,5.64.98-8.17,7.78-4.24,9.19,1.91,2.41-18.65c-6.63,1.8-3.42,12.05-6.67,7.42l-2.88-4.1,7.38-7.57h2.46l.92,3.59c.36,1.39,3.05,1.24,8.4,2.14,1.5-6.91,2.84-14.11,2.84-20.87,1.7.53,6.85-4.19,6.97-6.95l1.09-26.51c.18-4.41-4.42-10.28-8.1-11.96,1.36-7.16-4.09-13.29-11.67-15.82l-.45,10.77c-4.17,19.37-2.46,40.35-2.46,60.56-1.28-.26-4.57-1.07-4.92-2.52l.4-50.4c.05-6.79.62-13.22-2.86-17.73-.01-.94,1.21-2.29,2.11-2.52l9.23-2.43-8.88-2.62c-4.27-1.26-8.88-4.37-12.29-7.57v-2.52c3.76-1.11,4.96-1.99,3.32-3.71-2.21-2.32-4.16-3.86-5.78-3.86h-71.88s-1.87,5.05-1.87,5.05ZM1053.03,718.53c-.22-2.73-.14-1.73.1,1.1.56,5.82.53,5.45-.1-1.1ZM882.89,845.33c0-.88-.7-1.6-1.56-1.6s-1.56.72-1.56,1.6.7,1.6,1.56,1.6,1.56-.72,1.56-1.6ZM432.97,881.01c0-1.36-1.08-2.47-2.41-2.47s-2.41,1.11-2.41,2.47,1.08,2.47,2.41,2.47,2.41-1.11,2.41-2.47ZM520.59,962.46c0-14.49-11.44-26.24-25.56-26.24s-25.56,11.75-25.56,26.24,11.44,26.24,25.56,26.24,25.56-11.75,25.56-26.24ZM1132.73,962.46c0-14.49-11.44-26.23-25.56-26.23s-25.56,11.75-25.56,26.23,11.44,26.23,25.56,26.23,25.56-11.75,25.56-26.23ZM1791.58,962.46c0-14.49-11.44-26.24-25.56-26.24s-25.56,11.75-25.56,26.24,11.44,26.24,25.56,26.24,25.56-11.75,25.56-26.24ZM869.21,972.38c.99-6.19,2.33-12.14,3.37-16.43-.26-.96-3.53-4.77-2.23-5.75l7.48-5.68c-2.57-.97-8.74-2.28-11.31-.69-2.21,1.36-5.8,8.47-5.5,11.08l2.59,22.56c.11.95,4.5,1.81,4.65.86l.95-5.94ZM1627.54,980.82l5.38-36.92c-.37-.85-6.8-1.02-9.46.19-2.28,1.03-4.16,7.65-4.71,10.59,3.56,8.02-5,20,8.78,26.14ZM286.56,950.58l8.3,2.82c1.38.47,5.04,2.85,5.54,1.65l2.01-4.89s-7.67-9.28-21.47-4.68c-3.67,1.22-6.71,8-7.88,13.89-1.47,7.39,3.16,17.19,8.94,19.32s16.07-.17,18.98-4.31c.69-.99.4-7.04-.62-6.44l-4.71,2.76c-2.83,1.65-8.16,3.58-9.99,1.44-7.38-8.61-1.84-22.51.91-21.57ZM324.67,973.24c.17,1.99,5.17,7.85,6,6.25,5.48-10.64,4.14-22.03-.4-23.95-2.95-1.25-8.21-2.29-11.75-3.16-1.65-3.72-3.43-9.96-8.58-8.5l-.03,33.47c0,.93,5.3,1.74,5.35.8l.24-4.71c.32-6.17,1.32-10.43,7.68-16.58l1.49,16.37ZM1061.66,969.56c-1.67-1.93-4.68-7.05-3.17-8.37l8.33-7.29c-4.51.2-11.6,2.08-16.47,4.08-.48-4.19-1.43-10.35-5.32-15.82-5.95,3.8-.28,61.83,3.98,35.27l1.32-8.25,11.46,10.53c1.75-.83,5.99-3.11,5.14-4.08l-5.26-6.06ZM1313.92,956.17c-5.46-3.14,3.66-7.39,10.83-4.71l2.57-5.79-21.59-.27,1.23,35.75c5.67-6.44,5.07-10.37,6.13-16.14l15.31-2.38c-5.68-2.6-10.62-4.24-14.48-6.45ZM1403.89,973.11c.17,2.09,5.17,8.02,5.99,6.4,5.66-11.14,3.91-22.36-.39-23.98-2.99-1.13-8.15-2.28-11.77-3.21-1.58-3.56-3.45-9.96-8.56-8.44l-.04,33.47c0,.93,5.3,1.74,5.35.8l.24-4.71c.32-6.18,1.31-10.43,7.68-16.57l1.48,16.24ZM1583.34,980.1l-8.21-30.46c-.5-1.86-3.93-4.96-5.59-5.41-9.52-2.58-16.05,33.21-13.62,35.43,6.47-3.44,10.8-9.87,13.35-8.29l14.07,8.72ZM1653.96,953.3c-3.32-.12-7.23,1.04-7.51-.13l-1.97-8.32-5.45-.06-1.98,34.59,20.09-1.16c4-.23,6.62-10.92,6.09-14.93-.47-3.56-5.71-9.86-9.26-9.99ZM821.1,946.26h-4.92v32.8h4.92v-32.8ZM1020.57,978.44c-6.07-6.79-8.68-8.81-8.86-13.1-.13-3.11,5.66-6.5,9.19-8.87l-12.45-10.26-7.42,9.6c8.53,8.97,3.28,22.8,8.68,22.74l10.85-.11ZM348.36,969.25l11.64-2.57c2.29-.51.96-7.82-.26-9.85s-5.05-3.5-8.05-3.91c-10.89-1.47-15.15,6.82-14.85,15s8.65,12.93,17.26,11.22c1.44-.29,4.97-1.62,6.22-2.16s.63-5.16-.7-4.92l-6.52,1.17-4.98.9c-1.04.19-.93-4.61.23-4.87ZM396.91,957.47c3.19,7,4.47,13.23,7.13,22.99,5.68-4.96,5.47-17.51,1.17-24.74-2.19-3.68-11.85-1.49-15.9-1.61l-21.54-.66c-2.96,8.56-3.22,20.01,3.2,27.91,3.61-10.51,4.82-16.89,9.21-24.3,10.39,8.47-1.8,18.08,7.42,22.59,6.97,3.41-.61-19.77,9.32-22.18ZM438.58,969.12l16.92-2.8c-1.27-4.82-5.1-11.42-8.5-12.59-2.98-1.02-10.64-.64-13.42,1.2-6.35,4.19-5.98,14.8-1.69,19.32,4.89,5.17,12.52,6.74,18.61,3.14.64-1.95,1.55-5.61.29-5.45l-4.93.63-5.81.75c-.85.11-1.82-4.32-1.45-4.2ZM841.26,956.43c5.11,10.1,4.65,14.24,7.3,24.42,7.02-6.35,5.71-18.51,1.03-26.61-5.15-.77-14.54-.65-20.64-.28-1.18,10.1-1.59,18.86,3.53,27.33l8.78-24.86ZM877.22,961.72c-.42,10.69,2.43,16.13,9.24,17.5,5.56,1.12,14.17-1.29,15.23-7.08,1.73-9.55-1.29-17.52-8.74-18.84-6.09-1.08-15.37-.38-15.72,8.42ZM957.4,957.47c3.26,7.02,4.49,13.21,7.15,23.02,5.7-5.08,4.98-18.27,1.4-24.39-2.33-3.99-12.1-1.86-16.16-1.99l-21.48-.67c-3,8.61-3.31,20.02,3.25,27.92,3.6-10.33,4.39-17.28,9.36-24.06,9.98,8.21-1.93,17.98,7.2,22.35,6.99,3.35-.62-19.64,9.3-22.19ZM983.41,963.38c-4.34.14-9.97,3.22-10.36,6.41-.31,2.54,2.58,9.41,5.02,9.35l19.26-.52c.62-6.99,1.14-17.62-1.89-21.91-4.79-6.79-17.29-4.45-22.07,2.13,11.65,7.06,11.7-7.94,17.62,3.38.53,1.01-3.12,1.01-7.57,1.16ZM1334.55,978.59l19.91.56c.16-7.19.62-16.61-1.09-21.48-3.35-9.51-17.94-6.22-22.7.18-.72,1.57,5.45,3.34,7.61,2.51l5.08-1.94c1.03-.39,2.48,4.3,1.39,4.46l-5.6.8c-3.41.49-7.48,1.86-8.98,3.81s1.5,11.02,4.38,11.1ZM1372.97,973.28c-2.51,1.16-6.56-3.98-6.6-7.13-.03-2.2,2.99-7.17,5.03-6.58l8.99,2.61c.97-5.67-5.24-9.81-9.77-9.48-5.41.39-10.51,3.29-11.63,7.02-1.67,5.53-.7,10.13,2.73,15.13,3.85,5.61,14.88,5.32,17.96,1.4.83-1.05,1.87-6.91.66-6.36l-7.37,3.4ZM1427.76,969.2l11.48-2.52c2.26-.5.95-7.83-.27-9.86s-5.05-3.5-8.05-3.91c-10.9-1.47-15.16,6.82-14.84,15s8.56,12.93,17.3,11.22c1.36-.26,4.93-1.63,6.18-2.17,1.25-.54.62-5.15-.72-4.91l-6.48,1.15-4.98.9c-1.03.19-.74-4.67.38-4.91ZM1525.23,957.6c3.37,6.67,4.57,13.2,7.16,22.87,5.8-5.03,5.5-17.4,1.2-24.78-2.11-3.62-11.85-1.45-15.93-1.58l-21.49-.66c-2.97,8.55-3.3,20.04,3.25,27.89,3.55-10.27,4.58-17.32,9.26-24.03,10.17,7.91-1.85,18.01,7.3,22.34,7,3.32-.6-19.7,9.25-22.06ZM1670.35,978.81l23.69.38c-.27-6.31-.69-13.87-1.5-18.95-.61-3.81-8.73-7.83-12.19-7.7-3.19.12-8.62,2.59-10.9,6.35,3,6.47,11.49-4.03,12.97.07,4.63,12.82,1.33-2.31-14.8,9.63-1.92,1.42.08,10.17,2.72,10.22ZM422.65,953.83h-6.29v25.23h6.29v-25.23ZM914.69,971.26c.71-4.96,4.31-9.84,9.6-16.69l-17.32-.53.63,21.77c.04,1.55,5.74,4.92,5.96,3.37l1.13-7.93ZM1453.07,971.26c.71-4.96,4.31-9.84,9.6-16.69l-17.32-.53.63,21.77c.04,1.55,5.74,4.92,5.96,3.38l1.13-7.93ZM1486.82,953.83h-6.35v25.23h6.35v-25.23ZM1602.35,964.67l-1.07,8.49c-.19,1.54-5.85.61-5.92-.94l-.27-6.01c-.21-4.54-1.19-12.68-4.32-12.41-8.17,2.63-6.56,19.6,1.62,23.7,4.29,2.15,13.41,1.66,20.49,1.59l-1.79-26.03c-7.3.94-7.97,5.51-8.74,11.61ZM1720.66,951.37c-8.9,8.16.94,7.21-8.13,22.43-.72,1.2-5.42-1.56-5.66-2.88l-3.34-18.51c-7.09,6.35-5.73,18.65-.87,25.49,4.57,1.3,14.12,1.23,20.15.77.28-10.19.08-15.9-2.15-27.3Z"/>
  <polygon class="st26" points="344.17 873.08 336.8 875.61 336.8 870.56 344.17 873.08"/>
  <path class="st8" d="M904.69,724.21h140.13c3.41,3.2,8.02,6.31,12.29,7.57l-.35,5.05c-.9.24-2.12,1.59-2.11,2.52.22,17.03-1.54,51.6,2.46,68.13.35,1.45,3.63,2.27,4.92,2.52v5.05l-7.38,7.57-2.05,13.42-7.78,4.24c-.77.42-1.84,1.81-2.46,2.52h-2.46c-8.5,2.13-18.45,4.53-27.04,5.05-1.88.11-5.29,0-7.38,0-5.92-4.25-84.3-3.5-90.96-.42-4.98-1.31-13.4-1.73-17.21.42l-1.09-6.85-10.58-.56c-.82-2.26-3.86-6.01-5.54-7.74v-93.36c.6-1.32,1.65-3.91,2.46-5.05l4.92-6.97,2.46-.34,2.46-2.79h12.29Z"/>
  <path class="st23" d="M1526.66,186.73l4.92,2.52c.67.34,1.65,1.68,2.14,2.29.72.89,2.36-1.47,2.77-2.29,4.49,1.34,13.04,4.8,17.21,7.57,2.86,1.9,6.74,4.03,9.83,5.05,5.16-1.94,9.91,4.58,14.75,7.57,0-.04,1.04,4.79,1.08,4.72.05-.07,3.62-2.07,3.83-2.19l9.83,12.62c3.7,4.75,10.55,9.21,15.63,11.95l2.28,2.04,2.27,6.38c.49,1.37,3.44.27,4.48-.68l2.39,3.03c.94,2.8,2.84,5.83,4.92,7.57l4.92,2.52c-.09.6-.02,1.73,0,2.52h-4.92c-2.05,2.69-3.73,6.45-4.92,10.09l-2.46,7.57-22.13,15.14c-5.41,3.7-13.27,6.47-19.67,7.57l-3.92-2.3c-.92-.54-1,4.7-.99,4.82l-32.26,5.94c-3.96.73-11-.48-14.45-.89l-3.65-7.76-3.72,7.76c-4.17,1.53-10.39,2.93-14.75,2.52l-27.04-2.52c-14.57-7.33-28.62-15.46-41.79-25.23l-2.46-5.05c-.43-3.39-1.16-9.68-2.46-12.62l2.46-7.57,7.43-16.25,8.34-19.16c3.01-6.9,15.01-17.79,21.82-21.07,11.78-5.67,20.98-10.15,30.77-15.76l2.65,5.44,24.86-3.86ZM1529.4,206.92c0-1.55-1.23-2.81-2.74-2.81s-2.74,1.26-2.74,2.81,1.23,2.81,2.74,2.81,2.74-1.26,2.74-2.81ZM1549.06,211.96c0-1.55-1.23-2.81-2.74-2.81s-2.74,1.26-2.74,2.81,1.23,2.81,2.74,2.81,2.74-1.26,2.74-2.81ZM1542.11,220.79c3.03,2.96,5.05,5.16,5.36,4.11l1.3-4.41c.31-1.06-2.13-.43-6.66.3ZM1564.89,236.23c7.97-7.52,2.45-12.6-3.02-16.45l3.02,16.45ZM1537.25,237.15c.59-6.09.75-8.98.5-10.18l-.5,10.18ZM1583.49,235.02c0-1.36-1.08-2.47-2.41-2.47s-2.41,1.11-2.41,2.47,1.08,2.47,2.41,2.47,2.41-1.11,2.41-2.47ZM1551.24,244.77l.1,4.01c.02.86.8,2.59,1.3,3.83s3.7-3.04,5.88-5.67l13.97,14.7c1.21-2.65,1.94-4.69,2.58-4.88,1.03-.31,3.97-.5,3.13-.92l-5.45-2.77-9.23-4.72c-2.36-1.21-.56-7.42-.41-10.69-2.57,2.92-8.4,7.62-11.87,7.13l-9.35-7.4,9.35,7.4ZM1530.82,252.19l.05-5.17c.01-1.1-4.93,2-4.59,2.98l4.44,12.76.1-10.57ZM1582.3,248.55c0-.88-.7-1.6-1.56-1.6s-1.56.72-1.56,1.6.7,1.6,1.56,1.6,1.56-.72,1.56-1.6ZM1551.57,257.38c0-.88-.7-1.6-1.56-1.6s-1.56.72-1.56,1.6.7,1.6,1.56,1.6,1.56-.72,1.56-1.6ZM1547.17,290.35l9.77-16.11c-7.66-4.94-14.41-9.86-23-12.19l17.3,14.72c-3.44,5.08-5.66,10.29-4.07,13.58ZM1571.19,267.48c0-1.55-1.23-2.81-2.74-2.81s-2.74,1.26-2.74,2.81,1.23,2.81,2.74,2.81,2.74-1.26,2.74-2.81ZM1529.41,275.4c0-1.36-1.08-2.47-2.41-2.47s-2.41,1.11-2.41,2.47,1.08,2.47,2.41,2.47,2.41-1.11,2.41-2.47ZM1529.12,288.93c0-.7-.55-1.26-1.23-1.26s-1.23.56-1.23,1.26.55,1.26,1.23,1.26,1.23-.56,1.23-1.26ZM1541.28,291.67l-9.62-4.17c1.65,4.6,5.18,6,9.62,4.17Z"/>
  <path class="st23" d="M971.06,209.73c1.94-.07,5.34-.51,7.46-.77l9.75,3c5.36,13.23-10.84,25.39-6.46,32.76,1.15,1.94,5.02,4.69,7.22,4.84,2.21.15,7.35-3.91,8.05-6.3l8.4-28.78c3.94,1.58,11.84,4.26,16.16,3.65l25.63-3.65,4.92-2.4h3.47c5.76,2.07,2.59,15.11,5.95,15.74l4.31.82-3.33,11.25,2.29,17.48-.39,5.05,2.91,13.18c.44,1.99,2.58,5.82,3.91,7.01-2.04,3.97-2.02,12.28-2.01,17.09l-23.33,7.38c-2.76.87-7.18,5.49-8.53,8.03l-5.54,1.05c-1.06.2-3.28-.13-4.3-.48-1.05-1.43-2.13-2.46-2.46-1.11l-15.24,1.56c-4.39.45-8.84,1.66-11.8,4.31l-5.48.68c-19.68-5.09-18.44,2.85-36.48-2.28l-12.12-3.45c-5.79-7.89,4.23-25.05,1.44-33.55-1.15-3.49-7.87-8.13-11.28-9.35-.11-1.26-.2-4.21-1.43-4.43l-3.48-.62-17.21-10.09c-.09-1.37-.22-4.71-1.55-4.77l-5.82-.27-9.83-7.57c-.24-4.46-5.23-7.22-9.83-7.57-1.66-1.28-3.84-3.14-5.36-4.48l-2.34-2.73-1.72-7.53,9.85-5.93,6.94,3.01,4.92,2.52h2.46c.31.32,2.44,2.71,2.46,2.52,0-.09,1.97-.01,2.46,0,1.77,2.36,5.39,4.05,7.38,2.52l7.54.92c1.29.16,1.78,2.81,2.3,4.12l4.92,2.52,14.75,5.05c2.22.76,6.7,3.47,9.23,4.77,1.74.89,4.86-2.98,5.52-4.77-2.37-9.73,1.09-21.75,7.34-29.74l7.41-.25ZM949.24,252.88c.37,1.97.88,4.71,1.67,3.77l2.82-3.31c.53-.63-4.64-1.26-4.49-.47ZM946.91,267.85l.41,7.27c.06.98,4.05-.43,4.08-1.41l.14-4.94c.03-.98-4.69-1.88-4.64-.92Z"/>
  <path class="st0" d="M418.67,741.41c2.01-.27,5.04,3.49,5.58,5.5l6.2,23.12c1.27,3.27,4.53,8.06,7.13,12.2-.53.17-2.99,2.57-2.4,3.56l2.4,4.01c-2.49,3.09,1.11,7.23,4.56,10.09l.28,7.57c.05,1.36.49,4.76,1.8,4.94l5.11.71,3.54,9.5c.32.85,1.85,2.26,2.25,2.48.97,6.4,4.1,11.56,9.12,18.55l-5.02,1.53,3.61,10.78,3.02-5.46c.38-.68,2.15,2.09,2.91,2.14,1.14.08-2.56,2.79-3.17,3.79-.43.7-.86,4.3-.93,5.31-.05.76,1.56.56,2.15.07l4.55-3.79-2.19,12.03c-2.63-.61-5.89-1.75-7.63-1.37l-12.02,2.63c-2.34.51-7.19-1.69-9.5-1.03l-9.83,2.81h-12.29c-.43-.79-2.44-2.79-3.69-2.79s-3.26,2.01-3.69,2.79h-2.46l-12.99.39c-7.91.24-16.48.11-23.67,2.68l-2.68-.55-1.03-5.19c-.18-.91-3.89.55-3.89,1.48v3.71c-4.74-.94-12.85-2.18-17.21-2.52-.6-.05-1.71,0-2.46,0l-7.38-2.52c-2.27-.78-7.17-.99-9.4-1.89l-7.81-3.15-2.46-2.52,7.7-4.12-7.17-5.03,6.96-16.76,12.06-10.87c-3.54-6.83-.37-20.79,7.47-23.21,5.28-1.63,13.83-6.88,9.49-15.71l.37-5.05v-2.52l3.9,2.15c.44.24.05-1.52-.2-2.03l-1.24-2.64h2.46c.51-.38.42-1.03,0-2.52l2.46-2.52,5.29-5.47c1.08-1.12-4.21-1.83-5.08-2.57l7.13-9.35,8.51-.44c1.6-.08-.02-2.96-1.09-4.88l7.69-6.96c10.05.49,26.42.07,34.85-1.06ZM387.41,850.56c-9.03-.7-18.16-8.36-25.47,2.05l60.59-.23c-11.28-10.52-22.91-2.28-35.12-1.82ZM435.13,854.16c0-.7-.55-1.26-1.23-1.26s-1.23.56-1.23,1.26.55,1.26,1.23,1.26,1.23-.56,1.23-1.26Z"/>
  <path class="st18" d="M415.47,188.48c1.17-.24,5.45,3.36,5.88,5.67,9.5,50.94,20.99,103.35,32.88,153.23l-9.12,5.01-7.38.55-2.93-11.73-4.19-20.13-7.84-35.73c-1.08-4.95-1.77-11.44-7.3-12.61,3.68-4.21,2.67-6.12,2.01-10.58l-2.28-15.55c-.63-4.31-2.25-10.86-2.49-14.59l-2.16-32.68c-.13-1.98-1.72-5.99-3.37-5.59-1.87.45-5.87,2.02-7.15,3.18-1.6,1.45-1.08,7.01.69,7.46l-7.38,20.19-3.47.52c-.82.12-2.4,2.82-1.66,3.19l2.67,1.34c-1.28,3.3-3.46,7.47-5.74,11.4l.1,5.88c-2.22,1.45-4.28,6.81-4.66,10.4l-.65,2.41-8.03,22.09c-.59,7.49-2.87,15.71-5.99,23.44l-2.08,5.13-3.49-2.89c-.69-.57-2.32,3.62-1.53,4.04l2.56,1.37c1,.82,2.08,3.51,1.11,4.38l-3.46,3.12-2.87,1.55-10.2,24.94-9.17,3.86c-.82.34-1.91,1.82-2.46,2.52l-4.05-2.78,1.59-9.84c.79-1.17,2.15-3.59,2.46-5.05,1.25-6,5.37-17.54,7.81-23.59l7.06-17.49,4.89-13.15c1.34-3.6,3.24-7.76,5.07-10.49,2.41-3.28,5.02-9.21,6.43-13.5.12-1.28.19-3.88.69-5.05l9.83-22.71c.89-2.06,1.86-5.22,2.46-7.57l-1.7-4.02c-.51-1.22,3.1-2.37,3.98-2.71.36.37,1.56,1.6,1.42,1.46,1.4-11.02,9.47-18.43,3.68-17.45l.28-6.05c.06-1.38,3.3-1.52,4.64-1.52h7.38c4.78,0,13.23-.62,17.21-3.3Z"/>
  <path class="st18" d="M998.1,320.47l.15,5.32c-1.41-.25-2.22-.4-3.17-.48-1.26-.1-2.61-3.56-2.46-4.16l5.48-.68Z"/>
  <path class="st18" d="M1072.07,315.42c.16,6.28,2.72,13.14,6.6,17.95l.56,2.24-2.46,5.05-2.46,5.52-2.26-.27c-20.03-2.4-35.48,4.86-51.81,4.84l-46.9-.04-2.67,4.27c-12.03-8.83-12.67-.31-29.09-6.51l-4.92-7.82c-.26-7.01,1.82-13.83,4.92-20.19l5.88,2.83c12.43,5.99,26.38,4.89,40.53,3.5l10.28-1.01,10.66-.76c2.14-.15,3.36-3.01,3.56-6.22,4.24,3,14.55,3.48,20.05,1.66l4.38-1.46c.81-.27.13-3.12.53-3.89,9.06.77,17.36-2.69,27.76-7.49l6.87,7.79Z"/>
  <path class="st15" d="M1468.22,736.31c7.8-5.96,13.61-13.21,22.74-13.74-21.05,15.14-37.03,35.78-41.8,61.89-4.05,22.16,5.26,40.93,24.41,50.47,49.54,24.65,156.89-4.95,171.64-70.6,4.71-20.96.06-40.14-15.7-57.05-2.18-2.05,1.49-3.18,4.77-3.03,30.3,35.66,20.29,85.03-14.15,113.34-36.77,30.22-106.63,46.19-147.74,25.01-12.42-6.4-25.2-17.7-29.24-31.25-8.4-28.18,2.48-57.75,25.07-75.02Z"/>
  <path class="st16" d="M1595.49,292.71l22.13-15.14,2.88,3.68c.43.54,1.61.96,1.67.26l.36-3.94,2.46-5.05c.29-.59,0-1.65,0-2.52,3.25-1.66,5.03-6.09,4.92-10.09-.02-.79-.09-1.92,0-2.52l.62-4.22c12.4-2.79,20.18-27.89,42.97-28.86,3.95,8.12-18.05,38.29-22.07,43.77,6.26,5.52,11.79,11.72,14.2,19.38,1.84,5.85-1.16,14.51-4.81,18.4-17.52-4.36-33-6.88-42.04-22.22l-19.78,11.59-3.51-2.52Z"/>
  <path class="st4" d="M1049.73,201.87c-.46-.38-1.51-.08-2.46,0l-4.92-2.52c-6.9-12.46,4.21-12.63-1.72-26.63-.97-2.3-7.94-3.98-10.15-2.3-6.28,4.76-13.48,15.91-15.17,23.88l-2.46,5.05-2.46,5.05c-3.7,1.84-3.72,5.98-4.92,10.09l-8.4,28.78c-.7,2.39-5.84,6.44-8.05,6.3-2.21-.15-6.07-2.9-7.22-4.84-4.38-7.37,11.82-19.53,6.46-32.76l4.92-2.52,7.38-12.62v-2.52c4.18-8.65,9.39-16.35,15.13-24.53,7.14-10.19,12.13-18.18,27.92-18.79,7.36,11.03,9.61,40.66,6.12,50.89Z"/>
  <path class="st2" d="M577.14,488.07c0,14.49-11.44,26.24-25.56,26.24s-25.56-11.75-25.56-26.24,11.44-26.24,25.56-26.24,25.56,11.75,25.56,26.24ZM554.99,492.52c-1.39,5.24-1.74,6.58-1.89,10.84l15.13-15.49-14.99-14.89,1.76,11.62c-8.92,1.2-13.45,1.65-20.66,3.86l20.65,4.06Z"/>
  <path class="st2" d="M1676.03,488.07c0,14.49-11.44,26.23-25.56,26.23s-25.56-11.75-25.56-26.23,11.44-26.23,25.56-26.23,25.56,11.75,25.56,26.23ZM1653.89,492.51c-1.39,5.25-1.73,6.56-1.89,10.85l15.13-15.5-14.98-14.89,1.76,11.62c-8.92,1.2-13.45,1.65-20.66,3.86l20.65,4.05Z"/>
  <path class="st2" d="M1791.58,962.46c0,14.49-11.44,26.24-25.56,26.24s-25.56-11.75-25.56-26.24,11.44-26.24,25.56-26.24,25.56,11.75,25.56,26.24ZM1769.43,966.9c-1.37,5.23-1.73,6.67-1.93,10.75,6.19-5.75,10.32-10.01,15.06-15.42l-14.85-14.86,1.72,11.63c-8.9,1.2-13.44,1.65-20.65,3.86l20.65,4.05Z"/>
  <path class="st2" d="M520.59,962.46c0,14.49-11.44,26.24-25.56,26.24s-25.56-11.75-25.56-26.24,11.44-26.24,25.56-26.24,25.56,11.75,25.56,26.24ZM498.45,966.91c-1.39,5.24-1.74,6.58-1.89,10.84l15.12-15.51-14.97-14.86,1.76,11.61c-8.92,1.2-13.45,1.65-20.66,3.86l20.65,4.05Z"/>
  <path class="st2" d="M1132.73,962.46c0,14.49-11.44,26.23-25.56,26.23s-25.56-11.75-25.56-26.23,11.44-26.23,25.56-26.23,25.56,11.75,25.56,26.23ZM1110.59,966.9c-1.37,5.23-1.73,6.67-1.93,10.75,6.18-5.75,10.31-10,15.06-15.43l-14.84-14.85,1.71,11.62c-8.9,1.2-13.43,1.65-20.65,3.86l20.65,4.05Z"/>
  <path class="st2" d="M1184.36,488.07c0,14.49-11.44,26.23-25.56,26.23s-25.56-11.75-25.56-26.23,11.44-26.23,25.56-26.23,25.56,11.75,25.56,26.23ZM1162.2,492.51c-1.36,5.26-1.7,6.62-1.94,10.77,6.25-5.81,10.32-9.99,15.08-15.46l-14.84-14.84,1.71,11.62c-8.9,1.2-13.44,1.65-20.65,3.86l20.64,4.05Z"/>
  <path class="st3" d="M439.48,260.56c1.42,3.79,3.36,7.99,5.27,11.76-.86,1.29-2.21,6.46-1.61,8.81l23.2,89.59c.46,1.76-4.2,6.98-5.87,6.2l-6.15-2.87.81-7.52,7.21,4.67-8.08-16.89c-.75-1.58-.43-5.76-.02-6.93-11.9-49.88-23.38-102.29-32.88-153.23-.43-2.31-4.71-5.91-5.88-5.67l9.36-6.31,9.87,62.14c.82,5.19,3.17,11.94,4.78,16.25Z"/>
  <path class="st4" d="M424.83,182.17l-9.36,6.31c-3.97,2.68-12.43,3.3-17.21,3.3l-7.66-2.52c-4.88-7.34-10.22-15.37-10.4-23.82-.19-8.86,5.42-17.37,12.71-21.27l6.46.62c-2.01,3.01-4.47,7.62-6.18,11.66-3,7.1-2.18,20.42,6.49,24.36,4.94,2.26,15.81-5.53,18.93-10.13,3.36-4.96,2.68-15.39,2.02-21.8l-.52-5.07c7.37-2.6,11.73,9.39,12.64,15.23,1.17,7.53-3.09,18.32-7.93,23.13Z"/>
  <path class="st25" d="M1622.9,698.48c-29.2-12.55-58.88-17.95-91.21-18.19l-46.22-.33c11.89-6.14,24.57-9.15,35.58-7.3,31.24,5.26,82.66,2.84,101.85,25.82Z"/>
  <path class="st20" d="M1071.69,300.22l-2.39-.51c-.01-4.81-.03-13.12,2.01-17.09l12.14-23.67c4.12-4.33,6.59-9.27,7.85-14.84l2.69-11.96c1.2-.94,1.9-1.35,1.53-2.21-.23-.53-1.33-2.25-1.53-2.83l-2.46-7.31c-.57-1.7-4.4-4.15-5.84-3.12l-4,2.86c-1.76-.05-5-1.26-8.31-2.73,4.11-4.58,11.54-8.36,16.37-7.65,3.71.55,9.96,5.98,12.08,10.1,6.89,13.36-1.3,27.99-7.68,40.25l-11.15,21.41c-3.77,7.25-6.82,14.15-11.31,19.31Z"/>
  <path class="st15" d="M254.18,506.65c-7.03-6.79-5.28-12.35-6.47-19.77l-9.51,15.38c-6.49-5.28-8.89-10.88-11.01-17.68l-3.47,22.32c-8.07-11.93-5.25-25.32-2.36-36.79,7.45-.71,10.51,5.1,15.2,13.71-.71,3.98,2.12.75,3.7-2.25l4.34-9.59c.98-2.17,7.43-1.56,10.63-1.27.42,11.4.35,21.6-1.06,35.95Z"/>
  <path class="st15" d="M1023.43,501.83c1.21.82,2.13,8.26.81,10.36-6.2,9.82-28.76,4.97-27.63-1.66,4.03-23.52-.31-27.85,8.54-30.5l19.02-5.69c-.49,4.08-1.97,13.84-3.41,18.7-.98,3.3-10.43,3.81-15.21,5.61l17.89,3.17Z"/>
  <path class="st15" d="M1561.92,516.59c-5.51,1.32-17.59.74-23-1.2l3.34-22.46.11-11.2c.05-5.15,12.38-.03,24.18-8.34l-4.03,21.11-13.96,4.17,14.54,2.66c1.64,1.36,3.79,4.77,4.09,6.86s-3.26,7.93-5.27,8.41Z"/>
  <path class="st9" d="M1446.48,499.35c-2.76,5.9-17.63,6.66-25.07,4.36l.02-34.18c9.99.53,22.95.04,25.18,8.08l-.13,21.74Z"/>
  <path class="st19" d="M1042.36,199.35c-.4.35-3.8,3.68-2.59,3.94,1.3.28,4.11,1.35,5.08.55l2.42-1.97c.95-.08,1.99-.38,2.46,0l2.47,2.01c-3.24,10-39.55,3.3-41.81.52l2.46-5.05,6.25-.04c1.06,0-.26-3.03-1.26-3.59l-2.53-1.41c1.69-7.96,8.89-19.12,15.17-23.88,2.22-1.68,9.18,0,10.15,2.3,5.93,14-5.18,14.16,1.72,26.63ZM1025.15,196.82v5.05h12.29v-5.05h-12.29Z"/>
  <path class="st4" d="M875.19,206.92c-16.24.42-17.31,32.99-26.26,31.64-2.91-9.74-3.83-40.55,7.89-46.42,6.43-3.22,14.83-3.06,19.91,2.17l-1.54,12.61Z"/>
  <path class="st15" d="M788.31,468.54c4.48,14.25,3.63,23.43,1.4,37.92-9.45-4.93-12.69-11.57-17.2-19.75-1.26,7.77,2.53,18.69-8.83,18.79-2.56-11.94-3.01-24.13,2.47-37.81,8.3,8.35,12.68,14.38,17.54,21.51.76-7.44,1.1-13.14,4.61-20.67Z"/>
  <path class="st18" d="M1076.61,754.49l.04,45.42c0,6.76-1.33,13.96-2.84,20.87-5.35-.9-8.05-.75-8.4-2.14l-.92-3.59c.14.73,2.5-4.15,2.5-5.7v-54.34c0-1.44-2.38-6.26-2.5-5.56l.45-10.77c7.58,2.53,13.03,8.66,11.67,15.82Z"/>
  <path class="st10" d="M865.35,812.52c-4.6-5.67-7.04-11.4-7.03-17.66l.03-35.65c0-2.69,1.4-8.13,2.1-10.1l2.44-4.72,7.37,1.02.04,63.65c0,1.58-4.85,4.46-4.95,3.46Z"/>
  <path class="st28" d="M396.91,957.47c-9.93,2.41-2.35,25.59-9.32,22.18-9.22-4.51,2.97-14.12-7.42-22.59-4.39,7.41-5.6,13.79-9.21,24.3-6.42-7.9-6.16-19.35-3.2-27.91l21.54.66c4.05.12,13.71-2.07,15.9,1.61,4.3,7.23,4.51,19.78-1.17,24.74-2.66-9.77-3.94-16-7.13-22.99Z"/>
  <path class="st28" d="M957.4,957.47c-9.92,2.54-2.31,25.53-9.3,22.19-9.13-4.37,2.79-14.14-7.2-22.35-4.97,6.78-5.75,13.73-9.36,24.06-6.56-7.9-6.24-19.31-3.25-27.92l21.48.67c4.06.13,13.83-2,16.16,1.99,3.58,6.12,4.3,19.31-1.4,24.39-2.66-9.81-3.89-15.99-7.15-23.02Z"/>
  <path class="st28" d="M1525.23,957.6c-9.85,2.36-2.25,25.38-9.25,22.06-9.15-4.33,2.87-14.43-7.3-22.34-4.67,6.72-5.71,13.76-9.26,24.03-6.55-7.85-6.22-19.34-3.25-27.89l21.49.66c4.08.13,13.82-2.04,15.93,1.58,4.3,7.38,4.6,19.75-1.2,24.78-2.58-9.67-3.79-16.2-7.16-22.87Z"/>
  <path class="st22" d="M1552.56,375.96c-4.16-9.14-12.43-13.14-21.36-13.82l-6.03-14.69c-1.19-2.89,8.78-2.88,12.12-.02l4.28-9.39,23.39,18.14-8.81,7.69.71,6.08c.19,1.61-1.77,3.23-4.3,6.01Z"/>
  <path class="st15" d="M403.85,484.58c-9.99-3.61-7.26,19.54-9.56,19.54-11.7-.01,2.17-10.36-11.55-21.73l-7.71,24.68c-3.31-10.23-3.88-17.25-3.75-27.69l23.74.4c3.81.06,13.95-2.29,15.98,1.51,3.22,6.05,3.18,16.66-2.02,25.3l-5.12-22.01Z"/>
  <path class="st20" d="M443.57,618.14c-.25-.83-.46-1.97-.85-2.44-2.11-2.58-5.96-6.28-8.55-8.56-.28-3.48.18-8.27,1.28-11.09,12.55,4.27,24.2-27.94,36.05-11.38-.2,6.96-13.04,16.43-17.78,21.52-1.5,1.61-.99,8.78-1.89,10.81s-6.08,1.3-8.27,1.14Z"/>
  <path class="st3" d="M329.42,358.32c4.19.12,10.47.17,12.29-2.52.74-1.08.07-4.91-1.19-4.95l-3.72-.1,9.17-3.86,10.2-24.94,2.87-1.55c-3.51,17.18-10.84,36.07-16.97,52.87-7.22-.12-12.1,2.66-15.55,7.27-4.51,2.01-4.15-.14-1.32-4.12l-6.38-9.6,10.6-8.49Z"/>
  <path class="st15" d="M1583.34,980.1l-14.07-8.72c-2.55-1.58-6.88,4.85-13.35,8.29-2.43-2.22,4.1-38.01,13.62-35.43,1.66.45,5.09,3.55,5.59,5.41l8.21,30.46Z"/>
  <path class="st25" d="M1522.19,478.39c8.49-.17,14.34,2.53,15.45,9.05,1.41,8.28-1.93,17.09-7.27,17.53-9.22.76-17.99-1.98-18.39-8.88-.53-8.95,1.12-17.52,10.22-17.71Z"/>
  <path class="st25" d="M1477.94,478.39c8.5-.17,14.33,2.52,15.45,9.06,1.4,8.21-1.91,17.13-7.27,17.53-9.21.68-17.98-1.92-18.39-8.89-.52-8.94,1.12-17.51,10.22-17.7Z"/>
  <path class="st15" d="M286.56,950.58c-2.76-.94-8.29,12.96-.91,21.57,1.83,2.14,7.16.21,9.99-1.44l4.71-2.76c1.03-.6,1.32,5.45.62,6.44-2.91,4.14-13.08,6.48-18.98,4.31s-10.41-11.93-8.94-19.32c1.17-5.89,4.22-12.67,7.88-13.89,13.8-4.61,21.46,4.69,21.47,4.68l-2.01,4.89c-.49,1.2-4.16-1.19-5.54-1.65l-8.3-2.82Z"/>
  <path class="st11" d="M882.7,723.58l-6.05,8.3c-1.05,1.44,5.14,2.83,5.92,2.41-.81,1.14-1.85,3.73-2.46,5.05-5.3,28.44-1.26,60.27-2.46,90.84h-2.46c-7.01-27.69,2.37-62.86-5.23-90.84-2.1-7.75,7.63-16.67,13.47-19.86-.08,1.08-.12,3.25-.74,4.09Z"/>
  <path class="st9" d="M877.22,961.72c.35-8.8,9.64-9.51,15.72-8.42,7.45,1.33,10.47,9.29,8.74,18.84-1.05,5.79-9.67,8.2-15.23,7.08-6.8-1.37-9.66-6.81-9.24-17.5Z"/>
  <path class="st9" d="M1334.55,978.59c-2.89-.08-5.89-9.14-4.38-11.1s5.57-3.32,8.98-3.81l5.6-.8c1.09-.15-.36-4.85-1.39-4.46l-5.08,1.94c-2.17.83-8.33-.94-7.61-2.51,4.76-6.4,19.35-9.69,22.7-.18,1.72,4.87,1.26,14.29,1.09,21.48l-19.91-.56Z"/>
  <path class="st9" d="M921.39,504.19c-2.61-.08-5.76-9.14-4.25-11.09s5.57-3.32,8.99-3.81l5.6-.8c1.08-.16-.38-4.75-1.42-4.38l-5.23,1.88c-1.66.6-5.48-.47-8.38-1.59,6.25-8.58,16.86-8.72,24.5-1.64l.38,22.04-20.19-.6Z"/>
  <path class="st9" d="M422.23,504.18c-2.52-.07-5.69-9.15-4.14-11.08s5.58-3.31,8.99-3.8l5.61-.81c1.09-.16-.39-4.75-1.42-4.38l-5.19,1.86c-1.72.62-5.47-.46-8.42-1.58,6.28-8.58,16.85-8.74,24.52-1.63l.36,22.02-20.3-.6Z"/>
  <path class="st9" d="M800.1,504.42c-2.67-.04-4.63-8.8-2.72-10.23,12.79-9.59,18.2-1.42,16.35-5.86l-1.57-3.75c-1.69-4.06-9.63,6.29-13.11-.03,2.59-3.9,7.83-6.29,11.02-6.39,3.43-.11,11.67,3.98,12.17,7.48.83,5.85,1.24,12.62,1.57,19.15l-23.71-.37Z"/>
  <path class="st9" d="M264.15,504.42c-2.65-.04-4.63-8.81-2.71-10.23,16.09-11.91,19.46,3.14,14.79-9.62-1.49-4.07-10.84,6.7-12.54-.26,1.25-3.28,7.48-6.16,10.5-6.17,3.45-.01,11.6,3.97,12.13,7.51.85,5.72,1.25,12.68,1.55,19.14l-23.71-.37Z"/>
  <path class="st9" d="M1670.35,978.81c-2.64-.04-4.64-8.79-2.72-10.22,16.13-11.95,19.42,3.18,14.8-9.63-1.48-4.1-9.97,6.4-12.97-.07,2.27-3.76,7.71-6.24,10.9-6.35,3.46-.13,11.58,3.9,12.19,7.7.81,5.08,1.22,12.64,1.5,18.95l-23.69-.38Z"/>
  <path class="st2" d="M1653.96,953.3c3.55.13,8.79,6.43,9.26,9.99.53,4-2.09,14.7-6.09,14.93l-20.09,1.16,1.98-34.59,5.45.06,1.97,8.32c.28,1.18,4.19,0,7.51.13ZM1657.61,966.46c0-3.88-3.06-7.02-6.84-7.02s-6.84,3.14-6.84,7.02,3.06,7.02,6.84,7.02,6.84-3.14,6.84-7.02Z"/>
  <path class="st9" d="M983.41,963.38c4.45-.15,8.1-.15,7.57-1.16-5.92-11.31-5.97,3.68-17.62-3.38,4.78-6.58,17.28-8.93,22.07-2.13,3.03,4.29,2.51,14.92,1.89,21.91l-19.26.52c-2.44.07-5.33-6.81-5.02-9.35.39-3.19,6.02-6.27,10.36-6.41Z"/>
  <path class="st3" d="M417.34,140.55c-2.96-.97-8.97-2.68-11.92-1.93.93-9.84,5.24-17.96,11.37-26.72l2.06-4.05c.62-1.22,4.65-2.54,5.03-1.25l2.03,6.85c1.71,5.78,2.66,11,1.88,17.1-.55,4.35-5.73,7.78-10.45,9.99Z"/>
  <path class="st2" d="M324.67,973.24l-1.49-16.37c-6.37,6.15-7.37,10.4-7.68,16.58l-.24,4.71c-.05.93-5.35.13-5.35-.8l.03-33.47c5.15-1.46,6.93,4.78,8.58,8.5,3.54.88,8.8,1.92,11.75,3.16,4.53,1.92,5.87,13.31.4,23.95-.83,1.6-5.83-4.26-6-6.25Z"/>
  <path class="st2" d="M1403.89,973.11l-1.48-16.24c-6.37,6.14-7.36,10.39-7.68,16.57l-.24,4.71c-.05.93-5.35.13-5.35-.8l.04-33.47c5.11-1.52,6.98,4.89,8.56,8.44,3.62.93,8.78,2.08,11.77,3.21,4.29,1.63,6.05,12.85.39,23.98-.82,1.62-5.82-4.31-5.99-6.4Z"/>
  <path class="st20" d="M417.93,623.27l2.69,6.6c.79,1.93,6.03-.34,7.15-1.98l2.26-.13,2.25,2.15c-9.78,10.18-18.58,18.22-30.16,25.91l-5.77-5.54c2.57-12.02,10.74-22.53,21.57-27Z"/>
  <path class="st25" d="M877.32,504.31c-6.6,9.45-.31-18.44-9.47-21.22l-8.88,24.12c-5.94-15.6-4.56-24.92-.47-40.2l6.49,12.18c3.12-.43,11.11,0,12.7,2.51,3.09,4.9,3.67,16.83-.37,22.61Z"/>
  <path class="st15" d="M1427.76,969.2c-1.12.25-1.41,5.1-.38,4.91l4.98-.9,6.48-1.15c1.34-.24,1.97,4.38.72,4.91-1.25.53-4.82,1.9-6.18,2.17-8.74,1.7-16.97-2.67-17.3-11.22s3.94-16.47,14.84-15c3,.4,6.83,1.87,8.05,3.91s2.52,9.36.27,9.86l-11.48,2.52Z"/>
  <path class="st2" d="M1602.35,964.67c.77-6.1,1.43-10.67,8.74-11.61l1.79,26.03c-7.08.07-16.2.56-20.49-1.59-8.18-4.1-9.79-21.07-1.62-23.7,3.13-.27,4.11,7.87,4.32,12.41l.27,6.01c.07,1.55,5.73,2.48,5.92.94l1.07-8.49Z"/>
  <path class="st15" d="M348.36,969.25c-1.16.26-1.27,5.05-.23,4.87l4.98-.9,6.52-1.17c1.33-.24,1.95,4.39.7,4.92s-4.78,1.87-6.22,2.16c-8.61,1.71-16.94-2.67-17.26-11.22s3.95-16.47,14.85-15c3,.41,6.83,1.88,8.05,3.91s2.54,9.35.26,9.85l-11.64,2.57Z"/>
  <path class="st9" d="M438.58,969.12c-.37-.12.6,4.31,1.45,4.2l5.81-.75,4.93-.63c1.27-.16.35,3.5-.29,5.45-6.09,3.6-13.71,2.03-18.61-3.14-4.28-4.52-4.65-15.13,1.69-19.32,2.78-1.84,10.44-2.22,13.42-1.2,3.41,1.17,7.23,7.77,8.5,12.59l-16.92,2.8Z"/>
  <path class="st9" d="M1049.45,495.2l5.18,6.04c.85.99-3.37,3.24-5.14,4.07l-11.45-10.53-1.32,8.22c-4.26,26.59-9.93-31.44-3.98-35.24,3.89,5.48,4.85,11.65,5.32,15.81,4.88-1.96,11.94-3.84,16.5-4.11l-8.42,7.4c-1.54,1.35,1.53,6.26,3.31,8.33Z"/>
  <path class="st9" d="M1061.66,969.56l5.26,6.06c.85.97-3.39,3.25-5.14,4.08l-11.46-10.53-1.32,8.25c-4.25,26.56-9.93-31.47-3.98-35.27,3.89,5.48,4.85,11.64,5.32,15.82,4.87-1.99,11.96-3.88,16.47-4.08l-8.33,7.29c-1.51,1.32,1.49,6.44,3.17,8.37Z"/>
  <path class="st25" d="M909,506.43c-8.87-5.02-.33-4.53-6.51-21.42-.7-1.92-6.05,1.38-7.16,3.22-.92,5.66-1.56,12.27-5.23,18.43-3.2-14.94-3.02-24.74-.53-38.62,2.39,2.91,5.21,7.26,6.93,9.97,3.05.87,11.87,1.73,13.19,5.16,2.67,6.88,1.91,14.72-.69,23.26Z"/>
  <path class="st28" d="M349.7,497.96l15.27.48c-2.01,5.38-10.52,8.23-14.6,5.96-6.18-3.45-9.88-10.56-8.55-15.59,1.75-6.61,7.63-10.96,13.49-10.35,6.19.64,11.45,7.18,11.53,12.77l-17.13,6.73Z"/>
  <path class="st28" d="M1593.65,497.96l15.27.48c-2.02,5.38-10.53,8.23-14.6,5.96-6.18-3.44-9.88-10.56-8.55-15.59,1.74-6.61,7.63-10.96,13.49-10.35,6.19.64,11.45,7.18,11.53,12.77l-17.13,6.73Z"/>
  <path class="st28" d="M506.36,496.57l3.5,5.15c.63.93-1.29,1.97-3.76,4.13l-9.93-10.4c-1.97,3.95-3.35,6.39-8.23,10.75-1.65-15.1-1.86-24.03.68-39.06,4.11,5.88,5.58,11.35,6.87,16.22,4.75-1.48,11.38-3.15,15.71-3.89l-9.03,7.53c-2.03,1.7,2.48,7.04,4.2,9.57Z"/>
  <path class="st15" d="M1062.89,497.17c8.78,1.09,11.08.71,19.15.69-4.95,6.14-12.03,8.71-19.93,5.28-5.17-2.25-6.45-13.4-3.08-19.41,2.58-4.61,13.57-7.3,17.8-2.36,1.64,1.91,4.35,8.22,5.02,9.85l-18.95,5.95Z"/>
  <path class="st17" d="M370.71,675.86c1.06,1.14,2.59,3.74,2.96,5.45.13.59-.11,1.86-.21,2.52-3.45,10.92-2.1,21.94,1.37,33.78l-1.16,26.78-5.13,2.36c-2.06-8.49-1.54-17.25-1.25-27.93.35-13.23-2.57-47.58,3.42-42.97Z"/>
  <path class="st3" d="M351.54,239.55l-2.64,2.93-5.9-5.05,1.17,9.85-2,5.44c-11.08-9.71-20.42-18.85-29.05-30.95,15.79-9.28,32.72,18.21,38.42,17.77Z"/>
  <path class="st21" d="M424.26,746.92c-.54-2.01-3.57-5.78-5.58-5.5l-1.05-37.73c-.17-6.31,1.52-14.59,3.22-19.84l1.99-2.54c3.92,16.68,1.66,34.99,3.36,53.6.44,4.83,2.27,11.9-1.95,12.01Z"/>
  <path class="st25" d="M841.26,956.43l-8.78,24.86c-5.13-8.47-4.72-17.23-3.53-27.33,6.1-.36,15.5-.49,20.64.28,4.68,8.1,5.99,20.27-1.03,26.61-2.65-10.19-2.19-14.32-7.3-24.42Z"/>
  <path class="st22" d="M875.19,206.92l4.63,4.35c-3.98,1.03-6.86,7.97-4.21,11.18l1.72,7.53c-9.88-2.68-24.27,22.39-28.39,8.58,8.95,1.35,10.02-31.22,26.26-31.64Z"/>
  <path class="st25" d="M1313.92,956.17c3.86,2.21,8.8,3.85,14.48,6.45l-15.31,2.38c-1.06,5.78-.46,9.7-6.13,16.14l-1.23-35.75,21.59.27-2.57,5.79c-7.17-2.68-16.29,1.57-10.83,4.71Z"/>
  <path class="st9" d="M1720.66,951.37c2.23,11.4,2.42,17.1,2.15,27.3-6.04.46-15.58.53-20.15-.77-4.85-6.84-6.21-19.14.87-25.49l3.34,18.51c.24,1.32,4.94,4.08,5.66,2.88,9.07-15.22-.78-14.28,8.13-22.43Z"/>
  <path class="st28" d="M336.13,504.3c-12.03,1.05-1.51-5.13-7.89-19.55-.87-1.97-6.6,2.35-7.25,4.36-.91,5.37-1.31,11.74-4.83,17.73-3.1-14.2-2.74-22.97-.89-38.97,2.97,3.4,4.5,6.68,6.33,11.48,1.35.09,11.24-.49,13.03,2.34,2.88,4.56,3.09,17.2,1.49,22.61Z"/>
  <path class="st2" d="M1627.54,980.82c-13.78-6.14-5.22-18.12-8.78-26.14.54-2.95,2.43-9.56,4.71-10.59,2.66-1.21,9.09-1.04,9.46-.19l-5.38,36.92Z"/>
  <path class="st20" d="M1526.66,186.73l-24.86,3.86-2.65-5.44c10.2-5.83,20.71-11.01,32.79-17l5.71,5.17-10.99,13.41Z"/>
  <path class="st9" d="M1372.97,973.28l7.37-3.4c1.21-.56.17,5.31-.66,6.36-3.09,3.92-14.11,4.21-17.96-1.4-3.43-5-4.4-9.6-2.73-15.13,1.13-3.72,6.22-6.62,11.63-7.02,4.53-.33,10.74,3.81,9.77,9.48l-8.99-2.61c-2.04-.59-5.06,4.38-5.03,6.58.04,3.16,4.09,8.29,6.6,7.13Z"/>
  <path class="st2" d="M834.73,496.76c1.66,6.67,24.11-8.52,12.43,5.32-3.04,3.6-14.63,4.57-17.68-.87-3.04-5.44-4.19-12.24.23-18.71,2.93-4.3,13.88-4.76,17.12-.47,8.38,11.09-8.85.41-11.04,3.81-1.4,2.18-1.8,7.97-1.07,10.92Z"/>
  <path class="st21" d="M454.23,347.38c-.41,1.17-.74,5.35.02,6.93l8.08,16.89-7.21-4.67-.81,7.52c-16.44-1.03-14.75-13.82-16.58-21.11l7.38-.55,9.12-5.01Z"/>
  <path class="st2" d="M308.08,502.96c-1.76,1.18-8.42,2.39-10.87.82-5.46-3.48-9.39-26.63-.77-33.53l10.43,10.75c-2.19,3.96-4.69,8.85-5.1,12.02-.37,2.92,3.32,6.51,6.31,9.93Z"/>
  <polygon class="st5" points="1042.36 714.11 1042.36 719.16 968.6 719.16 970.48 714.12 1042.36 714.11"/>
  <path class="st4" d="M1502.07,310.37c3.33,4.74,5.34,9.38,7.27,17.1-13.99-.83-26.9-7.38-34.31-19.62l27.04,2.52Z"/>
  <path class="st25" d="M869.21,972.38l-.95,5.94c-.15.95-4.54.09-4.65-.86l-2.59-22.56c-.3-2.61,3.3-9.71,5.5-11.08,2.57-1.59,8.74-.28,11.31.69l-7.48,5.68c-1.3.99,1.97,4.79,2.23,5.75-1.05,4.29-2.39,10.24-3.37,16.43Z"/>
  <path class="st1" d="M966.15,719.16c1.2,1.23,5,2.63,6.76,2.63l62.08-.1v2.52h-130.29c-.74-.13,4.03-2.61,5.57-2.6l50.65.2,2.78-2.64v-2.52l2.46,2.52Z"/>
  <path class="st25" d="M1020.57,978.44l-10.85.11c-5.4.06-.15-13.77-8.68-22.74l7.42-9.6,12.45,10.26c-3.53,2.37-9.32,5.76-9.19,8.87.18,4.28,2.79,6.31,8.86,13.1Z"/>
  <path class="st25" d="M1117.16,503.3c-.74.43-7.06,1.24-9.45.77-2.84-.55-9.85-27.1-1.67-33.38l10.49,10.89c-2.52,2.94-4.62,5.33-5.99,7.8-2.04,3.68,2.68,10.22,6.62,13.91Z"/>
  <path class="st25" d="M463.53,503.82l-9.55.24c-5.15.13-.07-13.75-8.54-22.61l7.67-10.04,9.86,10.36c-2.65,2.38-6.44,6.49-6.77,9.53s3.27,7.36,7.32,12.52Z"/>
  <path class="st28" d="M978.69,502.78c-1.12.7-6.88,1.9-9.64,1.75-8.14-.43-7.82-31.61-2.23-32.78l12.09,9.96c-3.38,2.69-8.08,6.18-8.26,9.19-.26,4.29,3.96,9.14,8.03,11.88Z"/>
  <polygon class="st4" points="980.18 640.44 966.48 661.67 951.69 638.09 980.18 640.44"/>
  <path class="st5" d="M1064.48,815.05h-2.46v-5.05c0-20.21-1.71-41.19,2.46-60.56.12-.7,2.5,4.12,2.5,5.56v54.34c0,1.55-2.36,6.43-2.5,5.7Z"/>
  <path class="st7" d="M875.19,830.19l-1.54,10.69-8.29-28.36c.1,1,4.95-1.88,4.95-3.46l-.04-63.65-7.37-1.02,7.07-5.05c7.6,27.98-1.78,63.15,5.23,90.84Z"/>
  <path class="st5" d="M953.45,853.88l.14,9.61,26.28-1.49c1.84-.1,2.3-7.61,1.66-7.98.94.11,2.74-.23,3.74-.38l.02,1.04.5,6.34c.13,1.63,5.22,2.06,6.89,2.93l10.23,5.31c-16.97-3.31-32.66-4.37-51.62-3.54l-1.88-11.95c1.09.03,3.03.23,4.04.12Z"/>
  <path class="st7" d="M1076.64,799.91l-.04-45.42c3.68,1.68,8.28,7.55,8.1,11.96l-1.09,26.51c-.11,2.76-5.26,7.48-6.97,6.95Z"/>
  <path class="st7" d="M914.52,847.43c21.88,5.77,45.85,1.94,68.83,2.95l1.92,3.27c-1.01.16-2.8.5-3.74.38-7.01-.85-21.06-.88-28.08-.14-1.01.11-2.95-.09-4.04-.12l-22.63-.7c-11.36-.35-21.86-.96-31.92-2.2.58-.85,1.61-2.54,2.46-3.02,3.81-2.15,12.23-1.73,17.21-.42Z"/>
  <path class="st3" d="M1069.29,299.71l2.39.51.38,15.2-6.87-7.79c-10.4,4.8-18.7,8.26-27.76,7.49,1.35-2.53,5.77-7.16,8.53-8.03l23.33-7.38Z"/>
  <path class="st1" d="M860.45,749.11c-.7,1.97-2.1,7.41-2.1,10.1l-.03,35.65c-13.85-2.48-8.25-44.34,2.14-45.75Z"/>
  <path class="st1" d="M467.09,252.34l-3.11,6.89-5.84-2.88,5.02,5.12c-4.2,6.6-10.75,10.18-18.42,10.86-1.91-3.77-3.84-7.96-5.27-11.76l27.41-10.93.21,2.72Z"/>
  <path class="st7" d="M1020.23,350.75l4.92,2.52c-17.66,2.69-36.18,3.48-54.49,1.71l2.67-4.27,46.9.04Z"/>
  <rect class="st25" x="949.46" y="469.58" width="5.94" height="35.09"/>
  <rect class="st25" x="1499.65" y="469.56" width="6.06" height="35.11"/>
  <path class="st22" d="M1072.04,345.91c-.84,8.58-46.45,7.3-46.9,7.36l-4.92-2.52c16.33.01,31.79-7.24,51.81-4.84Z"/>
  <path class="st28" d="M1453.07,971.26l-1.13,7.93c-.22,1.54-5.91-1.83-5.96-3.38l-.63-21.77,17.32.53c-5.28,6.84-8.89,11.72-9.6,16.69Z"/>
  <path class="st28" d="M914.69,971.26l-1.13,7.93c-.22,1.54-5.92-1.82-5.96-3.37l-.63-21.77,17.32.53c-5.28,6.85-8.89,11.72-9.6,16.69Z"/>
  <path class="st19" d="M408.09,873.08c.41,1.87,2.11,4.17,3.71,4.69,1.49.49,4.76,2.26,6.38,3.89-43.39-12.99-33.88,9.56-57.03-1.83l10.29-3.68c7.19-2.57,15.75-2.44,23.67-2.68l12.99-.39Z"/>
  <path class="st7" d="M880.1,739.35v93.36l-2.46-2.52c1.2-30.57-2.84-62.4,2.46-90.84Z"/>
  <path class="st14" d="M405.42,138.63c2.95-.75,8.96.96,11.92,1.93l2.77,3.25.52,5.07c-9.84-.19-20.83.17-27.44,7.57,1.71-4.04,4.17-8.65,6.18-11.66l-6.46-.62c3.48-1.86,8.7-4.58,12.51-5.54Z"/>
  <path class="st6" d="M963.69,719.16l-2.78,2.64-50.65-.2c-1.54,0-6.31,2.47-5.57,2.6h-12.29l.31-3.82c.06-.79,1.36-1.23,2.15-1.23h68.83Z"/>
  <path class="st19" d="M435.45,596.06c-1.1,2.81-1.57,7.61-1.28,11.09l-11.53,12.9c-.75.84-1.34,7.14-.24,7.26l5.37.59c-1.12,1.64-6.37,3.91-7.15,1.98l-2.69-6.6c.59-6.18,8.34-12.89,11.73-16.13,1.33-1.27-2.03-8.29-.28-8.92l6.07-2.16Z"/>
  <rect class="st25" x="1455.11" y="479.38" width="6.35" height="25.33"/>
  <rect class="st25" x="1573.12" y="479.38" width="6.35" height="25.33"/>
  <rect class="st25" x="1480.47" y="953.83" width="6.35" height="25.23"/>
  <rect class="st25" x="416.36" y="953.83" width="6.29" height="25.23"/>
  <rect class="st25" x="470.44" y="479.44" width="6.29" height="25.23"/>
  <rect class="st25" x="1087.5" y="479.44" width="6.29" height="25.23"/>
  <path class="st19" d="M1039.9,842.8c-.07,2.31.72,7.38-1.3,7.29-25.57-1.18-5.53,5.87-25.38,2.47l-.36-4.71c8.59-.51,18.54-2.92,27.04-5.05Z"/>
  <path class="st6" d="M1034.98,719.16v2.52l-62.08.1c-1.76,0-5.56-1.4-6.76-2.63h68.83Z"/>
  <path class="st1" d="M1057.11,807.48c-4-16.53-2.23-51.1-2.46-68.13,3.48,4.51,2.91,10.93,2.86,17.73l-.4,50.4Z"/>
  <path class="st7" d="M963.69,716.64v2.52h-68.83c-1.18.48,3.1-2.51,4.09-2.51h64.75Z"/>
  <rect class="st28" x="816.18" y="946.26" width="4.92" height="32.8"/>
  <path class="st14" d="M400.55,262.43l.17,5.05v5.05c-.17.71-.22,5.1-1.46,5.04s-4.32-.96-4.74-2.16-1.1-4.14-1.18-5.41l-.37-5.94c-.09-1.4-3.07-1.5-4.55-1.63l-2.48-5.4,14.6,5.4Z"/>
  <path class="st14" d="M417.48,262.16c.65,4.46,1.67,6.36-2.01,10.58l-9.83-2.09-2.46-3.17,2.8-4.6,11.5-.72Z"/>
  <path class="st19" d="M1052.6,836.04l2.05-13.42,2.88,4.1c3.25,4.63.04-5.61,6.67-7.42l-2.41,18.65-9.19-1.91Z"/>
  <path class="st19" d="M1000.56,847.85l-.36,4.71c-4.35,0-10.55,1.28-14.91,2.12l-.02-1.04-1.92-3.27v-2.52h17.21Z"/>
  <path class="st11" d="M897.31,847.85c-.85.48-1.88,2.17-2.46,3.02l-6.55,1.79c-.82-4.4-1.66-9.46-2.65-12.22l10.58.56,1.09,6.85Z"/>
  <path class="st21" d="M383.51,666.17v5.05c-.98,0-2.46,1.53-2.46,2.52v2.52c-1.59,0-4.17,1.69-5.15,2.72l.23,2.32h-2.46c-.37-1.71-1.9-4.32-2.96-5.45-3.27-5.7,7.22-9.69,12.8-9.69Z"/>
  <path class="st19" d="M960.55,359.96c-9.14,7.4-18.72,3.58-24.31-4.25l24.31,4.25Z"/>
  <path class="st11" d="M993.19,209.44l-4.92,2.52-9.75-3c-.33-1.33,4.54-3.6,6.8-3.6h7.78c.93,0,.06,3.78.08,4.07Z"/>
  <polygon class="st10" points="379.94 259.71 384.13 264.28 383.51 267.48 371.91 281.81 379.94 259.71"/>
  <path class="st24" d="M1062.58,239.9l3.33-11.25c.41-1.39,1.08-5.76,2.25-4.95l6.14,4.25-11.71,11.96Z"/>
  <path class="st6" d="M422.84,681.31l-1.99,2.54c-1.38-1.19-4.34-3.48-4.88-5.21l-2.14-6.86c2.83-.61,6.4-1.54,6.91.62l2.1,8.92Z"/>
  <path class="st19" d="M443.57,618.14l-11.29,11.76-2.25-2.15,12.69-12.06c.39.47.61,1.62.85,2.44Z"/>
  <path class="st18" d="M879.81,211.27l5.64,5.25-9.85,5.93c-2.65-3.21.24-10.15,4.21-11.18Z"/>
  <path class="st5" d="M344.15,803l.03-3.09v-2.52l2.46-2.52h2.46l4.55-7.57c4.34,8.83-4.21,14.08-9.49,15.71Z"/>
  <path class="st11" d="M971.06,209.73l-7.41.25,3.92-9.62c.76-1.87,6.43-1.24,7.46-.99l-3.97,10.36Z"/>
  <path class="st19" d="M461.57,868.67c-.72,2.83-3.46,7.33-5.87,9.2-1.9,1.48-6.06-4.5-6.16-6.57l12.02-2.63Z"/>
  <path class="st19" d="M336.8,870.56v5.05c-2.41.83-5.73,1.47-7.72,1.28s-1.96-7.04-1.68-8.22c2.23.9,7.13,1.12,9.4,1.89Z"/>
  <path class="st19" d="M336.8,875.61l7.38-2.52c.75,0,1.86-.05,2.46,0l4.21,9.75c-8.44-2.18-12.14-3.37-14.04-7.23Z"/>
  <path class="st18" d="M1608.67,236.53c-5.08-2.74-11.93-7.2-15.63-11.95,6.02,2.08,11.68,6.66,15.63,11.95Z"/>
  <path class="st14" d="M472.01,247.29h2.46s.9,3.38,1.12,4.18c.16.58.63-.6,1.34-1.66h2.46v5.05c-.51,1.4-1.42,4.1-2.46,5.05-1.62-2.14-4.63-4.11-7.38-5.05l-2.46-2.52-.21-2.72,2.66-2.33c.98,1.84,1.48,1.84,2.46,0Z"/>
  <path class="st4" d="M485,245.24l-.39,4.57h-7.68l2.34-7.7c1.43-1.54,3.7-3.7,5.04-4.92l.7,8.05Z"/>
  <path class="st4" d="M354.23,242.67l2.35,6.82-.12,5.37-.23,3.01c-1.98.03-7.04,2.62-7.06.59l-.09-8.64,4.31-.88-4.5-6.45,2.64-2.93,2.69,3.12Z"/>
  <polygon class="st19" points="440.05 870.28 439.03 882.64 430.22 873.08 440.05 870.28"/>
  <path class="st10" d="M380.88,215.33c-1.11-5.61,1.43-11.31,5.09-15.99,5.8-.98-2.28,6.43-3.68,17.45.14.14-1.06-1.09-1.42-1.46Z"/>
  <polygon class="st14" points="348.9 242.48 353.4 248.93 349.09 249.81 344.17 247.29 343 237.43 348.9 242.48"/>
  <path class="st11" d="M1005.48,847.85c2.09,0,5.5.11,7.38,0l.36,4.71h-13.01l.36-4.71h4.92Z"/>
  <path class="st19" d="M1408.19,287.35l7.87-13.17c-6.34-6.24-3.1-17.23,1.6-24-1.53,10.91-1.61,15.83,1.25,26.11-1.91,2.86-5.22,6.52-10.72,11.06Z"/>
  <rect class="st1" x="383.51" y="666.17" width="24.58" height="2.52"/>
  <path class="st4" d="M469.55,254.86c.75,2.25.75,5.32,0,7.57l-6.39-.97-5.02-5.12,5.84,2.88,3.11-6.89,2.46,2.52Z"/>
  <path class="st5" d="M376.13,749.44c1.07,1.93,2.69,4.8,1.09,4.88l-8.51.44-.17-8.01,5.13-2.36c-.07,1.55,1.68,4.62,2.46,5.05Z"/>
  <path class="st21" d="M413.83,671.77l2.14,6.86-2.96.15c-.91-.89-3.44-2.52-4.92-2.52v-10.09c1.36,0,4.11.34,4.52,1.68l1.22,3.93Z"/>
  <polygon class="st5" points="956.14 318.87 947.44 323.3 941.56 320.47 944.02 315.42 956.14 318.87"/>
  <polygon class="st19" points="1430.78 257.38 1428.32 264.95 1422.66 252.12 1430.78 257.38"/>
  <path class="st19" d="M924.4,345.72c-1.07.05-3.53-3.07-2.67-3.75l5.3-4.21c-.12-.15,1,1.25,1.83,2.29.74.93-3.29,5.63-4.45,5.68Z"/>
  <path class="st19" d="M932.24,355.99l-7.7-4c.47-7.02,3.89-4.03,7.7,4Z"/>
  <path class="st18" d="M1617.69,244.26c-1.03.95-3.99,2.05-4.48.68l-2.27-6.38c2.45,1.44,5.1,3.61,6.74,5.7Z"/>
  <path class="st10" d="M365.61,257.38c-1.41,4.29-4.02,10.23-6.43,13.5l-.78-12.97,4.03-1.99c.9-.44,2.19.77,3.18,1.45Z"/>
  <path class="st11" d="M1000.56,194.3v2.52l-14.15-1.66c5.35-4.46,9.63-2.51,14.15-.86Z"/>
  <path class="st6" d="M889.94,726.99l-2.46.34-1.5-3.58c-.36-.85-2.42-.28-3.28-.17.61-.84.65-3.02.74-4.09,2.15-1.18,5.93-2.92,6.05-.81l.46,8.32Z"/>
  <path class="st6" d="M361.38,772.15l-2.46,2.52v2.52h-2.46c-.65-1.38-2.85-4.54-1.81-5.63l4.26-4.46,2.46,5.05Z"/>
  <path class="st14" d="M363.84,252.34h2.46c-.5,1.16-.57,3.76-.69,5.05-.99-.69-2.28-1.9-3.18-1.45l-4.03,1.99c-.06-.96-1.33-2.39-1.94-3.06l.12-5.37h2.36s4.9,2.85,4.9,2.85Z"/>
  <path class="st7" d="M449.34,813.12l-5.11-.71c-1.31-.18-1.75-3.58-1.8-4.94l4.99-2.52,1.92,8.17Z"/>
  <path class="st19" d="M1420.05,290.29c-.89,6.18-7.83,7.52-9.55,1.16l9.55-1.16Z"/>
  <path class="st3" d="M362.07,249.57l-3.14-.07h-2.36s-2.35-6.83-2.35-6.83c2.94,1.69,5.99,4.26,7.84,6.9Z"/>
  <path class="st18" d="M956.31,239.72c-.66,1.8-3.79,5.67-5.52,4.77-2.53-1.3-7-4.01-9.23-4.77h14.75Z"/>
  <path class="st6" d="M1044.81,721.68l-2.46-2.52v-5.05c1.62,0,3.57,1.54,5.78,3.86,1.64,1.72.43,2.6-3.32,3.71Z"/>
  <polygon class="st19" points="1042.36 719.16 1044.81 721.68 1044.81 724.21 1034.98 724.21 1034.98 721.68 1034.98 719.16 1042.36 719.16"/>
  <path class="st18" d="M1524.2,307.85c-.84.61-2.4,2.08-3.35,1.68l-4.02-1.68,3.72-7.76,3.65,7.76Z"/>
  <path class="st5" d="M330.29,350.49l4.05,2.78v2.52h-4.92c-.65.33-3.75,3.54-4.01,2.3-.51-2.41-2.02-5.97-.83-6.25l5.7-1.36Z"/>
  <path class="st7" d="M1052.2,203.88l4.28,3.93c.81.74-.55,3.51-.82,4.29h-3.47l-2.42-2.42c-.55-.55-1.28.42-1.49,1.19l-1,3.62-25.63,3.65c-4.33.62-12.22-2.06-16.16-3.65,1.2-4.11,1.21-8.25,4.92-10.09,2.25,2.78,38.57,9.48,41.81-.52Z"/>
  <path class="st3" d="M476.93,259.91c-1.46,1.33-5.44,2.82-7.38,2.52.75-2.25.75-5.32,0-7.57,2.75.94,5.76,2.91,7.38,5.05Z"/>
  <polygon class="st19" points="1056.76 736.82 1057.11 731.78 1065.99 734.4 1056.76 736.82"/>
  <path class="st16" d="M1627.45,252.34l-2.46,2.52c-2.08-1.74-3.98-4.77-4.92-7.57l7.38,5.05Z"/>
  <path class="st6" d="M437.59,789.81l-2.4-4.01c-.59-1,1.87-3.4,2.4-3.56l2.71,3.82c.71,1-2.16,3.62-2.71,3.75Z"/>
  <path class="st4" d="M393.34,270h-4.92v-7.57c1.48.12,4.46.23,4.55,1.63l.37,5.94Z"/>
  <path class="st19" d="M1079.16,355.55c-7.16-.62-8.97-1.13-3.04-2.17,6.48-3.77,6.88-.98,3.04,2.17Z"/>
  <path class="st6" d="M334.34,355.79h7.38c-1.83,2.69-8.1,2.65-12.29,2.52v-2.52h4.92Z"/>
  <path class="st19" d="M1433.24,282.62l-4,2.24c-.95.53-.9-4.12-.22-4.99l1.77-2.29,2.46,5.05Z"/>
  <path class="st18" d="M912.06,227.1c-1.98,1.53-5.6-.16-7.38-2.52,1.07-.61,4.24-2.62,5-1.38l2.38,3.9Z"/>
  <path class="st24" d="M1091.52,219.8l-9.83-.26,4-2.86c1.43-1.02,5.27,1.43,5.84,3.12Z"/>
  <path class="st8" d="M368.76,875.61h-4.92v-3.71c0-.93,3.71-2.39,3.89-1.48l1.03,5.19Z"/>
  <path class="st22" d="M485,245.24l-.7-8.05c1.09-1,2.98,3.63,3.84,5.11.78,1.34-.86,1.83-3.14,2.94Z"/>
  <path class="st17" d="M447.43,804.95l-4.99,2.52-.28-7.57c1.45,1.21,4.84,3.19,5.28,5.05Z"/>
  <path class="st18" d="M934.19,272.52l-4.46-1.59c-.78-.28-.47-3.02-.46-3.46l3.48.62c1.23.22,1.33,3.17,1.43,4.43Z"/>
  <path class="st19" d="M1040.12,364.09c-5.15.9-7.02,1.23,0,0,3.34-4.35,1.39-1.8,0,0Z"/>
  <path class="st18" d="M912.06,257.38c-2.3-1.35-5.26-3.42-7.38-5.05l5.82.27c1.34.06,1.46,3.4,1.55,4.77Z"/>
  <ellipse class="st19" cx="1027.61" cy="363.36" rx="2.74" ry="2.81"/>
  <path class="st19" d="M1047.97,359.57c4.53-.73,6.97-1.36,6.66-.3l-1.3,4.41c-.31,1.05-2.34-1.15-5.36-4.11Z"/>
  <path class="st22" d="M484.61,249.81c-.17,2.04-3.31,4.51-5.23,5.05v-5.05h5.23Z"/>
  <ellipse class="st19" cx="430.56" cy="881.01" rx="2.41" ry="2.47"/>
  <path class="st19" d="M1053.03,718.53c.62,6.54.66,6.92.1,1.1-.24-2.83-.32-3.82-.1-1.1Z"/>
  <path class="st18" d="M897.31,222.06l-4.92-2.52,3.92-2.13c.93-.5.98,4.35.99,4.65Z"/>
  <path class="st18" d="M1583.2,211.96c-.22.12-3.79,2.12-3.83,2.19-.04.07-1.09-4.76-1.08-4.72,1.43.45,4.05,1.41,4.92,2.52Z"/>
  <path class="st18" d="M1563.53,201.87c-3.1-1.01-6.98-3.15-9.83-5.05,1.52-.53,5.08-.61,6.67.14,1.33.63,2.85,3.57,3.17,4.9Z"/>
  <polygon class="st10" points="398.26 191.78 390.88 191.78 390.6 189.25 398.26 191.78"/>
  <path class="st18" d="M1536.49,189.25c-.41.82-2.05,3.17-2.77,2.29-.5-.61-1.48-1.95-2.14-2.29,1.83-.36,3.54-.41,4.92,0Z"/>
  <polygon class="st18" points="1629.91 257.38 1624.99 254.86 1627.45 252.34 1630.53 253.16 1629.91 257.38"/>
  <path class="st3" d="M476.93,249.81c-.71,1.06-1.19,2.24-1.34,1.66-.22-.8-1.13-4.23-1.12-4.18l4.79-5.17-2.34,7.7Z"/>
  <path class="st19" d="M967.21,361.58c-.56-.82,2.99.25,3.91.34s-1.26,2.99-1.11,3.92-2.18-3.35-2.8-4.26Z"/>
  <path class="st18" d="M894.85,244.77l-9.83-7.57c4.6.35,9.59,3.11,9.83,7.57Z"/>
  <path class="st19" d="M1067.07,357.1c-.29-.77,4.21.51,4,1.28l-.81,2.97c-.21.79-2.84-3.32-3.19-4.25Z"/>
  <path class="st18" d="M926.81,234.67l-4.92-2.52c.23-.11,3.85-1.95,3.78-1.89s1.07,4.18,1.14,4.42Z"/>
  <path class="st24" d="M1093.98,232.15l-2.07-3.59c-.32-.56,1.18-1.09,2.07-1.46.19.58,1.3,2.3,1.53,2.83.38.87-.32,1.28-1.53,2.21Z"/>
  <path class="st10" d="M376.13,229.63l2.46-7.57c-.6,2.35-1.56,5.51-2.46,7.57Z"/>
  <path class="st19" d="M1084.46,343.86c-.11-.75,5.01-.33,4.49.3l-2.78,3.34c-.79.95-1.51-2.3-1.71-3.65Z"/>
  <path class="st19" d="M1074.31,346.18l2.46-5.52c.25.36,3.51,3.49,2.41,3.86l-4.88,1.66Z"/>
  <path class="st19" d="M1042.36,842.8c.62-.72,1.69-2.1,2.46-2.52l-.98,8.17-1.48-5.64Z"/>
  <path class="st10" d="M363.84,310.37c-.33.82-1.78,1.91-2.46,2.52l-2.56-1.37c-.79-.42.84-4.62,1.53-4.04l3.49,2.89Z"/>
  <path class="st18" d="M1575.83,300.28c-.98.8-3.47,2.26-4.92,2.52,0-.12.08-5.36.99-4.82l3.92,2.3Z"/>
  <path class="st10" d="M331.88,340.65c-.81-1.13-1.88-2.2-1.13-2.69l3.59-2.36c-.3,1.46-1.66,3.88-2.46,5.05Z"/>
  <path class="st19" d="M319.59,865.51l-3.47,2.82c-15.29,12.41,5.57-7.78,1.02-5.34l2.46,2.52Z"/>
  <polygon class="st20" points="405.63 270.65 400.72 272.52 400.72 267.48 403.18 267.48 405.63 270.65"/>
  <path class="st8" d="M417.93,873.08h-7.38c.43-.79,2.44-2.79,3.69-2.79s3.26,2.01,3.69,2.79Z"/>
  <polygon class="st3" points="388.43 264.95 388.43 270 383.51 267.48 384.13 264.28 388.43 264.95"/>
  <path class="st19" d="M1424.64,287.84q0,5.85,0,0,0-3.13,0,0Z"/>
  <path class="st18" d="M902.23,224.58c-.01.19-2.15-2.2-2.46-2.52,1.61-1.75,2.06-2.37,2.13-1.44s.36,4.25.33,3.97Z"/>
  <ellipse class="st11" cx="881.33" cy="845.33" rx="1.56" ry="1.6"/>
  <ellipse class="st19" cx="983.35" cy="367.15" rx="1.56" ry="1.6"/>
  <ellipse class="st21" cx="454.8" cy="382.29" rx="1.56" ry="1.6"/>
  <path class="st7" d="M361.59,764.11c.87.74,6.16,1.45,5.08,2.57l-5.29,5.47-2.46-5.05,1.11-3.79c.16-.54.69.19,1.56.79Z"/>
  <path class="st19" d="M941.56,348.47l-6.56-2.48c-1.5-.56.71-4.25,1.65-5.34l4.92,7.82Z"/>
  <polygon class="st4" points="363.84 252.34 358.94 249.5 362.07 249.57 363.84 252.34"/>
  <path class="st19" d="M1079.23,335.61l-.56-2.24s3.06.02,4.09,0c.82-.02,1.11,1.65.34,1.75l-3.86.49Z"/>
  <path class="st7" d="M349.09,794.86h-2.46c.65-5.69,1.05-5.45,2.46,0Z"/>
  <path class="st24" d="M1064.48,262.43l.39-5.05,1.74,3.53c.3.6-1.37,1.16-2.14,1.52Z"/>
  <ellipse class="st25" cx="1627.03" cy="698.94" rx="1.77" ry="1.82"/>
  <path class="st17" d="M455.13,825.09c-.4-.22-1.94-1.63-2.25-2.48l2.25,2.48Z"/>
  <path class="st0" d="M344.17,799.91c-1.3-1.07-1.28-1.3,0-2.52v2.52Z"/>
  <path class="st3" d="M469.55,247.29h2.46c-.98,1.84-1.48,1.84-2.46,0Z"/>
  <path class="st21" d="M354.01,782.24c-1.82-1.11-1.79-1.62,0-2.52v2.52Z"/>
  <path class="st3" d="M358.4,257.92l-2.16-.05.23-3.01c.61.67,1.88,2.1,1.94,3.06Z"/>
  <path class="st18" d="M879.66,232.71l-2.34-2.73,2.34,2.73Z"/>
  <path class="st1" d="M1005.48,847.85h-22.13l-68.83-.42c6.66-3.08,85.04-3.83,90.96.42Z"/>
  <path class="st26" d="M887.48,727.33l-4.92,6.97c-.78.42-6.97-.98-5.92-2.41l6.05-8.3c.87-.11,2.93-.68,3.28.17l1.5,3.58Z"/>
  <path class="st10" d="M1547.17,290.35c-1.59-3.3.63-8.5,4.07-13.58l-17.3-14.72c8.59,2.33,15.34,7.26,23,12.19l-9.77,16.11Z"/>
  <path class="st16" d="M1551.24,244.77c3.46.49,9.3-4.22,11.87-7.13-.15,3.27-1.95,9.49.41,10.69l9.23,4.72,5.45,2.77c.84.43-2.1.61-3.13.92-.64.19-1.37,2.23-2.58,4.88l-13.97-14.7c-2.18,2.63-5.39,6.87-5.88,5.67s-1.27-2.96-1.3-3.83l-.1-4.01Z"/>
  <path class="st16" d="M1564.89,236.23l-3.02-16.45c5.47,3.85,10.98,8.93,3.02,16.45Z"/>
  <path class="st5" d="M1624.99,264.95v5.05c0,.88.29,1.93,0,2.52h-2.46l-2.46-2.52c1.18-3.64,2.87-7.41,4.92-10.09v5.05Z"/>
  <path class="st18" d="M1551.24,244.77l-9.35-7.4,9.35,7.4Z"/>
  <path class="st7" d="M1622.54,272.52v5.05l-.36,3.94c-.06.7-1.24.28-1.67-.26l-2.88-3.68,2.46-7.57,2.46,2.52Z"/>
  <path class="st3" d="M1624.99,270v-5.05l2.46-5.05h2.46c.12,4-1.66,8.43-4.92,10.09Z"/>
  <path class="st18" d="M1541.28,291.67c-4.44,1.83-7.97.43-9.62-4.17l9.62,4.17Z"/>
  <path class="st18" d="M1530.82,252.19l-.1,10.57-4.44-12.76c-.34-.98,4.6-4.07,4.59-2.98l-.05,5.17Z"/>
  <path class="st18" d="M1542.11,220.79c4.53-.74,6.97-1.36,6.66-.3l-1.3,4.41c-.31,1.05-2.34-1.15-5.36-4.11Z"/>
  <ellipse class="st18" cx="1546.33" cy="211.96" rx="2.74" ry="2.81"/>
  <path class="st18" d="M1537.25,237.15l.5-10.18c.24,1.2.09,4.09-.5,10.18Z"/>
  <ellipse class="st18" cx="1526.66" cy="206.92" rx="2.74" ry="2.81"/>
  <ellipse class="st10" cx="1568.45" cy="267.48" rx="2.74" ry="2.81"/>
  <ellipse class="st16" cx="1581.08" cy="235.02" rx="2.41" ry="2.47"/>
  <ellipse class="st18" cx="1527" cy="275.4" rx="2.41" ry="2.47"/>
  <ellipse class="st10" cx="1550.01" cy="257.38" rx="1.56" ry="1.6"/>
  <ellipse class="st16" cx="1580.74" cy="248.55" rx="1.56" ry="1.6"/>
  <polygon class="st27" points="1624.99 264.95 1624.99 259.91 1627.45 259.91 1624.99 264.95"/>
  <ellipse class="st18" cx="1527.89" cy="288.93" rx="1.23" ry="1.26"/>
  <path class="st27" d="M1009.91,316.16c.17.33,1.73,2.07,2.56,2.66-.19,3.21-1.42,6.07-3.56,6.22l-10.66.76-.15-5.32c2.96-2.65,7.42-3.86,11.8-4.31Z"/>
  <path class="st27" d="M992.62,321.15c-.15.61,1.2,4.06,2.46,4.16.95.08,1.76.23,3.17.48l-10.28,1.01c-14.14,1.4-28.1,2.49-40.53-3.5l8.7-4.43c18.04,5.13,16.79-2.82,36.48,2.28Z"/>
  <path class="st1" d="M1025.15,314.59l2.46,1.11c1.02.34,3.23.68,4.3.48l.62,4.29c-5.5,1.83-15.81,1.35-20.05-1.66-.83-.59-2.4-2.32-2.56-2.66l15.24-1.56Z"/>
  <path class="st18" d="M946.91,267.85c-.05-.96,4.66-.06,4.64.92l-.14,4.94c-.03.98-4.02,2.39-4.08,1.41l-.41-7.27Z"/>
  <path class="st5" d="M1037.44,315.12c-.41.77.28,3.62-.53,3.89l-4.38,1.46-.62-4.29,5.54-1.05Z"/>
  <path class="st6" d="M1052.19,212.09l-4.92,2.4,1-3.62c.22-.78.95-1.74,1.49-1.19l2.42,2.42Z"/>
  <path class="st18" d="M949.24,252.88c-.15-.8,5.02-.16,4.49.47l-2.82,3.31c-.79.93-1.3-1.8-1.67-3.77Z"/>
  <path class="st5" d="M1027.61,315.7l-2.46-1.11c.33-1.35,1.41-.33,2.46,1.11Z"/>
  <path class="st12" d="M383.51,678.79c-.48.37,1.27,7.58,3.06,7.56l25.05-.32-5.99-7.24h7.38l2.96-.15c.54,1.73,3.5,4.02,4.88,5.21-1.7,5.25-3.39,13.53-3.22,19.84l1.05,37.73c-8.43,1.14-24.8,1.55-34.85,1.06l-7.69,6.96c-.78-.43-2.53-3.5-2.46-5.05l1.16-26.78c-3.47-11.85-4.81-22.87-1.37-33.78l2.67-2.52-.23-2.32,7.61-.2ZM381.05,717.9c0-.7-.55-1.26-1.23-1.26s-1.23.56-1.23,1.26.55,1.26,1.23,1.26,1.23-.56,1.23-1.26Z"/>
  <path class="st27" d="M387.41,850.56c12.21-.46,23.85-8.7,35.12,1.82l-60.59.23c7.3-10.41,16.43-2.75,25.47-2.05Z"/>
  <ellipse class="st8" cx="433.91" cy="854.16" rx="1.23" ry="1.26"/>
  <path class="st21" d="M358.92,777.2v-2.52c.42,1.5.51,2.14,0,2.52Z"/>
  <path class="st24" d="M410.55,199.35l2.16,32.68c.25,3.73,1.86,10.28,2.49,14.59l2.28,15.55-11.5.72c-1.36.08-4.04-.28-5.43-.45l-14.6-5.4,2.48,5.4v2.52l-4.29-.67-4.19-4.57.65-2.41c3.45-1.55,4.73-6.12,4.66-10.4l-.1-5.88c2.28-3.93,4.46-8.1,5.74-11.4l2.46-5.05,7.38-20.19c.6-1.64,3.68-5.02,4.94-6.47.91-1.05,3.36.57,4.9,1.43Z"/>
  <path class="st10" d="M410.55,199.35c-1.53-.85-3.99-2.48-4.9-1.43-1.25,1.46-4.34,4.83-4.94,6.47-1.77-.45-2.29-6.01-.69-7.46,1.28-1.16,5.28-2.73,7.15-3.18,1.65-.4,3.24,3.61,3.37,5.59Z"/>
  <path class="st10" d="M385.24,246.91c.07,4.28-1.21,8.85-4.66,10.4.38-3.59,2.43-8.95,4.66-10.4Z"/>
  <path class="st21" d="M341.72,355.79h-7.38v-2.52c.55-.71,1.64-2.18,2.46-2.52l3.72.1c1.26.03,1.93,3.87,1.19,4.95Z"/>
  <path class="st10" d="M393.34,224.58l-2.46,5.05-2.67-1.34c-.74-.37.84-3.06,1.66-3.19l3.47-.52Z"/>
  <polygon class="st3" points="1622.54 277.57 1622.54 272.52 1624.99 272.52 1622.54 277.57"/>
  <path class="st6" d="M1012.86,199.35l2.46-5.05,2.53,1.41c1.01.57,2.33,3.59,1.26,3.59l-6.25.04Z"/>
  <path class="st6" d="M1047.27,201.87l-2.42,1.97c-.98.8-3.78-.27-5.08-.55-1.21-.26,2.19-3.59,2.59-3.94l4.92,2.52Z"/>
  <path class="st13" d="M554.99,492.52l-20.65-4.06c7.21-2.21,11.75-2.66,20.66-3.86l-1.76-11.62,14.99,14.89-15.13,15.49c.14-4.27.49-5.6,1.89-10.84Z"/>
  <path class="st13" d="M1653.89,492.51l-20.65-4.05c7.21-2.21,11.75-2.66,20.66-3.86l-1.76-11.62,14.98,14.89-15.13,15.5c.16-4.3.5-5.6,1.89-10.85Z"/>
  <path class="st13" d="M1769.43,966.9l-20.65-4.05c7.21-2.22,11.75-2.66,20.65-3.86l-1.72-11.63,14.85,14.86c-4.74,5.42-8.88,9.67-15.06,15.42.2-4.08.56-5.51,1.93-10.75Z"/>
  <path class="st13" d="M498.45,966.91l-20.65-4.05c7.21-2.21,11.74-2.66,20.66-3.86l-1.76-11.61,14.97,14.86-15.12,15.51c.16-4.26.51-5.59,1.89-10.84Z"/>
  <path class="st13" d="M1110.59,966.9l-20.65-4.05c7.21-2.21,11.75-2.66,20.65-3.86l-1.71-11.62,14.84,14.85c-4.75,5.43-8.87,9.68-15.06,15.43.2-4.08.56-5.51,1.93-10.75Z"/>
  <path class="st13" d="M1162.2,492.51l-20.64-4.05c7.21-2.22,11.75-2.66,20.65-3.86l-1.71-11.62,14.84,14.84c-4.76,5.46-8.82,9.64-15.08,15.46.24-4.15.59-5.51,1.94-10.77Z"/>
  <path class="st24" d="M420.64,148.88c.66,6.41,1.34,16.84-2.02,21.8-3.12,4.6-13.99,12.39-18.93,10.13-8.67-3.94-9.49-17.27-6.49-24.36,6.61-7.4,17.6-7.76,27.44-7.57Z"/>
  <rect class="st6" x="1025.15" y="196.82" width="12.29" height="5.05"/>
  <path class="st26" d="M442.72,615.7l-12.69,12.06-2.26.13-5.37-.59c-1.1-.12-.51-6.43.24-7.26l11.53-12.9c2.59,2.28,6.44,5.98,8.55,8.56Z"/>
  <ellipse class="st19" cx="1650.77" cy="966.46" rx="6.84" ry="7.02"/>
  <path class="st7" d="M373.46,683.83c.11-.67.34-1.93.21-2.52h2.46l-2.67,2.52Z"/>
  <path class="st19" d="M981.53,854.02c.64.37.18,7.87-1.66,7.98l-26.28,1.49-.14-9.61c7.02-.74,21.08-.71,28.08.14Z"/>
  <path class="st11" d="M983.35,847.85v2.52c-22.98-1-46.96,2.82-68.83-2.95l68.83.42Z"/>
  <path class="st22" d="M405.98,262.88l-2.8,4.6h-2.46l-.17-5.05c1.38.17,4.07.53,5.43.45Z"/>
  <path class="st7" d="M381.05,676.26h27.04c1.47,0,4.01,1.64,4.92,2.52h-29.5l-7.61.2c.98-1.04,3.56-2.72,5.15-2.72Z"/>
  <rect class="st19" x="381.05" y="673.74" width="27.04" height="2.52"/>
  <path class="st1" d="M408.09,671.21v2.52h-27.04c0-1,1.48-2.52,2.46-2.52h24.58Z"/>
  <rect class="st19" x="383.51" y="668.69" width="24.58" height="2.52"/>
  <path class="st6" d="M405.63,678.79l5.99,7.24-25.05.32c-1.8.02-3.55-7.19-3.06-7.56h22.13Z"/>
  <ellipse class="st17" cx="379.82" cy="717.9" rx="1.23" ry="1.26"/>
</svg>