<svg xmlns="http://www.w3.org/2000/svg" xml:space="preserve" viewBox="0 0 283.5 283.5"><path d="M190.8 142.5c.3 27.4-20.2 47.4-46.9 47.9-25.5.5-46.6-20.5-47.5-44.1-1-26.4 19.7-48.2 46.6-48.5 26.6-.2 46.7 19.5 47.8 44.7M144 112.8c-15.2-1.3-33.2 11.2-32.8 32.3.4 16.9 14 30.8 32.7 30.9 16.6.1 32.3-13.6 31.9-33.1-.3-16.8-16.2-31.2-31.8-30.1m45.2 68c2 1.1 4.4 2 6 3.5 6.8 6.5 13.3 13.1 19.9 19.8 3.2 3.2 3.4 7 .6 10.1-2.9 3.2-7 3.6-10.5.7-2.8-2.4-5.4-5.1-8-7.7-4.7-4.7-9.4-9.4-14-14.2-1.9-2-2.9-4.4-1.6-7.1 1.4-3 3.7-4.8 7.6-5.1m-82.8-81c-.6 3.2-1.8 5.3-4.4 6.4-3 1.3-6.1 1-8.6-1.2-3.7-3.3-7.3-6.8-10.9-10.3S75.4 87.7 72 84c-3.5-3.9-3.4-7.3.1-10.5 3.1-2.9 7.4-2.7 10.9.7 6.5 6.3 13 12.5 19.3 19 1.8 1.8 2.7 4.4 4.1 6.6m-.1 88.9c-1 1.8-1.7 3.9-3.1 5.3-6.3 6.5-12.8 12.7-19.1 19.1-4.2 4.2-8.3 4.8-11.8 1.8-3-2.5-3.8-6.2-1.3-9.2 3.2-3.8 6.8-7.3 10.3-10.8 3.6-3.6 7.1-7.4 11-10.7 1.7-1.4 4.1-2.5 6.3-2.7 4.5-.4 7 2.3 7.7 7.2m115.3-37.1c-4.5 0-9 .1-13.5 0-4.3-.1-7.9-3.4-8-7.4s3-7.3 7.6-7.4q15-.3 30 0c4.4.1 7.1 2.9 7.2 6.9.1 4.3-2.2 7.3-6.8 7.6-5.5.4-11 .1-16.5.1zm-11.7-80.1c3.2.5 5.7 1.2 7 4.1 1.4 3.2.8 6.2-1.6 8.7-3.5 3.6-7.1 7-10.6 10.6-3.2 3.2-6.3 6.6-9.8 9.5-1.7 1.4-4.1 2.4-6.3 2.6-3.3.3-5.5-1.8-6.9-4.6s-.2-5.1 1.7-7.1c4.8-5 9.8-9.8 14.7-14.8 2.2-2.2 4.3-4.6 6.8-6.6 1.3-1.1 3.2-1.6 5-2.4M53.7 151.3c-2-.1-4 .1-5.9-.2-3.3-.7-5.5-3.6-5.5-7.1 0-3.4 2-5.9 5.4-6.8.4-.1.9-.3 1.3-.3 10.5 0 21-.2 31.5.1 4.2.1 6.5 3.1 6.6 7.1.1 3.7-1.8 6.3-5.5 6.9-2.6.4-5.2.2-7.8.3-1.1-.3-2.2-.9-3.4-1-4.5-.1-8.9-.1-13.4 0-1.1.1-2.2.7-3.3 1m83 53.4c1.6-4 4.1-5.6 8.3-5.1 3.4.4 6 3.1 6 7q.3 14.85 0 29.7c-.1 4.6-3.2 7.2-7.6 7.3-4 0-6.5-2.5-6.8-7 .2-1.4.6-2.7.6-4.1q.15-10.5 0-21c.1-2.3-.3-4.5-.5-6.8m-.1-152.9c.6-5.2 2.8-7.2 7.5-7 4.1.2 6.9 3 7 7.5.1 9.4.1 18.7 0 28.1 0 2.7-.6 5.4-3.2 7.1-4.6 3-9.1 1.3-11.3-4.3.2-1.4.6-2.7.6-4.1.1-7.4.1-14.7 0-22.1.1-1.8-.3-3.5-.6-5.2"/><path d="M53.7 151.3c1.1-.3 2.2-.9 3.4-1 4.5-.1 8.9-.1 13.4 0 1.1 0 2.2.6 3.4 1zm83 53.4c.2 2.2.6 4.5.6 6.7q.15 10.5 0 21c0 1.4-.4 2.7-.6 4.1-.1-10.6 0-21.2 0-31.8m-.1-152.9c.2 1.7.6 3.4.7 5 .1 7.4.1 14.7 0 22.1 0 1.4-.4 2.7-.6 4.1-.1-10.4-.1-20.8-.1-31.2"/></svg>