<?xml version="1.0" encoding="utf-8"?>
<!-- Generator: Adobe Illustrator 25.0.0, SVG Export Plug-In . SVG Version: 6.00 Build 0)  -->
<svg version="1.1" id="Ebene_1" xmlns="http://www.w3.org/2000/svg" xmlns:xlink="http://www.w3.org/1999/xlink" x="0px" y="0px"
	 viewBox="0 0 1920 1080" style="enable-background:new 0 0 1920 1080;" xml:space="preserve">
<style type="text/css">
	.st0{fill:#36183A;}
	.st1{fill:#562A5F;}
	.st2{fill:#4D264E;}
	.st3{fill:#3D1C43;}
	.st4{fill:#C279F3;}
	.st5{fill:#724089;}
	.st6{fill:#814DA3;}
	.st7{fill:#623572;}
	.st8{fill:#9961C1;}
	.st9{fill:#8B53B2;}
	.st10{fill:#FEA6FE;}
	.st11{fill:#F092FE;}
	.st12{fill:#AC6CDB;}
	.st13{fill:#FEC2A9;}
	.st14{fill:#E707E6;}
	.st15{fill:#030303;}
	.st16{fill:#FEA764;}
	.st17{fill:#E241CC;}
	.st18{fill:#A257F8;}
	.st19{fill:#0C0C0C;}
	.st20{fill:#080808;}
	.st21{fill:#FD6787;}
	.st22{fill:#FE8060;}
	.st23{fill:#341734;}
	.st24{fill:#FDFCFD;}
	.st25{fill:#FE7272;}
	.st26{fill:#CB3DE8;}
	.st27{fill:#F83FAD;}
	.st28{fill:#FE5199;}
</style>
<g>
	<path class="st0" d="M1,960.9c0-15.5,0-31,0-46.5c7.8-2.8,9.7-10.4,13.4-16.5c5.2-8.6,8.4-19,15-26.2c6.9-7.6,12.2-15.6,16-25
		c1-2.5,2.6-4.7,4-7c5.8-9.1,11.5-18.3,17.6-27.1c3.1-4.5,7.1-8.3,10.6-12.5c0.9-1,2.5-2.5,2.2-3.3c-2.1-7.5,3.5-12.3,6.5-17.6
		c3.7-6.6,9.8-11.9,14.3-18.1c3.1-4.2,5.4-9.1,8-13.7c1.9-3.4,3.7-7,5.5-10.5c4.4-5.6,10.7-10.3,15.5-16.1c3.5-4.2,6.9-6.4,12.1-8.7
		c7.6-3.5,14.9-9,22.5-13.5c1.2-0.7,2-2.5,3.2-2.9c6.4-2,13-3.8,19.5-5.6c5.2-1.4,10.6-3.8,15.8-3.4c6.5,0.5,12.8,3.4,18.3,5
		c3.1-2.2,5.6-3.8,8-5.5c11.4,11.6,22.9,23.1,34.3,34.7c10.2,10.5,20.2,21.3,30.3,31.9c-2.1-0.1-4.3-0.2-6.4-0.4
		c-1.8-0.2-3.6-0.6-5.4-0.9c-0.1,1.8-0.5,3.6-0.4,5.4c0.4,4.9,1.6,9.9,1.5,14.8c-0.4,14.4-2.8,27.7-20.1,31.6
		c-1.5,0.3-2.6,2.6-3.8,4c-0.9,1-1.4,2.8-2.5,3.2c-9.6,3.6-19.1,7.5-27,14.4c-0.9,0.8-2.8,0.2-4.2,0.4c-1.6,0.2-3.3,0.1-4.7,0.7
		c-8.1,3.8-16.1,7.9-24.2,11.8c-10.3,5-20.8,9.5-30.9,14.9c-8.9,4.7-17.1,11-26.1,15.3c-8.3,4-17.4,4.9-25.4,11.3
		c-10,8-22.6,12.7-34,18.8c-1.5,0.8-3.1,1.8-4.2,3.1c-3.5,3.9-6.9,7.9-10.5,12.1c-7.2-5.9-9.6-0.1-13.1,3.5
		C45.3,924.2,40,933.8,28,934c-1.4,0-3.9,1.7-3.9,2.6c0.1,11.8-15.6,12-16.9,22.8C7,960.1,3.1,960.4,1,960.9z M225,728
		c1.3-7.2-2.3-18.6-7.5-19.7c-10.4-2.1-21.3-4.1-31.7-3.1c-8.4,0.8-16.3,6.1-23.1,8.9c-7.7,9.1-15.1,17.9-21.7,25.6
		c-0.5,5.6-0.6,10.7-1.8,15.4c-0.2,0.8-5.8,0.1-9.4,0.1c-0.3,0.8-1.3,2.2-1.1,3.5c0.7,7.3-1.6,12.3-8.7,15.6
		c-5.4,2.5-11.3,5.8-14.6,10.5c-5.5,7.9-15.5,12.8-16.5,23.8c-0.1,0.8-1.8,1.5-2.7,2.3c-2.3,1.9-4.6,3.8-6.5,5.4
		c2.7,1.8,4.8,3.2,5.1,3.4c-3.2,4.1-5.4,7-7.7,9.7c-1.2,1.4-2.5,3.7-3.9,3.8c-6,0.6-8.1,4.2-9.7,9.6c-2,6.6-3.7,13-11.2,17.5
		c-5.9,3.5-11.3,10.1-12.6,18.6c-1.1,7.4-3.8,14.6-6.5,21.6c-1,2.5-4.5,6-6.7,5.9c-9-0.7-7.3,4.8-7.2,8.1c4,2.7,6.8,4.5,9.7,6.4
		c2.4-6.1,7.3-9.4,14.5-9.6c1.4,0,3.3-2.1,3.9-3.7c2.7-7,7.7-10.4,15-11.2c1.7-0.2,3.3-1.4,4.8-2.5c3.3-2.4,7-7.4,9.6-6.9
		c6.5,1.4,8.5-3.3,12.6-5.6c7.2-4.1,14.6-7.1,18.4-15.2c0.5-1.2,4.9-0.4,7.5-0.8c3-0.5,6-1.2,10.8-2.2c2.8-3.3,7.1-8.5,11.5-13.6
		c0.5-0.6,1.8-0.6,2.7-1c2.9-1.1,5.9-2.1,8.8-3.4c4-1.8,8.6-6.1,11.7-5.2c7.4,2.2,10.8-0.8,14.8-5.9c1.8-2.3,5.8-4.7,8.3-4.2
		c5.4,1,7.6-0.9,9.7-5.5c1.1-2.3,4.9-5.4,6.8-5c9.1,2.2,13.3-3.9,16.3-9.9c3-6.1,7.4-8.3,13.3-9.1c2.1-0.3,4.2-0.4,6.4-0.7
		c-0.1-1.5,0.1-2.6-0.2-2.9c-5.6-4.1-6.3-7.6-1.8-14c4.9-6.9,2.2-11-6-14.2c-1.9-0.7-3.8-2.5-4.5-4.3c-0.4-0.9,1.7-3.3,3.1-4.2
		c5.5-3.6,6.1-7.3,2.5-13.1c-3.7-5.7-5.3-12.8-11.6-16.7c-0.4-0.3-0.1-1.7-0.1-3.1C220.3,727.5,222.7,727.7,225,728z"/>
	<path class="st1" d="M112,1082.4c-9.5,0-19,0-28.5,0c-1.6-10.7,8.2-15.8,13.7-20.1c12.8-10,21.4-25.3,37.7-30.8
		c6.8-12.9,24.8-12.6,31.2-26.2c10.8-1.9,17.4-10.4,25.9-15.9c12.4-8,25.4-14.9,37-24.2c3.4-2.7,5-4.9,4.5-8.9
		c11.9-4,23.9-8,35.7-12.2c2.3-0.8,4.2-2.7,6.4-4.1c0.5-0.1,1-0.1,1.5-0.2c3.6-0.6,7.3-0.8,10.8-1.9c11.9-3.7,23.8-7.7,35.7-11.6
		c-0.4,0.9-0.7,2.2-1.3,2.5c-7.6,2.7-4.2,6-0.8,9.7c5.7,6.2,13.4,4.7,20.3,4.7c13.4,0,26.8-1,40.2-2c6.5-0.5,13-2.1,21.9-3.6
		c-3.1-5.4-5.8-8.8-7-12.6c-2.9-9.3-6.7-17.2-17.9-18.1c0.5-1,1-2.1,1.5-3.1c12-4.6,24-9.2,36-13.8c1.9,0.2,3.8,0.4,5.7,0.7
		c2.6,1.9,5.2,3.9,7.7,5.8c0.6,3.1,1.1,6.2,1.7,9.3c1.4,7.4,2.9,14.7,4.4,22.1c1.7,12,3.4,24,5.2,35.9c0.8,5.7,1.8,11.4,2.8,17.1
		c-0.7,0.7-1.5,1.5-2.2,2.2c-8.8-2.9-17.6-6.1-26.5-8.6c-15.2-4.3-30.2-10-45.7-11.7c-18-2-36.5-0.8-54.7-0.3
		c-10.2,0.3-20.4,0.7-30.5,4.1c-5.8,2-11.3,5-17.2,6.1c-8.6,1.6-16.1,4.6-23.7,9.2c-17.1,10.4-35,19.4-52.1,29.8
		c-11.2,6.8-21.5,15.1-32.1,22.8c-4.9,3.6-9.9,7.1-14.5,11.1c-6.7,5.7-12.4,12.9-19.8,17.2C116.8,1067.4,115.9,1075.6,112,1082.4z"
		/>
	<path class="st2" d="M926.5,1082.4c-59,0-118,0-177,0c-1.5-2.2-3-4.4-4.4-6.7c-1.7-2.9-3.1-6-4.6-9c-4-8.1-7.3-16.7-12.3-24.1
		c-4-5.9-3.7-11.2,2.9-14.3c2.8-1.4,5.4-3.4,8-5.1c-0.3-0.6-0.7-1.2-1-1.9c-2.3,0.3-4.6,0.5-7,0.8c-1.6-3.2-3-6.3-4.5-9.4
		c-1.1-2.3-3.6-5.3-2.9-6.7c1.8-3.8,5.2-5.7,9.9-3.6c1.9,0.9,4.5,0.4,6.7,0.5c1,0,2,0,3,0.1c6.9,2.2,13.8,4.5,20.7,6.5
		c0.3,0.1,1.2-1.4,1.8-2.2c9.2,2.8,18.4,5.6,27.6,8.4c2.2,1,4.4,2.3,6.7,3.1c18.1,6.2,36.2,12.3,54.3,18.6
		c25.1,8.7,50.1,17.6,75.2,26.5C928.7,1070,927.6,1076.2,926.5,1082.4z M734.3,1008.9c-0.8-0.6-1.3-1.2-1.8-1.2
		c-0.6,0-1.2,0.5-1.7,0.8c0.6,0.5,1,1.3,1.7,1.6C732.8,1010.2,733.4,1009.4,734.3,1008.9z"/>
	<path class="st3" d="M1,960.9c2.1-0.5,6-0.7,6.1-1.4c1.4-10.8,17-11,16.9-22.8c0-0.9,2.5-2.6,3.9-2.6c12-0.2,17.3-9.8,24.2-17.1
		c3.5-3.7,5.9-9.4,13.1-3.5c3.6-4.2,6.9-8.2,10.5-12.1c1.2-1.3,2.7-2.3,4.2-3.1c11.4-6.2,24-10.9,34-18.8c8-6.3,17.1-7.3,25.4-11.3
		c9.1-4.3,17.2-10.6,26.1-15.3c10.1-5.4,20.6-9.9,30.9-14.9c8.1-3.9,16.1-8,24.2-11.8c1.4-0.7,3.1-0.6,4.7-0.7
		c1.4-0.2,3.4,0.4,4.2-0.4c7.9-7,17.4-10.8,27-14.4c1.1-0.4,1.6-2.1,2.5-3.2c1.2-1.4,2.3-3.6,3.8-4c17.3-3.9,19.7-17.2,20.1-31.6
		c0.1-4.9-1.1-9.8-1.5-14.8c-0.2-1.8,0.2-3.6,0.4-5.4c1.8,0.3,3.6,0.7,5.4,0.9c2.1,0.2,4.3,0.3,6.4,0.4c7,6.7,13.9,13.5,20.9,20.2
		c3.5,4.1,6.9,8.1,10.4,12.2c-3.7,5-7.4,10.1-10.4,14.2c-7,2.3-14.4,3.1-19.8,6.9c-8.5,5.9-15.5,13.9-23.3,20.9
		c-1.4,1.3-3.2,2.2-5,2.9c-8.6,3.4-17.3,6.7-26,10c-4.8,1.8-9.8,3.2-14.5,5.4c-7.2,3.4-14.1,7.4-21.2,11.1c-2.5,1.3-5.1,2.5-7.8,3.6
		c-1.8,0.8-4.4,0.9-5.3,2.2c-4.3,6.4-11,6.9-17.5,8.4c-1.6,0.4-3.3,0.9-4.7,1.8c-9,5.4-17.8,11.1-26.8,16.5
		c-14.4,8.6-30.4,14.5-42.3,26.9c-1.2,1.2-2.9,1.9-4.3,2.8c-8.4,5.7-17.2,10.9-25.2,17.2c-9.7,7.6-19.1,15.6-28,24.1
		c-5.2,5-9,11.4-13.5,17.2c-0.5,0.5-1,1-1.5,1.5c-4.1,2.8-8.5,5.2-12.1,8.6c-4.7,4.5-6.4,12.4-14.9,12.4C1,986.9,1,973.9,1,960.9z"
		/>
	<path class="st4" d="M617.5,1082.4c-11.5,0-23,0-34.5,0c-1.5-2.2-2.5-4.9-4.4-6.6c-11.3-9.6-22.6-19.2-34.3-28.4
		c-20.1-15.7-42.1-27.8-66.8-34.8c-2.8-0.8-7.2,0-9.2,1.8c-3,2.8,1.4,21.1,5.1,24.6c0,0.9,0,1.9,0,2.8c0,2,0.1,4,0.1,6.1
		c0,1,0,2,0.1,3c0.5,2,1,4,1.5,6c0,1,0,2,0.1,3c1,4.5,1.9,9,2.9,13.6c0,2,0.1,4,0.1,5.9c0,1,0,2-0.1,3c-8,0-16,0-24,0
		c-2.1-2.3-3.8-5.2-6.3-6.7c-16.3-9.3-32.6-18.3-49.1-27.2c-27.2-14.7-54.9-14-83.9-4.3c-21.4,7.1-39.9,19.4-59.4,29.8
		c-2.9,1.6-4.5,5.5-6.8,8.4c-9.5,0-19,0-28.5,0c1.7-2.3,2.9-5.3,5.2-6.9c9.2-6.2,18.4-12.3,28.1-17.8c21.1-12,42.1-24.5,66.7-28.4
		c8.6-1.4,17.1-3.8,25.7-3.7c19.5,0.1,38.6,3.5,55.9,12.7c15.8,8.4,31,17.8,46.5,26.7c7.9,4.5,15.8,8.8,23.7,13.2
		c0.6-0.5,1.3-0.9,1.9-1.4c-0.6-3.7-1.3-7.4-1.9-11.1c-1.9-5.9-3.8-11.9-5.7-17.8c-0.1-4-0.2-7.9-0.3-11.9c-1.4-8-2.8-16.1-4.2-24.1
		c-0.9-4-1.9-8.1-2.8-12.1c0-1,0-1.9,0-2.9c0.5-1.9,0.5-4.2,1.6-5.4c1.8-1.9,4.6-4.3,6.8-4.1c5.3,0.3,10.7,1.7,15.9,3.1
		c28.4,7.3,53.5,21.8,77.2,38c18.7,12.7,34.6,29.5,51.5,44.7C614.3,1075.4,615.6,1079.2,617.5,1082.4z"/>
	<path class="st3" d="M59.5,1082.4c-19.5,0-39,0-58.5,0c0-18.5,0-37,0-55.5c5.8-1.4,11.6-2.5,17.3-4.2c13.3-3.9,26.4-8.3,39.7-12.1
		c24.3-6.8,48.7-13.2,73-20.1c3-0.8,5.4-3.7,8-5.6c1.9-0.1,3.9-0.2,5.8-0.3c5.6-1.4,11.1-2.9,16.7-4.3c2.8,0.2,5.6,0.1,8.2,0.7
		c0.4,0.1,0.7,3.4,0,4.7c-1.1,2.1-2.8,4.2-4.8,5.5c-6.4,3.9-13.3,7-19.6,11.1c-4.4,2.8-8.4,6.5-12.4,10
		c-5.6,4.9-10.4,10.8-16.5,14.9c-10.6,7.2-22.1,13.2-29.7,23.8c-5.7,7.9-17.1,9.7-20.1,20.4C65.5,1075.4,61.9,1078.7,59.5,1082.4z"
		/>
	<path class="st5" d="M436,927.9c-1.5-7.4-2.9-14.7-4.4-22.1c-0.6-3.1-1.2-6.2-1.7-9.3c9.2,3,18.4,6,27.5,9c5.8,1.9,11.6,4,17.5,6
		c1.5,1.9,3.5,3.6,4.2,5.8c0.5,1.6-0.4,5.3-1.2,5.4c-8.1,1.5-16.4,2.2-24.5,3.8c-4.5,0.9-11.1,1.4-11,7.6c0.1,5.9,2.6,11.8,4.1,17.7
		c1,7.1,1.9,14.1,3.1,21.2c0.2,1.1,1.8,2,2.7,3c0,1,0,1.9,0,2.9c0.1,2,0.1,4,0.2,6c0,2,0.1,4,0.1,5.9c1.3,1.1,2.6,2.2,3.9,3.4
		c0,0.4,0,0.7,0,1.1c-0.4,0.5-0.8,1.1-1.1,1.6c0.9,4.1,1.9,8.2,2.8,12.3c0.1,0.9,0.2,1.8,0.3,2.7c0.4,5,0.9,10,1.3,14.9
		c-11.4,2-20.1-4.7-29.2-9.6c-23.3-12.4-47.2-22.1-74-25.4c-22.6-2.7-43.3,2-64,8.8c-28.1,9.2-53.4,23.9-77.2,41.3
		c-3.8,2.8-7.5,5.7-11.2,8.5c-12.3,9.5-24.6,19-36.9,28.6c-0.8,0.6-0.9,2.2-1.3,3.4c-9,0-18,0-27,0c1.1-1.9,1.8-4.2,3.4-5.5
		c9.1-7.7,18.2-15.5,27.7-22.7c8.5-6.4,17.5-12.3,26.4-18.1c15.9-10.3,31.6-21.1,48.1-30.4c15.3-8.6,31.5-15.5,47.4-23
		c4.4-2.1,9-4.3,13.8-5.1c10.1-1.8,20.3-3.5,30.5-4c11.7-0.5,23.8-1.2,35.3,0.9c22.2,4.1,43.7,11,63.5,22.4c3.5,2,8.4,1.4,12.7,2
		c0.5-3.8,2-7.8,1.4-11.5c-2.2-14.7-4.9-29.4-7.9-43.9C440.3,938.2,437.8,933.1,436,927.9z"/>
	<path class="st6" d="M446.5,951.9c-1.5-5.9-4-11.8-4.1-17.7c-0.1-6.2,6.4-6.7,11-7.6c8.1-1.6,16.4-2.3,24.5-3.8
		c0.8-0.1,1.7-3.8,1.2-5.4c-0.7-2.1-2.7-3.9-4.2-5.8c21.1,7.4,42.1,15.1,63.3,22.1c29.7,9.8,59.6,19.1,89.5,28.3
		c5.4,1.7,11.2,2.3,16.8,3.4c2.5,0.5,5,0.9,7.5,1.4l-0.2,0.7c1,0.4,2.1,0.9,3.1,1.3c2,0.6,3.9,1.3,5.9,1.9c2,0.8,4,1.5,6,2.3
		c10,3.6,20.1,7.1,30.1,10.7c-1.4,0.2-2.9,1-4.1,0.6c-20.5-5.8-40.9-11.7-61.4-17.5c-5.2-1.5-10.4-2.9-15.5-4.4
		c-10.9-3.9-21.9-7.9-32.9-11.7c-9.2-3.2-10.3-2.4-11.6,7.6c3.8,2.2,8.5,3.6,11.3,6.7c7.5,8.4,14.1,17.6,21.3,26.2
		c9.4,11.4,19.1,22.5,28.7,33.8c0.6,0.8,1.4,1.5,1.9,2.3c7.5,10.3,15.1,20.6,22.3,31.1c5.5,7.9,10.6,16,15.9,24.1c-5,0-10,0-15,0
		c-1-2.7-1.4-6-3.1-8.1c-15.1-19.2-30.6-38-49.9-53.3c-14.3-11.4-27.9-23.6-41.7-35.6c-13.8-11.9-29.3-20.9-46.5-27
		c-10.1-3.5-20.2-6.1-30.9-7.7C472.3,948.6,459.5,947.1,446.5,951.9z"/>
	<path class="st7" d="M436,927.9c1.8,5.2,4.2,10.3,5.3,15.7c3,14.6,5.6,29.2,7.9,43.9c0.6,3.7-0.9,7.6-1.4,11.5
		c-4.3-0.6-9.2,0-12.7-2c-19.8-11.4-41.3-18.3-63.5-22.4c-11.4-2.1-23.5-1.5-35.3-0.9c-10.2,0.5-20.4,2.1-30.5,4
		c-4.7,0.9-9.3,3-13.8,5.1c-15.9,7.5-32.1,14.4-47.4,23c-16.5,9.3-32.2,20.1-48.1,30.4c-9,5.8-17.9,11.7-26.4,18.1
		c-9.5,7.2-18.6,14.9-27.7,22.7c-1.6,1.3-2.3,3.7-3.4,5.5c-9,0-18,0-27,0c3.9-6.8,4.8-14.9,12.9-19.7c7.4-4.3,13.1-11.5,19.8-17.2
		c4.6-3.9,9.6-7.5,14.5-11.1c10.6-7.7,20.9-16,32.1-22.8c17.1-10.4,35-19.4,52.1-29.8c7.5-4.6,15-7.6,23.7-9.2
		c5.8-1.1,11.4-4.1,17.2-6.1c10.1-3.4,20.3-3.8,30.5-4.1c18.3-0.5,36.7-1.7,54.7,0.3c15.5,1.7,30.6,7.4,45.7,11.7
		c8.9,2.5,17.7,5.7,26.5,8.6c0.7-0.7,1.5-1.5,2.2-2.2c-0.9-5.7-1.9-11.4-2.8-17.1C439.5,951.8,437.8,939.8,436,927.9z"/>
	<path class="st1" d="M139,984.9c-2.7,1.9-5.1,4.8-8,5.6c-24.3,6.9-48.7,13.3-73,20.1c-13.3,3.7-26.4,8.2-39.7,12.1
		c-5.7,1.7-11.5,2.8-17.3,4.2c0-5.5,0-11,0-16.5c6.8-5.8,14.2-11,20.3-17.5c3.4-3.6,4.5-9.3,6.7-14c0.5-0.5,1-1,1.5-1.5
		c9.8,0.8,15.2-5.9,21.5-11.7c11.2-10.3,22.6-20.5,34.3-30.2c6.3-5.2,13.3-9.5,20.1-14c7.4-4.8,15.7-8.5,22.3-14.2
		c10.7-9.2,21.6-17.4,35.5-20.8c1.2-0.3,2.2-1.2,3.2-1.8c6.2-3.9,12.1-8.6,18.7-11.7c14.7-7,29.8-13.3,44.8-19.7
		c16.6-7.1,33.3-14.2,49.9-21.2c12.2-5.2,24.7-9.7,36.6-15.7c5.5-2.8,13.4-3.8,14.5-12.2c0.5-3.7,1.1-7.4,1.6-11
		c3,3.1,5.9,6.1,8.9,9.2c0.8,3.4,1.3,6.8,2.3,10.1c1.6,4.9,1.4,8.7-4.5,10.4c-2.6,0.7-5.7,1.6-7.3,3.4
		c-13.1,14.5-31.7,17.6-48.8,23.9c-7.3,2.7-14.2,3.8-21.7,1.9c-1.2-0.3-3,0.1-4.1,0.8c-6.5,3.6-12.8,7.4-19.3,11.2
		c-3.6-5.3-9.6-5-16.7-0.1c-6.6,4.7-13.8,8.7-21,12.3c-11.7,5.8-23.8,10.8-35.5,16.5c-5.9,2.9-11.5,6.5-17.1,10.1
		c-2.2,1.4-3.7,4-5.9,5.4c-8.4,5.1-17.2,9.4-25.3,14.9c-10.6,7.1-20.8,14.8-30.8,22.8c-9.6,7.6-19.1,15.4-27.8,24
		c-9.9,9.8-18.9,20.6-28.3,30.9c-4.6,5.1-9.1,10.3-13.7,15.4c0.5,0.6,1,1.1,1.5,1.7c10.8-2.3,21.6-4.5,32.4-6.9
		c0.4-0.1,0.5-1.3,0.8-2C80,1000.9,109.5,992.9,139,984.9z"/>
	<path class="st7" d="M616,962.3c5.2,1.5,10.4,2.9,15.5,4.4c20.5,5.9,40.9,11.8,61.4,17.5c1.2,0.3,2.7-0.4,4.1-0.6
		c8.7,2.7,17.5,5.3,26.1,8.3c8.4,2.9,16.6,6.2,24.9,9.3c-1.5,0.6-3,1.2-4.6,1.8c-1,0-2,0-3-0.1c-1.3-1-2.5-2.5-4-2.8
		c-11.2-2.7-22.6-4.8-33.8-7.8c-6.5-1.8-8.4,1.4-8.6,6.4c-0.3,8.3,3.1,15.2,9.4,20.8c1.7,1.5,3.2,3.7,3.8,5.8
		c2.6,8.6,4.7,17.3,7.2,26c1.3,4.5,2.7,9,4.7,13.2c2.8,6.1,6.2,12,9.3,18c-7.5,0-15,0-22.5,0c-6.5-11.2-12.5-22.7-19.5-33.5
		c-4.4-6.8-10.3-12.6-15.6-18.8c-8.4-9.9-16.7-19.9-25.3-29.6c-6-6.7-12.5-12.9-18.9-19.3c-2.7-2.8-5.5-5.5-8.5-8.1
		C614.6,970,611.5,967,616,962.3z"/>
	<path class="st5" d="M616,962.3c-4.5,4.7-1.4,7.8,2.2,10.9c2.9,2.6,5.7,5.3,8.5,8.1c6.4,6.4,12.9,12.6,18.9,19.3
		c8.7,9.7,16.9,19.7,25.3,29.6c5.3,6.2,11.2,12,15.6,18.8c7,10.8,13.1,22.3,19.5,33.5c-11,0-22,0-33,0c-5.3-8-10.4-16.2-15.9-24.1
		c-7.3-10.5-14.9-20.7-22.3-31.1c-0.6-0.8-1.3-1.5-1.9-2.3c-9.6-11.3-19.2-22.4-28.7-33.8c-7.2-8.7-13.8-17.9-21.3-26.2
		c-2.8-3.1-7.5-4.5-11.3-6.7c1.3-10,2.4-10.8,11.6-7.6C594.1,954.4,605.1,958.4,616,962.3z"/>
	<path class="st2" d="M108.6,714.2c0-0.5,0.2-0.8,0.6-0.9c1.8-2.1,3.6-4.3,5.5-6.4c0.7-0.8,1.4-1.7,2.1-2.5c1.8-2.2,3.6-4.4,5.3-6.6
		c8.2-9.8,16.4-19.6,24.6-29.3c0.9,0,1.8-0.1,2.8-0.1c1,2,2,4,3,6.1c-0.8,0.6-1.5,1.2-2.3,1.8c0.2,0.2,0.3,0.3,0.5,0.5
		c0.6-0.8,1.2-1.5,1.8-2.3c3.1-1.7,6.6-3,9.2-5.2c6.1-5.1,12.3-8.4,20.4-4.5c1.3,0.6,3.3,0.1,4.9-0.2c8-1.5,7.4-8,8-13.8
		c5,5.1,9.9,10.1,14.9,15.2c-0.3,0.7-0.5,1.6-1,2c-8.1,5.1-16.3,10.2-24.6,15.1c-0.8,0.5-2.4-0.5-3.6-0.3c-6.3,0.8-13,0.6-18.7,2.9
		c-6.9,2.8-13.1,7.5-19.1,11.9c-6,4.4-13.5,6.1-18.2,13.1c-3.5,5.3-10.8,7.9-14.3,13.2c-6.8,10.3-12,21.7-18.2,32.5
		c-1.6,2.8-5,4.5-6.7,7.2c-3,4.8-5.1,10.3-8,15.1c-5.7,9.4-11.8,18.6-17.8,27.8c-2.4,3.7-5.1,7.1-7.6,10.7c-1,1.4-2,2.8-2.8,4.3
		c-3.8,6.4-7.3,13-11.3,19.3c-5,7.9-10.6,15.4-15.5,23.4c-4.4,7.2-7.9,14.9-12.2,22c-2.6,4.3-6.2,7.9-9.3,11.9c0-9,0-18,0-27
		c1.9-0.9,4.7-1.3,5.5-2.8c9.5-17.4,19.5-34.4,31.2-50.5c6.5-8.9,12.1-18.4,17.3-28.1c2.4-4.5,2.8-10.1,4.2-15.2
		c-0.1-0.5,0.2-0.8,0.6-0.9c2.4-2.9,4.9-5.8,7.3-8.8c0,0,0.1-0.2,0.1-0.2c1.3-1.7,2.6-3.4,4-5.1c0.7-0.8,1.4-1.6,2.2-2.4
		c2.3-2.7,4.5-5.5,6.8-8.2c-0.1-0.5,0.1-0.8,0.6-0.9c2.3-2.7,4.6-5.5,6.9-8.2c0-0.5,0.2-0.7,0.6-0.8c1.8-2.2,3.6-4.4,5.4-6.6
		c0-0.5,0.2-0.8,0.7-0.9c1.8-2.2,3.6-4.3,5.3-6.5c0.7-0.8,1.3-1.6,2-2.4C104,719.7,106.3,717,108.6,714.2z"/>
	<path class="st8" d="M452.7,990.8c0-2-0.1-4-0.1-5.9c-0.1-2-0.1-4-0.2-6c0-1,0-1.9,0-2.9c0.3-10.5,4.1-13.2,14.5-10.2
		c0.7,0.2,1.4,0.5,2.1,0.6c12.9,2.4,26.4,3.3,38.7,7.6c15.2,5.3,30.2,12.2,44.1,20.4c16.9,10.1,33.1,21.6,48.5,33.9
		c15.8,12.7,30.4,27,42.3,43.8c2.3,3.3,4.3,6.9,6.5,10.3c-8,0-16,0-24,0c-0.6-1.8-0.6-4.1-1.8-5.5c-6.7-8-13.1-16.4-20.6-23.5
		c-19.7-18.5-40.9-34.9-64.8-48c-20.2-11.1-40.8-19.7-63.3-24.5c-13.1-2.8-17.3-0.8-17.6,10.1C455.5,990.9,454.1,990.8,452.7,990.8z
		"/>
	<path class="st3" d="M1,897.9c3.1-3.9,6.7-7.6,9.3-11.9c4.4-7.2,7.9-14.9,12.2-22c4.9-8,10.5-15.5,15.5-23.4
		c4-6.3,7.5-12.9,11.3-19.3c0.9-1.5,1.8-2.9,2.8-4.3c2.5-3.6,5.2-7,7.6-10.7c6-9.2,12.1-18.4,17.8-27.8c3-4.9,5-10.3,8-15.1
		c1.7-2.7,5.1-4.5,6.7-7.2c6.2-10.7,11.4-22.1,18.2-32.5c3.5-5.2,10.8-7.9,14.3-13.2c4.6-7,12.2-8.7,18.2-13.1
		c6.1-4.4,12.3-9.1,19.1-11.9c5.7-2.3,12.4-2.1,18.7-2.9c1.2-0.1,2.7,0.8,3.6,0.3c8.3-4.9,16.4-10,24.6-15.1c0.5-0.3,0.7-1.3,1-2
		c6.1,5.9,12.3,11.7,18.4,17.6c0.2,1,0.5,1.9,0.7,2.9c-2.4,1.7-4.8,3.3-8,5.5c-5.4-1.6-11.8-4.5-18.3-5c-5.1-0.4-10.5,2-15.8,3.4
		c-6.5,1.7-13,3.5-19.5,5.6c-1.2,0.4-2,2.2-3.2,2.9c-7.6,4.4-14.9,10-22.5,13.5c-5.2,2.4-8.6,4.5-12.1,8.7
		c-4.8,5.8-11.1,10.5-15.5,16.1c-1.8,3.5-3.6,7-5.5,10.5c-2.6,4.6-4.9,9.5-8,13.7c-4.5,6.2-10.6,11.5-14.3,18.1
		c-2.9,5.3-8.6,10.1-6.5,17.6c0.2,0.8-1.4,2.3-2.2,3.3c-3.5,4.2-7.5,8-10.6,12.5c-6.1,8.9-11.8,18-17.6,27.1c-1.4,2.3-3,4.5-4,7
		c-3.8,9.4-9.1,17.3-16,25c-6.6,7.3-9.8,17.6-15,26.2c-3.7,6-5.6,13.7-13.4,16.5C1,908.9,1,903.4,1,897.9z"/>
	<path class="st9" d="M649,1082.4c-2.2-3.4-4.1-7-6.5-10.3c-11.9-16.7-26.4-31.1-42.3-43.8c-15.4-12.3-31.6-23.8-48.5-33.9
		c-13.9-8.3-28.8-15.2-44.1-20.4c-12.3-4.3-25.8-5.2-38.7-7.6c-0.7-0.1-1.4-0.4-2.1-0.6c-10.3-3-14.2-0.3-14.5,10.2
		c-0.9-1-2.5-1.8-2.7-2.9c-1.2-7-2.1-14.1-3.1-21.2c13-4.8,25.8-3.3,39.2-1.2c10.7,1.7,20.8,4.2,30.9,7.7c17.3,6,32.7,15.1,46.5,27
		c13.8,11.9,27.4,24.2,41.7,35.6c19.3,15.4,34.8,34.1,49.9,53.3c1.7,2.2,2.1,5.4,3.1,8.1C655,1082.4,652,1082.4,649,1082.4z"/>
	<path class="st8" d="M466,1047.9c1.9,5.9,3.8,11.9,5.7,17.8c-3.6-0.3-7.4,0.1-10.6-1.1c-4.1-1.5-7.8-4.3-11.6-6.5
		c-10.3-6-20.9-11.6-30.9-18.1c-14.6-9.4-30.6-16.3-47.4-18.6c-16.8-2.4-34.2-1.2-51.2-0.4c-21,1-40.8,6.5-58.6,18.6
		c-14.3,9.8-29.6,18.2-44.1,27.8c-6.2,4.1-11.3,9.9-16.8,15c-3,0-6,0-9,0c2.5-3,4.4-6.7,7.4-8.8c16.4-11.6,32.6-23.4,49.7-33.9
		c14.1-8.7,28.9-16.3,43.9-23.3c7.5-3.5,15.9-5.5,24.1-6.9c13.1-2.2,26.6-5.4,39.7-4.5c13.4,1,27,5.1,39.4,10.4
		c16.8,7.1,32.4,16.9,48.8,25C451.3,1043.7,458.8,1045.4,466,1047.9z"/>
	<path class="st2" d="M59.5,1082.4c2.4-3.7,5.9-7,7.1-11c3-10.7,14.5-12.5,20.1-20.4c7.6-10.6,19.2-16.6,29.7-23.8
		c6.1-4.1,10.9-10,16.5-14.9c4-3.5,7.9-7.2,12.4-10c6.3-4,13.2-7.2,19.6-11.1c2-1.2,3.7-3.4,4.8-5.5c0.7-1.3,0.4-4.6,0-4.7
		c-2.7-0.6-5.5-0.5-8.2-0.7c0-0.5-0.1-1.1-0.1-1.6c8.5-3,17.1-5.9,25.6-8.9c1,0,2,0,3,0c1-0.5,2-1,3-1.5c8.5-2.1,16.9-4.1,25.4-6.2
		c1.5-0.9,3.1-1.9,4.6-2.8c3.5-1,7-2,10.5-3c0.5,4-1.1,6.1-4.5,8.9c-11.6,9.3-24.6,16.2-37,24.2c-8.5,5.5-15.1,14-25.9,15.9
		c-6.4,13.5-24.3,13.2-31.2,26.2c-16.3,5.5-24.8,20.8-37.7,30.8c-5.5,4.3-15.3,9.3-13.7,20.1C75.5,1082.4,67.5,1082.4,59.5,1082.4z"
		/>
	<path class="st10" d="M422.5,1082.4c-50,0-100,0-150,0c1.8-2.2,3.3-4.8,5.6-6.4c3.4-2.5,7.3-4.3,11-6.3
		c18.2-9.6,37.4-15.9,58.1-17.4c27.6-2.1,49.6,11.5,71.8,24.8C420.6,1078,421.3,1080.6,422.5,1082.4z"/>
	<path class="st11" d="M422.5,1082.4c-1.2-1.8-1.9-4.3-3.6-5.3c-22.2-13.2-44.2-26.8-71.8-24.8c-20.7,1.6-39.9,7.8-58.1,17.4
		c-3.7,2-7.6,3.8-11,6.3c-2.2,1.6-3.7,4.2-5.6,6.4c-8,0-16,0-24,0c2.2-2.8,3.9-6.8,6.8-8.4c19.5-10.5,38-22.7,59.4-29.8
		c29-9.7,56.6-10.3,83.9,4.3c16.5,8.9,32.8,17.9,49.1,27.2c2.5,1.5,4.2,4.4,6.3,6.7C443.5,1082.4,433,1082.4,422.5,1082.4z"/>
	<path class="st12" d="M200.5,1082.4c5.6-5,10.7-10.8,16.8-15c14.4-9.6,29.8-18,44.1-27.8c17.8-12.1,37.5-17.7,58.6-18.6
		c17.1-0.8,34.5-2,51.2,0.4c16.8,2.4,32.8,9.2,47.4,18.6c10,6.5,20.6,12.1,30.9,18.1c3.8,2.2,7.5,5,11.6,6.5
		c3.2,1.2,7.1,0.8,10.6,1.1c0.6,3.7,1.3,7.4,1.9,11.1c-0.6,0.5-1.3,0.9-1.9,1.4c-7.9-4.4-15.9-8.7-23.7-13.2
		c-15.5-8.9-30.7-18.3-46.5-26.7c-17.4-9.2-36.5-12.6-55.9-12.7c-8.6,0-17.1,2.4-25.7,3.7c-24.6,3.9-45.6,16.4-66.7,28.4
		c-9.6,5.5-18.9,11.6-28.1,17.8c-2.2,1.5-3.5,4.5-5.2,6.9C213.5,1082.4,207,1082.4,200.5,1082.4z"/>
	<path class="st9" d="M466,1047.9c-7.2-2.5-14.7-4.2-21.5-7.5c-16.4-8.1-32-17.9-48.8-25c-12.4-5.3-26.1-9.4-39.4-10.4
		c-13-1-26.5,2.2-39.7,4.5c-8.2,1.4-16.6,3.3-24.1,6.9c-15,7.1-29.8,14.6-43.9,23.3c-17,10.5-33.3,22.3-49.7,33.9
		c-3,2.1-5,5.8-7.4,8.8c-5,0-10,0-15,0c1.1-1.5,1.8-3.5,3.3-4.5c11.4-8.4,22.7-16.7,34.3-24.7c13.1-9.1,26.1-18.5,39.9-26.6
		c12.5-7.3,25.7-14,39.3-19.1c12.8-4.8,26.3-8.2,39.8-10.1c9.5-1.4,19.7-0.4,29.3,1.3c14.3,2.5,28.8,4.3,41.9,11.9
		c14.9,8.7,30.2,16.6,45.6,24.3c3.3,1.6,7.8,0.7,11.7,1c1.4,0,2.8,0.1,4.2,0.1C465.8,1039.9,465.9,1043.9,466,1047.9z"/>
	<path class="st10" d="M473.5,1050.8c0-1,0-2-0.1-3c0-2-0.1-4-0.1-6.1c0-0.9,0-1.9,0-2.8c-0.5-7.3,2.7-8.4,9.1-6.1
		c23.7,8.3,44.3,21.8,63.6,37.4c4.3,3.4,7.7,8,11.4,12c-25.5,0-51,0-76.5,0c-1-1-2-2-2.9-3c0-2-0.1-4-0.1-5.9
		c1.3-5,1.8-9.8-2.9-13.5c0-1,0-2-0.1-3C474.5,1054.9,474,1052.9,473.5,1050.8z"/>
	<path class="st6" d="M461.5,1035.8c-3.9-0.3-8.5,0.6-11.7-1c-15.4-7.7-30.7-15.6-45.6-24.3c-13.1-7.6-27.6-9.4-41.9-11.9
		c-9.6-1.7-19.8-2.7-29.3-1.3c-13.5,2-27,5.3-39.8,10.1c-13.6,5.1-26.7,11.8-39.3,19.1c-13.8,8.1-26.8,17.5-39.9,26.6
		c-11.6,8-23,16.4-34.3,24.7c-1.4,1.1-2.2,3-3.3,4.5c-3.5,0-7,0-10.5,0c0.4-1.1,0.5-2.7,1.3-3.4c12.2-9.6,24.6-19.1,36.9-28.6
		c3.7-2.9,7.4-5.8,11.2-8.5c23.8-17.4,49.2-32.1,77.2-41.3c20.6-6.8,41.4-11.6,64-8.8c26.8,3.3,50.6,13,74,25.4
		c9.1,4.8,17.8,11.5,29.2,9.6C460.4,1029.8,461,1032.8,461.5,1035.8z"/>
	<path class="st11" d="M557.5,1082.4c-3.8-4-7.2-8.6-11.4-12c-19.3-15.6-39.9-29.1-63.6-37.4c-6.4-2.3-9.6-1.2-9.1,6.1
		c-3.6-3.5-8-21.7-5.1-24.6c1.9-1.9,6.4-2.6,9.2-1.8c24.6,7,46.7,19.1,66.8,34.8c11.7,9.1,23,18.7,34.3,28.4c1.9,1.6,3,4.3,4.4,6.6
		C574.5,1082.4,566,1082.4,557.5,1082.4z"/>
	<path class="st1" d="M728.5,1082.4c-3.1-6-6.5-11.9-9.3-18c-1.9-4.2-3.4-8.7-4.7-13.2c-2.5-8.6-4.6-17.4-7.2-26
		c-0.6-2.1-2.1-4.3-3.8-5.8c-6.3-5.6-9.7-12.5-9.4-20.8c0.2-5,2.1-8.2,8.6-6.4c11.1,3,22.5,5.1,33.8,7.8c1.5,0.4,2.7,1.9,4,2.8
		c-2.3-0.1-4.8,0.3-6.7-0.5c-4.7-2.1-8.1-0.2-9.9,3.6c-0.7,1.5,1.8,4.5,2.9,6.7c1.5,3.1,2.9,6.2,4.5,9.4c2.3-0.3,4.6-0.5,7-0.8
		c0.3,0.6,0.7,1.2,1,1.9c-2.7,1.7-5.2,3.7-8,5.1c-6.6,3.1-6.9,8.4-2.9,14.3c5,7.4,8.3,16.1,12.3,24.1c1.5,3,3,6.1,4.6,9
		c1.3,2.3,2.9,4.4,4.4,6.7C742.5,1082.4,735.5,1082.4,728.5,1082.4z"/>
	<path class="st12" d="M456.9,990.9c0.3-10.9,4.5-12.9,17.6-10.1c22.4,4.9,43.1,13.5,63.3,24.5c23.9,13.2,45.1,29.5,64.8,48
		c7.5,7.1,13.9,15.5,20.6,23.5c1.1,1.4,1.2,3.6,1.8,5.5c-2.5,0-5,0-7.5,0c-1.9-3.1-3.2-7-5.8-9.3c-16.9-15.2-32.8-32-51.5-44.7
		c-23.7-16.1-48.9-30.7-77.2-38c-5.2-1.3-10.5-2.8-15.9-3.1c-2.2-0.1-4.9,2.3-6.8,4.1c-1.2,1.2-1.1,3.6-1.7,5.4c-0.6,0-1.1,0-1.7,0
		c-0.1-0.5-0.3-1.1-0.4-1.6c0-0.4,0-0.7,0-1.1C456.7,993.1,456.8,992,456.9,990.9z"/>
	<path class="st7" d="M59.2,774.2c-1.3,5.1-1.8,10.7-4.2,15.2c-5.2,9.7-10.8,19.3-17.3,28.1C26,833.7,16,850.7,6.5,868.1
		c-0.8,1.5-3.6,1.9-5.5,2.8c0-10,0-20,0-30c7-7.7,14.2-15.3,21.1-23.2C34.5,803.3,46.8,788.7,59.2,774.2z"/>
	<path class="st13" d="M951.8,1046.7c12.1,10.8,24.3,21.6,36.3,32.4c0.8,0.7,0.9,2.2,1.3,3.3c-2.5,0-5,0-7.5,0c-7-2.9-14-5.9-21-8.8
		c-0.2-1.2-0.1-2.5-0.5-3.6C957.6,1062.1,954.7,1054.4,951.8,1046.7z"/>
	<path class="st1" d="M926.5,1082.4c1.1-6.2,2.1-12.4,3.2-18.5c6,2,12,4.1,17.9,6.1c0.5,4.1,0.9,8.3,1.4,12.4
		C941.5,1082.4,934,1082.4,926.5,1082.4z"/>
	<path class="st2" d="M28,978.9c-2.2,4.7-3.3,10.4-6.7,14c-6.1,6.5-13.5,11.7-20.3,17.5c0-3.5,0-7,0-10.5c8.5,0,10.2-7.9,14.9-12.4
		C19.5,984.1,23.9,981.7,28,978.9z"/>
	<path class="st7" d="M949,1082.4c-0.5-4.1-0.9-8.3-1.4-12.4c4.4,1.2,8.9,2.4,13.3,3.6c7,2.9,14,5.9,21,8.8
		C971,1082.4,960,1082.4,949,1082.4z"/>
	<path class="st11" d="M478.1,1079.3c1,1,2,2,2.9,3c-1,0-2,0-3,0C478,1081.4,478,1080.3,478.1,1079.3z"/>
	<path class="st14" d="M280.3,359.9c-12.2-3.3-25.7-6.7-39.1-10.5c-16.3-4.6-32.5-9.6-48.8-14.1c-8.2-2.3-13.4-7.2-15.7-15.4
		c-7.3-25.7-14.4-51.3-21.9-77c-2.6-8.9-2.5-17.6,0.1-26.5c7.4-25.6,14.5-51.3,21.7-77c2-7,6.2-12.4,13-14.4
		c28.3-8.2,56.6-16,85-23.8c11.8-3.3,22.7,2,33.6,4.9c21.4,5.8,42.7,12.1,64.1,18.2c7.9,2.2,12.9,7.2,15.2,15
		c7.4,26.1,14.9,52.3,22.3,78.4c2.6,9.2,1.7,18.2-1,27.3c-7.2,24.6-14.2,49.3-21.1,74c-2.4,8.8-7.7,13.9-16.5,16.4
		c-25.9,7.2-51.7,14.8-77.6,22.1C289.8,358.6,285.8,359,280.3,359.9z M282,118.9c-3.7,2.1-7.3,3.4-9.8,5.8
		c-31.9,31.7-63.7,63.5-95.5,95.3c-6.5,6.6-6.4,12.9,0.2,19.6c31.6,31.7,63.2,63.3,94.9,94.9c6.8,6.8,13.4,6.9,20.2,0.2
		c31.7-31.6,63.3-63.2,94.9-94.8c6.3-6.3,6.5-13.6,0.4-19.8c-31.7-31.9-63.5-63.7-95.4-95.3C289.4,122.3,285.8,121.1,282,118.9z"/>
	<path class="st15" d="M868,316c-10.2,0-19.9,0-30.2,0c0-17.9,0-35.6,0-53.3c0-8,0.1-16,0-24c-0.2-10.7-3.6-16.5-10.8-18.6
		c-9.8-2.9-21.6,0.4-25.8,8.7c-3.1,6-5.1,13.2-5.3,19.9c-0.7,21-0.3,42-0.4,63c0,1.2-0.1,2.4-0.2,4.1c-10,0-19.6,0-30.2,0
		c0-2.6,0-5.3,0-7.9c0-22.5,0.1-45,0-67.5c-0.1-13.4-3.8-19.1-12.8-20.6c-13.2-2.2-23.6,3.4-27,15.5c-1.7,6.1-2.4,12.8-2.5,19.2
		c-0.3,20.2-0.1,40.5-0.1,61.2c-10,0-19.8,0-29.9,0c0-39.8,0-79.4,0-119.4c9.5,0,18.6,0,28.8,0c0,5.2,0,10.5,0,15.7
		c0.6,0.4,1.1,0.8,1.7,1.2c8.2-13.7,20-19.8,35.5-19.5c15.8,0.3,27.4,6.3,33.7,22c1.3-1.2,2.2-1.6,2.6-2.4
		c10.2-18.6,27.1-21.5,45.8-18.7c15.5,2.4,24.3,13.5,26.6,31.9c0.5,4.2,0.4,8.5,0.4,12.7C868.1,264.8,868,290.2,868,316z"/>
	<path class="st16" d="M961,1073.5c-4.4-1.2-8.9-2.4-13.3-3.6c-6-2-12-4.1-17.9-6.1c-25.1-8.8-50.1-17.7-75.2-26.5
		c-18.1-6.3-36.2-12.4-54.3-18.6c-2.3-0.8-4.4-2.1-6.6-3.1c-0.7-1.2-1.2-3-2.2-3.5c-11.9-4.8-24.1-9.1-36-14.1
		c-6.4-2.7-12.9-5.7-18.6-9.6c-10.3-7.2-19.8-15.5-30.1-22.8c-8.4-6-17.3-11.4-26.4-16.4c-8.2-4.5-17.2-7.7-25.5-12.1
		c-13-6.9-25.7-14.6-38.7-21.6c-11.2-6.1-22.5-12.1-34.1-17.5c-14-6.6-28.4-12.3-42.6-18.7c-7.3-3.3-14.2-7.7-21.6-10.8
		c-9.9-4.2-20.2-7.5-30.3-11.2c-6.4-2.3-12.7-4.8-19.1-7.2c-14.8-5.6-29.4-12.1-44.5-16.5c-19.9-5.8-40.4-10-60.6-14.7
		c-1.2-0.3-2.6,0.6-4,0.9c-2-1.5-4-3-6-4.5c-4-4.4-8.1-8.7-12.1-13.1c-3-3.1-5.9-6.1-8.9-9.2c-2.5-2.5-5.1-5.1-7.6-7.6
		c-3.5-4.1-6.9-8.1-10.4-12.2c2.1,0.4,5,0,6.1,1.2c8.4,9.6,19.5,15,30.8,19.2c15.3,5.7,31.4,9.4,47.1,14.2c9.9,3,20,5.6,29.4,9.9
		c21.4,9.7,42.4,20.6,63.7,30.4c18.1,8.3,36.5,15.9,54.7,23.8c17,7.4,34.1,14.6,51.1,22.2c20.1,9,40,18.3,60,27.4
		c4.9,2.2,9.9,4.3,15,6.3c9.1,3.6,18.2,7.2,27.3,10.8c-1.1,3-1.9,5.2-2.9,7.9c73.1,31,145.8,61.9,217.3,92.2
		c4.5-2.4,7.6-4.1,10.7-5.8c2.5,0.5,5,1.1,7.5,1.6c3.5,2,6.9,4,10.4,6l0.1,0c0.5,0.5,1,1,1.4,1.4l0.1,0.1c0.5,0.5,1,1,1.4,1.4
		l0.1,0.1c0.6,0.1,1.2,0.3,1.7,0.4l0.4,0l0.4-0.1c0.3,0.3,0.5,0.6,0.8,0.9c0.8,0.6,1.6,1.1,2.4,1.7c0,0,0.1,0.3,0.1,0.3
		c2.9,7.7,5.8,15.5,8.6,23.3C960.8,1071,960.8,1072.3,961,1073.5z"/>
	<path class="st17" d="M773.5,881.5c21.5,20,42.9,40,64.4,60c0,0,0,0,0,0c-3.1-1.9-6.3-3.6-9.1-5.8c-5.5-4.4-10.8-9.2-16.2-13.8
		c-6.5-6-13-12-19.5-18c-7-5.9-13.1-13.6-21.1-17.4c-11.1-5.3-23.5-7.7-35.4-11.3c-15.5-4.6-31-8.9-46.4-13.9
		c-26.5-8.6-52.8-17.5-79.1-26.3c-18.8-6.3-37.7-12.2-56.3-18.9c-15.6-5.7-30.9-12.4-46.4-18.4c-15.1-5.8-30.4-10.8-45.3-17
		c-23.7-9.8-47-20.4-70.5-30.6c-25.2-11-50.7-21.4-75.6-33c-24.5-11.4-48.4-24-72.6-35.9c-6.4-3.1-13.1-5.6-19.7-8.3
		c-8.1-7.4-16.3-14.7-24.3-22.2c-1.3-1.2-1.8-3.3-2.7-5c4,1,8.1,2.1,12.1,3.1c1.6,1.6,2.9,3.8,4.8,4.8c20.5,10.4,40.9,20.8,61.5,31
		c15,7.4,30.1,14.6,45.3,21.6c19.6,9,39.1,18.2,59,26.5c37.9,15.9,75.9,31.5,114,46.7c14.5,5.8,29.6,10.2,44.3,15.5
		c10.2,3.6,20.1,8,30.3,11.3c10.4,3.4,21,6,31.5,8.8c23.5,6.2,46.9,12.6,70.5,18.5c15.6,3.9,31.3,7.2,47,10.6
		c4,0.9,8.2,0.8,12.3,1.2c1.1,0,2.1,0,3.2,0c0,0-0.2,0-0.2,0c1.1,0.6,2.1,1.2,3.2,1.8c0.4,0.4,0.8,0.7,1.2,1.1
		c0.1,0.5,0.3,1.1,0.4,1.6c0,0-0.1-0.1-0.1-0.1c5.4,4.6,10.8,9.3,16.2,13.9c0,0,0,0,0,0c0.6,0.9,1.3,1.9,1.9,2.8
		c0,0-0.2-0.1-0.2-0.1c0.5,0.5,1.1,1.1,1.6,1.6c0,0-0.1-0.2-0.1-0.2c1,0.6,1.9,1.2,2.9,1.9c0,0-0.1-0.1-0.1-0.1
		c0.5,0.5,1.1,1,1.6,1.6c0,0-0.1-0.1-0.1-0.1c1.8,1.6,3.7,3.2,5.5,4.8c0,0,0.3,0.3,0.3,0.3c1.2,1.3,2.3,2.6,3.5,3.9
		c0,0-0.2-0.1-0.2-0.1C771.5,880.3,772.5,880.9,773.5,881.5z"/>
	<path class="st15" d="M925.2,263.2c1.4,13.7,5.6,24.7,19.2,28.3c15.6,4.1,29.3,1.2,38.5-14.8c7.2,4.5,14.1,8.8,21.5,13.5
		c-7,14.4-17.7,24.2-33,26.5c-11.1,1.7-23.1,1.8-34.1-0.2c-22.5-4.3-36.2-19-40.9-41.4c-3.4-16.2-3.3-32.4,3.2-47.8
		c8.3-20,23.9-30.9,45.3-32.9c7.1-0.7,14.6-0.6,21.6,0.6c23.6,4.1,35.9,18.7,38.5,44.6c2.4,23.6,2.4,23.6-20.7,23.6
		C964.8,263.2,945.3,263.2,925.2,263.2z M975.9,243.5c0.3-17.5-8.1-26.6-23.8-26.2c-15.1,0.3-25.8,11.5-25.2,26.2
		C943.1,243.5,959.2,243.5,975.9,243.5z"/>
	<path class="st15" d="M546.4,257.8c-0.1-30.3,12-51.5,34.7-59.7c34.2-12.3,81.3-0.5,83.2,53.2c0.3,9.1-0.4,18.6-2.7,27.4
		c-7.4,27.7-32.1,42.9-62.9,39.9c-29-2.8-48.6-22-51.6-50.3C546.6,264.4,546.5,260.4,546.4,257.8z M633.9,254.9
		c-0.9-5.1-1.3-11.4-3.1-17.3c-3.5-12-12.2-17.9-25.3-17.9c-13.2,0-22.6,5.5-25.2,17.8c-2.2,10.3-2.6,21.3-1.6,31.8
		c1.4,15.5,11.8,24,26.5,24c14.4,0.1,24.1-8.1,26.9-23C633.1,265.5,633.3,260.7,633.9,254.9z"/>
	<path class="st15" d="M464.1,172.5c10.4-1.7,19.7-3.2,29.8-4.8c0,9.3,0,18.4,0,28c11.6,0,22.5,0,33.9,0c0,8.2,0,15.8,0,24
		c-10.9,0-21.7,0-33.6,0c0,12.2,0,23.8,0,35.5c0,6.7-0.1,13.5,0.1,20.2c0.3,14.2,9,20.1,22.6,15.2c2.3-0.8,4.5-2,7.8-3.4
		c2.5,7.2,5.1,14,7.2,21.1c0.3,1.1-1.4,3.7-2.8,4.4c-15.1,7.6-30.7,8.9-46.1,1.8c-14.2-6.5-18.6-19.5-18.8-34
		c-0.3-19.9-0.1-39.9-0.1-60.3c-6.3,0-12,0-18.2,0c0-8.1,0-15.7,0-24c5.9,0,11.8,0,18.1,0C464.1,187.8,464.1,180.4,464.1,172.5z"/>
	<path class="st18" d="M209.5,648.8c-4-1-8.1-2.1-12.1-3.1c-0.5-0.4-0.9-0.8-1.4-1.2c-0.6-0.5-1.2-0.9-1.8-1.4
		c-1.6-1.2-3.3-2.5-4.9-3.7c0,0-0.1-0.1-0.1-0.1c12.6,3.9,25.3,7.4,37.7,11.8c31.5,11.1,62.9,22.7,94.4,34
		c52.3,18.9,104.6,38,156.9,56.8c21.6,7.8,43.3,15.3,64.9,23c25.2,9,50.4,18.2,75.6,27.4c2.3,0.8,4.3,2.3,6.5,3.4l-0.3,0.3
		c-2.2-0.3-4.7,0-6.6-0.9c-16-7.3-33.6-8.1-50.3-12.3c-25.2-6.3-50.4-12.8-75.3-20.1c-16.5-4.8-32.8-10.7-48.9-16.6
		c-16.3-6-32.6-12.1-48.5-19c-27.3-11.8-54.4-24.2-81.4-36.6c-9.9-4.5-19.1-10.6-29.1-14.8c-14.2-6-28.8-11-43.3-16.2
		C230.8,655.9,220.1,652.4,209.5,648.8z"/>
	<path class="st19" d="M1601.8,593.6c-3.4,9.7-7.5,19.3-10.1,29.2c-1.9,7.1-5.3,9.6-12.8,7.3c-4.3-12.1-8.8-24.7-13.2-37.3
		c-0.4,0-0.9,0.1-1.3,0.1c0,12.4,0,24.8,0,37.5c-4,0-7.1,0-10.5,0c0-19.7,0-39,0-58.5c0.8-0.3,1.5-0.7,2.2-0.7
		c12.7-0.5,12.7-0.4,16.9,11.7c3.5,10.3,7.1,20.7,11.3,32.9c4.2-12.1,7.8-22.4,11.3-32.8c4.4-12.8,4.4-12.8,18.7-11.4
		c0,19.3,0,38.6,0,58.5c-3.2,0-6.6,0-10.5,0c0-11.9,0-24.1,0-36.2C1603,593.9,1602.4,593.8,1601.8,593.6z"/>
	<path class="st19" d="M642.3,630.5c-3.6,0-7,0-11.1,0c0-9,0-17.7,0-26.4c0-4.2,0.5-9-5.8-9.3c-6.3-0.3-9.3,3.4-9.4,9.1
		c-0.3,8.7-0.1,17.4-0.1,26.5c-4.1,0-7.4,0-11.2,0c0-14.7,0-29.3,0-44.4c4.3,0.7,9.8-3.3,11.2,4.4c11.2-7.7,17.9-7.2,25.8,1.5
		c2.7-2,5.1-4.7,8.1-5.8c10.6-4.1,19.3,1.5,19.8,13c0.5,10.2,0.1,20.4,0.1,31.1c-3.7,0-7,0-11.5,0c0-8.6,0-17.5,0-26.4
		c0-4.3,0.3-8.9-6-9.1c-5.9-0.2-8.9,3.2-9.2,8.6c-0.4,8-0.2,16-0.3,24C642.8,628.3,642.5,629.3,642.3,630.5z"/>
	<path class="st19" d="M340.7,486.4c1.7,2.4,4,4.5,5,7.1c2.8,6.9,5,14,7.5,21.1c-11.5,1.8-11.5,1.8-15.1-9.1
		c-0.5-1.4-0.9-2.8-1.4-4.3c-3.4-10.2-4.2-10.8-16.5-10c0,7.8,0,15.6,0,23.8c-4.2,0-7.6,0-11.5,0c0-19.2,0-38.5,0-58.2
		c10,0,20.1-0.6,30.1,0.2c6.5,0.5,10.5,5.4,11.5,12C351.6,476.9,349.2,481.1,340.7,486.4z M320.7,465.8c0,5,0,10,0,15
		c13.9,1.6,17.8,0.1,18.2-6.6C339.4,466.9,336.2,465.4,320.7,465.8z"/>
	<path class="st20" d="M894.6,511.7c-4.5-6.7-4.1-8.7,3.9-13.7c-6.6-6-9.6-13.3-4.4-21.2c5.8-8.7,14.9-7.4,24.2-5.6
		c0.9-2,1.9-4.2,3.1-6.8c2.5,0.6,5.1,1.2,8.9,2.2c-2.3,3.5-4.3,6.5-6.3,9.6c6.3,11.2,2.5,23.9-15.8,24.2c-1.9,0-3.9,1.8-5.8,2.7
		c1.9,1.1,3.8,2.7,5.9,3c4.2,0.7,8.5,0.3,12.6,1c5.3,0.8,9.3,3.6,10.2,9.4c0.9,6.2-0.7,11.7-6.6,14.6c-10.2,5-20.9,4.9-31,0.1
		c-2.8-1.4-5.7-6.3-5.4-9.4C888.2,518.5,892,515.4,894.6,511.7z M907.7,515.9c-0.4-0.5-0.7-1-1.1-1.5c-2.8,2-5.6,4-8.4,6.1
		c3.1,1.9,5.9,4.5,9.2,5.4c2.6,0.8,6,0.1,8.7-0.9c1.7-0.6,3.5-3.2,3.5-4.9c0-1.2-2.8-2.9-4.6-3.5
		C912.8,515.9,910.2,516.1,907.7,515.9z M919.4,485.5c-4.7-3.7-6.9-6.7-9.7-7.4c-4.2-1-6.9,1.8-7.2,6.3c-0.3,4.7,1.9,8.2,6.6,7.7
		C911.9,491.9,914.4,488.9,919.4,485.5z"/>
	<path class="st19" d="M302.1,586.2c3.8,0,6.9,0,10.4,0c2.2,9.7,4.4,19.4,7,30.9c3.3-11.5,6.1-21.2,9-31c3.2,0,6.2,0,9.7,0
		c2.8,9.4,5.6,18.8,8.4,28.3c0.4,0.1,0.8,0.2,1.3,0.3c2.1-9.4,4.2-18.8,6.4-28.5c3.4,0,6.5,0,10.1,0c-3.5,15-6.9,29.5-10.4,44.2
		c-4.1,0-7.7,0-11.9,0c-2.8-9.7-5.5-19.4-8.9-31.1c-3.2,11.5-5.9,21.2-8.6,31.1c-3.4,0-6.9,0-11.7,0
		C309.4,616.2,305.8,601.4,302.1,586.2z"/>
	<path class="st19" d="M823.4,630.6c-4.7,0-8.4,0-12,0c-6.5-14.9-6.5-14.9-27.5-12.9c-1.4,4.1-2.9,8.3-4.6,12.8c-3.6,0-7.3,0-11.8,0
		c4.1-12,8.1-23.9,12.2-35.7c1.9-5.4,4.3-10.7,5.5-16.2c1.4-6.1,4.4-7.6,10.4-7.5c5.7,0.1,8,1.8,9.8,7.3
		C810.9,595.6,817.2,612.6,823.4,630.6z M803,606.7c-2.5-7.8-4.9-15.1-7.8-24.2c-3,9.2-5.4,16.5-7.9,24.2
		C792.9,606.7,797.6,606.7,803,606.7z"/>
	<path class="st19" d="M913.7,617.4c-1.6,4.5-3,8.7-4.5,13.1c-3.8,0-7.5,0-12,0c6.6-19.2,12.9-38,20-56.5c0.8-2,7.1-2.4,11-2.5
		c1.8-0.1,4.9,1.6,5.5,3.2c6.6,18.4,12.9,37,19.3,55.6c-11,1.1-11,1.1-17.1-12.9C928.8,617.4,921.6,617.4,913.7,617.4z M925.8,584.7
		c-0.5,0-1.1,0.1-1.6,0.1c-2.3,7.2-4.5,14.3-6.9,21.9c5.7,0,10.4,0,15.7,0C930.5,599.1,928.1,591.9,925.8,584.7z"/>
	<path class="st19" d="M1020.2,608.5c0,7.8,0,14.7,0,22c-4,0-7.4,0-11.6,0c0-10,0-19.9,0-29.8c0-9.7,0-19.4,0-29.4
		c8.7,0,16.7-0.4,24.6,0.1c12.4,0.9,18.7,8.1,18.1,20.1c-0.5,10.7-7.5,16.8-19.6,17C1028.3,608.6,1024.8,608.5,1020.2,608.5z
		 M1020.6,601.4c7-2.5,12.9-3.7,17.6-6.7c1.5-1,1.3-9-0.3-10c-4.9-2.8-10.9-3.6-17.3-5.4C1020.6,587.3,1020.6,592.9,1020.6,601.4z"
		/>
	<path class="st19" d="M1553.1,499.4c-4.7,13.3-14.1,18.7-27.7,16.8c-14.8-2.1-22.6-11.4-23.6-28c-1.1-16.3,6-27.9,19.1-31.7
		c13.6-3.9,25.5,0.6,31.5,12.3c-2.6,1.7-5.2,3.4-7.9,5.1c0.1-0.6,0.3-1.3,0.4-1.9c-5.4-2.1-10.8-4.3-16.2-6.3c-0.4-0.2-1,0-1.5,0.1
		c-10.3,1.1-14.9,10.4-12.9,26.1c1.3,10.2,8.8,16.6,18,14c4.7-1.4,8.5-5.7,12.7-8.7c-0.2-0.7-0.5-1.4-0.7-2.1
		C1547.1,496.3,1549.9,497.7,1553.1,499.4z"/>
	<path class="st20" d="M971.5,492.9c0,7.9,0,14.8,0,22.1c-4.1,0-7.6,0-11.6,0c0-19.3,0-38.5,0-57.9c10,0,20.2-0.9,30.1,0.3
		c8.4,1,13.3,9.6,12.7,18.7c-0.6,9.2-6.3,15.8-15.2,16.8C982.4,493.4,977.2,492.9,971.5,492.9z M971.8,483.6
		c14.9,1.1,19.3-1.1,19-9.2c-0.3-7.6-4.6-9.6-19-8.2C971.8,471.7,971.8,477.4,971.8,483.6z"/>
	<path class="st20" d="M443.1,630.6c-4.5,0-7.7,0-11.3,0c0-20.7,0-41.3,0-62.3c3.4,0,6.8,0,10.6,0c0,7.4,0,14.6,0,22
		c4.4-1.8,8.2-4.1,12.3-4.8c9.3-1.5,15.6,2.7,16.3,12c0.8,10.8,0.2,21.8,0.2,33c-3.6,0-7,0-11,0c0-9,0-17.7,0-26.4
		c0-4.5-0.5-8.7-6.3-9.2c-5.9-0.5-10.2,2.1-10.6,8C442.7,612,443.1,621.2,443.1,630.6z"/>
	<path class="st20" d="M1714.5,630c-16.8,5.1-17.7-11.3-27-17.7c0,6.2,0,12,0,18.1c-4.2,0-7.6,0-11.1,0c-0.1-1.4-0.3-2.6-0.3-3.9
		c0-19.2,0-38.4,0-58.1c3.7,0,7,0,11,0c0,11,0,22.1,0,34.2c8.9-5.7,10.6-21.1,25.6-15.9c-5,6.6-9.9,13.1-15,19.9
		C1703.1,614.3,1708.6,621.9,1714.5,630z"/>
	<path class="st19" d="M719.9,611c-9.6,0-18.8,0-28,0c-0.6,0.6-1.1,1.2-1.7,1.7c2.4,2.8,4.3,6.9,7.3,8.3c5.8,2.7,11.2,0.4,15.1-4.9
		c2.5,1.6,4.8,3,7,4.5c-4.4,10.1-15.4,13.8-27.2,9.4c-10.8-4-15.9-16.9-11.9-30.3c3.3-11.1,14.3-16.8,27-13.9
		C717.6,588.1,722.3,597.2,719.9,611z M709.5,603.4c0.4-6-2.4-9.4-8-9.5c-6.1-0.1-9.4,3.2-9.9,9.5
		C697.7,603.4,703.5,603.4,709.5,603.4z"/>
	<path class="st19" d="M1634.8,495.8c-5,0-9.8,0-14.5,0c-4.7,0-9.3,0-14,0c-0.5,0.6-0.9,1.2-1.4,1.8c2.3,2.8,4.2,6.8,7.2,8.1
		c5.6,2.4,11.4,1.3,15.1-4.8c2.7,1.7,5,3,7.3,4.4c-3.9,9.8-14.4,13.7-26.3,9.9c-11.1-3.5-16.6-16.1-12.9-29.8
		c3.1-11.8,14-17.8,27-14.9C1632.3,472.8,1637.1,481.8,1634.8,495.8z M1624.4,488.1c-0.1-6.7-3.1-9.5-8.8-9.3
		c-5.8,0.2-8.7,3.4-9.1,9.3C1612.6,488.1,1618.2,488.1,1624.4,488.1z"/>
	<path class="st19" d="M1175.7,495.7c-9.5,0-18.7,0-30.5,0c3.1,4.3,4.5,8.3,7.3,9.7c5.9,3,11.6,1.3,15.9-4.4c2.5,1.6,4.8,2.9,7,4.3
		c-2,13.1-27.1,15.1-35.4,3.6c-6.4-8.9-6.7-18.7-1.9-28.3c4.5-9,12.7-11.2,22.1-10.4C1172.3,471.3,1178.2,480.5,1175.7,495.7z
		 M1147.2,487.8c6.4,0,12.2,0,18.1,0c0-5.5-2.1-8.6-7.3-9C1151.9,478.4,1148.3,481.3,1147.2,487.8z"/>
	<path class="st19" d="M1057,495.6c2.8,12.7,11.2,14.5,22,5.6c2.2,1.4,4.4,2.9,6.6,4.4c-3.1,11.4-19.3,12.8-28.2,8.9
		c-10.4-4.5-15.2-18.1-10.8-30.9c3.7-10.8,15.8-16.3,27.7-12.7c9.6,2.9,14,12.2,11.2,24.8C1076.3,495.6,1066.9,495.6,1057,495.6z
		 M1075.4,488.2c0-6-2.3-9.1-7.8-9.3c-6.2-0.2-9.5,3-10.3,9.3C1063.3,488.2,1069,488.2,1075.4,488.2z"/>
	<path class="st19" d="M393.8,501.2c2.2,1.5,4.4,3,6.5,4.4c-2.6,10.2-17.3,13.1-27.7,9.1c-10.6-4.1-15.6-17.5-11.4-30.6
		c3.4-10.6,14.4-16.2,26.7-13.5c10,2.2,14.6,10.7,12.8,25c-9.5,0-19.1,0-28.7,0c-0.5,0.7-1,1.3-1.4,2c2.6,2.9,4.8,7.7,7.8,8.2
		c4.7,0.8,9.9-1.2,14.9-2.1C393.4,502.8,393.6,502,393.8,501.2z M390.3,488.1c-0.2-5.3-2.1-8.9-7.7-9.2c-6.2-0.3-9.8,2.6-10.5,9.2
		C378.1,488.1,384,488.1,390.3,488.1z"/>
	<path class="st20" d="M1224.4,610.9c-9.3,0-18.6,0-28,0c-0.5,0.7-1,1.3-1.5,2c2.5,2.9,4.5,6.9,7.6,8.3c5.4,2.3,10.8,0.9,14.5-5.1
		c2.6,1.7,5.1,3.2,7.6,4.8c-5.3,10.2-16.7,13.7-28.3,8.9c-10.3-4.3-15.1-17.4-11.1-30.1c3.5-11.2,14.4-16.7,27.1-13.7
		C1222.3,588.2,1226.5,596.7,1224.4,610.9z M1214.2,603.4c0.2-6.5-3-9.8-9-9.5c-5.5,0.3-9.2,3.2-8.6,9.5
		C1202.7,603.4,1208.4,603.4,1214.2,603.4z"/>
	<path class="st20" d="M1758.5,611.2c-9.5,0-18.7,0-27.9,0c-0.5,0.6-1,1.2-1.5,1.8c2.6,2.8,4.8,7.6,7.7,8c4.7,0.7,9.9-1.4,14.9-2.3
		c0-0.8,0-1.6,0-2.5c2.5,1.5,4.9,3.1,7.3,4.6c-6,10.4-18.1,13.8-29.3,8.5c-9.9-4.7-14.2-18.2-9.9-30.6c3.9-10.9,15.4-16.2,27.6-12.7
		C1757,588.7,1761.1,597.6,1758.5,611.2z M1748.3,603.5c0.8-6.3-2.2-9.5-7.8-9.6c-6-0.2-9.7,3-9.7,9.6
		C1736.5,603.5,1742,603.5,1748.3,603.5z"/>
	<path class="st20" d="M1134.5,611.1c-9.5,0-18.7,0-30.8,0c3.5,4.4,5.2,8.3,8.1,9.7c5.9,2.9,11.6,1.2,15.4-4.8
		c2.8,1.8,5.1,3.3,7.3,4.8c-5.1,10.2-16.6,13.7-28.1,8.9c-10.3-4.3-15.1-17.4-11.1-30c3.6-11.3,14.2-16.7,27-13.8
		C1132.3,588.1,1136.5,596.4,1134.5,611.1z M1124.2,603.5c0.5-6.5-2.7-9.8-8.7-9.6c-5.6,0.2-9.1,3.3-8.9,9.6
		C1112.7,603.5,1118.4,603.5,1124.2,603.5z"/>
	<path class="st19" d="M1630.9,599.2c-1.1-1.6-2.5-3.8-4.1-6.1c7.6-7.9,16.7-9.3,26.4-7c6.5,1.5,9.1,6.6,9.4,12.8
		c0.3,5-0.1,10,0.2,15c0.2,3.2-1.9,7.8,4.2,8.6c0.7,0.1,1.5,4,1.2,6c-0.1,1-2.8,2.5-4,2.3c-4.3-0.8-8.4-2.3-13.2-3.8
		c-6,8.5-22,4.8-24.4-3.3c-2.3-7.6-0.2-14.3,7.2-17.1c3.9-1.5,8.3-1.7,12.2-3.3c2.1-0.9,3.6-3.3,5.4-5.1c-2.3-1.3-4.8-3.9-6.9-3.6
		C1640.2,595.2,1636.2,597.3,1630.9,599.2z M1653.4,610.9c-0.8-0.5-1.7-1.1-2.5-1.6c-2.9,0.7-5.7,1.4-8.6,2.1
		c-4.6,1.1-6.7,4.5-4.4,8.2c1.2,2,7.2,3.7,8.4,2.6C1649.4,619.2,1651.1,614.8,1653.4,610.9z"/>
	<path class="st20" d="M1421.1,493c0.1,14.2-8.8,23.6-22.4,23.5c-13.3-0.1-21.8-9.1-21.9-23.2c-0.1-14.2,8.2-23.1,21.6-23.3
		C1412.4,469.8,1421,478.6,1421.1,493z M1409.4,492.8c-0.1-8.7-3.8-13.4-10.5-13.3c-6.9,0.1-10.5,5.1-10.3,14.3
		c0.2,8.8,3.8,13.1,10.9,12.8C1406.2,506.4,1409.5,501.8,1409.4,492.8z"/>
	<path class="st20" d="M1771.2,470c13.5,0.1,21.8,8.9,21.9,23c0.1,14.2-8.9,23.6-22.4,23.4c-13.3-0.2-21.8-9.2-21.9-23.2
		C1748.8,478.8,1757.3,469.9,1771.2,470z M1760.6,493.1c0,9,3.3,13.4,10.2,13.6c7,0.1,10.5-4.2,10.7-13.1
		c0.1-9.2-3.6-14.1-10.6-14.1C1764.2,479.5,1760.6,484.3,1760.6,493.1z"/>
	<path class="st20" d="M667,470c13.8,0,22.4,9,22.2,23.4c-0.2,14-8.8,22.9-22.1,23c-13.6,0-22.4-9.3-22.1-23.6
		C645.2,478.6,653.5,470,667,470z M677.5,493.2c0-8.8-3.5-13.6-10.1-13.7c-7-0.2-10.8,4.8-10.7,14c0.1,8.9,3.6,13.3,10.6,13.2
		C674.1,506.6,677.4,502.2,677.5,493.2z"/>
	<path class="st19" d="M1275.8,484.3c-1.3-1.9-2.7-3.9-4-5.9c6.8-7.8,18-10.8,27.2-7.3c5.6,2.1,8,6.5,8.3,12.2
		c0.3,4.5-0.2,9,0.2,13.5c0.3,3.8-2.6,9.2,4.4,10.7c1,0.2,1,4.4,2.1,9.3c-6.9-1.7-12.1-3-16.8-4.2c-5.3,1.1-11,3.2-16.6,3.1
		c-6.4-0.1-9.4-5.2-10.1-11.2c-0.7-6.1,1.9-10.8,7.7-13c3.7-1.4,7.9-1.6,11.5-3.2c2.5-1.1,4.3-3.7,6.4-5.6c-2.7-1.1-5.6-3.4-8.1-3.1
		C1284.1,480.1,1280.3,482.4,1275.8,484.3z M1296.5,494c-4.1,0.9-7.7,0.9-10.2,2.6c-2.1,1.4-2.9,4.8-4.3,7.4
		c2.4,1.3,4.9,3.9,7.1,3.6C1296.7,506.6,1296.7,500.6,1296.5,494z"/>
	<path class="st19" d="M1647.7,484.3c-1.3-1.9-2.6-3.9-4-5.8c6.7-7.8,18-10.8,27.2-7.3c5.7,2.1,8,6.6,8.4,12.2
		c0.3,4.5-0.2,9,0.2,13.5c0.4,3.8-2.7,9.2,4.4,10.6c0.9,0.2,1.1,4.4,2.1,9.3c-7-1.7-12.2-3-16.8-4.2c-5.4,1.1-11,3.2-16.7,3.1
		c-6.3-0.1-9.4-5.1-10.1-11.2c-0.7-6.2,1.9-10.8,7.7-13c3.7-1.4,7.9-1.6,11.5-3.2c2.5-1.1,4.3-3.7,6.4-5.6c-2.7-1.1-5.5-3.4-8-3.1
		C1656,480.1,1652.2,482.4,1647.7,484.3z M1668,494c-3.8,0.9-7.6,1.1-10.4,2.8c-2,1.2-3.7,4.6-3.5,6.9c0.1,1.5,3.7,3.8,5.8,4
		C1666,508.2,1668.5,503.9,1668,494z"/>
	<path class="st19" d="M500.6,493.5c-0.1,14.1-8.6,22.9-22,22.9c-13.6,0-22-9.1-21.9-23.7c0.1-14.3,8.2-22.7,21.9-22.7
		C492.6,470,500.7,478.7,500.6,493.5z M488.9,493.1c0-9.1-3.3-13.5-10-13.7c-7-0.1-10.6,4.7-10.5,14c0.1,9,3.5,13.2,10.5,13.2
		C485.7,506.5,488.9,502.3,488.9,493.1z"/>
	<path class="st20" d="M1362.8,632.3c-7.2-2.1-12.3-3.6-18.4-5.3c-2.6,3.9-8.3,5.3-14.9,4.1c-5.5-1-8.9-4.4-9.9-9.8
		c-1-5.8,0-11.3,6-13.9c4.5-1.9,9.7-2.3,14.3-4.2c2.1-0.8,3.4-3.4,5.1-5.2c-2.1-1.2-4.5-3.7-6.4-3.4c-4.5,0.7-8.8,2.7-14.1,4.5
		c-0.9-1.2-2.4-3.3-3.9-5.3c6.7-8,19.5-11.5,27.8-6.8c3.3,1.9,6.2,6.4,7.1,10.3c1.2,5.5,0.3,11.4,0.6,17.1c0.1,3.1-1.5,7.2,4.2,7.9
		C1361.2,622.4,1361.5,627,1362.8,632.3z M1346.8,610.9c-0.8-0.5-1.6-1.1-2.4-1.6c-2.9,0.7-6.3,0.6-8.6,2.2
		c-2.3,1.7-3.5,4.9-5.1,7.5c3.1,1.1,7.8,4.1,9,3.1C1342.8,619.3,1344.5,614.8,1346.8,610.9z"/>
	<path class="st20" d="M1425.9,607.9c0.1-14.2,8.4-22.8,22-22.8c13.8,0,22,8.9,21.9,23.7c-0.1,14.2-8.3,22.7-22,22.7
		C1433.9,631.4,1425.8,622.7,1425.9,607.9z M1437.5,608c-0.1,9.4,3.3,14,10.5,13.9c6.8-0.1,10.1-4.6,10.1-13.6
		c0-9-3.3-13.5-10.1-13.5C1441,594.7,1437.6,599,1437.5,608z"/>
	<path class="st20" d="M593.8,608.3c0,14.4-8,23-21.5,23.1c-14,0.2-22.4-8.5-22.3-23.1c0-14.6,8.5-23.4,22.3-23.2
		C585.8,585.3,593.8,594,593.8,608.3z M561.7,608.4c0,9.1,3.3,13.4,10.1,13.5c6.8,0.1,10.4-4.5,10.5-13.3c0.1-9.2-3.6-14-10.7-13.8
		C564.8,594.9,561.6,599.3,561.7,608.4z"/>
	<path class="st19" d="M870.9,630.6c-4.1,0-7.3,0-11.3,0c0-8.9,0.1-17.6,0-26.2c0-4.6-0.2-9.3-6.7-9.6c-6.4-0.2-10.2,2.9-10.4,9.2
		c-0.4,8.7-0.1,17.4-0.1,26.5c-4.2,0-7.6,0-11.3,0c0-14.7,0-29.3,0-45.7c4.6,1.5,8.5,2.8,12.3,4.1c-0.3,0.4-0.6,0.9-0.9,1.3
		c3.8-1.6,7.5-4,11.4-4.7c10.2-1.7,16.6,3.5,17,13.8C871.3,609.5,870.9,619.7,870.9,630.6z"/>
	<path class="st19" d="M1491.9,630.5c-4.6,0-7.8,0-11.4,0c0-14.9,0-29.5,0-45.9c4.7,1.6,8.5,2.9,12.3,4.2c-0.3,0.4-0.6,0.9-0.9,1.3
		c3.8-1.6,7.5-4,11.4-4.7c10.2-1.7,16.6,3.5,17,13.9c0.4,10.2,0.1,20.4,0.1,31c-3.8,0-7.1,0-11.4,0c0-8.7,0-17.3,0-26
		c0-4.7-0.2-9.3-6.7-9.6c-6.4-0.2-10.1,3-10.4,9.2C1491.6,612.6,1491.9,621.3,1491.9,630.5z"/>
	<path class="st19" d="M880.1,515.3c-3.9,0-7.1,0-11.1,0c0-8.6,0-17,0-25.4c0-5.2-0.3-10.5-7.5-10.4c-6.8,0.1-9.8,4.2-10,10.5
		c-0.2,8.2-0.1,16.4-0.1,25c-3.9,0-7.2,0-11.1,0c0-14.4,0-29,0-44.1c4.4,0.5,10.2-3.5,11.2,5.2c2.5-1.7,4.6-3.7,7.1-4.9
		c10.9-4.9,21.1,1.4,21.5,13.5C880.4,494.6,880.1,504.6,880.1,515.3z"/>
	<path class="st20" d="M1198,515.1c-4.4,0-7.7,0-11.5,0c0-14.7,0-29.1,0-44c3.1,0,6.2,0,9.8,0c0.4,1.3,0.9,3.1,1.4,4.8
		c3.1-1.9,5.8-4.4,9-5.3c11.2-3.4,19.4,2.7,19.8,14.5c0.3,9.2,0.1,18.5,0.1,27.7c0,0.7-0.2,1.4-0.4,2.4c-3.5,0-6.8,0-10.8,0
		c0-9,0.1-17.6,0-26.3c0-4.8-0.8-9.2-7-9.4c-5.9-0.1-9.8,2.9-10.1,8.7C1197.6,497.1,1198,506,1198,515.1z"/>
	<path class="st15" d="M1814.6,476.1c3.1-1.9,5.8-4.4,8.9-5.4c10.8-3.4,19.3,2.3,19.7,13.4c0.4,10.2,0.1,20.4,0.1,30.9
		c-3.7,0-7,0-10.9,0c0-8.6,0-17,0-25.5c0-5-0.4-9.7-7-10.2c-5.9-0.4-10.2,3.3-10.6,10c-0.5,8.4-0.1,16.8-0.1,25.6c-4,0-7.3,0-10.9,0
		c0-14.8,0-29.4,0-44.4C1808.3,471.5,1814.8,467.1,1814.6,476.1z"/>
	<path class="st15" d="M1245.9,630.4c-3.8,0-6.9,0-10.4,0c0-14.7,0-29.1,0-44c3,0,6.1,0,9.8,0c0.3,1.4,0.6,3.1,1,5.2
		c0.7-0.5,1.4-0.7,1.8-1.2c5.5-6.1,12.3-6.4,19.2-3.9c6.3,2.3,7.6,8.2,7.7,14.2c0.1,9.7,0,19.4,0,29.6c-3.7,0-7,0-11.2,0
		c0-8.7,0-17.3,0-26c0-4.8-0.5-9.2-6.7-9.6c-6-0.4-9.9,2.6-10.5,8.3c-0.8,7.9-0.5,15.9-0.6,23.9
		C1246.2,627.9,1246,628.9,1245.9,630.4z"/>
	<path class="st20" d="M536.4,470.8c3.9,0,6.9,0,10.9,0c0,8.5-0.1,16.9,0,25.3c0,4.7-0.5,10,6.4,10.6c6.1,0.5,10-2.6,10.4-9.9
		c0.5-8.4,0.1-16.9,0.1-25.7c3.9,0,7.1,0,10.8,0c0,14.4,0,29,0,44.1c-2.9,0-6.1,0-9.9,0c-0.2-1.5-0.4-3.3-0.5-4.5
		c-4,2-7.7,4.7-11.7,5.5c-9.1,1.9-16.2-3.5-16.5-12.6C536.1,492.8,536.4,482.1,536.4,470.8z"/>
	<path class="st15" d="M739.3,515.2c-3.5,0-6.7,0-10.9,0c0-8.3,0-16.7,0-25.1c0-5.2,0-10.5-7.2-10.7c-6.9-0.2-10.1,4.1-10.4,10.2
		c-0.4,8.4-0.1,16.8-0.1,25.5c-3.9,0-7.1,0-10.7,0c0-14.6,0-29.1,0-44.1c3.2,0,6.3,0,9.9,0c0.3,1.7,0.5,3.4,0.6,3.9
		c5.1-1.7,9.7-4.3,14.5-4.6c8.7-0.7,13.7,3.8,14.2,12.6C739.7,493.6,739.3,504.3,739.3,515.2z"/>
	<path class="st15" d="M1442.8,515.1c-4.3,0-7.4,0-10.8,0c0-14.8,0-29.4,0-44.2c3.3,0,6.2,0,9.7,0c0.4,1.7,0.8,3.4,1.2,5.4
		c0.7-0.5,1.4-0.8,1.8-1.3c5.2-5.8,11.9-6.2,18.5-4c6.7,2.2,8.2,8.2,8.3,14.5c0.1,9.7,0,19.4,0,29.5c-3.7,0-7.1,0-11.1,0
		c0-8.5,0-16.9,0-25.3c0-5-0.2-9.8-6.8-10.3c-5.8-0.5-10.3,3.2-10.7,9.9C1442.4,497.7,1442.8,506.2,1442.8,515.1z"/>
	<path class="st19" d="M544,571.6c0,3.2,0,6.1,0,9.5c-5.2,0-10.4,0-16.2,0c0,16.5,0,32.6,0,49.2c-4.2,0-7.8,0-12,0
		c0-16,0-32.1,0-48.7c-5.7,0-10.9,0-16.6,0c0-3.5,0-6.6,0-10C514,571.6,528.8,571.6,544,571.6z"/>
	<path class="st19" d="M1092,508.1c2.2-2.4,4.2-4.5,5.3-5.7c5.5,1.8,10,3.7,14.7,4.5c1.5,0.3,3.5-2.5,5.3-3.8
		c-1.3-1.5-2.4-3.8-4-4.5c-3.4-1.5-7.2-1.9-10.7-3.2c-5.4-2-8.7-5.7-8.6-11.8c0-6.3,3.1-10.6,9-12.3c8.4-2.4,16.7-2.4,24.2,4.7
		c-1.8,2.2-3.5,4.2-5,6.1c-4-1.1-7.7-2.6-11.4-2.9c-1.9-0.1-3.9,2-5.9,3.1c1.7,1.7,3.2,4,5.2,5c3.1,1.4,6.7,1.7,10,2.8
		c5.5,1.9,8.6,5.9,8.7,11.8c0,5.7-2.6,10-7.9,12.5C1111.9,518.6,1099.9,516.3,1092,508.1z"/>
	<path class="st20" d="M1140.7,623.3c2.1-2.3,4-4.3,5.2-5.7c5.4,1.6,10.1,3.5,14.9,4.3c1.6,0.3,3.6-2.4,5.4-3.7
		c-1.4-1.6-2.4-3.8-4.2-4.6c-3.4-1.5-7.2-1.9-10.7-3.1c-5.7-2.1-9.1-6.1-8.8-12.4c0.3-6.6,4.3-10.4,10.3-12.2
		c7.8-2.3,15.9-0.4,23,5.4c-1.9,2.1-3.7,4.2-5.1,5.7c-4.6-1.1-8.6-2.5-12.6-2.8c-1.6-0.1-3.4,2.2-5,3.4c1.3,1.5,2.4,3.8,4.1,4.5
		c3.4,1.4,7.2,1.8,10.8,3c5.8,1.8,9.1,5.6,9.1,12.1c0,6.2-3,10.3-8.6,12.7C1159.8,633.7,1148,631,1140.7,623.3z"/>
	<path class="st19" d="M440.5,470.8c3.7,0,6.9,0,11.3,0c-5.5,15.1-10.9,29.7-16.3,44.4c-4.4,0-8.6,0-13.7,0
		c-5.3-14.3-10.7-28.9-16.2-43.6c11-2.2,11-2.2,14.5,7.8c2.6,7.4,5.3,14.9,8.5,24.1C433.1,491.4,436.8,481,440.5,470.8z"/>
	<path class="st20" d="M773.1,480c0-3.7,0-6.1,0-9c11.1,0,21.9,0,32.8,0c3.4,8.2-2.4,12.9-6.8,18.1c-4.5,5.3-9,10.7-14.2,16.9
		c7.7,0,14.4,0,21.6,0c0,3.4,0,6,0,9c-11.3,0-22.7,0-34.8,0c-0.5-16.2,15.2-22.3,21-35C786.5,480,780.2,480,773.1,480z"/>
	<path class="st19" d="M1263.3,505.2c0.9,2.9,1.7,5.2,2.6,7.8c-5.9,4.4-12.2,4.5-18.3,1.8c-6-2.7-7.2-8.5-7.3-14.5
		c-0.1-6.5,0-12.9,0-19.9c-2.1-0.4-4.1-0.9-6.3-1.3c0-2.5,0-5,0-7.9c1.9-0.3,3.8-0.6,6-0.9c0.2-2.6,0.4-5.2,0.6-8.1
		c3.7-0.6,7-1.1,10.9-1.7c0.2,3.3,0.3,6.2,0.5,10c3.7,0,7.6,0,11.9,0c0.1,3.4,0.3,5.9,0.4,9.1c-4.1,0-7.7,0-12.3,0
		c0,7.8-0.4,15.2,0.1,22.5C1252.4,506.5,1254.8,507.1,1263.3,505.2z"/>
	<path class="st20" d="M1718.4,479.6c-4.8,0-8.7,0-13.1,0c0,6.1,0,11.5,0,17c0.1,9.6,1.9,11,11.5,8.6c0.9,2.4,1.9,4.9,2.9,7.7
		c-5.9,4.5-12.1,4.6-18.3,1.9c-6.1-2.7-7.2-8.4-7.1-14.5c0.1-6.5,0-12.9,0-19.9c-2.2-0.5-4.3-0.9-6.8-1.4c-0.1-2.3-0.2-4.7-0.4-7.5
		c2.3-0.5,4.4-0.9,6.8-1.4c0.2-2.5,0.4-5.2,0.6-8.1c3.5-0.5,6.6-1,10.2-1.5c0.3,3.4,0.6,6.5,0.8,9.9c4.1,0.2,8,0.4,12.2,0.6
		C1718.1,473.7,1718.2,476.1,1718.4,479.6z"/>
	<path class="st20" d="M616,513c-15.4,7.9-25.5,1.9-25.6-14.3c0-6,0-11.9,0-18.4c-2.2-0.4-4.2-0.9-6.7-1.4c-0.1-2.3-0.2-4.8-0.3-7.6
		c2.3-0.5,4.4-0.9,6.9-1.4c0.1-2.4,0.3-4.8,0.4-7.9c3.3-0.6,6.5-1.2,10.4-1.8c0.3,3.5,0.6,6.6,0.9,10c4,0.2,7.9,0.4,12.2,0.6
		c0.1,2.8,0.2,5.2,0.4,8.4c-4.1,0-8,0-12.8,0c0,7.8-0.4,14.9,0.1,21.9c0.4,5.2,2.9,5.9,10.9,3.7C613.8,507.4,614.8,510.1,616,513z"
		/>
	<path class="st20" d="M1346.1,471c0,3,0,5.4,0,8.3c-4.2,0.2-8,0.4-12.5,0.6c0,7-0.3,13.7,0.1,20.4c0.5,7.7,5.7,6.6,11.2,4.7
		c1,2.6,2,5.1,3.1,7.8c-5.8,4.5-12.1,4.7-18.3,2c-6.1-2.6-7.4-8.3-7.3-14.4c0.1-6.5,0-13,0-20.1c-2.1-0.4-4.1-0.8-6.6-1.3
		c0-2.5,0-5,0-7.9c2.1-0.3,4-0.6,6.2-0.9c0.2-2.6,0.4-5.2,0.7-8.2c3.3-0.5,6.4-1,10.2-1.6c0.3,3.3,0.6,6.4,0.9,9.8
		C1338,470.4,1342.1,470.7,1346.1,471z"/>
	<path class="st19" d="M1382.5,594.6c0,6.4,0,11.9,0,17.3c0,9.7,1.4,10.8,11.5,8.5c0.9,2.5,1.8,5,2.8,7.9c-6.2,4-12.5,4.2-18.7,1.5
		c-5.8-2.6-6.8-8.3-7-13.9c-0.2-6.7,0-13.4,0-20.5c-2.3-0.3-4.2-0.6-6.3-0.9c0-2.6,0-5,0-7.9c1.8-0.4,3.8-0.8,6.1-1.3
		c0.2-2.5,0.3-4.9,0.5-7.8c3.4-0.7,6.8-1.4,10.8-2.2c0.2,3.5,0.4,6.6,0.6,10.4c3.8,0,7.7,0,11.9,0c0,3.3,0,5.9,0,9
		C1390.8,594.6,1387.2,594.6,1382.5,594.6z"/>
	<path class="st1" d="M195,650.7c-0.6,5.8,0,12.3-8,13.8c-1.6,0.3-3.6,0.8-4.9,0.2c-8.1-3.9-14.3-0.6-20.4,4.5
		c-2.7,2.2-6.1,3.5-9.2,5.2l0,0c-1-2-2-4-3-6.1c-0.1-1.1-0.1-2.3-0.2-3.4c1.7-1.9,3.3-3.7,5-5.6c0.9-1.1,1.7-2.2,2.6-3.3
		c1.1-1.4,2.3-2.8,3.4-4.1c0.9-1.1,1.8-2.1,2.7-3.2c1.6-1.9,3.2-3.9,4.8-5.8c3.9-2.4,7.8-4.9,11.7-7.3c1,0.4,2.1,0.8,3.1,1.2
		c1,1,2,2,3.1,3c0,0,0.7,0,0.7,0l0.7,0.1c0,0-0.1-0.1-0.1-0.1C189.7,643.5,192.4,647.1,195,650.7z"/>
	<path class="st20" d="M398.1,577.3c3.8-0.7,6.7-1.2,9.6-1.7c0.2,0,0.5,0.1,1.2,0.2c0.2,3,0.5,6.1,0.8,9.7c4,0.2,7.9,0.4,12.2,0.6
		c0,2.9,0,5.5,0,8.7c-4.1,0-8,0-12.5,0c0,7.3-0.4,14,0.1,20.7c0.5,7.6,5.7,6.6,11.2,4.6c1.1,2.7,2,5.2,3.1,8
		c-6,4.3-12.3,4.4-18.5,1.7c-5.8-2.5-7-7.9-7-13.8c0-6.7,0-13.4,0-20.7c-2.3-0.3-4.4-0.6-6.7-0.9c0-2.7,0-5.1,0-8
		c2-0.3,4.1-0.7,6.6-1.1C398.1,582.8,398.1,580.4,398.1,577.3z"/>
	<path class="st20" d="M1312,620.3c1,3,1.8,5.5,2.6,7.9c-14.1,7.9-25.1,1.9-25.3-13.4c-0.1-6.2,0-12.5,0-19.2
		c-2.2-0.4-4.2-0.8-6.7-1.3c-0.1-2.3-0.3-4.7-0.4-7.6c2.2-0.5,4.3-0.9,6.8-1.4c0.2-2.3,0.3-4.7,0.6-7.8c3.1-0.7,6.4-1.4,10.3-2.3
		c0.3,3.4,0.5,6.5,0.8,10.3c3.9,0,7.7,0,12.1,0c0,3.3,0,5.8,0,9c-3.8,0.2-7.7,0.4-12.4,0.6c0,5.8-0.1,11.5,0,17.1
		C1300.4,621.4,1302.3,622.7,1312,620.3z"/>
	<path class="st19" d="M973,630.5c-3.8,0-7.2,0-10.9,0c0-19.7,0-39.1,0-58.9c3.7,0,7.1,0,10.9,0C973,591,973,610.4,973,630.5z"/>
	<path class="st20" d="M529.5,515.1c-12.9,3-18.5-1.2-18.6-12.9c-0.1-15.4,0-30.9,0-46.3c0-0.7,0.2-1.4,0.4-2.7c3.3,0,6.7,0,10.8,0
		c0,14.4-0.1,28.8,0.1,43.2c0.1,4.2-2.2,9.8,5.3,11C528.5,507.5,528.8,512.1,529.5,515.1z"/>
	<path class="st19" d="M1040.8,472.5c-0.5,2.6-1.1,5.3-1.6,7.9c-13.9,1.3-15.1,2.7-15.1,17.1c0,5.7,0,11.4,0,17.6c-3.7,0-7,0-10.9,0
		c0-14.4,0-28.9,0-44.1c4.3,0.8,10.7-4.4,11,3.5c5.1-1.6,10.2-3.2,15.4-4.9C1039.9,470.5,1040.4,471.5,1040.8,472.5z"/>
	<path class="st19" d="M1572.9,515.3c-4.1,0-7.4,0-11,0c0-14.7,0-29.3,0-44.4c4.7,0.3,10.5-3.5,11.2,3.4c5-1.6,10-3.2,17-5.5
		c-1,5.7-1.5,8.7-2,11.7c-13.3,0.8-15.1,2.6-15.1,15.6C1572.9,502.3,1572.9,508.5,1572.9,515.3z"/>
	<path class="st19" d="M1770,584.8c4.5,1.3,8.2,2.4,13.3,3.9c2.9-0.8,8.2-2.3,14.7-4.2c-0.9,5.4-1.4,8.2-1.8,11.1
		c-13.9,1.5-15.2,2.9-15.3,17c0,5.9,0,11.9,0,18c-4,0-7.2,0-10.9,0C1770,615.9,1770,601.4,1770,584.8z"/>
	<path class="st19" d="M1061.5,584.6c5,1.5,8.7,2.6,13.7,4.1c3-0.9,8.3-2.3,14.8-4.2c-0.9,5.4-1.4,8.2-1.8,11.1
		c-13.9,1.4-15.2,2.9-15.3,17c0,5.9,0,11.8,0,18c-4,0-7.2,0-11.3,0c0-7.5,0-14.9,0-22.2C1061.5,601.2,1061.5,594,1061.5,584.6z"/>
	<path class="st19" d="M1415,630.6c-3.6,0-6.8,0-10.5,0c0-14.7,0-29.2,0-44.3c3.4,0,6.7,0,10.5,0C1415,600.8,1415,615.3,1415,630.6z
		"/>
	<path class="st19" d="M816,515c0-14.6,0-29,0-43.9c3.5,0,6.8,0,10.7,0c0,14.3,0,28.8,0,43.9C823.5,515,820.2,515,816,515z"/>
	<path class="st15" d="M634.3,515.2c-3.6,0-6.8,0-10.4,0c0-14.7,0-29.2,0-44.2c3.5,0,6.8,0,10.4,0
		C634.3,485.7,634.3,500.1,634.3,515.2z"/>
	<path class="st15" d="M1366.2,515.2c-3.4,0-6.6,0-10.3,0c0-14.4,0-29,0-44.1c3.2,0,6.5,0,10.3,0
		C1366.2,485.7,1366.2,500.3,1366.2,515.2z"/>
	<path class="st15" d="M373,586.2c3.6,0,6.8,0,10.2,0c0,14.8,0,29.4,0,44.3c-3.4,0-6.6,0-10.2,0C373,615.9,373,601.3,373,586.2z"/>
	<path class="st15" d="M752.6,470.9c3.6,0,6.7,0,10.2,0c0,14.8,0,29.4,0,44.2c-3.4,0-6.5,0-10.2,0
		C752.6,500.6,752.6,486.1,752.6,470.9z"/>
	<path class="st15" d="M1727.6,514.9c0-14.6,0-28.9,0-43.8c3.4,0,6.7,0,10.4,0c0,14.5,0,28.9,0,43.8
		C1735,514.9,1731.7,514.9,1727.6,514.9z"/>
	<path class="st18" d="M733.3,845.2c-1.1,0-2.1,0-3.2,0c-6.1-5.4-11.4-12.7-18.5-15.9c-16.3-7.2-33.5-12.3-50.3-18.5
		c-8.3-3.1-16.3-6.8-24.4-10.2l0.2-0.3c12.5,3.9,25.1,7.7,37.5,11.9c11.3,3.8,22.4,8.1,33.5,12.3
		C718.8,828.4,726.9,835.8,733.3,845.2z"/>
	<path class="st21" d="M942.9,1040.4c-3.5-2-6.9-4-10.4-6c-15.7-14.9-31.4-29.7-47.1-44.6c-1.5-1.4-2.6-3.3-3.9-5c1,0,2,0.1,3,0.1
		c12.2,11,24.4,21.9,36.5,33c7.5,6.9,14.9,14,22.4,20.9C943.2,1039.4,943,1039.9,942.9,1040.4z"/>
	<path class="st19" d="M743.5,594.2c-2.8,1.6-6,4.9-8.4,4.5c-2.6-0.5-4.5-4.5-6.7-7c2.4-2,4.7-5.6,7.1-5.7c2.7-0.1,5.4,3,8.2,4.7
		C743.6,591.9,743.6,593.1,743.5,594.2z"/>
	<path class="st19" d="M743.7,625.8c-2.8,1.7-5.6,4.8-8.2,4.7c-2.4-0.1-4.7-3.7-7-5.8c2.2-2.4,4.2-6.4,6.8-6.9
		c2.5-0.4,5.6,2.8,8.4,4.5C743.6,623.5,743.6,624.7,743.7,625.8z"/>
	<path class="st19" d="M821,449.5c3.4,4.1,7.3,6.8,6.9,8.7c-0.6,2.7-3.9,6.2-6.6,6.8c-1.7,0.4-5.9-3.7-6.3-6.1
		C814.7,456.7,818.1,453.9,821,449.5z"/>
	<path class="st19" d="M1370.8,459.2c-4.7,3-7.5,6.2-9.9,5.9c-2.5-0.4-4.6-4-6.9-6.2c2.5-2.2,4.7-5.7,7.5-6.2
		C1363.7,452.4,1366.4,455.9,1370.8,459.2z"/>
	<path class="st19" d="M638.8,458.6c-4.5,3.3-7.4,6.8-9.4,6.4c-2.8-0.6-4.9-4.2-7.3-6.5c2.3-2.1,4.5-5.6,7-5.9
		C631.5,452.4,634.2,455.6,638.8,458.6z"/>
	<path class="st19" d="M757.3,449.4c3.4,4.2,7.2,7,6.7,8.9c-0.6,2.7-4.3,4.8-6.6,7.1c-2.2-2.2-5.8-4.3-6.1-6.7
		C751,456.5,754.3,453.8,757.3,449.4z"/>
	<path class="st19" d="M1732.5,468.3c-3-4.5-6.5-7.5-6-9.5c0.7-2.6,4.4-5.6,7.2-6c1.7-0.2,5.5,4.2,5.6,6.6
		C1739.3,461.7,1735.8,464.1,1732.5,468.3z"/>
	<path class="st19" d="M1410,564.7c3.2,4.4,6.9,7.4,6.3,9.2c-0.8,2.7-4.4,5.7-7.2,6.2c-1.6,0.3-5.5-4-5.7-6.4
		C1403.3,571.4,1406.7,568.9,1410,564.7z"/>
	<path class="st20" d="M388,574.2c-4.8,3-7.2,5.6-10,6c-4.3,0.6-7.6-2.4-6.4-6.7c0.7-2.4,4.4-5.4,6.8-5.5
		C380.8,567.9,383.4,571.1,388,574.2z"/>
	<path class="st18" d="M753.9,863.5c-5.4-4.6-10.8-9.3-16.2-13.9C743.1,854.2,748.5,858.8,753.9,863.5z"/>
	<path class="st17" d="M837.8,941.5c4.1,3.9,8.2,7.8,12.3,11.7c0,0-0.2,0.2-0.2,0.2C845.9,949.5,841.9,945.5,837.8,941.5
		L837.8,941.5z"/>
	<path class="st7" d="M179.4,635.6c-3.9,2.4-7.8,4.9-11.7,7.3C170,637.9,173.1,634.2,179.4,635.6z"/>
	<path class="st18" d="M625.1,795.8c4,1.5,8,3,12,4.5c0,0-0.2,0.3-0.2,0.3c-4-1.5-8.1-3-12.1-4.5L625.1,795.8z"/>
	<path class="st7" d="M67.1,764.6c-2.4,2.9-4.9,5.8-7.3,8.8C62.2,770.4,64.7,767.5,67.1,764.6z"/>
	<path class="st7" d="M80.1,748.7c-2.3,2.7-4.5,5.5-6.8,8.2C75.6,754.2,77.9,751.5,80.1,748.7z"/>
	<path class="st7" d="M108.6,714.2c-2.3,2.7-4.7,5.4-7,8.2C104,719.7,106.3,717,108.6,714.2z"/>
	<path class="st7" d="M87.6,739.6c-2.3,2.7-4.6,5.5-6.9,8.2C83,745.1,85.3,742.4,87.6,739.6z"/>
	<path class="st7" d="M122.1,697.7c-1.8,2.2-3.6,4.4-5.3,6.6C118.6,702.2,120.4,700,122.1,697.7z"/>
	<path class="st7" d="M93.7,732.3c-1.8,2.2-3.6,4.4-5.4,6.6C90.1,736.7,91.9,734.5,93.7,732.3z"/>
	<path class="st7" d="M114.7,706.9c-1.8,2.1-3.6,4.3-5.5,6.4C111.1,711.2,112.9,709.1,114.7,706.9z"/>
	<path class="st7" d="M99.7,724.9c-1.8,2.2-3.6,4.3-5.3,6.5C96.2,729.2,97.9,727,99.7,724.9z"/>
	<path class="st17" d="M863.5,965.4c2,1.6,3.9,3.2,5.9,4.7c0,0,0,0,0,0c-0.4,0.1-0.9,0.3-1.3,0.4c-1-0.2-2-0.5-3.1-0.7
		c-0.6-1.4-1.2-2.9-1.7-4.3L863.5,965.4z"/>
	<path class="st7" d="M71.2,759.3c-1.3,1.7-2.6,3.4-4,5.1C68.6,762.7,69.9,761,71.2,759.3z"/>
	<path class="st13" d="M942.9,1040.4c0.2-0.5,0.3-1,0.5-1.5c1.7,1.6,3.4,3.2,5.2,4.8c0,0-0.4,0.1-0.4,0.1s-0.4,0-0.4,0
		c-0.6-0.1-1.2-0.3-1.7-0.4c0,0-0.1-0.1-0.1-0.1c-0.5-0.5-1-1-1.4-1.4c0,0-0.1-0.1-0.1-0.1c-0.5-0.5-1-1-1.4-1.4L942.9,1040.4z"/>
	<path class="st17" d="M870.9,971.5c1.6,1.8,3.3,3.7,4.9,5.5c0,0-0.3,0.4-0.3,0.4C873.9,975.4,872.4,973.4,870.9,971.5L870.9,971.5z
		"/>
	<path class="st18" d="M767,875.6c-1.8-1.6-3.7-3.2-5.5-4.8C763.3,872.4,765.2,874,767,875.6z"/>
	<path class="st17" d="M853.2,956.2c1.6,1.4,3.2,2.7,4.8,4.1c0,0-0.5,0.6-0.5,0.6c-1.5-1.5-3-3-4.5-4.5L853.2,956.2z"/>
	<path class="st7" d="M149.3,664.9c0.1,1.1,0.1,2.3,0.2,3.4c-0.9,0-1.8,0.1-2.8,0.1C147.6,667.3,148.4,666.1,149.3,664.9z"/>
	<path class="st7" d="M185.6,639.9c-1-1-2-2-3.1-3c1.3,0.5,2.5,1,3.8,1.5C186,638.8,185.8,639.3,185.6,639.9z"/>
	<path class="st7" d="M156.9,656.1c-0.9,1.1-1.7,2.2-2.6,3.3C155.2,658.3,156,657.2,156.9,656.1z"/>
	<path class="st18" d="M770.7,879.8c-1.2-1.3-2.3-2.6-3.5-3.9C768.4,877.2,769.6,878.5,770.7,879.8z"/>
	<path class="st1" d="M187.1,639c0.7,0.1,1.4,0.2,2,0.3c0,0,0.1,0.1,0.1,0.1c-0.8,0.1-1.5,0.3-2.3,0.4c0,0,0.1,0.1,0.1,0.1
		C187.4,639.6,187.4,639.3,187.1,639z"/>
	<path class="st17" d="M857.9,960.3c1.3,1.2,2.7,2.4,4,3.6c0,0-0.1,0.2-0.1,0.2c-1.5-0.6-3-1.1-4.5-1.7c0-0.5,0.1-1,0.1-1.5
		L857.9,960.3z"/>
	<path class="st7" d="M162.9,648.7c-0.9,1.1-1.8,2.1-2.7,3.2C161.1,650.9,162,649.8,162.9,648.7z"/>
	<path class="st17" d="M875.8,977c1,0.9,2.1,1.9,3.1,2.8c0,0-0.5,0.5-0.5,0.5c-1-1-2-2-3-3L875.8,977z"/>
	<path class="st17" d="M878.9,979.8c1,1,2,2,3,3.1c0,0-0.4,0.5-0.4,0.5c-1-1-2-2-3-3L878.9,979.8z"/>
	<path class="st17" d="M884.5,985c-1,0-2-0.1-3-0.1c0-0.5,0-1,0-1.5c0,0,0.4-0.5,0.4-0.5C882.8,983.6,883.6,984.3,884.5,985z"/>
	<path class="st18" d="M755.8,866.2c-0.6-0.9-1.3-1.9-1.9-2.8C754.5,864.4,755.2,865.3,755.8,866.2z"/>
	<path class="st13" d="M951.7,1046.4c-0.8-0.6-1.6-1.1-2.4-1.7C950.1,1045.3,950.9,1045.8,951.7,1046.4z"/>
	<path class="st18" d="M773.5,881.5c-1-0.6-1.9-1.2-2.9-1.8C771.5,880.2,772.5,880.9,773.5,881.5z"/>
	<path class="st18" d="M760.1,869.4c-1-0.6-1.9-1.2-2.9-1.9C758.1,868.2,759.1,868.8,760.1,869.4z"/>
	<path class="st18" d="M736.2,847c-1.1-0.6-2.1-1.2-3.2-1.8C734.1,845.8,735.2,846.4,736.2,847z"/>
	<path class="st18" d="M737.8,849.7c-0.1-0.5-0.3-1.1-0.4-1.6C737.5,848.6,737.7,849.1,737.8,849.7z"/>
	<path class="st17" d="M869.4,970.1c0.5,0.5,1,0.9,1.5,1.4c0,0,0,0,0,0C870.4,971,869.9,970.6,869.4,970.1L869.4,970.1z"/>
	<path class="st18" d="M757.3,867.7c-0.5-0.5-1.1-1.1-1.6-1.6C756.2,866.6,756.7,867.2,757.3,867.7z"/>
	<path class="st21" d="M187.1,639c0.3,0.3,0.3,0.6-0.1,0.9c0,0-0.7-0.1-0.7-0.1s-0.7,0-0.7,0c0.2-0.5,0.5-1,0.7-1.5
		C186.8,638.3,187.1,638.5,187.1,639z"/>
	<path class="st17" d="M850.2,953.2c0.5,0.5,1,1,1.5,1.5c0,0-0.2,0.2-0.2,0.2c-0.5-0.5-1-1-1.5-1.5L850.2,953.2z"/>
	<path class="st17" d="M851.7,954.7c0.5,0.5,1,1,1.5,1.5c0,0-0.2,0.2-0.2,0.2c-0.5-0.5-1-1-1.5-1.5L851.7,954.7z"/>
	<path class="st18" d="M761.6,870.9c-0.5-0.5-1.1-1-1.6-1.6C760.5,869.8,761,870.4,761.6,870.9z"/>
	<path class="st17" d="M862,963.9c0.5,0.5,1,1,1.5,1.5c0,0-0.2,0.2-0.2,0.2c-0.5-0.5-1-1-1.4-1.5L862,963.9z"/>
	<path class="st22" d="M925,1032.9c-3.1,1.7-6.2,3.4-10.7,5.8c-71.5-30.4-144.2-61.2-217.3-92.2c1-2.7,1.8-4.9,2.9-7.9
		c-9.1-3.6-18.2-7.1-27.3-10.8c-5-2-10-4.1-15-6.3c-20-9.1-40-18.4-60-27.4c-17-7.6-34.1-14.8-51.1-22.2
		c-18.3-7.9-36.7-15.5-54.7-23.8c-21.4-9.9-42.3-20.7-63.7-30.4c-9.4-4.2-19.5-6.8-29.4-9.9c-15.7-4.8-31.8-8.5-47.1-14.2
		c-11.3-4.2-22.5-9.7-30.8-19.2c-1.1-1.2-4-0.8-6.1-1.2c-7-6.7-13.9-13.5-20.9-20.2c-10.1-10.6-20.1-21.4-30.3-31.9
		c-11.3-11.7-22.8-23.2-34.3-34.7c-0.2-1-0.5-1.9-0.7-2.9c2.3,0.9,4.5,1.9,6.8,2.8l0.2,0c4.4,4.4,8.9,8.9,13.3,13.3
		c3.5,3.1,7,6.2,10.5,9.4c5.2,11.1,15.8,16.8,25.5,21.9c21.5,11.2,44,20.6,66.3,30.4c23.6,10.4,47.4,20.4,71,30.6
		c26.2,11.3,52.4,22.8,78.6,34.1c34.3,14.7,68.4,29.7,103,43.8c30.2,12.4,60.9,23.8,91.3,35.7c12.3,4.8,24.4,9.9,36.7,14.7
		c11.9,4.7,24,8.7,35.7,13.7c16.7,7.1,32.7,15.7,49.7,22.1c18.9,7.1,34.3,19.2,49,32.3c2.1,1.9,2.5,5.8,4,8.6
		c1.4,2.7,2.8,6.1,5.1,7.4c14,7.8,28.4,15.1,42.6,22.8C920.2,1028.5,922.5,1030.9,925,1032.9z"/>
	<path class="st23" d="M225,728c-2.3-0.3-4.6-0.5-7.5-0.9c0,1.4-0.4,2.9,0.1,3.1c6.4,3.9,8,11,11.6,16.7c3.7,5.8,3.1,9.5-2.5,13.1
		c-1.5,0.9-3.5,3.4-3.1,4.2c0.7,1.8,2.7,3.6,4.5,4.3c8.3,3.3,10.9,7.3,6,14.2c-4.5,6.3-3.8,9.9,1.8,14c0.4,0.3,0.1,1.4,0.2,2.9
		c-2.2,0.2-4.3,0.4-6.4,0.7c-5.9,0.8-10.3,3-13.3,9.1c-2.9,5.9-7.2,12-16.3,9.9c-1.8-0.4-5.7,2.7-6.8,5c-2.1,4.6-4.3,6.5-9.7,5.5
		c-2.5-0.4-6.6,1.9-8.3,4.2c-4,5.2-7.4,8.1-14.8,5.9c-3.1-0.9-7.7,3.4-11.7,5.2c-2.9,1.3-5.8,2.3-8.8,3.4c-0.9,0.3-2.1,0.3-2.7,1
		c-4.4,5.1-8.8,10.3-11.5,13.6c-4.8,1-7.8,1.7-10.8,2.2c-2.6,0.4-6.9-0.4-7.5,0.8c-3.8,8.2-11.2,11.2-18.4,15.2
		c-4.1,2.3-6.1,7-12.6,5.6c-2.6-0.5-6.3,4.5-9.6,6.9c-1.5,1-3.1,2.3-4.8,2.5c-7.3,0.7-12.3,4.1-15,11.2c-0.6,1.5-2.5,3.6-3.9,3.7
		c-7.2,0.3-12,3.5-14.5,9.6c-2.9-1.9-5.7-3.8-9.7-6.4c-0.1-3.3-1.8-8.8,7.2-8.1c2.1,0.2,5.7-3.3,6.7-5.9c2.8-7,5.4-14.2,6.5-21.6
		c1.3-8.6,6.6-15.1,12.6-18.6c7.5-4.5,9.2-10.8,11.2-17.5c1.6-5.4,3.6-8.9,9.7-9.6c1.4-0.1,2.8-2.4,3.9-3.8c2.3-2.7,4.4-5.6,7.7-9.7
		c-0.3-0.2-2.4-1.6-5.1-3.4c1.8-1.5,4.2-3.5,6.5-5.4c0.9-0.8,2.6-1.4,2.7-2.3c1-11,11-15.9,16.5-23.8c3.2-4.7,9.2-8,14.6-10.5
		c7.1-3.3,9.4-8.3,8.7-15.6c-0.1-1.3,0.8-2.7,1.1-3.5c3.7,0,9.2,0.7,9.4-0.1c1.3-4.7,1.3-9.8,1.8-15.4c6.5-7.7,13.9-16.4,21.7-25.6
		c6.8-2.8,14.7-8.1,23.1-8.9c10.4-1,21.3,1,31.7,3.1C222.7,709.4,226.2,720.8,225,728z M227,750.1c-3.8-2-4.9-3.1-6-3.1
		c-0.6,0-2,2.1-1.8,2.4c0.6,1,1.8,2,3,2.2C223.1,751.9,224.3,751,227,750.1z M97.5,810.7c0.9-0.4,1.8-0.8,2.6-1.2
		c-0.8-1.5-1.6-3-2.4-4.5c-0.7,0.3-1.4,0.6-2.1,0.9C96.2,807.5,96.8,809.1,97.5,810.7z"/>
	<path class="st2" d="M379,906.9c11.2,0.9,15,8.7,17.9,18c1.2,3.8,3.9,7.2,7,12.6c-9,1.5-15.4,3.1-21.9,3.6c-13.4,1.1-26.8,2-40.2,2
		c-6.9,0-14.6,1.4-20.3-4.7c-3.4-3.7-6.8-7,0.8-9.7c0.7-0.2,0.9-1.6,1.3-2.5c14.5-5,29-10,43.5-15c3-1.4,6-2.9,9-4.3
		C377,907,378,907,379,906.9z"/>
	<path class="st8" d="M644.5,965.4c-5.6-1.1-11.3-1.8-16.8-3.4c-29.9-9.3-59.8-18.6-89.5-28.3c-21.2-7-42.2-14.7-63.3-22.1
		c-5.8-2-11.6-4-17.5-6c-9.2-3-18.4-6-27.5-9c-2.6-1.9-5.2-3.9-7.7-5.8c3,0,5.9-0.1,8.9-0.1c1.6,0.7,3.1,1.5,4.7,2.2
		c1.6,0.7,3.3,1.3,4.9,2c0.9,0.2,1.9,0.5,2.8,0.7c0.9,0.4,1.9,0.7,2.8,1.1c1,0.3,2,0.5,3,0.8c6.4,2.3,12.9,4.5,19.3,6.8
		c0,0,0.3,0.2,0.3,0.2c3.2,1.3,6.3,2.6,9.5,3.9l0.5,0l0.5,0.2c1.5,0.5,3,1,4.6,1.6l0,0c7.6,3,15,6.4,22.7,9
		c19.6,6.6,39.2,12.8,58.9,19.1c0.8,0.2,1.6,0.4,2.4,0.6c0.7,0.3,1.4,0.6,2.1,1c1.3,0.3,2.6,0.5,3.9,0.8c3.9,1.4,7.9,2.8,11.8,4.2
		c1.6,0.5,3.2,1,4.8,1.6c0.7,0.3,1.3,0.6,2,0.9c4.9,1.5,9.8,2.9,14.7,4.4c0.3,0.3,0.6,0.5,1,0.5
		C620.2,956.4,632.4,960.9,644.5,965.4z"/>
	<path class="st7" d="M218.4,962.3c-8.5,2.1-16.9,4.1-25.4,6.2c-1,0.5-2,1-3,1.5c-1,0-2,0-3,0c-1-0.5-2-1-3-1.5c2.7-1,5.5-2,8.2-3
		c7.3-2.9,14.6-5.8,21.9-8.7c1.5-0.5,3-1.1,4.6-1.6c2.5-0.9,4.9-1.7,7.4-2.6c1.9-0.3,3.8-0.6,5.7-0.8c2.1-0.8,4.3-1.7,6.4-2.5
		l-0.1-0.2c9-2.5,18-5,27-7.4c2-0.8,4-1.7,6-2.5c0.9-0.1,1.9-0.3,2.8-0.4c0.5,0.5,1.1,1,1.6,1.5c-2.1,1.4-4,3.3-6.4,4.1
		c-11.9,4.2-23.8,8.2-35.7,12.2c-3.5,1-7,2-10.5,3C221.5,960.4,220,961.3,218.4,962.3z"/>
	<path class="st7" d="M367,911.4c-14.5,5-29,10-43.5,15c-11.9,3.9-23.7,7.9-35.6,11.6c-3.5,1.1-7.2,1.3-10.8,1.9
		c3-1.9,6.1-3.9,9.1-5.8c1.4-0.2,2.7-0.4,4.1-0.6c13.9-4.5,27.9-8.9,41.7-13.7c4.9-1.7,9.5-4.5,14.2-6.8c1.4-0.2,2.7-0.4,4.1-0.5
		c6.1-1.4,12.2-2.8,18.3-4.2C368,909.4,367.5,910.4,367,911.4z"/>
	<path class="st4" d="M431.1,890.6c-3,0-5.9,0.1-8.9,0.1c-1.9-0.2-3.8-0.4-5.7-0.7c-0.4-0.5-0.9-0.9-1.3-1.4
		c-1.6-2.1-3.3-4.2-4.6-6.5c-3.7-6.5-7.2-13.1-10.8-19.6C410.2,871.9,420.6,881.2,431.1,890.6z"/>
	<path class="st6" d="M415.2,888.7c0.4,0.5,0.9,0.9,1.3,1.4c-12,4.6-24,9.2-36,13.8c-1.5,0.5-3,1.1-4.5,1.6c-1,0.1-2,0.2-3,0.3
		c0-0.6,0-1.1,0-1.7c1.9-1.1,3.6-2.5,5.6-3.2C390.8,896.7,403,892.7,415.2,888.7z"/>
	<path class="st6" d="M286.1,934.1c-3,1.9-6.1,3.9-9.1,5.8c-0.5,0-1,0.1-1.5,0.2c-0.5-0.5-1.1-1-1.6-1.5c2.5-1.6,5-3.1,7.6-4.7
		c0.5-0.1,0.9-0.2,1.4-0.3C284,933.7,285.1,933.9,286.1,934.1z"/>
	<path class="st7" d="M376,905.5c1.5-0.5,3-1.1,4.5-1.6c-0.5,1-1,2.1-1.5,3.1c-1,0-2,0.1-3,0.1C376,906.5,376,906,376,905.5z"/>
	<path class="st13" d="M359.5,819.8c1.3-0.3,2.8-1.2,4-0.9c20.2,4.8,40.6,8.9,60.6,14.7c15.2,4.4,29.7,10.9,44.5,16.5
		c6.4,2.4,12.7,4.8,19.1,7.2c10.1,3.7,20.4,7.1,30.3,11.2c7.4,3.1,14.3,7.5,21.6,10.8c14.1,6.4,28.5,12.2,42.6,18.7
		c11.6,5.4,22.8,11.4,34.1,17.5c13,7,25.6,14.7,38.7,21.6c8.3,4.4,17.3,7.6,25.5,12.1c9.1,5,17.9,10.4,26.4,16.4
		c10.3,7.2,19.8,15.6,30.1,22.8c5.7,4,12.1,6.9,18.6,9.6c11.9,4.9,24,9.3,36,14.1c1,0.4,1.5,2.3,2.2,3.5c-9.2-2.8-18.4-5.6-27.6-8.4
		c-6-2-12-4.1-17.9-6.1c-8.3-3.1-16.5-6.4-24.9-9.3c-8.6-3-17.4-5.5-26.1-8.3c-10-3.6-20.1-7.1-30.1-10.7c-2-0.8-4-1.5-6-2.3
		c-2-0.6-3.9-1.3-5.9-1.9c-1-0.4-2.1-0.9-3.1-1.3c0,0,0.2-0.7,0.2-0.7c-1.5-1.9-2.7-5.3-4.4-5.5c-13.1-1.9-18.5-14.9-29.4-20
		c-4.2-1.9-8.2-4.3-12.1-6.8c-8.8-5.7-17.1-12.4-26.3-17.4c-13.6-7.4-27.8-13.6-41.7-20.4c-6-2.9-11.8-6.3-18-8.8
		c-13.8-5.7-27.8-11.2-41.8-16.5c-9-3.4-18-7.1-27.3-9.5c-19.5-5-39.2-9.3-58.9-13.7c-1.4-0.3-3,0.3-4.5,0.4
		c-1.4-0.6-2.8-1.2-4.3-1.8c-1.7-1.6-3.4-3.2-5.1-4.9c-3.8-5.3-6.3-11.8-13.1-14.3C363.4,825,361.5,822.4,359.5,819.8z"/>
	<path class="st1" d="M748.1,1001.1c6,2,12,4.1,17.9,6.1c-0.6,0.8-1.4,2.3-1.8,2.2c-6.9-2.1-13.8-4.3-20.7-6.5
		C745,1002.3,746.6,1001.7,748.1,1001.1z"/>
	<path class="st1" d="M734.3,1008.9c-0.8,0.5-1.5,1.3-1.8,1.1c-0.7-0.3-1.2-1-1.7-1.6c0.6-0.3,1.2-0.8,1.7-0.8
		C733,1007.7,733.5,1008.3,734.3,1008.9z"/>
	<path class="st2" d="M324.9,785.4c2.5,2.5,5.1,5.1,7.6,7.6c-0.5,3.7-1.1,7.4-1.6,11c-1.2,8.4-9.1,9.4-14.5,12.2
		c-11.8,6-24.3,10.5-36.6,15.7c-16.6,7-33.3,14.1-49.9,21.2c-15,6.5-30.1,12.8-44.8,19.7c-6.6,3.1-12.5,7.8-18.7,11.7
		c-1.1,0.7-2.1,1.6-3.2,1.8c-13.9,3.4-24.8,11.7-35.5,20.8c-6.6,5.7-14.9,9.3-22.3,14.2c-6.8,4.5-13.9,8.8-20.1,14
		c-11.7,9.7-23.1,19.9-34.3,30.2c-6.3,5.8-11.7,12.6-21.5,11.7c4.5-5.8,8.3-12.2,13.5-17.2c8.9-8.5,18.3-16.6,28-24.1
		c8-6.2,16.7-11.5,25.2-17.2c1.4-1,3.1-1.6,4.3-2.8c11.9-12.4,28-18.3,42.3-26.9c9-5.4,17.8-11,26.8-16.5c1.4-0.9,3.1-1.4,4.7-1.8
		c6.5-1.4,13.3-2,17.5-8.4c0.9-1.3,3.5-1.4,5.3-2.2c2.6-1.1,5.2-2.3,7.8-3.6c7.1-3.7,14-7.6,21.2-11.1c4.6-2.2,9.6-3.6,14.5-5.4
		c8.7-3.3,17.3-6.6,26-10c1.8-0.7,3.6-1.6,5-2.9c7.8-7,14.8-15,23.3-20.9c5.4-3.8,12.8-4.6,19.8-6.9
		C317.5,795.5,321.2,790.5,324.9,785.4z"/>
	<path class="st8" d="M461.5,1035.8c-0.6-3-1.1-6-1.7-9.1c-0.4-5-0.9-10-1.3-14.9c1,0,2,0,3,0c1.4,8,2.8,16.1,4.2,24.1
		C464.3,1035.9,462.9,1035.9,461.5,1035.8z"/>
	<path class="st11" d="M475,1059.8c4.7,3.7,4.2,8.5,2.9,13.5C477,1068.9,476,1064.4,475,1059.8z"/>
	<path class="st8" d="M457,996.9c0.6,0,1.1,0,1.7,0c0,1,0,1.9,0,2.9c-0.1,3.1-0.3,6.3-0.4,9.4c-0.9-4.1-1.9-8.2-2.8-12.3
		C456,996.8,456.5,996.8,457,996.9z"/>
	<path class="st12" d="M458.3,1009.1c0.1-3.1,0.3-6.2,0.4-9.4c0.9,4,1.9,8.1,2.8,12.1c-1,0-2,0-3,0
		C458.4,1010.9,458.4,1010,458.3,1009.1z"/>
	<path class="st11" d="M473.5,1050.8c0.5,2,1,4,1.5,6C474.5,1054.9,474,1052.9,473.5,1050.8z"/>
	<path class="st11" d="M473.3,1041.8c0,2,0.1,4,0.1,6.1C473.4,1045.9,473.4,1043.8,473.3,1041.8z"/>
	<path class="st5" d="M359.5,819.8c2,2.6,3.9,5.2,5.9,7.8c-3.6,5.4,1,9,3.4,12.5c3.3,4.9,2.2,7.6-2.6,9.8
		c-7.6,3.5-14.9,7.8-22.8,10.3c-10.3,3.3-21.1,5-31.7,7.6c-4.1,1-8,2.9-12,4c-13.5,3.7-27.1,7.1-40.5,11c-6.3,1.9-12.3,5.2-18.5,7.4
		c-9.2,3.2-19,5.2-27.7,9.3c-12.2,5.7-23.8,12.8-35.6,19.3c-7.4,4-15.4,7.2-22.2,12.1c-16.7,12.1-33,24.6-48.9,37.6
		c-8.7,7.1-16.3,15.6-25.6,24.6c9.9,4.1,17,1.2,24-2.3c1,0,2-0.1,2.9-0.1c1-0.9,2.1-1.8,3.1-2.7c7.5-2.1,15-4.1,22.4-6.2
		c1-0.1,1.9-0.1,2.9-0.2c3.1-1.4,6.2-2.8,9.2-4.1c1.9-0.1,3.8-0.2,5.8-0.4c2.7-0.5,5.4-0.9,8-1.6c8.4-2.3,16.7-4.8,25.1-7.1
		c1,0.5,2,1,3,1.5c-8.5,3-17.1,5.9-25.6,8.9c-5.5,2-11.1,3.9-16.6,5.9c-1.9,0.1-3.9,0.2-5.8,0.3c-29.5,8-59,16-88.6,23.9
		c-5.6-0.2-5.3-2.6-2.2-5.9c6.3-6.6,12.8-13.2,19.2-19.7c6.2-6.4,12-13.4,18.9-19c6.3-5.2,13.9-8.8,20.8-13.2
		c0.6-0.4,0.9-1.2,1.5-1.7c5.9-5.3,11.4-11.3,17.8-15.7c9.7-6.7,20-12.3,30.1-18.4c11.7-7.1,23.1-14.7,35.2-21
		c12.3-6.4,25.1-11.8,37.9-17.2c11.3-4.8,22.7-9.7,34.4-13.3c18.7-5.8,37.9-10.2,56.7-15.8c11-3.3,21.6-7.7,32.4-11.8
		c3.6-1.4,5.7-3.4,3.5-8c-1.8-3.9-2.2-8.5-3.2-12.8C355.5,816.8,357.5,818.3,359.5,819.8z"/>
	<path class="st1" d="M144.8,984.6c5.5-2,11.1-3.9,16.6-5.9c0,0.5,0.1,1.1,0.1,1.6C156,981.8,150.4,983.2,144.8,984.6z"/>
	<path class="st9" d="M452.4,978.8c0.1,2,0.1,4,0.2,6C452.5,982.9,452.4,980.9,452.4,978.8z"/>
	<path class="st9" d="M456.9,990.9c-0.1,1.1-0.2,2.1-0.3,3.2c-1.3-1.1-2.6-2.2-3.9-3.4C454.1,990.8,455.5,990.9,456.9,990.9z"/>
	<path class="st9" d="M457,996.9c-0.5,0-1,0-1.6,0c0.4-0.5,0.8-1.1,1.1-1.6C456.7,995.8,456.9,996.3,457,996.9z"/>
	<path class="st24" d="M387.8,848.6c1.5-0.2,3.1-0.7,4.5-0.4c19.6,4.4,39.4,8.7,58.9,13.7c9.3,2.4,18.3,6.1,27.3,9.5
		c14,5.3,27.9,10.8,41.8,16.5c6.2,2.5,12,5.9,18,8.8c13.9,6.8,28.1,13,41.7,20.4c9.2,5,17.5,11.7,26.3,17.4
		c3.9,2.5,7.9,4.9,12.1,6.8c10.9,5,16.3,18,29.4,20c1.7,0.3,3,3.6,4.4,5.5c-2.5-0.5-5-0.9-7.5-1.4c-12.1-4.5-24.3-8.9-36.4-13.4
		c-0.3-0.2-0.7-0.4-1-0.5c-4.9-1.5-9.8-2.9-14.7-4.4c-0.7-0.3-1.3-0.6-2-0.9c-1.6-0.5-3.2-1-4.8-1.6c-3.9-1.4-7.9-2.8-11.8-4.2
		c-1.3-0.3-2.6-0.5-3.9-0.8c-0.7-0.3-1.4-0.6-2.1-1c-0.8-0.2-1.6-0.4-2.4-0.6c-2.1-1.2-4.1-2.8-6.3-3.6c-12.7-4.5-25.4-9-38.2-13.2
		c-12.3-4-24.7-7.6-37.1-11.4c0,0,0,0,0,0c-1.5-0.5-3-1-4.6-1.6l-0.5-0.2c0,0-0.5,0-0.5,0c-3.2-1.3-6.3-2.6-9.5-3.9
		c0,0-0.3-0.2-0.3-0.2c-6.4-2.3-12.9-4.5-19.3-6.8c-1-0.3-2-0.5-3-0.8c-0.9-0.4-1.9-0.7-2.8-1.1c-0.9-0.2-1.9-0.5-2.8-0.7
		c-1.6-0.7-3.3-1.3-4.9-2c-1.6-0.7-3.1-1.5-4.7-2.2c-10.4-9.3-20.9-18.7-31.3-28C395.8,857.9,391.8,853.2,387.8,848.6z"/>
	<path class="st8" d="M660.9,970.6c2,0.8,4,1.5,6,2.3C664.9,972.1,662.9,971.4,660.9,970.6z"/>
	<path class="st8" d="M651.8,967.4c1,0.4,2.1,0.9,3.1,1.3C653.9,968.3,652.9,967.8,651.8,967.4z"/>
	<path class="st7" d="M353.5,815.3c1,4.3,1.4,8.9,3.2,12.8c2.2,4.7,0.1,6.7-3.5,8c-10.7,4.1-21.4,8.5-32.4,11.8
		c-18.8,5.6-38,10-56.7,15.8c-11.7,3.6-23.1,8.5-34.4,13.3c-12.8,5.4-25.7,10.8-37.9,17.2c-12.1,6.3-23.5,14-35.2,21
		c-10.1,6.1-20.5,11.7-30.1,18.4c-6.5,4.5-11.9,10.4-17.8,15.7c-0.5,0.5-0.9,1.3-1.5,1.7c-7,4.4-14.5,8-20.8,13.2
		c-6.9,5.6-12.6,12.6-18.9,19c-6.4,6.6-12.9,13.1-19.2,19.7c-3.1,3.3-3.3,5.8,2.2,5.9c-0.3,0.7-0.4,1.9-0.8,2
		c-10.8,2.4-21.6,4.6-32.4,6.9c-0.5-0.6-1-1.1-1.5-1.7c4.6-5.1,9.1-10.3,13.7-15.4c9.4-10.4,18.4-21.1,28.3-30.9
		c8.7-8.6,18.2-16.4,27.8-24c10-8,20.2-15.6,30.8-22.8c8.1-5.5,17-9.8,25.3-14.9c2.2-1.4,3.7-4,5.9-5.4c5.6-3.6,11.2-7.2,17.1-10.1
		c11.7-5.7,23.8-10.7,35.5-16.5c7.3-3.6,14.4-7.7,21-12.3c7-4.9,13-5.2,16.7,0.1c6.5-3.8,12.8-7.6,19.3-11.2
		c1.2-0.7,2.9-1.1,4.1-0.8c7.5,1.9,14.4,0.8,21.7-1.9c17.1-6.3,35.7-9.4,48.8-23.9c1.7-1.9,4.8-2.7,7.3-3.4c6-1.6,6.1-5.4,4.5-10.4
		c-1-3.3-1.6-6.7-2.3-10.1C345.4,806.6,349.5,810.9,353.5,815.3z"/>
	<path class="st21" d="M235.1,686.3c-2.3-0.9-4.5-1.9-6.8-2.8c-6.1-5.9-12.3-11.7-18.4-17.6c-5-5.1-9.9-10.1-14.9-15.2
		c-2.7-3.6-5.4-7.2-8.1-10.8c0.8-0.1,1.5-0.3,2.3-0.4c1.6,1.2,3.3,2.5,4.9,3.7c0.6,0.5,1.2,0.9,1.8,1.4c0.5,0.4,0.9,0.8,1.4,1.2
		c0.9,1.7,1.4,3.7,2.7,5c8,7.5,16.2,14.8,24.3,22.2C228,677.4,231.5,681.8,235.1,686.3z"/>
	<path class="st1" d="M152.5,674.4c-0.6,0.8-1.2,1.5-1.8,2.3c-0.2-0.2-0.3-0.3-0.5-0.5C151,675.6,151.7,675,152.5,674.4
		C152.5,674.4,152.5,674.4,152.5,674.4z"/>
	<path class="st1" d="M218.4,962.3c1.5-0.9,3.1-1.9,4.6-2.8C221.5,960.4,220,961.3,218.4,962.3z"/>
	<path class="st1" d="M190,969.9c1-0.5,2-1,3-1.5C192,968.9,191,969.4,190,969.9z"/>
	<path class="st25" d="M925,1032.9c-2.5-2-4.8-4.4-7.5-5.9c-14.2-7.7-28.5-14.9-42.6-22.8c-2.4-1.3-3.7-4.8-5.1-7.4
		c-1.5-2.8-1.8-6.7-4-8.6c-14.7-13.1-30-25.2-49-32.3c-16.9-6.4-33-14.9-49.7-22.1c-11.7-5-23.9-9.1-35.7-13.7
		c-12.3-4.8-24.4-9.9-36.7-14.7c-30.4-11.9-61.1-23.3-91.3-35.7c-34.5-14.2-68.7-29.1-103-43.8c-26.3-11.3-52.4-22.7-78.6-34.1
		c-23.7-10.2-47.4-20.2-71-30.6c-22.3-9.8-44.8-19.2-66.3-30.4c-9.7-5.1-20.4-10.7-25.5-21.9c5.6,1.8,11.5,2.9,16.7,5.4
		c13.7,6.4,27.1,13.4,40.7,19.9c19.4,9.4,38.9,18.6,58.3,28c9.8,4.8,19.3,10.1,29.2,14.6c13.7,6.2,27.7,11.8,41.5,17.9
		c21.4,9.4,42.6,19.3,64.2,28.3c21.8,9.2,43.8,17.6,65.8,26.3c29.6,11.7,59,23.5,88.7,34.9c22.9,8.8,46.2,16.6,69.2,25.3
		c19.7,7.5,39.2,15.4,58.7,23.4c14.6,6,29.1,12.3,43.6,18.8c7.4,3.3,14.5,7.2,21.7,10.9c1.5,0.6,3,1.1,4.5,1.7c0.5,0.5,1,1,1.4,1.5
		c0.6,1.4,1.2,2.9,1.7,4.3c0.4,0.8,0.8,1.6,1.2,2.4c0.6-0.6,1.2-1.1,1.9-1.7c0.4-0.1,0.9-0.3,1.3-0.4c0.5,0.4,1,0.9,1.5,1.3
		c1.5,2,3.1,4,4.6,5.9c1,1,2,2,3,3c1,1,2,2,3,3c0,0.5,0,1,0,1.5c1.3,1.7,2.4,3.5,3.9,5c15.7,14.9,31.4,29.8,47.1,44.6
		C930,1033.9,927.5,1033.4,925,1032.9z"/>
	<path class="st21" d="M943,1040.4c0.5,0.5,1,1,1.4,1.4C944,1041.4,943.5,1040.9,943,1040.4z"/>
	<path class="st21" d="M944.5,1041.9c0.5,0.5,1,1,1.4,1.4C945.5,1042.9,945,1042.4,944.5,1041.9z"/>
	<path class="st21" d="M946,1043.4c0.6,0.1,1.2,0.3,1.7,0.4C947.2,1043.7,946.6,1043.6,946,1043.4z"/>
	<path class="st26" d="M624.8,796.1c4,1.5,8.1,3,12.1,4.5c8.1,3.4,16.2,7.1,24.4,10.2c16.8,6.2,34,11.3,50.3,18.5
		c7.1,3.2,12.4,10.4,18.5,15.9c-4.1-0.4-8.3-0.4-12.3-1.2c-15.7-3.4-31.4-6.7-47-10.6c-23.6-5.9-47-12.3-70.5-18.5
		c-10.5-2.8-21.1-5.4-31.5-8.8c-10.2-3.3-20.1-7.7-30.3-11.3c-14.7-5.3-29.8-9.7-44.3-15.5c-38.1-15.2-76.1-30.8-114-46.7
		c-19.9-8.3-39.4-17.5-59-26.5c-15.2-7-30.3-14.2-45.3-21.6c-20.6-10.2-41.1-20.5-61.5-31c-1.9-1-3.2-3.1-4.8-4.8
		c10.6,3.6,21.2,7.1,31.7,10.9c14.5,5.2,29.1,10.2,43.3,16.2c10,4.2,19.2,10.2,29.1,14.8c27,12.4,54.1,24.8,81.4,36.6
		c15.9,6.9,32.2,13,48.5,19c16.2,5.9,32.4,11.8,48.9,16.6c25,7.2,50.1,13.7,75.3,20.1c16.7,4.2,34.3,5.1,50.3,12.3
		C620.1,796.1,622.5,795.9,624.8,796.1z"/>
	<path class="st21" d="M857.4,962.4c-7.2-3.6-14.3-7.6-21.7-10.9c-14.4-6.5-29-12.8-43.6-18.8c-19.5-8-39-15.9-58.7-23.4
		c-23-8.7-46.3-16.5-69.2-25.3c-29.7-11.3-59.2-23.2-88.7-34.9c-22-8.7-44-17.1-65.8-26.3c-21.5-9.1-42.7-18.9-64.2-28.3
		c-13.8-6.1-27.8-11.6-41.5-17.9c-9.9-4.5-19.4-9.9-29.2-14.6c-19.4-9.4-38.9-18.6-58.3-28c-13.6-6.6-27-13.6-40.7-19.9
		c-5.3-2.4-11.1-3.6-16.7-5.4c-3.5-3.1-7-6.2-10.5-9.4c1.7-0.5,3.8-2,5.1-1.5c4.7,2.1,9.1,5,13.7,7.3c15.9,7.6,31.8,15.1,47.7,22.6
		c12.1,5.7,24.1,11.6,36.4,16.9c15.1,6.6,30.6,12.5,45.7,19.2c20.8,9.2,41.2,19.3,62.1,28.2c21.3,9.1,42.9,17.3,64.4,25.7
		c33.4,12.9,66.8,25.8,100.4,38.2c35.2,13,70.6,25.4,106,38c17.5,6.3,35.1,12.5,52.7,18.6c9.8,3.3,19.8,6.1,29.8,9.2
		c5.4,4.6,10.6,9.4,16.2,13.8c2.8,2.2,6.1,3.9,9.1,5.8c4,4,8.1,7.9,12.1,11.9c0.5,0.5,1,1,1.5,1.5c0.5,0.5,1,1,1.5,1.5
		c1.5,1.5,3,3,4.5,4.5C857.4,961.4,857.4,961.9,857.4,962.4z"/>
	<path class="st27" d="M235.1,686.3c-3.6-4.5-7.1-8.9-10.7-13.4c6.6,2.8,13.3,5.2,19.7,8.3c24.2,11.9,48.1,24.5,72.6,35.9
		c24.9,11.6,50.4,22,75.6,33c23.5,10.2,46.9,20.8,70.5,30.6c14.9,6.2,30.3,11.2,45.3,17c15.5,6,30.8,12.7,46.4,18.4
		c18.6,6.7,37.5,12.7,56.3,18.9c26.4,8.8,52.7,17.8,79.1,26.3c15.3,5,30.9,9.2,46.4,13.9c11.9,3.6,24.3,6,35.4,11.3
		c8,3.8,14.1,11.4,21.1,17.4c-7.3-2-14.7-3.9-21.9-6.2c-20.4-6.4-40.9-12.8-61.2-19.3c-12.2-3.9-24.4-8-36.7-12
		c-8.6-2.8-17.4-5.4-25.9-8.5c-14.5-5.4-28.9-11.4-43.4-16.7c-26.5-9.8-53.2-18.9-79.6-29c-18.7-7.1-37-15.4-55.5-23.1
		c-16.9-7.1-34.1-13.7-50.8-21.2c-23.1-10.3-45.9-21.2-68.9-31.6c-12.4-5.6-25.2-10.3-37.5-16.1c-19.2-9.1-38-19-57.2-28.1
		c-6-2.8-12.7-3.8-19.1-5.7C235.2,686.3,235.1,686.3,235.1,686.3z"/>
	<path class="st28" d="M235.2,686.3c6.4,1.8,13.2,2.9,19.1,5.7c19.2,9,38,19,57.2,28.1c12.3,5.8,25.1,10.5,37.5,16.1
		c23,10.4,45.8,21.4,68.9,31.6c16.8,7.5,33.9,14.1,50.8,21.2c18.5,7.7,36.8,16,55.5,23.1c26.4,10.1,53.1,19.2,79.6,29
		c14.5,5.4,28.9,11.3,43.4,16.7c8.5,3.2,17.2,5.7,25.9,8.5c12.2,4,24.4,8.1,36.7,12c20.4,6.5,40.8,13,61.2,19.3
		c7.2,2.3,14.6,4.1,21.9,6.2c6.5,6,13,12,19.5,18c-9.9-3-19.9-5.8-29.8-9.2c-17.6-6-35.1-12.3-52.7-18.6c-35.3-12.6-70.8-25-106-38
		c-33.6-12.4-67-25.3-100.4-38.2c-21.6-8.3-43.2-16.6-64.4-25.7c-20.9-8.9-41.3-19-62.1-28.2c-15.1-6.7-30.6-12.6-45.7-19.2
		c-12.3-5.4-24.3-11.3-36.4-16.9c-15.9-7.5-31.9-15-47.7-22.6c-4.7-2.2-9-5.2-13.7-7.3c-1.2-0.5-3.4,0.9-5.1,1.5
		C244.1,695.1,239.7,690.7,235.2,686.3z"/>
	<path class="st17" d="M196,644.5c-0.6-0.5-1.2-0.9-1.8-1.4C194.8,643.6,195.4,644,196,644.5z"/>
	<path class="st21" d="M868.1,970.5c-0.6,0.6-1.2,1.1-1.9,1.7c-0.4-0.8-0.8-1.6-1.2-2.4C866,970.1,867.1,970.3,868.1,970.5z"/>
	<path class="st0" d="M227,750.1c-2.6,0.9-3.8,1.8-4.9,1.6c-1.1-0.2-2.3-1.2-3-2.2c-0.2-0.3,1.2-2.4,1.8-2.4
		C222,747,223.1,748.1,227,750.1z"/>
	<path class="st0" d="M97.5,810.7c-0.6-1.6-1.2-3.1-1.9-4.7c0.7-0.3,1.4-0.6,2.1-0.9c0.8,1.5,1.6,3,2.4,4.5
		C99.2,809.9,98.3,810.3,97.5,810.7z"/>
	<path class="st1" d="M376,905.5c0,0.5,0,1,0,1.6c-3,1.4-6,2.9-9,4.3c0.5-1,1-2,1.5-3c0.4-0.1,0.9-0.1,1.3-0.1
		c1.1-0.8,2.1-1.6,3.1-2.5C374,905.7,375,905.6,376,905.5z"/>
	<path class="st4" d="M484,909.9c12.4,3.8,24.8,7.4,37.1,11.4c12.8,4.2,25.5,8.7,38.2,13.2c2.2,0.8,4.2,2.4,6.3,3.6
		c-19.6-6.3-39.3-12.5-58.8-19.1C499,916.3,491.5,912.9,484,909.9z"/>
	<path class="st4" d="M449.2,897.4c6.4,2.3,12.9,4.5,19.3,6.8C462.1,901.9,455.7,899.6,449.2,897.4z"/>
	<path class="st4" d="M573.9,940.4c3.9,1.4,7.9,2.8,11.8,4.2C581.8,943.2,577.8,941.8,573.9,940.4z"/>
	<path class="st4" d="M468.9,904.3c3.2,1.3,6.3,2.6,9.5,3.9C475.2,906.9,472,905.6,468.9,904.3z"/>
	<path class="st4" d="M435.8,892.8c1.6,0.7,3.3,1.3,4.9,2C439,894.1,437.4,893.5,435.8,892.8z"/>
	<path class="st4" d="M479.4,908.3c1.5,0.5,3,1,4.6,1.6C482.5,909.4,480.9,908.9,479.4,908.3z"/>
	<path class="st4" d="M443.4,895.5c0.9,0.4,1.9,0.7,2.8,1.1C445.3,896.2,444.4,895.8,443.4,895.5z"/>
	<path class="st4" d="M590.4,946.1c0.7,0.3,1.3,0.6,2,0.9C591.7,946.7,591.1,946.4,590.4,946.1z"/>
	<path class="st4" d="M567.9,938.6c0.7,0.3,1.4,0.6,2.1,1C569.3,939.3,568.6,938.9,567.9,938.6z"/>
	<path class="st4" d="M607.1,951.4c0.3,0.2,0.7,0.4,1,0.5C607.7,951.9,607.4,951.7,607.1,951.4z"/>
	<path class="st4" d="M282.9,933.5c-0.5,0.1-0.9,0.2-1.4,0.3c-3.5,1.1-7,2.2-10.5,3.3c-1.5,0.5-3,0.9-4.4,1.4
		c-8.7,2.4-17.3,4.8-25.9,7.4c-1.1,0.3-1.7,2-2.5,3c0,0,0.1,0.2,0.1,0.2c-1-0.1-2.1-0.2-3.1-0.3c-1,0.5-2.1,1-3.1,1.5
		c-0.1,0.4-0.2,0.9-0.1,1.3c-1.9,0.3-3.8,0.6-5.7,0.8c-2.5,0.9-4.9,1.7-7.4,2.6c-1.5,0.5-3,1.1-4.6,1.6c-1-0.5-2-1-3-1.5
		c-0.6-4.2,1-6.7,4.9-8.9c20.2-11.4,42.2-18.6,63.7-26.7c10.8-4,22.8-4.7,34.3-6.6c3-0.5,6.2,0.5,9.4,0.8c0.1,0.8,0.2,1.5,0.3,2.3
		c-2.5,1.4-4.8,3.1-7.5,4c-8.9,3.3-17.9,6.2-26.7,9.5C287.1,930.4,285.1,932.2,282.9,933.5z"/>
	<path class="st9" d="M211,955.1c1,0.5,2,1,3,1.5c-7.3,2.9-14.6,5.8-21.9,8.7c-2.7,1.1-5.5,2-8.2,3c-8.4,2.4-16.7,4.8-25.1,7.1
		c-2.6,0.7-5.3,1.1-8,1.6c5-2.4,10-4.8,15.1-7.2c14.7-4.3,29.4-8.5,44.1-12.9C210.6,956.9,210.7,955.8,211,955.1z"/>
	<path class="st8" d="M238.1,948.9c0.8-1,1.5-2.7,2.5-3c8.6-2.6,17.3-5,25.9-7.4c-0.5,1-1,2-1.5,3
		C256.1,944,247.1,946.4,238.1,948.9z"/>
	<path class="st8" d="M271,937.2c3.5-1.1,7-2.2,10.5-3.3c-2.5,1.6-5,3.1-7.6,4.7c-0.9,0.1-1.9,0.3-2.8,0.4
		C271.1,938.4,271,937.8,271,937.2z"/>
	<path class="st6" d="M271,937.2c0,0.6,0.1,1.2,0.1,1.8c-2,0.8-4,1.7-6,2.5c0.5-1,1-2,1.5-3C268,938.1,269.5,937.6,271,937.2z"/>
	<path class="st8" d="M218.6,955c2.5-0.9,4.9-1.7,7.4-2.6C223.6,953.3,221.1,954.1,218.6,955z"/>
	<path class="st9" d="M231.7,951.6c0-0.4,0-0.9,0.1-1.3c1-0.5,2.1-1,3.1-1.5c1,0.1,2.1,0.2,3.1,0.3
		C236,949.9,233.9,950.8,231.7,951.6z"/>
	<path class="st12" d="M211,955.1c-0.3,0.7-0.5,1.8-0.9,1.9c-14.7,4.4-29.4,8.6-44.1,12.9c1.4-3.2,1.9-7.4,4.3-9.3
		c5.6-4.4,12.1-7.7,18.3-11.3c13.3-7.7,26.2-16.4,40.1-22.9c16.5-7.6,33.6-14.3,51-19.5c17.9-5.2,36.3-9,54.8-11.6
		c10.9-1.5,22.3,0.5,33.5,1.1c1.5,0.1,3,1.4,4.6,2.1c-1,1.9-1.7,3.4-2.5,4.9c-6.6,3-13.2,6-19.8,8.9c-1.4,0.2-2.7,0.4-4.1,0.5
		c-18.1,6-36.2,12.1-54.2,18.2c-0.7,0.2-1.1,1.5-1.7,2.3c-1.4,0.2-2.7,0.4-4.1,0.6c-1.1-0.2-2.2-0.4-3.3-0.6c2.2-1.4,4.2-3.1,6.6-4
		c8.9-3.3,17.9-6.2,26.7-9.5c2.6-1,5-2.7,7.5-4c-0.1-0.8-0.2-1.5-0.3-2.3c-3.1-0.3-6.4-1.2-9.4-0.8c-11.5,1.8-23.5,2.6-34.3,6.6
		c-21.6,8-43.5,15.3-63.7,26.7C212.1,948.4,210.4,950.9,211,955.1z"/>
	<path class="st6" d="M290.2,933.5c0.6-0.8,0.9-2,1.7-2.3c18.1-6.1,36.1-12.2,54.2-18.2c-4.7,2.3-9.3,5.1-14.2,6.8
		C318.1,924.6,304.1,929,290.2,933.5z"/>
	<path class="st6" d="M350.2,912.5c6.6-3,13.2-6,19.8-8.9c0.1,0.2,0.1,0.5,0.2,0.7c-0.1,1.3-0.2,2.6-0.3,3.9c-0.4,0-0.9,0-1.3,0.1
		C362.4,909.7,356.3,911.1,350.2,912.5z"/>
	<path class="st8" d="M370,903.6c0.8-1.5,1.5-3,2.5-4.9c-1.6-0.8-3-2-4.6-2.1c-11.2-0.6-22.6-2.6-33.5-1.1
		c-18.4,2.6-36.9,6.4-54.8,11.6c-17.4,5.1-34.5,11.8-51,19.5c-13.9,6.4-26.8,15.1-40.1,22.9c-6.2,3.6-12.7,6.9-18.3,11.3
		c-2.4,1.9-2.9,6.1-4.3,9.3c-5,2.4-10,4.8-15.1,7.2c-1.9,0.1-3.8,0.2-5.8,0.4c-3.1,1.4-6.2,2.8-9.2,4.1c-1,0.1-1.9,0.1-2.9,0.2
		c-1.9-0.9-3.8-1.8-7.4-3.4c5.5-4.8,10-9.1,14.9-12.9c18.5-14.5,36.8-29.4,58.3-39.6c12.3-5.8,24-12.8,36.5-18.1
		c10.3-4.4,21.3-7.5,32.2-10.4c20.7-5.6,41.3-11.9,62.4-15.6c18.4-3.3,37.4-3.2,56.1-5.1c3.1-0.3,6.6-2.1,8.8-4.4
		c0.8-0.8-1.5-5.1-2.9-7.4c-1.4-2.2-3.5-4-5.3-6c-0.5-1-1-2-1.5-3c-1-1-2-2-2.9-3c0-0.5-0.1-1-0.1-1.5c0.5-1.6,1.1-3.1,1.6-4.7
		c1.4,0.6,2.8,1.2,4.3,1.8c4,4.7,8,9.3,12,14c3.6,6.6,7.1,13.2,10.8,19.7c1.3,2.3,3.1,4.3,4.6,6.5c-12.2,4-24.4,8-36.6,12.2
		c-2,0.7-3.8,2.1-5.6,3.2c-1,0.1-1.9,0.2-2.9,0.2C370.1,904.1,370,903.8,370,903.6z"/>
	<path class="st7" d="M370.1,904.3c1-0.1,1.9-0.2,2.9-0.2c0,0.6,0,1.1,0,1.7c-1,0.8-2.1,1.6-3.1,2.5
		C369.9,906.9,370,905.6,370.1,904.3z"/>
	<path class="st6" d="M381.9,851.4c0,0.5,0.1,1,0.1,1.5c1,1,2,2,2.9,3c0.5,1,1,2,1.5,3c-2.5,2.9-4.6,7.4-7.7,8.4
		c-5.6,1.8-12,1.3-18,2c-11.9,1.3-23.9,2.3-35.6,4.4c-11.7,2.1-23.1,5.4-34.6,8.4c-3.8,1-7.4,2.5-11.2,3.5
		c-9.1,2.4-18.5,3.8-27.3,7.1c-10.7,3.9-21,9.3-31.4,14.1c-9.4,4.3-19,8-28,13.1c-11,6.2-21.4,13.5-32,20.4
		c-11.9,7.7-24.1,15.1-35.3,23.6c-7.4,5.6-13.6,12.8-20,19.7c-1.3,1.4-0.7,4.7-0.9,7.1c-7,3.6-14.1,6.4-24,2.3
		c9.3-9,16.9-17.4,25.6-24.6c15.9-13,32.3-25.5,48.9-37.6c6.8-4.9,14.8-8,22.2-12.1c11.9-6.5,23.4-13.6,35.6-19.3
		c8.8-4.1,18.5-6.1,27.7-9.3c6.3-2.2,12.2-5.5,18.5-7.4c13.4-4,27-7.3,40.5-11c4.1-1.1,7.9-3,12-4c10.5-2.6,21.4-4.4,31.7-7.6
		c7.9-2.5,15.2-6.8,22.8-10.3c4.8-2.2,5.9-4.9,2.6-9.8c-2.4-3.5-7-7.1-3.4-12.5c6.8,2.5,9.3,9,13.1,14.3
		C374.2,847,378.6,849,381.9,851.4z"/>
	<path class="st9" d="M381.9,851.4c-3.3-2.4-7.7-4.4-3.5-9.5c1.7,1.6,3.4,3.2,5.1,4.9C383,848.3,382.5,849.8,381.9,851.4z"/>
	<path class="st9" d="M104.5,990.7c0.2-2.4-0.4-5.7,0.9-7.1c6.3-6.9,12.5-14.1,20-19.7c11.3-8.5,23.5-15.9,35.3-23.6
		c10.6-6.9,21-14.2,32-20.4c8.9-5,18.6-8.8,28-13.1c10.4-4.8,20.6-10.1,31.4-14.1c8.8-3.2,18.2-4.7,27.3-7.1c3.8-1,7.4-2.6,11.2-3.5
		c11.5-2.9,22.9-6.3,34.6-8.4c11.7-2.1,23.7-3,35.6-4.4c6-0.7,12.3-0.2,18-2c3.2-1,5.2-5.5,7.7-8.4c1.8,2,3.9,3.8,5.3,6
		c1.4,2.3,3.7,6.6,2.9,7.4c-2.2,2.2-5.7,4.1-8.8,4.4c-18.7,1.8-37.7,1.8-56.1,5.1c-21,3.7-41.7,10-62.4,15.6
		c-10.9,2.9-21.9,6-32.2,10.4c-12.5,5.3-24.2,12.3-36.5,18.1C177.2,936,159,951,140.5,965.5c-4.9,3.8-9.4,8.1-14.9,12.9
		c3.6,1.6,5.5,2.5,7.4,3.4c-7.5,2.1-15,4.1-22.4,6.2c-1,0.9-2.1,1.8-3.1,2.7C106.4,990.7,105.5,990.7,104.5,990.7z"/>
	<path class="st9" d="M135.9,981.6c3.1-1.4,6.2-2.8,9.2-4.1C142.1,978.9,139,980.2,135.9,981.6z"/>
	<path class="st6" d="M107.4,990.6c1-0.9,2.1-1.8,3.1-2.7C109.5,988.8,108.5,989.7,107.4,990.6z"/>
	<path class="st8" d="M235,948.8c-1,0.5-2.1,1-3.1,1.5C232.9,949.8,234,949.3,235,948.8z"/>
	<path class="st9" d="M385,855.9c-1-1-2-2-2.9-3C383,853.9,384,854.9,385,855.9z"/>
</g>
</svg>
