<svg xmlns="http://www.w3.org/2000/svg" xml:space="preserve" id="Ebene_1" x="0" y="0" viewBox="0 0 1920 1080"><style>.st0{fill:#36183a}.st1{fill:#562a5f}.st2{fill:#4d264e}.st3{fill:#3d1c43}.st4{fill:#c279f3}.st5{fill:#724089}.st6{fill:#814da3}.st7{fill:#623572}.st8{fill:#9961c1}.st9{fill:#8b53b2}.st10{fill:#fea6fe}.st11{fill:#f092fe}.st12{fill:#ac6cdb}.st13{fill:#fec2a9}.st15{fill:#030303}.st17{fill:#e241cc}.st18{fill:#a257f8}.st19{fill:#0c0c0c}.st20{fill:#080808}.st21{fill:#fd6787}</style><path d="M1 960.9v-46.5c7.8-2.8 9.7-10.4 13.4-16.5 5.2-8.6 8.4-19 15-26.2 6.9-7.6 12.2-15.6 16-25 1-2.5 2.6-4.7 4-7 5.8-9.1 11.5-18.3 17.6-27.1 3.1-4.5 7.1-8.3 10.6-12.5.9-1 2.5-2.5 2.2-3.3-2.1-7.5 3.5-12.3 6.5-17.6 3.7-6.6 9.8-11.9 14.3-18.1 3.1-4.2 5.4-9.1 8-13.7 1.9-3.4 3.7-7 5.5-10.5 4.4-5.6 10.7-10.3 15.5-16.1 3.5-4.2 6.9-6.4 12.1-8.7 7.6-3.5 14.9-9 22.5-13.5 1.2-.7 2-2.5 3.2-2.9 6.4-2 13-3.8 19.5-5.6 5.2-1.4 10.6-3.8 15.8-3.4 6.5.5 12.8 3.4 18.3 5 3.1-2.2 5.6-3.8 8-5.5 11.4 11.6 22.9 23.1 34.3 34.7 10.2 10.5 20.2 21.3 30.3 31.9-2.1-.1-4.3-.2-6.4-.4-1.8-.2-3.6-.6-5.4-.9-.1 1.8-.5 3.6-.4 5.4.4 4.9 1.6 9.9 1.5 14.8-.4 14.4-2.8 27.7-20.1 31.6-1.5.3-2.6 2.6-3.8 4-.9 1-1.4 2.8-2.5 3.2-9.6 3.6-19.1 7.5-27 14.4-.9.8-2.8.2-4.2.4-1.6.2-3.3.1-4.7.7-8.1 3.8-16.1 7.9-24.2 11.8-10.3 5-20.8 9.5-30.9 14.9-8.9 4.7-17.1 11-26.1 15.3-8.3 4-17.4 4.9-25.4 11.3-10 8-22.6 12.7-34 18.8-1.5.8-3.1 1.8-4.2 3.1-3.5 3.9-6.9 7.9-10.5 12.1-7.2-5.9-9.6-.1-13.1 3.5-6.9 7.4-12.2 17-24.2 17.2-1.4 0-3.9 1.7-3.9 2.6.1 11.8-15.6 12-16.9 22.8-.2.7-4.1 1-6.2 1.5M225 728c1.3-7.2-2.3-18.6-7.5-19.7-10.4-2.1-21.3-4.1-31.7-3.1-8.4.8-16.3 6.1-23.1 8.9-7.7 9.1-15.1 17.9-21.7 25.6-.5 5.6-.6 10.7-1.8 15.4-.2.8-5.8.1-9.4.1-.3.8-1.3 2.2-1.1 3.5.7 7.3-1.6 12.3-8.7 15.6-5.4 2.5-11.3 5.8-14.6 10.5-5.5 7.9-15.5 12.8-16.5 23.8-.1.8-1.8 1.5-2.7 2.3-2.3 1.9-4.6 3.8-6.5 5.4l5.1 3.4c-3.2 4.1-5.4 7-7.7 9.7-1.2 1.4-2.5 3.7-3.9 3.8-6 .6-8.1 4.2-9.7 9.6-2 6.6-3.7 13-11.2 17.5-5.9 3.5-11.3 10.1-12.6 18.6-1.1 7.4-3.8 14.6-6.5 21.6-1 2.5-4.5 6-6.7 5.9-9-.7-7.3 4.8-7.2 8.1 4 2.7 6.8 4.5 9.7 6.4 2.4-6.1 7.3-9.4 14.5-9.6 1.4 0 3.3-2.1 3.9-3.7 2.7-7 7.7-10.4 15-11.2 1.7-.2 3.3-1.4 4.8-2.5 3.3-2.4 7-7.4 9.6-6.9 6.5 1.4 8.5-3.3 12.6-5.6 7.2-4.1 14.6-7.1 18.4-15.2.5-1.2 4.9-.4 7.5-.8 3-.5 6-1.2 10.8-2.2 2.8-3.3 7.1-8.5 11.5-13.6.5-.6 1.8-.6 2.7-1 2.9-1.1 5.9-2.1 8.8-3.4 4-1.8 8.6-6.1 11.7-5.2 7.4 2.2 10.8-.8 14.8-5.9 1.8-2.3 5.8-4.7 8.3-4.2 5.4 1 7.6-.9 9.7-5.5 1.1-2.3 4.9-5.4 6.8-5 9.1 2.2 13.3-3.9 16.3-9.9 3-6.1 7.4-8.3 13.3-9.1 2.1-.3 4.2-.4 6.4-.7-.1-1.5.1-2.6-.2-2.9-5.6-4.1-6.3-7.6-1.8-14 4.9-6.9 2.2-11-6-14.2-1.9-.7-3.8-2.5-4.5-4.3-.4-.9 1.7-3.3 3.1-4.2 5.5-3.6 6.1-7.3 2.5-13.1-3.7-5.7-5.3-12.8-11.6-16.7-.4-.3-.1-1.7-.1-3.1 2.5.3 4.9.5 7.2.8" class="st0"/><path d="M112 1082.4H83.5c-1.6-10.7 8.2-15.8 13.7-20.1 12.8-10 21.4-25.3 37.7-30.8 6.8-12.9 24.8-12.6 31.2-26.2 10.8-1.9 17.4-10.4 25.9-15.9 12.4-8 25.4-14.9 37-24.2 3.4-2.7 5-4.9 4.5-8.9 11.9-4 23.9-8 35.7-12.2 2.3-.8 4.2-2.7 6.4-4.1.5-.1 1-.1 1.5-.2 3.6-.6 7.3-.8 10.8-1.9 11.9-3.7 23.8-7.7 35.7-11.6-.4.9-.7 2.2-1.3 2.5-7.6 2.7-4.2 6-.8 9.7 5.7 6.2 13.4 4.7 20.3 4.7 13.4 0 26.8-1 40.2-2 6.5-.5 13-2.1 21.9-3.6-3.1-5.4-5.8-8.8-7-12.6-2.9-9.3-6.7-17.2-17.9-18.1.5-1 1-2.1 1.5-3.1l36-13.8c1.9.2 3.8.4 5.7.7 2.6 1.9 5.2 3.9 7.7 5.8.6 3.1 1.1 6.2 1.7 9.3 1.4 7.4 2.9 14.7 4.4 22.1 1.7 12 3.4 24 5.2 35.9.8 5.7 1.8 11.4 2.8 17.1l-2.2 2.2c-8.8-2.9-17.6-6.1-26.5-8.6-15.2-4.3-30.2-10-45.7-11.7-18-2-36.5-.8-54.7-.3-10.2.3-20.4.7-30.5 4.1-5.8 2-11.3 5-17.2 6.1-8.6 1.6-16.1 4.6-23.7 9.2-17.1 10.4-35 19.4-52.1 29.8-11.2 6.8-21.5 15.1-32.1 22.8-4.9 3.6-9.9 7.1-14.5 11.1-6.7 5.7-12.4 12.9-19.8 17.2-8.2 4.6-9.1 12.8-13 19.6" class="st1"/><path d="M926.5 1082.4h-177c-1.5-2.2-3-4.4-4.4-6.7-1.7-2.9-3.1-6-4.6-9-4-8.1-7.3-16.7-12.3-24.1-4-5.9-3.7-11.2 2.9-14.3 2.8-1.4 5.4-3.4 8-5.1-.3-.6-.7-1.2-1-1.9-2.3.3-4.6.5-7 .8-1.6-3.2-3-6.3-4.5-9.4-1.1-2.3-3.6-5.3-2.9-6.7 1.8-3.8 5.2-5.7 9.9-3.6 1.9.9 4.5.4 6.7.5 1 0 2 0 3 .1 6.9 2.2 13.8 4.5 20.7 6.5.3.1 1.2-1.4 1.8-2.2l27.6 8.4c2.2 1 4.4 2.3 6.7 3.1 18.1 6.2 36.2 12.3 54.3 18.6 25.1 8.7 50.1 17.6 75.2 26.5-.9 6.1-2 12.3-3.1 18.5m-192.2-73.5c-.8-.6-1.3-1.2-1.8-1.2-.6 0-1.2.5-1.7.8.6.5 1 1.3 1.7 1.6.3.1.9-.7 1.8-1.2" class="st2"/><path d="M1 960.9c2.1-.5 6-.7 6.1-1.4 1.4-10.8 17-11 16.9-22.8 0-.9 2.5-2.6 3.9-2.6 12-.2 17.3-9.8 24.2-17.1 3.5-3.7 5.9-9.4 13.1-3.5 3.6-4.2 6.9-8.2 10.5-12.1 1.2-1.3 2.7-2.3 4.2-3.1 11.4-6.2 24-10.9 34-18.8 8-6.3 17.1-7.3 25.4-11.3 9.1-4.3 17.2-10.6 26.1-15.3 10.1-5.4 20.6-9.9 30.9-14.9 8.1-3.9 16.1-8 24.2-11.8 1.4-.7 3.1-.6 4.7-.7 1.4-.2 3.4.4 4.2-.4 7.9-7 17.4-10.8 27-14.4 1.1-.4 1.6-2.1 2.5-3.2 1.2-1.4 2.3-3.6 3.8-4 17.3-3.9 19.7-17.2 20.1-31.6.1-4.9-1.1-9.8-1.5-14.8-.2-1.8.2-3.6.4-5.4 1.8.3 3.6.7 5.4.9 2.1.2 4.3.3 6.4.4 7 6.7 13.9 13.5 20.9 20.2 3.5 4.1 6.9 8.1 10.4 12.2-3.7 5-7.4 10.1-10.4 14.2-7 2.3-14.4 3.1-19.8 6.9-8.5 5.9-15.5 13.9-23.3 20.9-1.4 1.3-3.2 2.2-5 2.9-8.6 3.4-17.3 6.7-26 10-4.8 1.8-9.8 3.2-14.5 5.4-7.2 3.4-14.1 7.4-21.2 11.1q-3.75 1.95-7.8 3.6c-1.8.8-4.4.9-5.3 2.2-4.3 6.4-11 6.9-17.5 8.4-1.6.4-3.3.9-4.7 1.8-9 5.4-17.8 11.1-26.8 16.5-14.4 8.6-30.4 14.5-42.3 26.9-1.2 1.2-2.9 1.9-4.3 2.8-8.4 5.7-17.2 10.9-25.2 17.2-9.7 7.6-19.1 15.6-28 24.1-5.2 5-9 11.4-13.5 17.2l-1.5 1.5c-4.1 2.8-8.5 5.2-12.1 8.6-4.7 4.5-6.4 12.4-14.9 12.4.3-13.1.3-26.1.3-39.1" class="st3"/><path d="M617.5 1082.4H583c-1.5-2.2-2.5-4.9-4.4-6.6-11.3-9.6-22.6-19.2-34.3-28.4-20.1-15.7-42.1-27.8-66.8-34.8-2.8-.8-7.2 0-9.2 1.8-3 2.8 1.4 21.1 5.1 24.6v2.8c0 2 .1 4 .1 6.1 0 1 0 2 .1 3l1.5 6c0 1 0 2 .1 3 1 4.5 1.9 9 2.9 13.6 0 2 .1 4 .1 5.9 0 1 0 2-.1 3h-24c-2.1-2.3-3.8-5.2-6.3-6.7-16.3-9.3-32.6-18.3-49.1-27.2-27.2-14.7-54.9-14-83.9-4.3-21.4 7.1-39.9 19.4-59.4 29.8-2.9 1.6-4.5 5.5-6.8 8.4h-28.5c1.7-2.3 2.9-5.3 5.2-6.9 9.2-6.2 18.4-12.3 28.1-17.8 21.1-12 42.1-24.5 66.7-28.4 8.6-1.4 17.1-3.8 25.7-3.7 19.5.1 38.6 3.5 55.9 12.7 15.8 8.4 31 17.8 46.5 26.7 7.9 4.5 15.8 8.8 23.7 13.2.6-.5 1.3-.9 1.9-1.4-.6-3.7-1.3-7.4-1.9-11.1-1.9-5.9-3.8-11.9-5.7-17.8l-.3-11.9c-1.4-8-2.8-16.1-4.2-24.1-.9-4-1.9-8.1-2.8-12.1v-2.9c.5-1.9.5-4.2 1.6-5.4 1.8-1.9 4.6-4.3 6.8-4.1 5.3.3 10.7 1.7 15.9 3.1 28.4 7.3 53.5 21.8 77.2 38 18.7 12.7 34.6 29.5 51.5 44.7 2.4 2.2 3.7 6 5.6 9.2" class="st4"/><path d="M59.5 1082.4H1v-55.5c5.8-1.4 11.6-2.5 17.3-4.2 13.3-3.9 26.4-8.3 39.7-12.1 24.3-6.8 48.7-13.2 73-20.1 3-.8 5.4-3.7 8-5.6 1.9-.1 3.9-.2 5.8-.3 5.6-1.4 11.1-2.9 16.7-4.3 2.8.2 5.6.1 8.2.7.4.1.7 3.4 0 4.7-1.1 2.1-2.8 4.2-4.8 5.5-6.4 3.9-13.3 7-19.6 11.1-4.4 2.8-8.4 6.5-12.4 10-5.6 4.9-10.4 10.8-16.5 14.9-10.6 7.2-22.1 13.2-29.7 23.8-5.7 7.9-17.1 9.7-20.1 20.4-1.1 4-4.7 7.3-7.1 11" class="st3"/><path d="M436 927.9c-1.5-7.4-2.9-14.7-4.4-22.1-.6-3.1-1.2-6.2-1.7-9.3 9.2 3 18.4 6 27.5 9 5.8 1.9 11.6 4 17.5 6 1.5 1.9 3.5 3.6 4.2 5.8.5 1.6-.4 5.3-1.2 5.4-8.1 1.5-16.4 2.2-24.5 3.8-4.5.9-11.1 1.4-11 7.6.1 5.9 2.6 11.8 4.1 17.7 1 7.1 1.9 14.1 3.1 21.2.2 1.1 1.8 2 2.7 3v2.9c.1 2 .1 4 .2 6 0 2 .1 4 .1 5.9 1.3 1.1 2.6 2.2 3.9 3.4v1.1c-.4.5-.8 1.1-1.1 1.6.9 4.1 1.9 8.2 2.8 12.3l.3 2.7c.4 5 .9 10 1.3 14.9-11.4 2-20.1-4.7-29.2-9.6-23.3-12.4-47.2-22.1-74-25.4-22.6-2.7-43.3 2-64 8.8-28.1 9.2-53.4 23.9-77.2 41.3-3.8 2.8-7.5 5.7-11.2 8.5-12.3 9.5-24.6 19-36.9 28.6-.8.6-.9 2.2-1.3 3.4h-27c1.1-1.9 1.8-4.2 3.4-5.5 9.1-7.7 18.2-15.5 27.7-22.7 8.5-6.4 17.5-12.3 26.4-18.1 15.9-10.3 31.6-21.1 48.1-30.4 15.3-8.6 31.5-15.5 47.4-23 4.4-2.1 9-4.3 13.8-5.1 10.1-1.8 20.3-3.5 30.5-4 11.7-.5 23.8-1.2 35.3.9 22.2 4.1 43.7 11 63.5 22.4 3.5 2 8.4 1.4 12.7 2 .5-3.8 2-7.8 1.4-11.5-2.2-14.7-4.9-29.4-7.9-43.9-1-5.3-3.5-10.4-5.3-15.6" class="st5"/><path d="M446.5 951.9c-1.5-5.9-4-11.8-4.1-17.7-.1-6.2 6.4-6.7 11-7.6 8.1-1.6 16.4-2.3 24.5-3.8.8-.1 1.7-3.8 1.2-5.4-.7-2.1-2.7-3.9-4.2-5.8 21.1 7.4 42.1 15.1 63.3 22.1 29.7 9.8 59.6 19.1 89.5 28.3 5.4 1.7 11.2 2.3 16.8 3.4 2.5.5 5 .9 7.5 1.4l-.2.7c1 .4 2.1.9 3.1 1.3 2 .6 3.9 1.3 5.9 1.9 2 .8 4 1.5 6 2.3 10 3.6 20.1 7.1 30.1 10.7-1.4.2-2.9 1-4.1.6-20.5-5.8-40.9-11.7-61.4-17.5-5.2-1.5-10.4-2.9-15.5-4.4-10.9-3.9-21.9-7.9-32.9-11.7-9.2-3.2-10.3-2.4-11.6 7.6 3.8 2.2 8.5 3.6 11.3 6.7 7.5 8.4 14.1 17.6 21.3 26.2 9.4 11.4 19.1 22.5 28.7 33.8.6.8 1.4 1.5 1.9 2.3 7.5 10.3 15.1 20.6 22.3 31.1 5.5 7.9 10.6 16 15.9 24.1h-15c-1-2.7-1.4-6-3.1-8.1-15.1-19.2-30.6-38-49.9-53.3-14.3-11.4-27.9-23.6-41.7-35.6q-20.7-17.85-46.5-27c-10.1-3.5-20.2-6.1-30.9-7.7-13.4-2.2-26.2-3.7-39.2 1.1" class="st6"/><path d="M436 927.9c1.8 5.2 4.2 10.3 5.3 15.7 3 14.6 5.6 29.2 7.9 43.9.6 3.7-.9 7.6-1.4 11.5-4.3-.6-9.2 0-12.7-2-19.8-11.4-41.3-18.3-63.5-22.4-11.4-2.1-23.5-1.5-35.3-.9-10.2.5-20.4 2.1-30.5 4-4.7.9-9.3 3-13.8 5.1-15.9 7.5-32.1 14.4-47.4 23-16.5 9.3-32.2 20.1-48.1 30.4-9 5.8-17.9 11.7-26.4 18.1-9.5 7.2-18.6 14.9-27.7 22.7-1.6 1.3-2.3 3.7-3.4 5.5h-27c3.9-6.8 4.8-14.9 12.9-19.7 7.4-4.3 13.1-11.5 19.8-17.2 4.6-3.9 9.6-7.5 14.5-11.1 10.6-7.7 20.9-16 32.1-22.8 17.1-10.4 35-19.4 52.1-29.8 7.5-4.6 15-7.6 23.7-9.2 5.8-1.1 11.4-4.1 17.2-6.1 10.1-3.4 20.3-3.8 30.5-4.1 18.3-.5 36.7-1.7 54.7.3 15.5 1.7 30.6 7.4 45.7 11.7 8.9 2.5 17.7 5.7 26.5 8.6l2.2-2.2c-.9-5.7-1.9-11.4-2.8-17.1-1.6-12-3.3-24-5.1-35.9" class="st7"/><path d="M139 984.9c-2.7 1.9-5.1 4.8-8 5.6-24.3 6.9-48.7 13.3-73 20.1-13.3 3.7-26.4 8.2-39.7 12.1-5.7 1.7-11.5 2.8-17.3 4.2v-16.5c6.8-5.8 14.2-11 20.3-17.5 3.4-3.6 4.5-9.3 6.7-14l1.5-1.5c9.8.8 15.2-5.9 21.5-11.7 11.2-10.3 22.6-20.5 34.3-30.2 6.3-5.2 13.3-9.5 20.1-14 7.4-4.8 15.7-8.5 22.3-14.2 10.7-9.2 21.6-17.4 35.5-20.8 1.2-.3 2.2-1.2 3.2-1.8 6.2-3.9 12.1-8.6 18.7-11.7 14.7-7 29.8-13.3 44.8-19.7 16.6-7.1 33.3-14.2 49.9-21.2 12.2-5.2 24.7-9.7 36.6-15.7 5.5-2.8 13.4-3.8 14.5-12.2.5-3.7 1.1-7.4 1.6-11l8.9 9.2c.8 3.4 1.3 6.8 2.3 10.1 1.6 4.9 1.4 8.7-4.5 10.4-2.6.7-5.7 1.6-7.3 3.4-13.1 14.5-31.7 17.6-48.8 23.9-7.3 2.7-14.2 3.8-21.7 1.9-1.2-.3-3 .1-4.1.8-6.5 3.6-12.8 7.4-19.3 11.2-3.6-5.3-9.6-5-16.7-.1-6.6 4.7-13.8 8.7-21 12.3-11.7 5.8-23.8 10.8-35.5 16.5-5.9 2.9-11.5 6.5-17.1 10.1-2.2 1.4-3.7 4-5.9 5.4-8.4 5.1-17.2 9.4-25.3 14.9-10.6 7.1-20.8 14.8-30.8 22.8-9.6 7.6-19.1 15.4-27.8 24-9.9 9.8-18.9 20.6-28.3 30.9-4.6 5.1-9.1 10.3-13.7 15.4.5.6 1 1.1 1.5 1.7 10.8-2.3 21.6-4.5 32.4-6.9.4-.1.5-1.3.8-2 29.4-8.2 58.9-16.2 88.4-24.2" class="st1"/><path d="M616 962.3c5.2 1.5 10.4 2.9 15.5 4.4 20.5 5.9 40.9 11.8 61.4 17.5 1.2.3 2.7-.4 4.1-.6 8.7 2.7 17.5 5.3 26.1 8.3 8.4 2.9 16.6 6.2 24.9 9.3-1.5.6-3 1.2-4.6 1.8-1 0-2 0-3-.1-1.3-1-2.5-2.5-4-2.8-11.2-2.7-22.6-4.8-33.8-7.8-6.5-1.8-8.4 1.4-8.6 6.4-.3 8.3 3.1 15.2 9.4 20.8 1.7 1.5 3.2 3.7 3.8 5.8 2.6 8.6 4.7 17.3 7.2 26 1.3 4.5 2.7 9 4.7 13.2 2.8 6.1 6.2 12 9.3 18h-22.5c-6.5-11.2-12.5-22.7-19.5-33.5-4.4-6.8-10.3-12.6-15.6-18.8-8.4-9.9-16.7-19.9-25.3-29.6-6-6.7-12.5-12.9-18.9-19.3-2.7-2.8-5.5-5.5-8.5-8.1-3.5-3.2-6.6-6.2-2.1-10.9" class="st7"/><path d="M616 962.3c-4.5 4.7-1.4 7.8 2.2 10.9 2.9 2.6 5.7 5.3 8.5 8.1 6.4 6.4 12.9 12.6 18.9 19.3 8.7 9.7 16.9 19.7 25.3 29.6 5.3 6.2 11.2 12 15.6 18.8 7 10.8 13.1 22.3 19.5 33.5h-33c-5.3-8-10.4-16.2-15.9-24.1-7.3-10.5-14.9-20.7-22.3-31.1-.6-.8-1.3-1.5-1.9-2.3-9.6-11.3-19.2-22.4-28.7-33.8-7.2-8.7-13.8-17.9-21.3-26.2-2.8-3.1-7.5-4.5-11.3-6.7 1.3-10 2.4-10.8 11.6-7.6 10.9 3.7 21.9 7.7 32.8 11.6" class="st5"/><path d="M108.6 714.2q0-.75.6-.9c1.8-2.1 3.6-4.3 5.5-6.4.7-.8 1.4-1.7 2.1-2.5 1.8-2.2 3.6-4.4 5.3-6.6 8.2-9.8 16.4-19.6 24.6-29.3.9 0 1.8-.1 2.8-.1 1 2 2 4 3 6.1-.8.6-1.5 1.2-2.3 1.8l.5.5c.6-.8 1.2-1.5 1.8-2.3 3.1-1.7 6.6-3 9.2-5.2 6.1-5.1 12.3-8.4 20.4-4.5 1.3.6 3.3.1 4.9-.2 8-1.5 7.4-8 8-13.8l14.9 15.2c-.3.7-.5 1.6-1 2-8.1 5.1-16.3 10.2-24.6 15.1-.8.5-2.4-.5-3.6-.3-6.3.8-13 .6-18.7 2.9-6.9 2.8-13.1 7.5-19.1 11.9s-13.5 6.1-18.2 13.1c-3.5 5.3-10.8 7.9-14.3 13.2-6.8 10.3-12 21.7-18.2 32.5-1.6 2.8-5 4.5-6.7 7.2-3 4.8-5.1 10.3-8 15.1-5.7 9.4-11.8 18.6-17.8 27.8-2.4 3.7-5.1 7.1-7.6 10.7-1 1.4-2 2.8-2.8 4.3-3.8 6.4-7.3 13-11.3 19.3-5 7.9-10.6 15.4-15.5 23.4-4.4 7.2-7.9 14.9-12.2 22-2.6 4.3-6.2 7.9-9.3 11.9v-27c1.9-.9 4.7-1.3 5.5-2.8 9.5-17.4 19.5-34.4 31.2-50.5 6.5-8.9 12.1-18.4 17.3-28.1 2.4-4.5 2.8-10.1 4.2-15.2-.1-.5.2-.8.6-.9 2.4-2.9 4.9-5.8 7.3-8.8l.1-.2c1.3-1.7 2.6-3.4 4-5.1.7-.8 1.4-1.6 2.2-2.4 2.3-2.7 4.5-5.5 6.8-8.2q-.15-.75.6-.9c2.3-2.7 4.6-5.5 6.9-8.2 0-.5.2-.7.6-.8l5.4-6.6c0-.5.2-.8.7-.9 1.8-2.2 3.6-4.3 5.3-6.5.7-.8 1.3-1.6 2-2.4 2.3-2.9 4.6-5.6 6.9-8.4" class="st2"/><path d="M452.7 990.8c0-2-.1-4-.1-5.9-.1-2-.1-4-.2-6V976c.3-10.5 4.1-13.2 14.5-10.2.7.2 1.4.5 2.1.6 12.9 2.4 26.4 3.3 38.7 7.6 15.2 5.3 30.2 12.2 44.1 20.4 16.9 10.1 33.1 21.6 48.5 33.9 15.8 12.7 30.4 27 42.3 43.8 2.3 3.3 4.3 6.9 6.5 10.3h-24c-.6-1.8-.6-4.1-1.8-5.5-6.7-8-13.1-16.4-20.6-23.5-19.7-18.5-40.9-34.9-64.8-48-20.2-11.1-40.8-19.7-63.3-24.5-13.1-2.8-17.3-.8-17.6 10.1-1.5-.1-2.9-.2-4.3-.2" class="st8"/><path d="M1 897.9c3.1-3.9 6.7-7.6 9.3-11.9 4.4-7.2 7.9-14.9 12.2-22 4.9-8 10.5-15.5 15.5-23.4 4-6.3 7.5-12.9 11.3-19.3.9-1.5 1.8-2.9 2.8-4.3 2.5-3.6 5.2-7 7.6-10.7 6-9.2 12.1-18.4 17.8-27.8 3-4.9 5-10.3 8-15.1 1.7-2.7 5.1-4.5 6.7-7.2 6.2-10.7 11.4-22.1 18.2-32.5 3.5-5.2 10.8-7.9 14.3-13.2 4.6-7 12.2-8.7 18.2-13.1 6.1-4.4 12.3-9.1 19.1-11.9 5.7-2.3 12.4-2.1 18.7-2.9 1.2-.1 2.7.8 3.6.3 8.3-4.9 16.4-10 24.6-15.1.5-.3.7-1.3 1-2 6.1 5.9 12.3 11.7 18.4 17.6.2 1 .5 1.9.7 2.9-2.4 1.7-4.8 3.3-8 5.5-5.4-1.6-11.8-4.5-18.3-5-5.1-.4-10.5 2-15.8 3.4-6.5 1.7-13 3.5-19.5 5.6-1.2.4-2 2.2-3.2 2.9-7.6 4.4-14.9 10-22.5 13.5-5.2 2.4-8.6 4.5-12.1 8.7-4.8 5.8-11.1 10.5-15.5 16.1-1.8 3.5-3.6 7-5.5 10.5-2.6 4.6-4.9 9.5-8 13.7-4.5 6.2-10.6 11.5-14.3 18.1-2.9 5.3-8.6 10.1-6.5 17.6.2.8-1.4 2.3-2.2 3.3-3.5 4.2-7.5 8-10.6 12.5-6.1 8.9-11.8 18-17.6 27.1-1.4 2.3-3 4.5-4 7-3.8 9.4-9.1 17.3-16 25-6.6 7.3-9.8 17.6-15 26.2-3.7 6-5.6 13.7-13.4 16.5z" class="st3"/><path d="M649 1082.4c-2.2-3.4-4.1-7-6.5-10.3-11.9-16.7-26.4-31.1-42.3-43.8-15.4-12.3-31.6-23.8-48.5-33.9-13.9-8.3-28.8-15.2-44.1-20.4-12.3-4.3-25.8-5.2-38.7-7.6-.7-.1-1.4-.4-2.1-.6-10.3-3-14.2-.3-14.5 10.2-.9-1-2.5-1.8-2.7-2.9-1.2-7-2.1-14.1-3.1-21.2 13-4.8 25.8-3.3 39.2-1.2 10.7 1.7 20.8 4.2 30.9 7.7 17.3 6 32.7 15.1 46.5 27s27.4 24.2 41.7 35.6c19.3 15.4 34.8 34.1 49.9 53.3 1.7 2.2 2.1 5.4 3.1 8.1z" class="st9"/><path d="M466 1047.9c1.9 5.9 3.8 11.9 5.7 17.8-3.6-.3-7.4.1-10.6-1.1-4.1-1.5-7.8-4.3-11.6-6.5-10.3-6-20.9-11.6-30.9-18.1-14.6-9.4-30.6-16.3-47.4-18.6-16.8-2.4-34.2-1.2-51.2-.4-21 1-40.8 6.5-58.6 18.6-14.3 9.8-29.6 18.2-44.1 27.8-6.2 4.1-11.3 9.9-16.8 15h-9c2.5-3 4.4-6.7 7.4-8.8 16.4-11.6 32.6-23.4 49.7-33.9 14.1-8.7 28.9-16.3 43.9-23.3 7.5-3.5 15.9-5.5 24.1-6.9 13.1-2.2 26.6-5.4 39.7-4.5 13.4 1 27 5.1 39.4 10.4 16.8 7.1 32.4 16.9 48.8 25 6.8 3.3 14.3 5 21.5 7.5" class="st8"/><path d="M59.5 1082.4c2.4-3.7 5.9-7 7.1-11 3-10.7 14.5-12.5 20.1-20.4 7.6-10.6 19.2-16.6 29.7-23.8 6.1-4.1 10.9-10 16.5-14.9 4-3.5 7.9-7.2 12.4-10 6.3-4 13.2-7.2 19.6-11.1 2-1.2 3.7-3.4 4.8-5.5.7-1.3.4-4.6 0-4.7-2.7-.6-5.5-.5-8.2-.7 0-.5-.1-1.1-.1-1.6 8.5-3 17.1-5.9 25.6-8.9h3l3-1.5c8.5-2.1 16.9-4.1 25.4-6.2 1.5-.9 3.1-1.9 4.6-2.8l10.5-3c.5 4-1.1 6.1-4.5 8.9-11.6 9.3-24.6 16.2-37 24.2-8.5 5.5-15.1 14-25.9 15.9-6.4 13.5-24.3 13.2-31.2 26.2-16.3 5.5-24.8 20.8-37.7 30.8-5.5 4.3-15.3 9.3-13.7 20.1z" class="st2"/><path d="M422.5 1082.4h-150c1.8-2.2 3.3-4.8 5.6-6.4 3.4-2.5 7.3-4.3 11-6.3 18.2-9.6 37.4-15.9 58.1-17.4 27.6-2.1 49.6 11.5 71.8 24.8 1.6.9 2.3 3.5 3.5 5.3" class="st10"/><path d="M422.5 1082.4c-1.2-1.8-1.9-4.3-3.6-5.3-22.2-13.2-44.2-26.8-71.8-24.8-20.7 1.6-39.9 7.8-58.1 17.4-3.7 2-7.6 3.8-11 6.3-2.2 1.6-3.7 4.2-5.6 6.4h-24c2.2-2.8 3.9-6.8 6.8-8.4 19.5-10.5 38-22.7 59.4-29.8 29-9.7 56.6-10.3 83.9 4.3 16.5 8.9 32.8 17.9 49.1 27.2 2.5 1.5 4.2 4.4 6.3 6.7z" class="st11"/><path d="M200.5 1082.4c5.6-5 10.7-10.8 16.8-15 14.4-9.6 29.8-18 44.1-27.8 17.8-12.1 37.5-17.7 58.6-18.6 17.1-.8 34.5-2 51.2.4 16.8 2.4 32.8 9.2 47.4 18.6 10 6.5 20.6 12.1 30.9 18.1 3.8 2.2 7.5 5 11.6 6.5 3.2 1.2 7.1.8 10.6 1.1.6 3.7 1.3 7.4 1.9 11.1-.6.5-1.3.9-1.9 1.4-7.9-4.4-15.9-8.7-23.7-13.2-15.5-8.9-30.7-18.3-46.5-26.7-17.4-9.2-36.5-12.6-55.9-12.7-8.6 0-17.1 2.4-25.7 3.7-24.6 3.9-45.6 16.4-66.7 28.4-9.6 5.5-18.9 11.6-28.1 17.8-2.2 1.5-3.5 4.5-5.2 6.9z" class="st12"/><path d="M466 1047.9c-7.2-2.5-14.7-4.2-21.5-7.5-16.4-8.1-32-17.9-48.8-25-12.4-5.3-26.1-9.4-39.4-10.4-13-1-26.5 2.2-39.7 4.5-8.2 1.4-16.6 3.3-24.1 6.9-15 7.1-29.8 14.6-43.9 23.3-17 10.5-33.3 22.3-49.7 33.9-3 2.1-5 5.8-7.4 8.8h-15c1.1-1.5 1.8-3.5 3.3-4.5 11.4-8.4 22.7-16.7 34.3-24.7 13.1-9.1 26.1-18.5 39.9-26.6 12.5-7.3 25.7-14 39.3-19.1 12.8-4.8 26.3-8.2 39.8-10.1 9.5-1.4 19.7-.4 29.3 1.3 14.3 2.5 28.8 4.3 41.9 11.9 14.9 8.7 30.2 16.6 45.6 24.3 3.3 1.6 7.8.7 11.7 1 1.4 0 2.8.1 4.2.1 0 3.9.1 7.9.2 11.9" class="st9"/><path d="M473.5 1050.8c0-1 0-2-.1-3 0-2-.1-4-.1-6.1v-2.8c-.5-7.3 2.7-8.4 9.1-6.1 23.7 8.3 44.3 21.8 63.6 37.4 4.3 3.4 7.7 8 11.4 12h-76.5c-1-1-2-2-2.9-3 0-2-.1-4-.1-5.9 1.3-5 1.8-9.8-2.9-13.5 0-1 0-2-.1-3-.4-1.9-.9-3.9-1.4-6" class="st10"/><path d="M461.5 1035.8c-3.9-.3-8.5.6-11.7-1-15.4-7.7-30.7-15.6-45.6-24.3-13.1-7.6-27.6-9.4-41.9-11.9-9.6-1.7-19.8-2.7-29.3-1.3-13.5 2-27 5.3-39.8 10.1-13.6 5.1-26.7 11.8-39.3 19.1-13.8 8.1-26.8 17.5-39.9 26.6-11.6 8-23 16.4-34.3 24.7-1.4 1.1-2.2 3-3.3 4.5h-10.5c.4-1.1.5-2.7 1.3-3.4 12.2-9.6 24.6-19.1 36.9-28.6 3.7-2.9 7.4-5.8 11.2-8.5 23.8-17.4 49.2-32.1 77.2-41.3 20.6-6.8 41.4-11.6 64-8.8 26.8 3.3 50.6 13 74 25.4 9.1 4.8 17.8 11.5 29.2 9.6.7 3.1 1.3 6.1 1.8 9.1" class="st6"/><path d="M557.5 1082.4c-3.8-4-7.2-8.6-11.4-12-19.3-15.6-39.9-29.1-63.6-37.4-6.4-2.3-9.6-1.2-9.1 6.1-3.6-3.5-8-21.7-5.1-24.6 1.9-1.9 6.4-2.6 9.2-1.8 24.6 7 46.7 19.1 66.8 34.8 11.7 9.1 23 18.7 34.3 28.4 1.9 1.6 3 4.3 4.4 6.6-8.5-.1-17-.1-25.5-.1" class="st11"/><path d="M728.5 1082.4c-3.1-6-6.5-11.9-9.3-18-1.9-4.2-3.4-8.7-4.7-13.2-2.5-8.6-4.6-17.4-7.2-26-.6-2.1-2.1-4.3-3.8-5.8-6.3-5.6-9.7-12.5-9.4-20.8.2-5 2.1-8.2 8.6-6.4 11.1 3 22.5 5.1 33.8 7.8 1.5.4 2.7 1.9 4 2.8-2.3-.1-4.8.3-6.7-.5-4.7-2.1-8.1-.2-9.9 3.6-.7 1.5 1.8 4.5 2.9 6.7 1.5 3.1 2.9 6.2 4.5 9.4 2.3-.3 4.6-.5 7-.8.3.6.7 1.2 1 1.9-2.7 1.7-5.2 3.7-8 5.1-6.6 3.1-6.9 8.4-2.9 14.3 5 7.4 8.3 16.1 12.3 24.1 1.5 3 3 6.1 4.6 9 1.3 2.3 2.9 4.4 4.4 6.7-7.2.1-14.2.1-21.2.1" class="st1"/><path d="M456.9 990.9c.3-10.9 4.5-12.9 17.6-10.1 22.4 4.9 43.1 13.5 63.3 24.5 23.9 13.2 45.1 29.5 64.8 48 7.5 7.1 13.9 15.5 20.6 23.5 1.1 1.4 1.2 3.6 1.8 5.5h-7.5c-1.9-3.1-3.2-7-5.8-9.3-16.9-15.2-32.8-32-51.5-44.7-23.7-16.1-48.9-30.7-77.2-38-5.2-1.3-10.5-2.8-15.9-3.1-2.2-.1-4.9 2.3-6.8 4.1-1.2 1.2-1.1 3.6-1.7 5.4h-1.7c-.1-.5-.3-1.1-.4-1.6V994c.2-.9.3-2 .4-3.1" class="st12"/><path d="M59.2 774.2c-1.3 5.1-1.8 10.7-4.2 15.2-5.2 9.7-10.8 19.3-17.3 28.1C26 833.7 16 850.7 6.5 868.1c-.8 1.5-3.6 1.9-5.5 2.8v-30c7-7.7 14.2-15.3 21.1-23.2 12.4-14.4 24.7-29 37.1-43.5" class="st7"/><path d="M951.8 1046.7c12.1 10.8 24.3 21.6 36.3 32.4.8.7.9 2.2 1.3 3.3h-7.5c-7-2.9-14-5.9-21-8.8-.2-1.2-.1-2.5-.5-3.6-2.8-7.9-5.7-15.6-8.6-23.3" class="st13"/><path d="M926.5 1082.4c1.1-6.2 2.1-12.4 3.2-18.5 6 2 12 4.1 17.9 6.1.5 4.1.9 8.3 1.4 12.4z" class="st1"/><path d="M28 978.9c-2.2 4.7-3.3 10.4-6.7 14-6.1 6.5-13.5 11.7-20.3 17.5v-10.5c8.5 0 10.2-7.9 14.9-12.4 3.6-3.4 8-5.8 12.1-8.6" class="st2"/><path d="M949 1082.4c-.5-4.1-.9-8.3-1.4-12.4 4.4 1.2 8.9 2.4 13.3 3.6 7 2.9 14 5.9 21 8.8z" class="st7"/><path d="M478.1 1079.3c1 1 2 2 2.9 3h-3c0-.9 0-2 .1-3" class="st11"/><path d="M280.3 359.9c-12.2-3.3-25.7-6.7-39.1-10.5-16.3-4.6-32.5-9.6-48.8-14.1-8.2-2.3-13.4-7.2-15.7-15.4-7.3-25.7-14.4-51.3-21.9-77-2.6-8.9-2.5-17.6.1-26.5 7.4-25.6 14.5-51.3 21.7-77 2-7 6.2-12.4 13-14.4 28.3-8.2 56.6-16 85-23.8 11.8-3.3 22.7 2 33.6 4.9 21.4 5.8 42.7 12.1 64.1 18.2 7.9 2.2 12.9 7.2 15.2 15 7.4 26.1 14.9 52.3 22.3 78.4 2.6 9.2 1.7 18.2-1 27.3-7.2 24.6-14.2 49.3-21.1 74-2.4 8.8-7.7 13.9-16.5 16.4-25.9 7.2-51.7 14.8-77.6 22.1-3.8 1.1-7.8 1.5-13.3 2.4m1.7-241c-3.7 2.1-7.3 3.4-9.8 5.8-31.9 31.7-63.7 63.5-95.5 95.3-6.5 6.6-6.4 12.9.2 19.6 31.6 31.7 63.2 63.3 94.9 94.9 6.8 6.8 13.4 6.9 20.2.2 31.7-31.6 63.3-63.2 94.9-94.8 6.3-6.3 6.5-13.6.4-19.8-31.7-31.9-63.5-63.7-95.4-95.3-2.5-2.5-6.1-3.7-9.9-5.9" style="fill:#e707e6"/><path d="M868 316h-30.2v-53.3c0-8 .1-16 0-24-.2-10.7-3.6-16.5-10.8-18.6-9.8-2.9-21.6.4-25.8 8.7-3.1 6-5.1 13.2-5.3 19.9-.7 21-.3 42-.4 63 0 1.2-.1 2.4-.2 4.1h-30.2v-7.9c0-22.5.1-45 0-67.5-.1-13.4-3.8-19.1-12.8-20.6-13.2-2.2-23.6 3.4-27 15.5-1.7 6.1-2.4 12.8-2.5 19.2-.3 20.2-.1 40.5-.1 61.2h-29.9V196.3h28.8V212c.6.4 1.1.8 1.7 1.2 8.2-13.7 20-19.8 35.5-19.5 15.8.3 27.4 6.3 33.7 22 1.3-1.2 2.2-1.6 2.6-2.4 10.2-18.6 27.1-21.5 45.8-18.7 15.5 2.4 24.3 13.5 26.6 31.9.5 4.2.4 8.5.4 12.7.2 25.6.1 51 .1 76.8" class="st15"/><path d="M961 1073.5c-4.4-1.2-8.9-2.4-13.3-3.6-6-2-12-4.1-17.9-6.1-25.1-8.8-50.1-17.7-75.2-26.5-18.1-6.3-36.2-12.4-54.3-18.6-2.3-.8-4.4-2.1-6.6-3.1-.7-1.2-1.2-3-2.2-3.5-11.9-4.8-24.1-9.1-36-14.1-6.4-2.7-12.9-5.7-18.6-9.6-10.3-7.2-19.8-15.5-30.1-22.8-8.4-6-17.3-11.4-26.4-16.4-8.2-4.5-17.2-7.7-25.5-12.1-13-6.9-25.7-14.6-38.7-21.6-11.2-6.1-22.5-12.1-34.1-17.5-14-6.6-28.4-12.3-42.6-18.7-7.3-3.3-14.2-7.7-21.6-10.8-9.9-4.2-20.2-7.5-30.3-11.2-6.4-2.3-12.7-4.8-19.1-7.2-14.8-5.6-29.4-12.1-44.5-16.5-19.9-5.8-40.4-10-60.6-14.7-1.2-.3-2.6.6-4 .9l-6-4.5c-4-4.4-8.1-8.7-12.1-13.1l-8.9-9.2-7.6-7.6c-3.5-4.1-6.9-8.1-10.4-12.2 2.1.4 5 0 6.1 1.2 8.4 9.6 19.5 15 30.8 19.2 15.3 5.7 31.4 9.4 47.1 14.2 9.9 3 20 5.6 29.4 9.9 21.4 9.7 42.4 20.6 63.7 30.4 18.1 8.3 36.5 15.9 54.7 23.8 17 7.4 34.1 14.6 51.1 22.2 20.1 9 40 18.3 60 27.4q7.35 3.3 15 6.3l27.3 10.8c-1.1 3-1.9 5.2-2.9 7.9 73.1 31 145.8 61.9 217.3 92.2 4.5-2.4 7.6-4.1 10.7-5.8 2.5.5 5 1.1 7.5 1.6 3.5 2 6.9 4 10.4 6h.1l1.4 1.4.1.1 1.4 1.4.1.1c.6.1 1.2.3 1.7.4h.4l.4-.1c.3.3.5.6.8.9.8.6 1.6 1.1 2.4 1.7l.1.3c2.9 7.7 5.8 15.5 8.6 23.3.7 1 .7 2.3.9 3.5" style="fill:#fea764"/><path d="M773.5 881.5c21.5 20 42.9 40 64.4 60-3.1-1.9-6.3-3.6-9.1-5.8-5.5-4.4-10.8-9.2-16.2-13.8l-19.5-18c-7-5.9-13.1-13.6-21.1-17.4-11.1-5.3-23.5-7.7-35.4-11.3-15.5-4.6-31-8.9-46.4-13.9-26.5-8.6-52.8-17.5-79.1-26.3-18.8-6.3-37.7-12.2-56.3-18.9-15.6-5.7-30.9-12.4-46.4-18.4-15.1-5.8-30.4-10.8-45.3-17-23.7-9.8-47-20.4-70.5-30.6-25.2-11-50.7-21.4-75.6-33-24.5-11.4-48.4-24-72.6-35.9-6.4-3.1-13.1-5.6-19.7-8.3-8.1-7.4-16.3-14.7-24.3-22.2-1.3-1.2-1.8-3.3-2.7-5 4 1 8.1 2.1 12.1 3.1 1.6 1.6 2.9 3.8 4.8 4.8 20.5 10.4 40.9 20.8 61.5 31q22.5 11.1 45.3 21.6c19.6 9 39.1 18.2 59 26.5 37.9 15.9 75.9 31.5 114 46.7 14.5 5.8 29.6 10.2 44.3 15.5 10.2 3.6 20.1 8 30.3 11.3 10.4 3.4 21 6 31.5 8.8 23.5 6.2 46.9 12.6 70.5 18.5 15.6 3.9 31.3 7.2 47 10.6 4 .9 8.2.8 12.3 1.2h3.2-.2c1.1.6 2.1 1.2 3.2 1.8.4.4.8.7 1.2 1.1.1.5.3 1.1.4 1.6l-.1-.1c5.4 4.6 10.8 9.3 16.2 13.9.6.9 1.3 1.9 1.9 2.8l-.2-.1 1.6 1.6-.1-.2c1 .6 1.9 1.2 2.9 1.9l-.1-.1c.5.5 1.1 1 1.6 1.6l-.1-.1c1.8 1.6 3.7 3.2 5.5 4.8l.3.3c1.2 1.3 2.3 2.6 3.5 3.9l-.2-.1c.7.4 1.7 1 2.7 1.6" class="st17"/><path d="M925.2 263.2c1.4 13.7 5.6 24.7 19.2 28.3 15.6 4.1 29.3 1.2 38.5-14.8 7.2 4.5 14.1 8.8 21.5 13.5-7 14.4-17.7 24.2-33 26.5-11.1 1.7-23.1 1.8-34.1-.2-22.5-4.3-36.2-19-40.9-41.4-3.4-16.2-3.3-32.4 3.2-47.8 8.3-20 23.9-30.9 45.3-32.9 7.1-.7 14.6-.6 21.6.6 23.6 4.1 35.9 18.7 38.5 44.6 2.4 23.6 2.4 23.6-20.7 23.6zm50.7-19.7c.3-17.5-8.1-26.6-23.8-26.2-15.1.3-25.8 11.5-25.2 26.2zm-429.5 14.3c-.1-30.3 12-51.5 34.7-59.7 34.2-12.3 81.3-.5 83.2 53.2.3 9.1-.4 18.6-2.7 27.4-7.4 27.7-32.1 42.9-62.9 39.9-29-2.8-48.6-22-51.6-50.3-.5-3.9-.6-7.9-.7-10.5m87.5-2.9c-.9-5.1-1.3-11.4-3.1-17.3-3.5-12-12.2-17.9-25.3-17.9-13.2 0-22.6 5.5-25.2 17.8-2.2 10.3-2.6 21.3-1.6 31.8 1.4 15.5 11.8 24 26.5 24 14.4.1 24.1-8.1 26.9-23 1-4.8 1.2-9.6 1.8-15.4m-169.8-82.4c10.4-1.7 19.7-3.2 29.8-4.8v28h33.9v24h-33.6v35.5c0 6.7-.1 13.5.1 20.2.3 14.2 9 20.1 22.6 15.2 2.3-.8 4.5-2 7.8-3.4 2.5 7.2 5.1 14 7.2 21.1.3 1.1-1.4 3.7-2.8 4.4-15.1 7.6-30.7 8.9-46.1 1.8-14.2-6.5-18.6-19.5-18.8-34-.3-19.9-.1-39.9-.1-60.3h-18.2v-24H464c.1-8.4.1-15.8.1-23.7" class="st15"/><path d="M209.5 648.8c-4-1-8.1-2.1-12.1-3.1-.5-.4-.9-.8-1.4-1.2-.6-.5-1.2-.9-1.8-1.4-1.6-1.2-3.3-2.5-4.9-3.7l-.1-.1c12.6 3.9 25.3 7.4 37.7 11.8 31.5 11.1 62.9 22.7 94.4 34 52.3 18.9 104.6 38 156.9 56.8 21.6 7.8 43.3 15.3 64.9 23 25.2 9 50.4 18.2 75.6 27.4 2.3.8 4.3 2.3 6.5 3.4l-.3.3c-2.2-.3-4.7 0-6.6-.9-16-7.3-33.6-8.1-50.3-12.3-25.2-6.3-50.4-12.8-75.3-20.1-16.5-4.8-32.8-10.7-48.9-16.6-16.3-6-32.6-12.1-48.5-19-27.3-11.8-54.4-24.2-81.4-36.6-9.9-4.5-19.1-10.6-29.1-14.8-14.2-6-28.8-11-43.3-16.2-10.7-3.6-21.4-7.1-32-10.7" class="st18"/><path d="M1601.8 593.6c-3.4 9.7-7.5 19.3-10.1 29.2-1.9 7.1-5.3 9.6-12.8 7.3-4.3-12.1-8.8-24.7-13.2-37.3-.4 0-.9.1-1.3.1v37.5h-10.5v-58.5c.8-.3 1.5-.7 2.2-.7 12.7-.5 12.7-.4 16.9 11.7 3.5 10.3 7.1 20.7 11.3 32.9 4.2-12.1 7.8-22.4 11.3-32.8 4.4-12.8 4.4-12.8 18.7-11.4v58.5h-10.5v-36.2c-.8 0-1.4-.1-2-.3m-959.5 36.9h-11.1v-26.4c0-4.2.5-9-5.8-9.3s-9.3 3.4-9.4 9.1c-.3 8.7-.1 17.4-.1 26.5h-11.2V586c4.3.7 9.8-3.3 11.2 4.4 11.2-7.7 17.9-7.2 25.8 1.5 2.7-2 5.1-4.7 8.1-5.8 10.6-4.1 19.3 1.5 19.8 13 .5 10.2.1 20.4.1 31.1h-11.5v-26.4c0-4.3.3-8.9-6-9.1-5.9-.2-8.9 3.2-9.2 8.6-.4 8-.2 16-.3 24 .1 1-.2 2-.4 3.2M340.7 486.4c1.7 2.4 4 4.5 5 7.1 2.8 6.9 5 14 7.5 21.1-11.5 1.8-11.5 1.8-15.1-9.1-.5-1.4-.9-2.8-1.4-4.3-3.4-10.2-4.2-10.8-16.5-10V515h-11.5v-58.2c10 0 20.1-.6 30.1.2 6.5.5 10.5 5.4 11.5 12 1.3 7.9-1.1 12.1-9.6 17.4m-20-20.6v15c13.9 1.6 17.8.1 18.2-6.6.5-7.3-2.7-8.8-18.2-8.4" class="st19"/><path d="M894.6 511.7c-4.5-6.7-4.1-8.7 3.9-13.7-6.6-6-9.6-13.3-4.4-21.2 5.8-8.7 14.9-7.4 24.2-5.6.9-2 1.9-4.2 3.1-6.8 2.5.6 5.1 1.2 8.9 2.2-2.3 3.5-4.3 6.5-6.3 9.6 6.3 11.2 2.5 23.9-15.8 24.2-1.9 0-3.9 1.8-5.8 2.7 1.9 1.1 3.8 2.7 5.9 3 4.2.7 8.5.3 12.6 1 5.3.8 9.3 3.6 10.2 9.4.9 6.2-.7 11.7-6.6 14.6-10.2 5-20.9 4.9-31 .1-2.8-1.4-5.7-6.3-5.4-9.4.1-3.3 3.9-6.4 6.5-10.1m13.1 4.2c-.4-.5-.7-1-1.1-1.5-2.8 2-5.6 4-8.4 6.1 3.1 1.9 5.9 4.5 9.2 5.4 2.6.8 6 .1 8.7-.9 1.7-.6 3.5-3.2 3.5-4.9 0-1.2-2.8-2.9-4.6-3.5-2.2-.7-4.8-.5-7.3-.7m11.7-30.4c-4.7-3.7-6.9-6.7-9.7-7.4-4.2-1-6.9 1.8-7.2 6.3-.3 4.7 1.9 8.2 6.6 7.7 2.8-.2 5.3-3.2 10.3-6.6" class="st20"/><path d="M302.1 586.2h10.4c2.2 9.7 4.4 19.4 7 30.9 3.3-11.5 6.1-21.2 9-31h9.7c2.8 9.4 5.6 18.8 8.4 28.3.4.1.8.2 1.3.3 2.1-9.4 4.2-18.8 6.4-28.5h10.1c-3.5 15-6.9 29.5-10.4 44.2h-11.9c-2.8-9.7-5.5-19.4-8.9-31.1-3.2 11.5-5.9 21.2-8.6 31.1h-11.7c-3.5-14.2-7.1-29-10.8-44.2m521.3 44.4h-12c-6.5-14.9-6.5-14.9-27.5-12.9-1.4 4.1-2.9 8.3-4.6 12.8h-11.8c4.1-12 8.1-23.9 12.2-35.7 1.9-5.4 4.3-10.7 5.5-16.2 1.4-6.1 4.4-7.6 10.4-7.5 5.7.1 8 1.8 9.8 7.3 5.5 17.2 11.8 34.2 18 52.2M803 606.7c-2.5-7.8-4.9-15.1-7.8-24.2-3 9.2-5.4 16.5-7.9 24.2zm110.7 10.7c-1.6 4.5-3 8.7-4.5 13.1h-12c6.6-19.2 12.9-38 20-56.5.8-2 7.1-2.4 11-2.5 1.8-.1 4.9 1.6 5.5 3.2 6.6 18.4 12.9 37 19.3 55.6-11 1.1-11 1.1-17.1-12.9zm12.1-32.7c-.5 0-1.1.1-1.6.1-2.3 7.2-4.5 14.3-6.9 21.9H933c-2.5-7.6-4.9-14.8-7.2-22m94.4 23.8v22h-11.6v-59.2c8.7 0 16.7-.4 24.6.1 12.4.9 18.7 8.1 18.1 20.1-.5 10.7-7.5 16.8-19.6 17-3.4.1-6.9 0-11.5 0m.4-7.1c7-2.5 12.9-3.7 17.6-6.7 1.5-1 1.3-9-.3-10-4.9-2.8-10.9-3.6-17.3-5.4zm532.5-102c-4.7 13.3-14.1 18.7-27.7 16.8-14.8-2.1-22.6-11.4-23.6-28-1.1-16.3 6-27.9 19.1-31.7 13.6-3.9 25.5.6 31.5 12.3-2.6 1.7-5.2 3.4-7.9 5.1.1-.6.3-1.3.4-1.9-5.4-2.1-10.8-4.3-16.2-6.3-.4-.2-1 0-1.5.1-10.3 1.1-14.9 10.4-12.9 26.1 1.3 10.2 8.8 16.6 18 14 4.7-1.4 8.5-5.7 12.7-8.7-.2-.7-.5-1.4-.7-2.1 2.8 1.2 5.6 2.6 8.8 4.3" class="st19"/><path d="M971.5 492.9V515h-11.6v-57.9c10 0 20.2-.9 30.1.3 8.4 1 13.3 9.6 12.7 18.7-.6 9.2-6.3 15.8-15.2 16.8-5.1.5-10.3 0-16 0m.3-9.3c14.9 1.1 19.3-1.1 19-9.2-.3-7.6-4.6-9.6-19-8.2zm-528.7 147h-11.3v-62.3h10.6v22c4.4-1.8 8.2-4.1 12.3-4.8 9.3-1.5 15.6 2.7 16.3 12 .8 10.8.2 21.8.2 33h-11v-26.4c0-4.5-.5-8.7-6.3-9.2-5.9-.5-10.2 2.1-10.6 8-.6 9.1-.2 18.3-.2 27.7m1271.4-.6c-16.8 5.1-17.7-11.3-27-17.7v18.1h-11.1c-.1-1.4-.3-2.6-.3-3.9v-58.1h11v34.2c8.9-5.7 10.6-21.1 25.6-15.9-5 6.6-9.9 13.1-15 19.9 5.4 7.7 10.9 15.3 16.8 23.4" class="st20"/><path d="M719.9 611h-28c-.6.6-1.1 1.2-1.7 1.7 2.4 2.8 4.3 6.9 7.3 8.3 5.8 2.7 11.2.4 15.1-4.9 2.5 1.6 4.8 3 7 4.5-4.4 10.1-15.4 13.8-27.2 9.4-10.8-4-15.9-16.9-11.9-30.3 3.3-11.1 14.3-16.8 27-13.9 10.1 2.3 14.8 11.4 12.4 25.2m-10.4-7.6c.4-6-2.4-9.4-8-9.5-6.1-.1-9.4 3.2-9.9 9.5zm925.3-107.6h-28.5c-.5.6-.9 1.2-1.4 1.8 2.3 2.8 4.2 6.8 7.2 8.1 5.6 2.4 11.4 1.3 15.1-4.8 2.7 1.7 5 3 7.3 4.4-3.9 9.8-14.4 13.7-26.3 9.9-11.1-3.5-16.6-16.1-12.9-29.8 3.1-11.8 14-17.8 27-14.9 10 2.3 14.8 11.3 12.5 25.3m-10.4-7.7c-.1-6.7-3.1-9.5-8.8-9.3-5.8.2-8.7 3.4-9.1 9.3zm-448.7 7.6h-30.5c3.1 4.3 4.5 8.3 7.3 9.7 5.9 3 11.6 1.3 15.9-4.4 2.5 1.6 4.8 2.9 7 4.3-2 13.1-27.1 15.1-35.4 3.6-6.4-8.9-6.7-18.7-1.9-28.3 4.5-9 12.7-11.2 22.1-10.4 12.1 1.1 18 10.3 15.5 25.5m-28.5-7.9h18.1c0-5.5-2.1-8.6-7.3-9-6.1-.4-9.7 2.5-10.8 9m-90.2 7.8c2.8 12.7 11.2 14.5 22 5.6 2.2 1.4 4.4 2.9 6.6 4.4-3.1 11.4-19.3 12.8-28.2 8.9-10.4-4.5-15.2-18.1-10.8-30.9 3.7-10.8 15.8-16.3 27.7-12.7 9.6 2.9 14 12.2 11.2 24.8-9.2-.1-18.6-.1-28.5-.1m18.4-7.4c0-6-2.3-9.1-7.8-9.3-6.2-.2-9.5 3-10.3 9.3zm-681.6 13c2.2 1.5 4.4 3 6.5 4.4-2.6 10.2-17.3 13.1-27.7 9.1-10.6-4.1-15.6-17.5-11.4-30.6 3.4-10.6 14.4-16.2 26.7-13.5 10 2.2 14.6 10.7 12.8 25H372c-.5.7-1 1.3-1.4 2 2.6 2.9 4.8 7.7 7.8 8.2 4.7.8 9.9-1.2 14.9-2.1.1-.9.3-1.7.5-2.5m-3.5-13.1c-.2-5.3-2.1-8.9-7.7-9.2-6.2-.3-9.8 2.6-10.5 9.2z" class="st19"/><path d="M1224.4 610.9h-28c-.5.7-1 1.3-1.5 2 2.5 2.9 4.5 6.9 7.6 8.3 5.4 2.3 10.8.9 14.5-5.1 2.6 1.7 5.1 3.2 7.6 4.8-5.3 10.2-16.7 13.7-28.3 8.9-10.3-4.3-15.1-17.4-11.1-30.1 3.5-11.2 14.4-16.7 27.1-13.7 10 2.2 14.2 10.7 12.1 24.9m-10.2-7.5c.2-6.5-3-9.8-9-9.5-5.5.3-9.2 3.2-8.6 9.5zm544.3 7.8h-27.9l-1.5 1.8c2.6 2.8 4.8 7.6 7.7 8 4.7.7 9.9-1.4 14.9-2.3v-2.5c2.5 1.5 4.9 3.1 7.3 4.6-6 10.4-18.1 13.8-29.3 8.5-9.9-4.7-14.2-18.2-9.9-30.6 3.9-10.9 15.4-16.2 27.6-12.7 9.6 2.7 13.7 11.6 11.1 25.2m-10.2-7.7c.8-6.3-2.2-9.5-7.8-9.6-6-.2-9.7 3-9.7 9.6zm-613.8 7.6h-30.8c3.5 4.4 5.2 8.3 8.1 9.7 5.9 2.9 11.6 1.2 15.4-4.8 2.8 1.8 5.1 3.3 7.3 4.8-5.1 10.2-16.6 13.7-28.1 8.9-10.3-4.3-15.1-17.4-11.1-30 3.6-11.3 14.2-16.7 27-13.8 10 2.2 14.2 10.5 12.2 25.2m-10.3-7.6c.5-6.5-2.7-9.8-8.7-9.6-5.6.2-9.1 3.3-8.9 9.6z" class="st20"/><path d="M1630.9 599.2c-1.1-1.6-2.5-3.8-4.1-6.1 7.6-7.9 16.7-9.3 26.4-7 6.5 1.5 9.1 6.6 9.4 12.8.3 5-.1 10 .2 15 .2 3.2-1.9 7.8 4.2 8.6.7.1 1.5 4 1.2 6-.1 1-2.8 2.5-4 2.3-4.3-.8-8.4-2.3-13.2-3.8-6 8.5-22 4.8-24.4-3.3-2.3-7.6-.2-14.3 7.2-17.1 3.9-1.5 8.3-1.7 12.2-3.3 2.1-.9 3.6-3.3 5.4-5.1-2.3-1.3-4.8-3.9-6.9-3.6-4.3.6-8.3 2.7-13.6 4.6m22.5 11.7c-.8-.5-1.7-1.1-2.5-1.6-2.9.7-5.7 1.4-8.6 2.1-4.6 1.1-6.7 4.5-4.4 8.2 1.2 2 7.2 3.7 8.4 2.6 3.1-3 4.8-7.4 7.1-11.3" class="st19"/><path d="M1421.1 493c.1 14.2-8.8 23.6-22.4 23.5-13.3-.1-21.8-9.1-21.9-23.2-.1-14.2 8.2-23.1 21.6-23.3 14-.2 22.6 8.6 22.7 23m-11.7-.2c-.1-8.7-3.8-13.4-10.5-13.3-6.9.1-10.5 5.1-10.3 14.3.2 8.8 3.8 13.1 10.9 12.8q10.05-.3 9.9-13.8m361.8-22.8c13.5.1 21.8 8.9 21.9 23 .1 14.2-8.9 23.6-22.4 23.4-13.3-.2-21.8-9.2-21.9-23.2 0-14.4 8.5-23.3 22.4-23.2m-10.6 23.1c0 9 3.3 13.4 10.2 13.6 7 .1 10.5-4.2 10.7-13.1.1-9.2-3.6-14.1-10.6-14.1-6.7 0-10.3 4.8-10.3 13.6M667 470c13.8 0 22.4 9 22.2 23.4-.2 14-8.8 22.9-22.1 23-13.6 0-22.4-9.3-22.1-23.6.2-14.2 8.5-22.8 22-22.8m10.5 23.2c0-8.8-3.5-13.6-10.1-13.7-7-.2-10.8 4.8-10.7 14 .1 8.9 3.6 13.3 10.6 13.2 6.8-.1 10.1-4.5 10.2-13.5" class="st20"/><path d="M1275.8 484.3c-1.3-1.9-2.7-3.9-4-5.9 6.8-7.8 18-10.8 27.2-7.3 5.6 2.1 8 6.5 8.3 12.2.3 4.5-.2 9 .2 13.5.3 3.8-2.6 9.2 4.4 10.7 1 .2 1 4.4 2.1 9.3-6.9-1.7-12.1-3-16.8-4.2-5.3 1.1-11 3.2-16.6 3.1-6.4-.1-9.4-5.2-10.1-11.2-.7-6.1 1.9-10.8 7.7-13 3.7-1.4 7.9-1.6 11.5-3.2 2.5-1.1 4.3-3.7 6.4-5.6-2.7-1.1-5.6-3.4-8.1-3.1-3.9.5-7.7 2.8-12.2 4.7m20.7 9.7c-4.1.9-7.7.9-10.2 2.6-2.1 1.4-2.9 4.8-4.3 7.4 2.4 1.3 4.9 3.9 7.1 3.6 7.6-1 7.6-7 7.4-13.6m351.2-9.7c-1.3-1.9-2.6-3.9-4-5.8 6.7-7.8 18-10.8 27.2-7.3 5.7 2.1 8 6.6 8.4 12.2.3 4.5-.2 9 .2 13.5.4 3.8-2.7 9.2 4.4 10.6.9.2 1.1 4.4 2.1 9.3-7-1.7-12.2-3-16.8-4.2-5.4 1.1-11 3.2-16.7 3.1-6.3-.1-9.4-5.1-10.1-11.2-.7-6.2 1.9-10.8 7.7-13 3.7-1.4 7.9-1.6 11.5-3.2 2.5-1.1 4.3-3.7 6.4-5.6-2.7-1.1-5.5-3.4-8-3.1-4 .5-7.8 2.8-12.3 4.7m20.3 9.7c-3.8.9-7.6 1.1-10.4 2.8-2 1.2-3.7 4.6-3.5 6.9.1 1.5 3.7 3.8 5.8 4 6.1.5 8.6-3.8 8.1-13.7m-1167.4-.5c-.1 14.1-8.6 22.9-22 22.9-13.6 0-22-9.1-21.9-23.7.1-14.3 8.2-22.7 21.9-22.7 14 0 22.1 8.7 22 23.5m-11.7-.4c0-9.1-3.3-13.5-10-13.7-7-.1-10.6 4.7-10.5 14 .1 9 3.5 13.2 10.5 13.2 6.8-.1 10-4.3 10-13.5" class="st19"/><path d="M1362.8 632.3c-7.2-2.1-12.3-3.6-18.4-5.3-2.6 3.9-8.3 5.3-14.9 4.1-5.5-1-8.9-4.4-9.9-9.8-1-5.8 0-11.3 6-13.9 4.5-1.9 9.7-2.3 14.3-4.2 2.1-.8 3.4-3.4 5.1-5.2-2.1-1.2-4.5-3.7-6.4-3.4-4.5.7-8.8 2.7-14.1 4.5-.9-1.2-2.4-3.3-3.9-5.3 6.7-8 19.5-11.5 27.8-6.8 3.3 1.9 6.2 6.4 7.1 10.3 1.2 5.5.3 11.4.6 17.1.1 3.1-1.5 7.2 4.2 7.9.9.1 1.2 4.7 2.5 10m-16-21.4c-.8-.5-1.6-1.1-2.4-1.6-2.9.7-6.3.6-8.6 2.2-2.3 1.7-3.5 4.9-5.1 7.5 3.1 1.1 7.8 4.1 9 3.1 3.1-2.8 4.8-7.3 7.1-11.2m79.1-3c.1-14.2 8.4-22.8 22-22.8 13.8 0 22 8.9 21.9 23.7-.1 14.2-8.3 22.7-22 22.7-13.9-.1-22-8.8-21.9-23.6m11.6.1c-.1 9.4 3.3 14 10.5 13.9 6.8-.1 10.1-4.6 10.1-13.6s-3.3-13.5-10.1-13.5c-7-.1-10.4 4.2-10.5 13.2m-843.7.3c0 14.4-8 23-21.5 23.1-14 .2-22.4-8.5-22.3-23.1 0-14.6 8.5-23.4 22.3-23.2 13.5.2 21.5 8.9 21.5 23.2m-32.1.1c0 9.1 3.3 13.4 10.1 13.5s10.4-4.5 10.5-13.3c.1-9.2-3.6-14-10.7-13.8-6.8.1-10 4.5-9.9 13.6" class="st20"/><path d="M870.9 630.6h-11.3c0-8.9.1-17.6 0-26.2 0-4.6-.2-9.3-6.7-9.6-6.4-.2-10.2 2.9-10.4 9.2-.4 8.7-.1 17.4-.1 26.5h-11.3v-45.7c4.6 1.5 8.5 2.8 12.3 4.1-.3.4-.6.9-.9 1.3 3.8-1.6 7.5-4 11.4-4.7 10.2-1.7 16.6 3.5 17 13.8.4 10.2 0 20.4 0 31.3m621-.1h-11.4v-45.9c4.7 1.6 8.5 2.9 12.3 4.2-.3.4-.6.9-.9 1.3 3.8-1.6 7.5-4 11.4-4.7 10.2-1.7 16.6 3.5 17 13.9.4 10.2.1 20.4.1 31H1509v-26c0-4.7-.2-9.3-6.7-9.6-6.4-.2-10.1 3-10.4 9.2-.3 8.7 0 17.4 0 26.6M880.1 515.3H869v-25.4c0-5.2-.3-10.5-7.5-10.4-6.8.1-9.8 4.2-10 10.5-.2 8.2-.1 16.4-.1 25h-11.1v-44.1c4.4.5 10.2-3.5 11.2 5.2 2.5-1.7 4.6-3.7 7.1-4.9 10.9-4.9 21.1 1.4 21.5 13.5.3 9.9 0 19.9 0 30.6" class="st19"/><path d="M1198 515.1h-11.5v-44h9.8c.4 1.3.9 3.1 1.4 4.8 3.1-1.9 5.8-4.4 9-5.3 11.2-3.4 19.4 2.7 19.8 14.5.3 9.2.1 18.5.1 27.7 0 .7-.2 1.4-.4 2.4h-10.8c0-9 .1-17.6 0-26.3 0-4.8-.8-9.2-7-9.4-5.9-.1-9.8 2.9-10.1 8.7-.7 8.9-.3 17.8-.3 26.9" class="st20"/><path d="M1814.6 476.1c3.1-1.9 5.8-4.4 8.9-5.4 10.8-3.4 19.3 2.3 19.7 13.4.4 10.2.1 20.4.1 30.9h-10.9v-25.5c0-5-.4-9.7-7-10.2-5.9-.4-10.2 3.3-10.6 10-.5 8.4-.1 16.8-.1 25.6h-10.9v-44.4c4.5 1 11-3.4 10.8 5.6m-568.7 154.3h-10.4v-44h9.8c.3 1.4.6 3.1 1 5.2.7-.5 1.4-.7 1.8-1.2 5.5-6.1 12.3-6.4 19.2-3.9 6.3 2.3 7.6 8.2 7.7 14.2.1 9.7 0 19.4 0 29.6h-11.2v-26c0-4.8-.5-9.2-6.7-9.6-6-.4-9.9 2.6-10.5 8.3-.8 7.9-.5 15.9-.6 23.9.2 1 0 2-.1 3.5" class="st15"/><path d="M536.4 470.8h10.9c0 8.5-.1 16.9 0 25.3 0 4.7-.5 10 6.4 10.6 6.1.5 10-2.6 10.4-9.9.5-8.4.1-16.9.1-25.7H575v44.1h-9.9c-.2-1.5-.4-3.3-.5-4.5-4 2-7.7 4.7-11.7 5.5-9.1 1.9-16.2-3.5-16.5-12.6-.3-10.8 0-21.5 0-32.8" class="st20"/><path d="M739.3 515.2h-10.9v-25.1c0-5.2 0-10.5-7.2-10.7-6.9-.2-10.1 4.1-10.4 10.2-.4 8.4-.1 16.8-.1 25.5H700V471h9.9c.3 1.7.5 3.4.6 3.9 5.1-1.7 9.7-4.3 14.5-4.6 8.7-.7 13.7 3.8 14.2 12.6.5 10.7.1 21.4.1 32.3m703.5-.1H1432v-44.2h9.7c.4 1.7.8 3.4 1.2 5.4.7-.5 1.4-.8 1.8-1.3 5.2-5.8 11.9-6.2 18.5-4 6.7 2.2 8.2 8.2 8.3 14.5.1 9.7 0 19.4 0 29.5h-11.1v-25.3c0-5-.2-9.8-6.8-10.3-5.8-.5-10.3 3.2-10.7 9.9-.5 8.4-.1 16.9-.1 25.8" class="st15"/><path d="M544 571.6v9.5h-16.2v49.2h-12v-48.7h-16.6v-10zm548-63.5c2.2-2.4 4.2-4.5 5.3-5.7 5.5 1.8 10 3.7 14.7 4.5 1.5.3 3.5-2.5 5.3-3.8-1.3-1.5-2.4-3.8-4-4.5-3.4-1.5-7.2-1.9-10.7-3.2-5.4-2-8.7-5.7-8.6-11.8 0-6.3 3.1-10.6 9-12.3 8.4-2.4 16.7-2.4 24.2 4.7-1.8 2.2-3.5 4.2-5 6.1-4-1.1-7.7-2.6-11.4-2.9-1.9-.1-3.9 2-5.9 3.1 1.7 1.7 3.2 4 5.2 5 3.1 1.4 6.7 1.7 10 2.8 5.5 1.9 8.6 5.9 8.7 11.8 0 5.7-2.6 10-7.9 12.5-9 4.2-21 1.9-28.9-6.3" class="st19"/><path d="M1140.7 623.3c2.1-2.3 4-4.3 5.2-5.7 5.4 1.6 10.1 3.5 14.9 4.3 1.6.3 3.6-2.4 5.4-3.7-1.4-1.6-2.4-3.8-4.2-4.6-3.4-1.5-7.2-1.9-10.7-3.1-5.7-2.1-9.1-6.1-8.8-12.4.3-6.6 4.3-10.4 10.3-12.2 7.8-2.3 15.9-.4 23 5.4-1.9 2.1-3.7 4.2-5.1 5.7-4.6-1.1-8.6-2.5-12.6-2.8-1.6-.1-3.4 2.2-5 3.4 1.3 1.5 2.4 3.8 4.1 4.5 3.4 1.4 7.2 1.8 10.8 3 5.8 1.8 9.1 5.6 9.1 12.1 0 6.2-3 10.3-8.6 12.7-8.7 3.8-20.5 1.1-27.8-6.6" class="st20"/><path d="M440.5 470.8h11.3c-5.5 15.1-10.9 29.7-16.3 44.4h-13.7c-5.3-14.3-10.7-28.9-16.2-43.6 11-2.2 11-2.2 14.5 7.8 2.6 7.4 5.3 14.9 8.5 24.1 4.5-12.1 8.2-22.5 11.9-32.7" class="st19"/><path d="M773.1 480v-9h32.8c3.4 8.2-2.4 12.9-6.8 18.1-4.5 5.3-9 10.7-14.2 16.9h21.6v9h-34.8c-.5-16.2 15.2-22.3 21-35z" class="st20"/><path d="M1263.3 505.2c.9 2.9 1.7 5.2 2.6 7.8-5.9 4.4-12.2 4.5-18.3 1.8-6-2.7-7.2-8.5-7.3-14.5-.1-6.5 0-12.9 0-19.9-2.1-.4-4.1-.9-6.3-1.3v-7.9c1.9-.3 3.8-.6 6-.9.2-2.6.4-5.2.6-8.1 3.7-.6 7-1.1 10.9-1.7.2 3.3.3 6.2.5 10h11.9c.1 3.4.3 5.9.4 9.1H1252c0 7.8-.4 15.2.1 22.5.3 4.4 2.7 5 11.2 3.1" class="st19"/><path d="M1718.4 479.6h-13.1v17c.1 9.6 1.9 11 11.5 8.6.9 2.4 1.9 4.9 2.9 7.7-5.9 4.5-12.1 4.6-18.3 1.9-6.1-2.7-7.2-8.4-7.1-14.5.1-6.5 0-12.9 0-19.9-2.2-.5-4.3-.9-6.8-1.4-.1-2.3-.2-4.7-.4-7.5 2.3-.5 4.4-.9 6.8-1.4q.3-3.75.6-8.1c3.5-.5 6.6-1 10.2-1.5.3 3.4.6 6.5.8 9.9 4.1.2 8 .4 12.2.6.4 2.7.5 5.1.7 8.6M616 513c-15.4 7.9-25.5 1.9-25.6-14.3v-18.4c-2.2-.4-4.2-.9-6.7-1.4-.1-2.3-.2-4.8-.3-7.6 2.3-.5 4.4-.9 6.9-1.4.1-2.4.3-4.8.4-7.9 3.3-.6 6.5-1.2 10.4-1.8.3 3.5.6 6.6.9 10 4 .2 7.9.4 12.2.6.1 2.8.2 5.2.4 8.4h-12.8c0 7.8-.4 14.9.1 21.9.4 5.2 2.9 5.9 10.9 3.7 1 2.6 2 5.3 3.2 8.2m730.1-42v8.3c-4.2.2-8 .4-12.5.6 0 7-.3 13.7.1 20.4.5 7.7 5.7 6.6 11.2 4.7 1 2.6 2 5.1 3.1 7.8-5.8 4.5-12.1 4.7-18.3 2-6.1-2.6-7.4-8.3-7.3-14.4.1-6.5 0-13 0-20.1-2.1-.4-4.1-.8-6.6-1.3v-7.9c2.1-.3 4-.6 6.2-.9.2-2.6.4-5.2.7-8.2 3.3-.5 6.4-1 10.2-1.6.3 3.3.6 6.4.9 9.8 4.2.2 8.3.5 12.3.8" class="st20"/><path d="M1382.5 594.6v17.3c0 9.7 1.4 10.8 11.5 8.5.9 2.5 1.8 5 2.8 7.9-6.2 4-12.5 4.2-18.7 1.5-5.8-2.6-6.8-8.3-7-13.9-.2-6.7 0-13.4 0-20.5-2.3-.3-4.2-.6-6.3-.9v-7.9c1.8-.4 3.8-.8 6.1-1.3.2-2.5.3-4.9.5-7.8 3.4-.7 6.8-1.4 10.8-2.2.2 3.5.4 6.6.6 10.4h11.9v9c-3.9-.1-7.5-.1-12.2-.1" class="st19"/><path d="M195 650.7c-.6 5.8 0 12.3-8 13.8-1.6.3-3.6.8-4.9.2-8.1-3.9-14.3-.6-20.4 4.5-2.7 2.2-6.1 3.5-9.2 5.2-1-2-2-4-3-6.1-.1-1.1-.1-2.3-.2-3.4 1.7-1.9 3.3-3.7 5-5.6.9-1.1 1.7-2.2 2.6-3.3 1.1-1.4 2.3-2.8 3.4-4.1.9-1.1 1.8-2.1 2.7-3.2 1.6-1.9 3.2-3.9 4.8-5.8 3.9-2.4 7.8-4.9 11.7-7.3 1 .4 2.1.8 3.1 1.2 1 1 2 2 3.1 3h.7l.7.1-.1-.1c2.7 3.7 5.4 7.3 8 10.9" class="st1"/><path d="M398.1 577.3c3.8-.7 6.7-1.2 9.6-1.7.2 0 .5.1 1.2.2.2 3 .5 6.1.8 9.7 4 .2 7.9.4 12.2.6v8.7h-12.5c0 7.3-.4 14 .1 20.7.5 7.6 5.7 6.6 11.2 4.6 1.1 2.7 2 5.2 3.1 8-6 4.3-12.3 4.4-18.5 1.7-5.8-2.5-7-7.9-7-13.8v-20.7c-2.3-.3-4.4-.6-6.7-.9v-8c2-.3 4.1-.7 6.6-1.1-.1-2.5-.1-4.9-.1-8m913.9 43c1 3 1.8 5.5 2.6 7.9-14.1 7.9-25.1 1.9-25.3-13.4-.1-6.2 0-12.5 0-19.2-2.2-.4-4.2-.8-6.7-1.3-.1-2.3-.3-4.7-.4-7.6 2.2-.5 4.3-.9 6.8-1.4.2-2.3.3-4.7.6-7.8 3.1-.7 6.4-1.4 10.3-2.3.3 3.4.5 6.5.8 10.3h12.1v9c-3.8.2-7.7.4-12.4.6 0 5.8-.1 11.5 0 17.1 0 9.2 1.9 10.5 11.6 8.1" class="st20"/><path d="M973 630.5h-10.9v-58.9H973z" class="st19"/><path d="M529.5 515.1c-12.9 3-18.5-1.2-18.6-12.9-.1-15.4 0-30.9 0-46.3 0-.7.2-1.4.4-2.7h10.8c0 14.4-.1 28.8.1 43.2.1 4.2-2.2 9.8 5.3 11 1 .1 1.3 4.7 2 7.7" class="st20"/><path d="M1040.8 472.5c-.5 2.6-1.1 5.3-1.6 7.9-13.9 1.3-15.1 2.7-15.1 17.1v17.6h-10.9V471c4.3.8 10.7-4.4 11 3.5 5.1-1.6 10.2-3.2 15.4-4.9.3.9.8 1.9 1.2 2.9m532.1 42.8h-11v-44.4c4.7.3 10.5-3.5 11.2 3.4 5-1.6 10-3.2 17-5.5-1 5.7-1.5 8.7-2 11.7-13.3.8-15.1 2.6-15.1 15.6-.1 6.2-.1 12.4-.1 19.2m197.1 69.5c4.5 1.3 8.2 2.4 13.3 3.9 2.9-.8 8.2-2.3 14.7-4.2-.9 5.4-1.4 8.2-1.8 11.1-13.9 1.5-15.2 2.9-15.3 17v18H1770zm-708.5-.2c5 1.5 8.7 2.6 13.7 4.1 3-.9 8.3-2.3 14.8-4.2-.9 5.4-1.4 8.2-1.8 11.1-13.9 1.4-15.2 2.9-15.3 17v18h-11.3v-22.2c-.1-7.2-.1-14.4-.1-23.8m353.5 46h-10.5v-44.3h10.5zM816 515v-43.9h10.7V515z" class="st19"/><path d="M634.3 515.2h-10.4V471h10.4zm731.9 0h-10.3v-44.1h10.3zm-993.2 71h10.2v44.3H373zm379.6-115.3h10.2v44.2h-10.2zm975 44v-43.8h10.4v43.8z" class="st15"/><path d="M733.3 845.2h-3.2c-6.1-5.4-11.4-12.7-18.5-15.9-16.3-7.2-33.5-12.3-50.3-18.5-8.3-3.1-16.3-6.8-24.4-10.2l.2-.3c12.5 3.9 25.1 7.7 37.5 11.9 11.3 3.8 22.4 8.1 33.5 12.3 10.7 3.9 18.8 11.3 25.2 20.7" class="st18"/><path d="M942.9 1040.4c-3.5-2-6.9-4-10.4-6-15.7-14.9-31.4-29.7-47.1-44.6-1.5-1.4-2.6-3.3-3.9-5 1 0 2 .1 3 .1 12.2 11 24.4 21.9 36.5 33 7.5 6.9 14.9 14 22.4 20.9-.2.6-.4 1.1-.5 1.6" class="st21"/><path d="M743.5 594.2c-2.8 1.6-6 4.9-8.4 4.5-2.6-.5-4.5-4.5-6.7-7 2.4-2 4.7-5.6 7.1-5.7 2.7-.1 5.4 3 8.2 4.7-.1 1.2-.1 2.4-.2 3.5m.2 31.6c-2.8 1.7-5.6 4.8-8.2 4.7-2.4-.1-4.7-3.7-7-5.8 2.2-2.4 4.2-6.4 6.8-6.9 2.5-.4 5.6 2.8 8.4 4.5-.1 1.2-.1 2.4 0 3.5M821 449.5c3.4 4.1 7.3 6.8 6.9 8.7-.6 2.7-3.9 6.2-6.6 6.8-1.7.4-5.9-3.7-6.3-6.1-.3-2.2 3.1-5 6-9.4m549.8 9.7c-4.7 3-7.5 6.2-9.9 5.9-2.5-.4-4.6-4-6.9-6.2 2.5-2.2 4.7-5.7 7.5-6.2 2.2-.3 4.9 3.2 9.3 6.5m-732-.6c-4.5 3.3-7.4 6.8-9.4 6.4-2.8-.6-4.9-4.2-7.3-6.5 2.3-2.1 4.5-5.6 7-5.9 2.4-.2 5.1 3 9.7 6m118.5-9.2c3.4 4.2 7.2 7 6.7 8.9-.6 2.7-4.3 4.8-6.6 7.1-2.2-2.2-5.8-4.3-6.1-6.7-.3-2.2 3-4.9 6-9.3m975.2 18.9c-3-4.5-6.5-7.5-6-9.5.7-2.6 4.4-5.6 7.2-6 1.7-.2 5.5 4.2 5.6 6.6 0 2.3-3.5 4.7-6.8 8.9M1410 564.7c3.2 4.4 6.9 7.4 6.3 9.2-.8 2.7-4.4 5.7-7.2 6.2-1.6.3-5.5-4-5.7-6.4-.1-2.3 3.3-4.8 6.6-9" class="st19"/><path d="M388 574.2c-4.8 3-7.2 5.6-10 6-4.3.6-7.6-2.4-6.4-6.7.7-2.4 4.4-5.4 6.8-5.5s5 3.1 9.6 6.2" class="st20"/><path d="M753.9 863.5c-5.4-4.6-10.8-9.3-16.2-13.9 5.4 4.6 10.8 9.2 16.2 13.9" class="st18"/><path d="m837.8 941.5 12.3 11.7-.2.2c-4-3.9-8-7.9-12.1-11.9" class="st17"/><path d="M179.4 635.6c-3.9 2.4-7.8 4.9-11.7 7.3 2.3-5 5.4-8.7 11.7-7.3" class="st7"/><path d="m625.1 795.8 12 4.5-.2.3c-4-1.5-8.1-3-12.1-4.5z" class="st18"/><path d="M67.1 764.6c-2.4 2.9-4.9 5.8-7.3 8.8 2.4-3 4.9-5.9 7.3-8.8m13-15.9c-2.3 2.7-4.5 5.5-6.8 8.2 2.3-2.7 4.6-5.4 6.8-8.2m28.5-34.5c-2.3 2.7-4.7 5.4-7 8.2 2.4-2.7 4.7-5.4 7-8.2m-21 25.4c-2.3 2.7-4.6 5.5-6.9 8.2 2.3-2.7 4.6-5.4 6.9-8.2m34.5-41.9c-1.8 2.2-3.6 4.4-5.3 6.6 1.8-2.1 3.6-4.3 5.3-6.6m-28.4 34.6-5.4 6.6zm21-25.4c-1.8 2.1-3.6 4.3-5.5 6.4 1.9-2.1 3.7-4.2 5.5-6.4m-15 18c-1.8 2.2-3.6 4.3-5.3 6.5 1.8-2.2 3.5-4.4 5.3-6.5" class="st7"/><path d="M863.5 965.4c2 1.6 3.9 3.2 5.9 4.7-.4.1-.9.3-1.3.4-1-.2-2-.5-3.1-.7-.6-1.4-1.2-2.9-1.7-4.3z" class="st17"/><path d="M71.2 759.3c-1.3 1.7-2.6 3.4-4 5.1 1.4-1.7 2.7-3.4 4-5.1" class="st7"/><path d="M942.9 1040.4c.2-.5.3-1 .5-1.5 1.7 1.6 3.4 3.2 5.2 4.8l-.4.1h-.4c-.6-.1-1.2-.3-1.7-.4l-.1-.1-1.4-1.4-.1-.1-1.4-1.4z" class="st13"/><path d="M870.9 971.5c1.6 1.8 3.3 3.7 4.9 5.5l-.3.4c-1.6-2-3.1-4-4.6-5.9" class="st17"/><path d="M767 875.6c-1.8-1.6-3.7-3.2-5.5-4.8 1.8 1.6 3.7 3.2 5.5 4.8" class="st18"/><path d="M853.2 956.2c1.6 1.4 3.2 2.7 4.8 4.1l-.5.6-4.5-4.5z" class="st17"/><path d="M149.3 664.9c.1 1.1.1 2.3.2 3.4-.9 0-1.8.1-2.8.1.9-1.1 1.7-2.3 2.6-3.5m36.3-25c-1-1-2-2-3.1-3 1.3.5 2.5 1 3.8 1.5-.3.4-.5.9-.7 1.5m-28.7 16.2c-.9 1.1-1.7 2.2-2.6 3.3.9-1.1 1.7-2.2 2.6-3.3" class="st7"/><path d="M770.7 879.8c-1.2-1.3-2.3-2.6-3.5-3.9 1.2 1.3 2.4 2.6 3.5 3.9" class="st18"/><path d="M187.1 639c.7.1 1.4.2 2 .3l.1.1c-.8.1-1.5.3-2.3.4l.1.1c.4-.3.4-.6.1-.9" class="st1"/><path d="M857.9 960.3c1.3 1.2 2.7 2.4 4 3.6l-.1.2c-1.5-.6-3-1.1-4.5-1.7 0-.5.1-1 .1-1.5z" class="st17"/><path d="M162.9 648.7c-.9 1.1-1.8 2.1-2.7 3.2.9-1 1.8-2.1 2.7-3.2" class="st7"/><path d="M875.8 977c1 .9 2.1 1.9 3.1 2.8l-.5.5-3-3zm3.1 2.8c1 1 2 2 3 3.1l-.4.5-3-3z" class="st17"/><path d="M884.5 985c-1 0-2-.1-3-.1v-1.5l.4-.5c.9.7 1.7 1.4 2.6 2.1" class="st17"/><path d="M755.8 866.2c-.6-.9-1.3-1.9-1.9-2.8.6 1 1.3 1.9 1.9 2.8" class="st18"/><path d="M951.7 1046.4c-.8-.6-1.6-1.1-2.4-1.7.8.6 1.6 1.1 2.4 1.7" class="st13"/><path d="M773.5 881.5c-1-.6-1.9-1.2-2.9-1.8.9.5 1.9 1.2 2.9 1.8m-13.4-12.1c-1-.6-1.9-1.2-2.9-1.9.9.7 1.9 1.3 2.9 1.9M736.2 847c-1.1-.6-2.1-1.2-3.2-1.8 1.1.6 2.2 1.2 3.2 1.8m1.6 2.7c-.1-.5-.3-1.1-.4-1.6.1.5.3 1 .4 1.6" class="st18"/><path d="M869.4 970.1c.5.5 1 .9 1.5 1.4-.5-.5-1-.9-1.5-1.4" class="st17"/><path d="m757.3 867.7-1.6-1.6c.5.5 1 1.1 1.6 1.6" class="st18"/><path d="M187.1 639c.3.3.3.6-.1.9l-.7-.1h-.7c.2-.5.5-1 .7-1.5.5 0 .8.2.8.7" class="st21"/><path d="m850.2 953.2 1.5 1.5-.2.2-1.5-1.5zm1.5 1.5 1.5 1.5-.2.2-1.5-1.5z" class="st17"/><path d="M761.6 870.9c-.5-.5-1.1-1-1.6-1.6.5.5 1 1.1 1.6 1.6" class="st18"/><path d="m862 963.9 1.5 1.5-.2.2c-.5-.5-1-1-1.4-1.5z" class="st17"/><path d="M925 1032.9c-3.1 1.7-6.2 3.4-10.7 5.8-71.5-30.4-144.2-61.2-217.3-92.2 1-2.7 1.8-4.9 2.9-7.9-9.1-3.6-18.2-7.1-27.3-10.8q-7.5-3-15-6.3c-20-9.1-40-18.4-60-27.4-17-7.6-34.1-14.8-51.1-22.2-18.3-7.9-36.7-15.5-54.7-23.8-21.4-9.9-42.3-20.7-63.7-30.4-9.4-4.2-19.5-6.8-29.4-9.9-15.7-4.8-31.8-8.5-47.1-14.2-11.3-4.2-22.5-9.7-30.8-19.2-1.1-1.2-4-.8-6.1-1.2-7-6.7-13.9-13.5-20.9-20.2-10.1-10.6-20.1-21.4-30.3-31.9-11.3-11.7-22.8-23.2-34.3-34.7-.2-1-.5-1.9-.7-2.9 2.3.9 4.5 1.9 6.8 2.8h.2l13.3 13.3c3.5 3.1 7 6.2 10.5 9.4 5.2 11.1 15.8 16.8 25.5 21.9 21.5 11.2 44 20.6 66.3 30.4 23.6 10.4 47.4 20.4 71 30.6 26.2 11.3 52.4 22.8 78.6 34.1 34.3 14.7 68.4 29.7 103 43.8 30.2 12.4 60.9 23.8 91.3 35.7 12.3 4.8 24.4 9.9 36.7 14.7 11.9 4.7 24 8.7 35.7 13.7 16.7 7.1 32.7 15.7 49.7 22.1 18.9 7.1 34.3 19.2 49 32.3 2.1 1.9 2.5 5.8 4 8.6 1.4 2.7 2.8 6.1 5.1 7.4 14 7.8 28.4 15.1 42.6 22.8 2.4 1.4 4.7 3.8 7.2 5.8" style="fill:#fe8060"/><path d="M225 728c-2.3-.3-4.6-.5-7.5-.9 0 1.4-.4 2.9.1 3.1 6.4 3.9 8 11 11.6 16.7 3.7 5.8 3.1 9.5-2.5 13.1-1.5.9-3.5 3.4-3.1 4.2.7 1.8 2.7 3.6 4.5 4.3 8.3 3.3 10.9 7.3 6 14.2-4.5 6.3-3.8 9.9 1.8 14 .4.3.1 1.4.2 2.9-2.2.2-4.3.4-6.4.7-5.9.8-10.3 3-13.3 9.1-2.9 5.9-7.2 12-16.3 9.9-1.8-.4-5.7 2.7-6.8 5-2.1 4.6-4.3 6.5-9.7 5.5-2.5-.4-6.6 1.9-8.3 4.2-4 5.2-7.4 8.1-14.8 5.9-3.1-.9-7.7 3.4-11.7 5.2-2.9 1.3-5.8 2.3-8.8 3.4-.9.3-2.1.3-2.7 1-4.4 5.1-8.8 10.3-11.5 13.6-4.8 1-7.8 1.7-10.8 2.2-2.6.4-6.9-.4-7.5.8-3.8 8.2-11.2 11.2-18.4 15.2-4.1 2.3-6.1 7-12.6 5.6-2.6-.5-6.3 4.5-9.6 6.9-1.5 1-3.1 2.3-4.8 2.5-7.3.7-12.3 4.1-15 11.2-.6 1.5-2.5 3.6-3.9 3.7-7.2.3-12 3.5-14.5 9.6-2.9-1.9-5.7-3.8-9.7-6.4-.1-3.3-1.8-8.8 7.2-8.1 2.1.2 5.7-3.3 6.7-5.9 2.8-7 5.4-14.2 6.5-21.6 1.3-8.6 6.6-15.1 12.6-18.6 7.5-4.5 9.2-10.8 11.2-17.5 1.6-5.4 3.6-8.9 9.7-9.6 1.4-.1 2.8-2.4 3.9-3.8 2.3-2.7 4.4-5.6 7.7-9.7l-5.1-3.4c1.8-1.5 4.2-3.5 6.5-5.4.9-.8 2.6-1.4 2.7-2.3 1-11 11-15.9 16.5-23.8 3.2-4.7 9.2-8 14.6-10.5 7.1-3.3 9.4-8.3 8.7-15.6-.1-1.3.8-2.7 1.1-3.5 3.7 0 9.2.7 9.4-.1 1.3-4.7 1.3-9.8 1.8-15.4 6.5-7.7 13.9-16.4 21.7-25.6 6.8-2.8 14.7-8.1 23.1-8.9 10.4-1 21.3 1 31.7 3.1 5.5 1.2 9 12.6 7.8 19.8m2 22.1c-3.8-2-4.9-3.1-6-3.1-.6 0-2 2.1-1.8 2.4.6 1 1.8 2 3 2.2.9.3 2.1-.6 4.8-1.5M97.5 810.7c.9-.4 1.8-.8 2.6-1.2l-2.4-4.5-2.1.9c.6 1.6 1.2 3.2 1.9 4.8" style="fill:#341734"/><path d="M379 906.9c11.2.9 15 8.7 17.9 18 1.2 3.8 3.9 7.2 7 12.6-9 1.5-15.4 3.1-21.9 3.6-13.4 1.1-26.8 2-40.2 2-6.9 0-14.6 1.4-20.3-4.7-3.4-3.7-6.8-7 .8-9.7.7-.2.9-1.6 1.3-2.5l43.5-15c3-1.4 6-2.9 9-4.3.9.1 1.9.1 2.9 0" class="st2"/><path d="M644.5 965.4c-5.6-1.1-11.3-1.8-16.8-3.4-29.9-9.3-59.8-18.6-89.5-28.3-21.2-7-42.2-14.7-63.3-22.1-5.8-2-11.6-4-17.5-6-9.2-3-18.4-6-27.5-9-2.6-1.9-5.2-3.9-7.7-5.8 3 0 5.9-.1 8.9-.1 1.6.7 3.1 1.5 4.7 2.2s3.3 1.3 4.9 2c.9.2 1.9.5 2.8.7.9.4 1.9.7 2.8 1.1 1 .3 2 .5 3 .8 6.4 2.3 12.9 4.5 19.3 6.8l.3.2c3.2 1.3 6.3 2.6 9.5 3.9h.5l.5.2c1.5.5 3 1 4.6 1.6 7.6 3 15 6.4 22.7 9 19.6 6.6 39.2 12.8 58.9 19.1l2.4.6c.7.3 1.4.6 2.1 1 1.3.3 2.6.5 3.9.8 3.9 1.4 7.9 2.8 11.8 4.2 1.6.5 3.2 1 4.8 1.6.7.3 1.3.6 2 .9 4.9 1.5 9.8 2.9 14.7 4.4.3.3.6.5 1 .5 11.9 4.1 24.1 8.6 36.2 13.1" class="st8"/><path d="M218.4 962.3c-8.5 2.1-16.9 4.1-25.4 6.2l-3 1.5h-3l-3-1.5c2.7-1 5.5-2 8.2-3l21.9-8.7c1.5-.5 3-1.1 4.6-1.6 2.5-.9 4.9-1.7 7.4-2.6 1.9-.3 3.8-.6 5.7-.8 2.1-.8 4.3-1.7 6.4-2.5l-.1-.2c9-2.5 18-5 27-7.4 2-.8 4-1.7 6-2.5.9-.1 1.9-.3 2.8-.4.5.5 1.1 1 1.6 1.5-2.1 1.4-4 3.3-6.4 4.1-11.9 4.2-23.8 8.2-35.7 12.2l-10.5 3q-2.1 1.2-4.5 2.7M367 911.4l-43.5 15c-11.9 3.9-23.7 7.9-35.6 11.6-3.5 1.1-7.2 1.3-10.8 1.9 3-1.9 6.1-3.9 9.1-5.8 1.4-.2 2.7-.4 4.1-.6 13.9-4.5 27.9-8.9 41.7-13.7 4.9-1.7 9.5-4.5 14.2-6.8 1.4-.2 2.7-.4 4.1-.5l18.3-4.2c-.6 1.1-1.1 2.1-1.6 3.1" class="st7"/><path d="M431.1 890.6c-3 0-5.9.1-8.9.1-1.9-.2-3.8-.4-5.7-.7-.4-.5-.9-.9-1.3-1.4-1.6-2.1-3.3-4.2-4.6-6.5-3.7-6.5-7.2-13.1-10.8-19.6 10.4 9.4 20.8 18.7 31.3 28.1" class="st4"/><path d="M415.2 888.7c.4.5.9.9 1.3 1.4l-36 13.8c-1.5.5-3 1.1-4.5 1.6l-3 .3v-1.7c1.9-1.1 3.6-2.5 5.6-3.2 12.2-4.2 24.4-8.2 36.6-12.2m-129.1 45.4c-3 1.9-6.1 3.9-9.1 5.8-.5 0-1 .1-1.5.2-.5-.5-1.1-1-1.6-1.5 2.5-1.6 5-3.1 7.6-4.7.5-.1.9-.2 1.4-.3 1.1.1 2.2.3 3.2.5" class="st6"/><path d="M376 905.5c1.5-.5 3-1.1 4.5-1.6-.5 1-1 2.1-1.5 3.1-1 0-2 .1-3 .1z" class="st7"/><path d="M359.5 819.8c1.3-.3 2.8-1.2 4-.9 20.2 4.8 40.6 8.9 60.6 14.7 15.2 4.4 29.7 10.9 44.5 16.5 6.4 2.4 12.7 4.8 19.1 7.2 10.1 3.7 20.4 7.1 30.3 11.2 7.4 3.1 14.3 7.5 21.6 10.8 14.1 6.4 28.5 12.2 42.6 18.7 11.6 5.4 22.8 11.4 34.1 17.5 13 7 25.6 14.7 38.7 21.6 8.3 4.4 17.3 7.6 25.5 12.1 9.1 5 17.9 10.4 26.4 16.4 10.3 7.2 19.8 15.6 30.1 22.8 5.7 4 12.1 6.9 18.6 9.6 11.9 4.9 24 9.3 36 14.1 1 .4 1.5 2.3 2.2 3.5l-27.6-8.4c-6-2-12-4.1-17.9-6.1-8.3-3.1-16.5-6.4-24.9-9.3-8.6-3-17.4-5.5-26.1-8.3-10-3.6-20.1-7.1-30.1-10.7-2-.8-4-1.5-6-2.3-2-.6-3.9-1.3-5.9-1.9-1-.4-2.1-.9-3.1-1.3l.2-.7c-1.5-1.9-2.7-5.3-4.4-5.5-13.1-1.9-18.5-14.9-29.4-20-4.2-1.9-8.2-4.3-12.1-6.8-8.8-5.7-17.1-12.4-26.3-17.4-13.6-7.4-27.8-13.6-41.7-20.4-6-2.9-11.8-6.3-18-8.8-13.8-5.7-27.8-11.2-41.8-16.5-9-3.4-18-7.1-27.3-9.5-19.5-5-39.2-9.3-58.9-13.7-1.4-.3-3 .3-4.5.4-1.4-.6-2.8-1.2-4.3-1.8-1.7-1.6-3.4-3.2-5.1-4.9-3.8-5.3-6.3-11.8-13.1-14.3-2.1-2.4-4-5-6-7.6" class="st13"/><path d="M748.1 1001.1c6 2 12 4.1 17.9 6.1-.6.8-1.4 2.3-1.8 2.2-6.9-2.1-13.8-4.3-20.7-6.5 1.5-.6 3.1-1.2 4.6-1.8m-13.8 7.8c-.8.5-1.5 1.3-1.8 1.1-.7-.3-1.2-1-1.7-1.6.6-.3 1.2-.8 1.7-.8.5.1 1 .7 1.8 1.3" class="st1"/><path d="m324.9 785.4 7.6 7.6c-.5 3.7-1.1 7.4-1.6 11-1.2 8.4-9.1 9.4-14.5 12.2-11.8 6-24.3 10.5-36.6 15.7-16.6 7-33.3 14.1-49.9 21.2-15 6.5-30.1 12.8-44.8 19.7-6.6 3.1-12.5 7.8-18.7 11.7-1.1.7-2.1 1.6-3.2 1.8-13.9 3.4-24.8 11.7-35.5 20.8-6.6 5.7-14.9 9.3-22.3 14.2-6.8 4.5-13.9 8.8-20.1 14-11.7 9.7-23.1 19.9-34.3 30.2-6.3 5.8-11.7 12.6-21.5 11.7C34 971.4 37.8 965 43 960c8.9-8.5 18.3-16.6 28-24.1 8-6.2 16.7-11.5 25.2-17.2 1.4-1 3.1-1.6 4.3-2.8 11.9-12.4 28-18.3 42.3-26.9 9-5.4 17.8-11 26.8-16.5 1.4-.9 3.1-1.4 4.7-1.8 6.5-1.4 13.3-2 17.5-8.4.9-1.3 3.5-1.4 5.3-2.2q3.9-1.65 7.8-3.6c7.1-3.7 14-7.6 21.2-11.1 4.6-2.2 9.6-3.6 14.5-5.4 8.7-3.3 17.3-6.6 26-10 1.8-.7 3.6-1.6 5-2.9 7.8-7 14.8-15 23.3-20.9 5.4-3.8 12.8-4.6 19.8-6.9 2.8-3.8 6.5-8.8 10.2-13.9" class="st2"/><path d="M461.5 1035.8c-.6-3-1.1-6-1.7-9.1-.4-5-.9-10-1.3-14.9h3c1.4 8 2.8 16.1 4.2 24.1-1.4 0-2.8 0-4.2-.1" class="st8"/><path d="M475 1059.8c4.7 3.7 4.2 8.5 2.9 13.5-.9-4.4-1.9-8.9-2.9-13.5" class="st11"/><path d="M457 996.9h1.7v2.9c-.1 3.1-.3 6.3-.4 9.4-.9-4.1-1.9-8.2-2.8-12.3q.75-.15 1.5 0" class="st8"/><path d="M458.3 1009.1c.1-3.1.3-6.2.4-9.4.9 4 1.9 8.1 2.8 12.1h-3c-.1-.9-.1-1.8-.2-2.7" class="st12"/><path d="m473.5 1050.8 1.5 6q-.75-2.85-1.5-6m-.2-9c0 2 .1 4 .1 6.1 0-2 0-4.1-.1-6.1" class="st11"/><path d="M359.5 819.8c2 2.6 3.9 5.2 5.9 7.8-3.6 5.4 1 9 3.4 12.5 3.3 4.9 2.2 7.6-2.6 9.8-7.6 3.5-14.9 7.8-22.8 10.3-10.3 3.3-21.1 5-31.7 7.6-4.1 1-8 2.9-12 4-13.5 3.7-27.1 7.1-40.5 11-6.3 1.9-12.3 5.2-18.5 7.4-9.2 3.2-19 5.2-27.7 9.3-12.2 5.7-23.8 12.8-35.6 19.3-7.4 4-15.4 7.2-22.2 12.1-16.7 12.1-33 24.6-48.9 37.6-8.7 7.1-16.3 15.6-25.6 24.6 9.9 4.1 17 1.2 24-2.3 1 0 2-.1 2.9-.1 1-.9 2.1-1.8 3.1-2.7 7.5-2.1 15-4.1 22.4-6.2 1-.1 1.9-.1 2.9-.2 3.1-1.4 6.2-2.8 9.2-4.1 1.9-.1 3.8-.2 5.8-.4 2.7-.5 5.4-.9 8-1.6 8.4-2.3 16.7-4.8 25.1-7.1l3 1.5c-8.5 3-17.1 5.9-25.6 8.9-5.5 2-11.1 3.9-16.6 5.9-1.9.1-3.9.2-5.8.3-29.5 8-59 16-88.6 23.9-5.6-.2-5.3-2.6-2.2-5.9 6.3-6.6 12.8-13.2 19.2-19.7 6.2-6.4 12-13.4 18.9-19 6.3-5.2 13.9-8.8 20.8-13.2.6-.4.9-1.2 1.5-1.7 5.9-5.3 11.4-11.3 17.8-15.7 9.7-6.7 20-12.3 30.1-18.4 11.7-7.1 23.1-14.7 35.2-21 12.3-6.4 25.1-11.8 37.9-17.2 11.3-4.8 22.7-9.7 34.4-13.3 18.7-5.8 37.9-10.2 56.7-15.8 11-3.3 21.6-7.7 32.4-11.8 3.6-1.4 5.7-3.4 3.5-8-1.8-3.9-2.2-8.5-3.2-12.8 2 1.4 4 2.9 6 4.4" class="st5"/><path d="M144.8 984.6c5.5-2 11.1-3.9 16.6-5.9 0 .5.1 1.1.1 1.6-5.5 1.5-11.1 2.9-16.7 4.3" class="st1"/><path d="M452.4 978.8c.1 2 .1 4 .2 6-.1-1.9-.2-3.9-.2-6m4.5 12.1c-.1 1.1-.2 2.1-.3 3.2-1.3-1.1-2.6-2.2-3.9-3.4 1.4.1 2.8.2 4.2.2m.1 6h-1.6c.4-.5.8-1.1 1.1-1.6.2.5.4 1 .5 1.6" class="st9"/><path d="M387.8 848.6c1.5-.2 3.1-.7 4.5-.4 19.6 4.4 39.4 8.7 58.9 13.7 9.3 2.4 18.3 6.1 27.3 9.5 14 5.3 27.9 10.8 41.8 16.5 6.2 2.5 12 5.9 18 8.8 13.9 6.8 28.1 13 41.7 20.4 9.2 5 17.5 11.7 26.3 17.4 3.9 2.5 7.9 4.9 12.1 6.8 10.9 5 16.3 18 29.4 20 1.7.3 3 3.6 4.4 5.5-2.5-.5-5-.9-7.5-1.4-12.1-4.5-24.3-8.9-36.4-13.4-.3-.2-.7-.4-1-.5-4.9-1.5-9.8-2.9-14.7-4.4-.7-.3-1.3-.6-2-.9-1.6-.5-3.2-1-4.8-1.6-3.9-1.4-7.9-2.8-11.8-4.2-1.3-.3-2.6-.5-3.9-.8-.7-.3-1.4-.6-2.1-1l-2.4-.6c-2.1-1.2-4.1-2.8-6.3-3.6-12.7-4.5-25.4-9-38.2-13.2-12.3-4-24.7-7.6-37.1-11.4-1.5-.5-3-1-4.6-1.6l-.5-.2h-.5c-3.2-1.3-6.3-2.6-9.5-3.9l-.3-.2c-6.4-2.3-12.9-4.5-19.3-6.8-1-.3-2-.5-3-.8-.9-.4-1.9-.7-2.8-1.1-.9-.2-1.9-.5-2.8-.7-1.6-.7-3.3-1.3-4.9-2s-3.1-1.5-4.7-2.2c-10.4-9.3-20.9-18.7-31.3-28-4-4.4-8-9.1-12-13.7" style="fill:#fdfcfd"/><path d="M660.9 970.6c2 .8 4 1.5 6 2.3-2-.8-4-1.5-6-2.3m-9.1-3.2c1 .4 2.1.9 3.1 1.3-1-.4-2-.9-3.1-1.3" class="st8"/><path d="M353.5 815.3c1 4.3 1.4 8.9 3.2 12.8 2.2 4.7.1 6.7-3.5 8-10.7 4.1-21.4 8.5-32.4 11.8-18.8 5.6-38 10-56.7 15.8-11.7 3.6-23.1 8.5-34.4 13.3-12.8 5.4-25.7 10.8-37.9 17.2-12.1 6.3-23.5 14-35.2 21-10.1 6.1-20.5 11.7-30.1 18.4-6.5 4.5-11.9 10.4-17.8 15.7-.5.5-.9 1.3-1.5 1.7-7 4.4-14.5 8-20.8 13.2-6.9 5.6-12.6 12.6-18.9 19-6.4 6.6-12.9 13.1-19.2 19.7-3.1 3.3-3.3 5.8 2.2 5.9-.3.7-.4 1.9-.8 2-10.8 2.4-21.6 4.6-32.4 6.9-.5-.6-1-1.1-1.5-1.7 4.6-5.1 9.1-10.3 13.7-15.4 9.4-10.4 18.4-21.1 28.3-30.9 8.7-8.6 18.2-16.4 27.8-24 10-8 20.2-15.6 30.8-22.8 8.1-5.5 17-9.8 25.3-14.9 2.2-1.4 3.7-4 5.9-5.4 5.6-3.6 11.2-7.2 17.1-10.1 11.7-5.7 23.8-10.7 35.5-16.5 7.3-3.6 14.4-7.7 21-12.3 7-4.9 13-5.2 16.7.1 6.5-3.8 12.8-7.6 19.3-11.2 1.2-.7 2.9-1.1 4.1-.8 7.5 1.9 14.4.8 21.7-1.9 17.1-6.3 35.7-9.4 48.8-23.9 1.7-1.9 4.8-2.7 7.3-3.4 6-1.6 6.1-5.4 4.5-10.4-1-3.3-1.6-6.7-2.3-10.1 4.1 4.5 8.2 8.8 12.2 13.2" class="st7"/><path d="M235.1 686.3c-2.3-.9-4.5-1.9-6.8-2.8-6.1-5.9-12.3-11.7-18.4-17.6L195 650.7l-8.1-10.8c.8-.1 1.5-.3 2.3-.4 1.6 1.2 3.3 2.5 4.9 3.7.6.5 1.2.9 1.8 1.4.5.4.9.8 1.4 1.2.9 1.7 1.4 3.7 2.7 5 8 7.5 16.2 14.8 24.3 22.2 3.7 4.4 7.2 8.8 10.8 13.3" class="st21"/><path d="M152.5 674.4c-.6.8-1.2 1.5-1.8 2.3l-.5-.5c.8-.6 1.5-1.2 2.3-1.8m65.9 287.9c1.5-.9 3.1-1.9 4.6-2.8-1.5.9-3 1.8-4.6 2.8m-28.4 7.6 3-1.5z" class="st1"/><path d="M925 1032.9c-2.5-2-4.8-4.4-7.5-5.9-14.2-7.7-28.5-14.9-42.6-22.8-2.4-1.3-3.7-4.8-5.1-7.4-1.5-2.8-1.8-6.7-4-8.6-14.7-13.1-30-25.2-49-32.3-16.9-6.4-33-14.9-49.7-22.1-11.7-5-23.9-9.1-35.7-13.7-12.3-4.8-24.4-9.9-36.7-14.7-30.4-11.9-61.1-23.3-91.3-35.7-34.5-14.2-68.7-29.1-103-43.8-26.3-11.3-52.4-22.7-78.6-34.1-23.7-10.2-47.4-20.2-71-30.6-22.3-9.8-44.8-19.2-66.3-30.4-9.7-5.1-20.4-10.7-25.5-21.9 5.6 1.8 11.5 2.9 16.7 5.4 13.7 6.4 27.1 13.4 40.7 19.9 19.4 9.4 38.9 18.6 58.3 28 9.8 4.8 19.3 10.1 29.2 14.6 13.7 6.2 27.7 11.8 41.5 17.9 21.4 9.4 42.6 19.3 64.2 28.3 21.8 9.2 43.8 17.6 65.8 26.3 29.6 11.7 59 23.5 88.7 34.9 22.9 8.8 46.2 16.6 69.2 25.3 19.7 7.5 39.2 15.4 58.7 23.4 14.6 6 29.1 12.3 43.6 18.8 7.4 3.3 14.5 7.2 21.7 10.9 1.5.6 3 1.1 4.5 1.7.5.5 1 1 1.4 1.5.6 1.4 1.2 2.9 1.7 4.3l1.2 2.4c.6-.6 1.2-1.1 1.9-1.7.4-.1.9-.3 1.3-.4.5.4 1 .9 1.5 1.3 1.5 2 3.1 4 4.6 5.9l3 3 3 3v1.5c1.3 1.7 2.4 3.5 3.9 5 15.7 14.9 31.4 29.8 47.1 44.6-2.4-.8-4.9-1.3-7.4-1.8" style="fill:#fe7272"/><path d="m943 1040.4 1.4 1.4zm1.5 1.5 1.4 1.4zm1.5 1.5c.6.1 1.2.3 1.7.4-.5-.1-1.1-.2-1.7-.4" class="st21"/><path d="M624.8 796.1c4 1.5 8.1 3 12.1 4.5 8.1 3.4 16.2 7.1 24.4 10.2 16.8 6.2 34 11.3 50.3 18.5 7.1 3.2 12.4 10.4 18.5 15.9-4.1-.4-8.3-.4-12.3-1.2-15.7-3.4-31.4-6.7-47-10.6-23.6-5.9-47-12.3-70.5-18.5-10.5-2.8-21.1-5.4-31.5-8.8-10.2-3.3-20.1-7.7-30.3-11.3-14.7-5.3-29.8-9.7-44.3-15.5-38.1-15.2-76.1-30.8-114-46.7-19.9-8.3-39.4-17.5-59-26.5q-22.8-10.5-45.3-21.6c-20.6-10.2-41.1-20.5-61.5-31-1.9-1-3.2-3.1-4.8-4.8 10.6 3.6 21.2 7.1 31.7 10.9 14.5 5.2 29.1 10.2 43.3 16.2 10 4.2 19.2 10.2 29.1 14.8 27 12.4 54.1 24.8 81.4 36.6 15.9 6.9 32.2 13 48.5 19 16.2 5.9 32.4 11.8 48.9 16.6 25 7.2 50.1 13.7 75.3 20.1 16.7 4.2 34.3 5.1 50.3 12.3 2 .9 4.4.7 6.7.9" style="fill:#cb3de8"/><path d="M857.4 962.4c-7.2-3.6-14.3-7.6-21.7-10.9-14.4-6.5-29-12.8-43.6-18.8-19.5-8-39-15.9-58.7-23.4-23-8.7-46.3-16.5-69.2-25.3-29.7-11.3-59.2-23.2-88.7-34.9-22-8.7-44-17.1-65.8-26.3-21.5-9.1-42.7-18.9-64.2-28.3-13.8-6.1-27.8-11.6-41.5-17.9-9.9-4.5-19.4-9.9-29.2-14.6-19.4-9.4-38.9-18.6-58.3-28-13.6-6.6-27-13.6-40.7-19.9-5.3-2.4-11.1-3.6-16.7-5.4-3.5-3.1-7-6.2-10.5-9.4 1.7-.5 3.8-2 5.1-1.5 4.7 2.1 9.1 5 13.7 7.3 15.9 7.6 31.8 15.1 47.7 22.6 12.1 5.7 24.1 11.6 36.4 16.9 15.1 6.6 30.6 12.5 45.7 19.2 20.8 9.2 41.2 19.3 62.1 28.2 21.3 9.1 42.9 17.3 64.4 25.7 33.4 12.9 66.8 25.8 100.4 38.2 35.2 13 70.6 25.4 106 38 17.5 6.3 35.1 12.5 52.7 18.6 9.8 3.3 19.8 6.1 29.8 9.2 5.4 4.6 10.6 9.4 16.2 13.8 2.8 2.2 6.1 3.9 9.1 5.8 4 4 8.1 7.9 12.1 11.9l1.5 1.5 1.5 1.5 4.5 4.5c-.1.7-.1 1.2-.1 1.7" class="st21"/><path d="M235.1 686.3c-3.6-4.5-7.1-8.9-10.7-13.4 6.6 2.8 13.3 5.2 19.7 8.3 24.2 11.9 48.1 24.5 72.6 35.9 24.9 11.6 50.4 22 75.6 33 23.5 10.2 46.9 20.8 70.5 30.6 14.9 6.2 30.3 11.2 45.3 17 15.5 6 30.8 12.7 46.4 18.4 18.6 6.7 37.5 12.7 56.3 18.9 26.4 8.8 52.7 17.8 79.1 26.3 15.3 5 30.9 9.2 46.4 13.9 11.9 3.6 24.3 6 35.4 11.3 8 3.8 14.1 11.4 21.1 17.4-7.3-2-14.7-3.9-21.9-6.2-20.4-6.4-40.9-12.8-61.2-19.3-12.2-3.9-24.4-8-36.7-12-8.6-2.8-17.4-5.4-25.9-8.5-14.5-5.4-28.9-11.4-43.4-16.7-26.5-9.8-53.2-18.9-79.6-29-18.7-7.1-37-15.4-55.5-23.1-16.9-7.1-34.1-13.7-50.8-21.2-23.1-10.3-45.9-21.2-68.9-31.6-12.4-5.6-25.2-10.3-37.5-16.1-19.2-9.1-38-19-57.2-28.1-6-2.8-12.7-3.8-19.1-5.7.1-.1 0-.1 0-.1" style="fill:#f83fad"/><path d="M235.2 686.3c6.4 1.8 13.2 2.9 19.1 5.7 19.2 9 38 19 57.2 28.1 12.3 5.8 25.1 10.5 37.5 16.1 23 10.4 45.8 21.4 68.9 31.6 16.8 7.5 33.9 14.1 50.8 21.2 18.5 7.7 36.8 16 55.5 23.1 26.4 10.1 53.1 19.2 79.6 29 14.5 5.4 28.9 11.3 43.4 16.7 8.5 3.2 17.2 5.7 25.9 8.5 12.2 4 24.4 8.1 36.7 12 20.4 6.5 40.8 13 61.2 19.3 7.2 2.3 14.6 4.1 21.9 6.2l19.5 18c-9.9-3-19.9-5.8-29.8-9.2-17.6-6-35.1-12.3-52.7-18.6-35.3-12.6-70.8-25-106-38-33.6-12.4-67-25.3-100.4-38.2-21.6-8.3-43.2-16.6-64.4-25.7-20.9-8.9-41.3-19-62.1-28.2-15.1-6.7-30.6-12.6-45.7-19.2-12.3-5.4-24.3-11.3-36.4-16.9-15.9-7.5-31.9-15-47.7-22.6-4.7-2.2-9-5.2-13.7-7.3-1.2-.5-3.4.9-5.1 1.5-4.3-4.3-8.7-8.7-13.2-13.1" style="fill:#fe5199"/><path d="M196 644.5c-.6-.5-1.2-.9-1.8-1.4.6.5 1.2.9 1.8 1.4" class="st17"/><path d="M868.1 970.5c-.6.6-1.2 1.1-1.9 1.7l-1.2-2.4c1 .3 2.1.5 3.1.7" class="st21"/><path d="M227 750.1c-2.6.9-3.8 1.8-4.9 1.6s-2.3-1.2-3-2.2c-.2-.3 1.2-2.4 1.8-2.4 1.1-.1 2.2 1 6.1 3M97.5 810.7c-.6-1.6-1.2-3.1-1.9-4.7l2.1-.9 2.4 4.5c-.9.3-1.8.7-2.6 1.1" class="st0"/><path d="M376 905.5v1.6c-3 1.4-6 2.9-9 4.3l1.5-3c.4-.1.9-.1 1.3-.1 1.1-.8 2.1-1.6 3.1-2.5 1.1-.1 2.1-.2 3.1-.3" class="st1"/><path d="M484 909.9c12.4 3.8 24.8 7.4 37.1 11.4 12.8 4.2 25.5 8.7 38.2 13.2 2.2.8 4.2 2.4 6.3 3.6-19.6-6.3-39.3-12.5-58.8-19.1-7.8-2.7-15.3-6.1-22.8-9.1m-34.8-12.5c6.4 2.3 12.9 4.5 19.3 6.8-6.4-2.3-12.8-4.6-19.3-6.8m124.7 43c3.9 1.4 7.9 2.8 11.8 4.2-3.9-1.4-7.9-2.8-11.8-4.2m-105-36.1c3.2 1.3 6.3 2.6 9.5 3.9-3.2-1.3-6.4-2.6-9.5-3.9m-33.1-11.5c1.6.7 3.3 1.3 4.9 2-1.7-.7-3.3-1.3-4.9-2m43.6 15.5c1.5.5 3 1 4.6 1.6-1.5-.5-3.1-1-4.6-1.6m-36-12.8c.9.4 1.9.7 2.8 1.1-.9-.4-1.8-.8-2.8-1.1m147 50.6c.7.3 1.3.6 2 .9-.7-.3-1.3-.6-2-.9m-22.5-7.5c.7.3 1.4.6 2.1 1-.7-.3-1.4-.7-2.1-1m39.2 12.8c.3.2.7.4 1 .5-.4 0-.7-.2-1-.5m-324.2-17.9c-.5.1-.9.2-1.4.3l-10.5 3.3c-1.5.5-3 .9-4.4 1.4-8.7 2.4-17.3 4.8-25.9 7.4-1.1.3-1.7 2-2.5 3l.1.2c-1-.1-2.1-.2-3.1-.3-1 .5-2.1 1-3.1 1.5-.1.4-.2.9-.1 1.3-1.9.3-3.8.6-5.7.8-2.5.9-4.9 1.7-7.4 2.6-1.5.5-3 1.1-4.6 1.6l-3-1.5c-.6-4.2 1-6.7 4.9-8.9 20.2-11.4 42.2-18.6 63.7-26.7 10.8-4 22.8-4.7 34.3-6.6 3-.5 6.2.5 9.4.8.1.8.2 1.5.3 2.3-2.5 1.4-4.8 3.1-7.5 4-8.9 3.3-17.9 6.2-26.7 9.5-2.6.9-4.6 2.7-6.8 4" class="st4"/><path d="m211 955.1 3 1.5-21.9 8.7c-2.7 1.1-5.5 2-8.2 3-8.4 2.4-16.7 4.8-25.1 7.1-2.6.7-5.3 1.1-8 1.6 5-2.4 10-4.8 15.1-7.2 14.7-4.3 29.4-8.5 44.1-12.9.6 0 .7-1.1 1-1.8" class="st9"/><path d="M238.1 948.9c.8-1 1.5-2.7 2.5-3 8.6-2.6 17.3-5 25.9-7.4l-1.5 3c-8.9 2.5-17.9 4.9-26.9 7.4m32.9-11.7 10.5-3.3c-2.5 1.6-5 3.1-7.6 4.7-.9.1-1.9.3-2.8.4 0-.6-.1-1.2-.1-1.8" class="st8"/><path d="M271 937.2c0 .6.1 1.2.1 1.8-2 .8-4 1.7-6 2.5l1.5-3c1.4-.4 2.9-.9 4.4-1.3" class="st6"/><path d="M218.6 955c2.5-.9 4.9-1.7 7.4-2.6-2.4.9-4.9 1.7-7.4 2.6" class="st8"/><path d="M231.7 951.6c0-.4 0-.9.1-1.3 1-.5 2.1-1 3.1-1.5 1 .1 2.1.2 3.1.3-2 .8-4.1 1.7-6.3 2.5" class="st9"/><path d="M211 955.1c-.3.7-.5 1.8-.9 1.9-14.7 4.4-29.4 8.6-44.1 12.9 1.4-3.2 1.9-7.4 4.3-9.3 5.6-4.4 12.1-7.7 18.3-11.3 13.3-7.7 26.2-16.4 40.1-22.9 16.5-7.6 33.6-14.3 51-19.5 17.9-5.2 36.3-9 54.8-11.6 10.9-1.5 22.3.5 33.5 1.1 1.5.1 3 1.4 4.6 2.1-1 1.9-1.7 3.4-2.5 4.9-6.6 3-13.2 6-19.8 8.9-1.4.2-2.7.4-4.1.5-18.1 6-36.2 12.1-54.2 18.2-.7.2-1.1 1.5-1.7 2.3-1.4.2-2.7.4-4.1.6l-3.3-.6c2.2-1.4 4.2-3.1 6.6-4 8.9-3.3 17.9-6.2 26.7-9.5 2.6-1 5-2.7 7.5-4-.1-.8-.2-1.5-.3-2.3-3.1-.3-6.4-1.2-9.4-.8-11.5 1.8-23.5 2.6-34.3 6.6-21.6 8-43.5 15.3-63.7 26.7-3.9 2.4-5.6 4.9-5 9.1" class="st12"/><path d="M290.2 933.5c.6-.8.9-2 1.7-2.3C310 925.1 328 919 346.1 913c-4.7 2.3-9.3 5.1-14.2 6.8-13.8 4.8-27.8 9.2-41.7 13.7m60-21c6.6-3 13.2-6 19.8-8.9.1.2.1.5.2.7l-.3 3.9c-.4 0-.9 0-1.3.1-6.2 1.4-12.3 2.8-18.4 4.2" class="st6"/><path d="M370 903.6c.8-1.5 1.5-3 2.5-4.9-1.6-.8-3-2-4.6-2.1-11.2-.6-22.6-2.6-33.5-1.1-18.4 2.6-36.9 6.4-54.8 11.6-17.4 5.1-34.5 11.8-51 19.5-13.9 6.4-26.8 15.1-40.1 22.9-6.2 3.6-12.7 6.9-18.3 11.3-2.4 1.9-2.9 6.1-4.3 9.3-5 2.4-10 4.8-15.1 7.2-1.9.1-3.8.2-5.8.4-3.1 1.4-6.2 2.8-9.2 4.1-1 .1-1.9.1-2.9.2-1.9-.9-3.8-1.8-7.4-3.4 5.5-4.8 10-9.1 14.9-12.9 18.5-14.5 36.8-29.4 58.3-39.6 12.3-5.8 24-12.8 36.5-18.1 10.3-4.4 21.3-7.5 32.2-10.4 20.7-5.6 41.3-11.9 62.4-15.6 18.4-3.3 37.4-3.2 56.1-5.1 3.1-.3 6.6-2.1 8.8-4.4.8-.8-1.5-5.1-2.9-7.4-1.4-2.2-3.5-4-5.3-6l-1.5-3c-1-1-2-2-2.9-3 0-.5-.1-1-.1-1.5.5-1.6 1.1-3.1 1.6-4.7 1.4.6 2.8 1.2 4.3 1.8 4 4.7 8 9.3 12 14 3.6 6.6 7.1 13.2 10.8 19.7 1.3 2.3 3.1 4.3 4.6 6.5-12.2 4-24.4 8-36.6 12.2-2 .7-3.8 2.1-5.6 3.2-1 .1-1.9.2-2.9.2-.1-.4-.2-.7-.2-.9" class="st8"/><path d="M370.1 904.3c1-.1 1.9-.2 2.9-.2v1.7c-1 .8-2.1 1.6-3.1 2.5 0-1.4.1-2.7.2-4" class="st7"/><path d="M381.9 851.4c0 .5.1 1 .1 1.5 1 1 2 2 2.9 3l1.5 3c-2.5 2.9-4.6 7.4-7.7 8.4-5.6 1.8-12 1.3-18 2-11.9 1.3-23.9 2.3-35.6 4.4s-23.1 5.4-34.6 8.4c-3.8 1-7.4 2.5-11.2 3.5-9.1 2.4-18.5 3.8-27.3 7.1-10.7 3.9-21 9.3-31.4 14.1-9.4 4.3-19 8-28 13.1-11 6.2-21.4 13.5-32 20.4-11.9 7.7-24.1 15.1-35.3 23.6-7.4 5.6-13.6 12.8-20 19.7-1.3 1.4-.7 4.7-.9 7.1-7 3.6-14.1 6.4-24 2.3 9.3-9 16.9-17.4 25.6-24.6 15.9-13 32.3-25.5 48.9-37.6 6.8-4.9 14.8-8 22.2-12.1 11.9-6.5 23.4-13.6 35.6-19.3 8.8-4.1 18.5-6.1 27.7-9.3 6.3-2.2 12.2-5.5 18.5-7.4 13.4-4 27-7.3 40.5-11 4.1-1.1 7.9-3 12-4 10.5-2.6 21.4-4.4 31.7-7.6 7.9-2.5 15.2-6.8 22.8-10.3 4.8-2.2 5.9-4.9 2.6-9.8-2.4-3.5-7-7.1-3.4-12.5 6.8 2.5 9.3 9 13.1 14.3-4 5.2.4 7.2 3.7 9.6" class="st6"/><path d="M381.9 851.4c-3.3-2.4-7.7-4.4-3.5-9.5 1.7 1.6 3.4 3.2 5.1 4.9-.5 1.5-1 3-1.6 4.6M104.5 990.7c.2-2.4-.4-5.7.9-7.1 6.3-6.9 12.5-14.1 20-19.7 11.3-8.5 23.5-15.9 35.3-23.6 10.6-6.9 21-14.2 32-20.4 8.9-5 18.6-8.8 28-13.1 10.4-4.8 20.6-10.1 31.4-14.1 8.8-3.2 18.2-4.7 27.3-7.1 3.8-1 7.4-2.6 11.2-3.5 11.5-2.9 22.9-6.3 34.6-8.4s23.7-3 35.6-4.4c6-.7 12.3-.2 18-2 3.2-1 5.2-5.5 7.7-8.4 1.8 2 3.9 3.8 5.3 6 1.4 2.3 3.7 6.6 2.9 7.4-2.2 2.2-5.7 4.1-8.8 4.4-18.7 1.8-37.7 1.8-56.1 5.1-21 3.7-41.7 10-62.4 15.6-10.9 2.9-21.9 6-32.2 10.4-12.5 5.3-24.2 12.3-36.5 18.1-21.5 10.1-39.7 25.1-58.2 39.6-4.9 3.8-9.4 8.1-14.9 12.9 3.6 1.6 5.5 2.5 7.4 3.4-7.5 2.1-15 4.1-22.4 6.2-1 .9-2.1 1.8-3.1 2.7zm31.4-9.1c3.1-1.4 6.2-2.8 9.2-4.1-3 1.4-6.1 2.7-9.2 4.1" class="st9"/><path d="M107.4 990.6c1-.9 2.1-1.8 3.1-2.7-1 .9-2 1.8-3.1 2.7" class="st6"/><path d="M235 948.8c-1 .5-2.1 1-3.1 1.5 1-.5 2.1-1 3.1-1.5" class="st8"/><path d="M385 855.9c-1-1-2-2-2.9-3 .9 1 1.9 2 2.9 3" class="st9"/></svg>