<svg xmlns="http://www.w3.org/2000/svg" xml:space="preserve" id="Ebene_1" x="0" y="0" viewBox="0 0 1920 1080"><style>.st0{fill:#181818}.st1{fill:#1a1a1c}.st2{fill:#e7e7e7}.st3{fill:#1b1c1e}.st4{fill:#1b1d1f}.st6{fill:#1c1e21}.st7{fill:#1d1f22}.st8{fill:#272727}.st9{fill:#6144f3}.st10{fill:#3683ee}.st11{fill:#e9ebe9}.st12{fill:#8341f7}.st13{fill:#e7e9e8}.st14{fill:#ced3cd}.st15{fill:#c6c6c6}.st16{fill:#21252b}.st17{fill:#018442}.st18{fill:#1e2024}.st20{fill:#aeb6be}.st21{fill:#839098}.st22{fill:#1f2126}.st25{fill:#fdfdfd}</style><path d="M0 444.8V0h1638.2c-1.5 1.5-2.8 3.5-4.5 4.3-13.4 6.6-22 25.1-19.7 42.9 2.5 19.7 15 34.3 29.9 34.3 75.5.1 151 .1 226.6 0 14.9 0 27.4-14.6 29.9-34.3 2.3-17.8-6.3-36.3-19.7-42.9-1.7-.8-3-2.9-4.5-4.3h43.9v411.2c-1.8-1.4-4-2.3-5.2-4.3-3-5-5.9-6.3-10.4-3.2-7.5 5.2-15.4 9.6-23.1 14.5-6.7 4.2-9 3.6-13.3-4.5-3.1-5.9-6.4-11.8-8.8-18.2-6.3-17.4-18.1-24.5-31.2-28.8-9.8-3.2-19.7-5.5-29.7-7.8-2.5-.6-5.2.1-7.7.9-9.8 3.4-19.5 7-29.3 10.6-3.8 1.4-6.7.9-9.4-4-5.3-9.8-12.6-17-21.9-18.6-11.4-2-22.9-2.6-34.4-3.8-5.3-.5-10.7-.9-16-1.3-2-.2-4.1-.3-6.1-.3-23.5 1-47 2.9-70.4 3-98.2.3-196.3.1-294.5.3-2.8 0-5.5 1.9-8.3 2.9-.4-.1-.8-.2-1.3-.3-.4-.1-.7-.2-1.1-.2-.8 0-1.7.1-2.5.1-3.3-.9-6.6-2.5-9.9-2.5-182.9-.1-365.9-.1-548.8-.1v-19.5c1.3.6 2.2 1.1 3.1 1.5 16.6 6.8 30.5-7.8 27.3-32.3-2.3-17.1-16.8-25.1-28.9-16.7-.7-.4-1.4-.8-2.1-1.1-3.8-.1-7.7-.2-11.5-.4-.4 2.7-1.1 5.5-1.2 8.2-.1 20.1-.1 40.2-.1 60.3-147-1.9-294 3.8-441.1-2.9-19.1-.9-38.4-2.5-57.7 2.4-9.7 2.4-20.1 0-30.1.6-14.1.9-26.6 6.3-35.1 22.7-1.2 2.4-4.9 3.7-7.5 3.6-11.5-.5-23-1.5-34.5-2.5-6.8-.6-13.7-1.5-20.5-2.7-17.6-3-35.8 2.2-44.2 27.3-1.9 5.8-4.6 11.2-7.4 16.4-2.5 4.7-5 10.6-8.6 12.9-12 8-24.4 14.4-36.7 21.4M691.6 38.3c-.4-.3-.7-.6-1.1-.8-.9-.1-1.7-.1-2.6-.2-.6.4-1.2.8-1.9 1.1l-1.8 2.4c-.5-.2-.9-.5-1.4-.7-2.1-1.3-4.2-2.6-6.8-4.2v15.2c2-.9 2.6-2.5 3.3-4 1.1-2.3 2.4-4.6 3.6-6.9.4.3.8.5 1.3.8-1.8 5.3-.7 8.9 3.8 10.2h2.4c.4-.1.8-.1 1.2-.2.8-1.1 1.6-2.1 2.5-3.2 3.5 1.5 7 3 10.4 4.6.6-1 1.3-2 1.9-3-1.5-4.1-3-8.1-4.6-12.2-2.2 1.5-4.5 3-6.7 4.5-1.2-1.1-2.3-2.2-3.5-3.3.1 0 0-.1 0-.1M55.7 39.8c.1-2.4.4-4.8.1-7.1-.2-1.4-1.4-2.6-2.1-3.9-.8 1.4-2.2 2.6-2.4 4.1-.3 2.8 0 5.8.1 8.7.7 3.2 1.5 6.5 2.2 9.7.8-3.3 1.5-6.6 2.2-10 .2-.4 0-1-.1-1.5m445.6 10.8c.7-.8 1.6-2.6 2.2-2.4 3.3 1.1 6.4 2.6 9.6 3.9.6-.9 1.1-1.9 1.7-2.8-1.4-4-2.3-8.4-4.3-11.6-.8-1.2-4.1.4-6.3.7.1.7.2 1.5.3 2.2 1.8.2 3.6.3 6.7.6-3.9 2.2-6.4 3.6-8.9 4.9l-.9-5.4c-3.1-2.7-6.1-5.4-9.3-8.2V51c1.6-1.4 1.6-3.1 2.1-4.6.7-2.1 1.8-4 2.7-5.9.7 1.9 1.3 3.9 2.1 5.7.6 1.7 1.5 3 2.3 4.4M38 44.7c0-4.2 0-8.4-.2-12.6-.1-1.2-1.2-2.2-1.8-3.3-.9 1-2.7 2-2.7 3 0 4.9.5 9.8.9 14.7 1.5 6.4 5.7 6 8.8 4.4 2.1-1.1 3.7-5.4 4.5-8.7.7-2.8.4-6.3.1-9.4-.1-1.4-1.3-2.6-2-3.9-.9 1.4-2.4 2.6-2.6 4.1-.4 2.8-.1 5.8-.1 8.7-.1 5.1-1.8 6-4.9 3m675.7-4.9c-1.3-2.1-2.5-4.1-3.9-6.3-4.5 5.7-1.1 11.1-.5 16.2.1.8 2.8 1 4.2 1.5.1-1 .1-2.1.2-3.1 1.4.8 2.7 2.4 4.1 2.4 2.6 0 5.8.2 7.5-1.7 1.2-1.3 1.2-7.3 0-8.7-1.6-1.9-4.8-1.7-7.4-1.9-1.4-.1-2.8 1.1-4.2 1.6m806.2-34.7c-13.5-.1-27.1-.7-40.6-.1-11 .5-19.2 8-23.8 21.1-4.7 13.3-3.8 26.3 3.5 37.9 4.8 9.4 11.9 13.8 20.1 14.2 10.3.5 20.7 0 31.1-.1 20.9.1 41.7.5 62.6.2 13.8-.3 22.5-12.2 26.1-34.2 2-12.4-4.8-28.2-15.1-34.8-3.6-1.5-7.2-4.1-10.9-4.2-17.7-.4-35.3-.1-53 0M689.3 329.4c15.5.6 27.5-15.1 27.5-34.7.1-23.4-13.5-35.4-28.2-35.3-16.1 0-28 15-27.9 35.1 0 20.5 11.8 34.9 28.6 34.9m530.4-68.3v12.8c-.1 9.6.3 19.2-.3 28.8-.5 8.8-4.4 12.7-10.9 12.7s-9.7-3.5-10.7-12c-.4-3.7-.5-7.4-.5-11.1-.1-10.3 0-20.7 0-31.2h-12.1V298c0 2.9.1 5.9.5 8.8 1.7 13.9 9.9 22.4 21.7 22.9 12.2.5 22.2-7.1 23.3-20.9 1.3-15.7.3-31.6.3-47.5-3.5-.2-7.1-.2-11.3-.2m-324 60.6c11.4 8.1 22.5 10.9 34.2 4.1 5.9-3.4 9-9.9 8.8-18.4-.2-8.6-4.2-13.6-10.1-16.1-4.6-2-9.5-2.8-14-5.2-2.2-1.2-3.8-4.6-5.7-7 2.1-2.2 3.9-5.1 6.3-6.3 2.1-1 4.8-.5 7.2.1 3.5.9 6.9 2.5 10.6 3.9 1.2-3.8 2.3-7.4 3.6-11.6-10.6-6.7-20.8-8.5-31.3-2.2-5.6 3.4-8.5 9.7-8.5 17.9s3.6 13.4 9.2 16.2c3.7 1.9 7.8 2.8 11.6 4.5 3.6 1.6 9.6 1.3 8.7 8.4-1.1 7.7-7 6.3-11.6 6.2-1.2 0-2.4-.5-3.6-1-3.8-1.6-7.5-3.3-11.4-5.1-1.4 3.9-2.5 7.2-4 11.6m-82.6-14.8c1.6-16.9-3.1-26.9-14.2-30.7-9.9-3.4-22.7 4.1-26.1 15.4-3 9.8.9 27.5 7.3 32.8 9.8 8.1 24.1 6.1 30.8-4.3-2.9-5.9-5.5-9.8-11.8-4.8-5.9 4.6-11.7.5-14.4-8.4zm340.6 13.6c-2-2.9-4-5.8-5.9-8.6-10.6 7.7-17.7 6-20.4-5.2h28.5c1.5-15.1-3.2-25.8-13-30-10.2-4.3-21 .8-25.8 12.2-4.7 11.3-2.5 27.1 5.6 35.4 6.1 6.4 22.3 8 31-3.8m-320.6 7.4c0-10-.2-19.2.1-28.5.2-6.5 4.6-11.3 9.4-10.2 4.3 1 6.9 4.3 6.6 11-.4 9.2-.1 18.4-.1 27.6h12.5c0-11.4.4-22.6-.1-33.7-.5-11.4-6.4-18.7-15.2-18.6-4.3 0-8.6 2.1-12.8 3.3.1-.4.2-.7.3-1.1-4-.5-8-1.1-12.3-1.6v51.8zm110-25.8c0 16.1 9.5 27.2 22.9 27 11.7-.2 20.8-12.2 20.7-27.1-.1-15.5-9.3-26.7-21.8-26.7-12.6 0-21.9 11.4-21.8 26.8m90.2 26.6V277h-11.2c0 8.8.2 17.1 0 25.3-.2 8.7-3.5 13.1-9 13-5.4-.1-7.6-3.9-7.7-13.2-.1-8.4 0-16.9 0-25.1h-11.6c0 11-.3 21.4.1 31.7.5 14.3 8.9 22.6 19.7 19.8 2.9-.7 5.7-2.6 8.5-3.9-.1.6-.2 1.3-.3 1.9 3.5.7 7.1 1.4 11.5 2.2m70.2-19.2c-7 7.9-12.3 8.8-16.7 2.9-3.7-4.9-3.7-15.5.1-20.5 4.4-5.9 9.5-5.1 16.7 2.9 2.7-1.9 5.4-3.9 8.1-5.9-4.7-11.3-13.3-16-23-12.9-10.6 3.3-16.5 12.5-16.6 25.7-.1 12.8 5.6 22.8 14.7 26.1 10.8 3.8 19.9-.5 24.9-12.2-2.7-2-5.5-4.1-8.2-6.1m-47.4 18.1V309c0-16 .7-17.2 12.4-20.4v-14.3c-4.4 1.9-8.2 3.6-12 5.2.1-.5.2-1.1.3-1.6l-12.3-1.8v51.5zm187.4-66.6v66.5h11.5V261zM321 38.5h-21.9V51c.5.3 1 .5 1.5.8 1.4-3.8 2.8-7.7 4.2-11.5l1.5.6c.2 5.4.8 11.4 6 10.2 2.6-.6 4.7-4.7 7.1-7.3.7 1.5 2.2 4.8 4 8.9 1.8-3.2 2.9-5.2 3.8-6.9 1.4 2.1 2.5 3.8 3.7 5.5 1.7-2.9 3.4-5.8 6-10.1.3 3.9.5 6.7.8 10.9 3.2-1.1 6.4-2.1 9.6-3.2-.1.4-.2.7-.3 1.1h9.5c-.1-3.9 3.3-8.4-1-11.6-5.7-4.1-7.7 1.4-9.5 6.7-2.2-1.3-3.9-2.3-6.7-4 2.8-.6 4.4-.9 5.9-1.2-1.8-2.2-3.6-2.6-5.4-2.6-2 0-4 .4-6 .6-.8 2.2-1.6 4.4-2.5 7-1.4-3.1-2.5-5.6-4.1-9.2-1.5 3.6-2.5 5.9-3.8 8.9-1.2-2.9-2-4.9-2.4-6.1m230.2 7.3c.4-.1.9-.2 1.3-.3.6 3.3 1.3 6.5 2.1 10.7 1.9-.2 5 .7 6.8-.9 1.9-1.7 2.5-5.9 3.4-8.2 2.2 1.4 4.6 4.3 6.6 4 3.6-.6 6.9-1 10.5.1 1.4.4 3.4-2.3 5.1-3.7-1.3-1.5-2.7-3.1-4-4.6-.5-.5-1-1-2.2-2.1 2.4-.4 4-.7 5.6-.9-.1-1-.3-2-.4-3-3.1.9-6.1 1.8-10 3-3.3-5.2-7.3-4.1-10.9 2.5-2.8-7.6-8-7.5-12.6-1.7-4.6-1.6-8.3-2.9-12.9-4.6.2 6.4.4 10.8.6 15.2.7-.1 1.5-.2 2.2-.3.2-2 0-4.1.6-5.9.5-1.6 1.7-2.9 2.6-4.3.7 1.4 1.6 2.7 2 4.2.4 2 .4 4.1.6 6.2.5 0 .9.1 1.4.1.4-1.7 1-3.6 1.6-5.5m-106.8-8.3c-3-6.1-7.2-6.2-10.1-1.8-1.7 2.5-2.3 8.2-1.2 11.2 1.9 5.9 6.3 5.6 10.5 3.6.9-.4 1.7-1.7 2.5-1.6 5.8.8 11.6 2.3 17.4 2.5 2.1.1 4.2-2.8 6.3-4.3-1.5-2.1-2.8-4.3-4.4-6.2-.9-1.1-2.2-1.6-4.9-3.4 4-.5 6.1-.8 8.3-1.1-2.7-4.1-6.5-5.3-8.6-1.6-5.7 9.8 5.5 7 6.2 12.4-8.1 4.6-10.2-8.1-16.7-7.8.1-.7.3-1.3.4-2 2.2-.5 4.4-.9 6.6-1.4-.1-1-.2-2.1-.4-3.1-3 .7-7.5.1-8.6 2.4-4.7 9.3 5.5 6.5 6.6 12.7-5.3 0-10.4.4-15.3-.3-1.4-.2-3.6-3.8-3.5-5.8.1-1.8 2.4-4.2 4.1-5.1 1.2-.7 3.1.4 4.8.7m426.4 257.3v12h20.1v-12zM126 45c.2-1.1.3-2.2.5-3.3h9.7c.1-6.9-1.1-11.9-6.4-12.8-4.5-.8-7.5 2.3-8.6 7.9-1.2 5.9-.2 11.5 4.5 14 3.6 1.9 7.2 1.4 10.4-3.9-4-.8-7-1.4-10.1-1.9m-35.2-2.9c.2-7.5-1.1-12.5-6.5-13.3-4.5-.7-7.5 2.5-8.5 8.1-1 5.9-.2 11.6 4.7 13.9 3.5 1.6 7.2 1.6 10-4-3.9-.7-6.9-1.3-9.9-1.9l.3-2.7c3.1-.1 6.2-.1 9.9-.1m193.9 10.5c4.4-1.5 9-1.6 11.8-4.5 1.5-1.6 1.1-10-.7-12-2.6-2.9-7.1-2.7-11.1-3.9zm-179.6-7.8c-.3.8-.6 1.6-.8 2.4 2 1.4 4.2 4.3 6 4 2.8-.4 6.9-2.1 7.8-4.8 1.8-5-1.9-7-5.2-8.3-1.3-.5-2.4-1.7-3.6-2.6.2-.6.3-1.2.5-1.7 2.8.5 5.5 1 9.7 1.7-5-7.3-10.7-8.9-13-4.3-5.5 11.1 5 9.1 8.6 15.8-4.4-1-7.2-1.6-10-2.2M61.5 28.3c-.9.7-1.8 1.4-2.6 2.1 1.6 6.2 2.9 12.5 4.9 18.5.4 1.1 4.5 1.5 4.6 1 2.1-6.6 3.8-13.4 5.7-20.1-1-.6-2-1.1-2.9-1.7-1.6 4.2-3.2 8.5-4.7 12.3-1.7-4-3.4-8-5-12.1m463.1 6v14.2c.3-.7.6-1.4.8-2.2.9 1 1.8 2.8 2.8 3 2.6.6 5.2.6 7.9.9.1-3.5 1.4-8.4.1-10.2-1.4-1.9-5.1-1.3-7.8-1.1-.9.1-1.8 2-3.2 3.7-.2-3.3-.3-5.4-.6-8.3M93.1 40.1c0 1.3-.3 2.8.1 3.9.7 2.5 1.8 4.9 2.7 7.3.9-2.5 2.2-4.9 2.5-7.5.5-4-.7-8.6 3.9-9.8.5-.1.6-3 .9-4.5-2.8-.1-5.6-.6-8.4-.2-.7.1-1.4 2.8-1.7 4.4-.2 2.1 0 4.3 0 6.4m581.8-3.8c-5-5.1-9.2-4.9-12.4.6-2.8 4.7-2 9.9 1.9 13.1 3.3 2.7 6.7 2.4 9.6-2.2-3.8-.5-9.2 3.1-9.4-5.3-.3-9.5 6.2-3.8 10.3-6.2M489.9 47c-4.7 0-9.8 3.8-10.4-3.9-.8-10.3 6.2-4.3 9.6-6.4-4.1-4.8-8.1-5.2-11-1-2.9 4.1-2.9 8.7-.1 12.9 2.7 4.1 7 3.9 11.9-1.6m255.7-6.6c-6-4.9-6-4.9-9.4 9.9.8.3.8.3 3.6-9.9z" class="st0"/><path d="M1300.3 348.6c2.8-1 5.5-2.9 8.3-2.9 98.2-.2 196.3.1 294.5-.3 23.5-.1 47-2 70.4-3 2-.1 4.1.1 6.1.3 5.3.4 10.7.8 16 1.3 11.5 1.2 23 1.8 34.4 3.8 9.3 1.6 16.6 8.8 21.9 18.6 2.7 5 5.6 5.4 9.4 4 9.8-3.6 19.5-7.2 29.3-10.6 2.5-.8 5.2-1.5 7.7-.9 9.9 2.3 19.9 4.5 29.7 7.8 13.1 4.3 24.9 11.3 31.2 28.8 2.3 6.4 5.6 12.3 8.8 18.2 4.3 8.1 6.7 8.7 13.3 4.5 7.7-4.8 15.5-9.3 23.1-14.5 4.5-3.1 7.5-1.8 10.4 3.2 1.2 2 3.4 2.9 5.2 4.3v120c-3.3-3.3-7.1-6-9.8-10-5-7.7-8.8-16.5-13.8-24.2-8.1-12.4-17-23-29.6-27.9-28-10.8-55.8-22.5-83.6-33.7-11.1-4.5-21.3-13.5-33.8-11.4-7.8 1.3-15.6 2.3-23.5 2.8-3.7.3-7.7-.1-11.2-1.7-5.3-2.4-10.2-6.4-15.5-9.1-10.3-5.1-20.2-12.1-31.9-11.4-23.9 1.5-47.7 3-71.6 3.2-59.7.4-119.4.1-179.2.1V385h9.1v-11.9c-3.3-.2-6.2-.4-9-.5-.2-4.5-.4-8.1-.6-11.6h-11.3c-.2 4.2-.4 7.8-.6 11.3-2.1.5-3.8.9-5.4 1.3v11.2c2.1.4 3.8.7 5.4 1.1v22c-2.5 1.1-5 2.3-7.5 3.4-4.5-2.7-8.5-8.8-13.8-1.7-4.1 5.4-8.2 2.3-11.6-1.7-3.3-3.9-3.4-14.5-.7-19.1 3.2-5.4 8.1-7 11.5-3.1 5.6 6.4 9.6 2.8 14.6-1.5-1.5-2.5-2.7-5.7-4.6-7.6-7.6-7.2-15.9-7.4-24.1-2.2-7.7 4.8-11.3 13.3-11.1 24.5 0 2.9 0 5.8.1 8.7-3.4 1.2-6.8 2.5-10.1 3.7-2.3-2.5-3.9-4.7-7.6-1.1-6.1 5.8-14.1 1.5-16-7.9h28.4c.8-16.6-3.1-25.5-12.6-29.7-17.5-7.7-31.2 9.7-27.6 35.1h-6.9c-.1-3.2-.1-6.4-.2-9.6-.3-8.4-.7-16.8-1-25.2-3.9-.3-7.8-.6-12.1-.9 0 17.1-.2 32.9.1 48.7.1 7.3-1.3 11.4-7.6 9.5-.8-.2-1.6.1-2.4.2-2.8-1.2-5.5-2.5-8.3-3.5-2.6-.9-5.3-1.6-7.9-2.3 11.9-3.7 18.6-13.4 18.5-26.9-.1-13.4-6.5-23.3-17-26.2s-20.4 3.4-25.8 16.6c-3 7.5-.8 23 4.8 29.4 2.9 3.2 6.6 5.1 9.9 7.6-1.5.6-3 1.7-4.4 1.7-19.4.1-38.7.1-58.1 0-1.6 0-3.2-1.4-4.8-2.2 12.9-4.3 19.5-19.5 15.7-35.8-3.5-15.1-15.4-21.3-28.1-14.7-.8.4-1.8.9-2.7.7-3.9-.6-7.7-1.4-11.6-2.2-.4 2.8-1.1 5.5-1.1 8.3-.1 12-.2 23.9 0 35.9.1 5.2-1.3 7.1-5.3 6.9-9.5-.3-19.1.1-28.6-.2-1.9-.1-3.9-1.9-5.8-2.9 5.1-15.8 10.1-31.6 15.3-47.8-10.3-.2-11.9-4.2-15.2 12.5-1.3 6.6-4 12.8-6.6 20.6-2.8-8.7-5.7-15.5-7.2-22.8-1.9-9.6-6-12.9-13.1-11-.6.2-1.1.3-2.5.6.7 2.5 1.3 4.8 1.9 7.1 2.8 9.8 5.7 19.6 8.5 29.4-4.9 0-9.8.1-14.6.1-.1-5.8-.1-11.6-.2-17.5-.2-16.7-11.5-25.6-24-18.7-1.4.8-3 2.2-4.2 1.9-3.7-.9-7.3-2.6-12.2-4.5v38.8h-9.5c-.1-5.8-.1-11.7-.2-17.5-.2-7.3-2.2-13.4-7.2-17.3-7.9-6-20.9-4.5-28.7 3.5 1.2 3.1 2.5 6.3 3.7 9.5 13.3-6.8 19.5-5.1 19.8 5.7-3.8 0-7.7-.2-11.5 0-7.9.5-11.5 4.2-13.9 14.3-2.3.5-4.7 1.5-7 1.5-10.1.2-20.2.1-30.4.1-.8-19.9.6-22.8 12.8-24.7v-14.7c-4.6 2-8.7 3.8-12.6 5.5-2.8-6.3-7.5-2.5-11.4-2.8-.4 2.4-1 4.9-1.1 7.3-.2 9.8-.2 19.6-.3 29.4h-8.3c4.2-17-.5-31.4-11.8-36.5-12.9-5.8-26.3 2.2-30 19-1.2 5.3.2 11.6.4 17.4-4.1.1-8.2.1-12.3.2v-23.9c3.3-.2 6.3-.4 9.2-.6v-12.1h-4.5l-4.8-.3c.4-8.4.5-8.5 9.7-8 .9-3.2 1.8-6.6 2.9-10.6-13.8-4.7-23.4-2-25 18.5-1.9.4-3.6.7-5.3 1.1v11.3c2.1.4 3.8.8 5.4 1.1v23.6h-27.9c-1.1-10.3-4.1-14.2-11.8-16-4.2-1-8.4-2.4-12.9-3.7 3.1-7.4 3.1-7.4 19.3-3.5 1.2-3.3 2.4-6.7 3.8-10.5-8.9-5.5-17.6-6.1-26.3-2.4-5.4 2.3-7.6 8.5-7.3 17.7.2 7.5 4.5 9.8 8.6 11.9 2.3 1.1 5.1.6 7.5 1.5 2.6 1 5 3 7.5 4.5-2.6 1.3-5.2 3.5-7.9 3.6-3.3.1-6.6-1.5-9.9-2.3-1.5-.3-3-.3-4.5-.4-2.6.4-5.3.9-7.9 1.3-4 1.4-8.6 3.5-9.4-4.5-.7-6.9-.1-14.1-.1-21.6h9.2v-12.4h-9.1c-.2-4.3-.4-8.1-.6-11.8h-11.7c-.1 4-.3 7.7-.4 11.5-2 .5-3.9.9-5.7 1.3v11.2c2 .3 3.9.6 5.9 1v16.5c0 2.4-.1 4.8-.2 7.2h-10.6c-.1-4.5-.2-9-.2-13.4 0-21.4-11.4-30.6-26.5-21.5-.7-.4-1.5-.8-2.2-1.2-3.9-.1-7.7-.2-11.6-.4-.4 2.5-1.1 4.9-1.1 7.4-.2 9.7-.1 19.4-.2 29.2-3.6 1.5-8.3-3.2-10.9 3.5-1.5-1.7-3-3.4-4.5-5-11.6 7.3-16.4 6.2-19.9-5.2h28.9c1-16.4-3.8-26-14.6-30.1-10.9-4.2-19.3.9-25.2 13.6-3.6 7.9-2.4 15.4-1.1 23.3-2.8 0-5.7.1-8.5.1-.1-6.6-.1-13.2-.2-19.9-.2-8.7-3.5-14.3-9.7-17.1-7.7-3.5-14.2-.1-20.1 6.3-6.9-9-14.6-9.6-22.9-4.1-.7 0-1.3 0-2-.1-3.8-.5-7.7-1-11.5-1.5-.3 2.5-.8 5.1-.9 7.6-.2 9.6-.2 19.2-.3 28.8-3.6 1-7.2 2-10.9 3-1.3-1.5-2.7-3-4-4.5-10.4 7.4-17.4 5.8-20.1-5.3h28.4c1.9-15.6-3.6-26.8-14.6-30.6-10.7-3.7-23 3.7-25.7 17-1.3 6.3-.2 13.5-.3 20.3-2.5 0-5 .1-7.5.1v-57.4h-11.9c-.5 2.7-1.5 5.3-1.5 8-.2 16.5-.2 32.9-.2 49.4-3.7 1-7.3 2-11 3-1.3-1.5-2.7-3-4-4.5-10.4 7.4-17.4 5.8-20.1-5.3h28.4c1.9-15.6-3.6-26.8-14.6-30.6-10.7-3.7-23 3.7-25.7 17-1.3 6.3-.2 13.5-.3 20.3-2.8 0-5.7.1-8.5.1-76.5-1.1-153.1-1.7-229.6-3.5-16.2-.4-30.7 4.5-45.1 13.1-8 4.8-15.9 8.4-25.6 7.1-12.9-1.7-26.4-3.3-39 4.4-7.7 4.7-15.4 9.7-23.2 14.1-3.3 1.8-6.9 2.6-10.4 3.3-15.1 2.9-29.8 7.1-42.6 19.1-11.5 10.8-23.1 21.2-34.9 31.4-8.1 7-16.6 13.1-24.9 19.6-2.5 2-5.3 3.5-7.9 5.3v-78.4c12.3-7 24.7-13.4 36.7-21.3 3.6-2.4 6.1-8.2 8.6-12.9 2.8-5.2 5.5-10.6 7.4-16.4 8.3-25.1 26.5-30.4 44.2-27.3 6.8 1.2 13.6 2 20.5 2.7 11.5 1.1 23 2.1 34.5 2.5 2.5.1 6.2-1.2 7.5-3.6 8.5-16.4 21-21.9 35.1-22.7 10-.6 20.4 1.8 30.1-.6 19.2-4.9 38.5-3.2 57.7-2.4 147 6.7 294 .9 441.1 2.9.6.5 1.1.9 1.7 1.4 3.9-.5 7.9-1 11.8-1.4 182.9 0 365.9 0 548.8.1 3.3 0 6.6 1.7 9.9 2.5-4.2 1.8-6.8 5.1-5.3 11.2 1.4 5.7 5.2 6.7 8.9 5.2 1.9-.8 4.7-4 4.6-6 0-3.9-2-7.1-3.3-10.5m-87.8 24.3c-.4 2.4-1 4.8-1 7.3-.1 11.6-.1 23.1 0 34.7 0 2.9.7 5.9 1.1 8.8h11v-19.6c0-14.8 1.8-17.4 13-19.1v-14.7c-4.6 2-8.7 3.8-12.3 5.3-3.3-5.6-7.8-2.6-11.8-2.7" class="st1"/><path d="M1920 704v368h-249.3c-8.6 0-11.7-4.1-11.7-15.4v-51.2c0-97.8-.1-195.6-.1-293.5 2.6-4.2 5-8.9 9.9-8.3h14.6c1.6.1 3.2.3 4.9.3 77.2.1 154.4.1 231.7.1m-41.3 182.5v2.2c.5.3 1 .7 1.6.7 9.8.8 19.6 1.6 29.4 2.1.9 0 2-2.2 2.9-3.3-1.1-1.3-2.2-3.9-3.2-3.8-5.4.3-10.7 1.6-16.1 2-4.8.4-9.7.1-14.6.1m28.8-6.4c-.5.7-1 1.3-1.5 2 .4 1.1.9 2.3 1.3 3.4.7-1 1.5-2 2.2-3-.6-.8-1.3-1.6-2-2.4m1.8 13.1-.9-1.2c-.6 1-1.2 2-1.7 3 .2.2.4.4.6.7.6-.9 1.3-1.7 2-2.5" class="st2"/><path d="M1304.2 408h6.9c7.3 19.5 27.3 23.9 37.6 8.1-.8-1.5-1.5-3-2.3-4.5 3.4-1.2 6.8-2.5 10.1-3.7.9 1.4 2 2.5 2.5 4.1 3.1 9.1 9.3 12.7 16.1 13 8.6.5 17-1.3 21.2-13.6 2.5-1.1 5-2.3 7.5-3.4.5 16.7 13.3 21.6 24.6 13.2-2-4-.6-12.7-8.1-8.7-.8.4-2.7-2.9-4-4.5 59.7 0 119.4.3 179.2-.1 23.9-.2 47.8-1.7 71.6-3.2 11.7-.7 21.6 6.2 31.9 11.4 5.3 2.6 10.2 6.7 15.5 9.1 3.5 1.6 7.5 1.9 11.2 1.7 7.8-.5 15.7-1.6 23.5-2.8 12.5-2 22.7 6.9 33.8 11.4 27.9 11.3 55.6 22.9 83.6 33.7 12.6 4.8 21.5 15.5 29.6 27.9 5 7.7 8.9 16.5 13.8 24.2 2.6 4.1 6.5 6.7 9.8 10v49.6c-2.4-1.8-5.2-2.9-7-5.4-9.1-12.1-19.2-21.7-31.6-27.4-4.5-2.1-9.1-5.2-12.7-9.3-15.1-16.7-30.4-31.9-50.3-38.7-20.2-6.9-39.6-17.4-59.8-24.2-8.6-2.9-18.4.2-27.6 0-6.4-.1-13 0-19-2.3-6.9-2.6-13.3-7.8-19.9-11.9-7.6-4.7-15.3-7.9-24-7.4-23.7 1.4-47.4 3.2-71.1 3.2-427.1.2-854.2.1-1281.3.1-1.8 0-3.7.1-5.5-.1-22.2-1.6-44.4-3.2-66.7-4.7-2.4-.2-5-.1-7.2 1-10.4 5-20.7 10.5-31.2 15.5-4.9 2.3-10 5.2-15 5.2-10.3.1-20.5-1.8-30.8-2.4-2.5-.2-5.2 1.1-7.7 2.1-20.8 8.7-41.5 18.1-62.5 26-18.8 7.1-33.5 22-45.1 41.1C31.6 561.9 17.5 580 3.2 598c-.8 1-2.1 1.3-3.2 2v-76.8c2.6-1.7 5.3-3.3 7.9-5.3 8.4-6.4 16.8-12.6 24.9-19.6 11.8-10.1 23.4-20.6 34.9-31.4 12.8-12 27.5-16.2 42.6-19.1 3.5-.7 7.2-1.5 10.4-3.3 7.8-4.3 15.5-9.3 23.2-14.1 12.6-7.7 26.1-6.1 39-4.4 9.7 1.3 17.5-2.2 25.6-7.1 14.4-8.6 28.9-13.5 45.1-13.1 76.5 1.8 153.1 2.5 229.6 3.5 2.8 0 5.7 0 8.5-.1 8.4 15.3 19.8 19.9 32.3 12.6 2.8-1.6 6.9-3.3 4-9.5 3.7-1 7.3-2 11-3 .5 4.7 1 9.5 1.5 14.2h11.6c.2-5.4.4-9.8.5-14.2 2.5 0 5-.1 7.5-.1 8.4 15.3 19.8 19.9 32.3 12.6 2.8-1.6 6.9-3.3 4-9.5 3.6-1 7.2-2 10.9-3 .4 4.7.8 9.3 1.2 14h11.4v-14h15.5c.2 4.6.3 9.3.5 13.9h11.9v-13.9h14.3c.2 4.7.3 9.4.5 13.9h12.1v-13.9c2.8 0 5.7-.1 8.5-.1 8.5 15.4 19.3 19.9 32.1 12.7 2.6-1.5 7.3-2.5 4.3-9.1 2.6-6.7 7.3-2 10.9-3.5.5 4.7 1 9.5 1.5 14.2h11.6c.2-5.4.4-9.8.5-14.2h15.6v13.9h12.6v-13.9h10.6c4.2 13.8 6.9 16.4 16.1 15.4 9.3-1 10.1-2.8 5.9-13.7 2.6-.4 5.3-.9 7.9-1.3l-3.4 10.2c4.2 1.7 7.9 4.3 11.8 4.7 10.5 1 22.6-.1 25.5-15.2h27.9c.2 4.6.4 9.3.6 13.9H887v-13.9c4.1-.1 8.2-.1 12.3-.2 11.2 20.9 30.7 21 41.4.2h8.3c.4 4.7.9 9.4 1.3 14.1h11.2v-14.1c10.1 0 20.2.1 30.4-.1 2.4 0 4.7-1 7-1.5.3 15 8 18.5 19.8 16.3 2.6-.5 5.2-.3 7.8-.4 3.4-.1 6.7 0 10.6 0v-14.3h9.5c.2 4.6.3 9.3.5 13.9h11.9v-13.9h15.6c.2 4.7.3 9.4.5 13.9h12.1v-13.9c4.9 0 9.8-.1 14.6-.1 1.4 3.8 3.2 7.5 4.2 11.5 1.6 6.4-1 10.3-6.1 9.6-1.7-.2-3.4-.9-5.3-1.5-1.2 3.3-2.5 6.5-3.6 9.6 11.6 9.2 21.9 5.2 27.1-9.8.9-2.6 1.7-5.3 2.5-8 1.9 1 3.8 2.9 5.8 2.9 9.5.3 19.1 0 28.6.2 4 .1 5.3-1.8 5.3-6.9-.2-12-.1-23.9 0-35.9 0-2.8.7-5.5 1.1-8.3v69.7c11.6 1.1 11.6 1.1 12-13 0-.8.2-1.6.3-2.3 2-.6 4.1-1.2 6.1-1.8 2.8-.2 5.5-.4 8.3-.5 1.6.8 3.2 2.2 4.8 2.2 19.4.2 38.7.1 58.1 0 1.5 0 3-1.1 4.4-1.7 3.2-.2 6.3-.4 9.5-.5 2.6.8 5.3 1.4 7.9 2.3 2.8 1 5.5 2.3 8.3 3.5-4.1 9.7-3.1 11.8 4.9 12.6 8.8 1 14.2-4 17-14.6.3-6.8.8-13.7 1.2-20.6" class="st3"/><path d="M0 1072V704l93.9-.3h76.8c18 .1 35.9.4 53.9.1 5.4-.1 9.2 2.2 11.8 8.2.1 2.7.2 5.3.2 8v335c0 13.4-2.7 16.9-12.9 16.9-74.6.1-149.1.1-223.7.1m89.1-219.3c-7.9-8.5-15.8-17-23.8-25.6-9.2 12.1-17.6 24.6-27.1 35.2-7.7 8.6-9 17-6.9 29.9 2.5 15.3 8.6 24.7 18.7 31.1 7.9 8.5 15.8 17 23.9 25.7 9.2-12.2 17.6-24.6 27.1-35.3 7.7-8.6 9-17 6.9-29.9-2.6-15.3-8.7-24.7-18.8-31.1" class="st2"/><path d="M0 600c1.1-.6 2.4-.9 3.2-2 14.3-18 28.4-36.1 40.9-56.7 11.6-19.2 26.3-34.1 45.1-41.1 21-7.9 41.7-17.3 62.5-26 2.5-1 5.1-2.3 7.7-2.1 10.3.6 20.6 2.5 30.8 2.4 5 0 10.1-2.9 15-5.2 10.4-4.9 20.7-10.5 31.2-15.5 2.2-1.1 4.8-1.1 7.2-1 22.2 1.5 44.4 3.1 66.7 4.7 1.8.1 3.7.1 5.5.1 427.1 0 854.2.1 1281.3-.1 23.7 0 47.4-1.8 71.1-3.2 8.6-.5 16.4 2.7 24 7.4 6.6 4.1 13 9.2 19.9 11.9 6 2.3 12.6 2.2 19 2.3 9.2.2 18.9-2.8 27.6 0 20.2 6.7 39.7 17.3 59.8 24.2 19.8 6.7 35.2 21.9 50.3 38.7 3.6 4 8.2 7.2 12.7 9.3 12.4 5.7 22.6 15.3 31.6 27.4 1.8 2.5 4.6 3.6 7 5.4v41.6c-2.8-3.2-5.9-6.1-8.5-9.7-5.6-7.6-10.6-16-16.5-23.3-6.7-8.4-14.4-15.5-21.2-23.8-16.5-19.9-35.9-32.4-57.1-40.8-9.5-3.7-19-7.2-28.6-10.6-13.1-4.6-26-9.9-39.3-13.3-16.6-4.3-34.1-4.4-50.1-11-18.7-7.7-37.6-7.3-56.4-8.1-20.4-.8-40.9 1.2-61.4 1.2-137.1.2-274.3.1-411.4.1-4-6.4-18-6.2-20 .3-2.4-5.4-5.8-5.9-9.8-3.4-.9-.1-1.8-.2-2.7-.2-1.4-1.3-2.9-2.7-2.9-2.7-3.8.6-6.4.5-8.7 1.5-2 .9-3.7 2.9-5.6 4.5h-1.2c-.5-1.6-.9-3.1-1.9-6.3-.9 3.2-1.4 4.7-1.9 6.3h-3.8c-.8-1.5-1.9-4.5-2.5-4.3-4.8 1.4-10.5-2.1-14.3 4.4-1-1.8-2.1-3.6-3.1-5.4-.2-1.4-.4-2.7-.6-4.1-.8.9-2 1.5-2.4 2.7-.8 2.2-1.2 4.6-2.1 8.6-1.3-3.3-1.9-4.9-2.9-7.3-.9 2.7-1.5 4.3-2.1 5.9-1.1-1.5-2.1-3-3.2-4.5-1.9.3-3.9.5-5.8.8l.1.1c-.1-.5-.1-.9-.1-1.4-.6-1.5-1.2-2.9-1.8-4.4-.9 1-1.8 2-2.7 3.1-1.7 1.4-3.4 2.9-5 4.3l-3.3-.6c-1.1-1.8-2.2-3.5-3.4-5.4-3.2 2.7-6.2 5.1-9.2 7.6-1.3 0-2.6 0-3.9-.1-.2-1.5-.4-3.1-.7-4.6-.4-.1-.8-.1-1.2-.2-.7 2.2-1.5 4.5-2.2 6.7-.6-.1-1.2-.2-1.7-.3-1.8-7.5-3.7-8.2-9.3-3.3-.6.1-1.2.3-1.9.4v-.2c-.4-.5-.7-1-1.1-1.5-3.6.5-7.2 1.1-11.9 1.8-1.6-1.6-4.8-4.7-8.4-8.3-.8 3-1.7 6.3-2.6 9.6-4.4-.2-8.7-.3-13.1-.5-2-3.7-3.9-7.5-5.8-11.1-2.7 3.7-5 6.8-7.2 9.9-2.3.5-4.6 1.1-6.8 1.6-2.9-5.6-6.3-5.8-10.2-1.7-.8-.5-1.5-1-2.3-1.4l-8.7 1.5c-.8-1-1.7-2-2.5-3.1-.7 0-1.3 0-2-.1-.9 1.3-1.7 2.6-2.6 4-1-1.5-2-2.7-2.9-4-1.1 1.6-2.1 3.1-3.2 4.7h-7.3c-.3-3.2-.6-6.4-.8-9-3.9 2.8-7.2 5.1-10.4 7.4h-2.3c-5.4-4.5-9-3.9-10.9 1.6h-2.3c-2.7-5.5-5.9-6.5-9.7-1.9-3.9.6-7.7 1.3-11.6 1.9-3-6.9-7.5-3.6-11.7-3l-9 3c-3-6.2-6.7-5.8-10.7-1.7-.6.1-1.2.2-1.7.3-3.2-2.6-6.5-5.1-10.1-8-.2 2.8-.5 5.3-.7 7.8-.6-.1-1.2-.2-1.9-.4-3.7-5.1-6.5-3-9 2h-11c-2.5-4.6-5.6-5.8-9.5-3.1-.9-.1-1.8-.1-2.6-.2-1.5-1.4-2.9-2.7-4.4-4.1-2.6 2-5.3 2.2-8 2.9-2 .5-3.9 1.8-5.9 2.7-.6.1-1.3.2-1.9.4-5-6.2-11.2-.5-16.7-2.7-.1 0-.8 2.6-1.2 4-3.6-.5-7.3-1.1-10.9-1.6 2.9-1.4 5.9-2.9 8.7-4.3-5.9-5.1-8.2-4.2-13.7 5.9-148.3-.5-296.6-1.1-444.9-1.5-20.3-.1-40.6.9-60.8 1.6-3.8.1-7.6 1.4-11.3 2.4-8.9 2.3-17.8 5.1-26.7 7-17.9 3.8-36 5.7-53.6 10.9-17.9 5.4-35.1 14.9-52.9 20.7-17.1 5.8-31.5 16-42.1 34.9-4.4 7.9-8.6 16.5-14.2 22.6C27.9 595.4 15 609 5.3 627.1c-1.2 2.2-3.5 3.3-5.3 4.9zm1061.7-126.4c.2 1.1.4 2.1.5 3.2 1.2-.6 2.4-1.1 3.5-1.9.1-.1-.3-1.9-.4-1.9-1.2.1-2.4.4-3.6.6" class="st4"/><path d="M0 1072h223.7c10.3 0 12.9-3.5 12.9-16.9v-335c0-2.7-.2-5.3-.2-8 5.7 0 11.5-.1 17.2-.1 0 2.7.1 5.3.1 8v335.8c0 12.4 2.9 16.2 12.3 16.2h309.7c9.4 0 12.3-3.8 12.3-16.2V723.2c0-3.2.1-6.4.2-9.6h16.7c.1 3.2.2 6.4.2 9.6v332.6c0 12.4 2.9 16.2 12.3 16.2h309.7c9.4 0 12.3-3.8 12.3-16.2V723.2c0-3.2.1-6.4.2-9.6h16.7c.1 3.2.2 6.4.2 9.6v332.6c0 12.4 2.9 16.2 12.3 16.2h309.7c9.4 0 12.3-3.8 12.3-16.2V823.1c0-36.5.1-73 .2-109.5h16.7c.1 2.9.2 5.9.2 8.8V1055c0 13.5 2.7 17 12.9 17h308.4c10.2 0 12.9-3.5 12.9-16.9v-335c0-2.7-.2-5.3-.2-8 5.7 0 11.5-.1 17.2-.1 0 97.8.1 195.6.1 293.5v51.2c0 11.3 3.1 15.4 11.7 15.4h249.3v8H.2c-.2-2.8-.2-5.4-.2-8.1" style="fill:#191a1b"/><path d="M900.5 483.2h2.3l1.2 9.6c.6-.1 1.1-.2 1.7-.2.2-1.9.2-4 .7-5.7s1.6-3.1 2.4-4.6c.8 1.6 1.7 3.1 2.2 4.8.5 1.8.6 3.8.9 5.6l1.8-.3v-10.7h2.3c-1.5 10.5 1 12.8 10.7 10 .2-2.8.3-5.6.5-8.5h7.3c1.3 10.4 1.7 10.7 10.6 8.6v-13.3c.8 1 1.7 2 2.5 3.1 1.6 2.7 3.1 5.4 4.5 7.8-1 .2-2.5.6-4.1 1 .1.9.2 1.7.3 2.6 3.1-.6 6.3-1.2 10.2-2 2 .6 5.1 1.5 8 2.3.9-4.2 1.6-7.1 2.2-10 2.3-.5 4.6-1.1 6.8-1.6 2.4 2.5 4.8 5 7 7.3l6.1-6.1c4.4.2 8.7.3 13.1.5-.3 3-.7 6.1-1.2 10.8 4.8-1.6 8.9-2.9 13.6-4.4 3.7 5.6 6.7 5.4 10.8-3.9.8 11.2 6 6.2 9.9 7 .8-2.9 1.5-5.4 2.1-7.9.6.1 1.2.2 1.7.3-.2 8.5.3 8.8 9.6 6.8.8-3.7 1.6-7.5 2.6-12.2 4.3 12.7 4.3 12.7 6.6 12.2-3.3-4.8-3-8.6 1.8-10.9l3.3.6c1.9 1.2 3.8 2.4 5.2 3.3 1.6-1.7 3.1-3.3 4.6-4.9l-.1-.1c.4 1.4 1.3 3.2 1 4.2-2.9 8.3.9 8.9 5.6 8.7 2.9-.1 5.8 0 8.9 0 1.2-5.1 2.4-10 3.6-15 1 1.8 2.1 3.6 3.1 5.4 1 10.2 4.5 12.6 10.6 6.6-1.3-.1-2.4.1-3.2-.4-1.4-1-2.7-2.3-3.7-3.9-.2-.3 1.3-3.5 1.8-3.4 2.2.6 5.8 1.2 6.2 2.9 2 9 6.5 8.5 12 6.9.2-3.1.4-6 .6-8.8h1.2c.4 3 .7 6 1.3 10.7 2.7-1.5 5.4-2.9 8.1-4.3-1.7-2.3-3.4-4.6-5.5-7.6 3.7-.3 7.2-1.8 7.5 5.7.2 4.9 2.4 5.6 6.3 4.3-4.4-4.7-3.9-8.5-.4-12.1.9.1 1.8.2 2.7.2-.2 3.7-.7 7.6-.2 11.2.1.9 3.6 1.4 5.5 1.3 2.8-.2 5.6-1 8.9-1.7.1-1.6.3-4.4.5-7.2.6-.4 1.2-.8 1.8-1.1 1.4 3.3 2.8 6.5 4.2 9.8 1.8-8.3 1.8-8.3 5.5-8.1.4 2.9.9 5.7 1.3 8.6h1.8c.2-3.2.3-6.4.5-9.6 137.1 0 274.3 0 411.4-.1 20.5 0 41-2.1 61.4-1.2 18.9.8 37.7.3 56.4 8.1 16 6.6 33.5 6.7 50.1 11 13.2 3.4 26.2 8.7 39.3 13.3 9.6 3.4 19.1 6.9 28.6 10.6 21.2 8.3 40.6 20.9 57.1 40.8 6.8 8.2 14.4 15.4 21.2 23.8 5.9 7.3 10.9 15.7 16.5 23.3 2.6 3.5 5.6 6.5 8.5 9.7v36.8c-2.6-3.1-5.6-5.8-7.8-9.3-8.8-13.9-16.4-29.3-26.2-41.8-8.7-11.2-20-18.8-29.7-28.8-24.4-25.1-52.8-38.9-82.2-49.7-5.4-2-11.6.1-17.2-1.5-21.7-6.3-43.1-14.5-65-19.8-17.4-4.2-35.3-6.6-53-7.3-24.5-.9-49.1 1.2-73.6 1.2-429.1-.4-858.2-1-1287.3-1.4-5.8 0-11.7 1.1-17.4 2.6-16.9 4.3-33.4 10.2-51 8.9-8.5-.7-17.6.8-25.7 4.1-32.7 13.4-65.2 27.5-97.5 42.5-7.3 3.4-13.6 11-20 17.3-5.9 5.9-11.1 13.3-17 19.2C32 613.3 16.2 632.9 5.8 659c-2.2 5.6-.5 11.2 4.1 12.9 7.5 2.8 15.1 5.5 22.7 7.8 3.1 1 7.2-.6 9.5 1.5 9.4 8.7 20.5 6.9 30.8 9.8 10.2 3 20.9 2.7 31.4 3.8 20.3 2.1 40.7 4.1 61 6.4 1.9.2 3.7 1.9 5.6 2.8H94.1c-1.2-1-2.4-2.6-3.7-2.8-15.5-2.9-31.2-4.7-46.5-8.4-14.7-3.6-29.1-9.3-43.7-14v-46.4c1.8-1.6 4.1-2.7 5.3-4.9 9.7-18.1 22.6-31.7 35.5-45.5 5.7-6.1 9.8-14.7 14.2-22.6 10.6-18.9 25-29.1 42.3-34.7 17.8-5.8 35-15.4 52.9-20.7 17.6-5.3 35.7-7.2 53.6-10.9 9-1.9 17.8-4.7 26.7-7 3.7-1 7.5-2.2 11.3-2.4 20.3-.7 40.6-1.7 60.8-1.6 148.3.4 296.6 1 444.9 1.5 1.1 5.4 3.1 10 7.7 10.4 1.9.2 4-1.9 6-2.9-8.2-.5-8.8-1.1-8.7-9 3.6.5 7.3 1.1 10.9 1.6.3 3.1.5 6.3.8 9.4.3-.1.7-.1 1-.2.8-3.1 1.5-6.3 2.1-8.7 3.1 3.6 5.5 8.7 8.4 9.3 5.4 1 11-.6 16.6-1.1.4-2.9.8-5.7 1.3-9.4 3 3.5.5 13.3 7.7 9.1-3.7-4.2-3.3-8 .2-11.6.9.1 1.8.1 2.6.2.1 4.1-.3 8.4.6 12.1.2.9 4.6.1 7.1.1v-2.4c-1.6-.4-3.2-.8-3.8-.9 1.7-1.8 3.6-3.8 5.6-5.9h11c.4 1.8.5 3.7 1.1 5.3.7 1.8 2.1 5 2.5 4.9 2.1-.8 3.9-2.6 5.8-4-1.1-1.5-2.2-3.2-3.4-4.6-.6-.7-1.5-1-3.3-2.1 2.9-.7 4.6-1 6.3-1.4.6.1 1.2.2 1.9.4.3 3.7.5 7.3.8 12.3 3-3.9.1-13.7 7-9.6-.1 3-.2 5.7-.3 8.3.8.2 1.7.3 2.5.5.2-3.7.5-7.5.7-11.2.6-.1 1.2-.2 1.7-.3 2.1.4 4.3.9 6 1.2-2.2 2.3-6.1 5.3-5.8 6.5 1.8 7.6 6.3 2.9 10.1 3.2.1-3.4.3-6.3.4-9.2l9-3c-.7 11.3-.7 11.3 15.8 10.7-5.1.3-5.6-2.9-4.1-7.7 3.9-.6 7.7-1.3 11.6-1.9 2 .6 4.1 1.1 5.4 1.5-2 2.3-3.8 4.3-5.7 6.4 2.9 1.6 5.8 3.1 9.4 5.1.1-6 .2-8.9.3-11.8M818 494c-.3-.2-.7-.6-.9-.5s-.3.7-.4 1.1c.3.2.7.6.9.5.2 0 .2-.7.4-1.1" class="st6"/><path d="M170.8 703.7c-1.9-1-3.7-2.6-5.6-2.8-20.3-2.2-40.7-4.3-61-6.4-10.5-1.1-21.2-.8-31.4-3.8s-21.4-1.1-30.8-9.8c-2.3-2.1-6.4-.6-9.5-1.5-7.6-2.3-15.2-5-22.7-7.8-4.6-1.7-6.3-7.3-4.1-12.9 10.4-26.1 26.2-45.7 43.8-63.3 5.9-6 11.1-13.3 17-19.2 6.4-6.4 12.7-13.9 20-17.3 32.3-15 64.8-29 97.5-42.5 8.1-3.3 17.2-4.8 25.7-4.1 17.6 1.3 34.1-4.6 51-8.9 5.7-1.5 11.6-2.6 17.4-2.6 429.1.4 858.2 1 1287.3 1.4 24.6 0 49.1-2 73.6-1.2 17.7.6 35.5 3.1 53 7.3 21.8 5.3 43.3 13.5 65 19.8 5.5 1.6 11.8-.5 17.2 1.5 29.4 10.7 57.7 24.6 82.2 49.7 9.7 9.9 21 17.6 29.7 28.8 9.8 12.5 17.4 27.9 26.2 41.8 2.2 3.5 5.2 6.2 7.8 9.3V704h-231.8c-1.6 0-3.2-.2-4.9-.3 1.9-1 3.7-2.7 5.6-2.8 15.4-.8 30.8-1.1 46.2-1.8 7.7-.3 15.4-1 23-1.7 19.7-2 39.5-3.9 59.2-6.3 12.2-1.5 24.4-3.5 36.5-6.1 9.3-2 18.5-5.3 27.7-8.1 5.6-1.7 11.3-3.3 16.8-5.5 3.9-1.5 6.3-9.7 4-13.5-5.5-9.2-10.5-19.1-16.9-27-9.1-11.2-19.2-21.1-29.1-31.1-8.3-8.5-16.2-18.2-25.5-24.2-12.6-8.2-26.3-13.7-39.7-20-11.8-5.6-23.7-10.8-35.5-16.1-4.4-1.9-8.9-4.1-13.4-5.1-16.5-3.6-33-7.3-49.7-10.1-18.4-3.1-36.9-6.5-55.4-7.2-24.9-.9-49.9 1.1-74.8 1.2-156.1.1-312.2.1-468.3.2-4.7 0-8.8-.6-12.2-5.1-2.6-6.2-7.8-4.2-9.4-1.5-4.9 8.4 4 7.6 6 11.7-.4.8-.8 1.5-1.2 2.3-4.9-3.5-9.7-7-16.1-11.6 4.1-.9 6.2-1.3 8.3-1.8-.1-.9-.2-1.7-.3-2.6-3.1.7-6.2 1.3-9.2 2-.7 0-1.5.1-2.2.1-8.8-5-15-.2-13.3 11.1h-6.2c-.1-6.8-6-7.3-7.4-10.3-5.4-12-4.1 2-6.5 2.1-1.3-1.1-2.8-2.6-4.4-3.9-1.5 1.9-2.9 3.6-3.3 4.1l2 8c-2.9-.6-5.9-1.1-8.8-1.7.6-2.2 1.1-4.4 1.7-6.5-.3-.4-.5-.8-.8-1.1-1.7 1.9-3.3 3.8-5 5.7-1-2.1-2-3.9-3.2-6.4-1.7 2.4-3.1 4.4-4.3 6.2-1.4-2.1-2.7-3.9-4-5.7-.5.4-.9.9-1.4 1.3.8 2.8 1.7 5.5 2.5 8.3-2.4-.6-4.9-1.2-7.3-1.8-1.4-2.4-2.7-6.5-4.3-6.8-2.7-.4-5.7 1.6-8.5 2.6-.3-2.4-.7-5.3-1.1-8.5-4.3 3.5-8 6.5-11.7 9.5-5.8-5.7-6.4-5.7-10.8-1 2 .4 3.7.8 6.5 1.4-3.4 1.6-5.5 2.6-6.9 3.2-1.9-2.7-3.5-6.9-5.5-7.4-4.6-1.1-9.4-.3-14.4-.3-.2 3.5-.4 6.4-.6 9.2h-5.7c-2-1.7-4-3.4-6.4-5.5 1.8-.6 3.2-1 4.6-1.4-.1-.7-.1-1.5-.2-2.2l-6.6 1.2c-.7 0-1.5-.1-2.2-.1-1.6-1.4-3.3-2.7-6.7-5.6v13.6h-2c-.8-9.3-2.6-10.8-11-8.5-.2 2.7-.3 5.6-.5 8.5-.7-.3-1.4-.6-2.2-.9-.8-2.5-1.3-7-2.3-7.1-2.9-.5-5.9.7-9.9 1.5-4.1-5.6-10.7-1.6-16.7-2.5-.5-.1-1.2 2.8-1.8 4.2-.4 0-.8.1-1.2.1-5.3-7.3-8.5-6.5-13.4 3.1h-4.5c-1.2-2.5-2.4-7-3.6-7-2.6.1-5.2 2.4-7.8 3.8-165.2-.5-330.3-1.1-495.5-1.6-20.1-.1-40.2-.1-60.3.1-2.8 0-5.7.6-8.3 1.7-16.6 6.7-33.4 11.9-50.8 9.2-10.6-1.6-20.9-1.9-31.3 1.9-11.6 4.3-23.6 5-34.7 13.2-18.3 13.6-36.2 28.6-56.9 35.7-8.8 3-17.1 7.6-23.4 17.4-4.3 6.6-10.2 11.2-15 17.4-10.7 14-21.2 28.4-31.6 42.9-2.9 4.1-2.8 9.3 1.1 12.3 4.4 3.3 9.2 6.6 14.2 8 14.7 4 29.6 7.6 44.5 10.3 17.4 3.1 34.9 5.4 52.3 7.5 9.5 1.1 19 1.1 28.5 1.8 22 1.5 44 3.3 66 4.6 9.1.5 18.3-.1 27.4.2 1.9.1 3.7 1.8 5.6 2.8-2.9 2.8-5.8 5.5-8.7 8.3-5.7 0-11.5.1-17.2.1-2.6-6-6.4-8.3-11.8-8.2-18.1 0-36.1-.3-54-.4" class="st7"/><path d="M1876.1 0c1.5 1.5 2.8 3.5 4.5 4.3 13.4 6.6 22 25.1 19.7 42.9-2.5 19.7-15 34.3-29.9 34.3-75.5.1-151 .1-226.6 0-14.9 0-27.4-14.6-29.9-34.3-2.3-17.8 6.3-36.3 19.7-42.9 1.7-.8 3-2.9 4.5-4.3zm-220.4 33.2c8 9-5.2 14.5-1.6 22.9 6.2-3 9.2-8.8 8.5-16.2-.7-7.7-5.5-13.8-11.3-14.3-5.5-.5-10.8 4.3-12.5 11.4-1.6 7 .7 14.6 5.8 18.4.7.5 1.7.3 4.3.8l-4.4-4.4c1.1-.7 2.2-1.4 3.6-2.4-5.9-4.9-6.2-6.3-3.4-16.2zm108.5 6.8c.3 3.1.6 6 .9 8.8.4-.2.8-.3 1.1-.5-.9-3.9-1.9-7.9-2.8-11.8-.6.1-1.2.3-1.8.4-1 2.5-2 5-3.1 7.8-1.3-3-2.3-5.6-3.9-9.1-1.5 3.4-2.6 5.7-3.8 8.3-1.4-2.6-2.6-5-3.8-7.4l-1.8 1.2c1.6 4.5 3.3 8.9 4.9 13.4 1.6-2 3.2-4 4.6-5.7 1 1.7 2.1 3.7 3.3 5.7 2-3.5 3.9-7 6.2-11.1m-63.7-4.5c-4.1 2.3-8.8 3-10.3 6.3-1.4 3.1.7 8.8 1.2 13.6 9.1 2.5 10.3.3 9.1-19.9M1855.8 51c2.3.2 4.5 1 6.2.2 1.8-.8 4.3-2.9 4.5-4.9.3-2.5-.7-6.3-2.2-8-2.3-2.6-5.5-3.7-8.5-5.7zm-26.6-17.7h-1.3V51c1.6-1.1 1.8-2.4 2-3.6s.4-2.4.6-3.5c3.2 0 3.2 0 8.3 7.8V33.3c-.6-.6-1.2-1.2-1.7-1.8-.1 6.8-1.8 10.4-6.7 7.9-.4-1.8-.8-3.9-1.2-6.1m-18.8 8.3c-3.3 2.7-5.4 4.4-7.5 6.1-.9-2.1-2.8-4.3-2.7-6.3.7-8.5 6.5-2.5 10-5.2-4.1-4.9-8.4-5.2-11.2-.4-1.6 2.7-2 9.8-.5 11.7 2 2.7 6.3 2.8 9.7 2.8.7.1 1.4-5.2 2.2-8.7m-23.5 9.8c6.9-13.3-4-13.1-7.7-21v20.7c.6.1 1.2.2 1.7.3.3-2 .3-4.1.9-5.9.5-1.7 1.6-3 2.5-4.6.7 1.4 1.5 2.8 1.9 4.3.5 2 .5 4.1.7 6.2m-105.1-15.1c-3.2-4.1-7.2-5.5-9.2-.7-3.6 8.9 5.3 6.5 7.4 12h-8.2v2.3c3.2 1.7 7.4 4 9.7-.5 4.9-9.3-4.9-6.9-6.8-12.2 2.7-.3 4.9-.6 7.1-.9m170.4.6c-.5 0-1.1 0-1.6-.1-1 3.8-1.9 7.7-2.9 11.5-.7-.2-1.3-.5-2-.7-.2-2-.1-4.2-.6-6-.5-1.7-1.8-3.1-2.7-4.6-.6 1.6-1.7 3.3-1.7 4.9-.1 8.5 3.5 10.9 12.3 8-.3-4.3-.6-8.7-.8-13m-33.6-4.2c-1.7 5.5-3.1 10.1-4.5 14.6.4.2.8.5 1.2.7.3-2.5.5-5.1.8-7.6 4.1 11.3 4.1 11.3 8.9 9.3-5-3.1-5-6.8-.9-10.9-1.5-1.6-2.8-3.1-5.5-6.1m-89.8 18.4h1.7c.2-1.9 0-4 .5-5.8.5-1.7 1.6-3.1 2.4-4.6.8 1.5 1.8 2.9 2.2 4.6.5 1.9.4 4 .5 6 4.5-11.1 2.7-13.9-7.4-13.4.1 4.4.1 8.8.1 13.2m-24.4-14.4v14.4c.5 0 1.1.1 1.6.1.2-2.1.1-4.3.6-6.2.5-1.7 1.7-2.9 2.7-4.4.7 1.4 1.6 2.7 2 4.2.4 2 .4 4.2.5 6.3.8-.1 1.5-.1 2.3-.2-.2-3.8.7-9.1-.8-11.1-1.9-2.3-5.9-2.1-8.9-3.1m67.7-2.8c-4.6 5.3-.9 10.7-.4 15.7.1.9 3.2 1.2 3.7 1.4-.3-4.6-.6-8.2-.8-11.9.6-.1 1.2-.2 1.8-.4-1.3-1.5-2.6-2.9-4.3-4.8" class="st8"/><path d="M0 678.4c14.5 4.8 29 10.4 43.7 14 15.4 3.8 31 5.6 46.5 8.4 1.3.2 2.5 1.9 3.7 2.8l-93.9.3z" class="st4"/><path d="M1510.2 78.1c-10.4.1-20.7.6-31.1.1-8.2-.4-15.3-4.8-20.1-14.2 2.6-1.9 5.2-3.8 7.7-5.8 4.7-3.8 9.3-7.8 14-11.7.4 1.4.8 2.7 1.9 6.2.5-4.6.8-6.8 1-9 .3.3.6.6 1 .9 1.2-1.6 2.4-3.1 3.7-4.7.9-1.6 1.5-3.6 2.7-4.8 5.5-5.4 11.2-10.3 16.6-15.8 4.3-4.4 8.3-9.5 12.4-14.2 17.6-.1 35.3-.4 52.9 0 3.6.1 7.2 2.7 10.9 4.2-8.5 7.8-17 15.4-25.3 23.4-1.1 1.1-1.5 3.6-2.2 5.4-1.8-1.4-3.7-2.8-5.9-4.5-.8 2.2-1.5 4-2.2 5.8-.2 2.9-.3 5.7-.5 8.5-1.4-11.8-4.6-14.1-10.6-7.9-.5 0-1.1-.1-1.6-.1-2.7-.4-5.5-1.5-8-.9-.9.2-2.4 5.5-1.8 6.4 1.7 2.6 4.4 4.2 6.6 6.2-3.2 4.1-6.4 8.3-9.8 12.3-4.1 4.9-8.2 9.5-12.3 14.2m5.9-30.7c-3.6-.8-9.2 3.4-9.4-5-.2-9.1 6.1-4 9.6-5.7-4-4.9-8-5.3-10.9-.9-3 4.5-2.8 9.2.4 13.4 2.9 3.7 7 3.1 10.3-1.8" class="st9"/><path d="M1510.2 78.1c4.1-4.7 8.2-9.4 12.2-14.2 3.3-4 6.5-8.2 9.8-12.3l4.8-5.4c2.2 6.4 7.2 7.2 10.6 1.7.2-2.9.3-5.7.5-8.6.8 2.5 1.3 5.2 2.3 7.5.8 1.8 2.3 3 3.4 4.5 1-1.5 2-3 3.1-4.6.2.4.5 1.4.9 1.5 2.7.9 5.4 1.6 8.2 2.4.4-3.4 2-8.1.9-10-1.2-2.1-4.9-1.7-7.6-2.4-1.1-.2-2.2-.3-3.2-.4.7-1.8 1.1-4.3 2.2-5.4 8.4-7.9 16.9-15.6 25.3-23.4 10.3 6.6 17.2 22.5 15.1 34.8-3.6 22-12.3 33.9-26.1 34.2-20.7.7-41.6.2-62.4.1" class="st10"/><path d="M689.3 329.4c-16.8 0-28.5-14.4-28.6-35-.1-20 11.9-35 27.9-35.1 14.8 0 28.3 11.9 28.2 35.3-.1 19.7-12 35.4-27.5 34.8m-.8-14c9.5.1 16.1-8.4 16.2-20.8s-6.5-21.2-15.9-21.2c-9.5 0-15.8 8.5-15.7 21.2 0 12.4 6.2 20.8 15.4 20.8" class="st11"/><path d="M1480.7 46.5c-4.7 3.9-9.3 7.8-14 11.7-2.5 2.1-5.1 3.9-7.7 5.8-7.3-11.6-8.2-24.6-3.5-37.9 4.6-13.1 12.8-20.7 23.8-21.1 13.5-.6 27.1 0 40.6.1-4.1 4.8-8.1 9.8-12.4 14.2-5.4 5.5-11.1 10.4-16.6 15.8-1.2 1.1-1.8 3.2-2.7 4.8-5.1 2.5-4.9-3.6-6.3-9.5-.8 4.6-1.1 6.8-1.4 8.9-1.8.7-3.5 1.3-4.7 1.8 1.8 2 3.4 3.7 4.9 5.4" class="st12"/><path d="M1219.7 261.1h11.2c0 15.9 1 31.9-.3 47.5-1.1 13.8-11.1 21.4-23.3 20.9-11.8-.5-19.9-9.1-21.7-22.9-.4-2.9-.5-5.8-.5-8.8v-36.9h12.1v31.2c0 3.7.1 7.5.5 11.1 1 8.5 4.2 12 10.7 12s10.4-3.9 10.9-12.7c.6-9.5.3-19.2.3-28.8.1-3.8.1-7.7.1-12.6m-483 84.5c-3.9.5-7.9 1-11.8 1.4-.1-23.3-.3-46.6-.4-70l11.5.3c.1.8.3 1.7.4 2.5.6-.4 1.1-.9 1.7-1.3 12.2-8.4 26.7-.3 28.9 16.7 3.2 24.5-10.7 39-27.3 32.3-.9-.4-1.8-.9-3.1-1.5.1 6.9.1 13.2.1 19.6m-.6-44c-.2 8.1 3.9 14.4 9.5 14.8 5.5.4 10.1-5.7 10.3-13.7s-3.9-14.4-9.5-14.7-10.1 5.6-10.3 13.6m159.6 20.1c1.5-4.4 2.6-7.7 3.9-11.4q5.85 2.7 11.4 5.1c1.2.5 2.4 1 3.6 1 4.6.1 10.6 1.5 11.6-6.2 1-7.1-5.1-6.8-8.7-8.4-3.8-1.7-7.9-2.6-11.6-4.5-5.5-2.8-9.2-8-9.2-16.2s2.9-14.5 8.5-17.9c10.5-6.3 20.8-4.5 31.3 2.2-1.3 4.1-2.4 7.7-3.6 11.6-3.7-1.4-7.1-3-10.6-3.9-2.3-.6-5.1-1.1-7.2-.1-2.4 1.2-4.2 4.1-6.3 6.3 1.9 2.4 3.4 5.8 5.7 7 4.5 2.4 9.4 3.2 14 5.2 5.9 2.5 9.9 7.5 10.1 16.1s-3 15.1-8.8 18.4c-11.6 6.6-22.7 3.8-34.1-4.3" class="st11"/><path d="M813.1 306.9h-28.4c2.7 8.9 8.5 13.1 14.4 8.4 6.3-5 8.9-1.1 11.8 4.8-6.7 10.4-21 12.4-30.8 4.3-6.4-5.3-10.3-23-7.3-32.8 3.4-11.3 16.2-18.8 26.1-15.4 11 3.8 15.8 13.8 14.2 30.7m-10.3-9.7c-1.3-6.7-4.2-9.7-9-9.8-5-.1-8.3 2.7-9.5 9.8z" class="st13"/><path d="M1153.7 320.5c-8.7 11.9-24.9 10.2-31.1 3.9-8.1-8.3-10.3-24.1-5.6-35.4 4.8-11.5 15.6-16.6 25.8-12.2 9.7 4.1 14.5 14.9 13 30h-28.5c2.6 11.1 9.8 12.9 20.4 5.2 2 2.6 4 5.5 6 8.5m-8.4-23.1c-1.9-8.5-5.9-10.8-11.4-9.8-4.1.8-6.8 3.7-7 9.8zm-312.2 30.5h-11.6v-51.8c4.3.6 8.3 1.1 12.3 1.6-.1.4-.2.7-.3 1.1 4.3-1.2 8.6-3.3 12.8-3.3 8.7-.1 14.7 7.2 15.2 18.6.5 11.1.1 22.2.1 33.7h-12.5c0-9.2-.3-18.4.1-27.6.3-6.7-2.2-10-6.6-11-4.8-1.1-9.2 3.7-9.4 10.2-.3 9.2-.1 18.5-.1 28.5m110-25.8c0-15.3 9.3-26.8 21.8-26.8 12.6 0 21.7 11.2 21.8 26.7.1 14.9-9.1 26.9-20.7 27.1-13.5.2-22.9-11-22.9-27m31.6 0c0-8.3-4.1-14.1-9.9-14-5.7.1-9.8 6-9.8 14.3 0 8.2 4.3 14.3 9.9 14.2 5.8-.3 9.8-6.2 9.8-14.5m58.6 26.6c-4.4-.8-8-1.5-11.6-2.1.1-.6.2-1.3.3-1.9-2.8 1.3-5.6 3.1-8.5 3.9-10.8 2.8-19.1-5.5-19.7-19.8-.4-10.3-.1-20.7-.1-31.7h11.6c0 8.2-.1 16.7 0 25.1.1 9.3 2.4 13.1 7.7 13.2 5.5.1 8.8-4.3 9-13 .2-8.2 0-16.5 0-25.3h11.2c.1 16.7.1 33.6.1 51.6" class="st11"/><path d="M1103.5 309.5c2.7 2 5.5 4.1 8.2 6.1-5 11.8-14.2 16.1-24.9 12.2-9.1-3.3-14.8-13.3-14.7-26.1.1-13.2 6-22.4 16.6-25.7 9.8-3.1 18.4 1.5 23 12.9-2.7 2-5.5 4-8.1 5.9-7.3-8-12.3-8.8-16.7-2.9-3.8 5-3.8 15.6-.1 20.5 4.4 5.9 9.7 5 16.7-2.9" class="st13"/><path d="M1056.1 327.6h-11.6v-51.5c4.2.6 8.2 1.2 12.3 1.8-.1.5-.2 1.1-.3 1.6 3.8-1.6 7.5-3.3 12-5.2v14.3c-11.7 3.2-12.4 4.4-12.4 20.4zm187.4-66.6h11.5v66.5h-11.5z" class="st11"/><path d="M321 38.5c.4 1.2 1.2 3.2 2.3 6.1 1.3-3 2.3-5.4 3.8-8.9 1.6 3.5 2.7 6.1 4.1 9.2.9-2.6 1.7-4.8 2.5-7 2-.2 4-.6 6-.6 1.8 0 3.6.4 5.4 2.6-1.5.3-3.1.6-5.9 1.2 2.8 1.6 4.6 2.7 6.7 4 1.8-5.3 3.8-10.8 9.5-6.7 4.3 3.2.9 7.7 1 11.6h-9.5c.1-.4.2-.7.3-1.1-3.2 1.1-6.4 2.1-9.6 3.2-.3-4.2-.5-7-.8-10.9-2.6 4.3-4.3 7.2-6 10.1-1.1-1.7-2.3-3.4-3.7-5.5-.9 1.7-2 3.6-3.8 6.9-1.8-4-3.3-7.3-4-8.9-2.4 2.6-4.5 6.8-7.1 7.3-5.3 1.2-5.8-4.8-6-10.2l-1.5-.6c-1.4 3.8-2.8 7.7-4.2 11.5-.5-.3-1-.5-1.5-.8V38.5zm21 9.3c0-.4.1-.8.1-1.1-1.4-.3-2.7-.6-4.1-.9 0 .5-.1 1-.1 1.6 1.3.1 2.7.3 4.1.4m209.2-2c-.6 1.9-1.3 3.7-1.9 5.6-.5 0-.9-.1-1.4-.1-.2-2.1-.1-4.2-.6-6.2-.3-1.5-1.3-2.8-2-4.2-.9 1.4-2.1 2.7-2.6 4.3-.5 1.8-.4 3.9-.6 5.9-.7.1-1.5.2-2.2.3-.2-4.4-.3-8.8-.6-15.2 4.6 1.6 8.3 2.9 12.9 4.6 4.6-5.8 9.8-6 12.6 1.7 3.6-6.6 7.6-7.7 10.9-2.5 3.8-1.1 6.9-2.1 10-3 .1 1 .3 2 .4 3-1.6.3-3.2.5-5.6.9 1.2 1.1 1.7 1.6 2.2 2.1 1.4 1.5 2.7 3 4 4.6-1.7 1.3-3.7 4.1-5.1 3.7-3.6-1.1-6.9-.6-10.5-.1-2.1.3-4.4-2.6-6.6-4-.9 2.3-1.5 6.4-3.4 8.2-1.8 1.6-4.9.8-6.8.9-.8-4.2-1.4-7.4-2.1-10.7-.1.1-.5.1-1 .2m23.7 3.5c3.6-.8 6-1.2 8.7-1.8-2.4-1.5-4.4-2.8-6.5-4-.5 1.5-1.1 3-2.2 5.8m-15.6 3.5c0-.4.1-.9.1-1.3h-3.9v1c1.2.1 2.5.2 3.8.3m11-6.7-.3 1.5h3c0-.3 0-.6.1-.9-.9-.2-1.8-.4-2.8-.6m-125.9-8.6c-1.6-.3-3.6-1.4-4.9-.6-1.7.9-4.1 3.3-4.1 5.1-.1 1.9 2.1 5.6 3.5 5.8 4.9.7 10 .3 15.3.3-1.1-6.1-11.3-3.4-6.6-12.7 1.2-2.3 5.7-1.7 8.6-2.4.1 1 .2 2.1.4 3.1-2.2.5-4.4.9-6.6 1.4-.1.7-.3 1.3-.4 2 6.5-.3 8.5 12.5 16.7 7.8-.7-5.4-11.9-2.7-6.2-12.4 2.1-3.7 5.9-2.5 8.6 1.6-2.2.3-4.3.6-8.3 1.1 2.7 1.8 4 2.3 4.9 3.4 1.6 1.9 2.9 4.1 4.4 6.2-2.1 1.5-4.2 4.4-6.3 4.3-5.8-.2-11.6-1.7-17.4-2.5-.8-.1-1.7 1.1-2.5 1.6-4.2 2.1-8.5 2.3-10.5-3.6-1-3.1-.4-8.8 1.2-11.2 3-4.6 7.1-4.4 10.2 1.7" class="st14"/><path d="M870.8 294.8h20.1v12h-20.1z" class="st2"/><path d="M126 45c3 .5 6.1 1.1 10.2 1.8-3.2 5.3-6.8 5.8-10.4 3.9-4.8-2.5-5.7-8-4.5-14 1.1-5.6 4.1-8.7 8.6-7.9 5.3.9 6.5 6 6.4 12.8h-9.7c-.3 1.2-.4 2.3-.6 3.4m-35.2-2.9h-9.9l-.3 2.7c3 .6 6 1.2 9.9 1.9-2.7 5.6-6.5 5.6-10 4-4.9-2.3-5.7-8-4.7-13.9.9-5.6 4-8.7 8.5-8.1 5.3 1 6.7 5.9 6.5 13.4" class="st11"/><path d="M284.7 52.6V32.2c4 1.2 8.6 1 11.1 3.9 1.8 2 2.2 10.5.7 12-2.8 2.9-7.4 3-11.8 4.5" class="st15"/><path d="M105.1 44.8c2.8.6 5.6 1.3 10 2.3-3.6-6.7-14.1-4.8-8.6-15.8 2.3-4.7 8-3 13 4.3-4.1-.7-6.9-1.2-9.7-1.7-.2.6-.3 1.2-.5 1.7 1.2.9 2.3 2.1 3.6 2.6 3.4 1.2 7 3.2 5.2 8.3-1 2.7-5 4.4-7.8 4.8-1.9.3-4-2.6-6-4 .2-1 .5-1.8.8-2.5" class="st11"/><path d="M695.2 41.6c2.2-1.5 4.5-3 6.7-4.5 1.5 4.1 3 8.1 4.6 12.2-.6 1-1.3 2-1.9 3-3.5-1.5-7-3-10.4-4.6-1.4-3.7-1.4-3.7-7.8-2 .6 1.8 1.1 3.6 1.7 5.4-4.5-1.3-5.6-4.8-3.8-10.2v-.2l1.8-2.4c.6-.4 1.2-.8 1.9-1.1.9.1 1.7.1 2.6.2.4.3.7.6 1.1.8l.1.1c1.1 1.2 2.3 2.3 3.4 3.3m-8.7-.8c-.1.4-.3.8-.4 1.2.3.2.7.6.9.4.2-.1.3-.8.4-1.2-.3-.1-.6-.3-.9-.4" class="st14"/><path d="M1300.3 348.6c1.2 3.3 3.3 6.6 3.4 10 .1 2-2.7 5.3-4.6 6-3.7 1.5-7.5.5-8.9-5.2-1.5-6.2 1.1-9.4 5.3-11.2.8 0 1.7-.1 2.5-.1l.5.3.6-.1q.6.3 1.2.3M61.5 28.3c1.6 4.1 3.3 8.1 4.9 12.2 1.5-3.8 3.1-8.1 4.7-12.3 1 .6 2 1.1 2.9 1.7-1.8 6.7-3.5 13.6-5.7 20.1-.2.5-4.3.1-4.6-1-2-6-3.3-12.3-4.9-18.5.9-.8 1.8-1.5 2.7-2.2" class="st11"/><path d="M524.6 34.3c.2 2.9.4 5 .7 8.4 1.4-1.7 2.3-3.7 3.2-3.7 2.7-.1 6.4-.8 7.8 1.1 1.3 1.8 0 6.7-.1 10.2-2.6-.2-5.3-.2-7.9-.9-1.1-.3-1.9-2-2.8-3-.3.7-.6 1.4-.8 2.2-.1-4.6-.1-9.1-.1-14.3m6.3 12.3v.8h3v-1.2c-1 .1-2 .2-3 .4" class="st14"/><path d="M713.7 39.8c1.4-.6 2.9-1.7 4.3-1.7 2.5.1 5.8-.1 7.4 1.9 1.2 1.4 1.2 7.4 0 8.7-1.7 1.9-5 1.7-7.5 1.7-1.4 0-2.7-1.5-4.1-2.4-5.3-2.7-3.9-5.4-.1-8.2" class="st15"/><path d="M93.1 40.1c0-2.1-.2-4.3.1-6.3.2-1.6 1-4.3 1.7-4.4 2.8-.4 5.6.1 8.4.2-.3 1.6-.4 4.4-.9 4.5-4.7 1.1-3.5 5.8-3.9 9.8-.3 2.6-1.6 5-2.5 7.5-.9-2.4-2-4.8-2.7-7.3-.5-1.3-.2-2.7-.2-4" class="st14"/><path d="M38 44.7c3.1 3 4.8 2.1 4.8-3.1 0-2.9-.3-5.9.1-8.7.2-1.5 1.7-2.8 2.6-4.1.7 1.3 1.8 2.5 2 3.9.3 3.1.7 6.6-.1 9.4-.9 3.3-2.4 7.6-4.5 8.7-3.1 1.6-7.3 2-8.8-4.4 1.3-.5 2.6-1.1 3.9-1.7" class="st9"/><path d="M674.9 36.3c-4.1 2.4-10.6-3.3-10.4 6.2.2 8.3 5.6 4.8 9.4 5.3-2.8 4.7-6.3 5-9.6 2.2-3.9-3.2-4.7-8.4-1.9-13.1 3.3-5.5 7.5-5.7 12.5-.6m-173.6 4.5.9 5.4c2.5-1.4 4.9-2.7 8.9-4.9-3.1-.3-4.9-.5-6.7-.6-.1-.7-.2-1.5-.3-2.2 2.2-.3 5.5-1.9 6.3-.7 2 3.2 2.9 7.7 4.3 11.6-.6.9-1.1 1.9-1.7 2.8-3.2-1.3-6.4-2.8-9.6-3.9-.5-.2-1.4 1.5-2.2 2.4.1-3.4.1-6.6.1-9.9M489.9 47c-4.9 5.5-9.3 5.8-11.9 1.6-2.7-4.2-2.7-8.8.1-12.9 2.9-4.2 7-3.8 11 1-3.4 2.1-10.4-3.9-9.6 6.4.6 7.7 5.7 3.9 10.4 3.9" class="st14"/><path d="M501.3 40.8c0 3.3 0 6.6-.1 9.9-.8-1.4-1.7-2.8-2.3-4.3-.8-1.8-1.4-3.8-2.1-5.7-.9 2-2 3.9-2.7 5.9-.5 1.4-.5 3.1-2.1 4.6V32.7c3.2 2.7 6.2 5.4 9.3 8.1" class="st2"/><path d="M745.6 40.4h-5.8c-2.7 10.2-2.7 10.2-3.6 9.9 3.4-14.8 3.4-14.8 9.4-9.9m-7.1 5.7-.3 1.5h3c0-.2 0-.5.1-.7-1-.3-1.9-.6-2.8-.8" class="st14"/><path d="M724.5 277c.1 23.3.3 46.6.4 70-.6-.5-1.1-.9-1.7-1.4 0-20.1 0-40.2.1-60.3.1-2.8.8-5.5 1.2-8.3" class="st16"/><path d="m38 44.7-3.9 1.8c-.3-4.9-.8-9.8-.9-14.7 0-1 1.8-2 2.7-3 .6 1.1 1.8 2.1 1.8 3.3.3 4.2.2 8.4.3 12.6" class="st12"/><path d="M713.7 39.8c-3.7 2.7-5.1 5.5 0 8.2-.1 1-.1 2.1-.2 3.1-1.5-.5-4.1-.8-4.2-1.5-.6-5.1-4-10.4.5-16.2 1.3 2.3 2.6 4.4 3.9 6.4m-30.8.4c-1.2 2.3-2.4 4.6-3.5 6.9-.7 1.5-1.3 3.1-3.3 4V35.9c2.5 1.6 4.6 2.9 6.8 4.3 0-.1 0 0 0 0" class="st14"/><path d="M51.4 41.6c-.1-2.9-.4-5.8-.1-8.7.2-1.5 1.6-2.8 2.4-4.1.7 1.3 1.9 2.5 2.1 3.9.3 2.3-.1 4.7-.1 7.1-1.4.6-2.9 1.2-4.3 1.8" class="st9"/><path d="M51.4 41.6c1.4-.6 2.9-1.2 4.3-1.8.1.5.3 1.1.2 1.5-.7 3.3-1.5 6.7-2.2 10-.8-3.2-1.6-6.4-2.3-9.7" class="st10"/><path d="M688 51.1c-.6-1.8-1.1-3.6-1.7-5.4 6.4-1.6 6.4-1.6 7.8 2-.8 1.1-1.6 2.1-2.5 3.2l-.3-2.4c-.3.9-.7 1.7-1 2.6-.7.1-1.5.1-2.3 0m7.2-9.5c-1.2-1.1-2.3-2.2-3.5-3.3 1.2 1.2 2.4 2.3 3.5 3.3" class="st15"/><path d="M738.1 278.5c-.6.4-1.1.9-1.7 1.3-.1-.8-.3-1.7-.4-2.5q1.2.75 2.1 1.2" class="st16"/><path d="M690.4 51.2c.3-.9.7-1.7 1-2.6l.3 2.4c-.4 0-.9.1-1.3.2" class="st14"/><path d="M687.9 37.3c-.6.4-1.2.8-1.9 1.1.7-.4 1.3-.7 1.9-1.1m-3.7 3.5v.2c-.4-.3-.8-.5-1.3-.8l-.1-.1c.5.2 1 .5 1.4.7" class="st15"/><path d="m1299.1 348.4-.6.1-.5-.3c.3 0 .7.1 1.1.2" class="st1"/><path d="M691.6 38.3c-.4-.3-.7-.6-1.1-.8.4.2.8.5 1.1.8" class="st15"/><path d="M674.8 409.6v13.9h-12.1c-.2-4.6-.3-9.3-.5-13.9.1-4.5-.2-9.1.3-13.5.7-7-1.7-10.5-6.6-10.9-5.2-.4-7.8 3.8-8.1 10.1-.3 4.7.1 9.5.1 14.3v13.9H636c-.2-4.6-.3-9.2-.5-13.9-.2-5.5.2-11.2-.9-16.3-.7-3.2-3.4-7-5.8-7.9-3.8-1.4-7.4 1.3-8 7-.7 5.6-.6 11.4-.9 17.2v14h-11.4c0-16.8-.1-33.6-.1-50.4 3.8.5 7.7 1 11.5 1.5.7 0 1.3 0 2 .1 8.3-5.5 15.9-5 22.9 4.1 5.9-6.4 12.4-9.7 20.1-6.3 6.3 2.8 9.5 8.5 9.7 17.1.1 6.6.1 13.3.2 19.9m513.1 15.3c-2.8.2-5.5.4-8.3.5-1.9-1.1-3.8-2.3-6.4-3.8.2 2.7.2 4.1.3 5.6-.1.8-.3 1.6-.3 2.3-.3 14.1-.3 14.1-12 13v-69.7c3.9.8 7.7 1.6 11.6 2.2.9.1 1.9-.3 2.7-.7 12.7-6.6 24.6-.4 28.1 14.7 3.8 16.4-2.8 31.6-15.7 35.9m4.8-26.6c0-8-4.2-14.2-9.8-14.3-5.7-.1-9.9 5.9-10 14 0 8.1 4.2 14.3 9.8 14.4 5.5.1 9.9-6.2 10-14.1" class="st11"/><path d="M1120.5 420.9c-.8 2.7-1.6 5.4-2.5 8-5.2 15-15.5 19-27.1 9.8q1.8-4.65 3.6-9.6c1.9.5 3.6 1.2 5.3 1.5 5.1.7 7.7-3.2 6.1-9.6-1-4-2.8-7.7-4.2-11.5-2.8-9.8-5.7-19.6-8.5-29.4-.6-2.2-1.2-4.5-1.9-7.1 1.3-.3 1.9-.4 2.5-.6 7.1-1.9 11.1 1.5 13.1 11 1.5 7.3 4.4 14.1 7.2 22.8 2.6-7.9 5.3-14 6.6-20.6 3.3-16.7 4.9-12.7 15.2-12.5-5.3 16.2-10.4 32-15.4 47.8m-524.1-8.3c2.9 6.2-1.2 7.9-4 9.5-12.5 7.3-23.9 2.7-32.3-12.6 0-6.8-1.1-14 .3-20.3 2.7-13.3 15-20.7 25.7-17 11 3.8 16.5 15.1 14.6 30.6h-28.4c2.8 11.1 9.7 12.7 20.1 5.3 1.3 1.5 2.6 3 4 4.5m-6.4-19.4c-1.3-6.7-4.2-9.7-9-9.8-5-.1-8.3 2.7-9.5 9.8zm-61.9 19.4c2.9 6.2-1.2 7.9-4 9.5-12.5 7.3-23.9 2.7-32.3-12.6 0-6.8-1.1-14 .3-20.3 2.7-13.3 15-20.7 25.7-17 11 3.8 16.5 15.1 14.6 30.6H504c2.8 11.1 9.7 12.7 20.1 5.3 1.3 1.5 2.6 3 4 4.5m-25-19.7h18.6c-1.6-7.1-4.9-9.7-9.8-9.4-4.6.2-7.5 3.1-8.8 9.4m216.5 20.2c3 6.6-1.6 7.6-4.3 9.1-12.7 7.2-23.5 2.8-32.1-12.7-1.3-7.9-2.5-15.4 1.1-23.3 5.8-12.6 14.3-17.7 25.2-13.6 10.8 4.1 15.6 13.7 14.6 30.1h-28.9c3.5 11.4 8.3 12.5 19.9 5.2 1.5 1.8 3 3.5 4.5 5.2m-6.3-19.7c-1.7-7.9-5.3-10.5-10.5-9.9-4.5.5-7.3 3.4-7.9 9.9zm633.2 18.2c.8 1.5 1.5 3 2.3 4.5-10.3 15.7-30.4 11.4-37.6-8.1-3.6-25.4 10.1-42.8 27.6-35.1 9.5 4.2 13.3 13.1 12.6 29.7H1323c1.9 9.4 10 13.7 16 7.9 3.6-3.6 5.2-1.4 7.5 1.1m-24.3-18.4h18.6c-1.3-6.7-4.2-9.7-9-9.8-5-.1-8.3 2.7-9.6 9.8" class="st13"/><path d="M940.6 409.6c-10.7 20.8-30.2 20.8-41.4-.2-.2-5.8-1.6-12.1-.4-17.4 3.7-16.8 17.1-24.8 30-19 11.3 5.2 16 19.6 11.8 36.6M910.8 398c-.1 8.3 4 14.4 9.6 14.5 5.7.1 9.9-5.9 10-14.1.1-8.1-4-14.2-9.7-14.4-5.7-.1-9.9 5.7-9.9 14" class="st11"/><path d="M1264.8 424.9c-3.2.2-6.3.4-9.5.5-3.3-2.5-7.1-4.4-9.9-7.6-5.6-6.4-7.8-21.9-4.8-29.4 5.4-13.2 15.2-19.6 25.8-16.6 10.5 2.9 16.9 12.9 17 26.2-.1 13.5-6.7 23.2-18.6 26.9m6.4-26.8c0-8.4-4-14.1-9.8-14.1-5.7 0-9.9 6.1-9.9 14.2 0 8 4.4 14.3 9.9 14.2 5.8-.1 9.8-5.9 9.8-14.3M1037 409.6v14.3h-10.6c-2.6 0-5.2-.1-7.8.4-11.8 2.2-19.5-1.2-19.8-16.3 2.5-10.1 6-13.9 13.9-14.3 3.8-.2 7.7 0 11.5 0-.3-10.8-6.5-12.6-19.8-5.7-1.2-3.1-2.5-6.4-3.7-9.5 7.8-8 20.9-9.5 28.7-3.5 5.1 3.8 7 9.9 7.2 17.3.3 5.6.3 11.5.4 17.3m-12.3-6.6c-3.5 0-6.6-.6-9.5.2-1.7.5-3 3.2-4.5 5 1.4 2 2.4 5.1 4.1 5.8 5.3 2.4 9.6-2.4 9.9-11" class="st13"/><path d="M1087.1 409.6v13.9H1075c-.2-4.6-.3-9.3-.5-13.9.1-4.5-.1-9 .3-13.5.5-6.7-2.3-9.9-6.6-10.9-4.9-1.1-8.9 2.9-9.3 9.3-.3 5 0 10.1.1 15.1v13.9h-11.9c-.2-4.6-.3-9.2-.5-13.9v-38.8c4.8 1.8 8.4 3.5 12.2 4.5 1.3.3 2.9-1.1 4.2-1.9 12.4-6.9 23.8 1.9 24 18.7-.1 5.8 0 11.7.1 17.5m-314.7 0v13.9h-12.6v-13.9c.1-4.5.2-9 .2-13.5 0-5.9-2.1-10-6.6-10.9-5-1-8.8 2.8-9.3 9.4-.4 5 0 10 .1 15-.2 4.4-.3 8.8-.5 14.2h-11.6c0-16.9-.1-33.8-.1-50.7 3.9.1 7.7.2 11.6.4 0 .9.1 1.8.1 2.7l2.1-1.5c15-9.1 26.5.2 26.5 21.5-.1 4.4 0 8.9.1 13.4" class="st11"/><path d="M846.7 409.6c-2.9 15.1-15 16.3-25.5 15.2-3.9-.4-7.6-3-11.8-4.7l3.4-10.2c1.5.1 3 .1 4.5.4 3.3.8 6.6 2.4 9.9 2.3 2.7-.1 5.3-2.4 7.9-3.6-2.5-1.5-4.9-3.5-7.5-4.5-2.4-1-5.2-.4-7.5-1.5-4.2-2.1-8.4-4.3-8.6-11.9-.2-9.2 1.9-15.4 7.3-17.7 8.7-3.6 17.4-3.1 26.3 2.4-1.4 3.8-2.6 7.2-3.8 10.5-16.2-3.9-16.2-3.9-19.3 3.5 4.5 1.3 8.7 2.7 12.9 3.7 7.7 1.9 10.7 5.9 11.8 16.1" class="st2"/><path d="M1396.5 411.4c-4.2 12.3-12.6 14-21.2 13.6-6.8-.4-12.9-3.9-16.1-13-.5-1.5-1.7-2.7-2.5-4.1 0-2.9 0-5.8-.1-8.7-.2-11.2 3.4-19.7 11.1-24.5 8.2-5.2 16.5-5 24.1 2.2 1.9 1.9 3.1 5.1 4.6 7.6-5 4.2-9 7.9-14.6 1.5-3.4-3.9-8.4-2.3-11.5 3.1-2.7 4.7-2.6 15.2.7 19.1 3.3 4 7.5 7.1 11.6 1.7 5.4-7.3 9.4-1.2 13.9 1.5" class="st13"/><path d="M887 409.6v13.9h-11.8c-.2-4.6-.4-9.3-.6-13.9V386c-1.6-.3-3.3-.7-5.4-1.1v-11.3c1.7-.3 3.4-.7 5.3-1.1 1.6-20.5 11.2-23.2 25-18.5-1.1 4-2 7.4-2.9 10.6-9.1-.5-9.2-.4-9.7 8 1.6.1 3.2.3 4.8.3 1.4.1 2.8 0 4.5 0V385c-2.9.2-5.9.4-9.2.6z" class="st2"/><path d="M804.9 411.3c4.2 10.9 3.5 12.8-5.9 13.7-9.2 1-11.9-1.6-16.1-15.4.1-2.4.2-4.8.2-7.2v-16.5c-2-.3-3.9-.6-5.9-1v-11.2c1.8-.4 3.7-.8 5.7-1.3.1-3.8.3-7.4.4-11.5H795c.2 3.7.4 7.5.6 11.8h9.1v12.4h-9.2c0 7.5-.5 14.7.1 21.6.7 8.1 5.3 6 9.3 4.6" class="st13"/><path d="M1416.4 408c1.4 1.6 3.3 4.9 4 4.5 7.5-4 6.1 4.7 8.1 8.7-11.3 8.4-24.1 3.5-24.6-13.2v-22c-1.6-.3-3.3-.6-5.4-1.1v-11.2c1.6-.4 3.3-.8 5.4-1.3.2-3.5.3-7.1.6-11.3h11.3c.2 3.5.4 7.1.6 11.6 2.8.2 5.8.3 9 .5v11.9h-9.1c.1 8.2.1 15.5.1 22.9" class="st2"/><path d="M1302.9 428.8c-2.8 10.6-8.2 15.6-17 14.6-7.9-.9-8.9-2.9-4.9-12.6.8-.1 1.6-.4 2.4-.2 6.3 1.9 7.7-2.2 7.6-9.5-.3-15.8-.1-31.6-.1-48.7 4.4.3 8.2.6 12.1.9-.1 18.4-.1 36.9-.1 55.5" class="st13"/><path d="M552.6 409.6c-.2 4.4-.3 8.8-.5 14.2h-11.6c.1-23.9.2-47.7.2-71.6h11.9z" class="st2"/><path d="M961.4 409.6v14.1h-11.2V373c3.9.3 8.6-3.5 11.4 2.8 3.9-1.7 7.9-3.5 12.6-5.5V385c-12.2 1.8-13.6 4.7-12.8 24.6m251.1-36.7c4 0 8.5-3 11.7 2.7 3.6-1.6 7.7-3.3 12.3-5.3V385c-11.2 1.7-13 4.3-13 19.1v19.6h-11z" class="st11"/><path d="M540.7 352.2c-.1 23.9-.2 47.7-.2 71.6-.5-4.7-1-9.5-1.5-14.2 0-16.5 0-32.9.2-49.4 0-2.7 1-5.3 1.5-8" class="st16"/><path d="M1302.9 428.8c0-18.5.1-37 .1-55.5.4 8.4.7 16.8 1 25.2.1 3.2.1 6.4.2 9.6-.4 6.8-.9 13.7-1.3 20.7" class="st8"/><path d="M1212.5 372.9v50.7c-.4-2.9-1-5.8-1.1-8.8-.1-11.6-.1-23.1 0-34.7.1-2.3.7-4.8 1.1-7.2" class="st10"/><path d="M608.4 373.2c0 16.8.1 33.6.1 50.4-.4-4.7-.8-9.3-1.2-14 .1-9.6.1-19.2.3-28.8-.1-2.5.5-5.1.8-7.6" class="st17"/><path d="M950.2 372.9v50.7c-.4-4.7-.9-9.4-1.3-14.1.1-9.8.1-19.6.3-29.4 0-2.3.7-4.7 1-7.2" class="st10"/><path d="M731.8 373c0 16.9.1 33.8.1 50.7-.5-4.7-1-9.5-1.5-14.2 0-9.7 0-19.4.2-29.2.1-2.3.8-4.8 1.2-7.3m13.9 1.6-2.1 1.5c0-.9-.1-1.8-.1-2.7.7.4 1.4.8 2.2 1.2" class="st16"/><path d="M621.9 374.8c-.7 0-1.3-.1-2-.1.7 0 1.3 0 2 .1" class="st17"/><path d="M891.7 522.3c.7.3 1.4.6 2.2.9.7 1.6 1.3 3.2 2 4.7.6-1.4 1.3-2.7 1.8-4.2.6-1.7 1.1-3.4 1.7-5.1.7 1.8 1.5 3.5 2 5.3.3 1.2.3 2.5.5 3.8.5.2.9.5 1.4.7.7-1.7 1.4-3.5 2.1-5.2h2c1.7 9.2 7.8 3 11.5 5.4 1.1.7 3.9-3.4 6-5.4h5.7c.7 1.7 1.5 3.4 2.2 5.1.5-.3.9-.5 1.4-.8.2-2.8.4-5.7.6-8.5l1.8-1.2c1.4 3.3 2.8 6.5 4.3 9.9 2.2-2.3-1.2-11.2 5.5-8.5.3 3 .6 5.7 1 9.4 1.5-1.4 2.5-2.9 3.3-2.9 5.9.6 11.7 1.9 17.6 2.1 2.7.1 6.5-3.7 7.9-2.3 5.7 5.3 8.9 2.4 11.7-4.2 2.4.6 4.9 1.2 7.3 1.8 1.9 8.4 4.4 4.4 6.7.3 4.8 6.3 4.9 6.2 7.8-2 2.9.6 5.9 1.1 8.8 1.7 2.2 7.5 6.6 4.5 10.6 4.5.3-3.3.6-6.1.9-8.8 3.4.4 3.4.4 6.2 10.7.8-3 1.3-4.7 1.8-6.3h6.2c3.7 5.8 8.2 6.6 13.2 3.2.4 0 .8.1 1.2.1 2 .9 4.3 3.2 5.8 2.5 3.8-1.9 6.9-2 10.7 0 1.5.8 4.4-2.8 6.7-4.4-1.3-2.2-2.4-4.6-3.8-6.6-.8-1.1-2.2-1.6-3.3-2.4.1-.5.1-1.1.2-1.6 2.2-.2 4.5-.3 6.7-.5 3.4 4.5 7.6 5.1 12.2 5.1 156.1-.1 312.2 0 468.3-.2 25 0 49.9-2.1 74.8-1.2 18.5.7 37 4.2 55.4 7.2 16.6 2.8 33.1 6.4 49.7 10.1 4.6 1 9 3.1 13.4 5.1 11.9 5.2 23.8 10.5 35.5 16.1 13.3 6.3 27 11.8 39.7 20 9.3 6 17.2 15.8 25.5 24.2 9.9 10.1 20 19.9 29.1 31.1 6.4 7.9 11.5 17.8 16.9 27 2.2 3.8-.2 11.9-4 13.5-5.5 2.2-11.2 3.8-16.8 5.5-9.2 2.8-18.4 6.1-27.7 8.1-12.1 2.6-24.3 4.6-36.5 6.1-19.7 2.4-39.4 4.3-59.2 6.3-7.7.8-15.3 1.4-23 1.7-15.4.7-30.8 1-46.2 1.8-1.9.1-3.7 1.8-5.6 2.8h-14.6c-2.4-1-4.9-2.9-7.3-2.8-8.6.6-17.6-3-25.8 3.3-1.4-.1-2.8-.3-4.3-.3-106.3 0-212.5 0-318.8.1-9.3.2-18.7.5-28 .7-2.4-.2-4.8-.7-7.2-.7-45.5 0-91-.1-136.5 0-59.9 0-119.8.1-179.7.2-8.7-.3-17.4-.6-26.1-.8-.3 0-.5 1.3-.8 2-2.1-.5-4.3-1.3-6.4-1.3H609.7c-9.3.2-18.7.5-28 .7-2.4-.2-4.8-.7-7.2-.7H269.2c-2.4 0-4.9-.2-7.3-.3-1.9-1-3.7-2.7-5.6-2.8-9.1-.3-18.3.3-27.4-.2-22-1.3-44-3.1-66-4.6-9.5-.7-19-.6-28.5-1.8-17.5-2.1-35-4.4-52.3-7.5-14.9-2.7-29.7-6.3-44.5-10.3-4.9-1.3-9.7-4.6-14.2-8-3.9-3-4-8.2-1.1-12.3 10.4-14.5 20.9-28.8 31.6-42.9 4.7-6.2 10.7-10.8 15-17.4 6.3-9.8 14.6-14.4 23.4-17.4 20.8-7.2 38.7-22.1 56.9-35.7 11.1-8.3 23.1-9 34.7-13.2 10.3-3.8 20.6-3.5 31.3-1.9 17.4 2.7 34.2-2.5 50.8-9.2 2.7-1.1 5.5-1.7 8.3-1.7 20.1-.1 40.2-.1 60.3-.1 165.2.5 330.3 1.1 495.5 1.6 0 4.8.7 8.7 5.2 9.8 4.4 1.1 5.1-2.9 6.2-6.6h4.5c8.7 9.7 9.6 9.5 13.4-3.1.4 0 .8-.1 1.2-.1.2 3.2.4 6.4.7 9.6.6.1 1.2.2 1.8.4 1-3.4 2.1-6.8 3.1-10.2l1.5.6c.3 3 .7 6 1 9l1.8.6c.8-3.3 1.6-6.5 2.3-9.8.5-.1.9-.3 1.4-.4.7 3.2 1.4 6.4 1.7 7.8 3.5.8 6 1.5 8.6 1.9 3.7.4 7.1.9 7.2-5.7m888 165.7c1.6 1.1 3.2 3.1 4.8 3 7.6-.2 14.9 0 22.5-3.4 9-4 19.2-2.6 28.7-4.9 15-3.6 29.8-8.3 44.7-12.6 3.8-1.1 5.5-3.9 2.8-8.6-3.1-5.5-6-11.6-9.9-16-10.6-12-21.3-23.7-32.5-34.6-15.6-15.1-32.7-27.4-51.7-32.8-18.7-5.3-37-11.1-54.4-21.8-9-5.5-18.6-9.1-28.9-7.6-16.1 2.4-31.8-.5-47.4-5.3-13.5-4.2-27-6.6-40.9-6-20.1.9-40.2 1.7-60.2 1.6-425.1-.4-850.1-1-1275.2-1.5-3 0-6.2-.1-9 .9-23.7 8.6-47.9 12-72.3 15.3-18.9 2.6-37.4 8.9-54.7 19.9-10 6.4-20.2 12.3-30.3 18.5-11.9 7.3-24.9 12.7-35.5 22.6-13.6 12.7-25.3 28.9-37.7 43.9-1.6 1.9-2.2 5.2-3.3 7.9 2.3 1.3 4.5 2.6 6.8 3.7 1.1.5 2.4.5 3.6.9 8.5 2.9 17 6.8 25.6 8.6 16.7 3.5 33.5 5.9 50.3 8.5 14.9 2.3 29.9 4.8 44.9 6 16.2 1.3 32.4 1.4 48.6 1.7 29 .6 58 1.6 87.1 1.6 441.9-.4 883.8-1 1325.8-1.6 35.7-.1 71.5-1 107.2-1.6 1.7 0 3.4-1 5.1-1.5 3.4-.5 6.8-1.1 10.2-1.6 8.4-1.1 16.8-2.1 25.2-3.2" class="st18"/><path d="M1635.7 704.3c8.2-6.3 17.1-2.7 25.8-3.3 2.4-.2 4.8 1.8 7.3 2.8-4.9-.6-7.3 4.1-9.9 8.3-5.7 0-11.5.1-17.2.1-2-2.7-4-5.3-6-7.9" class="st7"/><path d="M1878.7 886.5c4.9 0 9.8.3 14.7-.1 5.4-.4 10.7-1.6 16.1-2 1-.1 2.1 2.5 3.2 3.8-1 1.2-2 3.4-2.9 3.3-9.8-.5-19.6-1.3-29.4-2.1-.5 0-1.1-.5-1.6-.7-.2-.7-.2-1.5-.1-2.2" class="st8"/><path d="m1907.5 880.1 2.1 2.4c-.8 1-1.5 2-2.2 3-.4-1.1-.9-2.3-1.3-3.4.4-.7.9-1.4 1.4-2m1.8 13.1c-.7.8-1.4 1.6-2.1 2.5-.2-.2-.4-.4-.6-.7.6-1 1.2-2 1.7-3 .3.3.7.8 1 1.2" class="st8"/><path d="M1058.9 409.6c-.1-5-.4-10.1-.1-15.1.5-6.5 4.4-10.5 9.3-9.3 4.3 1 7.1 4.2 6.6 10.9-.4 4.5-.2 9-.3 13.5zm-314.8 0c0-5-.4-10.1-.1-15 .5-6.6 4.3-10.4 9.3-9.4 4.5.9 6.6 5 6.6 10.9 0 4.5-.2 9-.2 13.5zm-124.2 0c.3-5.7.2-11.5.9-17.2s4.3-8.4 8-7c2.4.9 5.1 4.7 5.8 7.9 1.1 5.1.7 10.8.9 16.3zm27.9 0c-.1-4.8-.4-9.6-.1-14.3.4-6.3 2.9-10.6 8.1-10.1 5 .4 7.4 3.9 6.6 10.9-.5 4.4-.2 9-.3 13.5zm525.7 17.6c-.1-1.5-.2-2.9-.3-5.6 2.6 1.5 4.5 2.7 6.4 3.8-2 .6-4.1 1.2-6.1 1.8" class="st1"/><path d="M49.9 923.3c-10.1-6.4-16.2-15.8-18.7-31.1-2.1-12.9-.9-21.3 6.9-29.9 9.5-10.6 17.9-23.1 27.1-35.2 8 8.6 15.9 17.1 23.8 25.6-1.9-1-4-1.6-5.6-3.1-4.9-4.5-9.6-9.3-14.9-14.4 2.2 25.1 6.7 33.8 20.7 43 4-3.9 7.6-7.3 10.7-10.3-4-5.6-7.4-10.4-10.8-15.1 10.1 6.4 16.2 15.8 18.7 31.1 2.1 12.9.9 21.3-6.9 29.9-9.5 10.7-17.9 23.1-27.1 35.3-8-8.8-15.9-17.3-23.9-25.8 1.9 1 4 1.6 5.6 3.1 4.9 4.5 9.6 9.3 14.3 13.9 1.2-22.2-8.6-34.4-20.7-42.7-3.7 3.9-7.2 7.5-10.2 10.6 4.2 5.6 7.6 10.3 11 15.1m56.2-28.9c.3.1.6.3.8.4-.2-.1-.5-.3-.8-.4-.9-7.3-1.8-14.7-2.9-23.7-3.5 5.1-6 8.7-9 12.9 3.8 3.4 7.8 7.1 11.9 10.8m-73.2-12.8c-.3-.1-.6-.3-.8-.4.3.1.6.3.8.4.9 7.3 1.8 14.7 2.9 23.7 3.5-5.1 6-8.7 9-13-3.7-3.3-7.8-7-11.9-10.7m72.6 18.6c-3.4-3.4-7.3-7.2-11-11.3-2.4-2.7-4-2.4-6.1.6-5 7-10.5 13.4-15.3 20.5-1.5 2.2-2.4 6.2-2.1 9 .8 7.5 2.5 14.8 3.7 21.4 10-13.1 20.2-26.4 30.8-40.2m-41-64.3c-10.1 13.2-20.3 26.6-30.7 40.2L48 890.3c6.6-8.8 12.9-16.9 18.9-25.5 1.1-1.6 1.6-4.9 1.3-7.2-1.1-7.7-2.6-15.3-3.7-21.7m7.9 31.1c-7.1 9.3-13.7 18.1-20.6 27.1 4.1 4.1 8.8 8.8 13.5 13.3.9.9 3.1 1.4 3.7.7 6.5-8.1 12.8-16.5 19.5-25.2-6.2-6-11.5-11.3-16.1-15.9" style="fill:#0953fd"/><path d="M1036.9 484.8c-.7 2.5-1.3 5-2.1 7.9-3.9-.7-9.1 4.2-9.9-7-4 9.3-7.1 9.5-10.8 3.9-4.7 1.5-8.8 2.8-13.6 4.4.5-4.7.9-7.7 1.2-10.8.9-3.3 1.8-6.6 2.6-9.6 3.7 3.6 6.8 6.7 8.4 8.3 4.7-.7 8.3-1.2 11.9-1.8.4.5.7 1 1.1 1.5v.2c.1 1.4.1 2.9.2 4.3 2.8-.9 5.1-1.6 7.3-2.4 0-.4 0-.8-.1-1.2-1.9-.4-3.7-.7-5.6-1.1 5.7-4.8 7.7-4.1 9.4 3.4" class="st20"/><path d="M801.5 480c-3.5 3.6-3.9 7.5-.2 11.6-7.2 4.2-4.6-5.6-7.7-9.1-.5 3.7-.9 6.5-1.3 9.4-5.6.5-11.2 2.2-16.6 1.1-2.9-.5-5.3-5.6-8.4-9.3-.6 2.4-1.3 5.5-2.1 8.7-.3.1-.7.1-1 .2-.3-3.1-.5-6.3-.8-9.4.4-1.4 1.1-4 1.2-4 5.5 2.2 11.7-3.5 16.7 2.7 1.7 7.9 5.1.6 7.7.8-1.9-.4-3.9-.8-5.8-1.2 2-.9 3.9-2.1 5.9-2.7 2.6-.7 5.3-.9 8-2.9 1.5 1.4 2.9 2.8 4.4 4.1m368 3.3c-.2 3.2-.3 6.4-.5 9.6h-1.8c-.4-2.8-.9-5.7-1.3-8.6-3.7-.2-3.7-.2-5.5 8.1-1.4-3.2-2.8-6.5-4.2-9.8-.6.4-1.2.8-1.8 1.1-.2 2.8-.4 5.7-.5 7.2-3.3.7-6.1 1.5-8.9 1.7-1.9.1-5.4-.5-5.5-1.3-.5-3.6.1-7.4.2-11.2 4-2.6 7.4-2 9.8 3.4 2-6.4 16-6.6 20-.2m-200.7-.1c-.6 2.9-1.3 5.8-2.2 10-2.8-.8-5.9-1.7-8-2.3-3.9.8-7 1.4-10.2 2-.1-.9-.2-1.7-.3-2.6 1.6-.4 3.1-.8 4.1-1-1.4-2.4-3-5.1-4.5-7.8l8.7-1.5c-.1 2.1-.2 4.3-.3 6.4.5 0 1 .1 1.4.1.4-1.7.8-3.4 1.1-5.1 3.8-4 7.3-3.8 10.2 1.8m-14.6 1.1c.1-.4.1-.8.2-1.2l-2.7-.9c-.1.5-.2 1-.3 1.4 1 .3 1.9.5 2.8.7m164.4-1.1c-.2 2.9-.4 5.7-.6 8.8-5.5 1.6-10 2.1-12-6.9-.4-1.7-4-2.3-6.2-2.9-.4-.1-2 3-1.8 3.4 1 1.6 2.3 2.9 3.7 3.9.8.6 1.9.3 3.2.4-6.1 5.9-9.6 3.6-10.6-6.6 3.8-6.5 9.5-2.9 14.3-4.4.5-.2 1.6 2.8 2.5 4.3.6 2.1 1.2 4.2 1.8 6.2.6-2.1 1.3-4.2 1.9-6.3.5-1.6.9-3.1 1.9-6.3 1 3.3 1.4 4.8 1.9 6.4" class="st21"/><path d="M1059.2 481c-4.9 2.3-5.2 6.1-1.8 10.9-2.3.5-2.3.5-6.6-12.2-1 4.7-1.8 8.5-2.6 12.2-9.3 2-9.7 1.7-9.6-6.8.7-2.2 1.5-4.5 2.2-6.7.4.1.8.1 1.2.2.2 1.5.4 3.1.7 4.6-.3 2-.7 4-1 6 .8.4 1.5.8 2.3 1.2.9-2.4 1.7-4.8 2.6-7.2 3-2.5 6-4.9 9.2-7.6 1.2 1.9 2.3 3.6 3.4 5.4m32-3.1c-1.2 5-2.4 9.9-3.6 15-3.2 0-6-.1-8.9 0-4.7.2-8.5-.4-5.6-8.7.3-1-.6-2.8-1-4.2 1.9-.3 3.9-.5 5.8-.8-.6 3.3-1.3 6.5-1.9 9.8.7.4 1.5.9 2.2 1.3 1-2.2 1.9-4.5 2.9-6.7.6-1.6 1.1-3.2 2.1-5.9 1 2.5 1.6 4 2.9 7.3 1-4 1.4-6.4 2.1-8.6.4-1.1 1.6-1.8 2.4-2.7z" class="st20"/><path d="M1136.9 480c-3.4 3.6-4 7.4.4 12.1-3.9 1.2-6.1.5-6.3-4.3-.3-7.5-3.8-6.1-7.5-5.7 2.2 3 3.9 5.3 5.5 7.6-2.7 1.4-5.3 2.8-8.1 4.3-.6-4.8-.9-7.7-1.3-10.7 1.8-1.5 3.6-3.6 5.6-4.5 2.3-1 4.9-.9 8.7-1.5.1 0 1.6 1.4 3 2.7m-209.7 3.2c-.2 2.8-.3 5.7-.5 8.5-9.7 2.8-12.2.4-10.7-10 3.3-2.3 6.5-4.6 10.4-7.4.2 2.5.5 5.7.8 8.9m-47.9.1c-1.5 4.8-1 8 4.1 7.7-16.4.6-16.4.6-15.8-10.7 4.1-.6 8.7-3.9 11.7 3" class="st21"/><path d="m988.7 482.8-6.1 6.1c-2.2-2.3-4.6-4.8-7-7.3 2.3-3.1 4.5-6.2 7.2-9.9 1.9 3.6 3.9 7.4 5.9 11.1" class="st20"/><path d="M752.5 481.6c-.2 7.9.5 8.6 8.7 9-2 1-4 3.1-6 2.9-4.6-.4-6.6-5-7.7-10.4 5.5-10.1 7.8-11 13.7-5.9-2.8 1.5-5.7 3-8.7 4.4m106.1 1.6c-.1 2.9-.2 5.8-.4 9.2-3.8-.3-8.3 4.4-10.1-3.2-.3-1.2 3.6-4.1 5.8-6.5-1.7-.3-3.8-.8-6-1.2 4-4.1 7.7-4.4 10.7 1.7m-45 0c-2 2.1-3.9 4.1-5.6 5.9.6.1 2.2.5 3.8.9v2.4c-2.5 0-6.8.8-7.1-.1-.9-3.7-.5-8-.6-12.1 3.9-2.8 7-1.6 9.5 3m32.6-1.4c-.2 3.7-.5 7.5-.7 11.2-.8-.2-1.7-.3-2.5-.5.1-2.6.2-5.3.3-8.3-6.9-4.1-4 5.7-7 9.6-.3-4.9-.6-8.6-.8-12.3.2-2.5.4-5 .7-7.8 3.5 3 6.8 5.5 10 8.1m-12.6-.6c-1.7.4-3.3.7-6.3 1.4 1.9 1.2 2.7 1.5 3.3 2.1 1.2 1.4 2.3 3 3.4 4.6-1.9 1.4-3.8 3.2-5.8 4-.5.2-1.9-3-2.5-4.9-.6-1.6-.8-3.5-1.1-5.3 2.4-4.9 5.2-7 9-1.9m66.9 2c-.1 2.9-.3 5.8-.5 11.1-3.6-1.9-6.5-3.5-9.4-5.1 1.8-2.1 3.7-4.2 5.7-6.4-1.4-.4-3.4-.9-5.4-1.5 3.8-4.5 6.9-3.6 9.6 1.9m13.2-1.6v10.7l-1.8.3c-.3-1.9-.4-3.9-.9-5.6s-1.5-3.2-2.2-4.8c-.8 1.5-1.9 2.9-2.4 4.6-.5 1.8-.5 3.8-.7 5.7-.6.1-1.1.2-1.7.2l-1.2-9.6c1.9-5.4 5.6-5.9 10.9-1.5m31.4-3v13.3c-8.9 2.1-9.4 1.7-10.6-8.6 1.1-1.6 2.1-3.1 3.2-4.7.9 3.6 1.8 7.3 2.6 10.9 1-3.6 1.9-7.3 2.9-10.9.6-.1 1.3-.1 1.9 0m127.2 1.5c-1.5 1.6-3 3.2-4.6 4.9-1.4-.9-3.3-2.1-5.2-3.3 1.7-1.4 3.4-2.9 5-4.3 1.5.5 3 .9 4.6 1.4 0 .3.1.8.2 1.3" class="st21"/><path d="M943.2 478.5c-1 3.6-1.9 7.3-2.9 10.9-.9-3.6-1.7-7.3-2.6-10.9.9 1.3 1.8 2.5 2.9 4 .9-1.4 1.7-2.7 2.6-4m138 5.1c-1 2.2-1.9 4.5-2.9 6.7-.7-.4-1.5-.9-2.2-1.3.6-3.3 1.3-6.5 1.9-9.8 1.1 1.4 2.1 2.9 3.2 4.4m-34.6-.4c-.9 2.4-1.7 4.8-2.6 7.2-.8-.4-1.5-.8-2.3-1.2.3-2 .7-4 1-6zm68.3 0c-.6 2.1-1.3 4.2-1.9 6.3-.6-2.1-1.2-4.2-1.8-6.2 1.1-.1 2.4-.1 3.7-.1m-53.2-9.6c1.2-.2 2.4-.5 3.7-.6.1 0 .5 1.8.4 1.9-1.1.7-2.3 1.3-3.5 1.9-.3-1.1-.4-2.1-.6-3.2m-278.4 7.9c1.9.4 3.9.8 5.8 1.2-2.6-.2-6 7.1-7.7-.8.6-.1 1.2-.2 1.9-.4m244.3 0c1.9.4 3.7.7 5.6 1.1 0 .4 0 .8.1 1.2-2.3.7-4.6 1.5-7.3 2.4-.1-1.5-.1-2.9-.2-4.3.6-.1 1.2-.3 1.8-.4m44.5-2.8c-1.5-.5-3-.9-4.6-1.4.9-1 1.8-2 2.7-3.1.7 1.5 1.3 3 1.9 4.5m-113.5 2.8c-.4 1.7-.8 3.4-1.1 5.1-.5 0-1-.1-1.4-.1.1-2.1.2-4.3.3-6.4.7.5 1.4 1 2.2 1.4m67.2.2c-.4-.5-.7-1-1.1-1.5.4.5.7 1 1.1 1.5" class="st6"/><path d="M262.3 703.7c2.4.1 4.9.3 7.3.3h305.3c2.4 0 4.8.5 7.2.7 2 2.9 4 5.9 6.1 8.9-.1 3.2-.2 6.4-.2 9.6v332.6c0 12.4-2.9 16.2-12.3 16.2H266c-9.4 0-12.3-3.8-12.3-16.2V720c0-2.7-.1-5.3-.1-8 2.9-2.8 5.8-5.5 8.7-8.3m279.2 215.9v-.6H300.2v.6zm-193.7-22.9c.8-.1 1.6-.1 2.4-.2-.5-4.3-.2-11.6-1.8-12.5-4.4-2.4-9.7-2.1-15.5-3 .3 6.8.5 11.5.7 16.3h2c.7-4.1 1.3-8.3 2-12.4.6 0 1.2.1 1.8.1.5 4 1 8 1.5 11.9.5-.1 1.1-.1 1.6-.2.1-2.5 0-5 .4-7.4.2-1.5 1.2-2.8 1.9-4.2.8 1.3 2.1 2.4 2.4 3.8.6 2.5.5 5.2.6 7.8m-32.3-7.2-7.8-13c-.4.4-.8.9-1.2 1.3v18.9c.5.1 1 .1 1.5.2.3-3.6.6-7.1.9-11.9 3 4.9 5.4 8.9 7.7 12.9.4-.4.8-.9 1.1-1.3v-18.9c-.5-.1-1-.1-1.5-.2-.1 3.5-.3 6.9-.7 12m15 9.1c.7-1 1.5-2.1 2.2-3.1-1.4-4.6-2.5-9.4-4.6-13.5-.5-.9-4.3 1.1-6.6 1.8.1.7.3 1.4.4 2h4.9c-2 3-3.9 5.9-5.8 8.8 3.2 1.3 6.3 2.7 9.5 4m24-5.3c-.1-.9-.2-1.7-.3-2.6 2.6-.6 5.1-1.2 7.7-1.8l.9-2.4c-2.2-1.6-4.5-4.7-6.5-4.5-1.8.2-4.6 4.1-4.7 6.4-.1 2.9 1.7 7 3.6 8.7 1.2 1.1 4.2-1.2 6.4-2l-.6-1.8zm606.8-189.1c59.9-.1 119.8-.1 179.7-.2h136.5c2.4 0 4.8.5 7.2.7 2 2.9 4 5.9 6.1 8.9-.1 36.5-.2 73-.2 109.5v232.7c0 12.4-2.9 16.2-12.3 16.2H968.6c-9.4 0-12.3-3.8-12.3-16.2V723.2c0-3.2-.1-6.4-.2-9.6 1.8-3.1 3.5-6.3 5.2-9.4M1091.8 872c-.4.8-.8 1.6-1.3 2.4l.1.5c-.4.9-.9 1.8-1.3 2.7l.1.5c-3.6 6.1-3.6 13.9 0 20l-.1.5c.4.9.9 1.8 1.3 2.7l-.1.5c.4.8.8 1.6 1.3 2.4v-.1c.4.6.8 1.1 1.3 1.7l-.1-.1c.4.6.9 1.1 1.3 1.7l-.1-.1c.5.6 1 1.1 1.4 1.7 2.4 1.5 4.7 3 7.1 4.5 2.1.6 4.1 1.8 6.2 1.8 8 .2 16.1.2 24.1 0 3.3-.1 6.6-1 9.9-1.5l7.2-4.8c.5-.6 1-1.1 1.4-1.7l-.1.1c.4-.6.9-1.1 1.3-1.7l-.1.1c.4-.6.8-1.1 1.3-1.7v.1c.4-.8.8-1.6 1.3-2.4l-.1-.5c.4-.9.9-1.8 1.3-2.7l-.1-.5c3.6-6.1 3.6-13.9 0-20l.1-.5c-.4-.9-.9-1.8-1.3-2.7l.1-.5c-.4-.8-.8-1.6-1.3-2.4v.1c-.4-.6-.8-1.1-1.3-1.7l.1.1c-.4-.6-.9-1.1-1.3-1.7l.1.1c-.5-.6-1-1.1-1.5-1.7-2.3-1.5-4.7-3.1-7-4.6-1.1-.6-2.2-1.6-3.2-1.6q-16.95-.15-33.9 0c-1.1 0-2.1 1.1-3.2 1.8-2.4 1.5-4.7 3-7.1 4.5-.5.6-1 1.1-1.4 1.7l.1-.1c-.4.6-.9 1.1-1.3 1.7l.1-.1c-.5.4-.9 1-1.3 1.5-.1 0 0 0 0 0M610.1 704.1c106 0 211.9-.1 317.9 0 2.1 0 4.3.9 6.4 1.3 1.7 2.7 3.4 5.5 5 8.2-.1 3.2-.2 6.4-.2 9.6v332.6c0 12.4-2.9 16.2-12.3 16.2H617.2c-9.4 0-12.3-3.8-12.3-16.2V723.2c0-3.2-.1-6.4-.2-9.6 1.9-3.2 3.6-6.4 5.4-9.5m119.3 163c-4.9 7.2-4.7 8.1 1.9 11.8 3.1 1.8 6.1 4 9.2 6-3.8-.4-7.7-1-11.5-1.1-1.6 0-3.5.4-4.8 1.6-.6.6-.7 4.2-.1 4.9 1.2 1.2 3.1 2 4.7 1.8 4-.4 7.9-1.5 11.8-2.3-5.1 3.7-10.1 7.4-16.3 11.9 3.1 4 6.2 8.1 9.4 12.2.7.9 1.3 1.7 2 2.6.5 1.6.8 3.6 1.7 4.8 6.3 8.3 23.1 9.6 30.3 2.4.9-.9 1.4-2.4 2.1-3.6l6-.3c7.3 0 14.6.4 21.9 0 12.5-.6 22.1-12.8 23.3-29.1 1.2-15.7-6.5-30.9-18.6-33.2-10.7-2.1-21.8-1.1-32.7-1.4-4.5.2-9 .5-13.4.7-8.2-1.6-16.2-2.4-23 5.7-1.4 1.6-2.6 3.1-3.9 4.6m906.3-162.8c2 2.6 4 5.2 5.9 7.8.1 2.7.2 5.3.2 8v335c0 13.4-2.7 16.9-12.9 16.9h-308.4c-10.2 0-12.9-3.5-12.9-17V722.4c0-2.9-.1-5.9-.2-8.8 1.7-3.2 3.5-6.4 5.2-9.5 106.3 0 212.5 0 318.8-.1 1.5 0 2.9.2 4.3.3m-245 225.1c-.5 4.7.7 7 4.6 6.6 3.6-.3 7.3-.1 11-.1h144.9c3.5 0 7.4.8 6.4-6.6 0-2.2 0-4.3-.1-6.5v-76.1h-166.7v6c0 25.6-.1 51.2-.1 76.7" class="st2"/><path d="M939.4 713.6c-1.7-2.7-3.4-5.5-5-8.2.3-.7.5-2 .8-2 8.7.2 17.4.5 26.1.8-1.7 3.1-3.4 6.3-5.1 9.4z" class="st7"/><path d="M1312.7 704.1c-1.7 3.2-3.5 6.4-5.2 9.5h-16.7c-2-3-4-5.9-6.1-8.9 9.3-.2 18.6-.4 28-.6m-702.6 0c-1.7 3.2-3.5 6.4-5.2 9.5h-16.7c-2-3-4-5.9-6.1-8.9 9.3-.2 18.6-.4 28-.6" class="st6"/><path d="M818 494c-.1.4-.2 1-.4 1.1s-.6-.3-.9-.5c.1-.4.2-1 .4-1.1.2 0 .6.4.9.5" class="st7"/><path d="M987.9 521.4c-2.8 6.6-5.9 9.5-11.7 4.2-1.5-1.4-5.3 2.4-7.9 2.3-5.9-.2-11.7-1.6-17.6-2.1-.9-.1-1.8 1.5-3.3 2.9-.4-3.7-.7-6.4-1-9.4-6.7-2.7-3.2 6.2-5.5 8.5-1.5-3.4-2.9-6.7-4.3-9.9l-1.8 1.2c-.2 2.8-.4 5.7-.6 8.5-.5.3-.9.5-1.4.8-.7-1.7-1.5-3.4-2.2-5.1.2-2.9.4-5.7.6-9.2 5 0 9.9-.8 14.4.3 2.1.5 3.6 4.7 5.5 7.4 1.4-.7 3.5-1.6 6.9-3.2-2.8-.6-4.6-1-6.5-1.4 4.4-4.8 5.1-4.7 10.8 1 3.7-3 7.4-6 11.7-9.5.4 3.2.8 6.2 1.1 8.5 2.9-1 5.8-3 8.5-2.6 1.6.2 2.9 4.4 4.3 6.8m-96.2.9c0 6.6-3.5 6.1-6.8 5.6-2.6-.4-5.1-1.1-8.6-1.9-.3-1.4-1-4.6-1.7-7.8-.5.1-.9.3-1.4.4-.8 3.3-1.6 6.5-2.3 9.8l-1.8-.6c-.3-3-.7-6-1-9l-1.5-.6c-1 3.4-2.1 6.8-3.1 10.2-.6-.1-1.2-.2-1.8-.4-.2-3.2-.4-6.4-.7-9.6.6-1.5 1.3-4.3 1.8-4.2 6 .9 12.7-3.1 16.7 2.5 4-.7 7.1-2 9.9-1.5 1 .2 1.5 4.6 2.3 7.1m190-8.9c-2.2.2-4.5.3-6.7.5-.1.5-.1 1.1-.2 1.6 1.1.8 2.5 1.2 3.3 2.4 1.4 2 2.6 4.4 3.8 6.6-2.3 1.6-5.1 5.2-6.7 4.4-3.9-2-7-1.9-10.7 0-1.5.7-3.8-1.6-5.8-2.5 2.7-.9 5.5-1.9 8.7-3-2.6-4.2-9.8-2.8-7.7-11.5 3.1-.7 6.2-1.3 9.2-2 .1.9.2 1.7.3 2.6-2.1.4-4.3.9-8.3 1.8 6.3 4.6 11.2 8.1 16.1 11.6.4-.8.8-1.5 1.2-2.3-2-4.1-10.9-3.3-6-11.7 1.7-2.8 6.8-4.7 9.5 1.5m-43.6 9.8c-.5 1.7-.9 3.3-1.8 6.3-2.9-10.3-2.9-10.3-6.2-10.7-.3 2.8-.6 5.5-.9 8.8-4 0-8.4 3.1-10.6-4.5l-2-8c.4-.5 1.8-2.2 3.3-4.1 1.5 1.4 3.1 2.8 4.4 3.9 2.4-.1 1.1-14.1 6.5-2.1 1.3 3.1 7.2 3.6 7.3 10.4m-113.3 0c-2 1.9-4.9 6-6 5.4-3.7-2.3-9.9 3.8-11.5-5.4v-13.6c3.4 2.8 5 4.2 6.7 5.6-1.1 2.8-2.1 5.5-3.6 9.3h9c-1-2.9-2.1-6.1-3.1-9.2l6.6-1.2c.1.7.1 1.5.2 2.2-1.4.4-2.8.9-4.6 1.4 2.3 2.1 4.3 3.8 6.3 5.5m85-1.7c-2.9 8.3-3 8.3-7.8 2-2.3 4.1-4.8 8.1-6.7-.3-.8-2.8-1.7-5.5-2.5-8.3.5-.4.9-.9 1.4-1.3 1.3 1.8 2.5 3.6 4 5.7 1.3-1.8 2.6-3.7 4.3-6.2 1.2 2.4 2.2 4.3 3.2 6.4 1.7-1.9 3.3-3.8 5-5.7.3.4.5.8.8 1.1-.6 2.2-1.2 4.4-1.7 6.6" class="st21"/><path d="M1059.7 512c-2.1 8.6 5.1 7.3 7.7 11.5-3.2 1.1-6 2-8.7 3-.4 0-.8-.1-1.2-.1-1.4-.5-3-.7-4.2-1.6-1.9-1.5-3.6-3.6-5.4-5.5 1.7-1.9 3.3-4.2 5.2-5.7 1.2-1 2.9-1 4.4-1.4.8-.2 1.5-.2 2.2-.2" class="st16"/><path d="M859.7 518.5c-3.8 12.6-4.7 12.8-13.4 3.1 4.9-9.6 8.1-10.3 13.4-3.1m-17.9 3.1c-1.1 3.7-1.8 7.7-6.2 6.6s-5.1-5-5.2-9.8c2.6-1.4 5.2-3.8 7.8-3.8 1.2 0 2.4 4.5 3.6 7m63.5 1.6c-.7 1.7-1.4 3.5-2.1 5.2-.5-.2-.9-.5-1.4-.7-.1-1.3-.1-2.6-.5-3.8-.6-1.8-1.3-3.5-2-5.3-.5 1.7-1 3.4-1.7 5.1-.5 1.4-1.2 2.8-1.8 4.2-.7-1.6-1.3-3.2-2-4.7.2-2.9.3-5.7.5-8.5 8.4-2.3 10.2-.8 11 8.5m152.2-11.1c-1.5.4-3.2.4-4.4 1.4-1.9 1.5-3.5 3.8-5.2 5.7 1.8 1.9 3.5 3.9 5.4 5.5 1.2 1 2.8 1.1 4.2 1.6-5 3.4-9.5 2.6-13.2-3.2-1.7-11.2 4.4-16 13.2-11" class="st21"/><path d="M916.2 515.3c1.1 3.2 2.1 6.3 3.1 9.2h-9c1.5-3.8 2.6-6.6 3.6-9.3.8 0 1.6.1 2.3.1" class="st16"/><path d="M1655.7 33.2h-11.1c-2.8 9.9-2.6 11.3 3.4 16.2-1.4.9-2.5 1.6-3.6 2.4l4.4 4.4c-2.6-.4-3.6-.2-4.3-.8-5.1-3.8-7.4-11.4-5.8-18.4 1.7-7.2 7-12 12.5-11.4 5.9.6 10.6 6.6 11.3 14.3.7 7.3-2.3 13.2-8.5 16.2-3.5-8.4 9.7-13.9 1.7-22.9" class="st2"/><path d="M1764.2 40c-2.2 4.1-4.2 7.6-6.1 11.2-1.2-2-2.3-4-3.3-5.7-1.4 1.7-3 3.7-4.6 5.7-1.6-4.5-3.3-8.9-4.9-13.4l1.8-1.2c1.2 2.4 2.5 4.8 3.8 7.4 1.2-2.6 2.3-4.9 3.8-8.3 1.5 3.6 2.6 6.2 3.9 9.1 1.1-2.8 2.1-5.3 3.1-7.8.6-.1 1.2-.3 1.8-.4.9 3.9 1.9 7.9 2.8 11.8-.4.2-.8.3-1.1.5-.4-2.9-.7-5.7-1-8.9" class="st14"/><path d="M1700.5 35.5c1.2 20.2 0 22.4-9.1 19.9-.6-4.8-2.6-10.6-1.2-13.6 1.5-3.3 6.2-4.1 10.3-6.3m-8.5 15.4c0 .5-.1 1-.1 1.5 1.5.1 3 .3 4.5.4 0-.5.1-1 .1-1.5-1.5-.1-3-.2-4.5-.4" class="st2"/><path d="M1855.8 51V32.7c3 1.9 6.2 3.1 8.5 5.7 1.5 1.7 2.5 5.5 2.2 8-.2 2-2.7 4.1-4.5 4.9-1.8.7-3.9-.2-6.2-.3m-26.6-17.7c.4 2.1.8 4.2 1.1 6.1 4.9 2.5 6.6-1.1 6.7-7.9.6.6 1.2 1.2 1.7 1.8v18.4c-5.1-7.8-5.1-7.8-8.3-7.8-.2 1.1-.4 2.3-.6 3.5s-.4 2.4-2 3.6V33.3c.5.1 1 0 1.4 0m-18.8 8.3c-.8 3.4-1.5 8.7-2.2 8.7-3.3 0-7.6-.2-9.7-2.8-1.5-1.9-1.1-9 .5-11.7 2.9-4.7 7.2-4.5 11.2.4-3.5 2.7-9.3-3.2-10 5.2-.2 1.9 1.7 4.2 2.7 6.3 2.1-1.6 4.2-3.4 7.5-6.1" class="st14"/><path d="M1786.9 51.4c-.2-2.1-.3-4.2-.7-6.1-.4-1.5-1.3-2.9-1.9-4.3-.8 1.5-2 2.9-2.5 4.6-.6 1.8-.6 3.9-.9 5.9-.6-.1-1.2-.2-1.7-.3V30.5c3.7 7.8 14.6 7.6 7.7 20.9" class="st15"/><path d="M1681.8 36.3c-2.2.3-4.4.5-7.1.9 1.9 5.2 11.7 2.9 6.8 12.2-2.4 4.5-6.5 2.3-9.7.5v-2.3h8.2c-2-5.5-11-3.1-7.4-12 1.9-4.8 6-3.4 9.2.7" class="st14"/><path d="M1852.2 36.9c.2 4.4.5 8.7.7 13-8.8 3-12.4.6-12.3-8 0-1.7 1.1-3.3 1.7-4.9.9 1.5 2.1 2.9 2.7 4.6.6 1.8.5 4 .6 6 .7.2 1.3.5 2 .7 1-3.8 1.9-7.7 2.9-11.5.6 0 1.2.1 1.7.1" class="st15"/><path d="M1818.6 32.7c2.7 3 4 4.5 5.5 6.1-4.1 4.1-4.1 7.9.9 10.9-4.8 2-4.8 2-8.9-9.3-.3 2.5-.5 5.1-.8 7.6-.4-.2-.8-.5-1.2-.7 1.4-4.5 2.8-9.1 4.5-14.6" class="st14"/><path d="M1728.8 51.1V37.8c10.1-.5 12 2.3 7.4 13.4-.1-2 0-4.1-.5-6-.4-1.7-1.5-3.1-2.2-4.6-.8 1.5-2 2.9-2.4 4.6-.5 1.8-.4 3.8-.5 5.8-.7.1-1.3.1-1.8.1m-24.4-14.4c3 .9 7 .7 8.9 3.2 1.5 2 .6 7.3.8 11.1-.8.1-1.5.1-2.3.2-.2-2.1-.1-4.3-.5-6.3-.3-1.5-1.3-2.8-2-4.2-.9 1.4-2.2 2.7-2.7 4.4-.6 1.9-.4 4.1-.6 6.2-.5 0-1.1-.1-1.6-.1z" class="st2"/><path d="M1772.1 33.9c1.7 1.9 3 3.4 4.3 4.8-.6.1-1.2.2-1.8.4.3 3.7.5 7.3.8 11.9-.5-.2-3.6-.5-3.7-1.4-.5-5.1-4.3-10.4.4-15.7" class="st14"/><path d="M1556.2 38c1.1.1 2.2.1 3.2.4 2.6.6 6.4.3 7.6 2.4 1.1 1.9-.5 6.5-.9 10-2.7-.8-5.5-1.5-8.2-2.4-.4-.1-.7-1.1-.9-1.5-1.1 1.6-2.1 3.1-3.1 4.6-1.2-1.5-2.6-2.7-3.4-4.5-1-2.3-1.6-5-2.3-7.5.7-1.8 1.4-3.6 2.2-5.8 2.1 1.5 4 2.9 5.8 4.3m-19.3 8.2-4.8 5.4c-2.3-2-4.9-3.5-6.6-6.2-.6-.9.9-6.2 1.8-6.4 2.6-.6 5.3.5 8 .9.5.1 1.1.1 1.6.1v-.1 5.5c.1.3.1.6 0 .8" class="st13"/><path d="M1516.1 47.4c-3.4 4.8-7.4 5.5-10.4 1.7-3.2-4.1-3.4-8.9-.4-13.4 2.9-4.3 6.9-4 10.9.9-3.5 1.7-9.8-3.4-9.6 5.7.3 8.6 5.9 4.3 9.5 5.1m20.8-1.2v-.8c2.2-1.2 4.5-2.4 7.8-4.1-3.4-.6-5.6-1-7.8-1.4v.1c6-6.2 9.2-3.9 10.6 7.9-3.3 5.6-8.3 4.8-10.6-1.7" class="st11"/><path d="M1480.7 46.5c-1.5-1.7-3.1-3.4-4.9-5.4 1.2-.5 2.8-1.1 4.7-1.8.3-2.1.7-4.3 1.4-8.9 1.5 5.9 1.2 11.9 6.3 9.5-1.2 1.6-2.4 3.1-3.7 4.7-.3-.3-.6-.6-1-.9-.2 2.2-.5 4.4-1 9-.9-3.5-1.4-4.8-1.8-6.2" class="st2"/><path d="M688.5 315.4c-9.2-.1-15.4-8.4-15.4-20.8-.1-12.7 6.2-21.2 15.7-21.2 9.4 0 16 8.8 15.9 21.2s-6.7 20.9-16.2 20.8" class="st3"/><path d="M736.1 301.6c.2-8 4.7-13.9 10.3-13.6s9.7 6.7 9.5 14.7-4.8 14.1-10.3 13.7c-5.6-.4-9.6-6.7-9.5-14.8" class="st7"/><path d="M802.8 297.2h-18.6c1.2-7.2 4.5-9.9 9.5-9.8 4.9.1 7.9 3.2 9.1 9.8" class="st6"/><path d="M1145.3 297.4h-18.4c.2-6.1 2.9-9 7-9.8 5.5-1 9.5 1.3 11.4 9.8" class="st7"/><path d="M974.7 302.1c0 8.3-4 14.2-9.7 14.4-5.6.1-9.9-6-9.9-14.2 0-8.3 4-14.2 9.8-14.3 5.7-.1 9.8 5.8 9.8 14.1" class="st18"/><path d="M342 47.8c-1.4-.2-2.8-.3-4.2-.5 0-.5.1-1 .1-1.6 1.4.3 2.7.6 4.1.9zm232.9 1.5c1.1-2.7 1.6-4.2 2.2-5.8 2.1 1.3 4.1 2.6 6.5 4-2.7.5-5 1-8.7 1.8m-15.6 3.5-3.9-.3v-1h3.9c.1.4 0 .9 0 1.3m11-6.7c.9.2 1.9.4 2.8.6 0 .3 0 .6-.1.9h-3z" class="st0"/><path d="M686.5 40.8c.3.2.6.3.9.5-.1.4-.2 1-.4 1.2-.2.1-.6-.3-.9-.4.1-.5.3-.9.4-1.3" class="st15"/><path d="m530.9 46.6 3-.3v1.2h-3zm207.6-.5c.9.3 1.8.6 2.8.9 0 .2 0 .5-.1.7h-3c.1-.6.2-1.1.3-1.6" class="st0"/><path d="M1192.7 398.3c0 8-4.5 14.2-10 14.1-5.6-.1-9.8-6.3-9.8-14.4s4.3-14.1 10-14c5.5.1 9.8 6.3 9.8 14.3" class="st18"/><path d="M590 393.2h-18.6c1.2-7.1 4.5-9.9 9.5-9.8 4.9.1 7.8 3.2 9.1 9.8m-86.9-.3c1.3-6.3 4.2-9.2 8.8-9.4 4.8-.2 8.2 2.4 9.8 9.4zm210.2.5h-18.4c.6-6.5 3.4-9.3 7.9-9.9 5.1-.6 8.8 2 10.5 9.9" class="st6"/><path d="M1322.2 393.2c1.3-7.2 4.6-9.9 9.6-9.8 4.8.1 7.7 3.1 9 9.8zM910.8 398c.1-8.2 4.2-14.1 10-14 5.7.1 9.8 6.2 9.7 14.4s-4.3 14.1-10 14.1c-5.7-.1-9.8-6.3-9.7-14.5" class="st18"/><path d="M1271.2 398.1c0 8.4-4 14.2-9.7 14.3-5.5.1-9.9-6.2-9.9-14.2 0-8.1 4.2-14.2 9.9-14.2s9.7 5.8 9.7 14.1" class="st22"/><path d="M1024.7 403c-.3 8.5-4.6 13.4-9.8 11-1.7-.8-2.8-3.8-4.1-5.8 1.5-1.7 2.8-4.5 4.5-5 2.8-.8 5.9-.2 9.4-.2" class="st18"/><path d="M1744.3 692.8c-1.7.5-3.4 1.5-5.1 1.5-35.7.6-71.5 1.6-107.2 1.6-441.9.6-883.8 1.2-1325.8 1.6-29 0-58.1-.9-87.1-1.6-16.2-.4-32.5-.4-48.6-1.7-15-1.2-29.9-3.7-44.9-6-16.8-2.6-33.6-5-50.3-8.5-8.7-1.8-17.1-5.7-25.6-8.6-1.2-.4-2.4-.3-3.6-.9-2.3-1.1-4.6-2.5-6.8-3.7 1.1-2.7 1.7-6 3.3-7.9 12.4-14.9 24.1-31.2 37.7-43.9 10.6-9.9 23.6-15.3 35.5-22.6 10.1-6.2 20.3-12.1 30.3-18.5 17.3-11 35.8-17.3 54.7-19.9 24.4-3.3 48.6-6.7 72.3-15.3 2.9-1 6-1 9-.9 425.1.5 850.1 1.1 1275.2 1.5 20.1 0 40.2-.7 60.2-1.6 13.9-.7 27.4 1.8 40.9 6 15.6 4.9 31.3 7.7 47.4 5.3 10.3-1.5 19.9 2.1 28.9 7.6 17.4 10.7 35.8 16.5 54.4 21.8 19 5.4 36.1 17.7 51.7 32.8 11.2 10.9 22 22.6 32.5 34.6 3.9 4.4 6.8 10.5 9.9 16 2.6 4.7.9 7.5-2.8 8.6-14.9 4.3-29.7 9-44.7 12.6-9.5 2.3-19.8 1-28.7 4.9-7.7 3.4-15 3.2-22.5 3.4-1.6 0-3.2-2-4.8-3 4.8-1.1 9.8-1.6 14.4-3.4 3.5-1.3 6.7-4.1 10-6.2h6.1c1.7.5 3.5 1.7 5.1 1.5 10-1.3 20-2.2 29.9-4.5 8.2-1.9 16.2-5.5 25.4-8.7-2.4-4.2-4-8-6.3-10.7-8.9-10.4-17.8-20.9-27.1-30.7-16.5-17.5-36.1-24.9-56.7-30.4-20.2-5.4-40.6-11.1-59.7-20.6-13.5-6.7-26.6-10.1-40.7-9.6-3.6.1-7.3-.8-10.8-2-18.7-6.5-37.6-10.7-57-9.1-17.6 1.4-35.2 3.1-52.8 3.1-395.3.2-790.6.1-1185.9.1-12.4 0-24.7-1.1-37.1-1.5-19.5-.6-38.9-1.2-58.4-1.6-2.4 0-4.9.5-7.1 1.7-10.5 5.5-20.9 11.6-31.5 16.9-3.4 1.7-7.3 2.2-11 2.2-6.3-.1-12.6-2.2-18.7-1.4-10.1 1.5-20 5.6-30.1 6.9-18.3 2.3-34.8 11.8-51.6 20-5.7 2.8-11.5 5.6-16.6 9.8-11.3 9.3-22.3 19.2-33.2 29.4-7.1 6.6-13.7 14.1-20.3 21.5-1.1 1.3-1.2 4.1-1.7 6.2 1.4.6 2.8 1.4 4.3 1.9 4.3 1.3 8.6 2.4 12.9 3.7 2.7.8 5.3 1.8 8 2.7h2.4c2.8.5 5.7 1.1 8.5 1.6h3.7c1.6.5 3.3 1.1 4.9 1.6h3.7c3.7.5 7.3 1.1 11 1.6h15.9c2.2 2.1 4.4 5.9 6.7 6.1 15.6 1.6 31.3 2.4 47 3.5h4.9c5.3.5 10.6 1.1 15.9 1.6h19.5c1.2.5 2.4 1.1 3.7 1.6h1456.5c2.4-.5 4.9-1.1 7.3-1.6h31.7c6.5.5 13 1.1 19.5 1.6" style="fill:#1e2125"/><path d="M1804.1 678.4c-3.3 2.1-6.5 4.9-10 6.2-4.7 1.7-9.6 2.3-14.4 3.4-8.4 1.1-16.8 2.1-25.2 3.2-3.4.4-6.8 1.1-10.2 1.6-6.5-.5-13-1.1-19.5-1.6 2-1.1 4-2.8 6-3.1 14.4-1.8 28.9-3 43.3-4.8 10.1-1.3 20-3.2 30-4.9" class="st22"/><path d="M105.5 900.2c-10.6 13.9-20.8 27.1-30.8 40.2-1.2-6.5-2.9-13.9-3.7-21.4-.3-2.9.6-6.9 2.1-9 4.8-7.1 10.3-13.6 15.3-20.5 2.1-2.9 3.7-3.2 6.1-.6 3.7 4.1 7.6 7.8 11 11.3m-41-64.3c1.1 6.4 2.7 14 3.7 21.7.3 2.3-.2 5.6-1.3 7.2-6 8.6-12.4 16.8-18.9 25.5-5.2-5.3-10-10-14.2-14.2 10.4-13.6 20.6-27 30.7-40.2m7.9 31.1c4.6 4.6 9.9 9.8 16.1 16-6.7 8.7-13 17.1-19.5 25.2-.6.7-2.7.1-3.7-.7-4.8-4.4-9.4-9.2-13.5-13.3 6.9-9.1 13.5-17.8 20.6-27.2m-22.5 56.3c-3.4-4.8-6.8-9.5-10.9-15.2 3-3.1 6.4-6.7 10.2-10.6 12.1 8.4 21.9 20.5 20.7 42.7-4.7-4.6-9.4-9.4-14.3-13.9-1.7-1.4-3.8-2-5.7-3m39.2-70.6c3.4 4.8 6.8 9.5 10.8 15.1-3.1 3-6.6 6.4-10.7 10.3-14.1-9.2-18.6-17.9-20.7-43 5.3 5.2 10 10 14.9 14.4 1.7 1.6 3.8 2.2 5.7 3.2m-56.2 28.9c4.1 3.7 8.2 7.4 11.9 10.7-3 4.3-5.5 7.9-9 13-1.1-9-2-16.3-2.9-23.7m73.2 12.8c-4.1-3.7-8.2-7.4-11.9-10.7 3-4.3 5.5-7.9 9-12.9 1.1 8.9 2 16.2 2.9 23.6m-73.2-12.8c-.3-.1-.6-.3-.8-.4.3.1.6.3.8.4m73.2 12.8c.3.1.6.3.8.4-.2-.1-.5-.3-.8-.4" style="fill:#91acef"/><path d="M954.2 484.3c-.9-.2-1.8-.4-2.7-.7.1-.5.2-1 .3-1.4l2.7.9q-.15.75-.3 1.2" class="st6"/><path d="M541.5 919.6H300.1v-.6h241.3c.1.2.1.4.1.6" class="st8"/><path d="M347.8 896.7c-.2-2.6-.1-5.3-.6-7.7-.3-1.5-1.6-2.6-2.4-3.8-.7 1.4-1.7 2.7-1.9 4.2-.4 2.4-.3 4.9-.4 7.4-.5.1-1.1.1-1.6.2-.5-4-1-8-1.5-11.9-.6 0-1.2-.1-1.8-.1-.7 4.1-1.3 8.3-2 12.4h-2c-.2-4.8-.4-9.5-.7-16.3 5.8.9 11.1.6 15.5 3 1.6.9 1.3 8.1 1.8 12.5-.8 0-1.6 0-2.4.1m-32.3-7.2c.4-5.1.6-8.5.8-11.9.5.1 1 .1 1.5.2v18.9c-.4.4-.8.9-1.1 1.3-2.4-4-4.8-8-7.7-12.9-.4 4.7-.7 8.3-.9 11.9-.5-.1-1-.1-1.5-.2v-18.9c.4-.4.8-.9 1.2-1.3 2.3 3.8 4.7 7.8 7.7 12.9m15 9.1c-3.1-1.3-6.3-2.7-9.4-4 1.9-2.9 3.8-5.7 5.8-8.8H322c-.1-.7-.3-1.4-.4-2 2.3-.7 6.1-2.7 6.6-1.8 2 4 3.1 8.9 4.6 13.5-.9 1.1-1.6 2.1-2.3 3.1m24-5.3h6.5l.6 1.8c-2.2.8-5.2 3.1-6.4 2-1.9-1.7-3.7-5.7-3.6-8.7.1-2.4 2.9-6.3 4.7-6.4 2.1-.2 4.3 2.9 6.5 4.5l-.9 2.4c-2.6.6-5.1 1.2-7.7 1.8.1.8.2 1.7.3 2.6" class="st20"/><path d="m1150.1 908.8-7.2 4.8-40.2-.3c-2.4-1.5-4.7-3-7.1-4.5-.5-.6-1-1.1-1.4-1.7l.1.1c-.4-.6-.9-1.1-1.3-1.7l.1.1c-.4-.6-.8-1.1-1.3-1.7v.1c-.4-.8-.8-1.6-1.3-2.4l.1-.5c-.4-.9-.9-1.8-1.3-2.7l.1-.5v-20l-.1-.5c.4-.9.9-1.8 1.3-2.7l-.1-.5c.4-.8.8-1.6 1.3-2.4v.1c.4-.6.8-1.1 1.3-1.7l-.1.1c.4-.6.9-1.1 1.3-1.7l-.1.1c.5-.6 1-1.1 1.4-1.7 2.4-1.5 4.7-3 7.1-4.5 13.4 0 26.9-.1 40.3-.1 2.3 1.5 4.7 3.1 7 4.6.5.6 1 1.1 1.5 1.7l-.1-.1c.4.6.9 1.1 1.3 1.7l-.1-.1c.4.6.8 1.1 1.3 1.7v-.1c.4.8.8 1.6 1.3 2.4l-.1.5c.4.9.9 1.8 1.3 2.7l-.1.5v20l.1.5c-.4.9-.9 1.8-1.3 2.7l.1.5c-.4.8-.8 1.6-1.3 2.4v-.1c-.4.6-.8 1.1-1.3 1.7l.1-.1c-.4.6-.9 1.1-1.3 1.7l.1-.1c-.5.6-.9 1.2-1.4 1.7m-42.8-40c-8.1.2-14.5 8.9-14.4 19.6.1 10.6 6.8 19 14.9 18.8s14.5-8.9 14.4-19.6c-.1-10.6-6.7-18.9-14.9-18.8" class="st25"/><path d="M1143 862.6c-13.4 0-26.9.1-40.3.1 1.1-.6 2.1-1.7 3.2-1.8q16.95-.15 33.9 0c1.1 0 2.1 1.1 3.2 1.7m-40.3 50.7 40.2.3c-3.3.5-6.6 1.4-9.9 1.5-8 .2-16.1.2-24.1 0-2.1 0-4.2-1.2-6.2-1.8" class="st20"/><path d="M1156.3 898v-20c3.6 6.1 3.6 13.9 0 20m-66.9-20v20c-3.7-6.1-3.7-13.9 0-20m67-.5c-.4-.9-.9-1.8-1.3-2.7.4.9.9 1.8 1.3 2.7m-65.8-2.7c-.4.9-.9 1.8-1.3 2.7.4-.9.9-1.8 1.3-2.7m5-7.6c-.5.6-1 1.1-1.4 1.7.4-.6.9-1.2 1.4-1.7m58.4 4.8c-.4-.6-.8-1.1-1.3-1.7.4.6.8 1.2 1.3 1.7m-1.3-1.5c-.4-.6-.9-1.1-1.3-1.7.5.5.9 1.1 1.3 1.7m-58.5-1.7c-.4.6-.9 1.1-1.3 1.7.5-.6.9-1.2 1.3-1.7m-4.9 29.7c.4.9.9 1.8 1.3 2.7-.4-.9-.9-1.8-1.3-2.7m65.8 2.7c.4-.9.9-1.8 1.3-2.7-.4.9-.9 1.8-1.3 2.7m-64.6.4c.4.8.8 1.6 1.3 2.4-.4-.8-.9-1.6-1.3-2.4m63.4 2.4c.4-.8.8-1.6 1.3-2.4-.5.8-.9 1.6-1.3 2.4m-62.2 0c.4.6.8 1.1 1.3 1.7-.4-.6-.8-1.2-1.3-1.7m61 1.6c.4-.6.8-1.1 1.3-1.7-.5.6-.9 1.2-1.3 1.7m-59.7-.1c.4.6.9 1.1 1.3 1.7-.5-.5-.9-1.1-1.3-1.7m58.5 1.7c.4-.6.9-1.1 1.3-1.7-.5.6-.9 1.2-1.3 1.7" class="st15"/><path d="M1094.2 907.1c.5.6 1 1.1 1.4 1.7-.5-.5-1-1.1-1.4-1.7m55.9 1.7c.5-.6 1-1.1 1.4-1.7-.5.6-.9 1.2-1.4 1.7m-57.1-38.4c-.4.6-.8 1.1-1.3 1.7.5-.6.9-1.2 1.3-1.7m62.2 4c-.4-.8-.8-1.6-1.3-2.4.4.8.8 1.6 1.3 2.4m-3.7-5.5c-.5-.6-1-1.1-1.5-1.7.5.5 1 1.1 1.5 1.7m-59.7 3.1c-.4.8-.8 1.6-1.3 2.4.4-.8.9-1.6 1.3-2.4m-322.1-15.9c10.9.3 22-.7 32.7 1.4 12.1 2.3 19.7 17.6 18.6 33.2-1.2 16.3-10.8 28.5-23.3 29.1-7.3.4-14.6 0-21.9 0 .9-2.3 1.7-4.7 2.8-6.9 6.9-14 6.7-32.2-.9-45.3-2.4-4-5.4-7.6-8-11.5" class="st15"/><path d="M735.7 916.5c-.7-.9-1.3-1.7-2-2.6 1.1-2.2 2.3-4.3 3.4-6.5 2.7-6 5.3-12 8-18l.2.1c1.3 0 2.5 0 3.8-.1.6.3 1.2.5 1.8.8 3.4 4.8 6.9 9.4 10 14.4 3.5 5.5 6.2 4.6 8.4-1.3.7-1.8 1.1-3.9 1.6-5.8.3-5.3.6-10.6.9-16-.7-2.6-1.5-5.2-2.2-7.9 0-.6.1-1.2.1-1.8 1.3 1.2 2.9 2 3.7 3.5 5.7 11.1 4.6 25.9-2.5 35.8-2 2.8-4.1 5.7-6.1 8.5-9.8-.1-19.8 2.8-29.1-3.1" class="st21"/><path d="M764.7 919.8c2-2.8 4.1-5.6 6.1-8.5 7.1-9.9 8.2-24.7 2.5-35.8-.8-1.6-2.4-2.4-3.7-3.5-1.9-1.3-5-4.3-5.4-3.7-3.8 5.1-7.1 10.7-10.5 16.2-1.2.1-2.3.3-3.5.4 1.7-5.7 3.7-11.4 5.1-17.3.8-3.4.6-7.2.9-10.8 4.5-.2 9-.5 13.4-.7 2.7 3.8 5.6 7.4 8 11.5 7.6 13.1 7.8 31.2.9 45.3-1.1 2.2-1.9 4.6-2.8 6.9l-6 .3c-1.6-.1-3.3-.2-5-.3" class="st20"/><path d="M756.2 856.8c-.3 3.6-.1 7.4-.9 10.8-1.4 5.9-3.4 11.5-5.1 17.3-.4.5-.8 1.1-1.2 1.6-1.3 0-2.5 0-3.8-.1l-2.1-2.1c-.1-1-.1-1.9-.2-2.9-3.2-6.3-6.5-12.6-9.7-19 6.8-8 14.9-7.1 23-5.6" class="st21"/><path d="M745.1 889.4c-2.7 6-5.3 12-8 18-1 2.2-2.2 4.4-3.4 6.5-3.1-4.1-6.3-8.1-9.4-12.2 6.1-4.5 11.2-8.2 16.3-11.9 1.5-.1 3-.3 4.5-.4" class="st15"/><path d="M764.7 919.8c1.7.1 3.4.2 5.1.4-.7 1.2-1.2 2.7-2.1 3.6-7.2 7.2-24 5.9-30.3-2.4-.9-1.2-1.1-3.2-1.7-4.8 9.3 5.8 19.3 2.9 29 3.2" class="st14"/><path d="M745.1 889.4c-1.5.2-3 .3-4.5.5-3.9.8-7.8 1.9-11.8 2.3-1.6.2-3.5-.5-4.7-1.8-.6-.7-.6-4.2.1-4.9 1.2-1.2 3.2-1.7 4.8-1.6 3.8.1 7.7.7 11.5 1.1l2.7-.6 2.1 2.1v3.1z" class="st25"/><path d="m743.1 884.4-2.7.6c-3.1-2-6-4.2-9.2-6-6.6-3.7-6.8-4.6-1.9-11.8l13.5 14.4c.2.9.3 1.8.3 2.8" class="st15"/><path d="m742.9 881.5-13.5-14.4c1.3-1.5 2.5-3 3.8-4.6 3.3 6.4 6.5 12.7 9.7 19" class="st20"/><path d="M1390.8 852.8v-6h166.7v76.1c-1.4 0-2.9.1-4.3.1v-69.5c-1.7-.3-2.7-.7-3.6-.7-51.4.1-102.7.1-154.1.2-1.6 0-3.1-.1-4.7-.2" style="fill:#63fb1f"/><path d="M1553.2 923c1.4 0 2.9-.1 4.3-.1 0 2.2 0 4.3.1 6.5h-166.9c0-25.5.1-51.1.1-76.6 1.6.1 3.1.2 4.7.3 0 20.7.1 41.5-.1 62.2-.1 5.6.9 8 5.7 8 50.7-.2 101.4-.2 152.1-.3" style="fill:#0c7820"/><path d="M1390.7 929.4h166.9c1 7.4-2.9 6.6-6.4 6.6h-144.9c-3.7 0-7.3-.2-11 .1-3.9.3-5.2-2-4.6-6.7" class="st15"/><path d="M1692 50.9c1.5.2 3 .3 4.5.5 0 .5-.1 1-.1 1.5-1.5-.1-3-.3-4.5-.4.1-.6.1-1.1.1-1.6" class="st8"/><path d="M1537 39.9c2.2.4 4.4.8 7.8 1.4-3.3 1.8-5.6 2.9-7.8 4.1-.1-1.8 0-3.6 0-5.5" class="st9"/><path d="M1804.1 678.4c-10 1.7-19.9 3.6-29.9 4.9-14.4 1.8-28.9 3.1-43.3 4.8-2.1.2-4 2-6 3.1h-31.7c-2.7-1.8-5.5-3.8-7.3 1.6H272.1c-2-5-4.1-5-6.1 0h-36.6c-1.2-.5-2.4-1.1-3.7-1.6h-19.5c-5-6.1-10.4-3.3-15.9-1.6h-4.9c-3.1-1.6-6.1-4.2-9.3-4.6-14.7-2-29.5-3.4-44.3-5h-15.9c-3.7-.5-7.3-1.1-11-1.6h-3.7c-1.6-.5-3.3-1.1-4.9-1.6h-3.7c-2.3-5.4-5.4-3.6-8.5-1.6h-2.4c-2.2-2.1-4.2-4.3-6.5-6.2-1.6-1.3-3.4-2-5.2-3 1-2.5 1.6-5.6 3.2-7.3 18.2-19.6 37.2-36.9 59.7-48.1 26-12.9 52.4-22 79.8-26.8 12.4-2.2 24.9-4.1 36.9-8.3 15.7-5.4 31.3-11.2 47.8-9.3 8.3.9 16.6 1.6 24.9 1.6 422.7.2 845.3.2 1267.9.2 2 0 4.1 0 6.1-.2 20.9-2.7 41.6-3 62 5.4 12.1 5 24.1 9.3 37.5 6.5 9.2-1.9 19.2-.8 28.3 1.9 17.1 5 33.9 12.6 50.9 18.3 11.6 3.9 23.4 6.1 33.3 16.2 9.9 10.2 20.1 19.6 30.1 29.6 4.8 4.8 9.5 9.9 13.9 15.4.9 1.1.5 6.5-.2 6.8-5.1 2.3-10.4 4.4-15.7 5.6-8.7 2-17.5 3.3-26.2 4.9zM113.9 664.5c2.8 1.3 4.4 2.3 6.1 2.7 11.7 2.7 23.4 6.2 35.2 7.7 21.9 2.8 43.9 5.2 65.9 6.5 31.8 1.8 63.6 3.2 95.5 3.3 385.8.2 771.7.2 1157.5.1 47.5 0 95-.9 142.6-1.6 16.8-.2 33.7-.9 50.5-1.6 22.7-.9 45.4-1.4 68-3.4 18.9-1.6 37.7-5 56.6-7.9 8.1-1.3 16-3.4 24-5.1.2-1.1.4-2.1.6-3.2-9.5-7.3-18.5-16.4-28.7-21.3-11.9-5.7-24.7-7.8-37.3-11-15.1-3.8-30.2-7.2-45.3-10.5-9.7-2.1-19.8-2.6-29.3-5.9-22.1-7.8-44.4-11.9-67.3-10.1-10.9.8-21.9 1.6-32.8 1.6-385 .1-770.1.1-1155.1 0-33.7 0-67.4-1.2-101.1-1.5-20-.2-39.9.3-59.8 5.8-20.1 5.5-40.9 5.9-61.2 10.5-15.1 3.4-30.2 8.2-44.5 15.2-12.6 6.2-24.1 16.3-36 24.8-1.1.7-2 2.3-4.1 4.9" style="fill:#1f2227"/><path d="M1810.2 678.4c8.7-1.6 17.5-2.9 26.2-4.9 5.3-1.2 10.6-3.3 15.7-5.6.6-.3 1-5.7.2-6.8-4.4-5.5-9.1-10.6-13.9-15.4-10-10-20.2-19.4-30.1-29.6-9.8-10.1-21.7-12.3-33.3-16.2-17-5.7-33.7-13.3-50.9-18.3-9.1-2.7-19.2-3.9-28.3-1.9-13.3 2.8-25.3-1.5-37.5-6.5-20.4-8.4-41.1-8.2-62-5.4-2 .3-4.1.2-6.1.2-422.6 0-845.3 0-1267.9-.1-8.3 0-16.6-.7-24.9-1.6-16.5-1.9-32 3.8-47.8 9.3-12 4.2-24.5 6.1-36.9 8.3-27.4 4.8-53.8 13.9-79.8 26.8-22.5 11.2-41.5 28.4-59.7 48.1-1.5 1.7-2.1 4.8-3.2 7.3 1.7 1 3.6 1.7 5.2 3 2.3 1.8 4.4 4.1 6.5 6.2-2.7-.9-5.3-1.9-8-2.7-4.3-1.3-8.6-2.4-12.9-3.7-1.5-.4-2.9-1.2-4.3-1.9.6-2.1.6-5 1.7-6.2 6.6-7.4 13.2-14.9 20.3-21.5 10.9-10.2 21.9-20.1 33.2-29.4 5.1-4.2 10.9-7 16.6-9.8 16.8-8.2 33.3-17.7 51.6-20 10.1-1.3 20-5.4 30.1-6.9 6.1-.9 12.5 1.3 18.7 1.4 3.7 0 7.6-.5 11-2.2 10.6-5.3 21-11.4 31.5-16.9 2.2-1.2 4.7-1.7 7.1-1.7 19.5.4 38.9.9 58.4 1.6 12.4.4 24.7 1.5 37.1 1.5 395.3.1 790.6.1 1185.9-.1 17.6 0 35.2-1.7 52.8-3.1 19.5-1.6 38.3 2.6 57 9.1 3.5 1.2 7.2 2.2 10.8 2 14.1-.5 27.1 2.8 40.7 9.6 19.1 9.5 39.5 15.2 59.7 20.6 20.5 5.5 40.1 13 56.7 30.4 9.3 9.8 18.2 20.2 27.1 30.7 2.3 2.7 3.9 6.5 6.3 10.7-9.2 3.2-17.1 6.8-25.4 8.7-9.9 2.3-19.9 3.2-29.9 4.5-1.8.1-3.6-1.1-5.3-1.6M131.7 680c14.8 1.6 29.6 3 44.3 5 3.2.4 6.2 3 9.3 4.6-15.7-1.1-31.3-1.9-47-3.5-2.2-.2-4.3-4-6.6-6.1m58.6 9.6c5.4-1.7 10.9-4.5 15.9 1.6-5.3-.5-10.6-1.1-15.9-1.6m-85.4-11.2c3.7.5 7.3 1.1 11 1.6-3.7-.5-7.3-1.1-11-1.6" class="st22"/><path d="M84.2 675.2c3.1-2 6.2-3.8 8.5 1.6-2.8-.5-5.7-1.1-8.5-1.6m1601.6 17.6c1.8-5.4 4.6-3.4 7.3-1.6-2.4.5-4.9 1.1-7.3 1.6m-1419.9 0c2-5 4.1-5 6.1 0zm-169.5-16c1.6.5 3.3 1.1 4.9 1.6-1.7-.5-3.3-1.1-4.9-1.6m129.3 14.4c1.2.5 2.4 1.1 3.7 1.6-1.3-.5-2.5-1.1-3.7-1.6" class="st22"/><path d="M1107.3 868.8c8.1-.2 14.8 8.2 14.9 18.8.1 10.7-6.3 19.4-14.4 19.6s-14.8-8.2-14.9-18.8c-.1-10.7 6.3-19.4 14.4-19.6" class="st20"/><path d="M749.1 886.5c.4-.5.8-1.1 1.2-1.6 1.2-.1 2.3-.3 3.5-.4l2.4.3c5.2-1 10.4-2.1 15.6-3.1-.3 5.3-.6 10.6-.9 16-6.7-2.4-13.4-4.9-20.1-7.3-.6-.3-1.2-.5-1.8-.8.1-1.1.1-2.1.1-3.1" class="st11"/><path d="M750.8 890.3c6.7 2.4 13.4 4.9 20.1 7.3-.5 1.9-.9 4-1.6 5.8-2.3 5.9-4.9 6.8-8.4 1.3-3.2-5-6.7-9.6-10.1-14.4" class="st14"/><path d="m756.1 884.7-2.4-.3c3.4-5.5 6.7-11.2 10.5-16.2.4-.5 3.6 2.4 5.4 3.7 0 .6-.1 1.2-.1 1.8-4.4 3.7-8.9 7.4-13.4 11" class="st15"/><path d="M756.1 884.7c4.5-3.6 8.9-7.3 13.4-10.9.7 2.6 1.5 5.2 2.2 7.9q-7.65 1.5-15.6 3" class="st2"/><path d="M749.1 886.5v3c-1.3 0-2.5 0-3.8.1v-3.1z" class="st20"/><path d="M1553.2 923c-50.7.1-101.4 0-152.1.3-4.8 0-5.7-2.4-5.7-8 .2-20.7.1-41.5.1-62.2 51.4-.1 102.7-.2 154.1-.2 1 0 1.9.4 3.6.7zm-26.8-43.7c-6.6-4.1-3.8 5-5.1 6.1-3.4-3.2-6.2-5.7-10-9.2v22.3c6.3 3.5 4.2-4.2 5.2-7.5 3.4 3.2 4 11.2 9.8 7.3.1-6.3.1-12.6.1-19m-105.2 21.2c5-1.5 10.4-1.4 13.5-4.9 1.8-2 1.3-12-.7-14.4-2.9-3.2-8.2-2.5-12.7-3.6-.1 8.2-.1 14.5-.1 22.9m26.4-6.5c-.9.1-1.9.3-2.8.4-.5-5.1-1-10.2-1.6-16-1.6.2-3.2.4-6.5.8 1.9 7.2 2.7 13.8 5.4 18.7 1 1.9 8.2 1.3 9.1-.8 2.3-5.2 2.6-11.9 3.9-19-3.5.3-5.2.5-7.2.7v7.7zm51.7-15.7c-5.4 0-8.5 3.8-8.5 10.5s3 10.4 8.5 10.4 8.4-3.6 8.4-10.4c-.1-6.8-3-10.5-8.4-10.5m-20.2 6.8v14.2c9.6-.9 2.8-11 5.7-14.8 1.6-1.4 3-2.7 4.4-4.1-1.7-.7-3.3-2-5.1-2.1-3.3-.3-6.7-.1-10-.1-.2.8-.4 1.6-.5 2.4 1.5 1.3 3 2.6 5.5 4.5m-17.4 13.7h5.6v-13.7c2.3-2 3.8-3.3 5.3-4.5-.2-.5-.4-1-.6-1.4h-15c-.2.7-.3 1.4-.5 2.1 1.6 1 3.3 2.1 5.2 3.3z" class="st17"/><path d="M113.9 664.5c2.1-2.6 2.9-4.2 4.1-5 11.9-8.5 23.4-18.6 36-24.8 14.3-7 29.4-11.8 44.5-15.2 20.3-4.5 41.1-5 61.2-10.5 19.9-5.5 39.8-5.9 59.8-5.8 33.7.3 67.4 1.4 101.1 1.5 385 .1 770.1.1 1155.1 0 10.9 0 21.9-.7 32.8-1.6 22.9-1.8 45.2 2.3 67.3 10.1 9.5 3.3 19.5 3.8 29.3 5.9 15.1 3.3 30.3 6.7 45.3 10.5 12.5 3.2 25.4 5.3 37.3 11 10.2 4.9 19.2 14 28.7 21.3-.2 1.1-.4 2.1-.6 3.2-8 1.7-16 3.8-24 5.1-18.8 2.9-37.7 6.3-56.6 7.9-22.6 2-45.3 2.4-68 3.4-16.8.7-33.6 1.3-50.5 1.6-47.5.7-95 1.6-142.6 1.6-385.8.1-771.7.1-1157.5-.1-31.8 0-63.7-1.5-95.5-3.3-22-1.2-44-3.6-65.9-6.5-11.8-1.5-23.5-5-35.2-7.7-1.7-.2-3.3-1.3-6.1-2.6" class="st16"/><path d="M1526.4 879.3v19c-5.8 3.8-6.5-4.1-9.8-7.3-1.1 3.3 1.1 10.9-5.2 7.5v-22.3c3.8 3.5 6.6 6.1 10 9.2 1.2-1.2-1.6-10.2 5-6.1" class="st11"/><path d="M1421.2 900.5v-22.9c4.5 1 9.9.4 12.7 3.6 2.1 2.4 2.5 12.4.7 14.4-3 3.5-8.5 3.3-13.4 4.9" class="st25"/><path d="m1447.6 894 .3-7.5v-7.7c1.9-.2 3.6-.3 7.2-.7-1.3 7.1-1.6 13.8-3.9 19-.9 2.1-8.1 2.6-9.1.8-2.7-4.9-3.5-11.5-5.4-18.7 3.3-.4 4.9-.6 6.5-.8.6 5.8 1.1 10.9 1.6 16 .9-.1 1.9-.3 2.8-.4m51.7-15.7c5.4 0 8.4 3.6 8.4 10.5 0 6.8-2.9 10.5-8.4 10.4-5.4 0-8.5-3.8-8.5-10.4 0-6.7 3.1-10.5 8.5-10.5m5.1 12.8-.3-4.8c-1.6-1-3.4-3.1-4.7-2.6s-2.8 3.4-2.9 5.3c-.1 1.6 1.7 4.7 2.7 4.8 1.7.1 3.5-1.7 5.2-2.7m-25.3-6-5.5-4.4c.2-.8.4-1.6.5-2.4 3.3 0 6.7-.2 10 .1 1.7.2 3.4 1.4 5.1 2.1-1.4 1.3-2.8 2.6-4.4 4.1-2.9 3.7 3.9 13.8-5.7 14.8zm-17.4 13.7v-14.3c-1.9-1.2-3.5-2.2-5.2-3.3.2-.7.3-1.4.5-2.1h15c.2.5.4 1 .6 1.4-1.5 1.3-3 2.5-5.3 4.5v13.7c-2.1.1-3.6.1-5.6.1" class="st11"/><path d="M1504.4 891.1c-1.7 1-3.5 2.8-5.2 2.7-1-.1-2.8-3.2-2.7-4.8.1-2 1.6-4.9 2.9-5.3 1.3-.5 3.1 1.6 4.7 2.6z" class="st17"/></svg>