<?xml version="1.0" encoding="utf-8"?>
<!-- Generator: Adobe Illustrator 25.0.0, SVG Export Plug-In . SVG Version: 6.00 Build 0)  -->
<svg version="1.1" id="Ebene_1" xmlns="http://www.w3.org/2000/svg" xmlns:xlink="http://www.w3.org/1999/xlink" x="0px" y="0px"
	 viewBox="0 0 1920 1080" style="enable-background:new 0 0 1920 1080;" xml:space="preserve">
<style type="text/css">
	.st0{fill:#3554F2;}
	.st1{fill:#955190;}
	.st2{fill:#657482;}
	.st3{fill:#4E6170;}
	.st4{fill:#B9BDE2;}
	.st5{fill:#9AB8DE;}
	.st6{fill:#BCA8D4;}
	.st7{fill:#D599D2;}
	.st8{fill:#95A9B8;}
	.st9{fill:#C6A0C5;}
	.st10{fill:#9BB0D1;}
	.st11{fill:#CA47BB;}
	.st12{fill:#D255CA;}
	.st13{fill:#DE77D3;}
	.st14{fill:#8D8B8D;}
	.st15{fill:#B65F96;}
	.st16{fill:#826D70;}
	.st17{fill:#52525A;}
	.st18{fill:#C3796A;}
	.st19{fill:#9A9D9E;}
	.st20{fill:#605268;}
	.st21{fill:#38364F;}
	.st22{fill:#8197A4;}
	.st23{fill:#F39777;}
	.st24{fill:#2E2F3A;}
	.st25{fill:#EEB8A9;}
	.st26{fill:#0F1C27;}
	.st27{fill:#AAB1AF;}
	.st28{fill:#B5BDC4;}
	.st29{fill:#D45548;}
</style>
<image style="overflow:visible;enable-background:new    ;" width="421" height="289" xlink:href="2EB0A351.jpg"  transform="matrix(1 0 0 1 -7232 -7652)">
</image>
<g>
	<g>
		<path class="st0" d="M66.9,1130.8c-47.6,0-95.2,0-142.9,0c0-397,0-794.1,0-1191.5c690.7,0,1381.6,0,2073.2,0
			c0,396.9,0,794.2,0,1191.5c-53.3,0-107.5,0-161.7,0c14.1-5,28.2-10.4,42.4-14.9c55.7-17.9,98-75.6,91.2-125
			c0-23.5,0.1-46.9,0.1-70.4c-0.2-11.5-0.5-22.8-0.8-34.3c0-2.2,0-4.4,0-6.6c0.1-15.2,0.2-30.3,0.4-45.6c0-23.4,0.1-46.8,0.1-70.2
			c0-6.8-0.1-13.6-0.1-20.4c0-2.8-0.1-5.4-0.1-8.2c0-3.1,0-6.1,0-9.2c0-3.8,0.1-7.6,0.1-11.4c0.1-12.5,0.1-24.8,0.2-37.3
			c0.1-69,0.1-137.9,0.2-207c0.3-50.7,1-101.6,0.9-152.4c-0.2-68.6-1-137.2-1.4-205.9c0-17.1,0-34.3,0.1-51.4v-0.1
			c-12.3-54.8-47.5-96-113.4-108.2c-44.4-8.3-91.8-4.9-137.9-6.6c-45.9,0-91.9,0-137.8,0c-78.9,0-157.9,0.1-236.8,0.1
			c-72.2-0.1-144.5-0.1-216.7-0.2c-56-0.1-112.2-0.2-168.2-0.4c-5.4-0.1-10.8-0.1-16.1-0.2l-1.8,1.1c-59.6,0.1-119.2,0.2-178.8,0.3
			c-46.3,0.2-92.5,0.6-138.8,0.8c-13.5-0.2-27-0.4-40.5-0.6c-12.4-0.1-24.7-0.3-37.1-0.4c-3.6-0.1-7-0.1-10.6-0.2
			c-29.4,0-58.8,0-88.2,0c-42.7-0.1-85.3-0.3-128-0.4c-44.4,0-88.8,0.1-133.1,0.3c-17.1-0.6-34.2-2.9-51-1.4
			c-32.6,2.9-64.9,7.7-97.3,11.8C-24.2-23.5-61.4,22.7-61.5,80.3c-0.2,82.4,0,164.8,0.4,247.3c0.1,22,1.6,43.8,2.5,65.8
			c-0.6,58.9-1.3,117.7-1.9,176.6c0.1,20.6,0.1,41.3,0.2,61.9c0,41.3,0,82.5,0,123.7c-0.1,34.4-0.3,69-0.4,103.4
			c-0.1,16.3-0.2,32.5-0.3,48.9c0.1,13.7,0.1,27.2,0.2,40.9c0,8.4,0,16.9,0,25.3c0.1,8.5,0.2,17.1,0.2,25.6c0,2.3,0,4.5-0.1,6.8
			c0.1,1.7,0.3,3.4,0.4,5.1c1.2,5.1,2.5,10.1,3.7,15.3c1.3,2.5,2.6,5.1,3.8,7.5l-1,0.7l0.4,1c3.2,7.1,6.5,14.1,9.7,21.2
			c3,4.1,6,8.2,9.2,12.2c18.5,25.3,45.6,41.3,78.3,51.5C51.9,1123.6,59.2,1127.5,66.9,1130.8z"/>
		<path class="st1" d="M1969.2,990.9c6.8,49.4-35.4,107.1-91.2,125c-14.4,4.6-28.3,9.9-42.4,14.9c-103.4,0-206.9,0-310.3,0
			c0-1.2-0.2-2.4-0.4-3.6c5.8-3.2,17.1-9,16.8-9.3c-15-21.2-1.3-41.3,2.9-61.6c6.7-11.1,25.1-22.4-0.5-33.2
			c5.4-4.1,10.9-8.2,16.3-12.2c9-1.2,17.9-3.6,26.7-3.3c28.2,1.1,56.4,5.7,84.3,4.3c31.4-1.7,62.3-10,93.8-12.6
			c52.6-4.2,105.6-4.7,158.1-9.8C1939.3,987.9,1954,983,1969.2,990.9z"/>
		<path class="st2" d="M-34.3,1069.6c-3-4.1-6-8.2-9.1-12.2c18.6-0.6,37.1-2.3,55.6-1.2c64.2,3.8,128.4,8.5,192.6,12.9
			c4.5,1.3,9.2,3.8,13.7,3.8c74.2,0.9,145,17.7,216.4,31.8c23.2,4.6,46.8,3.9,63.9-12.1c14.4-13.2,31.1-16.7,50.9-14.8
			c7.7,2.6,15.1,6.8,23,7.5c17,1.2,34,0.6,51.1,0.7c-16.7,7.2-34,13.5-49.9,21.8c-9.6,5.1-26,8.1-19.3,23.3c-72.2,0-144.5,0-216.8,0
			c-25.7-7.7-51-17-77.3-22.9c-36.6-8.4-74.1-14.3-111-21.4c-15-2.9-29.7-7.8-44.8-8.9C58.5,1074,12,1072-34.3,1069.6z"/>
		<path class="st3" d="M-34.3,1069.6c46.3,2.5,92.8,4.5,139,7.8c15.1,1.1,29.8,6.1,44.8,8.9c37,7.2,74.4,13.1,111,21.4
			c26.3,6.1,51.6,15.2,77.3,22.9c-90.3,0-180.6,0-270.9,0c-7.7-3.3-15-7.2-23-9.7C11.3,1110.7-15.8,1094.8-34.3,1069.6z"/>
		<path class="st4" d="M941.9-54.8c5.4,0.1,10.8,0.1,16.1,0.2c0,68-0.1,135.9-0.1,203.8c-1.3,7.2-2.9,14.3-3.8,21.5
			c-3,24.7,12.7,49.3,0.5,74c-0.3,1.3-0.2,2.6,0.3,3.9c0.4,3.2,0.9,6.5,1.3,9.7c-0.2,26.3-0.4,52.6-0.6,78.9
			c0.2,3.9,0.3,7.6,0.5,11.5c0.4,21.3,0.9,42.6,1.3,64c0.2,18.1,0.4,36.3,0.5,54.4c0.2,18,0.3,36,0.5,53.9c-0.6,6-1.4,12-2.1,18
			c0,9.6-0.1,19.3-0.1,28.9c-0.1,16.5-0.3,33-0.4,49.5c0.2,6.2,0.5,12.4,0.8,18.5c0.5,19.9,1.2,39.6,1.7,59.5
			c-1,23.8-1.8,47.7-2.8,71.5c0.3,2.4,0.6,4.7,0.9,7.2c-0.2,5.7-0.3,11.5-0.5,17.1c1.1,13,2.1,26,3.1,39.1
			c-0.2,12.1-0.5,24.3-0.8,36.5c-0.8,3.2-1.5,6.3-2.3,9.5c0,21.1,0,42.1,0.1,63.3c-0.8,26.1-2.3,52.4-2.2,78.5
			c0,12,3.1,23.9,4.9,35.9c-1.1,13.6-2.2,27-3.3,40.6c-0.6,12.1-1.3,24.2-1.8,36.3c-1.6,0-3.2,0-5,0c-1.4-1.5-2.8-3.1-4.1-4.6
			c-0.1-6.5-0.3-13.1-0.4-19.6c-0.1-3.1-0.2-6.3-0.3-9.4c0.4-0.9,0.3-1.9-0.1-2.8c0.2-6.4,0.4-12.8,0.8-19.2v-0.3
			c-0.4-1.7-0.8-3.4-1.2-5.1c-0.2-5.6-0.3-11.1-0.5-16.8c1-5.1,2.1-10.3,3-15.3c-0.8-28.6-1.5-57.3-2.2-85.8c0-3.9,0.1-7.7,0.1-11.6
			c0.5-10.4,1.1-20.7,1.6-31.1c-0.5-14-1.2-28.1-1.7-42.1c-0.1-12.7-0.1-25.3-0.2-38c-0.3-4.1-0.6-8.3-1.1-12.4
			c1.6-10.6,3.1-21.3,4.8-31.9c-1.1-17.2-2.2-34.4-3.2-51.6c-0.1-9.4-0.3-18.9-0.4-28.2c0.6-10.7,1.3-21.4,1.8-32.1
			c-0.3-2.9-0.6-5.7-1-8.5c0.2-23.2,0.4-46.3,0.6-69.5c0-49.6-0.1-99.2-0.1-148.8c-0.1-34.4-0.2-68.8-0.3-103.1
			c0-20.4,0-40.9,0-61.3c0.1-2.8,0.2-5.6,0.3-8.4c0-18.9,0-37.8,0-56.7c-0.3-21.3-0.6-42.5-1.1-63.8c0.1-3.8,0.2-7.5,0.2-11.3
			c1.2-6.7,3.6-13.3,3.5-20.1c-0.8-34.8-2.3-69.4-3.5-104.1l1.3-1.7l-1.3-1.7c-0.4-7.2-1-14.3-1.4-21.5c0-14.2,0.1-28.6,0.1-42.8
			C942.3-51.8,942.1-53.4,941.9-54.8z"/>
		<path class="st3" d="M554.6,1130.8c-6.7-15.2,9.7-18.2,19.3-23.3c15.9-8.4,33.1-14.7,49.9-21.8c11.6,0.1,23.1,0.1,34.6,0.2
			c6.7,3.3,13,8.5,20.1,9.6c27.1,4.3,54.9,6.1,81.7,11c28.7,5.3,56.8,13.2,85.2,20c-21.4,1.4-42.8,2.9-64.1,4.3
			C705.7,1130.8,630.1,1130.8,554.6,1130.8z"/>
		<path class="st3" d="M953.6,1130.8c0.6-12.1,1.3-24.2,1.8-36.3c10.8-1.9,21.7-3.1,32.2-5.6c15-3.5,29.8-7.9,44.6-11.9
			c0,4.2,0.1,8.4,0.1,12.6c-7.3,11.4-14.7,22.8-22.5,34.8c0,0,2.1,1.7,4,1.7c32.4,0.2,64.7,0.2,97.1,0.3c77.3,0.3,154.7,0.8,232,1.1
			c-0.1,1.2-0.2,2.3-0.3,3.5C1213.1,1130.8,1083.4,1130.8,953.6,1130.8z"/>
		<path class="st2" d="M1342.8,1130.8c0.1-1.2,0.2-2.3,0.3-3.5c60.5-0.1,121-0.1,181.5-0.1c0.2,1.2,0.3,2.4,0.4,3.6
			C1464.3,1130.8,1403.5,1130.8,1342.8,1130.8z"/>
		<path class="st2" d="M781.2,1130.8c21.4-1.4,42.8-2.9,64.1-4.3c33-0.1,66.1-0.2,99.1-0.3c1.4,1.5,2.8,3.1,4.1,4.6
			C892.9,1130.8,837.1,1130.8,781.2,1130.8z"/>
		<path class="st5" d="M957.9,149.2c0-68,0.1-135.9,0.1-203.8c56,0.1,112.2,0.2,168.2,0.4c-2.8,6.3-5.2,12.7-8.4,18.8
			c-8,14.9-4.2,28.5,12.8,34.8c25.7,9.4,53,15.6,79.4,22.9c5.5,7.3,9.5,17.4,17.8,22.5c34.3,21.2,54.6,50.5,70.9,82.1
			c5.5,10.6,5.6,23.8,5.3,35.9c-0.8,38.9-7.8,78.4,23.8,112.7c13.9,15.1,26.3,31.3,39.4,47c-40.5,3.8-40.8,6.5-51,39.2
			c-6,19.6-21.3,37.3-32.4,55.8c-0.2-8.8-0.1-17.5-0.6-26.4c-1.9-30.3-27.6-56.7-62.6-64.4c-16.5-11.8-34.1-20.9-57.2-15.3
			c-13.5-5.1-27.1-10-40.6-15.1c-21.8-10.4-43.5-20.7-65.3-31c-4.6-3-9.2-6.1-13.8-9c-9.1-21.7-18.5-43.2-27.2-65.1
			C1007,166.9,988.6,152.1,957.9,149.2z"/>
		<path class="st6" d="M1343.1-54.1c78.9,0,157.9-0.1,236.8-0.1c18.1,18.8,36.2,37.6,54.3,56.4c-19.8,15-29.5,32.5-18.1,54.5
			c11.3,22,33.5,27.7,59.9,26.8c8.9-0.3,17.8,0.4,26.7,0.8c4.6,29.7,26,50.5,51.9,69.2c5.5,4,14.6,8.5,14.7,12.9
			c0.4,19.9,13,25.7,37.5,22.5c-2.4,8.3-1.7,16.1-5.9,19.1c-33.5,24.3-9.8,50.2-4.5,75.7c2.3,11.1,4.6,22.3,5.3,33.5
			c0.8,14.3-3,29.2,0.4,43.1c4.4,18.2-1,32.1-15.7,44.8c-6.5-4.1-15.2-7.1-18.9-12.6c-13.5-20.1-24.1-41.7-38.3-61.3
			c-8.5-11.7-20.4-22.5-33.5-30.8c-19.2-12.1-32.9-7.5-41.6,10.9c-2.2,4.5-4.9,8.7-7.3,13.1c-5.1-6.3-4.8-11.1-4.1-16.1
			c2.1-14.1-8.1-23.2-22.2-21.4c-43.4,5.5-88.1,9.6-128.8,22.3c-46.5,14.5-50.1,31.3-28.6,68c9.4,15.9,12.4,31.4-6.3,44.7
			c-17.6-17.2-34.1-17-55.2-1.9c-29.9,21.4-62.6,39.9-94.2,59.7c-6.7-7.7-13.5-15.6-20.2-23.3c23.9-27.7,46-56.6,72.2-82.5
			c16.2-16,31-29.5,17.7-51.3c29.6-14.6,62.6-22.1,88.5-44.8c27.3-23.9,67.8-36.7,93.3-64.1c6.4-6.8,13-13.7,19.3-20.5
			c-8.9-5-17.7-10-26.7-15c-2.5-1.3-5.2-2.2-9.8-4.2c26.2-18.4-0.6-25.8-10.1-38.2c6.3-8.6,11.4-18,19-25.8
			c11.4-11.8,7.5-18.2-8.2-22.3c-25.2-6.6-41.7-19.5-50.5-41c-3.6-8.7-15.4-15.2-24.3-22c-7.8-6-17.3-10.4-24.9-16.4
			c-28-22.1-51.3-50-95.5-51.4C1345.8-43.4,1344.5-50.3,1343.1-54.1z"/>
		<path class="st7" d="M1456.7,421.8c18.8-13.2,15.7-28.8,6.3-44.8c-21.5-36.6-17.9-53.5,28.6-68c40.7-12.7,85.4-16.7,128.8-22.3
			c14.1-1.8,24.3,7.3,22.2,21.4c-0.6,4.9-1.1,9.8,4.1,16.1c2.5-4.4,5.3-8.6,7.3-13.1c8.6-18.4,22.4-23.1,41.6-10.9
			c13.1,8.3,24.9,19.1,33.5,30.8c14.3,19.6,24.8,41.3,38.3,61.3c3.7,5.4,12.4,8.4,18.9,12.6c24.8,14.5,39.4,40.7,73.5,44.8
			c4,0.4,7.5,5.1,10.8,8.1c19.9,17.9,39.2,36.1,59.7,53.4c4.6,4,15.5,7.7,20,5.7c6.2-2.8,10.6-10.5,12.8-16.8
			c3.5-9.5,4.3-19.6,6.4-29.5c-0.1,69-0.1,137.9-0.2,207c-3.3-8.8-6.7-17.8-9.9-26.4c-64.5,5.3-111.8-21.6-160.7-51.2
			c8.9-7.9,13.8-12.4,18.9-16.9c-38.4,11.8-66.3-7.1-89.4-24c-67.8-50-147.3-80.9-231.9-101.8
			C1469.5,450.7,1458.8,442.3,1456.7,421.8z"/>
		<path class="st4" d="M1343.1-54.1c1.4,3.8,2.7,10.7,4.3,10.8c44.2,1.4,67.5,29.3,95.5,51.4c7.7,6.1,17.2,10.5,24.9,16.4
			c8.9,6.8,20.7,13.3,24.3,22c8.9,21.6,25.5,34.5,50.5,41c15.7,4.1,19.7,10.5,8.2,22.3c-7.6,7.8-12.7,17.2-19,25.8
			c9.5,12.4,36.4,19.7,10.1,38.2c4.6,2,7.5,2.9,9.8,4.2c9,5,17.7,9.9,26.7,15c-6.5,6.8-13,13.7-19.3,20.5
			c-25.5,27.4-66,40.2-93.3,64.1c-25.9,22.7-59,30.2-88.5,44.8c-3.2,0-6.5-0.1-9.7-0.1c-13.1-15.7-25.4-31.9-39.4-47
			c-31.6-34.3-24.5-73.8-23.8-112.7c0.2-12,0.2-25.2-5.3-35.9c-16.3-31.4-36.7-60.9-70.9-82.1c-8.3-5.1-12.2-15.2-17.8-22.5
			c-26.2-7.4-53.7-13.6-79.4-22.9c-17.1-6.3-20.8-19.9-12.8-34.8c3.2-6.1,5.6-12.5,8.4-18.8C1198.6-54.2,1270.8-54.2,1343.1-54.1z"
			/>
		<path class="st8" d="M622.5-52.6c46.2-0.2,92.4-0.6,138.6-0.9c-3.5,6.1-7.1,12.1-10.4,18.3C726.8,11.5,665.3,25.9,630,64
			c-24.5,26.4-42.9,52.1-46,85.1c-31.9,13-63.9,25.9-66.4,61.2c-0.1,1.3-1.2,2.5-1.9,3.8c-24.7,46.1-48.6,92-81.3,135.3
			c-37.8,49.9-64.8,105.5-96.5,158.6c-8.1,6-20.4,10.7-23.4,18.2c-8.6,21.2-25.1,32.2-50.4,35.4c4.2-10.8,8.5-21.7,13.7-35.1
			c-9.7-0.8-16.6-1.4-23.6-2c4.4-10.8,8.3-21.8,13.5-32.4c13.6-27.6,27.9-54.9,41.7-82.4c6.2-12.4,1-21.6-9.7-31.2
			c-26.6-23.6-27.5-35.3-2.7-60.6c20.3-20.6,36.6-41.9,36.4-69.6c-0.1-8.3-2.3-16.4-3.6-24.7c-9.3,2-18.5,4.2-27.8,5.8
			c-6.7,1.2-15.7,4.1-20,1.7c-3.8-2.1-5.7-12.4-2.9-15.9c13.4-17.1,28.6-33.2,43.2-49.6c8.5,9,16.4,21.3,33.3,12.8
			c29-14.6,57.3-30.4,85.9-45.8c6.6-4.1,13.2-8.1,19.8-12.1l0.1-0.1c37.7-12.4,65.7-34.6,88.9-61.4c2.1-2.4-2.3-8.8-3.7-13.3
			c6.2-5.3,12.2-10.7,18.4-16c9.6-16.9,19.3-33.8,28.9-50.6C603.4-31.3,613-41.9,622.5-52.6z"/>
		<path class="st9" d="M1969.4,470.5c-1.9,9.8-2.9,20-6.4,29.5c-2.3,6.3-6.7,14-12.8,16.8c-4.3,2-15.2-1.8-20-5.7
			c-20.5-17.2-39.8-35.5-59.7-53.4c-3.3-3-6.8-7.5-10.8-8.1c-34.1-4.1-48.7-30.3-73.5-44.8c14.7-12.6,20.1-26.5,15.7-44.8
			c-3.3-13.8,0.4-28.7-0.4-43.1c-0.6-11.3-3-22.4-5.3-33.5c-5.3-25.5-28.9-51.4,4.5-75.7c4.2-3.1,3.6-10.9,5.9-19.1
			c-24.5,3.2-37-2.8-37.5-22.5c-0.1-4.4-9.2-8.9-14.7-12.9c-25.9-18.5-47.3-39.4-51.9-69.2c43.2-0.2,86.3-1.1,129.5-0.4
			c21.7,0.3,40.2-4,55-17.5c16,10.1,31.7,20.7,48.3,30.2c10.6,6.1,22.5,10.7,33.7,15.9c0.5,68.6,1.3,137.2,1.4,205.9
			C1970.4,369,1969.8,419.8,1969.4,470.5z"/>
		<path class="st10" d="M584.1,149.2c3.1-33.1,21.5-58.7,46-85.1c35.3-38.1,96.9-52.5,120.8-99.2c3.1-6.2,6.9-12.2,10.4-18.3
			c59.6-0.1,119.2-0.2,178.8-0.4c0.8,1.1,1.6,2.3,2.4,3.4c0,14.2-0.1,28.6-0.1,42.8c-6.9,1.9-14.9,2.6-20.6,6
			c-45.7,26.3-91,53.1-136.5,79.7c-12.4,7.3-29,12.5-36.5,22.3c-20.2,26.9-24.4,58.4-20,89.1c4.2,28.8,14.1,56.9,21.6,85.8
			c34.1,0.3,69.4-27.6,78.9-65.4c7.5-29.3,29.9-47.3,60.6-59.9c-7.6,7.8-17.9,14.9-22,23.8c-12.1,26.5-23.4,53.4-32,80.9
			c-7.3,23.6-6.4,49.3-30.1,67.7c-5.6-0.8-11.1-1.7-16.7-2.1c-57.6-5.5-116.4-24.5-170.3,10.8c-34.6,5.2-44.5,16.1-44.5,49.2
			c-2.9-7.7-9.8-16.1-7.9-22.9c2.8-10.1,10.1-20.4,18.6-28.2c14.5-13.6,15-26,3.3-40.6c-12.4-15.6-12.1-31.8-8.6-50.6
			C585.1,208.7,583,178.7,584.1,149.2z"/>
		<path class="st11" d="M1968.6,879.5c0,2.2,0,4.4,0,6.6c-54.5,0.6-109.1,1.1-163.7,1.7c-53.8,0-107.5,0.2-161.3-0.4
			c-10-0.1-21.8-1.7-29.6-6.3c-17.7-10.5-33.4-23.3-49.9-35.1c-11.9-41.4-39.8-72.8-83.3-94.8c-1.6-1.3-3.2-2.8-4.9-4.1l-0.1-0.1
			c-3.5-4.1-6.9-8.3-10.4-12.4c-0.8-6-1.5-12-2.4-18c-5.7-4.9-11.4-9.8-17.1-14.7c-3.6-5.4-7.2-10.9-10.8-16.3
			c2.4-6.4,3.9-13.1,7.2-19.1c2.5-4.4,7.6-11.5,11.2-11.4c15.5,0.6,33.1,0.1,46.1,6c21.8,9.7,40.4,12.7,64.8,5.1
			c27-8.4,57.3-15.7,78.9,11.8c2.8,3.5,11.3,3.8,17,5.8c8.4,3.2,16.8,6.3,24.8,10c10.7,5.1,21.1,10.6,31.5,16
			c1.6-1.8,3.2-3.4,4.9-5.2c1.9,2.9,4,5.7,5.9,8.7c21.5,33.3,64.9,42.4,105.9,24.5c30.4-13.2,62.3-18.4,95.3-2
			c11.1,5.5,26.6,5,40,7.2c0,6.8,0.1,13.6,0.1,20.4c-13.9-3.1-28-6.1-41.9-9.5c-28.3-6.8-42.7-1-55.2,21.3
			c-3.2,5.8-10.4,10-14.7,15.6c-4.4,5.6-7.6,12-11.2,18c-6.4,0.4-13.6-0.6-19,1.7c-13,5.3-31.2,9.5-36.5,18.6
			c-12.4,21.3-54,36.1-68.1,28c-37.6,5.1-67.5,9.2-97.3,13.2c0,0.6,0,1.1,0.1,1.7C1739.7,874.8,1854.1,877.2,1968.6,879.5z"/>
		<path class="st12" d="M1969,743.3c-13.5-2.2-28.9-1.7-40-7.2c-33-16.5-64.9-11.3-95.3,2c-41,17.9-84.5,8.7-105.9-24.5
			c-1.9-3-4-5.8-5.9-8.7c-1.6,1.8-3.2,3.4-4.9,5.2c-10.5-5.4-20.8-10.9-31.5-16c-8-3.8-16.4-7-24.8-10c-5.6-2.1-14.1-2.3-17-5.8
			c-21.6-27.5-51.9-20.2-78.9-11.8c-24.4,7.5-43,4.6-64.8-5.1c-13.1-5.8-30.6-5.4-46.1-6c-3.7-0.1-8.7,6.8-11.2,11.4
			c-3.3,6-5,12.7-7.2,19.1c-8.7-11.1-17.5-22.4-26.2-33.5c-2.5-6.8-5-13.6-7.5-20.4c-1.3-1.8-2.5-3.5-3.8-5.3
			c-0.1-1.3-1-2.4-2.4-3.1c-1.2-1.1-2.4-2.2-3.6-3.3l-0.5-0.6c-1.4-1.1-2.8-2.1-4.1-3.2c-1.9-1.7-4-3.4-5.9-5.1
			c10-21.3-13.1-28.5-24.6-40.6c-1.6-4-3.1-8.1-4.8-12c-1.7-3.6-3.3-7.3-5.1-10.9c7.5-45.5,51.5-56.7,96.7-73.9
			c9.9,22.3,18.8,42.3,29.7,66.7c40.6-14.2,76.1,17.7,119.2,25.2c42.5,7.4,86.8,32.8,116.3,60.8c29.7,28.2,58.1,50.6,101.6,58.8
			c52.9,9.9,105.8,19.7,158.7,29.6c0,3.8-0.1,7.6-0.1,11.4c0,3.1,0,6.1,0,9.2C1968.9,737.9,1968.9,740.7,1969,743.3z"/>
		<path class="st13" d="M1969,714.8c-52.9-9.8-105.8-19.6-158.7-29.6c-43.5-8.2-71.9-30.6-101.6-58.8
			c-29.4-27.9-73.7-53.3-116.3-60.8c-43.1-7.5-78.6-39.4-119.2-25.2c-10.9-24.5-19.9-44.5-29.7-66.7c-45.1,17.2-89.3,28.5-96.7,73.9
			c-13.2-22.7-26.3-45.5-39.5-68.1c31.5-19.7,64.2-38.4,94.2-59.7c21.2-15.1,37.6-15.2,55.2,1.9c2.3,20.5,13,28.9,39.5,35.5
			c84.7,21,164.1,51.9,231.9,101.8c23.1,17,51,35.9,89.4,24c-5,4.4-10,8.9-18.9,16.9c48.9,29.5,96.2,56.5,160.7,51.2
			c3.2,8.6,6.6,17.5,9.9,26.4C1969.2,689.9,1969.1,702.3,1969,714.8z"/>
		<path class="st14" d="M-60.6,999.6c-0.1-8.5-0.2-17.1-0.2-25.6c45.9-9.7,91.8-19.5,137.7-29.2c35.6-6.1,72.1-10,106.7-19
			c25.9-6.7,49.5-19.9,73.9-30.4c3.9-1.7,9.6-5.2,9.4-7.6c-0.3-4.1-3.6-9.5-7.6-11.6c-6-3.1-13.9-3.2-20.7-5.4
			c-22.7-7.3-50.4-10.4-66.6-23.4c-34.4-27.7-64.9-59.5-93-92c-13.7-15.9-20.8-36.7-26.2-56.3c-12.6-45.2-1.8-89.6,14-133
			c13.2-22.9,25.4-46.3,39.6-68.8c10.3-16.2,23.1-31.2,34.9-46.8c3.5-1.3,6.8-2.5,10.3-3.9c-7.9,24.8-15.2,49.8-23.9,74.4
			c-2.5,7.1-9.3,12.9-13,19.7c-14.4,26.8,11.7,34.6,31.2,45.5c-1.6,12.5-3.1,24.9-4.8,37.4c-3.3,10.6-6.5,21.2-9.9,31.7
			c-9.2,27.7,0.2,48.1,32.1,60.9c6.2,2.4,13.8,7.7,15,12.6c7.9,34.4,36.5,56.7,63.3,80.6c8.5,7.6,15,17.7,19.3,27.6
			c10.1,23.6,24.6,33.3,53.9,34.1c9,0.2,18.8-0.6,26.6,2.3c7.7,2.9,13.4,9.6,19.9,14.7c-6.8,3.9-13.2,9.8-20.6,11.3
			c-42.7,8.3-86.2,13.8-124.6,33.2c-19.9,10-40.3,19.3-60.5,28.9c-13.2,6.7-26.3,13.5-39.5,20.2c-16.3,1.7-35.2-2.1-43.9,15
			c-19.3-0.2-38.8-0.9-58.1-0.4C-11,996.9-35.8,998.5-60.6,999.6z"/>
		<path class="st15" d="M1564.1,846.1c16.5,11.8,32.2,24.6,49.9,35.1c7.8,4.6,19.5,6.2,29.6,6.3c53.8,0.7,107.5,0.3,161.3,0.4
			c15.1,10.4,29,27.7,45.6,29.8c38.9,4.9,79.1,2.4,118.8,2.9c0,23.5-0.1,46.9-0.1,70.4c-15.1-7.9-29.9-3-46-1.4
			c-52.5,5-105.5,5.5-158.1,9.8c-31.4,2.5-62.3,10.9-93.8,12.6c-27.9,1.4-56.1-3.2-84.3-4.3c-8.9-0.3-17.8,2.1-26.8,3.3
			c2.9-8.2,5.9-16.3,8.9-24.5c31.2-2.9,37.6-7.8,38.3-30.4c-7.1-6.7-13.3-14.5-21.6-19.9c-6.3-4.1-15.2-5.4-22.9-7.8
			c8.7-2.3,17.4-4.6,26.1-6.8c6.3-6.3,12.6-12.6,18.9-18.9c-7-4.9-13.4-10.6-21.3-14.2c-16.7-7.7-34.1-14.3-51.3-21.4
			c-1.2-6.8,18.1-14.3-1.1-20.5c3.3-0.8,6.7-1.5,9.9-2.3C1550.9,844.6,1557.5,845.4,1564.1,846.1z"/>
		<path class="st16" d="M66.7,566.1c-15.9,43.6-26.7,87.8-14,133c5.4,19.5,12.6,40.4,26.2,56.3c28,32.5,58.5,64.3,93,92
			c16.2,13,43.9,16.1,66.6,23.4c6.8,2.2,14.8,2.3,20.7,5.4c4,2,7.2,7.5,7.6,11.6c0.2,2.4-5.5,5.8-9.4,7.6
			c-24.4,10.6-47.9,23.7-73.9,30.4c-34.6,8.9-71,12.9-106.7,19c-0.2-5.3-0.4-10.6-0.8-15.8c7.7-3.8,14.8-8.6,23-10.9
			c19.9-5.7,40.6-9.3,60-15.8c7.8-2.5,13.2-10.4,19.5-15.9c-6.6-3.9-12.6-9.3-20-11.4c-22.2-6.5-45.5-10.9-67.5-18
			c-9.3-3-18.4-9.3-24.4-16c-17.3-19.6-31.6-41.1-49.9-60.1c-7.7-7.9-22.4-11.3-33.8-16.7c-14.5-2.9-29-5.8-43.5-8.7
			c0-41.3,0-82.5,0-123.7c7.1-4.7,14.9-8.9,21.3-14.3c6.5-5.6,11.6-12.4,17.3-18.6c18,8.1,28.4-4.5,41.1-10.7
			C35,580.5,50.9,573.3,66.7,566.1z"/>
		<path class="st3" d="M-60.5,570c0.6-58.9,1.3-117.7,1.9-176.6c5.9-6.1,15.2-11.4,17.2-18.2c12.5-44.2,23.6-88.8,34.9-133.4
			c2.4-9.3,5.5-19.1,4-28.1c-4.3-24.8,6.5-40.5,34.9-48c19.8-2.8,39.4-5.4,59.2-8.2c-5.9,28.1-11.9,56.3-17.9,84.4
			C66.5,275,58.1,308,53,341.3c-1.6,10.7,9.6,22.8,7.7,33.3c-5.5,29.3-14.6,58.1-22.8,87c-9,32-30.6,58.2-54.7,83.3
			C-31.5,553.5-46.1,561.8-60.5,570z"/>
		<path class="st17" d="M32.3,165.7c-28.4,7.4-39.3,23.2-34.9,48c1.6,9-1.6,18.9-4,28.1c-11.2,44.6-22.4,89.1-35,133.4
			c-1.9,6.8-11.2,12.1-17.2,18.2c-0.9-22-2.4-43.8-2.6-65.8c-0.4-82.4-0.6-164.8-0.4-247.3c0.2-57.6,37.3-103.8,98.4-123.9
			C35.8-31,35-18.4,34.2-5.8C33.7,0.6,33.3,7.1,33,13.5c-15,24.4-8.4,45.3,14.5,63.8C33.4,105.6,22,134.4,32.3,165.7z"/>
		<path class="st18" d="M-60.6,999.6c24.8-1.2,49.7-2.8,74.6-3.4c19.3-0.6,38.8,0.2,58.1,0.4c16.1,0.8,32.2,1.4,48.2,2.2
			c8.5,8.1,16,22,25.8,23.4c63.5,8.8,127.4,17.8,191.6,21.1c82.4,4.3,165.2,3.4,247.9,5c11.4,0.2,22.9,0.8,34.3,1.2
			c59.6,2.2,119.2,5.4,178.8,6.2c47.9,0.7,95.9-1.7,143.8-2.5c0.2,5.6,0.3,11.1,0.5,16.8c-29.4,3.1-58.8,9.5-87.9,8.4
			c-70.7-2.5-141.3-8.5-212-13.1c-55.2-1.7-110.5-4-165.6-4.6c-71.2-1-142.3-0.7-213.4-0.8c-8-1.1-16-2.6-24.1-3.1
			c-71.8-4.3-143.7-8.1-215.4-12.6c-26-1.7-51.9-5.2-77.9-7.8l-0.4-1l1-0.7c-1.3-2.5-2.6-5.1-3.8-7.5c-1.2-5.1-2.5-10.1-3.7-15.3
			c0.3-0.6,1.2-1.2,1.1-1.7c-0.3-1.2-1-2.3-1.5-3.4C-60.6,1004.3-60.6,1001.9-60.6,999.6z"/>
		<path class="st14" d="M318.3-54.4c42.7,0.1,85.3,0.3,128,0.4c-12.8,18.8-23.9,38.6-39,56c-31.4,36.2-63.7,71.6-69.2,118.4
			c-5,5.5-9.9,11.1-14.9,16.7c-35.7-2.4-39.5-0.1-49.8,30.3c-1.3,4-2.3,8.1-4.2,11.7c-15.5,29.1-21.9,63.5-63.9,77.3
			c6.4-20.4,8.5-42.6,19.9-60.7c22.1-35.5,29.7-73.1,33.9-111.9c25.2-2,42.4-12.7,49.8-33c7.8-21.2-5-36.5-22.7-49.9
			C296.9-17.4,307.6-35.8,318.3-54.4z"/>
		<path class="st17" d="M-60.4,755.6c14.5,2.9,29,5.8,43.5,8.7C-3.9,783.2,13,800.8,21,821c12,30.3,37,43.1,70.9,49.2
			c5.6,1,11.8,1.4,16.4,3.9c7,3.6,13,8.8,19.4,13.3c-6.4,4.9-12.2,10.3-19.2,14.2c-3.7,2.1-10.1,0.7-14,2.6
			c-17.7,8.8-44.1,6.4-52.3,27.7c-34.3,5.6-68.8,11.1-103.1,16.8c-0.1-13.7-0.1-27.2-0.2-40.9c20.9-4.3,42.1-8.2,62.7-13.3
			c4.1-1,8.9-6.8,8.9-10.4s-4.9-9.3-9-10.4C-19,868.1-40,863.8-60.9,859C-60.6,824.5-60.5,790-60.4,755.6z"/>
		<path class="st7" d="M1968.9,112.3c-11.2-5.3-23.1-9.8-33.7-15.9c-16.5-9.5-32.2-20.1-48.3-30.2c21.4-42.5,0.1-69.8-54.5-70.4
			c-17.1-0.1-34-0.7-51.1-0.9c-9.9-21.5-14.5-47.4-53.8-44.2c-3.1,0.2-6.7-3.1-10-4.9c46.1,1.8,93.5-1.5,137.9,6.6
			c65.9,12.2,101.1,53.4,113.4,108.2l0.1,0.1C1968.9,78.1,1968.9,95.2,1968.9,112.3z"/>
		<path class="st1" d="M1968.6,879.5c-114.5-2.3-228.9-4.6-343.4-7c0-0.6,0-1.1-0.1-1.7c29.9-4.1,59.7-8.2,97.3-13.2
			c14.1,8.1,55.7-6.8,68.1-28c5.3-9,23.4-13.3,36.5-18.6c5.4-2.2,12.6-1.2,19-1.7c18.5,4.1,36.8,11,55.4,11.6
			c24.1,0.8,46.9,1.8,67.5,13.2C1968.8,849.1,1968.7,864.4,1968.6,879.5z"/>
		<path class="st19" d="M338,120.4c5.5-46.7,37.8-82.1,69.2-118.4c15.1-17.4,26.1-37.3,39-56c29.4,0,58.8,0,88.3,0
			c-4.8,7.3-9.6,14.6-14.4,21.8c-3.1,2.8-6.4,5.5-9.5,8.3c-5,5.5-9.9,11-14.9,16.7c-3.2,4.1-6.6,8.1-9.8,12.1
			c-3.2,2.9-6.6,5.6-9.8,8.5c-21.9,14.8-45.6,28.2-65.2,44.9c-15.3,13.1-25.7,30.2-38.2,45.7c-1.6,1.4-3.2,2.8-4.9,4.2
			C357.7,112.2,347.8,116.3,338,120.4z"/>
		<path class="st5" d="M441.3,132.9c-28.6,15.3-56.8,31.1-85.9,45.8c-17,8.5-24.7-3.8-33.3-12.8c1.9-2.8,3.8-5.6,5.7-8.4
			c5-2.1,11.2-3.3,14.8-6.5c32.7-28.7,65.2-57.4,97.1-86.7c8.4-7.7,14.3-17.3,21.4-26c1.7-1.4,3.5-2.9,5.1-4.3
			c37.1-22.4,63.8-51.3,78.7-87.7c12.4,0.1,24.7,0.3,37.1,0.4c-8.4,12.8-4.4,23.6,7.9,33c-8.3,8.5-16.7,17-25.1,25.4
			c-9.8-11.7-21.7-14-35-4.3c-11.4,8.5-23.2,16.9-32.7,26.8c-16.6,17.5-32.2,36-47,54.7c-5.4,6.8-7.6,15.4-11.2,23.3
			c9.1,1,18,2,27.1,3c-1.6,4-3.2,7.9-4.9,12l-0.1,0.1C454.5,124.8,447.9,128.9,441.3,132.9z"/>
		<path class="st9" d="M1717.6-54.1c3.3,1.7,6.9,5.1,10,4.9c39.3-3.2,43.8,22.7,53.8,44.2c-20.2,0.3-40.5,0.2-60.7,1.2
			c-28.8,1.5-57.7,4-86.5,6.1c-18.1-18.8-36.2-37.6-54.3-56.4C1625.7-54.2,1671.7-54.2,1717.6-54.1z"/>
		<path class="st20" d="M33.1,13.5c0.4-6.4,0.8-12.9,1.2-19.3c0.9-12.6,1.6-25.2,2.5-37.7c32.4-4.1,64.8-9,97.3-11.8
			c16.7-1.4,34,0.8,51,1.4c-5.3,16.2-10.7,32.4-16,48.7c-19.3,0-38.8,1.2-57.9-0.4C81.6-8.3,54.7-5.7,33.1,13.5z"/>
		<path class="st15" d="M1968.9,834c-20.6-11.4-43.4-12.5-67.5-13.2c-18.6-0.6-36.9-7.5-55.4-11.6c3.7-6.1,6.9-12.4,11.2-18
			c4.3-5.5,11.4-9.8,14.7-15.6c12.4-22.3,26.9-28.1,55.2-21.3c13.9,3.3,28,6.3,41.9,9.5C1969,787.1,1969,810.6,1968.9,834z"/>
		<path class="st2" d="M169-5.3c5.3-16.2,10.7-32.4,16-48.7c44.4-0.1,88.8-0.2,133.1-0.4c-10.7,18.5-21.4,37-32.1,55.5
			c-36.9-1.4-73.9-2.9-110.7-4.4C173.3-4,171.2-4.6,169-5.3z"/>
		<path class="st1" d="M1969.3,920.5c-39.6-0.4-79.9,2-118.8-2.9c-16.6-2.1-30.4-19.4-45.6-29.8c54.5-0.6,109.1-1.1,163.7-1.7
			C1968.8,897.6,1969,909,1969.3,920.5z"/>
		<path class="st16" d="M-53.2,1036.1c25.9,2.6,51.8,6.2,77.9,7.8c71.8,4.6,143.6,8.4,215.4,12.6c8.1,0.4,16,2,24.1,3.1
			c-19.8,3.1-39.6,6.2-59.4,9.2c-64.2-4.4-128.4-9.2-192.6-12.9c-18.4-1.1-37,0.8-55.6,1.2C-46.7,1050.1-49.9,1043.1-53.2,1036.1z"
			/>
		<path class="st21" d="M-60.9,859c20.8,4.9,41.9,9.2,62.4,14.8c4.1,1.1,9,6.8,9,10.4c0,3.6-4.9,9.4-8.9,10.4
			c-20.7,5.1-41.8,9-62.7,13.3C-61,891.5-60.9,875.3-60.9,859z"/>
		<path class="st2" d="M-60.9,948.8c34.4-5.6,68.8-11.1,103.2-16.8c11.2-1,22.6-2,33.8-3.1c0.2,5.3,0.4,10.6,0.8,15.8
			c-45.9,9.7-91.8,19.5-137.7,29.2C-60.9,965.6-60.9,957.1-60.9,948.8z"/>
		<path class="st20" d="M-60.5,570c14.5-8.3,29-16.5,43.5-24.8c-1.6,17.9-3.2,35.7-4.8,53.7c-5.7,6.3-10.8,13-17.3,18.6
			c-6.3,5.4-14.1,9.6-21.3,14.3C-60.4,611.3-60.5,590.7-60.5,570z"/>
		<path class="st10" d="M545-53.7c-14.9,36.4-41.6,65.3-78.7,87.7c3.2-6.8,6.4-13.7,9.6-20.5c3.2-2.9,6.6-5.6,9.8-8.5
			c3.2-4.1,6.6-8.1,9.8-12.1c5-5.5,9.9-11,14.9-16.7c3.1-2.8,6.4-5.5,9.6-8.3c4.8-7.3,9.6-14.6,14.4-21.8
			C538-53.8,541.4-53.7,545-53.7z"/>
		<path class="st22" d="M590-20.2c-12.3-9.4-16.3-20.1-7.9-33c13.5,0.2,27,0.3,40.5,0.6C613-42,603.4-31.3,593.8-20.7
			C592.5-20.5,591.3-20.3,590-20.2z"/>
		<path class="st22" d="M942.5-50.3c-0.8-1.1-1.6-2.3-2.4-3.4c0,0,1.9-1.1,1.8-1.1C942.1-53.4,942.3-51.8,942.5-50.3z"/>
		<path class="st13" d="M1968.9,735.3c0-3,0-6.1,0-9.2C1968.9,729.2,1968.9,732.2,1968.9,735.3z"/>
		<path class="st14" d="M-60.7,1006.5c0.5,1.1,1.2,2.2,1.5,3.4c0.1,0.4-0.6,1.1-1.1,1.7C-60.4,1009.9-60.5,1008.2-60.7,1006.5z"/>
		<path class="st22" d="M1968.9,60.9c0,0-0.1-0.2-0.1-0.1C1968.9,60.8,1968.9,60.9,1968.9,60.9z"/>
		<path class="st16" d="M-56.5,1026.9c1.3,2.5,2.5,5,3.8,7.5C-54.1,1031.8-55.2,1029.4-56.5,1026.9z"/>
		<path class="st20" d="M1524.7,1127.1c-60.5,0-121,0.1-181.5,0.1c-77.3-0.3-154.7-0.8-232-1.1c-22-18.4-34.4-51.4-78.6-36.7
			c0-4.2-0.1-8.4-0.1-12.6c17-15.3,32.2-4.6,48.4,1.5c19,7.3,38.1,16,58.3,18.8c23.6,3.3,48.5,1.8,72.8,1c34-1.1,68.3-1.1,101.6-6.1
			c30-4.4,58.1-17.8,88.1-22.1c47.2-6.8,95.2-9.4,143-13.7c-4.2,20.3-17.9,40.3-2.9,61.6C1541.7,1118.1,1530.5,1124,1524.7,1127.1z"
			/>
		<path class="st18" d="M1569.2,986.4c-2.9,8.2-5.9,16.3-8.9,24.5c-5.4,4.1-10.8,8.2-16.3,12.2c-28.1,4.1-56.4,7.4-84.2,12.6
			c-48.5,8.9-96.2,21-145,28c-43.3,6.3-84.7,26.1-131,15.7c-4.3-1-9.6,0.4-14.3,1.3c-30.3,6-59.3,0.1-82.5-15.1
			c-17.6-11.5-32.9-14.2-53.9-11.4c-11,1.5-23.4-4-35.3-6.4c1.6-4.3,3.1-8.6,4.8-12.9c9,0,18.5,1.4,26.9-0.3
			c20.1-4.2,38.5-4.7,55.5,7.6c4,2.9,10.5,4.2,16.1,4.7c79.3,7.4,157.5,7.1,231.5-23.3c15.2-1.4,30.7-2.3,45.8-4.5
			c21.1-3.2,41.9-7.6,63-11.3C1484,1000.7,1526.5,993.6,1569.2,986.4z"/>
		<path class="st16" d="M998.1,1047.9c11.8,2.3,24.3,7.9,35.3,6.4c20.9-2.9,36.3-0.2,53.9,11.4c23.1,15.1,52,21,82.5,15.1
			c4.6-0.9,9.9-2.3,14.3-1.3c46.3,10.6,87.6-9.4,131-15.7c48.8-7.1,96.5-19.1,145-28c27.9-5.2,56.1-8.4,84.2-12.6
			c25.6,10.8,7.2,22.1,0.5,33.2c-47.7,4.3-95.8,6.8-143,13.7c-30,4.3-58.1,17.7-88.1,22.1c-33.3,5-67.7,5-101.6,6.1
			c-24.3,0.8-49.1,2.3-72.8-1c-20.2-2.9-39.3-11.6-58.3-18.8c-16.3-6.2-31.5-16.9-48.4-1.5c-14.9,4-29.6,8.4-44.6,11.9
			c-10.6,2.4-21.5,3.8-32.2,5.6c1.1-13.6,2.2-27,3.3-40.6C971.8,1051.9,985,1049.9,998.1,1047.9z"/>
		<path class="st14" d="M204.8,1068.9c19.8-3.1,39.6-6.2,59.4-9.2c71.2,0.2,142.3-0.1,213.4,0.8c55.2,0.8,110.5,3.1,165.6,4.6
			c-9.4,2.5-18.6,6.2-28.2,7.3c-21.7,2.4-43.5,3.5-65.3,5.1c-19.8-1.9-36.5,1.4-50.9,14.8c-17.3,16-40.7,16.8-63.9,12.1
			c-71.4-14.1-142.2-31-216.4-31.8C213.8,1072.5,209.3,1070.1,204.8,1068.9z"/>
		<path class="st16" d="M549.6,1077.5c21.8-1.7,43.6-2.8,65.3-5.1c9.6-1.1,18.8-4.7,28.2-7.3c70.6,4.6,141.2,10.6,212,13.1
			c29.2,1,58.6-5.4,87.9-8.4c0.4,1.7,0.8,3.4,1.2,5.1v0.3c-0.2,6.4-0.4,12.8-0.8,19.2c-0.4,0.2-1,0.6-1.4,0.8c0.5,0.7,1.1,1.3,1.6,2
			c0.1,3.1,0.2,6.3,0.3,9.4c-57.2-4.3-114.5-8.8-171.7-13c-38-2.8-76-5.2-113.9-7.7c-11.6-0.1-23.1-0.1-34.6-0.2
			c-17.1-0.1-34.2,0.6-51.1-0.7C564.9,1084.3,557.3,1080,549.6,1077.5z"/>
		<path class="st23" d="M942.5,1053.1c-47.9,1-95.9,3.2-143.8,2.5c-59.6-0.8-119.2-4.1-178.8-6.2c-11.4-0.4-22.9-1-34.3-1.2
			c-82.6-1.4-165.4-0.6-247.9-5c-64.1-3.4-128.1-12.4-191.6-21.1c-9.9-1.3-17.3-15.2-25.8-23.4c8.5-5.4,17.2-10.8,25.7-16.2
			c36.3,0.2,72.5,0.3,108.7,0.6c7.1,1.2,14.1,3,21.3,3.5c41.2,3.2,82.9,4.2,123.7,9.7c34.3,4.6,63.5,5.5,78-26.9
			c1.9-5.4,6.9-11.6,5.4-16.2c-7.2-22.3,8.5-30.7,29.5-34.4c13.3-2.4,28.3-3.8,41.2-1.1c24.9,5.2,46.8,0.1,68.6-8.7
			c34.4-14,69.8-26.8,103.1-42.6c21.7-10.3,40.6-24.8,60.8-37.4c5.7-0.2,11.3-0.4,17.1-0.7c3.6,13.7,13.1,17,26.6,9.3
			c33.3-19,66-38.5,98.9-57.8c5.9,1.9,12,3.8,17.9,5.5c-1.6,10.6-3.1,21.3-4.8,31.9c-7,3.1-14.5,5.7-21.1,9.5
			c-17.1,9.4-33,20.2-50.6,28.7c-36,17.3-72.8,33.6-109.2,50.3c-13,5.3-25.9,10.6-38.9,15.8c-50.9,11-101.8,22.2-152.7,33.2
			c-13.7-0.3-27.5-1.2-41.1-0.6c-5.4,0.2-10.5,4.2-15.8,6.4c4.4,4.2,8.2,11.1,13.5,12.1c10.8,2.1,22.5,0.9,33.7,1.1
			c9.5,1.4,19.1,4.3,28.5,4.1c22.8-0.6,45.6-2.4,68.5-3.9c8.9,7,16.6,18.2,26.9,20c42,7.5,84.9,11.8,127.2,18.1
			c9.3,1.3,17.6,6.4,26.8,8.8c20.4,5.5,40.7,11.6,61.7,15.2c14.9,2.5,30.8,1.5,46.2,2.1C944.5,1042.9,943.6,1047.9,942.5,1053.1z"/>
		<path class="st5" d="M890,149.9c-30.7,12.6-53.1,30.6-60.6,59.9c-9.6,37.8-44.8,65.8-78.9,65.4c-7.6-28.9-17.5-57-21.6-85.8
			c-4.4-30.8-0.2-62.2,20-89.1c7.5-9.9,24.1-15,36.5-22.3c45.5-26.6,90.7-53.4,136.5-79.7c5.8-3.3,13.7-4,20.6-6
			c0.4,7.2,1,14.3,1.4,21.5c0,1.1,0,2.2,0,3.3c1.2,34.8,2.6,69.4,3.5,104.1c0.1,6.6-2.2,13.3-3.5,20.1
			C925.8,144.3,907.9,147.1,890,149.9z"/>
		<path class="st24" d="M944.2,343c0.1,34.4,0.2,68.8,0.3,103.1c-6.5,1.1-16.3,0.3-18.9,3.6c-11.7,14.5-24.7,28.4-17.2,48.8
			c7.9,21.4-5.8,32.8-32.4,29.2c-9.7-1.3-19-4.3-28.7-5.6c-15.4-2.2-42.9,20.3-38.5,32.2c4.6,12.8,15.2,10.1,27.6,6.3
			c16.4-5.2,34-7.1,46.5,7.5c12.1,14.2,0.6,24.3-9.4,34.5c-2.1,2.1-3.5,4.9-5.9,6.5c-12.7,9.3-24.6,12.7-37-1.3
			c-6.7-7.5-16-13.6-24.9-19.3c-14.1-9-25.7-8.8-36.1,6c-5.2,7.4-16.6,11.6-25.3,17.3c-1.9-1-3.9-2-5.8-3.1
			c1.8-15.4,13.2-34.2-16.1-39.1c4.5-16.8-0.2-30.2-17.2-41.4c-7.2-4.7-11.8-13-16-20.3c-3.1-5.4-7.5-15.4-5.1-17
			c10-6.8,23-16.3,33.8-15.6c29.5,2.3,68.7-9.7,82.7-31.4c6.8-10.6,14.7-14.8,29.5-12.7c33,4.7,54.7-6.2,60.8-34.2
			c4.4-20.5,5.8-40.6,28.3-53.7C927.6,343.4,935.9,343.2,944.2,343z M784.1,498.5c-11.2,8.5-20.3,15.4-29.4,22.4
			c8.3,4,18.4,12.5,24.6,10.8c11.2-3,20.2-11.9,30.1-18.4C802.4,509.2,795.4,505.2,784.1,498.5z"/>
		<path class="st24" d="M944.6,595c-0.2,23.2-0.4,46.3-0.6,69.5c-2.5,2.6-5,5.4-7.3,8.1c-1.1,2.2-2.2,4.4-3.2,6.6
			c-1.6,1.9-3.3,3.8-5,5.5c-6.4,9.2-12.7,18.3-19.2,27.4c-2.1,2-4.2,4.1-6.3,6.1c-1.1,1.9-2.3,3.9-3.3,5.7c-4,3.8-8.1,7.6-12.1,11.4
			c-2.5,3-5,6-7.5,8.9c-8.3,5-17,9.7-25.1,14.9c-35.8,22.9-71.6,46-107.3,69c-8.1,4.7-16.1,9.5-24.2,14.1c-2.4,1.7-4.6,3.3-7,4.9
			c-7.8,3.6-15.5,7.4-23.3,11c-6.6,2.3-13.2,4.6-19.8,7c-11,2.3-23.2,2.8-32.7,7.3c-29.5,14.1-57.3,29.2-91.7,7.8
			c-8.4-5.3-21.4-5.6-32.3-8.3c8.5-7.6,16.7-15.6,25.8-22.7c4.6-3.6,11-5.8,16.4-8.9c40.3-22.7,90.2-32.5,123.8-64.2
			c19.3-3.9,40.9-4.4,57.4-12.5c23.8-11.6,44.5-27.9,65.3-43.2c10.7-7.8,18.5-18.3,28.2-27c7.1-6.4,14.6-15.8,23.3-17.2
			c22.5-3.5,25.5-17.1,32.8-31.2C901.2,623.8,910.3,599.2,944.6,595z"/>
		<path class="st21" d="M944.6,595c-34.3,4.2-43.5,28.8-54.5,50c-7.3,14.1-10.4,27.7-32.8,31.2c-8.7,1.3-16.2,10.7-23.3,17.2
			c-9.7,8.7-17.6,19.2-28.2,27c-20.8,15.3-41.6,31.8-65.3,43.2c-16.5,7.9-38.1,8.6-57.4,12.5c19.8-9,39.6-17.8,59.2-27.1
			c22.9-10.9,26.3-25.4,12.1-43.2c-3.9-4.9-6.4-10.9-7.6-16.8c-9-43.9-8.9-43.9-61.2-50.3c-0.8-0.1-1.4-0.8-3.8-2.1
			c0.2-5,0.5-10.8,0.9-16.8c1.8-1.5,3.7-3.2,5.5-4.7c38.7-6.3,47.7-18.2,33.8-44.9l0.5-0.4c29.3,4.9,17.9,23.6,16.1,39.1
			c1.9,1,3.9,2,5.8,3.1c8.6-5.6,20.2-9.9,25.3-17.3c10.4-14.9,21.8-15,36.1-6c9,5.7,18.4,11.8,24.9,19.3c12.4,14,24.4,10.6,37,1.3
			c2.4-1.8,3.8-4.4,5.9-6.5c10-10.3,21.4-20.3,9.4-34.5c-12.4-14.7-30-12.7-46.5-7.5c-12.4,4-22.9,6.5-27.6-6.3
			c-4.3-11.9,23.1-34.4,38.5-32.2c9.7,1.3,19,4.4,28.7,5.6c26.6,3.6,40.3-7.7,32.4-29.2c-7.6-20.4,5.5-34.3,17.2-48.8
			c2.6-3.3,12.4-2.5,18.9-3.6C944.6,495.8,944.6,545.3,944.6,595z M806.6,663c-10.3-8.1-19.2-18-22.2-16.9
			c-8.6,3.3-20,10.6-20.8,17.1c-0.8,6.6,9.8,14.1,15.4,21.3C786.9,678.4,794.6,672.3,806.6,663z"/>
		<path class="st25" d="M945.5,1037.8c-15.4-0.6-31.3,0.4-46.2-2.1c-20.9-3.6-41.2-9.7-61.7-15.2c-9.2-2.4-17.5-7.5-26.8-8.8
			c-42.3-6.3-85.2-10.6-127.2-18.1c-10.1-1.8-17.9-13-26.8-20c10.6-2,21.2-4,31.6-6c37.5-4.9,75-9.7,112.5-14.6
			c8.5,1.4,17.2,4.4,25.6,4.1c38.9-1.2,77.7-3.4,116.6-5.3C944.1,980.5,944.8,1009.1,945.5,1037.8z"/>
		<path class="st21" d="M919.3,343.7c-22.6,13.1-24,33.2-28.3,53.7c-6,27.9-27.9,38.9-60.8,34.2c-14.8-2.1-22.6,2-29.5,12.7
			c-14,21.7-53.2,33.8-82.7,31.4c-10.8-0.9-23.8,8.7-33.8,15.6c-2.4,1.7,1.9,11.7,5.1,17c4.2,7.3,8.7,15.6,16,20.3
			c17,11.1,21.7,24.6,17.2,41.4l-0.5,0.4c-4.8-4.9-9.8-9.4-14-14.5c-3.8-4.6-6.6-9.9-9.8-14.9c-4.6-1.5-9.3-3.1-13.9-4.5
			c-1.4-1.3-2.8-2.8-4.2-4.1c-2.2-2.8-4.2-5.4-6.4-8.2c-6.8-10.8-13.7-21.6-20.5-32.3c8.2-6.7,16.4-13.6,24.6-20.3l0.5-0.4
			c3.6-2.6,7.1-5.2,10.7-7.8c12.4-4.2,24.7-8.6,37.3-12.6c17.2-5.4,36.2-8.3,51.3-16.2c19.1-9.9,34.9-20.5,60.4-14.2
			c23.8,5.8,29.2-14.3,36.6-26.9c3.1-5.3-1.1-15.4-5.6-21.5c-8.5-11.6-19.8-21.7-29.8-32.5c-0.2-4.2-0.3-8.4-0.5-12.7
			c4.6-12.2,9.3-24.5,13.9-36.7c2.6-2.4,7-4.5,7.6-7.2c4.2-19,17.8-29.1,39.8-33.6c21.1-4.3,40.9-10.9,44.8-32.4
			c0,18.9,0,37.8,0,56.7c-8.7-0.7-17.6-2.3-26.2-1.9c-28.3,1.4-32.2,20.5-39.8,38.1c-13.1,29.7-10.7,33.8,25.7,33.3
			C909.2,343,914.2,343.3,919.3,343.7z"/>
		<path class="st15" d="M955.6,766.8c1-23.8,1.8-47.7,2.8-71.4c16.5-28.1,33.1-56.3,49.7-84.4c1.6-2.3,3.2-4.7,4.9-7.1
			c5.3-7.2,10.6-14.3,15.8-21.5c2.9-2.5,5.8-5.2,8.7-7.7c12.3-13.1,18.6-27.2,9.8-43.7c3-0.9,6-1.7,9.2-2.5
			c28.1,10.4,19.1-11.4,24.9-20.3c5,4,10,7.9,15,11.9c-11.6,17.1-23,34.2-34.6,51.2c-10.4,15.2-20.7,30.4-30.9,45.7
			c-14.9,22.5-11.6,27.7,19,30.2c-32.4,27.4-54.6,59.2-61.9,97.7c-9.3,8.9-18.6,17.9-27.8,26.8C958.8,770.2,957.2,768.5,955.6,766.8
			z"/>
		<path class="st3" d="M944.6,216.5c-3.9,21.5-23.6,28.1-44.8,32.4c-22,4.5-35.6,14.7-39.8,33.6c-0.5,2.6-5,4.7-7.6,7.2
			c1.6-17.9,3.2-35.7,4.9-53.6c0.5-4.4,1.1-8.8,1.6-13.2c1.2-5.3,2.5-10.6,3.7-15.8c1.2-4.1,2.4-8.1,3.6-12.1
			c2.8-3.9,5.7-7.7,8.5-11.6c13.2-7.9,26.5-15.9,39.6-23.9c3-1,6-1.9,9.1-2.9c6.7-1.3,13.4-2.6,20.1-4.1
			C943.9,174,944.3,195.3,944.6,216.5z"/>
		<path class="st25" d="M998.1,1047.9c-13.1,2-26.1,4-39.2,6c-1.7-11.9-4.8-23.9-4.9-35.9c-0.1-26.1,1.3-52.4,2.1-78.5
			c3.6,0.7,7.1,1.2,10.7,1.9c3.7,1.5,7.2,3.1,10.8,4.6c20.1,7.2,40.1,14.2,61.8,22.1c-25.9,17-37.9,39.6-36.6,67.2
			C1001.2,1039.3,999.6,1043.6,998.1,1047.9z"/>
		<path class="st3" d="M957.9,149.2c30.7,3,49.1,17.8,58.6,41.8c8.6,21.8,18,43.4,27.1,65.1c-2.2,0.4-4.2,0.9-6.4,1.3
			c-8.4,13.3-16.8,26.8-25.3,40.2c0.9-7.1,1.6-14.1,2.5-21.1c0-6.2,0-12.5,0.1-18.6c7-29.2-10.3-52-27.1-74.9
			c-2.3,6-1.4,11,0.6,15.9c18.5,41.8,17.2,43.7-33.5,46.1c12.1-24.7-3.7-49.3-0.5-74C955,163.5,956.6,156.3,957.9,149.2z"/>
		<path class="st26" d="M955.9,617.5c0.1-16.5,0.3-33,0.4-49.5c0-9.6,0.1-19.3,0.1-28.9c0.6-6,1.4-12,2.1-18
			c3.5-15.7,8-31.2,9.9-47.1c2.5-20,2.8-40.2,4.1-60.2c0.4,20.5,0.9,41,1.4,61.4c10.1,5.2,20.3,10.4,30.4,15.6
			c2.7,2.9,5.4,5.7,8.1,8.6c3.9,4.4,7.8,8.8,11.7,13.2c1.2,2.6,2.4,5.3,3.6,7.9c-1.4,2.3-2.9,4.6-4.3,7c-5,7.4-9.9,14.7-14.9,22.1
			c-12.8,18.2-25.9,36.4-38.3,54.8c-1,1.4,1.9,4.7,3.1,7.2c-5,2.6-9.8,5.2-14.8,7.8C958,618.2,957.2,617.6,955.9,617.5z"/>
		<path class="st27" d="M761.2,905.4c36.4-16.7,73.2-32.9,109.2-50.3c17.6-8.5,33.6-19.3,50.6-28.7c6.6-3.6,14-6.3,21.1-9.5
			c0.3,4.1,0.6,8.3,1.1,12.4c-22.9,13.9-45.7,27.8-68.6,41.7c-19.3,10.8-43,19.7-29.3,45.5c-17.9,3.4-36.2,6-53.6,10.7
			c-7.6,2.1-13.4,8.9-20,13.6c-26.9-2.3-30.1-7.7-16.1-26.3C757.9,911.6,759.3,908.4,761.2,905.4z"/>
		<path class="st20" d="M658.4,1085.8c38,2.5,76,4.9,113.9,7.7c57.2,4.2,114.5,8.7,171.7,13c0.1,6.5,0.3,13.1,0.4,19.6
			c-33,0.1-66.1,0.2-99.1,0.2c-28.4-6.7-56.5-14.7-85.2-20c-26.9-5-54.6-6.7-81.7-11C671.3,1094.3,665.1,1089.1,658.4,1085.8z"/>
		<path class="st20" d="M958.3,866.7c0.2-12.1,0.5-24.3,0.8-36.5c7.3-12.8,14.7-25.5,21.9-38.3c11,10.7,22.1,21.4,34,33
			c3.6-9.9,6.6-18.2,11.6-31.8c4.9,16.2,7.9,26.5,10.9,36.6c-7.9,6.1-19.4,11-22.9,18.5c-6.3,13.6-7.7,28.7-11.1,43.1
			c-8.4,0.2-17,0.4-25.4,0.7l0.3-0.1c-2.2-1.4-4.3-2.8-6.5-4.2c-3.6-4.4-7.1-8.8-10.7-13.3C960.1,871.9,959.2,869.2,958.3,866.7z"/>
		<path class="st21" d="M972.5,413.7c-1.3,20.1-1.6,40.3-4.1,60.2c-1.9,15.8-6.6,31.4-9.9,47.1c-0.2-18-0.3-36-0.5-53.9
			c-0.2-18.1-0.4-36.3-0.5-54.4c-0.4-21.3-0.9-42.6-1.3-64c1.1-0.3,1.8-0.9,2.3-1.7c1.4-1.4,2.7-2.9,4.1-4.3v-0.7
			c31.1-5.8,47.6-20.5,50-44.2l-0.3-0.3c8.4-13.3,16.8-26.8,25.3-40.2c1.4,8.6,5.6,17.8,3.5,25.7c-4.3,16.2-12,31.7-18.4,47.4
			c-3.8,5.6-7.6,11.3-11.2,16.9c-28.7,3.8-43.4,19-41,42.3C971.1,397.7,971.7,405.7,972.5,413.7z"/>
		<path class="st10" d="M845.3,916.3c-13.7-25.7,9.9-34.6,29.3-45.5c22.9-1.2,45.9-2.5,68.8-3.8c0.5,14,1.2,28.1,1.7,42.1
			c-10.7,2.3-21.3,6.1-32.1,6.5C890.5,917,867.9,916.3,845.3,916.3z"/>
		<path class="st26" d="M919.3,343.7c-5.1-0.3-10.1-0.7-15.1-0.9c-5.8-11.7-24.5-17.1-14.9-36.5c11.8-23.7,29.8-27.1,55-24.6
			c0,20.4,0,40.9,0,61.3C935.9,343.2,927.6,343.4,919.3,343.7z"/>
		<path class="st8" d="M845.3,916.3c22.6-0.1,45.2,0.6,67.7-0.4c10.8-0.6,21.4-4.3,32.1-6.5c-0.5,10.4-1.1,20.7-1.6,31.1
			c-47.5-1.2-95-2.3-142.5-3.5c-9.7,1.3-19.4,2.5-29,3.9c6.6-4.6,12.3-11.5,20-13.6C809.1,922.3,827.4,919.9,845.3,916.3z"/>
		<path class="st8" d="M943.6,152.8c-6.7,1.3-13.4,2.6-20.1,4.1c-3,1-6,1.9-9.1,2.9c-13.2,7.9-26.5,15.9-39.6,23.8
			c-2.8,3.9-5.7,7.7-8.5,11.6c-1.2,4.1-2.4,8.1-3.6,12.1c-1.2,5.3-2.5,10.6-3.7,15.8c-0.5,4.4-1.1,8.8-1.6,13.2
			c-2.7,5.3-6.2,10.5-7.9,16c-5.9,19.1-10.3,38.6-17.5,57.3c-3.5,8.8-9.1,20.6-26.1,12.8c23.8-18.3,22.8-44.1,30.1-67.7
			c8.5-27.5,19.8-54.4,32-80.9c4.1-8.9,14.5-16,22-23.8c17.9-2.8,35.8-5.6,53.8-8.4C943.8,145.2,943.7,149,943.6,152.8z"/>
		<path class="st26" d="M1014.6,276.4c-0.9,7.1-1.6,14.1-2.5,21.1l0.3,0.3c-16.7,14-33.4,28.1-50.1,42.1c-2.3-1-4.5-1.9-6.8-2.9
			c0.2-26.3,0.4-52.6,0.6-78.9c1.3-0.2,2.2-0.8,2.8-1.7c2.5,5.3,5.1,10.6,7,14.6C983.2,273,998.9,274.7,1014.6,276.4z"/>
		<path class="st27" d="M800.9,936.8c47.5,1.2,95,2.3,142.5,3.5c0,3.9-0.1,7.7-0.1,11.6c-38.9,1.8-77.7,4-116.6,5.2
			c-8.4,0.2-17.1-2.6-25.6-4.1C801,947.7,800.9,942.3,800.9,936.8z"/>
		<path class="st20" d="M958.5,619.2c5-2.6,9.8-5.2,14.8-7.8c3.7,2.8,7.3,5.5,11.4,8.6c2.1-9.8,3.7-18,6.5-31.6
			c8.2,10.8,12.5,16.8,17,22.6c-16.5,28.1-33.1,56.3-49.7,84.4c-0.5-19.9-1.2-39.6-1.7-59.5C957.3,630.4,957.8,624.9,958.5,619.2z"
			/>
		<path class="st7" d="M946.8,785c-5.9-1.9-12-3.8-17.9-5.5c-5-18.4-18.9-11.6-31.4-7.6c-10.9,3.4-21.5,7.6-32.3,11.6
			c18.6-16,36.6-32.7,56.1-47.7c4.4-3.4,14.6-1.7,22.1-2.3C944.5,750.6,945.7,767.8,946.8,785z"/>
		<path class="st15" d="M943.4,733.4c-7.6,0.7-17.7-1.1-22.1,2.3c-19.7,15.1-37.6,31.7-56.1,47.8c-19.8,11.1-39.4,22.2-59.2,33.2
			c1.7-2.6,3.5-5.4,5.1-8.1c23.2-19,46.3-38,69.5-56.9c9.4-6.3,19-12.2,28-19c11.8-8.9,23-18.4,34.4-27.6
			C943.2,714.6,943.3,723.9,943.4,733.4z"/>
		<path class="st8" d="M961,874.4c3.6,4.4,7.1,8.8,10.7,13.3c2.2,1.4,4.3,2.8,6.5,4.2l-0.3,0.1c12.1,8.8,24.2,17.7,36.6,26.6
			c-5.1,2-9.4,3.6-13.7,5.3c-11.3,5.8-22.6,11.6-33.9,17.4c-3.6-0.7-7.1-1.2-10.7-1.9c0-21.1,0-42.1-0.1-63.3
			C957.7,875.6,959.3,875,961,874.4z"/>
		<path class="st28" d="M981,791.9c-7.3,12.8-14.7,25.5-21.9,38.3c-1.1-13-2.1-26-3.1-39.1c12.4-14.8,24.9-29.6,37.4-44.3
			c8.3-13.6,16.6-27.1,24.9-40.8c-0.4,4-0.9,7.8-1.3,11.8c-5.2,16.5-10.4,33-15.5,49.5C994.6,775.4,987.8,783.7,981,791.9z"/>
		<path class="st28" d="M943.3,867.2c-22.9,1.2-45.9,2.5-68.8,3.8c22.9-13.9,45.7-27.8,68.6-41.7
			C943.2,841.9,943.2,854.5,943.3,867.2z"/>
		<path class="st21" d="M954.7,244.7c50.7-2.4,51.9-4.3,33.5-46.1c-2.2-4.7-2.9-9.9-0.6-15.9c16.8,22.9,34.1,45.7,27.1,74.9
			c-18.8-2.6-37.6-5.4-56.4-8.1c-1.1-0.3-2.3-0.7-3.3-1.1C954.5,247.3,954.3,246,954.7,244.7z"/>
		<path class="st24" d="M944.2,281.7c-25.2-2.5-43.3,0.9-55,24.6c-9.6,19.5,9.1,24.8,14.9,36.5c-36.3,0.4-38.7-3.6-25.7-33.3
			c7.7-17.5,11.6-36.6,39.8-38.1c8.6-0.4,17.5,1.2,26.2,1.9C944.5,276,944.4,278.8,944.2,281.7z"/>
		<path class="st1" d="M943,705.2c-11.4,9.3-22.7,18.8-34.4,27.6c-8.9,6.7-18.6,12.7-28,19c-0.2-2.5-0.4-5.1-0.6-7.6
			c2.5-3,5-6,7.5-8.9c4-3.8,8.1-7.6,12.1-11.4c1.1-1.9,2.3-3.9,3.3-5.7c2.1-2,4.2-4.1,6.4-6.1c6.4-9.2,12.7-18.3,19.1-27.4
			c1.6-1.9,3.3-3.8,5-5.6c1.1-2.2,2.2-4.4,3.1-6.6c2.8,0.1,5.5,0.3,8.3,0.4C944.3,683.8,943.7,694.5,943,705.2z"/>
		<path class="st29" d="M993.3,746.8c-12.4,14.8-24.9,29.6-37.4,44.3c0.2-5.7,0.3-11.5,0.5-17.1c1.6-0.3,2.8-1.1,3.8-2.1
			c9.3-8.9,18.6-17.9,27.8-26.7C989.9,745.7,991.6,746.2,993.3,746.8z"/>
		<path class="st14" d="M957.4,412.6c0.2,18.2,0.4,36.3,0.5,54.4C957.8,448.9,957.6,430.8,957.4,412.6z"/>
		<path class="st14" d="M956.4,539c0,9.6-0.1,19.3-0.1,28.9C956.4,558.3,956.4,548.6,956.4,539z"/>
		<path class="st16" d="M945,673.1c-2.8-0.1-5.6-0.3-8.3-0.4c2.5-2.6,5-5.4,7.5-8.1C944.3,667.3,944.6,670.2,945,673.1z"/>
		<path class="st14" d="M958.5,619.2c-0.5,5.6-1.2,11.1-1.7,16.8c-0.2-6.2-0.5-12.4-0.8-18.5C957.2,617.6,958,618.2,958.5,619.2z"/>
		<path class="st14" d="M955.6,337.3c2.3,1,4.5,1.9,6.8,2.9c-0.2,0.7-0.1,1.4,0.1,2.1v0.7c-1.4,1.4-2.7,2.9-4.1,4.3
			c-0.4,0.9-1.3,1.4-2.3,1.7C956,344.9,955.8,341,955.6,337.3z"/>
		<path class="st14" d="M955,248.7c1.1,0.3,2.3,0.8,3.3,1.1c0.2,2.3,0.4,4.6,0.6,7c-0.5,1-1.5,1.5-2.8,1.7
			C955.9,255.1,955.4,251.9,955,248.7z"/>
		<path class="st28" d="M961,874.4c-1.6,0.6-3.3,1.2-5,1.8c0.8-3.2,1.5-6.3,2.3-9.5C959.2,869.2,960.1,871.9,961,874.4z"/>
		<path class="st20" d="M943.7,1097.1c-0.5-0.7-1.1-1.3-1.6-2c0.4-0.2,1-0.6,1.4-0.8C944.1,1095.3,944.1,1096.3,943.7,1097.1z"/>
		<path class="st10" d="M943.8,17.3c0-1.1,0-2.2,0-3.3l1.3,1.7L943.8,17.3z"/>
		<path class="st18" d="M944.3,1075.3v-0.3C944.2,1074.9,944.3,1075.3,944.3,1075.3z"/>
		<path class="st28" d="M960.3,771.8c-1,1.1-2.3,1.8-3.8,2.1c-0.3-2.4-0.6-4.7-0.9-7.2C957.2,768.5,958.8,770.2,960.3,771.8z"/>
		<path class="st17" d="M1032.4,1089.4c44.2-14.7,56.6,18.2,78.6,36.7c-32.4-0.1-64.7-0.1-97.1-0.3c-2.1,0-4-1.7-4-1.7
			C1017.7,1112.3,1025.1,1100.9,1032.4,1089.4z"/>
		<path class="st20" d="M1022.6,330.5c6.4-15.8,14-31.3,18.4-47.4c2.2-7.9-2.2-17.1-3.5-25.7c2.2-0.4,4.2-0.9,6.4-1.3
			c4.6,3.1,9.2,6.1,13.8,9c4.1,21.6,19.1,36.3,41.7,46.8c9.9,4.6,17.7,9.8,10.7,22.8c-3.9,7.3,3,18.4,4,27.9
			c0.4,4.4-1.7,8.9-2.7,13.5c-1.3-0.3-2.7-0.7-4-0.9c1.3,0.3,2.5,0.8,3.8,1.1c1.5,5.3,2.9,10.5,4.4,15.8c-7.8,6-15.7,12-23,17.7
			c5.1,7.8,9,13.8,12.8,19.9c-9.7,1.5-17.1,2.6-24.4,3.9c-10.5-9.5-22.4-17.4-37.6-21c1.6-16,3.1-32.1,4.8-48.1
			c-0.4-2.6-1-5.3-1.4-7.9c-1.2-2.6-2.4-5.4-3.5-8.1c17,0.8,33.8,1.5,50.7,2.3c0.2-1.5,0.5-3.2,0.8-4.7c-19.3-2.1-38.7-4.3-58.1-6.4
			C1031.9,336.5,1027.2,333.5,1022.6,330.5z"/>
		<path class="st13" d="M1220.7,326.6c35,7.7,60.7,34.1,62.6,64.4c0.5,8.7,0.4,17.5,0.6,26.4c-3.7,10.1-7.2,20.3-10.9,30.6
			c-11.4-2-22.9-3.9-34.4-5.8c0.8-7-1.5-17.5,2.9-20.3c17.6-10.5,9-17.9-1.4-26c-17.3-13.7-35.3-19.1-55-3
			c-4.1-5.5-8.1-10.9-12.5-16.9c7.9-3.1,14.1-5.5,21.6-8.4c-3.8-6.6-6.9-12-11-19c9.8,0,16.7,0,16.5,0
			C1209.3,338.7,1215,332.6,1220.7,326.6z"/>
		<path class="st10" d="M1273.2,447.8c3.7-10.1,7.2-20.3,10.9-30.6c11.1-18.5,26.2-36.2,32.4-55.8c10-32.7,10.4-35.4,51-39.2
			c3.2,0,6.5,0.1,9.7,0.1c13.3,21.8-1.5,35.3-17.7,51.3c-26.2,25.9-48.4,54.8-72.2,82.5C1282.4,453.4,1277.8,450.7,1273.2,447.8z"/>
		<path class="st12" d="M1220.7,326.6c-5.7,6.1-11.4,12-20.7,22c0.2,0-6.6,0-16.5,0c4,7,7.1,12.4,11,19c-7.5,2.9-13.7,5.3-21.6,8.4
			c4.4,6,8.4,11.4,12.5,16.9h-0.1c-9.9,5.5-19.9,11-30.7,17.1c1.7,6,3.9,13,6,20.2c-25.2-2.3-16.3,11-11.6,23.7
			c-9.6-1.4-16.3-2.4-23.1-3.3c-1.7,2.8-3.6,5.5-5.3,8.2c2.1,2.8,4,5.4,6,8.2c0.4,4.5,0.8,8.9,1.2,13.9
			c-13.6,0.6-23.8-20.5-36.3-1.8c-6.8-0.1-13.5-0.2-20.3-0.2c20.2-21.4,40.4-42.7,60.6-64.1c6.7-9.3,13.9-18.3,20-27.9
			c2.5-4,1-11.6,4.2-13c16.1-7.4,9.1-16.9,5-26.3c19.5-8.1,20.3-18.8,2.5-36.1C1186.6,305.8,1204.2,314.7,1220.7,326.6z"/>
		<path class="st21" d="M1161,347.4c4.1,9.5,11.1,18.9-5,26.3c-3.2,1.5-1.6,9-4.2,13c-6,9.6-13.3,18.6-20,27.9
			c-0.4-5.8-0.9-11.6-1.2-17.4l1.6,0.6l-0.8-1.3c-5.4-1.4-10.7-2.9-16.1-4.3c-1.5-5.3-2.9-10.5-4.4-15.8l0.2-0.2
			c1-4.5,3.1-9,2.7-13.5c-1-9.5-7.9-20.6-4-27.9c6.9-13-0.9-18.2-10.7-22.8c-22.5-10.5-37.5-25.2-41.7-46.8
			c21.8,10.4,43.5,20.7,65.2,31C1116.3,323.4,1143.2,333,1161,347.4z M1122.8,356c-0.1-1.1,0.3-2.5-0.4-3.4
			c-0.5-0.6-2.6-0.2-3.9-0.3c0.1,1.2-0.3,2.8,0.4,3.5C1119.3,356.5,1121.4,356,1122.8,356z"/>
		<path class="st1" d="M1161,347.4c-17.8-14.5-44.8-24-38.2-51.2c13.5,5.1,27.1,10,40.6,15.1C1181.3,328.6,1180.6,339.2,1161,347.4z
			"/>
		<path class="st20" d="M1634.2,2.2c28.8-2.1,57.7-4.5,86.5-6.1c20.2-1.1,40.5-0.9,60.7-1.2c17.1,0.3,34,0.8,51.1,0.9
			c54.6,0.4,75.9,27.9,54.5,70.4c-14.8,13.6-33.3,17.9-55,17.5c-43.1-0.6-86.3,0.2-129.5,0.4c-8.9-0.2-17.8-1-26.7-0.8
			c-26.3,0.9-48.6-4.9-59.9-26.8C1604.7,34.9,1614.4,17.2,1634.2,2.2z M1678.8,54.3c14.4,0,26.6,0,41,0c-6.6-12-12.8-23.4-19.1-34.9
			c-2.5,0.4-5,0.9-7.6,1.3C1688.3,32.4,1683.2,44,1678.8,54.3z"/>
		<path class="st21" d="M1273.2,447.8c4.6,2.8,9.3,5.6,13.9,8.4c6.7,7.7,13.5,15.6,20.2,23.3c13.2,22.7,26.3,45.3,39.5,68.1
			c1.7,3.6,3.3,7.3,5.1,10.9c-18.1-23.6-38.2-46.3-53.9-71.2c-12.5-19.9-27.1-33.6-55.5-33.2c-21.9,11.4-4.3,24.3-0.8,35.6
			c4.5,14.3,3,22.5-17,22.4c-5-1.4-10-2.9-15-4.3c-1.6,0-3.3,0-5,0c-2.4-4.1-4.9-8.2-7.2-12.2c-2.4,0.1-4.8,0.2-7.1,0.3
			c-3.3-0.1-6.7-0.1-9.9-0.2c-3-1.1-6-2.2-9.2-3.3c-0.6-4.5-1.3-9-1.9-13.5c10.1-8.2,20.5-16.1,30.3-24.6c0.8-0.7-2.5-4.6-3.9-7.1
			c14.4-1.8,28.7-3.5,43-5.3C1250.2,443.9,1261.7,445.9,1273.2,447.8z"/>
		<path class="st28" d="M584.1,149.2c-1.1,29.6,1,59.6-4.4,88.7c-3.5,18.9-3.9,35,8.6,50.6c11.7,14.6,11.1,27.1-3.3,40.6
			c-8.4,7.9-15.8,18.1-18.6,28.2c-1.9,6.7,5,15.2,7.9,22.9c3.3,4.2,6.7,8.3,9.9,12.5c11.4,12.4,22.9,24.7,34.2,37.1
			c1.7,2.8,3.6,5.5,5.3,8.4c1.5,5.5,3,10.9,4.5,16.4c0,4.9-0.1,9.7-0.1,14.6c-2.1,1.5-4.2,3-6.3,4.5c-1.1-0.2-2.2-0.4-3.2-0.4
			c-7.6,2-15.2,3.9-22.8,5.8c4.2,7,8.5,14,12.7,21c3.3,2.8,6.7,5.6,9.9,8.4c6.6,20.6,13.2,41.1,19.9,61.8
			c-2.9,8.3-9.8,17.3-7.9,24.6c4,14.5-2.4,23.1-13.3,32.8c-9.3,8.3-19.8,18.1-22.4,28.5c-7.1,29.1-7.6,59.7-32.7,83.8
			c-0.4,0.4,1.2,2.4,1.8,3.6c-4.9,5.5-9.7,11-14.6,16.5c-23.8,8.4-30.8,25.9-34.9,45c-3.1,2.6-6.2,5.3-9.3,8.1
			c-7.3,2.9-16.2,4.5-21.9,8.9c-15.3,11.8-28.5,12.6-48.3,4.6c-43.3-17.5-54.6-52.4-60.7-84.3c-9.9-53.1-8.3-107.7-12.5-161.5
			c-1-12-5.2-24-9.3-35.9c-4.2-12.4-9.9-24.3-15-36.4c31.7-53.2,58.7-108.8,96.5-158.6c32.8-43.2,56.7-89.2,81.3-135.3
			c0.6-1.2,1.8-2.5,1.9-3.8C520.2,175,552.2,162.2,584.1,149.2z"/>
		<path class="st22" d="M327.9,157.4c-1.8,2.8-3.8,5.6-5.7,8.4c-14.6,16.4-29.8,32.5-43.2,49.6c-2.8,3.6-0.9,13.8,2.9,15.9
			c4.3,2.4,13.2-0.4,20-1.7c9.3-1.7,18.5-3.9,27.8-5.8c1.2,8.3,3.5,16.4,3.6,24.7c0.3,27.6-16.1,49-36.4,69.6
			c-24.8,25.3-24,37,2.7,60.6c10.8,9.6,16,18.9,9.7,31.2c-13.8,27.5-28.1,54.8-41.7,82.4c-5.2,10.6-9.1,21.6-13.5,32.4
			c-16.2,50.1-50.5,85.7-113.1,98.8c1.6-12.5,3.1-24.9,4.8-37.4c9.8-23.1,20.9-45.7,28.9-69.2c9-26.1,15.7-52.7,21.8-79.4
			c1.2-5.2-4.8-11.5-7.5-17.2c-6.6,2.8-14.3,4.5-19.7,8.5c-6.9,5.1-12.1,11.8-18,17.8c-3.5,1.3-6.8,2.5-10.3,3.9
			c21.7-64.5,10.6-136.8,64-193.9c42-13.8,48.4-48.2,63.9-77.3c1.9-3.8,2.9-7.8,4.2-11.7c10.1-30.4,14-32.9,49.8-30.3
			c1.5,5.5,3,11,4.6,16.5C327.8,154.9,327.9,156.2,327.9,157.4z"/>
		<path class="st27" d="M337.8,508.1c5.1,12.1,10.8,24,15,36.4c4,11.7,8.3,23.7,9.3,35.9c4.2,53.8,2.6,108.4,12.5,161.5
			c5.9,31.9,17.4,66.9,60.7,84.3c19.9,8.1,33,7.3,48.3-4.6c5.7-4.4,14.5-6.1,21.9-8.9c-10.5,12.2-20.5,24.7-31.3,36.7
			c-25.1,27.8-84.4,27-109.8-0.8C351.1,834,337,819.8,322,806.3c-41.2-37.1-69.3-81.3-94-126.3c-24.9-45.2,2.4-83.4,36-118.4
			c25.4-3.2,41.8-14.2,50.4-35.4C317.4,518.8,329.7,514.1,337.8,508.1z"/>
		<path class="st19" d="M263.9,561.8c-33.6,35-60.9,73.1-36,118.4c24.8,45,52.9,89.4,94,126.3c14.9,13.5,28.9,27.7,42.3,42.3
			c25.4,27.8,84.8,28.6,109.8,0.8c10.8-12,20.9-24.5,31.3-36.7c3.1-2.6,6.2-5.3,9.3-8.1c3.3-1.3,6.8-2.6,10.1-4l1.9,0.8
			c-10.3,12.9-21.3,25.5-30.7,38.8c-14.8,21.1-41.1,38.3-34.1,67.2c-1.8,3-3.8,6.1-5.6,9c-16.7-15.3-36-14.8-57.9-8.3
			c-15.1,4.4-31.6,5.7-47.6,8.2c-32.2,4.7-64.6,9.2-96.7,14.1c-4.4,0.7-8.2,4.3-12.5,6.2c-27.3,11.7-52.6,28.6-86.2,24.7
			c20.2-9.6,40.6-18.9,60.5-28.9c38.4-19.4,82-24.9,124.6-33.2c7.6-1.4,13.8-7.4,20.6-11.3c-6.6-5.1-12.2-11.8-19.9-14.7
			c-7.8-2.9-17.6-2.1-26.6-2.3c-29.3-0.7-43.7-10.5-53.9-34.1c-4.3-9.9-10.8-20-19.3-27.6c-26.8-23.8-55.5-46.1-63.3-80.6
			c-1.1-4.9-8.9-10.1-15-12.6c-32-12.8-41.4-33.3-32.2-60.9c3.5-10.5,6.6-21.1,9.9-31.7c62.4-13.1,96.7-48.8,113.1-98.8
			c6.9,0.6,13.8,1.2,23.6,2C272.5,540,268.2,550.8,263.9,561.8z"/>
		<path class="st4" d="M466.2,108.7c-9.1-1-18-2-27.1-3c3.7-7.8,5.8-16.4,11.2-23.3c14.9-18.8,30.3-37.2,47-54.7
			c9.4-9.9,21.3-18.3,32.7-26.8c13.2-9.8,25.1-7.4,35,4.3c0,8.3-0.1,16.4-0.1,24.7c-6.2,5.3-12.2,10.7-18.4,16
			C519.6,66.9,493,87.7,466.2,108.7z"/>
		<path class="st10" d="M466.2,108.7c26.8-21,53.6-41.8,80.3-62.8c1.4,4.5,5.7,10.9,3.7,13.3c-23.1,26.8-51.2,49.1-88.9,61.4
			C462.9,116.6,464.6,112.6,466.2,108.7z"/>
		<path class="st10" d="M564.9,29.9c0-8.3,0.1-16.4,0.1-24.7c8.3-8.5,16.7-17,25.1-25.4c1.3-0.1,2.6-0.2,3.8-0.4
			C584.1-3.9,574.5,13,564.9,29.9z"/>
		<path class="st10" d="M441.3,132.9c6.6-4.1,13.2-8.1,19.8-12.1C454.5,124.8,447.9,128.9,441.3,132.9z"/>
		<path class="st22" d="M805.9,322.3c17.1,7.8,22.8-4,26.1-12.8c7.2-18.8,11.4-38.3,17.5-57.3c1.7-5.5,5.2-10.7,7.9-16
			c-1.6,17.9-3.2,35.7-5,53.6c-4.6,12.2-9.3,24.5-13.9,36.7c-9.5,3.1-19,6.2-28.5,9.3c-3,0-6-0.1-9.2-0.1
			c-18.8-3.3-37.8-6.3-56.5-9.9c-45.8-8.8-88.4-3.6-128,18.4c-6.5,3.6-14.7,5.1-22.1,7.5c8.1-6.8,16.2-13.8,24.4-20.6
			c53.9-35.2,112.7-16.3,170.3-10.8C794.8,320.7,800.3,321.6,805.9,322.3z"/>
		<path class="st8" d="M618.8,331c-8.1,6.8-16.2,13.8-24.4,20.6h-0.2c-15,15.8-13,26.3,8.9,31.3c16.6,3.9,24,11.5,27.6,24.7
			c2.2,7.7,9.6,14.3,11.9,22c3,10.4,3.5,21.3,5.1,32c-6.5,2.4-12.8,4.9-19.3,7.4c0-4.9,0.1-9.7,0.1-14.6c-1.5-5.5-3-10.9-4.5-16.4
			c-1.7-2.8-3.6-5.5-5.3-8.4c-11.4-12.4-22.9-24.7-34.2-37.1c-3.3-4.2-6.7-8.3-9.9-12.5C574.3,347.1,584.2,336,618.8,331z"/>
		<path class="st24" d="M1409,652.2c8.7,11.1,17.5,22.4,26.2,33.5c3.6,5.4,7.2,10.9,10.8,16.3c0,0-1.6,1.3-1.5,1.3
			c-43.4-3.9-86.8-7.7-126.8-11.3c9.9-4.4,23-10.1,36.1-15.8c15.1,3.4,30.2,6.8,45.4,10.3c1.4-3.4,2.8-6.8,4.2-10.3
			c-23.5-9.5-47.1-19-70.5-28.5c-20-5.8-40-11.6-64.2-18.6c20-1.8,36.8-3.2,56.3-4.9c-21.3-11.4-41.4-11-62.5-6.4
			c-7.5,1.7-15.5,1.1-23.3,1.5c-13.2,1.4-26.3,2.8-39.6,4.2c-3.8-1.4-7.5-2.9-11.2-4.3c-0.2-2.1-0.4-4.1-0.6-6.2
			c32.5-7.6,65.2-14.8,97.5-23.1c7.2-1.9,13.1-7.4,19.5-11.3c-1.6-1.9-3.2-3.6-4.9-5.5c-6.8,2.5-13.5,5.1-26.1,9.8
			c6.5-12.8,10.7-21.1,14.9-29.3c22.7,5.6,45.2,11.3,67.9,16.9c11.6,12.1,34.6,19.4,24.6,40.6c-6.2-1.4-12.6-2.3-18.6-4.4
			c-38.7-13.8-46.6-14.3-88.2-5.1c14.9,2,30,4,45.1,6.1c5.5,5.8,11.4,11.4,16.5,17.4c12.8,15.4,30,19.9,51.2,14.9
			C1394.7,644.2,1401.8,648.1,1409,652.2z M1367.9,599.5c1.4-1.2,2.9-2.4,4.3-3.6c-3.1-2.4-6.2-4.9-9.3-7.4
			c-1.1,0.8-2.2,1.7-3.1,2.4C1362.5,593.7,1365.2,596.6,1367.9,599.5z"/>
		<path class="st24" d="M1564.1,846.1c-6.6-0.8-13.2-1.4-19.7-2.2c-19.2-46.4-46.4-64.1-98.2-63.7c-7-6.8-14-13.8-21.1-20.6
			c0.3-2.5,0.5-5.1,0.9-7.6c16.6-1.7,33.3-3.2,49.9-4.9l0.1,0.1c1.6,1.3,3.2,2.8,4.9,4.1C1524.3,773.2,1552.2,804.7,1564.1,846.1z"
			/>
		<path class="st21" d="M1475.9,747.2c-16.6,1.7-33.3,3.2-49.9,4.7c-1.7-13.8-3.5-27.6-5.2-41.4c13.4,7,26.8,13.9,40.2,20.9
			c1.5,1.1,3,2.2,4.5,3.4C1469,738.9,1472.4,743,1475.9,747.2z"/>
		<path class="st24" d="M1446.1,702.1c5.7,4.9,11.4,9.8,17.1,14.7c-0.9,0.7-1.7,1.2-2.5,1.9c-5.4-5.1-10.8-10.1-16.2-15.2
			L1446.1,702.1z"/>
		<path class="st24" d="M1465.5,734.8c-1.5-1.1-3-2.2-4.5-3.4c-0.1-4.2-0.2-8.5-0.3-12.7c0.9-0.7,1.6-1.3,2.5-1.9
			C1463.9,722.8,1464.8,728.8,1465.5,734.8z"/>
		<path class="st21" d="M1480.8,751.3c-1.6-1.3-3.2-2.8-4.9-4.1C1477.6,748.5,1479.2,750,1480.8,751.3z"/>
		<path class="st1" d="M1356.7,570.7c-22.7-5.6-45.2-11.3-67.9-16.9c-5-1.5-9.9-3.1-14.9-4.6c-3.5-1.4-6.8-3-10.3-4.4
			c-1.7-8.6-6.9-17.9-4.6-25.7c7-24.3-6.3-44.1-16.5-64.9c28.4-0.4,43,13.5,55.5,33.2c15.7,24.7,35.7,47.5,53.9,71.2
			C1353.5,562.6,1355.1,566.6,1356.7,570.7z"/>
		<path class="st26" d="M1319.7,607.9c-15.1-2-30.3-4.1-45.1-6.1c41.6-9.3,49.6-8.7,88.2,5.1c5.8,2.1,12.3,3,18.6,4.4
			c1.9,1.7,4,3.4,5.9,5.1c1.4,1.1,2.8,2.1,4.1,3.2l0.5,0.6c1.2,1.1,2.4,2.2,3.6,3.3c1.4,0.7,2.3,1.7,2.4,3.1
			c1.3,1.8,2.5,3.5,3.8,5.3c2.5,6.8,5,13.6,7.5,20.4c-7.1-4-14.4-8.1-21.5-12C1371.6,619.7,1350.2,607.1,1319.7,607.9z"/>
		<path class="st24" d="M1401.6,631.8c-1.3-1.8-2.5-3.5-3.8-5.3C1399.1,628.3,1400.3,630,1401.6,631.8z"/>
		<path class="st24" d="M1395.4,623.5c-1.2-1.1-2.4-2.2-3.6-3.3C1393.1,621.2,1394.2,622.3,1395.4,623.5z"/>
		<path class="st24" d="M1391.4,619.6c-1.4-1.1-2.8-2.1-4.1-3.2C1388.6,617.4,1390,618.5,1391.4,619.6z"/>
		<path class="st2" d="M205.2,256.5c-53.6,57.3-42.3,129.4-64,193.9c-11.7,15.6-24.6,30.6-34.9,46.8C92,519.7,79.7,543,66.7,566.1
			c-15.8,7.4-31.6,14.6-47.3,22.1c-12.8,6.2-23.1,18.8-41.1,10.7c1.6-17.9,3.2-35.7,4.8-53.7c24.3-25,45.8-51.3,54.7-83.3
			c8.1-28.9,17.3-57.8,22.8-87c1.9-10.5-9.3-22.7-7.7-33.3c5.1-33.3,13.5-66.3,20.6-99.4c6-28.1,12-56.3,17.9-84.4
			c1-24.6-9-49.6,5.4-73.5c21.2-0.4,42.4-0.9,63.6-1.3c32.9,0.4,65.8,0.8,98.7,1.2c-4.2,38.8-11.8,76.3-33.9,111.9
			C213.8,214,211.6,236.2,205.2,256.5z"/>
		<path class="st27" d="M155.4,961.3c33.7,3.8,58.8-13,86.2-24.7c4.3-1.9,8-5.5,12.5-6.2c32.2-5,64.5-9.4,96.7-14.1
			c16-2.3,32.4-3.6,47.6-8.2c21.9-6.4,41.1-7.1,57.9,8.3c1.4,5.4,2.8,10.8,4.2,16.2c-19.2-8.9-37.4-9-57.7-0.1
			c-15.5,6.8-35,7.4-51.1,13.6c-15.3,5.8-28.7,15.4-42.9,23.4c-18,4.5-36.1,9-54.1,13.7c-36.3-0.2-72.5-0.3-108.7-0.6
			c-10-0.3-20-0.7-30-1C129.1,974.9,142.3,968.1,155.4,961.3z"/>
		<path class="st19" d="M151.4,446.6c5.9-6,11.1-12.7,18-17.8c5.4-4,13.1-5.7,19.7-8.5c2.7,5.7,8.6,12,7.5,17.2
			c-6.2,26.7-12.8,53.4-21.8,79.4c-8,23.4-19.2,46.1-28.9,69.2c-19.5-10.8-45.5-18.6-31.2-45.5c3.7-6.8,10.5-12.7,13-19.7
			C136.1,496.3,143.5,471.4,151.4,446.6z"/>
		<path class="st19" d="M116,981.6c10,0.3,20,0.7,30,1c-8.5,5.4-17.2,10.8-25.7,16.2c-16.1-0.8-32.2-1.4-48.3-2.2
			C80.8,979.5,99.7,983.3,116,981.6z"/>
		<path class="st29" d="M1535.5,866.8c17.2,7.1,34.6,13.7,51.3,21.4c7.8,3.6,14.1,9.5,21.3,14.2c-6.3,6.3-12.6,12.6-18.9,18.9
			c-29,0-58.1-0.1-87.2-0.1c-22.1,1-44.3,2-66.5,3c-3.6,0.6-7,1.2-10.6,1.8c-77.1,6.5-154.3,13-231.4,19.5
			c-14.3-0.1-28.6-0.2-42.9-0.3c23.6-6.7,47.1-13.8,70.8-20.1c40.3-10.7,80.3-22.2,121.3-30.9c34-7.3,34.6-5.7,34.2-35.7
			c9.8-0.4,20.4-3,29.3-0.8c13.9,3.5,26.8,10.3,39-2.2c4.9-1.8,9.6-3.4,14.5-5.2c4.3,0.4,8.5,0.8,12.8,1.2c3.8,0.8,7.6,1.5,11.3,2.3
			c10.8,0.6,21.5,1.2,32.3,1.8C1522.5,859.3,1529,863,1535.5,866.8z"/>
		<path class="st29" d="M1569.2,986.4c-42.5,7.2-85.2,14.2-127.6,21.5c-21.1,3.6-41.9,8.1-63,11.3c-15.1,2.3-30.6,3.1-45.8,4.5
			c-2.5-5.7-6.9-11.4-7.1-17.1c-1.1-23.1-18.5-24.5-40.3-24.6c-23.5-0.1-47.5-2-70.6-5.7c-10.6-1.8-19.7-10.1-29.3-15.4
			c15.2-1.1,30.4-2.2,45.7-3.3c20.6,0.9,41.2,1.9,61.9,2.8c25.4,0.6,50.7,1.1,76.2,1.5c10.5,0.6,21.1,1.1,31.5,1.8
			c3.6,1.3,7.1,3.8,10.8,3.8c65.8,1.9,131.5,2.5,196-11.4C1606.6,978.5,1600.4,983.6,1569.2,986.4z"/>
		<path class="st26" d="M1446.2,780.3c51.7-0.4,78.9,17.2,98.2,63.7c-3.3,0.8-6.7,1.5-9.9,2.3c-1.5-0.4-2.9-0.2-4.2,0.6l-0.4-1.7
			c-1.6,0.3-3.1,0.6-4.8,0.9c-6.3-1.8-12.5-3.5-18.9-5.3c-0.8-5.2-1.4-10.5-2.1-15.7c-7.3-6.1-13.8-16.3-22.1-17.4
			c-21.4-2.9-43.4-1.7-65.2-2.1c-11.6-0.1-23-0.2-34.6-0.3c-13,1.4-26,2.9-39,4.3c-5-0.1-9.9-0.1-14.9-0.2
			c-24.6,2.8-49.3,5.4-74,8.2c1.7-9.8,3.5-19.5,5.2-29.3c0-1.2-0.1-2.4-0.3-3.6c0.3-1.2,0.5-2.4,0.5-3.8c6.3,1.2,12.5,2.5,18.9,3.8
			c-2.1,6.2-4.2,12.4-6.3,18.4c1.7,1.1,3.6,2.3,5.3,3.4c3.7-2.9,7.2-5.7,10.9-8.5c1.9-6.3,3.9-12.6,5.8-18.9v-1.3
			c6.2-0.4,12.3-0.8,18.5-1.2c-0.5,6.8-1.1,13.8-1.9,25.7c6.4-7.3,9.3-10.7,12.2-14c1.7-1.5,3.5-3.2,5.2-4.7
			c0.1-1.1-0.1-2.3-0.3-3.4c13.1-2.8,26.2-5.4,39.3-8.2c6.6,0.2,13.3,0.4,19.9,0.7c12.2,4.1,26.7,6.1,36.3,12.8
			C1436.7,794.6,1441,789.3,1446.2,780.3z"/>
		<path class="st17" d="M1607.5,955.9c-64.5,13.9-130.2,13.2-196,11.4c-3.7-0.1-7.2-2.5-10.8-3.8c7.1-0.7,14.3-1.8,21.4-2.1
			c35.6-1.4,71.4-2,106.9-4.2c11.7-0.7,22.9-5.3,34.3-8.2c-0.2-2.1-0.4-4.2-0.6-6.4c-9.1-3.5-18.2-7.2-29-11.4
			c7-2.8,11.3-4.4,15.7-6.2c4.5,1,9.1,2,13.7,3c7.8,2.5,16.6,3.8,22.9,7.8C1594.2,941.6,1600.4,949.2,1607.5,955.9z"/>
		<path class="st21" d="M1563,928.2c-4.5-1-9.1-2-13.6-3c-15.8-1.3-31.6-2.6-47.4-4.1c29,0,58.2,0.1,87.2,0.1
			C1580.4,923.6,1571.7,925.9,1563,928.2z"/>
		<path class="st16" d="M1530.2,846.8c1.3-0.8,2.7-1,4.2-0.6c19.2,6.2-0.1,13.7,1.1,20.5c-6.5-3.8-13-7.5-19.4-11.3
			C1520.8,852.6,1525.4,849.7,1530.2,846.8z"/>
		<path class="st20" d="M76.1,929c-11.2,1-22.6,2-33.8,3.1c8.2-21.3,34.6-19,52.3-27.7c3.9-2,10.4-0.6,14-2.6
			c7-4,12.8-9.5,19.2-14.2c-6.4-4.5-12.4-9.7-19.4-13.3c-4.6-2.4-10.8-2.9-16.4-3.9C58,864.3,33,851.5,21,821.1
			c-8-20.2-24.9-38-37.9-56.7c11.4,5.4,26.1,8.6,33.8,16.7c18.2,19,32.6,40.5,49.9,60.1c5.9,6.7,15.1,13.1,24.4,16
			c22,7.1,45.2,11.5,67.5,18c7.3,2.2,13.4,7.5,20,11.4c-6.5,5.4-11.8,13.2-19.5,15.9c-19.4,6.4-40.2,10-60,15.8
			C90.9,920.4,83.7,925.3,76.1,929z"/>
		<path class="st20" d="M96.8,84.1c-14.4,23.8-4.4,49-5.4,73.5c-19.8,2.8-39.4,5.4-59.2,8.2c-10.3-31.3,1.1-60,15.1-88.5
			C64,79.5,80.4,81.8,96.8,84.1z"/>
		<path class="st24" d="M96.8,84.1c-16.4-2.3-32.9-4.5-49.3-6.8C24.7,58.8,18.1,37.8,33.1,13.5C54.7-5.7,81.7-8.3,111.3-5.7
			c19.1,1.7,38.5,0.3,57.9,0.4c2.2,0.7,4.2,1.3,6.4,2c-2.5,6.8-5,13.7-7.5,20.5c-21.1,7.3-23.5,18.4-7.6,42
			c3.5-10.6,6.5-19.9,9.4-29.1c8.9-2.2,24-8.1,25.6-6.1c10.5,12.5,25.2,6.2,37.6,8.5c4,0.8,7.5,3.2,11.2,5c1.6,4.3,3.2,8.7,4.9,13
			c-20.1,2.2-40.2,4.4-60.3,6.7c-0.6-3.5-1.3-7.2-2.1-10.7c-1.3,0-2.6,0-3.9,0c-0.5,3.5-1.2,7.2-1.7,10.7
			c-6.9,8.5-13.8,17-20.7,25.4C139.2,83.2,118.1,83.6,96.8,84.1z M71.7,19c0,14.9,0,26.1,0,41.3c9.5-2.6,20.9-3,23.5-7.1
			c4.8-7.8,7.8-18.8,4.8-26.6C98.3,22.2,82.9,21.6,71.7,19z M140.5,47.3c0.1-1.3,0.3-2.8,0.4-4.1c-5.8,0-11.6,0-17.4,0
			c0,0.7-0.1,1.4-0.1,2.1C129.2,46,134.8,46.7,140.5,47.3z"/>
		<path class="st21" d="M244.3,37.5c-3.7-1.7-7.2-4.2-11.2-5c-12.4-2.3-27.1,4-37.6-8.5c-1.7-2-16.7,3.9-25.6,6.1
			c-0.6-4.3-1.2-8.6-1.8-12.9c2.5-6.8,5-13.7,7.5-20.5c36.9,1.4,73.9,2.9,110.7,4.4c17.7,13.3,30.4,28.6,22.7,49.9
			c-7.5,20.3-24.6,31-49.8,33c-32.9-0.4-65.8-0.8-98.7-1.2c6.9-8.5,13.8-17,20.7-25.4c2.6,0,5.2,0,7.7-0.1
			c20.1-2.2,40.2-4.4,60.3-6.7c4.4-1.2,9.1-3.9,13.1-3.3C281,49.5,276.9,41.9,273,33C262.5,34.6,253.5,36.1,244.3,37.5z"/>
		<path class="st8" d="M327.8,153.6c-1.5-5.5-3-11-4.6-16.5c5-5.5,9.9-11.1,14.9-16.7c9.8-4.1,19.7-8.2,29.5-12.2
			C354.2,123.3,341,138.5,327.8,153.6z"/>
		<path class="st10" d="M327.8,153.6c13.3-15.1,26.6-30.2,39.7-45.5c1.6-1.4,3.2-2.8,4.9-4.2c9.6-7.2,19.2-14.3,28.9-21.4
			c20-14.8,40-29.6,59.9-44.3c-7,8.7-13,18.3-21.4,26c-31.9,29.2-64.5,58-97.1,86.7c-3.7,3.2-9.8,4.4-14.8,6.5
			C327.9,156.2,327.8,154.9,327.8,153.6z"/>
		<path class="st8" d="M461.2,38.3c-20,14.8-40,29.6-59.9,44.3c-9.6,7.2-19.2,14.3-28.9,21.4c12.5-15.3,22.9-32.5,38.2-45.7
			c19.7-16.8,43.3-30.1,65.2-44.9c-3.2,6.8-6.4,13.7-9.6,20.5C464.6,35.4,462.8,36.9,461.2,38.3z"/>
		<path class="st8" d="M495.6-7.2c-3.2,4.1-6.6,8.1-9.8,12.1C489.1,1,492.3-3.1,495.6-7.2z"/>
		<path class="st8" d="M520.1-32.1c-3.2,2.8-6.4,5.5-9.6,8.3C513.7-26.5,516.9-29.2,520.1-32.1z"/>
		<path class="st23" d="M1185.3,960.8c9.7,5.4,18.8,13.7,29.4,15.4c23.1,3.9,47,5.6,70.6,5.7c21.8,0.1,39.2,1.5,40.3,24.6
			c0.3,5.7,4.6,11.4,7.1,17.1c-74,30.3-152.1,30.7-231.5,23.3c-5.6-0.6-12.1-1.8-16.1-4.7c-17-12.4-35.3-11.7-55.5-7.6
			c-8.5,1.8-17.9,0.3-26.9,0.3c-1.3-27.5,10.8-50.1,36.6-67.2c-21.7-7.7-41.7-14.9-61.8-22.1c9.3-0.3,18.6-0.6,27.9-0.9
			c9.5,1,19.1,3.3,28.4,2.6c30.2-2.3,58.6-1,87.6,10.4c15.9,6.3,37.4,2.5,56.3,3.4C1180.2,961.2,1182.8,961,1185.3,960.8z"/>
		<path class="st18" d="M460.5,932.7c-1.4-5.4-2.8-10.8-4.2-16.2c1.8-3,3.8-6.1,5.6-9c4.4-0.2,8.7-0.3,13.2-0.6
			c32.7-0.7,65.4-1.3,98.2-2.1c5.7-0.1,11.3-0.1,17.1-0.2c37.4-14.8,74.7-29.7,112.1-44.5c3.9-1.9,7.8-3.8,11.7-5.6
			c9.4-3.6,18.9-7.1,28.1-11.1c16.2-7.3,32.2-15,48.3-22.5c-1.4,2.6-2.7,5.3-4.1,7.9c-20.2,12.6-39.1,27.1-60.8,37.4
			c-33.4,15.8-68.7,28.6-103.1,42.6c-21.7,8.8-43.5,13.9-68.6,8.7c-13-2.6-28-1.3-41.2,1.1c-20.9,3.8-36.7,12.1-29.5,34.4
			c1.5,4.6-3.5,10.8-5.4,16.2c-5.1-7.2-10.1-14.3-15.2-21.5C461.9,942.9,461.2,937.7,460.5,932.7z"/>
		<path class="st25" d="M462.5,948c5.1,7.2,10.1,14.3,15.2,21.5c-14.5,32.5-43.6,31.6-78,26.9c-40.8-5.5-82.5-6.5-123.7-9.7
			c-7.1-0.6-14.3-2.3-21.3-3.5c18-4.5,36.1-9,54.1-13.6c38.4,0,77,0.4,115.4,0C441.8,969.2,459.6,967.3,462.5,948z"/>
		<path class="st18" d="M688.5,967.6c-10.6,2-21.2,4-31.6,6c-22.8,1.3-45.6,3.3-68.5,3.9c-9.5,0.2-19-2.6-28.5-4.1
			c3.2-6.3,6.5-12.7,9.7-19c50.9-11,101.8-22.2,152.7-33.2C711.1,936.6,699.7,952.2,688.5,967.6z"/>
		<path class="st25" d="M806,816.7c19.8-11,39.4-22.2,59.2-33.2c10.7-3.9,21.3-8.1,32.3-11.6c12.4-4,26.5-10.7,31.4,7.6
			c-32.9,19.3-65.8,38.8-98.9,57.8c-13.5,7.7-23,4.4-26.6-9.3c-0.1-2.1-0.2-4.3-0.3-6.4C804,820,805,818.4,806,816.7z"/>
		<path class="st19" d="M688.5,967.6c11.2-15.4,22.5-31,33.7-46.4c13-5.3,25.9-10.6,38.9-15.8c-1.8,3.1-3.3,6.3-5.5,9
			c-14.1,18.5-10.9,23.9,16.1,26.3c9.7-1.3,19.4-2.5,29-3.9c0.1,5.4,0.1,10.8,0.2,16.2C763.6,957.9,726.1,962.8,688.5,967.6z"/>
		<path class="st29" d="M569.5,954.4c-3.2,6.3-6.5,12.7-9.7,19c-11.2-0.2-22.9,1-33.7-1.1c-5.3-1-9.1-7.9-13.5-12.1
			c5.2-2.2,10.4-6.1,15.8-6.4C542.1,953.2,555.8,954.2,569.5,954.4z"/>
		<path class="st15" d="M803,821.7c0.1,2.1,0.2,4.3,0.3,6.4c-5.7,0.2-11.3,0.4-17.1,0.7c1.4-2.6,2.7-5.3,4.1-7.9l0.4,0.3
			C794.9,821.3,798.9,821.6,803,821.7z"/>
		<path class="st26" d="M784.1,498.5c11.3,6.6,18.4,10.7,25.3,14.8c-9.9,6.5-18.9,15.6-30.1,18.4c-6.3,1.7-16.3-7-24.6-10.8
			C763.8,514,772.9,507,784.1,498.5z"/>
		<path class="st17" d="M590.2,904.5c-5.7,0.1-11.3,0.1-17.1,0.2c-13.2-14.9-31.2-14.3-49.9-10.5c-17.4,3.5-34.3,7.1-47.5-7.4
			c26.5-32.7,52.9-65.4,79.4-98.1c9.8-2.2,24.2-1.9,28.7-7.3c10.8-12.7,17.1-28.1,25.1-42.5c1.7-2.6,3.5-5.2,5.2-7.8
			c6.6-2.6,13.3-5.2,19.9-7.9c32.5-13.6,32.7-14.5,11-40.4c20.3-8.8,40.5-17.7,60.6-26.4c-1-2.3-1.9-4.6-2.9-7
			c-7.8-0.4-15.8-0.3-23.3-1.5c-6-1-11.7-3.5-17.5-5.4c3-5.2,5.4-10.7,9.3-15.2c2.7-3.2,7.6-5.1,11.4-7.5
			c-0.3,5.8-0.6,11.8-0.9,16.8c2.5,1.3,3.1,2,3.8,2.1c52.4,6.4,52.3,6.4,61.2,50.3c1.2,5.8,3.7,11.9,7.6,16.8
			c14.3,17.8,10.7,32.2-12.1,43.2c-19.5,9.4-39.4,18.1-59.2,27.1c-33.7,31.7-83.6,41.4-123.8,64.2c-5.4,3.1-11.8,5.2-16.4,8.9
			c-9.1,7.2-17.3,15.1-25.8,22.7c10.9,2.6,23.8,3,32.3,8.3c34.2,21.4,62.2,6.3,91.7-7.8c9.4-4.5,21.7-5,32.7-7.3
			c-7,4.3-13.6,9.2-21.2,12.7C631.8,887,611,895.6,590.2,904.5z"/>
		<path class="st16" d="M790.3,820.9c-16.1,7.5-32.1,15.2-48.3,22.5c-9.1,4.1-18.7,7.4-28.1,11.1c0.9-2.5,1.6-5,2.5-7.5
			c2.4-1.7,4.6-3.3,6.9-4.9c8.1-4.7,16.1-9.5,24.2-14.1c35.7-23.1,71.5-46.1,107.3-69c8.1-5.2,16.7-9.9,25.1-14.9
			c0.2,2.5,0.4,5.1,0.6,7.6c-23.2,19-46.3,38-69.5,56.9c-6.8,4.2-13.6,8.4-20.4,12.6L790.3,820.9z"/>
		<path class="st16" d="M590.2,904.5c20.7-8.9,41.6-17.7,62.1-26.9c7.6-3.4,14.1-8.4,21.2-12.7c6.6-2.3,13.2-4.6,19.7-7
			c3,0.7,6.2,1.3,9.2,2C665,875,627.6,889.7,590.2,904.5z"/>
		<path class="st17" d="M747.7,828c-8.1,4.7-16.1,9.5-24.2,14.1C731.6,837.4,739.6,832.7,747.7,828z"/>
		<path class="st17" d="M702.3,860.1c-3-0.7-6.2-1.3-9.2-2c7.8-3.6,15.5-7.4,23.3-11c-0.9,2.5-1.7,5-2.5,7.5
			C710.1,856.3,706.2,858.2,702.3,860.1z"/>
		<path class="st16" d="M899.6,723.9c-4,3.8-8.1,7.6-12.1,11.4C891.5,731.4,895.5,727.7,899.6,723.9z"/>
		<path class="st16" d="M909.2,712.1c-2.2,2-4.2,4.1-6.4,6.1C905,716.1,907.2,714.1,909.2,712.1z"/>
		<path class="st16" d="M933.4,679.1c-1.7,1.9-3.3,3.8-5,5.6C930.1,682.9,931.8,681,933.4,679.1z"/>
		<path class="st3" d="M682.6,619.9c-3.9,2.4-8.7,4.3-11.4,7.5c-3.9,4.6-6.3,10.1-9.3,15.2c5.8,1.9,11.4,4.4,17.5,5.4
			c7.7,1.2,15.5,1.1,23.3,1.5c1,2.3,1.9,4.6,2.9,7c-20.2,8.8-40.3,17.5-60.6,26.4c21.7,25.9,21.4,26.8-11,40.4
			c-6.6,2.8-13.2,5.3-19.9,7.9c5.7-9.9,16.3-20,16.2-29.9c-0.2-18.8-6.7-37.4-10.5-56.2c4.5-4.4,9.1-8.8,13.7-13.2
			c7-4,14-8.1,21.1-12c2.3-3.2,5.8-6.1,6.6-9.5c2.8-11.9,4.6-24,6.8-36c7.9-3.4,15.8-6.8,23.6-10.3c-1.2,17-2.5,34-3.7,51
			C686.2,616.7,684.4,618.4,682.6,619.9z"/>
		<path class="st17" d="M688.1,615.2c1.2-17,2.5-34,3.7-51c0.3-6.3,0.5-12.6,0.9-18.9c1.8-1.5,3.6-3,5.4-4.5
			c3.2,5,5.9,10.3,9.8,14.9c4.2,5.1,9.3,9.7,14,14.5C735.7,596.8,726.7,608.9,688.1,615.2z"/>
		<path class="st24" d="M806.6,663c-12,9.3-19.8,15.4-27.6,21.5c-5.6-7.2-16.2-14.7-15.4-21.3c0.8-6.5,12.1-13.8,20.8-17.1
			C787.4,644.9,796.4,654.9,806.6,663z"/>
		<path class="st17" d="M800.9,335.6c3,0,6,0.1,9.2,0.1c9.6,1.1,19.3,2.2,28.9,3.4c10,10.8,21.3,21,29.8,32.5
			c4.5,6.1,8.6,16.2,5.6,21.5c-7.5,12.6-12.8,32.7-36.6,26.9c-25.6-6.3-41.4,4.3-60.4,14.2c-15.2,7.9-34.1,10.8-51.3,16.2
			c-12.5,4-24.8,8.4-37.3,12.5c-2.1-0.1-4.2-0.3-6.3-0.4c-3.9-13.3-6.4-27-12.1-39.8c-9-19.7-20.9-38.5-29.7-58.2
			c-2.3-5,0.2-14.2,4.8-18.1c24.4-20.6,55.3-16.1,85.6-13.9C754.3,334.2,777.7,334.6,800.9,335.6z"/>
		<path class="st2" d="M800.9,335.6c-23.3-1-46.6-1.3-69.9-3c-30.3-2.2-61.2-6.8-85.6,13.9c-4.5,3.9-6.9,13-4.8,18.1
			c8.9,19.7,20.8,38.5,29.7,58.2c5.7,12.7,8.2,26.5,12.1,39.8c-1.5,2.8-2.9,5.5-4.4,8.4l-0.5,0.4c-9.5,0.8-19.3,0.6-28.3,2.9
			c-4,1-6.3,7-9.3,10.7c4.3,2.3,8.6,4.5,13,6.8c6.8,10.8,13.7,21.6,20.5,32.3c-0.3,3.1-0.6,6.1-1,9.2c-3.3,0.2-6.7,0.3-10,0.6
			c-1.7-1.5-3.6-3.1-5.3-4.6c-1.8-4.2-3.6-8.3-5.4-12.5c-3.1-4.1-6.3-8.1-9.3-12.1c-4.8-2.6-9.6-5.3-14.4-8.1
			c-1.8-1.5-3.7-3-5.5-4.5c-0.2-6.2-0.4-12.4-0.6-18.5c2.1-1.5,4.2-3,6.3-4.5c6.5-2.4,12.8-4.9,19.3-7.4
			c6.5-5.3,19.7-12.7,18.4-15.7c-9-21.5-20.2-42.5-32.6-62.8c-3.1-5.1-12.5-9.4-19.8-10.3c-16-2-20.2-9.5-19.3-21.2h0.2
			c7.5-2.4,15.7-4,22.1-7.5c39.5-22.1,82.2-27.2,128-18.4C763.2,329.3,782.1,332.3,800.9,335.6z"/>
		<path class="st22" d="M662.4,533.7c3.3-0.2,6.7-0.3,10-0.6c2.5-0.3,4.9-0.7,7.3-1c1.4,1.3,2.8,2.8,4.2,4.1c2.8,3,5.7,6.1,8.5,9
			c-0.3,6.3-0.5,12.6-0.9,18.9c-7.9,3.4-15.8,6.8-23.8,10.3c-4.9,0.1-9.6,0.1-14.5,0.2c-0.1-2.9-0.1-5.7-0.2-8.6
			C682.1,560.3,663.9,545.3,662.4,533.7z"/>
		<path class="st3" d="M653,491.6c-4.3-2.3-8.6-4.5-13-6.8c3-3.8,5.3-9.7,9.3-10.7c9-2.2,18.8-2.1,28.3-2.9
			C669.4,478,661.2,484.9,653,491.6z"/>
		<path class="st2" d="M839,339.1c-9.6-1.1-19.3-2.3-28.9-3.4c9.5-3.1,19-6.2,28.5-9.3C838.7,330.6,838.9,334.8,839,339.1z"/>
		<path class="st3" d="M692.6,545.3c-2.9-3-5.7-6.1-8.5-9c4.6,1.5,9.3,3.1,13.9,4.5C696.2,542.2,694.4,543.8,692.6,545.3z"/>
		<path class="st3" d="M678.1,470.9c1.5-2.8,2.9-5.5,4.4-8.4c2.1,0.1,4.1,0.3,6.3,0.4C685.3,465.7,681.7,468.2,678.1,470.9z"/>
		<path class="st3" d="M679.8,532.2c-2.5,0.3-4.9,0.7-7.3,1c0.3-3.1,0.6-6.1,1-9.2C675.6,526.7,677.7,529.4,679.8,532.2z"/>
		<path class="st7" d="M1061.9,571.4c11.6-17.1,23-34.2,34.6-51.2c1.6-0.1,3.2-0.2,4.8-0.4c10.7,5.2,17.7,5,20.1-7.4
			c1.2-5.8,6.3-11.3,9.5-16.9c-3.9,30.6-7.9,61.1-11.8,91.7c-1.2,0.4-1.5,1.1-0.9,2.1c-4,3.1-8,6.1-12.1,9.2
			c-3.1,1.1-6.3,2.2-9.4,3.3c-2.1,0.4-4.1,0.9-6,1.3C1064.4,603,1066.4,585.1,1061.9,571.4z"/>
		<path class="st13" d="M1061.9,571.4c4.5,13.8,2.5,31.7,28.7,31.8c-1.7,5-3.6,10-5.3,15c-4,3.8-8,7.6-12,11.4
			c-1.5,1.1-3.1,2.1-4.6,3.2c-10.6-0.3-21.1-0.6-17.6,12.8c-0.1,0.8-0.4,1.3-1.1,1.9c-30.7-2.5-33.9-7.7-19.1-30.2
			C1041.1,601.8,1051.5,586.6,1061.9,571.4z"/>
		<path class="st11" d="M1101.2,519.7c-1.6,0.2-3.2,0.3-4.8,0.4c-5-4-10-7.9-15-11.9c-7.8-0.7-15.7-1.3-23.4-2.1
			c-0.5,7.4-1.1,14.9-1.6,22.3c-3,0.9-6,1.7-9.2,2.5c-5.1,0.3-10.3,0.7-15.3,1c-2.8-1.5-5.7-3.2-8.5-4.7c1.4-2.3,2.9-4.6,4.3-7
			c1.7-2.1,3.5-4.3,5.2-6.4c5-7.3,9.8-14.6,14.8-21.8c7.9-4.5,15.9-9,23.8-13.6c6.8,0.1,13.5,0.2,20.3,0.2
			C1113.5,489.5,1114,503.5,1101.2,519.7z"/>
		<path class="st1" d="M1008.1,611c-4.4-5.8-8.9-11.7-17-22.6c-2.8,13.7-4.4,21.7-6.5,31.6c-4.2-3.1-7.8-5.8-11.4-8.6
			c-1.1-2.4-4.1-5.7-3.1-7.2c12.4-18.4,25.5-36.5,38.3-54.8c5.6-0.3,11.3-0.6,17-0.9c4,8.7,8.1,17.4,12.1,26.1
			c-2.9,2.5-5.8,5.2-8.7,7.7c-4.4-5.1-9-10.1-14.4-16.3c-16.4,13.8-5.2,25.9-1.4,37.8C1011.3,606.3,1009.7,608.6,1008.1,611z"/>
		<path class="st20" d="M1068.7,632.7c1.5-1.1,3.1-2.1,4.6-3.2c4.6-1.4,9.3-2.8,13.9-4.2c-5.8,6.8-11.7,13.8-17.7,20.6
			c-12.5,14.5-25.2,28.8-37.7,43.2c-2.9,1.5-5.7,3-8.6,4.5c-1.8,4.2-3.6,8.4-5.4,12.6l0.3-0.3c-8.3,13.6-16.6,27.1-24.9,40.8
			c-1.7-0.6-3.5-1.1-5.2-1.7c7.2-38.5,29.5-70.4,61.9-97.7c0.6-0.6,1-1.1,1-1.9C1056.9,641.2,1062.8,637,1068.7,632.7z"/>
		<path class="st20" d="M1037.5,574.8c-4-8.7-8.1-17.4-12.1-26.1c2.2-5.5,4.3-10.9,6.6-16.4c5.1-0.3,10.3-0.7,15.3-1
			C1056.1,547.5,1049.8,561.6,1037.5,574.8z"/>
		<path class="st1" d="M1056.4,528.6c0.5-7.4,1.1-14.9,1.6-22.3c7.8,0.7,15.7,1.3,23.4,2.1C1075.6,517.2,1084.6,538.8,1056.4,528.6z
			"/>
		<path class="st20" d="M1012.9,604c-3.8-12-15-24,1.4-37.8c5.4,6.2,9.9,11.3,14.4,16.3C1023.5,589.7,1018.2,596.8,1012.9,604z"/>
		<path class="st22" d="M859,223c1.2-5.3,2.5-10.6,3.7-15.8C861.4,212.4,860.2,217.7,859,223z"/>
		<path class="st22" d="M866.2,195.1c2.8-3.9,5.7-7.7,8.5-11.6C871.9,187.3,869,191.2,866.2,195.1z"/>
		<path class="st22" d="M914.4,159.6c3-0.9,6-1.9,9.1-2.9C920.4,157.8,917.4,158.6,914.4,159.6z"/>
		<path class="st16" d="M1005.5,945c-9.3,0.3-18.6,0.6-27.9,0.9c-3.6-1.5-7.2-3.1-10.8-4.6c11.2-5.8,22.6-11.6,33.9-17.4
			c13.1,3.1,26,6.1,39.1,9.2C1028.4,937,1017,941,1005.5,945z"/>
		<path class="st24" d="M959,256.6c-0.2-2.3-0.4-4.6-0.6-7c18.8,2.6,37.6,5.4,56.4,8.1c0,6.3-0.1,12.5-0.1,18.8
			c-15.7-1.7-31.3-3.3-48.6-5.2C964.1,267.2,961.6,261.9,959,256.6z"/>
		<path class="st20" d="M972.5,413.7c-0.8-7.9-1.4-16-2.3-23.9c-2.4-23.3,12.3-38.5,41-42.3c0.2,12.2,0.3,24.6,0.5,36.8
			c-2.8,5.6-7.6,11.1-8.1,16.9c-1.1,12,0,24.2,0.2,36.3c-0.1,1.8-0.3,3.5-0.4,5.3c0.3,3.3,0.6,6.6,1.3,13.9c2.8-6,3.7-7.7,4.4-9.5
			c1.7,3.1,5.5,6.7,4.8,9.3c-4.2,13.1,3.6,16.3,17,15.9c0.1,0.8,0.2,1.5,0.2,2.3c-6.3,8.3-12.5,16.5-18.8,24.7
			c-2.7-2.9-5.4-5.7-8.1-8.6c0.8-7.4,3.2-14.9,1.9-22c-3.7-20.3-8.7-40.5-13.4-60.6c-0.9-4-2.5-7.7-3.7-11.6
			c-4,10.6-2.5,20.4-1.8,30.3c0.5,10.1,1.8,20.6-0.3,30.4c-1.4,6.4-8.5,11.9-13.1,17.9C973.5,454.6,973,434.1,972.5,413.7z"/>
		<path class="st24" d="M973.9,475.2c4.5-6,11.7-11.5,13.1-17.9c2.2-9.8,1-20.3,0.3-30.4c-0.5-9.9-2.2-19.7,1.8-30.3
			c1.3,3.9,2.8,7.7,3.7,11.6c4.6,20.2,9.7,40.3,13.4,60.6c1.3,7.1-1.2,14.7-1.9,22C994.2,485.5,984,480.3,973.9,475.2z"/>
		<path class="st21" d="M1012.4,499.3c6.3-8.3,12.5-16.5,18.8-24.7c5.4,5.8,10.9,11.8,16.3,17.7c-5,7.3-9.8,14.6-14.8,21.8
			c-2.9-0.4-5.8-1-8.7-1.4C1020.2,508.1,1016.3,503.7,1012.4,499.3z"/>
		<path class="st15" d="M1031.9,532.1c-2.2,5.5-4.3,10.9-6.6,16.4c-5.7,0.3-11.3,0.6-17,0.9c5-7.4,9.9-14.7,14.9-22.1
			C1026.3,529,1029.1,530.5,1031.9,532.1z"/>
		<path class="st15" d="M1024,512.6c2.9,0.4,5.8,1,8.7,1.4c-1.7,2.1-3.5,4.3-5.2,6.4C1026.5,517.8,1025.3,515.2,1024,512.6z"/>
		<path class="st16" d="M1003.3,891.3c3.5-14.5,4.9-29.6,11.1-43.1c3.5-7.5,15-12.5,22.9-18.5c3.6-14.8,7.1-29.5,10.6-44.2
			c14.8,32.4,11.6,64.3-5.7,95.2c-3.5,6.2-12.4,10.1-18.8,15.1C1016.8,894.4,1010.1,892.8,1003.3,891.3z"/>
		<path class="st17" d="M1048.1,785.5c-3.6,14.8-7.1,29.5-10.6,44.2c-3-10.3-6-20.4-10.9-36.6c-5,13.6-7.9,21.8-11.6,31.8
			c-11.9-11.5-22.9-22.2-34-33c6.8-8.2,13.6-16.4,20.5-24.6c9.9,23.2,32.7,11.3,50.4,13c0,1.1,0.1,2.3,0.2,3.4
			C1050.9,784.4,1049.5,785,1048.1,785.5z"/>
		<path class="st17" d="M1003.3,891.3c6.8,1.5,13.5,3,20.3,4.5c13.2,7.8,26.2,15.7,39.4,23.5c2.4,3.1,4.9,6.2,7.2,9.3
			c-10.1,1.4-20.3,2.9-30.4,4.4c-13.1-3.1-26-6.1-39.1-9.2c4.3-1.7,8.6-3.3,13.7-5.3c-12.3-8.9-24.5-17.8-36.6-26.6
			C986.3,891.7,994.8,891.5,1003.3,891.3z"/>
		<path class="st17" d="M978.2,891.8c-2.2-1.4-4.3-2.8-6.5-4.2C973.9,889.1,976.1,890.5,978.2,891.8z"/>
		<path class="st1" d="M1011.8,384.3c-0.2-12.2-0.3-24.6-0.5-36.8c3.8-5.6,7.5-11.3,11.2-16.9c4.6,3,9.4,6,14,8.9
			c0.2,2.6,0.5,5.3,0.8,7.9c-0.2,5.5-0.4,11.1-0.6,16.7c-4.4,0-8.9,0-13.3,0c-1.3,2.1-2.6,4.2-4,6.2c-0.3,10.1-0.8,20.3-1.1,30.4
			C1016.2,395.4,1014.1,389.8,1011.8,384.3z"/>
		<path class="st3" d="M962.6,342.1c-0.2-0.7-0.3-1.3-0.1-2.1c16.7-14.1,33.4-28.1,50.1-42.1C1010.1,321.6,993.5,336.3,962.6,342.1z
			"/>
		<path class="st3" d="M958.5,347.1c1.4-1.4,2.7-2.9,4.1-4.3C961.2,344.2,959.7,345.6,958.5,347.1z"/>
		<path class="st18" d="M790.8,821.2c6.8-4.2,13.6-8.4,20.4-12.6c-1.7,2.6-3.5,5.4-5.1,8.1c-1,1.7-1.9,3.3-3,5.1
			C798.9,821.6,794.9,821.3,790.8,821.2z"/>
		<path class="st24" d="M1052.2,783.7c-0.1-1.1-0.2-2.3-0.2-3.4c-2.2-8.8-3.9-17.9-6.5-26.6c-3.6-12.1-8.2-24-11.3-36.2
			c-1.2-4.5,0.4-9.5,1.1-17.9c-8.4,8.4-13.3,13.3-18.2,18.2c0.4-4,0.9-7.8,1.3-11.8l-0.3,0.3c1.8-4.2,3.6-8.4,5.4-12.6
			c2.9-1.5,5.7-3,8.6-4.5c17.9-6.2,40.5-6,48.8-25.9c1.5-3.6,14.5-8.1,15-7.4c11,12,15.7,0.4,18.8-4.3c5.2-7.9,4.4-21.3,11.7-25.2
			c19.7-10.5,6.8-14.7-2.8-23.1c-5.1,6.5-8.2,12.2-13.4,16.1c-2.2,1.7-8.6-0.7-13.1-1.1c1.9-4.9,4-9.7,5.9-14.6
			c1.1-1.8,2.2-3.5,3.2-5.2c4-3.1,8-6.1,12.1-9.2c12.4-2.4,24.8-4.9,37.1-7.3c21.6,1.3,43.1,2.8,65.8,4.2
			c-27,16.9-49.8,30.4-71.5,45.2c-5.1,3.4-5.9,11-8.7,16.8c-21.4,22-42.8,43.9-64.1,65.9c1.8,17.9,3.6,35.7,5.4,53.7
			c-1.9,8.1-3.8,16-5.7,24c-1.5-0.7-3-0.9-4.6-0.7C1065.1,788.8,1058.7,786.3,1052.2,783.7z"/>
		<path class="st26" d="M1017,717.8c5-5,9.8-9.8,18.2-18.2c-0.6,8.4-2.3,13.3-1.1,17.9c3.1,12.1,7.8,24,11.3,36.2
			c2.6,8.8,4.3,17.8,6.5,26.6c-17.7-1.8-40.6,10.1-50.4-13C1006.6,750.7,1011.8,734.3,1017,717.8z"/>
		<path class="st24" d="M1047.5,492.3c-5.4-5.8-10.9-11.8-16.3-17.7c-0.1-0.8-0.2-1.5-0.2-2.3c13-5.3,31.4-7.3,20.4-26
			c31.3,2.5,31.3,2.5,29.5-12.8c7.3-1.1,14.7-2.3,24.4-3.9c-3.9-6.1-7.8-12-12.8-19.9c7.3-5.6,15.1-11.6,23-17.7
			c5.4,1.4,10.7,2.9,16.1,4.3l-0.9,0.8c0.4,5.8,0.9,11.6,1.2,17.4c-20.2,21.4-40.4,42.7-60.6,64.1
			C1063.4,483.2,1055.5,487.7,1047.5,492.3z M1065.9,464.5c-1.4-0.1-2.6-0.4-3.7-0.2c-0.4,0.1-1.2,1.4-1,1.7
			c0.8,0.9,1.8,1.4,2.7,2.2C1064.6,467,1065.1,465.8,1065.9,464.5z"/>
		<path class="st21" d="M1080.9,433.3c1.8,15.3,1.8,15.3-29.5,12.8c11,18.6-7.5,20.7-20.4,26c-13.4,0.6-21.2-2.6-17-15.9
			c0.9-2.5-3-6.2-4.8-9.3c-1.9-1.4-3.8-2.9-5.7-4.4c0.1-1.8,0.3-3.5,0.4-5.3c5.8-5.5,11.7-11,17.4-16.5c13.6,9,17.6,3.9,17.3-8.1
			c1.6-0.1,3.1-0.2,4.8-0.4C1058.5,416,1070.4,423.9,1080.9,433.3z"/>
		<path class="st24" d="M1043.3,412.4c-1.5,0.2-3.1,0.3-4.8,0.4c-0.6-16.2-1.3-32.4-1.9-48.7c0.2-5.5,0.4-11.1,0.6-16.7
			c1.9,0.3,3.9,0.6,5.8,0.9c1.2,2.6,2.4,5.4,3.6,8.1c0.4,2.6,1,5.3,1.4,7.9C1046.6,380.4,1044.9,396.4,1043.3,412.4z"/>
		<path class="st21" d="M1043.2,348.4c-1.9-0.3-3.9-0.6-5.8-0.9c-0.2-2.6-0.5-5.3-0.8-7.9c19.3,2.1,38.7,4.3,58.1,6.4
			c-0.2,1.5-0.5,3.2-0.8,4.7C1077,349.8,1060.1,349.2,1043.2,348.4z"/>
		<path class="st21" d="M1111,376.3c-1.3-0.3-2.5-0.8-3.8-1.1c1.3,0.3,2.7,0.6,4,0.9L1111,376.3z"/>
		<path class="st21" d="M1048.1,364.3c-0.4-2.6-1-5.3-1.4-7.9C1047.2,359,1047.6,361.6,1048.1,364.3z"/>
		<path class="st7" d="M1238.8,441.9c-14.4,1.8-28.7,3.5-43,5.3c-19.8,9.3-39.4,18.6-59.2,27.9c-3.3-2.9-6.6-5.6-9.9-8.5
			c-2.1-2.8-4-5.4-6-8.2c1.7-2.8,3.6-5.5,5.3-8.2c6.7,1,13.5,2,23.1,3.3c-4.8-12.7-13.6-26,11.6-23.7c8.2-12.5,16.4-24.9,24.6-37.3
			h0.1c19.7-16.1,37.7-10.6,55,3c10.4,8.2,19,15.6,1.4,26C1237.2,424.4,1239.6,435,1238.8,441.9z"/>
		<path class="st13" d="M1126.7,466.8c3.3,2.9,6.6,5.6,9.9,8.5c-0.2,4.1-0.4,8.1-0.6,12.1c-1.7,2.6-3.3,5.4-5.1,8.1
			c-3.3,5.6-8.4,10.9-9.5,16.9c-2.4,12.4-9.4,12.6-20.1,7.4c12.8-16.2,12.3-30.3-9.5-40.8c12.5-18.8,22.7,2.3,36.3,1.8
			C1127.4,475.7,1127.1,471.3,1126.7,466.8z"/>
		<path class="st13" d="M1185.3,392.7c-8.2,12.5-16.4,24.9-24.6,37.3c-2.2-7.2-4.3-14.3-6-20.2
			C1165.4,403.8,1175.4,398.3,1185.3,392.7z"/>
		<path class="st13" d="M1126,450.4c-1.7,2.8-3.6,5.5-5.3,8.2C1122.5,455.8,1124.2,453.2,1126,450.4z"/>
		<path class="st20" d="M1122.8,356c-1.4,0-3.5,0.4-3.9-0.1c-0.8-0.9-0.3-2.3-0.4-3.5c1.4,0.1,3.3-0.3,3.9,0.3
			C1123.1,353.4,1122.7,354.9,1122.8,356z"/>
		<polygon class="st24" points="1131.5,396.4 1132.3,397.7 1130.7,397.2 		"/>
		<path class="st4" d="M1678.8,54.3c4.4-10.3,9.4-22,14.5-33.5c2.5-0.4,5-0.9,7.6-1.3c6.3,11.5,12.5,22.8,19.1,34.9
			C1705.4,54.3,1693.2,54.3,1678.8,54.3z"/>
		<path class="st17" d="M1169.4,478.9c0.6,4.5,1.3,9,1.9,13.5c0,6.3,0.1,12.7,0.1,19c1.3,3.1,2.7,6.2,4,9.3c1.4,0,2.7-0.1,4.1-0.3
			c1.9,4.2,3.9,8.3,5.8,12.5c1.3-0.1,2.5-0.1,3.8-0.1c1.8,1.3,3.7,2.6,5.4,4c0.2,3.5,0.3,7.1,0.5,10.5c1.7,2.6,3.5,5.2,5.1,7.8
			c0,2.4,0,4.9,0.1,7.4c-4.8,1.4-9.5,2.9-14.1,4.3c-13.3-8.5-26.6-16.9-40-25.4c-0.1-18-0.2-36-0.4-53.9
			C1153.7,484.4,1161.6,481.7,1169.4,478.9z"/>
		<path class="st20" d="M1242.5,454.2c10.1,20.7,23.5,40.5,16.5,64.9c-2.3,7.8,2.9,17.1,4.6,25.7c-10.9-5.5-21.9-11.1-32.8-16.7
			c-3.3-2.1-6.8-4.3-10.1-6.4c-0.5-1.5-1-3.1-1.5-4.7c1.9-1.5,3.8-3.2,5.7-4.7c20,0,21.5-8.1,17-22.4
			C1238.2,478.6,1220.6,465.6,1242.5,454.2z"/>
		<path class="st20" d="M1169.4,478.9c-7.9,2.8-15.8,5.5-23.6,8.2c-3.2,0.1-6.6,0.2-9.8,0.3c0.2-4.1,0.4-8.1,0.6-12.1
			c19.8-9.4,39.4-18.6,59.2-27.9c1.4,2.4,4.8,6.4,3.9,7.1C1190,462.8,1179.6,470.9,1169.4,478.9z"/>
		<path class="st24" d="M1189.1,532.5c-1.3,0-2.5,0.1-3.8,0.2c-0.1-6.7-0.1-13.6-0.2-20.3l0.2-0.3c1.5-2.6,3.1-5.3,4.6-7.9l0.2-0.3
			c2.5-2.6,5-5.4,7.5-8.1c2.4,4.1,4.9,8.2,7.2,12.2c-1.9,2.4-3.9,5-5.8,7.4c-1.4,3.1-2.8,6.2-4.2,9.4l0.2-0.3
			C1193.1,527.1,1191.1,529.8,1189.1,532.5z"/>
		<path class="st24" d="M1179.5,520.3c-1.3,0.2-2.7,0.3-4.1,0.3c-0.3-3-0.8-6-1.1-8.9c2.1-5.3,4.1-10.6,6.2-15.9
			c3.3,0.1,6.7,0.1,10,0.2c-0.1,2.5-0.2,5.2-0.2,7.7l-0.2,0.3c-1.5,2.6-3.1,5.3-4.6,7.9l-0.2,0.3
			C1183.3,515,1181.3,517.6,1179.5,520.3z"/>
		<path class="st24" d="M1224.8,512.2c-1.9,1.5-3.8,3.2-5.6,4.7c-3.1-0.1-6.2-0.2-9.3-0.3c0-2.9,0-5.7-0.1-8.6
			C1214.8,509.4,1219.9,510.8,1224.8,512.2z"/>
		<path class="st14" d="M1180.5,495.8c-2.1,5.3-4.1,10.6-6.2,15.9c-1,0-1.9-0.1-2.9-0.2c0-6.3-0.1-12.7-0.1-19
			C1174.4,493.6,1177.4,494.7,1180.5,495.8z"/>
		<path class="st20" d="M1209.8,508c0,2.9,0,5.7,0.1,8.6l0.1-0.2c-1.8,0.1-3.8,0.3-5.6,0.4c-1.7-0.4-3.6-1-5.3-1.4
			c1.9-2.4,3.9-5,5.8-7.4C1206.5,508,1208.2,508,1209.8,508z"/>
		<path class="st16" d="M1190.2,503.8c0.1-2.5,0.2-5.2,0.2-7.7c2.4-0.1,4.8-0.2,7.1-0.3C1195.1,498.4,1192.7,501.1,1190.2,503.8z"/>
		<path class="st8" d="M653.4,566.1c0.1,2.9,0.1,5.7,0.2,8.6c-1.6,1.3-3.2,2.6-4.8,4c-3.2,5.6-8,11-9.4,16.9
			c-2.9,12-4,24.3-5.9,36.4c-4.5,4.4-9.1,8.8-13.7,13.2c-4.3,5-8.5,10-12.8,15c-2.7,7.9-7.2,15.9-7.7,24
			c-1.3,24.3-9.5,45.1-35.2,58.9c-0.6-1.2-2.3-3.2-1.8-3.6c25.1-24.2,25.6-54.7,32.7-83.8c2.6-10.4,13.1-20.3,22.4-28.5
			c10.9-9.7,17.2-18.3,13.3-32.8c-2.1-7.3,5-16.3,7.9-24.6c4.8-1.4,9.5-2.9,14.3-4.4L653.4,566.1z"/>
		<path class="st22" d="M564.2,743.2c25.6-13.8,33.9-34.6,35.2-58.9c0.4-8.1,5-16,7.7-24c0.4,18.1,9,40.2-0.3,53.5
			c-22.1,31.4-52.7,58.7-79.9,87.7l-1.9-0.8c8.2-13.7,16.5-27.4,24.7-41C554.5,754.2,559.4,748.6,564.2,743.2z"/>
		<path class="st8" d="M662.4,533.7c1.4,11.7,19.7,26.6-9.1,32.3l-0.5-0.4c5.5-19.9-10.9-47.5-34.1-57.4c-3.3-2.8-6.7-5.6-9.9-8.4
			c1.3-7,2.7-14,4-21c3.3,4.4,6.6,8.7,9.9,13.1c1.8,1.5,3.7,3,5.5,4.4c4.8,2.6,9.6,5.3,14.4,8.1c3.1,4.1,6.3,8.1,9.4,12.1
			c1.8,4.2,3.6,8.3,5.3,12.5C658.9,530.6,660.7,532.2,662.4,533.7z"/>
		<path class="st10" d="M618.8,508.1c23.2,9.8,39.6,37.6,34.1,57.4c-4.8,1.4-9.5,2.9-14.3,4.4C631.9,549.3,625.3,528.8,618.8,508.1z
			"/>
		<path class="st8" d="M549.6,759.7c-8.2,13.7-16.5,27.4-24.7,41c-3.3,1.3-6.8,2.6-10.1,4C518.8,785.6,525.8,768.1,549.6,759.7z"/>
		<path class="st10" d="M584.2,392.6c11.4,12.4,22.9,24.7,34.2,37.1C607.1,417.3,595.6,405,584.2,392.6z"/>
		<path class="st10" d="M612.7,478.8c-1.3,7-2.7,14-4,21c-4.2-7-8.5-14-12.7-21c7.6-2,15.2-3.9,22.8-5.7
			C616.7,474.9,614.8,476.9,612.7,478.8z"/>
		<path class="st22" d="M612.7,478.8c2.1-2,4-3.9,6-5.8c1.1,0.1,2.2,0.2,3.2,0.4c0.2,6.2,0.4,12.4,0.6,18.4
			C619.3,487.6,616.1,483.2,612.7,478.8z"/>
		<path class="st10" d="M623.8,438c1.5,5.5,3,10.9,4.5,16.4C626.9,449,625.3,443.5,623.8,438z"/>
		<path class="st2" d="M526.8,801.5c27.2-29,57.8-56.3,79.9-87.7c9.4-13.2,0.8-35.4,0.3-53.5c4.2-5,8.5-10,12.8-15
			c3.9,18.8,10.3,37.4,10.5,56.2c0.1,9.9-10.5,20-16.2,29.9c-1.7,2.6-3.5,5.2-5.2,7.8c-17.9,16.5-35.8,33.2-53.8,49.8
			c-26.5,32.7-52.9,65.4-79.4,98.2c-0.2,6.6-0.5,13.2-0.8,19.9c-4.4,0.2-8.7,0.3-13.2,0.6c-7-28.9,19.3-46.1,34.1-67.2
			C505.4,826.9,516.5,814.4,526.8,801.5z"/>
		<path class="st22" d="M594.1,351.6c-0.9,11.7,3.3,19.2,19.3,21.2c7.2,0.9,16.7,5.2,19.8,10.3c12.4,20.3,23.5,41.3,32.6,62.8
			c1.3,3.1-11.9,10.4-18.4,15.7c-1.5-10.7-1.9-21.6-5.1-32c-2.3-7.7-9.7-14.3-11.9-22c-3.7-13.2-10.9-20.9-27.6-24.7
			C581.3,378,579.2,367.4,594.1,351.6z"/>
		<path class="st26" d="M1460.7,718.7c0.1,4.2,0.2,8.5,0.3,12.7c-13.4-7-26.8-13.9-40.2-20.9c-7.9-1.9-15.8-3.9-23.6-5.7
			c-40.2,0.8-80.3,1.5-120.5,2.3c0.1,2.4,0.3,4.9,0.4,7.3c33.5,0,66.9,0,100.4,0c-6.7,4.1-13.3,8.1-20,12.1
			c-10.3,2.6-20.4,5.3-30.7,7.9c-4.8-2.9-10.4-8.9-14.1-8.3c-26.3,5.1-52.3,11.6-78.3,17.5c-5.5-5.5-11.1-10.9-16.3-16.1
			c12.7-2.6,24.4-5.1,36-7.5c-0.4-1.8-0.9-3.5-1.4-5.4c-17.9,2.1-36,3.4-53.6,6.5c-18.4,3.3-27.8,13.1-24.1,29.7
			c-6.2,2.9-12.3,5.7-18.6,8.6c-2.3,2.6-4.5,5.3-6.8,7.9c-4.9-0.8-9.7-1.4-14.5-2.2c1.8-4.4,3.7-8.9,5.6-13.3
			c23-6.6,21.3-26.5,30.8-40.3c1.5-0.2,3-0.6,4.4-1c56.1-16.8,111.2-37.3,172.8-36c1.6,0.6,3.2,1.1,5,1.7
			c-13.1,5.7-26.1,11.5-36.2,15.8c40,3.5,83.4,7.4,126.8,11.3C1449.9,708.6,1455.3,713.7,1460.7,718.7z"/>
		<path class="st26" d="M1239.2,619.5c7.8-0.4,15.9,0,23.3-1.5c21.2-4.5,41.2-5,62.5,6.4c-19.5,1.7-36.3,3.1-56.3,4.9
			c24.3,7.1,44.3,12.8,64.2,18.6c-6.8-0.6-13.5-1-20.3-1.5c-4.8-0.7-9.4-1.3-14.1-2c-4.9,1.8-9.7,3.4-14.5,5.2
			c-5,2.4-9.9,5-14.9,7.4c-2.9,1.4-5.9,2.9-8.9,4.3c-0.3,2.5-0.5,5.1-0.9,7.6l-0.3,0.2c-15.3,2.3-30.6,4.5-47.4,7.1
			c2.3-7.3,3.5-11.3,4.2-13.8c-14.4,4-27.6,7.6-40.9,11.3c-2.8,2.3-5.6,4.7-8.4,7.1c-1.9,1.5-3.8,3-5.7,4.5
			c-3.2,0.4-6.4,0.8-9.6,1.2c3.2,7.8,6.6,15.7,9.8,23.6c-8.4,7-16.8,13.9-25.3,20.7c-6.5-2.8-13-5.4-19.4-8.2
			c5.2-43.8,40.8-64.4,84.8-80.1C1215.1,637.4,1226.6,627.3,1239.2,619.5z"/>
		<path class="st26" d="M1186.1,566.5c4.8-1.4,9.5-2.9,14.1-4.3c24.5-4.3,49.1-8.6,73.6-13c5,1.5,9.9,3.1,14.9,4.6
			c-4.2,8.3-8.4,16.5-14.9,29.3c12.6-4.7,19.3-7.3,26.1-9.8c1.6,1.9,3.2,3.6,4.9,5.5c-6.5,3.9-12.3,9.4-19.5,11.3
			c-32.3,8.3-64.9,15.6-97.5,23.1c0.2,2.1,0.4,4.1,0.6,6.2c3.8,1.4,7.5,2.9,11.2,4.3c-19.5,8.3-39.2,16.4-58.8,24.7
			c2.8-5.7,3.8-13.3,8.7-16.8c21.7-14.8,44.5-28.4,71.5-45.2c-22.7-1.4-44.3-2.9-65.8-4.2C1165.6,576.9,1175.8,571.7,1186.1,566.5z"
			/>
		<path class="st21" d="M1140.8,648.4c19.7-8.3,39.2-16.4,58.8-24.7c13.2-1.4,26.3-2.8,39.6-4.2c-12.6,7.8-24.1,18-38.2,23.1
			c-43.9,15.7-79.6,36.3-84.8,80.1c-6.7-1.3-13.4-2.5-20.1-3.9c-3.3-0.4-6.8-0.9-10.1-1.3c-3.1-1.1-6.3-2.1-9.3-3.2
			C1098.1,692.3,1119.4,670.3,1140.8,648.4z"/>
		<path class="st20" d="M1312.6,646.4c6.8,0.6,13.5,1,20.3,1.5c23.5,9.5,47.1,19,70.5,28.5c-1.4,3.4-2.8,6.8-4.2,10.3
			c-15.1-3.4-30.2-6.8-45.4-10.3c-1.6-0.6-3.2-1.1-4.9-1.7C1336.8,665.2,1324.7,655.8,1312.6,646.4z"/>
		<path class="st1" d="M1319.7,607.9c30.4-0.8,51.8,11.8,67.7,32.3c-21.2,5-38.3,0.6-51.2-14.9
			C1331.3,619.2,1325.4,613.6,1319.7,607.9z"/>
		<path class="st26" d="M1367.9,599.5c-2.7-2.9-5.4-5.7-8.1-8.5c1.1-0.8,2.2-1.7,3.1-2.4c3.1,2.4,6.2,4.9,9.3,7.4
			C1370.8,597.1,1369.4,598.3,1367.9,599.5z"/>
		<path class="st2" d="M1397.2,704.8c7.9,1.9,15.8,3.9,23.6,5.7c1.7,13.8,3.5,27.6,5.2,41.4c-0.3,2.5-0.5,5.1-0.9,7.6
			c-14.1-2.8-28.3-5.5-42.4-8.3c-18.4-1.1-26.3-9.7-25.2-24.8c6.7-4.1,13.3-8.1,20-12.1C1384.1,711.2,1390.7,708,1397.2,704.8z"/>
		<path class="st17" d="M1382.8,751.3c14.1,2.8,28.3,5.5,42.4,8.3c7,6.8,14,13.8,21.1,20.6c-5.2,9-9.5,14.3-22.8,5.1
			c-9.6-6.7-24-8.7-36.3-12.8C1385.7,765.4,1384.2,758.3,1382.8,751.3z"/>
		<path class="st21" d="M1273.9,549.2c-24.5,4.3-49.1,8.6-73.6,13c0-2.4,0-4.9-0.1-7.4c4.4-4.3,8.7-8.6,13.2-12.8
			c5.8-4.6,11.7-9.3,17.5-13.9c10.9,5.5,21.9,11.1,32.8,16.7C1267,546.2,1270.5,547.7,1273.9,549.2z"/>
		<path class="st28" d="M462.5,948c-2.9,19.4-20.6,21.3-38.2,21.5c-38.4,0.6-77,0.1-115.4,0c14.3-7.9,27.5-17.5,42.9-23.4
			c16.1-6.2,35.5-6.7,51.1-13.6c20.4-8.9,38.4-8.7,57.7,0.1C461.2,937.7,461.9,942.9,462.5,948z"/>
		<path class="st23" d="M1070.2,928.6c-2.4-3.1-4.9-6.2-7.2-9.3c0.8-2.4,1.5-4.9,2.3-7.3c38.9-6.8,77.9-13.1,116.6-20.6
			c17.7-3.4,38.9-5.5,51-14.9c12.5-9.8,20.9-10.8,36-8.3c10.7,1.9,25.8,0.9,33.1-4.5c5.4-4,1.3-17,1.4-25.9c5-4,10-8.1,15-12
			c19.5,10.9,39.1,21.7,58.7,32.7c0.3,30-0.1,28.5-34.2,35.7c-40.9,8.7-81,20.2-121.3,30.9c-23.8,6.3-47.3,13.3-70.8,20.1
			c-2.4,0.1-4.8,0.2-7.1,0.3C1118.6,941,1090.3,947.2,1070.2,928.6z"/>
		<path class="st26" d="M1501.9,921.2c15.8,1.3,31.6,2.6,47.4,4.1c-4.3,1.7-8.6,3.4-15.7,6.2c10.8,4.2,19.9,7.7,29,11.4
			c0.2,2.1,0.4,4.2,0.6,6.4c-11.4,2.9-22.7,7.5-34.3,8.2c-35.5,2.2-71.3,2.8-106.9,4.2c-7.1,0.3-14.3,1.3-21.4,2.1
			c-10.5-0.6-20.9-1.1-31.4-1.8c-25.4-0.6-50.9-1.1-76.2-1.5c-20.6-0.9-41.2-1.9-61.9-2.8c-12.5-4-25.2-7.9-37.8-12
			c77.1-6.5,154.3-13,231.4-19.5c3.6-0.6,7-1.2,10.6-1.8C1457.5,923.3,1479.8,922.3,1501.9,921.2z"/>
		<path class="st18" d="M1376.9,858.4c-19.5-10.9-39.1-21.7-58.7-32.7c3.3-5.5,6.8-11,10.1-16.5c5,0.1,9.9,0.1,14.9,0.2
			c2.6,16.7,11.6,27.8,33.7,27.9c13.3,1.3,26.5,2.8,39.7,4.1c3.3,0.7,6.7,1.4,10,2.1c6.2,4,12.3,7.9,18.5,11.9
			c-12.2,12.5-25.1,5.7-39,2.2C1397.3,855.4,1386.7,858,1376.9,858.4z"/>
		<path class="st17" d="M1193.4,945.5c12.6,4,25.2,8.1,37.8,12c-15.2,1.1-30.4,2.2-45.8,3.3c-2.6,0.2-5.2,0.4-7.8,0.7
			c-11.4-5.3-22.8-10.7-34.2-16c2.4-0.1,4.8-0.2,7.1-0.3C1164.8,945.2,1179.2,945.3,1193.4,945.5z"/>
		<path class="st20" d="M1530.2,846.8c-4.8,2.9-9.4,5.8-14.1,8.7c-10.8-0.6-21.5-1.2-32.3-1.8c-3.8-0.8-7.6-1.5-11.3-2.3
			c-4.3-0.4-8.5-0.8-12.8-1.1c-7.9-2.6-15.7-5.3-23.5-7.9c3.3-1.5,6.8-3.1,10.1-4.6c3.3,0.2,6.7,0.4,10,0.7c3.1,0.1,6.4,0.1,9.5,0.2
			c13.5,0.8,27,1.4,40.5,2.2c6.3,1.8,12.5,3.5,18.8,5.3c1.6-0.3,3.1-0.6,4.8-0.9L1530.2,846.8z"/>
		<path class="st16" d="M1436,842.3c7.9,2.6,15.8,5.3,23.5,7.9c-4.9,1.8-9.6,3.4-14.5,5.2c-6.2-4-12.3-7.9-18.5-11.9
			C1429.8,843.1,1432.9,842.6,1436,842.3z"/>
		<path class="st16" d="M1472.4,851.5c3.8,0.8,7.6,1.5,11.3,2.3C1480,852.9,1476.2,852.1,1472.4,851.5z"/>
		<path class="st21" d="M1435.4,924.3c-3.6,0.6-7,1.2-10.6,1.8C1428.4,925.4,1431.9,924.8,1435.4,924.3z"/>
		<path class="st17" d="M1293,960.2c25.5,0.6,50.9,1.1,76.2,1.5C1343.8,961.3,1318.4,960.8,1293,960.2z"/>
		<path class="st20" d="M1234.5,743.8c26-6.1,51.9-12.5,78.3-17.5c3.8-0.8,9.4,5.3,14.1,8.3c-3.9,3.2-7.8,6.3-11.6,9.5
			c3.9,1.3,7.8,2.4,11.4,4.1c14.8,6.4,34.2,7.3,40.5,23.8c-13.1,2.8-26.2,5.4-39.3,8.2c-5-1.1-10-2.3-15-3.4
			c-6.2,0.4-12.3,0.8-18.5,1.1c-0.5,0-1.1,0-1.6,0.1c0.5,0.4,1.1,0.9,1.6,1.2c-1.9,6.3-3.9,12.6-5.8,18.9c-3.3-4.4-6.6-8.9-9.9-13.3
			c-6.3-1.2-12.5-2.5-18.9-3.8c-5.2,1.1-10.3,2.2-15.4,3.3c-7.2,2.5-16.8,8.8-21.4,7c-21.9-9.4-31.1,3.8-42.4,14.1
			c-7.1,0-14.1,0-22.1,0c14.3-19,12.2-27.1-8.4-37.6c2.3-2.6,4.5-5.3,6.8-7.9c6.3-1.3,12.4-2.8,18.7-4.1c9.8,3.2,21.4,10.8,29,8.7
			C1215.9,761,1224.6,751,1234.5,743.8z"/>
		<path class="st24" d="M1180.6,805.1c11.3-10.4,20.6-23.5,42.4-14.1c4.5,2,14.1-4.4,21.4-7c0,7.8-1,15.8,0.5,23.4
			c0.8,3.6,6.2,6.6,9.4,9.9c24.6-2.8,49.3-5.4,74-8.2c-3.3,5.5-6.8,11-10.1,16.5c-5,4-10,8.1-15,12c-14.7,1.7-29.4,3.3-43.9,5
			c-1.4-1-2.9-1-4.3,0c-5.4,0.8-10.8,1.4-16.1,2.2c-21.7-5.6-41.9-13.6-66.4-2.6c-10.1,4.5-34.8,9.3-38.4-13.2
			C1149.4,821.1,1164.9,813.1,1180.6,805.1z"/>
		<path class="st17" d="M1436,842.3c-3.1,0.4-6.3,0.8-9.4,1.2c-3.3-0.7-6.7-1.4-10-2.1c-11.1-12-4.6-23.9,0.2-36
			c21.8,0.4,43.8-0.8,65.2,2.1c8.3,1.1,14.8,11.4,22.1,17.4c-10-2.5-19.9-5.8-30.1-7.4c-18.4-2.8-30.7,1.4-27.8,20
			C1442.8,839.2,1439.4,840.8,1436,842.3z"/>
		<path class="st21" d="M1367.4,771.9c-6.3-16.5-25.7-17.4-40.5-23.8c-3.7-1.5-7.7-2.8-11.4-4.1c3.9-3.2,7.8-6.3,11.6-9.5
			c10.3-2.6,20.4-5.3,30.7-7.9c-1.2,15.1,6.7,23.6,25.2,24.8c1.5,7.1,3,14.1,4.5,21.2C1380.6,772.4,1373.9,772.1,1367.4,771.9z"/>
		<path class="st20" d="M1416.8,805.5c-4.9,11.9-11.2,23.9-0.2,36c-13.3-1.4-26.5-2.8-39.7-4.1c-2.9-11.3-14.8-23.5,5.3-32.1
			C1393.7,805.2,1405.3,805.3,1416.8,805.5z"/>
		<path class="st21" d="M1446.2,837.7c-2.9-18.5,9.4-22.8,27.8-20c10.3,1.5,20.1,4.9,30.1,7.4c0.6,5.2,1.4,10.5,2.1,15.7
			c-13.5-0.8-27-1.4-40.5-2.2c-3.1-0.1-6.4-0.1-9.5-0.2C1452.9,838,1449.5,837.9,1446.2,837.7z"/>
		<path class="st16" d="M1382.3,805.1c-20.2,8.6-8.2,20.9-5.3,32.1c-22.1,0-31.1-11.3-33.7-27.9
			C1356.2,808,1369.2,806.6,1382.3,805.1z"/>
		<path class="st17" d="M1254.3,817.4c-3.2-3.3-8.6-6.3-9.4-9.9c-1.5-7.6-0.5-15.6-0.5-23.4c5.2-1.1,10.3-2.2,15.4-3.3
			c-0.1,1.2-0.3,2.5-0.5,3.8c-0.5,0.3-1.5,0.9-1.4,1.1c0.4,0.9,1.1,1.7,1.6,2.5C1257.8,797.8,1256,807.7,1254.3,817.4z"/>
		<path class="st24" d="M1278.6,784.5c3.3,4.4,6.6,8.9,9.9,13.3c-3.7,2.9-7.2,5.7-10.9,8.5c-1.7-1.1-3.6-2.3-5.3-3.4
			C1274.5,796.8,1276.6,790.7,1278.6,784.5z"/>
		<path class="st24" d="M1312.9,776.6c5,1.1,10,2.3,15,3.4c0.3,1.1,0.4,2.3,0.3,3.4c-1.7,1.5-3.5,3.2-5.2,4.7
			c-2.9,3.4-5.8,6.7-12.2,14C1312,790.3,1312.5,783.5,1312.9,776.6z"/>
		<path class="st20" d="M1323.2,788.2c1.7-1.5,3.5-3.2,5.2-4.7C1326.7,785,1324.9,786.7,1323.2,788.2z"/>
		<path class="st24" d="M1294.5,779.1c-0.5-0.4-1.1-0.9-1.6-1.2c0.5,0,1.1,0,1.6-0.1C1294.5,777.8,1294.5,779.1,1294.5,779.1z"/>
		<path class="st24" d="M1529.8,845.2c-1.6,0.3-3.1,0.6-4.8,0.9C1526.6,845.7,1528.2,845.4,1529.8,845.2z"/>
		<path class="st24" d="M1259.5,788.1c-0.5-0.9-1.3-1.7-1.6-2.5c-0.1-0.2,0.9-0.8,1.4-1.1C1259.4,785.7,1259.4,786.9,1259.5,788.1z"
			/>
		<path class="st4" d="M71.7,19c11.1,2.8,26.6,3.3,28.2,7.6c3,7.8,0,18.8-4.8,26.6c-2.5,4.2-14,4.4-23.5,7.1
			C71.7,45.1,71.7,33.9,71.7,19z"/>
		<path class="st28" d="M168.1,17.2c0.6,4.3,1.2,8.6,1.8,12.9c-3,9.3-6,18.5-9.4,29.1C144.5,35.6,146.9,24.4,168.1,17.2z"/>
		<path class="st27" d="M244.3,37.5c9.2-1.4,18.2-2.9,28.8-4.5c4,8.9,8.1,16.5-10.9,14.2c-4.1-0.6-8.7,2.1-13.1,3.3
			C247.5,46.2,245.9,41.8,244.3,37.5z"/>
		<path class="st28" d="M188.9,57.3c-2.6,0-5.2,0-7.7,0.1c0.5-3.5,1.2-7.2,1.7-10.7c1.3,0,2.6,0,3.9,0
			C187.6,50.1,188.3,53.6,188.9,57.3z"/>
		<path class="st28" d="M140.5,47.3c-5.7-0.7-11.3-1.3-17.1-2c0-0.7,0.1-1.4,0.1-2.1c5.8,0,11.6,0,17.4,0
			C140.7,44.6,140.6,46,140.5,47.3z"/>
		<path class="st29" d="M1143.4,945.5c11.4,5.3,22.8,10.7,34.2,16c-18.9-0.8-40.4,2.9-56.3-3.4c-28.9-11.4-57.2-12.6-87.6-10.4
			c-9.3,0.7-18.9-1.7-28.4-2.6c11.4-4.1,22.9-8.1,34.3-12.1c10.1-1.4,20.3-2.9,30.4-4.4C1090.3,947.2,1118.6,941,1143.4,945.5z"/>
		<path class="st16" d="M475,906.8c0.2-6.6,0.5-13.2,0.8-19.9c13.2,14.5,30.1,10.9,47.5,7.3c18.6-3.8,36.7-4.4,49.9,10.5
			C540.5,905.5,507.8,906.2,475,906.8z"/>
		<path class="st3" d="M555.2,788.8c17.9-16.5,35.8-33.2,53.8-49.8c-8.1,14.3-14.3,29.8-25.1,42.5
			C579.3,786.9,565.1,786.6,555.2,788.8z"/>
		<path class="st22" d="M633.5,631.9c1.8-12.1,3-24.5,5.9-36.4c1.4-6,6.2-11.3,9.4-16.9c1.9,13.8,3.9,27.6,5.8,41.3
			C647.6,623.9,640.6,627.9,633.5,631.9z"/>
		<path class="st2" d="M654.6,619.9c-1.9-13.8-3.9-27.6-5.8-41.3c1.6-1.3,3.2-2.6,4.8-4c4.9-0.1,9.6-0.1,14.5-0.2
			c-2.2,12-4.1,24-6.8,36C660.4,613.8,656.9,616.7,654.6,619.9z"/>
		<path class="st22" d="M657.2,529.1c-1.7-4.2-3.6-8.3-5.3-12.5C653.6,520.7,655.4,524.9,657.2,529.1z"/>
		<path class="st22" d="M642.5,504.4c-4.8-2.6-9.6-5.3-14.4-8.1C632.9,499.1,637.7,501.7,642.5,504.4z"/>
		<path class="st24" d="M1135.9,487.4c3.2-0.1,6.6-0.2,9.8-0.3c0.1,18,0.2,36,0.4,53.9c-8.9,15.4,2.8,39.4-27.1,46.1
			c3.9-30.6,7.9-61.1,11.8-91.7C1132.5,492.8,1134.2,490.2,1135.9,487.4z"/>
		<path class="st21" d="M1119,587.2c29.9-6.7,18.2-30.7,27.1-46.1c13.3,8.5,26.6,16.9,40,25.4c-10.3,5.2-20.5,10.4-30.8,15.7
			c-12.4,2.4-24.8,4.9-37.1,7.3C1117.5,588.3,1117.8,587.7,1119,587.2z"/>
		<path class="st15" d="M1102.8,603.8c-1.9,4.9-4,9.7-5.9,14.6c-2.5,1-5,2.1-7.5,3.1c-1.4-1.1-2.8-2.2-4.2-3.3c1.8-5,3.6-10,5.3-15
			c2.1-0.4,4-0.9,6-1.3C1098.7,602.5,1100.8,603.1,1102.8,603.8z"/>
		<path class="st13" d="M1102.8,603.8c-2.1-0.7-4.1-1.3-6.2-2c3.1-1.1,6.3-2.2,9.4-3.3C1105,600.3,1103.9,602,1102.8,603.8z"/>
		<path class="st15" d="M1068.7,632.7c-5.8,4.3-11.8,8.5-17.6,12.8C1047.5,632.3,1058.1,632.5,1068.7,632.7z"/>
		<path class="st15" d="M1087.2,625.3c-4.6,1.4-9.3,2.8-13.9,4.2c4-3.8,8-7.6,12-11.4c1.4,1.1,2.8,2.2,4.2,3.3
			C1088.7,622.8,1087.9,624,1087.2,625.3z"/>
		<path class="st26" d="M1087.2,625.3c0.8-1.3,1.5-2.5,2.3-3.9c2.5-1,5-2.1,7.5-3.1c4.5,0.6,10.9,2.8,13.1,1.1
			c5.1-3.9,8.2-9.6,13.4-16.1c9.7,8.4,22.6,12.6,2.8,23.1c-7.2,3.9-6.6,17.2-11.7,25.2c-3.1,4.7-7.8,16.4-18.8,4.3
			c-0.5-0.6-13.5,3.8-15,7.4c-8.3,19.9-30.8,19.6-48.8,25.9c12.5-14.5,25.2-28.8,37.7-43.2C1075.5,639.1,1081.3,632.3,1087.2,625.3z
			"/>
		<path class="st28" d="M1023.2,693.7c-1.8,4.2-3.6,8.4-5.4,12.6C1019.7,702.1,1021.4,697.9,1023.2,693.7z"/>
		<path class="st24" d="M1021.4,421c-5.8,5.5-11.7,11-17.4,16.5c-0.2-12.1-1.4-24.3-0.2-36.3c0.5-5.7,5.3-11.3,8.1-16.9
			c2.2,5.5,4.3,11,6.5,16.7C1019.4,407.6,1020.4,414.3,1021.4,421z"/>
		<path class="st24" d="M1003.6,442.8c1.9,1.4,3.8,2.9,5.7,4.4c-0.9,1.8-1.7,3.6-4.4,9.5C1004.1,449.5,1003.8,446.1,1003.6,442.8z"
			/>
		<path class="st18" d="M1065.1,912c-0.8,2.4-1.5,4.9-2.3,7.3c-13.2-7.8-26.2-15.7-39.4-23.5c6.4-5,15.3-8.9,18.8-15.1
			c17.3-30.9,20.5-62.8,5.7-95.2c1.4-0.4,2.8-1.1,4.1-1.8c6.5,2.5,13.1,5.1,19.5,7.5c-0.3,0.9-0.5,1.8-0.6,2.6
			c2.8,7.8,6.2,15.7,8.2,23.6c1.9,7.4,5.8,16.1,3,22.4c-6.9,15.6-18.6,29.6-25.2,45.1c-2.2,5,5.6,12.9,8.9,19.5
			C1065.7,907.1,1065.5,909.5,1065.1,912z"/>
		<path class="st20" d="M1021.4,421c-1-6.7-2.1-13.3-3-20.1c0.3-10.1,0.8-20.3,1.1-30.4c1.3-2.1,2.6-4.2,4-6.3c4.4,0,8.9,0,13.3,0
			c0.6,16.2,1.3,32.4,1.9,48.7C1039,424.7,1035,429.9,1021.4,421z"/>
		<path class="st21" d="M1023.3,364.2c-1.3,2.1-2.6,4.2-4,6.3C1020.8,368.4,1022,366.3,1023.3,364.2z"/>
		<path class="st17" d="M1180.6,805.1c-15.5,7.9-31.2,15.9-46.8,23.8c-4.1-5.6-8.3-11.3-12.5-16.9c-6.8,1.2-13.5,2.4-20.5,3.8
			c-1.6-8.1-2.8-14.7-4.2-21.6c-7.1-0.4-13.5-0.9-19.9-1.3l-0.3-1c1.9-8.1,3.8-16,5.7-24c1.4,0,2.8,0,4.2,0c3.5,0,6.8,0.1,10.1,0.1
			c8.7-0.2,18.2-9.4,26.3,1.8c0.3,0.6,8.2-2.9,12.6-4.3c4.9,0.8,9.7,1.4,14.5,2.2c20.6,10.5,22.8,18.6,8.4,37.6
			C1166.4,805.1,1173.4,805.1,1180.6,805.1z M1153.9,788.5c-0.2-1-0.3-2-0.8-2.9c-0.1-0.2-1.8-0.1-2.1,0.2c-0.6,0.9-1,2-1.3,3
			C1151.1,788.7,1152.5,788.6,1153.9,788.5z"/>
		<path class="st3" d="M1086.3,767.8c-1.4,0-2.8,0-4.2,0c-1.8-17.9-3.6-35.7-5.4-53.7c3.1,1.1,6.3,2.1,9.3,3.2
			c2.1,8.4,4.1,16.9,6.2,25.3c-0.3,1.5-0.5,3.1-0.9,4.6C1089.6,754.2,1088,761,1086.3,767.8z"/>
		<path class="st20" d="M1076.4,791.9l0.3,1c-0.8,0.6-1.4,1.1-2.2,1.7c-1.2-0.1-2.4-0.3-3.6-0.8c0.1-0.9,0.3-1.8,0.6-2.6
			C1073.3,791.1,1074.9,791.3,1076.4,791.9z"/>
		<path class="st21" d="M1065.9,464.5c-0.8,1.3-1.3,2.5-1.9,3.6c-1-0.7-2.1-1.3-2.7-2.2c-0.2-0.2,0.5-1.5,1-1.7
			C1063.3,464,1064.5,464.3,1065.9,464.5z"/>
		<path class="st2" d="M1213.4,542c-4.4,4.3-8.7,8.6-13.2,12.8c-1.7-2.6-3.5-5.2-5.1-7.8c5-10.1,9.9-20.4,14.9-30.6l-0.1,0.2
			c3.1,0.1,6.2,0.2,9.3,0.3c0.5,1.5,1,3.1,1.5,4.7C1218.2,528.4,1215.8,535.2,1213.4,542z"/>
		<path class="st24" d="M1210,516.4c-5,10.1-9.9,20.4-14.9,30.6c-0.2-3.5-0.3-7-0.5-10.5c0.2-4,0.4-8.1,0.6-12l-0.2,0.3
			c3.1-2.6,6.4-5.3,9.5-7.8C1206.3,516.7,1208.1,516.5,1210,516.4z"/>
		<path class="st2" d="M1179.5,520.3c1.8-2.6,3.7-5.3,5.6-7.9c0.1,6.7,0.1,13.6,0.2,20.3C1183.4,528.6,1181.4,524.4,1179.5,520.3z"
			/>
		<path class="st2" d="M1171.5,511.5c1,0.2,1.9,0.2,2.9,0.2c0.3,3,0.8,6,1.1,8.9C1174.1,517.5,1172.8,514.4,1171.5,511.5z"/>
		<path class="st14" d="M1195.1,524.4c-0.2,4-0.4,8.1-0.6,12c-1.8-1.3-3.7-2.6-5.4-4C1191.1,529.8,1193.1,527.1,1195.1,524.4z"/>
		<path class="st24" d="M1213.4,542c2.5-6.7,4.9-13.6,7.3-20.3c3.3,2.1,6.8,4.3,10.1,6.4C1225,532.7,1219.2,537.4,1213.4,542z"/>
		<path class="st14" d="M1204.4,516.9c-3.1,2.6-6.4,5.3-9.5,7.8c1.4-3.1,2.8-6.2,4.2-9.4C1200.9,515.9,1202.6,516.4,1204.4,516.9z"
			/>
		<path class="st16" d="M1185.3,512.1c1.5-2.6,3.1-5.3,4.6-7.9C1188.4,506.8,1186.8,509.5,1185.3,512.1z"/>
		<path class="st21" d="M1312.6,646.4c12.1,9.5,24.2,19,36.3,28.4c-61.5-1.3-116.6,19.3-172.8,36c-5.2-8.5-10.3-17-15.4-25.5
			c1.9-1.5,3.8-3,5.7-4.5c2.8-2.3,5.6-4.7,8.4-7.1c13.3-3.6,26.6-7.3,40.9-11.3c-0.8,2.5-1.9,6.4-4.2,13.8
			c16.8-2.5,32.1-4.9,47.4-7.1c1.8,1.8,3.7,3.5,5.4,5.3c0.5-0.4,1-1,1.5-1.4c-2.2-1.3-4.4-2.8-6.6-4.1c0.3-2.5,0.5-5.1,0.9-7.6
			c2.9-1.4,5.9-2.9,9-4.2c5-2.4,9.9-5,14.9-7.4c4.9-1.8,9.7-3.4,14.5-5.2C1303.2,644.9,1307.9,645.6,1312.6,646.4z"/>
		<path class="st21" d="M1234.5,743.8c-9.9,7.2-18.6,17.2-30,20.5c-7.7,2.2-19.2-5.5-29-8.7c0-1.5-0.1-3-0.1-4.5
			c-3.8-16.5,5.6-26.4,24.1-29.7c17.6-3.1,35.7-4.4,53.6-6.5c0.4,1.8,0.9,3.5,1.4,5.4c-11.7,2.4-23.2,4.9-36,7.5
			C1223.4,732.9,1228.9,738.3,1234.5,743.8z"/>
		<path class="st24" d="M1091.4,747.3c0.3-1.5,0.5-3.1,0.9-4.6c1.3-7.9,2.7-15.9,4-23.9c6.7,1.3,13.4,2.5,20.1,3.9
			c6.5,2.8,13,5.4,19.4,8.2c25.1,3.1-2.2,15.2,5.3,21.3c-1.8,4.4-3.7,8.9-5.6,13.3c-4.4,1.5-12.2,4.9-12.6,4.4
			c-8.1-11.1-17.6-2-26.3-1.8C1094.8,761.1,1093.1,754.2,1091.4,747.3z M1121,753.5c0.9-1.8,1.7-3.5,2.5-5.3c-4.1-1-8.1-2-12.2-3
			c-0.5,1.3-1.1,2.6-1.6,4.1C1113.4,750.6,1117.2,752.1,1121,753.5z"/>
		<path class="st21" d="M1397.2,704.8c-6.6,3.2-13.1,6.4-19.7,9.6c-33.5,0-66.9,0-100.4,0c-0.1-2.4-0.3-4.9-0.4-7.3
			C1316.8,706.4,1357,705.6,1397.2,704.8z"/>
		<path class="st21" d="M1141,751.9c-7.5-6.1,19.8-18.2-5.3-21.3c8.4-7,16.8-13.9,25.3-20.7c3.6,0.6,7.1,1.2,10.8,1.8
			C1162.2,725.5,1163.9,745.3,1141,751.9z"/>
		<path class="st17" d="M1171.7,711.7c-3.6-0.6-7.1-1.2-10.8-1.8c-3.2-7.8-6.6-15.7-9.8-23.6c3.2-0.4,6.4-0.8,9.6-1.2
			c5.2,8.5,10.3,17,15.4,25.5C1174.7,711.1,1173.2,711.5,1171.7,711.7z"/>
		<path class="st17" d="M1175.3,751.1c0,1.5,0.1,3,0.1,4.5c-6.3,1.3-12.4,2.8-18.7,4.1C1163,756.8,1169.1,753.9,1175.3,751.1z"/>
		<path class="st24" d="M1298.5,644.3c-4.9,1.8-9.7,3.4-14.5,5.2C1288.8,647.7,1293.6,646,1298.5,644.3z"/>
		<path class="st24" d="M1269,656.9c-3,1.4-5.9,2.9-9,4.2C1263.1,659.7,1266.1,658.3,1269,656.9z"/>
		<path class="st3" d="M1174.9,673.5c-2.8,2.3-5.6,4.7-8.4,7.1C1169.3,678.3,1172.1,675.9,1174.9,673.5z"/>
		<path class="st26" d="M1096.2,718.7c-1.3,7.9-2.7,15.9-4,23.9c-2.1-8.4-4.1-16.9-6.2-25.3C1089.4,717.9,1092.8,718.3,1096.2,718.7
			z"/>
		<path class="st25" d="M1065.1,912c0.2-2.4,0.5-5,0.8-7.4c11.7-17.7,11-42.3,40.1-50.1c7.8,1.4,15.9,4.6,23.3,3.9
			c36.5-3.9,72.9-8.8,109.4-13.5c5.4-0.8,10.8-1.4,16.1-2.2c1.4,0,2.9,0,4.3,0c14.7-1.7,29.4-3.3,43.9-5c-0.1,8.9,4,22-1.4,25.9
			c-7.2,5.3-22.5,6.3-33.1,4.5c-15-2.5-23.3-1.5-36,8.3c-12.1,9.4-33.3,11.5-51,14.9C1143.1,898.8,1104,905.2,1065.1,912z"/>
		<path class="st17" d="M1456.2,838.2c3.1,0.1,6.4,0.1,9.5,0.2C1462.6,838.4,1459.5,838.3,1456.2,838.2z"/>
		<path class="st20" d="M1238.7,844.9c-36.4,4.5-72.8,9.5-109.4,13.5c-7.5,0.8-15.5-2.4-23.3-3.9c-10.5-20-20.9-39.9-31.4-59.8
			c0.6-0.6,1.4-1.2,2.2-1.7c6.4,0.4,12.6,0.9,19.9,1.3c1.4,7.1,2.6,13.6,4.2,21.6c7-1.2,13.7-2.5,20.5-3.8
			c4.2,5.6,8.4,11.3,12.5,16.9c3.8,22.5,28.3,17.8,38.4,13.2C1196.9,831.4,1216.9,839.3,1238.7,844.9z"/>
		<path class="st20" d="M1259.2,842.7c-1.4,0-2.9,0-4.3,0C1256.3,841.8,1257.7,841.8,1259.2,842.7z"/>
		<path class="st23" d="M1074.5,794.6c10.5,20,20.9,39.9,31.4,59.8c-29,7.9-28.5,32.4-40.1,50.1c-3.2-6.6-11-14.6-8.9-19.5
			c6.6-15.6,18.4-29.7,25.2-45.1c2.8-6.3-1.2-15-3-22.4c-2.1-7.9-5.4-15.8-8.2-23.6C1072.2,794.3,1073.3,794.5,1074.5,794.6z"/>
		<path class="st21" d="M1091.4,747.3c1.7,6.8,3.5,13.8,5.1,20.6c-3.3,0-6.8-0.1-10.1-0.1C1088,761,1089.6,754.2,1091.4,747.3z"/>
		<path class="st20" d="M1153.9,788.5c-1.4,0.1-2.8,0.2-4.2,0.3c0.4-1,0.6-2.1,1.3-3c0.2-0.3,1.9-0.3,2.1-0.2
			C1153.6,786.5,1153.7,787.5,1153.9,788.5z"/>
		<path class="st26" d="M1259.3,668.8c2.2,1.3,4.4,2.8,6.6,4.1c-0.5,0.4-1,1-1.5,1.4c-1.8-1.8-3.7-3.5-5.4-5.3
			C1259,669,1259.3,668.8,1259.3,668.8z"/>
		<path class="st17" d="M1121,753.5c-3.8-1.4-7.5-2.9-11.2-4.3c0.5-1.3,1.1-2.6,1.6-4.1c4.1,1,8.1,2,12.2,3
			C1122.6,750,1121.7,751.7,1121,753.5z"/>
	</g>
</g>
</svg>
