<svg xmlns="http://www.w3.org/2000/svg" xmlns:xlink="http://www.w3.org/1999/xlink" xml:space="preserve" id="Ebene_1" x="0" y="0" viewBox="0 0 1920 1080"><style>.st1{fill:#955190}.st2{fill:#657482}.st3{fill:#4e6170}.st4{fill:#b9bde2}.st5{fill:#9ab8de}.st7{fill:#d599d2}.st8{fill:#95a9b8}.st9{fill:#c6a0c5}.st10{fill:#9bb0d1}.st11{fill:#ca47bb}.st12{fill:#d255ca}.st13{fill:#de77d3}.st14{fill:#8d8b8d}.st15{fill:#b65f96}.st16{fill:#826d70}.st17{fill:#52525a}.st18{fill:#c3796a}.st19{fill:#9a9d9e}.st20{fill:#605268}.st21{fill:#38364f}.st22{fill:#8197a4}.st23{fill:#f39777}.st24{fill:#2e2f3a}.st25{fill:#eeb8a9}.st26{fill:#0f1c27}.st27{fill:#aab1af}.st28{fill:#b5bdc4}.st29{fill:#d45548}</style><image xlink:href="2EB0A351.jpg" width="421" height="289" style="overflow:visible" transform="translate(-7232 -7652)"/><path d="M66.9 1130.8H-76V-60.7h2073.2v1191.5h-161.7c14.1-5 28.2-10.4 42.4-14.9 55.7-17.9 98-75.6 91.2-125 0-23.5.1-46.9.1-70.4-.2-11.5-.5-22.8-.8-34.3v-6.6c.1-15.2.2-30.3.4-45.6 0-23.4.1-46.8.1-70.2 0-6.8-.1-13.6-.1-20.4 0-2.8-.1-5.4-.1-8.2V726c0-3.8.1-7.6.1-11.4.1-12.5.1-24.8.2-37.3.1-69 .1-137.9.2-207 .3-50.7 1-101.6.9-152.4-.2-68.6-1-137.2-1.4-205.9 0-17.1 0-34.3.1-51.4v-.1c-12.3-54.8-47.5-96-113.4-108.2-44.4-8.3-91.8-4.9-137.9-6.6h-137.8c-78.9 0-157.9.1-236.8.1-72.2-.1-144.5-.1-216.7-.2-56-.1-112.2-.2-168.2-.4-5.4-.1-10.8-.1-16.1-.2l-1.8 1.1-178.8.3c-46.3.2-92.5.6-138.8.8l-40.5-.6c-12.4-.1-24.7-.3-37.1-.4-3.6-.1-7-.1-10.6-.2h-88.2c-42.7-.1-85.3-.3-128-.4-44.4 0-88.8.1-133.1.3-17.1-.6-34.2-2.9-51-1.4-32.6 2.9-64.9 7.7-97.3 11.8-60.9 20.2-98.1 66.4-98.2 124-.2 82.4 0 164.8.4 247.3.1 22 1.6 43.8 2.5 65.8-.6 58.9-1.3 117.7-1.9 176.6.1 20.6.1 41.3.2 61.9v123.7c-.1 34.4-.3 69-.4 103.4l-.3 48.9c.1 13.7.1 27.2.2 40.9v25.3c.1 8.5.2 17.1.2 25.6 0 2.3 0 4.5-.1 6.8.1 1.7.3 3.4.4 5.1 1.2 5.1 2.5 10.1 3.7 15.3 1.3 2.5 2.6 5.1 3.8 7.5l-1 .7.4 1c3.2 7.1 6.5 14.1 9.7 21.2 3 4.1 6 8.2 9.2 12.2 18.5 25.3 45.6 41.3 78.3 51.5 8.1 2.6 15.4 6.5 23.1 9.8" style="fill:#3554f2"/><path d="M1969.2 990.9c6.8 49.4-35.4 107.1-91.2 125-14.4 4.6-28.3 9.9-42.4 14.9h-310.3c0-1.2-.2-2.4-.4-3.6 5.8-3.2 17.1-9 16.8-9.3-15-21.2-1.3-41.3 2.9-61.6 6.7-11.1 25.1-22.4-.5-33.2 5.4-4.1 10.9-8.2 16.3-12.2 9-1.2 17.9-3.6 26.7-3.3 28.2 1.1 56.4 5.7 84.3 4.3 31.4-1.7 62.3-10 93.8-12.6 52.6-4.2 105.6-4.7 158.1-9.8 16-1.6 30.7-6.5 45.9 1.4" class="st1"/><path d="M-34.3 1069.6c-3-4.1-6-8.2-9.1-12.2 18.6-.6 37.1-2.3 55.6-1.2 64.2 3.8 128.4 8.5 192.6 12.9 4.5 1.3 9.2 3.8 13.7 3.8 74.2.9 145 17.7 216.4 31.8 23.2 4.6 46.8 3.9 63.9-12.1 14.4-13.2 31.1-16.7 50.9-14.8 7.7 2.6 15.1 6.8 23 7.5 17 1.2 34 .6 51.1.7-16.7 7.2-34 13.5-49.9 21.8-9.6 5.1-26 8.1-19.3 23.3H337.8c-25.7-7.7-51-17-77.3-22.9-36.6-8.4-74.1-14.3-111-21.4-15-2.9-29.7-7.8-44.8-8.9-46.2-3.9-92.7-5.9-139-8.3" class="st2"/><path d="M-34.3 1069.6c46.3 2.5 92.8 4.5 139 7.8 15.1 1.1 29.8 6.1 44.8 8.9 37 7.2 74.4 13.1 111 21.4 26.3 6.1 51.6 15.2 77.3 22.9H66.9c-7.7-3.3-15-7.2-23-9.7-32.6-10.2-59.7-26.1-78.2-51.3" class="st3"/><path d="M941.9-54.8c5.4.1 10.8.1 16.1.2 0 68-.1 135.9-.1 203.8-1.3 7.2-2.9 14.3-3.8 21.5-3 24.7 12.7 49.3.5 74q-.45 1.95.3 3.9c.4 3.2.9 6.5 1.3 9.7l-.6 78.9c.2 3.9.3 7.6.5 11.5.4 21.3.9 42.6 1.3 64 .2 18.1.4 36.3.5 54.4.2 18 .3 36 .5 53.9-.6 6-1.4 12-2.1 18 0 9.6-.1 19.3-.1 28.9-.1 16.5-.3 33-.4 49.5.2 6.2.5 12.4.8 18.5.5 19.9 1.2 39.6 1.7 59.5-1 23.8-1.8 47.7-2.8 71.5.3 2.4.6 4.7.9 7.2-.2 5.7-.3 11.5-.5 17.1 1.1 13 2.1 26 3.1 39.1-.2 12.1-.5 24.3-.8 36.5-.8 3.2-1.5 6.3-2.3 9.5 0 21.1 0 42.1.1 63.3-.8 26.1-2.3 52.4-2.2 78.5 0 12 3.1 23.9 4.9 35.9-1.1 13.6-2.2 27-3.3 40.6-.6 12.1-1.3 24.2-1.8 36.3h-5c-1.4-1.5-2.8-3.1-4.1-4.6-.1-6.5-.3-13.1-.4-19.6-.1-3.1-.2-6.3-.3-9.4.4-.9.3-1.9-.1-2.8.2-6.4.4-12.8.8-19.2v-.3l-1.2-5.1c-.2-5.6-.3-11.1-.5-16.8 1-5.1 2.1-10.3 3-15.3-.8-28.6-1.5-57.3-2.2-85.8 0-3.9.1-7.7.1-11.6.5-10.4 1.1-20.7 1.6-31.1-.5-14-1.2-28.1-1.7-42.1-.1-12.7-.1-25.3-.2-38-.3-4.1-.6-8.3-1.1-12.4 1.6-10.6 3.1-21.3 4.8-31.9-1.1-17.2-2.2-34.4-3.2-51.6-.1-9.4-.3-18.9-.4-28.2.6-10.7 1.3-21.4 1.8-32.1-.3-2.9-.6-5.7-1-8.5l.6-69.5c0-49.6-.1-99.2-.1-148.8l-.3-103.1v-61.3l.3-8.4v-56.7c-.3-21.3-.6-42.5-1.1-63.8.1-3.8.2-7.5.2-11.3 1.2-6.7 3.6-13.3 3.5-20.1-.8-34.8-2.3-69.4-3.5-104.1l1.3-1.7-1.3-1.7c-.4-7.2-1-14.3-1.4-21.5 0-14.2.1-28.6.1-42.8-.3-1.5-.5-3.1-.7-4.5" class="st4"/><path d="M554.6 1130.8c-6.7-15.2 9.7-18.2 19.3-23.3 15.9-8.4 33.1-14.7 49.9-21.8 11.6.1 23.1.1 34.6.2 6.7 3.3 13 8.5 20.1 9.6 27.1 4.3 54.9 6.1 81.7 11 28.7 5.3 56.8 13.2 85.2 20-21.4 1.4-42.8 2.9-64.1 4.3zm399 0c.6-12.1 1.3-24.2 1.8-36.3 10.8-1.9 21.7-3.1 32.2-5.6 15-3.5 29.8-7.9 44.6-11.9 0 4.2.1 8.4.1 12.6-7.3 11.4-14.7 22.8-22.5 34.8 0 0 2.1 1.7 4 1.7 32.4.2 64.7.2 97.1.3 77.3.3 154.7.8 232 1.1-.1 1.2-.2 2.3-.3 3.5-129.5-.2-259.2-.2-389-.2" class="st3"/><path d="M1342.8 1130.8c.1-1.2.2-2.3.3-3.5 60.5-.1 121-.1 181.5-.1.2 1.2.3 2.4.4 3.6zm-561.6 0c21.4-1.4 42.8-2.9 64.1-4.3l99.1-.3c1.4 1.5 2.8 3.1 4.1 4.6z" class="st2"/><path d="M957.9 149.2c0-68 .1-135.9.1-203.8 56 .1 112.2.2 168.2.4-2.8 6.3-5.2 12.7-8.4 18.8-8 14.9-4.2 28.5 12.8 34.8 25.7 9.4 53 15.6 79.4 22.9 5.5 7.3 9.5 17.4 17.8 22.5 34.3 21.2 54.6 50.5 70.9 82.1 5.5 10.6 5.6 23.8 5.3 35.9-.8 38.9-7.8 78.4 23.8 112.7 13.9 15.1 26.3 31.3 39.4 47-40.5 3.8-40.8 6.5-51 39.2-6 19.6-21.3 37.3-32.4 55.8-.2-8.8-.1-17.5-.6-26.4-1.9-30.3-27.6-56.7-62.6-64.4-16.5-11.8-34.1-20.9-57.2-15.3-13.5-5.1-27.1-10-40.6-15.1-21.8-10.4-43.5-20.7-65.3-31-4.6-3-9.2-6.1-13.8-9-9.1-21.7-18.5-43.2-27.2-65.1-9.5-24.3-27.9-39.1-58.6-42" class="st5"/><path d="M1343.1-54.1c78.9 0 157.9-.1 236.8-.1l54.3 56.4c-19.8 15-29.5 32.5-18.1 54.5 11.3 22 33.5 27.7 59.9 26.8 8.9-.3 17.8.4 26.7.8 4.6 29.7 26 50.5 51.9 69.2 5.5 4 14.6 8.5 14.7 12.9.4 19.9 13 25.7 37.5 22.5-2.4 8.3-1.7 16.1-5.9 19.1-33.5 24.3-9.8 50.2-4.5 75.7 2.3 11.1 4.6 22.3 5.3 33.5.8 14.3-3 29.2.4 43.1 4.4 18.2-1 32.1-15.7 44.8-6.5-4.1-15.2-7.1-18.9-12.6-13.5-20.1-24.1-41.7-38.3-61.3-8.5-11.7-20.4-22.5-33.5-30.8-19.2-12.1-32.9-7.5-41.6 10.9-2.2 4.5-4.9 8.7-7.3 13.1-5.1-6.3-4.8-11.1-4.1-16.1 2.1-14.1-8.1-23.2-22.2-21.4-43.4 5.5-88.1 9.6-128.8 22.3-46.5 14.5-50.1 31.3-28.6 68 9.4 15.9 12.4 31.4-6.3 44.7-17.6-17.2-34.1-17-55.2-1.9-29.9 21.4-62.6 39.9-94.2 59.7-6.7-7.7-13.5-15.6-20.2-23.3 23.9-27.7 46-56.6 72.2-82.5 16.2-16 31-29.5 17.7-51.3 29.6-14.6 62.6-22.1 88.5-44.8 27.3-23.9 67.8-36.7 93.3-64.1 6.4-6.8 13-13.7 19.3-20.5-8.9-5-17.7-10-26.7-15-2.5-1.3-5.2-2.2-9.8-4.2 26.2-18.4-.6-25.8-10.1-38.2 6.3-8.6 11.4-18 19-25.8 11.4-11.8 7.5-18.2-8.2-22.3-25.2-6.6-41.7-19.5-50.5-41-3.6-8.7-15.4-15.2-24.3-22-7.8-6-17.3-10.4-24.9-16.4-28-22.1-51.3-50-95.5-51.4-1.4-.3-2.7-7.2-4.1-11" style="fill:#bca8d4"/><path d="M1456.7 421.8c18.8-13.2 15.7-28.8 6.3-44.8-21.5-36.6-17.9-53.5 28.6-68 40.7-12.7 85.4-16.7 128.8-22.3 14.1-1.8 24.3 7.3 22.2 21.4-.6 4.9-1.1 9.8 4.1 16.1 2.5-4.4 5.3-8.6 7.3-13.1 8.6-18.4 22.4-23.1 41.6-10.9 13.1 8.3 24.9 19.1 33.5 30.8 14.3 19.6 24.8 41.3 38.3 61.3 3.7 5.4 12.4 8.4 18.9 12.6 24.8 14.5 39.4 40.7 73.5 44.8 4 .4 7.5 5.1 10.8 8.1 19.9 17.9 39.2 36.1 59.7 53.4 4.6 4 15.5 7.7 20 5.7 6.2-2.8 10.6-10.5 12.8-16.8 3.5-9.5 4.3-19.6 6.4-29.5-.1 69-.1 137.9-.2 207-3.3-8.8-6.7-17.8-9.9-26.4-64.5 5.3-111.8-21.6-160.7-51.2 8.9-7.9 13.8-12.4 18.9-16.9-38.4 11.8-66.3-7.1-89.4-24-67.8-50-147.3-80.9-231.9-101.8-26.8-6.6-37.5-15-39.6-35.5" class="st7"/><path d="M1343.1-54.1c1.4 3.8 2.7 10.7 4.3 10.8 44.2 1.4 67.5 29.3 95.5 51.4 7.7 6.1 17.2 10.5 24.9 16.4 8.9 6.8 20.7 13.3 24.3 22 8.9 21.6 25.5 34.5 50.5 41 15.7 4.1 19.7 10.5 8.2 22.3-7.6 7.8-12.7 17.2-19 25.8 9.5 12.4 36.4 19.7 10.1 38.2 4.6 2 7.5 2.9 9.8 4.2 9 5 17.7 9.9 26.7 15-6.5 6.8-13 13.7-19.3 20.5-25.5 27.4-66 40.2-93.3 64.1-25.9 22.7-59 30.2-88.5 44.8-3.2 0-6.5-.1-9.7-.1-13.1-15.7-25.4-31.9-39.4-47-31.6-34.3-24.5-73.8-23.8-112.7.2-12 .2-25.2-5.3-35.9-16.3-31.4-36.7-60.9-70.9-82.1-8.3-5.1-12.2-15.2-17.8-22.5-26.2-7.4-53.7-13.6-79.4-22.9-17.1-6.3-20.8-19.9-12.8-34.8 3.2-6.1 5.6-12.5 8.4-18.8 72 .2 144.2.2 216.5.3" class="st4"/><path d="M622.5-52.6c46.2-.2 92.4-.6 138.6-.9-3.5 6.1-7.1 12.1-10.4 18.3C726.8 11.5 665.3 25.9 630 64c-24.5 26.4-42.9 52.1-46 85.1-31.9 13-63.9 25.9-66.4 61.2-.1 1.3-1.2 2.5-1.9 3.8-24.7 46.1-48.6 92-81.3 135.3-37.8 49.9-64.8 105.5-96.5 158.6-8.1 6-20.4 10.7-23.4 18.2-8.6 21.2-25.1 32.2-50.4 35.4 4.2-10.8 8.5-21.7 13.7-35.1-9.7-.8-16.6-1.4-23.6-2 4.4-10.8 8.3-21.8 13.5-32.4 13.6-27.6 27.9-54.9 41.7-82.4 6.2-12.4 1-21.6-9.7-31.2-26.6-23.6-27.5-35.3-2.7-60.6 20.3-20.6 36.6-41.9 36.4-69.6-.1-8.3-2.3-16.4-3.6-24.7-9.3 2-18.5 4.2-27.8 5.8-6.7 1.2-15.7 4.1-20 1.7-3.8-2.1-5.7-12.4-2.9-15.9 13.4-17.1 28.6-33.2 43.2-49.6 8.5 9 16.4 21.3 33.3 12.8 29-14.6 57.3-30.4 85.9-45.8 6.6-4.1 13.2-8.1 19.8-12.1l.1-.1c37.7-12.4 65.7-34.6 88.9-61.4 2.1-2.4-2.3-8.8-3.7-13.3 6.2-5.3 12.2-10.7 18.4-16 9.6-16.9 19.3-33.8 28.9-50.6 9.5-10.4 19.1-21 28.6-31.7" class="st8"/><path d="M1969.4 470.5c-1.9 9.8-2.9 20-6.4 29.5-2.3 6.3-6.7 14-12.8 16.8-4.3 2-15.2-1.8-20-5.7-20.5-17.2-39.8-35.5-59.7-53.4-3.3-3-6.8-7.5-10.8-8.1-34.1-4.1-48.7-30.3-73.5-44.8 14.7-12.6 20.1-26.5 15.7-44.8-3.3-13.8.4-28.7-.4-43.1-.6-11.3-3-22.4-5.3-33.5-5.3-25.5-28.9-51.4 4.5-75.7 4.2-3.1 3.6-10.9 5.9-19.1-24.5 3.2-37-2.8-37.5-22.5-.1-4.4-9.2-8.9-14.7-12.9-25.9-18.5-47.3-39.4-51.9-69.2 43.2-.2 86.3-1.1 129.5-.4 21.7.3 40.2-4 55-17.5 16 10.1 31.7 20.7 48.3 30.2 10.6 6.1 22.5 10.7 33.7 15.9.5 68.6 1.3 137.2 1.4 205.9 0 50.9-.6 101.7-1 152.4" class="st9"/><path d="M584.1 149.2c3.1-33.1 21.5-58.7 46-85.1C665.4 26 727 11.6 750.9-35.1c3.1-6.2 6.9-12.2 10.4-18.3 59.6-.1 119.2-.2 178.8-.4.8 1.1 1.6 2.3 2.4 3.4 0 14.2-.1 28.6-.1 42.8-6.9 1.9-14.9 2.6-20.6 6-45.7 26.3-91 53.1-136.5 79.7-12.4 7.3-29 12.5-36.5 22.3-20.2 26.9-24.4 58.4-20 89.1 4.2 28.8 14.1 56.9 21.6 85.8 34.1.3 69.4-27.6 78.9-65.4 7.5-29.3 29.9-47.3 60.6-59.9-7.6 7.8-17.9 14.9-22 23.8-12.1 26.5-23.4 53.4-32 80.9-7.3 23.6-6.4 49.3-30.1 67.7-5.6-.8-11.1-1.7-16.7-2.1-57.6-5.5-116.4-24.5-170.3 10.8-34.6 5.2-44.5 16.1-44.5 49.2-2.9-7.7-9.8-16.1-7.9-22.9 2.8-10.1 10.1-20.4 18.6-28.2 14.5-13.6 15-26 3.3-40.6-12.4-15.6-12.1-31.8-8.6-50.6 5.4-29.3 3.3-59.3 4.4-88.8" class="st10"/><path d="M1968.6 879.5v6.6c-54.5.6-109.1 1.1-163.7 1.7-53.8 0-107.5.2-161.3-.4-10-.1-21.8-1.7-29.6-6.3-17.7-10.5-33.4-23.3-49.9-35.1-11.9-41.4-39.8-72.8-83.3-94.8-1.6-1.3-3.2-2.8-4.9-4.1l-.1-.1c-3.5-4.1-6.9-8.3-10.4-12.4-.8-6-1.5-12-2.4-18l-17.1-14.7c-3.6-5.4-7.2-10.9-10.8-16.3 2.4-6.4 3.9-13.1 7.2-19.1 2.5-4.4 7.6-11.5 11.2-11.4 15.5.6 33.1.1 46.1 6 21.8 9.7 40.4 12.7 64.8 5.1 27-8.4 57.3-15.7 78.9 11.8 2.8 3.5 11.3 3.8 17 5.8 8.4 3.2 16.8 6.3 24.8 10 10.7 5.1 21.1 10.6 31.5 16 1.6-1.8 3.2-3.4 4.9-5.2 1.9 2.9 4 5.7 5.9 8.7 21.5 33.3 64.9 42.4 105.9 24.5 30.4-13.2 62.3-18.4 95.3-2 11.1 5.5 26.6 5 40 7.2 0 6.8.1 13.6.1 20.4-13.9-3.1-28-6.1-41.9-9.5-28.3-6.8-42.7-1-55.2 21.3-3.2 5.8-10.4 10-14.7 15.6-4.4 5.6-7.6 12-11.2 18-6.4.4-13.6-.6-19 1.7-13 5.3-31.2 9.5-36.5 18.6-12.4 21.3-54 36.1-68.1 28-37.6 5.1-67.5 9.2-97.3 13.2 0 .6 0 1.1.1 1.7 114.8 2.8 229.2 5.2 343.7 7.5" class="st11"/><path d="M1969 743.3c-13.5-2.2-28.9-1.7-40-7.2-33-16.5-64.9-11.3-95.3 2-41 17.9-84.5 8.7-105.9-24.5-1.9-3-4-5.8-5.9-8.7-1.6 1.8-3.2 3.4-4.9 5.2-10.5-5.4-20.8-10.9-31.5-16-8-3.8-16.4-7-24.8-10-5.6-2.1-14.1-2.3-17-5.8-21.6-27.5-51.9-20.2-78.9-11.8-24.4 7.5-43 4.6-64.8-5.1-13.1-5.8-30.6-5.4-46.1-6-3.7-.1-8.7 6.8-11.2 11.4-3.3 6-5 12.7-7.2 19.1-8.7-11.1-17.5-22.4-26.2-33.5l-7.5-20.4c-1.3-1.8-2.5-3.5-3.8-5.3-.1-1.3-1-2.4-2.4-3.1l-3.6-3.3-.5-.6c-1.4-1.1-2.8-2.1-4.1-3.2-1.9-1.7-4-3.4-5.9-5.1 10-21.3-13.1-28.5-24.6-40.6-1.6-4-3.1-8.1-4.8-12-1.7-3.6-3.3-7.3-5.1-10.9 7.5-45.5 51.5-56.7 96.7-73.9 9.9 22.3 18.8 42.3 29.7 66.7 40.6-14.2 76.1 17.7 119.2 25.2 42.5 7.4 86.8 32.8 116.3 60.8 29.7 28.2 58.1 50.6 101.6 58.8 52.9 9.9 105.8 19.7 158.7 29.6 0 3.8-.1 7.6-.1 11.4v9.2c-.2 2.2-.2 5-.1 7.6" class="st12"/><path d="M1969 714.8c-52.9-9.8-105.8-19.6-158.7-29.6-43.5-8.2-71.9-30.6-101.6-58.8-29.4-27.9-73.7-53.3-116.3-60.8-43.1-7.5-78.6-39.4-119.2-25.2-10.9-24.5-19.9-44.5-29.7-66.7-45.1 17.2-89.3 28.5-96.7 73.9-13.2-22.7-26.3-45.5-39.5-68.1 31.5-19.7 64.2-38.4 94.2-59.7 21.2-15.1 37.6-15.2 55.2 1.9 2.3 20.5 13 28.9 39.5 35.5 84.7 21 164.1 51.9 231.9 101.8 23.1 17 51 35.9 89.4 24-5 4.4-10 8.9-18.9 16.9 48.9 29.5 96.2 56.5 160.7 51.2 3.2 8.6 6.6 17.5 9.9 26.4 0 12.4-.1 24.8-.2 37.3" class="st13"/><path d="M-60.6 999.6c-.1-8.5-.2-17.1-.2-25.6 45.9-9.7 91.8-19.5 137.7-29.2 35.6-6.1 72.1-10 106.7-19 25.9-6.7 49.5-19.9 73.9-30.4 3.9-1.7 9.6-5.2 9.4-7.6-.3-4.1-3.6-9.5-7.6-11.6-6-3.1-13.9-3.2-20.7-5.4-22.7-7.3-50.4-10.4-66.6-23.4-34.4-27.7-64.9-59.5-93-92-13.7-15.9-20.8-36.7-26.2-56.3-12.6-45.2-1.8-89.6 14-133 13.2-22.9 25.4-46.3 39.6-68.8 10.3-16.2 23.1-31.2 34.9-46.8 3.5-1.3 6.8-2.5 10.3-3.9-7.9 24.8-15.2 49.8-23.9 74.4-2.5 7.1-9.3 12.9-13 19.7-14.4 26.8 11.7 34.6 31.2 45.5-1.6 12.5-3.1 24.9-4.8 37.4-3.3 10.6-6.5 21.2-9.9 31.7-9.2 27.7.2 48.1 32.1 60.9 6.2 2.4 13.8 7.7 15 12.6 7.9 34.4 36.5 56.7 63.3 80.6 8.5 7.6 15 17.7 19.3 27.6 10.1 23.6 24.6 33.3 53.9 34.1 9 .2 18.8-.6 26.6 2.3 7.7 2.9 13.4 9.6 19.9 14.7-6.8 3.9-13.2 9.8-20.6 11.3-42.7 8.3-86.2 13.8-124.6 33.2-19.9 10-40.3 19.3-60.5 28.9-13.2 6.7-26.3 13.5-39.5 20.2-16.3 1.7-35.2-2.1-43.9 15-19.3-.2-38.8-.9-58.1-.4-25.1.6-49.9 2.2-74.7 3.3" class="st14"/><path d="M1564.1 846.1c16.5 11.8 32.2 24.6 49.9 35.1 7.8 4.6 19.5 6.2 29.6 6.3 53.8.7 107.5.3 161.3.4 15.1 10.4 29 27.7 45.6 29.8 38.9 4.9 79.1 2.4 118.8 2.9 0 23.5-.1 46.9-.1 70.4-15.1-7.9-29.9-3-46-1.4-52.5 5-105.5 5.5-158.1 9.8-31.4 2.5-62.3 10.9-93.8 12.6-27.9 1.4-56.1-3.2-84.3-4.3-8.9-.3-17.8 2.1-26.8 3.3 2.9-8.2 5.9-16.3 8.9-24.5 31.2-2.9 37.6-7.8 38.3-30.4-7.1-6.7-13.3-14.5-21.6-19.9-6.3-4.1-15.2-5.4-22.9-7.8 8.7-2.3 17.4-4.6 26.1-6.8l18.9-18.9c-7-4.9-13.4-10.6-21.3-14.2-16.7-7.7-34.1-14.3-51.3-21.4-1.2-6.8 18.1-14.3-1.1-20.5 3.3-.8 6.7-1.5 9.9-2.3 6.8.3 13.4 1.1 20 1.8" class="st15"/><path d="M66.7 566.1c-15.9 43.6-26.7 87.8-14 133 5.4 19.5 12.6 40.4 26.2 56.3 28 32.5 58.5 64.3 93 92 16.2 13 43.9 16.1 66.6 23.4 6.8 2.2 14.8 2.3 20.7 5.4 4 2 7.2 7.5 7.6 11.6.2 2.4-5.5 5.8-9.4 7.6-24.4 10.6-47.9 23.7-73.9 30.4-34.6 8.9-71 12.9-106.7 19-.2-5.3-.4-10.6-.8-15.8 7.7-3.8 14.8-8.6 23-10.9 19.9-5.7 40.6-9.3 60-15.8 7.8-2.5 13.2-10.4 19.5-15.9-6.6-3.9-12.6-9.3-20-11.4-22.2-6.5-45.5-10.9-67.5-18-9.3-3-18.4-9.3-24.4-16-17.3-19.6-31.6-41.1-49.9-60.1C9 773-5.7 769.6-17.1 764.2l-43.5-8.7V631.8c7.1-4.7 14.9-8.9 21.3-14.3 6.5-5.6 11.6-12.4 17.3-18.6 18 8.1 28.4-4.5 41.1-10.7 15.9-7.7 31.8-14.9 47.6-22.1" class="st16"/><path d="M-60.5 570c.6-58.9 1.3-117.7 1.9-176.6 5.9-6.1 15.2-11.4 17.2-18.2 12.5-44.2 23.6-88.8 34.9-133.4 2.4-9.3 5.5-19.1 4-28.1-4.3-24.8 6.5-40.5 34.9-48 19.8-2.8 39.4-5.4 59.2-8.2-5.9 28.1-11.9 56.3-17.9 84.4C66.5 275 58.1 308 53 341.3c-1.6 10.7 9.6 22.8 7.7 33.3-5.5 29.3-14.6 58.1-22.8 87-9 32-30.6 58.2-54.7 83.3-14.7 8.6-29.3 16.9-43.7 25.1" class="st3"/><path d="M32.3 165.7c-28.4 7.4-39.3 23.2-34.9 48 1.6 9-1.6 18.9-4 28.1-11.2 44.6-22.4 89.1-35 133.4-1.9 6.8-11.2 12.1-17.2 18.2-.9-22-2.4-43.8-2.6-65.8-.4-82.4-.6-164.8-.4-247.3.2-57.6 37.3-103.8 98.4-123.9L34.2-5.8C33.7.6 33.3 7.1 33 13.5c-15 24.4-8.4 45.3 14.5 63.8-14.1 28.3-25.5 57.1-15.2 88.4" class="st17"/><path d="M-60.6 999.6c24.8-1.2 49.7-2.8 74.6-3.4 19.3-.6 38.8.2 58.1.4 16.1.8 32.2 1.4 48.2 2.2 8.5 8.1 16 22 25.8 23.4 63.5 8.8 127.4 17.8 191.6 21.1 82.4 4.3 165.2 3.4 247.9 5 11.4.2 22.9.8 34.3 1.2 59.6 2.2 119.2 5.4 178.8 6.2 47.9.7 95.9-1.7 143.8-2.5.2 5.6.3 11.1.5 16.8-29.4 3.1-58.8 9.5-87.9 8.4-70.7-2.5-141.3-8.5-212-13.1-55.2-1.7-110.5-4-165.6-4.6-71.2-1-142.3-.7-213.4-.8-8-1.1-16-2.6-24.1-3.1-71.8-4.3-143.7-8.1-215.4-12.6-26-1.7-51.9-5.2-77.9-7.8l-.4-1 1-.7c-1.3-2.5-2.6-5.1-3.8-7.5-1.2-5.1-2.5-10.1-3.7-15.3.3-.6 1.2-1.2 1.1-1.7-.3-1.2-1-2.3-1.5-3.4z" class="st18"/><path d="M318.3-54.4c42.7.1 85.3.3 128 .4-12.8 18.8-23.9 38.6-39 56-31.4 36.2-63.7 71.6-69.2 118.4-5 5.5-9.9 11.1-14.9 16.7-35.7-2.4-39.5-.1-49.8 30.3-1.3 4-2.3 8.1-4.2 11.7-15.5 29.1-21.9 63.5-63.9 77.3 6.4-20.4 8.5-42.6 19.9-60.7 22.1-35.5 29.7-73.1 33.9-111.9 25.2-2 42.4-12.7 49.8-33 7.8-21.2-5-36.5-22.7-49.9 10.7-18.3 21.4-36.7 32.1-55.3" class="st14"/><path d="m-60.4 755.6 43.5 8.7C-3.9 783.2 13 800.8 21 821c12 30.3 37 43.1 70.9 49.2 5.6 1 11.8 1.4 16.4 3.9 7 3.6 13 8.8 19.4 13.3-6.4 4.9-12.2 10.3-19.2 14.2-3.7 2.1-10.1.7-14 2.6-17.7 8.8-44.1 6.4-52.3 27.7-34.3 5.6-68.8 11.1-103.1 16.8-.1-13.7-.1-27.2-.2-40.9 20.9-4.3 42.1-8.2 62.7-13.3 4.1-1 8.9-6.8 8.9-10.4s-4.9-9.3-9-10.4C-19 868.1-40 863.8-60.9 859c.3-34.5.4-69 .5-103.4" class="st17"/><path d="M1968.9 112.3c-11.2-5.3-23.1-9.8-33.7-15.9-16.5-9.5-32.2-20.1-48.3-30.2 21.4-42.5.1-69.8-54.5-70.4-17.1-.1-34-.7-51.1-.9-9.9-21.5-14.5-47.4-53.8-44.2-3.1.2-6.7-3.1-10-4.9 46.1 1.8 93.5-1.5 137.9 6.6 65.9 12.2 101.1 53.4 113.4 108.2l.1.1z" class="st7"/><path d="M1968.6 879.5c-114.5-2.3-228.9-4.6-343.4-7 0-.6 0-1.1-.1-1.7 29.9-4.1 59.7-8.2 97.3-13.2 14.1 8.1 55.7-6.8 68.1-28 5.3-9 23.4-13.3 36.5-18.6 5.4-2.2 12.6-1.2 19-1.7 18.5 4.1 36.8 11 55.4 11.6 24.1.8 46.9 1.8 67.5 13.2z" class="st1"/><path d="M338 120.4c5.5-46.7 37.8-82.1 69.2-118.4 15.1-17.4 26.1-37.3 39-56h88.3c-4.8 7.3-9.6 14.6-14.4 21.8-3.1 2.8-6.4 5.5-9.5 8.3-5 5.5-9.9 11-14.9 16.7-3.2 4.1-6.6 8.1-9.8 12.1-3.2 2.9-6.6 5.6-9.8 8.5-21.9 14.8-45.6 28.2-65.2 44.9-15.3 13.1-25.7 30.2-38.2 45.7-1.6 1.4-3.2 2.8-4.9 4.2-10.1 4-20 8.1-29.8 12.2" class="st19"/><path d="M441.3 132.9c-28.6 15.3-56.8 31.1-85.9 45.8-17 8.5-24.7-3.8-33.3-12.8l5.7-8.4c5-2.1 11.2-3.3 14.8-6.5 32.7-28.7 65.2-57.4 97.1-86.7 8.4-7.7 14.3-17.3 21.4-26 1.7-1.4 3.5-2.9 5.1-4.3 37.1-22.4 63.8-51.3 78.7-87.7 12.4.1 24.7.3 37.1.4-8.4 12.8-4.4 23.6 7.9 33-8.3 8.5-16.7 17-25.1 25.4-9.8-11.7-21.7-14-35-4.3-11.4 8.5-23.2 16.9-32.7 26.8-16.6 17.5-32.2 36-47 54.7-5.4 6.8-7.6 15.4-11.2 23.3 9.1 1 18 2 27.1 3-1.6 4-3.2 7.9-4.9 12l-.1.1c-6.5 4.1-13.1 8.2-19.7 12.2" class="st5"/><path d="M1717.6-54.1c3.3 1.7 6.9 5.1 10 4.9 39.3-3.2 43.8 22.7 53.8 44.2-20.2.3-40.5.2-60.7 1.2-28.8 1.5-57.7 4-86.5 6.1l-54.3-56.4c45.8-.1 91.8-.1 137.7 0" class="st9"/><path d="M33.1 13.5c.4-6.4.8-12.9 1.2-19.3.9-12.6 1.6-25.2 2.5-37.7 32.4-4.1 64.8-9 97.3-11.8 16.7-1.4 34 .8 51 1.4-5.3 16.2-10.7 32.4-16 48.7-19.3 0-38.8 1.2-57.9-.4-29.6-2.7-56.5-.1-78.1 19.1" class="st20"/><path d="M1968.9 834c-20.6-11.4-43.4-12.5-67.5-13.2-18.6-.6-36.9-7.5-55.4-11.6 3.7-6.1 6.9-12.4 11.2-18 4.3-5.5 11.4-9.8 14.7-15.6 12.4-22.3 26.9-28.1 55.2-21.3 13.9 3.3 28 6.3 41.9 9.5 0 23.3 0 46.8-.1 70.2" class="st15"/><path d="M169-5.3c5.3-16.2 10.7-32.4 16-48.7 44.4-.1 88.8-.2 133.1-.4L286 1.1c-36.9-1.4-73.9-2.9-110.7-4.4-2-.7-4.1-1.3-6.3-2" class="st2"/><path d="M1969.3 920.5c-39.6-.4-79.9 2-118.8-2.9-16.6-2.1-30.4-19.4-45.6-29.8 54.5-.6 109.1-1.1 163.7-1.7.2 11.5.4 22.9.7 34.4" class="st1"/><path d="M-53.2 1036.1c25.9 2.6 51.8 6.2 77.9 7.8 71.8 4.6 143.6 8.4 215.4 12.6 8.1.4 16 2 24.1 3.1-19.8 3.1-39.6 6.2-59.4 9.2-64.2-4.4-128.4-9.2-192.6-12.9-18.4-1.1-37 .8-55.6 1.2-3.3-7-6.5-14-9.8-21" class="st16"/><path d="M-60.9 859c20.8 4.9 41.9 9.2 62.4 14.8 4.1 1.1 9 6.8 9 10.4s-4.9 9.4-8.9 10.4c-20.7 5.1-41.8 9-62.7 13.3.1-16.4.2-32.6.2-48.9" class="st21"/><path d="M-60.9 948.8c34.4-5.6 68.8-11.1 103.2-16.8 11.2-1 22.6-2 33.8-3.1.2 5.3.4 10.6.8 15.8-45.9 9.7-91.8 19.5-137.7 29.2-.1-8.3-.1-16.8-.1-25.1" class="st2"/><path d="M-60.5 570c14.5-8.3 29-16.5 43.5-24.8-1.6 17.9-3.2 35.7-4.8 53.7-5.7 6.3-10.8 13-17.3 18.6-6.3 5.4-14.1 9.6-21.3 14.3 0-20.5-.1-41.1-.1-61.8" class="st20"/><path d="M545-53.7c-14.9 36.4-41.6 65.3-78.7 87.7 3.2-6.8 6.4-13.7 9.6-20.5 3.2-2.9 6.6-5.6 9.8-8.5 3.2-4.1 6.6-8.1 9.8-12.1 5-5.5 9.9-11 14.9-16.7 3.1-2.8 6.4-5.5 9.6-8.3 4.8-7.3 9.6-14.6 14.4-21.8 3.6.1 7 .2 10.6.2" class="st10"/><path d="M590-20.2c-12.3-9.4-16.3-20.1-7.9-33 13.5.2 27 .3 40.5.6-9.6 10.6-19.2 21.3-28.8 31.9-1.3.2-2.5.4-3.8.5m352.5-30.1c-.8-1.1-1.6-2.3-2.4-3.4 0 0 1.9-1.1 1.8-1.1.2 1.4.4 3 .6 4.5" class="st22"/><path d="M1968.9 735.3v-9.2z" class="st13"/><path d="M-60.7 1006.5c.5 1.1 1.2 2.2 1.5 3.4.1.4-.6 1.1-1.1 1.7-.1-1.7-.2-3.4-.4-5.1" class="st14"/><path d="M1968.9 60.9s-.1-.2-.1-.1c.1 0 .1.1.1.1" class="st22"/><path d="M-56.5 1026.9c1.3 2.5 2.5 5 3.8 7.5-1.4-2.6-2.5-5-3.8-7.5" class="st16"/><path d="M1524.7 1127.1c-60.5 0-121 .1-181.5.1-77.3-.3-154.7-.8-232-1.1-22-18.4-34.4-51.4-78.6-36.7 0-4.2-.1-8.4-.1-12.6 17-15.3 32.2-4.6 48.4 1.5 19 7.3 38.1 16 58.3 18.8 23.6 3.3 48.5 1.8 72.8 1 34-1.1 68.3-1.1 101.6-6.1 30-4.4 58.1-17.8 88.1-22.1 47.2-6.8 95.2-9.4 143-13.7-4.2 20.3-17.9 40.3-2.9 61.6-.1.3-11.3 6.2-17.1 9.3" class="st20"/><path d="M1569.2 986.4c-2.9 8.2-5.9 16.3-8.9 24.5-5.4 4.1-10.8 8.2-16.3 12.2-28.1 4.1-56.4 7.4-84.2 12.6-48.5 8.9-96.2 21-145 28-43.3 6.3-84.7 26.1-131 15.7-4.3-1-9.6.4-14.3 1.3-30.3 6-59.3.1-82.5-15.1-17.6-11.5-32.9-14.2-53.9-11.4-11 1.5-23.4-4-35.3-6.4 1.6-4.3 3.1-8.6 4.8-12.9 9 0 18.5 1.4 26.9-.3 20.1-4.2 38.5-4.7 55.5 7.6 4 2.9 10.5 4.2 16.1 4.7 79.3 7.4 157.5 7.1 231.5-23.3 15.2-1.4 30.7-2.3 45.8-4.5 21.1-3.2 41.9-7.6 63-11.3 42.6-7.1 85.1-14.2 127.8-21.4" class="st18"/><path d="M998.1 1047.9c11.8 2.3 24.3 7.9 35.3 6.4 20.9-2.9 36.3-.2 53.9 11.4 23.1 15.1 52 21 82.5 15.1 4.6-.9 9.9-2.3 14.3-1.3 46.3 10.6 87.6-9.4 131-15.7 48.8-7.1 96.5-19.1 145-28 27.9-5.2 56.1-8.4 84.2-12.6 25.6 10.8 7.2 22.1.5 33.2-47.7 4.3-95.8 6.8-143 13.7-30 4.3-58.1 17.7-88.1 22.1-33.3 5-67.7 5-101.6 6.1-24.3.8-49.1 2.3-72.8-1-20.2-2.9-39.3-11.6-58.3-18.8-16.3-6.2-31.5-16.9-48.4-1.5-14.9 4-29.6 8.4-44.6 11.9-10.6 2.4-21.5 3.8-32.2 5.6 1.1-13.6 2.2-27 3.3-40.6 12.7-2 25.9-4 39-6" class="st16"/><path d="M204.8 1068.9c19.8-3.1 39.6-6.2 59.4-9.2 71.2.2 142.3-.1 213.4.8 55.2.8 110.5 3.1 165.6 4.6-9.4 2.5-18.6 6.2-28.2 7.3-21.7 2.4-43.5 3.5-65.3 5.1-19.8-1.9-36.5 1.4-50.9 14.8-17.3 16-40.7 16.8-63.9 12.1-71.4-14.1-142.2-31-216.4-31.8-4.7-.1-9.2-2.5-13.7-3.7" class="st14"/><path d="M549.6 1077.5c21.8-1.7 43.6-2.8 65.3-5.1 9.6-1.1 18.8-4.7 28.2-7.3 70.6 4.6 141.2 10.6 212 13.1 29.2 1 58.6-5.4 87.9-8.4l1.2 5.1v.3c-.2 6.4-.4 12.8-.8 19.2-.4.2-1 .6-1.4.8.5.7 1.1 1.3 1.6 2 .1 3.1.2 6.3.3 9.4-57.2-4.3-114.5-8.8-171.7-13-38-2.8-76-5.2-113.9-7.7-11.6-.1-23.1-.1-34.6-.2-17.1-.1-34.2.6-51.1-.7-7.7-.7-15.3-5-23-7.5" class="st16"/><path d="M942.5 1053.1c-47.9 1-95.9 3.2-143.8 2.5-59.6-.8-119.2-4.1-178.8-6.2-11.4-.4-22.9-1-34.3-1.2-82.6-1.4-165.4-.6-247.9-5-64.1-3.4-128.1-12.4-191.6-21.1-9.9-1.3-17.3-15.2-25.8-23.4 8.5-5.4 17.2-10.8 25.7-16.2 36.3.2 72.5.3 108.7.6 7.1 1.2 14.1 3 21.3 3.5 41.2 3.2 82.9 4.2 123.7 9.7 34.3 4.6 63.5 5.5 78-26.9 1.9-5.4 6.9-11.6 5.4-16.2-7.2-22.3 8.5-30.7 29.5-34.4 13.3-2.4 28.3-3.8 41.2-1.1 24.9 5.2 46.8.1 68.6-8.7 34.4-14 69.8-26.8 103.1-42.6 21.7-10.3 40.6-24.8 60.8-37.4 5.7-.2 11.3-.4 17.1-.7 3.6 13.7 13.1 17 26.6 9.3 33.3-19 66-38.5 98.9-57.8 5.9 1.9 12 3.8 17.9 5.5-1.6 10.6-3.1 21.3-4.8 31.9-7 3.1-14.5 5.7-21.1 9.5-17.1 9.4-33 20.2-50.6 28.7-36 17.3-72.8 33.6-109.2 50.3-13 5.3-25.9 10.6-38.9 15.8-50.9 11-101.8 22.2-152.7 33.2-13.7-.3-27.5-1.2-41.1-.6-5.4.2-10.5 4.2-15.8 6.4 4.4 4.2 8.2 11.1 13.5 12.1 10.8 2.1 22.5.9 33.7 1.1 9.5 1.4 19.1 4.3 28.5 4.1 22.8-.6 45.6-2.4 68.5-3.9 8.9 7 16.6 18.2 26.9 20 42 7.5 84.9 11.8 127.2 18.1 9.3 1.3 17.6 6.4 26.8 8.8 20.4 5.5 40.7 11.6 61.7 15.2 14.9 2.5 30.8 1.5 46.2 2.1-1.1 4.8-2 9.8-3.1 15" class="st23"/><path d="M890 149.9c-30.7 12.6-53.1 30.6-60.6 59.9-9.6 37.8-44.8 65.8-78.9 65.4-7.6-28.9-17.5-57-21.6-85.8-4.4-30.8-.2-62.2 20-89.1 7.5-9.9 24.1-15 36.5-22.3 45.5-26.6 90.7-53.4 136.5-79.7 5.8-3.3 13.7-4 20.6-6 .4 7.2 1 14.3 1.4 21.5v3.3c1.2 34.8 2.6 69.4 3.5 104.1.1 6.6-2.2 13.3-3.5 20.1-18.1 3-36 5.8-53.9 8.6" class="st5"/><path d="m944.2 343 .3 103.1c-6.5 1.1-16.3.3-18.9 3.6-11.7 14.5-24.7 28.4-17.2 48.8 7.9 21.4-5.8 32.8-32.4 29.2-9.7-1.3-19-4.3-28.7-5.6-15.4-2.2-42.9 20.3-38.5 32.2 4.6 12.8 15.2 10.1 27.6 6.3 16.4-5.2 34-7.1 46.5 7.5 12.1 14.2.6 24.3-9.4 34.5-2.1 2.1-3.5 4.9-5.9 6.5-12.7 9.3-24.6 12.7-37-1.3-6.7-7.5-16-13.6-24.9-19.3-14.1-9-25.7-8.8-36.1 6-5.2 7.4-16.6 11.6-25.3 17.3-1.9-1-3.9-2-5.8-3.1 1.8-15.4 13.2-34.2-16.1-39.1 4.5-16.8-.2-30.2-17.2-41.4-7.2-4.7-11.8-13-16-20.3-3.1-5.4-7.5-15.4-5.1-17 10-6.8 23-16.3 33.8-15.6 29.5 2.3 68.7-9.7 82.7-31.4 6.8-10.6 14.7-14.8 29.5-12.7 33 4.7 54.7-6.2 60.8-34.2 4.4-20.5 5.8-40.6 28.3-53.7 8.4.1 16.7-.1 25-.3M784.1 498.5c-11.2 8.5-20.3 15.4-29.4 22.4 8.3 4 18.4 12.5 24.6 10.8 11.2-3 20.2-11.9 30.1-18.4-7-4.1-14-8.1-25.3-14.8M944.6 595l-.6 69.5c-2.5 2.6-5 5.4-7.3 8.1-1.1 2.2-2.2 4.4-3.2 6.6-1.6 1.9-3.3 3.8-5 5.5-6.4 9.2-12.7 18.3-19.2 27.4-2.1 2-4.2 4.1-6.3 6.1-1.1 1.9-2.3 3.9-3.3 5.7-4 3.8-8.1 7.6-12.1 11.4-2.5 3-5 6-7.5 8.9-8.3 5-17 9.7-25.1 14.9-35.8 22.9-71.6 46-107.3 69-8.1 4.7-16.1 9.5-24.2 14.1-2.4 1.7-4.6 3.3-7 4.9-7.8 3.6-15.5 7.4-23.3 11-6.6 2.3-13.2 4.6-19.8 7-11 2.3-23.2 2.8-32.7 7.3-29.5 14.1-57.3 29.2-91.7 7.8-8.4-5.3-21.4-5.6-32.3-8.3 8.5-7.6 16.7-15.6 25.8-22.7 4.6-3.6 11-5.8 16.4-8.9 40.3-22.7 90.2-32.5 123.8-64.2 19.3-3.9 40.9-4.4 57.4-12.5 23.8-11.6 44.5-27.9 65.3-43.2 10.7-7.8 18.5-18.3 28.2-27 7.1-6.4 14.6-15.8 23.3-17.2 22.5-3.5 25.5-17.1 32.8-31.2 11.5-21.2 20.6-45.8 54.9-50" class="st24"/><path d="M944.6 595c-34.3 4.2-43.5 28.8-54.5 50-7.3 14.1-10.4 27.7-32.8 31.2-8.7 1.3-16.2 10.7-23.3 17.2-9.7 8.7-17.6 19.2-28.2 27-20.8 15.3-41.6 31.8-65.3 43.2-16.5 7.9-38.1 8.6-57.4 12.5 19.8-9 39.6-17.8 59.2-27.1 22.9-10.9 26.3-25.4 12.1-43.2-3.9-4.9-6.4-10.9-7.6-16.8-9-43.9-8.9-43.9-61.2-50.3-.8-.1-1.4-.8-3.8-2.1.2-5 .5-10.8.9-16.8 1.8-1.5 3.7-3.2 5.5-4.7 38.7-6.3 47.7-18.2 33.8-44.9l.5-.4c29.3 4.9 17.9 23.6 16.1 39.1 1.9 1 3.9 2 5.8 3.1 8.6-5.6 20.2-9.9 25.3-17.3 10.4-14.9 21.8-15 36.1-6 9 5.7 18.4 11.8 24.9 19.3 12.4 14 24.4 10.6 37 1.3 2.4-1.8 3.8-4.4 5.9-6.5 10-10.3 21.4-20.3 9.4-34.5-12.4-14.7-30-12.7-46.5-7.5-12.4 4-22.9 6.5-27.6-6.3-4.3-11.9 23.1-34.4 38.5-32.2 9.7 1.3 19 4.4 28.7 5.6 26.6 3.6 40.3-7.7 32.4-29.2-7.6-20.4 5.5-34.3 17.2-48.8 2.6-3.3 12.4-2.5 18.9-3.6zm-138 68c-10.3-8.1-19.2-18-22.2-16.9-8.6 3.3-20 10.6-20.8 17.1-.8 6.6 9.8 14.1 15.4 21.3 7.9-6.1 15.6-12.2 27.6-21.5" class="st21"/><path d="M945.5 1037.8c-15.4-.6-31.3.4-46.2-2.1-20.9-3.6-41.2-9.7-61.7-15.2-9.2-2.4-17.5-7.5-26.8-8.8-42.3-6.3-85.2-10.6-127.2-18.1-10.1-1.8-17.9-13-26.8-20 10.6-2 21.2-4 31.6-6 37.5-4.9 75-9.7 112.5-14.6 8.5 1.4 17.2 4.4 25.6 4.1 38.9-1.2 77.7-3.4 116.6-5.3 1 28.7 1.7 57.3 2.4 86" class="st25"/><path d="M919.3 343.7c-22.6 13.1-24 33.2-28.3 53.7-6 27.9-27.9 38.9-60.8 34.2-14.8-2.1-22.6 2-29.5 12.7-14 21.7-53.2 33.8-82.7 31.4-10.8-.9-23.8 8.7-33.8 15.6-2.4 1.7 1.9 11.7 5.1 17 4.2 7.3 8.7 15.6 16 20.3 17 11.1 21.7 24.6 17.2 41.4l-.5.4c-4.8-4.9-9.8-9.4-14-14.5-3.8-4.6-6.6-9.9-9.8-14.9-4.6-1.5-9.3-3.1-13.9-4.5-1.4-1.3-2.8-2.8-4.2-4.1-2.2-2.8-4.2-5.4-6.4-8.2-6.8-10.8-13.7-21.6-20.5-32.3 8.2-6.7 16.4-13.6 24.6-20.3l.5-.4c3.6-2.6 7.1-5.2 10.7-7.8 12.4-4.2 24.7-8.6 37.3-12.6 17.2-5.4 36.2-8.3 51.3-16.2 19.1-9.9 34.9-20.5 60.4-14.2 23.8 5.8 29.2-14.3 36.6-26.9 3.1-5.3-1.1-15.4-5.6-21.5-8.5-11.6-19.8-21.7-29.8-32.5-.2-4.2-.3-8.4-.5-12.7 4.6-12.2 9.3-24.5 13.9-36.7 2.6-2.4 7-4.5 7.6-7.2 4.2-19 17.8-29.1 39.8-33.6 21.1-4.3 40.9-10.9 44.8-32.4v56.7c-8.7-.7-17.6-2.3-26.2-1.9-28.3 1.4-32.2 20.5-39.8 38.1-13.1 29.7-10.7 33.8 25.7 33.3 4.7-.1 9.7.2 14.8.6" class="st21"/><path d="M955.6 766.8c1-23.8 1.8-47.7 2.8-71.4 16.5-28.1 33.1-56.3 49.7-84.4 1.6-2.3 3.2-4.7 4.9-7.1 5.3-7.2 10.6-14.3 15.8-21.5 2.9-2.5 5.8-5.2 8.7-7.7 12.3-13.1 18.6-27.2 9.8-43.7 3-.9 6-1.7 9.2-2.5 28.1 10.4 19.1-11.4 24.9-20.3 5 4 10 7.9 15 11.9-11.6 17.1-23 34.2-34.6 51.2-10.4 15.2-20.7 30.4-30.9 45.7-14.9 22.5-11.6 27.7 19 30.2-32.4 27.4-54.6 59.2-61.9 97.7-9.3 8.9-18.6 17.9-27.8 26.8-1.4-1.5-3-3.2-4.6-4.9" class="st15"/><path d="M944.6 216.5c-3.9 21.5-23.6 28.1-44.8 32.4-22 4.5-35.6 14.7-39.8 33.6-.5 2.6-5 4.7-7.6 7.2 1.6-17.9 3.2-35.7 4.9-53.6.5-4.4 1.1-8.8 1.6-13.2 1.2-5.3 2.5-10.6 3.7-15.8 1.2-4.1 2.4-8.1 3.6-12.1 2.8-3.9 5.7-7.7 8.5-11.6 13.2-7.9 26.5-15.9 39.6-23.9 3-1 6-1.9 9.1-2.9 6.7-1.3 13.4-2.6 20.1-4.1.4 21.5.8 42.8 1.1 64" class="st3"/><path d="M998.1 1047.9c-13.1 2-26.1 4-39.2 6-1.7-11.9-4.8-23.9-4.9-35.9-.1-26.1 1.3-52.4 2.1-78.5 3.6.7 7.1 1.2 10.7 1.9 3.7 1.5 7.2 3.1 10.8 4.6 20.1 7.2 40.1 14.2 61.8 22.1-25.9 17-37.9 39.6-36.6 67.2-1.6 4-3.2 8.3-4.7 12.6" class="st25"/><path d="M957.9 149.2c30.7 3 49.1 17.8 58.6 41.8 8.6 21.8 18 43.4 27.1 65.1-2.2.4-4.2.9-6.4 1.3-8.4 13.3-16.8 26.8-25.3 40.2.9-7.1 1.6-14.1 2.5-21.1 0-6.2 0-12.5.1-18.6 7-29.2-10.3-52-27.1-74.9-2.3 6-1.4 11 .6 15.9 18.5 41.8 17.2 43.7-33.5 46.1 12.1-24.7-3.7-49.3-.5-74 1-7.5 2.6-14.7 3.9-21.8" class="st3"/><path d="M955.9 617.5c.1-16.5.3-33 .4-49.5 0-9.6.1-19.3.1-28.9.6-6 1.4-12 2.1-18 3.5-15.7 8-31.2 9.9-47.1 2.5-20 2.8-40.2 4.1-60.2.4 20.5.9 41 1.4 61.4 10.1 5.2 20.3 10.4 30.4 15.6 2.7 2.9 5.4 5.7 8.1 8.6l11.7 13.2c1.2 2.6 2.4 5.3 3.6 7.9-1.4 2.3-2.9 4.6-4.3 7-5 7.4-9.9 14.7-14.9 22.1-12.8 18.2-25.9 36.4-38.3 54.8-1 1.4 1.9 4.7 3.1 7.2-5 2.6-9.8 5.2-14.8 7.8-.5-1.2-1.3-1.8-2.6-1.9" class="st26"/><path d="M761.2 905.4c36.4-16.7 73.2-32.9 109.2-50.3 17.6-8.5 33.6-19.3 50.6-28.7 6.6-3.6 14-6.3 21.1-9.5.3 4.1.6 8.3 1.1 12.4-22.9 13.9-45.7 27.8-68.6 41.7-19.3 10.8-43 19.7-29.3 45.5-17.9 3.4-36.2 6-53.6 10.7-7.6 2.1-13.4 8.9-20 13.6-26.9-2.3-30.1-7.7-16.1-26.3 2.3-2.9 3.7-6.1 5.6-9.1" class="st27"/><path d="M658.4 1085.8c38 2.5 76 4.9 113.9 7.7 57.2 4.2 114.5 8.7 171.7 13 .1 6.5.3 13.1.4 19.6-33 .1-66.1.2-99.1.2-28.4-6.7-56.5-14.7-85.2-20-26.9-5-54.6-6.7-81.7-11-7.1-1-13.3-6.2-20-9.5m299.9-219.1c.2-12.1.5-24.3.8-36.5 7.3-12.8 14.7-25.5 21.9-38.3 11 10.7 22.1 21.4 34 33 3.6-9.9 6.6-18.2 11.6-31.8 4.9 16.2 7.9 26.5 10.9 36.6-7.9 6.1-19.4 11-22.9 18.5-6.3 13.6-7.7 28.7-11.1 43.1-8.4.2-17 .4-25.4.7l.3-.1c-2.2-1.4-4.3-2.8-6.5-4.2-3.6-4.4-7.1-8.8-10.7-13.3-1.1-2.5-2-5.2-2.9-7.7" class="st20"/><path d="M972.5 413.7c-1.3 20.1-1.6 40.3-4.1 60.2-1.9 15.8-6.6 31.4-9.9 47.1-.2-18-.3-36-.5-53.9-.2-18.1-.4-36.3-.5-54.4-.4-21.3-.9-42.6-1.3-64 1.1-.3 1.8-.9 2.3-1.7 1.4-1.4 2.7-2.9 4.1-4.3v-.7c31.1-5.8 47.6-20.5 50-44.2l-.3-.3c8.4-13.3 16.8-26.8 25.3-40.2 1.4 8.6 5.6 17.8 3.5 25.7-4.3 16.2-12 31.7-18.4 47.4-3.8 5.6-7.6 11.3-11.2 16.9-28.7 3.8-43.4 19-41 42.3.6 8.1 1.2 16.1 2 24.1" class="st21"/><path d="M845.3 916.3c-13.7-25.7 9.9-34.6 29.3-45.5 22.9-1.2 45.9-2.5 68.8-3.8.5 14 1.2 28.1 1.7 42.1-10.7 2.3-21.3 6.1-32.1 6.5-22.5 1.4-45.1.7-67.7.7" class="st10"/><path d="M919.3 343.7c-5.1-.3-10.1-.7-15.1-.9-5.8-11.7-24.5-17.1-14.9-36.5 11.8-23.7 29.8-27.1 55-24.6V343c-8.4.2-16.7.4-25 .7" class="st26"/><path d="M845.3 916.3c22.6-.1 45.2.6 67.7-.4 10.8-.6 21.4-4.3 32.1-6.5-.5 10.4-1.1 20.7-1.6 31.1-47.5-1.2-95-2.3-142.5-3.5-9.7 1.3-19.4 2.5-29 3.9 6.6-4.6 12.3-11.5 20-13.6 17.1-5 35.4-7.4 53.3-11m98.3-763.5c-6.7 1.3-13.4 2.6-20.1 4.1-3 1-6 1.9-9.1 2.9-13.2 7.9-26.5 15.9-39.6 23.8-2.8 3.9-5.7 7.7-8.5 11.6-1.2 4.1-2.4 8.1-3.6 12.1-1.2 5.3-2.5 10.6-3.7 15.8-.5 4.4-1.1 8.8-1.6 13.2-2.7 5.3-6.2 10.5-7.9 16-5.9 19.1-10.3 38.6-17.5 57.3-3.5 8.8-9.1 20.6-26.1 12.8 23.8-18.3 22.8-44.1 30.1-67.7 8.5-27.5 19.8-54.4 32-80.9 4.1-8.9 14.5-16 22-23.8 17.9-2.8 35.8-5.6 53.8-8.4 0 3.6-.1 7.4-.2 11.2" class="st8"/><path d="M1014.6 276.4c-.9 7.1-1.6 14.1-2.5 21.1l.3.3c-16.7 14-33.4 28.1-50.1 42.1-2.3-1-4.5-1.9-6.8-2.9l.6-78.9c1.3-.2 2.2-.8 2.8-1.7 2.5 5.3 5.1 10.6 7 14.6 17.3 2 33 3.7 48.7 5.4" class="st26"/><path d="M800.9 936.8c47.5 1.2 95 2.3 142.5 3.5 0 3.9-.1 7.7-.1 11.6-38.9 1.8-77.7 4-116.6 5.2-8.4.2-17.1-2.6-25.6-4.1-.1-5.3-.2-10.7-.2-16.2" class="st27"/><path d="M958.5 619.2c5-2.6 9.8-5.2 14.8-7.8 3.7 2.8 7.3 5.5 11.4 8.6 2.1-9.8 3.7-18 6.5-31.6 8.2 10.8 12.5 16.8 17 22.6-16.5 28.1-33.1 56.3-49.7 84.4-.5-19.9-1.2-39.6-1.7-59.5.5-5.5 1-11 1.7-16.7" class="st20"/><path d="M946.8 785c-5.9-1.9-12-3.8-17.9-5.5-5-18.4-18.9-11.6-31.4-7.6-10.9 3.4-21.5 7.6-32.3 11.6 18.6-16 36.6-32.7 56.1-47.7 4.4-3.4 14.6-1.7 22.1-2.3 1.1 17.1 2.3 34.3 3.4 51.5" class="st7"/><path d="M943.4 733.4c-7.6.7-17.7-1.1-22.1 2.3-19.7 15.1-37.6 31.7-56.1 47.8-19.8 11.1-39.4 22.2-59.2 33.2 1.7-2.6 3.5-5.4 5.1-8.1 23.2-19 46.3-38 69.5-56.9 9.4-6.3 19-12.2 28-19 11.8-8.9 23-18.4 34.4-27.6.2 9.5.3 18.8.4 28.3" class="st15"/><path d="M961 874.4c3.6 4.4 7.1 8.8 10.7 13.3 2.2 1.4 4.3 2.8 6.5 4.2l-.3.1c12.1 8.8 24.2 17.7 36.6 26.6-5.1 2-9.4 3.6-13.7 5.3l-33.9 17.4c-3.6-.7-7.1-1.2-10.7-1.9 0-21.1 0-42.1-.1-63.3 1.6-.5 3.2-1.1 4.9-1.7" class="st8"/><path d="M981 791.9c-7.3 12.8-14.7 25.5-21.9 38.3-1.1-13-2.1-26-3.1-39.1 12.4-14.8 24.9-29.6 37.4-44.3 8.3-13.6 16.6-27.1 24.9-40.8-.4 4-.9 7.8-1.3 11.8-5.2 16.5-10.4 33-15.5 49.5-6.9 8.1-13.7 16.4-20.5 24.6m-37.7 75.3c-22.9 1.2-45.9 2.5-68.8 3.8 22.9-13.9 45.7-27.8 68.6-41.7.1 12.6.1 25.2.2 37.9" class="st28"/><path d="M954.7 244.7c50.7-2.4 51.9-4.3 33.5-46.1-2.2-4.7-2.9-9.9-.6-15.9 16.8 22.9 34.1 45.7 27.1 74.9-18.8-2.6-37.6-5.4-56.4-8.1-1.1-.3-2.3-.7-3.3-1.1-.5-1.1-.7-2.4-.3-3.7" class="st21"/><path d="M944.2 281.7c-25.2-2.5-43.3.9-55 24.6-9.6 19.5 9.1 24.8 14.9 36.5-36.3.4-38.7-3.6-25.7-33.3 7.7-17.5 11.6-36.6 39.8-38.1 8.6-.4 17.5 1.2 26.2 1.9.1 2.7 0 5.5-.2 8.4" class="st24"/><path d="M943 705.2c-11.4 9.3-22.7 18.8-34.4 27.6-8.9 6.7-18.6 12.7-28 19-.2-2.5-.4-5.1-.6-7.6 2.5-3 5-6 7.5-8.9 4-3.8 8.1-7.6 12.1-11.4 1.1-1.9 2.3-3.9 3.3-5.7 2.1-2 4.2-4.1 6.4-6.1 6.4-9.2 12.7-18.3 19.1-27.4 1.6-1.9 3.3-3.8 5-5.6 1.1-2.2 2.2-4.4 3.1-6.6 2.8.1 5.5.3 8.3.4-.5 10.9-1.1 21.6-1.8 32.3" class="st1"/><path d="M993.3 746.8c-12.4 14.8-24.9 29.6-37.4 44.3.2-5.7.3-11.5.5-17.1 1.6-.3 2.8-1.1 3.8-2.1 9.3-8.9 18.6-17.9 27.8-26.7 1.9.5 3.6 1 5.3 1.6" class="st29"/><path d="M957.4 412.6c.2 18.2.4 36.3.5 54.4-.1-18.1-.3-36.2-.5-54.4m-1 126.4c0 9.6-.1 19.3-.1 28.9.1-9.6.1-19.3.1-28.9" class="st14"/><path d="M945 673.1c-2.8-.1-5.6-.3-8.3-.4 2.5-2.6 5-5.4 7.5-8.1.1 2.7.4 5.6.8 8.5" class="st16"/><path d="M958.5 619.2c-.5 5.6-1.2 11.1-1.7 16.8-.2-6.2-.5-12.4-.8-18.5 1.2.1 2 .7 2.5 1.7m-2.9-281.9c2.3 1 4.5 1.9 6.8 2.9-.2.7-.1 1.4.1 2.1v.7c-1.4 1.4-2.7 2.9-4.1 4.3-.4.9-1.3 1.4-2.3 1.7-.1-4.1-.3-8-.5-11.7m-.6-88.6c1.1.3 2.3.8 3.3 1.1.2 2.3.4 4.6.6 7-.5 1-1.5 1.5-2.8 1.7-.2-3.4-.7-6.6-1.1-9.8" class="st14"/><path d="M961 874.4c-1.6.6-3.3 1.2-5 1.8.8-3.2 1.5-6.3 2.3-9.5.9 2.5 1.8 5.2 2.7 7.7" class="st28"/><path d="M943.7 1097.1c-.5-.7-1.1-1.3-1.6-2 .4-.2 1-.6 1.4-.8.6 1 .6 2 .2 2.8" class="st20"/><path d="M943.8 17.3V14l1.3 1.7z" class="st10"/><path d="M944.3 1075.3v-.3c-.1-.1 0 .3 0 .3" class="st18"/><path d="M960.3 771.8c-1 1.1-2.3 1.8-3.8 2.1-.3-2.4-.6-4.7-.9-7.2 1.6 1.8 3.2 3.5 4.7 5.1" class="st28"/><path d="M1032.4 1089.4c44.2-14.7 56.6 18.2 78.6 36.7-32.4-.1-64.7-.1-97.1-.3-2.1 0-4-1.7-4-1.7 7.8-11.8 15.2-23.2 22.5-34.7" class="st17"/><path d="M1022.6 330.5c6.4-15.8 14-31.3 18.4-47.4 2.2-7.9-2.2-17.1-3.5-25.7 2.2-.4 4.2-.9 6.4-1.3q6.9 4.65 13.8 9c4.1 21.6 19.1 36.3 41.7 46.8 9.9 4.6 17.7 9.8 10.7 22.8-3.9 7.3 3 18.4 4 27.9.4 4.4-1.7 8.9-2.7 13.5-1.3-.3-2.7-.7-4-.9 1.3.3 2.5.8 3.8 1.1 1.5 5.3 2.9 10.5 4.4 15.8-7.8 6-15.7 12-23 17.7 5.1 7.8 9 13.8 12.8 19.9-9.7 1.5-17.1 2.6-24.4 3.9-10.5-9.5-22.4-17.4-37.6-21 1.6-16 3.1-32.1 4.8-48.1-.4-2.6-1-5.3-1.4-7.9-1.2-2.6-2.4-5.4-3.5-8.1 17 .8 33.8 1.5 50.7 2.3.2-1.5.5-3.2.8-4.7-19.3-2.1-38.7-4.3-58.1-6.4-4.8-3.2-9.5-6.2-14.1-9.2" class="st20"/><path d="M1220.7 326.6c35 7.7 60.7 34.1 62.6 64.4.5 8.7.4 17.5.6 26.4-3.7 10.1-7.2 20.3-10.9 30.6-11.4-2-22.9-3.9-34.4-5.8.8-7-1.5-17.5 2.9-20.3 17.6-10.5 9-17.9-1.4-26-17.3-13.7-35.3-19.1-55-3-4.1-5.5-8.1-10.9-12.5-16.9 7.9-3.1 14.1-5.5 21.6-8.4-3.8-6.6-6.9-12-11-19h16.5c9.6-9.9 15.3-16 21-22" class="st13"/><path d="M1273.2 447.8c3.7-10.1 7.2-20.3 10.9-30.6 11.1-18.5 26.2-36.2 32.4-55.8 10-32.7 10.4-35.4 51-39.2 3.2 0 6.5.1 9.7.1 13.3 21.8-1.5 35.3-17.7 51.3-26.2 25.9-48.4 54.8-72.2 82.5-4.9-2.7-9.5-5.4-14.1-8.3" class="st10"/><path d="M1220.7 326.6c-5.7 6.1-11.4 12-20.7 22h-16.5c4 7 7.1 12.4 11 19-7.5 2.9-13.7 5.3-21.6 8.4 4.4 6 8.4 11.4 12.5 16.9h-.1c-9.9 5.5-19.9 11-30.7 17.1 1.7 6 3.9 13 6 20.2-25.2-2.3-16.3 11-11.6 23.7-9.6-1.4-16.3-2.4-23.1-3.3-1.7 2.8-3.6 5.5-5.3 8.2 2.1 2.8 4 5.4 6 8.2.4 4.5.8 8.9 1.2 13.9-13.6.6-23.8-20.5-36.3-1.8-6.8-.1-13.5-.2-20.3-.2 20.2-21.4 40.4-42.7 60.6-64.1 6.7-9.3 13.9-18.3 20-27.9 2.5-4 1-11.6 4.2-13 16.1-7.4 9.1-16.9 5-26.3 19.5-8.1 20.3-18.8 2.5-36.1 23.1-5.7 40.7 3.2 57.2 15.1" class="st12"/><path d="M1161 347.4c4.1 9.5 11.1 18.9-5 26.3-3.2 1.5-1.6 9-4.2 13-6 9.6-13.3 18.6-20 27.9-.4-5.8-.9-11.6-1.2-17.4l1.6.6-.8-1.3c-5.4-1.4-10.7-2.9-16.1-4.3-1.5-5.3-2.9-10.5-4.4-15.8l.2-.2c1-4.5 3.1-9 2.7-13.5-1-9.5-7.9-20.6-4-27.9 6.9-13-.9-18.2-10.7-22.8-22.5-10.5-37.5-25.2-41.7-46.8 21.8 10.4 43.5 20.7 65.2 31-6.3 27.2 20.6 36.8 38.4 51.2m-38.2 8.6c-.1-1.1.3-2.5-.4-3.4-.5-.6-2.6-.2-3.9-.3.1 1.2-.3 2.8.4 3.5.4.7 2.5.2 3.9.2" class="st21"/><path d="M1161 347.4c-17.8-14.5-44.8-24-38.2-51.2 13.5 5.1 27.1 10 40.6 15.1 17.9 17.3 17.2 27.9-2.4 36.1" class="st1"/><path d="M1634.2 2.2c28.8-2.1 57.7-4.5 86.5-6.1 20.2-1.1 40.5-.9 60.7-1.2 17.1.3 34 .8 51.1.9 54.6.4 75.9 27.9 54.5 70.4-14.8 13.6-33.3 17.9-55 17.5-43.1-.6-86.3.2-129.5.4-8.9-.2-17.8-1-26.7-.8-26.3.9-48.6-4.9-59.9-26.8-11.2-21.6-1.5-39.3 18.3-54.3m44.6 52.1h41c-6.6-12-12.8-23.4-19.1-34.9-2.5.4-5 .9-7.6 1.3-4.8 11.7-9.9 23.3-14.3 33.6" class="st20"/><path d="M1273.2 447.8c4.6 2.8 9.3 5.6 13.9 8.4 6.7 7.7 13.5 15.6 20.2 23.3 13.2 22.7 26.3 45.3 39.5 68.1 1.7 3.6 3.3 7.3 5.1 10.9-18.1-23.6-38.2-46.3-53.9-71.2-12.5-19.9-27.1-33.6-55.5-33.2-21.9 11.4-4.3 24.3-.8 35.6 4.5 14.3 3 22.5-17 22.4-5-1.4-10-2.9-15-4.3h-5c-2.4-4.1-4.9-8.2-7.2-12.2-2.4.1-4.8.2-7.1.3-3.3-.1-6.7-.1-9.9-.2-3-1.1-6-2.2-9.2-3.3-.6-4.5-1.3-9-1.9-13.5 10.1-8.2 20.5-16.1 30.3-24.6.8-.7-2.5-4.6-3.9-7.1 14.4-1.8 28.7-3.5 43-5.3 11.4 2 22.9 4 34.4 5.9" class="st21"/><path d="M584.1 149.2c-1.1 29.6 1 59.6-4.4 88.7-3.5 18.9-3.9 35 8.6 50.6 11.7 14.6 11.1 27.1-3.3 40.6-8.4 7.9-15.8 18.1-18.6 28.2-1.9 6.7 5 15.2 7.9 22.9 3.3 4.2 6.7 8.3 9.9 12.5 11.4 12.4 22.9 24.7 34.2 37.1 1.7 2.8 3.6 5.5 5.3 8.4 1.5 5.5 3 10.9 4.5 16.4 0 4.9-.1 9.7-.1 14.6l-6.3 4.5c-1.1-.2-2.2-.4-3.2-.4-7.6 2-15.2 3.9-22.8 5.8 4.2 7 8.5 14 12.7 21 3.3 2.8 6.7 5.6 9.9 8.4 6.6 20.6 13.2 41.1 19.9 61.8-2.9 8.3-9.8 17.3-7.9 24.6 4 14.5-2.4 23.1-13.3 32.8-9.3 8.3-19.8 18.1-22.4 28.5-7.1 29.1-7.6 59.7-32.7 83.8-.4.4 1.2 2.4 1.8 3.6-4.9 5.5-9.7 11-14.6 16.5-23.8 8.4-30.8 25.9-34.9 45q-4.65 3.9-9.3 8.1c-7.3 2.9-16.2 4.5-21.9 8.9-15.3 11.8-28.5 12.6-48.3 4.6-43.3-17.5-54.6-52.4-60.7-84.3-9.9-53.1-8.3-107.7-12.5-161.5-1-12-5.2-24-9.3-35.9-4.2-12.4-9.9-24.3-15-36.4C369 455.4 396 399.8 433.8 350c32.8-43.2 56.7-89.2 81.3-135.3.6-1.2 1.8-2.5 1.9-3.8 3.2-35.9 35.2-48.7 67.1-61.7" class="st28"/><path d="M327.9 157.4c-1.8 2.8-3.8 5.6-5.7 8.4-14.6 16.4-29.8 32.5-43.2 49.6-2.8 3.6-.9 13.8 2.9 15.9 4.3 2.4 13.2-.4 20-1.7 9.3-1.7 18.5-3.9 27.8-5.8 1.2 8.3 3.5 16.4 3.6 24.7.3 27.6-16.1 49-36.4 69.6-24.8 25.3-24 37 2.7 60.6 10.8 9.6 16 18.9 9.7 31.2-13.8 27.5-28.1 54.8-41.7 82.4-5.2 10.6-9.1 21.6-13.5 32.4-16.2 50.1-50.5 85.7-113.1 98.8 1.6-12.5 3.1-24.9 4.8-37.4 9.8-23.1 20.9-45.7 28.9-69.2 9-26.1 15.7-52.7 21.8-79.4 1.2-5.2-4.8-11.5-7.5-17.2-6.6 2.8-14.3 4.5-19.7 8.5-6.9 5.1-12.1 11.8-18 17.8-3.5 1.3-6.8 2.5-10.3 3.9 21.7-64.5 10.6-136.8 64-193.9 42-13.8 48.4-48.2 63.9-77.3 1.9-3.8 2.9-7.8 4.2-11.7 10.1-30.4 14-32.9 49.8-30.3 1.5 5.5 3 11 4.6 16.5.3 1.1.4 2.4.4 3.6" class="st22"/><path d="M337.8 508.1c5.1 12.1 10.8 24 15 36.4 4 11.7 8.3 23.7 9.3 35.9 4.2 53.8 2.6 108.4 12.5 161.5 5.9 31.9 17.4 66.9 60.7 84.3 19.9 8.1 33 7.3 48.3-4.6 5.7-4.4 14.5-6.1 21.9-8.9-10.5 12.2-20.5 24.7-31.3 36.7-25.1 27.8-84.4 27-109.8-.8-13.3-14.6-27.4-28.8-42.4-42.3-41.2-37.1-69.3-81.3-94-126.3-24.9-45.2 2.4-83.4 36-118.4 25.4-3.2 41.8-14.2 50.4-35.4 3-7.4 15.3-12.1 23.4-18.1" class="st27"/><path d="M263.9 561.8c-33.6 35-60.9 73.1-36 118.4 24.8 45 52.9 89.4 94 126.3 14.9 13.5 28.9 27.7 42.3 42.3 25.4 27.8 84.8 28.6 109.8.8 10.8-12 20.9-24.5 31.3-36.7q4.65-3.9 9.3-8.1c3.3-1.3 6.8-2.6 10.1-4l1.9.8c-10.3 12.9-21.3 25.5-30.7 38.8-14.8 21.1-41.1 38.3-34.1 67.2-1.8 3-3.8 6.1-5.6 9-16.7-15.3-36-14.8-57.9-8.3-15.1 4.4-31.6 5.7-47.6 8.2-32.2 4.7-64.6 9.2-96.7 14.1-4.4.7-8.2 4.3-12.5 6.2-27.3 11.7-52.6 28.6-86.2 24.7 20.2-9.6 40.6-18.9 60.5-28.9 38.4-19.4 82-24.9 124.6-33.2 7.6-1.4 13.8-7.4 20.6-11.3-6.6-5.1-12.2-11.8-19.9-14.7-7.8-2.9-17.6-2.1-26.6-2.3-29.3-.7-43.7-10.5-53.9-34.1-4.3-9.9-10.8-20-19.3-27.6-26.8-23.8-55.5-46.1-63.3-80.6-1.1-4.9-8.9-10.1-15-12.6-32-12.8-41.4-33.3-32.2-60.9 3.5-10.5 6.6-21.1 9.9-31.7 62.4-13.1 96.7-48.8 113.1-98.8 6.9.6 13.8 1.2 23.6 2-4.9 13.2-9.2 24-13.5 35" class="st19"/><path d="M466.2 108.7c-9.1-1-18-2-27.1-3 3.7-7.8 5.8-16.4 11.2-23.3 14.9-18.8 30.3-37.2 47-54.7 9.4-9.9 21.3-18.3 32.7-26.8 13.2-9.8 25.1-7.4 35 4.3 0 8.3-.1 16.4-.1 24.7-6.2 5.3-12.2 10.7-18.4 16-26.9 21-53.5 41.8-80.3 62.8" class="st4"/><path d="M466.2 108.7c26.8-21 53.6-41.8 80.3-62.8 1.4 4.5 5.7 10.9 3.7 13.3-23.1 26.8-51.2 49.1-88.9 61.4 1.6-4 3.3-8 4.9-11.9m98.7-78.8c0-8.3.1-16.4.1-24.7 8.3-8.5 16.7-17 25.1-25.4 1.3-.1 2.6-.2 3.8-.4-9.8 16.7-19.4 33.6-29 50.5m-123.6 103c6.6-4.1 13.2-8.1 19.8-12.1-6.6 4-13.2 8.1-19.8 12.1" class="st10"/><path d="M805.9 322.3c17.1 7.8 22.8-4 26.1-12.8 7.2-18.8 11.4-38.3 17.5-57.3 1.7-5.5 5.2-10.7 7.9-16-1.6 17.9-3.2 35.7-5 53.6-4.6 12.2-9.3 24.5-13.9 36.7l-28.5 9.3c-3 0-6-.1-9.2-.1-18.8-3.3-37.8-6.3-56.5-9.9-45.8-8.8-88.4-3.6-128 18.4-6.5 3.6-14.7 5.1-22.1 7.5 8.1-6.8 16.2-13.8 24.4-20.6 53.9-35.2 112.7-16.3 170.3-10.8 5.9.4 11.4 1.3 17 2" class="st22"/><path d="M618.8 331c-8.1 6.8-16.2 13.8-24.4 20.6h-.2c-15 15.8-13 26.3 8.9 31.3 16.6 3.9 24 11.5 27.6 24.7 2.2 7.7 9.6 14.3 11.9 22 3 10.4 3.5 21.3 5.1 32-6.5 2.4-12.8 4.9-19.3 7.4 0-4.9.1-9.7.1-14.6-1.5-5.5-3-10.9-4.5-16.4-1.7-2.8-3.6-5.5-5.3-8.4-11.4-12.4-22.9-24.7-34.2-37.1-3.3-4.2-6.7-8.3-9.9-12.5-.3-32.9 9.6-44 44.2-49" class="st8"/><path d="M1409 652.2c8.7 11.1 17.5 22.4 26.2 33.5 3.6 5.4 7.2 10.9 10.8 16.3 0 0-1.6 1.3-1.5 1.3-43.4-3.9-86.8-7.7-126.8-11.3 9.9-4.4 23-10.1 36.1-15.8 15.1 3.4 30.2 6.8 45.4 10.3 1.4-3.4 2.8-6.8 4.2-10.3-23.5-9.5-47.1-19-70.5-28.5-20-5.8-40-11.6-64.2-18.6 20-1.8 36.8-3.2 56.3-4.9-21.3-11.4-41.4-11-62.5-6.4-7.5 1.7-15.5 1.1-23.3 1.5-13.2 1.4-26.3 2.8-39.6 4.2-3.8-1.4-7.5-2.9-11.2-4.3-.2-2.1-.4-4.1-.6-6.2 32.5-7.6 65.2-14.8 97.5-23.1 7.2-1.9 13.1-7.4 19.5-11.3-1.6-1.9-3.2-3.6-4.9-5.5-6.8 2.5-13.5 5.1-26.1 9.8 6.5-12.8 10.7-21.1 14.9-29.3 22.7 5.6 45.2 11.3 67.9 16.9 11.6 12.1 34.6 19.4 24.6 40.6-6.2-1.4-12.6-2.3-18.6-4.4-38.7-13.8-46.6-14.3-88.2-5.1 14.9 2 30 4 45.1 6.1 5.5 5.8 11.4 11.4 16.5 17.4 12.8 15.4 30 19.9 51.2 14.9 7.5 4.2 14.6 8.1 21.8 12.2m-41.1-52.7c1.4-1.2 2.9-2.4 4.3-3.6-3.1-2.4-6.2-4.9-9.3-7.4-1.1.8-2.2 1.7-3.1 2.4 2.7 2.8 5.4 5.7 8.1 8.6m196.2 246.6c-6.6-.8-13.2-1.4-19.7-2.2-19.2-46.4-46.4-64.1-98.2-63.7-7-6.8-14-13.8-21.1-20.6.3-2.5.5-5.1.9-7.6 16.6-1.7 33.3-3.2 49.9-4.9l.1.1c1.6 1.3 3.2 2.8 4.9 4.1 43.4 21.9 71.3 53.4 83.2 94.8" class="st24"/><path d="M1475.9 747.2c-16.6 1.7-33.3 3.2-49.9 4.7-1.7-13.8-3.5-27.6-5.2-41.4 13.4 7 26.8 13.9 40.2 20.9 1.5 1.1 3 2.2 4.5 3.4 3.5 4.1 6.9 8.2 10.4 12.4" class="st21"/><path d="m1446.1 702.1 17.1 14.7c-.9.7-1.7 1.2-2.5 1.9-5.4-5.1-10.8-10.1-16.2-15.2z" class="st24"/><path d="M1465.5 734.8c-1.5-1.1-3-2.2-4.5-3.4l-.3-12.7c.9-.7 1.6-1.3 2.5-1.9.7 6 1.6 12 2.3 18" class="st24"/><path d="M1480.8 751.3c-1.6-1.3-3.2-2.8-4.9-4.1 1.7 1.3 3.3 2.8 4.9 4.1" class="st21"/><path d="M1356.7 570.7c-22.7-5.6-45.2-11.3-67.9-16.9-5-1.5-9.9-3.1-14.9-4.6-3.5-1.4-6.8-3-10.3-4.4-1.7-8.6-6.9-17.9-4.6-25.7 7-24.3-6.3-44.1-16.5-64.9 28.4-.4 43 13.5 55.5 33.2 15.7 24.7 35.7 47.5 53.9 71.2 1.6 4 3.2 8 4.8 12.1" class="st1"/><path d="M1319.7 607.9c-15.1-2-30.3-4.1-45.1-6.1 41.6-9.3 49.6-8.7 88.2 5.1 5.8 2.1 12.3 3 18.6 4.4 1.9 1.7 4 3.4 5.9 5.1 1.4 1.1 2.8 2.1 4.1 3.2l.5.6 3.6 3.3c1.4.7 2.3 1.7 2.4 3.1 1.3 1.8 2.5 3.5 3.8 5.3l7.5 20.4c-7.1-4-14.4-8.1-21.5-12-16.1-20.6-37.5-33.2-68-32.4" class="st26"/><path d="M1401.6 631.8c-1.3-1.8-2.5-3.5-3.8-5.3 1.3 1.8 2.5 3.5 3.8 5.3m-6.2-8.3-3.6-3.3c1.3 1 2.4 2.1 3.6 3.3m-4-3.9c-1.4-1.1-2.8-2.1-4.1-3.2 1.3 1 2.7 2.1 4.1 3.2" class="st24"/><path d="M205.2 256.5c-53.6 57.3-42.3 129.4-64 193.9-11.7 15.6-24.6 30.6-34.9 46.8C92 519.7 79.7 543 66.7 566.1c-15.8 7.4-31.6 14.6-47.3 22.1-12.8 6.2-23.1 18.8-41.1 10.7 1.6-17.9 3.2-35.7 4.8-53.7 24.3-25 45.8-51.3 54.7-83.3 8.1-28.9 17.3-57.8 22.8-87 1.9-10.5-9.3-22.7-7.7-33.3 5.1-33.3 13.5-66.3 20.6-99.4 6-28.1 12-56.3 17.9-84.4 1-24.6-9-49.6 5.4-73.5 21.2-.4 42.4-.9 63.6-1.3l98.7 1.2c-4.2 38.8-11.8 76.3-33.9 111.9-11.4 17.9-13.6 40.1-20 60.4" class="st2"/><path d="M155.4 961.3c33.7 3.8 58.8-13 86.2-24.7 4.3-1.9 8-5.5 12.5-6.2 32.2-5 64.5-9.4 96.7-14.1 16-2.3 32.4-3.6 47.6-8.2 21.9-6.4 41.1-7.1 57.9 8.3l4.2 16.2c-19.2-8.9-37.4-9-57.7-.1-15.5 6.8-35 7.4-51.1 13.6-15.3 5.8-28.7 15.4-42.9 23.4-18 4.5-36.1 9-54.1 13.7-36.3-.2-72.5-.3-108.7-.6-10-.3-20-.7-30-1 13.1-6.7 26.3-13.5 39.4-20.3" class="st27"/><path d="M151.4 446.6c5.9-6 11.1-12.7 18-17.8 5.4-4 13.1-5.7 19.7-8.5 2.7 5.7 8.6 12 7.5 17.2-6.2 26.7-12.8 53.4-21.8 79.4-8 23.4-19.2 46.1-28.9 69.2-19.5-10.8-45.5-18.6-31.2-45.5 3.7-6.8 10.5-12.7 13-19.7 8.4-24.6 15.8-49.5 23.7-74.3m-35.4 535c10 .3 20 .7 30 1-8.5 5.4-17.2 10.8-25.7 16.2-16.1-.8-32.2-1.4-48.3-2.2 8.8-17.1 27.7-13.3 44-15" class="st19"/><path d="M1535.5 866.8c17.2 7.1 34.6 13.7 51.3 21.4 7.8 3.6 14.1 9.5 21.3 14.2l-18.9 18.9c-29 0-58.1-.1-87.2-.1-22.1 1-44.3 2-66.5 3-3.6.6-7 1.2-10.6 1.8-77.1 6.5-154.3 13-231.4 19.5l-42.9-.3c23.6-6.7 47.1-13.8 70.8-20.1 40.3-10.7 80.3-22.2 121.3-30.9 34-7.3 34.6-5.7 34.2-35.7 9.8-.4 20.4-3 29.3-.8 13.9 3.5 26.8 10.3 39-2.2 4.9-1.8 9.6-3.4 14.5-5.2 4.3.4 8.5.8 12.8 1.2 3.8.8 7.6 1.5 11.3 2.3 10.8.6 21.5 1.2 32.3 1.8 6.4 3.7 12.9 7.4 19.4 11.2m33.7 119.6c-42.5 7.2-85.2 14.2-127.6 21.5-21.1 3.6-41.9 8.1-63 11.3-15.1 2.3-30.6 3.1-45.8 4.5-2.5-5.7-6.9-11.4-7.1-17.1-1.1-23.1-18.5-24.5-40.3-24.6-23.5-.1-47.5-2-70.6-5.7-10.6-1.8-19.7-10.1-29.3-15.4 15.2-1.1 30.4-2.2 45.7-3.3 20.6.9 41.2 1.9 61.9 2.8 25.4.6 50.7 1.1 76.2 1.5 10.5.6 21.1 1.1 31.5 1.8 3.6 1.3 7.1 3.8 10.8 3.8 65.8 1.9 131.5 2.5 196-11.4-1 22.4-7.2 27.5-38.4 30.3" class="st29"/><path d="M1446.2 780.3c51.7-.4 78.9 17.2 98.2 63.7-3.3.8-6.7 1.5-9.9 2.3q-2.25-.6-4.2.6l-.4-1.7c-1.6.3-3.1.6-4.8.9-6.3-1.8-12.5-3.5-18.9-5.3-.8-5.2-1.4-10.5-2.1-15.7-7.3-6.1-13.8-16.3-22.1-17.4-21.4-2.9-43.4-1.7-65.2-2.1l-34.6-.3c-13 1.4-26 2.9-39 4.3-5-.1-9.9-.1-14.9-.2-24.6 2.8-49.3 5.4-74 8.2 1.7-9.8 3.5-19.5 5.2-29.3q0-1.8-.3-3.6c.3-1.2.5-2.4.5-3.8 6.3 1.2 12.5 2.5 18.9 3.8-2.1 6.2-4.2 12.4-6.3 18.4 1.7 1.1 3.6 2.3 5.3 3.4 3.7-2.9 7.2-5.7 10.9-8.5 1.9-6.3 3.9-12.6 5.8-18.9v-1.3c6.2-.4 12.3-.8 18.5-1.2-.5 6.8-1.1 13.8-1.9 25.7 6.4-7.3 9.3-10.7 12.2-14 1.7-1.5 3.5-3.2 5.2-4.7.1-1.1-.1-2.3-.3-3.4 13.1-2.8 26.2-5.4 39.3-8.2 6.6.2 13.3.4 19.9.7 12.2 4.1 26.7 6.1 36.3 12.8 13.2 9.1 17.5 3.8 22.7-5.2" class="st26"/><path d="M1607.5 955.9c-64.5 13.9-130.2 13.2-196 11.4-3.7-.1-7.2-2.5-10.8-3.8 7.1-.7 14.3-1.8 21.4-2.1 35.6-1.4 71.4-2 106.9-4.2 11.7-.7 22.9-5.3 34.3-8.2-.2-2.1-.4-4.2-.6-6.4-9.1-3.5-18.2-7.2-29-11.4 7-2.8 11.3-4.4 15.7-6.2 4.5 1 9.1 2 13.7 3 7.8 2.5 16.6 3.8 22.9 7.8 8.2 5.8 14.4 13.4 21.5 20.1" class="st17"/><path d="M1563 928.2c-4.5-1-9.1-2-13.6-3-15.8-1.3-31.6-2.6-47.4-4.1 29 0 58.2.1 87.2.1-8.8 2.4-17.5 4.7-26.2 7" class="st21"/><path d="M1530.2 846.8q1.95-1.2 4.2-.6c19.2 6.2-.1 13.7 1.1 20.5-6.5-3.8-13-7.5-19.4-11.3 4.7-2.8 9.3-5.7 14.1-8.6" class="st16"/><path d="M76.1 929c-11.2 1-22.6 2-33.8 3.1 8.2-21.3 34.6-19 52.3-27.7 3.9-2 10.4-.6 14-2.6 7-4 12.8-9.5 19.2-14.2-6.4-4.5-12.4-9.7-19.4-13.3-4.6-2.4-10.8-2.9-16.4-3.9-34-6.1-59-18.9-71-49.3-8-20.2-24.9-38-37.9-56.7 11.4 5.4 26.1 8.6 33.8 16.7 18.2 19 32.6 40.5 49.9 60.1 5.9 6.7 15.1 13.1 24.4 16 22 7.1 45.2 11.5 67.5 18 7.3 2.2 13.4 7.5 20 11.4-6.5 5.4-11.8 13.2-19.5 15.9-19.4 6.4-40.2 10-60 15.8-8.3 2.1-15.5 7-23.1 10.7M96.8 84.1c-14.4 23.8-4.4 49-5.4 73.5-19.8 2.8-39.4 5.4-59.2 8.2-10.3-31.3 1.1-60 15.1-88.5 16.7 2.2 33.1 4.5 49.5 6.8" class="st20"/><path d="M96.8 84.1c-16.4-2.3-32.9-4.5-49.3-6.8-22.8-18.5-29.4-39.5-14.4-63.8C54.7-5.7 81.7-8.3 111.3-5.7c19.1 1.7 38.5.3 57.9.4 2.2.7 4.2 1.3 6.4 2-2.5 6.8-5 13.7-7.5 20.5-21.1 7.3-23.5 18.4-7.6 42 3.5-10.6 6.5-19.9 9.4-29.1 8.9-2.2 24-8.1 25.6-6.1 10.5 12.5 25.2 6.2 37.6 8.5 4 .8 7.5 3.2 11.2 5 1.6 4.3 3.2 8.7 4.9 13-20.1 2.2-40.2 4.4-60.3 6.7-.6-3.5-1.3-7.2-2.1-10.7h-3.9c-.5 3.5-1.2 7.2-1.7 10.7-6.9 8.5-13.8 17-20.7 25.4-21.3.6-42.4 1-63.7 1.5M71.7 19v41.3c9.5-2.6 20.9-3 23.5-7.1 4.8-7.8 7.8-18.8 4.8-26.6-1.7-4.4-17.1-5-28.3-7.6m68.8 28.3c.1-1.3.3-2.8.4-4.1h-17.4c0 .7-.1 1.4-.1 2.1 5.8.7 11.4 1.4 17.1 2" class="st24"/><path d="M244.3 37.5c-3.7-1.7-7.2-4.2-11.2-5-12.4-2.3-27.1 4-37.6-8.5-1.7-2-16.7 3.9-25.6 6.1l-1.8-12.9c2.5-6.8 5-13.7 7.5-20.5 36.9 1.4 73.9 2.9 110.7 4.4C304 14.4 316.7 29.7 309 51c-7.5 20.3-24.6 31-49.8 33l-98.7-1.2c6.9-8.5 13.8-17 20.7-25.4 2.6 0 5.2 0 7.7-.1 20.1-2.2 40.2-4.4 60.3-6.7 4.4-1.2 9.1-3.9 13.1-3.3C281 49.5 276.9 41.9 273 33c-10.5 1.6-19.5 3.1-28.7 4.5" class="st21"/><path d="M327.8 153.6c-1.5-5.5-3-11-4.6-16.5 5-5.5 9.9-11.1 14.9-16.7 9.8-4.1 19.7-8.2 29.5-12.2-13.4 15.1-26.6 30.3-39.8 45.4" class="st8"/><path d="M327.8 153.6c13.3-15.1 26.6-30.2 39.7-45.5 1.6-1.4 3.2-2.8 4.9-4.2 9.6-7.2 19.2-14.3 28.9-21.4 20-14.8 40-29.6 59.9-44.3-7 8.7-13 18.3-21.4 26-31.9 29.2-64.5 58-97.1 86.7-3.7 3.2-9.8 4.4-14.8 6.5 0-1.2-.1-2.5-.1-3.8" class="st10"/><path d="M461.2 38.3c-20 14.8-40 29.6-59.9 44.3-9.6 7.2-19.2 14.3-28.9 21.4 12.5-15.3 22.9-32.5 38.2-45.7 19.7-16.8 43.3-30.1 65.2-44.9-3.2 6.8-6.4 13.7-9.6 20.5-1.6 1.5-3.4 3-5 4.4m34.4-45.5c-3.2 4.1-6.6 8.1-9.8 12.1 3.3-3.9 6.5-8 9.8-12.1m24.5-24.9c-3.2 2.8-6.4 5.5-9.6 8.3 3.2-2.7 6.4-5.4 9.6-8.3" class="st8"/><path d="M1185.3 960.8c9.7 5.4 18.8 13.7 29.4 15.4 23.1 3.9 47 5.6 70.6 5.7 21.8.1 39.2 1.5 40.3 24.6.3 5.7 4.6 11.4 7.1 17.1-74 30.3-152.1 30.7-231.5 23.3-5.6-.6-12.1-1.8-16.1-4.7-17-12.4-35.3-11.7-55.5-7.6-8.5 1.8-17.9.3-26.9.3-1.3-27.5 10.8-50.1 36.6-67.2-21.7-7.7-41.7-14.9-61.8-22.1l27.9-.9c9.5 1 19.1 3.3 28.4 2.6 30.2-2.3 58.6-1 87.6 10.4 15.9 6.3 37.4 2.5 56.3 3.4 2.5.1 5.1-.1 7.6-.3" class="st23"/><path d="m460.5 932.7-4.2-16.2c1.8-3 3.8-6.1 5.6-9 4.4-.2 8.7-.3 13.2-.6 32.7-.7 65.4-1.3 98.2-2.1 5.7-.1 11.3-.1 17.1-.2 37.4-14.8 74.7-29.7 112.1-44.5 3.9-1.9 7.8-3.8 11.7-5.6 9.4-3.6 18.9-7.1 28.1-11.1 16.2-7.3 32.2-15 48.3-22.5-1.4 2.6-2.7 5.3-4.1 7.9-20.2 12.6-39.1 27.1-60.8 37.4-33.4 15.8-68.7 28.6-103.1 42.6-21.7 8.8-43.5 13.9-68.6 8.7-13-2.6-28-1.3-41.2 1.1-20.9 3.8-36.7 12.1-29.5 34.4 1.5 4.6-3.5 10.8-5.4 16.2-5.1-7.2-10.1-14.3-15.2-21.5-.8-4.8-1.5-10-2.2-15" class="st18"/><path d="M462.5 948c5.1 7.2 10.1 14.3 15.2 21.5-14.5 32.5-43.6 31.6-78 26.9-40.8-5.5-82.5-6.5-123.7-9.7-7.1-.6-14.3-2.3-21.3-3.5 18-4.5 36.1-9 54.1-13.6 38.4 0 77 .4 115.4 0 17.6-.4 35.4-2.3 38.3-21.6" class="st25"/><path d="M688.5 967.6c-10.6 2-21.2 4-31.6 6-22.8 1.3-45.6 3.3-68.5 3.9-9.5.2-19-2.6-28.5-4.1 3.2-6.3 6.5-12.7 9.7-19 50.9-11 101.8-22.2 152.7-33.2-11.2 15.4-22.6 31-33.8 46.4" class="st18"/><path d="M806 816.7c19.8-11 39.4-22.2 59.2-33.2 10.7-3.9 21.3-8.1 32.3-11.6 12.4-4 26.5-10.7 31.4 7.6-32.9 19.3-65.8 38.8-98.9 57.8-13.5 7.7-23 4.4-26.6-9.3-.1-2.1-.2-4.3-.3-6.4.9-1.6 1.9-3.2 2.9-4.9" class="st25"/><path d="M688.5 967.6c11.2-15.4 22.5-31 33.7-46.4 13-5.3 25.9-10.6 38.9-15.8-1.8 3.1-3.3 6.3-5.5 9-14.1 18.5-10.9 23.9 16.1 26.3 9.7-1.3 19.4-2.5 29-3.9.1 5.4.1 10.8.2 16.2-37.3 4.9-74.8 9.8-112.4 14.6" class="st19"/><path d="M569.5 954.4c-3.2 6.3-6.5 12.7-9.7 19-11.2-.2-22.9 1-33.7-1.1-5.3-1-9.1-7.9-13.5-12.1 5.2-2.2 10.4-6.1 15.8-6.4 13.7-.6 27.4.4 41.1.6" class="st29"/><path d="M803 821.7c.1 2.1.2 4.3.3 6.4-5.7.2-11.3.4-17.1.7 1.4-2.6 2.7-5.3 4.1-7.9l.4.3c4.2.1 8.2.4 12.3.5" class="st15"/><path d="M784.1 498.5c11.3 6.6 18.4 10.7 25.3 14.8-9.9 6.5-18.9 15.6-30.1 18.4-6.3 1.7-16.3-7-24.6-10.8 9.1-6.9 18.2-13.9 29.4-22.4" class="st26"/><path d="M590.2 904.5c-5.7.1-11.3.1-17.1.2-13.2-14.9-31.2-14.3-49.9-10.5-17.4 3.5-34.3 7.1-47.5-7.4 26.5-32.7 52.9-65.4 79.4-98.1 9.8-2.2 24.2-1.9 28.7-7.3 10.8-12.7 17.1-28.1 25.1-42.5 1.7-2.6 3.5-5.2 5.2-7.8 6.6-2.6 13.3-5.2 19.9-7.9 32.5-13.6 32.7-14.5 11-40.4 20.3-8.8 40.5-17.7 60.6-26.4-1-2.3-1.9-4.6-2.9-7-7.8-.4-15.8-.3-23.3-1.5-6-1-11.7-3.5-17.5-5.4 3-5.2 5.4-10.7 9.3-15.2 2.7-3.2 7.6-5.1 11.4-7.5-.3 5.8-.6 11.8-.9 16.8 2.5 1.3 3.1 2 3.8 2.1 52.4 6.4 52.3 6.4 61.2 50.3 1.2 5.8 3.7 11.9 7.6 16.8 14.3 17.8 10.7 32.2-12.1 43.2-19.5 9.4-39.4 18.1-59.2 27.1-33.7 31.7-83.6 41.4-123.8 64.2-5.4 3.1-11.8 5.2-16.4 8.9-9.1 7.2-17.3 15.1-25.8 22.7 10.9 2.6 23.8 3 32.3 8.3 34.2 21.4 62.2 6.3 91.7-7.8 9.4-4.5 21.7-5 32.7-7.3-7 4.3-13.6 9.2-21.2 12.7-20.7 9.2-41.5 17.8-62.3 26.7" class="st17"/><path d="M790.3 820.9c-16.1 7.5-32.1 15.2-48.3 22.5-9.1 4.1-18.7 7.4-28.1 11.1.9-2.5 1.6-5 2.5-7.5 2.4-1.7 4.6-3.3 6.9-4.9 8.1-4.7 16.1-9.5 24.2-14.1 35.7-23.1 71.5-46.1 107.3-69 8.1-5.2 16.7-9.9 25.1-14.9.2 2.5.4 5.1.6 7.6-23.2 19-46.3 38-69.5 56.9l-20.4 12.6zm-200.1 83.6c20.7-8.9 41.6-17.7 62.1-26.9 7.6-3.4 14.1-8.4 21.2-12.7 6.6-2.3 13.2-4.6 19.7-7 3 .7 6.2 1.3 9.2 2-37.4 15.1-74.8 29.8-112.2 44.6" class="st16"/><path d="M747.7 828c-8.1 4.7-16.1 9.5-24.2 14.1 8.1-4.7 16.1-9.4 24.2-14.1m-45.4 32.1c-3-.7-6.2-1.3-9.2-2 7.8-3.6 15.5-7.4 23.3-11-.9 2.5-1.7 5-2.5 7.5-3.8 1.7-7.7 3.6-11.6 5.5" class="st17"/><path d="M899.6 723.9c-4 3.8-8.1 7.6-12.1 11.4 4-3.9 8-7.6 12.1-11.4m9.6-11.8c-2.2 2-4.2 4.1-6.4 6.1 2.2-2.1 4.4-4.1 6.4-6.1m24.2-33c-1.7 1.9-3.3 3.8-5 5.6 1.7-1.8 3.4-3.7 5-5.6" class="st16"/><path d="M682.6 619.9c-3.9 2.4-8.7 4.3-11.4 7.5-3.9 4.6-6.3 10.1-9.3 15.2 5.8 1.9 11.4 4.4 17.5 5.4 7.7 1.2 15.5 1.1 23.3 1.5 1 2.3 1.9 4.6 2.9 7-20.2 8.8-40.3 17.5-60.6 26.4 21.7 25.9 21.4 26.8-11 40.4-6.6 2.8-13.2 5.3-19.9 7.9 5.7-9.9 16.3-20 16.2-29.9-.2-18.8-6.7-37.4-10.5-56.2 4.5-4.4 9.1-8.8 13.7-13.2 7-4 14-8.1 21.1-12 2.3-3.2 5.8-6.1 6.6-9.5 2.8-11.9 4.6-24 6.8-36 7.9-3.4 15.8-6.8 23.6-10.3-1.2 17-2.5 34-3.7 51-1.7 1.6-3.5 3.3-5.3 4.8" class="st3"/><path d="M688.1 615.2c1.2-17 2.5-34 3.7-51 .3-6.3.5-12.6.9-18.9l5.4-4.5c3.2 5 5.9 10.3 9.8 14.9 4.2 5.1 9.3 9.7 14 14.5 13.8 26.6 4.8 38.7-33.8 45" class="st17"/><path d="M806.6 663c-12 9.3-19.8 15.4-27.6 21.5-5.6-7.2-16.2-14.7-15.4-21.3.8-6.5 12.1-13.8 20.8-17.1 3-1.2 12 8.8 22.2 16.9" class="st24"/><path d="M800.9 335.6c3 0 6 .1 9.2.1 9.6 1.1 19.3 2.2 28.9 3.4 10 10.8 21.3 21 29.8 32.5 4.5 6.1 8.6 16.2 5.6 21.5-7.5 12.6-12.8 32.7-36.6 26.9-25.6-6.3-41.4 4.3-60.4 14.2-15.2 7.9-34.1 10.8-51.3 16.2-12.5 4-24.8 8.4-37.3 12.5-2.1-.1-4.2-.3-6.3-.4-3.9-13.3-6.4-27-12.1-39.8-9-19.7-20.9-38.5-29.7-58.2-2.3-5 .2-14.2 4.8-18.1 24.4-20.6 55.3-16.1 85.6-13.9 23.2 1.7 46.6 2.1 69.8 3.1" class="st17"/><path d="M800.9 335.6c-23.3-1-46.6-1.3-69.9-3-30.3-2.2-61.2-6.8-85.6 13.9-4.5 3.9-6.9 13-4.8 18.1 8.9 19.7 20.8 38.5 29.7 58.2 5.7 12.7 8.2 26.5 12.1 39.8-1.5 2.8-2.9 5.5-4.4 8.4l-.5.4c-9.5.8-19.3.6-28.3 2.9-4 1-6.3 7-9.3 10.7 4.3 2.3 8.6 4.5 13 6.8 6.8 10.8 13.7 21.6 20.5 32.3-.3 3.1-.6 6.1-1 9.2-3.3.2-6.7.3-10 .6-1.7-1.5-3.6-3.1-5.3-4.6-1.8-4.2-3.6-8.3-5.4-12.5-3.1-4.1-6.3-8.1-9.3-12.1q-7.2-3.9-14.4-8.1c-1.8-1.5-3.7-3-5.5-4.5-.2-6.2-.4-12.4-.6-18.5l6.3-4.5c6.5-2.4 12.8-4.9 19.3-7.4 6.5-5.3 19.7-12.7 18.4-15.7-9-21.5-20.2-42.5-32.6-62.8-3.1-5.1-12.5-9.4-19.8-10.3-16-2-20.2-9.5-19.3-21.2h.2c7.5-2.4 15.7-4 22.1-7.5 39.5-22.1 82.2-27.2 128-18.4 18.7 3.5 37.6 6.5 56.4 9.8" class="st2"/><path d="M662.4 533.7c3.3-.2 6.7-.3 10-.6 2.5-.3 4.9-.7 7.3-1 1.4 1.3 2.8 2.8 4.2 4.1 2.8 3 5.7 6.1 8.5 9-.3 6.3-.5 12.6-.9 18.9-7.9 3.4-15.8 6.8-23.8 10.3-4.9.1-9.6.1-14.5.2-.1-2.9-.1-5.7-.2-8.6 29.1-5.7 10.9-20.7 9.4-32.3" class="st22"/><path d="M653 491.6c-4.3-2.3-8.6-4.5-13-6.8 3-3.8 5.3-9.7 9.3-10.7 9-2.2 18.8-2.1 28.3-2.9-8.2 6.8-16.4 13.7-24.6 20.4" class="st3"/><path d="M839 339.1c-9.6-1.1-19.3-2.3-28.9-3.4l28.5-9.3c.1 4.2.3 8.4.4 12.7" class="st2"/><path d="M692.6 545.3c-2.9-3-5.7-6.1-8.5-9 4.6 1.5 9.3 3.1 13.9 4.5-1.8 1.4-3.6 3-5.4 4.5m-14.5-74.4c1.5-2.8 2.9-5.5 4.4-8.4 2.1.1 4.1.3 6.3.4-3.5 2.8-7.1 5.3-10.7 8m1.7 61.3c-2.5.3-4.9.7-7.3 1 .3-3.1.6-6.1 1-9.2 2.1 2.7 4.2 5.4 6.3 8.2" class="st3"/><path d="M1061.9 571.4c11.6-17.1 23-34.2 34.6-51.2 1.6-.1 3.2-.2 4.8-.4 10.7 5.2 17.7 5 20.1-7.4 1.2-5.8 6.3-11.3 9.5-16.9-3.9 30.6-7.9 61.1-11.8 91.7q-1.8.6-.9 2.1c-4 3.1-8 6.1-12.1 9.2-3.1 1.1-6.3 2.2-9.4 3.3-2.1.4-4.1.9-6 1.3-26.3-.1-24.3-18-28.8-31.7" class="st7"/><path d="M1061.9 571.4c4.5 13.8 2.5 31.7 28.7 31.8-1.7 5-3.6 10-5.3 15l-12 11.4c-1.5 1.1-3.1 2.1-4.6 3.2-10.6-.3-21.1-.6-17.6 12.8-.1.8-.4 1.3-1.1 1.9-30.7-2.5-33.9-7.7-19.1-30.2 10.2-15.5 20.6-30.7 31-45.9" class="st13"/><path d="M1101.2 519.7c-1.6.2-3.2.3-4.8.4-5-4-10-7.9-15-11.9-7.8-.7-15.7-1.3-23.4-2.1-.5 7.4-1.1 14.9-1.6 22.3-3 .9-6 1.7-9.2 2.5-5.1.3-10.3.7-15.3 1-2.8-1.5-5.7-3.2-8.5-4.7 1.4-2.3 2.9-4.6 4.3-7 1.7-2.1 3.5-4.3 5.2-6.4 5-7.3 9.8-14.6 14.8-21.8 7.9-4.5 15.9-9 23.8-13.6 6.8.1 13.5.2 20.3.2 21.7 10.9 22.2 24.9 9.4 41.1" class="st11"/><path d="M1008.1 611c-4.4-5.8-8.9-11.7-17-22.6-2.8 13.7-4.4 21.7-6.5 31.6-4.2-3.1-7.8-5.8-11.4-8.6-1.1-2.4-4.1-5.7-3.1-7.2 12.4-18.4 25.5-36.5 38.3-54.8 5.6-.3 11.3-.6 17-.9 4 8.7 8.1 17.4 12.1 26.1-2.9 2.5-5.8 5.2-8.7 7.7-4.4-5.1-9-10.1-14.4-16.3-16.4 13.8-5.2 25.9-1.4 37.8-1.7 2.5-3.3 4.8-4.9 7.2" class="st1"/><path d="M1068.7 632.7c1.5-1.1 3.1-2.1 4.6-3.2 4.6-1.4 9.3-2.8 13.9-4.2-5.8 6.8-11.7 13.8-17.7 20.6-12.5 14.5-25.2 28.8-37.7 43.2-2.9 1.5-5.7 3-8.6 4.5l-5.4 12.6.3-.3c-8.3 13.6-16.6 27.1-24.9 40.8-1.7-.6-3.5-1.1-5.2-1.7 7.2-38.5 29.5-70.4 61.9-97.7.6-.6 1-1.1 1-1.9 6-4.2 11.9-8.4 17.8-12.7m-31.2-57.9c-4-8.7-8.1-17.4-12.1-26.1 2.2-5.5 4.3-10.9 6.6-16.4 5.1-.3 10.3-.7 15.3-1 8.8 16.2 2.5 30.3-9.8 43.5" class="st20"/><path d="M1056.4 528.6c.5-7.4 1.1-14.9 1.6-22.3 7.8.7 15.7 1.3 23.4 2.1-5.8 8.8 3.2 30.4-25 20.2" class="st1"/><path d="M1012.9 604c-3.8-12-15-24 1.4-37.8 5.4 6.2 9.9 11.3 14.4 16.3-5.2 7.2-10.5 14.3-15.8 21.5" class="st20"/><path d="M859 223c1.2-5.3 2.5-10.6 3.7-15.8-1.3 5.2-2.5 10.5-3.7 15.8m7.2-27.9c2.8-3.9 5.7-7.7 8.5-11.6-2.8 3.8-5.7 7.7-8.5 11.6m48.2-35.5c3-.9 6-1.9 9.1-2.9-3.1 1.1-6.1 1.9-9.1 2.9" class="st22"/><path d="m1005.5 945-27.9.9c-3.6-1.5-7.2-3.1-10.8-4.6 11.2-5.8 22.6-11.6 33.9-17.4 13.1 3.1 26 6.1 39.1 9.2-11.4 3.9-22.8 7.9-34.3 11.9" class="st16"/><path d="M959 256.6c-.2-2.3-.4-4.6-.6-7 18.8 2.6 37.6 5.4 56.4 8.1 0 6.3-.1 12.5-.1 18.8-15.7-1.7-31.3-3.3-48.6-5.2-2-4.1-4.5-9.4-7.1-14.7" class="st24"/><path d="M972.5 413.7c-.8-7.9-1.4-16-2.3-23.9-2.4-23.3 12.3-38.5 41-42.3.2 12.2.3 24.6.5 36.8-2.8 5.6-7.6 11.1-8.1 16.9-1.1 12 0 24.2.2 36.3-.1 1.8-.3 3.5-.4 5.3.3 3.3.6 6.6 1.3 13.9 2.8-6 3.7-7.7 4.4-9.5 1.7 3.1 5.5 6.7 4.8 9.3-4.2 13.1 3.6 16.3 17 15.9.1.8.2 1.5.2 2.3-6.3 8.3-12.5 16.5-18.8 24.7-2.7-2.9-5.4-5.7-8.1-8.6.8-7.4 3.2-14.9 1.9-22-3.7-20.3-8.7-40.5-13.4-60.6-.9-4-2.5-7.7-3.7-11.6-4 10.6-2.5 20.4-1.8 30.3.5 10.1 1.8 20.6-.3 30.4-1.4 6.4-8.5 11.9-13.1 17.9-.3-20.6-.8-41.1-1.3-61.5" class="st20"/><path d="M973.9 475.2c4.5-6 11.7-11.5 13.1-17.9 2.2-9.8 1-20.3.3-30.4-.5-9.9-2.2-19.7 1.8-30.3 1.3 3.9 2.8 7.7 3.7 11.6 4.6 20.2 9.7 40.3 13.4 60.6 1.3 7.1-1.2 14.7-1.9 22-10.1-5.3-20.3-10.5-30.4-15.6" class="st24"/><path d="M1012.4 499.3c6.3-8.3 12.5-16.5 18.8-24.7 5.4 5.8 10.9 11.8 16.3 17.7-5 7.3-9.8 14.6-14.8 21.8-2.9-.4-5.8-1-8.7-1.4-3.8-4.6-7.7-9-11.6-13.4" class="st21"/><path d="M1031.9 532.1c-2.2 5.5-4.3 10.9-6.6 16.4-5.7.3-11.3.6-17 .9 5-7.4 9.9-14.7 14.9-22.1 3.1 1.7 5.9 3.2 8.7 4.8m-7.9-19.5c2.9.4 5.8 1 8.7 1.4-1.7 2.1-3.5 4.3-5.2 6.4-1-2.6-2.2-5.2-3.5-7.8" class="st15"/><path d="M1003.3 891.3c3.5-14.5 4.9-29.6 11.1-43.1 3.5-7.5 15-12.5 22.9-18.5 3.6-14.8 7.1-29.5 10.6-44.2 14.8 32.4 11.6 64.3-5.7 95.2-3.5 6.2-12.4 10.1-18.8 15.1-6.6-1.4-13.3-3-20.1-4.5" class="st16"/><path d="M1048.1 785.5c-3.6 14.8-7.1 29.5-10.6 44.2-3-10.3-6-20.4-10.9-36.6-5 13.6-7.9 21.8-11.6 31.8-11.9-11.5-22.9-22.2-34-33 6.8-8.2 13.6-16.4 20.5-24.6 9.9 23.2 32.7 11.3 50.4 13 0 1.1.1 2.3.2 3.4-1.2.7-2.6 1.3-4 1.8m-44.8 105.8c6.8 1.5 13.5 3 20.3 4.5 13.2 7.8 26.2 15.7 39.4 23.5 2.4 3.1 4.9 6.2 7.2 9.3-10.1 1.4-20.3 2.9-30.4 4.4-13.1-3.1-26-6.1-39.1-9.2 4.3-1.7 8.6-3.3 13.7-5.3-12.3-8.9-24.5-17.8-36.6-26.6zm-25.1.5c-2.2-1.4-4.3-2.8-6.5-4.2 2.2 1.5 4.4 2.9 6.5 4.2" class="st17"/><path d="M1011.8 384.3c-.2-12.2-.3-24.6-.5-36.8 3.8-5.6 7.5-11.3 11.2-16.9 4.6 3 9.4 6 14 8.9.2 2.6.5 5.3.8 7.9-.2 5.5-.4 11.1-.6 16.7h-13.3c-1.3 2.1-2.6 4.2-4 6.2-.3 10.1-.8 20.3-1.1 30.4-2.1-5.3-4.2-10.9-6.5-16.4" class="st1"/><path d="M962.6 342.1c-.2-.7-.3-1.3-.1-2.1 16.7-14.1 33.4-28.1 50.1-42.1-2.5 23.7-19.1 38.4-50 44.2m-4.1 5c1.4-1.4 2.7-2.9 4.1-4.3-1.4 1.4-2.9 2.8-4.1 4.3" class="st3"/><path d="m790.8 821.2 20.4-12.6c-1.7 2.6-3.5 5.4-5.1 8.1-1 1.7-1.9 3.3-3 5.1-4.2-.2-8.2-.5-12.3-.6" class="st18"/><path d="M1052.2 783.7c-.1-1.1-.2-2.3-.2-3.4-2.2-8.8-3.9-17.9-6.5-26.6-3.6-12.1-8.2-24-11.3-36.2-1.2-4.5.4-9.5 1.1-17.9l-18.2 18.2c.4-4 .9-7.8 1.3-11.8l-.3.3 5.4-12.6c2.9-1.5 5.7-3 8.6-4.5 17.9-6.2 40.5-6 48.8-25.9 1.5-3.6 14.5-8.1 15-7.4 11 12 15.7.4 18.8-4.3 5.2-7.9 4.4-21.3 11.7-25.2 19.7-10.5 6.8-14.7-2.8-23.1-5.1 6.5-8.2 12.2-13.4 16.1-2.2 1.7-8.6-.7-13.1-1.1 1.9-4.9 4-9.7 5.9-14.6 1.1-1.8 2.2-3.5 3.2-5.2 4-3.1 8-6.1 12.1-9.2 12.4-2.4 24.8-4.9 37.1-7.3 21.6 1.3 43.1 2.8 65.8 4.2-27 16.9-49.8 30.4-71.5 45.2-5.1 3.4-5.9 11-8.7 16.8-21.4 22-42.8 43.9-64.1 65.9 1.8 17.9 3.6 35.7 5.4 53.7-1.9 8.1-3.8 16-5.7 24-1.5-.7-3-.9-4.6-.7-6.9-2.3-13.3-4.8-19.8-7.4" class="st24"/><path d="m1017 717.8 18.2-18.2c-.6 8.4-2.3 13.3-1.1 17.9 3.1 12.1 7.8 24 11.3 36.2 2.6 8.8 4.3 17.8 6.5 26.6-17.7-1.8-40.6 10.1-50.4-13 5.1-16.6 10.3-33 15.5-49.5" class="st26"/><path d="M1047.5 492.3c-5.4-5.8-10.9-11.8-16.3-17.7-.1-.8-.2-1.5-.2-2.3 13-5.3 31.4-7.3 20.4-26 31.3 2.5 31.3 2.5 29.5-12.8 7.3-1.1 14.7-2.3 24.4-3.9-3.9-6.1-7.8-12-12.8-19.9 7.3-5.6 15.1-11.6 23-17.7 5.4 1.4 10.7 2.9 16.1 4.3l-.9.8c.4 5.8.9 11.6 1.2 17.4-20.2 21.4-40.4 42.7-60.6 64.1-7.9 4.6-15.8 9.1-23.8 13.7m18.4-27.8c-1.4-.1-2.6-.4-3.7-.2-.4.1-1.2 1.4-1 1.7.8.9 1.8 1.4 2.7 2.2.7-1.2 1.2-2.4 2-3.7" class="st24"/><path d="M1080.9 433.3c1.8 15.3 1.8 15.3-29.5 12.8 11 18.6-7.5 20.7-20.4 26-13.4.6-21.2-2.6-17-15.9.9-2.5-3-6.2-4.8-9.3-1.9-1.4-3.8-2.9-5.7-4.4.1-1.8.3-3.5.4-5.3 5.8-5.5 11.7-11 17.4-16.5 13.6 9 17.6 3.9 17.3-8.1 1.6-.1 3.1-.2 4.8-.4 15.1 3.8 27 11.7 37.5 21.1" class="st21"/><path d="M1043.3 412.4c-1.5.2-3.1.3-4.8.4-.6-16.2-1.3-32.4-1.9-48.7.2-5.5.4-11.1.6-16.7 1.9.3 3.9.6 5.8.9 1.2 2.6 2.4 5.4 3.6 8.1.4 2.6 1 5.3 1.4 7.9-1.4 16.1-3.1 32.1-4.7 48.1" class="st24"/><path d="M1043.2 348.4c-1.9-.3-3.9-.6-5.8-.9-.2-2.6-.5-5.3-.8-7.9 19.3 2.1 38.7 4.3 58.1 6.4-.2 1.5-.5 3.2-.8 4.7-16.9-.9-33.8-1.5-50.7-2.3m67.8 27.9c-1.3-.3-2.5-.8-3.8-1.1 1.3.3 2.7.6 4 .9zm-62.9-12c-.4-2.6-1-5.3-1.4-7.9.5 2.6.9 5.2 1.4 7.9" class="st21"/><path d="M1238.8 441.9c-14.4 1.8-28.7 3.5-43 5.3-19.8 9.3-39.4 18.6-59.2 27.9-3.3-2.9-6.6-5.6-9.9-8.5-2.1-2.8-4-5.4-6-8.2 1.7-2.8 3.6-5.5 5.3-8.2 6.7 1 13.5 2 23.1 3.3-4.8-12.7-13.6-26 11.6-23.7 8.2-12.5 16.4-24.9 24.6-37.3h.1c19.7-16.1 37.7-10.6 55 3 10.4 8.2 19 15.6 1.4 26-4.6 2.9-2.2 13.5-3 20.4" class="st7"/><path d="M1126.7 466.8c3.3 2.9 6.6 5.6 9.9 8.5-.2 4.1-.4 8.1-.6 12.1-1.7 2.6-3.3 5.4-5.1 8.1-3.3 5.6-8.4 10.9-9.5 16.9-2.4 12.4-9.4 12.6-20.1 7.4 12.8-16.2 12.3-30.3-9.5-40.8 12.5-18.8 22.7 2.3 36.3 1.8-.7-5.1-1-9.5-1.4-14m58.6-74.1c-8.2 12.5-16.4 24.9-24.6 37.3-2.2-7.2-4.3-14.3-6-20.2 10.7-6 20.7-11.5 30.6-17.1m-59.3 57.7c-1.7 2.8-3.6 5.5-5.3 8.2 1.8-2.8 3.5-5.4 5.3-8.2" class="st13"/><path d="M1122.8 356c-1.4 0-3.5.4-3.9-.1-.8-.9-.3-2.3-.4-3.5 1.4.1 3.3-.3 3.9.3.7.7.3 2.2.4 3.3" class="st20"/><path d="m1131.5 396.4.8 1.3-1.6-.5z" class="st24"/><path d="M1678.8 54.3c4.4-10.3 9.4-22 14.5-33.5 2.5-.4 5-.9 7.6-1.3 6.3 11.5 12.5 22.8 19.1 34.9-14.6-.1-26.8-.1-41.2-.1" class="st4"/><path d="M1169.4 478.9c.6 4.5 1.3 9 1.9 13.5 0 6.3.1 12.7.1 19 1.3 3.1 2.7 6.2 4 9.3 1.4 0 2.7-.1 4.1-.3 1.9 4.2 3.9 8.3 5.8 12.5 1.3-.1 2.5-.1 3.8-.1 1.8 1.3 3.7 2.6 5.4 4 .2 3.5.3 7.1.5 10.5 1.7 2.6 3.5 5.2 5.1 7.8 0 2.4 0 4.9.1 7.4-4.8 1.4-9.5 2.9-14.1 4.3-13.3-8.5-26.6-16.9-40-25.4-.1-18-.2-36-.4-53.9 8-3.1 15.9-5.8 23.7-8.6" class="st17"/><path d="M1242.5 454.2c10.1 20.7 23.5 40.5 16.5 64.9-2.3 7.8 2.9 17.1 4.6 25.7-10.9-5.5-21.9-11.1-32.8-16.7-3.3-2.1-6.8-4.3-10.1-6.4-.5-1.5-1-3.1-1.5-4.7 1.9-1.5 3.8-3.2 5.7-4.7 20 0 21.5-8.1 17-22.4-3.7-11.3-21.3-24.3.6-35.7m-73.1 24.7c-7.9 2.8-15.8 5.5-23.6 8.2-3.2.1-6.6.2-9.8.3.2-4.1.4-8.1.6-12.1 19.8-9.4 39.4-18.6 59.2-27.9 1.4 2.4 4.8 6.4 3.9 7.1-9.7 8.3-20.1 16.4-30.3 24.4" class="st20"/><path d="M1189.1 532.5c-1.3 0-2.5.1-3.8.2-.1-6.7-.1-13.6-.2-20.3l.2-.3c1.5-2.6 3.1-5.3 4.6-7.9l.2-.3c2.5-2.6 5-5.4 7.5-8.1 2.4 4.1 4.9 8.2 7.2 12.2-1.9 2.4-3.9 5-5.8 7.4-1.4 3.1-2.8 6.2-4.2 9.4l.2-.3c-1.9 2.6-3.9 5.3-5.9 8" class="st24"/><path d="M1179.5 520.3c-1.3.2-2.7.3-4.1.3-.3-3-.8-6-1.1-8.9 2.1-5.3 4.1-10.6 6.2-15.9 3.3.1 6.7.1 10 .2-.1 2.5-.2 5.2-.2 7.7l-.2.3c-1.5 2.6-3.1 5.3-4.6 7.9l-.2.3c-2 2.8-4 5.4-5.8 8.1m45.3-8.1c-1.9 1.5-3.8 3.2-5.6 4.7l-9.3-.3c0-2.9 0-5.7-.1-8.6 5 1.4 10.1 2.8 15 4.2" class="st24"/><path d="M1180.5 495.8c-2.1 5.3-4.1 10.6-6.2 15.9-1 0-1.9-.1-2.9-.2 0-6.3-.1-12.7-.1-19 3.1 1.1 6.1 2.2 9.2 3.3" class="st14"/><path d="M1209.8 508c0 2.9 0 5.7.1 8.6l.1-.2c-1.8.1-3.8.3-5.6.4-1.7-.4-3.6-1-5.3-1.4 1.9-2.4 3.9-5 5.8-7.4z" class="st20"/><path d="M1190.2 503.8c.1-2.5.2-5.2.2-7.7 2.4-.1 4.8-.2 7.1-.3-2.4 2.6-4.8 5.3-7.3 8" class="st16"/><path d="M653.4 566.1c.1 2.9.1 5.7.2 8.6-1.6 1.3-3.2 2.6-4.8 4-3.2 5.6-8 11-9.4 16.9-2.9 12-4 24.3-5.9 36.4-4.5 4.4-9.1 8.8-13.7 13.2-4.3 5-8.5 10-12.8 15-2.7 7.9-7.2 15.9-7.7 24-1.3 24.3-9.5 45.1-35.2 58.9-.6-1.2-2.3-3.2-1.8-3.6 25.1-24.2 25.6-54.7 32.7-83.8 2.6-10.4 13.1-20.3 22.4-28.5 10.9-9.7 17.2-18.3 13.3-32.8-2.1-7.3 5-16.3 7.9-24.6 4.8-1.4 9.5-2.9 14.3-4.4z" class="st8"/><path d="M564.2 743.2c25.6-13.8 33.9-34.6 35.2-58.9.4-8.1 5-16 7.7-24 .4 18.1 9 40.2-.3 53.5-22.1 31.4-52.7 58.7-79.9 87.7l-1.9-.8c8.2-13.7 16.5-27.4 24.7-41 4.8-5.5 9.7-11.1 14.5-16.5" class="st22"/><path d="M662.4 533.7c1.4 11.7 19.7 26.6-9.1 32.3l-.5-.4c5.5-19.9-10.9-47.5-34.1-57.4-3.3-2.8-6.7-5.6-9.9-8.4 1.3-7 2.7-14 4-21 3.3 4.4 6.6 8.7 9.9 13.1 1.8 1.5 3.7 3 5.5 4.4q7.2 3.9 14.4 8.1c3.1 4.1 6.3 8.1 9.4 12.1 1.8 4.2 3.6 8.3 5.3 12.5 1.6 1.6 3.4 3.2 5.1 4.7" class="st8"/><path d="M618.8 508.1c23.2 9.8 39.6 37.6 34.1 57.4-4.8 1.4-9.5 2.9-14.3 4.4-6.7-20.6-13.3-41.1-19.8-61.8" class="st10"/><path d="M549.6 759.7c-8.2 13.7-16.5 27.4-24.7 41-3.3 1.3-6.8 2.6-10.1 4 4-19.1 11-36.6 34.8-45" class="st8"/><path d="M584.2 392.6c11.4 12.4 22.9 24.7 34.2 37.1-11.3-12.4-22.8-24.7-34.2-37.1m28.5 86.2c-1.3 7-2.7 14-4 21-4.2-7-8.5-14-12.7-21q11.4-3 22.8-5.7c-2.1 1.8-4 3.8-6.1 5.7" class="st10"/><path d="M612.7 478.8c2.1-2 4-3.9 6-5.8 1.1.1 2.2.2 3.2.4.2 6.2.4 12.4.6 18.4-3.2-4.2-6.4-8.6-9.8-13" class="st22"/><path d="M623.8 438c1.5 5.5 3 10.9 4.5 16.4-1.4-5.4-3-10.9-4.5-16.4" class="st10"/><path d="M526.8 801.5c27.2-29 57.8-56.3 79.9-87.7 9.4-13.2.8-35.4.3-53.5 4.2-5 8.5-10 12.8-15 3.9 18.8 10.3 37.4 10.5 56.2.1 9.9-10.5 20-16.2 29.9-1.7 2.6-3.5 5.2-5.2 7.8-17.9 16.5-35.8 33.2-53.8 49.8-26.5 32.7-52.9 65.4-79.4 98.2-.2 6.6-.5 13.2-.8 19.9-4.4.2-8.7.3-13.2.6-7-28.9 19.3-46.1 34.1-67.2 9.6-13.6 20.7-26.1 31-39" class="st2"/><path d="M594.1 351.6c-.9 11.7 3.3 19.2 19.3 21.2 7.2.9 16.7 5.2 19.8 10.3 12.4 20.3 23.5 41.3 32.6 62.8 1.3 3.1-11.9 10.4-18.4 15.7-1.5-10.7-1.9-21.6-5.1-32-2.3-7.7-9.7-14.3-11.9-22-3.7-13.2-10.9-20.9-27.6-24.7-21.5-4.9-23.6-15.5-8.7-31.3" class="st22"/><path d="m1460.7 718.7.3 12.7c-13.4-7-26.8-13.9-40.2-20.9-7.9-1.9-15.8-3.9-23.6-5.7-40.2.8-80.3 1.5-120.5 2.3.1 2.4.3 4.9.4 7.3h100.4c-6.7 4.1-13.3 8.1-20 12.1-10.3 2.6-20.4 5.3-30.7 7.9-4.8-2.9-10.4-8.9-14.1-8.3-26.3 5.1-52.3 11.6-78.3 17.5-5.5-5.5-11.1-10.9-16.3-16.1 12.7-2.6 24.4-5.1 36-7.5-.4-1.8-.9-3.5-1.4-5.4-17.9 2.1-36 3.4-53.6 6.5-18.4 3.3-27.8 13.1-24.1 29.7-6.2 2.9-12.3 5.7-18.6 8.6-2.3 2.6-4.5 5.3-6.8 7.9-4.9-.8-9.7-1.4-14.5-2.2 1.8-4.4 3.7-8.9 5.6-13.3 23-6.6 21.3-26.5 30.8-40.3 1.5-.2 3-.6 4.4-1 56.1-16.8 111.2-37.3 172.8-36 1.6.6 3.2 1.1 5 1.7-13.1 5.7-26.1 11.5-36.2 15.8 40 3.5 83.4 7.4 126.8 11.3 5.6 5.3 11 10.4 16.4 15.4" class="st26"/><path d="M1239.2 619.5c7.8-.4 15.9 0 23.3-1.5 21.2-4.5 41.2-5 62.5 6.4-19.5 1.7-36.3 3.1-56.3 4.9 24.3 7.1 44.3 12.8 64.2 18.6-6.8-.6-13.5-1-20.3-1.5-4.8-.7-9.4-1.3-14.1-2-4.9 1.8-9.7 3.4-14.5 5.2-5 2.4-9.9 5-14.9 7.4-2.9 1.4-5.9 2.9-8.9 4.3-.3 2.5-.5 5.1-.9 7.6l-.3.2c-15.3 2.3-30.6 4.5-47.4 7.1 2.3-7.3 3.5-11.3 4.2-13.8-14.4 4-27.6 7.6-40.9 11.3-2.8 2.3-5.6 4.7-8.4 7.1l-5.7 4.5-9.6 1.2c3.2 7.8 6.6 15.7 9.8 23.6-8.4 7-16.8 13.9-25.3 20.7-6.5-2.8-13-5.4-19.4-8.2 5.2-43.8 40.8-64.4 84.8-80.1 14-5.1 25.5-15.2 38.1-23m-53.1-53c4.8-1.4 9.5-2.9 14.1-4.3 24.5-4.3 49.1-8.6 73.6-13 5 1.5 9.9 3.1 14.9 4.6-4.2 8.3-8.4 16.5-14.9 29.3 12.6-4.7 19.3-7.3 26.1-9.8 1.6 1.9 3.2 3.6 4.9 5.5-6.5 3.9-12.3 9.4-19.5 11.3-32.3 8.3-64.9 15.6-97.5 23.1.2 2.1.4 4.1.6 6.2 3.8 1.4 7.5 2.9 11.2 4.3-19.5 8.3-39.2 16.4-58.8 24.7 2.8-5.7 3.8-13.3 8.7-16.8 21.7-14.8 44.5-28.4 71.5-45.2-22.7-1.4-44.3-2.9-65.8-4.2 10.4-5.3 20.6-10.5 30.9-15.7" class="st26"/><path d="M1140.8 648.4c19.7-8.3 39.2-16.4 58.8-24.7 13.2-1.4 26.3-2.8 39.6-4.2-12.6 7.8-24.1 18-38.2 23.1-43.9 15.7-79.6 36.3-84.8 80.1-6.7-1.3-13.4-2.5-20.1-3.9-3.3-.4-6.8-.9-10.1-1.3-3.1-1.1-6.3-2.1-9.3-3.2 21.4-22 42.7-44 64.1-65.9" class="st21"/><path d="M1312.6 646.4c6.8.6 13.5 1 20.3 1.5 23.5 9.5 47.1 19 70.5 28.5-1.4 3.4-2.8 6.8-4.2 10.3-15.1-3.4-30.2-6.8-45.4-10.3-1.6-.6-3.2-1.1-4.9-1.7-12.1-9.5-24.2-18.9-36.3-28.3" class="st20"/><path d="M1319.7 607.9c30.4-.8 51.8 11.8 67.7 32.3-21.2 5-38.3.6-51.2-14.9-4.9-6.1-10.8-11.7-16.5-17.4" class="st1"/><path d="M1367.9 599.5c-2.7-2.9-5.4-5.7-8.1-8.5 1.1-.8 2.2-1.7 3.1-2.4 3.1 2.4 6.2 4.9 9.3 7.4-1.4 1.1-2.8 2.3-4.3 3.5" class="st26"/><path d="M1397.2 704.8c7.9 1.9 15.8 3.9 23.6 5.7 1.7 13.8 3.5 27.6 5.2 41.4-.3 2.5-.5 5.1-.9 7.6-14.1-2.8-28.3-5.5-42.4-8.3-18.4-1.1-26.3-9.7-25.2-24.8 6.7-4.1 13.3-8.1 20-12.1 6.6-3.1 13.2-6.3 19.7-9.5" class="st2"/><path d="M1382.8 751.3c14.1 2.8 28.3 5.5 42.4 8.3 7 6.8 14 13.8 21.1 20.6-5.2 9-9.5 14.3-22.8 5.1-9.6-6.7-24-8.7-36.3-12.8-1.5-7.1-3-14.2-4.4-21.2" class="st17"/><path d="M1273.9 549.2c-24.5 4.3-49.1 8.6-73.6 13 0-2.4 0-4.9-.1-7.4 4.4-4.3 8.7-8.6 13.2-12.8 5.8-4.6 11.7-9.3 17.5-13.9 10.9 5.5 21.9 11.1 32.8 16.7 3.3 1.4 6.8 2.9 10.2 4.4" class="st21"/><path d="M462.5 948c-2.9 19.4-20.6 21.3-38.2 21.5-38.4.6-77 .1-115.4 0 14.3-7.9 27.5-17.5 42.9-23.4 16.1-6.2 35.5-6.7 51.1-13.6 20.4-8.9 38.4-8.7 57.7.1.6 5.1 1.3 10.3 1.9 15.4" class="st28"/><path d="M1070.2 928.6c-2.4-3.1-4.9-6.2-7.2-9.3.8-2.4 1.5-4.9 2.3-7.3 38.9-6.8 77.9-13.1 116.6-20.6 17.7-3.4 38.9-5.5 51-14.9 12.5-9.8 20.9-10.8 36-8.3 10.7 1.9 25.8.9 33.1-4.5 5.4-4 1.3-17 1.4-25.9 5-4 10-8.1 15-12 19.5 10.9 39.1 21.7 58.7 32.7.3 30-.1 28.5-34.2 35.7-40.9 8.7-81 20.2-121.3 30.9-23.8 6.3-47.3 13.3-70.8 20.1-2.4.1-4.8.2-7.1.3-25.1-4.5-53.4 1.7-73.5-16.9" class="st23"/><path d="M1501.9 921.2c15.8 1.3 31.6 2.6 47.4 4.1-4.3 1.7-8.6 3.4-15.7 6.2 10.8 4.2 19.9 7.7 29 11.4.2 2.1.4 4.2.6 6.4-11.4 2.9-22.7 7.5-34.3 8.2-35.5 2.2-71.3 2.8-106.9 4.2-7.1.3-14.3 1.3-21.4 2.1-10.5-.6-20.9-1.1-31.4-1.8-25.4-.6-50.9-1.1-76.2-1.5-20.6-.9-41.2-1.9-61.9-2.8-12.5-4-25.2-7.9-37.8-12 77.1-6.5 154.3-13 231.4-19.5 3.6-.6 7-1.2 10.6-1.8 22.2-1.1 44.5-2.1 66.6-3.2" class="st26"/><path d="M1376.9 858.4c-19.5-10.9-39.1-21.7-58.7-32.7 3.3-5.5 6.8-11 10.1-16.5 5 .1 9.9.1 14.9.2 2.6 16.7 11.6 27.8 33.7 27.9 13.3 1.3 26.5 2.8 39.7 4.1 3.3.7 6.7 1.4 10 2.1 6.2 4 12.3 7.9 18.5 11.9-12.2 12.5-25.1 5.7-39 2.2-8.8-2.2-19.4.4-29.2.8" class="st18"/><path d="M1193.4 945.5c12.6 4 25.2 8.1 37.8 12-15.2 1.1-30.4 2.2-45.8 3.3-2.6.2-5.2.4-7.8.7-11.4-5.3-22.8-10.7-34.2-16 2.4-.1 4.8-.2 7.1-.3 14.3 0 28.7.1 42.9.3" class="st17"/><path d="M1530.2 846.8c-4.8 2.9-9.4 5.8-14.1 8.7-10.8-.6-21.5-1.2-32.3-1.8-3.8-.8-7.6-1.5-11.3-2.3-4.3-.4-8.5-.8-12.8-1.1-7.9-2.6-15.7-5.3-23.5-7.9 3.3-1.5 6.8-3.1 10.1-4.6 3.3.2 6.7.4 10 .7 3.1.1 6.4.1 9.5.2 13.5.8 27 1.4 40.5 2.2 6.3 1.8 12.5 3.5 18.8 5.3 1.6-.3 3.1-.6 4.8-.9z" class="st20"/><path d="M1436 842.3c7.9 2.6 15.8 5.3 23.5 7.9-4.9 1.8-9.6 3.4-14.5 5.2-6.2-4-12.3-7.9-18.5-11.9 3.3-.4 6.4-.9 9.5-1.2m36.4 9.2c3.8.8 7.6 1.5 11.3 2.3-3.7-.9-7.5-1.7-11.3-2.3" class="st16"/><path d="M1435.4 924.3c-3.6.6-7 1.2-10.6 1.8 3.6-.7 7.1-1.3 10.6-1.8" class="st21"/><path d="M1234.5 743.8c26-6.1 51.9-12.5 78.3-17.5 3.8-.8 9.4 5.3 14.1 8.3-3.9 3.2-7.8 6.3-11.6 9.5 3.9 1.3 7.8 2.4 11.4 4.1 14.8 6.4 34.2 7.3 40.5 23.8-13.1 2.8-26.2 5.4-39.3 8.2-5-1.1-10-2.3-15-3.4-6.2.4-12.3.8-18.5 1.1-.5 0-1.1 0-1.6.1.5.4 1.1.9 1.6 1.2-1.9 6.3-3.9 12.6-5.8 18.9-3.3-4.4-6.6-8.9-9.9-13.3-6.3-1.2-12.5-2.5-18.9-3.8-5.2 1.1-10.3 2.2-15.4 3.3-7.2 2.5-16.8 8.8-21.4 7-21.9-9.4-31.1 3.8-42.4 14.1h-22.1c14.3-19 12.2-27.1-8.4-37.6 2.3-2.6 4.5-5.3 6.8-7.9 6.3-1.3 12.4-2.8 18.7-4.1 9.8 3.2 21.4 10.8 29 8.7 11.3-3.5 20-13.5 29.9-20.7" class="st20"/><path d="M1180.6 805.1c11.3-10.4 20.6-23.5 42.4-14.1 4.5 2 14.1-4.4 21.4-7 0 7.8-1 15.8.5 23.4.8 3.6 6.2 6.6 9.4 9.9 24.6-2.8 49.3-5.4 74-8.2-3.3 5.5-6.8 11-10.1 16.5-5 4-10 8.1-15 12-14.7 1.7-29.4 3.3-43.9 5-1.4-1-2.9-1-4.3 0-5.4.8-10.8 1.4-16.1 2.2-21.7-5.6-41.9-13.6-66.4-2.6-10.1 4.5-34.8 9.3-38.4-13.2 15.3-7.9 30.8-15.9 46.5-23.9" class="st24"/><path d="M1436 842.3c-3.1.4-6.3.8-9.4 1.2-3.3-.7-6.7-1.4-10-2.1-11.1-12-4.6-23.9.2-36 21.8.4 43.8-.8 65.2 2.1 8.3 1.1 14.8 11.4 22.1 17.4-10-2.5-19.9-5.8-30.1-7.4-18.4-2.8-30.7 1.4-27.8 20q-5.1 2.55-10.2 4.8" class="st17"/><path d="M1367.4 771.9c-6.3-16.5-25.7-17.4-40.5-23.8-3.7-1.5-7.7-2.8-11.4-4.1 3.9-3.2 7.8-6.3 11.6-9.5 10.3-2.6 20.4-5.3 30.7-7.9-1.2 15.1 6.7 23.6 25.2 24.8 1.5 7.1 3 14.1 4.5 21.2-6.9-.2-13.6-.5-20.1-.7" class="st21"/><path d="M1416.8 805.5c-4.9 11.9-11.2 23.9-.2 36-13.3-1.4-26.5-2.8-39.7-4.1-2.9-11.3-14.8-23.5 5.3-32.1 11.5-.1 23.1 0 34.6.2" class="st20"/><path d="M1446.2 837.7c-2.9-18.5 9.4-22.8 27.8-20 10.3 1.5 20.1 4.9 30.1 7.4.6 5.2 1.4 10.5 2.1 15.7-13.5-.8-27-1.4-40.5-2.2-3.1-.1-6.4-.1-9.5-.2-3.3-.4-6.7-.5-10-.7" class="st21"/><path d="M1382.3 805.1c-20.2 8.6-8.2 20.9-5.3 32.1-22.1 0-31.1-11.3-33.7-27.9q19.35-1.95 39-4.2" class="st16"/><path d="M1254.3 817.4c-3.2-3.3-8.6-6.3-9.4-9.9-1.5-7.6-.5-15.6-.5-23.4 5.2-1.1 10.3-2.2 15.4-3.3-.1 1.2-.3 2.5-.5 3.8-.5.3-1.5.9-1.4 1.1.4.9 1.1 1.7 1.6 2.5-1.7 9.6-3.5 19.5-5.2 29.2" class="st17"/><path d="M1278.6 784.5c3.3 4.4 6.6 8.9 9.9 13.3-3.7 2.9-7.2 5.7-10.9 8.5-1.7-1.1-3.6-2.3-5.3-3.4 2.2-6.1 4.3-12.2 6.3-18.4m34.3-7.9c5 1.1 10 2.3 15 3.4.3 1.1.4 2.3.3 3.4-1.7 1.5-3.5 3.2-5.2 4.7-2.9 3.4-5.8 6.7-12.2 14 1.2-11.8 1.7-18.6 2.1-25.5" class="st24"/><path d="M1323.2 788.2c1.7-1.5 3.5-3.2 5.2-4.7-1.7 1.5-3.5 3.2-5.2 4.7" class="st20"/><path d="M1294.5 779.1c-.5-.4-1.1-.9-1.6-1.2.5 0 1.1 0 1.6-.1zm235.3 66.1c-1.6.3-3.1.6-4.8.9q2.4-.6 4.8-.9m-270.3-57.1c-.5-.9-1.3-1.7-1.6-2.5-.1-.2.9-.8 1.4-1.1.1 1.2.1 2.4.2 3.6" class="st24"/><path d="M71.7 19c11.1 2.8 26.6 3.3 28.2 7.6 3 7.8 0 18.8-4.8 26.6-2.5 4.2-14 4.4-23.5 7.1.1-15.2.1-26.4.1-41.3" class="st4"/><path d="m168.1 17.2 1.8 12.9c-3 9.3-6 18.5-9.4 29.1-16-23.6-13.6-34.8 7.6-42" class="st28"/><path d="M244.3 37.5c9.2-1.4 18.2-2.9 28.8-4.5 4 8.9 8.1 16.5-10.9 14.2-4.1-.6-8.7 2.1-13.1 3.3-1.6-4.3-3.2-8.7-4.8-13" class="st27"/><path d="M188.9 57.3c-2.6 0-5.2 0-7.7.1.5-3.5 1.2-7.2 1.7-10.7h3.9c.8 3.4 1.5 6.9 2.1 10.6m-48.4-10c-5.7-.7-11.3-1.3-17.1-2 0-.7.1-1.4.1-2.1h17.4c-.2 1.4-.3 2.8-.4 4.1" class="st28"/><path d="M1143.4 945.5c11.4 5.3 22.8 10.7 34.2 16-18.9-.8-40.4 2.9-56.3-3.4-28.9-11.4-57.2-12.6-87.6-10.4-9.3.7-18.9-1.7-28.4-2.6 11.4-4.1 22.9-8.1 34.3-12.1 10.1-1.4 20.3-2.9 30.4-4.4 20.3 18.6 48.6 12.4 73.4 16.9" class="st29"/><path d="M475 906.8c.2-6.6.5-13.2.8-19.9 13.2 14.5 30.1 10.9 47.5 7.3 18.6-3.8 36.7-4.4 49.9 10.5-32.7.8-65.4 1.5-98.2 2.1" class="st16"/><path d="M555.2 788.8c17.9-16.5 35.8-33.2 53.8-49.8-8.1 14.3-14.3 29.8-25.1 42.5-4.6 5.4-18.8 5.1-28.7 7.3" class="st3"/><path d="M633.5 631.9c1.8-12.1 3-24.5 5.9-36.4 1.4-6 6.2-11.3 9.4-16.9 1.9 13.8 3.9 27.6 5.8 41.3-7 4-14 8-21.1 12" class="st22"/><path d="M654.6 619.9c-1.9-13.8-3.9-27.6-5.8-41.3 1.6-1.3 3.2-2.6 4.8-4 4.9-.1 9.6-.1 14.5-.2-2.2 12-4.1 24-6.8 36-.9 3.4-4.4 6.3-6.7 9.5" class="st2"/><path d="M657.2 529.1c-1.7-4.2-3.6-8.3-5.3-12.5 1.7 4.1 3.5 8.3 5.3 12.5m-14.7-24.7q-7.2-3.9-14.4-8.1c4.8 2.8 9.6 5.4 14.4 8.1" class="st22"/><path d="M1135.9 487.4c3.2-.1 6.6-.2 9.8-.3.1 18 .2 36 .4 53.9-8.9 15.4 2.8 39.4-27.1 46.1 3.9-30.6 7.9-61.1 11.8-91.7 1.7-2.6 3.4-5.2 5.1-8" class="st24"/><path d="M1119 587.2c29.9-6.7 18.2-30.7 27.1-46.1 13.3 8.5 26.6 16.9 40 25.4-10.3 5.2-20.5 10.4-30.8 15.7-12.4 2.4-24.8 4.9-37.1 7.3-.7-1.2-.4-1.8.8-2.3" class="st21"/><path d="M1102.8 603.8c-1.9 4.9-4 9.7-5.9 14.6-2.5 1-5 2.1-7.5 3.1l-4.2-3.3c1.8-5 3.6-10 5.3-15 2.1-.4 4-.9 6-1.3 2.2.6 4.3 1.2 6.3 1.9" class="st15"/><path d="M1102.8 603.8c-2.1-.7-4.1-1.3-6.2-2 3.1-1.1 6.3-2.2 9.4-3.3-1 1.8-2.1 3.5-3.2 5.3" class="st13"/><path d="M1068.7 632.7c-5.8 4.3-11.8 8.5-17.6 12.8-3.6-13.2 7-13 17.6-12.8m18.5-7.4c-4.6 1.4-9.3 2.8-13.9 4.2l12-11.4 4.2 3.3c-.8 1.4-1.6 2.6-2.3 3.9" class="st15"/><path d="M1087.2 625.3c.8-1.3 1.5-2.5 2.3-3.9 2.5-1 5-2.1 7.5-3.1 4.5.6 10.9 2.8 13.1 1.1 5.1-3.9 8.2-9.6 13.4-16.1 9.7 8.4 22.6 12.6 2.8 23.1-7.2 3.9-6.6 17.2-11.7 25.2-3.1 4.7-7.8 16.4-18.8 4.3-.5-.6-13.5 3.8-15 7.4-8.3 19.9-30.8 19.6-48.8 25.9 12.5-14.5 25.2-28.8 37.7-43.2 5.8-6.9 11.6-13.7 17.5-20.7" class="st26"/><path d="m1023.2 693.7-5.4 12.6c1.9-4.2 3.6-8.4 5.4-12.6" class="st28"/><path d="M1021.4 421c-5.8 5.5-11.7 11-17.4 16.5-.2-12.1-1.4-24.3-.2-36.3.5-5.7 5.3-11.3 8.1-16.9 2.2 5.5 4.3 11 6.5 16.7 1 6.6 2 13.3 3 20m-17.8 21.8c1.9 1.4 3.8 2.9 5.7 4.4-.9 1.8-1.7 3.6-4.4 9.5-.8-7.2-1.1-10.6-1.3-13.9" class="st24"/><path d="M1065.1 912c-.8 2.4-1.5 4.9-2.3 7.3-13.2-7.8-26.2-15.7-39.4-23.5 6.4-5 15.3-8.9 18.8-15.1 17.3-30.9 20.5-62.8 5.7-95.2 1.4-.4 2.8-1.1 4.1-1.8 6.5 2.5 13.1 5.1 19.5 7.5-.3.9-.5 1.8-.6 2.6 2.8 7.8 6.2 15.7 8.2 23.6 1.9 7.4 5.8 16.1 3 22.4-6.9 15.6-18.6 29.6-25.2 45.1-2.2 5 5.6 12.9 8.9 19.5-.1 2.7-.3 5.1-.7 7.6" class="st18"/><path d="M1021.4 421c-1-6.7-2.1-13.3-3-20.1.3-10.1.8-20.3 1.1-30.4 1.3-2.1 2.6-4.2 4-6.3h13.3c.6 16.2 1.3 32.4 1.9 48.7.3 11.8-3.7 17-17.3 8.1" class="st20"/><path d="M1023.3 364.2c-1.3 2.1-2.6 4.2-4 6.3 1.5-2.1 2.7-4.2 4-6.3" class="st21"/><path d="M1180.6 805.1c-15.5 7.9-31.2 15.9-46.8 23.8-4.1-5.6-8.3-11.3-12.5-16.9-6.8 1.2-13.5 2.4-20.5 3.8-1.6-8.1-2.8-14.7-4.2-21.6-7.1-.4-13.5-.9-19.9-1.3l-.3-1c1.9-8.1 3.8-16 5.7-24h4.2c3.5 0 6.8.1 10.1.1 8.7-.2 18.2-9.4 26.3 1.8.3.6 8.2-2.9 12.6-4.3 4.9.8 9.7 1.4 14.5 2.2 20.6 10.5 22.8 18.6 8.4 37.6 8.2-.2 15.2-.2 22.4-.2m-26.7-16.6c-.2-1-.3-2-.8-2.9-.1-.2-1.8-.1-2.1.2-.6.9-1 2-1.3 3z" class="st17"/><path d="M1086.3 767.8h-4.2c-1.8-17.9-3.6-35.7-5.4-53.7 3.1 1.1 6.3 2.1 9.3 3.2 2.1 8.4 4.1 16.9 6.2 25.3-.3 1.5-.5 3.1-.9 4.6-1.7 7-3.3 13.8-5 20.6" class="st3"/><path d="m1076.4 791.9.3 1c-.8.6-1.4 1.1-2.2 1.7-1.2-.1-2.4-.3-3.6-.8.1-.9.3-1.8.6-2.6 1.8-.1 3.4.1 4.9.7" class="st20"/><path d="M1065.9 464.5c-.8 1.3-1.3 2.5-1.9 3.6-1-.7-2.1-1.3-2.7-2.2-.2-.2.5-1.5 1-1.7 1-.2 2.2.1 3.6.3" class="st21"/><path d="M1213.4 542c-4.4 4.3-8.7 8.6-13.2 12.8-1.7-2.6-3.5-5.2-5.1-7.8 5-10.1 9.9-20.4 14.9-30.6l-.1.2 9.3.3c.5 1.5 1 3.1 1.5 4.7-2.5 6.8-4.9 13.6-7.3 20.4" class="st2"/><path d="M1210 516.4c-5 10.1-9.9 20.4-14.9 30.6-.2-3.5-.3-7-.5-10.5.2-4 .4-8.1.6-12l-.2.3c3.1-2.6 6.4-5.3 9.5-7.8 1.8-.3 3.6-.5 5.5-.6" class="st24"/><path d="M1179.5 520.3c1.8-2.6 3.7-5.3 5.6-7.9.1 6.7.1 13.6.2 20.3-1.9-4.1-3.9-8.3-5.8-12.4m-8-8.8c1 .2 1.9.2 2.9.2.3 3 .8 6 1.1 8.9-1.4-3.1-2.7-6.2-4-9.1" class="st2"/><path d="M1195.1 524.4c-.2 4-.4 8.1-.6 12-1.8-1.3-3.7-2.6-5.4-4 2-2.6 4-5.3 6-8" class="st14"/><path d="M1213.4 542c2.5-6.7 4.9-13.6 7.3-20.3 3.3 2.1 6.8 4.3 10.1 6.4-5.8 4.6-11.6 9.3-17.4 13.9" class="st24"/><path d="M1204.4 516.9c-3.1 2.6-6.4 5.3-9.5 7.8 1.4-3.1 2.8-6.2 4.2-9.4 1.8.6 3.5 1.1 5.3 1.6" class="st14"/><path d="M1185.3 512.1c1.5-2.6 3.1-5.3 4.6-7.9-1.5 2.6-3.1 5.3-4.6 7.9" class="st16"/><path d="M1312.6 646.4c12.1 9.5 24.2 19 36.3 28.4-61.5-1.3-116.6 19.3-172.8 36-5.2-8.5-10.3-17-15.4-25.5l5.7-4.5c2.8-2.3 5.6-4.7 8.4-7.1 13.3-3.6 26.6-7.3 40.9-11.3-.8 2.5-1.9 6.4-4.2 13.8 16.8-2.5 32.1-4.9 47.4-7.1 1.8 1.8 3.7 3.5 5.4 5.3.5-.4 1-1 1.5-1.4-2.2-1.3-4.4-2.8-6.6-4.1.3-2.5.5-5.1.9-7.6 2.9-1.4 5.9-2.9 9-4.2 5-2.4 9.9-5 14.9-7.4 4.9-1.8 9.7-3.4 14.5-5.2 4.7.4 9.4 1.1 14.1 1.9m-78.1 97.4c-9.9 7.2-18.6 17.2-30 20.5-7.7 2.2-19.2-5.5-29-8.7 0-1.5-.1-3-.1-4.5-3.8-16.5 5.6-26.4 24.1-29.7 17.6-3.1 35.7-4.4 53.6-6.5.4 1.8.9 3.5 1.4 5.4-11.7 2.4-23.2 4.9-36 7.5 4.9 5.1 10.4 10.5 16 16" class="st21"/><path d="M1091.4 747.3c.3-1.5.5-3.1.9-4.6 1.3-7.9 2.7-15.9 4-23.9 6.7 1.3 13.4 2.5 20.1 3.9 6.5 2.8 13 5.4 19.4 8.2 25.1 3.1-2.2 15.2 5.3 21.3-1.8 4.4-3.7 8.9-5.6 13.3-4.4 1.5-12.2 4.9-12.6 4.4-8.1-11.1-17.6-2-26.3-1.8-1.8-7-3.5-13.9-5.2-20.8m29.6 6.2c.9-1.8 1.7-3.5 2.5-5.3-4.1-1-8.1-2-12.2-3-.5 1.3-1.1 2.6-1.6 4.1 3.7 1.3 7.5 2.8 11.3 4.2" class="st24"/><path d="M1397.2 704.8c-6.6 3.2-13.1 6.4-19.7 9.6h-100.4c-.1-2.4-.3-4.9-.4-7.3 40.1-.7 80.3-1.5 120.5-2.3M1141 751.9c-7.5-6.1 19.8-18.2-5.3-21.3 8.4-7 16.8-13.9 25.3-20.7 3.6.6 7.1 1.2 10.8 1.8-9.6 13.8-7.9 33.6-30.8 40.2" class="st21"/><path d="M1171.7 711.7c-3.6-.6-7.1-1.2-10.8-1.8-3.2-7.8-6.6-15.7-9.8-23.6l9.6-1.2c5.2 8.5 10.3 17 15.4 25.5-1.4.5-2.9.9-4.4 1.1m3.6 39.4c0 1.5.1 3 .1 4.5-6.3 1.3-12.4 2.8-18.7 4.1 6.3-2.9 12.4-5.8 18.6-8.6" class="st17"/><path d="M1298.5 644.3c-4.9 1.8-9.7 3.4-14.5 5.2 4.8-1.8 9.6-3.5 14.5-5.2m-29.5 12.6c-3 1.4-5.9 2.9-9 4.2q4.65-2.1 9-4.2" class="st24"/><path d="M1174.9 673.5c-2.8 2.3-5.6 4.7-8.4 7.1 2.8-2.3 5.6-4.7 8.4-7.1" class="st3"/><path d="M1096.2 718.7c-1.3 7.9-2.7 15.9-4 23.9-2.1-8.4-4.1-16.9-6.2-25.3 3.4.6 6.8 1 10.2 1.4" class="st26"/><path d="M1065.1 912c.2-2.4.5-5 .8-7.4 11.7-17.7 11-42.3 40.1-50.1 7.8 1.4 15.9 4.6 23.3 3.9 36.5-3.9 72.9-8.8 109.4-13.5 5.4-.8 10.8-1.4 16.1-2.2h4.3c14.7-1.7 29.4-3.3 43.9-5-.1 8.9 4 22-1.4 25.9-7.2 5.3-22.5 6.3-33.1 4.5-15-2.5-23.3-1.5-36 8.3-12.1 9.4-33.3 11.5-51 14.9-38.4 7.5-77.5 13.9-116.4 20.7" class="st25"/><path d="M1456.2 838.2c3.1.1 6.4.1 9.5.2-3.1 0-6.2-.1-9.5-.2" class="st17"/><path d="M1238.7 844.9c-36.4 4.5-72.8 9.5-109.4 13.5-7.5.8-15.5-2.4-23.3-3.9-10.5-20-20.9-39.9-31.4-59.8.6-.6 1.4-1.2 2.2-1.7 6.4.4 12.6.9 19.9 1.3 1.4 7.1 2.6 13.6 4.2 21.6 7-1.2 13.7-2.5 20.5-3.8 4.2 5.6 8.4 11.3 12.5 16.9 3.8 22.5 28.3 17.8 38.4 13.2 24.6-10.8 44.6-2.9 66.4 2.7m20.5-2.2h-4.3c1.4-.9 2.8-.9 4.3 0" class="st20"/><path d="M1074.5 794.6c10.5 20 20.9 39.9 31.4 59.8-29 7.9-28.5 32.4-40.1 50.1-3.2-6.6-11-14.6-8.9-19.5 6.6-15.6 18.4-29.7 25.2-45.1 2.8-6.3-1.2-15-3-22.4-2.1-7.9-5.4-15.8-8.2-23.6 1.3.4 2.4.6 3.6.7" class="st23"/><path d="M1091.4 747.3c1.7 6.8 3.5 13.8 5.1 20.6-3.3 0-6.8-.1-10.1-.1 1.6-6.8 3.2-13.6 5-20.5" class="st21"/><path d="m1153.9 788.5-4.2.3c.4-1 .6-2.1 1.3-3 .2-.3 1.9-.3 2.1-.2.5.9.6 1.9.8 2.9" class="st20"/><path d="M1259.3 668.8c2.2 1.3 4.4 2.8 6.6 4.1-.5.4-1 1-1.5 1.4-1.8-1.8-3.7-3.5-5.4-5.3z" class="st26"/><path d="M1121 753.5c-3.8-1.4-7.5-2.9-11.2-4.3.5-1.3 1.1-2.6 1.6-4.1 4.1 1 8.1 2 12.2 3-1 1.9-1.9 3.6-2.6 5.4" class="st17"/></svg>