<?xml version="1.0" encoding="UTF-8"?>
<svg id="Ebene_1" xmlns="http://www.w3.org/2000/svg" version="1.1" viewBox="0 0 1920 1080">
  <!-- Generator: Adobe Illustrator 30.1.0, SVG Export Plug-In . SVG Version: 2.1.1 Build 136)  -->
  <defs>
    <style>
      .st0 {
        fill: #161675;
      }

      .st1 {
        fill: #171726;
      }

      .st2 {
        fill: #83a6f4;
      }

      .st3 {
        fill: #737f99;
      }

      .st4 {
        fill: #161625;
      }

      .st5 {
        fill: #c8dad0;
      }

      .st6 {
        fill: #e2eae2;
      }

      .st7 {
        fill: #1d1f31;
      }

      .st8 {
        fill: #85a8f4;
      }

      .st9 {
        fill: #e0decd;
      }

      .st10 {
        fill: #191a29;
      }

      .st11 {
        fill: #171727;
      }

      .st12 {
        fill: #a1b5c7;
      }

      .st13 {
        fill: #5271b8;
      }

      .st14 {
        fill: #b36c25;
      }

      .st15 {
        fill: #cfcdc1;
      }

      .st16 {
        fill: #648ad6;
      }

      .st17 {
        fill: #373744;
      }

      .st18 {
        fill: #7fa1ec;
      }

      .st19 {
        fill: #7d8cae;
      }

      .st20 {
        fill: #82a4f1;
      }

      .st21 {
        fill: #c2c8be;
      }

      .st22 {
        fill: #7a86a1;
      }

      .st23 {
        fill: #d6ddd7;
      }

      .st24 {
        fill: #c3c4af;
      }

      .st25 {
        fill: #f4f4f4;
      }

      .st26 {
        fill: #82a5f1;
      }

      .st27 {
        fill: #6c1625;
      }

      .st28 {
        fill: #85a9f8;
      }

      .st29 {
        fill: #81a3ef;
      }
    </style>
  </defs>
  <path class="st4" d="M0,1080V0h1920v1080H0ZM771.48,190.62l-.07-169.2-142.89.21,64.38,84.75-64.45,84.25,143.02-.02ZM1084.65,129.66c4.32-36.61-31.99-25.72-32.39-44.33-.34-15.71,19.71-10.4,27.62-8.53,2.16-.81,3.52-9.19,1.99-11.66-8.26-3.2-18.76-4.4-26.81-1.55-9.29,3.29-14.36,12.56-14.26,23.53s5.25,18.82,13.65,22.51l14.22,6.26c3.11,1.37,5.69,8.18,5.24,12.17-1.69,15.06-22.46,9.63-32.07,4.87l-2.44,11.24c14.46,8.63,42.34,10.17,45.25-14.52ZM1194.76,143.27c12.76-10.79,15.84-30.99,13.3-49.08-3.11-22.21-16.78-35.12-33.82-32.09-12.53,2.23-23.01,11.77-26.07,28.74-4.01,22.17,1.76,49.4,19.54,57.54,9.17,4.2,18.76,1.91,27.05-5.11ZM863.79,64.42l-17.89,63.9-17.18-64.44-11.81.29,22.69,84.31,12.49.06,23.57-84.04c-4.09-.55-8.04-.58-11.87-.09ZM898.18,63.75h-11.04v84.85h11.04V63.75ZM953.28,147.96l12.2.25-16.03-36.14c9.33-4.73,13.44-13.6,13.12-25.32-.82-30.22-31.22-21.94-46.81-22.71l.02,84.23,11.03-.16.35-33.66c3.34-1.37,11-1.77,12.48,1.67l13.64,31.84ZM1017.66,64.33l-.37,55.57c-.08,12.5-7.81,18.95-16.38,18.34-8.47-.6-13.87-6.96-13.91-18.33l-.17-56.04-11.13.38.32,58.53c.04,7.9,3.4,17.97,8.4,22,8.07,6.5,17.32,6.53,26.34,4.44,9.72-2.25,16.59-12.67,16.68-25.9l.4-59.2-10.17.21ZM1126.83,147.91l.08-70.47,19.01-.3-.07-13.41-48.93.06c-.83,4.11-.68,11.27.78,13.34l17.85.6.03,70.63,11.24-.44ZM1242.51,148.49l.06-70.68,19.1-.64.12-13.47-49.7.11.25,13.37,18.88.68.09,70.72,11.2-.09ZM1303.46,126.96l6.37,21.72,11.62-.41-23.73-83.45c-3.94-1.1-9.19-1.16-13.44-.42l-24.57,83.9,11.39.35,7.25-22.24,25.11.54ZM1375.05,135.39l-30.65.26-.12-71.48-12.03-.06.16,84.58,43.39-.04c1.22-3.56,1.25-11.09-.74-13.25ZM695.27,309.08c3.54.09,3.29-.48,1.1-2.51-.36-6.62-.91-11.58-5.23-15.77-2.01,2.19-7.15,19.5-5.11,18.71,5.98-2.32,5.06-6.35,6.64-4.11l2.6,3.69ZM725.61,299.03c-1.76-.71-4.78-.86-5.19-2.25l-1.88-6.37.26,18.7c.85-3.82.79-8.12,1.9-8.48l4.91-1.6ZM871.81,303.75c.23-.26,1-1.09,1.26-1.55.36-.63-.87-1.76-1.26-2.2-.14-1.07-.32-3.86-1.16-3.67l-6.48,1.46-2.12-7.49c-2.19,4.89-2.21,14.65-1.04,19.38,3.08-.64,4.74-.42,8.22.38l2.57-6.3ZM983.67,302.92l8.21-4.56c-4.2-4.52-8.39-7.81-11.86-5.28,1.56,1.45,2.7,1.94,3.5,1.94.67,0,1.76,1.19,1.56,2.02l-1.41,5.88ZM1033.52,307.73c.55-5.84.26-11.7-.26-18.88l-10.4,11.68c-.55-.3-3.62-1.77-5.38-2.55-1.34-.6-4.51,3.12-4,4.86.59,2,1.55,4.9,2.31,7.11l1.64-9.6,1.15,8.7c-.49-3.67,14.3,5.36,14.93-1.3ZM1073.77,295.99c-1.07-.16-1.54,4.89-.79,6l2.57,3.83-10.23,2.07.83-15.5c0-.23-2-1.08-2.35-.39l-1.76,3.57c-1.29-1.18-3.44-3.06-4.8-4.06s-6.17.63-6.15,2.61l.16,14.71c.01,1.19,3.72.48,3.89-.69l.58-4.09c1.62,3.12,3.51,5.13,6.56,5.34l15.01,1.02c1.27.09,4.97-4.59,3.94-5.59l-4.03-3.89,1.66-2.94c.25-.44.22-1.19-.22-1.26l-4.86-.75ZM1119.78,309.29c.78-1.07,1.56-6.1,1.22-9.26-.19-1.83-2.45-2.53-4.85-2.7l-1.35-7.24c-3.08,4.05-4.66,6.09-7.69,8.86-1.72,1.57-1.59,8.02.14,9.57,1.53,1.37,6.08,1.43,7.64.19l2.74-2.18c.33-.26.88.98,2.15,2.76ZM1259.91,306.46c.83,4,11.02,5.79,11.48,1.41.66-6.39.43-11.94.07-18.84l-9.66,9.98-11.43-2.86.22,12.62,3.46-.06c1.77-.03-1.23-9.74,2.67-9.05.59.1,1.92.61,2.08,1.36l1.13,5.43ZM1293.18,295.98l-5.19-3.55-.34,5.7c-.22,3.68.13,8.96,1.43,11.25h4.3c.56-1,1.2-4.5,1.75-8.02.3-1.95,4.78-1.69,5.85-.24l5.55,7.51c.81,1.09,3.5,1.58,4.97,1.53,1.11-.03,2.19-4.32,1.14-4.49l-2.47,2.47c-.41.41-.67.78-.88.25l-1.26-3.17c-.78-1.96-1.66-4.5-2.41-5.87-2.56-4.68-10.12,1.38-10.62-2.4l-.88-6.66-.95,5.7ZM1090.16,307.29c-.19-3.01-.62-7.2.12-6.94l4.84,1.73-1.13-4.51c-.25-1.01-2.73-.07-3.4-.65l-4.83-4.17.68,16.65c.37,1.91,4.56.66,6.52-.35l4.18.69c.85.14,1.12-4.01.59-3.4-2.06-.76-3.46-2.67-4.29-1.93l-3.27,2.87ZM1151.43,309.38c-.3-.01,2.42-.1,2.87.1l2.66,1.19c.86.39,2.7-1.46,2.81-1.89-1.32-1.98-3.38-4.59-2.82-5.84l2.61-5.89-3.82-4.46-12.36,6.42c-1.53-1.43-3-2.07-2.96-1.16.07,1.57.71,4.12,1.35,5.37,2.35,4.6,5.14,7.32,9.67,6.16ZM782.91,309.38v5.62h2.87v-3.75c3.99.02,7.77-2.63,11.47-5.62.75,3.84,1.08,4.94.93-.23,2.35-.58,4.23.05,4.49-1.27l1.34-6.58-4.78,3.52c-.64.47-1.28-2.74-1.99-2.95-2.56-.75-8.1-.96-10.04,1.88h-1.43v-3.75h-2.87v5.62l-2.16,1.68c.51-.39-1.02-4.58-1.62-4.73l-9.13-2.34c-.05,3.38.48,9.39-.67,9.06l-6.12-1.73c-3.13-.32-1.71-3.37.84-3.93.63-.42,2.41-2.45,1.85-2.69-.63-.27-1.69-.9-2.24-.66l-2.59,1.1c-1.05.44-4.87,2.18-4.58,3.57l.83,3.9-.2,3.82c-.05.99,2.22,1.9,2.83,1.33,5.36-4.9,6.57,3.94,8.81.69l3.8-5.51c1.82,1.97,3.88,5.1,5.23,4.63,2.07-.71,4.14-1.18,5.11-.68ZM813.15,296.97l-7.08.21c3.19,3.1,4.67,3.1,4.96,4.58l1.55,7.82.57-12.6ZM895.19,304.87l-2.39-8.73c-1.68,1.09-3.45,7.54-2.28,9.47,1,1.65,3.81,3.71,5.82,5.45.61.59,1.65-3.69.88-4.19-.58-.38-1.79-1.12-2.03-2ZM903.82,296.52l-2.08,4.36c-.39.82,2.56.74,3.82.99,1.62.33-1.6-5.64-1.73-5.36ZM910.66,298.66c.81-1.34,1.95-3.23,0,0-4.09.91-3,.67,0,0ZM939.95,309.53c.63-5.04.62-9.42-.05-13.44-.63,5.04-.62,9.42.05,13.44ZM1009.49,309.08c2.43-1,2.45-11.25.15-12.63-1.44-.86-5.74.47-7.9,1.79l4.81,2.75c-1.9,1.07-4.15,1.98-4.44,3.41s.61,4.9,1.38,5.97,3.32-.18,5.99-1.28ZM1099.94,298.66c.81-1.34,1.95-3.23,0,0-4.09.91-3,.67,0,0ZM1130,299.74c2.89-.85,3.44-1.1.81-.75-2.11-2.66-1.9-2.6-2.17-2.16s-1.43,2.42-1.5,2.5c-.08.09,2.09.31,2.86.41ZM1186.07,310.1c1.22-.28,3.11-4.41,3.06-6.07-.07-2.67-.81-8.73-2.33-8.19l-6.98,2.51,4.61,2.67c-1.74.93-4.74,1.94-4.48,3.36l1.09,5.92c.2,1.07,3.57.12,5.03-.21ZM1218.75,309.6l-.18-12.24c-3.08,2.24-4.39,3.78-6.54,7.88l-7.32-5.16c-.54-1.42-1.5-4.71-2.14-4.12l-2.88,2.66c-1.63-.94-5.93-2.36-6.63-2.01l3.13,8.81c.53,1.49,2.09,4.8,2.98,4.04l3.03-2.58c.62.13,2.08,2.38,2.71,1.73l2.42-2.48,5.8,4.1c1.59-2.73,2.11-4.47,2.75-3.78l2.88,3.14ZM1242.93,310.75c2.25-.46,6.4-1.84,6.29-4.12-.14-3-.56-7.79-1.57-9.63s-5.45-.43-7.81,1.37l4.57,2.46c-2.14,1.34-4.45,3.41-4.49,5.29-.03,1.5,1.95,4.85,3.01,4.63ZM1318.56,308.9l2.69-10.56-5.59,1.53c-1.06.29-2.37-2.43-3.18-3.64l-1.41,4.51,7.5,8.16ZM910.67,307.17l-8.92-3.18,3.41,6.69c.88,1.73,2.77.86,5.51-3.5ZM738.46,345l1.32-1.84c.48-.66-.51-2.28-1.32-3.79-1.35-2.51-2.13-4.74-3.77-9.24.07-.14-1.3,2.56-1.64,3.25l1.9,16.73c.19,1.64,4.05-2.56,3.52-5.11ZM777.18,335.62c-2.39-.09-5.51.41-7.17,1.88-2.11,1.87-1.31,7.66,0,9.38l1.43,1.88h5.74c1.99-4.66,1.72-11.71.86-18.9l-.86,5.78ZM1010.07,351.72l2.48-5.66c.27-.63-1.97-1.61-2.28-1.01l-1.87,3.65-2.9-8.89-8.31-3.22-1.44-7.1c-1.62,3.71-1.88,7.21-3.32,7.48l-7.51,1.4,6.44,1.72,4.64,9.39.85-10.11,13.22,12.36ZM1083.01,339.36c4.5.1,8.42.03,8.28-2.7l-6.84.98c-1.47.21-1.83-4.51-2.57-7.8l-1.38,7.86-1.53-5.7c-.2-.73-2.42-.03-3-.16-5.53-1.31,6.91,7.66,6.1,16.64l.95-9.13ZM1163.29,353.99c1.67.22,5.83.08,6.1-1.12l3.92-17.49c-2.83,1.81-4.24,3.33-5.34,4.95-2.21-4.59-7.03-7.87-11.9-8.82.33,5.54.88,12.16,1.7,16.23.42,2.07,6.87,3.04,6.55,2.2-1.99-4.76-3.19-6.09-2.13-11.3,1.14.98,3.16,5.54,3.41,7.76.23,2.03-1.24,5.22-2.31,7.58ZM887.59,339.38c0,3.19.42,7.2,1.43,9.38h1.43l2.05-4.57c.4-.18,2.78.86,3,0l1.7-6.68-4.8,3.21-1.95-5.09c-.42,0-1.05.03-1.43,0-.56-.05-1.47,1.14-1.43,1.88l-7.43-1.18c-2.51-.4-5.56,4.55-6.08,8.46l-5.5-7.34-13.6,1.39c-.9.09-3.12-3.87-3.53-2.82l-2.13,5.52-6.98-6.44-3.91-3.6c-.7-.64-2.11,4.05-1.98,5.15l1.58,13.29,12.8-.97c1-.8,2.83-4.29,3.69-3.6l4.06,3.25.99-9.52,1.54,10.82c2.75-2.22,3.45-2.62,3.57-3.78l.69-6.92,1.06,9.14,9.28.44c1.53-8.04,6.3-11.33,11.88-9.42ZM1263.45,348.4l-1.53-8.87c4.16,3.64,5.26,8.68,1.48,12.69-.82.4,2.24,2.58,3.37,2.4s2.69-2.91,3.13-4.57l3.34-12.6c.27-1.01-3.16-2.97-3.42-1.87l-1.25,5.21c-2.13-3.34-6.37-7.42-9.67-8.4-2.69,5.98-7.69,6.49-12.49,5l1.49,11.12,4.51-2.89c.84-.54,2.66,2.72,3.03,3.15l1.93-10.81c1.52,2.92,1.31,6.89.71,9.52-.27,1.22,1.83,3.11,2.68,2.58.65-.41,2.69-1.68,2.67-1.67ZM910.02,346.57l.74-11.21-10.56,1.19,5.83,3.63-6.93,5.73c1.99,4.9,10.61,5.41,10.92.66ZM961.03,349.45c1.17-.25,3.07-4.37,2.97-6-.17-2.88-.79-8.77-2.22-8.26l-7.09,2.51,4.61,2.7c-1.73.92-4.75,1.94-4.48,3.38l1.12,5.88c.2,1.07,3.26.18,5.09-.21ZM1011.76,336.37c.79-1.43-.97,1.74-1.81,3.28-.49.89,1.35,1.62,3.7,3.07,2.27.32,2.15-.62-1.89-6.34ZM1052.64,336.77l-6.19-.58,5.52,13.04.67-12.46ZM1193.01,346.88c2.95,1.68,3.64,1.73,1.43-1.88l3.96-2.58-4.9-5.59c-1.13-1.29-5.21-1.99-6.04-.38s-1.42,5.63-1.38,8.08c.03,1.43,2.51,5.47,3.5,4.87s2.35-1.63,3.43-2.52ZM1212.39,348.9c.52-4.37.51-8.19-.05-11.54-.52,4.37-.51,8.19.05,11.54ZM1465.71,497.96c.72-9.69.78-17.32.19-27.58-4.25,3.76-7.94,7.82-9.85,13.32.61,4.85,5.43,10.95,9.65,14.27ZM1473.29,497.68c5.65-4.96,5.62-21.01,4.26-22.41l-4.37-4.49-4.44,9.82c.9,1.14,2.74,2.98,2.31,3.68l-1.9,3.14,4.13,10.25ZM675.9,476.48l-10.41-2.58-.45,17.4c-10.24-1.59-2.82-13.21-9.28-16.02l-.64,17.98,20.48-.41-6.56-5.68,4.78-2.41c.42-.21-1.16-1.38-1.54-1.64l-2.73-1.92,6.36-4.71ZM958.31,475.8c-1.56,1.48-2.08,6.65-2.32,10.6.2,4.9-1.68,3.27-2.48-.08.46-5.96.27-11.01-4.23-12.05l.11,15.38c.02,3.03,5.28,5.32,7.32,4.37,2.97-1.38,4.35-5.28,4.43-10.28.04-2.47-1.54-9.18-2.84-7.94ZM973.51,492.16l5.69-2.13-.12-13.79c-6.48.96-8.66.18-16.25-1.56l-.88,16.64c-.07,1.4,3.84,2.24,4.1.91l.94-4.82,2.37,5.06c.45.96,2.74.21,4.15-.31ZM1298.15,472.89l-.91,16.53c-2.39-.11-6.63.66-6.61-.96l.08-7.25c.02-1.62,3.93-1.22,5.63-1.98-.07-1.36-3.4-5.42-4.77-4.47l-5.59,3.89-10.96-4.62-.7,15.66c-2.02-7.62-2.79-13.24-7.96-15.71l-3.89,13.81c-.31,1.11-3.24,2.01-4.14,1.86s-.24-3.62.17-4.56c4.79.07,5.01-1.36.06-3.77-.86,1.2.25-1.18.8-1.9l2.63-3.4-11.41-.69-7.51-.45c-.82,1-1.93,7.08-1.01,8.95s3.5,3.51,5.37,4.74l-6.27,2.76c2.8,5.07,6.48.95,9.3,1.16,6.06.45,12.68,1.87,17.4-2.38,6.11,3.62,5.25,5.12,12.07.74l7.18,1.86c3.35.87,6.49.6,10.21.37l3.89-.25c1.01-.06,1.68-18.58,3-7.45l.53,4.48c.13,1.12,1.5,3.21,2.28,3.76s2.4-2.87,2.36-4.18l-.43-13.36c-1.89-.16-2.99-.52-3.28.52l-1.67,6.11-5.84-9.83ZM646.25,484.13l-3.78-2.07c-.68-.37.26-2.55.94-2.91l4.79-2.59-8.55-.28.05,17.18,6.55-9.32ZM811.66,525h-309.79v5.62h309.79v-5.62ZM959.8,650.06l-42.05.77.36,10.48,41.59.39.64,97.51,88.08-.05.74-97.47,40.22-.38.36-10.49-40.69-.85-1.11-10.39-22.71-30.29-64.75.37-.68,40.39ZM896.67,806.13c-.5,17.24-1.6,37.53.96,54.38l.61,4c.2,1.31,2.44,2.05,3.46,2.06l203.94.93c1.74-1.07,4.54-4.43,5.16-6.75.69-15.39.84-35.93-.28-52.53l-.56,51.28c-2.65.05-5.23,3.44-5.28,6.9l-201.85-.34c-1.48-2.16-3.35-4.19-5.2-5.55l-.12-53.13c2.65-.06,5.23-3.44,5.28-6.9l201.32.15,2.08,4.45c.8,1.71,2.24,1.53,4.9-2.45l-6.99-1.99c-66.92-3.8-134.9-1.58-202.27-1.25-1.84,1.29-4.29,4.36-5.16,6.75ZM1029.64,827.11c.82.11,1.63-4.06.79-3.99-.63.05-2.8.03-3.24.54l-2.04,2.38c-.36.42,3.22.9,4.49,1.08ZM976.37,834.01l.59,10.76,4.23-4.75c.74-.83,1.26,3.05,1.9,4.8l6.59-2.63c3.87,1.4,6.68,2.13,9.62,1.03l6.12,1.63c.71.19,3.14-.36,3.29-1.29l.58-3.55c2.12,2.44,6.88,5.72,8.71,3.04,1.71-2.51,2.12-10.19.43-11.61s-5.43.46-7.53,1.07c-2.71.8-5.27,1.52-7.17,3.75-5.45-7.04-13.83-7.87-19.5-.27l-6.33-3.78c-2.95-1.62-6.06-7.09-8.7-5.59l-1.8.21c-3.22-1.81-7.39-1.14-8.68,2.35-1.57,4.25-1.13,10.72,1.61,13.69,1.77,1.91,5.33.85,8.63.18l3.74.64c.84.14.83-4.22.97-5.53l.49-4.72c.08-.79,1.81.42,2.21.57ZM1043.46,837.31c-2.98-4.77-3.87-7.07-5.15-11.62,1.14-1.31-.9,1.05-.87,1,.04-.06-1.32-1.04-2.2-1.7l.35,18.92c3.69.68,10.2-2.89,7.88-6.61ZM1033.22,833.75c-3.99-6.16-6.92-2.29-9.53.53l9.53-.53ZM1045.79,833.28c1.89.16,3.94,5.45,3.68,2.14-.1-1.2-.14-3.21-.62-3.09s-3.02.95-3.06.95ZM1046.23,844.69c0-.66-.41-1.19-.91-1.19s-.91.53-.91,1.19.41,1.19.91,1.19.91-.53.91-1.19ZM1004.09,963.5c-.37,1.4-.43,7.15.76,8.56.99,1.18,3.34,1.06,5.14,1l7.58-.26c1.14-3.88,1.37-11.78-.39-17.4l-6.71,8.94c-.26,1.95-1,6.53-1.26,7.22l-1.92-7.37c-.23-.87-.55-.51-3.21-.69ZM1105.6,972.02l-.39-16.6-9.47,9.35c-1.22-5.4-1.29.03-1.66,3.66.6,4.57,7.23,7.11,11.53,3.58ZM1246.18,971.71l-.59-16.43-11.29,12.01c.42,7.07,8.94,8.01,11.88,4.41ZM1304.85,973.12c3.63.1,8.59.68,12.22.21l9.22-1.18c.07-1.88.52-5.12-.03-5.43l-3.69-2.05-5.47-3.03c-1.22-.68-3.28,2.07-4.68,3.21l-4.71-6.74c-.51-.73-1.78-1.22-2.68-1.42-.75-.17-.83.71-1.92,4.01l-7.78,2.42-.19,10.26,9.7-.26ZM1365.08,961.88l-7.96.66c-1.49.12-2.91,7.83-1.58,8.87,1.56,1.22,4.32,1.97,7.01,2.24,1.84.18,2.87-5.26,2.53-8.02l1.25,5.29,4.09,3.39,1.6-17.55c-3.07.41-5.3,2.38-6.94,5.12ZM616.67,963.51c-.09-.58-2.56-2.1-3.18-1.37l-2.05,2.41c-.49.57-2.97.89-4.15,1.09-.68.11-.3-.46,1.27-3.79-1.58-3.45-6.02-4.27-10.66-3.6l.17,13.27c.08,2.16,6.14,2.99,7.33,1.33l4.56-6.34.18,11.91,6.53-14.9ZM661.03,961.88l-1.43,1.88-7.38.64,4.83,1.81c.9.34.98,2.26,1.49,5.06l1.06,1.86h1.43l4.3-1.88c.18.35.93,2.44,1.47,2.28l3.24-.96c2.47.84,4.94,1.45,6.76.55h1.43l1.72-2.81c.49-.8,1.85,1.03,3.71,2.79l.23-8.02c-2.87-1.38-4.01-1.98-5.67-3.22l-1.43,1.88-3.83-4.94c-2.55,1.2-4.54,1.78-6.57,1.18l-5.37,1.88ZM1256.1,971.25c1.84-.42,1.87-6.44,0-7.5-.38.23-2.02,2.22-2.26,1.39l-1.79-6c-1.96,2.2-1.97,9.93-1.18,14.69l3.24-3.16c.46-.45,1.36.23,1.99.58ZM638.09,963.75v7.5c.25.88,2.51,4.86,3.28,3.74l2.46-3.56,5.71,1.35-.07-8.91c-2.03.23-4.41.58-5.62-.16l-3.44-2.1c-.67-.41-2.16,1.62-2.32,2.13ZM694.58,970.55l3.88-8.68-12.19.65,2.17,5.89-.38,6.4c-.1,1.65,4.36,2.47,5.66,2.49l3.31.06c.71.01,1.94-2.93,1.35-3.45l-3.81-3.37ZM755.67,963.75h-2.87c-.35.9-.8,2.74-1.43,5.62l-3.17,3.61c-.44.5,2.52,2.98,2.62,2.22l.55-3.96h4.3c.33.62,2.2,2.98,2.32,2,.16-1.3.6-4.63.53-5.61l-.39-5.53c-.06-.89-2.25,1.61-2.47,1.65ZM801.55,971.25l3.6.39c1.2.13,2.56-3.75,2.45-5.31s-3-4.36-4.1-3.68l-4.81,2.98-2.07-3.32c-1.3,1.09-3.12,2.95-3.88,2.71l-4.93-1.57,4.33,14.81,2.82-8.45,6.59,1.44ZM865.98,965.73c-5.38-10.32-15.56,4.16-21.21-3.43l.22,10.12c.02.96,2.48,2.86,2.83,2.02l1.22-2.94,1.32-3.2c.23-.56,1.08-.51,1.21.14l.84,4.21c.6,3.01,3.41,6.86,5.76,6.68,3.7-.28,9.56-10.22,7.8-13.6ZM880.73,973.29c.24-1.05-.86-9.11-3.13-9.47l-9.92-1.57.26,8.8c.23,7.65,10.64-1.73,12.79,2.23ZM887.59,973.12l1.91-2.68c.49-.69,1.57.79,3.55,2.65l.19-7.85-5.65-3.37c-2.06,2.35-2.06,8.9,0,11.25ZM1154.79,973.99l-1.63,3.24c-.24.48,3.22,2.33,3.46,1.84,8.21-16.64,3.45-19.13,2.76-17.44l-1.4,3.41c-5.17-5-12.13-4.72-17.47,2.83,3.67,4.2,9.03,7.33,12.59,5.59l-3.77-3.49c-.59-.54-1.37-3.8-.68-4.04s3.93-1.09,4.38-.37c1.08,1.72,2.63,6.68,1.76,8.42ZM1332.1,971.25l4.86,1.91,2.41-7.67-.1,6.34c-.02,1.32,2.8.42,3.63.56,1.04,2.78,2.58,6.35,4.21,6.36,2.2.01,7.06-2.71,6.76-4.13-1.55-3.29-2.71-4.47-2.32-5.48l2.66-6.97-12.08-.29c-3.35-.08-6.87.76-10.04,1.88-2.11.75-2.05,6.7,0,7.5ZM1389.45,971.25c7.33,5.94,18.4-1.64,18.23,1.27l.48-8.13c-3.94-1.23-10.81-2.22-14.88-2.07l-3.83,5.17c-3.91-5.61-10.83-7.33-15.26-4.91,1.95,4.68,2.12,8.95,1.13,15.24-.21.69,4.34,1.04,4.92-.54l2.76-7.61,3.59,4.81c.81,1.08,2.21-1.65,2.87-3.23ZM702.61,969.38c-.81,1.78-1.01,4.42-.19,3.41l3.87,1.96c.51.26,1.7-2.6,1.23-3-.69-.6-1.6-1.2-3.48-2.38l-.51-6.09-.92,6.09ZM1272.17,969.8c-.51.69-1.6,3.13-1.01,3.42l3.06,1.51c.61.3.22-2.85-.12-3.56-.23-.47-1.64-1.77-1.94-1.36ZM642.39,995.62l-1.43,1.88c-4.82-1.97-10.44-2.12-15.77-1.88-9.23.43-18.03-7.79-18.07-2.16l-.05,6.68c-.02,2.84-.15,6.99,1.3,7.59,1.94.8,5.39-.32,7.44-1.64l3.3,2c.79.48,2.38-1.05,3.22-1.22l5.37.09c1.49.03,1.72-4.2,2.58-7.82l1.14,7.71,8.01.14,1.88,3.48c.4.75,1.58.35,2.21-.1l7.06-4.89c1.9,4.15,12.74,1.45,12.78.98l.75-8.75c.16-1.86-3.66-1.89-6.28-2.04l-7.03-6.11c-.71,1.43-1.42,5.62-2.54,5.69l-5.86.36ZM686.84,1006.88h5.74l7.17.02h11.47s1.43-.02,1.43-.02c2.24-.16,4.61-.25,6.88-.21l14.43.29c12.92.26,7.16-2.21,11.67-.09l7.08-.05.09-9.32c-1.7-3.38-6.73-1.88-9.25.48-2.68-2.41-7.1-2.72-10.52-1.03l1.24-6.44-12.62,6.24c-1.67.82-3.76,2.77-4.7,4.5-1.18-2.58-2.75-5.49-4.3-5.62-.89-.08-1.43,2.58-1.43,3.75-3.81-2.59-7.34-3.75-11.47-3.75h-10.04l-.02-4.67c0-1.14-3.56-2.02-3.75-.91-.4,2.31-1.66,17.71.91,16.83ZM770.01,997.5c.95-3.57-8.93-.87-13.11-1.12l.99,9.97c4.39.92,9.58.1,13.62-1.35,1.08,3.09,2.27,1.17,3.49-1.78.05-4.32.05-4.72,0-.67.85,2.21,1.19,4.09,1.76,4.1l3.55.07c1.02.62,3.48,1.83,3.94.3l2.28-7.6,1.9,8.78c2.97-1.14,4.09-7.08,3.21-9.7-.68-2.04-3.36-3.19-5.73-4.8l-1.51-2.45c-.46-.75-2.89-1.41-2.9-.46l-.04,4.83c-.66-1.03-2.55-4.8-3.47-3.81l-2.99,3.2-4.32-5.73c-.23,4.71-.18,6.62-.69,8.22ZM811.59,1005c1.67,1.47,4.59,2.67,6.41,2.52,2.22-.18,2.53-6.72,2.23-11.53l-12.95-.37c-.97-1.09-2.77-5.4-3.91-4.64-.47.31-1.97,2.96-2.15,3.6-.24.86-1.54-1.48-2.07-2.19l-4.57,6.35,3.21,1.08c.65.22.69,2.46.27,3.17l-2.36,3.94,7.24.62c1.83.16,3.2-5.5,3.71-8.08l1.28,7.22c.22,1.27,3.12-1.38,3.65-1.7ZM875.17,1007.13c.97,1.62,2.23,3.27,3.39,4.07s4.32-2.64,4.72-4.38l2.57-10.93-9.73-.27-2.64-3.69c-.66-.92-3.18,2.31-3.75,3.02l-4.35-5.37-.69,15.23c-.05,1.08,3.34,3.23,3.55,2.11l1.43-7.65,1.23,6.43c.27,1.43,3.39,1.45,4.29,1.41ZM950.68,995.91l-8.6-.29h-10.04c-3.89,0-8.19.41-11.47,1.88-4.43-1.68-9.44-1.84-14.71-1.6l-10.43.48.63,4.26c.09.59-.77,3.26-1.07,2.81l-2.49-3.74-3.22,6.87c1.31,1.12,4.92.73,7.2-.61l3.58,1.96c1.08.59,3.81-1.86,5.01-1.75l9.2.79,1.26-7.89,1.11,6.51c.25,1.48,2.49,1.21,3.93,1.29,5.67.33,11.58.77,15.92-3.77l1.76,5.32c4.45-1.58,6.04-1.98,10.27-2.21l1.48-7.04,1.4,7.47c.32,1.71,4.17-1.18,5.02-1.67l1.68,1.42c.53.45.93-1.3,1.95-3.69-.06-3.94-.06-4.05,0-.13l1.93,5.27c.43,1.18,3.25.11,3.61-1.09s-.04-2.58-.52-6.93c.11-.11,2.25.56,2.4,1.53.2,1.29.09,4.75-.18,6.05l-.9,4.29c-.16.78,2.56.42,3.12.04l8.79-6.03c2.38-1.76.9-1.91-2.82-1.01l-.5-8.03c-4.82-1.2-8.81-2.51-12.61-4.28l-1.89,1.96c-.59.61-2.61,1.06-2.56.86l1.21-4.44c.25-.92-2.85-.38-3.57-.65s-.08,2.06.39,5.23l-5.26.56ZM992.26,991.88c-2.42-.02-5.52.54-7.17,1.88l.74,6.03.69-6.03c.99,0,2.38.34,2.56,1.39l.95,5.37.79-1.13h1.43c0,2.4.61,5.93,1.43,7.5l2.87-1.88h1.43l4.3,3.75,2.87-3.75c.36.54.99,1.55,1.43,1.88,1.29.96,4.22.6,5.74,0,.52-.21,1.51-1.18,1.43-1.88,1.72,1.36,3.71,2.08,5.41,1.64l9.21,1.57,1.31-13.31-14.49,4.48-.29-2.43c-.07-.58-1.2-.39-1.91-.48l-6.4-.84c-.82-.11-2.16,1.32-2.87,1.88-1.01.78-3.2.65-4.3,0h-2.87c0-2.44-.59-6.13-1.43-7.5-.43,0-1.01.05-1.43,0-.56-.07-1.49,1.15-1.43,1.88ZM1035.28,995.62c-1.56.96-3.51,4.82-2.87,7.47.54,2.26,3.78,4.21,5.54,3.59l3.07.19,1.43-1.88h1.43l2.3,3.52c.58.88,2.72-1.18,3.23-1.63,1.18-1.2,2.66-3.04,3.3-4.46s-.9-6.43-2.15-6.14l-5.26,1.22h-2.87c0-2.52-.54-6.38-1.43-7.5l-5.74,5.62ZM1101.24,1006.88c1.22.71,4.25.83,5.75.66.53-.06,2.08-3.17,1.59-3.46l-1.61-.95v-5.62h-4.3v7.5h4.3v-5.62c2.88-1.96,1.71-3.2-1.96-3.16l-3.78-6.22-2.13,5.55-3.09.86c-.92.26-1.11,6.75-.25,7.25l5.47,3.21ZM1071.13,997.5l-4.3,1.88c-.48.21-1.8-.06-2.31-.07-.76-.02-2.74,2.02-2.14,2.65.66.69,2.3,2.41,3,3.01l3.86,3.33c.98.84,2.84-1.91,3.33-3.29l1.43-1.88,4.33,5.67-.38-16.27-6.82,4.97ZM1392.32,997.5l-4.3,1.88c-.48.21-1.8-.06-2.31-.07-.76-.02-2.73,2.02-2.14,2.64.66.69,2.31,2.43,2.95,2.98l3.88,3.35c.99.86,2.86-1.88,3.35-3.27l1.43-1.88,4.33,5.67-.38-16.27-6.82,4.97ZM673.39,1001.52c.36,4.97,5.3,6.64,9.67,5.37.52-1.3.84-6.33,1.03-10.97-2.13-1.42-17.16,3.22-17.24,2.47l.33,3.34.38,4.79c.1,1.21,3.65,2.48,3.98,1.35l1.85-6.35ZM832.34,1000.62c-2.68-.32-1.49-.07-1.24-.47l2.54-4.12c-2.79-.27-6.71-.21-9.97.65-.35,2.22-.24,8.5.05,10.71l10.1.07,3-.71c.79-.19,1.32-4.37.53-4.61l-5.02-1.52ZM841.7,997.5c-1.86.76-1.33,5.49,0,7.5.92,1.39,3.73,2.11,5.74,1.99h2.87l12.68-.94-.07-8.44-14.04-1.99c-.17-.02-.63,0-1.43,0l-5.74,1.88ZM1205.91,1005c.35-.31,1.12-1.03,1.5-1.24.56-.31,1.31.59,3.66,2.49-.06.83.39-5.18.57-7.6.13-1.76-3.99-.1-5.73-1.15-2.03-1.22-1.58,7.81,0,7.5ZM1218.74,1002.8l-.62,3.19c-.23,1.16,3.08,3.72,3.15,2.55l.41-7.28,3.68-4.99-5.39,1.41-2.54,2.58c-.51.52.99,2.13,1.3,2.55ZM1241.31,1006.63c.28.35,1.17-7.27-.17-7.94l-5.05-2.52.03,10.84,2.18-2.7c.44-.54,1.54.96,3,2.32ZM1283.27,1002.8l-.61,3.18c-.22,1.16,3.08,3.75,3.14,2.55l.41-7.28,3.68-5-5.25,1.43c-.76.6-1.79,1.43-2.28,1.66-.64.3-.05,2.13.91,3.46ZM1300.55,997.5c-.73.24-2.12,2.12-1.78,2.99l1.78,4.51c.4,1,1.59,2.69,2.4,3.07s2.33-.78,3.07-1.36c.49-.38,1.7-.96,1.7-1.71.54-.42,1.69-1.54,2.2-1.08l3.26,2.88.29-8.71-5.75-.59c-.51-.05-1.13-1.42-1.43-1.88l-5.74,1.88ZM1172.94,1003.12c-2.62,1.94-4.67,5.62-5.26,9.99,3.02-2.66,4.73-5.59,5.26-8.11h1.43l1.73-4.51c.33-.87-1.26-3.23-1.73-2.99-.85.86-1.33,3.58-1.43,5.62ZM1339.27,1005c1.85-.68,1.85-6.82,0-7.5l-1.71,4.5c-.33.88,1.29,2.76,1.71,3ZM986.72,1039.43l.89-9.01-12.59-4.22.17,13.08c1.42,3.32,11.09,4.65,11.53.15ZM815.89,1040.69c4.13-4.27,6.66,4.27,10.04-1.74l5.7,1.03c-.02-2.59.47-7.97-.5-8.09l-5.2-.64h-1.43l-8.6-1.88c-1.81-.39-7.41-.5-8.84,1.05s-2.43,3.68-3.79,6.15c3.36-.76,3.78-1.42,3.98-4.4-.52-.42,3.52-.89,3.12.08l-2.75,6.54,3.72,6.69,4.57-4.8ZM864.4,1041.24v-12.36c-1.54,2.05-3.22,5.17-2.87,6.94.28,1.42,1.56,3.39,2.87,5.42ZM934.91,1038.75c1.1.65,2.96,1.44,4.3,1.88l1.43-1.88c.54-.41,1.68-1.54,2.2-1.08l3.27,2.87.24-8.65-5.71-.64c-.51-.06-1.15-1.47-1.43-1.88-1.48.12-4.06.69-5.16,1.75-1.32,1.27-.63,6.75.86,7.63ZM962.15,1042.5l2.87-5.62,4.06,3.61c.48-2.74.25-9.17-1.58-9.14-1.93.03-3.75.13-6.09.32l-4.01-2.13-3.22,10.89,7.98,2.07ZM1022.37,1038.75l3.6.39c1.18.13,2.54-3.75,2.44-5.31s-3.06-4.33-4.15-3.66l-4.77,2.96-2.07-3.31c-1.27,1.07-3.13,2.94-3.88,2.7l-4.92-1.57,4.32,14.81,2.83-8.45,6.58,1.44ZM1063.96,1031.25v7.5c.25.87,2.52,4.86,3.29,3.73l2.44-3.56,5.71,1.07c-.03-3.4.46-8.31-.74-8.43l-4.98-.49-3.44-1.93c-.66-.37-2.15,1.63-2.3,2.11ZM1085.47,1031.25c-1.84,1.9-2.12,7.44,0,9.38h1.43c2.03-2.05,2.19-8.84,0-11.25l-1.43,1.88ZM1166.89,1042.26l3.25-10.98-10.36-2.06.99,12.69,4.04-11.67,2.08,12.02ZM1190.25,1042.66l1.75-12.96-13.59-.15,1.08,12.86,3.08-8.36c.59-1.59,3.98-2.15,5.44-2.72l2.24,11.32ZM1211.92,1038.22c2.64-2.34,4.97-4.64,4.3-5.71-.51-.8-2.34-2.81-3.12-3.07-2.01-.66-6.33.26-6.03,2.27.24,1.6.79,6.95,1.81,7.89,2.08,1.93,7.65,1.5,10,.24l-6.95-1.62ZM854.61,1036.88l-1.67,1.43c-.59.51-1.12,2.37-1.31,3.26-.13.6,2.35,1.58,2.44.97l.55-3.79c.6-.55,1.75-1.96,1.56-2.96l-.93-4.97-.63,6.05ZM999.43,1036.88c.41-.48,1.31-1.95,1.6-2.82s-1.1-2.51-1.6-2.81l-1.47,4.09c-.31.85.83,5.25,1.47,1.54Z"/>
  <path class="st4" d="M1022.37,1038.75c-1.33-.82-2.84-3.77-2.87-5.62.6.16,2.79.05,2.8,1.04l.07,4.58Z"/>
  <path class="st4" d="M801.55,971.25c-1.32-.81-2.85-3.77-2.87-5.62.6.17,2.79.06,2.8,1.05l.07,4.58Z"/>
  <path class="st29" d="M771.48,190.62l-143.02.02,64.45-84.25-64.38-84.75,142.89-.21.07,169.2ZM757.58,172.84V39.92s-96.31.31-96.31.31l50.56,66.18-50.52,66.26,96.27.16Z"/>
  <path class="st2" d="M953.28,147.96l-13.64-31.84c-1.48-3.44-9.13-3.05-12.48-1.67l-.35,33.66-11.03.16-.02-84.23c15.6.77,45.99-7.51,46.81,22.71.32,11.72-3.8,20.6-13.12,25.32l16.03,36.14-12.2-.25ZM943.84,101.65c4.62-.71,7.03-8.27,7.03-12.64,0-4.81-2.57-11.9-6.95-12.4-6.01-.69-10.73-.67-16.92-.65l-.08,26.58c5.82.08,10.47.1,16.92-.89Z"/>
  <path class="st26" d="M1194.76,143.27c-8.29,7.02-17.89,9.31-27.05,5.11-17.78-8.14-23.55-35.37-19.54-57.54,3.07-16.98,13.54-26.52,26.07-28.74,17.04-3.03,30.7,9.89,33.82,32.09,2.54,18.09-.55,38.29-13.3,49.08ZM1194.63,124.72c3.9-12.28,3.51-26.13.58-37.69-2.42-9.57-9.48-12.85-16.52-12.93-8.3-.09-15.48,4.74-18.06,15.6-2.89,12.16-2.88,26.66,1.98,38.3,3.14,7.53,10.6,10.53,16.12,9.99,6.22-.62,13.01-4.18,15.9-13.28Z"/>
  <path class="st20" d="M1303.46,126.96l-25.11-.54-7.25,22.24-11.39-.35,24.57-83.9c4.25-.74,9.51-.68,13.44.42l23.73,83.45-11.62.41-6.37-21.72ZM1300.09,113.42l-9.25-32.78-9.62,33.07,18.87-.29Z"/>
  <path class="st2" d="M1017.66,64.33l10.17-.21-.4,59.2c-.09,13.23-6.96,23.65-16.68,25.9-9.02,2.09-18.26,2.05-26.34-4.44-5-4.02-8.35-14.09-8.4-22l-.32-58.53,11.13-.38.17,56.04c.04,11.37,5.43,17.74,13.91,18.33,8.57.6,16.3-5.85,16.38-18.34l.37-55.57Z"/>
  <path class="st20" d="M1084.65,129.66c-2.91,24.69-30.79,23.15-45.25,14.52l2.44-11.24c9.6,4.76,30.38,10.2,32.07-4.87.45-3.99-2.13-10.8-5.24-12.17l-14.22-6.26c-8.4-3.7-13.54-11.56-13.65-22.51s4.96-20.24,14.26-23.53c8.05-2.85,18.55-1.65,26.81,1.55,1.53,2.47.18,10.85-1.99,11.66-7.91-1.87-27.96-7.19-27.62,8.53.4,18.61,36.71,7.72,32.39,44.33Z"/>
  <path class="st26" d="M863.79,64.42c3.83-.48,7.78-.46,11.87.09l-23.57,84.04-12.49-.06-22.69-84.31,11.81-.29,17.18,64.44,17.89-63.9Z"/>
  <polygon class="st19" points="966.07 661.68 965.69 752.49 1043.18 752.19 1042.78 661.69 1049.16 661.68 1048.42 759.15 960.34 759.2 959.7 661.69 966.07 661.68"/>
  <path class="st8" d="M959.8,650.06l6.17.04,76.9.08,6.18-.21,40.69.85-.36,10.49-40.22.38h-6.38s-22.09-.02-22.09-.02l-5.07-.04-23.51.21c-1.19-.35-3.12-.31-4.47.03l-21.57-.18h-6.38s-41.59-.38-41.59-.38l-.36-10.48,42.05-.77Z"/>
  <rect class="st28" x="501.87" y="525" width="309.79" height="5.62"/>
  <polygon class="st20" points="1242.51 148.49 1231.31 148.58 1231.22 77.86 1212.35 77.18 1212.09 63.82 1261.8 63.71 1261.67 77.18 1242.57 77.81 1242.51 148.49"/>
  <path class="st18" d="M1375.05,135.39c1.99,2.15,1.96,9.68.74,13.25l-43.39.04-.16-84.58,12.03.06.12,71.48,30.65-.26Z"/>
  <path class="st8" d="M1126.83,147.91l-11.24.44-.03-70.63-17.85-.6c-1.46-2.07-1.61-9.22-.78-13.34l48.93-.06.07,13.41-19.01.3-.08,70.47Z"/>
  <path class="st25" d="M1049.05,649.97l-6.18.21.19-2.65c.08-1.06-2.47-2.02-3.33-2.03l-19.22-.27-.63-28.78h-54.13s.22,33.66.22,33.66l-6.17-.04.68-40.39,64.75-.37,22.71,30.29,1.11,10.39ZM1038.72,637.87l-12.54-16.6-.66,17.06,13.2-.46Z"/>
  <path class="st12" d="M1298.15,472.89l5.84,9.83,1.67-6.11c.28-1.04,1.39-.68,3.28-.52l.43,13.36c.04,1.31-1.58,4.72-2.36,4.18s-2.15-2.64-2.28-3.76l-.53-4.48c-1.32-11.13-1.99,7.39-3,7.45l-3.89.25c-3.71.24-6.86.5-10.21-.37l-7.18-1.86c-6.82,4.38-5.96,2.88-12.07-.74-4.72,4.25-11.34,2.83-17.4,2.38-2.81-.21-6.5,3.91-9.3-1.16l6.27-2.76c-1.86-1.23-4.45-2.86-5.37-4.74s.19-7.95,1.01-8.95l7.51.45,11.41.69-2.63,3.4c-.55.71-1.66,3.1-.8,1.9,4.95,2.41,4.72,3.84-.06,3.77-.42.94-1.07,4.41-.17,4.56s3.83-.75,4.14-1.86l3.89-13.81c5.17,2.46,5.94,8.08,7.96,15.71l.7-15.66,10.96,4.62,5.59-3.89c1.37-.95,4.7,3.11,4.77,4.47-1.7.76-5.61.35-5.63,1.98l-.08,7.25c-.02,1.62,4.23.85,6.61.96l.91-16.53ZM1251.42,485.43c.13-4.87.26-6.95-.66-6.57l-4.6,1.88,5.26,4.69Z"/>
  <rect class="st28" x="887.14" y="63.75" width="11.04" height="84.85"/>
  <path class="st7" d="M887.59,337.5c.03.54,0,1.3,0,1.88-5.58-1.92-10.35,1.38-11.88,9.42l-9.28-.44-1.06-9.14-.69,6.92c-.12,1.16-.82,1.56-3.57,3.78l-1.54-10.82-.99,9.52-4.06-3.25c-.86-.69-2.69,2.8-3.69,3.6l-12.8.97-1.58-13.29c-.13-1.1,1.28-5.8,1.98-5.15l3.91,3.6,6.98,6.44,2.13-5.52c.41-1.05,2.63,2.91,3.53,2.82l13.6-1.39,5.5,7.34c.52-3.91,3.57-8.85,6.08-8.46l7.43,1.18ZM842.1,346.9c1.34-1.64,3.2-3.88,2.61-4.54l-2.75-3.05.14,7.59Z"/>
  <polygon class="st28" points="1104.68 866.4 1105.64 867.5 901.69 866.56 902.83 866.06 1104.68 866.4"/>
  <path class="st28" d="M1104.11,800.62l-201.32-.15-.96-1.1c67.38-.34,135.35-2.56,202.27,1.25Z"/>
  <path class="st5" d="M1073.77,295.99l4.86.75c.44.07.47.82.22,1.26l-1.66,2.94,4.03,3.89c1.04,1-2.66,5.67-3.94,5.59l-15.01-1.02c-3.05-.21-4.94-2.22-6.56-5.34l-.58,4.09c-.17,1.17-3.87,1.88-3.89.69l-.16-14.71c-.02-1.99,4.79-3.61,6.15-2.61s3.5,2.88,4.8,4.06l1.76-3.57c.34-.7,2.34.15,2.35.39l-.83,15.5,10.23-2.07-2.57-3.83c-.75-1.11-.28-6.16.79-6Z"/>
  <path class="st5" d="M752.8,997.5l-2.91,2.78c-.43.41-.72-.33-2.94-2.82-.44,2.32-.95,6.01-1.32,9.41-4.51-2.12,1.25.35-11.67.09l-14.43-.29.12-4.05c.03-1-2.16-1.22-2.7-1.37.94-1.73,3.03-3.67,4.7-4.5l12.62-6.24-1.24,6.44c3.42-1.69,7.84-1.38,10.52,1.03,2.52-2.35,7.55-3.86,9.25-.48Z"/>
  <path class="st6" d="M920.57,997.5v9.39c-1.43-.08-3.67.18-3.93-1.29l-1.11-6.51-1.26,7.89-9.2-.79c-1.2-.1-3.93,2.35-5.01,1.75l-3.58-1.96c-2.29,1.33-5.89,1.72-7.2.61l3.22-6.87,2.49,3.74c.3.45,1.16-2.22,1.07-2.81l-.63-4.26,10.43-.48c5.27-.24,10.28-.07,14.71,1.6Z"/>
  <path class="st15" d="M956.42,1005c.51-4.36-2.65-6.74-5.74-9.09l5.26-.56c-.46-3.16-1.1-5.49-.39-5.23s3.82-.27,3.57.65l-1.21,4.44c-.05.2,1.97-.25,2.56-.86l1.89-1.96c3.81,1.77,7.79,3.08,12.61,4.28l.5,8.03c3.72-.9,5.2-.75,2.82,1.01l-8.79,6.03c-.56.39-3.28.74-3.12-.04l.9-4.29c.27-1.3.39-4.76.18-6.05-.15-.97-2.29-1.64-2.4-1.53.48,4.35.87,5.73.52,6.93s-3.18,2.27-3.61,1.09l-1.93-5.27c-.06-3.92-.06-3.81,0,.13-1.02,2.39-1.42,4.13-1.95,3.69l-1.68-1.42Z"/>
  <path class="st24" d="M1263.45,348.4s-2.03,1.26-2.67,1.67c-.85.53-2.95-1.36-2.68-2.58.59-2.62.8-6.59-.71-9.52l-1.93,10.81c-.37-.43-2.19-3.69-3.03-3.15l-4.51,2.89-1.49-11.12c4.79,1.48,9.79.98,12.49-5,3.3.98,7.55,5.06,9.67,8.4l1.25-5.21c.26-1.1,3.69.86,3.42,1.87l-3.34,12.6c-.44,1.66-1.99,4.39-3.13,4.57s-4.19-2-3.37-2.4c3.78-4.02,2.68-9.06-1.48-12.69l1.53,8.87Z"/>
  <path class="st12" d="M973.51,492.16c-1.4.52-3.7,1.27-4.15.31l-2.37-5.06-.94,4.82c-.26,1.33-4.18.49-4.1-.91l.88-16.64c7.59,1.74,9.77,2.53,16.25,1.56l.12,13.79-5.69,2.13Z"/>
  <path class="st13" d="M1003.73,836.25l1.43,1.88-2.87,1.88-3,3.21c-2.94,1.1-5.75.37-9.62-1.03l-6.59,2.63c-.64-1.75-1.16-5.63-1.9-4.8l-4.23,4.75-.59-10.76,1.52-1.81,6.33,3.78c5.68-7.6,14.06-6.77,19.5.27Z"/>
  <path class="st5" d="M643.51,1010.39c-.15-3.07.18-6.05.84-9.8l-1.96-4.96,5.86-.36c1.13-.07,1.84-4.26,2.54-5.69l7.03,6.11c2.62.16,6.44.18,6.28,2.04l-.75,8.75c-.04.47-10.88,3.17-12.78-.98l-7.06,4.89ZM649.72,1001.25c0-1.15-.71-2.09-1.6-2.09s-1.6.93-1.6,2.09.71,2.09,1.6,2.09,1.6-.93,1.6-2.09Z"/>
  <path class="st17" d="M782.91,301.88v7.5c-.97-.5-3.04-.02-5.11.68-1.36.46-3.41-2.66-5.23-4.63l-3.8,5.51c-2.24,3.25-3.45-5.59-8.81-.69-.62.57-2.89-.34-2.83-1.33l.2-3.82-.83-3.9c-.3-1.38,3.53-3.12,4.58-3.57l2.59-1.1c.55-.23,1.61.39,2.24.66.55.24-1.22,2.27-1.85,2.69-2.55.56-3.97,3.62-.84,3.93l6.12,1.73c1.15.33.62-5.68.67-9.06l9.13,2.34c.6.15,2.13,4.34,1.62,4.73l2.16-1.68Z"/>
  <path class="st21" d="M865.98,965.73c1.76,3.38-4.1,13.32-7.8,13.6-2.35.18-5.15-3.67-5.76-6.68l-.84-4.21c-.13-.65-.98-.69-1.21-.14l-1.32,3.2-1.22,2.94c-.35.84-2.81-1.06-2.83-2.02l-.22-10.12c5.65,7.58,15.82-6.89,21.21,3.43Z"/>
  <path class="st5" d="M1033.52,307.73c-.63,6.66-15.42-2.37-14.93,1.3l-1.15-8.7-1.64,9.6c-.76-2.21-1.72-5.11-2.31-7.11-.51-1.73,2.66-5.45,4-4.86,1.76.78,4.83,2.25,5.38,2.55l10.4-11.68c.52,7.18.81,13.04.26,18.88Z"/>
  <path class="st5" d="M1259.91,306.46l-1.13-5.43c-.16-.75-1.49-1.25-2.08-1.36-3.9-.69-.89,9.02-2.67,9.05l-3.46.06-.22-12.62,11.43,2.86,9.66-9.98c.36,6.9.6,12.45-.07,18.84-.45,4.37-10.65,2.58-11.48-1.41Z"/>
  <path class="st23" d="M625.18,995.62c.4,4.25-.36,8.76-2.87,11.25-.84.17-2.43,1.7-3.22,1.22l-3.3-2c-2.06,1.32-5.5,2.44-7.44,1.64-1.44-.59-1.32-4.75-1.3-7.59l.05-6.68c.04-5.63,8.85,2.59,18.07,2.16Z"/>
  <path class="st16" d="M675.9,476.48l-6.36,4.71,2.73,1.92c.38.27,1.97,1.43,1.54,1.64l-4.78,2.41,6.56,5.68-20.48.41.64-17.98c6.46,2.81-.96,14.43,9.28,16.02l.45-17.4,10.41,2.58Z"/>
  <path class="st6" d="M1307.72,958.12l4.71,6.74c1.41-1.14,3.46-3.89,4.68-3.21l5.47,3.03,3.69,2.05c.55.3.1,3.55.03,5.43l-9.22,1.18c-3.64.46-8.59-.11-12.22-.21l-.04-14.89,2.9-.11Z"/>
  <path class="st5" d="M1163.29,353.99c1.07-2.36,2.54-5.55,2.31-7.58-.25-2.22-2.27-6.79-3.41-7.76-1.06,5.21.14,6.54,2.13,11.3.31.84-6.13-.13-6.55-2.2-.83-4.08-1.38-10.7-1.7-16.23,4.88.95,9.69,4.23,11.9,8.82,1.1-1.62,2.51-3.15,5.34-4.95l-3.92,17.49c-.27,1.19-4.43,1.33-6.1,1.12Z"/>
  <path class="st21" d="M1218.75,309.6l-2.88-3.14c-.64-.7-1.16,1.05-2.75,3.78l-5.8-4.1-2.42,2.48c-.63.64-2.08-1.61-2.71-1.73l-3.03,2.58c-.89.76-2.45-2.55-2.98-4.04l-3.13-8.81c.7-.35,5,1.07,6.63,2.01l2.88-2.66c.64-.59,1.61,2.69,2.14,4.12l7.32,5.16c2.15-4.11,3.46-5.65,6.54-7.88l.18,12.24Z"/>
  <path class="st9" d="M616.67,963.51l-6.53,14.9-.18-11.91-4.56,6.34c-1.19,1.66-7.25.83-7.33-1.33l-.17-13.27c4.64-.67,9.08.15,10.66,3.6-1.57,3.32-1.95,3.9-1.27,3.79,1.19-.2,3.67-.51,4.15-1.09l2.05-2.41c.62-.73,3.09.79,3.18,1.37Z"/>
  <path class="st21" d="M1465.71,497.96c-4.22-3.31-9.04-9.41-9.65-14.27,1.91-5.5,5.6-9.56,9.85-13.32.59,10.26.53,17.89-.19,27.58Z"/>
  <path class="st16" d="M967.4,826.83c.75,4.43-5.28-.49-6.4,5.82-.36,2,.59,6.33,1.45,8.06,1,2.01,6.76-.04,6.76-2.48v-11.62c2.63-1.5,5.73,3.96,8.68,5.59l-1.52,1.81c-.4-.15-2.12-1.36-2.21-.57l-.49,4.72c-.14,1.31-.12,5.67-.97,5.53l-3.74-.64c-3.3.67-6.86,1.73-8.63-.18-2.74-2.97-3.18-9.44-1.61-13.69,1.29-3.49,5.46-4.16,8.68-2.35Z"/>
  <path class="st6" d="M939.21,995.62c.14,2.51.67,5.82,1.43,7.5.87-1.69,1.34-5.06,1.43-7.5l8.6.29c3.09,2.35,6.25,4.73,5.74,9.09-.85.49-4.7,3.38-5.02,1.67l-1.4-7.47-1.48,7.04c-4.22.23-5.82.63-10.27,2.21l-1.76-5.32-4.45-7.5h7.17Z"/>
  <path class="st23" d="M1119.78,309.29c-1.27-1.78-1.82-3.02-2.15-2.76l-2.74,2.18c-1.55,1.23-6.11,1.18-7.64-.19-1.72-1.55-1.85-8-.14-9.57,3.02-2.77,4.6-4.81,7.69-8.86l1.35,7.24c2.4.17,4.66.87,4.85,2.7.34,3.16-.44,8.19-1.22,9.26Z"/>
  <path class="st25" d="M1473.29,497.68l-4.13-10.25,1.9-3.14c.42-.7-1.41-2.54-2.31-3.68l4.44-9.82,4.37,4.49c1.36,1.39,1.38,17.45-4.26,22.41Z"/>
  <path class="st23" d="M1339.37,965.49l3.57.04c.81,0-.38-2.44-.81-3.65l12.08.29-2.66,6.97c-.39,1.02.76,2.19,2.32,5.48.3,1.43-4.57,4.14-6.76,4.13-1.63,0-3.18-3.58-4.21-6.36-.83-.14-3.65.76-3.63-.56l.1-6.34Z"/>
  <path class="st13" d="M1154.79,973.99c.87-1.74-.68-6.7-1.76-8.42-.45-.72-3.65.11-4.38.37s.09,3.49.68,4.04l3.77,3.49c-3.56,1.75-8.92-1.39-12.59-5.59,5.33-7.55,12.3-7.82,17.47-2.83l1.4-3.41c.69-1.69,5.45.8-2.76,17.44-.24.49-3.7-1.36-3.46-1.84l1.63-3.24Z"/>
  <path class="st9" d="M1389.45,971.25v-3.75l3.83-5.17c4.07-.16,10.94.83,14.88,2.07l-.48,8.13c.17-2.91-10.9,4.67-18.23-1.27Z"/>
  <path class="st6" d="M807.29,995.62c.98,1.1,3.94,1.87,4.02,3.56l.28,5.81c-.53.31-3.42,2.96-3.65,1.7l-1.28-7.22c-.51,2.58-1.88,8.24-3.71,8.08l-7.24-.62,2.36-3.94c.43-.71.39-2.96-.27-3.17l-3.21-1.08,4.57-6.35c.53.71,1.83,3.05,2.07,2.19.18-.65,1.68-3.29,2.15-3.6,1.14-.76,2.94,3.56,3.91,4.64Z"/>
  <path class="st5" d="M1389.45,967.5v3.75c-.67,1.59-2.07,4.31-2.87,3.23l-3.59-4.81-2.76,7.61c-.57,1.59-5.13,1.23-4.92.54,1-6.28.82-10.56-1.13-15.24,4.43-2.41,11.36-.7,15.26,4.91Z"/>
  <path class="st19" d="M958.31,475.8c1.31-1.24,2.88,5.46,2.84,7.94-.08,5-1.45,8.9-4.43,10.28-2.04.95-7.3-1.34-7.32-4.37l-.11-15.38c4.5,1.04,4.69,6.08,4.23,12.05.8,3.35,2.68,4.98,2.48.08.24-3.95.76-9.12,2.32-10.6Z"/>
  <path class="st5" d="M986.72,1039.43c-.44,4.5-10.11,3.17-11.53-.15l-.17-13.08,12.59,4.22-.89,9.01Z"/>
  <path class="st9" d="M640.96,997.5c.08,3.2-.35,7.37-1.54,9.5l-8.01-.14-1.14-7.71c-.86,3.61-1.09,7.84-2.58,7.82l-5.37-.09c2.51-2.49,3.27-7,2.87-11.25,5.33-.25,10.95-.09,15.77,1.88Z"/>
  <path class="st23" d="M673.39,1001.52l-1.85,6.35c-.33,1.14-3.88-.14-3.98-1.35l-.38-4.79-.33-3.34c.07.75,15.1-3.88,17.24-2.47-.19,4.64-.51,9.66-1.03,10.97-4.37,1.27-9.31-.4-9.67-5.37Z"/>
  <path class="st5" d="M676.8,963.75v9.38c-1.83.9-4.3.29-6.76-.55l-3.24.96c-.54.16-1.29-1.93-1.47-2.28,1.37-.1,4.12-6.13,2.55-6.39l-6.85-1.11v-1.88l5.37-1.88c2.03.6,4.02.02,6.57-1.18l3.83,4.94Z"/>
  <path class="st25" d="M932.04,995.62l4.45,7.5c-4.34,4.54-10.25,4.1-15.92,3.77v-9.39c3.28-1.47,7.58-1.88,11.47-1.88Z"/>
  <path class="st17" d="M1004.09,963.5c2.66.18,2.98-.18,3.21.69l1.92,7.37c.26-.69,1-5.27,1.26-7.22l6.71-8.94c1.75,5.62,1.53,13.52.39,17.4l-7.58.26c-1.8.06-4.15.18-5.14-1-1.19-1.41-1.13-7.16-.76-8.56Z"/>
  <path class="st17" d="M1010.07,351.72l-13.22-12.36-.85,10.11-4.64-9.39-6.44-1.72,7.51-1.4c1.44-.27,1.7-3.77,3.32-7.48l1.44,7.1,8.31,3.22,2.9,8.89,1.87-3.65c.31-.6,2.55.38,2.28,1.01l-2.48,5.66Z"/>
  <path class="st23" d="M1154.29,309.47l-.26-11.49-6.9.89c-.9.12-1.4,3.11-1.97,5.49l6.26,5.01c-4.53,1.16-7.32-1.56-9.67-6.16-.64-1.25-1.28-3.8-1.35-5.37-.04-.91,1.43-.27,2.96,1.16l12.36-6.42,3.82,4.46-2.61,5.89c-.55,1.25,1.51,3.86,2.82,5.84-.11.43-1.95,2.27-2.81,1.89l-2.66-1.19Z"/>
  <path class="st23" d="M871.81,300h-1.43c-.36-.57-1.39-2.39-2-1.94-.4.29-1.45,1.62-1.82,2.09-.49.65.8,1.65,1.48,1.67l2.33.06c.51.01,1.17,1.37,1.43,1.88l-2.57,6.3c-3.47-.8-5.14-1.01-8.22-.38-1.18-4.73-1.15-14.49,1.04-19.38l2.12,7.49,6.48-1.46c.84-.19,1.01,2.6,1.16,3.67Z"/>
  <path class="st24" d="M1105.6,972.02c-4.3,3.54-10.92.99-11.53-3.58.37-3.64.44-9.07,1.66-3.66l9.47-9.35.39,16.6Z"/>
  <path class="st24" d="M876.12,995.62l-.95,11.5c-.89.04-4.01.03-4.29-1.41l-1.23-6.43-1.43,7.65c-.21,1.12-3.6-1.03-3.55-2.11l.69-15.23,4.35,5.37c.56-.71,3.09-3.94,3.75-3.02l2.64,3.69Z"/>
  <path class="st21" d="M694.58,970.55l3.81,3.37c.59.53-.64,3.47-1.35,3.45l-3.31-.06c-1.3-.02-5.76-.85-5.66-2.49l.38-6.4-2.17-5.89,12.19-.65-3.88,8.68Z"/>
  <path class="st9" d="M850.31,1006.99c-.8-3.57-1.27-7.55-1.43-11.36l14.04,1.99.07,8.44-12.68.94Z"/>
  <path class="st24" d="M781.48,995.62c-.02,3.35-.58,7.39-1.15,11.1l-3.55-.07c-.57-.01-.92-1.89-1.76-4.1.04-4.05.04-3.65,0,.67-1.22,2.94-2.41,4.87-3.49,1.78l-2.49-4.91c-.36-.7.73-1.83.98-2.59.52-1.6.46-3.51.69-8.22l4.32,5.73,2.99-3.2c.92-.98,2.81,2.79,3.47,3.81Z"/>
  <path class="st24" d="M1246.18,971.71c-2.94,3.6-11.46,2.66-11.88-4.41l11.29-12.01.59,16.43Z"/>
  <path class="st9" d="M770.01,997.5c-.25.76-1.34,1.89-.98,2.59l2.49,4.91c-4.05,1.45-9.24,2.27-13.62,1.35l-.99-9.97c4.18.26,14.06-2.45,13.11,1.12Z"/>
  <path class="st21" d="M832.34,1000.62l5.02,1.52c.78.24.26,4.42-.53,4.61l-3,.71-10.1-.07c-.29-2.2-.4-8.48-.05-10.71,3.26-.86,7.17-.93,9.97-.65l-2.54,4.12c-.25.4-1.44.16,1.24.47Z"/>
  <path class="st17" d="M1293.38,309.38c-1.07-1.17-3.54-4.68-3.09-6.56s1.91-4.98,2.88-6.83l.95-5.7.88,6.66c.5,3.79,8.07-2.27,10.62,2.4.75,1.37,1.63,3.91,2.41,5.87l1.26,3.17c.21.52.47.16.88-.25l2.47-2.47c1.05.18-.02,4.46-1.14,4.49-1.46.04-4.16-.44-4.97-1.53l-5.55-7.51c-1.07-1.45-5.55-1.71-5.85.24-.55,3.52-1.19,7.02-1.75,8.02Z"/>
  <path class="st5" d="M695.27,309.08l-2.6-3.69c-1.58-2.24-.65,1.79-6.64,4.11-2.05.79,3.09-16.52,5.11-18.71,4.32,4.2,4.87,9.16,5.23,15.77,2.19,2.04,2.44,2.6-1.1,2.51Z"/>
  <path class="st23" d="M780.33,1006.73c.57-3.71,1.13-7.75,1.15-11.1l.04-4.83c0-.96,2.43-.29,2.9.46l1.51,2.45c2.37,1.61,5.05,2.76,5.73,4.8.88,2.62-.24,8.57-3.21,9.7l-1.9-8.78-2.28,7.6c-.46,1.53-2.92.32-3.94-.3Z"/>
  <path class="st12" d="M880.73,973.29c-2.15-3.96-12.56,5.42-12.79-2.23l-.26-8.8,9.92,1.57c2.27.36,3.36,8.42,3.13,9.47Z"/>
  <path class="st12" d="M1307.72,958.12l-2.9.11.04,14.89-9.7.26.19-10.26,7.78-2.42c1.09-3.3,1.17-4.18,1.92-4.01.9.21,2.17.7,2.68,1.42Z"/>
  <path class="st21" d="M1019.18,1006.64c-.7-1.86-2.57-5.02-3.97-7.26l14.49-4.48-1.31,13.31-9.21-1.57Z"/>
  <path class="st23" d="M875.17,1007.13l.95-11.5,9.73.27-2.57,10.93c-.41,1.73-3.57,5.18-4.72,4.38s-2.41-2.45-3.39-4.07Z"/>
  <path class="st17" d="M1090.16,307.29l3.27-2.87c.84-.73,2.23,1.17,4.29,1.93.53-.61.25,3.54-.59,3.4l-4.18-.69c-1.96,1.01-6.15,2.25-6.52.35l-.68-16.65,4.83,4.17c.67.58,3.15-.36,3.4.65l1.13,4.51-4.84-1.73c-.74-.27-.32,3.93-.12,6.94Z"/>
  <path class="st15" d="M910.02,346.57c-.31,4.76-8.93,4.24-10.92-.66l6.93-5.73-5.83-3.63,10.56-1.19-.74,11.21Z"/>
  <path class="st11" d="M1043.46,837.31c2.32,3.71-4.19,7.28-7.88,6.61l-.35-18.92c.88.66,2.25,1.64,2.2,1.7-.03.05,2.02-2.31.87-1,1.28,4.55,2.17,6.85,5.15,11.62Z"/>
  <path class="st5" d="M1395.19,1003.12l-.8-5.87-.63,7.74c-.49,1.39-2.36,4.13-3.35,3.27l-3.88-3.35c-.64-.55-2.29-2.29-2.95-2.98-.59-.62,1.38-2.66,2.14-2.64.51.01,1.83.28,2.31.07.33,2.69,1.77,4.97,3.84,6.47l.46-8.34,6.82-4.97.38,16.27-4.33-5.67Z"/>
  <path class="st5" d="M1074,1003.12l-.8-5.87-.63,7.74c-.48,1.38-2.35,4.13-3.33,3.29l-3.86-3.33c-.7-.6-2.34-2.32-3-3.01-.59-.62,1.38-2.67,2.14-2.65.51.02,1.83.28,2.31.07.33,2.69,1.77,4.97,3.84,6.47l.46-8.34,6.82-4.97.38,16.27-4.33-5.67Z"/>
  <path class="st6" d="M711.22,999.38v7.51h-11.47c.55-3.87.83-8,0-11.26,4.13,0,7.66,1.16,11.47,3.75Z"/>
  <path class="st5" d="M811.59,1005l-.28-5.81c-.08-1.69-3.04-2.46-4.02-3.56l12.95.37c.3,4.8,0,11.34-2.23,11.53-1.83.15-4.74-1.04-6.41-2.52Z"/>
  <path class="st19" d="M965.02,1036.88c-.79-.7-4.58-.26-4.24.9l1.38,4.72-7.98-2.07,3.22-10.89,4.01,2.13c2.33-.2,4.15-.3,6.09-.32,1.83-.03,2.07,6.4,1.58,9.14l-4.06-3.61Z"/>
  <path class="st15" d="M961.03,349.45c-1.83.39-4.89,1.28-5.09.21l-1.12-5.88c-.27-1.44,2.74-2.45,4.48-3.38l-4.61-2.7,7.09-2.51c1.43-.51,2.05,5.38,2.22,8.26.1,1.63-1.8,5.75-2.97,6Z"/>
  <path class="st9" d="M1365.08,961.88v3.75c.34,2.76-.68,8.2-2.53,8.02-2.69-.27-5.45-1.02-7.01-2.24-1.33-1.04.09-8.75,1.58-8.87l7.96-.66Z"/>
  <path class="st15" d="M1009.49,309.08c-2.66,1.1-5.22,2.35-5.99,1.28s-1.67-4.54-1.38-5.97,2.53-2.33,4.44-3.41l-4.81-2.75c2.15-1.32,6.46-2.65,7.9-1.79,2.3,1.38,2.28,11.63-.15,12.63Z"/>
  <path class="st15" d="M1186.07,310.1c-1.45.33-4.83,1.28-5.03.21l-1.09-5.92c-.26-1.43,2.74-2.44,4.48-3.36l-4.61-2.67,6.98-2.51c1.52-.55,2.26,5.51,2.33,8.19.05,1.66-1.84,5.79-3.06,6.07Z"/>
  <path class="st15" d="M1242.93,310.75c-1.06.22-3.05-3.13-3.01-4.63.04-1.88,2.35-3.95,4.49-5.29l-4.57-2.46c2.37-1.8,6.8-3.21,7.81-1.37s1.43,6.63,1.57,9.63c.11,2.28-4.04,3.66-6.29,4.12Z"/>
  <path class="st17" d="M797.25,298.12c-.18,1.38-1.09,3.41-2.05,3.63l-3.71.85,5.76,3.02c-3.7,2.99-7.48,5.64-11.47,5.62v-3.75c.77-1.68,1.3-4.99,1.43-7.5,1.94-2.84,7.48-2.62,10.04-1.88Z"/>
  <path class="st17" d="M1019.51,1033.12c.02,1.86,1.54,4.8,2.87,5.62l-6.58-1.44-2.83,8.45-4.32-14.81,4.92,1.57c.75.24,2.61-1.64,3.88-2.7l2.07,3.31Z"/>
  <path class="st17" d="M1022.37,1038.75l-.07-4.58c-.01-.99-2.2-.88-2.8-1.04l4.77-2.96c1.09-.68,4.05,2.1,4.15,3.66s-1.26,5.44-2.44,5.31l-3.6-.39Z"/>
  <path class="st17" d="M798.69,965.62c.02,1.85,1.54,4.81,2.87,5.62l-6.59-1.44-2.82,8.45-4.33-14.81,4.93,1.57c.76.24,2.58-1.62,3.88-2.71l2.07,3.32Z"/>
  <path class="st17" d="M801.55,971.25l-.07-4.58c-.01-.99-2.2-.88-2.8-1.05l4.81-2.98c1.09-.68,3.98,2.13,4.1,3.68s-1.25,5.44-2.45,5.31l-3.6-.39Z"/>
  <path class="st16" d="M1009.29,840l1.61-7.5c2.09-.62,5.84-2.5,7.53-1.07s1.28,9.1-.43,11.61c-1.83,2.68-6.58-.6-8.71-3.04ZM1016.8,840c0-1.15-.71-2.09-1.6-2.09s-1.6.93-1.6,2.09.71,2.09,1.6,2.09,1.6-.93,1.6-2.09Z"/>
  <path class="st13" d="M1211.92,1038.22l6.95,1.62c-2.35,1.26-7.92,1.69-10-.24-1.02-.95-1.57-6.29-1.81-7.89-.29-2,4.02-2.93,6.03-2.27.78.26,2.61,2.27,3.12,3.07.68,1.06-1.66,3.36-4.3,5.71Z"/>
  <path class="st11" d="M967.4,826.83l1.8-.21v11.62c.02,2.44-5.75,4.49-6.75,2.48-.86-1.74-1.8-6.06-1.45-8.06,1.12-6.31,7.15-1.39,6.4-5.82Z"/>
  <path class="st13" d="M1190.25,1042.66l-2.24-11.32c-1.45.57-4.85,1.13-5.44,2.72l-3.08,8.36-1.08-12.86,13.59.15-1.75,12.96Z"/>
  <path class="st23" d="M699.75,995.62c.83,3.27.55,7.4,0,11.27l-7.17-.02v-11.25h7.17Z"/>
  <path class="st5" d="M1365.08,965.62v-3.75c1.64-2.74,3.87-4.71,6.94-5.12l-1.6,17.55-4.09-3.39-1.25-5.29Z"/>
  <path class="st9" d="M815.89,1029.38v1.88h-1.43c-1.1,0-3.08,1.45-3.15,2.83-.12,2.51,1.43,5.28,3.15,4.67h1.43v1.94l-4.57,4.8-3.72-6.69,2.75-6.54c.41-.96-3.63-.5-3.12-.08-.2,2.98-.62,3.64-3.98,4.4,1.36-2.47,2.37-4.61,3.79-6.15s7.03-1.44,8.84-1.05Z"/>
  <path class="st17" d="M1154.29,309.47c-.45-.2-3.16-.11-2.87-.1l-6.26-5.01c.57-2.39,1.07-5.38,1.97-5.49l6.9-.89.26,11.49Z"/>
  <path class="st21" d="M1194.44,345l-3.04-6.43c-.78-1.64-3.68,4.18-2.55,5.43.95,1.05,2.96,2.35,4.16,2.87-1.08.89-2.44,1.92-3.43,2.52s-3.47-3.44-3.5-4.87c-.05-2.45.55-6.46,1.38-8.08s4.91-.91,6.04.38l4.9,5.59-3.96,2.58Z"/>
  <path class="st8" d="M897.51,807.38l.12,53.13c-2.56-16.86-1.46-37.15-.96-54.38l.84,1.25Z"/>
  <path class="st6" d="M1342.14,961.88c.43,1.21,1.61,3.66.81,3.65l-3.57-.04-2.41,7.67-4.86-1.91v-7.5c3.16-1.12,6.69-1.96,10.04-1.88Z"/>
  <path class="st11" d="M1010.9,832.5l-1.61,7.5-.58,3.55c-.15.93-2.58,1.48-3.29,1.29l-6.12-1.63,3-3.21,2.87-1.88-1.43-1.88c1.9-2.23,4.46-2.95,7.17-3.75Z"/>
  <polygon class="st13" points="1166.89 1042.26 1164.81 1030.24 1160.77 1041.91 1159.77 1029.22 1170.14 1031.28 1166.89 1042.26"/>
  <path class="st8" d="M1110.8,860.75l-.84-1.25.56-51.28c1.12,16.59.97,37.14.28,52.53Z"/>
  <path class="st7" d="M738.46,339.38v5.62c.53,2.54-3.33,6.75-3.52,5.11l-1.9-16.73c.34-.69,1.71-3.38,1.64-3.25,1.65,4.5,2.43,6.73,3.77,9.24Z"/>
  <path class="st0" d="M1083.01,339.36l-.95,9.13c.81-8.98-11.63-17.96-6.1-16.64.58.14,2.81-.57,3,.16l1.53,5.7,1.38-7.86c.74,3.29,1.1,8.01,2.57,7.8l6.84-.98c.14,2.73-3.78,2.8-8.28,2.7Z"/>
  <path class="st0" d="M1037.95,1006.69c-1.76.62-5-1.33-5.54-3.59-.64-2.65,1.31-6.51,2.87-7.47l4.15,3.45c1.27,1.05-.81,6.68-1.48,7.61Z"/>
  <path class="st18" d="M646.25,484.13l-6.55,9.32-.05-17.18,8.55.28-4.79,2.59c-.68.37-1.62,2.54-.94,2.91l3.78,2.07Z"/>
  <path class="st27" d="M716.95,1001.25c.54.15,2.73.37,2.7,1.37l-.12,4.05c-2.27-.05-4.64.04-6.88.21v-11.25c1.55.14,3.12,3.04,4.3,5.62Z"/>
  <path class="st5" d="M825.93,1031.25v7.7c-3.37,6.02-5.91-2.53-10.04,1.74v-7.56c2.89.3,3.83,1.85,8.02,6.5l.59-8.38h1.43Z"/>
  <path class="st7" d="M895.19,304.87c.24.88,1.45,1.62,2.03,2,.77.5-.28,4.77-.88,4.19-2.02-1.75-4.83-3.8-5.82-5.45-1.16-1.92.61-8.37,2.28-9.47l2.39,8.73Z"/>
  <path class="st0" d="M1256.1,963.75v7.5c-.63-.35-1.53-1.03-1.99-.58l-3.24,3.16c-.78-4.76-.77-12.49,1.18-14.69l1.79,6c.25.82,1.88-1.16,2.26-1.39Z"/>
  <path class="st13" d="M1101.24,1006.88l-5.47-3.21c-.86-.5-.67-7,.25-7.25l3.09-.86,2.13-5.55v16.88Z"/>
  <path class="st17" d="M1049.42,1006.88c.53-3.63-3.53-1.25-3.64-2.81l-.46-6.58,5.26-1.22c1.24-.29,2.79,4.72,2.15,6.14s-2.12,3.27-3.3,4.46Z"/>
  <path class="st6" d="M752.8,997.5l-.09,9.32-7.08.05c.36-3.4.88-7.09,1.32-9.41,2.22,2.49,2.51,3.23,2.94,2.82l2.91-2.78Z"/>
  <path class="st6" d="M689.71,995.62h2.87v11.25h-5.74l.13-15.4,2.73,4.15ZM689.91,1005.68l1.54-5.37c.31-1.1-2.07-3.18-2.52-3.06l-.24,4.07c-.03.58.42,2.03,1.22,4.37Z"/>
  <path class="st14" d="M797.25,305.62l-5.76-3.02,3.71-.85c.96-.22,1.87-2.25,2.05-3.63.72.21,1.35,3.42,1.99,2.95l4.78-3.52-1.34,6.58c-.27,1.32-2.14.69-4.49,1.27.14,5.17-.18,4.07-.93.23Z"/>
  <path class="st17" d="M1318.56,308.9l-7.5-8.16,1.41-4.51c.82,1.21,2.13,3.93,3.18,3.64l5.59-1.53-2.69,10.56Z"/>
  <path class="st9" d="M1106.98,999.38v-1.88h-4.3v7.5h4.3v-1.88l1.61.95c.49.29-1.07,3.4-1.59,3.46-1.5.17-4.54.05-5.75-.66v-16.88l3.78,6.22c3.67-.04,4.84,1.19,1.96,3.16Z"/>
  <path class="st6" d="M665.33,971.25l-4.3,1.88v-9.38l6.85,1.11c1.57.26-1.17,6.28-2.55,6.39Z"/>
  <path class="st23" d="M643.51,1010.39c-.64.44-1.81.84-2.21.1l-1.88-3.48c1.19-2.13,1.62-6.31,1.54-9.5l1.43-1.88,1.96,4.96c-.67,3.75-.99,6.73-.84,9.8Z"/>
  <path class="st17" d="M1306.29,997.5l-.27,9.21c-.74.58-2.25,1.74-3.07,1.36s-2.01-2.07-2.4-3.07l1.95-4.69c.53-1.28,2.66-2.59,3.79-2.81Z"/>
  <path class="st17" d="M824.5,1031.25l-.59,8.38c-4.19-4.65-5.13-6.2-8.02-6.5v-3.75l8.6,1.88Z"/>
  <path class="st14" d="M1069.69,1038.93v-7.85l4.98.49c1.2.12.7,5.03.74,8.43l-5.71-1.07Z"/>
  <path class="st27" d="M887.59,973.12v-11.25l5.65,3.37-.19,7.85c-1.98-1.86-3.06-3.34-3.55-2.65l-1.91,2.68Z"/>
  <path class="st23" d="M847.44,995.62l-4.45,5.9c2.94,3.21,3.5,3.8,4.45,5.46-2.01.13-4.81-.6-5.74-1.99v-7.5l5.74-1.88Z"/>
  <path class="st27" d="M1241.31,1006.63c-1.47-1.36-2.57-2.86-3-2.32l-2.18,2.7-.03-10.84,5.05,2.52c1.34.67.46,8.29.17,7.94Z"/>
  <path class="st27" d="M678.24,973.12v-11.25c1.66,1.24,2.8,1.84,5.67,3.22l-.23,8.02c-1.86-1.77-3.22-3.6-3.71-2.79l-1.72,2.81Z"/>
  <path class="st5" d="M1013,996.47l-.02,1.31-.65,9.09c-1.52.6-4.45.96-5.74,0l.02-4.66c0-1,2.14-1.37,2.85-.97-.3.85-1.91,3.27-1.22,3.03.46-.16,2.04,1.23,2.16.64.14-.65.65-2.89.58-2.9-.09-.02-1.07-.52-1.52-.77.6-1.7,1.28-2.96.59-3.4l-3.46-2.23,6.4.84Z"/>
  <path class="st14" d="M825.93,1038.95v-7.7l5.2.64c.97.12.49,5.5.5,8.09l-5.7-1.03Z"/>
  <path class="st14" d="M890.46,348.75v-13.12l1.95,5.09,4.8-3.21-1.7,6.68c-.22.87-2.6-.18-3,0l-2.05,4.57Z"/>
  <path class="st14" d="M643.82,971.43l.03-7.71c1.21.74,3.59.38,5.62.16l.07,8.91-5.71-1.35Z"/>
  <path class="st17" d="M850.31,1006.99h-2.87c-.95-1.66-1.51-2.25-4.45-5.46l4.45-5.9c.81,0,1.26-.02,1.43,0,.16,3.82.63,7.79,1.43,11.36Z"/>
  <path class="st9" d="M1293.18,295.98c-.97,1.85-2.42,4.95-2.88,6.83s2.02,5.39,3.09,6.56h-4.3c.19-3.86-.1-8.35-1.43-11.25l.34-5.7,5.19,3.55Z"/>
  <path class="st17" d="M1015.21,999.38c1.41,2.24,3.27,5.4,3.97,7.26-1.7.44-3.69-.27-5.41-1.64l-.78-7.22.02-1.31c.71.09,1.84-.09,1.91.48l.29,2.43Z"/>
  <path class="st14" d="M1307.72,1005v-7.5l5.75.59-.29,8.71-3.26-2.88c-.52-.46-1.67.66-2.2,1.08Z"/>
  <path class="st14" d="M940.64,1038.75v-7.5l5.71.64-.24,8.65-3.27-2.87c-.52-.46-1.67.66-2.2,1.08Z"/>
  <polygon class="st14" points="1052.64 336.77 1051.98 349.22 1046.45 336.19 1052.64 336.77"/>
  <path class="st14" d="M1205.91,1005v-7.5c1.74,1.05,5.86-.61,5.73,1.15-.18,2.41-.63,8.43-.57,7.6-2.34-1.9-3.09-2.8-3.66-2.49-.39.21-1.15.94-1.5,1.24Z"/>
  <path class="st6" d="M1041.02,1006.88l-3.07-.19c.67-.93,2.74-6.56,1.48-7.61l-4.15-3.45,5.74-5.62v16.88Z"/>
  <path class="st7" d="M1194.44,345c2.21,3.6,1.52,3.56-1.43,1.88-1.2-.52-3.2-1.82-4.16-2.87-1.13-1.25,1.77-7.07,2.55-5.43l3.04,6.43Z"/>
  <path class="st23" d="M1069.69,1031.07v7.85l-2.44,3.56c-.78,1.13-3.04-2.86-3.29-3.73h4.3v-7.5h-4.3c.15-.48,1.64-2.48,2.3-2.11l3.44,1.93Z"/>
  <path class="st7" d="M983.67,302.92l1.41-5.88c.2-.83-.89-2.01-1.56-2.02-.8,0-1.94-.5-3.5-1.94,3.47-2.52,7.66.77,11.86,5.28l-8.21,4.56Z"/>
  <path class="st11" d="M1109.96,859.5l.84,1.25c-.62,2.31-3.42,5.68-5.16,6.75l-.96-1.09c.04-3.47,2.63-6.85,5.28-6.9Z"/>
  <path class="st11" d="M902.79,800.48c-.04,3.46-2.63,6.84-5.28,6.9l-.84-1.25c.87-2.39,3.32-5.46,5.16-6.75l.96,1.1Z"/>
  <path class="st19" d="M1003.73,997.5c.46,1.32,1.1,3.9,1.43,5.62l-4.24.74c-1,.17,1.21,4.49,1.38,4.89l-4.3-3.75c.87-1.69,1.34-5.06,1.43-7.5,1.1.65,3.29.78,4.3,0Z"/>
  <path class="st23" d="M643.85,963.72l-.03,7.71-2.46,3.56c-.77,1.12-3.03-2.86-3.28-3.74h4.3v-7.5h-4.3c.16-.51,1.65-2.54,2.32-2.13l3.44,2.1Z"/>
  <path class="st0" d="M725.61,299.03l-4.91,1.6c-1.11.36-1.05,4.66-1.9,8.48l-.26-18.7,1.88,6.37c.41,1.39,3.43,1.53,5.19,2.25Z"/>
  <path class="st23" d="M689.71,995.62l-2.73-4.15-.13,15.4c-2.57.89-1.31-14.52-.91-16.83.19-1.11,3.75-.22,3.75.91l.02,4.67Z"/>
  <path class="st15" d="M777.18,335.62c-.07.48,0,1.28,0,1.88-1.29.16-4,.85-5.15,1.7-1.38,1.02.13,6.16.85,7.68-.53,0-1.18,1.36-1.43,1.88l-1.43-1.88v-9.38c1.66-1.47,4.78-1.97,7.17-1.88Z"/>
  <path class="st27" d="M813.15,296.97l-.57,12.6-1.55-7.82c-.29-1.48-1.77-1.47-4.96-4.58l7.08-.21Z"/>
  <path class="st17" d="M910.67,307.17c-2.74,4.36-4.63,5.23-5.51,3.5l-3.41-6.69,8.92,3.18Z"/>
  <path class="st21" d="M1045.32,997.5l.46,6.58c.11,1.56,4.17-.82,3.64,2.81-.51.45-2.65,2.52-3.23,1.63l-2.3-3.52v-7.5h1.43Z"/>
  <path class="st17" d="M1006.6,995.62l3.46,2.23c.69.44,0,1.69-.59,3.4-.71-.4-2.85-.04-2.85.97l-.02,4.66c-.44-.33-1.07-1.34-1.43-1.88v-1.88c-.33-1.73-.98-4.3-1.43-5.62.71-.55,2.04-1.98,2.87-1.88Z"/>
  <path class="st5" d="M755.67,971.25v-7.5c.22-.04,2.4-2.55,2.47-1.65l.39,5.53c.07.99-.37,4.31-.53,5.61-.12.99-2-1.37-2.32-2Z"/>
  <path class="st7" d="M1286.21,1001.25l-2.95,1.55c-.95-1.33-1.55-3.16-.91-3.46.49-.23,1.51-1.06,2.28-1.66l5.25-1.43-3.68,5Z"/>
  <path class="st7" d="M1221.69,1001.25l-2.95,1.55c-.32-.42-1.82-2.03-1.3-2.55l2.54-2.58,5.39-1.41-3.68,4.99Z"/>
  <path class="st11" d="M902.83,866.06l-1.14.51c-1.02,0-3.26-.74-3.46-2.06l-.61-4c1.85,1.36,3.72,3.38,5.2,5.55Z"/>
  <rect class="st0" x="782.91" y="296.25" width="1.43" height="18.75"/>
  <rect class="st5" x="784.35" y="296.25" width="1.43" height="18.75"/>
  <path class="st17" d="M1071.13,997.5l-.46,8.34c-2.07-1.5-3.51-3.77-3.84-6.47l4.3-1.88Z"/>
  <path class="st0" d="M864.4,1041.24c-1.31-2.03-2.59-4-2.87-5.42-.35-1.77,1.32-4.89,2.86-6.94v12.36Z"/>
  <path class="st17" d="M1392.32,997.5l-.46,8.34c-2.07-1.5-3.51-3.77-3.84-6.47l4.3-1.88Z"/>
  <path class="st0" d="M777.18,348.75v-11.25c0-.6-.07-1.4,0-1.88l.86-5.78c.86,7.2,1.13,14.24-.86,18.9Z"/>
  <path class="st11" d="M1033.22,833.75l-9.53.53c2.62-2.82,5.54-6.69,9.53-.53Z"/>
  <path class="st5" d="M996.56,1005l-2.87,1.88v-16.88c.42.05,1.01,0,1.43,0-.1,4.96-.07,10.91,1.43,15Z"/>
  <path class="st27" d="M659.6,963.75v9.38l-1.06-1.86c-.51-2.8-.6-4.73-1.49-5.06l-4.83-1.81,7.38-.64Z"/>
  <path class="st7" d="M704.05,969.38c1.88,1.17,2.78,1.78,3.48,2.38.46.4-.72,3.26-1.23,3l-3.87-1.96c-.81,1-.62-1.63.19-3.41.57,1.37.86,1.37,1.43,0Z"/>
  <path class="st11" d="M1104.11,800.62l6.99,1.99c-2.66,3.98-4.1,4.16-4.9,2.45l-2.08-4.45Z"/>
  <path class="st27" d="M1042.45,997.5v7.5l-1.43,1.88v-16.88c.89,1.12,1.43,4.98,1.43,7.5Z"/>
  <path class="st0" d="M993.7,1006.88c-.83-1.57-1.43-5.1-1.43-7.5v-5.62c0-.56.04-1.3,0-1.88-.05-.73.88-1.95,1.43-1.88v16.88Z"/>
  <path class="st27" d="M1283.27,1002.8l2.95-1.55-.41,7.28c-.07,1.19-3.37-1.39-3.14-2.55l.61-3.18Z"/>
  <path class="st7" d="M1172.94,1005c-.53,2.52-2.24,5.45-5.26,8.11.59-4.36,2.64-8.05,5.26-9.99v1.88Z"/>
  <path class="st27" d="M1218.74,1002.8l2.95-1.55-.41,7.28c-.07,1.18-3.38-1.38-3.15-2.55l.62-3.19Z"/>
  <path class="st5" d="M992.26,991.88c.04.57,0,1.31,0,1.88l-1.43,5.62-.79,1.13-.95-5.37c-.18-1.05-1.57-1.39-2.56-1.39h-1.43c1.65-1.34,4.75-1.9,7.17-1.88Z"/>
  <path class="st27" d="M996.56,997.5v7.5c-1.51-4.09-1.53-10.04-1.43-15,.85,1.37,1.43,5.06,1.43,7.5Z"/>
  <path class="st5" d="M1306.29,995.62v1.88c-1.13.22-3.26,1.53-3.79,2.81l-1.95,4.69v-7.5l5.74-1.88Z"/>
  <path class="st5" d="M939.21,1029.38v1.88c-.84.16-3.6.47-3.74,1.82l-.56,5.68c-1.49-.88-2.18-6.36-.86-7.63,1.1-1.06,3.68-1.63,5.16-1.75Z"/>
  <path class="st17" d="M1011.76,336.37c4.04,5.72,4.16,6.66,1.89,6.34-2.35-1.44-4.19-2.18-3.7-3.07.85-1.53,2.61-4.71,1.81-3.28Z"/>
  <path class="st11" d="M1029.64,827.11c-1.27-.17-4.85-.65-4.49-1.08l2.04-2.38c.43-.51,2.61-.48,3.24-.54.85-.07.03,4.1-.79,3.99Z"/>
  <path class="st7" d="M1272.17,969.8c.3-.41,1.71.89,1.94,1.36.34.71.72,3.86.12,3.56l-3.06-1.51c-.59-.29.5-2.72,1.01-3.42Z"/>
  <path class="st0" d="M889.02,348.75c-1.02-2.18-1.43-6.19-1.43-9.38,0-.57.03-1.34,0-1.88-.04-.73.87-1.92,1.43-1.88v13.12Z"/>
  <path class="st0" d="M939.95,309.53c-.66-4.02-.67-8.41-.05-13.44.66,4.02.67,8.41.05,13.44Z"/>
  <path class="st6" d="M890.46,348.75h-1.43v-13.12c.39.03,1.01,0,1.43,0v13.12Z"/>
  <path class="st13" d="M1289.08,309.38c-1.3-2.29-1.66-7.57-1.43-11.25,1.33,2.9,1.62,7.39,1.43,11.25Z"/>
  <path class="st7" d="M1005.17,1003.12v1.88l-2.87,3.75c-.16-.4-2.38-4.71-1.38-4.89l4.24-.74Z"/>
  <polygon class="st9" points="678.24 973.12 676.8 973.12 676.8 963.75 678.24 961.88 678.24 973.12"/>
  <path class="st24" d="M940.64,1031.25v7.5l-1.43,1.88v-11.25c.28.41.93,1.82,1.43,1.88Z"/>
  <path class="st6" d="M887.59,973.12c-2.06-2.35-2.06-8.9,0-11.25v11.25Z"/>
  <polygon class="st13" points="1086.9 1040.62 1085.47 1040.62 1085.47 1031.25 1086.9 1029.38 1086.9 1040.62"/>
  <path class="st9" d="M1086.9,1040.62v-11.25c2.19,2.41,2.03,9.2,0,11.25Z"/>
  <path class="st25" d="M1332.1,963.75v7.5c-2.05-.8-2.11-6.75,0-7.5Z"/>
  <path class="st24" d="M1205.91,997.5v7.5c-1.58.31-2.03-8.72,0-7.5Z"/>
  <path class="st27" d="M1212.39,348.9c-.56-3.35-.57-7.17-.05-11.54.56,3.35.57,7.17.05,11.54Z"/>
  <polygon class="st0" points="661.03 973.12 659.6 973.12 659.6 963.75 661.03 961.88 661.03 973.12"/>
  <path class="st25" d="M712.65,1006.88h-1.43s0-7.5,0-7.5c0-1.17.54-3.83,1.43-3.75v11.25Z"/>
  <path class="st24" d="M1307.72,997.5v7.5c0,.74-1.21,1.33-1.7,1.71l.27-9.21v-1.88c.3.46.93,1.82,1.43,1.88Z"/>
  <path class="st17" d="M903.82,296.52c.13-.28,3.36,5.69,1.73,5.36-1.26-.26-4.21-.18-3.82-.99l2.08-4.36Z"/>
  <path class="st7" d="M965.02,1036.88l-2.87,5.62-1.38-4.72c-.34-1.17,3.45-1.61,4.24-.9Z"/>
  <path class="st17" d="M1130,299.74c-.78-.1-2.95-.33-2.86-.41.07-.07,1.23-2.06,1.5-2.5s.06-.5,2.17,2.16c2.63-.35,2.08-.1-.81.75Z"/>
  <path class="st13" d="M770.01,346.88c-1.31-1.72-2.11-7.51,0-9.38v9.38Z"/>
  <path class="st7" d="M751.37,971.25l-.55,3.96c-.11.75-3.06-1.72-2.62-2.22l3.17-3.61v1.88Z"/>
  <path class="st14" d="M1013.77,1005c.08.7-.92,1.67-1.43,1.88l.65-9.09.78,7.22Z"/>
  <path class="st27" d="M1085.47,1040.62c-2.12-1.94-1.84-7.47,0-9.38v9.38Z"/>
  <path class="st7" d="M854.61,1038.75l-.55,3.79c-.09.61-2.57-.37-2.44-.97.2-.89.72-2.75,1.31-3.26l1.67-1.43v1.88Z"/>
  <path class="st17" d="M910.66,298.66c-3,.67-4.09.91,0,0,1.95-3.23.81-1.34,0,0Z"/>
  <path class="st17" d="M1099.94,298.66c-3,.67-4.09.91,0,0,1.95-3.23.81-1.34,0,0Z"/>
  <path class="st14" d="M785.78,307.5v-7.5h1.43c-.14,2.51-.67,5.82-1.43,7.5Z"/>
  <path class="st11" d="M1045.79,833.28s2.57-.82,3.06-.95.53,1.89.62,3.09c.27,3.31-1.79-1.98-3.68-2.14Z"/>
  <path class="st27" d="M940.64,1003.12c-.77-1.68-1.3-4.99-1.43-7.5h1.43v7.5Z"/>
  <path class="st13" d="M940.64,1003.12v-7.5h1.43c-.1,2.44-.57,5.81-1.43,7.5Z"/>
  <path class="st16" d="M841.7,1005c-1.33-2.01-1.86-6.74,0-7.5v7.5Z"/>
  <path class="st23" d="M998,1005v-7.5h1.43c-.1,2.44-.57,5.81-1.43,7.5Z"/>
  <rect class="st13" x="1042.45" y="997.5" width="1.43" height="7.5"/>
  <polygon class="st14" points="1074 1003.12 1072.56 1005 1073.19 997.26 1074 1003.12"/>
  <path class="st6" d="M777.18,346.88v1.88h-5.74c.26-.51.9-1.88,1.43-1.88h4.3Z"/>
  <polygon class="st16" points="1106.98 999.38 1106.98 1005 1102.67 1005 1102.67 997.5 1106.98 997.5 1106.98 1003.12 1106.98 1005 1105.54 1005 1105.54 997.5 1106.98 997.5 1106.98 999.38"/>
  <path class="st28" d="M1174.37,1005h-1.43v-1.88c.1-2.04.58-4.77,1.43-5.62v7.5Z"/>
  <path class="st14" d="M1174.37,1005v-7.5c.46-.23,2.06,2.13,1.73,2.99l-1.73,4.51Z"/>
  <path class="st5" d="M1256.1,971.25v-7.5c1.87,1.06,1.84,7.08,0,7.5Z"/>
  <rect class="st0" x="754.23" y="963.75" width="1.43" height="7.5"/>
  <rect class="st0" x="996.56" y="997.5" width="1.43" height="7.5"/>
  <rect class="st14" x="752.8" y="963.75" width="1.43" height="7.5"/>
  <path class="st28" d="M854.61,1038.75v-1.88l.63-6.05.93,4.97c.19,1-.96,2.41-1.56,2.96Z"/>
  <path class="st28" d="M752.8,971.25h-1.43v-1.88c.63-2.88,1.09-4.72,1.43-5.62v7.5Z"/>
  <path class="st0" d="M1339.27,1005c-.41-.24-2.04-2.12-1.71-3l1.71-4.5v7.5Z"/>
  <path class="st9" d="M999.43,1036.88c-.64,3.71-1.77-.68-1.47-1.54l1.47-4.09v5.62Z"/>
  <rect class="st14" x="1063.96" y="1031.25" width="1.43" height="7.5"/>
  <path class="st23" d="M1339.27,1005v-7.5c1.85.68,1.85,6.82,0,7.5Z"/>
  <polygon class="st14" points="1395.19 1003.12 1393.76 1005 1394.39 997.26 1395.19 1003.12"/>
  <path class="st24" d="M704.05,969.38c-.57,1.37-.86,1.37-1.43,0l.92-6.09.51,6.09Z"/>
  <path class="st0" d="M1300.55,1005l-1.78-4.51c-.34-.87,1.05-2.75,1.78-2.99v7.5Z"/>
  <rect class="st14" x="638.09" y="963.75" width="1.43" height="7.5"/>
  <polygon class="st24" points="992.26 999.38 990.83 999.38 992.26 993.75 992.26 999.38"/>
  <path class="st28" d="M738.46,345v-5.62c.81,1.51,1.8,3.13,1.32,3.79l-1.32,1.84Z"/>
  <path class="st27" d="M999.43,1036.88v-5.62c.5.3,1.89,1.94,1.6,2.81s-1.18,2.34-1.6,2.82Z"/>
  <path class="st24" d="M871.81,303.75c-.26-.5-.93-1.86-1.43-1.88v-1.88h1.43c.39.44,1.62,1.57,1.26,2.2-.26.46-1.02,1.29-1.26,1.55Z"/>
  <polygon class="st14" points="985.09 993.75 986.53 993.75 985.84 999.78 985.09 993.75"/>
  <path class="st6" d="M939.21,1038.75v1.88c-1.34-.44-3.2-1.22-4.3-1.88h4.3Z"/>
  <ellipse class="st11" cx="1045.32" cy="844.69" rx=".91" ry="1.19"/>
  <polygon class="st1" points="757.58 172.84 661.31 172.67 711.83 106.42 661.27 40.24 757.57 39.92 757.58 172.84"/>
  <path class="st7" d="M943.84,101.65c-6.45.99-11.1.97-16.92.89l.08-26.58c6.2-.02,10.92-.03,16.92.65,4.38.5,6.95,7.59,6.95,12.4,0,4.36-2.41,11.93-7.03,12.64Z"/>
  <path class="st11" d="M1194.63,124.72c-2.89,9.1-9.69,12.66-15.9,13.28-5.51.55-12.98-2.46-16.12-9.99-4.86-11.65-4.87-26.14-1.98-38.3,2.58-10.87,9.76-15.69,18.06-15.6,7.04.08,14.1,3.35,16.52,12.93,2.92,11.55,3.32,25.41-.58,37.69Z"/>
  <polygon class="st7" points="1300.09 113.42 1281.22 113.72 1290.84 80.65 1300.09 113.42"/>
  <path class="st10" d="M987.64,661.86c.12.8,1.34,4.44,1.93,3.6l2.55-3.63,23.51-.21,2.65,3.58c.74,1,1.99-1.81,2.42-3.54l22.09.02.39,90.51-77.48.29.38-90.8,21.57.18ZM1028.69,683.96c-4.07-14.22-15.64-19.85-25.38-18.88-9.1.9-20.63,5.54-23.53,19.31,7.43-9.63,14.88-15.72,24.85-16.18s16.43,7.47,24.07,15.76ZM1011.54,699.63c-1.86-7.68-6.33-10.37-10.91-8.38-3.52,1.53-6.24,7.86-5.22,13.89,1.78,10.53,9.2,20.83,17.89,21.22-7.15-8.98-15.88-11.57-15.35-25.2.12-3.02,4.13-7.32,6.45-6.62,6.07,1.85,3.63,11.52,10.52,15.92,2.25,1.44,8.07-.07,9.08-2.79,3.25-8.78,1.06-18.45-3.42-25.46-3.54-5.53-10.22-9.39-16.79-9.26-8.39.16-16.57,5.3-19.65,15.46-2.71,8.95-3.69,19.89,1.43,28.6.83-10.33-4.51-22.29,3.93-33.33,8.43-11.01,24-9.18,29.91,2.11,2.78,5.32,4.94,14.39,2.01,19.51-2.84,4.95-8.74-.95-9.89-5.67ZM991.23,702.16c-.85-12.01,7.35-17.31,14.2-17.05,7.84.29,10.55,8,12.48,18.55,2.34-6.14.52-12.53-2.68-16.64-2.67-3.42-7.15-5.6-11.38-5.63-9.39-.06-16.26,9.42-15.13,21.72.81,8.89,4.2,18.28,10.16,22.87-2.74-8.16-7.06-15.42-7.65-23.82ZM1021.9,716.8c-14.09-4.43-12.27-1.17-17.99-18.63-2.28,5.66.36,13.27,3.64,16.25,4.33,3.94,10.44,7.75,14.35,2.39Z"/>
  <path class="st1" d="M1042.87,650.18l-76.9-.08-.22-33.65h54.13s.63,28.77.63,28.77l19.22.27c.86.01,3.41.97,3.33,2.03l-.19,2.65Z"/>
  <path class="st19" d="M1020.69,661.66c-.42,1.73-1.67,4.54-2.42,3.54l-2.65-3.58,5.07.04Z"/>
  <path class="st19" d="M992.11,661.83l-2.55,3.63c-.59.84-1.81-2.8-1.93-3.6,1.35-.34,3.29-.38,4.47-.03Z"/>
  <polygon class="st17" points="1038.72 637.87 1025.52 638.33 1026.17 621.27 1038.72 637.87"/>
  <path class="st4" d="M1251.42,485.43l-5.26-4.69,4.6-1.88c.92-.38.79,1.7.66,6.57Z"/>
  <path class="st4" d="M842.1,346.9l-.14-7.59,2.75,3.05c.59.66-1.26,2.9-2.61,4.54Z"/>
  <path class="st4" d="M1005.17,838.12l-2.87,1.88,2.87-1.88Z"/>
  <ellipse class="st23" cx="648.13" cy="1001.25" rx="1.6" ry="2.09"/>
  <path class="st17" d="M870.38,300v1.88l-2.33-.06c-.68-.02-1.98-1.02-1.48-1.67.36-.47,1.42-1.8,1.82-2.09.6-.45,1.64,1.37,2,1.94Z"/>
  <ellipse class="st4" cx="1015.21" cy="840" rx="1.6" ry="2.09"/>
  <path class="st17" d="M814.46,1031.25v7.5c-1.71.61-3.27-2.17-3.15-4.67.07-1.37,2.05-2.83,3.15-2.83Z"/>
  <rect class="st16" x="814.46" y="1031.25" width="1.43" height="7.5"/>
  <path class="st23" d="M689.91,1005.68c-.8-2.34-1.25-3.78-1.22-4.37l.24-4.07c.45-.12,2.83,1.96,2.52,3.06l-1.54,5.37Z"/>
  <rect class="st17" x="1102.67" y="997.5" width="2.87" height="7.5"/>
  <path class="st0" d="M1009.47,1001.25c.45.25,1.43.75,1.52.77.08.01-.43,2.25-.58,2.9-.13.59-1.71-.8-2.16-.64-.69.24.93-2.18,1.22-3.03Z"/>
  <rect class="st7" x="1065.39" y="1031.25" width="2.87" height="7.5"/>
  <rect class="st7" x="639.52" y="963.75" width="2.87" height="7.5"/>
  <path class="st7" d="M777.18,337.5v9.38h-4.3c-.72-1.51-2.23-6.66-.85-7.68,1.15-.85,3.86-1.54,5.15-1.7Z"/>
  <path class="st17" d="M939.21,1031.25v7.5h-4.3l.56-5.68c.13-1.36,2.9-1.66,3.74-1.82Z"/>
  <path class="st22" d="M1011.54,699.63c1.14,4.72,7.05,10.62,9.89,5.67,2.93-5.11.77-14.19-2.01-19.51-5.9-11.29-21.48-13.12-29.91-2.11-8.45,11.04-3.11,22.99-3.93,33.33-5.12-8.71-4.15-19.65-1.43-28.6,3.08-10.16,11.26-15.3,19.65-15.46,6.58-.13,13.26,3.73,16.79,9.26,4.48,7.01,6.67,16.67,3.42,25.46-1.01,2.73-6.83,4.23-9.08,2.79-6.89-4.4-4.46-14.07-10.52-15.92-2.32-.71-6.33,3.6-6.45,6.62-.53,13.63,8.2,16.22,15.35,25.2-8.69-.39-16.11-10.69-17.89-21.22-1.02-6.02,1.69-12.36,5.22-13.89,4.58-1.99,9.05.7,10.91,8.38Z"/>
  <path class="st3" d="M991.23,702.16c.6,8.39,4.91,15.66,7.65,23.82-5.96-4.59-9.35-13.97-10.16-22.87-1.13-12.31,5.74-21.78,15.13-21.72,4.23.03,8.71,2.21,11.38,5.63,3.21,4.11,5.02,10.5,2.68,16.64-1.93-10.55-4.65-18.26-12.48-18.55-6.85-.25-15.06,5.04-14.2,17.05Z"/>
  <path class="st3" d="M1028.69,683.96c-7.64-8.29-14.39-16.2-24.07-15.76s-17.42,6.55-24.85,16.18c2.91-13.77,14.43-18.41,23.53-19.31,9.75-.96,21.31,4.66,25.38,18.88Z"/>
  <path class="st3" d="M1021.9,716.8c-3.91,5.36-10.02,1.55-14.35-2.39-3.28-2.98-5.91-10.58-3.64-16.25,5.73,17.47,3.9,14.2,17.99,18.63Z"/>
</svg>