<?xml version="1.0" encoding="UTF-8"?>
<svg id="Ebene_1" xmlns="http://www.w3.org/2000/svg" version="1.1" viewBox="0 0 1920 1080">
  <!-- Generator: Adobe Illustrator 30.1.0, SVG Export Plug-In . SVG Version: 2.1.1 Build 136)  -->
  <defs>
    <style>
      .st0 {
        fill: #bfbfc9;
      }

      .st1 {
        fill: #f6f8fa;
      }

      .st2 {
        fill: #635bbc;
      }

      .st3 {
        fill: #334457;
      }

      .st4 {
        fill: #c5c5ce;
      }

      .st5 {
        fill: #655cc0;
      }

      .st6 {
        fill: #e2e2e3;
      }

      .st7 {
        fill: #e5e5e5;
      }

      .st8 {
        fill: #24764b;
      }

      .st9 {
        fill: #bebec7;
      }

      .st10 {
        fill: #02f78a;
      }

      .st11 {
        fill: #ccccd6;
      }

      .st12 {
        fill: #17171e;
      }

      .st13 {
        fill: #564fa3;
      }

      .st14 {
        fill: #363360;
      }

      .st15 {
        fill: #615aba;
      }

      .st16 {
        fill: #1b1c25;
      }

      .st17 {
        fill: #18181f;
      }

      .st18 {
        fill: #babac3;
      }

      .st19 {
        fill: #dfdfe0;
      }

      .st20 {
        fill: #24242b;
      }

      .st21 {
        fill: #b6b6c0;
      }

      .st22 {
        fill: #d1d1d2;
      }

      .st23 {
        fill: #eaeaea;
      }

      .st24 {
        fill: #c7c7d1;
      }

      .st25 {
        fill: #1c1c29;
      }

      .st26 {
        fill: #1f1e2f;
      }

      .st27 {
        fill: #e8e8e8;
      }

      .st28 {
        fill: #e6e6e6;
      }

      .st29 {
        fill: #292a33;
      }
    </style>
  </defs>
  <path class="st12" d="M0,1080V0h1920v1080H0ZM783.74,226.14c4.9-.23,2.24-19.56-1.68-17.64l-5.93,2.91c-1.1-.52-5.33-3.81-6.42-2.55l-3.92,4.53-1.44-4.69c-.26-.85-4.1,1.19-3.99,2.07.47,3.46,2.47,10.73,4.13,13.81.43.79,4.63-.39,5.06-1.18l2.08-3.84,2.81,4.58c.45.73,4.09.72,4.36-.09l3.04-8.96,1.9,11.05ZM800.81,217.83c.91-.2,3.13-1.7,2.46-1.85l-3.47-.75c-2.8-.6-5.46-1.22-7.07-1.66l11.9-3.67c-6.78-1.07-10.94-1.16-15.91-1.04l.13,16.01,15.81-1.38-11.76-3.88,7.9-1.78ZM824.85,216.76l-10.44-3.26,12.38-3.57c-6.94-.88-10.93-1.03-16-1.09l.2,15.98c5.9-.28,9.47-.47,15.81-1.48l-12.61-3.64,10.65-2.95ZM832.81,224.83c2.66-.25,5.81-1.22,6.4-2.67s.16-5.55-1.31-6.1l-5.02-1.88,7.04-1.67c-2.32-5.9-12.06-5.29-13.22-.29.08,2.83,5.24,6.35,8.02,8.73l-8.43-.92c.31,2.63,3.62,5.08,6.52,4.8ZM860.98,216.87l-9.62-3.4,9.96-3.73-14.18-1.2.18,15.75c1.84.13,4.29.25,4.41-.65l.63-4.77,8.62-2ZM875.71,208.19c-3.84,1.53-5.25,2.19-4.81,2.35-.04,5.7-.1,7.74-2.17,10.92-5.16-2.48-.95-12.83-3.26-12.63l-4.11.35.3,13.89c3.08,1.95,10.67,2.02,13.65.02l.4-14.91ZM892.8,223.12v-14.29c-3.6.16-5.45-.02-5.72.95l-1.01,3.72-2.75-4.05c-.71-1.05-4.44-.61-6.19-.43l.27,15.59c3.42-.32,5.35-.2,5.63-1.16l1.11-3.73,2.54,4.18c.64,1.06,6.11.45,6.11-.79ZM904.17,214.1l4.92-5.5-8.57,1.71-5.93-1.72-.03,15.7c2.45.05,4.51.3,4.61-.61l.64-5.68c3.07,4.3,4.96,7.69,10.5,6.28l-6.13-10.18ZM932.39,221.34c1.7,3.75,7.5,4.33,11.06,2.31,4.06-2.3,4.01-8.93,1.81-12.6-2.72-4.54-10.98-2.04-12.87.87-.35.54-1.4,1.75-2.57,3.19l-1.17-5.95-19.4-.12,5.33,4.39c1.01.84.5,4.56.5,6.22v3.99c0,1.01,2.64,1.2,3.59.82,3.71-1.5-2.81-15.04,5.23-13.38l1.27,14.44,5.54-3.97c-1.51-5.18-.73-2.98,1.69-.21ZM962.12,224.38l.12-14.97c0-1.01-4.53-.82-4.61.17l-.46,5.59-2.98-5.62c-.59-1.11-4.38-.68-6.05-.46l.24,14.74c.02,1.01,4.43.88,4.51-.13l.44-5.36c1.45,3.24,5.26,6.78,8.78,6.04ZM968.68,222.91c5.03,2.01,10.48,2.41,17.13.18l-10.72-3.35,10.87-3.18-10.87-2.92,10.69-3.66c-6.34-1.84-11.42-1.7-17.1.37-1.5,2.87-1.62,7.69-1.99,12.75l1.99-.19ZM1000.17,224.67l-.51-14.79c-2.4-.69-9.1-1.14-13.63-1.21l.08,15.56c1.99.18,4.49.44,4.58-.5l.52-5.58c2.86,3.93,6.48,7.17,8.94,6.52ZM1011.27,220.88c-.03-2.52-.5-6.58.43-7.4l4.83-4.25-13.64.11c5.5,4.4,5.88,6.47,5.49,12.6.38,4.27,2.44,3.14,2.89-1.05ZM355.76,380.31c12.58-.28,20.76-7.3,21.4-18.37,1.38-23.99-30.56-17.21-33.34-28.15,0-3.42,7.05-6.06,10.09-5.74,4.07.44,7.45,3.68,10.23,6.91,1.83,1.92,8.93,1.15,11.12.26-.64-13.48-12.4-17.08-23.49-16.6-9,.38-16.97,3.97-19.17,12.73-1.72,6.83,1.36,15.64,9.26,19.07,11.57,5.02,22.69,5.39,23.15,11.45.17,2.27-2.74,6.84-5.03,7.53-4.2,1.26-8.51,1.34-11.97-.24-2.53-1.16-4.65-5.11-6.93-9.21l-10.72,1.07c.48,14.08,12.02,19.6,25.39,19.3ZM425.67,320.36h-11.84v9.42h11.84v-9.42ZM714.1,344.04c3.62-.34,7.79-.03,7.79-1.25v-5.58c.01-1.22-3.55-1-6.01-1.23-1.64-.16-2.16-5.35-.85-6.55,1.22-1.12,3.65-.83,7.63-.52l1.86-7.11c-6.82-2.31-15.34-2.78-20.76,2.89l-2.19,10.23c-3.07,1.47-5.66,2.98-5.78,4.87-.17,2.68,2.93,4.05,6.38,4.85l.4,33.75,11.36-.27.18-34.07ZM1078.02,374.38c.73,1.11,2.16,4.35,3.76,4.2l7.88-.75v-57.08s-11.6-.27-11.6-.27l-.58,17.62c-8.73-5.3-19.11-5.43-24.94,2.61-9.88,13.63-2.67,36.44,10.32,37.76,5.15.52,11.18-1.34,15.16-4.08ZM1134.19,320.36h-12v58.08h12v-58.08ZM1250.94,320.36h-11.79v58.08h11.79v-58.08ZM1345.44,320.36h-11.84v9.42h11.84v-9.42ZM399.84,367.97l.09-23.59c2.8-.54,6.72-.29,6.85-1.59s.18-4.54.09-5.86-3.87-.96-6.64-1.35l-.77-12.93c-7.74.64-12.08,6.19-12.1,12.41-2.33,1.16-5.39,3.12-5.38,4.84,0,2.27,2.85,3.85,5.95,4.62l.4,24.62c.04,2.63,1.65,7.07,3.73,7.88,4.95,1.94,14.42,2.05,15.36.08.64-1.33.85-4.99-.28-5.95s-4.24-1.91-7.29-3.18ZM686.94,367.96l.16-23.55c2.28-.56,6.86-.31,6.87-1.61l.05-5.89c.01-1.29-4.1-.93-6.65-1.29l-.79-12.96c-7.73.64-12.08,6.19-12.1,12.41-2.33,1.16-5.4,3.09-5.38,4.8.03,2.43,2.83,3.87,5.94,4.66l.4,24.61c.04,2.62,1.62,7.12,3.73,7.89,5,1.82,14.38,2.17,15.37.07.63-1.34.83-4.97-.28-5.94s-4.23-1.9-7.32-3.19ZM1319.59,367.97l.15-23.57c2.33-.55,6.86-.3,6.87-1.61l.06-5.88c.01-1.31-4.07-.93-6.66-1.3l-.78-12.96c-7.74.64-12.08,6.19-12.1,12.41-2.32,1.16-5.39,3.1-5.38,4.81,0,2.37,2.87,3.89,5.94,4.65l.41,24.6c.04,2.63,1.58,7.16,3.68,7.88,5,1.71,14.36,2.31,15.4.09.63-1.34.84-4.97-.28-5.94s-4.24-1.91-7.31-3.18ZM472.55,378.19l.19-28.41c.02-3.65,4.42-6.93,7.81-6.69,3.04.21,5.35,3.98,5.36,7.35l.05,28.03,11.19-.65c-2.22-15.54,6.34-43.52-12.24-43.56-4.19,0-9.68,1.85-13.66,4.95-6.9-6.35-16.8-5.93-23.75-.76-3.16-2.47-9.31-3.61-11.89-1.16v40.93s11.47-.03,11.47-.03l.13-26.97c.01-2.74,2.63-7.06,4.92-7.82,2.48-.82,8.48.96,8.51,3.54l.34,31.35,11.57-.11ZM543.83,378.19l.85-30.04c.07-2.64,5.98-6.49,8.36-5.81,2.09.59,4.41,4.87,4.4,7.34l-.05,28.57,11.71-.06c-1.87-13.25,6.11-43.62-11.71-43.99-4.52-.09-10.56,2.34-14.66,4.82-6.74-5.62-16.81-6.62-23.58,0-2.81-3.37-9.44-4.37-11.97-1.52l-.1,40.58,11.52.14.34-27.93c.03-2.39,3.44-6.1,5.02-7.48s7.85.32,7.9,2.74l.72,32.6,11.24.04ZM598.76,369.33c-4.79,3.83-11.69-4.34-10.2-9.69l27.13-.02c2.02-12.45-5.15-24.27-16.98-25.3-13.45-1.16-22.2,8.41-22.25,22.12-.03,10.21,5.47,19.89,14.73,21.64,9.83,1.86,20.23-.65,23.53-11.25-4.67-5.05-10.94-1.53-15.97,2.49ZM646,342.26c2.01.65,5.49,4.38,5.52,6.62l.36,29.41,11.69-.11c-1.71-12.88,5.52-42.61-11.63-43.77-4.29-.29-10.95,2.26-14.48,3.2-3.08.82-9.8-4.13-12.5-.49l-.06,41.19,11.38-.19c.99-6.63-3.64-40.21,9.72-35.86ZM736.64,359.78l27.31-.34c1.33-13.97-6.16-24.77-18.53-25.22-12.74-.46-20.87,9.02-20.92,22.2-.04,10.36,5.32,19.91,14.89,21.67,9.57,1.76,20.24-.75,23.33-11.27-11.5-9.65-15.68,10.83-23.2,1.51-1.47-1.82-2.97-6.14-2.89-8.55ZM784.28,352.93c.04-1.85,2.97-7.07,4.78-7.04l6.67.08c1.5-1.54,3.4-7.24,3.2-9.93-4.48-3.38-9.89.36-13.6.36h-13.14s-.02,41.82-.02,41.82l11.6-.28.51-25.01ZM825.76,342.36c2.05.6,5.43,4.54,5.45,6.73l.32,29.25,11.53-.1c-.33-12.08,1.43-24.96-2.09-36.79-2.94-9.88-17.97-8.04-23.64-3.08-4.33-1.93-7.85-2.57-12.72-2.44v42.37s10.89,0,10.89,0c.99-6.39-3.54-39.99,10.27-35.95ZM872.63,369.67c-6.35,2.8-11.97-5.38-9.7-9.98l26.11-.15c2.67-13.12-5.09-24.46-17.25-25.29-13.08-.89-21.57,8.52-21.51,22.18.04,9.99,4.72,19.32,13.84,21.37,9.87,2.21,20.26.3,24.37-11.11-1.21-1.02-6.18-2.3-8.66-2.32-2.19-.02-4.78,4.22-7.21,5.29ZM909.74,378.19l.28-24.58c.02-2,2.08-6.79,3.8-7.16s4.28-.5,7.43-.76c1.73-.88,3.41-6.34,3.9-8.95-4.7-4.07-11.31-2.55-14.97,1.91-3.01-2.78-9.3-3.89-12.14-1.33l-.06,40.83,11.76.04ZM1022.97,342.36c2.05.6,5.43,4.54,5.45,6.73l.32,29.25,11.53-.1c-.33-12.08,1.43-24.96-2.09-36.79-2.94-9.87-17.97-8.03-23.64-3.08-4.33-1.93-7.85-2.57-12.72-2.44v42.37s10.89,0,10.89,0c.99-6.39-3.54-39.99,10.27-35.95ZM1179.49,369.37c3.13-6.76-.23-14-6.92-16.09l-19.89-6.19c8.13-14.12,18.29,7.4,25.56-2.63-1.65-10.15-12.59-10.16-20.19-10.03s-13.9,3.78-15.2,10.28c-1.42,7.16,2.88,12.62,10.12,14.81l17.01,5.15c-2.15,4.24-5.96,6.42-9.3,5.92-8.69-1.31-4.95-10.3-18.91-4.12,2.42,9.78,11.14,12.08,19.34,12.14,7.47.06,14.87-1.65,18.38-9.24ZM1231.52,356.41c0-12.25-9.98-22.18-22.29-22.18s-22.29,9.93-22.29,22.18,9.98,22.18,22.29,22.18,22.29-9.93,22.29-22.18ZM1266.15,377.15c5.59,2.56,12.7.61,17.91-1.59,4,2.32,9.54,3.39,13.2,2.67-2.84-12.17,1.96-35.36-4.71-40.43-6.92-5.26-31.38-6.09-31.39,7.66,9.44,7.01,17.4-12.15,23.78,2.27-7.12,4.88-23.72,2.4-25.61,14.35-.94,5.98.71,12.28,6.82,15.08ZM1397.04,357.1c.54-14.91-10.78-24.08-24.63-22.71-13.06,1.29-20.21,12.27-18.79,25.32,1.33,12.27,10.79,19.41,22.84,18.94,10.67-.41,20.11-8.78,20.58-21.56ZM1426.85,342.36c2.05.6,5.43,4.54,5.45,6.73l.32,29.25,11.53-.1c-.33-12.08,1.43-24.96-2.09-36.79-2.94-9.88-17.97-8.03-23.64-3.08-4.33-1.93-7.85-2.57-12.72-2.44v42.37s10.89,0,10.89,0c.99-6.39-3.54-39.99,10.27-35.95ZM425.67,336.05h-11.84v42.38h11.84v-42.38ZM990.2,336.16l-11.46.19-.29,26.45c-.03,2.83-4.22,6.7-6.49,7.59s-8.05-2.17-8.1-4.69l-.59-29.36h-11.5s.21,29.38.21,29.38c.05,7.38,5.99,12.87,13.61,12.89,4.61.01,9.39-1.83,13.09-4.19.71,1.16,2.12,4.16,3.76,4.1l7.79-.3-.02-42.05ZM1345.44,336.05h-11.84v42.38h11.84v-42.38ZM98.96,456.53c5.82-1,7.4-.64,10.4-3.46-9.28-1.31-15.91-1.36-25.61-.03,4.31,2.56,6.64,2.69,10.91,3.83l.08,24.16c0,.61,3.42,1.07,3.54.47l.56-2.71.14-22.26ZM261.34,460.24c-.65-3.74,6.46-5.88,8.85-3.92l7.17,5.89c.92-2.65.09-6.73-1.87-7.82-2.69-1.51-7.65-2.55-10.38-2.32-4.78.42-8.52,4.3-8.32,8.44.49,9.94,18.28,5.49,18.11,13.56-.07,3.53-7.82,5.52-10.25,3.7l-7.96-5.96c-2.12,7.58,5.06,10.11,11.64,10.29,4.97.13,9.92-2.68,10.76-7.17,2.31-12.33-16.68-8.39-17.76-14.69ZM344.84,482.02c5.43-.23,9.38-4.21,9.51-8.77.3-10.43-16.33-6.56-18.36-13.24-.74-2.44,6.54-5.48,8.36-4.12l8.05,6.01c.78-2.92-.76-7.65-3.08-8.39-3.06-.98-7.23-1.56-10.11-1.26-4.31.46-7.69,4.63-7.48,8.42.57,10.42,20.36,4.47,17.24,14.95-.73,2.44-7.75,3.41-9.85,1.89l-7.9-5.76c-1.18,8.54,5.79,10.59,13.63,10.26ZM598.21,482.97l.29-29.61-4.34-1.43c-.9-.3-1.94,2.02-2.29,3.01l-7.43,21.09-7.86-22.43c-.67-1.9-6.47-1.46-6.5.43-.13,8.02-.07,20.21.96,29.07,7.26-7.46.13-14.95,4.23-21.79l5.87,17.15c.4,1.16,1.65,2.95,2.26,3.63.4.45,2.71-.64,2.93-1.21l6.22-16.71c5.87,6.48-3.85,13.92,5.67,18.81ZM669.79,467.93l6.44-7.72c-5.17.33-7.11,2.87-11.24,6.68-3.29-5.05,2.94-11.37-4.5-15.97-.7,11.69-1.17,21.09.83,32.22,2.47-4.74,2.79-7.02,4.39-12.03,5.13,4.13,3.88,10.4,11.82,10.99l-7.74-14.17ZM918.94,481.73c4.57-.68,7.88-5.1,7.88-8.48.02-10.28-16.38-6.76-18.15-13.05-.93-3.28,6.45-5.73,8.38-4.24l8.06,6.21c.32-3.69-1.08-7.64-3.3-8.53-2.47-1-7.45-1.73-9.84-1.45-4.69.54-8,4.38-7.78,8.55.47,8.72,15.93,6.31,17.75,11.47,2.5,4.3-5.8,7.81-8.9,5.84l-9.02-5.72c-1.09,2.51.81,6.94,3.13,7.9,3.05,1.26,8.18,2.04,11.78,1.5ZM1089.99,452.09h-4.04v29.83h4.04v-29.83ZM1338.72,467.93l6.44-7.72c-5.17.33-7.11,2.87-11.24,6.68-3.29-5.05,2.94-11.37-4.5-15.97-.7,11.69-1.17,21.09.83,32.22,2.47-4.74,2.79-7.02,4.39-12.03,5.13,4.13,3.88,10.4,11.82,10.99l-7.73-14.17ZM1422.64,463.54l11.08-10.64c-1.33-.31-4.83-.53-5.62.22l-12.22,11.61c-3.37-4.98,2.89-10.66-5.08-13.41l-.19,29.25c0,.62,3.62,1.65,3.65,1.04l.18-3.03c.26-4.41.69-9.45,5.13-11.18l9.3,13.09c.57.81,4.07,1.1,5.67.83l-11.91-17.79ZM1443.55,452.09h-3.16v29.83h3.16v-29.83ZM1483.69,474.97c1.65,4.93,1.69,7.99,6.75,6.42l-10.55-27.14c-.43-1.1-3.21-2.93-3.97-2.44s-2.57,2.11-2.88,2.99l-9.57,26.93c7.39.59,4.08-4.78,6.96-7.73,2.49-2.55,12.11-2.46,13.26.97ZM1497.98,452.09h-3.95v29.83h3.95v-29.83ZM1605.98,482.66c.78-6.5,1.16-14.97-.67-20.51-2.8-1.41-8.1-2.06-11.52-2.32-.79-3.28-.52-6.26-4.55-8.94-.75,11.53-.91,21.26.9,32.14,5.35,2.65-.7-23.82,8.95-19.99,7.52,2.98-1.02,20.93,6.89,19.62ZM368.3,480.9c-6.31-4.99-5.97-13.97-.88-19.39l-5.04-7.79-4.32,7.56c4.19,5.03.39,20.81,4.47,20.31l5.76-.7ZM1069.41,481.17c-5.6-5.93-5.97-14.18-.6-19.66l-5.22-8.07-3.71,7.86c5.33,8.39-3.49,24.01,9.53,19.86ZM1160.29,480.9c-6.32-4.99-5.98-13.97-.89-19.38l-5.04-7.79-4.31,7.56c4.18,5.02.41,20.81,4.46,20.32l5.78-.7ZM1286.54,481.25c-6.31-6.5-5.84-15.52-.56-19.71l-5.4-7.62c-.94,1.83-2.84,5.73-3.51,7.47l1.89,14.17c.26,1.92.26,6.15,1.73,6.05l5.85-.36ZM1585.3,481.17c-5.6-5.92-5.97-14.18-.61-19.65l-5.18-8.05-3.79,7.81c5.45,8.33-3.48,24.06,9.58,19.89ZM117.59,464.16l6.21-2.96c-5.62-.96-8.73-.99-13.17-.62l1.2,22.41c6.87-.89-.24-15.98,5.75-18.83ZM129.11,472.88l14.88-.62c1.17-5.93-2.87-11.78-7.68-12.29-6.8-.73-11.33,2.43-11.78,9.53-.27,4.28,1.64,10.35,4.79,11.5,4.49,1.64,12.27,1.67,13.96-3.32.19-.56.06-1.75-.5-1.58l-3.27,1.01c-2.4.74-5.31,1.5-7.11,1.31-1.49-.16-3.62-4.65-3.29-5.54ZM164.86,482.77c3.22-7.01,4.7-23.24-5.08-22.69l-10.8.61,1.04,22.73c6.71,1.21-.88-19.62,6.98-19.53,1.4.02,5.05,1.38,5.74,2.14.07,5.74-.52,11.88,2.12,16.74ZM188.52,482.77c3.22-7.02,4.7-23.24-5.08-22.69l-10.8.61,1.05,22.73c6.62,1.46-.79-19.96,6.98-19.53,1.42.08,5.01,1.4,5.75,2.11.06,5.79-.53,11.89,2.12,16.76ZM200.03,472.87l14.96-.62c1.15-5.93-2.87-11.78-7.69-12.29-6.8-.73-11.33,2.43-11.78,9.53-.27,4.28,1.64,10.35,4.79,11.5,4.37,1.6,12.08,1.79,13.98-3.34.19-.52,0-1.76-.54-1.59l-3.25,1.04c-2.38.76-5.31,1.51-7.1,1.31-1.49-.17-3.6-4.61-3.36-5.54ZM237.11,483.47c1.7-8.08,1.29-14.54.01-22.67l-16.4-.86.45,23.4c8.36-.93-1.54-17.27,8.4-20.41,8.41-2.66,1.49,21.44,7.53,20.54ZM288.71,459.94h-3.95v21.98h3.95v-21.98ZM297.73,472.85l16.12-.49c.63-6.19-2.69-11.81-8.5-12.44s-10.82,2.71-11.39,9.63c-.45,5.44,2.3,10.75,6.7,12.05,4.77,1.41,10.61.22,12.4-4.59-.66-3.77-9.13,4.32-11.37,1.26l-3.96-5.4ZM376.28,459.94h-3.95v21.98h3.95v-21.98ZM399.9,465.11l4.72-2.01c.83-.35,2.38,2.34,2.67,3.24.28,5.4-.25,11.39,2.3,16.81,3.19-7.18,2.65-14.1.75-21.06-.69-2.51-7.67-1.24-10.38-1.29l-17.68-.28c0,9.2-.57,14.9,1.76,22.69,3.21-5.25,2.15-11.98,2.78-15.95.47-1.22,2.64-3.59,3.67-4.19.78-.45,3.12,1.03,4.01,1.78.99,5.79-1.43,12.38,3.17,18.37l2.23-18.12ZM434.61,465.11l4.72-2.01c.83-.35,2.38,2.34,2.67,3.24.28,5.4-.25,11.39,2.3,16.81,3.19-7.18,2.65-14.1.75-21.06-.69-2.51-7.67-1.24-10.38-1.29l-17.68-.28c0,9.2-.57,14.9,1.76,22.69,3.21-5.25,2.14-11.94,2.8-15.96.43-1.21,2.61-3.59,3.65-4.17.79-.44,3.12,1.03,4.01,1.78.99,5.79-1.43,12.38,3.17,18.37l2.23-18.13ZM455.6,472.87l14.97-.61c1.15-5.93-2.87-11.78-7.69-12.3-6.8-.73-11.33,2.43-11.78,9.53-.27,4.29,1.64,10.35,4.79,11.5,4.34,1.59,12.01,1.83,13.97-3.34.2-.52.01-1.77-.52-1.6l-3.27,1.05c-2.39.76-5.32,1.52-7.11,1.3-1.49-.19-3.58-4.57-3.37-5.54ZM496.31,474.69c-5.8-5.48-1-13.02-10.12-15.14l6.84,20c.29.84,2.63,3.23,3.23,2.66s2.14-2.23,2.68-3.02c2.19-5.67,5.17-13.46,5.61-20.1-5.55,4.41-5.44,9.6-8.24,15.61ZM528.63,470.9c.05-6.84-3.93-11.04-10.35-10.99-5.77.05-10,4.25-9.97,11.01.02,6.7,4.26,11.2,9.89,11.24,6.77.05,10.38-4.2,10.43-11.27ZM548.65,483.52c4.81-7.98,2.77-15.94.21-23.04l-15.79-.44.93,23.19c7.22-5.19,1.52-11.18,3.98-16.83.9-1.32,4-3.25,5.56-3.46,5.85-.78,1.36,18.76,5.1,20.58ZM621.58,458.94c-8.04,5.13-1.45,10.31-3.91,15.39-.72,1.42-3.34,4.03-4.76,4.64-1.15.49-3.84-2.25-4.17-3.45-.33-5.19.27-11.53-2.34-16.82-3.02,7.07-2.51,12.75-1.11,20.03.47,2.46,6.56,2.92,9.18,2.9l7.8-.03-.69-22.67ZM636.68,482.08c3.26-.17,7.01-2.74,7.68-4.59.58-1.59-.47-5.83-2.09-6.51l-11.69-4.86c1.25-1.65,4.23-3.5,5.52-2.88l6.56,3.12c.31-1.49.14-4.95-1.27-5.2l-7.6-1.36c-2.13-.38-6.55,3.49-6.66,5.73-.13,2.51,2.89,5.19,5.46,6.24l8.3,3.39c-1.12,1.83-4.44,4.52-5.63,3.68l-4.38-3.11c-.67-.48-2.39-.95-3.3-1.2-.8-.21-.3,2.86.12,3.69.93,1.87,5.25,4.04,8.98,3.84ZM653.94,459.94h-3.95v21.98h3.95v-21.98ZM712.09,481.58l-1.31-19.01c-4.25-4.47-12.77-3.26-15.8.77-.67,1.63-1.75,3.77-.82,3.71s2.7-.3,3.32-.7l5.39-3.5c1.02-.66,3.39,1.85,5.23,4.02l-11.09,2.69c-2.37.57-4.75,6.06-3.96,8.32,2.59,7.38,11.29,1.62,19.03,3.69ZM724.81,478.87c-.89-.86-2.59-3.4-3.03-4.64-.56-5.01,2-10.65-2.87-15.8-1.67,7.99-1.27,14.49.05,22.59l16.27.88c-.05-8.4.72-15.28-1.84-23.14-2.86-2.43-1.19,27.22-8.59,20.11ZM750.67,481.97c3.55.28,7.56-3.91,7.38-7.07-.38-6.84-12.9-5.17-13.69-9.53,3.57-4.06,7.5-.94,11.77,1.45,1.61-5.09-3.22-7.24-8.69-6.94-2.85.16-6.61,2.84-6.93,5.54-1.09,9.08,15.43,5.5,12.54,11.31-4.29,4.38-7.31-.07-11.94-3.21-.47,2.28,0,5.88,1.48,6.68s4.63,1.48,8.07,1.76ZM781.17,477.83c-.87-.94-2.11-3.99-2.36-5.07l14.94-.46c1.23-6.84-3.34-12.33-9.01-12.49-6.69-.18-10.7,4.2-10.7,11.34,0,4.4,3.02,9.35,6.39,10.35,4.69,1.4,10.9.12,12.68-4.55-.82-4.45-8.26,4.85-11.95.86ZM802.86,459.94h-4.04v21.98h4.04v-21.98ZM825.58,483.47c1.7-8.08,1.29-14.54.01-22.67l-16.4-.86.45,23.4c8.36-.92-1.54-17.27,8.4-20.41,8.41-2.66,1.49,21.45,7.53,20.54ZM839.66,478.33c-1.26-.65-3.02-3.43-4.01-5.53l15.34-.44c1.97-5.72-2.45-11.99-7.79-12.52-6.95-.68-11.56,3.79-11.55,11.31.01,4.91,3.03,9.32,7,10.58,4.34,1.38,10.96-1.06,12.1-4.41,2.05-6-6.64,3.3-11.1,1.01ZM874.31,464.03l7.14,1.12,1.33,18.43c5.68-6.64,3.08-13.31,2.25-19.77-.74-5.76-7.72-2.68-11.17-2.86l-17.36-.93.58,23.37c7.25-4.93,1.96-11.9,3.85-17.21l5.9-2.35c5.18-2.07-.43,20.58,4.97,19.89l2.51-19.68ZM951.26,470.92c0-6.76-4.11-11.1-10.19-11.07-6.08.03-10.17,4.27-10.17,11.07s4.08,11.07,10.16,11.06,10.2-4.25,10.19-11.07ZM972.3,483.47c1.7-8.08,1.29-14.54.01-22.67l-16.4-.86.45,23.4c8.36-.92-1.54-17.27,8.4-20.41,8.41-2.66,1.49,21.44,7.53,20.54ZM979.3,483.49c-.11,5.61,5.25,6.44,9.35,6.58,2.73.09,8.17-3.13,8.21-6.21l.31-23.47-9.71-.08c-5.9-.05-9.37,4.21-9.13,10.96.1,2.73,1.56,8.27,3.99,9.21s6.74,1.52,10.39,2.2c.41,1.01-3.68,4.59-5.35,3.94l-8.05-3.12ZM1033.65,464.03l7.14,1.12,1.33,18.43c5.68-6.64,3.08-13.31,2.25-19.77-.74-5.76-7.72-2.68-11.17-2.86l-17.36-.93.58,23.37c7.25-4.9,1.97-11.95,3.85-17.18,1.22-.58,4.39-1.83,5.88-2.37.99-.36,2.35,2.86,2.44,4,.11,5.02-1.13,10.02,2.55,15.87l2.51-19.67ZM1054.67,459.94h-3.95v21.98h3.95v-21.98ZM1103.12,478.33c-1.26-.65-3.01-3.43-4.01-5.53l15.35-.44c1.97-5.72-2.45-11.99-7.79-12.52-6.95-.68-11.57,3.79-11.55,11.31.01,4.91,3.03,9.32,7,10.58,4.34,1.38,10.95-1.05,12.1-4.41-.6-5.18-6.38,3.44-11.1,1.01ZM1124.08,459.94h-3.95v21.98h3.95v-21.98ZM1138.2,482.14c3.9-.34,7.56-2.55,8.25-4.51.59-1.67-.58-6.2-2.32-6.91-2.54-1.05-7.4-2.85-11.08-4.28,1.72-2.25,4.51-3.86,5.83-3.12l5.91,3.31c.58-1.32.17-5.32-1.4-5.57l-7.83-1.24c-2.06-.33-6.05,3.58-6.12,5.65-.27,8.4,11.12,5.07,12.82,10.26.58,1.78-4.92,3.64-6.29,2.52l-5.6-4.59c-.93,1.68-1.02,4.69.09,5.72,1.32,1.24,5.53,2.95,7.74,2.75ZM1171.28,478.87c-.89-.86-2.59-3.4-3.03-4.64-.55-5.01,2-10.65-2.87-15.8-1.67,8-1.27,14.49.05,22.59l16.27.88c-.05-8.4.72-15.28-1.84-23.14-2.86-2.43-1.2,27.24-8.59,20.11ZM1204.21,483.47c1.7-8.08,1.29-14.54.01-22.67l-16.4-.86.45,23.4c8.36-.93-1.54-17.27,8.4-20.41,8.41-2.66,1.49,21.45,7.53,20.54ZM1211.25,483.51c-.17,5.55,5.23,6.43,9.32,6.56,2.73.08,8.17-3.13,8.21-6.22l.31-23.47-9.72-.08c-5.89-.05-9.39,4.23-9.11,10.95.11,2.72,1.48,8.36,3.93,9.2,2.71.92,6.62,1.52,10.41,2.26.47.94-3.67,4.55-5.38,3.89l-7.98-3.09ZM1244.49,481.98c3.51.31,7.55-3.93,7.37-7.08-.39-6.67-12.02-5.12-13.89-9.37,4.18-4.52,7.49-.98,11.99,1.33,1.57-5.13-3.23-7.26-8.71-6.95-2.86.16-6.6,2.84-6.93,5.53-1.09,9.05,15.45,5.59,12.48,11.17-4.15,4.74-7.31-.02-11.83-3.07-.49,2.29-.12,5.94,1.4,6.66,1.9.9,4.46,1.47,8.12,1.78ZM1264.08,482.13c5.76.36,9.18-3.09,9.12-7.29-.1-7.54-15.07-4.77-12.78-10.17,2.85-2.63,7.33.04,11.57,1.36.43-3.78-3.81-6.65-8.48-6.18-2.24.23-5.67,1.77-6.8,3.18s-.33,6.4,1.28,7.11l11.66,5.21c-2.27,2.71-5.44,4.03-6.85,2.95l-6.33-4.86c-.61,2.37-.61,4.71.45,5.64,1.39,1.22,5.25,2.93,7.16,3.05ZM1308.67,481.51c-.12-4.5-.28-13.1-1.16-18.07-3.32-6.08-13.68-4.45-16.69,1.08.14,1.54.61,3.93,1.35,3.39l2.75-2.01,4.26-3.13c1.02-.75,4.48,2.65,5.17,4.22l-9.33,2.53c-3.66.99-6.21,4.45-5.32,8.33,1.72,7.46,12.01,1.57,18.97,3.67ZM1319.09,465.35l7.28-4.55c-4.24-.43-8.75-.49-12-.24.29,9.04-1.9,15.04,2.58,22.63l2.14-17.84ZM1357.13,478.33c-1.26-.66-3.01-3.43-4.02-5.53l15.35-.44c1.97-5.72-2.45-11.99-7.79-12.52-6.95-.68-11.57,3.79-11.55,11.31.01,4.91,3.03,9.31,7,10.58,4.33,1.38,10.96-1.06,12.1-4.41,2.05-6-6.67,3.31-11.1,1.01ZM1389.53,483.52c4.81-7.98,2.77-15.94.21-23.04l-15.79-.44.93,23.19c7.22-5.18,1.52-11.18,3.99-16.82.9-1.32,4-3.25,5.56-3.46,5.85-.78,1.35,18.76,5.1,20.58ZM1504.73,486.87c3.21,4.43,15.26,4.42,16.28-2.42,1.17-7.83.91-15.95.85-23.98l-13.3-.11c-7.25,3.85-7.74,14.59-1.73,19.96,2,1.78,7.43,1.23,10.86.95.08,1.34-2.47,5.67-4.19,5.34-1.52-.29-4.39-1.16-6.03-1.75l-2.97-1.07c-.55-.2-.13,2.58.23,3.07ZM1547.53,471c0-5.97-4.87-10.81-10.87-10.81s-10.87,4.84-10.87,10.81,4.87,10.81,10.87,10.81,10.87-4.84,10.87-10.81ZM1557.96,464.15l6.09-2.8c-4.92-1.34-9.3-1.44-12.83-.48l1.11,22c6.66-.66-.26-16.02,5.63-18.72ZM1570.56,459.94h-3.95v21.98h3.95v-21.98ZM1629.58,465.41l5.53-2.34c.82-.35,2.12,2.72,2.21,3.65l1.6,16.45c5.08-6.51,3.31-13.58,1.6-20.61-.91-3.73-8.01-1.45-11.09-1.62l-17.21-.92.85,23.2c6.98-4.79,2.05-10.04,3.61-15.55l3.16-4.36c.71-.98,4.59.91,4.71,2.23l1.65,17.53c5.3-5.42,2.19-10.54,3.39-17.66ZM1653.61,477.83c-.87-.94-2.12-3.99-2.36-5.07l14.94-.46c1.23-6.84-3.34-12.33-9.01-12.49-6.69-.18-10.7,4.2-10.7,11.34,0,4.4,3.02,9.35,6.39,10.35,4.69,1.4,10.9.12,12.68-4.55-.83-4.45-8.25,4.85-11.95.86ZM1684.72,466.63l1.38,16.5c6.2-7.15,2.82-14.85,1.17-22.48l-15.94-.24.19,22.23c7.86.53.19-14.13,6.34-18.38,1.44-1,6.72.67,6.86,2.37ZM752.59,758.17c.54,1.63,1.74,4.75,1.9,6.43l1.93,20.54,2.91,26.74,67.35-6.86c6.21-.63,11.47,1.32,13.25,8.03l13.63-1.13c23.19-1.92,18.91-10.3,24.36-8.87,4.69,1.23,4.29,6.72,6.57,6.52l4.19-.36c16.87-1.44,9.98-16.21,23.1-11.2,2.5.95,5.05,5.49,6.75,8.2l17.36-1.17,7.28-6.34c1.17.93,3.23,3.79,4.43,3.46l6.69-1.85,16.36-4.36c15.61-4.16,19.3,3.38,34.53-1.81,3.1-1.06,9.92,4.59,12.5-1.01.62-1.35,2.83-3.42,3.97-3.95,1.42-.66,4.17,3.23,5.66,3.84,10.55,4.31,20.63-7.32,24.16-7.14,2.33.12,5.35,3.2,7.71,5.18,8.25,6.92,18.73-9.97,20.58-8.16l4.85,4.74c16.11.37,23.06-9.24,30.46-7.43,5.65,1.38,11.1.98,15.25-2.01,13.75-9.91,10.09,12.21,36.7.49.87-.38.24-5.39,1.18-5.56,1.25-.23,2.52-.38,4.45-.52.14,2.76,3.23,6.1,5.53,6.34,10.76,1.14,8.32-8.7,15.67-9.46,1.97-.2,4.94,3.2,5.88,5.14,3.23,6.64,10.31-.28,14.19.32,8.39,1.31,14.13-1.69,20.46-7.26,23.65,12.2,25.18-1.28,26.97-.29l5.01,2.77c2.34,1.29,7.63-2.14,10.1-4.08,3.76-2.96,6.26-1.36,10.63.74s20.43-.85,22.51-2.97c1.04-1.06,1.17-4.08.78-5.51l-1.4-5.17c-.1-4.75-1.68-9.38-2.65-13.92l-3.01-14.1c-1.79-8.38-1.4-17.83-5.51-25.57.56-4.14-1.94-9.45-2.49-13.36l-3-21.08c-.35-2.46-2.76-5.9-4.95-5.78v-1.66l2.42-1.21c.44-.22.17-2.28.02-2.92l-5.52-23.95c-.65-2.82-1.57-6.56-2.03-9.37-1.36-8.33-2.91-17.3-5.14-26.28l-543.14-18.66-269.11-10.08,5.45,103.02c.85,3.23.99,5.67.45,8.71l5.62,107.91,274.05-19.88,2.15-6.86ZM695.74,820.2c8.24,1.18,1.42,13.02,8.37,13.61,2.66.23,7.12-.88,7.28-3.15l1.44-20.31c.49-6.91-2.54-11.23-8.32-11.29-6-.07-8.62,3.07-9.89,10.1l-19.31,1.75c-1.12.1-3.5,1.91-3.63,2.86s1.6,3.2,2.64,3.35l21.42,3.07ZM555.43,825.22c-1.02,1.48-.2,6.49,1.47,6.96l16.09,4.56c1.64.47,6.17,0,6.81-1.47l2.37-5.41c1.98,5.21,7.5,7.85,12.77,4.27-.04-3.88-.43-10.59-.9-15.62-.21-2.26-6.1-4.62-7.94-3.43-1.58,1.02-2.31,4.41-2.83,7.25l-.62,3.33c-.09.5-1.16-.9-1.53-1.24l-3.06-2.8.3,10.25c-.36.91-1.78,2.57-2.71,2.41-.69-.12-2.49-1.95-2.58-2.64l-1.39-10.43-3.72,7.81-2.08-5.85c.37,1.04-8.13-1.32-10.45,2.04ZM550.29,827.68l-7.77,7.48,8.31-3.1c1.31-.49,1.73-5.49.4-6.17-6.71-3.45-3.65,1.47-15.26.68-2.36-.16-5.41-.15-6.74.64s-2.24,3.93-2.62,6.63c-.32,2.28,2.53,6.6,4.58,7.33s7.34-.86,7.64-2.97c.48-3.44.74-8.47,2.86-9.18,2.76-.92,5.92-1.37,8.59-1.34ZM523.06,832.97l-5.49,5.18,6.69-.35c.59-.03,1.08-9.87-1.01-9.91-.74-.02-2.82-.02-3.58-.08-6.67-.53-12.18,1.49-13.22,9.19-.67,4.96,1.35,10.19,7.15,11.48,3.51.78,9.91-1.26,9.93-5.77-3.06,1.58-6.35,3.32-8.44,3.75s-5.62-4.19-5.86-6.43c-.43-4.01,1.28-8.66,4.49-9.4,2.51-.58,6.37.75,9.34,2.34ZM552.39,836.69c0-.55-.45-1-1-1s-1,.45-1,1,.45,1,1,1,1-.45,1-1ZM564.96,837.27l-8.69-1.42c2.01,3.34,6.33,2.96,8.69,1.42ZM549.02,839.04c0-.43-.35-.78-.79-.78s-.79.35-.79.78.35.78.79.78.79-.35.79-.78ZM778.93,967.58c-12.46,4.4-20.86,17.27-21.4,30.08-.59,14.14,7.61,27.72,21.37,33.05,3.7,1.44,8.22,3.76,13.22,3.76h192.19c4.57,0,8.69-2.08,13.18-3.74,12.41-4.59,20.9-17.1,21.42-30.12.55-14.06-7.63-27.73-21.39-33.03-3.66-1.41-8.19-3.75-13.16-3.75l-192.3.02c-4.22,0-9.16,1.82-13.13,3.73Z"/>
  <path class="st16" d="M733.97,575.35l5.75,43.27c-.07,1.52.39,4.48.45,6.02-.03,2.7.14,6.24,1.23,7.91l-.02,1.4c-.14,7.92,1.46,23.08,2.33,32.05,9.6,1.56,17.54.37,26.71.23l93.47-1.41,97.53-1.62,94.97-1.52,97.52-1.62,94.78-1.51c13.39-.21,26.03-.9,38.68-.81v1.66l-17.52.96-84.38,1.28-89.63,1.62-87.08,1.52-89.62,1.61-87.08,1.5-87.52,1.33,3.73,43.47-1.81,1.16c-.45.29.03,1.98.57,1.98h2.36s.47,12.56.47,12.56l-1.83,1.16c-.45.29.04,1.98.57,1.98h2.36s.37,10.99.37,10.99l-2.21,2.69c-.72.88,2.56,2.1,3.42,2.02l.05,10.96-2.15,6.86-274.05,19.88-5.62-107.91c.54-3.05.4-5.48-.45-8.71l-5.45-103.02,269.11,10.08ZM710.94,612.12l-52.26,11.73c-1.08.24-2.82,1.47-3.4,1.96-.76.63,1.91,3.94,3.32,3.94l53.92-.24c.17,2.59,2.38,5.76,4.47,6.11,1.93.32,7.34-.74,7.16-2.89l-1.7-20.45c-.44-5.29-2.06-7.29-7.21-7.19-3.1.06-4.51,3.54-4.3,7.03ZM512.02,628.09c1.57-8.43,1.85-13.42-2.25-21.29l-6,15.42-7.94-15.76c-2.54,8.41-2.04,14.07.86,21.65l.82-13.18,6.74,13.56,4.61-11.81,3.16,11.41ZM557.62,614.69l-5.4,2.02c-1.52.57-1.1-8.75-2.52-7.62l-1.75,1.39c-.45.35-.55,2.68-.44,3.24l2.81,14.3,7.31-13.33ZM529.95,624.43c1.18,2,4.33,3.51,6.98,3.16,3.32-.43,4.03-4.13,2.8-7.72-.9-2.62-2.25-6.39-4.03-6.27-2.12.14-5.07,1.68-7.48,3.44l-1.5-2.61c-.36-.62-1.99-.06-2.02.65l-.14,3.4-.25,5.59c-.05,1.16-4.39,1.32-4.65.19l-2.48-10.82c-1.82,3.2-1.57,10.82,1.14,12.84,3.54,2.63,9.65,1.07,11.64-1.84ZM555.43,624c.01,1.29,3.75,5.01,3.68,3.97l-.2-2.9c-.06-.79-3.48-1.88-3.47-1.08ZM484.34,670.29v3.14h66.26v-3.14h-66.26ZM686.28,719.14l-19.48,6.02c-1.22.38-3.03,2.98-2.81,4.16s3.07,1.68,5.05,1.63l19.14-.51c.59,5.23,3.71,8.2,8.39,8.17,6.07-.03,9.01-1.74,10.12-9.21l21.38-1.68-1.95-20.1-21.28,6.03-2.72-11.31c-3.66-2-10.88-2.27-15.17-.15l-.66,16.96ZM514.65,731.82c1.26,1.74-5.32,3.87-7.22,3.13s-3.9-3.64-4.8-6.7,2.32-9.35,5.66-8.43l8.48,2.33c-.79-2.22-4.37-4.75-6.64-4.82-3.08-.1-7.86,1.57-8.78,3.86-1.72,4.28-1.23,10.62,1.29,13.47s8.51,3.28,13.95,2.36c3.19-.54,2.88-10.47-.24-10.42l-4.42.08c-.47,0-.28,1,0,1.38l2.73,3.76ZM587.91,734.57l-1.4-15.73c-4.93.57-10.54,1.73-10.5,4.28.05,3.47.89,16.51,5.3,16.6,2.83.06,6.79-3.09,6.61-5.15ZM549.15,733.02c1.56,2.75,5.22,2.95,7.94,2.21,3.82-1.03,3.51-6.61,2.79-9.85-.2-.9-2.5-4.13-2.93-3.36l-1.82,3.26c-2.18,1.01-6.03,2.84-6.01,4.65-4.18-.45-8.24-2.28-12.19-5.21l7.57-1.11c-.23-1.02-4.34-2.22-6.53-1.85-2.82.47-3.59,6.27-1.51,6.97l5.8,1.97c1.03.35.09,3.28.03,4.14l6.87-1.81ZM524.07,730.82l9.71-1.99c-.53-4.77-4-7.29-7.69-7.04-2.48.17-5.63,3.23-5.75,6.35-.16,4.2,2.39,7.81,5.63,8.45s7.85-1.78,6.76-4.78l-6.52,2.35c-1.03.37-2.67-3.78-2.13-3.35Z"/>
  <path class="st14" d="M1287.36,659.39c2.19-.12,4.6,3.32,4.95,5.78l3,21.08c-3-1.18-6.83-2.98-8.98-4.19l-1.76,5.43c1.58-1.54-14.73-4.94-14.8-2.37-.06,2.33.03,5.51.17,7.12l-22.15-8.49,2.84,18.68c.2,1.29,2.16,4.17,3.62,4.37,1.28.17,1.89-1.15,3.82-4.21-.94-.75.71.57,1.69,1.35,1.56-4.27,5.68-8.38,10.31-10.19l2.54,9.19c4.4,1.05,11.81-.4,13.59-4.66l5.07,5.26,6.53-3.94c4.11,7.74,3.72,17.2,5.51,25.57l-548.82,39.42c-.16-1.68-1.36-4.81-1.9-6.43l-.05-10.96c0-1.27-.74-3.86-1.2-4.71l-.37-10.99c-.03-.88-.77-2.66-1.11-3.14l-.47-12.56c-.03-.88-.78-2.67-1.12-3.14l-3.73-43.47,87.52-1.33,87.08-1.5,89.62-1.61,87.08-1.52,89.63-1.62,84.38-1.28,17.52-.96ZM1247.92,682.06c0-.43-.35-.78-.79-.78s-.79.35-.79.78.35.78.79.78.79-.35.79-.78ZM1207.63,708.3c7.44.54,15.23-10.36,9.47-15.24-2.83-2.4-7.58-4.72-12.57-7.56-1.04,2.11-2.2,6.38-3.05,9.81-.72-1.62-3.39-6.72-5.65-7.38l-11.63-3.34c-.39,9.21,1.53,18.71,4.61,26.17,4.06-.89,6.55-1.23,7.85-.68,0,.01.83-1.93,1.12-2.58.17-.39.46-.31.74.05l1.44,1.93,2.68-12.72c1.3,4.11,2.74,9.17,4.99,11.54ZM1245.84,704.27c1.97-6.29.38-14.4-4.71-19.06l-13.11-.43-5.49,11.28,10.81,11.64,12.49-3.44ZM1155.02,709.46c-.3-7.26-.77-13.29-3.25-17.18l-12.97-2.01c-1.15-.18-4.37,1.35-5.25.59l-3.96-3.37c.38,4.43.57,9.76,1.45,13.26l2.67,10.69c3.77-1.4,7.76-1.38,11.55-1.77,1.27-.56,4.16-2.38,5.26-1.96l4.52,1.73ZM1173.55,707.8c1.92-4.77,3.24-10.43-.89-14.51-3.24-3.2-6.21-4.39-14.03-5.07l3.09,18.83,11.84.75ZM1086.21,714.96l5.64-13.65c-1.95-3.06-8.58-7.49-11.98-6.89-1.96.35-4.68,3.04-5.71,2.08l-5.6-5.26,1.25,15.44c.17,2.1,2.84,6.28,4.77,6.69s5.3-.65,7.73-1.76l3.9,3.35ZM992.88,693.45c-.14-1.7-.09-1.08.06.68.36,3.62.34,3.39-.06-.68ZM1057.66,716.12l6.98-13.64c-4.22-5.21-13.17-10.87-20.71-7.49-2.47,4.46-.59,15.99,2.55,18.61,5.16.79,9.36,1.65,11.17,2.52ZM1030.33,698.39c-3.01.62-4.4,1.19-4.89.68l-2.77-2.87c-1.06-1.09-4.22,2.02-5.33,3.56l-4.46-4.38c-.41,7.45.47,14.34,2.78,20.69,2.34.28,5.42.21,6.59-.9,1.01-.95,2.57-3.61,4.13-5.95l3.95,6.06c3.73-4.95,4.23-12.86,0-16.91ZM1116.8,700.4c-3.39-6.13-11.48-4.6-16.22.39,3.28,3.35,13.99,5.58,16.22-.39ZM920.45,721.53c.9-.43,2.46-1.85,3.05-1.58l3.59,1.68c1.15-3.02,4.04-11.38,1.96-14.36l-6.64-9.48c-3.84,2.09-8.07,2.84-11.87,2.52-1.16.46-1.18.6-1.34.2l-1.47-3.53c-1.98,2.42-5.25,8.96-4.22,12.29l4.37,14.13c.89-4.62,1.22-4.93,3.16-1.31l1.71-6.5,1.1,6.52,3.38-2.15c.71-.45,2.45,1.91,3.21,1.55ZM982.77,717.78l4.8-2.44c.58-.29,1.3.34,2.8.84,1.45-7.33.48-13.41-2.23-18.68-1.73,1.12-3.38,2.7-4.25,2.14l-3.18-2.01c-4.69,3.91-5.67,9.27-1.65,15.07l1.64-4.94,2.08,10.01ZM1005.85,715.3c1.89-4.87.78-12.58-3.35-18.13l-9.08,2.01,2.82,19.18c1.68-3.33,5.47-4.15,9.62-3.06ZM1098.21,700.11c0-.96-.78-1.74-1.75-1.74s-1.75.78-1.75,1.74.78,1.74,1.75,1.74,1.75-.78,1.75-1.74ZM886.09,719.63c2.57.58,4.46-7.98,3.09-11.19-3.49-8.23-10.63-1.7-19.13-8.35-1.19,8.6.87,17.4,4.94,25.31l1.42-9.96,9.68,4.19ZM959.23,708.5c3.95,1.22,6.89,2.25,10.95,4.09.95-.66,2.95-3.94,3.24-5.97s-4.09-5.16-5.81-4.53c-3.2,1.17-8.02,2.8-10.4,3.44-4.78-1.97-9.11-2.78-13.1-2.17l-12.48-3.86c.03,7.62.96,13.98,3.4,21.18l6.39-3.09c1.76-.83,3.17-.77,3.3-1.76l.63-4.84,6.92,4.77,6.95-7.25ZM1038.63,702.87c-.14-1.7-.09-1.08.06.68.36,3.62.34,3.39-.06-.68ZM859.7,721.58c.67-2.79,1.69-9.1,2.11-13.56-7.32-2.61-13.49-3.54-19.98-3.18l-15.34.87,2.21,20.63c3.18-4.01,26.21-9.12,31-4.76Z"/>
  <path class="st8" d="M1284.28,629.65l5.52,23.95c.15.64.43,2.7-.02,2.92l-2.42,1.21c-12.64-.08-25.29.6-38.68.81l-94.78,1.51-97.52,1.62-94.97,1.52-97.53,1.62-93.47,1.41c-9.18.14-17.12,1.33-26.71-.23-.88-8.97-2.47-24.12-2.33-32.05l5.21-1.61c.67-.21,1.93,1.81,2.17,1.29l1.44-3.11,8,2.27c-.13,4.27.67,2.74,2.15-.15,3.52-.1,7.26-1.73,10.52-3.99-.01-.02,1.18,2.56,1.81,2.65l3.82.52c.4.05,2.04,3.46,1.97,3.19-.05-.22,1.74-1.75,2.28-2.25l2.36,6.09c1.36-1.56,2.58-3.37,3.03-2.77l1.98,2.64,1.58-6.58,6.15,2.98c1.25.61,2.89-2.25,4.06-4.09l3.05,6.39,2.59-5.16c.17-.34,29.4-3.84,29.88-3.09l3.13,4.86,3.01-6.81,1.61,6.96c2.28-4.44,3.75-4.4,4.1-.52.98,3.65,1.25,4.67.29,1.09,1.9-2.49,2.27-3.31,2.97-3.51l2.08-.59,11.1-1.71,1.44,8.53,2.54-6.57c.48-1.24,3.52-.38,5.38-.71.67-.53,2.66-3.22,2.99-2.45l1.7,4.01c1.79-.72,5.38-2.05,6.96-.92,1.41,1.01,3.8,5.27,4.04,5.92,1.87-3.08,4.27-5.69,6.36-6.45l6.32-2.28c1.06.95,4.04,3.8,4.72,2.91l3.48-4.54c2.72,4.6,8.4,6.72,13.96,3.23l-.31,7.65c1.5-3.16,2.68-5.7,3.83-7.64,1.82-3.08,8.64.86,10.94-.72l1.16,8.55,1.94-4.62c.33-.79,2.29-2.56,2.84-1.89l3.44,4.25c-.67,3.06-.25,1.85.84-1.75l6.95,1.28,6.68-7.2.83,8.79,9.49-7.7c1.42,2.05,2.3,3.88,3.06,3.36l5.03-3.49,1.69,7.35,1.86-6.14c1.21,4.37,1.87,6.28,2.1.97l11.57.86c3.21.24,6.44,1.09,9.86,2.26l8.29-4.73,7.9,6.15c.97-4.54,1.47-5.81,1.63.04l2.45-1.44c.61-.35.48-.42.58-.07l.96,3.56,2.09-3.53c.48-.82,3.14-.6,4.08-1.09,13.34-6.99,11.22,6.51,28-1.07,3.5,1.83,25.61,1.81,28.81.55l3.44,5.22,4.21-4.58c.71-.77,2.26-.19,3.81.68l1.69-4.37,1.22,8.31,8.12-5.79,5.38,5.52c2.91-4.57,5.37-6.59,8.81-5.95l10.56,1.96c1.2-.81,2.19-1.97,2.65-1.27l2.75,4.26,2.87-6.6c.79,1.48,2.84,5.54,4.66,5.13,1.52-.34,4.59-1.98,6.55-3.12,5.39,3.79,13.32,4.67,19.05.11l14.04,3.81c5.88-8.26,13.34-1.78,19.65-.57,4.94-.69,11.06-2.9,15.77-1.41l7.98,2.54,10.36-4.08c9.57,11.45,16.92-7.09,27.79,3.63l10.73-5.96Z"/>
  <path class="st8" d="M1282.25,620.28c-8.8-.44-20.96-.05-29.29-3.77-3.2-1.43-7.51,1.05-10.18,1.14-6.52.23-12.93-.07-19.85.65-5.27.54-9.23-.95-13.67-4.17l-17.35,5.32-4.22-4.81c-3.55,1.12-5.97,1.54-9.15,1.94l-6.53.82c-2.35.3-6.32-3.36-5.34-6.03-.56.88-1.07,2.88-2.07,2.66-1.26-.28-4.33-2.53-4.43-2.87l-2.43,4.58c-.68,1.28-4.47.48-6.32.31l-10.32-.95c-6.12,2.56-24.84,4.37-26.52-6.24l-2.96,8.14-7.7-4.76c-.63,1.58-1.19,4.17-1.99,4.07l-4.6-.58c-2.26-.28-5.67-2.75-6.69-4.48l-1.63,3.01c-.07.14-6.51,1.67-6.05,2.49l-1.95-3.5-1.57-2.82c-.27-.48-1.51,1-1.99,1.61l-2.39,3.05c-.65.83-2.86-2.28-4.41-4.15-5.43,7.35-16.94,3.97-23.3-.11l-1.26,2.2c-.18.32-.84,1.39-.82,1.4.04.03-1.62-1.44-1.79-1.59l-1.32,3.67c-.22.61-1.82-1.16-2.25-1.31-1.89.21-4.51.88-5.35.05l-3.42-3.35-13.36,1.7c-.73.09-3.3,2.24-3.67,2.87-.5.85-1.38-2.76-1.8-4.01l-3.64,3c-1.14.93-3.34-2.95-4.54-4.9l-3.32,7.68-3.69-4.49c-.92-1.12-3.96,1.27-5.44,2.38-.63-.33-2.61-2.71-3.63-2.31l-6.17,2.42-3.03-4.01-1.11,3.6c-.9,2.91-1.1-1.75-2.65-.9l-2.7,1.48c-.63.35-1.98-.96-2.86-1.7l-3.18-2.64c-1.39-1.15-7.16,5.19-9.38,3.78-1.09-.69-2.8-2.22-4.22-3.55-8.99-8.38-14.57,10.89-30.73-.06-.77-.52-3.42-1.6-4-.96l-3.63,4.07-1.51-6.32-3.55,7.33-4.68-4.59c-1.03-1.01-3.89,3.22-5.1,3.77-4.69.38-12.19-4.65-12.11-10.73l-5.77,8.88-1.82-4.38-5.71,7.27c-1-1.84-1.96-4.36-2.42-3.86l-2.65,2.85-2.08-4.79c-1.18,1.26-2.51,2.99-2.74,2.29l-1.81-5.34-5.39,8.23-2.64-4.86c-.4-.73-2.1,2.26-2.52,1.58l-1.8-2.9c-.24-.39-.65-.23-.79.19l-1.32,3.98-2.97-6.53-4.99,7.98-8.1-4.36-.82,3.09c-.14.51-1.71,1.26-1.85.73l-1.45-5.41-4.61,6.46-5.49-9.74-2.27,6.04c-9.82-10.25-8.09,3.11-16.2-7.08-1.66,2.83-7.24,5-10.5,4.59-3.67-.46-7.53-5.38-8.71-8.3l-1.67,6.06-14.57,1.54-1.79-2.53c-.5-.71-2.05,1.27-3.02,2.19l-2.2-5.61-5.57,5.84c-1.11,1.17-4.55-1.14-5.89-2.05-.45.34-1.87,1.41-1.98,1.43-.12.02-1.51-1.02-2.99-2.05l-.6,12.39-5.75-43.27,543.14,18.66c2.23,8.97,3.78,17.94,5.14,26.28ZM1053.87,609.85c0-.43-.35-.78-.79-.78s-.79.35-.79.78.35.78.79.78.79-.35.79-.78Z"/>
  <path class="st25" d="M1306.32,739.29c.97,4.54,2.55,9.17,2.65,13.92-2.26-2.35-6.86-5.53-9.06-4.04-.38.26-1.6,2.91-1.82,3.3-1.02,1.8-1.15-2.37-2.96-2.49l-10.29-.68c-2.41-.16-2.7,6.11-1.35,8.73,3.2,6.17,17.07-1.89,26.88.34.39,1.43.26,4.45-.78,5.51-2.08,2.12-18.23,5.04-22.51,2.97s-6.87-3.71-10.63-.74c-2.47,1.95-7.76,5.38-10.1,4.08l-5.01-2.77c-1.79-.99-3.32,12.49-26.97.29-6.33,5.58-12.07,8.57-20.46,7.26-3.88-.61-10.96,6.32-14.19-.32-.94-1.94-3.91-5.34-5.88-5.14-7.35.76-4.91,10.6-15.67,9.46-2.3-.24-5.39-3.58-5.53-6.34,3.7-.26,9.46-.76,13.22-2.36,2.17-.93-.37-9.16-2.65-8.8l-11.04,1.74.47,9.42c-1.93.14-3.2.29-4.45.52-.94.17-.31,5.18-1.18,5.56-26.61,11.72-22.95-10.4-36.7-.49-4.15,2.99-9.6,3.39-15.25,2.01-7.4-1.81-14.34,7.8-30.46,7.43l-4.85-4.74c-1.85-1.81-12.33,15.07-20.58,8.16-2.36-1.98-5.37-5.06-7.71-5.18-3.53-.18-13.6,11.45-24.16,7.14-1.49-.61-4.24-4.5-5.66-3.84-1.14.53-3.35,2.59-3.97,3.95-2.58,5.6-9.4-.04-12.5,1.01-15.23,5.18-18.92-2.36-34.53,1.81l-16.36,4.36-6.69,1.85c-1.2.33-3.27-2.53-4.43-3.46l-7.28,6.34-17.36,1.17c-1.7-2.71-4.25-7.24-6.75-8.2-13.11-5-6.23,9.76-23.1,11.2l-4.19.36c-2.28.19-1.88-5.29-6.57-6.52-5.45-1.43-1.18,6.95-24.36,8.87l-13.63,1.13c-1.79-6.71-7.04-8.67-13.25-8.03l-67.35,6.86-2.91-26.74,97.22-8.24,452.68-37.62ZM1276.49,757.99c-6.15-3.86-9.82-5.93-16.23-8.52l2.65,12.44c4.89,2.18,13.28,2.52,13.58-3.92ZM1258.56,763.9c-.21-3.96-1.03-9.4-3.12-9.86l-14.22-3.13-3.03,13.62,20.38-.64ZM1231.75,764.3c-4.91-6.11-9.49-10.31-14.8-9.96-3.26,2.62-1.64,9.83,1.15,13.32,5.32.28,8.98-.24,13.65-3.36ZM1212.45,765.16c2.02-4.88-4.2-8.99-7.85-9.07l-8.63-.19,2.6,13c3.54.66,12.26.17,13.88-3.75ZM1152.72,774.54l13.14-1.25c.05-3.97-.75-9.31-1.63-12.03l-6.05,2.67c-4.14-1.39-12.45-1.18-14.52,3.3-.67,1.46.25,7.13,1.84,7.32s4.51.23,7.21-.02ZM1090.92,781.01l12.54-2.9-7.88-10.31c-3.28,1.95-5.29,2.21-8.26,1.78-5.5-.79-7.34,2.87-5.74,7.39,1.11,3.13,4.8,5.1,9.34,4.05ZM1074.81,781.31c-1.85-5.29-6.84-10.9-10.73-10.55-3.15.29-6.92,1.71-8.06,3.37s-.43,6.52.25,9.13c5.96.54,12.49.41,18.53-1.95ZM1025.51,786.88c6.61-.03,13.08-.32,18.94-1.73.9-4.1-2.72-9.85-5.21-11.21l-2.35,6.26-5.88-5.05c-.96-.83-5.97.63-5.92,1.94l.4,9.78ZM997.72,779.6l-6.16-2.48-.11,10.26c-.02,2.13,4.3,4.18,6.08,3.69,2.06-.56,4.94-3.28,4.73-5.11s-2.83-5.54-4.54-6.35ZM1018.9,787.92l-2.8-9-10.5.32,1.06,8.84,12.25-.16ZM915.79,797.8c11.45-.26,17.18.19,24.36-3.81-.36-4.6-3.5-9.91-6.89-12.23l-6.82,3.93c-3.6-.95-5.63-1.22-11.16-1.8l.51,13.91ZM961.85,785.6c-10.17,6.39-8.7-1.17-18.4-4.65l1.04,15.31,21.93-2.99c2.21-1.5-2.32-9.08-4.56-7.67Z"/>
  <path class="st10" d="M1282.25,620.28c.46,2.8,1.38,6.55,2.03,9.37l-10.73,5.96c-10.87-10.72-18.21,7.82-27.79-3.63l-10.36,4.08-7.98-2.54c-4.7-1.49-10.83.72-15.77,1.41-6.31-1.2-13.77-7.69-19.65.57l-14.04-3.81c-5.72,4.56-13.66,3.68-19.05-.11-1.97,1.14-5.04,2.78-6.55,3.12-1.82.41-3.87-3.65-4.66-5.13l-2.87,6.6-2.75-4.26c-.45-.7-1.45.46-2.65,1.27l-10.56-1.96c-3.43-.64-5.9,1.38-8.81,5.95l-5.38-5.52-8.12,5.79-1.22-8.31-1.69,4.37c-1.55-.87-3.1-1.45-3.81-.68l-4.21,4.58-3.44-5.22c-3.19,1.26-25.31,1.28-28.81-.55-16.78,7.58-14.66-5.92-28,1.07-.94.49-3.6.27-4.08,1.09l-2.09,3.53-.96-3.56c-.1-.35.03-.28-.58.07l-2.45,1.44c-.16-5.86-.65-4.58-1.63-.04l-7.9-6.15-8.29,4.73c-3.42-1.17-6.65-2.02-9.86-2.26l-11.57-.86c-.23,5.3-.88,3.4-2.1-.97l-1.86,6.14-1.69-7.35-5.03,3.49c-.76.53-1.64-1.31-3.06-3.36l-9.49,7.7-.83-8.79-6.68,7.2-6.95-1.28c-1.09,3.6-1.51,4.8-.84,1.75l-3.44-4.25c-.55-.67-2.51,1.1-2.84,1.89l-1.94,4.62-1.16-8.55c-2.3,1.58-9.12-2.36-10.94.72-1.15,1.94-2.33,4.49-3.83,7.64l.31-7.65c-5.56,3.5-11.24,1.37-13.96-3.23l-3.48,4.54c-.68.89-3.66-1.96-4.72-2.91l-6.32,2.28c-2.09.75-4.49,3.37-6.36,6.45-.25-.65-2.63-4.92-4.04-5.92-1.59-1.13-5.17.19-6.96.92l-1.7-4.01c-.33-.77-2.32,1.92-2.99,2.45-1.86.33-4.9-.53-5.38.71l-2.54,6.57-1.44-8.53-11.1,1.71-2.08.59c-.7.2-1.07,1.02-2.97,3.51.96,3.58.69,2.56-.29-1.09-.35-3.88-1.82-3.92-4.1.52l-1.61-6.96-3.01,6.81-3.13-4.86c-.48-.75-29.72,2.75-29.88,3.09l-2.59,5.16-3.05-6.39c-1.17,1.84-2.81,4.7-4.06,4.09l-6.15-2.98-1.58,6.58-1.98-2.64c-.45-.61-1.67,1.2-3.03,2.77l-2.36-6.09c-.55.5-2.34,2.03-2.28,2.25.07.26-1.58-3.14-1.97-3.19l-3.82-.52c-.63-.09-1.83-2.67-1.81-2.65-3.26,2.26-7,3.89-10.52,3.99-1.47,2.89-2.28,4.43-2.15.15l-8-2.27-1.44,3.11c-.24.52-1.5-1.5-2.17-1.29l-5.21,1.61.02-1.4c.04-2.15-.6-6.14-1.23-7.91-.06-1.54-.53-4.5-.45-6.02l.6-12.39c1.48,1.03,2.88,2.07,2.99,2.05.1-.02,1.52-1.09,1.98-1.43,1.33.91,4.77,3.22,5.89,2.05l5.57-5.84,2.2,5.61c.97-.92,2.52-2.9,3.02-2.19l1.79,2.53,14.57-1.54,1.67-6.06c1.18,2.92,5.04,7.84,8.71,8.3,3.27.41,8.84-1.76,10.5-4.59,8.11,10.19,6.37-3.17,16.2,7.08l2.27-6.04,5.49,9.74,4.61-6.46,1.45,5.41c.14.53,1.72-.21,1.85-.73l.82-3.09,8.1,4.36,4.99-7.98,2.97,6.53,1.32-3.98c.14-.41.54-.58.79-.19l1.8,2.9c.42.67,2.12-2.31,2.52-1.58l2.64,4.86,5.39-8.23,1.81,5.34c.24.7,1.56-1.03,2.74-2.29l2.08,4.79,2.65-2.85c.46-.5,1.42,2.02,2.42,3.86l5.71-7.27,1.82,4.38,5.77-8.88c-.08,6.07,7.42,11.1,12.11,10.73,1.21-.55,4.07-4.79,5.1-3.77l4.68,4.59,3.55-7.33,1.51,6.32,3.63-4.07c.58-.65,3.23.44,4,.96,16.16,10.95,21.74-8.33,30.73.06,1.42,1.33,3.13,2.86,4.22,3.55,2.22,1.41,7.99-4.93,9.38-3.78l3.18,2.64c.88.73,2.23,2.04,2.86,1.7l2.7-1.48c1.54-.85,1.75,3.81,2.65.9l1.11-3.6,3.03,4.01,6.17-2.42c1.02-.4,3,1.98,3.63,2.31,1.47-1.11,4.52-3.5,5.44-2.38l3.69,4.49,3.32-7.68c1.2,1.94,3.4,5.83,4.54,4.9l3.64-3c.42,1.25,1.3,4.86,1.8,4.01.37-.64,2.94-2.78,3.67-2.87l13.36-1.7,3.42,3.35c.85.83,3.47.15,5.35-.05.42.15,2.03,1.92,2.25,1.31l1.32-3.67c.17.15,1.84,1.62,1.79,1.59-.02-.01.64-1.08.82-1.4l1.26-2.2c6.36,4.08,17.87,7.45,23.3.11,1.56,1.88,3.76,4.99,4.41,4.15l2.39-3.05c.47-.6,1.72-2.09,1.99-1.61l1.57,2.82,1.95,3.5c-.45-.81,5.98-2.35,6.05-2.49l1.63-3.01c1.02,1.73,4.43,4.19,6.69,4.48l4.6.58c.8.1,1.36-2.49,1.99-4.07l7.7,4.76,2.96-8.14c1.68,10.61,20.4,8.8,26.52,6.24l10.32.95c1.85.17,5.64.98,6.32-.31l2.43-4.58c.1.34,3.17,2.59,4.43,2.87,1.01.22,1.51-1.78,2.07-2.66-.98,2.67,3,6.33,5.34,6.03l6.53-.82c3.17-.4,5.59-.82,9.15-1.94l4.22,4.81,17.35-5.32c4.45,3.22,8.41,4.71,13.67,4.17,6.92-.71,13.32-.41,19.85-.65,2.67-.1,6.98-2.57,10.18-1.14,8.33,3.72,20.49,3.33,29.29,3.77Z"/>
  <polygon class="st26" points="1303.31 725.18 1306.32 739.29 853.64 776.91 756.42 785.15 754.49 764.6 1303.31 725.18"/>
  <path class="st19" d="M543.83,378.19l-11.24-.04-.72-32.6c-.05-2.42-6.33-4.12-7.9-2.74s-4.99,5.09-5.02,7.48l-.34,27.93-11.52-.14.1-40.58c2.53-2.85,9.16-1.85,11.97,1.52,6.77-6.62,16.84-5.62,23.58,0,4.09-2.49,10.13-4.92,14.66-4.82,17.83.37,9.85,30.74,11.71,43.99l-11.71.06.05-28.57c0-2.48-2.32-6.75-4.4-7.34-2.38-.68-8.29,3.18-8.36,5.81l-.85,30.04Z"/>
  <path class="st28" d="M472.55,378.19l-11.57.11-.34-31.35c-.03-2.58-6.04-4.36-8.51-3.54-2.29.76-4.91,5.08-4.92,7.82l-.13,26.97-11.47.03v-40.93c2.58-2.46,8.73-1.31,11.89,1.16,6.94-5.16,16.85-5.59,23.75.76,3.98-3.1,9.47-4.96,13.66-4.95,18.58.04,10.02,28.03,12.24,43.56l-11.19.65-.05-28.03c0-3.37-2.32-7.14-5.36-7.35-3.38-.24-7.78,3.04-7.81,6.69l-.19,28.41Z"/>
  <path class="st7" d="M355.76,380.31c-13.37.3-24.91-5.22-25.39-19.3l10.72-1.07c2.27,4.1,4.39,8.06,6.93,9.21,3.46,1.58,7.78,1.5,11.97.24,2.29-.69,5.21-5.26,5.03-7.53-.46-6.06-11.58-6.43-23.15-11.45-7.91-3.43-10.98-12.24-9.26-19.07,2.2-8.75,10.16-12.34,19.17-12.73,11.09-.47,22.85,3.12,23.49,16.6-2.19.89-9.29,1.66-11.12-.26-2.79-3.24-6.16-6.48-10.23-6.91-3.04-.32-10.09,2.31-10.09,5.74,2.78,10.94,34.72,4.16,33.34,28.15-.64,11.08-8.82,18.09-21.4,18.37Z"/>
  <path class="st6" d="M1078.02,374.38c-3.98,2.74-10.01,4.6-15.16,4.08-12.99-1.32-20.2-24.13-10.32-37.76,5.84-8.05,16.22-7.91,24.94-2.61l.58-17.62,11.61.27v57.08s-7.88.75-7.88.75c-1.6.15-3.03-3.09-3.76-4.2ZM1070.75,370.18c8.36-3.8,7.6-11.5,6.95-18.72-.36-4.01-3.82-8.17-7.64-8.98-3.06-.65-8.63,2.7-9.44,6.39-1.19,5.45-.98,10.69.42,16.07.77,2.98,7.02,6.46,9.71,5.24Z"/>
  <path class="st6" d="M1266.15,377.15c-6.11-2.8-7.77-9.1-6.82-15.08,1.89-11.95,18.49-9.46,25.61-14.35-6.38-14.41-14.34,4.75-23.78-2.27,0-13.75,24.48-12.92,31.39-7.66,6.67,5.07,1.87,28.26,4.71,40.43-3.65.72-9.2-.35-13.2-2.67-5.22,2.2-12.32,4.15-17.91,1.59ZM1284.06,357.15c-5.39,1.23-9.53,2.25-12.22,4.15-1.73,1.22-.92,6.54.72,7.75,1.41,1.04,5.88,1.53,7.45.6,4.18-2.47,5.4-7.03,4.04-12.5Z"/>
  <path class="st7" d="M646,342.26c-13.36-4.35-8.73,29.23-9.72,35.86l-11.38.19.06-41.19c2.71-3.64,9.43,1.31,12.5.49,3.53-.94,10.19-3.49,14.48-3.2,17.15,1.16,9.91,30.9,11.63,43.77l-11.69.11-.36-29.41c-.03-2.24-3.51-5.97-5.52-6.62Z"/>
  <path class="st7" d="M1179.49,369.37c-3.51,7.59-10.91,9.3-18.38,9.24-8.2-.06-16.92-2.36-19.34-12.14,13.96-6.17,10.21,2.81,18.91,4.12,3.34.5,7.15-1.68,9.3-5.92l-17.01-5.15c-7.23-2.19-11.54-7.66-10.12-14.81,1.29-6.5,7.67-10.15,15.2-10.28s18.54-.12,20.19,10.03c-7.27,10.03-17.43-11.48-25.56,2.63l19.89,6.19c6.69,2.08,10.05,9.33,6.92,16.09Z"/>
  <path class="st19" d="M990.2,336.16l.02,42.05-7.79.3c-1.65.06-3.05-2.94-3.76-4.1-3.7,2.36-8.48,4.2-13.09,4.19-7.62-.02-13.56-5.5-13.61-12.89l-.21-29.39h11.5s.59,29.37.59,29.37c.05,2.53,5.84,5.58,8.1,4.69s6.46-4.75,6.49-7.59l.29-26.45,11.46-.19Z"/>
  <path class="st7" d="M598.76,369.33c5.03-4.02,11.3-7.55,15.97-2.49-3.31,10.6-13.7,13.11-23.53,11.25-9.27-1.76-14.77-11.43-14.73-21.64.05-13.7,8.8-23.28,22.25-22.12,11.83,1.02,19,12.85,16.98,25.3l-27.13.02c-1.5,5.35,5.41,13.52,10.2,9.69ZM604.46,353.21c-.35-7.85-3.79-10.94-8.89-10.63-4.13.25-7.01,4.95-7.31,10.64h16.21Z"/>
  <path class="st28" d="M872.63,369.67c2.43-1.07,5.02-5.31,7.21-5.29,2.48.02,7.45,1.3,8.66,2.32-4.11,11.41-14.5,13.32-24.37,11.11-9.12-2.05-13.79-11.38-13.84-21.37-.06-13.66,8.43-23.07,21.51-22.18,12.15.83,19.92,12.16,17.25,25.29l-26.11.15c-2.27,4.6,3.35,12.79,9.7,9.98ZM876.97,352.5c2.44-.64-.92-8.27-3.31-9.19-2.1-.8-6.26-.51-8.22.85-1.86,1.29-3.43,6.75-2.59,8.72,4.64.62,10.16.65,14.12-.39Z"/>
  <path class="st28" d="M736.64,359.78c-.08,2.41,1.42,6.73,2.89,8.55,7.52,9.32,11.7-11.16,23.2-1.51-3.1,10.52-13.76,13.02-23.33,11.27-9.57-1.76-14.93-11.31-14.89-21.67.05-13.18,8.17-22.66,20.92-22.2,12.37.45,19.86,11.24,18.53,25.22l-27.31.34ZM752.77,353.12c-.61-3.68-2.3-8.06-4.21-9.44-2.09-1.51-7.54-1.15-9.08.6-1.45,1.65-2.77,5.94-2.95,8.91l16.24-.07Z"/>
  <path class="st7" d="M1397.04,357.1c-.47,12.77-9.91,21.14-20.58,21.56-12.05.47-21.51-6.67-22.84-18.94-1.42-13.05,5.73-24.03,18.79-25.32,13.85-1.37,25.17,7.8,24.63,22.71ZM1385.52,355.67c-.29-7.52-4.02-13.31-10.5-13.17-5.23.11-9.29,5.09-9.91,11.02-.72,6.99,1.3,15.73,9.23,16.71,7.51.93,11.45-7.17,11.17-14.56Z"/>
  <path class="st27" d="M1231.52,356.41c0,12.25-9.98,22.18-22.29,22.18s-22.29-9.93-22.29-22.18,9.98-22.18,22.29-22.18,22.29,9.93,22.29,22.18ZM1219.61,355.68c-.28-7.56-4.01-13.23-10.25-13.18-5.22.04-9.44,4.84-10.22,10.72-.97,7.26,1.51,16.26,9.69,17.05,7.23.71,11.05-7.35,10.78-14.6Z"/>
  <path class="st23" d="M825.76,342.36c-13.81-4.04-9.28,29.56-10.27,35.95h-10.89s0-42.38,0-42.38c4.87-.13,8.39.52,12.72,2.44,5.67-4.96,20.69-6.8,23.64,3.08,3.52,11.83,1.76,24.71,2.09,36.79l-11.53.1-.32-29.25c-.02-2.19-3.4-6.13-5.45-6.73Z"/>
  <path class="st23" d="M1022.97,342.36c-13.81-4.04-9.28,29.56-10.27,35.95h-10.89s0-42.38,0-42.38c4.87-.13,8.39.52,12.72,2.44,5.67-4.96,20.7-6.8,23.64,3.08,3.52,11.83,1.76,24.71,2.09,36.79l-11.53.1-.32-29.25c-.02-2.19-3.4-6.13-5.45-6.73Z"/>
  <path class="st23" d="M1426.85,342.36c-13.81-4.04-9.28,29.56-10.27,35.95h-10.89s0-42.38,0-42.38c4.87-.13,8.39.52,12.72,2.44,5.67-4.96,20.7-6.8,23.64,3.08,3.52,11.83,1.76,24.71,2.09,36.79l-11.53.1-.32-29.25c-.02-2.19-3.4-6.13-5.45-6.73Z"/>
  <path class="st19" d="M714.1,344.04l-.18,34.07-11.36.27-.4-33.75c-3.45-.8-6.55-2.17-6.38-4.85.12-1.89,2.7-3.4,5.78-4.87l2.19-10.23c5.42-5.67,13.94-5.2,20.76-2.89l-1.86,7.11c-3.98-.31-6.41-.61-7.63.52-1.31,1.21-.79,6.4.85,6.55,2.46.24,6.02.01,6.02,1.23v5.58c-.01,1.23-4.18.91-7.8,1.25Z"/>
  <path class="st27" d="M1319.59,367.97c3.08,1.27,6.2,2.21,7.31,3.18s.92,4.61.28,5.94c-1.05,2.22-10.4,1.62-15.4-.09-2.1-.72-3.64-5.24-3.68-7.88l-.41-24.6c-3.07-.77-5.93-2.28-5.94-4.65,0-1.71,3.06-3.65,5.38-4.81.03-6.21,4.36-11.77,12.1-12.41l.78,12.96c2.58.36,6.67,0,6.66,1.3l-.06,5.88c-.01,1.3-4.54,1.06-6.87,1.61l-.15,23.57Z"/>
  <path class="st27" d="M399.84,367.97c3.06,1.27,6.17,2.22,7.29,3.18s.92,4.62.28,5.95c-.94,1.97-10.41,1.87-15.36-.08-2.07-.81-3.68-5.25-3.73-7.88l-.4-24.62c-3.09-.77-5.94-2.36-5.95-4.62,0-1.72,3.05-3.67,5.38-4.84.03-6.21,4.36-11.77,12.1-12.41l.77,12.93c2.78.39,6.56.05,6.64,1.35s.04,4.56-.09,5.86-4.06,1.04-6.85,1.59l-.09,23.59Z"/>
  <path class="st27" d="M686.94,367.96c3.09,1.29,6.21,2.21,7.32,3.19s.91,4.61.28,5.94c-.99,2.1-10.37,1.74-15.37-.07-2.11-.77-3.69-5.27-3.73-7.89l-.4-24.61c-3.11-.79-5.91-2.23-5.94-4.66-.02-1.7,3.05-3.63,5.38-4.8.02-6.22,4.36-11.77,12.1-12.41l.79,12.96c2.56.36,6.66,0,6.65,1.29l-.05,5.89c-.01,1.3-4.59,1.06-6.87,1.61l-.16,23.55Z"/>
  <rect class="st19" x="1239.15" y="320.36" width="11.79" height="58.08"/>
  <rect class="st6" x="1122.19" y="320.36" width="12" height="58.08"/>
  <path class="st19" d="M784.28,352.93l-.51,25.01-11.6.28.02-41.81h13.14c3.7-.01,9.12-3.75,13.6-.38.21,2.69-1.69,8.39-3.2,9.93l-6.67-.08c-1.81-.02-4.74,5.2-4.78,7.04Z"/>
  <path class="st6" d="M909.74,378.19l-11.76-.04.06-40.83c2.84-2.56,9.13-1.44,12.14,1.33,3.65-4.47,10.27-5.98,14.97-1.91-.49,2.61-2.17,8.07-3.9,8.95-3.14.26-5.7.4-7.43.76s-3.78,5.15-3.8,7.16l-.28,24.58Z"/>
  <path class="st29" d="M695.74,820.2l-21.42-3.07c-1.04-.15-2.77-2.4-2.64-3.35s2.52-2.76,3.63-2.86l19.31-1.75c1.27-7.04,3.9-10.17,9.89-10.1,5.78.06,8.81,4.38,8.32,11.29l-1.44,20.31c-.16,2.26-4.62,3.37-7.28,3.15-6.95-.6-.13-12.43-8.37-13.61Z"/>
  <path class="st5" d="M997.41,1028.52l.09,2.21c-4.49,1.66-8.61,3.75-13.18,3.75h-192.19c-5,0-9.52-2.33-13.22-3.76l.1-2.24c3.31.73,8.89,2.82,13.06,2.82l190.77.04c3.88,0,10.68-1.38,14.57-2.82Z"/>
  <path class="st5" d="M997.52,967.58l-.1,2.25-11.62-2.84h-193.71c-3.41.01-9.4,1.81-13.06,2.82l-.09-2.22c3.97-1.91,8.92-3.73,13.13-3.73l192.3-.02c4.96,0,9.5,2.34,13.16,3.75Z"/>
  <path class="st4" d="M598.21,482.97c-9.53-4.89.2-12.33-5.67-18.81l-6.22,16.71c-.21.57-2.52,1.66-2.93,1.21-.61-.68-1.86-2.47-2.26-3.63l-5.87-17.15c-4.1,6.84,3.03,14.33-4.23,21.79-1.02-8.86-1.09-21.05-.96-29.07.03-1.89,5.83-2.33,6.5-.43l7.86,22.43,7.43-21.09c.35-.98,1.39-3.3,2.29-3.01l4.34,1.43-.29,29.61Z"/>
  <rect class="st19" x="413.83" y="336.05" width="11.84" height="42.38"/>
  <rect class="st19" x="1333.6" y="336.05" width="11.84" height="42.38"/>
  <path class="st20" d="M555.43,825.22c2.32-3.36,10.81-1,10.45-2.04l2.08,5.85,3.72-7.81,1.39,10.43c.09.7,1.89,2.52,2.58,2.64.93.16,2.35-1.49,2.71-2.41l-.3-10.25,3.06,2.8c.38.35,1.44,1.74,1.53,1.24l.62-3.33c.53-2.84,1.25-6.23,2.83-7.25,1.84-1.19,7.73,1.17,7.94,3.43.47,5.04.86,11.74.9,15.62-5.27,3.58-10.79.95-12.77-4.27l-2.37,5.41c-.64,1.46-5.17,1.93-6.81,1.47l-16.09-4.56c-1.67-.47-2.49-5.48-1.47-6.96Z"/>
  <path class="st4" d="M344.84,482.02c-7.84.33-14.81-1.72-13.63-10.26l7.9,5.76c2.09,1.53,9.12.56,9.85-1.89,3.12-10.48-16.67-4.53-17.24-14.95-.21-3.79,3.17-7.96,7.48-8.42,2.89-.31,7.05.28,10.11,1.26,2.31.74,3.86,5.47,3.08,8.39l-8.05-6.01c-1.83-1.36-9.1,1.68-8.36,4.12,2.03,6.68,18.66,2.81,18.36,13.24-.13,4.56-4.08,8.54-9.51,8.77Z"/>
  <path class="st0" d="M1483.69,474.97c-1.15-3.43-10.77-3.52-13.26-.97-2.88,2.95.43,8.32-6.96,7.73l9.57-26.93c.31-.88,2.13-2.51,2.88-2.99s3.55,1.34,3.97,2.44l10.55,27.14c-5.06,1.58-5.11-1.49-6.75-6.42Z"/>
  <path class="st24" d="M918.94,481.73c-3.6.54-8.73-.24-11.78-1.5-2.32-.96-4.22-5.39-3.13-7.9l9.02,5.72c3.1,1.96,11.39-1.54,8.9-5.84-1.82-5.16-17.28-2.75-17.75-11.47-.22-4.17,3.08-8,7.78-8.55,2.39-.28,7.36.45,9.84,1.45,2.22.9,3.62,4.85,3.3,8.53l-8.06-6.21c-1.93-1.49-9.31.96-8.38,4.24,1.77,6.29,18.17,2.77,18.15,13.05,0,3.38-3.31,7.8-7.88,8.48Z"/>
  <path class="st4" d="M261.34,460.24c1.09,6.3,20.07,2.36,17.76,14.69-.84,4.49-5.79,7.3-10.76,7.17-6.58-.17-13.76-2.71-11.64-10.29l7.96,5.96c2.42,1.82,10.18-.17,10.25-3.7.17-8.07-17.63-3.62-18.11-13.56-.2-4.14,3.54-8.02,8.32-8.44,2.73-.24,7.68.81,10.38,2.32,1.96,1.1,2.79,5.17,1.87,7.82l-7.17-5.89c-2.39-1.96-9.5.17-8.85,3.92Z"/>
  <path class="st9" d="M874.31,464.03l-2.51,19.68c-5.4.7.21-21.95-4.97-19.89l-5.9,2.35c-1.88,5.31,3.41,12.28-3.85,17.21l-.58-23.37,17.36.93c3.44.19,10.42-2.9,11.17,2.86.83,6.46,3.43,13.13-2.25,19.77l-1.33-18.43-7.14-1.12Z"/>
  <path class="st9" d="M1033.65,464.03l-2.51,19.67c-3.68-5.85-2.44-10.85-2.55-15.87-.1-1.13-1.45-4.36-2.44-4-1.49.54-4.66,1.79-5.88,2.37-1.88,5.23,3.4,12.28-3.85,17.18l-.58-23.37,17.36.93c3.44.19,10.42-2.9,11.17,2.86.83,6.46,3.43,13.13-2.25,19.77l-1.33-18.43-7.14-1.12Z"/>
  <path class="st9" d="M399.9,465.11l-2.23,18.12c-4.6-5.99-2.18-12.58-3.17-18.37-.89-.75-3.23-2.23-4.01-1.78-1.03.6-3.2,2.97-3.67,4.19-.63,3.97.43,10.7-2.78,15.95-2.33-7.8-1.76-13.5-1.76-22.69l17.68.28c2.72.04,9.7-1.23,10.38,1.29,1.9,6.96,2.44,13.87-.75,21.06-2.55-5.43-2.02-11.41-2.3-16.81-.29-.9-1.84-3.59-2.67-3.24l-4.72,2.01Z"/>
  <path class="st9" d="M434.61,465.11l-2.23,18.13c-4.6-5.99-2.18-12.58-3.17-18.37-.89-.75-3.22-2.22-4.01-1.78-1.04.58-3.23,2.96-3.65,4.17-.66,4.01.41,10.71-2.8,15.96-2.33-7.8-1.75-13.5-1.76-22.69l17.68.28c2.71.04,9.7-1.23,10.38,1.29,1.9,6.96,2.44,13.87-.75,21.06-2.55-5.43-2.02-11.41-2.3-16.81-.29-.9-1.84-3.59-2.67-3.24l-4.72,2.01Z"/>
  <path class="st0" d="M1629.58,465.41c-1.2,7.12,1.91,12.24-3.39,17.66l-1.65-17.53c-.12-1.32-4.01-3.21-4.71-2.23l-3.16,4.36c-1.55,5.5,3.38,10.76-3.61,15.55l-.85-23.2,17.21.92c3.08.17,10.18-2.11,11.09,1.62,1.72,7.03,3.48,14.1-1.6,20.61l-1.6-16.45c-.09-.93-1.39-3.99-2.21-3.65l-5.53,2.34Z"/>
  <path class="st0" d="M1504.73,486.87c-.36-.49-.78-3.27-.23-3.07l2.97,1.07c1.65.59,4.51,1.46,6.03,1.75,1.72.33,4.28-4,4.19-5.34-3.43.28-8.86.83-10.86-.95-6.01-5.37-5.52-16.1,1.73-19.96l13.3.11c.06,8.03.32,16.14-.85,23.98-1.02,6.85-13.08,6.85-16.28,2.42ZM1513.78,478.41c2.91-.55,4.72-5.81,4.59-8.2-.12-2.22-2.78-6.73-5.28-6.83-4.32-.17-6.64,4.89-6.45,8.22.16,2.84,2.49,7.69,7.14,6.81Z"/>
  <path class="st4" d="M1308.67,481.51c-6.96-2.1-17.25,3.79-18.97-3.67-.9-3.88,1.65-7.34,5.32-8.33l9.33-2.53c-.69-1.56-4.15-4.97-5.17-4.22l-4.26,3.13-2.75,2.01c-.74.54-1.21-1.84-1.35-3.39,3.01-5.53,13.37-7.16,16.69-1.08.87,4.97,1.04,13.57,1.16,18.07Z"/>
  <path class="st4" d="M1422.64,463.54l11.91,17.79c-1.6.27-5.1-.03-5.67-.83l-9.3-13.09c-4.44,1.72-4.87,6.77-5.13,11.18l-.18,3.03c-.04.61-3.66-.42-3.65-1.04l.19-29.25c7.97,2.75,1.72,8.44,5.08,13.41l12.22-11.61c.79-.75,4.28-.53,5.62-.22l-11.08,10.64Z"/>
  <path class="st9" d="M712.09,481.58c-7.74-2.07-16.45,3.69-19.03-3.69-.79-2.26,1.59-7.75,3.96-8.32l11.09-2.69c-1.85-2.17-4.22-4.68-5.23-4.02l-5.39,3.5c-.63.41-2.4.64-3.32.7s.16-2.08.82-3.71c3.02-4.03,11.54-5.24,15.8-.77l1.31,19.01Z"/>
  <path class="st4" d="M979.3,483.49l8.05,3.12c1.67.65,5.76-2.94,5.35-3.94-3.65-.67-8-1.27-10.39-2.2s-3.88-6.48-3.99-9.21c-.25-6.75,3.22-11.01,9.13-10.96l9.71.08-.31,23.47c-.04,3.08-5.48,6.31-8.21,6.21-4.1-.14-9.45-.97-9.35-6.58ZM988.18,478.52c4.28-.43,5.68-5.5,5.58-8.33-.09-2.54-2.95-7.22-5.99-6.93-4.11.4-5.63,5.28-5.59,8.44.03,2.35,2.43,7.17,6,6.81Z"/>
  <path class="st4" d="M1211.25,483.51l7.98,3.09c1.7.66,5.84-2.95,5.38-3.89-3.78-.73-7.7-1.33-10.41-2.26-2.45-.84-3.82-6.48-3.93-9.2-.28-6.72,3.22-11,9.11-10.95l9.72.08-.31,23.47c-.04,3.09-5.48,6.3-8.21,6.22-4.09-.13-9.49-1.01-9.32-6.56ZM1220.08,478.52c4.3-.44,5.69-5.5,5.58-8.33-.1-2.54-2.94-7.22-6-6.93-4.1.39-5.63,5.28-5.58,8.44.03,2.35,2.44,7.17,6,6.81Z"/>
  <path class="st13" d="M778.93,967.58l.09,2.22c-9.86,7.42-18.6,16.68-18.41,29.9.18,12.45,8.63,21.27,18.39,28.78l-.1,2.24c-13.76-5.34-21.96-18.92-21.37-33.05.53-12.82,8.94-25.68,21.4-30.08Z"/>
  <path class="st13" d="M997.49,1030.73l-.09-2.21c9.53-7.02,18.11-16.18,18.38-28.74.28-12.96-8.11-22.49-18.36-29.95l.1-2.25c13.76,5.3,21.94,18.98,21.39,33.03-.51,13.02-9.01,25.52-21.42,30.12Z"/>
  <path class="st24" d="M297.73,472.85l3.96,5.4c2.24,3.06,10.71-5.03,11.37-1.26-1.78,4.81-7.62,6.01-12.4,4.59-4.4-1.3-7.15-6.61-6.7-12.05.57-6.92,5.59-10.26,11.39-9.63s9.12,6.25,8.5,12.44l-16.12.49Z"/>
  <path class="st11" d="M1653.61,477.83c3.69,3.99,11.12-5.31,11.95-.86-1.78,4.66-7.99,5.95-12.68,4.55-3.37-1.01-6.4-5.95-6.39-10.35,0-7.14,4.01-11.52,10.7-11.34,5.66.16,10.23,5.65,9.01,12.49l-14.94.46c.25,1.08,1.49,4.13,2.36,5.07Z"/>
  <path class="st24" d="M839.66,478.33c4.46,2.29,13.15-7.01,11.1-1.01-1.14,3.36-7.77,5.79-12.1,4.41-3.98-1.26-6.99-5.66-7-10.58-.02-7.52,4.6-11.99,11.55-11.31,5.35.52,9.76,6.8,7.79,12.52l-15.34.44c1,2.1,2.75,4.88,4.01,5.53Z"/>
  <path class="st11" d="M781.17,477.83c3.68,3.99,11.12-5.31,11.95-.86-1.78,4.66-7.99,5.95-12.68,4.55-3.37-1.01-6.4-5.95-6.39-10.35,0-7.14,4.01-11.52,10.7-11.34,5.66.16,10.23,5.65,9.01,12.49l-14.94.46c.25,1.08,1.49,4.13,2.36,5.07Z"/>
  <path class="st24" d="M1103.12,478.33c4.71,2.43,10.5-6.2,11.1-1.01-1.15,3.36-7.77,5.79-12.1,4.41-3.98-1.26-6.99-5.66-7-10.58-.02-7.52,4.6-11.99,11.55-11.31,5.35.52,9.76,6.8,7.79,12.52l-15.35.44c1,2.1,2.75,4.88,4.01,5.53Z"/>
  <path class="st24" d="M1357.13,478.33c4.43,2.3,13.15-7.01,11.1-1.01-1.14,3.35-7.77,5.79-12.1,4.41-3.98-1.26-6.99-5.66-7-10.58-.02-7.52,4.6-11.99,11.55-11.31,5.35.52,9.76,6.8,7.79,12.52l-15.35.44c1.01,2.1,2.76,4.88,4.02,5.53Z"/>
  <path class="st24" d="M129.11,472.88c-.34.89,1.79,5.38,3.29,5.54,1.79.19,4.71-.57,7.11-1.31l3.27-1.01c.56-.17.69,1.01.5,1.58-1.68,4.99-9.47,4.97-13.96,3.32-3.15-1.15-5.06-7.22-4.79-11.5.45-7.11,4.98-10.26,11.78-9.53,4.81.51,8.85,6.36,7.68,12.29l-14.88.62Z"/>
  <path class="st24" d="M200.03,472.87c-.25.93,1.87,5.37,3.36,5.54,1.79.2,4.72-.55,7.1-1.31l3.25-1.04c.53-.17.74,1.06.54,1.59-1.9,5.13-9.61,4.94-13.98,3.34-3.15-1.15-5.06-7.22-4.79-11.5.45-7.11,4.98-10.26,11.78-9.53,4.82.51,8.84,6.36,7.69,12.29l-14.96.62Z"/>
  <path class="st24" d="M455.6,472.87c-.22.97,1.88,5.35,3.37,5.54,1.79.22,4.72-.54,7.11-1.3l3.27-1.05c.53-.17.72,1.08.52,1.6-1.97,5.16-9.63,4.93-13.97,3.34-3.16-1.16-5.07-7.21-4.79-11.5.45-7.11,4.98-10.26,11.78-9.53,4.82.52,8.84,6.36,7.69,12.3l-14.97.61Z"/>
  <path class="st22" d="M783.74,226.14l-1.9-11.05-3.04,8.96c-.27.81-3.91.82-4.36.09l-2.81-4.58-2.08,3.84c-.43.79-4.64,1.97-5.06,1.18-1.66-3.07-3.66-10.35-4.13-13.81-.12-.88,3.72-2.93,3.99-2.07l1.44,4.69,3.92-4.53c1.09-1.26,5.33,2.03,6.42,2.55l5.93-2.91c3.92-1.92,6.58,17.4,1.68,17.64Z"/>
  <path class="st4" d="M1605.98,482.66c-7.91,1.31.63-16.64-6.89-19.62-9.65-3.83-3.59,22.64-8.95,19.99-1.82-10.88-1.66-20.61-.9-32.14,4.03,2.68,3.76,5.66,4.55,8.94,3.42.26,8.72.9,11.52,2.32,1.84,5.54,1.45,14.01.67,20.51Z"/>
  <path class="st0" d="M1338.72,467.93l7.73,14.17c-7.94-.58-6.69-6.85-11.82-10.99-1.6,5.02-1.93,7.3-4.39,12.03-2-11.13-1.52-20.53-.83-32.22,7.45,4.6,1.21,10.91,4.5,15.97,4.13-3.82,6.06-6.35,11.24-6.68l-6.44,7.72Z"/>
  <path class="st0" d="M669.79,467.93l7.74,14.17c-7.94-.58-6.69-6.85-11.82-10.99-1.6,5.02-1.93,7.3-4.39,12.03-2-11.13-1.52-20.53-.83-32.22,7.45,4.6,1.21,10.91,4.5,15.97,4.13-3.82,6.06-6.36,11.24-6.68l-6.44,7.72Z"/>
  <path class="st24" d="M548.65,483.52c-3.74-1.82.75-21.36-5.1-20.58-1.57.21-4.66,2.15-5.56,3.46-2.46,5.65,3.23,11.64-3.98,16.83l-.93-23.19,15.79.44c2.56,7.09,4.6,15.06-.21,23.04Z"/>
  <path class="st4" d="M621.58,458.94l.69,22.67-7.8.03c-2.62.01-8.71-.44-9.18-2.9-1.4-7.28-1.91-12.96,1.11-20.03,2.61,5.29,2.01,11.62,2.34,16.82.33,1.2,3.03,3.94,4.17,3.45,1.42-.61,4.03-3.22,4.76-4.64,2.45-5.08-4.13-10.27,3.91-15.39Z"/>
  <path class="st24" d="M1389.53,483.52c-3.75-1.82.75-21.36-5.1-20.58-1.56.21-4.66,2.15-5.56,3.46-2.46,5.65,3.23,11.64-3.99,16.82l-.93-23.19,15.79.44c2.56,7.09,4.6,15.06-.21,23.04Z"/>
  <path class="st4" d="M636.68,482.08c-3.73.2-8.05-1.98-8.98-3.84-.42-.84-.92-3.9-.12-3.69.91.24,2.63.72,3.3,1.2l4.38,3.11c1.19.84,4.51-1.85,5.63-3.68l-8.3-3.39c-2.57-1.05-5.59-3.72-5.46-6.24.11-2.24,4.54-6.11,6.66-5.73l7.6,1.36c1.41.25,1.58,3.71,1.27,5.2l-6.56-3.12c-1.29-.62-4.27,1.23-5.52,2.88l11.69,4.86c1.62.67,2.67,4.92,2.09,6.51-.67,1.84-4.43,4.41-7.68,4.59Z"/>
  <path class="st4" d="M750.67,481.97c-3.44-.27-6.56-.94-8.07-1.76s-1.94-4.4-1.48-6.68c4.63,3.13,7.64,7.59,11.94,3.21,2.89-5.81-13.63-2.23-12.54-11.31.32-2.7,4.07-5.38,6.93-5.54,5.47-.31,10.3,1.85,8.69,6.94-4.27-2.4-8.2-5.52-11.77-1.45.79,4.36,13.31,2.69,13.69,9.53.18,3.16-3.84,7.35-7.38,7.07Z"/>
  <path class="st4" d="M1244.49,481.98c-3.66-.32-6.22-.89-8.12-1.78-1.52-.72-1.9-4.37-1.4-6.66,4.52,3.05,7.68,7.8,11.83,3.07,2.98-5.58-13.56-2.12-12.48-11.17.32-2.7,4.07-5.38,6.93-5.53,5.48-.3,10.28,1.83,8.71,6.95-4.51-2.31-7.81-5.84-11.99-1.33,1.87,4.26,13.5,2.71,13.89,9.37.18,3.15-3.86,7.38-7.37,7.08Z"/>
  <path class="st9" d="M528.63,470.9c-.05,7.07-3.66,11.32-10.43,11.27-5.63-.04-9.87-4.54-9.89-11.24-.02-6.76,4.2-10.97,9.97-11.01,6.42-.05,10.4,4.14,10.35,10.99ZM517.79,478.65c5.68.04,6.92-5.11,6.79-8.5-.12-3.11-2.47-7.42-7.18-6.75-3.25.46-5.2,5.46-5.13,8.31.05,2.17,3.01,6.93,5.52,6.95Z"/>
  <path class="st0" d="M1264.08,482.13c-1.91-.12-5.76-1.83-7.16-3.05-1.06-.93-1.06-3.27-.45-5.64l6.33,4.86c1.41,1.08,4.59-.24,6.85-2.95l-11.66-5.21c-1.61-.72-2.4-5.71-1.28-7.11s4.56-2.95,6.8-3.18c4.67-.47,8.91,2.4,8.48,6.18-4.23-1.32-8.72-3.98-11.57-1.36-2.29,5.4,12.68,2.63,12.78,10.17.06,4.2-3.36,7.65-9.12,7.29Z"/>
  <path class="st18" d="M1684.72,466.63c-.14-1.7-5.41-3.37-6.86-2.37-6.15,4.25,1.52,18.91-6.34,18.38l-.19-22.23,15.94.24c1.66,7.62,5.03,15.33-1.17,22.48l-1.38-16.5Z"/>
  <path class="st0" d="M951.26,470.92c0,6.82-4.09,11.06-10.19,11.07s-10.16-4.26-10.16-11.06,4.09-11.04,10.17-11.07c6.08-.03,10.19,4.3,10.19,11.07ZM940.69,478.57c5.42-.08,6.6-5.21,6.5-8.42-.09-3-2.66-7.36-6.87-6.86-3.59.43-5.48,5.29-5.43,8.42.03,2.23,2.81,6.9,5.81,6.86Z"/>
  <path class="st18" d="M164.86,482.77c-2.64-4.86-2.06-11-2.12-16.74-.7-.75-4.34-2.12-5.74-2.14-7.86-.09-.27,20.74-6.98,19.53l-1.04-22.73,10.8-.61c9.78-.55,8.3,15.68,5.08,22.69Z"/>
  <path class="st4" d="M1138.2,482.14c-2.21.19-6.41-1.52-7.74-2.75-1.11-1.03-1.02-4.04-.09-5.72l5.6,4.59c1.37,1.12,6.87-.74,6.29-2.52-1.7-5.19-13.09-1.86-12.82-10.26.07-2.07,4.06-5.98,6.12-5.65l7.83,1.24c1.57.25,1.98,4.25,1.4,5.57l-5.91-3.31c-1.32-.74-4.11.87-5.83,3.12,3.68,1.43,8.53,3.23,11.08,4.28,1.74.71,2.9,5.24,2.32,6.91-.69,1.95-4.36,4.17-8.25,4.51Z"/>
  <path class="st18" d="M188.52,482.77c-2.65-4.88-2.06-10.97-2.12-16.76-.73-.71-4.33-2.03-5.75-2.11-7.76-.43-.35,20.99-6.98,19.53l-1.05-22.73,10.8-.61c9.78-.55,8.3,15.67,5.08,22.69Z"/>
  <path class="st26" d="M1308.97,753.21l1.4,5.17c-9.81-2.23-23.69,5.83-26.88-.34-1.36-2.62-1.06-8.89,1.35-8.73l10.29.68c1.81.12,1.94,4.29,2.96,2.49.22-.39,1.44-3.04,1.82-3.3,2.2-1.49,6.8,1.69,9.06,4.04Z"/>
  <path class="st9" d="M724.81,478.87c7.39,7.11,5.72-22.54,8.59-20.11,2.56,7.86,1.79,14.74,1.84,23.14l-16.27-.88c-1.32-8.1-1.72-14.59-.05-22.59,4.86,5.14,2.31,10.79,2.87,15.8.44,1.24,2.13,3.78,3.03,4.64Z"/>
  <path class="st11" d="M1547.53,471c0,5.97-4.87,10.81-10.87,10.81s-10.87-4.84-10.87-10.81,4.87-10.81,10.87-10.81,10.87,4.84,10.87,10.81ZM1535.6,478.58c5.7.64,7.41-4.94,7.29-8.36-.09-2.6-2.62-6.92-6.36-7-3.39-.07-5.98,4.4-6.16,7.05s2.12,7.97,5.22,8.31Z"/>
  <path class="st9" d="M1171.28,478.87c7.39,7.13,5.73-22.54,8.59-20.11,2.56,7.86,1.79,14.74,1.84,23.14l-16.27-.88c-1.32-8.1-1.72-14.59-.05-22.59,4.86,5.14,2.31,10.79,2.87,15.8.44,1.24,2.13,3.78,3.03,4.64Z"/>
  <path class="st9" d="M1204.21,483.47c-6.04.91.88-23.2-7.53-20.54-9.94,3.15-.04,19.49-8.4,20.41l-.45-23.4,16.4.86c1.27,8.13,1.69,14.59-.01,22.67Z"/>
  <path class="st9" d="M972.3,483.47c-6.04.9.88-23.2-7.53-20.54-9.94,3.14-.04,19.49-8.4,20.41l-.45-23.4,16.4.86c1.27,8.13,1.69,14.59-.01,22.67Z"/>
  <path class="st9" d="M237.11,483.47c-6.04.91.88-23.2-7.53-20.54-9.94,3.15-.04,19.49-8.4,20.41l-.45-23.4,16.4.86c1.27,8.13,1.69,14.59-.01,22.67Z"/>
  <path class="st9" d="M825.58,483.47c-6.04.91.88-23.2-7.53-20.54-9.94,3.15-.04,19.49-8.4,20.41l-.45-23.4,16.4.86c1.27,8.13,1.69,14.59-.01,22.67Z"/>
  <path class="st24" d="M98.96,456.53l-.14,22.26-.56,2.71c-.12.6-3.54.14-3.54-.47l-.08-24.16c-4.27-1.14-6.59-1.28-10.91-3.83,9.7-1.33,16.34-1.28,25.61.03-3,2.82-4.58,2.46-10.4,3.46Z"/>
  <path class="st19" d="M892.8,223.12c0,1.24-5.47,1.85-6.11.79l-2.54-4.18-1.11,3.73c-.29.96-2.21.84-5.63,1.16l-.27-15.59c1.75-.18,5.48-.62,6.19.43l2.75,4.05,1.01-3.72c.26-.97,2.12-.79,5.72-.95v14.29Z"/>
  <path class="st20" d="M550.29,827.68c-2.67-.03-5.84.42-8.59,1.34-2.12.71-2.38,5.74-2.86,9.18-.29,2.11-5.58,3.69-7.64,2.97s-4.9-5.04-4.58-7.33c.38-2.71,1.29-5.84,2.62-6.63s4.37-.8,6.74-.64c11.61.79,8.55-4.14,15.26-.68,1.33.68.91,5.68-.4,6.17l-8.31,3.1,7.77-7.48ZM533.25,833.18c2.17-1.07,3.53-1.47,3.29-2.08l-.94-2.44c-.23-.6-2.72.09-3.71.51-.72.31-2.23,3.23-1.45,3.34.52.07,2.2.49,2.81.66Z"/>
  <path class="st0" d="M496.31,474.69c2.81-6.01,2.7-11.2,8.24-15.61-.44,6.65-3.43,14.43-5.61,20.1-.54.79-2.07,2.45-2.68,3.02s-2.95-1.82-3.23-2.66l-6.84-20c9.12,2.12,4.32,9.67,10.12,15.14Z"/>
  <path class="st15" d="M1295.31,686.25c.56,3.91,3.06,9.21,2.49,13.36l-6.53,3.94-5.07-5.26-1.62-10.8,1.76-5.43c2.15,1.21,5.97,3.01,8.98,4.19Z"/>
  <path class="st22" d="M1000.17,224.67c-2.47.66-6.08-2.59-8.94-6.52l-.52,5.58c-.09.94-2.59.68-4.58.5l-.08-15.56c4.52.07,11.22.51,13.63,1.21l.51,14.79Z"/>
  <path class="st21" d="M932.39,211.92v9.42c-2.42-2.77-3.2-4.96-1.69.21l-5.54,3.97-1.27-14.44c-8.04-1.66-1.52,11.88-5.23,13.38-.95.38-3.58.19-3.59-.82v-3.99c0-1.67.51-5.39-.5-6.22l-5.33-4.39,19.4.12,1.17,5.95c1.17-1.44,2.22-2.65,2.57-3.19Z"/>
  <path class="st6" d="M968.68,222.91v-12.56c5.68-2.07,10.76-2.22,17.1-.37l-10.69,3.66,10.87,2.92-10.87,3.18,10.72,3.35c-6.65,2.23-12.1,1.83-17.13-.18Z"/>
  <path class="st22" d="M962.12,224.38c-3.53.74-7.33-2.8-8.78-6.04l-.44,5.36c-.08,1.01-4.5,1.14-4.51.13l-.24-14.74c1.67-.22,5.46-.64,6.05.46l2.98,5.62.46-5.59c.08-.99,4.62-1.18,4.61-.17l-.12,14.97Z"/>
  <path class="st22" d="M904.17,214.1l6.13,10.18c-5.55,1.42-7.43-1.98-10.5-6.28l-.64,5.68c-.1.92-2.17.66-4.61.61l.03-15.7,5.93,1.72,8.57-1.71-4.92,5.5Z"/>
  <path class="st20" d="M523.06,832.97c-2.97-1.59-6.83-2.92-9.34-2.34-3.21.74-4.92,5.39-4.49,9.4.24,2.24,3.77,6.87,5.86,6.43s5.38-2.17,8.44-3.75c-.02,4.51-6.42,6.55-9.93,5.77-5.79-1.29-7.82-6.52-7.15-11.48,1.04-7.7,6.55-9.72,13.22-9.19.75.06,2.83.06,3.58.08,2.09.04,1.6,9.88,1.01,9.91l-6.69.35,5.49-5.18Z"/>
  <path class="st18" d="M1286.54,481.25l-5.85.36c-1.47.09-1.47-4.13-1.73-6.05l-1.89-14.17c.67-1.74,2.57-5.64,3.51-7.47l5.4,7.62c-5.28,4.19-5.75,13.2.56,19.71Z"/>
  <path class="st9" d="M368.3,480.9l-5.76.7c-4.08.5-.28-15.28-4.47-20.31l4.32-7.56,5.04,7.79c-5.09,5.41-5.43,14.39.88,19.39Z"/>
  <path class="st28" d="M800.81,217.83l-7.9,1.78,11.76,3.88-15.81,1.38-.13-16.01c4.98-.12,9.13-.02,15.91,1.04l-11.9,3.67c1.61.44,4.26,1.05,7.07,1.66l3.47.75c.67.14-1.56,1.64-2.46,1.85Z"/>
  <path class="st22" d="M875.71,208.19l-.4,14.91c-2.99,1.99-10.57,1.93-13.65-.02l-.3-13.89,4.11-.35c2.31-.2-1.9,10.15,3.26,12.63,2.07-3.18,2.13-5.22,2.17-10.92-.43-.16.97-.82,4.81-2.35Z"/>
  <path class="st9" d="M1160.29,480.9l-5.78.7c-4.06.49-.28-15.29-4.46-20.32l4.31-7.56,5.04,7.79c-5.09,5.42-5.44,14.39.89,19.38Z"/>
  <path class="st11" d="M1069.41,481.17c-13.02,4.15-4.2-11.47-9.53-19.86l3.71-7.86,5.22,8.07c-5.38,5.48-5,13.73.6,19.66Z"/>
  <path class="st11" d="M1585.3,481.17c-13.06,4.17-4.13-11.56-9.58-19.89l3.79-7.81,5.18,8.05c-5.36,5.48-5,13.73.61,19.65Z"/>
  <path class="st19" d="M824.85,216.76l-10.65,2.95,12.61,3.64c-6.34,1.01-9.92,1.2-15.81,1.48l-.2-15.98c5.07.06,9.06.21,16,1.09l-12.38,3.57,10.44,3.26Z"/>
  <path class="st19" d="M832.81,224.83c-2.9.27-6.2-2.18-6.52-4.8l8.43.92c-2.79-2.37-7.94-5.89-8.02-8.73,1.16-5,10.9-5.61,13.22.29l-7.04,1.67,5.02,1.88c1.46.55,1.9,4.65,1.31,6.1s-3.74,2.42-6.4,2.67Z"/>
  <rect class="st21" x="1494.03" y="452.09" width="3.95" height="29.83"/>
  <rect class="st18" x="1085.96" y="452.09" width="4.04" height="29.83"/>
  <path class="st18" d="M1557.96,464.15c-5.89,2.7,1.03,18.06-5.63,18.72l-1.11-22c3.53-.96,7.91-.86,12.83.48l-6.09,2.8Z"/>
  <path class="st18" d="M117.59,464.16c-5.99,2.85,1.11,17.94-5.75,18.83l-1.2-22.41c4.44-.37,7.56-.33,13.17.62l-6.21,2.96Z"/>
  <path class="st0" d="M1319.09,465.35l-2.14,17.84c-4.49-7.59-2.29-13.58-2.58-22.63,3.26-.25,7.76-.18,12,.24l-7.28,4.55Z"/>
  <path class="st19" d="M932.39,221.34v-9.42c1.89-2.91,10.15-5.4,12.87-.87,2.2,3.67,2.25,10.3-1.81,12.6-3.56,2.01-9.36,1.43-11.06-2.31ZM935.31,212.72c-1.79,1.21-1.67,7.01.01,7.94,1.4.78,5.04,1.04,6.2-.06,1.39-1.32,1.55-5.05.97-6.98-.46-1.52-5.1-2.3-7.18-.9Z"/>
  <path class="st22" d="M860.98,216.87l-8.62,2-.63,4.77c-.12.89-2.56.78-4.41.65l-.18-15.75,14.18,1.2-9.96,3.73,9.62,3.4Z"/>
  <rect class="st19" x="1333.6" y="320.36" width="11.84" height="9.42"/>
  <rect class="st19" x="413.83" y="320.36" width="11.84" height="9.42"/>
  <rect class="st21" x="1566.61" y="459.94" width="3.95" height="21.98"/>
  <rect class="st18" x="798.83" y="459.94" width="4.04" height="21.98"/>
  <rect class="st21" x="649.99" y="459.94" width="3.95" height="21.98"/>
  <rect class="st21" x="372.33" y="459.94" width="3.95" height="21.98"/>
  <rect class="st21" x="1050.71" y="459.94" width="3.95" height="21.98"/>
  <rect class="st21" x="1120.13" y="459.94" width="3.95" height="21.98"/>
  <rect class="st21" x="284.76" y="459.94" width="3.95" height="21.98"/>
  <rect class="st19" x="1440.39" y="452.09" width="3.16" height="29.83"/>
  <path class="st6" d="M1011.27,220.88c-.45,4.19-2.51,5.32-2.89,1.05.39-6.13,0-8.19-5.49-12.6l13.64-.11-4.83,4.25c-.93.82-.46,4.88-.43,7.4Z"/>
  <path class="st22" d="M968.68,210.35v12.56l-1.99.19c.37-5.05.5-9.88,1.99-12.75Z"/>
  <path class="st20" d="M564.96,837.27c-2.36,1.54-6.68,1.92-8.69-1.42l8.69,1.42Z"/>
  <ellipse class="st20" cx="551.39" cy="836.69" rx="1" ry="1"/>
  <ellipse class="st20" cx="548.23" cy="839.04" rx=".79" ry=".78"/>
  <path class="st3" d="M688.17,730.44c.7-.02,2.02.04,2.8.07.39,2.23,2.4,4.86,4.26,5.11,2.46.32,7.97-1.5,7.71-4.15l-2.76-27.57-10.74-.08c-.2,5.09-.38,9.62.42,15.18l-3.58.14.66-16.96c4.29-2.12,11.51-1.86,15.17.15l2.72,11.31,21.28-6.03,1.95,20.1-21.38,1.68c-1.12,7.47-4.05,9.18-10.12,9.21-4.68.02-7.79-2.95-8.39-8.17Z"/>
  <path class="st21" d="M710.94,612.12l1.58,17.39-53.92.24c-1.41,0-4.08-3.31-3.32-3.94.59-.49,2.33-1.71,3.4-1.96l52.26-11.73Z"/>
  <path class="st1" d="M712.51,629.51l-1.58-17.39c-.21-3.49,1.2-6.97,4.3-7.03,5.15-.1,6.77,1.9,7.21,7.19l1.7,20.45c.18,2.15-5.23,3.21-7.16,2.89-2.09-.35-4.3-3.51-4.47-6.11Z"/>
  <path class="st21" d="M512.02,628.09l-3.16-11.41-4.61,11.81-6.74-13.56-.82,13.18c-2.91-7.58-3.4-13.25-.86-21.65l7.94,15.76,6-15.42c4.11,7.86,3.82,12.85,2.25,21.29Z"/>
  <path class="st21" d="M686.28,719.14l3.58-.14,1.11,11.51c-.78-.03-2.1-.09-2.8-.07l-19.14.51c-1.98.05-4.83-.44-5.05-1.63s1.6-3.79,2.81-4.16l19.48-6.02Z"/>
  <path class="st21" d="M587.91,734.57c.18,2.06-3.78,5.21-6.61,5.15-4.41-.09-5.24-13.13-5.3-16.6-.04-2.55,5.58-3.71,10.5-4.28l1.4,15.73Z"/>
  <rect class="st12" x="484.34" y="670.29" width="66.26" height="3.14"/>
  <path class="st18" d="M514.65,731.82l-2.73-3.76c-.27-.38-.47-1.37,0-1.38l4.42-.08c3.11-.05,3.43,9.88.24,10.42-5.44.92-11.33.61-13.95-2.36s-3.01-9.19-1.29-13.47c.93-2.3,5.7-3.96,8.78-3.86,2.27.07,5.86,2.6,6.64,4.82l-8.48-2.33c-3.34-.92-6.58,5.32-5.66,8.43s2.9,5.96,4.8,6.7,8.49-1.39,7.22-3.13Z"/>
  <path class="st9" d="M524.07,730.82c-.54-.43,1.11,3.72,2.13,3.35l6.52-2.35c1.09,3-3.4,5.45-6.76,4.78s-5.79-4.25-5.63-8.45c.12-3.12,3.27-6.18,5.75-6.35,3.69-.25,7.16,2.27,7.69,7.04l-9.71,1.99Z"/>
  <path class="st21" d="M528.21,617.03c-.01.24-.12,1.29-.06,1.45l1.71,4.89.09,1.05c-1.99,2.91-8.1,4.47-11.64,1.84-2.72-2.02-2.97-9.65-1.14-12.84l2.48,10.82c.26,1.13,4.6.97,4.65-.19l.25-5.59.14-3.4c.03-.72,1.66-1.28,2.02-.65l1.5,2.61Z"/>
  <path class="st9" d="M549.15,733.02l-.02-3.09c-.01-1.81,3.83-3.64,6.01-4.65l1.82-3.26c.43-.77,2.73,2.47,2.93,3.36.72,3.25,1.03,8.83-2.79,9.85-2.72.73-6.39.54-7.94-2.21Z"/>
  <path class="st18" d="M529.95,624.43l-.09-1.05,8.55.93-10.26-5.82c-.06-.16.05-1.21.06-1.45,2.41-1.76,5.37-3.3,7.48-3.44,1.78-.12,3.13,3.65,4.03,6.27,1.23,3.6.52,7.29-2.8,7.72-2.65.35-5.8-1.15-6.98-3.16ZM536.79,617.95c-4.09-.4-4.33-.42-.69-.06,1.77.15,2.39.2.69.06Z"/>
  <path class="st18" d="M557.62,614.69l-7.31,13.33-2.81-14.3c-.11-.56,0-2.89.44-3.24l1.75-1.39c1.43-1.13,1.01,8.18,2.52,7.62l5.4-2.02Z"/>
  <path class="st18" d="M549.13,729.92l.02,3.09-6.87,1.81c.06-.86.99-3.79-.03-4.14l-5.8-1.97c-2.07-.7-1.31-6.5,1.51-6.97,2.2-.37,6.31.83,6.53,1.85l-7.57,1.11c3.95,2.92,8.01,4.76,12.19,5.21Z"/>
  <path class="st18" d="M555.43,624c0-.81,3.42.29,3.47,1.08l.2,2.9c.07,1.04-3.66-2.68-3.68-3.97Z"/>
  <path class="st12" d="M752.54,747.21c-.86.07-4.14-1.15-3.42-2.02l2.21-2.69c.46.85,1.2,3.44,1.2,4.71Z"/>
  <path class="st8" d="M741.41,632.55c-1.09-1.67-1.26-5.21-1.23-7.91.64,1.77,1.27,5.77,1.23,7.91Z"/>
  <path class="st12" d="M750.96,731.51h-2.36c-.54,0-1.03-1.69-.57-1.98l1.83-1.16c.34.48,1.08,2.26,1.11,3.14Z"/>
  <path class="st12" d="M749.38,715.81h-2.36c-.53,0-1.02-1.69-.57-1.98l1.81-1.16c.34.47,1.09,2.26,1.12,3.14Z"/>
  <path class="st15" d="M1207.63,708.3c-2.24-2.37-3.69-7.43-4.99-11.54l-2.68,12.72-1.44-1.93c-.28-.37-.56-.44-.74-.05-.29.65-1.13,2.59-1.12,2.58-1.3-.55-3.79-.21-7.85.68-3.08-7.46-5.01-16.96-4.61-26.17l11.63,3.34c2.27.65,4.94,5.75,5.65,7.38.85-3.43,2.01-7.7,3.05-9.81,4.99,2.84,9.74,5.17,12.57,7.56,5.76,4.88-2.03,15.78-9.47,15.24Z"/>
  <path class="st2" d="M859.7,721.58c-4.78-4.36-27.82.75-31,4.76l-2.21-20.63,15.34-.87c6.49-.37,12.66.57,19.98,3.18-.43,4.45-1.44,10.77-2.11,13.56Z"/>
  <path class="st2" d="M920.45,721.53c-.76.36-2.49-2-3.21-1.55l-3.38,2.15-1.1-6.52-1.71,6.5c-1.94-3.62-2.27-3.31-3.16,1.31l-4.37-14.13c-1.03-3.34,2.24-9.88,4.22-12.29l1.47,3.53c.16.39.19.26,1.34-.2,3.8.32,8.03-.43,11.87-2.52l6.64,9.48c2.08,2.97-.81,11.33-1.96,14.36l-3.59-1.68c-.59-.28-2.15,1.15-3.05,1.58Z"/>
  <path class="st2" d="M959.23,708.5l-6.95,7.25-6.92-4.77-.63,4.84c-.13.99-1.53.93-3.3,1.76l-6.39,3.09c-2.44-7.2-3.38-13.57-3.4-21.18l12.48,3.86c3.99-.61,8.32.2,13.1,2.17,2.38-.64,7.2-2.27,10.4-3.44,1.72-.63,6.1,2.41,5.81,4.53s-2.28,5.31-3.24,5.97c-4.06-1.84-7-2.87-10.95-4.09Z"/>
  <path class="st15" d="M1155.02,709.46l-4.52-1.73c-1.1-.42-3.99,1.4-5.26,1.96-3.79.38-7.78.37-11.55,1.77l-2.67-10.69c-.87-3.49-1.07-8.82-1.45-13.26l3.96,3.37c.88.75,4.1-.77,5.25-.59l12.97,2.01c2.48,3.88,2.95,9.92,3.25,17.18Z"/>
  <path class="st2" d="M1245.84,704.27l-12.49,3.44-10.81-11.64,5.49-11.28,13.11.43c5.09,4.66,6.68,12.77,4.71,19.06Z"/>
  <path class="st2" d="M1086.21,714.96l-3.9-3.35c-2.44,1.11-5.73,2.18-7.73,1.76s-4.6-4.59-4.77-6.69l-1.25-15.44,5.6,5.26c1.03.97,3.75-1.73,5.71-2.08,3.39-.6,10.03,3.82,11.98,6.89l-5.64,13.65Z"/>
  <path class="st2" d="M1057.66,716.12c-1.81-.87-6.01-1.73-11.17-2.52-3.14-2.62-5.02-14.15-2.55-18.61,7.54-3.38,16.49,2.28,20.71,7.49l-6.98,13.64Z"/>
  <path class="st15" d="M1030.33,698.39c4.23,4.05,3.73,11.96,0,16.91l-3.95-6.06c-1.56,2.34-3.12,5-4.13,5.95-1.18,1.11-4.25,1.18-6.59.9-2.32-6.35-3.19-13.24-2.78-20.69l4.46,4.38c1.11-1.54,4.28-4.66,5.33-3.56l2.77,2.87c.49.51,1.87-.06,4.89-.68Z"/>
  <path class="st2" d="M886.09,719.63l-9.68-4.19-1.42,9.96c-4.08-7.9-6.14-16.71-4.94-25.31,8.51,6.65,15.64.12,19.13,8.35,1.36,3.21-.52,11.77-3.09,11.19Z"/>
  <path class="st15" d="M1269.94,692.24l.13,1.52c-4.63,1.81-8.75,5.92-10.31,10.19-.97-.78-2.63-2.1-1.69-1.35-1.93,3.06-2.54,4.38-3.82,4.21-1.46-.2-3.42-3.08-3.62-4.37l-2.84-18.68,22.15,8.49Z"/>
  <path class="st2" d="M1284.58,687.49l1.62,10.8c-1.79,4.26-9.2,5.71-13.59,4.66l-2.54-9.19-.13-1.52c-.14-1.62-.23-4.79-.17-7.12.07-2.57,16.38.83,14.8,2.37Z"/>
  <path class="st2" d="M1173.55,707.8l-11.84-.75-3.09-18.83c7.82.68,10.79,1.88,14.03,5.07,4.13,4.08,2.82,9.74.89,14.51Z"/>
  <path class="st15" d="M982.77,717.78l-2.08-10.01-1.64,4.94c-4.02-5.8-3.03-11.16,1.65-15.07l3.18,2.01c.87.55,2.52-1.03,4.25-2.14,2.72,5.27,3.68,11.35,2.23,18.68-1.49-.5-2.22-1.13-2.8-.84l-4.8,2.44Z"/>
  <path class="st15" d="M1005.85,715.3c-4.15-1.09-7.94-.27-9.62,3.06l-2.82-19.18,9.08-2.01c4.13,5.55,5.25,13.26,3.35,18.13Z"/>
  <path class="st15" d="M1116.8,700.4c-2.23,5.97-12.94,3.74-16.22.39,4.74-4.99,12.83-6.52,16.22-.39Z"/>
  <ellipse class="st2" cx="1096.46" cy="700.11" rx="1.75" ry="1.74"/>
  <path class="st15" d="M992.88,693.45c.4,4.07.42,4.31.06.68-.15-1.76-.2-2.38-.06-.68Z"/>
  <path class="st2" d="M1038.63,702.87c.4,4.07.42,4.31.06.68-.15-1.76-.2-2.38-.06-.68Z"/>
  <ellipse class="st15" cx="1247.13" cy="682.06" rx=".79" ry=".78"/>
  <ellipse class="st10" cx="1053.08" cy="609.85" rx=".79" ry=".78"/>
  <path class="st26" d="M915.79,797.8l-.51-13.91c5.52.59,7.55.85,11.16,1.8l6.82-3.93c3.39,2.32,6.53,7.63,6.89,12.23-7.18,4-12.91,3.55-24.36,3.81Z"/>
  <path class="st26" d="M1152.72,774.54c-2.7.26-5.63.22-7.21.02s-2.51-5.86-1.84-7.32c2.06-4.48,10.38-4.69,14.52-3.3l6.05-2.67c.89,2.71,1.68,8.06,1.63,12.03l-13.14,1.25Z"/>
  <path class="st26" d="M1258.56,763.9l-20.38.64,3.03-13.62,14.22,3.13c2.09.46,2.91,5.9,3.12,9.86Z"/>
  <path class="st26" d="M961.85,785.6c2.24-1.41,6.77,6.17,4.56,7.67l-21.93,2.99-1.04-15.31c9.7,3.47,8.24,11.04,18.4,4.65Z"/>
  <path class="st26" d="M1090.92,781.01c-4.54,1.05-8.23-.92-9.34-4.05-1.6-4.52.23-8.18,5.74-7.39,2.97.43,4.98.17,8.26-1.78l7.88,10.31-12.54,2.9Z"/>
  <path class="st26" d="M1212.45,765.16c-1.62,3.92-10.34,4.41-13.88,3.75l-2.6-13,8.63.19c3.65.08,9.87,4.19,7.85,9.07Z"/>
  <path class="st26" d="M1074.81,781.31c-6.04,2.36-12.57,2.49-18.53,1.95-.69-2.61-1.4-7.48-.25-9.13s4.91-3.08,8.06-3.37c3.88-.35,8.88,5.26,10.73,10.55Z"/>
  <path class="st26" d="M1025.51,786.88l-.4-9.78c-.05-1.31,4.96-2.76,5.92-1.94l5.88,5.05,2.35-6.26c2.49,1.36,6.1,7.11,5.21,11.21-5.87,1.41-12.33,1.7-18.94,1.73Z"/>
  <path class="st26" d="M1231.75,764.3c-4.68,3.12-8.33,3.64-13.65,3.36-2.79-3.49-4.41-10.7-1.15-13.32,5.31-.35,9.89,3.85,14.8,9.96Z"/>
  <path class="st26" d="M1172.65,772.63l-.47-9.42,11.04-1.74c2.29-.36,4.83,7.87,2.65,8.8-3.77,1.61-9.52,2.1-13.22,2.36Z"/>
  <path class="st26" d="M1276.49,757.99c-.3,6.45-8.69,6.11-13.58,3.92l-2.65-12.44c6.41,2.59,10.08,4.65,16.23,8.52Z"/>
  <path class="st26" d="M997.72,779.6c1.71.81,4.32,4.48,4.54,6.35s-2.67,4.54-4.73,5.11c-1.79.49-6.11-1.56-6.08-3.69l.11-10.26,6.16,2.48Z"/>
  <polygon class="st26" points="1018.9 787.92 1006.66 788.08 1005.6 779.23 1016.1 778.92 1018.9 787.92"/>
  <path class="st16" d="M1070.75,370.18c-2.69,1.22-8.93-2.26-9.71-5.24-1.39-5.38-1.61-10.63-.42-16.07.81-3.69,6.38-7.04,9.44-6.39,3.82.81,7.28,4.98,7.64,8.98.65,7.22,1.4,14.92-6.95,18.72Z"/>
  <path class="st20" d="M1284.06,357.15c1.36,5.47.14,10.02-4.04,12.5-1.57.93-6.04.45-7.45-.6-1.65-1.22-2.46-6.53-.72-7.75,2.68-1.9,6.83-2.92,12.22-4.15Z"/>
  <path class="st16" d="M604.46,353.21h-16.21c.3-5.67,3.19-10.37,7.31-10.63,5.1-.32,8.54,2.77,8.89,10.63Z"/>
  <path class="st16" d="M876.97,352.5c-3.96,1.03-9.48,1-14.12.39-.84-1.97.73-7.44,2.59-8.72,1.97-1.36,6.12-1.66,8.22-.85,2.4.92,5.76,8.55,3.31,9.19Z"/>
  <path class="st16" d="M752.77,353.12l-16.24.07c.18-2.96,1.49-7.26,2.95-8.91,1.55-1.75,6.99-2.12,9.08-.6,1.91,1.38,3.6,5.76,4.21,9.44Z"/>
  <path class="st16" d="M1385.52,355.67c.28,7.39-3.66,15.5-11.17,14.56-7.94-.99-9.96-9.72-9.23-16.71.61-5.93,4.68-10.91,9.91-11.02,6.47-.14,10.21,5.65,10.5,13.17Z"/>
  <path class="st16" d="M1219.61,355.68c.27,7.25-3.55,15.31-10.78,14.6-8.18-.8-10.66-9.79-9.69-17.05.79-5.88,5-10.68,10.22-10.72,6.24-.05,9.96,5.62,10.25,13.18Z"/>
  <path class="st17" d="M997.42,969.83c10.26,7.46,18.64,16.99,18.36,29.95-.27,12.57-8.85,21.72-18.38,28.74-3.9,1.43-10.69,2.82-14.57,2.82l-190.77-.04c-4.17,0-9.75-2.09-13.06-2.82-9.75-7.51-18.21-16.32-18.39-28.78-.19-13.21,8.55-22.48,18.41-29.9,3.66-1.01,9.65-2.81,13.06-2.81h193.71s11.62,2.83,11.62,2.83ZM807.45,1005.9c2.32-1.11,4.49-4.34,4.72-6.9.31-3.56-1.33-6.05-4.72-8.15-2.74-1.7-6.08-2.06-10.72-1.96l-.09,18.59,10.81-1.57ZM826.69,993.66c-3.69-.13-9.91.69-12.6,2.38-.49.31,1.82,2.97,2.21,2.53s1.65-1.7,2.14-1.98l2.69-1.56c.55-.32,1.42,2.24.84,2.51l-2.68,1.24-5.08,2.33c-1.43.66.23,6.26,1.79,6.31l10.34.36.17-12.58c4.17-1.34,1.06,13.89,4.39,12.45l3.4-1.46,9.61,1.52-6.92-5.52,10.24-.94c.51-3.1-1.07-7.21-3.83-7.71-2.22-.4-7.83,1.01-8.09,3.42l-1.01,9.23c-5.77-.2,1.15-10.25-2.58-16.91l-5.03,4.38ZM944.99,1008.74c1.64-3.49,2.8-11.39.19-13.2l-9.68-6.71.84,20.23c3.23-6.64.58-9.89,5.58-14.97l3.07,14.65ZM873.9,1006.98l-.06-5.52c-.05-4.66-.75-8.27-5.16-8.18-2.91.06-6.85,2.52-5.32,4.83l5.12-2.92c.72-.41,2.37,2.42,2.39,2.65l-6.7,2.01c-1.46.44-3.57,4.21-2.87,5.62,1.75,3.54,12.61,2.73,12.6,1.52ZM899.3,1001.62l-7.47-5.3,8.1-.88c-1.47-.45-5.11-1.19-7.39-1.45-1.46-.16-2.34,4.17-1.88,5.24l8.85,5.98-9.81.52c1.16,1.12,5.5,2.32,8.39,1.94,1.82-.24,2.79-4.94,1.22-6.05ZM906.43,1000.08l-1.35-3.02-1.57-3.49c-.21-.46-2.01,1.08-1.86,1.57l4.2,13.37c9.06-13.81,8.5-3.39,6.71-11.3-.6-2.68-5.51,4.3-6.14,2.88ZM913.46,994.45c0-.43-.35-.78-.79-.78s-.79.35-.79.78.35.78.79.78.79-.35.79-.78ZM922.08,1007.5l10.82.21-1.25-12.48c-.29-2.86-10.17-1.93-10.22,1.21,0,.54,1.38,2.35,1.73,1.95l2.06-2.36c.43-.49,2.47-.88,3.14-.96s1.53,2.18.91,2.43l-2.94,1.17c-1.84.74-4.31,1.87-5.59,2.57s-.11,6.23,1.34,6.26ZM958.31,1002.19l9.28-.95c-.45-3.65-3.12-7.44-5.98-7.77-3.04-.34-6.69,1.7-7.13,4.26-.93,5.36.83,10.4,5.18,10.26,2.54-.08,6.99-2.87,7.05-4.76l-6.63,3.1c-1.08.51-2.42-3.86-1.76-4.15ZM976.79,997.72l1.52,10.86c3.14-3.19,2.58-9.96.81-13.13-1.28-2.3-8.21-1.83-9.89-.47-.37,4.84-.32,9.09.74,13.77l2.56-11.43c.13-.6,1.47-2.01,1.88-2.48s2.27,2.15,2.37,2.89Z"/>
  <path class="st17" d="M807.45,990.84c1.45,4.78,1.67,9.42,0,15.05l-7.59.34v-15.74s7.59.34,7.59.34Z"/>
  <path class="st16" d="M1513.78,478.41c-4.65.88-6.98-3.98-7.14-6.81-.19-3.33,2.13-8.39,6.45-8.22,2.5.1,5.16,4.61,5.28,6.83.13,2.39-1.68,7.65-4.59,8.2Z"/>
  <path class="st16" d="M988.18,478.52c-3.57.36-5.97-4.46-6-6.81-.05-3.16,1.48-8.04,5.59-8.44,3.05-.29,5.9,4.39,5.99,6.93.1,2.83-1.3,7.89-5.58,8.33Z"/>
  <path class="st16" d="M1220.08,478.52c-3.56.36-5.96-4.46-6-6.81-.04-3.16,1.48-8.05,5.58-8.44,3.05-.29,5.9,4.39,6,6.93.11,2.83-1.29,7.89-5.58,8.33Z"/>
  <path class="st16" d="M517.79,478.65c-2.51-.02-5.46-4.78-5.52-6.95-.07-2.85,1.87-7.85,5.13-8.31,4.71-.66,7.06,3.64,7.18,6.75.13,3.39-1.1,8.55-6.79,8.5Z"/>
  <path class="st17" d="M940.69,478.57c-3,.04-5.77-4.63-5.81-6.86-.05-3.13,1.84-7.99,5.43-8.42,4.21-.5,6.78,3.85,6.87,6.86.1,3.21-1.08,8.34-6.5,8.42Z"/>
  <path class="st20" d="M1535.6,478.58c-3.11-.35-5.4-5.69-5.22-8.31s2.77-7.11,6.16-7.05c3.75.07,6.28,4.4,6.36,7,.12,3.43-1.59,9-7.29,8.36Z"/>
  <path class="st12" d="M533.25,833.18c-.61-.17-2.29-.59-2.81-.66-.78-.11.73-3.04,1.45-3.34.99-.42,3.48-1.11,3.71-.51l.94,2.44c.24.61-1.12,1.01-3.29,2.08Z"/>
  <path class="st29" d="M935.31,212.72c2.08-1.4,6.72-.62,7.18.9.58,1.93.43,5.66-.97,6.98-1.16,1.1-4.8.84-6.2.06-1.68-.93-1.8-6.73-.01-7.94Z"/>
  <path class="st1" d="M690.97,730.51l-1.11-11.51c-.81-5.56-.62-10.1-.42-15.18l10.74.08,2.76,27.57c.26,2.65-5.25,4.47-7.71,4.15-1.86-.24-3.87-2.88-4.26-5.11Z"/>
  <polygon class="st16" points="529.86 623.38 528.15 618.49 538.41 624.31 529.86 623.38"/>
  <path class="st16" d="M536.79,617.95c1.71.14,1.08.09-.69-.06-3.64-.36-3.4-.34.69.06Z"/>
  <path class="st22" d="M826.69,993.66c-.07.48-.18,1.14-.19,1.54l-.17,12.58-10.34-.36c-1.56-.05-3.23-5.65-1.79-6.31l5.08-2.33,2.68-1.24c.58-.27-.29-2.83-.84-2.51l-2.69,1.56c-.49.28-1.75,1.55-2.14,1.98s-2.7-2.23-2.21-2.53c2.69-1.69,8.91-2.52,12.6-2.38Z"/>
  <path class="st22" d="M873.9,1006.98c.01,1.21-10.85,2.02-12.6-1.52-.7-1.41,1.41-5.18,2.87-5.62l6.7-2.01c-.02-.23-1.67-3.06-2.39-2.65l-5.12,2.92c-1.54-2.31,2.41-4.77,5.32-4.83,4.41-.09,5.11,3.52,5.16,8.18l.06,5.52Z"/>
  <path class="st22" d="M922.08,1007.5c-1.46-.03-2.62-5.57-1.34-6.26s3.75-1.83,5.59-2.57l2.94-1.17c.63-.25-.24-2.52-.91-2.43s-2.71.47-3.14.96l-2.06,2.36c-.35.4-1.74-1.41-1.73-1.95.05-3.14,9.94-4.08,10.22-1.21l1.25,12.48-10.82-.21Z"/>
  <path class="st22" d="M958.31,1002.19c-.65.28.68,4.65,1.76,4.15l6.63-3.1c-.06,1.89-4.52,4.68-7.05,4.76-4.35.14-6.11-4.9-5.18-10.26.45-2.56,4.09-4.6,7.13-4.26,2.86.32,5.54,4.11,5.98,7.77l-9.28.95Z"/>
  <path class="st0" d="M976.79,997.72c-.1-.73-1.97-3.35-2.37-2.89s-1.74,1.88-1.88,2.48l-2.56,11.43c-1.06-4.68-1.12-8.93-.74-13.77,1.68-1.36,8.61-1.83,9.89.47,1.77,3.18,2.33,9.95-.81,13.13l-1.52-10.86Z"/>
  <path class="st24" d="M944.99,1008.74l-3.07-14.65c-5,5.08-2.35,8.33-5.58,14.97l-.84-20.23,9.68,6.71c2.61,1.81,1.45,9.71-.19,13.2Z"/>
  <path class="st22" d="M834.29,1006.19l1.01-9.23c.26-2.41,5.87-3.83,8.09-3.42,2.76.5,4.34,4.61,3.83,7.71l-10.24.94,6.92,5.52-9.61-1.52Z"/>
  <path class="st0" d="M834.29,1006.19l-3.4,1.46c-3.33,1.44-.22-13.8-4.39-12.45,0-.4.11-1.06.19-1.54l5.03-4.38c3.73,6.66-3.2,16.7,2.58,16.91Z"/>
  <path class="st22" d="M807.45,990.84l-7.59-.34v15.74s7.59-.34,7.59-.34l-10.81,1.57.09-18.59c4.65-.09,7.98.27,10.72,1.96Z"/>
  <path class="st22" d="M807.45,1005.9c1.67-5.64,1.45-10.27,0-15.05,3.39,2.1,5.03,4.59,4.72,8.15-.22,2.56-2.4,5.79-4.72,6.9Z"/>
  <path class="st21" d="M906.43,1000.08c.63,1.42,5.54-5.56,6.14-2.88,1.79,7.92,2.35-2.51-6.71,11.3l-4.2-13.37c-.15-.49,1.65-2.03,1.86-1.57l1.57,3.49,1.35,3.02Z"/>
  <path class="st22" d="M899.3,1001.62c1.57,1.11.61,5.81-1.22,6.05-2.89.38-7.23-.82-8.39-1.94l9.81-.52-8.85-5.98c-.46-1.06.42-5.4,1.88-5.24,2.28.26,5.92,1,7.39,1.45l-8.1.88,7.47,5.3Z"/>
  <ellipse class="st21" cx="912.67" cy="994.45" rx=".79" ry=".78"/>
</svg>