<svg xmlns="http://www.w3.org/2000/svg" xml:space="preserve" id="Ebene_1" x="0" y="0" viewBox="0 0 1920 1080"><style>.st0{fill:#121212}.st1{fill:#141414}.st2{fill:#262626}.st3{fill:#151415}.st4{fill:#e2e8e2}.st6{fill:#dfe2df}.st10{fill:#ddeaec}.st11{fill:#efeadc}.st12{fill:#eeebdf}.st13{fill:#abb4b0}.st15{fill:#b8b19c}.st16{fill:#c9c9c9}.st18{fill:#312e2c}.st20{fill:#838677}.st21{fill:#888b86}.st22{fill:#7c8481}.st23{fill:#737373}.st24{fill:#8d918c}.st25{fill:#919590}.st26{fill:#7d8b90}.st27{fill:#9c8c6c}.st28{fill:#1a191b}</style><path d="M0 832.5V0h1920v1080H0V972.5c290.5 0 581 0 871.5-.1 4.9 0 9.8-1.6 14.6-2.4 5.8-6.7 11.6-13.3 17.4-20 .7-3.1 2.1-6.1 2.1-9.2.2-25.5.2-51.1 0-76.6 0-3.1-1.4-6.2-2.1-9.2-5.8-6.6-11.6-13.3-17.4-19.9-4.9-.8-9.7-2.4-14.6-2.4-290.5-.2-581-.2-871.5-.2m1294.2 74.6c-.6-2.2-1.2-4.3-1.4-5.2-3.8 1.3-6.7 2.3-9.6 3.2-1.4-1.2-2.8-2.3-4.2-3.5 1.1-1.1 1.5-.9 1.6-.7.1.3.1.8.1 1.2-2.3-.3-4.6-.2-6.7-.9-4.4-1.4-8.5-3.9-12.9-4.6-2.4-.4-5.1 2-7.7 3.2-.7-9.1-5.5-11.3-13.7-7.4 4.5 2.5 9 5.1 13.6 7.6 2 7.3 2.8 15.5 6.3 21.7 4.3 7.7 12 2.7 14.8-6.9h18.4c.4-2.5.9-5.1 1.4-7.7m-71.5-9.9c9.3.6 7.5 7.7 5.9 14.4v-16.9c-2 .9-3.9 1.7-5.9 2.6-1.7 5.9 2.8 16.5-8.6 15.1-2.9-.2-7.9.6-8.4-.9-1.5-3.7-1-8.4-1.3-14.2-4.6-.5-11-1.2-17.3-1.8-.1 1.1-.2 2.1-.4 3.2 2.6.8 5.2 1.7 8.3 2.7-4.2 5.2-7.8 9.7-11.3 14.1-1.9-21.8-1.9-21.8-16.3-18v19.9c2.5-1.2 3.3-2.7 3.8-4.3 1.3-4.2 2.5-8.5 3.7-12.8 1.4 4 2.5 8.1 4.4 11.9.7 1.4 3 1.8 4.5 2.7 10.6 6.6 20.3.1 30.4-2.4 1.8-1 3.5-1.9 3.7-2 1.5-4.6 3.2-9 4.8-13.3m-169.5 11.9c2.3 1.6 4.4 4.2 6.8 4.5 5.2.6 11.3 2 15.5-.4 7.9-4.7 3-10.2-1.5-14.7-5.6-5.7-9.9-4-14.2 3.7 4.1-.6 7.2-1 10.2-1.4.1.6.3 1.2.4 1.8-4.6 2.8-9.2 5.6-15.8 9.6.3-4.4 1.1-7.7.5-10.5-.8-4-2.7-7.8-4.1-11.7-4.1-.7-8.2-1.4-13.3-2.3 0 9.6-.1 17.4 0 25.3 0 1.5.6 2.9 1.5 6.7 1.8-5.7 2.9-9.1 4.2-13.3 3.8 1 6.8 1.8 9.8 2.7M960 210.7c-.7 16.4-1.7 32.8-2.1 49.3-.1 4.9 1.3 9.8 2.1 14.7 2.1-2 5.7-3.8 6-6.2.8-6.5.4-13.2.3-19.8-.1-8.6 2.6-15.3 10.7-15.2 7.7.1 8.3 7.6 8.3 14.6.1 8.6 0 17.3 0 25.9.8.7 1.7 1.4 2.5 2 1.6-2.2 4.3-4.3 4.6-6.7.7-6.1.2-12.4.2-18.6 0-23.2-6.8-28.9-26.4-21.3 0-4.7.7-9.4-.3-13.7-.3-2.1-3.8-3.3-5.9-5M143.4 417.3c-2.2 5.6-6.2 11.2-6.2 16.8-.5 55.6-.5 111.1 0 166.7 0 5.6 4.1 11.2 6.2 16.8v2c.4 9.7 4.9 14.8 13.3 15.3.6 0 1.2 0 1.8-.1 7.1 2.5 14.1 7.2 21.2 7.2 492.8.3 985.5.3 1478.3.3 3.3 0 6.8.8 9.7-.3 4.1-1.6 7.7-4.7 11.5-7.2.6 0 1.2 0 1.8.1 8.4-.5 12.9-5.6 13.3-15.3v-2c2.2-5.6 6.2-11.2 6.2-16.8.5-55.6.5-111.1 0-166.7 0-5.6-4.1-11.2-6.2-16.8v-2c-.4-9.7-4.9-14.8-13.3-15.3-.6 0-1.2 0-1.8.1-7.1-2.5-14.1-7.2-21.2-7.2-492.8-.3-985.5-.3-1478.3-.3-3.3 0-6.8-.8-9.7.3-4.1 1.6-7.7 4.7-11.5 7.2-.6 0-1.2 0-1.8-.1-8.4.5-12.9 5.6-13.3 15.3-.1.7 0 1.3 0 2M411.6 278c17.5-9.9 10.1-32.1 20-44.8 3.4 14.7 6.6 28.2 10.5 44.8 4.1-3.7 8.6-5.6 9.4-8.7 4.9-19 9.1-38.2 13.9-59.4-13 .9-10.1 12.6-12.3 19.5-2.7 8.5-4.2 17.6-6.2 26.4-5.1-12.6-7.5-25-10.6-37.2-.8-3.1-4-5.4-6.1-8.1-1.7 2.6-4.3 4.9-5.1 7.8-3.1 12.4-5.7 25-8.5 37.6-5.1-12.8-7.6-25.7-10.8-38.2-.8-3.1-4.2-5.4-6.4-8-.9.9-1.9 1.7-2.8 2.6 4.8 20.4 9.5 41.2 15 65.7m186.5-30.3c1 0 2 .1 3 .1 1.9 7 3.3 14.3 5.8 21 1 2.7 4 5.4 6.4 5.9 1.6.3 4.9-2.9 5.6-5.2 4-13.6 7.5-27.3 12-44.3-16 7.1-10.1 25-19.1 34.9-1.5-6.1-2.4-11.7-4.3-16.8-2.1-5.5-5-10.6-7.6-15.9-2.8 5.4-6.1 10.7-8.3 16.4-2 4.9-2.8 10.5-4.7 17.7-13.2-33.2-13.2-33.2-17.4-32.2 3.5 13.1 6.8 26.3 10.7 39.2.8 2.7 4.1 6.1 6.2 6.1s5.2-3.5 6.1-6.2c2.3-6.7 3.8-13.8 5.6-20.7m228.4 5.4c4.4 19.3 15.1 27 28.2 23.1 7.5-2.2 13.4-6.4 14.1-16.3.8-10-4.3-15.4-11.6-18.6-4.7-2.1-9.9-2.7-14.3-5.5-2.9-1.8-7-7.3-6.4-9.2 1.4-3.7 5.8-8.8 8.6-8.5 4.7.6 9 4.8 13.4 7.7 2.5 1.6 4.9 3.5 9 6.5-3.7-20.9-18.9-29.6-31.5-19.8-4.1 3.1-7.7 10.6-7.7 16.1 0 4.7 4.9 10.2 8.8 13.7 3.2 2.9 8.4 2.7 12 5.1 4.3 2.9 8.1 6.9 11.4 11.2.4.6-3.8 8.4-5.6 8.2-6-.5-11.9-2.8-17.7-5-1.2-.5-1.2-4.2-2.4-5.3-1.9-1.4-4.4-1.8-8.3-3.4m-356-9.8c4.1-2.9 8-6.9 12.5-8.3 6-1.9 11.5-.3 11.8 9.6-5.8 1.5-11.5 2.8-17 4.5-7.2 2.1-12.6 8-9.8 16 1.7 5.1 8.4 10.5 13.3 11 8 .9 16.3-2 23.1-3.1-.6-8.7-1.7-18.1-1.9-27.5-.2-11.4-4.7-18.4-14.4-19.6-9.4-1.1-16.8 2.9-17.6 17.4m565.4 16.5c-4.9 2.7-9.7 6.7-14.8 7.8-7.2 1.6-11.4-3-11.9-13.1h27.8c2.1-16.3-2.7-25.7-13.8-28.5-9-2.3-18 3.7-21.3 14.4-4.3 14 .4 29.8 10.3 34.4 10.1 4.8 19.1.5 23.7-15m116.8-5.3c1.1-17.3-3.9-26.3-14.9-28.6-9.3-2-18.7 5.2-21.2 16.5-3.3 14.5 1.6 28.6 11.4 32.8 10.5 4.5 19.1 0 25.2-15.8-4.6 2.3-7.2 4-10 4.8-4.2 1.3-9 3.7-12.8 2.5-2.9-.8-4.7-6.5-8.4-12.1 12.1-.1 21.1-.1 30.7-.1m-223.2-.1c.5-18.1-5.2-27.4-16.4-28.9-9.4-1.2-18.1 6.6-20.3 18.2-2.8 14.8 2.7 28 13 31.7 10.6 3.8 18.2-.6 24.3-17.4-5.4 3.4-8.1 5.9-11.1 6.9-3.9 1.3-8.6 3-12.1 1.6-2.9-1.2-4.6-6.5-8.2-12.2 12.2.1 21.2.1 30.8.1m421.5-.1c.3-18.2-5.3-27.5-16.5-28.8-9.4-1.1-18.1 6.8-20.2 18.4-2.7 14.8 2.7 28 13.1 31.6 10.6 3.7 18.2-.7 23.8-16.7-6.9 3.8-11.5 7.7-16.7 8.8-7.6 1.6-12-2.9-11.6-13.3zm-596.1 4.5c-6.9 3.8-11.5 7.7-16.5 8.8-7.7 1.7-11.9-3.2-12-14h28.9c-.5-18.2-6.1-27-17.1-28.2-9.8-1.1-18.1 7.2-20 19.8-2.2 14.8 2.9 26.6 13.1 30.2 10.5 3.8 18.1-.7 23.6-16.6m482.3-4.5c0-18.8-6.3-28.4-17.7-29-10.2-.5-18.1 8.4-19.5 22-1.6 15.6 4.6 26.7 16.1 29 9.8 1.9 17.1-3.6 19.8-17.2-6.1 3.4-10.9 7.5-16.2 8.5-7.2 1.5-11-3.8-11.4-13.3zm-695.1-11.2c-2.5-15.7-10.5-21.1-20.8-15.9-4.2 2.1-9.3 8.2-9.5 12.7-.2 4.3 4.9 9.7 8.7 13.2 2.5 2.4 7 1.8 10.2 3.5 2.4 1.4 4.2 4.3 6.2 6.6-2.6 1.6-5.2 4.6-7.8 4.5-3.2-.1-6.4-2.5-9.5-4.2-2.7-1.4-5.2-3.1-9.5-5.7 4.5 18.3 21.4 24.3 31.3 13.9 6.1-6.4 5.1-16.5-2.5-20.4-4.5-2.3-9.8-2.5-14.4-4.7-2.2-1-3.5-4.4-5.2-6.7 2.1-1.8 4.2-5.2 6.2-5.2 3.2 0 6.5 2.2 9.6 3.8 2.4 1.3 4.7 3.1 7 4.6m537-14.4c-.8-.7-1.6-1.4-2.4-2-1.5 2.5-4 4.9-4.2 7.5-.6 7.8.8 16-.9 23.5-1 4.4-6.1 7.6-9.4 11.3-2.9-4-7.6-7.6-8.3-12-1.3-9.2-.4-18.9-.4-28.3-1-.7-2.1-1.3-3.1-2-1.4 2.5-4.2 5.2-4 7.6.6 12.2-.7 25.9 3.7 36.2 6.1 14.2 19.2-1.1 29 5.1zm224.1 47.2c.8-.7 1.6-1.3 2.4-2 0-10.8.4-21.6-.1-32.3s-7.5-17.4-15.8-15.8c-5.7 1.1-11.3 2.6-17.6 4.1 0 12.1-.2 25.4.2 38.7.1 2.5 2.9 4.9 4.4 7.3l2.7-2.1c0-8.3.1-16.6 0-24.9-.1-8.7 2.7-15.3 10.8-15.2 7.7.1 8.4 7.6 8.4 14.6 0 7.1-.4 14.2.2 21.2.2 2.2 2.9 4.2 4.4 6.4m82.7-1.4 3.9.9c7.4-7.8 3-19.6 3.2-29.1.6-32.1-20.6-14.5-33-18.9v51c3.5-4.6 6.4-6.6 6.6-8.9.6-7.4.1-14.9.3-22.4.3-8.1 3.9-14.8 11-13.2 3.3.7 6.9 8.4 7.6 13.4 1.3 8.9.4 18.1.4 27.2m-753.6-22.8c.2 15 8.8 25.6 20.4 25s18.9-11.1 18.6-26.8c-.3-14.5-8.5-24.9-19.6-24.5-11.5.3-19.6 11.4-19.4 26.3m130.5-22.2v45.2c1 .6 2 1.2 3 1.7 1.7-3 4.5-5.8 4.9-9.1.8-6.5.3-13.3.3-19.9 0-8.3 3.5-14.8 10.6-13.5 3.3.6 7.1 8.1 8 13.1 1.4 7.1 0 14.9.6 22.3.2 2.3 3 4.3 4.6 6.5 2.4-12.3 2.7-22.7 2.3-33-.4-11.5-7.4-18.7-15.9-17.2-6 1.2-11.8 2.5-18.4 3.9m638.3-1c.8 1.1 1.7 2.1 2.5 3.2 2.2-2.5 4-5.5 6.6-7.4 3.7-2.7 7.8-5.8 11.9-6.2 2.4-.2 7.4 4.7 7.3 7.1-.2 4.6-2.9 9.2-5.1 13.4-3.1 5.7-6.7 10.9-10.1 16.3 4.3 2.3 6.8 2.8 7.7 1.7 4.5-5.6 8.8-11.4 12.7-17.5 1.8-2.8 3.2-6.6 3.4-10.1.6-10.8-4.1-17.4-13.3-19.2-12.6-2.4-20 3.6-23.6 18.7m-313.5 1.2c1 .3 2 .7 3 1 1 8.7 2.7 17.4 2.9 26.2.5 17.8 2.6 20.1 19 14.5-3.5-1.9-6.9-3.8-11-6v-28.8c4.1-1.9 7.5-3.4 10.9-5-.3-1.1-.7-2.2-1-3.3-3.4-.5-6.8-1-8.6-1.3-1.9-4.8-3.3-8.1-4.6-11.5-1.5 2.9-2.8 6.1-4.7 8.7-1.6 2.1-3.9 3.6-5.9 5.5m-396.9 45.2c-1.4-10.5-3.1-18.8-3.6-27.2-.6-9.9.1-20-.3-29.9-.1-2.5-2.2-4.9-3.4-7.4-1.2 2.4-3.5 4.7-3.6 7.1-.3 15.4-.1 30.8-.2 46.2.1 11.4 5.7 12.5 11.1 11.2m554.2-1.3c1 .9 2 1.9 3.1 2.8 1.7-3 4.4-5.9 4.8-9.1.8-6.1.2-12.4.2-18.7 0-7.2 1.1-13.3 9.1-13.8 1.4-.1 2.7-2.6 4.1-4-1.9-1.1-3.8-3.1-5.7-3.2-5-.2-10.1.4-15.6.7zm-45.2-1.1c-16.9-5.8-10.8-18.4-11.4-28.6-.7-11.1-.2-22.4-.2-33.6-1.1-.3-2.3-.5-3.4-.8-1 2-2.8 4-2.9 6-.2 16.5-.5 33.1 0 49.6.4 10.8 6.5 11.2 17.9 7.4M706 211.1c-1.1-.6-2.2-1.1-3.3-1.7-1 2.3-2.9 4.5-3 6.8-.3 16.1-.5 32.3 0 48.4.3 10.1 4.2 12 14.8 7.1-11.6-5-8.4-15.6-8.5-24.9-.1-11.8 0-23.7 0-35.7m284 688.2c-5.2.6-9.8 1.2-14.3 1.7 0 1.1.1 2.1.1 3.2 4.6.5 9.3 1 14 1.4.5 5.8 1 11.1 1.5 16.3.9 0 1.8-.1 2.8-.1.4-5.3.8-10.7 1.3-16.1 5-.6 9.6-1.2 14.2-1.7 0-1.1-.1-2.1-.1-3.2-4.6-.5-9.3-1-14-1.4-.5-5.8-1-11.1-1.5-16.3-1 0-1.9.1-2.9.1-.4 5-.7 10-1.1 16.1M884.6 251.4c0-6.2.2-12.5-.1-18.7-.1-1.8-2-3.4-3.1-5.2-1.3 1.8-3.8 3.6-3.9 5.5-.4 12.1-.4 24.1 0 36.2.1 2 2.4 3.9 3.6 5.8 1.2-2 3.2-4 3.3-6.2.6-5.7.2-11.6.2-17.4m265.1 666.1c4.3-8.4 4.3-8.4-10.6-29.2v28.5c.6.1 1.2.3 1.9.4 1.3-5.9 2.5-11.8 3.8-17.7 1.1.3 2.3.6 3.4.9q.6 8.55 1.5 17.1m96.7 2.8c.7-1.6 1.3-3.2 2-4.7-2.8-1.4-5.6-2.8-8.3-4.3-.6 1.5-1.1 3-1.7 4.5 2.7 1.5 5.3 3 8 4.5" class="st0"/><path d="M886.2 835c5.8 6.6 11.6 13.3 17.4 19.9V950c-5.8 6.7-11.6 13.3-17.4 20H0V835zm-50.8 48c.3 5.1.9 11.1.9 17.1.1 18.2.1 18.2 16.2 18.2 1.4 0 2.9-.1 4.3 0 7 .8 9.7-2.8 9.6-10.8-.1-8.8.6-17.7.9-24.9-10.4-13.3-21.5-16.3-31.9.4" class="st1"/><path d="M886.2 835H0v-2.5c290.5 0 581 0 871.5.1 4.9 0 9.8 1.6 14.7 2.4M0 970h886.2c-4.9.8-9.8 2.4-14.6 2.4-290.5.1-581 .1-871.5.1-.1-.8-.1-1.7-.1-2.5" class="st2"/><path d="M143.3 619.7v-2c-.7-7-2.1-13.9-2.1-20.9-.2-52.8-.2-105.7 0-158.5 0-7 1.4-13.9 2.1-20.9v-2c4.4-5.1 8.9-10.2 13.3-15.3.6 0 1.2 0 1.8.1 6.1-.8 12.1-2.4 18.2-2.4 494.8-.1 989.5-.1 1484.3 0 6.1 0 12.1 1.6 18.2 2.4.6 0 1.2 0 1.8-.1 4.4 5.1 8.9 10.2 13.3 15.3v2c.7 7 2.1 13.9 2.1 20.9.2 52.8.2 105.7 0 158.5 0 7-1.4 13.9-2.1 20.9v2c-4.4 5.1-8.9 10.2-13.3 15.3-.6 0-1.2 0-1.8-.1-6.1.8-12.1 2.4-18.2 2.4-494.8.1-989.5.1-1484.3 0-6.1 0-12.1-1.6-18.2-2.4-.6 0-1.2 0-1.8.1-4.4-5.1-8.8-10.2-13.3-15.3m99.9-150.3c-2.3-.6-4.6-1.3-6.9-1.9-4.2-3.6-8.5-7.2-15.8-13.4.9 10.8 1.2 18.4 2.5 25.8.2 1.4 4.1 2 4.4 2.2V466c2.5.5 5.1 1 7.6 1.5 2.7 11 9.1 2.7 14.6 2.6-1.4-1.9-2.8-3.8-4.3-5.6-.5-.9-1.1-1.8-1.6-2.7-.1 2.5-.3 5.1-.5 7.6m562.6 0c-2.1-.5-4.2-1.1-6.3-1.2-.7 0-1.4 1.4-2.1 2.2-2-1.4-4-2.8-6-4.1-3-2-6.1-5.6-9.1-5.5-2.7.1-7.7 4.7-7.5 6.7.8 7.3 1.5 18.4 5.6 20.8 9 5.4 10.5-5 12-12.7.1-.6 1.1-1 1.5-1.4 2.8 1.3 5.5 2.5 8.3 3.8-.1 0-.2.1-.2.1.1-.4.1-.8.2-1.2.5-1.5 1-2.9 1.5-4.4 2.6-.2 5.3-.4 10-.8-2.7-3.5-4.2-5.3-5.6-7.2-.5-.9-1.1-1.8-1.6-2.7-.4 2.5-.5 5.1-.7 7.6m-493.3-7.1-.1-.1c-2.2 1.3-5.9 4-6.3 3.5-7.7-10.2-14.5-2.4-21.5.9-4.6-3.9-9.2-7.9-13.9-11.9v27c.5 0 .9-.1 1.4-.1 1.4-5.6 2.8-11.2 4.3-16.9 1.1.3 2.2.7 3.4 1 .2 4.5.2 9 .8 13.4.1.8 2.8 1.2 4.3 1.7 1.2-.9 3.4-2.8 3.5-2.6 6.6 8.4 12.6 5 18.2-1.3 7.8 7.1 7.8 7 17.1 2.5 1.1-.5 3.1 1.5 4.6 2.3 1.1-3.7 2-7.5 3.3-11 .8-2 2.3-3.5 3.5-5.2 1.2 1.7 3.1 3.2 3.5 5.1.7 3.6.6 7.4.8 11.2 6.2-14.8 4.5-18.9-8.6-23.3.1-.3.4-.6.3-.9-.1-.6-.4-1.2-.7-1.8-.7-.1-1.4-.2-2.2-.3-.7 3.7-1.4 7.3-2.1 11l-11.1-5.7c-.9.4-1.7.9-2.5 1.5m348 10.7c2.1 2 4.1 4.5 6.5 5.7 3.3 1.7 7.4 4.1 10.5 3.1 2.4-.7 5.3-6.1 5.2-9.3-.1-3.8-3-10.5-5-10.7-4.6-.4-9.4 2.4-15.2 4.2-.3-.3-2.3-2-4.2-3.8-7.7-4.8-11.6.8-11.8 7.9-.1 4.1 3.9 10.6 7.3 12.1 5.9 2.6 8.2-2.3 6.7-9.2m325.9 0c2.5 3 5 6.1 7.6 9.3 1.3-5.7 2.7-11.4 4-17 1 .1 2 .3 3 .4 1 5.5 2 11.1 3 16.6 1.4-.4 2.7-.7 4.1-1.1-1.6-6.7-2.3-14.2-5.5-19.6-.9-1.6-9.2 2.5-15.6 4.4 1.1 1.3.1.2-.8-1-4-.7-9.2-3.5-11.5-1.6-2.5 2-3.6 8.9-2.6 12.8.7 2.9 5.8 6.2 8.7 5.9 2-.1 3.7-5.9 5.6-9.1m227.8 4.3c.6.4 1.2.9 1.9 1.1 4.2 1 8.3 2 12.5 3 .5-5.6 2.9-12.1 1.2-16.5-2.5-6.4-8.1-5.5-12.7-.8-.7.7-1.9.8-2.8 1.1-5.3-1.7-10.5-3.4-15.8-5.1-.3 1.4-.5 2.8-.8 4.1 2.5.7 5.1 1.4 8.3 2.2-3.4 5.3-6.2 9.8-9 14.2.7 1.3 1.3 2.7 2 4 5-2.4 10.1-4.9 15.2-7.3m-47.8 1.5c4.5 1.6 9 3.1 15.2 5.3-.6-9.8-.9-16-1.3-22.3-.8 0-1.5 0-2.3.1-1.3 5.9-2.6 11.9-3.8 17.8-1.2-.2-2.3-.4-3.5-.6-.4-4.3-.6-8.6-1.3-12.8-.2-1.3-2-2.2-3-3.3-.7 4.6-1.4 9.3-2 13.3-2.7-5.3-4.8-11.2-8.3-15.4-1.1-1.3-6.3 2-9.6 3.1.2.9.4 1.7.6 2.6 3.3-.3 6.5-.6 9.8-.9-.7 3.2-2.1 3.3-3 4.1-2.7 2.5-5.2 5.3-7.8 8 3.2 1.5 6.4 4.2 9.6 4.3 3.5.2 7.1-2 10.7-3.3m-971.1-6.5c1.5 0 4.3-.1 4.3.1 1.2 14.8 10.2 9.6 17.8 9.4-.2-2.3-.4-4.2-.5-6.2-1-16.7-3.5-18.1-16.6-10-.9.5-2.5-.4-3.7-.7-1.7-13.2-9.8-11.7-18.4-10.8v27.8c7.6.6 15.9 4.1 17.1-9.6m293.5 6.8c4.6 1.4 9.1 2.8 15.1 4.6-.5-9.6-.7-15.8-1-22-.8 0-1.6-.1-2.4-.1-1.3 6-2.6 12-3.8 18-1.2-.1-2.3-.3-3.5-.4-.4-4.2-.6-8.5-1.4-12.7-.3-1.4-2-2.5-3-3.7-.9 2.1-1.7 4.3-2.8 7-4.1-6.9-8.6-14.2-15.2-6.7-2.7 3-3.4 12.7-1.2 16.1 4.5 7.1 10.6 5.1 15-2.3.1-.2 2.7 1.5 4.2 2.2m627.7 3.3c-.9-4.3-1.3-8.8-2.8-12.8-1.3-3.4-3.5-7.8-6.2-8.7-2.4-.9-5.9 2.3-9 3.7l.9 2.1c2.9-.3 5.7-.6 8.6-.8-.6 2.6-1.9 3-2.8 4-2.5 2.8-4.9 5.7-7.3 8.6 3 1.4 5.9 3.4 9.1 4 3.1.6 6.4-.1 9.7-.2 3.7 2.3 7.4 4.5 11.1 6.8 1.3-4.1 3.2-8.1 3.8-12.4.7-4.7.2-9.6.2-16.7-5.1 1.5-11.1 1.3-12.9 4.3-2 3.4.1 9.8 0 14.8-.1 1.1-1.6 2.2-2.4 3.3m-551.8-19.2c-1.6 2-3.2 4-4.5 5.6-2.8-2.9-5.1-5.9-7.9-8-2.8-2.2-6.2-3.5-9.9-5.4v28.5c6.5-2 12.1-3.8 19.4-6 .1.1 2.5 2.2 5 4.3 3.2-.9 8.6-1.2 9-3 1.1-4.8 1.1-10.7-.6-15.1-.5-1.8-6.7-.7-10.5-.9M217.6 563c-.6-.7-1.1-1.3-1.7-2-1-4.9-.9-10.7-3.4-14.2-1.4-2-8.1-1.8-10.5.4-6.4 5.9-12.8 12.6-17.1 20.5-2.2 4.1-1.8 12.6.6 16.7 2 3.5 10.3 6.6 12.7 4.7 8.1-6.5 14.8-15.2 22.1-23.1-.9-.9-1.8-2-2.7-3m1461.3 4.6c2.5-41.8-8.7-50.5-42.5-50.7-37.1-.2-44.8 9.5-44.9 51.1 0 40.2 8.4 50 43.6 50.1 36.4 0 46.1-10 43.8-50.5M878.8 454.1c-7 5-12.6 9-18.5 13.3-3.1-4.5-7.9-12-14.4-4-2.6 3.2-3.1 13-.8 16.2 5.6 7.7 11.5 2.9 14.2-1.3 7 1.9 12.8 3.5 19.5 5.3zM389 460.6c-5 1-9.8.5-12.4 3-2.6 2.6-3 8.1-3.7 10.2-2.1-3.8-4.3-9.3-7.9-12.9-1.2-1.2-6 2.3-9.1 3.6.3.7.5 1.4.8 2 3.2-.2 6.4-.4 9.5-.5-1.1 3.2-2.7 3.1-3.6 4-2.5 2.3-4.8 5-7.2 7.5 3.1 1.7 6.2 4.5 9.4 4.9 7.3.7 14.7.2 21.6.2.8-6.7 1.5-12.6 2.6-22m328.2 6.9c-.9.5-1.8 1-2.7 1.4-2.5-2.1-4.9-5.7-7.5-6-3.9-.4-11.2 1.2-11.3 2.6-.4 5.3 0 12.5 2.9 15.8 2.5 3 9.1 4.3 10.2-5.4.7-6 4.3-7 7.2-.6.3.7.6 1.5 1.2 2.9zm603.4 4.8c-5.5-5.6-9-11.6-11.4-11.1-3.4.7-8.1 6-8.5 9.8-.3 3.6 3.8 10.3 6.8 11 2.7.7 6.7-4.7 13.1-9.7m-905.7.1c-5.5-5.7-8.9-11.6-11.4-11.2-3.4.6-8.1 5.9-8.5 9.7-.3 3.6 3.7 10.2 6.7 11.1 2.8.7 6.7-4.6 13.2-9.6m528.6-1.8c-5.1-4.7-9.2-10.4-11-9.6-3.8 1.8-8.1 6.6-8.8 10.9-.5 3 4.7 7.2 7.4 10.9 3.5-3.4 7-6.9 12.4-12.2m-41.3-.4c-5.2-4.5-9.5-10.1-11.2-9.2-3.7 1.9-8 6.8-8.6 11.1-.4 3 4.9 7.1 7.6 10.7 3.5-3.5 6.9-7.1 12.2-12.6m-260.5-10c-6 1.6-11.5 1.3-13.6 4.2-2.2 2.9-2.3 9.7-.9 13.6 1.1 2.9 6.1 3.9 10 6 1.6-8.5 2.7-14 4.5-23.8m-110.4 19.2c-1.2-.1-2.4-.1-3.6-.2l-2.7-17.4c-1.1.3-2.3.5-3.4.8.9 6.2.5 13.3 3.1 18.2 1.4 2.6 8.1 1.3 13.4 1.8-.4-8.5-.7-14.7-1-20.9-.8 0-1.6-.1-2.4-.1-1.1 5.9-2.2 11.9-3.4 17.8m742.2 2.8c10.4-17-2.2-20.7-10.2-27.2v26.8c.5-.1 1-.1 1.5-.2 1.3-5.6 2.6-11.1 4-16.7 1.1.4 2.2.7 3.2 1.1.5 5.3 1 10.8 1.5 16.2m-307.7 2.7c5.3-21.3 1.9-26.2-12.1-22.3v19.3h1.5c1.2-5.7 2.5-11.4 3.7-17.1 1.2.1 2.4.1 3.6.2.9 5.6 1.9 11.1 3.3 19.9m81.8-.5c1.5 0 3 0 4.5.1 2.3-4.3 6.8-8.9 6.2-12.7-.6-4.2-5.6-7.7-8.8-11.5-2.9 3.7-7.8 7.2-8 11.1-.3 4.1 3.9 8.7 6.1 13m210.5-17.2c.4-1.1.8-2.2 1.2-3.4-3.6-1-8.2-4.1-10.7-2.6-3 1.9-5.8 7.4-5.9 11.5-.1 3.2 3.5 8.3 6.4 9.4 2.7 1.1 6.6-2 10-3.2-4.3-2.4-7.9-1.8-11-2.9-.8-.3-.3-5.8-.4-8.9 3.5.1 7 .1 10.4.1m-227 17.3c3.4-11 6.2-20.2 9.1-29.5l-3-1.5c-2 5.4-3.5 11-6 16-4.7 9.4-4.9 9.3-.1 15m-509.7-30.1h-14.2c2 9.6 3.8 18.5 5.9 28.5 5.2-9.3-4-22.6 8.3-28.5M298.6 580.3c.6 0 1.2.1 1.8.1v-28.1c-.6 0-1.2-.1-1.8-.1z" class="st3"/><path d="M158.4 635c6.1.8 12.1 2.4 18.2 2.4 494.8.1 989.5.1 1484.3 0 6.1 0 12.1-1.6 18.2-2.4-3.8 2.5-7.4 5.6-11.5 7.2-2.9 1.2-6.4.3-9.7.3-492.8 0-985.5 0-1478.3-.3-7.1 0-14.1-4.7-21.2-7.2m1520.7-235c-6.1-.8-12.1-2.4-18.2-2.4-494.8-.1-989.5-.1-1484.3 0-6.1 0-12.1 1.6-18.2 2.4 3.8-2.5 7.4-5.6 11.5-7.2 2.9-1.2 6.4-.3 9.7-.3 492.8 0 985.5 0 1478.3.3 7 0 14.1 4.7 21.2 7.2" class="st2"/><path d="M411.6 278c-5.6-24.5-10.3-45.2-15-66 .9-.9 1.9-1.7 2.8-2.6 2.2 2.7 5.6 4.9 6.4 8 3.3 12.6 5.7 25.4 10.8 38.2 2.8-12.5 5.4-25.2 8.5-37.6.7-2.9 3.3-5.2 5.1-7.8 2.1 2.7 5.3 5 6.1 8.1 3.2 12.2 5.6 24.7 10.6 37.2 2-8.8 3.5-17.8 6.2-26.4 2.2-6.9-.7-18.6 12.3-19.5-4.9 21.2-9 40.4-13.9 59.4-.8 3.2-5.3 5.1-9.4 8.7-3.9-16.6-7-30.1-10.5-44.8-9.9 13-2.4 35.2-20 45.1m186.5-30.3c-1.8 6.9-3.3 14.1-5.6 20.7-1 2.7-4 6.2-6.1 6.2s-5.4-3.4-6.2-6.1c-3.9-12.9-7.2-26.1-10.7-39.2 4.2-1.1 4.2-1.1 17.4 32.2 1.9-7.3 2.7-12.8 4.7-17.7 2.3-5.7 5.5-10.9 8.3-16.4 2.6 5.3 5.6 10.3 7.6 15.9 1.9 5.1 2.8 10.6 4.3 16.8 8.9-9.9 3.1-27.9 19.1-34.9-4.5 17-8 30.7-12 44.3-.7 2.4-4 5.6-5.6 5.2-2.4-.5-5.4-3.2-6.4-5.9-2.4-6.8-3.9-14-5.8-21-1-.1-2-.1-3-.1" class="st4"/><path d="M826.5 253.1c3.9 1.5 6.4 1.9 8.3 3.4 1.3 1 1.3 4.8 2.4 5.3 5.8 2.2 11.7 4.6 17.7 5 1.8.1 6.1-7.7 5.6-8.2-3.2-4.3-7.1-8.3-11.4-11.2-3.6-2.5-8.8-2.2-12-5.1-3.9-3.5-8.8-9-8.8-13.7 0-5.5 3.6-12.9 7.7-16.1 12.6-9.7 27.7-1 31.5 19.8-4.1-3-6.5-4.9-9-6.5-4.4-2.8-8.7-7.1-13.4-7.7-2.7-.3-7.2 4.7-8.6 8.5-.7 1.8 3.5 7.3 6.4 9.2 4.3 2.7 9.6 3.4 14.3 5.5 7.3 3.2 12.4 8.6 11.6 18.6-.8 9.9-6.6 14.1-14.1 16.3-13 4-23.8-3.7-28.2-23.1" style="fill:#e5e8e4"/><path d="M470.5 243.3c.8-14.4 8.1-18.5 17.5-17.4 9.7 1.1 14.2 8.2 14.4 19.6.2 9.4 1.3 18.8 1.9 27.5-6.8 1.1-15.1 4-23.1 3.1-4.9-.5-11.6-5.9-13.3-11-2.7-8 2.6-13.9 9.8-16 5.5-1.6 11.1-2.9 17-4.5-.3-9.9-5.8-11.6-11.8-9.6-4.4 1.4-8.2 5.4-12.4 8.3m24.3 9.3c-5.1 1-9.6 1-13.3 2.9-2.6 1.4-4 5.5-5.9 8.4 2.9 1.7 5.9 5.1 8.6 4.8 7.1-.8 11.6-5.5 10.6-16.1" class="st4"/><path d="M1035.9 259.8c-4.7 15.5-13.6 19.8-23.7 15-9.9-4.7-14.6-20.4-10.3-34.4 3.3-10.7 12.2-16.7 21.3-14.4 11.1 2.8 15.9 12.3 13.8 28.5h-27.8c.4 10 4.7 14.7 11.9 13.1 5.2-1.1 9.9-5.1 14.8-7.8m-7.1-13.2c.8-1.4 1.6-2.7 2.4-4.1-3.8-2.8-7.4-7.3-11.5-8-6.6-1.2-10.4 3.6-10.6 12.1zm123.9 7.9H1122c3.7 5.6 5.5 11.3 8.4 12.1 3.8 1.1 8.6-1.2 12.8-2.5 2.8-.9 5.4-2.6 10-4.8-6.1 15.8-14.7 20.3-25.2 15.8-9.8-4.2-14.7-18.3-11.4-32.8 2.6-11.2 11.9-18.5 21.2-16.5 11 2.4 15.9 11.4 14.9 28.7m-8.3-8.1c.6-1.1 1.3-2.3 1.9-3.4-3.7-3-7.1-7.6-11.1-8.5-6.5-1.4-10.7 3.1-11.1 11.9z" class="st6"/><path d="M929.5 254.4h-30.8c3.7 5.7 5.3 11.1 8.2 12.2 3.5 1.4 8.1-.3 12.1-1.6 3-1 5.7-3.4 11.1-6.9-6.1 16.7-13.7 21.1-24.3 17.4-10.4-3.7-15.8-17-13-31.7 2.2-11.6 10.9-19.4 20.3-18.2 11.3 1.3 16.9 10.7 16.4 28.8m-9.3-8.1c1-1 1.9-2.1 2.9-3.1-3.6-3-7-7.6-11-8.5-6.5-1.5-10.6 2.9-11.2 11.7 6.8-.1 13.1-.1 19.3-.1m430.8 8h-28.1c-.4 10.4 4.1 14.9 11.6 13.3 5.1-1.1 9.8-5 16.7-8.8-5.6 15.9-13.2 20.4-23.8 16.7-10.4-3.7-15.9-16.8-13.1-31.6 2.1-11.6 10.8-19.5 20.2-18.4 11.1 1.3 16.8 10.6 16.5 28.8m-29.9-11.8c.8 1.2 1.5 2.3 2.3 3.5h19.6l1.5-3.9c-3.9-2.6-7.9-7.4-11.8-7.3s-7.8 4.9-11.6 7.7" style="fill:#dcdfdc"/><path d="M754.9 258.8c-5.5 16-13.1 20.4-23.8 16.7-10.2-3.6-15.3-15.4-13.1-30.2 1.9-12.6 10.2-20.8 20-19.8 11 1.2 16.7 10 17.1 28.2h-28.9c.1 10.8 4.3 15.6 12 14 5.2-1.2 9.8-5.1 16.7-8.9m-8.4-12.4c.6-1.1 1.2-2.3 1.8-3.4-3.8-2.9-7.3-7.6-11.4-8.4-6.6-1.4-10.4 3.5-10.9 11.8zm490.7 7.9h-28.9c.4 9.5 4.2 14.7 11.4 13.3 5.2-1.1 10-5.1 16.2-8.5-2.7 13.6-10 19.1-19.8 17.2-11.5-2.3-17.7-13.4-16.1-29 1.4-13.6 9.3-22.5 19.5-22 11.4.6 17.7 10.3 17.7 29m-8.5-8c.6-1.2 1.2-2.3 1.8-3.5-3.8-2.9-7.4-7.5-11.5-8.3-6.7-1.3-10.4 3.6-10.8 11.8z" style="fill:#dde0dd"/><path d="M542.1 243.1c-2.3-1.5-4.6-3.3-7-4.5-3.1-1.6-6.4-3.7-9.6-3.8-2.1 0-4.1 3.3-6.2 5.2 1.7 2.3 3 5.7 5.2 6.7 4.6 2.2 9.9 2.4 14.4 4.7 7.6 3.9 8.6 14.1 2.5 20.4-9.9 10.4-26.8 4.4-31.3-13.9 4.2 2.6 6.8 4.2 9.5 5.7 3.1 1.6 6.3 4.1 9.5 4.2 2.6.1 5.2-2.9 7.8-4.5-2-2.3-3.8-5.2-6.2-6.6-3.2-1.8-7.6-1.2-10.2-3.5-3.8-3.5-8.9-8.9-8.7-13.2.2-4.5 5.3-10.6 9.5-12.7 10.3-5.3 18.2.1 20.8 15.8" class="st6"/><path d="M1079.1 228.7v46.9c-9.8-6.3-22.9 9.1-29-5.1-4.4-10.3-3.1-24-3.7-36.2-.1-2.4 2.6-5.1 4-7.6 1 .7 2.1 1.3 3.1 2 0 9.5-.9 19.1.4 28.3.6 4.4 5.4 8 8.3 12 3.3-3.7 8.4-6.9 9.4-11.3 1.6-7.4.2-15.7.9-23.5.2-2.6 2.7-5 4.2-7.5.8.6 1.6 1.3 2.4 2m224.1 47.2c-1.5-2.2-4.2-4.2-4.4-6.5-.6-7-.2-14.1-.2-21.2 0-7-.7-14.5-8.4-14.6-8.1-.1-10.9 6.5-10.8 15.2.1 8.3 0 16.6 0 24.9l-2.7 2.1c-1.5-2.4-4.3-4.8-4.4-7.3-.4-13.3-.2-26.6-.2-38.7 6.2-1.5 11.9-3 17.6-4.1 8.3-1.6 15.3 5.1 15.8 15.8s.1 21.5.1 32.3z" style="fill:#eaece0"/><path d="M1385.9 274.5c0-9.1.9-18.3-.3-27.1-.7-5-4.3-12.6-7.6-13.4-7.1-1.6-10.8 5.1-11 13.2-.2 7.5.3 15-.3 22.4-.2 2.3-3.1 4.3-6.6 8.9v-51c12.4 4.4 33.6-13.3 33 18.9-.2 9.5 4.2 21.3-3.2 29.1-1.4-.4-2.7-.7-4-1" class="st10"/><path d="M632.3 251.7c-.2-14.9 7.9-26 19.4-26.3 11-.3 19.3 10 19.6 24.5.3 15.7-7 26.2-18.6 26.8s-20.2-10-20.4-25m19-17.5c-9.2.8-10.9 8.4-10.7 17.4.1 8.6 2.1 16 11.1 16.3 9.8.3 11.8-8 11.8-16.8-.1-8.6-2-16.6-12.2-16.9" class="st6"/><path d="M960 210.7c2.1 1.6 5.5 2.9 6 5 1 4.2.3 8.9.3 13.7 19.6-7.6 26.3-2 26.4 21.3 0 6.2.4 12.5-.2 18.6-.3 2.4-3 4.5-4.6 6.7-.8-.7-1.7-1.4-2.5-2 0-8.6.1-17.3 0-25.9-.1-6.9-.6-14.4-8.3-14.6-8.1-.1-10.8 6.5-10.7 15.2.1 6.6.5 13.3-.3 19.8-.3 2.3-3.9 4.1-6 6.2-.1-21.3-.1-42.6-.1-64" class="st11"/><path d="M762.8 229.5c6.6-1.4 12.4-2.7 18.3-3.7 8.6-1.5 15.5 5.6 15.9 17.2.4 10.3.1 20.7-2.3 33-1.6-2.2-4.4-4.2-4.6-6.5-.6-7.4.8-15.2-.6-22.3-1-5-4.7-12.5-8-13.1-7.1-1.4-10.7 5.1-10.6 13.5 0 6.6.5 13.4-.3 19.9-.4 3.2-3.2 6-4.9 9.1-1-.6-2-1.2-3-1.7.1-15.5.1-30.7.1-45.4" class="st12"/><path d="M1694.1 617.7c.7-7 2.1-13.9 2.1-20.9.2-52.8.2-105.7 0-158.5 0-7-1.4-13.9-2.1-20.9 2.2 5.6 6.2 11.2 6.2 16.8.5 55.6.5 111.1 0 166.7 0 5.6-4 11.2-6.2 16.8M143.4 417.3c-.7 7-2.1 13.9-2.1 20.9-.2 52.8-.2 105.7 0 158.5 0 7 1.4 13.9 2.1 20.9-2.2-5.6-6.2-11.2-6.2-16.8-.5-55.6-.5-111.1 0-166.7 0-5.6 4-11.2 6.2-16.8" class="st2"/><path d="M1401.1 228.5c3.5-15.1 11-21.1 23.5-18.6 9.3 1.8 14 8.4 13.3 19.2-.2 3.5-1.6 7.3-3.4 10.1-3.9 6.2-8.2 11.9-12.7 17.5-.9 1.1-3.3.6-7.7-1.7 3.4-5.4 7-10.7 10.1-16.3 2.3-4.2 4.9-8.8 5.1-13.4.1-2.4-4.9-7.3-7.3-7.1-4.1.4-8.2 3.5-11.9 6.2-2.5 1.8-4.4 4.9-6.6 7.4-.7-1.2-1.5-2.2-2.4-3.3" class="st4"/><path d="M1087.6 229.7c2-1.9 4.3-3.4 5.9-5.7 1.9-2.6 3.1-5.8 4.7-8.7 1.4 3.4 2.7 6.7 4.6 11.5 1.8.3 5.2.8 8.6 1.3.3 1.1.7 2.2 1 3.3-3.4 1.6-6.8 3.1-10.9 5v28.8c4.1 2.3 7.6 4.2 11 6-16.4 5.6-18.5 3.4-19-14.5-.3-8.7-1.9-17.4-2.9-26.2-1-.1-2-.5-3-.8" class="st11"/><path d="M1292.7 914.9h-18.4c-2.8 9.5-10.6 14.6-14.8 6.9-3.5-6.2-4.3-14.4-6.3-21.7l.1-.2c2.6-1.2 5.3-3.6 7.7-3.2 4.4.7 8.6 3.2 12.9 4.6 2.1.7 4.5.6 6.7.9 0-.4 0-.8-.1-1.2-.1-.3-.5-.5-1.6.7 1.4 1.2 2.8 2.3 4.2 3.5-1.2.3-2.5.6-4.3 1.1 1.3.7 2.1 1.1 2.9 1.5 2.3 1.7 4.5 3.6 6.8 5.1 1.3.9 2.8 1.3 4.2 2" class="st13"/><path d="M690.7 274.9c-5.4 1.3-11.1.2-11-11.3 0-15.4-.2-30.8.2-46.2.1-2.4 2.3-4.7 3.6-7.1 1.2 2.5 3.3 4.9 3.4 7.4.4 10-.3 20 .3 29.9.4 8.5 2.1 16.7 3.5 27.3" class="st10"/><path d="M1244.9 273.6v-45.3c5.5-.3 10.6-.9 15.6-.7 1.9.1 3.8 2.1 5.7 3.2-1.4 1.4-2.7 3.9-4.1 4-8 .5-9.1 6.6-9.1 13.8 0 6.2.5 12.6-.2 18.7-.4 3.2-3.1 6.1-4.8 9.1-1.1-.9-2.1-1.9-3.1-2.8" class="st12"/><path d="M1199.7 272.5c-11.4 3.7-17.5 3.3-17.8-7.3-.5-16.5-.2-33.1 0-49.6 0-2 1.9-4 2.9-6 1.1.3 2.3.5 3.4.8 0 11.2-.5 22.4.2 33.6.5 10.1-5.6 22.8 11.3 28.5M706 211.1c0 11.9-.1 23.9 0 35.8.1 9.3-3 20 8.5 24.9-10.6 4.9-14.6 2.9-14.8-7.1-.4-16.1-.2-32.3 0-48.4 0-2.3 1.9-4.6 3-6.8 1.1.5 2.2 1.1 3.3 1.6" style="fill:#d7e8f5"/><path d="M1214 912.5c-10 2.5-19.8 9.1-30.4 2.4l-.1.6c3.6-4.4 7.1-8.9 11.3-14.1-3.1-1-5.7-1.8-8.3-2.7.1-1.1.2-2.1.4-3.2 6.4.7 12.7 1.4 17.3 1.8.4 5.8-.1 10.5 1.3 14.2.7 1.5 5.7.7 8.5 1m-8.2-12.9c-1-.2-2-.4-3.1-.6-3.1 4-6.1 8.1-10.5 13.9 5.7.9 9.1 1.4 13.6 2.2z" class="st13"/><path d="M1051.1 889.9c1.4 3.9 3.3 7.6 4.1 11.7.6 2.9-.2 6.1-.5 10.5 6.6-4 11.2-6.8 15.8-9.6-.1-.6-.3-1.2-.4-1.8-3.1.4-6.2.8-10.2 1.4 4.3-7.7 8.5-9.3 14.2-3.7 4.5 4.5 9.3 10 1.5 14.7-4.1 2.5-10.3 1.1-15.5.4-2.4-.3-4.6-2.9-6.8-4.5-.8-6.3-1.5-12.7-2.2-19.1" class="st15"/><path d="M1051.1 889.9c.7 6.4 1.4 12.7 2.1 19.1-3-.8-6-1.7-9.6-2.7-1.3 4.1-2.4 7.6-4.2 13.3-.9-3.7-1.5-5.2-1.5-6.7-.1-7.8 0-15.7 0-25.3 5.1.9 9.2 1.6 13.2 2.3" class="st13"/><path d="M990 899.3c.4-6.1.7-11.1 1-16.1 1 0 1.9-.1 2.9-.1.5 5.3 1 10.6 1.5 16.3 4.8.5 9.4 1 14 1.4 0 1.1.1 2.1.1 3.2-4.6.6-9.2 1.1-14.2 1.7-.4 5.5-.8 10.8-1.3 16.1-.9 0-1.8.1-2.8.1-.5-5.3-1-10.6-1.5-16.3-4.8-.5-9.4-1-14-1.4 0-1.1-.1-2.1-.1-3.2 4.7-.5 9.2-1.1 14.4-1.7" class="st16"/><path d="M884.6 251.4c0 5.8.3 11.7-.2 17.5-.2 2.2-2.2 4.1-3.3 6.2-1.3-1.9-3.6-3.8-3.6-5.8-.3-12.1-.3-24.1 0-36.2.1-1.9 2.5-3.7 3.9-5.5 1.1 1.7 3 3.4 3.1 5.2.4 6.1.1 12.4.1 18.6" class="st10"/><path d="m1183.6 915.5.1-.6c-1.6-.9-3.8-1.3-4.5-2.7-1.8-3.7-3-7.9-4.4-11.9-1.2 4.3-2.4 8.5-3.7 12.8-.5 1.6-1.3 3.1-3.8 4.3v-19.9c14.4-3.8 14.4-3.8 16.3 18m-33.9 2-1.5-17.1c-1.1-.3-2.3-.6-3.4-.9-1.3 5.9-2.5 11.8-3.8 17.7-.6-.1-1.2-.3-1.9-.4v-28.5c14.8 20.9 14.8 20.9 10.6 29.2" class="st15"/><path d="M903.5 950v-95.1c.7 3.1 2.1 6.1 2.1 9.2.2 25.5.2 51.1 0 76.6 0 3.2-1.4 6.3-2.1 9.3" class="st2"/><path d="M960 210.7v64c-.7-4.9-2.2-9.8-2.1-14.7.4-16.4 1.4-32.8 2.1-49.3" style="fill:#128eca"/><path d="M1222.7 897.3c2-.9 4-1.7 5.9-2.6v16.9c1.6-6.7 3.4-13.9-5.9-14.4z" class="st13"/><path d="M1214.1 912.4c11.4 1.4 7-9.1 8.6-15.1v-.2c-1.7 4.4-3.3 8.7-5 13.3-.1.2-1.9 1.1-3.6 2-.1.1 0 0 0 0" class="st13"/><path d="M1253.1 900.1c-4.5-2.5-9-5.1-13.6-7.6 8.2-3.8 13-1.6 13.7 7.4.1 0-.1.2-.1.2M143.3 619.7c4.4 5.1 8.9 10.2 13.3 15.3-8.4-.5-12.9-5.6-13.3-15.3M1680.8 635c4.4-5.1 8.9-10.2 13.3-15.3-.4 9.7-4.8 14.8-13.3 15.3M156.6 400c-4.4 5.1-8.9 10.2-13.3 15.3.4-9.7 4.9-14.8 13.3-15.3m1537.5 15.3c-4.4-5.1-8.9-10.2-13.3-15.3 8.5.5 12.9 5.6 13.3 15.3" class="st2"/><path d="M1292.7 914.9c-1.4-.6-2.8-1.1-4.1-2-2.3-1.6-4.6-3.4-6.8-5.1 4.1-.2 8.3-.4 12.4-.7z" class="st18"/><path d="M1246.4 920.3c-2.7-1.5-5.4-3-8-4.5.6-1.5 1.1-3 1.7-4.5 2.8 1.4 5.6 2.8 8.3 4.3-.7 1.6-1.3 3.1-2 4.7" class="st2"/><path d="M1294.2 907.1c-4.1.2-8.3.4-12.4.7-.8-.4-1.6-.8-2.9-1.5 1.8-.5 3.1-.8 4.3-1.1 2.9-1 5.8-2 9.6-3.2.2.8.8 2.9 1.4 5.1M835.4 883c10.4-16.7 21.5-13.7 32-.5-.3 7.3-1 16.1-.9 24.9.1 8-2.6 11.6-9.6 10.8-1.4-.2-2.9 0-4.3 0-16.1.1-16.1.1-16.2-18.2-.1-5.9-.7-11.9-1-17m26.3 2.7h-20.4v26.5h20.4z" class="st16"/><path d="M1678.9 567.6c2.3 40.5-7.4 50.5-43.8 50.5-35.2 0-43.6-9.9-43.6-50.1 0-41.6 7.8-51.3 44.9-51.1 33.8.2 45 8.9 42.5 50.7m-37.6-3.3c-7.5.6-13.9 1-20.2 1.5 0 1.3.1 2.6.1 3.8h19.9c-2.3 5.1-3.7 8.2-5.1 11.4.6.4 1.2.9 1.8 1.3 4.5-4.8 9.1-9.6 14.3-15.1-5.8-5.8-10.2-10.3-14.6-14.7-.6.8-1.3 1.6-1.9 2.4 1.7 2.8 3.4 5.6 5.7 9.4" style="fill:#868686"/><path d="M878.8 454.1v29.4c-6.7-1.8-12.5-3.4-19.5-5.3-2.7 4.2-8.6 9-14.2 1.3-2.3-3.2-1.8-13 .8-16.2 6.4-8 11.2-.4 14.4 4 5.9-4.2 11.5-8.1 18.5-13.2" class="st20"/><path d="M389 460.6c-1.1 9.4-1.8 15.3-2.6 22-6.9 0-14.3.5-21.6-.2-3.2-.3-6.3-3.2-9.4-4.9 2.4-2.5 4.7-5.2 7.2-7.5.9-.9 2.5-.8 3.6-4-3.2.2-6.4.4-9.5.5-.3-.7-.5-1.4-.8-2 3.2-1.3 8-4.8 9.1-3.6 3.6 3.7 5.7 9.1 7.9 12.9.7-2.1 1.1-7.7 3.7-10.2s7.4-2 12.4-3" class="st21"/><path d="M803.6 472.5c-.5 1.5-1 2.9-1.5 4.4-.1.4-.2.8-.2 1.2.1 0 .2-.1.2-.1-2.7-1.2-5.4-2.5-8.3-3.8-.5.4-1.4.8-1.5 1.4-1.5 7.7-3 18.1-12 12.7-4-2.4-4.8-13.5-5.6-20.8-.2-2 4.7-6.6 7.5-6.7 3-.2 6.1 3.5 9.1 5.5 2 1.3 4 2.7 6 4.1 2.1.6 4.2 1.4 6.3 2.1" class="st22"/><path d="M217.6 563c.9 1 1.8 2.1 2.8 3.1-7.2 7.9-14 16.7-22.1 23.1-2.4 1.9-10.7-1.2-12.7-4.7-2.4-4.1-2.9-12.7-.6-16.7 4.3-7.9 10.7-14.6 17.1-20.5 2.3-2.1 9-2.4 10.5-.4 2.5 3.4 2.4 9.3 3.4 14.2-.5.2-.8.6-1 1.2-2.2.9-4.3 1.9-6.5 2.8.7-4.7 1.4-9.5 2.1-14.2-3 1.2-6.1 2.3-9.1 3.5-.7.8-1.5 1.7-2.2 2.5s-1.4 1.7-2.2 2.5c-2.9 3.4-5.7 6.8-8.6 10.2l1.8 14.1c3.3-.2 6.6-.4 10-.6l6.6-7.5c2.8-3.3 5.5-6.6 8.3-9.9z" class="st23"/><path d="M284.6 466.6c7-3.3 13.9-11.1 21.5-.9.4.5 4.1-2.3 6.3-3.5l.6 3.3 1.2 12.3c2.8-.9 6.3-.9 8.3-2.8 1.9-1.9 2.3-5.8 3.3-8.8l.1.2c.7-3.7 1.4-7.3 2.1-11v26.3c-1.6-.8-3.5-2.8-4.6-2.3-9.3 4.5-9.2 4.7-17.1-2.5-5.6 6.2-11.6 9.6-18.2 1.3-.2-.2-2.3 1.7-3.5 2.6.1-4.7 0-9.5 0-14.2m12.8 16.4c2-6.2 4-9.4 3.7-12.3-.2-2-3.5-3.6-5.5-5.4-1.3 2.6-3.7 5.1-3.6 7.6 0 2.4 2.5 4.8 5.4 10.1" class="st22"/><path d="M566.9 482.2c-2.4-2.1-4.9-4.2-5-4.3-7.3 2.3-12.9 4-19.4 6v-28.5c3.7 2 7 3.3 9.9 5.4 2.8 2.1 5.1 5.1 7.9 8 1.2-1.6 2.9-3.6 4.5-5.6.7 6.3 1.4 12.6 2.1 19" class="st24"/><path d="M717.2 467.5v10.7c-.6-1.4-.9-2.1-1.2-2.9-2.9-6.4-6.5-5.4-7.2.6-1.1 9.7-7.7 8.4-10.2 5.4-2.9-3.4-3.3-10.5-2.9-15.8.1-1.4 7.5-3 11.3-2.6 2.6.3 5 3.9 7.5 6 .9-.5 1.8-1 2.7-1.4" class="st25"/><path d="M1116.5 482.4c.8-1.1 2.3-2.2 2.3-3.3.1-5.1-2-11.4 0-14.8 1.7-3 7.7-2.8 12.9-4.3 0 7.1.5 12.1-.2 16.7-.6 4.3-2.5 8.3-3.8 12.4-3.7-2.3-7.4-4.5-11.1-6.8z" class="st26"/><path d="M488.8 479.1c-1.5-.8-4.2-2.5-4.3-2.2-4.4 7.4-10.5 9.4-15 2.3-2.2-3.4-1.4-13.1 1.2-16.1 6.6-7.5 11.1-.2 15.2 6.7 1.1-2.7 2-4.8 2.8-7 .1 5.5.1 10.9.1 16.3" class="st22"/><path d="M196.6 465c1.3.3 2.9 1.2 3.7.7 13.1-8.2 15.6-6.7 16.6 10 .1 2 .3 3.9.5 6.2-7.6.2-16.6 5.4-17.8-9.4 0-.2-2.8-.1-4.3-.1l.2.2c.4-2.6.7-5.1 1.1-7.6m14.5 3.5c-.4-1.2-.7-2.4-1.1-3.6-3.3 1.4-6.5 2.8-9.8 4.1.3.9.6 1.8.9 2.8 3.3-1.1 6.6-2.2 10-3.3m955.3 10.3c-3.6 1.2-7.2 3.5-10.7 3.4-3.2-.1-6.4-2.8-9.6-4.3 2.6-2.7 5.1-5.5 7.8-8 .9-.8 2.2-.9 3-4.1-3.3.3-6.5.6-9.8.9-.2-.9-.4-1.7-.6-2.6 3.3-1.2 8.5-4.4 9.6-3.1 3.6 4.2 5.6 10 8.3 15.4.6-4 1.3-8.6 2-13.3z" class="st21"/><path d="M1214.2 465.1c1-.4 2.2-.4 2.8-1.1 4.6-4.7 10.2-5.6 12.7.8 1.7 4.4-.6 10.9-1.2 16.5-4.2-1-8.3-1.9-12.5-3-.7-.2-1.2-.7-1.9-1.1v.1-12.5zm106.4 7.2c-6.4 5.1-10.3 10.4-13.1 9.7-3-.8-7.1-7.4-6.8-11 .3-3.8 5.1-9.1 8.5-9.8 2.4-.5 5.8 5.4 11.4 11.1" class="st25"/><path d="M986.2 465c1 1.2 1.9 2.3.8 1 6.4-1.9 14.7-6 15.6-4.4 3.2 5.5 3.9 12.9 5.5 19.6-1.4.4-2.7.7-4.1 1.1-1-5.5-2-11.1-3-16.6-1-.1-2-.3-3-.4-1.3 5.7-2.6 11.3-4 17-2.6-3.2-5.1-6.3-7.6-9.3-.1-2.7-.1-5.4-.2-8" class="st23"/><path d="M414.9 472.4c-6.4 5-10.4 10.4-13.1 9.6-3-.8-7-7.5-6.7-11.1.3-3.8 5.1-9.1 8.5-9.7 2.4-.5 5.8 5.5 11.3 11.2" class="st25"/><path d="M943.5 470.6c-5.4 5.3-8.9 8.8-12.4 12.2-2.7-3.7-7.9-7.9-7.4-10.9.7-4.3 5-9.1 8.8-10.9 1.8-.8 5.9 4.9 11 9.6m-41.3-.4c-5.3 5.5-8.8 9-12.2 12.6-2.7-3.6-8-7.7-7.6-10.7.6-4.3 4.8-9.2 8.6-11.1 1.8-.9 6 4.7 11.2 9.2" class="st24"/><path d="M1116.7 482.2c-3.2.1-6.5.9-9.7.2-3.1-.6-6.1-2.6-9.1-4 2.4-2.9 4.8-5.8 7.3-8.6.9-.9 2.1-1.4 2.8-4-2.9.3-5.7.6-8.6.8l-.9-2.1c3-1.4 6.5-4.5 9-3.7 2.6.9 4.8 5.3 6.2 8.7 1.5 4 1.9 8.5 2.8 12.8 0 .1.2-.1.2-.1" class="st21"/><path d="M196.6 465s0-.1 0 0c-4.7-2.2-9.4-4.3-14.1-6.4v18.3c4.3-1.4 8.7-2.8 13-4.2l-.2-.2c-1.3 13.6-9.6 10.2-17.2 9.7v-27.8c8.7-1.2 16.8-2.6 18.5 10.6" class="st26"/><path d="M986.2 465c.1 2.7.2 5.3.2 8-1.9 3.3-3.6 9-5.7 9.2-2.9.2-8-3-8.7-5.9-1-3.9.2-10.9 2.6-12.8 2.4-2 7.6.8 11.6 1.5" class="st24"/><path d="M660.5 473c1.5 6.8-.8 11.7-6.7 9.2-3.4-1.5-7.5-8-7.3-12.1.2-7 4.1-12.6 11.8-7.9.7 3.7 1.5 7.3 2.2 10.8" class="st25"/><path d="M641.7 460.2c-1.9 9.8-2.9 15.3-4.5 23.8-3.8-2.1-8.9-3.1-10-6-1.5-3.8-1.3-10.7.9-13.6 2.1-3 7.6-2.6 13.6-4.2" class="st21"/><path d="M531.3 479.4c1.1-5.9 2.3-11.9 3.4-17.8.8 0 1.6.1 2.4.1.3 6.2.6 12.4 1 20.9-5.3-.6-12 .7-13.4-1.8-2.6-4.9-2.3-12-3.1-18.2 1.1-.3 2.3-.5 3.4-.8l2.7 17.4c1.2.1 2.4.1 3.6.2" class="st20"/><path d="M660.5 473c-.8-3.6-1.5-7.1-2.3-10.7 1.9 1.7 3.9 3.5 4.2 3.8 5.8-1.8 10.6-4.7 15.2-4.2 2.1.2 4.9 6.9 5 10.7.1 3.2-2.8 8.6-5.2 9.3-3 .9-7.1-1.4-10.5-3.1-2.3-1.3-4.2-3.8-6.4-5.8m20.5-.6c-2.5-3.1-4.3-5.2-6-7.3-1.9 2.2-5.4 4.4-5.4 6.6 0 2.6 3 5.2 4.8 7.7 1.9-2 3.8-4 6.6-7" class="st21"/><path d="M1273.5 482.2c-.5-5.4-1-10.9-1.5-16.3-1.1-.4-2.2-.7-3.2-1.1-1.3 5.6-2.6 11.1-4 16.7-.5.1-1 .1-1.5.2v-26.8c8 6.6 20.5 10.3 10.2 27.3" class="st27"/><path d="M1214.2 477.3c-5.1 2.4-10.3 4.9-15.4 7.3-.7-1.3-1.3-2.7-2-4 2.8-4.5 5.7-8.9 9-14.2-3.2-.9-5.7-1.5-8.3-2.2.3-1.4.5-2.8.8-4.1 5.3 1.7 10.5 3.4 15.8 5.1l.1-.1c-2.9 3.5-5.7 7-8.6 10.5.5 1 1 2.1 1.5 3.1 2.4-.4 4.7-.8 7.1-1.1z" class="st22"/><path d="M965.8 484.9c-1.4-8.8-2.3-14.3-3.2-19.9-1.2-.1-2.4-.1-3.6-.2-1.2 5.7-2.5 11.4-3.7 17.1h-1.5v-19.3c13.9-3.9 17.3 1 12 22.3" class="st20"/><path d="M284.6 466.6c.1 4.8.1 9.6.2 14.3-1.5-.6-4.2-.9-4.3-1.7-.6-4.4-.6-8.9-.8-13.4-1.1-.3-2.2-.7-3.4-1-1.4 5.6-2.8 11.2-4.3 16.9-.5 0-.9.1-1.4.1v-27c4.7 3.9 9.3 7.8 14 11.8" class="st27"/><path d="M566.9 482.2c-.7-6.3-1.5-12.7-2.2-19 3.7.2 9.9-.8 10.6.9 1.7 4.4 1.7 10.3.6 15.1-.4 1.8-5.8 2-9 3" class="st25"/><path d="M1166.4 478.8V463c1.1 1.1 2.8 2 3 3.3.7 4.2.9 8.5 1.3 12.8 1.2.2 2.3.4 3.5.6 1.3-5.9 2.6-11.9 3.8-17.8.8 0 1.5 0 2.3-.1.4 6.2.7 12.5 1.3 22.3-6.3-2.1-10.7-3.7-15.2-5.3m-677.6.3v-16.3c1 1.2 2.7 2.3 3 3.7.8 4.2 1 8.4 1.4 12.7 1.2.1 2.3.3 3.5.4 1.3-6 2.6-12 3.8-18 .8 0 1.6.1 2.4.1.3 6.2.6 12.4 1 22-6-1.8-10.5-3.2-15.1-4.6" class="st20"/><path d="M1047.6 484.4c-2.2-4.3-6.4-8.9-6.1-13 .3-3.9 5.2-7.4 8-11.1 3.1 3.8 8.2 7.2 8.8 11.5.5 3.8-4 8.4-6.2 12.7-1.5 0-3-.1-4.5-.1m3.4-23.3c-3.2 5.2-5.8 7.6-5.7 9.7.3 3 2.6 5.7 4.1 8.5 1.8-2 4.9-3.8 5.2-6.2.4-2.6-1.6-5.8-3.6-12" class="st21"/><path d="M1258.1 467.2h-10.4c.1 3.1-.4 8.6.4 8.9 3.1 1.1 6.7.4 11 2.9-3.4 1.2-7.3 4.3-10 3.2-2.9-1.1-6.5-6.2-6.4-9.4.1-4.1 2.9-9.7 5.9-11.5 2.5-1.5 7 1.5 10.7 2.6z" class="st22"/><path d="M328.1 481.7v-26.3c.7.1 1.4.2 2.2.3l.3 2.7c13.1 4.5 14.8 8.5 8.6 23.3-.2-3.7-.1-7.6-.8-11.2-.4-1.9-2.3-3.4-3.5-5.1-1.2 1.7-2.8 3.3-3.5 5.2-1.3 3.6-2.2 7.4-3.3 11.1m703 2.8c-4.8-5.7-4.6-5.6.1-15 2.5-5 4-10.7 6-16l3 1.5c-2.9 9.3-5.7 18.5-9.1 29.5" class="st20"/><path d="M521.4 454.4c-12.3 5.9-3.1 19.1-8.3 28.5-2.1-10-3.9-18.9-5.9-28.5z" class="st26"/><path d="M235 467.5c-2.5-.5-5.1-1-7.6-1.5v16.1c-.3-.1-4.2-.8-4.4-2.2-1.2-7.4-1.6-15-2.5-25.8 7.3 6.2 11.5 9.8 15.8 13.4-.4 0-.8.1-1.3 0" class="st22"/><path d="M298.6 580.3v-28.1c.6 0 1.2.1 1.8.1v28.1c-.6 0-1.2-.1-1.8-.1" class="st23"/><path d="m325.9 466.4-.1-.2-12.9-.6-.6-3.3.1.1c.8-.5 1.6-1 2.4-1.6 3.8 1.8 7.5 3.7 11.1 5.6" class="st21"/><path d="m803.6 472.5-6.3-2.1c.7-.8 1.5-2.2 2.1-2.2 2.1.1 4.2.8 6.3 1.2.7-1.6 1.5-3.3 2.2-4.9 1.5 1.9 2.9 3.7 5.6 7.2-4.6.4-7.3.6-9.9.8m-568.6-5h1.3c2.3.6 4.6 1.3 6.9 1.9.7-1.6 1.5-3.3 2.2-4.9 1.4 1.9 2.8 3.8 4.3 5.6-5.6.1-12 8.4-14.7-2.6" class="st25"/><path d="M245.4 464.5c-.7 1.6-1.5 3.3-2.2 4.9.2-2.5.4-5.1.6-7.6.5.9 1.1 1.8 1.6 2.7m562.5 0c-.7 1.6-1.5 3.3-2.2 4.9.2-2.5.4-5.1.6-7.6.6.9 1.1 1.8 1.6 2.7" class="st28"/><path d="m330.6 458.4-.3-2.7c.2.6.5 1.2.7 1.8 0 .2-.3.6-.4.9m-15.7 2.3c-.8.5-1.6 1-2.4 1.6.8-.6 1.6-1.1 2.4-1.6" class="st22"/><path d="M494.8 252.6c1 10.5-3.5 15.3-10.6 16.1-2.7.3-5.7-3.1-8.6-4.8 1.9-2.9 3.4-7.1 5.9-8.4 3.7-1.9 8.2-1.9 13.3-2.9" class="st2"/><path d="M1028.8 246.6h-19.7c.2-8.5 4-13.3 10.6-12.1 4.1.7 7.7 5.2 11.5 8-.8 1.4-1.6 2.7-2.4 4.1m115.6-.2h-20.2c.4-8.8 4.5-13.3 11.1-11.9 4 .9 7.4 5.5 11.1 8.5-.7 1.1-1.4 2.3-2 3.4" class="st18"/><path d="M920.2 246.3h-19.3c.6-8.8 4.7-13.2 11.2-11.7 4 .9 7.4 5.6 11 8.5-.9 1.1-1.9 2.1-2.9 3.2m400.9-3.8c3.9-2.8 7.7-7.7 11.6-7.8s7.8 4.7 11.8 7.3l-1.5 3.9h-19.6c-.8-1-1.6-2.2-2.3-3.4" style="fill:#262930"/><path d="M746.5 246.4H726c.5-8.3 4.3-13.2 10.9-11.8 4.1.9 7.6 5.5 11.4 8.4-.6 1.1-1.2 2.3-1.8 3.4m482.2-.1h-20.5c.4-8.1 4.1-13.1 10.8-11.8 4.1.8 7.7 5.4 11.5 8.3-.6 1.2-1.2 2.4-1.8 3.5" class="st2"/><path d="M651.3 234.2c10.2.2 12.2 8.3 12.2 17s-2 17.1-11.8 16.8c-9-.3-10.9-7.7-11.1-16.3-.2-9.1 1.5-16.6 10.7-17.5" class="st28"/><path d="M1205.8 899.6V915c-4.4-.7-7.9-1.3-13.6-2.2 4.4-5.8 7.4-9.8 10.5-13.9 1 .3 2.1.5 3.1.7" class="st0"/><path d="M861.7 885.7v26.5h-20.4v-26.5z" class="st1"/><path d="M1641.3 564.3c-2.3-3.8-4-6.6-5.7-9.4.6-.8 1.3-1.6 1.9-2.4 4.4 4.5 8.8 8.9 14.6 14.7-5.2 5.5-9.8 10.3-14.3 15.1-.6-.4-1.2-.9-1.8-1.3 1.4-3.2 2.8-6.3 5.1-11.4h-19.9c0-1.3-.1-2.6-.1-3.8 6.3-.4 12.7-.9 20.2-1.5" class="st28"/><path d="M201.5 554.4c3-1.2 6.1-2.3 9.1-3.5-.7 4.7-1.4 9.4-2.1 14.2l.1-.1c-4.5 4.1-9.1 8.1-13.6 12.2-.4-.5-.8-1-1.2-1.4 1.3-2.7 2.6-5.5 4-8.2v.1c3.6-3.6 7.2-7.1 10.8-10.7-.5-.7-1.1-1.4-1.6-2.1-1.2.6-2.4 1.3-3.6 1.9-.8-.9-1.3-1.7-1.9-2.4" class="st2"/><path d="M215.2 565.7c-2.8 3.3-5.5 6.6-8.3 9.9-.7-.7-1.3-1.5-2-2.2l3.6-8.4-.1.1c2.2-.9 4.3-1.9 6.5-2.8.1 1.1.2 2.2.3 3.4m-26.7 3.9c2.9-3.4 5.7-6.8 8.6-10.2l2 2c-.5 2-1 4.1-1.5 6.1v-.1l-7.2 4.2c-.5-.6-1.2-1.3-1.9-2" class="st2"/><path d="m190.3 583.7-1.8-14.1c.7.7 1.3 1.4 2 2 .5 3.3.9 6.6 1.4 10-.6.7-1.1 1.4-1.6 2.1m16.5-8.1-6.6 7.5c-.6-.8-1.3-1.6-1.9-2.4 2.2-2.4 4.4-4.9 6.6-7.3.6.7 1.3 1.5 1.9 2.2" class="st2"/><path d="M200.3 583.1c-3.3.2-6.6.4-10 .6.5-.7 1-1.4 1.6-2.1 2.2-.3 4.3-.6 6.5-.9.6.8 1.2 1.6 1.9 2.4m-1-26.2c.7-.8 1.5-1.7 2.2-2.5.6.8 1.2 1.6 1.8 2.3-.7.8-1.4 1.5-2.1 2.3-.7-.7-1.3-1.4-1.9-2.1" class="st2"/><path d="M215.2 565.7c-.1-1.2-.2-2.3-.2-3.5.2-.5.5-.9 1-1.2.6.7 1.1 1.3 1.7 2-.9.9-1.7 1.8-2.5 2.7" class="st3"/><path d="M197.1 559.4c.7-.8 1.4-1.7 2.2-2.5l1.8 2.1c-.7.8-1.3 1.6-2 2.4zM297.4 483c-3-5.2-5.4-7.7-5.4-10.1 0-2.5 2.3-5.1 3.6-7.6 1.9 1.8 5.3 3.4 5.5 5.4.3 2.9-1.7 6.1-3.7 12.3" class="st2"/><path d="m313 465.5 12.9.6c-1 3-1.4 7-3.3 8.8-2 2-5.5 2-8.3 2.8-.5-4-.9-8.1-1.3-12.2m-117.5 7.1c-4.3 1.4-8.7 2.8-13 4.2v-18.3c4.7 2.1 9.4 4.3 14.1 6.4-.4 2.6-.7 5.1-1.1 7.7m15.6-4.1c-3.3 1.1-6.7 2.2-10 3.3-.3-.9-.6-1.8-.9-2.8 3.3-1.4 6.5-2.8 9.8-4.1.3 1.2.7 2.4 1.1 3.6m1003.1 8.9c-2.4.4-4.7.8-7.1 1.1-.5-1-1-2.1-1.5-3.1 2.9-3.5 5.7-7 8.6-10.5z" class="st3"/><path d="M182.5 458.5v18.3z" class="st28"/><path d="M681 472.4c-2.9 3.1-4.7 5.1-6.6 7.1-1.7-2.6-4.8-5.2-4.8-7.7 0-2.2 3.5-4.4 5.4-6.6 1.8 2 3.5 4.1 6 7.2m370-11.3c2 6.3 4 9.4 3.6 12.1-.3 2.3-3.4 4.1-5.2 6.2-1.5-2.8-3.8-5.6-4.1-8.5-.1-2.2 2.5-4.6 5.7-9.8" class="st2"/><path d="M198.3 580.7c-2.2.3-4.3.6-6.5.9-.5-3.3-.9-6.7-1.4-10l7.2-4.2c-1.3 2.7-2.6 5.5-4 8.2.4.5.8 1 1.2 1.4 4.5-4.1 9.1-8.1 13.6-12.2l-3.6 8.4c-2.1 2.6-4.3 5-6.5 7.5" class="st23"/><path d="M199.1 561.4c.7-.8 1.3-1.6 2-2.4s1.4-1.5 2.1-2.3c1.2-.6 2.4-1.3 3.6-1.9.5.7 1.1 1.4 1.6 2.1-3.6 3.6-7.2 7.1-10.8 10.7.5-2.1 1-4.1 1.5-6.2" class="st23"/></svg>