<?xml version="1.0" encoding="utf-8"?>
<!-- Generator: Adobe Illustrator 25.0.0, SVG Export Plug-In . SVG Version: 6.00 Build 0)  -->
<svg version="1.1" id="Ebene_1" xmlns="http://www.w3.org/2000/svg" xmlns:xlink="http://www.w3.org/1999/xlink" x="0px" y="0px"
	 viewBox="0 0 1920 1080" style="enable-background:new 0 0 1920 1080;" xml:space="preserve">
<style type="text/css">
	.st0{fill:#121212;}
	.st1{fill:#141414;}
	.st2{fill:#262626;}
	.st3{fill:#151415;}
	.st4{fill:#E2E8E2;}
	.st5{fill:#E5E8E4;}
	.st6{fill:#DFE2DF;}
	.st7{fill:#DCDFDC;}
	.st8{fill:#DDE0DD;}
	.st9{fill:#EAECE0;}
	.st10{fill:#DDEAEC;}
	.st11{fill:#EFEADC;}
	.st12{fill:#EEEBDF;}
	.st13{fill:#ABB4B0;}
	.st14{fill:#D7E8F5;}
	.st15{fill:#B8B19C;}
	.st16{fill:#C9C9C9;}
	.st17{fill:#128ECA;}
	.st18{fill:#312E2C;}
	.st19{fill:#868686;}
	.st20{fill:#838677;}
	.st21{fill:#888B86;}
	.st22{fill:#7C8481;}
	.st23{fill:#737373;}
	.st24{fill:#8D918C;}
	.st25{fill:#919590;}
	.st26{fill:#7D8B90;}
	.st27{fill:#9C8C6C;}
	.st28{fill:#1A191B;}
	.st29{fill:#262930;}
</style>
<g>
	<g>
		<path class="st0" d="M0,832.5C0,555,0,277.5,0,0c640,0,1280,0,1920,0c0,360,0,720,0,1080c-640,0-1280,0-1920,0
			c0-35.8,0-71.7,0-107.5c290.5,0,581,0,871.5-0.1c4.9,0,9.8-1.6,14.6-2.4c5.8-6.7,11.6-13.3,17.4-20c0.7-3.1,2.1-6.1,2.1-9.2
			c0.2-25.5,0.2-51.1,0-76.6c0-3.1-1.4-6.2-2.1-9.2c-5.8-6.6-11.6-13.3-17.4-19.9c-4.9-0.8-9.7-2.4-14.6-2.4
			C581,832.5,290.5,832.5,0,832.5z M1294.2,907.1c-0.6-2.2-1.2-4.3-1.4-5.2c-3.8,1.3-6.7,2.3-9.6,3.2c-1.4-1.2-2.8-2.3-4.2-3.5
			c1.1-1.1,1.5-0.9,1.6-0.7c0.1,0.3,0.1,0.8,0.1,1.2c-2.3-0.3-4.6-0.2-6.7-0.9c-4.4-1.4-8.5-3.9-12.9-4.6c-2.4-0.4-5.1,2-7.7,3.2
			c-0.7-9.1-5.5-11.3-13.7-7.4c4.5,2.5,9,5.1,13.6,7.6c2,7.3,2.8,15.5,6.3,21.7c4.3,7.7,12,2.7,14.8-6.9c6.9,0,12.7,0,18.4,0
			C1293.2,912.3,1293.7,909.7,1294.2,907.1z M1222.7,897.2c9.3,0.6,7.5,7.7,5.9,14.4c0-6,0-12,0-16.9c-2,0.9-3.9,1.7-5.9,2.6
			c-1.7,5.9,2.8,16.5-8.6,15.1c-2.9-0.2-7.9,0.6-8.4-0.9c-1.5-3.7-1-8.4-1.3-14.2c-4.6-0.5-11-1.2-17.3-1.8
			c-0.1,1.1-0.2,2.1-0.4,3.2c2.6,0.8,5.2,1.7,8.3,2.7c-4.2,5.2-7.8,9.7-11.3,14.1c-1.9-21.8-1.9-21.8-16.3-18c0,6.7,0,13.3,0,19.9
			c2.5-1.2,3.3-2.7,3.8-4.3c1.3-4.2,2.5-8.5,3.7-12.8c1.4,4,2.5,8.1,4.4,11.9c0.7,1.4,3,1.8,4.5,2.7c10.6,6.6,20.3,0.1,30.4-2.4
			c1.8-1,3.5-1.9,3.7-2C1219.4,905.9,1221.1,901.5,1222.7,897.2z M1053.2,909.1c2.3,1.6,4.4,4.2,6.8,4.5c5.2,0.6,11.3,2,15.5-0.4
			c7.9-4.7,3-10.2-1.5-14.7c-5.6-5.7-9.9-4-14.2,3.7c4.1-0.6,7.2-1,10.2-1.4c0.1,0.6,0.3,1.2,0.4,1.8c-4.6,2.8-9.2,5.6-15.8,9.6
			c0.3-4.4,1.1-7.7,0.5-10.5c-0.8-4-2.7-7.8-4.1-11.7c-4.1-0.7-8.2-1.4-13.3-2.3c0,9.6-0.1,17.4,0,25.3c0,1.5,0.6,2.9,1.5,6.7
			c1.8-5.7,2.9-9.1,4.2-13.3C1047.2,907.4,1050.2,908.2,1053.2,909.1z M960,210.7c-0.7,16.4-1.7,32.8-2.1,49.3
			c-0.1,4.9,1.3,9.8,2.1,14.7c2.1-2,5.7-3.8,6-6.2c0.8-6.5,0.4-13.2,0.3-19.8c-0.1-8.6,2.6-15.3,10.7-15.2c7.7,0.1,8.3,7.6,8.3,14.6
			c0.1,8.6,0,17.3,0,25.9c0.8,0.7,1.7,1.4,2.5,2c1.6-2.2,4.3-4.3,4.6-6.7c0.7-6.1,0.2-12.4,0.2-18.6c0-23.2-6.8-28.9-26.4-21.3
			c0-4.7,0.7-9.4-0.3-13.7C965.6,213.6,962.1,212.4,960,210.7z M143.4,417.3c-2.2,5.6-6.2,11.2-6.2,16.8
			c-0.5,55.6-0.5,111.1,0,166.7c0,5.6,4.1,11.2,6.2,16.8c0,0.7,0,1.4,0,2c0.4,9.7,4.9,14.8,13.3,15.3c0.6,0,1.2,0,1.8-0.1
			c7.1,2.5,14.1,7.2,21.2,7.2c492.8,0.3,985.5,0.3,1478.3,0.3c3.3,0,6.8,0.8,9.7-0.3c4.1-1.6,7.7-4.7,11.5-7.2c0.6,0,1.2,0,1.8,0.1
			c8.4-0.5,12.9-5.6,13.3-15.3c0-0.7,0-1.4,0-2c2.2-5.6,6.2-11.2,6.2-16.8c0.5-55.6,0.5-111.1,0-166.7c0-5.6-4.1-11.2-6.2-16.8
			c0-0.7,0-1.4,0-2c-0.4-9.7-4.9-14.8-13.3-15.3c-0.6,0-1.2,0-1.8,0.1c-7.1-2.5-14.1-7.2-21.2-7.2c-492.8-0.3-985.5-0.3-1478.3-0.3
			c-3.3,0-6.8-0.8-9.7,0.3c-4.1,1.6-7.7,4.7-11.5,7.2c-0.6,0-1.2,0-1.8-0.1c-8.4,0.5-12.9,5.6-13.3,15.3
			C143.3,416,143.4,416.6,143.4,417.3z M411.6,278c17.5-9.9,10.1-32.1,20-44.8c3.4,14.7,6.6,28.2,10.5,44.8c4.1-3.7,8.6-5.6,9.4-8.7
			c4.9-19,9.1-38.2,13.9-59.4c-13,0.9-10.1,12.6-12.3,19.5c-2.7,8.5-4.2,17.6-6.2,26.4c-5.1-12.6-7.5-25-10.6-37.2
			c-0.8-3.1-4-5.4-6.1-8.1c-1.7,2.6-4.3,4.9-5.1,7.8c-3.1,12.4-5.7,25-8.5,37.6c-5.1-12.8-7.6-25.7-10.8-38.2
			c-0.8-3.1-4.2-5.4-6.4-8c-0.9,0.9-1.9,1.7-2.8,2.6C401.4,232.7,406.1,253.5,411.6,278z M598.1,247.7c1,0,2,0.1,3,0.1
			c1.9,7,3.3,14.3,5.8,21c1,2.7,4,5.4,6.4,5.9c1.6,0.3,4.9-2.9,5.6-5.2c4-13.6,7.5-27.3,12-44.3c-16,7.1-10.1,25-19.1,34.9
			c-1.5-6.1-2.4-11.7-4.3-16.8c-2.1-5.5-5-10.6-7.6-15.9c-2.8,5.4-6.1,10.7-8.3,16.4c-2,4.9-2.8,10.5-4.7,17.7
			c-13.2-33.2-13.2-33.2-17.4-32.2c3.5,13.1,6.8,26.3,10.7,39.2c0.8,2.7,4.1,6.1,6.2,6.1c2.1,0,5.2-3.5,6.1-6.2
			C594.8,261.7,596.3,254.6,598.1,247.7z M826.5,253.1c4.4,19.3,15.1,27,28.2,23.1c7.5-2.2,13.4-6.4,14.1-16.3
			c0.8-10-4.3-15.4-11.6-18.6c-4.7-2.1-9.9-2.7-14.3-5.5c-2.9-1.8-7-7.3-6.4-9.2c1.4-3.7,5.8-8.8,8.6-8.5c4.7,0.6,9,4.8,13.4,7.7
			c2.5,1.6,4.9,3.5,9,6.5c-3.7-20.9-18.9-29.6-31.5-19.8c-4.1,3.1-7.7,10.6-7.7,16.1c0,4.7,4.9,10.2,8.8,13.7
			c3.2,2.9,8.4,2.7,12,5.1c4.3,2.9,8.1,6.9,11.4,11.2c0.4,0.6-3.8,8.4-5.6,8.2c-6-0.5-11.9-2.8-17.7-5c-1.2-0.5-1.2-4.2-2.4-5.3
			C832.9,255.1,830.4,254.7,826.5,253.1z M470.5,243.3c4.1-2.9,8-6.9,12.5-8.3c6-1.9,11.5-0.3,11.8,9.6c-5.8,1.5-11.5,2.8-17,4.5
			c-7.2,2.1-12.6,8-9.8,16c1.7,5.1,8.4,10.5,13.3,11c8,0.9,16.3-2,23.1-3.1c-0.6-8.7-1.7-18.1-1.9-27.5
			c-0.2-11.4-4.7-18.4-14.4-19.6C478.7,224.8,471.3,228.8,470.5,243.3z M1035.9,259.8c-4.9,2.7-9.7,6.7-14.8,7.8
			c-7.2,1.6-11.4-3-11.9-13.1c9.6,0,18.8,0,27.8,0c2.1-16.3-2.7-25.7-13.8-28.5c-9-2.3-18,3.7-21.3,14.4c-4.3,14,0.4,29.8,10.3,34.4
			C1022.3,279.6,1031.3,275.3,1035.9,259.8z M1152.7,254.5c1.1-17.3-3.9-26.3-14.9-28.6c-9.3-2-18.7,5.2-21.2,16.5
			c-3.3,14.5,1.6,28.6,11.4,32.8c10.5,4.5,19.1,0,25.2-15.8c-4.6,2.3-7.2,4-10,4.8c-4.2,1.3-9,3.7-12.8,2.5
			c-2.9-0.8-4.7-6.5-8.4-12.1C1134.1,254.5,1143.1,254.5,1152.7,254.5z M929.5,254.4c0.5-18.1-5.2-27.4-16.4-28.9
			c-9.4-1.2-18.1,6.6-20.3,18.2c-2.8,14.8,2.7,28,13,31.7c10.6,3.8,18.2-0.6,24.3-17.4c-5.4,3.4-8.1,5.9-11.1,6.9
			c-3.9,1.3-8.6,3-12.1,1.6c-2.9-1.2-4.6-6.5-8.2-12.2C910.9,254.4,919.9,254.4,929.5,254.4z M1351,254.3
			c0.3-18.2-5.3-27.5-16.5-28.8c-9.4-1.1-18.1,6.8-20.2,18.4c-2.7,14.8,2.7,28,13.1,31.6c10.6,3.7,18.2-0.7,23.8-16.7
			c-6.9,3.8-11.5,7.7-16.7,8.8c-7.6,1.6-12-2.9-11.6-13.3C1332.4,254.3,1341.3,254.3,1351,254.3z M754.9,258.8
			c-6.9,3.8-11.5,7.7-16.5,8.8c-7.7,1.7-11.9-3.2-12-14c9.9,0,19.4,0,28.9,0c-0.5-18.2-6.1-27-17.1-28.2c-9.8-1.1-18.1,7.2-20,19.8
			c-2.2,14.8,2.9,26.6,13.1,30.2C741.8,279.2,749.4,274.7,754.9,258.8z M1237.2,254.3c0-18.8-6.3-28.4-17.7-29
			c-10.2-0.5-18.1,8.4-19.5,22c-1.6,15.6,4.6,26.7,16.1,29c9.8,1.9,17.1-3.6,19.8-17.2c-6.1,3.4-10.9,7.5-16.2,8.5
			c-7.2,1.5-11-3.8-11.4-13.3C1218,254.3,1227.2,254.3,1237.2,254.3z M542.1,243.1c-2.5-15.7-10.5-21.1-20.8-15.9
			c-4.2,2.1-9.3,8.2-9.5,12.7c-0.2,4.3,4.9,9.7,8.7,13.2c2.5,2.4,7,1.8,10.2,3.5c2.4,1.4,4.2,4.3,6.2,6.6c-2.6,1.6-5.2,4.6-7.8,4.5
			c-3.2-0.1-6.4-2.5-9.5-4.2c-2.7-1.4-5.2-3.1-9.5-5.7c4.5,18.3,21.4,24.3,31.3,13.9c6.1-6.4,5.1-16.5-2.5-20.4
			c-4.5-2.3-9.8-2.5-14.4-4.7c-2.2-1-3.5-4.4-5.2-6.7c2.1-1.8,4.2-5.2,6.2-5.2c3.2,0,6.5,2.2,9.6,3.8
			C537.5,239.8,539.8,241.6,542.1,243.1z M1079.1,228.7c-0.8-0.7-1.6-1.4-2.4-2c-1.5,2.5-4,4.9-4.2,7.5c-0.6,7.8,0.8,16-0.9,23.5
			c-1,4.4-6.1,7.6-9.4,11.3c-2.9-4-7.6-7.6-8.3-12c-1.3-9.2-0.4-18.9-0.4-28.3c-1-0.7-2.1-1.3-3.1-2c-1.4,2.5-4.2,5.2-4,7.6
			c0.6,12.2-0.7,25.9,3.7,36.2c6.1,14.2,19.2-1.1,29,5.1C1079.1,259.1,1079.1,243.9,1079.1,228.7z M1303.2,275.9
			c0.8-0.7,1.6-1.3,2.4-2c0-10.8,0.4-21.6-0.1-32.3c-0.5-10.7-7.5-17.4-15.8-15.8c-5.7,1.1-11.3,2.6-17.6,4.1
			c0,12.1-0.2,25.4,0.2,38.7c0.1,2.5,2.9,4.9,4.4,7.3c0.9-0.7,1.8-1.4,2.7-2.1c0-8.3,0.1-16.6,0-24.9c-0.1-8.7,2.7-15.3,10.8-15.2
			c7.7,0.1,8.4,7.6,8.4,14.6c0,7.1-0.4,14.2,0.2,21.2C1299,271.7,1301.7,273.7,1303.2,275.9z M1385.9,274.5c1.3,0.3,2.6,0.6,3.9,0.9
			c7.4-7.8,3-19.6,3.2-29.1c0.6-32.1-20.6-14.5-33-18.9c0,16.1,0,31.3,0,51c3.5-4.6,6.4-6.6,6.6-8.9c0.6-7.4,0.1-14.9,0.3-22.4
			c0.3-8.1,3.9-14.8,11-13.2c3.3,0.7,6.9,8.4,7.6,13.4C1386.8,256.2,1385.9,265.4,1385.9,274.5z M632.3,251.7
			c0.2,15,8.8,25.6,20.4,25c11.6-0.6,18.9-11.1,18.6-26.8c-0.3-14.5-8.5-24.9-19.6-24.5C640.2,225.7,632.1,236.8,632.3,251.7z
			 M762.8,229.5c0,14.7,0,29.9,0,45.2c1,0.6,2,1.2,3,1.7c1.7-3,4.5-5.8,4.9-9.1c0.8-6.5,0.3-13.3,0.3-19.9c0-8.3,3.5-14.8,10.6-13.5
			c3.3,0.6,7.1,8.1,8,13.1c1.4,7.1,0,14.9,0.6,22.3c0.2,2.3,3,4.3,4.6,6.5c2.4-12.3,2.7-22.7,2.3-33c-0.4-11.5-7.4-18.7-15.9-17.2
			C775.2,226.8,769.4,228.1,762.8,229.5z M1401.1,228.5c0.8,1.1,1.7,2.1,2.5,3.2c2.2-2.5,4-5.5,6.6-7.4c3.7-2.7,7.8-5.8,11.9-6.2
			c2.4-0.2,7.4,4.7,7.3,7.1c-0.2,4.6-2.9,9.2-5.1,13.4c-3.1,5.7-6.7,10.9-10.1,16.3c4.3,2.3,6.8,2.8,7.7,1.7
			c4.5-5.6,8.8-11.4,12.7-17.5c1.8-2.8,3.2-6.6,3.4-10.1c0.6-10.8-4.1-17.4-13.3-19.2C1412.1,207.4,1404.7,213.4,1401.1,228.5z
			 M1087.6,229.7c1,0.3,2,0.7,3,1c1,8.7,2.7,17.4,2.9,26.2c0.5,17.8,2.6,20.1,19,14.5c-3.5-1.9-6.9-3.8-11-6c0-9.4,0-19.6,0-28.8
			c4.1-1.9,7.5-3.4,10.9-5c-0.3-1.1-0.7-2.2-1-3.3c-3.4-0.5-6.8-1-8.6-1.3c-1.9-4.8-3.3-8.1-4.6-11.5c-1.5,2.9-2.8,6.1-4.7,8.7
			C1091.9,226.3,1089.6,227.8,1087.6,229.7z M690.7,274.9c-1.4-10.5-3.1-18.8-3.6-27.2c-0.6-9.9,0.1-20-0.3-29.9
			c-0.1-2.5-2.2-4.9-3.4-7.4c-1.2,2.4-3.5,4.7-3.6,7.1c-0.3,15.4-0.1,30.8-0.2,46.2C679.7,275.1,685.3,276.2,690.7,274.9z
			 M1244.9,273.6c1,0.9,2,1.9,3.1,2.8c1.7-3,4.4-5.9,4.8-9.1c0.8-6.1,0.2-12.4,0.2-18.7c0-7.2,1.1-13.3,9.1-13.8
			c1.4-0.1,2.7-2.6,4.1-4c-1.9-1.1-3.8-3.1-5.7-3.2c-5-0.2-10.1,0.4-15.6,0.7C1244.9,243.1,1244.9,258.4,1244.9,273.6z
			 M1199.7,272.5c-16.9-5.8-10.8-18.4-11.4-28.6c-0.7-11.1-0.2-22.4-0.2-33.6c-1.1-0.3-2.3-0.5-3.4-0.8c-1,2-2.8,4-2.9,6
			c-0.2,16.5-0.5,33.1,0,49.6C1182.2,275.9,1188.3,276.3,1199.7,272.5z M706,211.1c-1.1-0.6-2.2-1.1-3.3-1.7c-1,2.3-2.9,4.5-3,6.8
			c-0.3,16.1-0.5,32.3,0,48.4c0.3,10.1,4.2,12,14.8,7.1c-11.6-5-8.4-15.6-8.5-24.9C705.9,235,706,223.1,706,211.1z M990,899.3
			c-5.2,0.6-9.8,1.2-14.3,1.7c0,1.1,0.1,2.1,0.1,3.2c4.6,0.5,9.3,1,14,1.4c0.5,5.8,1,11.1,1.5,16.3c0.9,0,1.8-0.1,2.8-0.1
			c0.4-5.3,0.8-10.7,1.3-16.1c5-0.6,9.6-1.2,14.2-1.7c0-1.1-0.1-2.1-0.1-3.2c-4.6-0.5-9.3-1-14-1.4c-0.5-5.8-1-11.1-1.5-16.3
			c-1,0-1.9,0.1-2.9,0.1C990.7,888.2,990.4,893.2,990,899.3z M884.6,251.4c0-6.2,0.2-12.5-0.1-18.7c-0.1-1.8-2-3.4-3.1-5.2
			c-1.3,1.8-3.8,3.6-3.9,5.5c-0.4,12.1-0.4,24.1,0,36.2c0.1,2,2.4,3.9,3.6,5.8c1.2-2,3.2-4,3.3-6.2
			C885,263.1,884.6,257.2,884.6,251.4z M1149.7,917.5c4.3-8.4,4.3-8.4-10.6-29.2c0,10.2,0,19.4,0,28.5c0.6,0.1,1.2,0.3,1.9,0.4
			c1.3-5.9,2.5-11.8,3.8-17.7c1.1,0.3,2.3,0.6,3.4,0.9C1148.6,906.1,1149.1,911.8,1149.7,917.5z M1246.4,920.3
			c0.7-1.6,1.3-3.2,2-4.7c-2.8-1.4-5.6-2.8-8.3-4.3c-0.6,1.5-1.1,3-1.7,4.5C1241.1,917.3,1243.7,918.8,1246.4,920.3z"/>
		<path class="st1" d="M886.2,835c5.8,6.6,11.6,13.3,17.4,19.9c0,31.7,0,63.4,0,95.1c-5.8,6.7-11.6,13.3-17.4,20
			c-295.4,0-590.8,0-886.2,0c0-45,0-90,0-135C295.4,835,590.8,835,886.2,835z M835.4,883c0.3,5.1,0.9,11.1,0.9,17.1
			c0.1,18.2,0.1,18.2,16.2,18.2c1.4,0,2.9-0.1,4.3,0c7,0.8,9.7-2.8,9.6-10.8c-0.1-8.8,0.6-17.7,0.9-24.9
			C856.9,869.3,845.8,866.3,835.4,883z"/>
		<path class="st2" d="M886.2,835c-295.4,0-590.8,0-886.2,0c0-0.8,0-1.7,0-2.5c290.5,0,581,0,871.5,0.1
			C876.4,832.6,881.3,834.2,886.2,835z"/>
		<path class="st2" d="M0,970c295.4,0,590.8,0,886.2,0c-4.9,0.8-9.8,2.4-14.6,2.4c-290.5,0.1-581,0.1-871.5,0.1
			C0,971.7,0,970.8,0,970z"/>
		<path class="st3" d="M143.3,619.7c0-0.7,0-1.4,0-2c-0.7-7-2.1-13.9-2.1-20.9c-0.2-52.8-0.2-105.7,0-158.5c0-7,1.4-13.9,2.1-20.9
			c0-0.7,0-1.4,0-2c4.4-5.1,8.9-10.2,13.3-15.3c0.6,0,1.2,0,1.8,0.1c6.1-0.8,12.1-2.4,18.2-2.4c494.8-0.1,989.5-0.1,1484.3,0
			c6.1,0,12.1,1.6,18.2,2.4c0.6,0,1.2,0,1.8-0.1c4.4,5.1,8.9,10.2,13.3,15.3c0,0.7,0,1.4,0,2c0.7,7,2.1,13.9,2.1,20.9
			c0.2,52.8,0.2,105.7,0,158.5c0,7-1.4,13.9-2.1,20.9c0,0.7,0,1.4,0,2c-4.4,5.1-8.9,10.2-13.3,15.3c-0.6,0-1.2,0-1.8-0.1
			c-6.1,0.8-12.1,2.4-18.2,2.4c-494.8,0.1-989.5,0.1-1484.3,0c-6.1,0-12.1-1.6-18.2-2.4c-0.6,0-1.2,0-1.8,0.1
			C152.2,629.9,147.8,624.8,143.3,619.7z M243.2,469.4c-2.3-0.6-4.6-1.3-6.9-1.9c-4.2-3.6-8.5-7.2-15.8-13.4
			c0.9,10.8,1.2,18.4,2.5,25.8c0.2,1.4,4.1,2,4.4,2.2c0-6,0-11.1,0-16.1c2.5,0.5,5.1,1,7.6,1.5c2.7,11,9.1,2.7,14.6,2.6
			c-1.4-1.9-2.8-3.8-4.3-5.6c-0.5-0.9-1.1-1.8-1.6-2.7C243.6,464.3,243.4,466.9,243.2,469.4z M805.8,469.4c-2.1-0.5-4.2-1.1-6.3-1.2
			c-0.7,0-1.4,1.4-2.1,2.2c-2-1.4-4-2.8-6-4.1c-3-2-6.1-5.6-9.1-5.5c-2.7,0.1-7.7,4.7-7.5,6.7c0.8,7.3,1.5,18.4,5.6,20.8
			c9,5.4,10.5-5,12-12.7c0.1-0.6,1.1-1,1.5-1.4c2.8,1.3,5.5,2.5,8.3,3.8c-0.1,0-0.2,0.1-0.2,0.1c0.1-0.4,0.1-0.8,0.2-1.2
			c0.5-1.5,1-2.9,1.5-4.4c2.6-0.2,5.3-0.4,10-0.8c-2.7-3.5-4.2-5.3-5.6-7.2c-0.5-0.9-1.1-1.8-1.6-2.7
			C806.1,464.3,806,466.9,805.8,469.4z M312.5,462.3l-0.1-0.1c-2.2,1.3-5.9,4-6.3,3.5c-7.7-10.2-14.5-2.4-21.5,0.9
			c-4.6-3.9-9.2-7.9-13.9-11.9c0,9.4,0,18.2,0,27c0.5,0,0.9-0.1,1.4-0.1c1.4-5.6,2.8-11.2,4.3-16.9c1.1,0.3,2.2,0.7,3.4,1
			c0.2,4.5,0.2,9,0.8,13.4c0.1,0.8,2.8,1.2,4.3,1.7c1.2-0.9,3.4-2.8,3.5-2.6c6.6,8.4,12.6,5,18.2-1.3c7.8,7.1,7.8,7,17.1,2.5
			c1.1-0.5,3.1,1.5,4.6,2.3c1.1-3.7,2-7.5,3.3-11c0.8-2,2.3-3.5,3.5-5.2c1.2,1.7,3.1,3.2,3.5,5.1c0.7,3.6,0.6,7.4,0.8,11.2
			c6.2-14.8,4.5-18.9-8.6-23.3c0.1-0.3,0.4-0.6,0.3-0.9c-0.1-0.6-0.4-1.2-0.7-1.8c-0.7-0.1-1.4-0.2-2.2-0.3c-0.7,3.7-1.4,7.3-2.1,11
			c-3.7-1.9-7.4-3.8-11.1-5.7C314.1,461.2,313.3,461.7,312.5,462.3z M660.5,473c2.1,2,4.1,4.5,6.5,5.7c3.3,1.7,7.4,4.1,10.5,3.1
			c2.4-0.7,5.3-6.1,5.2-9.3c-0.1-3.8-3-10.5-5-10.7c-4.6-0.4-9.4,2.4-15.2,4.2c-0.3-0.3-2.3-2-4.2-3.8c-7.7-4.8-11.6,0.8-11.8,7.9
			c-0.1,4.1,3.9,10.6,7.3,12.1C659.7,484.8,662,479.9,660.5,473z M986.4,473c2.5,3,5,6.1,7.6,9.3c1.3-5.7,2.7-11.4,4-17
			c1,0.1,2,0.3,3,0.4c1,5.5,2,11.1,3,16.6c1.4-0.4,2.7-0.7,4.1-1.1c-1.6-6.7-2.3-14.2-5.5-19.6c-0.9-1.6-9.2,2.5-15.6,4.4
			c1.1,1.3,0.1,0.2-0.8-1c-4-0.7-9.2-3.5-11.5-1.6c-2.5,2-3.6,8.9-2.6,12.8c0.7,2.9,5.8,6.2,8.7,5.9
			C982.8,482,984.5,476.2,986.4,473z M1214.2,477.3c0.6,0.4,1.2,0.9,1.9,1.1c4.2,1,8.3,2,12.5,3c0.5-5.6,2.9-12.1,1.2-16.5
			c-2.5-6.4-8.1-5.5-12.7-0.8c-0.7,0.7-1.9,0.8-2.8,1.1c-5.3-1.7-10.5-3.4-15.8-5.1c-0.3,1.4-0.5,2.8-0.8,4.1
			c2.5,0.7,5.1,1.4,8.3,2.2c-3.4,5.3-6.2,9.8-9,14.2c0.7,1.3,1.3,2.7,2,4C1204,482.2,1209.1,479.7,1214.2,477.3z M1166.4,478.8
			c4.5,1.6,9,3.1,15.2,5.3c-0.6-9.8-0.9-16-1.3-22.3c-0.8,0-1.5,0-2.3,0.1c-1.3,5.9-2.6,11.9-3.8,17.8c-1.2-0.2-2.3-0.4-3.5-0.6
			c-0.4-4.3-0.6-8.6-1.3-12.8c-0.2-1.3-2-2.2-3-3.3c-0.7,4.6-1.4,9.3-2,13.3c-2.7-5.3-4.8-11.2-8.3-15.4c-1.1-1.3-6.3,2-9.6,3.1
			c0.2,0.9,0.4,1.7,0.6,2.6c3.3-0.3,6.5-0.6,9.8-0.9c-0.7,3.2-2.1,3.3-3,4.1c-2.7,2.5-5.2,5.3-7.8,8c3.2,1.5,6.4,4.2,9.6,4.3
			C1159.2,482.3,1162.8,480.1,1166.4,478.8z M195.3,472.3c1.5,0,4.3-0.1,4.3,0.1c1.2,14.8,10.2,9.6,17.8,9.4
			c-0.2-2.3-0.4-4.2-0.5-6.2c-1-16.7-3.5-18.1-16.6-10c-0.9,0.5-2.5-0.4-3.7-0.7c-1.7-13.2-9.8-11.7-18.4-10.8c0,9.4,0,18.4,0,27.8
			C185.8,482.5,194.1,486,195.3,472.3z M488.8,479.1c4.6,1.4,9.1,2.8,15.1,4.6c-0.5-9.6-0.7-15.8-1-22c-0.8,0-1.6-0.1-2.4-0.1
			c-1.3,6-2.6,12-3.8,18c-1.2-0.1-2.3-0.3-3.5-0.4c-0.4-4.2-0.6-8.5-1.4-12.7c-0.3-1.4-2-2.5-3-3.7c-0.9,2.1-1.7,4.3-2.8,7
			c-4.1-6.9-8.6-14.2-15.2-6.7c-2.7,3-3.4,12.7-1.2,16.1c4.5,7.1,10.6,5.1,15-2.3C484.7,476.7,487.3,478.4,488.8,479.1z
			 M1116.5,482.4c-0.9-4.3-1.3-8.8-2.8-12.8c-1.3-3.4-3.5-7.8-6.2-8.7c-2.4-0.9-5.9,2.3-9,3.7c0.3,0.7,0.6,1.4,0.9,2.1
			c2.9-0.3,5.7-0.6,8.6-0.8c-0.6,2.6-1.9,3-2.8,4c-2.5,2.8-4.9,5.7-7.3,8.6c3,1.4,5.9,3.4,9.1,4c3.1,0.6,6.4-0.1,9.7-0.2
			c3.7,2.3,7.4,4.5,11.1,6.8c1.3-4.1,3.2-8.1,3.8-12.4c0.7-4.7,0.2-9.6,0.2-16.7c-5.1,1.5-11.1,1.3-12.9,4.3c-2,3.4,0.1,9.8,0,14.8
			C1118.8,480.2,1117.3,481.3,1116.5,482.4z M564.7,463.2c-1.6,2-3.2,4-4.5,5.6c-2.8-2.9-5.1-5.9-7.9-8c-2.8-2.2-6.2-3.5-9.9-5.4
			c0,8.5,0,17.2,0,28.5c6.5-2,12.1-3.8,19.4-6c0.1,0.1,2.5,2.2,5,4.3c3.2-0.9,8.6-1.2,9-3c1.1-4.8,1.1-10.7-0.6-15.1
			C574.7,462.3,568.5,463.4,564.7,463.2z M217.6,563c-0.6-0.7-1.1-1.3-1.7-2c-1-4.9-0.9-10.7-3.4-14.2c-1.4-2-8.1-1.8-10.5,0.4
			c-6.4,5.9-12.8,12.6-17.1,20.5c-2.2,4.1-1.8,12.6,0.6,16.7c2,3.5,10.3,6.6,12.7,4.7c8.1-6.5,14.8-15.2,22.1-23.1
			C219.4,565.1,218.5,564,217.6,563z M1678.9,567.6c2.5-41.8-8.7-50.5-42.5-50.7c-37.1-0.2-44.8,9.5-44.9,51.1
			c0,40.2,8.4,50,43.6,50.1C1671.5,618.1,1681.2,608.1,1678.9,567.6z M878.8,454.1c-7,5-12.6,9-18.5,13.3c-3.1-4.5-7.9-12-14.4-4
			c-2.6,3.2-3.1,13-0.8,16.2c5.6,7.7,11.5,2.9,14.2-1.3c7,1.9,12.8,3.5,19.5,5.3C878.8,472.1,878.8,463.6,878.8,454.1z M389,460.6
			c-5,1-9.8,0.5-12.4,3c-2.6,2.6-3,8.1-3.7,10.2c-2.1-3.8-4.3-9.3-7.9-12.9c-1.2-1.2-6,2.3-9.1,3.6c0.3,0.7,0.5,1.4,0.8,2
			c3.2-0.2,6.4-0.4,9.5-0.5c-1.1,3.2-2.7,3.1-3.6,4c-2.5,2.3-4.8,5-7.2,7.5c3.1,1.7,6.2,4.5,9.4,4.9c7.3,0.7,14.7,0.2,21.6,0.2
			C387.2,475.9,387.9,470,389,460.6z M717.2,467.5c-0.9,0.5-1.8,1-2.7,1.4c-2.5-2.1-4.9-5.7-7.5-6c-3.9-0.4-11.2,1.2-11.3,2.6
			c-0.4,5.3,0,12.5,2.9,15.8c2.5,3,9.1,4.3,10.2-5.4c0.7-6,4.3-7,7.2-0.6c0.3,0.7,0.6,1.5,1.2,2.9
			C717.2,474,717.2,470.8,717.2,467.5z M1320.6,472.3c-5.5-5.6-9-11.6-11.4-11.1c-3.4,0.7-8.1,6-8.5,9.8c-0.3,3.6,3.8,10.3,6.8,11
			C1310.2,482.7,1314.2,477.3,1320.6,472.3z M414.9,472.4c-5.5-5.7-8.9-11.6-11.4-11.2c-3.4,0.6-8.1,5.9-8.5,9.7
			c-0.3,3.6,3.7,10.2,6.7,11.1C404.5,482.7,408.4,477.4,414.9,472.4z M943.5,470.6c-5.1-4.7-9.2-10.4-11-9.6
			c-3.8,1.8-8.1,6.6-8.8,10.9c-0.5,3,4.7,7.2,7.4,10.9C934.6,479.4,938.1,475.9,943.5,470.6z M902.2,470.2
			c-5.2-4.5-9.5-10.1-11.2-9.2c-3.7,1.9-8,6.8-8.6,11.1c-0.4,3,4.9,7.1,7.6,10.7C893.5,479.3,896.9,475.7,902.2,470.2z M641.7,460.2
			c-6,1.6-11.5,1.3-13.6,4.2c-2.2,2.9-2.3,9.7-0.9,13.6c1.1,2.9,6.1,3.9,10,6C638.8,475.5,639.9,470,641.7,460.2z M531.3,479.4
			c-1.2-0.1-2.4-0.1-3.6-0.2c-0.9-5.8-1.8-11.6-2.7-17.4c-1.1,0.3-2.3,0.5-3.4,0.8c0.9,6.2,0.5,13.3,3.1,18.2
			c1.4,2.6,8.1,1.3,13.4,1.8c-0.4-8.5-0.7-14.7-1-20.9c-0.8,0-1.6-0.1-2.4-0.1C533.6,467.5,532.5,473.5,531.3,479.4z M1273.5,482.2
			c10.4-17-2.2-20.7-10.2-27.2c0,9.2,0,18,0,26.8c0.5-0.1,1-0.1,1.5-0.2c1.3-5.6,2.6-11.1,4-16.7c1.1,0.4,2.2,0.7,3.2,1.1
			C1272.5,471.3,1273,476.8,1273.5,482.2z M965.8,484.9c5.3-21.3,1.9-26.2-12.1-22.3c0,6.5,0,12.9,0,19.3c0.5,0,1,0,1.5,0
			c1.2-5.7,2.5-11.4,3.7-17.1c1.2,0.1,2.4,0.1,3.6,0.2C963.4,470.6,964.4,476.1,965.8,484.9z M1047.6,484.4c1.5,0,3,0,4.5,0.1
			c2.3-4.3,6.8-8.9,6.2-12.7c-0.6-4.2-5.6-7.7-8.8-11.5c-2.9,3.7-7.8,7.2-8,11.1C1041.2,475.5,1045.4,480.1,1047.6,484.4z
			 M1258.1,467.2c0.4-1.1,0.8-2.2,1.2-3.4c-3.6-1-8.2-4.1-10.7-2.6c-3,1.9-5.8,7.4-5.9,11.5c-0.1,3.2,3.5,8.3,6.4,9.4
			c2.7,1.1,6.6-2,10-3.2c-4.3-2.4-7.9-1.8-11-2.9c-0.8-0.3-0.3-5.8-0.4-8.9C1251.2,467.2,1254.7,467.2,1258.1,467.2z M1031.1,484.5
			c3.4-11,6.2-20.2,9.1-29.5c-1-0.5-2-1-3-1.5c-2,5.4-3.5,11-6,16C1026.5,478.9,1026.3,478.8,1031.1,484.5z M521.4,454.4
			c-5.7,0-11.4,0-14.2,0c2,9.6,3.8,18.5,5.9,28.5C518.3,473.6,509.1,460.3,521.4,454.4z M298.6,580.3c0.6,0,1.2,0.1,1.8,0.1
			c0-9.4,0-18.7,0-28.1c-0.6,0-1.2-0.1-1.8-0.1C298.6,561.6,298.6,570.9,298.6,580.3z"/>
		<path class="st2" d="M158.4,635c6.1,0.8,12.1,2.4,18.2,2.4c494.8,0.1,989.5,0.1,1484.3,0c6.1,0,12.1-1.6,18.2-2.4
			c-3.8,2.5-7.4,5.6-11.5,7.2c-2.9,1.2-6.4,0.3-9.7,0.3c-492.8,0-985.5,0-1478.3-0.3C172.5,642.2,165.5,637.5,158.4,635z"/>
		<path class="st2" d="M1679.1,400c-6.1-0.8-12.1-2.4-18.2-2.4c-494.8-0.1-989.5-0.1-1484.3,0c-6.1,0-12.1,1.6-18.2,2.4
			c3.8-2.5,7.4-5.6,11.5-7.2c2.9-1.2,6.4-0.3,9.7-0.3c492.8,0,985.5,0,1478.3,0.3C1664.9,392.8,1672,397.5,1679.1,400z"/>
		<path class="st4" d="M411.6,278c-5.6-24.5-10.3-45.2-15-66c0.9-0.9,1.9-1.7,2.8-2.6c2.2,2.7,5.6,4.9,6.4,8
			c3.3,12.6,5.7,25.4,10.8,38.2c2.8-12.5,5.4-25.2,8.5-37.6c0.7-2.9,3.3-5.2,5.1-7.8c2.1,2.7,5.3,5,6.1,8.1
			c3.2,12.2,5.6,24.7,10.6,37.2c2-8.8,3.5-17.8,6.2-26.4c2.2-6.9-0.7-18.6,12.3-19.5c-4.9,21.2-9,40.4-13.9,59.4
			c-0.8,3.2-5.3,5.1-9.4,8.7c-3.9-16.6-7-30.1-10.5-44.8C421.7,245.9,429.2,268.1,411.6,278z"/>
		<path class="st4" d="M598.1,247.7c-1.8,6.9-3.3,14.1-5.6,20.7c-1,2.7-4,6.2-6.1,6.2c-2.1,0-5.4-3.4-6.2-6.1
			c-3.9-12.9-7.2-26.1-10.7-39.2c4.2-1.1,4.2-1.1,17.4,32.2c1.9-7.3,2.7-12.8,4.7-17.7c2.3-5.7,5.5-10.9,8.3-16.4
			c2.6,5.3,5.6,10.3,7.6,15.9c1.9,5.1,2.8,10.6,4.3,16.8c8.9-9.9,3.1-27.9,19.1-34.9c-4.5,17-8,30.7-12,44.3c-0.7,2.4-4,5.6-5.6,5.2
			c-2.4-0.5-5.4-3.2-6.4-5.9c-2.4-6.8-3.9-14-5.8-21C600.1,247.7,599.1,247.7,598.1,247.7z"/>
		<path class="st5" d="M826.5,253.1c3.9,1.5,6.4,1.9,8.3,3.4c1.3,1,1.3,4.8,2.4,5.3c5.8,2.2,11.7,4.6,17.7,5
			c1.8,0.1,6.1-7.7,5.6-8.2c-3.2-4.3-7.1-8.3-11.4-11.2c-3.6-2.5-8.8-2.2-12-5.1c-3.9-3.5-8.8-9-8.8-13.7c0-5.5,3.6-12.9,7.7-16.1
			c12.6-9.7,27.7-1,31.5,19.8c-4.1-3-6.5-4.9-9-6.5c-4.4-2.8-8.7-7.1-13.4-7.7c-2.7-0.3-7.2,4.7-8.6,8.5c-0.7,1.8,3.5,7.3,6.4,9.2
			c4.3,2.7,9.6,3.4,14.3,5.5c7.3,3.2,12.4,8.6,11.6,18.6c-0.8,9.9-6.6,14.1-14.1,16.3C841.7,280.2,830.9,272.5,826.5,253.1z"/>
		<path class="st4" d="M470.5,243.3c0.8-14.4,8.1-18.5,17.5-17.4c9.7,1.1,14.2,8.2,14.4,19.6c0.2,9.4,1.3,18.8,1.9,27.5
			c-6.8,1.1-15.1,4-23.1,3.1c-4.9-0.5-11.6-5.9-13.3-11c-2.7-8,2.6-13.9,9.8-16c5.5-1.6,11.1-2.9,17-4.5c-0.3-9.9-5.8-11.6-11.8-9.6
			C478.5,236.4,474.7,240.4,470.5,243.3z M494.8,252.6c-5.1,1-9.6,1-13.3,2.9c-2.6,1.4-4,5.5-5.9,8.4c2.9,1.7,5.9,5.1,8.6,4.8
			C491.3,267.9,495.8,263.2,494.8,252.6z"/>
		<path class="st6" d="M1035.9,259.8c-4.7,15.5-13.6,19.8-23.7,15c-9.9-4.7-14.6-20.4-10.3-34.4c3.3-10.7,12.2-16.7,21.3-14.4
			c11.1,2.8,15.9,12.3,13.8,28.5c-9,0-18.2,0-27.8,0c0.4,10,4.7,14.7,11.9,13.1C1026.3,266.5,1031,262.5,1035.9,259.8z
			 M1028.8,246.6c0.8-1.4,1.6-2.7,2.4-4.1c-3.8-2.8-7.4-7.3-11.5-8c-6.6-1.2-10.4,3.6-10.6,12.1
			C1016,246.6,1022.4,246.6,1028.8,246.6z"/>
		<path class="st6" d="M1152.7,254.5c-9.6,0-18.6,0-30.7,0c3.7,5.6,5.5,11.3,8.4,12.1c3.8,1.1,8.6-1.2,12.8-2.5
			c2.8-0.9,5.4-2.6,10-4.8c-6.1,15.8-14.7,20.3-25.2,15.8c-9.8-4.2-14.7-18.3-11.4-32.8c2.6-11.2,11.9-18.5,21.2-16.5
			C1148.8,228.2,1153.7,237.2,1152.7,254.5z M1144.4,246.4c0.6-1.1,1.3-2.3,1.9-3.4c-3.7-3-7.1-7.6-11.1-8.5
			c-6.5-1.4-10.7,3.1-11.1,11.9C1131.2,246.4,1137.8,246.4,1144.4,246.4z"/>
		<path class="st7" d="M929.5,254.4c-9.6,0-18.6,0-30.8,0c3.7,5.7,5.3,11.1,8.2,12.2c3.5,1.4,8.1-0.3,12.1-1.6c3-1,5.7-3.4,11.1-6.9
			c-6.1,16.7-13.7,21.1-24.3,17.4c-10.4-3.7-15.8-17-13-31.7c2.2-11.6,10.9-19.4,20.3-18.2C924.4,226.9,930,236.3,929.5,254.4z
			 M920.2,246.3c1-1,1.9-2.1,2.9-3.1c-3.6-3-7-7.6-11-8.5c-6.5-1.5-10.6,2.9-11.2,11.7C907.7,246.3,914,246.3,920.2,246.3z"/>
		<path class="st7" d="M1351,254.3c-9.7,0-18.6,0-28.1,0c-0.4,10.4,4.1,14.9,11.6,13.3c5.1-1.1,9.8-5,16.7-8.8
			c-5.6,15.9-13.2,20.4-23.8,16.7c-10.4-3.7-15.9-16.8-13.1-31.6c2.1-11.6,10.8-19.5,20.2-18.4
			C1345.6,226.8,1351.3,236.1,1351,254.3z M1321.1,242.5c0.8,1.2,1.5,2.3,2.3,3.5c6.5,0,13,0,19.6,0c0.5-1.3,1-2.6,1.5-3.9
			c-3.9-2.6-7.9-7.4-11.8-7.3C1328.8,234.9,1324.9,239.7,1321.1,242.5z"/>
		<path class="st8" d="M754.9,258.8c-5.5,16-13.1,20.4-23.8,16.7c-10.2-3.6-15.3-15.4-13.1-30.2c1.9-12.6,10.2-20.8,20-19.8
			c11,1.2,16.7,10,17.1,28.2c-9.5,0-19,0-28.9,0c0.1,10.8,4.3,15.6,12,14C743.4,266.5,748,262.6,754.9,258.8z M746.5,246.4
			c0.6-1.1,1.2-2.3,1.8-3.4c-3.8-2.9-7.3-7.6-11.4-8.4c-6.6-1.4-10.4,3.5-10.9,11.8C733.1,246.4,739.8,246.4,746.5,246.4z"/>
		<path class="st8" d="M1237.2,254.3c-10,0-19.2,0-28.9,0c0.4,9.5,4.2,14.7,11.4,13.3c5.2-1.1,10-5.1,16.2-8.5
			c-2.7,13.6-10,19.1-19.8,17.2c-11.5-2.3-17.7-13.4-16.1-29c1.4-13.6,9.3-22.5,19.5-22C1230.9,225.9,1237.2,235.6,1237.2,254.3z
			 M1228.7,246.3c0.6-1.2,1.2-2.3,1.8-3.5c-3.8-2.9-7.4-7.5-11.5-8.3c-6.7-1.3-10.4,3.6-10.8,11.8
			C1215.3,246.3,1222,246.3,1228.7,246.3z"/>
		<path class="st6" d="M542.1,243.1c-2.3-1.5-4.6-3.3-7-4.5c-3.1-1.6-6.4-3.7-9.6-3.8c-2.1,0-4.1,3.3-6.2,5.2c1.7,2.3,3,5.7,5.2,6.7
			c4.6,2.2,9.9,2.4,14.4,4.7c7.6,3.9,8.6,14.1,2.5,20.4c-9.9,10.4-26.8,4.4-31.3-13.9c4.2,2.6,6.8,4.2,9.5,5.7
			c3.1,1.6,6.3,4.1,9.5,4.2c2.6,0.1,5.2-2.9,7.8-4.5c-2-2.3-3.8-5.2-6.2-6.6c-3.2-1.8-7.6-1.2-10.2-3.5c-3.8-3.5-8.9-8.9-8.7-13.2
			c0.2-4.5,5.3-10.6,9.5-12.7C531.6,222,539.5,227.4,542.1,243.1z"/>
		<path class="st9" d="M1079.1,228.7c0,15.2,0,30.4,0,46.9c-9.8-6.3-22.9,9.1-29-5.1c-4.4-10.3-3.1-24-3.7-36.2
			c-0.1-2.4,2.6-5.1,4-7.6c1,0.7,2.1,1.3,3.1,2c0,9.5-0.9,19.1,0.4,28.3c0.6,4.4,5.4,8,8.3,12c3.3-3.7,8.4-6.9,9.4-11.3
			c1.6-7.4,0.2-15.7,0.9-23.5c0.2-2.6,2.7-5,4.2-7.5C1077.5,227.3,1078.3,228,1079.1,228.7z"/>
		<path class="st9" d="M1303.2,275.9c-1.5-2.2-4.2-4.2-4.4-6.5c-0.6-7-0.2-14.1-0.2-21.2c0-7-0.7-14.5-8.4-14.6
			c-8.1-0.1-10.9,6.5-10.8,15.2c0.1,8.3,0,16.6,0,24.9c-0.9,0.7-1.8,1.4-2.7,2.1c-1.5-2.4-4.3-4.8-4.4-7.3
			c-0.4-13.3-0.2-26.6-0.2-38.7c6.2-1.5,11.9-3,17.6-4.1c8.3-1.6,15.3,5.1,15.8,15.8c0.5,10.7,0.1,21.5,0.1,32.3
			C1304.8,274.5,1304,275.2,1303.2,275.9z"/>
		<path class="st10" d="M1385.9,274.5c0-9.1,0.9-18.3-0.3-27.1c-0.7-5-4.3-12.6-7.6-13.4c-7.1-1.6-10.8,5.1-11,13.2
			c-0.2,7.5,0.3,15-0.3,22.4c-0.2,2.3-3.1,4.3-6.6,8.9c0-19.8,0-35,0-51c12.4,4.4,33.6-13.3,33,18.9c-0.2,9.5,4.2,21.3-3.2,29.1
			C1388.5,275.1,1387.2,274.8,1385.9,274.5z"/>
		<path class="st6" d="M632.3,251.7c-0.2-14.9,7.9-26,19.4-26.3c11-0.3,19.3,10,19.6,24.5c0.3,15.7-7,26.2-18.6,26.8
			C641.1,277.3,632.5,266.7,632.3,251.7z M651.3,234.2c-9.2,0.8-10.9,8.4-10.7,17.4c0.1,8.6,2.1,16,11.1,16.3
			c9.8,0.3,11.8-8,11.8-16.8C663.4,242.5,661.5,234.5,651.3,234.2z"/>
		<path class="st11" d="M960,210.7c2.1,1.6,5.5,2.9,6,5c1,4.2,0.3,8.9,0.3,13.7c19.6-7.6,26.3-2,26.4,21.3c0,6.2,0.4,12.5-0.2,18.6
			c-0.3,2.4-3,4.5-4.6,6.7c-0.8-0.7-1.7-1.4-2.5-2c0-8.6,0.1-17.3,0-25.9c-0.1-6.9-0.6-14.4-8.3-14.6c-8.1-0.1-10.8,6.5-10.7,15.2
			c0.1,6.6,0.5,13.3-0.3,19.8c-0.3,2.3-3.9,4.1-6,6.2C960,253.4,960,232.1,960,210.7z"/>
		<path class="st12" d="M762.8,229.5c6.6-1.4,12.4-2.7,18.3-3.7c8.6-1.5,15.5,5.6,15.9,17.2c0.4,10.3,0.1,20.7-2.3,33
			c-1.6-2.2-4.4-4.2-4.6-6.5c-0.6-7.4,0.8-15.2-0.6-22.3c-1-5-4.7-12.5-8-13.1c-7.1-1.4-10.7,5.1-10.6,13.5c0,6.6,0.5,13.4-0.3,19.9
			c-0.4,3.2-3.2,6-4.9,9.1c-1-0.6-2-1.2-3-1.7C762.8,259.4,762.8,244.2,762.8,229.5z"/>
		<path class="st2" d="M1694.1,617.7c0.7-7,2.1-13.9,2.1-20.9c0.2-52.8,0.2-105.7,0-158.5c0-7-1.4-13.9-2.1-20.9
			c2.2,5.6,6.2,11.2,6.2,16.8c0.5,55.6,0.5,111.1,0,166.7C1700.3,606.5,1696.3,612.1,1694.1,617.7z"/>
		<path class="st2" d="M143.4,417.3c-0.7,7-2.1,13.9-2.1,20.9c-0.2,52.8-0.2,105.7,0,158.5c0,7,1.4,13.9,2.1,20.9
			c-2.2-5.6-6.2-11.2-6.2-16.8c-0.5-55.6-0.5-111.1,0-166.7C137.2,428.5,141.2,422.9,143.4,417.3z"/>
		<path class="st4" d="M1401.1,228.5c3.5-15.1,11-21.1,23.5-18.6c9.3,1.8,14,8.4,13.3,19.2c-0.2,3.5-1.6,7.3-3.4,10.1
			c-3.9,6.2-8.2,11.9-12.7,17.5c-0.9,1.1-3.3,0.6-7.7-1.7c3.4-5.4,7-10.7,10.1-16.3c2.3-4.2,4.9-8.8,5.1-13.4
			c0.1-2.4-4.9-7.3-7.3-7.1c-4.1,0.4-8.2,3.5-11.9,6.2c-2.5,1.8-4.4,4.9-6.6,7.4C1402.8,230.6,1402,229.6,1401.1,228.5z"/>
		<path class="st11" d="M1087.6,229.7c2-1.9,4.3-3.4,5.9-5.7c1.9-2.6,3.1-5.8,4.7-8.7c1.4,3.4,2.7,6.7,4.6,11.5
			c1.8,0.3,5.2,0.8,8.6,1.3c0.3,1.1,0.7,2.2,1,3.3c-3.4,1.6-6.8,3.1-10.9,5c0,9.2,0,19.4,0,28.8c4.1,2.3,7.6,4.2,11,6
			c-16.4,5.6-18.5,3.4-19-14.5c-0.3-8.7-1.9-17.4-2.9-26.2C1089.6,230.4,1088.6,230,1087.6,229.7z"/>
		<path class="st13" d="M1292.7,914.9c-5.8,0-11.6,0-18.4,0c-2.8,9.5-10.6,14.6-14.8,6.9c-3.5-6.2-4.3-14.4-6.3-21.7l0.1-0.2
			c2.6-1.2,5.3-3.6,7.7-3.2c4.4,0.7,8.6,3.2,12.9,4.6c2.1,0.7,4.5,0.6,6.7,0.9c0-0.4,0-0.8-0.1-1.2c-0.1-0.3-0.5-0.5-1.6,0.7
			c1.4,1.2,2.8,2.3,4.2,3.5c-1.2,0.3-2.5,0.6-4.3,1.1c1.3,0.7,2.1,1.1,2.9,1.5c2.3,1.7,4.5,3.6,6.8,5.1
			C1289.8,913.8,1291.3,914.2,1292.7,914.9z"/>
		<path class="st10" d="M690.7,274.9c-5.4,1.3-11.1,0.2-11-11.3c0-15.4-0.2-30.8,0.2-46.2c0.1-2.4,2.3-4.7,3.6-7.1
			c1.2,2.5,3.3,4.9,3.4,7.4c0.4,10-0.3,20,0.3,29.9C687.6,256.1,689.3,264.3,690.7,274.9z"/>
		<path class="st12" d="M1244.9,273.6c0-15.2,0-30.5,0-45.3c5.5-0.3,10.6-0.9,15.6-0.7c1.9,0.1,3.8,2.1,5.7,3.2
			c-1.4,1.4-2.7,3.9-4.1,4c-8,0.5-9.1,6.6-9.1,13.8c0,6.2,0.5,12.6-0.2,18.7c-0.4,3.2-3.1,6.1-4.8,9.1
			C1246.9,275.5,1245.9,274.5,1244.9,273.6z"/>
		<path class="st14" d="M1199.7,272.5c-11.4,3.7-17.5,3.3-17.8-7.3c-0.5-16.5-0.2-33.1,0-49.6c0-2,1.9-4,2.9-6
			c1.1,0.3,2.3,0.5,3.4,0.8c0,11.2-0.5,22.4,0.2,33.6C1188.9,254.1,1182.8,266.8,1199.7,272.5z"/>
		<path class="st14" d="M706,211.1c0,11.9-0.1,23.9,0,35.8c0.1,9.3-3,20,8.5,24.9c-10.6,4.9-14.6,2.9-14.8-7.1
			c-0.4-16.1-0.2-32.3,0-48.4c0-2.3,1.9-4.6,3-6.8C703.8,210,704.9,210.6,706,211.1z"/>
		<path class="st13" d="M1214,912.5c-10,2.5-19.8,9.1-30.4,2.4c0,0-0.1,0.6-0.1,0.6c3.6-4.4,7.1-8.9,11.3-14.1
			c-3.1-1-5.7-1.8-8.3-2.7c0.1-1.1,0.2-2.1,0.4-3.2c6.4,0.7,12.7,1.4,17.3,1.8c0.4,5.8-0.1,10.5,1.3,14.2
			C1206.2,913,1211.2,912.2,1214,912.5L1214,912.5z M1205.8,899.6c-1-0.2-2-0.4-3.1-0.6c-3.1,4-6.1,8.1-10.5,13.9
			c5.7,0.9,9.1,1.4,13.6,2.2C1205.8,909,1205.8,904.3,1205.8,899.6z"/>
		<path class="st15" d="M1051.1,889.9c1.4,3.9,3.3,7.6,4.1,11.7c0.6,2.9-0.2,6.1-0.5,10.5c6.6-4,11.2-6.8,15.8-9.6
			c-0.1-0.6-0.3-1.2-0.4-1.8c-3.1,0.4-6.2,0.8-10.2,1.4c4.3-7.7,8.5-9.3,14.2-3.7c4.5,4.5,9.3,10,1.5,14.7
			c-4.1,2.5-10.3,1.1-15.5,0.4c-2.4-0.3-4.6-2.9-6.8-4.5C1052.5,902.7,1051.8,896.3,1051.1,889.9z"/>
		<path class="st13" d="M1051.1,889.9c0.7,6.4,1.4,12.7,2.1,19.1c-3-0.8-6-1.7-9.6-2.7c-1.3,4.1-2.4,7.6-4.2,13.3
			c-0.9-3.7-1.5-5.2-1.5-6.7c-0.1-7.8,0-15.7,0-25.3C1043,888.5,1047.1,889.2,1051.1,889.9z"/>
		<path class="st16" d="M990,899.3c0.4-6.1,0.7-11.1,1-16.1c1,0,1.9-0.1,2.9-0.1c0.5,5.3,1,10.6,1.5,16.3c4.8,0.5,9.4,1,14,1.4
			c0,1.1,0.1,2.1,0.1,3.2c-4.6,0.6-9.2,1.1-14.2,1.7c-0.4,5.5-0.8,10.8-1.3,16.1c-0.9,0-1.8,0.1-2.8,0.1c-0.5-5.3-1-10.6-1.5-16.3
			c-4.8-0.5-9.4-1-14-1.4c0-1.1-0.1-2.1-0.1-3.2C980.3,900.5,984.8,899.9,990,899.3z"/>
		<path class="st10" d="M884.6,251.4c0,5.8,0.3,11.7-0.2,17.5c-0.2,2.2-2.2,4.1-3.3,6.2c-1.3-1.9-3.6-3.8-3.6-5.8
			c-0.3-12.1-0.3-24.1,0-36.2c0.1-1.9,2.5-3.7,3.9-5.5c1.1,1.7,3,3.4,3.1,5.2C884.9,238.9,884.6,245.2,884.6,251.4z"/>
		<path class="st15" d="M1183.6,915.5c0,0,0.1-0.6,0.1-0.6c-1.6-0.9-3.8-1.3-4.5-2.7c-1.8-3.7-3-7.9-4.4-11.9
			c-1.2,4.3-2.4,8.5-3.7,12.8c-0.5,1.6-1.3,3.1-3.8,4.3c0-6.6,0-13.1,0-19.9C1181.7,893.7,1181.7,893.7,1183.6,915.5z"/>
		<path class="st15" d="M1149.7,917.5c-0.5-5.7-1-11.4-1.5-17.1c-1.1-0.3-2.3-0.6-3.4-0.9c-1.3,5.9-2.5,11.8-3.8,17.7
			c-0.6-0.1-1.2-0.3-1.9-0.4c0-9.2,0-18.3,0-28.5C1153.9,909.2,1153.9,909.2,1149.7,917.5z"/>
		<path class="st2" d="M903.5,950c0-31.7,0-63.4,0-95.1c0.7,3.1,2.1,6.1,2.1,9.2c0.2,25.5,0.2,51.1,0,76.6
			C905.6,943.9,904.2,947,903.5,950z"/>
		<path class="st17" d="M960,210.7c0,21.3,0,42.6,0,64c-0.7-4.9-2.2-9.8-2.1-14.7C958.3,243.6,959.3,227.2,960,210.7z"/>
		<path class="st13" d="M1222.7,897.3c2-0.9,4-1.7,5.9-2.6c0,4.9,0,10.9,0,16.9c1.6-6.7,3.4-13.9-5.9-14.4
			C1222.7,897.2,1222.7,897.3,1222.7,897.3z"/>
		<path class="st13" d="M1214.1,912.4c11.4,1.4,7-9.1,8.6-15.1c0,0,0-0.2,0-0.2c-1.7,4.4-3.3,8.7-5,13.3
			C1217.6,910.6,1215.8,911.5,1214.1,912.4C1214,912.5,1214.1,912.4,1214.1,912.4z"/>
		<path class="st2" d="M1253.1,900.1c-4.5-2.5-9-5.1-13.6-7.6c8.2-3.8,13-1.6,13.7,7.4C1253.3,899.9,1253.1,900.1,1253.1,900.1z"/>
		<path class="st2" d="M143.3,619.7c4.4,5.1,8.9,10.2,13.3,15.3C148.2,634.5,143.7,629.4,143.3,619.7z"/>
		<path class="st2" d="M1680.8,635c4.4-5.1,8.9-10.2,13.3-15.3C1693.7,629.4,1689.3,634.5,1680.8,635z"/>
		<path class="st2" d="M156.6,400c-4.4,5.1-8.9,10.2-13.3,15.3C143.7,405.6,148.2,400.5,156.6,400z"/>
		<path class="st2" d="M1694.1,415.3c-4.4-5.1-8.9-10.2-13.3-15.3C1689.3,400.5,1693.7,405.6,1694.1,415.3z"/>
		<path class="st18" d="M1292.7,914.9c-1.4-0.6-2.8-1.1-4.1-2c-2.3-1.6-4.6-3.4-6.8-5.1c4.1-0.2,8.3-0.4,12.4-0.7
			C1293.7,909.7,1293.2,912.3,1292.7,914.9z"/>
		<path class="st2" d="M1246.4,920.3c-2.7-1.5-5.4-3-8-4.5c0.6-1.5,1.1-3,1.7-4.5c2.8,1.4,5.6,2.8,8.3,4.3
			C1247.7,917.2,1247.1,918.7,1246.4,920.3z"/>
		<path class="st16" d="M1294.2,907.1c-4.1,0.2-8.3,0.4-12.4,0.7c-0.8-0.4-1.6-0.8-2.9-1.5c1.8-0.5,3.1-0.8,4.3-1.1
			c2.9-1,5.8-2,9.6-3.2C1293,902.8,1293.6,904.9,1294.2,907.1z"/>
		<path class="st16" d="M835.4,883c10.4-16.7,21.5-13.7,32-0.5c-0.3,7.3-1,16.1-0.9,24.9c0.1,8-2.6,11.6-9.6,10.8
			c-1.4-0.2-2.9,0-4.3,0c-16.1,0.1-16.1,0.1-16.2-18.2C836.3,894.1,835.7,888.1,835.4,883z M861.7,885.7c-7.3,0-13.8,0-20.4,0
			c0,9.3,0,17.8,0,26.5c7.1,0,13.6,0,20.4,0C861.7,903.2,861.7,895,861.7,885.7z"/>
		<path class="st19" d="M1678.9,567.6c2.3,40.5-7.4,50.5-43.8,50.5c-35.2,0-43.6-9.9-43.6-50.1c0-41.6,7.8-51.3,44.9-51.1
			C1670.2,517.1,1681.4,525.8,1678.9,567.6z M1641.3,564.3c-7.5,0.6-13.9,1-20.2,1.5c0,1.3,0.1,2.6,0.1,3.8c6.4,0,12.8,0,19.9,0
			c-2.3,5.1-3.7,8.2-5.1,11.4c0.6,0.4,1.2,0.9,1.8,1.3c4.5-4.8,9.1-9.6,14.3-15.1c-5.8-5.8-10.2-10.3-14.6-14.7
			c-0.6,0.8-1.3,1.6-1.9,2.4C1637.3,557.7,1639,560.5,1641.3,564.3z"/>
		<path class="st20" d="M878.8,454.1c0,9.4,0,18,0,29.4c-6.7-1.8-12.5-3.4-19.5-5.3c-2.7,4.2-8.6,9-14.2,1.3
			c-2.3-3.2-1.8-13,0.8-16.2c6.4-8,11.2-0.4,14.4,4C866.2,463.1,871.8,459.2,878.8,454.1z"/>
		<path class="st21" d="M389,460.6c-1.1,9.4-1.8,15.3-2.6,22c-6.9,0-14.3,0.5-21.6-0.2c-3.2-0.3-6.3-3.2-9.4-4.9
			c2.4-2.5,4.7-5.2,7.2-7.5c0.9-0.9,2.5-0.8,3.6-4c-3.2,0.2-6.4,0.4-9.5,0.5c-0.3-0.7-0.5-1.4-0.8-2c3.2-1.3,8-4.8,9.1-3.6
			c3.6,3.7,5.7,9.1,7.9,12.9c0.7-2.1,1.1-7.7,3.7-10.2C379.2,461.1,384,461.6,389,460.6z"/>
		<path class="st22" d="M803.6,472.5c-0.5,1.5-1,2.9-1.5,4.4c-0.1,0.4-0.2,0.8-0.2,1.2c0.1,0,0.2-0.1,0.2-0.1
			c-2.7-1.2-5.4-2.5-8.3-3.8c-0.5,0.4-1.4,0.8-1.5,1.4c-1.5,7.7-3,18.1-12,12.7c-4-2.4-4.8-13.5-5.6-20.8c-0.2-2,4.7-6.6,7.5-6.7
			c3-0.2,6.1,3.5,9.1,5.5c2,1.3,4,2.7,6,4.1C799.4,471,801.5,471.8,803.6,472.5z"/>
		<path class="st23" d="M217.6,563c0.9,1,1.8,2.1,2.8,3.1c-7.2,7.9-14,16.7-22.1,23.1c-2.4,1.9-10.7-1.2-12.7-4.7
			c-2.4-4.1-2.9-12.7-0.6-16.7c4.3-7.9,10.7-14.6,17.1-20.5c2.3-2.1,9-2.4,10.5-0.4c2.5,3.4,2.4,9.3,3.4,14.2
			c-0.5,0.2-0.8,0.6-1,1.2c-2.2,0.9-4.3,1.9-6.5,2.8c0.7-4.7,1.4-9.5,2.1-14.2c-3,1.2-6.1,2.3-9.1,3.5c-0.7,0.8-1.5,1.7-2.2,2.5
			c-0.7,0.8-1.4,1.7-2.2,2.5c-2.9,3.4-5.7,6.8-8.6,10.2c0.6,4.7,1.2,9.4,1.8,14.1c3.3-0.2,6.6-0.4,10-0.6c2.2-2.5,4.4-5,6.6-7.5
			c2.8-3.3,5.5-6.6,8.3-9.9C216,564.8,216.8,563.9,217.6,563z"/>
		<path class="st22" d="M284.6,466.6c7-3.3,13.9-11.1,21.5-0.9c0.4,0.5,4.1-2.3,6.3-3.5c0.2,1.1,0.4,2.2,0.6,3.3
			c0.4,4.1,0.8,8.2,1.2,12.3c2.8-0.9,6.3-0.9,8.3-2.8c1.9-1.9,2.3-5.8,3.3-8.8l0.1,0.2c0.7-3.7,1.4-7.3,2.1-11c0,8.8,0,17.6,0,26.3
			c-1.6-0.8-3.5-2.8-4.6-2.3c-9.3,4.5-9.2,4.7-17.1-2.5c-5.6,6.2-11.6,9.6-18.2,1.3c-0.2-0.2-2.3,1.7-3.5,2.6
			C284.7,476.1,284.6,471.3,284.6,466.6z M297.4,483c2-6.2,4-9.4,3.7-12.3c-0.2-2-3.5-3.6-5.5-5.4c-1.3,2.6-3.7,5.1-3.6,7.6
			C292,475.3,294.5,477.7,297.4,483z"/>
		<path class="st24" d="M566.9,482.2c-2.4-2.1-4.9-4.2-5-4.3c-7.3,2.3-12.9,4-19.4,6c0-11.2,0-20,0-28.5c3.7,2,7,3.3,9.9,5.4
			c2.8,2.1,5.1,5.1,7.9,8c1.2-1.6,2.9-3.6,4.5-5.6C565.5,469.5,566.2,475.8,566.9,482.2z"/>
		<path class="st25" d="M717.2,467.5c0,3.3,0,6.6,0,10.7c-0.6-1.4-0.9-2.1-1.2-2.9c-2.9-6.4-6.5-5.4-7.2,0.6
			c-1.1,9.7-7.7,8.4-10.2,5.4c-2.9-3.4-3.3-10.5-2.9-15.8c0.1-1.4,7.5-3,11.3-2.6c2.6,0.3,5,3.9,7.5,6
			C715.4,468.4,716.3,467.9,717.2,467.5z"/>
		<path class="st26" d="M1116.5,482.4c0.8-1.1,2.3-2.2,2.3-3.3c0.1-5.1-2-11.4,0-14.8c1.7-3,7.7-2.8,12.9-4.3
			c0,7.1,0.5,12.1-0.2,16.7c-0.6,4.3-2.5,8.3-3.8,12.4c-3.7-2.3-7.4-4.5-11.1-6.8C1116.7,482.2,1116.5,482.4,1116.5,482.4z"/>
		<path class="st22" d="M488.8,479.1c-1.5-0.8-4.2-2.5-4.3-2.2c-4.4,7.4-10.5,9.4-15,2.3c-2.2-3.4-1.4-13.1,1.2-16.1
			c6.6-7.5,11.1-0.2,15.2,6.7c1.1-2.7,2-4.8,2.8-7C488.8,468.3,488.8,473.7,488.8,479.1z"/>
		<path class="st21" d="M196.6,465c1.3,0.3,2.9,1.2,3.7,0.7c13.1-8.2,15.6-6.7,16.6,10c0.1,2,0.3,3.9,0.5,6.2
			c-7.6,0.2-16.6,5.4-17.8-9.4c0-0.2-2.8-0.1-4.3-0.1c0,0,0.2,0.2,0.2,0.2C195.9,470,196.2,467.5,196.6,465L196.6,465z M211.1,468.5
			c-0.4-1.2-0.7-2.4-1.1-3.6c-3.3,1.4-6.5,2.8-9.8,4.1c0.3,0.9,0.6,1.8,0.9,2.8C204.4,470.7,207.7,469.6,211.1,468.5z"/>
		<path class="st21" d="M1166.4,478.8c-3.6,1.2-7.2,3.5-10.7,3.4c-3.2-0.1-6.4-2.8-9.6-4.3c2.6-2.7,5.1-5.5,7.8-8
			c0.9-0.8,2.2-0.9,3-4.1c-3.3,0.3-6.5,0.6-9.8,0.9c-0.2-0.9-0.4-1.7-0.6-2.6c3.3-1.2,8.5-4.4,9.6-3.1c3.6,4.2,5.6,10,8.3,15.4
			c0.6-4,1.3-8.6,2-13.3C1166.4,468.3,1166.4,473.6,1166.4,478.8z"/>
		<path class="st25" d="M1214.2,465.1c1-0.4,2.2-0.4,2.8-1.1c4.6-4.7,10.2-5.6,12.7,0.8c1.7,4.4-0.6,10.9-1.2,16.5
			c-4.2-1-8.3-1.9-12.5-3c-0.7-0.2-1.2-0.7-1.9-1.1l0,0.1c0-4.2,0-8.3,0-12.5L1214.2,465.1z"/>
		<path class="st25" d="M1320.6,472.3c-6.4,5.1-10.3,10.4-13.1,9.7c-3-0.8-7.1-7.4-6.8-11c0.3-3.8,5.1-9.1,8.5-9.8
			C1311.6,460.7,1315,466.6,1320.6,472.3z"/>
		<path class="st23" d="M986.2,465c1,1.2,1.9,2.3,0.8,1c6.4-1.9,14.7-6,15.6-4.4c3.2,5.5,3.9,12.9,5.5,19.6
			c-1.4,0.4-2.7,0.7-4.1,1.1c-1-5.5-2-11.1-3-16.6c-1-0.1-2-0.3-3-0.4c-1.3,5.7-2.6,11.3-4,17c-2.6-3.2-5.1-6.3-7.6-9.3
			C986.3,470.3,986.3,467.6,986.2,465z"/>
		<path class="st25" d="M414.9,472.4c-6.4,5-10.4,10.4-13.1,9.6c-3-0.8-7-7.5-6.7-11.1c0.3-3.8,5.1-9.1,8.5-9.7
			C406,460.7,409.4,466.7,414.9,472.4z"/>
		<path class="st24" d="M943.5,470.6c-5.4,5.3-8.9,8.8-12.4,12.2c-2.7-3.7-7.9-7.9-7.4-10.9c0.7-4.3,5-9.1,8.8-10.9
			C934.3,460.2,938.4,465.9,943.5,470.6z"/>
		<path class="st24" d="M902.2,470.2c-5.3,5.5-8.8,9-12.2,12.6c-2.7-3.6-8-7.7-7.6-10.7c0.6-4.3,4.8-9.2,8.6-11.1
			C892.8,460.1,897,465.7,902.2,470.2z"/>
		<path class="st21" d="M1116.7,482.2c-3.2,0.1-6.5,0.9-9.7,0.2c-3.1-0.6-6.1-2.6-9.1-4c2.4-2.9,4.8-5.8,7.3-8.6
			c0.9-0.9,2.1-1.4,2.8-4c-2.9,0.3-5.7,0.6-8.6,0.8c-0.3-0.7-0.6-1.4-0.9-2.1c3-1.4,6.5-4.5,9-3.7c2.6,0.9,4.8,5.3,6.2,8.7
			c1.5,4,1.9,8.5,2.8,12.8C1116.5,482.4,1116.7,482.2,1116.7,482.2z"/>
		<path class="st26" d="M196.6,465C196.6,465,196.6,464.9,196.6,465c-4.7-2.2-9.4-4.3-14.1-6.4c0,6.1,0,12.2,0,18.3
			c4.3-1.4,8.7-2.8,13-4.2c0,0-0.2-0.2-0.2-0.2c-1.3,13.6-9.6,10.2-17.2,9.7c0-9.5,0-18.4,0-27.8C186.8,453.2,194.9,451.8,196.6,465
			z"/>
		<path class="st24" d="M986.2,465c0.1,2.7,0.2,5.3,0.2,8c-1.9,3.3-3.6,9-5.7,9.2c-2.9,0.2-8-3-8.7-5.9c-1-3.9,0.2-10.9,2.6-12.8
			C977,461.5,982.2,464.3,986.2,465z"/>
		<path class="st25" d="M660.5,473c1.5,6.8-0.8,11.7-6.7,9.2c-3.4-1.5-7.5-8-7.3-12.1c0.2-7,4.1-12.6,11.8-7.9
			C659,465.9,659.8,469.5,660.5,473z"/>
		<path class="st21" d="M641.7,460.2c-1.9,9.8-2.9,15.3-4.5,23.8c-3.8-2.1-8.9-3.1-10-6c-1.5-3.8-1.3-10.7,0.9-13.6
			C630.2,461.4,635.7,461.8,641.7,460.2z"/>
		<path class="st20" d="M531.3,479.4c1.1-5.9,2.3-11.9,3.4-17.8c0.8,0,1.6,0.1,2.4,0.1c0.3,6.2,0.6,12.4,1,20.9
			c-5.3-0.6-12,0.7-13.4-1.8c-2.6-4.9-2.3-12-3.1-18.2c1.1-0.3,2.3-0.5,3.4-0.8c0.9,5.8,1.8,11.6,2.7,17.4
			C528.9,479.3,530.1,479.3,531.3,479.4z"/>
		<path class="st21" d="M660.5,473c-0.8-3.6-1.5-7.1-2.3-10.7c1.9,1.7,3.9,3.5,4.2,3.8c5.8-1.8,10.6-4.7,15.2-4.2
			c2.1,0.2,4.9,6.9,5,10.7c0.1,3.2-2.8,8.6-5.2,9.3c-3,0.9-7.1-1.4-10.5-3.1C664.6,477.5,662.7,475,660.5,473z M681,472.4
			c-2.5-3.1-4.3-5.2-6-7.3c-1.9,2.2-5.4,4.4-5.4,6.6c0,2.6,3,5.2,4.8,7.7C676.3,477.4,678.2,475.4,681,472.4z"/>
		<path class="st27" d="M1273.5,482.2c-0.5-5.4-1-10.9-1.5-16.3c-1.1-0.4-2.2-0.7-3.2-1.1c-1.3,5.6-2.6,11.1-4,16.7
			c-0.5,0.1-1,0.1-1.5,0.2c0-8.8,0-17.5,0-26.8C1271.3,461.5,1283.8,465.2,1273.5,482.2z"/>
		<path class="st22" d="M1214.2,477.3c-5.1,2.4-10.3,4.9-15.4,7.3c-0.7-1.3-1.3-2.7-2-4c2.8-4.5,5.7-8.9,9-14.2
			c-3.2-0.9-5.7-1.5-8.3-2.2c0.3-1.4,0.5-2.8,0.8-4.1c5.3,1.7,10.5,3.4,15.8,5.1c0,0,0.1-0.1,0.1-0.1c-2.9,3.5-5.7,7-8.6,10.5
			c0.5,1,1,2.1,1.5,3.1c2.4-0.4,4.7-0.8,7.1-1.1L1214.2,477.3z"/>
		<path class="st20" d="M965.8,484.9c-1.4-8.8-2.3-14.3-3.2-19.9c-1.2-0.1-2.4-0.1-3.6-0.2c-1.2,5.7-2.5,11.4-3.7,17.1
			c-0.5,0-1,0-1.5,0c0-6.4,0-12.8,0-19.3C967.7,458.7,971.1,463.6,965.8,484.9z"/>
		<path class="st27" d="M284.6,466.6c0.1,4.8,0.1,9.6,0.2,14.3c-1.5-0.6-4.2-0.9-4.3-1.7c-0.6-4.4-0.6-8.9-0.8-13.4
			c-1.1-0.3-2.2-0.7-3.4-1c-1.4,5.6-2.8,11.2-4.3,16.9c-0.5,0-0.9,0.1-1.4,0.1c0-8.8,0-17.6,0-27
			C275.3,458.7,279.9,462.6,284.6,466.6z"/>
		<path class="st25" d="M566.9,482.2c-0.7-6.3-1.5-12.7-2.2-19c3.7,0.2,9.9-0.8,10.6,0.9c1.7,4.4,1.7,10.3,0.6,15.1
			C575.5,481,570.1,481.2,566.9,482.2z"/>
		<path class="st20" d="M1166.4,478.8c0-5.3,0-10.5,0-15.8c1.1,1.1,2.8,2,3,3.3c0.7,4.2,0.9,8.5,1.3,12.8c1.2,0.2,2.3,0.4,3.5,0.6
			c1.3-5.9,2.6-11.9,3.8-17.8c0.8,0,1.5,0,2.3-0.1c0.4,6.2,0.7,12.5,1.3,22.3C1175.3,482,1170.9,480.4,1166.4,478.8z"/>
		<path class="st20" d="M488.8,479.1c0-5.4,0-10.8,0-16.3c1,1.2,2.7,2.3,3,3.7c0.8,4.2,1,8.4,1.4,12.7c1.2,0.1,2.3,0.3,3.5,0.4
			c1.3-6,2.6-12,3.8-18c0.8,0,1.6,0.1,2.4,0.1c0.3,6.2,0.6,12.4,1,22C497.9,481.9,493.4,480.5,488.8,479.1z"/>
		<path class="st21" d="M1047.6,484.4c-2.2-4.3-6.4-8.9-6.1-13c0.3-3.9,5.2-7.4,8-11.1c3.1,3.8,8.2,7.2,8.8,11.5
			c0.5,3.8-4,8.4-6.2,12.7C1050.6,484.5,1049.1,484.4,1047.6,484.4z M1051,461.1c-3.2,5.2-5.8,7.6-5.7,9.7c0.3,3,2.6,5.7,4.1,8.5
			c1.8-2,4.9-3.8,5.2-6.2C1055,470.5,1053,467.3,1051,461.1z"/>
		<path class="st22" d="M1258.1,467.2c-3.5,0-6.9,0-10.4,0c0.1,3.1-0.4,8.6,0.4,8.9c3.1,1.1,6.7,0.4,11,2.9c-3.4,1.2-7.3,4.3-10,3.2
			c-2.9-1.1-6.5-6.2-6.4-9.4c0.1-4.1,2.9-9.7,5.9-11.5c2.5-1.5,7,1.5,10.7,2.6C1258.9,465,1258.5,466.1,1258.1,467.2z"/>
		<path class="st20" d="M328.1,481.7c0-8.8,0-17.6,0-26.3c0.7,0.1,1.4,0.2,2.2,0.3c0.1,0.9,0.2,1.8,0.3,2.7
			c13.1,4.5,14.8,8.5,8.6,23.3c-0.2-3.7-0.1-7.6-0.8-11.2c-0.4-1.9-2.3-3.4-3.5-5.1c-1.2,1.7-2.8,3.3-3.5,5.2
			C330.1,474.2,329.2,478,328.1,481.7z"/>
		<path class="st20" d="M1031.1,484.5c-4.8-5.7-4.6-5.6,0.1-15c2.5-5,4-10.7,6-16c1,0.5,2,1,3,1.5
			C1037.3,464.3,1034.5,473.5,1031.1,484.5z"/>
		<path class="st26" d="M521.4,454.4c-12.3,5.9-3.1,19.1-8.3,28.5c-2.1-10-3.9-18.9-5.9-28.5C510,454.4,515.7,454.4,521.4,454.4z"/>
		<path class="st22" d="M235,467.5c-2.5-0.5-5.1-1-7.6-1.5c0,5.1,0,10.1,0,16.1c-0.3-0.1-4.2-0.8-4.4-2.2c-1.2-7.4-1.6-15-2.5-25.8
			c7.3,6.2,11.5,9.8,15.8,13.4C235.9,467.5,235.5,467.6,235,467.5z"/>
		<path class="st23" d="M298.6,580.3c0-9.4,0-18.8,0-28.1c0.6,0,1.2,0.1,1.8,0.1c0,9.4,0,18.7,0,28.1
			C299.8,580.4,299.2,580.3,298.6,580.3z"/>
		<path class="st21" d="M325.9,466.4c0,0-0.1-0.2-0.1-0.2c-4.3-0.2-8.6-0.4-12.9-0.6c-0.2-1.1-0.4-2.2-0.6-3.3c0,0,0.1,0.1,0.1,0.1
			c0.8-0.5,1.6-1,2.4-1.6C318.6,462.6,322.3,464.5,325.9,466.4z"/>
		<path class="st25" d="M803.6,472.5c-2.1-0.7-4.2-1.4-6.3-2.1c0.7-0.8,1.5-2.2,2.1-2.2c2.1,0.1,4.2,0.8,6.3,1.2
			c0.7-1.6,1.5-3.3,2.2-4.9c1.5,1.9,2.9,3.7,5.6,7.2C808.9,472.1,806.2,472.3,803.6,472.5z"/>
		<path class="st25" d="M235,467.5c0.4,0,0.9,0,1.3,0c2.3,0.6,4.6,1.3,6.9,1.9c0.7-1.6,1.5-3.3,2.2-4.9c1.4,1.9,2.8,3.8,4.3,5.6
			C244.1,470.2,237.7,478.5,235,467.5z"/>
		<path class="st28" d="M245.4,464.5c-0.7,1.6-1.5,3.3-2.2,4.9c0.2-2.5,0.4-5.1,0.6-7.6C244.3,462.7,244.9,463.6,245.4,464.5z"/>
		<path class="st28" d="M807.9,464.5c-0.7,1.6-1.5,3.3-2.2,4.9c0.2-2.5,0.4-5.1,0.6-7.6C806.9,462.7,807.4,463.6,807.9,464.5z"/>
		<path class="st22" d="M330.6,458.4c-0.1-0.9-0.2-1.8-0.3-2.7c0.2,0.6,0.5,1.2,0.7,1.8C331,457.7,330.7,458.1,330.6,458.4z"/>
		<path class="st22" d="M314.9,460.7c-0.8,0.5-1.6,1-2.4,1.6C313.3,461.7,314.1,461.2,314.9,460.7z"/>
		<path class="st2" d="M494.8,252.6c1,10.5-3.5,15.3-10.6,16.1c-2.7,0.3-5.7-3.1-8.6-4.8c1.9-2.9,3.4-7.1,5.9-8.4
			C485.2,253.6,489.7,253.6,494.8,252.6z"/>
		<path class="st18" d="M1028.8,246.6c-6.4,0-12.8,0-19.7,0c0.2-8.5,4-13.3,10.6-12.1c4.1,0.7,7.7,5.2,11.5,8
			C1030.4,243.9,1029.6,245.2,1028.8,246.6z"/>
		<path class="st18" d="M1144.4,246.4c-6.6,0-13.2,0-20.2,0c0.4-8.8,4.5-13.3,11.1-11.9c4,0.9,7.4,5.5,11.1,8.5
			C1145.7,244.1,1145,245.3,1144.4,246.4z"/>
		<path class="st29" d="M920.2,246.3c-6.3,0-12.5,0-19.3,0c0.6-8.8,4.7-13.2,11.2-11.7c4,0.9,7.4,5.6,11,8.5
			C922.2,244.2,921.2,245.2,920.2,246.3z"/>
		<path class="st29" d="M1321.1,242.5c3.9-2.8,7.7-7.7,11.6-7.8c3.9-0.1,7.8,4.7,11.8,7.3c-0.5,1.3-1,2.6-1.5,3.9
			c-6.5,0-13,0-19.6,0C1322.6,244.9,1321.8,243.7,1321.1,242.5z"/>
		<path class="st2" d="M746.5,246.4c-6.7,0-13.4,0-20.5,0c0.5-8.3,4.3-13.2,10.9-11.8c4.1,0.9,7.6,5.5,11.4,8.4
			C747.7,244.1,747.1,245.3,746.5,246.4z"/>
		<path class="st2" d="M1228.7,246.3c-6.7,0-13.4,0-20.5,0c0.4-8.1,4.1-13.1,10.8-11.8c4.1,0.8,7.7,5.4,11.5,8.3
			C1229.9,244,1229.3,245.2,1228.7,246.3z"/>
		<path class="st28" d="M651.3,234.2c10.2,0.2,12.2,8.3,12.2,17c0,8.7-2,17.1-11.8,16.8c-9-0.3-10.9-7.7-11.1-16.3
			C640.4,242.6,642.1,235.1,651.3,234.2z"/>
		<path class="st0" d="M1205.8,899.6c0,4.7,0,9.4,0,15.4c-4.4-0.7-7.9-1.3-13.6-2.2c4.4-5.8,7.4-9.8,10.5-13.9
			C1203.7,899.2,1204.8,899.4,1205.8,899.6z"/>
		<path class="st1" d="M861.7,885.7c0,9.3,0,17.5,0,26.5c-6.8,0-13.4,0-20.4,0c0-8.8,0-17.3,0-26.5
			C847.9,885.7,854.4,885.7,861.7,885.7z"/>
		<path class="st28" d="M1641.3,564.3c-2.3-3.8-4-6.6-5.7-9.4c0.6-0.8,1.3-1.6,1.9-2.4c4.4,4.5,8.8,8.9,14.6,14.7
			c-5.2,5.5-9.8,10.3-14.3,15.1c-0.6-0.4-1.2-0.9-1.8-1.3c1.4-3.2,2.8-6.3,5.1-11.4c-7.2,0-13.6,0-19.9,0c0-1.3-0.1-2.6-0.1-3.8
			C1627.4,565.4,1633.8,564.9,1641.3,564.3z"/>
		<path class="st2" d="M201.5,554.4c3-1.2,6.1-2.3,9.1-3.5c-0.7,4.7-1.4,9.4-2.1,14.2c0,0,0.1-0.1,0.1-0.1
			c-4.5,4.1-9.1,8.1-13.6,12.2c-0.4-0.5-0.8-1-1.2-1.4c1.3-2.7,2.6-5.5,4-8.2c0,0,0,0.1,0,0.1c3.6-3.6,7.2-7.1,10.8-10.7
			c-0.5-0.7-1.1-1.4-1.6-2.1c-1.2,0.6-2.4,1.3-3.6,1.9C202.6,555.9,202.1,555.1,201.5,554.4z"/>
		<path class="st2" d="M215.2,565.7c-2.8,3.3-5.5,6.6-8.3,9.9c-0.7-0.7-1.3-1.5-2-2.2c1.2-2.8,2.4-5.6,3.6-8.4c0,0-0.1,0.1-0.1,0.1
			c2.2-0.9,4.3-1.9,6.5-2.8C215,563.4,215.1,564.5,215.2,565.7z"/>
		<path class="st2" d="M188.5,569.6c2.9-3.4,5.7-6.8,8.6-10.2c0.7,0.7,1.3,1.3,2,2c-0.5,2-1,4.1-1.5,6.1c0,0,0-0.1,0-0.1
			c-2.4,1.4-4.8,2.8-7.2,4.2C189.9,571,189.2,570.3,188.5,569.6z"/>
		<path class="st2" d="M190.3,583.7c-0.6-4.7-1.2-9.4-1.8-14.1c0.7,0.7,1.3,1.4,2,2c0.5,3.3,0.9,6.6,1.4,10
			C191.3,582.3,190.8,583,190.3,583.7z"/>
		<path class="st2" d="M206.8,575.6c-2.2,2.5-4.4,5-6.6,7.5c-0.6-0.8-1.3-1.6-1.9-2.4c2.2-2.4,4.4-4.9,6.6-7.3
			C205.5,574.1,206.2,574.9,206.8,575.6z"/>
		<path class="st2" d="M200.3,583.1c-3.3,0.2-6.6,0.4-10,0.6c0.5-0.7,1-1.4,1.6-2.1c2.2-0.3,4.3-0.6,6.5-0.9
			C199,581.5,199.6,582.3,200.3,583.1z"/>
		<path class="st2" d="M199.3,556.9c0.7-0.8,1.5-1.7,2.2-2.5c0.6,0.8,1.2,1.6,1.8,2.3c-0.7,0.8-1.4,1.5-2.1,2.3
			C200.5,558.3,199.9,557.6,199.3,556.9z"/>
		<path class="st3" d="M215.2,565.7c-0.1-1.2-0.2-2.3-0.2-3.5c0.2-0.5,0.5-0.9,1-1.2c0.6,0.7,1.1,1.3,1.7,2
			C216.8,563.9,216,564.8,215.2,565.7z"/>
		<path class="st2" d="M197.1,559.4c0.7-0.8,1.4-1.7,2.2-2.5c0.6,0.7,1.2,1.4,1.8,2.1c-0.7,0.8-1.3,1.6-2,2.4
			C198.4,560.7,197.8,560.1,197.1,559.4z"/>
		<path class="st2" d="M297.4,483c-3-5.2-5.4-7.7-5.4-10.1c0-2.5,2.3-5.1,3.6-7.6c1.9,1.8,5.3,3.4,5.5,5.4
			C301.4,473.6,299.4,476.8,297.4,483z"/>
		<path class="st3" d="M313,465.5c4.3,0.2,8.6,0.4,12.9,0.6c-1,3-1.4,7-3.3,8.8c-2,2-5.5,2-8.3,2.8
			C313.8,473.7,313.4,469.6,313,465.5z"/>
		<path class="st3" d="M195.5,472.6c-4.3,1.4-8.7,2.8-13,4.2c0-6.1,0-12.2,0-18.3c4.7,2.1,9.4,4.3,14.1,6.4
			C196.2,467.5,195.9,470,195.5,472.6z"/>
		<path class="st3" d="M211.1,468.5c-3.3,1.1-6.7,2.2-10,3.3c-0.3-0.9-0.6-1.8-0.9-2.8c3.3-1.4,6.5-2.8,9.8-4.1
			C210.3,466.1,210.7,467.3,211.1,468.5z"/>
		<path class="st3" d="M1214.2,477.4c-2.4,0.4-4.7,0.8-7.1,1.1c-0.5-1-1-2.1-1.5-3.1c2.9-3.5,5.7-7,8.6-10.5
			C1214.2,469.1,1214.2,473.2,1214.2,477.4z"/>
		<path class="st28" d="M182.5,458.5c0,6.1,0,12.2,0,18.3C182.5,470.7,182.5,464.6,182.5,458.5z"/>
		<path class="st2" d="M681,472.4c-2.9,3.1-4.7,5.1-6.6,7.1c-1.7-2.6-4.8-5.2-4.8-7.7c0-2.2,3.5-4.4,5.4-6.6
			C676.8,467.2,678.5,469.3,681,472.4z"/>
		<path class="st2" d="M1051,461.1c2,6.3,4,9.4,3.6,12.1c-0.3,2.3-3.4,4.1-5.2,6.2c-1.5-2.8-3.8-5.6-4.1-8.5
			C1045.2,468.7,1047.8,466.3,1051,461.1z"/>
		<path class="st23" d="M198.3,580.7c-2.2,0.3-4.3,0.6-6.5,0.9c-0.5-3.3-0.9-6.7-1.4-10c2.4-1.4,4.8-2.8,7.2-4.2
			c-1.3,2.7-2.6,5.5-4,8.2c0.4,0.5,0.8,1,1.2,1.4c4.5-4.1,9.1-8.1,13.6-12.2c-1.2,2.8-2.4,5.6-3.6,8.4
			C202.7,575.8,200.5,578.2,198.3,580.7z"/>
		<path class="st23" d="M199.1,561.4c0.7-0.8,1.3-1.6,2-2.4c0.7-0.8,1.4-1.5,2.1-2.3c1.2-0.6,2.4-1.3,3.6-1.9
			c0.5,0.7,1.1,1.4,1.6,2.1c-3.6,3.6-7.2,7.1-10.8,10.7C198.1,565.5,198.6,563.5,199.1,561.4z"/>
	</g>
</g>
</svg>
