<?xml version="1.0" encoding="utf-8"?>
<!-- Generator: Adobe Illustrator 25.0.0, SVG Export Plug-In . SVG Version: 6.00 Build 0)  -->
<svg version="1.1" id="Ebene_1" xmlns="http://www.w3.org/2000/svg" xmlns:xlink="http://www.w3.org/1999/xlink" x="0px" y="0px"
	 viewBox="0 0 283.5 283.5" style="enable-background:new 0 0 283.5 283.5;" xml:space="preserve">
<g>
	<path d="M190.8,142.5c0.3,27.4-20.2,47.4-46.9,47.9c-25.5,0.5-46.6-20.5-47.5-44.1c-1-26.4,19.7-48.2,46.6-48.5
		C169.6,97.6,189.7,117.3,190.8,142.5z M144,112.8c-15.2-1.3-33.2,11.2-32.8,32.3c0.4,16.9,14,30.8,32.7,30.9
		c16.6,0.1,32.3-13.6,31.9-33.1C175.5,126.1,159.6,111.7,144,112.8z"/>
	<path d="M189.2,180.8c2,1.1,4.4,2,6,3.5c6.8,6.5,13.3,13.1,19.9,19.8c3.2,3.2,3.4,7,0.6,10.1c-2.9,3.2-7,3.6-10.5,0.7
		c-2.8-2.4-5.4-5.1-8-7.7c-4.7-4.7-9.4-9.4-14-14.2c-1.9-2-2.9-4.4-1.6-7.1C183,182.9,185.3,181.1,189.2,180.8z"/>
	<path d="M106.4,99.8c-0.6,3.2-1.8,5.3-4.4,6.4c-3,1.3-6.1,1-8.6-1.2c-3.7-3.3-7.3-6.8-10.9-10.3S75.4,87.7,72,84
		c-3.5-3.9-3.4-7.3,0.1-10.5c3.1-2.9,7.4-2.7,10.9,0.7c6.5,6.3,13,12.5,19.3,19C104.1,95,105,97.6,106.4,99.8z"/>
	<path d="M106.3,188.7c-1,1.8-1.7,3.9-3.1,5.3c-6.3,6.5-12.8,12.7-19.1,19.1c-4.2,4.2-8.3,4.8-11.8,1.8c-3-2.5-3.8-6.2-1.3-9.2
		c3.2-3.8,6.8-7.3,10.3-10.8c3.6-3.6,7.1-7.4,11-10.7c1.7-1.4,4.1-2.5,6.3-2.7C103.1,181.1,105.6,183.8,106.3,188.7z"/>
	<path d="M221.6,151.6c-4.5,0-9,0.1-13.5,0c-4.3-0.1-7.9-3.4-8-7.4s3-7.3,7.6-7.4c10-0.2,20-0.2,30,0c4.4,0.1,7.1,2.9,7.2,6.9
		c0.1,4.3-2.2,7.3-6.8,7.6c-5.5,0.4-11,0.1-16.5,0.1C221.6,151.5,221.6,151.5,221.6,151.6z"/>
	<path d="M209.9,71.5c3.2,0.5,5.7,1.2,7,4.1c1.4,3.2,0.8,6.2-1.6,8.7c-3.5,3.6-7.1,7-10.6,10.6c-3.2,3.2-6.3,6.6-9.8,9.5
		c-1.7,1.4-4.1,2.4-6.3,2.6c-3.3,0.3-5.5-1.8-6.9-4.6c-1.4-2.8-0.2-5.1,1.7-7.1c4.8-5,9.8-9.8,14.7-14.8c2.2-2.2,4.3-4.6,6.8-6.6
		C206.2,72.8,208.1,72.3,209.9,71.5z"/>
	<path d="M53.7,151.3c-2-0.1-4,0.1-5.9-0.2c-3.3-0.7-5.5-3.6-5.5-7.1c0-3.4,2-5.9,5.4-6.8c0.4-0.1,0.9-0.3,1.3-0.3
		c10.5,0,21-0.2,31.5,0.1c4.2,0.1,6.5,3.1,6.6,7.1c0.1,3.7-1.8,6.3-5.5,6.9c-2.6,0.4-5.2,0.2-7.8,0.3c-1.1-0.3-2.2-0.9-3.4-1
		c-4.5-0.1-8.9-0.1-13.4,0C55.9,150.4,54.8,151,53.7,151.3z"/>
	<path d="M136.7,204.7c1.6-4,4.1-5.6,8.3-5.1c3.4,0.4,6,3.1,6,7c0.2,9.9,0.2,19.8,0,29.7c-0.1,4.6-3.2,7.2-7.6,7.3
		c-4,0-6.5-2.5-6.8-7c0.2-1.4,0.6-2.7,0.6-4.1c0.1-7,0.1-14,0-21C137.3,209.2,136.9,207,136.7,204.7z"/>
	<path d="M136.6,51.8c0.6-5.2,2.8-7.2,7.5-7c4.1,0.2,6.9,3,7,7.5c0.1,9.4,0.1,18.7,0,28.1c0,2.7-0.6,5.4-3.2,7.1
		c-4.6,3-9.1,1.3-11.3-4.3c0.2-1.4,0.6-2.7,0.6-4.1c0.1-7.4,0.1-14.7,0-22.1C137.3,55.2,136.9,53.5,136.6,51.8z"/>
	<path d="M53.7,151.3c1.1-0.3,2.2-0.9,3.4-1c4.5-0.1,8.9-0.1,13.4,0c1.1,0,2.2,0.6,3.4,1C67.1,151.3,60.4,151.3,53.7,151.3z"/>
	<path d="M136.7,204.7c0.2,2.2,0.6,4.5,0.6,6.7c0.1,7,0.1,14,0,21c0,1.4-0.4,2.7-0.6,4.1C136.6,225.9,136.7,215.3,136.7,204.7z"/>
	<path d="M136.6,51.8c0.2,1.7,0.6,3.4,0.7,5c0.1,7.4,0.1,14.7,0,22.1c0,1.4-0.4,2.7-0.6,4.1C136.6,72.6,136.6,62.2,136.6,51.8z"/>
</g>
</svg>
